<svg xmlns="http://www.w3.org/2000/svg" width="24" height="24" viewBox="0 0 24 24" fill="none">
    <path opacity="0.4" d="M12 3C16.2426 3 18.3636 3.00034 19.6816 4.31836C20.9997 5.63638 21 7.75736 21 12C21 15.0341 20.9986 16.9828 20.5166 18.3291C19.7636 17.7835 19.2201 16.9693 19.0264 16.0215C19.0205 15.9928 18.9795 15.9928 18.9736 16.0215C18.6698 17.5081 17.5081 18.6698 16.0215 18.9736C15.9928 18.9795 15.9928 19.0205 16.0215 19.0264C16.9693 19.2201 17.7835 19.7636 18.3291 20.5166C16.9828 20.9986 15.0341 21 12 21C7.75736 21 5.63638 20.9997 4.31836 19.6816C3.00034 18.3636 3 16.2426 3 12C3 7.75736 3.00034 5.63638 4.31836 4.31836C5.63638 3.00034 7.75736 3 12 3Z" fill="currentColor" />
    <path d="M7 14L9.79289 11.2071C10.1834 10.8166 10.8166 10.8166 11.2071 11.2071L12.7929 12.7929C13.1834 13.1834 13.8166 13.1834 14.2071 12.7929L17 10" stroke="currentColor" stroke-width="2" stroke-linecap="round" stroke-linejoin="round" />
    <path d="M20.9993 13C21 12.6804 21 12.3473 21 12C21 7.75736 21 5.63604 19.682 4.31802C18.364 3 16.2426 3 12 3C7.75736 3 5.63604 3 4.31802 4.31802C3 5.63604 3 7.75736 3 12C3 16.2426 3 18.364 4.31802 19.682C5.63604 21 7.75736 21 12 21C12.3473 21 12.6804 21 13 20.9993" stroke="currentColor" stroke-width="2" stroke-linecap="round" stroke-linejoin="round" />
    <path d="M18.9737 16.0215C18.9795 15.9928 19.0205 15.9928 19.0263 16.0215C19.3302 17.5081 20.4919 18.6698 21.9785 18.9737C22.0072 18.9795 22.0072 19.0205 21.9785 19.0263C20.4919 19.3302 19.3302 20.4919 19.0263 21.9785C19.0205 22.0072 18.9795 22.0072 18.9737 21.9785C18.6698 20.4919 17.5081 19.3302 16.0215 19.0263C15.9928 19.0205 15.9928 18.9795 16.0215 18.9737C17.5081 18.6698 18.6698 17.5081 18.9737 16.0215Z" stroke="currentColor" stroke-width="2" stroke-linecap="round" stroke-linejoin="round" />
</svg>