<svg xmlns="http://www.w3.org/2000/svg" width="24" height="24" viewBox="0 0 24 24" fill="none">
    <path opacity="0.4" fill-rule="evenodd" clip-rule="evenodd" d="M12 4C15.7712 4 17.6566 4.0003 18.8281 5.17188C19.9997 6.34345 20 8.22876 20 12V13C20 17.2426 19.9997 19.3636 18.6816 20.6816C18.1996 21.1636 17.6099 21.4672 16.8486 21.6611V21.4229C16.195 19.5384 14.1395 18.1898 11.7988 18.0479L11.0029 18C10.7186 18.0071 10.4531 18.0162 10.2031 18.0273C7.88415 18.1307 5.80981 19.5285 5.15332 21.4229V21.6621C4.39102 21.4682 3.80079 21.1641 3.31836 20.6816C2.00034 19.3636 2 17.2426 2 13C2 8.75736 2.00034 6.63638 3.31836 5.31836C4.63638 4.00034 6.75736 4 11 4H12ZM11 10C9.61929 10 8.5 11.1193 8.5 12.5C8.5 13.8807 9.61929 15 11 15C12.3807 15 13.5 13.8807 13.5 12.5C13.5 11.1193 12.3807 10 11 10Z" fill="currentColor" />
    <path d="M5.15314 21.423C5.80958 19.5285 7.88395 18.1309 10.203 18.0276C10.453 18.0164 10.718 18.0071 11.0024 18L11.7984 18.0482C14.1392 18.1901 16.1952 19.5384 16.8487 21.423" stroke="currentColor" stroke-width="2" stroke-linecap="round" stroke-linejoin="round" />
    <path d="M10 4H13M20 11V14M2 12V14M6 4C3.79089 4 1.99989 5.79089 2 8M2 18.1953C2 20.2968 3.70362 22.0004 5.80515 22.0004H16.1948C18.2964 22.0004 20 20.2968 20 18.1953" stroke="currentColor" stroke-width="2" stroke-linecap="round" stroke-linejoin="round" />
    <path d="M13.5 12.5C13.5 13.8807 12.3807 15 11 15C9.61929 15 8.5 13.8807 8.5 12.5C8.5 11.1193 9.61929 10 11 10C12.3807 10 13.5 11.1193 13.5 12.5Z" stroke="currentColor" stroke-width="2" stroke-linecap="round" stroke-linejoin="round" />
    <path d="M19.5 2.9375V4.5M19.5 4.5V6.0625M19.5 4.5H18.25M19.5 4.5H20.75M22 4.5L20.9156 4.13852C20.4179 3.97263 20.0274 3.58211 19.8615 3.08443L19.5 2L19.1385 3.08443C18.9726 3.58211 18.5821 3.97263 18.0844 4.13852L17 4.5L18.0844 4.86148C18.5821 5.02737 18.9726 5.41789 19.1385 5.91557L19.5 7L19.8615 5.91557C20.0274 5.41789 20.4179 5.02737 20.9156 4.86148L22 4.5Z" stroke="currentColor" stroke-width="2" stroke-linecap="round" stroke-linejoin="round" />
</svg>