<svg xmlns="http://www.w3.org/2000/svg" width="24" height="24" viewBox="0 0 24 24" fill="none">
    <path opacity="0.4" fill-rule="evenodd" clip-rule="evenodd" d="M12 3C16.2426 3 18.3636 3.00034 19.6816 4.31836C20.9997 5.63638 21 7.75736 21 12C21 16.2426 20.9997 18.3636 19.6816 19.6816C18.3636 20.9997 16.2426 21 12 21C7.75736 21 5.63638 20.9997 4.31836 19.6816C3.00034 18.3636 3 16.2426 3 12C3 7.75736 3.00034 5.63638 4.31836 4.31836C5.63638 3.00034 7.75736 3 12 3ZM10 7C8.58579 7 7.87879 7.00011 7.43945 7.43945C7.00011 7.87879 7 8.58579 7 10C7 11.4142 7.00011 12.1212 7.43945 12.5605C7.87879 12.9999 8.58579 13 10 13C11.4142 13 12.1212 12.9999 12.5605 12.5605C12.9999 12.1212 13 11.4142 13 10C13 8.58579 12.9999 7.87879 12.5605 7.43945C12.1212 7.00011 11.4142 7 10 7Z" fill="currentColor" />
    <path d="M21 14V12C21 7.75736 21 5.63604 19.682 4.31802C18.364 3 16.2426 3 12 3C7.75736 3 5.63604 3 4.31802 4.31802C3 5.63604 3 7.75736 3 12C3 16.2426 3 18.364 4.31802 19.682C5.63604 21 7.75736 21 12 21H14" stroke="currentColor" stroke-width="2" stroke-linecap="round" stroke-linejoin="round" />
    <path d="M7.43934 12.5607C7.87868 13 8.58579 13 10 13C11.4142 13 12.1213 13 12.5607 12.5607C13 12.1213 13 11.4142 13 10C13 8.58579 13 7.87868 12.5607 7.43934C12.1213 7 11.4142 7 10 7C8.58579 7 7.87868 7 7.43934 7.43934C7 7.87868 7 8.58579 7 10C7 11.4142 7 12.1213 7.43934 12.5607Z" stroke="currentColor" stroke-width="2" stroke-linecap="round" stroke-linejoin="round" />
    <path d="M19.5 17.9375V19.5M19.5 19.5V21.0625M19.5 19.5H18.25M19.5 19.5H20.75M22 19.5L20.9156 19.1385C20.4179 18.9726 20.0274 18.5821 19.8615 18.0844L19.5 17L19.1385 18.0844C18.9726 18.5821 18.5821 18.9726 18.0844 19.1385L17 19.5L18.0844 19.8615C18.5821 20.0274 18.9726 20.4179 19.1385 20.9156L19.5 22L19.8615 20.9156C20.0274 20.4179 20.4179 20.0274 20.9156 19.8615L22 19.5Z" stroke="currentColor" stroke-width="2" stroke-linecap="round" stroke-linejoin="round" />
</svg>