<svg xmlns="http://www.w3.org/2000/svg" width="24" height="24" viewBox="0 0 24 24" fill="none">
    <path opacity="0.4" d="M13.7021 7H10.3004C6.83647 7 5.10451 7 3.95935 8.0439C2.81419 9.0878 2.65431 10.8124 2.33454 14.2615L2.00775 17.7863C1.88376 19.5229 3.25862 21 4.99897 21H5.74565C6.97188 21 8.07458 20.2531 8.52999 19.1142L9.27239 17.2575C9.5159 16.6484 9.63766 16.3439 9.89163 16.172C10.1456 16 10.4735 16 11.1294 16H12.8705C13.5264 16 13.8544 16 14.1083 16.172C14.3623 16.3439 14.4841 16.6484 14.7276 17.2575L15.47 19.1142C15.9254 20.2531 17.0281 21 18.2543 21H19.001C20.7413 21 22.1162 19.5229 21.9922 17.7863L21.6685 14.2672C21.351 10.8156 21.1922 9.08973 20.0468 8.04486C18.9014 7 17.1683 7 13.7021 7Z" fill="currentColor" />
    <path d="M6.00197 7C5.12646 7.14253 4.48185 7.40465 3.95939 7.8867C2.81423 8.94326 2.65434 10.6887 2.33457 14.1797L2.00779 17.7473C1.8838 19.5049 3.25865 21 4.999 21H5.74568C6.97192 21 8.07462 20.2441 8.53003 19.0913L9.27242 17.2121C9.51594 16.5956 9.63769 16.2874 9.89166 16.1134C10.1456 15.9393 10.4736 15.9393 11.1295 15.9393H12.8706C13.5264 15.9393 13.8544 15.9393 14.1084 16.1134C14.3623 16.2874 14.4841 16.5956 14.7276 17.2121L15.47 19.0913C15.9254 20.2441 17.0281 21 18.2543 21H19.001C20.7414 21 22.1162 19.5049 21.9922 17.7473L21.6685 14.1855C21.351 10.692 21.1922 8.94521 20.0469 7.88767C19.5241 7.405 18.8789 7.14263 18.0024 7" stroke="currentColor" stroke-width="2" stroke-linecap="round" stroke-linejoin="round" />
    <path d="M11.9737 3.02148C11.9796 2.99284 12.0205 2.99284 12.0263 3.02148C12.3302 4.50808 13.4919 5.66984 14.9785 5.97368C15.0072 5.97954 15.0072 6.02046 14.9785 6.02632C13.4919 6.33016 12.3302 7.49192 12.0263 8.97852C12.0205 9.00716 11.9796 9.00716 11.9737 8.97852C11.6699 7.49192 10.5081 6.33016 9.0215 6.02632C8.99285 6.02046 8.99285 5.97954 9.0215 5.97368C10.5081 5.66984 11.6699 4.50808 11.9737 3.02148Z" stroke="currentColor" stroke-width="2" stroke-linecap="round" stroke-linejoin="round" />
    <path d="M7.37502 11.75H7.25002M7.50002 11.75C7.50002 11.8881 7.38809 12 7.25002 12C7.11194 12 7.00002 11.8881 7.00002 11.75C7.00002 11.6119 7.11194 11.5 7.25002 11.5C7.38809 11.5 7.50002 11.6119 7.50002 11.75Z" stroke="currentColor" stroke-width="2" stroke-linecap="round" stroke-linejoin="round" />
    <path d="M16.875 11.75H16.75M17 11.75C17 11.8881 16.8881 12 16.75 12C16.6119 12 16.5 11.8881 16.5 11.75C16.5 11.6119 16.6119 11.5 16.75 11.5C16.8881 11.5 17 11.6119 17 11.75Z" stroke="currentColor" stroke-width="2" stroke-linecap="round" stroke-linejoin="round" />
</svg>