<svg xmlns="http://www.w3.org/2000/svg" width="24" height="24" viewBox="0 0 24 24" fill="none">
    <path opacity="0.4" d="M11 2C14.0421 2 15.6809 2.00145 16.7217 2.80469C16.231 3.90584 15.2348 4.72564 14.0215 4.97363C13.9928 4.97949 13.9928 5.02051 14.0215 5.02637C15.5081 5.33022 16.6698 6.49193 16.9736 7.97852C16.9795 8.00716 17.0205 8.00716 17.0264 7.97852C17.168 7.28536 17.4973 6.66389 17.958 6.16602C17.9983 6.94682 18 7.87799 18 9V15C18 18.2998 17.9997 19.9495 16.9746 20.9746C15.9495 21.9997 14.2998 22 11 22C7.70017 22 6.05052 21.9997 5.02539 20.9746C4.00026 19.9495 4 18.2998 4 15V9C4 5.70017 4.00026 4.05052 5.02539 3.02539C6.05052 2.00026 7.70017 2 11 2Z" fill="currentColor" />
    <path d="M18 11.5V15C18 18.2998 18 19.9497 16.9749 20.9749C15.9497 22 14.2998 22 11 22C7.70017 22 6.05025 22 5.02513 20.9749C4 19.9497 4 18.2998 4 15V9C4 5.70017 4 4.05025 5.02513 3.02513C6.05025 2 7.70017 2 11 2C11.7473 2 11.41 2 12 2.01191" stroke="currentColor" stroke-width="2" stroke-linecap="round" stroke-linejoin="round" />
    <path d="M11.125 18.75H11M11.25 18.75C11.25 18.8881 11.1381 19 11 19C10.8619 19 10.75 18.8881 10.75 18.75C10.75 18.6119 10.8619 18.5 11 18.5C11.1381 18.5 11.25 18.6119 11.25 18.75Z" stroke="currentColor" stroke-width="2" stroke-linecap="round" stroke-linejoin="round" />
    <path d="M16.9737 2.02148C16.9795 1.99284 17.0205 1.99284 17.0263 2.02148C17.3302 3.50808 18.4919 4.66984 19.9785 4.97368C20.0072 4.97954 20.0072 5.02046 19.9785 5.02632C18.4919 5.33016 17.3302 6.49192 17.0263 7.97852C17.0205 8.00716 16.9795 8.00716 16.9737 7.97852C16.6698 6.49192 15.5081 5.33016 14.0215 5.02632C13.9928 5.02046 13.9928 4.97954 14.0215 4.97368C15.5081 4.66984 16.6698 3.50808 16.9737 2.02148Z" stroke="currentColor" stroke-width="2" stroke-linecap="round" stroke-linejoin="round" />
</svg>