<svg xmlns="http://www.w3.org/2000/svg" width="24" height="24" viewBox="0 0 24 24" fill="none">
    <path d="M13 8.50733V11.5H14.8832C15.5 11.5 16 12 16 12.6168C16 12.8652 15.9172 13.1064 15.7647 13.3025L12.8025 17.1111C12.6116 17.3565 12.3182 17.5 12.0073 17.5C11.451 17.5 11 17.049 11 16.4927L11 13.5H9.11681C8.50001 13.5 8 13 8 12.3832C8 12.1348 8.08278 11.8936 8.23525 11.6975L11.1975 7.88889C11.3884 7.64352 11.6818 7.5 11.9927 7.5C12.549 7.5 13 7.951 13 8.50733Z" stroke="currentColor" stroke-width="2" stroke-linecap="round" stroke-linejoin="round" />
    <path opacity="0.4" fill-rule="evenodd" clip-rule="evenodd" d="M12 3C15.7712 3 17.6566 3.0003 18.8281 4.17188C19.9997 5.34345 20 7.22876 20 11V14C20 17.7712 19.9997 19.6566 18.8281 20.8281C17.6566 21.9997 15.7712 22 12 22C8.22876 22 6.34345 21.9997 5.17188 20.8281C4.0003 19.6566 4 17.7712 4 14V11C4 7.22876 4.0003 5.34345 5.17188 4.17188C6.34345 3.0003 8.22876 3 12 3ZM11.9922 7.5C11.6815 7.50015 11.388 7.64343 11.1973 7.88867L8.23535 11.6973C8.08295 11.8932 8.00008 12.1346 8 12.3828C8 12.9996 8.50039 13.5 9.11719 13.5H11V16.4922C11 17.0485 11.4515 17.5 12.0078 17.5C12.3185 17.4999 12.612 17.3566 12.8027 17.1113L15.7646 13.3027C15.917 13.1068 15.9999 12.8654 16 12.6172C16 12.0004 15.4996 11.5 14.8828 11.5H13V8.50781C13 7.95148 12.5485 7.5 11.9922 7.5Z" fill="currentColor" />
    <path d="M20 10V14C20 17.7712 20 19.6569 18.8284 20.8284C17.6569 22 15.7712 22 12 22C8.22876 22 6.34315 22 5.17157 20.8284C4 19.6569 4 17.7712 4 14V11C4 7.22876 4 5.34315 5.17157 4.17157C6.34315 3 8.22876 3 12 3H14" stroke="currentColor" stroke-width="2" stroke-linecap="round" stroke-linejoin="round" />
    <path d="M19.5 2.9375V4.5M19.5 4.5V6.0625M19.5 4.5H18.25M19.5 4.5H20.75M22 4.5L20.9156 4.13852C20.4179 3.97263 20.0274 3.58211 19.8615 3.08443L19.5 2L19.1385 3.08443C18.9726 3.58211 18.5821 3.97263 18.0844 4.13852L17 4.5L18.0844 4.86148C18.5821 5.02737 18.9726 5.41789 19.1385 5.91557L19.5 7L19.8615 5.91557C20.0274 5.41789 20.4179 5.02737 20.9156 4.86148L22 4.5Z" stroke="currentColor" stroke-width="2" stroke-linecap="round" stroke-linejoin="round" />
</svg>