<svg xmlns="http://www.w3.org/2000/svg" width="24" height="24" viewBox="0 0 24 24" fill="none">
    <path d="M5.5 17C3.52684 16.7534 2 15.0665 2 13.0222V10.0155C2 7.20036 2 5.79279 2.67412 4.78166C2.96596 4.34393 3.34096 3.9681 3.77772 3.67561C4.78661 3 6.19108 3 9 3H15C17.8089 3 19.2134 3 20.2223 3.67561C20.659 3.9681 21.034 4.34393 21.3259 4.78166C22 5.79279 22 7.20036 22 10.0155V13.0222C22 15.0665 20.4732 16.7534 18.5 17" stroke="currentColor" stroke-width="2" stroke-linecap="round" stroke-linejoin="round" />
    <path opacity="0.4" fill-rule="evenodd" clip-rule="evenodd" d="M22 7C22 4.79086 20.2091 3 18 3H6C3.79086 3 2 4.79086 2 7V13C2 15.2091 3.79086 17 6 17H8.45571C9.24337 17 9.99518 16.6708 10.5294 16.0921C11.2173 15.3469 11.5612 14.9743 11.999 14.9743C12.4369 14.9743 12.7808 15.3469 13.4686 16.0921C14.0029 16.6708 14.7547 17 15.5424 17H18C20.2091 17 22 15.2091 22 13V7Z" fill="currentColor" />
    <path d="M14.9026 17.6435L13.4706 16.0921C12.7828 15.347 12.4388 14.9744 12.001 14.9744C11.5632 14.9744 11.2192 15.347 10.5314 16.0921L9.09936 17.6435C7.77092 19.0826 7.10671 19.8022 7.36893 20.4011C7.63116 21 8.61043 21 10.569 21H13.433C15.3916 21 16.3708 21 16.6331 20.4011C16.8953 19.8022 16.2311 19.0826 14.9026 17.6435Z" stroke="currentColor" stroke-width="2" stroke-linecap="round" stroke-linejoin="round" />
</svg>