<svg xmlns="http://www.w3.org/2000/svg" width="24" height="24" viewBox="0 0 24 24" fill="none">
    <path opacity="0.4" d="M8.10531 10.6681C9.84171 13.1648 12.6282 15.9662 14.6196 17.8423C13.3297 19.1502 11.5742 20 9.5 20C7.01472 20 5 17.9853 5 15.5C5 12.9815 6.78388 11.4541 8.10531 10.6681C7.14059 9.28103 6.5 7.98799 6.5 7C6.5 5.34315 7.84315 4 9.5 4C11.1569 4 12.5 5.34315 12.5 7C12.5 9 9.5 10 9.5 10C9.5 10 8.88267 10.2058 8.10531 10.6681Z" fill="currentColor" />
    <path d="M17 20C17 20 6.5 11 6.5 7C6.5 5.34315 7.84315 4 9.5 4C11.1569 4 12.5 5.34315 12.5 7C12.5 9 9.5 10 9.5 10C9.5 10 5 11.5 5 15.5C5 17.9853 7.01472 20 9.5 20C13.2504 20 15.9589 17.2217 16.7572 13.9805C17.0125 12.944 17.1401 12.4257 17.4118 12.2129C17.6834 12 18.1223 12 19 12" stroke="currentColor" stroke-width="2" stroke-linecap="round" stroke-linejoin="round" />
</svg>