<svg xmlns="http://www.w3.org/2000/svg" width="24" height="24" viewBox="0 0 24 24" fill="none">
    <path opacity="0.4" d="M20.9102 9.37589C21.4489 6.44296 19.508 3.62852 16.575 3.08979C14.3482 2.68075 12.1896 3.70121 11.0436 5.5L11.1734 5.64062C12.2727 6.35349 13 7.59141 13 8.99919C13 11.2083 11.2091 12.9992 8.99995 12.9992C7.59217 12.9992 6.35425 12.2719 5.64139 11.1726L5.50003 11.0436C3.70121 12.1896 2.68071 14.3482 3.08976 16.5751C3.62849 19.508 6.44293 21.4489 9.37586 20.9102C15.2312 19.8347 19.8346 15.2312 20.9102 9.37589Z" fill="currentColor" />
    <path d="M16.5751 3.08979C13.6421 2.55106 10.8277 4.49201 10.289 7.42494C10.0234 8.87061 8.87061 10.0234 7.42494 10.289C4.49201 10.8277 2.55106 13.6421 3.08979 16.5751C3.62852 19.508 6.44296 21.4489 9.37589 20.9102C15.2312 19.8347 19.8347 15.2312 20.9102 9.37589C21.4489 6.44296 19.508 3.62852 16.5751 3.08979Z" stroke="currentColor" stroke-width="2" stroke-linecap="round" stroke-linejoin="round" />
    <path d="M11.1734 5.64062C12.2727 6.35349 13 7.59141 13 8.99919C13 11.2083 11.2091 12.9992 8.99998 12.9992C7.5922 12.9992 6.35428 12.2719 5.64142 11.1726" stroke="currentColor" stroke-width="2" stroke-linecap="round" stroke-linejoin="round" />
</svg>