<svg xmlns="http://www.w3.org/2000/svg" width="24" height="24" viewBox="0 0 24 24" fill="none">
    <path d="M16 18C16 20.2091 14.2091 22 12 22C9.79086 22 8 20.2091 8 18" stroke="currentColor" stroke-width="2" stroke-linecap="round" stroke-linejoin="round" />
    <path d="M8 3.12589C8.88491 2.48978 9.95074 2.08864 11.1071 2.01285C11.3031 2 11.5353 2 11.9995 2C12.4638 2 12.696 2 12.892 2.01285C15.8965 2.20977 18.2898 4.60304 18.4867 7.60758C18.4995 7.80358 18.4995 8.03572 18.4995 8.5V9.8056C18.4995 10.5353 18.4995 10.9002 18.5356 11.254C18.6477 12.354 19.0187 13.4119 19.6184 14.3409C19.8113 14.6397 20.0392 14.9246 20.4951 15.4944L20.6648 15.7066C20.7508 15.814 20.8286 15.9113 20.8986 16" stroke="currentColor" stroke-width="2" stroke-linecap="round" />
    <path opacity="0.4" d="M2.6028 16.789C2.50583 17.2359 2.72584 17.6913 3.13719 17.8951C3.34887 18 3.71464 18 4.44618 18H18.0801L5.85862 6C5.67833 6.50772 5.56455 7.04701 5.52761 7.60758C5.5147 7.80358 5.5147 8.03572 5.5147 8.5V9.8056C5.5147 10.5353 5.5147 10.9002 5.47847 11.254C5.36582 12.354 4.99282 13.4119 4.39002 14.3409C4.19615 14.6397 3.96703 14.9246 3.50886 15.4944L3.50881 15.4944L3.33818 15.7066C2.8812 16.2749 2.6527 16.559 2.6028 16.789Z" fill="currentColor" />
    <path d="M17.5 18H4.44618C3.71464 18 3.34887 18 3.13719 17.8951C2.72584 17.6913 2.50583 17.2359 2.6028 16.789C2.6527 16.559 2.8812 16.2749 3.33818 15.7066L3.50881 15.4944C3.96702 14.9246 4.19614 14.6397 4.39002 14.3409C4.99282 13.4119 5.36582 12.354 5.47847 11.254C5.5147 10.9002 5.5147 10.5353 5.5147 9.8056V8.5C5.5147 8.03572 5.5147 7.80358 5.52761 7.60758C5.56455 7.04701 5.67833 6.50772 5.85862 6" stroke="currentColor" stroke-width="2" stroke-linecap="round" />
    <path d="M2 2L22 22" stroke="currentColor" stroke-width="2" stroke-linecap="round" stroke-linejoin="round" />
</svg>