<svg xmlns="http://www.w3.org/2000/svg" width="24" height="24" viewBox="0 0 24 24" fill="none">
    <path opacity="0.4" fill-rule="evenodd" clip-rule="evenodd" d="M16 2C17.8856 2 18.8283 2.00015 19.4141 2.58594C19.9998 3.17172 20 4.11438 20 6V18H6C4.89543 18 4 18.8954 4 20V8C4 5.17157 4.00023 3.75759 4.87891 2.87891C5.75759 2.00023 7.17157 2 10 2H16ZM12 6C10.8954 6 10 6.89543 10 8C10 9.10457 10.8954 10 12 10C9.79086 10 8 11.7909 8 14H16C16 11.7909 14.2091 10 12 10C13.1046 10 14 9.10457 14 8C14 6.89543 13.1046 6 12 6Z" fill="currentColor" />
    <path d="M20 22H6C4.89543 22 4 21.1046 4 20M4 20C4 18.8954 4.89543 18 6 18H20V6C20 4.11438 20 3.17157 19.4142 2.58579C18.8284 2 17.8856 2 16 2H10C7.17157 2 5.75736 2 4.87868 2.87868C4 3.75736 4 5.17157 4 8V20Z" stroke="currentColor" stroke-width="2" stroke-linecap="round" stroke-linejoin="round" />
    <path d="M19.5 18C19.5 18 18.5 18.7628 18.5 20C18.5 21.2372 19.5 22 19.5 22" stroke="currentColor" stroke-width="2" stroke-linecap="round" stroke-linejoin="round" />
    <circle cx="12" cy="8" r="2" stroke="currentColor" stroke-width="2" stroke-linecap="round" stroke-linejoin="round" />
    <path d="M16 14C16 11.7909 14.2091 10 12 10C9.79086 10 8 11.7909 8 14" stroke="currentColor" stroke-width="2" stroke-linecap="round" stroke-linejoin="round" />
</svg>