<svg xmlns="http://www.w3.org/2000/svg" width="24" height="24" viewBox="0 0 24 24" fill="none">
    <path opacity="0.4" fill-rule="evenodd" clip-rule="evenodd" d="M15 2C16.8856 2 17.8283 2.00015 18.4141 2.58594C18.9998 3.17172 19 4.11438 19 6V18H5C3.89543 18 3 18.8954 3 20V8C3 5.17157 3.00023 3.75759 3.87891 2.87891C4.75759 2.00023 6.17157 2 9 2H15ZM16 12C14.3431 12 13 13.3431 13 15C13 16.6569 14.3431 18 16 18C17.6569 18 19 16.6569 19 15C19 13.3431 17.6569 12 16 12Z" fill="currentColor" />
    <path d="M18.5 17.5L21 20M19 15C19 16.6569 17.6569 18 16 18C14.3431 18 13 16.6569 13 15C13 13.3431 14.3431 12 16 12C17.6569 12 19 13.3431 19 15Z" stroke="currentColor" stroke-width="2" stroke-linecap="round" stroke-linejoin="round" />
    <path d="M17 22H5C3.89543 22 3 21.1046 3 20M10 18H5C3.89543 18 3 18.8954 3 20M3 20V8C3 5.17157 3 3.75736 3.87868 2.87868C4.75736 2 6.17157 2 9 2H15C16.8856 2 17.8284 2 18.4142 2.58579C19 3.17157 19 4.11438 19 6V9" stroke="currentColor" stroke-width="2" stroke-linecap="round" stroke-linejoin="round" />
</svg>