<svg xmlns="http://www.w3.org/2000/svg" width="24" height="24" viewBox="0 0 24 24" fill="none">
    <path opacity="0.4" fill-rule="evenodd" clip-rule="evenodd" d="M16 9C18.8284 9 20.2424 9.00023 21.1211 9.87891C21.9998 10.7576 22 12.1716 22 15C22 17.8284 21.9998 19.2424 21.1211 20.1211C20.2424 20.9998 18.8284 21 16 21H8C5.17157 21 3.75759 20.9998 2.87891 20.1211C2.00023 19.2424 2 17.8284 2 15C2 12.1716 2.00023 10.7576 2.87891 9.87891C3.75759 9.00023 5.17157 9 8 9H16ZM8 13C6.89543 13 6 13.8954 6 15C6 16.1046 6.89543 17 8 17C9.10457 17 10 16.1046 10 15C10 13.8954 9.10457 13 8 13ZM16 13C14.8954 13 14 13.8954 14 15C14 16.1046 14.8954 17 16 17C17.1046 17 18 16.1046 18 15C18 13.8954 17.1046 13 16 13Z" fill="currentColor" />
    <circle cx="16" cy="15" r="2" stroke="currentColor" stroke-width="2" stroke-linecap="round" stroke-linejoin="round" />
    <circle cx="8" cy="15" r="2" stroke="currentColor" stroke-width="2" stroke-linecap="round" stroke-linejoin="round" />
    <path d="M8 21H16C18.8284 21 20.2426 21 21.1213 20.1213C22 19.2426 22 17.8284 22 15C22 12.1716 22 10.7574 21.1213 9.87868C20.2426 9 18.8284 9 16 9H8C5.17157 9 3.75736 9 2.87868 9.87868C2 10.7574 2 12.1716 2 15C2 17.8284 2 19.2426 2.87868 20.1213C3.75736 21 5.17157 21 8 21Z" stroke="currentColor" stroke-width="2" stroke-linecap="round" stroke-linejoin="round" />
    <path d="M14 3H10C7.17157 3 5.75736 3 4.87868 3.87868C4 4.75736 4 6.17157 4 9H20C20 6.17157 20 4.75736 19.1213 3.87868C18.2426 3 16.8284 3 14 3Z" stroke="currentColor" stroke-width="2" stroke-linecap="round" stroke-linejoin="round" />
</svg>