<svg xmlns="http://www.w3.org/2000/svg" width="24" height="24" viewBox="0 0 24 24" fill="none">
    <path opacity="0.4" fill-rule="evenodd" clip-rule="evenodd" d="M20.6166 7.20784C21 7.89257 21 8.71599 21 10.3628V13.638C21 15.2848 21 16.1082 20.6166 16.793C20.2332 17.4777 19.5317 17.9071 18.1287 18.7658L15.1287 20.602C13.6056 21.5343 12.8441 22.0004 12 22.0004C11.1559 22.0004 10.3944 21.5343 8.8713 20.602L5.8713 18.7658C4.46832 17.9071 3.76683 17.4777 3.38341 16.793C3 16.1082 3 15.2848 3 13.638V10.3628C3 8.71599 3 7.89257 3.38341 7.20784C3.41644 7.14886 3.45183 7.09177 3.48983 7.03613L12 12.0004L20.5102 7.03613C20.5482 7.09177 20.5836 7.14886 20.6166 7.20784Z" fill="currentColor" />
    <path d="M21 13.6376V10.3624C21 8.71559 21 7.89217 20.6166 7.20744C20.2332 6.52271 19.5317 6.09334 18.1287 5.2346L15.1287 3.39836C13.6056 2.46612 12.8441 2 12 2C11.1559 2 10.3944 2.46612 8.8713 3.39836L5.8713 5.2346C4.46832 6.09334 3.76683 6.52271 3.38341 7.20744C3 7.89217 3 8.71559 3 10.3624V13.6376C3 15.2844 3 16.1078 3.38341 16.7926C3.76683 17.4773 4.46832 17.9067 5.8713 18.7654L8.8713 20.6016C10.3944 21.5339 11.1559 22 12 22C12.8441 22 13.6056 21.5339 15.1287 20.6016L18.1287 18.7654C19.5317 17.9067 20.2332 17.4773 20.6166 16.7926C21 16.1078 21 15.2844 21 13.6376Z" stroke="currentColor" stroke-width="2" stroke-linecap="round" stroke-linejoin="round" />
    <path d="M3.5 7L12 12L20.5 7" stroke="currentColor" stroke-width="2" stroke-linecap="round" stroke-linejoin="round" />
    <path d="M12 12V22" stroke="currentColor" stroke-width="2" stroke-linecap="round" stroke-linejoin="round" />
</svg>