<svg xmlns="http://www.w3.org/2000/svg" width="24" height="24" viewBox="0 0 24 24" fill="none">
    <path opacity="0.4" d="M12.5 2.5C16.2712 2.5 18.1566 2.5003 19.3281 3.67188C20.4997 4.84345 20.5 6.72876 20.5 10.5V12.5C20.5 12.7344 20.4983 12.9615 20.498 13.1816C20.4926 13.1789 20.487 13.1756 20.4814 13.1729C19.6405 12.7492 18.6114 12.5 17.5 12.5C16.3886 12.5 15.3595 12.7492 14.5186 13.1729C14.1061 13.3806 13.9 13.4849 13.7002 13.8115C13.5004 14.1381 13.5 14.4544 13.5 15.0869V16.6562C13.5 18.4445 14.488 19.6766 15.4814 20.4648C14.6436 20.499 13.6612 20.5 12.5 20.5H10.5C6.72876 20.5 4.84345 20.4997 3.67188 19.3281C2.5003 18.1566 2.5 16.2712 2.5 12.5V10.5C2.5 6.72876 2.5003 4.84345 3.67188 3.67188C4.84345 2.5003 6.72876 2.5 10.5 2.5H12.5Z" fill="currentColor" />
    <path d="M10.5 20.5C6.72876 20.5 4.84315 20.5 3.67157 19.3284C2.5 18.1569 2.5 16.2712 2.5 12.5V10.5C2.5 6.72876 2.5 4.84315 3.67157 3.67157C4.84315 2.5 6.72876 2.5 10.5 2.5H12.5C16.2712 2.5 18.1569 2.5 19.3284 3.67157C20.3886 4.73177 20.4894 5.5578 20.499 8.5" stroke="currentColor" stroke-width="2" stroke-linecap="round" stroke-linejoin="round" />
    <path d="M11.5 8.5H2.5H7M11.5 8.5H20.5H16M11.5 8.5V10.5M9.5 14.5H2.5H7V20M7 3V8.5M7 8.5H16M16 3V8.5" stroke="currentColor" stroke-width="2" stroke-linecap="round" stroke-linejoin="round" />
    <path d="M20.4817 13.1729C19.6407 12.7492 18.6115 12.5 17.5 12.5C16.3885 12.5 15.3593 12.7492 14.5183 13.1729C14.1059 13.3807 13.8996 13.4846 13.6998 13.8112C13.5 14.1378 13.5 14.4541 13.5 15.0867V16.6567C13.5 19.2142 15.5188 20.6362 16.688 21.2452C17.0141 21.4151 17.1771 21.5 17.5 21.5C17.8229 21.5 17.9859 21.4151 18.312 21.2452C19.4812 20.6362 21.5 19.2142 21.5 16.6567L21.5 15.0867C21.5 14.4541 21.5 14.1378 21.3002 13.8112C21.1004 13.4846 20.8941 13.3807 20.4817 13.1729Z" stroke="currentColor" stroke-width="2" stroke-linecap="round" stroke-linejoin="round" />
</svg>