<svg xmlns="http://www.w3.org/2000/svg" width="24" height="24" viewBox="0 0 24 24" fill="none">
    <path opacity="0.4" fill-rule="evenodd" clip-rule="evenodd" d="M10.9991 4H12.9991C16.7704 4 18.656 4 19.8275 5.17157C20.7706 6.11466 20.9546 7.52043 20.9904 10H3.00781C3.04368 7.52043 3.22761 6.11466 4.17069 5.17157C5.34227 4 7.22789 4 10.9991 4Z" fill="currentColor" />
    <path d="M17.4616 20C18.5662 20 19.4616 19.1046 19.4616 18C19.4616 16.8954 18.5662 16 17.4616 16M17.4616 20C16.357 20 15.4616 19.1046 15.4616 18C15.4616 16.8954 16.357 16 17.4616 16M17.4616 20V22M17.4616 16V14M19.1962 16.9956L20.9282 15.9956M15.7321 18.9956L14 19.9956M19.2012 18.9956L20.9332 19.9956M15.7371 16.9956L14.005 15.9956" stroke="currentColor" stroke-width="2" stroke-linecap="round" stroke-linejoin="round" />
    <path d="M16 2V6M8 2V6" stroke="currentColor" stroke-width="2" stroke-linecap="round" stroke-linejoin="round" />
    <path d="M3 10H21" stroke="currentColor" stroke-width="2" stroke-linecap="round" stroke-linejoin="round" />
    <path d="M21 12C21 8.22876 21 6.34315 19.8284 5.17157C18.6569 4 16.7712 4 13 4H11C7.22876 4 5.34315 4 4.17157 5.17157C3 6.34315 3 8.22876 3 12V14C3 17.7712 3 19.6569 4.17157 20.8284C5.34315 22 7.22876 22 11 22" stroke="currentColor" stroke-width="2" stroke-linecap="round" stroke-linejoin="round" />
</svg>