<svg xmlns="http://www.w3.org/2000/svg" width="24" height="24" viewBox="0 0 24 24" fill="none">
    <g opacity="0.4">
        <path d="M7 19C7 19 10.6824 14 12 14C13.3176 14 17 19 17 19L7 19Z" fill="currentColor" />
        <path d="M7 5.00004C7 5.00004 10.6824 9.99999 12 10C13.3176 10 17 5 17 5L7 5.00004Z" fill="currentColor" />
    </g>
    <path d="M7 19C7 19 10.6824 14 12 14C13.3176 14 17 19 17 19" stroke="currentColor" stroke-width="2" stroke-linecap="round" stroke-linejoin="round" />
    <path d="M7 5.00004C7 5.00004 10.6824 9.99999 12 10C13.3176 10 17 5 17 5" stroke="currentColor" stroke-width="2" stroke-linecap="round" stroke-linejoin="round" />
</svg>