<svg xmlns="http://www.w3.org/2000/svg" width="24" height="24" viewBox="0 0 24 24" fill="none">
    <path d="M7.88281 2.88376C9.13817 2.31604 10.5317 2 11.9991 2C17.5219 2 21.9991 6.47715 21.9991 12C21.9991 13.4673 21.683 14.8609 21.1153 16.1162" stroke="currentColor" stroke-width="2" stroke-linecap="round" stroke-linejoin="round" />
    <path d="M2 2L22 22" stroke="currentColor" stroke-width="2" stroke-linecap="round" stroke-linejoin="round" />
    <path d="M4.92893 4.92969C3.11929 6.73933 2 9.23933 2 12.0008C2 17.5236 6.47715 22.0008 12 22.0008C14.7614 22.0008 17.2614 20.8815 19.0711 19.0718" stroke="currentColor" stroke-width="2" stroke-linecap="round" stroke-linejoin="round" />
    <path opacity="0.4" d="M2 12.0008C2 17.5236 6.47715 22.0008 12 22.0008C14.7614 22.0008 17.2614 20.8815 19.0711 19.0718L4.92893 4.92969C3.11929 6.73933 2 9.23933 2 12.0008Z" fill="currentColor" />
</svg>