<svg xmlns="http://www.w3.org/2000/svg" width="24" height="24" viewBox="0 0 24 24" fill="none">
    <path opacity="0.4" d="M2 11C2 15.9706 6.02944 20 11 20C15.9706 20 20 15.9706 20 11C20 6.02944 15.9706 2 11 2C6.02944 2 2 6.02944 2 11Z" fill="currentColor" />
    <path d="M19.777 13C19.9229 12.3568 20 11.6874 20 11C20 6.02944 15.9706 2 11 2C6.02944 2 2 6.02944 2 11C2 15.9706 6.02944 20 11 20C11.6874 20 12.3568 19.9229 13 19.777" stroke="currentColor" stroke-width="2" stroke-linecap="round" stroke-linejoin="round" />
    <path d="M12.5303 11.4697C12.2374 11.1768 11.7626 11.1768 11.4697 11.4697C11.1768 11.7626 11.1768 12.2374 11.4697 12.5303L12 12L12.5303 11.4697ZM20.4697 21.5303C20.7626 21.8232 21.2374 21.8232 21.5303 21.5303C21.8232 21.2374 21.8232 20.7626 21.5303 20.4697L21 21L20.4697 21.5303ZM21.6681 21.6681L21.1377 21.1378V21.1378L21.6681 21.6681ZM22.4096 15.8875C22.3475 15.478 21.9651 15.1963 21.5556 15.2585C21.1461 15.3206 20.8645 15.703 20.9266 16.1125L21.6681 16L22.4096 15.8875ZM16.1125 20.9265C15.703 20.8644 15.3206 21.146 15.2585 21.5555C15.1963 21.9651 15.4779 22.3474 15.8875 22.4096L16 21.6681L16.1125 20.9265ZM12 12L11.4697 12.5303L20.4697 21.5303L21 21L21.5303 20.4697L12.5303 11.4697L12 12ZM21.6681 21.6681L22.1984 22.1984C22.4394 21.9574 22.55 21.6344 22.6105 21.3905C22.6767 21.1232 22.7128 20.82 22.7317 20.5136C22.7697 19.8986 22.7438 19.1754 22.6963 18.5012C22.6484 17.8221 22.5768 17.1698 22.5175 16.6888C22.4878 16.4478 22.461 16.2487 22.4416 16.1094C22.4318 16.0397 22.424 15.9848 22.4185 15.9471C22.4157 15.9283 22.4135 15.9137 22.4121 15.9037C22.4113 15.8986 22.4107 15.8948 22.4103 15.8921C22.4101 15.8907 22.41 15.8896 22.4098 15.8889C22.4098 15.8885 22.4097 15.8882 22.4097 15.888C22.4097 15.8878 22.4097 15.8877 22.4097 15.8877C22.4096 15.8876 22.4096 15.8875 21.6681 16C20.9266 16.1125 20.9266 16.1125 20.9266 16.1125C20.9266 16.1125 20.9266 16.1125 20.9266 16.1125C20.9266 16.1126 20.9266 16.1127 20.9267 16.1129C20.9267 16.1133 20.9268 16.1141 20.927 16.1151C20.9273 16.1171 20.9278 16.1203 20.9284 16.1246C20.9297 16.1333 20.9316 16.1464 20.9342 16.1638C20.9393 16.1985 20.9467 16.2501 20.9559 16.3165C20.9744 16.4492 21.0001 16.6404 21.0288 16.8724C21.0861 17.3375 21.1546 17.9622 21.2 18.6067C21.2458 19.2562 21.2666 19.9033 21.2346 20.4211C21.2185 20.6811 21.1904 20.8849 21.1545 21.0297C21.1128 21.1979 21.0834 21.1921 21.1377 21.1378L21.6681 21.6681ZM16 21.6681C15.8875 22.4096 15.8875 22.4096 15.8876 22.4096C15.8877 22.4096 15.8878 22.4096 15.8879 22.4096C15.8882 22.4097 15.8885 22.4097 15.8889 22.4098C15.8896 22.4099 15.8907 22.4101 15.892 22.4103C15.8948 22.4107 15.8986 22.4112 15.9036 22.412C15.9137 22.4135 15.9283 22.4156 15.9471 22.4184C15.9848 22.4239 16.0397 22.4318 16.1094 22.4415C16.2487 22.4609 16.4478 22.4877 16.6888 22.5174C17.1697 22.5768 17.8221 22.6484 18.5012 22.6963C19.1754 22.7438 19.8986 22.7697 20.5136 22.7317C20.82 22.7128 21.1232 22.6767 21.3905 22.6105C21.6344 22.55 21.9574 22.4395 22.1984 22.1984L21.6681 21.6681L21.1377 21.1378C21.1921 21.0834 21.1979 21.1129 21.0297 21.1545C20.8849 21.1904 20.6811 21.2185 20.4211 21.2346C19.9033 21.2666 19.2562 21.2458 18.6067 21.2C17.9622 21.1545 17.3376 21.0861 16.8724 21.0287C16.6404 21.0001 16.4492 20.9744 16.3165 20.9559C16.2502 20.9466 16.1985 20.9392 16.1638 20.9341C16.1464 20.9316 16.1333 20.9296 16.1246 20.9284C16.1203 20.9277 16.1171 20.9272 16.1151 20.9269C16.1141 20.9268 16.1134 20.9267 16.1129 20.9266C16.1127 20.9266 16.1126 20.9266 16.1125 20.9265C16.1125 20.9265 16.1125 20.9265 16.1125 20.9265C16.1125 20.9265 16.1125 20.9265 16 21.6681Z" fill="currentColor" />
</svg>