<svg xmlns="http://www.w3.org/2000/svg" width="24" height="24" viewBox="0 0 24 24" fill="none">
    <path opacity="0.4" d="M9.50195 4.99933H14.502C15.3304 4.99933 16.002 4.32776 16.002 3.49933C17.5554 3.54614 18.482 3.7194 19.1233 4.36069C20.002 5.23937 20.002 6.65356 20.002 9.48196L20.002 15.9988C20.002 18.8272 20.002 20.2414 19.1233 21.1201C18.2446 21.9988 16.8304 21.9988 14.002 21.9988L10.002 21.9988C7.17353 21.9988 5.75932 21.9988 4.88064 21.1201C4.00196 20.2414 4.00196 18.8272 4.00195 15.9988L4.00197 9.48202C4.00196 6.65358 4.00196 5.23937 4.88064 4.36068C5.52192 3.7194 6.44857 3.54614 8.00195 3.49933C8.00195 4.32776 8.67353 4.99933 9.50195 4.99933Z" fill="currentColor" />
    <path d="M14.498 2.00024H9.49805C8.66962 2.00024 7.99805 2.67182 7.99805 3.50024C7.99805 4.32867 8.66962 5.00024 9.49805 5.00024H14.498C15.3265 5.00024 15.998 4.32867 15.998 3.50024C15.998 2.67182 15.3265 2.00024 14.498 2.00024Z" stroke="currentColor" stroke-width="2" stroke-linecap="round" stroke-linejoin="round" />
    <path d="M15.9981 3.50024C17.5515 3.54706 18.4781 3.72032 19.1194 4.36161C19.9981 5.24028 19.9981 6.65448 19.9981 9.48287L19.998 15.9997C19.9981 18.8281 19.9981 20.2423 19.1194 21.121C18.2407 21.9997 16.8265 21.9997 13.998 21.9997L9.99805 21.9997C7.16963 21.9997 5.75541 21.9997 4.87674 21.121C3.99806 20.2424 3.99805 18.8282 3.99805 15.9997L3.99806 9.48293C3.99805 6.6545 3.99805 5.24028 4.87673 4.3616C5.51802 3.72031 6.44456 3.54705 7.99795 3.50024" stroke="currentColor" stroke-width="2" stroke-linecap="round" stroke-linejoin="round" />
    <path d="M9.00195 13.0002H15.002" stroke="currentColor" stroke-width="2" stroke-linecap="round" stroke-linejoin="round" />
</svg>