<svg xmlns="http://www.w3.org/2000/svg" width="24" height="24" viewBox="0 0 24 24" fill="none">
    <path d="M13.002 22V20.6611C13.002 20.0548 13.2428 19.4735 13.6714 19.0448L18.3122 14.4041C18.5709 14.1453 18.9218 14 19.2877 14C19.6535 14 20.0044 14.1453 20.2632 14.4041L20.5979 14.7388C20.8566 14.9975 21.002 15.3484 21.002 15.7143C21.002 16.0802 20.8566 16.4311 20.5979 16.6898L15.9571 21.3305C15.5285 21.7592 14.9471 22 14.3409 22H13.002Z" stroke="currentColor" stroke-width="2" stroke-linecap="round" stroke-linejoin="round" />
    <path d="M8.00195 22H10.002" stroke="currentColor" stroke-width="2" stroke-linecap="round" stroke-linejoin="round" />
    <path d="M13.502 2H8.50195C7.67353 2 7.00195 2.67157 7.00195 3.5C7.00195 4.32843 7.67353 5 8.50195 5H13.502C14.3304 5 15.002 4.32843 15.002 3.5C15.002 2.67157 14.3304 2 13.502 2Z" stroke="currentColor" stroke-width="2" stroke-linecap="round" stroke-linejoin="round" />
    <path d="M7.00185 3.5C5.44847 3.54681 4.52192 3.72007 3.88064 4.36136C3.00196 5.24004 3.00196 6.65425 3.00197 9.48269L3.00195 15.9995C3.00196 18.8279 3.00196 20.2421 3.88064 21.1208C4.18044 21.4206 4.54258 21.6181 5.00195 21.7482" stroke="currentColor" stroke-width="2" stroke-linecap="round" stroke-linejoin="round" />
    <path d="M19.0018 9C18.9989 6.4904 18.9505 5.18857 18.1233 4.36137C17.482 3.72007 16.5554 3.54681 15.002 3.5" stroke="currentColor" stroke-width="2" stroke-linecap="round" stroke-linejoin="round" />
    <path opacity="0.4" d="M8.49805 5H13.498C14.3265 5 14.998 4.32843 14.998 3.5C16.5515 3.54681 17.4781 3.72007 18.1194 4.36137C18.9981 5.24004 18.9981 6.65424 18.9981 9.48263L18.998 14.0307C18.7402 14.0861 18.5015 14.2147 18.3122 14.4041L13.6714 19.0448C13.2428 19.4735 13.002 20.0548 13.002 20.6611L12.998 21.9995L8.99805 21.9995C6.16963 21.9995 4.75541 21.9995 3.87674 21.1208C2.99806 20.2421 2.99805 18.8279 2.99805 15.9995L2.99806 9.48269C2.99805 6.65425 2.99805 5.24004 3.87673 4.36136C4.51802 3.72007 5.44466 3.54681 6.99805 3.5C6.99805 4.32843 7.66962 5 8.49805 5Z" fill="currentColor" />
</svg>