<svg xmlns="http://www.w3.org/2000/svg" width="24" height="24" viewBox="0 0 24 24" fill="none">
    <path opacity="0.4" d="M17.5 8.775C17.5 5.58556 15.0376 3 12 3C9.12324 3 6.76233 5.31905 6.52042 8.27384C3.98398 8.52728 2 10.7704 2 13.5C2 16.3995 4.23858 18.75 7 18.75H17.5C19.9853 18.75 22 16.6345 22 14.025C22 11.4155 19.9853 9.3 17.5 9.3L17.4776 9.30006C17.4924 9.12712 17.5 8.95199 17.5 8.775Z" fill="currentColor" />
    <path d="M17.4776 9.00005C17.485 9.00002 17.4925 9 17.5 9C19.9853 9 22 11.0147 22 13.5C22 15.0602 21.206 16.435 20 17.2422M17.4776 9.00005C17.4924 8.83536 17.5 8.66856 17.5 8.5C17.5 5.46243 15.0376 3 12 3C9.12324 3 6.76233 5.20862 6.52042 8.0227M17.4776 9.00005C17.4466 9.34345 17.3841 9.67773 17.293 10M6.52042 8.0227C3.98398 8.26407 2 10.4003 2 13C2 14.6358 2.78555 16.0882 4 17.0004M6.52042 8.0227C6.67826 8.00768 6.83823 8 7 8C7.7111 8 8.38754 8.14845 9 8.41604" stroke="currentColor" stroke-width="2" stroke-linecap="round" stroke-linejoin="round" />
    <path d="M8 18V19" stroke="currentColor" stroke-width="2" stroke-linecap="round" stroke-linejoin="round" />
    <path d="M8 13V14" stroke="currentColor" stroke-width="2" stroke-linecap="round" stroke-linejoin="round" />
    <path d="M16 18V19" stroke="currentColor" stroke-width="2" stroke-linecap="round" stroke-linejoin="round" />
    <path d="M16 13V14" stroke="currentColor" stroke-width="2" stroke-linecap="round" stroke-linejoin="round" />
    <path d="M12 20V21" stroke="currentColor" stroke-width="2" stroke-linecap="round" stroke-linejoin="round" />
    <path d="M12 15V16" stroke="currentColor" stroke-width="2" stroke-linecap="round" stroke-linejoin="round" />
</svg>