<svg xmlns="http://www.w3.org/2000/svg" width="24" height="24" viewBox="0 0 24 24" fill="none">
    <path opacity="0.4" fill-rule="evenodd" clip-rule="evenodd" d="M12 2.5C16.4783 2.5 18.7172 2.50036 20.1084 3.8916C21.4996 5.28284 21.5 7.52166 21.5 12C21.5 16.4783 21.4996 18.7172 20.1084 20.1084C18.7172 21.4996 16.4783 21.5 12 21.5C7.52166 21.5 5.28284 21.4996 3.8916 20.1084C2.50036 18.7172 2.5 16.4783 2.5 12C2.5 7.52166 2.50036 5.28284 3.8916 3.8916C5.28284 2.50036 7.52166 2.5 12 2.5ZM17.5 15C16.1193 15 15 16.1193 15 17.5C15 18.8807 16.1193 20 17.5 20C18.8807 20 20 18.8807 20 17.5C20 16.1193 18.8807 15 17.5 15Z" fill="currentColor" />
    <path d="M20 17.5C20 18.8807 18.8807 20 17.5 20M20 17.5C20 16.1193 18.8807 15 17.5 15M20 17.5H21.5M17.5 20C16.1193 20 15 18.8807 15 17.5M17.5 20V21.5M15 17.5C15 16.1193 16.1193 15 17.5 15M15 17.5H13.5M17.5 15V13.5M19.2678 15.7322L20.3284 14.6716M15.7322 19.2678L14.6716 20.3284M19.2678 19.2678L20.3284 20.3284M15.7322 15.7322L14.6716 14.6716" stroke="currentColor" stroke-width="2" stroke-linecap="round" stroke-linejoin="round" />
    <path d="M20.4993 10.5C20.4912 6.91543 20.3921 5.02814 19.182 3.81802C17.864 2.5 15.7426 2.5 11.5 2.5C7.25736 2.5 5.13604 2.5 3.81802 3.81802C2.5 5.13604 2.5 7.25736 2.5 11.5C2.5 15.7426 2.5 17.864 3.81802 19.182C5.02814 20.3921 6.91543 20.4912 10.5 20.4993" stroke="currentColor" stroke-width="2" stroke-linecap="round" stroke-linejoin="round" />
    <path d="M8.5 3V20" stroke="currentColor" stroke-width="2" stroke-linecap="round" stroke-linejoin="round" />
    <path d="M14.5 3V10.5" stroke="currentColor" stroke-width="2" stroke-linecap="round" stroke-linejoin="round" />
</svg>