<svg xmlns="http://www.w3.org/2000/svg" width="24" height="24" viewBox="0 0 24 24" fill="none">
    <path opacity="0.4" d="M14.9992 4H8.99921C5.69938 4 4.04946 4 3.02433 5.02513C2.37281 5.67665 2.13536 6.58055 2.04883 8H21.9496C21.8631 6.58055 21.6256 5.67665 20.9741 5.02513C19.949 4 18.299 4 14.9992 4Z" fill="currentColor" />
    <path d="M15 4H9C5.70017 4 4.05025 4 3.02513 5.02513C2 6.05025 2 7.70017 2 11V13C2 16.2998 2 17.9497 3.02513 18.9749C4.05025 20 5.70017 20 9 20H15C18.2998 20 19.9497 20 20.9749 18.9749C22 17.9497 22 16.2998 22 13V11C22 7.70017 22 6.05025 20.9749 5.02513C19.9497 4 18.2998 4 15 4Z" stroke="currentColor" stroke-width="2" stroke-linecap="round" stroke-linejoin="round" />
    <path d="M2.5 8H21.5" stroke="currentColor" stroke-width="2" stroke-linecap="round" stroke-linejoin="round" />
    <path d="M12 16H16" stroke="currentColor" stroke-width="2" stroke-linecap="round" stroke-linejoin="round" />
    <path d="M7 12L8.22654 13.0572C8.74218 13.5016 9 13.7239 9 14C9 14.2761 8.74218 14.4984 8.22654 14.9428L7 16" stroke="currentColor" stroke-width="2" stroke-linecap="round" stroke-linejoin="round" />
</svg>