<svg xmlns="http://www.w3.org/2000/svg" width="24" height="24" viewBox="0 0 24 24" fill="none">
    <path opacity="0.4" d="M10.0001 13C10.0001 14.6569 8.65698 16 7.00012 16C9.76155 16 12.0001 18.2386 12.0001 21H2.00012C2.00012 18.2386 4.2387 16 7.00012 16C5.34327 16 4.00012 14.6569 4.00012 13C4.00012 11.3431 5.34327 10 7.00012 10C8.65698 10 10.0001 11.3431 10.0001 13Z" fill="currentColor" />
    <path d="M17.0005 7L17.005 5.50488M17.0505 9.90037H17.0005M17.1005 9.90037C17.1005 9.9556 17.0557 10.0004 17.0005 10.0004C16.9453 10.0004 16.9005 9.9556 16.9005 9.90037C16.9005 9.84514 16.9453 9.80037 17.0005 9.80037C17.0557 9.80037 17.1005 9.84514 17.1005 9.90037Z" stroke="currentColor" stroke-width="2" stroke-linecap="round" stroke-linejoin="round" />
    <path d="M17.0001 12.5667C19.7612 12.5667 22.0001 10.4249 22.0001 7.78336C22.0001 5.14178 19.7612 3 17.0001 3C14.239 3 12.0001 5.14178 12.0001 7.78336C12.0001 9.05254 12.5168 10.2058 13.3595 11.0616C13.5451 11.25 13.669 11.5074 13.619 11.7724C13.5365 12.2056 13.3495 12.6097 13.0757 12.9465C13.7961 13.0805 14.5452 12.9598 15.1876 12.6182L15.1882 12.6179C15.4149 12.4973 15.5283 12.437 15.6084 12.4248C15.6885 12.4126 15.8033 12.4341 16.0328 12.4772C16.3517 12.5371 16.6754 12.5671 17.0001 12.5667Z" stroke="currentColor" stroke-width="2" stroke-linecap="round" stroke-linejoin="round" />
    <path d="M10.0001 13C10.0001 14.6569 8.65698 16 7.00012 16C5.34327 16 4.00012 14.6569 4.00012 13C4.00012 11.3431 5.34327 10 7.00012 10C8.65698 10 10.0001 11.3431 10.0001 13Z" stroke="currentColor" stroke-width="2" stroke-linecap="round" stroke-linejoin="round" />
    <path d="M12.0001 21C12.0001 18.2386 9.76155 16 7.00012 16C4.2387 16 2.00012 18.2386 2.00012 21" stroke="currentColor" stroke-width="2" stroke-linecap="round" stroke-linejoin="round" />
</svg>