<svg xmlns="http://www.w3.org/2000/svg" width="24" height="24" viewBox="0 0 24 24" fill="none">
    <circle cx="12" cy="12.002" r="10" stroke="currentColor" stroke-width="2" stroke-linecap="round" stroke-linejoin="round" />
    <path opacity="0.4" fill-rule="evenodd" clip-rule="evenodd" d="M12 22.002C17.5228 22.002 22 17.5248 22 12.002C22 6.47911 17.5228 2.00195 12 2.00195C6.47715 2.00195 2 6.47911 2 12.002C2 17.5248 6.47715 22.002 12 22.002ZM19 12.002C19 14.8298 17.3232 17.2659 14.9097 18.3704C13.8893 18.8374 13.3791 19.0709 12.6895 18.6281C12 18.1854 12 17.4576 12 16.002V8.00195C12 6.54633 12 5.81852 12.6895 5.37577C13.3791 4.93301 13.8893 5.1665 14.9097 5.63346C17.3232 6.73796 19 9.17414 19 12.002Z" fill="currentColor" />
    <path d="M14.9097 18.3715C17.3232 17.267 19 14.8308 19 12.003C19 9.17516 17.3232 6.73899 14.9097 5.63448C13.8893 5.16752 13.3791 4.93404 12.6895 5.37679C12 5.81955 12 6.54736 12 8.00298V16.003C12 17.4586 12 18.1864 12.6895 18.6292C13.3791 19.0719 13.8893 18.8384 14.9097 18.3715Z" stroke="currentColor" stroke-width="2" stroke-linecap="round" stroke-linejoin="round" />
</svg>