<svg xmlns="http://www.w3.org/2000/svg" width="24" height="24" viewBox="0 0 24 24" fill="none">
    <path opacity="0.4" d="M15.0044 15.7525H5.00152C3.3442 15.7525 2.00067 17.0957 2.00067 18.7525C2.00067 20.4094 3.3442 21.7525 5.00152 21.7525H15.0044C16.6617 21.7525 18.0052 20.4094 18.0052 18.7525C18.0052 17.0957 16.6617 15.7525 15.0044 15.7525Z" fill="currentColor" />
    <path opacity="0.4" d="M5.00067 7.75645C5.00067 5.87083 5.00067 4.92802 5.58662 4.34224C6.17257 3.75645 7.11565 3.75645 9.0018 3.75645L8.9979 3.75645C9.77286 3.75645 10.5962 3.75645 10.9483 3.89443C11.3003 4.03241 11.5845 4.29567 12.153 4.8222L13.8227 6.36861C14.354 6.86076 14.6197 7.10683 14.7805 7.41817C14.8997 7.7477 15.0035 8.34749 15.0035 9.07164C15.0035 10.6528 15.0035 11.4434 14.5814 11.9853C14.4798 12.1157 14.3625 12.233 14.2321 12.3345C13.69 12.7565 12.8992 12.7565 11.3177 12.7565H9.0018C7.11565 12.7565 6.17257 12.7565 5.58662 12.1707C5.00067 11.5849 5.00067 10.6421 5.00067 8.75645V7.75645Z" fill="currentColor" />
    <path d="M15.0044 15.7525H5.00152C3.3442 15.7525 2.00067 17.0957 2.00067 18.7525C2.00067 20.4094 3.3442 21.7525 5.00152 21.7525H15.0044C16.6617 21.7525 18.0052 20.4094 18.0052 18.7525C18.0052 17.0957 16.6617 15.7525 15.0044 15.7525Z" stroke="currentColor" stroke-width="2" stroke-linecap="round" stroke-linejoin="round" />
    <path d="M5.00067 7.75456C5.00067 5.86894 5.00067 4.92613 5.58662 4.34035C6.17257 3.75456 7.11565 3.75456 9.0018 3.75456L8.9979 3.75456C9.77286 3.75456 10.5962 3.75456 10.9483 3.89254C11.3003 4.03052 11.5845 4.29378 12.153 4.82031L13.8227 6.36672C14.354 6.85887 14.6197 7.10494 14.7805 7.41628C14.8997 7.74581 15.0035 8.3456 15.0035 9.06975C15.0035 10.6509 15.0035 11.4415 14.5814 11.9834C14.4798 12.1138 14.3625 12.2311 14.2321 12.3326C13.69 12.7546 12.8992 12.7546 11.3177 12.7546H9.0018C7.11565 12.7546 6.17257 12.7546 5.58662 12.1688C5.00067 11.583 5.00067 10.6402 5.00067 8.75456V7.75456Z" stroke="currentColor" stroke-width="2" stroke-linecap="round" stroke-linejoin="round" />
    <path d="M18.0007 11.7525C18.0007 12.8571 18.8961 13.7525 20.0007 13.7525C21.1052 13.7525 22.0007 12.8571 22.0007 11.7525C22.0007 10.648 21.1052 9.75255 20.0007 9.75255V3.20161C20.0007 2.40132 19.3519 1.75255 18.5516 1.75255C18.1967 1.75255 17.8542 1.88279 17.5889 2.11857L13.5007 5.75255" stroke="currentColor" stroke-width="2" stroke-linecap="round" stroke-linejoin="round" />
    <path d="M10.1257 18.7525H10.0007M10.2507 18.7525C10.2507 18.8906 10.1387 19.0025 10.0007 19.0025C9.8626 19.0025 9.75067 18.8906 9.75067 18.7525C9.75067 18.6145 9.8626 18.5025 10.0007 18.5025C10.1387 18.5025 10.2507 18.6145 10.2507 18.7525Z" stroke="currentColor" stroke-width="2" stroke-linecap="round" stroke-linejoin="round" />
    <path d="M5.62567 18.7525H5.50067M5.75067 18.7525C5.75067 18.8906 5.63874 19.0025 5.50067 19.0025C5.3626 19.0025 5.25067 18.8906 5.25067 18.7525C5.25067 18.6145 5.3626 18.5025 5.50067 18.5025C5.63874 18.5025 5.75067 18.6145 5.75067 18.7525Z" stroke="currentColor" stroke-width="2" stroke-linecap="round" stroke-linejoin="round" />
    <path d="M14.6257 18.7545H14.5007M14.7507 18.7545C14.7507 18.8925 14.6387 19.0045 14.5007 19.0045C14.3626 19.0045 14.2507 18.8925 14.2507 18.7545C14.2507 18.6164 14.3626 18.5045 14.5007 18.5045C14.6387 18.5045 14.7507 18.6164 14.7507 18.7545Z" stroke="currentColor" stroke-width="2" stroke-linecap="round" stroke-linejoin="round" />
</svg>