<svg xmlns="http://www.w3.org/2000/svg" width="24" height="24" viewBox="0 0 24 24" fill="none">
    <path opacity="0.4" d="M11 8.00195C15.4183 8.00195 19 6.65881 19 5.00195V14.0371C18.4117 13.6967 17.7286 13.502 17 13.502C14.7909 13.502 13 15.2928 13 17.502C13 19.3453 14.2469 20.8974 15.9432 21.3609C14.5825 21.7624 12.8659 22.002 11 22.002C6.58172 22.002 3 20.6588 3 19.002V5.00195C3 6.65881 6.58172 8.00195 11 8.00195Z" fill="currentColor" />
    <ellipse cx="11" cy="5.00195" rx="8" ry="3" stroke="currentColor" stroke-width="2" stroke-linecap="round" stroke-linejoin="round" />
    <path d="M3 12.002C3 13.3998 5.54955 14.5744 9 14.9074" stroke="currentColor" stroke-width="2" stroke-linecap="round" stroke-linejoin="round" />
    <path d="M13.5 16.002C14 15.002 15 13.502 17 13.502C19.2091 13.502 21 15.2928 21 17.502C21 19.7111 19.2091 21.502 17 21.502C15.8053 21.502 14.7329 20.9782 14 20.1478" stroke="currentColor" stroke-width="2" stroke-linecap="round" stroke-linejoin="round" />
    <path d="M11 22.002C6.58172 22.002 3 20.6588 3 19.002V5.00195M19 5.00195V10.002" stroke="currentColor" stroke-width="2" stroke-linecap="round" stroke-linejoin="round" />
    <path d="M16.0904 17.1196C16.5016 17.0697 16.7944 16.6959 16.7445 16.2847C16.6946 15.8735 16.3208 15.5806 15.9096 15.6305L16 16.375L16.0904 17.1196ZM13.1936 16.3083L12.6633 16.8387H12.6633L13.1936 16.3083ZM13.9351 13.1145C13.9973 12.7049 13.7156 12.3226 13.3061 12.2604C12.8966 12.1983 12.5142 12.4799 12.4521 12.8894L13.1936 13.002L13.9351 13.1145ZM16 16.375L15.9096 15.6305C15.4965 15.6806 14.9048 15.7406 14.3868 15.7505C14.1255 15.7556 13.908 15.7472 13.7515 15.7256C13.6733 15.7148 13.6303 15.7033 13.6139 15.6977C13.5884 15.689 13.6492 15.7032 13.724 15.778L13.1936 16.3083L12.6633 16.8387C12.8183 16.9937 13.0007 17.0734 13.1297 17.1174C13.2678 17.1645 13.4125 17.193 13.5465 17.2115C13.8147 17.2485 14.1207 17.2559 14.4156 17.2503C15.0098 17.2389 15.6608 17.1717 16.0904 17.1196L16 16.375ZM13.1936 16.3083L13.724 15.778C13.8172 15.8712 13.8169 15.9431 13.7965 15.8608C13.7819 15.8018 13.7672 15.7037 13.7584 15.5616C13.741 15.2799 13.752 14.9182 13.7784 14.5445C13.8044 14.1758 13.8436 13.8171 13.8767 13.5491C13.8932 13.4156 13.908 13.3057 13.9186 13.2297C13.9238 13.1917 13.9281 13.1623 13.931 13.1426C13.9324 13.1328 13.9335 13.1254 13.9342 13.1207C13.9345 13.1183 13.9348 13.1166 13.9349 13.1156C13.935 13.115 13.9351 13.1147 13.9351 13.1145C13.9351 13.1144 13.9351 13.1144 13.9351 13.1144C13.9351 13.1144 13.9351 13.1144 13.9351 13.1144C13.9351 13.1144 13.9351 13.1145 13.1936 13.002C12.4521 12.8894 12.4521 12.8895 12.4521 12.8896C12.4521 12.8896 12.452 12.8897 12.452 12.8898C12.452 12.89 12.452 12.8902 12.4519 12.8905C12.4519 12.891 12.4518 12.8917 12.4516 12.8925C12.4514 12.8942 12.451 12.8966 12.4505 12.8997C12.4496 12.9059 12.4483 12.9147 12.4467 12.926C12.4434 12.9486 12.4387 12.9812 12.4329 13.0226C12.4214 13.1053 12.4055 13.2231 12.388 13.3655C12.353 13.6494 12.3105 14.0356 12.2821 14.439C12.254 14.8375 12.2378 15.2752 12.2613 15.6542C12.2729 15.8426 12.2956 16.0402 12.3406 16.2216C12.3797 16.3796 12.4611 16.6365 12.6633 16.8387L13.1936 16.3083Z" fill="currentColor" />
</svg>