<svg xmlns="http://www.w3.org/2000/svg" width="24" height="24" viewBox="0 0 24 24" fill="none">
    <path opacity="0.4" d="M10.9999 2C15.2426 2 17.3636 2.00034 18.6816 3.31836C19.9996 4.63638 19.9999 6.75736 19.9999 11C19.9999 12.1548 19.9982 13.1525 19.9716 14.0195C19.3897 13.6891 18.717 13.5 17.9999 13.5C15.7908 13.5 13.9999 15.2909 13.9999 17.5C13.9999 18.4171 14.309 19.2618 14.8281 19.9365C13.7872 19.9986 12.5319 20 10.9999 20C6.7573 20 4.63632 19.9997 3.3183 18.6816C2.00028 17.3636 1.99994 15.2426 1.99994 11C1.99994 6.75736 2.00028 4.63638 3.3183 3.31836C4.63632 2.00034 6.7573 2 10.9999 2Z" fill="currentColor" />
    <path d="M10.9999 20C6.7573 20 4.63598 20 3.31796 18.682C1.99994 17.364 1.99994 15.2426 1.99994 11C1.99994 6.75736 1.99994 4.63604 3.31796 3.31802C4.63598 2 6.7573 2 10.9999 2C15.2426 2 17.3639 2 18.6819 3.31802C19.892 4.52814 19.9911 6.41543 19.9992 10" stroke="currentColor" stroke-width="2" stroke-linecap="round" stroke-linejoin="round" />
    <path d="M1.99994 11H10.9999" stroke="currentColor" stroke-width="2" stroke-linecap="round" stroke-linejoin="round" />
    <path d="M9.99994 6.5L15.9999 6.5" stroke="currentColor" stroke-width="2" stroke-linecap="round" stroke-linejoin="round" />
    <path d="M6.12494 6.5H5.99994M6.24994 6.5C6.24994 6.63807 6.13801 6.75 5.99994 6.75C5.86187 6.75 5.74994 6.63807 5.74994 6.5C5.74994 6.36193 5.86187 6.25 5.99994 6.25C6.13801 6.25 6.24994 6.36193 6.24994 6.5Z" stroke="currentColor" stroke-width="2" stroke-linecap="round" stroke-linejoin="round" />
    <path d="M6.12494 15.5H5.99994M6.24994 15.5C6.24994 15.6381 6.13801 15.75 5.99994 15.75C5.86187 15.75 5.74994 15.6381 5.74994 15.5C5.74994 15.3619 5.86187 15.25 5.99994 15.25C6.13801 15.25 6.24994 15.3619 6.24994 15.5Z" stroke="currentColor" stroke-width="2" stroke-linecap="round" stroke-linejoin="round" />
    <path d="M14.2907 16C14.8841 14.5341 16.3212 13.5 17.9999 13.5C19.4805 13.5 20.7732 14.3044 21.4648 15.5M21.7092 19C21.1158 20.4659 19.6786 21.5 17.9999 21.5C16.5194 21.5 15.2267 20.6956 14.5351 19.5M16.9999 16H13.9999V13M18.9999 19H21.9999V22" stroke="currentColor" stroke-width="2" stroke-linecap="round" stroke-linejoin="round" />
</svg>