<svg xmlns="http://www.w3.org/2000/svg" width="24" height="24" viewBox="0 0 24 24" fill="none">
    <path opacity="0.4" d="M12 8.00195C16.4183 8.00195 20 6.65881 20 5.00195V19.002C20 20.6588 16.4183 22.002 12 22.002C7.58172 22.002 4 20.6588 4 19.002V5.00195C4 6.65881 7.58172 8.00195 12 8.00195Z" fill="currentColor" />
    <ellipse cx="12" cy="5.00195" rx="8" ry="3" stroke="currentColor" stroke-width="2" stroke-linecap="round" stroke-linejoin="round" />
    <path d="M12 15.002C7.58172 15.002 4 13.6588 4 12.002" stroke="currentColor" stroke-width="2" stroke-linecap="round" stroke-linejoin="round" />
    <path d="M12 22.002C7.58172 22.002 4 20.6588 4 19.002V5.00195M20 5.00195V10.002" stroke="currentColor" stroke-width="2" stroke-linecap="round" stroke-linejoin="round" />
    <path d="M18.0801 14.002L16.7431 16.5547C16.4033 17.2034 16.2335 17.5277 16.387 17.7648C16.5405 18.002 16.9203 18.002 17.68 18.002H18.4802C19.2398 18.002 19.6196 18.002 19.7732 18.2391C19.9267 18.4762 19.7568 18.8005 19.4171 19.4492L18.0801 22.002" stroke="currentColor" stroke-width="2" stroke-linecap="round" stroke-linejoin="round" />
</svg>