<svg xmlns="http://www.w3.org/2000/svg" width="24" height="24" viewBox="0 0 24 24" fill="none">
    <path opacity="0.4" d="M1.50406 11.6864C1.57656 13.3499 2.92215 14.6955 5.61333 17.3867C8.30451 20.0778 9.6501 21.4234 11.3136 21.4959C11.4378 21.5014 11.5622 21.5014 11.6864 21.4959C13.3499 21.4234 14.6955 20.0778 17.3867 17.3867C20.0778 14.6955 21.4234 13.3499 21.4959 11.6864C21.5014 11.5622 21.5014 11.4378 21.4959 11.3136C21.4234 9.6501 20.0778 8.30451 17.3867 5.61333C14.6955 2.92215 13.3499 1.57656 11.6864 1.50406C11.5622 1.49865 11.4378 1.49865 11.3136 1.50406C9.6501 1.57656 8.30451 2.92215 5.61333 5.61333C2.92215 8.30451 1.57656 9.6501 1.50406 11.3136C1.49865 11.4378 1.49865 11.5622 1.50406 11.6864Z" fill="currentColor" />
    <path d="M1.50406 11.6864C1.57656 13.3499 2.92215 14.6955 5.61333 17.3867C8.30451 20.0778 9.6501 21.4234 11.3136 21.4959C11.4378 21.5014 11.5622 21.5014 11.6864 21.4959C13.3499 21.4234 14.6955 20.0778 17.3867 17.3867C20.0778 14.6955 21.4234 13.3499 21.4959 11.6864C21.5014 11.5622 21.5014 11.4378 21.4959 11.3136C21.4234 9.6501 20.0778 8.30451 17.3867 5.61333C14.6955 2.92215 13.3499 1.57656 11.6864 1.50406C11.5622 1.49865 11.4378 1.49865 11.3136 1.50406C9.6501 1.57656 8.30451 2.92215 5.61333 5.61333C2.92215 8.30451 1.57656 9.6501 1.50406 11.3136C1.49865 11.4378 1.49865 11.5622 1.50406 11.6864Z" stroke="currentColor" stroke-width="2" stroke-linecap="round" stroke-linejoin="round" />
    <path d="M7.5 11.5007H15.5M11.495 15.5059L11.495 7.50586" stroke="currentColor" stroke-width="2" stroke-linecap="round" stroke-linejoin="round" />
</svg>