<svg xmlns="http://www.w3.org/2000/svg" width="24" height="24" viewBox="0 0 24 24" fill="none">
    <path opacity="0.4" d="M17.434 6.02194L13.8985 2.4864C13.4458 2.03365 12.8317 1.7793 12.1914 1.7793C11.5511 1.7793 10.9371 2.03365 10.4843 2.4864L6.94877 6.02194C6.08167 6.88903 5.64813 7.32257 5.41977 7.87389C5.19141 8.4252 5.19141 9.03833 5.19141 10.2646V15.7793C5.19141 18.6077 5.19141 20.0219 6.07009 20.9006C6.94877 21.7793 8.36298 21.7793 11.1914 21.7793H13.1914C16.0198 21.7793 17.434 21.7793 18.3127 20.9006C19.1914 20.0219 19.1914 18.6077 19.1914 15.7793V10.2646C19.1914 9.03833 19.1914 8.4252 18.963 7.87389C18.7347 7.32257 18.3011 6.88903 17.434 6.02194Z" fill="currentColor" />
    <path d="M17.434 6.02194L13.8985 2.4864C13.4458 2.03365 12.8317 1.7793 12.1914 1.7793C11.5511 1.7793 10.9371 2.03365 10.4843 2.4864L6.94877 6.02194C6.08167 6.88903 5.64813 7.32257 5.41977 7.87389C5.19141 8.4252 5.19141 9.03833 5.19141 10.2646V15.7793C5.19141 18.6077 5.19141 20.0219 6.07009 20.9006C6.94877 21.7793 8.36298 21.7793 11.1914 21.7793H13.1914C16.0198 21.7793 17.434 21.7793 18.3127 20.9006C19.1914 20.0219 19.1914 18.6077 19.1914 15.7793V10.2646C19.1914 9.03833 19.1914 8.4252 18.963 7.87389C18.7347 7.32257 18.3011 6.88903 17.434 6.02194Z" stroke="currentColor" stroke-width="2" stroke-linecap="round" stroke-linejoin="round" />
    <path d="M12.4414 6.7793H12.1914M12.6914 6.7793C12.6914 7.05544 12.4675 7.2793 12.1914 7.2793C11.9153 7.2793 11.6914 7.05544 11.6914 6.7793C11.6914 6.50316 11.9153 6.2793 12.1914 6.2793C12.4675 6.2793 12.6914 6.50316 12.6914 6.7793Z" stroke="currentColor" stroke-width="2" stroke-linecap="round" stroke-linejoin="round" />
    <path d="M14.6914 12.7793L9.69141 17.7793" stroke="currentColor" stroke-width="2" stroke-linecap="round" stroke-linejoin="round" />
    <path d="M10.0664 13.0293H9.94141M10.1914 13.0293C10.1914 13.1674 10.0795 13.2793 9.94141 13.2793C9.80333 13.2793 9.69141 13.1674 9.69141 13.0293C9.69141 12.8912 9.80333 12.7793 9.94141 12.7793C10.0795 12.7793 10.1914 12.8912 10.1914 13.0293Z" stroke="currentColor" stroke-width="2" stroke-linecap="round" stroke-linejoin="round" />
    <path d="M14.5664 17.5293H14.4414M14.6914 17.5293C14.6914 17.6674 14.5795 17.7793 14.4414 17.7793C14.3033 17.7793 14.1914 17.6674 14.1914 17.5293C14.1914 17.3912 14.3033 17.2793 14.4414 17.2793C14.5795 17.2793 14.6914 17.3912 14.6914 17.5293Z" stroke="currentColor" stroke-width="2" stroke-linecap="round" stroke-linejoin="round" />
</svg>