<svg xmlns="http://www.w3.org/2000/svg" width="24" height="24" viewBox="0 0 24 24" fill="none">
    <path opacity="0.4" fill-rule="evenodd" clip-rule="evenodd" d="M21.499 8.5C21.5002 8.81542 21.5 9.14834 21.5 9.5V14.5C21.5 17.7998 21.4997 19.4495 20.4746 20.4746C19.4494 21.4997 17.7998 21.5 14.5 21.5H9.49996C6.20015 21.5 4.55048 21.4997 3.52535 20.4746C2.50024 19.4495 2.49996 17.7998 2.49996 14.5V9.5C2.49996 9.14834 2.4997 8.81542 2.50094 8.5H21.499ZM14.5 11.5C13.5206 11.5 12.6352 11.9025 12 12.5508C11.3647 11.9025 10.4793 11.5 9.49996 11.5C7.56698 11.5 5.99996 13.067 5.99996 15C5.99996 16.933 7.56698 18.5 9.49996 18.5C10.4793 18.5 11.3647 18.0975 12 17.4492C12.6352 18.0975 13.5206 18.5 14.5 18.5C16.433 18.5 18 16.933 18 15C18 13.067 16.433 11.5 14.5 11.5Z" fill="currentColor" />
    <path d="M14.5 2.5H9.5C6.20017 2.5 4.55025 2.5 3.52513 3.52513C2.5 4.55025 2.5 6.20017 2.5 9.5V14.5C2.5 17.7998 2.5 19.4497 3.52513 20.4749C4.55025 21.5 6.20017 21.5 9.5 21.5H14.5C17.7998 21.5 19.4497 21.5 20.4749 20.4749C21.5 19.4497 21.5 17.7998 21.5 14.5V9.5C21.5 6.20017 21.5 4.55025 20.4749 3.52513C19.4497 2.5 17.7998 2.5 14.5 2.5Z" stroke="currentColor" stroke-width="2" stroke-linecap="round" stroke-linejoin="round" />
    <path d="M2.5 8.5H21.5" stroke="currentColor" stroke-width="2" stroke-linecap="round" stroke-linejoin="round" />
    <path d="M6 5.5H10" stroke="currentColor" stroke-width="2" stroke-linecap="round" stroke-linejoin="round" />
    <path d="M14.5 18.5C16.433 18.5 18 16.933 18 15C18 13.067 16.433 11.5 14.5 11.5C12.567 11.5 11 13.067 11 15C11 16.933 12.567 18.5 14.5 18.5Z" stroke="currentColor" stroke-width="2" stroke-linecap="round" stroke-linejoin="round" />
    <path d="M12 12.5505C11.3647 11.9022 10.4793 11.5 9.5 11.5C7.567 11.5 6 13.067 6 15C6 16.933 7.567 18.5 9.5 18.5C10.4793 18.5 11.3647 18.0978 12 17.4495" stroke="currentColor" stroke-width="2" stroke-linecap="round" stroke-linejoin="round" />
    <path d="M18.125 5.5H18M18.25 5.5C18.25 5.63807 18.1381 5.75 18 5.75C17.8619 5.75 17.75 5.63807 17.75 5.5C17.75 5.36193 17.8619 5.25 18 5.25C18.1381 5.25 18.25 5.36193 18.25 5.5Z" stroke="currentColor" stroke-width="2" stroke-linecap="round" stroke-linejoin="round" />
</svg>