<svg xmlns="http://www.w3.org/2000/svg" width="24" height="24" viewBox="0 0 24 24" fill="none">
    <path opacity="0.4" d="M12.4561 2C13.1613 2 13.5139 2.00032 13.8369 2.11426L14 3C14 5.82843 14.0002 7.24241 14.8789 8.12109C15.7576 8.99977 17.1716 9 20 9L20.8477 9.06348C20.9998 9.43094 21 9.83996 21 10.6572V14C21 17.7712 20.9997 19.6566 19.8281 20.8281C18.6566 21.9997 16.7712 22 13 22C12.6615 22 12.3382 21.9989 12.0293 21.998C12.568 21.9825 13 21.5425 13 21V18H11C10.4477 18 10 18.4477 10 19V21C10 21.498 10.3643 21.909 10.8408 21.9854C8.45996 21.9437 7.09458 21.7508 6.17188 20.8281C6.11123 20.7675 6.05453 20.7043 6 20.6396V19C6 18.482 5.6062 18.0547 5.10156 18.0039C4.99969 16.9715 5 15.6708 5 14V9.45605C5 6.21115 4.99976 4.58823 5.88574 3.48926C6.06475 3.26724 6.26724 3.06475 6.48926 2.88574C7.58823 1.99976 9.21115 2 12.4561 2Z" fill="currentColor" />
    <path d="M6 19C6 18.4477 5.55228 18 5 18H3V21C3 21.5523 3.44772 22 4 22H5C5.55228 22 6 21.5523 6 21V19Z" stroke="currentColor" stroke-width="2" stroke-linecap="round" stroke-linejoin="round" />
    <path d="M13 18H11C10.4477 18 10 18.4477 10 19V21C10 21.5523 10.4477 22 11 22H12C12.5523 22 13 21.5523 13 21V18Z" stroke="currentColor" stroke-width="2" stroke-linecap="round" stroke-linejoin="round" />
    <path d="M3 18V17C3 14.2386 5.23858 12 8 12C10.7614 12 13 14.2386 13 17V18" stroke="currentColor" stroke-width="2" stroke-linecap="round" stroke-linejoin="round" />
    <path d="M14 2.50088V3.00175C14 5.83513 14 7.25182 14.8787 8.13204C15.7574 9.01226 17.1716 9.01226 20.0001 9.01226H20.5001M5.00009 9.01226C5.00203 6.06349 5.04249 4.54004 5.88607 3.49194C6.06508 3.26953 6.26732 3.06694 6.48933 2.88763C7.58832 2 9.21084 2 12.4559 2C13.1614 2 13.5142 2 13.8372 2.11421C13.9044 2.13796 13.9703 2.16529 14.0346 2.19609C14.3436 2.34416 14.593 2.59404 15.0919 3.0938L19.8285 7.83863C20.4066 8.41771 20.6956 8.70724 20.8478 9.07543C21.0001 9.44361 21.0001 9.85308 21.0001 10.672V14.021C21.0001 17.7989 21.0001 19.6878 19.8285 20.8614C19.0203 21.671 17.8724 21.9221 16.0001 22" stroke="currentColor" stroke-width="2" stroke-linecap="round" stroke-linejoin="round" />
</svg>