<svg xmlns="http://www.w3.org/2000/svg" width="24" height="24" viewBox="0 0 24 24" fill="none">
    <path opacity="0.4" fill-rule="evenodd" clip-rule="evenodd" d="M11.4561 2C12.1613 2 12.5139 2.00032 12.8369 2.11426L13 3C13 5.82843 13.0002 7.24241 13.8789 8.12109C14.7576 8.99977 16.1716 9 19 9L19.8477 9.06348C19.9998 9.43094 20 9.83996 20 10.6572V14C20 17.7712 19.9997 19.6566 18.8281 20.8281C17.6566 21.9997 15.7712 22 12 22C8.22876 22 6.34345 21.9997 5.17188 20.8281C4.0003 19.6566 4 17.7712 4 14V9.45605C4 6.21115 3.99976 4.58823 4.88574 3.48926C5.06475 3.26724 5.26724 3.06475 5.48926 2.88574C6.58823 1.99976 8.21115 2 11.4561 2ZM11.5 12C10.1193 12 9 13.1193 9 14.5C9 15.8807 10.1193 17 11.5 17C12.8807 17 14 15.8807 14 14.5C14 13.1193 12.8807 12 11.5 12Z" fill="currentColor" />
    <path d="M13.5 16.5L15 18M14 14.5C14 15.8807 12.8807 17 11.5 17C10.1193 17 9 15.8807 9 14.5C9 13.1193 10.1193 12 11.5 12C12.8807 12 14 13.1193 14 14.5Z" stroke="currentColor" stroke-width="2" stroke-linecap="round" stroke-linejoin="round" />
    <path d="M13 2.5V3C13 5.82843 13 7.24264 13.8787 8.12132C14.7574 9 16.1716 9 19 9H19.5M20 10.6569V14C20 17.7712 20 19.6569 18.8284 20.8284C17.6569 22 15.7712 22 12 22C8.22876 22 6.34315 22 5.17157 20.8284C4 19.6569 4 17.7712 4 14V9.45584C4 6.21082 4 4.58831 4.88607 3.48933C5.06508 3.26731 5.26731 3.06508 5.48933 2.88607C6.58831 2 8.21082 2 11.4558 2C12.1614 2 12.5141 2 12.8372 2.11401C12.9044 2.13772 12.9702 2.165 13.0345 2.19575C13.3436 2.34355 13.593 2.593 14.0919 3.09188L18.8284 7.82843C19.4065 8.40649 19.6955 8.69552 19.8478 9.06306C20 9.4306 20 9.83935 20 10.6569Z" stroke="currentColor" stroke-width="2" stroke-linecap="round" stroke-linejoin="round" />
</svg>