<svg xmlns="http://www.w3.org/2000/svg" width="24" height="24" viewBox="0 0 24 24" fill="none">
    <path d="M9 18C10.1046 18 11 17.1046 11 16C11 14.8954 10.1046 14 9 14C7.89543 14 7 14.8954 7 16C7 17.1046 7.89543 18 9 18Z" stroke="currentColor" stroke-width="2" stroke-linecap="round" stroke-linejoin="round" />
    <path d="M21 15H19.5" stroke="currentColor" stroke-width="2" stroke-linecap="round" stroke-linejoin="round" />
    <path d="M17 18.9821C17 20.0966 17.8954 21 19 21C20.1046 21 21 20.0966 21 18.9821V8.12841C21 5.01842 21 3.46342 20.074 3.07643C19.1481 2.68945 18.0583 3.789 15.8787 5.98809L3.41421 18.5642C3.149 18.8318 3 19.1947 3 19.5731C3 20.3612 3.63317 21 4.41421 21C4.78929 21 5.149 20.8497 5.41421 20.5821L8 17.9731" stroke="currentColor" stroke-width="2" stroke-linecap="round" stroke-linejoin="round" />
    <path opacity="0.4" d="M9 18C10.1046 18 11 17.1046 11 16C11 14.8954 10.1046 14 9 14C7.89543 14 7 14.8954 7 16L6.5 15.5L3.5 18.5C2.94771 19.0523 2.94772 19.9477 3.5 20.5C4.05228 21.0523 4.94772 21.0523 5.5 20.5L8.17675 17.8232C8.42782 17.9368 8.70653 18 9 18Z" fill="currentColor" />
</svg>