<svg xmlns="http://www.w3.org/2000/svg" width="24" height="24" viewBox="0 0 24 24" fill="none">
    <path d="M4 12L4 21" stroke="currentColor" stroke-width="2" stroke-linecap="round" stroke-linejoin="round" />
    <path opacity="0.4" d="M11.7576 13.99C9.53498 12.8407 7.63078 12.9171 6.22741 13.4015C5.02221 13.8175 4.4196 14.0255 4.2098 13.8759C4 13.7264 4 13.202 4 12.1533V4.42051C4.0746 4.36168 4.15535 4.30203 4.24191 4.24219L14.9505 14.9508C13.9344 14.8441 12.8503 14.555 11.7576 13.99Z" fill="currentColor" />
    <path d="M8.00781 3.00876C9.16328 2.95225 10.4482 3.16236 11.7566 3.83892C13.454 4.7166 15.2461 5.04124 17.0201 4.84327C18.5617 4.67121 19.3325 4.58518 19.6658 4.88332C19.9991 5.18146 19.9991 5.82588 19.9991 7.11473V13.2898C19.9991 13.409 19.9991 13.4685 19.9885 13.5405C19.9493 13.8088 19.742 14.118 19.5087 14.2562C19.4462 14.2933 19.4098 14.3082 19.3371 14.3381" stroke="currentColor" stroke-width="2" stroke-linecap="round" stroke-linejoin="round" />
    <path d="M4.24191 4.24219C4.15535 4.30203 4.0746 4.36168 4 4.42051V12.1533C4 13.202 4 13.7264 4.2098 13.8759C4.4196 14.0255 5.02221 13.8175 6.22741 13.4015C7.63078 12.9171 9.53498 12.8407 11.7576 13.99C12.8503 14.555 13.9344 14.8441 14.9505 14.9508" stroke="currentColor" stroke-width="2" stroke-linecap="round" stroke-linejoin="round" />
    <path d="M3 3L21 21" stroke="currentColor" stroke-width="2" stroke-linecap="round" stroke-linejoin="round" />
</svg>