<svg xmlns="http://www.w3.org/2000/svg" width="24" height="24" viewBox="0 0 24 24" fill="none">
    <path opacity="0.4" d="M8.69496 22H15.305C18.4386 22 20.0054 22 20.5716 20.9756C20.6224 20.8836 20.6621 20.789 20.691 20.691L16.9612 16.9612C15.4463 16.7984 13.9315 16.1492 12.4167 15.5C10.6667 14.75 8.91667 14 7.16667 14C6.92978 14 6.6989 14.0062 6.47342 14.0179L5.32575 15.9036C3.68343 18.602 2.86227 19.9512 3.42841 20.9756C3.99455 22 5.56136 22 8.69496 22Z" fill="currentColor" />
    <path d="M20.75 20.9756C20.178 22 18.5951 22 15.4292 22H8.75105C5.58516 22 4.00222 22 3.43025 20.9756C2.85828 19.9512 3.6879 18.602 5.34713 15.9036L8.99922 9.96422C9.11328 9.77874 9.20525 9.62917 9.27952 9.5" stroke="currentColor" stroke-width="2" stroke-linecap="round" stroke-linejoin="round" />
    <path d="M14.9725 9.5C14.7845 9.29559 14.6674 9.14227 14.5934 8.9786C14.4725 8.71151 14.4725 8.43028 14.4725 7.86783V2" stroke="currentColor" stroke-width="2" stroke-linecap="round" stroke-linejoin="round" />
    <path d="M9.52747 4.5V2" stroke="currentColor" stroke-width="2" stroke-linecap="round" stroke-linejoin="round" />
    <path d="M8 2H16" stroke="currentColor" stroke-width="2" stroke-linecap="round" stroke-linejoin="round" />
    <path d="M17 17C14 17 11 14 8 14C7.65244 14 7.31998 14.0181 7 14.0512" stroke="currentColor" stroke-width="2" stroke-linecap="round" stroke-linejoin="round" />
    <path d="M2 2L22 22" stroke="currentColor" stroke-width="2" stroke-linecap="round" stroke-linejoin="round" />
</svg>