<svg xmlns="http://www.w3.org/2000/svg" width="24" height="24" viewBox="0 0 24 24" fill="none">
    <path opacity="0.4" d="M6.94434 2.5C8.10804 2.5 8.68987 2.5004 9.19922 2.69141C10.3621 3.12754 10.8414 4.18388 11.3662 5.2334L12 6.5H16.75C18.8567 6.5 19.9103 6.50027 20.667 7.00586C20.9943 7.22463 21.2754 7.50568 21.4941 7.83301C21.9997 8.58968 22 9.64331 22 11.75C22 15.2612 21.9999 17.0172 21.1572 18.2783C20.7926 18.824 20.324 19.2926 19.7783 19.6572C19.2445 20.0139 18.6212 20.2173 17.8145 20.3359C17.932 20.0813 18 19.7989 18 19.5C18 18.3954 17.1046 17.5 16 17.5C14.8954 17.5 14 18.3954 14 19.5C14 19.8639 14.0988 20.2041 14.2686 20.498C13.9463 20.4989 13.6073 20.5 13.25 20.5H12C7.28595 20.5 4.92931 20.4996 3.46484 19.0352C2.00038 17.5707 2 15.214 2 10.5V7.44434C2 5.62804 1.99968 4.71956 2.37988 4.03809C2.65099 3.55229 3.05229 3.15099 3.53809 2.87988C4.21956 2.49968 5.12804 2.5 6.94434 2.5Z" fill="currentColor" />
    <path d="M8.01332 6.50116H16.7827C18.8941 6.50116 19.9498 6.50116 20.7081 7.0069C21.0364 7.22584 21.3183 7.50717 21.5377 7.83484C21.8193 8.25555 21.9444 8.76795 22 9.50203M12.0222 6.50116L11.3874 5.23392C10.8614 4.18406 10.3808 3.1273 9.21524 2.69106C8.70475 2.5 8.12158 2.5 6.95525 2.5C5.13474 2.5 4.22449 2.5 3.54148 2.88043C3.0546 3.15161 2.65287 3.55257 2.38116 4.03851C2 4.72021 2 5.62871 2 7.44571V10.5023C2 15.2177 2 17.5754 3.46772 19.0403C4.71129 20.2815 6.59706 20.4711 10.0178 20.5" stroke="currentColor" stroke-width="2" stroke-linecap="round" stroke-linejoin="round" />
    <path d="M17.5 18L22 13.5M21 15L22 16M18 19.5C18 20.6046 17.1046 21.5 16 21.5C14.8954 21.5 14 20.6046 14 19.5C14 18.3954 14.8954 17.5 16 17.5C17.1046 17.5 18 18.3954 18 19.5Z" stroke="currentColor" stroke-width="2" stroke-linecap="round" stroke-linejoin="round" />
</svg>