<svg xmlns="http://www.w3.org/2000/svg" width="24" height="24" viewBox="0 0 24 24" fill="none">
    <path opacity="0.4" fill-rule="evenodd" clip-rule="evenodd" d="M6.94434 3C8.10804 3 8.68987 3.0004 9.19922 3.19141C10.3621 3.62754 10.8414 4.68388 11.3662 5.7334L12 7H16.75C18.8567 7 19.9103 7.00027 20.667 7.50586C20.9943 7.72463 21.2754 8.00568 21.4941 8.33301C21.9997 9.08968 22 10.1433 22 12.25C22 15.7612 21.9999 17.5172 21.1572 18.7783C20.7926 19.324 20.324 19.7926 19.7783 20.1572C18.5172 20.9999 16.7612 21 13.25 21H12C7.28595 21 4.92931 20.9996 3.46484 19.5352C2.00038 18.0707 2 15.714 2 11V7.94434C2 6.12804 1.99968 5.21956 2.37988 4.53809C2.65099 4.05229 3.05229 3.65099 3.53809 3.37988C4.21956 2.99968 5.12804 3 6.94434 3ZM12 12C10.8954 12 10 12.8954 10 14C10 15.1046 10.8954 16 12 16C13.1046 16 14 15.1046 14 14C14 12.8954 13.1046 12 12 12Z" fill="currentColor" />
    <path d="M8 7H16.75C18.8567 7 19.91 7 20.6667 7.50559C20.9943 7.72447 21.2755 8.00572 21.4944 8.33329C22 9.08996 22 10.1433 22 12.25C22 15.7612 22 17.5167 21.1573 18.7779C20.7926 19.3238 20.3238 19.7926 19.7779 20.1573C18.5167 21 16.7612 21 13.25 21H12C7.28595 21 4.92893 21 3.46447 19.5355C2 18.0711 2 15.714 2 11V7.94427C2 6.1278 2 5.21956 2.38032 4.53806C2.65142 4.05227 3.05227 3.65142 3.53806 3.38032C4.21956 3 5.1278 3 6.94427 3C8.10802 3 8.6899 3 9.19926 3.19101C10.3622 3.62712 10.8418 4.68358 11.3666 5.73313L12 7" stroke="currentColor" stroke-width="2" stroke-linecap="round" stroke-linejoin="round" />
    <circle cx="12" cy="14" r="2" stroke="currentColor" stroke-width="2" stroke-linecap="round" stroke-linejoin="round" />
    <path d="M14 14H18M10 14H6" stroke="currentColor" stroke-width="2" stroke-linecap="round" stroke-linejoin="round" />
</svg>