<svg xmlns="http://www.w3.org/2000/svg" width="24" height="24" viewBox="0 0 24 24" fill="none">
    <path opacity="0.4" d="M19.6816 4.31836C18.3636 3.00034 16.2426 3 12 3C7.75736 3 5.63638 3.00034 4.31836 4.31836C3.00034 5.63638 3 7.75736 3 12C3 16.2426 3.00034 18.3636 4.31836 19.6816C5.63638 20.9997 7.75736 21 12 21C16.2426 21 18.3636 20.9997 19.6816 19.6816C20.9997 18.3636 21 16.2426 21 12C21 7.75736 20.9997 5.63638 19.6816 4.31836Z" fill="currentColor" />
    <path d="M17 3C17.4644 3 17.6966 3 17.8919 3.02201C19.5145 3.20484 20.7952 4.48545 20.978 6.10812C21 6.30344 21 6.53563 21 7M17 21C17.4644 21 17.6966 21 17.8919 20.978C19.5145 20.7952 20.7952 19.5145 20.978 17.8919C21 17.6966 21 17.4644 21 17M7 3C6.53563 3 6.30344 3 6.10812 3.02201C4.48545 3.20484 3.20484 4.48545 3.02201 6.10812C3 6.30344 3 6.53563 3 7M7 21C6.53563 21 6.30344 21 6.10812 20.978C4.48545 20.7952 3.20484 19.5145 3.02201 17.8919C3 17.6966 3 17.4644 3 17" stroke="currentColor" stroke-width="2" stroke-linecap="round" stroke-linejoin="round" />
</svg>