<svg xmlns="http://www.w3.org/2000/svg" width="24" height="24" viewBox="0 0 24 24" fill="none">
    <g opacity="0.4">
        <path d="M12 21.9999C17.5228 21.9999 22 17.5227 22 11.9999C22 10.0061 21.4165 8.14863 20.411 6.58887L14.4142 12.5857C13.7475 13.2523 13.4142 13.5857 13 13.5857C12.5858 13.5857 12.2524 13.2523 11.5858 12.5857L11.4142 12.4141L11.4142 12.4141C10.7475 11.7474 10.4142 11.4141 9.99999 11.4141C9.58578 11.4141 9.25245 11.7474 8.58579 12.4141L8.58578 12.4141L3.58899 17.4109C5.36881 20.1718 8.47091 21.9999 12 21.9999Z" fill="currentColor" />
    </g>
    <path d="M22 12C22 17.5228 17.5228 22 12 22C6.47715 22 2 17.5228 2 12C2 6.47715 6.47715 2 12 2C17.5228 2 22 6.47715 22 12Z" stroke="currentColor" stroke-width="2" />
    <path d="M4 17L8.58579 12.4142C9.25245 11.7475 9.58579 11.4142 10 11.4142C10.4142 11.4142 10.7475 11.7475 11.4142 12.4142L11.5858 12.5858C12.2525 13.2525 12.5858 13.5858 13 13.5858C13.4142 13.5858 13.7475 13.2525 14.4142 12.5858L20 7" stroke="currentColor" stroke-width="2" stroke-linecap="round" stroke-linejoin="round" />
</svg>