<svg xmlns="http://www.w3.org/2000/svg" width="24" height="24" viewBox="0 0 24 24" fill="none">
    <path opacity="0.4" d="M18.5 5.75V9.75C18.5 8.7835 17.7165 8 16.75 8C15.7835 8 15 8.7835 15 9.75V8.75C15 7.7835 14.2165 7 13.25 7C12.2835 7 11.5 7.7835 11.5 8.75V3.75C11.5 2.7835 10.7165 2 9.75 2C8.7835 2 8 2.7835 8 3.75V12C8 12.5324 8 12.7985 7.91726 12.9239C7.79697 13.1061 7.57238 13.1891 7.36248 13.1291C7.2181 13.0878 7.04487 12.8857 6.69842 12.4815L5.61507 11.2176C5.22468 10.7621 4.65476 10.5 4.05489 10.5H3.91898C2.85916 10.5 2 11.3592 2 12.419C2 12.7978 2.11214 13.1682 2.32229 13.4834L5.29275 17.9391L5.29276 17.9391C5.90513 18.8577 6.21133 19.317 6.56186 19.7034C7.64679 20.8993 9.11179 21.6833 10.7086 21.9227C11.2246 22 11.7766 22 12.8806 22C14.851 22 15.8362 22 16.649 21.803C19.1965 21.1855 21.1855 19.1965 21.803 16.649C22 15.8362 22 14.851 22 12.8806V5.75C22 4.7835 21.2165 4 20.25 4C19.2835 4 18.5 4.7835 18.5 5.75Z" fill="currentColor" />
    <path d="M17.75 11.5C17.75 11.9142 18.0858 12.25 18.5 12.25C18.9142 12.25 19.25 11.9142 19.25 11.5H18.5H17.75ZM5.61507 11.2176L5.04563 11.7057H5.04563L5.61507 11.2176ZM6.69842 12.4815L7.26786 11.9934H7.26786L6.69842 12.4815ZM5.29275 17.9391L5.91678 17.5231V17.5231L5.29275 17.9391ZM2.32229 13.4834L2.94633 13.0674H2.94633L2.32229 13.4834ZM7.91726 12.9239L7.29137 12.5106V12.5106L7.91726 12.9239ZM7.36248 13.1291L7.1562 13.8502H7.15621L7.36248 13.1291ZM10.7086 21.9227L10.8198 21.181H10.8198L10.7086 21.9227ZM6.56186 19.7034L7.11734 19.1994H7.11733L6.56186 19.7034ZM21.803 16.649L21.0741 16.4723V16.4723L21.803 16.649ZM16.649 21.803L16.4723 21.0741H16.4723L16.649 21.803ZM14.25 11.5C14.25 11.9142 14.5858 12.25 15 12.25C15.4142 12.25 15.75 11.9142 15.75 11.5H15H14.25ZM10.75 11C10.75 11.4142 11.0858 11.75 11.5 11.75C11.9142 11.75 12.25 11.4142 12.25 11H11.5H10.75ZM18.5 11.5H19.25V5.75H18.5H17.75V11.5H18.5ZM22 5.75H21.25V12.8806H22H22.75V5.75H22ZM20.25 4V4.75C20.8023 4.75 21.25 5.19772 21.25 5.75H22H22.75C22.75 4.36929 21.6307 3.25 20.25 3.25V4ZM18.5 5.75H19.25C19.25 5.19772 19.6977 4.75 20.25 4.75V4V3.25C18.8693 3.25 17.75 4.36929 17.75 5.75H18.5ZM5.61507 11.2176L5.04563 11.7057L6.12897 12.9696L6.69842 12.4815L7.26786 11.9934L6.18451 10.7295L5.61507 11.2176ZM3.91898 10.5V11.25H4.05489V10.5V9.75H3.91898V10.5ZM2 12.419H2.75C2.75 11.7734 3.27337 11.25 3.91898 11.25V10.5V9.75C2.44494 9.75 1.25 10.9449 1.25 12.419H2ZM4.05489 10.5V11.25C4.43581 11.25 4.79772 11.4165 5.04563 11.7057L5.61507 11.2176L6.18451 10.7295C5.65164 10.1078 4.8737 9.75 4.05489 9.75V10.5ZM5.29275 17.9391L5.91678 17.5231L2.94633 13.0674L2.32229 13.4834L1.69825 13.8995L4.66871 18.3551L5.29275 17.9391ZM2.32229 13.4834L2.94633 13.0674C2.81831 12.8754 2.75 12.6498 2.75 12.419H2H1.25C1.25 12.9459 1.40597 13.461 1.69825 13.8995L2.32229 13.4834ZM8 12H7.25C7.25 12.2778 7.24956 12.4461 7.24146 12.5626C7.23761 12.618 7.23341 12.6367 7.23396 12.6344C7.23437 12.6326 7.24598 12.5794 7.29137 12.5106L7.91726 12.9239L8.54314 13.3371C8.70238 13.0959 8.72724 12.8192 8.73785 12.6666C8.75044 12.4855 8.75 12.2545 8.75 12H8ZM6.69842 12.4815L6.12897 12.9696C6.29463 13.1628 6.44461 13.3385 6.57201 13.4678C6.67942 13.5768 6.87835 13.7707 7.1562 13.8502L7.36248 13.1291L7.56876 12.408C7.64797 12.4307 7.69139 12.4635 7.69287 12.4646C7.69484 12.466 7.67946 12.4546 7.64044 12.415C7.55852 12.3318 7.44866 12.2043 7.26786 11.9934L6.69842 12.4815ZM7.91726 12.9239L7.29137 12.5106C7.35152 12.4195 7.46381 12.378 7.56876 12.408L7.36248 13.1291L7.15621 13.8502C7.68095 14.0003 8.24242 13.7926 8.54314 13.3371L7.91726 12.9239ZM12.8806 22V21.25C11.7534 21.25 11.2674 21.248 10.8198 21.181L10.7086 21.9227L10.5975 22.6644C11.1817 22.752 11.7997 22.75 12.8806 22.75V22ZM5.29275 17.9391L4.66871 18.3551C5.26825 19.2545 5.60942 19.7697 6.00639 20.2073L6.56186 19.7034L7.11733 19.1994C6.81322 18.8642 6.54201 18.4609 5.91678 17.5231L5.29275 17.9391ZM10.7086 21.9227L10.8198 21.181C9.39406 20.9672 8.08602 20.2672 7.11734 19.1994L6.56186 19.7034L6.00639 20.2073C7.20756 21.5313 8.82952 22.3994 10.5975 22.6644L10.7086 21.9227ZM22 12.8806H21.25C21.25 14.8947 21.2447 15.7686 21.0741 16.4723L21.803 16.649L22.5319 16.8256C22.7553 15.9039 22.75 14.8073 22.75 12.8806H22ZM12.8806 22V22.75C14.8073 22.75 15.9039 22.7553 16.8256 22.5319L16.649 21.803L16.4723 21.0741C15.7686 21.2447 14.8947 21.25 12.8806 21.25V22ZM21.803 16.649L21.0741 16.4723C20.5228 18.7469 18.7469 20.5228 16.4723 21.0741L16.649 21.803L16.8256 22.5319C19.6461 21.8483 21.8483 19.6461 22.5319 16.8256L21.803 16.649ZM18.5 11.5H19.25V9.75H18.5H17.75V11.5H18.5ZM15 9.75H14.25V11.5H15H15.75V9.75H15ZM16.75 8V7.25C15.3693 7.25 14.25 8.36929 14.25 9.75H15H15.75C15.75 9.19772 16.1977 8.75 16.75 8.75V8ZM18.5 9.75H19.25C19.25 8.36929 18.1307 7.25 16.75 7.25V8V8.75C17.3023 8.75 17.75 9.19772 17.75 9.75H18.5ZM15 11.5H15.75V8.75H15H14.25V11.5H15ZM11.5 8.75H10.75V11H11.5H12.25V8.75H11.5ZM13.25 7V6.25C11.8693 6.25 10.75 7.36929 10.75 8.75H11.5H12.25C12.25 8.19772 12.6977 7.75 13.25 7.75V7ZM15 8.75H15.75C15.75 7.36929 14.6307 6.25 13.25 6.25V7V7.75C13.8023 7.75 14.25 8.19772 14.25 8.75H15ZM11.5 11H12.25V3.75H11.5H10.75V11H11.5ZM8 3.75H7.25V12H8H8.75V3.75H8ZM9.75 2V1.25C8.36929 1.25 7.25 2.36929 7.25 3.75H8H8.75C8.75 3.19772 9.19772 2.75 9.75 2.75V2ZM11.5 3.75H12.25C12.25 2.36929 11.1307 1.25 9.75 1.25V2V2.75C10.3023 2.75 10.75 3.19772 10.75 3.75H11.5Z" fill="currentColor" />
</svg>