<svg xmlns="http://www.w3.org/2000/svg" width="24" height="24" viewBox="0 0 24 24" fill="none">
    <path opacity="0.4" d="M15.125 4.81738C15.4486 4.25472 16.0543 3.875 16.75 3.875C17.7855 3.875 18.625 4.71447 18.625 5.75V7.81738C18.9486 7.25472 19.5543 6.875 20.25 6.875C21.2855 6.875 22.125 7.71447 22.125 8.75V14.7998C22.125 18.8453 18.8453 22.125 14.7998 22.125H12.0586C12.0507 22.125 12.0434 22.123 12.0361 22.121L12.0223 22.121C12.0151 22.123 12.0078 22.125 12 22.125C9.45923 22.125 7.08612 20.8553 5.67676 18.7412L2.21875 13.5527C1.99491 13.217 1.875 12.8225 1.875 12.4189C1.87502 11.2901 2.79011 10.375 3.91895 10.375H4.05469C4.69105 10.375 5.29582 10.6536 5.70996 11.1367L7.875 13.6621V5.75C7.875 4.71447 8.71447 3.875 9.75 3.875C10.4457 3.875 11.0514 4.25472 11.375 4.81738V3.75C11.375 2.71447 12.2145 1.875 13.25 1.875C14.2855 1.875 15.125 2.71447 15.125 3.75V4.81738Z" fill="currentColor" />
    <path d="M18.5 11.375V8.625C18.5 7.6585 19.2835 6.875 20.25 6.875C21.2165 6.875 22 7.6585 22 8.625V14.675C22 18.6515 18.7764 21.875 14.8 21.875H12.0588M8 13.875L5.61507 11.0926C5.22468 10.6371 4.65476 10.375 4.05489 10.375H3.91898C2.85916 10.375 2 11.2342 2 12.294C2 12.6728 2.11214 13.0432 2.32229 13.3584L5.7812 18.5468C7.16738 20.6261 9.50102 21.875 12 21.875" stroke="currentColor" stroke-width="2" stroke-linecap="round" stroke-linejoin="round" />
    <path d="M18.5 8.375V5.625C18.5 4.6585 17.7165 3.875 16.75 3.875C15.7835 3.875 15 4.6585 15 5.625V10.375" stroke="currentColor" stroke-width="2" stroke-linecap="round" stroke-linejoin="round" />
    <path d="M15 10.375V3.625C15 2.6585 14.2165 1.875 13.25 1.875C12.2835 1.875 11.5 2.6585 11.5 3.625V9.875" stroke="currentColor" stroke-width="2" stroke-linecap="round" stroke-linejoin="round" />
    <path d="M11.5 9.875V5.625C11.5 4.6585 10.7165 3.875 9.75 3.875C8.7835 3.875 8 4.6585 8 5.625V13.875" stroke="currentColor" stroke-width="2" stroke-linecap="round" stroke-linejoin="round" />
</svg>