<svg xmlns="http://www.w3.org/2000/svg" width="24" height="24" viewBox="0 0 24 24" fill="none">
    <path opacity="0.4" d="M20.7183 8.69451L21.9277 12.7174C21.9669 12.8476 21.9865 12.9127 21.997 12.9796L22 13L2.003 12.9796C2.01355 12.9127 2.03312 12.8476 2.07227 12.7174L3.28165 8.69451C4.10632 5.95137 4.51865 4.5798 5.58253 3.7899C6.6464 3 8.08136 3 10.9513 3H13.0487C15.9186 3 17.3536 3 18.4175 3.7899C19.4813 4.5798 19.8937 5.95137 20.7183 8.69451Z" fill="currentColor" />
    <path d="M20.7104 8.70122L21.9186 12.7288C21.9578 12.8592 21.9773 12.9244 21.9879 12.9914L21.9908 13.0118C22 13.079 22 13.147 22 13.2831C22 16.7797 22 18.528 20.9812 19.6669C20.8824 19.7774 20.7774 19.8824 20.6669 19.9812C19.528 21 17.7797 21 14.2831 21H9.71685C6.22026 21 4.47197 21 3.33311 19.9812C3.22259 19.8824 3.11765 19.7774 3.01877 19.6669C2 18.528 2 16.7797 2 13.2831C2 13.147 2 13.079 2.00915 13.0118L2.01215 12.9914C2.02269 12.9244 2.04225 12.8592 2.08136 12.7288L3.28963 8.70122C4.11355 5.95484 4.5255 4.58166 5.5884 3.79083C6.6513 3 8.08495 3 10.9522 3H13.0478C15.9151 3 17.3487 3 18.4116 3.79083C19.4745 4.58166 19.8865 5.95484 20.7104 8.70122Z" stroke="currentColor" stroke-width="2" stroke-linecap="round" stroke-linejoin="round" />
    <path d="M2 13H22" stroke="currentColor" stroke-width="2" stroke-linecap="round" stroke-linejoin="round" />
    <path d="M18.125 17H18M14.125 17H14M18.25 17C18.25 17.1381 18.1381 17.25 18 17.25C17.8619 17.25 17.75 17.1381 17.75 17C17.75 16.8619 17.8619 16.75 18 16.75C18.1381 16.75 18.25 16.8619 18.25 17ZM14.25 17C14.25 17.1381 14.1381 17.25 14 17.25C13.8619 17.25 13.75 17.1381 13.75 17C13.75 16.8619 13.8619 16.75 14 16.75C14.1381 16.75 14.25 16.8619 14.25 17Z" stroke="currentColor" stroke-width="2" stroke-linecap="round" stroke-linejoin="round" />
</svg>