<svg xmlns="http://www.w3.org/2000/svg" width="24" height="24" viewBox="0 0 24 24" fill="none">
    <path d="M15 15.5C18.5899 15.5 21.5 12.5899 21.5 9C21.5 5.41015 18.5899 2.5 15 2.5C11.4101 2.5 8.5 5.41015 8.5 9C8.5 9.41773 8.5394 9.82625 8.6147 10.2221C8.75737 10.972 8.82871 11.347 8.75558 11.5844C8.68245 11.8217 8.47203 12.032 8.05119 12.4526L8.05118 12.4526L3.67253 16.8283C3.094 17.4064 2.80474 17.6955 2.65237 18.0631C2.5 18.4308 2.5 18.8398 2.5 19.6576V21.5H6V19.5H8V17.5H10L11.5526 15.9485C11.9729 15.5286 12.183 15.3186 12.4201 15.2456C12.6572 15.1726 13.0316 15.2436 13.7806 15.3858C14.1756 15.4608 14.5832 15.5 15 15.5Z" stroke="currentColor" stroke-width="2" stroke-linecap="round" stroke-linejoin="round" />
    <path d="M18 7.5C18 8.32843 17.3284 9 16.5 9C15.6716 9 15 8.32843 15 7.5C15 6.67157 15.6716 6 16.5 6C17.3284 6 18 6.67157 18 7.5Z" stroke="currentColor" stroke-width="2" />
    <path opacity="0.4" d="M15 2.5C18.5899 2.5 21.5 5.41015 21.5 9C21.5 12.5899 18.5899 15.5 15 15.5C14.5832 15.5 14.1753 15.4607 13.7803 15.3857C13.0315 15.2436 12.657 15.1721 12.4199 15.2451C12.1829 15.3181 11.9729 15.5284 11.5527 15.9482L10 17.5H8V19.5H6V21.5H2.5V19.6572C2.5 18.8398 2.50012 18.431 2.65234 18.0635C2.80471 17.6958 3.09432 17.4063 3.67285 16.8281L8.05078 12.4521C8.47162 12.0316 8.68273 11.8213 8.75586 11.584C8.82876 11.3466 8.75684 10.9712 8.61426 10.2217C8.53902 9.82601 8.5 9.41757 8.5 9C8.5 5.41015 11.4101 2.5 15 2.5ZM16.5 6C15.6716 6 15 6.67157 15 7.5C15 8.32843 15.6716 9 16.5 9C17.3284 9 18 8.32843 18 7.5C18 6.67157 17.3284 6 16.5 6Z" fill="currentColor" />
</svg>