<svg xmlns="http://www.w3.org/2000/svg" width="24" height="24" viewBox="0 0 24 24" fill="none">
    <path d="M6.9986 12L7.9986 12M11.4986 12L11.9986 12M15.9986 12L16.9986 12" stroke="currentColor" stroke-width="2" stroke-linecap="round" stroke-linejoin="round" />
    <path d="M6.9986 17L16.9986 17" stroke="currentColor" stroke-width="2" stroke-linecap="round" stroke-linejoin="round" />
    <path d="M1.9986 2L21.9986 22" stroke="currentColor" stroke-width="2" stroke-linecap="round" />
    <path opacity="0.4" d="M9.4986 21.977H14.4986C17.7861 21.977 19.4298 21.977 20.5362 21.069L6.9986 7C5.29163 7.05535 4.24233 7.24373 3.46102 7.88493C3.25849 8.05115 3.07277 8.23686 2.90655 8.4394C1.9986 9.54575 1.9986 11.1895 1.9986 14.477C1.9986 17.7645 1.9986 19.4082 2.90655 20.5145C3.07277 20.7171 3.25849 20.9028 3.46102 21.069C4.56737 21.977 6.21111 21.977 9.4986 21.977Z" fill="currentColor" />
    <path d="M20.5362 21.069C19.4298 21.977 17.7861 21.977 14.4986 21.977H9.4986C6.21111 21.977 4.56737 21.977 3.46102 21.069C3.25849 20.9028 3.07277 20.7171 2.90655 20.5145C1.9986 19.4082 1.9986 17.7645 1.9986 14.477C1.9986 11.1895 1.9986 9.54575 2.90655 8.4394C3.07277 8.23686 3.25849 8.05115 3.46102 7.88493C4.24233 7.24373 5.29163 7.05535 6.9986 7" stroke="currentColor" stroke-width="2" stroke-linecap="round" />
    <path d="M21.9756 17C21.9986 16.2898 21.9986 15.4659 21.9986 14.5C21.9986 11.2125 21.9986 9.56878 21.0906 8.46243C20.9244 8.25989 20.7387 8.07418 20.5362 7.90796C19.4298 7 17.7861 7 14.4986 7H11.9986" stroke="currentColor" stroke-width="2" stroke-linecap="round" />
    <path d="M11.9986 7V5C11.9986 4.44772 12.4463 4 12.9986 4C13.5509 4 13.9986 3.55228 13.9986 3V2" stroke="currentColor" stroke-width="2" stroke-linecap="round" stroke-linejoin="round" />
</svg>