<svg xmlns="http://www.w3.org/2000/svg" width="24" height="24" viewBox="0 0 24 24" fill="none">
    <path d="M12 9V3" stroke="currentColor" stroke-width="2" stroke-linecap="round" stroke-linejoin="round" />
    <path d="M10 12V11C10 10.0572 10 9.58579 10.2929 9.29289C10.5858 9 11.0572 9 12 9C12.9428 9 13.4142 9 13.7071 9.29289C14 9.58579 14 10.0572 14 11V12" stroke="currentColor" stroke-width="2" stroke-linecap="round" />
    <path opacity="0.4" d="M12 12C9.02554 12 6.55661 14.1644 6.08226 17.0042C5.99127 17.5489 6.44772 18 7 18H17C17.5523 18 18.0087 17.5489 17.9177 17.0042C17.4434 14.1644 14.9745 12 12 12Z" fill="currentColor" />
    <path d="M12 12C9.02554 12 6.55661 14.1644 6.08226 17.0042C5.99127 17.5489 6.44772 18 7 18H17C17.5523 18 18.0087 17.5489 17.9177 17.0042C17.4434 14.1644 14.9745 12 12 12Z" stroke="currentColor" stroke-width="2" stroke-linecap="round" stroke-linejoin="round" />
    <path d="M9 18C9 19.6569 10.3431 21 12 21C13.6569 21 15 19.6569 15 18" stroke="currentColor" stroke-width="2" stroke-linecap="round" stroke-linejoin="round" />
    <path d="M5 18H19" stroke="currentColor" stroke-width="2" stroke-linecap="round" stroke-linejoin="round" />
</svg>