<svg xmlns="http://www.w3.org/2000/svg" width="24" height="24" viewBox="0 0 24 24" fill="none">
    <path opacity="0.4" d="M14.4558 20.6325L15 19H9L9.54415 20.6325C9.81638 21.4491 10.5807 22 11.4415 22H12.5585C13.4193 22 14.1836 21.4491 14.4558 20.6325Z" fill="currentColor" />
    <path opacity="0.4" d="M5.43173 5.43164C4.52921 6.72685 4 8.30158 4 9.99991C4 12.3893 5.04751 14.534 6.70835 15.9999H16L5.43173 5.43164Z" fill="currentColor" />
    <path d="M5.14286 14C4.41735 12.8082 4 11.4118 4 9.91886C4 8.24668 4.52361 6.69556 5.41738 5.41738M8.03786 3.03786C9.20596 2.37741 10.5585 2 12 2C16.4183 2 20 5.5454 20 9.91886C20 11.3746 19.6032 12.7386 18.9107 13.9107" stroke="currentColor" stroke-width="2" stroke-linecap="round" stroke-linejoin="round" />
    <path d="M16 16H7L7.54415 17.6325C7.81638 18.4491 8.58066 19 9.44152 19L14.5585 19C15.4193 19 16.1836 18.4491 16.4558 17.6325L16.75 16.75" stroke="currentColor" stroke-width="2" stroke-linecap="round" stroke-linejoin="round" />
    <path d="M15 19L14.4558 20.6325C14.1836 21.4491 13.4193 22 12.5585 22H11.4415C10.5807 22 9.81638 21.4491 9.54415 20.6325L9 19" stroke="currentColor" stroke-width="2" stroke-linecap="round" stroke-linejoin="round" />
    <path d="M12 15.5V12" stroke="currentColor" stroke-width="2" stroke-linecap="round" stroke-linejoin="round" />
    <path d="M2 2L22 22" stroke="currentColor" stroke-width="2" stroke-linecap="round" stroke-linejoin="round" />
</svg>