<svg xmlns="http://www.w3.org/2000/svg" width="24" height="24" viewBox="0 0 24 24" fill="none">
    <path d="M13.9958 12H3.99579" stroke="currentColor" stroke-width="2" stroke-linecap="round" stroke-linejoin="round" />
    <path d="M8.99579 5.5C8.99579 3.84315 10.3389 2.5 11.9958 2.5H16.9958C18.6526 2.5 19.9958 3.84315 19.9958 5.5V18.5C19.9958 20.1569 18.6526 21.5 16.9958 21.5H11.9958C10.3389 21.5 8.99579 20.1569 8.99579 18.5V5.5Z" fill="currentColor" fill-opacity="0.4" />
    <path d="M9.01941 18C9.06597 19.0934 9.20438 19.7902 9.61574 20.3263C9.77534 20.5343 9.96152 20.7205 10.1695 20.8801C10.9774 21.5 12.1502 21.5 14.4958 21.5C16.8414 21.5 18.0142 21.5 18.8221 20.8801C19.0301 20.7205 19.2163 20.5343 19.3759 20.3263C19.9958 19.5184 19.9958 18.3456 19.9958 16V8C19.9958 5.65442 19.9958 4.48164 19.3759 3.67372C19.2163 3.46572 19.0301 3.27954 18.8221 3.11994C18.0142 2.5 16.8414 2.5 14.4958 2.5C12.1502 2.5 10.9774 2.5 10.1695 3.11994C9.96152 3.27954 9.77534 3.46572 9.61574 3.67372C9.20438 4.20981 9.06597 4.90656 9.01941 6" stroke="currentColor" stroke-width="2" stroke-linecap="round" stroke-linejoin="round" />
    <path d="M11.4958 15.5C11.4958 15.5 14.9958 12.9223 14.9958 12C14.9958 11.0777 11.4958 8.50003 11.4958 8.50003" stroke="currentColor" stroke-width="2" stroke-linecap="round" stroke-linejoin="round" />
</svg>