<svg xmlns="http://www.w3.org/2000/svg" width="24" height="24" viewBox="0 0 24 24" fill="none">
    <path d="M19.9961 12H9.99609" stroke="currentColor" stroke-width="2" stroke-linecap="round" stroke-linejoin="round" />
    <path d="M2.99609 5.5C2.99609 3.84315 4.33924 2.5 5.99609 2.5H10.9961C12.6529 2.5 13.9961 3.84315 13.9961 5.5V18.5C13.9961 20.1569 12.6529 21.5 10.9961 21.5H5.99609C4.33924 21.5 2.99609 20.1569 2.99609 18.5V5.5Z" fill="currentColor" fill-opacity="0.4" />
    <path d="M13.9725 6C13.9259 4.90656 13.7875 4.20981 13.3762 3.67372C13.2166 3.46572 13.0304 3.27954 12.8224 3.11994C12.0145 2.5 10.8417 2.5 8.49609 2.5C6.15052 2.5 4.97773 2.5 4.16981 3.11994C3.96181 3.27954 3.77564 3.46572 3.61603 3.67372C2.99609 4.48164 2.99609 5.65442 2.99609 8L2.99609 16C2.99609 18.3456 2.99609 19.5184 3.61603 20.3263C3.77563 20.5343 3.96181 20.7205 4.16981 20.8801C4.97773 21.5 6.15052 21.5 8.49609 21.5C10.8417 21.5 12.0145 21.5 12.8224 20.8801C13.0304 20.7205 13.2166 20.5343 13.3762 20.3263C13.7875 19.7902 13.9259 19.0934 13.9725 18" stroke="currentColor" stroke-width="2" stroke-linecap="round" stroke-linejoin="round" />
    <path d="M17.4961 15.5C17.4961 15.5 20.9961 12.9223 20.9961 12C20.9961 11.0777 17.4961 8.5 17.4961 8.5" stroke="currentColor" stroke-width="2" stroke-linecap="round" stroke-linejoin="round" />
</svg>