<svg xmlns="http://www.w3.org/2000/svg" width="24" height="24" viewBox="0 0 24 24" fill="none">
    <path d="M1.99609 5L8.90912 8.92462C11.4348 10.3585 12.5574 10.3585 15.0831 8.92462L21.9961 5" stroke="currentColor" stroke-width="2" stroke-linejoin="round" />
    <path opacity="0.4" d="M9.09492 19.4647C11.0354 19.5118 12.9568 19.5118 14.8973 19.4647C18.0458 19.3883 19.62 19.3501 20.7511 18.2539C21.8823 17.1576 21.915 15.6777 21.9803 12.7179V12.7178C22.0013 11.7661 22.0013 10.8201 21.9803 9.86838C21.9353 7.82941 21.9058 6.49275 21.522 5.5L11.9961 10.3276L2.4702 5.5C2.08641 6.49275 2.05689 7.82941 2.01186 9.86836C1.99084 10.8201 1.99084 11.7661 2.01186 12.7178C2.07723 15.6777 2.10992 17.1576 3.24105 18.2539C4.37218 19.3501 5.94643 19.3883 9.09492 19.4647Z" fill="currentColor" />
    <path d="M21.9888 11C22.0008 10.1743 21.998 10.3514 21.9803 9.52439C21.915 6.45886 21.8823 4.92609 20.7511 3.79066C19.62 2.65523 18.0458 2.61568 14.8973 2.53657C12.9568 2.48781 11.0354 2.48781 9.09492 2.53656C5.94642 2.61566 4.37218 2.65521 3.24105 3.79065C2.10992 4.92608 2.07723 6.45885 2.01186 9.52438C1.99084 10.5101 1.99084 11.4899 2.01186 12.4756C2.07723 15.5412 2.10992 17.0739 3.24105 18.2094C4.37218 19.3448 5.94643 19.3843 9.09492 19.4634C10.0652 19.4878 10.0306 19.5 10.9961 19.5" stroke="currentColor" stroke-width="2" stroke-linecap="round" stroke-linejoin="round" />
    <path d="M13.9961 14.5L17.4961 18M17.4961 18L20.9961 21.5M17.4961 18L13.9961 21.5M17.4961 18L20.9961 14.5" stroke="currentColor" stroke-width="2" stroke-linecap="round" stroke-linejoin="round" />
</svg>