<svg xmlns="http://www.w3.org/2000/svg" width="24" height="24" viewBox="0 0 24 24" fill="none">
    <path opacity="0.4" d="M9.06737 9.91652L2.5 5.99955L2.28096 5.87305C2 7.04134 2 8.65652 2 10.9995C2 14.7708 2 16.6564 3.17157 17.828C4.34315 18.9995 6.22876 18.9995 10 18.9995H14C17.7712 18.9995 19.6569 18.9995 20.8284 17.828C22 16.6564 22 14.7708 22 10.9995C22 8.66634 22 7.0549 21.7226 5.88776L21.5 5.99955L14.9326 9.91652C12.5115 11.3606 11.4885 11.3606 9.06737 9.91652Z" fill="currentColor" />
    <path d="M2.5 6L9.06737 9.91697C11.4885 11.361 12.5115 11.361 14.9326 9.91697L21.5 6" stroke="currentColor" stroke-width="2" stroke-linecap="round" stroke-linejoin="round" />
    <path d="M16 18.9913C15.3993 19 14.7355 19 14 19H10C6.22876 19 4.34315 19 3.17157 17.8284C2 16.6569 2 14.7712 2 11C2 7.22876 2 5.34315 3.17157 4.17157C4.34315 3 6.22876 3 10 3H14C17.7712 3 19.6569 3 20.8284 4.17157C21.8915 5.23467 21.99 6.8857 21.9991 10" stroke="currentColor" stroke-width="2" stroke-linecap="round" stroke-linejoin="round" />
    <path d="M20 17V13" stroke="currentColor" stroke-width="2" stroke-linecap="round" stroke-linejoin="round" />
    <path d="M20.125 20.75H20M20.25 20.75C20.25 20.8881 20.1381 21 20 21C19.8619 21 19.75 20.8881 19.75 20.75C19.75 20.6119 19.8619 20.5 20 20.5C20.1381 20.5 20.25 20.6119 20.25 20.75Z" stroke="currentColor" stroke-width="2" stroke-linecap="round" stroke-linejoin="round" />
</svg>