<svg xmlns="http://www.w3.org/2000/svg" width="24" height="24" viewBox="0 0 24 24" fill="none">
    <path d="M14.9961 9.19621C14.3836 8.17979 13.2693 7.5 11.9961 7.5C10.0631 7.5 8.49609 9.067 8.49609 11C8.49609 12.2732 9.17588 13.3876 10.1923 14" stroke="currentColor" stroke-width="2" stroke-linecap="round" />
    <path opacity="0.4" fill-rule="evenodd" clip-rule="evenodd" d="M13.6138 21.367C13.1801 21.773 12.6005 22 11.9972 22C11.3939 22 10.8143 21.773 10.3806 21.367C10.059 21.064 9.72855 20.7582 9.39417 20.4488C5.5991 16.9368 1.29703 12.9556 3.68236 7.37966C5.08573 4.09916 8.45444 2 11.9972 2C15.54 2 18.9087 4.09916 20.3121 7.37966C21.5332 10.2341 21.0009 12.6759 19.6801 14.85C19.2281 13.4849 17.9414 12.5 16.4247 12.5C15.9125 12.5 15.4266 12.6123 14.9902 12.8136C15.3112 12.2847 15.4961 11.6639 15.4961 11C15.4961 9.067 13.9291 7.5 11.9961 7.5C10.0631 7.5 8.49609 9.067 8.49609 11C8.49609 12.933 10.0631 14.5 11.9961 14.5C12.5268 14.5 13.0299 14.3819 13.4805 14.1705C13.1729 14.6846 12.9961 15.2859 12.9961 15.9286C12.9961 17.6201 14.2211 19.0255 15.8324 19.3061C15.4021 19.7138 14.9684 20.1137 14.5413 20.5075C14.2272 20.797 13.9166 21.0835 13.6138 21.367Z" fill="currentColor" />
    <path d="M20.9961 20.5L18.849 18.3529M18.849 18.3529C18.9636 18.2384 19.07 18.1158 19.1675 17.986C19.5981 17.413 19.8532 16.7006 19.8532 15.9286C19.8532 14.035 18.3182 12.5 16.4247 12.5C14.5311 12.5 12.9961 14.035 12.9961 15.9286C12.9961 17.8221 14.5311 19.3571 16.4247 19.3571C17.3714 19.3571 18.2286 18.9734 18.849 18.3529Z" stroke="currentColor" stroke-width="2" stroke-linecap="round" stroke-linejoin="round" />
    <path d="M20.983 11C21.0565 9.86816 20.8623 8.66581 20.3121 7.37966C18.9087 4.09916 15.54 2 11.9972 2C8.45444 2 5.08573 4.09916 3.68236 7.37966C1.08686 13.4469 6.40912 17.626 10.3806 21.367C10.8143 21.773 11.3939 22 11.9972 22" stroke="currentColor" stroke-width="2" stroke-linecap="round" />
</svg>