<svg xmlns="http://www.w3.org/2000/svg" width="24" height="24" viewBox="0 0 24 24" fill="none">
    <path opacity="0.4" fill-rule="evenodd" clip-rule="evenodd" d="M11.5 2.5C15.9182 2.5 19.4998 6.09743 19.5 10.5352C19.5 13.0728 18.5 15.0462 16.5 16.8086C15.4247 17.7562 13.6767 19.5313 12.4531 21.0625C12.2202 21.354 11.8603 21.5 11.5 21.5C11.1397 21.5 10.7798 21.354 10.5469 21.0625C9.32325 19.5313 7.57535 17.7562 6.5 16.8086C4.5 15.0462 3.5 13.0728 3.5 10.5352C3.50019 6.09743 7.08184 2.5 11.5 2.5ZM11.5 7.5C9.84315 7.5 8.5 8.84315 8.5 10.5C8.5 12.1569 9.84315 13.5 11.5 13.5C13.1569 13.5 14.5 12.1569 14.5 10.5C14.5 8.84315 13.1569 7.5 11.5 7.5Z" fill="currentColor" />
    <path d="M14.5 10.5C14.5 12.1569 13.1569 13.5 11.5 13.5C9.84315 13.5 8.5 12.1569 8.5 10.5C8.5 8.84315 9.84315 7.5 11.5 7.5C13.1569 7.5 14.5 8.84315 14.5 10.5Z" stroke="currentColor" stroke-width="2" stroke-linecap="round" stroke-linejoin="round" />
    <path d="M12.4535 21.0628C11.9877 21.6457 11.0123 21.6457 10.5465 21.0628C9.32291 19.5316 7.57535 17.7562 6.5 16.8086C4.5 15.0462 3.5 13.0731 3.5 10.5355C3.5 6.09762 7.08172 2.5 11.5 2.5C15.9183 2.5 19.5 6.09762 19.5 10.5355C19.5 11.0455 19.4596 11.5327 19.3788 12" stroke="currentColor" stroke-width="2" stroke-linecap="round" stroke-linejoin="round" />
    <path d="M14.5 17.5L16.5 19.5L20.5 15.5" stroke="currentColor" stroke-width="2" stroke-linecap="round" stroke-linejoin="round" />
</svg>