<svg xmlns="http://www.w3.org/2000/svg" width="24" height="24" viewBox="0 0 24 24" fill="none">
    <path opacity="0.4" fill-rule="evenodd" clip-rule="evenodd" d="M11 2.5C15.4182 2.5 18.9998 6.09743 19 10.5352C19 13.0728 18 15.0462 16 16.8086C14.9247 17.7562 13.1767 19.5313 11.9531 21.0625C11.7202 21.354 11.3603 21.5 11 21.5C10.6397 21.5 10.2798 21.354 10.0469 21.0625C8.82325 19.5313 7.07535 17.7562 6 16.8086C4 15.0462 3 13.0728 3 10.5352C3.00019 6.09743 6.58184 2.5 11 2.5ZM11 7.5C9.34315 7.5 8 8.84315 8 10.5C8 12.1569 9.34315 13.5 11 13.5C12.6569 13.5 14 12.1569 14 10.5C14 8.84315 12.6569 7.5 11 7.5Z" fill="currentColor" />
    <path d="M14 10.5C14 12.1569 12.6569 13.5 11 13.5C9.34315 13.5 8 12.1569 8 10.5C8 8.84315 9.34315 7.5 11 7.5C12.6569 7.5 14 8.84315 14 10.5Z" stroke="currentColor" stroke-width="2" stroke-linecap="round" stroke-linejoin="round" />
    <path d="M14 20.5V19.3284C14 18.798 14.2107 18.2893 14.5858 17.9142L18.6464 13.8536C18.8728 13.6272 19.1799 13.5 19.5 13.5C19.8201 13.5 20.1272 13.6272 20.3536 13.8536L20.6464 14.1464C20.8728 14.3728 21 14.6799 21 15C21 15.3201 20.8728 15.6272 20.6464 15.8536L16.5858 19.9142C16.2107 20.2893 15.702 20.5 15.1716 20.5H14Z" stroke="currentColor" stroke-width="2" stroke-linecap="round" stroke-linejoin="round" />
    <path d="M19 10.5352C18.9998 6.09743 15.4182 2.5 11 2.5C6.58184 2.5 3.00019 6.09743 3 10.5352C3 13.0728 4 15.0462 6 16.8086C7.07535 17.7562 8.82325 19.5313 10.0469 21.0625C10.2798 21.354 10.6397 21.5 11 21.5" stroke="currentColor" stroke-width="2" stroke-linecap="round" stroke-linejoin="round" />
</svg>