<svg xmlns="http://www.w3.org/2000/svg" width="24" height="24" viewBox="0 0 24 24" fill="none">
    <path d="M7.99609 3.5C7.99609 9.1626 7.99609 12.3374 7.99609 18M14.9961 20V6.00001" stroke="currentColor" stroke-width="2" stroke-linecap="round" stroke-linejoin="round" />
    <path opacity="0.4" fill-rule="evenodd" clip-rule="evenodd" d="M7.99609 18.1397V3.40942C7.11861 3.43869 6.30242 3.84678 4.67742 4.65928L4.20724 4.89437C3.13141 5.43229 2.59349 5.70125 2.29479 6.18455C1.99609 6.66785 1.99609 7.26926 1.99609 8.47208V15.8377C1.99609 17.737 1.99609 18.6867 2.61903 19.1357C3.24196 19.5847 4.14291 19.2843 5.94478 18.6837L6.55334 18.4809C7.2666 18.2431 7.62904 18.1245 7.99609 18.1397C7.99803 18.1398 7.99416 18.1397 7.99609 18.1397ZM14.9961 20.6481V5.82401C15.4066 5.82401 15.795 5.65756 16.5718 5.32465L17.8143 4.79212C19.7032 3.98263 20.6476 3.57788 21.3218 4.02249C21.9961 4.4671 21.9961 5.49458 21.9961 7.54956V15.3624C21.9961 16.6416 21.9961 17.2812 21.6658 17.7821C21.3355 18.2831 20.7476 18.535 19.5718 19.0389L18.1474 19.6494C16.5939 20.3152 15.8171 20.6481 14.9961 20.6481Z" fill="currentColor" />
    <path d="M1.99609 15.8671V8.39062C1.99609 7.16968 1.99609 6.55922 2.29479 6.06863C2.59349 5.57805 3.13141 5.30504 4.20724 4.75902L4.67742 4.52039C6.30984 3.69189 7.12605 3.27764 8.00812 3.25133C8.89019 3.22502 9.72895 3.5899 11.4065 4.31967L13.4204 5.19579C14.1972 5.5337 14.5856 5.70266 14.9961 5.70266C15.4066 5.70266 15.795 5.5337 16.5718 5.19579L17.8143 4.65524C19.7032 3.83355 20.6476 3.42271 21.3218 3.87401C21.9961 4.32531 21.9961 5.36828 21.9961 7.4542V15.3847C21.9961 16.6832 21.9961 17.3324 21.6658 17.8409C21.3355 18.3494 20.7476 18.6051 19.5718 19.1166L18.1474 19.7362C16.5939 20.4121 15.8171 20.75 14.9961 20.75C14.1751 20.75 13.3983 20.4121 11.8447 19.7362L9.39393 18.6701C8.70287 18.3695 8.35734 18.2191 7.99029 18.2036C7.62324 18.1881 7.2666 18.3088 6.55334 18.5501L5.94478 18.7561C4.14291 19.3657 3.24196 19.6706 2.61903 19.2148C1.99609 18.7591 1.99609 17.7951 1.99609 15.8671Z" stroke="currentColor" stroke-width="2" stroke-linecap="round" stroke-linejoin="round" />
</svg>