<svg xmlns="http://www.w3.org/2000/svg" width="24" height="24" viewBox="0 0 24 24" fill="none">
    <path opacity="0.4" fill-rule="evenodd" clip-rule="evenodd" d="M20.1078 20.1088C19.4266 20.79 18.5421 21.1376 17.2909 21.3151L2.6875 6.68359C2.9337 5.88322 3.51893 4.20424 3.8903 3.89124C5.28154 2.5 7.52071 2.5 11.9991 2.5C16.4774 2.5 18.7166 2.5 20.1078 3.89124C21.4991 5.28249 21.4991 7.52166 21.4991 12C21.4991 16.4783 21.4991 18.7175 20.1078 20.1088ZM14.4991 14C14.7337 14 14.9591 13.9092 15.1277 13.7468C15.2455 13.6334 15.3662 13.5188 15.4884 13.403C16.9721 11.9957 18.6636 10.3913 17.7323 8.15187C17.1866 6.83966 15.8767 6 14.4991 6C13.1215 6 11.8116 6.83966 11.2659 8.15187C10.3383 10.3823 12.0112 11.9747 13.4869 13.3795C13.6169 13.5033 13.7454 13.6256 13.8705 13.7468C14.0391 13.9092 14.2645 14 14.4991 14Z" fill="currentColor" />
    <path d="M2.5 12C2.5 7.52166 2.5 5.28249 3.89124 3.89124C5.28249 2.5 7.52166 2.5 12 2.5C16.4783 2.5 18.7175 2.5 20.1088 3.89124C21.5 5.28249 21.5 7.52166 21.5 12C21.5 16.4783 21.5 18.7175 20.1088 20.1088C18.7175 21.5 16.4783 21.5 12 21.5C7.52166 21.5 5.28249 21.5 3.89124 20.1088C2.5 18.7175 2.5 16.4783 2.5 12Z" stroke="currentColor" stroke-width="2" />
    <path d="M16 21L3 8" stroke="currentColor" stroke-width="2" stroke-linecap="round" stroke-linejoin="round" />
    <path d="M9.5 14.5L4 20" stroke="currentColor" stroke-width="2" stroke-linecap="round" stroke-linejoin="round" />
    <path d="M14.5 6C12.7051 6 11.25 7.44714 11.25 9.23228C11.25 10.253 11.6562 11.0467 12.4688 11.7556C13.0414 12.2553 14.0834 13.3272 14.5 14C14.9376 13.3406 15.9586 12.2553 16.5312 11.7556C17.3438 11.0467 17.75 10.253 17.75 9.23228C17.75 7.44714 16.2949 6 14.5 6Z" stroke="currentColor" stroke-width="2" stroke-linecap="round" stroke-linejoin="round" />
    <path d="M14.625 9.25H14.5M14.75 9.25C14.75 9.38807 14.6381 9.5 14.5 9.5C14.3619 9.5 14.25 9.38807 14.25 9.25C14.25 9.11193 14.3619 9 14.5 9C14.6381 9 14.75 9.11193 14.75 9.25Z" stroke="currentColor" stroke-width="2" stroke-linecap="round" stroke-linejoin="round" />
</svg>