<svg xmlns="http://www.w3.org/2000/svg" width="24" height="24" viewBox="0 0 24 24" fill="none">
    <path opacity="0.4" fill-rule="evenodd" clip-rule="evenodd" d="M12.0005 2C17.5233 2.00001 22.0005 6.47716 22.0005 12C22.0005 16.3271 19.2521 20.0124 15.4058 21.4053L2.59523 8.59473C3.98812 4.74838 7.67337 2 12.0005 2ZM13.4995 6C12.122 6.00003 10.8118 6.84016 10.2661 8.15234C9.25737 10.579 11.3264 12.2508 12.8706 13.7471C13.0392 13.9095 13.265 14 13.4995 14C13.7341 14 13.9598 13.9095 14.1284 13.7471C15.6765 12.2559 17.7405 10.5759 16.7329 8.15234C16.1872 6.84014 14.8771 6 13.4995 6Z" fill="currentColor" />
    <path d="M14.1282 13.7468C13.9596 13.9092 13.7342 14 13.4996 14C13.265 14 13.0396 13.9092 12.871 13.7468C11.3267 12.2504 9.25712 10.5788 10.2664 8.15187C10.8121 6.83966 12.122 6 13.4996 6C14.8772 6 16.1871 6.83966 16.7328 8.15187C17.7408 10.5757 15.6763 12.2555 14.1282 13.7468Z" stroke="currentColor" stroke-width="2" stroke-linecap="round" stroke-linejoin="round" />
    <path d="M13.6245 9.5H13.4995M13.7495 9.5C13.7495 9.63807 13.6376 9.75 13.4995 9.75C13.3615 9.75 13.2495 9.63807 13.2495 9.5C13.2495 9.36193 13.3615 9.25 13.4995 9.25C13.6376 9.25 13.7495 9.36193 13.7495 9.5Z" stroke="currentColor" stroke-width="2" stroke-linecap="round" stroke-linejoin="round" />
    <path d="M21.9995 12C21.9995 17.5228 17.5224 22 11.9995 22C6.47668 22 1.99953 17.5228 1.99953 12C1.99953 6.47715 6.47668 2 11.9995 2C17.5224 2 21.9995 6.47715 21.9995 12Z" stroke="currentColor" stroke-width="2" stroke-linecap="round" stroke-linejoin="round" />
    <path d="M8.99953 15L4.99953 19M14.9995 21L2.99953 9" stroke="currentColor" stroke-width="2" stroke-linecap="round" stroke-linejoin="round" />
</svg>