<svg xmlns="http://www.w3.org/2000/svg" width="24" height="24" viewBox="0 0 24 24" fill="none">
    <path opacity="0.4" d="M12 2.99997C13.7349 2.99997 15.1843 3.18471 16.3916 3.52145C16.1436 3.95808 16 4.46193 16 4.99997C16 6.65682 17.3431 7.99997 19 7.99997C19.8063 7.99997 20.5361 7.67961 21.0752 7.16208C21.7573 8.55953 22 10.2186 22 12C22 16.9705 19.1328 21 12 21C10.4991 21 9.20709 20.8529 8.09863 20.581C7.50717 20.436 6.88268 20.615 6.39258 20.9765C5.70229 21.4857 4.61547 22 3 22C3.9925 21.3333 4.6331 19.4999 3.37207 17.5C2.3708 15.979 2 14.0712 2 12C2 7.02941 4.13281 2.99997 12 2.99997Z" fill="currentColor" />
    <path d="M22 5C22 6.65685 20.6569 8 19 8C17.3431 8 16 6.65685 16 5C16 3.34315 17.3431 2 19 2C20.6569 2 22 3.34315 22 5Z" stroke="currentColor" stroke-width="2" />
    <path d="M13 3.02145C12.6777 3.00723 12.3445 3 12 3C4.13281 3 2 7.02944 2 12C2 14.0712 2.37034 15.9791 3.37161 17.5C4.63281 19.5 3.99253 21.3333 3 22C4.61547 22 5.70211 21.4858 6.39239 20.9766C6.88252 20.615 7.50688 20.4364 8.0984 20.5815C9.20689 20.8533 10.4991 21 12 21C19.1328 21 22 16.9706 22 12C22 11.662 21.9914 11.3283 21.9727 11" stroke="currentColor" stroke-width="2" stroke-linecap="round" stroke-linejoin="round" />
    <path d="M12.1248 12H11.9998M16.125 12H16M8.125 12H8M12.2498 12C12.2498 12.1381 12.1379 12.25 11.9998 12.25C11.8618 12.25 11.7498 12.1381 11.7498 12C11.7498 11.8619 11.8618 11.75 11.9998 11.75C12.1379 11.75 12.2498 11.8619 12.2498 12ZM16.25 12C16.25 12.1381 16.1381 12.25 16 12.25C15.8619 12.25 15.75 12.1381 15.75 12C15.75 11.8619 15.8619 11.75 16 11.75C16.1381 11.75 16.25 11.8619 16.25 12ZM8.25 12C8.25 12.1381 8.13807 12.25 8 12.25C7.86193 12.25 7.75 12.1381 7.75 12C7.75 11.8619 7.86193 11.75 8 11.75C8.13807 11.75 8.25 11.8619 8.25 12Z" stroke="currentColor" stroke-width="2" stroke-linecap="round" stroke-linejoin="round" />
</svg>