<svg xmlns="http://www.w3.org/2000/svg" width="24" height="24" viewBox="0 0 24 24" fill="none">
    <path opacity="0.4" d="M21.4961 12C21.4961 17.2467 17.2428 21.5 11.9961 21.5C10.368 21.5 8.83549 21.0904 7.49609 20.3687C5.62786 19.362 4.37071 20.2979 3.26202 20.4658C3.09383 20.4913 2.92634 20.4302 2.80606 20.31C2.6235 20.1274 2.58875 19.8451 2.6896 19.6074C3.12475 18.5818 3.5243 16.6382 2.9795 15C2.6659 14.057 2.49609 13.0483 2.49609 12C2.49609 6.75329 6.74939 2.5 11.9961 2.5C17.2428 2.5 21.4961 6.75329 21.4961 12Z" fill="currentColor" />
    <path d="M7.49495 20.3687C5.62672 19.362 4.36956 20.2979 3.26087 20.4658C3.09268 20.4913 2.92519 20.4302 2.80491 20.31C2.62235 20.1274 2.58761 19.8451 2.68845 19.6074C3.1236 18.5818 3.52315 16.6382 2.97835 15" stroke="currentColor" stroke-width="2" stroke-linecap="round" stroke-linejoin="round" />
    <path d="M2.54688 11C3.04657 6.22333 7.08591 2.5 11.9949 2.5C17.2416 2.5 21.4949 6.75329 21.4949 12C21.4949 17.2467 17.2416 21.5 11.9949 21.5" stroke="currentColor" stroke-width="2" stroke-linecap="round" stroke-linejoin="round" stroke-dasharray="3 3" />
</svg>