<svg xmlns="http://www.w3.org/2000/svg" width="24" height="24" viewBox="0 0 24 24" fill="none">
    <path d="M12.0001 2.66699C4.13287 2.66699 2.00006 6.69643 2.00006 11.667C2.00006 13.7382 2.3704 15.646 3.37167 17.167C4.63287 19.167 3.99259 21.0003 3.00006 21.667C4.61553 21.667 5.70217 21.1528 6.39246 20.6436C6.88258 20.282 7.50694 20.1034 8.09846 20.2485C9.20695 20.5203 10.4991 20.667 12.0001 20.667C18.6478 20.667 21.6306 17.1669 22.0001 12.667" stroke="currentColor" stroke-width="2" stroke-linecap="round" stroke-linejoin="round" />
    <path d="M12.1249 11.667H11.9999M8.12506 11.667H8.00006M12.2499 11.667C12.2499 11.8051 12.138 11.917 11.9999 11.917C11.8618 11.917 11.7499 11.8051 11.7499 11.667C11.7499 11.5289 11.8618 11.417 11.9999 11.417C12.138 11.417 12.2499 11.5289 12.2499 11.667ZM8.25006 11.667C8.25006 11.8051 8.13813 11.917 8.00006 11.917C7.86199 11.917 7.75006 11.8051 7.75006 11.667C7.75006 11.5289 7.86199 11.417 8.00006 11.417C8.13813 11.417 8.25006 11.5289 8.25006 11.667Z" stroke="currentColor" stroke-width="2" stroke-linecap="round" stroke-linejoin="round" />
    <path d="M16.5001 5.16699H20.5001M16.5001 5.16699V3.66699C16.5001 2.56242 17.3955 1.66699 18.5001 1.66699C19.6046 1.66699 20.5001 2.56242 20.5001 3.66699V5.16699M16.5001 5.16699C15.6716 5.16699 15.0001 5.83856 15.0001 6.66699V8.16699C15.0001 8.99542 15.6716 9.66699 16.5001 9.66699H20.5001C21.3285 9.66699 22.0001 8.99542 22.0001 8.16699V6.66699C22.0001 5.83857 21.3285 5.16699 20.5001 5.16699" stroke="currentColor" stroke-width="2" stroke-linecap="round" stroke-linejoin="round" />
    <path opacity="0.4" d="M12.0001 2.66699C13.8105 2.66699 15.31 2.86812 16.5479 3.2334C16.517 3.37306 16.5001 3.51805 16.5001 3.66699V5.16699C15.6716 5.16699 15.0001 5.83856 15.0001 6.66699V8.16699C15.0001 8.99542 15.6716 9.66699 16.5001 9.66699H20.5001C21.0352 9.66699 21.5031 9.38561 21.7686 8.96387C21.9326 9.81713 22.0001 10.7251 22.0001 11.667C22.0001 16.6376 19.1329 20.667 12.0001 20.667C10.4992 20.667 9.20715 20.5199 8.09869 20.248C7.50723 20.103 6.88274 20.2821 6.39264 20.6436C5.70236 21.1528 4.61553 21.667 3.00006 21.667C3.99256 21.0003 4.63316 19.1669 3.37213 17.167C2.37086 15.646 2.00006 13.7382 2.00006 11.667C2.00006 6.69643 4.13287 2.66699 12.0001 2.66699Z" fill="currentColor" />
</svg>