<svg xmlns="http://www.w3.org/2000/svg" width="24" height="24" viewBox="0 0 24 24" fill="none">
    <path opacity="0.4" d="M12 3C13.8104 3 15.3099 3.20113 16.5479 3.56641C16.517 3.70606 16.5 3.85105 16.5 4V5.5C15.6716 5.5 15 6.17157 15 7V8.5C15 9.32843 15.6716 10 16.5 10H20.5C21.0352 10 21.5031 9.71862 21.7686 9.29688C21.9326 10.1501 22 11.0581 22 12C22 16.9706 19.1328 21 12 21C10.4991 21 9.20709 20.8529 8.09863 20.5811C7.50717 20.436 6.88268 20.6151 6.39258 20.9766C5.70229 21.4858 4.61547 22 3 22C3.9925 21.3334 4.6331 19.4999 3.37207 17.5C2.3708 15.9791 2 14.0712 2 12C2 7.02944 4.13281 3 12 3Z" fill="currentColor" />
    <path d="M12 3C4.13281 3 2 7.02944 2 12C2 14.0712 2.37034 15.9791 3.37161 17.5C4.63281 19.5 3.99253 21.3333 3 22C4.61547 22 5.70211 21.4858 6.39239 20.9766C6.88252 20.615 7.50688 20.4364 8.0984 20.5815C9.20689 20.8533 10.4991 21 12 21C18.6478 21 21.6305 17.5 22 13" stroke="currentColor" stroke-width="2" stroke-linecap="round" stroke-linejoin="round" />
    <path d="M12.1248 12H11.9998M8.125 12H8M12.2498 12C12.2498 12.1381 12.1379 12.25 11.9998 12.25C11.8618 12.25 11.7498 12.1381 11.7498 12C11.7498 11.8619 11.8618 11.75 11.9998 11.75C12.1379 11.75 12.2498 11.8619 12.2498 12ZM8.25 12C8.25 12.1381 8.13807 12.25 8 12.25C7.86193 12.25 7.75 12.1381 7.75 12C7.75 11.8619 7.86193 11.75 8 11.75C8.13807 11.75 8.25 11.8619 8.25 12Z" stroke="currentColor" stroke-width="2" stroke-linecap="round" stroke-linejoin="round" />
    <path d="M16.5 5.5H20.5C21.3284 5.5 22 6.17157 22 7V8.5C22 9.32843 21.3284 10 20.5 10H16.5C15.6716 10 15 9.32843 15 8.5V7C15 6.17157 15.6716 5.5 16.5 5.5ZM16.5 5.5V4C16.5 2.89543 17.3954 2 18.5 2C19.0523 2 19.5523 2.22386 19.9142 2.58579" stroke="currentColor" stroke-width="2" stroke-linecap="round" stroke-linejoin="round" />
</svg>