<svg xmlns="http://www.w3.org/2000/svg" width="24" height="24" viewBox="0 0 24 24" fill="none">
    <path opacity="0.4" d="M12 2.99976C12.9387 2.99976 13.7937 3.05534 14.5723 3.15796C13.9493 3.66279 13.4809 4.22221 13.2051 4.59058C13.0683 4.77319 13 4.86456 13 4.99976C13 5.13495 13.0683 5.22632 13.2051 5.40894C13.8198 6.22988 15.3899 7.99976 17.5 7.99976C18.8334 7.99976 19.9498 7.2916 20.7471 6.56421C21.6829 8.07463 22 9.95718 22 11.9998C22 16.9703 19.1328 20.9998 12 20.9998C10.4991 20.9998 9.20709 20.8527 8.09863 20.5808C7.50717 20.4357 6.88268 20.6148 6.39258 20.9763C5.70229 21.4855 4.61547 21.9998 3 21.9998C3.9925 21.3331 4.6331 19.4997 3.37207 17.4998C2.3708 15.9788 2 14.071 2 11.9998C2 7.02919 4.13281 2.99976 12 2.99976Z" fill="currentColor" />
    <path d="M21.8444 9.73728C21.9538 10.4604 22 11.2188 22 12.0005C22 16.971 19.1328 21.0005 12 21.0005C10.4991 21.0005 9.20689 20.8538 8.0984 20.5819C7.50688 20.4368 6.88252 20.6155 6.39239 20.9771C5.70211 21.4863 4.61547 22.0005 3 22.0005C3.99253 21.3338 4.63281 19.5005 3.37161 17.5005C2.37034 15.9795 2 14.0717 2 12.0005C2 7.48029 3.76381 3.73841 10 3.09741" stroke="currentColor" stroke-width="2" stroke-linecap="round" stroke-linejoin="round" />
    <path d="M12.1248 11.9998H11.9998M16.125 11.9998H16M8.125 11.9998H8M12.2498 11.9998C12.2498 12.1378 12.1379 12.2498 11.9998 12.2498C11.8618 12.2498 11.7498 12.1378 11.7498 11.9998C11.7498 11.8617 11.8618 11.7498 11.9998 11.7498C12.1379 11.7498 12.2498 11.8617 12.2498 11.9998ZM16.25 11.9998C16.25 12.1378 16.1381 12.2498 16 12.2498C15.8619 12.2498 15.75 12.1378 15.75 11.9998C15.75 11.8617 15.8619 11.7498 16 11.7498C16.1381 11.7498 16.25 11.8617 16.25 11.9998ZM8.25 11.9998C8.25 12.1378 8.13807 12.2498 8 12.2498C7.86193 12.2498 7.75 12.1378 7.75 11.9998C7.75 11.8617 7.86193 11.7498 8 11.7498C8.13807 11.7498 8.25 11.8617 8.25 11.9998Z" stroke="currentColor" stroke-width="2" stroke-linecap="round" stroke-linejoin="round" />
    <path d="M17.625 4.99976H17.5M17.75 4.99976C17.75 5.13783 17.6381 5.24976 17.5 5.24976C17.3619 5.24976 17.25 5.13783 17.25 4.99976C17.25 4.86169 17.3619 4.74976 17.5 4.74976C17.6381 4.74976 17.75 4.86169 17.75 4.99976Z" stroke="currentColor" stroke-width="2" stroke-linecap="round" stroke-linejoin="round" />
    <path d="M21.7948 4.59046C21.9316 4.77317 22 4.86453 22 4.99976C22 5.13499 21.9316 5.22634 21.7948 5.40905C21.1801 6.23 19.6101 7.99976 17.5 7.99976C15.3899 7.99976 13.8199 6.23 13.2052 5.40905C13.0684 5.22634 13 5.13499 13 4.99976C13 4.86453 13.0684 4.77317 13.2052 4.59046C13.8199 3.76952 15.3899 1.99976 17.5 1.99976C19.6101 1.99976 21.1801 3.76952 21.7948 4.59046Z" stroke="currentColor" stroke-width="2" stroke-linecap="round" stroke-linejoin="round" />
</svg>