<svg xmlns="http://www.w3.org/2000/svg" width="24" height="24" viewBox="0 0 24 24" fill="none">
    <path d="M21.4961 12C21.4961 17.2467 17.2428 21.5 11.9961 21.5C10.368 21.5 8.83549 21.0904 7.49609 20.3687C5.62786 19.362 4.37071 20.2979 3.26202 20.4658C3.09383 20.4913 2.92634 20.4302 2.80606 20.31C2.6235 20.1274 2.58875 19.8451 2.6896 19.6074C3.12475 18.5818 3.5243 16.6382 2.9795 15C2.6659 14.057 2.49609 13.0483 2.49609 12C2.49609 6.75329 6.74939 2.5 11.9961 2.5C17.2428 2.5 21.4961 6.75329 21.4961 12Z" stroke="currentColor" stroke-width="2" stroke-linecap="round" stroke-linejoin="round" />
    <path d="M11.9961 15.9995C11.9961 15.9995 7.99609 13.5289 7.99609 11.1384C7.99609 9.95712 8.8382 8.99951 9.99609 8.99951C10.5961 8.99951 11.1961 9.20539 11.9961 10.0289C12.7961 9.20539 13.3961 8.99951 13.9961 8.99951C15.154 8.99951 15.9961 9.95712 15.9961 11.1384C15.9961 13.5289 11.9961 15.9995 11.9961 15.9995Z" stroke="currentColor" stroke-width="2" stroke-linecap="round" stroke-linejoin="round" />
    <path opacity="0.4" d="M11.9961 2.5C17.2428 2.5 21.4961 6.75329 21.4961 12C21.4961 17.2467 17.2428 21.5 11.9961 21.5C10.368 21.5 8.83545 21.0908 7.49609 20.3691C5.62786 19.3624 4.37041 20.298 3.26172 20.4658C3.09363 20.4912 2.92587 20.4298 2.80566 20.3096C2.62347 20.127 2.58872 19.8449 2.68945 19.6074C3.1246 18.5819 3.52429 16.6382 2.97949 15C2.66589 14.057 2.49609 13.0483 2.49609 12C2.49609 6.75329 6.74939 2.5 11.9961 2.5ZM13.9961 9C13.3961 9 12.7961 9.20577 11.9961 10.0293C11.1961 9.20577 10.5961 9 9.99609 9C8.8382 9 7.99609 9.9574 7.99609 11.1387C7.9964 13.5291 11.9961 16 11.9961 16C11.9961 16 15.9958 13.5291 15.9961 11.1387C15.9961 9.9574 15.154 9 13.9961 9Z" fill="currentColor" />
</svg>