<svg xmlns="http://www.w3.org/2000/svg" width="24" height="24" viewBox="0 0 24 24" fill="none">
    <path opacity="0.4" fill-rule="evenodd" clip-rule="evenodd" d="M16 3C18.8284 3 20.2424 3.00023 21.1211 3.87891C21.9998 4.75759 22 6.17157 22 9V11C22 13.8284 21.9998 15.2424 21.1211 16.1211C20.2424 16.9998 18.8284 17 16 17H8C5.17157 17 3.75759 16.9998 2.87891 16.1211C2.00023 15.2424 2 13.8284 2 11V9C2 6.17157 2.00023 4.75759 2.87891 3.87891C3.75759 3.00023 5.17157 3 8 3H16ZM12 7C11.0681 7 10.6019 7.0001 10.2344 7.15234C9.74452 7.35533 9.35533 7.74452 9.15234 8.23438C9.0001 8.60192 9 9.06812 9 10C9 10.9319 9.0001 11.3981 9.15234 11.7656C9.35533 12.2555 9.74452 12.6447 10.2344 12.8477C10.6019 12.9999 11.0681 13 12 13C12.9319 13 13.3981 12.9999 13.7656 12.8477C14.2555 12.6447 14.6447 12.2555 14.8477 11.7656C14.9999 11.3981 15 10.9319 15 10C15 9.06812 14.9999 8.60192 14.8477 8.23438C14.6447 7.74452 14.2555 7.35533 13.7656 7.15234C13.3981 7.0001 12.9319 7 12 7Z" fill="currentColor" />
    <path d="M16 3H8C5.17157 3 3.75736 3 2.87868 3.87868C2 4.75736 2 6.17157 2 9V11C2 13.8284 2 15.2426 2.87868 16.1213C3.75736 17 5.17157 17 8 17H16C18.8284 17 20.2426 17 21.1213 16.1213C22 15.2426 22 13.8284 22 11V9C22 6.17157 22 4.75736 21.1213 3.87868C20.2426 3 18.8284 3 16 3Z" stroke="currentColor" stroke-width="2" stroke-linecap="round" stroke-linejoin="round" />
    <path d="M14 21H16M14 21C13.1716 21 12.5 20.3284 12.5 19.5V17L12 17M14 21H10M10 21H8M10 21C10.8284 21 11.5 20.3284 11.5 19.5V17L12 17M12 17V21" stroke="currentColor" stroke-width="2" stroke-linecap="round" stroke-linejoin="round" />
    <path d="M14.8478 11.7654C15 11.3978 15 10.9319 15 10C15 9.06812 15 8.60218 14.8478 8.23463C14.6448 7.74458 14.2554 7.35523 13.7654 7.15224C13.3978 7 12.9319 7 12 7C11.0681 7 10.6022 7 10.2346 7.15224C9.74458 7.35523 9.35523 7.74458 9.15224 8.23463C9 8.60218 9 9.06812 9 10C9 10.9319 9 11.3978 9.15224 11.7654C9.35523 12.2554 9.74458 12.6448 10.2346 12.8478C10.6022 13 11.0681 13 12 13C12.9319 13 13.3978 13 13.7654 12.8478C14.2554 12.6448 14.6448 12.2554 14.8478 11.7654Z" stroke="currentColor" stroke-width="2" stroke-linecap="round" stroke-linejoin="round" />
</svg>