<svg xmlns="http://www.w3.org/2000/svg" width="24" height="24" viewBox="0 0 24 24" fill="none">
    <path opacity="0.4" d="M13.9965 13.9961C13.6217 14.3709 13.4742 14.9116 13.1793 15.993C12.1888 19.6248 11.6936 21.4406 10.6135 21.4983C9.5335 21.556 8.85263 19.816 7.4909 16.336L7.2583 15.7416L15.7421 7.25781L16.3365 7.49041C19.8165 8.85214 21.5565 9.53301 21.4988 10.613C21.4411 11.6931 19.6252 12.1883 15.9935 13.1788C14.9121 13.4737 14.3714 13.6212 13.9965 13.9961Z" fill="currentColor" />
    <path d="M15.7419 7.25809L16.3363 7.49069C19.8163 8.85243 21.5563 9.53329 21.4986 10.6133C21.4409 11.6934 19.625 12.1886 15.9933 13.1791C14.9119 13.474 14.3712 13.6215 13.9963 13.9963C13.6215 14.3712 13.474 14.9119 13.1791 15.9933C12.1886 19.625 11.6934 21.4409 10.6133 21.4986C9.53329 21.5563 8.85243 19.8163 7.49069 16.3363L7.25809 15.7419M5.85184 12.1482L5.12973 10.3028C3.70405 6.65934 2.99121 4.83764 3.91442 3.91442C4.83764 2.99121 6.65934 3.70405 10.3028 5.12973L12.1482 5.85184" stroke="currentColor" stroke-width="2" stroke-linecap="round" stroke-linejoin="round" />
    <path d="M20.5 2.5L2.5 20.5" stroke="currentColor" stroke-width="2" stroke-linecap="round" stroke-linejoin="round" />
</svg>