<svg xmlns="http://www.w3.org/2000/svg" width="24" height="24" viewBox="0 0 24 24" fill="none">
    <path opacity="0.4" d="M4.65978 12.0107C4.66567 12.4248 5.00619 12.7558 5.42036 12.7499C5.83454 12.744 6.16552 12.4035 6.15963 11.9893L5.40971 12L4.65978 12.0107ZM5.40971 5.41409L5.94003 5.94443L5.94003 5.94443L5.40971 5.41409ZM11.9849 6.16401C12.3991 6.16989 12.7396 5.83891 12.7455 5.42474C12.7514 5.01057 12.4204 4.67004 12.0063 4.66416L11.9956 5.41408L11.9849 6.16401ZM18.4663 19.5303C18.7592 19.8232 19.2341 19.8232 19.527 19.5303C19.8198 19.2374 19.8198 18.7626 19.527 18.4697L18.9966 19L18.4663 19.5303ZM6.52695 5.46967C6.23406 5.17678 5.75918 5.17678 5.46629 5.46967C5.1734 5.76256 5.1734 6.23744 5.46629 6.53033L5.99662 6L6.52695 5.46967ZM5.40971 12L6.15963 11.9893C6.15427 11.6119 6.08768 11.0471 6.01677 10.457C5.94328 9.84544 5.85937 9.16518 5.80429 8.49857C5.74885 7.82769 5.72578 7.20432 5.76558 6.70739C5.78545 6.45933 5.81934 6.26605 5.86195 6.12536C5.90651 5.97821 5.94549 5.93897 5.94003 5.94443L5.40971 5.41409L4.8794 4.88374C4.64335 5.11978 4.50881 5.41823 4.42633 5.69064C4.34188 5.9695 4.2952 6.27765 4.27037 6.58764C4.22078 7.2068 4.25186 7.92597 4.30938 8.6221C4.36726 9.3225 4.45511 10.0337 4.52749 10.636C4.60244 11.2598 4.65581 11.7313 4.65978 12.0107L5.40971 12ZM5.40971 5.41409L5.94003 5.94443C5.93458 5.94988 5.97383 5.9109 6.12099 5.86634C6.26168 5.82374 6.45496 5.78984 6.70302 5.76998C7.19995 5.73018 7.82332 5.75325 8.4942 5.80868C9.1608 5.86376 9.84105 5.94767 10.4526 6.02116C11.0427 6.09206 11.6075 6.15864 11.9849 6.16401L11.9956 5.41408L12.0063 4.66416C11.7269 4.66019 11.2554 4.60682 10.6316 4.53187C10.0293 4.4595 9.31811 4.37165 8.61772 4.31377C7.9216 4.25626 7.20243 4.22518 6.58328 4.27476C6.27329 4.29959 5.96515 4.34627 5.68628 4.43071C5.41388 4.51319 5.11543 4.64772 4.87939 4.88375L5.40971 5.41409ZM18.9966 19L19.527 18.4697L6.52695 5.46967L5.99662 6L5.46629 6.53033L18.4663 19.5303L18.9966 19Z" fill="currentColor" />
</svg>