<svg xmlns="http://www.w3.org/2000/svg" width="24" height="24" viewBox="0 0 24 24" fill="none">
    <path opacity="0.4" d="M11.2462 19.9999C11.2462 20.4141 11.582 20.7499 11.9962 20.7499C12.4104 20.7499 12.7462 20.4141 12.7462 19.9999H11.9962H11.2462ZM12.7462 4.49992C12.7462 4.0857 12.4104 3.74992 11.9962 3.74992C11.582 3.74992 11.2462 4.0857 11.2462 4.49992H11.9962H12.7462ZM6.4581 8.47726C6.1694 8.77428 6.17614 9.24911 6.47317 9.53781C6.77019 9.82651 7.24502 9.81977 7.53372 9.52274L6.99591 9L6.4581 8.47726ZM11.9959 4L11.9959 4.75H11.9959L11.9959 4ZM16.4581 9.52273C16.7468 9.81975 17.2216 9.8265 17.5187 9.5378C17.8157 9.2491 17.8224 8.77427 17.5337 8.47724L16.9959 8.99999L16.4581 9.52273ZM11.9962 19.9999H12.7462V4.49992H11.9962H11.2462V19.9999H11.9962ZM6.99591 9L7.53372 9.52274C7.81366 9.23473 8.18982 8.75815 8.58476 8.25534C8.99307 7.7355 9.44652 7.15443 9.91159 6.60557C10.3794 6.05345 10.8375 5.55996 11.2484 5.20998C11.4535 5.03526 11.6293 4.9116 11.7732 4.83462C11.8438 4.79681 11.8989 4.77454 11.9391 4.76225C11.9793 4.74997 11.9968 4.75 11.9959 4.75L11.9959 4L11.9959 3.25C11.6501 3.24999 11.3306 3.37017 11.0654 3.51208C10.7943 3.65718 10.5282 3.85303 10.2758 4.06803C9.77153 4.49752 9.25141 5.06441 8.76719 5.63586C8.2802 6.21059 7.80766 6.81632 7.40513 7.3288C6.98923 7.8583 6.66968 8.25958 6.4581 8.47726L6.99591 9ZM11.9959 4L11.9959 4.75C11.995 4.75 12.0126 4.74997 12.0527 4.76225C12.0929 4.77455 12.148 4.79682 12.2186 4.83463C12.3625 4.91161 12.5383 5.03528 12.7434 5.21C13.1543 5.55999 13.6124 6.05346 14.0802 6.60559C14.5453 7.15444 14.9987 7.7355 15.4071 8.25533C15.802 8.75814 16.1782 9.23471 16.4581 9.52273L16.9959 8.99999L17.5337 8.47724C17.3221 8.25956 17.0026 7.85828 16.5867 7.32878C16.1842 6.81631 15.7116 6.21059 15.2246 5.63587C14.7404 5.06442 14.2203 4.49754 13.716 4.06806C13.4636 3.85305 13.1975 3.6572 12.9264 3.5121C12.6612 3.37019 12.3417 3.25001 11.9959 3.25L11.9959 4Z" fill="currentColor" />
</svg>