<svg xmlns="http://www.w3.org/2000/svg" width="24" height="24" viewBox="0 0 24 24" fill="none">
    <path opacity="0.4" d="M11.2453 20.5C11.2453 20.9142 11.5811 21.25 11.9953 21.25C12.4095 21.25 12.7453 20.9142 12.7453 20.5H11.9953H11.2453ZM12.7453 3.49999C12.7453 3.08578 12.4095 2.74999 11.9953 2.74999C11.5811 2.74999 11.2453 3.08578 11.2453 3.49999H11.9953H12.7453ZM7.4581 6.47726C7.1694 6.77428 7.17615 7.24911 7.47318 7.53781C7.7702 7.82651 8.24503 7.81977 8.53373 7.52274L7.99592 7L7.4581 6.47726ZM11.9959 3L11.9959 3.75H11.9959L11.9959 3ZM15.4581 7.52273C15.7468 7.81976 16.2216 7.8265 16.5187 7.5378C16.8157 7.2491 16.8224 6.77427 16.5337 6.47725L15.9959 6.99999L15.4581 7.52273ZM8.53311 16.4773C8.24441 16.1802 7.76958 16.1735 7.47256 16.4622C7.17553 16.7509 7.16879 17.2257 7.45749 17.5227L7.9953 17L8.53311 16.4773ZM11.9953 21L11.9953 20.25H11.9953L11.9953 21ZM16.5331 17.5227C16.8218 17.2257 16.8151 16.7509 16.518 16.4622C16.221 16.1735 15.7462 16.1802 15.4575 16.4773L15.9953 17L16.5331 17.5227ZM11.9953 20.5H12.7453V3.49999H11.9953H11.2453V20.5H11.9953ZM7.99592 7L8.53373 7.52274C8.76452 7.2853 9.0711 6.89651 9.38496 6.49693C9.71219 6.08032 10.073 5.61793 10.4429 5.18143C10.8155 4.74166 11.1758 4.35422 11.4952 4.08218C11.6546 3.94643 11.7862 3.85472 11.8885 3.79995C11.9968 3.74199 12.0266 3.75 11.9959 3.75L11.9959 3L11.9959 2.25C11.6851 2.24999 11.4045 2.35771 11.1808 2.47741C10.9511 2.6003 10.7293 2.7642 10.5226 2.94023C10.1098 3.29177 9.68752 3.75262 9.2985 4.21172C8.90671 4.67409 8.52678 5.16113 8.20533 5.57038C7.87051 5.99666 7.62053 6.31015 7.4581 6.47726L7.99592 7ZM11.9959 3L11.9959 3.75C11.9652 3.75 11.995 3.742 12.1033 3.79996C12.2057 3.85473 12.3373 3.94644 12.4967 4.0822C12.8161 4.35423 13.1763 4.74168 13.5489 5.18144C13.9188 5.61793 14.2796 6.08032 14.6069 6.49692C14.9207 6.8965 15.2273 7.28529 15.4581 7.52273L15.9959 6.99999L16.5337 6.47725C16.3713 6.31013 16.1213 5.99664 15.7865 5.57037C15.465 5.16113 15.0851 4.67409 14.6933 4.21173C14.3043 3.75263 13.882 3.29179 13.4693 2.94025C13.2626 2.76422 13.0407 2.60032 12.8111 2.47743C12.5874 2.35772 12.3067 2.25001 11.9959 2.25L11.9959 3ZM7.9953 17L7.45749 17.5227C7.61992 17.6898 7.8699 18.0033 8.20472 18.4296C8.52616 18.8389 8.9061 19.3259 9.29788 19.7883C9.6869 20.2474 10.1092 20.7082 10.522 21.0598C10.7286 21.2358 10.9505 21.3997 11.1802 21.5226C11.4038 21.6423 11.6845 21.75 11.9953 21.75L11.9953 21L11.9953 20.25C12.026 20.25 11.9962 20.258 11.8879 20.2C11.7855 20.1453 11.6539 20.0536 11.4946 19.9178C11.1752 19.6458 10.8149 19.2583 10.4423 18.8186C10.0724 18.3821 9.71157 17.9197 9.38434 17.5031C9.07049 17.1035 8.7639 16.7147 8.53311 16.4773L7.9953 17ZM11.9953 21L11.9953 21.75C12.3061 21.75 12.5868 21.6423 12.8105 21.5226C13.0401 21.3997 13.262 21.2358 13.4687 21.0597C13.8814 20.7082 14.3037 20.2474 14.6927 19.7883C15.0845 19.3259 15.4644 18.8389 15.7859 18.4296C16.1207 18.0033 16.3707 17.6899 16.5331 17.5227L15.9953 17L15.4575 16.4773C15.2267 16.7147 14.9201 17.1035 14.6063 17.5031C14.279 17.9197 13.9182 18.3821 13.5483 18.8186C13.1757 19.2583 12.8155 19.6458 12.4961 19.9178C12.3367 20.0535 12.2051 20.1453 12.1027 20.2C11.9944 20.258 11.9646 20.25 11.9953 20.25L11.9953 21Z" fill="currentColor" />
</svg>