<svg xmlns="http://www.w3.org/2000/svg" width="24" height="24" viewBox="0 0 24 24" fill="none">
    <path opacity="0.4" d="M20.5241 4.53033C20.817 4.23744 20.817 3.76256 20.5241 3.46967C20.2312 3.17678 19.7563 3.17678 19.4634 3.46967L19.9937 4L20.5241 4.53033ZM3.46342 19.4697C3.17052 19.7626 3.17052 20.2374 3.46341 20.5303C3.75631 20.8232 4.23118 20.8232 4.52408 20.5303L3.99375 20L3.46342 19.4697ZM14.9831 2.60502C14.5689 2.61091 14.2379 2.95143 14.2438 3.36561C14.2497 3.77978 14.5902 4.11076 15.0044 4.10487L14.9937 3.35495L14.9831 2.60502ZM20.6388 3.35495L20.1085 3.88527L20.1085 3.88527L20.6388 3.35495ZM19.8889 8.98934C19.883 9.40351 20.214 9.74404 20.6282 9.74992C21.0423 9.75581 21.3829 9.42483 21.3887 9.01066L20.6388 9L19.8889 8.98934ZM9.00126 21.395C9.41543 21.3891 9.74641 21.0486 9.74052 20.6344C9.73464 20.2202 9.39411 19.8892 8.97994 19.8951L8.9906 20.6451L9.00126 21.395ZM3.34553 20.6451L3.87587 20.1147L3.87587 20.1147L3.34553 20.6451ZM4.09546 15.0107C4.10134 14.5965 3.77036 14.256 3.35619 14.2501C2.94202 14.2442 2.60149 14.5752 2.59561 14.9893L3.34553 15L4.09546 15.0107ZM19.9937 4L19.4634 3.46967L3.46342 19.4697L3.99375 20L4.52408 20.5303L20.5241 4.53033L19.9937 4ZM14.9937 3.35495L15.0044 4.10487C15.3349 4.10018 15.8257 4.04216 16.3291 3.98167C16.854 3.9186 17.4348 3.84695 18.0038 3.79994C18.577 3.75257 19.1045 3.73337 19.5217 3.76678C19.7299 3.78346 19.8874 3.81159 19.9981 3.84512C20.1153 3.88061 20.1304 3.9072 20.1085 3.88527L20.6388 3.35495L21.1692 2.82463C20.9496 2.60506 20.6753 2.48291 20.4328 2.4095C20.1839 2.33413 19.9116 2.2932 19.6415 2.27157C19.102 2.22837 18.4787 2.25558 17.8803 2.30503C17.2775 2.35484 16.6657 2.43043 16.1501 2.49238C15.613 2.55692 15.2155 2.60172 14.9831 2.60502L14.9937 3.35495ZM20.6388 3.35495L20.1085 3.88527C20.0866 3.86334 20.1131 3.87847 20.1486 3.99566C20.1822 4.10639 20.2103 4.26385 20.227 4.47205C20.2604 4.88926 20.2412 5.41674 20.1938 5.98997C20.1468 6.55893 20.0752 7.13979 20.0121 7.66468C19.9516 8.16807 19.8936 8.65884 19.8889 8.98934L20.6388 9L21.3887 9.01066C21.392 8.77822 21.4368 8.38071 21.5014 7.84363C21.5633 7.32804 21.6389 6.71624 21.6887 6.11349C21.7382 5.51501 21.7654 4.89174 21.7222 4.35231C21.7005 4.08218 21.6596 3.80985 21.5843 3.56096C21.5108 3.31852 21.3887 3.04419 21.1692 2.82463L20.6388 3.35495ZM8.9906 20.6451L8.97994 19.8951C8.64944 19.8998 8.15866 19.9578 7.65527 20.0183C7.13039 20.0814 6.54951 20.153 5.98055 20.2001C5.40732 20.2474 4.87984 20.2666 4.46263 20.2332C4.25443 20.2165 4.09697 20.1884 3.98625 20.1549C3.86906 20.1194 3.85395 20.0928 3.87587 20.1147L3.34553 20.6451L2.81519 21.1754C3.03475 21.3949 3.30908 21.5171 3.55152 21.5905C3.80042 21.6659 4.07275 21.7068 4.34288 21.7284C4.88232 21.7716 5.5056 21.7444 6.10408 21.695C6.70684 21.6452 7.31864 21.5696 7.83423 21.5076C8.37132 21.4431 8.76883 21.3983 9.00126 21.395L8.9906 20.6451ZM3.34553 20.6451L3.87587 20.1147C3.89779 20.1367 3.8712 20.1215 3.83572 20.0043C3.80219 19.8936 3.77405 19.7361 3.75738 19.5279C3.72397 19.1107 3.74317 18.5833 3.79053 18.01C3.83755 17.4411 3.90919 16.8602 3.97226 16.3353C4.03274 15.8319 4.09076 15.3412 4.09546 15.0107L3.34553 15L2.59561 14.9893C2.5923 15.2218 2.5475 15.6193 2.48297 16.1564C2.42102 16.672 2.34543 17.2838 2.29563 17.8865C2.24618 18.485 2.21897 19.1083 2.26217 19.6477C2.2838 19.9178 2.32473 20.1901 2.40009 20.439C2.4735 20.6815 2.59563 20.9558 2.81519 21.1754L3.34553 20.6451Z" fill="currentColor" />
</svg>