<svg xmlns="http://www.w3.org/2000/svg" width="24" height="24" viewBox="0 0 24 24" fill="none">
    <circle opacity="0.4" cx="9.4964" cy="17" r="4" fill="currentColor" />
    <circle cx="9.4964" cy="17" r="4" stroke="currentColor" stroke-width="2" stroke-linecap="round" stroke-linejoin="round" />
    <path d="M14.2464 3C14.2464 2.58579 13.9106 2.25 13.4964 2.25C13.0822 2.25 12.7464 2.58579 12.7464 3H13.4964H14.2464ZM16.625 11.5356C16.3686 11.8608 16.4243 12.3324 16.7496 12.5889C17.0748 12.8454 17.5464 12.7897 17.8029 12.4644L17.214 12L16.625 11.5356ZM13.4964 3H12.7464C12.7464 4.29862 13.4176 5.20585 14.1932 5.8847C14.5762 6.21986 15.0004 6.5139 15.4014 6.78012C15.8167 7.0558 16.1906 7.2914 16.5426 7.54556C17.2593 8.06308 17.6368 8.4914 17.7252 8.97169C17.8115 9.44028 17.6639 10.2182 16.625 11.5356L17.214 12L17.8029 12.4644C18.9326 11.0318 19.4046 9.80972 19.2005 8.70019C18.9984 7.60235 18.1754 6.87442 17.4207 6.32944C17.0369 6.05235 16.6072 5.78013 16.2311 5.53042C15.8406 5.27126 15.4855 5.02232 15.1811 4.75593C14.5821 4.23165 14.2464 3.70138 14.2464 3H13.4964ZM13.4964 3H12.7464V17H13.4964H14.2464V3H13.4964Z" fill="currentColor" />
</svg>