<svg xmlns="http://www.w3.org/2000/svg" width="24" height="24" viewBox="0 0 24 24" fill="none">
    <path opacity="0.4" d="M11.9067 17.2028C11.464 17.2287 11.0738 17.4983 10.2936 18.0375L10.2936 18.0375C7.058 20.2735 5.4402 21.3915 4.56877 20.8752C4.45766 20.8094 4.35562 20.7302 4.26507 20.6396C3.55488 19.9288 4.33132 18.1581 5.88422 14.6167L8.54625 8.5459L19.9963 19.9959C19.9782 20.2687 19.8937 20.4806 19.735 20.6395C19.6444 20.7302 19.5423 20.8093 19.4312 20.8752C18.5598 21.3914 16.9421 20.2734 13.7066 18.0375L13.7066 18.0375C12.9263 17.4983 12.5362 17.2287 12.0934 17.2028C12.0312 17.1991 11.9689 17.1991 11.9067 17.2028Z" fill="currentColor" />
    <path d="M10.0879 5.08748C10.7594 3.69558 11.2753 2.99963 12 2.99963C13.0217 2.99964 13.6283 4.38296 14.8414 7.14958L16.9433 11.943M8.54625 8.54589L5.88422 14.6167C4.33132 18.1581 3.55488 19.9288 4.26507 20.6396C4.35562 20.7302 4.45766 20.8094 4.56877 20.8752C5.4402 21.3915 7.058 20.2735 10.2936 18.0375C11.0738 17.4983 11.464 17.2287 11.9067 17.2027C11.9689 17.1991 12.0312 17.1991 12.0934 17.2027C12.5362 17.2287 12.9263 17.4983 13.7066 18.0375C16.942 20.2734 18.5598 21.3914 19.4312 20.8752C19.5423 20.8093 19.6444 20.7301 19.735 20.6395C19.8937 20.4806 19.9782 20.2687 19.9963 19.9959" stroke="currentColor" stroke-width="2" stroke-linecap="round" stroke-linejoin="round" />
    <path d="M3 2.99963L21 20.9996" stroke="currentColor" stroke-width="2" stroke-linecap="round" stroke-linejoin="round" />
</svg>