<svg xmlns="http://www.w3.org/2000/svg" width="24" height="24" viewBox="0 0 24 24" fill="none">
    <path d="M20.4961 3.5L13.4961 10.5" stroke="currentColor" stroke-width="2" stroke-linecap="round" stroke-linejoin="round" />
    <path opacity="0.4" d="M2.99609 15C2.99609 11.6863 5.68239 9 8.99609 9C12.3098 9 14.9961 11.6863 14.9961 15C14.9961 18.3137 12.3098 21 8.99609 21C5.68239 21 2.99609 18.3137 2.99609 15Z" fill="currentColor" />
    <path d="M2.99609 15C2.99609 11.6863 5.68239 9 8.99609 9C12.3098 9 14.9961 11.6863 14.9961 15C14.9961 18.3137 12.3098 21 8.99609 21C5.68239 21 2.99609 18.3137 2.99609 15Z" stroke="currentColor" stroke-width="2" stroke-linecap="round" stroke-linejoin="round" />
    <path d="M16.9961 3L18.9961 9" stroke="currentColor" stroke-width="2" stroke-linecap="round" stroke-linejoin="round" />
    <path d="M14.9961 5L20.9961 7" stroke="currentColor" stroke-width="2" stroke-linecap="round" stroke-linejoin="round" />
</svg>