<svg xmlns="http://www.w3.org/2000/svg" width="24" height="24" viewBox="0 0 24 24" fill="none">
    <path opacity="0.4" fill-rule="evenodd" clip-rule="evenodd" d="M12.4961 2H12.9961C16.7673 2 18.6529 2 19.8245 3.17157C20.9961 4.34315 20.9961 6.22877 20.9961 10V14C20.9961 14.7466 20.9961 15.4193 20.987 16.0272C20.9508 15.7001 20.8068 15.3825 20.555 15.1317L19.8599 14.4393C19.2718 13.8536 18.3183 13.8536 17.7301 14.4393L14.042 18.1128C13.7555 18.3981 13.5624 18.7631 13.488 19.1598L13.0075 21.395C12.9398 21.7101 13.182 21.9937 13.4863 21.9999L12.9961 22H12.4961C8.72486 22 6.83924 22 5.66767 20.8284C4.49609 19.6569 4.49609 17.7712 4.49609 14V10C4.49609 6.22877 4.49609 4.34315 5.66767 3.17158C6.83924 2 8.72486 2 12.4961 2Z" fill="currentColor" />
    <path d="M9.99609 11H13.4961M9.99609 7H16.9961" stroke="currentColor" stroke-width="2" stroke-linecap="round" stroke-linejoin="round" />
    <path d="M5.99609 6H2.99609M5.99609 12H2.99609M5.99609 18H2.99609" stroke="currentColor" stroke-width="2" stroke-linecap="round" stroke-linejoin="round" />
    <path d="M8.99609 21.9388C7.41487 21.8363 6.40128 21.562 5.66767 20.8284C4.49609 19.6569 4.49609 17.7712 4.49609 14V10C4.49609 6.22877 4.49609 4.34315 5.66767 3.17158C6.83924 2 8.72486 2 12.4961 2H12.9961C16.7673 2 18.6529 2 19.8245 3.17157C20.9961 4.34315 20.9961 6.22877 20.9961 10V10.5" stroke="currentColor" stroke-width="2" stroke-linecap="round" stroke-linejoin="round" />
    <path d="M19.8599 14.4393L20.555 15.1317C21.1431 15.7174 21.1431 16.6672 20.555 17.2529L16.9132 20.9485C16.6267 21.2338 16.2603 21.4262 15.862 21.5003L13.6049 21.9883C13.2485 22.0653 12.9312 21.7502 13.0075 21.395L13.488 19.1598C13.5624 18.7631 13.7555 18.3981 14.042 18.1128L17.7301 14.4393C18.3183 13.8536 19.2718 13.8536 19.8599 14.4393Z" stroke="currentColor" stroke-width="2" stroke-linecap="round" stroke-linejoin="round" />
</svg>