<svg xmlns="http://www.w3.org/2000/svg" width="24" height="24" viewBox="0 0 24 24" fill="none">
    <path opacity="0.4" d="M11.9952 3C7.57311 3 3.98828 7.14744 3.98828 12.2636C3.98828 15.5091 5.8641 18.3648 8.2172 20.0192L8.21724 20.0192C8.47083 20.1975 8.67608 20.3418 8.83053 20.4599C9.16141 20.7128 9.32685 20.8392 9.35803 20.8498C9.38922 20.8603 9.49841 20.8603 9.7168 20.8603H14.2736C14.492 20.8603 14.6012 20.8603 14.6324 20.8498C14.6636 20.8392 14.829 20.7128 15.1599 20.4599C15.3144 20.3418 15.5196 20.1975 15.7732 20.0192C18.1263 18.3648 20.0022 15.5091 20.0022 12.2636C20.0022 7.14744 16.4173 3 11.9952 3Z" fill="currentColor" />
    <path d="M1.99609 19C2.01952 19.7767 2.10622 20.24 2.42714 20.5607C2.86687 21 3.57459 21 4.99003 21H7.9611C8.73864 21 9.12742 21 9.1716 20.8603C9.21579 20.7206 8.88322 20.4868 8.21807 20.0192C5.86497 18.3648 3.98916 15.5091 3.98916 12.2636C3.98916 7.14744 7.57398 3 11.9961 3C16.4182 3 20.003 7.14744 20.003 12.2636C20.003 15.5091 18.1272 18.3648 15.7741 20.0192C15.109 20.4868 14.7764 20.7206 14.8206 20.8603C14.8648 21 15.2535 21 16.0311 21H19.0022C20.4176 21 21.1253 21 21.565 20.5607C21.886 20.24 21.9727 19.7767 21.9961 19" stroke="currentColor" stroke-width="2" stroke-linecap="round" stroke-linejoin="round" />
</svg>