<svg xmlns="http://www.w3.org/2000/svg" width="24" height="24" viewBox="0 0 24 24" fill="none">
    <path d="M10.9961 22C10.1779 22 9.39628 21.6698 7.83302 21.0095C3.94174 19.3657 1.99609 18.5438 1.99609 17.1613C1.99609 16.7742 1.99609 10.0645 1.99609 7M10.9961 22L10.9961 11.3548M10.9961 22C11.7209 22 12.2891 21.7409 13.4961 21.2226M19.9961 7V11" stroke="currentColor" stroke-width="2" stroke-linecap="round" stroke-linejoin="round" />
    <path opacity="0.4" d="M19.9961 17.1613C19.9961 18.5438 18.0505 19.3657 14.1592 21.0095C12.5959 21.6698 11.8143 22 10.9961 22C10.1779 22 9.39628 21.6698 7.83302 21.0095C3.94174 19.3657 1.99609 18.5438 1.99609 17.1613L1.99609 7L10.9961 11.3548L19.9961 7V17.1613Z" fill="currentColor" />
    <path d="M14.9961 17.5H21.9961M18.4961 21L18.4961 14" stroke="currentColor" stroke-width="2" stroke-linecap="round" />
    <path d="M7.32201 9.69138L4.40081 8.27785C2.79767 7.5021 1.99609 7.11423 1.99609 6.5C1.99609 5.88577 2.79767 5.4979 4.40081 4.72215L7.32201 3.30862C9.12493 2.43621 10.0264 2 10.9961 2C11.9658 2 12.8673 2.4362 14.6702 3.30862L17.5914 4.72215C19.1945 5.4979 19.9961 5.88577 19.9961 6.5C19.9961 7.11423 19.1945 7.5021 17.5914 8.27785L14.6702 9.69138C12.8673 10.5638 11.9658 11 10.9961 11C10.0264 11 9.12493 10.5638 7.32201 9.69138Z" stroke="currentColor" stroke-width="2" stroke-linecap="round" stroke-linejoin="round" />
    <path d="M4.99609 12L6.99609 13" stroke="currentColor" stroke-width="2" stroke-linecap="round" stroke-linejoin="round" />
    <path d="M15.9961 4L5.99609 9" stroke="currentColor" stroke-width="2" stroke-linecap="round" stroke-linejoin="round" />
</svg>