<svg xmlns="http://www.w3.org/2000/svg" width="24" height="24" viewBox="0 0 24 24" fill="none">
    <path opacity="0.4" d="M20.4961 17.1613C20.4961 18.5438 18.5505 19.3657 14.6592 21.0095C13.0959 21.6698 12.3143 22 11.4961 22C10.6779 22 9.89628 21.6698 8.33302 21.0095C4.44174 19.3657 2.49609 18.5438 2.49609 17.1613L2.49609 7L11.4961 11.3548L20.4961 7V17.1613Z" fill="currentColor" />
    <path d="M20.4961 7V12M2.49609 7C2.49609 10.0645 2.49609 16.7742 2.49609 17.1613C2.49609 18.5438 4.44174 19.3657 8.33302 21.0095C9.89628 21.6698 10.6779 22 11.4961 22L11.4961 11.3548" stroke="currentColor" stroke-width="2" stroke-linecap="round" stroke-linejoin="round" />
    <path d="M14.4961 19C14.4961 19 15.3711 19 16.2461 21C16.2461 21 19.0255 16 21.4961 15" stroke="currentColor" stroke-width="2" stroke-linecap="round" stroke-linejoin="round" />
    <path d="M7.82201 9.69138L4.90081 8.27785C3.29767 7.5021 2.49609 7.11423 2.49609 6.5C2.49609 5.88577 3.29767 5.4979 4.90081 4.72215L7.82201 3.30862C9.62493 2.43621 10.5264 2 11.4961 2C12.4658 2 13.3673 2.4362 15.1702 3.30862L18.0914 4.72215C19.6945 5.4979 20.4961 5.88577 20.4961 6.5C20.4961 7.11423 19.6945 7.5021 18.0914 8.27785L15.1702 9.69138C13.3673 10.5638 12.4658 11 11.4961 11C10.5264 11 9.62493 10.5638 7.82201 9.69138Z" stroke="currentColor" stroke-width="2" stroke-linecap="round" stroke-linejoin="round" />
    <path d="M5.49609 12L7.49609 13" stroke="currentColor" stroke-width="2" stroke-linecap="round" stroke-linejoin="round" />
    <path d="M16.4961 4L6.49609 9" stroke="currentColor" stroke-width="2" stroke-linecap="round" stroke-linejoin="round" />
</svg>