<svg xmlns="http://www.w3.org/2000/svg" width="24" height="24" viewBox="0 0 24 24" fill="none">
    <path opacity="0.4" fill-rule="evenodd" clip-rule="evenodd" d="M21.8245 10.4127C22.0659 11.8519 22.1866 12.5715 21.2462 13.9326C21.1498 14.0722 20.9005 14.3713 20.7809 14.491C19.6142 15.6586 18.4347 15.6586 16.0755 15.6586H14.1431C13.5124 15.6586 13.197 15.6586 12.9678 15.7142C11.9625 15.9581 11.307 16.9391 11.4569 17.9755C11.4911 18.2118 11.6082 18.5085 11.8425 19.102C11.9384 19.3449 11.9864 19.4664 12.0175 19.7304C12.1331 20.7084 11.0908 21.9508 10.1197 21.9926C9.85748 22.0039 9.84071 22.0002 9.80717 21.9926C7.66564 21.51 5.66595 20.3123 4.1878 18.4422C0.740695 14.0808 1.43536 7.71364 5.73938 4.22064C10.0434 0.727643 16.3269 1.43156 19.774 5.79289C20.8719 7.1819 21.5496 8.77438 21.8245 10.4127Z" fill="currentColor" />
    <path fill-rule="evenodd" clip-rule="evenodd" d="M21.8245 10.4127C22.0659 11.8519 22.1866 12.5715 21.2462 13.9326C21.1498 14.0722 20.9005 14.3713 20.7809 14.4911C19.6142 15.6586 18.4347 15.6586 16.0755 15.6586H14.1431C13.5124 15.6586 13.197 15.6586 12.9678 15.7142C11.9625 15.9581 11.307 16.9391 11.4569 17.9755C11.4911 18.2118 11.6082 18.5085 11.8425 19.102C11.9384 19.3449 11.9864 19.4664 12.0175 19.7304C12.1331 20.7084 11.0908 21.9508 10.1197 21.9926C9.85748 22.0039 9.84071 22.0002 9.80717 21.9926C7.66564 21.51 5.66595 20.3123 4.1878 18.4421C0.740695 14.0808 1.43536 7.71364 5.73938 4.22064C10.0434 0.727643 16.3269 1.43156 19.774 5.79289C20.8719 7.1819 21.5496 8.77438 21.8245 10.4127Z" stroke="currentColor" stroke-width="2" stroke-linejoin="round" />
    <path d="M7.37109 7.74976H7.24609M7.49609 7.74976C7.49609 7.88783 7.38416 7.99976 7.24609 7.99976C7.10802 7.99976 6.99609 7.88783 6.99609 7.74976C6.99609 7.61169 7.10802 7.49976 7.24609 7.49976C7.38416 7.49976 7.49609 7.61169 7.49609 7.74976Z" stroke="currentColor" stroke-width="2" stroke-linecap="round" stroke-linejoin="round" />
    <path d="M7.37109 15.7498H7.24609M7.49609 15.7498C7.49609 15.8878 7.38416 15.9998 7.24609 15.9998C7.10802 15.9998 6.99609 15.8878 6.99609 15.7498C6.99609 15.6117 7.10802 15.4998 7.24609 15.4998C7.38416 15.4998 7.49609 15.6117 7.49609 15.7498Z" stroke="currentColor" stroke-width="2" stroke-linecap="round" stroke-linejoin="round" />
    <path d="M11.8711 5.74976H11.7461M11.9961 5.74976C11.9961 5.88783 11.8842 5.99976 11.7461 5.99976C11.608 5.99976 11.4961 5.88783 11.4961 5.74976C11.4961 5.61169 11.608 5.49976 11.7461 5.49976C11.8842 5.49976 11.9961 5.61169 11.9961 5.74976Z" stroke="currentColor" stroke-width="2" stroke-linecap="round" stroke-linejoin="round" />
    <path d="M16.3711 7.74976H16.2461M16.4961 7.74976C16.4961 7.88783 16.3842 7.99976 16.2461 7.99976C16.108 7.99976 15.9961 7.88783 15.9961 7.74976C15.9961 7.61169 16.108 7.49976 16.2461 7.49976C16.3842 7.49976 16.4961 7.61169 16.4961 7.74976Z" stroke="currentColor" stroke-width="2" stroke-linecap="round" stroke-linejoin="round" />
    <path d="M18.3711 11.7498H18.2461M18.4961 11.7498C18.4961 11.8878 18.3842 11.9998 18.2461 11.9998C18.108 11.9998 17.9961 11.8878 17.9961 11.7498C17.9961 11.6117 18.108 11.4998 18.2461 11.4998C18.3842 11.4998 18.4961 11.6117 18.4961 11.7498Z" stroke="currentColor" stroke-width="2" stroke-linecap="round" stroke-linejoin="round" />
    <path d="M5.87109 11.7498H5.74609M5.99609 11.7498C5.99609 11.8878 5.88416 11.9998 5.74609 11.9998C5.60802 11.9998 5.49609 11.8878 5.49609 11.7498C5.49609 11.6117 5.60802 11.4998 5.74609 11.4998C5.88416 11.4998 5.99609 11.6117 5.99609 11.7498Z" stroke="currentColor" stroke-width="2" stroke-linecap="round" stroke-linejoin="round" />
</svg>