<svg xmlns="http://www.w3.org/2000/svg" width="24" height="24" viewBox="0 0 24 24" fill="none">
    <path opacity="0.4" fill-rule="evenodd" clip-rule="evenodd" d="M21.0877 13.9537C21.0877 18.4012 17.0177 20.9999 11.997 20.9999C6.97631 20.9999 2.90625 18.4012 2.90625 13.9537C2.90625 9.50626 6.97631 4.89429 11.997 4.89429C17.0177 4.89429 21.0877 9.50626 21.0877 13.9537ZM17.4155 14.1201C18.1829 13.3878 18.1982 11.6856 17.4099 10.5108C16.6215 9.33612 15.1786 9.27637 14.5606 9.86606C13.7933 10.5984 13.8103 12.1444 14.5987 13.3191C15.387 14.4938 16.6482 14.8525 17.4155 14.1201ZM6.58232 10.5108C5.79397 11.6856 5.80931 13.3878 6.57666 14.1201C7.344 14.8525 8.60515 14.4938 9.39351 13.3191C10.1819 12.1444 10.1989 10.5984 9.43154 9.86606C8.81364 9.27637 7.37068 9.33612 6.58232 10.5108Z" fill="currentColor" />
    <path d="M21.0877 13.954C21.0877 18.4014 17.0177 21.0002 11.997 21.0002C6.97631 21.0002 2.90625 18.4014 2.90625 13.954C2.90625 9.50651 6.97631 4.89453 11.997 4.89453C17.0177 4.89453 21.0877 9.50651 21.0877 13.954Z" stroke="currentColor" stroke-width="2" />
    <path d="M7.99609 5.5L7.61936 5.16581C6.29268 3.98894 4.25015 4.16627 3.14615 5.55418C2.43781 6.44468 2.27561 7.6522 2.72384 8.69806L3.49609 10.5" stroke="currentColor" stroke-width="2" stroke-linecap="round" />
    <path d="M15.9961 5.5L16.3728 5.16581C17.6995 3.98894 19.742 4.16627 20.846 5.55418C21.5544 6.44468 21.7166 7.6522 21.2684 8.69806L20.4961 10.5" stroke="currentColor" stroke-width="2" stroke-linecap="round" />
    <path d="M17.4099 10.5109C18.1982 11.6856 18.1829 13.3879 17.4155 14.1202C16.6482 14.8525 15.387 14.4939 14.5987 13.3191C13.8103 12.1444 13.7933 10.5984 14.5606 9.86612C15.1786 9.27643 16.6215 9.33618 17.4099 10.5109Z" stroke="currentColor" stroke-width="2" />
    <path d="M6.58232 10.5109C5.79397 11.6856 5.80931 13.3879 6.57666 14.1202C7.344 14.8525 8.60515 14.4939 9.39351 13.3191C10.1819 12.1444 10.1989 10.5984 9.43154 9.86612C8.81364 9.27643 7.37068 9.33618 6.58232 10.5109Z" stroke="currentColor" stroke-width="2" />
    <path d="M11.3194 16.8242L11.7307 17.2355C11.877 17.3818 12.1142 17.3818 12.2605 17.2355L12.6718 16.8242C12.8311 16.6649 12.7875 16.3964 12.586 16.2956C12.2143 16.1098 11.7768 16.1098 11.4052 16.2956C11.2037 16.3964 11.1601 16.6649 11.3194 16.8242Z" stroke="currentColor" stroke-width="2" />
</svg>