<svg xmlns="http://www.w3.org/2000/svg" width="24" height="24" viewBox="0 0 24 24" fill="none">
    <path d="M2.50586 12C2.50586 7.52166 2.50586 5.28249 3.8971 3.89124C5.28834 2.5 7.52752 2.5 12.0059 2.5C16.4842 2.5 18.7234 2.5 20.1146 3.89124C21.5059 5.28249 21.5059 7.52166 21.5059 12C21.5059 16.4783 21.5059 18.7175 20.1146 20.1088C18.7234 21.5 16.4842 21.5 12.0059 21.5C7.52752 21.5 5.28834 21.5 3.8971 20.1088C2.50586 18.7175 2.50586 16.4783 2.50586 12Z" stroke="currentColor" stroke-width="2" />
    <path opacity="0.4" fill-rule="evenodd" clip-rule="evenodd" d="M7.98633 21.4574L7.98633 9.02051L21.4636 9.02051C21.3967 6.46012 21.1332 4.94988 20.0951 3.91175C18.7038 2.52051 16.4647 2.52051 11.9863 2.52051C7.50799 2.52051 5.26881 2.52051 3.87757 3.91175C2.48633 5.30299 2.48633 7.54217 2.48633 12.0205C2.48633 16.4988 2.48633 18.738 3.87757 20.1293C4.77266 21.0244 6.01875 21.3436 7.98633 21.4574Z" fill="currentColor" />
    <path d="M2.50586 9H21.5059" stroke="currentColor" stroke-width="2" />
    <path d="M8.00586 21.5V9" stroke="currentColor" stroke-width="2" />
</svg>