<svg xmlns="http://www.w3.org/2000/svg" width="24" height="24" viewBox="0 0 24 24" fill="none">
    <path d="M8.99609 21L8.99609 20M8.99609 17L8.99609 16M8.99609 12.5L8.99609 11.5M8.99609 8L8.99609 7M8.99609 3L8.99609 4" stroke="currentColor" stroke-width="2" stroke-linecap="round" stroke-linejoin="round" />
    <rect opacity="0.4" x="8.99609" y="2" width="6" height="20" fill="currentColor" />
    <path d="M2.49609 12C2.49609 7.52166 2.49609 5.28249 3.88734 3.89124C5.27858 2.5 7.51775 2.5 11.9961 2.5C16.4744 2.5 18.7136 2.5 20.1049 3.89124C21.4961 5.28249 21.4961 7.52166 21.4961 12C21.4961 16.4783 21.4961 18.7175 20.1049 20.1088C18.7136 21.5 16.4744 21.5 11.9961 21.5C7.51775 21.5 5.27858 21.5 3.88734 20.1088C2.49609 18.7175 2.49609 16.4783 2.49609 12Z" stroke="currentColor" stroke-width="2" />
    <path d="M14.9961 21L14.9961 20M14.9961 17L14.9961 16M14.9961 12.5L14.9961 11.5M14.9961 8L14.9961 7M14.9961 3L14.9961 4" stroke="currentColor" stroke-width="2" stroke-linecap="round" stroke-linejoin="round" />
</svg>