<svg xmlns="http://www.w3.org/2000/svg" width="24" height="24" viewBox="0 0 24 24" fill="none">
    <path d="M20.9961 9H19.9961M16.9961 9H15.9961M12.4961 9H11.4961M7.99609 9H6.99609M2.99609 9H3.99609" stroke="currentColor" stroke-width="2" stroke-linecap="round" stroke-linejoin="round" />
    <path opacity="0.4" fill-rule="evenodd" clip-rule="evenodd" d="M21.474 9C21.4072 6.43961 21.1437 4.92937 20.1055 3.89124C18.7143 2.5 16.4751 2.5 11.9968 2.5C7.51844 2.5 5.27927 2.5 3.88803 3.89124C2.8499 4.92937 2.58641 6.43961 2.51953 9H21.474Z" fill="currentColor" />
    <path d="M2.49609 12C2.49609 16.4783 2.49609 18.7175 3.88734 20.1088C5.27858 21.5 7.51775 21.5 11.9961 21.5C16.4744 21.5 18.7136 21.5 20.1049 20.1088C21.4961 18.7175 21.4961 16.4783 21.4961 12C21.4961 7.52166 21.4961 5.28249 20.1049 3.89124C18.7136 2.5 16.4744 2.5 11.9961 2.5C7.51775 2.5 5.27858 2.5 3.88734 3.89124C2.49609 5.28249 2.49609 7.52166 2.49609 12Z" stroke="currentColor" stroke-width="2" />
</svg>