<svg xmlns="http://www.w3.org/2000/svg" width="24" height="24" viewBox="0 0 24 24" fill="none">
    <path d="M2.49609 12C2.49609 7.52166 2.49609 5.28249 3.88734 3.89124C5.27858 2.5 7.51775 2.5 11.9961 2.5C16.4744 2.5 18.7136 2.5 20.1049 3.89124C21.4961 5.28249 21.4961 7.52166 21.4961 12C21.4961 16.4783 21.4961 18.7175 20.1049 20.1088C18.7136 21.5 16.4744 21.5 11.9961 21.5C7.51775 21.5 5.27858 21.5 3.88734 20.1088C2.49609 18.7175 2.49609 16.4783 2.49609 12Z" stroke="currentColor" stroke-width="2" />
    <path opacity="0.4" fill-rule="evenodd" clip-rule="evenodd" d="M21.474 15C21.4072 17.5604 21.1437 19.0706 20.1055 20.1088C18.7143 21.5 16.4751 21.5 11.9968 21.5C7.51844 21.5 5.27927 21.5 3.88803 20.1088C2.8499 19.0706 2.58641 17.5604 2.51953 15H21.474Z" fill="currentColor" />
    <path d="M20.9961 15L2.99609 15" stroke="currentColor" stroke-width="2" stroke-linecap="round" stroke-linejoin="round" />
    <path d="M8.99609 10C9.58592 9.39317 11.1558 6.99998 11.9961 7C12.8364 7.00001 14.4063 9.39315 14.9961 9.99999" stroke="currentColor" stroke-width="2" stroke-linecap="round" stroke-linejoin="round" />
</svg>