<svg xmlns="http://www.w3.org/2000/svg" width="24" height="24" viewBox="0 0 24 24" fill="none">
    <path d="M16.9805 11.0133L19.115 8.87868C19.9976 7.99612 20.4389 7.55483 20.4877 7.01325C20.4957 6.92372 20.4957 6.83364 20.4877 6.74411C20.4389 6.20253 19.9976 5.76124 19.115 4.87868C18.2325 3.99612 17.7912 3.55483 17.2496 3.50605C17.1601 3.49798 17.07 3.49798 16.9805 3.50605C16.4389 3.55483 15.9976 3.99612 15.115 4.87868L12.9805 7.01325" stroke="currentColor" stroke-width="2" stroke-linecap="round" stroke-linejoin="round" />
    <path opacity="0.4" d="M3.72055 16.5948C3.49219 17.1461 3.49219 17.7593 3.49219 18.9855V20.5002H5.00691C6.23316 20.5002 6.84628 20.5002 7.3976 20.2719C7.94891 20.0435 8.38246 19.61 9.24955 18.7429L13.9922 14.0002L9.99241 10L5.24955 14.7429L5.24954 14.7429C4.38245 15.61 3.94891 16.0435 3.72055 16.5948Z" fill="currentColor" />
    <path d="M13.9922 14.0002L9.24955 18.7429C8.38246 19.61 7.94891 20.0435 7.3976 20.2719C6.84628 20.5002 6.23316 20.5002 5.00691 20.5002H3.49219V18.9855C3.49219 17.7593 3.49219 17.1461 3.72055 16.5948C3.94891 16.0435 4.38246 15.61 5.24955 14.7429L9.99241 10" stroke="currentColor" stroke-width="2" stroke-linecap="round" stroke-linejoin="round" />
    <path d="M1.99219 2L21.9922 22" stroke="currentColor" stroke-width="2" stroke-linecap="round" stroke-linejoin="round" />
</svg>