<svg xmlns="http://www.w3.org/2000/svg" width="24" height="24" viewBox="0 0 24 24" fill="none">
    <path d="M9.49283 20H6.99283C6.06352 20 5.59886 20 5.21247 19.9231C3.6257 19.6075 2.38531 18.3671 2.06969 16.7804C1.99283 16.394 1.99283 15.9293 1.99283 15" stroke="currentColor" stroke-width="2" stroke-linecap="round" stroke-linejoin="round" />
    <path d="M12.9928 4H15.4927C17.8274 4 18.9947 4 19.8783 4.47231C20.576 4.84525 21.1475 5.4167 21.5204 6.11441C21.9927 6.99805 21.9927 8.16537 21.9927 10.5" stroke="currentColor" stroke-width="2" stroke-linecap="round" stroke-linejoin="round" />
    <path d="M1.99283 4L8.47713 10.4845" stroke="currentColor" stroke-width="2" stroke-linecap="round" stroke-linejoin="round" />
    <path d="M8.69683 6C8.80606 7.25534 9.31547 10.0469 8.67759 10.6848C8.03971 11.3226 5.24817 10.8132 3.99283 10.704" stroke="currentColor" stroke-width="2" stroke-linecap="round" stroke-linejoin="round" />
    <path opacity="0.4" d="M20.4928 14H15.4928C14.6644 14 13.9928 14.6716 13.9928 15.5V18.5C13.9928 19.3284 14.6644 20 15.4928 20H20.4928C21.3213 20 21.9928 19.3284 21.9928 18.5V15.5C21.9928 14.6716 21.3213 14 20.4928 14Z" fill="currentColor" />
    <path d="M20.4928 14H15.4928C14.6644 14 13.9928 14.6716 13.9928 15.5V18.5C13.9928 19.3284 14.6644 20 15.4928 20H20.4928C21.3213 20 21.9928 19.3284 21.9928 18.5V15.5C21.9928 14.6716 21.3213 14 20.4928 14Z" stroke="currentColor" stroke-width="2" />
</svg>