<svg xmlns="http://www.w3.org/2000/svg" width="24" height="24" viewBox="0 0 24 24" fill="none">
    <path opacity="0.4" d="M17.5103 11.0034C17.2395 10.4553 16.7537 10.036 16.1602 9.85156C15.8329 9.74991 15.4394 9.74994 14.7738 9.75L14.7257 9.75C14.6055 9.75015 14.5053 9.83512 14.4815 9.94824C14.2376 9.48698 13.8397 9.12221 13.3536 8.9209C13.1345 8.8302 12.8959 8.78942 12.6046 8.76953C12.3696 8.7535 12.0882 8.75053 11.7432 8.75V4C11.7432 3.03353 10.9597 2.25005 9.99324 2.25C9.02674 2.25 8.24324 3.0335 8.24324 4V13.4219L6.35652 11.6543C6.34986 11.6481 6.34233 11.6422 6.33503 11.6367C5.41801 10.9493 4.10745 11.2058 3.51765 12.1885C3.1382 12.8209 3.15216 13.6152 3.55281 14.2344L6.11238 18.1465L6.15479 18.2113C7.18927 19.7923 7.75739 20.6605 8.61628 21.165C8.70258 21.2157 8.79127 21.2632 8.88093 21.3076C9.77339 21.7501 10.8107 21.7501 12.7001 21.75L12.7774 21.75H13.4932C14.892 21.75 15.96 21.7499 16.8038 21.6641C17.6517 21.5778 18.3013 21.403 18.8536 21.0342C19.3176 20.7241 19.7164 20.3253 20.0264 19.8613C20.3954 19.309 20.5711 18.6595 20.6573 17.8115C20.7424 16.9742 20.7424 15.9158 20.7423 14.5327V14.5V13.6758L20.7423 13.6166C20.7423 13.0408 20.7423 12.6982 20.6641 12.4102C20.4548 11.64 19.8523 11.0384 19.0821 10.8291C18.7905 10.7499 18.4432 10.75 17.8546 10.75L17.8165 10.75C17.6786 10.7502 17.5665 10.8621 17.5665 11C17.5443 11 17.5257 11.0012 17.5103 11.0034Z" fill="currentColor" />
    <path d="M11.4931 9V11.4211M11.4931 9V4C11.4931 3.17157 10.8216 2.5 9.99313 2.5C9.1647 2.5 8.49313 3.17157 8.49313 4V14L6.18543 11.8369C5.38692 11.238 4.24566 11.4616 3.73212 12.3174C3.40173 12.8681 3.41344 13.5587 3.76229 14.0979L6.32198 18.0095C7.39739 19.6529 7.9351 20.4746 8.74335 20.9492C8.82458 20.9969 8.90746 21.0417 8.99185 21.0836C9.83159 21.5 10.8136 21.5 12.7776 21.5H13.4928C16.3017 21.5 17.7062 21.5 18.7151 20.8259C19.1519 20.534 19.527 20.1589 19.8188 19.7221C20.4929 18.7131 20.4928 17.3087 20.4926 14.4997L20.4926 13.6755C20.4925 13.0472 20.4925 12.733 20.4225 12.4754C20.2364 11.7908 19.7016 11.256 19.017 11.07C18.7594 11 18.4452 11 17.8169 11M11.4931 9C12.4248 9 12.8906 9 13.2581 9.15218C13.7481 9.35512 14.1375 9.7444 14.3405 10.2344C14.4928 10.6019 14.4929 11.0677 14.4931 11.9993L14.4931 12.3546M17.4931 13L17.4931 12.7667C17.493 12.053 17.4929 11.6962 17.4028 11.4063C17.2074 10.7776 16.7151 10.2854 16.0863 10.0901C15.7965 10 15.4396 10 14.726 10" stroke="currentColor" stroke-width="2" stroke-linecap="round" stroke-linejoin="round" />
</svg>