<svg xmlns="http://www.w3.org/2000/svg" width="24" height="24" viewBox="0 0 24 24" fill="none">
    <path d="M17.4937 12.5L17.4936 12.2667C17.4935 11.553 17.4935 11.1962 17.4034 10.9063C17.2079 10.2776 16.7156 9.78538 16.0869 9.59005C15.797 9.5 15.4402 9.5 14.7265 9.5" stroke="currentColor" stroke-width="2" stroke-linecap="round" stroke-linejoin="round" />
    <path d="M17.8163 10.5C18.4447 10.5 18.7589 10.5 19.0165 10.57C19.7011 10.756 20.2359 11.2908 20.422 11.9754C20.492 12.233 20.492 12.5472 20.492 13.1755L20.4921 13.9997C20.4921 14.7636 20.4922 15.4236 20.4787 16" stroke="currentColor" stroke-width="2" stroke-linecap="round" stroke-linejoin="round" />
    <path opacity="0.4" d="M8.49301 8.5V13.5L6.1853 11.3369C5.3868 10.738 4.24553 10.9616 3.732 11.8174C3.40161 12.3681 3.41331 13.0587 3.76217 13.5979L6.32185 17.5095C7.39727 19.1529 7.93498 19.9746 8.74323 20.4492C8.82446 20.4969 8.90734 20.5417 8.99173 20.5836C9.83147 21 10.8135 21 12.7775 21H13.4926C16.3016 21 17.706 21 18.7149 20.3259C19.0029 20.1335 19.264 19.9049 19.4921 19.6464L8.49301 8.5Z" fill="currentColor" />
    <path d="M8.49301 8.5V13.5L6.1853 11.3369C5.3868 10.738 4.24553 10.9616 3.732 11.8174C3.40161 12.3681 3.41331 13.0587 3.76217 13.5979L6.32185 17.5095C7.39727 19.1529 7.93498 19.9746 8.74323 20.4492C8.82446 20.4969 8.90734 20.5417 8.99173 20.5836C9.83147 21 10.8135 21 12.7775 21H13.4926C16.3016 21 17.706 21 18.7149 20.3259C19.0029 20.1335 19.264 19.9049 19.4921 19.6464" stroke="currentColor" stroke-width="2" stroke-linecap="round" stroke-linejoin="round" />
    <path d="M11.4921 6V3.5C11.4921 2.67157 10.8206 2 9.99213 2C9.1637 2 8.49213 2.67157 8.49213 3.5V4" stroke="currentColor" stroke-width="2" stroke-linecap="round" stroke-linejoin="round" />
    <path d="M1.99213 2L21.9921 22" stroke="currentColor" stroke-width="2" stroke-linecap="round" />
</svg>