<svg xmlns="http://www.w3.org/2000/svg" width="24" height="24" viewBox="0 0 24 24" fill="none">
    <path opacity="0.4" d="M3 11.9997C3 16.9703 7.02944 20.9997 12 20.9997C14.4853 20.9997 16.7353 19.9923 18.364 18.3637L5.63604 5.63574C4.00736 7.26442 3 9.51442 3 11.9997Z" fill="currentColor" />
    <path d="M18.7083 6C20.1334 7.59227 21 9.69494 21 12C21 13.1856 20.7708 14.3176 20.3542 15.3542M5.29168 6C3.86656 7.59227 3 9.69494 3 12C3 16.9706 7.02944 21 12 21C14.4853 21 16.7353 19.9926 18.364 18.364" stroke="currentColor" stroke-width="2" stroke-linecap="round" stroke-linejoin="round" />
    <path d="M3 3L21 21" stroke="currentColor" stroke-width="2" stroke-linecap="round" stroke-linejoin="round" />
    <path d="M12 3L12 7" stroke="currentColor" stroke-width="2" stroke-linecap="round" stroke-linejoin="round" />
</svg>