<svg xmlns="http://www.w3.org/2000/svg" width="24" height="24" viewBox="0 0 24 24" fill="none">
    <path opacity="0.4" d="M19.6813 4.31799C18.3633 2.99997 16.242 2.99997 11.9993 2.99997C7.7567 2.99997 5.63538 2.99997 4.31736 4.31799C3.50175 5.1336 3.19085 6.25682 3.07234 7.99997H20.9263C20.8078 6.25682 20.4969 5.1336 19.6813 4.31799Z" fill="currentColor" />
    <path d="M3.00008 12C3.00008 7.75733 3.00008 5.63601 4.3181 4.31799C5.63612 2.99997 7.75744 2.99997 12.0001 2.99997C16.2427 2.99997 18.364 2.99997 19.6821 4.31799C21.0001 5.63601 21.0001 7.75733 21.0001 12C21.0001 16.2426 21.0001 18.3639 19.6821 19.682C18.364 21 16.2427 21 12.0001 21C7.75744 21 5.63612 21 4.3181 19.682C3.00008 18.3639 3.00008 16.2426 3.00008 12Z" stroke="currentColor" stroke-width="2" stroke-linecap="round" stroke-linejoin="round" />
    <path d="M3.50008 7.99997H20.5001" stroke="currentColor" stroke-width="2" stroke-linecap="round" stroke-linejoin="round" />
    <path d="M12.0001 16.5H17.0001M7.00008 16.5H8.00008" stroke="currentColor" stroke-width="2" stroke-linecap="round" stroke-linejoin="round" />
    <path d="M12.0001 12.5H17.0001M7.00008 12.5H8.00008" stroke="currentColor" stroke-width="2" stroke-linecap="round" stroke-linejoin="round" />
</svg>