<svg xmlns="http://www.w3.org/2000/svg" width="24" height="24" viewBox="0 0 24 24" fill="none">
    <path opacity="0.4" d="M15.2844 18.5846L19.0505 14.8295C19.4916 14.3902 20.2068 14.3902 20.6478 14.8295L21.1692 15.3488C21.6103 15.7881 21.6103 16.5004 21.1692 16.9397L17.4378 20.7114C17.223 20.9254 16.9481 21.0696 16.6494 21.1252L14.9566 21.4912C14.6893 21.549 14.4513 21.3126 14.5086 21.0463L14.8689 19.3698C14.9247 19.0723 15.0695 18.7986 15.2844 18.5846Z" fill="currentColor" />
    <path opacity="0.4" d="M19.1812 3.81802C17.8632 2.5 15.7419 2.5 11.4993 2.5C7.25662 2.5 5.1353 2.5 3.81728 3.81802C3.00167 4.63363 2.69078 5.75685 2.57227 7.5H20.4263C20.3078 5.75685 19.9969 4.63363 19.1812 3.81802Z" fill="currentColor" />
    <path d="M11.5 20.5C7.25736 20.5 5.13604 20.5 3.81802 19.182C2.5 17.864 2.5 15.7426 2.5 11.5C2.5 7.25736 2.5 5.13604 3.81802 3.81802C5.13604 2.5 7.25736 2.5 11.5 2.5C15.7426 2.5 17.864 2.5 19.182 3.81802C20.5 5.13604 20.5 7.25736 20.5 11.5" stroke="currentColor" stroke-width="2" stroke-linecap="round" stroke-linejoin="round" />
    <path d="M3 7.5H20" stroke="currentColor" stroke-width="2" stroke-linecap="round" stroke-linejoin="round" />
    <path d="M11.5 16H12.5M6.5 16H7.5" stroke="currentColor" stroke-width="2" stroke-linecap="round" stroke-linejoin="round" />
    <path d="M11.5 12H16.5M6.5 12H7.5" stroke="currentColor" stroke-width="2" stroke-linecap="round" stroke-linejoin="round" />
    <path d="M15.2844 18.5846L19.0505 14.8295C19.4916 14.3902 20.2068 14.3902 20.6478 14.8295L21.1692 15.3488C21.6103 15.7881 21.6103 16.5004 21.1692 16.9397L17.4378 20.7114C17.223 20.9254 16.9481 21.0696 16.6494 21.1252L14.9566 21.4912C14.6893 21.549 14.4513 21.3126 14.5086 21.0463L14.8689 19.3698C14.9247 19.0723 15.0695 18.7986 15.2844 18.5846Z" stroke="currentColor" stroke-width="2" stroke-linecap="round" stroke-linejoin="round" />
</svg>