<svg xmlns="http://www.w3.org/2000/svg" width="24" height="24" viewBox="0 0 24 24" fill="none">
    <path opacity="0.4" d="M10 12.9999C10 14.6568 8.65685 15.9999 7 15.9999C9.76142 15.9999 12 18.2385 12 20.9999H2C2 18.2385 4.23858 15.9999 7 15.9999C5.34315 15.9999 4 14.6568 4 12.9999C4 11.3431 5.34315 9.99994 7 9.99994C8.65685 9.99994 10 11.3431 10 12.9999Z" fill="currentColor" />
    <path d="M15.4 7.49935H15.35M18.7 7.49951H18.65M15.45 7.49935C15.45 7.55458 15.4052 7.59935 15.35 7.59935C15.2948 7.59935 15.25 7.55458 15.25 7.49935C15.25 7.44412 15.2948 7.39935 15.35 7.39935C15.4052 7.39935 15.45 7.44412 15.45 7.49935ZM18.75 7.49951C18.75 7.55474 18.7052 7.59951 18.65 7.59951C18.5948 7.59951 18.55 7.55474 18.55 7.49951C18.55 7.44428 18.5948 7.39951 18.65 7.39951C18.7052 7.39951 18.75 7.44428 18.75 7.49951Z" stroke="currentColor" stroke-width="2" stroke-linecap="round" stroke-linejoin="round" />
    <path d="M17 12.5666C19.7611 12.5666 22 10.4249 22 7.7833C22 5.14172 19.7611 2.99994 17 2.99994C14.2389 2.99994 12 5.14172 12 7.7833C12 9.05248 12.5167 10.2057 13.3594 11.0615C13.545 11.2499 13.6689 11.5073 13.6189 11.7723C13.5364 12.2055 13.3494 12.6096 13.0756 12.9464C13.796 13.0804 14.5451 12.9597 15.1875 12.6181L15.1881 12.6178C15.4148 12.4972 15.5282 12.4369 15.6083 12.4247C15.6884 12.4125 15.8032 12.434 16.0327 12.4771C16.3516 12.537 16.6753 12.567 17 12.5666Z" stroke="currentColor" stroke-width="2" stroke-linecap="round" stroke-linejoin="round" />
    <path d="M10 12.9999C10 14.6568 8.65685 15.9999 7 15.9999C5.34315 15.9999 4 14.6568 4 12.9999C4 11.3431 5.34315 9.99994 7 9.99994C8.65685 9.99994 10 11.3431 10 12.9999Z" stroke="currentColor" stroke-width="2" stroke-linecap="round" stroke-linejoin="round" />
    <path d="M12 20.9999C12 18.2385 9.76142 15.9999 7 15.9999C4.23858 15.9999 2 18.2385 2 20.9999" stroke="currentColor" stroke-width="2" stroke-linecap="round" stroke-linejoin="round" />
</svg>