<svg xmlns="http://www.w3.org/2000/svg" width="24" height="24" viewBox="0 0 24 24" fill="none">
    <path opacity="0.4" d="M6.00003 16V8C6.00003 7.24334 6.00003 6.58789 6.01685 6.01682C6.58792 6 7.24337 6 8.00003 6H16C16.7567 6 17.4121 6 17.9832 6.01682C18 6.58789 18 7.24334 18 8V16C18 16.7567 18 17.4121 17.9832 17.9832C17.4121 18 16.7567 18 16 18H8.00003C7.24337 18 6.58792 18 6.01685 17.9832C6.00003 17.4121 6.00003 16.7567 6.00003 16Z" fill="currentColor" />
    <path d="M6 16V8C6 5.17157 6 3.75736 6.87868 2.87868C7.75736 2 9.17157 2 12 2C14.8284 2 16.2426 2 17.1213 2.87868C18 3.75736 18 5.17157 18 8V16C18 18.8284 18 20.2426 17.1213 21.1213C16.2426 22 14.8284 22 12 22C9.17157 22 7.75736 22 6.87868 21.1213C6 20.2426 6 18.8284 6 16Z" stroke="currentColor" stroke-width="2" stroke-linecap="round" stroke-linejoin="round" />
    <path d="M8 6L16 6C18.8284 6 20.2426 6 21.1213 6.87868C22 7.75736 22 9.17157 22 12C22 14.8284 22 16.2426 21.1213 17.1213C20.2426 18 18.8284 18 16 18H8C5.17157 18 3.75736 18 2.87868 17.1213C2 16.2426 2 14.8284 2 12C2 9.17157 2 7.75736 2.87868 6.87868C3.75736 6 5.17157 6 8 6Z" stroke="currentColor" stroke-width="2" stroke-linecap="round" stroke-linejoin="round" />
</svg>