<svg xmlns="http://www.w3.org/2000/svg" width="24" height="24" viewBox="0 0 24 24" fill="none">
    <path opacity="0.4" d="M10.4326 10C10.9952 10.459 11.509 10.7832 11.7861 10.9424C11.9199 11.0191 12.0801 11.0191 12.2139 10.9424C12.491 10.7832 13.0048 10.459 13.5674 10H18C19.5532 10.0469 20.4798 10.2203 21.1211 10.8623C21.9998 11.7422 22 13.1588 22 15.9912C22 18.8237 21.9998 20.2402 21.1211 21.1201C20.2424 21.9999 18.8283 22 16 22H8C5.17173 22 3.7576 21.9999 2.87891 21.1201C2.00023 20.2402 2 18.8237 2 15.9912C2 13.1588 2.00024 11.7422 2.87891 10.8623C3.5202 10.2203 4.44676 10.0469 6 10H10.4326Z" fill="currentColor" />
    <path d="M19 16L17 16M13 16L11 16M7 16L5 16" stroke="currentColor" stroke-width="2" stroke-linecap="round" stroke-linejoin="round" />
    <path d="M16 5.85058C16 8.525 13.0435 10.466 12.214 10.9424C12.0802 11.0192 11.9198 11.0192 11.786 10.9424C10.9565 10.466 8 8.525 8 5.85058C8 3.8 9.79086 2 12 2C14.2091 2 16 3.8 16 5.85058Z" stroke="currentColor" stroke-width="2" stroke-linecap="round" stroke-linejoin="round" />
    <path d="M18 10C19.5534 10.0469 20.48 10.2204 21.1213 10.8626C22 11.7426 22 13.1588 22 15.9913C22 18.8238 22 20.2401 21.1213 21.1201C20.2426 22 18.8284 22 16 22H8C5.17157 22 3.75736 22 2.87868 21.1201C2 20.2401 2 18.8238 2 15.9913C2 13.1588 2 11.7426 2.87868 10.8626C3.51998 10.2204 4.44655 10.0469 6 10" stroke="currentColor" stroke-width="2" stroke-linecap="round" stroke-linejoin="round" />
    <path d="M12.1348 6H12.0098M12.2598 6C12.2598 6.13807 12.1478 6.25 12.0098 6.25C11.8717 6.25 11.7598 6.13807 11.7598 6C11.7598 5.86193 11.8717 5.75 12.0098 5.75C12.1478 5.75 12.2598 5.86193 12.2598 6Z" stroke="currentColor" stroke-width="2" stroke-linecap="round" stroke-linejoin="round" />
</svg>