<svg xmlns="http://www.w3.org/2000/svg" width="24" height="24" viewBox="0 0 24 24" fill="none">
    <path d="M2.99219 17H20.9922" stroke="currentColor" stroke-width="2" stroke-linecap="round" stroke-linejoin="round" />
    <path opacity="0.4" fill-rule="evenodd" clip-rule="evenodd" d="M2.64062 7H21.346C21.1819 5.59269 20.8351 4.62427 20.102 3.89124C18.7108 2.5 16.4716 2.5 11.9933 2.5C7.51495 2.5 5.27578 2.5 3.88454 3.89124C3.15151 4.62427 2.8047 5.59269 2.64062 7ZM21.346 17H2.64062C2.8047 18.4073 3.15151 19.3757 3.88454 20.1088C5.27578 21.5 7.51495 21.5 11.9933 21.5C16.4716 21.5 18.7108 21.5 20.102 20.1088C20.8351 19.3757 21.1819 18.4073 21.346 17Z" fill="currentColor" />
    <path d="M2.99219 7H20.9922" stroke="currentColor" stroke-width="2" stroke-linecap="round" stroke-linejoin="round" />
    <path d="M2.49219 12C2.49219 7.52166 2.49219 5.28249 3.88343 3.89124C5.27467 2.5 7.51384 2.5 11.9922 2.5C16.4705 2.5 18.7097 2.5 20.1009 3.89124C21.4922 5.28249 21.4922 7.52166 21.4922 12C21.4922 16.4783 21.4922 18.7175 20.1009 20.1088C18.7097 21.5 16.4705 21.5 11.9922 21.5C7.51384 21.5 5.27467 21.5 3.88343 20.1088C2.49219 18.7175 2.49219 16.4783 2.49219 12Z" stroke="currentColor" stroke-width="2" />
    <path d="M2.49219 12H21.4922" stroke="currentColor" stroke-width="2" stroke-linecap="round" stroke-linejoin="round" />
</svg>