<svg xmlns="http://www.w3.org/2000/svg" width="24" height="24" viewBox="0 0 24 24" fill="none">
    <path opacity="0.4" d="M18.4993 19.5C18.4993 11.2157 11.7836 4.5 3.49933 4.5V19.5H18.4993Z" fill="currentColor" />
    <path d="M18.4993 19.5C18.4993 17.3667 18.054 15.3374 17.2512 13.5M3.49933 4.5C5.63264 4.5 7.66194 4.94534 9.49933 5.74813" stroke="currentColor" stroke-width="2" stroke-linecap="round" stroke-linejoin="round" />
    <path d="M11.4993 19.5C11.4993 15.0817 7.91761 11.5 3.49933 11.5" stroke="currentColor" stroke-width="2" stroke-linecap="round" stroke-linejoin="round" />
    <path d="M4.24933 19H3.99933M4.49933 19C4.49933 19.2761 4.27547 19.5 3.99933 19.5C3.72319 19.5 3.49933 19.2761 3.49933 19C3.49933 18.7239 3.72319 18.5 3.99933 18.5C4.27547 18.5 4.49933 18.7239 4.49933 19Z" stroke="currentColor" stroke-width="2" stroke-linecap="round" stroke-linejoin="round" />
    <path d="M12.4993 8.5C12.4993 8.5 13.4993 8.5 14.4993 10.5C14.4993 10.5 17.6758 5.5 20.4993 4.5" stroke="currentColor" stroke-width="2" stroke-linecap="round" stroke-linejoin="round" />
</svg>