<svg xmlns="http://www.w3.org/2000/svg" width="24" height="24" viewBox="0 0 24 24" fill="none">
    <path opacity="0.4" d="M3.00128 6C5.94708 6 8.69432 6.84951 11.012 8.31641C11.1687 10.8254 13.175 12.8311 15.6839 12.9883C17.1512 15.3062 18.0013 18.0537 18.0013 21H3.00128V6Z" fill="currentColor" />
    <path d="M18.0013 21C18.0013 19.6148 17.8135 18.2734 17.462 17M3.00128 6C4.38649 6 5.72785 6.18777 7.00128 6.53923" stroke="currentColor" stroke-width="2" stroke-linecap="round" stroke-linejoin="round" />
    <path d="M11.0013 21C11.0013 16.5817 7.41956 13 3.00128 13" stroke="currentColor" stroke-width="2" stroke-linecap="round" stroke-linejoin="round" />
    <path d="M3.75128 20.5H3.50128M4.00128 20.5C4.00128 20.7761 3.77742 21 3.50128 21C3.22514 21 3.00128 20.7761 3.00128 20.5C3.00128 20.2239 3.22514 20 3.50128 20C3.77742 20 4.00128 20.2239 4.00128 20.5Z" stroke="currentColor" stroke-width="2" stroke-linecap="round" stroke-linejoin="round" />
    <path d="M14.6575 7.71197C14.2837 7.53362 13.836 7.69211 13.6577 8.06596C13.4793 8.43981 13.6378 8.88746 14.0117 9.06581L14.3346 8.38889L14.6575 7.71197ZM15.4457 9.5L14.7995 9.88072C14.9402 10.1195 15.201 10.2612 15.4779 10.2493C15.7547 10.2374 16.0025 10.0739 16.1221 9.82397L15.4457 9.5ZM18.0235 7.38261C18.3882 7.18627 18.5247 6.73144 18.3283 6.36671C18.132 6.00199 17.6772 5.86549 17.3124 6.06183L17.6679 6.72222L18.0235 7.38261ZM21.0013 8H20.2513C20.2513 10.3472 18.3485 12.25 16.0013 12.25V13V13.75C19.1769 13.75 21.7513 11.1756 21.7513 8H21.0013ZM16.0013 13V12.25C13.6541 12.25 11.7513 10.3472 11.7513 8H11.0013H10.2513C10.2513 11.1756 12.8256 13.75 16.0013 13.75V13ZM11.0013 8H11.7513C11.7513 5.65279 13.6541 3.75 16.0013 3.75V3V2.25C12.8256 2.25 10.2513 4.82436 10.2513 8H11.0013ZM16.0013 3V3.75C18.3485 3.75 20.2513 5.65279 20.2513 8H21.0013H21.7513C21.7513 4.82436 19.1769 2.25 16.0013 2.25V3ZM14.3346 8.38889C14.0117 9.06581 14.0114 9.06569 14.0112 9.06557C14.0111 9.06554 14.0109 9.06542 14.0107 9.06535C14.0104 9.0652 14.0101 9.06505 14.0098 9.06491C14.0092 9.06463 14.0087 9.06437 14.0082 9.06412C14.0072 9.06363 14.0063 9.0632 14.0055 9.06284C14.0041 9.06211 14.0032 9.06166 14.0028 9.06147C14.0021 9.06111 14.0035 9.06182 14.0069 9.06366C14.0138 9.06735 14.0284 9.07547 14.0495 9.08837C14.0917 9.11425 14.1587 9.15871 14.2396 9.22421C14.4016 9.35539 14.615 9.56744 14.7995 9.88072L15.4457 9.5L16.0919 9.11928C15.8003 8.62434 15.4581 8.28084 15.1836 8.05852C15.0462 7.94727 14.9247 7.86549 14.8331 7.80932C14.7871 7.78119 14.7485 7.75934 14.7187 7.74331C14.7039 7.73528 14.6912 7.7287 14.6809 7.7235C14.6758 7.7209 14.6713 7.71865 14.6674 7.71673C14.6654 7.71577 14.6636 7.71489 14.662 7.7141C14.6612 7.7137 14.6604 7.71333 14.6596 7.71297C14.6593 7.7128 14.6589 7.71263 14.6586 7.71246C14.6584 7.71237 14.6581 7.71225 14.658 7.71221C14.6578 7.71209 14.6575 7.71197 14.3346 8.38889ZM15.4457 9.5C16.1221 9.82397 16.1221 9.82408 16.122 9.82417C16.122 9.82419 16.122 9.82428 16.122 9.82433C16.1219 9.82441 16.1219 9.82447 16.1219 9.82449C16.1219 9.82453 16.1219 9.82445 16.122 9.82424C16.1222 9.82383 16.1227 9.82292 16.1233 9.82152C16.1247 9.81872 16.127 9.81399 16.1302 9.80742C16.1367 9.79428 16.1469 9.77384 16.1605 9.74697C16.1879 9.69318 16.229 9.61389 16.2824 9.51602C16.3896 9.31953 16.5438 9.05194 16.732 8.76709C17.1308 8.16351 17.5999 7.61065 18.0235 7.38261L17.6679 6.72222L17.3124 6.06183C16.5344 6.48067 15.8924 7.3167 15.4805 7.94028C15.2633 8.26902 15.0873 8.57458 14.9655 8.79786C14.9044 8.90986 14.8565 9.00211 14.8233 9.06738C14.8067 9.10004 14.7938 9.12601 14.7847 9.1444C14.7802 9.1536 14.7766 9.16091 14.774 9.16621C14.7728 9.16887 14.7717 9.17102 14.7709 9.17266C14.7705 9.17348 14.7702 9.17417 14.7699 9.17474C14.7698 9.17502 14.7697 9.17526 14.7696 9.17548C14.7695 9.17559 14.7695 9.17572 14.7694 9.17578C14.7694 9.17591 14.7693 9.17603 15.4457 9.5Z" fill="currentColor" />
</svg>