<svg xmlns="http://www.w3.org/2000/svg" width="24" height="24" viewBox="0 0 24 24" fill="none">
    <path opacity="0.4" d="M3.00128 6C5.94708 6 8.69432 6.84951 11.012 8.31641C11.1687 10.8254 13.175 12.8311 15.6839 12.9883C17.1512 15.3062 18.0013 18.0537 18.0013 21H3.00128V6Z" fill="currentColor" />
    <path d="M11.0013 21C11.0013 16.5817 7.41956 13 3.00128 13" stroke="currentColor" stroke-width="2" stroke-linecap="round" stroke-linejoin="round" />
    <path d="M3.75128 20.5H3.50128M4.00128 20.5C4.00128 20.7761 3.77742 21 3.50128 21C3.22514 21 3.00128 20.7761 3.00128 20.5C3.00128 20.2239 3.22514 20 3.50128 20C3.77742 20 4.00128 20.2239 4.00128 20.5Z" stroke="currentColor" stroke-width="2" stroke-linecap="round" stroke-linejoin="round" />
    <path d="M16.0013 10H16.0103M16.0013 7.5V5.5M21.0013 8C21.0013 10.7614 18.7627 13 16.0013 13C13.2399 13 11.0013 10.7614 11.0013 8C11.0013 5.23858 13.2399 3 16.0013 3C18.7627 3 21.0013 5.23858 21.0013 8Z" stroke="currentColor" stroke-width="2" stroke-linecap="round" stroke-linejoin="round" />
    <path d="M18.0013 21C18.0013 19.6148 17.8135 18.2734 17.462 17M3.00128 6C4.38649 6 5.72785 6.18777 7.00128 6.53923" stroke="currentColor" stroke-width="2" stroke-linecap="round" stroke-linejoin="round" />
</svg>