<svg xmlns="http://www.w3.org/2000/svg" width="24" height="24" viewBox="0 0 24 24" fill="none">
    <path opacity="0.4" d="M2.49229 13.5818C2.47031 17.9768 6.01534 21.5218 10.4103 21.4998C11.4998 21.4944 12.5393 21.2702 13.4869 20.8692C14.5667 20.4122 15.1067 20.1837 15.2594 19.4004C15.4121 18.6171 14.8913 18.0963 13.8499 17.0549L6.93724 10.1422C5.89578 9.10076 5.37506 8.58003 4.59172 8.73274C3.80838 8.88545 3.57988 9.42536 3.1229 10.5052C2.72188 11.4528 2.49774 12.4923 2.49229 13.5818Z" fill="currentColor" />
    <path d="M2.49229 13.5823C2.47031 17.9773 6.01534 21.5223 10.4103 21.5003C11.4998 21.4949 12.5393 21.2707 13.4869 20.8697C14.5667 20.4127 15.1067 20.1842 15.2594 19.4009C15.4121 18.6175 14.8913 18.0968 13.8499 17.0554L6.93724 10.1427C5.89578 9.10125 5.37506 8.58052 4.59172 8.73323C3.80838 8.88594 3.57988 9.42585 3.1229 10.5057C2.72188 11.4533 2.49774 12.4928 2.49229 13.5823Z" stroke="currentColor" stroke-width="2" stroke-linejoin="round" />
    <path d="M13.4922 6C15.9775 6 17.9922 8.01472 17.9922 10.5" stroke="currentColor" stroke-width="2" stroke-linecap="round" />
    <path d="M13.4922 2.5C17.9105 2.5 21.4922 6.08172 21.4922 10.5" stroke="currentColor" stroke-width="2" stroke-linecap="round" />
    <path d="M13.4932 10.5L10.3945 13.5995" stroke="currentColor" stroke-width="2" stroke-linecap="round" />
</svg>