<svg xmlns="http://www.w3.org/2000/svg" width="24" height="24" viewBox="0 0 24 24" fill="none">
    <path opacity="0.4" d="M9.99997 13.6754V3H14V12.0217C14 14.4102 14 15.6044 14.7962 16.1933C15.3672 16.6157 16.1304 16.566 17.3793 16.2614L19.1018 15.7954C18.44 15.9815 17.8719 16.1413 17.3793 16.2614L5.89734 19.3675C7.8774 18.7075 8.86743 18.3775 9.4337 17.5919C9.99997 16.8062 9.99997 15.7626 9.99997 13.6754Z" fill="currentColor" />
    <path d="M10 3V13.6754C10 15.7626 10 16.8062 9.43373 17.5919C8.86745 18.3775 7.87742 18.7075 5.89737 19.3675L4 20" stroke="currentColor" stroke-width="2" stroke-linecap="round" stroke-linejoin="round" />
    <path d="M14 3V12.0217C14 14.4102 14 15.6044 14.7962 16.1933C15.5924 16.7823 16.7622 16.4533 19.1018 15.7954L20 15.5428" stroke="currentColor" stroke-width="2" stroke-linecap="round" stroke-linejoin="round" />
    <path d="M14 21L20 19.5" stroke="currentColor" stroke-width="2" stroke-linecap="round" stroke-linejoin="round" />
    <path d="M5 15L20 11" stroke="currentColor" stroke-width="2" stroke-linecap="round" stroke-linejoin="round" />
</svg>