<svg xmlns="http://www.w3.org/2000/svg" width="24" height="24" viewBox="0 0 24 24" fill="none">
    <path opacity="0.4" d="M2.99219 11C2.99219 7.22876 2.99219 5.34315 4.16376 4.17157C5.33533 3 7.22095 3 10.9922 3H16.9922C18.8778 3 19.8206 3 20.4064 3.58579C20.9922 4.17157 20.9922 5.11438 20.9922 7V13C20.9922 16.7712 20.9922 18.6569 19.8206 19.8284C18.649 21 16.7634 21 12.9922 21H10.9922C7.22095 21 5.33533 21 4.16376 19.8284C2.99219 18.6569 2.99219 16.7712 2.99219 13V11Z" fill="currentColor" />
    <path d="M21.4915 13.0003C21.4839 16.8201 21.3845 18.8255 20.1009 20.1091C18.7097 21.5003 16.4705 21.5003 11.9922 21.5003C7.51384 21.5003 5.27467 21.5003 3.88343 20.1091C2.49219 18.7178 2.49219 16.4787 2.49219 12.0003C2.49219 7.52199 2.49219 5.28282 3.88343 3.89157C5.16702 2.60798 7.1724 2.50866 10.9922 2.50098" stroke="currentColor" stroke-width="2" stroke-linecap="round" />
    <path d="M7.96186 14.97C7.66896 15.2629 7.66896 15.7377 7.96186 16.0306C8.25475 16.3235 8.72962 16.3235 9.02252 16.0306L8.49219 15.5003L7.96186 14.97ZM21.0225 4.03062C21.3154 3.73773 21.3154 3.26285 21.0225 2.96996C20.7296 2.67707 20.2548 2.67707 19.9619 2.96996L20.4922 3.50029L21.0225 4.03062ZM8.40487 15.5876L8.9352 15.0573H8.9352L8.40487 15.5876ZM8.84601 10.0588C8.87832 9.64583 8.56974 9.28488 8.15679 9.25257C7.74384 9.22027 7.38289 9.52885 7.35058 9.9418L8.0983 10.0003L8.84601 10.0588ZM14.0507 16.6419C14.4636 16.6096 14.7722 16.2486 14.7399 15.8357C14.7076 15.4227 14.3466 15.1141 13.9337 15.1464L13.9922 15.8941L14.0507 16.6419ZM20.6384 8.44151C20.6061 8.85446 20.9146 9.21541 21.3276 9.24772C21.7405 9.28002 22.1015 8.97144 22.1338 8.55849L21.3861 8.5L20.6384 8.44151ZM15.4337 1.85843C15.0207 1.89073 14.7122 2.25169 14.7445 2.66464C14.7768 3.07759 15.1377 3.38616 15.5507 3.35386L15.4922 2.60614L15.4337 1.85843ZM8.49219 15.5003L9.02252 16.0306L21.0225 4.03062L20.4922 3.50029L19.9619 2.96996L7.96186 14.97L8.49219 15.5003ZM8.40487 15.5876L8.9352 15.0573C8.99209 15.1142 8.96425 15.1214 8.91633 14.9488C8.87591 14.8033 8.83985 14.5997 8.81153 14.3418C8.75516 13.8284 8.73823 13.1852 8.74294 12.5408C8.74761 11.9008 8.77338 11.2793 8.79814 10.8164C8.8105 10.5854 8.82255 10.3949 8.83148 10.2626C8.83595 10.1965 8.83962 10.1449 8.84216 10.1102C8.84343 10.0928 8.84442 10.0797 8.84508 10.071C8.84541 10.0667 8.84565 10.0635 8.84581 10.0614C8.84589 10.0604 8.84595 10.0597 8.84598 10.0592C8.846 10.059 8.84601 10.0589 8.84601 10.0588C8.84602 10.0587 8.84602 10.0587 8.84602 10.0587C8.84602 10.0587 8.84601 10.0588 8.0983 10.0003C7.35058 9.9418 7.35058 9.94188 7.35057 9.94197C7.35057 9.94202 7.35056 9.94213 7.35055 9.94225C7.35053 9.94247 7.35051 9.94277 7.35048 9.94314C7.35042 9.94388 7.35034 9.94492 7.35024 9.94625C7.35003 9.94891 7.34974 9.95273 7.34937 9.95769C7.34861 9.9676 7.34753 9.98204 7.34617 10.0007C7.34343 10.0381 7.33955 10.0924 7.33489 10.1616C7.32556 10.2998 7.31307 10.4973 7.30029 10.7363C7.27477 11.2132 7.24787 11.8592 7.24298 12.5299C7.23811 13.1961 7.25472 13.9066 7.32049 14.5055C7.35324 14.8038 7.4004 15.0959 7.47104 15.3502C7.53417 15.5776 7.64522 15.8886 7.87453 16.118L8.40487 15.5876ZM13.9922 15.8941C13.9337 15.1464 13.9337 15.1464 13.9337 15.1464C13.9337 15.1464 13.9337 15.1464 13.9337 15.1464C13.9336 15.1464 13.9335 15.1465 13.9332 15.1465C13.9328 15.1465 13.9321 15.1466 13.931 15.1466C13.929 15.1468 13.9258 15.147 13.9214 15.1474C13.9128 15.148 13.8996 15.149 13.8823 15.1503C13.8475 15.1528 13.796 15.1565 13.7299 15.161C13.5976 15.1699 13.4071 15.182 13.1761 15.1943C12.7132 15.2191 12.0917 15.2449 11.4517 15.2495C10.8073 15.2542 10.1641 15.2373 9.6507 15.181C9.39283 15.1526 9.18918 15.1166 9.04367 15.0762C8.87114 15.0282 8.87831 15.0004 8.9352 15.0573L8.40487 15.5876L7.87453 16.118C8.10385 16.3473 8.41493 16.4583 8.64225 16.5215C8.89659 16.5921 9.18872 16.6393 9.48698 16.672C10.0859 16.7378 10.7964 16.7544 11.4626 16.7495C12.1332 16.7446 12.7793 16.7177 13.2562 16.6922C13.4951 16.6794 13.6927 16.6669 13.8309 16.6576C13.9 16.6529 13.9544 16.649 13.9918 16.6463C14.0105 16.6449 14.0249 16.6438 14.0348 16.6431C14.0398 16.6427 14.0436 16.6424 14.0462 16.6422C14.0476 16.6421 14.0486 16.642 14.0493 16.642C14.0497 16.6419 14.05 16.6419 14.0502 16.6419C14.0504 16.6419 14.0505 16.6419 14.0505 16.6419C14.0506 16.6419 14.0507 16.6419 13.9922 15.8941ZM21.0795 2.91266L20.5492 3.44299C20.4923 3.3861 20.5201 3.37894 20.568 3.55147C20.6085 3.69698 20.6445 3.90063 20.6728 4.15851C20.7292 4.67188 20.7461 5.31509 20.7414 5.95949C20.7368 6.5995 20.711 7.22099 20.6862 7.6839C20.6739 7.91491 20.6618 8.10541 20.6529 8.23771C20.6484 8.30384 20.6448 8.35537 20.6422 8.39009C20.6409 8.40744 20.64 8.42059 20.6393 8.42926C20.639 8.43359 20.6387 8.4368 20.6386 8.43885C20.6385 8.43988 20.6384 8.44062 20.6384 8.44106C20.6384 8.44129 20.6384 8.44143 20.6384 8.44151C20.6384 8.44155 20.6384 8.44155 20.6384 8.44157C20.6384 8.44155 20.6384 8.44151 21.3861 8.5C22.1338 8.55849 22.1338 8.55841 22.1338 8.55832C22.1338 8.55827 22.1338 8.55815 22.1338 8.55804C22.1338 8.55782 22.1339 8.55752 22.1339 8.55715C22.134 8.55641 22.134 8.55537 22.1341 8.55404C22.1343 8.55138 22.1346 8.54756 22.135 8.5426C22.1358 8.53269 22.1368 8.51825 22.1382 8.49957C22.1409 8.46221 22.1448 8.40784 22.1495 8.33871C22.1588 8.20047 22.1713 8.00295 22.1841 7.76403C22.2096 7.28708 22.2365 6.64105 22.2414 5.97044C22.2463 5.30422 22.2297 4.5937 22.1639 3.99478C22.1311 3.69652 22.084 3.40439 22.0133 3.15005C21.9502 2.92273 21.8392 2.61165 21.6098 2.38234L21.0795 2.91266ZM15.4922 2.60614C15.5507 3.35386 15.5506 3.35386 15.5506 3.35386C15.5506 3.35386 15.5506 3.35386 15.5507 3.35386C15.5508 3.35385 15.5509 3.35384 15.5511 3.35382C15.5516 3.35379 15.5523 3.35373 15.5533 3.35365C15.5554 3.35349 15.5586 3.35325 15.5629 3.35292C15.5716 3.35226 15.5848 3.35128 15.6021 3.35001C15.6368 3.34746 15.6884 3.34378 15.7545 3.33932C15.8868 3.33039 16.0773 3.31834 16.3083 3.30598C16.7712 3.28121 17.3927 3.25543 18.0327 3.25075C18.6771 3.24604 19.3203 3.26296 19.8337 3.31933C20.0915 3.34764 20.2952 3.38371 20.4407 3.42412C20.6132 3.47204 20.6061 3.49989 20.5492 3.44299L21.0795 2.91266L21.6098 2.38234C21.3805 2.15302 21.0694 2.04197 20.8421 1.97883C20.5878 1.90819 20.2957 1.86104 19.9974 1.82829C19.3985 1.76253 18.688 1.74592 18.0217 1.75079C17.3511 1.75569 16.7051 1.7826 16.2281 1.80812C15.9892 1.8209 15.7917 1.8334 15.6535 1.84273C15.5843 1.84739 15.53 1.85127 15.4926 1.85401C15.4739 1.85537 15.4595 1.85646 15.4496 1.85721C15.4446 1.85758 15.4408 1.85788 15.4381 1.85808C15.4368 1.85818 15.4358 1.85826 15.435 1.85832C15.4347 1.85835 15.4344 1.85837 15.4341 1.85839C15.434 1.8584 15.4339 1.85841 15.4339 1.85841C15.4338 1.85842 15.4337 1.85843 15.4922 2.60614Z" fill="currentColor" />
</svg>