<svg xmlns="http://www.w3.org/2000/svg" width="24" height="24" viewBox="0 0 24 24" fill="none">
    <path d="M8.99219 4.00012H17.9922C19.8778 4.00012 20.8206 4.00012 21.4064 4.58591C21.9922 5.17169 21.9922 6.1145 21.9922 8.00012C21.9922 9.88574 21.9922 10.8285 21.4064 11.4143C20.8206 12.0001 19.8778 12.0001 17.9922 12.0001H16.9922" stroke="currentColor" stroke-width="2" stroke-linecap="round" stroke-linejoin="round" />
    <path opacity="0.4" fill-rule="evenodd" clip-rule="evenodd" d="M4.03854 4.04602L11.9923 11.9997L5.99219 11.9997C4.10657 11.9997 3.16376 11.9997 2.57797 11.4139C1.99219 10.8281 1.99219 9.88528 1.99219 7.99967C1.99219 6.11405 1.99219 5.17124 2.57797 4.58545C2.91227 4.25116 3.36283 4.10764 4.03854 4.04602Z" fill="currentColor" />
    <path opacity="0.4" fill-rule="evenodd" clip-rule="evenodd" d="M11.9923 12.0002L5.99223 12.0001C4.10659 12.0001 3.16378 12.0001 2.57798 12.5859C1.99219 13.1717 1.99219 14.1145 1.99219 16.0002C1.99219 17.8859 1.99219 18.8287 2.57797 19.4145C3.16376 20.0003 4.10657 20.0003 5.99219 20.0003H17.9922C18.8018 20.0003 19.4376 20.0003 19.946 19.9539L11.9923 12.0002Z" fill="currentColor" />
    <path d="M11.9922 12.0002H5.99219C4.10657 12.0002 3.16376 12.0002 2.57797 11.4144C1.99219 10.8286 1.99219 9.88578 1.99219 8.00016C1.99219 6.11454 1.99219 5.17173 2.57797 4.58594C2.90456 4.25935 3.34213 4.11484 3.99219 4.0509" stroke="currentColor" stroke-width="2" stroke-linecap="round" stroke-linejoin="round" />
    <path d="M19.4922 19.9828C19.0712 20.0003 18.5771 20.0003 17.9922 20.0003H5.99219C4.10657 20.0003 3.16376 20.0003 2.57797 19.4145C1.99219 18.8287 1.99219 17.8859 1.99219 16.0002C1.99219 14.1145 1.99219 13.1717 2.57798 12.5859C3.16378 12.0001 4.10659 12.0001 5.99223 12.0001L11.9922 12.0002" stroke="currentColor" stroke-width="2" stroke-linecap="round" stroke-linejoin="round" />
    <path d="M16.9922 12.0002L17.9922 12.0003C19.8778 12.0003 20.8206 12.0003 21.4064 12.5861C21.9922 13.1719 21.9922 14.1147 21.9922 16.0003C21.9922 16.368 21.9922 16.6999 21.9878 17.0002" stroke="currentColor" stroke-width="2" stroke-linecap="round" stroke-linejoin="round" />
    <path d="M6.11719 8.00012H5.99219M6.24219 8.00012C6.24219 8.13819 6.13026 8.25012 5.99219 8.25012C5.85412 8.25012 5.74219 8.13819 5.74219 8.00012C5.74219 7.86205 5.85412 7.75012 5.99219 7.75012C6.13026 7.75012 6.24219 7.86205 6.24219 8.00012Z" stroke="currentColor" stroke-width="2" stroke-linecap="round" stroke-linejoin="round" />
    <path d="M6.11719 16.0001H5.99219M6.24219 16.0001C6.24219 16.1382 6.13026 16.2501 5.99219 16.2501C5.85412 16.2501 5.74219 16.1382 5.74219 16.0001C5.74219 15.8621 5.85412 15.7501 5.99219 15.7501C6.13026 15.7501 6.24219 15.8621 6.24219 16.0001Z" stroke="currentColor" stroke-width="2" stroke-linecap="round" stroke-linejoin="round" />
    <path d="M10.1172 16.0001H9.99219M10.2422 16.0001C10.2422 16.1382 10.1303 16.2501 9.99219 16.2501C9.85412 16.2501 9.74219 16.1382 9.74219 16.0001C9.74219 15.8621 9.85412 15.7501 9.99219 15.7501C10.1303 15.7501 10.2422 15.8621 10.2422 16.0001Z" stroke="currentColor" stroke-width="2" stroke-linecap="round" stroke-linejoin="round" />
    <path d="M1.99219 2.00012L21.9922 22.0001" stroke="currentColor" stroke-width="2" stroke-linecap="round" />
</svg>