<svg xmlns="http://www.w3.org/2000/svg" width="24" height="24" viewBox="0 0 24 24" fill="none">
    <path opacity="0.4" fill-rule="evenodd" clip-rule="evenodd" d="M20.9922 8.28029V11.1833C20.9922 13.6088 20.0509 15.6159 18.7772 17.2216C18.5489 17.0811 18.28 17 17.9922 17C17.1638 17 16.4922 17.6716 16.4922 18.5C16.4922 18.7959 16.5779 19.0718 16.7258 19.3042C15.5242 20.308 14.3004 21.0432 13.3982 21.5194C12.7911 21.8398 12.4876 22 11.9922 22C11.4968 22 11.1932 21.8398 10.5861 21.5194C8.05496 20.1835 2.99219 16.8085 2.99219 11.1833V8.28029C2.99219 6.64029 2.99219 5.82028 3.3963 5.28529C3.80041 4.7503 4.71411 4.49056 6.54151 3.9711C7.79002 3.6162 8.89057 3.18863 9.7699 2.79829C10.9688 2.2661 11.5682 2 11.9922 2C12.4161 2 13.0156 2.2661 14.2145 2.79829C15.0938 3.18863 16.1944 3.6162 17.4429 3.9711C19.2703 4.49056 20.184 4.75029 20.5881 5.28529C20.9922 5.82028 20.9922 6.64029 20.9922 8.28029Z" fill="currentColor" />
    <path d="M20.9561 12C20.9799 11.7332 20.9922 11.461 20.9922 11.1833V8.28029C20.9922 6.64029 20.9922 5.82028 20.5881 5.28529C20.184 4.75029 19.2703 4.49056 17.4429 3.9711C16.1944 3.6162 15.0938 3.18863 14.2145 2.79829C13.0156 2.2661 12.4161 2 11.9922 2C11.5682 2 10.9688 2.2661 9.7699 2.79829C8.89057 3.18863 7.79002 3.61619 6.54152 3.9711C4.71411 4.49056 3.80041 4.75029 3.3963 5.28529C2.99219 5.82028 2.99219 6.64029 2.99219 8.28029V11.1833C2.99219 16.8085 8.05496 20.1835 10.5861 21.5194C11.1932 21.8398 11.4968 22 11.9922 22" stroke="currentColor" stroke-width="2" stroke-linecap="round" />
    <path d="M17.9922 20.5L17.9922 22M17.9922 20.5C18.7292 20.5 19.3731 20.1013 19.72 19.5079M17.9922 20.5C17.2552 20.5 16.6113 20.1013 16.2643 19.5079M17.9922 16.5L17.9922 15M17.9922 16.5C18.7292 16.5 19.3731 16.8987 19.72 17.4921M16.2643 19.5079C16.0913 19.212 15.9922 18.8676 15.9922 18.5C15.9922 18.1324 16.0913 17.788 16.2644 17.4921C16.6113 16.8987 17.2552 16.5 17.9922 16.5M20.9922 16.75L19.72 17.4921M14.9922 20.25L16.2643 19.5079M20.9922 20.25L19.72 19.5079M14.9922 16.75L16.2644 17.4921M19.72 19.5079C19.893 19.2119 19.9922 18.8676 19.9922 18.5C19.9922 18.1324 19.893 17.788 19.72 17.4921" stroke="currentColor" stroke-width="2" stroke-linecap="round" stroke-linejoin="round" />
</svg>