<svg xmlns="http://www.w3.org/2000/svg" width="24" height="24" viewBox="0 0 24 24" fill="none">
    <path d="M3.99213 6.99976C4.06909 5.58248 4.27965 4.66416 4.85575 3.96218C5.02197 3.75965 5.20768 3.57393 5.41022 3.40771C6.51657 2.49976 8.16031 2.49976 11.4478 2.49976L11.9921 2.49992C15.7634 2.49992 17.649 2.49992 18.8206 3.67149C19.9921 4.84306 19.9921 6.72868 19.9921 10.4999V13.4999C19.9921 17.2712 19.9921 19.1568 18.8206 20.3283C17.649 21.4999 15.7634 21.4999 11.9921 21.4999L11.4478 21.4998C8.16031 21.4998 6.51657 21.4998 5.41022 20.5918C5.20768 20.4256 5.02197 20.2399 4.85575 20.0373C4.27965 19.3354 4.06909 18.417 3.99213 16.9998" stroke="currentColor" stroke-width="2" stroke-linecap="round" />
    <path opacity="0.4" d="M12.4922 2.49988H11.9922C8.22095 2.49988 6.33533 2.49988 5.16376 3.67145C3.99219 4.84302 3.99219 6.72864 3.99219 10.4999V13.4999C3.99219 17.2711 3.99219 19.1567 5.16376 20.3283C6.33533 21.4999 8.22095 21.4999 11.9922 21.4999H12.4922C15.7797 21.4999 17.4234 21.4999 18.5298 20.5919C18.7323 20.4257 18.918 20.24 19.0842 20.0375C19.9922 18.9311 19.9922 17.2874 19.9922 13.9999V9.99988C19.9922 6.7124 19.9922 5.06866 19.0842 3.9623C18.918 3.75977 18.7323 3.57405 18.5298 3.40784C17.4234 2.49988 15.7797 2.49988 12.4922 2.49988Z" fill="currentColor" />
    <path d="M10.9922 7.99988C10.9922 7.99988 14.9922 10.9458 14.9922 11.9999C14.9922 13.054 10.9922 15.9999 10.9922 15.9999M14.4922 11.9999H3.99219" stroke="currentColor" stroke-width="2" stroke-linecap="round" stroke-linejoin="round" />
</svg>