<svg xmlns="http://www.w3.org/2000/svg" width="24" height="24" viewBox="0 0 24 24" fill="none">
    <path opacity="0.4" d="M4.31021 19.682C2.99219 18.364 2.99219 16.2426 2.99219 12C2.99219 7.75736 2.99219 5.63604 4.31021 4.31802C5.62823 3 7.74955 3 11.9922 3C16.2348 3 18.3561 3 19.6742 4.31802C20.9922 5.63604 20.9922 7.75736 20.9922 12C20.9922 16.2426 20.9922 18.364 19.6742 19.682C18.3561 21 16.2348 21 11.9922 21C7.74955 21 5.62823 21 4.31021 19.682Z" fill="currentColor" />
    <path d="M10.4922 3.00195C7.22965 3.02011 5.46278 3.16479 4.31021 4.31737C2.99219 5.63539 2.99219 7.75671 2.99219 11.9993C2.99219 16.242 2.99219 18.3633 4.31021 19.6813C5.62823 20.9993 7.74955 20.9993 11.9922 20.9993C16.2348 20.9993 18.3561 20.9993 19.6742 19.6813C20.8267 18.5288 20.9714 16.7619 20.9896 13.4993" stroke="currentColor" stroke-width="2" stroke-linecap="round" />
    <path d="M10.4618 12.4679C10.169 12.7608 10.169 13.2357 10.4619 13.5286C10.7548 13.8215 11.2297 13.8214 11.5225 13.5285L10.9922 12.9982L10.4618 12.4679ZM20.8724 4.17798C21.1653 3.88507 21.1653 3.4102 20.8724 3.11732C20.5795 2.82443 20.1046 2.82445 19.8117 3.11735L20.3421 3.64767L20.8724 4.17798ZM20.1384 8.94054C20.1061 9.35349 20.4146 9.71444 20.8276 9.74674C21.2405 9.77904 21.6015 9.47046 21.6338 9.05751L20.8861 8.99902L20.1384 8.94054ZM14.9337 2.35745C14.5207 2.38976 14.2122 2.75071 14.2445 3.16366C14.2768 3.57661 14.6377 3.88519 15.0507 3.85288L14.9922 3.10516L14.9337 2.35745ZM10.9922 12.9982L11.5225 13.5285L20.8724 4.17798L20.3421 3.64767L19.8117 3.11735L10.4618 12.4679L10.9922 12.9982ZM20.5795 3.41169L20.0492 3.94201C19.9923 3.88512 20.0201 3.87796 20.068 4.0505C20.1085 4.196 20.1445 4.39966 20.1728 4.65753C20.2292 5.1709 20.2461 5.81411 20.2414 6.45851C20.2368 7.09852 20.211 7.72002 20.1862 8.18292C20.1739 8.41393 20.1618 8.60443 20.1529 8.73673C20.1484 8.80286 20.1448 8.85439 20.1422 8.88911C20.1409 8.90647 20.14 8.91962 20.1393 8.92828C20.139 8.93261 20.1387 8.93582 20.1386 8.93788C20.1385 8.9389 20.1384 8.93964 20.1384 8.94009C20.1384 8.94031 20.1384 8.94046 20.1384 8.94053C20.1384 8.94057 20.1384 8.94057 20.1384 8.94059C20.1384 8.94057 20.1384 8.94054 20.8861 8.99902C21.6338 9.05751 21.6338 9.05744 21.6338 9.05735C21.6338 9.05729 21.6338 9.05718 21.6338 9.05707C21.6338 9.05684 21.6339 9.05655 21.6339 9.05618C21.634 9.05543 21.634 9.05439 21.6341 9.05306C21.6343 9.05041 21.6346 9.04658 21.635 9.04162C21.6358 9.03171 21.6368 9.01728 21.6382 8.99859C21.6409 8.96123 21.6448 8.90687 21.6495 8.83773C21.6588 8.6995 21.6713 8.50198 21.6841 8.26305C21.7096 7.7861 21.7365 7.14007 21.7414 6.46946C21.7463 5.80324 21.7297 5.09272 21.6639 4.49381C21.6311 4.19554 21.584 3.90341 21.5133 3.64907C21.4502 3.42176 21.3392 3.11068 21.1098 2.88136L20.5795 3.41169ZM14.9922 3.10516C15.0507 3.85288 15.0506 3.85288 15.0506 3.85288C15.0506 3.85288 15.0506 3.85288 15.0507 3.85288C15.0508 3.85287 15.0509 3.85286 15.0511 3.85284C15.0516 3.85281 15.0523 3.85275 15.0533 3.85267C15.0554 3.85252 15.0586 3.85227 15.0629 3.85194C15.0716 3.85128 15.0848 3.8503 15.1021 3.84903C15.1368 3.84649 15.1884 3.84281 15.2545 3.83834C15.3868 3.82941 15.5773 3.81736 15.8083 3.805C16.2712 3.78023 16.8927 3.75445 17.5327 3.74977C18.1771 3.74506 18.8203 3.76198 19.3337 3.81835C19.5915 3.84667 19.7952 3.88273 19.9407 3.92314C20.1132 3.97107 20.1061 3.99891 20.0492 3.94201L20.5795 3.41169L21.1098 2.88136C20.8805 2.65204 20.5694 2.54099 20.3421 2.47786C20.0878 2.40721 19.7957 2.36006 19.4974 2.32731C18.8985 2.26155 18.188 2.24494 17.5217 2.24981C16.8511 2.25472 16.2051 2.28162 15.7281 2.30714C15.4892 2.31993 15.2917 2.33242 15.1535 2.34175C15.0843 2.34642 15.03 2.3503 14.9926 2.35303C14.9739 2.3544 14.9595 2.35548 14.9496 2.35623C14.9446 2.35661 14.9408 2.3569 14.9381 2.3571C14.9368 2.35721 14.9358 2.35729 14.935 2.35735C14.9347 2.35737 14.9344 2.3574 14.9341 2.35741C14.934 2.35742 14.9339 2.35743 14.9339 2.35744C14.9338 2.35744 14.9337 2.35745 14.9922 3.10516Z" fill="currentColor" />
</svg>