<svg xmlns="http://www.w3.org/2000/svg" width="24" height="24" viewBox="0 0 24 24" fill="none">
    <path opacity="0.4" d="M3.99219 12C3.99219 8.22876 3.99219 6.34315 5.16376 5.17157C6.33533 4 8.22095 4 11.9922 4C15.7634 4 17.649 4 18.8206 5.17157C19.9922 6.34315 19.9922 8.22876 19.9922 12C19.9922 15.7712 19.9922 17.6569 18.8206 18.8284C17.649 20 15.7634 20 11.9922 20C8.22095 20 6.33533 20 5.16376 18.8284C3.99219 17.6569 3.99219 15.7712 3.99219 12Z" fill="currentColor" />
    <path d="M11.9922 21L11.9922 20L11.9922 4L11.9922 3" stroke="currentColor" stroke-width="2" stroke-linecap="round" stroke-linejoin="round" />
    <path d="M7.99219 19.9995C6.69208 19.8699 5.81694 19.5772 5.16376 18.9157C3.99219 17.7291 3.99219 15.8193 3.99219 11.9997C3.99219 8.18016 3.99219 6.27038 5.16376 5.08379C5.81694 4.42224 6.69207 4.12952 7.99219 4" stroke="currentColor" stroke-width="2" stroke-linecap="round" />
    <path d="M15.9922 19.9998C17.2923 19.8703 18.1674 19.5776 18.8206 18.916C19.9922 17.7294 19.9922 15.8196 19.9922 12.0001C19.9922 8.1805 19.9922 6.27072 18.8206 5.08413C18.192 4.44741 17.3577 4.15236 16.1368 4.01562" stroke="currentColor" stroke-width="2" stroke-linecap="round" />
</svg>