<svg xmlns="http://www.w3.org/2000/svg" width="24" height="24" viewBox="0 0 24 24" fill="none">
    <path opacity="0.4" d="M2.75578 3.31779C1.99219 4.2753 1.99219 5.68353 1.99219 8.5C1.99219 11.3165 1.99219 12.7247 2.75578 13.6822C2.91918 13.8871 3.10508 14.073 3.30997 14.2364C4.26748 15 5.67572 15 8.49219 15C8.66409 15 8.83074 15 8.99236 14.9998C8.99503 12.5133 9.03879 11.2169 9.75578 10.3178C9.91918 10.1129 10.1051 9.92699 10.31 9.76359C11.209 9.0466 12.5055 9.00284 14.992 9.00017C14.9922 8.83855 14.9922 8.6719 14.9922 8.5C14.9922 5.68353 14.9922 4.2753 14.2286 3.31779C14.0652 3.11289 13.8793 2.92699 13.6744 2.76359C12.7169 2 11.3087 2 8.49219 2C5.67572 2 4.26748 2 3.30997 2.76359C3.10508 2.92699 2.91918 3.11289 2.75578 3.31779Z" fill="currentColor" />
    <path d="M8.99219 14.9998C8.83062 15 8.66402 15 8.49219 15C5.67572 15 4.26748 15 3.30997 14.2364C3.10508 14.073 2.91918 13.8871 2.75578 13.6822C1.99219 12.7247 1.99219 11.3165 1.99219 8.5C1.99219 5.68353 1.99219 4.2753 2.75578 3.31779C2.91918 3.11289 3.10508 2.92699 3.30997 2.76359C4.26748 2 5.67572 2 8.49219 2C11.3087 2 12.7169 2 13.6744 2.76359C13.8793 2.92699 14.0652 3.11289 14.2286 3.31779C14.9922 4.2753 14.9922 5.68353 14.9922 8.5C14.9922 8.67184 14.9922 8.83843 14.992 9" stroke="currentColor" stroke-width="2" stroke-linecap="round" />
    <path d="M8.99219 14.9998C8.99486 12.5132 9.0386 11.2167 9.7556 10.3176C9.919 10.1127 10.1049 9.92682 10.3098 9.76342C11.2089 9.04641 12.5054 9.00267 14.992 9" stroke="currentColor" stroke-width="2" stroke-linecap="round" />
    <path d="M21.9922 14.5V16.5M16.4922 22H14.4922M21.9922 12C21.9267 11.1196 21.7704 10.5249 21.3969 10.0579C21.2594 9.88599 21.103 9.73003 20.9307 9.59294C20.464 9.22181 19.87 9.06568 18.9922 9H18.4922M21.9922 19C21.9265 19.8778 21.7704 20.4718 21.3992 20.9385C21.2622 21.1109 21.1062 21.2673 20.9343 21.4047C20.4673 21.7782 19.8725 21.9345 18.9922 22M11.9922 22C11.1143 21.9343 10.5204 21.7782 10.0537 21.4071C9.88133 21.27 9.72493 21.114 9.58746 20.9421C9.21401 20.4751 9.05765 19.8804 8.99219 19L8.99219 18.5" stroke="currentColor" stroke-width="2" stroke-linecap="round" />
</svg>