<svg xmlns="http://www.w3.org/2000/svg" width="24" height="24" viewBox="0 0 24 24" fill="none">
    <path opacity="0.4" d="M3.99219 12C3.99219 8.22876 3.99219 6.34315 5.16376 5.17157C6.33533 4 8.22095 4 11.9922 4C15.7634 4 17.649 4 18.8206 5.17157C19.9922 6.34315 19.9922 8.22876 19.9922 12C19.9922 15.7712 19.9922 17.6569 18.8206 18.8284C17.649 20 15.7634 20 11.9922 20C8.22095 20 6.33533 20 5.16376 18.8284C3.99219 17.6569 3.99219 15.7712 3.99219 12Z" fill="currentColor" />
    <path d="M20.9922 12L2.99219 12" stroke="currentColor" stroke-width="2" stroke-linecap="round" stroke-linejoin="round" />
    <path d="M19.9917 15.9993C19.8621 17.2994 19.5694 18.1745 18.9079 18.8277C17.7213 19.9993 15.8115 19.9993 11.9919 19.9993C8.17235 19.9993 6.26257 19.9993 5.07598 18.8277C4.41443 18.1745 4.12171 17.2994 3.99219 15.9993" stroke="currentColor" stroke-width="2" stroke-linecap="round" />
    <path d="M19.992 7.99927C19.8625 6.69915 19.5697 5.82402 18.9082 5.17084C17.7216 3.99927 15.8118 3.99927 11.9923 3.99927C8.17269 3.99927 6.26291 3.99927 5.07632 5.17084C4.4396 5.7995 4.14454 6.63376 4.00781 7.85464" stroke="currentColor" stroke-width="2" stroke-linecap="round" />
</svg>