<svg xmlns="http://www.w3.org/2000/svg" width="24" height="24" viewBox="0 0 24 24" fill="none">
    <path opacity="0.4" fill-rule="evenodd" clip-rule="evenodd" d="M12 2.5C16.4783 2.5 18.7172 2.50036 20.1084 3.8916C21.4996 5.28284 21.5 7.52166 21.5 12C21.5 16.4783 21.4996 18.7172 20.1084 20.1084C18.7172 21.4996 16.4783 21.5 12 21.5C7.52166 21.5 5.28284 21.4996 3.8916 20.1084C2.50036 18.7172 2.5 16.4783 2.5 12C2.5 7.52166 2.50036 5.28284 3.8916 3.8916C5.28284 2.50036 7.52166 2.5 12 2.5ZM12 7C9.23858 7 7 9.23858 7 12C7 14.7614 9.23858 17 12 17C14.7614 17 17 14.7614 17 12C17 9.23858 14.7614 7 12 7Z" fill="currentColor" />
    <path d="M2.5 12C2.5 7.52166 2.5 5.28249 3.89124 3.89124C5.28249 2.5 7.52166 2.5 12 2.5C16.4783 2.5 18.7175 2.5 20.1088 3.89124C21.5 5.28249 21.5 7.52166 21.5 12C21.5 16.4783 21.5 18.7175 20.1088 20.1088C18.7175 21.5 16.4783 21.5 12 21.5C7.52166 21.5 5.28249 21.5 3.89124 20.1088C2.5 18.7175 2.5 16.4783 2.5 12Z" stroke="currentColor" stroke-width="2" stroke-linecap="round" stroke-linejoin="round" />
    <path d="M16.0004 9C16.6281 9.83566 17 10.8744 17 12C17 14.7614 14.7614 17 12 17C9.23858 17 7 14.7614 7 12C7 10.8744 7.37194 9.83566 7.99963 9" stroke="currentColor" stroke-width="2" stroke-linecap="round" stroke-linejoin="round" />
    <path d="M12 7V12" stroke="currentColor" stroke-width="2" stroke-linecap="round" stroke-linejoin="round" />
</svg>