<svg xmlns="http://www.w3.org/2000/svg" width="24" height="24" viewBox="0 0 24 24" fill="none">
    <path opacity="0.4" d="M12.4922 2.5H11.9922C8.22095 2.5 6.33533 2.5 5.16376 3.67157C3.99219 4.84315 3.99219 6.72876 3.99219 10.5V13.5C3.99219 17.2712 3.99219 19.1569 5.16376 20.3284C6.33533 21.5 8.22095 21.5 11.9922 21.5H12.4922C15.7797 21.5 17.4234 21.5 18.5298 20.592C18.7323 20.4258 18.918 20.2401 19.0842 20.0376C19.9922 18.9312 19.9922 17.2875 19.9922 14V10C19.9922 6.71252 19.9922 5.06878 19.0842 3.96243C18.918 3.75989 18.7323 3.57418 18.5298 3.40796C17.4234 2.5 15.7797 2.5 12.4922 2.5Z" fill="currentColor" />
    <path d="M19.9921 6.99988C19.9152 5.5826 19.7046 4.66428 19.1285 3.9623C18.9623 3.75977 18.7766 3.57405 18.574 3.40784C17.4677 2.49988 15.8239 2.49988 12.5365 2.49988L11.9921 2.50004C8.22089 2.50004 6.33527 2.50004 5.1637 3.67161C3.99213 4.84318 3.99213 6.7288 3.99213 10.5V13.5C3.99213 17.2713 3.99213 19.1569 5.1637 20.3285C6.33527 21.5 8.22089 21.5 11.9921 21.5L12.5365 21.4999C15.8239 21.4999 17.4677 21.4999 18.574 20.5919C18.7766 20.4257 18.9623 20.24 19.1285 20.0375C19.7046 19.3355 19.9152 18.4172 19.9921 16.9999" stroke="currentColor" stroke-width="2" stroke-linecap="round" />
    <path d="M15.9922 8C15.9922 8 19.9922 10.946 19.9922 12C19.9922 13.0541 15.9922 16 15.9922 16M19.4922 12H8.99219" stroke="currentColor" stroke-width="2" stroke-linecap="round" stroke-linejoin="round" />
</svg>