<svg xmlns="http://www.w3.org/2000/svg" width="24" height="24" viewBox="0 0 24 24" fill="none">
    <path opacity="0.4" fill-rule="evenodd" clip-rule="evenodd" d="M3.87868 2.87868C3 3.75736 3 5.17157 3 8L3 16C3 18.8284 3 20.2426 3.87868 21.1213C4.75736 22 6.17157 22 9 22H14C14.1664 22 14.3279 22 14.4846 21.9998C12.9099 21.9974 12.0878 21.9622 11.5633 21.4508C11 20.9016 11 20.0178 11 18.25V10.75C11 8.98223 11 8.09835 11.5633 7.54917C12.1265 7 13.0331 7 14.8462 7H17.1538C18.5601 7 19.421 7.00001 19.9993 7.25623C19.9926 4.91647 19.9193 3.67671 19.1213 2.87868C18.2426 2 16.8284 2 14 2L9 2C6.17157 2 4.75736 2 3.87868 2.87868ZM14.6386 22C14.7064 22 14.7756 22 14.8462 22L14.6386 22Z" fill="currentColor" />
    <path d="M19.7487 4C19.6186 3.54062 19.4211 3.17848 19.1213 2.87868C18.2426 2 16.8284 2 14 2H9C6.17157 2 4.75736 2 3.87868 2.87868C3 3.75736 3 5.17157 3 8V16C3 18.8284 3 20.2426 3.87868 21.1213C4.64706 21.8897 5.82497 21.9862 8 21.9983" stroke="currentColor" stroke-width="2" stroke-linecap="round" />
    <path d="M17.1538 7H14.8462C13.0331 7 12.1265 7 11.5633 7.54917C11 8.09835 11 8.98223 11 10.75V18.25C11 20.0178 11 20.9017 11.5633 21.4508C12.1265 22 13.0331 22 14.8462 22H17.1538C18.9669 22 19.8735 22 20.4367 21.4508C21 20.9017 21 20.0178 21 18.25V10.75C21 8.98223 21 8.09835 20.4367 7.54917C19.8735 7 18.9669 7 17.1538 7Z" stroke="currentColor" stroke-width="2" stroke-linecap="round" stroke-linejoin="round" />
    <path d="M17.5 7H14.5L14.875 8H17.125L17.5 7Z" stroke="currentColor" stroke-width="2" stroke-linecap="round" stroke-linejoin="round" />
</svg>