<svg xmlns="http://www.w3.org/2000/svg" width="24" height="24" viewBox="0 0 24 24" fill="none">
    <path d="M13.5859 3H20.9977" stroke="currentColor" stroke-width="2" stroke-linecap="round" stroke-linejoin="round" />
    <path d="M13.5859 9H20.9977" stroke="currentColor" stroke-width="2" stroke-linecap="round" stroke-linejoin="round" />
    <path d="M3 15H21" stroke="currentColor" stroke-width="2" stroke-linecap="round" stroke-linejoin="round" />
    <path d="M3 21H21" stroke="currentColor" stroke-width="2" stroke-linecap="round" stroke-linejoin="round" />
    <path opacity="0.4" d="M6.58567 3.36786L7.71373 6L4.28516 6L5.41321 3.36786C5.44453 3.2948 5.46018 3.25826 5.47999 3.22724C5.5559 3.10831 5.68549 3.027 5.83321 3.00559C5.87176 3 5.91432 3 5.99944 3C6.08457 3 6.12713 3 6.16567 3.00559C6.31339 3.027 6.44298 3.10832 6.51889 3.22724C6.5387 3.25827 6.55435 3.2948 6.58567 3.36786Z" fill="currentColor" />
    <path d="M9 9L7.71429 6M7.71429 6L6.58623 3.36786C6.55491 3.2948 6.53926 3.25827 6.51945 3.22724C6.44354 3.10832 6.31395 3.027 6.16623 3.00559C6.12769 3 6.08512 3 6 3C5.91488 3 5.87231 3 5.83377 3.00559C5.68605 3.027 5.55646 3.10831 5.48055 3.22724C5.46074 3.25826 5.44509 3.2948 5.41377 3.36786L4.28571 6M7.71429 6L4.28571 6M4.28571 6L3 9" stroke="currentColor" stroke-width="2" stroke-linecap="round" stroke-linejoin="round" />
</svg>