<svg xmlns="http://www.w3.org/2000/svg" width="24" height="24" viewBox="0 0 24 24" fill="none">
    <path d="M15.5 21L18.5 18M18.5 18L21.5 15M18.5 18L15.5 15M18.5 18L21.5 21" stroke="currentColor" stroke-width="2" stroke-linecap="round" stroke-linejoin="round" />
    <path opacity="0.4" d="M13.8103 13.9946C12.4315 13.3661 10.7779 13 9 13C7.22212 13 5.5685 13.3661 4.18968 13.9946C3.05927 14.5099 2.5 15.7281 2.5 16.9704V19H15.5V16.9704C15.5 15.7281 14.9407 14.5099 13.8103 13.9946Z" fill="currentColor" />
    <circle opacity="0.4" cx="9" cy="6.5" r="3.5" fill="currentColor" />
    <path d="M2.5 19V16.9704C2.5 15.7281 3.05927 14.5099 4.18968 13.9946C5.5685 13.3661 7.22212 13 9 13C10.4418 13 11.8019 13.2407 13 13.667" stroke="currentColor" stroke-width="2" stroke-linecap="round" stroke-linejoin="round" />
    <circle cx="9" cy="6.5" r="3.5" stroke="currentColor" stroke-width="2" stroke-linecap="round" stroke-linejoin="round" />
</svg>