<svg xmlns="http://www.w3.org/2000/svg" width="24" height="24" viewBox="0 0 24 24" fill="none">
    <path opacity="0.4" d="M19.66 4.31802C18.342 3 16.2207 3 11.978 3C7.73538 3 5.61406 3 4.29604 4.31802C3.48043 5.13363 3.16954 6.25685 3.05103 8H20.905C20.7865 6.25685 20.4756 5.13363 19.66 4.31802Z" fill="currentColor" />
    <path d="M2.97876 12C2.97876 7.75736 2.97876 5.63604 4.29678 4.31802C5.6148 3 7.73612 3 11.9788 3C16.2214 3 18.3427 3 19.6607 4.31802C20.9788 5.63604 20.9788 7.75736 20.9788 12C20.9788 16.2426 20.9788 18.364 19.6607 19.682C18.3427 21 16.2214 21 11.9788 21C7.73612 21 5.6148 21 4.29678 19.682C2.97876 18.364 2.97876 16.2426 2.97876 12Z" stroke="currentColor" stroke-width="2" stroke-linecap="round" stroke-linejoin="round" />
    <path d="M3.47876 8H20.4788" stroke="currentColor" stroke-width="2" stroke-linecap="round" stroke-linejoin="round" />
    <path d="M10.4788 13L11.9788 14.5M11.9788 14.5L13.4788 16M11.9788 14.5L13.4788 13M11.9788 14.5L10.4788 16M15.9788 11.5C16.6112 12.3628 16.9788 13.3932 16.9788 14.5C16.9788 15.6068 16.6112 16.6372 15.9788 17.5M7.97876 11.5C7.34631 12.3628 6.97876 13.3932 6.97876 14.5C6.97876 15.6068 7.34631 16.6372 7.97876 17.5" stroke="currentColor" stroke-width="2" stroke-linecap="round" stroke-linejoin="round" />
</svg>