<svg xmlns="http://www.w3.org/2000/svg" width="24" height="24" viewBox="0 0 24 24" fill="none">
    <path opacity="0.4" d="M12 2C13.1978 2 14.2718 2.52717 15.0049 3.36133C14.9999 3.54638 15 3.75761 15 4V7.5L16 6.75V11C16 13.2091 14.2091 15 12 15C9.79086 15 8 13.2091 8 11V6C8 3.79086 9.79086 2 12 2Z" fill="currentColor" />
    <path d="M12 2C9.79086 2 8 3.79086 8 6V11C8 13.2091 9.79086 15 12 15C14.2091 15 16 13.2091 16 11V10" stroke="currentColor" stroke-width="2" stroke-linecap="round" stroke-linejoin="round" />
    <path d="M12 18V22M12 22H15M12 22H9" stroke="currentColor" stroke-width="2" stroke-linecap="round" stroke-linejoin="round" />
    <path d="M19 12C18.7174 15.3914 15.8824 18 12.4792 18H11.5208C8.11765 18 5.28262 15.3914 5 12" stroke="currentColor" stroke-width="2" stroke-linecap="round" stroke-linejoin="round" />
    <path d="M15 4V7.5L17 6H19C19.9428 6 20.4142 6 20.7071 5.70711C21 5.41421 21 4.94281 21 4C21 3.05719 21 2.58579 20.7071 2.29289C20.4142 2 19.9428 2 19 2H17C16.0572 2 15.5858 2 15.2929 2.29289C15 2.58579 15 3.05719 15 4Z" stroke="currentColor" stroke-width="2" stroke-linecap="round" stroke-linejoin="round" />
</svg>