<svg xmlns="http://www.w3.org/2000/svg" width="24" height="24" viewBox="0 0 24 24" fill="none">
    <path opacity="0.4" fill-rule="evenodd" clip-rule="evenodd" d="M16 3H8C5.17157 3 3.75736 3 2.87868 3.87868C2 4.75736 2 6.17157 2 9V11C2 13.8284 2 15.2426 2.87868 16.1213C3.52187 16.7645 4.45201 16.9369 6.01372 16.9831C6.29179 16.6403 6.57207 16.2905 6.85506 15.9372C10.8841 10.908 15.4613 5.19444 22 9.54237V9C22 6.17157 22 4.75736 21.1213 3.87868C20.2426 3 18.8284 3 16 3ZM9 7.5C9 8.32843 8.32843 9 7.5 9C6.67157 9 6 8.32843 6 7.5C6 6.67157 6.67157 6 7.5 6C8.32843 6 9 6.67157 9 7.5Z" fill="currentColor" />
    <path d="M16 3H8C5.17157 3 3.75736 3 2.87868 3.87868C2 4.75736 2 6.17157 2 9V11C2 13.8284 2 15.2426 2.87868 16.1213C3.75736 17 5.17157 17 8 17H16C18.8284 17 20.2426 17 21.1213 16.1213C22 15.2426 22 13.8284 22 11V9C22 6.17157 22 4.75736 21.1213 3.87868C20.2426 3 18.8284 3 16 3Z" stroke="currentColor" stroke-width="2" stroke-linecap="round" stroke-linejoin="round" />
    <path d="M14 21H16M10 21C10.8284 21 11.5 20.3284 11.5 19.5V17L12 17L12.5 17V19.5C12.5 20.3284 13.1716 21 14 21M14 21H10M10 21H8M12 17V21" stroke="currentColor" stroke-width="2" stroke-linecap="round" stroke-linejoin="round" />
    <circle cx="7.5" cy="7.5" r="1.5" stroke="currentColor" stroke-width="2" stroke-linecap="round" stroke-linejoin="round" />
    <path d="M6 17C10.2406 11.775 14.9944 4.88398 22 9.54237" stroke="currentColor" stroke-width="2" />
</svg>