<svg xmlns="http://www.w3.org/2000/svg" width="24" height="24" viewBox="0 0 24 24" fill="none">
    <path opacity="0.4" d="M19.251 16.2545H16.251C15.3164 16.2545 14.8491 16.2545 14.501 16.4555C14.2729 16.5872 14.0836 16.7765 13.9519 17.0045C13.751 17.3526 13.751 17.8199 13.751 18.7545C13.751 19.6892 13.751 20.1565 13.9519 20.5045C14.0836 20.7326 14.2729 20.9219 14.501 21.0536C14.8491 21.2545 15.3164 21.2545 16.251 21.2545H19.251C20.1856 21.2545 20.6529 21.2545 21.001 21.0536C21.229 20.9219 21.4184 20.7326 21.55 20.5045C21.751 20.1565 21.751 19.6892 21.751 18.7545C21.751 17.8199 21.751 17.3526 21.55 17.0045C21.4184 16.7765 21.229 16.5872 21.001 16.4555C20.6529 16.2545 20.1856 16.2545 19.251 16.2545Z" fill="currentColor" />
    <path opacity="0.4" d="M12.7512 2.25455H10.7512C6.97993 2.25455 5.09432 2.25455 3.92274 3.42612C3.11457 4.23429 2.86389 5.38225 2.78613 7.25455H20.7162C20.6384 5.38225 20.3878 4.23429 19.5796 3.42612C18.408 2.25455 16.5224 2.25455 12.7512 2.25455Z" fill="currentColor" />
    <path d="M3.25098 7.25455H20.251" stroke="currentColor" stroke-width="2" stroke-linecap="round" stroke-linejoin="round" />
    <path d="M10.751 20.2545C6.97974 20.2545 5.09412 20.2545 3.92255 19.083C2.75098 17.9114 2.75098 16.0258 2.75098 12.2545V10.2545C2.75098 6.48331 2.75098 4.59769 3.92255 3.42612C5.09412 2.25455 6.97974 2.25455 10.751 2.25455H12.751C16.5222 2.25455 18.4078 2.25455 19.5794 3.42612C20.751 4.59769 20.751 6.48331 20.751 10.2545" stroke="currentColor" stroke-width="2" stroke-linecap="round" stroke-linejoin="round" />
    <path d="M15.751 16.2545V14.2545C15.751 13.15 16.6464 12.2545 17.751 12.2545C18.8555 12.2545 19.751 13.15 19.751 14.2545V16.2545" stroke="currentColor" stroke-width="2" stroke-linecap="round" stroke-linejoin="round" />
    <path d="M19.251 16.2545H16.251C15.3164 16.2545 14.8491 16.2545 14.501 16.4555C14.2729 16.5872 14.0836 16.7765 13.9519 17.0045C13.751 17.3526 13.751 17.8199 13.751 18.7545C13.751 19.6892 13.751 20.1565 13.9519 20.5045C14.0836 20.7326 14.2729 20.9219 14.501 21.0536C14.8491 21.2545 15.3164 21.2545 16.251 21.2545H19.251C20.1856 21.2545 20.6529 21.2545 21.001 21.0536C21.229 20.9219 21.4184 20.7326 21.55 20.5045C21.751 20.1565 21.751 19.6892 21.751 18.7545C21.751 17.8199 21.751 17.3526 21.55 17.0045C21.4184 16.7765 21.229 16.5872 21.001 16.4555C20.6529 16.2545 20.1856 16.2545 19.251 16.2545Z" stroke="currentColor" stroke-width="2" stroke-linecap="round" stroke-linejoin="round" />
</svg>