<svg xmlns="http://www.w3.org/2000/svg" width="24" height="24" viewBox="0 0 24 24" fill="none">
    <path opacity="0.4" d="M4.29678 19.682C2.97876 18.364 2.97876 16.2426 2.97876 12C2.97876 7.75736 2.97876 5.63604 4.29678 4.31802C5.6148 3 7.73612 3 11.9788 3C16.2214 3 18.3427 3 19.6607 4.31802C20.4763 5.13363 20.7872 6.25685 20.9058 8H8.97876V20.974C6.64859 20.9038 5.25873 20.6439 4.29678 19.682Z" fill="currentColor" />
    <path d="M2.97876 12C2.97876 7.75736 2.97876 5.63604 4.29678 4.31802C5.6148 3 7.73612 3 11.9788 3C16.2214 3 18.3427 3 19.6607 4.31802C20.9788 5.63604 20.9788 7.75736 20.9788 12C20.9788 16.2426 20.9788 18.364 19.6607 19.682C18.3427 21 16.2214 21 11.9788 21C7.73612 21 5.6148 21 4.29678 19.682C2.97876 18.364 2.97876 16.2426 2.97876 12Z" stroke="currentColor" stroke-width="2" stroke-linecap="round" stroke-linejoin="round" />
    <path d="M3.47876 8H20.4788" stroke="currentColor" stroke-width="2" stroke-linecap="round" stroke-linejoin="round" />
    <path d="M12.9788 12L16.9788 12" stroke="currentColor" stroke-width="2" stroke-linecap="round" stroke-linejoin="round" />
    <path d="M12.9788 16H14.9788" stroke="currentColor" stroke-width="2" stroke-linecap="round" stroke-linejoin="round" />
    <path d="M8.97876 8V21" stroke="currentColor" stroke-width="2" stroke-linecap="round" stroke-linejoin="round" />
</svg>