<svg xmlns="http://www.w3.org/2000/svg" width="24" height="24" viewBox="0 0 24 24" fill="none">
    <path d="M8.00098 21L7.00098 22" stroke="currentColor" stroke-width="2" stroke-linecap="round" stroke-linejoin="round" />
    <path opacity="0.4" d="M22.001 19H2.00098C7.00098 20.7143 12.9761 22 17.001 22C20.001 22 22.001 19.7347 22.001 19Z" fill="currentColor" />
    <path d="M22.001 19H2.00098C7.00098 20.7143 12.9761 22 17.001 22C20.001 22 22.001 19.7347 22.001 19Z" stroke="currentColor" stroke-width="2" stroke-linejoin="round" />
    <path opacity="0.4" d="M8.05286 11.0508C9.05998 14.2342 10.783 15.8776 15.5009 16.9999L15.7025 17.0773C16.0366 15.9377 16.3575 14.5098 16.5968 12.9571L16.0009 12.9999C15.0095 12.9999 10.0861 12.9999 8.05286 11.0508Z" fill="currentColor" />
    <path d="M16.0113 2C18.1791 7 16.2974 16.3438 15.001 19" stroke="currentColor" stroke-width="2" stroke-linecap="round" stroke-linejoin="round" />
    <path d="M15.0929 16.9358C9.30809 15.5156 8.37002 12.6904 7.79688 10.911C8.80901 10.0524 11.6989 6.5487 12.9641 4.88797C13.9629 3.41804 14.0749 2.89451 14.9351 3.00177C15.0113 3.01128 15.8034 3.54155 16.2029 3.91879M7.79688 10.911C9.07691 12.6395 13.9342 13.0313 16.2029 13.0111" stroke="currentColor" stroke-width="2" stroke-linecap="round" stroke-linejoin="round" />
</svg>