<svg xmlns="http://www.w3.org/2000/svg" width="24" height="24" viewBox="0 0 24 24" fill="none">
    <path d="M6 3V15C6 18.3137 8.68629 21 12 21C15.3137 21 18 18.3137 18 15V3" stroke="currentColor" stroke-width="2" stroke-linecap="round" stroke-linejoin="round" />
    <path opacity="0.4" d="M18 15C18 18.3137 15.3137 21 12 21C8.68629 21 6 18.3137 6 15V8.14112C8 7.64385 10 8.50727 12 10.0004C14 11.4936 16 12.3563 18 11.8586V15Z" fill="currentColor" />
    <path d="M3 9.99893C6 6.93786 9 7.7607 12 10.0004C15 12.2401 18 13.0615 21 10.0004" stroke="currentColor" stroke-width="2" stroke-linecap="round" stroke-linejoin="round" />
</svg>