<svg xmlns="http://www.w3.org/2000/svg" width="24" height="24" viewBox="0 0 24 24" fill="none">
    <path fill-rule="evenodd" clip-rule="evenodd" d="M7 1.25C10.1756 1.25 12.75 3.82436 12.75 7C12.75 9.47221 11.1895 11.5791 9 12.3916V14.25L10 15.75L8.5 17.75L10 19.75L7 22.75L5 20.75V12.3916C2.81053 11.5791 1.25 9.47221 1.25 7C1.25 3.82436 3.82436 1.25 7 1.25ZM7 5.25C6.0335 5.25 5.25 6.03351 5.25 7C5.25 7.9665 6.0335 8.75 7 8.75C7.96649 8.75 8.75 7.9665 8.75 7C8.75 6.0335 7.9665 5.25 7 5.25Z" fill="currentColor" />
    <path d="M22.75 19.75V13.25H11.5V19.75H22.75Z" fill="currentColor" />
    <path d="M22.75 4.25V10.75H13.2051C13.8679 9.65649 14.25 8.37346 14.25 7C14.25 6.02644 14.057 5.09816 13.709 4.25H22.75Z" fill="currentColor" />
</svg>