<svg xmlns="http://www.w3.org/2000/svg" width="24" height="24" viewBox="0 0 24 24" fill="none">
    <path d="M15.1689 1.25L15.7344 3.27148L17.209 3.7002L17.75 3.85645V5.14355L17.209 5.2998L15.7344 5.72754L15.1689 7.75H13.8311L13.2646 5.72754L11.791 5.2998L11.25 5.14355V3.85645L11.791 3.7002L13.2646 3.27148L13.8311 1.25H15.1689Z" fill="currentColor" />
    <path d="M2.05961 17.2685C1.77478 17.884 1.55764 18.4688 1.4206 19.0099C1.15873 20.0437 1.10952 21.2604 1.92658 22.076C2.64872 22.7969 3.68697 22.8359 4.59452 22.6667C5.53931 22.4905 6.62348 22.0434 7.76378 21.4159C10.0562 20.1543 12.7795 18.0495 15.4168 15.4119C18.054 12.7743 20.158 10.0511 21.4184 7.75919C22.0454 6.61918 22.4919 5.53527 22.6674 4.59076C22.836 3.68333 22.7959 2.64518 22.0734 1.92399C21.2526 1.10459 20.0277 1.15925 18.9878 1.42625C18.4542 1.56323 17.8783 1.77768 17.2723 2.05787C17.9754 2.43135 18.6341 2.87722 19.2385 3.38554C19.3191 3.36111 19.3976 3.33909 19.4739 3.31951C20.3787 3.08717 20.6532 3.26816 20.6925 3.30736C20.7227 3.33752 20.8745 3.54034 20.7456 4.2337C20.6237 4.88998 20.2835 5.76667 19.7057 6.81726C18.5567 8.90653 16.5793 11.4846 14.0345 14.0298C11.4897 16.575 8.91136 18.5533 6.82138 19.7034C5.77045 20.2817 4.89319 20.6226 4.23619 20.7452C3.54195 20.8746 3.33805 20.7231 3.30752 20.6926C3.2691 20.6543 3.08881 20.3845 3.31542 19.4898C3.33633 19.4073 3.36009 19.3222 3.38673 19.2346C2.87861 18.6302 2.43292 17.9715 2.05961 17.2685Z" fill="currentColor" />
    <path d="M20.5938 7.38965C21.3314 8.76211 21.75 10.3318 21.75 11.999C21.7499 17.3837 17.3847 21.749 12 21.749C10.3506 21.749 8.79653 21.3392 7.43457 20.6162C9.62631 19.3675 12.2363 17.3363 14.7891 14.7832C16.2329 13.3638 18.913 10.3545 20.5938 7.38965Z" fill="currentColor" />
    <path d="M9.75 6.27051L11.375 6.73926L12.0449 6.93359L12.6934 9.24902H16.6787C15.7072 10.5106 14.5369 11.8526 13.1973 13.1924C10.6527 15.7372 8.10746 17.6807 6.09863 18.7861C5.84309 18.9268 5.60317 19.0494 5.37988 19.1562C3.45534 17.3753 2.25007 14.8279 2.25 11.999C2.25 7.38881 5.45018 3.52763 9.75 2.51172V6.27051Z" fill="currentColor" />
</svg>