<svg xmlns="http://www.w3.org/2000/svg" width="24" height="24" viewBox="0 0 24 24" fill="none">
    <path d="M20.1689 1.25L20.7344 3.27148L22.209 3.7002L22.75 3.85645V5.14355L22.209 5.2998L20.7344 5.72754L20.1689 7.75H18.8311L18.2646 5.72754L16.791 5.2998L16.25 5.14355V3.85645L16.791 3.7002L18.2646 3.27148L18.8311 1.25H20.1689Z" fill="currentColor" />
    <path d="M15 6.08398L16.4443 6.5L17.2471 6.7334L17.8828 9H20.75V22.75H1.25V3.25H15V6.08398ZM4.93945 14L10 19.0605L11.0605 18L6 12.9395L4.93945 14ZM4.93945 8L16 19.0605L17.0605 18L6 6.93945L4.93945 8ZM10.9395 8L16 13.0605L17.0605 12L12 6.93945L10.9395 8Z" fill="currentColor" />
</svg>