<svg xmlns="http://www.w3.org/2000/svg" width="24" height="24" viewBox="0 0 24 24" fill="none">
    <path d="M3.7 7.575H19.3V13H21.25V1.75H1.75V21.25H13V19.3H3.7V7.575Z" fill="currentColor" />
    <path d="M19.2617 15.3496L19.1387 14.75H17.8613L17.7383 15.3496C17.4924 16.5525 16.5525 17.4924 15.3496 17.7383L14.75 17.8613V19.1387L15.3496 19.2617C16.5525 19.5076 17.4924 20.4475 17.7383 21.6504L17.8613 22.25H19.1387L19.2617 21.6504C19.5076 20.4475 20.4475 19.5076 21.6504 19.2617L22.25 19.1387V17.8613L21.6504 17.7383C20.4475 17.4924 19.5076 16.5525 19.2617 15.3496Z" fill="currentColor" />
</svg>