<svg xmlns="http://www.w3.org/2000/svg" width="24" height="24" viewBox="0 0 24 24" fill="none">
    <path d="M13.0002 20.75H16.0002V22.75H8.00015V20.75H11.0002V18.75H13.0002V20.75ZM21.1105 17.8965L22.7502 18.373V19.627L21.1105 20.1025L20.6496 21.75H19.3507L18.8888 20.1025L17.2502 19.627V18.373L18.8888 17.8965L19.3507 16.25H20.6496L21.1105 17.8965ZM15.0002 1.25C16.5189 1.25 17.7502 2.48122 17.7502 4V5.25H13.7502V6.75H17.7502V8.25H13.7502V9.75H17.7502V11.25H13.7502V12.75H17.7502V13.4502C18.2404 13.1974 18.6836 12.9375 19.0714 12.6729C19.7929 12.1805 20.2795 11.7079 20.549 11.3018C20.8152 10.9003 20.8177 10.6496 20.7736 10.5039C20.7096 10.2932 20.4287 9.94382 19.5529 9.64941L18.63 9.33984L19.2697 7.55078L20.1935 7.86133C21.2856 8.22845 22.3188 8.87827 22.6496 9.97168C22.9047 10.8152 22.6495 11.6373 22.1925 12.3262C21.7385 13.0104 21.0358 13.6478 20.1964 14.2207C18.511 15.371 16.0835 16.3881 13.3166 17.0449C10.5484 17.702 7.87763 17.8946 5.7814 17.6465C4.73663 17.5228 3.78412 17.2839 3.02457 16.9023C2.26857 16.5224 1.60328 15.946 1.35172 15.1143C1.13168 14.3863 1.29244 13.6677 1.63687 13.043C1.97616 12.4278 2.51578 11.8559 3.16226 11.3389L3.91617 10.7363L5.16031 12.1973L4.4064 12.7998C3.87781 13.2226 3.53946 13.611 3.36051 13.9355C3.18684 14.2505 3.18859 14.4526 3.22769 14.582C3.27536 14.7395 3.43931 14.9767 3.92496 15.2207C4.40733 15.463 5.11135 15.6591 6.01969 15.7666C6.31744 15.8018 6.63196 15.8252 6.96109 15.8398C6.52087 15.3523 6.25015 14.7086 6.25015 14V12.75H10.2502V11.25H6.25015V9.75H10.2502V8.25H6.25015V6.75H10.2502V5.25H6.25015V4C6.25015 2.48122 7.48137 1.25 9.00015 1.25H15.0002Z" fill="currentColor" />
</svg>