<svg xmlns="http://www.w3.org/2000/svg" width="24" height="24" viewBox="0 0 24 24" fill="none">
    <path d="M13.75 7.27148L15.375 7.74023L16.0449 7.93457L16.6934 10.25H20.3066L20.6133 9.1543L20.9531 7.93457L21.624 7.74023L21.625 7.74121L22.75 7.41602V21.75H1.25V6.25H7.09863L9.09863 3.25H13.75V7.27148ZM12 9C9.51472 9 7.5 11.0147 7.5 13.5C7.5 15.9853 9.51472 18 12 18C14.4853 18 16.5 15.9853 16.5 13.5C16.5 11.0147 14.4853 9 12 9ZM12 11C13.3807 11 14.5 12.1193 14.5 13.5C14.5 14.8807 13.3807 16 12 16C10.6193 16 9.5 14.8807 9.5 13.5C9.5 12.1193 10.6193 11 12 11Z" fill="currentColor" />
    <path d="M19.1689 2.25L19.7344 4.27148L21.209 4.7002L21.75 4.85645V6.14355L21.209 6.2998L19.7344 6.72754L19.1689 8.75H17.8311L17.2646 6.72754L15.791 6.2998L15.25 6.14355V4.85645L15.791 4.7002L17.2646 4.27148L17.8311 2.25H19.1689Z" fill="currentColor" />
</svg>