<svg xmlns="http://www.w3.org/2000/svg" width="24" height="24" viewBox="0 0 24 24" fill="none">
    <path d="M19.5 8.5C21.1569 8.5 22.5 9.84315 22.5 11.5C22.5 12.8358 21.6265 13.966 20.4199 14.3545C21.7738 14.8085 22.75 16.0932 22.75 17.6074V22.75H15.9316V18.75C13.2611 17.1385 11.26 14.3484 10.4004 12.7539C10.2984 12.5647 10.25 12.3519 10.25 12.1367V12.001C10.2502 11.3101 10.8071 10.7501 11.4941 10.75C11.791 10.75 12.0783 10.8566 12.3037 11.0508L15.2939 13.6279C15.7058 13.983 16.23 14.1787 16.7725 14.1787H18.1553C17.1745 13.6854 16.5 12.6728 16.5 11.5C16.5 9.84315 17.8431 8.5 19.5 8.5Z" fill="currentColor" />
    <path d="M12.6895 1.25L13.3604 3.64648L15.75 4.34082V5.65918L13.3604 6.35254L12.6895 8.75H11.3105L10.6387 6.35254L8.25 5.65918V4.34082L10.6387 3.64648L11.3105 1.25H12.6895Z" fill="currentColor" />
    <path d="M4.5 8.5C6.15685 8.5 7.5 9.84315 7.5 11.5C7.5 12.6728 6.82554 13.6854 5.84473 14.1787H7.22754C7.77 14.1787 8.29417 13.983 8.70605 13.6279L9.02344 13.3535C9.04149 13.3911 9.06007 13.4287 9.08008 13.4658C9.49202 14.2299 10.1465 15.2508 11.0059 16.3086C10.1631 17.2115 9.17415 18.0827 8.06836 18.75V22.75H1.25V17.6074C1.25 16.0932 2.22622 14.8085 3.58008 14.3545C2.37352 13.966 1.5 12.8358 1.5 11.5C1.5 9.84315 2.84315 8.5 4.5 8.5Z" fill="currentColor" />
</svg>