<svg xmlns="http://www.w3.org/2000/svg" width="24" height="24" viewBox="0 0 24 24" fill="none">
    <path d="M7.16895 16.25L7.73438 18.2715L9.20898 18.7002L9.75 18.8564V20.1436L9.20898 20.2998L7.73438 20.7275L7.16895 22.75H5.83105L5.26465 20.7275L3.79102 20.2998L3.25 20.1436V18.8564L3.79102 18.7002L5.26465 18.2715L5.83105 16.25H7.16895Z" fill="currentColor" />
    <path fill-rule="evenodd" clip-rule="evenodd" d="M20.75 8.62891V22.75H8.72559L8.95312 21.9346L9.62402 21.7402L9.625 21.7412L11.25 21.2715V17.7285L9.625 17.2588L8.95312 17.0635L8.30664 14.75H4.69336L4.04492 17.0635L3.375 17.2588L3.25 17.2939L3.25098 1.25H13.3613L20.75 8.62891ZM12.5625 9.45996H18.7998L12.5625 3.20508V9.45996Z" fill="currentColor" />
</svg>