<svg xmlns="http://www.w3.org/2000/svg" width="24" height="24" viewBox="0 0 24 24" fill="none">
    <path d="M19.75 22.7499H4.25V1.24989H19.75V22.7499ZM12 17.9999C11.4477 17.9999 11 18.4476 11 18.9999C11 19.5522 11.4477 19.9999 12 19.9999C12.5523 19.9999 13 19.5522 13 18.9999C13 18.4476 12.5523 17.9999 12 17.9999ZM11.2383 6.8495C10.9924 8.05243 10.0525 8.99231 8.84961 9.23817L8.25 9.36122V10.6386L8.84961 10.7616C10.0525 11.0075 10.9924 11.9474 11.2383 13.1503L11.3613 13.7499H12.6387L12.7617 13.1503C13.0076 11.9474 13.9475 11.0075 15.1504 10.7616L15.75 10.6386V9.36122L15.1504 9.23817C13.9475 8.99231 13.0076 8.05243 12.7617 6.8495L12.6387 6.24989H11.3613L11.2383 6.8495Z" fill="currentColor" />
</svg>