<svg xmlns="http://www.w3.org/2000/svg" width="24" height="24" viewBox="0 0 24 24" fill="none">
    <path d="M15.6494 1.25L16.1104 2.89648L17.75 3.37305V4.62695L16.1104 5.10254L15.6494 6.75H14.3506L13.8887 5.10254L12.25 4.62695V3.37305L13.8887 2.89648L14.3506 1.25H15.6494Z" fill="currentColor" />
    <path d="M23 20.6204C23 21.9347 21.9347 23 20.6204 23C19.9893 22.9999 19.3839 22.7493 18.9376 22.3031L16.3568 19.7204L11.963 20.145L11.6316 20.1764L9 17.566L17.566 9L20.1948 11.6289L19.7222 16.3549L22.3031 18.9376C22.7494 19.3839 23 19.9892 23 20.6204Z" fill="currentColor" />
    <path d="M10.75 2.68945V5.75391L12.6689 6.30957L13.2129 8.25H16.1934L8.15918 16.2842L2.02051 10.6172L3.59863 8.25H6.25V5.68945L10 1.93945L10.75 2.68945Z" fill="currentColor" />
</svg>