<svg xmlns="http://www.w3.org/2000/svg" width="24" height="24" viewBox="0 0 24 24" fill="none">
    <path d="M7.13889 2.25H9.08333V21.75H7.13889V2.25ZM14.9167 10.05H16.8611V19.8H14.9167V10.05ZM11.0278 6.15H12.9722V17.85H11.0278V6.15ZM3.25 8.1H5.19444V15.9H3.25V8.1ZM18.8056 10.05H20.75V14.925H18.8056V10.05Z" fill="currentColor" />
    <path d="M19.1689 2.25L19.7344 4.27148L21.209 4.7002L21.75 4.85645V6.14355L21.209 6.2998L19.7344 6.72754L19.1689 8.75H17.8311L17.2646 6.72754L15.791 6.2998L15.25 6.14355V4.85645L15.791 4.7002L17.2646 4.27148L17.8311 2.25H19.1689Z" fill="currentColor" />
</svg>