<svg xmlns="http://www.w3.org/2000/svg" width="24" height="24" viewBox="0 0 24 24" fill="none">
    <path d="M20.1689 4.25L20.7344 6.27148L22.209 6.7002L22.75 6.85645V8.14355L22.209 8.2998L20.7344 8.72754L20.1689 10.75H18.8311L18.2646 8.72754L16.791 8.2998L16.25 8.14355V6.85645L16.791 6.7002L18.2646 6.27148L18.8311 4.25H20.1689Z" fill="currentColor" />
    <path d="M16.0847 12.25L19.9876 21.2331L18.2691 21.99L16.9096 18.8583H13.0956L11.736 21.99L10.0176 21.2331L13.9204 12.25H16.0847ZM13.9159 16.9702H16.0893L15.0026 14.469L13.9159 16.9702Z" fill="currentColor" />
    <path d="M7.05609 3.25H8.96808V5.17346H13.748V7.09693H11.6008C11.1746 8.44548 10.3343 10.3207 8.97742 12.1949C9.44381 12.6513 9.95672 13.1066 10.5197 13.5576L11.2675 14.1568L10.0762 15.6614L9.32845 15.0622C8.7679 14.6131 8.24963 14.1561 7.77029 13.6947C6.4475 15.1743 4.77392 16.5622 2.69437 17.5792L1.83454 18L0.998047 16.27L1.85788 15.8493C3.74204 14.9278 5.25663 13.6516 6.44833 12.2944C5.80004 11.5335 5.25178 10.7634 4.79868 9.98964L4.31321 9.16127L5.961 8.18451L6.44553 9.01288C6.78156 9.58673 7.18285 10.167 7.65452 10.7485C8.56155 9.43661 9.18899 8.1418 9.57771 7.09693H1.32013V5.17346H7.05609V3.25Z" fill="currentColor" />
</svg>