<svg xmlns="http://www.w3.org/2000/svg" width="24" height="24" viewBox="0 0 24 24" fill="none">
    <path d="M14.8379 2.25C14.781 2.49082 14.75 2.74179 14.75 3V4.5791L14.54 4.63281L11.2471 5.46387L11.8672 7.82129C12.3698 9.7341 13.8051 11.2019 15.5557 11.917V14.2471H18.75V21.75H2.25V2.25H14.8379ZM6 16V18H15V16H6ZM6 12V14H12V12H6Z" fill="currentColor" />
    <path d="M18 1.25C18.9665 1.25 19.75 2.0335 19.75 3V6C19.75 6.9665 18.9665 7.75 18 7.75C17.0335 7.75 16.25 6.9665 16.25 6V3C16.25 2.0335 17.0335 1.25 18 1.25Z" fill="currentColor" />
    <path d="M17.0561 10.8087C15.2819 10.4623 13.7705 9.16405 13.3176 7.44036L13.0831 6.54737L14.9072 6.08691L15.1427 6.9808C15.448 8.14201 16.6478 9.05603 17.9981 9.05603C19.3484 9.05601 20.5482 8.14198 20.8534 6.9808L21.0889 6.08691L22.9131 6.54737L22.6785 7.44036C22.2256 9.16405 20.7143 10.4623 18.94 10.8087V12.7469H17.0561V10.8087Z" fill="currentColor" />
</svg>