<svg xmlns="http://www.w3.org/2000/svg" width="24" height="24" viewBox="0 0 24 24" fill="none">
    <path d="M19.6694 12.2116L19.75 11.25H17.8249L17.7586 12.0513C17.529 14.8247 15.2251 16.9579 12.4599 16.958H11.5401C8.77494 16.9579 6.471 14.8247 6.24136 12.0513L6.17508 11.25H4.25L4.33055 12.2116C4.62911 15.8173 7.50349 18.6253 11.0409 18.8689V20.8193H8.1634V22.75H15.8366V20.8193H12.9591V18.8689C16.4965 18.6253 19.3709 15.8173 19.6694 12.2116Z" fill="currentColor" />
    <path d="M17.1689 1.25L17.7344 3.27148L19.209 3.7002L19.75 3.85645V5.14355L19.209 5.2998L17.7344 5.72754L17.1689 7.75H15.8311L15.2646 5.72754L13.791 5.2998L13.25 5.14355V3.85645L13.791 3.7002L15.2646 3.27148L15.8311 1.25H17.1689Z" fill="currentColor" />
    <path d="M12 1.25C12.8577 1.25 13.6619 1.47825 14.3564 1.87598L14.248 2.26465L13.4443 2.49902L12 2.91602V6.08398L13.4443 6.5L14.2471 6.7334L14.8828 9H16.75V11C16.75 13.6234 14.6234 15.75 12 15.75C9.37665 15.75 7.25 13.6234 7.25 11V6C7.25 3.37665 9.37665 1.25 12 1.25Z" fill="currentColor" />
</svg>