<svg xmlns="http://www.w3.org/2000/svg" width="24" height="24" viewBox="0 0 24 24" fill="none">
    <path fill-rule="evenodd" clip-rule="evenodd" d="M15.0996 16.875C15.5629 19.1572 17.5806 20.875 19.9996 20.875H20.9996V18.875H19.9996C18.6934 18.875 17.5821 18.0402 17.1703 16.875H15.0996Z" fill="currentColor" />
    <path fill-rule="evenodd" clip-rule="evenodd" d="M8.89803 16.875C8.43476 19.1572 6.417 20.875 3.99805 20.875H2.99805V18.875H3.99805C5.30427 18.875 6.4155 18.0402 6.82734 16.875H8.89803Z" fill="currentColor" />
    <path fill-rule="evenodd" clip-rule="evenodd" d="M10.998 16.875V20.875H12.998V16.875H10.998Z" fill="currentColor" />
    <path d="M21.998 3.125C22.4123 3.125 22.748 3.46079 22.748 3.875V14.875C22.748 15.2892 22.4123 15.625 21.998 15.625H1.99805C1.79913 15.625 1.60843 15.5459 1.46777 15.4053C1.32712 15.2646 1.24805 15.0739 1.24805 14.875V3.875C1.24805 3.46079 1.58383 3.125 1.99805 3.125H21.998ZM18.748 10.625V9.125H5.24805V10.625H18.748Z" fill="currentColor" />
</svg>