<svg xmlns="http://www.w3.org/2000/svg" width="24" height="24" viewBox="0 0 24 24" fill="none">
    <path fill-rule="evenodd" clip-rule="evenodd" d="M23 3.125C23 2.57272 22.5523 2.125 22 2.125H2C1.44772 2.125 1 2.57272 1 3.125V17.125C1 17.6773 1.44772 18.125 2 18.125H5.70696L7.55311 16.125H3V4.125H21V16.125H16.4469L18.293 18.125H22C22.5523 18.125 23 17.6773 23 17.125V3.125Z" fill="currentColor" />
    <path d="M12 13.875C12.2092 13.875 12.4088 13.9625 12.5508 14.1162L18.5508 20.6162C18.7528 20.8351 18.8069 21.1529 18.6875 21.4258C18.568 21.6987 18.2979 21.875 18 21.875H6.00001C5.70212 21.875 5.43199 21.6987 5.31251 21.4258C5.19314 21.1529 5.24722 20.8351 5.44923 20.6162L11.4492 14.1162L11.5049 14.0615C11.6411 13.9418 11.8169 13.875 12 13.875Z" fill="currentColor" />
</svg>