<svg xmlns="http://www.w3.org/2000/svg" width="24" height="24" viewBox="0 0 24 24" fill="none">
    <path d="M4.24561 1.76904C4.24561 2.05635 4.40873 2.5794 4.81982 3.06787C5.21399 3.5362 5.79779 3.92568 6.58447 4.02002L6.60693 4.02197C6.78113 3.87765 6.95899 3.74203 7.14014 3.61572C8.87651 2.40501 10.8508 2.01904 11.9907 2.01904C14.3046 2.01904 16.1058 2.83276 17.4263 4.01611C18.203 3.91768 18.7805 3.53228 19.1714 3.06787C19.5825 2.5794 19.7456 2.05635 19.7456 1.76904V1.01904H21.2456V1.76904C21.2456 2.48016 20.9087 3.33501 20.3198 4.03467C19.8895 4.54592 19.3018 4.99978 18.563 5.27295C19.5387 6.60403 20.0765 8.14629 20.2241 9.50635C20.2434 9.50661 20.2623 9.5059 20.2808 9.50635C20.5734 9.51353 20.9242 9.54317 21.269 9.65576C21.6246 9.77185 21.9845 9.98012 22.2651 10.3423C22.5427 10.7007 22.6988 11.1526 22.7495 11.6831L22.7524 11.7192V11.7544C22.7524 12.5633 22.277 13.476 21.3296 13.8481C21.148 13.9195 20.9421 13.9511 20.7866 13.9683C20.6161 13.9871 20.4337 13.9961 20.2671 14.0005L20.2427 22.981L15.519 20.6187L11.9956 22.6333L8.46826 20.6177L3.76025 22.9263V14.0103C3.60411 14.0123 3.43326 14.0103 3.25439 13.9819C2.69653 13.8934 2.19515 13.6878 1.82568 13.272C1.46509 12.866 1.31625 12.3552 1.25439 11.8384L1.24756 11.7817L1.24951 11.7241C1.26692 11.2028 1.40896 10.7374 1.69873 10.3608C1.98796 9.98506 2.37677 9.7611 2.77783 9.63623C3.1062 9.53403 3.46913 9.49834 3.80713 9.48877C3.98759 7.72174 4.58942 6.33655 5.40771 5.26611C4.67843 4.99215 4.09776 4.54124 3.67139 4.03467C3.08252 3.33501 2.74561 2.48016 2.74561 1.76904V1.01904H4.24561V1.76904ZM11.9956 15.769C11.4433 15.769 10.9956 16.2168 10.9956 16.769C10.9956 17.3213 11.4433 17.769 11.9956 17.769C12.5479 17.769 12.9956 17.3213 12.9956 16.769C12.9956 16.2168 12.5479 15.769 11.9956 15.769ZM11.9956 6.01904C9.92448 6.01904 8.24561 7.69799 8.24561 9.76904C8.24561 11.8402 9.92449 13.519 11.9956 13.519C14.0667 13.519 15.7456 11.8402 15.7456 9.76904C15.7456 7.69799 14.0667 6.01904 11.9956 6.01904Z" fill="currentColor" />
</svg>