<svg xmlns="http://www.w3.org/2000/svg" width="24" height="24" viewBox="0 0 24 24" fill="none">
    <path d="M17.9138 13.376C17.6342 13.1897 17.2648 13.212 17.0097 13.4307L13.5104 16.4307C13.3442 16.5732 13.2485 16.7812 13.2485 17.0001C13.2485 17.219 13.3442 17.427 13.5104 17.5695L17.0097 20.5695C17.3072 20.8246 17.751 20.8076 18.0281 20.5305L19.7806 18.7784H17.2466V17.7501L21.9985 17.7501C22.329 17.7501 22.6206 17.5338 22.7164 17.2174C22.8121 16.9011 22.6895 16.5594 22.4145 16.376L17.9138 13.376Z" fill="currentColor" />
    <path fill-rule="evenodd" clip-rule="evenodd" d="M13.6924 5.28456C13.1209 4.01298 11.6843 2.25011 9.00132 2.25011V4.20011C10.1184 4.20011 10.8869 4.6993 11.3727 5.26196C10.9143 5.33456 10.4656 5.45088 10.0299 5.60414C9.11715 4.98525 7.53289 4.43053 5.59979 5.02796L6.1922 6.88856C6.80389 6.69952 7.34596 6.69234 7.79589 6.771C7.23443 7.16673 6.71581 7.61702 6.25134 8.0994C5.18344 9.20849 4.32995 10.5617 3.88816 11.9485L2.89733 10.4843L1.25049 11.5659L2.60791 13.572L1.63133 14.053L2.51649 15.7972L3.67026 15.2288C4.38537 19.2317 8.41418 21.7501 12.465 21.7501C13.0218 21.7501 13.5736 21.7038 14.1135 21.6145L13.7855 19.6914C13.3528 19.7631 12.9106 19.8001 12.465 19.8001C8.7334 19.8001 5.53762 17.2894 5.53762 13.9501C5.53762 12.5675 6.33522 10.8457 7.68729 9.44144C9.03245 8.0444 10.769 7.12511 12.465 7.12511C13.8074 7.12511 15.1737 7.70202 16.3471 8.62801L13.2604 7.65866L12.6593 9.51656L17.7455 11.1138L21.3905 8.93352L20.3633 7.26669L18.7846 8.21103C17.452 6.78901 15.6643 5.63482 13.6924 5.28456Z" fill="currentColor" />
    <path d="M13.0005 11.0001C13.5528 11.0001 14.0005 11.4478 14.0005 12.0001C14.0005 12.5524 13.5528 13.0001 13.0005 13.0001C12.4482 13.0001 12.0005 12.5524 12.0005 12.0001C12.0005 11.4478 12.4482 11.0001 13.0005 11.0001Z" fill="currentColor" />
    <path d="M20.0005 11.0001C20.5528 11.0001 21.0005 11.4478 21.0005 12.0001C21.0005 12.5524 20.5528 13.0001 20.0005 13.0001C19.4482 13.0001 19.0005 12.5524 19.0005 12.0001C19.0005 11.4478 19.4482 11.0001 20.0005 11.0001Z" fill="currentColor" />
</svg>