<svg xmlns="http://www.w3.org/2000/svg" width="24" height="24" viewBox="0 0 24 24" fill="none">
    <path d="M23 12.2656C22.9999 13.1538 22.6123 13.9504 22 14.499V18.5H2V14.5C1.38744 13.9513 1 13.154 1 12.2656C1 10.6088 2.34315 9.26562 4 9.26562C5.65685 9.26562 7 10.6088 7 12.2656V14.2656H17V12.2656C17 10.6088 18.3431 9.26562 20 9.26562C21.6569 9.26562 23 10.6088 23 12.2656Z" fill="currentColor" />
    <path d="M4.25 17.25H5.75V20.75H4.25V17.25ZM18.25 17.25H19.75V20.75H18.25V17.25Z" fill="currentColor" />
    <path d="M3.75 8.02286C3.83272 8.01806 3.91608 8.01562 4 8.01562C4.43503 8.01562 4.85479 8.08099 5.25 8.20242C6.98717 8.73621 8.25 10.3534 8.25 12.2656V13.0156H15.75V12.2656C15.75 10.3534 17.0128 8.73621 18.75 8.20242C19.1452 8.08099 19.565 8.01562 20 8.01562C20.0839 8.01562 20.1673 8.01806 20.25 8.02286V3.25H3.75V8.02286Z" fill="currentColor" />
</svg>