<svg xmlns="http://www.w3.org/2000/svg" width="24" height="24" viewBox="0 0 24 24" fill="none">
    <path d="M19.0439 2.79297L21.5879 10.4258L19.6904 11.0576L18.9365 8.79297H16.71L15.9561 11.0576L14.0586 10.4258L16.6025 2.79297H19.0439ZM17.377 6.79297H18.2695L17.8232 5.4541L17.377 6.79297Z" fill="currentColor" />
    <path d="M20.8242 12.793V14.6436L20.6055 14.918L17.5059 18.793H20.8242V20.793H14.8242V18.9424L15.043 18.668L18.1426 14.793H14.8242V12.793H20.8242Z" fill="currentColor" />
    <path d="M13.2383 15.793L7.82422 21.207L2.41016 15.793L3.82422 14.3789L7.82422 18.3789L11.8242 14.3789L13.2383 15.793Z" fill="currentColor" />
    <path d="M6.82422 2.79297H8.82422V19.793H6.82422V2.79297Z" fill="currentColor" />
</svg>