<svg xmlns="http://www.w3.org/2000/svg" width="24" height="24" viewBox="0 0 24 24" fill="none">
    <path d="M6.82422 6.62109L3.82422 9.62109L2.41016 8.20703L7.82422 2.79297L13.2383 8.20703L11.8242 9.62109L8.82422 6.62109V21.207H6.82422V6.62109Z" fill="currentColor" />
    <path d="M20.8242 13.207V15.0576L20.6055 15.332L17.5059 19.207H20.8242V21.207H14.8242V19.3564L15.043 19.082L18.1426 15.207H14.8242V13.207H20.8242Z" fill="currentColor" />
    <path d="M19.0439 3.20703L21.5879 10.8398L19.6904 11.4717L18.9365 9.20703H16.71L15.9561 11.4717L14.0586 10.8398L16.6025 3.20703H19.0439ZM17.377 7.20703H18.2695L17.8232 5.86816L17.377 7.20703Z" fill="currentColor" />
</svg>