<svg xmlns="http://www.w3.org/2000/svg" width="24" height="24" viewBox="0 0 24 24" fill="none">
    <path d="M9.20703 17.3789L12.207 14.3789L13.6211 15.793L8.20703 21.207L2.79297 15.793L4.20703 14.3789L7.20703 17.3789V2.79297H9.20703V17.3789ZM21.207 14.6436L20.9883 14.918L17.8887 18.793H21.207V20.793H15.207V18.9424L15.4258 18.668L18.5254 14.793H15.207V12.793H21.207V14.6436ZM18.207 2.79297C19.8639 2.79297 21.207 4.13611 21.207 5.79297V10.793H19.207V8.79297H17.207V10.793H15.207V5.79297C15.207 4.13611 16.5502 2.79297 18.207 2.79297ZM18.207 4.79297C17.6547 4.79297 17.207 5.24068 17.207 5.79297V6.79297H19.207V5.79297C19.207 5.24068 18.7593 4.79297 18.207 4.79297Z" fill="currentColor" />
</svg>