<svg xmlns="http://www.w3.org/2000/svg" width="24" height="24" viewBox="0 0 24 24" fill="none">
    <path d="M13.6211 8.20703L12.207 9.62109L9.20703 6.62109V21.207H7.20703V6.62109L4.20703 9.62109L2.79297 8.20703L8.20703 2.79297L13.6211 8.20703ZM18.207 13.207C19.8639 13.207 21.207 14.5502 21.207 16.207V18.207C21.207 19.8639 19.8639 21.207 18.207 21.207C16.5502 21.207 15.207 19.8639 15.207 18.207V16.207C15.207 14.5502 16.5502 13.207 18.207 13.207ZM18.207 15.207C17.6547 15.207 17.207 15.6547 17.207 16.207V18.207C17.207 18.7593 17.6547 19.207 18.207 19.207C18.7593 19.207 19.207 18.7593 19.207 18.207V16.207C19.207 15.6547 18.7593 15.207 18.207 15.207ZM19.207 9.20703H21.207V11.207H15.207V9.20703H17.207V5.74219L15.9297 6.59375L14.8203 4.92969L17.4043 3.20703H19.207V9.20703Z" fill="currentColor" />
</svg>