<svg xmlns="http://www.w3.org/2000/svg" width="24" height="24" viewBox="0 0 24 24" fill="none">
    <path d="M15 12C15 10.3431 13.6569 9 12 9C10.3431 9 9 10.3431 9 12C9 13.6569 10.3431 15 12 15C13.6569 15 15 13.6569 15 12ZM17 12C17 14.7614 14.7614 17 12 17C9.23858 17 7 14.7614 7 12C7 9.23858 9.23858 7 12 7C14.7614 7 17 9.23858 17 12Z" fill="currentColor" />
    <path d="M15 13V7H17V13C17 14.1046 17.8954 15 19 15C20.1046 15 21 14.1046 21 13V12C21 7.02944 16.9706 3 12 3C7.02944 3 3 7.02944 3 12C3 16.9706 7.02944 21 12 21C14.0272 21 15.8953 20.3309 17.3994 19.2012L18.1992 18.6006L19.4004 20.2002L18.6006 20.8008C16.7621 22.1817 14.4751 23 12 23C5.92487 23 1 18.0751 1 12C1 5.92487 5.92487 1 12 1C18.0751 1 23 5.92487 23 12V13C23 15.2091 21.2091 17 19 17C16.7909 17 15 15.2091 15 13Z" fill="currentColor" />
</svg>