<svg xmlns="http://www.w3.org/2000/svg" width="24" height="24" viewBox="0 0 24 24" fill="none">
    <path d="M6.00003 12.25C7.90873 12.25 9.5536 13.3762 10.3086 15H20.75L22.75 17L19.75 20L17.75 18.5L15.75 20L14.25 19H10.3086C9.5536 20.6238 7.90873 21.75 6.00003 21.75C3.37668 21.75 1.25003 19.6234 1.25003 17C1.25003 14.3766 3.37668 12.25 6.00003 12.25ZM6.00003 15.5C5.1716 15.5 4.50003 16.1716 4.50003 17C4.50003 17.8284 5.1716 18.5 6.00003 18.5C6.82845 18.5 7.50003 17.8284 7.50003 17C7.50003 16.1716 6.82846 15.5 6.00003 15.5Z" fill="currentColor" />
    <path d="M18.8 4.15H3.20003V11.75H1.25003V2.25H20.75V11.75H18.8V4.15Z" fill="currentColor" />
</svg>