<svg xmlns="http://www.w3.org/2000/svg" width="24" height="24" viewBox="0 0 24 24" fill="none">
    <path d="M4.625 21.8745C4.625 20.2177 5.96815 18.8745 7.625 18.8745H10.625C11.1773 18.8745 11.625 18.4268 11.625 17.8745V15.8745H13.625V17.8745C13.625 19.5314 12.2819 20.8745 10.625 20.8745H7.625C7.07272 20.8745 6.625 21.3222 6.625 21.8745V22.8745H4.625V21.8745Z" fill="currentColor" />
    <path d="M19.375 7.87451C19.375 10.3329 18.2903 12.7361 16.9775 14.5083C16.3176 15.3993 15.5806 16.1575 14.8564 16.7007C14.1578 17.2246 13.3702 17.6245 12.625 17.6245C11.8798 17.6245 11.0922 17.2246 10.3936 16.7007C9.66936 16.1575 8.93243 15.3993 8.27246 14.5083C6.95969 12.7361 5.875 10.3329 5.875 7.87451C5.875 4.14659 8.89708 1.12451 12.625 1.12451C16.3529 1.12451 19.375 4.14659 19.375 7.87451ZM13.625 5.87451C14.1773 5.87451 14.625 6.32223 14.625 6.87451V7.87451H16.625V6.87451C16.625 5.21766 15.2819 3.87451 13.625 3.87451H12.625V5.87451H13.625Z" fill="currentColor" />
</svg>