<svg xmlns="http://www.w3.org/2000/svg" width="24" height="24" viewBox="0 0 24 24" fill="none">
    <path fill-rule="evenodd" clip-rule="evenodd" d="M22 11.9995C22 17.5224 17.5228 21.9995 12 21.9995C6.47715 21.9995 2 17.5224 2 11.9995C2 6.47666 6.47715 1.99951 12 1.99951C17.5228 1.99951 22 6.47666 22 11.9995ZM18.3198 16.9052L7.09427 5.67972C8.44897 4.62662 10.1512 3.99951 12 3.99951C16.4183 3.99951 20 7.58123 20 11.9995C20 13.8483 19.3729 15.5505 18.3198 16.9052ZM5.68021 7.09378L16.9057 18.3193C15.551 19.3724 13.8488 19.9995 12 19.9995C7.58172 19.9995 4 16.4178 4 11.9995C4 10.1508 4.62711 8.44848 5.68021 7.09378Z" fill="currentColor" />
</svg>