<svg xmlns="http://www.w3.org/2000/svg" width="24" height="24" viewBox="0 0 24 24" fill="none">
    <path d="M23.332 15.1675L20.832 17.6675L23.332 20.1675L21.918 21.5815L19.418 19.0815L16.918 21.5815L15.5039 20.1675L18.0039 17.6675L15.5039 15.1675L16.918 13.7534L19.418 16.2534L21.918 13.7534L23.332 15.1675Z" fill="currentColor" />
    <path fill-rule="evenodd" clip-rule="evenodd" d="M23.168 13.2358V2.41748H0.667969V16.9175H15.4863L13.7363 15.1675L16.918 11.9858L19.418 14.4858L21.918 11.9858L23.168 13.2358ZM15.168 9.66754C15.168 11.4625 13.7129 12.9175 11.918 12.9175C10.123 12.9175 8.66797 11.4625 8.66797 9.66754C8.66797 7.87262 10.123 6.41754 11.918 6.41754C13.7129 6.41754 15.168 7.87262 15.168 9.66754ZM6.91797 8.66754V10.6675H3.91797V8.66754H6.91797ZM16.918 8.66754H19.918V10.6675H16.918V8.66754Z" fill="currentColor" />
</svg>