<svg xmlns="http://www.w3.org/2000/svg" width="24" height="24" viewBox="0 0 24 24" fill="none">
    <path d="M17.918 16.7886L15.918 18.7886L14.5039 17.3745L18.918 12.9604L23.332 17.3745L21.918 18.7886L19.918 16.7886V21.3745H17.918V16.7886Z" fill="currentColor" />
    <path fill-rule="evenodd" clip-rule="evenodd" d="M23.168 15.4429V2.62451H0.667969V17.1245H12.9863L18.918 11.1929L23.168 15.4429ZM15.168 9.87458C15.168 11.6695 13.7129 13.1246 11.918 13.1246C10.123 13.1246 8.66797 11.6695 8.66797 9.87458C8.66797 8.07965 10.123 6.62458 11.918 6.62458C13.7129 6.62458 15.168 8.07965 15.168 9.87458ZM6.91797 8.87458V10.8746H3.91797V8.87458H6.91797ZM19.918 8.87458V10.8746H16.918V8.87458H19.918Z" fill="currentColor" />
</svg>