<svg xmlns="http://www.w3.org/2000/svg" width="24" height="24" viewBox="0 0 24 24" fill="none">
    <path d="M2 3H4V21H2V3Z" fill="currentColor" />
    <path d="M6.5 3H8.5V17H6.5V3Z" fill="currentColor" />
    <path d="M11 3H13V17H11V3Z" fill="currentColor" />
    <path d="M15.5 3H17.5V17H15.5V3Z" fill="currentColor" />
    <path d="M7.5 19C8.05228 19 8.5 19.4477 8.5 20C8.5 20.5523 8.05228 21 7.5 21C6.94772 21 6.5 20.5523 6.5 20C6.5 19.4477 6.94771 19 7.5 19Z" fill="currentColor" />
    <path d="M12 19C12.5523 19 13 19.4477 13 20C13 20.5523 12.5523 21 12 21C11.4477 21 11 20.5523 11 20C11 19.4477 11.4477 19 12 19Z" fill="currentColor" />
    <path d="M16.5 19C17.0523 19 17.5 19.4477 17.5 20C17.5 20.5523 17.0523 21 16.5 21C15.9477 21 15.5 20.5523 15.5 20C15.5 19.4477 15.9477 19 16.5 19Z" fill="currentColor" />
    <path d="M20 3H22V21H20V3Z" fill="currentColor" />
</svg>