<svg xmlns="http://www.w3.org/2000/svg" width="24" height="24" viewBox="0 0 24 24" fill="none">
    <path fill-rule="evenodd" clip-rule="evenodd" d="M7.25 22.2222V13.7827H16.75V22.2222L16.8115 22.2837H21.75V9.35693L19.5479 4.95264L19.2959 4.84424L12 1.71631L4.7041 4.84424L4.43457 4.96045L4.31445 5.229L2.31445 9.729L2.25 9.87451V22.2837H7.18848L7.25 22.2222ZM9.75 7.78271H14.25V9.28271H9.75V7.78271Z" fill="currentColor" />
    <path d="M14.1895 15.2827H9.81055L12 17.4722L14.1895 15.2827Z" fill="currentColor" />
    <path d="M10.9395 18.5327L8.75 16.3433V20.7222L10.9395 18.5327Z" fill="currentColor" />
    <path d="M15.25 16.3433L13.0605 18.5327L15.25 20.7222V16.3433Z" fill="currentColor" />
    <path d="M12 19.5933L9.30957 22.2837H14.6904L12 19.5933Z" fill="currentColor" />
</svg>