<svg xmlns="http://www.w3.org/2000/svg" width="24" height="24" viewBox="0 0 24 24" fill="none">
    <path d="M21.75 12.8286C21.75 16.5565 18.7279 19.5786 15 19.5786H9C5.27208 19.5786 2.25 16.5565 2.25 12.8286V11.8286C2.25 10.8621 3.0335 10.0786 4 10.0786H20C20.9665 10.0786 21.75 10.8621 21.75 11.8286V12.8286Z" fill="currentColor" />
    <path d="M4 4.94971C4.00012 3.22603 5.39742 1.82874 7.12109 1.82861C7.94881 1.82861 8.74279 2.15746 9.32812 2.74268L11.4141 4.82861L10 6.24268L7.91406 4.15674C7.7038 3.94659 7.41838 3.82861 7.12109 3.82861C6.50199 3.82874 6.00012 4.3306 6 4.94971V11.8286H4V4.94971Z" fill="currentColor" />
    <path d="M12.4141 3.82861L9 7.24268L7.58594 5.82861L11 2.41455L12.4141 3.82861Z" fill="currentColor" />
    <path d="M8.3418 18.3813L6.44727 22.1704L4.6582 21.2759L6.55273 17.4868L8.3418 18.3813ZM19.3418 21.2759L17.5527 22.1704L15.6582 18.3813L17.4473 17.4868L19.3418 21.2759Z" fill="currentColor" />
</svg>