<svg xmlns="http://www.w3.org/2000/svg" width="24" height="24" viewBox="0 0 24 24" fill="none">
    <path d="M13.9053 16.5327C11.8725 15.9167 9.88329 15.2505 7.5 15.2505C5.97029 15.2505 4.76667 15.5158 3.93555 15.7876C3.52024 15.9234 3.1979 16.061 2.97461 16.1675C2.86299 16.2207 2.7756 16.2664 2.71387 16.3003C2.68326 16.3171 2.65871 16.3307 2.64062 16.3413C2.63155 16.3466 2.62404 16.3514 2.61816 16.355L2.61035 16.3599L2.60645 16.3618L2.60547 16.3628L2.25 16.5825V21.7505H21.75V17.7505H21C18.1134 17.7505 15.9492 17.1521 13.9053 16.5327Z" fill="currentColor" />
    <path fill-rule="evenodd" clip-rule="evenodd" d="M4.30859 6.3718C5.7575 2.9392 9.71035 1.33156 13.1377 2.78489C16.5641 4.23791 18.1649 8.19878 16.7168 11.6306L16.4238 12.323L11.1357 10.0798L9.3916 14.1257C8.78598 14.0464 8.15701 13.9997 7.50098 13.9997C7.42175 13.9997 7.34332 14.0024 7.26562 14.0036L9.29492 9.29954L4.01758 7.06125L4.30859 6.3718Z" fill="currentColor" />
</svg>