<svg xmlns="http://www.w3.org/2000/svg" width="24" height="24" viewBox="0 0 24 24" fill="none">
    <path d="M4.59217 10.7704C5.29435 12.5164 7.00319 13.7489 9.00037 13.7489C10.3118 13.7488 11.4993 13.2177 12.3588 12.3583L17.4652 17.4648C15.343 19.5869 12.5925 21.0804 9.51209 21.6464C6.17192 22.2599 2.96668 20.0499 2.35291 16.7099C1.92707 14.3908 2.86271 12.1372 4.59217 10.7704Z" fill="currentColor" />
    <path d="M10.7709 4.59171C12.1376 2.86175 14.3919 1.92544 16.7113 2.35148C20.0511 2.96535 22.2611 6.17074 21.6478 9.51066C21.2396 11.7328 20.3457 13.7819 19.0844 15.5487L13.6224 10.0868C13.7043 9.73742 13.7504 9.37332 13.7504 8.99894C13.7501 7.00195 12.5168 5.29377 10.7709 4.59171Z" fill="currentColor" />
    <path d="M11.2982 11.2978C10.7102 11.8858 9.89763 12.2488 9.00037 12.2489C7.54706 12.2489 6.31648 11.2953 5.90077 9.97941C6.33581 9.78631 6.80069 9.64051 7.28944 9.5507C7.85892 9.446 8.37196 9.1654 8.76893 8.76847L11.2982 11.2978Z" fill="currentColor" />
    <path d="M9.98084 5.89933C11.2048 6.28617 12.1137 7.37883 12.2347 8.69913L9.82362 6.288C9.87169 6.15614 9.92447 6.02631 9.98084 5.89933Z" fill="currentColor" />
    <path d="M22.7501 21.3356L21.336 22.7496L1.25009 2.6637L2.66415 1.24963L22.7501 21.3356Z" fill="currentColor" />
</svg>