<svg xmlns="http://www.w3.org/2000/svg" width="24" height="24" viewBox="0 0 24 24" fill="none">
    <path fill-rule="evenodd" clip-rule="evenodd" d="M10.7703 4.59211C12.137 2.86188 14.3911 1.9258 16.7107 2.35188C20.0508 2.96564 22.2608 6.17088 21.6473 9.51105C20.5153 15.6723 15.6728 20.5149 9.51151 21.6468C6.17133 22.2603 2.9661 20.0503 2.35233 16.7103C1.92631 14.3909 2.86174 12.1366 4.59159 10.7698C5.29356 12.5163 7.00228 13.7493 8.99979 13.7493C11.6231 13.7493 13.7498 11.6227 13.7498 8.99934C13.7497 7.00211 12.5164 5.29417 10.7703 4.59211ZM9.98026 5.89973C11.296 6.31547 12.2497 7.54619 12.2498 8.99934C12.2498 10.7943 10.7947 12.2493 8.99979 12.2493C7.54647 12.2493 6.3159 11.2957 5.90018 9.9798C6.33536 9.78661 6.79993 9.64094 7.28885 9.55109C8.42826 9.3418 9.34225 8.42781 9.55155 7.2884C9.64139 6.79948 9.78706 6.3349 9.98026 5.89973Z" fill="currentColor" />
</svg>