<svg xmlns="http://www.w3.org/2000/svg" width="24" height="24" viewBox="0 0 24 24" fill="none">
    <path fill-rule="evenodd" clip-rule="evenodd" d="M5.24219 8.99951H9.74219V11.4995C9.74219 13.0183 10.9734 14.2495 12.4922 14.2495C14.011 14.2495 15.2422 13.0183 15.2422 11.4995V8.99951H18.7422V10.8442C18.7422 11.7029 18.5787 12.5538 18.2598 13.3511L17.4033 15.4897C16.9663 16.5823 16.7422 17.7485 16.7422 18.9253V22.7495H7.24219V18.9253C7.24218 17.7485 7.01809 16.5823 6.58105 15.4897L5.72461 13.3511C5.40571 12.5538 5.24222 11.7029 5.24219 10.8442V8.99951Z" fill="currentColor" />
    <path d="M13.9922 7.74951H17.8808L18.1054 7.44971C18.5135 6.90646 18.7558 6.23028 18.7558 5.49951C18.7558 3.70459 17.3008 2.24951 15.5058 2.24951C15.2164 2.24951 14.935 2.28743 14.667 2.35889C13.9882 1.67504 13.047 1.24951 12.0058 1.24951C10.9644 1.24951 10.0225 1.67475 9.34372 2.35889C9.07594 2.28758 8.79498 2.24951 8.50583 2.24951C6.7109 2.24951 5.25583 3.70459 5.25583 5.49951C5.25583 6.23028 5.49818 6.90646 5.90622 7.44971L6.13083 7.74951H10.9922V11.4995C10.9922 12.3279 11.6638 12.9995 12.4922 12.9995C13.3206 12.9995 13.9922 12.3279 13.9922 11.4995V7.74951Z" fill="currentColor" />
</svg>