<svg xmlns="http://www.w3.org/2000/svg" width="24" height="24" viewBox="0 0 24 24" fill="none">
    <path d="M20.999 8.32129C20.999 6.267 20.2873 4.46477 19.1816 2.89844L18.6055 2.08105L20.2393 0.927734L20.8164 1.74414C22.1107 3.57778 22.999 5.77563 22.999 8.32129V9.32129H20.999V8.32129Z" fill="currentColor" />
    <path d="M1 8.32129C1 5.77563 1.88829 3.57778 3.18262 1.74414L3.75977 0.927734L5.39355 2.08105L4.81738 2.89844C3.71176 4.46477 3 6.267 3 8.32129V9.32129H1V8.32129Z" fill="currentColor" />
    <path d="M21.7842 16.2285L19.2481 13.0576V8.32129C19.2481 4.59337 16.226 1.57129 12.4981 1.57129H11.4981C7.77034 1.57148 4.7481 4.59348 4.7481 8.32129V13.0586L2.21295 16.2285C1.29638 17.3744 2.11181 19.0713 3.57916 19.0713H7.30796H8.83605H15.1621H16.6902H20.418C21.8853 19.0711 22.7005 17.3742 21.7842 16.2285Z" fill="currentColor" />
    <path fill-rule="evenodd" clip-rule="evenodd" d="M7.68945 20.3213C8.44439 21.9453 10.0903 23.0713 11.9991 23.0713C13.908 23.0713 15.5539 21.9453 16.3088 20.3213H7.68945Z" fill="currentColor" />
</svg>