<svg xmlns="http://www.w3.org/2000/svg" width="24" height="24" viewBox="0 0 24 24" fill="none">
    <path d="M13.001 3.95752C15.8386 4.43367 18.001 6.9006 18.001 9.87354C18.001 11.5764 17.2897 13.1115 16.1504 14.2036L18.7529 22.5298L16.8438 23.1265L14.418 15.3647C13.9714 15.5616 13.4967 15.7054 13.001 15.7886L13.001 22.8735L11.001 22.8735L11.001 15.7886C10.5042 15.7052 10.0285 15.5613 9.58105 15.3638L7.15625 23.1265L5.24707 22.5298L7.84863 14.2017C6.71076 13.1097 6.00098 11.5751 6.00098 9.87354C6.00098 6.9006 8.16335 4.43367 11.001 3.95752V0.873535L13.001 0.873535V3.95752Z" fill="currentColor" />
</svg>