<svg xmlns="http://www.w3.org/2000/svg" width="24" height="24" viewBox="0 0 24 24" fill="none">
    <path d="M14.75 6.11426C14.75 7.29358 13.7936 8.25 12.6143 8.25H12.4375L12.377 8.24023L10.0283 7.84863C9.51418 9.69974 9.31817 11.751 9.27246 13.2393C10.202 12.8419 11.1381 12.7154 11.9941 12.7461C13.159 12.7879 14.1801 13.118 14.8623 13.4346C15.6987 12.6982 16.7972 12.25 18 12.25C20.6234 12.25 22.75 14.3766 22.75 17C22.75 19.5617 20.2494 21.75 16.5 21.75C14.606 21.75 9.66066 21.75 4.76465 20.4824C2.98245 20.0208 1.25 18.62 1.25 16.5C1.25 15.8252 1.48612 14.9693 1.81055 14.0791C2.1433 13.1661 2.60246 12.1309 3.1123 11.0664C3.8891 9.4446 4.80403 7.71507 5.60353 6.20374C5.8519 5.73423 6.08913 5.28578 6.30762 4.86816C6.80687 3.91401 7.6838 3.20349 8.7373 2.93359L11.0625 2.33789C11.2899 2.27964 11.5241 2.25002 11.7588 2.25C13.13 2.25 14.3009 3.24123 14.5264 4.59375L14.7207 5.76367C14.74 5.87955 14.75 5.99678 14.75 6.11426Z" fill="currentColor" />
</svg>