<svg xmlns="http://www.w3.org/2000/svg" width="24" height="24" viewBox="0 0 24 24" fill="none">
    <path d="M18 5.5C18 4.67157 17.3284 4 16.5 4C15.6716 4 15 4.67157 15 5.5V7.5C15 8.32843 15.6716 9 16.5 9C17.3284 9 18 8.32843 18 7.5V5.5ZM20 7.5C20 9.433 18.433 11 16.5 11C14.567 11 13 9.433 13 7.5V5.5C13 3.567 14.567 2 16.5 2C18.433 2 20 3.567 20 5.5V7.5Z" fill="currentColor" />
    <path d="M9 16.5C9 15.6716 8.32843 15 7.5 15C6.67157 15 6 15.6716 6 16.5V18.5C6 19.3284 6.67157 20 7.5 20C8.32843 20 9 19.3284 9 18.5V16.5ZM11 18.5C11 20.433 9.433 22 7.5 22C5.567 22 4 20.433 4 18.5V16.5C4 14.567 5.567 13 7.5 13C9.433 13 11 14.567 11 16.5V18.5Z" fill="currentColor" />
    <path d="M6.5 4.53516L5.22266 5.38672L4.11328 3.72266L6.69727 2H8.5L8.50098 11H6.50098L6.5 4.53516Z" fill="currentColor" />
    <path d="M10.5 9V11H4.5V9H10.5Z" fill="currentColor" />
    <path d="M15.5 15.5352L14.2227 16.3867L13.1133 14.7227L15.6973 13H17.5L17.501 22H15.501L15.5 15.5352Z" fill="currentColor" />
    <path d="M19.5 20V22H13.5V20H19.5Z" fill="currentColor" />
</svg>