<svg xmlns="http://www.w3.org/2000/svg" width="24" height="24" viewBox="0 0 24 24" fill="none">
    <path d="M19.75 22.75L4.25 22.75L4.25 1.25L19.75 1.25L19.75 22.75ZM12 18C11.4477 18 11 18.4477 11 19C11 19.5523 11.4477 20 12 20C12.5523 20 13 19.5523 13 19C13 18.4477 12.5523 18 12 18ZM12 5.25C9.92893 5.25 8.25 6.92893 8.25 9L8.25 11C8.25 13.0711 9.92893 14.75 12 14.75H12.75V13.25H12C10.7574 13.25 9.75 12.2426 9.75 11L9.75 9C9.75 7.75736 10.7574 6.75 12 6.75C13.2426 6.75 14.25 7.75736 14.25 9V11.75L15.75 11.75V9C15.75 6.92893 14.0711 5.25 12 5.25ZM11.25 11.75H12.75V8.25H11.25L11.25 11.75Z" fill="currentColor" />
</svg>