<svg xmlns="http://www.w3.org/2000/svg" width="24" height="24" viewBox="0 0 24 24" fill="none">
    <path fill-rule="evenodd" clip-rule="evenodd" d="M11.25 6.50047H12.25V9.00047H11.25V13.5005H14.25V15.0005H18.75V13.4253C20.4617 13.0778 21.75 11.5647 21.75 9.75047V9.34227C21.9079 9.62286 22.0553 9.91924 22.1895 10.2329L22.1914 10.2388C22.5523 11.1008 22.75 12.0305 22.75 12.9995C22.75 15.2431 21.3426 17.4041 19.75 18.8403V22.2495H16.5986L15.6621 20.8442C14.037 21.1626 11.963 21.1626 10.3379 20.8442L9.40137 22.2495H6.25V19.0327C5.87151 18.8823 5.2552 18.6109 4.68555 18.2798C3.55558 17.6228 2.0901 16.3853 1.25 14.7378V11.2495H3.4209C3.81099 10.0164 4.62033 8.80856 5.61816 7.80028C6.78326 6.62301 8.27074 5.65068 9.81055 5.20067L9.8252 5.19579L9.84082 5.19188C10.2518 5.09064 10.7279 5.00203 11.25 4.93797V6.50047ZM8 10.5005C7.44771 10.5005 7 10.9482 7 11.5005C7 12.0528 7.44772 12.5005 8 12.5005C8.55228 12.5005 9 12.0528 9 11.5005C9 10.9482 8.55228 10.5005 8 10.5005Z" fill="currentColor" />
    <path d="M18.5 9.25049C18.5 8.97435 18.2761 8.75049 18 8.75049H15.5V10.2505H18C18.2761 10.2505 18.5 10.0266 18.5 9.75049V9.25049ZM18 5.75049C18 5.47435 17.7761 5.25049 17.5 5.25049H15.5V6.75049H17.5C17.7761 6.75049 18 6.52663 18 6.25049V5.75049ZM20 6.25049C20 6.67582 19.8924 7.07563 19.7051 7.42627C20.193 7.88251 20.5 8.52979 20.5 9.25049V9.75049C20.5 11.1312 19.3807 12.2505 18 12.2505H17.5V13.7505H15.5V12.2505H12.5V10.2505H13.5V5.25049H12.5V3.25049H15.5V1.75049H17.5V3.25049C18.8807 3.25049 20 4.36978 20 5.75049V6.25049Z" fill="currentColor" />
</svg>