<svg xmlns="http://www.w3.org/2000/svg" width="24" height="24" viewBox="0 0 24 24" fill="none">
    <path d="M16.7002 6.91797L11.6172 12.001L16.7002 17.084L9.2041 23.082V14.4141L5.20312 18.415L3.78906 17.001L8.78906 12.001L3.78906 7.00098L5.20312 5.58691L9.2041 9.58789V0.919922L16.7002 6.91797ZM11.2041 18.9199L13.7051 16.917L11.2041 14.416V18.9199ZM11.2041 9.58594L13.7061 7.08301L11.2041 5.08105V9.58594Z" fill="currentColor" />
    <path d="M19.1201 8.86719C19.8284 9.75542 20.2132 10.8591 20.2109 11.9951C20.2086 13.131 19.8191 14.2319 19.1074 15.1172L18.4814 15.8965L16.9229 14.6436L17.5488 13.8643C17.9758 13.3331 18.2095 12.6727 18.2109 11.9912C18.2123 11.3096 17.9816 10.6472 17.5566 10.1143L16.9336 9.33301L18.4971 8.08594L19.1201 8.86719ZM14.2031 12.001V11.9912C14.2031 11.4389 14.6508 10.9912 15.2031 10.9912C15.7554 10.9912 16.2031 11.4389 16.2031 11.9912V12.001C16.2031 12.5533 15.7554 13.001 15.2031 13.001C14.6508 13.001 14.2031 12.5533 14.2031 12.001Z" fill="currentColor" />
</svg>