<svg xmlns="http://www.w3.org/2000/svg" width="24" height="24" viewBox="0 0 24 24" fill="none">
    <path fill-rule="evenodd" clip-rule="evenodd" d="M20.75 18.8408H19.6875C19.657 18.8768 19.6244 18.9161 19.5928 18.96C19.4254 19.1924 19.292 19.4845 19.292 19.8184C19.292 20.152 19.4255 20.4434 19.5928 20.6758C19.6244 20.7197 19.657 20.7599 19.6875 20.7959H20.75V22.75H6.16699C4.55622 22.75 3.2501 21.4375 3.25 19.8184V4.18164C3.2501 2.56252 4.55622 1.25 6.16699 1.25H20.75V18.8408ZM6.16699 18.8408C5.63005 18.8408 5.19434 19.2786 5.19434 19.8184C5.19453 20.3579 5.63017 20.7949 6.16699 20.7949H17.501C17.4091 20.5034 17.3467 20.1772 17.3467 19.8184C17.3467 19.4593 17.409 19.1325 17.501 18.8408H6.16699ZM9.56445 16.8857H18.8057V14.8477L15.3799 11.4043L9.56445 16.8857ZM9.5 5.5C8.39543 5.5 7.5 6.39544 7.5 7.5C7.5 8.60457 8.39543 9.5 9.5 9.5C10.6046 9.5 11.5 8.60457 11.5 7.5C11.5 6.39544 10.6046 5.5 9.5 5.5Z" fill="currentColor" />
</svg>