<svg xmlns="http://www.w3.org/2000/svg" width="24" height="24" viewBox="0 0 24 24" fill="none">
    <path d="M19.5 3.91406L20.75 2.66406L19.3359 1.25L15.1035 5.48145C14.7656 5.33319 14.3926 5.25 14 5.25C12.4812 5.25 11.25 6.48122 11.25 8C11.25 9.51878 12.4812 10.75 14 10.75C15.5188 10.75 16.75 9.51878 16.75 8C16.75 7.60692 16.6662 7.2337 16.5176 6.89551L18.0859 5.32812L19.3359 6.57812L20.75 5.16406L19.5 3.91406Z" fill="currentColor" />
    <path fill-rule="evenodd" clip-rule="evenodd" d="M14.7451 4.07129C14.5036 4.02545 14.2546 4 14 4C11.7909 4 10 5.79086 10 8C10 10.2091 11.7909 12 14 12C16.2091 12 18 10.2091 18 8C18 7.74409 17.974 7.4942 17.9277 7.25195L18.085 7.09473L19.3359 8.3457L20.75 6.93164V18.8408H19.6875C19.6572 18.8768 19.6244 18.9161 19.5928 18.96C19.4254 19.1924 19.292 19.4845 19.292 19.8184C19.292 20.152 19.4255 20.4434 19.5928 20.6758C19.6244 20.7198 19.6571 20.7598 19.6875 20.7959H20.75V22.75H6.16699C4.55622 22.75 3.2501 21.4375 3.25 19.8184V4.18164C3.2501 2.56252 4.55622 1.25 6.16699 1.25H17.5674L14.7451 4.07129ZM6.16699 18.8398C5.63005 18.8398 5.19434 19.2777 5.19434 19.8174C5.19448 20.357 5.63014 20.7939 6.16699 20.7939H17.5C17.4082 20.5025 17.3477 20.1761 17.3477 19.8174C17.3477 19.4584 17.4081 19.1314 17.5 18.8398H6.16699Z" fill="currentColor" />
</svg>