<svg xmlns="http://www.w3.org/2000/svg" width="24" height="24" viewBox="0 0 24 24" fill="none">
    <path d="M22.7501 16.3356L17.3361 21.7496L13.922 18.3356L15.3361 16.9215L17.3361 18.9215L21.3361 14.9215L22.7501 16.3356Z" fill="currentColor" />
    <path d="M11.2501 3.99476C9.50343 2.86024 7.44761 2.24683 5.33313 2.24964C4.08001 2.24968 2.87467 2.4599 1.75403 2.84925L1.25012 3.02503V20.5143L2.24622 20.1676L2.61145 20.0494C3.47053 19.7904 4.38544 19.651 5.33411 19.651C7.50122 19.648 9.59412 20.3947 11.2501 21.7496V3.99476Z" fill="currentColor" />
    <path d="M22.2462 2.84925C21.1256 2.4599 19.9202 2.25066 18.6671 2.25062C16.5526 2.24781 14.4968 2.86044 12.7501 3.99476V17.7399L15.3361 15.1539L17.3361 17.1539L22.7501 11.7399V3.02503L22.2462 2.84925Z" fill="currentColor" />
</svg>