<svg xmlns="http://www.w3.org/2000/svg" width="24" height="24" viewBox="0 0 24 24" fill="none">
    <path d="M20.75 18.8408H19.6875C19.6572 18.8768 19.6244 18.9161 19.5928 18.96C19.4254 19.1924 19.292 19.4845 19.292 19.8184C19.292 20.152 19.4255 20.4434 19.5928 20.6758C19.6244 20.7198 19.6571 20.7598 19.6875 20.7959H20.75V22.75H6.16699C4.55622 22.75 3.2501 21.4375 3.25 19.8184V4.18164C3.2501 2.56252 4.55622 1.25 6.16699 1.25H20.75V18.8408ZM6.16699 18.8398C5.63005 18.8398 5.19434 19.2777 5.19434 19.8174C5.19448 20.357 5.63014 20.7939 6.16699 20.7939H17.5C17.4082 20.5025 17.3477 20.1761 17.3477 19.8174C17.3477 19.4584 17.4081 19.1314 17.5 18.8398H6.16699ZM12 5.25C10.7574 5.25 9.75 6.25736 9.75 7.5C9.75 8.30175 10.1704 9.00385 10.8018 9.40234C8.75849 9.93336 7.25 11.7906 7.25 14V14.75H16.75V14C16.75 11.7902 15.241 9.93305 13.1973 9.40234C13.829 9.00393 14.25 8.30205 14.25 7.5C14.25 6.25736 13.2426 5.25 12 5.25Z" fill="currentColor" />
</svg>