<svg xmlns="http://www.w3.org/2000/svg" width="24" height="24" viewBox="0 0 24 24" fill="none">
    <path fill-rule="evenodd" clip-rule="evenodd" d="M16.9999 1.25C18.5646 1.25 19.8327 2.52578 19.8329 4.09961L19.8089 4.99339H21.2259L21.2499 10.75H12.7498L12.7258 4.99339H14.1428L14.1669 4.09961C14.1671 2.52578 15.4352 1.25 16.9999 1.25ZM16.9999 3.15039C16.4783 3.15045 16.0555 3.57595 16.0555 4.10059L16.0315 4.99339H17.9202L17.9442 4.10059C17.9442 3.57592 17.5215 3.15039 16.9999 3.15039Z" fill="currentColor" />
    <path fill-rule="evenodd" clip-rule="evenodd" d="M14.0663 1.25C13.4322 1.90856 13.0155 2.77882 12.9325 3.74316H11.4706L11.5048 12H20.2499V18.8408H19.1874C19.1571 18.8768 19.1243 18.9161 19.0927 18.96C18.9253 19.1924 18.7919 19.4845 18.7919 19.8184C18.7919 20.152 18.9254 20.4434 19.0927 20.6758C19.1244 20.7198 19.157 20.7598 19.1874 20.7959H20.2499V22.75H5.6669C4.05613 22.75 2.75 21.4375 2.74991 19.8184V4.18164C2.75 2.56252 4.05613 1.25 5.6669 1.25H14.0663ZM5.6669 18.8398C5.12996 18.8398 4.69424 19.2777 4.69424 19.8174C4.69439 20.357 5.13005 20.7939 5.6669 20.7939H16.9999C16.9081 20.5025 16.8476 20.1761 16.8476 19.8174C16.8476 19.4584 16.908 19.1314 16.9999 18.8398H5.6669Z" fill="currentColor" />
</svg>