<svg xmlns="http://www.w3.org/2000/svg" width="24" height="24" viewBox="0 0 24 24" fill="none">
    <path d="M16.4141 5.66406L15 7.07812L12 4.07812L9 7.07812L7.58594 5.66406L12 1.25L16.4141 5.66406Z" fill="currentColor" />
    <path d="M11 10.0781L9 12.0781L7.58594 10.6641L12 6.25L16.4141 10.6641L15 12.0781L13 10.0781V14.6641H11V10.0781Z" fill="currentColor" />
    <path fill-rule="evenodd" clip-rule="evenodd" d="M20.75 18.8408H19.6875C19.6572 18.8768 19.6244 18.9161 19.5928 18.96C19.4254 19.1924 19.292 19.4845 19.292 19.8184C19.292 20.152 19.4255 20.4434 19.5928 20.6758C19.6244 20.7198 19.6571 20.7598 19.6875 20.7959H20.75V22.75H6.16699C4.55622 22.75 3.2501 21.4375 3.25 19.8184V4.18164C3.2501 2.56252 4.55622 1.25 6.16699 1.25H10.2324L5.81836 5.66406L8.31836 8.16406L5.81836 10.6641L9 13.8457L9.75 13.0957V15.9141H14.25V13.0957L15 13.8457L18.1816 10.6641L15.6816 8.16406L18.1816 5.66406L13.7676 1.25H20.75V18.8408ZM6.16699 18.8398C5.63005 18.8398 5.19434 19.2777 5.19434 19.8174C5.19448 20.357 5.63014 20.7939 6.16699 20.7939H17.5C17.4082 20.5025 17.3477 20.1761 17.3477 19.8174C17.3477 19.4584 17.4081 19.1314 17.5 18.8398H6.16699Z" fill="currentColor" />
</svg>