<svg xmlns="http://www.w3.org/2000/svg" width="24" height="24" viewBox="0 0 24 24" fill="none">
    <path fill-rule="evenodd" clip-rule="evenodd" d="M3 20V4C3 2.34315 4.34315 1 6 1H21V19H19.898L19.8096 19.122C19.6374 19.3599 19.5 19.6584 19.5 19.9999C19.5 20.3415 19.6374 20.64 19.8096 20.8779L19.8981 21H21V23H6C4.34315 23 3 21.6569 3 20ZM17.5 19.9999C17.5 20.3671 17.5609 20.7017 17.6554 21H6C5.44772 21 5 20.5523 5 20C5 19.4477 5.44772 19 6 19H17.6555C17.561 19.2982 17.5 19.6327 17.5 19.9999ZM14 12V10H8V12H14ZM16 8V6H8V8H16Z" fill="currentColor" />
</svg>