<svg xmlns="http://www.w3.org/2000/svg" width="24" height="24" viewBox="0 0 24 24" fill="none">
    <path d="M15.25 10.1641L13.25 12.1641L11.8359 10.75L16.25 6.33594L20.6641 10.75L19.25 12.1641L17.25 10.1641V14.75H15.25V10.1641ZM20.6641 5.75L19.25 7.16406L16.25 4.16406L13.25 7.16406L11.8359 5.75L16.25 1.33594L20.6641 5.75Z" fill="currentColor" />
    <path fill-rule="evenodd" clip-rule="evenodd" d="M14.5684 1.25H12H6.16699C4.55622 1.25 3.2501 2.56252 3.25 4.18164V19.8184C3.2501 21.4375 4.55622 22.75 6.16699 22.75H20.75V20.7959H19.6875C19.6571 20.7598 19.6244 20.7198 19.5928 20.6758C19.4255 20.4434 19.292 20.152 19.292 19.8184C19.292 19.4845 19.4254 19.1924 19.5928 18.96C19.6244 18.9161 19.6572 18.8768 19.6875 18.8408H20.75V12.4316L19.25 13.9316L18.5 13.1816V16H14V13.1816L13.25 13.9316L10.0684 10.75L12.5684 8.25L10.0684 5.75L14.5684 1.25ZM5.19434 19.8174C5.19434 19.2777 5.63005 18.8398 6.16699 18.8398H17.5C17.4081 19.1314 17.3477 19.4584 17.3477 19.8174C17.3477 20.1761 17.4082 20.5025 17.5 20.7939H6.16699C5.63014 20.7939 5.19448 20.357 5.19434 19.8174Z" fill="currentColor" />
</svg>