<svg xmlns="http://www.w3.org/2000/svg" width="24" height="24" viewBox="0 0 24 24" fill="none">
    <path d="M18.8056 4.125H5.19444V9.75H3.25V2.25H20.75V9.75H18.8056V4.125Z" fill="currentColor" />
    <path d="M22.75 21.75H1.25V8.25H22.75V21.75ZM8 12C6.34315 12 5 13.3431 5 15C5 16.6569 6.34315 18 8 18C9.65685 18 11 16.6569 11 15C11 13.3431 9.65685 12 8 12ZM16 12C14.3431 12 13 13.3431 13 15C13 16.6569 14.3431 18 16 18C17.6569 18 19 16.6569 19 15C19 13.3431 17.6569 12 16 12ZM8 14C8.55228 14 9 14.4477 9 15C9 15.5523 8.55228 16 8 16C7.44772 16 7 15.5523 7 15C7 14.4477 7.44772 14 8 14ZM16 14C16.5523 14 17 14.4477 17 15C17 15.5523 16.5523 16 16 16C15.4477 16 15 15.5523 15 15C15 14.4477 15.4477 14 16 14Z" fill="currentColor" />
</svg>