<svg xmlns="http://www.w3.org/2000/svg" width="24" height="24" viewBox="0 0 24 24" fill="none">
    <path d="M14.5001 22.7496C16.0591 22.7496 17.3603 21.6517 17.6759 20.1871C19.4243 19.8688 20.7501 18.3398 20.7501 16.4996C20.7501 16.1162 20.6905 15.7462 20.5831 15.3971C21.8625 14.8 22.7501 13.505 22.7501 11.9996C22.7501 10.494 21.8627 9.19815 20.5831 8.60117C20.6903 8.25229 20.7501 7.88268 20.7501 7.4996C20.7501 5.6593 19.4244 4.12939 17.6759 3.81113C17.36 2.347 16.0587 1.2496 14.5001 1.2496C13.4947 1.2496 12.5963 1.70637 12.0001 2.42343C11.404 1.70641 10.5055 1.2496 9.50012 1.2496C7.94147 1.2496 6.63923 2.34695 6.32336 3.81113C4.5754 4.12976 3.25017 5.65967 3.25012 7.4996C3.25012 7.88255 3.30905 8.2524 3.41614 8.60117C2.13702 9.1983 1.25016 10.4944 1.25012 11.9996C1.25012 13.5047 2.13724 14.7998 3.41614 15.3971C3.30884 15.7461 3.25013 16.1163 3.25012 16.4996C3.25012 18.3395 4.57547 19.8684 6.32336 20.1871C6.63881 21.6518 7.94107 22.7496 9.50012 22.7496C10.5058 22.7496 11.404 22.2922 12.0001 21.5748C12.5963 22.2922 13.4945 22.7496 14.5001 22.7496ZM11.0001 15.3531C10.7673 15.2838 10.5448 15.1914 10.3351 15.0777L9.87903 15.5348L9.172 16.2418L7.75793 14.8277L8.46497 14.1207L8.92102 13.6637C8.80759 13.4542 8.71482 13.2321 8.64563 12.9996L7.00012 12.9996L7.00012 10.9996L8.64563 10.9996C8.71491 10.7669 8.8074 10.5442 8.92102 10.3346L7.75793 9.17148L9.172 7.75742L10.3351 8.9205C10.5448 8.80688 10.7674 8.71439 11.0001 8.64511V6.9996H13.0001V8.64511C13.2326 8.7143 13.4547 8.80707 13.6642 8.9205L14.1212 8.46445L14.8282 7.75742L16.2423 9.17148L15.5353 9.87851L15.0782 10.3346C15.192 10.5444 15.2853 10.7667 15.3546 10.9996H17.0001V12.9996H15.3546C15.2854 13.2322 15.1918 13.4541 15.0782 13.6637L16.2423 14.8277L14.8282 16.2418L13.6642 15.0777C13.4547 15.1912 13.2326 15.2839 13.0001 15.3531L13.0001 16.9996H11.0001L11.0001 15.3531ZM12.0001 13.4996C12.8285 13.4996 13.5001 12.828 13.5001 11.9996C13.5001 11.1712 12.8285 10.4996 12.0001 10.4996C11.1717 10.4996 10.5001 11.1712 10.5001 11.9996C10.5001 12.828 11.1717 13.4996 12.0001 13.4996Z" fill="currentColor" />
</svg>