<svg xmlns="http://www.w3.org/2000/svg" width="24" height="24" viewBox="0 0 24 24" fill="none">
    <path fill-rule="evenodd" clip-rule="evenodd" d="M12 18.125C8.27347 18.125 4.73612 17.5445 2.25 16.4844V21.666L2.76367 21.8369C4.67566 22.473 8.12943 22.875 12 22.875C15.8706 22.875 19.3243 22.473 21.2363 21.8369L21.75 21.666V16.4844C19.2639 17.5445 15.7265 18.125 12 18.125Z" fill="currentColor" />
    <path d="M16.5 5.53039V1.125H7.5V5.53039C5.11962 5.70258 3.11102 6.00904 1.78516 6.40607L1.25 6.56622V14.5496L1.61426 14.7684C3.78008 16.0656 7.67082 16.8748 12 16.8748C16.3292 16.8748 20.2199 16.0656 22.3857 14.7684L22.75 14.5496V6.56622L22.2148 6.40607C20.889 6.00904 18.8804 5.70258 16.5 5.53039ZM14.5 3.125V5.42127C13.6921 5.39076 12.8555 5.37482 12 5.37482C11.1445 5.37482 10.3079 5.39076 9.5 5.42127V3.125H14.5ZM13 12.8748C13 13.4271 12.5523 13.8748 12 13.8748C11.4477 13.8748 11 13.4271 11 12.8748C11 12.3225 11.4477 11.8748 12 11.8748C12.5523 11.8748 13 12.3225 13 12.8748Z" fill="currentColor" />
</svg>