<svg xmlns="http://www.w3.org/2000/svg" width="24" height="24" viewBox="0 0 24 24" fill="none">
    <path d="M18.841 20.9995H16.8865V22.7495H14.9319V20.9995H12.9774V22.7495H11.0229V20.9995H9.0683V22.7495H7.11376V20.9995H5.15921V22.7495H3.20467V20.9995H1.25012V19.2495H22.7501V20.9995H20.7956V22.7495H18.841V20.9995Z" fill="currentColor" />
    <path d="M7.25012 11.7495H8.75012V10.7495H15.2501V11.7495H16.7501V10.7495H20.7501V16.7495H3.25012V10.7495H7.25012V11.7495Z" fill="currentColor" />
    <path fill-rule="evenodd" clip-rule="evenodd" d="M15.7501 4.24951H20.7501V9.24951H16.7501V8.24951H15.2501V9.24951H8.75012V8.24951H7.25012V9.24951H3.25012V4.24951H8.25012V1.24951H15.7501V4.24951ZM10.1251 4.24951H13.8751V3.04932H10.1251V4.24951Z" fill="currentColor" />
</svg>