<svg xmlns="http://www.w3.org/2000/svg" width="24" height="24" viewBox="0 0 24 24" fill="none">
    <path d="M12.0659 1.25C17.7268 1.25 22.3159 5.83908 22.3159 11.5C22.3159 17.1609 17.7268 21.75 12.0659 21.75C10.3267 21.75 8.68698 21.3156 7.25049 20.5498C5.47632 19.7861 3.73149 20.1508 2.63135 20.2471L1.18408 20.374L1.91943 19.1201C2.10285 18.8073 2.35591 18.1256 2.48389 17.2812C2.61082 16.4434 2.60099 15.5289 2.3374 14.7363C1.99882 13.7181 1.81592 12.6296 1.81592 11.5C1.81592 5.83908 6.405 1.25 12.0659 1.25ZM12.0669 15.25C11.5146 15.25 11.0669 15.6977 11.0669 16.25C11.0669 16.8023 11.5146 17.25 12.0669 17.25C12.6192 17.25 13.0669 16.8023 13.0669 16.25C13.0669 15.6977 12.6192 15.25 12.0669 15.25ZM12.0669 5.5C10.1339 5.5 8.56689 7.067 8.56689 9H10.5669C10.5669 8.17158 11.2385 7.5 12.0669 7.5C12.8953 7.5 13.5669 8.17158 13.5669 9C13.5669 9.51305 13.3101 9.96628 12.9136 10.2383C12.5438 10.4917 12.1024 10.8308 11.7476 11.2578C11.3889 11.6896 11.0669 12.2754 11.0669 13V14H13.0669V13C13.0669 12.8962 13.1095 12.7483 13.2856 12.5361C13.4657 12.3193 13.7301 12.1035 14.0435 11.8887C14.961 11.2598 15.5669 10.2006 15.5669 9C15.5669 7.067 13.9999 5.5 12.0669 5.5Z" fill="currentColor" />
</svg>