<svg xmlns="http://www.w3.org/2000/svg" width="24" height="24" viewBox="0 0 24 24" fill="none">
    <path fill-rule="evenodd" clip-rule="evenodd" d="M11.9991 4.75C9.88991 4.75 7.99322 6.03412 7.20989 7.99245L6.69545 9.27854L5.30273 8.72146L5.81717 7.43536C6.8283 4.90755 9.27655 3.25 11.9991 3.25C14.7216 3.25 17.1699 4.90755 18.181 7.43536L18.6954 8.72146L17.3027 9.27854L16.7883 7.99245C16.005 6.03412 14.1083 4.75 11.9991 4.75Z" fill="currentColor" />
    <path fill-rule="evenodd" clip-rule="evenodd" d="M20 9.75H4V8.25H20V9.75Z" fill="currentColor" />
    <path fill-rule="evenodd" clip-rule="evenodd" d="M16.6893 1.84088L13.6893 8.84088L12.3105 8.25L15.3105 1.25L16.6893 1.84088Z" fill="currentColor" />
    <path fill-rule="evenodd" clip-rule="evenodd" d="M18.7451 9.08594C18.7696 8.87347 18.7019 8.66064 18.5596 8.50098C18.4173 8.34142 18.2138 8.25 18 8.25L6.00001 8.25C5.78621 8.25001 5.58273 8.34141 5.44044 8.50098C5.29814 8.66064 5.23039 8.87348 5.25489 9.08594L7.00001 22.75H17L18.7451 9.08594ZM13 14C12.4477 14 12 13.5523 12 13C12 12.4477 12.4477 12 13 12C13.5523 12 14 12.4477 14 13C14 13.5523 13.5523 14 13 14ZM10 16.5C9.44774 16.5 9.00001 16.0523 9.00001 15.5C9.00001 14.9477 9.44774 14.5 10 14.5C10.5523 14.5 11 14.9477 11 15.5C11 16.0523 10.5523 16.5 10 16.5ZM13.5 19C12.9824 19 12.5562 18.6067 12.5049 18.1025L12.5 18L12.5049 17.8975C12.5562 17.3933 12.9823 17 13.5 17C14.0523 17 14.5 17.4477 14.5 18C14.5 18.5523 14.0523 19 13.5 19Z" fill="currentColor" />
</svg>