<svg xmlns="http://www.w3.org/2000/svg" width="24" height="24" viewBox="0 0 24 24" fill="none">
    <path d="M19.25 8.25C21.0449 8.25 22.5 6.79493 22.5 5C22.5 3.20507 21.0449 1.75 19.25 1.75C17.4551 1.75 16 3.20507 16 5C16 6.79493 17.4551 8.25 19.25 8.25Z" fill="currentColor" />
    <path d="M12.25 1.75C13.4353 1.75 14.5728 1.95317 15.6318 2.32324C15.0775 3.07127 14.75 3.99747 14.75 5C14.75 7.48528 16.7647 9.5 19.25 9.5C20.2525 9.5 21.1778 9.17143 21.9258 8.61719C22.2961 9.67652 22.5 10.8143 22.5 12C22.5 17.6609 17.9109 22.25 12.25 22.25C10.5108 22.25 8.87106 21.8156 7.43457 21.0498C5.66041 20.2861 3.91557 20.6508 2.81543 20.7471L1.5 20.9092L2.10352 19.6201C2.28694 19.3073 2.53999 18.6256 2.66797 17.7812C2.79491 16.9434 2.78507 16.0289 2.52148 15.2363C2.1829 14.2181 2 13.1296 2 12C2 6.33908 6.58908 1.75 12.25 1.75ZM8.25 11C7.69771 11 7.25 11.4477 7.25 12C7.25 12.5523 7.69772 13 8.25 13C8.80228 13 9.25 12.5523 9.25 12C9.25 11.4477 8.80228 11 8.25 11ZM12.251 11C11.7333 11 11.3072 11.3933 11.2559 11.8975L11.251 12L11.2559 12.1025C11.3072 12.6067 11.7333 13 12.251 13C12.8032 12.9999 13.251 12.5522 13.251 12C13.251 11.4821 12.857 11.0559 12.3525 11.0049L12.251 11ZM16.25 11C15.6977 11 15.25 11.4477 15.25 12C15.25 12.5523 15.6977 13 16.25 13C16.8023 13 17.25 12.5523 17.25 12C17.25 11.4477 16.8023 11 16.25 11Z" fill="currentColor" />
</svg>