<svg xmlns="http://www.w3.org/2000/svg" width="24" height="24" viewBox="0 0 24 24" fill="none">
    <path d="M8.0875 1.25V3.20455H14.9125V1.25H16.8625V3.20455H21.25V10.4378C19.7955 8.93458 17.7569 8 15.5 8C13.6108 8 11.8745 8.65487 10.5058 9.75H3.69995V20.7955H9.096C9.67453 21.5668 10.3891 22.2302 11.2042 22.75H1.75V3.20455H6.1375V1.25H8.0875Z" fill="currentColor" />
    <path d="M22.25 16C22.25 19.7279 19.2279 22.75 15.5 22.75C11.7721 22.75 8.75 19.7279 8.75 16C8.75 12.2721 11.7721 9.25 15.5 9.25C19.2279 9.25 22.25 12.2721 22.25 16ZM14.5 12V16.6182L17.9473 18.3418L18.8418 16.5527L16.5 15.3818V12H14.5Z" fill="currentColor" />
</svg>