<svg xmlns="http://www.w3.org/2000/svg" width="24" height="24" viewBox="0 0 24 24" fill="none">
    <path d="M20.75 21.2461C19.9144 21.8744 18.877 22.25 17.75 22.25C15.8982 22.25 14.283 21.2427 13.4199 19.751L12.9189 18.8848L14.6504 17.8838L15.1504 18.749C15.6706 19.6483 16.6408 20.25 17.75 20.25C18.3622 20.25 18.9311 20.0654 19.4062 19.75H17.75V17.75H22.75V22.75H20.75V21.2461ZM17.75 12.25C19.6018 12.25 21.217 13.2573 22.0801 14.749L22.5811 15.6152L20.8496 16.6162L20.3496 15.751C19.8294 14.8517 18.8592 14.25 17.75 14.25C17.1378 14.25 16.5689 14.4346 16.0938 14.75H17.75V16.75H12.75V11.75H14.75V13.2529C15.5855 12.6248 16.6232 12.25 17.75 12.25Z" fill="currentColor" />
    <path d="M8.5875 1.22998V3.18453H15.4125V1.22998H17.3625V3.18453H21.75V11.0802H19.8V9.72998H4.19995V20.7754H12V22.73H2.25V3.18453H6.6375V1.22998H8.5875Z" fill="currentColor" />
</svg>