<svg xmlns="http://www.w3.org/2000/svg" width="24" height="24" viewBox="0 0 24 24" fill="none">
    <path d="M22.25 17.0723C22.25 17.8746 21.9178 18.6228 21.501 19.2539C21.08 19.8914 20.5321 20.4708 20.0068 20.9521C19.4786 21.4363 18.9538 21.8395 18.5625 22.1201C18.3662 22.2609 18.2013 22.3714 18.085 22.4482L18.0456 22.4742C18.0057 22.5007 17.973 22.5223 17.9482 22.5381C17.9383 22.5444 17.9296 22.5497 17.9223 22.5541L17.9102 22.5615L17.8994 22.5684L17.5 22.8154L17.1055 22.5713L17.0898 22.5615L17.0777 22.5541C17.0704 22.5497 17.0617 22.5444 17.0518 22.5381C17.027 22.5223 16.9943 22.5007 16.9544 22.4743L16.915 22.4482C16.7987 22.3714 16.6338 22.2609 16.4375 22.1201C16.0462 21.8395 15.5214 21.4363 14.9932 20.9521C14.4679 20.4708 13.92 19.8914 13.499 19.2539C13.0822 18.6228 12.75 17.8746 12.75 17.0723C12.7501 15.5387 13.8687 14.1836 15.5 14.1836C16.1756 14.1836 16.8109 14.3891 17.5 14.9453C18.1891 14.3891 18.8244 14.1836 19.5 14.1836C21.1313 14.1836 22.2499 15.5387 22.25 17.0723Z" fill="currentColor" />
    <path d="M8.0875 1.18359V3.13814H14.9125V1.18359H16.8625V3.13814H21.25V11.9336H19.3V9.68359H3.69995V20.729H10.5V22.6836H1.75V3.13814H6.1375V1.18359H8.0875Z" fill="currentColor" />
</svg>