<svg xmlns="http://www.w3.org/2000/svg" width="24" height="24" viewBox="0 0 24 24" fill="none">
    <path d="M18 12.25V14.25L11 14.25V12.25L18 12.25Z" fill="currentColor" />
    <path d="M8.5 13.25C8.5 13.9404 7.94036 14.5 7.25 14.5C6.55964 14.5 6 13.9404 6 13.25C6 12.5596 6.55964 12 7.25 12C7.94036 12 8.5 12.5596 8.5 13.25Z" fill="currentColor" />
    <path d="M13 16.25V18.25H6V16.25H13ZM18 17.25C18 17.9404 17.4404 18.5 16.75 18.5C16.0596 18.5 15.5 17.9404 15.5 17.25C15.5 16.5596 16.0596 16 16.75 16C17.4404 16 18 16.5596 18 17.25Z" fill="currentColor" />
    <path fill-rule="evenodd" clip-rule="evenodd" d="M8.5875 1.25V3.20455H15.4125V1.25H17.3625V3.20455H21.75V22.75H2.25V3.20455H6.6375V1.25H8.5875ZM4.19995 9.75V20.7955H19.8V9.75H4.19995Z" fill="currentColor" />
</svg>