<svg xmlns="http://www.w3.org/2000/svg" width="24" height="24" viewBox="0 0 24 24" fill="none">
    <path d="M13.2501 13.2482V18.2618C12.532 18.5785 11.7501 18.7481 10.9503 18.7482C10.8832 18.7482 10.8165 18.7446 10.7501 18.7423V10.7482L13.2501 13.2482Z" fill="currentColor" />
    <path d="M9.25006 9.24817V18.4904C6.93244 17.767 5.25006 15.6037 5.25006 13.048C5.25018 11.5365 5.85023 10.0865 6.91901 9.0177L7.96881 7.96692L9.25006 9.24817Z" fill="currentColor" />
    <path d="M16.0303 16.0284L14.9805 17.0792C14.9057 17.154 14.8285 17.2259 14.7501 17.296V14.7482L16.0303 16.0284Z" fill="currentColor" />
    <path d="M14.7501 5.505C17.0678 6.2283 18.7501 8.39252 18.7501 10.9484C18.75 12.1172 18.3894 13.248 17.7325 14.1954L14.7501 11.213V5.505Z" fill="currentColor" />
    <path d="M13.2501 5.25305V9.71301L10.7501 7.21301V5.73352C11.468 5.417 12.2502 5.24823 13.0499 5.24817C13.1169 5.24817 13.1836 5.25076 13.2501 5.25305Z" fill="currentColor" />
    <path d="M4.34384 15.2101C5.03035 17.3098 6.6895 18.9678 8.78915 19.6544L8.10165 22.7501H6.29111L6.25107 22.0421C6.23978 21.8427 6.23068 21.7453 6.20126 21.6525C6.17769 21.5781 6.13053 21.4772 5.99326 21.34C5.77922 21.126 5.6327 21.1087 5.27548 21.0812L5.26279 21.0802C4.84629 21.0482 4.22512 21.0005 3.6124 20.3878C3.31634 20.0918 3.13608 19.7858 3.03525 19.4679C2.94044 19.1688 2.92817 18.8878 2.91806 18.7091C2.90675 18.5093 2.89774 18.4115 2.86826 18.3185C2.84466 18.2442 2.79721 18.144 2.66025 18.007C2.53513 17.8818 2.4371 17.834 2.35556 17.8077C2.25477 17.7754 2.14679 17.7639 1.94247 17.7482L1.25009 17.6945V15.8986L4.34384 15.2101Z" fill="currentColor" />
    <path d="M17.7091 1.24915L17.7491 1.95715C17.7604 2.15658 17.7695 2.25394 17.7989 2.3468C17.8225 2.42114 17.8697 2.52203 18.0069 2.6593C18.221 2.87327 18.3675 2.89061 18.7247 2.91809L18.7374 2.91907C19.1539 2.95104 19.7751 2.99873 20.3878 3.61145C20.6838 3.90751 20.8641 4.21345 20.9649 4.53137C21.0597 4.83051 21.072 5.1115 21.0821 5.29016C21.0934 5.48996 21.1024 5.58781 21.1319 5.68079C21.1555 5.75507 21.203 5.8553 21.3399 5.99231C21.4651 6.11743 21.5631 6.1653 21.6446 6.19153C21.7454 6.22386 21.8534 6.23538 22.0577 6.2511L22.7501 6.30481V8.10071L19.6554 8.78821C18.9687 6.68826 17.3102 5.02923 15.2101 4.3429L15.8985 1.24915H17.7091Z" fill="currentColor" />
    <path d="M22.7501 21.3351L21.336 22.7491L1.25009 2.66321L2.66415 1.24915L22.7501 21.3351Z" fill="currentColor" />
</svg>