<svg xmlns="http://www.w3.org/2000/svg" width="24" height="24" viewBox="0 0 24 24" fill="none">
    <path d="M22.7501 21.6071L21.336 23.0211L1.2501 2.93518L2.66416 1.52112L22.7501 21.6071Z" fill="currentColor" />
    <path d="M4.00004 5.52112C4.45253 5.52112 4.90987 5.56091 5.3643 5.63538L17.7579 18.0289C18.0257 18.792 18.1504 19.5541 18.1504 20.2711V21.0211H17.4004C15.6588 21.0211 14.1877 20.2044 13 19.2389V23.0211H11V19.2389C9.8124 20.2044 8.34125 21.0211 6.59965 21.0211H5.84965V20.2711C5.84965 19.0896 6.18542 17.7842 6.94828 16.5563C6.92446 16.5547 6.90026 16.5542 6.87601 16.5524C5.81925 16.4744 4.35669 16.206 2.69144 15.4547L2.08402 15.1803L2.28519 14.5446C2.44669 14.0347 2.78596 13.5711 3.16508 13.1803C3.55154 12.782 4.02159 12.4156 4.5098 12.1051C4.96567 11.8152 5.45235 11.5661 5.92289 11.3795C5.47336 10.9159 5.02243 10.3743 4.62699 9.80334C3.89875 8.75183 3.25004 7.45498 3.25004 6.27112V5.52112H4.00004Z" fill="currentColor" />
    <path d="M12.6104 1.83557C13.761 3.45052 14.4311 5.29182 14.6592 7.23694C16.1481 6.20695 18.1165 5.52112 20 5.52112H20.75V6.27112C20.75 7.45498 20.1013 8.75183 19.3731 9.80334C18.9775 10.3745 18.5259 10.9158 18.0762 11.3795C18.547 11.5661 19.0341 11.815 19.4903 12.1051C19.9785 12.4156 20.4485 12.782 20.835 13.1803C21.2141 13.5711 21.5534 14.0347 21.7149 14.5446L21.9161 15.1803L21.3086 15.4547C20.6381 15.7572 19.9998 15.9791 19.4082 16.1442L9.49906 6.23499C9.81551 4.66001 10.4386 3.17047 11.3897 1.83557L12 0.978149L12.6104 1.83557Z" fill="currentColor" />
</svg>