<svg xmlns="http://www.w3.org/2000/svg" width="24" height="24" viewBox="0 0 24 24" fill="none">
    <path d="M19.2701 11.3604L20.8512 9.9502L21.7506 11.1504L20.0182 12.6738L21.7506 15.2725V22.75H18.0016V19.75H5.00159V22.75H1.25061V15.2725L2.98303 12.6738L1.24963 11.1504L2.15002 9.9502L3.73206 11.3604L6.03772 6.75H16.9645L19.2701 11.3604ZM5.99963 15C5.44739 15 4.9997 15.4527 4.99963 16.0049C4.99963 16.5572 5.44735 17.0098 5.99963 17.0098C6.55174 17.0096 6.99963 16.557 6.99963 16.0049C6.99957 15.4528 6.5517 15.0002 5.99963 15ZM16.9996 15C16.4474 15 15.9997 15.4527 15.9996 16.0049C15.9996 16.5572 16.4473 17.0098 16.9996 17.0098C17.5517 17.0096 17.9996 16.557 17.9996 16.0049C17.9996 15.4528 17.5517 15.0002 16.9996 15ZM5.08948 11.999L6.09241 12.25H16.9078L17.9117 11.999L16.0367 8.25H6.96448L5.08948 11.999ZM16.9996 4.25C18.5184 4.25 19.7496 5.48122 19.7496 7H18.2496C18.2496 6.30964 17.69 5.75 16.9996 5.75V4.25ZM16.9996 1.25C20.1753 1.25 22.7496 3.82436 22.7496 7H21.2496C21.2496 4.65279 19.3468 2.75 16.9996 2.75V1.25Z" fill="currentColor" />
</svg>