<svg xmlns="http://www.w3.org/2000/svg" width="24" height="24" viewBox="0 0 24 24" fill="none">
    <path d="M17 1.25C19.6234 1.25 21.75 3.37665 21.75 6C21.75 8.62335 19.6234 10.75 17 10.75C14.3766 10.75 12.25 8.62335 12.25 6C12.25 3.37665 14.3766 1.25 17 1.25ZM17 7.5C16.5858 7.5 16.2501 7.84072 16.25 8.25488C16.25 8.6691 16.5858 9.00977 17 9.00977C17.4142 9.00977 17.75 8.6691 17.75 8.25488C17.7499 7.84072 17.4142 7.5 17 7.5ZM16.25 6.5H17.75V3H16.25V6.5Z" fill="currentColor" />
    <path d="M10.5 6.75H7.00195L5.0293 11.4834L6.09375 11.75H17.9092L18.9746 11.4834L20.3223 10.8213L21.8506 9.4502L22.751 10.6504L21.0186 12.1738L22.751 14.7725V22.75H18.251V19.75H5.75098V22.75H1.25098V14.7725L2.9834 12.1738L1.25 10.6504L2.15039 9.4502L3.67969 10.8213L6.00098 5.25H10.5V6.75ZM6.00195 15C5.44971 15 5.00202 15.4527 5.00195 16.0049C5.00195 16.5572 5.44967 17.0098 6.00195 17.0098C6.55424 17.0098 7.00195 16.5572 7.00195 16.0049C7.00189 15.4527 6.5542 15 6.00195 15ZM18.002 15C17.4497 15 17.002 15.4527 17.002 16.0049C17.002 16.5572 17.4497 17.0098 18.002 17.0098C18.5542 17.0098 19.002 16.5572 19.002 16.0049C19.0019 15.4527 18.5542 15 18.002 15Z" fill="currentColor" />
</svg>