<svg xmlns="http://www.w3.org/2000/svg" width="24" height="24" viewBox="0 0 24 24" fill="none">
    <path d="M12.999 11C12.999 9.48687 13.3299 8.05986 13.9404 6.97461C14.5412 5.90691 15.5284 5.00012 16.8564 5C18.0387 5 19.0075 5.58549 19.6953 6.43945C20.3709 7.27822 20.7988 8.39337 20.9873 9.59473L21.1416 10.583L19.166 10.8926L19.0107 9.90527C18.8609 8.95046 18.5381 8.19048 18.1377 7.69336C17.7496 7.21164 17.3163 7 16.8564 7C16.5424 7.00012 16.1009 7.21337 15.6836 7.95508C15.276 8.67947 14.999 9.7521 14.999 11C14.999 12.4815 14.7338 13.9092 14.1494 15.0059C13.5547 16.1217 12.5539 16.9999 11.1416 17C9.95959 17 8.9906 16.4155 8.30273 15.5615C7.62726 14.7229 7.19982 13.6072 7.01074 12.4053L6.85547 11.418L8.83105 11.1064L8.9873 12.0947C9.1377 13.0506 9.46028 13.8098 9.86035 14.3066C10.2482 14.7881 10.6813 15 11.1416 15C11.5867 14.9999 12.0151 14.759 12.3848 14.0654C12.7648 13.3524 12.999 12.2798 12.999 11Z" fill="currentColor" />
    <path d="M2 2H4V20H22V22H2V2Z" fill="currentColor" />
</svg>