<svg xmlns="http://www.w3.org/2000/svg" width="24" height="24" viewBox="0 0 24 24" fill="none">
    <path d="M2 2H4V20H22V22H2V2Z" fill="currentColor" />
    <path d="M18 17C18 13.808 17.3513 10.9674 16.3486 8.96191C15.316 6.89665 14.074 6 13 6C11.926 6 10.684 6.89665 9.65137 8.96191C8.64868 10.9674 8 13.808 8 17V18H6V17C6 13.5647 6.69444 10.4051 7.86328 8.06738C9.00222 5.78962 10.7604 4 13 4C15.2396 4 16.9978 5.78962 18.1367 8.06738C19.3056 10.4051 20 13.5647 20 17V18H18V17Z" fill="currentColor" />
</svg>