<svg xmlns="http://www.w3.org/2000/svg" width="24" height="24" viewBox="0 0 24 24" fill="none">
    <path d="M9.6091 4C10.4968 4 11.2622 4.24467 11.9011 4.70312C12.5259 5.15147 12.9734 5.76372 13.3103 6.41602C13.9649 7.68381 14.307 9.33447 14.6257 10.7852C14.963 12.3207 15.2793 13.6643 15.8249 14.6348C16.0874 15.1016 16.3788 15.4334 16.7068 15.6504C17.0249 15.8608 17.4325 15.9999 17.9987 16C18.77 16 19.3576 15.5213 19.9519 14.498L20.4538 13.6328L22.1833 14.6377L21.6804 15.502C20.9787 16.7102 19.8701 18 17.9987 18C17.0754 17.9999 16.277 17.764 15.6032 17.3184C14.9391 16.8791 14.4518 16.2734 14.0818 15.6152C13.3623 14.3358 12.9942 12.679 12.6726 11.2148C12.3323 9.66574 12.0409 8.31607 11.5339 7.33398C11.2899 6.86146 11.0246 6.53595 10.7351 6.32812C10.4594 6.13033 10.1081 6 9.6091 6C8.84698 6.00014 8.25628 6.47567 7.6882 7.48926L7.19992 8.36133L5.4548 7.38379L5.94406 6.51074C6.63303 5.28161 7.7478 4.00015 9.6091 4Z" fill="currentColor" />
    <path d="M1.81613 2H3.81613V20H21.8161V22H1.81613V2Z" fill="currentColor" />
</svg>