<svg xmlns="http://www.w3.org/2000/svg" width="24" height="24" viewBox="0 0 24 24" fill="none">
    <path d="M9.6098 4C10.4975 4 11.2629 4.24467 11.9018 4.70312C12.5266 5.15147 12.9741 5.76372 13.311 6.41602C13.9656 7.68381 14.3077 9.33447 14.6264 10.7852C14.9637 12.3207 15.28 13.6643 15.8256 14.6348C16.0881 15.1016 16.3795 15.4334 16.7075 15.6504C17.0256 15.8608 17.4332 15.9999 17.9995 16C18.7707 16 19.3583 15.5213 19.9526 14.498L20.4545 13.6328L22.184 14.6377L21.6811 15.502C20.9794 16.7102 19.8708 18 17.9995 18C17.0761 17.9999 16.2777 17.764 15.6039 17.3184C14.9398 16.8791 14.4525 16.2734 14.0825 15.6152C13.363 14.3358 12.9949 12.679 12.6733 11.2148C12.333 9.66574 12.0416 8.31607 11.5346 7.33398C11.2906 6.86146 11.0253 6.53595 10.7358 6.32812C10.4601 6.13033 10.1088 6 9.6098 6C8.84768 6.00014 8.25699 6.47567 7.6889 7.48926L7.20062 8.36133L5.45551 7.38379L5.94476 6.51074C6.63373 5.28161 7.7485 4.00015 9.6098 4Z" fill="currentColor" />
    <path d="M10.9213 9.98047C11.4382 10.033 11.8412 10.4703 11.8412 11.001C11.841 11.5668 11.3826 12.0252 10.8168 12.0254C10.2861 12.0254 9.84883 11.6223 9.79633 11.1055L9.79144 11.001L9.79633 10.8955C9.84892 10.3788 10.2862 9.97559 10.8168 9.97559L10.9213 9.98047Z" fill="currentColor" />
    <path d="M6.92133 9.98047C7.43817 10.033 7.84125 10.4703 7.84125 11.001C7.84104 11.5668 7.38261 12.0252 6.81683 12.0254C6.28614 12.0254 5.84883 11.6223 5.79633 11.1055L5.79144 11.001L5.79633 10.8955C5.84892 10.3788 6.2862 9.97559 6.81683 9.97559L6.92133 9.98047Z" fill="currentColor" />
    <path d="M20.9213 9.98047C21.4382 10.033 21.8412 10.4703 21.8412 11.001C21.841 11.5668 21.3826 12.0252 20.8168 12.0254C20.2861 12.0254 19.8488 11.6223 19.7963 11.1055L19.7914 11.001L19.7963 10.8955C19.8489 10.3788 20.2862 9.97559 20.8168 9.97559L20.9213 9.98047Z" fill="currentColor" />
    <path d="M16.9213 9.98047C17.4382 10.033 17.8412 10.4703 17.8412 11.001C17.841 11.5668 17.3826 12.0252 16.8168 12.0254C16.2861 12.0254 15.8488 11.6223 15.7963 11.1055L15.7914 11.001L15.7963 10.8955C15.8489 10.3788 16.2862 9.97559 16.8168 9.97559L16.9213 9.98047Z" fill="currentColor" />
    <path d="M1.81683 2H3.81683V20H21.8168V22H1.81683V2Z" fill="currentColor" />
</svg>