<svg xmlns="http://www.w3.org/2000/svg" width="24" height="24" viewBox="0 0 24 24" fill="none">
    <path d="M19.25 1.25H17.25V2.58301H13.75V4.58301H19.123C18.9275 5.12274 18.6789 5.63231 18.3809 6.11328C18.3212 6.01672 18.2666 5.92464 18.2182 5.83691H15.9521L16.4219 6.71973C16.5901 7.036 16.8067 7.38752 17.0781 7.75781C16.4847 8.36429 15.8081 8.91821 15.0645 9.42188L14.2363 9.98242L15.3574 11.6387L16.1855 11.0781C16.9845 10.537 17.7391 9.92828 18.4189 9.24707C18.5808 9.39587 18.7508 9.54544 18.9316 9.69238L19.708 10.3232L20.9688 8.77148L20.1934 8.14062C20.0216 8.00107 19.8626 7.85889 19.7129 7.71875C20.372 6.78873 20.8957 5.74907 21.2256 4.58301H22.75V2.58301H19.25V1.25Z" fill="currentColor" />
    <path d="M12.5 2.25195V5.83301H14.5342L15.3184 7.30664L15.457 7.55762C15.117 7.84606 14.7524 8.12316 14.3633 8.38672L12.501 9.64844L15.0234 13.374L16.8867 12.1133C17.4284 11.7464 17.9543 11.3477 18.4561 10.916L19.8896 12.082L22.7041 8.61621C22.7326 9.38565 22.75 10.1831 22.75 11C22.75 13.92 22.5592 16.5937 22.2412 18.6162L22.1533 19.1748L21.5928 19.2441C19.2231 19.5383 16.1324 19.7226 12.7363 19.7461L7.25 22.75V19.6357C5.44455 19.5488 3.80158 19.4172 2.40723 19.2441L1.84668 19.1748L1.75879 18.6162C1.44082 16.5937 1.25 13.92 1.25 11C1.25 8.07998 1.44082 5.40627 1.75879 3.38379L1.84668 2.8252L2.40723 2.75586C4.94664 2.44064 8.31469 2.25 12 2.25C12.1673 2.25 12.334 2.25117 12.5 2.25195ZM8 10C7.44771 10 7 10.4477 7 11C7 11.5523 7.44772 12 8 12C8.55228 12 9 11.5523 9 11C9 10.4477 8.55228 10 8 10ZM12.001 10C11.4833 10 11.0572 10.3933 11.0059 10.8975L11.001 11L11.0059 11.1025C11.0572 11.6067 11.4833 12 12.001 12C12.5532 11.9999 13.001 11.5522 13.001 11C13.001 10.4821 12.607 10.0559 12.1025 10.0049L12.001 10Z" fill="currentColor" />
</svg>