<svg xmlns="http://www.w3.org/2000/svg" width="24" height="24" viewBox="0 0 24 24" fill="none">
    <path d="M19.5 8.25C21.2949 8.25 22.75 6.79493 22.75 5C22.75 3.20507 21.2949 1.75 19.5 1.75C17.7051 1.75 16.25 3.20507 16.25 5C16.25 6.79493 17.7051 8.25 19.5 8.25Z" fill="currentColor" />
    <path d="M12 1.75C13.4957 1.75 14.939 1.78245 16.2959 1.84082C15.4947 2.65332 15 3.76878 15 5C15 7.48528 17.0147 9.5 19.5 9.5C20.7556 9.5 21.8898 8.98459 22.7061 8.15527C22.7336 8.91263 22.75 9.69696 22.75 10.5C22.75 13.42 22.5592 16.0937 22.2412 18.1162L22.1533 18.6748L21.5928 18.7441C19.2231 19.0383 16.1324 19.2226 12.7363 19.2461L7.25 22.25V19.1357C5.44455 19.0488 3.80158 18.9172 2.40723 18.7441L1.84668 18.6748L1.75879 18.1162C1.44082 16.0937 1.25 13.42 1.25 10.5C1.25 7.57998 1.44082 4.90627 1.75879 2.88379L1.84668 2.3252L2.40723 2.25586C4.94664 1.94064 8.31469 1.75 12 1.75ZM8 9.5C7.44771 9.5 7 9.94772 7 10.5C7 11.0523 7.44772 11.5 8 11.5C8.55228 11.5 9 11.0523 9 10.5C9 9.94772 8.55228 9.5 8 9.5ZM12.001 9.5C11.4833 9.5 11.0572 9.89335 11.0059 10.3975L11.001 10.5L11.0059 10.6025C11.0572 11.1067 11.4833 11.5 12.001 11.5C12.5532 11.4999 13.001 11.0522 13.001 10.5C13.001 9.98207 12.607 9.55587 12.1025 9.50488L12.001 9.5ZM16 9.5C15.4477 9.5 15 9.94772 15 10.5C15 11.0523 15.4477 11.5 16 11.5C16.5523 11.5 17 11.0523 17 10.5C17 9.94772 16.5523 9.5 16 9.5Z" fill="currentColor" />
</svg>