<svg xmlns="http://www.w3.org/2000/svg" width="24" height="24" viewBox="0 0 24 24" fill="none">
    <path d="M20.7188 9.58594C21.6966 8.80365 22.75 7.50877 22.75 5.59961V2.86328L22.498 2.63867C21.5158 1.76716 20.0684 1.25 18.5 1.25C16.9316 1.25 15.4842 1.76716 14.502 2.63867L14.25 2.86328V5.59961C14.25 7.50877 15.3034 8.80365 16.2812 9.58594C16.7712 9.9779 17.2576 10.255 17.6201 10.4346C17.8023 10.5248 17.9561 10.5917 18.0664 10.6367C18.1215 10.6592 18.5 10.793 18.5 10.793C18.5 10.793 18.8785 10.6592 18.9336 10.6367C19.0439 10.5917 19.1977 10.5248 19.3799 10.4346C19.7424 10.255 20.2288 9.9779 20.7188 9.58594Z" fill="currentColor" />
    <path d="M13.0518 2.25586L13 2.30273V5.59961C13 8.0249 14.3516 9.64381 15.5 10.5625C16.0778 11.0247 16.6461 11.347 17.0654 11.5547C17.2776 11.6598 17.459 11.739 17.5938 11.7939C17.8712 11.9072 18.5 12.1191 18.5 12.1191C18.5 12.1191 19.0235 11.9502 19.4062 11.7939C19.541 11.739 19.7224 11.6598 19.9346 11.5547C20.3539 11.347 20.9222 11.0247 21.5 10.5625C21.9068 10.2371 22.3369 9.82223 22.7256 9.31641C22.7397 9.86616 22.75 10.4283 22.75 11C22.75 13.92 22.5592 16.5937 22.2412 18.6162L22.1533 19.1748L21.5928 19.2441C19.2231 19.5383 16.1324 19.7226 12.7363 19.7461L7.25 22.75V19.6357C5.44455 19.5488 3.80158 19.4172 2.40723 19.2441L1.84668 19.1748L1.75879 18.6162C1.44082 16.5937 1.25 13.92 1.25 11C1.25 8.07998 1.44082 5.40627 1.75879 3.38379L1.84668 2.8252L2.40723 2.75586C4.94664 2.44064 8.31469 2.25 12 2.25C12.3537 2.25 12.7044 2.25241 13.0518 2.25586ZM8 10C7.44771 10 7 10.4477 7 11C7 11.5523 7.44772 12 8 12C8.55228 12 9 11.5523 9 11C9 10.4477 8.55228 10 8 10ZM12.001 10C11.4833 10 11.0572 10.3933 11.0059 10.8975L11.001 11L11.0059 11.1025C11.0572 11.6067 11.4833 12 12.001 12C12.5532 11.9999 13.001 11.5522 13.001 11C13.001 10.4821 12.607 10.0559 12.1025 10.0049L12.001 10Z" fill="currentColor" />
</svg>