<svg xmlns="http://www.w3.org/2000/svg" width="24" height="24" viewBox="0 0 24 24" fill="none">
    <path d="M12 1.75C15.2248 1.75 18.2063 1.89591 20.6025 2.14355L21.5928 2.25586L22.1533 2.3252L22.2412 2.88379C22.5592 4.90627 22.75 7.57998 22.75 10.5C22.75 13.42 22.5592 16.0937 22.2412 18.1162L22.1533 18.6748L21.5928 18.7441C19.2231 19.0383 16.1324 19.2226 12.7363 19.2461L8.55566 22.1182L8.36426 22.25H7.25V19.1357C5.44455 19.0488 3.80158 18.9172 2.40723 18.7441L1.84668 18.6748L1.75879 18.1162C1.44082 16.0937 1.25 13.42 1.25 10.5C1.25 7.57998 1.44082 4.90627 1.75879 2.88379L1.84668 2.3252L2.40723 2.25586C4.94664 1.94064 8.31469 1.75 12 1.75ZM12 13.75C11.4477 13.75 11 14.1977 11 14.75C11 15.3023 11.4477 15.75 12 15.75C12.5523 15.75 13 15.3023 13 14.75C13 14.1977 12.5523 13.75 12 13.75ZM12 5C10.3431 5 9 6.34315 9 8H11C11 7.44772 11.4477 7 12 7C12.5523 7 13 7.44772 13 8C13 8.28878 12.8788 8.54759 12.6816 8.73145C12.4097 8.98484 11.9945 9.35241 11.6699 9.7627C11.3371 10.1833 11 10.7672 11 11.5V12.5H13V11.5C13 11.4046 13.041 11.2522 13.2383 11.0029C13.4437 10.7433 13.7109 10.5066 14.0449 10.1953C14.6312 9.64897 15 8.86662 15 8C15 6.34315 13.6569 5 12 5Z" fill="currentColor" />
</svg>