<svg xmlns="http://www.w3.org/2000/svg" width="24" height="24" viewBox="0 0 24 24" fill="none">
    <path d="M21 3.25C20.9998 2.1454 20.1045 1.25 19 1.25C17.8955 1.25 17.0002 2.1454 17 3.25C17 3.94574 17.3557 4.55782 17.8945 4.91602C16.3631 5.38783 15.25 6.81375 15.25 8.5V9.25H22.75V8.5C22.75 6.81342 21.6364 5.38755 20.1045 4.91602C20.6437 4.55788 21 3.94603 21 3.25Z" fill="currentColor" />
    <path d="M12 2.25C13.3452 2.25 14.6481 2.27664 15.8838 2.32422C15.7967 2.61762 15.75 2.92837 15.75 3.25C15.75 3.69353 15.8403 4.11541 16.001 4.5C14.7866 5.41152 14 6.86277 14 8.5V10.5H22.7461C22.7473 10.6658 22.75 10.8325 22.75 11C22.75 13.92 22.5592 16.5937 22.2412 18.6162L22.1533 19.1748L21.5928 19.2441C19.2231 19.5383 16.1324 19.7226 12.7363 19.7461L7.25 22.75V19.6357C5.44455 19.5488 3.80158 19.4172 2.40723 19.2441L1.84668 19.1748L1.75879 18.6162C1.44082 16.5937 1.25 13.92 1.25 11C1.25 8.07998 1.44082 5.40627 1.75879 3.38379L1.84668 2.8252L2.40723 2.75586C4.94664 2.44064 8.31469 2.25 12 2.25ZM8 10C7.44771 10 7 10.4477 7 11C7 11.5523 7.44772 12 8 12C8.55228 12 9 11.5523 9 11C9 10.4477 8.55228 10 8 10ZM12.001 10C11.4833 10 11.0572 10.3933 11.0059 10.8975L11.001 11L11.0059 11.1025C11.0572 11.6067 11.4833 12 12.001 12C12.5532 11.9999 13.001 11.5522 13.001 11C13.001 10.4821 12.607 10.0559 12.1025 10.0049L12.001 10Z" fill="currentColor" />
</svg>