<svg xmlns="http://www.w3.org/2000/svg" width="24" height="24" viewBox="0 0 24 24" fill="none">
    <path fill-rule="evenodd" clip-rule="evenodd" d="M10.2004 6.5795C9.61827 6.07526 9.25 5.33064 9.25 4.5C9.25 2.98122 10.4812 1.75 12 1.75C13.5188 1.75 14.75 2.98122 14.75 4.5C14.75 5.33074 14.3816 6.07545 13.7993 6.57969L14.9092 10.6523C14.9843 10.5874 15.0627 10.52 15.1434 10.4506L15.3174 10.3008C16.011 9.70288 16.843 8.98951 17.4352 8.49422C17.3156 8.18587 17.25 7.8506 17.25 7.5C17.25 5.98122 18.4812 4.75 20 4.75C21.5188 4.75 22.75 5.98122 22.75 7.5C22.75 8.83418 21.7999 9.94646 20.5394 10.1971L18.3633 16H5.63672L3.46064 10.1971C2.20011 9.94646 1.25 8.83418 1.25 7.5C1.25 5.98122 2.48122 4.75 4 4.75C5.51878 4.75 6.75 5.98122 6.75 7.5C6.75 7.85076 6.68433 8.18618 6.56461 8.49465C6.85912 8.74387 7.64031 9.41352 8.37695 10.0459C8.51543 10.1648 8.65251 10.2827 8.78489 10.3966L9.08789 10.6572L10.2004 6.5795Z" fill="currentColor" />
    <path d="M19.75 22.2499H4.25V20C4.25 18.4812 5.48122 17.25 7 17.25H17C18.5188 17.25 19.75 18.4812 19.75 20V22.2499Z" fill="currentColor" />
</svg>