<svg xmlns="http://www.w3.org/2000/svg" width="24" height="24" viewBox="0 0 24 24" fill="none">
    <path fill-rule="evenodd" clip-rule="evenodd" d="M3.6911 7.25C4.84401 3.76511 8.12744 1.25 12 1.25C15.8807 1.25 19.1698 3.77572 20.3162 7.27204C21.4091 7.42573 22.25 8.36467 22.25 9.5C22.25 10.5384 21.5466 11.4124 20.5903 11.6718C19.8098 15.7049 16.261 18.75 12 18.75C7.76614 18.75 4.23552 15.7436 3.42492 11.7488C2.21704 11.7092 1.25 10.7175 1.25 9.5C1.25 8.25736 2.25736 7.25 3.5 7.25H3.6911ZM2.75 9.5003C2.75 9.08609 3.08579 8.7503 3.5 8.7503H6C8.6122 8.7503 10.8778 7.26647 12 5.0957C13.1222 7.26647 15.3878 8.7503 18 8.7503H20C20.4142 8.7503 20.75 9.08609 20.75 9.5003C20.75 9.91452 20.4142 10.2503 20 10.2503H19.2758L19.1939 10.9075C18.748 14.4831 15.6966 17.2503 12 17.2503C8.30341 17.2503 5.252 14.4831 4.80613 10.9075L4.72418 10.2503H3.5C3.08579 10.2503 2.75 9.91452 2.75 9.5003Z" fill="currentColor" />
    <path fill-rule="evenodd" clip-rule="evenodd" d="M10.25 13.25H13.75V14C13.75 14.9665 12.9665 15.75 12 15.75C11.0335 15.75 10.25 14.9665 10.25 14V13.25Z" fill="currentColor" />
    <path d="M16.1687 16.6758L16.465 16.9373C17.8651 18.1731 18.75 19.9835 18.75 21.9996V22.7496H5.25V21.9996C5.25 19.9835 6.13487 18.1731 7.53496 16.9373L7.83127 16.6758L12 17.7262L16.1687 16.6758Z" fill="currentColor" />
    <path d="M8.35254 10.0049C8.85667 10.0562 9.25 10.4823 9.25 11C9.25 11.5523 8.80228 12 8.25 12C7.69772 12 7.25 11.5523 7.25 11C7.25 10.4477 7.69771 10 8.25 10L8.35254 10.0049ZM15.8525 10.0049C16.3567 10.0562 16.75 10.4823 16.75 11C16.75 11.5523 16.3023 12 15.75 12C15.1977 12 14.75 11.5523 14.75 11C14.75 10.4477 15.1977 10 15.75 10L15.8525 10.0049Z" fill="currentColor" />
</svg>