<svg xmlns="http://www.w3.org/2000/svg" width="24" height="24" viewBox="0 0 24 24" fill="none">
    <path d="M21.75 8H11.5596C11.1593 6.97619 10.1656 6.25 9 6.25C7.48122 6.25 6.25 7.48122 6.25 9C6.25 10.5188 7.48122 11.75 9 11.75C10.1656 11.75 11.1593 11.0238 11.5596 10H21.75V21.75H8V17C8 16.4477 8.44772 16 9 16H12.4404C12.8407 17.0238 13.8344 17.75 15 17.75C16.5188 17.75 17.75 16.5188 17.75 15C17.75 13.4812 16.5188 12.25 15 12.25C13.8344 12.25 12.8407 12.9762 12.4404 14H9C7.34315 14 6 15.3431 6 17V21.75H2.25V2.25H21.75V8Z" fill="currentColor" />
</svg>