<svg xmlns="http://www.w3.org/2000/svg" width="24" height="24" viewBox="0 0 24 24" fill="none">
    <path d="M22.75 12C22.75 17.9371 17.9371 22.75 12 22.75C6.06294 22.75 1.25 17.9371 1.25 12C1.25 6.06294 6.06294 1.25 12 1.25C17.9371 1.25 22.75 6.06294 22.75 12ZM9.42871 16.4404C9.96174 16.8405 10.598 17.0827 11.25 17.1875V18.75H12.75V17.1875C13.4018 17.0826 14.0382 16.8412 14.5713 16.4414C15.3164 15.8825 15.75 15.0966 15.75 14.25C15.75 13.4562 15.3688 12.7159 14.707 12.166L14.5713 12.0586C14.0383 11.658 13.4017 11.4161 12.75 11.3115V8.35449C13.0446 8.43823 13.314 8.56957 13.5361 8.74609L14.5381 9.54297L15.4717 8.36914L14.4697 7.57227C13.9674 7.17307 13.3673 6.92778 12.75 6.81836V5.25H11.25V6.81836C10.6327 6.92778 10.0326 7.17307 9.53027 7.57227C8.81827 8.13825 8.41797 8.92144 8.41797 9.75C8.41797 10.5786 8.81827 11.3627 9.53027 11.9287C10.0324 12.3273 10.6328 12.5712 11.25 12.6807V15.6592C10.9764 15.5925 10.7215 15.4918 10.5 15.3564L10.3291 15.2412L8.84961 14.1318L7.9502 15.332L8.5498 15.7822L9.42871 16.4404Z" fill="currentColor" />
    <path fill-rule="evenodd" clip-rule="evenodd" d="M10.4639 8.74707C10.686 8.57055 10.9554 8.43921 11.25 8.35547V11.1455C10.9556 11.0618 10.6861 10.9312 10.4639 10.7549C10.07 10.4419 9.91797 10.0738 9.91797 9.75098C9.91797 9.42813 10.07 9.06007 10.4639 8.74707Z" fill="currentColor" />
    <path fill-rule="evenodd" clip-rule="evenodd" d="M13.6709 15.2412C13.4135 15.4342 13.0967 15.5747 12.75 15.6592V12.8398C13.0972 12.9242 13.4143 13.0658 13.6709 13.2588C14.0978 13.5789 14.25 13.9451 14.25 14.25C14.25 14.5549 14.0978 14.9211 13.6709 15.2412Z" fill="currentColor" />
</svg>