<svg xmlns="http://www.w3.org/2000/svg" width="24" height="24" viewBox="0 0 24 24" fill="none">
    <path d="M22.75 12C22.75 17.9371 17.9371 22.75 12 22.75C6.06294 22.75 1.25 17.9371 1.25 12C1.25 6.06294 6.06294 1.25 12 1.25C17.9371 1.25 22.75 6.06294 22.75 12ZM11 6V12H13V6H11ZM7.2002 8.39941C6.4469 9.4023 6 10.6504 6 12C6 15.3137 8.68629 18 12 18C15.3137 18 18 15.3137 18 12C18 10.6504 17.5531 9.4023 16.7998 8.39941L16.1992 7.59961L14.6006 8.80078L15.2012 9.60059C15.7032 10.269 16 11.0984 16 12C16 14.2091 14.2091 16 12 16C9.79086 16 8 14.2091 8 12C8 11.0984 8.29683 10.269 8.79883 9.60059L9.39941 8.80078L7.80078 7.59961L7.2002 8.39941Z" fill="currentColor" />
</svg>