<svg xmlns="http://www.w3.org/2000/svg" width="24" height="24" viewBox="0 0 24 24" fill="none">
    <path d="M22.75 12C22.75 17.9371 17.9371 22.75 12 22.75C6.06294 22.75 1.25 17.9371 1.25 12C1.25 6.06294 6.06294 1.25 12 1.25C17.9371 1.25 22.75 6.06294 22.75 12ZM13.7412 6.29395C12.682 5.85619 11.4595 5.91069 10.4551 6.43652C9.42221 6.9773 8.64747 8.00443 8.51855 9.40625C8.4525 10.1251 8.61526 10.8537 8.93652 11.4873H7V13.4873H9.64746L9.61917 13.5313C9.59889 13.5631 9.57835 13.5952 9.55664 13.627C9.13565 14.2421 8.60082 14.802 8.00684 15.1123L8.46973 16.999H14.252C14.2598 16.999 14.2706 16.9992 14.284 16.9995C14.3974 17.0016 14.702 17.0073 15.0771 16.9297C15.5033 16.8414 16.0052 16.6532 16.5586 16.2803L17.3877 15.7217L16.2705 14.0635L15.4414 14.6221C15.1012 14.8513 14.8405 14.9368 14.6719 14.9717C14.5849 14.9897 14.5175 14.9967 14.4531 14.999H11.0322C11.0926 14.917 11.152 14.8363 11.207 14.7559C11.5053 14.32 11.7473 13.8767 11.9248 13.4873H13.3594V11.4873H12.9609C12.5441 11.4859 12.1859 11.475 11.875 11.4268C11.5643 11.3785 11.3684 11.302 11.2451 11.2168C10.8001 10.909 10.4527 10.2199 10.5107 9.58887C10.576 8.87992 10.9359 8.44194 11.3828 8.20801C11.8582 7.9592 12.4611 7.92912 12.9775 8.14258C13.324 8.28584 13.5666 8.55668 13.7373 8.89844C13.9128 9.24983 13.9802 9.61672 13.9941 9.80566L14.0674 10.8027L16.0615 10.6553L15.9883 9.6582C15.9592 9.26511 15.8408 8.63436 15.5264 8.00488C15.2072 7.36602 14.655 6.67166 13.7412 6.29395Z" fill="currentColor" />
</svg>