<svg xmlns="http://www.w3.org/2000/svg" width="24" height="24" viewBox="0 0 24 24" fill="none">
    <path d="M8 13.4141L11 10.4141V17H13V10.4141L16 13.4141L17.4141 12L11.9727 6.61328L6.58594 12L8 13.4141Z" fill="currentColor" />
    <path d="M17.5706 21.2478L16.6917 21.6744C15.2728 22.3637 13.6801 22.75 12 22.75C10.6782 22.75 9.41016 22.5104 8.23788 22.0724L7.32169 21.7307L8.00597 19.9003L8.92121 20.2419C9.87803 20.5995 10.9152 20.7955 12 20.7955C13.3778 20.7955 14.679 20.4792 15.8375 19.9165L16.7165 19.4889L17.5706 21.2478ZM3.93559 15.5178C4.45307 16.7022 5.22493 17.7516 6.18217 18.5966L6.91513 19.2437L5.62196 20.7086L4.889 20.0625C3.72088 19.0315 2.77839 17.7496 2.1452 16.3004L1.75391 15.4052L3.5443 14.6226L3.93559 15.5178ZM20.7955 12C20.7955 7.1424 16.8576 3.20455 12 3.20455C11.079 3.20455 10.193 3.34603 9.36117 3.60729L8.42876 3.90028L7.84277 2.03544L8.77519 1.74245C9.79437 1.42235 10.8781 1.25 12 1.25C17.9371 1.25 22.75 6.06294 22.75 12C22.75 14.7256 21.7345 17.2166 20.0625 19.111L19.4154 19.844L17.9505 18.5498L18.5966 17.8178C19.9656 16.2667 20.7955 14.2313 20.7955 12ZM1.25 12C1.25 10.8261 1.43814 9.69395 1.78731 8.63394L2.09366 7.7063L3.94991 8.31709L3.64451 9.24569C3.35953 10.1108 3.20455 11.0364 3.20455 12V12.9773H1.25V12ZM7.02583 4.68L6.28334 5.31561C5.97025 5.58365 5.67611 5.87323 5.40341 6.18217L4.75635 6.91513L3.29139 5.62196L3.9375 4.889C4.27049 4.51173 4.62977 4.15794 5.01212 3.83061L5.75462 3.195L7.02583 4.68Z" fill="currentColor" />
</svg>