<svg xmlns="http://www.w3.org/2000/svg" width="24" height="24" viewBox="0 0 24 24" fill="none">
    <path d="M6.09492 18.7955C7.0932 19.6643 8.30017 20.3257 9.66817 20.6919C10.4486 20.9008 11.2313 21.0005 12.0002 21.0005H13.0002V23.0005H12.0002C11.0584 23.0005 10.102 22.8789 9.15156 22.6246C7.48308 22.1779 6.0044 21.3686 4.78145 20.3042L4.02754 19.648L5.34102 18.1392L6.09492 18.7955ZM21.0061 18.3921L20.3547 19.1509C19.4124 20.2503 18.2664 21.1472 16.9924 21.7974L16.1018 22.2515L15.1926 20.4703L16.0832 20.0162C17.1273 19.4833 18.0656 18.749 18.8361 17.8501L19.4875 17.0904L21.0061 18.3921ZM1.37813 9.15679C2.95167 3.29019 8.98246 -0.193554 14.8488 1.37651C15.575 1.57089 16.2658 1.8345 16.9152 2.15776L17.8107 2.60307L16.9191 4.39409L16.0246 3.9478C15.4942 3.68375 14.9286 3.46878 14.3322 3.30913C9.53289 2.02445 4.59744 4.87456 3.30977 9.67534C2.80509 11.5573 2.93603 13.4565 3.56953 15.15L3.91914 16.0865L2.0461 16.7876L1.69551 15.8511C0.920728 13.78 0.76189 11.4543 1.37813 9.15679ZM22.9855 11.4263C23.0435 12.5503 22.9288 13.7013 22.6223 14.8443L22.3635 15.8101L20.4318 15.2925L20.6906 14.3257C20.9422 13.3876 21.0358 12.446 20.9885 11.5289L20.9367 10.5308L22.9338 10.4273L22.9855 11.4263ZM21.0119 5.69194C21.3052 6.11151 21.5697 6.55145 21.802 7.00737L22.2551 7.898L20.4738 8.8062L20.0197 7.9146C19.8296 7.54139 19.6133 7.18185 19.3732 6.83843L18.8 6.01811L20.4396 4.87261L21.0119 5.69194Z" fill="currentColor" />
    <path d="M11.001 12.9951H7.00586V10.9951H11.001V7H13.001V10.9951H17.0059V12.9951H13.001V17H11.001V12.9951Z" fill="currentColor" />
</svg>