<svg xmlns="http://www.w3.org/2000/svg" width="24" height="24" viewBox="0 0 24 24" fill="none">
    <path d="M8.82523 4.98682C7.1615 6.31527 6.09476 8.36021 6.09476 10.6548C6.09476 14.6588 9.34081 17.9047 13.3448 17.9048C15.6394 17.9048 17.6833 16.8372 19.0118 15.1733L21.9053 18.0669L21.375 18.5972C16.9644 23.0075 9.81291 23.0077 5.40238 18.5972C0.991983 14.1866 0.992123 7.03514 5.40238 2.62451L5.93266 2.09424L8.82523 4.98682Z" fill="currentColor" />
    <path d="M13.0948 16.3979C11.8739 16.3457 10.7527 15.9123 9.84476 15.2144L9.87504 15.1851L13.0948 11.9653V16.3979Z" fill="currentColor" />
    <path d="M17.9434 14.105C17.1337 15.1813 15.955 15.9645 14.5948 16.2661V10.7563L17.9434 14.105Z" fill="currentColor" />
    <path d="M12.0342 10.9048L8.81449 14.1245L8.78422 14.1538C8.08672 13.246 7.65382 12.1252 7.6016 10.9048H12.0342Z" fill="currentColor" />
    <path d="M13.2432 9.40479H7.73246C8.03409 8.0445 8.81696 6.86481 9.89359 6.05518L13.2432 9.40479Z" fill="currentColor" />
</svg>