<svg xmlns="http://www.w3.org/2000/svg" width="24" height="24" viewBox="0 0 24 24" fill="none">
    <path d="M14.7476 11.0614L21.7506 3.62073L20.2942 2.25L13.3223 9.65766L14.7476 11.0614Z" fill="currentColor" />
    <path d="M14.75 12.8174C14.75 15.4386 13.8206 17.8348 12.9004 19.2627C11.9535 20.7319 10.7305 21.752 10.7305 21.752L10.3574 21.6611C8.26995 21.1523 6.37065 20.243 4.93359 18.5752C4.59603 18.1834 4.28922 17.7531 4.01172 17.2832C4.45388 17.2775 4.98714 17.2512 5.56641 17.1787C7.11044 16.9855 9.10529 16.4561 10.5303 15.0312L9.46973 13.9707C8.3948 15.0455 6.8005 15.5127 5.37988 15.6904C4.68224 15.7777 4.05593 15.7913 3.60449 15.7832C3.48284 15.781 3.3745 15.7738 3.28125 15.7695C2.79412 14.5173 2.47175 13.0422 2.33496 11.3086L2.25 10.2383L3.29395 10.5498C6.15305 11.4048 8.89604 11.3713 11.1377 10.0469L11.6367 9.75195L14.75 12.8174Z" fill="currentColor" />
    <path d="M9 7.50195C9 8.33038 8.32843 9.00195 7.5 9.00195C6.67157 9.00195 6 8.33038 6 7.50195C6 6.67353 6.67157 6.00195 7.5 6.00195C8.32843 6.00195 9 6.67353 9 7.50195Z" fill="currentColor" />
    <path fill-rule="evenodd" clip-rule="evenodd" d="M11 3.00195C11.5523 3.00195 12 3.42835 12 3.95433V4.04957C12 4.57556 11.5523 5.00195 11 5.00195C10.4477 5.00195 10 4.57556 10 4.04957V3.95433C10 3.42835 10.4477 3.00195 11 3.00195Z" fill="currentColor" />
</svg>