<svg xmlns="http://www.w3.org/2000/svg" width="24" height="24" viewBox="0 0 24 24" fill="none">
    <path fill-rule="evenodd" clip-rule="evenodd" d="M7.75 3C7.75 2.0335 8.5335 1.25 9.5 1.25H14.5C15.4665 1.25 16.25 2.0335 16.25 3C16.25 3.9665 15.4665 4.75 14.5 4.75H9.5C8.5335 4.75 7.75 3.9665 7.75 3Z" fill="currentColor" />
    <path fill-rule="evenodd" clip-rule="evenodd" d="M6.5 3L6.50391 3.1543C6.58421 4.73945 7.8949 6 9.5 6H14.5C16.1569 6 17.5 4.65685 17.5 3H20.75V22.748H3.25V3H6.5ZM11.001 14.9951H8.00586V12.9951H11.001V10H13.001V12.9951H16.0059V14.9951H13.001V18H11.001V14.9951Z" fill="currentColor" />
</svg>