<svg xmlns="http://www.w3.org/2000/svg" width="24" height="24" viewBox="0 0 24 24" fill="none">
    <path fill-rule="evenodd" clip-rule="evenodd" d="M7.25 3.00098C7.25 2.03448 8.0335 1.25098 9 1.25098H14C14.9665 1.25098 15.75 2.03448 15.75 3.00098C15.75 3.96747 14.9665 4.75098 14 4.75098H9C8.0335 4.75098 7.25 3.96748 7.25 3.00098Z" fill="currentColor" />
    <path d="M16.8359 18.415L21.25 14.001L16.8359 9.58691L15.4219 11.001L17.4219 13.001H8.83594V15.001H17.4219L15.4219 17.001L16.8359 18.415Z" fill="currentColor" />
    <path d="M6.00391 3.15527C6.08421 4.74042 7.3949 6.00098 9 6.00098H14C15.6569 6.00098 17 4.65783 17 3.00098H20.25V11.2334L16.8359 7.81934L13.6543 11.001L14.4043 11.751H7.58594V16.251H14.4043L13.6543 17.001L16.8359 20.1826L20.25 16.7686V22.749H2.75V3.00098H6L6.00391 3.15527Z" fill="currentColor" />
</svg>