<svg xmlns="http://www.w3.org/2000/svg" width="24" height="24" viewBox="0 0 24 24" fill="none">
    <path d="M21.5293 15.5713L14.3506 22.75H10.7188V19.1182L17.8975 11.9395L21.5293 15.5713Z" fill="currentColor" />
    <path fill-rule="evenodd" clip-rule="evenodd" d="M7.21875 3C7.21875 2.0335 8.00225 1.25 8.96875 1.25H13.9688C14.9352 1.25 15.7188 2.0335 15.7188 3C15.7188 3.9665 14.9352 4.75 13.9688 4.75H8.96875C8.00225 4.75 7.21875 3.9665 7.21875 3Z" fill="currentColor" />
    <path fill-rule="evenodd" clip-rule="evenodd" d="M5.71875 3L5.72266 3.1543C5.80296 4.73945 7.11365 6 8.71875 6H13.7188C15.3756 6 16.7188 4.65685 16.7188 3H19.9688V12.4932L17.6475 10.1719L9.21875 18.5996V22.748H2.46875V3H5.71875Z" fill="currentColor" />
</svg>