<svg xmlns="http://www.w3.org/2000/svg" width="24" height="24" viewBox="0 0 24 24" fill="none">
    <path d="M22.7501 16.3356L16.336 22.7496L12.922 19.3356L14.336 17.9215L16.336 19.9215L21.336 14.9215L22.7501 16.3356Z" fill="currentColor" />
    <path fill-rule="evenodd" clip-rule="evenodd" d="M12.0001 1.24963C17.8523 1.24963 22.6083 5.926 22.7433 11.7457L16.336 18.1539L14.336 16.1539L11.1544 19.3356L14.3145 22.4957C13.5688 22.6594 12.795 22.7496 12.0001 22.7496C6.06303 22.7496 1.25009 17.9367 1.25009 11.9996C1.25009 6.06257 6.06303 1.24963 12.0001 1.24963ZM11.0001 12.4137L13.7931 15.2067L15.2071 13.7926L13.0001 11.5856V6.99963H11.0001V12.4137Z" fill="currentColor" />
</svg>