<svg xmlns="http://www.w3.org/2000/svg" width="24" height="24" viewBox="0 0 24 24" fill="none">
    <path d="M15.6681 19.2887L17.6681 17.2887V22.8746H19.6681V17.2887L21.6681 19.2887L23.0821 17.8746L18.6681 13.4606L14.254 17.8746L15.6681 19.2887Z" fill="currentColor" />
    <path fill-rule="evenodd" clip-rule="evenodd" d="M11.6681 1.12463C17.6051 1.12463 22.4181 5.93757 22.4181 11.8746C22.4181 12.956 22.2561 13.9995 21.9591 14.984L18.6681 11.693L12.4864 17.8746L16.2227 21.611C14.8394 22.2592 13.2968 22.6246 11.6681 22.6246C5.731 22.6246 0.91806 17.8117 0.91806 11.8746C0.91806 5.93757 5.731 1.12463 11.6681 1.12463ZM10.6681 12.2887L13.461 15.0817L14.8751 13.6676L12.6681 11.4606V6.87463H10.6681V12.2887Z" fill="currentColor" />
</svg>