<svg xmlns="http://www.w3.org/2000/svg" width="24" height="24" viewBox="0 0 24 24" fill="none">
    <path d="M17.6681 13.6676H19.6681V19.2535L21.6681 17.2535L23.0821 18.6676L19.6681 22.0817V22.1676H19.5821L18.6681 23.0817L17.754 22.1676H17.6681V22.0817L14.254 18.6676L15.6681 17.2535L17.6681 19.2535V13.6676Z" fill="currentColor" />
    <path fill-rule="evenodd" clip-rule="evenodd" d="M11.6681 0.917603C17.6051 0.917603 22.4181 5.73054 22.4181 11.6676C22.4181 13.6678 21.8696 15.5392 20.9181 17.1432V12.4176H16.4181V14.736L12.4864 18.6676L15.5216 21.7028C14.325 22.1625 13.0265 22.4176 11.6681 22.4176C5.731 22.4176 0.91806 17.6047 0.91806 11.6676C0.91806 5.73054 5.731 0.917603 11.6681 0.917603ZM10.6681 12.0817L13.461 14.8746L14.8751 13.4606L12.6681 11.2535V6.6676H10.6681V12.0817Z" fill="currentColor" />
</svg>