<svg xmlns="http://www.w3.org/2000/svg" width="24" height="24" viewBox="0 0 24 24" fill="none">
    <path d="M19.003 12.9995H21.003V18.9995H19.003V12.9995Z" fill="currentColor" />
    <path fill-rule="evenodd" clip-rule="evenodd" d="M12.003 1.24976C17.8565 1.24976 22.6143 5.9282 22.7472 11.7498H17.753V21.0798C16.0897 22.1353 14.1188 22.7498 12.003 22.7498C6.06596 22.7498 1.25302 17.9368 1.25302 11.9998C1.25302 6.0627 6.06596 1.24976 12.003 1.24976ZM11.003 12.4138L13.796 15.2068L15.2101 13.7927L13.003 11.5857V6.99976H11.003V12.4138Z" fill="currentColor" />
    <path d="M20.003 20.7495C20.5553 20.7495 21.003 21.1972 21.003 21.7495C21.003 22.3018 20.5553 22.7495 20.003 22.7495C19.4507 22.7495 19.003 22.3018 19.003 21.7495C19.003 21.1972 19.4507 20.7495 20.003 20.7495Z" fill="currentColor" />
</svg>