<svg xmlns="http://www.w3.org/2000/svg" width="24" height="24" viewBox="0 0 24 24" fill="none">
    <path d="M17.9141 15.168L11.5 21.582L8.08594 18.168L9.5 16.7539L11.5 18.7539L16.5 13.7539L17.9141 15.168Z" fill="currentColor" />
    <path d="M5.85254 7.5332C3.22647 8.06532 1.25 10.3852 1.25 13.168C1.25 15.527 2.67097 17.5528 4.7002 18.4395L4.83887 18.5L4.99121 18.502L6.67157 18.5212L6.31836 18.168L7.45717 17.0292L9.5 14.9863L11.5 16.9863L16.5 11.9863L19.6816 15.168L17.7028 17.1468L16.2192 18.6304L18.9912 18.6621L19.124 18.6631L19.25 18.6191C21.2881 17.8988 22.75 15.955 22.75 13.668C22.75 11.0214 20.7917 8.83254 18.2451 8.4707C18.1409 5.11023 15.3858 2.41797 12 2.41797C8.93559 2.41797 6.38655 4.62285 5.85254 7.5332Z" fill="currentColor" />
</svg>