<svg xmlns="http://www.w3.org/2000/svg" width="24" height="24" viewBox="0 0 24 24" fill="none">
    <path fill-rule="evenodd" clip-rule="evenodd" d="M5.85254 6.74023C3.22647 7.27235 1.25 9.5922 1.25 12.375C1.25 14.6521 2.57372 16.6188 4.49023 17.5498L4.64551 17.625H5.75V10.625H10.25V11.3857C10.7706 11.2225 11.3517 11.125 12 11.125C15.4518 11.125 18.25 13.9232 18.25 17.375C18.25 17.4587 18.2484 17.5421 18.2451 17.625H19.7461L19.9082 17.541C21.5946 16.6691 22.75 14.9077 22.75 12.875C22.75 10.2285 20.7917 8.03957 18.2451 7.67773C18.1409 4.31726 15.3858 1.625 12 1.625C8.93559 1.625 6.38655 3.82989 5.85254 6.74023Z" fill="currentColor" />
    <path d="M15 17.375C15 15.7181 13.6569 14.375 12 14.375C11.0886 14.375 10.4547 14.8113 9.99316 15.375H12V17.375H7V11.875H9V13.5244C9.70782 12.8841 10.68 12.375 12 12.375C14.7614 12.375 17 14.6136 17 17.375C17 20.1364 14.7614 22.375 12 22.375C10.5065 22.375 9.16472 21.719 8.25 20.6826L7.58887 19.9326L9.08789 18.6094L9.75 19.3594C10.3012 19.9837 11.1043 20.375 12 20.375C13.6569 20.375 15 19.0319 15 17.375Z" fill="currentColor" />
</svg>