<svg xmlns="http://www.w3.org/2000/svg" width="24" height="24" viewBox="0 0 24 24" fill="none">
    <path d="M19.7461 19.7461C19.0651 20.0689 18.3037 20.25 17.5 20.25H7C3.82436 20.25 1.25 17.6756 1.25 14.5C1.25 11.7171 3.22637 9.3963 5.85254 8.86426C5.99655 8.08008 6.28808 7.34769 6.69531 6.69531L19.7461 19.7461Z" fill="currentColor" />
    <path d="M12 3.75C15.3858 3.75 18.1429 6.44224 18.2471 9.80273C20.7927 10.1654 22.75 12.3541 22.75 15C22.75 16.1858 22.3564 17.2793 21.6934 18.1582L8.41504 4.87988C9.42991 4.16794 10.666 3.75 12 3.75Z" fill="currentColor" />
    <path d="M22.75 21.3359L21.25 22.75L1.25 2.66406L2.66406 1.25L22.75 21.3359Z" fill="currentColor" />
</svg>