<svg xmlns="http://www.w3.org/2000/svg" width="24" height="24" viewBox="0 0 24 24" fill="none">
    <path d="M16.3701 12.1836C16.3701 10.5269 15.0268 9.18385 13.3701 9.18359C12.8412 9.18359 12.3464 9.31939 11.917 9.55762L11.042 10.043L10.0723 8.29395L10.9463 7.80957C11.6651 7.41072 12.4929 7.18359 13.3701 7.18359C16.1313 7.18385 18.3701 9.42233 18.3701 12.1836C18.3701 12.6136 18.3149 13.0323 18.2119 13.4326L17.9629 14.4014L16.0264 13.9023L16.2754 12.9346C16.3369 12.6957 16.3701 12.4441 16.3701 12.1836Z" fill="currentColor" />
    <path d="M22.874 10.6787V12.6787H19.874V10.6787H22.874ZM9.48828 6.37695L8.07422 7.79102L5.95312 5.66992L7.36719 4.25586L9.48828 6.37695ZM20.7949 5.66992L18.6738 7.79102L17.2598 6.37695L19.3809 4.25586L20.7949 5.66992ZM12.3691 2.18359H14.3691V5.18359H12.3691V2.18359Z" fill="currentColor" />
    <path d="M9.875 18.0176H11.875V21.6836H9.875V18.0176Z" fill="currentColor" />
    <path d="M5.875 17.1836H7.875V20.8496H5.875V17.1836Z" fill="currentColor" />
    <path fill-rule="evenodd" clip-rule="evenodd" d="M16.625 18.3975C16.625 19.8991 15.7184 21.1916 14.4148 21.778L13.125 21.7831V16.7676H9.125V15.9336H4.625V21.8164L3.82215 21.8195L3.71232 21.8181L3.61235 21.7753C2.14942 21.1477 1.125 19.7135 1.125 18.0436C1.125 16.0736 2.54989 14.4314 4.44311 14.0547C4.8281 11.9944 6.66577 10.4336 8.875 10.4336C11.3159 10.4336 13.3022 12.3395 13.3773 14.7184C15.2132 14.9745 16.625 16.524 16.625 18.3975Z" fill="currentColor" />
</svg>