<svg xmlns="http://www.w3.org/2000/svg" width="24" height="24" viewBox="0 0 24 24" fill="none">
    <path d="M11.0273 19.7002C10.6757 19.5758 10.3547 19.3893 10.0771 19.1514L8.19922 20.2363L7.19922 18.5049L9.07715 17.4199C9.04471 17.2432 9.02734 17.0611 9.02734 16.875C9.02734 16.6848 9.04525 16.4988 9.0791 16.3184L7.2041 15.2363L8.2041 13.5049L10.085 14.5898C10.3605 14.3554 10.6793 14.1719 11.0273 14.0488V11.875H13.0273V14.0488C13.3768 14.1725 13.6963 14.3578 13.9727 14.5938L14.9941 14.0049L15.8594 13.5049L16.8594 15.2363L14.9746 16.3242C15.0078 16.5029 15.0273 16.6867 15.0273 16.875C15.0273 17.0595 15.0084 17.2397 14.9766 17.415L16.8643 18.5049L15.8643 20.2363L13.9805 19.1484C13.7023 19.3877 13.3802 19.5752 13.0273 19.7002V21.875H11.0273V19.7002ZM12.0273 15.875C11.4751 15.875 11.0273 16.3227 11.0273 16.875C11.0273 17.4273 11.4751 17.875 12.0273 17.875C12.5795 17.8748 13.0273 17.4272 13.0273 16.875C13.0273 16.3228 12.5795 15.8752 12.0273 15.875Z" fill="currentColor" />
    <path d="M16.5823 16.841L16.5332 16.8691L16.625 16.9219L18.5732 18.0469L18.3912 18.3623L18.9912 18.3691C19.0792 18.3701 19.167 18.3555 19.25 18.3262C21.2881 17.6058 22.75 15.662 22.75 13.375C22.75 10.7285 20.7917 8.53957 18.2451 8.17773C18.1409 4.81726 15.3858 2.125 12 2.125C8.93559 2.125 6.38655 4.32989 5.85254 7.24023C3.22647 7.77235 1.25 10.0922 1.25 12.875C1.25 15.234 2.67097 17.2599 4.7002 18.1465C4.79205 18.1865 4.89101 18.2078 4.99121 18.209L5.59071 18.2158L5.49316 18.0469L7.44141 16.9219L7.5332 16.8691L7.44629 16.8193L7.29915 16.7344L5.49805 15.6943L7.74805 11.7969L9.69629 12.9219L9.77832 12.9688V10.625H14.2783V12.9746L14.3701 12.9219L16.3184 11.7969L18.5684 15.6943L16.6201 16.8193L16.5823 16.841Z" fill="currentColor" />
</svg>