<svg xmlns="http://www.w3.org/2000/svg" width="24" height="24" viewBox="0 0 24 24" fill="none">
    <path d="M15 12.375H17V16.375H15V12.375Z" fill="currentColor" />
    <path d="M7 12.375H9V16.375H7V12.375Z" fill="currentColor" />
    <path d="M16.0098 18.375C16.5621 18.375 17.0098 18.8227 17.0098 19.375C17.0098 19.9273 16.5621 20.375 16.0098 20.375H16C15.4477 20.375 15 19.9273 15 19.375C15 18.8227 15.4477 18.375 16 18.375H16.0098Z" fill="currentColor" />
    <path d="M8.00977 18.375C8.56205 18.375 9.00977 18.8227 9.00977 19.375C9.00977 19.9273 8.56205 20.375 8.00977 20.375H8C7.44772 20.375 7 19.9273 7 19.375C7 18.8227 7.44772 18.375 8 18.375H8.00977Z" fill="currentColor" />
    <path d="M11 14.375H13V18.375H11V14.375Z" fill="currentColor" />
    <path d="M12.0098 20.375C12.5621 20.375 13.0098 20.8227 13.0098 21.375C13.0098 21.9273 12.5621 22.375 12.0098 22.375H12C11.4477 22.375 11 21.9273 11 21.375C11 20.8227 11.4477 20.375 12 20.375H12.0098Z" fill="currentColor" />
    <path fill-rule="evenodd" clip-rule="evenodd" d="M12 1.625C15.3858 1.625 18.1409 4.31726 18.2451 7.67773C20.7917 8.03957 22.75 10.2285 22.75 12.875C22.75 15.5199 20.7942 17.7079 18.25 18.0718V11.125H13.75V13.125H10.25V11.125H5.75V17.9887C3.17541 17.418 1.25 15.1214 1.25 12.375C1.25 9.5922 3.22647 7.27235 5.85254 6.74023C6.38655 3.82989 8.93559 1.625 12 1.625Z" fill="currentColor" />
</svg>