<svg xmlns="http://www.w3.org/2000/svg" width="24" height="24" viewBox="0 0 24 24" fill="none">
    <path d="M15 20.373C14.1644 21.0013 13.127 21.377 12 21.377C10.1482 21.377 8.53299 20.3696 7.66992 18.8779L7.16895 18.0117L8.90039 17.0107L9.40039 17.876C9.92061 18.7753 10.8908 19.377 12 19.377C12.6122 19.377 13.1811 19.1923 13.6562 18.877H12V16.877H17V21.877H15V20.373ZM12 11.377C13.8518 11.377 15.467 12.3843 16.3301 13.876L16.8311 14.7422L15.0996 15.7432L14.5996 14.8779C14.0794 13.9786 13.1092 13.377 12 13.377C11.3878 13.377 10.8189 13.5616 10.3438 13.877H12V15.877H7V10.877H9V12.3799C9.8355 11.7518 10.8732 11.377 12 11.377Z" fill="currentColor" />
    <path d="M1.25 12.877C1.25 10.0939 3.22664 7.77338 5.853 7.24149C6.38731 4.33152 8.93585 2.12695 12 2.12695C15.3858 2.12695 18.1428 4.81919 18.2469 8.17969C20.7927 8.54229 22.75 10.731 22.75 13.377C22.75 16.0218 20.7942 18.2099 18.25 18.5738V17.957V17.1885V15.3654L18.5391 15.1982L17.4121 13.25C16.3348 11.388 14.316 10.127 12 10.127C11.3922 10.127 10.8052 10.2152 10.25 10.377V9.62695H5.75V14.8066V15.5859V18.4907C3.17541 17.92 1.25 15.6233 1.25 12.877Z" fill="currentColor" />
</svg>