<svg xmlns="http://www.w3.org/2000/svg" width="24" height="24" viewBox="0 0 24 24" fill="none">
    <path d="M11.998 1.25195C12.8813 1.25195 13.7532 1.45507 14.5439 1.8457C15.3348 2.2364 16.024 2.80449 16.5557 3.50488C17.0872 4.20524 17.4467 5.01915 17.6055 5.88184C17.7145 6.47465 17.7234 7.07862 17.6396 7.67188C18.2834 7.85649 18.8927 8.17619 19.4365 8.57324C20.1966 9.12824 20.806 9.86196 21.209 10.709C21.6121 11.5563 21.7959 12.4902 21.7432 13.4258C21.6904 14.3614 21.4027 15.2689 20.9072 16.0664C20.4117 16.8637 19.7237 17.5262 18.9062 17.9941C18.0889 18.462 17.1667 18.7209 16.2236 18.749C15.7795 18.7622 15.3373 18.7227 14.9053 18.6348L15.9707 22.752H8.03516L9.0918 18.626C8.65901 18.7135 8.21622 18.7532 7.77148 18.7393C6.82943 18.7098 5.90884 18.4496 5.09277 17.9814C4.27654 17.5131 3.58932 16.8506 3.09473 16.0537C2.60022 15.2569 2.31342 14.3505 2.26074 13.416C2.20812 12.4813 2.39163 11.5478 2.79394 10.7012C3.19622 9.8548 3.80463 9.12153 4.56348 8.56641C5.10642 8.16923 5.71466 7.87298 6.3584 7.6875C6.27226 7.08927 6.28158 6.47982 6.3916 5.88184C6.55036 5.01912 6.90984 4.20526 7.44141 3.50488C7.97305 2.80449 8.66229 2.2364 9.45312 1.8457C10.2437 1.45517 11.115 1.25201 11.998 1.25195Z" fill="currentColor" />
</svg>