<svg xmlns="http://www.w3.org/2000/svg" width="24" height="24" viewBox="0 0 24 24" fill="none">
    <path fill-rule="evenodd" clip-rule="evenodd" d="M12.9725 3.2599C13.8689 3.35902 14.7243 3.59252 15.5188 3.94036L16.5247 2.1996L18.2168 3.17687L17.2108 4.91859C17.9213 5.44273 18.5493 6.07132 19.0738 6.78152L20.8184 5.77466L21.7956 7.46675L20.052 8.47266C20.4002 9.26692 20.6348 10.1217 20.7344 11.018H22.75V12.9725H20.7353C20.6367 13.8685 20.4039 14.7235 20.0568 15.5178L21.8004 16.5247L20.8231 18.2168L19.0795 17.2099C18.5558 17.9208 17.9283 18.5498 17.2185 19.0747L18.2253 20.8184L16.5332 21.7956L15.5273 20.0539C14.7303 20.404 13.8723 20.6396 12.9725 20.7391V22.75H11.018V20.7391C10.1207 20.6399 9.26491 20.4061 8.46979 20.0577L7.46771 21.7956L5.77466 20.8193L6.7777 19.0795C6.06648 18.5545 5.43753 17.9252 4.91286 17.2137L3.17591 18.2168L2.19864 16.5247L3.93464 15.5216C3.58664 14.7262 3.3529 13.8699 3.25417 12.9725H1.25V11.018H3.25513C3.3549 10.12 3.5901 9.26342 3.93941 8.46788L2.20437 7.46675L3.18164 5.77466L4.91859 6.77674C5.44393 6.06618 6.07375 5.43785 6.78533 4.91382L5.78325 3.17591L7.4763 2.1996L8.47838 3.9375C9.271 3.59129 10.1241 3.35872 11.018 3.2599V1.25H12.9725V3.2599ZM14.7581 12.9725C14.3567 14.1131 13.2731 14.9318 11.9952 14.9318C11.8113 14.9318 11.6315 14.9136 11.457 14.8812L9.4547 18.3513C10.2403 18.6658 11.0972 18.8409 11.9952 18.8409C15.443 18.8409 18.2932 16.2898 18.7655 12.9725H14.7581ZM7.76929 6.62118C6.22517 7.83599 5.21845 9.70063 5.15909 11.8034V12.1956C5.21808 14.2954 6.22242 16.157 7.76261 17.3721L9.76583 13.9011C9.32873 13.389 9.06341 12.726 9.06341 12C9.06341 11.2715 9.3299 10.6059 9.76964 10.0932L7.76929 6.62118ZM11.9952 11.0227C11.4555 11.0227 11.018 11.4603 11.018 12C11.018 12.5397 11.4555 12.9773 11.9952 12.9773C12.5349 12.9772 12.9725 12.5397 12.9725 12C12.9725 11.4603 12.5349 11.0228 11.9952 11.0227ZM11.9952 5.15909C11.1002 5.15909 10.2458 5.33233 9.46234 5.64486L11.4636 9.1159C11.636 9.08435 11.8138 9.06818 11.9952 9.06818C13.2695 9.06823 14.3512 9.88229 14.7553 11.018H18.7646C18.2882 7.70523 15.4397 5.15915 11.9952 5.15909Z" fill="currentColor" />
</svg>