<svg xmlns="http://www.w3.org/2000/svg" width="24" height="24" viewBox="0 0 24 24" fill="none">
    <path d="M13.5 15.75V19.25C13.5 19.5261 13.7239 19.75 14 19.75H17V21.75H7V19.75H10C10.2761 19.75 10.5 19.5261 10.5 19.25V15.75H13.5Z" fill="currentColor" />
    <path d="M13.25 16.25V19.5C13.25 19.9142 13.5858 20.25 14 20.25H16.75V21.75H7.25V20.25H10C10.4142 20.25 10.75 19.9142 10.75 19.5V16.25H13.25Z" fill="currentColor" />
    <path d="M14.75 2.25V3.75H2.75V16.25H21.25V10.25H22.75V17.75H1.25V2.25H14.75Z" fill="currentColor" />
    <path d="M12.4395 9.5625V11.0625H6.93945V9.5625H12.4395Z" fill="currentColor" />
    <path d="M17.1875 11.0605L22.75 5.49805L19.502 2.25L13.9395 7.8125V11.0605H17.1875Z" fill="currentColor" />
    <path d="M17.7363 2.25L12.6895 7.29688V8.3125H5.68945V12.3125H17.7051L22.75 7.26758V17.75H1.25V2.25H17.7363Z" fill="currentColor" />
</svg>