<svg xmlns="http://www.w3.org/2000/svg" width="24" height="24" viewBox="0 0 24 24" fill="none">
    <path d="M22.75 17.25H13.5V18.75C13.5 19.0261 13.7239 19.25 14 19.25H17V21.25H7V19.25H10C10.2761 19.25 10.5 19.0261 10.5 18.75V17.25H1.25V1.75H22.75V17.25ZM9.73535 13.1318L11.6328 13.7637L14.2646 5.86621L12.3672 5.23438L9.73535 13.1318ZM4.08594 9.49902L7.5 12.9131L8.91406 11.499L6.91406 9.49902L8.91406 7.49902L7.5 6.08496L4.08594 9.49902ZM15.0859 7.49902L17.0859 9.49902L15.0859 11.499L16.5 12.9131L19.9141 9.49902L16.5 6.08496L15.0859 7.49902Z" fill="currentColor" />
</svg>