<svg xmlns="http://www.w3.org/2000/svg" width="24" height="24" viewBox="0 0 24 24" fill="none">
    <path d="M17 2.25C20.1389 2.25 22.75 4.67665 22.75 7.75C22.75 10.8234 20.1389 13.25 17 13.25C16.5738 13.25 16.1579 13.2038 15.7568 13.1191C15.0278 13.4945 14.1849 13.75 12.999 13.75H12.2393L12.249 12.9902L12.25 12.9336L12.2539 12.6602L12.4326 12.4531C12.6868 12.1587 12.7854 11.9236 12.8252 11.7588C12.8428 11.6859 12.849 11.6186 12.8506 11.5566C11.8646 10.5734 11.25 9.23338 11.25 7.75C11.25 4.67665 13.8611 2.25 17 2.25ZM17 9.05078C16.5601 9.05098 16.1978 9.38496 16.1543 9.81348L16.1504 9.90039L16.1543 9.9873C16.1978 10.4158 16.5601 10.7498 17 10.75C17.4694 10.75 17.8506 10.3698 17.8506 9.90039C17.8506 9.46016 17.5157 9.09804 17.0869 9.05469L17 9.05078ZM16.2549 4.75488V7.75H17.7549V4.75488H16.2549Z" fill="currentColor" />
    <path d="M1.24988 21V21.75H12.7499V21C12.7499 17.8244 10.1755 15.25 6.99988 15.25C3.82424 15.25 1.24988 17.8244 1.24988 21Z" fill="currentColor" />
    <path d="M10.25 12.5C10.25 14.2949 8.79493 15.75 7 15.75C5.20507 15.75 3.75 14.2949 3.75 12.5C3.75 10.7051 5.20507 9.25 7 9.25C8.79493 9.25 10.25 10.7051 10.25 12.5Z" fill="currentColor" />
</svg>