<svg xmlns="http://www.w3.org/2000/svg" width="24" height="24" viewBox="0 0 24 24" fill="none">
    <path fill-rule="evenodd" clip-rule="evenodd" d="M21.752 1.03906V19.5391H14.8535L12.002 22.9609L9.15039 19.5391H2.25195V1.03906H21.752ZM14.6671 10.5578C15.1877 9.94686 15.502 9.15466 15.502 8.28906C15.502 6.35607 13.9349 4.78906 12.002 4.78906C10.069 4.78906 8.50195 6.35607 8.50195 8.28906C8.50195 9.15466 8.81618 9.94686 9.33678 10.5578C7.93384 11.4434 7.00195 13.0074 7.00195 14.7891V15.7891H9.00195V14.7891C9.00195 13.1322 10.3451 11.7891 12.002 11.7891C13.6588 11.7891 15.002 13.1322 15.002 14.7891V15.7891H17.002V14.7891C17.002 13.0074 16.0701 11.4434 14.6671 10.5578Z" fill="currentColor" />
    <path d="M12.002 6.78906C12.8304 6.78906 13.502 7.46064 13.502 8.28906C13.502 9.11749 12.8304 9.78906 12.002 9.78906C11.1735 9.78906 10.502 9.11749 10.502 8.28906C10.502 7.46064 11.1735 6.78906 12.002 6.78906Z" fill="currentColor" />
</svg>