<svg xmlns="http://www.w3.org/2000/svg" width="24" height="24" viewBox="0 0 24 24" fill="none">
    <path d="M12.0001 1.25C17.9372 1.25 22.7501 6.06294 22.7501 12C22.7501 17.9371 17.9372 22.75 12.0001 22.75C6.06306 22.75 1.25012 17.9371 1.25012 12C1.25012 6.06294 6.06306 1.25 12.0001 1.25ZM12.0001 7C10.5066 7 9.16484 7.65601 8.25012 8.69238L7.58899 9.44238L9.08801 10.7656L9.75012 10.0156C10.3013 9.39132 11.1044 9 12.0001 9C13.657 9 15.0001 10.3431 15.0001 12C15.0001 13.6569 13.657 15 12.0001 15C11.1044 15 10.3013 14.6087 9.75012 13.9844L9.08801 13.2344L7.58899 14.5576L8.25012 15.3076C9.16484 16.344 10.5066 17 12.0001 17C14.7615 17 17.0001 14.7614 17.0001 12C17.0001 9.23858 14.7615 7 12.0001 7Z" fill="currentColor" />
</svg>