<svg xmlns="http://www.w3.org/2000/svg" width="24" height="24" viewBox="0 0 24 24" fill="none">
    <path d="M20.75 23.0518L16 20.082L12.3975 22.334L12 22.583L11.6025 22.334L8 20.082L3.25 23.0518V0.948242H20.75V23.0518ZM7.58594 13.6982L9 15.1123L16.4141 7.69824L15 6.28418L7.58594 13.6982ZM15.4141 13.1123C14.8618 13.1123 14.4141 13.56 14.4141 14.1123C14.4141 14.6646 14.8618 15.1123 15.4141 15.1123C15.9663 15.1123 16.4141 14.6646 16.4141 14.1123C16.4141 13.56 15.9663 13.1123 15.4141 13.1123ZM8.58594 6.28418C8.03365 6.28418 7.58594 6.7319 7.58594 7.28418C7.58594 7.83646 8.03365 8.28418 8.58594 8.28418C9.13822 8.28418 9.58594 7.83647 9.58594 7.28418C9.58594 6.7319 9.13822 6.28418 8.58594 6.28418Z" fill="currentColor" />
</svg>