<svg xmlns="http://www.w3.org/2000/svg" width="24" height="24" viewBox="0 0 24 24" fill="none">
    <path d="M22.7501 10.25H22.0001C21.0336 10.25 20.2501 11.0335 20.2501 12C20.2501 12.9665 21.0336 13.75 22.0001 13.75H22.7501V20.75H1.25012V13.75H2.00012C2.96662 13.75 3.75012 12.9665 3.75012 12C3.75012 11.0335 2.96662 10.25 2.00012 10.25H1.25012V3.25H22.7501V10.25ZM7.58606 15L9.00012 16.4141L16.4142 9L15.0001 7.58594L7.58606 15ZM15.4142 14.4141C14.8619 14.4141 14.4142 14.8618 14.4142 15.4141C14.4142 15.9663 14.8619 16.4141 15.4142 16.4141C15.9665 16.4141 16.4142 15.9663 16.4142 15.4141C16.4142 14.8618 15.9665 14.4141 15.4142 14.4141ZM8.58606 7.58594C8.03377 7.58594 7.58606 8.03366 7.58606 8.58594C7.58606 9.13822 8.03377 9.58594 8.58606 9.58594C9.13834 9.58594 9.58606 9.13822 9.58606 8.58594C9.58606 8.03365 9.13834 7.58594 8.58606 7.58594Z" fill="currentColor" />
</svg>