<svg xmlns="http://www.w3.org/2000/svg" width="24" height="24" viewBox="0 0 24 24" fill="none">
    <path d="M4 20H22V22H2V2H4V20ZM20.9141 4.5L7 18.4141L5.58594 17L19.5 3.08594L20.9141 4.5ZM14.25 14C14.9404 14 15.5 14.5596 15.5 15.25C15.5 15.9404 14.9404 16.5 14.25 16.5C13.5596 16.5 13 15.9404 13 15.25C13 14.5596 13.5596 14 14.25 14ZM19.25 10C19.9404 10 20.5 10.5596 20.5 11.25C20.5 11.9404 19.9404 12.5 19.25 12.5C18.5596 12.5 18 11.9404 18 11.25C18 10.5596 18.5596 10 19.25 10ZM7.25 9C7.94035 9 8.5 9.55965 8.5 10.25C8.5 10.9404 7.94035 11.5 7.25 11.5C6.55964 11.5 6 10.9404 6 10.25C6 9.55965 6.55964 9 7.25 9ZM12.25 5C12.9404 5 13.5 5.55965 13.5 6.25C13.5 6.94036 12.9404 7.5 12.25 7.5C11.5596 7.5 11 6.94036 11 6.25C11 5.55965 11.5596 5 12.25 5Z" fill="currentColor" />
</svg>