<svg xmlns="http://www.w3.org/2000/svg" width="24" height="24" viewBox="0 0 24 24" fill="none">
    <path d="M11.6367 2.25012C15.9533 2.25015 19.6775 4.76197 21.291 8.43567L22.2607 8.005L22.8701 9.3761L21.1846 10.1251L16.6621 12.1368L17.248 15.6495L22.5459 15.0841L22.7051 16.5753L21.1299 16.7433V20.2501H22.6299V21.7501H16.7441L15.9785 17.1573L13.8936 15.0724L14.7295 21.7501H6.87305C6.5791 21.7501 6.33439 21.5648 6.21484 21.4855C5.97381 21.3255 5.57204 21.0285 4.88965 20.4669C2.59503 18.5786 1.12988 15.7394 1.12988 12.5616C1.13008 6.85252 5.84846 2.25012 11.6367 2.25012ZM17.4951 17.1329L18.0156 20.2501H19.6299V16.9044L17.4951 17.1329ZM9.87988 15.7501C9.18952 15.7501 8.62988 16.3098 8.62988 17.0001C8.62988 17.6905 9.18953 18.2501 9.87988 18.2501C10.5702 18.2501 11.1299 17.6905 11.1299 17.0001C11.1299 16.3098 10.5702 15.7501 9.87988 15.7501ZM14.1826 13.2404L15.5537 14.6115L15.2461 12.7667L14.1826 13.2404Z" fill="currentColor" />
</svg>