<svg xmlns="http://www.w3.org/2000/svg" width="24" height="24" viewBox="0 0 24 24" fill="none">
    <path d="M1.24997 21.75H8.83786L6.67087 2.25H1.24997V21.75Z" fill="currentColor" />
    <path d="M18.8418 10C19.6306 10 20.2563 10.1538 20.7901 10.4121C21.3035 10.6606 21.6918 10.9893 21.9825 11.2314L22.75 11.8721L21.4698 13.4082L20.7012 12.7686C20.392 12.5109 20.1803 12.3394 19.919 12.2129C19.6777 12.0962 19.353 12 18.8418 12C18.3619 12 18.0415 12.0932 17.7901 12.2139C17.5174 12.3448 17.2893 12.5232 16.9668 12.7812C16.6643 13.0232 16.2673 13.3448 15.7588 13.5889C15.229 13.8432 14.6119 14 13.8418 14C13.053 14 12.4273 13.8462 11.8936 13.5879C11.3801 13.3394 10.9918 13.0107 10.7012 12.7686C10.392 12.5109 10.1803 12.3394 9.91898 12.2129C9.67774 12.0962 9.35304 12 8.84183 12C8.15924 12 7.77252 12.1873 7.41409 12.4375L6.59476 13.0098L5.44925 11.3701L6.26956 10.7979C6.89801 10.3591 7.67635 10 8.84183 10C9.63062 10 10.2563 10.1538 10.7901 10.4121C11.3035 10.6606 11.6918 10.9893 11.9825 11.2314C12.2917 11.4891 12.5033 11.6606 12.7647 11.7871C13.0059 11.9038 13.3306 12 13.8418 12C14.3217 12 14.6422 11.9068 14.8936 11.7861C15.1663 11.6552 15.3943 11.4768 15.7168 11.2188C16.0193 10.9768 16.4163 10.6552 16.9248 10.4111C17.4547 10.1568 18.0717 10 18.8418 10Z" fill="currentColor" />
    <path d="M18.8418 16C19.6306 16 20.2563 16.1538 20.7901 16.4121C21.3035 16.6606 21.6918 16.9893 21.9825 17.2314L22.75 17.8721L21.4698 19.4082L20.7012 18.7686C20.392 18.5109 20.1803 18.3394 19.919 18.2129C19.6777 18.0962 19.353 18 18.8418 18C18.3619 18 18.0415 18.0932 17.7901 18.2139C17.5174 18.3448 17.2893 18.5232 16.9668 18.7812C16.6643 19.0232 16.2673 19.3448 15.7588 19.5889C15.229 19.8432 14.6119 20 13.8418 20C13.053 20 12.4273 19.8462 11.8936 19.5879C11.3801 19.3394 10.9918 19.0107 10.7012 18.7686C10.392 18.5109 10.1803 18.3394 9.91898 18.2129C9.67774 18.0962 9.35304 18 8.84183 18C8.35596 18 8.03299 18.0953 7.77933 18.2188L6.88089 18.6572L6.00491 16.8584L6.90433 16.4209C7.43811 16.1611 8.06108 16 8.84183 16C9.63062 16 10.2563 16.1538 10.7901 16.4121C11.3035 16.6606 11.6918 16.9893 11.9825 17.2314C12.2917 17.4891 12.5033 17.6606 12.7647 17.7871C13.0059 17.9038 13.3306 18 13.8418 18C14.3217 18 14.6422 17.9068 14.8936 17.7861C15.1663 17.6552 15.3943 17.4768 15.7168 17.2188C16.0193 16.9768 16.4163 16.6552 16.9248 16.4111C17.4547 16.1568 18.0717 16 18.8418 16Z" fill="currentColor" />
</svg>