<svg xmlns="http://www.w3.org/2000/svg" width="24" height="24" viewBox="0 0 24 24" fill="none">
    <path d="M21.75 11.25H2.25V2.25H21.75V11.25ZM7 5.75C6.44771 5.75 6 6.19772 6 6.75C6 7.30228 6.44772 7.75 7 7.75C7.55228 7.75 8 7.30229 8 6.75C8 6.19772 7.55228 5.75 7 5.75ZM10 7.75H18V5.75H10V7.75Z" fill="currentColor" />
    <path d="M21.75 21.75H2.25V12.75H21.75V21.75ZM7 16.25C6.44771 16.25 6 16.6977 6 17.25C6 17.8023 6.44772 18.25 7 18.25C7.55228 18.25 8 17.8023 8 17.25C8 16.6977 7.55228 16.25 7 16.25ZM10 18.25H18V16.25H10V18.25Z" fill="currentColor" />
</svg>