<svg xmlns="http://www.w3.org/2000/svg" width="24" height="24" viewBox="0 0 24 24" fill="none">
    <path d="M20.75 10.25H1.25V1.25H20.75V10.25ZM6 4.75C5.44771 4.75 5 5.19772 5 5.75C5 6.30228 5.44772 6.75 6 6.75C6.55228 6.75 7 6.30229 7 5.75C7 5.19772 6.55228 4.75 6 4.75ZM9 6.75H17V4.75H9V6.75Z" fill="currentColor" />
    <path d="M11.5 18C11.5 19.0732 12.2005 20.2597 12.5508 20.7188C12.5579 20.7294 12.5661 20.7394 12.5732 20.75H1.25V11.75H11.5V18ZM6 15.25C5.44771 15.25 5 15.6977 5 16.25C5 16.8023 5.44772 17.25 6 17.25C6.55228 17.25 7 16.8023 7 16.25C7 15.6977 6.55228 15.25 6 15.25Z" fill="currentColor" />
    <path d="M20.75 21.2461C19.9144 21.8744 18.877 22.25 17.75 22.25C15.8982 22.25 14.283 21.2427 13.4199 19.751L12.9189 18.8848L14.6504 17.8838L15.1504 18.749C15.6706 19.6483 16.6408 20.25 17.75 20.25C18.3622 20.25 18.9311 20.0654 19.4062 19.75H17.75V17.75H22.75V22.75H20.75V21.2461ZM17.75 12.25C19.6018 12.25 21.217 13.2573 22.0801 14.749L22.5811 15.6152L20.8496 16.6162L20.3496 15.751C19.8294 14.8517 18.8592 14.25 17.75 14.25C17.1372 14.25 16.5672 14.434 16.0918 14.75H17.75V16.75H12.75V11.75H14.75V13.251C15.5853 12.6234 16.6237 12.25 17.75 12.25Z" fill="currentColor" />
</svg>