<svg xmlns="http://www.w3.org/2000/svg" width="24" height="24" viewBox="0 0 24 24" fill="none">
    <path d="M12 1.25C12.8392 1.25 13.6439 1.5834 14.2373 2.17676L21.8232 9.7627C22.4166 10.3561 22.75 11.1608 22.75 12C22.75 12.8392 22.4166 13.6439 21.8232 14.2373L14.2373 21.8232C13.6439 22.4166 12.8392 22.75 12 22.75C11.1608 22.75 10.3561 22.4166 9.7627 21.8232L2.17676 14.2373C1.5834 13.6439 1.25 12.8392 1.25 12C1.25 11.1608 1.5834 10.3561 2.17676 9.7627L9.7627 2.17676C10.3561 1.5834 11.1608 1.25 12 1.25ZM10.9951 7.00391V10.999H7V12.999H10.9951V17.0039H12.9951V12.999H17V10.999H12.9951V7.00391H10.9951Z" fill="currentColor" />
</svg>