<svg xmlns="http://www.w3.org/2000/svg" width="24" height="24" viewBox="0 0 24 24" fill="none">
    <path d="M12.0001 1.25C12.8393 1.25 13.644 1.5834 14.2374 2.17676L21.8234 9.7627C22.4167 10.3561 22.7501 11.1608 22.7501 12C22.7501 12.8392 22.4167 13.6439 21.8234 14.2373L14.2374 21.8232C13.644 22.4166 12.8393 22.75 12.0001 22.75C11.161 22.75 10.3562 22.4166 9.76282 21.8232L2.17688 14.2373C1.58352 13.6439 1.25012 12.8392 1.25012 12C1.25012 11.1608 1.58352 10.3561 2.17688 9.7627L9.76282 2.17676C10.3562 1.5834 11.161 1.25 12.0001 1.25ZM15.0001 14C14.4478 14 14.0001 14.4477 14.0001 15C14.0001 15.5523 14.4478 16 15.0001 16C15.5524 16 16.0001 15.5523 16.0001 15C16.0001 14.4477 15.5524 14 15.0001 14ZM8.08606 14.5L9.50012 15.9141L15.9142 9.5L14.5001 8.08594L8.08606 14.5ZM9.00012 8C8.44783 8 8.00012 8.44772 8.00012 9C8.00012 9.55229 8.44784 10 9.00012 10C9.5524 10 10.0001 9.55229 10.0001 9C10.0001 8.44772 9.55241 8 9.00012 8Z" fill="currentColor" />
</svg>