<svg xmlns="http://www.w3.org/2000/svg" width="24" height="24" viewBox="0 0 24 24" fill="none">
    <path d="M22.9053 12.8447L11.1553 1.09473H1.09473L1.09473 11.1553L12.8447 22.9053L22.9053 12.8447ZM6.34473 7.59473C5.65437 7.59473 5.09473 7.03508 5.09473 6.34473C5.09473 5.65438 5.65437 5.09473 6.34473 5.09473C6.75324 5.09473 7.11468 5.29167 7.34277 5.59473H7.34473V5.59766C7.50082 5.80626 7.59473 6.06415 7.59473 6.34473C7.59473 6.62531 7.50082 6.8832 7.34473 7.0918V7.09473H7.34277C7.11468 7.39778 6.75324 7.59473 6.34473 7.59473ZM12.0947 9.09473H13.5947L13.5947 16.5947H12.0947L12.0947 9.09473ZM9.09473 13.3447C8.54244 13.3447 8.09473 12.897 8.09473 12.3447C8.09473 11.7924 8.54244 11.3447 9.09473 11.3447C9.64701 11.3447 10.0947 11.7924 10.0947 12.3447C10.0947 12.897 9.64701 13.3447 9.09473 13.3447ZM16.5947 13.3447C16.0424 13.3447 15.5947 12.897 15.5947 12.3447C15.5947 11.7924 16.0424 11.3447 16.5947 11.3447C17.147 11.3447 17.5947 11.7924 17.5947 12.3447C17.5947 12.897 17.147 13.3447 16.5947 13.3447Z" fill="currentColor" />
</svg>