<svg xmlns="http://www.w3.org/2000/svg" width="24" height="24" viewBox="0 0 24 24" fill="none">
    <path d="M18.1816 20.7048C19.665 20.334 22.75 18.6802 22.75 14.9773C22.75 11.6397 21.3774 7.07039 20.7051 5.22144L20.6143 4.97144L20.3857 4.83374C18.2487 3.55162 15.9431 3.22729 15 3.22729H14.5361L14.3291 3.64233L13.8105 4.67749C13.0886 4.50671 12.3671 4.48796 12 4.50464C11.6328 4.48795 10.9108 4.50651 10.1885 4.67749L9.46387 3.22729H9C8.05691 3.22729 5.75128 3.55162 3.61426 4.83374L3.38574 4.97144L3.29492 5.22144C2.62262 7.07039 1.25 11.6397 1.25 14.9773C1.25 18.6802 4.33505 20.334 5.81836 20.7048L6.08691 20.7722L6.33496 20.6482C7.03564 20.2979 7.71945 19.3175 8.58887 18.1335C7.59106 17.8525 6.73809 17.4471 6.12109 16.9431L5.65625 16.5632L6.41602 15.6335L6.88086 16.0134C7.82969 16.7883 9.72315 17.3787 12.001 17.3787C14.2788 17.3787 16.1723 16.7883 17.1211 16.0134L17.5859 15.6335L18.3457 16.5632L17.8809 16.9431C17.2296 17.475 16.315 17.8955 15.2451 18.1775C16.1112 19.3415 16.9731 20.3022 17.665 20.6482L17.9131 20.7722L18.1816 20.7048ZM8.25 13.4773C7.2835 13.4773 6.5 12.5819 6.5 11.4773C6.5 10.3727 7.2835 9.47729 8.25 9.47729C9.2165 9.47729 10 10.3727 10 11.4773C10 12.5819 9.2165 13.4773 8.25 13.4773ZM15.6152 13.4773C14.6487 13.4773 13.8652 12.5819 13.8652 11.4773C13.8652 10.3727 14.6487 9.47729 15.6152 9.47729C16.5817 9.47729 17.3652 10.3727 17.3652 11.4773C17.3652 12.5819 16.5817 13.4773 15.6152 13.4773Z" fill="currentColor" />
</svg>