<svg xmlns="http://www.w3.org/2000/svg" width="24" height="24" viewBox="0 0 24 24" fill="none">
    <path d="M12 1.25C17.9371 1.25 22.75 6.06294 22.75 12C22.75 17.9371 17.9371 22.75 12 22.75C6.06294 22.75 1.25 17.9371 1.25 12C1.25 6.06294 6.06294 1.25 12 1.25ZM5.43652 14.6357L5.9375 15.502C6.55194 16.564 7.43698 17.449 8.49902 18.0635L9.36523 18.5645L10.3662 16.833L9.50098 16.333C8.74155 15.8937 8.10728 15.2594 7.66797 14.5L7.16797 13.6348L5.43652 14.6357ZM12 9.25C10.4812 9.25 9.25 10.4812 9.25 12C9.25 13.5188 10.4812 14.75 12 14.75C13.5188 14.75 14.75 13.5188 14.75 12C14.75 10.4812 13.5188 9.25 12 9.25ZM13.6338 7.16895L14.499 7.66895C15.2585 8.10825 15.8927 8.74252 16.332 9.50195L16.832 10.3672L18.5635 9.36621L18.0625 8.5C17.448 7.43795 16.563 6.55292 15.501 5.93848L14.6348 5.4375L13.6338 7.16895Z" fill="currentColor" />
</svg>