<svg xmlns="http://www.w3.org/2000/svg" width="24" height="24" viewBox="0 0 24 24" fill="none">
    <path d="M19.7471 1.25L4.24707 1.25L4.24707 11.25L19.7471 11.25L19.7471 1.25ZM11.9922 7.25C11.4401 7.24979 10.9883 6.80216 10.9883 6.25C10.9883 5.69785 11.4401 5.25021 11.9922 5.25C12.5445 5.25 12.9971 5.69772 12.9971 6.25C12.9971 6.80229 12.5445 7.25 11.9922 7.25ZM19.7471 12.75L4.24707 12.75L4.24707 22.75L19.7471 22.75L19.7471 12.75ZM9.49805 17.75C8.94576 17.75 8.49317 17.3023 8.49317 16.75C8.49317 16.1977 8.94576 15.75 9.49805 15.75C10.0501 15.7502 10.502 16.1979 10.502 16.75C10.502 17.3022 10.0501 17.7498 9.49805 17.75ZM14.4961 19.75C13.944 19.7498 13.4922 19.3022 13.4922 18.75C13.4922 18.1979 13.944 17.7502 14.4961 17.75C15.0484 17.75 15.501 18.1977 15.501 18.75C15.501 19.3023 15.0484 19.75 14.4961 19.75Z" fill="currentColor" />
</svg>