<svg xmlns="http://www.w3.org/2000/svg" width="24" height="24" viewBox="0 0 24 24" fill="none">
    <path fill-rule="evenodd" clip-rule="evenodd" d="M21.5 22.75H2.5V20.75H21.5V22.75Z" fill="currentColor" />
    <path d="M19 22.75C19.4142 22.75 19.75 22.4142 19.75 22V1.25L4.25 1.25L4.25 22C4.25 22.4142 4.58579 22.75 5 22.75L19 22.75ZM7.25 4.25H16.75V13.75L7.25 13.75L7.25 4.25ZM11.25 5.75H8.75V8.25H11.25V5.75ZM15.25 5.75H12.75V8.25H15.25V5.75ZM11.25 9.75H8.75L8.75 12.25H11.25L11.25 9.75ZM15.25 9.75H12.75V12.25H15.25V9.75ZM8 18C7.44772 18 7 17.5523 7 17C7 16.4477 7.44771 16 8 16C8.55228 16 9 16.4477 9 17C9 17.5523 8.55228 18 8 18Z" fill="currentColor" />
</svg>