<svg xmlns="http://www.w3.org/2000/svg" width="24" height="24" viewBox="0 0 24 24" fill="none">
    <path fill-rule="evenodd" clip-rule="evenodd" d="M22.5 15.873H21V15.373C21 13.7162 19.6569 12.373 18 12.373C16.3431 12.373 15 13.7162 15 15.373V15.873H13.5V22.373H22.5V15.873ZM19 15.373C19 14.8208 18.5523 14.373 18 14.373C17.4477 14.373 17 14.8208 17 15.373V15.873H19V15.373Z" fill="currentColor" />
    <path fill-rule="evenodd" clip-rule="evenodd" d="M19.25 11.3099V1.62305H3.75V19.373H1.5V21.373H12.25V21.123V19.373V14.623H13.8174C14.1717 12.6337 15.9088 11.123 18 11.123C18.4351 11.123 18.8548 11.1884 19.25 11.3099ZM9.75 12.123V10.623H6.75V12.123H9.75Z" fill="currentColor" />
</svg>