<svg xmlns="http://www.w3.org/2000/svg" width="24" height="24" viewBox="0 0 24 24" fill="none">
    <path d="M13 3.01172C14.1647 3.42383 15 4.53204 15 5.83789C15 6.38394 14.8506 6.89391 14.5957 7.33496L16.8398 12.3408L15.0146 13.1582L13 8.66309C12.6869 8.77393 12.3511 8.83789 12 8.83789C11.6493 8.83789 11.3138 8.77464 11.001 8.66406L8.47559 14.2969C9.27159 14.5499 10.1176 14.7201 11 14.7939V13.3379H13V14.7939C16.0204 14.5416 18.6166 13.1601 20.2285 11.2012L20.8643 10.4297L22.4082 11.7002L21.7734 12.4727C19.7636 14.9152 16.5904 16.543 13 16.7998V18.3379H11V16.7998C9.83153 16.7161 8.70763 16.487 7.65332 16.1318L4.50488 23.1582L2.67969 22.3408L5.8125 15.3496C4.40756 14.6156 3.18605 13.6363 2.22852 12.4727L1.59375 11.7002L3.1377 10.4297L3.77344 11.2012C4.52922 12.1197 5.50198 12.9105 6.63281 13.5186L9.4043 7.33691C9.14885 6.89553 9 6.38455 9 5.83789C9 4.53204 9.83532 3.42383 11 3.01172V0.837891H13V3.01172ZM21.3223 22.3408L19.4971 23.1582L17.2949 18.2461L16.8867 17.333L18.7109 16.5156L21.3223 22.3408Z" fill="currentColor" />
</svg>