<svg xmlns="http://www.w3.org/2000/svg" width="24" height="24" viewBox="0 0 24 24" fill="none">
    <path d="M7.41895 2.76854C9.77249 2.13923 12.051 1.89455 13.583 2.12205L13.8799 2.17381L14.4854 2.29686L15.4258 5.79979C15.2567 5.80497 15.089 5.81269 14.9229 5.82127C15.0887 5.81272 15.2561 5.80594 15.4248 5.80076C15.6763 5.79305 15.9308 5.78904 16.1875 5.78904C18.7944 5.78904 21.1707 6.19343 22.5225 6.86814L22.9375 7.07518V13.539C22.9375 17.2001 20.0434 19.4315 17.8203 20.8262C17.6535 20.9308 17.3602 21.1329 17.0957 21.3174C16.9662 21.4076 16.8477 21.491 16.7617 21.5517L16.6592 21.624L16.625 21.6484L16.1875 21.9599L15.752 21.6504L15.7158 21.624L15.6133 21.5517C15.5273 21.491 15.4088 21.4076 15.2793 21.3174C15.0148 21.1329 14.7215 20.9308 14.5547 20.8262C13.7197 20.3023 12.7896 19.6605 11.9541 18.8691C11.9531 18.8682 11.9522 18.8671 11.9512 18.8662L11.1367 18.5664L10.9922 18.5137C10.6174 18.3752 9.95074 18.1282 9.70508 18.0527C7.21957 17.2895 3.74159 15.8645 2.7627 12.2197L1.0625 5.8867L1.52637 5.47654C2.69186 4.44685 4.90896 3.43973 7.41895 2.76854ZM17.3555 14.9834C17.1574 15.28 16.7371 15.539 16.1875 15.539C15.6379 15.539 15.2176 15.28 15.0195 14.9834L14.4639 14.1523L12.8008 15.2627L13.3555 16.0947C13.9558 16.9937 15.0279 17.539 16.1875 17.539C17.3471 17.539 18.4192 16.9937 19.0195 16.0947L19.5742 15.2627L17.9111 14.1523L17.3555 14.9834ZM12.8867 4.0576C11.7302 3.97489 9.94908 4.16179 7.93555 4.70018C5.92278 5.2384 4.28707 5.96404 3.32715 6.61229L4.69336 11.7012C5.3346 14.0887 7.56627 15.258 9.92383 16.0244C9.61817 15.279 9.43751 14.4536 9.4375 13.539V12.582C9.19432 12.7522 9.03227 12.9743 8.95996 13.1875L8.63965 14.1347L6.74512 13.4922L7.06641 12.5449C7.41364 11.5212 8.30768 10.7171 9.42773 10.417L9.4375 10.414V7.07518L9.85254 6.86814C10.6975 6.44638 11.9428 6.12989 13.3945 5.95213V5.95115L12.8867 4.0576ZM12.1875 10.539V12.539H15.1875V10.539H12.1875ZM17.1875 10.539V12.539H20.1875V10.539H17.1875ZM8.07324 9.22654L5.17578 10.0029L4.6582 8.07127L7.55566 7.2949L8.07324 9.22654ZM14.8682 5.8242C14.5481 5.84147 14.2341 5.86507 13.9277 5.89451C14.2341 5.86508 14.5481 5.84145 14.8682 5.8242Z" fill="currentColor" />
</svg>