<svg xmlns="http://www.w3.org/2000/svg" width="24" height="24" viewBox="0 0 24 24" fill="none">
    <path d="M16.173 15.6279L15.1915 15.0605L14.8156 15.709C14.2524 16.6821 13.2019 17.334 12.0001 17.334H11.2501V18.834H12.0001C13.7588 18.834 15.2931 17.8781 16.1134 16.4609L16.4396 15.8955L19.0929 18.5547L19.5753 19.0371L19.1407 19.5625C17.5365 21.5017 15.0792 22.834 12.0001 22.834C6.25756 22.834 2.75012 18.2296 2.75012 13.7617C2.75025 11.1692 4.31403 8.62478 6.01282 6.60156L6.54016 5.97461L16.173 15.6279ZM12.8165 1.75391C13.0558 1.93422 13.3959 2.19675 13.8029 2.5293C14.6156 3.1935 15.7022 4.1411 16.7911 5.27344C17.8777 6.40339 18.9825 7.73369 19.8195 9.16309C20.6533 10.5873 21.25 12.16 21.2501 13.7617C21.2501 14.3661 21.1865 14.9719 21.0626 15.5664L20.7794 16.9248L8.16516 4.31055L8.74622 3.78125C9.52323 3.07373 10.2252 2.49925 10.7335 2.10059C10.9878 1.9012 11.1942 1.74523 11.338 1.63867C11.4099 1.58538 11.9613 1.19409 12.0001 1.16602C12.0655 1.2136 12.6971 1.66391 12.8165 1.75391Z" fill="currentColor" />
    <path d="M22.7501 21.4199L21.3361 22.834L1.25012 2.74805L2.66418 1.33398L22.7501 21.4199Z" fill="currentColor" />
</svg>