<svg xmlns="http://www.w3.org/2000/svg" width="24" height="24" viewBox="0 0 24 24" fill="none">
    <path fill-rule="evenodd" clip-rule="evenodd" d="M2.25 7.99609C2.25 7.02572 2.63396 6.15246 3.26502 5.40271L9 11.1377L12 8.1377L15 11.1377L20.735 5.40271C21.366 6.15246 21.75 7.02572 21.75 7.99609C21.75 9.77281 20.4628 11.224 18.7285 12.1875C16.9688 13.1651 14.5882 13.7461 12 13.7461C9.4118 13.7461 7.03123 13.1651 5.27148 12.1875C3.53722 11.224 2.25 9.77281 2.25 7.99609ZM12 7.77441L16.8006 2.97378C15.3767 2.50716 13.735 2.24609 12 2.24609C10.265 2.24609 8.62329 2.50716 7.19937 2.97378L12 7.77441Z" fill="currentColor" />
    <path fill-rule="evenodd" clip-rule="evenodd" d="M8.75 14.7016V22.4281C9.77019 22.6359 10.8651 22.7476 12 22.7476C13.1349 22.7476 14.2298 22.6359 15.25 22.4281V14.7016C14.2138 14.8959 13.1203 14.9976 12 14.9976C10.8797 14.9976 9.78621 14.8959 8.75 14.7016ZM19.335 13.2818C18.5593 13.7127 17.6885 14.0694 16.75 14.344V22.0364C17.4697 21.8039 18.1345 21.519 18.7285 21.189C20.4628 20.2255 21.75 18.7743 21.75 16.9976V11.3242C21.0882 12.1303 20.2286 12.7853 19.335 13.2818ZM4.66504 13.2818C3.77138 12.7853 2.91182 12.1303 2.25 11.3242V16.9976C2.25 18.7743 3.53722 20.2255 5.27148 21.189C5.86554 21.519 6.53034 21.8039 7.25 22.0364V14.344C6.31152 14.0694 5.44068 13.7127 4.66504 13.2818Z" fill="currentColor" />
    <path d="M21.707 2.66406L15 9.37109L13.5859 7.95703L20.293 1.25L21.707 2.66406Z" fill="currentColor" />
    <path d="M10.4141 7.95703L9 9.37109L2.29297 2.66406L3.70703 1.25L10.4141 7.95703Z" fill="currentColor" />
</svg>