<svg xmlns="http://www.w3.org/2000/svg" width="24" height="24" viewBox="0 0 24 24" fill="none">
    <path d="M18.749 15.75H17.5918C18.6076 17.7606 19.8918 19.7219 21.5469 21.4873L22.7314 22.75H16.4482L16.2842 22.2236C15.6353 20.1461 13.9212 18.75 12 18.75C10.0788 18.75 8.36466 20.1461 7.71582 22.2236L7.55176 22.75H1.26855L2.45313 21.4873C4.10818 19.7219 5.39244 17.7606 6.4082 15.75H5.24902V14.25L18.749 14.25V15.75ZM17.249 11.75H15.9072C16.0517 12.1649 16.2022 12.5826 16.3652 13L7.63477 13C7.79784 12.5826 7.9483 12.1649 8.09277 11.75H6.74902L6.74902 10.25L17.249 10.25V11.75ZM12.749 3.25L13.7383 3.25L13.8604 3.85156C14.1688 5.37858 14.5363 7.13741 15.0498 9L8.9502 9C9.46374 7.13741 9.83117 5.37858 10.1396 3.85156L10.2617 3.25L11.249 3.25V1.25L12.749 1.25V3.25Z" fill="currentColor" />
</svg>