<svg xmlns="http://www.w3.org/2000/svg" width="24" height="24" viewBox="0 0 24 24" fill="none">
    <path d="M5.76321 3.20455H7.11364V9.06818H5.15909V6.47516C3.93719 7.9859 3.20455 9.9065 3.20455 12C3.20455 16.8576 7.14241 20.7955 12 20.7955C12.6035 20.7955 13.192 20.735 13.7599 20.6199L14.718 20.4252L15.1065 22.3406L14.1492 22.5353C13.4542 22.6763 12.735 22.75 12 22.75C6.06293 22.75 1.25 17.937 1.25 12C1.25 9.4009 2.17389 7.01731 3.70845 5.15909H1.25V3.20455H5.74316L5.75462 3.195L5.76321 3.20455Z" fill="currentColor" />
    <path d="M12 1.25C17.937 1.25 22.75 6.06293 22.75 12C22.75 14.5988 21.8268 16.9827 20.2925 18.8409H22.75V20.7955H16.8864V14.9318H18.8409V17.5248C20.0628 16.0141 20.7955 14.0936 20.7955 12C20.7955 7.14241 16.8576 3.20455 12 3.20455C11.3964 3.20455 10.8079 3.26491 10.2401 3.38015L9.28196 3.57484L8.89353 1.65942L9.85076 1.46473C10.5459 1.32362 11.265 1.25 12 1.25Z" fill="currentColor" />
    <path fill-rule="evenodd" clip-rule="evenodd" d="M12.9773 7.11364C14.5965 7.11364 15.9091 8.42626 15.9091 10.0455C15.9091 10.6734 15.7098 11.2538 15.3737 11.7309C15.9998 12.2686 16.3977 13.0645 16.3977 13.9545C16.3977 15.5737 15.0851 16.8864 13.4659 16.8864H12.9773V18.3523H11.0227V16.8864H8.09091V14.9318H9.55682V9.06818H8.09091V7.11364H11.0227V5.64773H12.9773V7.11364ZM11.5114 14.9318H13.4659C14.0056 14.9318 14.4432 14.4943 14.4432 13.9545C14.4432 13.4148 14.0056 12.9773 13.4659 12.9773H11.5114V14.9318ZM11.5114 11.0227H12.9773C13.517 11.0227 13.9545 10.5852 13.9545 10.0455C13.9545 9.50572 13.517 9.06818 12.9773 9.06818H11.5114V11.0227Z" fill="currentColor" />
</svg>