<svg xmlns="http://www.w3.org/2000/svg" width="24" height="24" viewBox="0 0 24 24" fill="none">
    <path d="M5.25 18.5C5.25 17.7754 5.57199 17.1896 5.93066 16.7578C6.28546 16.3308 6.7269 15.9917 7.09668 15.7383C7.49322 15.4663 7.75 15.013 7.75 14.5C7.75 13.6716 7.07842 13 6.25 13C5.42158 13 4.75 13.6716 4.75 14.5H2.75C2.75 12.567 4.31702 11 6.25 11C8.18298 11 9.75 12.567 9.75 14.5C9.75 15.7006 9.14415 16.7598 8.22656 17.3887C7.91323 17.6035 7.64885 17.8193 7.46875 18.0361C7.29259 18.2483 7.25 18.3962 7.25 18.5V19.5H5.25V18.5Z" fill="currentColor" />
    <path d="M6.25 20.75C6.80228 20.75 7.25 21.1977 7.25 21.75C7.25 22.3023 6.80228 22.75 6.25 22.75C5.69772 22.75 5.25 22.3023 5.25 21.75C5.25 21.1977 5.69771 20.75 6.25 20.75Z" fill="currentColor" />
    <path fill-rule="evenodd" clip-rule="evenodd" d="M21.25 8.62891V22.75H8.5V18.7607C8.58636 18.6766 8.72525 18.5627 8.93359 18.4199C10.176 17.5683 11 16.1308 11 14.5C11 11.8766 8.87333 9.75 6.25 9.75C5.3326 9.75 4.47621 10.0105 3.75 10.4609L3.75098 1.25H13.8613L21.25 8.62891ZM13.0625 9.45996H19.2998L13.0625 3.20508V9.45996Z" fill="currentColor" />
</svg>