<svg xmlns="http://www.w3.org/2000/svg" width="24" height="24" viewBox="0 0 24 24" fill="none">
    <path fill-rule="evenodd" clip-rule="evenodd" d="M21.25 8.62891V22.75H12.5V15.3252H11.0098C10.6494 13.4358 8.99674 12 7 12C5.66975 12 4.49444 12.6389 3.75 13.623L3.75098 1.25H13.8613L21.25 8.62891ZM13.0625 9.45996H19.2998L13.0625 3.20508V9.45996Z" fill="currentColor" />
    <path fill-rule="evenodd" clip-rule="evenodd" d="M7 13.25C8.56468 13.25 9.8328 14.5258 9.83301 16.0996V16.5752H11.25V22.75H2.75V16.5752H4.16699V16.0996C4.1672 14.5258 5.43532 13.25 7 13.25ZM7 15.1504C6.47845 15.1504 6.05566 15.576 6.05566 16.1006V16.5752H7.94434V16.1006C7.94434 15.5759 7.5216 15.1504 7 15.1504Z" fill="currentColor" />
</svg>