<svg xmlns="http://www.w3.org/2000/svg" width="24" height="24" viewBox="0 0 24 24" fill="none">
    <path fill-rule="evenodd" clip-rule="evenodd" d="M21.75 8.62891V22.75H11.9912C13.8093 21.4857 15 19.3823 15 17C15 13.134 11.866 10 8 10C6.62007 10 5.33417 10.4005 4.25 11.0898L4.25098 1.25H14.3613L21.75 8.62891ZM13.5625 9.45996H19.7998L13.5625 3.20508V9.45996Z" fill="currentColor" />
    <path d="M8 11.25C11.1756 11.25 13.75 13.8244 13.75 17C13.75 20.1756 11.1756 22.75 8 22.75C4.82436 22.75 2.25 20.1756 2.25 17C2.25 13.8244 4.82436 11.25 8 11.25ZM7.25 13.75V17.4014L9.70801 19.04L10.54 17.792L8.75 16.5986V13.75H7.25Z" fill="currentColor" />
</svg>