<svg xmlns="http://www.w3.org/2000/svg" width="24" height="24" viewBox="0 0 24 24" fill="none">
    <path d="M20.75 8.62891V22.75H3.25L3.25098 1.25H13.3613L20.75 8.62891ZM11.5 12C9.567 12 8 13.567 8 15.5C8 17.433 9.567 19 11.5 19C12.1026 19 12.669 18.8463 13.1641 18.5781L15 20.4141L16.4141 19L14.5781 17.1641C14.8463 16.669 15 16.1026 15 15.5C15 13.567 13.433 12 11.5 12ZM11.5 14C12.3284 14 13 14.6716 13 15.5C13 16.3284 12.3284 17 11.5 17C10.6716 17 10 16.3284 10 15.5C10 14.6716 10.6716 14 11.5 14ZM12.5625 9.45996H18.7998L12.5625 3.20508V9.45996Z" fill="currentColor" />
</svg>