<svg xmlns="http://www.w3.org/2000/svg" width="24" height="24" viewBox="0 0 24 24" fill="none">
    <path d="M20.75 8.62891V22.75H3.25L3.25098 1.25H13.3613L20.75 8.62891ZM10 12C8.89543 12 8 12.8954 8 14V14.5C8 14.7761 7.77614 15 7.5 15V17C7.77614 17 8 17.2239 8 17.5V18C8 19.1046 8.89543 20 10 20H11V18H10V17.5C10 16.9363 9.81083 16.4182 9.49609 16C9.81083 15.5818 10 15.0637 10 14.5V14H11V12H10ZM13 12V14H14V14.5C14 15.0635 14.1884 15.5819 14.5029 16C14.1884 16.4181 14 16.9365 14 17.5V18H13V20H14C15.1046 20 16 19.1046 16 18V17.5C16 17.2239 16.2239 17 16.5 17V15C16.2239 15 16 14.7761 16 14.5V14C16 12.8954 15.1046 12 14 12H13ZM12.5625 9.45996H18.7998L12.5625 3.20508V9.45996Z" fill="currentColor" />
</svg>