<svg xmlns="http://www.w3.org/2000/svg" width="24" height="24" viewBox="0 0 24 24" fill="none">
    <path fill-rule="evenodd" clip-rule="evenodd" d="M5.25 14.75C6.90685 14.75 8.25 16.0931 8.25 17.75V19.75C8.25 21.4069 6.90685 22.75 5.25 22.75C3.59315 22.75 2.25 21.4069 2.25 19.75V17.75C2.25 16.0931 3.59315 14.75 5.25 14.75ZM5.25 16.75C4.69772 16.75 4.25 17.1977 4.25 17.75V19.75C4.25 20.3023 4.69772 20.75 5.25 20.75C5.80228 20.75 6.25 20.3023 6.25 19.75V17.75C6.25 17.1977 5.80228 16.75 5.25 16.75Z" fill="currentColor" />
    <path d="M14.25 20.75H16.25V22.75H10.25V20.75H12.25V17.2852L10.9727 18.1367L9.86328 16.4727L12.4473 14.75H14.25V20.75Z" fill="currentColor" />
    <path fill-rule="evenodd" clip-rule="evenodd" d="M21.75 8.62891V22.75H17.5V19.5H15.5V13.5H12.0684L9.16992 15.4326L8.91602 15.6006C8.17769 14.344 6.81279 13.5 5.25 13.5C4.90549 13.5 4.57075 13.5418 4.25 13.6191L4.25098 1.25H14.3613L21.75 8.62891ZM13.5625 9.45996H19.7998L13.5625 3.20508V9.45996Z" fill="currentColor" />
</svg>