<svg xmlns="http://www.w3.org/2000/svg" width="24" height="24" viewBox="0 0 24 24" fill="none">
    <path fill-rule="evenodd" clip-rule="evenodd" d="M13.1749 16.9563C14.7291 16.2467 16.1099 15.089 17.0931 13.4877C17.3369 13.7745 17.6188 14.0881 17.9192 14.3872C18.2665 14.733 18.6574 15.0784 19.0589 15.3421C19.4432 15.5943 19.9279 15.8329 20.4443 15.8329H21.7674L21.0815 14.7018C20.6381 13.9708 20.6318 12.9424 20.9045 11.8974C21.1782 10.8486 21.6751 10.0039 21.9619 9.72019L23.25 8.44582H21.4378C20.0034 8.44582 18.8035 9.13313 17.9526 9.84958C17.6095 10.1385 17.3088 10.4441 17.0582 10.7338C13.3082 4.71736 3.9595 5.08311 0.890247 11.831L0.75 12.1394L0.890247 12.4477C2.15426 15.2267 4.49313 16.9268 7.05831 17.5393L8.00397 19.0915L8.0135 19.1056C8.42039 19.7094 9.09545 20.1083 9.97271 20.3605C10.8504 20.6127 12.0057 20.7405 13.4868 20.7471L14.2352 20.7504V20.0022C14.2352 18.9101 13.8506 17.8121 13.1749 16.9563ZM5.54926 13.0499C6.09794 13.0499 6.54273 12.6022 6.54273 12.0499C6.54273 11.4976 6.09794 11.0499 5.54926 11.0499H5.54034C4.99166 11.0499 4.54688 11.4976 4.54688 12.0499C4.54688 12.6022 4.99166 13.0499 5.54034 13.0499H5.54926Z" fill="currentColor" />
    <path d="M14.2355 4.11017V3.24959L13.3834 3.37299L13.3801 3.37352C13.2552 3.39319 12.8924 3.45039 12.6846 3.48661C12.2662 3.55954 11.6993 3.66638 11.1112 3.80141C10.5273 3.93548 9.90245 4.10182 9.376 4.2969C9.1133 4.39425 8.85672 4.50542 8.63518 4.63279C8.42802 4.75188 8.18091 4.92435 8.01379 5.17236L8.00427 5.1865L7.92766 5.31224C9.91098 5.06666 11.9573 5.37153 13.7857 6.22588C14.0795 5.54231 14.2355 4.80213 14.2355 4.11017Z" fill="currentColor" />
</svg>