<svg xmlns="http://www.w3.org/2000/svg" width="24" height="24" viewBox="0 0 24 24" fill="none">
    <path d="M8.12512 8.09091C8.12512 7.55118 7.6914 7.11364 7.15637 7.11364C6.62135 7.11364 6.18762 7.55118 6.18762 8.09091C6.18762 8.63064 6.62135 9.06818 7.15637 9.06818C7.6914 9.06818 8.12512 8.63064 8.12512 8.09091ZM10.0626 8.09091C10.0626 9.36697 9.25325 10.4491 8.12512 10.8519V15.9091C8.12512 18.6078 10.2937 20.7955 12.9689 20.7955C15.644 20.7955 17.8126 18.6078 17.8126 15.9091V13.3819L16.8439 14.3592L15.474 12.9773L19.7501 8.66353V15.9091C19.7501 19.6872 16.7141 22.75 12.9689 22.75C9.22369 22.75 6.18762 19.6872 6.18762 15.9091V10.8519C5.05949 10.4491 4.25012 9.36697 4.25012 8.09091C4.25012 6.81474 5.05934 5.73172 6.18762 5.32897V1.25H8.12512V5.32897C9.25341 5.73172 10.0626 6.81474 10.0626 8.09091Z" fill="currentColor" />
</svg>