<svg xmlns="http://www.w3.org/2000/svg" width="24" height="24" viewBox="0 0 24 24" fill="none">
    <path fill-rule="evenodd" clip-rule="evenodd" d="M20 3.94922V15H18.5V17H20V20C20 20.5523 19.5523 21 19 21C18.4477 21 18 20.5523 18 20V19H16V20C16 21.6569 17.3431 23 19 23C20.6569 23 22 21.6569 22 20V17V15V1H20.0771L2.69824 18.8887C2.25137 19.3405 2 19.9501 2 20.5859C2.00008 21.9191 3.08085 22.9999 4.41406 23C5.05428 23 5.66835 22.7456 6.12109 22.293L8.46214 19.9519C8.63664 19.9835 8.8164 20 9 20C10.6569 20 12 18.6569 12 17C12 15.713 11.1896 14.6153 10.0513 14.1894L20 3.94922ZM10 17C10 16.4477 9.55228 16 9 16C8.44772 16 8 16.4477 8 17C8 17.5523 8.44772 18 9 18C9.55228 18 10 17.5523 10 17Z" fill="currentColor" />
</svg>