<svg xmlns="http://www.w3.org/2000/svg" width="24" height="24" viewBox="0 0 24 24" fill="none">
    <path d="M20.25 14.1909C20.25 18.7799 16.5563 22.5 12 22.5C7.44365 22.5 3.75 18.7799 3.75 14.1909C3.75 10.8774 5.28613 8.93379 6.83398 7.30989C7.04835 7.085 7.25965 6.86844 7.46589 6.65709C8.7782 5.31219 9.88507 4.17782 10.2676 2.44422L10.4766 1.5L11.335 1.93277C12.0787 2.30731 13.2014 3.01601 14.1299 4.46543C14.953 5.75051 15.5911 7.56797 15.7236 10.1553C15.9433 10.0035 16.1661 9.78723 16.3857 9.50618C16.8323 8.93479 17.1507 8.25283 17.3037 7.86757L17.9238 6.30568L18.6709 7.81052C19.4433 9.36651 19.8445 10.5634 20.0479 11.5874C20.25 12.6055 20.25 13.4238 20.25 14.1763V14.1909Z" fill="currentColor" />
</svg>