<svg xmlns="http://www.w3.org/2000/svg" width="24" height="24" viewBox="0 0 24 24" fill="none">
    <path d="M8.5 3V7.80566C5.83724 9.10344 4 11.8357 4 15C4 19.4183 7.58172 23 12 23C16.4183 23 20 19.4183 20 15C20 11.8357 18.1628 9.10344 15.5 7.80566V3H17V1H15.5H13.5H10.5H8.5H7V3H8.5ZM18 15C18 15.0614 17.9991 15.1226 17.9972 15.1835C17.7045 15.2256 17.3738 15.25 17 15.25C15.7115 15.25 14.3785 14.6009 12.835 13.8291L12.7501 13.7867C11.314 13.0683 9.6782 12.25 8 12.25C7.51444 12.25 7.05619 12.2829 6.61991 12.341C7.28628 10.9951 8.44287 9.93458 9.85742 9.39355L10.5 9.14746V3H13.5V9.14746L14.1426 9.39355C16.3997 10.2568 18 12.4428 18 15Z" fill="currentColor" />
</svg>