<svg xmlns="http://www.w3.org/2000/svg" width="24" height="24" viewBox="0 0 24 24" fill="none">
    <path d="M9.37314 2.25L12.3917 6.24414H22.7501V21.75H1.25009V2.25H9.37314ZM12.0001 10C10.0671 10 8.50009 11.567 8.50009 13.5C8.50009 15.433 10.0671 17 12.0001 17C12.6027 17 13.1691 16.8463 13.6642 16.5781L15.5001 18.4141L16.9142 17L15.0782 15.1641C15.3464 14.669 15.5001 14.1026 15.5001 13.5C15.5001 11.567 13.9331 10 12.0001 10ZM12.0001 12C12.8285 12 13.5001 12.6716 13.5001 13.5C13.5001 14.3284 12.8285 15 12.0001 15C11.1717 15 10.5001 14.3284 10.5001 13.5C10.5001 12.6716 11.1717 12 12.0001 12Z" fill="currentColor" />
</svg>