<svg xmlns="http://www.w3.org/2000/svg" width="24" height="24" viewBox="0 0 24 24" fill="none">
    <path d="M9.37314 1.75L12.3917 5.74414H22.7501V13.002C21.6126 11.4868 19.7983 10.5 17.7501 10.5C17.1423 10.5 16.5553 10.5886 16.0001 10.751V10H11.5001V18.4287L12.338 19.877L12.5509 20.2188C12.8013 20.5934 13.0931 20.938 13.4171 21.25H1.25009V1.75H9.37314Z" fill="currentColor" />
    <path d="M20.7501 20.7461C19.9145 21.3744 18.8771 21.75 17.7501 21.75C15.8983 21.75 14.2831 20.7427 13.42 19.251L12.919 18.3848L14.6505 17.3838L15.1505 18.249C15.6707 19.1483 16.6409 19.75 17.7501 19.75C18.3623 19.75 18.9312 19.5654 19.4063 19.25H17.7501V17.25H22.7501V22.25H20.7501V20.7461ZM17.7501 11.75C19.6019 11.75 21.2171 12.7573 22.0802 14.249L22.5811 15.1152L20.8497 16.1162L20.3497 15.251C19.8295 14.3517 18.8593 13.75 17.7501 13.75C17.1379 13.75 16.569 13.9346 16.0938 14.25H17.7501V16.25H12.7501V11.25H14.7501V12.7529C15.5856 12.1248 16.6233 11.75 17.7501 11.75Z" fill="currentColor" />
</svg>