<svg xmlns="http://www.w3.org/2000/svg" width="24" height="24" viewBox="0 0 24 24" fill="none">
    <path d="M22.0011 18.688C22.4179 18.0569 22.7501 17.3087 22.7501 16.5063C22.75 14.9728 21.6314 13.6177 20.0001 13.6177C19.3244 13.6177 18.6892 13.8232 18.0001 14.3794C17.311 13.8232 16.6757 13.6177 16.0001 13.6177C14.3688 13.6177 13.2502 14.9728 13.2501 16.5063C13.2501 17.3087 13.5823 18.0569 13.9991 18.688C14.4201 19.3254 14.968 19.9048 15.4933 20.3862C16.0215 20.8704 16.5463 21.2735 16.9376 21.5542C17.1339 21.695 17.2988 21.8055 17.4151 21.8823C17.4734 21.9208 17.5194 21.9515 17.5518 21.9722C17.5679 21.9824 17.5809 21.9899 17.5899 21.9956L17.6007 22.0024L17.6046 22.0044L17.6056 22.0054L18.0001 22.2495L18.3946 22.0054L18.3956 22.0044L18.3995 22.0024L18.4102 21.9956C18.4193 21.9899 18.4323 21.9824 18.4483 21.9722C18.4808 21.9515 18.5268 21.9208 18.5851 21.8823C18.7014 21.8055 18.8663 21.695 19.0626 21.5542C19.4539 21.2735 19.9786 20.8704 20.5069 20.3862C21.0322 19.9048 21.5801 19.3254 22.0011 18.688Z" fill="currentColor" />
    <path d="M12.3917 5.74463L9.37314 1.75049H1.25009V21.2505H14.588C14.0373 20.7398 13.4361 20.1032 12.9561 19.3765C12.4696 18.6397 12.0001 17.6498 12.0001 16.5063C12.0002 14.3939 13.5721 12.3677 16.0001 12.3677C16.6973 12.3677 17.3562 12.5288 18.0001 12.8794C18.644 12.5288 19.3029 12.3677 20.0001 12.3677C21.124 12.3677 22.0641 12.8022 22.7501 13.478V5.74463H12.3917Z" fill="currentColor" />
</svg>