<svg xmlns="http://www.w3.org/2000/svg" width="24" height="24" viewBox="0 0 24 24" fill="none">
    <path d="M11 1.25C14.0376 1.25 16.5 3.71243 16.5 6.75V8.25H19.75L19.75 10.8691C19.4293 10.7918 19.0945 10.75 18.75 10.75C16.4028 10.75 14.5 12.6528 14.5 15V16.25H17.2461C16.8774 16.7803 16.5 17.5397 16.5 18.5L16.5 22.75L2.25 22.75L2.25 8.25H5.5V6.75C5.5 3.71243 7.96243 1.25 11 1.25ZM18.75 20.75C19.3023 20.75 19.75 21.1977 19.75 21.75C19.75 22.3023 19.3023 22.75 18.75 22.75C18.1977 22.75 17.75 22.3023 17.75 21.75C17.75 21.1977 18.1977 20.75 18.75 20.75ZM18.75 12C20.4069 12 21.75 13.3431 21.75 15C21.75 15.8666 21.3812 16.649 20.7949 17.1953C20.4609 17.5066 20.1937 17.7433 19.9883 18.0029C19.791 18.2522 19.75 18.4046 19.75 18.5V19.5H17.75L17.75 18.5C17.75 17.7672 18.0871 17.1833 18.4199 16.7627C18.7445 16.3524 19.1597 15.9848 19.4316 15.7314C19.6288 15.5476 19.75 15.2888 19.75 15C19.75 14.4477 19.3023 14 18.75 14C18.1977 14 17.75 14.4477 17.75 15H15.75C15.75 13.3431 17.0931 12 18.75 12ZM8 14.5C7.44771 14.5 7 14.9477 7 15.5C7 16.0523 7.44772 16.5 8 16.5C8.55228 16.5 9 16.0523 9 15.5C9 14.9477 8.55228 14.5 8 14.5ZM12 14.5C11.4477 14.5 11 14.9477 11 15.5C11 16.0523 11.4477 16.5 12 16.5C12.5523 16.5 13 16.0523 13 15.5C13 14.9477 12.5523 14.5 12 14.5ZM11 3.25C9.067 3.25 7.5 4.817 7.5 6.75V8.25L14.5 8.25V6.75C14.5 4.817 12.933 3.25 11 3.25Z" fill="currentColor" />
</svg>