<svg xmlns="http://www.w3.org/2000/svg" width="24" height="24" viewBox="0 0 24 24" fill="none">
    <path fill-rule="evenodd" clip-rule="evenodd" d="M18 2.25H16V9.95572L13.6836 4H7V10.25H1.25V19.75H3.35352C3.67998 20.9043 4.74122 21.75 6 21.75C7.25878 21.75 8.32002 20.9043 8.64648 19.75H11.3535C11.68 20.9043 12.7412 21.75 14 21.75C15.2588 21.75 16.32 20.9043 16.6465 19.75H22.75V17.75H18V2.25ZM15.0391 13L12.3164 6H9V13H15.0391ZM6 20.25C6.69036 20.25 7.25 19.6904 7.25 19C7.25 18.3096 6.69036 17.75 6 17.75C5.30964 17.75 4.75 18.3096 4.75 19C4.75 19.6904 5.30964 20.25 6 20.25ZM15.25 19C15.25 19.6904 14.6904 20.25 14 20.25C13.3096 20.25 12.75 19.6904 12.75 19C12.75 18.3096 13.3096 17.75 14 17.75C14.6904 17.75 15.25 18.3096 15.25 19Z" fill="currentColor" />
</svg>