<svg xmlns="http://www.w3.org/2000/svg" width="24" height="24" viewBox="0 0 24 24" fill="none">
    <path fill-rule="evenodd" clip-rule="evenodd" d="M12 22.75C17.9371 22.75 22.75 17.9371 22.75 12C22.75 6.06294 17.9371 1.25 12 1.25C6.06294 1.25 1.25 6.06294 1.25 12C1.25 17.9371 6.06294 22.75 12 22.75ZM8.375 7C9.06123 7 9.41309 7.53036 9.53418 7.77246C9.6851 8.0743 9.75 8.42131 9.75 8.75C9.75 9.07869 9.6851 9.4257 9.53418 9.72754C9.41309 9.96963 9.06123 10.5 8.375 10.5C7.68877 10.5 7.33691 9.96964 7.21582 9.72754C7.0649 9.4257 7 9.07869 7 8.75C7 8.42131 7.0649 8.0743 7.21582 7.77246C7.33691 7.53036 7.68877 7 8.375 7ZM15.625 7C16.3112 7 16.6631 7.53036 16.7842 7.77246C16.9351 8.0743 17 8.42131 17 8.75C17 9.07869 16.9351 9.4257 16.7842 9.72754C16.6631 9.96963 16.3112 10.5 15.625 10.5C14.9388 10.5 14.5869 9.96964 14.4658 9.72754C14.3149 9.4257 14.25 9.07869 14.25 8.75C14.25 8.42131 14.3149 8.0743 14.4658 7.77246C14.5869 7.53036 14.9388 7 15.625 7ZM17.4004 16.1992L16.7998 15.3994C15.7069 13.9443 13.9635 13 12 13C10.0365 13 8.29305 13.9443 7.2002 15.3994L6.59961 16.1992L8.19922 17.4004L8.7998 16.6006C9.5312 15.6268 10.6922 15 12 15C13.3078 15 14.4688 15.6268 15.2002 16.6006L15.8008 17.4004L17.4004 16.1992Z" fill="currentColor" />
</svg>