<svg xmlns="http://www.w3.org/2000/svg" width="24" height="24" viewBox="0 0 24 24" fill="none">
    <path d="M6.26514 12.2812L17.7729 12.2813V22.8242H21.7524L21.7515 22.0742L21.7495 7.67578L11.9995 1.17578L2.24756 7.67578L2.24756 22.8242H6.26514L6.26514 12.2812ZM11.9995 8.07422C11.4472 8.07422 10.9995 7.6265 10.9995 7.07422C10.9995 6.52194 11.4472 6.07422 11.9995 6.07422C12.5518 6.07422 12.9995 6.52193 12.9995 7.07422C12.9995 7.62651 12.5518 8.07422 11.9995 8.07422ZM16.2729 13.7813L7.76514 13.7812V15.2969L16.2729 15.2969V13.7813ZM16.2729 16.7969H7.76514V18.3105H16.2729V16.7969ZM16.2729 19.8105H7.76514V22.8242H16.2729V19.8105Z" fill="currentColor" />
</svg>