<svg xmlns="http://www.w3.org/2000/svg" width="24" height="24" viewBox="0 0 24 24" fill="none">
    <path d="M1 13.8008C1 7.72565 5.92487 2.80078 12 2.80078C13.5626 2.80078 15.0516 3.12748 16.4004 3.7168L17.3164 4.11719L16.5156 5.94922L15.5996 5.54883C14.4986 5.06781 13.2818 4.80078 12 4.80078C7.02944 4.80078 3 8.83022 3 13.8008C3 15.828 3.66906 17.6961 4.79883 19.2002L5.39941 20L3.7998 21.2012L3.19922 20.4014C1.81834 18.5629 1 16.2759 1 13.8008ZM21 13.8008C21 12.519 20.733 11.3022 20.252 10.2012L19.8516 9.28516L21.6836 8.48438L22.084 9.40039C22.6733 10.7492 23 12.2382 23 13.8008C23 16.2759 22.1817 18.5629 20.8008 20.4014L20.2002 21.2012L18.6006 20L19.2012 19.2002C20.3309 17.6961 21 15.828 21 13.8008Z" fill="currentColor" />
    <path d="M19 5.38672L13.2935 11.0932C12.9019 10.9058 12.4632 10.8008 12 10.8008C10.3431 10.8008 9 12.1439 9 13.8008C9 15.4576 10.3431 16.8008 12 16.8008C13.6569 16.8008 15 15.4576 15 13.8008C15 13.3376 14.895 12.8989 14.7076 12.5073L20.4141 6.80078L19 5.38672Z" fill="currentColor" />
</svg>