<svg xmlns="http://www.w3.org/2000/svg" width="24" height="24" viewBox="0 0 24 24" fill="none">
    <path d="M19.75 9.35352H22.75V11.8916L22.4658 12.1172L19.75 14.2666V14.8926C19.75 16.5165 20.361 18.0929 21.4824 19.3359L22.75 20.7402V22.2539H13C8.33241 22.2539 4.46333 18.7465 4.25977 14.2744L1.53418 12.1172L1.25 11.8916V9.35352H4.25V9.1543C4.25 5.0316 7.75651 1.75391 12 1.75391C16.2435 1.75391 19.75 5.0316 19.75 9.1543V9.35352ZM15 11.0039C15.6904 11.0039 16.25 10.4443 16.25 9.75391C16.25 9.06355 15.6904 8.50391 15 8.50391C14.3096 8.50391 13.75 9.06355 13.75 9.75391C13.75 10.4443 14.3096 11.0039 15 11.0039ZM9 11.0039C9.69036 11.0039 10.25 10.4443 10.25 9.75391C10.25 9.06355 9.69036 8.50391 9 8.50391C8.30964 8.50391 7.75 9.06355 7.75 9.75391C7.75 10.4443 8.30964 11.0039 9 11.0039Z" fill="currentColor" />
</svg>