<svg xmlns="http://www.w3.org/2000/svg" width="24" height="24" viewBox="0 0 24 24" fill="none">
    <path d="M5.41406 11.1289H7.41406V22.1289H5.41406V11.1289Z" fill="currentColor" />
    <path d="M10.8281 3.29297L7.82812 6.29297L10.8281 9.29297L9.41406 10.707L6.41406 7.70703L3.41406 10.707L2 9.29297L5 6.29297L2 3.29297L3.41406 1.87891L6.41406 4.87891L9.41406 1.87891L10.8281 3.29297Z" fill="currentColor" />
    <path d="M22 18.293C22 20.364 20.3211 22.043 18.25 22.043C16.1789 22.043 14.5 20.364 14.5 18.293C14.5 16.2219 16.1789 14.543 18.25 14.543C20.3211 14.543 22 16.2219 22 18.293Z" fill="currentColor" />
    <path d="M17.25 7.29297H11.25V5.29297H19.25V12.293H17.25V7.29297Z" fill="currentColor" />
</svg>