<svg xmlns="http://www.w3.org/2000/svg" width="24" height="24" viewBox="0 0 24 24" fill="none">
    <path d="M4 12.0039H6V22.0039H4V12.0039Z" fill="currentColor" />
    <path d="M22.75 18.0039C22.75 20.075 21.0711 21.7539 19 21.7539C16.9289 21.7539 15.25 20.075 15.25 18.0039C15.25 15.9328 16.9289 14.2539 19 14.2539C21.0711 14.2539 22.75 15.9328 22.75 18.0039Z" fill="currentColor" />
    <path d="M8.75 6.41797C8.75 8.48904 7.07107 10.168 5 10.168C2.92893 10.168 1.25 8.48904 1.25 6.41797C1.25 4.3469 2.92893 2.66797 5 2.66797C7.07107 2.66797 8.75 4.3469 8.75 6.41797Z" fill="currentColor" />
    <path d="M18 7.41797H14.4141L16.4141 9.41797L15 10.832L10.5859 6.41797L15 2.00391L16.4141 3.41797L14.4141 5.41797H20V12.418H18V7.41797Z" fill="currentColor" />
</svg>