<svg xmlns="http://www.w3.org/2000/svg" width="24" height="24" viewBox="0 0 24 24" fill="none">
    <path d="M18 7.00391H14.4141L16.4141 9.00391L15 10.418L10.5859 6.00391L15 1.58984L16.4141 3.00391L14.4141 5.00391H20V12.0039H18V7.00391Z" fill="currentColor" />
    <path d="M4 12.0039H6V17.0039H9.58594L7.58594 15.0039L9 13.5898L13.4141 18.0039L9 22.418L7.58594 21.0039L9.58594 19.0039H4V12.0039Z" fill="currentColor" />
    <path d="M22.75 18.0039C22.75 20.075 21.0711 21.7539 19 21.7539C16.9289 21.7539 15.25 20.075 15.25 18.0039C15.25 15.9328 16.9289 14.2539 19 14.2539C21.0711 14.2539 22.75 15.9328 22.75 18.0039Z" fill="currentColor" />
    <path d="M8.75 6.00391C8.75 8.07497 7.07107 9.75391 5 9.75391C2.92893 9.75391 1.25 8.07497 1.25 6.00391C1.25 3.93284 2.92893 2.25391 5 2.25391C7.07107 2.25391 8.75 3.93284 8.75 6.00391Z" fill="currentColor" />
</svg>