<svg xmlns="http://www.w3.org/2000/svg" width="24" height="24" viewBox="0 0 24 24" fill="none">
    <path d="M16.75 18.7539H13.75V16.7539H16.75V13.7539H18.75V16.7539H21.75V18.7539H18.75V21.7539H16.75V18.7539Z" fill="currentColor" />
    <path d="M5 14.3898C4.38105 14.5612 3.8108 14.8904 3.34863 15.3525C2.64537 16.0558 2.25 17.0093 2.25 18.0039C2.25 18.9985 2.64537 19.952 3.34863 20.6553C4.05189 21.3585 5.00544 21.7539 6 21.7539C6.99456 21.7539 7.94811 21.3585 8.65137 20.6553C9.35463 19.952 9.75 18.9985 9.75 18.0039C9.75 17.0093 9.35463 16.0558 8.65137 15.3525C8.19495 14.8961 7.63313 14.5694 7.02308 14.3963C7.16764 12.4967 7.98636 10.7031 9.34277 9.34668C10.6992 7.99027 12.4928 7.17155 14.3924 7.02699C14.5655 7.63703 14.8922 8.19886 15.3486 8.65527C16.0519 9.35853 17.0054 9.75391 18 9.75391C18.9946 9.75391 19.9481 9.35853 20.6514 8.65527C21.3546 7.95201 21.75 6.99847 21.75 6.00391C21.75 5.00934 21.3546 4.0558 20.6514 3.35254C19.9481 2.64928 18.9946 2.25391 18 2.25391C17.0054 2.25391 16.0519 2.64928 15.3486 3.35254C14.8817 3.81947 14.5505 4.39674 14.3806 5.02308C11.9544 5.17352 9.65756 6.20377 7.92871 7.93262C7.59223 8.26909 7.28222 8.62709 7 9.00337V2.25391H5V14.3898Z" fill="currentColor" />
</svg>