<svg xmlns="http://www.w3.org/2000/svg" width="24" height="24" viewBox="0 0 24 24" fill="none">
    <path d="M18.9316 15.7539L21.0248 17.8471C21.4481 17.1947 21.8025 16.4936 22.0778 15.7539H18.9316Z" fill="currentColor" />
    <path d="M16.6934 13.5157L17.4316 14.2539H22.5142C22.6687 13.5283 22.75 12.7756 22.75 12.0039C22.75 11.2322 22.6687 10.4795 22.5142 9.75391H16.6244C16.705 10.475 16.75 11.2261 16.75 12.0044C16.75 12.5204 16.7302 13.0244 16.6934 13.5157Z" fill="currentColor" />
    <path d="M12.9316 9.75391L15.2499 12.0721L15.25 12.0044C15.25 11.2241 15.2011 10.4728 15.1143 9.75391H12.9316Z" fill="currentColor" />
    <path d="M9.59358 6.41585L11.4316 8.25391H14.8722C14.5038 6.43292 13.9141 4.86839 13.3229 3.62686C13.234 3.44028 13.1452 3.25167 13.0572 3.06474C12.7332 2.37677 12.42 1.71167 12.1557 1.25501C12.1039 1.25428 12.052 1.25391 12 1.25391C11.948 1.25391 11.8961 1.25428 11.8443 1.25501C11.58 1.71168 11.2668 2.37677 10.9428 3.06477C10.8548 3.25168 10.766 3.44029 10.6771 3.62686C10.2957 4.42799 9.91478 5.36361 9.59358 6.41585Z" fill="currentColor" />
    <path d="M6.15683 2.9791L8.4037 5.22597C8.69066 4.39633 9.00694 3.64538 9.32285 2.98196C9.39607 2.82821 9.46931 2.67349 9.5422 2.51949C9.72041 2.14301 9.89665 1.7707 10.0655 1.4275C8.64582 1.68548 7.32334 2.22228 6.15683 2.9791Z" fill="currentColor" />
    <path d="M1.25 12.0039C1.25 11.2322 1.33131 10.4795 1.48584 9.75391H7.37557C7.29499 10.475 7.25 11.2261 7.25 12.0044C7.25 12.7824 7.29495 13.5331 7.37546 14.2539H1.48584C1.33131 13.5283 1.25 12.7756 1.25 12.0039Z" fill="currentColor" />
    <path d="M22.0778 8.25391H16.4004C16.0091 6.16356 15.3423 4.37877 14.6771 2.98196C14.6039 2.82821 14.5307 2.67349 14.4578 2.51949C14.2796 2.14296 14.1034 1.77076 13.9345 1.42751C17.695 2.11087 20.7737 4.75056 22.0778 8.25391Z" fill="currentColor" />
    <path d="M7.59944 15.7539H1.92217C3.22627 19.2572 6.30481 21.8968 10.0652 22.5803C9.8953 22.235 9.71798 21.8605 9.53862 21.4817C9.46691 21.3303 9.39487 21.1781 9.32285 21.0269C8.6576 19.6298 7.99073 17.8447 7.59944 15.7539Z" fill="currentColor" />
    <path d="M14.7777 16.1957L16.0143 17.4323C15.6369 18.8115 15.1566 20.02 14.6771 21.0269C14.6051 21.1781 14.5331 21.3303 14.4614 21.4818C14.282 21.8605 14.1047 22.2351 13.9348 22.5803C15.7857 22.2439 17.4714 21.4335 18.8616 20.2796L21.293 22.7109L22 23.418L22.707 22.7109L23.4141 22.0039L22.707 21.2969L2.70667 1.29652L2 0.589844L1.29297 1.29688L0.585938 2.00391L1.29297 2.71094L3.72432 5.14229C2.96041 6.06261 2.34709 7.11241 1.92217 8.25391H6.83594L8.83239 10.2504C8.77915 10.8167 8.75 11.4019 8.75 12.0044C8.75 12.7844 8.79885 13.5353 8.88557 14.2539L12.8359 14.2539L14.3359 15.7539H9.12759C9.49599 17.5753 10.0858 19.1402 10.6771 20.382C10.765 20.5665 10.853 20.7532 10.94 20.938C11.265 21.6279 11.5792 22.295 11.8443 22.7528C11.8961 22.7535 11.948 22.7539 12 22.7539C12.052 22.7539 12.1039 22.7535 12.1557 22.7528C12.4208 22.295 12.735 21.6279 13.06 20.9379C13.1471 20.7531 13.235 20.5665 13.3229 20.382C13.8658 19.2418 14.4075 17.8292 14.7777 16.1957Z" fill="currentColor" />
</svg>