<svg xmlns="http://www.w3.org/2000/svg" width="24" height="24" viewBox="0 0 24 24" fill="none">
    <path d="M22.75 2.66406L20 5.41406L22.75 8.16406L21.3359 9.57812L18.5859 6.82812L15.8359 9.57812L14.4219 8.16406L17.1719 5.41406L14.4219 2.66406L15.8359 1.25L18.5859 4L21.3359 1.25L22.75 2.66406Z" fill="currentColor" />
    <path d="M12 3.20455C11.8156 3.20455 11.5412 3.29394 11.1888 3.66646C10.8343 4.04131 10.4692 4.63692 10.1428 5.45304C9.57477 6.87336 9.17946 8.81778 9.08822 11.0227H22.75V12C22.75 17.9371 17.9371 22.75 12 22.75C6.06294 22.75 1.25 17.9371 1.25 12C1.25 6.06294 6.06294 1.25 12 1.25V3.20455ZM9.08822 12.9773C9.17946 15.1822 9.57477 17.1266 10.1428 18.547C10.4692 19.3631 10.8343 19.9587 11.1888 20.3335C11.5412 20.7061 11.8156 20.7955 12 20.7955C12.1844 20.7955 12.4588 20.7061 12.8112 20.3335C13.1657 19.9587 13.5308 19.3631 13.8572 18.547C14.4252 17.1266 14.8205 15.1822 14.9118 12.9773H9.08822ZM3.2599 12.9773C3.62218 16.2539 5.78371 18.9855 8.73511 20.1665C8.58947 19.8835 8.4532 19.5849 8.32855 19.2732C7.65455 17.5882 7.22479 15.3883 7.13272 12.9773H3.2599ZM16.8673 12.9773C16.7752 15.3883 16.3455 17.5882 15.6715 19.2732C15.5467 19.585 15.4097 19.8834 15.2639 20.1665C18.2158 18.9857 20.3778 16.2542 20.7401 12.9773H16.8673ZM8.73511 3.83252C5.78354 5.01345 3.62219 7.74602 3.2599 11.0227H7.13272C7.22479 8.61166 7.65455 6.41178 8.32855 4.72676C8.45331 4.41486 8.58932 4.1158 8.73511 3.83252Z" fill="currentColor" />
</svg>