<svg xmlns="http://www.w3.org/2000/svg" width="24" height="24" viewBox="0 0 24 24" fill="none">
    <path d="M18.0791 12.2236L17.8799 13.2031C17.3239 15.9422 14.9039 18.0049 12 18.0049C8.68643 18.0049 6.00022 15.3184 6 12.0049C6 9.10104 8.06177 6.68011 10.8008 6.12402L11.7812 5.92578L12.1787 7.88574L11.1992 8.08496C9.37385 8.45549 8 10.0709 8 12.0049C8.00022 14.2138 9.791 16.0049 12 16.0049C13.934 16.0049 15.5493 14.631 15.9199 12.8057L16.1191 11.8252L18.0791 12.2236Z" fill="currentColor" />
    <path d="M1 12.0039C1 5.92877 5.92487 1.00391 12 1.00391H13V3.00391H12C7.02944 3.00391 3 7.03334 3 12.0039C3 16.9745 7.02944 21.0039 12 21.0039C16.9706 21.0039 21 16.9745 21 12.0039V11.0039H23V12.0039C23 18.079 18.0751 23.0039 12 23.0039C5.92487 23.0039 1 18.079 1 12.0039Z" fill="currentColor" />
    <path d="M14.9141 10.5039L12 13.418L10.5859 12.0039L13.5 9.08984V5.08984L17.5859 1.00391H19.3467L19.8682 4.13477L23 4.65723V6.41797L18.9141 10.5039H14.9141Z" fill="currentColor" />
</svg>