<svg xmlns="http://www.w3.org/2000/svg" width="24" height="24" viewBox="0 0 24 24" fill="none">
    <path d="M14.6162 4.05566L13.8184 4.85352L16.75 7.78516V10.1035H20.6641L22.5605 12L12 22.5605L1.43945 12L12 1.43945L14.6162 4.05566ZM12 9C10.3431 9 9 10.3431 9 12C9 13.6569 10.3431 15 12 15C13.6569 15 15 13.6569 15 12C15 10.3431 13.6569 9 12 9Z" fill="currentColor" />
    <path d="M17 6.26758L18 5.26758V8.85352H20V5.26758L21 6.26758L22.4141 4.85352L19 1.43945L15.5859 4.85352L17 6.26758Z" fill="currentColor" />
</svg>