<svg xmlns="http://www.w3.org/2000/svg" width="24" height="24" viewBox="0 0 24 24" fill="none">
    <path fill-rule="evenodd" clip-rule="evenodd" d="M12 1.25C7.71979 1.25 4.25 4.71979 4.25 9C4.25 13.2802 7.71979 16.75 12 16.75C16.2802 16.75 19.75 13.2802 19.75 9C19.75 4.71979 16.2802 1.25 12 1.25ZM10.0078 8C10.5601 8 11.0078 7.55228 11.0078 7C11.0078 6.44772 10.5601 6 10.0078 6H9.99883C9.44655 6 8.99883 6.44771 8.99883 7C8.99883 7.55228 9.44655 8 9.99883 8H10.0078Z" fill="currentColor" />
    <path d="M9 17.75C10.2004 17.75 11.2696 18.3614 12 19.3799C12.7304 18.3614 13.7996 17.75 15 17.75H16V19.75H15C14.2247 19.75 13 20.574 13 22.75H11C11 20.574 9.77525 19.75 9 19.75H8V17.75H9Z" fill="currentColor" />
</svg>