<svg xmlns="http://www.w3.org/2000/svg" width="24" height="24" viewBox="0 0 24 24" fill="none">
    <path d="M13.623 4.12695C13.2922 4.45781 13.0076 4.79999 12.7628 5.1438C12.2062 3.60421 10.7316 2.50391 9 2.50391H8V4.50391H9C10.1046 4.50391 11 5.39934 11 6.50391V8.56661C10.2984 8.05548 9.43444 7.75391 8.5 7.75391C6.15279 7.75391 4.25 9.6567 4.25 12.0039C4.25 14.2275 5.9576 16.0522 8.13298 16.2383C7.88706 16.776 7.75 17.374 7.75 18.0039C7.75 20.3511 9.65279 22.2539 12 22.2539C14.3472 22.2539 16.25 20.3511 16.25 18.0039C16.25 17.374 16.1129 16.776 15.867 16.2383C18.0424 16.0522 19.75 14.2275 19.75 12.0039C19.75 10.2455 18.6822 8.73658 17.1596 8.09014C17.2325 8.02253 17.305 7.95279 17.377 7.88086C18.5663 6.69156 19.1577 5.35575 19.4521 4.3252C19.5995 3.80935 19.6734 3.3652 19.7109 3.0459C19.7298 2.88598 19.7401 2.75637 19.7451 2.66406C19.7473 2.6243 19.7481 2.59077 19.7487 2.56509L19.749 2.55371L19.7495 2.53742L19.75 2.52148V2.50488V1.75391H18.999H18.9824L18.9665 1.75436L18.9502 1.75488L18.9389 1.75517C18.9131 1.75581 18.8798 1.75663 18.8398 1.75879C18.7475 1.76378 18.6179 1.77416 18.458 1.79297C18.1387 1.83054 17.6946 1.90439 17.1787 2.05176C16.1482 2.3462 14.8123 2.93765 13.623 4.12695Z" fill="currentColor" />
</svg>