<svg xmlns="http://www.w3.org/2000/svg" width="24" height="24" viewBox="0 0 24 24" fill="none">
    <path fill-rule="evenodd" clip-rule="evenodd" d="M18.9243 8.21484L22.9849 4.1543L19.9243 1.09375L15.8638 5.1543L16.6875 5.97803L14.4711 8.19442C13.2968 7.11132 12.3467 6.50853 11.5249 6.25141C10.4836 5.92564 9.72145 6.17638 9.13136 6.51703C8.42174 6.92681 7.82018 7.68843 7.39699 8.7602C7.15524 9.37212 6.67452 9.80674 6.10695 9.92817C5.01434 10.1619 3.52889 10.6333 2.45265 11.7094C1.43189 12.7302 0.83623 13.9538 1.06398 15.434C1.28167 16.8485 2.23363 18.3479 3.90285 20.017C5.57219 21.6862 7.07219 22.6383 8.48683 22.8559C9.96707 23.0835 11.1906 22.4879 12.2114 21.4672C13.2877 20.391 13.7589 18.9055 13.9927 17.8129C14.1142 17.2455 14.5486 16.7646 15.1607 16.5229C16.2326 16.0997 16.994 15.4982 17.4038 14.7885C17.7445 14.1985 17.9952 13.4371 17.6695 12.3959C17.4246 11.6133 16.8662 10.7141 15.8779 9.61582L18.1016 7.39209L18.9243 8.21484ZM12.5474 11.5322C11.7566 10.7415 10.4739 10.7415 9.68312 11.5322C8.8925 12.323 8.89236 13.6048 9.68312 14.3955C10.4739 15.1863 11.7566 15.1863 12.5474 14.3955C13.3378 13.6048 13.3377 12.323 12.5474 11.5322ZM11.1039 12.9433C11.0999 12.947 11.0912 12.9597 11.0912 12.9597C11.091 12.9651 11.0959 12.9784 11.0959 12.9784C11.0996 12.9824 11.1101 12.9874 11.1101 12.9874C11.1155 12.9876 11.1245 12.9873 11.1245 12.9873C11.1282 12.9837 11.1384 12.9684 11.1384 12.9684C11.1386 12.9629 11.1336 12.9493 11.1336 12.9493L11.1245 12.9404C11.1245 12.9404 11.1093 12.9431 11.1039 12.9433ZM8.21535 18.7256L9.63039 17.3115L6.76613 14.4482L5.35207 15.8623L8.21535 18.7256Z" fill="currentColor" />
</svg>