<svg xmlns="http://www.w3.org/2000/svg" width="24" height="24" viewBox="0 0 24 24" fill="none">
    <path d="M10.1865 2.25C12.5069 2.25007 14.7322 3.17184 16.373 4.8125L19.0605 7.5L18.0605 8.5L19 9.43945L20 8.43945L22.75 11.1895V12.8105L18.8105 16.75H17.1895L14.4395 14L15.4395 13L14.5 12.0605L13 13.5605L9.43945 10L9.96973 9.46973C11.0575 8.38191 11.0575 6.61809 9.96973 5.53027L6.68945 2.25H10.1865Z" fill="currentColor" />
    <path d="M12.1162 14.4457L11.0557 13.3851L9.61621 11.9457L8.55566 10.8851L1.9873 17.4535C1.51525 17.9256 1.25 18.5661 1.25 19.2337C1.2501 20.6241 2.3772 21.7512 3.76758 21.7513C4.43524 21.7513 5.0757 21.4861 5.54785 21.014L12.1162 14.4457Z" fill="currentColor" />
</svg>