<svg xmlns="http://www.w3.org/2000/svg" width="24" height="24" viewBox="0 0 24 24" fill="none">
    <path d="M13.0828 16.1864C13.4531 16.2837 13.8351 16.3333 14.2184 16.3333C14.6279 16.3333 15.0361 16.2767 15.4299 16.1658L20.5055 14.7367C20.6829 14.6868 20.8056 14.5265 20.8056 14.3446C20.8054 14.1198 20.6206 13.9376 20.3926 13.9375H14V13.9347C13.2034 13.9231 12.4151 13.7699 11.6748 13.478L9.33352 12.5543L10.056 10.7752L12.3974 11.698C12.9376 11.911 13.514 12.0208 14.0959 12.0208H14.7225C14.8604 12.0208 14.9722 11.9106 14.9722 11.7747C14.9722 11.4355 14.7672 11.1289 14.451 10.9951L9.85666 9.05412C9.2516 8.79851 8.59994 8.66668 7.94165 8.66667H5.25V6.75H7.94165C8.86327 6.75001 9.77575 6.93495 10.6229 7.29281L15.2162 9.23287C16.2476 9.66858 16.9167 10.6686 16.9167 11.7747C16.9167 11.858 16.9108 11.94 16.9015 12.0208H20.3926C21.6945 12.021 22.7499 13.0613 22.75 14.3446C22.75 15.3822 22.0522 16.2944 21.0401 16.5795L15.9634 18.0095C15.3961 18.1692 14.8084 18.25 14.2184 18.25C13.6661 18.25 13.1162 18.1788 12.5825 18.0385L5.39906 16.1508L5.90036 14.2987L13.0828 16.1864Z" fill="currentColor" />
    <path d="M6.75 17.25V5.75H1.25V17.25H6.75Z" fill="currentColor" />
</svg>