<svg xmlns="http://www.w3.org/2000/svg" width="24" height="24" viewBox="0 0 24 24" fill="none">
    <path d="M23.1273 6.22803L22.3255 6.72705C20.8922 7.61958 20.1802 8.47759 19.6585 9.27197C19.3704 9.71074 19.184 10.0572 18.9036 10.5063C18.6443 10.9218 18.3488 11.3468 17.9495 11.7456L17.9417 11.7544C17.4632 12.2179 16.6148 12.9148 15.6556 13.5269C14.7154 14.1268 13.5705 14.7091 12.5179 14.8354L12.1556 14.8784L11.3353 14.0581L8.0472 17.3462C8.44037 17.9897 8.66729 18.7459 8.66732 19.5552C8.66732 20.7423 8.17893 21.8171 7.39388 22.5864L6.86361 23.106L6.3392 22.5806L0.873375 17.1157L1.39291 16.5854C2.1622 15.8004 3.23704 15.312 4.42416 15.312C5.23348 15.312 5.98965 15.5389 6.63314 15.9321L9.92123 12.6431L9.14095 11.8628L9.18392 11.5015C9.30935 10.4576 9.86806 9.30641 10.4515 8.354C11.0446 7.38582 11.7274 6.52201 12.1986 6.03564L12.2064 6.02783C12.6089 5.62494 13.0426 5.33054 13.4661 5.07471C13.9318 4.7935 14.2702 4.62081 14.7249 4.3335C15.5338 3.82245 16.4033 3.12323 17.2923 1.6958L17.7913 0.894043L23.1273 6.22803ZM14.4281 8.58936C13.8758 8.58936 13.4281 9.03707 13.4281 9.58936C13.4281 10.1416 13.8758 10.5894 14.4281 10.5894C14.9803 10.5894 15.4281 10.1416 15.4281 9.58936C15.4281 9.03707 14.9803 8.58936 14.4281 8.58936Z" fill="currentColor" />
</svg>