<svg xmlns="http://www.w3.org/2000/svg" width="24" height="24" viewBox="0 0 24 24" fill="none">
    <path d="M22.75 12.832V21.75H1.26758L1.25 12.9766V12.833L1.29102 12.6953L4.43164 2.25H19.5684L22.75 12.832ZM14 15.7695C13.4477 15.7695 13 16.2172 13 16.7695C13 17.3218 13.4477 17.7695 14 17.7695C14.5523 17.7695 15 17.3218 15 16.7695C15 16.2172 14.5523 15.7695 14 15.7695ZM18 15.7695C17.4477 15.7695 17 16.2172 17 16.7695C17 17.3218 17.4477 17.7695 18 17.7695C18.5523 17.7695 19 17.3218 19 16.7695C19 16.2172 18.5523 15.7695 18 15.7695ZM3.4668 12.2393L20.5342 12.248L18.1133 4.19922H5.88672L3.4668 12.2393Z" fill="currentColor" />
</svg>