<svg xmlns="http://www.w3.org/2000/svg" width="24" height="24" viewBox="0 0 24 24" fill="none">
    <path d="M7.17676 2.25L10.1768 3.75H10.8994L16.3994 2.25H17.541L20.0261 9.70535C20.5167 9.5684 20.9947 9.3845 21.4531 9.15527L22.4473 8.6582L23.3418 10.4473L22.3477 10.9443C20.9591 11.6386 19.4275 12 17.875 12H6.125C4.57255 12 3.0409 11.6386 1.65234 10.9443L0.658203 10.4473L1.55273 8.6582L2.54688 9.15527C2.99425 9.37896 3.46018 9.55948 3.9383 9.69533L5.92383 2.25H7.17676Z" fill="currentColor" />
    <path d="M9.97075 15.7112C9.28501 14.8225 8.20936 14.25 7 14.25C4.92893 14.25 3.25 15.9289 3.25 18C3.25 20.0711 4.92893 21.75 7 21.75C8.98706 21.75 10.6132 20.2045 10.7418 18.25C10.7418 17.5596 11.3096 17 12 17C12.6904 17 13.25 17.5596 13.25 18.25C13.3626 19.9602 14.6279 21.3572 16.2736 21.6798C16.5087 21.7259 16.7516 21.75 17 21.75C19.0711 21.75 20.75 20.0711 20.75 18C20.75 15.9289 19.0711 14.25 17 14.25C15.7906 14.25 14.715 14.8225 14.0293 15.7112C13.4732 15.2662 12.7677 15 12 15C11.2323 15 10.5268 15.2662 9.97075 15.7112Z" fill="currentColor" />
</svg>