<svg xmlns="http://www.w3.org/2000/svg" width="24" height="24" viewBox="0 0 24 24" fill="none">
    <path d="M15 11.9922C15 10.3353 13.6569 8.99219 12 8.99219C10.3431 8.99219 9 10.3353 9 11.9922C9 12.5401 9.14585 13.051 9.40039 13.4912L9.90137 14.3574L8.16992 15.3584L7.66992 14.4932C7.24391 13.7567 7 12.9012 7 11.9922C7 9.23076 9.23858 6.99219 12 6.99219C14.7614 6.99219 17 9.23076 17 11.9922C17 12.9012 16.7561 13.7567 16.3301 14.4932L15.8301 15.3584L14.0986 14.3574L14.5996 13.4912C14.8542 13.051 15 12.5401 15 11.9922Z" fill="currentColor" />
    <path d="M21 17V19H3V17H21Z" fill="currentColor" />
    <path d="M18 21V23H6V21H18Z" fill="currentColor" />
    <path d="M5 10.9951V12.9951H1V10.9951H5ZM23 10.9951V12.9951H19V10.9951H23ZM7.75391 6.34863L6.33984 7.7627L3.51074 4.93457L4.92578 3.51953L7.75391 6.34863ZM20.4814 4.92578L17.6533 7.75488L16.2393 6.34082L19.0674 3.51172L20.4814 4.92578ZM10.9951 1H12.9951V5H10.9951V1Z" fill="currentColor" />
</svg>