<svg xmlns="http://www.w3.org/2000/svg" width="24" height="24" viewBox="0 0 24 24" fill="none">
    <path d="M12 2.25024C13.6916 2.25024 15.2823 2.6818 16.6689 3.4397L15.2148 4.8938C14.2344 4.44957 13.1465 4.20044 12 4.20044C7.69218 4.20044 4.2002 7.69242 4.2002 12.0002C4.2002 12.6097 4.288 13.3671 4.43066 14.1448C4.79292 13.8141 5.22824 13.5517 5.72363 13.387L5.73926 13.3811L5.75488 13.3772L7.39258 12.9104L10.209 20.968L8.43457 21.5637L8.43262 21.5647C6.59804 22.1746 4.6235 21.2281 3.93164 19.4456L3.43457 17.9573C3.40194 17.8587 3.37439 17.7596 3.35059 17.6604L3.19238 17.1838L3.00586 16.5852C2.58183 15.1351 2.25 13.3445 2.25 12.0002C2.25 6.61547 6.61522 2.25024 12 2.25024ZM20.5586 7.32739C21.3178 8.71496 21.75 10.307 21.75 12.0002C21.75 13.5367 21.3169 15.656 20.8076 17.1838L20.6484 17.6604C20.6246 17.7595 20.598 17.8588 20.5654 17.9573L20.0684 19.4456C19.3765 21.2281 17.402 22.1746 15.5674 21.5647L15.5654 21.5637L13.791 20.968L16.6074 12.9104L18.2451 13.3772L18.2607 13.3811L18.2764 13.387C18.7715 13.5516 19.2062 13.8143 19.5684 14.1448C19.711 13.367 19.7998 12.6097 19.7998 12.0002C19.7998 10.8524 19.5488 9.76385 19.1035 8.78247L20.5586 7.32739ZM21.75 3.66431L14.8359 10.5784L11.4219 7.16431L12.8359 5.75024L14.8359 7.75024L20.3359 2.25024L21.75 3.66431Z" fill="currentColor" />
</svg>