<svg xmlns="http://www.w3.org/2000/svg" width="24" height="24" viewBox="0 0 24 24" fill="none">
    <path d="M5 18.75H7V22.75H5V18.75ZM17 18.75H19V22.75H17V18.75Z" fill="currentColor" />
    <path d="M10.3662 2.11621L10.8662 1.25H8.55853C8.10789 2.07361 7.93856 2.80982 8.0195 3.51172C8.10085 4.21615 8.42978 4.7629 8.63376 5.11621C8.86266 5.51268 8.96714 5.71637 8.99411 5.94922C9.01694 6.14688 8.99274 6.49445 8.63376 7.11621L8.13376 7.98242H10.4414C10.8921 7.15881 11.0614 6.4226 10.9804 5.7207C10.8991 5.01627 10.5702 4.46952 10.3662 4.11621C10.1373 3.71974 10.0328 3.51605 10.0058 3.2832C9.98301 3.08554 10.0072 2.73797 10.3662 2.11621Z" fill="currentColor" />
    <path d="M15.3662 2.11621L15.8662 1.25H13.5585C13.1079 2.07361 12.9386 2.80982 13.0195 3.51172C13.1008 4.21615 13.4298 4.7629 13.6338 5.11621C13.8627 5.51268 13.9671 5.71637 13.9941 5.94922C14.0169 6.14688 13.9927 6.49445 13.6338 7.11621L13.1338 7.98242H15.4414C15.8921 7.15881 16.0614 6.4226 15.9804 5.7207C15.8991 5.01627 15.5702 4.46952 15.3662 4.11621C15.1373 3.71974 15.0328 3.51605 15.0058 3.2832C14.983 3.08554 15.0072 2.73797 15.3662 2.11621Z" fill="currentColor" />
    <path d="M5.96875 9.23242H16.1826L16.5381 8.58203C16.7795 8.14075 16.9617 7.69655 17.083 7.25H21.75V20.75H2.25V7.25H7.11328L5.96875 9.23242ZM7 11V17H9V11H7ZM11 11V17H13V11H11ZM15 11V17H17V11H15Z" fill="currentColor" />
</svg>