<svg xmlns="http://www.w3.org/2000/svg" width="24" height="24" viewBox="0 0 24 24" fill="none">
    <path d="M20 11.999C20 7.58075 16.4183 3.99903 12 3.99902C10.2944 3.99902 8.62406 4.65439 7.25293 5.67578C6.34778 6.35007 5.60574 7.16154 5.08203 7.99902H8.5V9.99902H2V2.99902H4V6.06738C4.58108 5.33091 5.27898 4.65236 6.05762 4.07227C7.7068 2.84371 9.78696 1.99902 12 1.99902C17.5228 1.99903 22 6.47618 22 11.999C22 17.5219 17.5228 21.999 12 21.999C7.63009 21.999 3.91713 19.1966 2.55566 15.2939L2.22656 14.3496L4.11523 13.6914L4.44434 14.6348C5.53433 17.7592 8.50688 19.999 12 19.999C16.4183 19.999 20 16.4173 20 11.999Z" fill="currentColor" />
    <path d="M11 5.99902H13V11.4639L16.3867 13.7217L15.2773 15.3857L11 12.5342V5.99902Z" fill="currentColor" />
</svg>