<svg xmlns="http://www.w3.org/2000/svg" width="24" height="24" viewBox="0 0 24 24" fill="none">
    <path d="M12.0002 17.7656C12.1665 17.907 12.3408 18.0505 12.5236 18.1895C13.2772 18.7621 14.2527 19.3638 15.3644 19.7139C14.7121 20.668 13.7231 21.7777 12.3859 22.5801L12.0002 22.8115L11.6144 22.5801C10.2773 21.7778 9.28727 20.6689 8.63492 19.7148C9.74756 19.3648 10.7236 18.7625 11.4777 18.1895C11.6605 18.0505 11.8338 17.907 12.0002 17.7656Z" fill="currentColor" />
    <path d="M7.95132 13.1924C8.19804 13.6275 8.46764 14.0305 8.73941 14.3916C9.43811 15.3199 10.2062 16.0647 10.7502 16.5L11.1681 16.834C11.025 16.9549 10.8768 17.0777 10.7209 17.1963C9.89059 17.8273 8.83705 18.4407 7.69254 18.6719L7.34683 18.7412L7.07242 18.5195C6.2813 17.8801 5.07014 16.2663 4.80386 13.9043C5.90262 13.8168 6.95075 13.5515 7.92007 13.1377L7.95132 13.1924Z" fill="currentColor" />
    <path d="M17.7296 17.667C17.4488 18.0374 17.1694 18.3243 16.9279 18.5195L16.6535 18.7412L16.3078 18.6719C15.1633 18.4407 14.1097 17.8273 13.2794 17.1963C13.1231 17.0774 12.9737 16.9553 12.8302 16.834L13.2502 16.499C13.7029 16.1367 14.3094 15.5592 14.9035 14.8408L17.7296 17.667Z" fill="currentColor" />
    <path d="M14.0158 13.9531C13.4533 14.6478 12.8741 15.1992 12.4689 15.5234L12.0002 15.8984L11.5314 15.5234C11.0669 15.1518 10.3727 14.4823 9.73843 13.6396C9.49501 13.3162 9.25523 12.9588 9.03824 12.5762C9.78194 12.1409 10.4624 11.6105 11.0675 11.0049L14.0158 13.9531Z" fill="currentColor" />
    <path d="M17.1056 13.5078C17.7753 13.7105 18.4741 13.8468 19.1955 13.9043C19.1387 14.4077 19.0367 14.8763 18.9074 15.3096L17.1056 13.5078Z" fill="currentColor" />
    <path d="M10.1847 10.1221C8.60189 11.7061 6.41663 12.6875 4.00015 12.6875H3.25015V11.9375C3.25015 9.52081 4.23056 7.33452 5.81461 5.75195L10.1847 10.1221Z" fill="currentColor" />
    <path d="M12.9962 3.24707C17.3595 3.74163 20.7502 7.44194 20.7502 11.9375V12.6875H20.0002C16.4295 12.6875 13.3605 10.5478 12.0002 7.48145C11.9069 7.69157 11.8043 7.89662 11.6955 8.09766L7.84 4.24219C8.7985 3.72345 9.86431 3.37738 10.9962 3.24805V1.1875H12.9962V3.24707Z" fill="currentColor" />
    <path d="M22.7501 21.2734L21.336 22.6875L1.25009 2.60156L2.66415 1.1875L22.7501 21.2734Z" fill="currentColor" />
</svg>