<svg xmlns="http://www.w3.org/2000/svg" width="24" height="24" viewBox="0 0 24 24" fill="none">
    <path d="M17.75 21.75H14.75V18C14.75 16.4812 13.5188 15.25 12 15.25C10.4812 15.25 9.25 16.4812 9.25 18V21.75H6.25V2.25H17.75V21.75ZM12 16.75C12.6904 16.75 13.25 17.3096 13.25 18V21.75H10.75V18C10.75 17.3096 11.3096 16.75 12 16.75ZM11.251 6.25V8.24512H9.25586V9.74512H11.251V11.75H12.751V9.74512H14.7559V8.24512H12.751V6.25H11.251Z" fill="currentColor" />
    <path d="M5 8.25V21.75H1.25V8.25H5Z" fill="currentColor" />
    <path d="M22.75 8.25V21.75H19V8.25H22.75Z" fill="currentColor" />
</svg>