<svg xmlns="http://www.w3.org/2000/svg" width="24" height="24" viewBox="0 0 24 24" fill="none">
    <path fill-rule="evenodd" clip-rule="evenodd" d="M12.4705 1.67493C14.8816 3.63407 16.9186 5.71767 18.368 7.81848C19.7231 9.78278 20.5947 11.8055 20.7332 13.7814L20.7508 14.1759V14.1779C20.8323 18.9785 16.739 23.051 12.0183 23.007H12.0144L12.0105 23.0079C6.92857 23.0033 3.13162 18.6319 3.25077 14.2267C3.33365 11.1668 5.06507 8.1169 7.44608 5.48254L8.00565 4.8634L9.69608 6.75696L11.6307 0.99231L12.4705 1.67493ZM8.43729 17.7599L9.49784 18.8204L15.5584 12.7599L14.4978 11.6993L8.43729 17.7599ZM14.2478 16.5079C13.6956 16.5079 13.2478 16.9557 13.2478 17.5079C13.2478 18.0602 13.6956 18.5079 14.2478 18.5079C14.8001 18.5079 15.2478 18.0602 15.2478 17.5079C15.2478 16.9557 14.8001 16.5079 14.2478 16.5079ZM9.74784 12.0079C9.19555 12.0079 8.74784 12.4557 8.74784 13.0079C8.74784 13.5602 9.19555 14.0079 9.74784 14.0079C10.3001 14.0079 10.7478 13.5602 10.7478 13.0079C10.7478 12.4903 10.3545 12.0641 9.85038 12.0128L9.74784 12.0079Z" fill="currentColor" />
</svg>