<svg xmlns="http://www.w3.org/2000/svg" width="24" height="24" viewBox="0 0 24 24" fill="none">
    <path d="M12.4395 1.97852L21.75 8.70312V22.3369H2.25V8.70312L11.5605 1.97852L12 1.66211L12.4395 1.97852ZM12 16.5869C11.4477 16.5869 11 17.0346 11 17.5869C11 18.1392 11.4477 18.5869 12 18.5869H12.0098C12.562 18.5869 13.0098 18.1392 13.0098 17.5869C13.0098 17.0346 12.562 16.5869 12.0098 16.5869H12ZM12.0039 12.5791C10.8679 12.5768 9.76516 12.9618 8.87695 13.6699L8.09473 14.293L9.3418 15.8564L10.123 15.2334C10.656 14.8085 11.3184 14.5777 12 14.5791C12.6815 14.5805 13.3419 14.8143 13.873 15.2412L14.6523 15.8672L15.9062 14.3086L15.127 13.6826C14.2416 12.9709 13.1399 12.5814 12.0039 12.5791ZM12 8.58691C9.95515 8.58691 7.97126 9.28349 6.375 10.5615L5.59473 11.1865L6.84473 12.7471L7.625 12.1221C8.8665 11.1282 10.4097 10.5869 12 10.5869C13.5903 10.5869 15.1335 11.1282 16.375 12.1221L17.1553 12.7471L18.4053 11.1865L17.625 10.5615C16.0287 9.28349 14.0448 8.58691 12 8.58691Z" fill="currentColor" />
</svg>