<svg xmlns="http://www.w3.org/2000/svg" width="24" height="24" viewBox="0 0 24 24" fill="none">
    <path d="M18.75 8.62891V12H3V21H18.75V22.75H1.25L1.25098 1.25H11.3613L18.75 8.62891ZM5.75 15.75H7.25V13.25H8.75V19.75H7.25V17.25H5.75V19.75H4.25V13.25H5.75V15.75ZM13.25 14.75H12V19.75H10.5V14.75H9.25V13.25H13.25V14.75ZM16.25 14.8232L17.0361 13.25H18.75V19.75H17.25V16.1768L16.25 18.1768L15.25 16.1768V19.75H13.75V13.25H15.4639L16.25 14.8232ZM20.75 18.25H22.75V19.75H19.25V13.25H20.75V18.25ZM10.5625 9.45996H16.7998L10.5625 3.20508V9.45996Z" fill="currentColor" />
</svg>