<svg xmlns="http://www.w3.org/2000/svg" width="24" height="24" viewBox="0 0 24 24" fill="none">
    <path d="M21.75 12.9409C21.75 13.0408 21.7381 13.1408 21.7139 13.2378C21.051 15.8892 18.6685 17.7493 15.9355 17.7495H15.4014L16.624 19.5835L16.75 19.772V21.7495H7.25V19.772L7.37598 19.5835L8.59863 17.7495H8.06445C5.33153 17.7493 2.94897 15.8892 2.28613 13.2378C2.26191 13.1408 2.25 13.0409 2.25 12.9409V11.2495H21.75V12.9409Z" fill="currentColor" />
    <path d="M8 5.02066C8.16001 5.00666 8.32199 4.99951 8.48564 4.99951C8.87076 4.99951 9.24663 5.03909 9.60941 5.11441C10.4991 5.29913 11.3101 5.6988 11.9856 6.25667C12.6611 5.6988 13.4721 5.29913 14.3619 5.11441C14.7246 5.03909 15.1005 4.99951 15.4856 4.99951C15.6493 4.99951 15.8113 5.00666 15.9713 5.02066C15.3706 3.40253 13.8128 2.24951 11.9856 2.24951C10.1585 2.24951 8.60063 3.40253 8 5.02066Z" fill="currentColor" />
    <path d="M4.11833 11.4995H5.68779H9.84102C9.7812 11.1745 9.75 10.8402 9.75 10.4995C9.75 9.79066 9.8841 9.11313 10.1283 8.4909C10.3168 8.01075 10.5708 7.56354 10.8793 7.16027C10.1559 6.58987 9.24272 6.24951 8.25 6.24951C5.90279 6.24951 4 8.1523 4 10.4995C4 10.8434 4.04093 11.1784 4.11833 11.4995Z" fill="currentColor" />
    <path fill-rule="evenodd" clip-rule="evenodd" d="M17.8122 11.4995H19.3817C19.4591 11.1784 19.5 10.8434 19.5 10.4995C19.5 8.1523 17.5972 6.24951 15.25 6.24951C12.9028 6.24951 11 8.1523 11 10.4995C11 10.8434 11.0409 11.1784 11.1183 11.4995H12.3817H12.6878H14.024H16.476H17.8122Z" fill="currentColor" />
</svg>