<svg xmlns="http://www.w3.org/2000/svg" width="24" height="24" viewBox="0 0 24 24" fill="none">
    <path d="M11.5986 7.39502H9.25V8.89502H14.75V7.39502H13.4014L16.0684 3.39502H19.75V22.895H4.25V3.39502H7.93164L6.95996 1.93701L8.20801 1.10498L9.73438 3.39502H14.2656L11.5986 7.39502ZM12 11.395C10.4812 11.395 9.25 12.6262 9.25 14.145C9.25 15.1803 9.82263 16.0811 10.668 16.5503C8.45333 17.0759 6.73571 18.8829 6.33887 21.145H17.6611C17.2642 18.8826 15.5461 17.0756 13.3311 16.5503C14.1768 16.0813 14.75 15.1806 14.75 14.145C14.75 12.6262 13.5188 11.395 12 11.395ZM17.04 1.93701L16.0684 3.39502H14.2656L15.792 1.10498L17.04 1.93701Z" fill="currentColor" />
</svg>