<svg xmlns="http://www.w3.org/2000/svg" width="24" height="24" viewBox="0 0 24 24" fill="none">
    <path d="M10.5897 8.39221L17.8729 10.4723L18.7117 7.53674C18.7243 7.54551 18.7374 7.55416 18.7498 7.56311V21.7506H1.24982V6.25061H11.1248L10.5897 8.39221ZM8.49982 17.5006L5.99982 15.0006L2.74982 18.2506V20.2516H17.2498V17.2506L12.9998 13.0006L8.49982 17.5006ZM14.9109 2.45471L14.2928 4.92737C15.0998 4.49556 16.0223 4.24963 17.0018 4.24963C20.1771 4.24981 22.7516 6.82428 22.7518 9.99963C22.7518 11.2933 22.3234 12.4897 21.6014 13.4508L21.1502 14.0504L19.951 13.15L20.4022 12.5504C20.9358 11.8401 21.2518 10.9574 21.2518 9.99963C21.2516 7.6527 19.3487 5.74981 17.0018 5.74963C16.0302 5.74963 15.1341 6.07545 14.4178 6.62463L17.4285 7.48499L17.0164 8.92737L12.0975 7.52209L13.4559 2.09045L14.9109 2.45471ZM7.492 10.4928C6.93976 10.4928 6.49207 10.9454 6.492 11.4977C6.492 12.05 6.93972 12.5026 7.492 12.5026C8.04429 12.5026 8.492 12.05 8.492 11.4977C8.49194 10.9454 8.04425 10.4928 7.492 10.4928Z" fill="currentColor" />
</svg>