<svg xmlns="http://www.w3.org/2000/svg" width="24" height="24" viewBox="0 0 24 24" fill="none">
    <path d="M16.793 12.918H18.793V18.5039L20.793 16.5039L22.207 17.918L17.793 22.332L13.3789 17.918L14.793 16.5039L16.793 18.5039V12.918Z" fill="currentColor" />
    <path fill-rule="evenodd" clip-rule="evenodd" d="M1.79297 2.66797C1.79297 2.11568 2.24068 1.66797 2.79297 1.66797H20.793C21.3453 1.66797 21.793 2.11568 21.793 2.66797V15.7363L20.793 14.7363L20.043 15.4863V11.668H15.543V13.0693L14.8619 12.6152L7.02539 19.6681H13.3615L15.3613 21.668H2.79297C2.24068 21.668 1.79297 21.2203 1.79297 20.668V2.66797ZM8.29297 6.16797C7.1884 6.16797 6.29297 7.0634 6.29297 8.16797C6.29297 9.27254 7.1884 10.168 8.29297 10.168C9.39754 10.168 10.293 9.27254 10.293 8.16797C10.293 7.0634 9.39754 6.16797 8.29297 6.16797Z" fill="currentColor" />
</svg>