<svg xmlns="http://www.w3.org/2000/svg" width="24" height="24" viewBox="0 0 24 24" fill="none">
    <path d="M22.75 21.7506H5.25V7.56311C5.26231 7.55425 5.27466 7.54542 5.28711 7.53674L6.12598 10.4723L13.4102 8.39221L12.874 6.25061H22.75V21.7506ZM12.5 17.5006L10 15.0006L6.75 18.2506V20.2516H21.25V17.2506L17 13.0006L12.5 17.5006ZM11.9043 7.52209L6.98535 8.92737L6.57324 7.48499L9.58301 6.62463C8.86678 6.07558 7.97147 5.74963 7 5.74963C4.65292 5.74963 2.7502 7.6526 2.75 9.99963C2.75 10.9574 3.06594 11.8401 3.59961 12.5504L4.0498 13.15L2.85059 14.0504L2.40039 13.4508C1.6783 12.4897 1.25 11.2934 1.25 9.99963C1.2502 6.82417 3.82449 4.24963 7 4.24963C7.97949 4.24963 8.90196 4.49556 9.70898 4.92737L9.09082 2.45471L10.5459 2.09045L11.9043 7.52209ZM11.4922 10.4928C10.9399 10.4928 10.4923 10.9454 10.4922 11.4977C10.4922 12.05 10.9399 12.5026 11.4922 12.5026C12.0445 12.5026 12.4922 12.05 12.4922 11.4977C12.4921 10.9454 12.0444 10.4928 11.4922 10.4928Z" fill="currentColor" />
</svg>