<svg xmlns="http://www.w3.org/2000/svg" width="24" height="24" viewBox="0 0 24 24" fill="none">
    <path d="M17.0001 19H14.0001V17H17.0001V14H19.0001V17H22.0001V19H19.0001V22H17.0001V19Z" fill="currentColor" />
    <path fill-rule="evenodd" clip-rule="evenodd" d="M2.00008 3C2.00008 2.44772 2.44779 2 3.00008 2H21.0001C21.5524 2 22.0001 2.44772 22.0001 3V15.75H20.2501V12.75H15.7501V13.4L15.071 12.9473L7.23445 20.0002H12.7501V20.25H15.7501V22H3.00008C2.44779 22 2.00008 21.5523 2.00008 21V3ZM8.50008 6.5C7.39551 6.5 6.50008 7.39543 6.50008 8.5C6.50008 9.60457 7.39551 10.5 8.50008 10.5C9.60465 10.5 10.5001 9.60457 10.5001 8.5C10.5001 7.39543 9.60465 6.5 8.50008 6.5Z" fill="currentColor" />
</svg>