<svg xmlns="http://www.w3.org/2000/svg" width="24" height="24" viewBox="0 0 24 24" fill="none">
    <path d="M22.25 1.75V22.25H1.75V1.75H22.25ZM7.75 6.5C7.75 5.80965 7.19035 5.25 6.5 5.25C5.80964 5.25 5.25 5.80965 5.25 6.5C5.25 7.19036 5.80964 7.75 6.5 7.75C7.19035 7.75 7.75 7.19036 7.75 6.5ZM18.75 17.5C18.75 16.8096 18.1904 16.25 17.5 16.25C16.8096 16.25 16.25 16.8096 16.25 17.5C16.25 18.1904 16.8096 18.75 17.5 18.75C18.1904 18.75 18.75 18.1904 18.75 17.5ZM7.75 17.5C7.75 16.8096 7.19035 16.25 6.5 16.25C5.80964 16.25 5.25 16.8096 5.25 17.5C5.25 18.1904 5.80964 18.75 6.5 18.75C7.19035 18.75 7.75 18.1904 7.75 17.5ZM18.75 6.5C18.75 5.80965 18.1904 5.25 17.5 5.25C16.8096 5.25 16.25 5.80965 16.25 6.5C16.25 7.19036 16.8096 7.75 17.5 7.75C18.1904 7.75 18.75 7.19036 18.75 6.5Z" fill="currentColor" />
</svg>