<svg xmlns="http://www.w3.org/2000/svg" width="24" height="24" viewBox="0 0 24 24" fill="none">
    <path d="M22.2508 9C22.2508 13.0041 19.0049 16.25 15.0008 16.25C14.1937 16.25 13.4169 16.1154 12.6902 15.8711L10.3113 18.25H8.75079V20.25H6.75079V22.25H1.75079V17.6895L7.97247 11.4678L8.1297 11.3115C7.88524 10.5846 7.75079 9.80747 7.75079 9C7.75079 4.99594 10.9967 1.75 15.0008 1.75C19.0049 1.75 22.2508 4.99594 22.2508 9ZM16.5008 9.75C17.7434 9.75 18.7508 8.74264 18.7508 7.5C18.7508 6.25736 17.7434 5.25 16.5008 5.25C15.2582 5.25 14.2508 6.25736 14.2508 7.5C14.2508 8.74264 15.2582 9.75 16.5008 9.75Z" fill="currentColor" />
</svg>