<svg xmlns="http://www.w3.org/2000/svg" width="24" height="24" viewBox="0 0 24 24" fill="none">
    <path fill-rule="evenodd" clip-rule="evenodd" d="M8.125 19C8.56904 20.7252 10.1351 22 11.999 22C13.8628 22 15.4289 20.7252 15.873 19H13.7314C13.3856 19.5978 12.7393 20 11.999 20C11.2587 20 10.6124 19.5978 10.2665 19H8.125Z" fill="currentColor" />
    <path d="M11 2H13V8.25H14.75V11.8337C16.8158 12.7565 18.3329 14.6868 18.6764 17H20V19H15.874H13.7324H10.2676H8.12602H4L4 17H5.32356C5.66709 14.6868 7.18417 12.7565 9.25 11.8337V8.25H11V2Z" fill="currentColor" />
</svg>