<svg xmlns="http://www.w3.org/2000/svg" width="24" height="24" viewBox="0 0 24 24" fill="none">
    <path d="M15.8754 18.75H11.8754V16.75H15.8754V12.75H17.8754V16.75H21.8754V18.75H17.8754V22.75H15.8754V18.75Z" fill="currentColor" />
    <path fill-rule="evenodd" clip-rule="evenodd" d="M2.39099 12.6243L10.6254 17.1989V15.5002H11.686L3.36228 10.876L2.39099 12.6243Z" fill="currentColor" />
    <path d="M11.5111 1.34438C11.7377 1.21854 12.0131 1.21854 12.2396 1.34438L21.2396 6.34438C21.4777 6.47666 21.6254 6.72762 21.6254 7C21.6254 7.27238 21.4777 7.52334 21.2396 7.65562L12.2396 12.6556C12.0131 12.7815 11.7377 12.7815 11.5111 12.6556L2.51113 7.65562C2.27304 7.52334 2.12537 7.27238 2.12537 7C2.12537 6.72762 2.27304 6.47666 2.51113 6.34438L11.5111 1.34438Z" fill="currentColor" />
    <path fill-rule="evenodd" clip-rule="evenodd" d="M10.6254 19.911L3.36228 15.876L2.39099 17.6243L11.391 22.6243C11.693 22.7921 12.0603 22.7921 12.3623 22.6243L14.6254 21.367V20.0002H12.9673L11.8766 20.6062L10.786 20.0002L10.6254 19.911Z" fill="currentColor" />
</svg>