<svg xmlns="http://www.w3.org/2000/svg" width="24" height="24" viewBox="0 0 24 24" fill="none">
    <path d="M22.7501 21.3354L21.336 22.7495L1.25009 2.66357L2.66415 1.24951L22.7501 21.3354Z" fill="currentColor" />
    <path d="M14.5411 22.7495H9.45908L8.54208 19.9995H15.4581L14.5411 22.7495Z" fill="currentColor" />
    <path d="M13.0001 12.9995V15.2495H15.2501L17.131 17.1304L16.5997 18.7495H7.40048L6.25009 15.2495H11.0001V11.4995H11.5001L13.0001 12.9995Z" fill="currentColor" />
    <path d="M6.26181 6.26123C5.58661 7.30143 5.19443 8.53686 5.19443 9.86279C5.19445 10.7528 5.37112 11.6001 5.68954 12.3745L6.0538 13.2622L4.25204 13.98L3.88583 13.0923C3.47531 12.0937 3.25011 11.0029 3.25009 9.86279C3.25009 8.00145 3.85145 6.2791 4.87119 4.87061L6.26181 6.26123Z" fill="currentColor" />
    <path d="M12.0001 1.24951C16.8326 1.24951 20.7501 5.10588 20.7501 9.86279C20.7501 11.0029 20.5249 12.0937 20.1143 13.0923L19.7481 13.98L17.9464 13.2622L18.3106 12.3745C18.6291 11.6001 18.8057 10.7528 18.8058 9.86279C18.8058 6.16297 15.7587 3.16357 12.0001 3.16357C10.4995 3.16357 9.11252 3.64182 7.9874 4.45166L6.61337 3.07764C8.0987 1.93339 9.96778 1.24951 12.0001 1.24951Z" fill="currentColor" />
</svg>