<svg xmlns="http://www.w3.org/2000/svg" width="24" height="24" viewBox="0 0 24 24" fill="none">
    <path d="M11 2H13V7H11V2Z" fill="currentColor" />
    <path d="M11 17H13V22H11V17Z" fill="currentColor" />
    <path d="M22 11V13H17V11H22Z" fill="currentColor" />
    <path d="M7 11V13H2V11H7Z" fill="currentColor" />
    <path d="M19.7773 5.63672L16.2422 9.17188L14.8281 7.75781L18.3633 4.22266L19.7773 5.63672Z" fill="currentColor" />
    <path d="M9.17188 16.2422L5.63672 19.7773L4.22266 18.3633L7.75781 14.8281L9.17188 16.2422Z" fill="currentColor" />
    <path d="M19.7773 18.3633L18.3633 19.7773L14.8281 16.2422L16.2422 14.8281L19.7773 18.3633Z" fill="currentColor" />
    <path d="M9.17188 7.75781L7.75781 9.17188L4.22266 5.63672L5.63672 4.22266L9.17188 7.75781Z" fill="currentColor" />
</svg>