<svg xmlns="http://www.w3.org/2000/svg" width="24" height="24" viewBox="0 0 24 24" fill="none">
    <path d="M12 2.25C17.3848 2.25 21.75 6.61522 21.75 12C21.75 17.3848 17.3848 21.75 12 21.75C6.61522 21.75 2.25 17.3848 2.25 12C2.25 6.61522 6.61522 2.25 12 2.25ZM10.0342 12.2686C9.59313 12.1979 9.15332 12.2122 8.73828 12.3125C7.86679 12.5233 7.13659 13.0989 6.70996 13.9326C6.2806 14.7722 6.18925 15.8207 6.49609 16.8486C6.62118 17.2675 6.8104 17.6631 7.04785 18.0254C7.95404 18.771 9.03127 19.3148 10.2119 19.5918C9.90202 19.2959 9.62533 18.9657 9.3916 18.6045C8.58215 17.353 8.35266 15.8473 8.77051 14.4287C9.01035 13.6146 9.44856 12.8802 10.0342 12.2686ZM11.249 13.835C10.9673 14.1817 10.7613 14.5708 10.6406 14.9805C10.3875 15.8404 10.5207 16.7597 11.0293 17.5459C11.5417 18.3376 12.4035 18.9412 13.4473 19.1895C13.8741 19.291 14.313 19.3257 14.7471 19.3008C15.8696 18.8782 16.8672 18.2035 17.6748 17.3467C17.2654 17.466 16.8437 17.5408 16.416 17.5625C14.9274 17.6378 13.5079 17.0848 12.4883 16.0137C11.9023 15.398 11.4857 14.6494 11.249 13.835ZM19.4697 9.75391C19.3685 10.1699 19.2222 10.5743 19.0264 10.957C18.3473 12.2841 17.1574 13.2365 15.7197 13.584C14.8936 13.7835 14.0373 13.7696 13.2139 13.5674C13.3731 13.9853 13.6057 14.3593 13.9004 14.6689C14.5187 15.3185 15.3828 15.6627 16.3184 15.6152C17.26 15.5673 18.2134 15.1233 18.9502 14.3438C19.2502 14.0263 19.4983 13.6646 19.6934 13.2783C19.762 12.8623 19.7998 12.4355 19.7998 12C19.7998 11.219 19.6834 10.4653 19.4697 9.75391ZM7.68164 8.38574C6.73994 8.4336 5.78663 8.87764 5.0498 9.65723C4.74975 9.97477 4.50072 10.3361 4.30566 10.7227C4.23717 11.1384 4.2002 11.5649 4.2002 12C4.2002 12.7813 4.31648 13.5354 4.53027 14.2471C4.63154 13.8313 4.77888 13.4276 4.97461 13.0449C5.65363 11.7178 6.84267 10.7645 8.28027 10.417C9.10557 10.2175 9.96135 10.2307 10.7842 10.4326C10.6249 10.0153 10.393 9.64143 10.0986 9.33203C9.48039 8.6826 8.61702 8.33839 7.68164 8.38574ZM13.792 4.4082C14.1009 4.70347 14.3763 5.03237 14.6094 5.39258C15.4191 6.64422 15.6494 8.15057 15.2314 9.56934C14.9912 10.3847 14.5509 11.1193 13.9639 11.7314C14.4056 11.8024 14.846 11.7879 15.2617 11.6875C16.1333 11.4768 16.8633 10.9021 17.29 10.0684C17.7195 9.22895 17.8115 8.18119 17.5049 7.15332C17.3798 6.73422 17.1907 6.33716 16.9531 5.97461C16.0478 5.2295 14.9714 4.68554 13.792 4.4082ZM9.25879 4.69531C8.1332 5.11791 7.13251 5.79442 6.32324 6.65332C6.73294 6.53365 7.15497 6.45923 7.58301 6.4375C9.0717 6.3621 10.491 6.91616 11.5107 7.9873C12.0961 8.6023 12.5132 9.34988 12.75 10.1631C13.0323 9.81602 13.2405 9.42781 13.3613 9.01758C13.6145 8.1575 13.4804 7.23846 12.9717 6.45215C12.4594 5.66049 11.5983 5.05689 10.5547 4.80859C10.1292 4.7074 9.69147 4.67088 9.25879 4.69531Z" fill="currentColor" />
</svg>