<svg xmlns="http://www.w3.org/2000/svg" width="24" height="24" viewBox="0 0 24 24" fill="none">
    <path fill-rule="evenodd" clip-rule="evenodd" d="M12 6.25C9.36957 6.25 7.25 8.40183 7.25 11.0404C7.25 12.5592 7.86442 13.7473 9.00258 14.7559C9.68881 15.364 10.9052 16.6451 11.3596 17.3904C11.4936 17.6102 11.7309 17.7459 11.9882 17.7499C12.2456 17.7539 12.487 17.6257 12.6278 17.4103C13.1188 16.659 14.3246 15.3521 14.9974 14.7559C16.1356 13.7473 16.75 12.5592 16.75 11.0404C16.75 8.40183 14.6304 6.25 12 6.25ZM11.9911 9C10.8914 9 10 9.89543 10 11C10 12.1046 10.8914 13 11.9911 13H12.0089C13.1086 13 14 12.1046 14 11C14 9.89543 13.1086 9 12.0089 9H11.9911Z" fill="currentColor" />
    <path d="M5.22685 12.8255L3.89551 14.1569L3.56339 14.488C4.63683 18.1337 8.00672 20.7955 12 20.7955C15.6052 20.7955 18.7063 18.6262 20.0644 15.5178L20.4557 14.6226L22.2461 15.4052L21.8548 16.3004C20.1968 20.095 16.4097 22.75 12 22.75C6.06294 22.75 1.25 17.9371 1.25 12V10.1743L5.22685 12.8255ZM12 1.25C17.9371 1.25 22.75 6.06294 22.75 12V13.8257L18.7731 11.1745L20.1045 9.84313L20.4357 9.51101C19.3619 5.86592 15.9929 3.20455 12 3.20455C8.39482 3.20455 5.29372 5.37377 3.93559 8.4822L3.5443 9.3774L1.75391 8.59482L2.1452 7.69962C3.80318 3.90503 7.59034 1.25 12 1.25Z" fill="currentColor" />
</svg>