<svg xmlns="http://www.w3.org/2000/svg" width="24" height="24" viewBox="0 0 24 24" fill="none">
    <path d="M12.0098 6.25C14.9092 6.25 17.2596 8.58605 17.2598 11.4678C17.2598 13.5406 15.9242 15.0974 14.7402 16.0781C14.1356 16.5789 13.534 16.9601 13.0859 17.2158C12.8612 17.3441 12.6723 17.4431 12.5381 17.5098C12.4707 17.5432 12.0477 17.7323 12.0098 17.75C11.9718 17.7323 11.5489 17.5432 11.4814 17.5098C11.3472 17.4431 11.1584 17.3441 10.9336 17.2158C10.4855 16.9601 9.8839 16.5789 9.2793 16.0781C8.0953 15.0974 6.75977 13.5406 6.75977 11.4678C6.75994 8.58605 9.11038 6.25 12.0098 6.25ZM12.0098 9.75C11.0433 9.75 10.2598 10.5335 10.2598 11.5C10.2598 12.4665 11.0433 13.25 12.0098 13.25C12.9763 13.25 13.7598 12.4665 13.7598 11.5C13.7598 10.5335 12.9763 9.75 12.0098 9.75Z" fill="currentColor" />
    <path d="M5.23662 12.8255L3.90527 14.1569L3.57315 14.488C4.64659 18.1337 8.01648 20.7955 12.0098 20.7955C15.6149 20.7955 18.716 18.6262 20.0742 15.5178L20.4655 14.6226L22.2559 15.4052L21.8646 16.3004C20.2066 20.095 16.4194 22.75 12.0098 22.75C6.0727 22.75 1.25977 17.9371 1.25977 12V10.1743L5.23662 12.8255ZM12.0098 1.25C17.9468 1.25 22.7598 6.06294 22.7598 12V13.8257L18.7829 11.1745L20.1143 9.84313L20.4454 9.51101C19.3716 5.86592 16.0026 3.20455 12.0098 3.20455C8.40459 3.20455 5.30349 5.37377 3.94536 8.4822L3.55407 9.3774L1.76367 8.59482L2.15496 7.69962C3.81294 3.90503 7.60011 1.25 12.0098 1.25Z" fill="currentColor" />
</svg>