<svg xmlns="http://www.w3.org/2000/svg" width="24" height="24" viewBox="0 0 24 24" fill="none">
    <path d="M11.25 19.75H5V21.75H3L3 19.75H1.25L1.25 2.25L11.25 2.25L11.25 19.75ZM22.75 19.75H21V21.75H19V19.75L12.75 19.75L12.75 2.25L22.75 2.25L22.75 19.75ZM8.25 13C7.69771 13 7.25 13.4477 7.25 14C7.25 14.5523 7.69772 15 8.25 15C8.80228 15 9.25 14.5523 9.25 14C9.25 13.4477 8.80228 13 8.25 13ZM18.25 13C17.6977 13 17.25 13.4477 17.25 14C17.25 14.5523 17.6977 15 18.25 15C18.8023 15 19.25 14.5523 19.25 14C19.25 13.4477 18.8023 13 18.25 13ZM4.75 10.75L9.25 10.75L9.25 9.25H4.75V10.75ZM14.75 10.75H19.25V9.25H14.75L14.75 10.75ZM4.75 7.75L9.25 7.75V6.25L4.75 6.25L4.75 7.75ZM14.75 7.75H19.25V6.25H14.75V7.75Z" fill="currentColor" />
</svg>