<svg xmlns="http://www.w3.org/2000/svg" width="24" height="24" viewBox="0 0 24 24" fill="none">
    <path d="M6.5 6.625C6.5 3.58743 8.96243 1.125 12 1.125C14.4611 1.125 16.2112 2.72339 16.9424 4.79199L15.0576 5.45801C14.5532 4.03107 13.4576 3.125 12 3.125C10.067 3.125 8.5 4.692 8.5 6.625V9.125H6.5V6.625Z" fill="currentColor" />
    <path d="M20.75 22.875H3.25098L3.25 8.375H20.75V22.875ZM12 18.625C13.6569 18.625 15 17.2819 15 15.625C15 13.9681 13.6569 12.625 12 12.625C10.3431 12.625 9 13.9681 9 15.625C9 17.2819 10.3431 18.625 12 18.625Z" fill="currentColor" />
    <path fill-rule="evenodd" clip-rule="evenodd" d="M12 14.625C12.5523 14.625 13 15.0727 13 15.625C13 16.1773 12.5523 16.625 12 16.625C11.4477 16.625 11 16.1773 11 15.625C11 15.0727 11.4477 14.625 12 14.625Z" fill="currentColor" />
</svg>