<svg xmlns="http://www.w3.org/2000/svg" width="24" height="24" viewBox="0 0 24 24" fill="none">
    <path d="M12 22.75C17.9371 22.75 22.75 17.9371 22.75 12C22.75 6.06294 17.9371 1.25 12 1.25C6.06294 1.25 1.25 6.06294 1.25 12C1.25 12.4957 1.28662 12.9831 1.35156 13.4609C1.52622 13.5245 1.7197 13.59 1.95117 13.6533C2.62694 13.8382 3.57882 14 4.99902 14C6.50254 13.9999 7.74418 13.6347 8.44531 13.168L9.27734 12.6133L10.3857 14.2783L9.55273 14.832C8.42959 15.5796 6.76679 15.9999 4.99902 16C3.69597 16 2.69849 15.8753 1.90332 15.6992C3.41128 19.8139 7.36279 22.75 12 22.75ZM7.625 10.25C7.08478 10.25 6.79739 9.83182 6.68945 9.61621C6.5593 9.3559 6.5 9.04829 6.5 8.75C6.5 8.4517 6.5593 8.1441 6.68945 7.88379C6.79739 7.66818 7.08479 7.25 7.625 7.25C8.16521 7.25 8.45261 7.66817 8.56055 7.88379C8.6907 8.1441 8.75 8.45171 8.75 8.75C8.75 9.04829 8.6907 9.3559 8.56055 9.61621C8.45261 9.83182 8.16521 10.25 7.625 10.25Z" fill="currentColor" />
</svg>