<svg xmlns="http://www.w3.org/2000/svg" width="24" height="24" viewBox="0 0 24 24" fill="none">
    <path d="M12 22.75C17.9371 22.75 22.75 17.9371 22.75 12C22.75 6.06294 17.9371 1.25 12 1.25C6.06294 1.25 1.25 6.06294 1.25 12C1.25 17.9371 6.06294 22.75 12 22.75ZM8.375 8.75C7.83479 8.75 7.54739 8.33182 7.43945 8.11621C7.3093 7.8559 7.25 7.54829 7.25 7.25C7.25 6.95171 7.3093 6.6441 7.43945 6.38379C7.54739 6.16817 7.83479 5.75 8.375 5.75C8.91521 5.75 9.20261 6.16818 9.31055 6.38379C9.4407 6.6441 9.5 6.9517 9.5 7.25C9.5 7.54829 9.4407 7.8559 9.31055 8.11621C9.20261 8.33182 8.91522 8.75 8.375 8.75ZM15.625 8.75C15.0848 8.75 14.7974 8.33182 14.6895 8.11621C14.5593 7.8559 14.5 7.54829 14.5 7.25C14.5 6.95171 14.5593 6.6441 14.6895 6.38379C14.7974 6.16817 15.0848 5.75 15.625 5.75C16.1652 5.75 16.4526 6.16818 16.5605 6.38379C16.6907 6.6441 16.75 6.9517 16.75 7.25C16.75 7.54829 16.6907 7.8559 16.5605 8.11621C16.4526 8.33182 16.1652 8.75 15.625 8.75ZM12.001 14C10.8025 14 9.71862 13.5187 8.84277 12.752L8.08984 12.0938L9.40723 10.5889L10.1592 11.248C10.7304 11.7481 11.3613 12 12.001 12C12.6407 12 13.2715 11.7481 13.8428 11.248L14.5947 10.5889L15.9121 12.0938L15.1592 12.752C14.2833 13.5187 13.1995 14 12.001 14Z" fill="currentColor" />
</svg>