<svg xmlns="http://www.w3.org/2000/svg" width="24" height="24" viewBox="0 0 24 24" fill="none">
    <path d="M22.9766 22.2505H1.02344L3.57129 15.8794L5.42871 16.6216L3.97754 20.2505H20.0225L18.5713 16.6216L20.4287 15.8794L22.9766 22.2505Z" fill="currentColor" />
    <path fill-rule="evenodd" clip-rule="evenodd" d="M11.6885 19.1812L11.6611 19.1685L11.6459 19.1613C11.632 19.1549 11.6148 19.1469 11.5947 19.1372C11.5383 19.1099 11.4577 19.0702 11.3564 19.0181C11.1538 18.9138 10.8674 18.76 10.5254 18.5581C9.84267 18.155 8.92866 17.555 8.01172 16.769C6.20019 15.2163 4.25008 12.8264 4.25 9.69971C4.25 5.3291 7.70002 1.74951 12 1.74951C16.3 1.74951 19.75 5.3291 19.75 9.69971C19.7499 12.8264 17.7998 15.2163 15.9883 16.769C15.0713 17.555 14.1573 18.155 13.4746 18.5581C13.1326 18.76 12.8462 18.9138 12.6436 19.0181C12.5423 19.0702 12.4617 19.1099 12.4053 19.1372C12.3853 19.1469 12.368 19.1549 12.3541 19.1614L12.3389 19.1685L12.3115 19.1812C12.1135 19.2716 11.8865 19.2716 11.6885 19.1812ZM15.25 9.49951C15.25 11.2944 13.7949 12.7495 12 12.7495C10.2051 12.7495 8.75 11.2944 8.75 9.49951C8.75 7.70459 10.2051 6.24951 12 6.24951C13.7949 6.24951 15.25 7.70459 15.25 9.49951Z" fill="currentColor" />
</svg>