<svg xmlns="http://www.w3.org/2000/svg" width="24" height="24" viewBox="0 0 24 24" fill="none">
    <path fill-rule="evenodd" clip-rule="evenodd" d="M11.168 0.904785C16.0073 0.905052 19.918 4.86605 19.918 9.73584C19.9179 10.5337 19.8232 11.2805 19.6436 11.9858L17.668 13.9653L15.1797 11.4731L11.9932 14.6528L13.585 16.2446L14.4883 17.1499L11.9863 19.6577L12.8916 20.561C12.452 21.1002 12.0731 21.6116 11.8086 22.0454L11.168 23.0952L10.5273 22.0454C9.56041 20.4593 7.0621 17.8379 5.6709 16.605C3.53295 14.7104 2.41819 12.5302 2.41797 9.73584C2.41797 4.86589 6.3284 0.904785 11.168 0.904785ZM11.168 6.65479C9.51111 6.65479 8.16797 7.99793 8.16797 9.65479C8.16823 11.3114 9.51128 12.6548 11.168 12.6548C12.8244 12.6545 14.1677 11.3113 14.168 9.65479C14.168 7.99809 12.8246 6.65505 11.168 6.65479Z" fill="currentColor" />
    <path d="M21.5742 14.6538L19.0811 17.1499L21.582 19.6558L20.167 21.0688L17.668 18.5659L15.1689 21.0688L13.7539 19.6558L16.2539 17.1499L14.4688 15.3608L13.7617 14.6538L15.1777 13.2407L17.668 15.7349L20.1582 13.2407L21.5742 14.6538Z" fill="currentColor" />
</svg>