<svg xmlns="http://www.w3.org/2000/svg" width="24" height="24" viewBox="0 0 24 24" fill="none">
    <path fill-rule="evenodd" clip-rule="evenodd" d="M17.5 9.90479C20.3907 9.90479 22.75 12.2216 22.75 15.0991C22.75 16.7519 22.0673 18.0403 20.8037 19.1353C20.0429 19.7945 18.6812 21.2381 18.124 22.0718L17.4785 23.0376L16.8633 22.0513C16.346 21.2218 14.9707 19.8063 14.1963 19.1353C12.9327 18.0403 12.25 16.7519 12.25 15.0991C12.25 12.2216 14.6093 9.90479 17.5 9.90479ZM17.5 13.4048C16.5335 13.4048 15.75 14.1883 15.75 15.1548C15.75 16.1213 16.5335 16.9048 17.5 16.9048C18.4665 16.9048 19.25 16.1213 19.25 15.1548C19.25 14.1883 18.4665 13.4048 17.5 13.4048Z" fill="currentColor" />
    <path d="M10.75 0.940918C14.9179 1.29766 18.2419 4.59846 18.6943 8.76514C18.3067 8.69356 17.9076 8.65479 17.5 8.65479C16.3317 8.65479 15.232 8.96336 14.2803 9.50244C14.2 7.22583 12.3313 5.40479 10.0352 5.40479C7.68795 5.40479 5.78516 7.30758 5.78516 9.65479C5.78516 12.002 7.68795 13.9048 10.0352 13.9048C10.4177 13.9048 10.788 13.8531 11.1406 13.7583C11.0486 14.1903 11 14.6387 11 15.0991C11 16.8336 11.6228 18.2486 12.7041 19.4243C11.8633 20.3599 11.0875 21.3123 10.6406 22.0454L10 23.0952L9.35938 22.0454C8.39233 20.4592 5.89404 17.8378 4.50293 16.605C2.36487 14.7103 1.25011 12.5304 1.25 9.73584C1.25 5.12027 4.76289 1.32417 9.25 0.939941V0.905762H9.96289C9.97526 0.90571 9.98762 0.904785 10 0.904785H10.75V0.940918Z" fill="currentColor" />
</svg>