<svg xmlns="http://www.w3.org/2000/svg" width="24" height="24" viewBox="0 0 24 24" fill="none">
    <path fill-rule="evenodd" clip-rule="evenodd" d="M11.5 0.904785C16.3393 0.905052 20.25 4.86605 20.25 9.73584C20.2499 11.5105 19.7987 13.0365 18.9229 14.3999H12V18.8999H14.6836C13.6662 19.9937 12.6715 21.1745 12.1406 22.0454L11.5 23.0952L10.8594 22.0454C9.89244 20.4593 7.39413 17.8379 6.00293 16.605C3.86498 14.7104 2.75022 12.5302 2.75 9.73584C2.75 4.86589 6.66043 0.904785 11.5 0.904785ZM11.5 6.65479C9.84315 6.65479 8.5 7.99793 8.5 9.65479C8.50026 11.3114 9.84331 12.6548 11.5 12.6548C13.1565 12.6545 14.4997 11.3113 14.5 9.65479C14.5 7.99809 13.1566 6.65505 11.5 6.65479Z" fill="currentColor" />
    <path d="M21.25 15.6499V17.6499H13.25V15.6499H21.25Z" fill="currentColor" />
</svg>