<svg xmlns="http://www.w3.org/2000/svg" width="24" height="24" viewBox="0 0 24 24" fill="none">
    <path d="M11.5001 0.904785C16.3396 0.904785 20.2501 4.86589 20.2501 9.73584C20.25 10.2313 20.2122 10.7069 20.1426 11.1655L15.836 15.4731L13.836 13.4731L10.6544 16.6548L13.837 19.8374C13.1418 20.6356 12.5218 21.4203 12.1407 22.0454L11.5001 23.0952L10.8594 22.0454C9.89238 20.4591 7.39409 17.8377 6.00299 16.605C3.86492 14.7103 2.75015 12.5305 2.75006 9.73584C2.75006 4.86589 6.66049 0.904785 11.5001 0.904785ZM11.5001 6.65479C9.84321 6.65479 8.50006 7.99793 8.50006 9.65479C8.50006 11.3116 9.84321 12.6548 11.5001 12.6548C13.1569 12.6548 14.5001 11.3116 14.5001 9.65479C14.5001 7.99793 13.1569 6.65479 11.5001 6.65479Z" fill="currentColor" />
    <path d="M21.2499 14.6548L15.8359 20.0688L12.4218 16.6548L13.8359 15.2407L15.8359 17.2407L19.8359 13.2407L21.2499 14.6548Z" fill="currentColor" />
</svg>