<svg xmlns="http://www.w3.org/2000/svg" width="24" height="24" viewBox="0 0 24 24" fill="none">
    <path fill-rule="evenodd" clip-rule="evenodd" d="M10.2203 21.8481C10.6562 22.0974 11.0206 22.2872 11.2779 22.4154L12 22.7498L12.7221 22.4154C12.9794 22.2872 13.3438 22.0974 13.7797 21.8481C14.6496 21.3503 15.813 20.6099 16.9801 19.6404C19.2892 17.7225 21.75 14.791 21.75 10.9678C21.75 5.60066 17.3848 1.24976 12 1.24976C6.61522 1.24976 2.25 5.60066 2.25 10.9678C2.25 14.791 4.71077 17.7225 7.01986 19.6404C8.18703 20.6099 9.35038 21.3503 10.2203 21.8481ZM10.0001 15.414L16.7072 8.70694L15.293 7.29272L10.0001 12.5856L8.70718 11.2927L7.29297 12.7069L10.0001 15.414Z" fill="currentColor" />
</svg>