<svg xmlns="http://www.w3.org/2000/svg" width="24" height="24" viewBox="0 0 24 24" fill="none">
    <path fill-rule="evenodd" clip-rule="evenodd" d="M16.4235 22.2153C16.6484 22.3436 16.837 22.4416 16.9712 22.5083L17.5 22.7495L18.0288 22.5083C18.163 22.4416 18.3516 22.3436 18.5765 22.2153C19.0246 21.9596 19.6255 21.5785 20.2301 21.0777C21.4142 20.097 22.75 18.5404 22.75 16.4674C22.75 13.5856 20.3995 11.2495 17.5 11.2495C14.6005 11.2495 12.25 13.5856 12.25 16.4674C12.25 18.5404 13.5858 20.097 14.7699 21.0777C15.3745 21.5785 15.9754 21.9596 16.4235 22.2153ZM17.494 14.4995C16.3928 14.4995 15.5 15.3949 15.5 16.4995C15.5 17.6041 16.3928 18.4995 17.494 18.4995H17.506C18.6072 18.4995 19.5 17.6041 19.5 16.4995C19.5 15.3949 18.6072 14.4995 17.506 14.4995H17.494Z" fill="currentColor" />
    <path d="M11.4036 19.2719L8.75 18.1328L8.75 1.24951L14.25 3.60985V10.5774C12.166 11.7189 10.75 13.9245 10.75 16.4664C10.75 17.5219 11.0099 18.4581 11.4036 19.2719Z" fill="currentColor" />
    <path d="M22.75 3.99786V12.2434C21.5111 10.7203 19.6171 9.74854 17.5 9.74854C16.8951 9.74854 16.3084 9.82787 15.75 9.97673V3.99786H22.75Z" fill="currentColor" />
    <path d="M1.25 4.34004L7.25 1.29654L7.25 18.0435L1.25 19.7114V4.34004Z" fill="currentColor" />
</svg>