<svg xmlns="http://www.w3.org/2000/svg" width="24" height="24" viewBox="0 0 24 24" fill="none">
    <path d="M12 1.25C17.9371 1.25 22.75 6.06294 22.75 12C22.75 17.9371 17.9371 22.75 12 22.75C9.39131 22.75 7.00038 21.8199 5.13867 20.2744L10.4668 14.9473L15.5596 20.04C18.6427 18.6731 20.7947 15.5888 20.7949 11.999C20.7949 7.14143 16.8566 3.20312 11.999 3.20312C8.40947 3.20331 5.3241 5.35462 3.95703 8.4375L9.05273 13.5332L3.72461 18.8604C2.17965 16.9988 1.25 14.6082 1.25 12C1.25 6.06294 6.06294 1.25 12 1.25Z" fill="currentColor" />
    <path d="M13.75 5.25C15.9553 5.25 17.75 7.02921 17.75 9.23242C17.75 10.5003 17.2253 11.4905 16.2744 12.3203C15.7338 12.792 14.7642 13.8286 14.375 14.415L13.7285 15.3896L13.1123 14.3945C12.7549 13.8174 11.7797 12.8038 11.2256 12.3203C10.2747 11.4905 9.75004 10.5003 9.75 9.23242C9.75 7.02921 11.5447 5.25 13.75 5.25ZM13.75 7.75C12.9216 7.75 12.25 8.42158 12.25 9.25C12.25 10.0784 12.9216 10.75 13.75 10.75C14.5784 10.75 15.25 10.0784 15.25 9.25C15.25 8.42157 14.5784 7.75 13.75 7.75Z" fill="currentColor" />
</svg>