<svg xmlns="http://www.w3.org/2000/svg" width="24" height="24" viewBox="0 0 24 24" fill="none">
    <path fill-rule="evenodd" clip-rule="evenodd" d="M12 2.25C13.0163 2.25 13.9477 2.31236 14.7998 2.43164L11.5684 5.66406L17.75 11.8457L21.6816 7.91406H22.1875C22.6029 9.18756 22.75 10.5817 22.75 12C22.75 14.6251 21.9907 17.0854 20.208 18.8906C18.4216 20.6995 15.7071 21.75 12 21.75C10.1864 21.75 8.63948 21.5404 7.32812 21.1465C6.49719 21.8562 4.8638 22.75 2.63281 22.75H1.88281C2.63531 22.1716 3.67307 19.3846 2.7373 17.9004C1.63081 16.2122 1.25 14.1434 1.25 12C1.25 9.42427 1.8005 6.95115 3.50098 5.125C5.21037 3.28928 7.94704 2.25 12 2.25ZM8 11C7.44771 11 7 11.4477 7 12C7 12.5523 7.44772 13 8 13C8.55228 13 9 12.5523 9 12C9 11.4477 8.55228 11 8 11ZM12 11C11.4823 11 11.0562 11.3933 11.0049 11.8975L11 12L11.0049 12.1025C11.0562 12.6067 11.4823 13 12 13C12.5522 12.9999 13 12.5522 13 12C13 11.4824 12.6066 11.0563 12.1025 11.0049L12 11ZM16 11C15.4477 11 15 11.4477 15 12C15 12.5523 15.4477 13 16 13C16.5523 13 17 12.5523 17 12C17 11.4477 16.5523 11 16 11Z" fill="currentColor" />
    <path d="M17.1641 4.66406L19.1641 2.66406L17.75 1.25L13.3359 5.66406L17.75 10.0781L19.1641 8.66406L17.1641 6.66406H22.75V4.66406H17.1641Z" fill="currentColor" />
</svg>