<svg xmlns="http://www.w3.org/2000/svg" width="24" height="24" viewBox="0 0 24 24" fill="none">
    <path d="M22.75 10.5C22.75 13.42 22.5592 16.0937 22.2412 18.1162L22.1533 18.6748L21.5928 18.7441C19.2231 19.0383 16.1324 19.2226 12.7363 19.2461L8.55566 22.1182L8.36426 22.25H7.25V19.1357C5.44455 19.0488 3.80158 18.9172 2.40723 18.7441L1.84668 18.6748L1.75879 18.1162C1.44082 16.0937 1.25 13.42 1.25 10.5C1.25 7.57998 1.44082 4.90627 1.75879 2.88379L1.84668 2.3252L2.40723 2.25586C4.94664 1.94064 8.31469 1.75 12 1.75C15.2248 1.75 18.2063 1.89591 20.6025 2.14355L21.5928 2.25586L22.1533 2.3252L22.2412 2.88379C22.5592 4.90627 22.75 7.57998 22.75 10.5ZM5.5 11.5H9.5C9.5 12.6046 8.60457 13.5 7.5 13.5V15.5C9.70914 15.5 11.5 13.7091 11.5 11.5V5.5H5.5V11.5ZM12.6016 11.5H16.6016C16.6016 12.6046 15.7061 13.5 14.6016 13.5V15.5C16.8107 15.5 18.6016 13.7091 18.6016 11.5V5.5H12.6016V11.5Z" fill="currentColor" />
    <path fill-rule="evenodd" clip-rule="evenodd" d="M16.6016 9.5H14.6016V7.5H16.6016V9.5Z" fill="currentColor" />
    <path fill-rule="evenodd" clip-rule="evenodd" d="M9.5 9.5H7.5V7.5H9.5V9.5Z" fill="currentColor" />
</svg>