<svg xmlns="http://www.w3.org/2000/svg" width="24" height="24" viewBox="0 0 24 24" fill="none">
    <path d="M12.3159 1.75C17.9768 1.75 22.5659 6.33908 22.5659 12C22.5659 17.6609 17.9768 22.25 12.3159 22.25C10.5767 22.25 8.93698 21.8156 7.50049 21.0498C5.72632 20.2861 3.98149 20.6508 2.88135 20.7471L1.43408 20.874L2.16943 19.6201C2.35285 19.3073 2.60591 18.6256 2.73389 17.7812C2.86082 16.9434 2.85099 16.0289 2.5874 15.2363C2.24882 14.2181 2.06592 13.1296 2.06592 12C2.06592 6.33908 6.655 1.75 12.3159 1.75ZM8.31689 11C7.76461 11 7.31689 11.4477 7.31689 12C7.31689 12.5523 7.76461 13 8.31689 13C8.86918 13 9.31689 12.5523 9.31689 12C9.31689 11.4477 8.86918 11 8.31689 11ZM12.3179 11C11.8002 11 11.3741 11.3933 11.3228 11.8975L11.3179 12L11.3228 12.1025C11.3741 12.6067 11.8002 13 12.3179 13C12.87 12.9999 13.3179 12.5522 13.3179 12C13.3179 11.4821 12.9239 11.0559 12.4194 11.0049L12.3179 11ZM16.3169 11C15.7646 11 15.3169 11.4477 15.3169 12C15.3169 12.5523 15.7646 13 16.3169 13C16.8692 13 17.3169 12.5523 17.3169 12C17.3169 11.4477 16.8692 11 16.3169 11Z" fill="currentColor" />
</svg>