<svg xmlns="http://www.w3.org/2000/svg" width="24" height="24" viewBox="0 0 24 24" fill="none">
    <path d="M22.75 12.4873C22.75 11.135 22.7005 9.84508 22.6113 8.67383L22.5352 7.67676L20.541 7.8291L20.6172 8.82617C20.7023 9.94353 20.75 11.1824 20.75 12.4873C20.75 14.5263 20.6335 16.396 20.4414 17.8926C19.3046 18.0095 17.9951 18.103 16.5674 18.1592L15.6074 18.1963V19.9434L12.4805 17.834L11.3613 19.4922L16.1885 22.75H17.6074V20.1104C19.028 20.0367 20.3259 19.9311 21.4424 19.7949L22.1895 19.7041L22.3086 18.9609C22.5851 17.2333 22.75 14.9608 22.75 12.4873Z" fill="currentColor" />
    <path d="M19.75 8.7373C19.75 11.2009 19.587 13.4589 19.3154 15.1699L19.2275 15.7285L18.667 15.7969C16.6553 16.0443 14.036 16.1989 11.1592 16.2197L7.63379 18.6201L7.44238 18.75H6.34961V16.1221C4.85525 16.0486 3.4935 15.9396 2.33301 15.7969L1.77246 15.7285L1.68457 15.1699C1.41304 13.4589 1.25002 11.2009 1.25 8.7373C1.25 6.27355 1.41302 4.01484 1.68457 2.30371L1.77246 1.74609L2.33301 1.67676C4.49689 1.41065 7.36435 1.25 10.5 1.25C13.2438 1.25 15.7819 1.37301 17.8232 1.58203L18.667 1.67676L19.2275 1.74609L19.3154 2.30371C19.587 4.01484 19.75 6.27355 19.75 8.7373Z" fill="currentColor" />
</svg>