<svg xmlns="http://www.w3.org/2000/svg" width="24" height="24" viewBox="0 0 24 24" fill="none">
    <path d="M12.316 1.74951C17.977 1.74951 22.566 6.33859 22.566 11.9995C22.566 17.6604 17.977 22.2495 12.316 22.2495C10.5769 22.2495 8.9371 21.8152 7.50061 21.0493C5.72645 20.2856 3.98161 20.6503 2.88147 20.7466L1.4342 20.8735L2.16956 19.6196C2.35298 19.3068 2.60603 18.6251 2.73401 17.7808C2.86095 16.9429 2.85111 16.0284 2.58752 15.2358C2.24894 14.2176 2.06604 13.1291 2.06604 11.9995C2.06604 6.33859 6.65512 1.74951 12.316 1.74951ZM5.40198 11.9995L9.81604 16.4136L11.2301 14.9995L8.2301 11.9995L11.2301 8.99951L9.81604 7.58545L5.40198 11.9995ZM13.402 8.99951L16.402 11.9995L13.402 14.9995L14.816 16.4136L19.2301 11.9995L14.816 7.58545L13.402 8.99951Z" fill="currentColor" />
</svg>