<svg xmlns="http://www.w3.org/2000/svg" width="24" height="24" viewBox="0 0 24 24" fill="none">
    <path d="M12 1.75C16.1777 1.75 18.9234 2.7851 20.6045 4.63086C22.2742 6.46411 22.75 8.94321 22.75 11.5C22.75 14.1251 21.9907 16.5854 20.208 18.3906C18.4216 20.1995 15.7071 21.25 12 21.25C10.1864 21.25 8.63948 21.0404 7.32812 20.6465C6.49719 21.3562 4.8638 22.25 2.63281 22.25H1.88281C2.63531 21.6716 3.67307 18.8846 2.7373 17.4004C1.63081 15.7122 1.25 13.6434 1.25 11.5C1.25 8.92427 1.8005 6.45115 3.50098 4.625C5.21037 2.78928 7.94704 1.75 12 1.75ZM12 14.75C11.4477 14.75 11 15.1977 11 15.75C11 16.3023 11.4477 16.75 12 16.75C12.5523 16.75 13 16.3023 13 15.75C13 15.1977 12.5523 14.75 12 14.75ZM12 6C10.3431 6 9 7.34315 9 9H11C11 8.44772 11.4477 8 12 8C12.5523 8 13 8.44772 13 9C13 9.28878 12.8788 9.54759 12.6816 9.73145C12.4097 9.98484 11.9945 10.3524 11.6699 10.7627C11.3371 11.1833 11 11.7672 11 12.5V13.5H13V12.5C13 12.4046 13.041 12.2522 13.2383 12.0029C13.4437 11.7433 13.7109 11.5066 14.0449 11.1953C14.6312 10.649 15 9.86662 15 9C15 7.34315 13.6569 6 12 6Z" fill="currentColor" />
</svg>