<svg xmlns="http://www.w3.org/2000/svg" width="24" height="24" viewBox="0 0 24 24" fill="none">
    <path d="M12 2.25C12.4455 2.25 12.8747 2.26384 13.2881 2.28711C12.482 3.30864 12 4.59775 12 6C12 9.31371 14.6863 12 18 12C19.8553 12 21.5127 11.1568 22.6133 9.83398C22.7084 10.5408 22.75 11.267 22.75 12C22.75 14.6251 21.9907 17.0854 20.208 18.8906C18.4216 20.6995 15.7071 21.75 12 21.75C10.1864 21.75 8.63948 21.5404 7.32812 21.1465C6.49719 21.8562 4.8638 22.75 2.63281 22.75H1.88281C2.63531 22.1716 3.67307 19.3846 2.7373 17.9004C1.63081 16.2122 1.25 14.1434 1.25 12C1.25 9.42427 1.8005 6.95115 3.50098 5.125C5.21037 3.28928 7.94704 2.25 12 2.25ZM8 11C7.44771 11 7 11.4477 7 12C7 12.5523 7.44772 13 8 13C8.55228 13 9 12.5523 9 12C9 11.4477 8.55228 11 8 11ZM12 11C11.4823 11 11.0562 11.3933 11.0049 11.8975L11 12L11.0049 12.1025C11.0562 12.6067 11.4823 13 12 13C12.5522 12.9999 13 12.5522 13 12C13 11.4824 12.6066 11.0563 12.1025 11.0049L12 11Z" fill="currentColor" />
    <path d="M18 1.25C20.6234 1.25 22.75 3.37665 22.75 6C22.75 8.62335 20.6234 10.75 18 10.75C15.3766 10.75 13.25 8.62335 13.25 6C13.25 3.37665 15.3766 1.25 18 1.25ZM16.5859 5.99902L18 7.41309L20.6475 4.76562L19.2334 3.35156L16.5859 5.99902Z" fill="currentColor" />
</svg>