<svg xmlns="http://www.w3.org/2000/svg" width="24" height="24" viewBox="0 0 24 24" fill="none">
    <path d="M12.0001 1.74951C15.2249 1.74951 18.2064 1.89542 20.6027 2.14307L21.5929 2.25537L22.1534 2.32471L22.2413 2.8833C22.5593 4.90578 22.7501 7.57949 22.7501 10.4995C22.7501 13.4195 22.5593 16.0932 22.2413 18.1157L22.1534 18.6743L21.5929 18.7437C19.2232 19.0378 16.1325 19.2221 12.7365 19.2456L7.25012 22.2495V19.1353C5.44467 19.0483 3.8017 18.9167 2.40735 18.7437L1.8468 18.6743L1.75891 18.1157C1.44094 16.0932 1.25012 13.4195 1.25012 10.4995C1.25012 7.57949 1.44094 4.90578 1.75891 2.8833L1.8468 2.32471L2.40735 2.25537C4.94677 1.94016 8.31481 1.74951 12.0001 1.74951ZM5.08606 10.4487L9.50012 14.8628L10.9142 13.4487L7.91418 10.4487L10.9142 7.44873L9.50012 6.03467L5.08606 10.4487ZM13.0861 7.44873L16.0861 10.4487L13.0861 13.4487L14.5001 14.8628L18.9142 10.4487L14.5001 6.03467L13.0861 7.44873Z" fill="currentColor" />
</svg>