<svg xmlns="http://www.w3.org/2000/svg" width="24" height="24" viewBox="0 0 24 24" fill="none">
    <path fill-rule="evenodd" clip-rule="evenodd" d="M2.66372 1.25L22.7495 21.3358L21.3353 22.75L1.24951 2.66421L2.66372 1.25Z" fill="currentColor" />
    <path d="M19.2476 19.248C17.3927 21.1029 14.83 22.25 11.9995 22.25C10.2603 22.25 8.62058 21.8156 7.18408 21.0498C5.40992 20.2861 3.66508 20.6508 2.56494 20.7471L1.24951 20.9092L1.85303 19.6201C2.03645 19.3073 2.28951 18.6256 2.41748 17.7812C2.54442 16.9434 2.53458 16.0289 2.271 15.2363C1.93241 14.2181 1.74951 13.1296 1.74951 12C1.74951 9.16954 2.89658 6.60684 4.75146 4.75195L19.2476 19.248Z" fill="currentColor" />
    <path d="M11.9995 1.75C17.6604 1.75 22.2495 6.33908 22.2495 12C22.2495 13.9238 21.7174 15.7226 20.7954 17.2607L6.73779 3.20312C8.27604 2.28106 10.0756 1.75 11.9995 1.75Z" fill="currentColor" />
</svg>