<svg xmlns="http://www.w3.org/2000/svg" width="24" height="24" viewBox="0 0 24 24" fill="none">
    <path d="M11.8448 2.25C13.384 2.25 14.7287 2.39133 15.8975 2.66113L12.3096 6.25L18.4913 12.4316L22.2462 8.67578C22.4992 9.73486 22.5948 10.8596 22.5948 12C22.5948 14.6251 21.8355 17.0854 20.0528 18.8906C18.2664 20.6995 15.5519 21.75 11.8448 21.75C10.0312 21.75 8.48427 21.5404 7.17291 21.1465C6.34198 21.8562 4.70858 22.75 2.4776 22.75H1.7276C2.4801 22.1716 3.51786 19.3846 2.58209 17.9004C1.4756 16.2122 1.09479 14.1434 1.09479 12C1.09479 9.42427 1.64529 6.95115 3.34576 5.125C5.05515 3.28928 7.79182 2.25 11.8448 2.25ZM7.84479 11C7.2925 11 6.84479 11.4477 6.84479 12C6.84479 12.5523 7.2925 13 7.84479 13C8.39707 13 8.84479 12.5523 8.84479 12C8.84479 11.4477 8.39707 11 7.84479 11ZM11.8448 11C11.3271 11 10.901 11.3933 10.8497 11.8975L10.8448 12L10.8497 12.1025C10.901 12.6067 11.3271 13 11.8448 13C12.397 12.9999 12.8448 12.5522 12.8448 12C12.8448 11.4824 12.4514 11.0563 11.9473 11.0049L11.8448 11Z" fill="currentColor" />
    <path d="M17.4913 1.25H19.4913V6.83594L21.4913 4.83594L22.9053 6.25L19.4913 9.66406V9.75H19.4053L18.4913 10.6641L17.5772 9.75H17.4913V9.66406L14.0772 6.25L15.4913 4.83594L17.4913 6.83594V1.25Z" fill="currentColor" />
</svg>