<svg xmlns="http://www.w3.org/2000/svg" width="24" height="24" viewBox="0 0 24 24" fill="none">
    <path d="M12.0001 1.75C15.2249 1.75 18.2064 1.89591 20.6027 2.14355L21.5929 2.25586L22.1534 2.3252L22.2413 2.88379C22.5593 4.90627 22.7501 7.57998 22.7501 10.5C22.7501 13.42 22.5593 16.0937 22.2413 18.1162L22.1534 18.6748L21.5929 18.7441C19.2232 19.0383 16.1325 19.2226 12.7365 19.2461L7.25012 22.25V19.1357C5.44467 19.0488 3.8017 18.9172 2.40735 18.7441L1.8468 18.6748L1.75891 18.1162C1.44094 16.0937 1.25012 13.42 1.25012 10.5C1.25012 7.57998 1.44094 4.90627 1.75891 2.88379L1.8468 2.3252L2.40735 2.25586C4.94677 1.94064 8.31481 1.75 12.0001 1.75ZM8.505 14V16H15.505V14H8.505ZM11.0001 7.49414H8.505V9.49414H11.0001V12H13.0001V9.49414H15.505V7.49414H13.0001V5H11.0001V7.49414Z" fill="currentColor" />
</svg>