<svg xmlns="http://www.w3.org/2000/svg" width="24" height="24" viewBox="0 0 24 24" fill="none">
    <path d="M16.9247 19.2056L15.9483 19.2447C14.9397 19.2851 13.8839 19.3088 12.7951 19.3171L8.52241 22.2495H7.11376V17.2923H9.0683V19.5059L11.9352 17.5392L12.1834 17.3695L12.484 17.3676C13.6573 17.3621 14.7922 17.3364 15.8701 17.2932L16.8464 17.2542L16.9247 19.2056ZM3.32683 14.3761C3.38936 15.3191 3.47372 16.1919 3.57592 16.9729C3.80223 16.9972 4.03508 17.0211 4.27356 17.0435L5.24606 17.135L5.06378 19.0788L4.09032 18.9873C3.56642 18.9382 3.06705 18.8846 2.59578 18.8262L1.86474 18.7356L1.75021 18.0082C1.58935 16.9861 1.46293 15.8 1.37705 14.5048L1.31216 13.5305L3.26193 13.4018L3.32683 14.3761ZM22.6881 13.5305L22.6232 14.5048C22.5373 15.8 22.4109 16.9861 22.25 18.0082L22.1355 18.7356L21.4045 18.8262C20.9332 18.8846 20.4338 18.9382 19.9099 18.9873L18.9365 19.0788L18.7542 17.135L19.7267 17.0435C19.9648 17.0212 20.1974 16.9972 20.4234 16.9729C20.5256 16.1919 20.6109 15.3191 20.6734 14.3761L20.7383 13.4018L22.6881 13.5305ZM1.25012 10.5352C1.25013 9.85893 1.26058 9.19657 1.28066 8.55329L1.3112 7.5771L3.26479 7.63811L3.23425 8.61335C3.21481 9.23626 3.20467 9.87883 3.20467 10.5352V11.5114H1.25012V10.5352ZM20.7956 10.5352C20.7956 9.87883 20.7854 9.23626 20.766 8.61335L20.7355 7.63811L22.689 7.5771L22.7196 8.55329C22.7397 9.19657 22.7501 9.85893 22.7501 10.5352V11.5114H20.7956V10.5352ZM5.24606 3.93641L4.27356 4.02793C4.03511 4.05027 3.80221 4.07327 3.57592 4.09752C3.54687 4.31946 3.51997 4.54924 3.49384 4.78581L3.386 5.75628L1.44386 5.54178L1.55075 4.57131C1.60967 4.03794 1.67613 3.53284 1.75021 3.06222L1.86474 2.3358L2.59578 2.24523C3.06705 2.1868 3.56642 2.13322 4.09032 2.08412L5.06378 1.99261L5.24606 3.93641ZM19.9099 2.08412C20.172 2.10868 20.4279 2.1344 20.6772 2.16134L21.4045 2.24523L22.1355 2.3358L22.25 3.06222C22.3241 3.53284 22.3906 4.03795 22.4495 4.57131L22.5564 5.54178L20.6142 5.75628L20.5064 4.78581C20.4803 4.5492 20.4524 4.3195 20.4234 4.09752C20.1974 4.0733 19.9648 4.05024 19.7267 4.02793L18.7542 3.93641L18.9365 1.99261L19.9099 2.08412ZM11.0419 3.70189L10.0647 3.72096C9.40305 3.73369 8.75683 3.75307 8.13016 3.77816L7.15384 3.81724L7.07558 1.86582L8.0519 1.82673C8.69235 1.80109 9.35176 1.78157 10.0265 1.76858L11.0038 1.74951L11.0419 3.70189ZM13.9738 1.76858C14.6485 1.78157 15.3079 1.80109 15.9483 1.82673L16.9247 1.86582L16.8464 3.81724L15.8701 3.77816C15.2434 3.75307 14.5972 3.73369 13.9356 3.72096L12.9583 3.70189L12.9965 1.74951L13.9738 1.76858Z" fill="currentColor" />
</svg>