<svg xmlns="http://www.w3.org/2000/svg" width="24" height="24" viewBox="0 0 24 24" fill="none">
    <path fill-rule="evenodd" clip-rule="evenodd" d="M11.9995 2.25C12.2817 2.25 12.5573 2.25527 12.8266 2.26465C12.4492 2.64408 12.1423 3.0053 11.9213 3.28613C11.8306 3.40149 11.6374 3.6804 11.5014 3.87793C11.4258 3.98778 10.7904 4.92282 10.7377 5C10.7904 5.07718 11.4258 6.01222 11.5014 6.12207C11.6374 6.3196 11.8306 6.59851 11.9213 6.71387C12.1852 7.04922 12.5699 7.50092 13.0532 7.95898C13.9462 8.80554 15.5154 10 17.4985 10C19.4815 10 21.0507 8.80554 21.9438 7.95898C22.0107 7.89554 22.0731 7.82951 22.1362 7.7666C22.5896 9.07966 22.7495 10.5266 22.7495 12C22.7495 14.6251 21.9902 17.0854 20.2075 18.8906C18.421 20.6995 15.7066 21.75 11.9995 21.75C10.1859 21.75 8.63893 21.5404 7.32758 21.1465C6.49664 21.8562 4.86325 22.75 2.63226 22.75H1.88226C2.63476 22.1716 3.67252 19.3846 2.73676 17.9004C1.63026 16.2122 1.24945 14.1434 1.24945 12C1.24945 9.42427 1.79995 6.95115 3.50043 5.125C5.20982 3.28928 7.94649 2.25 11.9995 2.25ZM7.99945 11C7.44716 11 6.99945 11.4477 6.99945 12C6.99945 12.5523 7.44717 13 7.99945 13C8.55173 13 8.99945 12.5523 8.99945 12C8.99945 11.4477 8.55173 11 7.99945 11ZM11.9995 11C11.4818 11 11.0557 11.3933 11.0043 11.8975L10.9995 12L11.0043 12.1025C11.0557 12.6067 11.4818 13 11.9995 13C12.5517 12.9999 12.9995 12.5522 12.9995 12C12.9995 11.4824 12.606 11.0563 12.102 11.0049L11.9995 11ZM15.9995 11C15.4472 11 14.9995 11.4477 14.9995 12C14.9995 12.5523 15.4472 13 15.9995 13C16.5517 13 16.9995 12.5523 16.9995 12C16.9995 11.4477 16.5517 11 15.9995 11Z" fill="currentColor" />
    <path fill-rule="evenodd" clip-rule="evenodd" d="M22.7505 5C22.7505 5 22.2145 4.21064 22.0955 4.05931C21.8583 3.75779 21.514 3.35422 21.0858 2.94832C20.2554 2.16121 18.9886 1.25 17.5005 1.25C16.0124 1.25 14.7456 2.16121 13.9152 2.94832C13.487 3.35422 13.1427 3.75779 12.9055 4.05931C12.7865 4.21064 12.2505 5 12.2505 5C12.2505 5 12.7865 5.78936 12.9055 5.94069C13.1427 6.24221 13.487 6.64578 13.9152 7.05168C14.7456 7.83879 16.0124 8.75 17.5005 8.75C18.9886 8.75 20.2554 7.83879 21.0858 7.05168C21.514 6.64578 21.8583 6.24221 22.0955 5.94069C22.2145 5.78936 22.7505 5 22.7505 5ZM17.4938 3.5C16.6691 3.5 16.0005 4.17157 16.0005 5C16.0005 5.82843 16.6691 6.5 17.4938 6.5H17.5072C18.3319 6.5 19.0005 5.82843 19.0005 5C19.0005 4.17157 18.3319 3.5 17.5072 3.5H17.4938Z" fill="currentColor" />
</svg>