<svg xmlns="http://www.w3.org/2000/svg" width="24" height="24" viewBox="0 0 24 24" fill="none">
    <path d="M12 2.25C12.3429 2.25 12.6762 2.25864 13 2.27246V12H22.75C22.75 14.6251 21.9907 17.0854 20.208 18.8906C18.4216 20.6995 15.7071 21.75 12 21.75C10.1864 21.75 8.63948 21.5404 7.32812 21.1465C6.49719 21.8562 4.8638 22.75 2.63281 22.75H1.88281C2.63531 22.1716 3.67307 19.3846 2.7373 17.9004C1.63081 16.2122 1.25 14.1434 1.25 12C1.25 9.42427 1.8005 6.95115 3.50098 5.125C5.21037 3.28928 7.94704 2.25 12 2.25ZM8 11C7.44771 11 7 11.4477 7 12C7 12.5523 7.44772 13 8 13C8.55228 13 9 12.5523 9 12C9 11.4477 8.55228 11 8 11ZM12 11C11.4823 11 11.0562 11.3933 11.0049 11.8975L11 12L11.0049 12.1025C11.0562 12.6067 11.4823 13 12 13C12.5522 12.9999 13 12.5522 13 12C13 11.4824 12.6066 11.0563 12.1025 11.0049L12 11Z" fill="currentColor" />
    <path fill-rule="evenodd" clip-rule="evenodd" d="M18.5 1.25C20.0188 1.25 21.25 2.48122 21.25 4V4.75H22.75V10.75H14.25V4.75H15.75V4C15.75 2.48122 16.9812 1.25 18.5 1.25ZM18.5 2.75C17.8096 2.75 17.25 3.30964 17.25 4V4.75H19.75V4C19.75 3.30964 19.1904 2.75 18.5 2.75Z" fill="currentColor" />
</svg>