<svg xmlns="http://www.w3.org/2000/svg" width="24" height="24" viewBox="0 0 24 24" fill="none">
    <path d="M12.0002 1.75C16.1779 1.75 18.9236 2.7851 20.6047 4.63086C22.2744 6.46411 22.7502 8.94321 22.7502 11.5C22.7502 14.1251 21.9909 16.5854 20.2082 18.3906C18.4218 20.1995 15.7073 21.25 12.0002 21.25C10.1866 21.25 8.63967 21.0404 7.32831 20.6465C6.49737 21.3562 4.86398 22.25 2.633 22.25H1.883C2.63549 21.6716 3.67326 18.8846 2.73749 17.4004C1.63099 15.7122 1.25018 13.6434 1.25018 11.5C1.25018 8.92427 1.80068 6.45115 3.50116 4.625C5.21055 2.78928 7.94722 1.75 12.0002 1.75ZM8.00018 10.5C7.4479 10.5 7.00018 10.9477 7.00018 11.5C7.00018 12.0523 7.4479 12.5 8.00018 12.5C8.55246 12.5 9.00018 12.0523 9.00018 11.5C9.00018 10.9477 8.55247 10.5 8.00018 10.5ZM12.0002 10.5C11.4825 10.5 11.0564 10.8933 11.0051 11.3975L11.0002 11.5L11.0051 11.6025C11.0564 12.1067 11.4825 12.5 12.0002 12.5C12.5524 12.4999 13.0002 12.0522 13.0002 11.5C13.0002 10.9824 12.6068 10.5563 12.1027 10.5049L12.0002 10.5ZM16.0002 10.5C15.4479 10.5 15.0002 10.9477 15.0002 11.5C15.0002 12.0523 15.4479 12.5 16.0002 12.5C16.5525 12.5 17.0002 12.0523 17.0002 11.5C17.0002 10.9477 16.5525 10.5 16.0002 10.5Z" fill="currentColor" />
</svg>