<svg xmlns="http://www.w3.org/2000/svg" width="24" height="24" viewBox="0 0 24 24" fill="none">
    <path d="M12 2.25C12.4959 2.25 12.9716 2.26515 13.4277 2.29395C12.9836 3.23159 12.8876 4.3349 13.1455 5.36914L13.1963 5.55664C13.7676 7.48132 15.6647 9.11193 18.0811 9.97363L18.501 10.123L18.9209 9.97363C20.2084 9.51449 21.3463 8.8346 22.2168 8.01074C22.6086 9.2581 22.75 10.6173 22.75 12C22.75 14.6251 21.9907 17.0854 20.208 18.8906C18.4216 20.6995 15.7071 21.75 12 21.75C10.1864 21.75 8.63948 21.5404 7.32812 21.1465C6.49719 21.8562 4.8638 22.75 2.63281 22.75H1.88281C2.63531 22.1716 3.67307 19.3846 2.7373 17.9004C1.63081 16.2122 1.25 14.1434 1.25 12C1.25 9.42427 1.8005 6.95115 3.50098 5.125C5.21037 3.28928 7.94704 2.25 12 2.25ZM8 11C7.44771 11 7 11.4477 7 12C7 12.5523 7.44772 13 8 13C8.55228 13 9 12.5523 9 12C9 11.4477 8.55228 11 8 11ZM12 11C11.4823 11 11.0562 11.3933 11.0049 11.8975L11 12L11.0049 12.1025C11.0562 12.6067 11.4823 13 12 13C12.5522 12.9999 13 12.5522 13 12C13 11.4824 12.6066 11.0563 12.1025 11.0049L12 11ZM16 11C15.4477 11 15 11.4477 15 12C15 12.5523 15.4477 13 16 13C16.5523 13 17 12.5523 17 12C17 11.4477 16.5523 11 16 11Z" fill="currentColor" />
    <path d="M21.2421 1.5803C20.3151 1.10691 19.4826 1.21466 18.8934 1.4553C18.7458 1.51563 18.6148 1.58482 18.5009 1.65257C18.3869 1.58482 18.256 1.51563 18.1083 1.4553C17.5191 1.21466 16.6866 1.10692 15.7596 1.5803C14.5486 2.19891 14.0047 3.64886 14.3583 5.06663C14.7196 6.51503 16.2259 7.98486 18.5009 8.79612C20.7758 7.98486 22.2821 6.51504 22.6434 5.06663C22.997 3.64885 22.4531 2.19891 21.2421 1.5803Z" fill="currentColor" />
</svg>