<svg xmlns="http://www.w3.org/2000/svg" width="24" height="24" viewBox="0 0 24 24" fill="none">
    <path d="M15.3628 2.09564C17.2635 2.096 18.8853 3.47071 19.1978 5.34564L20.688 14.2812C20.7293 14.5291 20.7495 14.7809 20.7495 15.0322C20.7494 16.3509 20.1889 17.5379 19.2945 18.371L21.4136 20.4902L19.9995 21.9042L17.4986 19.4033C17.0828 19.5279 16.6424 19.5956 16.1861 19.5956H7.81302C7.35639 19.5956 6.91553 19.5281 6.49954 19.4033L3.99954 21.9042L2.58548 20.4902L4.70364 18.371C3.80947 17.5379 3.24967 16.3506 3.24954 15.0322C3.24955 14.7809 3.26977 14.5291 3.31107 14.2812L4.8013 5.34564C5.11379 3.47071 6.73554 2.096 8.63626 2.09564H15.3628ZM8.99954 13.8456C8.44726 13.8456 7.99954 14.2934 7.99954 14.8456C7.99954 15.3979 8.44726 15.8456 8.99954 15.8456C9.55182 15.8456 9.99954 15.3979 9.99954 14.8456C9.99954 14.2934 9.55183 13.8456 8.99954 13.8456ZM14.9995 13.8456C14.4473 13.8456 13.9995 14.2934 13.9995 14.8456C13.9995 15.3979 14.4473 15.8456 14.9995 15.8456C15.5518 15.8456 15.9995 15.3979 15.9995 14.8456C15.9995 14.2934 15.5518 13.8456 14.9995 13.8456ZM8.63724 4.04095C7.68712 4.04131 6.8756 4.72874 6.71927 5.66595L6.17923 8.90521C9.68487 11.8258 14.7352 11.8004 17.8306 8.96674L17.2808 5.66595C17.1245 4.72874 16.3139 4.04131 15.3638 4.04095H8.63724Z" fill="currentColor" />
</svg>