<svg xmlns="http://www.w3.org/2000/svg" width="24" height="24" viewBox="0 0 24 24" fill="none">
    <path d="M20.7495 11.7314H18.2417V14.249H21.7349V17.5146C21.7349 18.5578 21.3561 19.5114 20.73 20.249H22.7505V21.749H13.8013V21.75L3.26416 21.751V21.749H1.26904V20.249H3.26416V9.24902H1.24951V2.24902H20.7495V11.7314ZM10.7456 17.0547C10.7457 17.5831 10.9402 18.3618 11.4312 19.0156C11.9003 19.6404 12.6494 20.1656 13.8286 20.249H14.2524C13.6262 19.5114 13.2476 18.5577 13.2476 17.5146V14.249H16.7417V11.7314H14.5249L14.3345 11.2627L13.522 9.25586H10.7456V17.0547ZM14.7476 17.5146C14.7476 19.0227 15.9743 20.249 17.4917 20.249C19.009 20.2489 20.2349 19.0226 20.2349 17.5146V15.749H14.7476V17.5146ZM16.9995 4.99902C16.4472 4.99902 15.9995 5.44674 15.9995 5.99902C15.9995 6.55131 16.4472 6.99902 16.9995 6.99902C17.5518 6.99902 17.9995 6.55131 17.9995 5.99902C17.9995 5.44674 17.5518 4.99902 16.9995 4.99902Z" fill="currentColor" />
</svg>