<svg xmlns="http://www.w3.org/2000/svg" width="24" height="24" viewBox="0 0 24 24" fill="none">
    <path fill-rule="evenodd" clip-rule="evenodd" d="M19 13.25C20.5188 13.25 21.75 14.4812 21.75 16V16.25H22.75V21.75H15.25V16.25H16.25V16C16.25 14.4812 17.4812 13.25 19 13.25ZM19 14.75C18.3096 14.75 17.75 15.3096 17.75 16V16.25H20.25V16C20.25 15.3096 19.6904 14.75 19 14.75Z" fill="currentColor" />
    <path fill-rule="evenodd" clip-rule="evenodd" d="M22.75 14.6113C22.208 13.1483 20.837 12.0876 19.2061 12.0049L19 12C17.1362 12 15.57 13.2748 15.126 15H14V18.75H1.25V3.25H22.75V14.6113ZM2.75 17.25H5.92969C5.62471 15.6423 4.35769 14.3753 2.75 14.0703V17.25ZM12 8C10.3431 8 9 9.34315 9 11C9 12.6569 10.3431 14 12 14C13.6569 14 15 12.6569 15 11C15 9.34315 13.6569 8 12 8ZM2.75 7.92969C4.35769 7.62471 5.62471 6.35769 5.92969 4.75H2.75V7.92969ZM18.0703 4.75C18.3753 6.35769 19.6423 7.62471 21.25 7.92969V4.75H18.0703Z" fill="currentColor" />
</svg>