<svg xmlns="http://www.w3.org/2000/svg" width="24" height="24" viewBox="0 0 24 24" fill="none">
    <path d="M2.18164 4.23193C6.10583 5.21298 8.25974 5.20168 10.0254 4.96631C11.7553 4.73566 13.4431 4.20947 16 4.20947C18.063 4.20947 19.624 4.46754 20.6816 4.73193C21.8825 5.03214 22.75 5.49561 22.75 5.49561V19.9985C22.75 19.9985 21.4617 19.298 20.3184 19.0122C19.376 18.7766 17.9368 18.5347 16 18.5347C13.5571 18.5347 12.2445 19.0085 10.2246 19.2778C8.24039 19.5424 5.89364 19.531 1.81836 18.5122L1.25 18.3706V3.99854L2.18164 4.23193ZM12 8.99854C10.3431 8.99854 9 10.3417 9 11.9985C9 13.6554 10.3431 14.9985 12 14.9985C13.6569 14.9985 15 13.6554 15 11.9985C15 10.3417 13.6569 8.99854 12 8.99854ZM5.5 11.4995C4.94771 11.4995 4.5 11.9472 4.5 12.4995C4.5 13.0518 4.94772 13.4995 5.5 13.4995C6.05228 13.4995 6.5 13.0518 6.5 12.4995C6.5 11.9472 6.05228 11.4995 5.5 11.4995ZM18.5 10.4995C17.9477 10.4995 17.5 10.9472 17.5 11.4995C17.5 12.0518 17.9477 12.4995 18.5 12.4995C19.0523 12.4995 19.5 12.0518 19.5 11.4995C19.5 10.9472 19.0523 10.4995 18.5 10.4995Z" fill="currentColor" />
</svg>