<svg xmlns="http://www.w3.org/2000/svg" width="24" height="24" viewBox="0 0 24 24" fill="none">
    <path d="M17.125 19.75V21.75H7.125V19.75H17.125Z" fill="currentColor" />
    <rect x="2.125" y="3" width="20" height="14" stroke="currentColor" stroke-width="2" />
    <path d="M9.125 16H11.125V21H9.125V16ZM13.125 16H15.125V21H13.125V16Z" fill="currentColor" />
    <path d="M22.875 18H1.125V2.25H22.875V18ZM10.9893 5.55273V7.25C10.6384 7.37461 10.317 7.56219 10.0391 7.79883L8.60156 6.95703L7.58203 8.71191L9.01855 9.55371C8.98358 9.73882 8.96582 9.93028 8.96582 10.125C8.96583 10.3196 8.98362 10.5103 9.01855 10.6953L7.58203 11.5371L8.60156 13.293L10.0391 12.4502C10.317 12.6869 10.6383 12.8753 10.9893 13V14.6973H13.0117V13C13.3627 12.8753 13.6839 12.6869 13.9619 12.4502L15.3994 13.293L16.4189 11.5371L14.9824 10.6953C15.0174 10.5103 15.0351 10.3196 15.0352 10.125C15.0352 9.93046 15.0173 9.73963 14.9824 9.55469L16.4189 8.71191L15.3994 6.95703L13.9619 7.79883C13.684 7.56219 13.3626 7.37462 13.0117 7.25V5.55273H10.9893ZM12 9.1084C12.3715 9.1084 12.698 9.30923 12.875 9.61328C12.9619 9.76264 13.0117 9.93658 13.0117 10.125C13.0117 10.3132 12.9618 10.4865 12.875 10.6357C12.698 10.9399 12.3715 11.1406 12 11.1406C11.6287 11.1405 11.3029 10.9398 11.126 10.6357C11.0392 10.4865 10.9893 10.3132 10.9893 10.125C10.9893 9.93658 11.039 9.76264 11.126 9.61328C11.303 9.30936 11.6287 9.10857 12 9.1084Z" fill="currentColor" />
</svg>