<svg xmlns="http://www.w3.org/2000/svg" width="24" height="24" viewBox="0 0 24 24" fill="none">
    <path d="M22.25 21.25V22.75H20.5C19.3221 22.75 18.3195 22.0086 17.9277 20.9678C18.3951 20.6582 18.8377 20.3143 19.25 19.9375V20C19.25 20.6904 19.8096 21.25 20.5 21.25H22.25Z" fill="currentColor" />
    <path d="M12 22.75C14.1911 22.75 16.2283 22.0934 17.9277 20.9678C17.8143 20.6665 17.75 20.3409 17.75 20V13.7383C17.0086 14.3685 16.0493 14.75 15 14.75C12.6528 14.75 10.75 12.8472 10.75 10.5C10.75 8.15279 12.6528 6.25 15 6.25C17.3472 6.25 19.25 8.15279 19.25 10.5C19.25 10.5839 19.247 10.6673 19.2422 10.75H19.25V19.9375C21.4009 17.9718 22.75 15.1434 22.75 12C22.75 6.06294 17.9371 1.25 12 1.25C6.06294 1.25 1.25 6.06294 1.25 12C1.25 17.9371 6.06294 22.75 12 22.75ZM15 13.25C16.5188 13.25 17.75 12.0188 17.75 10.5C17.75 8.98122 16.5188 7.75 15 7.75C13.4812 7.75 12.25 8.98122 12.25 10.5C12.25 12.0188 13.4812 13.25 15 13.25ZM5.25 9.25L8.75 9.25V10.75L5.25 10.75V9.25ZM15 11.5C14.4477 11.5 14 11.0523 14 10.5C14 9.94771 14.4477 9.5 15 9.5C15.5523 9.5 16 9.94771 16 10.5C16 11.0523 15.5523 11.5 15 11.5ZM11.999 18.75C10.1175 18.75 8.44709 17.8451 7.39941 16.4502L6.94922 15.8506L8.14844 14.9502L8.59863 15.5498C9.37521 16.5837 10.6093 17.25 11.999 17.25H12.749V18.75H11.999Z" fill="currentColor" />
</svg>