<svg xmlns="http://www.w3.org/2000/svg" width="24" height="24" viewBox="0 0 24 24" fill="none">
    <path d="M17.0001 16.2476C17.0001 16.7998 16.5523 17.2476 16.0001 17.2476C15.4478 17.2476 15.0001 16.7998 15.0001 16.2476C15.0001 15.6953 15.4478 15.2476 16.0001 15.2476C16.5523 15.2476 17.0001 15.6953 17.0001 16.2476Z" fill="currentColor" />
    <path d="M9.00006 16.2476C9.00006 16.7998 8.55235 17.2476 8.00006 17.2476C7.44778 17.2476 7.00006 16.7998 7.00006 16.2476C7.00006 15.6953 7.44778 15.2476 8.00006 15.2476C8.55235 15.2476 9.00006 15.6953 9.00006 16.2476Z" fill="currentColor" />
    <path d="M9.00006 20.2476C9.00006 20.7998 8.55235 21.2476 8.00006 21.2476C7.44778 21.2476 7.00006 20.7998 7.00006 20.2476C7.00006 19.6953 7.44778 19.2476 8.00006 19.2476C8.55235 19.2476 9.00006 19.6953 9.00006 20.2476Z" fill="currentColor" />
    <path d="M13.0001 18.2476C13.0001 18.7998 12.5523 19.2476 12.0001 19.2476C11.4478 19.2476 11.0001 18.7998 11.0001 18.2476C11.0001 17.6953 11.4478 17.2476 12.0001 17.2476C12.5523 17.2476 13.0001 17.6953 13.0001 18.2476Z" fill="currentColor" />
    <path d="M17.0001 20.2476C17.0001 20.7998 16.5523 21.2476 16.0001 21.2476C15.4478 21.2476 15.0001 20.7998 15.0001 20.2476C15.0001 19.6953 15.4478 19.2476 16.0001 19.2476C16.5523 19.2476 17.0001 19.6953 17.0001 20.2476Z" fill="currentColor" />
    <path d="M13.0001 22.2476C13.0001 22.7998 12.5523 23.2476 12.0001 23.2476C11.4478 23.2476 11.0001 22.7998 11.0001 22.2476C11.0001 21.6953 11.4478 21.2476 12.0001 21.2476C12.5523 21.2476 13.0001 21.6953 13.0001 22.2476Z" fill="currentColor" />
    <path fill-rule="evenodd" clip-rule="evenodd" d="M7.66016 1.16406C8.87929 1.51205 9.97022 2.32326 10.6514 3.51465C10.8896 3.93141 11.0627 4.36916 11.1738 4.81543C11.4441 4.77974 11.7199 4.76172 12 4.76172C15.3858 4.76172 18.1429 7.45396 18.2471 10.8145C20.7927 11.1771 22.75 13.3658 22.75 16.0117C22.75 18.6007 20.8757 20.7516 18.4102 21.1826C18.5832 20.5587 18.5155 19.8686 18.166 19.2637C17.9936 18.9653 17.7675 18.714 17.5059 18.5166C18.5025 17.7678 18.8054 16.3751 18.166 15.2686C17.4839 14.0884 15.9565 13.6473 14.7461 14.3467C13.9391 14.813 13.5004 15.6548 13.5 16.5137C12.7272 15.9353 11.6505 15.824 10.749 16.3447C10.6642 16.3937 10.5825 16.447 10.5059 16.5039C10.5036 16.0839 10.396 15.6582 10.1709 15.2686C9.48894 14.0884 7.96144 13.6475 6.75098 14.3467C5.54043 15.0461 5.15883 16.5901 5.84082 17.7705C6.01263 18.0679 6.23664 18.3165 6.49414 18.5117C5.69101 19.1173 5.3487 20.1373 5.56934 21.082C3.08589 20.4461 1.25 18.1934 1.25 15.5117C1.25 13.4224 2.36357 11.5928 4.03027 10.5859C3.17705 10.1558 2.43542 9.47763 1.92383 8.58301C1.24306 7.39224 1.09509 6.03759 1.4043 4.80469L1.77441 3.33105L2.98145 4.25293C3.6475 4.76087 4.57155 4.84531 5.33496 4.40039C6.10063 3.95399 6.49664 3.0952 6.39258 2.24805L6.20898 0.75L7.66016 1.16406ZM8.23828 3.69434C7.94993 4.68292 7.30141 5.56895 6.34277 6.12793C5.38261 6.68771 4.29336 6.81365 3.2959 6.57031C3.35532 6.91985 3.47335 7.26577 3.65918 7.59082C4.17882 8.49938 5.08623 9.0334 6.04395 9.1123C6.56195 7.48665 7.72716 6.15063 9.23633 5.40527C9.16752 5.10897 9.06042 4.76129 8.91504 4.50684C8.73275 4.18804 8.50079 3.91763 8.23828 3.69434Z" fill="currentColor" />
</svg>