<svg xmlns="http://www.w3.org/2000/svg" width="24" height="24" viewBox="0 0 24 24" fill="none">
    <path d="M12 1.25C13.213 1.25 14.3806 1.45111 15.4697 1.82227C14.7117 2.66393 14.25 3.77813 14.25 5C14.25 7.62335 16.3766 9.75 19 9.75C20.2219 9.75 21.3361 9.28828 22.1777 8.53027C22.5489 9.61938 22.75 10.787 22.75 12C22.75 17.9371 17.9371 22.75 12 22.75C6.06294 22.75 1.25 17.9371 1.25 12C1.25 6.06294 6.06294 1.25 12 1.25ZM14 13.25C12.4812 13.25 11.25 14.4812 11.25 16C11.25 17.5188 12.4812 18.75 14 18.75C15.5188 18.75 16.75 17.5188 16.75 16C16.75 14.4812 15.5188 13.25 14 13.25ZM14 14.75C14.6904 14.75 15.25 15.3096 15.25 16C15.25 16.6904 14.6904 17.25 14 17.25C13.3096 17.25 12.75 16.6904 12.75 16C12.75 15.3096 13.3096 14.75 14 14.75ZM7 13C6.44772 13 6 13.4477 6 14C6 14.5523 6.44772 15 7 15H7.00684C7.5589 14.9997 8.00684 14.5521 8.00684 14C8.00684 13.4479 7.5589 13.0003 7.00684 13H7ZM10 7C9.44771 7 9 7.44772 9 8C9 8.55228 9.44771 9 10 9H10.0068C10.5589 8.99974 11.0068 8.55212 11.0068 8C11.0068 7.44788 10.5589 7.00026 10.0068 7H10ZM16.9668 2.46387C18.918 3.48219 20.5178 5.08196 21.5361 7.0332C20.9405 7.77523 20.0256 8.25 19 8.25C17.2051 8.25 15.75 6.79493 15.75 5C15.75 3.97444 16.2248 3.05951 16.9668 2.46387Z" fill="currentColor" />
</svg>