<svg xmlns="http://www.w3.org/2000/svg" width="24" height="24" viewBox="0 0 24 24" fill="none">
    <path d="M12.208 1.25494C18.049 1.36582 22.75 6.13251 22.75 12.0001C22.75 17.8676 18.049 22.6333 12.208 22.7442C12.139 22.7474 12.0697 22.7501 12 22.7501L11.4473 22.7364C5.76707 22.4487 1.25 17.7517 1.25 12.0001C1.25 6.063 6.06294 1.25006 12 1.25006C12.0697 1.25006 12.1391 1.25174 12.208 1.25494ZM16.459 3.89459C16.6081 4.10246 16.7511 4.31858 16.8857 4.54303C18.0526 6.48777 18.75 9.12608 18.75 12.0001C18.75 14.874 18.0526 17.5124 16.8857 19.4571C16.7512 19.6813 16.6079 19.8969 16.459 20.1046C19.3147 18.53 21.25 15.4916 21.25 12.0001C21.25 8.50831 19.3149 5.46905 16.459 3.89459ZM8.5 12.5001C7.39543 12.5001 6.5 13.3955 6.5 14.5001C6.5 15.6046 7.39543 16.5001 8.5 16.5001C9.60457 16.5001 10.5 15.6046 10.5 14.5001C10.5 13.3955 9.60457 12.5001 8.5 12.5001ZM11 6.00006C10.4477 6.00006 10 6.44778 10 7.00006C10 7.55235 10.4477 8.00006 11 8.00006H11.0088C11.5611 8.00006 12.0088 7.55235 12.0088 7.00006C12.0088 6.44778 11.5611 6.00006 11.0088 6.00006H11Z" fill="currentColor" />
</svg>