<svg xmlns="http://www.w3.org/2000/svg" width="24" height="24" viewBox="0 0 24 24" fill="none">
    <path d="M4.25 6C4.25 5.0335 5.0335 4.25 6 4.25C6.9665 4.25 7.75 5.0335 7.75 6C7.75 6.9665 6.9665 7.75 6 7.75C5.0335 7.75 4.25 6.9665 4.25 6Z" fill="currentColor" />
    <path d="M4.25 12C4.25 11.0335 5.0335 10.25 6 10.25C6.9665 10.25 7.75 11.0335 7.75 12C7.75 12.9665 6.9665 13.75 6 13.75C5.0335 13.75 4.25 12.9665 4.25 12Z" fill="currentColor" />
    <path d="M4.25 18C4.25 17.0335 5.0335 16.25 6 16.25C6.9665 16.25 7.75 17.0335 7.75 18C7.75 18.9665 6.9665 19.75 6 19.75C5.0335 19.75 4.25 18.9665 4.25 18Z" fill="currentColor" />
    <path d="M16.25 6C16.25 5.0335 17.0335 4.25 18 4.25C18.9665 4.25 19.75 5.0335 19.75 6C19.75 6.9665 18.9665 7.75 18 7.75C17.0335 7.75 16.25 6.9665 16.25 6Z" fill="currentColor" />
    <path d="M16.25 12C16.25 11.0335 17.0335 10.25 18 10.25C18.9665 10.25 19.75 11.0335 19.75 12C19.75 12.9665 18.9665 13.75 18 13.75C17.0335 13.75 16.25 12.9665 16.25 12Z" fill="currentColor" />
    <path d="M10.25 12C10.25 11.0335 11.0335 10.25 12 10.25C12.9665 10.25 13.75 11.0335 13.75 12C13.75 12.9665 12.9665 13.75 12 13.75C11.0335 13.75 10.25 12.9665 10.25 12Z" fill="currentColor" />
    <path d="M10.25 6C10.25 5.0335 11.0335 4.25 12 4.25C12.9665 4.25 13.75 5.0335 13.75 6C13.75 6.9665 12.9665 7.75 12 7.75C11.0335 7.75 10.25 6.9665 10.25 6Z" fill="currentColor" />
    <path d="M16.25 18C16.25 17.0335 17.0335 16.25 18 16.25C18.9665 16.25 19.75 17.0335 19.75 18C19.75 18.9665 18.9665 19.75 18 19.75C17.0335 19.75 16.25 18.9665 16.25 18Z" fill="currentColor" />
    <path d="M10.25 18C10.25 17.0335 11.0335 16.25 12 16.25C12.9665 16.25 13.75 17.0335 13.75 18C13.75 18.9665 12.9665 19.75 12 19.75C11.0335 19.75 10.25 18.9665 10.25 18Z" fill="currentColor" />
</svg>