<svg xmlns="http://www.w3.org/2000/svg" width="24" height="24" viewBox="0 0 24 24" fill="none">
    <path fill-rule="evenodd" clip-rule="evenodd" d="M5.066 5.06796C4.06395 6.99584 3.75 9.45144 3.75 12C3.75 14.7847 4.12483 17.4585 5.36262 19.4541C6.64252 21.5176 8.7768 22.75 12 22.75C15.2231 22.75 17.3574 21.5176 18.6373 19.4541C18.7418 19.2856 18.8402 19.1124 18.9326 18.9346L5.066 5.06796ZM19.7819 16.6003C20.1252 15.1764 20.25 13.6067 20.25 12C20.25 9.21527 19.8751 6.54152 18.6373 4.54592C17.3574 2.48242 15.2231 1.25 12 1.25C9.53622 1.25 7.70869 1.97008 6.41265 3.23101L11 7.81836V5H13V9H12.1816L19.7819 16.6003Z" fill="currentColor" />
    <path fill-rule="evenodd" clip-rule="evenodd" d="M2.66421 1.25L22.75 21.3358L21.3358 22.75L1.25 2.66421L2.66421 1.25Z" fill="currentColor" />
</svg>