<svg xmlns="http://www.w3.org/2000/svg" width="24" height="24" viewBox="0 0 24 24" fill="none">
    <path fill-rule="evenodd" clip-rule="evenodd" d="M18.25 3V6.75H21.25C21.8023 6.75 22.25 7.19772 22.25 7.75V18.75C22.25 20.2388 21.1655 21.4743 19.7434 21.7096C19.5829 21.7362 19.4181 21.75 19.25 21.75H2.5C2.08579 21.75 1.75 21.4142 1.75 21V3C1.75 2.58579 2.08579 2.25 2.5 2.25H17.5C17.9142 2.25 18.25 2.58579 18.25 3ZM20.25 18.75C20.25 19.3023 19.8023 19.75 19.25 19.75C18.6977 19.75 18.25 19.3023 18.25 18.75V8.75H20.25V18.75ZM14.75 5.25V10.75H5.25V5.25H14.75ZM14.75 14.75V13.25H5.25V14.75H14.75ZM11.75 17.25V18.75H5.25V17.25H11.75Z" fill="currentColor" />
</svg>