<svg xmlns="http://www.w3.org/2000/svg" width="24" height="24" viewBox="0 0 24 24" fill="none">
    <path d="M11.25 18.75H6C3.37665 18.75 1.25 16.6234 1.25 14V6C1.25 3.37665 3.37665 1.25 6 1.25H11.25V18.75ZM6.25 13C5.69771 13 5.25 13.4477 5.25 14C5.25 14.5523 5.69772 15 6.25 15C6.80228 15 7.25 14.5523 7.25 14C7.25 13.4477 6.80228 13 6.25 13ZM5.5 4.75V6.25H4V7.75H5.5V9.25H7V7.75H8.5V6.25H7V4.75H5.5Z" fill="currentColor" />
    <path d="M18 5.25C20.6234 5.25 22.75 7.37665 22.75 10V18C22.75 20.6234 20.6234 22.75 18 22.75H12.75V5.25H18ZM17 14.75V16.25H15.5V17.75H17V19.25H18.5V17.75H20V16.25H18.5V14.75H17ZM17.75 9C17.1977 9 16.75 9.44772 16.75 10C16.75 10.5523 17.1977 11 17.75 11C18.3023 11 18.75 10.5523 18.75 10C18.75 9.44772 18.3023 9 17.75 9Z" fill="currentColor" />
</svg>