<svg xmlns="http://www.w3.org/2000/svg" width="24" height="24" viewBox="0 0 24 24" fill="none">
    <path d="M22.75 20.25H1.25V3.75H22.75V20.25ZM7.0918 18.3086H16.9102V5.69141H7.0918V18.3086ZM19.8301 14.5C19.2778 14.5 18.8301 14.9477 18.8301 15.5C18.8301 16.0523 19.2778 16.5 19.8301 16.5C20.3824 16.5 20.8301 16.0523 20.8301 15.5C20.8301 14.9477 20.3824 14.5 19.8301 14.5ZM4.17188 7.5C3.61959 7.5 3.17188 7.94772 3.17188 8.5C3.17188 9.05228 3.61959 9.5 4.17188 9.5C4.72416 9.5 5.17188 9.05229 5.17188 8.5C5.17188 7.94772 4.72416 7.5 4.17188 7.5Z" fill="currentColor" />
</svg>