<svg xmlns="http://www.w3.org/2000/svg" width="24" height="24" viewBox="0 0 24 24" fill="none">
    <path d="M13.8677 15.1323C13.8677 12.3709 11.6291 10.1323 8.86768 10.1323C6.10625 10.1323 3.86768 12.3709 3.86768 15.1323C3.86768 17.8937 6.10625 20.1323 8.86768 20.1323C11.6291 20.1323 13.8677 17.8937 13.8677 15.1323ZM15.8677 15.1323C15.8677 18.9983 12.7337 22.1323 8.86768 22.1323C5.00168 22.1323 1.86768 18.9983 1.86768 15.1323C1.86768 11.2663 5.00168 8.13232 8.86768 8.13232C10.4398 8.13232 11.8906 8.6509 13.0591 9.52588L16.0161 6.56885L13.603 5.76514L14.2349 3.86768L16.2866 4.55127L15.603 2.49951L17.5005 1.86768L18.3042 4.28076L20.3677 2.21826L21.7817 3.63232L19.7183 5.69482L21.1841 6.18408L22.1323 6.49951L21.5005 8.39697L19.4478 7.7124L20.1323 9.76514L18.2349 10.397L17.9194 9.44873L17.4302 7.98291L14.4731 10.9399C15.3486 12.1086 15.8677 13.5597 15.8677 15.1323Z" fill="currentColor" />
</svg>