<svg xmlns="http://www.w3.org/2000/svg" width="24" height="24" viewBox="0 0 24 24" fill="none">
    <path d="M5.19443 20.7955H8.11142L8.11142 22.7496H3.25009L3.25009 16.8863H5.19443L5.19443 20.7955ZM13.9444 22.7496L10.0558 22.7496L10.0558 20.7955L13.9444 20.7955V22.7496ZM20.7501 22.7496H15.8888V20.7955H18.8058L18.8058 16.8863H20.7501V22.7496ZM12.9727 15.9088H7.13876V13.9537H12.9727V15.9088ZM5.19443 14.9312H3.25009L3.25009 11.0221H5.19443L5.19443 14.9312ZM20.7501 14.9312H18.8058L18.8058 11.0221H20.7501V14.9312ZM16.8614 11.9996L7.13876 11.9996L7.13876 10.0455L16.8614 10.0455V11.9996ZM8.59775 6.13632H6.65244L6.65244 4.6705L5.19443 4.6705L5.19443 9.06796H3.25009L3.25009 2.71542L6.65244 2.71542V1.2496L8.59775 1.2496V6.13632ZM17.3477 2.71542L20.7501 2.71542L20.7501 9.06796H18.8058V4.6705H17.3477V6.13632L15.4024 6.13632L15.4024 1.2496L17.3477 1.2496V2.71542ZM12.9727 6.13632L11.0274 6.13632V1.2496L12.9727 1.2496L12.9727 6.13632Z" fill="currentColor" />
</svg>