<svg xmlns="http://www.w3.org/2000/svg" width="24" height="24" viewBox="0 0 24 24" fill="none">
    <path d="M8.65918 3L11.0459 3V1.5L12.9541 1.5V3H15.3408V1.5L17.25 1.5V3L20.75 3L20.75 23L3.25 23L3.25 3L6.75 3V1.5L8.65918 1.5V3ZM8.49512 16C7.94283 16 7.49023 16.4477 7.49023 17C7.49023 17.5523 7.94283 18 8.49512 18C9.0474 18 9.5 17.5523 9.5 17C9.5 16.4477 9.0474 16 8.49512 16ZM13.25 17.75H17.75V16.25L13.25 16.25V17.75ZM8.4375 11.126L7.5 10.1885L6.43945 11.249L8.5625 13.3721L11.0859 10.2178L11.5537 9.63184L10.3828 8.69531L8.4375 11.126ZM13.25 11.75L17.75 11.75V10.25L13.25 10.25V11.75Z" fill="currentColor" />
</svg>