<svg xmlns="http://www.w3.org/2000/svg" width="24" height="24" viewBox="0 0 24 24" fill="none">
    <path d="M21.7495 14.3475L20.0063 12.6102L19.9858 12.5897L19.8999 12.5116L19.8745 12.4882L19.8472 12.4667C19.0752 11.8393 17.9667 11.8411 17.1968 12.4686L17.1753 12.4862L17.1538 12.5057L17.0894 12.5634L17.064 12.5858L11.5884 18.0516L10.9995 18.6376L10.9995 22.7469L3.99951 22.7469L3.99951 18.7469H2.24951L2.24951 16.8182H3.99951L3.99951 12.9608H2.24951L2.24951 11.0331H3.99951L3.99951 7.17566H2.24951L2.24951 5.24695H3.99951L3.99951 1.24695L21.7495 1.24695L21.7495 14.3475ZM9.24951 11.7469L14.2495 11.7469V10.2469L9.24951 10.2469L9.24951 11.7469ZM9.24951 7.74695L17.7495 7.74695V6.24695L9.24951 6.24695L9.24951 7.74695Z" fill="currentColor" />
    <path d="M17.9868 13.4374C18.2981 13.1837 18.7475 13.1831 19.0591 13.4364L19.1235 13.495L21.4976 15.8612C21.8308 16.1934 21.8307 16.7332 21.4976 17.0653L15.7856 22.7518H12.2495V19.1571L12.4702 18.9374L17.9224 13.495L17.9868 13.4374Z" fill="currentColor" />
</svg>