<svg xmlns="http://www.w3.org/2000/svg" width="24" height="24" viewBox="0 0 24 24" fill="none">
    <path d="M16.3023 16.6836L6.16367 6.54492C4.96382 7.2499 3.79373 8.15186 2.88437 9.20605C1.9768 10.2582 1.2968 11.5005 1.15586 12.875C0.953706 14.847 1.31782 16.2908 1.61777 17.4365C1.92634 18.6152 2.09866 19.3032 1.84043 20.0527L1.33945 21.5078L2.79355 21.0059C3.543 20.7477 4.2313 20.92 5.40976 21.2285C6.55562 21.5285 7.99998 21.8937 9.97226 21.6914C11.3467 21.5504 12.5891 20.8695 13.6412 19.9619C14.6952 19.0526 15.5975 17.8833 16.3023 16.6836Z" fill="currentColor" />
    <path d="M9.1734 2.98886C10.3801 2.22334 13.5677 1.48155 16.8013 3.90781C19.099 2.54494 21.1927 2.96688 22.1285 3.73202L22.9029 4.36484L21.6373 5.91269L20.8629 5.27988C20.698 5.14507 19.7572 4.73402 18.3658 5.34824C21.4717 8.81029 20.6785 12.3801 19.858 13.6734C19.7642 13.8212 19.6566 13.9364 19.5728 14.0201C19.41 14.1829 19.2243 14.3298 19.0191 14.4478L18.5211 14.734L8.11285 4.32577L8.39899 3.82773C8.51702 3.6225 8.66391 3.43686 8.82672 3.27402C8.9105 3.19024 9.02559 3.08267 9.1734 2.98886Z" fill="currentColor" />
    <path d="M22.5973 21.3354L21.1832 22.7495L1.09726 2.66357L2.51132 1.24951L22.5973 21.3354Z" fill="currentColor" />
</svg>