<svg xmlns="http://www.w3.org/2000/svg" width="24" height="24" viewBox="0 0 24 24" fill="none">
    <path d="M5.33301 2.25001C6.00636 2.24911 6.67378 2.31064 7.32715 2.43165C7.02407 2.63916 6.72197 2.86867 6.50195 3.07228L5.03027 4.49122L7.04785 6.58302L6.53027 7.1045L9.50488 10.0693L9.90039 9.67286V9.84962C9.90039 10.595 10.5046 11.1992 11.25 11.1992V21.75C9.594 20.3951 7.5011 19.6483 5.33398 19.6514C4.38531 19.6514 3.47041 19.7908 2.61133 20.0498L2.24609 20.168L1.25 20.5147V3.0254L1.75391 2.84962C2.87455 2.46027 4.07989 2.25005 5.33301 2.25001Z" fill="currentColor" />
    <path d="M18.667 2.25099C19.9201 2.25102 21.1255 2.46027 22.2461 2.84962L22.75 3.0254V20.5147L21.7539 20.168C20.7904 19.8332 19.7513 19.6514 18.667 19.6514C16.4999 19.6483 14.4061 20.3951 12.75 21.75V11.1992C13.5013 11.1992 14.1104 10.5902 14.1104 9.83888V9.69142L14.4834 10.0693L17.4697 7.11622L16.9453 6.58595L18.9697 4.49903L17.4619 3.03712C17.0953 2.75598 16.8593 2.57157 16.6719 2.43263C17.3256 2.31161 17.9933 2.25009 18.667 2.25099Z" fill="currentColor" />
    <path d="M14.2393 5.86133C13.7165 5.56069 12.9465 5.24715 12.0039 5.24707C11.0614 5.24707 10.2889 5.56041 9.76465 5.86035C9.50111 6.01115 9.13745 6.25742 8.89746 6.49902L8.29688 7.10156L9.50098 8.30176L10.0977 7.70312C10.1867 7.63174 10.4352 7.43561 10.6094 7.33594C10.9612 7.13465 11.442 6.94727 12.0039 6.94727C12.5654 6.94734 13.0429 7.13445 13.3916 7.33496C13.5644 7.43433 13.8104 7.63009 13.8984 7.70117L14.4922 8.30176L15.7012 7.10645L15.1035 6.50195C14.8413 6.2793 14.5021 6.0125 14.2393 5.86133Z" fill="currentColor" />
    <path d="M12.2666 2.25391C13.5636 2.30049 14.6063 2.6853 15.3369 3.07031C15.7265 3.27563 16.0301 3.4824 16.2402 3.6416C16.3394 3.71673 16.5109 3.86532 16.5794 3.92469L16.5908 3.93457L17.2012 4.52637L16.0176 5.74707L15.4072 5.15527C15.4016 5.15011 15.3902 5.13999 15.374 5.12598C15.3413 5.09767 15.2874 5.05279 15.2139 4.99707C15.0662 4.88523 14.8401 4.73028 14.5439 4.57422C14.0258 4.30122 13.3003 4.02802 12.4004 3.96387L12.0039 3.94922C10.9187 3.94923 10.0521 4.26264 9.45703 4.5752C9.15972 4.73138 8.93275 4.88603 8.78418 4.99805C8.71018 5.05384 8.65608 5.09851 8.62305 5.12695C8.60655 5.14116 8.59559 5.15198 8.58984 5.15723C8.58703 5.15979 8.58496 5.16113 8.58496 5.16113L8.58789 5.1582L8.58691 5.15723L7.97656 5.74707L6.79688 4.52344L7.39294 3.94923C7.38628 3.95466 7.39032 3.95069 7.40918 3.93359L7.39294 3.94923C7.4232 3.92457 7.67421 3.70586 7.76074 3.64062C7.97162 3.48164 8.27643 3.27545 8.66699 3.07031C9.44806 2.66007 10.5846 2.25002 12.0039 2.25L12.2666 2.25391Z" fill="currentColor" />
    <path d="M12.0869 8.05469C12.5155 8.09824 12.8496 8.4603 12.8496 8.90039C12.8494 9.36965 12.4693 9.74999 12 9.75C11.56 9.75 11.198 9.41574 11.1543 8.9873L11.1504 8.90039L11.1543 8.81348C11.1976 8.38468 11.5598 8.0498 12 8.0498L12.0869 8.05469Z" fill="currentColor" />
</svg>