<svg xmlns="http://www.w3.org/2000/svg" width="24" height="24" viewBox="0 0 24 24" fill="none">
    <path d="M20.75 18.8408H19.6875C19.6572 18.8768 19.6244 18.9161 19.5928 18.96C19.4254 19.1924 19.292 19.4845 19.292 19.8184C19.292 20.152 19.4255 20.4434 19.5928 20.6758C19.6244 20.7198 19.6571 20.7598 19.6875 20.7959H20.75V22.75H6.16699C4.55622 22.75 3.2501 21.4375 3.25 19.8184V4.18164C3.2501 2.56252 4.55622 1.25 6.16699 1.25H20.75V18.8408ZM6.16699 18.8398C5.63005 18.8398 5.19434 19.2777 5.19434 19.8174C5.19448 20.357 5.63014 20.7939 6.16699 20.7939H17.5C17.4082 20.5025 17.3477 20.1761 17.3477 19.8174C17.3477 19.4584 17.4081 19.1314 17.5 18.8398H6.16699ZM12 12.0498C11.5598 12.0498 11.1976 12.3847 11.1543 12.8135L11.1504 12.9004L11.1543 12.9873C11.198 13.4157 11.56 13.75 12 13.75C12.4693 13.75 12.8494 13.3697 12.8496 12.9004C12.8496 12.4603 12.5155 12.0982 12.0869 12.0547L12 12.0498ZM12.0049 9.24707C11.0848 9.24707 10.3295 9.55351 9.81543 9.84766C9.55709 9.99547 9.35304 10.1439 9.21094 10.2578C9.13991 10.3147 9.00918 10.4341 8.96875 10.4707L8.43945 11.001L9.50098 12.0605L10.0293 11.5303C10.0494 11.5121 10.1026 11.4654 10.1484 11.4287C10.2408 11.3547 10.3811 11.2521 10.5605 11.1494C10.9226 10.9423 11.4205 10.7471 12.0049 10.7471C12.5887 10.7471 13.0835 10.9421 13.4424 11.1484C13.6205 11.2509 13.8784 11.4565 13.9697 11.5303L14.4941 12.0605L15.5605 11.0059L15.0332 10.4727C14.993 10.4359 14.8639 10.317 14.793 10.2598C14.6515 10.1456 14.4481 9.99683 14.1904 9.84863C13.6779 9.55387 12.9251 9.24715 12.0049 9.24707ZM12.0049 6.25C10.6053 6.25002 9.48399 6.65409 8.71387 7.05859C8.32892 7.2608 8.02944 7.4649 7.82227 7.62109C7.7185 7.69932 7.63735 7.76612 7.58008 7.81543C7.55158 7.83997 7.49622 7.89001 7.47949 7.90527L6.93945 8.42578L7.98047 9.50586L8.51758 8.98828C8.5521 8.95856 8.64868 8.87561 8.72461 8.81836C8.8769 8.70354 9.10915 8.54585 9.41211 8.38672C10.0181 8.06847 10.9001 7.75002 12.0049 7.75C13.1095 7.75005 13.9886 8.06885 14.5918 8.38672C14.8934 8.54565 15.2266 8.76172 15.4775 8.9834L16.0166 9.50586L17.0605 8.42969L16.5225 7.90723C16.5057 7.89188 16.4504 7.84112 16.4219 7.81641C16.3648 7.767 16.284 7.70036 16.1807 7.62207C15.9742 7.46565 15.6752 7.26201 15.291 7.05957C14.5227 6.65469 13.4045 6.25005 12.0049 6.25Z" fill="currentColor" />
</svg>