<svg xmlns="http://www.w3.org/2000/svg" width="24" height="24" viewBox="0 0 24 24" fill="none">
    <path d="M15.75 10.25V11.75H8.25V10.25H15.75Z" fill="currentColor" />
    <path d="M21.75 22.75H2.25V1.25H21.75V22.75ZM5.25 19.75H18.75V8.25H5.25V19.75ZM8 4.15234C7.53087 4.15255 7.1506 4.53282 7.15039 5.00195C7.15039 5.47126 7.53074 5.85233 8 5.85254C8.46944 5.85254 8.85059 5.4714 8.85059 5.00195C8.85038 4.53269 8.46931 4.15234 8 4.15234ZM12 4.15234C11.5309 4.15255 11.1506 4.53282 11.1504 5.00195C11.1504 5.47126 11.5307 5.85233 12 5.85254C12.4694 5.85254 12.8506 5.4714 12.8506 5.00195C12.8504 4.53269 12.4693 4.15234 12 4.15234ZM16 4.15234C15.5309 4.15255 15.1506 4.53282 15.1504 5.00195C15.1504 5.47126 15.5307 5.85233 16 5.85254C16.4694 5.85254 16.8506 5.4714 16.8506 5.00195C16.8504 4.53269 16.4693 4.15234 16 4.15234Z" fill="currentColor" />
</svg>