<svg xmlns="http://www.w3.org/2000/svg" width="24" height="24" viewBox="0 0 24 24" fill="none">
    <path fill-rule="evenodd" clip-rule="evenodd" d="M2.20464 5.13115C1.85254 5.28362 1.62563 5.62384 1.62563 5.99927V18.4867L11.071 22.6846C11.2649 22.7708 11.4863 22.7708 11.6802 22.6846L17.1598 20.2493H14.1256V15.7493H21.1256V5.99927C21.1256 5.62384 20.8987 5.28362 20.5466 5.13115L11.7716 1.33115C11.5195 1.22197 11.2317 1.22197 10.9796 1.33115L2.20464 5.13115ZM6.98806 6.85964L5.00129 5.99927L11.3756 3.23887L13.3624 4.09924L6.98806 6.85964ZM9.38872 7.89924L15.7631 5.13884L17.75 5.99927L11.3756 8.75966L9.38872 7.89924ZM5.37563 12.4993L7.87563 13.9993V12.4993L5.37563 10.9993V12.4993Z" fill="currentColor" />
    <path d="M22.3756 16.9993V18.9993H15.3756V16.9993H22.3756Z" fill="currentColor" />
</svg>