<svg xmlns="http://www.w3.org/2000/svg" width="24" height="24" viewBox="0 0 24 24" fill="none">
    <path d="M12 1.25C17.9371 1.25 22.75 6.06294 22.75 12C22.75 12.9385 22.63 13.8503 22.4033 14.7197L22.1855 15.5527L21.3896 15.2227C20.6545 14.9182 19.8478 14.75 19 14.75C15.5482 14.75 12.75 17.5482 12.75 21C12.75 21.3038 12.7718 21.6021 12.8135 21.8936L12.9346 22.7441L12.0762 22.75H12C6.06294 22.75 1.25 17.9371 1.25 12C1.25 6.06294 6.06294 1.25 12 1.25ZM7 14C6.48232 14 6.05621 14.3933 6.00488 14.8975L6 15L6.00488 15.1025C6.05621 15.6067 6.48232 16 7 16C7.55228 16 8 15.5523 8 15C8 14.4477 7.55228 14 7 14ZM16.5 7.25C15.2574 7.25 14.25 8.25736 14.25 9.5C14.25 10.7426 15.2574 11.75 16.5 11.75C17.7426 11.75 18.75 10.7426 18.75 9.5C18.75 8.25736 17.7426 7.25 16.5 7.25ZM9.5 6.25C8.25736 6.25 7.25 7.25736 7.25 8.5C7.25 9.74264 8.25736 10.75 9.5 10.75C10.7426 10.75 11.75 9.74264 11.75 8.5C11.75 7.25736 10.7426 6.25 9.5 6.25Z" fill="currentColor" />
</svg>