<svg xmlns="http://www.w3.org/2000/svg" width="24" height="24" viewBox="0 0 24 24" fill="none">
    <path d="M2.36748 4.3619C3.82842 2.52531 6.53182 2.29088 8.28741 3.84823L8.66338 4.18221C9.07654 4.54871 9.11484 5.18117 8.74834 5.59432C8.38183 6.00736 7.74935 6.04477 7.33623 5.67831L6.96026 5.34432C6.06253 4.54797 4.68 4.66792 3.93291 5.60702C3.45358 6.20962 3.34347 7.02722 3.64678 7.73495L4.41924 9.53671C4.63672 10.0443 4.40145 10.6317 3.89385 10.8492C3.3864 11.0666 2.79905 10.8321 2.58135 10.3248L1.80889 8.52206C1.2159 7.13812 1.4302 5.54023 2.36748 4.3619ZM15.7132 3.84823C17.4688 2.29087 20.1722 2.52527 21.6331 4.3619C22.5704 5.54021 22.7847 7.13815 22.1917 8.52206L21.4192 10.3248C21.2016 10.8321 20.6142 11.0665 20.1067 10.8492C19.5991 10.6317 19.3638 10.0443 19.5814 9.53671L20.3538 7.73495C20.6571 7.02722 20.547 6.20962 20.0677 5.60702C19.3206 4.66785 17.9381 4.54795 17.0403 5.34432L16.6634 5.67831C16.2503 6.04462 15.6187 6.00724 15.2522 5.59432C14.8858 5.18121 14.9232 4.54873 15.3362 4.18221L15.7132 3.84823Z" fill="currentColor" />
    <path fill-rule="evenodd" clip-rule="evenodd" d="M18.8734 19.1799C20.695 17.845 21.8431 15.8661 21.8431 13.384C21.8431 10.9383 20.7297 8.49321 18.9711 6.66626C17.2081 4.83489 14.7481 3.57449 12.0023 3.57446C9.25655 3.57446 6.79656 4.83487 5.03357 6.66626C3.2749 8.49322 2.1615 10.9382 2.1615 13.384C2.16154 15.8661 3.30964 17.845 5.13123 19.1799C6.93368 20.5007 9.37256 21.1799 12.0023 21.1799C14.6321 21.1799 17.071 20.5008 18.8734 19.1799ZM10.9711 15.3998C11.5401 14.8308 12.4626 14.8308 13.0316 15.3998L13.5619 15.93L12.0013 17.4906L10.4408 15.93L10.9711 15.3998ZM9.95447 8.75336C9.43447 8.25726 8.66129 8.1012 7.95447 8.21723C7.22218 8.33748 6.47947 8.75679 5.96521 9.52289C5.48074 10.2448 5.24996 11.1128 5.25134 11.9125C5.25277 12.6953 5.47994 13.5359 6.06384 14.0932C6.66553 14.6674 7.45866 14.7937 8.18787 14.5864C8.89988 14.3838 9.54883 13.8723 10.0219 13.1674C10.4964 12.4603 10.7428 11.6374 10.7513 10.8647C10.7597 10.1014 10.5321 9.30464 9.95447 8.75336ZM14.0482 8.75336C14.5682 8.25726 15.3414 8.1012 16.0482 8.21723C16.7805 8.33748 17.5232 8.75679 18.0375 9.52289C18.5219 10.2448 18.7527 11.1128 18.7513 11.9125C18.7499 12.6953 18.5227 13.5359 17.9388 14.0932C17.3372 14.6674 16.544 14.7937 15.8148 14.5864C15.1028 14.3838 14.4539 13.8723 13.9808 13.1674C13.5063 12.4603 13.2599 11.6374 13.2513 10.8647C13.243 10.1014 13.4706 9.30464 14.0482 8.75336Z" fill="currentColor" />
</svg>