<svg xmlns="http://www.w3.org/2000/svg" width="24" height="24" viewBox="0 0 24 24" fill="none">
    <path d="M12.8371 3.57016C14.9332 1.47401 18.3317 1.47401 20.4279 3.57016C22.524 5.66631 22.524 9.06483 20.4279 11.161L18.8839 12.7049L17.4699 11.2909L19.0138 9.74692C20.3289 8.43181 20.3289 6.29933 19.0138 4.98422C17.6987 3.66912 15.5662 3.66912 14.2511 4.98422L4.98648 14.2489C3.67138 15.564 3.67138 17.6965 4.98648 19.0116C6.30159 20.3267 8.43407 20.3267 9.74918 19.0116L13.2228 15.537C13.8983 14.8615 13.8983 13.7662 13.2228 13.0907C12.5474 12.4157 11.4529 12.4157 10.7775 13.0907L8.84683 15.0213L7.43277 13.6073L9.36246 11.6766C10.819 10.2201 13.1813 10.2201 14.6378 11.6766C16.0942 13.133 16.094 15.4945 14.6378 16.951L11.1632 20.4256C9.06709 22.5218 5.66857 22.5218 3.57242 20.4256C1.47627 18.3295 1.47627 14.931 3.57242 12.8348L12.8371 3.57016Z" fill="currentColor" />
</svg>