<svg xmlns="http://www.w3.org/2000/svg" width="24" height="24" viewBox="0 0 24 24" fill="none">
    <path d="M17.253 10.9978C17.253 12.5166 18.4842 13.7478 20.003 13.7478C21.5218 13.7478 22.753 12.5166 22.753 10.9978C22.753 9.47902 21.5218 8.2478 20.003 8.2478C18.4842 8.2478 17.253 9.47902 17.253 10.9978Z" fill="currentColor" />
    <path d="M12.753 5.9978C12.753 7.51659 13.9842 8.7478 15.503 8.7478C17.0218 8.7478 18.253 7.51659 18.253 5.9978C18.253 4.47902 17.0218 3.2478 15.503 3.2478C13.9842 3.2478 12.753 4.47902 12.753 5.9978Z" fill="currentColor" />
    <path d="M11.253 5.9978C11.253 7.51659 10.0218 8.7478 8.50299 8.7478C6.98421 8.7478 5.75299 7.51659 5.75299 5.9978C5.75299 4.47902 6.98421 3.2478 8.50299 3.2478C10.0218 3.2478 11.253 4.47902 11.253 5.9978Z" fill="currentColor" />
    <path d="M6.75299 10.9978C6.75299 12.5166 5.52177 13.7478 4.00299 13.7478C2.48421 13.7478 1.25299 12.5166 1.25299 10.9978C1.25299 9.47902 2.48421 8.2478 4.00299 8.2478C5.52177 8.2478 6.75299 9.47902 6.75299 10.9978Z" fill="currentColor" />
    <path d="M19.753 17.5808C19.753 18.423 19.4589 19.1713 18.8858 19.7888C18.2986 20.4214 17.5484 20.7477 16.6846 20.7478C15.8573 20.7478 15.0364 20.682 14.2237 20.5505C13.4907 20.432 12.7506 20.3728 12.003 20.3728C11.2554 20.3728 10.5153 20.432 9.78229 20.5505C8.96955 20.682 8.14872 20.7478 7.32135 20.7478C6.45756 20.7477 5.7074 20.4214 5.12018 19.7888C4.5471 19.1713 4.25299 18.423 4.25299 17.5808C4.25307 16.6578 4.59189 15.8421 5.23737 15.1667C5.75601 14.6241 6.27088 14.0881 6.78229 13.5593C7.16498 13.1697 7.49805 12.7428 7.7735 12.2869C8.10447 11.739 8.49682 11.2268 8.9483 10.7498L9.09283 10.5945C9.43581 10.2393 9.82484 9.93936 10.2589 9.69702C10.7963 9.397 11.3823 9.2478 12.003 9.2478C12.6154 9.2478 13.195 9.386 13.7296 9.66675C14.2334 9.93149 14.6775 10.2798 15.0577 10.7078C15.4956 11.1856 15.8828 11.7004 16.2198 12.2527C16.5039 12.7184 16.8378 13.1541 17.2227 13.5593C17.7341 14.0881 18.25 14.6241 18.7686 15.1667C19.4141 15.8421 19.7529 16.6578 19.753 17.5808Z" fill="currentColor" />
</svg>