<svg xmlns="http://www.w3.org/2000/svg" width="24" height="24" viewBox="0 0 24 24" fill="none">
    <path d="M18.5 9.56055L7.38379 20.6768L7.18164 20.7275L1.96875 22.0303L3.27246 16.8184L3.32324 16.6162L14.4395 5.5L18.5 9.56055Z" fill="currentColor" />
    <path d="M22.0605 6L19.5605 8.5L15.5 4.43945L18 1.93945L22.0605 6Z" fill="currentColor" />
    <path d="M19.25 13.1895L17.9395 14.5L19 15.5605L20.3105 14.25L22.0605 16L16 22.0605L11.8838 17.9443L17.9443 11.8838L19.25 13.1895Z" fill="currentColor" />
    <path d="M9.75 3.68945L8.43945 5L9.5 6.06055L10.8105 4.75L12.1162 6.05566L6.05566 12.1162L1.93945 8L8 1.93945L9.75 3.68945Z" fill="currentColor" />
</svg>