<svg xmlns="http://www.w3.org/2000/svg" width="24" height="24" viewBox="0 0 24 24" fill="none">
    <path d="M12.0001 2C14.7923 2 17.2018 3.6353 18.3253 6H21.0001V8H18.9279C18.9746 8.32666 19.0001 8.66041 19.0001 9C19.0001 9.33959 18.9746 9.67334 18.9279 10H21.0001V12H18.3253C17.2018 14.3647 14.7923 16 12.0001 16H8.00012V22H6.00012V12H3.00012V10H6.00012V8H3.00012V6H6.00012V2H12.0001ZM8.00012 14H12.0001C13.6359 14 15.0879 13.2143 16.0001 12H8.00012V14ZM8.00012 10H16.8995C16.9651 9.67686 17.0001 9.3425 17.0001 9C17.0001 8.6575 16.9651 8.32314 16.8995 8H8.00012V10ZM8.00012 6H16.0001C15.0879 4.78565 13.6359 4 12.0001 4H8.00012V6Z" fill="currentColor" />
</svg>