<svg xmlns="http://www.w3.org/2000/svg" width="24" height="24" viewBox="0 0 24 24" fill="none">
    <path d="M18.75 6.15332C19.1482 6.50975 19.5798 6.97752 19.9395 7.52637C20.2882 8.05867 20.5868 8.69646 20.7002 9.40137L22.1816 9.77246L22.75 9.91406V14.6152L20.0244 15.1592C19.4881 16.2649 18.6809 17.2128 17.6875 17.917L17.2402 20.6221L17.1357 21.25H13.4141L12.915 19.25H11.085L10.5859 21.25H6.86426L6.31152 17.915C4.62756 16.7206 3.47519 14.8249 3.28125 12.6514C2.11153 12.335 1.25 11.2698 1.25 10V7.25H2.75V10C2.75 10.4369 2.97485 10.8205 3.31445 11.0439C3.78251 7.49187 6.82012 4.75 10.5 4.75H14.0684C14.8666 3.5131 16.2427 2.75 17.7363 2.75H18.75V6.15332ZM15.75 8.75C15.1977 8.75 14.75 9.19772 14.75 9.75C14.75 10.3023 15.1977 10.75 15.75 10.75C16.3023 10.75 16.75 10.3023 16.75 9.75C16.75 9.19772 16.3023 8.75 15.75 8.75Z" fill="currentColor" />
</svg>