<svg xmlns="http://www.w3.org/2000/svg" width="24" height="24" viewBox="0 0 24 24" fill="none">
    <path d="M12.0039 2H14.0039V22H12.0039V2Z" fill="currentColor" />
    <path d="M16.0039 2H18.0039V22H16.0039V2Z" fill="currentColor" />
    <path d="M4.00391 7.5C4.00391 6.04131 4.58378 4.64278 5.61523 3.61133C6.64668 2.57988 8.04522 2 9.50391 2H20.0039V4H9.50391C8.57565 4 7.68567 4.36901 7.0293 5.02539C6.37292 5.68177 6.00391 6.57174 6.00391 7.5C6.00391 8.42826 6.37292 9.31823 7.0293 9.97461C7.68567 10.631 8.57565 11 9.50391 11H14.0039V13H9.50391C8.04522 13 6.64668 12.4201 5.61523 11.3887C4.58378 10.3572 4.00391 8.95869 4.00391 7.5Z" fill="currentColor" />
</svg>