<svg xmlns="http://www.w3.org/2000/svg" width="24" height="24" viewBox="0 0 24 24" fill="none">
    <path d="M21.006 17.7949L16.799 22.002L15.3849 20.5879L17.1779 18.7949H3.59195V16.7949H17.1779L15.3849 15.002L16.799 13.5879L21.006 17.7949Z" fill="currentColor" />
    <path d="M4.12988 3.18262C3.40406 3.93532 3.00195 4.94868 3.00195 5.99805C3.00195 7.04742 3.40406 8.06077 4.12988 8.81348C4.85681 9.56721 5.85031 9.99797 6.89453 9.99805H9.00195V14.998H11.002V9.99805V7.99805V3.99805H12.002V14.998H14.002V3.99805H15.002V1.99805H14.002H12.002H11.002H9.00195H6.89453C5.85031 1.99812 4.85681 2.42888 4.12988 3.18262ZM6.89453 3.99805H9.00195V7.99805H6.89453C6.40459 7.99797 5.92728 7.79601 5.56934 7.4248C5.21019 7.0523 5.00195 6.53993 5.00195 5.99805C5.00195 5.45617 5.21019 4.94379 5.56934 4.57129C5.92728 4.20008 6.40459 3.99812 6.89453 3.99805Z" fill="currentColor" />
</svg>