<svg xmlns="http://www.w3.org/2000/svg" width="24" height="24" viewBox="0 0 24 24" fill="none">
    <path d="M22.8691 19.75H7.77441L1.13086 12L7.77441 4.25H22.8691V19.75ZM9.11914 11C8.56685 11 8.11914 11.4477 8.11914 12C8.11914 12.5523 8.56686 13 9.11914 13C9.67142 13 10.1191 12.5523 10.1191 12C10.1191 11.4477 9.67142 11 9.11914 11ZM13.1191 11C12.5669 11 12.1191 11.4477 12.1191 12C12.1191 12.5523 12.5669 13 13.1191 13C13.6714 13 14.1191 12.5523 14.1191 12C14.1191 11.4477 13.6714 11 13.1191 11ZM17.1191 11C16.5669 11 16.1191 11.4477 16.1191 12C16.1191 12.5523 16.5669 13 17.1191 13C17.6714 13 18.1191 12.5523 18.1191 12C18.1191 11.4477 17.6714 11 17.1191 11Z" fill="currentColor" />
</svg>