<svg xmlns="http://www.w3.org/2000/svg" width="24" height="24" viewBox="0 0 24 24" fill="none">
    <path d="M21.4998 18.75V20.75H2.99976V18.75H21.4998Z" fill="currentColor" />
    <path d="M8.18886 3.27461L14.973 5.06367L15.8969 4.54903C16.5796 4.16887 17.1432 3.85503 17.6244 3.64668C18.1204 3.43198 18.5951 3.29872 19.1146 3.32051C19.3413 3.33002 19.5664 3.3629 19.7865 3.41817C20.2907 3.54481 20.7092 3.80698 21.1254 4.15352C21.5223 4.48401 21.9641 4.93268 22.5015 5.47838L22.5336 5.51094C22.6972 5.67713 22.7749 5.90984 22.7426 6.14082C22.7101 6.37182 22.5716 6.57483 22.3685 6.68965L6.49746 15.6535C6.1832 15.8309 5.78736 15.7588 5.55507 15.4826L1.42519 10.5734C1.27564 10.3956 1.21759 10.1579 1.26699 9.93086C1.31649 9.70393 1.46827 9.51287 1.67812 9.41328L4.08242 8.27168L4.17519 8.23555C4.39655 8.16461 4.64088 8.19966 4.83437 8.33516L6.72304 9.65742L8.28749 8.78633L4.49941 6.5002C4.27402 6.36408 4.13649 6.11897 4.1371 5.85567C4.13786 5.59261 4.27658 5.34908 4.50234 5.21406L7.61269 3.35664C7.78587 3.2532 7.99381 3.22319 8.18886 3.27461Z" fill="currentColor" />
</svg>