<svg xmlns="http://www.w3.org/2000/svg" width="24" height="24" viewBox="0 0 24 24" fill="none">
    <path d="M13.0638 8.92241L10.5818 11.4412L9.16862 10.0071L11.6506 7.48828L13.0638 8.92241Z" fill="currentColor" />
    <path d="M16.0403 11.9449L13.5583 14.4637L12.1452 13.0296L14.6272 10.5107L16.0403 11.9449Z" fill="currentColor" />
    <path d="M6.11496 18.999L4.1285 21.0149L2.71493 19.5804L4.70139 17.5645L6.11496 18.999Z" fill="currentColor" />
    <path d="M16.237 16.0642L14.8238 17.4984L6.18277 8.72905L7.59592 7.29492L16.237 16.0642Z" fill="currentColor" />
    <path d="M13.2841 17.6508C12.3322 18.6168 11.0445 19.1624 9.6995 19.1739L7.37277 21.3503L2.38396 16.2874L4.52715 13.9247C4.53855 12.56 5.07689 11.2536 6.02862 10.2876L8.10764 8.17773L15.3631 15.5409L13.2841 17.6508Z" fill="currentColor" />
    <path d="M19.0719 2.81889L17.5074 4.67247H22.7494L17.4459 9.93715L16.0473 8.48756L17.848 6.70032H13.1623L17.5542 1.5L19.0719 2.81889Z" fill="currentColor" />
</svg>