<svg xmlns="http://www.w3.org/2000/svg" width="24" height="24" viewBox="0 0 24 24" fill="none">
    <path d="M11.7505 8.75H13.0005C13.6982 8.75004 14.2986 9.15929 14.5796 9.75H16.0005C16.6982 9.75004 17.2986 10.1593 17.5796 10.75H19.0005C19.967 10.7501 20.7505 11.5335 20.7505 12.5V21.75H8.39796L8.32374 21.6357L3.55909 14.2334C3.15916 13.6144 3.14569 12.8205 3.52492 12.1885C4.11471 11.2058 5.42527 10.9493 6.3423 11.6367L6.35402 11.6455L6.36378 11.6543L8.2505 13.4219V4C8.2505 3.0335 9.034 2.25 10.0005 2.25C10.967 2.25005 11.7505 3.03353 11.7505 4V8.75Z" fill="currentColor" />
</svg>