<svg xmlns="http://www.w3.org/2000/svg" width="24" height="24" viewBox="0 0 24 24" fill="none">
    <path d="M22.25 1.75V22.25H1.75V1.75H22.25ZM5.25 8.25V15.75H18.75V8.25H5.25Z" fill="currentColor" />
    <path fill-rule="evenodd" clip-rule="evenodd" d="M8.5 12C8.5 11.4477 8.94772 11 9.5 11H9.50897C10.0613 11 10.509 11.4477 10.509 12C10.509 12.5523 10.0613 13 9.50897 13H9.5C8.94772 13 8.5 12.5523 8.5 12ZM13.4912 12C13.4912 11.4477 13.9389 11 14.4912 11H14.5002C15.0525 11 15.5002 11.4477 15.5002 12C15.5002 12.5523 15.0525 13 14.5002 13H14.4912C13.9389 13 13.4912 12.5523 13.4912 12Z" fill="currentColor" />
</svg>