<svg xmlns="http://www.w3.org/2000/svg" width="24" height="24" viewBox="0 0 24 24" fill="none">
    <path d="M2 12C2 9.43946 2.964 7.10153 4.54688 5.33301L5.21387 4.58789L6.7041 5.92188L6.03711 6.66699C4.76974 8.08301 4 9.95042 4 12C4 16.4183 7.58172 20 12 20C16.4183 20 20 16.4183 20 12C20 9.95042 19.2303 8.08301 17.9629 6.66699L17.2959 5.92188L18.7861 4.58789L19.4531 5.33301C21.036 7.10153 22 9.43946 22 12C22 17.5228 17.5228 22 12 22C6.47715 22 2 17.5228 2 12Z" fill="currentColor" />
    <path d="M11 2H13V13H11V2Z" fill="currentColor" />
</svg>