<svg xmlns="http://www.w3.org/2000/svg" width="24" height="24" viewBox="0 0 24 24" fill="none">
    <path d="M14 7.75C15.5982 7.75 17.0111 8.53995 17.8721 9.75H22.75V21.25H1.25V9.75H10.1279C10.9889 8.53995 12.4018 7.75 14 7.75ZM4.25 18.25H7.75V16.75H4.25V18.25ZM14 9.25C12.7859 9.25 11.7279 9.91604 11.1699 10.9023C11.1097 11.0088 11.055 11.1189 11.0068 11.2324C10.9179 11.4422 10.85 11.663 10.8066 11.8926C10.7695 12.0891 10.75 12.2922 10.75 12.5C10.75 14.2949 12.2051 15.75 14 15.75C15.7949 15.75 17.25 14.2949 17.25 12.5C17.25 12.2921 17.2296 12.0892 17.1924 11.8926C17.149 11.663 17.0812 11.4422 16.9922 11.2324C16.944 11.1189 16.8894 11.0088 16.8291 10.9023C16.271 9.91627 15.2139 9.25 14 9.25ZM11.0605 6.5L10 7.56055L7.43945 5L8.5 3.93945L11.0605 6.5ZM20.5605 5L18 7.56055L16.9395 6.5L19.5 3.93945L20.5605 5ZM14.752 6.24707H13.252V2.75H14.752V6.24707Z" fill="currentColor" />
</svg>