<svg xmlns="http://www.w3.org/2000/svg" width="24" height="24" viewBox="0 0 24 24" fill="none">
    <path d="M16.9126 14.751C18.3315 14.751 19.4938 15.3444 20.3501 16.0469C21.2002 16.7442 21.789 17.5803 22.0825 18.167L22.2505 18.5029L22.0825 18.8379C21.7884 19.4252 21.1985 20.261 20.3481 20.957C19.4916 21.658 18.3292 22.249 16.9116 22.249C15.4938 22.249 14.3314 21.6576 13.4751 20.9561C12.6249 20.2596 12.0357 19.4239 11.7417 18.8369L11.5737 18.501L11.7417 18.165C12.0354 17.5781 12.6249 16.7427 13.4751 16.0459C14.3316 15.3439 15.494 14.751 16.9126 14.751ZM16.9136 17.001C16.0851 17.001 15.4136 17.6726 15.4136 18.501C15.4136 19.3294 16.0851 20.001 16.9136 20.001C17.742 20.001 18.4136 19.3294 18.4136 18.501C18.4136 17.6726 17.742 17.001 16.9136 17.001Z" fill="currentColor" />
    <path d="M1.74951 1.75098V21.251H9.49854V19.3008H3.69873V7.50098H19.2983V13.501H21.2495V1.75098H1.74951Z" fill="currentColor" />
    <path d="M8.49951 14.3994V16.3994H5.49951V14.3994H8.49951Z" fill="currentColor" />
    <path d="M8.49951 10.3994V12.3994H5.49951V10.3994H8.49951ZM17.4995 10.3994V12.3994H10.4995V10.3994H17.4995Z" fill="currentColor" />
</svg>