<svg xmlns="http://www.w3.org/2000/svg" width="24" height="24" viewBox="0 0 24 24" fill="none">
    <path d="M15.2722 3.74902H20.2507V8.72656L22.9773 11.999L20.2546 15.2646L20.3386 20.249H15.2722L12.0007 22.9756L8.72925 20.249H3.66284L3.74585 15.2637L1.02417 11.999L3.75073 8.72656V3.74902H8.72925L12.0007 1.02246L15.2722 3.74902ZM12.0007 15.749C11.4484 15.749 11.0007 16.1967 11.0007 16.749C11.0007 17.3013 11.4484 17.749 12.0007 17.749C12.553 17.749 13.0007 17.3013 13.0007 16.749C13.0007 16.1967 12.553 15.749 12.0007 15.749ZM12.0007 5.99902C10.3439 5.99902 9.00073 7.34217 9.00073 8.99902H11.0007C11.0007 8.44674 11.4484 7.99902 12.0007 7.99902C12.553 7.99902 13.0007 8.44674 13.0007 8.99902C13.0007 9.19959 12.9424 9.38393 12.8425 9.53906C12.5429 10.0047 12.1082 10.6287 11.7546 11.127C11.2705 11.8093 11.0008 12.6282 11.0007 13.4756V14.499H13.0007V13.4756C13.0008 13.0536 13.1351 12.6371 13.3855 12.2842C13.7408 11.7834 14.1991 11.1278 14.5251 10.6211C14.8264 10.1529 15.0007 9.59474 15.0007 8.99902C15.0007 7.34217 13.6576 5.99902 12.0007 5.99902Z" fill="currentColor" />
</svg>