<svg xmlns="http://www.w3.org/2000/svg" width="24" height="24" viewBox="0 0 24 24" fill="none">
    <path d="M20.75 18.8408H19.6875C19.6572 18.8768 19.6244 18.9161 19.5928 18.96C19.4254 19.1924 19.292 19.4845 19.292 19.8184C19.292 20.152 19.4255 20.4434 19.5928 20.6758C19.6244 20.7198 19.6571 20.7598 19.6875 20.7959H20.75V22.75H6.16699C4.55622 22.75 3.2501 21.4375 3.25 19.8184V4.18164C3.2501 2.56252 4.55622 1.25 6.16699 1.25H20.75V18.8408ZM6.16797 18.8398C5.63103 18.8398 5.19531 19.2777 5.19531 19.8174C5.19546 20.357 5.63111 20.7939 6.16797 20.7939H17.501C17.4092 20.5025 17.3487 20.1761 17.3486 19.8174C17.3486 19.4584 17.4091 19.1314 17.501 18.8398H6.16797ZM10.0498 6.1416C8.82382 6.88035 8 8.2274 8 9.76758C8.00016 12.1039 9.89414 13.9979 12.2305 13.998C13.7706 13.998 15.1177 13.1743 15.8564 11.9482L16.373 11.0918L14.6592 10.0596L14.1436 10.916C13.7517 11.5664 13.0407 11.998 12.2305 11.998C10.9987 11.9979 10.0002 10.9993 10 9.76758C10 8.95729 10.4316 8.24642 11.082 7.85449L11.9385 7.33887L10.9062 5.625L10.0498 6.1416ZM14 7C13.4477 7 13 7.44772 13 8C13 8.55228 13.4477 9 14 9C14.5523 9 15 8.55229 15 8C15 7.48232 14.6067 7.05621 14.1025 7.00488L14 7Z" fill="currentColor" />
</svg>