<svg xmlns="http://www.w3.org/2000/svg" width="24" height="24" viewBox="0 0 24 24" fill="none">
    <path d="M14.9999 8.86426C14.9999 10.5211 13.6568 11.8643 11.9999 11.8643C10.3431 11.8643 8.99995 10.5211 8.99995 8.86426C8.99995 7.2074 10.3431 5.86426 11.9999 5.86426C13.6568 5.86426 14.9999 7.2074 14.9999 8.86426Z" fill="currentColor" />
    <path d="M14.9999 8.86426C14.9999 10.5211 13.6568 11.8643 11.9999 11.8643C10.3431 11.8643 8.99995 10.5211 8.99995 8.86426C8.99995 7.2074 10.3431 5.86426 11.9999 5.86426C13.6568 5.86426 14.9999 7.2074 14.9999 8.86426Z" fill="currentColor" />
    <path d="M9.8784 5.3291L9.17137 6.03613C7.60927 7.59823 7.60927 10.1313 9.17137 11.6934L9.8784 12.4004L8.46434 13.8145L7.75731 13.1074C5.41416 10.7643 5.41416 6.96522 7.75731 4.62207L8.46434 3.91504L9.8784 5.3291ZM16.2417 4.62207C18.5848 6.96522 18.5848 10.7643 16.2417 13.1074L15.5346 13.8145L14.1206 12.4004L14.8276 11.6934C16.3897 10.1313 16.3897 7.59823 14.8276 6.03613L14.1206 5.3291L15.5346 3.91504L16.2417 4.62207Z" fill="currentColor" />
    <path d="M9.8784 5.3291L9.17137 6.03613C7.60927 7.59823 7.60927 10.1313 9.17137 11.6934L9.8784 12.4004L8.46434 13.8145L7.75731 13.1074C5.41416 10.7643 5.41416 6.96522 7.75731 4.62207L8.46434 3.91504L9.8784 5.3291ZM16.2417 4.62207C18.5848 6.96522 18.5848 10.7643 16.2417 13.1074L15.5346 13.8145L14.1206 12.4004L14.8276 11.6934C16.3897 10.1313 16.3897 7.59823 14.8276 6.03613L14.1206 5.3291L15.5346 3.91504L16.2417 4.62207Z" fill="currentColor" />
    <path d="M7.75776 3.20703L7.04975 3.91406C4.31637 6.64765 4.31644 11.0798 7.04975 13.8135L7.75776 14.5205L6.34272 15.9346L5.63569 15.2275C2.12133 11.7129 2.12126 6.01463 5.63569 2.5L6.34272 1.79297L7.75776 3.20703ZM18.3642 2.5C21.8786 6.01463 21.8786 11.7129 18.3642 15.2275L17.6572 15.9346L16.2421 14.5205L16.9501 13.8135C19.6834 11.0798 19.6835 6.64765 16.9501 3.91406L16.2421 3.20703L17.6572 1.79297L18.3642 2.5Z" fill="currentColor" />
    <path d="M7.75776 3.20703L7.04975 3.91406C4.31637 6.64765 4.31644 11.0798 7.04975 13.8135L7.75776 14.5205L6.34272 15.9346L5.63569 15.2275C2.12133 11.7129 2.12126 6.01463 5.63569 2.5L6.34272 1.79297L7.75776 3.20703ZM18.3642 2.5C21.8786 6.01463 21.8786 11.7129 18.3642 15.2275L17.6572 15.9346L16.2421 14.5205L16.9501 13.8135C19.6834 11.0798 19.6835 6.64765 16.9501 3.91406L16.2421 3.20703L17.6572 1.79297L18.3642 2.5Z" fill="currentColor" />
    <path d="M10.9999 10.207H12.9999V20.207H16.4999V22.207H7.49995V20.207H10.9999V10.207Z" fill="currentColor" />
</svg>