<svg xmlns="http://www.w3.org/2000/svg" width="24" height="24" viewBox="0 0 24 24" fill="none">
    <path d="M12.0001 14.7189C11.4061 14.7189 10.8509 14.5601 10.3732 14.2833L9.72375 13.9064L5.97278 20.4025L6.62122 20.7784C8.20389 21.6947 10.042 22.2189 12.0001 22.2189C13.9543 22.2189 15.7887 21.6962 17.3693 20.7833L18.0187 20.4083L14.2687 13.9132L13.6193 14.2872C13.1432 14.5615 12.5912 14.7189 12.0001 14.7189Z" fill="currentColor" />
    <path d="M10.3702 8.65637L11.0167 8.2804L7.26672 1.78528L6.61633 2.16223C3.40968 4.021 1.25012 7.49234 1.25012 11.4689V12.2189H8.75012V11.4689C8.75012 10.2692 9.39998 9.22025 10.3702 8.65637Z" fill="currentColor" />
    <path d="M22.7501 11.4689C22.7501 7.48832 20.5862 4.01376 17.3741 2.15637L16.7247 1.7804L12.9738 8.27747L13.6232 8.65247C14.5973 9.21535 15.2501 10.2663 15.2501 11.4689V12.2189H22.7501V11.4689Z" fill="currentColor" />
    <path d="M13.5001 11.4679C13.5001 12.2963 12.8285 12.9679 12.0001 12.9679C11.1717 12.9679 10.5001 12.2963 10.5001 11.4679C10.5001 10.6395 11.1717 9.9679 12.0001 9.9679C12.8285 9.9679 13.5001 10.6395 13.5001 11.4679Z" fill="currentColor" />
</svg>