<svg xmlns="http://www.w3.org/2000/svg" width="24" height="24" viewBox="0 0 24 24" fill="none">
    <path d="M18.2637 3.04785L11.3574 5.34961H22.75V22.8496H1.25V5.34961H5.03223L17.6318 1.15039L18.2637 3.04785ZM18.3291 11.5996C16.9485 9.20883 13.891 8.39012 11.5 9.77051C9.1092 11.1512 8.29046 14.2086 9.6709 16.5996C11.0516 18.9902 14.1091 19.8091 16.5 18.4287C18.8907 17.0481 19.7093 13.9906 18.3291 11.5996ZM16.9463 13.5527C17.1716 14.767 16.6304 16.0445 15.5 16.6973C14.3691 17.3502 12.9918 17.1797 12.0527 16.377L16.9463 13.5527ZM12.5 11.502C13.6305 10.8493 15.0073 11.0191 15.9463 11.8213L11.0527 14.6455C10.8279 13.4315 11.3698 12.1546 12.5 11.502ZM6 9.09961C5.44771 9.09961 5 9.54733 5 10.0996C5 10.6519 5.44772 11.0996 6 11.0996C6.55228 11.0996 7 10.6519 7 10.0996C7 9.58193 6.60667 9.15582 6.10254 9.10449L6 9.09961Z" fill="currentColor" />
</svg>