<svg xmlns="http://www.w3.org/2000/svg" width="24" height="24" viewBox="0 0 24 24" fill="none">
    <path fill-rule="evenodd" clip-rule="evenodd" d="M18.6757 23.0532V15.561C20.2221 13.5709 20.8508 11.8315 20.7363 10.2651C20.6173 8.63836 19.7112 7.37973 18.623 6.37744C17.5445 5.38427 16.1946 4.56198 15.0702 3.84424C14.4951 3.47707 13.9777 3.13739 13.5468 2.80322C13.1118 2.46587 12.8063 2.16537 12.624 1.89014L11.999 0.945801L11.374 1.89014C11.1915 2.16541 10.8861 2.46587 10.4511 2.80322C10.0201 3.13739 9.5028 3.47707 8.92767 3.84424C7.80332 4.56202 6.45334 5.38423 5.37493 6.37744C4.28675 7.3797 3.38187 8.63849 3.26263 10.2651C3.14783 11.8316 3.77515 13.5716 5.32122 15.562L5.32122 23.0542L18.6757 23.0532ZM12.1923 14.0571C10.2912 14.0571 8.74993 12.5159 8.74993 10.6147C8.74996 9.36171 9.42022 8.26571 10.4179 7.66455L11.0605 7.27783L11.8339 8.56201L11.1913 8.94971C10.6256 9.2908 10.25 9.9093 10.2499 10.6147C10.2499 11.6875 11.1196 12.5571 12.1923 12.5571C12.8976 12.557 13.5163 12.1814 13.8574 11.6157L14.245 10.9731L15.5292 11.7466L15.1425 12.3892C14.5414 13.3868 13.4452 14.057 12.1923 14.0571ZM13.9999 9.80518C13.4476 9.80518 12.9999 9.35746 12.9999 8.80518C12.9999 8.25289 13.4476 7.80518 13.9999 7.80518L14.1025 7.81006C14.6064 7.86154 14.9999 8.28761 14.9999 8.80518C14.9999 9.35736 14.5521 9.805 13.9999 9.80518ZM6.8222 19.189L9.99993 16.8052L11.9999 18.8052L14.4999 16.8052L17.1767 19.0991V21.5552H6.8222V19.189Z" fill="currentColor" />
</svg>