<svg xmlns="http://www.w3.org/2000/svg" width="24" height="24" viewBox="0 0 24 24" fill="none">
    <path d="M1.12506 17.25C1.12506 15.8693 2.24435 14.75 3.62506 14.75H8.12506V16.75H3.62506C3.34892 16.75 3.12506 16.9739 3.12506 17.25C3.12506 17.5261 3.34892 17.75 3.62506 17.75H14.1251V19.75H3.62506C2.24435 19.75 1.12506 18.6307 1.12506 17.25Z" fill="currentColor" />
    <path fill-rule="evenodd" clip-rule="evenodd" d="M10.5936 15.25C10.6141 15.3299 10.6251 15.4136 10.6251 15.5V16.75H7.12506C3.94945 16.75 1.37511 14.1756 1.37506 11V10.664C1.37506 7.20552 4.40618 4.52919 7.83795 4.95797L11.6924 5.44039C12.4667 5.53718 13.2271 5.70894 13.9639 5.95113C14.1101 5.72708 14.2832 5.51513 14.4835 5.32027C15.9502 3.89322 18.3204 3.89326 19.7872 5.32027C21.1188 6.61586 21.1078 8.5659 20.1319 9.96578C20.9813 10.8915 21.7311 11.9549 22.3672 12.9726L22.4883 13.166C22.741 13.5704 22.875 14.0377 22.8751 14.5146V15C22.875 15.9664 22.0915 16.75 21.1251 16.75H12.6251V15.5C12.6251 15.4158 12.6216 15.3324 12.6148 15.25C12.5205 14.1071 11.7853 13.1461 10.7696 12.7265C10.9961 12.2833 11.1251 11.7819 11.1251 11.25C11.1251 9.45504 9.66999 7.99996 7.87506 7.99996H7.12506V9.99996H7.87506C8.56542 9.99996 9.12506 10.5596 9.12506 11.25C9.12506 11.9403 8.56542 12.5 7.87506 12.5H7.12506V14.5H9.62506C10.091 14.5 10.4825 14.8187 10.5936 15.25ZM17.1348 11C17.6871 11 18.1348 11.4477 18.1348 12C18.1348 12.5522 17.6871 13 17.1348 13C16.5825 13 16.1251 12.5522 16.1251 12C16.1251 11.4477 16.5825 11 17.1348 11Z" fill="currentColor" />
</svg>