<svg xmlns="http://www.w3.org/2000/svg" width="24" height="24" viewBox="0 0 24 24" fill="none">
    <path d="M20.7501 23.2139L17.0333 21.3545L14.5001 22.875L12.0001 21.375L9.50012 22.875L6.96594 21.3545L3.25012 23.2139V0.786133L6.96594 2.64453L9.50012 1.125L12.0001 2.625L14.5001 1.125L17.0333 2.64453L20.7501 0.786133V23.2139ZM12.1056 7.25098C10.2524 7.25102 8.75017 8.75329 8.75012 10.6064V11.251H7.25012V12.751H8.75012V13.3955C8.75017 15.2487 10.2524 16.7509 12.1056 16.751C12.7677 16.751 13.3841 16.5972 13.921 16.2617C14.4572 15.9266 14.8703 15.4374 15.171 14.8359L15.506 14.166L14.1652 13.4951L13.8292 14.166C13.6301 14.5642 13.3899 14.8254 13.1261 14.9902C12.8629 15.1547 12.5315 15.251 12.1056 15.251C11.0809 15.2509 10.2502 14.4202 10.2501 13.3955V12.751H12.8556V11.251H10.2501V10.6064C10.2502 9.58172 11.0809 8.75102 12.1056 8.75098C12.5315 8.75098 12.8629 8.84725 13.1261 9.01172C13.3899 9.17656 13.6301 9.43775 13.8292 9.83594L14.1652 10.5068L15.506 9.83594L15.171 9.16602C14.8703 8.56453 14.4572 8.07533 13.921 7.74023C13.3841 7.40472 12.7677 7.25098 12.1056 7.25098Z" fill="currentColor" />
</svg>