<svg xmlns="http://www.w3.org/2000/svg" width="24" height="24" viewBox="0 0 24 24" fill="none">
    <path d="M20.7501 23.2139L17.0333 21.3545L14.5001 22.875L12.0001 21.375L9.50012 22.875L6.96594 21.3545L3.25012 23.2139V0.786133L6.96594 2.64453L9.50012 1.125L12.0001 2.625L14.5001 1.125L17.0333 2.64453L20.7501 0.786133V23.2139ZM14.2677 7.84082C14.1256 8.49197 13.4755 9.74584 12.0001 10.6396C10.5248 9.74584 9.87461 8.49197 9.73254 7.84082L9.57336 7.1084L8.10754 7.42773L8.2677 8.16113C8.4988 9.21985 9.40516 10.8324 11.2501 11.9395V12.9336H8.75012V14.4336H11.2501V17.751H12.7501V14.4336H15.2501V12.9336H12.7501V11.9395C14.5951 10.8324 15.5014 9.21985 15.7325 8.16113L15.8927 7.42773L14.4269 7.1084L14.2677 7.84082Z" fill="currentColor" />
</svg>