<svg xmlns="http://www.w3.org/2000/svg" width="24" height="24" viewBox="0 0 24 24" fill="none">
    <path d="M22.75 1.25V13.751L14 13.7422L10.25 16.75V13.7471L7.25 13.7354V1.25H22.75ZM14.4805 4.41895C14.3756 4.47558 14.2306 4.55793 14.0654 4.66211C13.742 4.86616 13.3085 5.17436 12.9492 5.56445C12.6013 5.94225 12.2321 6.49614 12.2383 7.17773C12.2434 7.73356 12.4951 8.23006 12.9346 8.66211L12.2744 10.4414L13.6807 10.9629L14.3428 9.17871H15.6953L16.6465 11.0107L17.9775 10.3193L17.0908 8.61035C17.4981 8.19044 17.7298 7.71056 17.7344 7.17676C17.7401 6.49534 17.3705 5.94209 17.0225 5.56445C16.6631 5.17453 16.2298 4.86614 15.9062 4.66211C15.7409 4.55786 15.5952 4.4756 15.4902 4.41895C15.4374 4.39043 14.9854 4.16797 14.9854 4.16797C14.9541 4.18383 14.5329 4.39062 14.4805 4.41895Z" fill="currentColor" />
    <path d="M6 5.25V14.9805L9 14.9922V18H10.6885L13.75 15.543V22.75H1.25V5.25H6ZM7.5 18.0039C6.94771 18.0039 6.5 18.4516 6.5 19.0039C6.5 19.5562 6.94772 20.0039 7.5 20.0039C8.05228 20.0039 8.5 19.5562 8.5 19.0039C8.5 18.4862 8.10667 18.0601 7.60254 18.0088L7.5 18.0039Z" fill="currentColor" />
</svg>