<svg xmlns="http://www.w3.org/2000/svg" width="24" height="24" viewBox="0 0 24 24" fill="none">
    <path fill-rule="evenodd" clip-rule="evenodd" d="M14.5332 2.04451L12.3529 5.53301H16.3529L12.7382 11.3165L11.4662 10.5215L13.6465 7.03301H9.64648L13.2612 1.24951L14.5332 2.04451Z" fill="currentColor" />
    <path d="M6.94043 8.53369H10.9404L9.39941 10.9995L13.2158 13.3843L17.6797 6.24268C17.9114 6.35487 18.1423 6.47823 18.3721 6.61279C20.9659 8.06245 22.75 10.5764 22.75 13.5005C22.75 15.7441 21.3426 17.9051 19.75 19.3413V22.7505H16.5986L15.6865 21.3813C14.2573 21.7874 12.165 22.1153 10.2793 21.4341L9.40137 22.7505H6.25V19.3911L1.25 15.8911V11.7505H3.40918C4.09904 9.30492 5.85045 7.60472 7.63281 6.60986C7.84314 6.4907 8.09152 6.36548 8.37305 6.2417L6.94043 8.53369ZM7 10.9995C6.44772 10.9995 6 11.4472 6 11.9995C6 12.5518 6.44772 12.9995 7 12.9995H7.00879C7.56107 12.9995 8.00879 12.5518 8.00879 11.9995C8.00879 11.4472 7.56107 10.9995 7.00879 10.9995H7Z" fill="currentColor" />
</svg>