<svg xmlns="http://www.w3.org/2000/svg" width="24" height="24" viewBox="0 0 24 24" fill="none">
    <path d="M12 22.75C17.9371 22.75 22.75 17.9369 22.75 12C22.75 6.06292 17.9371 1.25 12 1.25C6.06292 1.25 1.25 6.06292 1.25 12C1.25 17.9369 6.06291 22.75 12 22.75ZM4.25 11.75H5.75L5.75 12.75H7.25L7.25 7.75L8.75 7.75L8.75 14.25L4.25 14.25L4.25 11.75ZM10.25 7.75H11.75V12.75H13.25V11.75H14.75V14.25H10.25V7.75ZM15.75 13.75H16.5C17.4427 13.75 18.25 12.9019 18.25 11.5V9.75H19.75V11.5C19.75 13.4118 18.5573 15.25 16.5 15.25H15.75V13.75ZM11.0996 16.9502C10.6303 16.95 10.25 16.5689 10.25 16.0996C10.2502 15.6305 10.6305 15.2502 11.0996 15.25C11.5689 15.25 11.95 15.6303 11.9502 16.0996C11.9502 16.5691 11.569 16.9502 11.0996 16.9502ZM13.8984 16.9502C13.4582 16.9502 13.0961 16.6153 13.0527 16.1865L13.0488 16.0996L13.0527 16.0127C13.0964 15.5843 13.4585 15.25 13.8984 15.25C14.3677 15.25 14.7478 15.6303 14.748 16.0996C14.748 16.5691 14.3679 16.9502 13.8984 16.9502Z" fill="currentColor" />
</svg>