<svg xmlns="http://www.w3.org/2000/svg" width="24" height="24" viewBox="0 0 24 24" fill="none">
    <path d="M8.09092 3.19983C11.3993 3.19983 13.5892 4.87411 15.1339 6.41956L15.8253 7.11096L14.4435 8.49377L13.7521 7.80237C12.9756 7.02553 12.0955 6.28854 11.0226 5.79065V10.5328H9.06846V5.22131C8.75661 5.17931 8.43124 5.15491 8.09092 5.15491C7.7499 5.15491 7.42367 5.17708 7.11338 5.21838V10.5328H5.15928V5.83264C4.91717 5.96498 4.696 6.11305 4.49815 6.276C3.6831 6.94756 3.20432 7.89462 3.2042 9.06604C3.2042 11.2728 5.18478 12.9771 8.09092 12.9772C10.8366 12.9772 15.8139 10.872 20.5011 4.5719L20.794 4.17737H22.7501V20.7994H20.796V7.34534C20.1493 8.11289 19.4946 8.81345 18.8409 9.45374V20.7994H16.8868V11.1901C16.2286 11.7161 15.5747 12.1805 14.9317 12.5885V20.7994H12.9776V13.6735C12.3039 13.994 11.6498 14.2492 11.0226 14.444V20.7994H9.06846V14.8717C8.7291 14.9122 8.40274 14.9332 8.09092 14.9332C7.76171 14.9332 7.43516 14.9135 7.11338 14.8766V20.7994H5.15928V14.403C4.4344 14.1258 3.77105 13.7437 3.2042 13.2653V20.7994H1.2501V9.0885H1.25108C1.25105 9.08117 1.2501 9.07338 1.2501 9.06604C1.25023 7.30482 1.99391 5.80754 3.25498 4.76819C3.80805 4.31248 4.45074 3.95249 5.15928 3.69299V3.68909H5.171C6.05622 3.36657 7.04419 3.19984 8.09092 3.19983Z" fill="currentColor" />
</svg>