<svg xmlns="http://www.w3.org/2000/svg" width="24" height="24" viewBox="0 0 24 24" fill="none">
    <path fill-rule="evenodd" clip-rule="evenodd" d="M13.4609 2.12583C14.2503 1.33315 15.3017 1.10011 16.3662 1.33774C17.3924 1.56683 18.4225 2.22371 19.376 3.18149C20.9313 4.74394 21.5537 6.35404 21.709 7.75766C21.8619 9.14094 21.5544 10.2598 21.3584 10.8504L21.2871 11.0672L18.3271 14.0418C16.0175 16.3619 12.2716 16.3618 9.96191 14.0418C9.67255 13.7512 9.41899 13.4375 9.20215 13.1073C8.28969 13.8428 7.51754 14.7813 6.875 15.7811C7.34593 15.7817 7.78063 15.8387 8.18359 15.9461C8.98036 16.1587 9.59523 16.5561 10.084 17.0223C11.1173 18.0083 11.6882 19.6188 12.0625 21.0916L12.3008 22.0252L11.3711 22.2684C9.80133 22.6802 8.34239 22.7581 7.0332 21.8485C6.26281 21.343 5.61428 20.5168 5.10547 19.367C4.90397 19.901 4.7449 20.3811 4.62598 20.7723C4.52696 21.0981 4.45524 21.3609 4.40918 21.5399C4.38624 21.629 4.36904 21.6973 4.3584 21.742C4.35319 21.764 4.35 21.7806 4.34766 21.7909C4.34656 21.7957 4.34518 21.7996 4.34473 21.8016V21.8036L4.13574 22.7499L2.25 22.3319L2.45801 21.3856L2.45898 21.3827C2.45898 21.3827 2.45947 21.379 2.45996 21.3768C2.46097 21.3723 2.4631 21.3658 2.46484 21.3582L2.4668 21.3485C2.47011 21.334 2.47517 21.3151 2.48047 21.2928C2.49375 21.237 2.51299 21.1568 2.53906 21.0555C2.59135 20.8524 2.67037 20.562 2.77832 20.2069C2.99395 19.4975 3.32811 18.5201 3.80273 17.4471C4.70628 15.4047 6.17075 12.8938 8.4043 11.2782C7.9213 9.32353 8.44102 7.1705 9.96191 5.64243L13.4609 2.12583ZM16.0303 9.70884C14.4541 9.57388 12.5771 10.0153 10.7041 11.8592C10.8729 12.1495 11.0805 12.4239 11.3281 12.6727C12.8833 14.2348 15.4047 14.2346 16.96 12.6727L18.9561 10.6668C18.1904 10.2112 17.1721 9.80664 16.0303 9.70884ZM15.9463 3.23032C15.4741 3.12499 15.1412 3.21994 14.8877 3.44223C14.6199 3.89751 14.2035 5.32618 15.7002 7.1688C16.6401 6.3517 17.0509 4.98261 17.082 3.93247L17.0869 3.77036C16.6593 3.47536 16.2727 3.3032 15.9463 3.23032Z" fill="currentColor" />
</svg>