<svg xmlns="http://www.w3.org/2000/svg" width="24" height="24" viewBox="0 0 24 24" fill="none">
    <path fill-rule="evenodd" clip-rule="evenodd" d="M11.9878 3.20455C7.13585 3.20455 3.20259 7.1424 3.20259 12C3.20259 15.48 5.22114 18.4898 8.15435 19.9164L7.30127 21.6745C3.72139 19.9333 1.25032 16.2565 1.25032 12C1.25032 6.06294 6.05764 1.25 11.9878 1.25C14.5842 1.25 16.9654 2.17319 18.8214 3.70792V2.22727H20.7737V6.13636C20.7737 6.55688 20.505 6.93025 20.1066 7.06337C19.7081 7.1965 19.2693 7.05952 19.0171 6.72329C17.4126 4.58476 14.8613 3.20455 11.9878 3.20455Z" fill="currentColor" />
    <path fill-rule="evenodd" clip-rule="evenodd" d="M22.0456 7.32129L22.3114 8.26164C22.4316 8.68692 22.5258 9.11639 22.595 9.54784L22.7496 10.5128L20.822 10.8224L20.6674 9.8575C20.6101 9.5 20.5321 9.14488 20.4329 8.79384L20.1671 7.85349L22.0456 7.32129ZM22.7278 12.495L22.5588 13.4575C22.4842 13.8826 22.387 14.3033 22.2682 14.7176L21.9987 15.6569L20.1223 15.1173L20.3918 14.178C20.4918 13.8296 20.5734 13.476 20.636 13.1192L20.805 12.1567L22.7278 12.495ZM21.1971 17.3815L20.6513 18.1917C20.3982 18.5674 20.1236 18.9295 19.8284 19.2754L19.1942 20.0183L17.7101 18.7486L18.3442 18.0056C18.5907 17.7168 18.8205 17.4139 19.0327 17.0989L19.5785 16.2886L21.1971 17.3815ZM17.6642 21.2959L16.8171 21.7814C16.4386 21.9982 16.0447 22.1945 15.636 22.3681L14.7374 22.7498L13.9749 20.9505L14.8736 20.5688C15.2104 20.4257 15.5351 20.2639 15.8473 20.0851L16.6944 19.5996L17.6642 21.2959ZM9.94779 20.3697L10.9152 20.4999C11.3115 20.5532 11.7166 20.5808 12.1288 20.5808H13.1049V22.5353H12.1288C11.6294 22.5353 11.1375 22.5019 10.6553 22.437L9.68782 22.3069L9.94779 20.3697Z" fill="currentColor" />
</svg>