<svg xmlns="http://www.w3.org/2000/svg" width="24" height="24" viewBox="0 0 24 24" fill="none">
    <path fill-rule="evenodd" clip-rule="evenodd" d="M12.0125 3.20455C16.8644 3.20455 20.7977 7.1424 20.7977 12C20.7977 15.48 18.7791 18.4898 15.8459 19.9164L16.699 21.6745C20.2789 19.9333 22.75 16.2565 22.75 12C22.75 6.06294 17.9426 1.25 12.0125 1.25C9.41609 1.25 7.03491 2.17319 5.17886 3.70792V2.22727H3.22659V6.13636C3.22659 6.55688 3.49529 6.93025 3.89371 7.06337C4.29214 7.1965 4.73095 7.05952 4.98321 6.72329C6.58764 4.58476 9.13894 3.20455 12.0125 3.20455Z" fill="currentColor" />
    <path fill-rule="evenodd" clip-rule="evenodd" d="M1.95406 7.32129L1.68827 8.26164C1.56806 8.68692 1.47383 9.11639 1.40468 9.54784L1.25003 10.5128L3.17764 10.8224L3.33229 9.8575C3.38959 9.5 3.46755 9.14488 3.56677 8.79384L3.83256 7.85349L1.95406 7.32129ZM1.27188 12.495L1.44083 13.4575C1.51544 13.8826 1.6126 14.3033 1.73144 14.7176L2.00091 15.6569L3.87731 15.1173L3.60784 14.178C3.50788 13.8296 3.42626 13.476 3.36363 13.1192L3.19468 12.1567L1.27188 12.495ZM2.80258 17.3815L3.34836 18.1917C3.60144 18.5674 3.87603 18.9295 4.17127 19.2754L4.80542 20.0183L6.28959 18.7486L5.65544 18.0056C5.40893 17.7168 5.17914 17.4139 4.96695 17.0989L4.42117 16.2886L2.80258 17.3815ZM6.33541 21.2959L7.18259 21.7814C7.561 21.9982 7.95495 22.1945 8.36361 22.3681L9.26222 22.7498L10.0247 20.9505L9.12609 20.5688C8.78926 20.4257 8.4645 20.2639 8.15238 20.0851L7.3052 19.5996L6.33541 21.2959ZM14.0519 20.3697L13.0844 20.4999C12.6881 20.5532 12.283 20.5808 11.8709 20.5808H10.8947V22.5353H11.8709C12.3702 22.5353 12.8621 22.5019 13.3444 22.437L14.3118 22.3069L14.0519 20.3697Z" fill="currentColor" />
</svg>