<svg xmlns="http://www.w3.org/2000/svg" width="24" height="24" viewBox="0 0 24 24" fill="none">
    <path d="M12.6133 8.15625C13.1677 8.21268 13.6004 8.68072 13.6006 9.25C13.6006 9.85738 13.1083 10.3504 12.501 10.3506C11.8935 10.3506 11.4004 9.85751 11.4004 9.25C11.4006 8.64267 11.8936 8.15039 12.501 8.15039L12.6133 8.15625ZM12.501 4.58203C13.671 4.58203 14.723 5.08021 15.4746 5.86719L14.0273 7.24805C13.6273 6.82937 13.0881 6.58203 12.501 6.58203C11.9138 6.58203 11.3746 6.82937 10.9746 7.24805L9.52734 5.86719C10.2789 5.08021 11.3309 4.58203 12.501 4.58203ZM12.501 1.25C14.5497 1.25 16.3972 2.12083 17.7246 3.51074L16.2773 4.89258C15.3015 3.8708 13.9669 3.25 12.501 3.25C11.035 3.25 9.70049 3.8708 8.72461 4.89258L7.27734 3.51074C8.60475 2.12083 10.4523 1.25 12.501 1.25Z" fill="currentColor" />
    <path d="M22.75 22.75H1.25V11.25H22.75V22.75ZM5 18H11V16H5V18ZM14 16C13.4477 16 13 16.4477 13 17C13 17.5523 13.4477 18 14 18C14.5523 18 15 17.5523 15 17C15 16.4477 14.5523 16 14 16ZM18 16C17.4477 16 17 16.4477 17 17C17 17.5523 17.4477 18 18 18C18.5523 18 19 17.5523 19 17C19 16.4477 18.5523 16 18 16Z" fill="currentColor" />
</svg>