<svg xmlns="http://www.w3.org/2000/svg" width="24" height="24" viewBox="0 0 24 24" fill="none">
    <path d="M21.7496 5C21.7496 7.07107 20.0707 8.75 17.9996 8.75C15.9286 8.75 14.2496 7.07107 14.2496 5C14.2496 2.92893 15.9286 1.25 17.9996 1.25C20.0707 1.25 21.7496 2.92893 21.7496 5Z" fill="currentColor" />
    <path d="M9.74965 19C9.74965 21.0711 8.07072 22.75 5.99965 22.75C3.92858 22.75 2.24965 21.0711 2.24965 19C2.24965 16.9289 3.92858 15.25 5.99965 15.25C8.07072 15.25 9.74965 16.9289 9.74965 19Z" fill="currentColor" />
    <path fill-rule="evenodd" clip-rule="evenodd" d="M2.66386 1.25L22.7496 21.3358L21.3354 22.75L1.24965 2.66421L2.66386 1.25Z" fill="currentColor" />
    <path fill-rule="evenodd" clip-rule="evenodd" d="M5.31669 5.319C4.50293 6.13326 3.99965 7.25786 3.99965 8.5C3.99965 10.9853 6.01437 13 8.49965 13H12.9977L10.9977 11H8.49965C7.11894 11 5.99965 9.88071 5.99965 8.5C5.99965 7.81014 6.27907 7.18554 6.73091 6.73321L5.31669 5.319ZM14.1813 11L16.3185 13.1372C17.0405 13.3874 17.6123 13.9592 17.8625 14.6812L19.8472 16.6659C19.9466 16.294 19.9996 15.9032 19.9996 15.5C19.9996 13.0147 17.9849 11 15.4996 11H14.1813ZM18.6807 18.683L17.2664 17.2687C16.8141 17.7206 16.1895 18 15.4996 18H11.9996V20H15.4996C16.7418 20 17.8664 19.4967 18.6807 18.683ZM9.18129 6L7.33378 4.15249C7.70562 4.05303 8.09644 4 8.49965 4H11.9996V6H9.18129Z" fill="currentColor" />
</svg>