<svg xmlns="http://www.w3.org/2000/svg" width="24" height="24" viewBox="0 0 24 24" fill="none">
    <path d="M17.125 20.875C17.125 19.5805 16.9498 18.3282 16.6221 17.1406L16.3555 16.1768L18.2832 15.6445L18.5498 16.6094C18.9249 17.9685 19.125 19.3992 19.125 20.875V21.875H17.125V20.875ZM3.125 4.875C4.6008 4.875 6.03147 5.07511 7.39062 5.4502L8.35547 5.7168L7.82324 7.64453L6.85938 7.37793C5.67178 7.05015 4.41946 6.875 3.125 6.875H2.125V4.875H3.125Z" fill="currentColor" />
    <path d="M10.125 20.875C10.125 17.009 6.99099 13.875 3.125 13.875H2.125V11.875H3.125C8.09556 11.875 12.125 15.9044 12.125 20.875V21.875H10.125V20.875Z" fill="currentColor" />
    <path d="M16.125 2.125C19.3006 2.125 21.875 4.69936 21.875 7.875C21.875 11.0506 19.3006 13.625 16.125 13.625C12.9494 13.625 10.375 11.0506 10.375 7.875C10.375 4.69936 12.9494 2.125 16.125 2.125ZM15.625 8.3125L14.125 6.8125L13.0645 7.87305L15.625 10.4336L19.1855 6.87305L18.125 5.8125L15.625 8.3125Z" fill="currentColor" />
    <path d="M2.125 20.375C2.125 21.2034 2.79657 21.875 3.625 21.875C4.45343 21.875 5.125 21.2034 5.125 20.375C5.125 19.5466 4.45343 18.875 3.625 18.875C2.79657 18.875 2.125 19.5466 2.125 20.375Z" fill="currentColor" />
</svg>