<svg xmlns="http://www.w3.org/2000/svg" width="24" height="24" viewBox="0 0 24 24" fill="none">
    <path d="M17.125 20.875C17.125 19.2369 16.8446 17.6664 16.3291 16.208L15.9951 15.2656L17.8809 14.5986L18.2139 15.542C18.8039 17.2114 19.125 19.0068 19.125 20.875V21.875H17.125V20.875ZM3.125 4.875C5.39869 4.875 7.56412 5.35012 9.52539 6.20703L10.4414 6.60742L9.64062 8.43945L8.72461 8.03906C7.01115 7.29045 5.11787 6.875 3.125 6.875H2.125V4.875H3.125Z" fill="currentColor" />
    <path d="M10.125 20.875C10.125 17.009 6.99099 13.875 3.125 13.875H2.125V11.875H3.125C8.09556 11.875 12.125 15.9044 12.125 20.875V21.875H10.125V20.875Z" fill="currentColor" />
    <path d="M3.625 18.875C4.45342 18.875 5.125 19.5466 5.125 20.375C5.125 21.2034 4.45342 21.875 3.625 21.875C2.79657 21.875 2.125 21.2034 2.125 20.375C2.125 19.5466 2.79657 18.875 3.625 18.875Z" fill="currentColor" />
    <path d="M17.125 2.125C17.9465 2.125 18.6847 2.48599 19.1875 3.05566L19.6836 3.61816L18.5586 4.61035L18.0625 4.04883C17.8324 3.78808 17.4982 3.625 17.125 3.625C16.4346 3.625 15.875 4.18464 15.875 4.875V6.125H21.875V12.625H12.375V6.125H14.375V4.875C14.375 3.35622 15.6062 2.125 17.125 2.125Z" fill="currentColor" />
</svg>