<svg xmlns="http://www.w3.org/2000/svg" width="24" height="24" viewBox="0 0 24 24" fill="none">
    <path d="M19 11.75V13.25V14.5H17V13.25V11.75H15V13.25V14.5H13V13.25V11.75H11V13.25V14.5H9V13.25V11.75H7V13.25V14.5H5V13.25V11.75H1.25V20.75H22.75V11.75H19Z" fill="currentColor" />
    <path d="M5.41406 4.66406L4.41406 5.66406H19.5859L18.5859 4.66406L20 3.25L23.4141 6.66406L20 10.0781L18.5859 8.66406L19.5859 7.66406H4.41406L5.41406 8.66406L4 10.0781L0.585938 6.66406L4 3.25L5.41406 4.66406Z" fill="currentColor" />
</svg>