<svg xmlns="http://www.w3.org/2000/svg" width="24" height="24" viewBox="0 0 24 24" fill="none">
    <path d="M12 22.75C17.9371 22.75 22.75 17.9371 22.75 12C22.75 6.06294 17.9371 1.25 12 1.25C6.06294 1.25 1.25 6.06294 1.25 12C1.25 17.9371 6.06294 22.75 12 22.75ZM8.5 10.3496C7.7024 10.3496 6.95184 10.0448 6.45313 9.51367L5.93945 8.9668L7.0332 7.93945L7.54688 8.48633C7.73225 8.68378 8.07092 8.84961 8.5 8.84961C8.92908 8.84961 9.26775 8.68379 9.45313 8.48633L9.9668 7.93945L11.0605 8.9668L10.5469 9.51367C10.0482 10.0448 9.2976 10.3496 8.5 10.3496ZM15.5 10.3496C14.7024 10.3496 13.9518 10.0448 13.4531 9.51367L12.9395 8.9668L14.0332 7.93945L14.5469 8.48633C14.7323 8.68378 15.0709 8.84961 15.5 8.84961C15.9291 8.84961 16.2677 8.68379 16.4531 8.48633L16.9668 7.93945L18.0605 8.9668L17.5469 9.51367C17.0482 10.0448 16.2976 10.3496 15.5 10.3496ZM15.3994 17.4502C14.6228 16.4163 13.3888 15.75 11.999 15.75C10.6093 15.75 9.37521 16.4163 8.59863 17.4502L8.14844 18.0498L6.94922 17.1494L7.39941 16.5498C8.44709 15.1549 10.1175 14.25 11.999 14.25C13.8806 14.25 15.551 15.1549 16.5986 16.5498L17.0488 17.1494L15.8496 18.0498L15.3994 17.4502Z" fill="currentColor" />
</svg>