<svg xmlns="http://www.w3.org/2000/svg" width="24" height="24" viewBox="0 0 24 24" fill="none">
    <path fill-rule="evenodd" clip-rule="evenodd" d="M2.75 17.9089V20.5903H21.25V17.9089L18.6855 17.5414L16.1328 18.3939L15.542 18.5902L15.1689 18.4828L14.9463 18.4183L12 17.5756L9.05273 18.4174L8.83105 18.4828L8.45801 18.5902L7.86914 18.3949L5.31348 17.5414L2.75 17.9089Z" fill="currentColor" />
    <path fill-rule="evenodd" clip-rule="evenodd" d="M1.97367 13.9545L1.49854 14.7465V16.8197L2.75 16.6468L4.24729 16.4323L5.42871 16.2631L8.26269 17.2084L8.4834 17.2816L8.70605 17.2172L12 16.2758L15.2939 17.2172L15.5166 17.2816L15.7373 17.2084L18.5703 16.2631L19.7527 16.4324L21.25 16.6469L22.4985 16.8197V14.7465L22.0234 13.9545H1.97367Z" fill="currentColor" />
    <path fill-rule="evenodd" clip-rule="evenodd" d="M21.25 10.2153H2.75V12.2883V12.7466H4H20H21.25V12.2883V10.2153ZM17.2969 3.40967L20.8321 8.96533H3.66083L17.2969 3.40967Z" fill="currentColor" />
</svg>