<svg xmlns="http://www.w3.org/2000/svg" width="24" height="24" viewBox="0 0 24 24" fill="none">
    <path d="M14.75 4.99902C14.75 6.51781 13.5188 7.74902 12 7.74902C10.4812 7.74902 9.25 6.51781 9.25 4.99902C9.25 3.48024 10.4812 2.24902 12 2.24902C13.5188 2.24902 14.75 3.48024 14.75 4.99902Z" fill="currentColor" />
    <path d="M11 3.99902V5.99902H3V3.99902H11ZM21 3.99902V5.99902H13V3.99902H21Z" fill="currentColor" />
    <path d="M18 19.749V21.749H6V19.749H18Z" fill="currentColor" />
    <path d="M11 5.99902H13V21.499H11V5.99902Z" fill="currentColor" />
    <path d="M9.71973 13.7871L9.75 13.8906V13.999C9.75 15.055 9.31042 15.9019 8.5791 16.4648C7.87094 17.01 6.94496 17.249 6 17.249C5.05504 17.249 4.12906 17.01 3.4209 16.4648C2.68958 15.9019 2.25 15.055 2.25 13.999V13.8906L2.28027 13.7871L4.93848 4.74902H7.06152L9.71973 13.7871Z" fill="currentColor" />
    <path d="M21.7197 13.7871L21.75 13.8906V13.999C21.75 15.055 21.3104 15.9019 20.5791 16.4648C19.8709 17.01 18.945 17.249 18 17.249C17.055 17.249 16.1291 17.01 15.4209 16.4648C14.6896 15.9019 14.25 15.055 14.25 13.999V13.8906L14.2803 13.7871L16.9385 4.74902H19.0615L21.7197 13.7871Z" fill="currentColor" />
</svg>