<svg xmlns="http://www.w3.org/2000/svg" width="24" height="24" viewBox="0 0 24 24" fill="none">
    <path d="M16.8853 12.7129L16.3364 13.5479C15.3824 14.9996 13.818 15.999 12.0005 15.999C10.183 15.999 8.61858 14.9996 7.66455 13.5479L7.11572 12.7129L8.78662 11.6143L9.33643 12.4502C9.97862 13.4272 10.9557 13.999 12.0005 13.999C13.0453 13.999 14.0224 13.4272 14.6646 12.4502L15.2144 11.6143L16.8853 12.7129Z" fill="currentColor" />
    <path d="M9.00049 7.74902C9.69084 7.74902 10.2505 8.30867 10.2505 8.99902C10.2505 9.68938 9.69084 10.249 9.00049 10.249C8.31013 10.249 7.75049 9.68938 7.75049 8.99902C7.75049 8.30867 8.31013 7.74902 9.00049 7.74902Z" fill="currentColor" />
    <path d="M15.0005 7.74902C15.6908 7.74902 16.2505 8.30867 16.2505 8.99902C16.2505 9.68938 15.6908 10.249 15.0005 10.249C14.3101 10.249 13.7505 9.68938 13.7505 8.99902C13.7505 8.30867 14.3101 7.74902 15.0005 7.74902Z" fill="currentColor" />
    <path d="M1.50049 13.999H3.50049V20.499H10.0005V22.499H1.50049V13.999ZM20.5005 13.999H22.5005V22.499H14.0005V20.499H20.5005V13.999ZM1.50049 1.49902H10.0005V3.49902H3.50049V9.99902H1.50049V1.49902ZM20.5005 3.49902H14.0005V1.49902H22.5005V9.99902H20.5005V3.49902Z" fill="currentColor" />
</svg>