<svg xmlns="http://www.w3.org/2000/svg" width="24" height="24" viewBox="0 0 24 24" fill="none">
    <path d="M7.79297 5.99902C7.79297 4.89445 6.89754 3.99902 5.79297 3.99902C4.6884 3.99902 3.79297 4.89445 3.79297 5.99902C3.79297 7.10359 4.6884 7.99902 5.79297 7.99902C6.89754 7.99902 7.79297 7.10359 7.79297 5.99902ZM9.79297 5.99902C9.79297 8.20816 8.00211 9.99902 5.79297 9.99902C3.58383 9.99902 1.79297 8.20816 1.79297 5.99902C1.79297 3.78988 3.58383 1.99902 5.79297 1.99902C8.00211 1.99902 9.79297 3.78988 9.79297 5.99902Z" fill="currentColor" />
    <path d="M22.2061 18.9375L20.8545 20.4121L7.37988 8.06055L8.73145 6.58594L22.2061 18.9375Z" fill="currentColor" />
    <path d="M7.79297 17.999C7.79297 16.8945 6.89754 15.999 5.79297 15.999C4.6884 15.999 3.79297 16.8945 3.79297 17.999C3.79297 19.1036 4.6884 19.999 5.79297 19.999C6.89754 19.999 7.79297 19.1036 7.79297 17.999ZM9.79297 17.999C9.79297 20.2082 8.00211 21.999 5.79297 21.999C3.58383 21.999 1.79297 20.2082 1.79297 17.999C1.79297 15.7899 3.58383 13.999 5.79297 13.999C6.79187 13.999 7.7043 14.3663 8.40527 14.9717L12.793 10.585L14.207 11.999L9.55762 16.6475C9.70925 17.0698 9.79297 17.5245 9.79297 17.999Z" fill="currentColor" />
    <path d="M22.207 3.99902L15.293 10.9131L13.8789 9.49902L20.793 2.58496L22.207 3.99902Z" fill="currentColor" />
</svg>