<svg xmlns="http://www.w3.org/2000/svg" width="24" height="24" viewBox="0 0 24 24" fill="none">
    <path d="M16.5 10.999V12.999H12.5V10.999H16.5Z" fill="currentColor" />
    <path d="M22.5 10.999V12.999H18.5V10.999H22.5Z" fill="currentColor" />
    <path d="M5.5 7.99902C5.5 7.44674 5.05228 6.99902 4.5 6.99902C3.94772 6.99902 3.5 7.44674 3.5 7.99902C3.5 8.55131 3.94772 8.99902 4.5 8.99902C5.05228 8.99902 5.5 8.55131 5.5 7.99902ZM7.5 7.99902C7.5 9.65588 6.15685 10.999 4.5 10.999C2.84315 10.999 1.5 9.65588 1.5 7.99902C1.5 6.34217 2.84315 4.99902 4.5 4.99902C6.15685 4.99902 7.5 6.34217 7.5 7.99902Z" fill="currentColor" />
    <path d="M14.9141 16.999L13.5 18.4131L9.58594 14.499L11 13.085L14.9141 16.999ZM14.9141 6.99902L6.5 15.4131L5.08594 13.999L7.08594 11.999L5.08594 9.99902L6.5 8.58496L8.5 10.585L13.5 5.58496L14.9141 6.99902Z" fill="currentColor" />
    <path d="M5.5 15.999C5.5 15.4467 5.05228 14.999 4.5 14.999C3.94772 14.999 3.5 15.4467 3.5 15.999C3.5 16.5513 3.94772 16.999 4.5 16.999C5.05228 16.999 5.5 16.5513 5.5 15.999ZM7.5 15.999C7.5 17.6559 6.15685 18.999 4.5 18.999C2.84315 18.999 1.5 17.6559 1.5 15.999C1.5 14.3422 2.84315 12.999 4.5 12.999C6.15685 12.999 7.5 14.3422 7.5 15.999Z" fill="currentColor" />
</svg>