<svg xmlns="http://www.w3.org/2000/svg" width="24" height="24" viewBox="0 0 24 24" fill="none">
    <path d="M20 21.75C21.5188 21.75 22.75 20.5188 22.75 19V15.25H19.75L19.75 5C19.75 3.48122 18.5188 2.25 17 2.25L4 2.25C2.48122 2.25 1.25 3.48122 1.25 5L1.25 9.75H5.25L5.25 19C5.25 20.5188 6.48122 21.75 8 21.75L20 21.75ZM2.75 5C2.75 4.30964 3.30964 3.75 4 3.75C4.69036 3.75 5.25 4.30964 5.25 5V8.25H2.75V5ZM9.25 6.25H15.75V7.75H9.25V6.25ZM9.25 10.25H13.75V11.75H9.25V10.25ZM10.4473 20.25C10.6394 19.8747 10.75 19.4506 10.75 19V16.75L21.25 16.75V19C21.25 19.6904 20.6904 20.25 20 20.25L10.4473 20.25Z" fill="currentColor" />
</svg>