<svg xmlns="http://www.w3.org/2000/svg" width="24" height="24" viewBox="0 0 24 24" fill="none">
    <path fill-rule="evenodd" clip-rule="evenodd" d="M5.25 18.999V9.74902H1.25L1.25 4.99902C1.25 3.56451 2.34837 2.38654 3.75 2.26023C3.83234 2.25282 3.91573 2.24902 4 2.24902L17 2.24902C18.5188 2.24902 19.75 3.48024 19.75 4.99902V15.249H22.75V18.999C22.75 20.5178 21.5188 21.749 20 21.749H8C6.48122 21.749 5.25 20.5178 5.25 18.999ZM4 3.74902C4.69036 3.74902 5.25 4.30867 5.25 4.99902V8.24902H2.75V4.99902C2.75 4.30867 3.30964 3.74902 4 3.74902ZM21.25 16.749H19.75H18.25H10.75V18.999C10.75 19.4496 10.6394 19.8737 10.4473 20.249H20C20.6904 20.249 21.25 19.6894 21.25 18.999V16.749ZM15.75 8.74902V7.24902H9.25V8.74902H15.75ZM13.75 11.249V12.749H9.25V11.249H13.75Z" fill="currentColor" />
</svg>