<svg xmlns="http://www.w3.org/2000/svg" width="24" height="24" viewBox="0 0 24 24" fill="none">
    <path d="M15.1641 7.75L7.75 15.1641L6.33594 13.75L13.75 6.33594L15.1641 7.75Z" fill="currentColor" />
    <path fill-rule="evenodd" clip-rule="evenodd" d="M10.75 1.75C5.77944 1.75 1.75 5.77944 1.75 10.75C1.75 15.7206 5.77944 19.75 10.75 19.75C12.875 19.75 14.828 19.0135 16.3676 17.7819L20.8358 22.25L22.25 20.8358L17.7819 16.3677C19.0135 14.8281 19.75 12.875 19.75 10.75C19.75 5.77944 15.7206 1.75 10.75 1.75ZM3.75 10.75C3.75 6.88401 6.88401 3.75 10.75 3.75C14.616 3.75 17.75 6.88401 17.75 10.75C17.75 14.616 14.616 17.75 10.75 17.75C6.88401 17.75 3.75 14.616 3.75 10.75Z" fill="currentColor" />
</svg>