<svg xmlns="http://www.w3.org/2000/svg" width="24" height="24" viewBox="0 0 24 24" fill="none">
    <path d="M9.75 5.74902H11.75V11.749H9.75V5.74902Z" fill="currentColor" />
    <path d="M10.75 13.499C11.3023 13.499 11.75 13.9467 11.75 14.499C11.75 15.0513 11.3023 15.499 10.75 15.499C10.2323 15.499 9.80621 15.1057 9.75488 14.6016L9.75 14.499L9.75488 14.3965C9.80621 13.8924 10.2323 13.499 10.75 13.499Z" fill="currentColor" />
    <path fill-rule="evenodd" clip-rule="evenodd" d="M10.75 1.74902C5.77944 1.74902 1.75 5.77846 1.75 10.749C1.75 15.7196 5.77944 19.749 10.75 19.749C12.875 19.749 14.828 19.0126 16.3676 17.781L20.8358 22.249L22.25 20.8348L17.7819 16.3668C19.0135 14.8271 19.75 12.8741 19.75 10.749C19.75 5.77846 15.7206 1.74902 10.75 1.74902ZM3.75 10.749C3.75 6.88303 6.88401 3.74902 10.75 3.74902C14.616 3.74902 17.75 6.88303 17.75 10.749C17.75 14.615 14.616 17.749 10.75 17.749C6.88401 17.749 3.75 14.615 3.75 10.749Z" fill="currentColor" />
</svg>