<svg xmlns="http://www.w3.org/2000/svg" width="24" height="24" viewBox="0 0 24 24" fill="none">
    <path d="M12 1.00033C15.7843 1.00033 19.2112 2.21388 21.4902 4.17611L21.75 4.39974V10.7318C21.75 15.0417 19.311 17.9809 16.96 19.806C15.7825 20.7201 14.609 21.3706 13.7314 21.7923C13.2918 22.0036 12.9235 22.1589 12.6631 22.262C12.5332 22.3135 12.0724 22.4741 12 22.5003C11.9276 22.4741 11.4668 22.3135 11.3369 22.262C11.0765 22.1589 10.7082 22.0036 10.2686 21.7923C9.39095 21.3706 8.21664 20.7201 7.03906 19.806C4.68818 17.9809 2.25 15.0415 2.25 10.7318V4.39974L2.50977 4.17611C4.7888 2.21388 8.21568 1.00033 12 1.00033ZM11.999 14.2503C11.4467 14.2503 10.999 14.698 10.999 15.2503C10.999 15.8026 11.4467 16.2503 11.999 16.2503H12.0088C12.5611 16.2503 13.0088 15.8026 13.0088 15.2503C13.0088 14.698 12.5611 14.2503 12.0088 14.2503H11.999ZM12.0029 10.2425C10.867 10.2402 9.76418 10.6252 8.87598 11.3333L8.09375 11.9564L9.34082 13.5199L10.1221 12.8968C10.655 12.4719 11.3174 12.2412 11.999 12.2425C12.6805 12.2439 13.3409 12.4777 13.8721 12.9046L14.6514 13.5306L15.9053 11.972L15.126 11.346C14.2406 10.6343 13.1389 10.2448 12.0029 10.2425ZM11.999 6.25033C9.95417 6.25033 7.97028 6.94691 6.37402 8.22494L5.59375 8.84994L6.84375 10.4105L7.62402 9.78548C8.86552 8.79158 10.4087 8.25033 11.999 8.25033C13.5894 8.25033 15.1325 8.79158 16.374 9.78548L17.1543 10.4105L18.4043 8.84994L17.624 8.22494C16.0278 6.94691 14.0439 6.25033 11.999 6.25033Z" fill="currentColor" />
</svg>