<svg xmlns="http://www.w3.org/2000/svg" width="24" height="24" viewBox="0 0 24 24" fill="none">
    <path fill-rule="evenodd" clip-rule="evenodd" d="M16.5624 11.25H22.75V2.75H1.25V11.25H8.32863L10.283 7.9594C10.1933 7.98582 10.0983 8 10 8C9.44771 8 9 7.55228 9 7C9 6.44772 9.44771 6 10 6C10.4801 6 10.8811 6.3383 10.9778 6.78951L11.793 5.41699L15.6621 7.71484L14.5137 9.64941L14.4541 9.75H17.4531L16.5624 11.25ZM6 6C6.55228 6 7 6.44772 7 7C7 7.55229 6.55228 8 6 8C5.44772 8 5 7.55228 5 7C5 6.44772 5.44771 6 6 6Z" fill="currentColor" />
    <path fill-rule="evenodd" clip-rule="evenodd" d="M7.43775 12.75H1.25V21.25H22.75V12.75H15.6717L12.208 18.583L10.7165 17.6976C10.5348 17.8841 10.281 18 10 18C9.44771 18 9 17.5523 9 17C9 16.8973 9.01549 16.7982 9.04426 16.7049L8.33887 16.2861L9.4873 14.3516L9.54785 14.25H6.54688L7.43775 12.75ZM6 16C6.55228 16 7 16.4477 7 17C7 17.5523 6.55228 18 6 18C5.44772 18 5 17.5523 5 17C5 16.4477 5.44771 16 6 16Z" fill="currentColor" />
    <path d="M13.9492 8.15039L12.2568 11H15.2568L11.7715 16.8701L10.0518 15.8496L11.7432 13H8.74316L12.2295 7.12988L13.9492 8.15039Z" fill="currentColor" />
</svg>