<svg xmlns="http://www.w3.org/2000/svg" width="24" height="24" viewBox="0 0 24 24" fill="none">
    <path d="M12 1.25C15.7843 1.25 19.2112 2.46356 21.4902 4.42578L21.75 4.64941V10.9814C21.75 15.2914 19.311 18.2305 16.96 20.0557C15.7825 20.9697 14.609 21.6203 13.7314 22.042C13.2918 22.2533 12.9235 22.4086 12.6631 22.5117C12.5332 22.5631 12.0724 22.7238 12 22.75C11.9276 22.7238 11.4668 22.5632 11.3369 22.5117C11.0765 22.4086 10.7082 22.2532 10.2686 22.042C9.39095 21.6202 8.21664 20.9698 7.03906 20.0557C4.68818 18.2305 2.25 15.2911 2.25 10.9814V4.64941L2.50977 4.42578C4.7888 2.46356 8.21568 1.25 12 1.25ZM12 15.25C11.4477 15.25 11 15.6977 11 16.25C11 16.8023 11.4477 17.25 12 17.25C12.5523 17.25 13 16.8023 13 16.25C13 15.6977 12.5523 15.25 12 15.25ZM12 5.5C10.067 5.5 8.5 7.067 8.5 9H10.5C10.5 8.17158 11.1716 7.5 12 7.5C12.8284 7.5 13.5 8.17158 13.5 9C13.5 9.51305 13.2432 9.96628 12.8467 10.2383C12.4769 10.4917 12.0355 10.8308 11.6807 11.2578C11.322 11.6896 11 12.2754 11 13V14H13V13C13 12.8962 13.0426 12.7483 13.2188 12.5361C13.3989 12.3193 13.6632 12.1035 13.9766 11.8887C14.8942 11.2598 15.5 10.2006 15.5 9C15.5 7.067 13.933 5.5 12 5.5Z" fill="currentColor" />
</svg>