<svg xmlns="http://www.w3.org/2000/svg" width="24" height="24" viewBox="0 0 24 24" fill="none">
    <path d="M17.873 19.2871C17.5705 19.562 17.265 19.8188 16.96 20.0557C15.7825 20.9697 14.609 21.6203 13.7314 22.042C13.2919 22.2532 12.9235 22.4086 12.6631 22.5117C12.5333 22.5631 12.0727 22.7236 12 22.75C11.9276 22.7238 11.4668 22.5632 11.3369 22.5117C11.0765 22.4086 10.7082 22.2533 10.2686 22.042C9.39094 21.6202 8.21668 20.9698 7.03906 20.0557C4.68816 18.2305 2.25 15.2912 2.25 10.9814V4.64941L2.50977 4.42578C2.59936 4.34864 2.69108 4.27304 2.78418 4.19824L17.873 19.2871Z" fill="currentColor" />
    <path d="M12 1.25C15.7843 1.25003 19.2112 2.46358 21.4902 4.42578L21.75 4.64941V10.9814C21.75 13.8494 20.6683 16.1092 19.2529 17.8389L4.48242 3.06836C6.57507 1.91972 9.18892 1.25 12 1.25Z" fill="currentColor" />
</svg>