<svg xmlns="http://www.w3.org/2000/svg" width="24" height="24" viewBox="0 0 24 24" fill="none">
    <path fill-rule="evenodd" clip-rule="evenodd" d="M11.7178 22.6416L11.7285 22.6455L12 22.75L12.2715 22.6455L12.2822 22.6416L12.2915 22.6377L12.3057 22.6319C12.3255 22.624 12.3538 22.6128 12.3896 22.598C12.4613 22.5684 12.564 22.5248 12.6934 22.4673C12.9522 22.3523 13.3182 22.1803 13.7559 21.9514C14.6295 21.4943 15.7985 20.8032 16.9707 19.8672C19.3006 18.0067 21.75 15.0901 21.75 11.0484V4.42805L21.0742 4.36126C18.6728 4.12315 16.4983 3.40684 14.917 2.74367C14.1285 2.41301 13.4929 2.09778 13.0566 1.86664C12.8386 1.75112 12.6705 1.65626 12.5586 1.59172C12.5028 1.55954 12.4607 1.53437 12.4336 1.51814L12.4116 1.50519L12.3975 1.49685L12 1.25L11.5957 1.50072L11.5664 1.51814C11.5393 1.53437 11.4972 1.55954 11.4414 1.59172C11.3295 1.65626 11.1614 1.75112 10.9434 1.86664C10.5071 2.09778 9.87147 2.41301 9.08301 2.74367C7.50171 3.40684 5.32724 4.12315 2.92578 4.36126L2.25 4.42805V11.0484C2.25 15.0901 4.6994 18.0067 7.0293 19.8672C8.20152 20.8032 9.37047 21.4943 10.2441 21.9514C10.6818 22.1803 11.0478 22.3523 11.3066 22.4673C11.436 22.5248 11.5387 22.5684 11.6104 22.598C11.6462 22.6128 11.6745 22.624 11.6943 22.6319C11.7042 22.6358 11.7121 22.6394 11.7178 22.6416ZM13 7.08336V13.031H11V7.08336H13ZM13 15.7569C13 15.2095 12.5523 14.7657 12 14.7657C11.4823 14.7657 11.0562 15.1556 11.0049 15.6553L11 15.7569L11.0049 15.8586C11.0562 16.3583 11.4823 16.7482 12 16.7482C12.5523 16.7482 13 16.3044 13 15.7569Z" fill="currentColor" />
</svg>