<svg xmlns="http://www.w3.org/2000/svg" width="24" height="24" viewBox="0 0 24 24" fill="none">
    <path fill-rule="evenodd" clip-rule="evenodd" d="M12.8643 11.0371C12.9501 11.1841 13 11.3547 13 11.54C13 11.7254 12.9501 11.896 12.8643 12.043C12.6893 12.3423 12.3673 12.54 12 12.54C11.6327 12.54 11.3107 12.3423 11.1357 12.043C11.0499 11.896 11 11.7254 11 11.54C11 11.3547 11.0499 11.1841 11.1357 11.0371C11.3107 10.7378 11.6327 10.54 12 10.54C12.3673 10.54 12.6893 10.7378 12.8643 11.0371Z" fill="currentColor" />
    <path d="M12.4116 1.41271L12.4336 1.42578C12.4607 1.44215 12.5028 1.46754 12.5586 1.5C12.6705 1.56511 12.8386 1.66081 13.0566 1.77734C13.4929 2.01053 14.1285 2.32853 14.917 2.66211C16.4983 3.33112 18.6728 4.05375 21.0742 4.29395L21.75 4.36133V11.04C21.75 15.1173 19.3006 18.0596 16.9707 19.9365C15.7985 20.8808 14.6295 21.578 13.7559 22.0391C13.3182 22.27 12.9522 22.4435 12.6934 22.5596C12.564 22.6176 12.4613 22.6615 12.3896 22.6914C12.3538 22.7064 12.3255 22.7176 12.3057 22.7256L12.2915 22.7315L12.2822 22.7354L12.2715 22.7393L12 22.8447L11.7285 22.7393L11.7178 22.7354C11.7121 22.7331 11.7042 22.7296 11.6943 22.7256C11.6745 22.7176 11.6462 22.7064 11.6104 22.6914C11.5387 22.6615 11.436 22.6176 11.3066 22.5596C11.0478 22.4435 10.6818 22.27 10.2441 22.0391C9.37047 21.578 8.20152 20.8808 7.0293 19.9365C4.6994 18.0596 2.25 15.1173 2.25 11.04V4.36133L2.92578 4.29395C5.32724 4.05375 7.50171 3.33112 9.08301 2.66211C9.87147 2.32853 10.5071 2.01053 10.9434 1.77734C11.1614 1.66081 11.3295 1.56511 11.4414 1.5C11.4972 1.46754 11.5393 1.44215 11.5664 1.42578L11.5957 1.4082L12 1.15527L12.3975 1.4043L12.4116 1.41271ZM14.9463 12.1006C14.9808 11.9187 15 11.7314 15 11.54C15 11.3484 14.9809 11.1607 14.9463 10.9785L15.5039 10.6543L16.3672 10.1504L15.3604 8.42285L13.9375 9.25098C13.663 9.01842 13.3465 8.83346 13 8.71094V7.04004H11V8.71094C10.6533 8.83354 10.3362 9.01819 10.0615 9.25098L8.63965 8.42285L7.63281 10.1504L9.05273 10.9785C9.01817 11.1607 9 11.3484 9 11.54C9 11.7313 9.01828 11.9187 9.05273 12.1006L7.63281 12.9297L8.63965 14.6572L9.50391 14.1543L10.0615 13.8281C10.3362 14.061 10.6532 14.2455 11 14.3682V16.04H13V14.3682C13.3465 14.2456 13.6629 14.0608 13.9375 13.8281L14.4961 14.1543L15.3604 14.6572L16.3672 12.9297L14.9463 12.1006Z" fill="currentColor" />
</svg>