<svg xmlns="http://www.w3.org/2000/svg" width="24" height="24" viewBox="0 0 24 24" fill="none">
    <path d="M18.75 14V22.7499H14V21.2499H17.25V14H18.75Z" fill="currentColor" />
    <path fill-rule="evenodd" clip-rule="evenodd" d="M18 1.25C15.3696 1.25 13.25 3.40181 13.25 6.04033C13.25 7.53401 14.0032 8.81658 14.857 9.86024C15.4727 10.6129 16.2096 11.3173 16.8344 11.9147C17.0653 12.1355 17.2811 12.3418 17.4697 12.5303L18 13.0607L18.5303 12.5303C18.7189 12.3418 18.9346 12.1355 19.1656 11.9147C19.7904 11.3174 20.5273 10.6129 21.143 9.86024C21.9968 8.81658 22.75 7.53401 22.75 6.04033C22.75 3.40181 20.6304 1.25 18 1.25ZM18.0078 7.75C18.97 7.75 19.75 6.9665 19.75 6C19.75 5.0335 18.97 4.25 18.0078 4.25H17.9922C17.03 4.25 16.25 5.0335 16.25 6C16.25 6.9665 17.03 7.75 17.9922 7.75H18.0078Z" fill="currentColor" />
    <path d="M12.75 11.25L1.25 11.25L1.25098 22.75L12.751 22.75L12.75 11.25ZM5.23828 14.25L8.73828 14.25V15.75H5.23828V14.25Z" fill="currentColor" />
</svg>