<svg xmlns="http://www.w3.org/2000/svg" width="24" height="24" viewBox="0 0 24 24" fill="none">
    <path d="M17.8502 22.75C20.0041 22.75 21.7506 21.0711 21.7506 19C21.7506 17.2266 20.4699 15.7421 18.7496 15.3516L18.7496 5.86523L16.442 1.25H5.55725L3.24963 5.86523L3.24963 15.25H2.24963V17.125H17.8502C18.9272 17.125 19.8004 17.9645 19.8004 19C19.8004 20.0355 18.9272 20.875 17.8502 20.875L2.24963 20.875L2.24963 22.75L17.8502 22.75ZM6.75354 3.1875H15.2438L16.2125 5.125H5.78479L6.75354 3.1875ZM8.99963 8.25L12.9996 8.25V9.75L8.99963 9.75V8.25ZM5.00842 20C5.56071 20 6.00842 19.5523 6.00842 19C6.00842 18.4477 5.56071 18 5.00842 18H4.99963C4.44735 18 3.99963 18.4477 3.99963 19C3.99963 19.5523 4.44735 20 4.99963 20H5.00842ZM11.0045 20C11.5566 19.9998 12.0045 19.5522 12.0045 19C12.0045 18.4478 11.5566 18.0002 11.0045 18H10.9948C10.4426 18.0002 9.99475 18.4478 9.99475 19C9.99475 19.5522 10.4426 19.9998 10.9948 20H11.0045ZM16.9996 20C17.5519 20 17.9996 19.5523 17.9996 19C17.9996 18.4477 17.5519 18 16.9996 18H16.9908C16.4386 18 15.9908 18.4477 15.9908 19C15.9908 19.5523 16.4386 20 16.9908 20H16.9996Z" fill="currentColor" />
</svg>