<svg xmlns="http://www.w3.org/2000/svg" width="24" height="24" viewBox="0 0 24 24" fill="none">
    <path d="M10 4H8V6.58594L3.5 2.08594L2.08594 3.5L6.58594 8H4L4 10L10 10L10 4ZM20 8L17.4141 8L21.9141 3.5L20.5 2.08594L16 6.58594L16 4H14L14 10L20 10V8ZM12 13.75C12.9665 13.75 13.75 12.9665 13.75 12C13.75 11.0335 12.9665 10.25 12 10.25C11.0335 10.25 10.25 11.0335 10.25 12C10.25 12.9665 11.0335 13.75 12 13.75ZM8 17.4141L8 20H10V14H4L4 16H6.58594L2.08594 20.5L3.5 21.9141L8 17.4141ZM21.9141 20.5L17.4141 16H20V14L14 14L14 20H16V17.4141L20.5 21.9141L21.9141 20.5Z" fill="currentColor" />
</svg>