<svg xmlns="http://www.w3.org/2000/svg" width="24" height="24" viewBox="0 0 24 24" fill="none">
    <path fill-rule="evenodd" clip-rule="evenodd" d="M11 22.375V19.125H13V22.375H11Z" fill="currentColor" />
    <path d="M13 17.625V19.125H15.1113C18.2254 19.1249 20.7499 16.6004 20.75 13.4863C20.75 11.4304 19.6482 9.6353 18.0068 8.65039C18.0547 8.34284 18.083 8.02825 18.083 7.70801C18.0828 4.34843 15.3596 1.625 12 1.625C8.64038 1.625 5.91717 4.34843 5.91699 7.70801C5.91699 8.0282 5.94431 8.34289 5.99219 8.65039C4.35125 9.6354 3.25 11.4307 3.25 13.4863C3.25012 16.6004 5.77457 19.1249 8.88867 19.125H11V17.625V13.2891L8.08594 10.375L9.5 8.96094L11 10.4609V6.875H13V13.4609L14.5 11.9609L15.9141 13.375L13 16.2891V17.625Z" fill="currentColor" />
</svg>