<svg xmlns="http://www.w3.org/2000/svg" width="24" height="24" viewBox="0 0 24 24" fill="none">
    <path d="M7 18.75V17.25H9V18.75C9 20.4069 7.65685 21.75 6 21.75H5V19.75H6C6.55228 19.75 7 19.3023 7 18.75ZM11 17.25H13V21.75H11V17.25ZM15 18.75V17.25H17V18.75C17 19.3023 17.4477 19.75 18 19.75H19V21.75H18C16.3431 21.75 15 20.4069 15 18.75Z" fill="currentColor" />
    <path d="M22.75 15.75H1.25V2.25H22.75V15.75ZM6 13H18V11H6V13ZM18 6C17.4477 6 17 6.44772 17 7C17 7.55228 17.4477 8 18 8C18.5523 8 19 7.55229 19 7C19 6.48232 18.6067 6.05621 18.1025 6.00488L18 6Z" fill="currentColor" />
</svg>