<svg xmlns="http://www.w3.org/2000/svg" width="24" height="24" viewBox="0 0 24 24" fill="none">
    <path d="M9.75 18.75V5.25H1.25V18.75H9.75Z" fill="currentColor" />
    <path d="M20.75 12C20.75 9.13857 19.9723 6.79818 18.9902 5.65039L18.3398 4.89062L19.8594 3.58984L20.5098 4.34961C21.9189 5.9964 22.75 8.87927 22.75 12C22.75 15.1207 21.9189 18.0036 20.5098 19.6504L19.8594 20.4102L18.3398 19.1094L18.9902 18.3496C19.9723 17.2018 20.75 14.8614 20.75 12ZM16.75 12C16.75 10.0034 16.178 8.41609 15.5059 7.66797L14.8379 6.9248L16.3252 5.58789L16.9941 6.33203C18.1152 7.58005 18.75 9.72373 18.75 12C18.75 14.2763 18.1152 16.42 16.9941 17.668L16.3252 18.4121L14.8379 17.0752L15.5059 16.332C16.178 15.5839 16.75 13.9966 16.75 12ZM12.75 12C12.75 10.8833 12.3923 10.057 12.042 9.70605L11.3359 8.99902L12.751 7.58594L13.458 8.29395C14.303 9.14071 14.75 10.5531 14.75 12C14.75 13.4469 14.303 14.8593 13.458 15.7061L12.751 16.4141L11.3359 15.001L12.042 14.2939C12.3923 13.943 12.75 13.1167 12.75 12Z" fill="currentColor" />
</svg>