<svg xmlns="http://www.w3.org/2000/svg" width="24" height="24" viewBox="0 0 24 24" fill="none">
    <path d="M18.7451 5.24512H16.25V3.24512H18.7451V0.75H20.7451V3.24512H23.25V5.24512H20.7451V7.75H18.7451V5.24512Z" fill="currentColor" />
    <path fill-rule="evenodd" clip-rule="evenodd" d="M11.5 23.25C17.4371 23.25 22.25 18.4371 22.25 12.5C22.25 11.2743 22.0419 10.0975 21.6641 9H17.4951V6.49512H15V2.33691C13.9025 1.95902 12.7259 1.75 11.5 1.75C5.56294 1.75 0.75 6.56294 0.75 12.5C0.75 18.4371 5.56294 23.25 11.5 23.25ZM7.875 10.75C7.33479 10.75 7.04739 10.3318 6.93945 10.1162C6.8093 9.8559 6.75 9.54829 6.75 9.25C6.75 8.95171 6.8093 8.6441 6.93945 8.38379C7.04739 8.16817 7.33479 7.75 7.875 7.75C8.41521 7.75 8.70261 8.16818 8.81055 8.38379C8.9407 8.6441 9 8.9517 9 9.25C9 9.54829 8.9407 9.8559 8.81055 10.1162C8.70261 10.3318 8.41522 10.75 7.875 10.75ZM15.125 10.75C14.5848 10.75 14.2974 10.3318 14.1895 10.1162C14.0593 9.8559 14 9.54829 14 9.25C14 8.95171 14.0593 8.6441 14.1895 8.38379C14.2974 8.16817 14.5848 7.75 15.125 7.75C15.6652 7.75 15.9526 8.16818 16.0605 8.38379C16.1907 8.6441 16.25 8.9517 16.25 9.25C16.25 9.54829 16.1907 9.8559 16.0605 10.1162C15.9526 10.3318 15.6652 10.75 15.125 10.75ZM11.5 18.5C9.6387 18.5 7.9187 17.8322 6.79297 16.708L6.08594 16.001L7.49902 14.5859L8.20703 15.292C8.90554 15.9895 10.09 16.5 11.5 16.5C12.91 16.5 14.0945 15.9895 14.793 15.292L15.501 14.5859L16.9141 16.001L16.207 16.708C15.0813 17.8322 13.3613 18.5 11.5 18.5Z" fill="currentColor" />
</svg>