<svg xmlns="http://www.w3.org/2000/svg" width="24" height="24" viewBox="0 0 24 24" fill="none">
    <path d="M11.9991 6.33789L8.33704 3.08301L9.66614 1.58789L11.9991 3.66211L14.3322 1.58789L15.6613 3.08301L11.9991 6.33789ZM14.3322 22.4121L11.9991 20.3369L9.66614 22.4121L8.33704 20.917L11.9991 17.6621L15.6613 20.917L14.3322 22.4121Z" fill="currentColor" />
    <path d="M7.09688 9.16928L2.44702 10.7133L1.81676 8.81473L4.77959 7.83139L4.14977 4.77384L6.10913 4.37036L7.09688 9.16928ZM22.1841 15.1859L19.2204 16.1688L19.8511 19.2268L17.8917 19.6303L16.9039 14.8314L21.5538 13.2874L22.1841 15.1859Z" fill="currentColor" />
    <path d="M16.9053 9.16928L21.5552 10.7133L22.1855 8.81473L19.2226 7.83139L19.8524 4.77384L17.8931 4.37036L16.9053 9.16928ZM1.81815 15.1859L4.78182 16.1688L4.15115 19.2268L6.11051 19.6303L7.09827 14.8314L2.4484 13.2874L1.81815 15.1859Z" fill="currentColor" />
    <path d="M10.9991 14.9795H12.9991V20H10.9991V14.9795ZM9.9386 14.3594L5.63977 16.8672L4.63196 15.1396L8.93079 12.6318L9.9386 14.3594ZM19.3663 15.1396L18.3585 16.8672L14.0958 14.3809L15.1036 12.6533L19.3663 15.1396ZM6.50305 7.63574L9.9386 9.64062L8.93079 11.3682L4.63196 8.86035L5.63879 7.13281L6.50305 7.63574ZM19.3663 8.86035L15.1036 11.3467L14.0958 9.61914L17.4952 7.63574L18.3595 7.13281L19.3663 8.86035ZM10.9991 4H12.9991V9.02051H10.9991V4Z" fill="currentColor" />
    <path d="M16.5011 9.42188V14L16.5021 14.5771L12.0372 17.1543L7.57336 14.5771V9.42285L12.0372 6.8457L16.5011 9.42188ZM9.57336 10.5771V13.4219L12.0372 14.8447L14.5011 13.4219V10.5762L12.0372 9.1543L9.57336 10.5771Z" fill="currentColor" />
</svg>