<svg xmlns="http://www.w3.org/2000/svg" width="24" height="24" viewBox="0 0 24 24" fill="none">
    <path d="M20.748 18.5C20.748 20.8472 18.8453 22.75 16.498 22.75C14.1508 22.75 12.248 20.8472 12.248 18.5C12.248 17.7084 12.5218 16.929 12.8789 16.2402C13.2394 15.5451 13.7116 14.8914 14.1689 14.3359C14.6283 13.7782 15.0861 13.3042 15.4277 12.9707C15.5988 12.8037 15.7423 12.6703 15.8438 12.5781C15.8943 12.5322 15.9347 12.4966 15.9629 12.4717L15.9961 12.4424C15.9943 12.4438 15.9984 12.4404 15.9961 12.4424L16.0059 12.4346L16.498 12.0117L16.9863 12.4307L17 12.4424L17.0332 12.4717C17.0614 12.4966 17.1018 12.5322 17.1523 12.5781C17.2538 12.6703 17.3973 12.8037 17.5684 12.9707C17.91 13.3042 18.3678 13.7782 18.8271 14.3359C19.2845 14.8914 19.7567 15.5451 20.1172 16.2402C20.4743 16.929 20.748 17.7084 20.748 18.5Z" fill="currentColor" />
    <path fill-rule="evenodd" clip-rule="evenodd" d="M14.6573 11.9768C14.6573 11.9768 14.59 12.0417 14.5547 12.0762C14.2014 12.421 13.7287 12.9093 13.248 13.4879V13C13.248 10.6528 11.3453 8.75 8.99805 8.75C6.65084 8.75 4.74805 10.6528 4.74805 13V14.25H12.6541C12.3393 14.683 12.0315 15.16 11.7695 15.665C11.3638 16.4475 10.998 17.431 10.998 18.5C10.998 20.212 11.7802 21.7413 13.0067 22.75H3.99805C3.58383 22.75 3.24805 22.4142 3.24805 22V13C3.24805 10.8205 4.46067 8.9242 6.24805 7.94901V4.25H11.748V7.94901C13.249 8.76795 14.3447 10.2365 14.6573 11.9768Z" fill="currentColor" />
    <path fill-rule="evenodd" clip-rule="evenodd" d="M8.24805 2.75H5.99805V1.25H13.498C13.697 1.25 13.8877 1.32902 14.0284 1.46967L15.5284 2.96967L14.4677 4.03033L13.1874 2.75H9.74805V5H8.24805V2.75Z" fill="currentColor" />
</svg>