<svg xmlns="http://www.w3.org/2000/svg" width="24" height="24" viewBox="0 0 24 24" fill="none">
    <path d="M16.875 20.375H21.75V0.875H2.25V20.375H7.125V18.4248H4.2002V6.625H19.7998V18.4248H16.875V20.375Z" fill="currentColor" />
    <path d="M12 17.375C14.0711 17.375 15.75 15.6961 15.75 13.625C15.75 11.5539 14.0711 9.875 12 9.875C9.92893 9.875 8.25 11.5539 8.25 13.625C8.25 15.6961 9.92893 17.375 12 17.375Z" fill="currentColor" />
    <path d="M14.75 23.125L12 21.0615L9.25 23.125V17.8008C10.039 18.3214 10.984 18.625 12 18.625C13.016 18.625 13.961 18.3214 14.75 17.8008V23.125Z" fill="currentColor" />
</svg>