<svg xmlns="http://www.w3.org/2000/svg" width="24" height="24" viewBox="0 0 24 24" fill="none">
    <path d="M18.0039 6.75391C19.5227 6.75391 20.7539 5.52269 20.7539 4.00391C20.7539 2.48512 19.5227 1.25391 18.0039 1.25391C16.4851 1.25391 15.2539 2.48512 15.2539 4.00391C15.2539 5.52269 16.4851 6.75391 18.0039 6.75391Z" fill="currentColor" />
    <path d="M4.00391 20.7539C5.52269 20.7539 6.75391 19.5227 6.75391 18.0039C6.75391 16.4851 5.52269 15.2539 4.00391 15.2539C2.48512 15.2539 1.25391 16.4851 1.25391 18.0039C1.25391 19.5227 2.48512 20.7539 4.00391 20.7539Z" fill="currentColor" />
    <path d="M3.00391 16.0039C3.00391 8.8242 8.8242 3.00391 16.0039 3.00391H17.0039V5.00391H16.0039C9.92877 5.00391 5.00391 9.92877 5.00391 16.0039V17.0039H3.00391V16.0039Z" fill="currentColor" />
    <path d="M22.0645 19.0039L19.1807 16.1201L22.7461 13.7432L9.88574 9.88574L13.7432 22.7461L16.1201 19.1807L19.0039 22.0645L22.0645 19.0039Z" fill="currentColor" />
</svg>