<svg xmlns="http://www.w3.org/2000/svg" width="24" height="24" viewBox="0 0 24 24" fill="none">
    <path d="M12.002 15.6748C15.6011 15.6748 18.7968 17.4047 20.8018 20.0742L21.4023 20.874L19.8027 22.0752L19.2021 21.2754C17.5586 19.0872 14.9454 17.6748 12.002 17.6748C9.0585 17.6748 6.44527 19.0872 4.80176 21.2754L4.20117 22.0752L2.60156 20.874L3.20215 20.0742C5.20713 17.4047 8.40277 15.6748 12.002 15.6748Z" fill="currentColor" />
    <path fill-rule="evenodd" clip-rule="evenodd" d="M13.7906 8.47314C12.002 10.3338 11.0001 12.8165 11 15.4025V17.675H13V15.4025C13.0001 13.3466 13.7915 11.3722 15.2058 9.88672C14.9202 9.71962 14.6511 9.51364 14.4062 9.26875C14.1625 9.02498 13.9572 8.75725 13.7906 8.47314Z" fill="currentColor" />
    <path fill-rule="evenodd" clip-rule="evenodd" d="M8.79297 9.88672C10.2072 11.3722 10.9986 13.3466 10.9987 15.4025V17.675H12.9987V15.4025C12.9986 12.8165 11.9968 10.3338 10.2082 8.47314C10.0415 8.75725 9.83624 9.02497 9.59247 9.26875C9.34758 9.51363 9.07852 9.71962 8.79297 9.88672Z" fill="currentColor" />
    <path fill-rule="evenodd" clip-rule="evenodd" d="M21.0004 1.95565C21.0077 1.95613 21.014 1.95654 21.0191 1.95697C21.0219 1.9572 21.0263 1.95773 21.0302 1.95818L21.0191 1.95697L21.0004 1.95565ZM21.7187 2.67389C21.7182 2.66659 21.7178 2.66029 21.7174 2.65521L21.7187 2.67389Z" fill="currentColor" />
    <path fill-rule="evenodd" clip-rule="evenodd" d="M18.5767 2.00677C19.2517 1.93178 19.8617 1.91951 20.3023 1.92572C20.5231 1.92883 20.7033 1.93712 20.8297 1.94427C20.8925 1.94783 20.9421 1.95143 20.9771 1.95404L21.0004 1.95565L21.0191 1.95697L21.0302 1.95818L21.6588 2.01556L21.7164 2.64349L21.7174 2.65521L21.7187 2.67389L21.7203 2.6972C21.7229 2.73218 21.7265 2.78184 21.73 2.84466C21.7372 2.97102 21.7455 3.15126 21.7486 3.372C21.7548 3.81257 21.7425 4.42266 21.6675 5.09759C21.5222 6.4053 21.1232 8.1361 19.9908 9.26849C18.6935 10.5655 16.718 10.7716 15.2053 9.88647C15.2504 9.83915 15.296 9.79234 15.3424 9.74603L17.9136 7.17474L16.4996 5.76068L13.9283 8.33197C13.8817 8.37853 13.8357 8.42551 13.7901 8.47288C12.9023 6.95975 13.1077 4.98197 14.4058 3.68353C15.5382 2.55114 17.269 2.15207 18.5767 2.00677Z" fill="currentColor" />
    <path fill-rule="evenodd" clip-rule="evenodd" d="M2.99958 1.95565C2.99228 1.95613 2.98598 1.95654 2.98089 1.95697C2.9781 1.9572 2.97366 1.95773 2.96983 1.95818L2.98089 1.95697L2.99958 1.95565ZM2.28133 2.67389C2.28181 2.66659 2.28223 2.66029 2.28265 2.65521L2.28133 2.67389Z" fill="currentColor" />
    <path fill-rule="evenodd" clip-rule="evenodd" d="M5.42327 2.00677C4.74834 1.93178 4.13825 1.91951 3.69769 1.92572C3.47695 1.92883 3.2967 1.93712 3.17034 1.94427C3.10752 1.94783 3.05786 1.95143 3.02288 1.95404L2.99958 1.95565L2.98089 1.95697L2.96983 1.95818L2.34124 2.01556L2.28363 2.64349L2.28265 2.65521L2.28133 2.67389L2.27972 2.6972C2.27711 2.73218 2.27351 2.78184 2.26995 2.84466C2.2628 2.97102 2.25451 3.15126 2.2514 3.372C2.24519 3.81257 2.25746 4.42266 2.33245 5.09759C2.47776 6.4053 2.87682 8.1361 4.00921 9.26849C5.30654 10.5655 7.28204 10.7716 8.79468 9.88647C8.74963 9.83915 8.70395 9.79234 8.65765 9.74603L6.08636 7.17474L7.50042 5.76068L10.0717 8.33197C10.1183 8.37853 10.1643 8.42551 10.2099 8.47289C11.0977 6.95975 10.8923 4.98197 9.59417 3.68353C8.46179 2.55114 6.73098 2.15207 5.42327 2.00677Z" fill="currentColor" />
</svg>