<svg xmlns="http://www.w3.org/2000/svg" width="24" height="24" viewBox="0 0 24 24" fill="none">
    <path d="M22.7501 21.3354L21.336 22.7495L1.2501 2.66357L2.66416 1.24951L22.7501 21.3354Z" fill="currentColor" />
    <path d="M7.50007 7.49951V18.4995H9.50007V13.4995H12.5001C12.8087 13.4995 13.1089 13.4632 13.3975 13.397L21.2501 22.2495H1.75007V2.74951L7.50007 7.49951Z" fill="currentColor" />
    <path d="M22.2501 18.7144L15.5831 12.0474C16.1556 11.3554 16.5001 10.4678 16.5001 9.49951C16.5001 7.29037 14.7092 5.49951 12.5001 5.49951H9.03522L5.28522 1.74951H22.2501V18.7144Z" fill="currentColor" />
    <path d="M11.5001 11.4995H9.50007V9.49951L11.5001 11.4995Z" fill="currentColor" />
    <path d="M12.5001 7.49951C13.6046 7.49951 14.5001 8.39494 14.5001 9.49951C14.5001 9.91492 14.3721 10.2999 14.1553 10.6196L11.0352 7.49951H12.5001Z" fill="currentColor" />
</svg>