<svg xmlns="http://www.w3.org/2000/svg" width="24" height="24" viewBox="0 0 24 24" fill="none">
    <path d="M1.75 18.3443H3.70229L3.70324 20.2976H5.65553V22.25H1.75095L1.75 18.3443ZM11.0243 20.2976V22.25H7.60782V20.2976H11.0243ZM16.3931 20.2976V22.25H12.9766V20.2976H16.3931ZM20.2977 18.3443H22.25V22.25H18.3445V20.2976H20.2977V18.3443ZM1.75095 12.9762H3.70324V16.3929H1.75095V12.9762ZM20.2977 12.9762H22.25V16.3929H20.2977V12.9762ZM1.75095 7.60714H3.70324V11.0238H1.75095V7.60714ZM20.2977 7.60714H22.25V11.0238H20.2977V7.60714ZM1.75095 1.75H5.65553V3.70238H3.70324V5.65381H1.75095V1.75ZM20.2977 3.70238H18.3445V1.75H22.25V5.65381H20.2977V3.70238ZM11.0243 1.75V3.70238H7.60782V1.75H11.0243ZM16.3931 1.75V3.70238H12.9766V1.75H16.3931Z" fill="currentColor" />
    <path d="M11 7H13V13H11V7Z" fill="currentColor" />
    <path d="M7 7H9V15H7V7Z" fill="currentColor" />
    <path d="M15 7H17V17H15V7Z" fill="currentColor" />
</svg>