<svg xmlns="http://www.w3.org/2000/svg" width="24" height="24" viewBox="0 0 24 24" fill="none">
    <path fill-rule="evenodd" clip-rule="evenodd" d="M21 2.25C21.4141 2.25001 21.7498 2.58601 21.75 3V21C21.75 21.4142 21.4142 21.75 21 21.75H3C2.58579 21.75 2.25 21.4142 2.25 21V3C2.25 2.80109 2.32907 2.61038 2.46973 2.46973C2.61038 2.32908 2.80109 2.25 3 2.25H21ZM10.8252 9.41113C10.936 9.12848 11 8.82196 11 8.5C11 7.11929 9.88071 6 8.5 6C7.11929 6 6 7.11929 6 8.5C6 9.88071 7.11929 11 8.5 11C8.82196 11 9.12848 10.936 9.41113 10.8252L10.5859 12L9.41113 13.1738C9.12857 13.0631 8.82183 13 8.5 13C7.11929 13 6 14.1193 6 15.5C6 16.8807 7.11929 18 8.5 18C9.88071 18 11 16.8807 11 15.5C11 15.1777 10.9362 14.8708 10.8252 14.5879L18.4141 7L17 5.58594L12 10.5859L10.8252 9.41113ZM9 15.5C9 15.2239 8.77614 15 8.5 15C8.22386 15 8 15.2239 8 15.5C8 15.7761 8.22386 16 8.5 16C8.77614 16 9 15.7761 9 15.5ZM9 8.5C9 8.22386 8.77614 8 8.5 8C8.22386 8 8 8.22386 8 8.5C8 8.77614 8.22386 9 8.5 9C8.77614 9 9 8.77614 9 8.5ZM17 18.4141L18.4141 17L14.5 13.0859L13.0859 14.5L17 18.4141Z" fill="currentColor" />
</svg>