<svg xmlns="http://www.w3.org/2000/svg" width="24" height="24" viewBox="0 0 24 24" fill="none">
    <path d="M13.9863 20.459C14.5378 20.4334 15.0054 20.8596 15.0312 21.4111C15.057 21.9628 14.6308 22.4312 14.0791 22.457C13.4337 22.4872 12.7414 22.5 12 22.5C11.2586 22.5 10.5663 22.4872 9.9209 22.457C9.36922 22.4312 8.94296 21.9628 8.96875 21.4111C8.99464 20.8596 9.46219 20.4334 10.0137 20.459C10.6202 20.4873 11.2806 20.5 12 20.5C12.7194 20.5 13.3798 20.4873 13.9863 20.459ZM2.84668 17.0928C3.36403 16.8995 3.94047 17.1623 4.13379 17.6797C4.55151 18.7973 5.20267 19.4485 6.32031 19.8662C6.83766 20.0595 7.10054 20.636 6.90723 21.1533C6.71388 21.6703 6.13821 21.9331 5.62109 21.7402C3.96049 21.1197 2.88028 20.0395 2.25977 18.3789C2.06688 17.8618 2.3297 17.2861 2.84668 17.0928ZM19.8662 17.6797C20.0595 17.1623 20.636 16.8995 21.1533 17.0928C21.6703 17.2861 21.9331 17.8618 21.7402 18.3789C21.1197 20.0395 20.0395 21.1197 18.3789 21.7402C17.8618 21.9331 17.2861 21.6703 17.0928 21.1533C16.8995 20.636 17.1623 20.0595 17.6797 19.8662C18.7973 19.4485 19.4485 18.7973 19.8662 17.6797ZM1.5 12C1.5 11.2586 1.51281 10.5663 1.54297 9.9209C1.56875 9.36922 2.03718 8.94296 2.58887 8.96875C3.14035 8.99464 3.56663 9.46219 3.54102 10.0137C3.51267 10.6202 3.5 11.2806 3.5 12C3.5 12.7194 3.51267 13.3798 3.54102 13.9863C3.56663 14.5378 3.14035 15.0054 2.58887 15.0312C2.03718 15.057 1.56875 14.6308 1.54297 14.0791C1.51281 13.4337 1.5 12.7414 1.5 12ZM20.5 12C20.5 11.2806 20.4873 10.6202 20.459 10.0137C20.4334 9.46219 20.8596 8.99464 21.4111 8.96875C21.9628 8.94296 22.4312 9.36922 22.457 9.9209C22.4872 10.5663 22.5 11.2586 22.5 12C22.5 12.7414 22.4872 13.4337 22.457 14.0791C22.4312 14.6308 21.9628 15.057 21.4111 15.0312C20.8596 15.0054 20.4334 14.5378 20.459 13.9863C20.4873 13.3798 20.5 12.7194 20.5 12ZM5.62109 2.25977C6.13821 2.06688 6.71388 2.3297 6.90723 2.84668C7.10054 3.36403 6.83766 3.94047 6.32031 4.13379C5.20267 4.55151 4.55151 5.20267 4.13379 6.32031C3.94047 6.83766 3.36403 7.10054 2.84668 6.90723C2.3297 6.71388 2.06688 6.13821 2.25977 5.62109C2.88028 3.96049 3.96049 2.88028 5.62109 2.25977ZM17.0928 2.84668C17.2861 2.3297 17.8618 2.06688 18.3789 2.25977C20.0395 2.88028 21.1197 3.96049 21.7402 5.62109C21.9331 6.13821 21.6703 6.71388 21.1533 6.90723C20.636 7.10054 20.0595 6.83766 19.8662 6.32031C19.4485 5.20267 18.7973 4.55151 17.6797 4.13379C17.1623 3.94047 16.8995 3.36403 17.0928 2.84668ZM12 1.5C12.7414 1.5 13.4337 1.51281 14.0791 1.54297C14.6308 1.56875 15.057 2.03718 15.0312 2.58887C15.0054 3.14035 14.5378 3.56663 13.9863 3.54102C13.3798 3.51267 12.7194 3.5 12 3.5C11.2806 3.5 10.6202 3.51267 10.0137 3.54102C9.46219 3.56663 8.99464 3.14035 8.96875 2.58887C8.94296 2.03718 9.36922 1.56875 9.9209 1.54297C10.5663 1.51281 11.2586 1.5 12 1.5Z" fill="currentColor" />
</svg>