<svg xmlns="http://www.w3.org/2000/svg" width="24" height="24" viewBox="0 0 24 24" fill="none">
    <path fill-rule="evenodd" clip-rule="evenodd" d="M8.12524 17.2496V13.7499H10.1252V17.2496C10.1252 19.1828 11.6924 20.75 13.6256 20.75C15.5588 20.75 17.1259 19.1828 17.1259 17.2496V15.7499H19.1259V17.2496C19.1259 20.2874 16.6633 22.75 13.6256 22.75C10.5878 22.75 8.12524 20.2874 8.12524 17.2496Z" fill="currentColor" />
    <path d="M5.51548 12.2453L3.72013 7.75692L2.125 6.81986V4.33188C2.125 2.66883 3.43041 1.25206 5.12366 1.25206H6.5V3.25206H5.12366C4.60925 3.25206 4.125 3.69763 4.125 4.33188V5.67769L9.125 8.59436L14.125 5.67769V4.3321C14.125 3.69773 13.6407 3.25206 13.1261 3.25206L11.5 3.25V1.25L13.1261 1.25206C14.8195 1.25206 16.125 2.66893 16.125 4.3321V6.81986L14.5326 7.75533L12.7352 12.2489L9.09143 14.6537L5.51548 12.2453Z" fill="currentColor" />
    <path fill-rule="evenodd" clip-rule="evenodd" d="M18.125 9.00012C16.0539 9.00012 14.375 10.6791 14.375 12.7501C14.375 14.8212 16.0539 16.5001 18.125 16.5001C20.1961 16.5001 21.875 14.8212 21.875 12.7501C21.875 10.6791 20.1961 9.00012 18.125 9.00012ZM18.1183 11.2501C17.2936 11.2501 16.625 11.9217 16.625 12.7501C16.625 13.5785 17.2936 14.2501 18.1183 14.2501H18.1317C18.9564 14.2501 19.625 13.5785 19.625 12.7501C19.625 11.9217 18.9564 11.2501 18.1317 11.2501H18.1183Z" fill="currentColor" />
</svg>