<svg xmlns="http://www.w3.org/2000/svg" width="24" height="24" viewBox="0 0 24 24" fill="none">
    <path d="M2.25 21.7525V9.54004H4.2V19.8025H12V21.7525H2.25Z" fill="currentColor" />
    <path fill-rule="evenodd" clip-rule="evenodd" d="M17.5 12.4385C15.1663 12.4385 13.25 14.2985 13.25 16.6228C13.25 17.9283 13.8759 18.9878 14.6138 19.864C15.0981 20.439 15.6978 21.0054 16.2471 21.5242C16.5047 21.7675 16.7513 22.0004 16.9697 22.2188L17.5 22.7491L18.0303 22.2188C18.2547 21.9944 18.5113 21.7538 18.7798 21.502C19.3211 20.9944 19.911 20.4411 20.3845 19.8827C21.1261 19.0082 21.75 17.9488 21.75 16.6228C21.75 14.2985 19.8337 12.4385 17.5 12.4385ZM17.4933 18.1885C16.6686 18.1885 16 17.5169 16 16.6885C16 15.86 16.6686 15.1885 17.4933 15.1885H17.5067C18.3314 15.1885 19 15.86 19 16.6885C19 17.5169 18.3314 18.1885 17.5067 18.1885H17.4933Z" fill="currentColor" />
    <path d="M22.75 7.8018V8.00098C22.75 10.072 21.0711 11.751 19 11.751C17.7352 11.751 16.6167 11.1248 15.9374 10.1656C15.6962 10.4422 15.4139 10.6802 15.1085 10.8793C14.1989 11.4722 13.0504 11.751 12 11.751C10.9496 11.751 9.80112 11.4722 8.89149 10.8793C8.58614 10.6802 8.30385 10.4422 8.06256 10.1656C7.38334 11.1248 6.26479 11.751 5 11.751C2.92893 11.751 1.25 10.072 1.25 8.00098V7.8018L3.25 4.3018V1.25098H20.75V4.3018L22.75 7.8018Z" fill="currentColor" />
    <path fill-rule="evenodd" clip-rule="evenodd" d="M11 18.001H6V16.001H11V18.001Z" fill="currentColor" />
</svg>