<svg xmlns="http://www.w3.org/2000/svg" width="24" height="24" viewBox="0 0 24 24" fill="none">
    <path d="M18 12C18 15.3137 15.3137 18 12 18C8.68629 18 6 15.3137 6 12C6 8.68629 8.68629 6 12 6C15.3137 6 18 8.68629 18 12Z" fill="currentColor" />
    <path d="M11.999 19.5C12.6894 19.5 13.249 20.0596 13.249 20.75C13.249 21.4404 12.6894 22 11.999 22C11.3088 21.9999 10.749 21.4403 10.749 20.75C10.749 20.0597 11.3088 19.5001 11.999 19.5ZM17.3984 17.2178C17.8566 16.8441 18.5174 16.8441 18.9756 17.2178L19.0713 17.3037L19.1562 17.3984C19.5568 17.8894 19.5289 18.6136 19.0713 19.0713C18.5831 19.5594 17.7909 19.5594 17.3027 19.0713C16.8148 18.5833 16.815 17.7919 17.3027 17.3037L17.3984 17.2178ZM5.02344 17.2168C5.48154 16.8433 6.14244 16.8434 6.60059 17.2168L6.69629 17.3027L6.78223 17.3975C7.18254 17.8883 7.15368 18.6127 6.69629 19.0703C6.20818 19.5584 5.41687 19.5583 4.92871 19.0703C4.44056 18.5822 4.44056 17.7909 4.92871 17.3027L5.02344 17.2168ZM22 12C22 12.6904 21.4404 13.25 20.75 13.25C20.0596 13.25 19.5 12.6904 19.5 12C19.5 11.3096 20.0596 10.75 20.75 10.75C21.4404 10.75 22 11.3096 22 12ZM4.92871 4.92871C5.41679 4.44071 6.20814 4.44082 6.69629 4.92871C7.18442 5.41684 7.18438 6.20813 6.69629 6.69629C6.20813 7.18444 5.41687 7.18444 4.92871 6.69629C4.4408 6.20811 4.44064 5.41678 4.92871 4.92871ZM17.3027 4.92871C17.7908 4.44062 18.5821 4.44075 19.0703 4.92871C19.5585 5.41687 19.5585 6.20813 19.0703 6.69629C18.5821 7.18434 17.7909 7.18441 17.3027 6.69629C16.8148 6.20815 16.8147 5.41681 17.3027 4.92871ZM12.1279 2.00684C12.758 2.07107 13.25 2.60295 13.25 3.25C13.25 3.94025 12.6902 4.49983 12 4.5C11.3528 4.5 10.8199 4.0082 10.7559 3.37793L10.75 3.25L10.7559 3.12207C10.8199 2.4918 11.3528 2 12 2L12.1279 2.00684ZM4.5 12C4.5 12.6904 3.94035 13.25 3.25 13.25C2.55964 13.25 2 12.6904 2 12C2 11.3096 2.55964 10.75 3.25 10.75C3.94035 10.75 4.5 11.3096 4.5 12Z" fill="currentColor" />
</svg>