<svg xmlns="http://www.w3.org/2000/svg" width="24" height="24" viewBox="0 0 24 24" fill="none">
    <path d="M16.067 17.0747L15.4996 17.5659C15.1058 17.9066 14.4469 18.1666 13.7672 18.2319C13.2229 18.2843 12.5891 18.2177 12.0055 17.9028C11.4223 18.217 10.7896 18.2842 10.2457 18.2319C9.5661 18.1666 8.90719 17.9065 8.51331 17.5659L7.94592 17.0747L8.92737 15.9409L9.49377 16.4312C9.6004 16.5234 9.94308 16.6959 10.3893 16.7388C10.8138 16.7795 11.2136 16.692 11.5153 16.4312L12.0065 16.0063L12.4967 16.4312C12.7984 16.6922 13.199 16.7796 13.6237 16.7388C14.0698 16.6959 14.4115 16.5234 14.5182 16.4312L15.0856 15.9409L16.067 17.0747Z" fill="currentColor" />
    <path fill-rule="evenodd" clip-rule="evenodd" d="M12.0045 1.24951C16.7508 1.24958 20.7736 4.52374 21.7457 8.92432L21.7906 9.12939L21.7223 9.32959L21.1744 10.9224C21.2268 10.9398 21.2805 10.9561 21.3336 10.9761C21.9261 11.1992 22.3683 11.6118 22.5914 12.1938C22.7971 12.7309 22.7865 13.3388 22.6617 13.9517L22.2301 16.8179L22.2145 16.9194L22.1725 17.0142C21.8721 17.6801 21.4231 18.1899 20.7438 18.4897C20.2216 18.7201 19.6115 18.8017 18.9215 18.7983C17.4825 21.3254 14.9982 22.6473 12.023 22.7495L11.9947 22.7505L11.9654 22.7485C10.3307 22.6777 8.89487 22.2946 7.68613 21.5571C6.60243 20.8959 5.73531 19.9698 5.07481 18.7983C4.38557 18.8016 3.77622 18.7199 3.25449 18.4897C2.57503 18.1899 2.12722 17.68 1.82676 17.0142L1.78379 16.9194L1.76817 16.8169L1.3375 13.9517L1.33848 13.9507C1.21385 13.3381 1.20319 12.7307 1.40879 12.1938C1.63192 11.6118 2.07412 11.1992 2.6666 10.9761C2.72236 10.9551 2.77858 10.9376 2.8336 10.9194L2.2877 9.32959L2.21934 9.12939L2.26426 8.92432C3.23639 4.52385 7.25816 1.24954 12.0045 1.24951ZM11.9977 8.74951C10.1758 8.74951 7.22911 9.17563 4.9752 11.1147C5.39702 11.4153 5.64353 11.8448 5.78672 12.2251C5.95675 12.6768 6.01689 13.1444 6.03867 13.478C6.04982 13.6489 6.04484 13.9778 6.04356 14.0825L5.99375 14.8306L4.49668 14.729L4.54746 13.981C4.54836 13.9076 4.54979 13.7012 4.5416 13.5757C4.52464 13.316 4.47962 13.0116 4.38242 12.7534C4.28382 12.4918 4.16434 12.3604 4.05235 12.3032C3.95607 12.2542 3.71673 12.1844 3.1959 12.3804C2.96789 12.4663 2.8671 12.5844 2.81113 12.73C2.74296 12.9079 2.71334 13.2102 2.81406 13.6841L3.23496 16.479C3.40425 16.8198 3.6006 17.0028 3.86094 17.1177C4.18011 17.2584 4.67245 17.3319 5.4791 17.2876L5.97129 17.2603L6.19102 17.7026C6.76397 18.8554 7.52439 19.6998 8.46836 20.2759C9.40858 20.8495 10.5732 21.1813 11.9957 21.2476C14.6456 21.15 16.6934 19.9475 17.8092 17.7026L18.0289 17.2603L18.5221 17.2876C19.3284 17.3318 19.8202 17.2584 20.1393 17.1177C20.3989 17.003 20.5953 16.8203 20.7643 16.481L21.1881 13.6841C21.2888 13.2103 21.2592 12.9079 21.191 12.73C21.1351 12.5844 21.0342 12.4663 20.8063 12.3804C20.2858 12.1845 20.0463 12.2542 19.9498 12.3032C19.8378 12.3604 19.7184 12.4917 19.6197 12.7534C19.5225 13.0116 19.4775 13.3159 19.4605 13.5757C19.4524 13.7012 19.4538 13.9076 19.4547 13.981L19.5055 14.729L18.0084 14.8306L17.9586 14.0825C17.9573 14.0516 17.9524 13.9522 17.9518 13.8999C17.9505 13.7951 17.9523 13.6489 17.9635 13.478C17.9853 13.1444 18.0454 12.6768 18.2154 12.2251C18.3582 11.846 18.6035 11.418 19.023 11.1177C16.7688 9.17625 13.8204 8.74955 11.9977 8.74951ZM12.0084 5.74951C11.4175 5.74951 10.8508 5.94714 10.442 6.31006C10.1508 6.56865 9.91648 6.93156 9.81309 7.42334C10.634 7.29496 11.3835 7.24951 11.9977 7.24951C12.6172 7.24952 13.3744 7.29623 14.2037 7.42725C14.1007 6.93361 13.8667 6.5693 13.5748 6.31006C13.166 5.94706 12.5993 5.74959 12.0084 5.74951Z" fill="currentColor" />
    <path d="M8.9967 11.9995C9.54899 11.9995 9.9967 12.4472 9.9967 12.9995C9.9967 13.5518 9.54899 13.9995 8.9967 13.9995C8.44442 13.9995 7.9967 13.5518 7.9967 12.9995C7.9967 12.4472 8.44442 11.9995 8.9967 11.9995Z" fill="currentColor" />
    <path d="M14.9967 11.9995C15.549 11.9995 15.9967 12.4472 15.9967 12.9995C15.9967 13.5518 15.549 13.9995 14.9967 13.9995C14.4444 13.9995 13.9967 13.5518 13.9967 12.9995C13.9967 12.4472 14.4444 11.9995 14.9967 11.9995Z" fill="currentColor" />
</svg>