<svg xmlns="http://www.w3.org/2000/svg" width="24" height="24" viewBox="0 0 24 24" fill="none">
    <path d="M17.8289 2.16729L6.51963 13.4766L5.35932 12.3163L3.96504 13.7106L6.43007 16.1756L3.8803 18.7254L2.89429 17.7394L1.5 19.1337L2.48601 20.1197L3.8803 21.514L4.86632 22.5L6.2606 21.1057L5.27459 20.1197L7.82436 17.5699L10.2894 20.035L11.6837 18.6407L10.5234 17.4804L21.8327 6.17105L22.5 1.5L17.8289 2.16729Z" fill="currentColor" />
    <path fill-rule="evenodd" clip-rule="evenodd" d="M11.1161 7.11238L6.17105 2.16729L1.5 1.5L2.16729 6.17105L7.11238 11.1161L11.1161 7.11238ZM12.8839 16.8876L13.4766 17.4804L12.3163 18.6407L13.7106 20.035L16.1756 17.5699L18.7254 20.1197L17.7394 21.1057L19.1337 22.5L20.1197 21.514L21.514 20.1197L22.5 19.1337L21.1057 17.7394L20.1197 18.7254L17.5699 16.1756L20.035 13.7106L18.6407 12.3163L17.4804 13.4766L16.8876 12.8839L12.8839 16.8876Z" fill="currentColor" />
</svg>