<svg xmlns="http://www.w3.org/2000/svg" width="24" height="24" viewBox="0 0 24 24" fill="none">
    <path d="M16.8751 12.9775H20.7755V22.75H18.8253V18.8408H16.8751V22.749H14.9249V18.8408H12.9747V22.75H11.0255V18.8408H9.07529V22.75H7.12509V18.8408H5.1749V22.75H3.22568V12.9775H14.9249V12.9766H16.8751V12.9775ZM5.1749 16.8867H7.12509V14.9316H5.1749V16.8867ZM9.07529 16.8867H11.0255V14.9316H9.07529V16.8867ZM12.9747 16.8867H14.9249V14.9316H12.9747V16.8867ZM16.8751 16.8867H18.8253V14.9316H16.8751V16.8867ZM5.6622 11.0225H2.25009V9.06836H5.6622V11.0225ZM11.0255 11.0225H7.6124V9.06836H11.0255V11.0225ZM16.3878 11.0225H12.9747V9.06836H16.3878V11.0225ZM21.7501 11.0225H18.338V9.06836H21.7501V11.0225ZM5.1749 5.15918H7.12509V1.25H9.07529V5.15918H11.0255V1.25H12.9747V5.15918H14.9249V1.25H16.8751V5.15918H18.8253V1.25H20.7755V7.11328H3.2247V1.25H5.1749V5.15918Z" fill="currentColor" />
</svg>