<svg xmlns="http://www.w3.org/2000/svg" width="24" height="24" viewBox="0 0 24 24" fill="none">
    <path d="M8.15527 1.0957C9.67406 1.0957 10.9053 2.32692 10.9053 3.8457C10.9053 4.23847 10.8212 4.61124 10.6729 4.94922L19.0508 13.3271C19.3889 13.1787 19.7623 13.0957 20.1553 13.0957C21.6741 13.0957 22.9053 14.3269 22.9053 15.8457C22.9053 17.3645 21.6741 18.5957 20.1553 18.5957C18.6365 18.5957 17.4053 17.3645 17.4053 15.8457C17.4053 15.4528 17.4882 15.0793 17.6367 14.7412L15.5068 12.6113C15.5038 13.3264 15.397 14.106 15.1816 14.9209C14.5919 17.1518 13.1786 19.7432 10.7227 22.1992L10.0156 22.9062L8.60156 21.4922L9.30859 20.7852C11.5443 18.5494 12.7587 16.2611 13.248 14.4102C13.4932 13.4826 13.5509 12.6879 13.4824 12.0762C13.4123 11.4502 13.2214 11.0993 13.0615 10.9395C12.9016 10.7796 12.5508 10.5886 11.9248 10.5186C11.313 10.4501 10.5184 10.5077 9.59082 10.7529C7.73991 11.2423 5.45154 12.4567 3.21582 14.6924L2.50879 15.3994L1.09473 13.9854L1.80176 13.2783C4.25773 10.8224 6.84922 9.4091 9.08008 8.81934C9.89461 8.60403 10.6739 8.49627 11.3887 8.49316L9.25879 6.36328C8.92081 6.51164 8.54804 6.5957 8.15527 6.5957C6.63649 6.5957 5.40527 5.36449 5.40527 3.8457C5.40527 2.32692 6.63649 1.0957 8.15527 1.0957Z" fill="currentColor" />
</svg>