<svg xmlns="http://www.w3.org/2000/svg" width="24" height="24" viewBox="0 0 24 24" fill="none">
    <path d="M16 1.25H8V4.75H16V1.25Z" fill="currentColor" />
    <path d="M6.75 6L17.25 6V3L21.25 3L21.25 22.75L2.75 22.75L2.75 3L6.75 3L6.75 6ZM8.5 16.999C7.94772 16.999 7.5 17.4467 7.5 17.999C7.5 18.5513 7.94772 18.999 8.5 18.999C9.05228 18.999 9.5 18.5513 9.5 17.999C9.5 17.4467 9.05228 16.999 8.5 16.999ZM14 17.249V18.749H18V17.249H14ZM7.99902 11.9385L7.0293 10.9688L5.96875 12.0293L7.99902 14.0596L11.5293 10.5293L10.4688 9.46875L7.99902 11.9385ZM14 11.249V12.749H18V11.249H14Z" fill="currentColor" />
</svg>