<svg xmlns="http://www.w3.org/2000/svg" width="24" height="24" viewBox="0 0 24 24" fill="none">
    <path d="M7.25 5.75021L15.75 5.75021L15.75 1.25021L20.25 1.25021L20.25 22.7502L2.75 22.7502L2.75 1.25021L7.25 1.25021L7.25 5.75021ZM8.5 16.0002C7.94771 16.0002 7.5 16.4479 7.5 17.0002C7.5 17.5525 7.94772 18.0002 8.5 18.0002C9.05228 18.0002 9.5 17.5525 9.5 17.0002C9.5 16.4479 9.05228 16.0002 8.5 16.0002ZM12.25 17.7502H16.75V16.2502L12.25 16.2502V17.7502ZM7.9375 10.8762L7 9.93869L5.93945 10.9992L8.0625 13.1223L10.5859 9.96799L11.0537 9.38205L9.88281 8.44553L7.9375 10.8762ZM12.25 11.7502L16.75 11.7502V10.2502L12.25 10.2502V11.7502ZM14.25 4.25021L8.75 4.25021V1.25021L14.25 1.25021V4.25021Z" fill="currentColor" />
</svg>