<svg xmlns="http://www.w3.org/2000/svg" width="24" height="24" viewBox="0 0 24 24" fill="none">
    <path d="M15.7502 4.75H18.0002L20.3225 10.3213L21.8508 8.9502L22.7502 10.1504L21.0178 11.6738L22.7502 14.2725V21.75H18.9729V18.75H5.02856V21.75H1.25024V14.2725L2.98267 11.6738L1.25024 10.1504L2.15063 8.9502L3.67896 10.3213L6.00024 4.75H8.25024V2.25H15.7502V4.75ZM6.00024 14C5.448 14 5.00031 14.4527 5.00024 15.0049C5.00024 15.5572 5.44796 16.0098 6.00024 16.0098C6.55253 16.0098 7.00024 15.5572 7.00024 15.0049C7.00018 14.4527 6.55249 14 6.00024 14ZM18.0002 14C17.448 14 17.0003 14.4527 17.0002 15.0049C17.0002 15.5572 17.448 16.0098 18.0002 16.0098C18.5525 16.0098 19.0002 15.5572 19.0002 15.0049C19.0002 14.4527 18.5525 14 18.0002 14ZM5.02759 10.9834L6.09204 11.25H17.9075L18.9729 10.9834L17.0002 6.25H7.00024L5.02759 10.9834Z" fill="currentColor" />
</svg>