<svg xmlns="http://www.w3.org/2000/svg" width="24" height="24" viewBox="0 0 24 24" fill="none">
    <path d="M10.4883 15.5V9.25C10.4883 8.69772 10.0406 8.25 9.48828 8.25C8.936 8.25 8.48828 8.69772 8.48828 9.25V15.5H7.48828V10.4956C7.48828 9.87132 6.9822 9.36523 6.35791 9.36523C5.73362 9.36523 5.22754 9.87132 5.22754 10.4956V16.0576L4.12891 14.6201C3.7474 14.1208 3.14854 13.8272 2.5127 13.8271C1.81537 13.8271 1.25 14.382 1.25 15.0664V15.1309C1.25 15.3722 1.31841 15.6089 1.44727 15.8145L4.46387 20.627C5.29105 21.9463 6.75668 22.7498 8.33496 22.75H9.2041C11.7145 22.75 13.75 20.7521 13.75 18.2881V11.6113C13.75 10.9868 13.2437 10.4805 12.6191 10.4805C11.9946 10.4805 11.4883 10.9868 11.4883 11.6113V15.5H10.4883Z" fill="currentColor" />
    <path d="M15.5117 4.25C15.5117 3.69772 15.064 3.25 14.5117 3.25C13.9594 3.25 13.5117 3.69772 13.5117 4.25V9.40527C14.384 9.75856 15 10.6123 15 11.6113V17.75H15.665C17.2433 17.7498 18.709 16.9463 19.5361 15.627L22.5527 10.8145C22.6816 10.6089 22.75 10.3722 22.75 10.1309V10.0664C22.75 9.38195 22.1846 8.82715 21.4873 8.82715C20.8515 8.82717 20.2526 9.12083 19.8711 9.62012L18.7725 11.0576V5.49609C18.7725 4.87197 18.2666 4.3655 17.6426 4.36523C17.0183 4.36523 16.5117 4.87181 16.5117 5.49609V10.5H15.5117V4.25Z" fill="currentColor" />
    <path d="M12.5117 6.61133C12.5117 5.98677 12.0054 5.48047 11.3809 5.48047C10.7563 5.48047 10.25 5.98677 10.25 6.61133V7.13477C11.1173 7.44715 11.7383 8.27503 11.7383 9.25V9.40039C11.9793 9.30427 12.2395 9.24772 12.5117 9.23535V6.61133Z" fill="currentColor" />
    <path d="M4.7373 4.54395L6.2373 5.04395L5.7627 6.46777L3.55176 5.73047L4.02539 4.30762L4.7373 4.54395ZM8.6709 3.9209L7.3291 4.59082L5.99414 1.9209L7.33496 1.25L8.6709 3.9209ZM11.9482 1.78125L11.7119 2.49316L11.2119 3.99316L9.78809 3.51855L10.5254 1.30762L11.9482 1.78125Z" fill="currentColor" />
</svg>