<svg xmlns="http://www.w3.org/2000/svg" width="24" height="24" viewBox="0 0 24 24" fill="none">
    <path d="M22 2V4H2V2H22Z" fill="currentColor" />
    <path d="M22 8V10H2V8H22Z" fill="currentColor" />
    <path d="M10 14V16H2V14H10Z" fill="currentColor" />
    <path d="M10 20V22H2V20H10Z" fill="currentColor" />
    <path d="M18.8574 16.4287C18.8574 15.0874 17.7699 14.0001 16.4287 14C15.0874 14 14 15.0874 14 16.4287C14.0001 17.7699 15.0874 18.8574 16.4287 18.8574C17.0996 18.8574 17.7051 18.586 18.1455 18.1455H18.1465C18.2274 18.0646 18.3029 17.9779 18.3721 17.8857V17.8848C18.6767 17.4792 18.8574 16.9765 18.8574 16.4287ZM20.8574 16.4287C20.8574 17.288 20.6103 18.0915 20.1855 18.7715L22.4141 21L21 22.4141L18.7715 20.1855C18.0918 20.6101 17.2888 20.8574 16.4287 20.8574C13.9829 20.8574 12.0001 18.8745 12 16.4287C12 13.9828 13.9828 12 16.4287 12C18.8745 12.0001 20.8574 13.9829 20.8574 16.4287Z" fill="currentColor" />
</svg>