<svg xmlns="http://www.w3.org/2000/svg" width="24" height="24" viewBox="0 0 24 24" fill="none">
    <path d="M2.25 21.75H21.75V20C21.75 18.4812 20.5188 17.25 19 17.25H17C16.211 17.25 15.5015 17.584 15 18.1162C14.4985 17.584 13.789 17.25 13 17.25H11C10.211 17.25 9.50149 17.584 9 18.1162C8.49851 17.584 7.78898 17.25 7 17.25H5C3.48122 17.25 2.25 18.4812 2.25 20V21.75Z" fill="currentColor" />
    <path d="M3.33762 14.7857C3.33762 13.5735 2.94024 12.819 2.58568 12.375C2.40359 12.147 2.22512 11.9906 2.0988 11.8957C2.03597 11.8485 1.98699 11.8168 1.95875 11.7996C1.95328 11.7963 1.94846 11.7934 1.94465 11.7912L0.75 11.1932L1.69463 10.2468C1.69725 10.2441 1.70189 10.239 1.70873 10.2317C1.72365 10.2159 1.74825 10.1895 1.7811 10.1526C1.84719 10.0785 1.94723 9.96255 2.06872 9.80702C2.31199 9.49559 2.64209 9.0274 2.97387 8.41804C3.63779 7.19858 4.30011 5.42781 4.30011 3.21429V2.25H6.22508V3.21429C6.22508 5.82203 5.44362 7.90857 4.66386 9.34089C4.55918 9.53317 4.45299 9.71341 4.34992 9.88236C5.69618 9.66118 6.76831 8.99813 7.5532 8.04796C8.5405 6.85274 9.11254 5.15368 9.11254 3.21429V2.25H11.0375V3.21429C11.0375 5.51773 10.3581 7.67564 9.03547 9.27686C7.92481 10.6214 6.38767 11.5345 4.52099 11.8062C4.94031 12.5378 5.2626 13.5173 5.2626 14.7857V15.75H3.33762V14.7857ZM18.7374 14.7857C18.7374 13.5176 19.0589 12.5377 19.4781 11.8062C17.6118 11.5344 16.075 10.6212 14.9645 9.27686C13.6419 7.67564 12.9625 5.51773 12.9625 3.21429V2.25H14.8875V3.21429C14.8875 5.15368 15.4595 6.85274 16.4468 8.04796C17.2315 8.99792 18.3033 9.66103 19.6491 9.88236C19.5462 9.71353 19.4407 9.53301 19.3361 9.34089C18.5564 7.90857 17.7749 5.82203 17.7749 3.21429V2.25H19.6999V3.21429C19.6999 5.42781 20.3622 7.19858 21.0261 8.41804C21.3579 9.0274 21.688 9.49559 21.9313 9.80702C22.0528 9.96255 22.1528 10.0785 22.2189 10.1526C22.2518 10.1895 22.2764 10.2159 22.2913 10.2317C22.2981 10.239 22.3027 10.2441 22.3054 10.2468L23.25 11.1932L22.0554 11.7912C22.0515 11.7934 22.0467 11.7963 22.0413 11.7996C22.013 11.8168 21.964 11.8485 21.9012 11.8957C21.7749 11.9906 21.5964 12.147 21.4143 12.375C21.0598 12.819 20.6624 13.5735 20.6624 14.7857V15.75H18.7374V14.7857ZM1.93337 11.7855C1.93433 11.786 1.93626 11.7865 1.93807 11.7874C1.93896 11.7878 1.93979 11.7887 1.94089 11.7893L1.94277 11.7902C1.93796 11.7874 1.93487 11.7854 1.93337 11.7846V11.7855Z" fill="currentColor" />
</svg>