<svg xmlns="http://www.w3.org/2000/svg" width="24" height="24" viewBox="0 0 24 24" fill="none">
    <path d="M16 22C18.2091 22 20 20.2091 20 18C20 16.5194 19.1956 15.2267 18 14.5351V4C18 2.89543 17.1046 2 16 2C14.8954 2 14 2.89543 14 4V14.5351C12.8044 15.2267 12 16.5194 12 18C12 20.2091 13.7909 22 16 22Z" fill="currentColor" />
    <path fill-rule="evenodd" clip-rule="evenodd" d="M11.4991 2V3.5H9.4991V2H11.4991ZM6.25737 5.67195L5.19671 4.61129L6.61092 3.19708L7.67158 4.25774L6.25737 5.67195ZM5.5 9.5H4V7.5H5.5V9.5ZM7.67157 12.7426L6.61091 13.8033L5.1967 12.3891L6.25736 11.3284L7.67157 12.7426ZM11.4991 13.5V15H9.4991V13.5H11.4991Z" fill="currentColor" />
    <path d="M11.25 12.25H10.5C8.42893 12.25 6.75 10.5711 6.75 8.5C6.75 6.42893 8.42893 4.75 10.5 4.75H11.25V12.25Z" fill="currentColor" />
</svg>