<svg xmlns="http://www.w3.org/2000/svg" width="24" height="24" viewBox="0 0 24 24" fill="none">
    <path d="M22.7158 20.4902C22.7157 20.9056 22.3799 21.25 21.9561 21.25H2.04591C1.62205 21.25 1.28628 20.9056 1.28615 20.4902V13.7402L2.06251 13.7686C2.5537 13.7862 2.88878 13.7265 3.09865 13.6611C3.35853 13.5801 3.61637 13.4018 3.82326 13.1592C4.2708 12.6342 4.41999 11.8139 4.07326 11.2422C3.75104 10.7111 3.47423 10.5074 3.22658 10.4062C2.94487 10.2913 2.60387 10.2647 2.03615 10.2646H1.29005L1.25001 3.51465C1.24755 3.09752 1.58411 2.7501 2.00978 2.75H21.9922C22.418 2.7501 22.7544 3.09771 22.752 3.51465L22.7158 9.51953V20.4902ZM19 13V11H10V13H19Z" fill="currentColor" />
</svg>