<svg xmlns="http://www.w3.org/2000/svg" width="24" height="24" viewBox="0 0 24 24" fill="none">
    <path fill-rule="evenodd" clip-rule="evenodd" d="M21 6C21.4142 6 21.75 6.33579 21.75 6.75V21.75C21.75 22.1642 21.4142 22.5 21 22.5H3C2.58579 22.5 2.25 22.1642 2.25 21.75V15.5H3C3.9665 15.5 4.75 14.7165 4.75 13.75C4.75 12.7835 3.9665 12 3 12H2.25V6.75C2.25 6.33579 2.58579 6 3 6H5.41854H9.80424H18.4813H20.0776H21ZM16.4141 14.9996H19V16.9996H10.5859L8.58594 14.9996L10 13.5855L11.4141 14.9996H13.5859L11.5859 12.9996L13 11.5855L16.4141 14.9996Z" fill="currentColor" />
    <path fill-rule="evenodd" clip-rule="evenodd" d="M8.85156 4.75024H9.80337H18.4801H19.6213L18.618 1.99369C18.4763 1.60446 18.0459 1.40377 17.6567 1.54543L8.85156 4.75024Z" fill="currentColor" />
</svg>