<svg xmlns="http://www.w3.org/2000/svg" width="24" height="24" viewBox="0 0 24 24" fill="none">
    <path d="M22.7158 20.4902C22.7157 20.9056 22.3799 21.25 21.9561 21.25H2.04591C1.62205 21.25 1.28628 20.9056 1.28615 20.4902V13.7402L2.06251 13.7686C2.5537 13.7862 2.88878 13.7265 3.09865 13.6611C3.35853 13.5801 3.61637 13.4018 3.82326 13.1592C4.2708 12.6342 4.41999 11.8139 4.07326 11.2422C3.75104 10.7111 3.47423 10.5074 3.22658 10.4062C2.94487 10.2913 2.60387 10.2647 2.03615 10.2646H1.29005L1.25001 3.51465C1.24755 3.09752 1.58411 2.7501 2.00978 2.75H21.9922C22.418 2.7501 22.7544 3.09771 22.752 3.51465L22.7158 9.51953V20.4902ZM18 7.58594L10.586 15L12 16.4141L19.4141 9L18 7.58594ZM13.5 9.25C13.5 8.55965 12.9404 8 12.25 8C11.5597 8 11 8.55965 11 9.25C11 9.94036 11.5597 10.5 12.25 10.5C12.9404 10.5 13.5 9.94036 13.5 9.25ZM19 14.75C19 14.0596 18.4404 13.5 17.75 13.5C17.0597 13.5 16.5 14.0596 16.5 14.75C16.5 15.4404 17.0597 16 17.75 16C18.4404 16 19 15.4404 19 14.75Z" fill="currentColor" />
</svg>