<svg xmlns="http://www.w3.org/2000/svg" width="24" height="24" viewBox="0 0 24 24" fill="none">
    <path d="M20.915 6L18.0117 8.90332L16.5977 7.48926L19.501 4.58594L20.915 6Z" fill="currentColor" />
    <path d="M15.5 1V3H8.5V1H15.5Z" fill="currentColor" />
    <path d="M16.9141 10L12 14.9141L10.5859 13.5L15.5 8.58594L16.9141 10Z" fill="currentColor" />
    <path d="M12 6C16.1421 6 19.5 9.35786 19.5 13.5C19.5 17.6421 16.1421 21 12 21C10.0311 21 8.23992 20.2421 6.90099 19H9.5V17H3.5V23H5.5V20.4283C7.19849 22.0222 9.48545 23 12 23C17.2467 23 21.5 18.7467 21.5 13.5C21.5 8.25329 17.2467 4 12 4C6.75329 4 2.5 8.25329 2.5 13.5C2.5 14.0709 2.55051 14.6313 2.64746 15.1758L4.61621 14.8242C4.53983 14.3951 4.5 13.9526 4.5 13.5C4.5 9.35786 7.85786 6 12 6Z" fill="currentColor" />
</svg>