<svg xmlns="http://www.w3.org/2000/svg" width="24" height="24" viewBox="0 0 24 24" fill="none">
    <path fill-rule="evenodd" clip-rule="evenodd" d="M17.6607 15.7799L17.6709 15.785C17.6709 15.785 17.6704 15.7848 17.6607 15.7799C17.6558 15.7775 17.6486 15.7737 17.6379 15.7684L17.6607 15.7799Z" fill="currentColor" />
    <path fill-rule="evenodd" clip-rule="evenodd" d="M17.6379 15.7684L17.6709 15.785C17.6709 15.785 17.6699 15.7843 17.6379 15.7684Z" fill="currentColor" />
    <path fill-rule="evenodd" clip-rule="evenodd" d="M17.666 15.7957L17.6709 15.785L17.8125 15.5038L17.709 15.207L17.0532 13.3193C16.158 13.8162 14.5884 14.2057 12 14.2057C9.41156 14.2057 7.84197 13.8162 6.94678 13.3193L6.29102 15.207L6.1875 15.5038L6.3291 15.785C6.3291 15.785 6.32579 15.7794 6.33398 15.7957L6.34082 15.8084C6.34541 15.817 6.353 15.8312 6.35938 15.8424C6.37427 15.8686 6.39464 15.9015 6.41992 15.9407C6.47069 16.0194 6.54346 16.1229 6.64258 16.2414C6.8412 16.4788 7.14431 16.7774 7.58398 17.0695C8.47048 17.6584 9.86876 18.1915 12 18.1915C14.1312 18.1915 15.5295 17.6584 16.416 17.0695C16.8557 16.7774 17.1588 16.4788 17.3574 16.2414C17.4565 16.1229 17.5293 16.0194 17.5801 15.9407C17.6054 15.9015 17.6257 15.8686 17.6406 15.8424C17.647 15.8312 17.6524 15.8211 17.657 15.8124L17.666 15.7957ZM7.45193 11.8652L7.46484 11.8751C7.84558 12.1746 9.05464 12.711 12 12.711C14.9454 12.711 16.1544 12.1746 16.5352 11.8751L16.5481 11.8652L15.7137 9.46334C14.6688 9.93917 13.4377 10.2198 12 10.2198C10.5623 10.2198 9.33123 9.93917 8.28629 9.46334L7.45193 11.8652ZM8.77948 8.04364C9.64497 8.46178 10.7036 8.72517 12 8.72517C13.2964 8.72517 14.355 8.46178 15.2205 8.04364L13.0342 1.75H10.9658L8.77948 8.04364ZM17.6379 15.7684L17.6709 15.785C17.6709 15.785 17.6699 15.7843 17.6379 15.7684Z" fill="currentColor" />
    <path d="M4.87669 15.468L5.11035 14.7998L5.54859 13.538L1.25 15.4323V17.399L11.7598 22.2508L12.0703 22.1136L22.3037 17.6053L22.75 17.4077V15.4353L18.4417 13.5078L18.8906 14.7998L19.1167 15.4486L19.167 15.5929L18.8027 16.3149L18.7871 16.349L18.7676 16.385L18.7588 16.4015L18.7285 16.457C18.6968 16.5128 18.6618 16.5683 18.6318 16.6147C18.5565 16.7314 18.453 16.8767 18.3174 17.0389C18.0479 17.3611 17.6564 17.743 17.1094 18.1064C15.9953 18.8465 14.3499 19.4376 12 19.4376C9.65011 19.4376 8.00467 18.8465 6.89062 18.1064C6.34359 17.743 5.95212 17.362 5.68262 17.0399C5.54695 16.8777 5.44345 16.7314 5.36816 16.6147C5.33824 16.5683 5.30081 16.5085 5.26909 16.4528C5.2619 16.4401 5.25691 16.43 5.25193 16.4199L5.24121 16.3986L5.2334 16.3869L5.22461 16.3704L5.2002 16.3217L5.07031 16.0629L4.83301 15.5929L4.87669 15.468Z" fill="currentColor" />
</svg>