<svg xmlns="http://www.w3.org/2000/svg" width="24" height="24" viewBox="0 0 24 24" fill="none">
    <path d="M17.2457 2.30957L16.277 3.27832L20.7203 7.72168L21.69 6.75293L23.0602 8.12305L22.0904 9.0918L23.0602 10.0615L21.69 11.4316L20.7203 10.4619L19.1832 11.999L20.1529 12.9688L18.7828 14.3389L17.8131 13.3691L16.277 14.9053L17.2467 15.875L15.8756 17.2451L14.9068 16.2764L13.3697 17.8125L14.3395 18.7822L12.9693 20.1523L11.9996 19.1826L10.4625 20.7197L11.4322 21.6895L10.0621 23.0596L9.09238 22.0898L8.12461 23.0596L6.75449 21.6895L7.72227 20.7197L3.27793 16.2754L2.31016 17.2451L0.940041 15.875L1.90781 14.9053L0.940041 13.9375L2.31016 12.5674L3.27793 13.5352L4.81504 11.998L3.84727 11.0303L5.21738 9.66016L6.18516 10.6279L7.72227 9.0918L6.75449 8.12305L8.12461 6.75293L9.09336 7.72168L10.6295 6.18555L9.66074 5.2168L11.0309 3.84668L11.9996 4.81543L13.5367 3.27832L12.568 2.30957L13.9381 0.939453L14.9068 1.9082L15.8756 0.939453L17.2457 2.30957ZM4.64805 14.9053L9.09238 19.3496L10.6295 17.8125L6.18516 13.3682L4.64805 14.9053ZM7.55527 11.998L11.9996 16.4424L13.5367 14.9062L9.09238 10.4619L7.55527 11.998ZM10.4635 9.0918L14.9068 13.5352L16.443 11.999L11.9996 7.55566L10.4635 9.0918ZM13.3697 6.18555L17.8131 10.6289L19.3502 9.0918L14.9068 4.64844L13.3697 6.18555Z" fill="currentColor" />
</svg>