<svg xmlns="http://www.w3.org/2000/svg" width="24" height="24" viewBox="0 0 24 24" fill="none">
    <path d="M20 9.41406C19.9972 9.41683 19.995 9.42008 19.9922 9.42285C19.9868 9.4282 19.981 9.4331 19.9756 9.43848C19.9702 9.44389 19.9644 9.44964 19.959 9.45508C19.9536 9.46044 19.9487 9.4663 19.9434 9.47168C19.938 9.47702 19.9321 9.48194 19.9268 9.4873L19.8604 9.55371C19.8548 9.55928 19.8493 9.5657 19.8438 9.57129C19.8381 9.57689 19.8318 9.58227 19.8262 9.58789C19.8207 9.59341 19.8151 9.59895 19.8096 9.60449C19.8039 9.61014 19.7986 9.6164 19.793 9.62207C19.7873 9.62774 19.7811 9.63298 19.7754 9.63867C19.7697 9.64434 19.7645 9.65056 19.7588 9.65625C19.7531 9.66194 19.7469 9.66714 19.7412 9.67285L19.584 9.83008C19.5781 9.836 19.5723 9.84269 19.5664 9.84863C19.5605 9.85456 19.5538 9.86026 19.5479 9.86621C19.542 9.87206 19.5361 9.87792 19.5303 9.88379C19.5243 9.88977 19.5187 9.89634 19.5127 9.90234C19.5067 9.90834 19.5002 9.91391 19.4941 9.91992C19.4881 9.92592 19.4826 9.93246 19.4766 9.93848C19.4706 9.94449 19.464 9.95002 19.458 9.95605L19.2363 10.1777C19.2301 10.184 19.2241 10.191 19.2178 10.1973C19.2115 10.2035 19.2045 10.2095 19.1982 10.2158L19.084 10.3301C19.0777 10.3364 19.0718 10.3433 19.0654 10.3496C19.0591 10.3559 19.0523 10.3618 19.0459 10.3682L19.0068 10.4072C19.0005 10.4136 18.9946 10.4204 18.9883 10.4268C18.9819 10.4331 18.9751 10.439 18.9688 10.4453L18.8516 10.5625C18.845 10.569 18.8386 10.5765 18.832 10.583C18.8255 10.5896 18.8181 10.596 18.8115 10.6025L18.7725 10.6416C18.7659 10.6482 18.7595 10.6555 18.7529 10.6621C18.7463 10.6687 18.739 10.675 18.7324 10.6816L18.6729 10.7412C18.6662 10.7479 18.66 10.7551 18.6533 10.7617C18.6467 10.7684 18.6395 10.7746 18.6328 10.7812L18.5117 10.9023C18.5051 10.909 18.4988 10.9162 18.4922 10.9229C18.4855 10.9295 18.4784 10.9357 18.4717 10.9424L18.4307 10.9834C18.424 10.9901 18.4178 10.9972 18.4111 11.0039C18.4045 11.0106 18.3973 11.0168 18.3906 11.0234L18.1445 11.2695C18.1377 11.2764 18.1309 11.2841 18.124 11.291C18.1171 11.2979 18.1094 11.3046 18.1025 11.3115L17.6455 11.7686C17.6386 11.7755 17.6319 11.7831 17.625 11.79C17.618 11.797 17.6105 11.8036 17.6035 11.8105L17.541 11.873C17.5341 11.88 17.5275 11.8876 17.5205 11.8945C17.5135 11.9015 17.506 11.9081 17.499 11.915L17.4365 11.9775C17.4296 11.9845 17.423 11.9921 17.416 11.999C17.409 12.006 17.4015 12.0126 17.3945 12.0195L17.332 12.082C17.3251 12.089 17.3185 12.0966 17.3115 12.1035C17.3046 12.1105 17.297 12.1171 17.29 12.124L17.082 12.332C17.0751 12.3389 17.0684 12.3466 17.0615 12.3535C17.0546 12.3604 17.047 12.3671 17.04 12.374L16.8955 12.5186C16.8886 12.5254 16.8819 12.5332 16.875 12.54C16.8681 12.5469 16.8604 12.5537 16.8535 12.5605L16.5869 12.8271C16.5802 12.8338 16.574 12.841 16.5674 12.8477C16.5607 12.8543 16.5535 12.8605 16.5469 12.8672L16.5059 12.9082C16.4992 12.9149 16.493 12.922 16.4863 12.9287C16.4797 12.9354 16.4725 12.9416 16.4658 12.9482L16.4453 12.9688C16.4386 12.9754 16.4324 12.9826 16.4258 12.9893C16.4191 12.9959 16.4119 13.0021 16.4053 13.0088L16.2852 13.1289C16.2785 13.1355 16.2722 13.1428 16.2656 13.1494C16.259 13.156 16.2517 13.1623 16.2451 13.1689C16.2386 13.1755 16.2321 13.182 16.2256 13.1885C16.219 13.1951 16.2126 13.2024 16.2061 13.209C16.1995 13.2156 16.1921 13.2219 16.1855 13.2285L16.1074 13.3066C16.1009 13.3132 16.0944 13.3206 16.0879 13.3271C16.0814 13.3336 16.0748 13.3402 16.0684 13.3467C16.062 13.353 16.0552 13.3589 16.0488 13.3652L15.7988 13.6152C15.7925 13.6215 15.7866 13.6285 15.7803 13.6348C15.774 13.641 15.767 13.6471 15.7607 13.6533L15.7051 13.709C15.6989 13.7152 15.6927 13.7223 15.6865 13.7285L15.6309 13.7842C15.6248 13.7902 15.6183 13.7957 15.6123 13.8018L15.5205 13.8936C15.5145 13.8996 15.5089 13.9061 15.5029 13.9121C15.4969 13.9181 15.4904 13.9237 15.4844 13.9297L15.4131 14.001C15.4072 14.0069 15.4014 14.0136 15.3955 14.0195C15.3896 14.0254 15.3828 14.0312 15.377 14.0371L15.3242 14.0898C15.3185 14.0956 15.3133 14.1017 15.3076 14.1074C15.3019 14.1131 15.2957 14.1184 15.29 14.124L15.2549 14.1592C15.2492 14.1649 15.2439 14.1711 15.2383 14.1768C15.2326 14.1825 15.2264 14.1877 15.2207 14.1934C15.215 14.1991 15.2098 14.2053 15.2041 14.2109C15.1984 14.2166 15.1922 14.2219 15.1865 14.2275C15.181 14.2331 15.1754 14.2386 15.1699 14.2441C15.1643 14.2498 15.1589 14.2561 15.1533 14.2617C15.1477 14.2673 15.1413 14.2727 15.1357 14.2783L15.0527 14.3613C15.0474 14.3667 15.0425 14.3726 15.0371 14.3779C15.0317 14.3833 15.0259 14.3882 15.0205 14.3936L15.0039 14.4102C14.9985 14.4155 14.9936 14.4214 14.9883 14.4268C14.9829 14.4321 14.977 14.4371 14.9717 14.4424L14.8301 14.584C14.825 14.589 14.8205 14.5946 14.8154 14.5996C14.8104 14.6047 14.8048 14.6092 14.7998 14.6143L14.7695 14.6445C14.7645 14.6495 14.7599 14.6552 14.7549 14.6602C14.7499 14.6651 14.7442 14.6698 14.7393 14.6748L14.6514 14.7627C14.6467 14.7674 14.6424 14.7727 14.6377 14.7773C14.633 14.7821 14.6278 14.7863 14.623 14.791C14.6183 14.7957 14.6141 14.801 14.6094 14.8057C14.6047 14.8104 14.5994 14.8147 14.5947 14.8193C14.5902 14.8239 14.5856 14.8285 14.5811 14.833C14.5764 14.8377 14.572 14.843 14.5674 14.8477C14.5628 14.8523 14.5573 14.8567 14.5527 14.8613L14.5254 14.8887C14.521 14.8931 14.5171 14.898 14.5127 14.9023C14.5083 14.9067 14.5034 14.9107 14.499 14.915L14.459 14.9551C14.4546 14.9595 14.4506 14.9644 14.4463 14.9688C14.442 14.9731 14.4369 14.9771 14.4326 14.9814L14.3691 15.0449C14.3651 15.049 14.3615 15.0536 14.3574 15.0576C14.3533 15.0617 14.3488 15.0653 14.3447 15.0693L14.3086 15.1055C14.3046 15.1095 14.3008 15.1142 14.2969 15.1182L14.2617 15.1533C14.258 15.1571 14.2537 15.1603 14.25 15.1641C14.2462 15.1679 14.2421 15.172 14.2383 15.1758C14.2345 15.1795 14.2312 15.1838 14.2275 15.1875C14.2238 15.1912 14.2195 15.1945 14.2158 15.1982C14.2122 15.2018 14.2086 15.2054 14.2051 15.209C14.2014 15.2127 14.198 15.2171 14.1943 15.2207C14.1907 15.2243 14.1862 15.2278 14.1826 15.2314C14.1791 15.2349 14.1753 15.2387 14.1719 15.2422C14.1684 15.2456 14.1655 15.2495 14.1621 15.2529C14.1587 15.2563 14.1547 15.2593 14.1514 15.2627L14.1201 15.2939C14.1167 15.2973 14.1137 15.3013 14.1104 15.3047C14.107 15.308 14.1029 15.3111 14.0996 15.3145L14.0703 15.3438C14.0672 15.3469 14.0646 15.3504 14.0615 15.3535C14.0584 15.3566 14.0548 15.3592 14.0518 15.3623L14.0332 15.3809C14.0302 15.3839 14.0274 15.3876 14.0244 15.3906C14.0214 15.3936 14.0176 15.3964 14.0146 15.3994L13.9971 15.417C13.9943 15.4198 13.992 15.423 13.9893 15.4258C13.9865 15.4286 13.9832 15.4309 13.9805 15.4336L13.9238 15.4902C13.9214 15.4927 13.9194 15.4956 13.917 15.498C13.9145 15.5005 13.9116 15.5025 13.9092 15.5049L13.8184 15.5957C13.8165 15.5975 13.8152 15.5998 13.8135 15.6016C13.8117 15.6034 13.8094 15.6047 13.8076 15.6064C13.8058 15.6082 13.8045 15.6106 13.8027 15.6123C13.801 15.614 13.7985 15.6155 13.7969 15.6172L13.7871 15.627C13.7856 15.6284 13.7846 15.6304 13.7832 15.6318C13.7817 15.6333 13.7798 15.6343 13.7783 15.6357L13.7656 15.6484C13.7643 15.6498 13.763 15.652 13.7617 15.6533C13.7604 15.6546 13.7591 15.656 13.7578 15.6572C13.7567 15.6584 13.755 15.659 13.7539 15.6602C13.7527 15.6614 13.7512 15.6629 13.75 15.6641C13.7488 15.6652 13.7482 15.6669 13.7471 15.668C13.7459 15.6691 13.7442 15.6698 13.7432 15.6709L13 16.4141L9 12.4141L3 18.4141L1.58594 17L9 9.58594L13 13.5859L13.0186 13.5674C13.0229 13.5631 13.0269 13.558 13.0312 13.5537C13.0356 13.5494 13.0405 13.5454 13.0449 13.541L13.085 13.501C13.0893 13.4966 13.0933 13.4917 13.0977 13.4873C13.102 13.4829 13.1069 13.479 13.1113 13.4746L13.1387 13.4473C13.1433 13.4427 13.1477 13.4372 13.1523 13.4326C13.157 13.428 13.1623 13.4236 13.167 13.4189C13.1715 13.4144 13.1761 13.4098 13.1807 13.4053C13.1853 13.4006 13.1896 13.3953 13.1943 13.3906C13.199 13.3859 13.2043 13.3817 13.209 13.377C13.2137 13.3722 13.2179 13.367 13.2227 13.3623C13.2273 13.3576 13.2326 13.3533 13.2373 13.3486L13.3252 13.2607C13.3302 13.2558 13.3349 13.2501 13.3398 13.2451C13.3448 13.2401 13.3505 13.2355 13.3555 13.2305L13.3857 13.2002C13.3908 13.1952 13.3953 13.1896 13.4004 13.1846C13.4054 13.1795 13.411 13.175 13.416 13.1699L13.5576 13.0283C13.5629 13.023 13.5679 13.0171 13.5732 13.0117C13.5786 13.0064 13.5845 13.0015 13.5898 12.9961C13.5952 12.9907 13.601 12.9849 13.6064 12.9795C13.6118 12.9741 13.6167 12.9683 13.6221 12.9629C13.6274 12.9575 13.6333 12.9526 13.6387 12.9473L13.7217 12.8643C13.7273 12.8587 13.7327 12.8523 13.7383 12.8467C13.7439 12.8411 13.7502 12.8357 13.7559 12.8301C13.7614 12.8246 13.7669 12.819 13.7725 12.8135C13.7781 12.8078 13.7834 12.8016 13.7891 12.7959C13.7947 12.7902 13.8009 12.785 13.8066 12.7793C13.8123 12.7736 13.8175 12.7674 13.8232 12.7617C13.8289 12.7561 13.8351 12.7508 13.8408 12.7451L13.876 12.71C13.8816 12.7043 13.8869 12.6981 13.8926 12.6924C13.8983 12.6867 13.9044 12.6815 13.9102 12.6758L13.9629 12.623C13.9688 12.6172 13.9746 12.6104 13.9805 12.6045C13.9864 12.5986 13.9931 12.5928 13.999 12.5869L14.0703 12.5156C14.0763 12.5096 14.0819 12.5031 14.0879 12.4971C14.0939 12.4911 14.1004 12.4855 14.1064 12.4795L14.1982 12.3877C14.2043 12.3817 14.2098 12.3752 14.2158 12.3691L14.2715 12.3135C14.2777 12.3073 14.2848 12.3011 14.291 12.2949L14.3467 12.2393C14.3529 12.233 14.359 12.226 14.3652 12.2197C14.3715 12.2134 14.3785 12.2075 14.3848 12.2012L14.6348 11.9512C14.6411 11.9448 14.647 11.938 14.6533 11.9316C14.6598 11.9252 14.6664 11.9186 14.6729 11.9121C14.6794 11.9056 14.6868 11.8991 14.6934 11.8926L14.7715 11.8145C14.7781 11.8079 14.7844 11.8005 14.791 11.7939C14.7976 11.7874 14.8049 11.781 14.8115 11.7744C14.818 11.7679 14.8245 11.7614 14.8311 11.7549C14.8377 11.7483 14.844 11.741 14.8506 11.7344C14.8572 11.7278 14.8645 11.7215 14.8711 11.7148L14.9912 11.5947C14.9979 11.5881 15.0041 11.5809 15.0107 11.5742C15.0174 11.5676 15.0246 11.5614 15.0312 11.5547C15.038 11.548 15.045 11.5409 15.0518 11.5342C15.0584 11.5275 15.0646 11.5203 15.0713 11.5137C15.078 11.507 15.0851 11.5008 15.0918 11.4941L15.1328 11.4531C15.1395 11.4465 15.1457 11.4393 15.1523 11.4326C15.159 11.426 15.1662 11.4198 15.1729 11.4131L15.4395 11.1465C15.4463 11.1396 15.4531 11.1319 15.46 11.125C15.4668 11.1181 15.4746 11.1114 15.4814 11.1045L15.626 10.96C15.6329 10.953 15.6396 10.9454 15.6465 10.9385C15.6534 10.9316 15.6611 10.9249 15.668 10.918L15.876 10.71C15.8829 10.703 15.8895 10.6954 15.8965 10.6885C15.9034 10.6815 15.911 10.6749 15.918 10.668L15.9805 10.6055C15.9874 10.5985 15.994 10.591 16.001 10.584C16.0079 10.577 16.0155 10.5704 16.0225 10.5635L16.085 10.501C16.0919 10.494 16.0985 10.4865 16.1055 10.4795C16.1124 10.4725 16.12 10.4659 16.127 10.459L16.1895 10.3965C16.1964 10.3895 16.203 10.382 16.21 10.375C16.2169 10.3681 16.2245 10.3614 16.2314 10.3545L16.6885 9.89746C16.6954 9.89057 16.7021 9.88286 16.709 9.87598C16.7159 9.8691 16.7236 9.86234 16.7305 9.85547L16.9766 9.60938C16.9832 9.60272 16.9894 9.59551 16.9961 9.58887C17.0028 9.58219 17.0099 9.576 17.0166 9.56934L17.0576 9.52832C17.0643 9.52164 17.0705 9.51448 17.0771 9.50781C17.0838 9.50116 17.091 9.49493 17.0977 9.48828L17.2188 9.36719C17.2254 9.36053 17.2316 9.35333 17.2383 9.34668C17.2449 9.34003 17.2521 9.33379 17.2588 9.32715L17.3184 9.26758C17.325 9.26095 17.3313 9.25368 17.3379 9.24707C17.3445 9.24047 17.3518 9.23413 17.3584 9.22754L17.3975 9.18848C17.404 9.1819 17.4104 9.17453 17.417 9.16797C17.4235 9.16142 17.431 9.15497 17.4375 9.14844L17.5547 9.03125C17.561 9.0249 17.5669 9.01806 17.5732 9.01172C17.5796 9.00537 17.5864 8.9995 17.5928 8.99316L17.7842 8.80176C17.7905 8.79546 17.7965 8.78851 17.8027 8.78223C17.809 8.77595 17.816 8.76993 17.8223 8.76367L18.0439 8.54199C18.05 8.53596 18.0555 8.52945 18.0615 8.52344C18.0675 8.51742 18.0741 8.51186 18.0801 8.50586C18.0861 8.49984 18.0917 8.4933 18.0977 8.4873C18.1037 8.4813 18.1102 8.47571 18.1162 8.46973C18.1221 8.46386 18.1279 8.458 18.1338 8.45215C18.1397 8.4462 18.1454 8.43952 18.1514 8.43359C18.1573 8.42765 18.164 8.42194 18.1699 8.41602L18.3271 8.25879C18.3329 8.25308 18.3381 8.2469 18.3438 8.24121C18.3494 8.23552 18.3557 8.23028 18.3613 8.22461C18.367 8.21892 18.3723 8.2127 18.3779 8.20703C18.3836 8.20136 18.3899 8.19608 18.3955 8.19043C18.4011 8.18489 18.4066 8.17935 18.4121 8.17383C18.4177 8.1682 18.4231 8.16185 18.4287 8.15625C18.4343 8.15066 18.4407 8.14522 18.4463 8.13965L18.5127 8.07324C18.5181 8.06787 18.523 8.06199 18.5283 8.05664C18.5337 8.05126 18.5396 8.04638 18.5449 8.04102C18.5504 8.03558 18.5561 8.02983 18.5615 8.02441C18.5669 8.01904 18.5718 8.01316 18.5771 8.00781C18.5798 8.00521 18.5824 8.0026 18.585 8H15V6H22V13H20V9.41406Z" fill="currentColor" />
</svg>