<svg xmlns="http://www.w3.org/2000/svg" width="24" height="24" viewBox="0 0 24 24" fill="none">
    <path d="M15.9092 5.68066H19.3633L22.75 10.7334V18.3193H20.165C19.7446 19.7248 18.436 20.7499 16.8867 20.75C15.3373 20.75 14.0279 19.7249 13.6074 18.3193H10.3926C9.97213 19.7248 8.66351 20.7498 7.11426 20.75C5.5648 20.75 4.25545 19.7249 3.83496 18.3193H1.25V11.6211L5.37402 13.6104L9.50879 5.3418H6.50879L7.39453 3.25H15.9092V5.68066ZM7.11426 15.8887C6.3047 15.8887 5.64844 16.5423 5.64844 17.3477C5.64867 18.1528 6.30485 18.8056 7.11426 18.8057C7.9237 18.8057 8.57984 18.1529 8.58008 17.3477C8.58008 16.5422 7.92385 15.8887 7.11426 15.8887ZM16.8867 15.8887C16.0772 15.8888 15.4209 16.5423 15.4209 17.3477C15.4211 18.1528 16.0774 18.8055 16.8867 18.8057C17.6962 18.8057 18.3523 18.1529 18.3525 17.3477C18.3525 16.5422 17.6963 15.8887 16.8867 15.8887ZM15.9102 7.625V14.085C16.2196 13.9934 16.5474 13.9444 16.8867 13.9443C18.4362 13.9443 19.7455 14.9694 20.166 16.375H20.7959V11.3223L18.3184 7.625H15.9102Z" fill="currentColor" />
    <path d="M5.70996 4.14453L4.48633 6.5918H7.48633L4.81543 11.9336L3.02637 11.0391L4.25 8.5918H1.25L3.9209 3.25L5.70996 4.14453Z" fill="currentColor" />
</svg>