<svg xmlns="http://www.w3.org/2000/svg" width="24" height="24" viewBox="0 0 24 24" fill="none">
    <path d="M12 3.25C15.6313 3.25 18.6158 6.01516 18.9648 9.55469C20.4232 10.135 22.1614 11.0999 23.5303 12.4688L23.75 12.6885V13.8809L23.4404 14.1055C22.2565 14.9652 20.7603 15.7886 19.0459 16.4365L18.8691 16.7471C17.5025 19.1346 14.9414 20.75 12.001 20.75C9.06058 20.75 6.4995 19.1346 5.13281 16.7471L4.95605 16.4375C3.24076 15.7895 1.74394 14.9655 0.55957 14.1055L0.25 13.8809V12.6885L0.469727 12.4688C1.83833 11.1002 3.57599 10.135 5.03418 9.55469C5.38322 6.01512 8.36866 3.25 12 3.25ZM15.7705 17.376C14.5694 17.613 13.3054 17.749 12 17.749C10.6953 17.749 9.43196 17.6128 8.23145 17.376C9.2576 18.2341 10.5702 18.75 12.001 18.75C13.4317 18.75 14.7444 18.2341 15.7705 17.376ZM12 13.1484C11.5309 13.1486 11.1506 13.5289 11.1504 13.998C11.1504 14.4674 11.5307 14.8484 12 14.8486C12.4694 14.8486 12.8506 14.4675 12.8506 13.998C12.8504 13.5288 12.4693 13.1484 12 13.1484ZM7 12.6484C6.53087 12.6486 6.1506 13.0289 6.15039 13.498C6.15039 13.9674 6.53074 14.3484 7 14.3486C7.46944 14.3486 7.85059 13.9675 7.85059 13.498C7.85038 13.0288 7.46931 12.6484 7 12.6484ZM17 12.6484C16.5309 12.6486 16.1506 13.0289 16.1504 13.498C16.1504 13.9674 16.5307 14.3484 17 14.3486C17.4694 14.3486 17.8506 13.9675 17.8506 13.498C17.8504 13.0288 17.4693 12.6484 17 12.6484ZM12 5.25C9.4624 5.25 7.36706 7.14049 7.04395 9.58984C8.29044 9.98758 10.0337 10.249 12 10.249C13.9658 10.249 15.7086 9.98742 16.9551 9.58984C16.6319 7.14055 14.5376 5.25 12 5.25Z" fill="currentColor" />
</svg>