<svg xmlns="http://www.w3.org/2000/svg" width="24" height="24" viewBox="0 0 24 24" fill="none">
    <path d="M8.98352 8.98291C8.63696 9.80203 8.35501 10.6985 8.18958 11.645C9.34382 12.1844 10.6346 12.4878 12.0001 12.4878C12.1594 12.4878 12.3176 12.4823 12.4747 12.4741L14.214 14.2134C13.8065 14.297 13.3915 14.3618 12.9689 14.3989V20.3062C12.9689 21.6555 11.8843 22.7495 10.547 22.7495C9.20977 22.7494 8.1261 21.6554 8.1261 20.3062V18.8403H10.0626V20.3062C10.0626 20.5759 10.2796 20.7953 10.547 20.7954C10.8145 20.7954 11.0314 20.576 11.0314 20.3062V14.3989C9.58318 14.2719 8.21484 13.8642 6.9845 13.228C6.39111 13.34 5.5982 13.4193 4.77356 13.3667C3.77611 13.3031 2.58437 13.0386 1.68079 12.2505L1.25012 11.8745L1.36536 11.312C1.87388 8.83558 3.23923 6.67375 5.13782 5.13721L8.98352 8.98291Z" fill="currentColor" />
    <path d="M12.9689 2.75732C17.7705 3.17844 21.6879 6.70035 22.6349 11.312L22.7501 11.8745L22.3195 12.2505C21.4161 13.0385 20.225 13.303 19.2277 13.3667C18.4024 13.4193 17.6084 13.3401 17.0148 13.228C16.9592 13.2568 16.902 13.2823 16.8458 13.3101L15.3712 11.8354C15.5194 11.7756 15.6657 11.7123 15.8097 11.645C15.4712 9.70839 14.6468 7.98095 13.7755 6.69775C13.2918 5.98535 12.8087 5.43171 12.4152 5.06787C12.2472 4.91262 12.1059 4.80454 12.0001 4.73389C11.8943 4.80453 11.7531 4.91263 11.5851 5.06787C11.1925 5.43079 10.7102 5.98211 10.2277 6.69189L7.30676 3.771C8.45215 3.22594 9.70795 2.87339 11.0314 2.75732V1.24951H12.9689V2.75732Z" fill="currentColor" />
    <path d="M22.7501 21.3354L21.3361 22.7495L1.25012 2.66357L2.66418 1.24951L22.7501 21.3354Z" fill="currentColor" />
</svg>