<svg xmlns="http://www.w3.org/2000/svg" width="24" height="24" viewBox="0 0 24 24" fill="none">
    <path d="M11 1H13V5H11V1Z" fill="currentColor" />
    <path d="M11 7H13V11H11V7Z" fill="currentColor" />
    <path d="M23.4141 12L19 16.4141L17.5859 15L19.5859 13H15V11H19.5859L17.5859 9L19 7.58594L23.4141 12Z" fill="currentColor" />
    <path d="M6.41016 9L4.41016 11H8.99609V13H4.41016L6.41016 15L4.99609 16.4141L0.582031 12L4.99609 7.58594L6.41016 9Z" fill="currentColor" />
    <path d="M11 13H13V17H11V13Z" fill="currentColor" />
    <path d="M11 19H13V23H11V19Z" fill="currentColor" />
</svg>