<svg xmlns="http://www.w3.org/2000/svg" width="24" height="24" viewBox="0 0 24 24" fill="none">
    <path d="M22.9141 2.5L19.5 5.91406L18.0859 4.5L21.5 1.08594L22.9141 2.5Z" fill="currentColor" />
    <path d="M5.91406 19.5L2.5 22.9141L1.08594 21.5L4.5 18.0859L5.91406 19.5Z" fill="currentColor" />
    <path d="M14.0605 17L10.3105 20.75H5.68945L3.25 18.3105V13.6895L7 9.93945L14.0605 17Z" fill="currentColor" />
    <path d="M18.3086 3.25L20.748 5.68945V10.3105L16.998 14.0605L9.9375 7L13.6875 3.25H18.3086Z" fill="currentColor" />
    <path d="M14.9141 13.5L11.5 16.9141L10.0859 15.5L13.5 12.0859L14.9141 13.5ZM11.9141 10.5L8.5 13.9141L7.08594 12.5L10.5 9.08594L11.9141 10.5Z" fill="currentColor" />
</svg>