<svg xmlns="http://www.w3.org/2000/svg" width="24" height="24" viewBox="0 0 24 24" fill="none">
    <path fill-rule="evenodd" clip-rule="evenodd" d="M12.6094 17.1094C12.6094 14.9002 14.4002 13.1094 16.6094 13.1094C18.8185 13.1094 20.6094 14.9002 20.6094 17.1094C20.6094 17.8512 20.4074 18.5458 20.0556 19.1413L21.7497 20.8358L20.3355 22.25L18.6413 20.5556C18.0458 20.9074 17.3512 21.1094 16.6094 21.1094C14.4002 21.1094 12.6094 19.3185 12.6094 17.1094ZM16.6094 15.1094C15.5048 15.1094 14.6094 16.0048 14.6094 17.1094C14.6094 18.2139 15.5048 19.1094 16.6094 19.1094C17.7139 19.1094 18.6094 18.2139 18.6094 17.1094C18.6094 16.0048 17.7139 15.1094 16.6094 15.1094Z" fill="currentColor" />
    <path d="M13.7415 12.7113C12.3073 13.6485 11.3596 15.2683 11.3596 17.1094C11.3596 18.2871 11.7474 19.3742 12.4022 20.25H2.25V19.5C2.25 15.8234 4.81022 12.7447 8.2451 11.9495C6.20857 11.2274 4.75 9.28405 4.75 7C4.75 4.10051 7.1005 1.75 10 1.75C12.8995 1.75 15.25 4.10051 15.25 7C15.25 9.28405 13.7914 11.2274 11.7549 11.9495C12.4586 12.1124 13.1257 12.3712 13.7415 12.7113Z" fill="currentColor" />
</svg>