<svg xmlns="http://www.w3.org/2000/svg" width="24" height="24" viewBox="0 0 24 24" fill="none">
    <path d="M22.6641 14.6467L19.6641 17.6223L22.6641 20.5979L21.25 22.0004L18.25 19.0248L15.25 22.0004L13.8359 20.5979L16.8359 17.6223L13.8359 14.6467L15.25 13.2441L18.25 16.2197L21.25 13.2441L22.6641 14.6467Z" fill="currentColor" />
    <path d="M1.7929 14.0558C3.53948 12.7241 6.02722 11.918 8.75 11.918C10.5901 11.918 12.3229 12.2862 13.792 12.9359L12.0684 14.6456L15.0684 17.6212L13.3184 19.3569H1.5V14.2792L1.7929 14.0558Z" fill="currentColor" />
    <path d="M4.5 6.25C4.5 3.90279 6.40279 2 8.75 2C11.0972 2 13 3.90279 13 6.25C13 8.59721 11.0972 10.5 8.75 10.5C6.40279 10.5 4.5 8.59721 4.5 6.25Z" fill="currentColor" />
</svg>