<svg xmlns="http://www.w3.org/2000/svg" width="24" height="24" viewBox="0 0 24 24" fill="none">
    <path d="M14.84 19.2539C14.84 18.7016 14.3923 18.2539 13.84 18.2539C13.2877 18.2539 12.84 18.7016 12.84 19.2539C12.84 19.8062 13.2877 20.2539 13.84 20.2539C14.3923 20.2539 14.84 19.8062 14.84 19.2539ZM16.84 19.2539C16.84 20.9108 15.4969 22.2539 13.84 22.2539C12.1832 22.2539 10.84 20.9108 10.84 19.2539C10.84 17.5971 12.1832 16.2539 13.84 16.2539C14.3025 16.2539 14.7389 16.3619 15.1301 16.5488L19.84 11.8398L21.2541 13.2539L20.0041 14.5039L21.2541 15.7539L19.84 17.168L18.59 15.918L16.5441 17.9629C16.7314 18.3544 16.84 18.791 16.84 19.2539Z" fill="currentColor" />
    <path d="M2.75 19.5C2.75 15.2198 6.21979 11.75 10.5 11.75C12.6174 11.75 14.5364 12.5991 15.9352 13.9754L14.7959 15.1143C14.4897 15.0428 14.1698 15.0039 13.8398 15.0039C11.4926 15.0039 9.58984 16.9067 9.58984 19.2539C9.58984 19.5969 9.63049 19.9305 9.70722 20.25H2.75V19.5Z" fill="currentColor" />
    <path d="M5.25 7C5.25 4.1005 7.6005 1.75 10.5 1.75C13.3995 1.75 15.75 4.1005 15.75 7C15.75 9.8995 13.3995 12.25 10.5 12.25C7.6005 12.25 5.25 9.8995 5.25 7Z" fill="currentColor" />
</svg>