<svg xmlns="http://www.w3.org/2000/svg" width="24" height="24" viewBox="0 0 24 24" fill="none">
    <path d="M14.3398 19.254C14.3398 18.7017 13.8921 18.254 13.3398 18.254C12.7876 18.254 12.3398 18.7017 12.3398 19.254C12.3398 19.8063 12.7876 20.254 13.3398 20.254C13.8921 20.254 14.3398 19.8063 14.3398 19.254ZM16.3398 19.254C16.3398 20.9109 14.9967 22.254 13.3398 22.254C11.683 22.254 10.3398 20.9109 10.3398 19.254C10.3398 17.5972 11.683 16.254 13.3398 16.254C13.8023 16.254 14.2387 16.3621 14.6299 16.549L19.3398 11.84L20.7539 13.254L19.5039 14.504L20.7539 15.754L19.3398 17.1681L18.0898 15.9181L16.0439 17.963C16.2312 18.3545 16.3398 18.7911 16.3398 19.254Z" fill="currentColor" />
    <path d="M3.5429 13.9054C5.28948 12.5627 7.77722 11.75 10.5 11.75C12.6555 11.75 14.6636 12.2593 16.2734 13.1377L14.2959 15.1143C13.9897 15.0428 13.6698 15.0039 13.3398 15.0039C10.9939 15.0039 9.09196 16.9046 9.08985 19.25H3.25V14.1306L3.5429 13.9054Z" fill="currentColor" />
    <path d="M6.25 6C6.25 3.65279 8.15279 1.75 10.5 1.75C12.8472 1.75 14.75 3.65279 14.75 6C14.75 8.34721 12.8472 10.25 10.5 10.25C8.15279 10.25 6.25 8.34721 6.25 6Z" fill="currentColor" />
</svg>