<svg xmlns="http://www.w3.org/2000/svg" width="24" height="24" viewBox="0 0 24 24" fill="none">
    <path d="M18.6338 17.5C18.6338 17.2274 18.5616 16.9742 18.4365 16.7559C18.1764 16.3021 17.6898 16 17.1338 16C16.5778 16 16.0912 16.3021 15.8311 16.7559C15.706 16.9742 15.6338 17.2274 15.6338 17.5C15.6338 17.7723 15.7053 18.025 15.8301 18.2432C16.0901 18.6973 16.5775 19 17.1338 19C17.6901 19 18.1775 18.6973 18.4375 18.2432C18.5623 18.025 18.6338 17.7723 18.6338 17.5ZM20.6338 17.5C20.6338 17.7731 20.6006 18.039 20.541 18.2949L21.998 19.1279L21.0059 20.8643L19.5479 20.0312C19.1532 20.4077 18.671 20.6925 18.1338 20.8525V22.5H16.1338V20.8525C15.5963 20.6924 15.1135 20.4079 14.7188 20.0312L13.2617 20.8643L12.2695 19.1279L13.1377 18.6318L13.7256 18.2949C13.6661 18.0391 13.6338 17.773 13.6338 17.5C13.6338 17.2266 13.6659 16.9602 13.7256 16.7041L12.2695 15.8721L13.2617 14.1357L14.1299 14.6318L14.7197 14.9678C15.1144 14.5915 15.5967 14.3065 16.1338 14.1465V12.5H18.1338V14.1465C18.6707 14.3064 19.1523 14.5917 19.5469 14.9678L20.1377 14.6318L21.0059 14.1357L21.998 15.8721L20.541 16.7041C20.6007 16.9603 20.6338 17.2266 20.6338 17.5Z" fill="currentColor" />
    <path d="M2.2929 13.6554C4.03948 12.3127 6.52722 11.5 9.25 11.5C11.3436 11.5 13.2982 11.9805 14.8838 12.813V13.3193C14.7941 13.3677 14.7062 13.4188 14.6201 13.4727L12.7969 12.4307L10.5645 16.3369L12.3867 17.3779L12.3856 17.4152C12.3847 17.4434 12.3838 17.4717 12.3838 17.5C12.3838 17.5279 12.3847 17.5557 12.3856 17.5835L12.3867 17.6211L10.5645 18.6631L10.757 19H2V13.8806L2.2929 13.6554Z" fill="currentColor" />
    <path d="M5 5.75C5 3.40279 6.90279 1.5 9.25 1.5C11.5972 1.5 13.5 3.40279 13.5 5.75C13.5 8.09721 11.5972 10 9.25 10C6.90279 10 5 8.09721 5 5.75Z" fill="currentColor" />
</svg>