<svg xmlns="http://www.w3.org/2000/svg" width="24" height="24" viewBox="0 0 24 24" fill="none">
    <path fill-rule="evenodd" clip-rule="evenodd" d="M15 1.24988C15.1151 1.2499 15.2299 1.27654 15.335 1.32898L18.9521 3.13464L18.6875 3.77917C18.397 4.48629 18.2884 5.79163 18.5625 7.14539C18.8354 8.49309 19.4514 9.71211 20.4248 10.3817L20.75 10.6053V19.9999C20.75 20.3066 20.5631 20.5823 20.2783 20.6962L15.2783 22.6962C14.9491 22.8278 14.5727 22.7109 14.376 22.4159L12.7617 19.995L16.4785 13.5507L12.8291 5.15906L13.8623 2.74988H10.1445L14.7979 13.4491L9.64648 22.3798C9.45862 22.6991 9.06572 22.8337 8.72168 22.6962L3.72168 20.6962C3.43694 20.5823 3.25 20.3066 3.25 19.9999V10.6053L3.5752 10.3817C4.54861 9.71211 5.16465 8.49309 5.4375 7.14539C5.71155 5.79163 5.60299 4.48629 5.3125 3.77917L5.04785 3.13464L8.66504 1.32898C8.77012 1.27653 8.88489 1.24988 9 1.24988H15ZM11 12.4999C10.4477 12.4999 10 12.9476 10 13.4999C10 14.0522 10.4477 14.4999 11 14.4999C11.5523 14.4999 12 14.0522 12 13.4999C12 12.9476 11.5523 12.4999 11 12.4999Z" fill="currentColor" />
</svg>