<svg xmlns="http://www.w3.org/2000/svg" width="24" height="24" viewBox="0 0 24 24" fill="none">
    <path d="M12 1.75C15.0164 1.75 17.4996 2.11595 19.2158 3.47461C20.9794 4.87091 21.75 7.1554 21.75 10.5C21.75 13.8446 20.9794 16.1291 19.2158 17.5254C17.4996 18.8841 15.0164 19.25 12 19.25C11.7565 19.25 11.5172 19.2463 11.2822 19.2412L6.75 22.25V18.5762C5.37047 18.0961 4.25982 17.3085 3.48828 16.0713C2.63316 14.6999 2.25 12.8656 2.25 10.5C2.25 7.1554 3.02063 4.87091 4.78418 3.47461C6.50038 2.11595 8.98359 1.75 12 1.75ZM7.72559 6.57617C7.31493 6.98686 7.12663 7.61143 7.33105 8.21191C7.48523 8.66473 7.75534 9.35908 8.17578 10.1309C8.59723 10.9044 9.17624 11.769 9.95312 12.5459C10.73 13.3228 11.5946 13.9018 12.3682 14.3232C13.1399 14.7437 13.8343 15.0138 14.2871 15.168C14.8876 15.3724 15.5122 15.1841 15.9229 14.7734L17.1748 13.5205L14.7803 11.9238C14.331 11.6247 13.7424 11.6618 13.335 12.0029L13.2559 12.0752L12.6035 12.7266C12.0652 12.3946 11.5133 11.985 11.0137 11.4854C10.5137 10.9853 10.1036 10.4332 9.77148 9.89453L10.4238 9.24316C10.8309 8.83588 10.8943 8.19801 10.5752 7.71875L8.97852 5.32422L7.72559 6.57617ZM13 10H14.75C14.75 9.0335 13.9665 8.25 13 8.25V10ZM13 6.75C14.7949 6.75 16.25 8.20507 16.25 10H17.75C17.75 7.37665 15.6234 5.25 13 5.25V6.75Z" fill="currentColor" />
</svg>