<svg xmlns="http://www.w3.org/2000/svg" width="24" height="24" viewBox="0 0 24 24" fill="none">
    <path d="M21.75 22.75H2.25V1.25H21.75V22.75ZM8.5 15.0859L7 13.5859L5.58594 15L7.08594 16.5L5.58594 18L7 19.4141L8.5 17.9141L10 19.4141L11.4141 18L9.91406 16.5L11.4141 15L10 13.5859L8.5 15.0859ZM15 17C14.4477 17 14 17.4477 14 18C14 18.5523 14.4477 19 15 19C15.5523 19 16 18.5523 16 18C16 17.4477 15.5523 17 15 17ZM17 14C16.4477 14 16 14.4477 16 15C16 15.5523 16.4477 16 17 16C17.5523 16 18 15.5523 18 15C18 14.4477 17.5523 14 17 14ZM4.19922 10.249H19.7988V3.20312H4.19922V10.249Z" fill="currentColor" />
</svg>