<svg xmlns="http://www.w3.org/2000/svg" width="24" height="24" viewBox="0 0 24 24" fill="none">
    <path d="M22.75 20.75H1.25V8.75H22.75V20.75ZM8 12C6.48122 12 5.25 13.2312 5.25 14.75C5.25 16.2688 6.48122 17.5 8 17.5H16C17.5188 17.5 18.75 16.2688 18.75 14.75C18.75 13.2312 17.5188 12 16 12H8ZM8 13.5C8.69036 13.5 9.25 14.0596 9.25 14.75C9.25 15.4404 8.69036 16 8 16C7.30964 16 6.75 15.4404 6.75 14.75C6.75 14.0596 7.30964 13.5 8 13.5ZM13.5527 13.5C13.3606 13.8753 13.25 14.2994 13.25 14.75C13.25 15.2006 13.3606 15.6247 13.5527 16H10.4473C10.6394 15.6247 10.75 15.2006 10.75 14.75C10.75 14.2994 10.6394 13.8753 10.4473 13.5H13.5527ZM16 13.5C16.6904 13.5 17.25 14.0596 17.25 14.75C17.25 15.4404 16.6904 16 16 16C15.3096 16 14.75 15.4404 14.75 14.75C14.75 14.0596 15.3096 13.5 16 13.5ZM22.75 7.25H1.25V3.25H22.75V7.25Z" fill="currentColor" />
</svg>