<svg xmlns="http://www.w3.org/2000/svg" width="24" height="24" viewBox="0 0 24 24" fill="none">
    <path fill-rule="evenodd" clip-rule="evenodd" d="M16.7481 12.0011C16.7481 11.0863 16.4471 10.2551 15.9531 9.6077L17.5432 8.39453C18.3 9.38646 18.7481 10.6428 18.7481 12.0011C18.7481 13.3594 18.3 14.6158 17.5432 15.6077L15.9531 14.3945C16.4471 13.7471 16.7481 12.916 16.7481 12.0011Z" fill="currentColor" />
    <path fill-rule="evenodd" clip-rule="evenodd" d="M20.7493 11.9995C20.7493 10.3785 20.1101 8.87447 19.0117 7.6748L20.4868 6.32422C21.89 7.8568 22.7493 9.83197 22.7493 11.9995C22.7493 14.167 21.89 16.1422 20.4868 17.6748L19.0117 16.3242C20.1101 15.1245 20.7493 13.6205 20.7493 11.9995Z" fill="currentColor" />
    <path d="M14.3587 3.34171C14.5995 3.47317 14.7493 3.72564 14.7493 4V20C14.7493 20.2744 14.5995 20.5268 14.3587 20.6583C14.1179 20.7898 13.8245 20.7792 13.5937 20.6309L6.77971 16.25H2C1.58579 16.25 1.25 15.9142 1.25 15.5V8.5C1.25 8.08579 1.58579 7.75 2 7.75H6.77971L13.5937 3.36914C13.8245 3.22076 14.1179 3.21024 14.3587 3.34171Z" fill="currentColor" />
</svg>