<svg xmlns="http://www.w3.org/2000/svg" width="24" height="24" viewBox="0 0 24 24" fill="none">
    <path d="M13.5 16V19.5C13.5 19.7761 13.7239 20 14 20H17V22H7V20H10C10.2761 20 10.5 19.7761 10.5 19.5V16H13.5Z" fill="currentColor" />
    <path fill-rule="evenodd" clip-rule="evenodd" d="M23 18V2H1V18H23ZM9.75 7.5C9.75 8.74264 8.74264 9.75 7.5 9.75C6.25736 9.75 5.25 8.74264 5.25 7.5C5.25 6.25736 6.25736 5.25 7.5 5.25C8.74264 5.25 9.75 6.25736 9.75 7.5ZM16.0684 8.94727L8.23252 16H21V12.2347L16.0684 8.94727Z" fill="currentColor" />
</svg>