<svg xmlns="http://www.w3.org/2000/svg" width="24" height="24" viewBox="0 0 24 24" fill="none">
    <path d="M22.418 21L21.0039 22.4141L7.58984 9L9.00391 7.58594L22.418 21Z" fill="currentColor" />
    <path d="M8.00391 2H10.0039V6H8.00391V2Z" fill="currentColor" />
    <path d="M8.00391 12H10.0039V16H8.00391V12Z" fill="currentColor" />
    <path d="M16 8.00586V10.0059H12V8.00586H16Z" fill="currentColor" />
    <path d="M6 8.00586V10.0059H2V8.00586H6Z" fill="currentColor" />
    <path d="M14.418 5L11.8242 7.59375L10.4102 6.17969L13.0039 3.58594L14.418 5Z" fill="currentColor" />
    <path d="M7.58203 11.835L5.71094 13.707L5.00488 14.415L3.58984 13.001L6.16699 10.4219L7.58203 11.835Z" fill="currentColor" />
    <path d="M7.58203 6.18945L6.1582 7.59375L3.58984 4.99023L5.01367 3.58594L7.58203 6.18945Z" fill="currentColor" />
</svg>