<svg xmlns="http://www.w3.org/2000/svg" width="24" height="24" viewBox="0 0 24 24" fill="none">
    <path d="M17.9521 12.0019C18.8516 12.0414 19.5632 12.6448 19.9922 13.0263C20.2876 13.289 20.4056 13.4108 20.6504 13.624C20.8536 13.801 21.0002 13.9073 21.1113 13.9648C21.1372 13.9782 21.1578 13.9839 21.1719 13.9892C21.1934 13.9738 21.2272 13.9475 21.2715 13.9003L21.9561 13.1709L23.4141 14.539L22.7305 15.2685C22.3874 15.6341 21.9663 15.9046 21.4619 15.9794C20.9639 16.0533 20.5275 15.9151 20.1914 15.7412C19.8636 15.5715 19.5733 15.3377 19.3369 15.1318C19.1421 14.9622 18.8168 14.6581 18.6621 14.5205C18.1903 14.1008 17.9691 14.0045 17.8643 14C17.8522 13.9994 17.8038 13.9952 17.6934 14.0712C17.5649 14.1598 17.366 14.3506 17.1113 14.7402L17.1055 14.749C16.8143 15.1849 16.45 15.554 15.9775 15.7509C15.4795 15.9585 14.9954 15.92 14.5898 15.7832C14.2105 15.6551 13.8784 15.435 13.6172 15.2402C13.3606 15.0488 13.0815 14.8099 12.8701 14.6376C12.3546 14.2176 12.084 14.075 11.9102 14.0625C11.8927 14.0612 11.6216 14.0101 11.1074 14.7851L11.1064 14.7841C10.8328 15.2018 10.4735 15.5558 9.99316 15.7304C9.5012 15.9092 9.03237 15.8463 8.65625 15.7167C8.29572 15.5925 7.96881 15.3901 7.70312 15.207C7.4463 15.03 7.15048 14.802 6.93164 14.6416C6.40012 14.2519 6.09104 14.0977 5.87891 14.0849C5.82114 14.0814 5.56035 14.0534 5.11133 14.7402L5.10547 14.749C4.66863 15.403 4.00613 15.9814 3.13086 15.9814C2.25155 15.9812 1.59249 15.3979 1.16309 14.7392L0.617188 13.9013L2.29297 12.8095L2.83887 13.6474C2.98172 13.8665 3.08486 13.944 3.13184 13.9707C3.17976 13.9448 3.28923 13.867 3.44238 13.6376C4.11974 12.6053 4.97209 12.0259 6 12.0878C6.87534 12.1407 7.62713 12.6712 8.11426 13.0283C8.4046 13.2411 8.60804 13.4021 8.83789 13.5605C9.05894 13.7128 9.20735 13.7916 9.30762 13.8261C9.31281 13.8279 9.31786 13.8286 9.32227 13.83C9.34723 13.8051 9.38709 13.7613 9.43652 13.6855L9.44043 13.6796C10.1412 12.6234 11.0003 11.993 12.0508 12.0673C12.945 12.1307 13.6813 12.7181 14.1338 13.0869C14.4065 13.3091 14.6019 13.4799 14.8135 13.6376C15.0203 13.7918 15.1508 13.8611 15.2295 13.8876C15.2654 13.8595 15.3396 13.7915 15.4424 13.6376C16.1079 12.6228 16.9246 11.9569 17.9521 12.0019Z" fill="currentColor" />
    <path d="M17.9521 18.0019C18.8516 18.0414 19.5632 18.6448 19.9922 19.0263C20.2876 19.289 20.4056 19.4108 20.6504 19.624C20.8536 19.801 21.0002 19.9073 21.1113 19.9648C21.1372 19.9782 21.1578 19.9839 21.1719 19.9892C21.1934 19.9738 21.2272 19.9475 21.2715 19.9003L21.9561 19.1709L23.4141 20.539L22.7305 21.2685C22.3874 21.6341 21.9663 21.9046 21.4619 21.9794C20.9639 22.0533 20.5275 21.9151 20.1914 21.7412C19.8636 21.5715 19.5733 21.3377 19.3369 21.1318C19.1421 20.9622 18.8168 20.6581 18.6621 20.5205C18.1903 20.1008 17.9691 20.0045 17.8643 20C17.8522 19.9994 17.8038 19.9952 17.6934 20.0712C17.5649 20.1598 17.366 20.3506 17.1113 20.7402L17.1055 20.749C16.8143 21.1849 16.45 21.554 15.9775 21.7509C15.4795 21.9585 14.9954 21.92 14.5898 21.7832C14.2105 21.6551 13.8784 21.435 13.6172 21.2402C13.3606 21.0488 13.0815 20.8099 12.8701 20.6376C12.3546 20.2176 12.084 20.075 11.9102 20.0625C11.8927 20.0612 11.6216 20.0101 11.1074 20.7851L11.1064 20.7841C10.8328 21.2018 10.4735 21.5558 9.99316 21.7304C9.5012 21.9092 9.03237 21.8463 8.65625 21.7167C8.29572 21.5925 7.96881 21.3901 7.70312 21.207C7.4463 21.03 7.15048 20.802 6.93164 20.6416C6.40012 20.2519 6.09104 20.0977 5.87891 20.0849C5.82114 20.0814 5.56035 20.0534 5.11133 20.7402L5.10547 20.749C4.66863 21.403 4.00613 21.9814 3.13086 21.9814C2.25155 21.9812 1.59249 21.3979 1.16309 20.7392L0.617188 19.9013L2.29297 18.8095L2.83887 19.6474C2.98172 19.8665 3.08486 19.944 3.13184 19.9707C3.17976 19.9448 3.28923 19.867 3.44238 19.6376C4.11974 18.6053 4.97209 18.0259 6 18.0878C6.87534 18.1407 7.62713 18.6712 8.11426 19.0283C8.4046 19.2411 8.60804 19.4021 8.83789 19.5605C9.05894 19.7128 9.20735 19.7916 9.30762 19.8261C9.31281 19.8279 9.31786 19.8286 9.32227 19.83C9.34723 19.8051 9.38709 19.7613 9.43652 19.6855L9.44043 19.6796C10.1412 18.6234 11.0003 17.993 12.0508 18.0673C12.945 18.1307 13.6813 18.7181 14.1338 19.0869C14.4065 19.3091 14.6019 19.4799 14.8135 19.6376C15.0203 19.7918 15.1508 19.8611 15.2295 19.8876C15.2654 19.8595 15.3396 19.7915 15.4424 19.6376C16.1079 18.6228 16.9246 17.9569 17.9521 18.0019Z" fill="currentColor" />
    <path d="M11 5.41406L9 7.41406L7.58594 6L12 1.58594L16.4141 6L15 7.41406L13 5.41406V10H11V5.41406Z" fill="currentColor" />
</svg>