<svg xmlns="http://www.w3.org/2000/svg" width="24" height="24" viewBox="0 0 24 24" fill="none">
    <path d="M9.15088 22C10.4848 22 11.6134 21.1288 12.0034 19.9248C12.38 19.9729 12.7632 20 13.1519 20C13.54 20 13.9221 19.9725 14.2974 19.9248C14.6876 21.1285 15.8172 21.999 17.1509 21.999C18.8077 21.999 20.1509 20.6559 20.1509 18.999C20.1509 18.3564 19.9467 17.7614 19.603 17.2734C21.1798 15.6523 22.1519 13.44 22.1519 11C22.1519 6.02954 18.1223 2.00016 13.1519 2C8.1814 2 4.15186 6.02836 4.15186 10.999C4.15186 11.8707 3.95298 13.1815 2.70264 13.8066L1.84814 14.2344L2.23584 15.1074C3.10291 17.0583 4.53437 18.2761 6.15088 19.0244C6.164 20.67 7.50217 22 9.15088 22ZM9.89893 10.002C9.34664 10.002 8.89893 9.55424 8.89893 9.00195C8.89893 8.44967 9.34664 8.00195 9.89893 8.00195L10.0015 8.00684C10.5056 8.05817 10.8989 8.48428 10.8989 9.00195C10.8989 9.55424 10.4512 10.002 9.89893 10.002ZM16.3989 10.002C15.8466 10.002 15.3989 9.55424 15.3989 9.00195C15.3989 8.44967 15.8466 8.00195 16.3989 8.00195C16.9512 8.00195 17.3989 8.44967 17.3989 9.00195C17.3989 9.55424 16.9512 10.002 16.3989 10.002ZM13.1489 15.501C11.562 15.501 10.1168 14.7545 9.31689 13.5566L10.981 12.4453C11.3787 13.0408 12.172 13.501 13.1489 13.501C14.1259 13.501 14.9192 13.0408 15.3169 12.4453L16.981 13.5566C16.181 14.7545 14.7358 15.501 13.1489 15.501ZM9.15088 20C8.59859 20 8.15088 19.5523 8.15088 19C8.15088 18.8995 8.16531 18.8024 8.19287 18.7109L8.19385 18.71C8.26951 18.4583 8.44229 18.2499 8.66748 18.125C8.68059 18.1177 8.69406 18.1112 8.70752 18.1045C8.83402 18.0416 8.97502 18.006 9.12451 18.002C9.13329 18.0017 9.14205 18 9.15088 18C9.18483 18 9.21839 18.0016 9.25146 18.0049C9.25376 18.0051 9.25601 18.0056 9.2583 18.0059C9.35384 18.0161 9.4452 18.04 9.53076 18.0752C9.53873 18.0785 9.54633 18.0825 9.5542 18.0859C9.90535 18.2411 10.1509 18.5914 10.1509 19C10.1509 19.5523 9.70316 20 9.15088 20ZM17.1509 19.999C16.7609 19.999 16.4232 19.7758 16.2583 19.4502C16.8905 19.2177 17.488 18.9139 18.0444 18.5527C18.1119 18.6873 18.1509 18.8382 18.1509 18.999C18.1509 19.5513 17.7032 19.999 17.1509 19.999Z" fill="currentColor" />
</svg>