<svg xmlns="http://www.w3.org/2000/svg" width="24" height="24" viewBox="0 0 24 24" fill="none">
    <path d="M6.42188 13.3896L5.54688 13.875C4.62229 14.3882 4.00008 15.3721 4 16.5C4 18.1569 5.34315 19.5 7 19.5C8.65685 19.5 10 18.1569 10 16.5V15.5H15.5L17.9609 17.9609C17.6849 18.1428 17.3553 18.25 17 18.25C16.4055 18.25 15.8807 17.9532 15.5645 17.5H11.9004C11.4371 19.7822 9.41896 21.5 7 21.5C4.23858 21.5 2 19.2614 2 16.5C2.00008 14.6163 3.04266 12.9775 4.57715 12.126L5.45117 11.6406L6.42188 13.3896Z" fill="currentColor" />
    <path d="M15.126 18.8428C15.6397 19.2546 16.2897 19.4999 17 19.5C17.7009 19.5 18.3438 19.2573 18.8545 18.8545L20.2754 20.2754C19.3979 21.0374 18.2534 21.5 17 21.5C15.8187 21.4999 14.7307 21.0893 13.875 20.4033L13.0947 19.7783L14.3457 18.2178L15.126 18.8428Z" fill="currentColor" />
    <path d="M11.1279 11.1279L8.57031 15.7314C8.68419 15.9637 8.75 16.2239 8.75 16.5C8.75 17.4665 7.9665 18.25 7 18.25C6.0335 18.25 5.25 17.4665 5.25 16.5C5.25 15.5931 5.93971 14.8464 6.82324 14.7578L8.74707 11.2969C7.67889 10.3807 7 9.02 7 7.5C7 7.33893 7.00757 7.17963 7.02246 7.02246L11.1279 11.1279Z" fill="currentColor" />
    <path d="M12 5.75C12.9665 5.75 13.75 6.5335 13.75 7.5C13.75 7.77578 13.6839 8.03555 13.5703 8.26758L15.4951 11.7314C15.9707 11.5815 16.4764 11.5 17 11.5C19.7613 11.5 21.9998 13.7388 22 16.5C22 17.088 21.8973 17.6518 21.7109 18.1758L19.999 16.4639C19.9796 14.8356 18.6636 13.5187 17.0352 13.5L10.3779 6.84277C10.6378 6.20201 11.266 5.75 12 5.75Z" fill="currentColor" />
    <path d="M12 2.5C14.7614 2.5 17 4.73858 17 7.5V8.5H15V7.5C15 5.84315 13.6569 4.5 12 4.5C10.9243 4.50015 9.98362 5.06825 9.4541 5.91895L8.01465 4.47949C8.92779 3.27665 10.3734 2.50014 12 2.5Z" fill="currentColor" />
    <path d="M21.75 20.3359L20.3359 21.75L2.25 3.66406L3.66406 2.25L21.75 20.3359Z" fill="currentColor" />
</svg>