<svg xmlns="http://www.w3.org/2000/svg" width="24" height="24" viewBox="0 0 24 24" fill="none">
    <path d="M6.0498 16.8687C6.09709 16.8596 6.16058 16.8638 6.23242 16.894C6.86725 17.1614 7.51382 17.3619 8.19434 17.4888C8.064 16.9835 7.99219 16.4509 7.99219 15.8931C7.99219 11.6944 11.9389 8.89307 15.9922 8.89307C16.9213 8.89307 17.8442 9.04235 18.7158 9.31982C18.3828 5.23013 14.5182 2.14307 9.99219 2.14307C5.2569 2.14307 1.24219 5.52192 1.24219 9.89307C1.24219 11.1414 1.57535 12.3195 2.16309 13.3599C2.22295 13.4658 2.22626 13.5616 2.20703 13.6245L0.910156 17.8677L6.0498 16.8687ZM7.24219 7.89307C6.6899 7.89307 6.24219 7.44535 6.24219 6.89307C6.24219 6.34079 6.6899 5.89307 7.24219 5.89307C7.79447 5.89307 8.24219 6.34078 8.24219 6.89307C8.24219 7.44535 7.79447 7.89307 7.24219 7.89307ZM12.7422 7.89307C12.1899 7.89307 11.7422 7.44535 11.7422 6.89307C11.7422 6.34079 12.1899 5.89307 12.7422 5.89307C13.2945 5.89307 13.7422 6.34078 13.7422 6.89307C13.7422 7.44535 13.2945 7.89307 12.7422 7.89307Z" fill="currentColor" />
    <path d="M22.0547 18.6323C22.0348 18.5703 22.0348 18.4629 22.1064 18.3325C22.512 17.595 22.7422 16.7671 22.7422 15.8911C22.7422 12.5932 19.5863 10.1411 15.9922 10.1411C12.3981 10.1411 9.24219 12.5932 9.24219 15.8911C9.24219 19.189 12.3981 21.6411 15.9922 21.6411C16.9917 21.6411 17.9443 21.456 18.8027 21.1216C18.8784 21.0921 18.9412 21.0891 18.9854 21.0972L23.0898 21.8569L22.0547 18.6323ZM13.7422 15.8911C13.1899 15.8911 12.7422 15.4434 12.7422 14.8911C12.7422 14.3388 13.1899 13.8911 13.7422 13.8911C14.2945 13.8911 14.7422 14.3388 14.7422 14.8911C14.7422 15.4434 14.2945 15.8911 13.7422 15.8911ZM18.2422 15.8911C17.6899 15.8911 17.2422 15.4434 17.2422 14.8911C17.2422 14.3388 17.6899 13.8911 18.2422 13.8911C18.7945 13.8911 19.2422 14.3388 19.2422 14.8911C19.2422 15.4434 18.7945 15.8911 18.2422 15.8911Z" fill="currentColor" />
</svg>