<svg xmlns="http://www.w3.org/2000/svg" width="24" height="24" viewBox="0 0 24 24" fill="none">
    <path d="M20.8486 19.3145C20.0548 19.9142 19.0693 20.2727 17.9986 20.2727C16.2394 20.2727 14.7049 19.3112 13.885 17.8873L13.4091 17.0605L15.054 16.105L15.529 16.9309C16.0232 17.7893 16.9449 18.3636 17.9986 18.3636C18.5802 18.3636 19.1206 18.1874 19.572 17.8864H17.9986V15.9773H22.7486V20.75H20.8486V19.3145ZM17.9986 10.7273C19.7578 10.7273 21.2923 11.6888 22.1122 13.1127L22.5881 13.9395L20.9432 14.895L20.4682 14.0691C19.974 13.2107 19.0523 12.6364 17.9986 12.6364C17.417 12.6364 16.8766 12.8126 16.4252 13.1136H17.9986V15.0227H13.2486V10.25H15.1486V11.6846C15.9423 11.0851 16.9281 10.7273 17.9986 10.7273Z" fill="currentColor" />
    <path d="M11.3375 14.664L10.4497 15.046C10.0216 15.2304 9.62648 15.4915 9.28658 15.8203L8.59474 16.49L7.23756 15.1235L7.9294 14.4547C8.43922 13.9615 9.0315 13.5694 9.67367 13.2928L10.5624 12.9108L11.3375 14.664ZM11.205 9.92744L10.2557 10.1189C8.62109 10.4482 7.10345 11.237 5.89457 12.4064L5.20273 13.0752L3.84555 11.7096L4.53739 11.0399C6.01491 9.61059 7.87001 8.64775 9.86769 8.24524L10.817 8.05376L11.205 9.92744ZM12 3.25C15.8142 3.25 19.4949 4.6373 22.3379 7.14681L23.06 7.78476L21.7681 9.2101L21.045 8.57309C18.5575 6.37727 15.3374 5.16291 12 5.16291C8.66257 5.16291 5.44253 6.37727 2.95496 8.57309L2.23188 9.2101L0.940002 7.78476L1.66213 7.14681C4.50507 4.6373 8.18579 3.25 12 3.25Z" fill="currentColor" />
</svg>