<svg xmlns="http://www.w3.org/2000/svg" width="24" height="24" viewBox="0 0 24 24" fill="none">
    <path d="M12 13.5C13.5705 13.5 15.0786 14.1155 16.2002 15.2148L16.9141 15.915L15.5137 17.3438L14.7998 16.6436C14.0521 15.9107 13.047 15.5 12 15.5C10.953 15.5 9.94791 15.9107 9.2002 16.6436L8.48633 17.3438L7.08594 15.915L7.7998 15.2148C8.92137 14.1155 10.4295 13.5 12 13.5Z" fill="currentColor" />
    <path d="M12 18.25C12.5523 18.25 13 18.6977 13 19.25C13 19.8023 12.5523 20.25 12 20.25C11.4477 20.25 11 19.8023 11 19.25C11 18.6977 11.4477 18.25 12 18.25Z" fill="currentColor" />
</svg>