<svg xmlns="http://www.w3.org/2000/svg" width="24" height="24" viewBox="0 0 24 24" fill="none">
    <path d="M12.1239 18.0661C12.7394 18.1284 13.2203 18.6478 13.2203 19.2797C13.2203 19.9535 12.6737 20.4998 12 20.5C11.3682 20.5 10.848 20.0199 10.7854 19.4046L10.7797 19.2797L10.7854 19.1548C10.848 18.5396 11.3682 18.0594 12 18.0594L12.1239 18.0661ZM11.999 13.6655C13.5322 13.6655 15.0045 14.2673 16.0994 15.3405L16.7963 16.0231L15.4292 17.4178L14.7323 16.7343C14.0023 16.0189 13.0211 15.6179 11.999 15.6179C10.977 15.6179 9.99572 16.0189 9.2658 16.7343L8.56891 17.4178L7.20182 16.0231L7.89871 15.3405C8.99361 14.2673 10.4659 13.6655 11.999 13.6655ZM12.9753 8.78533V10.7378H11.999C9.69927 10.7378 7.49138 11.64 5.84902 13.2498L5.15213 13.9324L3.78504 12.5386L4.48193 11.8551C6.48926 9.88752 9.18822 8.78533 11.999 8.78533H12.9753ZM12.9753 3.90422V5.85666H11.999C8.63723 5.85666 5.39368 7.09611 2.88794 9.33732L2.15959 9.98749L0.858276 8.53269L1.58568 7.88156C4.44938 5.32019 8.15697 3.90422 11.999 3.90422H12.9753Z" fill="currentColor" />
    <path d="M23.1417 4.88044L16.8801 11.142L13.5473 7.80911L14.9277 6.42867L16.8801 8.38111L21.7613 3.5L23.1417 4.88044Z" fill="currentColor" />
</svg>