<svg xmlns="http://www.w3.org/2000/svg" width="24" height="24" viewBox="0 0 24 24" fill="none">
    <path d="M12 1.25C17.9371 1.25 22.75 6.06294 22.75 12C22.75 17.9371 17.9371 22.75 12 22.75C6.06294 22.75 1.25 17.9371 1.25 12C1.25 6.06294 6.06294 1.25 12 1.25ZM11.999 15C11.4467 15 10.999 15.4477 10.999 16C10.999 16.5523 11.4467 17 11.999 17H12.0088C12.5611 17 13.0088 16.5523 13.0088 16C13.0088 15.4477 12.5611 15 12.0088 15H11.999ZM12.0029 10.9922C10.867 10.9899 9.76418 11.3748 8.87598 12.083L8.09375 12.7061L9.34082 14.2695L10.1221 13.6465C10.655 13.2215 11.3174 12.9908 11.999 12.9922C12.6805 12.9936 13.3409 13.2273 13.8721 13.6543L14.6514 14.2803L15.9053 12.7217L15.126 12.0957C14.2406 11.3839 13.1389 10.9945 12.0029 10.9922ZM11.999 7C9.95417 7 7.97028 7.69658 6.37402 8.97461L5.59375 9.59961L6.84375 11.1602L7.62402 10.5352C8.86552 9.54125 10.4087 9 11.999 9C13.5894 9 15.1325 9.54125 16.374 10.5352L17.1543 11.1602L18.4043 9.59961L17.624 8.97461C16.0278 7.69658 14.0439 7 11.999 7Z" fill="currentColor" />
</svg>