<svg xmlns="http://www.w3.org/2000/svg" width="24" height="24" viewBox="0 0 24 24" fill="none">
    <path d="M12.1226 17.9984C12.7312 18.06 13.2066 18.5735 13.2066 19.1984C13.2066 19.8647 12.6662 20.4048 12 20.405C11.3753 20.405 10.8609 19.9303 10.799 19.3219L10.7934 19.1984L10.799 19.0749C10.8609 18.4665 11.3753 17.9918 12 17.9918L12.1226 17.9984ZM11.9991 13.6469C13.5151 13.6469 14.9709 14.242 16.0536 15.3032L16.7427 15.9782L15.3909 17.3573L14.7017 16.6814C13.98 15.9741 13.0097 15.5775 11.9991 15.5775C10.9885 15.5775 10.0181 15.9741 9.29638 16.6814L8.60727 17.3573L7.25546 15.9782L7.94456 15.3032C9.02723 14.242 10.483 13.6469 11.9991 13.6469ZM12.9644 8.82129V10.7519H11.9991C9.72501 10.7519 7.54179 11.6441 5.91779 13.2359L5.22868 13.9109L3.87687 12.5326L4.56597 11.8567C6.55086 9.91116 9.21966 8.82129 11.9991 8.82129H12.9644ZM12.9644 3.99473V5.92535H11.9991C8.67483 5.92535 5.46753 7.15095 2.9898 9.36711L2.26959 10.01L0.982819 8.57148L1.70209 7.92762C4.53378 5.39488 8.19994 3.99473 11.9991 3.99473H12.9644Z" fill="currentColor" />
    <path d="M23.0172 4.96004L20.1213 7.85598L23.0172 10.7519L21.6522 12.1169L18.7562 9.22099L15.8603 12.1169L14.4953 10.7519L17.3912 7.85598L14.4953 4.96004L15.8603 3.59503L18.7562 6.49097L21.6522 3.59503L23.0172 4.96004Z" fill="currentColor" />
</svg>