<svg xmlns="http://www.w3.org/2000/svg" width="24" height="24" viewBox="0 0 24 24" fill="none">
    <path d="M8 18V17H10V18C10 19.1046 10.8954 20 12 20C13.1046 20 14 19.1046 14 18C14 16.8954 13.1046 16 12 16H2V14H12C14.2091 14 16 15.7909 16 18C16 20.2091 14.2091 22 12 22C9.79086 22 8 20.2091 8 18Z" fill="currentColor" />
    <path d="M20 9C20 7.89543 19.1046 7 18 7C16.8954 7 16 7.89543 16 9V10H14V9C14 6.79086 15.7909 5 18 5C20.2091 5 22 6.79086 22 9C22 11.2091 20.2091 13 18 13H2V11H18C19.1046 11 20 10.1046 20 9Z" fill="currentColor" />
    <path d="M9 2H11V9H9V2Z" fill="currentColor" />
    <path d="M13.9141 6.5L10 10.4141L6.08594 6.5L7.5 5.08594L10 7.58594L12.5 5.08594L13.9141 6.5Z" fill="currentColor" />
</svg>