<svg xmlns="http://www.w3.org/2000/svg" width="24" height="24" viewBox="0 0 24 24" fill="none">
    <path d="M12 22.75C17.9371 22.75 22.75 17.9371 22.75 12C22.75 6.06294 17.9371 1.25 12 1.25C6.06294 1.25 1.25 6.06294 1.25 12C1.25 17.9371 6.06294 22.75 12 22.75ZM8.375 10.25C7.83479 10.25 7.54739 9.83182 7.43945 9.61621C7.3093 9.3559 7.25 9.04829 7.25 8.75C7.25 8.45171 7.3093 8.1441 7.43945 7.88379C7.54739 7.66817 7.83479 7.25 8.375 7.25C8.91521 7.25 9.20261 7.66818 9.31055 7.88379C9.4407 8.1441 9.5 8.4517 9.5 8.75C9.5 9.04829 9.4407 9.3559 9.31055 9.61621C9.20261 9.83182 8.91522 10.25 8.375 10.25ZM17.002 9.06055C16.8235 8.90234 16.4684 8.75 16 8.75C15.5316 8.75 15.1765 8.90234 14.998 9.06055L14.4365 9.55859L13.4414 8.43652L14.002 7.93945C14.5077 7.49052 15.2419 7.25 16 7.25C16.7581 7.25 17.4923 7.49052 17.998 7.93945L18.5586 8.43652L17.5635 9.55859L17.002 9.06055ZM11.999 17.75C10.1175 17.75 8.44709 16.8451 7.39941 15.4502L6.94922 14.8506L8.14844 13.9502L8.59863 14.5498C9.37521 15.5837 10.6093 16.25 11.999 16.25C13.3888 16.25 14.6228 15.5837 15.3994 14.5498L15.8496 13.9502L17.0488 14.8506L16.5986 15.4502C15.551 16.8451 13.8806 17.75 11.999 17.75Z" fill="currentColor" />
</svg>