<svg xmlns="http://www.w3.org/2000/svg" width="24" height="24" viewBox="0 0 24 24" fill="none">
    <path d="M15.1748 17.1348L18.335 12.1621L22.3848 18.2822L20.7168 19.3857L18.3682 15.8379L15.1758 20.8652L11.999 15.8643L8.82227 20.8652L5.62891 15.8379L3.28125 19.3857L1.61328 18.2822L5.66309 12.1621L8.82227 17.1348L11.999 12.1348L15.1748 17.1348Z" fill="currentColor" />
    <path d="M15.1748 8.13477L18.335 3.16211L22.3848 9.28223L20.7168 10.3857L18.3682 6.83789L15.1758 11.8652L11.999 6.86426L8.82227 11.8652L5.62891 6.83789L3.28125 10.3857L1.61328 9.28223L5.66309 3.16211L8.82227 8.13477L11.999 3.13477L15.1748 8.13477Z" fill="currentColor" />
</svg>