<svg xmlns="http://www.w3.org/2000/svg" width="24" height="24" viewBox="0 0 24 24" fill="none">
    <path d="M17 15C17 12.2386 14.7614 10 12 10C9.23858 10 7 12.2386 7 15C7 17.7614 9.23858 20 12 20C14.7614 20 17 17.7614 17 15ZM19 15C19 18.866 15.866 22 12 22C8.13401 22 5 18.866 5 15C5 11.134 8.13401 8 12 8C15.866 8 19 11.134 19 15Z" fill="currentColor" />
    <path d="M5 3V2H7V3C7 5.76142 9.23858 8 12 8C14.7614 8 17 5.76142 17 3V2H19V3C19 6.86599 15.866 10 12 10C8.13401 10 5 6.86599 5 3Z" fill="currentColor" />
</svg>