<svg xmlns="http://www.w3.org/2000/svg" width="24" height="24" viewBox="0 0 24 24" fill="none">
    <path d="M5 15V2H7V15C7 17.7614 9.23858 20 12 20C14.7614 20 17 17.7614 17 15V2H19V15C19 18.866 15.866 22 12 22C8.13401 22 5 18.866 5 15Z" fill="currentColor" />
    <path d="M7.56836 7.01428C9.3512 7.13675 11.0392 8.03465 12.5986 9.19885C14.039 10.2741 15.3513 10.9066 16.5684 10.9899C17.7232 11.0689 18.9503 10.6635 20.2861 9.30041L20.9854 8.58556L22.4141 9.98596L21.7139 10.6998C20.0498 12.3977 18.2768 13.1122 16.4316 12.986C14.6488 12.8639 12.9609 11.9657 11.4014 10.8014C9.96093 9.72603 8.64868 9.09305 7.43164 9.00939C6.27682 8.93006 5.04967 9.33585 3.71387 10.6988L3.01465 11.4127L1.58594 10.0133L2.28613 9.29846C3.95022 7.60059 5.72332 6.88758 7.56836 7.01428Z" fill="currentColor" />
</svg>