<svg xmlns="http://www.w3.org/2000/svg" width="24" height="24" viewBox="0 0 24 24" fill="none">
    <path d="M5 7C5 5.89544 4.10456 4.99999 3 5H2V3H3C5.20914 2.99999 7 4.79086 7 7V18H5V7Z" fill="currentColor" />
    <path d="M10 6.5C10 5.67157 9.32843 5 8.5 5C7.67157 5 7 5.67157 7 6.5V18H5V6.5C5 4.567 6.567 3 8.5 3C10.433 3 12 4.567 12 6.5V17.4824H10V6.5Z" fill="currentColor" />
    <path d="M15 15V6.5C15 5.67157 14.3284 5 13.5 5C12.6716 5 12 5.67157 12 6.5V18H10V6.5C10 4.567 11.567 3 13.5 3C15.433 3 17 4.567 17 6.5V15C17 17.2091 18.7909 19 21 19H22V21H21C17.6863 21 15 18.3137 15 15Z" fill="currentColor" />
    <path d="M15 11.5C15 9.567 16.567 8 18.5 8C20.4336 8 21.9998 9.56881 22 11.501V15C21.9999 18.3136 19.3137 21 16 21H15V19H16C18.209 19 19.9999 17.2091 20 15V11.501C19.9998 10.672 19.3276 10 18.5 10C17.6716 10 17 10.6716 17 11.5V15H15V11.5Z" fill="currentColor" />
</svg>