<svg xmlns="http://www.w3.org/2000/svg" width="24" height="24" viewBox="0 0 24 24" fill="none">
    <path d="M11.0008 19.3124C11.0007 14.9038 9.88242 10.5627 7.75466 6.70111C7.19909 5.69317 5.82633 5.5113 5.02907 6.33783C4.53312 6.85217 4.41023 7.62097 4.72048 8.26459L5.62087 10.1347L3.82009 11.0029L2.91872 9.13373C2.24492 7.7362 2.51269 6.06697 3.58962 4.95014C5.32354 3.15201 8.30232 3.55067 9.50661 5.73627C11.797 9.89312 13.0007 14.566 13.0008 19.3124V22.0009H11.0008V19.3124Z" fill="currentColor" />
    <path d="M11 19.3124C11 14.5659 12.2037 9.89314 14.4941 5.73626C15.6984 3.55065 18.6772 3.15196 20.4111 4.95013C21.4879 6.06696 21.7558 7.73625 21.082 9.13372L20.1807 11.0029L18.3789 10.1347L19.2803 8.26458C19.5904 7.62099 19.4676 6.85212 18.9717 6.33782C18.1745 5.51113 16.8018 5.69321 16.2461 6.7011C14.1183 10.5627 13 14.9038 13 19.3124V22.0009H11V19.3124Z" fill="currentColor" />
</svg>