<svg xmlns="http://www.w3.org/2000/svg" width="24" height="24" viewBox="0 0 24 24" fill="none">
    <path d="M18.4737 15.5215C18.4795 15.4928 18.5205 15.4928 18.5263 15.5215C18.8302 17.0081 19.9919 18.1698 21.4785 18.4737C21.5072 18.4795 21.5072 18.5205 21.4785 18.5263C19.9919 18.8302 18.8302 19.9919 18.5263 21.4785C18.5205 21.5072 18.4795 21.5072 18.4737 21.4785C18.1698 19.9919 17.0081 18.8302 15.5215 18.5263C15.4928 18.5205 15.4928 18.4795 15.5215 18.4737C17.0081 18.1698 18.1698 17.0081 18.4737 15.5215Z" stroke="currentColor" stroke-width="2" stroke-linecap="round" stroke-linejoin="round" />
    <path d="M2.5 7.5H20.5" stroke="currentColor" stroke-width="2" stroke-linecap="round" stroke-linejoin="round" />
    <path d="M12.5 20.5H4.5C3.39543 20.5 2.5 19.6046 2.5 18.5V4.5C2.5 3.39543 3.39543 2.5 4.5 2.5H18.5C19.6046 2.5 20.5 3.39543 20.5 4.5V12.5" stroke="currentColor" stroke-width="2" stroke-linecap="round" stroke-linejoin="round" />
</svg>