<svg xmlns="http://www.w3.org/2000/svg" width="24" height="24" viewBox="0 0 24 24" fill="none">
    <path d="M18 7H18.2633C19.8137 7 21.1087 8.18133 21.2507 9.72519L21.9922 17.7863C22.1162 19.5229 20.7414 21 19.001 21H18.2543C17.0281 21 15.9254 20.2531 15.47 19.1142L14.2248 16H9.7752L8.53002 19.1142C8.0746 20.2531 6.97191 21 5.74567 21H4.99899C3.25864 21 1.88378 19.5229 2.00778 17.7863L2.75532 9.72305C2.89837 8.18012 4.19295 7 5.74251 7H6" stroke="currentColor" stroke-width="2" stroke-linecap="round" stroke-linejoin="round" />
    <path d="M7.375 11.75H7.25M7.5 11.75C7.5 11.8881 7.38807 12 7.25 12C7.11193 12 7 11.8881 7 11.75C7 11.6119 7.11193 11.5 7.25 11.5C7.38807 11.5 7.5 11.6119 7.5 11.75Z" stroke="currentColor" stroke-width="2" stroke-linecap="round" stroke-linejoin="round" />
    <path d="M16.875 11.75H16.75M17 11.75C17 11.8881 16.8881 12 16.75 12C16.6119 12 16.5 11.8881 16.5 11.75C16.5 11.6119 16.6119 11.5 16.75 11.5C16.8881 11.5 17 11.6119 17 11.75Z" stroke="currentColor" stroke-width="2" stroke-linecap="round" stroke-linejoin="round" />
    <path d="M11.9737 3.02148C11.9795 2.99284 12.0205 2.99284 12.0263 3.02148C12.3302 4.50808 13.4919 5.66984 14.9785 5.97368C15.0072 5.97954 15.0072 6.02046 14.9785 6.02632C13.4919 6.33016 12.3302 7.49192 12.0263 8.97852C12.0205 9.00716 11.9795 9.00716 11.9737 8.97852C11.6698 7.49192 10.5081 6.33016 9.02148 6.02632C8.99284 6.02046 8.99284 5.97954 9.02148 5.97368C10.5081 5.66984 11.6698 4.50808 11.9737 3.02148Z" stroke="currentColor" stroke-width="2" stroke-linecap="round" stroke-linejoin="round" />
</svg>