<svg xmlns="http://www.w3.org/2000/svg" width="24" height="24" viewBox="0 0 24 24" fill="none">
    <path d="M18.5 2.9375V6.0625M17.25 4.5H19.75M16 4.5L17.875 3.875L18.5 2L19.125 3.875L21 4.5L19.125 5.125L18.5 7L17.875 5.125L16 4.5Z" stroke="currentColor" stroke-width="2" stroke-linecap="round" stroke-linejoin="round" />
    <path d="M12.5001 22L12.866 20.1756C12.9469 19.7721 13.2667 19.4594 13.6719 19.3876L15.156 19.1244C16.214 18.9261 16.9047 17.9391 16.6987 16.9201L16.3258 15.0749L17.7846 13.9936C17.9503 13.8708 18.0298 13.6683 17.9898 13.4705C17.9714 13.3797 17.9288 13.295 17.866 13.2249L15.3779 10.5691C14.9367 8.58422 12.5868 5.01589 7.23162 6.25555C2.07736 7.44871 1.78666 11.9991 2.07736 13.4378C2.46185 15.3407 3.31306 16.452 4.18511 17.4085C5.24497 18.5711 5.26308 20.2323 4.32602 21.4957L3.95195 22" stroke="currentColor" stroke-width="2" stroke-linecap="round" stroke-linejoin="round" />
</svg>