<svg xmlns="http://www.w3.org/2000/svg" width="24" height="24" viewBox="0 0 24 24" fill="none">
    <path d="M19.5 2.9375V6.0625M18.25 4.5H20.75M17 4.5L18.875 3.875L19.5 2L20.125 3.875L22 4.5L20.125 5.125L19.5 7L18.875 5.125L17 4.5Z" stroke="currentColor" stroke-width="2" stroke-linecap="round" stroke-linejoin="round" />
    <path d="M13 8.17539V11.5H15.2597C15.6686 11.5 16 11.8314 16 12.2403C16 12.4084 15.9428 12.5715 15.8378 12.7028L12.2028 17.2465C12.0746 17.4067 11.8806 17.5 11.6754 17.5C11.3024 17.5 11 17.1976 11 16.8246L11 13.5L8.74031 13.5C8.33145 13.5 8 13.1686 8 12.7597C8 12.5916 8.05721 12.4285 8.16223 12.2972L11.7972 7.75348C11.9254 7.59326 12.1194 7.5 12.3246 7.5C12.6976 7.5 13 7.80238 13 8.17539Z" stroke="currentColor" stroke-width="2" stroke-linecap="round" stroke-linejoin="round" />
    <path d="M20 10V19C20 20.6569 18.6569 22 17 22H7C5.34315 22 4 20.6569 4 19V6C4 4.34315 5.34315 3 7 3H14" stroke="currentColor" stroke-width="2" stroke-linecap="round" stroke-linejoin="round" />
</svg>