<svg xmlns="http://www.w3.org/2000/svg" width="24" height="24" viewBox="0 0 24 24" fill="none">
    <path d="M3.58485 21H20.4152C21.2904 21 22 20.2904 22 19.4152C22 19.143 21.9299 18.8754 21.7965 18.6382L13.4903 3.87158C13.1874 3.33318 12.6177 3 12 3C11.3823 3 10.8126 3.33318 10.5097 3.87158L2.20353 18.6382C2.0701 18.8754 2 19.143 2 19.4152C2 20.2904 2.70956 21 3.58485 21Z" stroke="currentColor" stroke-width="2" stroke-linecap="round" stroke-linejoin="round" />
    <path d="M12 17V13" stroke="currentColor" stroke-width="2" stroke-linecap="round" stroke-linejoin="round" />
    <path d="M12.125 9.25H12M12.25 9.25C12.25 9.38807 12.1381 9.5 12 9.5C11.8619 9.5 11.75 9.38807 11.75 9.25C11.75 9.11193 11.8619 9 12 9C12.1381 9 12.25 9.11193 12.25 9.25Z" stroke="currentColor" stroke-width="2" stroke-linecap="round" stroke-linejoin="round" />
</svg>