<svg xmlns="http://www.w3.org/2000/svg" width="24" height="24" viewBox="0 0 24 24" fill="none">
    <path d="M19 2V22" stroke="currentColor" stroke-width="2" stroke-linecap="round" stroke-linejoin="round" />
    <path d="M5 2V22" stroke="currentColor" stroke-width="2" stroke-linecap="round" stroke-linejoin="round" />
    <path d="M5 6.5L5 17.497C5 18.326 5.67243 18.9978 6.50141 18.997L8.50141 18.9952C9.32928 18.9944 10 18.323 10 17.4952L10 6.5C10 5.67157 9.32843 5 8.5 5H6.5C5.67157 5 5 5.67157 5 6.5Z" stroke="currentColor" stroke-width="2" stroke-linecap="round" stroke-linejoin="round" />
    <path d="M14 9.5L14 14.497C14 15.326 14.6724 15.9978 15.5014 15.997L17.5014 15.9952C18.3293 15.9944 19 15.323 19 14.4952L19 9.5C19 8.67157 18.3284 8 17.5 8H15.5C14.6716 8 14 8.67157 14 9.5Z" stroke="currentColor" stroke-width="2" stroke-linecap="round" stroke-linejoin="round" />
</svg>