<svg xmlns="http://www.w3.org/2000/svg" width="24" height="24" viewBox="0 0 24 24" fill="none">
    <path d="M3 2V22" stroke="currentColor" stroke-width="2" stroke-linecap="round" stroke-linejoin="round" />
    <path d="M7 6.5L7 17.497C7 18.326 7.67243 18.9978 8.50141 18.997L10.5014 18.9952C11.3293 18.9944 12 18.323 12 17.4952L12 6.5C12 5.67157 11.3284 5 10.5 5H8.5C7.67157 5 7 5.67157 7 6.5Z" stroke="currentColor" stroke-width="2" stroke-linecap="round" stroke-linejoin="round" />
    <path d="M16 9.5L16 14.497C16 15.326 16.6724 15.9978 17.5014 15.997L19.5014 15.9952C20.3293 15.9944 21 15.323 21 14.4952L21 9.5C21 8.67157 20.3284 8 19.5 8H17.5C16.6716 8 16 8.67157 16 9.5Z" stroke="currentColor" stroke-width="2" stroke-linecap="round" stroke-linejoin="round" />
</svg>