<svg xmlns="http://www.w3.org/2000/svg" width="24" height="24" viewBox="0 0 24 24" fill="none">
    <path d="M22 7.5L16 7.5M8 7.5L2 7.5" stroke="currentColor" stroke-width="2" stroke-linecap="round" stroke-linejoin="round" />
    <path d="M22 16.5L19 16.5M5 16.5L2 16.5" stroke="currentColor" stroke-width="2" stroke-linecap="round" stroke-linejoin="round" />
    <path d="M17.5 19L6.50299 19C5.67401 19 5.00221 18.3276 5.00299 17.4986L5.00487 15.4986C5.00564 14.6707 5.67699 14 6.50487 14L17.5 14C18.3284 14 19 14.6716 19 15.5V17.5C19 18.3284 18.3284 19 17.5 19Z" stroke="currentColor" stroke-width="2" stroke-linecap="round" stroke-linejoin="round" />
    <path d="M14.5 10H9.50299C8.67401 10 8.00221 9.32757 8.00299 8.49859L8.00487 6.49859C8.00564 5.67072 8.67699 5 9.50487 5L14.5 5C15.3284 5 16 5.67157 16 6.5V8.5C16 9.32843 15.3284 10 14.5 10Z" stroke="currentColor" stroke-width="2" stroke-linecap="round" stroke-linejoin="round" />
</svg>