<svg xmlns="http://www.w3.org/2000/svg" width="24" height="24" viewBox="0 0 24 24" fill="none">
    <path d="M14.5 9C14.5 5.5 16.5 3.33333 16.5 2.5C16.5 2.22386 16.2761 2 16 2H7.99997C7.72383 2 7.49997 2.22386 7.49997 2.5C7.49997 3.33333 9.49997 5.5 9.49997 9C9.49997 12.5 5.99997 13 5.99997 16C5.99997 17.6449 6.90184 19.628 7.59299 21.1148C7.84286 21.6523 8.382 22 8.97478 22H15.0252C15.6179 22 16.1571 21.6523 16.407 21.1148C17.0981 19.628 18 17.6449 18 16C18 13 14.5 12.5 14.5 9Z" stroke="currentColor" stroke-width="2" stroke-linecap="round" stroke-linejoin="round" />
    <path d="M9 6H15" stroke="currentColor" stroke-width="2" stroke-linecap="round" stroke-linejoin="round" />
    <path d="M16 4H17.6208C18.3825 4 19 4.6175 19 5.37924C19 5.45959 18.993 5.53979 18.979 5.61893L17.5 14" stroke="currentColor" stroke-width="2" stroke-linecap="round" stroke-linejoin="round" />
    <path d="M7.99997 4H6.37921C5.61747 4 4.99997 4.6175 4.99997 5.37924C4.99997 5.45959 5.00699 5.53979 5.02096 5.61893L6.49997 14" stroke="currentColor" stroke-width="2" stroke-linecap="round" stroke-linejoin="round" />
</svg>