<svg xmlns="http://www.w3.org/2000/svg" width="24" height="24" viewBox="0 0 24 24" fill="none">
    <path d="M10.0001 20V4C10.0001 3.44772 9.55236 3 9.00008 3H3.00007C2.44779 3 2.00008 3.44771 2.00007 4L2 20C2 20.5523 2.44772 21 3 21H9.00008C9.55236 21 10.0001 20.5523 10.0001 20Z" stroke="currentColor" stroke-width="2" stroke-linecap="round" stroke-linejoin="round" />
    <path d="M2 7H10" stroke="currentColor" stroke-width="2" stroke-linecap="round" stroke-linejoin="round" />
    <path d="M12 9.00019L18.5001 7" stroke="currentColor" stroke-width="2" stroke-linecap="round" stroke-linejoin="round" />
    <path d="M16.7955 3.53389L11.2409 5.01347C10.7034 5.15665 10.3869 5.71131 10.5375 6.24625L14.4869 20.273C14.6347 20.7978 15.1771 21.1066 15.7045 20.9661L21.2591 19.4865C21.7966 19.3433 22.1131 18.7887 21.9625 18.2537L18.0131 4.22701C17.8653 3.70224 17.3229 3.39342 16.7955 3.53389Z" stroke="currentColor" stroke-width="2" />
    <path d="M6.125 17H6M6.25 17C6.25 17.1381 6.13807 17.25 6 17.25C5.86193 17.25 5.75 17.1381 5.75 17C5.75 16.8619 5.86193 16.75 6 16.75C6.13807 16.75 6.25 16.8619 6.25 17Z" stroke="currentColor" stroke-width="2" stroke-linecap="round" stroke-linejoin="round" />
    <path d="M17.7307 16.75H17.6057M17.8557 16.75C17.8557 16.8881 17.7437 17 17.6057 17C17.4676 17 17.3557 16.8881 17.3557 16.75C17.3557 16.6119 17.4676 16.5 17.6057 16.5C17.7437 16.5 17.8557 16.6119 17.8557 16.75Z" stroke="currentColor" stroke-width="2" stroke-linecap="round" stroke-linejoin="round" />
</svg>