<svg xmlns="http://www.w3.org/2000/svg" width="24" height="24" viewBox="0 0 24 24" fill="none">
    <path d="M9.33109 8.32773L13.9264 12.923L14.2921 16.2143C14.3141 16.4122 14.4027 16.5967 14.5435 16.7374C14.6625 16.8564 14.8126 16.9414 14.9792 16.9646C16.4902 17.1747 18.3989 16.4437 19.9213 14.9213C21.4437 13.3989 22.1747 11.4902 21.9646 9.97921C21.9414 9.81259 21.8564 9.66246 21.7374 9.54351C21.5967 9.40274 21.4122 9.31407 21.2143 9.29208L17.923 8.92638L13.3277 4.33109C12.8863 3.88964 12.1705 3.88964 11.7291 4.33109L9.33109 6.72907C8.88964 7.17053 8.88964 7.88627 9.33109 8.32773Z" stroke="currentColor" stroke-width="2" stroke-linecap="round" stroke-linejoin="round" />
    <path d="M12.5 12L5.01777 19.4822C4.68625 19.8138 4.23661 20 3.76777 20C2.79146 20 2 19.2085 2 18.2322C2 17.7634 2.18625 17.3138 2.51777 16.9822L10 9.5" stroke="currentColor" stroke-width="2" stroke-linecap="round" stroke-linejoin="round" />
</svg>