<svg xmlns="http://www.w3.org/2000/svg" width="24" height="24" viewBox="0 0 24 24" fill="none">
    <path d="M8 21.5002V14.5002C8 13.9479 8.44772 13.5002 9 13.5002H15C15.5523 13.5002 16 13.9479 16 14.5002V21.5002" stroke="currentColor" stroke-width="2" stroke-linecap="round" stroke-linejoin="round" />
    <path d="M8.5 14.0001L16 21.5001M15.5 14.0001L8 21.5001" stroke="currentColor" stroke-width="2" stroke-linecap="round" stroke-linejoin="round" />
    <path d="M10.5 8.50012H13.5" stroke="currentColor" stroke-width="2" stroke-linecap="round" stroke-linejoin="round" />
    <path d="M4.69418 6.18822L3.17238 9.61227C3.05872 9.86799 3 10.1447 3 10.4246V19.5001C3 20.6047 3.89543 21.5001 5 21.5001H19C20.1046 21.5001 21 20.6047 21 19.5001V9.97226C21 9.66177 20.9277 9.35554 20.7889 9.07783L19.3137 6.12762C19.1106 5.72142 18.7754 5.39644 18.363 5.20613L12.954 2.70965C12.6549 2.57161 12.3294 2.50012 12 2.50012C11.6706 2.50012 11.3451 2.57161 11.046 2.70965L5.68369 5.18457C5.243 5.38797 4.89131 5.74468 4.69418 6.18822Z" stroke="currentColor" stroke-width="2" stroke-linecap="round" stroke-linejoin="round" />
</svg>