<svg xmlns="http://www.w3.org/2000/svg" width="24" height="24" viewBox="0 0 24 24" fill="none">
    <path d="M17.5 15H14.5C13.6716 15 13 15.6716 13 16.5V19.5C13 20.3284 13.6716 21 14.5 21H17.5C18.3284 21 19 20.3284 19 19.5V16.5C19 15.6716 18.3284 15 17.5 15Z" stroke="currentColor" stroke-width="2" stroke-linecap="round" stroke-linejoin="round" />
    <path d="M16 11V21" stroke="currentColor" stroke-width="2" stroke-linecap="round" stroke-linejoin="round" />
    <path d="M21 10C21 10.5523 20.5523 11 20 11H4C3.44772 11 3 10.5523 3 10V4C3 3.44772 3.44772 3 4 3H16C18.7614 3 21 5.23858 21 8V10Z" stroke="currentColor" stroke-width="2" stroke-linecap="round" stroke-linejoin="round" />
    <path d="M6 7H10" stroke="currentColor" stroke-width="2" stroke-linecap="round" stroke-linejoin="round" />
</svg>