<svg xmlns="http://www.w3.org/2000/svg" width="24" height="24" viewBox="0 0 24 24" fill="none">
    <path d="M14 7H17C17.5523 7 18 7.44772 18 8V10.8445C18 11.5756 17.8664 12.3002 17.6061 12.9827" stroke="currentColor" stroke-width="2" stroke-linecap="round" stroke-linejoin="round" />
    <path d="M7 7C6.44772 7 6 7.44772 6 8V10.8445C6 11.6078 6.14565 12.3641 6.42914 13.0728L7.28477 15.2119C7.75725 16.3931 8 17.6536 8 18.9258V21C8 21.5523 8.44772 22 9 22H15C15.5523 22 16 21.5523 16 21V18.9258C16 18.2779 16.063 17.633 16.1872 17" stroke="currentColor" stroke-width="2" stroke-linecap="round" stroke-linejoin="round" />
    <path d="M8.05589 3.04188C8.20441 3.01438 8.35753 3 8.51401 3C8.89697 3 9.25982 3.08611 9.58425 3.24002C10.1294 2.48863 11.0147 2 12.014 2C13.0134 2 13.8986 2.48863 14.4438 3.24002C14.7682 3.08611 15.1311 3 15.514 3C16.8947 3 18.014 4.11929 18.014 5.5C18.014 6.0628 17.828 6.58217 17.5142 7H14.014V9M6.08203 6.08166C6.16255 6.41955 6.31166 6.73084 6.51383 7H7.00037" stroke="currentColor" stroke-width="2" stroke-linecap="round" stroke-linejoin="round" />
    <path d="M2 2L22 22" stroke="currentColor" stroke-width="2" stroke-linecap="round" stroke-linejoin="round" />
</svg>