<svg xmlns="http://www.w3.org/2000/svg" width="24" height="24" viewBox="0 0 24 24" fill="none">
    <path d="M2.52747 16.7611C2.5605 16.5571 2.65151 16.3672 2.7894 16.2144C4.19015 14.7531 5.49997 13.199 5.49997 8.40002C5.49997 4.86546 8.3653 2.00012 11.8999 2.00012H12.1001C15.6346 2.00012 18.5 4.86546 18.5 8.40002C18.5 13.199 19.8349 14.7531 21.2388 16.2155C21.3765 16.3684 21.4672 16.5584 21.5 16.7625C21.5327 16.9665 21.5061 17.1758 21.4234 17.3648C21.3406 17.5539 21.2053 17.7146 21.0339 17.8273C20.8624 17.9401 20.6622 18.0001 20.4577 18H3.56842C3.36382 17.9999 3.16368 17.9396 2.99234 17.8267C2.821 17.7137 2.68584 17.5528 2.60331 17.3636C2.52078 17.1745 2.49443 16.9651 2.52747 16.7611Z" stroke="currentColor" stroke-width="2" stroke-linecap="round" stroke-linejoin="round" />
    <path d="M16 18C16 20.2091 14.2091 22 12 22C9.79086 22 8 20.2091 8 18" stroke="currentColor" stroke-width="2" stroke-linecap="round" stroke-linejoin="round" />
    <path d="M22 8C22 5.7 21.2 3.7 20 2" stroke="currentColor" stroke-width="2" stroke-linecap="round" stroke-linejoin="round" />
    <path d="M4 2C2.8 3.7 2 5.7 2 8" stroke="currentColor" stroke-width="2" stroke-linecap="round" stroke-linejoin="round" />
</svg>