<svg xmlns="http://www.w3.org/2000/svg" width="24" height="24" viewBox="0 0 24 24" fill="none">
    <path d="M21.2388 16.2154C19.8349 14.753 18.5 13.1988 18.5 8.3999C18.5 4.86533 15.6347 2 12.1001 2H11.8999C10.5216 2 9.24501 2.43573 8.20044 3.17696M5.97529 5.97526C5.66893 6.72307 5.50003 7.54176 5.50003 8.3999C5.50003 13.1988 4.19021 14.753 2.78946 16.2143C2.65157 16.367 2.56056 16.557 2.52753 16.761C2.49449 16.965 2.52084 17.1744 2.60337 17.3635C2.6859 17.5527 2.82106 17.7136 2.9924 17.8265C3.16374 17.9395 3.36388 17.9998 3.56848 17.9999H17.9999" stroke="currentColor" stroke-width="2" stroke-linecap="round" stroke-linejoin="round" />
    <path d="M2 2L22 22" stroke="currentColor" stroke-width="2" stroke-linecap="round" stroke-linejoin="round" />
    <path d="M16 18C16 20.2091 14.2091 22 12 22C9.79086 22 8 20.2091 8 18" stroke="currentColor" stroke-width="2" stroke-linecap="round" stroke-linejoin="round" />
</svg>