<svg xmlns="http://www.w3.org/2000/svg" width="24" height="24" viewBox="0 0 24 24" fill="none">
    <path d="M20.9998 20L20.9998 10C20.9998 8.89543 20.1044 8 18.9998 8L15.9998 8C14.8953 8 13.9998 8.89543 13.9998 10L13.9998 20C13.9998 21.1046 14.8953 22 15.9998 22H18.9998C20.1044 22 20.9998 21.1046 20.9998 20Z" stroke="currentColor" stroke-width="2" stroke-linecap="round" stroke-linejoin="round" />
    <path d="M9.99985 20L9.99985 10C9.99985 8.89543 9.10442 8 7.99985 8L4.99985 8C3.89528 8 2.99985 8.89543 2.99985 10L2.99985 20C2.99985 21.1046 3.89528 22 4.99985 22H7.99985C9.10442 22 9.99985 21.1046 9.99985 20Z" stroke="currentColor" stroke-width="2" stroke-linecap="round" stroke-linejoin="round" />
    <path d="M14.9998 2L11.9998 5L8.99985 2" stroke="currentColor" stroke-width="2" stroke-linecap="round" stroke-linejoin="round" />
</svg>