<svg xmlns="http://www.w3.org/2000/svg" width="24" height="24" viewBox="0 0 24 24" fill="none">
    <path d="M19 7.5V5.5C19 4.11929 17.8807 3 16.5 3C15.1193 3 14 4.11929 14 5.5V7.5C14 8.88071 15.1193 10 16.5 10C17.8807 10 19 8.88071 19 7.5Z" stroke="currentColor" stroke-width="2" stroke-linecap="round" stroke-linejoin="round" />
    <path d="M10 18.5V16.5C10 15.1193 8.88071 14 7.5 14C6.11929 14 5 15.1193 5 16.5V18.5C5 19.8807 6.11929 21 7.5 21C8.88071 21 10 19.8807 10 18.5Z" stroke="currentColor" stroke-width="2" stroke-linecap="round" stroke-linejoin="round" />
    <path d="M5.5 4L7.5 3V10" stroke="currentColor" stroke-width="2" stroke-linecap="round" stroke-linejoin="round" />
    <path d="M5.5 10H9.5" stroke="currentColor" stroke-width="2" stroke-linecap="round" stroke-linejoin="round" />
    <path d="M14.5 15L16.5 14V21" stroke="currentColor" stroke-width="2" stroke-linecap="round" stroke-linejoin="round" />
    <path d="M14.5 21H18.5" stroke="currentColor" stroke-width="2" stroke-linecap="round" stroke-linejoin="round" />
</svg>