<svg xmlns="http://www.w3.org/2000/svg" width="24" height="24" viewBox="0 0 24 24" fill="none">
    <path d="M13.8661 12.127C13.8661 13.2315 12.9707 14.127 11.8661 14.127C10.7616 14.127 9.86615 13.2315 9.86615 12.127C9.86615 11.0224 10.7616 10.127 11.8661 10.127C12.9707 10.127 13.8661 11.0224 13.8661 12.127Z" stroke="currentColor" stroke-width="2" stroke-linecap="round" stroke-linejoin="round" />
    <path d="M2.15466 14.3883C2.70576 12.226 4.66616 10.627 7.00005 10.627C8.09931 10.627 9.11572 10.9817 9.94104 11.5829M5.81571 20.4859C6.19538 20.5781 6.59201 20.627 7.00005 20.627C9.76147 20.627 12 18.3884 12 15.627C12 15.1035 11.9196 14.5989 11.7704 14.1247" stroke="currentColor" stroke-width="2" stroke-linecap="round" stroke-linejoin="round" />
    <path d="M21.8454 14.3883C21.2943 12.226 19.3339 10.627 17.0001 10.627C15.7978 10.627 14.6947 11.0513 13.8323 11.7583M18.1844 20.4859C17.8047 20.5781 17.4081 20.627 17.0001 20.627C14.2386 20.627 12.0001 18.3884 12.0001 15.627C12.0001 15.0915 12.0842 14.5757 12.2401 14.0921" stroke="currentColor" stroke-width="2" stroke-linecap="round" stroke-linejoin="round" />
    <path d="M15.7962 3.37305C16.5466 4.24764 17.0001 5.38454 17.0001 6.62736C17.0001 8.7915 15.6251 10.6345 13.7012 11.3306M8.20396 3.37305C7.4535 4.24764 7.00006 5.38454 7.00006 6.62736C7.00006 8.70549 8.26787 10.4875 10.0722 11.2422" stroke="currentColor" stroke-width="2" stroke-linecap="round" stroke-linejoin="round" />
    <path d="M17.8114 15.0421C17.5257 15.6105 17.159 16.1312 16.7266 16.5891M7.27365 16.5891C6.84122 16.1312 6.47459 15.6105 6.1889 15.0421M11.003 5.70296C11.328 5.65292 11.6611 5.62695 12.0001 5.62695C12.3392 5.62695 12.6722 5.65292 12.9973 5.70296" stroke="currentColor" stroke-width="2" stroke-linecap="round" stroke-linejoin="round" />
</svg>