<svg xmlns="http://www.w3.org/2000/svg" width="24" height="24" viewBox="0 0 24 24" fill="none">
    <path d="M5.99963 17L17.9997 6.99997L12.001 3V21L17.9997 17L5.99963 6.99997" stroke="currentColor" stroke-width="2" stroke-linecap="round" stroke-linejoin="round" />
    <path d="M5.37463 12H5.24963M18.8746 12H18.7496M5.49963 12C5.49963 12.1381 5.3877 12.25 5.24963 12.25C5.11156 12.25 4.99963 12.1381 4.99963 12C4.99963 11.8619 5.11156 11.75 5.24963 11.75C5.3877 11.75 5.49963 11.8619 5.49963 12ZM18.9996 12C18.9996 12.1381 18.8877 12.25 18.7496 12.25C18.6116 12.25 18.4996 12.1381 18.4996 12C18.4996 11.8619 18.6116 11.75 18.7496 11.75C18.8877 11.75 18.9996 11.8619 18.9996 12Z" stroke="currentColor" stroke-width="2" stroke-linecap="round" />
</svg>