<svg xmlns="http://www.w3.org/2000/svg" width="24" height="24" viewBox="0 0 24 24" fill="none">
    <path d="M12 6C15.3912 6 18.4409 6.25332 20.553 6.65669C21.4209 6.82244 22 7.60523 22 8.48879V12.8666C22 13.5697 21.6354 14.2325 20.9894 14.5099C18.8732 15.4187 15.6325 16 12 16C8.3675 16 5.12684 15.4187 3.01062 14.5099C2.36461 14.2325 2 13.5697 2 12.8666V8.48879C2 7.60523 2.57914 6.82244 3.44702 6.65669C5.5591 6.25332 8.60879 6 12 6Z" stroke="currentColor" stroke-width="2" stroke-linecap="round" stroke-linejoin="round" />
    <path d="M15.5 6V3.5C15.5 2.67157 14.8284 2 14 2H10C9.17157 2 8.5 2.67157 8.5 3.5V6" stroke="currentColor" stroke-width="2" stroke-linecap="round" stroke-linejoin="round" />
    <path d="M12 12.625V12.75M12.25 12.75C12.25 12.8881 12.1381 13 12 13C11.8619 13 11.75 12.8881 11.75 12.75C11.75 12.6119 11.8619 12.5 12 12.5C12.1381 12.5 12.25 12.6119 12.25 12.75Z" stroke="currentColor" stroke-width="2" stroke-linecap="round" stroke-linejoin="round" />
    <path d="M21 15V19.5577C21 20.4189 20.4483 21.1884 19.6049 21.3627C17.7081 21.7548 15.0028 22 12 22C8.99721 22 6.29193 21.7548 4.39507 21.3627C3.55166 21.1884 3 20.4189 3 19.5577V15" stroke="currentColor" stroke-width="2" stroke-linecap="round" stroke-linejoin="round" />
</svg>