<svg xmlns="http://www.w3.org/2000/svg" width="24" height="24" viewBox="0 0 24 24" fill="none">
    <path d="M4 14.5C5.5 14.5 6.5 15.5 8 15.5C9.5 15.5 10.5 14.5 12 14.5C13.5 14.5 14.5 15.5 16 15.5C17.5 15.5 18.5 14.5 20 14.5" stroke="currentColor" stroke-width="2" stroke-linecap="round" stroke-linejoin="round" />
    <path d="M4 12.5V21.5H20V12.5C20 11.3954 19.1046 10.5 18 10.5H6C4.89543 10.5 4 11.3954 4 12.5Z" stroke="currentColor" stroke-width="2" stroke-linecap="round" stroke-linejoin="round" />
    <path d="M2 21.5H22" stroke="currentColor" stroke-width="2" stroke-linecap="round" stroke-linejoin="round" />
    <path d="M12 10.5V7.5" stroke="currentColor" stroke-width="2" stroke-linecap="round" stroke-linejoin="round" />
    <path d="M12 7.5C13.1046 7.5 14 6.60457 14 5.5C14 4 12 2.5 12 2.5C12 2.5 10 4 10 5.5C10 6.60457 10.8954 7.5 12 7.5Z" stroke="currentColor" stroke-width="2" stroke-linecap="round" stroke-linejoin="round" />
</svg>