<svg xmlns="http://www.w3.org/2000/svg" width="24" height="24" viewBox="0 0 24 24" fill="none">
    <path d="M12 17.875V18M12.25 18C12.25 18.1381 12.1381 18.25 12 18.25C11.8619 18.25 11.75 18.1381 11.75 18C11.75 17.8619 11.8619 17.75 12 17.75C12.1381 17.75 12.25 17.8619 12.25 18Z" stroke="currentColor" stroke-width="2" stroke-linecap="round" stroke-linejoin="round" />
    <path d="M12 13.875V14M12.25 14C12.25 14.1381 12.1381 14.25 12 14.25C11.8619 14.25 11.75 14.1381 11.75 14C11.75 13.8619 11.8619 13.75 12 13.75C12.1381 13.75 12.25 13.8619 12.25 14Z" stroke="currentColor" stroke-width="2" stroke-linecap="round" stroke-linejoin="round" />
    <path d="M7.25 17.875V18M7.5 18C7.5 18.1381 7.38807 18.25 7.25 18.25C7.11193 18.25 7 18.1381 7 18C7 17.8619 7.11193 17.75 7.25 17.75C7.38807 17.75 7.5 17.8619 7.5 18Z" stroke="currentColor" stroke-width="2" stroke-linecap="round" stroke-linejoin="round" />
    <path d="M7.25 13.875V14M7.5 14C7.5 14.1381 7.38807 14.25 7.25 14.25C7.11193 14.25 7 14.1381 7 14C7 13.8619 7.11193 13.75 7.25 13.75C7.38807 13.75 7.5 13.8619 7.5 14Z" stroke="currentColor" stroke-width="2" stroke-linecap="round" stroke-linejoin="round" />
    <path d="M16.75 13.875V14M17 14C17 14.1381 16.8881 14.25 16.75 14.25C16.6119 14.25 16.5 14.1381 16.5 14C16.5 13.8619 16.6119 13.75 16.75 13.75C16.8881 13.75 17 13.8619 17 14Z" stroke="currentColor" stroke-width="2" stroke-linecap="round" stroke-linejoin="round" />
    <path d="M16.5 2V6M7.5 2V6" stroke="currentColor" stroke-width="2" stroke-linecap="round" stroke-linejoin="round" />
    <path d="M19 4H5C3.89543 4 3 4.89543 3 6V20C3 21.1046 3.89543 22 5 22H19C20.1046 22 21 21.1046 21 20V6C21 4.89543 20.1046 4 19 4Z" stroke="currentColor" stroke-width="2" stroke-linecap="round" stroke-linejoin="round" />
    <path d="M3 10H21" stroke="currentColor" stroke-width="2" stroke-linecap="round" stroke-linejoin="round" />
</svg>