<svg xmlns="http://www.w3.org/2000/svg" width="24" height="24" viewBox="0 0 24 24" fill="none">
    <path d="M15.5 15.5C16.85 16.9211 17.4 18.5789 17.4 20C15.15 20 13.35 18.4211 12 17C10.65 18.4211 8.84997 20 6.59997 20C6.59997 18.5789 7.14997 16.9211 8.49997 15.5C8.49997 15.5 6.14997 15.9211 2.99997 14.5C3.44997 13.0789 6.14997 11.5 7.49997 11.5C6.14997 10.5526 3.99997 7.89474 3.99997 6C4.78686 6 5.5921 6.13197 6.36435 6.36438M10.3999 5.39992C10.7273 4.18655 11.2578 3.04158 12 2C13.35 3.89474 14 6.13158 14 8.5C15.35 7.07895 17.75 6 20 6C20 7.89474 17.85 10.5526 16.5 11.5C17.85 11.5 20.55 13.0789 21 14.5C20.6306 14.6666 20.2723 14.8079 19.9275 14.9275" stroke="currentColor" stroke-width="2" stroke-linecap="round" stroke-linejoin="round" />
    <path d="M12 17V22" stroke="currentColor" stroke-width="2" stroke-linecap="round" stroke-linejoin="round" />
    <path d="M2 2L22 22" stroke="currentColor" stroke-width="2" stroke-linecap="round" stroke-linejoin="round" />
</svg>