<svg xmlns="http://www.w3.org/2000/svg" width="24" height="24" viewBox="0 0 24 24" fill="none">
    <path d="M19 19V17H5V19C5 19.5523 4.55228 20 4 20H3C2.44772 20 2 19.5523 2 19V13.6056C2 13.2107 2.11688 12.8247 2.3359 12.4962L4 10L5.98718 5.23077C6.29772 4.48548 7.02593 4 7.83333 4H16.1667C16.9741 4 17.7023 4.48548 18.0128 5.23077L20 10L21.6641 12.4962C21.8831 12.8247 22 13.2107 22 13.6056V19C22 19.5523 21.5523 20 21 20H20C19.4477 20 19 19.5523 19 19Z" stroke="currentColor" stroke-width="2" stroke-linecap="round" stroke-linejoin="round" />
    <path d="M2 8.5L4 10L6 10.5H18L20 10L22 8.5" stroke="currentColor" stroke-width="2" stroke-linecap="round" stroke-linejoin="round" />
    <path d="M6.125 14H6M6.25 14C6.25 14.1381 6.13807 14.25 6 14.25C5.86193 14.25 5.75 14.1381 5.75 14C5.75 13.8619 5.86193 13.75 6 13.75C6.13807 13.75 6.25 13.8619 6.25 14Z" stroke="currentColor" stroke-width="2" stroke-linecap="round" stroke-linejoin="round" />
    <path d="M18.125 14H18M18.25 14C18.25 14.1381 18.1381 14.25 18 14.25C17.8619 14.25 17.75 14.1381 17.75 14C17.75 13.8619 17.8619 13.75 18 13.75C18.1381 13.75 18.25 13.8619 18.25 14Z" stroke="currentColor" stroke-width="2" stroke-linecap="round" stroke-linejoin="round" />
</svg>