<svg xmlns="http://www.w3.org/2000/svg" width="24" height="24" viewBox="0 0 24 24" fill="none">
    <path d="M20 12L21.6641 14.4962C21.8831 14.8247 22 15.2107 22 15.6056V21C22 21.5523 21.5523 22 21 22H20C19.4477 22 19 21.5523 19 21V19H5V21C5 21.5523 4.55228 22 4 22H3C2.44772 22 2 21.5523 2 21V15.6056C2 15.2107 2.11688 14.8247 2.3359 14.4962L4 12M20 12L18 12.5H6L4 12M20 12L22 10.5M4 12L5.98718 7.23077C6.29772 6.48548 7.02593 6 7.83333 6H10M4 12L2 10.5" stroke="currentColor" stroke-width="2" stroke-linecap="round" stroke-linejoin="round" />
    <circle cx="17" cy="6" r="4" stroke="currentColor" stroke-width="2" stroke-linecap="round" stroke-linejoin="round" />
    <path d="M17 4V6L18.5 6.5" stroke="currentColor" stroke-width="2" stroke-linecap="round" stroke-linejoin="round" />
    <path d="M6.125 16H6M6.25 16C6.25 16.1381 6.13807 16.25 6 16.25C5.86193 16.25 5.75 16.1381 5.75 16C5.75 15.8619 5.86193 15.75 6 15.75C6.13807 15.75 6.25 15.8619 6.25 16Z" stroke="currentColor" stroke-width="2" stroke-linecap="round" stroke-linejoin="round" />
    <path d="M18.125 16H18M18.25 16C18.25 16.1381 18.1381 16.25 18 16.25C17.8619 16.25 17.75 16.1381 17.75 16C17.75 15.8619 17.8619 15.75 18 15.75C18.1381 15.75 18.25 15.8619 18.25 16Z" stroke="currentColor" stroke-width="2" stroke-linecap="round" stroke-linejoin="round" />
</svg>