<svg xmlns="http://www.w3.org/2000/svg" width="24" height="24" viewBox="0 0 24 24" fill="none">
    <path d="M8 11V11.5" stroke="currentColor" stroke-width="2" stroke-linecap="round" stroke-linejoin="round" />
    <path d="M16 11V11.5" stroke="currentColor" stroke-width="2" stroke-linecap="round" stroke-linejoin="round" />
    <path d="M11 15H13L12 16L11 15Z" stroke="currentColor" stroke-width="2" stroke-linecap="round" stroke-linejoin="round" />
    <path d="M12 21C16.9706 21 21 17.4183 21 13C21 11.6777 20.6391 10.4303 20 9.33138C20.8117 7.03311 20.5253 4.87911 20.2104 3.67475C20.1028 3.26318 19.7182 3 19.2928 3C19.1015 3 18.914 3.05377 18.7517 3.15519L15 5.5C15 5.5 14 5 12 5C10 5 9 5.5 9 5.5L5.24831 3.15519C5.08604 3.05377 4.89854 3 4.70718 3C4.28177 3 3.89723 3.26318 3.78961 3.67475C3.4747 4.87911 3.18829 7.03311 4 9.33138C3.36093 10.4303 3 11.6777 3 13C3 17.4183 7.02944 21 12 21Z" stroke="currentColor" stroke-width="2" stroke-linecap="round" stroke-linejoin="round" />
</svg>