<svg xmlns="http://www.w3.org/2000/svg" width="24" height="24" viewBox="0 0 24 24" fill="none">
    <path d="M8 13.5V17C8 18.1046 7.10457 19 6 19H3" stroke="currentColor" stroke-width="2" stroke-linecap="round" stroke-linejoin="round" />
    <path d="M20.3336 12.1613C20.859 12.3534 21.1299 12.9368 20.9387 13.4645L20.2805 15.2806M8.51164 3.51172L19.0464 7.3627C19.4714 7.51808 19.6906 7.99011 19.5359 8.417C19.4924 8.537 19.4217 8.64518 19.3293 8.73298L16.4607 11.4608M4.71682 4.7169L3.12266 9.11584C2.7402 10.1712 3.28199 11.3381 4.33278 11.7222L11.7187 14.4221C12.4393 14.6856 13.2463 14.5175 13.8032 13.9879L13.8978 13.8979" stroke="currentColor" stroke-width="2" stroke-linecap="round" stroke-linejoin="round" />
    <path d="M3 3L21 21" stroke="currentColor" stroke-width="2" stroke-linecap="round" stroke-linejoin="round" />
    <path d="M3 17V21" stroke="currentColor" stroke-width="2" stroke-linecap="round" stroke-linejoin="round" />
</svg>