<svg xmlns="http://www.w3.org/2000/svg" width="24" height="24" viewBox="0 0 24 24" fill="none">
    <path d="M14 2.5191C13.3467 2.50651 12.679 2.5 12 2.5C9.02653 2.5 6.26878 2.62488 3.99795 2.83797C3.10975 2.92132 2.40035 3.60654 2.30236 4.49324C2.11103 6.2244 2 8.28649 2 10.5C2 12.7135 2.11103 14.7756 2.30236 16.5068C2.40035 17.3935 3.10963 18.0787 3.99783 18.162C5.2074 18.2755 6.55512 18.364 8 18.4219V20.7701C8 21.1732 8.32679 21.5 8.72991 21.5C8.90419 21.5 9.07273 21.4376 9.20503 21.3242L12.5 18.4988C15.2825 18.4857 17.8593 18.3631 20.0024 18.162C20.8906 18.0786 21.5996 17.3935 21.6976 16.5068C21.889 14.7756 22 12.7135 22 10.5C22 10.3324 21.9994 10.1657 21.9981 10" stroke="currentColor" stroke-width="2" stroke-linecap="round" stroke-linejoin="round" />
    <path d="M22 5C22 6.38071 20.8807 7.5 19.5 7.5C18.1193 7.5 17 6.38071 17 5C17 3.61929 18.1193 2.5 19.5 2.5C20.8807 2.5 22 3.61929 22 5Z" stroke="currentColor" stroke-width="2" stroke-linecap="round" stroke-linejoin="round" />
    <path d="M12.1257 10.5H12.0007M8.125 10.5H8M16.125 10.5H16M12.2507 10.5C12.2507 10.6381 12.1388 10.75 12.0007 10.75C11.8627 10.75 11.7507 10.6381 11.7507 10.5C11.7507 10.3619 11.8627 10.25 12.0007 10.25C12.1388 10.25 12.2507 10.3619 12.2507 10.5ZM8.25 10.5C8.25 10.6381 8.13807 10.75 8 10.75C7.86193 10.75 7.75 10.6381 7.75 10.5C7.75 10.3619 7.86193 10.25 8 10.25C8.13807 10.25 8.25 10.3619 8.25 10.5ZM16.25 10.5C16.25 10.6381 16.1381 10.75 16 10.75C15.8619 10.75 15.75 10.6381 15.75 10.5C15.75 10.3619 15.8619 10.25 16 10.25C16.1381 10.25 16.25 10.3619 16.25 10.5Z" stroke="currentColor" stroke-width="2" stroke-linecap="round" stroke-linejoin="round" />
</svg>