<svg xmlns="http://www.w3.org/2000/svg" width="24" height="24" viewBox="0 0 24 24" fill="none">
    <path d="M5 21V20C5 18.8954 5.89543 18 7 18H17C18.1046 18 19 18.8954 19 20V21C19 21.5523 18.5523 22 18 22H6C5.44772 22 5 21.5523 5 21Z" stroke="currentColor" stroke-width="2" stroke-linecap="round" stroke-linejoin="round" />
    <path d="M4 11.5833C4 9.05203 5.68421 7 8 7C9.2 7 10.4 7.44118 12 9.20588C13.6 7.44118 14.8 7 16 7C18.3158 7 20 9.05203 20 11.5833C20 13.8457 18.4396 16.1415 16.697 18H7.30298C5.56044 16.1415 4 13.8457 4 11.5833Z" stroke="currentColor" stroke-width="2" stroke-linecap="round" stroke-linejoin="round" />
    <path d="M12 2V8" stroke="currentColor" stroke-width="2" stroke-linecap="round" stroke-linejoin="round" />
    <path d="M10 4H14" stroke="currentColor" stroke-width="2" stroke-linecap="round" stroke-linejoin="round" />
</svg>