<svg xmlns="http://www.w3.org/2000/svg" width="24" height="24" viewBox="0 0 24 24" fill="none">
    <path d="M7 21.9981L5 21.9981C3.89543 21.9981 3 21.1027 3 19.9981V5.5C3 4.39543 3.89543 3.5 5 3.5L7 3.5M15 3.5H17C18.1046 3.5 19 4.39543 19 5.5L19 7" stroke="currentColor" stroke-width="2" stroke-linecap="round" stroke-linejoin="round" />
    <path d="M13.5 2H8.5C7.67157 2 7 2.67157 7 3.5C7 4.32843 7.67157 5 8.5 5H13.5C14.3284 5 15 4.32843 15 3.5C15 2.67157 14.3284 2 13.5 2Z" stroke="currentColor" stroke-width="2" stroke-linecap="round" stroke-linejoin="round" />
    <circle cx="15" cy="16" r="6" stroke="currentColor" stroke-width="2" stroke-linecap="round" stroke-linejoin="round" />
    <path d="M15 13.5V16L16.5 17" stroke="currentColor" stroke-width="2" stroke-linecap="round" stroke-linejoin="round" />
</svg>