<svg xmlns="http://www.w3.org/2000/svg" width="24" height="24" viewBox="0 0 24 24" fill="none">
    <path d="M14 21.9985H16M14 21.9985C13.1716 21.9985 12.5 21.327 12.5 20.4985V17.9985L12 17.9985M14 21.9985H10M10 21.9985H8M10 21.9985C10.8284 21.9985 11.5 21.327 11.5 20.4985V17.9985L12 17.9985M12 17.9985V21.9985" stroke="currentColor" stroke-width="2" stroke-linecap="round" stroke-linejoin="round" />
    <path d="M22 12.9985V15.9985C22 17.1031 21.1046 17.9985 20 17.9985H4C2.89543 17.9985 2 17.1031 2 15.9985V5.99854C2 4.89397 2.89543 3.99854 4 3.99854H11" stroke="currentColor" stroke-width="2" stroke-linecap="round" stroke-linejoin="round" />
    <path d="M22 5.49854V2.99854C20 2.99854 18.5 1.99854 18.5 1.99854C18.5 1.99854 17 2.99854 15 2.99854V5.49854C15 8.99854 18.5 9.99854 18.5 9.99854C18.5 9.99854 22 8.99854 22 5.49854Z" stroke="currentColor" stroke-width="2" stroke-linecap="round" stroke-linejoin="round" />
</svg>