<svg xmlns="http://www.w3.org/2000/svg" width="24" height="24" viewBox="0 0 24 24" fill="none">
    <path d="M19 2.0022H5C3.89543 2.0022 3 2.89763 3 4.0022V17.0022C3 18.1068 3.89543 19.0022 5 19.0022H9.5L11.2226 21.5862C11.3959 21.8461 11.6876 22.0022 12 22.0022C12.3124 22.0022 12.6041 21.8461 12.7774 21.5862L14.5 19.0022H19C20.1046 19.0022 21 18.1068 21 17.0022V4.0022C21 2.89763 20.1046 2.0022 19 2.0022Z" stroke="currentColor" stroke-width="2" stroke-linecap="round" stroke-linejoin="round" />
    <path d="M14.5 8.5022C14.5 9.88291 13.3807 11.0022 12 11.0022C10.6193 11.0022 9.5 9.88291 9.5 8.5022C9.5 7.12149 10.6193 6.0022 12 6.0022C13.3807 6.0022 14.5 7.12149 14.5 8.5022Z" stroke="currentColor" stroke-width="2" stroke-linecap="round" stroke-linejoin="round" />
    <path d="M16 15.0022C16 12.7931 14.2091 11.0022 12 11.0022C9.79086 11.0022 8 12.7931 8 15.0022" stroke="currentColor" stroke-width="2" stroke-linecap="round" stroke-linejoin="round" />
</svg>