<svg xmlns="http://www.w3.org/2000/svg" width="24" height="24" viewBox="0 0 24 24" fill="none">
    <path d="M7 4L4 2V22L7 20L9.5 22L12 20L14.5 22L17 20L20 22V2L17 4L14.5 2L12 4L9.5 2L7 4Z" stroke="currentColor" stroke-width="2" stroke-linecap="round" stroke-linejoin="round" />
    <path d="M15 9L9 15" stroke="currentColor" stroke-width="2" stroke-linecap="round" stroke-linejoin="round" />
    <path d="M9.375 9.25H9.25M9.5 9.25C9.5 9.38807 9.38807 9.5 9.25 9.5C9.11193 9.5 9 9.38807 9 9.25C9 9.11193 9.11193 9 9.25 9C9.38807 9 9.5 9.11193 9.5 9.25Z" stroke="currentColor" stroke-width="2" stroke-linecap="round" stroke-linejoin="round" />
    <path d="M14.875 14.75H14.75M15 14.75C15 14.8881 14.8881 15 14.75 15C14.6119 15 14.5 14.8881 14.5 14.75C14.5 14.6119 14.6119 14.5 14.75 14.5C14.8881 14.5 15 14.6119 15 14.75Z" stroke="currentColor" stroke-width="2" stroke-linecap="round" stroke-linejoin="round" />
</svg>