<svg xmlns="http://www.w3.org/2000/svg" width="24" height="24" viewBox="0 0 24 24" fill="none">
    <path d="M17.5 6.00195H6.5C5.67157 6.00195 5 6.67353 5 7.50195V8.00195C5 8.55424 5.44772 9.00195 6 9.00195H18C18.5523 9.00195 19 8.55424 19 8.00195V7.50195C19 6.67353 18.3284 6.00195 17.5 6.00195Z" stroke="currentColor" stroke-width="2" stroke-linecap="round" stroke-linejoin="round" />
    <path d="M15.1479 22.002H8.85206C7.80699 22.002 6.93811 21.1973 6.85795 20.1553L6 9.00195H18L17.142 20.1553C17.0619 21.1973 16.193 22.002 15.1479 22.002Z" stroke="currentColor" stroke-width="2" stroke-linecap="round" stroke-linejoin="round" />
    <path d="M13 6.00195L13.8106 2.75942C13.9219 2.31425 14.3219 2.00195 14.7808 2.00195H17" stroke="currentColor" stroke-width="2" stroke-linecap="round" stroke-linejoin="round" />
</svg>