<svg xmlns="http://www.w3.org/2000/svg" width="24" height="24" viewBox="0 0 24 24" fill="none">
    <path d="M11 20H4C2.89543 20 2 19.1046 2 18V4C2 2.89543 2.89543 2 4 2H18C19.1046 2 20 2.89543 20 4V10" stroke="currentColor" stroke-width="2" stroke-linecap="round" stroke-linejoin="round" />
    <path d="M2 11H11" stroke="currentColor" stroke-width="2" stroke-linecap="round" stroke-linejoin="round" />
    <path d="M10 6.5L16 6.5" stroke="currentColor" stroke-width="2" stroke-linecap="round" stroke-linejoin="round" />
    <path d="M6.125 6.5H6M6.25 6.5C6.25 6.63807 6.13807 6.75 6 6.75C5.86193 6.75 5.75 6.63807 5.75 6.5C5.75 6.36193 5.86193 6.25 6 6.25C6.13807 6.25 6.25 6.36193 6.25 6.5Z" stroke="currentColor" stroke-width="2" stroke-linecap="round" stroke-linejoin="round" />
    <path d="M6.125 15.5H6M6.25 15.5C6.25 15.6381 6.13807 15.75 6 15.75C5.86193 15.75 5.75 15.6381 5.75 15.5C5.75 15.3619 5.86193 15.25 6 15.25C6.13807 15.25 6.25 15.3619 6.25 15.5Z" stroke="currentColor" stroke-width="2" stroke-linecap="round" stroke-linejoin="round" />
    <path d="M21.4649 15.5C20.7733 14.3044 19.4806 13.5 18 13.5C16.5252 13.5 15.2368 14.2982 14.5432 15.4861M14.5351 19.5C15.2267 20.6956 16.5194 21.5 18 21.5C19.571 21.5 20.9304 20.5944 21.5847 19.2767M17 16H14V13M19 19H22V22" stroke="currentColor" stroke-width="2" stroke-linecap="round" stroke-linejoin="round" />
</svg>