<svg xmlns="http://www.w3.org/2000/svg" width="24" height="24" viewBox="0 0 24 24" fill="none">
    <path d="M21 5C21 3.89543 20.1046 3 19 3H5C3.89543 3 3 3.89543 3 5V19C3 20.1046 3.89543 21 5 21H19C20.1046 21 21 20.1046 21 19V5Z" stroke="currentColor" stroke-width="2" stroke-linecap="round" stroke-linejoin="round" />
    <path d="M8.12493 16.9616L14.1621 15.104C14.384 15.0357 14.5858 14.9142 14.75 14.75C14.9142 14.5858 15.0357 14.384 15.104 14.1621L16.9616 8.12493C16.987 8.04211 17 7.95594 17 7.86929C17 7.38919 16.6108 7 16.1307 7C16.0441 7 15.9579 7.01296 15.8751 7.03844L9.83792 8.89602C9.61601 8.9643 9.41417 9.08583 9.25 9.25C9.08583 9.41417 8.9643 9.61601 8.89602 9.83792L7.03844 15.8751C7.01296 15.9579 7 16.0441 7 16.1307C7 16.6108 7.38919 17 7.86929 17C7.95594 17 8.04211 16.987 8.12493 16.9616Z" stroke="currentColor" stroke-width="2" stroke-linecap="round" stroke-linejoin="round" />
    <path d="M12.125 12H12M12.25 12C12.25 12.1381 12.1381 12.25 12 12.25C11.8619 12.25 11.75 12.1381 11.75 12C11.75 11.8619 11.8619 11.75 12 11.75C12.1381 11.75 12.25 11.8619 12.25 12Z" stroke="currentColor" stroke-width="2" stroke-linecap="round" stroke-linejoin="round" />
</svg>