<svg xmlns="http://www.w3.org/2000/svg" width="24" height="24" viewBox="0 0 24 24" fill="none">
    <path d="M10.9076 17.2286C10.4863 17.3415 10.0419 17.3403 9.62497 17.212C7.11574 16.44 4.13412 15.1317 3.30036 12.02L2.06761 7.41935C1.87141 6.68714 2.10281 5.89734 2.75415 5.50956C3.86919 4.84571 5.46364 4.19345 7.28418 3.70564C9.10472 3.21783 10.8117 2.98547 12.1093 3.00286C12.8672 3.01302 13.4625 3.58131 13.6587 4.31352L14.3791 7.00195" stroke="currentColor" stroke-width="2" stroke-linecap="round" stroke-linejoin="round" />
    <path d="M22 14.002C22 17.2234 19.4586 19.2588 17.2347 20.654C16.8652 20.8858 16.4362 21.002 16 21.002C15.5638 21.002 15.1348 20.8858 14.7653 20.654C12.5414 19.2588 10 17.2234 10 14.002V9.23897C10 8.48093 10.4279 7.77793 11.1574 7.57194C12.4063 7.21931 14.1152 7.00195 16 7.00195C17.8848 7.00195 19.5937 7.21931 20.8426 7.57194C21.5721 7.77793 22 8.48093 22 9.23897V14.002Z" stroke="currentColor" stroke-width="2" stroke-linejoin="round" />
    <path d="M18 15.502C17.6008 16.0998 16.8546 16.502 16 16.502C15.1454 16.502 14.3992 16.0998 14 15.502" stroke="currentColor" stroke-width="2" stroke-linecap="round" stroke-linejoin="round" />
    <path d="M18 11.502H19" stroke="currentColor" stroke-width="2" stroke-linecap="round" stroke-linejoin="round" />
    <path d="M13 11.502H14" stroke="currentColor" stroke-width="2" stroke-linecap="round" stroke-linejoin="round" />
    <path d="M7.68139 12.917C7.91228 12.2362 8.52893 11.6546 9.35443 11.4334C9.57128 11.3753 9.78808 11.346 9.99969 11.3428M5.55078 8.82913L6.51671 8.57031" stroke="currentColor" stroke-width="2" stroke-linecap="round" stroke-linejoin="round" />
</svg>