<svg xmlns="http://www.w3.org/2000/svg" width="24" height="24" viewBox="0 0 24 24" fill="none">
    <path d="M9.14564 4.14564C10.0803 3.2774 10.9138 2.60098 11.4354 2.19559C11.771 1.9348 12.2307 1.9348 12.5663 2.19559C14.4659 3.67189 20.5009 8.74262 20.5009 13.5821C20.5009 14.1616 20.4381 14.7435 20.3157 15.3157M6.69707 6.69707C4.97591 8.74041 3.50085 11.1895 3.50085 13.5821C3.50085 17.7318 6.71963 22 12.0009 22C14.9656 22 17.2805 20.6549 18.7407 18.7407" stroke="currentColor" stroke-width="2" stroke-linecap="round" stroke-linejoin="round" />
    <path d="M12.0009 17.9994C13.6228 17.9994 15.0193 17.034 15.6471 15.6465" stroke="currentColor" stroke-width="2" stroke-linecap="round" stroke-linejoin="round" />
    <path d="M2 2L22 22" stroke="currentColor" stroke-width="2" stroke-linecap="round" stroke-linejoin="round" />
</svg>