<svg xmlns="http://www.w3.org/2000/svg" width="24" height="24" viewBox="0 0 24 24" fill="none">
    <path d="M5.00312 18.0063C5.1592 15.5109 5.61873 13.6848 6.00812 12.6241C6.20471 12.0886 6.62766 11.6898 7.16915 11.5562C10.1739 10.8146 13.826 10.8146 16.8307 11.5562C17.3722 11.6898 17.7952 12.0886 17.9917 12.6241C18.3811 13.6848 18.8407 15.5109 18.9967 18.0063C19.0893 19.4855 17.1856 20.3914 16.0014 21L14.7914 18.9852C14.6106 18.6841 14.2852 18.5 13.9341 18.5H10.083C9.72273 18.5 9.39028 18.6938 9.21279 19.0074L8.08485 21C6.90062 20.3914 4.9106 19.4855 5.00312 18.0063Z" stroke="currentColor" stroke-width="2" stroke-linecap="round" stroke-linejoin="round" />
    <path d="M22 14.5V5C22 3.89543 21.1046 3 20 3H4C2.89543 3 2 3.89543 2 5V14.5" stroke="currentColor" stroke-width="2" stroke-linecap="round" stroke-linejoin="round" />
    <path d="M11 7H13" stroke="currentColor" stroke-width="2" stroke-linecap="round" stroke-linejoin="round" />
    <path d="M9.125 15H9M9.25 15C9.25 15.1381 9.13807 15.25 9 15.25C8.86193 15.25 8.75 15.1381 8.75 15C8.75 14.8619 8.86193 14.75 9 14.75C9.13807 14.75 9.25 14.8619 9.25 15Z" stroke="currentColor" stroke-width="2" stroke-linecap="round" />
    <path d="M15.125 15H15M15.25 15C15.25 15.1381 15.1381 15.25 15 15.25C14.8619 15.25 14.75 15.1381 14.75 15C14.75 14.8619 14.8619 14.75 15 14.75C15.1381 14.75 15.25 14.8619 15.25 15Z" stroke="currentColor" stroke-width="2" stroke-linecap="round" />
</svg>