<svg xmlns="http://www.w3.org/2000/svg" width="24" height="24" viewBox="0 0 24 24" fill="none">
    <path d="M20.6222 11.1725L13.808 5.2669C13.6093 5.09476 13.3553 5 13.0925 5C12.4891 5 12 5.48912 12 6.09247V17.9075C12 18.5109 12.4891 19 13.0925 19C13.3553 19 13.6093 18.9052 13.808 18.7331L20.6222 12.8275C20.8621 12.6195 21 12.3176 21 12C21 11.6824 20.8621 11.3805 20.6222 11.1725Z" stroke="currentColor" stroke-width="2" stroke-linecap="round" stroke-linejoin="round" />
    <path d="M11.6222 11.1725L4.80796 5.2669C4.60934 5.09476 4.35531 5 4.09247 5C3.48912 5 3 5.48912 3 6.09247V17.9075C3 18.5109 3.48912 19 4.09247 19C4.35531 19 4.60934 18.9052 4.80796 18.7331L11.6222 12.8275C11.8621 12.6195 12 12.3176 12 12C12 11.6824 11.8621 11.3805 11.6222 11.1725Z" stroke="currentColor" stroke-width="2" stroke-linecap="round" stroke-linejoin="round" />
</svg>