<svg xmlns="http://www.w3.org/2000/svg" width="24" height="24" viewBox="0 0 24 24" fill="none">
    <path d="M5 8V4C5 2.89543 5.89543 2 7 2H14L21 9V20C21 21.1046 20.1046 22 19 22H17" stroke="currentColor" stroke-width="2" stroke-linecap="round" stroke-linejoin="round" />
    <path d="M6 19C6 18.4477 5.55228 18 5 18H3V21C3 21.5523 3.44772 22 4 22H5C5.55228 22 6 21.5523 6 21V19Z" stroke="currentColor" stroke-width="2" stroke-linecap="round" stroke-linejoin="round" />
    <path d="M13 18H11C10.4477 18 10 18.4477 10 19V21C10 21.5523 10.4477 22 11 22H12C12.5523 22 13 21.5523 13 21V18Z" stroke="currentColor" stroke-width="2" stroke-linecap="round" stroke-linejoin="round" />
    <path d="M3 18V17C3 14.2386 5.23858 12 8 12C10.7614 12 13 14.2386 13 17V18" stroke="currentColor" stroke-width="2" stroke-linecap="round" stroke-linejoin="round" />
    <path d="M14 2V7C14 8.10457 14.8954 9 16 9H21" stroke="currentColor" stroke-width="2" stroke-linecap="round" stroke-linejoin="round" />
</svg>