<svg xmlns="http://www.w3.org/2000/svg" width="24" height="24" viewBox="0 0 24 24" fill="none">
    <path d="M14 10.5V3.5C14 2.67157 14.6716 2 15.5 2H18.3787C18.7765 2 19.158 2.15804 19.4393 2.43934L21.5607 4.56066C21.842 4.84196 22 5.2235 22 5.62132V10.5C22 11.3284 21.3284 12 20.5 12H15.5C14.6716 12 14 11.3284 14 10.5Z" stroke="currentColor" stroke-width="2" stroke-linecap="round" stroke-linejoin="round" />
    <path d="M16 15.5C16 16.3284 15.3284 17 14.5 17H9.5C8.67157 17 8 16.3284 8 15.5V8.5C8 7.67157 8.67157 7 9.5 7H10.5" stroke="currentColor" stroke-width="2" stroke-linecap="round" stroke-linejoin="round" />
    <path d="M10 20.5C10 21.3284 9.32843 22 8.5 22H3.5C2.67157 22 2 21.3284 2 20.5V13.5C2 12.6716 2.67157 12 3.5 12H4.5" stroke="currentColor" stroke-width="2" stroke-linecap="round" stroke-linejoin="round" />
</svg>