<svg xmlns="http://www.w3.org/2000/svg" width="24" height="24" viewBox="0 0 24 24" fill="none">
    <path d="M4.5 11V4C4.5 2.89543 5.39543 2 6.5 2H13.5L20.5 9V20C20.5 21.1046 19.6046 22 18.5 22H14.5" stroke="currentColor" stroke-width="2" stroke-linecap="round" stroke-linejoin="round" />
    <path d="M13.5 2V7C13.5 8.10457 14.3954 9 15.5 9H20.5" stroke="currentColor" stroke-width="2" stroke-linecap="round" stroke-linejoin="round" />
    <path d="M14.5 15.9164C13.0924 14.4234 11.1479 13.5 9 13.5C6.85212 13.5 4.90757 14.4234 3.5 15.9164M6.25 18.8333C6.95379 18.0868 7.92606 17.6251 9 17.6251C10.0739 17.6251 11.0462 18.0868 11.75 18.8333M9.12579 21.75H9.00079M9.25079 21.75C9.25079 21.8881 9.13886 22 9.00079 22C8.86272 22 8.75079 21.8881 8.75079 21.75C8.75079 21.6119 8.86272 21.5 9.00079 21.5C9.13886 21.5 9.25079 21.6119 9.25079 21.75Z" stroke="currentColor" stroke-width="2" stroke-linecap="round" stroke-linejoin="round" />
</svg>