<svg xmlns="http://www.w3.org/2000/svg" width="24" height="24" viewBox="0 0 24 24" fill="none">
    <path d="M4.5 8V4C4.5 2.89543 5.39543 2 6.5 2H13.5L20.5 9V20C20.5 21.1046 19.6046 22 18.5 22H10.5" stroke="currentColor" stroke-width="2" stroke-linecap="round" stroke-linejoin="round" />
    <path d="M13.5 2V7C13.5 8.10457 14.3954 9 15.5 9H20.5" stroke="currentColor" stroke-width="2" stroke-linecap="round" stroke-linejoin="round" />
    <path d="M3.5 14.5C3.5 13.1193 4.6193 12 6 12C7.3807 12 8.5 13.1193 8.5 14.5C8.5 15.3569 8.06886 16.1131 7.41166 16.5636C6.72833 17.0319 6 17.6716 6 18.5" stroke="currentColor" stroke-width="2" stroke-linecap="round" stroke-linejoin="round" />
    <path d="M6.125 21.75H6M6.25 21.75C6.25 21.8881 6.13807 22 6 22C5.86193 22 5.75 21.8881 5.75 21.75C5.75 21.6119 5.86193 21.5 6 21.5C6.13807 21.5 6.25 21.6119 6.25 21.75Z" stroke="currentColor" stroke-width="2" stroke-linecap="round" stroke-linejoin="round" />
</svg>