<svg xmlns="http://www.w3.org/2000/svg" width="24" height="24" viewBox="0 0 24 24" fill="none">
    <path d="M20 20V9L13 2H6C4.89543 2 4 2.89543 4 4V20C4 21.1046 4.89543 22 6 22H18C19.1046 22 20 21.1046 20 20Z" stroke="currentColor" stroke-width="2" stroke-linecap="round" stroke-linejoin="round" />
    <path d="M13 2V7C13 8.10457 13.8954 9 15 9H20" stroke="currentColor" stroke-width="2" stroke-linecap="round" stroke-linejoin="round" />
    <path d="M14.5629 14.2572L10.6799 12.0999C10.5619 12.0344 10.4292 12 10.2942 12C9.85558 12 9.5 12.3556 9.5 12.7942V17.2058C9.5 17.6444 9.85558 18 10.2942 18C10.4292 18 10.5619 17.9656 10.6799 17.9001L14.5629 15.7428C14.8327 15.593 15 15.3086 15 15C15 14.6914 14.8327 14.407 14.5629 14.2572Z" stroke="currentColor" stroke-width="2" stroke-linecap="round" stroke-linejoin="round" />
</svg>