<svg xmlns="http://www.w3.org/2000/svg" width="24" height="24" viewBox="0 0 24 24" fill="none">
    <path d="M10 20V10C10 7.79086 11.7909 6 14 6C16.2091 6 18 7.79086 18 10V20C18 21.1046 17.1046 22 16 22H12C10.8954 22 10 21.1046 10 20Z" stroke="currentColor" stroke-width="2" stroke-linecap="round" stroke-linejoin="round" />
    <path d="M10 13H18" stroke="currentColor" stroke-width="2" stroke-linecap="round" stroke-linejoin="round" />
    <path d="M12 6V3C12 2.44772 12.4477 2 13 2H15C15.5523 2 16 2.44772 16 3V6" stroke="currentColor" stroke-width="2" stroke-linecap="round" stroke-linejoin="round" />
    <path d="M12 3H11C8.23855 3 5.99997 5.23858 5.99997 8V14C5.99997 15.1046 5.10454 16 3.99997 16" stroke="currentColor" stroke-width="2" stroke-linecap="round" stroke-linejoin="round" />
    <path d="M16 3H20" stroke="currentColor" stroke-width="2" stroke-linecap="round" stroke-linejoin="round" />
</svg>