<svg xmlns="http://www.w3.org/2000/svg" width="24" height="24" viewBox="0 0 24 24" fill="none">
    <path d="M16 19H22" stroke="currentColor" stroke-width="2" stroke-linecap="round" stroke-linejoin="round" />
    <path d="M17 19V3" stroke="currentColor" stroke-width="2" stroke-linecap="round" stroke-linejoin="round" />
    <path d="M8 19H12" stroke="currentColor" stroke-width="2" stroke-linecap="round" stroke-linejoin="round" />
    <path d="M14 21C15.1046 21 16 20.1046 16 19C16 17.8954 15.1046 17 14 17C12.8954 17 12 17.8954 12 19C12 20.1046 12.8954 21 14 21Z" stroke="currentColor" stroke-width="2" stroke-linecap="round" stroke-linejoin="round" />
    <path d="M6 21C7.10457 21 8 20.1046 8 19C8 17.8954 7.10457 17 6 17C4.89543 17 4 17.8954 4 19C4 20.1046 4.89543 21 6 21Z" stroke="currentColor" stroke-width="2" stroke-linecap="round" stroke-linejoin="round" />
    <path d="M4 19H3C2.44772 19 2 18.5523 2 18V13C2 11.8954 2.89543 11 4 11H8" stroke="currentColor" stroke-width="2" stroke-linecap="round" stroke-linejoin="round" />
    <path d="M10 14H16.5L13.4959 6.27511C13.1969 5.50636 12.4567 5 11.6319 5H9C8.44772 5 8 5.44772 8 6V12C8 13.1046 8.89543 14 10 14Z" stroke="currentColor" stroke-width="2" stroke-linecap="round" stroke-linejoin="round" />
</svg>