<svg xmlns="http://www.w3.org/2000/svg" width="24" height="24" viewBox="0 0 24 24" fill="none">
    <path d="M9.49999 6.08579V4C9.49999 3.44772 9.9477 3 10.5 3H13.5C14.0523 3 14.5 3.44772 14.5 4V6.08579C14.5 6.351 14.3946 6.60536 14.2071 6.79289L12.8535 8.14645C12.6272 8.37282 12.3201 8.5 12 8.5C11.6798 8.5 11.3728 8.37282 11.1464 8.14645L9.79288 6.79289C9.60535 6.60536 9.49999 6.351 9.49999 6.08579Z" stroke="currentColor" stroke-width="2" stroke-linecap="round" stroke-linejoin="round" />
    <path d="M9.49999 17.9142V20C9.49999 20.5523 9.9477 21 10.5 21H13.5C14.0523 21 14.5 20.5523 14.5 20V17.9142C14.5 17.649 14.3946 17.3946 14.2071 17.2071L12.8535 15.8536C12.6272 15.6272 12.3201 15.5 12 15.5C11.6798 15.5 11.3728 15.6272 11.1464 15.8536L9.79288 17.2071C9.60535 17.3946 9.49999 17.649 9.49999 17.9142Z" stroke="currentColor" stroke-width="2" stroke-linecap="round" stroke-linejoin="round" />
    <path d="M17.9142 9.5H20C20.5523 9.5 21 9.94772 21 10.5V13.5C21 14.0523 20.5523 14.5 20 14.5H17.9142C17.649 14.5 17.3946 14.3946 17.2071 14.2071L15.8535 12.8536C15.6271 12.6272 15.5 12.3201 15.5 12C15.5 11.6799 15.6271 11.3728 15.8535 11.1464L17.2071 9.79289C17.3946 9.60536 17.649 9.5 17.9142 9.5Z" stroke="currentColor" stroke-width="2" stroke-linecap="round" stroke-linejoin="round" />
    <path d="M6.08576 9.5H3.99997C3.44768 9.5 2.99997 9.94771 2.99997 10.5L2.99997 13.5C2.99997 14.0523 3.44768 14.5 3.99997 14.5H6.08576C6.35097 14.5 6.60533 14.3946 6.79286 14.2071L8.14642 12.8536C8.37279 12.6272 8.49997 12.3201 8.49997 12C8.49997 11.6799 8.37279 11.3728 8.14642 11.1464L6.79286 9.79289C6.60533 9.60536 6.35097 9.5 6.08576 9.5Z" stroke="currentColor" stroke-width="2" stroke-linecap="round" stroke-linejoin="round" />
</svg>