<svg xmlns="http://www.w3.org/2000/svg" width="24" height="24" viewBox="0 0 24 24" fill="none">
    <path d="M5 9C6.65685 9 8 7.65685 8 6C8 4.34315 6.65685 3 5 3C3.34315 3 2 4.34315 2 6C2 7.65685 3.34315 9 5 9Z" stroke="currentColor" stroke-width="2" stroke-linecap="round" stroke-linejoin="round" />
    <path d="M5 13V21" stroke="currentColor" stroke-width="2" stroke-linecap="round" stroke-linejoin="round" />
    <path d="M19 21C20.6569 21 22 19.6569 22 18C22 16.3431 20.6569 15 19 15C17.3431 15 16 16.3431 16 18C16 19.6569 17.3431 21 19 21Z" stroke="currentColor" stroke-width="2" stroke-linecap="round" stroke-linejoin="round" />
    <path d="M15 9L12 6L15 3" stroke="currentColor" stroke-width="2" stroke-linecap="round" stroke-linejoin="round" />
    <path d="M12 6H17C17.5304 6 18.0391 6.21071 18.4142 6.58579C18.7893 6.96086 19 7.46957 19 8V11" stroke="currentColor" stroke-width="2" stroke-linecap="round" stroke-linejoin="round" />
</svg>