<svg xmlns="http://www.w3.org/2000/svg" width="24" height="24" viewBox="0 0 24 24" fill="none">
    <path d="M21 4L19 2L17 4M19 2.5V7" stroke="currentColor" stroke-width="2" stroke-linecap="round" stroke-linejoin="round" />
    <path d="M12 15C13.6569 15 15 13.6569 15 12C15 10.3431 13.6569 9 12 9C10.3431 9 9 10.3431 9 12C9 13.6569 10.3431 15 12 15Z" stroke="currentColor" stroke-width="2" stroke-linecap="round" stroke-linejoin="round" />
    <path d="M13.7071 3.70711C13.2544 3.25435 12.6403 3 12 3C11.3597 3 10.7456 3.25435 10.2929 3.70711L3.70711 10.2929C3.25435 10.7456 3 11.3597 3 12C3 12.6403 3.25435 13.2544 3.70711 13.7071L10.2929 20.2929C10.7456 20.7456 11.3597 21 12 21C12.6403 21 13.2544 20.7456 13.7071 20.2929L20.2929 13.7071C20.7456 13.2544 21 12.6403 21 12C21 11.3597 20.7456 10.7456 20.2929 10.2929" stroke="currentColor" stroke-width="2" stroke-linecap="round" stroke-linejoin="round" />
</svg>