<svg xmlns="http://www.w3.org/2000/svg" width="24" height="24" viewBox="0 0 24 24" fill="none">
    <path d="M20 14L20.2929 13.7071C20.7456 13.2544 21 12.6403 21 12C21 11.3597 20.7456 10.7456 20.2929 10.2929L13.7071 3.70711C13.2544 3.25435 12.6403 3 12 3C11.3597 3 10.7456 3.25435 10.2929 3.70711L3.70711 10.2929C3.25435 10.7456 3 11.3597 3 12C3 12.6403 3.25435 13.2544 3.70711 13.7071L10.2929 20.2929C10.7456 20.7456 11.3597 21 12 21C12.6403 21 13.2544 20.7456 13.7071 20.2929L14 20" stroke="currentColor" stroke-width="2" stroke-linecap="round" stroke-linejoin="round" />
    <path d="M21 20L19 22L17 20M19 21.5V17" stroke="currentColor" stroke-width="2" stroke-linecap="round" stroke-linejoin="round" />
    <circle cx="12" cy="12" r="3" stroke="currentColor" stroke-width="2" stroke-linecap="round" stroke-linejoin="round" />
</svg>