<svg xmlns="http://www.w3.org/2000/svg" width="24" height="24" viewBox="0 0 24 24" fill="none">
    <path d="M14.5 8.5C13.6329 8.93354 11.1118 9.6678 8.63166 9.59459C7.98001 9.57536 7.5 9.01576 7.5 8.36382C7.5 7.83978 7.81034 7.36414 8.27344 7.11885C9.43779 6.50214 11.2483 5.42182 12.4971 4.64198C13.1564 4.23033 13.9147 4 14.692 4C15.2251 4 15.7527 4.10829 16.2427 4.31831L18.8113 5.41914C18.9358 5.47249 19.0698 5.5 19.2053 5.5H21C21.5523 5.5 22 5.94772 22 6.5V14.25C22 14.6642 21.6642 15 21.25 15C21.0877 15 20.9298 15.0526 20.8 15.15L19.8 15.9C19.2807 16.2895 18.6491 16.5 18 16.5H14" stroke="currentColor" stroke-width="2" stroke-linecap="round" stroke-linejoin="round" />
    <path d="M14.5 8.5L17.5713 11.9785C18.0912 12.5503 18.0703 13.4297 17.5238 13.9762C16.9584 14.5416 16.0416 14.5416 15.4762 13.9762C16.0285 14.5285 16.0523 15.4477 15.5 16C14.9477 16.5523 14.0523 16.5523 13.5 16L13 15.5C13.5523 16.0523 13.5523 16.9477 13 17.5C12.4477 18.0523 11.5523 18.0523 11 17.5C11.5523 18.0523 11.5523 18.9477 11 19.5L10.9393 19.5607C10.658 19.842 10.2765 20 9.87868 20H9.75C9.26978 20 8.80923 19.8092 8.46967 19.4697L4.58579 15.5858C4.21071 15.2107 3.70201 15 3.17157 15H3C2.44772 15 2 14.5523 2 14V6.5C2 5.94772 2.44772 5.5 3 5.5H11" stroke="currentColor" stroke-width="2" stroke-linecap="round" stroke-linejoin="round" />
</svg>