<svg xmlns="http://www.w3.org/2000/svg" width="24" height="24" viewBox="0 0 24 24" fill="none">
    <path d="M15 4L17 4C18.1046 4 19 4.89543 19 6V20C19 21.1046 18.1046 22 17 22H7C5.89543 22 5 21.1046 5 20V6C5 4.89543 5.89543 4 7 4H11" stroke="currentColor" stroke-width="2" stroke-linecap="round" stroke-linejoin="round" />
    <path d="M10 8H14" stroke="currentColor" stroke-width="2" stroke-linecap="round" stroke-linejoin="round" />
    <path d="M12 8L16 2M9.33333 4L8 2" stroke="currentColor" stroke-width="2" stroke-linecap="round" stroke-linejoin="round" />
    <path d="M14.5 14.5C14.5 13.1193 13.3807 12 12 12C10.6193 12 9.5 13.1193 9.5 14.5C9.5 15.8807 10.6193 17 12 17C13.3807 17 14.5 15.8807 14.5 14.5Z" stroke="currentColor" stroke-width="2" stroke-linecap="round" stroke-linejoin="round" />
    <path d="M17 22C17 19.2386 14.7614 17 12 17C9.23857 17 7 19.2386 7 22" stroke="currentColor" stroke-width="2" stroke-linecap="round" stroke-linejoin="round" />
</svg>