<svg xmlns="http://www.w3.org/2000/svg" width="24" height="24" viewBox="0 0 24 24" fill="none">
    <path d="M2.5 16.5L7.46967 11.5303C7.80923 11.1908 8.26978 11 8.75 11C9.23022 11 9.69077 11.1908 10.0303 11.5303L11 12.5" stroke="currentColor" stroke-width="2" stroke-linecap="round" stroke-linejoin="round" />
    <path d="M15.5 8C15.7761 8 16 7.77614 16 7.5C16 7.22386 15.7761 7 15.5 7M15.5 8C15.2239 8 15 7.77614 15 7.5C15 7.22386 15.2239 7 15.5 7M15.5 8V7" stroke="currentColor" stroke-width="2" stroke-linecap="round" stroke-linejoin="round" />
    <path d="M21.5 11.998V4.5C21.5 3.39543 20.6046 2.5 19.5 2.5H4.5C3.39543 2.5 2.5 3.39543 2.5 4.5V19.5C2.5 20.6046 3.39543 21.5 4.5 21.5H11" stroke="currentColor" stroke-width="2" stroke-linecap="round" stroke-linejoin="round" />
    <path d="M21.0681 16.7461L15.6838 13.6053C15.5634 13.5351 15.4266 13.498 15.2872 13.498C14.8524 13.498 14.5 13.8505 14.5 14.2852V20.7109C14.5 21.1456 14.8524 21.498 15.2872 21.498C15.4266 21.498 15.5634 21.461 15.6838 21.3908L21.0681 18.25C21.3355 18.094 21.5 17.8077 21.5 17.498C21.5 17.1884 21.3355 16.9021 21.0681 16.7461Z" stroke="currentColor" stroke-width="2" stroke-linecap="round" stroke-linejoin="round" />
</svg>