<svg xmlns="http://www.w3.org/2000/svg" width="24" height="24" viewBox="0 0 24 24" fill="none">
    <path d="M13 14.4945L9.58876 17.9272H7.56509V19.9636H5.54142V22H2L2 18.4363C4.76157 15.7302 6.39257 14.132 9 11.5769" stroke="currentColor" stroke-width="2" stroke-linecap="round" stroke-linejoin="round" />
    <path d="M13.0991 2.57157C13.8614 1.80919 15.0979 1.80963 15.8603 2.57199C17.879 4.59061 19.4093 6.12095 21.428 8.13956C22.1904 8.90193 22.1908 10.1384 21.4285 10.9008L16.9012 15.4282C16.1388 16.1906 14.9027 16.1906 14.1403 15.4282L8.57179 9.85976C7.80941 9.09739 7.8094 7.86134 8.57177 7.09896L13.0991 2.57157Z" stroke="currentColor" stroke-width="2" />
    <path d="M15 6L18 9" stroke="currentColor" stroke-width="2" stroke-linecap="round" stroke-linejoin="round" />
</svg>