<svg xmlns="http://www.w3.org/2000/svg" width="24" height="24" viewBox="0 0 24 24" fill="none">
    <path d="M2.49914 20.3508C3.28503 21.2233 4.66737 21.2145 5.43669 20.3276L9.64516 15.4353L11.9455 17.7189C12.3577 18.1281 13.0311 18.1114 13.4222 17.6823L21.7365 8.55954C22.101 8.15968 22.0855 7.54637 21.7014 7.16507L17.6542 3.14722C17.4538 2.94829 17.1284 2.94983 16.93 3.15066L2.56147 17.6901C1.83671 18.4196 1.81112 19.5869 2.49914 20.3508Z" stroke="currentColor" stroke-width="2" stroke-linecap="round" stroke-linejoin="round" />
    <path d="M18.125 8H18M18.25 8C18.25 8.13807 18.1381 8.25 18 8.25C17.8619 8.25 17.75 8.13807 17.75 8C17.75 7.86193 17.8619 7.75 18 7.75C18.1381 7.75 18.25 7.86193 18.25 8Z" stroke="currentColor" stroke-width="2" stroke-linecap="round" stroke-linejoin="round" />
</svg>