<svg xmlns="http://www.w3.org/2000/svg" width="24" height="24" viewBox="0 0 24 24" fill="none">
    <path d="M13.9338 9.71533L18.7635 8.40184" stroke="currentColor" stroke-width="2" stroke-linecap="round" stroke-linejoin="round" />
    <path d="M12.8927 5.77312C12.7525 5.24194 13.0671 4.6971 13.5972 4.55292L16.4969 3.76431C17.0326 3.61861 17.5845 3.93721 17.7262 4.47401L21.3568 18.2267C21.497 18.7579 21.1824 19.3027 20.6523 19.4469L17.7526 20.2355C17.2169 20.3812 16.665 20.0626 16.5233 19.5258L12.8927 5.77312Z" stroke="currentColor" stroke-width="2" stroke-linejoin="round" />
    <path d="M2.60962 4.87988C2.60962 4.3276 3.05733 3.87988 3.60962 3.87988H6.60962C7.1619 3.87988 7.60962 4.3276 7.60962 4.87988V19.1197C7.60962 19.672 7.1619 20.1197 6.60962 20.1197H3.60962C3.05733 20.1197 2.60962 19.672 2.60962 19.1197V4.87988Z" stroke="currentColor" stroke-width="2" stroke-linejoin="round" />
    <path d="M2.60962 8.95496H7.60962" stroke="currentColor" stroke-width="2" stroke-linecap="round" stroke-linejoin="round" />
    <path d="M7.60962 8.95496H12.6096" stroke="currentColor" stroke-width="2" stroke-linecap="round" stroke-linejoin="round" />
    <path d="M7.60962 4.87988C7.60962 4.3276 8.05733 3.87988 8.60962 3.87988H11.6096C12.1619 3.87988 12.6096 4.3276 12.6096 4.87988V19.1197C12.6096 19.672 12.1619 20.1197 11.6096 20.1197H8.60962C8.05733 20.1197 7.60962 19.672 7.60962 19.1197V4.87988Z" stroke="currentColor" stroke-width="2" stroke-linejoin="round" />
</svg>