<svg xmlns="http://www.w3.org/2000/svg" width="24" height="24" viewBox="0 0 24 24" fill="none">
    <path d="M5.14286 14C4.41735 12.8082 4 11.4118 4 9.91886C4 8.24668 4.52361 6.69556 5.41738 5.41738M8.03786 3.03786C9.20596 2.37741 10.5585 2 12 2C16.4183 2 20 5.5454 20 9.91886C20 11.3746 19.6032 12.7386 18.9107 13.9107" stroke="currentColor" stroke-width="2" stroke-linecap="round" stroke-linejoin="round" />
    <path d="M15.9236 16H7L7.77208 18.3162C7.90819 18.7246 8.29033 19 8.72076 19L15.2792 19C15.7097 19 16.0918 18.7246 16.2279 18.3162L16.7309 16.8073" stroke="currentColor" stroke-width="2" stroke-linecap="round" stroke-linejoin="round" />
    <path d="M15 19L14.2279 21.3162C14.0918 21.7246 13.7097 22 13.2792 22H10.7208C10.2903 22 9.90819 21.7246 9.77208 21.3162L9 19" stroke="currentColor" stroke-width="2" stroke-linecap="round" stroke-linejoin="round" />
    <path d="M12 15.5V12" stroke="currentColor" stroke-width="2" stroke-linecap="round" stroke-linejoin="round" />
    <path d="M2 2L22 22" stroke="currentColor" stroke-width="2" stroke-linecap="round" stroke-linejoin="round" />
</svg>