<svg xmlns="http://www.w3.org/2000/svg" width="24" height="24" viewBox="0 0 24 24" fill="none">
    <path d="M5.5 10H8.5M5.5 7H8.5" stroke="currentColor" stroke-width="2" stroke-linecap="round" stroke-linejoin="round" />
    <path d="M15.5 10H18.5M15.5 7H18.5" stroke="currentColor" stroke-width="2" stroke-linecap="round" stroke-linejoin="round" />
    <path d="M20 3H4C2.89543 3 2 3.89543 2 5V17C2 18.1046 2.89543 19 4 19H20C21.1046 19 22 18.1046 22 17V5C22 3.89543 21.1046 3 20 3Z" stroke="currentColor" stroke-width="2" stroke-linecap="round" stroke-linejoin="round" />
    <path d="M20 19V21M4 19V21" stroke="currentColor" stroke-width="2" stroke-linecap="round" stroke-linejoin="round" />
    <path d="M12 3L12 19" stroke="currentColor" stroke-width="2" stroke-linecap="round" stroke-linejoin="round" />
    <path d="M8.375 14H8.25M8.5 14C8.5 14.1381 8.38807 14.25 8.25 14.25C8.11193 14.25 8 14.1381 8 14C8 13.8619 8.11193 13.75 8.25 13.75C8.38807 13.75 8.5 13.8619 8.5 14Z" stroke="currentColor" stroke-width="2" stroke-linecap="round" stroke-linejoin="round" />
    <path d="M18.375 14H18.25M18.5 14C18.5 14.1381 18.3881 14.25 18.25 14.25C18.1119 14.25 18 14.1381 18 14C18 13.8619 18.1119 13.75 18.25 13.75C18.3881 13.75 18.5 13.8619 18.5 14Z" stroke="currentColor" stroke-width="2" stroke-linecap="round" stroke-linejoin="round" />
</svg>