<svg xmlns="http://www.w3.org/2000/svg" width="24" height="24" viewBox="0 0 24 24" fill="none">
    <path d="M16 19H4C2.89543 19 2 18.1046 2 17V5C2 3.89543 2.89543 3 4 3H20C21.1046 3 22 3.89543 22 5V10" stroke="currentColor" stroke-width="2" stroke-linecap="round" stroke-linejoin="round" />
    <path d="M20 17V13" stroke="currentColor" stroke-width="2" stroke-linecap="round" stroke-linejoin="round" />
    <path d="M20.125 20.75H20M20.25 20.75C20.25 20.8881 20.1381 21 20 21C19.8619 21 19.75 20.8881 19.75 20.75C19.75 20.6119 19.8619 20.5 20 20.5C20.1381 20.5 20.25 20.6119 20.25 20.75Z" stroke="currentColor" stroke-width="2" stroke-linecap="round" stroke-linejoin="round" />
    <path d="M2 6L11.0575 10.7671C11.3481 10.9201 11.6716 11 12 11C12.3284 11 12.6519 10.9201 12.9425 10.7671L22 6" stroke="currentColor" stroke-width="2" stroke-linecap="round" stroke-linejoin="round" />
</svg>