<svg xmlns="http://www.w3.org/2000/svg" width="24" height="24" viewBox="0 0 24 24" fill="none">
    <path d="M14.5 10C14.5 11.6569 13.1569 13 11.5 13C9.84315 13 8.5 11.6569 8.5 10C8.5 8.34315 9.84315 7 11.5 7C13.1569 7 14.5 8.34315 14.5 10Z" stroke="currentColor" stroke-width="2" stroke-linecap="round" stroke-linejoin="round" />
    <path d="M19.4543 11C19.4848 10.7018 19.5 10.3956 19.5 10.0807C19.5 5.61786 15.9183 2 11.5 2C7.08172 2 3.5 5.61786 3.5 10.0807C3.5 12.6326 4.5 14.6168 6.5 16.3891C7.90971 17.6383 10.4746 20.3181 11.5 22C11.7611 21.6005 12.1064 21.1385 12.5 20.6499" stroke="currentColor" stroke-width="2" stroke-linecap="round" stroke-linejoin="round" />
    <path d="M14.5 17L16.5 19L20.5 15" stroke="currentColor" stroke-width="2" stroke-linecap="round" stroke-linejoin="round" />
</svg>