<svg xmlns="http://www.w3.org/2000/svg" width="24" height="24" viewBox="0 0 24 24" fill="none">
    <path d="M14 10C14 11.6569 12.6569 13 11 13C9.34315 13 8 11.6569 8 10C8 8.34315 9.34315 7 11 7C12.6569 7 14 8.34315 14 10Z" stroke="currentColor" stroke-width="2" stroke-linecap="round" stroke-linejoin="round" />
    <path d="M11 22C9.97463 20.3181 7.40971 17.6383 6 16.3891C4 14.6168 3 12.6326 3 10.0807C3 5.61786 6.58172 2 11 2C15.4183 2 19 5.61786 19 10.0807" stroke="currentColor" stroke-width="2" stroke-linecap="round" stroke-linejoin="round" />
    <path d="M14 20V18L18.8232 13.1768C18.9364 13.0636 19.0899 13 19.25 13C19.4101 13 19.5636 13.0636 19.6768 13.1768L20.8232 14.3232C20.9364 14.4364 21 14.5899 21 14.75C21 14.9101 20.9364 15.0636 20.8232 15.1768L16 20H14Z" stroke="currentColor" stroke-width="2" stroke-linecap="round" stroke-linejoin="round" />
</svg>