<svg xmlns="http://www.w3.org/2000/svg" width="24" height="24" viewBox="0 0 24 24" fill="none">
    <path d="M15 9.19621C14.3876 8.17979 13.2732 7.5 12 7.5C10.067 7.5 8.5 9.067 8.5 11C8.5 12.2732 9.17979 13.3876 10.1962 14" stroke="currentColor" stroke-width="2" stroke-linecap="round" />
    <path d="M21 11C21 6.02944 16.9706 2 12 2C7.02944 2 3 6.02944 3 11C3 18 12 22 12 22" stroke="currentColor" stroke-width="2" stroke-linecap="round" stroke-linejoin="round" />
    <path d="M19.4 18.9L21 20.5M20.2 16.1C20.2 14.1118 18.5882 12.5 16.6 12.5C14.6118 12.5 13 14.1118 13 16.1C13 18.0882 14.6118 19.7 16.6 19.7C18.5882 19.7 20.2 18.0882 20.2 16.1Z" stroke="currentColor" stroke-width="2" stroke-linecap="round" stroke-linejoin="round" />
</svg>