<svg xmlns="http://www.w3.org/2000/svg" width="24" height="24" viewBox="0 0 24 24" fill="none">
    <path d="M21.4994 12C21.4994 17.2467 17.2461 21.5 11.9994 21.5C10.3713 21.5 8.83879 21.0904 7.49939 20.3687C5.49939 19.5 3.49939 19.9125 2.49939 20C2.98833 19.1667 3.60861 16.8818 2.9828 15C2.66919 14.057 2.49939 13.0483 2.49939 12C2.49939 6.75329 6.75268 2.5 11.9994 2.5C17.2461 2.5 21.4994 6.75329 21.4994 12Z" stroke="currentColor" stroke-width="2" stroke-linecap="round" stroke-linejoin="round" />
    <path d="M11.9994 16C11.9994 16 7.99939 13.5294 7.99939 11.1389C7.99939 9.95761 8.84149 9 9.99939 9C10.5994 9 11.1994 9.20588 11.9994 10.0294C12.7994 9.20588 13.3994 9 13.9994 9C15.1573 9 15.9994 9.95761 15.9994 11.1389C15.9994 13.5294 11.9994 16 11.9994 16Z" stroke="currentColor" stroke-width="2" stroke-linecap="round" stroke-linejoin="round" />
</svg>