<svg xmlns="http://www.w3.org/2000/svg" width="24" height="24" viewBox="0 0 24 24" fill="none">
    <path d="M12 2.5C9.02653 2.5 6.26878 2.62488 3.99795 2.83797C3.10975 2.92132 2.40035 3.60654 2.30236 4.49324C2.11103 6.2244 2 8.28649 2 10.5C2 12.7135 2.11103 14.7756 2.30236 16.5068C2.40035 17.3935 3.10963 18.0787 3.99783 18.162C5.2074 18.2755 6.55512 18.364 8 18.4219V20.7701C8 21.1732 8.32679 21.5 8.72991 21.5C8.90419 21.5 9.07273 21.4376 9.20503 21.3242L12.5 18.4988C15.2825 18.4857 17.8593 18.3631 20.0024 18.162C20.8906 18.0786 21.5996 17.3935 21.6976 16.5068C21.8299 15.3096 21.9239 13.9543 21.9692 12.5" stroke="currentColor" stroke-width="2" stroke-linecap="round" stroke-linejoin="round" />
    <path d="M16 2.5H22V8.5M21.5 3L16 8.5" stroke="currentColor" stroke-width="2" stroke-linecap="round" stroke-linejoin="round" />
</svg>