<svg xmlns="http://www.w3.org/2000/svg" width="24" height="24" viewBox="0 0 24 24" fill="none">
    <path d="M20 3H4C2.89543 3 2 3.89543 2 5V15C2 16.1046 2.89543 17 4 17H20C21.1046 17 22 16.1046 22 15V5C22 3.89543 21.1046 3 20 3Z" stroke="currentColor" stroke-width="2" stroke-linecap="round" stroke-linejoin="round" />
    <path d="M16 21C14.8233 20.364 13.4571 20 12 20C10.5429 20 9.17669 20.364 8 21" stroke="currentColor" stroke-width="2" stroke-linecap="round" stroke-linejoin="round" />
    <path d="M12 10L12 7" stroke="currentColor" stroke-width="2" stroke-linecap="round" stroke-linejoin="round" />
    <path d="M12.0746 13.3492H11.9996M12.1496 13.3492C12.1496 13.4321 12.0825 13.4992 11.9996 13.4992C11.9168 13.4992 11.8496 13.4321 11.8496 13.3492C11.8496 13.2664 11.9168 13.1992 11.9996 13.1992C12.0825 13.1992 12.1496 13.2664 12.1496 13.3492Z" stroke="currentColor" stroke-width="2" stroke-linecap="round" stroke-linejoin="round" />
</svg>