<svg xmlns="http://www.w3.org/2000/svg" width="24" height="24" viewBox="0 0 24 24" fill="none">
    <path d="M2 11C2 8.23571 4.23571 6 7 6L6 8.5" stroke="currentColor" stroke-width="2" stroke-linecap="round" stroke-linejoin="round" />
    <path d="M20 13C20 15.7643 17.7643 18 15 18L16 15.5" stroke="currentColor" stroke-width="2" stroke-linecap="round" stroke-linejoin="round" />
    <path d="M11.5 3H19.5C20.3284 3 21 3.67157 21 4.5V8.5C21 9.32843 20.3284 10 19.5 10H11.5C10.6716 10 10 9.32843 10 8.5V4.5C10 3.67157 10.6716 3 11.5 3Z" stroke="currentColor" stroke-width="2" stroke-linecap="round" stroke-linejoin="round" />
    <path d="M2.5 14H10.5C11.3284 14 12 14.6716 12 15.5V19.5C12 20.3284 11.3284 21 10.5 21H2.5C1.67157 21 1 20.3284 1 19.5V15.5C1 14.6716 1.67157 14 2.5 14Z" stroke="currentColor" stroke-width="2" stroke-linecap="round" stroke-linejoin="round" />
    <path d="M6.75 17.5H6.5M7 17.5C7 17.7761 6.77614 18 6.5 18C6.22386 18 6 17.7761 6 17.5C6 17.2239 6.22386 17 6.5 17C6.77614 17 7 17.2239 7 17.5Z" stroke="currentColor" stroke-width="2" stroke-linecap="round" stroke-linejoin="round" />
    <path d="M15.75 6.5H15.5M16 6.5C16 6.77614 15.7761 7 15.5 7C15.2239 7 15 6.77614 15 6.5C15 6.22386 15.2239 6 15.5 6C15.7761 6 16 6.22386 16 6.5Z" stroke="currentColor" stroke-width="2" stroke-linecap="round" stroke-linejoin="round" />
</svg>