<svg xmlns="http://www.w3.org/2000/svg" width="24" height="24" viewBox="0 0 24 24" fill="none">
    <path d="M12 19.75C12.4142 19.75 12.75 19.4142 12.75 19C12.75 18.5858 12.4142 18.25 12 18.25V19V19.75ZM5 19H4.25C4.25 19.4142 4.58579 19.75 5 19.75V19ZM5.75 12C5.75 11.5858 5.41421 11.25 5 11.25C4.58579 11.25 4.25 11.5858 4.25 12H5H5.75ZM19.5303 5.53033C19.8232 5.23744 19.8232 4.76256 19.5303 4.46967C19.2374 4.17678 18.7626 4.17678 18.4697 4.46967L19 5L19.5303 5.53033ZM12 19V18.25H5V19V19.75H12V19ZM5 19H5.75V12H5H4.25V19H5ZM19 5L18.4697 4.46967L4.46967 18.4697L5 19L5.53033 19.5303L19.5303 5.53033L19 5Z" fill="currentColor" />
</svg>