<svg xmlns="http://www.w3.org/2000/svg" width="24" height="24" viewBox="0 0 24 24" fill="none">
    <path d="M6.46973 16.53C6.76262 16.8229 7.23749 16.8229 7.53039 16.53C7.82328 16.2371 7.82329 15.7623 7.53039 15.4694L7.00006 15.9997L6.46973 16.53ZM3.00006 11.9997L2.46973 11.4693C2.32908 11.61 2.25006 11.8007 2.25006 11.9997C2.25006 12.1986 2.32908 12.3893 2.46973 12.53L3.00006 11.9997ZM7.53039 8.53003C7.82328 8.23714 7.82329 7.76226 7.53039 7.46937C7.2375 7.17647 6.76263 7.17647 6.46973 7.46936L7.00006 7.99969L7.53039 8.53003ZM17.5296 7.46955C17.2367 7.17667 16.7618 7.1767 16.4689 7.46961C16.1761 7.76253 16.1761 8.2374 16.469 8.53027L16.9993 7.99991L17.5296 7.46955ZM20.9998 11.9999L21.5301 12.5302C21.6707 12.3896 21.7498 12.1988 21.7498 11.9999C21.7498 11.8009 21.6707 11.6102 21.5301 11.4695L20.9998 11.9999ZM16.469 15.4696C16.1761 15.7624 16.1761 16.2373 16.4689 16.5302C16.7618 16.8231 17.2367 16.8231 17.5296 16.5303L16.9993 15.9999L16.469 15.4696ZM20.5001 12.7498C20.9143 12.7498 21.2501 12.414 21.2501 11.9998C21.2501 11.5856 20.9143 11.2498 20.5001 11.2498V11.9998V12.7498ZM3.5001 11.2498C3.08589 11.2498 2.7501 11.5856 2.7501 11.9998C2.7501 12.414 3.08589 12.7498 3.5001 12.7498V11.9998V11.2498ZM7.00006 15.9997L7.53039 15.4694L3.53039 11.4693L3.00006 11.9997L2.46973 12.53L6.46973 16.53L7.00006 15.9997ZM3.00006 11.9997L3.53039 12.53L7.53039 8.53003L7.00006 7.99969L6.46973 7.46936L2.46973 11.4693L3.00006 11.9997ZM16.9993 7.99991L16.469 8.53027L20.4695 12.5302L20.9998 11.9999L21.5301 11.4695L17.5296 7.46955L16.9993 7.99991ZM20.9998 11.9999L20.4695 11.4695L16.469 15.4696L16.9993 15.9999L17.5296 16.5303L21.5301 12.5302L20.9998 11.9999ZM20.5001 11.9998V11.2498H3.5001V11.9998V12.7498H20.5001V11.9998Z" fill="currentColor" />
</svg>