<svg xmlns="http://www.w3.org/2000/svg" width="24" height="24" viewBox="0 0 24 24" fill="none">
    <path d="M6 6H5C3.89543 6 3 6.89543 3 8V20C3 21.1046 3.89543 22 5 22H12C13.1046 22 14 21.1046 14 20V15" stroke="currentColor" stroke-width="2" stroke-linecap="round" stroke-linejoin="round" />
    <path d="M15 3.47059C15 3.47059 12.9 1.30222 9 2.23152V10.7609C12.9 9.83164 15 12 15 12M15 3.47059C15 3.47059 17.1 1.30222 21 2.23152V10.7609C17.1 9.83164 15 12 15 12M15 3.47059V12" stroke="currentColor" stroke-width="2" stroke-linecap="round" stroke-linejoin="round" />
    <path d="M8.625 19H8.5M8.75 19C8.75 19.1381 8.63807 19.25 8.5 19.25C8.36193 19.25 8.25 19.1381 8.25 19C8.25 18.8619 8.36193 18.75 8.5 18.75C8.63807 18.75 8.75 18.8619 8.75 19Z" stroke="currentColor" stroke-width="2" stroke-linecap="round" stroke-linejoin="round" />
</svg>