<svg xmlns="http://www.w3.org/2000/svg" width="24" height="24" viewBox="0 0 24 24" fill="none">
    <path d="M16.0002 8L19.0002 5" stroke="currentColor" stroke-width="2" stroke-linecap="round" stroke-linejoin="round" />
    <path d="M14.1975 2C14.5966 2.66667 14.9159 4.4 13.0002 6" stroke="currentColor" stroke-width="2" stroke-linecap="round" stroke-linejoin="round" />
    <path d="M22.0002 9.80274C21.3336 9.40365 19.6002 9.08438 18.0002 11" stroke="currentColor" stroke-width="2" stroke-linecap="round" stroke-linejoin="round" />
    <path d="M7.81229 6.6438L2.08116 20.5623C1.72945 21.4164 2.58359 22.2705 3.43773 21.9188L17.3562 16.1877C18.0419 15.9054 18.2197 15.0163 17.6953 14.492L9.508 6.30466C8.98366 5.78032 8.09463 5.95812 7.81229 6.6438Z" stroke="currentColor" stroke-width="2" stroke-linecap="round" stroke-linejoin="round" />
    <path d="M6.33203 10.5C8.4814 12.072 11.1315 13 13.9984 13C14.6785 13 15.3465 12.9478 15.9984 12.8471" stroke="currentColor" stroke-width="2" stroke-linecap="round" />
    <path d="M4 16.2695C6.08972 17.3742 8.47182 17.9996 11 17.9996C11.5062 17.9996 12.0066 18.049 12.5 18" stroke="currentColor" stroke-width="2" stroke-linecap="round" />
</svg>