<svg xmlns="http://www.w3.org/2000/svg" width="24" height="24" viewBox="0 0 24 24" fill="none">
    <path d="M21 20H3" stroke="currentColor" stroke-width="2" stroke-linecap="round" stroke-linejoin="round" />
    <path fill-rule="evenodd" clip-rule="evenodd" d="M8.26454 9.6784C8.88694 9.33625 8.88172 8.40654 8.25519 8.01207L5.76158 6.44206C5.14586 6.05439 5.12751 5.14503 5.72823 4.78942L6.0198 4.61681C7.06767 3.99649 8.33072 3.84386 9.53085 4.1925L15.2313 5.84852L18.0053 4.32357C19.0776 3.73409 20.4309 3.96552 21.3271 4.89164L21.7123 5.28971C22.1588 5.75103 22.0733 6.50562 21.541 6.80264L7.2469 14.7789C6.48397 15.2046 5.51115 15.0011 4.92121 14.2924L2.237 11.0678C1.8275 10.5759 1.96648 9.83735 2.5166 9.58207L2.99888 9.35827C3.59003 9.08395 4.29229 9.16119 4.84402 9.56121L5.93177 10.3499C6.22558 10.5629 6.60297 10.5918 6.90707 10.4247L8.26454 9.6784Z" stroke="currentColor" stroke-width="2" stroke-linecap="round" stroke-linejoin="round" />
</svg>