<svg xmlns="http://www.w3.org/2000/svg" width="24" height="24" viewBox="0 0 24 24" fill="none">
    <path d="M14.5043 12.3546V10.5C14.5043 9.67157 13.8328 9 13.0043 9H11.5043M17.5043 13V11.5C17.5043 10.6716 16.8328 10 16.0043 10H14.7372M11.5043 9V11.4211M11.5043 9V4C11.5043 3.17157 10.8328 2.5 10.0043 2.5C9.17592 2.5 8.50435 3.17157 8.50435 4V14L6.19664 11.8369C5.39814 11.238 4.25687 11.4616 3.74334 12.3174C3.41295 12.8681 3.42465 13.5587 3.77351 14.0979L7.91361 20.5769C8.28109 21.152 8.91645 21.5 9.59892 21.5H17.5043C19.1612 21.5 20.5043 20.1569 20.5043 18.5V12.5C20.5043 11.6716 19.8328 11 19.0043 11H17.8281" stroke="currentColor" stroke-width="2" stroke-linecap="round" stroke-linejoin="round" />
</svg>