<svg xmlns="http://www.w3.org/2000/svg" width="24" height="24" viewBox="0 0 24 24" fill="none">
    <path d="M2 2L22 22" stroke="currentColor" stroke-width="2" stroke-linecap="round" stroke-linejoin="round" />
    <path d="M21 17C21.5523 17 22 16.5523 22 16V9C22 7.89543 21.1046 7 20 7H11M7 17H3C2.44772 17 2 16.5523 2 16V9C2 7.89543 2.89543 7 4 7H7" stroke="currentColor" stroke-width="2" stroke-linecap="round" stroke-linejoin="round" />
    <path d="M17 7V3C17 2.44772 16.5523 2 16 2H8C7.44772 2 7 2.44772 7 3" stroke="currentColor" stroke-width="2" stroke-linecap="round" stroke-linejoin="round" />
    <path d="M14 14H7V21C7 21.5523 7.44772 22 8 22H16C16.5523 22 17 21.5523 17 21V17" stroke="currentColor" stroke-width="2" stroke-linecap="round" stroke-linejoin="round" />
    <path d="M18.875 10.25H18.75M19 10.25C19 10.3881 18.8881 10.5 18.75 10.5C18.6119 10.5 18.5 10.3881 18.5 10.25C18.5 10.1119 18.6119 10 18.75 10C18.8881 10 19 10.1119 19 10.25Z" stroke="currentColor" stroke-width="2" stroke-linecap="round" stroke-linejoin="round" />
</svg>