<svg xmlns="http://www.w3.org/2000/svg" width="24" height="24" viewBox="0 0 24 24" fill="none">
    <path d="M2.5 7.5H20.5" stroke="currentColor" stroke-width="2" stroke-linecap="round" stroke-linejoin="round" />
    <path d="M11.5 16H12.5M6.5 16H7.5" stroke="currentColor" stroke-width="2" stroke-linecap="round" stroke-linejoin="round" />
    <path d="M11.5 12H16.5M6.5 12H7.5" stroke="currentColor" stroke-width="2" stroke-linecap="round" stroke-linejoin="round" />
    <path d="M20 20L21.5 21.5M20.5 18C20.5 16.6193 19.3807 15.5 18 15.5C16.6193 15.5 15.5 16.6193 15.5 18C15.5 19.3807 16.6193 20.5 18 20.5C19.3807 20.5 20.5 19.3807 20.5 18Z" stroke="currentColor" stroke-width="2" stroke-linecap="round" stroke-linejoin="round" />
    <path d="M12.5 20.5L4.5 20.5C3.39543 20.5 2.5 19.6046 2.5 18.5V4.5C2.5 3.39543 3.39543 2.5 4.5 2.5H18.5C19.6046 2.5 20.5 3.39543 20.5 4.5V12.5" stroke="currentColor" stroke-width="2" stroke-linecap="round" stroke-linejoin="round" />
</svg>