<svg xmlns="http://www.w3.org/2000/svg" width="24" height="24" viewBox="0 0 24 24" fill="none">
    <path d="M3 7.5H20" stroke="currentColor" stroke-width="2" stroke-linecap="round" stroke-linejoin="round" />
    <path d="M11.5 16H12.5M6.5 16H7.5" stroke="currentColor" stroke-width="2" stroke-linecap="round" stroke-linejoin="round" />
    <path d="M11.5 12H16.5M6.5 12H7.5" stroke="currentColor" stroke-width="2" stroke-linecap="round" stroke-linejoin="round" />
    <path d="M10.5 20.5L4.5 20.5C3.39543 20.5 2.5 19.6046 2.5 18.5V4.5C2.5 3.39543 3.39543 2.5 4.5 2.5H18.5C19.6046 2.5 20.5 3.39543 20.5 4.5V10.5" stroke="currentColor" stroke-width="2" stroke-linecap="round" stroke-linejoin="round" />
    <path d="M14.5 19.7267V21.5H16.2733C16.5385 21.5 16.7929 21.3946 16.9804 21.2071L21.2569 16.9306C21.4126 16.7749 21.5 16.5638 21.5 16.3438C21.5 16.1237 21.4126 15.9126 21.2569 15.7569L20.2431 14.7431C20.0874 14.5874 19.8763 14.5 19.6562 14.5C19.4362 14.5 19.2251 14.5874 19.0694 14.7431L14.7929 19.0196C14.6054 19.2071 14.5 19.4615 14.5 19.7267Z" stroke="currentColor" stroke-width="2" stroke-linecap="round" stroke-linejoin="round" />
</svg>