<svg xmlns="http://www.w3.org/2000/svg" width="24" height="24" viewBox="0 0 24 24" fill="none">
    <path d="M17.6131 9.01751C16.2071 8.86129 14.883 9.70846 14.4357 11.0505L14.2026 11.7497C13.5623 11.1094 12.6939 10.7497 11.7884 10.7497H10.2026C7.44121 10.7497 5.20264 12.9883 5.20264 15.7497V16.2497C5.20264 19.0111 7.44121 21.2497 10.2026 21.2497H17.7026C18.5311 21.2497 19.2026 20.5781 19.2026 19.7497C19.2026 18.9213 18.5311 18.2497 17.7026 18.2497H17.2026L18.2026 15.2497H19.5703C20.2728 15.2497 20.9238 14.8811 21.2852 14.2787L21.528 13.8741C21.9377 13.1913 21.9033 12.3306 21.4405 11.6826L20.4812 10.3397C19.9857 9.64603 19.2186 9.1959 18.3713 9.10176L17.6131 9.01751Z" stroke="currentColor" stroke-width="2" stroke-linecap="round" stroke-linejoin="round" />
    <path d="M5.20264 14.5176C4.90846 14.3474 4.56692 14.25 4.20264 14.25C3.09807 14.25 2.20264 15.1454 2.20264 16.25C2.20264 17.3546 3.09807 18.25 4.20264 18.25C4.56692 18.25 4.90846 18.1526 5.20264 17.9824" stroke="currentColor" stroke-width="2" />
    <path d="M11.2026 21.25C12.8595 21.25 14.2026 19.9069 14.2026 18.25C14.2026 16.5931 12.8595 15.25 11.2026 15.25" stroke="currentColor" stroke-width="2" stroke-linecap="round" />
    <path d="M15.7026 9.25044L15.5731 8.34388C15.3411 6.71964 14.327 5.3126 12.8594 4.57885L12.6498 4.47405C11.9849 4.1416 11.2026 4.6251 11.2026 5.36848V5.90857C11.2026 7.39247 11.8618 8.79971 13.0017 9.74968L14.2026 10.7504" stroke="currentColor" stroke-width="2" stroke-linecap="round" stroke-linejoin="round" />
    <path d="M14.2053 5.46197C14.1876 4.95443 14.257 4.44209 14.4167 3.944L14.5771 3.44363C14.7979 2.75492 15.731 2.52028 16.3034 3.00957L16.5274 3.20113C17.7663 4.26028 18.3741 5.80202 18.1606 7.34367L17.9658 8.75" stroke="currentColor" stroke-width="2" stroke-linecap="round" stroke-linejoin="round" />
    <path d="M18.2026 11.75H18.2126" stroke="currentColor" stroke-width="2" stroke-linecap="round" stroke-linejoin="round" />
</svg>