<svg xmlns="http://www.w3.org/2000/svg" width="24" height="24" viewBox="0 0 24 24" fill="none">
    <circle cx="12.0078" cy="8.65723" r="2" stroke="currentColor" stroke-width="2" />
    <circle cx="12.0078" cy="8.65723" r="2" stroke="currentColor" stroke-width="2" />
    <path d="M15.5433 12.1931C17.496 10.2405 17.496 7.07469 15.5433 5.12207M8.47228 12.1931C6.51966 10.2405 6.51966 7.07469 8.47228 5.12207" stroke="currentColor" stroke-width="2" stroke-linecap="round" />
    <path d="M15.5433 12.1931C17.496 10.2405 17.496 7.07469 15.5433 5.12207M8.47228 12.1931C6.51966 10.2405 6.51966 7.07469 8.47228 5.12207" stroke="currentColor" stroke-width="2" stroke-linecap="round" />
    <path d="M17.6647 14.3137C20.7889 11.1895 20.7889 6.12419 17.6647 3M6.35096 14.3137C3.22676 11.1895 3.22676 6.12419 6.35096 3" stroke="currentColor" stroke-width="2" stroke-linecap="round" />
    <path d="M17.6647 14.3137C20.7889 11.1895 20.7889 6.12419 17.6647 3M6.35096 14.3137C3.22676 11.1895 3.22676 6.12419 6.35096 3" stroke="currentColor" stroke-width="2" stroke-linecap="round" />
    <path d="M12.0078 11V21M8.50781 21H15.5078" stroke="currentColor" stroke-width="2" stroke-linecap="round" stroke-linejoin="round" />
</svg>