<svg xmlns="http://www.w3.org/2000/svg" width="24" height="24" viewBox="0 0 24 24" fill="none">
    <path d="M16 11.3315C16 9.85015 15.1948 8.55689 13.9982 7.86554L16.9987 2.66852C19.9884 4.39738 22 7.6295 22 11.3315H16Z" stroke="currentColor" stroke-width="2" stroke-linecap="round" stroke-linejoin="round" />
    <path d="M9.99303 7.87064C8.80127 8.56324 8 9.85378 8 11.3315H2C2 7.63314 4.00764 4.40372 6.99253 2.67362L9.99303 7.87064Z" stroke="currentColor" stroke-width="2" stroke-linecap="round" stroke-linejoin="round" />
    <path d="M6.997 19.9919C8.46855 20.8438 10.1773 21.3315 12 21.3315C13.819 21.3315 15.5246 20.8458 16.9942 19.997L13.9937 14.8C13.4068 15.1381 12.726 15.3315 12 15.3315C11.2704 15.3315 10.5864 15.1361 9.9975 14.7949L6.997 19.9919Z" stroke="currentColor" stroke-width="2" stroke-linecap="round" stroke-linejoin="round" />
    <path d="M12 11.1431V11.3306M12.25 11.3306C12.25 11.4687 12.1381 11.5806 12 11.5806C11.8619 11.5806 11.75 11.4687 11.75 11.3306C11.75 11.1926 11.8619 11.0806 12 11.0806C12.1381 11.0806 12.25 11.1926 12.25 11.3306Z" stroke="currentColor" stroke-width="2" stroke-linecap="round" stroke-linejoin="round" />
</svg>