<svg xmlns="http://www.w3.org/2000/svg" width="24" height="24" viewBox="0 0 24 24" fill="none">
    <path d="M10.5078 10.6768C10.1966 11.0293 10.0078 11.4924 10.0078 11.9997C10.0078 13.1042 10.9032 13.9997 12.0078 13.9997C12.515 13.9997 12.9782 13.8109 13.3307 13.4997" stroke="currentColor" stroke-width="2" stroke-linecap="round" stroke-linejoin="round" />
    <path d="M2.00781 2L22.0078 22" stroke="currentColor" stroke-width="2" stroke-linecap="round" stroke-linejoin="round" />
    <path d="M7.50781 8C6.50781 9 6.00781 10.5 6.00781 12C6.00781 13.5 6.50781 15 7.50781 16" stroke="currentColor" stroke-width="2" stroke-linecap="round" stroke-linejoin="round" />
    <path d="M4.50781 6C3.00781 7.5 2.00781 9.5 2.00781 12C2.00781 14.5 3.00781 16.5 4.50781 18" stroke="currentColor" stroke-width="2" stroke-linecap="round" stroke-linejoin="round" />
    <path d="M17.8368 13.5C17.9508 13.0128 18.0078 12.5064 18.0078 12C18.0078 10.5 17.5078 9 16.5078 8" stroke="currentColor" stroke-width="2" stroke-linecap="round" stroke-linejoin="round" />
    <path d="M21.0078 16.0117C21.6368 14.86 22.0078 13.5227 22.0078 12C22.0078 9.5 21.0078 7.5 19.5078 6" stroke="currentColor" stroke-width="2" stroke-linecap="round" stroke-linejoin="round" />
</svg>