<svg xmlns="http://www.w3.org/2000/svg" width="24" height="24" viewBox="0 0 24 24" fill="none">
    <path d="M9.50781 2L12.0078 3.5L14.5078 2L17.0078 3.5L20.0078 2V22L17.0078 20.5L14.5078 22L12.0078 20.5L9.50781 22L7.00781 20.5L4.00781 22V2L7.00781 3.5L9.50781 2Z" stroke="currentColor" stroke-width="2" stroke-linecap="round" stroke-linejoin="round" />
    <path d="M12.0078 8.5H13.5078C14.3362 8.5 15.0078 9.17157 15.0078 10M12.0078 8.5H10.5078C9.67939 8.5 9.00781 9.17157 9.00781 10V10.5C9.00781 11.3284 9.67939 12 10.5078 12H13.5078C14.3362 12 15.0078 12.6716 15.0078 13.5V14C15.0078 14.8284 14.3362 15.5 13.5078 15.5H12.0078M12.0078 8.5V7M12.0078 15.5H10.5078C9.67939 15.5 9.00781 14.8284 9.00781 14M12.0078 15.5V17" stroke="currentColor" stroke-width="2" stroke-linecap="round" stroke-linejoin="round" />
</svg>