<svg xmlns="http://www.w3.org/2000/svg" width="24" height="24" viewBox="0 0 24 24" fill="none">
    <path d="M12 4V2" stroke="currentColor" stroke-width="2" stroke-linecap="round" stroke-linejoin="round" />
    <path d="M20 22C20 17.5817 16.4183 14 12 14C7.58172 14 4 17.5817 4 22" stroke="currentColor" stroke-width="2" stroke-linecap="round" stroke-linejoin="round" />
    <path d="M9.375 8.25H9.25M9.5 8.25C9.5 8.38807 9.38807 8.5 9.25 8.5C9.11193 8.5 9 8.38807 9 8.25C9 8.11193 9.11193 8 9.25 8C9.38807 8 9.5 8.11193 9.5 8.25Z" stroke="currentColor" stroke-width="2" stroke-linecap="round" stroke-linejoin="round" />
    <path d="M14.875 8.25H14.75M15 8.25C15 8.38807 14.8881 8.5 14.75 8.5C14.6119 8.5 14.5 8.38807 14.5 8.25C14.5 8.11193 14.6119 8 14.75 8C14.8881 8 15 8.11193 15 8.25Z" stroke="currentColor" stroke-width="2" stroke-linecap="round" stroke-linejoin="round" />
    <path d="M17 4H7C5.89543 4 5 4.89543 5 6V10C5 12.2091 6.79086 14 9 14H15C17.2091 14 19 12.2091 19 10V6C19 4.89543 18.1046 4 17 4Z" stroke="currentColor" stroke-width="2" stroke-linecap="round" stroke-linejoin="round" />
</svg>