<svg xmlns="http://www.w3.org/2000/svg" width="24" height="24" viewBox="0 0 24 24" fill="none">
    <path d="M20.007 2.5L20.0089 6C18.1845 3.57111 15.2798 2 12.0082 2C6.48533 2 2.00818 6.47715 2.00818 12C2.00818 15.9582 4.30788 19.3793 7.64405 21" stroke="currentColor" stroke-width="2" stroke-linecap="round" stroke-linejoin="round" />
    <path d="M12.3708 22C11.9086 22 11.4537 21.9695 11.0082 21.9106M21.7455 9C21.8567 9.38726 21.9441 9.77865 22.0082 10.1722M21.974 13.7496C21.9044 14.1396 21.8137 14.5258 21.7027 14.9063M20.1936 18.0963C19.9577 18.4409 19.7019 18.7726 19.4272 19.0892M16.6339 21.3767C16.2837 21.574 15.9193 21.7526 15.5412 21.9106" stroke="currentColor" stroke-width="2" stroke-linecap="round" stroke-linejoin="round" />
</svg>