<svg xmlns="http://www.w3.org/2000/svg" width="24" height="24" viewBox="0 0 24 24" fill="none">
    <path d="M18 21C18 19.6148 17.8122 18.2734 17.4608 17M3 6C4.38521 6 5.72656 6.18777 7 6.53923" stroke="currentColor" stroke-width="2" stroke-linecap="round" stroke-linejoin="round" />
    <path d="M11 21C11 16.5817 7.41828 13 3 13" stroke="currentColor" stroke-width="2" stroke-linecap="round" stroke-linejoin="round" />
    <path d="M3.75 20.5H3.5M4 20.5C4 20.7761 3.77614 21 3.5 21C3.22386 21 3 20.7761 3 20.5C3 20.2239 3.22386 20 3.5 20C3.77614 20 4 20.2239 4 20.5Z" stroke="currentColor" stroke-width="2" stroke-linecap="round" stroke-linejoin="round" />
    <path d="M16 13C18.7614 13 21 10.7614 21 8C21 5.23858 18.7614 3 16 3C13.2386 3 11 5.23858 11 8C11 10.7614 13.2386 13 16 13Z" stroke="currentColor" stroke-width="2" stroke-linecap="round" stroke-linejoin="round" />
    <path d="M14 8L15.5 9.5L18 7" stroke="currentColor" stroke-width="2" stroke-linecap="round" stroke-linejoin="round" />
</svg>