<svg xmlns="http://www.w3.org/2000/svg" width="24" height="24" viewBox="0 0 24 24" fill="none">
    <path d="M3.03906 9.755H20.9758V12.7537H3.03906V9.755Z" stroke="currentColor" stroke-width="2" stroke-linejoin="round" />
    <path d="M20.9757 16.7511V17.7507C20.9757 18.8547 20.0834 19.7498 18.9827 19.7498H5.03203C3.93134 19.7498 3.03906 18.8547 3.03906 17.7507V16.7511" stroke="currentColor" stroke-width="2" stroke-linecap="round" stroke-linejoin="round" />
    <path d="M3.03945 12.7532L2.26437 13.9194C1.49785 15.0727 2.56817 16.5623 3.90134 16.1976L4.94851 15.9111C5.3281 15.8073 5.72985 15.8185 6.10312 15.9433L7.9352 16.5558C8.31624 16.6832 8.72676 16.6922 9.11295 16.5815L11.4603 15.9088C11.8181 15.8062 12.1975 15.8062 12.5553 15.9088L14.9027 16.5815C15.2889 16.6922 15.6994 16.6832 16.0804 16.5558L17.9125 15.9433C18.2858 15.8185 18.6875 15.8073 19.0671 15.9111L20.1143 16.1976C21.4475 16.5623 22.5178 15.0727 21.7513 13.9194L20.9762 12.7532" stroke="currentColor" stroke-width="2" stroke-linecap="round" />
    <path d="M3.03906 9.75428L15.4661 4.41197C16.3491 4.03236 17.3765 4.3387 17.9094 5.14054L20.9758 9.75428" stroke="currentColor" stroke-width="2" stroke-linecap="round" />
</svg>