<svg xmlns="http://www.w3.org/2000/svg" width="24" height="24" viewBox="0 0 24 24" fill="none">
    <path d="M15.1743 2.5H21.5076V8.83333" stroke="currentColor" stroke-width="2" stroke-linecap="round" stroke-linejoin="round" />
    <path d="M14.1157 16.2227H7.7824V9.88932" stroke="currentColor" stroke-width="2" stroke-linecap="round" stroke-linejoin="round" />
    <path d="M7.78112 15.1637C7.48822 15.4566 7.48822 15.9314 7.78112 16.2243C8.07401 16.5172 8.54888 16.5172 8.84178 16.2243L8.31145 15.694L7.78112 15.1637ZM21.5084 3.55767C21.8013 3.26478 21.8013 2.78991 21.5084 2.49701C21.2156 2.20412 20.7407 2.20412 20.4478 2.49701L20.9781 3.02734L21.5084 3.55767ZM8.31145 15.694L8.84178 16.2243L21.5084 3.55767L20.9781 3.02734L20.4478 2.49701L7.78112 15.1637L8.31145 15.694Z" fill="currentColor" />
    <path d="M21.5019 14.1111V19.3889C21.5019 20.5548 20.557 21.5 19.3914 21.5H4.61769C3.45207 21.5 2.50716 20.5548 2.50716 19.3889V4.61111C2.50716 3.44518 3.45207 2.5 4.61769 2.5H9.89402" stroke="currentColor" stroke-width="2" stroke-linecap="round" stroke-linejoin="round" />
</svg>