<svg xmlns="http://www.w3.org/2000/svg" width="24" height="24" viewBox="0 0 24 24" fill="none">
    <path d="M8.00781 3H20.0078C21.1124 3 22.0078 3.89543 22.0078 5V15C22.0078 15.5072 21.819 15.9703 21.5078 16.3229" stroke="currentColor" stroke-width="2" stroke-linecap="round" stroke-linejoin="round" />
    <path d="M3.00781 3.26758C2.41001 3.61339 2.00781 4.25973 2.00781 5.00001V15C2.00781 16.1046 2.90324 17 4.00781 17L17.0078 17" stroke="currentColor" stroke-width="2" stroke-linecap="round" stroke-linejoin="round" />
    <path d="M15.0078 10.5L16.0078 9.5L13.5078 7" stroke="currentColor" stroke-width="2" stroke-linecap="round" stroke-linejoin="round" />
    <path d="M15.0078 9.5H13.5091" stroke="currentColor" stroke-width="2" stroke-linecap="round" stroke-linejoin="round" />
    <path d="M9.6849 10C9.26969 10.3665 9.00781 10.9027 9.00781 11.5V13" stroke="currentColor" stroke-width="2" stroke-linecap="round" stroke-linejoin="round" />
    <path d="M14.0078 21H16.0078M10.0078 21C10.8362 21 11.5078 20.3284 11.5078 19.5V17L12.0078 17L12.5078 17V19.5C12.5078 20.3284 13.1794 21 14.0078 21M14.0078 21H10.0078M10.0078 21H8.00781M12.0078 17V21" stroke="currentColor" stroke-width="2" stroke-linecap="round" stroke-linejoin="round" />
    <path d="M2.00781 2L22.0078 22" stroke="currentColor" stroke-width="2" stroke-linecap="round" />
</svg>