<svg xmlns="http://www.w3.org/2000/svg" width="24" height="24" viewBox="0 0 24 24" fill="none">
    <path d="M20.0078 3H4.00781C2.90324 3 2.00781 3.89543 2.00781 5V15C2.00781 16.1046 2.90324 17 4.00781 17H20.0078C21.1124 17 22.0078 16.1046 22.0078 15V5C22.0078 3.89543 21.1124 3 20.0078 3Z" stroke="currentColor" stroke-width="2" stroke-linecap="round" stroke-linejoin="round" />
    <path d="M13.5078 7L16.0078 9.5L13.5078 12M15.0078 9.5H11.0078C9.90324 9.5 9.00781 10.3954 9.00781 11.5V13" stroke="currentColor" stroke-width="2" stroke-linecap="round" stroke-linejoin="round" />
    <path d="M14.0078 21H16.0078M10.0078 21C10.8362 21 11.5078 20.3284 11.5078 19.5V17L12.0078 17L12.5078 17V19.5C12.5078 20.3284 13.1794 21 14.0078 21M14.0078 21H10.0078M10.0078 21H8.00781M12.0078 17V21" stroke="currentColor" stroke-width="2" stroke-linecap="round" stroke-linejoin="round" />
</svg>