<svg xmlns="http://www.w3.org/2000/svg" width="24" height="24" viewBox="0 0 24 24" fill="none">
    <path d="M6.00781 9H3.00781C2.45553 9 2.00781 8.55228 2.00781 8V5C2.00781 3.89543 2.90324 3 4.00781 3C5.11238 3 6.00781 3.89543 6.00781 5V9Z" stroke="currentColor" stroke-width="2" stroke-linecap="round" stroke-linejoin="round" />
    <path d="M6.00781 9V19C6.00781 20.1046 6.90324 21 8.00781 21M8.00781 21H20.0078C21.1124 21 22.0078 20.1046 22.0078 19V17C22.0078 16.4477 21.5601 16 21.0078 16H11.0078C10.4555 16 10.0078 16.4477 10.0078 17V19C10.0078 20.1046 9.11238 21 8.00781 21Z" stroke="currentColor" stroke-width="2" stroke-linecap="round" stroke-linejoin="round" />
    <path d="M4.00781 3H17.0078C18.1124 3 19.0078 3.89543 19.0078 5V16" stroke="currentColor" stroke-width="2" stroke-linecap="round" stroke-linejoin="round" />
    <path d="M10.0078 8H15.0078" stroke="currentColor" stroke-width="2" stroke-linecap="round" stroke-linejoin="round" />
    <path d="M10.0078 11H13.0078" stroke="currentColor" stroke-width="2" stroke-linecap="round" stroke-linejoin="round" />
</svg>