<svg xmlns="http://www.w3.org/2000/svg" width="24" height="24" viewBox="0 0 24 24" fill="none">
    <path d="M17.5078 17.5L22.0078 22" stroke="currentColor" stroke-width="2" stroke-linecap="round" stroke-linejoin="round" />
    <path d="M20.0078 11C20.0078 6.02944 15.9784 2 11.0078 2C6.03725 2 2.00781 6.02944 2.00781 11C2.00781 15.9706 6.03725 20 11.0078 20C15.9784 20 20.0078 15.9706 20.0078 11Z" stroke="currentColor" stroke-width="2" stroke-linejoin="round" />
    <path d="M11.0078 7L11.0078 11" stroke="currentColor" stroke-width="2" stroke-linecap="round" stroke-linejoin="round" />
    <path d="M11.1328 14.75L11.0078 14.75M11.2578 14.75C11.2578 14.8881 11.1459 15 11.0078 15C10.8697 15 10.7578 14.8881 10.7578 14.75C10.7578 14.6119 10.8697 14.5 11.0078 14.5C11.1459 14.5 11.2578 14.6119 11.2578 14.75Z" stroke="currentColor" stroke-width="2" stroke-linecap="round" stroke-linejoin="round" />
</svg>