<svg xmlns="http://www.w3.org/2000/svg" width="24" height="24" viewBox="0 0 24 24" fill="none">
    <path d="M21 5C18.8786 3.17002 15.6351 2 12 2C8.36494 2 5.12137 3.17002 3 5V11C3 19 12 22 12 22C12 22 21 19 21 11L21 5Z" stroke="currentColor" stroke-width="2" stroke-linecap="round" stroke-linejoin="round" />
    <path d="M12.125 11H12M12.25 11C12.25 11.1381 12.1381 11.25 12 11.25C11.8619 11.25 11.75 11.1381 11.75 11C11.75 10.8619 11.8619 10.75 12 10.75C12.1381 10.75 12.25 10.8619 12.25 11Z" stroke="currentColor" stroke-width="2" stroke-linecap="round" />
    <path d="M16.125 11H16M16.25 11C16.25 11.1381 16.1381 11.25 16 11.25C15.8619 11.25 15.75 11.1381 15.75 11C15.75 10.8619 15.8619 10.75 16 10.75C16.1381 10.75 16.25 10.8619 16.25 11Z" stroke="currentColor" stroke-width="2" stroke-linecap="round" />
    <path d="M8.125 11H8M8.25 11C8.25 11.1381 8.13807 11.25 8 11.25C7.86193 11.25 7.75 11.1381 7.75 11C7.75 10.8619 7.86193 10.75 8 10.75C8.13807 10.75 8.25 10.8619 8.25 11Z" stroke="currentColor" stroke-width="2" stroke-linecap="round" />
</svg>