<svg xmlns="http://www.w3.org/2000/svg" width="24" height="24" viewBox="0 0 24 24" fill="none">
    <path d="M21.0078 11.0511V6.12325C21.0078 5.34825 20.4223 4.70502 19.6629 4.57302C16.6028 4.04108 14.0624 2.85772 12.823 2.20154C12.3155 1.93282 11.7001 1.93282 11.1926 2.20154C9.95323 2.85772 7.41284 4.04108 4.3527 4.57302C3.59333 4.70502 3.00781 5.34825 3.00781 6.12325V11.0511C3.00781 17.4795 9.54544 20.9859 11.4767 21.8815C11.8175 22.0395 12.1982 22.0395 12.5389 21.8815C14.4702 20.9859 21.0078 17.4795 21.0078 11.0511Z" stroke="currentColor" stroke-width="2" stroke-linecap="round" />
    <path d="M12.1336 11H12.0086M8.13281 11H8.00781M16.1328 11H16.0078M12.2586 11C12.2586 11.1381 12.1466 11.25 12.0086 11.25C11.8705 11.25 11.7586 11.1381 11.7586 11C11.7586 10.8619 11.8705 10.75 12.0086 10.75C12.1466 10.75 12.2586 10.8619 12.2586 11ZM8.25781 11C8.25781 11.1381 8.14588 11.25 8.00781 11.25C7.86974 11.25 7.75781 11.1381 7.75781 11C7.75781 10.8619 7.86974 10.75 8.00781 10.75C8.14588 10.75 8.25781 10.8619 8.25781 11ZM16.2578 11C16.2578 11.1381 16.1459 11.25 16.0078 11.25C15.8697 11.25 15.7578 11.1381 15.7578 11C15.7578 10.8619 15.8697 10.75 16.0078 10.75C16.1459 10.75 16.2578 10.8619 16.2578 11Z" stroke="currentColor" stroke-width="2" stroke-linecap="round" stroke-linejoin="round" />
</svg>