<svg xmlns="http://www.w3.org/2000/svg" width="24" height="24" viewBox="0 0 24 24" fill="none">
    <path d="M21.0078 11.0511V6.12325C21.0078 5.34825 20.4223 4.70502 19.6629 4.57302C16.6028 4.04108 14.0624 2.85772 12.823 2.20154C12.3155 1.93282 11.7001 1.93282 11.1926 2.20154C9.95323 2.85772 7.41284 4.04108 4.3527 4.57302C3.59333 4.70502 3.00781 5.34825 3.00781 6.12325V11.0511C3.00781 17.4795 9.54544 20.9859 11.4767 21.8815C11.8175 22.0395 12.1982 22.0395 12.5389 21.8815C14.4702 20.9859 21.0078 17.4795 21.0078 11.0511Z" stroke="currentColor" stroke-width="2" stroke-linecap="round" />
    <path d="M12.0078 13.5L12.0078 15M12.0078 13.5C12.7448 13.5 13.3887 13.1013 13.7357 12.5079M12.0078 13.5C11.2708 13.5 10.6269 13.1013 10.28 12.5079M12.0078 9.5L12.0078 8M12.0078 9.5C12.7448 9.5 13.3887 9.89866 13.7357 10.4921M10.28 12.5079C10.107 12.212 10.0078 11.8676 10.0078 11.5C10.0078 11.1324 10.107 10.788 10.28 10.4921C10.6269 9.89865 11.2708 9.5 12.0078 9.5M15.0078 9.75L13.7357 10.4921M9.00781 13.25L10.28 12.5079M15.0078 13.25L13.7357 12.5079M9.00781 9.75L10.28 10.4921M13.7357 12.5079C13.9087 12.2119 14.0078 11.8676 14.0078 11.5C14.0078 11.1324 13.9087 10.788 13.7357 10.4921" stroke="currentColor" stroke-width="2" stroke-linecap="round" stroke-linejoin="round" />
</svg>