<svg xmlns="http://www.w3.org/2000/svg" width="24" height="24" viewBox="0 0 24 24" fill="none">
    <path d="M9.00781 3.21697C9.92606 2.84374 10.6735 2.47639 11.1926 2.20154C11.7001 1.93282 12.3155 1.93282 12.823 2.20154C14.0624 2.85772 16.6028 4.04108 19.6629 4.57302C20.4223 4.70502 21.0078 5.34825 21.0078 6.12325V11.0511C21.0078 12.1302 20.8236 13.1271 20.5078 14.043" stroke="currentColor" stroke-width="2" stroke-linecap="round" />
    <path d="M18.0078 18.0292C16.0209 20.1253 13.5933 21.3925 12.5389 21.8815C12.1982 22.0395 11.8175 22.0395 11.4767 21.8815C9.54544 20.9859 3.00781 17.4795 3.00781 11.0511V6.12323C3.00781 5.34823 3.59333 4.705 4.3527 4.573" stroke="currentColor" stroke-width="2" stroke-linecap="round" />
    <path d="M2.00781 2L22.0078 22" stroke="currentColor" stroke-width="2" stroke-linecap="round" />
</svg>