<svg xmlns="http://www.w3.org/2000/svg" width="24" height="24" viewBox="0 0 24 24" fill="none">
    <path d="M2.00781 21.5C3.50781 21.5 4.55815 20.5 5.50781 20.5C6.45748 20.5 7.66587 21.5113 8.50781 21.5C9.51813 21.5085 10.8682 20.5 12.0078 20.5C13.1474 20.5 14.4975 21.5085 15.5078 21.5C16.3498 21.5113 17.5581 20.5 18.5078 20.5C19.4575 20.5 20.5078 21.5 22.0078 21.5" stroke="currentColor" stroke-width="2" stroke-linecap="round" stroke-linejoin="round" />
    <path d="M5.5078 20.5001L3.38957 15.84C3.17394 15.3656 3.35876 14.8051 3.8143 14.552L11.5222 10.2699C11.8242 10.1021 12.1914 10.1021 12.4934 10.2699L20.2013 14.552C20.6568 14.8051 20.8417 15.3656 20.626 15.84L18.5078 20.5001" stroke="currentColor" stroke-width="2" stroke-linecap="round" stroke-linejoin="round" />
    <path d="M6.00781 12.9999V9.11792C6.00781 8.73915 6.22181 8.39288 6.5606 8.22349L11.5606 5.72349C11.8421 5.58273 12.1735 5.58273 12.455 5.72349L17.455 8.22349C17.7938 8.39288 18.0078 8.73915 18.0078 9.11792V12.9999" stroke="currentColor" stroke-width="2" stroke-linecap="round" stroke-linejoin="round" />
    <path d="M10.0078 6.5V3.5C10.0078 2.94772 10.4555 2.5 11.0078 2.5H13.0078C13.5601 2.5 14.0078 2.94772 14.0078 3.5V6.5" stroke="currentColor" stroke-width="2" stroke-linecap="round" stroke-linejoin="round" />
</svg>