<svg xmlns="http://www.w3.org/2000/svg" width="24" height="24" viewBox="0 0 24 24" fill="none">
    <path d="M18 5.99994V13.9999C18 15.1045 17.1046 15.9999 16 15.9999H6C4.89543 15.9999 4 15.1045 4 13.9999V5.99994" stroke="currentColor" stroke-width="2" stroke-linejoin="round" />
    <path d="M16.5528 3.10551L18 5.99994H4L5.44721 3.10551C5.786 2.42794 6.47852 1.99994 7.23607 1.99994H14.7639C15.5215 1.99994 16.214 2.42794 16.5528 3.10551Z" stroke="currentColor" stroke-width="2" stroke-linejoin="round" />
    <path d="M9.5 8.99969H12.5" stroke="currentColor" stroke-width="2" stroke-linecap="round" stroke-linejoin="round" />
    <path d="M3 16.0001L18 15.9997C19.6569 15.9997 21 17.3428 21 18.9997C21 20.6565 19.6569 21.9997 18 21.9997L3 22.0001" stroke="currentColor" stroke-width="2" stroke-linecap="round" stroke-linejoin="round" />
    <path d="M11.125 18.9997H11M11.25 18.9997C11.25 19.1378 11.1381 19.2497 11 19.2497C10.8619 19.2497 10.75 19.1378 10.75 18.9997C10.75 18.8616 10.8619 18.7497 11 18.7497C11.1381 18.7497 11.25 18.8616 11.25 18.9997Z" stroke="currentColor" stroke-width="2" stroke-linecap="round" stroke-linejoin="round" />
    <path d="M17.125 18.9997H17M17.25 18.9997C17.25 19.1378 17.1381 19.2497 17 19.2497C16.8619 19.2497 16.75 19.1378 16.75 18.9997C16.75 18.8616 16.8619 18.7497 17 18.7497C17.1381 18.7497 17.25 18.8616 17.25 18.9997Z" stroke="currentColor" stroke-width="2" stroke-linecap="round" stroke-linejoin="round" />
    <path d="M5.125 18.9997H5M5.25 18.9997C5.25 19.1378 5.13807 19.2497 5 19.2497C4.86193 19.2497 4.75 19.1378 4.75 18.9997C4.75 18.8616 4.86193 18.7497 5 18.7497C5.13807 18.7497 5.25 18.8616 5.25 18.9997Z" stroke="currentColor" stroke-width="2" stroke-linecap="round" stroke-linejoin="round" />
</svg>