<svg xmlns="http://www.w3.org/2000/svg" width="24" height="24" viewBox="0 0 24 24" fill="none">
    <path d="M15.8906 6H5.26863C4.71634 6 4.26733 6.44772 4.26733 7V12C4.26733 12.5523 4.71505 13 5.26733 13H15.8916C16.1338 13 16.3678 12.9121 16.5501 12.7526L19.4072 10.2526C19.8626 9.85417 19.8626 9.14584 19.4072 8.74742L16.5501 6.24742C16.3678 6.08792 16.1328 6 15.8906 6Z" stroke="currentColor" stroke-width="2" stroke-linecap="round" stroke-linejoin="round" />
    <path d="M9.26733 6V4C9.26733 3.44772 9.71505 3 10.2673 3H11.2673C11.8196 3 12.2673 3.44772 12.2673 4V6M9.26733 13V20.0006C9.26733 20.5529 9.71505 21 10.2673 21H11.2673C11.8196 21 12.2673 20.5523 12.2673 20V13" stroke="currentColor" stroke-width="2" stroke-linecap="round" stroke-linejoin="round" />
</svg>