<svg xmlns="http://www.w3.org/2000/svg" width="24" height="24" viewBox="0 0 24 24" fill="none">
    <path d="M12.0076 16.0001V21.0001" stroke="currentColor" stroke-width="2" stroke-linecap="round" stroke-linejoin="round" />
    <path d="M9.00759 21.0001H15.0076" stroke="currentColor" stroke-width="2" stroke-linecap="round" stroke-linejoin="round" />
    <path d="M16.6455 3.00012H9.00759C8.4553 3.00012 8.00759 3.44784 8.00759 4.00012V7.00012C8.00759 7.55241 8.4553 8.00012 9.00759 8.00012H16.6455C16.8795 8.00012 17.106 7.91811 17.2857 7.76834L19.0857 6.26834C19.5655 5.86855 19.5655 5.1317 19.0857 4.7319L17.2857 3.2319C17.106 3.08214 16.8795 3.00012 16.6455 3.00012Z" stroke="currentColor" stroke-width="2" stroke-linecap="round" stroke-linejoin="round" />
    <path d="M7.36972 11.0001H15.007C15.5593 11.0001 16.0076 11.4478 16.0076 12.0001V15.0001C16.0076 15.5524 15.5599 16.0001 15.0076 16.0001H7.36964C7.1357 16.0001 6.90917 15.9181 6.72945 15.7683L4.92945 14.2683C4.4497 13.8685 4.4497 13.1317 4.92945 12.7319L6.72945 11.2319C6.90917 11.0821 7.13578 11.0001 7.36972 11.0001Z" stroke="currentColor" stroke-width="2" stroke-linecap="round" stroke-linejoin="round" />
    <path d="M12.0076 8.00012V11.0001" stroke="currentColor" stroke-width="2" stroke-linecap="round" stroke-linejoin="round" />
</svg>