<svg xmlns="http://www.w3.org/2000/svg" width="24" height="24" viewBox="0 0 24 24" fill="none">
    <path d="M7 12H17" stroke="currentColor" stroke-width="2" stroke-linecap="round" stroke-linejoin="round" />
    <path d="M6 21C7.10457 21 8 20.1046 8 19V18" stroke="currentColor" stroke-width="2" stroke-linecap="round" stroke-linejoin="round" />
    <path d="M18 21C16.8954 21 16 20.1046 16 19V18" stroke="currentColor" stroke-width="2" stroke-linecap="round" stroke-linejoin="round" />
    <path d="M12 18V21" stroke="currentColor" stroke-width="2" stroke-linecap="round" stroke-linejoin="round" />
    <path d="M18.125 7H18M18.25 7C18.25 7.13807 18.1381 7.25 18 7.25C17.8619 7.25 17.75 7.13807 17.75 7C17.75 6.86193 17.8619 6.75 18 6.75C18.1381 6.75 18.25 6.86193 18.25 7Z" stroke="currentColor" stroke-width="2" stroke-linecap="round" stroke-linejoin="round" />
    <path d="M20 3H4C2.89543 3 2 3.89543 2 5V13C2 14.1046 2.89543 15 4 15H20C21.1046 15 22 14.1046 22 13V5C22 3.89543 21.1046 3 20 3Z" stroke="currentColor" stroke-width="2" stroke-linecap="round" stroke-linejoin="round" />
</svg>