<svg xmlns="http://www.w3.org/2000/svg" width="24" height="24" viewBox="0 0 24 24" fill="none">
    <path d="M17 7V4C17 2.89543 16.1046 2 15 2H5C3.89543 2 3 2.89543 3 4V20C3 21.1046 3.89543 22 5 22H15C16.1046 22 17 21.1046 17 20V13" stroke="currentColor" stroke-width="2" stroke-linecap="round" stroke-linejoin="round" />
    <path d="M20 7H8C7.44772 7 7 7.44772 7 8V12C7 12.5523 7.44772 13 8 13H10V15L13 13H20C20.5523 13 21 12.5523 21 12V8C21 7.44772 20.5523 7 20 7Z" stroke="currentColor" stroke-width="2" stroke-linecap="round" stroke-linejoin="round" />
    <path d="M10.125 19H10M10.25 19C10.25 19.1381 10.1381 19.25 10 19.25C9.86193 19.25 9.75 19.1381 9.75 19C9.75 18.8619 9.86193 18.75 10 18.75C10.1381 18.75 10.25 18.8619 10.25 19Z" stroke="currentColor" stroke-width="2" stroke-linecap="round" stroke-linejoin="round" />
    <path d="M14.125 10H14M14.25 10C14.25 10.1381 14.1381 10.25 14 10.25C13.8619 10.25 13.75 10.1381 13.75 10C13.75 9.86193 13.8619 9.75 14 9.75C14.1381 9.75 14.25 9.86193 14.25 10Z" stroke="currentColor" stroke-width="2" stroke-linecap="round" stroke-linejoin="round" />
    <path d="M10.625 10H10.5M10.75 10C10.75 10.1381 10.6381 10.25 10.5 10.25C10.3619 10.25 10.25 10.1381 10.25 10C10.25 9.86193 10.3619 9.75 10.5 9.75C10.6381 9.75 10.75 9.86193 10.75 10Z" stroke="currentColor" stroke-width="2" stroke-linecap="round" stroke-linejoin="round" />
    <path d="M17.625 10H17.5M17.75 10C17.75 10.1381 17.6381 10.25 17.5 10.25C17.3619 10.25 17.25 10.1381 17.25 10C17.25 9.86193 17.3619 9.75 17.5 9.75C17.6381 9.75 17.75 9.86193 17.75 10Z" stroke="currentColor" stroke-width="2" stroke-linecap="round" stroke-linejoin="round" />
</svg>