<svg xmlns="http://www.w3.org/2000/svg" width="24" height="24" viewBox="0 0 24 24" fill="none">
    <path d="M9.75586 21L12.0059 19L14.2559 21M14.2559 3L12.0059 5L9.75586 3" stroke="currentColor" stroke-width="2" stroke-linecap="round" stroke-linejoin="round" />
    <path d="M18.6763 18.4489L18.0693 15.5003L20.9263 14.5518M5.33789 5.55176L5.94494 8.50031L3.08789 9.44887" stroke="currentColor" stroke-width="2" stroke-linecap="round" stroke-linejoin="round" />
    <path d="M5.33928 18.4489L5.94633 15.5003L3.08928 14.5518M18.6777 5.55176L18.0707 8.50031L20.9277 9.44887" stroke="currentColor" stroke-width="2" stroke-linecap="round" stroke-linejoin="round" />
    <path d="M15.47 9.97929L18.0059 8.5M12.0056 8.02089L12.0056 5M18.0056 15.5L15.4699 14.0208M6.00611 15.5L8.57766 13.9999M12.0056 19L12.0056 15.9791M8.57765 10.0002L6.00586 8.5" stroke="currentColor" stroke-width="2" stroke-linecap="round" stroke-linejoin="round" />
    <path d="M15.5076 9.99946L12.0439 8L8.58008 9.99984L8.58008 13.9997L12.0442 15.9998L15.5083 13.9998L15.5076 9.99946Z" stroke="currentColor" stroke-width="2" stroke-linejoin="round" />
</svg>