<svg xmlns="http://www.w3.org/2000/svg" width="24" height="24" viewBox="0 0 24 24" fill="none">
    <path d="M10.0059 22H5.00586C4.45357 22 4.00586 21.5523 4.00586 21V13C4.00586 10.2386 6.24444 8 9.00586 8C10.6417 8 12.094 8.78555 13.0062 10" stroke="currentColor" stroke-width="2" stroke-linecap="round" stroke-linejoin="round" />
    <path d="M4.00586 15H10.0059" stroke="currentColor" stroke-width="2" stroke-linecap="round" stroke-linejoin="round" />
    <path d="M7.00586 8V6C7.00586 5.44772 7.45357 5 8.00586 5H10.0059C10.5581 5 11.0059 5.44772 11.0059 6V8" stroke="currentColor" stroke-width="2" stroke-linejoin="round" />
    <path d="M9.00586 5V2M9.00586 2H6.50586M9.00586 2H13.5059L14.5059 3" stroke="currentColor" stroke-width="2" stroke-linecap="round" stroke-linejoin="round" />
    <path d="M16.5059 22C18.4389 22 20.0059 20.433 20.0059 18.5C20.0059 16 16.5059 13 16.5059 13C16.5059 13 13.0059 16 13.0059 18.5C13.0059 20.433 14.5729 22 16.5059 22Z" stroke="currentColor" stroke-width="2" stroke-linecap="square" stroke-linejoin="round" />
</svg>