<svg xmlns="http://www.w3.org/2000/svg" width="24" height="24" viewBox="0 0 24 24" fill="none">
    <path d="M8.74608 20.2888C9.4471 19.0252 10.0072 17.6226 10.0072 16.5C7.0072 17.5 3.0072 16 3.0072 13C3.0072 7.39141 8.24991 3.5304 11.3852 2.23373C11.785 2.06841 12.2318 2.06841 12.6315 2.23374C15.7667 3.53041 21.0084 7.39142 21.0084 13C21.0084 16 17.0084 17.5 14.0084 16.5C14.0084 17.6148 14.8384 19.0058 15.6752 20.2624C16.0698 20.8549 15.7432 21.6447 15.0385 21.7459C14.1588 21.8722 13.0194 22 12.0084 22C11.0701 22 10.1316 21.89 9.39951 21.7731C8.71656 21.6641 8.41056 20.8935 8.74608 20.2888Z" stroke="currentColor" stroke-width="2" stroke-linecap="round" stroke-linejoin="round" />
</svg>