<svg xmlns="http://www.w3.org/2000/svg" width="24" height="24" viewBox="0 0 24 24" fill="none">
    <path d="M2.89453 20H16.6679" stroke="currentColor" stroke-width="2" stroke-linecap="round" stroke-linejoin="round" />
    <path d="M20.2376 19.9999H13.1916C12.1474 19.9999 11.143 19.5972 10.3849 18.8747L3.39497 12.2125C2.56119 11.4178 2.54333 10.0877 3.35546 9.27059L8.29341 4.30269C8.93613 3.65607 10.0351 4.11404 10.0351 5.0285V6.26C10.0351 7.11573 10.5627 7.8817 11.3591 8.18217L13.3362 8.92808C13.8053 9.10506 14.1161 9.55621 14.1161 10.0602C14.1161 11.824 14.8125 13.5155 16.0521 14.7626L16.2743 14.9861C16.5256 15.2389 16.8663 15.3809 17.2217 15.3809H18.1971C19.8875 15.3809 21.2578 16.7596 21.2578 18.4602V18.9735C21.2578 19.5403 20.8011 19.9999 20.2376 19.9999Z" stroke="currentColor" stroke-width="2" stroke-linecap="round" stroke-linejoin="round" />
    <path d="M4.42188 8.70898L10.0332 14.3544" stroke="currentColor" stroke-width="2" stroke-linecap="round" stroke-linejoin="round" />
</svg>