<svg xmlns="http://www.w3.org/2000/svg" width="24" height="24" viewBox="0 0 24 24" fill="none">
    <path d="M7.5 9V6.5C7.5 4.01472 9.51472 2 12 2C13.9593 2 15.3822 3.25221 16 5" stroke="currentColor" stroke-width="2" stroke-linecap="round" stroke-linejoin="round" />
    <path d="M18 9H6.00019C4.89554 9 4.00008 9.89554 4.00018 11.0002L4.00102 20.0002C4.00112 21.1047 4.89652 22 6.00102 22H18C19.1046 22 20 21.1046 20 20V11C20 9.89543 19.1046 9 18 9Z" stroke="currentColor" stroke-width="2" stroke-linecap="round" />
    <path d="M12.125 15.5H12M12.25 15.5C12.25 15.6381 12.1381 15.75 12 15.75C11.8619 15.75 11.75 15.6381 11.75 15.5C11.75 15.3619 11.8619 15.25 12 15.25C12.1381 15.25 12.25 15.3619 12.25 15.5Z" stroke="currentColor" stroke-width="2" stroke-linecap="round" />
</svg>