<svg xmlns="http://www.w3.org/2000/svg" width="24" height="24" viewBox="0 0 24 24" fill="none">
    <path d="M2.50781 4.39453C2.50781 3.3481 3.35612 2.49979 4.40255 2.49979H19.6131C20.6595 2.49979 21.5078 3.3481 21.5078 4.39453V19.6051C21.5078 20.6515 20.6595 21.4998 19.6131 21.4998H4.40255C3.35612 21.4998 2.50781 20.6515 2.50781 19.6051V4.39453Z" stroke="currentColor" stroke-width="2" stroke-linecap="round" stroke-linejoin="round" />
    <path d="M12.0078 7.39453C13.9408 7.39453 15.5078 8.96153 15.5078 10.8945C15.5078 12.8275 13.9408 14.3945 12.0078 14.3945C10.0748 14.3945 8.50781 12.8275 8.50781 10.8945C8.50781 8.96153 10.0748 7.39453 12.0078 7.39453Z" stroke="currentColor" stroke-width="2" stroke-linecap="round" stroke-linejoin="round" />
    <path d="M19.0078 21.3945C19.0078 17.5285 15.8738 14.3945 12.0078 14.3945C8.14182 14.3945 5.00781 17.5285 5.00781 21.3945" stroke="currentColor" stroke-width="2" stroke-linecap="round" stroke-linejoin="round" />
</svg>