<svg xmlns="http://www.w3.org/2000/svg" width="24" height="24" viewBox="0 0 24 24" fill="none">
    <path d="M4.50775 21.4999H19.5078C20.6123 21.4999 21.5078 20.6045 21.5078 19.5V4.50039C21.5078 3.39584 20.6124 2.50042 19.5078 2.50039L4.5078 2.5C3.40321 2.49997 2.50775 3.39541 2.50775 4.5V19.4999C2.50775 20.6045 3.40318 21.4999 4.50775 21.4999Z" stroke="currentColor" stroke-width="2" stroke-linejoin="round" />
    <path d="M13.0078 6.5V17.5002" stroke="currentColor" stroke-width="2" stroke-linecap="round" stroke-linejoin="round" />
    <path d="M16.0078 6.5V17.5002" stroke="currentColor" stroke-width="2" stroke-linecap="round" stroke-linejoin="round" />
    <path d="M17.008 6.5H9.90061C9.13338 6.5 8.39757 6.81607 7.85505 7.37868C7.31253 7.94129 7.00775 8.70435 7.00775 9.5C7.00775 10.2956 7.31253 11.0587 7.85505 11.6213C8.39757 12.1839 9.13338 12.5 9.90061 12.5H13.0078" stroke="currentColor" stroke-width="2" stroke-linecap="round" stroke-linejoin="round" />
</svg>