<svg xmlns="http://www.w3.org/2000/svg" width="24" height="24" viewBox="0 0 24 24" fill="none">
    <path d="M16.0078 18.5L17.9022 17.5528C18.5798 17.214 19.0078 16.5215 19.0078 15.7639V13.5C19.0078 12.3954 19.9032 11.5 21.0078 11.5C21.5601 11.5 22.0078 11.0523 22.0078 10.5V10C22.0078 7.79086 20.217 6 18.0078 6V4H17.0078C15.9032 4 15.0078 4.89543 15.0078 6V7L14.0078 10C10.9702 10 8.50781 12.4624 8.50781 15.5C8.50781 18.5376 10.9702 21 14.0078 21H16.0078V18.5ZM16.0078 18.5V17C16.0078 15.3431 14.6647 14 13.0078 14" stroke="currentColor" stroke-width="2" stroke-linecap="round" stroke-linejoin="round" />
    <path d="M10.0078 11.5V7C10.0078 4.79086 8.21695 3 6.00781 3C3.79867 3 2.00781 4.79086 2.00781 7V8C2.00781 9.38071 3.1271 10.5 4.50781 10.5C5.88852 10.5 7.00781 9.38071 7.00781 8" stroke="currentColor" stroke-width="2" stroke-linecap="round" stroke-linejoin="round" />
    <path d="M5.00781 11V15C5.00781 18.3137 7.6941 21 11.0078 21H14.0078" stroke="currentColor" stroke-width="2" stroke-linecap="round" stroke-linejoin="round" />
    <path d="M18.0078 21.75C18.422 21.75 18.7578 21.4142 18.7578 21C18.7578 20.5858 18.422 20.25 18.0078 20.25V21V21.75ZM11.0078 21V21.75H18.0078V21V20.25H11.0078V21Z" fill="currentColor" />
</svg>