<svg xmlns="http://www.w3.org/2000/svg" width="24" height="24" viewBox="0 0 24 24" fill="none">
    <path d="M13.0011 2.00012C14.1051 2.00012 15 2.93138 15 4.08015V5.00003C15 5.62954 14.7036 6.22232 14.2 6.60003L10.2 9.60003C9.48889 10.1334 8.51111 10.1334 7.8 9.60003L3.8 6.60003C3.29639 6.22232 3 5.62955 3 5.00003V4.07994C3 2.93129 3.89483 2.00012 4.99866 2.00012" stroke="currentColor" stroke-width="2" stroke-linecap="round" stroke-linejoin="round" />
    <path d="M9.00024 14.0001V17.4999C9.00024 19.9853 11.0151 22.0002 13.5006 22.0002C15.986 22.0002 18.0009 19.9853 18.0009 17.4999V16.0001" stroke="currentColor" stroke-width="2" stroke-linecap="round" stroke-linejoin="round" />
    <path d="M14.5002 6.50012L12.1194 11.738C12.0416 11.9093 11.9169 12.0552 11.7599 12.1589L8.96984 14.0002L6.23492 12.1583C6.08148 12.0549 5.95972 11.911 5.88317 11.7426L3.50024 6.50012" stroke="currentColor" stroke-width="2" stroke-linecap="round" stroke-linejoin="round" />
    <path d="M21.0002 13.0001C21.0002 14.657 19.6571 16.0001 18.0002 16.0001C16.3434 16.0001 15.0002 14.657 15.0002 13.0001C15.0002 11.3433 16.3434 10.0001 18.0002 10.0001C19.6571 10.0001 21.0002 11.3433 21.0002 13.0001Z" stroke="currentColor" stroke-width="2" stroke-linecap="round" stroke-linejoin="round" />
    <path d="M18.125 13.0001H18M18.25 13.0001C18.25 13.1382 18.1381 13.2501 18 13.2501C17.8619 13.2501 17.75 13.1382 17.75 13.0001C17.75 12.8621 17.8619 12.7501 18 12.7501C18.1381 12.7501 18.25 12.8621 18.25 13.0001Z" stroke="currentColor" stroke-width="2" stroke-linecap="round" stroke-linejoin="round" />
</svg>