<svg xmlns="http://www.w3.org/2000/svg" width="24" height="24" viewBox="0 0 24 24" fill="none">
    <path d="M2.99997 19V5C2.99997 3.89543 3.8954 3 4.99997 3H15.1715C15.702 3 16.2107 3.21071 16.5858 3.58579L20.4142 7.41421C20.7893 7.78929 21 8.29799 21 8.82843V19C21 20.1046 20.1045 21 19 21H4.99997C3.8954 21 2.99997 20.1046 2.99997 19Z" stroke="currentColor" stroke-width="2" stroke-linecap="round" stroke-linejoin="round" />
    <path d="M15 3V7C15 8.10457 15.8954 9 17 9H21" stroke="currentColor" stroke-width="2" stroke-linecap="round" stroke-linejoin="round" />
    <path d="M14.5 16C13.8152 16.6257 12.9459 17 12 17C11.054 17 10.1848 16.6257 9.49997 16M8.24997 12.125V12.25M15.75 12.1257V12.2507M8.49997 12.25C8.49997 12.3881 8.38804 12.5 8.24997 12.5C8.1119 12.5 7.99997 12.3881 7.99997 12.25C7.99997 12.1119 8.1119 12 8.24997 12C8.38804 12 8.49997 12.1119 8.49997 12.25ZM16 12.2507C16 12.3887 15.888 12.5007 15.75 12.5007C15.6119 12.5007 15.5 12.3887 15.5 12.2507C15.5 12.1126 15.6119 12.0007 15.75 12.0007C15.888 12.0007 16 12.1126 16 12.2507Z" stroke="currentColor" stroke-width="2" stroke-linecap="round" stroke-linejoin="round" />
</svg>