<svg xmlns="http://www.w3.org/2000/svg" width="24" height="24" viewBox="0 0 24 24" fill="none">
    <path d="M17.4776 11.0001C17.485 11 17.4925 11 17.5 11C19.9853 11 22 13.0147 22 15.5C22 16.7103 21.7772 17.6841 21 18.5M17.4776 11.0001C17.4924 10.8354 17.5 10.6686 17.5 10.5C17.5 7.46243 15.0376 5 12 5C9.12324 5 6.76233 7.20862 6.52042 10.0227M17.4776 11.0001C17.3753 12.1345 16.9286 13.1696 16.2428 14M6.52042 10.0227C3.98398 10.2641 2 12.4003 2 15C2 16.3987 2.57432 17.5643 3.5 18.5M6.52042 10.0227C6.67826 10.0077 6.83823 10 7 10C8.12582 10 9.16474 10.3721 10.0005 11" stroke="currentColor" stroke-width="2" stroke-linecap="round" stroke-linejoin="round" />
    <path d="M7.45538 3.5V2M7.45538 3.5C5.26267 3.5 3.48513 5.29086 3.48513 7.5M7.45538 3.5C8.67809 3.5 9.7717 4.05686 10.5 4.93258M2 7.5H3.48513M3.48513 7.5C3.48513 8.69469 4.00499 9.76706 4.82923 10.5M3.48513 3.5L4.64829 4.67188" stroke="currentColor" stroke-width="2" stroke-linecap="round" stroke-linejoin="round" />
    <path d="M12.125 14.75H12M9.125 17.75H9M6.125 20.75H6M12.125 21.75H12M18.125 20.75H18M15.125 17.75H15M12.25 14.75C12.25 14.8881 12.1381 15 12 15C11.8619 15 11.75 14.8881 11.75 14.75C11.75 14.6119 11.8619 14.5 12 14.5C12.1381 14.5 12.25 14.6119 12.25 14.75ZM9.25 17.75C9.25 17.8881 9.13807 18 9 18C8.86193 18 8.75 17.8881 8.75 17.75C8.75 17.6119 8.86193 17.5 9 17.5C9.13807 17.5 9.25 17.6119 9.25 17.75ZM6.25 20.75C6.25 20.8881 6.13807 21 6 21C5.86193 21 5.75 20.8881 5.75 20.75C5.75 20.6119 5.86193 20.5 6 20.5C6.13807 20.5 6.25 20.6119 6.25 20.75ZM12.25 21.75C12.25 21.8881 12.1381 22 12 22C11.8619 22 11.75 21.8881 11.75 21.75C11.75 21.6119 11.8619 21.5 12 21.5C12.1381 21.5 12.25 21.6119 12.25 21.75ZM18.25 20.75C18.25 20.8881 18.1381 21 18 21C17.8619 21 17.75 20.8881 17.75 20.75C17.75 20.6119 17.8619 20.5 18 20.5C18.1381 20.5 18.25 20.6119 18.25 20.75ZM15.25 17.75C15.25 17.8881 15.1381 18 15 18C14.8619 18 14.75 17.8881 14.75 17.75C14.75 17.6119 14.8619 17.5 15 17.5C15.1381 17.5 15.25 17.6119 15.25 17.75Z" stroke="currentColor" stroke-width="2" stroke-linecap="round" stroke-linejoin="round" />
</svg>