<svg xmlns="http://www.w3.org/2000/svg" width="24" height="24" viewBox="0 0 24 24" fill="none">
    <path d="M17.0079 11.9999C17.0079 14.7614 14.7694 16.9999 12.0079 16.9999C9.24651 16.9999 7.00793 14.7614 7.00793 11.9999C7.00793 9.23852 9.24651 6.99994 12.0079 6.99994C14.7694 6.99994 17.0079 9.23852 17.0079 11.9999Z" stroke="currentColor" stroke-width="2" stroke-linecap="round" stroke-linejoin="round" />
    <path d="M12.1326 3.24994H12.0076M12.1322 20.7499H12.0072M20.7579 12.1249V11.9999M3.25793 12.1249V11.9999M18.2831 5.90092L18.1948 5.81253M5.90844 18.275L5.82006 18.1866M18.1066 18.2755L18.195 18.1871M5.73222 5.90114L5.82061 5.81275M12.2576 3.24994C12.2576 3.38801 12.1457 3.49994 12.0076 3.49994C11.8696 3.49994 11.7576 3.38801 11.7576 3.24994C11.7576 3.11187 11.8696 2.99994 12.0076 2.99994C12.1457 2.99994 12.2576 3.11187 12.2576 3.24994ZM12.2572 20.7499C12.2572 20.888 12.1452 20.9999 12.0072 20.9999C11.8691 20.9999 11.7572 20.888 11.7572 20.7499C11.7572 20.6119 11.8691 20.4999 12.0072 20.4999C12.1452 20.4999 12.2572 20.6119 12.2572 20.7499ZM20.7579 12.2499C20.6199 12.2499 20.5079 12.138 20.5079 11.9999C20.5079 11.8619 20.6199 11.7499 20.7579 11.7499C20.896 11.7499 21.0079 11.8619 21.0079 11.9999C21.0079 12.138 20.896 12.2499 20.7579 12.2499ZM3.25793 12.2499C3.11986 12.2499 3.00793 12.138 3.00793 11.9999C3.00793 11.8619 3.11986 11.7499 3.25793 11.7499C3.396 11.7499 3.50793 11.8619 3.50793 11.9999C3.50793 12.138 3.396 12.2499 3.25793 12.2499ZM18.3715 5.98931C18.2739 6.08694 18.1156 6.08694 18.018 5.98931C17.9203 5.89168 17.9203 5.73339 18.018 5.63576C18.1156 5.53813 18.2739 5.53813 18.3715 5.63576C18.4692 5.73339 18.4692 5.89168 18.3715 5.98931ZM5.99683 18.3633C5.8992 18.461 5.74091 18.461 5.64328 18.3633C5.54565 18.2657 5.54565 18.1074 5.64328 18.0098C5.74091 17.9122 5.8992 17.9122 5.99683 18.0098C6.09446 18.1074 6.09446 18.2657 5.99683 18.3633ZM18.0182 18.3639C17.9206 18.2663 17.9206 18.108 18.0182 18.0103C18.1158 17.9127 18.2741 17.9127 18.3718 18.0103C18.4694 18.108 18.4694 18.2663 18.3718 18.3639C18.2741 18.4615 18.1158 18.4615 18.0182 18.3639ZM5.64383 5.98953C5.5462 5.8919 5.5462 5.73361 5.64383 5.63598C5.74146 5.53835 5.89975 5.53835 5.99738 5.63598C6.09502 5.73361 6.09502 5.8919 5.99738 5.98953C5.89975 6.08716 5.74146 6.08716 5.64383 5.98953Z" stroke="currentColor" stroke-width="2" stroke-linecap="round" stroke-linejoin="round" />
</svg>