<svg xmlns="http://www.w3.org/2000/svg" width="24" height="24" viewBox="0 0 24 24" fill="none">
    <path d="M17 13C17 10.2386 14.7614 8 12 8C9.23858 8 7 10.2386 7 13" stroke="currentColor" stroke-width="2" stroke-linecap="round" stroke-linejoin="round" />
    <path d="M6 16V20C6 20.5523 6.44772 21 7 21H9C9.55228 21 10 20.5523 10 20V16" stroke="currentColor" stroke-width="2" stroke-linecap="round" stroke-linejoin="round" />
    <path d="M13 16L15 21H16L18 16" stroke="currentColor" stroke-width="2" stroke-linecap="round" stroke-linejoin="round" />
    <path d="M12.1247 4.25H11.9997M20.75 13.125V13M3.25 13.125V13M18.2752 6.90098L18.1868 6.81259M5.72429 6.9012L5.81267 6.81282M12.2497 4.25C12.2497 4.38807 12.1378 4.5 11.9997 4.5C11.8616 4.5 11.7497 4.38807 11.7497 4.25C11.7497 4.11193 11.8616 4 11.9997 4C12.1378 4 12.2497 4.11193 12.2497 4.25ZM20.75 13.25C20.6119 13.25 20.5 13.1381 20.5 13C20.5 12.8619 20.6119 12.75 20.75 12.75C20.8881 12.75 21 12.8619 21 13C21 13.1381 20.8881 13.25 20.75 13.25ZM3.25 13.25C3.11193 13.25 3 13.1381 3 13C3 12.8619 3.11193 12.75 3.25 12.75C3.38807 12.75 3.5 12.8619 3.5 13C3.5 13.1381 3.38807 13.25 3.25 13.25ZM18.3636 6.98937C18.266 7.087 18.1077 7.087 18.01 6.98937C17.9124 6.89174 17.9124 6.73345 18.01 6.63582C18.1077 6.53819 18.266 6.53819 18.3636 6.63582C18.4612 6.73345 18.4612 6.89174 18.3636 6.98937ZM5.6359 6.98959C5.53827 6.89196 5.53827 6.73367 5.6359 6.63604C5.73353 6.53841 5.89182 6.53841 5.98945 6.63604C6.08708 6.73367 6.08708 6.89196 5.98945 6.98959C5.89182 7.08722 5.73353 7.08722 5.6359 6.98959Z" stroke="currentColor" stroke-width="2" stroke-linecap="round" stroke-linejoin="round" />
</svg>