<svg xmlns="http://www.w3.org/2000/svg" width="24" height="24" viewBox="0 0 24 24" fill="none">
    <path d="M16.0858 9.91462C17.1693 9.9358 18.5635 9.69228 19.6699 8.58588C21.2927 6.96317 21.0593 4.72175 20.8569 3.74886C20.7929 3.44069 20.5593 3.20711 20.2511 3.14302C19.2782 2.9407 17.0366 2.70725 15.4138 4.32997C14.3148 5.42888 14.0671 6.81153 14.0846 7.89181M14.0846 7.89181C14.1009 8.90341 14.3497 9.64986 14.3497 9.64986C14.3497 9.64986 14.8923 9.83072 15.6793 9.89417C15.8086 9.9046 15.9446 9.91186 16.0858 9.91462M16.0858 9.91462C15.9535 9.90122 15.818 9.89417 15.6793 9.89417M16.0858 9.91462C18.0078 10.1093 19.2551 11.6451 19.7641 12.4113C19.94 12.6761 19.9409 13.0118 19.765 13.2766C19.613 13.5056 19.3941 13.8022 19.1084 14.1085M14.0846 7.89181C14.094 8.00294 14.0989 8.11643 14.0989 8.23229M14.0846 7.89181C13.9187 5.93269 12.353 4.70884 11.5822 4.22015C11.3206 4.05431 10.9947 4.05721 10.7363 4.22791C10.5057 4.3802 10.204 4.60168 9.89232 4.89235M7.95103 16.0489C7.25131 16.7534 6.90145 17.4531 6.90145 17.4531C6.90145 17.4531 8.32017 20.2903 11.1576 20.2903C13.2991 20.2903 14.6324 18.6742 15.1577 17.8814C15.3316 17.619 15.3316 17.2871 15.1577 17.0247C14.6324 16.2319 13.2991 14.6158 11.1576 14.6158C9.74835 14.6158 8.68906 15.3157 7.97973 16.0202M7.95103 16.0489C7.96053 16.0394 7.9701 16.0298 7.97973 16.0202M7.95103 16.0489L7.97973 16.0202M7.95103 16.0489L2.99997 21M7.97973 16.0202L11.5 12.5M8.32109 8.32112C8.3793 11.0993 11.1576 12.4883 11.1576 12.4883M15.6793 15.6793C12.9013 15.6208 11.5123 12.843 11.5123 12.843M3.70933 12.8425C3.70933 15.6798 6.54677 17.0984 6.54677 17.0984C6.54677 17.0984 9.38421 15.6798 9.38421 12.8425C9.38421 10.7011 7.76791 9.36779 6.97508 8.84259C6.71269 8.66877 6.38085 8.66877 6.11846 8.84259C5.32563 9.36779 3.70933 10.7011 3.70933 12.8425Z" stroke="currentColor" stroke-width="2" stroke-linecap="round" stroke-linejoin="round" />
    <path d="M3 3L21 21" stroke="currentColor" stroke-width="2" stroke-linecap="round" stroke-linejoin="round" />
</svg>