<svg xmlns="http://www.w3.org/2000/svg" width="24" height="24" viewBox="0 0 24 24" fill="none">
    <path d="M2 13.5V14.5C2 15.6046 2.89543 16.5 4 16.5H20C21.1046 16.5 22 15.6046 22 14.5V13.5" stroke="currentColor" stroke-width="2" stroke-linecap="round" stroke-linejoin="round" />
    <path d="M6.49596 13.5L7.99289 7.88649C8.05367 7.65858 8.26008 7.5 8.49596 7.5C8.73184 7.5 8.93825 7.65858 8.99902 7.88649L10.496 13.5M7.49596 11.5H9.49596" stroke="currentColor" stroke-width="2" stroke-linecap="round" stroke-linejoin="round" />
    <path d="M15.5 7.5H14V10.5H15.5C16.3284 10.5 17 9.82843 17 9C17 8.17157 16.3284 7.5 15.5 7.5Z" stroke="currentColor" stroke-width="2" stroke-linecap="round" stroke-linejoin="round" />
    <path d="M15.5 10.5H14V13.5H15.5C16.3284 13.5 17 12.8284 17 12C17 11.1716 16.3284 10.5 15.5 10.5Z" stroke="currentColor" stroke-width="2" stroke-linecap="round" stroke-linejoin="round" />
</svg>