<svg xmlns="http://www.w3.org/2000/svg" width="24" height="24" viewBox="0 0 24 24" fill="none">
    <path d="M2 8.31967C3.99395 6.53623 6.41376 5.33099 9 4.80304M22 8.31967C20.0061 6.53623 17.5862 5.33099 15 4.80304M5 12.3587C6.13592 11.2452 7.50961 10.4294 9 9.9607M19 12.3587C17.8641 11.2453 16.4904 10.4294 15 9.9607M8.5 15.9287C8.65791 15.7739 8.82501 15.6306 9 15.4994M15.5 15.9287C15.3421 15.7739 15.175 15.6306 15 15.4994M12.1256 19.25H12.0006M12.2506 19.25C12.2506 19.3881 12.1387 19.5 12.0006 19.5C11.8625 19.5 11.7506 19.3881 11.7506 19.25C11.7506 19.1119 11.8625 19 12.0006 19C12.1387 19 12.2506 19.1119 12.2506 19.25Z" stroke="currentColor" stroke-width="2" stroke-linecap="round" stroke-linejoin="round" />
    <path d="M12 15.5V4.5" stroke="currentColor" stroke-width="2" stroke-linecap="round" stroke-linejoin="round" />
</svg>