<svg xmlns="http://www.w3.org/2000/svg" width="24" height="24" viewBox="0 0 24 24" fill="none">
    <path d="M22.6524 13.1734C22.6955 13.1423 22.755 13.177 22.749 13.2301C22.2295 17.851 18.8341 21.5944 14.4092 22.6012C14.2691 22.633 14.1987 22.6491 14.1279 22.6305C14.0569 22.6116 14.0011 22.5607 13.8906 22.4596L12.6895 21.36C11.4911 20.2647 10.5917 18.864 9.98144 17.2984C9.83382 16.9197 9.76009 16.7304 9.85741 16.5963C9.9548 16.4622 10.1684 16.4762 10.5957 16.5045C11.0267 16.533 11.4591 16.5467 11.8906 16.5455C15.7517 16.5344 19.6823 15.3508 22.6524 13.1734ZM9.14062 1.5084C9.79583 1.32627 10.1235 1.23559 10.2451 1.41074C10.3666 1.58636 10.1495 1.89083 9.71483 2.49864C7.92665 4.9993 6.99655 8.41619 6.9912 11.8014C6.99064 12.1596 7.00106 12.5196 7.02147 12.8795C7.04587 13.3095 7.0575 13.5248 6.92382 13.6217C6.79016 13.7182 6.60239 13.6432 6.22753 13.4928C4.89936 12.9597 3.68634 12.2156 2.65917 11.2525L2.6455 11.2398L1.63476 10.3619C1.50812 10.2519 1.44524 10.1964 1.41894 10.1188C1.39266 10.0411 1.40908 9.9615 1.4414 9.80235C2.25556 5.79321 5.25987 2.58711 9.14062 1.5084Z" fill="currentColor" />
    <path opacity="0.4" d="M1.30575 12.7453C2.95886 14.2904 4.97312 15.3288 7.12997 15.924C7.30238 15.9716 7.38897 15.9957 7.4454 16.0529C7.50182 16.1101 7.52433 16.1974 7.5704 16.3713C8.07475 18.2743 8.92049 20.0764 10.1515 21.5949C10.6187 22.1712 10.853 22.4596 10.7403 22.6428C10.6277 22.8259 10.2965 22.7501 9.63486 22.5998C5.064 21.5613 1.59092 17.6035 1.25009 12.7736C1.24796 12.7435 1.283 12.7256 1.30575 12.7453ZM13.5939 1.26189C13.6646 1.23875 13.7368 1.2523 13.881 1.27751C18.4034 2.06854 21.9606 5.69274 22.6837 10.2688C22.7104 10.4375 22.7244 10.5225 22.6915 10.6018C22.6585 10.6809 22.5864 10.7322 22.4435 10.8352L21.4815 11.5285L21.4737 11.5334C18.8838 13.4333 15.3755 14.5107 11.8858 14.5207C11.1216 14.5229 10.3633 14.4733 9.62021 14.3723C9.41465 14.3443 9.3112 14.3309 9.23935 14.258C9.16762 14.1851 9.15512 14.0812 9.129 13.8742C9.04282 13.1917 8.99998 12.4981 9.00107 11.8029C9.0069 8.12924 10.2219 4.62717 12.2618 2.59392L12.2696 2.58708L13.3644 1.45037C13.47 1.34069 13.523 1.28507 13.5939 1.26189Z" fill="currentColor" />
</svg>