<svg xmlns="http://www.w3.org/2000/svg" width="24" height="24" viewBox="0 0 24 24" fill="none">
    <path d="M11.6985 11.42L11.6529 11.5204C11.4259 12.02 11.2207 12.4798 11.1048 12.8701C10.9726 13.3155 10.8847 13.8966 11.1986 14.4658C11.2424 14.5453 11.2918 14.6215 11.346 14.6943C11.7344 15.2157 12.2999 15.3765 12.7601 15.4404C13.1904 15.5002 13.7346 15.5001 14.3262 15.5L14.3968 15.5H16.3968C17.108 15.5 17.528 15.5027 17.8138 15.5449L17.825 15.5496L17.8236 15.5596C17.7526 15.8396 17.5931 16.2284 17.3196 16.8848L15.9739 20.1152C15.7616 20.625 16.0024 21.2104 16.512 21.4229C17.0218 21.6353 17.6072 21.3944 17.8196 20.8848L19.1663 17.6543L19.185 17.6096C19.4261 17.0309 19.6491 16.4958 19.762 16.0498C19.8751 15.6031 19.9337 15.037 19.6273 14.4981L19.5609 14.3906L19.4876 14.2881C19.108 13.7978 18.5627 13.6339 18.1068 13.5664C17.6566 13.4998 17.0847 13.4999 16.4657 13.5L16.3968 13.5H16.015L16.8441 11.8418L16.8736 11.7827C17.1715 11.1871 17.4439 10.6425 17.5931 10.1865C17.7419 9.73181 17.845 9.1404 17.5452 8.56349L17.4798 8.44825L17.4066 8.33888C17.0246 7.81263 16.4492 7.64061 15.9759 7.57032C15.5014 7.49986 14.8925 7.49993 14.2265 7.5L14.1605 7.50001H11.1331L11.1092 7.50001C10.8368 7.49999 10.5603 7.49997 10.3236 7.52442C10.0567 7.55201 9.75752 7.61694 9.4632 7.79884C9.16898 7.98072 8.97729 8.21906 8.83332 8.44532C8.70538 8.64643 8.58165 8.89393 8.4597 9.13788L8.44953 9.15821L8.00227 10.0527C7.75528 10.5467 7.95555 11.1476 8.44953 11.3945C8.94351 11.6415 9.54434 11.4413 9.79133 10.9473L10.2386 10.0527C10.3822 9.76549 10.4653 9.6132 10.5286 9.51368C10.646 9.50155 10.8119 9.50001 11.1331 9.50001H12.5716L11.7279 11.3555L11.6985 11.42Z" fill="currentColor" />
    <path d="M19.1465 4C19.1465 5.24264 18.1391 6.25 16.8965 6.25C15.6538 6.25 14.6465 5.24264 14.6465 4C14.6465 2.75736 15.6538 1.75 16.8965 1.75C18.1391 1.75 19.1465 2.75736 19.1465 4Z" fill="currentColor" />
    <path opacity="0.4" d="M12.5537 16.9258C12.4157 16.9066 12.2543 16.8789 12.0786 16.8358C11.4816 16.6892 10.719 16.3646 10.1426 15.5908C10.0476 15.4634 9.96152 15.3296 9.88477 15.1904C9.72152 14.8944 9.618 14.6003 9.55727 14.3172C9.44434 13.7907 9.47945 13.3022 9.55371 12.9092C9.05415 13.0456 8.51132 13.0305 8.00064 12.8344C5.80558 13.2533 4.14648 15.1829 4.14648 17.5C4.14648 20.1233 6.27313 22.25 8.89648 22.25C11.5198 22.25 13.6465 20.1233 13.6465 17.5C13.6465 17.3298 13.6375 17.1617 13.6201 16.9961C13.2557 16.9894 12.8848 16.9717 12.5537 16.9258Z" fill="currentColor" />
</svg>