<svg xmlns="http://www.w3.org/2000/svg" width="24" height="24" viewBox="0 0 24 24" fill="none">
    <path opacity="0.4" d="M22.75 12C22.75 6.06293 17.937 1.25 12 1.25C6.06294 1.25 1.25 6.06294 1.25 12C1.25 12.1101 1.25166 12.2198 1.25494 12.3291H3.21094H6.08887C6.48118 12.3291 6.67757 12.329 6.84668 12.249C6.92966 12.2097 7.00738 12.1566 7.07617 12.0918C7.2165 11.9596 7.30474 11.7642 7.48047 11.374L7.48172 11.3712C8.43416 9.25662 8.91054 8.19895 9.52734 8.03906C9.81614 7.96424 10.1193 7.99741 10.3896 8.13281C10.9671 8.42234 11.2506 9.56287 11.8174 11.8438L12.0869 12.9287C12.698 15.3879 13.0037 16.6178 13.627 16.8936C13.8757 17.0036 14.1484 17.0292 14.4102 16.9668C15.0661 16.8103 15.5527 15.6544 16.5244 13.3428L16.525 13.3415C16.7023 12.9196 16.7911 12.7084 16.9404 12.5674C17.0034 12.5079 17.0733 12.4581 17.1484 12.4199C17.3269 12.3292 17.537 12.3291 17.957 12.3291H20.7891H22.7451C22.7483 12.2198 22.75 12.1101 22.75 12Z" fill="currentColor" />
    <path d="M6.08881 12.3292H3.21088H1.25488C1.42883 18.1139 6.17297 22.7501 11.9999 22.7501C17.8269 22.7501 22.5711 18.1139 22.745 12.3292H20.789H17.957C17.5369 12.3292 17.3268 12.3293 17.1484 12.42C17.0732 12.4582 17.0033 12.508 16.9404 12.5674C16.791 12.7085 16.7022 12.9197 16.5249 13.3416L16.5244 13.3428C15.5526 15.6544 15.066 16.8104 14.4101 16.9669C14.1483 17.0293 13.8756 17.0036 13.6269 16.8936C13.0037 16.6179 12.698 15.388 12.0869 12.9288L11.8173 11.8438C11.2505 9.56293 10.967 8.4224 10.3896 8.13287C10.1193 7.99747 9.81608 7.9643 9.52728 8.03912C8.91048 8.19901 8.4341 9.25668 7.48167 11.3713L7.48041 11.3741C7.30468 11.7642 7.21644 11.9597 7.07611 12.0919C7.00732 12.1567 6.9296 12.2098 6.84662 12.2491C6.67751 12.3291 6.48112 12.3292 6.08881 12.3292Z" fill="currentColor" />
</svg>