<svg xmlns="http://www.w3.org/2000/svg" width="24" height="24" viewBox="0 0 24 24" fill="none">
    <path opacity="0.4" d="M12 22.7501C17.9371 22.7501 22.75 17.9372 22.75 12.0001C22.75 6.06308 17.9371 1.25014 12 1.25014C11.4603 1.25014 11.0225 1.68795 11.0225 2.22768C11.0226 2.76729 11.4604 3.20424 12 3.20424C16.8576 3.20424 20.7959 7.14255 20.7959 12.0001C20.7959 16.8577 16.8576 20.796 12 20.796C7.1424 20.796 3.2041 16.8577 3.2041 12.0001C3.2041 11.4605 2.76715 11.0227 2.22754 11.0226C1.68781 11.0226 1.25 11.4604 1.25 12.0001C1.25 17.9372 6.06294 22.7501 12 22.7501ZM5.46582 4.66909C5.76372 5.07757 6.31847 5.18702 6.74609 4.93764L6.83008 4.88295C7.47669 4.41235 8.19011 4.02877 8.95215 3.74721L9.28125 3.63198C9.79421 3.46519 10.0755 2.91461 9.90918 2.40151C9.75289 1.92052 9.25837 1.64291 8.77441 1.74721L8.67773 1.77456C7.72803 2.08294 6.83597 2.51927 6.02344 3.06362L5.68066 3.30288C5.24428 3.62049 5.1482 4.2327 5.46582 4.66909ZM2.40137 9.90932C2.91433 10.0756 3.46491 9.79507 3.63184 9.28237C3.88366 8.50664 4.24096 7.77661 4.68652 7.11147L4.88281 6.83022C5.20033 6.39398 5.10496 5.78269 4.66895 5.46499C4.26 5.16744 3.69669 5.23313 3.36621 5.6017L3.30273 5.67983C2.64586 6.58238 2.12589 7.59229 1.77344 8.67788C1.60681 9.19115 1.88817 9.74257 2.40137 9.90932Z" fill="currentColor" />
    <path d="M12 17.0001C12.5523 17.0001 13 16.5524 13 16.0001V13.0001H16L16.1025 12.9952C16.6067 12.9439 17 12.5178 17 12.0001C17 11.4824 16.6067 11.0563 16.1025 11.005L16 11.0001H13V8.00014C13 7.44786 12.5523 7.00014 12 7.00014C11.4477 7.00014 11 7.44786 11 8.00014V11.0001H8C7.44772 11.0001 7 11.4478 7 12.0001C7 12.5524 7.44772 13.0001 8 13.0001H11V16.0001C11 16.5524 11.4477 17.0001 12 17.0001Z" fill="currentColor" />
</svg>