<svg xmlns="http://www.w3.org/2000/svg" width="24" height="24" viewBox="0 0 24 24" fill="none">
    <path d="M1.25 18.0654C1.25 17.527 1.68652 17.0904 2.225 17.0904C2.76348 17.0904 3.2 17.527 3.2 18.0654C3.20003 19.5758 4.42428 20.7998 5.93457 20.8H16.0654C17.5757 20.7998 18.8 19.5758 18.8 18.0654C18.8 17.527 19.2365 17.0904 19.775 17.0904C20.3135 17.0904 20.75 17.527 20.75 18.0654C20.75 20.6527 18.6527 22.7498 16.0654 22.75H5.93457C3.34733 22.7498 1.25003 20.6527 1.25 18.0654ZM1.25 13.975V12.025C1.25 11.4865 1.68652 11.05 2.225 11.05C2.76348 11.05 3.2 11.4865 3.2 12.025V13.975C3.2 14.5135 2.76348 14.95 2.225 14.95C1.68652 14.95 1.25 14.5135 1.25 13.975ZM18.8 13.975V11.05C18.8 10.5115 19.2365 10.075 19.775 10.075C20.3135 10.075 20.75 10.5115 20.75 11.05V13.975C20.75 14.5135 20.3135 14.95 19.775 14.95C19.2365 14.95 18.8 14.5135 18.8 13.975ZM1.25 8.125C1.24989 5.43258 3.43271 3.25 6.125 3.25C6.66348 3.25 7.1 3.68652 7.1 4.225C7.1 4.76348 6.66348 5.2 6.125 5.2C4.50955 5.2 3.19992 6.50968 3.2 8.125C3.2 8.66345 2.76346 9.09997 2.225 9.1C1.68655 9.1 1.25003 8.66346 1.25 8.125ZM12.95 3.25C13.4885 3.25 13.925 3.68652 13.925 4.225C13.925 4.76348 13.4885 5.2 12.95 5.2H10.025C9.48652 5.2 9.05 4.76348 9.05 4.225C9.05 3.68652 9.48652 3.25 10.025 3.25H12.95Z" fill="currentColor" />
    <path opacity="0.4" d="M11.0481 17.251L11.844 17.2998C14.4092 17.4553 16.7817 18.9396 17.5579 21.1777C17.6371 21.4068 17.6007 21.6599 17.4602 21.8574C17.3195 22.0551 17.0915 22.1729 16.8489 22.1729H5.15356C4.91098 22.1729 4.68295 22.056 4.54223 21.8584C4.40159 21.6608 4.36529 21.4069 4.44458 21.1777C5.2202 18.9393 7.60492 17.3926 10.1702 17.2783C10.4249 17.267 10.6946 17.2572 10.9836 17.25C11.005 17.2495 11.0268 17.2497 11.0481 17.251ZM14.2502 12.5C14.2502 14.2949 12.7952 15.75 11.0002 15.75C9.20541 15.7499 7.75024 14.2949 7.75024 12.5C7.75024 10.7051 9.20541 9.25011 11.0002 9.25C12.7952 9.25 14.2502 10.7051 14.2502 12.5Z" fill="currentColor" />
    <path d="M19.5 1.25C19.8228 1.25 20.1098 1.45644 20.2119 1.7627L20.5732 2.84766C20.6645 3.12103 20.879 3.33548 21.1523 3.42676L22.2373 3.78809C22.5436 3.89017 22.75 4.17718 22.75 4.5C22.75 4.82282 22.5436 5.10983 22.2373 5.21191L21.1523 5.57324C20.879 5.66452 20.6645 5.87897 20.5732 6.15234L20.2119 7.2373C20.1098 7.54356 19.8228 7.75 19.5 7.75C19.1772 7.75 18.8902 7.54356 18.7881 7.2373L18.4268 6.15234C18.3355 5.87897 18.121 5.66452 17.8477 5.57324L16.7627 5.21191C16.4564 5.10983 16.25 4.82282 16.25 4.5C16.25 4.17718 16.4564 3.89017 16.7627 3.78809L17.8477 3.42676C18.121 3.33548 18.3355 3.12103 18.4268 2.84766L18.7881 1.7627L18.835 1.65332C18.9625 1.40837 19.2174 1.25 19.5 1.25Z" fill="currentColor" />
</svg>