<svg xmlns="http://www.w3.org/2000/svg" width="24" height="24" viewBox="0 0 24 24" fill="none">
    <path opacity="0.4" d="M22.749 4.23732C22.7327 4.92109 22.4622 5.57433 21.9902 6.06935C21.9663 6.09448 21.9414 6.11913 21.9092 6.15138L13.043 15.0176C12.4492 15.6114 12.0522 16.0178 11.5615 16.2871C11.3217 16.4187 11.0683 16.5241 10.8057 16.6006C10.2683 16.7571 9.70004 16.75 8.86034 16.75C8.70666 16.75 8.53722 16.7505 8.39257 16.7363C8.23607 16.721 8.03083 16.683 7.82909 16.5547C7.6747 16.4565 7.54353 16.3253 7.4453 16.1709C7.31697 15.9692 7.27899 15.7639 7.26366 15.6074C7.24949 15.4628 7.24999 15.2933 7.24999 15.1397C7.24999 14.3 7.24295 13.7317 7.3994 13.1944C7.47588 12.9317 7.58126 12.6783 7.71288 12.4385C7.98224 11.9478 8.38862 11.5508 8.98241 10.957L17.8486 2.09084C17.8809 2.05857 17.9055 2.03373 17.9307 2.00978C18.4257 1.5378 19.0789 1.26734 19.7627 1.25099C19.7975 1.25016 19.8331 1.25001 19.8789 1.25001C19.9827 1.25001 20.061 1.24962 20.1308 1.25294C21.5467 1.32045 22.6796 2.45333 22.7471 3.86916C22.7504 3.93902 22.75 4.01728 22.75 4.12111C22.75 4.16694 22.7498 4.2025 22.749 4.23732Z" fill="currentColor" />
    <path d="M2.22656 10.0674C2.76553 10.0676 3.20215 10.5043 3.20215 11.043C3.20218 12.4242 3.43703 14.6757 4.54395 16.667C5.62125 18.6047 7.55392 20.3595 11.1328 20.8066C11.6678 20.8735 12.0473 21.3609 11.9805 21.8955C11.9135 22.4301 11.4256 22.809 10.8906 22.7422C6.66051 22.2137 4.2001 20.0656 2.83691 17.6133C1.50384 15.2148 1.25003 12.5885 1.25 11.043C1.25 10.5042 1.68743 10.0674 2.22656 10.0674Z" fill="currentColor" />
    <path d="M19.8271 8.23242C20.4054 9.16257 20.852 10.2598 21.1641 11.3223C21.5408 12.6053 21.75 13.9192 21.75 14.9453C21.7499 17.1581 20.8984 18.7556 19.417 19.5781C17.9991 20.3652 16.2286 20.3125 14.6074 19.7725C14.0964 19.6018 13.8209 19.05 13.9912 18.5391C14.1618 18.0281 14.7142 17.7525 15.2256 17.9229C16.5327 18.3582 17.6913 18.3052 18.4697 17.873C19.1846 17.4761 19.7978 16.6346 19.7979 14.9453C19.7979 14.1473 19.6279 13.0214 19.29 11.8711C19.0571 11.0782 18.753 10.3139 18.3994 9.66016L19.8271 8.23242Z" fill="currentColor" />
    <path d="M10.0361 2.75C12.1351 2.75008 14.0355 3.33655 15.6611 4.27734L14.2236 5.71484C12.9775 5.07988 11.5689 4.70124 10.0361 4.70117C9.497 4.70117 9.05957 4.2644 9.05957 3.72559C9.05958 3.18678 9.49701 2.75 10.0361 2.75Z" fill="currentColor" />
    <path d="M4.5 2.25C4.82282 2.25 5.10983 2.45644 5.21191 2.7627L5.57324 3.84766C5.66452 4.12103 5.87897 4.33548 6.15234 4.42676L7.2373 4.78809C7.54356 4.89017 7.75 5.17718 7.75 5.5C7.75 5.82282 7.54356 6.10983 7.2373 6.21191L6.15234 6.57324C5.87897 6.66452 5.66452 6.87897 5.57324 7.15234L5.21191 8.2373C5.10983 8.54356 4.82282 8.75 4.5 8.75C4.17718 8.75 3.89017 8.54356 3.78809 8.2373L3.42676 7.15234C3.33548 6.87897 3.12103 6.66452 2.84766 6.57324L1.7627 6.21191C1.45644 6.10983 1.25 5.82282 1.25 5.5C1.25 5.17718 1.45644 4.89017 1.7627 4.78809L2.84766 4.42676C3.12103 4.33548 3.33548 4.12103 3.42676 3.84766L3.78809 2.7627L3.83496 2.65332C3.96255 2.40837 4.21737 2.25 4.5 2.25Z" fill="currentColor" />
</svg>