<svg xmlns="http://www.w3.org/2000/svg" width="24" height="24" viewBox="0 0 24 24" fill="none">
    <path opacity="0.4" d="M22.75 16.5C22.75 19.9518 19.9518 22.75 16.5 22.75C13.0482 22.75 10.25 19.9518 10.25 16.5C10.25 13.0482 13.0482 10.25 16.5 10.25C19.9518 10.25 22.75 13.0482 22.75 16.5Z" fill="currentColor" />
    <path d="M10 2.25C10.8793 2.25 11.6979 2.69961 12.1699 3.44141L15.7314 9.03906C11.9504 9.42394 9 12.6173 9 16.5C9 16.5837 9.00314 16.667 9.00586 16.75H3.54883C2.27925 16.7499 1.25006 15.7207 1.25 14.4512C1.25 14.014 1.37465 13.5857 1.60938 13.2168L7.83008 3.44141C8.30213 2.69961 9.12074 2.25 10 2.25Z" fill="currentColor" />
    <path d="M19.5 1.25C19.8228 1.25 20.1098 1.45644 20.2119 1.7627L20.5732 2.84766C20.6645 3.12103 20.879 3.33548 21.1523 3.42676L22.2373 3.78809C22.5436 3.89017 22.75 4.17718 22.75 4.5C22.75 4.82282 22.5436 5.10983 22.2373 5.21191L21.1523 5.57324C20.879 5.66452 20.6645 5.87897 20.5732 6.15234L20.2119 7.2373C20.1098 7.54356 19.8228 7.75 19.5 7.75C19.1772 7.75 18.8902 7.54356 18.7881 7.2373L18.4268 6.15234C18.3355 5.87897 18.121 5.66452 17.8477 5.57324L16.7627 5.21191C16.4564 5.10983 16.25 4.82282 16.25 4.5C16.25 4.17718 16.4564 3.89017 16.7627 3.78809L17.8477 3.42676C18.121 3.33548 18.3355 3.12103 18.4268 2.84766L18.7881 1.7627L18.835 1.65332C18.9625 1.40837 19.2174 1.25 19.5 1.25Z" fill="currentColor" />
</svg>