<svg xmlns="http://www.w3.org/2000/svg" width="24" height="24" viewBox="0 0 24 24" fill="none">
    <path d="M4.5 1.25C4.82282 1.25 5.10983 1.45644 5.21191 1.7627L5.57324 2.84766C5.66452 3.12103 5.87897 3.33548 6.15234 3.42676L7.2373 3.78809C7.54356 3.89017 7.75 4.17718 7.75 4.5C7.75 4.82282 7.54356 5.10983 7.2373 5.21191L6.15234 5.57324C5.87897 5.66452 5.66452 5.87897 5.57324 6.15234L5.21191 7.2373C5.10983 7.54356 4.82282 7.75 4.5 7.75C4.17718 7.75 3.89017 7.54356 3.78809 7.2373L3.42676 6.15234C3.33548 5.87897 3.12103 5.66452 2.84766 5.57324L1.7627 5.21191C1.45644 5.10983 1.25 4.82282 1.25 4.5C1.25 4.17718 1.45644 3.89017 1.7627 3.78809L2.84766 3.42676C3.12103 3.33548 3.33548 3.12103 3.42676 2.84766L3.78809 1.7627L3.83496 1.65332C3.96255 1.40837 4.21737 1.25 4.5 1.25Z" fill="currentColor" />
    <path opacity="0.4" d="M13.0498 2.25C14.8259 2.24997 16.2585 2.24995 17.3848 2.40137C18.5547 2.55872 19.5389 2.89633 20.3213 3.67871C21.1037 4.4611 21.4413 5.4453 21.5986 6.61524C21.7501 7.74148 21.75 9.17409 21.75 10.9502V11.1973C21.3963 11.0681 21.0198 11.0001 20.6367 11C19.7779 11.0002 18.9536 11.3416 18.3457 11.9492L13.0869 17.209C12.3916 17.9045 12 18.8477 12 19.832V20.6318C12 21.0364 12.1024 21.4169 12.2813 21.75H10.9502C9.17409 21.75 7.74148 21.7501 6.61524 21.5986C5.4453 21.4413 4.4611 21.1037 3.67871 20.3213C2.89633 19.5389 2.55872 18.5547 2.40137 17.3848C2.24995 16.2585 2.24997 14.8259 2.25 13.0498V11.0156C2.25 9.70785 2.24958 8.58461 2.30762 7.63184H2.60254C2.87522 8.44944 3.64039 9 4.5 9C5.35961 9 6.12479 8.45042 6.39746 7.63281L6.70508 6.70508L7.63184 6.39746C8.44945 6.12479 9 5.35961 9 4.5C9 3.64039 8.45042 2.87522 7.63281 2.60254V2.30664C8.57551 2.24952 9.68466 2.24999 10.9746 2.25H13.0498Z" fill="currentColor" />
    <path d="M8.75 10.252C9.23015 10.252 9.69075 10.4427 10.0303 10.7822L14.7715 15.5234L13.0869 17.209C12.3992 17.8969 12.0094 18.8271 12.001 19.7998H11.0244C9.15858 19.7998 7.85689 19.798 6.875 19.666C5.9214 19.5378 5.41638 19.3031 5.05664 18.9434C4.69685 18.5836 4.46224 18.0779 4.33398 17.124C4.22896 16.3426 4.20613 15.3584 4.20117 14.0488L7.46973 10.7822C7.80928 10.4428 8.26986 10.252 8.75 10.252Z" fill="currentColor" />
    <path d="M16.5 6.25C17.1904 6.25 17.75 6.80964 17.75 7.5C17.75 8.19036 17.1904 8.75 16.5 8.75C15.8096 8.75 15.25 8.19036 15.25 7.5C15.25 6.80964 15.8096 6.25 16.5 6.25Z" fill="currentColor" />
    <path d="M20.6119 17.324L16.9076 21.0291C16.4462 21.4905 15.8204 21.75 15.1679 21.75H14.3684C13.7507 21.75 13.25 21.2493 13.25 20.6316V19.8321C13.25 19.1796 13.5095 18.5538 13.9709 18.0924L17.6752 14.3872L20.6119 17.324Z" fill="currentColor" />
    <path d="M20.6372 12.25C21.1653 12.25 21.6723 12.4594 22.0457 12.8328L22.1672 12.9543C22.5406 13.3277 22.75 13.8347 22.75 14.3628C22.7499 14.8907 22.5404 15.3971 22.1672 15.7704L21.5608 16.3751L18.6241 13.4383L19.2296 12.8328C19.6029 12.4596 20.1093 12.2501 20.6372 12.25Z" fill="currentColor" />
</svg>