<svg xmlns="http://www.w3.org/2000/svg" width="24" height="24" viewBox="0 0 24 24" fill="none">
    <path opacity="0.4" d="M12 2.25C14.0292 2.25 15.6512 2.2485 16.9229 2.41699L16.3682 2.60254C15.5504 2.87513 15 3.64029 15 4.5C15 5.35961 15.5506 6.12479 16.3682 6.39746L17.2939 6.70508L17.6025 7.63281C17.8752 8.45042 18.6404 9 19.5 9C20.3596 9 21.1248 8.44945 21.3975 7.63184L21.582 7.07422C21.7064 8.01086 21.739 9.13778 21.7471 10.4775C21.7483 10.4973 21.75 10.5171 21.75 10.5371V12C21.75 14.0407 21.7515 15.6695 21.5801 16.9443C21.4049 18.2471 21.0325 19.3249 20.1787 20.1787C19.3249 21.0325 18.2471 21.4049 16.9443 21.5801C15.6695 21.7515 14.0407 21.75 12 21.75C9.95933 21.75 8.33049 21.7515 7.05566 21.5801C5.75292 21.4049 4.6751 21.0325 3.82129 20.1787C2.96748 19.3249 2.59511 18.2471 2.41992 16.9443C2.24854 15.6695 2.25 14.0407 2.25 12C2.25 9.95933 2.24854 8.33049 2.41992 7.05566C2.59511 5.75292 2.96748 4.6751 3.82129 3.82129C4.6751 2.96748 5.75292 2.59511 7.05566 2.41992C8.33049 2.24854 9.95933 2.25 12 2.25Z" fill="currentColor" />
    <path d="M10.0302 11.5323C9.69065 11.1927 9.23011 11.002 8.74989 11.002C8.26967 11.002 7.80912 11.1927 7.46956 11.5323L4.22168 14.7802C4.24156 15.5193 4.27958 16.1442 4.35223 16.6846C4.49834 17.7711 4.76849 18.3691 5.19964 18.8002C5.6308 19.2314 6.22882 19.5016 7.31532 19.6477C8.43003 19.7975 9.90404 19.8 11.9999 19.8C14.0957 19.8 15.5697 19.7975 16.6845 19.6477C17.771 19.5016 18.369 19.2314 18.8001 18.8002C19.2313 18.3691 19.5014 17.7711 19.6475 16.6846C19.7202 16.1442 19.7582 15.5193 19.7781 14.7802L18.5302 13.5323C18.1907 13.1927 17.7301 13.002 17.2499 13.002C16.7697 13.002 16.3091 13.1927 15.9696 13.5323L15.4141 14.0877C14.7474 14.7544 14.4141 15.0877 13.9999 15.0877C13.5857 15.0877 13.2523 14.7544 12.5857 14.0877L10.0302 11.5323Z" fill="currentColor" />
    <path d="M19.5 1.25C19.8228 1.25 20.1098 1.45644 20.2119 1.7627L20.5732 2.84766C20.6645 3.12103 20.879 3.33548 21.1523 3.42676L22.2373 3.78809C22.5436 3.89017 22.75 4.17718 22.75 4.5C22.75 4.82282 22.5436 5.10983 22.2373 5.21191L21.1523 5.57324C20.879 5.66452 20.6645 5.87897 20.5732 6.15234L20.2119 7.2373C20.1098 7.54356 19.8228 7.75 19.5 7.75C19.1772 7.75 18.8902 7.54356 18.7881 7.2373L18.4268 6.15234C18.3355 5.87897 18.121 5.66452 17.8477 5.57324L16.7627 5.21191C16.4564 5.10983 16.25 4.82282 16.25 4.5C16.25 4.17718 16.4564 3.89017 16.7627 3.78809L17.8477 3.42676C18.121 3.33548 18.3355 3.12103 18.4268 2.84766L18.7881 1.7627L18.835 1.65332C18.9625 1.40837 19.2174 1.25 19.5 1.25Z" fill="currentColor" />
</svg>