<svg xmlns="http://www.w3.org/2000/svg" width="24" height="24" viewBox="0 0 24 24" fill="none">
    <path opacity="0.4" d="M20.875 14.0417V10.2083C20.875 9.67906 21.2947 9.25 21.8125 9.25C22.3303 9.25 22.75 9.67906 22.75 10.2083V14.0417C22.75 14.9216 22.7508 15.6297 22.7125 16.2045C22.6735 16.7877 22.5908 17.3033 22.3929 17.7917C21.9172 18.9658 21.0046 19.8987 19.856 20.385C19.3783 20.5873 18.8739 20.6718 18.3033 20.7116C17.741 20.7508 17.0483 20.75 16.1875 20.75C15.6697 20.75 15.25 20.3209 15.25 19.7917C15.25 19.2624 15.6697 18.8333 16.1875 18.8333C17.0737 18.8333 17.6915 18.8324 18.1751 18.7987C18.6503 18.7656 18.9279 18.7038 19.1392 18.6143C19.828 18.3226 20.3753 17.7631 20.6608 17.0589C20.7483 16.8429 20.8087 16.5592 20.8411 16.0734C20.8741 15.5791 20.875 14.9476 20.875 14.0417Z" fill="currentColor" />
    <path opacity="0.4" d="M1.25 13.9444V10.0556C1.25 9.16286 1.24917 8.44451 1.28754 7.86141C1.32647 7.2697 1.40919 6.74662 1.60706 6.25117C2.08281 5.06006 2.99541 4.11365 4.14398 3.62028C4.62174 3.41509 5.12614 3.32931 5.69672 3.28893C6.25899 3.24914 6.95169 3.25 7.8125 3.25C8.33027 3.25 8.75 3.68528 8.75 4.22222C8.75 4.75917 8.33027 5.19445 7.8125 5.19445C6.92626 5.19445 6.30848 5.19538 5.82489 5.22957C5.34966 5.2632 5.07214 5.32585 4.86084 5.41661C4.17199 5.71263 3.62468 6.28021 3.33923 6.99458C3.25171 7.2137 3.1913 7.5015 3.15888 7.99433C3.1259 8.49584 3.125 9.1365 3.125 10.0556V13.9444C3.125 14.8635 3.1259 15.5042 3.15888 16.0057C3.1913 16.4985 3.25171 16.7863 3.33923 17.0054C3.62468 17.7198 4.17199 18.2874 4.86084 18.5834C5.07214 18.6742 5.34966 18.7368 5.82489 18.7704C6.30848 18.8046 6.92626 18.8056 7.8125 18.8056C8.33027 18.8056 8.75 19.2408 8.75 19.7778C8.75 20.3147 8.33027 20.75 7.8125 20.75C6.95169 20.75 6.25899 20.7509 5.69672 20.7111C5.12614 20.6707 4.62174 20.5849 4.14398 20.3797C2.99541 19.8863 2.08281 18.9399 1.60706 17.7488C1.40919 17.2534 1.32647 16.7303 1.28754 16.1386C1.24917 15.5555 1.25 14.8371 1.25 13.9444Z" fill="currentColor" />
    <path d="M11 21.75V2.25C11 1.69772 11.4477 1.25 12 1.25C12.5523 1.25 13 1.69772 13 2.25V21.75C13 22.3023 12.5523 22.75 12 22.75C11.4477 22.75 11 22.3023 11 21.75Z" fill="currentColor" />
    <path d="M19.5 1.25C19.8228 1.25 20.1098 1.45644 20.2119 1.7627L20.5732 2.84766C20.6645 3.12103 20.879 3.33548 21.1523 3.42676L22.2373 3.78809C22.5436 3.89017 22.75 4.17718 22.75 4.5C22.75 4.82282 22.5436 5.10983 22.2373 5.21191L21.1523 5.57324C20.879 5.66452 20.6645 5.87897 20.5732 6.15234L20.2119 7.2373C20.1098 7.54356 19.8228 7.75 19.5 7.75C19.1772 7.75 18.8902 7.54356 18.7881 7.2373L18.4268 6.15234C18.3355 5.87897 18.121 5.66452 17.8477 5.57324L16.7627 5.21191C16.4564 5.10983 16.25 4.82282 16.25 4.5C16.25 4.17718 16.4564 3.89017 16.7627 3.78809L17.8477 3.42676C18.121 3.33548 18.3355 3.12103 18.4268 2.84766L18.7881 1.7627L18.835 1.65332C18.9625 1.40837 19.2174 1.25 19.5 1.25Z" fill="currentColor" />
</svg>