<svg xmlns="http://www.w3.org/2000/svg" width="24" height="24" viewBox="0 0 24 24" fill="none">
    <path opacity="0.4" d="M7.13889 20.775V3.225C7.13889 2.68652 7.57417 2.25 8.11111 2.25C8.64805 2.25 9.08333 2.68652 9.08333 3.225V20.775C9.08333 21.3135 8.64805 21.75 8.11111 21.75C7.57417 21.75 7.13889 21.3135 7.13889 20.775ZM14.9167 18.825V11.025C14.9167 10.4865 15.3519 10.05 15.8889 10.05C16.4258 10.05 16.8611 10.4865 16.8611 11.025V18.825C16.8611 19.3635 16.4258 19.8 15.8889 19.8C15.3519 19.8 14.9167 19.3635 14.9167 18.825ZM11.0278 16.875V7.125C11.0278 6.58652 11.4631 6.15 12 6.15C12.5369 6.15 12.9722 6.58652 12.9722 7.125V16.875C12.9722 17.4135 12.5369 17.85 12 17.85C11.4631 17.85 11.0278 17.4135 11.0278 16.875ZM3.25 14.925V9.075C3.25 8.53652 3.68528 8.1 4.22222 8.1C4.75917 8.1 5.19444 8.53652 5.19444 9.075V14.925C5.19444 15.4635 4.75917 15.9 4.22222 15.9C3.68528 15.9 3.25 15.4635 3.25 14.925ZM18.8056 13.95V11.025C18.8056 10.4865 19.2408 10.05 19.7778 10.05C20.3147 10.05 20.75 10.4865 20.75 11.025V13.95C20.75 14.4885 20.3147 14.925 19.7778 14.925C19.2408 14.925 18.8056 14.4885 18.8056 13.95Z" fill="currentColor" />
    <path d="M18.5 2.25C18.8228 2.25 19.1098 2.45644 19.2119 2.7627L19.5732 3.84766C19.6645 4.12103 19.879 4.33548 20.1523 4.42676L21.2373 4.78809C21.5436 4.89017 21.75 5.17718 21.75 5.5C21.75 5.82282 21.5436 6.10983 21.2373 6.21191L20.1523 6.57324C19.879 6.66452 19.6645 6.87897 19.5732 7.15234L19.2119 8.2373C19.1098 8.54356 18.8228 8.75 18.5 8.75C18.1772 8.75 17.8902 8.54356 17.7881 8.2373L17.4268 7.15234C17.3355 6.87897 17.121 6.66452 16.8477 6.57324L15.7627 6.21191C15.4564 6.10983 15.25 5.82282 15.25 5.5C15.25 5.17718 15.4564 4.89017 15.7627 4.78809L16.8477 4.42676C17.121 4.33548 17.3355 4.12103 17.4268 3.84766L17.7881 2.7627L17.835 2.65332C17.9625 2.40837 18.2174 2.25 18.5 2.25Z" fill="currentColor" />
</svg>