<svg xmlns="http://www.w3.org/2000/svg" width="24" height="24" viewBox="0 0 24 24" fill="none">
    <path opacity="0.4" d="M12 2.25C13.8644 2.25 15.3384 2.24859 16.4893 2.40332C16.5991 2.41809 16.7066 2.43607 16.8125 2.4541L16.3682 2.60254C15.5504 2.87513 15 3.64029 15 4.5C15 5.35961 15.5506 6.12479 16.3682 6.39746L17.2939 6.70508L17.6025 7.63281C17.8752 8.45042 18.6404 9 19.5 9C19.9581 9 20.3882 8.84209 20.7324 8.57227C20.7493 9.29611 20.75 10.1028 20.75 11V14C20.75 15.8644 20.7514 17.3384 20.5967 18.4893C20.439 19.6616 20.1067 20.6101 19.3584 21.3584C18.6101 22.1067 17.6616 22.439 16.4893 22.5967C15.3384 22.7514 13.8644 22.75 12 22.75C10.1356 22.75 8.66159 22.7514 7.51074 22.5967C6.33844 22.439 5.38991 22.1067 4.6416 21.3584C3.89329 20.6101 3.56096 19.6616 3.40332 18.4893C3.24859 17.3384 3.25 15.8644 3.25 14V11C3.25 9.13558 3.24859 7.66159 3.40332 6.51074C3.56096 5.33844 3.89329 4.38991 4.6416 3.6416C5.38991 2.89329 6.33844 2.56096 7.51074 2.40332C8.66159 2.24859 10.1356 2.25 12 2.25Z" fill="currentColor" />
    <path d="M13.1875 7.90843V11.35H15.4238C16.1562 11.35 16.75 11.925 16.75 12.6343C16.75 12.9199 16.6517 13.1974 16.4706 13.4228L12.9529 17.8028C12.7263 18.085 12.3778 18.25 12.0087 18.25C11.3481 18.25 10.8125 17.7314 10.8125 17.0916L10.8125 13.65H8.57622C7.84377 13.65 7.25 13.075 7.25 12.3657C7.25 12.0801 7.3483 11.8026 7.52936 11.5772L11.0471 7.19722C11.2737 6.91504 11.6222 6.75 11.9913 6.75C12.6519 6.75 13.1875 7.26865 13.1875 7.90843Z" fill="currentColor" />
    <path d="M19.5 1.25C19.8228 1.25 20.1098 1.45644 20.2119 1.7627L20.5732 2.84766C20.6645 3.12103 20.879 3.33548 21.1523 3.42676L22.2373 3.78809C22.5436 3.89017 22.75 4.17718 22.75 4.5C22.75 4.82282 22.5436 5.10983 22.2373 5.21191L21.1523 5.57324C20.879 5.66452 20.6645 5.87897 20.5732 6.15234L20.2119 7.2373C20.1098 7.54356 19.8228 7.75 19.5 7.75C19.1772 7.75 18.8902 7.54356 18.7881 7.2373L18.4268 6.15234C18.3355 5.87897 18.121 5.66452 17.8477 5.57324L16.7627 5.21191C16.4564 5.10983 16.25 4.82282 16.25 4.5C16.25 4.17718 16.4564 3.89017 16.7627 3.78809L17.8477 3.42676C18.121 3.33548 18.3355 3.12103 18.4268 2.84766L18.7881 1.7627L18.835 1.65332C18.9625 1.40837 19.2174 1.25 19.5 1.25Z" fill="currentColor" />
</svg>