<svg xmlns="http://www.w3.org/2000/svg" width="24" height="24" viewBox="0 0 24 24" fill="none">
    <path d="M21.0429 8.04282C21.4334 7.6523 22.0664 7.6523 22.457 8.04282C22.8475 8.43335 22.8475 9.06636 22.457 9.45688L18.957 12.9569C18.5664 13.3474 17.9334 13.3474 17.5429 12.9569C17.1524 12.5664 17.1524 11.9333 17.5429 11.5428L21.0429 8.04282ZM16.0439 6.54282C16.4344 6.1524 17.0674 6.15238 17.4579 6.54282C17.8483 6.93332 17.8484 7.56637 17.4579 7.95688L15.957 9.45786C15.5665 9.84842 14.9334 9.84835 14.5429 9.45786C14.1525 9.06736 14.1524 8.43432 14.5429 8.0438L16.0439 6.54282Z" fill="currentColor" />
    <path opacity="0.4" d="M4.25 9.25C4.25 8.5709 4.51982 7.91966 5 7.43945L5.43945 7C5.91966 6.51982 6.5709 6.25 7.25 6.25C7.9291 6.25 8.58034 6.51982 9.06055 7L17 14.9395C17.4802 15.4197 17.75 16.0709 17.75 16.75C17.75 17.4291 17.4802 18.0803 17 18.5605L16.5605 19C16.0803 19.4802 15.4291 19.75 14.75 19.75C14.0709 19.75 13.4197 19.4802 12.9395 19L5 11.0605C4.51982 10.5803 4.25 9.9291 4.25 9.25Z" fill="currentColor" />
    <path d="M13 1.25C13.3228 1.25 13.6098 1.45644 13.7119 1.7627L14.001 2.63086C14.0591 2.80462 14.1954 2.94092 14.3691 2.99902L15.2373 3.28809C15.5436 3.39017 15.75 3.67718 15.75 4C15.75 4.32282 15.5436 4.60983 15.2373 4.71191L14.3691 5.00098C14.1954 5.05908 14.0591 5.19538 14.001 5.36914L13.7119 6.2373C13.6098 6.54356 13.3228 6.75 13 6.75C12.6772 6.75 12.3902 6.54356 12.2881 6.2373L11.999 5.36914C11.9409 5.19538 11.8046 5.05908 11.6309 5.00098L10.7627 4.71191C10.4564 4.60983 10.25 4.32282 10.25 4C10.25 3.67718 10.4564 3.39017 10.7627 3.28809L11.6309 2.99902C11.8046 2.94092 11.9409 2.80462 11.999 2.63086L12.2881 1.7627L12.335 1.65332C12.4625 1.40837 12.7174 1.25 13 1.25Z" fill="currentColor" />
    <path d="M10.5693 18.3975L7.75 18.75L4.26758 22.2324C3.93608 22.5638 3.48633 22.75 3.01758 22.75C2.04142 22.7499 1.2501 21.9586 1.25 20.9824C1.25 20.5137 1.43618 20.0639 1.76758 19.7324L5.25 16.25L5.60156 13.4297L10.5693 18.3975Z" fill="currentColor" />
</svg>