<svg xmlns="http://www.w3.org/2000/svg" width="24" height="24" viewBox="0 0 24 24" fill="none">
    <path opacity="0.4" fill-rule="evenodd" clip-rule="evenodd" d="M21 10.1409C21 8.71264 20.9988 7.71642 20.9209 6.94849C20.8446 6.19713 20.7035 5.77518 20.4941 5.46118C20.2752 5.13278 19.9934 4.85137 19.666 4.63208C19.3534 4.42273 18.9336 4.28071 18.1846 4.20435C17.4187 4.12628 16.4252 4.12524 15 4.12524H9C7.57479 4.12524 6.58126 4.12628 5.81543 4.20435C5.0664 4.28071 4.64661 4.42273 4.33398 4.63208C4.0066 4.85137 3.72484 5.13278 3.50586 5.46118C3.29652 5.77518 3.15537 6.19713 3.0791 6.94849C3.00117 7.71642 3 8.71264 3 10.1409V13.1477C3.00015 14.6673 4.12379 15.9208 5.5791 16.1252H7.55224L7.44434 16.2421L7.35119 16.343C6.78866 16.952 6.21668 17.5712 5.82496 18.1252H5.5C5.45854 18.1252 5.41711 18.1226 5.37598 18.1174C2.90703 17.8089 1.00015 15.7008 1 13.1477V10.1409V10.1076C0.999994 8.73619 0.99999 7.63158 1.08984 6.74634C1.18211 5.83736 1.37702 5.04893 1.8418 4.35181C2.2064 3.80496 2.67575 3.33556 3.22168 2.96997C3.91785 2.50386 4.70482 2.30762 5.6123 2.21509C6.49371 2.12523 7.59286 2.12523 8.95618 2.12524H9H15H15.0438C16.4071 2.12523 17.5063 2.12523 18.3877 2.21509C19.2952 2.30762 20.0821 2.50386 20.7783 2.96997C21.3243 3.33556 21.7936 3.80496 22.1582 4.35181C22.623 5.04893 22.8179 5.83736 22.9102 6.74634C23 7.63158 23 8.73618 23 10.1075V10.1409V13.1477C22.9998 15.7008 21.093 17.8089 18.624 18.1174C18.5829 18.1226 18.5415 18.1252 18.5 18.1252H18.1731C17.7814 17.5712 17.2094 16.952 16.6468 16.343L16.5537 16.2421L16.4458 16.1252H18.4209C19.8762 15.9208 20.9998 14.6673 21 13.1477V10.1409Z" fill="currentColor" />
    <path d="M12.0024 14.3496C12.4664 14.3496 12.8268 14.5591 13.1196 14.7998C13.3858 15.0186 13.6726 15.3293 13.9876 15.6707L14.0229 15.709L15.4556 17.2598L15.4957 17.3033C16.1251 17.985 16.6537 18.5576 16.9839 19.0371C17.3089 19.5091 17.6207 20.1442 17.3218 20.8271C17.0227 21.5101 16.3442 21.7117 15.7768 21.793C15.2035 21.8751 14.4291 21.8751 13.5077 21.875L13.4341 21.875H10.5708L10.497 21.875C9.57562 21.8751 8.80131 21.8751 8.22802 21.793C7.66071 21.7117 6.98213 21.5101 6.68309 20.8271C6.38417 20.1443 6.69597 19.5091 7.02098 19.0371C7.3512 18.5576 7.87981 17.985 8.50917 17.3032L8.5493 17.2598L9.98192 15.709L10.0172 15.6707C10.3322 15.3294 10.619 15.0186 10.8852 14.7998C11.1781 14.5591 11.5385 14.3496 12.0024 14.3496Z" fill="currentColor" />
</svg>