<svg xmlns="http://www.w3.org/2000/svg" width="24" height="24" viewBox="0 0 24 24" fill="none">
    <path d="M1.54307 1.54248C1.9336 1.15205 2.56664 1.15199 2.95713 1.54248L22.4571 21.0425C22.8476 21.433 22.8475 22.066 22.4571 22.4566C22.0666 22.8471 21.4336 22.847 21.0431 22.4566L20.3302 21.7437C20.0824 21.7634 19.8285 21.6923 19.6241 21.5279L19.5479 21.4605L17.7804 19.7144C16.1967 20.9843 14.1879 21.7466 12.0001 21.7466C9.82227 21.7466 7.82165 20.9913 6.24131 19.732L4.44542 21.4693C4.04852 21.8526 3.41516 21.8412 3.03135 21.4448C2.64776 21.0479 2.65811 20.4146 3.05479 20.0308L4.81944 18.3257C3.52637 16.7348 2.75019 14.7065 2.7501 12.4966C2.7501 10.1757 3.60582 8.05516 5.01768 6.43115L4.24815 5.66162L2.95713 6.95362C2.56673 7.34388 1.93358 7.34372 1.54307 6.95362C1.15264 6.56313 1.15269 5.93007 1.54307 5.53955L2.83409 4.24756L1.54307 2.95655C1.15255 2.56602 1.15255 1.93301 1.54307 1.54248Z" fill="currentColor" />
    <path opacity="0.4" d="M12.0002 3.24769C17.1087 3.24782 21.2502 7.38914 21.2502 12.4977C21.25 14.0128 20.884 15.4422 20.2375 16.7038L7.79318 4.25941C9.05542 3.61354 10.4849 3.24771 12.0002 3.24769ZM18.0432 2.54066C18.4093 2.17455 18.9883 2.15195 19.381 2.4723L19.4572 2.54066L22.4572 5.54066L22.5256 5.61684C22.8452 6.0096 22.8231 6.58887 22.4572 6.95473C22.0913 7.32025 21.512 7.3427 21.1193 7.02309L21.0432 6.95473L18.0432 3.95473L17.9748 3.87855C17.6546 3.48591 17.6774 2.9068 18.0432 2.54066Z" fill="currentColor" />
</svg>