<svg xmlns="http://www.w3.org/2000/svg" width="24" height="24" viewBox="0 0 24 24" fill="none">
    <path fill-rule="evenodd" clip-rule="evenodd" d="M6.24445 19.74C5.72135 19.3237 5.24437 18.8519 4.82243 18.3335L2.80475 20.2825C2.40788 20.6663 2.39761 21.2995 2.78132 21.6965C3.16513 22.0934 3.79833 22.1046 4.19538 21.721L6.24445 19.74Z" fill="currentColor" />
    <path fill-rule="evenodd" clip-rule="evenodd" d="M19.1981 18.3069C18.778 18.8268 18.3028 19.3004 17.7813 19.7186L19.7961 21.7083C20.1891 22.0962 20.8221 22.0915 21.2101 21.6985C21.5981 21.3055 21.5943 20.6725 21.2013 20.2845L19.1981 18.3069Z" fill="currentColor" />
    <path opacity="0.4" d="M6.24445 19.74C7.82408 20.9971 9.82435 21.7483 12.0001 21.7483C14.1881 21.7483 16.1987 20.9886 17.7825 19.7185C18.304 19.3003 18.7793 18.8268 19.1993 18.3069C20.482 16.7191 21.2501 14.6984 21.2501 12.4983C21.2501 7.38966 17.1087 3.24829 12.0001 3.24829C6.89143 3.24829 2.75006 7.38966 2.75006 12.4983C2.75006 14.7107 3.52679 16.7417 4.82242 18.3335C5.24437 18.8519 5.72134 19.3237 6.24445 19.74Z" fill="currentColor" />
    <path d="M4.29302 2.29131C4.68354 1.90078 5.31655 1.90078 5.70708 2.29131C6.0976 2.68183 6.0976 3.31484 5.70708 3.70537L2.70708 6.70537C2.31655 7.09589 1.68354 7.09589 1.29302 6.70537C0.902491 6.31484 0.902491 5.68183 1.29302 5.29131L4.29302 2.29131Z" fill="currentColor" />
    <path d="M18.293 2.29131C18.6835 1.90078 19.3166 1.90078 19.7071 2.29131L22.7071 5.29131C23.0976 5.68183 23.0976 6.31484 22.7071 6.70537C22.3166 7.09589 21.6835 7.09589 21.293 6.70537L18.293 3.70537C17.9025 3.31484 17.9025 2.68183 18.293 2.29131Z" fill="currentColor" />
    <path d="M14.7004 9.0445C15.2271 8.879 15.7885 9.17217 15.9543 9.69879C16.1198 10.2254 15.8267 10.7869 15.3 10.9527C14.5121 11.201 13.541 12.0208 12.6848 12.9332C12.2784 13.3662 11.9329 13.7819 11.6887 14.0894C11.5671 14.2425 11.4718 14.3679 11.4075 14.4537C11.3753 14.4965 11.3509 14.5298 11.3352 14.5513C11.3273 14.5621 11.3211 14.5699 11.3176 14.5748C11.3159 14.5772 11.3137 14.5797 11.3137 14.5797C11.1127 14.8607 10.7806 15.0189 10.4358 14.9966C10.091 14.9744 9.78163 14.7758 9.61839 14.4713C9.36382 13.996 9.07432 13.691 8.86254 13.5113C8.75616 13.421 8.6684 13.3616 8.61547 13.3287L8.56761 13.3004L8.57152 13.3023C8.07525 13.067 7.8616 12.4746 8.09398 11.9761C8.32753 11.4757 8.92261 11.2592 9.42308 11.4927H9.42504L9.42601 11.4937L9.43773 11.4996C9.44352 11.5024 9.45079 11.5056 9.45824 11.5093C9.47307 11.5168 9.49099 11.5264 9.51195 11.5377C9.55409 11.5603 9.60834 11.5908 9.67211 11.6304C9.79997 11.71 9.96822 11.8262 10.1565 11.9859C10.2759 12.0872 10.4024 12.2072 10.5334 12.3453C10.7368 12.1046 10.9699 11.8377 11.2268 11.564C12.091 10.6432 13.3709 9.46306 14.7004 9.0445ZM8.56468 13.2984L8.56761 13.3004C8.5651 13.2991 8.56175 13.2974 8.56175 13.2974L8.56468 13.2984Z" fill="currentColor" />
</svg>