<svg xmlns="http://www.w3.org/2000/svg" width="24" height="24" viewBox="0 0 24 24" fill="none">
    <path d="M2.99994 21.375H20.9999" stroke="currentColor" stroke-width="2" stroke-linecap="round" stroke-linejoin="round" />
    <path opacity="0.4" d="M19.7499 15.375C19.7499 16.8938 18.5187 18.125 16.9999 18.125H15.9999C14.4812 18.125 13.2499 16.8938 13.2499 15.375V11.375C13.2499 9.85622 14.4812 8.625 15.9999 8.625H16.9999C18.5187 8.625 19.7499 9.85622 19.7499 11.375V15.375Z" fill="currentColor" />
    <path opacity="0.4" d="M10.7499 15.375C10.7499 16.8938 9.51872 18.125 7.99994 18.125H6.99994C5.48116 18.125 4.24994 16.8938 4.24994 15.375V5.375C4.24994 3.85622 5.48116 2.625 6.99994 2.625H7.99994C9.51872 2.625 10.7499 3.85622 10.7499 5.375V15.375Z" fill="currentColor" />
</svg>