<svg xmlns="http://www.w3.org/2000/svg" width="24" height="24" viewBox="0 0 24 24" fill="none">
    <path d="M21 17.5C21.5523 17.5 22 17.9477 22 18.5C22 19.0523 21.5523 19.5 21 19.5H3C2.44772 19.5 2 19.0523 2 18.5C2 17.9477 2.44772 17.5 3 17.5H21Z" fill="currentColor" />
    <path d="M21 4.5C21.5523 4.5 22 4.94772 22 5.5C22 6.05228 21.5523 6.5 21 6.5H3C2.44772 6.5 2 6.05228 2 5.5C2 4.94772 2.44772 4.5 3 4.5H21Z" fill="currentColor" />
    <path opacity="0.4" d="M16.75 12.5C16.75 14.0188 15.5188 15.25 14 15.25H10C8.48122 15.25 7.25 14.0188 7.25 12.5V11.5C7.25 9.98122 8.48122 8.75 10 8.75H14C15.5188 8.75 16.75 9.98122 16.75 11.5V12.5Z" fill="currentColor" />
</svg>