<svg xmlns="http://www.w3.org/2000/svg" width="24" height="24" viewBox="0 0 24 24" fill="none">
    <path d="M2.125 21V3C2.125 2.44772 2.57272 2 3.125 2C3.67728 2 4.125 2.44772 4.125 3V21C4.125 21.5523 3.67728 22 3.125 22C2.57272 22 2.125 21.5523 2.125 21Z" fill="currentColor" />
    <path opacity="0.4" d="M21.875 8C21.875 9.51878 20.6438 10.75 19.125 10.75H9.125C7.60622 10.75 6.375 9.51878 6.375 8V7C6.375 5.48122 7.60622 4.25 9.125 4.25H19.125C20.6438 4.25 21.875 5.48122 21.875 7V8Z" fill="currentColor" />
    <path opacity="0.4" d="M15.875 17C15.875 18.5188 14.6438 19.75 13.125 19.75H9.125C7.60622 19.75 6.375 18.5188 6.375 17V16C6.375 14.4812 7.60622 13.25 9.125 13.25H13.125C14.6438 13.25 15.875 14.4812 15.875 16V17Z" fill="currentColor" />
</svg>