<svg xmlns="http://www.w3.org/2000/svg" width="24" height="24" viewBox="0 0 24 24" fill="none">
    <path d="M15.4999 21V3C15.4999 2.44772 15.9476 2 16.4999 2C17.0522 2 17.4999 2.44772 17.4999 3V21C17.4999 21.5523 17.0522 22 16.4999 22C15.9476 22 15.4999 21.5523 15.4999 21Z" fill="currentColor" />
    <path d="M6.49991 21V3C6.49991 2.44772 6.94762 2 7.49991 2C8.05219 2 8.49991 2.44772 8.49991 3V21C8.49991 21.5523 8.05219 22 7.49991 22C6.94762 22 6.49991 21.5523 6.49991 21Z" fill="currentColor" />
    <path opacity="0.4" d="M6.83487 18.7497C6.58483 18.7432 6.31707 18.724 6.06436 18.6725C5.51125 18.5598 4.92934 18.2788 4.55166 17.6247C4.37437 17.3175 4.30806 16.9919 4.27823 16.6628C4.24989 16.3501 4.2499 15.9683 4.24991 15.5259L4.24991 15.4997L4.24991 8.49968L4.24991 8.47445C4.2499 8.03192 4.24989 7.6504 4.27823 7.33757C4.30806 7.00839 4.3743 6.68189 4.55167 6.37468C4.92933 5.72084 5.51138 5.4405 6.06436 5.32781C6.49243 5.24062 6.963 5.2451 7.31947 5.2485C7.38362 5.24911 7.44407 5.24968 7.49991 5.24968C7.55575 5.24968 7.6162 5.24911 7.68034 5.2485C8.03682 5.2451 8.50739 5.24062 8.93545 5.32781C9.48843 5.4405 10.0705 5.72084 10.4481 6.37468C10.6255 6.68189 10.6918 7.00839 10.7216 7.33757C10.7499 7.6504 10.7499 8.03192 10.7499 8.47445L10.7499 8.49968L10.7499 15.4997L10.7499 15.5259C10.7499 15.9683 10.7499 16.3501 10.7216 16.6628C10.6918 16.9919 10.6254 17.3175 10.4481 17.6247C10.0705 18.2788 9.48856 18.5598 8.93545 18.6725C8.68275 18.724 8.41498 18.7432 8.16495 18.7497L6.83487 18.7497Z" fill="currentColor" />
    <path opacity="0.4" d="M15.8349 16.7497C15.5848 16.7432 15.3171 16.724 15.0644 16.6725C14.5113 16.5598 13.9293 16.2788 13.5517 15.6247C13.3744 15.3175 13.3081 14.9919 13.2782 14.6628C13.2499 14.3501 13.2499 13.9683 13.2499 13.5259L13.2499 13.4997L13.2499 10.4997L13.2499 10.4744C13.2499 10.0319 13.2499 9.6504 13.2782 9.33757C13.3081 9.00839 13.3743 8.68189 13.5517 8.37468C13.9293 7.72084 14.5114 7.4405 15.0644 7.32781C15.4924 7.24062 15.963 7.2451 16.3195 7.2485C16.3836 7.24911 16.4441 7.24968 16.4999 7.24968C16.5557 7.24968 16.6162 7.24911 16.6803 7.2485C17.0368 7.2451 17.5074 7.24062 17.9355 7.32781C18.4884 7.4405 19.0705 7.72084 19.4481 8.37468C19.6255 8.68189 19.6918 9.00839 19.7216 9.33757C19.7499 9.6504 19.7499 10.0319 19.7499 10.4745L19.7499 10.4997L19.7499 13.4997L19.7499 13.5259C19.7499 13.9683 19.7499 14.3501 19.7216 14.6628C19.6918 14.9919 19.6254 15.3175 19.4481 15.6247C19.0705 16.2788 18.4886 16.5598 17.9355 16.6725C17.6827 16.724 17.415 16.7432 17.1649 16.7497L15.8349 16.7497Z" fill="currentColor" />
</svg>