<svg xmlns="http://www.w3.org/2000/svg" width="24" height="24" viewBox="0 0 24 24" fill="none">
    <path fill-rule="evenodd" clip-rule="evenodd" d="M18.4536 6.90039C18.4887 7.28803 18.4969 7.76582 18.4989 8.40694C18.8141 8.30505 19.1503 8.25 19.4994 8.25C19.8482 8.25 20.184 8.30492 20.4989 8.40658C20.4969 7.75208 20.4876 7.19257 20.4448 6.71973C20.3953 6.17401 20.2962 5.66908 20.0688 5.19922L19.9633 5C19.6123 4.392 19.1074 3.88718 18.4994 3.53613C17.9738 3.23268 17.4034 3.11122 16.7797 3.05469C16.1762 2.99999 15.4315 2.99999 14.5283 3H14.4994H9.49945H9.47058C8.56738 2.99999 7.82269 2.99999 7.21918 3.05469C6.59554 3.11122 6.02505 3.23268 5.49945 3.53613C4.89145 3.88718 4.38663 4.392 4.03558 5C3.73212 5.5256 3.61067 6.09609 3.55414 6.71973C3.51128 7.19257 3.502 7.75207 3.5 8.40657C3.81487 8.30492 4.15075 8.25 4.49945 8.25C4.84857 8.25 5.18484 8.30505 5.50004 8.40694C5.50197 7.76581 5.51022 7.28803 5.54535 6.90039C5.58929 6.41557 5.66863 6.1705 5.76703 6C5.94256 5.69596 6.19541 5.44311 6.49945 5.26758C6.66995 5.16918 6.91502 5.08984 7.39984 5.0459C7.89855 5.0007 8.54646 5 9.49945 5H14.4994C15.4524 5 16.1003 5.0007 16.5991 5.0459C17.0839 5.08984 17.3289 5.16918 17.4994 5.26758C17.8035 5.44311 18.0563 5.69596 18.2319 6L18.3012 6.14453C18.3671 6.30807 18.4206 6.53666 18.4536 6.90039Z" fill="currentColor" />
    <path fill-rule="evenodd" clip-rule="evenodd" d="M18 18.7458C18.4911 18.7387 18.9233 18.7199 19.2949 18.67C19.5403 18.637 19.7763 18.5885 20 18.5144V20C20 20.5523 19.5523 21 19 21C18.4477 21 18 20.5523 18 20V18.7458ZM4.70508 18.67C4.45971 18.637 4.22369 18.5885 4 18.5144V20C4 20.5523 4.44772 21 5 21C5.55228 21 6 20.5523 6 20V18.7458C5.50887 18.7387 5.07674 18.7199 4.70508 18.67Z" fill="currentColor" />
    <path opacity="0.4" d="M7.75 11.5C7.75 10.0542 6.80592 8.8289 5.50059 8.40694C5.18539 8.30505 4.84912 8.25 4.5 8.25C4.1513 8.25 3.81542 8.30492 3.50055 8.40657C2.19463 8.82818 1.25 10.0538 1.25 11.5C1.25 12.4219 1.6347 13.254 2.25 13.8447V14L2.25 14.0467C2.24998 14.9476 2.24996 15.699 2.33008 16.2949C2.41451 16.9225 2.6003 17.489 3.05566 17.9443C3.333 18.2217 3.65153 18.399 4 18.5144C4.22369 18.5884 4.45971 18.6369 4.70508 18.6699C5.07674 18.7199 5.50887 18.7387 6 18.7458C6.29634 18.75 6.61416 18.75 6.95314 18.75H7H17H17.0467C17.3857 18.75 17.7037 18.75 18 18.7458C18.4911 18.7387 18.9233 18.7199 19.2949 18.6699C19.5403 18.6369 19.7763 18.5884 20 18.5144C20.3485 18.399 20.667 18.2217 20.9443 17.9443C21.3997 17.489 21.5855 16.9225 21.6699 16.2949C21.75 15.699 21.75 14.9476 21.75 14.0468V14V13.8447C22.3653 13.254 22.75 12.4219 22.75 11.5C22.75 10.0538 21.8054 8.82819 20.4994 8.40658C20.1846 8.30492 19.8487 8.25 19.5 8.25C19.1509 8.25 18.8146 8.30505 18.4994 8.40694C17.1941 8.8289 16.25 10.0542 16.25 11.5V12C16.25 12.4924 16.248 12.7864 16.2197 12.9971C16.2067 13.0936 16.1916 13.1423 16.1826 13.1641C16.1812 13.1675 16.1767 13.1748 16.1748 13.1777C16.1729 13.1787 16.1691 13.1806 16.1641 13.1826C16.1423 13.1916 16.0936 13.2067 15.9971 13.2197C15.7864 13.248 15.4924 13.25 15 13.25H9C8.50756 13.25 8.21364 13.248 8.00293 13.2197C7.90637 13.2067 7.85772 13.1916 7.83594 13.1826C7.83247 13.1812 7.82522 13.1767 7.82227 13.1748C7.82126 13.1729 7.81944 13.1691 7.81738 13.1641C7.80842 13.1423 7.79326 13.0936 7.78027 12.9971C7.75197 12.7864 7.75 12.4924 7.75 12V11.5Z" fill="currentColor" />
</svg>