<svg xmlns="http://www.w3.org/2000/svg" width="24" height="24" viewBox="0 0 24 24" fill="none">
    <path d="M7.99939 2.99997C8.55167 2.99997 8.99939 3.44768 8.99939 3.99997V18.0498C9.20974 17.8302 9.42636 17.5908 9.64002 17.3447C10.0589 16.8622 10.4486 16.3763 10.7347 16.0097C10.8772 15.8272 10.9928 15.675 11.0726 15.5693C11.1126 15.5165 11.1438 15.4749 11.1644 15.4472C11.1746 15.4335 11.1819 15.4228 11.1869 15.416C11.1892 15.4128 11.1927 15.4091 11.1927 15.4091L11.1937 15.4072C11.5211 14.9627 12.1475 14.8672 12.5922 15.1943C13.0367 15.5217 13.1322 16.1481 12.8051 16.5927L12.8041 16.5947L12.8021 16.5966C12.8004 16.5989 12.7974 16.6023 12.7943 16.6064C12.7881 16.6147 12.7794 16.6271 12.7679 16.6425C12.7449 16.6734 12.711 16.7179 12.6683 16.7744C12.583 16.8873 12.4609 17.048 12.3109 17.2402C12.0118 17.6235 11.599 18.1379 11.1498 18.6552C10.7048 19.1677 10.2039 19.706 9.73084 20.124C9.49554 20.3319 9.24395 20.5318 8.9906 20.6845C8.76459 20.8208 8.40965 21 7.99939 21C7.58918 20.9999 7.23417 20.8208 7.00818 20.6845C6.75487 20.5318 6.50321 20.3319 6.26794 20.124C5.79489 19.706 5.29395 19.1677 4.849 18.6552C4.39982 18.1379 3.987 17.6235 3.68787 17.2402C3.53792 17.0481 3.41575 16.8873 3.33044 16.7744C3.2878 16.7179 3.25385 16.6734 3.23084 16.6425C3.21936 16.6271 3.21062 16.6147 3.20447 16.6064C3.20147 16.6024 3.19929 16.5989 3.19763 16.5966L3.1947 16.5947V16.5927C2.86765 16.1481 2.96215 15.5227 3.40662 15.1953C3.85128 14.8678 4.47752 14.9626 4.80505 15.4072L4.80603 15.4091C4.80603 15.4091 4.80954 15.4128 4.81189 15.416C4.8169 15.4228 4.82416 15.4336 4.83435 15.4472C4.85498 15.4749 4.88625 15.5165 4.92615 15.5693C5.006 15.675 5.12159 15.8272 5.26404 16.0097C5.55013 16.3763 5.93985 16.8622 6.35876 17.3447C6.5724 17.5907 6.78906 17.8302 6.99939 18.0498V3.99997C6.99939 3.44773 7.44716 3.00004 7.99939 2.99997Z" fill="currentColor" />
    <path opacity="0.4" d="M16.7412 13.2344C17.0061 13.09 17.5074 12.873 18.0605 13.0928L18.1719 13.1426L18.2783 13.2022C18.7842 13.5131 18.9114 14.0427 18.9551 14.3408C19.0028 14.6668 19 15.0848 19 15.4883V19H20C20.5523 19 21 19.4477 21 20C21 20.5523 20.5523 21 20 21H16C15.4478 21 15 20.5522 15 20C15 19.4478 15.4478 19.0001 16 19H17V15.4883L16.999 15.4844L16.6006 15.7862C16.1594 16.1174 15.533 16.0287 15.2012 15.5879C14.8693 15.1466 14.9581 14.5195 15.3994 14.1875L15.7988 13.8867C16.1205 13.6448 16.4522 13.392 16.7412 13.2344Z" fill="currentColor" />
    <path opacity="0.4" d="M19 5.99997C19 5.44768 18.5523 4.99997 18 4.99997C17.4477 4.99997 17 5.44768 17 5.99997V7.99997C17 8.55225 17.4477 8.99997 18 8.99997C18.5523 8.99997 19 8.55225 19 7.99997V5.99997ZM21 7.99997C21 9.65682 19.6569 11 18 11C16.3431 11 15 9.65682 15 7.99997V5.99997C15 4.34312 16.3431 2.99997 18 2.99997C19.6569 2.99997 21 4.34312 21 5.99997V7.99997Z" fill="currentColor" />
</svg>