<svg xmlns="http://www.w3.org/2000/svg" width="24" height="24" viewBox="0 0 24 24" fill="none">
    <path d="M6.75012 19.9998V4.99976C6.75012 4.44747 7.19784 3.99976 7.75012 3.99976C8.30241 3.99976 8.75012 4.44747 8.75012 4.99976V19.9998C8.75012 20.552 8.30241 20.9998 7.75012 20.9998C7.19784 20.9998 6.75012 20.552 6.75012 19.9998Z" fill="currentColor" />
    <path d="M4.55572 8.59291C4.2283 9.03748 3.60196 9.13298 3.15728 8.8058C2.7127 8.47838 2.61721 7.85204 2.94439 7.40736L2.94537 7.40736L2.94537 7.40541C2.94578 7.40484 2.94666 7.40435 2.94732 7.40346C2.949 7.40118 2.95208 7.39781 2.95513 7.39369C2.9613 7.38536 2.96998 7.37301 2.9815 7.35756C3.00453 7.32666 3.03844 7.28221 3.08111 7.22572C3.16642 7.11277 3.28856 6.95207 3.43853 6.7599C3.73767 6.37658 4.15046 5.86225 4.59966 5.34486C5.04463 4.83236 5.54553 4.29412 6.01861 3.87611C6.25391 3.66821 6.5055 3.46833 6.75884 3.31557C6.98485 3.17932 7.33979 3.00013 7.75005 3.00014C8.16029 3.00015 8.51526 3.17932 8.74126 3.31557C8.99461 3.46833 9.2462 3.66821 9.4815 3.87611C9.95458 4.29411 10.4555 4.83237 10.9004 5.34486C11.3497 5.86225 11.7624 6.37659 12.0616 6.7599C12.2116 6.95209 12.3337 7.11277 12.419 7.22572C12.4617 7.28223 12.4956 7.32666 12.5186 7.35756C12.5301 7.37301 12.5388 7.38537 12.545 7.39369C12.548 7.3978 12.5501 7.40119 12.5518 7.40346C12.5526 7.40457 12.5543 7.40475 12.5547 7.40541L12.5547 7.40736L12.5557 7.40736C12.8829 7.85201 12.7873 8.4774 12.3428 8.80482C11.8981 9.13234 11.2719 9.0376 10.9444 8.59291L10.9434 8.59096C10.9423 8.58939 10.9399 8.58732 10.9376 8.58412C10.9325 8.57734 10.9253 8.5666 10.9151 8.55287C10.8945 8.52518 10.8632 8.48367 10.8233 8.4308C10.7434 8.32506 10.6279 8.17295 10.4854 7.99037C10.1993 7.62376 9.80962 7.13793 9.39068 6.65541C8.96741 6.16791 8.53302 5.70615 8.15728 5.37416C7.99219 5.22831 7.85471 5.12583 7.75005 5.05775C7.6454 5.12583 7.50792 5.2283 7.34283 5.37416C6.96709 5.70615 6.53269 6.16791 6.10943 6.65541C5.69049 7.13793 5.30081 7.62375 5.0147 7.99037C4.87222 8.17295 4.75668 8.32506 4.67681 8.4308C4.63688 8.48367 4.60565 8.52518 4.58501 8.55287C4.57479 8.5666 4.56758 8.57734 4.56255 8.58412C4.56018 8.58732 4.55785 8.58939 4.55669 8.59096L4.55572 8.59291Z" fill="currentColor" />
    <path opacity="0.4" d="M18.1155 12.9999C18.5432 12.9999 18.9778 12.9969 19.3148 13.0458C19.615 13.0894 20.1721 13.2185 20.4827 13.7519L20.5413 13.8632L20.5901 13.9804C20.8008 14.5603 20.5428 15.0705 20.3841 15.329C20.2059 15.6193 19.9256 15.9515 19.6517 16.2802L17.3851 18.9999H19.7503C20.3026 18.9999 20.7503 19.4476 20.7503 19.9999C20.7503 20.5522 20.3026 20.9999 19.7503 20.9999H17.3851C16.9574 20.9999 16.5228 21.0029 16.1859 20.954C15.8657 20.9075 15.2533 20.764 14.9593 20.1366C14.6653 19.509 14.9473 18.9466 15.1165 18.6708C15.2947 18.3806 15.5751 18.0483 15.8489 17.7196L18.1155 14.9999H15.7503C15.198 14.9999 14.7503 14.5522 14.7503 13.9999C14.7503 13.4476 15.198 12.9999 15.7503 12.9999H18.1155Z" fill="currentColor" />
    <path opacity="0.4" d="M17.7499 2.99976C18.3528 2.99976 18.7733 3.34551 19.0282 3.66284C19.2747 3.96956 19.4603 4.35974 19.6142 4.74194C19.9215 5.50545 20.2362 6.604 20.6132 7.8103L21.204 9.7019C21.3686 10.229 21.0748 10.7892 20.5478 10.9539C20.0207 11.1184 19.4605 10.8247 19.2958 10.2976L18.8896 8.99976H16.6103L16.204 10.2976C16.0393 10.8247 15.4791 11.1184 14.9521 10.9539C14.425 10.7892 14.1313 10.229 14.2958 9.7019L14.8866 7.8103C15.2636 6.604 15.5783 5.50545 15.8857 4.74194C16.0395 4.35974 16.2252 3.96956 16.4716 3.66284C16.7266 3.34551 17.147 2.99976 17.7499 2.99976ZM17.7411 5.48901C17.5815 5.88552 17.4206 6.38553 17.2304 6.99976H18.2695C18.0793 6.38553 17.9183 5.88552 17.7587 5.48901C17.7558 5.48186 17.7528 5.47453 17.7499 5.46753C17.7471 5.47453 17.744 5.48186 17.7411 5.48901Z" fill="currentColor" />
</svg>