<svg xmlns="http://www.w3.org/2000/svg" width="24" height="24" viewBox="0 0 24 24" fill="none">
    <path d="M6.75012 19V4C6.75012 3.44772 7.19784 3 7.75012 3C8.30241 3 8.75012 3.44772 8.75012 4V19C8.75012 19.5523 8.30241 20 7.75012 20C7.19784 20 6.75012 19.5523 6.75012 19Z" fill="currentColor" />
    <path d="M10.9445 15.4072C11.2719 14.9626 11.8982 14.8671 12.3429 15.1943C12.7875 15.5217 12.883 16.1481 12.5558 16.5928H12.5548V16.5947C12.5544 16.5953 12.5535 16.5958 12.5529 16.5967C12.5512 16.5989 12.5481 16.6023 12.5451 16.6064C12.5389 16.6148 12.5302 16.6271 12.5187 16.6426C12.4957 16.6735 12.4617 16.7179 12.4191 16.7744C12.3338 16.8874 12.2116 17.048 12.0617 17.2402C11.7625 17.6235 11.3497 18.1379 10.9005 18.6553C10.4556 19.1678 9.95465 19.706 9.48158 20.124C9.24628 20.3319 8.99469 20.5318 8.74134 20.6846C8.51534 20.8208 8.16039 21 7.75013 21C7.33989 21 6.98492 20.8208 6.75892 20.6846C6.50558 20.5318 6.25398 20.3319 6.01869 20.124C5.5456 19.706 5.04472 19.1678 4.59974 18.6553C4.15053 18.1379 3.73775 17.6235 3.43861 17.2402C3.28862 17.048 3.1665 16.8874 3.08119 16.7744C3.03851 16.7179 3.00461 16.6735 2.98158 16.6426C2.97006 16.6271 2.96138 16.6148 2.95521 16.6064C2.95217 16.6023 2.95005 16.5989 2.94837 16.5967C2.94755 16.5956 2.94593 16.5954 2.94544 16.5947V16.5928H2.94447C2.61732 16.1481 2.71286 15.5227 3.15736 15.1953C3.60205 14.8678 4.22828 14.9625 4.55579 15.4072L4.55677 15.4092C4.55793 15.4107 4.56026 15.4128 4.56263 15.416C4.56766 15.4228 4.57486 15.4335 4.58509 15.4473C4.60573 15.4749 4.63695 15.5165 4.67689 15.5693C4.75676 15.6751 4.8723 15.8272 5.01478 16.0098C5.30089 16.3764 5.69056 16.8622 6.10951 17.3447C6.53278 17.8322 6.96716 18.294 7.3429 18.626C7.508 18.7718 7.64547 18.8743 7.75013 18.9424C7.85478 18.8743 7.99226 18.7718 8.15736 18.626C8.53309 18.294 8.96749 17.8322 9.39076 17.3447C9.8097 16.8622 10.1994 16.3764 10.4855 16.0098C10.628 15.8272 10.7435 15.6751 10.8234 15.5693C10.8633 15.5164 10.8945 15.4749 10.9152 15.4473C10.9254 15.4335 10.9326 15.4228 10.9376 15.416C10.94 15.4128 10.9423 15.4107 10.9435 15.4092L10.9445 15.4072Z" fill="currentColor" />
    <path opacity="0.4" d="M17.7501 13.3525C18.2627 13.3525 18.6699 13.5866 18.965 13.8896C19.2353 14.1675 19.4349 14.5237 19.5958 14.874C19.9168 15.5728 20.2315 16.5884 20.6134 17.8105L21.2042 19.7012C21.369 20.2283 21.0751 20.7894 20.548 20.9541C20.0209 21.1186 19.4607 20.8249 19.296 20.2979L18.8898 19H16.6105L16.2042 20.2979C16.0395 20.8249 15.4793 21.1186 14.9523 20.9541C14.4251 20.7894 14.1313 20.2283 14.296 19.7012L14.8868 17.8105C15.2688 16.5884 15.5835 15.5728 15.9044 14.874C16.0654 14.5237 16.265 14.1675 16.5353 13.8896C16.8303 13.5866 17.2376 13.3525 17.7501 13.3525ZM17.7218 15.709C17.575 16.0287 17.4234 16.4523 17.2433 17H18.257C18.0768 16.4523 17.9253 16.0287 17.7784 15.709C17.769 15.6885 17.7591 15.6691 17.7501 15.6504C17.7412 15.6691 17.7312 15.6885 17.7218 15.709Z" fill="currentColor" />
    <path opacity="0.4" d="M18.1154 3.00004C18.543 3.00004 18.9776 2.99703 19.3146 3.04593C19.6148 3.08955 20.1719 3.21864 20.4825 3.75199L20.5411 3.86332L20.59 3.98051C20.8006 4.56041 20.5426 5.07061 20.3839 5.32914C20.2058 5.61939 19.9254 5.95165 19.6515 6.28031L17.3849 9.00004H19.7501C20.3024 9.00004 20.7501 9.44775 20.7501 10C20.7501 10.5523 20.3024 11 19.7501 11H17.3849C16.9572 11 16.5226 11.003 16.1857 10.9541C15.8655 10.9076 15.2531 10.7641 14.9591 10.1368C14.6651 9.5091 14.9471 8.94669 15.1163 8.67093C15.2945 8.38068 15.5749 8.04842 15.8488 7.71976L18.1154 5.00004H15.7501C15.1978 5.00004 14.7501 4.55232 14.7501 4.00004C14.7501 3.44775 15.1978 3.00004 15.7501 3.00004H18.1154Z" fill="currentColor" />
</svg>