<svg xmlns="http://www.w3.org/2000/svg" width="24" height="24" viewBox="0 0 24 24" fill="none">
    <path opacity="0.4" d="M16.7411 13.2344C17.006 13.0901 17.5074 12.873 18.0605 13.0928L18.1718 13.1426L18.2783 13.2022C18.7841 13.5131 18.9113 14.0427 18.955 14.3409C19.0027 14.6668 18.9999 15.0848 18.9999 15.4883V19.0001H19.9999C20.5522 19.0001 20.9999 19.4478 20.9999 20.0001C20.9999 20.5523 20.5522 21.0001 19.9999 21.0001H15.9999C15.4477 21 15 20.5523 14.9999 20.0001C14.9999 19.4478 15.4477 19.0001 15.9999 19.0001H16.9999V15.4883L16.999 15.4844L16.6005 15.7862C16.1593 16.1174 15.533 16.0287 15.2011 15.5879C14.8692 15.1466 14.9581 14.5195 15.3994 14.1876L15.7988 13.8868C16.1204 13.6449 16.4521 13.392 16.7411 13.2344Z" fill="currentColor" />
    <path opacity="0.4" d="M19.0001 6C19.0001 5.44772 18.5523 5 18.0001 5C17.4478 5 17.0001 5.44772 17.0001 6V8C17.0001 8.55228 17.4478 9 18.0001 9C18.5523 9 19.0001 8.55228 19.0001 8V6ZM21.0001 8C21.0001 9.65685 19.6569 11 18.0001 11C16.3432 11 15.0001 9.65685 15.0001 8V6C15.0001 4.34315 16.3432 3 18.0001 3C19.6569 3 21.0001 4.34315 21.0001 6V8Z" fill="currentColor" />
    <path d="M8.00001 3C8.41027 3 8.76521 3.17918 8.99122 3.31543C9.24457 3.46819 9.49616 3.66807 9.73145 3.87598C10.2045 4.29398 10.7054 4.83223 11.1504 5.34473C11.5996 5.86212 12.0124 6.37644 12.3115 6.75977C12.4615 6.95194 12.5836 7.11263 12.669 7.22559C12.7116 7.28207 12.7455 7.32652 12.7686 7.35742C12.7801 7.37288 12.7888 7.38523 12.7949 7.39355C12.798 7.39768 12.8011 7.40104 12.8027 7.40332C12.8034 7.40422 12.8043 7.40471 12.8047 7.40527V7.40723H12.8057C13.1329 7.8519 13.0374 8.47825 12.5928 8.80566C12.1481 9.13284 11.5218 9.03735 11.1943 8.59277L11.1934 8.59082C11.1922 8.58925 11.1899 8.58718 11.1875 8.58398C11.1825 8.5772 11.1753 8.56646 11.165 8.55273C11.1444 8.52504 11.1132 8.48354 11.0733 8.43066C10.9934 8.32492 10.8778 8.17281 10.7354 7.99023C10.4493 7.62362 10.0596 7.1378 9.64063 6.65527C9.21737 6.16777 8.78297 5.70602 8.40724 5.37402C8.2419 5.22796 8.10472 5.12471 8.00001 5.05664C7.89529 5.12471 7.75811 5.22797 7.59278 5.37402C7.21704 5.70602 6.78266 6.16778 6.35938 6.65527C5.94044 7.13779 5.55077 7.62362 5.26466 7.99023C5.12217 8.17281 5.00663 8.32493 4.92677 8.43066C4.88683 8.48353 4.85561 8.52504 4.83497 8.55273C4.82474 8.56646 4.81753 8.5772 4.81251 8.58398C4.81014 8.58719 4.80781 8.58925 4.80665 8.59082L4.80567 8.59277L4.74024 8.67188C4.39999 9.04764 3.82418 9.11177 3.40724 8.80469C2.96273 8.47726 2.8672 7.85187 3.19434 7.40723H3.19532V7.40527C3.19581 7.40461 3.19743 7.40443 3.19825 7.40332C3.19993 7.40105 3.20204 7.39766 3.20509 7.39355C3.21125 7.38523 3.21994 7.37287 3.23145 7.35742C3.25448 7.32652 3.28839 7.28209 3.33106 7.22559C3.41638 7.11263 3.5385 6.95195 3.68849 6.75977C3.98763 6.37645 4.4004 5.86211 4.84962 5.34473C5.2946 4.83223 5.79548 4.29398 6.26856 3.87598C6.50386 3.66808 6.75546 3.46819 7.0088 3.31543C7.2348 3.17919 7.58977 3.00001 8.00001 3Z" fill="currentColor" />
    <path d="M7.00006 5V20C7.00006 20.5523 7.44778 21 8.00006 21C8.55235 21 9.00006 20.5523 9.00006 20V5C9.00006 4.44772 8.55235 4 8.00006 4C7.44778 4 7.00006 4.44772 7.00006 5Z" fill="currentColor" />
</svg>