<svg xmlns="http://www.w3.org/2000/svg" width="24" height="24" viewBox="0 0 24 24" fill="none">
    <path d="M5.9998 16.9995V3.99951C5.9998 3.44723 6.44752 2.99951 6.9998 2.99951C7.55209 2.99951 7.9998 3.44723 7.9998 3.99951V16.9995C7.9998 17.5518 7.55209 17.9995 6.9998 17.9995C6.44752 17.9995 5.9998 17.5518 5.9998 16.9995Z" fill="currentColor" />
    <path d="M6.9998 1.99951C7.37705 1.99951 7.6912 2.16307 7.87187 2.27197C8.07996 2.39742 8.28229 2.55812 8.46464 2.71924C8.83149 3.04344 9.21524 3.45688 9.55155 3.84424C9.89219 4.23658 10.2045 4.62598 10.4305 4.91553C10.5439 5.06084 10.6363 5.18245 10.701 5.26807C10.7333 5.3109 10.7586 5.34507 10.7762 5.36865C10.7849 5.38042 10.7919 5.38957 10.7967 5.396C10.7989 5.39902 10.8012 5.40105 10.8025 5.40283L10.8045 5.40576V5.40674H10.8055C11.1326 5.85141 11.0371 6.47776 10.5926 6.80518C10.1479 7.13236 9.52155 7.03686 9.19413 6.59229V6.59131C9.19338 6.59029 9.19191 6.5887 9.19023 6.58643L9.10527 6.47314C9.04605 6.39474 8.96021 6.28173 8.85429 6.146C8.64134 5.87312 8.35123 5.51232 8.04081 5.15479C7.72622 4.79246 7.40995 4.45545 7.14042 4.21729C7.08882 4.17169 7.04113 4.13398 6.9998 4.10107C6.95858 4.13388 6.91157 4.17186 6.86015 4.21729C6.5906 4.45545 6.27342 4.79242 5.95878 5.15479C5.64835 5.51231 5.35826 5.87312 5.1453 6.146C5.03938 6.28173 4.95355 6.39474 4.89433 6.47314L4.80937 6.58643C4.80769 6.58869 4.80621 6.59029 4.80546 6.59131V6.59229L4.74003 6.67139C4.39978 7.04715 3.82397 7.11128 3.40702 6.8042C2.96252 6.47677 2.86699 5.85138 3.19413 5.40674H3.19511V5.40576C3.19551 5.40522 3.19639 5.40374 3.19706 5.40283C3.19837 5.40106 3.20068 5.39903 3.20292 5.396C3.20768 5.38957 3.21467 5.38041 3.22343 5.36865C3.241 5.34508 3.26627 5.3109 3.29862 5.26807C3.36329 5.18245 3.45572 5.06085 3.56913 4.91553C3.7951 4.62598 4.1074 4.23658 4.44804 3.84424C4.78435 3.4569 5.16811 3.04343 5.53495 2.71924C5.7173 2.55812 5.91963 2.39742 6.12773 2.27197C6.30838 2.16307 6.62254 1.99952 6.9998 1.99951Z" fill="currentColor" />
    <path d="M16.9998 1.99951C17.377 1.99951 17.6912 2.16307 17.8719 2.27197C18.08 2.39742 18.2823 2.55812 18.4646 2.71924C18.8315 3.04344 19.2152 3.45688 19.5516 3.84424C19.8922 4.23658 20.2045 4.62598 20.4305 4.91553C20.5439 5.06084 20.6363 5.18245 20.701 5.26807C20.7333 5.3109 20.7586 5.34507 20.7762 5.36865C20.7849 5.38042 20.7919 5.38957 20.7967 5.396C20.7989 5.39902 20.8012 5.40105 20.8025 5.40283L20.8045 5.40576V5.40674H20.8055C21.1326 5.85141 21.0371 6.47776 20.5926 6.80518C20.1479 7.13236 19.5215 7.03686 19.1941 6.59229V6.59131C19.1934 6.59029 19.1919 6.5887 19.1902 6.58643L19.1053 6.47314C19.046 6.39474 18.9602 6.28173 18.8543 6.146C18.6413 5.87312 18.3512 5.51232 18.0408 5.15479C17.7262 4.79246 17.4099 4.45545 17.1404 4.21729C17.0888 4.17169 17.0411 4.13398 16.9998 4.10107C16.9586 4.13388 16.9116 4.17186 16.8601 4.21729C16.5906 4.45545 16.2734 4.79242 15.9588 5.15479C15.6484 5.51231 15.3583 5.87312 15.1453 6.146C15.0394 6.28173 14.9535 6.39474 14.8943 6.47314L14.8094 6.58643C14.8077 6.58869 14.8062 6.59029 14.8055 6.59131V6.59229L14.74 6.67139C14.3998 7.04715 13.824 7.11128 13.407 6.8042C12.9625 6.47677 12.867 5.85138 13.1941 5.40674H13.1951V5.40576C13.1955 5.40522 13.1964 5.40374 13.1971 5.40283C13.1984 5.40106 13.2007 5.39903 13.2029 5.396C13.2077 5.38957 13.2147 5.38041 13.2234 5.36865C13.241 5.34508 13.2663 5.3109 13.2986 5.26807C13.3633 5.18245 13.4557 5.06085 13.5691 4.91553C13.7951 4.62598 14.1074 4.23658 14.448 3.84424C14.7843 3.4569 15.1681 3.04343 15.535 2.71924C15.7173 2.55812 15.9196 2.39742 16.1277 2.27197C16.3084 2.16307 16.6225 1.99952 16.9998 1.99951Z" fill="currentColor" />
    <path d="M15.9998 16.9995V3.99951C15.9998 3.44723 16.4475 2.99951 16.9998 2.99951C17.5521 2.99951 17.9998 3.44723 17.9998 3.99951V16.9995C17.9998 17.5518 17.5521 17.9995 16.9998 17.9995C16.4475 17.9995 15.9998 17.5518 15.9998 16.9995Z" fill="currentColor" />
    <path opacity="0.4" d="M19.9998 19.9995C20.5521 19.9995 20.9998 20.4472 20.9998 20.9995C20.9998 21.5518 20.5521 21.9995 19.9998 21.9995H3.9998C3.44752 21.9995 2.9998 21.5518 2.9998 20.9995C2.9998 20.4472 3.44752 19.9995 3.9998 19.9995H19.9998Z" fill="currentColor" />
</svg>