<svg xmlns="http://www.w3.org/2000/svg" width="24" height="24" viewBox="0 0 24 24" fill="none">
    <path d="M18 20C18.5523 20 19 20.4477 19 21C19 21.5523 18.5523 22 18 22H6C5.44772 22 5 21.5523 5 21C5 20.4477 5.44772 20 6 20H18Z" fill="currentColor" />
    <path opacity="0.4" d="M10.9995 15.1686V3C10.9995 2.44772 11.4472 2 11.9995 2C12.5518 2 12.9995 2.44772 12.9995 3V15.1686C13.3962 14.786 13.8233 14.3232 14.2388 13.8447C14.7662 13.2373 15.2555 12.6264 15.6147 12.166C15.7939 11.9365 15.94 11.7454 16.0405 11.6123C16.0906 11.546 16.1297 11.494 16.1558 11.459C16.1638 11.4482 16.1706 11.4388 16.1761 11.4312L16.1851 11.4189L16.1938 11.4072C16.5213 10.9627 17.1476 10.8672 17.5923 11.1943C18.0369 11.5218 18.1323 12.1481 17.8052 12.5928L17.7925 12.6094L17.7799 12.626L17.7593 12.6533C17.7308 12.6915 17.6892 12.7472 17.6362 12.8174C17.5303 12.9577 17.3784 13.1575 17.1919 13.3965C16.8196 13.8736 16.3063 14.5128 15.7485 15.1553C15.195 15.7928 14.5777 16.456 13.9985 16.9678C13.7101 17.2226 13.4077 17.4615 13.1089 17.6416C12.8375 17.8052 12.4427 18 11.9995 18C11.5563 18 11.1615 17.8052 10.8901 17.6416C10.5913 17.4615 10.2889 17.2226 10.0005 16.9678C9.42132 16.456 8.80396 15.7927 8.25048 15.1553C7.6927 14.5129 7.17945 13.8736 6.80712 13.3965C6.62057 13.1574 6.46875 12.9577 6.36278 12.8174C6.30978 12.7472 6.26823 12.6915 6.23974 12.6533L6.21908 12.626L6.20653 12.6094L6.19775 12.5977C5.87061 12.153 5.96223 11.5227 6.40673 11.1953C6.85142 10.8678 7.47765 10.9625 7.80517 11.4072L7.81396 11.4189L7.82285 11.4311C7.8284 11.4388 7.83521 11.4482 7.84325 11.459C7.86935 11.494 7.9084 11.546 7.95849 11.6123C8.05904 11.7454 8.20513 11.9365 8.38427 12.166C8.74353 12.6264 9.23283 13.2373 9.76025 13.8447C10.1757 14.3232 10.6028 14.786 10.9995 15.1686Z" fill="currentColor" />
</svg>