<svg xmlns="http://www.w3.org/2000/svg" width="24" height="24" viewBox="0 0 24 24" fill="none">
    <path opacity="0.4" d="M19 16.0005C19 15.4483 18.5523 15.0005 18 15.0005C17.4477 15.0005 17 15.4483 17 16.0005V18.0005C17 18.5528 17.4477 19.0005 18 19.0005C18.5523 19.0005 19 18.5528 19 18.0005V16.0005ZM21 18.0005C21 19.6574 19.6569 21.0005 18 21.0005C16.3431 21.0005 15 19.6574 15 18.0005V16.0005C15 14.3437 16.3431 13.0005 18 13.0005C19.6569 13.0005 21 14.3437 21 16.0005V18.0005Z" fill="currentColor" />
    <path opacity="0.4" d="M16.7412 3.23498C17.0061 3.09063 17.5074 2.87353 18.0605 3.09337L18.1719 3.14318L18.2783 3.20275C18.7842 3.51369 18.9114 4.04329 18.9551 4.34142C19.0028 4.66736 19 5.08534 19 5.48888V9.0006H20C20.5523 9.0006 21 9.44832 21 10.0006C21 10.5528 20.5523 11.0006 20 11.0006H16C15.4478 11.0005 15 10.5528 15 10.0006C15 9.44836 15.4478 9.00067 16 9.0006H17V5.48888L16.999 5.48498L16.6006 5.78673C16.1594 6.11797 15.533 6.02926 15.2012 5.58849C14.8693 5.14714 14.9581 4.52007 15.3994 4.1881L15.7988 3.88732C16.1205 3.64541 16.4522 3.39256 16.7412 3.23498Z" fill="currentColor" />
    <path d="M7.99938 3.00055C8.55167 3.00055 8.99938 3.44826 8.99938 4.00055V18.0504C9.20973 17.8308 9.42635 17.5914 9.64001 17.3453C10.0589 16.8628 10.4486 16.3769 10.7347 16.0103C10.8772 15.8277 10.9928 15.6756 11.0726 15.5699C11.1125 15.517 11.1438 15.4755 11.1644 15.4478C11.1746 15.4341 11.1819 15.4233 11.1869 15.4166C11.1892 15.4134 11.1927 15.4097 11.1927 15.4097L11.1937 15.4078C11.5211 14.9633 12.1475 14.8678 12.5922 15.1949C13.0367 15.5223 13.1322 16.1486 12.805 16.5933L12.8041 16.5953L12.8021 16.5972C12.8004 16.5995 12.7974 16.6029 12.7943 16.607C12.7881 16.6153 12.7794 16.6277 12.7679 16.6431C12.7449 16.674 12.711 16.7185 12.6683 16.775C12.583 16.8879 12.4609 17.0486 12.3109 17.2408C12.0118 17.6241 11.599 18.1384 11.1498 18.6558C10.7048 19.1683 10.2039 19.7066 9.73083 20.1246C9.49553 20.3325 9.24394 20.5324 8.99059 20.6851C8.76459 20.8214 8.40963 21.0006 7.99938 21.0005C7.58918 21.0005 7.23416 20.8214 7.00817 20.6851C6.75487 20.5324 6.5032 20.3324 6.26794 20.1246C5.79488 19.7066 5.29394 19.1683 4.84899 18.6558C4.39981 18.1385 3.98699 17.6241 3.68786 17.2408C3.53791 17.0486 3.41574 16.8879 3.33044 16.775C3.2878 16.7185 3.25384 16.674 3.23083 16.6431C3.21936 16.6277 3.21061 16.6153 3.20446 16.607C3.20146 16.6029 3.19929 16.5995 3.19762 16.5972L3.19469 16.5953V16.5933C2.86765 16.1487 2.96215 15.5233 3.40661 15.1959C3.85127 14.8684 4.47751 14.9632 4.80505 15.4078L4.80602 15.4097C4.80602 15.4097 4.80954 15.4134 4.81188 15.4166C4.81689 15.4233 4.82416 15.4341 4.83434 15.4478C4.85497 15.4755 4.88625 15.5171 4.92614 15.5699C5.00599 15.6756 5.12159 15.8278 5.26403 16.0103C5.55012 16.3769 5.93985 16.8628 6.35876 17.3453C6.57239 17.5913 6.78906 17.8308 6.99938 18.0504V4.00055C6.99938 3.44831 7.44716 3.00063 7.99938 3.00055Z" fill="currentColor" />
</svg>