<svg xmlns="http://www.w3.org/2000/svg" width="24" height="24" viewBox="0 0 24 24" fill="none">
    <path opacity="0.4" d="M3 14.9995V8.99951C3 8.44723 3.44772 7.99951 4 7.99951C4.55228 7.99951 5 8.44723 5 8.99951V14.9995C5 15.5518 4.55228 15.9995 4 15.9995C3.44772 15.9995 3 15.5518 3 14.9995Z" fill="currentColor" />
    <path d="M7 20.9995L7 2.99951C7 2.44723 7.44772 1.99951 8 1.99951C8.55228 1.99951 9 2.44723 9 2.99951L9 20.9995C9 21.5518 8.55229 21.9995 8 21.9995C7.44772 21.9995 7 21.5518 7 20.9995Z" fill="currentColor" />
    <path opacity="0.4" d="M11 17.9995L11 5.99951C11 5.44723 11.4477 4.99951 12 4.99951C12.5523 4.99951 13 5.44723 13 5.99951L13 17.9995C13 18.5518 12.5523 18.9995 12 18.9995C11.4477 18.9995 11 18.5518 11 17.9995Z" fill="currentColor" />
    <path d="M15 14.9995V8.99951C15 8.44723 15.4477 7.99951 16 7.99951C16.5523 7.99951 17 8.44723 17 8.99951V14.9995C17 15.5518 16.5523 15.9995 16 15.9995C15.4477 15.9995 15 15.5518 15 14.9995Z" fill="currentColor" />
    <path opacity="0.4" d="M19 16.9995L19 6.99951C19 6.44723 19.4477 5.99951 20 5.99951C20.5523 5.99951 21 6.44723 21 6.99951L21 16.9995C21 17.5518 20.5523 17.9995 20 17.9995C19.4477 17.9995 19 17.5518 19 16.9995Z" fill="currentColor" />
</svg>