<svg xmlns="http://www.w3.org/2000/svg" width="24" height="24" viewBox="0 0 24 24" fill="none">
    <path opacity="0.4" d="M2 11.9998C2 9.23872 3.12025 6.73704 4.92871 4.9285C5.31919 4.53803 5.95224 4.53812 6.34277 4.9285C6.7333 5.31902 6.7333 5.95204 6.34277 6.34256C4.89405 7.79136 4 9.79045 4 11.9998C4.00016 16.4179 7.58182 19.9998 12 19.9998C14.2094 19.9998 16.2084 19.1048 17.6572 17.656C18.0478 17.2659 18.6809 17.2657 19.0713 17.656C19.4617 18.0464 19.4615 18.6796 19.0713 19.0701C17.2627 20.8787 14.7611 21.9998 12 21.9998C6.47725 21.9998 2.00016 17.5225 2 11.9998Z" fill="currentColor" />
    <path d="M20.0008 11.9995C20.0008 7.58133 16.419 3.99967 12.0008 3.99951C10.1518 3.99951 8.45061 4.62661 7.09555 5.68018L18.3182 16.9038C19.372 15.5487 20.0008 13.8487 20.0008 11.9995ZM22.0008 11.9995C22.0008 14.7607 20.8797 17.2623 19.0711 19.0708C18.8836 19.2581 18.6292 19.3638 18.3641 19.3638C18.099 19.3637 17.8445 19.2582 17.6571 19.0708L4.92954 6.34229C4.53916 5.95175 4.53906 5.3187 4.92954 4.92822C6.73808 3.11976 9.23976 1.99951 12.0008 1.99951C17.5235 1.99967 22.0008 6.47676 22.0008 11.9995Z" fill="currentColor" />
</svg>