<svg xmlns="http://www.w3.org/2000/svg" width="24" height="24" viewBox="0 0 24 24" fill="none">
    <path opacity="0.4" d="M23.25 12.4995V12.564C23.25 13.927 23.2501 15.0262 23.1338 15.8911C23.0128 16.7912 22.7533 17.549 22.1514 18.1509C21.5495 18.7528 20.7917 19.0123 19.8916 19.1333C19.0267 19.2496 17.9275 19.2495 16.5645 19.2495H16.5H7.5H7.43557C6.07251 19.2495 4.97331 19.2496 4.1084 19.1333C3.20829 19.0123 2.45055 18.7528 1.84863 18.1509C1.24672 17.549 0.987229 16.7912 0.866213 15.8911C0.749948 15.0262 0.749971 13.927 0.75 12.5639V12.4995V11.4995V11.4351C0.749971 10.072 0.749948 8.97284 0.866213 8.10791C0.987229 7.2078 1.24672 6.45006 1.84863 5.84815C2.45055 5.24623 3.20829 4.98674 4.1084 4.86572C4.97333 4.74946 6.07252 4.74948 7.43562 4.74951H7.5H16.5H16.5644C17.9275 4.74948 19.0267 4.74946 19.8916 4.86572C20.7917 4.98674 21.5495 5.24623 22.1514 5.84815C22.7533 6.45006 23.0128 7.2078 23.1338 8.10791C23.2501 8.9728 23.25 10.0719 23.25 11.435V11.4995V12.4995Z" fill="currentColor" />
    <path d="M15.25 11.9995C15.25 13.7944 13.7949 15.2495 12 15.2495C10.2051 15.2495 8.75 13.7944 8.75 11.9995C8.75 10.2046 10.2051 8.74951 12 8.74951C13.7949 8.74951 15.25 10.2046 15.25 11.9995Z" fill="currentColor" />
    <path d="M6 10.9995C6.55228 10.9995 7 11.4472 7 11.9995C7 12.5518 6.55228 12.9995 6 12.9995H5C4.44772 12.9995 4 12.5518 4 11.9995C4 11.4472 4.44772 10.9995 5 10.9995H6Z" fill="currentColor" />
    <path d="M19 10.9995C19.5523 10.9995 20 11.4472 20 11.9995C20 12.5518 19.5523 12.9995 19 12.9995H18C17.4477 12.9995 17 12.5518 17 11.9995C17 11.4472 17.4477 10.9995 18 10.9995H19Z" fill="currentColor" />
</svg>