<svg xmlns="http://www.w3.org/2000/svg" width="24" height="24" viewBox="0 0 24 24" fill="none">
    <path opacity="0.4" fill-rule="evenodd" clip-rule="evenodd" d="M23.25 10.439V10.3745V9.37451V9.30996C23.25 7.94695 23.2501 6.8478 23.1338 5.98291C23.0128 5.0828 22.7533 4.32506 22.1514 3.72315C21.5495 3.12123 20.7917 2.86174 19.8916 2.74072C19.0267 2.62446 17.9275 2.62448 16.5644 2.62451H16.5H7.5H7.43562C6.07252 2.62448 4.97333 2.62446 4.1084 2.74072C3.20829 2.86174 2.45055 3.12123 1.84863 3.72315C1.24672 4.32506 0.987229 5.0828 0.866213 5.98291C0.749948 6.84784 0.749971 7.94704 0.75 9.31013V9.37451V10.3745V10.4389C0.749971 11.802 0.749948 12.9012 0.866213 13.7661C0.987229 14.6662 1.24672 15.424 1.84863 16.0259C2.45055 16.6278 3.20829 16.8873 4.1084 17.0083C4.97331 17.1246 6.07251 17.1245 7.43557 17.1245H7.5H13.764C13.8185 16.6347 14.0335 16.1593 14.4092 15.7837C15.0425 15.1504 15.9583 14.9758 16.75 15.2554V14.3745C16.75 13.1319 17.7574 12.1245 19 12.1245C20.2426 12.1245 21.25 13.1319 21.25 14.3745V15.2554C21.7233 15.0882 22.241 15.0834 22.7162 15.2419C22.9364 14.8042 23.0605 14.3113 23.1338 13.7661C23.2501 12.9012 23.25 11.802 23.25 10.439Z" fill="currentColor" />
    <path d="M15.25 9.87451C15.25 11.6694 13.7949 13.1245 12 13.1245C10.2051 13.1245 8.75 11.6694 8.75 9.87451C8.75 8.07959 10.2051 6.62451 12 6.62451C13.7949 6.62451 15.25 8.07959 15.25 9.87451Z" fill="currentColor" />
    <path d="M6 8.87451C6.55228 8.87451 7 9.32223 7 9.87451C7 10.4268 6.55228 10.8745 6 10.8745H5C4.44772 10.8745 4 10.4268 4 9.87451C4 9.32223 4.44772 8.87451 5 8.87451H6Z" fill="currentColor" />
    <path d="M19 8.87451C19.5523 8.87451 20 9.32223 20 9.87451C20 10.4268 19.5523 10.8745 19 10.8745H18C17.4477 10.8745 17 10.4268 17 9.87451C17 9.32223 17.4477 8.87451 18 8.87451H19Z" fill="currentColor" />
    <path d="M17.9998 14.3745C17.9998 13.8222 18.4476 13.3745 18.9998 13.3745C19.5521 13.3745 19.9998 13.8222 19.9998 14.3745V18.2485C20.211 17.9914 20.4193 17.7299 20.6141 17.4819C20.8434 17.19 21.09 16.8758 21.283 16.6772C21.668 16.2815 22.3012 16.2729 22.6971 16.6577C23.0928 17.0427 23.1015 17.6758 22.7166 18.0718C22.6147 18.1767 22.4433 18.3901 22.1864 18.7173C21.947 19.022 21.6564 19.3944 21.3563 19.7485C21.0598 20.0984 20.7252 20.4656 20.3885 20.7524C20.2197 20.8962 20.0266 21.0398 19.8172 21.1519C19.6158 21.2596 19.3325 21.3745 18.9998 21.3745C18.6672 21.3745 18.3839 21.2596 18.1825 21.1519C17.9731 21.0398 17.78 20.8962 17.6112 20.7524C17.2744 20.4656 16.9399 20.0984 16.6434 19.7485C16.3433 19.3944 16.0527 19.022 15.8133 18.7173C15.5563 18.3901 15.385 18.1767 15.283 18.0718C14.8982 17.6758 14.9068 17.0427 15.3026 16.6577C15.6985 16.2729 16.3317 16.2815 16.7166 16.6772C16.9096 16.8758 17.1563 17.19 17.3856 17.4819C17.5803 17.7299 17.7886 17.9914 17.9998 18.2485V14.3745Z" fill="currentColor" />
</svg>