<svg xmlns="http://www.w3.org/2000/svg" width="24" height="24" viewBox="0 0 24 24" fill="none">
    <path d="M12 2.99951C12.8761 2.99951 13.397 3.63157 13.709 4.12646C14.0342 4.64246 14.3624 5.38428 14.7412 6.23389L18.9131 15.5923C19.138 16.0967 18.9116 16.6877 18.4072 16.9126C17.9028 17.1375 17.3118 16.9111 17.0869 16.4067L15.5674 12.9995H8.43261L6.91308 16.4067C6.68815 16.9111 6.09715 17.1375 5.59277 16.9126C5.08842 16.6877 4.86203 16.0967 5.08691 15.5923L9.25878 6.23389C9.63758 5.38428 9.96575 4.64246 10.291 4.12646C10.603 3.63157 11.1238 2.99951 12 2.99951ZM11.9824 5.19287C11.7526 5.5574 11.4923 6.13691 11.0859 7.04834L9.32421 10.9995H14.6758L12.9141 7.04834C12.5077 6.13691 12.2474 5.5574 12.0176 5.19287C12.0118 5.18364 12.0055 5.17508 12 5.1665C11.9945 5.17508 11.9882 5.18364 11.9824 5.19287Z" fill="currentColor" />
    <path opacity="0.4" d="M20 18.9995C20.5523 18.9995 21 19.4472 21 19.9995C21 20.5518 20.5523 20.9995 20 20.9995H4C3.44772 20.9995 3 20.5518 3 19.9995C3 19.4472 3.44772 18.9995 4 18.9995H20Z" fill="currentColor" />
</svg>