<svg xmlns="http://www.w3.org/2000/svg" width="24" height="24" viewBox="0 0 24 24" fill="none">
    <path fill-rule="evenodd" clip-rule="evenodd" d="M16.2036 19.6423C16.881 19.5202 17.5231 19.2974 18.1138 18.99L18.8948 20.5521C19.1418 21.0461 18.9416 21.6469 18.4476 21.8939C17.9536 22.1409 17.3528 21.9406 17.1058 21.4466L16.2036 19.6423ZM7.79703 19.6423C7.11958 19.5202 6.47752 19.2974 5.88684 18.99L5.10578 20.5521C4.85879 21.0461 5.05907 21.6469 5.55305 21.8939C6.04703 22.1409 6.64785 21.9406 6.89484 21.4466L7.79703 19.6423Z" fill="currentColor" />
    <path fill-rule="evenodd" clip-rule="evenodd" d="M9.32813 2.91327L10 3.58514L10.293 3.29218C10.6835 2.90165 11.3165 2.90165 11.707 3.29218C12.0976 3.6827 12.0976 4.31571 11.707 4.70624L10.707 5.70624L9.70703 6.70624C9.31651 7.09676 8.68349 7.09676 8.29297 6.70624C7.90244 6.31571 7.90244 5.6827 8.29297 5.29218L8.58594 4.99921L7.91406 4.32733C7.88035 4.29362 7.8678 4.28171 7.86133 4.27557C7.68131 4.10398 7.44394 4.00513 7.19531 3.99921C7.19018 3.99909 7.18438 3.9991 7.17067 3.99914L7.12109 3.99921C6.99711 3.99921 6.96994 3.99934 6.95215 4.00018C6.43748 4.02483 6.02563 4.43669 6.00098 4.95136C6.00013 4.96914 6 4.99632 6 5.1203V10.2492H4.59961L4.5752 10.2492C4.50242 10.2492 4.4392 10.2491 4.38184 10.2521C4.25127 10.259 4.12369 10.2769 4 10.305V5.1203L3.99997 5.07684C3.99988 4.99448 3.9998 4.92254 4.00293 4.85663C4.07657 3.31209 5.31289 2.07578 6.85742 2.00214C6.92332 1.999 6.99525 1.99908 7.07759 1.99918L7.12109 1.99921C7.16574 1.99921 7.20467 1.99927 7.24316 2.00018C7.98914 2.01799 8.70213 2.31339 9.24219 2.82831C9.26536 2.85042 9.28804 2.87313 9.3132 2.89833L9.32813 2.91327Z" fill="currentColor" />
    <path opacity="0.4" d="M2.25881 13.3528C2.38768 15.8104 3.82385 17.9164 5.88654 18.9899C6.47722 19.2973 7.11928 19.5201 7.79673 19.6422C8.07441 19.6922 8.35803 19.7254 8.6465 19.7405C8.81568 19.7494 9.01015 19.7493 9.32901 19.7493L9.40041 19.7493H14.5996L14.671 19.7493C14.9899 19.7493 15.1843 19.7494 15.3535 19.7405C15.642 19.7254 15.9256 19.6922 16.2033 19.6422C16.8807 19.5201 17.5228 19.2973 18.1135 18.9899C20.1762 17.9164 21.6123 15.8104 21.7412 13.3528C21.7501 13.1836 21.7501 12.9892 21.75 12.6703L21.75 12.5989L21.75 12.5744C21.7501 12.5019 21.7501 12.4383 21.7471 12.3811C21.6866 11.2314 20.7679 10.3127 19.6182 10.2522C19.5679 10.2496 19.5131 10.2493 19.4513 10.2493L19.4248 10.2493L19.4004 10.2493H6.00002H4.59963L4.57521 10.2493C4.50244 10.2492 4.43921 10.2492 4.38185 10.2522C4.25129 10.2591 4.1237 10.277 4.00002 10.3051C3.03455 10.5243 2.30653 11.362 2.25295 12.3811C2.24994 12.4385 2.24997 12.5017 2.25001 12.5745L2.25002 12.5989L2.25001 12.6703C2.24997 12.9891 2.24994 13.1836 2.25881 13.3528Z" fill="currentColor" />
</svg>