<svg xmlns="http://www.w3.org/2000/svg" width="24" height="24" viewBox="0 0 24 24" fill="none">
    <path opacity="0.4" d="M18.1592 7.04073C18.2864 6.98081 18.4087 7.10383 18.6533 7.34834C19.3215 8.01624 19.5673 8.93492 19.6641 9.84834L20.1768 9.93428C20.6965 10.0209 21.2601 10.083 21.7139 10.3728C22.3306 10.7667 22.6833 11.4129 22.7354 12.1316C22.7523 12.3666 22.752 12.6486 22.752 12.9724V13.0222C22.752 13.346 22.7524 13.6279 22.7354 13.863C22.6833 14.5817 22.3307 15.2278 21.7139 15.6218C21.2601 15.9116 20.6965 15.9737 20.1768 16.0603L19.6641 16.1462C19.5672 17.0595 19.3214 17.9784 18.6533 18.6462C18.0514 19.2477 17.2936 19.5067 16.3936 19.6276C15.5266 19.7441 14.4241 19.7439 13.0566 19.7439C11.3114 19.7439 9.56558 19.7479 7.82031 19.7448C7.55471 19.7444 7.42162 19.7437 7.33398 19.656C7.24651 19.5682 7.24699 19.4434 7.24707 19.1941C7.24711 19.0816 7.24968 18.9735 7.25586 18.8698C7.27984 18.4678 7.29186 18.2663 7.46191 18.1276C7.63197 17.9891 7.89071 18.027 8.40723 18.1013C11.9607 18.6125 16.8047 16.4701 18.0068 11.362C18.2716 10.2369 18.3163 8.95098 18.1172 7.69405C18.056 7.30759 18.0251 7.11425 18.1484 7.04658C18.1516 7.04487 18.156 7.04225 18.1592 7.04073ZM6.42285 6.24971C7.0534 6.2409 7.3685 6.23643 7.41406 6.37666C7.45957 6.51694 7.19085 6.70568 6.65332 7.08369C5.74972 7.71914 4.82216 8.628 4.25684 10.0085C3.70414 11.3045 3.60762 12.7147 3.95312 14.0124C4.01988 14.2631 4.05356 14.3886 4.04102 14.486C4.02845 14.5835 3.96584 14.6926 3.8418 14.9109C3.26155 15.9319 2.91526 17.0656 2.79492 18.2331C2.75986 18.5735 2.74222 18.7442 2.61523 18.7829C2.48844 18.8213 2.39172 18.7061 2.19922 18.4753C1.71661 17.8966 1.47063 17.1492 1.36816 16.3874C1.25162 15.521 1.25194 14.4192 1.25195 13.0525V12.9421C1.25194 11.5754 1.25165 10.4736 1.36816 9.60713C1.48918 8.70745 1.7487 7.94998 2.35059 7.34834C2.9525 6.7467 3.71024 6.48786 4.61035 6.3669C5.20956 6.28638 5.81592 6.25819 6.42285 6.24971ZM19.752 12.9421V13.0515C19.752 13.616 19.7523 14.1358 19.7441 14.612C20.0469 14.5616 20.3529 14.5201 20.6514 14.448C21.0102 14.3612 21.2136 14.1087 21.2393 13.7546C21.2519 13.5801 21.252 13.3525 21.252 12.9968C21.252 12.6411 21.2519 12.4134 21.2393 12.239C21.2135 11.8851 21.0101 11.6334 20.6514 11.5466C20.3528 11.4744 20.047 11.432 19.7441 11.3816C19.7523 11.8578 19.752 12.3775 19.752 12.9421Z" fill="currentColor" />
    <path d="M12.0938 3.25051C15.9734 3.20524 17.2767 7.9133 16.5459 11.0201C15.8779 13.8599 14.0436 15.7727 11.2354 16.5572C9.82024 16.9525 7.97687 16.8147 6.8125 15.8443C6.55837 16.1859 6.34086 16.5533 6.16992 16.9586C5.84223 17.7354 5.66817 18.6918 5.78027 19.9322C5.81757 20.3447 5.51312 20.7093 5.10058 20.7466C4.68813 20.7838 4.32342 20.4794 4.28613 20.067C4.15428 18.6077 4.35431 17.4016 4.78711 16.3755C5.06111 15.726 5.42156 15.165 5.82715 14.6685C5.13996 13.4624 5.05395 11.9554 5.64062 10.5875C6.33893 8.87105 7.76806 8.08514 8.94238 7.48098C10.215 6.82627 12.1149 5.93869 11.376 4.18606C11.2576 3.72269 11.6155 3.2562 12.0938 3.25051Z" fill="currentColor" />
</svg>