<svg xmlns="http://www.w3.org/2000/svg" width="24" height="24" viewBox="0 0 24 24" fill="none">
    <path d="M14.9999 7.99988H20.9999M17.9949 11.0049L17.9949 5.00488" stroke="currentColor" stroke-width="2" stroke-linecap="round" stroke-linejoin="round" />
    <path fill-rule="evenodd" clip-rule="evenodd" d="M7.68939 20C8.44433 21.624 10.0902 22.75 11.9991 22.75C13.9079 22.75 15.5538 21.624 16.3087 20H7.68939Z" fill="currentColor" />
    <path opacity="0.4" fill-rule="evenodd" clip-rule="evenodd" d="M19.5629 18.75H16.691H15.1629H8.83687H7.30878H4.43688H4.4162C4.07146 18.75 3.77711 18.75 3.54431 18.7354C3.31775 18.7211 3.0469 18.6893 2.80017 18.5664C2.08416 18.2097 1.7008 17.4128 1.8695 16.6309L1.89587 16.5312C1.96429 16.304 2.08941 16.1069 2.20349 15.9443C2.33874 15.7516 2.52456 15.5193 2.74255 15.2468L2.74938 15.2383L2.91833 15.0264C3.38343 14.445 3.58392 14.1939 3.75134 13.9346C4.28677 13.1051 4.61807 12.1599 4.71813 11.1777C4.7494 10.8707 4.75036 10.55 4.75036 9.80566V8.5L4.75035 8.4071C4.75027 8.01084 4.75023 7.76927 4.76403 7.55859C4.98557 4.17864 7.67809 1.48641 11.058 1.26465C11.2815 1.25 11.5407 1.25 11.9818 1.25H12.0004H12.0185C12.4595 1.25 12.7182 1.25 12.9418 1.26465C14.5044 1.36716 15.9201 1.99772 17.0126 2.98016C16.2622 3.34494 15.7451 4.11452 15.7451 5.00488V5.75H14.9999C13.7573 5.75 12.7499 6.75736 12.7499 8C12.75 9.24259 13.7573 10.25 14.9999 10.25H15.7451V11.0049C15.7451 12.2475 16.7524 13.2549 17.9951 13.2549C18.62 13.2549 19.1854 13.0001 19.5931 12.5887C19.7563 13.0604 19.9759 13.5125 20.2484 13.9346C20.4158 14.1939 20.6163 14.445 21.0814 15.0264L21.2504 15.2383L21.2868 15.2838C21.4921 15.5404 21.6681 15.7604 21.7972 15.9443C21.9112 16.1068 22.0355 16.3042 22.1039 16.5312L22.1302 16.6309L22.1547 16.7773C22.2491 17.5106 21.871 18.232 21.1996 18.5664C20.9528 18.6893 20.682 18.7211 20.4554 18.7354C20.2226 18.75 19.9282 18.75 19.5835 18.75H19.5629Z" fill="currentColor" />
</svg>