<svg xmlns="http://www.w3.org/2000/svg" width="24" height="24" viewBox="0 0 24 24" fill="none">
    <path fill-rule="evenodd" clip-rule="evenodd" d="M7.68951 20C8.44445 21.624 10.0903 22.75 11.9992 22.75C13.9081 22.75 15.5539 21.624 16.3089 20H7.68951Z" fill="currentColor" />
    <path opacity="0.4" fill-rule="evenodd" clip-rule="evenodd" d="M21.5324 18.3507C21.9918 17.9722 22.2323 17.3788 22.1548 16.7773L22.1304 16.6309L22.104 16.5312C22.0356 16.3042 21.9114 16.1068 21.7974 15.9443C21.6683 15.7604 21.4923 15.5404 21.287 15.2839L21.2505 15.2383L21.0816 15.0264C20.6164 14.445 20.416 14.1939 20.2485 13.9346C19.7131 13.1051 19.3818 12.1599 19.2817 11.1777C19.2505 10.8708 19.2505 10.5503 19.2505 9.80662V8.5V8.48201C19.2505 8.04096 19.2505 7.78215 19.2358 7.55859C19.0143 4.17862 16.3218 1.48638 12.9419 1.26465C12.7183 1.25 12.4597 1.25 12.0186 1.25H12.0005H11.982C11.5409 1.25 11.2817 1.25 11.0581 1.26465C9.28847 1.38076 7.70727 2.17411 6.5705 3.38882L21.5324 18.3507Z" fill="currentColor" />
    <path fill-rule="evenodd" clip-rule="evenodd" d="M5.30846 5.30847C5.00552 6.00486 4.81632 6.76267 4.76415 7.55862C4.75035 7.7693 4.7504 8.01086 4.75047 8.40713L4.75048 8.50003V9.80569C4.75048 10.5501 4.74952 10.8707 4.71826 11.1778C4.6182 12.1599 4.28689 13.1051 3.75146 13.9346C3.58404 14.1939 3.38355 14.445 2.91845 15.0264L2.74951 15.2383L2.74275 15.2468C2.52475 15.5193 2.33886 15.7516 2.20361 15.9444C2.08953 16.1069 1.96442 16.304 1.89599 16.5313L1.86962 16.6309C1.70092 17.4128 2.08428 18.2097 2.80029 18.5664C3.04702 18.6893 3.31787 18.7211 3.54443 18.7354C3.77723 18.75 4.07152 18.75 4.41627 18.75H4.43701H7.3089H8.83699H15.1631H16.6911H18.75L5.30846 5.30847Z" fill="currentColor" />
    <path d="M2.00006 2L22.0001 22" stroke="currentColor" stroke-width="2" stroke-linecap="round" stroke-linejoin="round" />
</svg>