<svg xmlns="http://www.w3.org/2000/svg" width="24" height="24" viewBox="0 0 24 24" fill="none">
    <path d="M17.5 13.25C17.9142 13.25 18.25 13.5858 18.25 14V14.583H19.0625C20.0392 14.583 20.7498 15.413 20.75 16.333V17C20.75 17.3624 20.6396 17.7108 20.4463 18C20.6396 18.2892 20.75 18.6376 20.75 19V19.667C20.7498 20.587 20.0392 21.417 19.0625 21.417H18.25V22C18.25 22.4142 17.9142 22.75 17.5 22.75C17.0858 22.75 16.75 22.4142 16.75 22V21.417H15C14.5859 21.417 14.2502 21.0811 14.25 20.667C14.25 20.2528 14.5858 19.917 15 19.917H15.1875V16.083H15C14.5858 16.083 14.25 15.7472 14.25 15.333C14.2502 14.9189 14.5859 14.583 15 14.583H16.75V14C16.75 13.5858 17.0858 13.25 17.5 13.25ZM16.6875 19.917H19.0625C19.1212 19.917 19.2498 19.8511 19.25 19.667V19C19.25 18.8156 19.1212 18.75 19.0625 18.75H16.6875V19.917ZM16.6875 17.25H19.0625C19.1212 17.25 19.25 17.1844 19.25 17V16.333C19.2498 16.1489 19.1212 16.083 19.0625 16.083H16.6875V17.25Z" fill="currentColor" />
    <path opacity="0.4" d="M3.25 13.7178C3.94481 14.3011 4.8009 14.7208 5.64844 15.0273C7.39314 15.6582 9.63942 16 12 16C12.2838 16 12.5659 15.9951 12.8457 15.9854C12.9905 16.4642 13.2908 16.8757 13.6875 17.1611V18.8389C13.1197 19.2473 12.75 19.9142 12.75 20.667C12.7501 21.5354 13.2423 22.2891 13.9629 22.6641C13.3303 22.7206 12.6728 22.75 12 22.75C9.76657 22.75 7.70141 22.4239 6.15918 21.8662C5.39165 21.5887 4.70273 21.2356 4.18848 20.7959C3.67543 20.3572 3.25 19.7526 3.25 19V13.7178ZM12 1.25C14.2334 1.25 16.2986 1.57613 17.8408 2.13379C18.6084 2.41133 19.2973 2.76445 19.8115 3.2041C20.3246 3.64277 20.75 4.24737 20.75 5V10.75C20.75 11.5026 20.3246 12.1072 19.8115 12.5459C19.6924 12.6478 19.5635 12.7452 19.4268 12.8379C19.0327 12.186 18.3174 11.75 17.5 11.75C16.5839 11.75 15.7953 12.2974 15.4443 13.083H15C14.0589 13.083 13.2528 13.6612 12.917 14.4814C12.6152 14.4937 12.3091 14.5 12 14.5C9.76657 14.5 7.70141 14.1739 6.15918 13.6162C5.39165 13.3387 4.70273 12.9856 4.18848 12.5459C3.67543 12.1072 3.25 11.5026 3.25 10.75V5C3.25 4.24737 3.67543 3.64277 4.18848 3.2041C4.70273 2.76445 5.39165 2.41133 6.15918 2.13379C7.70141 1.57613 9.76657 1.25 12 1.25ZM12 3.125C9.93808 3.125 8.11455 3.42848 6.8418 3.88867C6.20199 4.12003 5.75144 4.37318 5.47852 4.60645C5.20448 4.84073 5.19434 4.97606 5.19434 5C5.19434 5.02394 5.20448 5.15927 5.47852 5.39355C5.75144 5.62682 6.20199 5.87997 6.8418 6.11133C8.11455 6.57152 9.93808 6.875 12 6.875C14.0619 6.875 15.8855 6.57152 17.1582 6.11133C17.798 5.87997 18.2486 5.62682 18.5215 5.39355C18.7955 5.15927 18.8057 5.02394 18.8057 5C18.8057 4.97606 18.7955 4.84073 18.5215 4.60645C18.2486 4.37318 17.798 4.12003 17.1582 3.88867C15.8855 3.42848 14.0619 3.125 12 3.125Z" fill="currentColor" />
</svg>