<svg xmlns="http://www.w3.org/2000/svg" width="24" height="24" viewBox="0 0 24 24" fill="none">
    <path opacity="0.4" d="M12.2881 2.74265C12.999 2.47962 13.6601 2.77139 14.1191 3.04733C14.6219 3.34962 15.22 3.84225 15.9014 4.39987L16.3809 4.79148C16.766 5.10671 17.1383 5.40873 17.4033 5.69577C17.6522 5.96536 17.8981 6.31663 17.9697 6.7778L17.9893 6.9819L17.9844 7.18698C17.9475 7.65189 17.7298 8.0207 17.502 8.30808C17.2593 8.61416 16.9102 8.94242 16.5498 9.28562L13.6992 11.9995L16.5498 14.7143C16.9102 15.0576 17.2592 15.3858 17.502 15.6919C17.7623 16.0202 18.0103 16.455 17.9893 17.018C17.9681 17.5813 17.6877 17.9962 17.4033 18.3042C17.1383 18.5912 16.766 18.8932 16.3809 19.2085L15.9014 19.601C15.2201 20.1586 14.6219 20.6504 14.1191 20.9526C13.6295 21.247 12.9102 21.5589 12.1455 21.1967C11.3806 20.8343 11.1653 20.0796 11.083 19.5141C10.9985 18.9336 11.001 18.1591 11.001 17.2788V14.5708L7.68945 17.7241C7.28952 18.1049 6.65627 18.0898 6.27539 17.6899C5.89466 17.29 5.91067 16.6567 6.31055 16.2759L10.7998 11.9995L6.31055 7.72409C5.91063 7.34322 5.89453 6.70996 6.27539 6.31003C6.65623 5.91015 7.28952 5.89511 7.68945 6.27585L11.001 9.42917V6.72116C11.001 5.84074 10.9985 5.06633 11.083 4.48581C11.1653 3.92033 11.3806 3.16562 12.1455 2.80319L12.2881 2.74265ZM13.001 17.2788C13.001 18.227 13.0041 18.8244 13.0625 19.226C13.0637 19.234 13.0652 19.2419 13.0664 19.2495C13.0733 19.2454 13.0816 19.2431 13.0889 19.2387C13.4367 19.0296 13.9009 18.6538 14.6348 18.0532L15.1143 17.6606C15.5457 17.3075 15.786 17.1076 15.9336 16.9477C15.9354 16.9457 15.9367 16.9428 15.9385 16.9409C15.9371 16.9391 15.936 16.9369 15.9346 16.935C15.7994 16.7646 15.5746 16.5471 15.1709 16.1626L13.001 14.0952V17.2788ZM13.001 9.90378L15.1709 7.83737C15.5746 7.45293 15.7994 7.23536 15.9346 7.06491C15.9362 7.06284 15.9369 7.06008 15.9385 7.05808C15.9369 7.05635 15.9352 7.054 15.9336 7.05222C15.7859 6.8924 15.5456 6.69234 15.1143 6.33933L14.6348 5.94773C13.9008 5.34706 13.4367 4.97033 13.0889 4.7612C13.0814 4.75673 13.0735 4.75364 13.0664 4.74948C13.0652 4.7574 13.0637 4.76551 13.0625 4.7739C13.004 5.17552 13.001 5.77279 13.001 6.72116V9.90378Z" fill="currentColor" />
    <path d="M18 11C18.5523 11 19 11.4477 19 12C19 12.5523 18.5523 13 18 13H17C16.4477 13 16 12.5523 16 12C16 11.4477 16.4477 11 17 11H18Z" fill="currentColor" />
    <path d="M7 11C7.55228 11 8 11.4477 8 12C8 12.5523 7.55228 13 7 13H6C5.44772 13 5 12.5523 5 12C5 11.4477 5.44772 11 6 11H7Z" fill="currentColor" />
</svg>