<svg xmlns="http://www.w3.org/2000/svg" width="24" height="24" viewBox="0 0 24 24" fill="none">
    <path d="M10.9999 7.99902V6.49902C10.9999 4.01374 13.0146 1.99902 15.4999 1.99902C17.9852 1.99902 19.9999 4.01374 19.9999 6.49902V7.99902" stroke="currentColor" stroke-width="2" stroke-linecap="round" stroke-linejoin="round" />
    <path d="M10.9999 7.49902V9.49902C10.9999 9.77517 11.2238 9.99902 11.4999 9.99902H11.9999C12.2761 9.99902 12.4999 9.77517 12.4999 9.49902V7.99902C12.4999 7.72288 12.2761 7.49902 11.9999 7.49902H10.9999Z" stroke="currentColor" stroke-width="2" stroke-linecap="round" stroke-linejoin="round" />
    <path d="M19.9999 7.49902V9.49902C19.9999 9.77517 19.7761 9.99902 19.4999 9.99902H18.9999C18.7238 9.99902 18.4999 9.77517 18.4999 9.49902V7.99902C18.4999 7.72288 18.7238 7.49902 18.9999 7.49902H19.9999Z" stroke="currentColor" stroke-width="2" stroke-linecap="round" stroke-linejoin="round" />
    <path opacity="0.4" fill-rule="evenodd" clip-rule="evenodd" d="M11.2569 1.24903C9.72767 2.48649 8.74992 4.37858 8.74992 6.49902V9.49902C8.74992 11.0178 9.98114 12.249 11.4999 12.249H11.9999C13.5187 12.249 14.7499 11.0178 14.7499 9.49902V7.99902C14.7499 6.99975 14.2151 6.12802 13.4179 5.64648C13.7539 4.82672 14.5591 4.24902 15.4999 4.24902C16.4406 4.24902 17.2449 4.8269 17.581 5.64648C16.7842 6.12811 16.2499 7.00005 16.2499 7.99902V9.49902C16.2499 11.0178 17.4811 12.249 18.9999 12.249H19.4999C19.95 12.249 20.3749 12.1409 20.7499 11.9492V17.8623C20.7499 18.402 20.3142 18.8398 19.7773 18.8398H19.6874C19.6571 18.8759 19.6243 18.9151 19.5927 18.959C19.4253 19.1915 19.2919 19.4836 19.2919 19.8174C19.292 20.151 19.4254 20.4424 19.5927 20.6748C19.6244 20.7188 19.657 20.7589 19.6874 20.7949H19.7773C20.3141 20.7949 20.7498 21.2319 20.7499 21.7715C20.7499 22.3112 20.3142 22.749 19.7773 22.749H6.16692C4.55615 22.749 3.25002 21.4365 3.24992 19.8174V8.03418C3.2499 6.70508 3.25028 5.60965 3.36614 4.74317C3.48741 3.83642 3.75169 3.03573 4.38957 2.39453C5.02739 1.75342 5.82358 1.48716 6.72551 1.36524C7.58589 1.24898 8.68104 1.249 9.99992 1.24903H11.2569ZM6.16692 18.8389C5.62997 18.8389 5.19426 19.2767 5.19426 19.8164C5.1944 20.356 5.63006 20.793 6.16692 20.793H17.4999C17.4081 20.5016 17.3476 20.1752 17.3476 19.8164C17.3476 19.4574 17.408 19.1305 17.4999 18.8389H6.16692Z" fill="currentColor" />
</svg>