<svg xmlns="http://www.w3.org/2000/svg" width="24" height="24" viewBox="0 0 24 24" fill="none">
    <path d="M16.8752 1.12502C17.4275 1.12502 17.8752 1.57274 17.8752 2.12502V5.12502H20.8752C21.4275 5.12502 21.8752 5.57274 21.8752 6.12502C21.8752 6.67731 21.4275 7.12502 20.8752 7.12502H17.8752V10.125C17.8752 10.6773 17.4275 11.125 16.8752 11.125C16.3229 11.125 15.8752 10.6773 15.8752 10.125V7.12502H12.8752C12.3229 7.12502 11.8752 6.67731 11.8752 6.12502C11.8752 5.57274 12.3229 5.12502 12.8752 5.12502H15.8752V2.12502C15.8752 1.57274 16.3229 1.12502 16.8752 1.12502Z" fill="currentColor" />
    <path opacity="0.4" d="M10.8381 7.875C10.9554 7.875 11.0142 7.87474 11.0637 7.89258C11.1132 7.91052 11.1677 7.95592 11.2756 8.0459C11.7091 8.40733 12.2667 8.62496 12.8752 8.625H13.7756C14.0582 8.625 14.1994 8.62514 14.2873 8.71289C14.3751 8.80072 14.3752 8.94203 14.3752 9.22461V10.125C14.3752 11.5057 15.4946 12.6249 16.8752 12.625C17.3556 12.625 17.9361 12.4501 18.2824 12.1885C19.1428 11.5384 19.404 11.2144 19.5148 11.2695C19.6255 11.3252 19.6252 11.7731 19.6252 12.667V18.1709C19.6252 19.2683 19.6251 20.1801 19.5197 20.8652C19.4107 21.5741 19.1569 22.2643 18.4562 22.6387C17.8311 22.9725 17.1428 22.9046 16.5598 22.7276C15.9702 22.5485 15.3711 22.2237 14.8224 21.877C14.2684 21.5269 13.7245 21.1274 13.2521 20.7783C12.7895 20.4363 12.362 20.1211 12.0783 19.9502C11.6787 19.7096 11.4264 19.5583 11.2219 19.4619C11.0333 19.3731 10.9415 19.3594 10.8752 19.3594C10.8089 19.3594 10.7171 19.3731 10.5285 19.4619C10.324 19.5583 10.0716 19.7096 9.67206 19.9502C9.38827 20.1211 8.96084 20.4364 8.49823 20.7783C8.02594 21.1274 7.48286 21.5269 6.92889 21.877C6.38008 22.2238 5.78031 22.5485 5.19061 22.7276C4.60761 22.9045 3.92024 22.9725 3.2951 22.6387C2.5941 22.2644 2.3397 21.5742 2.23065 20.8652C2.1253 20.1801 2.12515 19.2682 2.12518 18.1709V9.77442C2.12518 9.31402 2.1254 8.87815 2.12811 8.46582C2.12994 8.18825 2.13119 8.04909 2.21893 7.96192C2.30666 7.8751 2.44614 7.875 2.72479 7.875H10.8381ZM10.8752 1.375C11.96 1.37499 12.9301 1.37505 13.7766 1.40527C14.0518 1.4151 14.1895 1.42032 14.2687 1.48731C14.2866 1.50238 14.2964 1.51206 14.3107 1.53027C14.3749 1.61189 14.3752 1.78317 14.3752 2.125V3.02539C14.3752 3.30798 14.3751 3.44928 14.2873 3.53711C14.1994 3.62487 14.0582 3.625 13.7756 3.625H12.8752C11.4946 3.6251 10.3752 4.74436 10.3752 6.125C10.3752 6.2591 10.271 6.375 10.1369 6.375H2.83417C2.52961 6.375 2.37678 6.37491 2.28729 6.27442C2.19797 6.17392 2.21517 6.0271 2.24921 5.73438C2.25846 5.65486 2.2688 5.57656 2.27948 5.5C2.43827 4.36239 2.7735 3.43946 3.52655 2.71387C4.27582 1.99199 5.22244 1.67369 6.38983 1.52246C7.52722 1.37514 9.03595 1.37499 10.8752 1.375Z" fill="currentColor" />
</svg>