<svg xmlns="http://www.w3.org/2000/svg" width="24" height="24" viewBox="0 0 24 24" fill="none">
    <path d="M20.1677 1.41805C20.5582 1.02754 21.1912 1.02751 21.5817 1.41805C21.9722 1.80859 21.9722 2.44162 21.5817 2.83211L18.7888 5.62508L21.5817 8.41805C21.9722 8.80857 21.9722 9.44161 21.5817 9.83211C21.1913 10.2226 20.5582 10.2225 20.1677 9.83211L17.3747 7.03915L14.5817 9.83211C14.1912 10.2224 13.5581 10.2216 13.1677 9.83114C12.7773 9.44059 12.7772 8.80754 13.1677 8.41707L15.9597 5.62508L13.1677 2.83211C12.7773 2.44159 12.7772 1.80853 13.1677 1.41805C13.5582 1.0278 14.1913 1.02775 14.5817 1.41805L17.3747 4.21102L20.1677 1.41805Z" fill="currentColor" />
    <path opacity="0.4" d="M10.6694 7.87514C11.0862 7.87514 11.2949 7.87525 11.3843 7.97475C11.4735 8.07437 11.4461 8.33524 11.3901 8.85659C11.3123 9.58245 11.5515 10.3363 12.1079 10.8927C13.0841 11.8686 14.6668 11.8686 15.6431 10.8927L16.9507 9.5851C17.1507 9.38512 17.2512 9.28432 17.3755 9.28432C17.4996 9.28445 17.5994 9.38524 17.7993 9.5851L19.1079 10.8927C19.1814 10.9662 19.2585 11.0344 19.3384 11.0968C19.4885 11.2142 19.5638 11.273 19.5942 11.3351C19.6246 11.3973 19.6245 11.4771 19.6245 11.6359V18.1711C19.6246 19.2684 19.6244 20.1802 19.519 20.8654C19.41 21.5743 19.1556 22.2645 18.4546 22.6388C17.8295 22.9725 17.142 22.9047 16.5591 22.7277C15.9694 22.5487 15.3696 22.2239 14.8208 21.8771C14.2668 21.527 13.7237 21.1275 13.2515 20.7785C12.7887 20.4364 12.3614 20.1203 12.0776 19.9494C11.6782 19.7088 11.4257 19.5584 11.2212 19.4621C11.0325 19.3732 10.9408 19.3586 10.8745 19.3586C10.8082 19.3586 10.7166 19.3732 10.5278 19.4621C10.3234 19.5584 10.0709 19.7088 9.67139 19.9494C9.3876 20.1203 8.96032 20.4364 8.49756 20.7785C8.02528 21.1275 7.48219 21.527 6.92822 21.8771C6.37941 22.2239 5.77964 22.5487 5.18994 22.7277C4.607 22.9047 3.91954 22.9725 3.29443 22.6388C2.59343 22.2645 2.33903 21.5743 2.22998 20.8654C2.12459 20.1803 2.12447 19.2684 2.12451 18.1711V9.77456C2.12451 9.31425 2.12473 8.8782 2.12744 8.46596C2.12927 8.18862 2.12975 8.04924 2.21729 7.96206C2.30502 7.8749 2.44501 7.87514 2.72412 7.87514H10.6694ZM10.8745 1.37514C11.0645 1.37514 11.1595 1.37527 11.2173 1.40053C11.303 1.43826 11.3457 1.48266 11.3784 1.57046C11.4003 1.62966 11.393 1.74675 11.3794 1.97963C11.3395 2.66715 11.5826 3.36844 12.1079 3.8937L13.4155 5.20034C13.6155 5.40034 13.7153 5.50087 13.7153 5.62514C13.7153 5.74929 13.6153 5.84922 13.4155 6.04897L13.2651 6.19936C13.1788 6.28569 13.1354 6.32885 13.0806 6.35171C13.0255 6.37453 12.9638 6.37514 12.8413 6.37514H2.83252C2.52834 6.37514 2.37607 6.37492 2.28662 6.27456C2.19713 6.17406 2.21448 6.0274 2.24854 5.73452C2.25779 5.65493 2.26714 5.57676 2.27783 5.50014C2.43661 4.36232 2.77266 3.43871 3.52588 2.71303C4.27513 1.99134 5.22187 1.6738 6.38916 1.5226C7.52658 1.37527 9.0352 1.37513 10.8745 1.37514Z" fill="currentColor" />
</svg>