<svg xmlns="http://www.w3.org/2000/svg" width="24" height="24" viewBox="0 0 24 24" fill="none">
    <path opacity="0.4" d="M20.1504 7.75C20.4296 7.75 20.5695 7.74975 20.6573 7.83691C20.745 7.92409 20.7453 8.06327 20.7471 8.34082C20.7498 8.75314 20.75 9.189 20.75 9.64941V15.7656C20.75 16.3821 20.7497 16.6909 20.5645 16.7676C20.3794 16.8437 20.1612 16.626 19.7256 16.1904L12.3096 8.77441C11.8741 8.33889 11.6562 8.12064 11.7325 7.93555C11.8092 7.75035 12.1179 7.75 12.7344 7.75H20.1504ZM12 1.25C13.8393 1.24999 15.348 1.25015 16.4854 1.39746C17.6528 1.54868 18.5994 1.86698 19.3487 2.58887C20.1018 3.3145 20.4379 4.23729 20.5967 5.375C20.6074 5.45155 20.6168 5.52987 20.626 5.60938C20.6601 5.90224 20.6774 6.04892 20.5879 6.14941C20.4985 6.24987 20.3464 6.25 20.042 6.25H10.0342C9.91158 6.25 9.85007 6.25037 9.79494 6.22754C9.73987 6.20471 9.69694 6.16078 9.61037 6.07422L6.08205 2.54688C5.81524 2.28007 5.68192 2.14624 5.7217 1.98242C5.76179 1.81843 5.92714 1.76554 6.25783 1.66113C6.64461 1.53902 7.0632 1.45594 7.51467 1.39746C8.65207 1.25013 10.1608 1.24999 12 1.25Z" fill="currentColor" />
    <path d="M1.29289 1.29288C1.68341 0.902353 2.31643 0.902353 2.70695 1.29288L22.7069 21.2929C23.0975 21.6834 23.0975 22.3164 22.7069 22.7069C22.3164 23.0975 21.6834 23.0975 21.2929 22.7069L20.3339 21.7479C20.169 22.0576 19.9321 22.3265 19.58 22.5145C18.9548 22.8483 18.2674 22.7804 17.6845 22.6034C17.0948 22.4244 16.495 22.0996 15.9462 21.7528C15.3923 21.4028 14.8491 21.0032 14.3769 20.6542C13.9142 20.3122 13.4868 19.997 13.203 19.8261C12.8035 19.5855 12.5511 19.4341 12.3466 19.3378C12.1579 19.2489 12.0662 19.2353 11.9999 19.2353C11.9336 19.2353 11.8419 19.2489 11.6532 19.3378C11.4487 19.4341 11.1963 19.5855 10.7968 19.8261C10.513 19.997 10.0856 20.3122 9.62297 20.6542C9.15072 21.0032 8.60755 21.4028 8.05363 21.7528C7.50484 22.0996 6.90504 22.4244 6.31535 22.6034C5.73237 22.7804 5.04498 22.8483 4.41984 22.5145C3.71883 22.1402 3.46444 21.4501 3.35539 20.7411C3.25004 20.056 3.24988 19.1441 3.24992 18.0468V9.6503C3.24991 9.18989 3.25014 8.75403 3.25285 8.34171C3.25468 8.06422 3.25502 7.92498 3.34269 7.8378C3.43042 7.75065 3.57042 7.75089 3.84953 7.75089H6.33683L4.83586 6.24991C4.82457 6.24991 4.81318 6.25089 4.80168 6.25089H3.95793C3.65367 6.25089 3.50147 6.25075 3.41203 6.1503C3.32262 6.04981 3.33989 5.90307 3.37394 5.61026C3.38319 5.53075 3.39256 5.45244 3.40324 5.37589C3.42604 5.2125 3.45446 5.05391 3.48527 4.89932L1.29289 2.70694C0.902368 2.31642 0.902368 1.6834 1.29289 1.29288Z" fill="currentColor" />
</svg>