<svg xmlns="http://www.w3.org/2000/svg" width="24" height="24" viewBox="0 0 24 24" fill="none">
    <path d="M12.0768 1.49982C14.3121 1.49979 16.0939 1.49974 17.4908 1.6922C18.9348 1.89116 20.1153 2.31229 21.0455 3.26544C21.8496 4.0894 22.263 5.10347 22.484 6.32111C22.5826 6.86445 22.2226 7.38548 21.6793 7.48419C21.1359 7.58281 20.6149 7.22189 20.5162 6.67853C20.3402 5.70843 20.052 5.11188 19.6139 4.6629C19.1151 4.15172 18.4306 3.8408 17.2174 3.67365C15.9729 3.50221 14.3293 3.49982 12.0006 3.49982C9.67163 3.49982 8.0274 3.50217 6.78284 3.67365C5.56991 3.84081 4.88609 4.15182 4.38733 4.6629C3.9492 5.11189 3.66008 5.70838 3.48401 6.67853C3.3853 7.2218 2.86521 7.58275 2.3219 7.48419C1.77849 7.38557 1.41761 6.86451 1.51623 6.32111C1.73724 5.10342 2.15162 4.08943 2.95569 3.26544C3.88588 2.31236 5.06645 1.89114 6.51038 1.6922C7.90726 1.49976 9.6892 1.49979 11.9244 1.49982H12.0768Z" fill="currentColor" />
    <path opacity="0.4" d="M11.9997 18.5311C12.552 18.5311 12.9996 18.9789 12.9997 19.5311V20.4998C13.3092 20.4992 13.6062 20.4974 13.8913 20.4949C14.4435 20.4902 14.8952 20.9341 14.9001 21.4861C14.9048 22.0383 14.461 22.4901 13.9089 22.4949C13.3204 22.4999 12.6843 22.4998 12.0027 22.4998H11.9968C11.3152 22.4998 10.6801 22.4999 10.0915 22.4949C9.53924 22.4902 9.09558 22.0384 9.10028 21.4861C9.10518 20.9342 9.55614 20.4905 10.1081 20.4949C10.3932 20.4974 10.6903 20.4992 10.9997 20.4998V19.5311C10.9998 18.979 11.4477 18.5313 11.9997 18.5311ZM2.56903 16.7068C3.11205 16.6061 3.63434 16.9646 3.73505 17.5076C3.9047 18.422 4.18074 18.9795 4.5993 19.3992C5.01761 19.8186 5.57258 20.0946 6.48309 20.2645C7.02602 20.3657 7.38415 20.8885 7.2829 21.4315C7.18154 21.9742 6.65964 22.3324 6.11688 22.2313C4.94932 22.0135 3.97422 21.6044 3.18329 20.8113C2.39257 20.0185 1.98518 19.0414 1.76826 17.8719C1.66763 17.329 2.02614 16.8076 2.56903 16.7068ZM20.2654 17.5076C20.3661 16.9646 20.8884 16.6061 21.4314 16.7068C21.9741 16.8077 22.3327 17.3291 22.2322 17.8719C22.0152 19.0414 21.6078 20.0185 20.8171 20.8113C20.0262 21.6044 19.0511 22.0135 17.8835 22.2313C17.3407 22.3325 16.8189 21.9742 16.7175 21.4315C16.6163 20.8887 16.9736 20.3659 17.5163 20.2645C18.4271 20.0946 18.9827 19.8187 19.4011 19.3992C19.8197 18.9795 20.0957 18.422 20.2654 17.5076ZM11.9997 7.99982C12.552 7.99982 12.9996 8.44762 12.9997 8.99982V10.9998H14.9997C15.552 10.9998 15.9996 11.4476 15.9997 11.9998C15.9997 12.5521 15.552 12.9998 14.9997 12.9998H12.9997V14.9998C12.9997 15.5521 12.552 15.9998 11.9997 15.9998C11.4476 15.9996 10.9997 15.552 10.9997 14.9998V12.9998H8.99969C8.44758 12.9996 7.99969 12.552 7.99969 11.9998C7.99979 11.4477 8.44764 11 8.99969 10.9998H10.9997V8.99982C10.9998 8.44774 11.4477 8.00001 11.9997 7.99982ZM2.51337 8.99982C3.06563 9.00449 3.50925 9.45634 3.50459 10.0086C3.50201 10.313 3.50126 10.6496 3.50068 10.9998H3.9997C4.55193 10.9998 4.9996 11.4476 4.9997 11.9998C4.9997 12.5521 4.55199 12.9998 3.9997 12.9998H3.50068C3.50128 13.3585 3.50206 13.7045 3.50459 14.0027C3.50908 14.5549 3.06553 15.0059 2.51337 15.0106C1.96115 15.0152 1.50926 14.5716 1.50459 14.0193C1.4996 13.4292 1.49969 12.6608 1.49969 11.9774V11.9705C1.49969 11.2874 1.4996 10.5819 1.50459 9.992C1.50926 9.43977 1.96115 8.99521 2.51337 8.99982ZM21.487 8.99982C22.0391 8.99534 22.4902 9.43986 22.4949 9.992C22.4998 10.5821 22.4997 11.2881 22.4997 11.9715V12.0008C22.4997 12.6784 22.4998 13.4359 22.4949 14.0193C22.4902 14.5715 22.0391 15.015 21.487 15.0106C20.9349 15.0059 20.4903 14.5549 20.4949 14.0027C20.4974 13.7045 20.4991 13.3585 20.4997 12.9998H19.9997C19.4476 12.9996 18.9997 12.552 18.9997 11.9998C18.9998 11.4477 19.4477 11 19.9997 10.9998H20.4997C20.4991 10.6496 20.4974 10.313 20.4949 10.0086C20.4902 9.45634 20.9348 9.00449 21.487 8.99982Z" fill="currentColor" />
</svg>