<svg xmlns="http://www.w3.org/2000/svg" width="24" height="24" viewBox="0 0 24 24" fill="none">
    <g opacity="0.4">
        <path fill-rule="evenodd" clip-rule="evenodd" d="M11 5.99902V7.81738L12.1676 8.98503C12.6401 8.90528 13 8.49418 13 7.99902V5.99902C13 4.34217 11.6569 2.99902 10 2.99902H9C8.44771 2.99902 8 3.44674 8 3.99902C8 4.55131 8.44771 4.99902 9 4.99902H10C10.5523 4.99902 11 5.44674 11 5.99902Z" fill="currentColor" />
        <path d="M22 12.999C22.5523 12.999 23 13.4467 23 13.999C23 14.5513 22.5523 14.999 22 14.999H20C19.4477 14.999 19 14.5513 19 13.999C19 13.4467 19.4477 12.999 20 12.999H22Z" fill="currentColor" />
        <path fill-rule="evenodd" clip-rule="evenodd" d="M20.75 14.0635C20.75 15.4265 20.7501 16.5257 20.6338 17.3906L20.6265 17.4438L12.1676 8.98503L11 7.81738L10.4316 7.24902H14.0644C15.4275 7.24899 16.5267 7.24897 17.3916 7.36524C18.2917 7.48625 19.0495 7.74574 19.6514 8.34766C20.2533 8.94958 20.5128 9.70732 20.6338 10.6074C20.7501 11.4723 20.75 12.5715 20.75 13.9346V14.0635Z" fill="currentColor" />
    </g>
    <path fill-rule="evenodd" clip-rule="evenodd" d="M2.70696 1.29192C2.31643 0.901392 1.68342 0.901392 1.29289 1.29192C0.902369 1.68244 0.902369 2.31545 1.29289 2.70598L6.05088 7.46396C5.5881 7.56855 5.16955 7.72858 4.79749 7.97832C4.63942 8.08442 4.48975 8.20671 4.34864 8.34782C3.74672 8.94974 3.48723 9.70748 3.36621 10.6076C3.27784 11.265 3.25665 12.0578 3.25159 12.999H2C1.44772 12.999 1 13.4467 1 13.999C1 14.5513 1.44772 14.999 2 14.999H3.25158C3.25665 15.9403 3.27783 16.7333 3.36621 17.3908C3.48723 18.2909 3.74672 19.0486 4.34864 19.6506C4.95055 20.2525 5.70829 20.512 6.6084 20.633C7.4733 20.7492 8.57254 20.7492 9.93557 20.7492H10H14H14.0645C15.4275 20.7492 16.5267 20.7492 17.3916 20.633L17.4448 20.6256C17.951 20.554 18.4115 20.4368 18.8238 20.2369L21.2929 22.706C21.6834 23.0965 22.3164 23.0965 22.707 22.706C23.0975 22.3155 23.0975 21.6824 22.707 21.2919L2.70696 1.29192ZM9 15.9992C8.44772 15.9992 8 15.5515 8 14.9992V12.9992C8 12.4469 8.44772 11.9992 9 11.9992C9.55229 11.9992 10 12.4469 10 12.9992V14.9992C10 15.5515 9.55229 15.9992 9 15.9992Z" fill="currentColor" />
</svg>