<svg xmlns="http://www.w3.org/2000/svg" width="24" height="24" viewBox="0 0 24 24" fill="none">
    <path d="M17.7658 10.1866C18.2834 9.99404 18.8594 10.2579 19.0519 10.7755C19.9902 13.2975 19.9483 16.1414 18.9709 18.6554C18.7151 19.3131 18.4638 19.9772 18.1066 20.4806C17.6888 21.0693 17.1355 21.4405 16.3644 21.6026C15.5215 21.7798 14.8165 21.5695 14.1672 21.1397C13.589 20.7571 12.9949 20.1568 12.341 19.503C11.9505 19.1125 11.9505 18.4795 12.341 18.089C12.7315 17.6985 13.3645 17.6985 13.7551 18.089C14.4686 18.8024 14.9002 19.2275 15.2707 19.4727C15.5699 19.6708 15.7365 19.6912 15.9533 19.6456C16.242 19.5849 16.3554 19.4929 16.4758 19.3233C16.6568 19.0682 16.816 18.6782 17.1066 17.9308C17.9108 15.8624 17.9412 13.5244 17.1779 11.4727C16.9854 10.9552 17.2483 10.3793 17.7658 10.1866ZM5.31658 5.0079C7.84043 3.98864 10.6962 3.91226 13.2306 4.87607C13.7469 5.07238 14.0061 5.65087 13.8097 6.16708C13.6133 6.68298 13.0358 6.94238 12.5197 6.74618C10.48 5.9705 8.14619 6.02215 6.06561 6.8624C5.31677 7.16482 4.92163 7.33115 4.66326 7.51767C4.48835 7.644 4.39834 7.76029 4.341 8.04208C4.29789 8.25392 4.31802 8.42084 4.51971 8.72372C4.76771 9.09602 5.19621 9.53019 5.91131 10.2452C6.30166 10.6356 6.30139 11.2687 5.91131 11.6593C5.52081 12.0498 4.88682 12.0507 4.49627 11.6602C3.84011 11.0042 3.23975 10.4096 2.85565 9.8331C2.42553 9.18742 2.21 8.48471 2.38104 7.64365C2.53802 6.87225 2.90833 6.3184 3.49237 5.89657C3.99275 5.53524 4.65551 5.27487 5.31658 5.0079Z" fill="currentColor" />
    <path opacity="0.4" d="M20.5889 2.23175C20.3699 2.17751 20.1347 2.1506 19.915 2.13702C19.4726 2.10967 18.9646 2.12916 18.5068 2.16144C18.0429 2.19416 17.5992 2.24333 17.2734 2.28351C17.1099 2.30368 16.974 2.32103 16.8789 2.33429C16.8481 2.33858 16.8215 2.34267 16.7995 2.34605L16.7676 2.35089C16.7603 2.35195 16.7539 2.35271 16.7485 2.35337L16.7373 2.3548L16.7246 2.35675C16.1788 2.43976 15.804 2.94955 15.8867 3.49542C15.9644 4.00723 16.4167 4.36892 16.9229 4.34405L17.0313 4.33331L17.0566 4.3294L17.1065 4.32246L17.1553 4.31573C17.2415 4.30372 17.3661 4.28657 17.5176 4.26788C17.7641 4.23748 18.0781 4.20272 18.4103 4.17494L9.16797 13.4173L9.15597 13.4295C9.11154 13.422 9.06731 13.4158 9.02344 13.4105C8.72373 13.3742 8.35745 13.3743 7.95585 13.3743L7.91309 13.3743L7.80542 13.3743C7.14735 13.3738 6.63453 13.3734 6.15918 13.5482C6.09139 13.5731 6.02565 13.6002 5.95996 13.6302C5.49793 13.8415 5.13218 14.2056 4.66257 14.6731L4.58887 14.7464C4.06087 15.2713 3.50429 15.8231 3.01661 16.305L2.98932 16.3319C2.79448 16.5244 2.61527 16.7015 2.48536 16.8538C2.38084 16.9764 2.21574 17.1834 2.15235 17.4583L2.13184 17.5804C2.08695 18.0063 2.26126 18.4242 2.59278 18.6927C2.85395 18.9042 3.17045 18.9427 3.3545 18.9583C3.55194 18.975 3.80037 18.975 4.07126 18.9749L4.11914 18.9749C4.40988 18.9749 4.5847 18.9754 4.71485 18.9857C4.79837 18.9922 4.83313 19.0012 4.84278 19.0042C4.89816 19.0313 4.94228 19.0752 4.96919 19.1281C4.97154 19.1358 4.98054 19.1699 4.98731 19.2562C4.99763 19.3878 4.999 19.5656 4.99903 19.8597L4.99903 19.901C4.999 20.1845 4.99898 20.4457 5.01758 20.6526C5.03487 20.8447 5.07772 21.1749 5.30957 21.4407C5.56517 21.7337 5.94119 21.8917 6.32813 21.8724C6.67634 21.8549 6.94099 21.6627 7.09278 21.5423C7.25788 21.4113 7.45015 21.2281 7.65748 21.0306L7.67286 21.0159L9.13575 19.6224L9.22556 19.5369C9.75023 19.038 10.1618 18.6467 10.3887 18.1312C10.3953 18.116 10.4018 18.1005 10.4082 18.0853C10.6262 17.5646 10.6257 16.9961 10.6251 16.2732L10.625 16.1517V16.0745L10.625 16.0211C10.6251 15.6264 10.6251 15.2652 10.5889 14.9691C10.5837 14.9272 10.5777 14.885 10.5706 14.8426L10.582 14.8314L19.8244 5.589C19.7966 5.92127 19.7619 6.23522 19.7314 6.48175C19.7128 6.63325 19.6956 6.75787 19.6836 6.84405L19.6769 6.89284L19.6699 6.94269L19.6666 6.96423C19.5837 7.51027 19.9579 8.02974 20.5039 8.11261C21.0498 8.19535 21.5596 7.81954 21.6426 7.27374L21.6445 7.26202L21.646 7.25085L21.6477 7.23736C21.6506 7.2175 21.655 7.18536 21.6595 7.15288L21.6641 7.12042C21.6773 7.02529 21.6956 6.8895 21.7158 6.72589C21.756 6.40013 21.8052 5.95643 21.8379 5.49249C21.8702 5.03476 21.8897 4.5267 21.8623 4.08429C21.8487 3.86466 21.8218 3.6294 21.7676 3.41046C21.721 3.22258 21.6195 2.89814 21.3604 2.63897C21.1012 2.37982 20.7768 2.2783 20.5889 2.23175ZM4.96919 19.1281C4.96869 19.1265 4.96899 19.1276 4.96919 19.1281C4.96878 19.1272 4.96931 19.1285 4.96919 19.1281C4.96951 19.1289 4.96869 19.1271 4.96919 19.1281Z" fill="currentColor" />
</svg>