<svg xmlns="http://www.w3.org/2000/svg" width="24" height="24" viewBox="0 0 24 24" fill="none">
    <path fill-rule="evenodd" clip-rule="evenodd" d="M3.45312 6.04533L12.0001 10.9287L20.5471 6.04533C20.44 5.9507 20.3263 5.85907 20.2061 5.76855C19.7733 5.44252 19.207 5.09592 18.5206 4.67578L15.5206 2.83984L15.4786 2.81412C14.7492 2.36768 14.1529 2.00266 13.6339 1.75391C13.0895 1.493 12.5737 1.33105 12.0001 1.33105C11.4264 1.33105 10.9107 1.493 10.3663 1.75391C9.84726 2.00267 9.25092 2.3677 8.52157 2.81414L8.47958 2.83984L5.47334 4.6796C4.7869 5.09976 4.22692 5.44251 3.79403 5.76855C3.67387 5.85906 3.56018 5.9507 3.45312 6.04533Z" fill="currentColor" />
    <path opacity="0.4" fill-rule="evenodd" clip-rule="evenodd" d="M21.75 13.737V13.7188V10.4435V10.4253C21.75 9.62458 21.75 8.97105 21.6982 8.43368C21.6753 8.19549 21.6414 7.96968 21.5897 7.75293L13 12.6612V22.6662C13.2103 22.5981 13.4198 22.5108 13.6338 22.4083C14.1528 22.1595 14.7492 21.7945 15.4785 21.348L15.5205 21.3224L18.5268 19.4825C19.2132 19.0624 19.7732 18.7197 20.2061 18.3936C20.6531 18.057 21.0104 17.7048 21.2705 17.2403C21.5306 16.7757 21.6445 16.2861 21.6982 15.7286C21.75 15.1912 21.75 14.5377 21.75 13.737ZM11 22.6662C10.7897 22.5981 10.5802 22.5108 10.3662 22.4083C9.84716 22.1595 9.2508 21.7945 8.52143 21.348L8.47949 21.3224L5.47949 19.4864C4.79313 19.0663 4.2268 18.7197 3.79395 18.3936C3.34695 18.057 2.98964 17.7048 2.72949 17.2403C2.46935 16.7757 2.35549 16.2861 2.30176 15.7286C2.24999 15.1913 2.25 14.5377 2.25 13.737V13.7188V10.4435V10.4253C2.25 9.62457 2.24999 8.97104 2.30176 8.43368C2.32471 8.19549 2.35865 7.96968 2.41028 7.75293L11 12.6612V22.6662Z" fill="currentColor" />
</svg>