<svg xmlns="http://www.w3.org/2000/svg" width="24" height="24" viewBox="0 0 24 24" fill="none">
    <g opacity="0.4">
        <path fill-rule="evenodd" clip-rule="evenodd" d="M11.1568 22.6178C11.197 22.6083 11.2374 22.5987 11.278 22.589C11.5621 22.5207 11.8545 22.4434 12.123 22.3155C12.4755 22.1475 12.7587 21.9094 13.0322 21.5635C13.6275 20.8105 13.6264 19.9941 13.6251 19.0039" fill="currentColor" />
        <path d="M13.6251 19.0039C13.6264 19.9941 13.6275 20.8105 13.0322 21.5635C12.7587 21.9094 12.4755 22.1475 12.123 22.3155C11.8162 22.4617 11.478 22.5418 11.1568 22.6178L11.1221 22.626C10.7953 22.7035 10.4525 22.749 10.0977 22.7491C7.66659 22.7491 5.58943 21.2406 4.74805 19.1114L4.73648 19.0821C4.71834 19.0362 4.70315 18.9977 4.68945 18.9639C4.686 18.9554 4.68263 18.9475 4.67947 18.9401L4.67383 18.9268C4.63057 18.9012 4.57172 18.8668 4.48438 18.8174C3.07757 18.0223 2.125 16.5111 2.125 14.7764C2.12507 13.9168 2.35949 13.1096 2.76855 12.418C2.88081 12.2282 2.95488 12.0964 3.00781 11.9991C2.95488 11.9017 2.88081 11.7699 2.76855 11.5801C2.3595 10.8885 2.12508 10.0813 2.125 9.22173C2.125 7.11591 3.52795 5.33878 5.44824 4.77154C5.5874 4.73043 5.68208 4.7005 5.75195 4.67779L5.76145 4.65715C5.78978 4.59563 5.82706 4.51469 5.87598 4.40044C6.66878 2.54891 8.50784 1.24925 10.6523 1.24907L10.698 1.24905C11.0088 1.24879 11.3694 1.24849 11.7236 1.35259C12.079 1.45711 12.3823 1.64849 12.6855 1.92681L12.8164 2.05083C13.2076 2.44336 13.4325 2.86214 13.5361 3.35259C13.6253 3.7747 13.6251 4.25084 13.625 4.74595L13.6251 19.0039Z" fill="currentColor" />
    </g>
    <path fill-rule="evenodd" clip-rule="evenodd" d="M14.875 10.999V12.999H20.375C20.9273 12.999 21.375 12.5513 21.375 11.999C21.375 11.4467 20.9273 10.999 20.375 10.999H14.875Z" fill="currentColor" />
    <path d="M18.375 1.99902C19.2034 1.99902 19.875 2.6706 19.875 3.49902C19.875 4.32745 19.2034 4.99902 18.375 4.99902C17.5466 4.99902 16.875 4.32745 16.875 3.49902C16.875 2.6706 17.5466 1.99902 18.375 1.99902Z" fill="currentColor" />
    <path fill-rule="evenodd" clip-rule="evenodd" d="M14.875 6.99416V8.99428C15.1352 8.99013 15.3713 8.98235 15.585 8.96777C16.054 8.93575 16.4877 8.86725 16.9053 8.69434C17.8854 8.28836 18.6643 7.50941 19.0703 6.5293C19.2432 6.11171 19.3117 5.67798 19.3438 5.20898C19.375 4.75095 19.375 4.18982 19.375 3.50916V3.49902C19.375 2.94674 18.9273 2.49902 18.375 2.49902C17.8227 2.49902 17.375 2.94674 17.375 3.49902C17.375 4.21153 17.3743 4.69585 17.3486 5.07227C17.3236 5.43972 17.278 5.63115 17.2227 5.76465C17.0197 6.2545 16.6305 6.6437 16.1406 6.84668C16.0071 6.90198 15.8157 6.94759 15.4482 6.97266C15.2817 6.98401 15.0941 6.99048 14.875 6.99416Z" fill="currentColor" />
    <path fill-rule="evenodd" clip-rule="evenodd" d="M14.875 15.0039V17.004C15.0941 17.0077 15.2817 17.0142 15.4482 17.0255C15.8157 17.0506 16.0071 17.0962 16.1406 17.1515C16.6305 17.3545 17.0197 17.7437 17.2227 18.2335C17.278 18.367 17.3236 18.5585 17.3486 18.9259C17.3743 19.3023 17.375 19.7867 17.375 20.4992C17.375 21.0514 17.8227 21.4992 18.375 21.4992C18.9273 21.4992 19.375 21.0514 19.375 20.4992V20.489C19.375 19.8084 19.375 19.2472 19.3438 18.7892C19.3117 18.3202 19.2432 17.8865 19.0703 17.4689C18.6643 16.4888 17.8854 15.7098 16.9053 15.3038C16.4877 15.1309 16.054 15.0624 15.585 15.0304C15.3713 15.0158 15.1352 15.0081 14.875 15.0039Z" fill="currentColor" />
    <path d="M18.375 18.999C19.2034 18.999 19.875 19.6706 19.875 20.499C19.875 21.3275 19.2034 21.999 18.375 21.999C17.5466 21.999 16.875 21.3275 16.875 20.499C16.875 19.6706 17.5466 18.999 18.375 18.999Z" fill="currentColor" />
    <path d="M20.375 10.499C21.2034 10.499 21.875 11.1706 21.875 11.999C21.875 12.8275 21.2034 13.499 20.375 13.499C19.5466 13.499 18.875 12.8275 18.875 11.999C18.875 11.1706 19.5466 10.499 20.375 10.499Z" fill="currentColor" />
</svg>