<svg xmlns="http://www.w3.org/2000/svg" width="24" height="24" viewBox="0 0 24 24" fill="none">
    <path fill-rule="evenodd" clip-rule="evenodd" d="M15.0353 14.7701C15.0302 14.7721 15.0322 14.7708 15.0353 14.7701C15.0352 14.7701 15.0355 14.7701 15.0353 14.7701ZM9.10792 14.9314C9.1078 14.9294 9.10799 14.9323 9.10792 14.9314V14.9314ZM9.10792 14.9314C9.10774 14.9306 9.1079 14.931 9.10792 14.9314V14.9314ZM8.96092 14.7686C8.96047 14.7684 8.96398 14.7698 8.96092 14.7686V14.7686ZM7.88667 14.75C7.88667 14.75 7.88667 14.75 7.88667 14.75V14.75ZM14.892 14.9314C14.8921 14.9312 14.8922 14.9307 14.892 14.9314V14.9314Z" fill="currentColor" />
    <path d="M20.75 10C20.75 9.58579 20.4142 9.25 20 9.25H3.99999C3.58577 9.25 3.24999 9.58579 3.24999 10L3.24996 10.1133C3.2497 10.9326 3.24953 11.4916 3.37791 11.9707C3.72469 13.2647 4.73532 14.2753 6.02928 14.6221C6.50843 14.7505 7.06734 14.7503 7.88667 14.75L7.99999 14.75H8.35545C8.6002 14.75 8.74817 14.7507 8.85838 14.7578C8.92784 14.7623 8.95365 14.7668 8.96092 14.7686C9.03037 14.798 9.08705 14.859 9.10792 14.9314C9.10839 14.9374 9.11069 14.9666 9.10643 15.0381C9.09983 15.1484 9.08213 15.2959 9.05174 15.5391L8.62791 18.9297C8.37438 20.958 9.95589 22.75 12 22.75C14.0441 22.75 15.6256 20.958 15.3721 18.9297L14.9482 15.5391C14.9178 15.2959 14.9001 15.1484 14.8935 15.0381C14.8893 14.9666 14.8916 14.9374 14.892 14.9314C14.9129 14.859 14.9659 14.7995 15.0353 14.7701C15.0302 14.7721 15.0322 14.7708 15.0353 14.7701C15.0426 14.7684 15.0721 14.7623 15.1416 14.7578C15.2518 14.7507 15.3998 14.75 15.6445 14.75H16L16.1133 14.75C16.9326 14.7503 17.4915 14.7505 17.9707 14.6221C19.2647 14.2753 20.2753 13.2647 20.6221 11.9707C20.7504 11.4916 20.7503 10.9327 20.75 10.1133L20.75 10ZM9.10792 14.9314C9.10774 14.9306 9.1079 14.931 9.10792 14.9314V14.9314ZM8.96092 14.7686C8.96047 14.7684 8.96398 14.7698 8.96092 14.7686V14.7686Z" fill="currentColor" />
    <path opacity="0.4" d="M20 8.00001C20.2652 8.00001 20.5184 8.05164 20.75 8.14539V8.00001V7.93552C20.75 6.5725 20.7501 5.4733 20.6338 4.60841C20.5128 3.7083 20.2533 2.95056 19.6514 2.34864C19.0495 1.74673 18.2917 1.48724 17.3916 1.36622C16.5267 1.24996 15.4275 1.24998 14.0645 1.25001H14H12.5625C12.2916 1.25313 12.0095 1.27291 11.7442 1.38282C11.4185 1.51777 11.1713 1.76652 10.9423 1.99696L10.8838 2.05568C10.5356 2.40391 10.3262 2.61032 10.1572 2.73927C10.0802 2.79805 10.0355 2.82191 10.0137 2.83107C10.0104 2.83242 10.0051 2.83341 10.0012 2.83412C9.99912 2.83345 9.99119 2.83309 9.98634 2.83107C9.96448 2.82191 9.91983 2.79805 9.84278 2.73927C9.67377 2.61032 9.46446 2.40391 9.11622 2.05568L8.87306 1.81251L8.85464 1.79404C8.81786 1.7571 8.77899 1.71806 8.73731 1.68165C8.44894 1.42978 8.08515 1.2797 7.70313 1.25392C7.64386 1.24994 7.5848 1.24997 7.52936 1.25001L7.51466 1.25001L7.46105 1.25001C7.03711 1.24995 6.74897 1.24991 6.4961 1.28419C4.82497 1.51082 3.51081 2.82497 3.28419 4.49611C3.24991 4.74897 3.24995 5.03712 3.25 5.46106L3.25001 5.51466V8.14539C3.48162 8.05164 3.73478 8.00001 4.00001 8.00001H4.75001H19.25H20Z" fill="currentColor" />
</svg>