<svg xmlns="http://www.w3.org/2000/svg" width="24" height="24" viewBox="0 0 24 24" fill="none">
    <path d="M3.96031 14.4356C5.48577 12.9202 7.95633 12.9202 9.4818 14.4356C11.01 15.9538 11.01 18.4174 9.4818 19.9356C8.18622 21.2224 6.4916 21.6228 5.19664 21.7217C4.54135 21.7718 3.96375 21.7474 3.54918 21.71C3.34122 21.6912 3.07603 21.6614 2.85387 21.6172C2.63181 21.573 2.44159 21.431 2.33629 21.2305C2.23099 21.0301 2.22226 20.7929 2.31188 20.585C2.73496 19.6043 2.72685 18.8368 2.71813 18.0088C2.71687 17.8899 2.7152 17.7698 2.7152 17.6475C2.7152 17.1667 2.73776 16.6328 2.91344 16.0801C3.09327 15.5144 3.41862 14.9737 3.96031 14.4356Z" fill="currentColor" />
    <path opacity="0.5" d="M20.3642 2.25199C20.6781 2.23837 21.0778 2.29974 21.3867 2.60648C21.6966 2.9144 21.7599 3.31481 21.746 3.62992C21.7321 3.94636 21.6388 4.28056 21.5126 4.6055C21.2582 5.26077 20.7997 6.05267 20.2031 6.91898C19.0024 8.66227 17.152 10.8352 14.9375 13.0352C13.6358 14.3128 11.8242 15.9868 10.6201 16.9737C10.5902 16.4259 10.4443 15.8829 10.1826 15.3848C11.0851 14.6175 12.1261 13.6694 13.0898 12.7432L11.1904 10.8565C10.2592 11.8124 9.30501 12.8448 8.53222 13.7413C7.99149 13.4594 7.39824 13.3135 6.80273 13.3008C6.84734 13.3018 6.89195 13.3023 6.93652 13.3047C7.92931 12.109 9.61732 10.307 10.9033 9.01371C13.1178 6.8137 15.305 4.9748 17.0595 3.78226C17.9315 3.1896 18.7282 2.73477 19.3867 2.48246C19.7133 2.35732 20.048 2.26575 20.3642 2.25199Z" fill="currentColor" />
</svg>