<svg xmlns="http://www.w3.org/2000/svg" width="24" height="24" viewBox="0 0 24 24" fill="none">
    <path opacity="0.4" d="M21.1504 9.75C21.433 9.75 21.5743 9.74993 21.6621 9.66211C21.7499 9.57428 21.75 9.43297 21.75 9.15039V3C21.75 2.58579 21.4142 2.25 21 2.25H3C2.58579 2.25 2.25 2.58579 2.25 3V9.15039C2.25 9.43297 2.25006 9.57428 2.33789 9.66211C2.42572 9.74994 2.56703 9.75 2.84961 9.75H21.1504ZM15.4238 18.75C16.7077 18.75 17.7394 18.7501 18.5498 18.6533C19.384 18.5536 20.0985 18.3404 20.6748 17.8281C21.2636 17.3046 21.5205 16.6366 21.6387 15.8555C21.7501 15.1186 21.75 14.1875 21.75 13.0596V11.8496C21.75 11.567 21.7499 11.4257 21.6621 11.3379C21.5743 11.2501 21.433 11.25 21.1504 11.25H2.84961C2.56703 11.25 2.42572 11.2501 2.33789 11.3379C2.25006 11.4257 2.25 11.567 2.25 11.8496V13.0596C2.24997 14.1875 2.24987 15.1186 2.36133 15.8555C2.47949 16.6366 2.73642 17.3046 3.3252 17.8281C3.9015 18.3404 4.616 18.5536 5.4502 18.6533C6.26061 18.7501 7.2923 18.75 8.57617 18.75H15.4238Z" fill="currentColor" />
    <path d="M22 4C22.5523 4 23 3.55228 23 3C23 2.44772 22.5523 2 22 2H2C1.44772 2 1 2.44772 1 3C1 3.55228 1.44772 4 2 4H22ZM12.125 7.75C12.5281 7.75023 12.8468 7.75074 13.1602 7.67676C13.4735 7.60274 13.7586 7.45983 14.1191 7.2793L14.1797 7.24805L14.3359 7.1709C14.7062 6.98558 14.8561 6.53447 14.6709 6.16406C14.4856 5.79396 14.0353 5.64411 13.665 5.8291L13.5098 5.90723C13.0594 6.13241 12.9376 6.18794 12.8154 6.2168C12.6932 6.24565 12.5594 6.25 12.0557 6.25H11.9443C11.4414 6.25 11.3076 6.24554 11.1855 6.2168C11.0634 6.18795 10.9415 6.13235 10.4912 5.90723L10.3359 5.8291C9.96555 5.64391 9.51443 5.79379 9.3291 6.16406C9.14386 6.53455 9.29456 6.98566 9.66504 7.1709L9.82031 7.24805L9.88184 7.2793C10.2424 7.45983 10.5274 7.60277 10.8408 7.67676C11.1542 7.75066 11.4728 7.75023 11.876 7.75H12.125ZM12.125 15.75C12.5281 15.7502 12.8468 15.7507 13.1602 15.6768C13.4735 15.6027 13.7586 15.4598 14.1191 15.2793L14.1797 15.248L14.3359 15.1709C14.7062 14.9856 14.8561 14.5345 14.6709 14.1641C14.4856 13.794 14.0353 13.6441 13.665 13.8291L13.5098 13.9072C13.0594 14.1324 12.9376 14.1879 12.8154 14.2168C12.6932 14.2456 12.5594 14.25 12.0557 14.25H11.9443C11.4414 14.25 11.3076 14.2455 11.1855 14.2168C11.0634 14.188 10.9415 14.1324 10.4912 13.9072L10.3359 13.8291C9.96555 13.6439 9.51443 13.7938 9.3291 14.1641C9.14386 14.5345 9.29456 14.9857 9.66504 15.1709L9.82031 15.248L9.88184 15.2793C10.2424 15.4598 10.5274 15.6028 10.8408 15.6768C11.1542 15.7507 11.4728 15.7502 11.876 15.75H12.125ZM5.5 22C6.05228 22 6.5 21.5523 6.5 21V18.7275C6.11529 18.7135 5.76597 18.691 5.4502 18.6533C5.11359 18.6131 4.7963 18.5542 4.5 18.4648V21C4.5 21.5523 4.94772 22 5.5 22ZM18.5 22C19.0523 22 19.5 21.5523 19.5 21V18.4648C19.2037 18.5542 18.8864 18.6131 18.5498 18.6533C18.234 18.691 17.8847 18.7135 17.5 18.7275V21C17.5 21.5523 17.9477 22 18.5 22Z" fill="currentColor" />
</svg>