<svg xmlns="http://www.w3.org/2000/svg" width="24" height="24" viewBox="0 0 24 24" fill="none">
    <path opacity="0.4" d="M4.21387 9.75C4.20046 10.3958 4.2002 11.1378 4.2002 12V13.9541C4.2002 15.8242 4.20202 17.1291 4.33398 18.1133C4.46222 19.0693 4.69694 19.5759 5.05664 19.9365C5.41643 20.2972 5.92207 20.5326 6.87598 20.6611C7.85788 20.7934 9.15961 20.7959 11.0254 20.7959C11.5637 20.7961 11.9999 21.2332 12 21.7715C12 22.3112 11.5622 22.75 11.0225 22.75H10.9541C9.17651 22.75 7.74319 22.7504 6.61621 22.5986C5.44607 22.4409 4.46023 22.1027 3.67773 21.3184C2.89545 20.5341 2.55867 19.5467 2.40137 18.374C2.24986 17.2444 2.24998 15.8082 2.25 14.0264V11.9287C2.24999 11.1352 2.2503 10.4099 2.26367 9.75H4.21387ZM21.7363 9.75C21.7497 10.4099 21.75 11.1351 21.75 11.9287V12.002C21.75 12.5403 21.3137 12.9773 20.7754 12.9775C20.2369 12.9775 19.7998 12.5385 19.7998 12C19.7998 11.1378 19.7995 10.3958 19.7861 9.75H21.7363Z" fill="currentColor" />
    <path d="M19 14.25C20.6313 14.25 21.7499 15.6051 21.75 17.1387C21.75 18.9833 20.533 20.3908 19.4824 21.2725C18.9423 21.7258 18.4056 22.0743 18.0059 22.3096C17.8109 22.4243 17.4564 22.6075 17.3262 22.6748L17.3154 22.6807C17.1156 22.7732 16.8844 22.7731 16.6846 22.6807L16.6738 22.6748C16.5441 22.6077 16.1893 22.4245 15.9941 22.3096C15.5944 22.0743 15.0577 21.7258 14.5176 21.2725C13.467 20.3908 12.25 18.9833 12.25 17.1387C12.2501 15.6051 13.3687 14.25 15 14.25C15.5855 14.25 16.1252 14.3783 16.5957 14.6729C16.7422 14.7645 16.8764 14.8697 17 14.9854C17.1236 14.8697 17.2578 14.7645 17.4043 14.6729C17.8748 14.3783 18.4145 14.25 19 14.25ZM15.9004 1.25C16.4387 1.25021 16.875 1.68794 16.875 2.22754V3.2998C17.0512 3.31589 17.2215 3.33444 17.3848 3.35645C18.5547 3.51416 19.5399 3.85154 20.3223 4.63574C21.1046 5.41997 21.4413 6.4074 21.5986 7.58008C21.6827 8.20669 21.7197 8.92803 21.7363 9.75H2.26367C2.28033 8.92803 2.31732 8.20668 2.40137 7.58008C2.5587 6.4074 2.89537 5.41997 3.67773 4.63574C4.46023 3.85143 5.44607 3.51413 6.61621 3.35645C6.77935 3.33447 6.94892 3.31588 7.125 3.2998V2.22754C7.125 1.68794 7.56131 1.25021 8.09961 1.25C8.63809 1.25 9.0752 1.68781 9.0752 2.22754V3.21289C9.65304 3.20458 10.2789 3.20409 10.9541 3.2041H13.0459C13.7211 3.20409 14.347 3.20458 14.9248 3.21289V2.22754C14.9248 1.68781 15.3619 1.25 15.9004 1.25Z" fill="currentColor" />
</svg>