<svg xmlns="http://www.w3.org/2000/svg" width="24" height="24" viewBox="0 0 24 24" fill="none">
    <path d="M16.4999 22C16.4999 22.5523 16.9476 23 17.4999 23C18.0521 23 18.4999 22.5523 18.4999 22V17.0195C18.5316 17.0563 18.5644 17.0929 18.5965 17.1309C18.9151 17.5069 19.2268 17.9062 19.5145 18.2725C19.7842 18.6159 20.0655 18.9735 20.2831 19.1973C20.668 19.593 21.3012 19.6016 21.6971 19.2168C22.0929 18.8318 22.1015 18.1987 21.7166 17.8027C21.5902 17.6726 21.3843 17.4159 21.0868 17.0371C20.8068 16.6807 20.4698 16.2484 20.1219 15.8379C19.7778 15.4318 19.394 15.0113 19.0116 14.6855C18.82 14.5224 18.6048 14.3623 18.3749 14.2393C18.1527 14.1205 17.8498 14 17.4999 14C17.1499 14 16.847 14.1205 16.6249 14.2393C16.3949 14.3623 16.1797 14.5224 15.9881 14.6855C15.6057 15.0113 15.2219 15.4318 14.8778 15.8379C14.5299 16.2484 14.1929 16.6807 13.9129 17.0371C13.6154 17.4159 13.4095 17.6726 13.2831 17.8027C12.8982 18.1987 12.9068 18.8318 13.3026 19.2168C13.6985 19.6016 14.3317 19.593 14.7166 19.1973C14.9342 18.9735 15.2155 18.6159 15.4852 18.2725C15.7729 17.9062 16.0846 17.5069 16.4032 17.1309C16.4353 17.0929 16.4681 17.0563 16.4999 17.0195V22Z" fill="currentColor" />
    <path fill-rule="evenodd" clip-rule="evenodd" d="M6.99946 2V3.09703C6.81864 3.11349 6.64452 3.13275 6.477 3.15527C5.27691 3.31664 4.26684 3.66231 3.46431 4.46484C2.66178 5.26737 2.3161 6.27744 2.15474 7.47754C2.07535 8.06802 2.03654 8.74041 2.01758 9.5H3.99946H19.9995H21.9813C21.9624 8.74041 21.9236 8.06802 21.8442 7.47754C21.6828 6.27744 21.3372 5.26737 20.5346 4.46484C19.7321 3.66231 18.722 3.31664 17.5219 3.15527C17.3544 3.13275 17.1803 3.11349 16.9995 3.09703V2C16.9995 1.44772 16.5518 1 15.9995 1C15.4472 1 14.9995 1.44772 14.9995 2V3.00846C14.4076 2.99998 13.7671 2.99999 13.0757 3H10.9232C10.2319 2.99999 9.59131 2.99998 8.99946 3.00846V2C8.99946 1.44772 8.55175 1 7.99946 1C7.44718 1 6.99946 1.44772 6.99946 2Z" fill="currentColor" />
    <path opacity="0.4" fill-rule="evenodd" clip-rule="evenodd" d="M2.01812 9.5H4V11C3.99936 11.2078 3.99957 11.4235 3.99978 11.6476L4 14C4 15.9139 4.00229 17.2487 4.1377 18.2559C4.26924 19.2342 4.5099 19.7521 4.87891 20.1211C5.24792 20.4901 5.7658 20.7308 6.74414 20.8623C7.75128 20.9977 10.0861 21 12 21C12.5523 21 13 21.4477 13 22C13 22.5523 12.5523 23 12 23H10.9239C9.10178 23 7.63287 23.0001 6.47754 22.8447C5.27745 22.6834 4.26738 22.3377 3.46485 21.5352C2.66231 20.7326 2.31664 19.7226 2.15528 18.5225C1.99995 17.3671 1.99997 15.8983 2 14.0762V11.9238C1.99999 11.033 1.99997 10.2266 2.01812 9.5ZM20 9.5H21.9819C22 10.2266 22 11.033 22 11.9239V12C22 12.5523 21.5523 13 21 13C20.4477 13 20 12.5523 19.9999 12L19.9999 11.5L20 9.5Z" fill="currentColor" />
</svg>