<svg xmlns="http://www.w3.org/2000/svg" width="24" height="24" viewBox="0 0 24 24" fill="none">
    <path d="M6.99946 3.09691V1.99988C6.99946 1.44759 7.44718 0.999878 7.99946 0.999878C8.55175 0.999878 8.99946 1.44759 8.99946 1.99988V3.00833C9.59131 2.99986 10.2319 2.99987 10.9232 2.99988H13.0757C13.7671 2.99987 14.4076 2.99986 14.9995 3.00833V1.99988C14.9995 1.44759 15.4472 0.999878 15.9995 0.999878C16.5518 0.999878 16.9995 1.44759 16.9995 1.99988V3.09691C17.1803 3.11337 17.3544 3.13263 17.5219 3.15515C18.722 3.31651 19.7321 3.66219 20.5346 4.46472C21.3372 5.26725 21.6828 6.27732 21.8442 7.47742C21.9236 8.0679 21.9624 8.74029 21.9813 9.49988H19.9995H3.99946H2.01758C2.03654 8.74029 2.07535 8.0679 2.15474 7.47742C2.3161 6.27732 2.66178 5.26725 3.46431 4.46472C4.26684 3.66219 5.27691 3.31651 6.477 3.15515C6.64452 3.13263 6.81864 3.11337 6.99946 3.09691Z" fill="currentColor" />
    <path d="M21.9473 16.6805C21.7708 16.1572 21.2039 15.8761 20.6807 16.0526C19.8954 16.3174 19.1475 16.8209 18.4961 17.3651C17.8352 17.9171 17.2187 18.5568 16.6963 19.1531C16.3451 19.554 16.032 19.9428 15.7695 20.2811C15.5367 20.0306 15.3066 19.8391 15.083 19.6971C14.8327 19.5381 14.6034 19.4462 14.4131 19.3944C14.3186 19.3686 14.2348 19.3534 14.165 19.3445C14.1303 19.3401 14.0989 19.3375 14.0713 19.3358C14.0577 19.3349 14.045 19.3342 14.0332 19.3338C14.0304 19.3337 14.036 19.334 14.0332 19.3338C14.0301 19.3336 14.0185 19.3329 14.0156 19.3328H14C13.4478 19.3328 13.0002 19.7807 13 20.3328C13 20.8498 13.3924 21.2747 13.8955 21.327C13.9114 21.3325 13.9514 21.3479 14.0107 21.3856C14.163 21.4822 14.491 21.7537 14.8643 22.4647C15.0282 22.777 15.345 22.9802 15.6973 22.9988C16.0495 23.0173 16.3862 22.8488 16.582 22.5555L16.5869 22.5467L16.6074 22.5164C16.6263 22.4888 16.6554 22.4467 16.6934 22.3924C16.7695 22.2835 16.8829 22.125 17.0264 21.9315C17.3141 21.5432 17.7218 21.0187 18.2012 20.4715C18.6823 19.9222 19.2234 19.3637 19.7783 18.9002C20.3428 18.4287 20.8693 18.0989 21.3193 17.9471C21.8426 17.7706 22.1237 17.2038 21.9473 16.6805Z" fill="currentColor" />
    <path opacity="0.4" fill-rule="evenodd" clip-rule="evenodd" d="M4 9.49988H2.01812C1.99997 10.2265 1.99999 11.0328 2 11.9236V14.0761C1.99997 15.8981 1.99995 17.367 2.15528 18.5223C2.31664 19.7224 2.66231 20.7325 3.46485 21.535C4.26738 22.3376 5.27745 22.6832 6.47754 22.8446C7.63287 22.9999 9.10178 22.9999 10.9239 22.9999H11C11.5523 22.9999 12 22.5522 12 21.9999C12 21.4476 11.5524 21.0003 11.0001 20.999C9.3335 20.9953 7.58075 20.9747 6.74414 20.8622C5.7658 20.7306 5.24792 20.49 4.87891 20.121C4.5099 19.752 4.26924 19.2341 4.1377 18.2557C4.00229 17.2486 4 15.9138 4 13.9999L3.99978 11.6474C3.99957 11.4234 3.99936 11.2077 4 10.9999V9.49988ZM21.9819 9.49988H20L19.9999 11.4999L19.9999 12.9999C20 13.5522 20.4477 13.9999 21 13.9999C21.5523 13.9999 22 13.5521 22 12.9998V12.9237C22 12.0329 22 10.2265 21.9819 9.49988Z" fill="currentColor" />
</svg>