<svg xmlns="http://www.w3.org/2000/svg" width="24" height="24" viewBox="0 0 24 24" fill="none">
    <path d="M13.2929 12.5429C13.6834 12.1524 14.3165 12.1524 14.707 12.5429C15.0975 12.9334 15.0975 13.5664 14.707 13.957L13.414 15.2499L14.707 16.5429C15.0975 16.9334 15.0975 17.5664 14.707 17.957C14.3165 18.3475 13.6834 18.3475 13.2929 17.957L12 16.664L10.707 17.957C10.3165 18.3475 9.68345 18.3475 9.29292 17.957C8.9024 17.5664 8.9024 16.9334 9.29292 16.5429L10.5859 15.2499L9.29292 13.957C8.9024 13.5664 8.9024 12.9334 9.29292 12.5429C9.68345 12.1524 10.3165 12.1524 10.707 12.5429L12 13.8359L13.2929 12.5429Z" fill="currentColor" />
    <path fill-rule="evenodd" clip-rule="evenodd" d="M9.07528 2.22727C9.07528 1.68754 8.63875 1.25 8.10028 1.25C7.5618 1.25 7.12528 1.68754 7.12528 2.22727V3.29947C6.94902 3.31556 6.7793 3.33437 6.616 3.35638C5.44586 3.51407 4.46062 3.85141 3.67813 4.63573C2.89564 5.42004 2.55908 6.40758 2.40176 7.58045C2.31771 8.20706 2.28028 8.92803 2.26363 9.75H4.21414H19.7864H21.7369C21.7203 8.92803 21.6828 8.20706 21.5988 7.58045C21.4415 6.40758 21.1049 5.42004 20.3224 4.63573C19.5399 3.85141 18.5547 3.51407 17.3846 3.35638C17.2213 3.33437 17.0515 3.31556 16.8753 3.29947V2.22727C16.8753 1.68754 16.4388 1.25 15.9003 1.25C15.3618 1.25 14.9253 1.68754 14.9253 2.22727V3.21284C14.3474 3.20452 13.7219 3.20453 13.0466 3.20454H10.9539C10.2787 3.20453 9.65317 3.20452 9.07528 3.21284V2.22727Z" fill="currentColor" />
    <path opacity="0.4" fill-rule="evenodd" clip-rule="evenodd" d="M21.7366 9.75H19.7861C19.7995 10.3958 19.8 11.1378 19.8 12V13.9545C19.8 15.8249 19.7979 17.1294 19.6659 18.1137C19.5376 19.0698 19.303 19.5761 18.9433 19.9367C18.5835 20.2974 18.0783 20.5325 17.1244 20.6611C16.1425 20.7934 14.841 20.7955 12.975 20.7955H11.025C9.15893 20.7955 7.85748 20.7934 6.87552 20.6611C5.92161 20.5325 5.41647 20.2974 5.05668 19.9367C4.69689 19.5761 4.46231 19.0698 4.33406 18.1137C4.20204 17.1294 4.19997 15.8249 4.19997 13.9545V12C4.19997 11.1378 4.20041 10.3958 4.21382 9.75H2.26331C2.24993 10.4099 2.24994 11.1349 2.24995 11.9285V14.0261C2.24993 15.8081 2.24991 17.2444 2.40144 18.3741C2.55876 19.547 2.89532 20.5345 3.67781 21.3188C4.4603 22.1031 5.44554 22.4405 6.61568 22.5982C7.74274 22.75 9.17577 22.75 10.9536 22.75H13.0463C14.8241 22.75 16.2572 22.75 17.3842 22.5982C18.5544 22.4405 19.5396 22.1031 20.3221 21.3188C21.1046 20.5345 21.4412 19.547 21.5985 18.3741C21.75 17.2444 21.75 15.808 21.75 14.026V11.9285C21.75 11.1349 21.75 10.4099 21.7366 9.75Z" fill="currentColor" />
</svg>