<svg xmlns="http://www.w3.org/2000/svg" width="24" height="24" viewBox="0 0 24 24" fill="none">
    <path d="M12.4883 12.1395C12.2266 12.0012 11.9364 11.9693 11.6631 12.0281C11.4013 12.0845 11.1995 12.2146 11.0771 12.3035C10.8525 12.4668 10.6038 12.7164 10.3793 12.9417C10.3667 12.9543 10.3542 12.9669 10.3418 12.9793L10.042 13.2801C9.65201 13.6711 9.65293 14.3041 10.0439 14.6941C10.3715 15.0208 10.8679 15.0718 11.25 14.8504V16.9998H10.75C10.1977 16.9998 9.75 17.4475 9.75 17.9998C9.75 18.5521 10.1977 18.9998 10.75 18.9998H13.75C14.3023 18.9998 14.75 18.5521 14.75 17.9998C14.75 17.4475 14.3023 16.9998 13.75 16.9998H13.25V14.4881L13.25 14.4486C13.25 14.051 13.2501 13.671 13.2178 13.3768C13.1936 13.1562 13.1264 12.6248 12.6904 12.2732L12.5986 12.2049L12.4883 12.1395Z" fill="currentColor" />
    <path fill-rule="evenodd" clip-rule="evenodd" d="M9.07532 2.22727C9.07532 1.68754 8.6388 1.25 8.10032 1.25C7.56184 1.25 7.12532 1.68754 7.12532 2.22727V3.29947C6.94906 3.31556 6.77934 3.33437 6.61604 3.35638C5.4459 3.51407 4.46067 3.85141 3.67818 4.63573C2.89569 5.42004 2.55912 6.40758 2.4018 7.58045C2.31775 8.20706 2.28033 8.92803 2.26367 9.75H4.21418H19.7865H21.737C21.7203 8.92803 21.6829 8.20706 21.5988 7.58045C21.4415 6.40758 21.105 5.42004 20.3225 4.63573C19.54 3.85141 18.5547 3.51407 17.3846 3.35638C17.2213 3.33437 17.0516 3.31556 16.8753 3.29947V2.22727C16.8753 1.68754 16.4388 1.25 15.9003 1.25C15.3618 1.25 14.9253 1.68754 14.9253 2.22727V3.21284C14.3474 3.20452 13.7219 3.20453 13.0467 3.20454H10.954C10.2787 3.20453 9.65321 3.20452 9.07532 3.21284V2.22727Z" fill="currentColor" />
    <path opacity="0.4" fill-rule="evenodd" clip-rule="evenodd" d="M21.7367 9.75H19.7862C19.7996 10.3958 19.8 11.1378 19.8 12V13.9545C19.8 15.8249 19.7979 17.1294 19.6659 18.1137C19.5377 19.0698 19.3031 19.5761 18.9433 19.9367C18.5835 20.2974 18.0784 20.5325 17.1245 20.6611C16.1425 20.7934 14.8411 20.7955 12.975 20.7955H11.025C9.15897 20.7955 7.85752 20.7934 6.87557 20.6611C5.92166 20.5325 5.41652 20.2974 5.05673 19.9367C4.69693 19.5761 4.46235 19.0698 4.3341 18.1137C4.20208 17.1294 4.20001 15.8249 4.20001 13.9545V12C4.20001 11.1378 4.20045 10.3958 4.21386 9.75H2.26335C2.24998 10.4099 2.24999 11.1349 2.25 11.9285V14.0261C2.24998 15.8081 2.24995 17.2444 2.40148 18.3741C2.5588 19.547 2.89537 20.5345 3.67786 21.3188C4.46035 22.1031 5.44558 22.4405 6.61573 22.5982C7.74279 22.75 9.17581 22.75 10.9537 22.75H13.0463C14.8242 22.75 16.2572 22.75 17.3843 22.5982C18.5544 22.4405 19.5397 22.1031 20.3221 21.3188C21.1046 20.5345 21.4412 19.547 21.5985 18.3741C21.75 17.2444 21.75 15.808 21.75 14.026V11.9285C21.75 11.1349 21.75 10.4099 21.7367 9.75Z" fill="currentColor" />
</svg>