<svg xmlns="http://www.w3.org/2000/svg" width="24" height="24" viewBox="0 0 24 24" fill="none">
    <path opacity="0.4" d="M4.21387 9.75C4.20046 10.3958 4.2002 11.1378 4.2002 12V13.9541C4.2002 15.8242 4.20202 17.1291 4.33398 18.1133C4.46222 19.0693 4.69694 19.5759 5.05664 19.9365C5.41643 20.2972 5.92207 20.5326 6.87598 20.6611C7.85788 20.7934 9.15961 20.7959 11.0254 20.7959C11.5649 20.7961 12.0018 21.233 12.002 21.7725C12.002 22.3121 11.5649 22.7498 11.0254 22.75H10.9541C9.17651 22.75 7.74319 22.7504 6.61621 22.5986C5.44607 22.4409 4.46023 22.1027 3.67773 21.3184C2.89545 20.5341 2.55867 19.5467 2.40137 18.374C2.24986 17.2444 2.24998 15.8082 2.25 14.0264V11.9287C2.24999 11.1352 2.2503 10.4099 2.26367 9.75H4.21387ZM21.7363 9.75C21.7497 10.4099 21.75 11.1351 21.75 11.9287V12.9795C21.75 13.5178 21.3137 13.9539 20.7754 13.9541C20.2369 13.9541 19.7998 13.518 19.7998 12.9795V12C19.7998 11.1378 19.7995 10.3958 19.7861 9.75H21.7363Z" fill="currentColor" />
    <path d="M17.5332 16.0527C17.9182 15.657 18.5513 15.6484 18.9473 16.0332C19.0269 16.1106 19.1962 16.2465 19.4717 16.4629C19.4914 16.4784 19.5118 16.4947 19.5322 16.5107C19.7738 16.7004 20.0612 16.9264 20.3359 17.1592C20.6296 17.408 20.9436 17.6935 21.1914 17.9844C21.3157 18.1303 21.444 18.3016 21.5449 18.4902C21.6416 18.6709 21.75 18.9349 21.75 19.25C21.75 19.5651 21.6416 19.8291 21.5449 20.0098C21.444 20.1984 21.3157 20.3697 21.1914 20.5156C20.9436 20.8065 20.6296 21.092 20.3359 21.3408C20.0612 21.5736 19.7738 21.7996 19.5322 21.9893C19.5118 22.0053 19.4914 22.0216 19.4717 22.0371C19.1962 22.2535 19.0269 22.3894 18.9473 22.4668C18.5513 22.8516 17.9182 22.843 17.5332 22.4473C17.1484 22.0513 17.157 21.4182 17.5527 21.0332C17.7253 20.8655 17.9939 20.6549 18.2334 20.4668L18.2363 20.4639C18.255 20.4492 18.2741 20.4347 18.293 20.4199C18.364 20.3641 18.4363 20.3073 18.5088 20.25H13.75C13.1977 20.25 12.75 19.8023 12.75 19.25C12.75 18.6977 13.1977 18.25 13.75 18.25H18.5088C18.4363 18.1927 18.364 18.1359 18.293 18.0801C18.2742 18.0653 18.255 18.0508 18.2363 18.0361L18.2334 18.0332C17.9939 17.8451 17.7253 17.6345 17.5527 17.4668C17.157 17.0818 17.1484 16.4487 17.5332 16.0527ZM15.9004 1.25001C16.4387 1.25021 16.875 1.68794 16.875 2.22755V3.29981C17.0513 3.3159 17.2215 3.33445 17.3848 3.35646C18.5547 3.51417 19.5399 3.85154 20.3223 4.63575C21.1046 5.41998 21.4413 6.4074 21.5986 7.58009C21.6827 8.2067 21.7197 8.92804 21.7363 9.75001H2.26367C2.28033 8.92804 2.31732 8.20669 2.40137 7.58009C2.5587 6.40741 2.89537 5.41998 3.67773 4.63575C4.46023 3.85144 5.44607 3.51414 6.61621 3.35646C6.77935 3.33448 6.94892 3.31589 7.125 3.29981V2.22755C7.125 1.68795 7.56132 1.25023 8.09961 1.25001C8.63809 1.25001 9.0752 1.68782 9.0752 2.22755V3.2129C9.65304 3.20459 10.2789 3.2041 10.9541 3.20411H13.0459C13.7211 3.2041 14.347 3.20459 14.9248 3.2129V2.22755C14.9248 1.68782 15.3619 1.25001 15.9004 1.25001Z" fill="currentColor" />
</svg>