<svg xmlns="http://www.w3.org/2000/svg" width="24" height="24" viewBox="0 0 24 24" fill="none">
    <path d="M17.5 13.75C18.0523 13.75 18.5 14.1977 18.5 14.75V19.5088C18.5573 19.4363 18.6141 19.364 18.6699 19.293C18.6847 19.2742 18.6992 19.255 18.7139 19.2363L18.7168 19.2334C18.9049 18.9939 19.1155 18.7253 19.2832 18.5527C19.6682 18.157 20.3013 18.1484 20.6973 18.5332C21.093 18.9182 21.1016 19.5513 20.7168 19.9473C20.6394 20.0269 20.5035 20.1962 20.2871 20.4717C20.2716 20.4914 20.2553 20.5118 20.2393 20.5322C20.0496 20.7738 19.8236 21.0612 19.5908 21.3359C19.342 21.6296 19.0565 21.9436 18.7656 22.1914C18.6197 22.3157 18.4484 22.444 18.2598 22.5449C18.0791 22.6416 17.8151 22.75 17.5 22.75C17.1849 22.75 16.9209 22.6416 16.7402 22.5449C16.5516 22.444 16.3803 22.3157 16.2344 22.1914C15.9435 21.9436 15.658 21.6296 15.4092 21.3359C15.1764 21.0612 14.9504 20.7738 14.7607 20.5322C14.7447 20.5118 14.7284 20.4914 14.7129 20.4717C14.4965 20.1962 14.3606 20.0269 14.2832 19.9473C13.8984 19.5513 13.907 18.9182 14.3027 18.5332C14.6987 18.1484 15.3318 18.157 15.7168 18.5527C15.8845 18.7253 16.0951 18.9939 16.2832 19.2334L16.2861 19.2363C16.3008 19.255 16.3153 19.2742 16.3301 19.293C16.3859 19.364 16.4427 19.4363 16.5 19.5088V14.75C16.5 14.1977 16.9477 13.75 17.5 13.75ZM15.9004 1.25C16.4387 1.25021 16.875 1.68794 16.875 2.22754V3.2998C17.0512 3.31589 17.2215 3.33444 17.3848 3.35645C18.5547 3.51416 19.5399 3.85154 20.3223 4.63574C21.1046 5.41997 21.4413 6.4074 21.5986 7.58008C21.6827 8.20669 21.7197 8.92803 21.7363 9.75H2.26369C2.28035 8.92803 2.31733 8.20668 2.40138 7.58008C2.55872 6.4074 2.89538 5.41997 3.67775 4.63574C4.46025 3.85143 5.44609 3.51413 6.61623 3.35645C6.77937 3.33447 6.94894 3.31588 7.12502 3.2998V2.22754C7.12502 1.68794 7.56133 1.25021 8.09963 1.25C8.6381 1.25 9.07522 1.68781 9.07522 2.22754V3.21289C9.65306 3.20458 10.2789 3.20409 10.9541 3.2041H13.0459C13.7211 3.20409 14.347 3.20458 14.9248 3.21289V2.22754C14.9248 1.68781 15.3619 1.25 15.9004 1.25Z" fill="currentColor" />
    <path opacity="0.4" d="M4.21387 9.75C4.20046 10.3958 4.2002 11.1378 4.2002 12V13.9541C4.2002 15.8242 4.20202 17.1291 4.33398 18.1133C4.46222 19.0693 4.69694 19.5759 5.05664 19.9365C5.41643 20.2972 5.92207 20.5326 6.87598 20.6611C7.85788 20.7934 9.15961 20.7959 11.0254 20.7959H11.9981C12.5375 20.7961 12.9745 21.233 12.9746 21.7725C12.9746 22.3121 12.5376 22.7498 11.9981 22.75H10.9541C9.17651 22.75 7.74319 22.7504 6.61621 22.5986C5.44607 22.4409 4.46023 22.1027 3.67773 21.3184C2.89545 20.5341 2.55867 19.5467 2.40137 18.374C2.24986 17.2444 2.24998 15.8082 2.25 14.0264V11.9287C2.24999 11.1352 2.2503 10.4099 2.26367 9.75H4.21387ZM21.7363 9.75C21.7497 10.4099 21.75 11.1351 21.75 11.9287V13.9795C21.75 14.5178 21.3137 14.9539 20.7754 14.9541C20.2369 14.9541 19.7998 14.518 19.7998 13.9795V12C19.7998 11.1378 19.7995 10.3958 19.7861 9.75H21.7363Z" fill="currentColor" />
</svg>