<svg xmlns="http://www.w3.org/2000/svg" width="24" height="24" viewBox="0 0 24 24" fill="none">
    <path d="M20.793 16.1679C21.1836 15.7774 21.8166 15.7774 22.2071 16.1679C22.5976 16.5584 22.5976 17.1914 22.2071 17.582L20.4141 19.3749L22.2071 21.1679C22.5976 21.5584 22.5976 22.1914 22.2071 22.582C21.8166 22.9725 21.1836 22.9725 20.793 22.582L19.0001 20.789L17.2071 22.582C16.8166 22.9725 16.1836 22.9725 15.793 22.582C15.4025 22.1914 15.4025 21.5584 15.793 21.1679L17.586 19.3749L15.793 17.582C15.4025 17.1914 15.4025 16.5584 15.793 16.1679C16.1836 15.7774 16.8166 15.7774 17.2071 16.1679L19.0001 17.9609L20.793 16.1679Z" fill="currentColor" />
    <path fill-rule="evenodd" clip-rule="evenodd" d="M7.3504 1.125C7.88887 1.125 8.3254 1.56254 8.3254 2.10227V3.08784C8.90329 3.07952 9.5288 3.07953 10.2041 3.07954H12.2967C12.972 3.07953 13.5975 3.07952 14.1754 3.08784V2.10227C14.1754 1.56254 14.6119 1.125 15.1504 1.125C15.6889 1.125 16.1254 1.56254 16.1254 2.10227V3.17447C16.3017 3.19056 16.4714 3.20937 16.6347 3.23138C17.8048 3.38907 18.79 3.72641 19.5725 4.51073C20.355 5.29504 20.6916 6.28258 20.8489 7.45545C20.9233 8.01036 20.9612 8.77716 20.9805 9.625H19.0366H3.46426H1.51375C1.53041 8.80303 1.56783 8.08205 1.65188 7.45545C1.8092 6.28258 2.14576 5.29504 2.92825 4.51073C3.71074 3.72641 4.69598 3.38907 5.86612 3.23138C6.02942 3.20937 6.19914 3.19056 6.3754 3.17447V2.10227C6.3754 1.56254 6.81192 1.125 7.3504 1.125Z" fill="currentColor" />
    <path opacity="0.4" fill-rule="evenodd" clip-rule="evenodd" d="M1.51343 9.625H3.46394C3.45053 10.2708 3.45009 11.0128 3.45009 11.875V13.8295C3.45009 15.6999 3.45216 17.0044 3.58418 17.9887C3.71243 18.9448 3.94701 19.4511 4.3068 19.8117C4.66659 20.1724 5.17174 20.4075 6.12564 20.5361C7.1076 20.6684 10.409 20.6705 12.2751 20.6705H12.2478C12.7875 20.6705 13.2251 21.108 13.2251 21.6477C13.2251 22.1875 12.7875 22.625 12.2478 22.625H12.2038C10.4259 22.625 6.99287 22.625 5.8658 22.4732C4.69566 22.3155 3.71043 21.9781 2.92793 21.1938C2.14544 20.4095 1.80888 19.422 1.65156 18.2491C1.50003 17.1194 1.50005 15.6831 1.50008 13.9011V11.8035C1.50007 11.0099 1.50006 10.2849 1.51343 9.625ZM19.0501 12.4465V12.426C19.0501 12.4259 19.0501 12.4261 19.0501 12.426" fill="currentColor" />
    <path opacity="0.4" d="M20.9811 9.625C21.001 10.5032 21.001 11.4683 21.001 12.375V12.426C21.001 12.9645 20.5645 13.401 20.026 13.401C19.8931 13.401 19.7664 13.3744 19.6509 13.3263C19.6179 13.3125 19.5858 13.297 19.5547 13.2798C19.26 13.1167 19.0584 12.8054 19.051 12.4465C19.0509 12.4397 19.051 12.4329 19.051 12.426V12.4465C19.051 11.5842 19.0506 10.2708 19.0372 9.625H20.9811Z" fill="currentColor" />
</svg>