<svg xmlns="http://www.w3.org/2000/svg" width="24" height="24" viewBox="0 0 24 24" fill="none">
    <path opacity="0.4" d="M9.66893 14.3313C10.3501 15.0125 11.1341 15.591 12.0761 16.1223C12.6076 16.4221 12.8738 16.5725 13.2353 16.6282C13.5872 16.6824 14.0437 16.6196 14.3681 16.4729C14.7014 16.3221 14.9569 16.0658 15.4687 15.554C15.9891 15.0335 16.25 14.7738 16.5547 14.6262C16.8787 14.4693 17.2389 14.4027 17.5976 14.4329C17.9349 14.4612 18.271 14.6106 18.9433 14.9094L19.5136 15.1624C20.2812 15.5035 20.6652 15.6746 20.9365 15.9553C21.1153 16.1405 21.257 16.3583 21.3535 16.5969C21.4998 16.9588 21.5 17.3791 21.5 18.219C21.5 19.4696 21.4999 20.0951 21.1963 20.5823C21.0101 20.881 20.6938 21.1663 20.3779 21.3215C19.8626 21.5746 19.2946 21.5174 18.1592 21.4026C13.4484 20.9262 9.79572 19.3917 7.20213 16.7981L9.66893 14.3313ZM5.78124 2.50024C6.62117 2.50024 7.04142 2.50039 7.40331 2.64673C7.64218 2.74332 7.8606 2.88467 8.04588 3.06372C8.32657 3.33497 8.49679 3.71913 8.83788 4.48657L9.09081 5.05688C9.38964 5.72927 9.53993 6.06532 9.56835 6.40259C9.59854 6.76132 9.53093 7.12156 9.37401 7.44556C9.22642 7.7502 8.96668 8.01109 8.44628 8.53149C7.93429 9.04348 7.67809 9.29966 7.52733 9.63306C7.38075 9.95745 7.31788 10.4131 7.37206 10.7649C7.42776 11.1265 7.57811 11.3925 7.87792 11.9241C7.95836 12.0667 8.04023 12.2055 8.12303 12.3411L5.59862 14.8655C3.96619 12.4894 2.96576 9.4814 2.59764 5.84106C2.48283 4.70562 2.42562 4.13761 2.6787 3.62231C2.83392 3.30642 3.11928 2.99014 3.41796 2.80396C3.90514 2.50034 4.53074 2.50024 5.78124 2.50024Z" fill="currentColor" />
    <path d="M20.042 2.54323C20.4326 2.15258 21.0664 2.15258 21.457 2.54323C21.8477 2.93388 21.8477 3.56762 21.457 3.95827L3.95803 21.4573C3.56738 21.8479 2.93364 21.8479 2.54299 21.4573C2.15234 21.0666 2.15234 20.4329 2.54299 20.0422L20.042 2.54323Z" fill="currentColor" />
</svg>