<svg xmlns="http://www.w3.org/2000/svg" width="24" height="24" viewBox="0 0 24 24" fill="none">
    <path opacity="0.4" d="M15.25 15.7041C16.0856 14.8685 17.3061 14.6421 18.3682 14.9805C18.8688 15.1401 19.4468 15.3011 19.9766 15.3975C20.8837 15.5625 21.7498 16.3422 21.75 17.4395V18.9102C21.7499 20.4988 20.4361 21.9226 18.7109 21.7324C14.3934 21.2558 10.5207 19.304 7.60839 16.3916L8.9873 15.0117C10.1603 16.1847 11.5074 17.1847 12.9863 17.9678L15.25 15.7041ZM6.56054 2.25C7.63748 2.25007 8.4385 3.08842 8.63379 3.98535C8.75028 4.52113 8.92899 5.16316 9.09277 5.71191C9.40322 6.75237 9.14323 7.90462 8.35449 8.69336L6.03222 11.0127C6.42066 11.7464 6.86288 12.4477 7.35254 13.1113L5.95898 14.5049C3.96498 11.8897 2.64741 8.73076 2.26757 5.28906C2.07742 3.56393 3.50214 2.25014 5.09082 2.25H6.56054Z" fill="currentColor" />
    <path d="M20.0429 2.5429C20.4334 2.15237 21.0664 2.15237 21.4569 2.5429C21.8475 2.93342 21.8475 3.56644 21.4569 3.95696L9.71672 15.6962C10.7084 16.5764 11.8046 17.342 12.9862 17.9677L15.2499 15.704C16.0856 14.8684 17.306 14.6419 18.3681 14.9804C18.8687 15.14 19.4467 15.301 19.9765 15.3974C20.8835 15.5625 21.7497 16.3422 21.7499 17.4394V18.9101C21.7498 20.4987 20.4359 21.9224 18.7108 21.7323C14.7425 21.2943 11.1503 19.6098 8.3339 17.079L3.95695 21.4569C3.56643 21.8475 2.93341 21.8475 2.54289 21.4569C2.15237 21.0664 2.15237 20.4334 2.54289 20.0429L20.0429 2.5429Z" fill="currentColor" />
</svg>