<svg xmlns="http://www.w3.org/2000/svg" width="24" height="24" viewBox="0 0 24 24" fill="none">
    <path opacity="0.4" d="M12 22.7501C17.9371 22.7501 22.75 17.9372 22.75 12.0001C22.75 6.06307 17.9371 1.25013 12 1.25013C11.4603 1.25013 11.0225 1.68794 11.0225 2.22767C11.0226 2.76728 11.4604 3.20423 12 3.20423C16.8576 3.20423 20.7959 7.14254 20.7959 12.0001C20.7959 16.8577 16.8576 20.796 12 20.796C7.1424 20.796 3.2041 16.8577 3.2041 12.0001C3.2041 11.4605 2.76715 11.0227 2.22754 11.0226C1.68781 11.0226 1.25 11.4604 1.25 12.0001C1.25 17.9372 6.06294 22.7501 12 22.7501ZM5.46582 4.66908C5.76372 5.07756 6.31847 5.18701 6.74609 4.93763L6.83008 4.88294C7.47669 4.41234 8.19011 4.02876 8.95215 3.7472L9.28125 3.63197C9.79421 3.46518 10.0755 2.9146 9.90918 2.4015C9.75289 1.92051 9.25837 1.6429 8.77441 1.7472L8.67773 1.77455C7.72803 2.08293 6.83597 2.51926 6.02344 3.06361L5.68066 3.30287C5.24428 3.62048 5.1482 4.23269 5.46582 4.66908ZM2.40137 9.90931C2.91433 10.0756 3.46491 9.79506 3.63184 9.28236C3.88366 8.50663 4.24096 7.7766 4.68652 7.11146L4.88281 6.83021C5.20033 6.39397 5.10496 5.78268 4.66895 5.46498C4.26 5.16743 3.69669 5.23312 3.36621 5.60169L3.30273 5.67982C2.64586 6.58237 2.12589 7.59228 1.77344 8.67787C1.60681 9.19114 1.88817 9.74256 2.40137 9.90931Z" fill="currentColor" />
    <path d="M8.294 15.7071C8.68456 16.0973 9.31764 16.0975 9.70806 15.7071L12.0001 13.4141L14.2921 15.7071L14.3683 15.7754C14.761 16.0958 15.34 16.0731 15.7061 15.7071C16.072 15.3411 16.0954 14.7619 15.7755 14.3692L15.7061 14.293L13.4132 12.0001L15.7071 9.70711L15.7755 9.63093C16.0957 9.23821 16.0731 8.65912 15.7071 8.29304C15.3411 7.92702 14.762 7.9045 14.3692 8.22468L14.2931 8.29304L12.0001 10.586L9.70708 8.29304L9.63091 8.22468C9.23821 7.90439 8.65915 7.9271 8.29302 8.29304C7.92691 8.65916 7.90431 9.23816 8.22466 9.63093L8.29302 9.70711L10.586 12.0001L8.294 14.293C7.90349 14.6836 7.90345 15.3166 8.294 15.7071Z" fill="currentColor" />
</svg>