<svg xmlns="http://www.w3.org/2000/svg" width="24" height="24" viewBox="0 0 24 24" fill="none">
    <path d="M5.75 8.5C7.17753 8.5 8.40562 9.35455 8.9502 10.5801C9.04564 10.7949 9.09353 10.9026 9.16797 10.9512C9.24253 10.9996 9.34614 11 9.55273 11H21.1504C21.433 11 21.5743 11.0001 21.6621 11.0879C21.7499 11.1757 21.75 11.317 21.75 11.5996V12.4004C21.75 12.683 21.7499 12.8243 21.6621 12.9121C21.5743 12.9999 21.433 13 21.1504 13H9.55273C9.34614 13 9.24253 13.0004 9.16797 13.0488C9.09353 13.0974 9.04564 13.2051 8.9502 13.4199C8.40562 14.6454 7.17753 15.5 5.75 15.5C3.817 15.5 2.25 13.933 2.25 12C2.25 10.067 3.817 8.5 5.75 8.5ZM5.75 10.5C4.92157 10.5 4.25 11.1716 4.25 12C4.25 12.8284 4.92157 13.5 5.75 13.5C6.57843 13.5 7.25 12.8284 7.25 12C7.25 11.1716 6.57843 10.5 5.75 10.5Z" fill="currentColor" />
    <path opacity="0.4" d="M21.1983 14.5C21.4347 14.5 21.5536 14.4995 21.6348 14.5625C21.6546 14.5779 21.6721 14.5963 21.6875 14.6162C21.7504 14.6973 21.75 14.8155 21.75 15.0518C21.75 15.9502 21.7509 16.7001 21.6709 17.2949C21.5865 17.9224 21.4005 18.489 20.9453 18.9443C20.4899 19.3998 19.9227 19.5855 19.2949 19.6699C18.7002 19.7499 17.9511 19.75 17.0527 19.75H11.417C10.0956 19.75 9.02519 19.7498 8.18263 19.6328C7.30422 19.5108 6.56331 19.2486 5.97657 18.6426C5.65499 18.3104 5.4319 17.9276 5.27736 17.4932C5.24586 17.4046 5.23007 17.36 5.22755 17.3174C5.21951 17.1787 5.30993 17.0505 5.44337 17.0117C5.48438 16.9998 5.54681 17 5.67091 17C7.39886 16.9999 8.91963 16.1236 9.81739 14.793C9.91765 14.6444 9.96823 14.5703 10.0342 14.5352C10.1002 14.5001 10.183 14.5 10.3477 14.5H21.1983ZM17.0527 4.25C17.9511 4.24997 18.7002 4.25012 19.2949 4.33008C19.9227 4.41448 20.4899 4.60019 20.9453 5.05566C21.4005 5.511 21.5865 6.07755 21.6709 6.70508C21.7509 7.29987 21.75 8.04974 21.75 8.94824C21.75 9.18454 21.7504 9.30266 21.6875 9.38379C21.6721 9.40368 21.6547 9.42207 21.6348 9.4375C21.5536 9.50042 21.4347 9.5 21.1983 9.5H10.3477C10.183 9.5 10.1002 9.49995 10.0342 9.46484C9.96823 9.42972 9.91766 9.35564 9.81739 9.20703C8.91964 7.87645 7.39886 7.0001 5.67091 7C5.54678 7 5.48437 7.00019 5.44337 6.98828C5.30991 6.94951 5.21949 6.82133 5.22755 6.68262C5.23007 6.64002 5.24585 6.5954 5.27736 6.50684C5.4319 6.07237 5.65498 5.68959 5.97657 5.35742C6.56331 4.75139 7.30422 4.48923 8.18263 4.36719C9.02519 4.25018 10.0956 4.24998 11.417 4.25H17.0527Z" fill="currentColor" />
</svg>