<svg xmlns="http://www.w3.org/2000/svg" width="24" height="24" viewBox="0 0 24 24" fill="none">
    <path d="M7 14.7501C7.41421 14.7501 7.75 15.0859 7.75 15.5001C7.75 15.9143 7.41421 16.2501 7 16.2501H6C5.58579 16.2501 5.25 15.9143 5.25 15.5001C5.25 15.0859 5.58579 14.7501 6 14.7501H7Z" fill="currentColor" />
    <path d="M18 14.7501C18.4142 14.7501 18.75 15.0859 18.75 15.5001C18.75 15.9143 18.4142 16.2501 18 16.2501H17C16.5858 16.2501 16.25 15.9143 16.25 15.5001C16.25 15.0859 16.5858 14.7501 17 14.7501H18Z" fill="currentColor" />
    <path fill-rule="evenodd" clip-rule="evenodd" d="M19.7834 11.7501C19.7015 11.5816 19.6031 11.3841 19.4844 11.1466L18.4346 9.047C18.1588 8.49547 17.9769 8.13239 17.8076 7.86633C17.6476 7.61491 17.5324 7.50558 17.4209 7.43665C17.3094 7.36778 17.1605 7.31395 16.8642 7.28333C16.5506 7.25091 16.1448 7.25012 15.5283 7.25012H15H8.99999H8.47167C7.85517 7.25012 7.44936 7.25091 7.13573 7.28333C6.8395 7.31395 6.6906 7.36778 6.57909 7.43665C6.46756 7.50558 6.35235 7.61491 6.19237 7.86633C6.02311 8.13239 5.84118 8.49547 5.56542 9.047L4.51562 11.1466C4.39685 11.3841 4.29849 11.5816 4.21658 11.7501H19.7834Z" fill="currentColor" />
    <path opacity="0.4" d="M17.0186 5.79114C16.662 5.75428 16.2386 5.75052 15.7469 5.75016C15.7416 5.37659 15.7273 5.04268 15.6885 4.75403C15.6224 4.26248 15.473 3.79149 15.0908 3.40931C14.7086 3.02712 14.2377 2.87776 13.7461 2.81165C13.2879 2.75005 12.7156 2.75008 12.0518 2.75012L12 2.75013L11.9482 2.75012C11.2844 2.75008 10.7121 2.75005 10.2539 2.81165C9.76236 2.87776 9.29138 3.02712 8.90919 3.40931C8.527 3.79149 8.37765 4.26248 8.31153 4.75403C8.27273 5.04268 8.25838 5.37659 8.25309 5.75016C7.76147 5.75052 7.33805 5.75428 6.98146 5.79114C6.55564 5.83517 6.16182 5.93149 5.79005 6.16126C5.41849 6.391 5.15649 6.69964 4.92677 7.06067C4.7142 7.39475 4.50155 7.82016 4.2517 8.31998L4.22364 8.3761L3.17384 10.4757L3.13163 10.5601C2.94997 10.9232 2.7989 11.2252 2.67677 11.5001L1.33497 10.8292C0.964561 10.6443 0.514288 10.7948 0.329111 11.1652C0.14417 11.5356 0.294695 11.9858 0.665049 12.171L2.28092 12.979C2.24983 13.3476 2.2499 13.7639 2.25 14.2982L2.25001 14.3888V18.5001L2.25 18.5534C2.24993 18.9829 2.24986 19.3767 2.29298 19.6974C2.34077 20.0529 2.45369 20.4284 2.76271 20.7374C3.07172 21.0464 3.44727 21.1594 3.80274 21.2072C4.12341 21.2503 4.51716 21.2502 4.94662 21.2501L5.00001 21.2501H5.02733C5.24512 21.2501 5.42608 21.2501 5.57032 21.2452C5.71595 21.2403 5.87519 21.2296 6.02833 21.1915C6.37996 21.1041 6.58742 20.8911 6.70495 20.7704C6.71661 20.7584 6.72738 20.7474 6.73731 20.7374C7.03553 20.4392 7.15111 20.079 7.20178 19.7347L16.7951 19.7126C16.844 20.0636 16.9581 20.4328 17.2627 20.7374L17.2773 20.7522L17.2951 20.7704C17.4126 20.8911 17.6201 21.1041 17.9717 21.1915C18.1248 21.2296 18.2841 21.2403 18.4297 21.2452C18.5739 21.2501 18.7547 21.2501 18.9725 21.2501H19L19.0533 21.2501C19.4828 21.2502 19.8766 21.2503 20.1973 21.2072C20.5528 21.1594 20.9283 21.0464 21.2373 20.7374C21.5463 20.4284 21.6592 20.0529 21.707 19.6974C21.7502 19.3767 21.7501 18.983 21.75 18.5535L21.75 18.5001V14.3888L21.75 14.2982C21.7501 13.7639 21.7502 13.3476 21.7191 12.979L23.335 12.171C23.7053 11.9858 23.8559 11.5356 23.6709 11.1652C23.4857 10.7948 23.0355 10.6443 22.665 10.8292L21.3232 11.5001C21.2122 11.2503 21.0773 10.978 20.9172 10.6578L20.8686 10.5604L20.8262 10.4757L19.7764 8.3761L19.7483 8.32C19.4985 7.82017 19.2858 7.39475 19.0733 7.06067C18.8435 6.69964 18.5815 6.391 18.21 6.16126C17.8382 5.93149 17.4444 5.83517 17.0186 5.79114ZM19.4844 11.1466C19.6032 11.3842 19.7015 11.5816 19.7834 11.7501H4.2166C4.29851 11.5816 4.39686 11.3842 4.51564 11.1466L5.56544 9.047C5.8412 8.49548 6.02313 8.1324 6.19239 7.86634C6.35237 7.61492 6.46758 7.50558 6.57911 7.43665C6.69062 7.36778 6.83952 7.31396 7.13575 7.28333C7.44937 7.25091 7.85519 7.25013 8.47169 7.25013H9.00001H15H15.5283C16.1448 7.25013 16.5506 7.25091 16.8643 7.28333C17.1605 7.31396 17.3094 7.36778 17.4209 7.43665C17.5324 7.50558 17.6477 7.61492 17.8076 7.86634C17.9769 8.1324 18.1588 8.49548 18.4346 9.047L19.4844 11.1466Z" fill="currentColor" />
</svg>