<svg xmlns="http://www.w3.org/2000/svg" width="24" height="24" viewBox="0 0 24 24" fill="none">
    <path opacity="0.4" d="M21.5 9C22.0523 9 22.5 9.44772 22.5 10V17C22.5 17.5523 22.0523 18 21.5 18C21.0246 18 20.627 17.6682 20.5254 17.2236C19.8052 17.713 18.9363 18 18 18C15.5147 18 13.5 15.9853 13.5 13.5C13.5 11.0147 15.5147 9 18 9C18.9363 9 19.8052 9.28699 20.5254 9.77637C20.627 9.33178 21.0246 9 21.5 9ZM15.5 13.5C15.5 14.8807 16.6193 16 18 16C19.3807 16 20.5 14.8807 20.5 13.5C20.5 12.1193 19.3807 11 18 11C16.6193 11 15.5 12.1193 15.5 13.5Z" fill="currentColor" />
    <path d="M7.00002 6C7.95456 6 8.48043 6.75075 8.77834 7.29395C9.10308 7.88613 9.42627 8.74142 9.80763 9.74316L12.4346 16.6445C12.6309 17.1606 12.3715 17.7381 11.8555 17.9346C11.3394 18.1309 10.7619 17.8715 10.5654 17.3555L9.66896 15H4.33107L3.43459 17.3555C3.23813 17.8715 2.66062 18.1309 2.14455 17.9346C1.6285 17.7381 1.36915 17.1606 1.56545 16.6445L4.1924 9.74316C4.57376 8.74142 4.89696 7.88613 5.2217 7.29395C5.5196 6.75075 6.04548 6 7.00002 6ZM6.9756 8.25586C6.73396 8.69654 6.46647 9.39047 6.06154 10.4541L5.09279 13H8.90724L7.93849 10.4541C7.53357 9.39047 7.26608 8.69654 7.02443 8.25586C7.01636 8.24115 7.00763 8.2273 7.00002 8.21387C6.9924 8.2273 6.98367 8.24114 6.9756 8.25586Z" fill="currentColor" />
</svg>