<svg xmlns="http://www.w3.org/2000/svg" width="24" height="24" viewBox="0 0 24 24" fill="none">
    <path d="M7.25 20.75C7.25 18.5409 5.45914 16.75 3.25 16.75C2.69772 16.75 2.25 16.3023 2.25 15.75C2.25 15.1977 2.69772 14.75 3.25 14.75C6.56371 14.75 9.25 17.4363 9.25 20.75C9.25 21.3023 8.80228 21.75 8.25 21.75C7.69772 21.75 7.25 21.3023 7.25 20.75Z" fill="currentColor" />
    <path d="M11.25 20.75C11.25 16.3317 7.66828 12.75 3.25 12.75C2.69772 12.75 2.25 12.3023 2.25 11.75C2.25 11.1977 2.69772 10.75 3.25 10.75C8.77285 10.75 13.25 15.2272 13.25 20.75C13.25 21.3023 12.8023 21.75 12.25 21.75C11.6977 21.75 11.25 21.3023 11.25 20.75Z" fill="currentColor" />
    <path d="M4.75 20.5C4.75 21.1904 4.19036 21.75 3.5 21.75C2.80964 21.75 2.25 21.1904 2.25 20.5C2.25 19.8096 2.80964 19.25 3.5 19.25C4.19036 19.25 4.75 19.8096 4.75 20.5Z" fill="currentColor" />
    <path opacity="0.4" fill-rule="evenodd" clip-rule="evenodd" d="M17 21.75C19.6234 21.75 21.75 19.6234 21.75 17V7C21.75 4.37665 19.6234 2.25 17 2.25H7C4.37665 2.25 2.25 4.37665 2.25 7V9.73388C2.55124 9.58418 2.89079 9.5 3.25 9.5C9.4632 9.5 14.5 14.5368 14.5 20.75C14.5 21.1092 14.4158 21.4488 14.2661 21.75H17Z" fill="currentColor" />
</svg>