<svg xmlns="http://www.w3.org/2000/svg" width="24" height="24" viewBox="0 0 24 24" fill="none">
    <path d="M7 11.5068V11.0068C7 10.4546 7.44772 10.0068 8 10.0068C8.55228 10.0068 9 10.4546 9 11.0068V11.5068C9 12.0591 8.55228 12.5068 8 12.5068C7.44772 12.5068 7 12.0591 7 11.5068Z" fill="currentColor" />
    <path d="M15 11.5068V11.0068C15 10.4546 15.4477 10.0068 16 10.0068C16.5523 10.0068 17 10.4546 17 11.0068V11.5068C17 12.0591 16.5523 12.5068 16 12.5068C15.4477 12.5068 15 12.0591 15 11.5068Z" fill="currentColor" />
    <path d="M13.0003 14.2539C13.3037 14.2539 13.5776 14.4365 13.6937 14.7168C13.8097 14.997 13.7451 15.3197 13.5306 15.5342L12.5306 16.5342C12.2377 16.8271 11.7629 16.8271 11.47 16.5342L10.47 15.5342C10.2556 15.3197 10.1909 14.997 10.307 14.7168C10.423 14.4365 10.697 14.2539 11.0003 14.2539H13.0003Z" fill="currentColor" />
    <g opacity="0.4">
        <path fill-rule="evenodd" clip-rule="evenodd" d="M10.2183 4.39793C10.1923 4.4021 10.1667 4.4062 10.1416 4.41021C9.76486 4.47048 9.49178 4.51371 9.28906 4.53849C9.17782 4.55208 9.10194 4.55834 9.05273 4.55997C9.0292 4.54789 8.98278 4.52303 8.90625 4.47501C8.75736 4.38159 8.55859 4.24452 8.26562 4.04142C8.13803 3.95296 8.00416 3.86064 7.86621 3.76603C7.846 3.75216 7.82585 3.73834 7.80579 3.72458C7.04708 3.20411 6.39243 2.75503 5.82422 2.50235C5.19612 2.22311 4.5356 2.12204 3.85938 2.47989C3.20677 2.82526 2.9047 3.37968 2.77539 4.03067C2.66226 4.60054 2.6657 5.3282 2.66958 6.14875C2.66969 6.17312 2.66981 6.19756 2.66992 6.22208C2.67342 6.97969 2.73991 7.77269 2.91992 8.5131C2.99277 8.81275 3.04224 9.0179 3.07324 9.16837C3.09009 9.25019 3.09757 9.29736 3.10059 9.31974C3.0953 9.33868 3.08356 9.37856 3.05859 9.44767C3.01174 9.57732 2.94138 9.75223 2.83594 10.0121C2.45723 10.9456 2.25 11.954 2.25 13.0053C2.25006 17.9161 6.70119 21.7504 12 21.7504" fill="currentColor" />
        <path d="M21.75 13.0053C21.7499 17.9161 17.2988 21.7504 12 21.7504C6.70119 21.7504 2.25006 17.9161 2.25 13.0053C2.25 11.954 2.45723 10.9456 2.83594 10.0121C2.94138 9.75223 3.01174 9.57732 3.05859 9.44767C3.08356 9.37856 3.0953 9.33868 3.10059 9.31974C3.09757 9.29736 3.09009 9.25019 3.07324 9.16837C3.04224 9.0179 2.99277 8.81275 2.91992 8.5131C2.73991 7.77269 2.67342 6.97969 2.66992 6.22208L2.66958 6.14875C2.6657 5.3282 2.66226 4.60054 2.77539 4.03067C2.9047 3.37968 3.20677 2.82526 3.85938 2.47989C4.5356 2.12204 5.19612 2.22311 5.82422 2.50235C6.39243 2.75503 7.04708 3.20411 7.80579 3.72458L7.86621 3.76603C8.00416 3.86064 8.13803 3.95296 8.26562 4.04142C8.55859 4.24452 8.75736 4.38159 8.90625 4.47501C8.98278 4.52303 9.0292 4.54789 9.05273 4.55997C9.10194 4.55834 9.17782 4.55208 9.28906 4.53849C9.50527 4.51207 9.80164 4.46463 10.2183 4.39793L10.2676 4.39005C10.7417 4.31418 11.3193 4.26017 12 4.26017C12.6807 4.26017 13.2583 4.31418 13.7324 4.39005L13.7817 4.39794C14.1984 4.46464 14.4947 4.51206 14.7109 4.53849C14.8222 4.55208 14.8971 4.55834 14.9463 4.55997C14.9698 4.54789 15.0172 4.52303 15.0938 4.47501C15.2426 4.38159 15.4414 4.24452 15.7344 4.04142C15.862 3.95296 15.9958 3.86064 16.1338 3.76603L16.1942 3.72459C16.9529 3.20412 17.6076 2.75503 18.1758 2.50235C18.8039 2.22311 19.4644 2.12204 20.1406 2.47989C20.7932 2.82526 21.0953 3.37968 21.2246 4.03067C21.3377 4.60055 21.3343 5.32821 21.3304 6.14877L21.3301 6.22208C21.3266 6.97969 21.2601 7.77269 21.0801 8.5131C21.0072 8.81275 20.9578 9.0179 20.9268 9.16837C20.9099 9.25019 20.9024 9.29736 20.8994 9.31974C20.9047 9.33868 20.9164 9.37856 20.9414 9.44767C20.9883 9.57732 21.0586 9.75223 21.1641 10.0121C21.5428 10.9456 21.75 11.954 21.75 13.0053Z" fill="currentColor" />
    </g>
</svg>