<svg xmlns="http://www.w3.org/2000/svg" width="24" height="24" viewBox="0 0 24 24" fill="none">
    <path d="M1.29297 1.29289C1.68349 0.902368 2.31651 0.902368 2.70703 1.29289L22.707 21.2929C23.0976 21.6834 23.0976 22.3164 22.707 22.7069C22.3165 23.0975 21.6835 23.0975 21.293 22.7069L13 14.414V20.0019C12.9999 20.5541 12.5522 21.0019 12 21.0019C11.4478 21.0019 11.0001 20.5541 11 20.0019V12.414L7.04102 8.455C7.01464 8.63397 7 8.81567 7 8.99992C7 9.86306 7.29708 10.6825 7.83789 11.3954C8.1717 11.8354 8.0855 12.463 7.64551 12.7968C7.20552 13.1305 6.57791 13.0443 6.24414 12.6044C5.46554 11.5781 5 10.3407 5 8.99992C5 8.24126 5.15005 7.51328 5.42285 6.83683L3.9707 5.38469C3.34763 6.47448 3 7.70267 3 8.99992C3 10.6204 3.5419 12.1335 4.48633 13.4032C4.81591 13.8463 4.72434 14.473 4.28125 14.8026C3.83811 15.1323 3.21145 15.0397 2.88184 14.5966C1.69882 13.0061 1 11.0797 1 8.99992C1 7.14462 1.55582 5.4112 2.51562 3.92961L1.29297 2.70695C0.902444 2.31643 0.902444 1.68341 1.29297 1.29289Z" fill="currentColor" />
    <path opacity="0.4" d="M19.7202 3.19802C20.1633 2.8685 20.789 2.9601 21.1186 3.4031C22.3016 4.99353 23.0004 6.92001 23.0004 8.99978C23.0004 11.0795 22.3016 13.006 21.1186 14.5964C20.7891 15.0394 20.1633 15.1317 19.7202 14.8025C19.277 14.4729 19.1845 13.8462 19.5141 13.4031C20.4585 12.1334 21.0004 10.6202 21.0004 8.99978C21.0004 7.37934 20.4585 5.86612 19.5141 4.59646C19.1847 4.15333 19.2771 3.52759 19.7202 3.19802ZM16.3549 5.2029C16.7949 4.8692 17.4225 4.95537 17.7563 5.39529C18.5349 6.42161 19.0004 7.659 19.0004 8.99978C19.0004 10.3405 18.5349 11.5779 17.7563 12.6042C17.4225 13.0442 16.7949 13.1304 16.3549 12.7966C15.915 12.4628 15.8288 11.8352 16.1626 11.3952C16.7034 10.6824 17.0004 9.86292 17.0004 8.99978C17.0004 8.13667 16.7034 7.3171 16.1626 6.60427C15.8289 6.16429 15.915 5.53668 16.3549 5.2029ZM12.0004 6.24978C13.5192 6.24978 14.7504 7.48103 14.7504 8.99978C14.7504 9.34429 14.6874 9.67439 14.5717 9.97829C14.4945 10.1811 14.4554 10.2826 14.3491 10.3054C14.2428 10.328 14.1579 10.2431 13.9887 10.074L10.9262 7.0115C10.757 6.84231 10.6721 6.75745 10.6948 6.65115C10.7175 6.54478 10.8199 6.50576 11.0229 6.42849C11.3266 6.31294 11.6562 6.2498 12.0004 6.24978Z" fill="currentColor" />
</svg>