<svg xmlns="http://www.w3.org/2000/svg" width="24" height="24" viewBox="0 0 24 24" fill="none">
    <path d="M12 6.25C13.5188 6.25 14.75 7.48122 14.75 9C14.75 10.166 14.0243 11.1625 13 11.5625V20C13 20.5523 12.5523 21 12 21C11.4477 21 11 20.5523 11 20V11.5625C9.97567 11.1625 9.25 10.166 9.25 9C9.25 7.48122 10.4812 6.25 12 6.25Z" fill="currentColor" />
    <path opacity="0.4" d="M2.88184 3.40356C3.21145 2.96043 3.83811 2.86789 4.28125 3.19751C4.72435 3.52711 4.81588 4.15379 4.48633 4.59692C3.54191 5.8666 3.00001 7.37977 3 9.00024C3 10.6207 3.5419 12.1338 4.48633 13.4035C4.81593 13.8466 4.72432 14.4733 4.28125 14.8029C3.83811 15.1326 3.21145 15.04 2.88184 14.5969C1.69884 13.0064 1 11.08 1 9.00024C1.00001 6.92044 1.69882 4.99401 2.88184 3.40356ZM19.7188 3.19751C20.1619 2.86789 20.7885 2.96043 21.1182 3.40356C22.3012 4.99401 23 6.92044 23 9.00024C23 11.08 22.3012 13.0064 21.1182 14.5969C20.7885 15.04 20.1619 15.1326 19.7188 14.8029C19.2757 14.4733 19.1841 13.8466 19.5137 13.4035C20.4581 12.1338 21 10.6207 21 9.00024C21 7.37977 20.4581 5.8666 19.5137 4.59692C19.1841 4.15379 19.2757 3.52711 19.7188 3.19751ZM6.24414 5.39575C6.5779 4.95581 7.20553 4.86971 7.64551 5.20336C8.0855 5.53717 8.17169 6.16474 7.83789 6.60473C7.29707 7.31759 7.00001 8.1371 7 9.00024C7 9.86337 7.29709 10.6829 7.83789 11.3957C8.1717 11.8357 8.0855 12.4633 7.64551 12.7971C7.20552 13.1308 6.57792 13.0446 6.24414 12.6047C5.46555 11.5784 5 10.341 5 9.00024C5.00001 7.65947 5.46553 6.42207 6.24414 5.39575ZM16.3545 5.20336C16.7945 4.86971 17.4221 4.95581 17.7559 5.39575C18.5345 6.42207 19 7.65947 19 9.00024C19 10.341 18.5344 11.5784 17.7559 12.6047C17.4221 13.0446 16.7945 13.1308 16.3545 12.7971C15.9145 12.4633 15.8283 11.8357 16.1621 11.3957C16.7029 10.6829 17 9.86337 17 9.00024C17 8.13711 16.7029 7.31759 16.1621 6.60473C15.8283 6.16474 15.9145 5.53717 16.3545 5.20336Z" fill="currentColor" />
</svg>