<svg xmlns="http://www.w3.org/2000/svg" width="24" height="24" viewBox="0 0 24 24" fill="none">
    <path opacity="0.4" d="M7.73828 20.0986C7.74994 19.9277 7.75 19.7227 7.75 19.5V4.5C7.75 4.27729 7.74994 4.07227 7.73828 3.90137C7.72614 3.72385 7.69934 3.52841 7.61719 3.33008C7.43957 2.90132 7.09868 2.56043 6.66992 2.38281C6.47159 2.30066 6.27615 2.27386 6.09863 2.26172C5.92773 2.25006 5.72271 2.25 5.5 2.25C5.27729 2.25 5.07227 2.25006 4.90137 2.26172C4.72384 2.27386 4.52841 2.30066 4.33008 2.38281C3.90132 2.56043 3.56043 2.90132 3.38281 3.33008C3.30066 3.52841 3.27386 3.72384 3.26172 3.90137C3.25006 4.07227 3.25 4.27729 3.25 4.5V19.5C3.25 19.7227 3.25006 19.9277 3.26172 20.0986C3.27386 20.2762 3.30066 20.4716 3.38281 20.6699C3.56043 21.0987 3.90132 21.4396 4.33008 21.6172C4.52841 21.6993 4.72385 21.7261 4.90137 21.7383C5.07227 21.7499 5.27729 21.75 5.5 21.75C5.72271 21.75 5.92773 21.7499 6.09863 21.7383C6.27615 21.7261 6.47159 21.6993 6.66992 21.6172C7.09868 21.4396 7.43957 21.0987 7.61719 20.6699C7.69934 20.4716 7.72614 20.2762 7.73828 20.0986Z" fill="currentColor" />
    <path d="M14.2383 20.0986C14.2499 19.9277 14.25 19.7227 14.25 19.5V10.5C14.25 10.2773 14.2499 10.0723 14.2383 9.90137C14.2261 9.72385 14.1993 9.52841 14.1172 9.33008C13.9396 8.90132 13.5987 8.56043 13.1699 8.38281C12.9716 8.30066 12.7762 8.27386 12.5986 8.26172C12.4277 8.25006 12.2227 8.25 12 8.25C11.7773 8.25 11.5723 8.25006 11.4014 8.26172C11.2238 8.27386 11.0284 8.30066 10.8301 8.38281C10.4013 8.56043 10.0604 8.90132 9.88281 9.33008C9.80066 9.52841 9.77386 9.72385 9.76172 9.90137C9.75006 10.0723 9.75 10.2773 9.75 10.5V19.5C9.75 19.7227 9.75006 19.9277 9.76172 20.0986C9.77386 20.2762 9.80066 20.4716 9.88281 20.6699C10.0604 21.0987 10.4013 21.4396 10.8301 21.6172C11.0284 21.6993 11.2238 21.7261 11.4014 21.7383C11.5723 21.7499 11.7773 21.75 12 21.75C12.2227 21.75 12.4277 21.7499 12.5986 21.7383C12.7762 21.7261 12.9716 21.6993 13.1699 21.6172C13.5987 21.4396 13.9396 21.0987 14.1172 20.6699C14.1993 20.4716 14.2261 20.2762 14.2383 20.0986Z" fill="currentColor" />
    <path opacity="0.4" d="M20.7383 20.0986C20.7499 19.9277 20.75 19.7227 20.75 19.5V16.5C20.75 16.2773 20.7499 16.0723 20.7383 15.9014C20.7261 15.7238 20.6993 15.5284 20.6172 15.3301C20.4396 14.9013 20.0987 14.5604 19.6699 14.3828C19.4716 14.3007 19.2762 14.2739 19.0986 14.2617C18.9277 14.2501 18.7227 14.25 18.5 14.25C18.2773 14.25 18.0723 14.2501 17.9014 14.2617C17.7238 14.2739 17.5284 14.3007 17.3301 14.3828C16.9013 14.5604 16.5604 14.9013 16.3828 15.3301C16.3007 15.5284 16.2739 15.7238 16.2617 15.9014C16.2501 16.0723 16.25 16.2773 16.25 16.5V19.5C16.25 19.7227 16.2501 19.9277 16.2617 20.0986C16.2739 20.2762 16.3007 20.4716 16.3828 20.6699C16.5604 21.0987 16.9013 21.4396 17.3301 21.6172C17.5284 21.6993 17.7238 21.7261 17.9014 21.7383C18.0723 21.7499 18.2773 21.75 18.5 21.75C18.7227 21.75 18.9277 21.7499 19.0986 21.7383C19.2762 21.7261 19.4716 21.6993 19.6699 21.6172C20.0987 21.4396 20.4396 21.0987 20.6172 20.6699C20.6993 20.4716 20.7261 20.2762 20.7383 20.0986Z" fill="currentColor" />
</svg>