<svg xmlns="http://www.w3.org/2000/svg" width="24" height="24" viewBox="0 0 24 24" fill="none">
    <path fill-rule="evenodd" clip-rule="evenodd" d="M9.87311 11.6082L11.5922 13.6707C11.9231 13.0724 12.4704 12.6104 13.1286 12.3906L11.4094 10.3271C11.0787 10.9258 10.5314 11.3881 9.87311 11.6082ZM18.4917 9.70256C17.8002 9.57322 17.1999 9.18511 16.795 8.64258L14.5109 12.2968C15.2023 12.4266 15.8024 12.8151 16.2069 13.3579L18.4917 9.70256Z" fill="currentColor" />
    <path d="M2.00006 14V3C2.00006 2.44772 2.44778 2 3.00006 2C3.55235 2 4.00006 2.44772 4.00006 3V14C4.00006 15.6781 4.00213 16.8361 4.1192 17.707C4.23244 18.5492 4.43669 18.9718 4.73249 19.2676C5.02828 19.5634 5.45082 19.7676 6.29303 19.8809C7.16399 19.9979 8.32199 20 10.0001 20H21.0001C21.5523 20 22.0001 20.4477 22.0001 21C22.0001 21.5523 21.5523 22 21.0001 22H10.0001C8.37848 22 7.06163 22.0024 6.02643 21.8633C4.96244 21.7202 4.04776 21.411 3.31842 20.6816C2.58909 19.9523 2.27983 19.0376 2.13678 17.9736C1.99762 16.9384 2.00006 15.6216 2.00006 14Z" fill="currentColor" />
    <path opacity="0.4" d="M19.0001 9.75C20.5188 9.75 21.7501 8.51878 21.7501 7C21.7501 5.48122 20.5188 4.25 19.0001 4.25C17.4813 4.25 16.2501 5.48122 16.2501 7C16.2501 7.61597 16.4526 8.18464 16.7947 8.64305C17.1995 9.18559 17.7998 9.5737 18.4913 9.70303C18.6562 9.73387 18.8262 9.75 19.0001 9.75Z" fill="currentColor" />
    <path opacity="0.4" d="M14.0001 17.75C15.5188 17.75 16.7501 16.5188 16.7501 15C16.7501 14.3847 16.548 13.8165 16.2065 13.3584C15.802 12.8156 15.2019 12.4271 14.5106 12.2973C14.3451 12.2662 14.1745 12.25 14.0001 12.25C13.6953 12.25 13.4022 12.2996 13.1283 12.3911C12.4701 12.6109 11.9227 13.0728 11.5918 13.6712C11.374 14.0651 11.2501 14.518 11.2501 15C11.2501 16.5188 12.4813 17.75 14.0001 17.75Z" fill="currentColor" />
    <path opacity="0.4" d="M11.409 10.3275C11.6264 9.93395 11.7501 9.48142 11.7501 9C11.7501 7.48122 10.5188 6.25 9.00006 6.25C7.48128 6.25 6.25006 7.48122 6.25006 9C6.25006 10.5188 7.48128 11.75 9.00006 11.75C9.3051 11.75 9.59854 11.7003 9.87274 11.6086C10.531 11.3885 11.0784 10.9262 11.409 10.3275Z" fill="currentColor" />
</svg>