<svg xmlns="http://www.w3.org/2000/svg" width="24" height="24" viewBox="0 0 24 24" fill="none">
    <path opacity="0.4" d="M13.0005 11C13.0005 9.48687 13.3314 8.05986 13.9419 6.97461C14.5427 5.90691 15.5299 5.00012 16.858 5C18.0403 5 19.009 5.58549 19.6968 6.43945C20.3724 7.27822 20.8003 8.39337 20.9888 9.59473C21.0744 10.1403 20.7013 10.6526 20.1558 10.7383C19.6103 10.8239 19.098 10.4508 19.0122 9.90527C18.8624 8.95046 18.5396 8.19048 18.1392 7.69336C17.7511 7.21164 17.3179 7 16.858 7C16.5439 7.00012 16.1024 7.21337 15.6851 7.95508C15.2775 8.67947 15.0005 9.7521 15.0005 11C15.0005 12.4815 14.7353 13.9092 14.1509 15.0059C13.5562 16.1217 12.5554 16.9999 11.1431 17C9.9611 17 8.9921 16.4155 8.30424 15.5615C7.62877 14.7229 7.20133 13.6072 7.01225 12.4053C6.92654 11.8598 7.29974 11.3475 7.84526 11.2617C8.39076 11.176 8.903 11.5492 8.98881 12.0947C9.13921 13.0506 9.46179 13.8098 9.86186 14.3066C10.2497 14.7881 10.6828 15 11.1431 15C11.5882 14.9999 12.0166 14.759 12.3863 14.0654C12.7663 13.3524 13.0005 12.2798 13.0005 11Z" fill="currentColor" />
    <path d="M2 14V3C2 2.44772 2.44772 2 3 2C3.55229 2 4 2.44772 4 3V14C4 15.6781 4.00207 16.8361 4.11914 17.707C4.23238 18.5492 4.43663 18.9718 4.73242 19.2676C5.02822 19.5634 5.45076 19.7676 6.29297 19.8809C7.16393 19.9979 8.32193 20 10 20H21C21.5523 20 22 20.4477 22 21C22 21.5523 21.5523 22 21 22H10C8.37841 22 7.06157 22.0024 6.02637 21.8633C4.96238 21.7202 4.04769 21.411 3.31836 20.6816C2.58903 19.9523 2.27977 19.0376 2.13672 17.9736C1.99755 16.9384 2 15.6216 2 14Z" fill="currentColor" />
</svg>