<svg xmlns="http://www.w3.org/2000/svg" width="24" height="24" viewBox="0 0 24 24" fill="none">
    <path d="M12.0213 12.25C12.2355 12.25 12.4331 12.2504 12.5984 12.2617C12.776 12.2739 12.9714 12.3007 13.1697 12.3828C13.5985 12.5604 13.9394 12.9013 14.117 13.3301C14.1991 13.5284 14.2259 13.7238 14.2381 13.9014C14.2494 14.0667 14.2498 14.2642 14.2498 14.4785V20.0215C14.2498 20.2358 14.2494 20.4333 14.2381 20.5986C14.2259 20.7762 14.1991 20.9716 14.117 21.1699C13.9394 21.5987 13.5985 21.9396 13.1697 22.1172C12.9714 22.1993 12.776 22.2261 12.5984 22.2383C12.4331 22.2496 12.2356 22.25 12.0213 22.25H11.9783C11.764 22.25 11.5665 22.2496 11.4012 22.2383C11.2236 22.2261 11.0282 22.1993 10.8299 22.1172C10.4011 21.9396 10.0602 21.5987 9.88265 21.1699C9.8005 20.9716 9.7737 20.7762 9.76156 20.5986C9.75028 20.4333 9.74983 20.2357 9.74984 20.0215V14.4785C9.74983 14.2643 9.75028 14.0667 9.76156 13.9014C9.7737 13.7238 9.8005 13.5284 9.88265 13.3301C10.0602 12.9013 10.4011 12.5604 10.8299 12.3828C11.0282 12.3007 11.2236 12.2739 11.4012 12.2617C11.5665 12.2504 11.7641 12.25 11.9783 12.25H12.0213ZM19.4978 1.75C20.0501 1.75 20.4978 2.19772 20.4978 2.75V5.75C20.4978 6.30228 20.0501 6.75 19.4978 6.75C18.9457 6.74985 18.4978 6.30219 18.4978 5.75V5.1875C17.9492 5.69026 17.2148 6.30946 16.2752 6.99512C13.8823 8.74126 10.1654 10.9145 4.81429 12.6982C4.29042 12.8729 3.72437 12.5902 3.54964 12.0664C3.37506 11.5426 3.65788 10.9766 4.18148 10.8018C9.33032 9.08548 12.8643 7.00874 15.0965 5.37988C15.9502 4.75689 16.6141 4.19837 17.1062 3.75H16.4978C15.9457 3.74985 15.4978 3.30219 15.4978 2.75C15.4978 2.19781 15.9457 1.75015 16.4978 1.75H19.4978Z" fill="currentColor" />
    <path opacity="0.4" d="M5.02148 14.75C5.23575 14.75 5.43332 14.7504 5.59863 14.7617C5.77616 14.7739 5.97159 14.8007 6.16992 14.8828C6.59868 15.0604 6.93957 15.4013 7.11719 15.8301C7.19934 16.0284 7.22614 16.2238 7.23828 16.4014C7.24956 16.5667 7.25001 16.7642 7.25 16.9785V20.0215C7.25001 20.2358 7.24956 20.4333 7.23828 20.5986C7.22614 20.7762 7.19934 20.9716 7.11719 21.1699C6.93957 21.5987 6.59868 21.9396 6.16992 22.1172C5.97159 22.1993 5.77616 22.2261 5.59863 22.2383C5.43331 22.2496 5.23576 22.25 5.02148 22.25C4.80728 22.25 4.56662 22.2496 4.40137 22.2383C4.22385 22.2261 4.02841 22.1993 3.83008 22.1172C3.40132 21.9396 3.06042 21.5987 2.88281 21.1699C2.80066 20.9716 2.77386 20.7762 2.76172 20.5986C2.75044 20.4333 2.74999 20.2357 2.75 20.0215V16.9785C2.74999 16.7643 2.75044 16.5667 2.76172 16.4014C2.77386 16.2238 2.80066 16.0284 2.88281 15.8301C3.06043 15.4013 3.40132 15.0604 3.83008 14.8828C4.02841 14.8007 4.22385 14.7739 4.40137 14.7617C4.56661 14.7504 4.80729 14.75 5.02148 14.75ZM19.0215 8.75C19.2357 8.74999 19.4333 8.75044 19.5986 8.76172C19.7762 8.77386 19.9716 8.80066 20.1699 8.88281C20.5987 9.06043 20.9396 9.40132 21.1172 9.83008C21.1993 10.0284 21.2261 10.2238 21.2383 10.4014C21.2496 10.5667 21.25 10.7642 21.25 10.9785V20.0215C21.25 20.2358 21.2496 20.4333 21.2383 20.5986C21.2261 20.7762 21.1993 20.9716 21.1172 21.1699C20.9396 21.5987 20.5987 21.9396 20.1699 22.1172C19.9716 22.1993 19.7762 22.2261 19.5986 22.2383C19.4333 22.2496 19.2358 22.25 19.0215 22.25C18.8073 22.25 18.5666 22.2496 18.4014 22.2383C18.2238 22.2261 18.0284 22.1993 17.8301 22.1172C17.4013 21.9396 17.0604 21.5987 16.8828 21.1699C16.8007 20.9716 16.7739 20.7762 16.7617 20.5986C16.7504 20.4333 16.75 20.2357 16.75 20.0215V10.9785C16.75 10.7643 16.7504 10.5667 16.7617 10.4014C16.7739 10.2238 16.8007 10.0284 16.8828 9.83008C17.0604 9.40132 17.4013 9.06043 17.8301 8.88281C18.0284 8.80066 18.2238 8.77386 18.4014 8.76172C18.5666 8.75044 18.8073 8.74999 19.0215 8.75Z" fill="currentColor" />
</svg>