<svg xmlns="http://www.w3.org/2000/svg" width="24" height="24" viewBox="0 0 24 24" fill="none">
    <path opacity="0.4" d="M12 2.25C13.3461 2.25 14.6489 2.27668 15.8838 2.32422C15.7967 2.61762 15.75 2.92837 15.75 3.25C15.75 3.69353 15.8403 4.11541 16.001 4.5C14.7866 5.41152 14 6.86277 14 8.5C14 9.60457 14.8954 10.5 16 10.5H22C22.263 10.5 22.5131 10.4468 22.7432 10.3545C22.7453 10.5682 22.75 10.7834 22.75 11C22.75 11.7795 22.7359 12.5409 22.71 13.2764C22.6298 15.5495 22.6167 17.0869 21.4023 18.3105C20.7921 18.9254 20.0995 19.2383 19.2588 19.4082C18.4718 19.5672 17.5091 19.6083 16.3418 19.6582L16.2754 19.6611C15.5355 19.6928 14.7696 19.7165 13.9834 19.7314C13.1863 19.7466 12.9733 19.7607 12.7988 19.8271C12.6239 19.8938 12.4615 20.0198 11.873 20.5244L9.69336 22.3936C9.4251 22.6236 9.08286 22.75 8.72949 22.75C7.91249 22.7498 7.25022 22.0875 7.25 21.2705V19.6396C6.26419 19.5959 5.43456 19.5483 4.74121 19.4082C3.90049 19.2383 3.20788 18.9254 2.59766 18.3105C1.38331 17.0869 1.37023 15.5495 1.29004 13.2764C1.26409 12.5409 1.25 11.7795 1.25 11C1.25 10.2205 1.26409 9.45905 1.29004 8.72363C1.37023 6.45046 1.38331 4.91312 2.59766 3.68945C3.20788 3.07464 3.90049 2.76171 4.74121 2.5918C5.52815 2.43277 6.49097 2.39169 7.6582 2.3418L7.72461 2.33887C9.0745 2.28112 10.5108 2.25 12 2.25ZM22.0244 4.52148C22.0154 4.51462 22.0071 4.5068 21.998 4.5C22.0003 4.49459 22.0017 4.48882 22.0039 4.4834C22.011 4.49596 22.0174 4.50886 22.0244 4.52148Z" fill="currentColor" />
    <path d="M8.12012 9.75488C8.62433 9.80613 9.01758 10.2323 9.01758 10.75C9.01758 11.2677 8.62433 11.6939 8.12012 11.7451L8.01758 11.75H8.00879C7.45662 11.7499 7.00879 11.3022 7.00879 10.75C7.00879 10.1978 7.45662 9.75013 8.00879 9.75H8.01758L8.12012 9.75488ZM12.0137 9.75C12.5658 9.75021 13.0137 10.1978 13.0137 10.75C13.0137 11.3022 12.5658 11.7498 12.0137 11.75H12.0039C11.4519 11.7497 11.0039 11.3021 11.0039 10.75C11.0039 10.1979 11.4519 9.75034 12.0039 9.75H12.0137ZM19 1C20.1045 1 20.9998 1.8954 21 3C21 3.69603 20.6437 4.30788 20.1045 4.66602C21.6364 5.13755 22.75 6.56342 22.75 8.25C22.75 8.66421 22.4142 9 22 9H16C15.5858 9 15.25 8.66421 15.25 8.25C15.25 6.56375 16.3631 5.13783 17.8945 4.66602C17.3557 4.30782 17 3.69574 17 3C17.0002 1.8954 17.8955 1 19 1Z" fill="currentColor" />
</svg>