<svg xmlns="http://www.w3.org/2000/svg" width="24" height="24" viewBox="0 0 24 24" fill="none">
    <path d="M20.2498 20.6596L20.2499 20.724C20.2504 20.9673 20.2509 21.2213 20.1903 21.4484C20.0284 22.0543 19.5567 22.5276 18.953 22.69C18.7266 22.7509 18.4736 22.7504 18.2311 22.7499L18.1669 22.7498H6.83314L6.76886 22.7499C6.52641 22.7504 6.2734 22.7509 6.04702 22.69C5.44327 22.5276 4.9716 22.0543 4.80974 21.4484C4.74909 21.2213 4.7496 20.9673 4.75009 20.724L4.75018 20.6596L4.75017 20.6029C4.75015 20.4789 4.75013 20.3854 4.75115 20.3166C4.7522 20.2457 4.7544 20.1601 4.76678 20.0765C4.78256 19.9699 4.81152 19.8915 4.82369 19.8586C4.82852 19.8455 4.83569 19.8261 4.84392 19.7953C5.09824 18.8431 5.83938 18.0993 6.78822 17.8442C7.1405 17.7494 7.54584 17.7497 8.06999 17.75L8.16709 17.7501H16.8329L16.93 17.75C17.4542 17.7497 17.8595 17.7494 18.2118 17.8442C19.1606 18.0993 19.9018 18.8431 20.1561 19.7953C20.1643 19.8261 20.1688 19.8382 20.1736 19.8513C20.1858 19.8842 20.2174 19.9699 20.2332 20.0765C20.2456 20.1601 20.2478 20.2457 20.2488 20.3166C20.2499 20.3854 20.2499 20.479 20.2498 20.6029L20.2498 20.6596Z" fill="currentColor" />
    <path opacity="0.4" fill-rule="evenodd" clip-rule="evenodd" d="M19.75 8.87296C19.75 11.6061 19.1467 13.7579 18.4281 15.9146C18.3743 16.0761 18.3473 16.1569 18.2825 16.2035C18.2177 16.25 18.1318 16.25 17.96 16.25H8.16212C7.75546 16.25 7.55213 16.25 7.48225 16.1201C7.41236 15.9903 7.52513 15.822 7.75066 15.4854L9.1014 13.4697C10.5642 13.1706 11.899 12.5469 12.9019 11.7988C13.4439 11.3945 13.9068 10.94 14.2404 10.4607C14.57 9.98732 14.8054 9.44254 14.8054 8.87296C14.8054 8.46553 14.4733 8.13525 14.0637 8.13525C13.6541 8.13525 13.322 8.46553 13.322 8.87296C13.322 9.04106 13.2483 9.29552 13.0216 9.62123C12.7991 9.94099 12.4582 10.286 12.0114 10.6192C11.3965 11.0779 10.6137 11.4892 9.74076 11.7749C8.96329 11.3824 7.79278 11.0905 6.4379 11.5231C5.53724 11.971 4.44016 11.4987 4.16352 10.5357L3.84868 9.4416C3.52748 8.32344 4.00927 7.13057 5.01919 6.54458L9.3661 4.02313L9.36609 3.9025C9.36602 3.48005 9.36595 3.09272 9.40859 2.77729C9.45585 2.42766 9.56756 2.05825 9.87312 1.7543C10.1787 1.45038 10.5501 1.3393 10.9017 1.29228C11.2188 1.24987 11.6083 1.24993 12.0331 1.25001L12.0857 1.25001C16.3186 1.25001 19.75 4.66292 19.75 8.87296Z" fill="currentColor" />
</svg>