<svg xmlns="http://www.w3.org/2000/svg" width="24" height="24" viewBox="0 0 24 24" fill="none">
    <path d="M13 4.25C13 3.69772 12.5523 3.25 12 3.25C11.4477 3.25 11 3.69772 11 4.25C11 4.80228 11.4477 5.25 12 5.25C12.5523 5.25 13 4.80228 13 4.25ZM15 4.25C15 5.90685 13.6569 7.25 12 7.25C10.3431 7.25 9 5.90685 9 4.25C9 2.59315 10.3431 1.25 12 1.25C13.6569 1.25 15 2.59315 15 4.25Z" fill="currentColor" />
    <path opacity="0.4" d="M13.6094 4.75C13.8096 4.74972 14.0015 4.8296 14.1426 4.97168C15.2533 6.09188 16.3956 7.43832 17.2637 8.9082C18.1294 10.3741 18.75 12.0092 18.75 13.6924C18.75 14.6125 18.5157 15.4458 18.1338 16.1641C17.7742 16.058 17.3939 16 17 16H7C6.60575 16 6.22504 16.0578 5.86523 16.1641C5.48349 15.4459 5.25 14.6123 5.25 13.6924C5.25 12.0095 5.87065 10.3741 6.73633 8.9082C7.6044 7.43837 8.74674 6.09193 9.85742 4.97168L9.91699 4.91699C10.0636 4.79809 10.2511 4.73878 10.4414 4.75195C10.659 4.7671 10.8596 4.8761 10.9902 5.05078C11.1967 5.32687 11.3902 5.45465 11.5459 5.51465C11.7028 5.57505 11.8705 5.58524 12.0527 5.55176C12.4437 5.47984 12.8394 5.21389 13.0762 4.97363C13.2168 4.83089 13.409 4.75031 13.6094 4.75Z" fill="currentColor" />
    <path d="M16.3723 7.56641C16.6733 7.97831 16.9596 8.40301 17.2209 8.83984L14.5305 11.5312C14.2377 11.8238 13.7628 11.8238 13.4699 11.5312C13.1771 11.2384 13.1772 10.7636 13.4699 10.4707L16.3723 7.56641Z" fill="currentColor" />
    <path d="M19.6728 21.082C19.7559 20.7719 19.75 20.4166 19.75 20C19.75 18.4812 18.5188 17.25 17 17.25H6.99997C5.48119 17.25 4.24997 18.4812 4.24997 20C4.24997 20.4166 4.24406 20.7719 4.32712 21.082C4.53517 21.8585 5.14148 22.4648 5.91794 22.6729C6.22806 22.7559 6.58335 22.75 6.99997 22.75H17C17.4166 22.75 17.7719 22.7559 18.082 22.6729C18.8585 22.4648 19.4648 21.8585 19.6728 21.082Z" fill="currentColor" />
</svg>