<svg xmlns="http://www.w3.org/2000/svg" width="24" height="24" viewBox="0 0 24 24" fill="none">
    <path d="M10.4073 17.8055C10.852 18.1326 11.4774 18.0371 11.8048 17.5926C12.1323 17.1479 12.0376 16.5217 11.5929 16.1941C11.5908 16.1926 11.5855 16.1886 11.5811 16.1854C11.5724 16.1789 11.5586 16.1691 11.5411 16.1561C11.5061 16.13 11.4541 16.0909 11.3878 16.0408C11.2547 15.9403 11.0636 15.7942 10.8341 15.615C10.3737 15.2558 9.7628 14.7665 9.15536 14.2391C8.54289 13.7073 7.9561 13.1564 7.53036 12.6746C7.31672 12.4328 7.16466 12.2316 7.07138 12.077C7.05349 12.0473 7.04217 12.0205 7.03134 11.9998C7.04217 11.9791 7.05347 11.9524 7.07138 11.9227C7.16465 11.768 7.31671 11.5668 7.53036 11.325C7.95609 10.8432 8.54289 10.2923 9.15536 9.76055C9.7628 9.23315 10.3737 8.74383 10.8341 8.38457C11.0636 8.20544 11.2547 8.05935 11.3878 7.95879C11.4541 7.90871 11.5061 7.86965 11.5411 7.84356C11.5586 7.83052 11.5724 7.82071 11.5811 7.81426C11.5855 7.81104 11.5889 7.80795 11.5909 7.80645C12.0355 7.47903 12.1329 6.85171 11.8058 6.40704C11.4783 5.96246 10.852 5.86697 10.4073 6.19415C10.4066 6.19469 10.4085 6.19329 10.4073 6.19415C10.4046 6.19618 10.3958 6.2031 10.3907 6.20684C10.3805 6.2144 10.3659 6.22582 10.3468 6.24004C10.3085 6.26853 10.2529 6.31009 10.1827 6.36309C10.0424 6.46906 9.84264 6.62089 9.60361 6.80743C9.1265 7.17975 8.48725 7.69301 7.84482 8.25079C7.20733 8.80427 6.54407 9.42162 6.03232 10.0008C5.77745 10.2892 5.53863 10.5916 5.35849 10.8904C5.19491 11.1618 5.00009 11.5567 5.00009 11.9998C5.0001 12.443 5.19491 12.8378 5.35849 13.1092C5.53863 13.408 5.77745 13.7104 6.03232 13.9988C6.54406 14.578 7.20735 15.1953 7.84482 15.7488C8.48724 16.3066 9.12652 16.8199 9.60361 17.1922C9.84264 17.3787 10.0424 17.5306 10.1827 17.6365C10.2529 17.6895 10.3085 17.7311 10.3468 17.7596C10.3658 17.7738 10.3805 17.7852 10.3907 17.7928C10.3957 17.7965 10.4046 17.8034 10.4073 17.8055C10.4085 17.8063 10.4066 17.8049 10.4073 17.8055Z" fill="currentColor" />
    <path opacity="0.4" d="M17.4073 6.19557L17.3907 6.20827L17.3741 6.22079L17.3468 6.24147C17.3085 6.26996 17.2529 6.31152 17.1827 6.36452C17.0424 6.47048 16.8426 6.62232 16.6036 6.80886C16.1265 7.18118 15.4873 7.69444 14.8448 8.25221C14.2073 8.8057 13.5441 9.42304 13.0323 10.0022C12.7775 10.2907 12.5386 10.5931 12.3585 10.8919C12.1949 11.1632 12.0001 11.5581 12.0001 12.0012C12.0001 12.4444 12.1949 12.8393 12.3585 13.1106C12.5386 13.4094 12.7775 13.7118 13.0323 14.0003C13.5441 14.5794 14.2074 15.1968 14.8448 15.7503C15.4872 16.308 16.1265 16.8213 16.6036 17.1936C16.8426 17.3802 17.0424 17.532 17.1827 17.638C17.2529 17.691 17.3085 17.7325 17.3468 17.761L17.3741 17.7817L17.3907 17.7942L17.4024 17.803C17.7061 18.0264 18.1148 18.0639 18.4513 17.8938C18.7879 17.7237 19.0001 17.3784 19.0001 17.0012L19.0001 7.00124C19.0001 6.62404 18.7879 6.27882 18.4513 6.10866C18.1148 5.93857 17.711 5.97214 17.4073 6.19557Z" fill="currentColor" />
</svg>