<svg xmlns="http://www.w3.org/2000/svg" width="24" height="24" viewBox="0 0 24 24" fill="none">
    <path d="M4.59277 6.19448L4.60938 6.20718L4.65332 6.24038C4.69155 6.26887 4.74721 6.31042 4.81738 6.36343C4.95768 6.46939 5.15746 6.62123 5.39648 6.80776C5.87359 7.18009 6.51284 7.69335 7.15527 8.25112C7.79276 8.80461 8.45602 9.42195 8.96777 10.0011C9.22264 10.2896 9.46146 10.592 9.6416 10.8908C9.80518 11.1621 10 11.557 10 12.0001C9.99999 12.4433 9.80518 12.8382 9.6416 13.1095C9.46147 13.4083 9.22264 13.7107 8.96777 13.9992C8.45603 14.5783 7.79274 15.1957 7.15527 15.7492C6.51286 16.3069 5.87357 16.8202 5.39648 17.1925C5.15745 17.3791 4.95767 17.5309 4.81738 17.6369C4.74721 17.6899 4.69155 17.7314 4.65332 17.7599L4.60938 17.7931L4.59766 17.8019C4.29398 18.0253 3.88532 18.0628 3.54883 17.8927C3.21221 17.7226 3 17.3773 3 17.0001V7.00015C3 6.62295 3.21219 6.27773 3.54883 6.10757C3.88533 5.93748 4.28909 5.97104 4.59277 6.19448Z" fill="currentColor" />
    <path opacity="0.4" d="M19.4072 6.19448L19.3906 6.20718L19.3467 6.24038C19.3085 6.26887 19.2528 6.31042 19.1826 6.36343C19.0423 6.46939 18.8425 6.62123 18.6035 6.80776C18.1264 7.18009 17.4872 7.69335 16.8447 8.25112C16.2072 8.80461 15.544 9.42195 15.0322 10.0011C14.7774 10.2896 14.5385 10.592 14.3584 10.8908C14.1948 11.1621 14 11.557 14 12.0001C14 12.4433 14.1948 12.8382 14.3584 13.1095C14.5385 13.4083 14.7774 13.7107 15.0322 13.9992C15.544 14.5783 16.2073 15.1957 16.8447 15.7492C17.4871 16.3069 18.1264 16.8202 18.6035 17.1925C18.8426 17.3791 19.0423 17.5309 19.1826 17.6369C19.2528 17.6899 19.3085 17.7314 19.3467 17.7599L19.3906 17.7931L19.4023 17.8019C19.706 18.0253 20.1147 18.0628 20.4512 17.8927C20.7878 17.7226 21 17.3773 21 17.0001V7.00015C21 6.62295 20.7878 6.27773 20.4512 6.10757C20.1147 5.93748 19.7109 5.97104 19.4072 6.19448Z" fill="currentColor" />
</svg>