<svg xmlns="http://www.w3.org/2000/svg" width="24" height="24" viewBox="0 0 24 24" fill="none">
    <path d="M8.40723 6.19582L8.39063 6.20851L8.37405 6.22104L8.34668 6.24172C8.30845 6.2702 8.25279 6.31176 8.18262 6.36476C8.04232 6.47073 7.84254 6.62256 7.60352 6.8091C7.12641 7.18143 6.48716 7.69468 5.84473 8.25246C5.20724 8.80595 4.54398 9.42329 4.03223 10.0025C3.77736 10.2909 3.53854 10.5933 3.3584 10.8921C3.19482 11.1635 3 11.5583 3 12.0015C3.00001 12.4446 3.19482 12.8395 3.3584 13.1109C3.53854 13.4097 3.77736 13.7121 4.03223 14.0005C4.54397 14.5797 5.20726 15.197 5.84473 15.7505C6.48714 16.3083 7.12643 16.8215 7.60352 17.1939C7.84255 17.3804 8.04233 17.5322 8.18262 17.6382C8.25279 17.6912 8.30845 17.7328 8.34668 17.7612L8.37403 17.7819L8.39062 17.7945L8.40234 17.8032C8.70602 18.0267 9.11468 18.0641 9.45117 17.8941C9.78779 17.7239 10 17.3787 10 17.0015L10 7.00148C10 6.62428 9.78781 6.27907 9.45117 6.1089C9.11467 5.93881 8.71091 5.97238 8.40723 6.19582Z" fill="currentColor" />
    <path opacity="0.4" d="M15.5928 6.1946L15.6094 6.2073L15.6533 6.2405C15.6915 6.26899 15.7472 6.31055 15.8174 6.36355C15.9577 6.46951 16.1575 6.62135 16.3965 6.80788C16.8736 7.18021 17.5128 7.69347 18.1553 8.25124C18.7928 8.80473 19.456 9.42207 19.9678 10.0012C20.2226 10.2897 20.4615 10.5921 20.6416 10.8909C20.8052 11.1623 21 11.5571 21 12.0003C21 12.4434 20.8052 12.8383 20.6416 13.1096C20.4615 13.4085 20.2226 13.7108 19.9678 13.9993C19.456 14.5785 18.7927 15.1958 18.1553 15.7493C17.5129 16.3071 16.8736 16.8203 16.3965 17.1927C16.1574 17.3792 15.9577 17.531 15.8174 17.637C15.7472 17.69 15.6915 17.7315 15.6533 17.76L15.6094 17.7932L15.5977 17.802C15.294 18.0254 14.8853 18.0629 14.5488 17.8928C14.2122 17.7227 14 17.3775 14 17.0003V7.00027C14 6.62307 14.2122 6.27785 14.5488 6.10769C14.8853 5.9376 15.2891 5.97117 15.5928 6.1946Z" fill="currentColor" />
</svg>