<svg xmlns="http://www.w3.org/2000/svg" width="24" height="24" viewBox="0 0 24 24" fill="none">
    <path d="M6.1944 10.4072C5.86727 10.8519 5.96279 11.4773 6.4073 11.8047C6.85199 12.1322 7.47822 12.0375 7.80573 11.5928C7.80724 11.5907 7.8113 11.5854 7.81452 11.5811C7.82097 11.5724 7.83078 11.5585 7.84382 11.541C7.86991 11.506 7.90897 11.454 7.95905 11.3877C8.05961 11.2546 8.20569 11.0635 8.38483 10.834C8.7441 10.3736 9.2334 9.76271 9.76081 9.15527C10.2926 8.5428 10.8434 7.95601 11.3253 7.53027C11.5671 7.31663 11.7682 7.16457 11.9229 7.07129C11.9526 7.0534 11.9794 7.04207 12.0001 7.03125C12.0208 7.04208 12.0475 7.05338 12.0772 7.07129C12.2319 7.16456 12.433 7.31662 12.6749 7.53027C13.1567 7.956 13.7076 8.5428 14.2393 9.15527C14.7667 9.76271 15.256 10.3736 15.6153 10.834C15.7944 11.0635 15.9405 11.2546 16.0411 11.3877C16.0912 11.454 16.1302 11.506 16.1563 11.541C16.1694 11.5585 16.1792 11.5724 16.1856 11.5811C16.1888 11.5854 16.1919 11.5888 16.1934 11.5908C16.5208 12.0354 17.1482 12.1328 17.5928 11.8057C18.0374 11.4782 18.1329 10.8519 17.8057 10.4072C17.8037 10.4045 17.7968 10.3957 17.793 10.3906C17.7855 10.3804 17.7741 10.3658 17.7598 10.3467C17.7313 10.3085 17.6898 10.2528 17.6368 10.1826C17.5308 10.0423 17.379 9.84254 17.1925 9.60352C16.8201 9.12641 16.3069 8.48716 15.7491 7.84473C15.1956 7.20724 14.5783 6.54398 13.9991 6.03223C13.7106 5.77736 13.4083 5.53854 13.1094 5.3584C12.8381 5.19482 12.4432 5 12.0001 5C11.5569 5.00001 11.1621 5.19482 10.8907 5.3584C10.5919 5.53853 10.2895 5.77736 10.001 6.03223C9.42188 6.54397 8.80453 7.20726 8.25105 7.84473C7.69327 8.48714 7.18001 9.12643 6.80769 9.60352C6.62114 9.84255 6.46932 10.0423 6.36335 10.1826C6.31035 10.2528 6.26879 10.3085 6.2403 10.3467C6.2261 10.3657 6.21465 10.3804 6.2071 10.3906C6.20337 10.3957 6.19643 10.4045 6.1944 10.4072Z" fill="currentColor" />
    <path opacity="0.4" d="M17.8043 17.4072L17.7916 17.3906L17.7584 17.3467C17.7299 17.3085 17.6884 17.2528 17.6354 17.1826C17.5294 17.0423 17.3776 16.8425 17.191 16.6035C16.8187 16.1264 16.3054 15.4872 15.7477 14.8447C15.1942 14.2072 14.5768 13.544 13.9977 13.0322C13.7092 12.7774 13.4068 12.5385 13.108 12.3584C12.8367 12.1948 12.4418 12 11.9986 12C11.5555 12 11.1606 12.1948 10.8893 12.3584C10.5905 12.5385 10.2881 12.7774 9.99962 13.0322C9.42045 13.544 8.8031 14.2073 8.24962 14.8447C7.69184 15.4871 7.17858 16.1264 6.80626 16.6035C6.61971 16.8426 6.46789 17.0423 6.36192 17.1826C6.30892 17.2528 6.26736 17.3085 6.23887 17.3467L6.20567 17.3906L6.19688 17.4023C5.97346 17.706 5.93598 18.1147 6.10606 18.4512C6.27623 18.7878 6.62145 19 6.99864 19H16.9986C17.3758 19 17.7211 18.7878 17.8912 18.4512C18.0613 18.1147 18.0277 17.7109 17.8043 17.4072Z" fill="currentColor" />
</svg>