<svg xmlns="http://www.w3.org/2000/svg" width="24" height="24" viewBox="0 0 24 24" fill="none">
    <path d="M14.8008 12C14.8008 12.5523 14.3531 13 13.8008 13C13.2485 13 12.8008 12.5523 12.8008 12C12.8008 11.4477 13.2485 11 13.8008 11C14.3531 11 14.8008 11.4477 14.8008 12Z" fill="currentColor" />
    <path d="M11.25 12C11.25 12.5523 10.8023 13 10.25 13C9.69772 13 9.25 12.5523 9.25 12C9.25 11.4477 9.69772 11 10.25 11C10.8023 11 11.25 11.4477 11.25 12Z" fill="currentColor" />
    <path opacity="0.4" d="M6.40723 6.1957L6.39063 6.20839L6.37405 6.22092L6.34668 6.24159C6.30845 6.27008 6.25279 6.31164 6.18262 6.36464C6.04232 6.47061 5.84254 6.62244 5.60352 6.80898C5.12641 7.1813 4.48716 7.69456 3.84473 8.25234C3.20724 8.80582 2.54398 9.42317 2.03223 10.0023C1.77736 10.2908 1.53854 10.5932 1.3584 10.892C1.19482 11.1633 0.999996 11.5582 1 12.0014C1.00001 12.4445 1.19482 12.8394 1.3584 13.1107C1.53854 13.4095 1.77736 13.7119 2.03223 14.0004C2.54397 14.5795 3.20726 15.1969 3.84473 15.7504C4.48714 16.3082 5.12643 16.8214 5.60352 17.1937C5.84255 17.3803 6.04233 17.5321 6.18262 17.6381C6.25279 17.6911 6.30845 17.7326 6.34668 17.7611L6.37403 17.7818L6.39062 17.7943L6.40234 17.8031C6.70602 18.0265 7.11468 18.064 7.45117 17.8939C7.78779 17.7238 8 17.3785 8 17.0014L8 7.00136C8 6.62416 7.78781 6.27894 7.45117 6.10878C7.11467 5.93869 6.71091 5.97226 6.40723 6.1957Z" fill="currentColor" />
    <path opacity="0.4" d="M17.5928 6.19448L17.6094 6.20718L17.6533 6.24038C17.6915 6.26887 17.7472 6.31042 17.8174 6.36343C17.9577 6.46939 18.1575 6.62123 18.3965 6.80776C18.8736 7.18009 19.5128 7.69335 20.1553 8.25112C20.7928 8.80461 21.456 9.42195 21.9678 10.0011C22.2226 10.2896 22.4615 10.592 22.6416 10.8908C22.8052 11.1621 23 11.557 23 12.0001C23 12.4433 22.8052 12.8382 22.6416 13.1095C22.4615 13.4083 22.2226 13.7107 21.9678 13.9992C21.456 14.5783 20.7927 15.1957 20.1553 15.7492C19.5129 16.3069 18.8736 16.8202 18.3965 17.1925C18.1574 17.3791 17.9577 17.5309 17.8174 17.6369C17.7472 17.6899 17.6915 17.7314 17.6533 17.7599L17.6094 17.7931L17.5977 17.8019C17.294 18.0253 16.8853 18.0628 16.5488 17.8927C16.2122 17.7226 16 17.3773 16 17.0001V7.00015C16 6.62295 16.2122 6.27773 16.5488 6.10757C16.8853 5.93748 17.2891 5.97104 17.5928 6.19448Z" fill="currentColor" />
</svg>