<svg xmlns="http://www.w3.org/2000/svg" width="24" height="24" viewBox="0 0 24 24" fill="none">
    <path opacity="0.4" d="M15.8051 18.593C15.4776 19.0376 14.8516 19.1326 14.4069 18.8051C14.0615 18.5507 13.7332 18.2963 13.4472 18.0731C12.8764 17.6276 12.1118 17.0143 11.3444 16.3479C10.5819 15.6859 9.79361 14.9518 9.18811 14.2666C8.88637 13.9251 8.60888 13.5721 8.4014 13.2279C8.21046 12.9112 8 12.476 8 11.9999C8 11.5238 8.21046 11.0885 8.4014 10.7718C8.60888 10.4276 8.88637 10.0747 9.18811 9.7332C9.79361 9.04791 10.5819 8.31387 11.3444 7.65183C12.1118 6.98548 12.8764 6.37216 13.4472 5.92664C13.7332 5.70347 14.0615 5.44902 14.4069 5.19463C14.8516 4.86712 15.4776 4.96211 15.8051 5.4068C15.9368 5.58556 16.0002 5.79362 16 5.99982L16 11.9999L16 17.9999C16.0002 18.2061 15.9368 18.4142 15.8051 18.593Z" fill="currentColor" />
    <path d="M15.8051 18.593C15.4776 19.0376 14.8516 19.1326 14.4069 18.8051C14.0615 18.5507 13.7332 18.2963 13.4472 18.0731C12.8764 17.6276 12.1118 17.0143 11.3444 16.3479C10.5819 15.6859 9.79361 14.9518 9.18811 14.2666C8.88637 13.9251 8.60888 13.5721 8.4014 13.2279C8.21046 12.9112 8 12.476 8 11.9999C8 11.5238 8.21046 11.0885 8.4014 10.7718C8.60888 10.4276 8.88637 10.0747 9.18811 9.7332C9.70273 9.15076 10.3494 8.53312 11 7.95439L16 13L16 17.9999C16.0002 18.2061 15.9368 18.4142 15.8051 18.593Z" fill="currentColor" />
</svg>