<svg xmlns="http://www.w3.org/2000/svg" width="24" height="24" viewBox="0 0 24 24" fill="none">
    <path opacity="0.4" d="M18.4789 12.1373L7.91639 21.7281C7.49557 22.1101 6.84489 22.0882 6.4369 21.6783L6.39979 21.6402C5.97691 21.2151 5.97046 20.5317 6.38612 20.1139L16.3939 10.0533L18.4789 12.1373ZM13.3891 8.13338L3.37538 18.1988C2.9597 18.6164 2.28059 18.6102 1.8578 18.1852L1.81971 18.1481C1.41195 17.7379 1.39079 17.0838 1.77089 16.6607L11.3041 6.04939L13.3891 8.13338ZM19.933 6.49568C20.3486 6.07785 21.0287 6.08334 21.4516 6.50838L22.1781 7.23884C22.616 7.67906 22.6045 8.39217 22.1527 8.80232L19.5912 11.1275L17.4525 8.98982L19.933 6.49568ZM14.6283 2.3492C15.0363 1.89506 15.7451 1.88359 16.183 2.32381L16.9096 3.0533C17.3323 3.47831 17.3386 4.16178 16.9232 4.57967L14.4467 7.0699L12.308 4.9322L14.6283 2.3492Z" fill="currentColor" />
    <path d="M19.9338 6.49574C20.3494 6.07795 21.0285 6.08351 21.4514 6.50844L22.178 7.2389C22.6159 7.67912 22.6043 8.39221 22.1526 8.80238L19.5911 11.1275L17.4524 8.98988L19.9338 6.49574ZM14.6282 2.34926C15.0362 1.89512 15.7459 1.88365 16.1838 2.32387L16.9104 3.05336C17.3331 3.47841 17.3385 4.16187 16.9231 4.57973L14.4465 7.06996L12.3079 4.93226L14.6282 2.34926Z" fill="currentColor" />
</svg>