<svg xmlns="http://www.w3.org/2000/svg" width="24" height="24" viewBox="0 0 24 24" fill="none">
    <path fill-rule="evenodd" clip-rule="evenodd" d="M1.45908 15.7863C1.46074 15.7748 1.46233 15.7649 1.46366 15.7566L1.45908 15.7863ZM8.21396 22.5411L8.24177 22.5368C8.23384 22.5381 8.22454 22.5396 8.21396 22.5411Z" fill="currentColor" />
    <path opacity="0.4" fill-rule="evenodd" clip-rule="evenodd" d="M13.1251 20.6251C18.5099 20.6251 22.8751 16.2599 22.8751 10.8751C22.8751 5.49035 18.5099 1.12512 13.1251 1.12512C7.74032 1.12512 3.37509 5.49035 3.37509 10.8751C3.37509 12.7524 3.90567 14.5058 4.82504 15.9935L10.5343 10.2843C11.413 9.40562 12.8372 9.40562 13.7159 10.2843C14.5946 11.163 14.5946 12.5873 13.7159 13.4659L8.00668 19.1752C9.49438 20.0945 11.2478 20.6251 13.1251 20.6251Z" fill="currentColor" />
    <path d="M12.8321 11.1681C12.4416 10.7776 11.8086 10.7776 11.4181 11.1681L3.12833 19.4579C3.13511 19.1517 3.1518 18.8268 3.1749 18.4992C3.21994 17.8607 3.2878 17.2409 3.34482 16.7785C3.37326 16.5479 3.39875 16.3573 3.41709 16.2258C3.4262 16.1604 3.43358 16.1095 3.43857 16.0754L3.44443 16.0363C3.44428 16.0385 3.44478 16.034 3.44443 16.0363L3.44541 16.0256C3.52827 15.4795 3.15257 14.9697 2.60654 14.8869C2.06075 14.8043 1.55084 15.179 1.46787 15.7248C1.4675 15.7285 1.46635 15.7394 1.46592 15.7424L1.46367 15.7567L1.45908 15.7863C1.4535 15.8245 1.44543 15.8802 1.43564 15.9504C1.41607 16.0908 1.38935 16.2911 1.35947 16.5334C1.29984 17.0169 1.22808 17.6738 1.17978 18.3586C1.13195 19.0369 1.10463 19.7733 1.14365 20.4045C1.16306 20.7183 1.20039 21.0379 1.27158 21.3254C1.33515 21.5819 1.45982 21.9599 1.7501 22.2502C2.04037 22.5405 2.41834 22.6651 2.6749 22.7287C2.96238 22.7999 3.28196 22.8372 3.5958 22.8566C4.22701 22.8956 4.96335 22.8683 5.6417 22.8205C6.32651 22.7722 6.98337 22.7004 7.46689 22.6408C7.70912 22.6109 7.90945 22.5842 8.0499 22.5646C8.12008 22.5548 8.17576 22.5468 8.21396 22.5412L8.24354 22.5366L8.25791 22.5343C8.26084 22.5339 8.26524 22.5335 8.269 22.5331C8.81489 22.4501 9.19623 21.9387 9.11338 21.3927C9.03028 20.847 8.52057 20.472 7.9747 20.5549L7.96396 20.5558L7.9249 20.5617C7.89073 20.5667 7.83988 20.5741 7.77451 20.5832C7.64293 20.6015 7.45235 20.627 7.22177 20.6554C6.75939 20.7125 6.1396 20.7803 5.50107 20.8254C5.17345 20.8485 4.84853 20.8652 4.54239 20.8719L12.8321 12.5822C13.2227 12.1917 13.2227 11.5587 12.8321 11.1681Z" fill="currentColor" />
</svg>