<svg xmlns="http://www.w3.org/2000/svg" width="24" height="24" viewBox="0 0 24 24" fill="none">
    <path opacity="0.4" d="M12 22.75C6.06294 22.75 1.25 17.9371 1.25 12C1.25 6.06294 6.06294 1.25 12 1.25C17.9371 1.25 22.75 6.06294 22.75 12C22.75 17.9371 17.9371 22.75 12 22.75Z" fill="currentColor" />
    <path d="M14.2158 15.3016C14.6014 15.6969 14.5934 16.33 14.1982 16.7157C13.803 17.1012 13.1699 17.0933 12.7842 16.6981L10.2607 14.1122C9.95511 13.799 9.65433 13.4944 9.44238 13.2098C9.21251 12.9012 9 12.5062 9 11.9999C9 11.4936 9.21251 11.0986 9.44238 10.7899C9.65433 10.5054 9.95511 10.2007 10.2607 9.88756L12.7842 7.30162C13.1699 6.90648 13.803 6.89851 14.1982 7.28405C14.5934 7.66974 14.6014 8.30287 14.2158 8.69811L11.6914 11.284C11.3467 11.6372 11.1593 11.832 11.0459 11.9842C11.0421 11.9893 11.0395 11.9952 11.0361 11.9999C11.0395 12.0045 11.0421 12.0104 11.0459 12.0155C11.1593 12.1677 11.3467 12.3625 11.6914 12.7157L14.2158 15.3016Z" fill="currentColor" />
</svg>