<svg xmlns="http://www.w3.org/2000/svg" width="24" height="24" viewBox="0 0 24 24" fill="none">
    <path d="M20.293 2.29248C20.6835 1.90205 21.3165 1.90199 21.707 2.29248C22.0975 2.68298 22.0974 3.31603 21.707 3.70655L3.70704 21.7066C3.31653 22.0971 2.68351 22.097 2.29298 21.7066C1.90246 21.316 1.90246 20.683 2.29298 20.2925L20.293 2.29248Z" fill="currentColor" />
    <path opacity="0.4" d="M20.6134 6.92053C21.4932 8.40936 22.0001 10.145 22.0001 11.9996C22.0001 17.5224 17.5228 21.9994 12.0001 21.9996C10.1456 21.9996 8.40973 21.4926 6.92099 20.6129L20.6134 6.92053ZM12.0001 1.99963C13.8542 1.9997 15.5897 2.50596 17.0782 3.38538L3.38583 17.0778C2.50638 15.5891 2.00009 13.8538 2.00009 11.9996C2.00009 6.47686 6.47734 1.99975 12.0001 1.99963Z" fill="currentColor" />
</svg>