<svg xmlns="http://www.w3.org/2000/svg" width="24" height="24" viewBox="0 0 24 24" fill="none">
    <path opacity="0.4" d="M22.75 12C22.75 17.9371 17.9371 22.75 12 22.75C6.06294 22.75 1.25 17.9371 1.25 12C1.25 6.06294 6.06294 1.25 12 1.25C17.9371 1.25 22.75 6.06294 22.75 12Z" fill="currentColor" />
    <path d="M5 12C5 8.13401 8.13401 5 12 5C12.5523 5 13 5.44772 13 6C13 6.55228 12.5523 7 12 7C9.23858 7 7 9.23858 7 12C7 12.5523 6.55228 13 6 13C5.44772 13 5 12.5523 5 12Z" fill="currentColor" />
    <path d="M15.293 7.29295C15.6835 6.90243 16.3165 6.90243 16.707 7.29295C17.0975 7.68348 17.0975 8.31649 16.707 8.70702L12.707 12.707C12.3165 13.0975 11.6835 13.0975 11.293 12.707C10.9024 12.3165 10.9024 11.6835 11.293 11.293L15.293 7.29295Z" fill="currentColor" />
</svg>