<svg xmlns="http://www.w3.org/2000/svg" width="24" height="24" viewBox="0 0 24 24" fill="none">
    <path opacity="0.4" fill-rule="evenodd" clip-rule="evenodd" d="M13.125 3.37488C18.5098 3.37488 22.875 7.7401 22.875 13.1249C22.875 18.5097 18.5098 22.8749 13.125 22.8749C7.74022 22.8749 3.375 18.5097 3.375 13.1249C3.375 11.2476 3.90557 9.49417 4.82495 8.00647L10.5342 13.7157C11.4129 14.5944 12.8371 14.5944 13.7158 13.7157C14.5945 12.837 14.5945 11.4127 13.7158 10.5341L8.00659 4.82483C9.49429 3.90545 11.2477 3.37488 13.125 3.37488Z" fill="currentColor" />
    <path d="M1.46782 8.27532C1.5508 8.82106 2.06071 9.19581 2.60649 9.11321C3.15253 9.03035 3.52822 8.52057 3.44536 7.97454C3.44521 7.97235 3.44473 7.96613 3.44439 7.96379L3.43853 7.92473C3.43354 7.89056 3.42616 7.83971 3.41704 7.77434C3.3987 7.64276 3.37321 7.45219 3.34478 7.22161C3.28775 6.75922 3.21989 6.13943 3.17485 5.5009C3.15174 5.1731 3.13504 4.84802 3.12827 4.54174L11.418 12.8315C11.8085 13.222 12.4416 13.222 12.8321 12.8315C13.2226 12.441 13.2226 11.8079 12.8321 11.4174L4.54282 3.12817C4.84883 3.13495 5.17357 3.15164 5.50103 3.17473C6.13955 3.21978 6.75934 3.28762 7.22173 3.34465C7.45231 3.37309 7.64289 3.39858 7.77446 3.41692C7.83984 3.42603 7.89069 3.43342 7.92485 3.4384L7.96392 3.44426L7.97466 3.44524C8.52053 3.52808 9.03023 3.15312 9.11333 2.60735C9.19618 2.06141 8.82133 1.55069 8.27544 1.4677C8.27168 1.46733 8.26079 1.46618 8.25786 1.46575L8.24354 1.4635L8.21392 1.45891C8.17571 1.45334 8.12003 1.44526 8.04985 1.43547C7.9094 1.41589 7.70908 1.38918 7.46685 1.3593C6.98332 1.29966 6.32646 1.22792 5.64165 1.17961C4.9633 1.13177 4.22697 1.10447 3.59575 1.14348C3.28191 1.16289 2.96233 1.20023 2.67485 1.27141C2.41829 1.33498 2.04033 1.45964 1.75005 1.74993C1.45978 2.0402 1.3351 2.41817 1.27153 2.67473C1.20035 2.96221 1.16301 3.28179 1.1436 3.59563C1.10459 4.22684 1.1319 4.96318 1.17974 5.64153C1.22803 6.32634 1.29979 6.9832 1.35942 7.46672C1.3893 7.70896 1.41602 7.90928 1.4356 8.04973C1.44538 8.11992 1.45346 8.17559 1.45903 8.21379L1.46362 8.24343L1.46587 8.25774C1.46631 8.26067 1.46745 8.27156 1.46782 8.27532Z" fill="currentColor" />
</svg>