<svg xmlns="http://www.w3.org/2000/svg" width="24" height="24" viewBox="0 0 24 24" fill="none">
    <path opacity="0.4" d="M22.75 12C22.75 6.06294 17.9371 1.25 12 1.25C6.06294 1.25 1.25 6.06294 1.25 12C1.25 17.9371 6.06294 22.75 12 22.75C17.9371 22.75 22.75 17.9371 22.75 12Z" fill="currentColor" />
    <path d="M15.3016 14.2158C15.6969 14.6014 16.33 14.5934 16.7157 14.1982C17.1012 13.803 17.0933 13.1699 16.6981 12.7842L14.1122 10.2607C13.799 9.95511 13.4944 9.65433 13.2098 9.44238C12.9012 9.21251 12.5062 9 11.9999 9C11.4936 9 11.0986 9.21251 10.7899 9.44238C10.5054 9.65433 10.2007 9.95511 9.88756 10.2607L7.30162 12.7842C6.90648 13.1699 6.89851 13.803 7.28405 14.1982C7.66974 14.5934 8.30287 14.6014 8.69811 14.2158L11.284 11.6914C11.6372 11.3467 11.832 11.1593 11.9842 11.0459C11.9893 11.0421 11.9952 11.0395 11.9999 11.0361C12.0045 11.0395 12.0104 11.0421 12.0155 11.0459C12.1677 11.1593 12.3625 11.3467 12.7157 11.6914L15.3016 14.2158Z" fill="currentColor" />
</svg>