<svg xmlns="http://www.w3.org/2000/svg" width="24" height="24" viewBox="0 0 24 24" fill="none">
    <path opacity="0.4" d="M22.75 12C22.75 17.9371 17.9371 22.75 12 22.75C6.06294 22.75 1.25 17.9371 1.25 12C1.25 6.06294 6.06294 1.25 12 1.25C17.9371 1.25 22.75 6.06294 22.75 12Z" fill="currentColor" />
    <path d="M14.8271 8.75975C15.2358 8.38829 15.8687 8.41849 16.2402 8.82713C16.6117 9.23579 16.5815 9.86872 16.1729 10.2402L10.6729 15.2402C10.2779 15.5992 9.6704 15.5844 9.29297 15.207L7.29297 13.207C6.90245 12.8165 6.90245 12.1835 7.29297 11.7929C7.68349 11.4024 8.31651 11.4024 8.70703 11.7929L10.0322 13.1181L14.8271 8.75975Z" fill="currentColor" />
</svg>