<svg xmlns="http://www.w3.org/2000/svg" width="24" height="24" viewBox="0 0 24 24" fill="none">
    <path opacity="0.4" d="M22.75 12C22.75 17.9371 17.9371 22.75 12 22.75C6.06294 22.75 1.25 17.9371 1.25 12C1.25 6.06294 6.06294 1.25 12 1.25C17.9371 1.25 22.75 6.06294 22.75 12Z" fill="currentColor" />
    <path d="M6 12.0002C6 10.6506 6.4469 9.40249 7.2002 8.3996C7.5319 7.95807 8.15902 7.86871 8.60059 8.20038C9.04207 8.5321 9.13049 9.15923 8.79883 9.60077C8.29683 10.2692 8 11.0986 8 12.0002C8 14.2093 9.79086 16.0002 12 16.0002C14.2091 16.0002 16 14.2093 16 12.0002C16 11.0986 15.7032 10.2692 15.2012 9.60077C14.8695 9.15923 14.9579 8.5321 15.3994 8.20038C15.841 7.86871 16.4681 7.95807 16.7998 8.3996C17.5531 9.40249 18 10.6506 18 12.0002C18 15.3139 15.3137 18.0002 12 18.0002C8.68629 18.0002 6 15.3139 6 12.0002Z" fill="currentColor" />
    <path d="M11 11V7C11 6.44772 11.4477 6 12 6C12.5523 6 13 6.44772 13 7V11C13 11.5523 12.5523 12 12 12C11.4477 12 11 11.5523 11 11Z" fill="currentColor" />
</svg>