<svg xmlns="http://www.w3.org/2000/svg" width="24" height="24" viewBox="0 0 24 24" fill="none">
    <path opacity="0.4" d="M22.75 12C22.75 17.9371 17.9371 22.75 12 22.75C6.06294 22.75 1.25 17.9371 1.25 12C1.25 6.06294 6.06294 1.25 12 1.25C17.9371 1.25 22.75 6.06294 22.75 12Z" fill="currentColor" />
    <path d="M10.4551 6.43641C11.4595 5.91057 12.682 5.85608 13.7412 6.29383C14.655 6.67154 15.2072 7.36591 15.5264 8.00477C15.8408 8.63425 15.9592 9.265 15.9883 9.65809C16.0288 10.2087 15.6151 10.6877 15.0645 10.7284C14.5483 10.7665 14.0953 10.4059 14.0068 9.90711L13.9727 9.63368C13.9397 9.43448 13.869 9.16206 13.7373 8.89832C13.5666 8.55657 13.324 8.28573 12.9775 8.14247C12.4611 7.92901 11.8582 7.95909 11.3828 8.2079C10.9359 8.44183 10.576 8.87981 10.5107 9.58875C10.4527 10.2198 10.8001 10.9089 11.2451 11.2167C11.3684 11.3019 11.5643 11.3784 11.875 11.4266C12.1859 11.4749 12.5441 11.4858 12.9609 11.4872H13.3594L13.4619 11.4921C13.966 11.5434 14.3593 11.9696 14.3594 12.4872C14.3594 13.0048 13.966 13.4309 13.4619 13.4823L13.3594 13.4872H11.8359C11.7084 13.6755 11.5561 13.8731 11.3887 14.0692C11.0745 14.4372 10.8151 14.7413 10.6055 14.995C10.8755 14.9983 11.1959 14.999 11.5752 14.9989H14.4531C14.5175 14.9966 14.5849 14.9896 14.6719 14.9716C14.8405 14.9366 15.1012 14.8512 15.4414 14.622C15.8994 14.3134 16.5205 14.4345 16.8291 14.8925C17.1377 15.3505 17.0166 15.9715 16.5586 16.2802C16.0052 16.653 15.5033 16.8413 15.0771 16.9296C14.6574 17.0165 14.3261 16.999 14.252 16.9989H11.5752C10.8018 16.9991 10.1515 16.9999 9.68262 16.9589C9.45067 16.9386 9.1915 16.9035 8.95605 16.8222C8.73281 16.745 8.34934 16.5633 8.14844 16.1278C7.93497 15.665 8.07848 15.2316 8.16406 15.0282C8.26145 14.7968 8.40917 14.5703 8.55566 14.3681C8.73567 14.1196 8.97708 13.826 9.26172 13.4872H8C7.44772 13.4872 7 13.0395 7 12.4872C7.00004 11.9349 7.44774 11.4872 8 11.4872H8.93652C8.61526 10.8536 8.4525 10.125 8.51855 9.40614C8.64747 8.00432 9.42221 6.97719 10.4551 6.43641Z" fill="currentColor" />
</svg>