<svg xmlns="http://www.w3.org/2000/svg" width="24" height="24" viewBox="0 0 24 24" fill="none">
    <path d="M4.68379 18.8941C5.04631 18.4775 5.67832 18.4331 6.09492 18.7955C7.0932 19.6643 8.30017 20.3257 9.66817 20.6919C10.4486 20.9008 11.2313 21.0005 12.0002 21.0005C12.5525 21.0006 13.0002 21.4483 13.0002 22.0005C13.0002 22.5528 12.5525 23.0005 12.0002 23.0005C11.0584 23.0005 10.102 22.8789 9.15156 22.6246C7.48308 22.1779 6.0044 21.3686 4.78145 20.3042C4.36534 19.9417 4.32171 19.3106 4.68379 18.8941ZM18.8361 17.8501C19.1956 17.4308 19.827 17.3823 20.2463 17.7417C20.6654 18.1012 20.7139 18.7317 20.3547 19.1509C19.4124 20.2503 18.2664 21.1472 16.9924 21.7974C16.5005 22.0485 15.8977 21.8528 15.6467 21.3609C15.3958 20.869 15.5914 20.2672 16.0832 20.0162C17.1273 19.4833 18.0656 18.749 18.8361 17.8501ZM1.37813 9.15679C2.95167 3.29019 8.98246 -0.193554 14.8488 1.37651C15.575 1.57089 16.2658 1.8345 16.9152 2.15776C17.4096 2.40385 17.6114 3.00421 17.3654 3.49858C17.1193 3.99298 16.519 4.19389 16.0246 3.9478C15.4942 3.68375 14.9286 3.46878 14.3322 3.30913C9.53289 2.02445 4.59744 4.87456 3.30977 9.67534C2.80509 11.5573 2.93603 13.4565 3.56953 15.15C3.76304 15.6672 3.49989 16.2436 2.98262 16.4371C2.46541 16.6304 1.88902 16.3683 1.69551 15.8511C0.920728 13.78 0.76189 11.4543 1.37813 9.15679ZM21.9357 10.4791C22.4872 10.4507 22.9571 10.8748 22.9855 11.4263C23.0435 12.5503 22.9288 13.7013 22.6223 14.8443C22.4792 15.3776 21.9309 15.6941 21.3977 15.5513C20.8642 15.4082 20.5476 14.8592 20.6906 14.3257C20.9422 13.3876 21.0358 12.446 20.9885 11.5289C20.9602 10.9774 21.3843 10.5075 21.9357 10.4791ZM19.6193 5.44585C20.0719 5.12949 20.6954 5.23951 21.0119 5.69194C21.3052 6.11151 21.5697 6.55145 21.802 7.00737C22.0524 7.49939 21.8564 8.10145 21.3645 8.3521C20.8723 8.6028 20.2704 8.4067 20.0197 7.9146C19.8296 7.54139 19.6133 7.18185 19.3732 6.83843C19.0569 6.38589 19.167 5.76235 19.6193 5.44585Z" fill="currentColor" />
    <path opacity="0.4" d="M11.001 16V12.9951H8.00586C7.45361 12.9951 7.00592 12.5473 7.00586 11.9951C7.00586 11.4428 7.45357 10.9951 8.00586 10.9951H11.001V8C11.001 7.44772 11.4487 7 12.001 7C12.5532 7.00006 13.001 7.44775 13.001 8V10.9951H16.0059C16.5581 10.9951 17.0059 11.4428 17.0059 11.9951C17.0058 12.5473 16.5581 12.9951 16.0059 12.9951H13.001V16C13.001 16.5522 12.5532 16.9999 12.001 17C11.4487 17 11.001 16.5523 11.001 16Z" fill="currentColor" />
</svg>