<svg xmlns="http://www.w3.org/2000/svg" width="24" height="24" viewBox="0 0 24 24" fill="none">
    <path opacity="0.4" d="M12.0001 1.24963C17.9371 1.24973 22.7501 6.06263 22.7501 11.9996C22.7501 14.0622 22.1673 15.9881 21.1603 17.6246L16.0831 12.5475C16.6556 11.8555 17.0001 10.9679 17.0001 9.99963C16.9999 7.79075 15.209 5.99973 13.0001 5.99963H10.3194C10.0974 5.99882 9.83534 5.99859 9.58311 6.04749L6.37412 2.8385C8.01073 1.83133 9.93743 1.24963 12.0001 1.24963ZM13.0001 7.99963C14.1044 7.99973 14.9999 8.89532 15.0001 9.99963C15.0001 10.415 14.8721 10.8 14.6554 11.1198L11.5353 7.99963H13.0001Z" fill="currentColor" />
    <path d="M1.54308 1.54252C1.9336 1.152 2.56662 1.152 2.95714 1.54252L22.4571 21.0425C22.8476 21.433 22.8476 22.0661 22.4571 22.4566C22.0666 22.8471 21.4336 22.847 21.0431 22.4566L18.8605 20.2739C16.9988 21.8191 14.6085 22.7495 12.0001 22.7495C6.06305 22.7495 1.25011 17.9366 1.25011 11.9995C1.25011 9.39099 2.17843 6.99894 3.72374 5.13725L1.54308 2.95659C1.15256 2.56607 1.15257 1.93305 1.54308 1.54252ZM8.00011 17.9995C8.00011 18.5517 8.44801 18.9993 9.00011 18.9995C9.55228 18.9994 10.0001 18.5517 10.0001 17.9995V13.9995H12.586L10.586 11.9995H10.0001V11.4136L8.00011 9.41362V17.9995Z" fill="currentColor" />
</svg>