<svg xmlns="http://www.w3.org/2000/svg" width="24" height="24" viewBox="0 0 24 24" fill="none">
    <path d="M15.0918 1.72874L14.9191 3.34019L14.552 6.76702L14.3789 8.38229L19.2767 6.93395L19.3044 6.92578C19.4254 6.89007 19.5515 6.8529 19.6624 6.80309C20.3821 6.47962 20.7967 5.71441 20.6741 4.93493C20.6554 4.81624 20.6181 4.69204 20.5822 4.57244L20.5726 4.5404L20.5597 4.49748C20.4379 4.0905 20.3554 3.81488 20.2503 3.58239C19.5592 2.05443 17.9381 1.17047 16.2796 1.41833C16.0349 1.45491 15.7678 1.53251 15.3799 1.64515L15.3001 1.66833L15.0918 1.72874Z" fill="currentColor" />
    <path fill-rule="evenodd" clip-rule="evenodd" d="M9.6838 3.29633L9.51425 4.90703L9.1504 8.3636L8.98047 9.97795L12.8204 8.84243L12.9935 7.22716L13.3616 3.79118L13.5343 2.17969L9.6838 3.29633Z" fill="currentColor" />
    <path fill-rule="evenodd" clip-rule="evenodd" d="M8.12717 3.74805L4.95509 4.66796L4.89862 4.68433C4.49149 4.80235 4.21448 4.88265 3.98243 4.98534C2.39932 5.68634 1.50151 7.38041 1.81056 9.08397C1.85645 9.33682 1.94681 9.615 2.0805 10.0266L2.09376 10.0674L2.10143 10.091C2.13887 10.2065 2.17798 10.3272 2.22853 10.4336C2.56184 11.1347 3.3173 11.5321 4.08399 11.4101C4.20221 11.3913 4.32598 11.3547 4.44416 11.3197L4.46192 11.3144L7.42287 10.4388L7.5928 8.8245L7.95762 5.35879L8.12717 3.74805Z" fill="currentColor" />
    <path opacity="0.4" d="M22.25 15.8711V15.9356C22.25 17.2986 22.2501 18.3978 22.1338 19.2627C22.0128 20.1628 21.7533 20.9206 21.1514 21.5225C20.5495 22.1244 19.7917 22.3839 18.8916 22.5049C18.0267 22.6212 16.9275 22.6211 15.5645 22.6211H15.5H9.5H9.43557C8.07251 22.6211 6.97331 22.6212 6.1084 22.5049C5.20829 22.3839 4.45055 22.1244 3.84863 21.5225C3.24672 20.9206 2.98723 20.1628 2.86621 19.2627C2.74995 18.3978 2.74997 17.2986 2.75 15.9355V15.8711V10.8711C2.75 10.4569 3.08579 10.1211 3.5 10.1211H19.5L19.5533 10.1211C19.9828 10.121 20.3766 10.121 20.6973 10.1641C21.0527 10.2119 21.4283 10.3248 21.7373 10.6338C22.0463 10.9428 22.1592 11.3184 22.207 11.6738C22.2501 11.9945 22.2501 12.3883 22.25 12.8178L22.25 12.8711V15.8711Z" fill="currentColor" />
    <path d="M17.5 16.8711C18.0523 16.8711 18.5 17.3188 18.5 17.8711C18.5 18.4234 18.0523 18.8711 17.5 18.8711H15.5C14.9477 18.8711 14.5 18.4234 14.5 17.8711C14.5 17.3188 14.9477 16.8711 15.5 16.8711H17.5Z" fill="currentColor" />
</svg>