<svg xmlns="http://www.w3.org/2000/svg" width="24" height="24" viewBox="0 0 24 24" fill="none">
    <path d="M16 11C16.5523 11 17 11.4477 17 12C17 12.5523 16.5523 13 16 13H12C11.4477 13 11 12.5523 11 12C11 11.4477 11.4477 11 12 11H16Z" fill="currentColor" />
    <path d="M16 16C16.5523 16 17 16.4477 17 17C17 17.5523 16.5523 18 16 18H12C11.4477 18 11 17.5523 11 17C11 16.4477 11.4477 16 12 16H16Z" fill="currentColor" />
    <path d="M8.00977 11C8.56205 11 9.00977 11.4477 9.00977 12C9.00977 12.5523 8.56205 13 8.00977 13H8C7.44772 13 7 12.5523 7 12C7 11.4477 7.44772 11 8 11H8.00977Z" fill="currentColor" />
    <path d="M8.00977 16C8.56205 16 9.00977 16.4477 9.00977 17C9.00977 17.5523 8.56205 18 8.00977 18H8C7.44772 18 7 17.5523 7 17C7 16.4477 7.44772 16 8 16H8.00977Z" fill="currentColor" />
    <path fill-rule="evenodd" clip-rule="evenodd" d="M7.75 3C7.75 2.0335 8.5335 1.25 9.5 1.25H14.5C15.4665 1.25 16.25 2.0335 16.25 3C16.25 3.9665 15.4665 4.75 14.5 4.75H9.5C8.5335 4.75 7.75 3.9665 7.75 3Z" fill="currentColor" />
    <path opacity="0.4" fill-rule="evenodd" clip-rule="evenodd" d="M19.6514 4.09766C19.073 3.51934 18.3501 3.25976 17.4961 3.13281C17.4266 4.72802 16.1123 6 14.5 6H9.5C7.88765 6 6.57243 4.72804 6.50293 3.13281C5.6493 3.25981 4.92676 3.51955 4.34863 4.09766C3.74688 4.69966 3.48727 5.45824 3.36621 6.3584C3.24996 7.22342 3.24998 8.32429 3.25 9.68743V16.0625C3.24998 17.4256 3.24996 18.5266 3.36621 19.3916C3.48727 20.2918 3.74688 21.0503 4.34863 21.6523C4.95047 22.2542 5.70854 22.5128 6.6084 22.6338C7.47289 22.7501 8.57173 22.75 9.93388 22.75H14.0645C15.4267 22.75 16.5271 22.7501 17.3916 22.6338C18.2915 22.5128 19.0495 22.2542 19.6514 21.6523C20.2531 21.0503 20.5127 20.2918 20.6338 19.3916C20.75 18.5265 20.75 17.4258 20.75 16.0625V9.6875C20.75 8.3242 20.75 7.22349 20.6338 6.3584C20.5127 5.45824 20.2531 4.69966 19.6514 4.09766Z" fill="currentColor" />
</svg>