<svg xmlns="http://www.w3.org/2000/svg" width="24" height="24" viewBox="0 0 24 24" fill="none">
    <path d="M14.293 10.793C14.6835 10.4024 15.3165 10.4024 15.707 10.793C16.0975 11.1835 16.0975 11.8165 15.707 12.207L11.707 16.207C11.3165 16.5975 10.6835 16.5975 10.293 16.207L8.29295 14.207C7.90243 13.8165 7.90243 13.1835 8.29295 12.793C8.68348 12.4024 9.31649 12.4024 9.70702 12.793L11 14.0859L14.293 10.793Z" fill="currentColor" />
    <path fill-rule="evenodd" clip-rule="evenodd" d="M7.75 3C7.75 2.0335 8.5335 1.25 9.5 1.25H14.5C15.4665 1.25 16.25 2.0335 16.25 3C16.25 3.9665 15.4665 4.75 14.5 4.75H9.5C8.5335 4.75 7.75 3.9665 7.75 3Z" fill="currentColor" />
    <path opacity="0.4" d="M17.4961 3.13281C18.3501 3.25976 19.073 3.51934 19.6514 4.09766C20.2531 4.69966 20.5127 5.45824 20.6338 6.3584C20.75 7.22349 20.75 8.3242 20.75 9.6875V16.0625C20.75 17.4258 20.75 18.5265 20.6338 19.3916C20.5127 20.2918 20.2531 21.0503 19.6514 21.6523C19.0495 22.2542 18.2915 22.5128 17.3916 22.6338C16.5267 22.7501 15.4274 22.75 14.0645 22.75H9.93555C8.57262 22.75 7.47324 22.7501 6.6084 22.6338C5.70854 22.5128 4.95047 22.2542 4.34863 21.6523C3.74688 21.0503 3.48727 20.2918 3.36621 19.3916C3.24996 18.5266 3.24998 17.4257 3.25 16.0625V9.6875C3.24998 8.32433 3.24996 7.22343 3.36621 6.3584C3.48727 5.45824 3.74688 4.69966 4.34863 4.09766C4.92676 3.51955 5.6493 3.25981 6.50293 3.13281C6.57243 4.72804 7.88765 6 9.5 6H14.5C16.1123 6 17.4266 4.72802 17.4961 3.13281Z" fill="currentColor" />
</svg>