<svg xmlns="http://www.w3.org/2000/svg" width="24" height="24" viewBox="0 0 24 24" fill="none">
    <path opacity="0.4" d="M22.75 12C22.75 17.9371 17.9371 22.75 12 22.75C6.06294 22.75 1.25 17.9371 1.25 12C1.25 6.06294 6.06294 1.25 12 1.25C17.9371 1.25 22.75 6.06294 22.75 12Z" fill="currentColor" />
    <path d="M11 5.99976C11 5.44747 11.4477 4.99976 12 4.99976C12.5523 4.99976 13 5.44747 13 5.99976V11.9998C13 12.3562 12.8102 12.6861 12.5019 12.865C12.1936 13.0438 11.8133 13.0448 11.5039 12.8679L8.00388 10.8679C7.52437 10.5939 7.3578 9.98318 7.63181 9.50366C7.90582 9.02414 8.51655 8.85758 8.99607 9.13159L11 10.2761V5.99976Z" fill="currentColor" />
</svg>