<svg xmlns="http://www.w3.org/2000/svg" width="24" height="24" viewBox="0 0 24 24" fill="none">
    <path opacity="0.4" d="M22.75 12C22.75 17.9371 17.9371 22.75 12 22.75C6.06294 22.75 1.25 17.9371 1.25 12C1.25 6.06294 6.06294 1.25 12 1.25C17.9371 1.25 22.75 6.06294 22.75 12Z" fill="currentColor" />
    <path d="M11 5.99976C11 5.44747 11.4477 4.99976 12 4.99976C12.5523 4.99976 13 5.44747 13 5.99976V11.9998C13 12.1738 12.9545 12.3448 12.8681 12.4958L10.8681 15.9958C10.5941 16.4754 9.9834 16.6419 9.50388 16.3679C9.02437 16.0939 8.8578 15.4832 9.13181 15.0037L11 11.7341V5.99976Z" fill="currentColor" />
</svg>