<svg xmlns="http://www.w3.org/2000/svg" width="24" height="24" viewBox="0 0 24 24" fill="none">
    <path opacity="0.4" d="M22.75 12C22.75 17.9371 17.9371 22.75 12 22.75C6.06294 22.75 1.25 17.9371 1.25 12C1.25 6.06294 6.06294 1.25 12 1.25C17.9371 1.25 22.75 6.06294 22.75 12Z" fill="currentColor" />
    <path d="M11 5.99976C11 5.44747 11.4477 4.99976 12 4.99976C12.5523 4.99976 13 5.44747 13 5.99976V11.9998C13 12.4532 12.695 12.8501 12.2568 12.9666C11.8186 13.0829 11.3568 12.8895 11.1318 12.4958L9.13181 8.99585C8.8578 8.51633 9.02437 7.9056 9.50388 7.63159C9.9834 7.35758 10.5941 7.52414 10.8681 8.00366L11 8.23413V5.99976Z" fill="currentColor" />
</svg>