<svg xmlns="http://www.w3.org/2000/svg" width="24" height="24" viewBox="0 0 24 24" fill="none">
    <path opacity="0.4" d="M22.75 12C22.75 17.9371 17.9371 22.75 12 22.75C6.06294 22.75 1.25 17.9371 1.25 12C1.25 6.06294 6.06294 1.25 12 1.25C17.9371 1.25 22.75 6.06294 22.75 12Z" fill="currentColor" />
    <path d="M11 5.99976C11 5.44747 11.4477 4.99976 12 4.99976C12.5523 4.99976 13 5.44747 13 5.99976V11.4187L15.9961 13.1316C16.4756 13.4056 16.6422 14.0163 16.3682 14.4958C16.0942 14.9754 15.4834 15.1419 15.0039 14.8679L11.5039 12.8679C11.1923 12.6899 11 12.3586 11 11.9998V5.99976Z" fill="currentColor" />
</svg>