<svg xmlns="http://www.w3.org/2000/svg" width="24" height="24" viewBox="0 0 24 24" fill="none">
    <path opacity="0.4" fill-rule="evenodd" clip-rule="evenodd" d="M5.80872 7.19494C5.8652 7.13709 5.88991 7.03908 5.93931 6.84308C6.62272 4.13177 9.07671 2.12524 12 2.12524C15.2149 2.12524 17.8628 4.55256 18.2112 7.67448C18.2385 7.91984 18.2522 8.04254 18.3147 8.11353C18.3772 8.18451 18.4989 8.21404 18.7423 8.2731C21.0422 8.83113 22.75 10.9037 22.75 13.3752C22.75 16.2747 20.3995 18.6252 17.5 18.6252H16.6412H15.4024C15.6091 18.2145 15.9458 17.3466 15.5566 16.3625L15.459 16.1458L15.3438 15.9377C15.0387 15.4408 14.6295 15.1417 14.248 14.9592L14.7998 14.2249C15.5449 13.2308 15.3434 11.821 14.3496 11.0754C13.3555 10.3299 11.9448 10.5315 11.1992 11.5256L9.39941 13.925L9.34759 13.994C9.1345 14.2774 8.84552 14.6617 8.65039 15.0208C8.44682 15.3954 7.95659 16.4377 8.54004 17.6047C8.78097 18.0866 9.11503 18.4085 9.45377 18.6252H8.06437H7C3.82436 18.6252 1.25 16.0509 1.25 12.8752C1.25 10.2335 3.03106 8.00844 5.45825 7.33443C5.65424 7.28 5.75224 7.25279 5.80872 7.19494Z" fill="currentColor" />
    <path d="M12.1998 12.2757C12.5312 11.8338 13.1584 11.7441 13.6002 12.0755C14.0417 12.4068 14.1313 13.0332 13.8004 13.4749L11.9996 15.8753C12.4019 15.8753 12.8186 15.8724 13.1442 15.9202C13.4624 15.9669 14.0437 16.109 14.3414 16.7044C14.6392 17.2999 14.4042 17.8505 14.2506 18.1331C14.0935 18.4222 13.8416 18.7537 13.6002 19.0755L11.8004 21.4749C11.4691 21.9167 10.8419 22.0065 10.4 21.6751C9.95839 21.3438 9.86878 20.7175 10.1998 20.2757L11.9996 17.8753C11.5976 17.8753 11.1815 17.8781 10.8561 17.8304C10.5379 17.7837 9.95662 17.6415 9.65882 17.0462C9.36106 16.4507 9.59604 15.9001 9.74964 15.6175C9.90677 15.3284 10.1587 14.9968 10.4 14.6751L12.1998 12.2757Z" fill="currentColor" />
</svg>