<svg xmlns="http://www.w3.org/2000/svg" width="24" height="24" viewBox="0 0 24 24" fill="none">
    <path d="M16.37 12.125C16.37 10.4683 15.0266 9.12526 13.37 9.125C12.841 9.125 12.3463 9.2608 11.9169 9.49902C11.434 9.76694 10.8255 9.59306 10.5575 9.11035C10.2896 8.62752 10.4634 8.01903 10.9462 7.75098C11.6649 7.35213 12.4928 7.125 13.37 7.125C16.1312 7.12526 18.37 9.36373 18.37 12.125C18.37 12.555 18.3148 12.9737 18.2118 13.374C18.0741 13.9089 17.5289 14.2314 16.994 14.0938C16.4593 13.956 16.1377 13.4107 16.2753 12.876C16.3367 12.6371 16.37 12.3855 16.37 12.125Z" fill="currentColor" />
    <path d="M21.8759 10.6201C22.4282 10.6201 22.8759 11.0678 22.8759 11.6201C22.8758 12.1723 22.4281 12.6201 21.8759 12.6201H20.8759C20.3237 12.6201 19.876 12.1723 19.8759 11.6201C19.8759 11.0678 20.3236 10.6201 20.8759 10.6201H21.8759ZM6.66203 4.9043C7.05256 4.51378 7.68557 4.51377 8.0761 4.9043L8.78313 5.61133C9.17365 6.00185 9.17365 6.63487 8.78313 7.02539C8.3926 7.41591 7.75959 7.41591 7.36907 7.02539L6.66203 6.31836C6.27151 5.92783 6.27151 5.29482 6.66203 4.9043ZM18.6757 4.9043C19.0662 4.51377 19.6992 4.51377 20.0898 4.9043C20.4802 5.29483 20.4803 5.92785 20.0898 6.31836L19.3827 7.02539C18.9922 7.41587 18.3592 7.41585 17.9687 7.02539C17.5782 6.63487 17.5782 6.00185 17.9687 5.61133L18.6757 4.9043ZM12.371 4.125V3.125C12.371 2.57272 12.8187 2.125 13.371 2.125C13.9232 2.12506 14.371 2.57275 14.371 3.125V4.125C14.371 4.67725 13.9232 5.12494 13.371 5.125C12.8187 5.125 12.371 4.67728 12.371 4.125Z" fill="currentColor" />
    <path d="M9.875 20.875V18.875C9.875 18.3227 10.3227 17.875 10.875 17.875C11.4273 17.875 11.875 18.3227 11.875 18.875V20.875C11.875 21.4273 11.4273 21.875 10.875 21.875C10.3227 21.875 9.875 21.4273 9.875 20.875Z" fill="currentColor" />
    <path d="M5.875 19.875V17.875C5.875 17.3227 6.32272 16.875 6.875 16.875C7.42728 16.875 7.875 17.3227 7.875 17.875V19.875C7.875 20.4273 7.42728 20.875 6.875 20.875C6.32272 20.875 5.875 20.4273 5.875 19.875Z" fill="currentColor" />
    <path opacity="0.4" fill-rule="evenodd" clip-rule="evenodd" d="M4.41152 13.9084C4.45224 13.8681 4.47005 13.7998 4.50567 13.6632C4.99836 11.7735 6.76751 10.375 8.875 10.375C11.1927 10.375 13.1017 12.0668 13.3528 14.2427C13.3725 14.4137 13.3824 14.4992 13.4275 14.5487C13.4725 14.5981 13.5603 14.6187 13.7357 14.6599C15.3938 15.0488 16.625 16.4934 16.625 18.2159C16.625 20.2203 14.958 21.8482 12.8913 21.8747C13.0409 21.5735 13.125 21.2341 13.125 20.875V18.875C13.125 17.6324 12.1176 16.625 10.875 16.625C10.1502 16.625 9.50539 16.9677 9.09389 17.5C8.91536 16.4359 7.98987 15.625 6.875 15.625C5.63236 15.625 4.625 16.6324 4.625 17.875V19.875C4.625 20.7457 5.11961 21.5009 5.8432 21.875H5.27035C2.98094 21.875 1.125 20.0807 1.125 17.8674C1.125 16.0262 2.40902 14.4754 4.15886 14.0056C4.30015 13.9677 4.3708 13.9487 4.41152 13.9084Z" fill="currentColor" />
</svg>