<svg xmlns="http://www.w3.org/2000/svg" width="24" height="24" viewBox="0 0 24 24" fill="none">
    <path opacity="0.4" fill-rule="evenodd" clip-rule="evenodd" d="M5.85254 6.74023C3.22647 7.27235 1.25 9.5922 1.25 12.375C1.25 14.6521 2.57372 16.6188 4.49023 17.5498C4.59234 17.5994 4.70485 17.625 4.81836 17.625H6.46651C6.07439 17.1641 5.93707 16.6662 5.88477 16.4551C5.80955 16.1514 5.77818 15.8547 5.76367 15.6201C5.73424 15.144 5.75631 14.6302 5.78613 14.207C5.81702 13.769 5.86246 13.3544 5.89941 13.0547C5.91806 12.9035 5.93482 12.7778 5.94727 12.6885L5.95475 12.6338C5.95749 12.6136 5.95985 12.5962 5.96191 12.582C5.96299 12.5747 5.96409 12.5682 5.96504 12.5625L5.9668 12.5518L5.96875 12.5381C6.15531 11.3097 7.30277 10.464 8.53125 10.6504C9.12034 10.7398 9.61872 11.0521 9.95996 11.4863C10.5522 11.2629 11.2285 11.125 12 11.125C15.4518 11.125 18.25 13.9232 18.25 17.375C18.25 17.4587 18.2484 17.5421 18.2451 17.625H19.5635C19.6833 17.625 19.8017 17.5961 19.9082 17.541C21.5946 16.6691 22.75 14.9077 22.75 12.875C22.75 10.2285 20.7917 8.03957 18.2451 7.67773C18.1409 4.31726 15.3858 1.625 12 1.625C8.93559 1.625 6.38655 3.82989 5.85254 6.74023Z" fill="currentColor" />
    <path d="M14.9999 17.3747C14.9999 15.7179 13.6567 14.3747 11.9999 14.3747C11.107 14.3747 10.4795 14.7926 10.0204 15.3396C10.3546 15.3142 10.6761 15.28 10.9217 15.2497C11.0535 15.2335 11.1623 15.2192 11.2372 15.2087C11.2746 15.2035 11.304 15.1988 11.3231 15.196C11.3327 15.1946 11.3401 15.1938 11.3446 15.1931L11.3495 15.1921C11.8955 15.1093 12.4052 15.485 12.4882 16.031C12.571 16.5769 12.1961 17.0866 11.6503 17.1697H11.6483L11.6464 17.1706C11.6445 17.1709 11.6416 17.1712 11.6385 17.1716C11.6322 17.1726 11.6234 17.1739 11.6122 17.1755C11.5891 17.1789 11.5555 17.1834 11.5135 17.1892C11.4298 17.2009 11.3107 17.2174 11.1669 17.2351C10.8804 17.2704 10.489 17.3127 10.0799 17.3415C9.67747 17.3699 9.22698 17.3874 8.8319 17.363C8.63605 17.3509 8.42215 17.327 8.22057 17.2771C8.04986 17.2348 7.73758 17.1398 7.4862 16.8884C7.23482 16.637 7.13983 16.3248 7.09753 16.154C7.04763 15.9525 7.02371 15.7386 7.01159 15.5427C6.98717 15.1476 7.0047 14.6971 7.03307 14.2947C7.06192 13.8856 7.10419 13.4942 7.13952 13.2078C7.15726 13.0639 7.17374 12.9449 7.18542 12.8611C7.19126 12.8191 7.19572 12.7856 7.19909 12.7624C7.20073 12.7512 7.20206 12.7424 7.203 12.7361C7.20346 12.733 7.2037 12.7301 7.20397 12.7283L7.20495 12.7263V12.7244C7.28798 12.1785 7.79771 11.8036 8.34362 11.8865C8.88956 11.9694 9.26534 12.4792 9.18249 13.0251L9.18151 13.03C9.18084 13.0345 9.17997 13.042 9.17858 13.0515C9.17579 13.0707 9.1711 13.1 9.16589 13.1374C9.15649 13.2049 9.14406 13.2995 9.12975 13.4138C9.82545 12.8273 10.7579 12.3747 11.9999 12.3747C14.7613 12.3747 16.9999 14.6133 16.9999 17.3747C16.9999 20.1362 14.7613 22.3747 11.9999 22.3747C10.5064 22.3747 9.16459 21.7187 8.24987 20.6824C7.88462 20.2684 7.92411 19.6367 8.33776 19.2712C8.75183 18.9058 9.38441 18.9451 9.74987 19.3591C10.301 19.9834 11.1041 20.3747 11.9999 20.3747C13.6567 20.3747 14.9999 19.0316 14.9999 17.3747Z" fill="currentColor" />
</svg>