<svg xmlns="http://www.w3.org/2000/svg" width="24" height="24" viewBox="0 0 24 24" fill="none">
    <path d="M7 18.875V17.875C7 17.3227 7.44772 16.875 8 16.875C8.55228 16.875 9 17.3227 9 17.875V18.875C9 19.4273 8.55228 19.875 8 19.875C7.44772 19.875 7 19.4273 7 18.875Z" fill="currentColor" />
    <path d="M7 13.875V12.875C7 12.3227 7.44772 11.875 8 11.875C8.55228 11.875 9 12.3227 9 12.875V13.875C9 14.4273 8.55228 14.875 8 14.875C7.44772 14.875 7 14.4273 7 13.875Z" fill="currentColor" />
    <path d="M15 18.875V17.875C15 17.3227 15.4477 16.875 16 16.875C16.5523 16.875 17 17.3227 17 17.875V18.875C17 19.4273 16.5523 19.875 16 19.875C15.4477 19.875 15 19.4273 15 18.875Z" fill="currentColor" />
    <path d="M15 13.875V12.875C15 12.3227 15.4477 11.875 16 11.875C16.5523 11.875 17 12.3227 17 12.875V13.875C17 14.4273 16.5523 14.875 16 14.875C15.4477 14.875 15 14.4273 15 13.875Z" fill="currentColor" />
    <path d="M11 20.875V19.875C11 19.3227 11.4477 18.875 12 18.875C12.5523 18.875 13 19.3227 13 19.875V20.875C13 21.4273 12.5523 21.875 12 21.875C11.4477 21.875 11 21.4273 11 20.875Z" fill="currentColor" />
    <path d="M11 15.875V14.875C11 14.3227 11.4477 13.875 12 13.875C12.5523 13.875 13 14.3227 13 14.875V15.875C13 16.4273 12.5523 16.875 12 16.875C11.4477 16.875 11 16.4273 11 15.875Z" fill="currentColor" />
    <path opacity="0.4" d="M5.85254 7.24023C3.22647 7.77235 1.25 10.0922 1.25 12.875C1.25 14.7566 2.15491 16.4268 3.5498 17.4746C3.6765 17.5698 3.82985 17.6225 3.98828 17.625L5.76093 17.6518C5.81952 17.0568 6.1099 16.5299 6.54055 16.1625C6.67107 16.0511 6.81447 15.9545 6.9682 15.875C6.24461 15.5009 5.75 14.7457 5.75 13.875V12.875C5.75 11.6324 6.75736 10.625 8 10.625C9.24264 10.625 10.25 11.6324 10.25 12.875V13.4607C10.6625 12.9509 11.2932 12.625 12 12.625C12.7068 12.625 13.3375 12.9509 13.75 13.4607V12.875C13.75 11.6324 14.7574 10.625 16 10.625C17.2426 10.625 18.25 11.6324 18.25 12.875V13.875C18.25 14.7457 17.7554 15.5009 17.0318 15.875C17.2586 15.9923 17.463 16.147 17.6366 16.331C18.0096 16.7262 18.2411 17.2566 18.2497 17.8409L19.9883 17.8672C20.1407 17.8695 20.2903 17.825 20.417 17.7402C21.8221 16.7997 22.75 15.196 22.75 13.375C22.75 10.7285 20.7917 8.53957 18.2451 8.17773C18.1409 4.81726 15.3858 2.125 12 2.125C8.93559 2.125 6.38655 4.32989 5.85254 7.24023Z" fill="currentColor" />
</svg>