<svg xmlns="http://www.w3.org/2000/svg" width="24" height="24" viewBox="0 0 24 24" fill="none">
    <path opacity="0.4" fill-rule="evenodd" clip-rule="evenodd" d="M5.80872 7.1947C5.8652 7.13684 5.88991 7.03884 5.93931 6.84283C6.62272 4.13153 9.07671 2.125 12 2.125C15.2149 2.125 17.8628 4.55231 18.2112 7.67424C18.2385 7.91959 18.2522 8.0423 18.3147 8.11328C18.3772 8.18427 18.4989 8.2138 18.7423 8.27286C21.0422 8.83089 22.75 10.9035 22.75 13.375C22.75 16.0199 20.7942 18.2079 18.25 18.5718V13.875C18.25 12.6324 17.2426 11.625 16 11.625C14.7574 11.625 13.75 12.6324 13.75 13.875V14.4607C13.3375 13.9509 12.7068 13.625 12 13.625C11.2932 13.625 10.6625 13.9509 10.25 14.4607V13.875C10.25 12.6324 9.24264 11.625 8 11.625C6.75736 11.625 5.75 12.6324 5.75 13.875V18.4887C3.17541 17.918 1.25 15.6214 1.25 12.875C1.25 10.2333 3.03106 8.0082 5.45825 7.33419C5.65424 7.27976 5.75224 7.25255 5.80872 7.1947Z" fill="currentColor" />
    <path d="M15 18.875V13.875C15 13.3227 15.4477 12.875 16 12.875C16.5523 12.875 17 13.3227 17 13.875V18.875C17 19.4273 16.5523 19.875 16 19.875C15.4477 19.875 15 19.4273 15 18.875Z" fill="currentColor" />
    <path d="M7 18.875V13.875C7 13.3227 7.44772 12.875 8 12.875C8.55228 12.875 9 13.3227 9 13.875V18.875C9 19.4273 8.55228 19.875 8 19.875C7.44772 19.875 7 19.4273 7 18.875Z" fill="currentColor" />
    <path d="M11 20.875V15.875C11 15.3227 11.4477 14.875 12 14.875C12.5523 14.875 13 15.3227 13 15.875V20.875C13 21.4273 12.5523 21.875 12 21.875C11.4477 21.875 11 21.4273 11 20.875Z" fill="currentColor" />
</svg>