<svg xmlns="http://www.w3.org/2000/svg" width="24" height="24" viewBox="0 0 24 24" fill="none">
    <path d="M15 15.5C15.5523 15.5 16 15.9477 16 16.5C16 17.0523 15.5523 17.5 15 17.5H8C7.44772 17.5 7 17.0523 7 16.5C7 15.9477 7.44772 15.5 8 15.5H15Z" fill="currentColor" />
    <path d="M16 19.5C16.5523 19.5 17 19.9477 17 20.5C17 21.0523 16.5523 21.5 16 21.5H10C9.44772 21.5 9 21.0523 9 20.5C9 19.9477 9.44772 19.5 10 19.5H16Z" fill="currentColor" />
    <path opacity="0.4" fill-rule="evenodd" clip-rule="evenodd" d="M19.25 18.7012C19.167 18.7305 19.0792 18.7451 18.9912 18.7441L17.3838 18.7258C17.0956 18.5006 16.7511 18.3442 16.375 18.2811C16.9073 17.8696 17.25 17.2248 17.25 16.5C17.25 15.2574 16.2426 14.25 15 14.25H8C6.75736 14.25 5.75 15.2574 5.75 16.5C5.75 17.4667 6.35964 18.291 7.21542 18.6094L4.99121 18.584C4.89101 18.5828 4.79205 18.5615 4.7002 18.5215C2.67097 17.6349 1.25 15.609 1.25 13.25C1.25 10.4672 3.22647 8.14735 5.85254 7.61523C6.38655 4.70489 8.93559 2.5 12 2.5C15.3858 2.5 18.1409 5.19226 18.2451 8.55273C20.7917 8.91457 22.75 11.1035 22.75 13.75C22.75 16.037 21.2881 17.9808 19.25 18.7012Z" fill="currentColor" />
</svg>