<svg xmlns="http://www.w3.org/2000/svg" width="24" height="24" viewBox="0 0 24 24" fill="none">
    <path d="M9.87305 21V19C9.87305 18.4477 10.3208 18 10.873 18C11.4253 18 11.873 18.4477 11.873 19V21C11.873 21.5523 11.4253 22 10.873 22C10.3208 22 9.87305 21.5523 9.87305 21Z" fill="currentColor" />
    <path d="M15.4748 2.04368C15.8506 1.95256 16.2309 2.00523 16.5558 2.19016C16.8634 2.36532 17.0665 2.62646 17.1906 2.87473C17.43 3.35392 17.4664 3.96485 17.2423 4.49973C17.0467 4.96702 16.9905 5.48649 17.0832 5.98899C17.1759 6.49114 17.4118 6.9485 17.755 7.30345C18.0982 7.65815 18.5332 7.89393 19.0002 7.98606C19.4085 8.06655 19.8292 8.03482 20.2218 7.89427L20.3879 7.82786C20.9295 7.58505 21.5511 7.62473 22.0334 7.88157C22.5555 8.15981 23.0192 8.78053 22.8332 9.59251C22.6161 10.5401 22.1872 11.4251 21.5783 12.1755C20.9693 12.9259 20.1968 13.5218 19.3205 13.9128C18.8161 14.1378 18.2242 13.9113 17.9992 13.407C17.7744 12.9027 18.0009 12.3117 18.505 12.0866C19.0902 11.8256 19.6116 11.4249 20.0256 10.9148C20.2855 10.5944 20.4979 10.2361 20.6574 9.85227C19.9953 10.0469 19.2952 10.0837 18.6125 9.94895C17.7386 9.77655 16.9395 9.33703 16.3175 8.69407C15.6961 8.05152 15.2793 7.23453 15.1164 6.3513C14.9868 5.64895 15.0249 4.92803 15.2189 4.24583C14.6726 4.4997 14.1801 4.87471 13.7824 5.35423C13.5215 5.66891 13.3071 6.02017 13.1447 6.39622C12.9257 6.90319 12.3372 7.13662 11.8302 6.9177C11.3233 6.69874 11.0898 6.11025 11.3088 5.60325C11.5454 5.05514 11.8592 4.54009 12.2433 4.07688C13.0802 3.06797 14.2095 2.35366 15.4718 2.04368H15.4748Z" fill="currentColor" />
    <path d="M5.87305 20V18C5.87305 17.4477 6.32076 17 6.87305 17C7.42533 17 7.87305 17.4477 7.87305 18V20C7.87305 20.5523 7.42533 21 6.87305 21C6.32076 21 5.87305 20.5523 5.87305 20Z" fill="currentColor" />
    <path opacity="0.4" fill-rule="evenodd" clip-rule="evenodd" d="M4.40957 11.7834C4.45029 11.7431 4.4681 11.6748 4.50371 11.5382C4.9964 9.64849 6.76556 8.25 8.87305 8.25C11.1908 8.25 13.0997 9.94176 13.3509 12.1177C13.3706 12.2887 13.3805 12.3742 13.4255 12.4237C13.4706 12.4731 13.5583 12.4937 13.7338 12.5349C15.3918 12.9238 16.623 14.3684 16.623 16.0909C16.623 18.0191 15.0803 19.599 13.123 19.7398V19C13.123 17.7574 12.1157 16.75 10.873 16.75C10.1482 16.75 9.50344 17.0927 9.09194 17.625C8.91341 16.5609 7.98792 15.75 6.87305 15.75C5.63041 15.75 4.62305 16.7574 4.62305 18V19.7017C2.64013 19.4021 1.12305 17.7435 1.12305 15.7424C1.12305 13.9012 2.40707 12.3504 4.1569 11.8806C4.2982 11.8427 4.36885 11.8237 4.40957 11.7834Z" fill="currentColor" />
</svg>