<svg xmlns="http://www.w3.org/2000/svg" width="24" height="24" viewBox="0 0 24 24" fill="none">
    <path d="M15.793 14.6679C16.1835 14.2774 16.8165 14.2774 17.207 14.6679C17.5975 15.0584 17.5975 15.6914 17.207 16.082L12.207 21.082C11.8165 21.4725 11.1835 21.4725 10.793 21.082L8.79295 19.082C8.40243 18.6914 8.40243 18.0584 8.79295 17.6679C9.18348 17.2774 9.81649 17.2774 10.207 17.6679L11.5 18.9609L15.793 14.6679Z" fill="currentColor" />
    <path opacity="0.4" d="M5.85254 7.74017C3.22647 8.27229 1.25 10.5921 1.25 13.3749C1.25 15.734 2.67097 17.7598 4.7002 18.6464C4.79205 18.6865 4.89101 18.7077 4.99121 18.7089L7.27902 18.7351C7.19692 18.2262 7.29005 17.6945 7.55842 17.2373C7.65339 17.0755 7.77031 16.923 7.90918 16.7841C8.78786 15.9054 10.2121 15.9054 11.0908 16.7841L11.5 17.1933L14.9092 13.7841C15.7879 12.9054 17.2121 12.9054 18.0908 13.7841C18.9695 14.6628 18.9695 16.0871 18.0908 16.9658L17.7028 17.3538L16.2192 18.8374L18.9912 18.8691C19.0792 18.8701 19.167 18.8554 19.25 18.8261C21.2881 18.1057 22.75 16.162 22.75 13.8749C22.75 11.2284 20.7917 9.03951 18.2451 8.67767C18.1409 5.3172 15.3858 2.62494 12 2.62494C8.93559 2.62494 6.38655 4.82983 5.85254 7.74017Z" fill="currentColor" />
</svg>