<svg xmlns="http://www.w3.org/2000/svg" width="24" height="24" viewBox="0 0 24 24" fill="none">
    <path opacity="0.4" d="M11.9961 1.25C12.8793 1.25 13.7512 1.45311 14.542 1.84375C15.3328 2.23444 16.0221 2.80254 16.5537 3.50293C17.0852 4.20328 17.4448 5.0172 17.6035 5.87988C17.6861 6.3286 17.7025 6.75083 17.6875 7.11621C17.6772 7.36645 17.6711 7.53962 17.6709 7.66699C17.788 7.7193 17.9495 7.78595 18.1846 7.87988C18.6269 8.05665 19.0475 8.28868 19.4346 8.57129C20.1946 9.12628 20.804 9.86001 21.207 10.707C21.6101 11.5543 21.7939 12.4882 21.7412 13.4238C21.6885 14.3594 21.4008 15.267 20.9053 16.0645C20.4098 16.8618 19.7217 17.5242 18.9043 17.9922C18.0869 18.4601 17.1647 18.719 16.2217 18.7471C16.1037 18.7506 15.9858 18.7508 15.8682 18.7471C15.4573 18.734 15.159 18.7276 14.9375 18.7305C14.9727 18.8883 15.0232 19.0924 15.0938 19.3652L15.106 19.4125C15.2375 19.921 15.3552 20.3764 15.3984 20.751C15.4449 21.1542 15.4243 21.6082 15.1328 22.0166C15.1064 22.0537 15.0791 22.0901 15.0498 22.125C14.7274 22.5093 14.2926 22.6423 13.8906 22.6982C13.5177 22.7501 13.0479 22.7501 12.5236 22.75L12.4727 22.75H11.5332L11.4887 22.75C10.958 22.75 10.4825 22.7501 10.1055 22.6973C9.70033 22.6405 9.26287 22.5049 8.94043 22.1152C8.91721 22.0872 8.89445 22.0587 8.87305 22.0293C8.5756 21.6202 8.55307 21.1624 8.59863 20.7559C8.64072 20.3807 8.75752 19.9252 8.88797 19.4164L8.90234 19.3604C8.97263 19.0861 9.02172 18.8809 9.05664 18.7227C8.83469 18.7193 8.53546 18.7248 8.12305 18.7373C8.00542 18.7409 7.88753 18.741 7.76953 18.7373C6.82748 18.7078 5.90688 18.4477 5.09082 17.9795C4.27459 17.5111 3.58737 16.8487 3.09277 16.0518C2.59827 15.255 2.31146 14.3486 2.25879 13.4141C2.20617 12.4794 2.38968 11.5459 2.79199 10.6992C3.19427 9.85285 3.80268 9.11958 4.56152 8.56445C4.9612 8.27208 5.39609 8.03378 5.85449 7.85449C6.06634 7.77164 6.21291 7.71168 6.32031 7.66504C6.3191 7.5467 6.31471 7.38657 6.30371 7.15625C6.28339 6.73033 6.31195 6.30216 6.38965 5.87988C6.5484 5.01716 6.90789 4.2033 7.43945 3.50293C7.9711 2.80254 8.66033 2.23444 9.45117 1.84375C10.2418 1.45322 11.113 1.25006 11.9961 1.25Z" fill="currentColor" />
</svg>