<svg xmlns="http://www.w3.org/2000/svg" width="24" height="24" viewBox="0 0 24 24" fill="none">
    <path d="M14.0639 3.64889C14.258 3.13199 14.835 2.87005 15.352 3.06393C15.8689 3.25797 16.1309 3.835 15.937 4.35202L9.93698 20.352C9.74294 20.8689 9.16591 21.1309 8.64889 20.937C8.13199 20.7429 7.87005 20.1659 8.06393 19.6489L14.0639 3.64889Z" fill="currentColor" />
    <path opacity="0.4" d="M5.40723 7.19444C5.8519 6.86726 6.47825 6.96276 6.80566 7.40733C7.13284 7.85201 7.03735 8.47835 6.59277 8.80577L6.59082 8.80675C6.58925 8.80791 6.58718 8.81024 6.58398 8.81261C6.5772 8.81763 6.56646 8.82484 6.55273 8.83507C6.52504 8.85571 6.48354 8.88693 6.43066 8.92687C6.32492 9.00673 6.17281 9.12228 5.99023 9.26476C5.62362 9.55086 5.1378 9.94054 4.65527 10.3595C4.16777 10.7827 3.70602 11.2171 3.37402 11.5929C3.22796 11.7582 3.12471 11.8954 3.05664 12.0001C3.12471 12.1048 3.22797 12.242 3.37402 12.4073C3.70602 12.7831 4.16778 13.2175 4.65527 13.6407C5.13779 14.0597 5.62362 14.4493 5.99023 14.7355C6.17281 14.8779 6.32493 14.9935 6.43066 15.0733C6.48353 15.1133 6.52504 15.1445 6.55273 15.1651C6.56646 15.1754 6.5772 15.1826 6.58398 15.1876C6.58719 15.19 6.58925 15.1923 6.59082 15.1935L6.59277 15.1944C7.03747 15.522 7.1322 16.1482 6.80469 16.5929C6.47726 17.0374 5.85187 17.1329 5.40723 16.8058V16.8048H5.40527C5.40461 16.8043 5.40443 16.8027 5.40332 16.8019C5.40105 16.8002 5.39766 16.7981 5.39355 16.795C5.38523 16.7889 5.37287 16.7802 5.35742 16.7687C5.32652 16.7456 5.28209 16.7117 5.22559 16.6691C5.11263 16.5837 4.95195 16.4616 4.75977 16.3116C4.37645 16.0125 3.86211 15.5997 3.34473 15.1505C2.83223 14.7055 2.29398 14.2046 1.87598 13.7316C1.66808 13.4963 1.46819 13.2447 1.31543 12.9913C1.19625 12.7936 1.04403 12.4971 1.00781 12.1515L1 12.0001L1.00781 11.8487C1.04402 11.503 1.19624 11.2066 1.31543 11.0089C1.46819 10.7556 1.66807 10.504 1.87598 10.2687C2.29398 9.79558 2.83223 9.29469 3.34473 8.84972C3.86212 8.40051 4.37644 7.98773 4.75977 7.68858C4.95194 7.53862 5.11263 7.41648 5.22559 7.33116C5.28207 7.2885 5.32652 7.25458 5.35742 7.23155C5.37287 7.22004 5.38523 7.21135 5.39355 7.20519C5.39768 7.20213 5.40104 7.19905 5.40332 7.19737C5.40422 7.19671 5.40471 7.19584 5.40527 7.19542H5.40723V7.19444Z" fill="currentColor" />
    <path opacity="0.4" d="M17.1953 7.4073C17.5227 6.96279 18.1481 6.86726 18.5928 7.19441V7.19538H18.5947C18.5954 7.19587 18.5956 7.19749 18.5967 7.19831C18.5989 7.19999 18.6023 7.20211 18.6064 7.20515C18.6148 7.21131 18.6271 7.22 18.6426 7.23152C18.6735 7.25455 18.7179 7.28845 18.7744 7.33112C18.8874 7.41644 19.048 7.53856 19.2402 7.68855C19.6235 7.98769 20.1379 8.40046 20.6553 8.84968C21.1678 9.29466 21.706 9.79554 22.124 10.2686C22.3319 10.5039 22.5318 10.7555 22.6846 11.0089C22.8208 11.2349 23 11.5898 23 12.0001C23 12.4103 22.8208 12.7653 22.6846 12.9913C22.5318 13.2446 22.3319 13.4962 22.124 13.7315C21.706 14.2046 21.1678 14.7055 20.6553 15.1505C20.1379 15.5997 19.6235 16.0124 19.2402 16.3116C19.048 16.4616 18.8874 16.5837 18.7744 16.669C18.7179 16.7117 18.6735 16.7456 18.6426 16.7686C18.6271 16.7801 18.6148 16.7888 18.6064 16.795C18.6023 16.798 18.5989 16.8011 18.5967 16.8028C18.5958 16.8035 18.5953 16.8043 18.5947 16.8048H18.5928V16.8057C18.1481 17.1329 17.5217 17.0374 17.1943 16.5928C16.8671 16.1482 16.9626 15.5218 17.4072 15.1944L17.4092 15.1934C17.4107 15.1923 17.4128 15.1899 17.416 15.1876C17.4228 15.1825 17.4335 15.1753 17.4473 15.1651C17.4749 15.1445 17.5165 15.1132 17.5693 15.0733C17.6751 14.9934 17.8272 14.8779 18.0098 14.7354C18.3764 14.4493 18.8622 14.0596 19.3447 13.6407C19.8322 13.2174 20.294 12.783 20.626 12.4073C20.7718 12.2422 20.8743 12.1047 20.9424 12.0001C20.8743 11.8954 20.7718 11.7579 20.626 11.5928C20.294 11.2171 19.8322 10.7827 19.3447 10.3594C18.8622 9.9405 18.3764 9.55083 18.0098 9.26472C17.8272 9.12223 17.6751 9.00669 17.5693 8.92683C17.5165 8.88689 17.4749 8.85567 17.4473 8.83503C17.4335 8.8248 17.4228 8.8176 17.416 8.81257C17.4128 8.8102 17.4107 8.80787 17.4092 8.80671L17.4072 8.80573C16.9625 8.47822 16.8678 7.85199 17.1953 7.4073Z" fill="currentColor" />
</svg>