<svg xmlns="http://www.w3.org/2000/svg" width="24" height="24" viewBox="0 0 24 24" fill="none">
    <path opacity="0.4" d="M3.12844 4.26901C3.21729 4.14108 3.40944 4.18667 3.44484 4.33835C3.6032 5.11078 4.18663 6.2973 5.11965 7.39499C5.77741 8.16876 6.63823 8.93395 7.70168 9.4946C8.05086 9.67867 8.22594 9.77084 8.25637 9.90573C8.28645 10.0405 8.17059 10.1949 7.93996 10.5034C7.24693 11.4305 6.70467 12.428 6.33254 13.4497C6.17425 13.8843 6.09433 14.1018 5.93508 14.1382C5.776 14.1741 5.62039 14.0218 5.3091 13.7182C5.2374 13.6483 5.17302 13.5852 5.11769 13.5298C3.59912 12.011 2.64076 10.175 2.34621 8.40768C2.09844 6.921 2.31825 5.43586 3.12844 4.26901ZM5.06594 2.68503C6.07709 2.24515 7.24195 2.15187 8.40773 2.34616C10.1749 2.64069 12.0111 3.59924 13.5298 5.11764C13.5894 5.17708 13.6557 5.24435 13.727 5.31784C14.0246 5.62457 14.1735 5.77812 14.1372 5.93698C14.1006 6.09599 13.8857 6.17461 13.4565 6.33053C12.1985 6.78764 10.9774 7.5034 9.87844 8.43991C9.7518 8.54783 9.68812 8.60153 9.61086 8.61667C9.53337 8.63167 9.46115 8.60802 9.31789 8.56003C8.03641 8.13065 7.01216 7.30558 6.26222 6.42331C5.43653 5.45188 5.00422 4.48387 4.91359 4.03073C4.91201 4.02284 4.90957 4.01513 4.90773 4.00729C4.86382 3.8199 4.81158 3.57252 4.75832 3.2944C4.71925 3.09036 4.69943 2.98806 4.74855 2.89499C4.79768 2.80192 4.88719 2.7628 5.06594 2.68503Z" fill="currentColor" />
    <path d="M20.6409 9.78157C20.8556 9.73127 20.9633 9.70647 21.0598 9.75423C21.1562 9.80204 21.1983 9.89507 21.2815 10.0804C21.7511 11.1271 21.8531 12.3402 21.6506 13.555C21.3486 15.3667 20.366 17.2498 18.8079 18.8079C17.2496 20.3662 15.3658 21.3487 13.554 21.6507C12.0299 21.9046 10.5095 21.6791 9.31568 20.8499C9.18158 20.7567 9.22715 20.5559 9.386 20.5179C9.40705 20.5129 9.42796 20.5072 9.4485 20.5003C9.56536 20.4614 9.70024 20.4202 9.84986 20.3753C10.5545 20.1638 11.5831 19.8555 12.5608 19.1585C13.787 18.2843 14.9154 16.8367 15.6018 14.3197C16.4142 11.341 18.8741 10.1591 19.9358 9.94661C19.9438 9.94501 19.9522 9.94262 19.9602 9.94075L20.6409 9.78157ZM15.4446 7.34895C16.9747 7.09394 18.5014 7.32233 19.6975 8.1595C19.8259 8.24953 19.7819 8.44208 19.6292 8.47786C18.1673 8.77535 15.1525 10.2659 14.1545 13.9251C13.5458 16.157 12.5963 17.2911 11.6907 17.9368C10.9347 18.4758 10.1909 18.7019 9.49244 18.9144C9.32768 18.9645 9.1655 19.0142 9.00611 19.0667L8.36256 19.22C8.14757 19.2714 8.0395 19.2977 7.94264 19.2503C7.84568 19.2027 7.80365 19.1092 7.71998 18.9232C7.24876 17.8755 7.14615 16.6611 7.34889 15.4447C7.65092 13.633 8.63349 11.7499 10.1917 10.1917C11.7498 8.63356 13.6329 7.65096 15.4446 7.34895Z" fill="currentColor" />
</svg>