<svg xmlns="http://www.w3.org/2000/svg" width="24" height="24" viewBox="0 0 24 24" fill="none">
    <path opacity="0.4" d="M8.00001 12V5.83301C7.60358 6.21546 7.176 6.67702 6.76075 7.15527C6.23334 7.76271 5.74404 8.37364 5.38477 8.83398C5.20563 9.06353 5.05955 9.25457 4.95899 9.3877C4.9089 9.45401 4.86985 9.506 4.84376 9.54102C4.83071 9.55852 4.82091 9.57235 4.81446 9.58105C4.81124 9.58541 4.80815 9.58879 4.80665 9.59082L4.80567 9.59277L4.74024 9.67188C4.39999 10.0476 3.82418 10.1118 3.40723 9.80469C2.96273 9.47726 2.86721 8.85187 3.19434 8.40723H3.19532V8.40625L3.1963 8.40527C3.19684 8.40454 3.1974 8.4035 3.19825 8.40234C3.20028 8.3996 3.20331 8.39566 3.20704 8.39062C3.21459 8.38043 3.22604 8.36574 3.24024 8.34668C3.26873 8.30845 3.31028 8.25279 3.36329 8.18262C3.46925 8.04233 3.62108 7.84255 3.80762 7.60352C4.17995 7.12643 4.69321 6.48714 5.25098 5.84473C5.80447 5.20726 6.42182 4.54397 7.00098 4.03223C7.28943 3.77736 7.59182 3.53853 7.89063 3.3584C8.16199 3.19482 8.55684 3.00001 9.00001 3C9.44317 3 9.83802 3.19482 10.1094 3.3584C10.4082 3.53854 10.7106 3.77736 10.999 4.03223C11.5782 4.54398 12.1955 5.20724 12.749 5.84473C13.3068 6.48716 13.8201 7.12641 14.1924 7.60352C14.3789 7.84254 14.5308 8.04232 14.6367 8.18262C14.6897 8.25279 14.7313 8.30845 14.7598 8.34668C14.774 8.36576 14.7854 8.38042 14.793 8.39062C14.7967 8.39567 14.7997 8.39959 14.8018 8.40234C14.8026 8.4035 14.8032 8.40454 14.8037 8.40527L14.8047 8.40625V8.40723H14.8057C15.1329 8.8519 15.0374 9.47825 14.5928 9.80566C14.1481 10.1328 13.5218 10.0373 13.1943 9.59277L13.1934 9.59082C13.1919 9.58879 13.1888 9.58541 13.1856 9.58105C13.1791 9.57235 13.1693 9.55851 13.1563 9.54102C13.1302 9.506 13.0911 9.454 13.041 9.3877C12.9405 9.25457 12.7944 9.06352 12.6152 8.83398C12.256 8.37363 11.7667 7.76271 11.2393 7.15527C10.824 6.67701 10.3964 6.21547 10 5.83301V12C10 13.9139 10.0023 15.2487 10.1377 16.2559C10.2692 17.2342 10.5099 17.7521 10.8789 18.1211C11.2479 18.4901 11.7658 18.7308 12.7441 18.8623C13.7513 18.9977 15.0861 19 17 19H20C20.5523 19 21 19.4477 21 20C21 20.5523 20.5523 21 20 21H17C15.1427 21 13.6489 21.0022 12.4775 20.8447C11.2775 20.6834 10.2674 20.3377 9.46485 19.5352C8.66232 18.7326 8.31664 17.7226 8.15528 16.5225C7.99779 15.3511 8.00001 13.8573 8.00001 12Z" fill="currentColor" />
</svg>