<svg xmlns="http://www.w3.org/2000/svg" width="24" height="24" viewBox="0 0 24 24" fill="none">
    <path opacity="0.4" d="M3 19.9999V16.9999C3 15.1426 2.99779 13.6489 3.15528 12.4775C3.31664 11.2774 3.66231 10.2673 4.46485 9.46479C5.26738 8.66226 6.27745 8.31658 7.47754 8.15522C8.64892 7.99773 10.1427 7.99995 12 7.99995H18.167C17.7845 7.60352 17.323 7.17594 16.8447 6.76069C16.2373 6.23328 15.6264 5.74398 15.166 5.38471C14.9365 5.20557 14.7454 5.05948 14.6123 4.95893C14.546 4.90884 14.494 4.86979 14.459 4.8437C14.4415 4.83065 14.4276 4.82085 14.4189 4.8144C14.4146 4.81118 14.4112 4.80809 14.4092 4.80659L14.4072 4.80561L14.3281 4.74018C13.9524 4.39993 13.8882 3.82412 14.1953 3.40717C14.5227 2.96267 15.1481 2.86714 15.5928 3.19428V3.19526H15.5938L15.5947 3.19624C15.5955 3.19677 15.5965 3.19734 15.5977 3.19819C15.6004 3.20021 15.6043 3.20325 15.6094 3.20698C15.6196 3.21453 15.6343 3.22597 15.6533 3.24018C15.6915 3.26867 15.7472 3.31022 15.8174 3.36323C15.9577 3.46919 16.1575 3.62102 16.3965 3.80756C16.8736 4.17989 17.5129 4.69315 18.1553 5.25092C18.7927 5.80441 19.456 6.42176 19.9678 7.00092C20.2226 7.28937 20.4615 7.59176 20.6416 7.89057C20.8052 8.16193 21 8.55678 21 8.99995C21 9.4431 20.8052 9.83796 20.6416 10.1093C20.4615 10.4081 20.2226 10.7105 19.9678 10.999C19.456 11.5781 18.7928 12.1955 18.1553 12.749C17.5128 13.3067 16.8736 13.82 16.3965 14.1923C16.1575 14.3789 15.9577 14.5307 15.8174 14.6367C15.7472 14.6897 15.6915 14.7312 15.6533 14.7597C15.6342 14.7739 15.6196 14.7854 15.6094 14.7929C15.6043 14.7967 15.6004 14.7997 15.5977 14.8017C15.5965 14.8026 15.5955 14.8031 15.5947 14.8037L15.5938 14.8046H15.5928V14.8056C15.1481 15.1328 14.5218 15.0373 14.1943 14.5927C13.8672 14.148 13.9627 13.5217 14.4072 13.1943L14.4092 13.1933C14.4112 13.1918 14.4146 13.1887 14.4189 13.1855C14.4276 13.179 14.4415 13.1692 14.459 13.1562C14.494 13.1301 14.546 13.091 14.6123 13.041C14.7454 12.9404 14.9365 12.7943 15.166 12.6152C15.6264 12.2559 16.2373 11.7666 16.8447 11.2392C17.323 10.824 17.7845 10.3964 18.167 9.99995H12C10.0861 9.99995 8.75128 10.0022 7.74414 10.1376C6.7658 10.2692 6.24792 10.5098 5.87891 10.8789C5.5099 11.2479 5.26924 11.7657 5.1377 12.7441C5.00229 13.7512 5 15.0861 5 16.9999V19.9999C5 20.5522 4.55229 20.9999 4 20.9999C3.44772 20.9999 3 20.5522 3 19.9999Z" fill="currentColor" />
</svg>