<svg xmlns="http://www.w3.org/2000/svg" width="24" height="24" viewBox="0 0 24 24" fill="none">
    <path opacity="0.4" d="M19 20V17C19 15.0861 18.9977 13.7513 18.8623 12.7441C18.7308 11.7658 18.4901 11.2479 18.1211 10.8789C17.7521 10.5099 17.2342 10.2692 16.2559 10.1377C15.2488 10.0023 13.9139 10 12 10H5.83304C6.2155 10.3964 6.67704 10.824 7.1553 11.2393C7.76274 11.7667 8.37366 12.256 8.83401 12.6152C9.06356 12.7944 9.2546 12.9405 9.38773 13.041C9.45403 13.0911 9.50603 13.1302 9.54105 13.1563C9.55854 13.1693 9.57238 13.1791 9.58109 13.1856C9.58544 13.1888 9.58882 13.1919 9.59085 13.1934L9.5928 13.1943C10.0374 13.5218 10.1329 14.1481 9.80569 14.5928C9.47828 15.0374 8.85193 15.1329 8.40726 14.8057V14.8047H8.40628L8.4053 14.8037C8.40457 14.8032 8.40353 14.8026 8.40237 14.8018C8.39962 14.7997 8.39571 14.7967 8.39066 14.793C8.38045 14.7854 8.36579 14.774 8.34671 14.7598C8.30848 14.7313 8.25282 14.6897 8.18265 14.6367C8.04235 14.5308 7.84257 14.3789 7.60355 14.1924C7.12644 13.8201 6.48719 13.3068 5.84476 12.749C5.20727 12.1955 4.54401 11.5782 4.03226 10.999C3.77739 10.7106 3.53857 10.4082 3.35843 10.1094C3.19485 9.83802 3.00003 9.44317 3.00003 9.00001C3.00004 8.55684 3.19485 8.16199 3.35843 7.89063C3.53857 7.59182 3.77739 7.28943 4.03226 7.00098C4.544 6.42182 5.20729 5.80447 5.84476 5.25098C6.48717 4.69321 7.12646 4.17995 7.60355 3.80762C7.84258 3.62108 8.04236 3.46925 8.18265 3.36329C8.25282 3.31028 8.30848 3.26873 8.34671 3.24024C8.36577 3.22604 8.38046 3.21459 8.39066 3.20704C8.39569 3.20331 8.39963 3.20028 8.40237 3.19825C8.40353 3.1974 8.40457 3.19684 8.4053 3.1963L8.40628 3.19532H8.40726V3.19434C8.8519 2.86721 9.47729 2.96273 9.80472 3.40723C10.1322 3.85193 10.0375 4.47816 9.5928 4.80567L9.59085 4.80665C9.58882 4.80815 9.58544 4.81124 9.58109 4.81446C9.57238 4.82091 9.55855 4.83071 9.54105 4.84376C9.50603 4.86985 9.45404 4.9089 9.38773 4.95899C9.2546 5.05955 9.06356 5.20563 8.83401 5.38477C8.37367 5.74404 7.76274 6.23334 7.1553 6.76075C6.67705 7.176 6.21549 7.60358 5.83304 8.00001H12C13.8574 8.00001 15.3511 7.99779 16.5225 8.15528C17.7226 8.31664 18.7327 8.66232 19.5352 9.46485C20.3377 10.2674 20.6834 11.2775 20.8448 12.4775C21.0022 13.6489 21 15.1427 21 17V20C21 20.5523 20.5523 21 20 21C19.4477 21 19 20.5523 19 20Z" fill="currentColor" />
</svg>