<svg xmlns="http://www.w3.org/2000/svg" width="24" height="24" viewBox="0 0 24 24" fill="none">
    <path opacity="0.4" d="M17.3201 3.492C17.4844 3.49106 17.6144 3.61733 17.8738 3.8709C18.2144 4.20371 18.5769 4.56712 18.9676 4.95782L19.0418 5.03204C20.1555 6.1457 21.0428 7.03189 21.6551 7.82305C22.2869 8.63958 22.6885 9.43124 22.742 10.3641C22.7578 10.6392 22.7489 10.916 22.7166 11.1912C22.608 12.1157 22.1678 12.9148 21.4969 13.7566C20.8407 14.5799 19.903 15.5165 18.7146 16.7049L16.7049 18.7146C15.5165 19.903 14.5799 20.8407 13.7566 21.4969C12.9148 22.1678 12.1157 22.608 11.1912 22.7166C10.916 22.7489 10.6392 22.7578 10.3641 22.742C9.43124 22.6885 8.63958 22.2869 7.82305 21.6551C7.03191 21.0428 6.14566 20.1554 5.03204 19.0418L4.95782 18.9676C4.5671 18.5769 4.2037 18.2143 3.8709 17.8738C3.61734 17.6144 3.49106 17.4844 3.492 17.3201C3.49298 17.1558 3.62283 17.0262 3.88262 16.7664L16.7664 3.88262C17.0262 3.62283 17.1558 3.49298 17.3201 3.492ZM13.6355 1.25762C14.2823 1.29471 14.8613 1.49932 15.4275 1.83184C15.7728 2.03463 15.9456 2.13621 15.9705 2.33086C15.9953 2.52553 15.8415 2.67947 15.534 2.98711L2.99004 15.5369C2.68246 15.8446 2.52847 15.9982 2.33379 15.9734C2.13905 15.9486 2.03696 15.7761 1.83379 15.4305C1.50033 14.8631 1.29471 14.2824 1.25762 13.6355C1.24185 13.3604 1.25069 13.0836 1.28301 12.8084C1.39162 11.8839 1.83178 11.0848 2.50274 10.243C3.15892 9.41968 4.09647 8.48223 5.28497 7.29376L7.29376 5.28497C8.48223 4.09648 9.41969 3.15892 10.243 2.50274C11.0848 1.83178 11.8839 1.39162 12.8084 1.28301C13.0836 1.25069 13.3604 1.24185 13.6355 1.25762Z" fill="currentColor" />
    <path d="M19.9998 20.7498C20.5521 20.7498 20.9998 21.1975 20.9998 21.7498C20.9998 22.3021 20.5521 22.7498 19.9998 22.7498H3.99981C3.44753 22.7498 2.99981 22.3021 2.99981 21.7498C2.99981 21.1975 3.44753 20.7498 3.99981 20.7498H19.9998ZM13.991 14.6219C14.2839 14.329 14.7587 14.329 15.0516 14.6219C15.3444 14.9148 15.3444 15.3895 15.0516 15.6824L14.1062 16.6277C13.8134 16.9206 13.3386 16.9206 13.0457 16.6277C12.7528 16.3349 12.7529 15.8601 13.0457 15.5672L13.991 14.6219ZM13.6355 1.25762C14.2823 1.29471 14.8613 1.49932 15.4275 1.83184C15.7728 2.03463 15.9456 2.13621 15.9705 2.33086C15.9953 2.52553 15.8415 2.67947 15.534 2.98711L2.99004 15.5369C2.68246 15.8446 2.52847 15.9982 2.33379 15.9734C2.13905 15.9486 2.03696 15.7761 1.83379 15.4305C1.50033 14.8631 1.29471 14.2824 1.25762 13.6355C1.24185 13.3604 1.25069 13.0836 1.28301 12.8084C1.39162 11.8839 1.83178 11.0848 2.50274 10.243C3.15892 9.41968 4.09647 8.48223 5.28497 7.29376L7.29376 5.28497C8.48223 4.09648 9.41969 3.15892 10.243 2.50274C11.0848 1.83178 11.8839 1.39162 12.8084 1.28301C13.0836 1.25069 13.3604 1.24185 13.6355 1.25762ZM18.0887 10.5242C18.3816 10.2314 18.8563 10.2313 19.1492 10.5242C19.442 10.8171 19.442 11.2919 19.1492 11.5848L16.9432 13.7908C16.6503 14.0837 16.1755 14.0837 15.8826 13.7908C15.5897 13.4979 15.5897 13.0232 15.8826 12.7303L18.0887 10.5242Z" fill="currentColor" />
</svg>