<svg xmlns="http://www.w3.org/2000/svg" width="24" height="24" viewBox="0 0 24 24" fill="none">
    <path d="M12 10.5C12.8284 10.5 13.5 11.1716 13.5 12C13.5 12.8284 12.8284 13.5 12 13.5C11.1716 13.5 10.5 12.8284 10.5 12C10.5 11.1716 11.1716 10.5 12 10.5Z" fill="currentColor" />
    <path opacity="0.4" d="M11.0012 1.99927L11.0012 3.0542C6.82961 3.51535 3.5173 6.82765 3.05615 10.9993L2.00122 10.9993C1.44894 10.9993 1.00122 11.447 1.00122 11.9993C1.00122 12.5516 1.44894 12.9993 2.00122 12.9993L3.05615 12.9993C3.5173 17.1709 6.82961 20.4832 11.0012 20.9443L11.0012 21.9993C11.0012 22.5516 11.4489 22.9993 12.0012 22.9993C12.5535 22.9993 13.0012 22.5516 13.0012 21.9993L13.0012 20.9443C17.1729 20.4832 20.4853 17.1707 20.9463 12.999L22.001 12.9993C22.5533 12.9994 23.0011 12.5518 23.0012 11.9995C23.0014 11.4472 22.5538 10.9994 22.0015 10.9993L20.9463 10.999C20.485 6.82752 17.1728 3.51534 13.0012 3.0542L13.0012 1.99927C13.0012 1.44698 12.5535 0.99927 12.0012 0.99927C11.4489 0.99927 11.0012 1.44698 11.0012 1.99927ZM11.0012 18.9284C7.93553 18.4899 5.51063 16.065 5.07211 12.9993L6.00122 12.9993C6.55351 12.9993 7.00122 12.5516 7.00122 11.9993C7.00122 11.447 6.55351 10.9993 6.00122 10.9993L5.07211 10.9993C5.51063 7.93358 7.93553 5.50867 11.0012 5.07016L11.0012 5.99927C11.0012 6.55155 11.4489 6.99927 12.0012 6.99927C12.5535 6.99927 13.0012 6.55155 13.0012 5.99927L13.0012 5.07016C16.0667 5.50864 18.4914 7.93318 18.9302 10.9985L18.0015 10.9983C17.4492 10.9982 17.0014 11.4458 17.0012 11.998C17.0011 12.5503 17.4487 12.9982 18.001 12.9983L18.9304 12.9985C18.4922 16.0646 16.0672 18.4898 13.0012 18.9284L13.0012 17.9993C13.0012 17.447 12.5535 16.9993 12.0012 16.9993C11.4489 16.9993 11.0012 17.447 11.0012 17.9993L11.0012 18.9284Z" fill="currentColor" />
</svg>