<svg xmlns="http://www.w3.org/2000/svg" width="24" height="24" viewBox="0 0 24 24" fill="none">
    <path fill-rule="evenodd" clip-rule="evenodd" d="M8.67585 15.3241C8.67534 15.3237 8.67657 15.3245 8.67585 15.3241C8.67685 15.326 8.68053 15.331 8.68259 15.336C8.69155 15.3578 8.70672 15.4064 8.7197 15.503C8.748 15.7137 8.74998 16.0076 8.74997 16.5V18.5L8.74995 18.5738C8.74975 18.9661 8.74959 19.2689 8.80271 19.5362C9.0197 20.6271 9.87295 21.4803 10.9638 21.6973C11.2312 21.7504 11.534 21.7503 11.9263 21.7501L12 21.75L12.0738 21.7501C12.4661 21.7503 12.7688 21.7504 13.0361 21.6973C14.127 21.4803 14.9802 20.6271 15.1972 19.5362C15.2503 19.2689 15.2502 18.9661 15.25 18.5738L15.25 18.5V16.5C15.25 16.0076 15.2519 15.7137 15.2802 15.503C15.2932 15.4064 15.3084 15.3578 15.3174 15.336C15.3188 15.3325 15.3233 15.3253 15.3252 15.3223C15.3271 15.3213 15.3309 15.3195 15.3359 15.3174C15.3577 15.3085 15.4063 15.2933 15.5029 15.2803C15.7136 15.252 16.0075 15.25 16.5 15.25H18.5L18.5738 15.2501C18.9661 15.2503 19.2688 15.2504 19.5361 15.1973C20.627 14.9803 21.4802 14.1271 21.6972 13.0362C21.7503 12.7689 21.7502 12.4662 21.75 12.0739L21.75 12L21.75 11.9262C21.7502 11.5339 21.7503 11.2312 21.6972 10.9639C21.4802 9.87301 20.627 9.01977 19.5361 8.80277C19.2688 8.74966 18.9661 8.74982 18.5738 8.75001L18.5 8.75004H16.5C16.0075 8.75004 15.7136 8.74807 15.5029 8.71977C15.4063 8.70678 15.3577 8.69162 15.3359 8.68266C15.332 8.68103 15.3269 8.67771 15.324 8.6759L8.67585 15.3241Z" fill="currentColor" />
    <path opacity="0.4" d="M15.324 8.67591L8.67586 15.3241C8.67239 15.3219 8.66692 15.3186 8.66405 15.3174C8.64227 15.3085 8.59362 15.2933 8.49706 15.2803C8.28635 15.252 7.99243 15.25 7.49999 15.25H5.49999L5.42615 15.2501C5.03388 15.2503 4.73114 15.2504 4.46385 15.1973C3.37296 14.9803 2.51972 14.1271 2.30272 13.0362C2.24961 12.7689 2.24976 12.4662 2.24996 12.0739L2.24999 12L2.24996 11.9262C2.24976 11.5339 2.24961 11.2312 2.30272 10.9639C2.51972 9.87302 3.37295 9.01978 4.46385 8.80278C4.73113 8.74967 5.03386 8.74983 5.42612 8.75002L5.49999 8.75005H7.49999C7.99243 8.75005 8.28635 8.74808 8.49706 8.71977C8.59362 8.70679 8.64227 8.69163 8.66405 8.68266C8.66904 8.68061 8.67287 8.67879 8.67479 8.67778C8.67666 8.67482 8.68118 8.66758 8.6826 8.66411C8.69157 8.64233 8.70673 8.59368 8.71971 8.49712C8.74802 8.28641 8.74999 7.99249 8.74999 7.50005V5.50005L8.74996 5.42621C8.74976 5.03394 8.74961 4.7312 8.80272 4.46392C9.01972 3.37302 9.87296 2.51978 10.9639 2.30278C11.2311 2.24967 11.5339 2.24983 11.9261 2.25002L12 2.25005L12.0738 2.25002C12.4661 2.24983 12.7688 2.24967 13.0361 2.30278C14.127 2.51978 14.9803 3.37302 15.1973 4.46392C15.2504 4.7312 15.2502 5.03394 15.25 5.42621L15.25 5.50005V7.50005C15.25 7.99249 15.252 8.28641 15.2803 8.49712C15.2932 8.59368 15.3084 8.64233 15.3174 8.66411C15.3188 8.66757 15.3225 8.6735 15.324 8.67591C15.3247 8.67697 15.3237 8.67532 15.324 8.67591Z" fill="currentColor" />
</svg>