<svg xmlns="http://www.w3.org/2000/svg" width="24" height="24" viewBox="0 0 24 24" fill="none">
    <path opacity="0.4" d="M17.5 13.25C19.8472 13.25 21.75 15.1528 21.75 17.5C21.75 19.8472 19.8472 21.75 17.5 21.75H6.5C4.15279 21.75 2.25 19.8472 2.25 17.5C2.25 15.1528 4.15279 13.25 6.5 13.25H17.5ZM17.5 2.25C19.8472 2.25 21.75 4.15279 21.75 6.5C21.75 8.84721 19.8472 10.75 17.5 10.75H6.5C4.15279 10.75 2.25 8.84721 2.25 6.5C2.25 4.15279 4.15279 2.25 6.5 2.25H17.5Z" fill="currentColor" />
    <path d="M17.5 15C18.8807 15 20 16.1193 20 17.5C20 18.8807 18.8807 20 17.5 20C16.1193 20 15 18.8807 15 17.5C15 16.1193 16.1193 15 17.5 15ZM6.5 4C7.88071 4 9 5.11929 9 6.5C9 7.88071 7.88071 9 6.5 9C5.11928 9 4 7.88071 4 6.5C4 5.11929 5.11928 4 6.5 4Z" fill="currentColor" />
</svg>