<svg xmlns="http://www.w3.org/2000/svg" width="24" height="24" viewBox="0 0 24 24" fill="none">
    <path d="M17.1943 13.5339C17.4505 13.0447 18.0546 12.8558 18.5439 13.112C19.0331 13.3683 19.222 13.9724 18.9658 14.4616L17.6376 16.9968C17.6514 16.9968 17.6654 16.9978 17.6796 16.9978H18.4804C18.8281 16.9978 19.1981 16.9949 19.4941 17.0368C19.7956 17.0796 20.2961 17.2031 20.6122 17.6911C20.9385 18.1951 20.8286 18.7114 20.7265 19.0095C20.6299 19.2912 20.4564 19.6154 20.3027 19.9089L18.9658 22.4616C18.7095 22.9509 18.1054 23.1397 17.6161 22.8835C17.1269 22.6273 16.9381 22.0231 17.1943 21.5339L18.5214 18.9978H17.6796C17.332 18.9978 16.9619 19.0006 16.6659 18.9587C16.3645 18.916 15.8639 18.7924 15.5478 18.3044C15.2215 17.8005 15.3314 17.2841 15.4335 16.986C15.5301 16.7044 15.7037 16.3801 15.8574 16.0866L17.1943 13.5339Z" fill="currentColor" />
    <path opacity="0.4" fill-rule="evenodd" clip-rule="evenodd" d="M2.99994 4.9978C2.99994 4.19491 3.43743 3.54974 3.96521 3.08181C4.49416 2.61285 5.2025 2.2362 5.99196 1.94015C7.57827 1.34529 9.70263 0.997803 11.9999 0.997803C14.2972 0.997803 16.4216 1.34529 18.0079 1.94015C18.7974 2.2362 19.5057 2.61285 20.0347 3.08181C20.5624 3.54974 20.9999 4.19491 20.9999 4.9978V9.98543C20.9999 10.9302 20.8466 11.4615 20.0419 11.9885C19.8851 12.0912 19.7191 12.1913 19.5442 12.2887C19.4178 12.1807 19.2775 12.085 19.124 12.0046C18.0232 11.4281 16.6634 11.8531 16.0869 12.9539L15.7374 13.6211C14.5129 13.8705 13.2287 13.9978 11.9999 13.9978C9.61123 13.9978 7.01347 13.5166 5.05074 12.593C4.64773 12.4033 4.28319 12.2015 3.958 11.9885C3.1533 11.4615 2.99994 10.9302 2.99994 9.98543V4.9978ZM6.57307 6.13625C5.97876 5.90231 5.55518 5.65059 5.29203 5.41728C4.93534 5.10105 4.93534 4.89456 5.29203 4.57833C5.57272 4.32946 6.03595 4.05966 6.69421 3.81281C8.00333 3.32189 9.87897 2.9978 11.9999 2.9978C14.1209 2.9978 15.9965 3.32189 17.3057 3.81281C17.9639 4.05966 18.4272 4.32946 18.7079 4.57833C19.0645 4.89456 19.0645 5.10105 18.7079 5.41728C18.4272 5.66615 17.9639 5.93595 17.3057 6.18279C15.9965 6.67372 14.1209 6.9978 11.9999 6.9978C11.1028 6.9978 10.2496 6.93982 9.46461 6.83576C8.48775 6.70627 7.52266 6.51006 6.57307 6.13625Z" fill="currentColor" />
    <path opacity="0.4" fill-rule="evenodd" clip-rule="evenodd" d="M11.9999 15.9976C12.8396 15.9976 13.7093 15.944 14.579 15.8354C14.4647 16.061 14.3388 16.3274 14.2519 16.5808C14.1042 17.0117 13.8598 17.9972 14.498 18.9832C15.1099 19.9284 16.0625 20.1337 16.4833 20.1941L16.0869 20.9539C15.8047 21.4925 15.7624 22.0931 15.9217 22.6337C14.7336 22.8688 13.3988 22.9976 11.9999 22.9976C9.70263 22.9976 7.57827 22.6501 5.99196 22.0553C5.2025 21.7592 4.49416 21.3826 3.96521 20.9136C3.43743 20.4457 2.99994 19.8005 2.99994 18.9976V14.4743C2.99994 14.1562 2.99994 13.9972 3.09747 13.939C3.195 13.8808 3.33914 13.9586 3.62741 14.1142C3.81506 14.2155 4.00598 14.3115 4.19914 14.4024C6.60925 15.5366 9.34594 15.9976 11.9999 15.9976Z" fill="currentColor" />
</svg>