<svg xmlns="http://www.w3.org/2000/svg" width="24" height="24" viewBox="0 0 24 24" fill="none">
    <path opacity="0.4" d="M2.59766 13.9414C2.69519 13.8832 2.83966 13.9606 3.12793 14.1162C3.31545 14.2174 3.50619 14.3135 3.69922 14.4043C6.10933 15.5385 8.846 16 11.5 16C12.0583 16 12.63 15.9765 13.2061 15.9287C13.3695 15.9151 13.451 15.9083 13.5078 15.9443C13.5646 15.9804 13.5969 16.0651 13.6602 16.2354C13.69 16.3157 13.7239 16.3975 13.7637 16.4795C14.1498 17.2756 14.7858 17.6444 15.2666 17.8164C15.5195 17.9068 15.6464 17.9526 15.7012 18.0303C15.7557 18.1079 15.7559 18.2224 15.7559 18.4512V21C15.7559 21.3338 15.8217 21.6522 15.9404 21.9434C16.0498 22.2116 16.1043 22.3461 16.0605 22.4287C16.0168 22.5111 15.8951 22.5372 15.6523 22.5889C14.4075 22.8539 12.99 23 11.5 23C9.20279 23 7.07847 22.6524 5.49219 22.0576C4.70273 21.7616 3.99379 21.385 3.46484 20.916C2.93717 20.4481 2.50007 19.8027 2.5 19V14.4766C2.5 14.1585 2.50014 13.9996 2.59766 13.9414ZM6.71582 17.124C6.31914 17.0048 5.9005 17.2293 5.78125 17.626C5.66202 18.0226 5.88751 18.4413 6.28418 18.5605C6.92373 18.7528 7.63174 18.9087 8.3877 19.0234C8.79707 19.0854 9.17902 18.8039 9.24121 18.3945C9.30338 17.985 9.02183 17.6022 8.6123 17.54C7.91713 17.4345 7.27929 17.2934 6.71582 17.124ZM11.5 1C13.7972 1 15.9215 1.34755 17.5078 1.94238C18.2973 2.23843 19.0062 2.61502 19.5352 3.08398C20.0628 3.5519 20.5 4.19722 20.5 5V9.9873C20.5 10.2971 20.4831 10.5626 20.4326 10.7979C20.3929 10.9826 20.3733 11.0752 20.2793 11.1162C20.1849 11.1571 20.084 11.0969 19.8838 10.9766C19.4397 10.7097 18.8912 10.5 18.25 10.5C16.9106 10.5 15.9768 11.4157 15.5508 11.8535C15.1059 12.3108 14.6764 12.8586 14.3887 13.2256C14.2712 13.3752 14.1553 13.5253 14.0479 13.6816C13.9929 13.7615 13.9646 13.8019 13.9277 13.8242C13.891 13.8463 13.8459 13.8515 13.7568 13.8623C13.0012 13.9537 12.2406 14 11.5 14C9.1113 14 6.51352 13.5184 4.55078 12.5947C4.14785 12.4051 3.78315 12.2032 3.45801 11.9902C2.65354 11.4632 2.5 10.932 2.5 9.9873V5C2.5 4.19722 2.93717 3.5519 3.46484 3.08398C3.99379 2.61502 4.70273 2.23843 5.49219 1.94238C7.07848 1.34755 9.20276 1 11.5 1ZM6.71582 10.124C6.31914 10.0048 5.9005 10.2293 5.78125 10.626C5.66202 11.0226 5.88751 11.4413 6.28418 11.5605C6.92373 11.7528 7.63174 11.9087 8.3877 12.0234C8.79707 12.0854 9.17902 11.8039 9.24121 11.3945C9.30338 10.985 9.02183 10.6022 8.6123 10.54C7.91713 10.4345 7.27929 10.2934 6.71582 10.124ZM11.5 3C9.37903 3 7.50346 3.32451 6.19434 3.81543C5.53626 4.06222 5.0727 4.33126 4.79199 4.58008C4.43531 4.89631 4.43531 5.10369 4.79199 5.41992C5.05516 5.65319 5.47907 5.90478 6.07324 6.13867C7.02278 6.51243 7.98805 6.70841 8.96484 6.83789C9.74982 6.94194 10.603 7 11.5 7C13.621 7 15.4965 6.67549 16.8057 6.18457C17.4637 5.93778 17.9273 5.66874 18.208 5.41992C18.5647 5.10369 18.5647 4.89631 18.208 4.58008C17.9273 4.33126 17.4637 4.06222 16.8057 3.81543C15.4965 3.32451 13.621 3 11.5 3Z" fill="currentColor" />
    <path d="M18.2506 12.0005C18.9043 12.0006 19.4434 12.4566 19.8747 12.8999C20.255 13.2908 20.6367 13.7751 20.9313 14.1509C21.0583 14.3127 21.1881 14.4734 21.2946 14.6499C21.3603 14.7587 21.6611 15.2584 21.3864 15.8247C21.1991 16.2106 20.8209 16.4262 20.4069 16.478C20.2305 16.5001 20.0142 16.5006 19.8385 16.5005H19.2565V21.0005C19.2563 21.5525 18.8086 22.0003 18.2565 22.0005C17.7043 22.0005 17.2567 21.5526 17.2565 21.0005V16.5005H16.6618C16.4716 16.5006 16.2796 16.5016 16.0905 16.478C15.9632 16.4621 15.388 16.3897 15.1139 15.8247C14.8391 15.2581 15.1413 14.7583 15.2067 14.6499C15.3131 14.4735 15.4421 14.3126 15.569 14.1509C15.8636 13.775 16.2462 13.2909 16.6266 12.8999C17.0579 12.4566 17.597 12.0005 18.2506 12.0005ZM5.78193 17.6284C5.90117 17.2318 6.31987 17.0063 6.7165 17.1255C7.28 17.2949 7.91778 17.4369 8.61299 17.5425C9.02251 17.6046 9.30406 17.9874 9.2419 18.397C9.17956 18.8061 8.79764 19.0878 8.38838 19.0259C7.63235 18.9111 6.92447 18.7543 6.28486 18.562C5.88829 18.4428 5.6629 18.025 5.78193 17.6284ZM5.78193 10.6284C5.90117 10.2318 6.31987 10.0063 6.7165 10.1255C7.28 10.2949 7.91778 10.4369 8.61299 10.5425C9.02251 10.6046 9.30406 10.9874 9.2419 11.397C9.17956 11.8061 8.79764 12.0878 8.38838 12.0259C7.63235 11.9111 6.92447 11.7543 6.28486 11.562C5.88829 11.4428 5.6629 11.025 5.78193 10.6284Z" fill="currentColor" />
</svg>