<svg xmlns="http://www.w3.org/2000/svg" width="24" height="24" viewBox="0 0 24 24" fill="none">
    <path opacity="0.4" d="M2.09766 13.9414C2.19519 13.8832 2.33966 13.9606 2.62793 14.1162C2.81545 14.2174 3.00619 14.3135 3.19922 14.4043C5.60933 15.5385 8.346 16 11 16C11.0194 16 11.0391 16.0001 11.0586 16C11.2849 15.9993 11.3985 15.9988 11.4736 16.0479C11.5486 16.0971 11.6021 16.2205 11.709 16.4658C11.7757 16.6188 11.8578 16.766 11.9551 16.9043C12.0395 17.0242 12.0818 17.084 12.0957 17.1338C12.1096 17.1835 12.1048 17.2498 12.0957 17.3818C12.0873 17.5036 12.083 17.6264 12.083 17.75C12.083 17.8739 12.0873 17.9972 12.0957 18.1191C12.1048 18.251 12.1096 18.3175 12.0957 18.3672C12.0817 18.4168 12.0392 18.4771 11.9551 18.5967C11.3839 19.409 11.3312 20.5201 11.9072 21.4023C12.5355 22.3643 13.7138 22.7514 14.7578 22.4189C14.7692 22.4153 14.7754 22.4131 14.7803 22.4121C14.8012 22.4077 14.8212 22.4103 14.8408 22.4189C14.8454 22.421 14.8509 22.4233 14.8604 22.4287C14.9037 22.4533 14.9253 22.4659 14.9355 22.4766C14.9808 22.5241 14.968 22.603 14.9102 22.6338C14.8971 22.6407 14.8726 22.646 14.8242 22.6553C13.6608 22.8783 12.3606 23 11 23C8.70279 23 6.57847 22.6524 4.99219 22.0576C4.20273 21.7616 3.49379 21.385 2.96484 20.916C2.43717 20.4481 2.00007 19.8027 2 19V14.4766C2 14.1585 2.00014 13.9996 2.09766 13.9414ZM6.21582 17.124C5.81914 17.0048 5.4005 17.2293 5.28125 17.626C5.16202 18.0226 5.38751 18.4413 5.78418 18.5605C6.42373 18.7528 7.13174 18.9087 7.8877 19.0234C8.29707 19.0854 8.67902 18.8039 8.74121 18.3945C8.80338 17.985 8.52183 17.6022 8.1123 17.54C7.41713 17.4345 6.77929 17.2934 6.21582 17.124ZM11 1C13.2972 1 15.4215 1.34755 17.0078 1.94238C17.7973 2.23843 18.5062 2.61502 19.0352 3.08398C19.5628 3.5519 20 4.19722 20 5V9.9873C20 10.6885 19.9155 11.1622 19.543 11.5752C19.416 11.716 19.3524 11.7868 19.2461 11.8027C19.1395 11.8186 19.0222 11.7474 18.7881 11.6064C18.4119 11.3799 17.9711 11.25 17.5 11.25C16.4699 11.25 15.585 11.8729 15.2021 12.7627C15.1772 12.8207 15.1646 12.8498 15.1533 12.8682C15.1293 12.9073 15.1104 12.9283 15.0732 12.9551C15.0557 12.9677 15.0302 12.9814 14.9795 13.0078C14.9252 13.0361 14.8979 13.0502 14.876 13.0576C14.8292 13.0734 14.7991 13.0762 14.75 13.0713C14.727 13.069 14.6939 13.0611 14.6279 13.0439C13.7526 12.8169 12.8034 13.0813 12.1738 13.7559C12.0664 13.871 12.0129 13.9294 11.959 13.9541C11.905 13.9788 11.8405 13.9813 11.7119 13.9863C11.4731 13.9956 11.2355 14 11 14C8.6113 14 6.01352 13.5184 4.05078 12.5947C3.64785 12.4051 3.28315 12.2032 2.95801 11.9902C2.15354 11.4632 2 10.932 2 9.9873V5C2 4.19722 2.43717 3.5519 2.96484 3.08398C3.49379 2.61502 4.20273 2.23843 4.99219 1.94238C6.57848 1.34755 8.70276 1 11 1ZM6.21582 10.124C5.81914 10.0048 5.4005 10.2293 5.28125 10.626C5.16202 11.0226 5.38751 11.4413 5.78418 11.5605C6.42373 11.7528 7.13174 11.9087 7.8877 12.0234C8.29707 12.0854 8.67902 11.8039 8.74121 11.3945C8.80338 10.985 8.52183 10.6022 8.1123 10.54C7.41713 10.4345 6.77929 10.2934 6.21582 10.124ZM11 3C8.87903 3 7.00346 3.32451 5.69434 3.81543C5.03626 4.06222 4.5727 4.33126 4.29199 4.58008C3.93531 4.89631 3.93531 5.10369 4.29199 5.41992C4.55516 5.65319 4.97907 5.90478 5.57324 6.13867C6.52278 6.51243 7.48805 6.70841 8.46484 6.83789C9.24982 6.94194 10.103 7 11 7C13.121 7 14.9965 6.67549 16.3057 6.18457C16.9637 5.93778 17.4273 5.66874 17.708 5.41992C18.0647 5.10369 18.0647 4.89631 17.708 4.58008C17.4273 4.33126 16.9637 4.06222 16.3057 3.81543C14.9965 3.32451 13.121 3 11 3Z" fill="currentColor" />
    <path d="M17.5004 12.7505C18.0527 12.7506 18.5004 13.1983 18.5004 13.7505V14.02C19.0996 14.1755 19.6437 14.4674 20.0952 14.8609L20.4536 14.6275C20.9159 14.3255 21.5353 14.4553 21.8374 14.9175C22.1393 15.3798 22.0094 15.9992 21.5473 16.3013L21.2133 16.52C21.3453 16.9065 21.4174 17.3207 21.4174 17.7505C21.4174 18.1804 21.3454 18.5945 21.2133 18.981L21.5463 19.1987C22.0087 19.5007 22.1392 20.1202 21.8374 20.5825C21.5355 21.0448 20.9159 21.1751 20.4536 20.8736L20.0952 20.6392C19.6437 21.0326 19.0996 21.3245 18.5004 21.48V21.7505C18.5003 22.3026 18.0526 22.7504 17.5004 22.7505C16.9483 22.7505 16.5006 22.3026 16.5004 21.7505V21.48C15.9012 21.3245 15.3572 21.0326 14.9057 20.6392L14.5473 20.8736C14.0849 21.1753 13.4655 21.0448 13.1635 20.5825C12.8617 20.1202 12.9914 19.5008 13.4536 19.1987L13.7876 18.981C13.6555 18.5945 13.5835 18.1804 13.5835 17.7505C13.5835 17.3206 13.6556 16.9065 13.7876 16.52L13.4536 16.3013C12.9913 15.9993 12.8616 15.3798 13.1635 14.9175C13.4656 14.4554 14.085 14.3255 14.5473 14.6275L14.9057 14.8609C15.3572 14.4675 15.9013 14.1755 16.5004 14.02V13.7505C16.5004 13.1982 16.9482 12.7505 17.5004 12.7505ZM17.5004 15.8931C16.8271 15.8931 16.2413 16.2283 15.8999 16.729C15.6995 17.0228 15.5835 17.3727 15.5835 17.7505C15.5835 18.1282 15.6995 18.4782 15.8999 18.772C16.2413 19.2725 16.8272 19.607 17.5004 19.607C18.1737 19.6069 18.7596 19.2725 19.101 18.772C19.3014 18.4782 19.4174 18.1282 19.4174 17.7505C19.4174 17.3728 19.3013 17.0228 19.101 16.729C18.7596 16.2284 18.1738 15.8931 17.5004 15.8931ZM5.2817 17.6284C5.40094 17.2318 5.81964 17.0064 6.21627 17.1255C6.77977 17.2949 7.41755 17.437 8.11276 17.5425C8.52228 17.6047 8.80383 17.9875 8.74167 18.397C8.67933 18.8062 8.29741 19.0878 7.88815 19.0259C7.13212 18.9111 6.42424 18.7543 5.78463 18.562C5.38806 18.4428 5.16267 18.025 5.2817 17.6284ZM5.2817 10.6284C5.40094 10.2318 5.81964 10.0064 6.21627 10.1255C6.77977 10.2949 7.41755 10.437 8.11276 10.5425C8.52228 10.6047 8.80383 10.9875 8.74167 11.397C8.67933 11.8062 8.29741 12.0878 7.88815 12.0259C7.13212 11.9111 6.42424 11.7543 5.78463 11.562C5.38806 11.4428 5.16267 11.025 5.2817 10.6284Z" fill="currentColor" />
</svg>