<svg xmlns="http://www.w3.org/2000/svg" width="24" height="24" viewBox="0 0 24 24" fill="none">
    <path opacity="0.4" d="M2.09766 13.9414C2.19519 13.8832 2.33966 13.9606 2.62793 14.1162C2.81545 14.2174 3.00619 14.3135 3.19922 14.4043C5.38699 15.4338 7.84383 15.9094 10.2637 15.9883C10.5099 15.9963 10.6338 15.9996 10.6914 16.0742C10.749 16.1489 10.7199 16.2738 10.6631 16.5225C10.5562 16.9903 10.5 17.4777 10.5 17.9785C10.5 19.6164 11.1037 21.1101 12.0996 22.2529C12.3778 22.5722 12.5169 22.7319 12.4668 22.8477C12.4163 22.963 12.218 22.9699 11.8223 22.9844C11.5511 22.9943 11.2768 23 11 23C8.70279 23 6.57847 22.6524 4.99219 22.0576C4.20273 21.7616 3.49379 21.385 2.96484 20.916C2.43717 20.4481 2.00007 19.8027 2 19V14.4766C2 14.1585 2.00014 13.9996 2.09766 13.9414ZM6.21582 17.124C5.81914 17.0048 5.4005 17.2293 5.28125 17.626C5.16202 18.0226 5.38751 18.4413 5.78418 18.5605C6.42373 18.7528 7.13174 18.9087 7.8877 19.0234C8.29707 19.0854 8.67902 18.8039 8.74121 18.3945C8.80338 17.985 8.52183 17.6022 8.1123 17.54C7.41713 17.4345 6.77929 17.2934 6.21582 17.124ZM11 1C13.2972 1 15.4215 1.34755 17.0078 1.94238C17.7973 2.23843 18.5062 2.61502 19.0352 3.08398C19.5628 3.5519 20 4.19722 20 5V9.9873C20 10.033 19.9998 10.0783 19.999 10.1221C19.9961 10.2876 19.9947 10.3709 19.9434 10.4268C19.892 10.4825 19.7932 10.4926 19.5967 10.5127C18.9828 10.5756 18.4013 10.8668 17.9854 11.3262C17.9036 11.4165 17.862 11.4623 17.8184 11.4795C17.7748 11.4965 17.7184 11.4911 17.6064 11.4814C17.4197 11.4654 17.2305 11.458 17.04 11.458C15.0432 11.4581 13.2494 12.3524 12.0479 13.7656C11.9556 13.8741 11.9096 13.9285 11.8525 13.9561C11.7954 13.9836 11.7295 13.9859 11.5986 13.9902C11.398 13.9968 11.1983 14 11 14C8.6113 14 6.01352 13.5184 4.05078 12.5947C3.64785 12.4051 3.28315 12.2032 2.95801 11.9902C2.15354 11.4632 2 10.932 2 9.9873V5C2 4.19722 2.43717 3.5519 2.96484 3.08398C3.49379 2.61502 4.20273 2.23843 4.99219 1.94238C6.57848 1.34755 8.70276 1 11 1ZM6.21582 10.124C5.81914 10.0048 5.4005 10.2293 5.28125 10.626C5.16202 11.0226 5.38751 11.4413 5.78418 11.5605C6.42373 11.7528 7.13174 11.9087 7.8877 12.0234C8.29707 12.0854 8.67902 11.8039 8.74121 11.3945C8.80338 10.985 8.52183 10.6022 8.1123 10.54C7.41713 10.4345 6.77929 10.2934 6.21582 10.124ZM11 3C8.87903 3 7.00346 3.32451 5.69434 3.81543C5.03626 4.06222 4.5727 4.33126 4.29199 4.58008C3.93531 4.89631 3.93531 5.10369 4.29199 5.41992C4.55516 5.65319 4.97907 5.90478 5.57324 6.13867C6.52278 6.51243 7.48805 6.70841 8.46484 6.83789C9.24982 6.94194 10.103 7 11 7C13.121 7 14.9965 6.67549 16.3057 6.18457C16.9637 5.93778 17.4273 5.66874 17.708 5.41992C18.0647 5.10369 18.0647 4.89631 17.708 4.58008C17.4273 4.33126 16.9637 4.06222 16.3057 3.81543C14.9965 3.32451 13.121 3 11 3Z" fill="currentColor" />
    <path d="M19.6059 12.0287C20.1425 11.8982 20.6833 12.2275 20.8139 12.7641L21.3842 15.1088C21.48 15.5026 21.3291 15.9153 21.0014 16.1537C20.6737 16.3922 20.2344 16.409 19.8891 16.1967L18.9409 15.6137C18.9152 15.5979 18.8898 15.581 18.8657 15.5629C18.3575 15.1831 17.7271 14.9574 17.0405 14.9574C15.3569 14.9575 14.0004 16.3149 14.0004 17.9789C14.0005 19.6429 15.3569 21.0003 17.0405 21.0004C18.5137 21.0004 19.7393 19.9592 20.02 18.5834C20.1303 18.0424 20.6587 17.693 21.1997 17.8031C21.7408 17.9135 22.0902 18.4417 21.9799 18.9828C21.5118 21.2779 19.4766 23.0004 17.0405 23.0004C14.2613 23.0003 12.0005 20.7565 12.0004 17.9789C12.0004 15.2013 14.2613 12.9575 17.0405 12.9574C17.6917 12.9574 18.3149 13.0814 18.8872 13.3061L18.8706 13.2367C18.74 12.7001 19.0693 12.1593 19.6059 12.0287ZM5.28166 17.6283C5.4009 17.2317 5.8196 17.0063 6.21623 17.1254C6.77973 17.2948 7.41751 17.4369 8.11272 17.5424C8.52224 17.6046 8.80379 17.9874 8.74163 18.3969C8.67929 18.8061 8.29737 19.0877 7.88811 19.0258C7.13208 18.911 6.4242 18.7542 5.78459 18.5619C5.38802 18.4427 5.16263 18.0249 5.28166 17.6283ZM5.28166 10.6283C5.4009 10.2317 5.8196 10.0063 6.21623 10.1254C6.77973 10.2948 7.41751 10.4369 8.11272 10.5424C8.52224 10.6046 8.80379 10.9874 8.74163 11.3969C8.67929 11.8061 8.29737 12.0877 7.88811 12.0258C7.13208 11.911 6.4242 11.7542 5.78459 11.5619C5.38802 11.4427 5.16263 11.0249 5.28166 10.6283Z" fill="currentColor" />
</svg>