<svg xmlns="http://www.w3.org/2000/svg" width="24" height="24" viewBox="0 0 24 24" fill="none">
    <path opacity="0.4" d="M2.34766 13.9414C2.44519 13.8832 2.58966 13.9606 2.87793 14.1162C3.06545 14.2174 3.25619 14.3135 3.44922 14.4043C5.85933 15.5385 8.596 16 11.25 16C11.377 16 11.5046 15.9986 11.6328 15.9961C11.969 15.9896 12.1372 15.9866 12.1982 16.0752C12.2591 16.1638 12.192 16.3303 12.0576 16.6631C12.0499 16.6822 12.0416 16.7014 12.0342 16.7207C11.8498 17.1976 11.7949 17.6511 11.7715 18.0186C11.7224 18.7897 11.7224 19.5855 11.7715 20.3564C11.7949 20.7239 11.8498 21.1774 12.0342 21.6543C12.1186 21.8726 12.2213 22.0835 12.3408 22.2842C12.5336 22.6079 12.6299 22.77 12.5752 22.8701C12.5202 22.9698 12.3491 22.9758 12.0078 22.9873C11.7577 22.9957 11.5049 23 11.25 23C8.95279 23 6.82847 22.6524 5.24219 22.0576C4.45273 21.7616 3.74379 21.385 3.21484 20.916C2.68717 20.4481 2.25007 19.8027 2.25 19V14.4766C2.25 14.1585 2.25014 13.9996 2.34766 13.9414ZM6.46582 17.124C6.06914 17.0048 5.6505 17.2293 5.53125 17.626C5.41202 18.0226 5.63751 18.4413 6.03418 18.5605C6.67373 18.7528 7.38174 18.9087 8.1377 19.0234C8.54707 19.0854 8.92902 18.8039 8.99121 18.3945C9.05338 17.985 8.77183 17.6022 8.3623 17.54C7.66713 17.4345 7.02929 17.2934 6.46582 17.124ZM11.25 1C13.5472 1 15.6715 1.34755 17.2578 1.94238C18.0473 2.23843 18.7562 2.61502 19.2852 3.08398C19.8128 3.5519 20.25 4.19722 20.25 5V9.9873C20.25 10.4806 20.2082 10.8614 20.0537 11.1875C19.9883 11.3255 19.955 11.3949 19.8711 11.4209C19.7873 11.4466 19.7038 11.3978 19.5371 11.3008C18.9318 10.9485 18.2308 10.75 17.5 10.75C15.7403 10.75 14.1541 11.9017 13.6592 13.5771C13.6181 13.7162 13.5971 13.7864 13.5508 13.8252C13.5044 13.8639 13.4381 13.8712 13.3066 13.8857C12.6171 13.9618 11.9252 14 11.25 14C8.8613 14 6.26352 13.5184 4.30078 12.5947C3.89785 12.4051 3.53315 12.2032 3.20801 11.9902C2.40354 11.4632 2.25 10.932 2.25 9.9873V5C2.25 4.19722 2.68717 3.5519 3.21484 3.08398C3.74379 2.61502 4.45273 2.23843 5.24219 1.94238C6.82848 1.34755 8.95276 1 11.25 1ZM6.46582 10.124C6.06914 10.0048 5.6505 10.2293 5.53125 10.626C5.41202 11.0226 5.63751 11.4413 6.03418 11.5605C6.67373 11.7528 7.38174 11.9087 8.1377 12.0234C8.54707 12.0854 8.92902 11.8039 8.99121 11.3945C9.05338 10.985 8.77183 10.6022 8.3623 10.54C7.66713 10.4345 7.02929 10.2934 6.46582 10.124ZM11.25 3C9.12903 3 7.25346 3.32451 5.94434 3.81543C5.28626 4.06222 4.8227 4.33126 4.54199 4.58008C4.18531 4.89631 4.18531 5.10369 4.54199 5.41992C4.80516 5.65319 5.22907 5.90478 5.82324 6.13867C6.77278 6.51243 7.73805 6.70841 8.71484 6.83789C9.49982 6.94194 10.353 7 11.25 7C13.371 7 15.2465 6.67549 16.5557 6.18457C17.2137 5.93778 17.6773 5.66874 17.958 5.41992C18.3147 5.10369 18.3147 4.89631 17.958 4.58008C17.6773 4.33126 17.2137 4.06222 16.5557 3.81543C15.2465 3.32451 13.371 3 11.25 3Z" fill="currentColor" />
    <path d="M17.5004 12.2505C18.8551 12.2506 20.0004 13.3164 20.0004 14.688V15.7495C20.0755 15.7723 20.15 15.7997 20.2241 15.8325C20.8442 16.1078 21.3216 16.6279 21.5669 17.2622C21.6727 17.536 21.713 17.8173 21.7319 18.1138C21.7501 18.3993 21.7505 18.7478 21.7504 19.1646V19.2114C21.7505 19.6281 21.7501 19.9758 21.7319 20.2612C21.713 20.5578 21.6726 20.839 21.5669 21.1128C21.3216 21.7472 20.8442 22.2682 20.2241 22.5435C19.9518 22.6643 19.6726 22.7091 19.3872 22.73C19.1157 22.7498 18.7869 22.7505 18.4018 22.7505H16.5991C16.2136 22.7505 15.8844 22.7499 15.6127 22.73C15.3273 22.7091 15.0481 22.6643 14.7758 22.5435C14.1558 22.2682 13.6793 21.7471 13.434 21.1128C13.3282 20.839 13.2869 20.5578 13.268 20.2612C13.2498 19.9758 13.2504 19.6281 13.2504 19.2114V19.1646C13.2504 18.7478 13.2498 18.3993 13.268 18.1138C13.2869 17.8172 13.3282 17.5361 13.434 17.2622C13.6792 16.628 14.1559 16.1078 14.7758 15.8325C14.85 15.7996 14.9253 15.7723 15.0004 15.7495V14.688C15.0004 13.3163 16.1457 12.2505 17.5004 12.2505ZM5.53167 17.6284C5.65091 17.2318 6.06961 17.0064 6.46624 17.1255C7.02974 17.2949 7.66752 17.437 8.36273 17.5425C8.77225 17.6047 9.0538 17.9875 8.99164 18.397C8.9293 18.8062 8.54738 19.0878 8.13812 19.0259C7.38209 18.9111 6.67421 18.7543 6.0346 18.562C5.63803 18.4428 5.41264 18.025 5.53167 17.6284ZM17.5004 13.7505C16.9222 13.7505 16.5004 14.1957 16.5004 14.688V15.6255H18.5004V14.688C18.5004 14.1958 18.0785 13.7506 17.5004 13.7505ZM5.53167 10.6284C5.65091 10.2318 6.06961 10.0064 6.46624 10.1255C7.02974 10.2949 7.66752 10.437 8.36273 10.5425C8.77225 10.6047 9.0538 10.9875 8.99164 11.397C8.9293 11.8062 8.54738 12.0878 8.13812 12.0259C7.38209 11.9111 6.67421 11.7543 6.0346 11.562C5.63803 11.4428 5.41264 11.025 5.53167 10.6284Z" fill="currentColor" />
</svg>