<svg xmlns="http://www.w3.org/2000/svg" width="24" height="24" viewBox="0 0 24 24" fill="none">
    <path opacity="0.4" d="M1.84766 13.9414C1.94519 13.8832 2.08966 13.9606 2.37793 14.1162C2.56545 14.2174 2.75619 14.3135 2.94922 14.4043C3.72348 14.7687 4.56818 15.0695 5.44824 15.3076C5.59434 15.3471 5.6678 15.3671 5.70898 15.4209C5.75 15.4747 5.75 15.5494 5.75 15.6982V17.5C5.75 18.0523 6.19772 18.5 6.75 18.5C7.30228 18.5 7.75 18.0523 7.75 17.5V16.2432C7.75 16.0291 7.75003 15.922 7.81738 15.8623C7.88485 15.8026 7.9927 15.8153 8.20801 15.8418C9.06526 15.9473 9.92236 16 10.75 16C11.1229 16 11.5017 15.989 11.8838 15.9678C12.0282 15.9597 12.1007 15.9562 12.1328 15.999C12.1648 16.0419 12.1408 16.1112 12.0918 16.25C11.8707 16.8756 11.75 17.5487 11.75 18.25C11.75 19.7465 12.298 21.1151 13.2041 22.166C13.4587 22.4612 13.5857 22.609 13.541 22.7217C13.4962 22.8344 13.3155 22.8528 12.9541 22.8896C12.247 22.9617 11.5079 23 10.75 23C8.45279 23 6.32847 22.6524 4.74219 22.0576C3.95273 21.7616 3.24379 21.385 2.71484 20.916C2.18717 20.4481 1.75007 19.8027 1.75 19V14.4766C1.75 14.1585 1.75014 13.9996 1.84766 13.9414ZM10.75 1C13.0472 1 15.1715 1.34755 16.7578 1.94238C17.5473 2.23843 18.2562 2.61502 18.7852 3.08398C19.3128 3.5519 19.75 4.19722 19.75 5V9.9873C19.75 10.932 19.5965 11.4632 18.792 11.9902C18.4045 12.2441 18.2028 12.25 17.75 12.25C16.4343 12.25 15.2175 12.6735 14.2285 13.3916C13.9494 13.5943 13.8094 13.6959 13.6934 13.7422C13.5773 13.7884 13.4535 13.8044 13.2061 13.8369C12.3852 13.9449 11.5557 14 10.75 14C8.3613 14 5.76352 13.5184 3.80078 12.5947C3.39785 12.4051 3.03315 12.2032 2.70801 11.9902C1.90354 11.4632 1.75 10.932 1.75 9.9873V5C1.75 4.19722 2.18717 3.5519 2.71484 3.08398C3.24379 2.61502 3.95273 2.23843 4.74219 1.94238C6.32848 1.34755 8.45276 1 10.75 1ZM10.75 3C8.62903 3 6.75346 3.32451 5.44434 3.81543C4.78626 4.06222 4.3227 4.33126 4.04199 4.58008C3.68531 4.89631 3.68531 5.10369 4.04199 5.41992C4.30516 5.65319 4.72907 5.90478 5.32324 6.13867C5.3542 6.15085 5.39071 6.16128 5.42871 6.17285C5.5366 6.20571 5.6583 6.24353 5.71387 6.32324C5.74971 6.37472 5.75 6.44348 5.75 6.58105V8.5C5.75 9.05228 6.19772 9.5 6.75 9.5C7.30228 9.5 7.75 9.05228 7.75 8.5V7.23926C7.75 7.02245 7.75024 6.91424 7.81836 6.85449C7.88656 6.79474 7.996 6.80888 8.21484 6.83789C8.99982 6.94194 9.85296 7 10.75 7C12.871 7 14.7465 6.67549 16.0557 6.18457C16.7137 5.93778 17.1773 5.66874 17.458 5.41992C17.8147 5.10369 17.8147 4.89631 17.458 4.58008C17.1773 4.33126 16.7137 4.06222 16.0557 3.81543C14.7465 3.32451 12.871 3 10.75 3Z" fill="currentColor" />
    <path d="M17.75 13.75C20.2353 13.75 22.25 15.7647 22.25 18.25C22.25 20.7353 20.2353 22.75 17.75 22.75C15.2647 22.75 13.25 20.7353 13.25 18.25C13.25 15.7647 15.2647 13.75 17.75 13.75ZM17.75 16C17.3358 16 17 16.3358 17 16.75V17.5H16.25C15.8358 17.5 15.5 17.8358 15.5 18.25C15.5 18.6642 15.8358 19 16.25 19H17V19.75C17 20.1642 17.3358 20.5 17.75 20.5C18.1642 20.5 18.5 20.1642 18.5 19.75V19H19.25C19.6642 19 20 18.6642 20 18.25C20 17.8358 19.6642 17.5 19.25 17.5H18.5V16.75C18.5 16.3358 18.1642 16 17.75 16Z" fill="currentColor" />
</svg>