<svg xmlns="http://www.w3.org/2000/svg" width="24" height="24" viewBox="0 0 24 24" fill="none">
    <path opacity="0.4" d="M4.21387 9.75C4.20046 10.3958 4.2002 11.1378 4.2002 12V13.9541C4.2002 15.8242 4.20202 17.129 4.33398 18.1133C4.46222 19.0693 4.69692 19.5759 5.05664 19.9365C5.41643 20.2972 5.92207 20.5325 6.87598 20.6611C7.85788 20.7934 9.15962 20.7959 11.0254 20.7959C11.5648 20.7961 11.9745 21.233 11.9746 21.7725C11.9746 22.3121 11.5377 22.7498 10.9981 22.75C9.22049 22.75 7.7432 22.7504 6.61621 22.5986C5.44607 22.4409 4.46022 22.1027 3.67773 21.3184C2.89545 20.5341 2.55867 19.5468 2.40137 18.374C2.24987 17.2444 2.24998 15.8082 2.25 14.0264V11.9287C2.24999 11.1352 2.2503 10.4099 2.26367 9.75H4.21387ZM21.7363 9.75C21.7496 10.4099 21.75 11.1351 21.75 11.9287C21.7499 12.467 21.3136 12.9539 20.7754 12.9541C20.2369 12.9541 19.7998 12.5179 19.7998 11.9795C19.7998 11.1172 19.7995 10.3958 19.7861 9.75H21.7363Z" fill="currentColor" />
    <path d="M17 13.25C19.6234 13.25 21.75 15.3766 21.75 18C21.75 20.6234 19.6234 22.75 17 22.75C14.3766 22.75 12.25 20.6234 12.25 18C12.25 15.3766 14.3766 13.25 17 13.25ZM17 15.5156C16.5858 15.5156 16.25 15.8514 16.25 16.2656V17.999C16.2501 18.2718 16.3981 18.5232 16.6367 18.6553L17.9043 19.3564C18.2665 19.5566 18.7222 19.4254 18.9229 19.0635C19.1234 18.701 18.9923 18.2445 18.6299 18.0439L17.75 17.5566V16.2656C17.75 15.8514 17.4142 15.5156 17 15.5156ZM15.9004 1.25C16.4387 1.2502 16.875 1.68793 16.875 2.22754V3.2998C17.0513 3.31589 17.2215 3.33444 17.3848 3.35645C18.5547 3.51416 19.5399 3.85153 20.3223 4.63574C21.1046 5.41997 21.4413 6.40739 21.5986 7.58008C21.6827 8.20669 21.7197 8.92803 21.7363 9.75H2.26367C2.28033 8.92803 2.31732 8.20668 2.40137 7.58008C2.5587 6.4074 2.89537 5.41997 3.67773 4.63574C4.46023 3.85143 5.44607 3.51413 6.61621 3.35645C6.77935 3.33447 6.94892 3.31588 7.125 3.2998V2.22754C7.125 1.68794 7.56132 1.25022 8.09961 1.25C8.63809 1.25 9.0752 1.68781 9.0752 2.22754V3.21289C9.65304 3.20458 10.2789 3.20409 10.9541 3.2041H13.0459C13.7211 3.20409 14.347 3.20458 14.9248 3.21289V2.22754C14.9248 1.68781 15.3619 1.25 15.9004 1.25Z" fill="currentColor" />
</svg>