<svg xmlns="http://www.w3.org/2000/svg" width="24" height="24" viewBox="0 0 24 24" fill="none">
    <path fill-rule="evenodd" clip-rule="evenodd" d="M20.8623 7.74219C20.9977 8.74932 21 10.0842 21 11.998C21 13.0866 20.9993 13.9879 20.9737 14.748H22.9748C23 13.9577 23 13.0686 23 12.0743V11.998V11.9219C23 10.0998 23.0001 8.63091 22.8447 7.47559C22.6834 6.27549 22.3377 5.26542 21.5352 4.46289C20.7326 3.66036 19.7226 3.31468 18.5225 3.15332C17.3671 2.99799 15.8983 2.99802 14.0762 2.99805H14H10H9.92381C8.10175 2.99802 6.63286 2.99799 5.47754 3.15332C4.27744 3.31468 3.26737 3.66036 2.46484 4.46289C1.66231 5.26542 1.31664 6.27549 1.15527 7.47559C0.999946 8.6309 0.99997 10.0998 1 11.9219V11.998V12.0742C0.999984 13.0685 0.999969 13.9577 1.0252 14.748H3.0263C3.00074 13.9879 3 13.0866 3 11.998C3 10.0842 3.00229 8.74932 3.1377 7.74219C3.26924 6.76385 3.50989 6.24597 3.87891 5.87695C4.24792 5.50794 4.7658 5.26728 5.74414 5.13574C6.75128 5.00034 8.08611 4.99805 10 4.99805H14C15.9139 4.99805 17.2487 5.00034 18.2559 5.13574C19.2342 5.26728 19.7521 5.50794 20.1211 5.87695C20.4901 6.24597 20.7308 6.76385 20.8623 7.74219Z" fill="currentColor" />
    <path opacity="0.4" fill-rule="evenodd" clip-rule="evenodd" d="M1.02521 14.748C1.04265 15.2945 1.07217 15.7938 1.12209 16.248C1.13228 16.3407 1.14332 16.4316 1.15528 16.5205C1.31664 17.7206 1.66232 18.7307 2.46485 19.5332C3.26738 20.3357 4.27745 20.6814 5.47755 20.8428C6.63287 20.9981 8.10179 20.9981 9.92387 20.998H10H14H14.0761C15.8982 20.9981 17.3671 20.9981 18.5225 20.8428C19.7226 20.6814 20.7326 20.3357 21.5352 19.5332C22.3377 18.7307 22.6834 17.7206 22.8447 16.5205C22.8567 16.4316 22.8677 16.3407 22.8779 16.248C22.9278 15.7938 22.9574 15.2945 22.9748 14.748H20.9737H3.0263H1.02521Z" fill="currentColor" />
</svg>