<svg xmlns="http://www.w3.org/2000/svg" width="24" height="24" viewBox="0 0 24 24" fill="none">
    <path opacity="0.4" d="M19.1504 11.25C19.433 11.25 19.5743 11.2499 19.6621 11.1621C19.7499 11.0743 19.75 10.933 19.75 10.6504V7.9375C19.75 6.5765 19.7505 5.46686 19.6133 4.5918C19.4685 3.66856 19.1564 2.90405 18.4629 2.30957C17.7861 1.72945 16.9439 1.48249 15.9268 1.36524C14.9307 1.25045 13.6574 1.24999 12.0488 1.25H11.9512C10.3426 1.24999 9.06926 1.25045 8.07324 1.36524C7.05614 1.48249 6.21392 1.72945 5.53711 2.30957C4.84361 2.90405 4.53154 3.66856 4.38671 4.5918C4.24946 5.46686 4.24996 6.5765 4.24999 7.9375V10.6504C4.24999 10.933 4.25006 11.0743 4.33789 11.1621C4.42571 11.2499 4.56702 11.25 4.8496 11.25H19.1504ZM12.0488 22.75C13.6574 22.75 14.9307 22.7496 15.9268 22.6348C16.9438 22.5175 17.7861 22.2706 18.4629 21.6904C19.1564 21.096 19.4684 20.3314 19.6133 19.4082C19.7505 18.5331 19.75 17.4235 19.75 16.0625V13.3496C19.75 13.067 19.7499 12.9257 19.6621 12.8379C19.5743 12.7501 19.433 12.75 19.1504 12.75H4.8496C4.56702 12.75 4.42571 12.7501 4.33788 12.8379C4.25006 12.9257 4.24999 13.067 4.24999 13.3496V16.0625C4.24996 17.4235 4.24945 18.5331 4.38671 19.4082C4.53154 20.3314 4.84361 21.096 5.5371 21.6904C6.21391 22.2706 7.05614 22.5175 8.07323 22.6348C9.06925 22.7495 10.3426 22.75 11.9512 22.75H12.0488Z" fill="currentColor" />
    <path d="M12.0146 7.5C12.7023 7.49978 13.2598 6.94022 13.2598 6.25C13.2598 5.55978 12.7023 5.00022 12.0146 5H12.0049C11.3172 5.00022 10.7598 5.55978 10.7598 6.25C10.7598 6.94022 11.3172 7.49978 12.0049 7.5H12.0146ZM9.50978 18C10.1993 17.9999 10.7588 17.4403 10.7588 16.75C10.7588 16.0597 10.1993 15.5001 9.50978 15.5H9.50099C8.81135 15.5 8.25197 16.0596 8.25197 16.75C8.25197 17.4404 8.81135 18 9.50099 18H9.50978ZM14.5029 20C15.1926 20 15.7519 19.4404 15.7519 18.75C15.7519 18.0596 15.1926 17.5 14.5029 17.5H14.4941C13.8046 17.5001 13.2451 18.0597 13.2451 18.75C13.2451 19.4403 13.8046 19.9999 14.4941 20H14.5029Z" fill="currentColor" />
</svg>