<svg xmlns="http://www.w3.org/2000/svg" width="24" height="24" viewBox="0 0 24 24" fill="none">
    <path fill-rule="evenodd" clip-rule="evenodd" d="M12.25 19.373H2.5C1.94772 19.373 1.5 19.8208 1.5 20.373C1.5 20.9253 1.94772 21.373 2.5 21.373H12.4347C12.409 21.2875 12.3874 21.2039 12.3693 21.123C12.3412 20.9979 12.3213 20.8793 12.3066 20.7705C12.2493 20.3438 12.2497 19.8514 12.25 19.456L12.25 19.373Z" fill="currentColor" />
    <path fill-rule="evenodd" clip-rule="evenodd" d="M21.2656 16.0254C21.1755 15.9881 21.0861 15.9618 21 15.9414V15.373C21 13.7162 19.6569 12.373 18 12.373C16.3432 12.373 15 13.7162 15 15.373V15.9414C14.9139 15.9618 14.8245 15.9881 14.7344 16.0254C14.2445 16.2284 13.8553 16.6176 13.6524 17.1074C13.5554 17.3415 13.5247 17.5674 13.5117 17.7578C13.4999 17.9305 13.5 18.1332 13.5 18.3415L13.5 18.373V19.373L13.5 19.4186C13.4999 19.8458 13.4999 20.2612 13.5459 20.6035C13.5974 20.9867 13.7227 21.4239 14.0859 21.7871C14.4492 22.1503 14.8863 22.2756 15.2695 22.3271C15.6118 22.3732 16.0272 22.3731 16.4544 22.3731L16.5 22.373H19.5L19.5456 22.3731C19.9728 22.3731 20.3882 22.3732 20.7305 22.3271C21.1137 22.2756 21.5509 22.1503 21.9141 21.7871C22.2773 21.4239 22.4026 20.9867 22.4541 20.6035C22.5001 20.2612 22.5001 19.8458 22.5 19.4186L22.5 19.373V18.373L22.5 18.3415C22.5 18.1332 22.5001 17.9305 22.4883 17.7578C22.4753 17.5674 22.4446 17.3415 22.3477 17.1074C22.1447 16.6176 21.7555 16.2284 21.2656 16.0254ZM19 15.373C19 14.8208 18.5523 14.373 18 14.373C17.4477 14.373 17 14.8208 17 15.373V15.873H19V15.373Z" fill="currentColor" />
    <path d="M9 10.373C9.55228 10.373 10 10.8208 10 11.373C10 11.9253 9.55228 12.373 9 12.373H7.5C6.94772 12.373 6.5 11.9253 6.5 11.373C6.5 10.8208 6.94772 10.373 7.5 10.373H9Z" fill="currentColor" />
    <path opacity="0.4" fill-rule="evenodd" clip-rule="evenodd" d="M19.25 11.3102C18.9215 11.2092 18.5759 11.147 18.2188 11.1289L18 11.123C15.7344 11.123 13.8839 12.8958 13.7578 15.1299C13.242 15.4575 12.8262 15.9253 12.5625 16.4824L12.4971 16.6289C12.3265 17.0406 12.282 17.4188 12.2647 17.6729C12.2498 17.8906 12.2499 18.1347 12.25 18.3305L12.25 18.373V19.373L12.25 19.456C12.2497 19.8514 12.2493 20.3438 12.3066 20.7705C12.3213 20.8793 12.3412 20.9979 12.3693 21.123H4.5C4.08579 21.123 3.75 20.7873 3.75 20.373V8.37305V8.30866C3.74997 6.94557 3.74995 5.84637 3.86621 4.98145C3.98723 4.08134 4.24672 3.3236 4.84863 2.72168C5.45055 2.11976 6.20829 1.86028 7.1084 1.73926C7.97333 1.62299 9.07252 1.62302 10.4356 1.62305H10.5H12.5H12.5644C13.9275 1.62302 15.0267 1.62299 15.8916 1.73926C16.7917 1.86028 17.5495 2.11977 18.1514 2.72168C18.7533 3.3236 19.0128 4.08134 19.1338 4.98145C19.2501 5.84636 19.25 6.94553 19.25 8.30859V8.37305V11.3102Z" fill="currentColor" />
</svg>