<svg xmlns="http://www.w3.org/2000/svg" width="24" height="24" viewBox="0 0 24 24" fill="none">
    <path d="M9.5 10.873C10.0523 10.873 10.5 11.3208 10.5 11.873C10.5 12.4253 10.0523 12.873 9.5 12.873H8C7.44772 12.873 7 12.4253 7 11.873C7 11.3208 7.44772 10.873 8 10.873H9.5Z" fill="currentColor" />
    <path d="M22 20.873C22 20.3208 21.5523 19.873 21 19.873H19.75H18.25H5.75H4.25H3C2.44772 19.873 2 20.3208 2 20.873C2 21.4253 2.44772 21.873 3 21.873H21C21.5523 21.873 22 21.4253 22 20.873Z" fill="currentColor" />
    <path opacity="0.4" fill-rule="evenodd" clip-rule="evenodd" d="M18.25 19.873H19.75V8.87305V8.80862C19.75 7.44555 19.7501 6.34636 19.6338 5.48145C19.5128 4.58134 19.2533 3.8236 18.6514 3.22168C18.0495 2.61976 17.2917 2.36028 16.3916 2.23926C15.5267 2.123 14.4275 2.12302 13.0644 2.12305H13H11H10.9356C9.57249 2.12302 8.47332 2.123 7.6084 2.23926C6.70829 2.36028 5.95055 2.61976 5.34863 3.22168C4.74672 3.8236 4.48723 4.58134 4.36621 5.48145C4.24995 6.34636 4.24997 7.44554 4.25 8.80861L4.25 8.87305L4.25 19.873H5.75H18.25Z" fill="currentColor" />
</svg>