<svg xmlns="http://www.w3.org/2000/svg" width="24" height="24" viewBox="0 0 24 24" fill="none">
    <path opacity="0.4" d="M16.125 6.37305C15.7374 6.37305 15.3565 6.38203 14.9848 6.3993C14.5187 6.42095 14.0669 6.45562 13.6338 6.50195L13.5712 6.50864C13.3615 6.53103 13.1577 6.5528 12.9603 6.57797C12.5613 6.62884 12.1883 6.69364 11.8457 6.80566C11.272 6.99326 10.7998 7.30341 10.3359 7.81836C9.5881 8.64881 9.42121 9.53574 9.38453 10.6443C9.37851 10.8263 9.376 11.0143 9.375 11.209V12.7276V14.1055C9.375 14.7964 9.4785 15.4362 9.66139 16.0289C9.89264 16.7784 10.2508 17.4527 10.6872 18.0598C11.7307 19.5117 13.2214 20.5797 14.4922 21.375C15.4799 22.037 16.7699 22.0387 17.7578 21.377C19.9802 19.9862 22.875 17.7594 22.875 14.1055V11.209C22.8679 9.82855 22.7847 8.78517 21.9141 7.81836C21.4502 7.30341 20.978 6.99326 20.4043 6.80566C19.8922 6.63821 19.3123 6.57629 18.6788 6.50864L18.6162 6.50195C17.8376 6.41866 16.9985 6.37305 16.125 6.37305Z" fill="currentColor" />
    <path d="M17.2942 15.0451C17.6014 14.5863 18.223 14.4635 18.6818 14.7707C19.1406 15.078 19.2635 15.6995 18.9563 16.1584C18.3554 17.0557 17.2836 17.5988 16.1252 17.5988C14.9668 17.5988 13.895 17.0557 13.2942 16.1584C12.9869 15.6995 13.1098 15.078 13.5686 14.7707C14.0274 14.4635 14.649 14.5863 14.9563 15.0451C15.1539 15.3403 15.5745 15.5988 16.1252 15.5988C16.6759 15.5988 17.0965 15.3403 17.2942 15.0451Z" fill="currentColor" />
    <path d="M19.125 10.6113C19.6773 10.6113 20.125 11.059 20.125 11.6113C20.125 12.1636 19.6773 12.6113 19.125 12.6113H18.125C17.5727 12.6113 17.125 12.1636 17.125 11.6113C17.125 11.059 17.5727 10.6113 18.125 10.6113H19.125Z" fill="currentColor" />
    <path d="M14.125 10.6113C14.6773 10.6113 15.125 11.059 15.125 11.6113C15.125 12.1636 14.6773 12.6113 14.125 12.6113H13.125C12.5727 12.6113 12.125 12.1636 12.125 11.6113C12.125 11.059 12.5727 10.6113 13.125 10.6113H14.125Z" fill="currentColor" />
    <path fill-rule="evenodd" clip-rule="evenodd" d="M12.9458 2.74713C12.3372 2.35448 11.7649 2.16406 11.1216 2.12897C10.5634 2.09856 9.97063 2.19053 9.36018 2.28524C9.33505 2.28913 9.3099 2.29304 9.28471 2.29694C8.51126 2.4167 7.68986 2.58807 6.84819 2.81158C6.00648 3.03512 5.20844 3.29368 4.47807 3.5733C4.45648 3.58157 4.43491 3.58982 4.41336 3.59807C3.83492 3.81935 3.27271 4.03442 2.80229 4.33893C2.26157 4.68899 1.86084 5.13865 1.53081 5.78229C0.837524 7.13442 1.16336 8.33419 1.56858 9.82627C1.58549 9.88856 1.60255 9.95136 1.61968 10.0147L2.20464 12.1788C3.1817 15.7927 6.65163 17.2017 9.12554 17.9561C9.57061 18.1058 10.0332 18.1538 10.482 18.1046C10.5534 18.0967 10.6222 18.0815 10.6877 18.0599C10.2513 17.4527 9.89317 16.7785 9.66192 16.029L9.24468 15.8975C6.93022 15.138 4.76365 13.9806 4.1353 11.6573L3.55034 9.49225C3.07231 7.72415 3.00331 7.29271 3.31011 6.6944C3.49456 6.3347 3.66767 6.16104 3.88921 6.01764C4.1635 5.84009 4.52775 5.69552 5.19389 5.44049C5.85528 5.18729 6.58541 4.9504 7.36186 4.7442C8.13845 4.53797 8.89063 4.38198 9.59136 4.2735C10.2966 4.16432 10.6853 4.10815 11.0132 4.12604C11.279 4.14057 11.5188 4.20647 11.8619 4.4278C12.3881 4.76739 12.5638 5.14304 12.9608 6.57803C13.1583 6.55286 13.362 6.53109 13.5717 6.50871L13.6343 6.50201C14.0674 6.45568 14.5192 6.42101 14.9853 6.39936C14.973 6.35393 14.9609 6.30876 14.9488 6.26386C14.5465 4.76915 14.2242 3.57193 12.9458 2.74713Z" fill="currentColor" />
    <path fill-rule="evenodd" clip-rule="evenodd" d="M9.37559 11.2095C9.37659 11.0148 9.3791 10.8268 9.38512 10.6448C9.28579 10.6634 9.18649 10.6863 9.08751 10.7134C7.95031 11.0253 7.05577 11.8572 6.71055 12.899C6.53685 13.4232 6.82108 13.9889 7.34532 14.1627C7.8695 14.3362 8.4353 14.0521 8.60899 13.5279C8.71147 13.2188 8.97709 12.9066 9.37559 12.7281V11.2095ZM7.4459 8.4488C7.29981 7.91643 6.74982 7.60285 6.21739 7.74861L5.23985 8.01716C4.70745 8.16328 4.39381 8.71322 4.53965 9.24568C4.68573 9.77829 5.23653 10.0919 5.76915 9.94587L6.74571 9.67829C7.27833 9.53222 7.59198 8.98142 7.4459 8.4488Z" fill="currentColor" />
</svg>