<svg xmlns="http://www.w3.org/2000/svg" width="24" height="24" viewBox="0 0 24 24" fill="none">
    <path opacity="0.4" d="M15.4414 12.6758C16.6344 12.3958 17.8741 12.2481 19.1465 12.2481C20.1658 12.2481 21.1657 12.3432 22.1377 12.5254C22.1709 12.5316 22.2043 12.5402 22.2363 12.5508C22.4845 12.633 22.7433 12.4586 22.748 12.1973C22.7492 12.1312 22.75 12.0645 22.75 11.9981C22.7499 9.48856 21.8896 7.17984 20.4482 5.35062C20.2652 5.11854 19.92 5.11344 19.7178 5.32914L19.5586 5.49906C18.101 7.20366 16.318 8.63126 14.3037 9.68949C14.0607 9.81716 13.958 10.1129 14.0703 10.3633C14.3565 11.0009 14.6086 11.6572 14.8252 12.3291C14.9084 12.5871 15.1776 12.7377 15.4414 12.6758ZM4.5752 19.7872C4.7904 19.9927 5.13519 19.9475 5.30371 19.7022L5.38867 19.5782C7.3521 16.8209 10.0176 14.6632 13.1025 13.4248C13.3465 13.327 13.4817 13.061 13.4014 12.8106C13.1962 12.1718 12.9558 11.5485 12.6826 10.9434C12.5752 10.7056 12.3 10.5982 12.0547 10.6866C10.1389 11.3783 8.06834 11.7559 5.90918 11.7559C4.50724 11.7559 3.1421 11.5973 1.83203 11.2959C1.82403 11.2941 1.81555 11.2922 1.80762 11.2901C1.53477 11.2177 1.26308 11.4101 1.25488 11.6924C1.2519 11.7967 1.25 11.9019 1.25 12.0069C1.25011 15.0666 2.52662 17.8282 4.5752 19.7872Z" fill="currentColor" />
    <path d="M12.9209 8.18945C13.0579 8.41282 13.3421 8.50123 13.5742 8.37988C15.4378 7.40613 17.085 6.08748 18.4287 4.5127C18.6615 4.23993 19.0292 3.85101 18.6309 3.53809C16.8043 2.10485 14.5018 1.25008 12 1.25C10.3593 1.25 8.80429 1.61808 7.4131 2.27539C7.37448 2.29364 7.37061 2.34676 7.40626 2.37012C9.63932 3.81384 11.5386 5.93474 12.9209 8.18945ZM5.90919 10.2568C7.76484 10.2568 9.54774 9.95289 11.209 9.39355C11.5036 9.29428 11.6257 8.94668 11.458 8.68457C10.1841 6.6928 8.52347 4.97103 6.58204 3.62402L6.15529 3.34766C5.98504 3.23751 5.76442 3.24051 5.60157 3.36133C3.68747 4.78255 2.26163 6.82523 1.62208 9.19141C1.55199 9.45074 1.71221 9.71248 1.97169 9.78125C3.2483 10.1196 4.59082 10.2568 5.90919 10.2568ZM15.3848 22.2061C18.8363 21.0617 21.5127 18.2158 22.418 14.6621C22.5259 14.2387 22.1259 14.0962 21.8125 13.9922C20.9465 13.8328 20.0553 13.75 19.1465 13.75C17.9975 13.75 16.876 13.8829 15.7949 14.1357C15.5363 14.1963 15.3794 14.4547 15.4278 14.7158C15.6393 15.8586 15.75 17.0373 15.75 18.2412C15.75 19.5549 15.6312 20.8876 15.3477 22.1719C15.3425 22.194 15.3632 22.2131 15.3848 22.2061ZM12 22.7676C12.4641 22.7676 12.9217 22.7378 13.3701 22.6807C13.7775 22.6284 13.8098 22.1746 13.8848 21.8555C14.1238 20.6932 14.249 19.4882 14.249 18.2539C14.249 17.2504 14.1667 16.2659 14.0069 15.3076C13.9559 15.0028 13.6366 14.8271 13.3526 14.9482C10.5789 16.1337 8.18622 18.1553 6.48243 20.6377C6.32282 20.8703 6.38599 21.1897 6.62989 21.3311C8.20983 22.2445 10.0442 22.7676 12 22.7676Z" fill="currentColor" />
</svg>