<svg xmlns="http://www.w3.org/2000/svg" width="24" height="24" viewBox="0 0 24 24" fill="none">
    <path d="M2.625 14.0107C2.62511 12.1298 3.46492 10.1194 4.48242 8.3457C5.51495 6.54587 6.80616 4.86151 7.86035 3.60449C8.31449 3.06298 8.70718 2.56576 9.34277 2.26562C9.74897 2.07382 10.2084 1.99805 10.625 1.99805C11.0415 1.99806 11.5011 2.07385 11.9072 2.26562C12.5429 2.56585 12.9367 3.06393 13.3916 3.60645C13.7464 4.02963 13.6907 4.66078 13.2676 5.01562C12.8444 5.3704 12.2132 5.31476 11.8584 4.8916C11.3166 4.2455 11.2111 4.14862 11.0537 4.07422C10.9749 4.03698 10.8212 3.99805 10.625 3.99805C10.4288 3.99805 10.2751 4.03699 10.1963 4.07422C10.0388 4.14865 9.93324 4.24496 9.39258 4.88965C8.37787 6.09958 7.16882 7.68303 6.21777 9.34082C5.25197 11.0244 4.62512 12.6617 4.625 14.0107C4.625 17.3155 7.30953 19.998 10.625 19.998C12.5374 19.998 14.2397 19.1063 15.3398 17.7139C15.6822 17.2805 16.3117 17.2065 16.7451 17.5488C17.1783 17.8911 17.2521 18.5198 16.9102 18.9531C15.4466 20.8059 13.1744 21.998 10.625 21.998C6.20849 21.998 2.625 18.4236 2.625 14.0107Z" fill="currentColor" />
    <path opacity="0.4" d="M21.375 11.3467C21.375 13.7589 19.508 15.7812 17.125 15.7812C14.742 15.7812 12.875 13.7589 12.875 11.3467C12.875 10.224 13.3863 9.03229 13.9609 8.02637L14.0018 7.95478C14.418 7.22596 14.7934 6.56856 15.2246 6.10938C15.7264 5.57512 16.3229 5.28125 17.125 5.28125C17.9271 5.28125 18.5236 5.57512 19.0254 6.10938C19.4566 6.56857 19.832 7.22596 20.2482 7.95479L20.2891 8.02637C20.8637 9.03229 21.375 10.224 21.375 11.3467Z" fill="currentColor" />
    <path d="M6.625 14.0312C6.625 13.479 7.07272 13.0312 7.625 13.0312C8.17728 13.0312 8.625 13.479 8.625 14.0312C8.625 15.1358 9.52043 16.0312 10.625 16.0312C11.1773 16.0312 11.625 16.479 11.625 17.0312C11.625 17.5835 11.1773 18.0312 10.625 18.0312C8.41586 18.0312 6.625 16.2404 6.625 14.0312Z" fill="currentColor" />
</svg>