<svg xmlns="http://www.w3.org/2000/svg" width="24" height="24" viewBox="0 0 24 24" fill="none">
    <path fill-rule="evenodd" clip-rule="evenodd" d="M8.25326 15.0013C7.79401 14.3919 7.53837 13.6657 7.50201 12.9238L5.47512 14.9507C5.45636 14.9695 5.43848 14.9868 5.42164 15.0031C5.40817 15.0162 5.39538 15.0286 5.38332 15.0406C5.36332 15.035 5.34233 15.0293 5.32029 15.0233C5.20767 14.9924 5.06762 14.954 4.89114 14.9019C3.86302 14.5983 2.70088 14.8512 1.88625 15.6656C0.701978 16.8498 0.701978 18.7703 1.88625 19.9546C2.09413 20.1624 2.32619 20.3349 2.57375 20.4702L2.651 20.5125C2.88291 20.6392 3.05203 20.7316 3.17141 20.7993L3.18704 20.8081C3.18546 20.8055 3.18851 20.8107 3.18704 20.8081C3.18875 20.811 3.19509 20.8217 3.1968 20.8247C3.26466 20.9444 3.35734 21.1139 3.48449 21.3466L3.5259 21.4224C3.66123 21.67 3.8337 21.902 4.04153 22.1099C5.2258 23.2942 7.14631 23.2942 8.33059 22.1099C9.14494 21.2952 9.39786 20.1331 9.09426 19.105C9.03635 18.9089 8.99481 18.7579 8.96221 18.6394L8.95461 18.6118L11.0723 16.4941C10.3305 16.4578 9.60428 16.2021 8.99483 15.7429L7.63137 17.107C7.62221 17.1161 7.61298 17.1253 7.60369 17.1346C7.48957 17.2486 7.36681 17.3713 7.27102 17.4839C7.16861 17.6044 7.00711 17.8125 6.93313 18.1031C6.88126 18.3069 6.89407 18.4901 6.90579 18.5952C6.91876 18.7115 6.94215 18.8266 6.96633 18.9273C7.00973 19.108 7.07712 19.336 7.15338 19.5939C7.16094 19.6194 7.16858 19.6453 7.17629 19.6714C7.28074 20.0251 7.19231 20.4198 6.91653 20.6958C6.5133 21.0991 5.85882 21.0991 5.45559 20.6958C5.38393 20.6241 5.32581 20.5458 5.28079 20.4634C5.13569 20.198 5.02082 19.9878 4.93606 19.8384C4.89401 19.7643 4.85325 19.6939 4.81594 19.6343C4.81488 19.6326 4.81732 19.6365 4.81594 19.6343C4.79844 19.6062 4.75174 19.5312 4.69094 19.4575L4.61868 19.3775L4.5386 19.3052C4.46499 19.2444 4.39582 19.2014 4.36771 19.1839C4.36549 19.1825 4.3694 19.1849 4.36771 19.1839C4.30817 19.1466 4.23185 19.1021 4.15774 19.0601C4.0083 18.9753 3.79819 18.8605 3.53274 18.7154C3.45037 18.6703 3.37203 18.6122 3.30032 18.5406C2.89709 18.1373 2.89709 17.4828 3.30032 17.0796C3.57639 16.8038 3.97103 16.7154 4.32473 16.8199C4.3512 16.8277 4.37738 16.8354 4.40326 16.8431C4.66079 16.9192 4.88833 16.9865 5.06887 17.0298C5.16958 17.054 5.28464 17.0774 5.4009 17.0904C5.50599 17.1021 5.68924 17.1149 5.89309 17.063C6.18365 16.989 6.39176 16.8275 6.51223 16.7251C6.62486 16.6294 6.74744 16.5066 6.86143 16.3925C6.87074 16.3832 6.88 16.374 6.88918 16.3648L8.25326 15.0013Z" fill="currentColor" />
    <path opacity="0.4" d="M20.7022 3.29439C18.0765 0.66864 13.9229 0.10789 11.4493 2.5815C11.1942 2.83662 10.9698 3.11309 10.7765 3.40669C10.0355 4.53162 9.68943 5.81675 9.40341 6.95455C9.37852 7.05357 9.35408 7.15145 9.32992 7.24821C9.06346 8.3153 8.83082 9.24695 8.40439 10.0727L7.91708 11.0161C7.6056 11.6193 7.47088 12.2775 7.50256 12.9238C7.53893 13.6656 7.79457 14.3918 8.25382 15.0012C8.35831 15.1399 8.47334 15.2725 8.59872 15.3979C8.72411 15.5233 8.85673 15.6383 8.99539 15.7428C9.60483 16.2021 10.331 16.4577 11.0729 16.4941C11.7191 16.5257 12.3773 16.391 12.9806 16.0795L13.9239 15.5922C14.7497 15.1658 15.68 14.9335 16.7471 14.667C16.8443 14.6428 16.9426 14.6182 17.0421 14.5932C18.1799 14.3072 19.465 13.9611 20.5899 13.2202C20.8835 13.0268 21.16 12.8024 21.4151 12.5473C23.8887 10.0737 23.328 5.92014 20.7022 3.29439Z" fill="currentColor" />
</svg>