<svg xmlns="http://www.w3.org/2000/svg" width="24" height="24" viewBox="0 0 24 24" fill="none">
    <path opacity="0.4" fill-rule="evenodd" clip-rule="evenodd" d="M12 22.998C18.0751 22.998 23 18.0732 23 11.998C23 5.92291 18.0751 0.998047 12 0.998047C5.92487 0.998047 1 5.92291 1 11.998C1 18.0732 5.92487 22.998 12 22.998ZM21 11.998C21 8.35801 18.839 5.22268 15.73 3.80497C12.3924 4.48496 9.75 7.83324 9.75 11.998C9.75 16.1629 12.3924 19.5111 15.73 20.1911C18.839 18.7734 21 15.6381 21 11.998Z" fill="currentColor" />
    <path fill-rule="evenodd" clip-rule="evenodd" d="M15.73 3.80469C18.839 5.2224 21 8.35772 21 11.9978C21 15.6378 18.839 18.7731 15.73 20.1908C12.3924 19.5109 9.75 16.1626 9.75 11.9978C9.75 7.83295 12.3924 4.48467 15.73 3.80469Z" fill="currentColor" />
</svg>