<svg xmlns="http://www.w3.org/2000/svg" width="24" height="24" viewBox="0 0 24 24" fill="none">
    <path d="M1.29288 1.29289C1.6834 0.902368 2.31642 0.902368 2.70694 1.29289L22.7069 21.2929C23.0975 21.6834 23.0975 22.3164 22.7069 22.7069C22.3164 23.0975 21.6834 23.0975 21.2929 22.7069L14.8397 16.2538L11.1474 19.8114C9.76651 21.1419 8.91474 21.9621 7.8378 22.3827C6.75946 22.8038 5.58624 22.7725 3.68936 22.7226C3.66596 22.7219 2.64231 22.6954 2.41202 22.6571C2.14549 22.6127 1.82848 22.5097 1.57803 22.2255C1.32997 21.9438 1.26579 21.6188 1.25089 21.3515C1.23776 21.1151 1.32292 20.0243 1.32315 20.0214L1.32413 20.0185C1.45325 18.3579 1.53246 17.3419 1.9335 16.4188C2.33536 15.4942 3.02175 14.7508 4.14151 13.538L7.97159 9.38566L1.29288 2.70695C0.902353 2.31643 0.902353 1.68341 1.29288 1.29289Z" fill="currentColor" />
    <path opacity="0.4" d="M12.2946 4.84108C12.4224 4.83852 12.5266 4.94223 12.7341 5.14968L18.9919 11.4075C19.1951 11.6107 19.2966 11.7124 19.2956 11.8381C19.2944 11.964 19.1913 12.0643 18.9841 12.2639L17.5739 13.6223C17.4562 13.7356 17.2696 13.733 17.154 13.6174L10.5524 7.01686C10.4388 6.90302 10.4355 6.7201 10.5446 6.60182L11.8688 5.16628C12.0675 4.951 12.167 4.84375 12.2946 4.84108ZM15.2028 1.79421C16.3874 1.08977 17.8477 1.06779 19.0524 1.73659C19.5521 2.01401 20.0084 2.47929 20.6862 3.17214L20.8708 3.36061C21.5511 4.05509 22.0057 4.52045 22.2761 5.02858C22.9245 6.24755 22.9038 7.72176 22.2204 8.92116C22.0129 9.28532 21.7076 9.6241 21.2868 10.0412C21.0909 10.2355 20.9927 10.3325 20.8688 10.3323C20.7451 10.3319 20.6465 10.233 20.4489 10.0354L14.0573 3.64382C13.8638 3.45027 13.7671 3.35333 13.7653 3.23171C13.7638 3.11028 13.8561 3.0116 14.0417 2.81472C14.4789 2.3509 14.8267 2.01788 15.2028 1.79421Z" fill="currentColor" />
</svg>