<svg xmlns="http://www.w3.org/2000/svg" width="24" height="24" viewBox="0 0 24 24" fill="none">
    <path opacity="0.4" d="M15.0498 9.00105C14.6316 7.48456 14.2037 5.63778 13.8926 4.17976C13.7773 3.63999 13.3019 3.25106 12.75 3.25105V2.00105C12.75 1.58684 12.4142 1.25106 12 1.25105C11.5858 1.25105 11.25 1.58683 11.25 2.00105V3.25105C10.698 3.25105 10.2227 3.63998 10.1074 4.17976C9.79634 5.63778 9.3684 7.48455 8.95022 9.00105H15.0498ZM16.7744 14.001C16.3444 12.9973 15.9741 11.9913 15.6504 11.001H8.34963C8.02595 11.9913 7.65561 12.9973 7.22561 14.001H16.7744ZM7.00002 22.751C7.32808 22.751 7.61802 22.5378 7.71585 22.2247C8.36468 20.1471 10.0788 18.751 12 18.751C13.9212 18.751 15.6353 20.1472 16.2842 22.2247C16.382 22.5378 16.6719 22.751 17 22.751H21C21.2989 22.751 21.5696 22.5732 21.6885 22.2989C21.8071 22.0247 21.7512 21.7063 21.5469 21.4883C19.9603 19.796 18.7134 17.9241 17.7178 16.001H6.28225C5.2866 17.9241 4.0397 19.796 2.45315 21.4883C2.24877 21.7063 2.1929 22.0247 2.31155 22.2989C2.43039 22.5732 2.70107 22.751 3.00002 22.751H7.00002Z" fill="currentColor" />
    <path d="M16.5 11.751C16.9142 11.751 17.25 11.4153 17.25 11.001C17.25 10.5868 16.9142 10.251 16.5 10.251H7.49997C7.08577 10.251 6.74997 10.5868 6.74997 11.001C6.74997 11.4152 7.08577 11.751 7.49997 11.751H16.5ZM18 16.751C18.4142 16.751 18.75 16.4153 18.75 16.001C18.75 15.5868 18.4142 15.251 18 15.251H5.99997C5.58577 15.251 5.24997 15.5868 5.24997 16.001C5.24997 16.4152 5.58577 16.751 5.99997 16.751H18Z" fill="currentColor" />
</svg>