<svg xmlns="http://www.w3.org/2000/svg" width="24" height="24" viewBox="0 0 24 24" fill="none">
    <path fill-rule="evenodd" clip-rule="evenodd" d="M1.29295 1.28899C1.68348 0.898463 2.31649 0.898463 2.70702 1.28899L22.707 21.289C23.0975 21.6795 23.0975 22.3125 22.707 22.703C22.3165 23.0936 21.6835 23.0936 21.293 22.703L17.1447 18.5548C15.7307 19.2816 14.0161 19.7655 11.9668 19.7655C5.74528 19.7655 2.71012 15.3387 1.65331 13.3261L1.63307 13.2876C1.43299 12.9072 1.24994 12.5591 1.24999 12.0038C1.2501 11.4496 1.4331 11.1019 1.63314 10.7218L1.65428 10.6816C2.21164 9.62053 3.30272 7.91257 5.11062 6.52072L1.29295 2.70305C0.90243 2.31253 0.90243 1.67951 1.29295 1.28899ZM13.8488 15.2589L12.7188 14.1289L9.86713 11.2772L8.73715 10.1472C8.42731 10.6928 8.24999 11.324 8.24999 11.996C8.24999 14.0671 9.92892 15.746 12 15.746C12.672 15.746 13.3032 15.5687 13.8488 15.2589Z" fill="currentColor" />
    <path opacity="0.4" fill-rule="evenodd" clip-rule="evenodd" d="M8.06812 4.88258L19.8655 16.68C21.2363 15.217 22.0385 13.7749 22.3359 13.2246L22.3591 13.1819C22.5612 12.8087 22.7498 12.4605 22.75 11.9072C22.7501 11.3533 22.5618 11.0056 22.3601 10.6328L22.3379 10.5918C21.262 8.59999 18.1855 4.24609 11.8935 4.24609C11.2041 4.24609 9.87698 4.24608 8.26268 4.78418C8.19241 4.8076 8.12704 4.84097 8.06812 4.88258Z" fill="currentColor" />
</svg>