<svg xmlns="http://www.w3.org/2000/svg" width="24" height="24" viewBox="0 0 24 24" fill="none">
    <path opacity="0.4" d="M15.5 15.6639C17.433 15.6639 19 14.0969 19 12.1639C18.9999 10.231 17.4329 8.66389 15.5 8.66389C13.5671 8.66389 12.0001 10.231 12 12.1639C12 14.0969 13.567 15.6639 15.5 15.6639Z" fill="currentColor" />
    <path d="M8.33301 22.0008C10.3581 22.0008 12 20.359 12 18.3338V8.66682H15.667C17.5078 8.66682 18.9997 7.17454 19 5.33382C19 3.49287 17.5079 1.99983 15.667 1.99983H8.33301C6.49221 2.00001 5 3.49298 5 5.33382C5.00026 7.17444 6.49237 8.66665 8.33301 8.66682C6.49232 8.667 5.00018 10.1591 5 11.9998C5 13.8407 6.49221 15.3336 8.33301 15.3338C6.49221 15.334 5 16.827 5 18.6678C5.00017 20.5085 6.49231 22.0006 8.33301 22.0008Z" fill="currentColor" />
</svg>