<svg xmlns="http://www.w3.org/2000/svg" width="24" height="24" viewBox="0 0 24 24" fill="none">
    <path opacity="0.4" d="M11.5874 1.2462C12.1574 1.24543 12.6619 1.24476 13.1373 1.41342C13.2353 1.44818 13.3314 1.48818 13.4251 1.53324C13.8799 1.75191 14.2362 2.11098 14.6387 2.51663L19.4215 7.32428C19.8889 7.79263 20.3036 8.2083 20.5277 8.75205C20.7518 9.29581 20.7509 9.88455 20.7499 10.5479L20.7497 14.0222C20.7498 15.8042 20.7498 17.2406 20.5987 18.3702C20.4418 19.5431 20.1062 20.5306 19.326 21.3149C18.5457 22.0992 17.5633 22.4366 16.3965 22.5943C15.2727 22.7461 13.8438 22.7461 12.071 22.7461C10.2982 22.7461 8.72705 22.7461 7.60322 22.5943C6.43643 22.4366 5.45402 22.0992 4.67377 21.3149C3.89352 20.5306 3.55792 19.5431 3.40105 18.3702C3.24995 17.2406 3.24997 15.8042 3.25 14.0222V14.0222V9.44872V9.44869C3.24998 7.91503 3.24997 6.6785 3.36424 5.69465C3.48248 4.6767 3.73418 3.80448 4.32681 3.06563C4.54435 2.79442 4.79012 2.54738 5.05992 2.32871C5.79495 1.73299 6.66265 1.47999 7.67534 1.36113C8.6541 1.24626 10.0617 1.24617 11.5874 1.2462Z" fill="currentColor" />
    <path d="M13.1393 1.41209C13.2373 1.44685 13.3333 1.48685 13.4271 1.53191C13.8819 1.75058 14.2382 2.10965 14.6406 2.5153L19.4235 7.32295L19.4235 7.32296C19.8908 7.79131 20.3056 8.20697 20.5297 8.75072C20.6285 8.99045 20.6835 9.23892 20.7141 9.49867H18.7333C17.3657 9.49869 16.7172 9.49791 15.8502 9.38135C14.9501 9.26033 14.1922 9.00144 13.5903 8.39952C12.9884 7.7976 12.7295 7.03973 12.6085 6.13962C12.4922 5.27444 12.4922 4.62673 12.4922 3.26489V3.26486V1.27344C12.7156 1.29651 12.9302 1.33793 13.1393 1.41209Z" fill="currentColor" />
    <path d="M15.293 12.789C15.6835 12.3985 16.3165 12.3985 16.707 12.789C17.0975 13.1795 17.0975 13.8125 16.707 14.203L14.707 16.203C14.4915 16.4186 14.2188 16.7098 13.8877 16.8739C13.3283 17.151 12.6717 17.151 12.1123 16.8739C11.7811 16.7098 11.5085 16.4186 11.293 16.203C11.1487 16.0588 11.0693 15.9797 11.0088 15.9257C11.0056 15.9229 11.0027 15.9203 11 15.9179C10.9972 15.9203 10.9943 15.9229 10.9912 15.9257C10.9307 15.9797 10.8513 16.0588 10.707 16.203L8.70702 18.203C8.31649 18.5936 7.68348 18.5936 7.29295 18.203C6.90243 17.8125 6.90243 17.1795 7.29295 16.789L9.29295 14.789C9.50849 14.5735 9.78113 14.2822 10.1123 14.1181C10.6717 13.841 11.3283 13.841 11.8877 14.1181C12.2188 14.2822 12.4915 14.5735 12.707 14.789C12.8513 14.9333 12.9307 15.0123 12.9912 15.0663C12.9941 15.069 12.9974 15.0709 13 15.0732C13.0026 15.0709 13.0058 15.069 13.0088 15.0663C13.0693 15.0123 13.1487 14.9333 13.293 14.789L15.293 12.789Z" fill="currentColor" />
</svg>