<svg xmlns="http://www.w3.org/2000/svg" width="24" height="24" viewBox="0 0 24 24" fill="none">
    <path fill-rule="evenodd" clip-rule="evenodd" d="M6.75 21.9972L6.7502 16.997L6.75 1.01562C6.46743 1.05217 6.18385 1.1454 5.90821 1.32043C5.19275 1.77476 4.94965 2.51521 4.84766 3.21008C4.74991 3.87634 4.74995 4.74524 4.75 5.75555L4.75 21.9972C4.75 22.5495 5.19772 22.9972 5.75 22.9972C6.30229 22.9972 6.75 22.5495 6.75 21.9972Z" fill="currentColor" />
    <path opacity="0.4" d="M6.75 16.1499L15.3576 11.6457C16.4415 11.0786 17.3546 10.6009 17.9863 10.1418C18.6299 9.674 19.2631 9.02612 19.25 8.05682C19.2368 7.0872 18.5859 6.4568 17.9297 6.00702C17.2856 5.56561 16.3594 5.11338 15.2603 4.57665L10.3698 2.18788C9.47621 1.75139 8.70472 1.37454 8.06934 1.17401C7.65701 1.0439 7.2048 0.955893 6.75 1.01471V16.1499Z" fill="currentColor" />
</svg>