<svg xmlns="http://www.w3.org/2000/svg" width="24" height="24" viewBox="0 0 24 24" fill="none">
    <path fill-rule="evenodd" clip-rule="evenodd" d="M15.7539 9.6817C15.7506 9.68406 15.7475 9.68632 15.7446 9.68856C15.7436 9.68359 15.7425 9.67826 15.7412 9.67251L15.7446 9.68856L15.7539 9.6817ZM7.45946 6.21882C7.45922 6.21906 7.45969 6.21858 7.45946 6.21882V6.21882Z" fill="currentColor" />
    <path fill-rule="evenodd" clip-rule="evenodd" d="M12.0004 21.9962C16.5595 21.9962 20.2504 18.2865 20.2504 13.7169C20.2504 12.7775 20.2504 11.7552 19.8686 10.3692L19.8542 10.3171C19.7369 9.89112 19.6321 9.51042 19.5151 9.22078C19.3965 8.92739 19.2006 8.55272 18.7953 8.35067C18.6867 8.29653 18.5919 8.26086 18.4838 8.23543L18.3696 8.21297L18.27 8.20125C18.0394 8.18486 17.8338 8.24311 17.6752 8.3077C17.4923 8.38219 17.312 8.48978 17.141 8.60555C16.8129 8.82779 16.4023 9.15969 15.9063 9.5607L15.8569 9.60067C14.9071 13.4402 12.0809 19.1726 6.69727 20.0593C8.13088 21.2679 9.98044 21.9962 12.0004 21.9962Z" fill="currentColor" />
    <path opacity="0.4" d="M15.7441 9.68845L15.7535 9.68159C15.7577 9.67857 15.7622 9.6753 15.7666 9.67184C15.7916 9.65227 15.8225 9.62803 15.8564 9.60055C14.9067 13.4401 12.0804 19.1725 6.69684 20.0592C4.89482 18.5399 3.75 16.2617 3.75 13.7168C3.75011 11.0794 4.72986 9.30678 5.93359 7.86032C6.42172 7.27378 6.95602 6.73033 7.45903 6.21871C7.56067 6.11534 7.66126 6.01302 7.75977 5.91208C8.35837 5.29869 8.90075 4.71625 9.34082 4.07809L9.36755 4.03932C9.74236 3.49575 10.0642 3.02905 10.3574 2.70114C10.6534 2.37023 11.0531 2.02431 11.6123 1.99802C12.084 1.97599 12.456 2.14517 12.7705 2.40329C13.0139 2.60304 13.2519 2.88217 13.491 3.16783L13.5388 3.22501L13.5752 3.26852C14.5956 4.48846 15.4754 6.35998 15.6963 9.25485C15.707 9.39589 15.7153 9.49815 15.7256 9.58395C15.7301 9.62124 15.7361 9.64996 15.7408 9.67239L15.7441 9.68845Z" fill="currentColor" />
</svg>