<svg xmlns="http://www.w3.org/2000/svg" width="24" height="24" viewBox="0 0 24 24" fill="none">
    <path d="M7.9999 2.99609H8.4999V6.3916C8.4999 6.83846 8.49892 7.1184 8.48329 7.32715C8.47307 7.46362 8.45785 7.52577 8.45107 7.54883C8.4316 7.57143 8.36158 7.65268 8.18642 7.80469C7.94493 8.01425 7.59963 8.28425 7.09462 8.67676C5.9198 9.58987 5.00528 10.8248 4.48419 12.2496C5.15845 12.1169 5.8734 12.0275 6.64559 12.0029C6.69707 12.0013 6.74881 11.9999 6.8008 11.9989C7.19063 11.3242 7.70827 10.7323 8.32119 10.2559C8.80719 9.87812 9.20474 9.569 9.49697 9.31543C9.76565 9.08227 10.0711 8.793 10.245 8.4375C10.4026 8.11538 10.4554 7.7835 10.4784 7.47656C10.5 7.18847 10.4999 6.83886 10.4999 6.4442L10.4999 6.3916V2.99609H13.4999V6.3916L13.4999 6.44419C13.4999 6.83885 13.4998 7.18847 13.5214 7.47656C13.5444 7.7835 13.5972 8.11538 13.7548 8.4375C13.9287 8.793 14.2341 9.08227 14.5028 9.31543C14.7951 9.569 15.1926 9.87812 15.6786 10.2559C17.0929 11.3553 17.9999 13.0695 17.9999 14.9961C17.9999 15.1635 17.993 15.3293 17.9796 15.4932C18.0379 15.4951 18.096 15.4961 18.1542 15.4961C18.8187 15.4961 19.3788 15.4382 19.8515 15.3428C19.899 15.3332 19.9464 15.3283 19.9931 15.3278C19.9976 15.2178 19.9999 15.1072 19.9999 14.9961C19.9999 12.4258 18.7862 10.1387 16.9052 8.67676C16.4002 8.28425 16.0549 8.01425 15.8134 7.80469C15.636 7.65073 15.5689 7.57323 15.5503 7.55182C15.5435 7.52855 15.5267 7.4631 15.5165 7.32715C15.5009 7.1184 15.4999 6.83846 15.4999 6.3916V2.99609H15.9999C16.5522 2.99609 16.9999 2.54838 16.9999 1.99609C16.9999 1.44381 16.5522 0.996094 15.9999 0.996094H14.4999H9.4999H7.9999C7.44761 0.996094 6.9999 1.44381 6.9999 1.99609C6.9999 2.54838 7.44761 2.99609 7.9999 2.99609Z" fill="currentColor" />
    <path opacity="0.4" fill-rule="evenodd" clip-rule="evenodd" d="M7.07703 11.9961C9.09282 11.9962 11.0692 12.9331 12.8531 13.7789L12.9364 13.8184C14.7563 14.6809 16.3897 15.4406 17.9796 15.4932C18.0378 15.4951 18.096 15.4961 18.1542 15.4961C18.8187 15.4961 19.3788 15.4382 19.8514 15.3428C19.899 15.3332 19.9464 15.3283 19.9931 15.3278C19.9714 15.8598 19.8978 16.3784 19.7771 16.8787C18.9305 20.3885 15.7697 22.9961 11.9999 22.9961C7.5816 22.9961 3.99988 19.4144 3.99988 14.9961C3.99988 14.6142 4.02667 14.2386 4.07845 13.8711C4.15753 13.3098 4.2949 12.7672 4.48417 12.2496C5.15843 12.1169 5.87339 12.0275 6.64557 12.0029C6.69705 12.0013 6.74879 11.9999 6.80078 11.9989C6.89205 11.997 6.98413 11.9961 7.07703 11.9961Z" fill="currentColor" />
</svg>