<svg xmlns="http://www.w3.org/2000/svg" width="24" height="24" viewBox="0 0 24 24" fill="none">
    <path d="M6.37518 16.001C6.37518 16.7235 6.37656 17.1903 6.4123 17.542C6.44638 17.8769 6.50369 17.9951 6.54413 18.0557C6.61708 18.1648 6.71036 18.2591 6.81953 18.332C6.88004 18.3725 6.99816 18.4298 7.33319 18.4639C7.68501 18.4997 8.15214 18.501 8.87519 18.501H11.6379C11.6248 18.788 11.6252 19.1081 11.6252 19.4531V19.5479C11.6252 19.8932 11.6248 20.2137 11.6379 20.501H8.82635C8.16578 20.501 7.59614 20.5004 7.13105 20.4531C6.6378 20.4029 6.15211 20.2917 5.70819 19.9951C5.38066 19.7763 5.09991 19.4945 4.88105 19.167C4.58451 18.7232 4.47225 18.2382 4.42206 17.7451C4.37474 17.28 4.37516 16.7096 4.37518 16.0488V15.7451C4.66818 15.7501 4.98667 15.75 5.33026 15.75H5.42011C5.76371 15.75 6.08218 15.7501 6.37518 15.7451V16.001ZM21.8742 18.5C22.4264 18.5 22.874 18.9479 22.8742 19.5C22.8742 20.0523 22.4265 20.5 21.8742 20.5H18.1125C18.1256 20.2129 18.1252 19.893 18.1252 19.5479V19.4531C18.1252 19.1079 18.1256 18.7872 18.1125 18.5H21.8742ZM11.6379 3.5C11.6248 3.78728 11.6252 4.10773 11.6252 4.45312V4.54785C11.6252 4.89298 11.6248 5.2129 11.6379 5.5H8.87519C8.15214 5.5 7.68501 5.50132 7.33319 5.53711C6.99819 5.5712 6.88004 5.62851 6.81953 5.66895C6.71054 5.74182 6.617 5.83534 6.54413 5.94434C6.50369 6.00485 6.44639 6.12301 6.4123 6.45801C6.37651 6.80982 6.37518 7.27696 6.37518 8V8.25488C6.08218 8.2499 5.76371 8.24999 5.42011 8.25H5.33026C4.98666 8.24999 4.6682 8.2499 4.37518 8.25488V7.95117C4.37516 7.29064 4.37476 6.72092 4.42206 6.25586C4.47223 5.76262 4.58443 5.27693 4.88105 4.83301C5.09983 4.50568 5.38086 4.22463 5.70819 4.00586C6.15211 3.70924 6.6378 3.59705 7.13105 3.54688C7.59613 3.49958 8.16581 3.49997 8.82635 3.5H11.6379ZM21.8742 3.5C22.4265 3.5 22.8742 3.94776 22.8742 4.5C22.8742 5.05228 22.4265 5.5 21.8742 5.5H18.1125C18.1256 5.21289 18.1252 4.89298 18.1252 4.54785V4.45312C18.1252 4.10777 18.1256 3.78726 18.1125 3.5H21.8742Z" fill="currentColor" />
    <path opacity="0.4" d="M14.923 16.25C15.4715 16.25 15.9562 16.2502 16.3469 16.3027C16.7704 16.3597 17.1936 16.4904 17.5392 16.8359C17.8848 17.1815 18.0155 17.6048 18.0724 18.0283C18.125 18.419 18.1252 18.9038 18.1252 19.4521V19.5479C18.1252 20.0962 18.125 20.581 18.0724 20.9717C18.0155 21.3952 17.8848 21.8185 17.5392 22.1641C17.1936 22.5096 16.7704 22.6403 16.3469 22.6973C15.9562 22.7498 15.4715 22.75 14.923 22.75H14.8283C14.2798 22.75 13.7943 22.7498 13.4035 22.6973C12.9801 22.6403 12.5567 22.5096 12.2111 22.1641C11.8656 21.8185 11.7349 21.3951 11.6779 20.9717C11.6254 20.581 11.6251 20.0962 11.6252 19.5479V19.4521C11.6251 18.9038 11.6254 18.419 11.6779 18.0283C11.7349 17.6049 11.8656 17.1815 12.2111 16.8359C12.5567 16.4904 12.9801 16.3597 13.4035 16.3027C13.7943 16.2502 14.2798 16.25 14.8283 16.25H14.923ZM5.42011 8.25C6.20658 8.24998 6.86144 8.24973 7.38105 8.30957C7.92182 8.37189 8.43014 8.50957 8.85078 8.87012C9.28806 9.24496 9.47119 9.72343 9.55195 10.2383C9.62513 10.7051 9.62525 11.285 9.62519 11.9443V12.0557C9.62525 12.715 9.62513 13.2949 9.55195 13.7617C9.47119 14.2766 9.28806 14.755 8.85078 15.1299C8.43014 15.4904 7.92182 15.6281 7.38105 15.6904C6.86144 15.7503 6.20659 15.75 5.42011 15.75H5.33027C4.54369 15.75 3.88896 15.7503 3.36933 15.6904C2.82857 15.6281 2.32025 15.4904 1.89961 15.1299C1.46247 14.7551 1.27918 14.2765 1.19844 13.7617C1.12527 13.2949 1.12514 12.7149 1.12519 12.0557V11.9443C1.12514 11.2851 1.12527 10.7051 1.19844 10.2383C1.27918 9.72352 1.46247 9.24493 1.89961 8.87012C2.32025 8.50957 2.82857 8.37189 3.36933 8.30957C3.88896 8.2497 4.5437 8.24998 5.33027 8.25H5.42011ZM14.923 1.25C15.4715 1.24996 15.9562 1.25021 16.3469 1.30273C16.7704 1.35968 17.1936 1.49038 17.5392 1.83594C17.8848 2.18151 18.0155 2.60483 18.0724 3.02832C18.125 3.41897 18.1252 3.90378 18.1252 4.45215V4.54785C18.1252 5.09622 18.125 5.58102 18.0724 5.97168C18.0155 6.39517 17.8848 6.81848 17.5392 7.16406C17.1936 7.50963 16.7704 7.64032 16.3469 7.69727C15.9562 7.74979 15.4715 7.75004 14.923 7.75H14.8283C14.2798 7.75004 13.7943 7.7498 13.4035 7.69727C12.9801 7.64029 12.5567 7.5096 12.2111 7.16406C11.8656 6.81849 11.7349 6.39515 11.6779 5.97168C11.6254 5.58102 11.6251 5.09623 11.6252 4.54785V4.45215C11.6251 3.90377 11.6254 3.41898 11.6779 3.02832C11.7349 2.60486 11.8656 2.18151 12.2111 1.83594C12.5567 1.4904 12.9801 1.35971 13.4035 1.30273C13.7943 1.2502 14.2798 1.24996 14.8283 1.25H14.923Z" fill="currentColor" />
</svg>