<svg xmlns="http://www.w3.org/2000/svg" width="24" height="24" viewBox="0 0 24 24" fill="none">
    <path d="M14.2559 17.002C14.2501 17.2948 14.25 17.6117 14.25 17.9512V18.0527C14.25 18.3922 14.2501 18.7091 14.2559 19.002H10.4883C10.6486 18.7009 10.75 18.3735 10.75 18.002C10.75 17.6304 10.6486 17.3031 10.4883 17.002H14.2559ZM7 13.5137C6.69889 13.3533 6.37154 13.252 6 13.252C5.62846 13.252 5.30111 13.3533 5 13.5137V9.74606C5.29288 9.75186 5.60973 9.75194 5.94922 9.75192H6.05078C6.39028 9.75194 6.70711 9.75186 7 9.74606V13.5137Z" fill="currentColor" />
    <path opacity="0.4" d="M6 13.25C6.57306 13.25 7.04108 13.4913 7.46973 13.8184C7.87191 14.1253 8.38744 14.6403 8.90918 15.1621C9.43095 15.6838 9.87477 16.1281 10.1816 16.5303C10.5087 16.9589 10.75 17.4269 10.75 18C10.75 18.5731 10.5087 19.0411 10.1816 19.4697C9.87477 19.8719 9.43095 20.3162 8.90918 20.8379C8.38744 21.3597 7.87191 21.8747 7.46973 22.1816C7.04108 22.5087 6.57306 22.75 6 22.75C5.42694 22.75 4.95892 22.5087 4.53027 22.1816C4.12809 21.8747 3.61256 21.3597 3.09082 20.8379C2.56905 20.3162 2.12523 19.8719 1.81836 19.4697C1.49132 19.0411 1.25 18.5731 1.25 18C1.25 17.4269 1.49132 16.9589 1.81836 16.5303C2.12527 16.1281 2.64032 15.6126 3.16211 15.0908C3.68383 14.5691 4.12813 14.1252 4.53027 13.8184C4.95892 13.4913 5.42694 13.25 6 13.25ZM18.5508 13.75C19.3323 13.75 19.9938 13.7495 20.5205 13.8203C21.0801 13.8956 21.5988 14.0636 22.0176 14.4824C22.4364 14.9012 22.6044 15.4199 22.6797 15.9795C22.7505 16.5062 22.75 17.1677 22.75 17.9492V18.0508C22.75 18.8323 22.7505 19.4938 22.6797 20.0205C22.6044 20.5801 22.4364 21.0988 22.0176 21.5176C21.5988 21.9364 21.0801 22.1044 20.5205 22.1797C19.9938 22.2505 19.3323 22.25 18.5508 22.25H18.4492C17.6677 22.25 17.0062 22.2505 16.4795 22.1797C15.9199 22.1044 15.4012 21.9364 14.9824 21.5176C14.5636 21.0988 14.3956 20.5801 14.3203 20.0205C14.2495 19.4938 14.25 18.8323 14.25 18.0508V17.9492C14.25 17.1677 14.2495 16.5062 14.3203 15.9795C14.3956 15.4199 14.5636 14.9012 14.9824 14.4824C15.4012 14.0636 15.9199 13.8956 16.4795 13.8203C17.0062 13.7495 17.6677 13.75 18.4492 13.75H18.5508ZM6.05078 1.25C6.83231 1.24997 7.49376 1.24949 8.02051 1.32031C8.58012 1.39558 9.09879 1.56364 9.51758 1.98242C9.93637 2.40121 10.1044 2.91989 10.1797 3.47949C10.2505 4.00624 10.25 4.66769 10.25 5.44922V5.55078C10.25 6.33231 10.2505 6.99376 10.1797 7.52051C10.1044 8.08012 9.93637 8.59879 9.51758 9.01758C9.09879 9.43637 8.58012 9.60442 8.02051 9.67969C7.49376 9.75051 6.83231 9.75003 6.05078 9.75H5.94922C5.16769 9.75003 4.50624 9.75051 3.97949 9.67969C3.41988 9.60442 2.90121 9.43637 2.48242 9.01758C2.06363 8.59879 1.89558 8.08012 1.82031 7.52051C1.74949 6.99376 1.74997 6.33231 1.75 5.55078V5.44922C1.74997 4.66769 1.74949 4.00624 1.82031 3.47949C1.89558 2.91989 2.06363 2.40121 2.48242 1.98242C2.90121 1.56364 3.41988 1.39558 3.97949 1.32031C4.50624 1.24949 5.16769 1.24997 5.94922 1.25H6.05078Z" fill="currentColor" />
</svg>