<svg xmlns="http://www.w3.org/2000/svg" width="24" height="24" viewBox="0 0 24 24" fill="none">
    <path opacity="0.4" d="M5.52148 11.25C5.73575 11.25 5.93332 11.2504 6.09863 11.2617C6.27616 11.2739 6.47159 11.3007 6.66992 11.3828C7.09868 11.5604 7.43957 11.9013 7.61719 12.3301C7.69934 12.5284 7.72614 12.7238 7.73828 12.9014C7.74956 13.0667 7.75001 13.2642 7.75 13.4785V17.5215C7.75001 17.7358 7.74956 17.9333 7.73828 18.0986C7.72614 18.2762 7.69934 18.4716 7.61719 18.6699C7.43957 19.0987 7.09868 19.4396 6.66992 19.6172C6.47159 19.6993 6.27616 19.7261 6.09863 19.7383C5.93338 19.7496 5.69272 19.75 5.47852 19.75C5.26424 19.75 5.06669 19.7496 4.90137 19.7383C4.72385 19.7261 4.52841 19.6993 4.33008 19.6172C3.90132 19.4396 3.56043 19.0987 3.38281 18.6699C3.30066 18.4716 3.27386 18.2762 3.26172 18.0986C3.25044 17.9333 3.24999 17.7357 3.25 17.5215V13.4785C3.24999 13.2643 3.25044 13.0667 3.26172 12.9014C3.27386 12.7238 3.30066 12.5284 3.38281 12.3301C3.56043 11.9013 3.90132 11.5604 4.33008 11.3828C4.52841 11.3007 4.72385 11.2739 4.90137 11.2617C5.06662 11.2504 5.30728 11.25 5.52148 11.25ZM12.3174 7.25098C12.4195 7.25238 12.5159 7.25608 12.5986 7.26172C12.7762 7.27386 12.9716 7.30066 13.1699 7.38281C13.5987 7.56043 13.9396 7.90132 14.1172 8.33008C14.1993 8.52841 14.2261 8.72385 14.2383 8.90137C14.2496 9.06669 14.25 9.26424 14.25 9.47852V17.5215C14.25 17.7358 14.2496 17.9333 14.2383 18.0986C14.2261 18.2762 14.1993 18.4716 14.1172 18.6699C13.9396 19.0987 13.5987 19.4396 13.1699 19.6172C12.9716 19.6993 12.7762 19.7261 12.5986 19.7383C12.4333 19.7496 12.2358 19.75 12.0215 19.75C11.8073 19.75 11.5666 19.7496 11.4014 19.7383C11.2238 19.7261 11.0284 19.6993 10.8301 19.6172C10.4013 19.4396 10.0604 19.0987 9.88281 18.6699C9.80066 18.4716 9.77386 18.2762 9.76172 18.0986C9.75044 17.9333 9.74999 17.7357 9.75 17.5215V9.47852C9.74999 9.26425 9.75044 9.06668 9.76172 8.90137C9.77386 8.72385 9.80066 8.52841 9.88281 8.33008C10.0604 7.90132 10.4013 7.56043 10.8301 7.38281C11.0284 7.30066 11.2238 7.27386 11.4014 7.26172C11.5667 7.25044 11.7857 7.24999 12 7.25L12.3174 7.25098ZM18.8174 4.25098C18.9195 4.25238 19.0159 4.25608 19.0986 4.26172C19.2762 4.27386 19.4716 4.30066 19.6699 4.38281C20.0987 4.56043 20.4396 4.90132 20.6172 5.33008C20.6993 5.52841 20.7261 5.72385 20.7383 5.90137C20.7496 6.06669 20.75 6.26424 20.75 6.47852V17.5215C20.75 17.7358 20.7496 17.9333 20.7383 18.0986C20.7261 18.2762 20.6993 18.4716 20.6172 18.6699C20.4396 19.0987 20.0987 19.4396 19.6699 19.6172C19.4716 19.6993 19.2762 19.7261 19.0986 19.7383C18.9334 19.7496 18.6927 19.75 18.4785 19.75C18.2642 19.75 18.0667 19.7496 17.9014 19.7383C17.7238 19.7261 17.5284 19.6993 17.3301 19.6172C16.9013 19.4396 16.5604 19.0987 16.3828 18.6699C16.3007 18.4716 16.2739 18.2762 16.2617 18.0986C16.2504 17.9333 16.25 17.7357 16.25 17.5215V6.47852C16.25 6.26425 16.2504 6.06668 16.2617 5.90137C16.2739 5.72385 16.3007 5.52841 16.3828 5.33008C16.5604 4.90132 16.9013 4.56043 17.3301 4.38281C17.5284 4.30066 17.7238 4.27386 17.9014 4.26172C18.0667 4.25044 18.2857 4.24999 18.5 4.25L18.8174 4.25098Z" fill="currentColor" />
</svg>