<svg xmlns="http://www.w3.org/2000/svg" width="24" height="24" viewBox="0 0 24 24" fill="none">
    <path opacity="0.4" fill-rule="evenodd" clip-rule="evenodd" d="M15.253 12.9961C15.2595 12.986 15.2699 12.9709 15.2867 12.9492C15.3377 12.8833 15.4111 12.8005 15.5435 12.6523L19.4869 8.24024L19.5472 8.17274C20.4617 7.14962 21.2041 6.319 21.6617 5.63086C22.119 4.94299 22.4617 4.14977 22.0992 3.33008C21.7355 2.50794 20.9164 2.23333 20.1011 2.11524C19.2781 1.99606 18.1535 1.99608 16.7681 1.99609H16.7193H7.27982H7.23103C5.84555 1.99608 4.72102 1.99606 3.89798 2.11524C3.08265 2.23333 2.26356 2.50794 1.89994 3.33008C1.53741 4.14977 1.8801 4.94299 2.33744 5.63086C2.795 6.31902 3.53747 7.14968 4.45202 8.17286L4.51224 8.24024L8.4556 12.6523C8.588 12.8005 8.66143 12.8833 8.71244 12.9492C8.72917 12.9709 8.73956 12.986 8.74605 12.9961L8.7515 13.0049H15.2476L15.253 12.9961ZM10.4242 21.9961C10.392 21.9971 10.3596 21.9971 10.327 21.9961H10.4242Z" fill="currentColor" />
    <path d="M15.2262 17.668L15.2262 17.71C15.2262 17.936 15.2263 18.1514 15.2096 18.3359C15.1904 18.5467 15.1467 18.7691 15.0308 18.9932C14.9149 19.2174 14.7585 19.3813 14.5972 19.5186C14.4538 19.6407 14.2745 19.767 14.0871 19.8991L14.0631 19.916L13.0728 20.6143L13.0352 20.6408C12.3888 21.0964 11.8346 21.4872 11.3736 21.7197C11.0942 21.8606 10.7687 21.9852 10.4243 21.9961H10.3271C10.1243 21.9896 9.91601 21.9413 9.7076 21.832C9.11058 21.519 8.92337 20.921 8.84725 20.4014C8.77291 19.8937 8.77296 19.2208 8.77303 18.4354L8.77303 18.3662V13.4873C8.77303 13.2879 8.77211 13.1765 8.76619 13.0928C8.76356 13.0556 8.76044 13.0351 8.75838 13.0244L8.75643 13.0137C8.75643 13.0137 8.75388 13.0088 8.75155 13.0049H15.2476L15.2428 13.0137L15.2408 13.0244C15.2388 13.0351 15.2356 13.0556 15.233 13.0928C15.2271 13.1765 15.2262 13.2879 15.2262 13.4873V17.668Z" fill="currentColor" />
</svg>