<svg xmlns="http://www.w3.org/2000/svg" width="24" height="24" viewBox="0 0 24 24" fill="none">
    <path d="M20.7839 2.2899C21.1741 1.89909 21.8071 1.89788 22.198 2.28794C22.5888 2.67809 22.589 3.31115 22.199 3.70201L20.4128 5.49107L22.2077 7.2899C22.5976 7.68078 22.5965 8.31389 22.2058 8.70396C21.8149 9.09377 21.1818 9.09273 20.7917 8.70201L18.9997 6.90708L17.2077 8.70201C16.8177 9.09273 16.1846 9.09377 15.7937 8.70396C15.403 8.31389 15.4019 7.68078 15.7917 7.2899L17.5857 5.49107L15.8005 3.70201C15.4105 3.31115 15.4107 2.67809 15.8015 2.28794C16.1923 1.89788 16.8254 1.89909 17.2156 2.2899L18.9997 4.07603L20.7839 2.2899Z" fill="currentColor" />
    <path opacity="0.4" fill-rule="evenodd" clip-rule="evenodd" d="M14.916 4.58594C14.2162 3.88493 14.0751 2.83709 14.4921 1.99609H7.02982H6.98103C5.59555 1.99608 4.47102 1.99606 3.64798 2.11524C2.83265 2.23333 2.01356 2.50794 1.64994 3.33008C1.28741 4.14977 1.6301 4.94299 2.08744 5.63086C2.545 6.31902 3.28747 7.14968 4.20202 8.17286L4.26224 8.24024L8.2056 12.6523C8.338 12.8005 8.41143 12.8833 8.46244 12.9492C8.48498 12.9784 8.49601 12.9957 8.5015 13.0049C8.50383 13.0088 8.50638 13.0137 8.50638 13.0137L8.50833 13.0244C8.51039 13.0351 8.51351 13.0556 8.51615 13.0928C8.52207 13.1765 8.52298 13.2879 8.52298 13.4873V18.3662L8.52298 18.4354C8.52292 19.2208 8.52286 19.8937 8.5972 20.4014C8.67332 20.921 8.86053 21.519 9.45755 21.832C10.0568 22.1462 10.6551 21.956 11.1236 21.7197C11.5845 21.4872 12.1388 21.0964 12.7852 20.6408L12.8228 20.6143L13.813 19.916L13.837 19.8991C14.0244 19.767 14.2037 19.6407 14.3472 19.5186C14.5084 19.3813 14.6648 19.2174 14.7808 18.9932C14.8966 18.7691 14.9404 18.5467 14.9595 18.3359C14.9762 18.1514 14.9762 17.936 14.9761 17.71L14.9761 17.668V13.4873C14.9761 13.2879 14.977 13.1765 14.9829 13.0928C14.9856 13.0556 14.9887 13.0351 14.9908 13.0244L14.9927 13.0137L14.9976 13.0049C15.0031 12.9957 15.0141 12.9784 15.0367 12.9492C15.0877 12.8833 15.1611 12.8005 15.2935 12.6523L17.8365 9.807C16.9564 10.4581 15.7084 10.3857 14.9102 9.58887C14.0308 8.71097 14.0294 7.28567 14.9072 6.40625L15.8203 5.49121L14.916 4.58594Z" fill="currentColor" />
</svg>