<svg xmlns="http://www.w3.org/2000/svg" width="24" height="24" viewBox="0 0 24 24" fill="none">
    <path opacity="0.4" d="M11.25 2.78125C6.49211 3.16302 2.75 7.14581 2.75 12.002C2.75019 16.8579 6.49223 20.8399 11.25 21.2217V22.7256C5.66298 22.3405 1.25019 17.6867 1.25 12.002C1.25 6.31701 5.66285 1.66238 11.25 1.27734V2.78125ZM7.40918 16.6631C7.66436 16.3371 8.13573 16.2792 8.46191 16.5342C9.25194 17.1518 10.2065 17.5674 11.25 17.7031V19.2129C9.85865 19.0698 8.58311 18.5328 7.53809 17.7158C7.21181 17.4607 7.15408 16.9894 7.40918 16.6631ZM5.46191 12.2607C5.87109 12.1976 6.25399 12.4776 6.31738 12.8867C6.41447 13.5155 6.61388 14.1112 6.89746 14.6553C7.08857 15.0225 6.9453 15.4756 6.57812 15.667C6.21094 15.858 5.75781 15.7157 5.56641 15.3486C5.20846 14.6619 4.95755 13.91 4.83496 13.1162C4.77175 12.7068 5.05255 12.324 5.46191 12.2607ZM11.25 9.87988C10.3762 10.1888 9.75 11.0223 9.75 12.002C9.75016 12.9815 10.3762 13.8152 11.25 14.124V15.6768C9.53843 15.3293 8.25017 13.816 8.25 12.002C8.25 10.1877 9.53832 8.67362 11.25 8.32617V9.87988ZM11.25 6.2998C9.02553 6.58951 7.19965 8.15129 6.52734 10.2324C6.39998 10.6264 5.97707 10.842 5.58301 10.7148C5.18898 10.5876 4.97254 10.1655 5.09961 9.77148C5.96646 7.08812 8.35511 5.08741 11.25 4.79004V6.2998Z" fill="currentColor" />
    <path d="M17.9727 3.06152C18.8111 3.62285 19.5647 4.29989 20.2139 5.06836L19.6357 5.47754C19.6074 5.49762 19.5809 5.52013 19.5557 5.54395C19.1776 5.90008 18.7606 6.16015 18.3193 6.27051C17.238 6.54084 16.0632 7.09957 15.3584 7.96094C14.9949 8.40523 14.7391 8.95318 14.7275 9.58594C14.716 10.219 14.9505 10.8471 15.4014 11.4482C15.568 11.6705 15.7248 11.8744 15.875 12.0693C16.0844 12.3412 16.2807 12.5966 16.4717 12.8604C16.7891 13.2987 17.0319 13.6831 17.1865 14.0439C17.3379 14.3971 17.3947 14.7046 17.3643 14.999C17.334 15.2917 17.2115 15.6353 16.9014 16.0488C16.4852 16.6038 16.0548 17.4386 16.1006 18.3096C16.1247 18.7678 16.2815 19.2304 16.6289 19.6299C16.9619 20.0128 17.4318 20.2947 18.0166 20.4834L18.3857 20.6465C16.6 21.9675 14.3918 22.75 12 22.75C11.8107 22.75 11.25 22.7344 11.25 22.7344V6.24805H11.9746C12.8559 6.30788 13.9923 6.23532 15.0469 5.88672C16.1113 5.53478 17.1814 4.86872 17.7334 3.68262C17.7406 3.66707 17.7468 3.65077 17.7529 3.63477L17.9727 3.06152ZM21.0986 6.27832C22.143 7.93561 22.75 9.89637 22.75 12C22.75 14.9479 21.5622 17.6175 19.6406 19.5596L18.584 19.0938C18.5584 19.0825 18.5316 19.0728 18.5049 19.0645C18.0894 18.9347 17.8729 18.7745 17.7607 18.6455C17.655 18.524 17.606 18.3899 17.5977 18.2305C17.5786 17.8662 17.7787 17.3788 18.1016 16.9482C18.5413 16.3618 18.793 15.7668 18.8564 15.1533C18.9196 14.5418 18.7889 13.9747 18.5654 13.4531C18.3451 12.939 18.0253 12.4483 17.6865 11.9805C17.4892 11.708 17.2639 11.4144 17.0391 11.1221C16.8901 10.9285 16.7413 10.7351 16.6016 10.5488C16.3024 10.1499 16.2234 9.83957 16.2275 9.61328C16.2317 9.38689 16.3207 9.15416 16.5195 8.91113C16.9397 8.39762 17.7641 7.95527 18.6826 7.72559C19.4249 7.54 20.0479 7.13031 20.5439 6.67188L21.0986 6.27832ZM12 1.25C13.6677 1.25 15.2467 1.62985 16.6553 2.30762L16.3633 3.07129C16.0447 3.73642 15.4048 4.18864 14.5752 4.46289C13.7377 4.73964 12.7936 4.80277 12.0547 4.75C12.0369 4.74873 12.0188 4.74805 12.001 4.74805H11.25V1.27344C11.25 1.27344 11.8157 1.25 12 1.25Z" fill="currentColor" />
</svg>