<svg xmlns="http://www.w3.org/2000/svg" width="24" height="24" viewBox="0 0 24 24" fill="none">
    <path opacity="0.4" d="M3.32129 12.9115C3.39224 12.852 3.5242 12.8741 3.78711 12.9183C3.95579 12.9468 4.11546 12.9625 4.26074 12.973C4.61082 12.9984 5.02291 12.9984 5.43945 12.9984H10.5996C10.788 12.9984 10.8828 12.9987 10.9414 13.057C11 13.1156 11 13.2102 11 13.3988V22.6927C11 22.7235 10.975 22.7484 10.9443 22.7484C9.3417 22.7484 8.06266 22.7485 7.05957 22.6136C6.02348 22.4744 5.1702 22.1792 4.49512 21.5043C3.81998 20.8291 3.52409 19.9751 3.38477 18.9388C3.24995 17.9359 3.24998 16.6565 3.25 15.0541V13.3402C3.25 13.0945 3.25043 12.9714 3.32129 12.9115ZM20.2129 12.9183C20.4758 12.874 20.6078 12.852 20.6787 12.9115C20.7496 12.9714 20.75 13.0945 20.75 13.3402V15.0551C20.75 16.6573 20.75 17.936 20.6152 18.9388C20.4758 19.9751 20.18 20.8291 19.5049 21.5043C18.8298 22.1792 17.9766 22.4744 16.9404 22.6136C15.9373 22.7485 14.6583 22.7484 13.0557 22.7484C13.025 22.7484 13 22.7235 13 22.6927V13.3988C13 13.2103 13 13.1156 13.0586 13.057C13.1172 12.9987 13.212 12.9984 13.4004 12.9984H18.5605C18.9771 12.9984 19.3891 12.9984 19.7393 12.973C19.8845 12.9625 20.0442 12.9468 20.2129 12.9183Z" fill="currentColor" />
    <path d="M8.14258 1.25006C9.71435 1.25006 11.1122 1.99648 12 3.15436C12.8878 1.99648 14.2856 1.25006 15.8574 1.25006H16.2139C17.7524 1.25006 19 2.49769 19 4.03619C18.9999 4.84848 18.7693 5.60663 18.3711 6.25006H18.5273C18.9715 6.25005 19.345 6.25045 19.6494 6.27252C19.9653 6.29544 20.2722 6.34459 20.5645 6.47955C20.8956 6.63252 21.1916 6.86244 21.4072 7.16119C21.6108 7.4433 21.6866 7.74719 21.7197 8.03912C21.7497 8.30355 21.75 8.6211 21.75 8.96393V9.03619C21.75 9.37884 21.7496 9.69569 21.7197 9.96002C21.6866 10.2521 21.611 10.5566 21.4072 10.8389C21.1916 11.1377 20.8956 11.3676 20.5645 11.5206C20.2722 11.6555 19.9653 11.7047 19.6494 11.7276C19.345 11.7497 18.9715 11.7501 18.5273 11.7501H5.47266C5.02846 11.7501 4.65497 11.7497 4.35059 11.7276C4.03472 11.7047 3.72782 11.6555 3.43555 11.5206C3.10437 11.3676 2.80838 11.1377 2.59277 10.8389C2.38904 10.5566 2.31337 10.2521 2.28027 9.96002C2.25036 9.69569 2.24996 9.37884 2.25 9.03619V8.96393C2.24996 8.6211 2.25032 8.30355 2.28027 8.03912C2.3134 7.7472 2.38921 7.4433 2.59277 7.16119C2.80838 6.86244 3.10437 6.63252 3.43555 6.47955C3.72783 6.34458 4.03471 6.29544 4.35059 6.27252C4.65497 6.25045 5.02846 6.25005 5.47266 6.25006H5.62891C5.23068 5.60663 5.00008 4.84848 5 4.03619C5 2.49769 6.24763 1.25006 7.78613 1.25006H8.14258ZM7.78613 3.25006C7.35219 3.25006 7 3.60226 7 4.03619C7.00023 5.25878 7.99128 6.24983 9.21387 6.25006H11V6.10748C11 4.52953 9.72053 3.25006 8.14258 3.25006H7.78613ZM15.8574 3.25006C14.2795 3.25006 13 4.52953 13 6.10748V6.25006H14.7861C16.0087 6.24983 16.9998 5.25878 17 4.03619C17 3.60226 16.6478 3.25006 16.2139 3.25006H15.8574Z" fill="currentColor" />
</svg>