<svg xmlns="http://www.w3.org/2000/svg" width="24" height="24" viewBox="0 0 24 24" fill="none">
    <path opacity="0.4" d="M5.58789 13.5859C4.80686 14.367 4.80686 15.633 5.58789 16.4141C6.36894 17.1951 7.63496 17.1951 8.41601 16.4141L9.25195 15.5791V20.75C7.73681 20.7478 6.50465 20.73 5.51269 20.5967C4.34027 20.4391 3.39094 20.1068 2.64257 19.3584C1.89449 18.6101 1.56191 17.6614 1.4043 16.4893C1.27093 15.4973 1.25417 14.2652 1.25195 12.75H6.42383L5.58789 13.5859ZM22.751 12.75C22.7488 14.2652 22.732 15.4973 22.5987 16.4893C22.4411 17.6615 22.1086 18.6101 21.3604 19.3584C20.612 20.1068 19.6627 20.4391 18.4903 20.5967C17.3511 20.7498 15.8952 20.75 14.0577 20.75H10.752V15.5781L11.5879 16.4141C12.369 17.1951 13.635 17.1951 14.4161 16.4141C15.1971 15.633 15.1971 14.367 14.4161 13.5859L13.5801 12.75H22.751ZM9.25195 8.4209L8.41601 7.58594C7.63496 6.80489 6.36894 6.80489 5.58789 7.58594C4.80684 8.36699 4.80684 9.63301 5.58789 10.4141L6.42383 11.25H1.25195C1.25486 9.75884 1.27405 8.47948 1.4043 7.51074C1.56191 6.33857 1.89449 5.38988 2.64257 4.6416C3.39094 3.89324 4.34027 3.56095 5.51269 3.40332C6.50465 3.26996 7.73681 3.25222 9.25195 3.25V8.4209ZM14.0577 3.25C15.8952 3.24999 17.3511 3.25021 18.4903 3.40332C19.6627 3.56095 20.612 3.89324 21.3604 4.6416C22.1086 5.38989 22.4411 6.3385 22.5987 7.51074C22.7289 8.47948 22.7481 9.75884 22.751 11.25H13.5801L14.4161 10.4141C15.1971 9.63301 15.1971 8.36699 14.4161 7.58594C13.635 6.80491 12.369 6.80491 11.5879 7.58594L10.752 8.42188V3.25H14.0577Z" fill="currentColor" />
    <path d="M12.4697 8.46968C12.7626 8.17678 13.2373 8.17678 13.5302 8.46968C13.823 8.76257 13.8231 9.23739 13.5302 9.53022L11.0605 11.9999L13.5302 14.4696C13.823 14.7625 13.823 15.2373 13.5302 15.5302C13.2373 15.8229 12.7626 15.8229 12.4697 15.5302L9.99995 13.0605L7.53022 15.5302C7.23738 15.8229 6.76258 15.8229 6.46967 15.5302C6.17679 15.2373 6.17679 14.7625 6.46967 14.4696L8.9394 11.9999L6.46967 9.53022C6.17678 9.23733 6.17678 8.76257 6.46967 8.46968C6.76257 8.17678 7.23733 8.17678 7.53022 8.46968L9.99995 10.9394L12.4697 8.46968Z" fill="currentColor" />
</svg>