<svg xmlns="http://www.w3.org/2000/svg" width="24" height="24" viewBox="0 0 24 24" fill="none">
    <path fill-rule="evenodd" clip-rule="evenodd" d="M4.99805 14.3802V3.24219C4.99805 2.6899 5.44576 2.24219 5.99805 2.24219C6.55033 2.24219 6.99805 2.6899 6.99805 3.24219V8.99641C7.28046 8.6198 7.59 8.2609 7.92676 7.92415C9.65535 6.19556 11.9518 5.16535 14.3776 5.01468C14.2931 5.3273 14.248 5.6561 14.248 5.99544C14.248 6.35015 14.2973 6.69336 14.3893 7.0186C12.4902 7.16338 10.697 7.98205 9.34082 9.33821C7.98466 10.6944 7.16599 12.4876 7.02121 14.3867C6.69597 14.2947 6.35276 14.2454 5.99805 14.2454C5.65174 14.2454 5.31641 14.2924 4.99805 14.3802Z" fill="currentColor" />
    <path d="M20.748 16.9961C21.3003 16.9961 21.748 17.4438 21.748 17.9961C21.748 18.5484 21.3003 18.9961 20.748 18.9961H14.748C14.1958 18.9961 13.748 18.5484 13.748 17.9961C13.748 17.4438 14.1958 16.9961 14.748 16.9961H20.748Z" fill="currentColor" />
    <path opacity="0.4" d="M17.998 2.24609C16.2663 2.24609 14.8087 3.41993 14.3776 5.01534C14.2931 5.32796 14.248 5.65676 14.248 5.99609C14.248 6.35081 14.2973 6.69401 14.3893 7.01926C14.8347 8.59301 16.2817 9.74609 17.998 9.74609C20.0691 9.74609 21.748 8.06716 21.748 5.99609C21.748 3.92503 20.0691 2.24609 17.998 2.24609Z" fill="currentColor" />
    <path opacity="0.4" d="M5.99805 14.2461C5.65174 14.2461 5.31641 14.293 4.99805 14.3809C3.41245 14.8185 2.24805 16.2713 2.24805 17.9961C2.24805 20.0672 3.92698 21.7461 5.99805 21.7461C8.06911 21.7461 9.74805 20.0672 9.74805 17.9961C9.74805 16.2797 8.59497 14.8327 7.02121 14.3874C6.69597 14.2953 6.35276 14.2461 5.99805 14.2461Z" fill="currentColor" />
</svg>