<svg xmlns="http://www.w3.org/2000/svg" width="24" height="24" viewBox="0 0 24 24" fill="none">
    <path fill-rule="evenodd" clip-rule="evenodd" d="M12.998 8.377C12.6797 8.28913 12.3443 8.24219 11.998 8.24219C11.6517 8.24219 11.3164 8.28913 10.998 8.377V2.99219C10.998 2.4399 11.4458 1.99219 11.998 1.99219C12.5503 1.99219 12.998 2.4399 12.998 2.99219V8.377Z" fill="currentColor" />
    <path fill-rule="evenodd" clip-rule="evenodd" d="M10.998 15.6055V20.9903C10.998 21.5426 11.4458 21.9903 11.998 21.9903C12.5503 21.9903 12.998 21.5426 12.998 20.9903V15.6055C12.6797 15.6933 12.3443 15.7403 11.998 15.7403C11.6517 15.7403 11.3164 15.6933 10.998 15.6055Z" fill="currentColor" />
    <path opacity="0.4" d="M10.998 8.377C11.3164 8.28913 11.6517 8.24219 11.998 8.24219C12.3443 8.24219 12.6797 8.28913 12.998 8.377C14.5836 8.81462 15.748 10.2674 15.748 11.9922C15.748 13.717 14.5836 15.1698 12.998 15.6074C12.6797 15.6952 12.3443 15.7422 11.998 15.7422C11.6517 15.7422 11.3164 15.6952 10.998 15.6074C9.41245 15.1698 8.24805 13.717 8.24805 11.9922C8.24805 10.2674 9.41245 8.81462 10.998 8.377Z" fill="currentColor" />
</svg>