<svg xmlns="http://www.w3.org/2000/svg" width="24" height="24" viewBox="0 0 24 24" fill="none">
    <path d="M16.998 10.9922C16.998 10.0392 16.9973 9.39129 16.9521 8.89258C16.9082 8.40776 16.8289 8.16269 16.7305 7.99219C16.5549 7.68815 16.3021 7.4353 15.998 7.25977C15.8275 7.16136 15.5825 7.08203 15.0977 7.03809C14.5989 6.99289 13.951 6.99219 12.998 6.99219H11.998C11.4458 6.99219 10.998 6.54447 10.998 5.99219C10.998 5.4399 11.4458 4.99219 11.998 4.99219H12.998C13.9143 4.99219 14.6684 4.99159 15.2783 5.04688C15.902 5.10341 16.4724 5.22486 16.998 5.52832C17.606 5.87937 18.1109 6.38419 18.4619 6.99219L18.5674 7.19141C18.7948 7.66127 18.8939 8.1662 18.9434 8.71191C18.9986 9.32185 18.998 10.076 18.998 10.9922C18.998 11.5445 18.5503 11.9922 17.998 11.9922C17.4458 11.9922 16.998 11.5445 16.998 10.9922Z" fill="currentColor" />
    <path d="M5.24805 20.7422V11.7422C5.24805 11.1899 5.69576 10.7422 6.24805 10.7422C6.80033 10.7422 7.24805 11.1899 7.24805 11.7422V20.7422C7.24805 21.2945 6.80033 21.7422 6.24805 21.7422C5.69576 21.7422 5.24805 21.2945 5.24805 20.7422Z" fill="currentColor" />
    <path opacity="0.4" d="M8.54094 2.53508C8.93146 2.14456 9.56448 2.14456 9.955 2.53508C10.3455 2.9256 10.3455 3.55862 9.955 3.94914L7.66203 6.24211L9.955 8.53508C10.3455 8.9256 10.3455 9.55862 9.955 9.94914C9.56448 10.3397 8.93146 10.3397 8.54094 9.94914L6.24797 7.65617L3.955 9.94914C3.56448 10.3397 2.93146 10.3397 2.54094 9.94914C2.15042 9.55862 2.15042 8.9256 2.54094 8.53508L4.83391 6.24211L2.54094 3.94914C2.15042 3.55862 2.15042 2.9256 2.54094 2.53508C2.93146 2.14456 3.56448 2.14456 3.955 2.53508L6.24797 4.82805L8.54094 2.53508Z" fill="currentColor" />
    <path opacity="0.4" d="M21.748 17.9922C21.748 20.0633 20.0691 21.7422 17.998 21.7422C15.927 21.7422 14.248 20.0633 14.248 17.9922C14.248 15.9211 15.927 14.2422 17.998 14.2422C20.0691 14.2422 21.748 15.9211 21.748 17.9922Z" fill="currentColor" />
</svg>