<svg xmlns="http://www.w3.org/2000/svg" width="24" height="24" viewBox="0 0 24 24" fill="none">
    <path d="M3.99805 20.9922V12.9922C3.99805 12.4399 4.44576 11.9922 4.99805 11.9922C5.55033 11.9922 5.99805 12.4399 5.99805 12.9922V20.9922C5.99805 21.5445 5.55033 21.9922 4.99805 21.9922C4.44576 21.9922 3.99805 21.5445 3.99805 20.9922Z" fill="currentColor" />
    <path d="M17.998 10.9917C17.998 10.0387 17.9973 9.39076 17.9521 8.89205C17.9192 8.52832 17.8657 8.29973 17.7998 8.13619L17.7305 7.99166C17.5549 7.68762 17.3021 7.43478 16.998 7.25924C16.8275 7.16084 16.5825 7.0815 16.0977 7.03756C15.6183 6.99412 15.001 6.9918 14.1074 6.99166C14.1228 7.00514 14.1378 7.0192 14.1533 7.03268C14.5108 7.3431 14.8717 7.6332 15.1445 7.84615C15.2803 7.95208 15.3933 8.03791 15.4717 8.09713L15.585 8.18209C15.585 8.18209 15.5872 8.18377 15.585 8.18209C16.0297 8.50961 16.1302 9.13974 15.8027 9.58444C15.4753 10.0289 14.8499 10.1245 14.4053 9.79733C14.4035 9.79601 14.3976 9.79078 14.3945 9.78854C14.3881 9.78378 14.3789 9.77679 14.3672 9.76803C14.3436 9.75046 14.3094 9.72519 14.2666 9.69283C14.181 9.62817 14.0594 9.53574 13.9141 9.42233C13.6245 9.19636 13.2351 8.88406 12.8428 8.54342C12.4554 8.20711 12.042 7.82335 11.7178 7.45651C11.5567 7.27416 11.396 7.07183 11.2705 6.86373C11.1616 6.68307 10.9981 6.36891 10.998 5.99166C10.998 5.61441 11.1616 5.30025 11.2705 5.11959C11.396 4.91149 11.5567 4.70916 11.7178 4.52682C12.042 4.15997 12.4554 3.77622 12.8428 3.4399C13.2351 3.09927 13.6245 2.78696 13.9141 2.561C14.0594 2.44759 14.181 2.35515 14.2666 2.29049C14.3094 2.25814 14.3436 2.23287 14.3672 2.2153C14.379 2.20652 14.3881 2.19955 14.3945 2.19479C14.3928 2.1961 14.3976 2.19254 14.3945 2.19479L14.4043 2.18697C14.849 1.8598 15.4763 1.95432 15.8037 2.39889C16.1309 2.84356 16.0354 3.46991 15.5908 3.79733C15.5908 3.79733 15.5931 3.79564 15.5908 3.79733L15.4717 3.88619C15.3933 3.94541 15.2803 4.03125 15.1445 4.13717C14.8717 4.35012 14.5109 4.64022 14.1533 4.95065C14.1374 4.96444 14.1213 4.97786 14.1055 4.99166C14.9734 4.99168 15.6924 4.99324 16.2783 5.04635C16.902 5.10288 17.4724 5.22434 17.998 5.5278C18.606 5.87885 19.1109 6.38366 19.4619 6.99166C19.7654 7.51727 19.8868 8.08776 19.9434 8.71139C19.9986 9.32133 19.998 10.0754 19.998 10.9917C19.998 11.5439 19.5503 11.9917 18.998 11.9917C18.4458 11.9917 17.998 11.5439 17.998 10.9917Z" fill="currentColor" />
    <path opacity="0.4" d="M22.748 17.9922C22.748 20.0633 21.0691 21.7422 18.998 21.7422C16.927 21.7422 15.248 20.0633 15.248 17.9922C15.248 15.9211 16.927 14.2422 18.998 14.2422C21.0691 14.2422 22.748 15.9211 22.748 17.9922Z" fill="currentColor" />
    <path opacity="0.4" d="M8.74805 5.99219C8.74805 8.06326 7.06911 9.74219 4.99805 9.74219C2.92698 9.74219 1.24805 8.06326 1.24805 5.99219C1.24805 3.92112 2.92698 2.24219 4.99805 2.24219C7.06911 2.24219 8.74805 3.92112 8.74805 5.99219Z" fill="currentColor" />
</svg>