<svg xmlns="http://www.w3.org/2000/svg" width="24" height="24" viewBox="0 0 24 24" fill="none">
    <path opacity="0.4" d="M9.74805 5.99219C9.74805 8.06326 8.06911 9.74219 5.99805 9.74219C3.92698 9.74219 2.24805 8.06326 2.24805 5.99219C2.24805 3.92112 3.92698 2.24219 5.99805 2.24219C8.06911 2.24219 9.74805 3.92112 9.74805 5.99219Z" fill="currentColor" />
    <path d="M4.99805 20.7422V12.7422C4.99805 12.1899 5.44576 11.7422 5.99805 11.7422C6.55033 11.7422 6.99805 12.1899 6.99805 12.7422V20.7422C6.99805 21.2945 6.55033 21.7422 5.99805 21.7422C5.44576 21.7422 4.99805 21.2945 4.99805 20.7422Z" fill="currentColor" />
    <path opacity="0.4" d="M16.748 20.7422V18.7422H14.748C14.1958 18.7422 13.748 18.2945 13.748 17.7422C13.748 17.1899 14.1958 16.7422 14.748 16.7422H16.748V14.7422C16.748 14.1899 17.1958 13.7422 17.748 13.7422C18.3003 13.7422 18.748 14.1899 18.748 14.7422V16.7422H20.748C21.3003 16.7422 21.748 17.1899 21.748 17.7422C21.748 18.2945 21.3003 18.7422 20.748 18.7422H18.748V20.7422C18.748 21.2945 18.3003 21.7422 17.748 21.7422C17.1958 21.7422 16.748 21.2945 16.748 20.7422Z" fill="currentColor" />
    <path d="M16.748 10.9922C16.748 10.0392 16.7473 9.39129 16.7021 8.89258C16.6582 8.40776 16.5789 8.16269 16.4805 7.99219C16.3049 7.68815 16.0521 7.4353 15.748 7.25977C15.5775 7.16136 15.3325 7.08203 14.8477 7.03809C14.3489 6.99289 13.701 6.99219 12.748 6.99219C12.1958 6.99219 11.748 6.54447 11.748 5.99219C11.748 5.4399 12.1958 4.99219 12.748 4.99219C13.6643 4.99219 14.4184 4.99159 15.0283 5.04688C15.652 5.10341 16.2224 5.22486 16.748 5.52832C17.356 5.87937 17.8609 6.38419 18.2119 6.99219L18.3174 7.19141C18.5448 7.66127 18.6439 8.1662 18.6934 8.71191C18.7486 9.32185 18.748 10.076 18.748 10.9922C18.748 11.5445 18.3003 11.9922 17.748 11.9922C17.1958 11.9922 16.748 11.5445 16.748 10.9922Z" fill="currentColor" />
</svg>