<svg xmlns="http://www.w3.org/2000/svg" width="24" height="24" viewBox="0 0 24 24" fill="none">
    <path fill-rule="evenodd" clip-rule="evenodd" d="M13.8999 0.99219L13.8156 0.992193H10.1808C10.1526 0.992193 10.1245 0.992193 10.0965 0.99219C8.85809 0.992132 7.82252 0.992083 7.00894 1.10743C6.14755 1.2296 5.36301 1.5017 4.77066 2.17969C4.17987 2.85594 4.01218 3.67136 3.99918 4.54493C3.98678 5.37782 4.11594 6.42171 4.27102 7.67511L4.27847 7.73536L4.4178 8.86169C5.0251 8.54581 5.67495 8.31263 6.34774 8.16771L6.26382 7.48926C6.09818 6.15022 5.98913 5.24907 5.99918 4.57422C6.00887 3.92703 6.12869 3.66433 6.27652 3.49512C6.42275 3.3278 6.661 3.1771 7.29019 3.0879C7.949 2.9945 8.84447 2.99219 10.1808 2.99219H13.8156C15.1519 2.99219 16.0474 2.9945 16.7062 3.0879C17.3354 3.1771 17.5737 3.3278 17.7199 3.49512C17.8677 3.66433 17.9875 3.92703 17.9972 4.57422C18.0073 5.24907 17.8982 6.15022 17.7326 7.48926L17.38 10.34C18.146 10.1689 18.8707 9.85653 19.5097 9.41837L19.7179 7.73536L19.7254 7.67509C19.8805 6.4217 20.0096 5.37782 19.9972 4.54493C19.9842 3.67136 19.8165 2.85594 19.2257 2.17969C18.6334 1.5017 17.8489 1.2296 16.9875 1.10743C16.1739 0.992083 15.1383 0.992132 13.8999 0.99219Z" fill="currentColor" />
    <path opacity="0.4" d="M6.34806 8.1677C6.88684 8.05165 7.44035 7.99219 7.99852 7.99219C9.59168 7.99219 11.1469 8.47659 12.4302 9.37891C13.4548 10.0992 14.7069 10.4922 15.9985 10.4922C16.4673 10.4922 16.9309 10.4404 17.3803 10.34C18.1463 10.1689 18.871 9.85652 19.51 9.41836L19.2811 11.2694L18.5532 17.1533L18.5465 17.2075C18.4153 18.2683 18.3066 19.1475 18.1391 19.8467C17.9637 20.5791 17.6998 21.2257 17.188 21.7627C17.0395 21.9185 16.8791 22.0626 16.7075 22.1924C16.1146 22.6405 15.4425 22.8257 14.6977 22.9111C13.9906 22.9922 13.1154 22.9922 12.0625 22.9922H11.9985H11.9345C10.8816 22.9922 10.0065 22.9922 9.2993 22.9111C8.55457 22.8257 7.88242 22.6405 7.28953 22.1924C7.11791 22.0626 6.95755 21.9185 6.80906 21.7627C6.29728 21.2257 6.03331 20.5791 5.85789 19.8467C5.69047 19.1475 5.58174 18.2683 5.45054 17.2076L5.44383 17.1533L4.61814 10.4786L4.41812 8.86168C5.02542 8.54581 5.67526 8.31263 6.34806 8.1677Z" fill="currentColor" />
</svg>