<svg xmlns="http://www.w3.org/2000/svg" width="24" height="24" viewBox="0 0 24 24" fill="none">
    <path fill-rule="evenodd" clip-rule="evenodd" d="M22.9979 17.9922C22.9979 16.9672 22.3806 16.087 21.4979 15.7012V14.9922C21.4979 13.3353 20.1547 11.9922 18.4979 11.9922C16.841 11.9922 15.4979 13.3353 15.4979 14.9922V15.7012C14.6151 16.087 13.9979 16.9672 13.9979 17.9922V18.7422V18.7712C13.9979 19.0953 13.9978 19.387 14.0145 19.6309C14.0322 19.891 14.0723 20.1692 14.1883 20.4492C14.442 21.0615 14.9285 21.548 15.5408 21.8018C15.8208 21.9177 16.0991 21.9578 16.3592 21.9756C16.603 21.9922 16.8948 21.9922 17.2189 21.9922H17.2479H19.7479H19.7768C20.101 21.9922 20.3927 21.9922 20.6365 21.9756C20.8966 21.9578 21.1749 21.9177 21.4549 21.8018C22.0672 21.548 22.5537 21.0615 22.8074 20.4492C22.9234 20.1692 22.9635 19.891 22.9813 19.6309C22.9979 19.387 22.9979 19.0953 22.9979 18.7712V18.7422V17.9922ZM19.4979 14.9922C19.4979 14.4399 19.0501 13.9922 18.4979 13.9922C17.9456 13.9922 17.4979 14.4399 17.4979 14.9922V15.4922H19.4979V14.9922Z" fill="currentColor" />
    <path opacity="0.4" d="M3.05279 10.9922C3.42348 7.63889 5.63645 4.84084 8.65714 3.6326C8.50758 3.923 8.36894 4.23002 8.24103 4.5498C7.55135 6.27401 7.11109 8.52505 7.01687 10.9922H3.05279ZM11.9979 10.9922H9.01842C9.11173 8.73594 9.51623 6.74632 10.0975 5.29297C10.4315 4.45787 10.805 3.84841 11.1678 3.46484C11.5284 3.08367 11.8092 2.99219 11.9979 2.99219C12.3388 2.99219 12.9777 3.33839 13.6443 4.71582C14.267 6.00236 14.7421 7.87344 14.9207 10.0732C14.9655 10.6237 15.4484 11.034 15.9988 10.9893C16.5493 10.9445 16.9596 10.4616 16.9149 9.91113C16.7228 7.54651 16.206 5.41705 15.4451 3.84473C15.4108 3.77386 15.3756 3.70324 15.3394 3.63301C18.1158 4.74389 20.2105 7.19783 20.8182 10.1914C20.9282 10.7325 21.4558 11.0825 21.9969 10.9727C22.5381 10.8628 22.888 10.3342 22.7781 9.79297C21.7588 4.77173 17.3207 0.992187 11.9979 0.992188C5.92273 0.992188 0.997864 5.91706 0.997864 11.9922C0.997864 18.0673 5.92273 22.9922 11.9979 22.9922C12.5501 22.9922 12.9979 22.5445 12.9979 21.9922C12.9979 21.4399 12.5501 20.9922 11.9979 20.9922C11.8092 20.9922 11.5284 20.9007 11.1678 20.5195C10.805 20.136 10.4315 19.5265 10.0975 18.6914C9.51623 17.2381 9.11173 15.2484 9.01842 12.9922H11.9979C12.5501 12.9922 12.9979 12.5445 12.9979 11.9922C12.9979 11.4399 12.5501 10.9922 11.9979 10.9922ZM8.24103 19.4346C8.36894 19.7544 8.50759 20.0614 8.65714 20.3518C5.63645 19.1435 3.42348 16.3455 3.05279 12.9922L7.01687 12.9922C7.11109 15.4593 7.55135 17.7104 8.24103 19.4346Z" fill="currentColor" />
</svg>