<svg xmlns="http://www.w3.org/2000/svg" width="24" height="24" viewBox="0 0 24 24" fill="none">
    <path d="M12 2.25C15.1756 2.25 17.75 4.82436 17.75 8C17.75 11.1756 15.1756 13.75 12 13.75C8.82437 13.75 6.25 11.1756 6.25 8C6.25 4.82437 8.82437 2.25 12 2.25ZM10.7764 8.75C10.8403 9.74701 11.0262 10.6168 11.2822 11.2568C11.4423 11.6569 11.6142 11.9306 11.7666 12.0918C11.9174 12.2513 11.9965 12.25 12 12.25C12.0035 12.25 12.0826 12.2513 12.2334 12.0918C12.3858 11.9306 12.5577 11.6569 12.7178 11.2568C12.9738 10.6168 13.1597 9.74701 13.2236 8.75H10.7764ZM7.81738 8.75C8.03742 9.98541 8.79046 11.0353 9.83105 11.6543C9.53103 10.8437 9.33523 9.84024 9.27344 8.75H7.81738ZM14.7266 8.75C14.6648 9.84038 14.4681 10.8436 14.168 11.6543C15.2089 11.0354 15.9625 9.98569 16.1826 8.75H14.7266ZM9.83105 4.34473C8.79024 4.96365 8.03745 6.01442 7.81738 7.25H9.27344C9.33525 6.15937 9.53085 5.15551 9.83105 4.34473ZM12 3.75C11.9965 3.75 11.9174 3.74874 11.7666 3.9082C11.6142 4.06937 11.4423 4.34305 11.2822 4.74316C11.0262 5.38324 10.8403 6.25299 10.7764 7.25H13.2236C13.1597 6.25299 12.9738 5.38324 12.7178 4.74316C12.5577 4.34305 12.3858 4.06937 12.2334 3.9082C12.0826 3.74874 12.0035 3.75 12 3.75ZM14.168 4.34473C14.4682 5.15557 14.6647 6.15923 14.7266 7.25H16.1826C15.9625 6.01414 15.2092 4.9636 14.168 4.34473Z" fill="currentColor" />
    <path opacity="0.4" d="M5.33301 2.25001C6.12477 2.24896 6.90859 2.33341 7.6709 2.50001C6.04465 3.78182 5 5.76864 5 8.00001C5.00001 11.6126 7.73675 14.5847 11.25 14.959V21.75C9.594 20.3951 7.50109 19.6483 5.33398 19.6514H5.31934C4.55617 19.6514 3.94558 19.6514 3.48535 19.6221C3.11123 19.5982 2.57249 19.4753 2.24122 19.3125C2.11713 19.2331 1.9933 19.1447 1.875 19.0264C1.75672 18.9081 1.6683 18.7842 1.58887 18.6602C1.37444 18.3249 1.30993 17.9284 1.28028 17.5518C1.25001 17.1669 1.25 16.6736 1.25 16.0762V6.40235C1.25 5.71201 1.248 5.10711 1.32813 4.60548C1.41468 4.06382 1.6034 3.58943 2.00489 3.16603C2.79137 2.33669 3.67612 2.32137 4.74316 2.26466C4.93851 2.25428 5.1352 2.25002 5.33301 2.25001ZM18.667 2.25001C18.8648 2.25002 19.0615 2.25428 19.2568 2.26466C20.3239 2.32137 21.2086 2.33672 21.9951 3.16603C22.3966 3.58942 22.5853 4.06383 22.6719 4.60548C22.7501 5.09501 22.75 5.68289 22.75 6.35255V16.0762C22.75 16.6736 22.75 17.167 22.7197 17.5518C22.6901 17.9284 22.6256 18.3249 22.4111 18.6602C22.3317 18.7842 22.2433 18.9081 22.125 19.0264C22.0067 19.1447 21.8829 19.2331 21.7588 19.3125C21.4275 19.4753 20.8888 19.5982 20.5146 19.6221C20.0544 19.6514 19.4438 19.6514 18.6807 19.6514H18.666C16.4989 19.6483 14.406 20.3951 12.75 21.75V14.959C16.2632 14.5847 19 11.6126 19 8.00001C19 5.76835 17.9547 3.7818 16.3281 2.50001C17.0907 2.33328 17.8749 2.24896 18.667 2.25001Z" fill="currentColor" />
</svg>