<svg xmlns="http://www.w3.org/2000/svg" width="24" height="24" viewBox="0 0 24 24" fill="none">
    <path opacity="0.4" d="M12 2.25C12.834 2.25 13.5374 2.59582 14.2412 3.13281C14.9172 3.64857 15.6744 4.40584 16.6113 5.34277L18.6572 7.38867C19.5942 8.32556 20.3514 9.08281 20.8672 9.75879C21.4042 10.4626 21.75 11.166 21.75 12C21.75 12.834 21.4042 13.5374 20.8672 14.2412C20.7024 14.4571 20.5118 14.6803 20.2998 14.916C19.9914 14.6971 19.6268 14.552 19.2305 14.5117L19.001 14.5C17.7583 14.5 16.751 15.5074 16.751 16.75V17.5166C16.4323 17.5519 16.1174 17.6536 15.8301 17.8291L15.6396 17.959C14.8794 18.5367 14.591 19.5032 14.8389 20.3691C14.6313 20.5534 14.4334 20.7206 14.2412 20.8672C13.5374 21.4042 12.834 21.75 12 21.75C11.166 21.75 10.4626 21.4042 9.75879 20.8672C9.08281 20.3514 8.32556 19.5942 7.38867 18.6572L5.34277 16.6113C4.40584 15.6744 3.64857 14.9172 3.13281 14.2412C2.59582 13.5374 2.25 12.834 2.25 12C2.25 11.166 2.59582 10.4626 3.13281 9.75879C3.64857 9.08281 4.40584 8.32556 5.34277 7.38867L7.38867 5.34277C8.32556 4.40584 9.08281 3.64857 9.75879 3.13281C10.4626 2.59582 11.166 2.25 12 2.25Z" fill="currentColor" />
    <path d="M19 15.75C19.5523 15.75 20 16.1977 20 16.75V19.4131L20.2041 19.1455C20.5382 18.7058 21.1647 18.6201 21.6045 18.9541C22.0442 19.2882 22.1299 19.9147 21.7959 20.3545L21.3584 20.9316C21.0172 21.3808 20.6967 21.8062 20.3936 22.1055C20.0748 22.4201 19.6243 22.75 19 22.75C18.3758 22.75 17.9251 22.4201 17.6064 22.1055C17.3033 21.8061 16.9828 21.3808 16.6416 20.9316L16.2041 20.3545C15.8701 19.9147 15.9558 19.2882 16.3955 18.9541C16.8353 18.6201 17.4618 18.7058 17.7959 19.1455L18 19.4131V16.75C18 16.1977 18.4478 15.7501 19 15.75ZM12 9C13.6569 9 15 10.3432 15 12C15 13.6569 13.6569 15 12 15C10.3432 15 9 13.6569 9 12C9 10.3432 10.3432 9 12 9Z" fill="currentColor" />
</svg>