<svg xmlns="http://www.w3.org/2000/svg" width="24" height="24" viewBox="0 0 24 24" fill="none">
    <path d="M16.248 17.9141C16.248 20.2613 14.3453 22.1641 11.998 22.1641C9.65084 22.1641 7.74805 20.2613 7.74805 17.9141C7.74805 15.5669 9.65084 13.6641 11.998 13.6641C14.3453 13.6641 16.248 15.5669 16.248 17.9141Z" fill="currentColor" />
    <path d="M12.748 11.9141C12.748 14.2613 10.8453 16.1641 8.49805 16.1641C6.15084 16.1641 4.24805 14.2613 4.24805 11.9141C4.24805 9.56685 6.15084 7.66406 8.49805 7.66406C10.8453 7.66406 12.748 9.56685 12.748 11.9141Z" fill="currentColor" />
    <path opacity="0.4" fill-rule="evenodd" clip-rule="evenodd" d="M11.661 10.0826C11.5022 10.4151 11.3853 10.7715 11.3172 11.1449C11.1209 10.9623 10.998 10.7017 10.998 10.4125V6.41246C10.998 5.91019 10.9948 5.77507 10.9795 5.67809C10.8778 5.03625 10.3743 4.53267 9.73242 4.43102C9.63544 4.41569 9.50032 4.41246 8.99805 4.41246C8.44576 4.41246 7.99805 3.96475 7.99805 3.41246C7.99805 2.86018 8.44576 2.41246 8.99805 2.41246L9.07638 2.41244C9.46517 2.41225 9.77235 2.41211 10.0459 2.45543C11.3924 2.66881 12.4778 3.64002 12.8554 4.92237C13.0782 4.62242 13.332 4.32463 13.6211 4.03551C14.6709 2.98567 15.8351 2.40141 16.8018 2.07652L16.8594 2.05709C17.1608 1.9553 17.5268 1.83174 17.877 1.82457C18.3475 1.81498 18.7344 2.00155 19.0713 2.33824C19.4082 2.6752 19.5955 3.06283 19.5859 3.53356C19.5787 3.8838 19.4551 4.24988 19.3533 4.55135L19.334 4.60875C19.0091 5.57526 18.4245 6.73874 17.375 7.78844C17.3028 7.86059 17.2301 7.93056 17.157 7.99841C16.6473 7.78211 16.0866 7.66246 15.498 7.66246C15.3652 7.66246 15.2339 7.66855 15.1042 7.68047C14.3213 7.75242 13.5999 8.03668 12.998 8.47516C12.9471 8.5123 12.897 8.55055 12.8477 8.58986C12.3477 8.98926 11.9398 9.49919 11.661 10.0826Z" fill="currentColor" />
    <path d="M17.157 8.00001C16.6473 7.78371 16.0866 7.66406 15.498 7.66406C15.3652 7.66406 15.2339 7.67015 15.1042 7.68207C14.3213 7.75402 13.5999 8.03828 12.998 8.47676C12.9471 8.5139 12.897 8.55215 12.8477 8.59146C12.3477 8.99086 11.9398 9.50079 11.661 10.0842C11.5022 10.4167 11.3853 10.7731 11.3172 11.1465C11.2718 11.3954 11.248 11.652 11.248 11.9141C11.248 14.2613 13.1508 16.1641 15.498 16.1641C17.8453 16.1641 19.748 14.2613 19.748 11.9141C19.748 10.1554 18.6799 8.64629 17.157 8.00001Z" fill="currentColor" />
</svg>