<svg xmlns="http://www.w3.org/2000/svg" width="24" height="24" viewBox="0 0 24 24" fill="none">
    <path opacity="0.4" d="M10.7982 2.24219C12.7588 2.24228 14.6395 3.02165 16.0257 4.40918L17.6097 5.99512C18.2724 6.65868 18.415 7.64254 18.0433 8.44727L18.6868 9.09277C19.4914 8.72041 20.4757 8.8644 21.139 9.52832L21.6429 10.0332L21.7161 10.1064C22.0547 10.4445 22.3463 10.7356 22.513 11.0723C22.8265 11.7056 22.8265 12.4488 22.513 13.082C22.3463 13.4187 22.0545 13.71 21.7158 14.0482L21.6429 14.1211L20.1302 15.6357L20.0564 15.7097C19.7191 16.0483 19.4283 16.3401 19.0921 16.5068C18.459 16.8209 17.7155 16.8208 17.0823 16.5068C16.7462 16.3401 16.4554 16.0482 16.118 15.7097L16.0443 15.6357L15.5394 15.1309C14.8762 14.467 14.7325 13.4817 15.1048 12.6768L14.5569 12.1279L13.5755 13.1113C13.4349 13.2521 13.2442 13.332 13.0452 13.332C12.8462 13.332 12.6547 13.2521 12.514 13.1113L9.99347 10.5879C9.70096 10.2951 9.70094 9.82115 9.99347 9.52832C11.0933 8.42746 11.0932 6.64191 9.99347 5.54102L9.59601 5.14355C8.52746 4.07367 9.28334 2.24219 10.7982 2.24219Z" fill="currentColor" />
    <path d="M12.2528 14.4195C12.0221 14.3201 11.8099 14.1771 11.6289 13.996L11.092 13.4587L9.63746 12.003L9.10742 11.4725C8.92019 11.2851 8.77789 11.0697 8.68054 10.8398L1.99512 17.4413C1.51773 17.9127 1.24805 18.5546 1.24805 19.2254C1.24815 20.6247 2.39422 21.743 3.78809 21.743C4.45875 21.743 5.10399 21.4798 5.58105 21.0087L12.2528 14.4195Z" fill="currentColor" />
</svg>