<svg xmlns="http://www.w3.org/2000/svg" width="24" height="24" viewBox="0 0 24 24" fill="none">
    <path fill-rule="evenodd" clip-rule="evenodd" d="M21.7497 13.3086C21.7497 13.3086 21.7497 13.3086 21.7497 13.3086V13.3086ZM10.6818 21.7407C10.6818 21.7407 10.6818 21.7407 10.6818 21.7407V21.7407ZM10.6818 21.7407H10.7136H13.2859H13.3175" fill="currentColor" />
    <path fill-rule="evenodd" clip-rule="evenodd" d="M15.0002 8.24219H16.714H16.7349L17.0002 8.24226V7.24219C17.0002 4.48076 14.7616 2.24219 12.0002 2.24219C9.23873 2.24219 7.00015 4.48076 7.00015 7.24219V8.24226L7.26535 8.24219H7.28629H9.00015V7.24219C9.00015 5.58533 10.3433 4.24219 12.0002 4.24219C13.657 4.24219 15.0002 5.58533 15.0002 7.24219V8.24219Z" fill="currentColor" />
    <path opacity="0.4" d="M15.0002 8.24219H9.00015H7.28629H7.26536L7.00015 8.24226C6.30861 8.24282 5.73244 8.24794 5.25797 8.29395C4.70793 8.34729 4.21505 8.461 3.77066 8.74023C3.35743 8.99994 3.0079 9.34946 2.7482 9.7627C2.46897 10.2071 2.35525 10.7 2.30191 11.25C2.25015 11.7839 2.25015 12.4465 2.25015 13.2574V13.2783V13.31C2.25015 14.7832 2.25014 15.9433 2.34 16.8701C2.43165 17.8152 2.6224 18.5969 3.05484 19.2852C3.47446 19.953 4.03936 20.5179 4.70718 20.9375C5.39548 21.3699 6.17714 21.5607 7.12222 21.6523C8.04902 21.7422 9.20904 21.7422 10.6823 21.7422H10.714H13.2863H13.3179C14.7911 21.7422 15.9513 21.7422 16.8781 21.6523C17.8232 21.5607 18.6048 21.3699 19.2931 20.9375C19.9609 20.5179 20.5258 19.953 20.9455 19.2852C21.3779 18.5969 21.5687 17.8152 21.6603 16.8701C21.7502 15.9433 21.7502 14.7833 21.7502 13.3101V13.2783V13.2573C21.7502 12.4465 21.7502 11.7838 21.6984 11.25C21.6451 10.7 21.5313 10.2071 21.2521 9.7627C20.9924 9.34946 20.6429 8.99993 20.2296 8.74023C19.7853 8.461 19.2924 8.34729 18.7423 8.29395C18.2679 8.24794 17.6917 8.24282 17.0002 8.24226L16.735 8.24219H16.714H15.0002Z" fill="currentColor" />
</svg>