<svg xmlns="http://www.w3.org/2000/svg" width="24" height="24" viewBox="0 0 24 24" fill="none">
    <path opacity="0.4" fill-rule="evenodd" clip-rule="evenodd" d="M18.9434 3.74219C18.1149 3.74219 17.4434 4.41376 17.4434 5.24219V8.74219C17.4434 9.57061 18.1149 10.2422 18.9434 10.2422C19.7718 10.2422 20.4434 9.57061 20.4434 8.74219L20.4434 5.24219C20.4434 4.41376 19.7718 3.74219 18.9434 3.74219Z" fill="currentColor" />
    <path opacity="0.4" fill-rule="evenodd" clip-rule="evenodd" d="M9.44336 5.24219V6.87315L10.7833 6.23861C11.346 5.97218 11.9886 6.06943 12.4434 6.43777L12.4434 4.24219C12.4434 3.41376 11.7718 2.74219 10.9434 2.74219C10.1149 2.74219 9.44336 3.41376 9.44336 4.24219V5.24219Z" fill="currentColor" />
    <path opacity="0.4" fill-rule="evenodd" clip-rule="evenodd" d="M8.45332 7.34198C8.44679 7.30973 8.44336 7.27636 8.44336 7.24219L8.44336 5.24219C8.44336 4.41376 7.77179 3.74219 6.94336 3.74219C6.11493 3.74219 5.44336 4.41376 5.44336 5.24219V8.74219L5.44358 8.76841C5.58361 8.70096 5.73701 8.6283 5.90649 8.54803L5.94741 8.52865L8.45332 7.34198Z" fill="currentColor" />
    <path opacity="0.4" d="M13.5669 10.8284C13.2359 10.6097 12.96 10.3145 12.7644 9.96791C12.5391 10.3563 12.2283 10.7017 11.8397 10.9737L9.41299 12.671C9.91527 12.9585 10.4748 13.3443 10.9735 13.8145C11.7462 14.5431 12.4433 15.5414 12.4433 16.7413C12.4431 17.0172 12.2192 17.2412 11.9433 17.2413C11.6672 17.2413 11.4434 17.0173 11.4433 16.7413C11.4433 15.9412 10.9736 15.1885 10.288 14.5421C9.60919 13.9021 8.78605 13.4317 8.24599 13.2003C8.07933 13.1288 7.96482 12.9725 7.94619 12.7921C7.92764 12.6117 8.00759 12.4352 8.15615 12.3311L11.2665 10.1544C12.1492 9.53643 12.4456 8.36525 11.9638 7.40145C11.8252 7.12435 11.4908 7.00815 11.2108 7.14071L6.3749 9.43173C5.57892 9.80877 5.24396 9.96987 4.9833 10.1612C4.05286 10.8444 3.51903 11.9431 3.55654 13.0968C3.5671 13.4199 3.64871 13.7902 3.84756 14.6651C4.17674 16.1135 4.32884 16.7723 4.55947 17.3087C5.41734 19.3037 7.21498 20.7385 9.35049 21.1329C9.8888 21.2323 10.5055 21.2406 11.7816 21.2412L11.8981 21.2413L12.0458 21.2413C13.8352 21.2413 14.6506 21.2377 15.3163 21.0938C17.8095 20.5548 19.7578 18.6076 20.2968 16.1143C20.4407 15.4486 20.4433 14.6325 20.4433 12.8429V10.741C20.0254 11.055 19.506 11.241 18.9431 11.241C18.1253 11.241 17.3992 10.8483 16.9431 10.2412C16.487 10.8483 15.7609 11.241 14.9431 11.241C14.4757 11.241 14.0382 11.1127 13.664 10.8894C13.6311 10.8698 13.5988 10.8495 13.5669 10.8284Z" fill="currentColor" />
    <path opacity="0.4" fill-rule="evenodd" clip-rule="evenodd" d="M13.4434 4.24219C13.4434 3.46837 14.0293 2.83141 14.7817 2.7508C14.8348 2.74511 14.8887 2.74219 14.9434 2.74219C15.7718 2.74219 16.4434 3.41376 16.4434 4.24219L16.4434 5.74219V8.74219C16.4434 9.57061 15.7718 10.2422 14.9434 10.2422C14.4595 10.2422 14.0292 10.0131 13.755 9.65756C13.5596 9.40428 13.4434 9.08681 13.4434 8.74219V4.24219Z" fill="currentColor" />
</svg>