<svg xmlns="http://www.w3.org/2000/svg" width="24" height="24" viewBox="0 0 24 24" fill="none">
    <path fill-rule="evenodd" clip-rule="evenodd" d="M16.457 16.4421C16.6688 16.2299 16.8302 15.9892 16.9438 15.733C17.0338 15.5299 17.0937 15.317 17.125 15.101C17.6209 15.0243 18.0983 14.7979 18.4804 14.4153C19.4011 13.4931 19.4406 12.0111 18.5713 11.0424L16.2595 8.41983C15.794 8.66004 15.1548 8.97597 14.3495 9.28105L17.0713 12.3689L17.081 12.3796C17.2418 12.5568 17.2354 12.8295 17.0664 12.9988C16.9134 13.1518 16.6776 13.1704 16.5039 13.0556L16.4336 12.9988L16.3574 12.9294C15.9646 12.6086 15.3856 12.6321 15.0195 12.9988C14.629 13.39 14.629 14.0241 15.0195 14.4153C15.2026 14.5991 15.1832 14.8851 15.0429 15.0257C14.8812 15.1877 14.6188 15.1877 14.457 15.0257L13.957 14.5248L13.8808 14.4564C13.4881 14.1355 12.9091 14.1581 12.5429 14.5248C12.1524 14.916 12.1524 15.5501 12.5429 15.9413C12.7047 16.1033 12.7047 16.3662 12.5429 16.5282C12.4014 16.6699 12.1832 16.6872 12.0224 16.581L11.957 16.5282L11.8808 16.4597C11.4881 16.1388 10.9091 16.1615 10.5429 16.5282C10.1524 16.9194 10.1524 17.5534 10.5429 17.9446C10.7047 18.1066 10.7047 18.3695 10.5429 18.5315L10.4824 18.5922C10.3887 18.6861 10.2614 18.7389 10.1289 18.7389H9.99997C9.78499 18.7389 9.57875 18.6535 9.42673 18.5012L5.37106 14.4387C4.91832 13.9853 4.30425 13.7305 3.66403 13.7305C3.43539 13.7305 3.25005 13.5448 3.24997 13.3158V9.22299C3.24997 8.25028 3.25224 7.62129 3.31442 7.15801C3.37274 6.72373 3.46683 6.58766 3.54294 6.51142C3.61905 6.43518 3.7549 6.34093 4.18844 6.28252C4.65095 6.22023 5.27889 6.21796 6.24997 6.21796H8.37252C9.33461 5.73545 10.6447 5.05135 11.8379 4.40595C11.6729 4.28561 11.4697 4.21461 11.25 4.21461H6.24997L6.18092 4.2146C5.29579 4.21455 4.53276 4.2145 3.92184 4.29677C3.26644 4.38507 2.63845 4.58455 2.12887 5.09499C1.61929 5.60542 1.42015 6.23446 1.332 6.89096C1.24986 7.50291 1.24991 8.26721 1.24996 9.15383L1.24997 9.22299V13.3158C1.25005 14.6512 2.33082 15.7338 3.66403 15.7339C3.77382 15.7339 3.87933 15.7775 3.957 15.8552L8.01266 19.9176C8.53976 20.4456 9.25456 20.7423 9.99997 20.7423H10.1289C10.7918 20.7422 11.4277 20.4782 11.8965 20.0086L11.957 19.948C12.3311 19.5733 12.5536 19.1057 12.6308 18.6196C13.1162 18.5422 13.5829 18.3193 13.957 17.9446C14.1678 17.7335 14.3307 17.4927 14.447 17.2359C14.4622 17.2024 14.4766 17.1687 14.4902 17.1347C15.1915 17.2103 15.9194 16.9806 16.457 16.4421Z" fill="currentColor" />
    <path opacity="0.4" fill-rule="evenodd" clip-rule="evenodd" d="M16.9437 15.7319C16.8302 15.9881 16.6688 16.2289 16.457 16.4411C15.9194 16.9796 15.1915 17.2093 14.4902 17.1336C14.4766 17.1676 14.4622 17.2014 14.447 17.2349H16.625L16.7275 17.2349C17.4965 17.2352 18.0304 17.2354 18.542 17.0872C18.6385 17.0592 18.7341 17.0279 18.8281 16.9923C19.3261 16.8034 19.7532 16.4823 20.3683 16.0199L20.4502 15.9583L20.7529 15.7304C21.8593 15.7098 22.7499 14.807 22.75 13.6938V8.15327L22.75 8.05616C22.7503 7.51693 22.7506 7.10046 22.6513 6.73879C22.3943 5.80236 21.6643 5.0703 20.7295 4.81272C20.3684 4.71327 19.9519 4.71354 19.4135 4.71388L19.3164 4.71392H19.2158C19.1906 4.71188 19.1659 4.70576 19.1425 4.69631C19.1425 4.69631 19.1389 4.69425 19.1269 4.68849L19.1115 4.6812C19.0973 4.67451 19.0786 4.66575 19.0517 4.65229L18.1474 4.19939L18.0527 4.15195C17.3547 3.80222 16.9129 3.58081 16.5263 3.46378C15.5025 3.15383 14.6462 3.16794 13.6328 3.51073C13.2478 3.64096 12.7708 3.89946 12.0065 4.31364L11.914 4.36372L11.8379 4.40491C10.6447 5.05031 9.3346 5.73441 8.37252 6.21692C8.22271 6.29205 8.08134 6.3623 7.95016 6.42675C7.23508 6.77814 6.74998 7.50937 6.74996 8.33424C6.74996 9.33981 7.50083 10.2852 8.60934 10.318C11.0084 10.318 12.9352 9.81575 14.3495 9.28001C15.1548 8.97493 15.794 8.659 16.2595 8.41879L18.5713 11.0414C19.4406 12.0101 19.4011 13.492 18.4804 14.4142C18.0983 14.7968 17.6209 15.0232 17.125 15.0999C17.0937 15.316 17.0338 15.5288 16.9437 15.7319Z" fill="currentColor" />
</svg>