<svg xmlns="http://www.w3.org/2000/svg" width="24" height="24" viewBox="0 0 24 24" fill="none">
    <path opacity="0.4" d="M9.32762 4.91025C9.29582 5.02897 9.27706 5.1543 9.26602 5.28716C9.25361 5.43647 9.25094 5.59529 9.25047 5.7649V5.99228V11.9923C9.25047 12.4065 8.91468 12.7423 8.50047 12.7423C8.08625 12.7423 7.75047 12.4065 7.75047 11.9923V5.6626C4.70779 6.8062 2.25047 10.1471 2.25047 13.9923L2.25004 15.2422C2.25004 15.6564 2.58582 15.9922 3.00004 15.9922H21C21.4143 15.9922 21.75 15.6564 21.75 15.2422L21.7505 13.9923C21.7505 10.1471 19.2931 6.8062 16.2505 5.6626V11.9923C16.2505 12.4065 15.9147 12.7423 15.5005 12.7423C15.0863 12.7423 14.7505 12.4065 14.7505 11.9923V5.99228V5.76489C14.75 5.59528 14.7473 5.43647 14.7349 5.28716C14.7239 5.1543 14.7051 5.02897 14.6733 4.91025C14.4653 4.13379 13.859 3.52748 13.0825 3.31943C12.7919 3.24159 12.4616 3.24189 12.0783 3.24223L12.0005 3.24228L11.9226 3.24223C11.5393 3.24189 11.2091 3.24159 10.9184 3.31943C10.142 3.52748 9.53567 4.13379 9.32762 4.91025Z" fill="currentColor" />
    <path fill-rule="evenodd" clip-rule="evenodd" d="M22.7111 17.2421H1.28899C1.27222 17.3504 1.26077 17.4605 1.25492 17.5722C1.25022 17.6621 1.25004 18.518 1.25004 18.6632C1.25004 18.7294 1.25004 18.7908 1.25297 18.8469C1.30654 19.8691 2.12331 20.6859 3.14555 20.7394C3.20165 20.7424 3.26672 20.7424 3.33305 20.7424H20.6706C20.7369 20.7424 20.7984 20.7424 20.8545 20.7394C21.8768 20.6859 22.6935 19.8691 22.7471 18.8469C22.75 18.7908 22.75 18.7256 22.75 18.6594C22.75 18.5142 22.7499 17.6621 22.7452 17.5722C22.7393 17.4605 22.7279 17.3504 22.7111 17.2421Z" fill="currentColor" />
</svg>