<svg xmlns="http://www.w3.org/2000/svg" width="24" height="24" viewBox="0 0 24 24" fill="none">
    <path opacity="0.4" d="M10.1107 1.99838C10.6596 2.05936 11.0554 2.554 10.9945 3.10287L8.99447 21.1029C8.93348 21.6517 8.43884 22.0476 7.88998 21.9867C7.34111 21.9257 6.94526 21.431 7.00619 20.8822L9.00619 2.88216C9.06717 2.33329 9.56182 1.93745 10.1107 1.99838ZM16.1107 1.99838C16.6596 2.05936 17.0554 2.554 16.9945 3.10287L14.9945 21.1029C14.9335 21.6517 14.4388 22.0476 13.89 21.9867C13.3411 21.9257 12.9453 21.431 13.0062 20.8822L15.0062 2.88216C15.0672 2.33329 15.5618 1.93745 16.1107 1.99838Z" fill="currentColor" />
    <path d="M20 13.9922C20.5523 13.9922 21 14.4399 21 14.9922C21 15.5445 20.5523 15.9922 20 15.9922H4C3.44772 15.9922 3 15.5445 3 14.9922C3 14.4399 3.44772 13.9922 4 13.9922H20ZM20 7.99219C20.5523 7.99219 21 8.4399 21 8.99219C21 9.54447 20.5523 9.99219 20 9.99219H4C3.44772 9.99219 3 9.54447 3 8.99219C3 8.4399 3.44772 7.99219 4 7.99219H20Z" fill="currentColor" />
</svg>