<svg xmlns="http://www.w3.org/2000/svg" width="24" height="24" viewBox="0 0 24 24" fill="none">
    <path opacity="0.4" d="M15 11.9844C15 10.3275 13.6569 8.98438 12 8.98438C10.3431 8.98438 9 10.3275 9 11.9844C9 12.5323 9.14585 13.0432 9.40039 13.4834C9.67686 13.9613 9.51391 14.573 9.03613 14.8496C8.55819 15.1261 7.94656 14.9631 7.66992 14.4854C7.24391 13.7489 7 12.8934 7 11.9844C7 9.22295 9.23858 6.98438 12 6.98438C14.7614 6.98438 17 9.22295 17 11.9844C17 12.8934 16.7561 13.7489 16.3301 14.4854C16.0534 14.9631 15.4418 15.1261 14.9639 14.8496C14.4861 14.573 14.3231 13.9613 14.5996 13.4834C14.8542 13.0432 15 12.5323 15 11.9844Z" fill="currentColor" />
    <path d="M20 16.9922C20.5523 16.9922 21 17.4399 21 17.9922C21 18.5445 20.5523 18.9922 20 18.9922H4C3.44772 18.9922 3 18.5445 3 17.9922C3 17.4399 3.44772 16.9922 4 16.9922H20Z" fill="currentColor" />
    <path d="M17 20.9922C17.5523 20.9922 18 21.4399 18 21.9922C18 22.5445 17.5523 22.9922 17 22.9922H7C6.44772 22.9922 6 22.5445 6 21.9922C6 21.4399 6.44772 20.9922 7 20.9922H17Z" fill="currentColor" />
    <path opacity="0.4" d="M4 10.9873C4.55228 10.9873 5 11.435 5 11.9873C4.99994 12.5395 4.55225 12.9873 4 12.9873H2C1.44775 12.9873 1.00006 12.5395 1 11.9873C1 11.435 1.44772 10.9873 2 10.9873H4ZM22 10.9873C22.5523 10.9873 23 11.435 23 11.9873C22.9999 12.5395 22.5522 12.9873 22 12.9873H20C19.4478 12.9873 19.0001 12.5395 19 11.9873C19 11.435 19.4477 10.9873 20 10.9873H22ZM4.21875 4.21875C4.60928 3.82872 5.24243 3.82848 5.63281 4.21875L7.04688 5.63379C7.43716 6.02433 7.43732 6.65741 7.04688 7.04785C6.65643 7.43827 6.02335 7.43813 5.63281 7.04785L4.21875 5.63379C3.82823 5.24326 3.82823 4.60927 4.21875 4.21875ZM18.3604 4.21094C18.7508 3.82068 19.3839 3.82078 19.7744 4.21094C20.1649 4.60146 20.1649 5.23545 19.7744 5.62598L18.3604 7.04004C17.9699 7.43033 17.3368 7.43033 16.9463 7.04004C16.5558 6.64957 16.5559 6.01651 16.9463 5.62598L18.3604 4.21094ZM10.9951 3.99219V1.99219C10.9951 1.4399 11.4428 0.992188 11.9951 0.992188C12.5473 0.992251 12.9951 1.43994 12.9951 1.99219V3.99219C12.9951 4.54443 12.5473 4.99212 11.9951 4.99219C11.4428 4.99219 10.9951 4.54447 10.9951 3.99219Z" fill="currentColor" />
</svg>