<svg xmlns="http://www.w3.org/2000/svg" width="24" height="24" viewBox="0 0 24 24" fill="none">
    <path opacity="0.4" d="M22.748 12.5049C22.7478 14.2928 21.2985 15.7421 19.5107 15.7422C19.4807 15.7422 19.4528 15.7594 19.4394 15.7862L19.4189 15.8272C18.8322 17.0005 17.633 17.7421 16.3212 17.7422H7.67473C6.36296 17.7421 5.16372 17.0005 4.57707 15.8272L4.55656 15.7862C4.54315 15.7594 4.51527 15.7422 4.48528 15.7422C2.69742 15.7421 1.2481 14.2928 1.24797 12.5049V10.9922L1.24795 10.8789C1.24769 10.0596 1.24751 9.50068 1.3759 9.02153C1.72268 7.72757 2.7333 6.71694 4.02727 6.37016C4.50641 6.24178 5.06533 6.24195 5.88466 6.24221L5.99797 6.24223H17.998L18.1113 6.24221C18.9306 6.24195 19.4895 6.24178 19.9687 6.37016C21.2626 6.71694 22.2733 7.72757 22.62 9.02153C22.7484 9.50068 22.7483 10.0596 22.748 10.879L22.748 10.9922V12.5049Z" fill="currentColor" />
    <path d="M16.998 9.99219C17.5503 9.99219 17.998 10.4399 17.998 10.9922C17.998 11.5445 17.5503 11.9922 16.998 11.9922H6.99799C6.4457 11.9922 5.99799 11.5445 5.99799 10.9922C5.99799 10.4399 6.4457 9.99219 6.99799 9.99219H16.998Z" fill="currentColor" />
</svg>