<svg xmlns="http://www.w3.org/2000/svg" width="24" height="24" viewBox="0 0 24 24" fill="none">
    <path d="M5.94626 13.2733C6.6394 13.1695 7.48389 13.46 7.86228 14.1766L9.70212 19.4139C9.83658 19.9242 9.67096 20.404 9.45407 20.742C9.26216 21.041 8.98385 21.3053 8.66208 21.4754L8.46482 21.5643C6.61786 22.1798 4.63217 21.2242 3.9365 19.4286L3.43552 17.9256C2.80555 16.0181 3.83234 13.9545 5.73728 13.3192L5.94626 13.2733ZM16.1387 14.1766C16.5172 13.46 17.3616 13.1694 18.0547 13.2733L18.4395 13.3827C20.173 14.0605 21.1141 15.9501 20.6201 17.7459L20.128 19.2518C19.5172 21.1012 17.5694 22.1339 15.7149 21.619L15.4795 21.5428C15.0985 21.3805 14.7663 21.0837 14.5469 20.742C14.33 20.404 14.1643 19.9243 14.2989 19.4139L16.1387 14.1766ZM20.416 2.30647C20.9365 2.12226 21.508 2.39447 21.6924 2.91487C21.8767 3.43534 21.6043 4.00671 21.084 4.19124C20.5504 4.38022 19.9333 4.78753 19.2803 5.36019C18.6377 5.92374 18.0127 6.60082 17.459 7.26448C16.9072 7.9259 16.4385 8.56018 16.1074 9.02913C15.9424 9.2629 15.8126 9.45474 15.7246 9.58675C15.6808 9.65252 15.647 9.7033 15.625 9.73714C15.6141 9.75396 15.6058 9.76716 15.6006 9.77523L15.5947 9.78402L15.5938 9.78499C15.39 10.1056 15.0223 10.283 14.6446 10.243C14.2667 10.2029 13.9444 9.95195 13.8125 9.59554C13.6294 9.10065 13.378 8.73342 13.1426 8.50472C12.8892 8.25873 12.7394 8.24886 12.75 8.24886C12.1977 8.24886 11.75 7.80114 11.75 7.24886C11.75 6.69661 12.1977 6.24886 12.75 6.24886C13.4533 6.24893 14.0758 6.62332 14.5352 7.06917C14.6359 7.16697 14.7326 7.27331 14.8262 7.38558C15.1328 6.9687 15.5048 6.4844 15.9229 5.98323C16.5161 5.27208 17.215 4.51134 17.9619 3.85628C18.6985 3.21037 19.5381 2.61747 20.416 2.30647Z" fill="currentColor" />
    <path opacity="0.4" d="M12 2.24887C13.4796 2.24887 14.8815 2.57794 16.1377 3.16391C15.6269 3.66394 15.1551 4.18545 14.7363 4.67856C13.8847 4.36144 12.963 4.18637 12 4.18637C7.69221 4.18637 4.20024 7.65616 4.2002 11.9364C4.2002 13.1937 4.60364 15.181 5.06934 16.5692C5.17747 17.0483 4.90456 17.5404 4.42578 17.6991C3.91502 17.8683 3.36277 17.5942 3.19238 17.0868L3.00586 16.4921C2.58183 15.0512 2.25 13.2721 2.25 11.9364C2.25004 6.5861 6.61525 2.24887 12 2.24887ZM20.2783 6.82016C21.2099 8.3051 21.75 10.0577 21.75 11.9364C21.75 13.463 21.3169 15.5687 20.8076 17.0868C20.6372 17.5942 20.085 17.8683 19.5742 17.6991C19.0635 17.5298 18.7868 16.981 18.957 16.4735C19.4227 15.0853 19.7998 13.1937 19.7998 11.9364C19.7998 10.6183 19.468 9.37756 18.8838 8.29086C19.3303 7.76173 19.8069 7.25142 20.2783 6.82016Z" fill="currentColor" />
</svg>