<svg xmlns="http://www.w3.org/2000/svg" width="24" height="24" viewBox="0 0 24 24" fill="none">
    <path d="M16.748 18.2461V16.2461H14.748C14.1958 16.2461 13.748 15.7984 13.748 15.2461C13.748 14.6938 14.1958 14.2461 14.748 14.2461H16.748V12.2461C16.748 11.6938 17.1958 11.2461 17.748 11.2461C18.3003 11.2461 18.748 11.6938 18.748 12.2461V14.2461H20.748C21.3003 14.2461 21.748 14.6938 21.748 15.2461C21.748 15.7984 21.3003 16.2461 20.748 16.2461H18.748V18.2461C18.748 18.7984 18.3003 19.2461 17.748 19.2461C17.1958 19.2461 16.748 18.7984 16.748 18.2461Z" fill="currentColor" />
    <path opacity="0.4" fill-rule="evenodd" clip-rule="evenodd" d="M21.3308 13.0723C22.1757 11.6734 22.748 10.1797 22.748 8.69043C22.748 5.44812 20.3465 2.74609 16.998 2.74609C15.4062 2.74609 13.8642 3.25877 11.998 4.96094C10.1319 3.25877 8.58989 2.74609 6.99805 2.74609C3.64961 2.74609 1.2481 5.44812 1.24805 8.69043C1.24805 11.1491 2.80814 13.6201 4.5791 15.6562C6.37758 17.724 8.52714 19.493 9.95996 20.5645C11.1755 21.4733 12.8206 21.4733 14.0361 20.5645C14.5284 20.1963 15.1054 19.7458 15.7236 19.2291C15.5791 18.9321 15.498 18.5986 15.498 18.2461V17.4961H14.748C13.5054 17.4961 12.498 16.4887 12.498 15.2461C12.498 14.0035 13.5054 12.9961 14.748 12.9961H15.498V12.2461C15.498 11.0035 16.5054 9.99609 17.748 9.99609C18.9907 9.99609 19.998 11.0035 19.998 12.2461V12.9961H20.748C20.9496 12.9961 21.1449 13.0226 21.3308 13.0723Z" fill="currentColor" />
</svg>