<svg xmlns="http://www.w3.org/2000/svg" width="24" height="24" viewBox="0 0 24 24" fill="none">
    <path d="M14.25 4.95212V5.04587C14.25 5.45156 14.2499 5.82142 14.2627 6.15134C13.8062 6.27878 13.5414 6.44465 13.3828 6.60739C13.164 6.8321 13 7.20416 13 7.95114V16.0449C13 16.8219 13.1871 17.1961 13.415 17.417C13.5807 17.5775 13.8421 17.7302 14.2627 17.8477C14.2499 18.1772 14.25 18.547 14.25 18.9521V19.0459C14.25 19.3505 14.2504 19.635 14.2559 19.8975C13.3831 19.731 12.6082 19.4201 12.0234 18.8535C11.2721 18.1255 11 17.1418 11 16.0449V12.998H9.74023C9.74995 12.7073 9.75003 12.3913 9.75 12.0547V11.9434C9.75003 11.6061 9.75002 11.2893 9.74023 10.998H11V7.95114C11 6.9311 11.2254 5.95573 11.9512 5.21091C12.5306 4.61649 13.3225 4.28048 14.2549 4.10153C14.2495 4.36374 14.25 4.64783 14.25 4.95212Z" fill="currentColor" />
    <path opacity="0.4" d="M19.251 15.25C19.8668 15.25 20.4078 15.2499 20.8428 15.3125C21.317 15.3808 21.7737 15.5367 22.1387 15.9277C22.4966 16.3114 22.6328 16.7782 22.6934 17.2607C22.7505 17.7161 22.75 18.2861 22.75 18.9531V19.0469C22.75 19.7139 22.7505 20.2838 22.6934 20.7393C22.6328 21.2218 22.4966 21.6886 22.1387 22.0723C21.7737 22.4633 21.317 22.6192 20.8428 22.6875C20.4078 22.7501 19.8668 22.75 19.251 22.75H17.749C17.1332 22.75 16.5922 22.7501 16.1572 22.6875C15.683 22.6192 15.2263 22.4633 14.8613 22.0723C14.5034 21.6886 14.3672 21.2218 14.3066 20.7393C14.2495 20.2838 14.25 19.7139 14.25 19.0469V18.9531C14.25 18.2861 14.2495 17.7162 14.3066 17.2607C14.3672 16.7782 14.5034 16.3114 14.8613 15.9277C15.2263 15.5367 15.683 15.3808 16.1572 15.3125C16.5922 15.2499 17.1332 15.25 17.749 15.25H19.251ZM5.54492 8.25C6.33147 8.24998 6.98622 8.24971 7.50586 8.30957C8.04663 8.37189 8.55495 8.50957 8.97559 8.87012C9.41281 9.24494 9.59601 9.72347 9.67676 10.2383C9.74993 10.7051 9.75006 11.2851 9.75 11.9443V12.0557C9.75006 12.7149 9.74993 13.2949 9.67676 13.7617C9.59601 14.2765 9.4128 14.7551 8.97559 15.1299C8.55495 15.4904 8.04663 15.6281 7.50586 15.6904C6.98622 15.7503 6.33149 15.75 5.54492 15.75H5.45508C4.66851 15.75 4.01378 15.7503 3.49414 15.6904C2.95337 15.6281 2.44505 15.4904 2.02441 15.1299C1.5872 14.7551 1.40399 14.2765 1.32324 13.7617C1.25007 13.2949 1.24994 12.7149 1.25 12.0557V11.9443C1.24994 11.2851 1.25007 10.7051 1.32324 10.2383C1.40399 9.72347 1.5872 9.24494 2.02441 8.87012C2.44505 8.50957 2.95337 8.37189 3.49414 8.30957C4.01378 8.24971 4.66852 8.24998 5.45508 8.25H5.54492ZM19.251 1.25C19.8668 1.24995 20.4078 1.24988 20.8428 1.3125C21.317 1.38082 21.7737 1.53667 22.1387 1.92773C22.4966 2.31141 22.6328 2.77823 22.6934 3.26074C22.7505 3.71615 22.75 4.28611 22.75 4.95312V5.04688C22.75 5.71389 22.7505 6.28385 22.6934 6.73926C22.6328 7.22177 22.4966 7.6886 22.1387 8.07227C21.7737 8.46333 21.317 8.61918 20.8428 8.6875C20.4078 8.75012 19.8668 8.75005 19.251 8.75H17.749C17.1332 8.75005 16.5922 8.75012 16.1572 8.6875C15.683 8.61918 15.2263 8.46333 14.8613 8.07227C14.5034 7.6886 14.3672 7.22177 14.3066 6.73926C14.2495 6.28384 14.25 5.71391 14.25 5.04688V4.95312C14.25 4.2861 14.2495 3.71615 14.3066 3.26074C14.3672 2.77823 14.5034 2.3114 14.8613 1.92773C15.2263 1.53667 15.683 1.38082 16.1572 1.3125C16.5922 1.24988 17.1332 1.24995 17.749 1.25H19.251Z" fill="currentColor" />
</svg>