<svg xmlns="http://www.w3.org/2000/svg" width="24" height="24" viewBox="0 0 24 24" fill="none">
    <path opacity="0.4" d="M17.6484 16.25C18.1724 16.25 18.6413 16.2497 19.0205 16.3027C19.4362 16.3609 19.8526 16.4958 20.1895 16.8467C20.5222 17.1933 20.6462 17.6141 20.7002 18.0322C20.7504 18.421 20.75 18.9043 20.75 19.4541V19.5459C20.75 20.0957 20.7504 20.579 20.7002 20.9678C20.6462 21.3859 20.5222 21.8067 20.1895 22.1533C19.8526 22.5042 19.4362 22.6391 19.0205 22.6973C18.6413 22.7503 18.1724 22.75 17.6484 22.75H16.3516C15.8276 22.75 15.3587 22.7503 14.9795 22.6973C14.5638 22.6391 14.1474 22.5042 13.8105 22.1533C13.4778 21.8067 13.3538 21.3859 13.2998 20.9678C13.2496 20.579 13.25 20.0957 13.25 19.5459V19.4541C13.25 18.9043 13.2496 18.421 13.2998 18.0322C13.3538 17.6141 13.4778 17.1933 13.8105 16.8467C14.1474 16.4958 14.5638 16.3609 14.9795 16.3027C15.3587 16.2497 15.8276 16.25 16.3516 16.25H17.6484ZM17.6484 8.25C18.1724 8.24995 18.6413 8.24966 19.0205 8.30273C19.4362 8.36095 19.8526 8.4958 20.1895 8.84668C20.5222 9.19329 20.6462 9.61414 20.7002 10.0322C20.7504 10.421 20.75 10.9043 20.75 11.4541V11.5459C20.75 12.0957 20.7504 12.579 20.7002 12.9678C20.6462 13.3859 20.5222 13.8067 20.1895 14.1533C19.8526 14.5042 19.4362 14.6391 19.0205 14.6973C18.6413 14.7503 18.1724 14.7501 17.6484 14.75H16.3516C15.8276 14.7501 15.3587 14.7503 14.9795 14.6973C14.5638 14.6391 14.1474 14.5042 13.8105 14.1533C13.4778 13.8067 13.3538 13.3859 13.2998 12.9678C13.2496 12.579 13.25 12.0957 13.25 11.5459V11.4541C13.25 10.9043 13.2496 10.421 13.2998 10.0322C13.3538 9.61414 13.4778 9.19329 13.8105 8.84668C14.1474 8.4958 14.5638 8.36094 14.9795 8.30273C15.3587 8.24966 15.8276 8.24995 16.3516 8.25H17.6484ZM8.71387 1.25C9.87836 1.25 10.7705 1.56886 11.2764 2.40137C11.7142 3.12205 11.75 4.08766 11.75 5C11.75 5.91234 11.7142 6.87795 11.2764 7.59863C10.7705 8.43114 9.87836 8.75 8.71387 8.75H5.28613C4.12164 8.75 3.22951 8.43114 2.72363 7.59863C2.2858 6.87795 2.25 5.91234 2.25 5C2.25 4.08766 2.2858 3.12205 2.72363 2.40137C3.22951 1.56886 4.12164 1.25 5.28613 1.25H8.71387Z" fill="currentColor" />
    <path d="M8 8.75V10.5H13.2627C13.2501 10.7868 13.25 11.1072 13.25 11.4541V11.5459C13.25 11.8928 13.2501 12.2132 13.2627 12.5H8V13.5C8 14.9422 8.00185 15.9234 8.10059 16.6582C8.19551 17.3643 8.36337 17.6915 8.58594 17.9141C8.80851 18.1366 9.13574 18.3045 9.8418 18.3994C10.5766 18.4982 11.5578 18.5 13 18.5H13.2627C13.2501 18.7868 13.25 19.1072 13.25 19.4541V19.5459C13.25 19.8928 13.2501 20.2132 13.2627 20.5H12.9297C11.5757 20.5 10.4589 20.4997 9.5752 20.3809C8.64737 20.2561 7.82798 19.9842 7.17188 19.3281C6.51577 18.672 6.24388 17.8526 6.11914 16.9248C6.00035 16.0411 5.99997 14.9243 6 13.5703V8.75H8Z" fill="currentColor" />
</svg>