<svg xmlns="http://www.w3.org/2000/svg" width="24" height="24" viewBox="0 0 24 24" fill="none">
    <path d="M13 8.75V11H15.0664C15.9528 11 16.7165 10.9998 17.3281 11.082C17.9836 11.1702 18.6124 11.3692 19.1221 11.8789C19.6315 12.3884 19.8298 13.0166 19.918 13.6719C19.9785 14.1221 19.9948 14.6555 19.999 15.2588C19.7089 15.2504 19.3915 15.25 19.0498 15.25H18.9512C18.6083 15.25 18.2899 15.2503 17.999 15.2588C17.9949 14.6894 17.9812 14.271 17.9365 13.9385C17.8783 13.5054 17.7841 13.3691 17.708 13.293C17.6319 13.2168 17.4953 13.1228 17.0615 13.0645C16.599 13.0023 15.9709 13 15 13H9C8.02937 13 7.40186 13.0023 6.93945 13.0645C6.50571 13.1228 6.36909 13.2168 6.29297 13.293C6.2169 13.3691 6.12271 13.5053 6.06445 13.9385C6.01975 14.271 6.0061 14.6894 6.00195 15.2588C5.71107 15.2503 5.39263 15.25 5.0498 15.25H4.95117C4.6095 15.25 4.29204 15.2504 4.00195 15.2588C4.00614 14.6555 4.02248 14.1221 4.08301 13.6719C4.17115 13.0166 4.36952 12.3884 4.87891 11.8789C5.38857 11.3692 6.01734 11.1702 6.67285 11.082C7.28446 10.9998 8.04821 11 8.93457 11H11V8.75H13Z" fill="currentColor" />
    <path opacity="0.4" d="M5.0498 15.25C5.71447 15.25 6.28746 15.2499 6.74609 15.3115C7.23765 15.3776 7.70863 15.527 8.09082 15.9092C8.47301 16.2914 8.62236 16.7624 8.68848 17.2539C8.75014 17.7126 8.75004 18.2855 8.75 18.9502V19.0498C8.75004 19.7145 8.75014 20.2874 8.68848 20.7461C8.62236 21.2376 8.47301 21.7086 8.09082 22.0908C7.70863 22.473 7.23765 22.6224 6.74609 22.6885C6.28745 22.7501 5.71449 22.75 5.0498 22.75H4.9502C4.28552 22.75 3.71255 22.7501 3.25391 22.6885C2.76236 22.6224 2.29136 22.473 1.90918 22.0908C1.527 21.7086 1.37764 21.2376 1.31152 20.7461C1.24986 20.2875 1.24996 19.7145 1.25 19.0498V18.9502C1.24996 18.2855 1.24986 17.7125 1.31152 17.2539C1.37764 16.7624 1.527 16.2914 1.90918 15.9092C2.29136 15.527 2.76236 15.3776 3.25391 15.3115C3.71254 15.2499 4.28554 15.25 4.9502 15.25H5.0498ZM19.0498 15.25C19.7145 15.25 20.2875 15.2499 20.7461 15.3115C21.2376 15.3776 21.7086 15.527 22.0908 15.9092C22.473 16.2914 22.6224 16.7624 22.6885 17.2539C22.7501 17.7126 22.75 18.2855 22.75 18.9502V19.0498C22.75 19.7145 22.7501 20.2874 22.6885 20.7461C22.6224 21.2376 22.473 21.7086 22.0908 22.0908C21.7086 22.473 21.2376 22.6224 20.7461 22.6885C20.2874 22.7501 19.7145 22.75 19.0498 22.75H18.9502C18.2855 22.75 17.7126 22.7501 17.2539 22.6885C16.7624 22.6224 16.2914 22.473 15.9092 22.0908C15.527 21.7086 15.3776 21.2376 15.3115 20.7461C15.2499 20.2875 15.25 19.7145 15.25 19.0498V18.9502C15.25 18.2855 15.2499 17.7125 15.3115 17.2539C15.3776 16.7624 15.527 16.2914 15.9092 15.9092C16.2914 15.527 16.7624 15.3776 17.2539 15.3115C17.7125 15.2499 18.2855 15.25 18.9502 15.25H19.0498ZM13.7139 1.25C14.8784 1.25 15.7705 1.56886 16.2764 2.40137C16.7142 3.12205 16.75 4.08766 16.75 5C16.75 5.91234 16.7142 6.87795 16.2764 7.59863C15.7705 8.43114 14.8784 8.75 13.7139 8.75H10.2861C9.12164 8.75 8.22951 8.43114 7.72363 7.59863C7.2858 6.87795 7.25 5.91234 7.25 5C7.25 4.08766 7.2858 3.12205 7.72363 2.40137C8.22951 1.56886 9.12164 1.25 10.2861 1.25H13.7139Z" fill="currentColor" />
</svg>