<svg xmlns="http://www.w3.org/2000/svg" width="24" height="24" viewBox="0 0 24 24" fill="none">
    <path d="M8.75098 12.5C8.75098 13.2065 8.97649 13.8604 9.35938 14.3936L6.71191 16.5117C6.47649 16.396 6.22448 16.3366 5.97266 16.3027C5.582 16.2502 5.0972 16.25 4.54883 16.25H4.45312C4.23687 16.25 4.03052 16.2497 3.83594 16.2529C3.84898 16.2413 3.8622 16.2298 3.87598 16.2188L8.75586 12.3154C8.75244 12.3765 8.75098 12.4381 8.75098 12.5ZM20.126 16.2188C20.1398 16.2298 20.153 16.2413 20.166 16.2529C19.9714 16.2497 19.7651 16.25 19.5488 16.25H19.4531C18.9047 16.25 18.42 16.2502 18.0293 16.3027C17.7775 16.3366 17.5255 16.396 17.29 16.5117L14.6426 14.3936C15.0255 13.8604 15.251 13.2065 15.251 12.5C15.251 12.4381 15.2495 12.3765 15.2461 12.3154L20.126 16.2188ZM13.001 9.40723C12.6859 9.30545 12.3499 9.25 12.001 9.25C11.6521 9.25 11.316 9.30451 11.001 9.40625V7.75H13.001V9.40723Z" fill="currentColor" />
    <path opacity="0.4" d="M4.54785 16.25C5.09623 16.25 5.58102 16.2502 5.97168 16.3027C6.39518 16.3597 6.81848 16.4904 7.16406 16.8359C7.50965 17.1815 7.64031 17.6048 7.69727 18.0283C7.74979 18.419 7.75004 18.9038 7.75 19.4521V19.5479C7.75004 20.0962 7.74979 20.581 7.69727 20.9717C7.64031 21.3952 7.50965 21.8185 7.16406 22.1641C6.81848 22.5096 6.39518 22.6403 5.97168 22.6973C5.58102 22.7498 5.09622 22.75 4.54785 22.75H4.45215C3.90378 22.75 3.41897 22.7498 3.02832 22.6973C2.60483 22.6403 2.18152 22.5096 1.83594 22.1641C1.49036 21.8185 1.35969 21.3952 1.30273 20.9717C1.25021 20.581 1.24996 20.0962 1.25 19.5479V19.4521C1.24996 18.9038 1.25021 18.419 1.30273 18.0283C1.35969 17.6048 1.49036 17.1815 1.83594 16.8359C2.18152 16.4904 2.60483 16.3597 3.02832 16.3027C3.41898 16.2502 3.90377 16.25 4.45215 16.25H4.54785ZM19.5479 16.25C20.0962 16.25 20.581 16.2502 20.9717 16.3027C21.3952 16.3597 21.8185 16.4904 22.1641 16.8359C22.5096 17.1815 22.6403 17.6048 22.6973 18.0283C22.7498 18.419 22.75 18.9038 22.75 19.4521V19.5479C22.75 20.0962 22.7498 20.581 22.6973 20.9717C22.6403 21.3952 22.5096 21.8185 22.1641 22.1641C21.8185 22.5096 21.3952 22.6403 20.9717 22.6973C20.581 22.7498 20.0962 22.75 19.5479 22.75H19.4521C18.9038 22.75 18.419 22.7498 18.0283 22.6973C17.6048 22.6403 17.1815 22.5096 16.8359 22.1641C16.4904 21.8185 16.3597 21.3952 16.3027 20.9717C16.2502 20.581 16.25 20.0962 16.25 19.5479V19.4521C16.25 18.9038 16.2502 18.419 16.3027 18.0283C16.3597 17.6048 16.4904 17.1815 16.8359 16.8359C17.1815 16.4904 17.6048 16.3597 18.0283 16.3027C18.419 16.2502 18.9038 16.25 19.4521 16.25H19.5479ZM12 9.25C13.7949 9.25 15.25 10.7051 15.25 12.5C15.25 14.2949 13.7949 15.75 12 15.75C10.2051 15.75 8.75 14.2949 8.75 12.5C8.75 10.7051 10.2051 9.25 12 9.25ZM14 1.25C15.0208 1.25 15.8402 1.514 16.3135 2.25586C16.7218 2.89608 16.75 3.74493 16.75 4.5C16.75 5.25507 16.7218 6.10392 16.3135 6.74414C15.8402 7.486 15.0208 7.75 14 7.75H10C8.97917 7.75 8.15976 7.486 7.68652 6.74414C7.27818 6.10392 7.25 5.25507 7.25 4.5C7.25 3.74493 7.27818 2.89608 7.68652 2.25586C8.15976 1.514 8.97917 1.25 10 1.25H14Z" fill="currentColor" />
</svg>