<svg xmlns="http://www.w3.org/2000/svg" width="24" height="24" viewBox="0 0 24 24" fill="none">
    <path d="M9.74414 19.8975C10.6766 19.7185 11.4684 19.3826 12.0479 18.7881C12.7737 18.0433 12.999 17.0679 12.999 16.0479V13.001H14.2588C14.249 12.7097 14.249 12.393 14.249 12.0557V11.9443C14.249 11.6078 14.2491 11.2917 14.2588 11.001H12.999V7.9541C12.999 6.85724 12.727 5.87349 11.9756 5.14551C11.3909 4.57917 10.6166 4.26801 9.74414 4.10156C9.74958 4.36404 9.74904 4.64845 9.74902 4.95312V5.04688C9.74904 5.45213 9.74913 5.82171 9.73633 6.15137C10.1568 6.26882 10.4183 6.42158 10.584 6.58203C10.8119 6.80287 10.999 7.17706 10.999 7.9541V16.0479C10.999 16.7952 10.8352 17.1679 10.6162 17.3926C10.4576 17.5553 10.1928 17.7202 9.73633 17.8477C9.74917 18.1775 9.74904 18.5475 9.74902 18.9531V19.0469C9.74904 19.3511 9.74955 19.6353 9.74414 19.8975Z" fill="currentColor" />
    <path opacity="0.4" d="M6.25098 8.75C6.86684 8.75005 7.40776 8.75012 7.84277 8.6875C8.31705 8.61918 8.77368 8.46333 9.13867 8.07227C9.49661 7.6886 9.63281 7.22177 9.69336 6.73926C9.7505 6.28385 9.75003 5.7139 9.75 5.04688V4.95312C9.75003 4.28609 9.7505 3.71616 9.69336 3.26074C9.63281 2.77823 9.49662 2.3114 9.13867 1.92773C8.77368 1.53667 8.31705 1.38082 7.84277 1.3125C7.40777 1.24988 6.86683 1.24995 6.25098 1.25H4.74902C4.13317 1.24995 3.59223 1.24988 3.15723 1.3125C2.68295 1.38082 2.22632 1.53667 1.86133 1.92773C1.50338 2.3114 1.36719 2.77823 1.30664 3.26074C1.2495 3.71615 1.24997 4.28611 1.25 4.95312V5.04688C1.24997 5.71389 1.2495 6.28385 1.30664 6.73926C1.36719 7.22177 1.50339 7.6886 1.86133 8.07227C2.22632 8.46333 2.68295 8.61918 3.15723 8.6875C3.59224 8.75012 4.13316 8.75005 4.74902 8.75H6.25098ZM18.5449 15.75C19.3315 15.75 19.9862 15.7503 20.5059 15.6904C21.0466 15.6281 21.5549 15.4904 21.9756 15.1299C22.4128 14.7551 22.596 14.2765 22.6768 13.7617C22.7499 13.2949 22.7501 12.7149 22.75 12.0557V11.9443C22.7501 11.2851 22.7499 10.7051 22.6768 10.2383C22.596 9.72347 22.4128 9.24494 21.9756 8.87012C21.5549 8.50957 21.0466 8.37189 20.5059 8.30957C19.9862 8.24971 19.3315 8.24998 18.5449 8.25H18.4551C17.6685 8.24998 17.0138 8.24971 16.4941 8.30957C15.9534 8.37189 15.4451 8.50957 15.0244 8.87012C14.5872 9.24494 14.404 9.72347 14.3232 10.2383C14.2501 10.7051 14.2499 11.2851 14.25 11.9443V12.0557C14.2499 12.7149 14.2501 13.2949 14.3232 13.7617C14.404 14.2765 14.5872 14.7551 15.0244 15.1299C15.4451 15.4904 15.9534 15.6281 16.4941 15.6904C17.0138 15.7503 17.6685 15.75 18.4551 15.75H18.5449ZM6.25098 22.75C6.86684 22.75 7.40776 22.7501 7.84277 22.6875C8.31705 22.6192 8.77368 22.4633 9.13867 22.0723C9.49661 21.6886 9.63281 21.2218 9.69336 20.7393C9.7505 20.2838 9.75003 19.7139 9.75 19.0469V18.9531C9.75003 18.2861 9.7505 17.7162 9.69336 17.2607C9.63281 16.7782 9.49662 16.3114 9.13867 15.9277C8.77368 15.5367 8.31705 15.3808 7.84277 15.3125C7.40777 15.2499 6.86683 15.25 6.25098 15.25H4.74902C4.13317 15.25 3.59223 15.2499 3.15723 15.3125C2.68295 15.3808 2.22632 15.5367 1.86133 15.9277C1.50338 16.3114 1.36719 16.7782 1.30664 17.2607C1.2495 17.7161 1.24997 18.2861 1.25 18.9531V19.0469C1.24997 19.7139 1.2495 20.2839 1.30664 20.7393C1.36719 21.2218 1.50339 21.6886 1.86133 22.0723C2.22632 22.4633 2.68295 22.6192 3.15723 22.6875C3.59224 22.7501 4.13316 22.75 4.74902 22.75H6.25098Z" fill="currentColor" />
</svg>