<svg xmlns="http://www.w3.org/2000/svg" width="24" height="24" viewBox="0 0 24 24" fill="none">
    <path d="M18.5 16.25C20.2949 16.25 21.75 17.7051 21.75 19.5C21.75 21.2949 20.2949 22.75 18.5 22.75C16.7051 22.75 15.25 21.2949 15.25 19.5C15.25 17.7051 16.7051 16.25 18.5 16.25Z" fill="currentColor" />
    <path opacity="0.4" d="M18.1309 2.1182C18.7058 1.26059 19.8591 1.00721 20.752 1.49809C21.6791 2.00793 22.0378 3.1634 21.4971 4.09672L12.5098 19.5996C11.7935 20.8352 10.6358 21.8362 9.32521 22.3574C8.00754 22.8814 6.48936 22.9343 5.12208 22.1826C3.86658 21.4923 2.94552 20.2589 2.51856 18.9082C2.09058 17.5542 2.13671 16.0053 2.9297 14.6973C3.52622 13.7134 4.81512 12.9858 6.13771 13.7129C7.10149 14.2429 7.55126 15.3856 7.14356 16.4219C7.0193 16.7378 6.97455 16.9725 6.99122 17.1299C6.99833 17.197 7.01519 17.2404 7.03712 17.2734C7.05909 17.3065 7.10654 17.3598 7.21583 17.4199C7.49398 17.5728 7.83669 17.4787 7.98927 17.251L18.1309 2.1182ZM20.0293 2.81254C19.7932 2.68272 19.5036 2.76452 19.377 2.95316L16.8604 6.70805L17.8291 7.43363L20.1992 3.34477C20.2996 3.17141 20.2515 2.93482 20.0293 2.81254Z" fill="currentColor" />
</svg>