<svg xmlns="http://www.w3.org/2000/svg" width="24" height="24" viewBox="0 0 24 24" fill="none">
    <path d="M20.7754 20.8613C21.3137 20.8615 21.75 21.2842 21.75 21.8057C21.75 22.3271 21.3137 22.7498 20.7754 22.75H3.22461C2.68632 22.7498 2.25001 22.3271 2.25 21.8057C2.25 21.2842 2.68631 20.8615 3.22461 20.8613H20.7754ZM12.001 15.1943C12.5391 15.1945 12.9753 15.6174 12.9756 16.1387V18.9727C12.9754 19.494 12.5392 19.9168 12.001 19.917C11.4626 19.917 11.0255 19.4941 11.0254 18.9727V16.1387C11.0257 15.6173 11.4627 15.1943 12.001 15.1943ZM7.1543 14.9658C7.28488 14.4599 7.81458 14.152 8.33691 14.2783C8.8593 14.4048 9.17745 14.9178 9.04688 15.4238L8.07129 19.2012C7.94069 19.7072 7.41107 20.0152 6.88867 19.8887C6.36653 19.762 6.04912 19.249 6.17969 18.7432L7.1543 14.9658ZM15.6641 14.2783C16.1865 14.1518 16.7161 14.4598 16.8467 14.9658L17.8213 18.7432C17.9519 19.2491 17.6346 19.7621 17.1123 19.8887C16.5899 20.0152 16.0603 19.7072 15.9297 19.2012L14.9551 15.4238C14.8245 14.9178 15.1417 14.4048 15.6641 14.2783Z" fill="currentColor" />
    <path opacity="0.4" d="M12 1.25C12.6773 1.25 13.2944 1.51754 14.042 1.8418L14.8799 2.2041C15.6099 2.51963 16.2486 2.79564 16.6973 3.06641C17.1157 3.31895 17.7499 3.78711 17.75 4.61523V10.3848C17.7499 11.2129 17.1157 11.681 16.6973 11.9336C16.2486 12.2044 15.6098 12.4804 14.8799 12.7959L14.042 13.1582C13.2944 13.4825 12.6773 13.75 12 13.75C11.3227 13.75 10.7056 13.4825 9.95801 13.1582L9.12012 12.7959C8.39014 12.4804 7.7514 12.2044 7.30273 11.9336C6.88433 11.681 6.25008 11.2129 6.25 10.3848V4.61523C6.25008 3.78711 6.88433 3.31895 7.30273 3.06641C7.75139 2.79564 8.39015 2.51963 9.12012 2.2041L9.95801 1.8418C10.7056 1.51754 11.3227 1.25 12 1.25ZM8.16699 10.2051L11.042 11.5303V7.81836L8.16699 6.60645V10.2051ZM12.958 7.81836V11.5303L15.833 10.2051V6.60645L12.958 7.81836Z" fill="currentColor" />
</svg>