<svg xmlns="http://www.w3.org/2000/svg" width="24" height="24" viewBox="0 0 24 24" fill="none">
    <path opacity="0.4" d="M8.99781 10.3711V11.8554C8.31245 12.1957 7.82672 12.8741 7.7566 13.6748C7.74776 13.7758 7.74778 13.8878 7.7478 14.0181L7.74781 14.0381V14.0569C7.7478 14.34 7.74779 14.5307 7.76246 14.6982C7.91613 16.4529 9.26735 17.8553 10.9978 18.0873V21.3711C10.9978 21.9234 11.4455 22.3711 11.9978 22.3711C12.5501 22.3711 12.9978 21.9234 12.9978 21.3711V18.0873C14.7283 17.8553 16.0795 16.4529 16.2332 14.6982C16.2478 14.5307 16.2478 14.34 16.2478 14.0569V14.0381L16.2478 14.0181C16.2478 13.8878 16.2479 13.7758 16.239 13.6748C16.1689 12.8741 15.6832 12.1957 14.9978 11.8554V10.3711C14.9978 9.81881 14.5501 9.37109 13.9978 9.37109C13.4455 9.37109 12.9978 9.81881 12.9978 10.3711V11.6211H10.9978V10.3711C10.9978 9.81881 10.5501 9.37109 9.99781 9.37109C9.44552 9.37109 8.99781 9.81881 8.99781 10.3711Z" fill="currentColor" />
    <path d="M19.9978 16.3203V11.7549C19.9978 10.2163 19.9741 9.77617 19.7947 9.40918C19.6151 9.04214 19.2819 8.75345 18.0671 7.80859L15.0671 5.47461C14.1634 4.77171 13.5537 4.30029 13.0456 3.99414C12.5605 3.70183 12.2634 3.62109 11.9978 3.62109C11.7322 3.62109 11.4351 3.70183 10.9499 3.99414C10.4418 4.30029 9.83218 4.77171 8.92845 5.47461L5.92845 7.80859C4.71363 8.75345 4.38042 9.04214 4.20091 9.40918C4.02149 9.77617 3.99778 10.2163 3.99778 11.7549V16.3203C3.99778 17.2732 3.9985 17.9212 4.04368 18.4199C4.08761 18.9046 4.167 19.1498 4.26536 19.3203C4.4409 19.6244 4.69375 19.8772 4.99778 20.0527L5.14231 20.123C5.30584 20.1889 5.53464 20.2415 5.89817 20.2744C6.39688 20.3196 7.04479 20.3203 7.99778 20.3203C8.55 20.3203 8.99768 20.7681 8.99778 21.3203C8.99778 21.8726 8.55007 22.3203 7.99778 22.3203C7.08157 22.3203 6.32745 22.3219 5.71751 22.2666C5.17173 22.2171 4.6669 22.1171 4.197 21.8896L3.99778 21.7842C3.38979 21.4331 2.88495 20.9283 2.53392 20.3203C2.23045 19.7947 2.109 19.2243 2.05247 18.6006C1.99719 17.9907 1.99778 17.2365 1.99778 16.3203V11.7549C1.99778 10.4118 1.97443 9.41066 2.40501 8.53027C2.83562 7.65004 3.63992 7.05394 4.69993 6.22949L7.69993 3.89648C8.56554 3.22324 9.28377 2.66224 9.9177 2.28027C10.5745 1.88457 11.2342 1.62109 11.9978 1.62109C12.7614 1.62109 13.4211 1.88457 14.0779 2.28027C14.7118 2.66224 15.43 3.22324 16.2956 3.89648L19.2956 6.22949C20.3556 7.05394 21.1599 7.65004 21.5906 8.53027H21.5915C22.022 9.41063 21.9978 10.4119 21.9978 11.7549V16.3203C21.9978 17.2365 21.9984 17.9907 21.9431 18.6006C21.8866 19.2243 21.7651 19.7947 21.4616 20.3203C21.1544 20.8524 20.7293 21.3053 20.2204 21.6455L19.9978 21.7842C19.4722 22.0876 18.9017 22.2101 18.2781 22.2666C17.6681 22.3219 16.914 22.3203 15.9978 22.3203C15.4455 22.3203 14.9978 21.8726 14.9978 21.3203C14.9979 20.7681 15.4456 20.3203 15.9978 20.3203C16.9508 20.3203 17.5987 20.3196 18.0974 20.2744C18.5823 20.2305 18.8273 20.1512 18.9978 20.0527C19.3018 19.8772 19.5547 19.6243 19.7302 19.3203C19.8286 19.1498 19.908 18.9046 19.9519 18.4199C19.9971 17.9212 19.9978 17.2732 19.9978 16.3203Z" fill="currentColor" />
</svg>