<svg xmlns="http://www.w3.org/2000/svg" width="24" height="24" viewBox="0 0 24 24" fill="none">
    <path d="M12.2355 13.2295C12.5921 12.8078 13.2239 12.7547 13.6456 13.1113C14.0671 13.468 14.1193 14.0989 13.7628 14.5205L11.7716 16.875H13.0616C13.306 16.8749 13.5771 16.8743 13.797 16.9023C14.0001 16.9283 14.5155 17.0146 14.8204 17.5068C15.1655 18.0643 14.9287 18.5986 14.8155 18.8057C14.7095 18.9998 14.5455 19.2108 14.4142 19.3809L11.7442 22.5234C11.3862 22.9438 10.7546 22.9947 10.3341 22.6367C9.91368 22.2788 9.863 21.6471 10.2208 21.2266L12.2228 18.875H10.9376C10.693 18.8751 10.4213 18.8748 10.2013 18.8467C9.9981 18.8207 9.48268 18.7353 9.17789 18.2432C8.83278 17.6857 9.07061 17.1514 9.18375 16.9443C9.28976 16.7503 9.45283 16.5391 9.58414 16.3691L12.2355 13.2295ZM7.97086 6.625C8.2876 6.625 8.44574 6.62514 8.53531 6.72656C8.62488 6.82802 8.60586 6.98547 8.56656 7.2998L8.20719 10.1123C8.17115 10.3564 8.15272 10.4788 8.06852 10.5518C7.98407 10.6247 7.86039 10.625 7.61344 10.625H6.61051C5.64401 10.625 4.83307 10.6255 4.21305 10.5322C3.56395 10.4346 2.93775 10.2084 2.54703 9.60156C2.15901 8.99847 2.20674 8.33424 2.37711 7.69727C2.43431 7.48347 2.51144 7.25234 2.60367 7.00391C2.67079 6.82312 2.70423 6.73242 2.78141 6.67871C2.85863 6.62501 2.95813 6.625 3.15641 6.625H7.97086ZM13.3087 6.625C13.5607 6.625 13.6866 6.62513 13.7716 6.7002C13.8566 6.77528 13.8722 6.90024 13.9034 7.15039L14.255 9.96484C14.2901 10.2686 14.3076 10.4202 14.2228 10.5195C14.1338 10.6152 13.9729 10.625 13.6671 10.625H10.295C10.0173 10.625 9.83224 10.5719 9.74625 10.4932C9.68101 10.3966 9.7018 10.259 9.74235 9.98437L10.0968 7.15039C10.1281 6.90023 10.1436 6.77528 10.2286 6.7002C10.3137 6.62513 10.4395 6.625 10.6915 6.625H13.3087ZM20.8439 6.625C21.0421 6.625 21.1416 6.62501 21.2189 6.67871C21.2959 6.73243 21.3295 6.82327 21.3966 7.00391C21.4888 7.2523 21.566 7.4835 21.6232 7.69727C21.7935 8.33433 21.8405 8.99841 21.4523 9.60156C21.0616 10.2084 20.4363 10.4345 19.7872 10.5322C19.1672 10.6255 18.3563 10.625 17.3898 10.625H16.3761C16.1219 10.625 15.9946 10.6248 15.9093 10.5488C15.8242 10.4728 15.8096 10.3462 15.7804 10.0937L15.7452 9.78906L15.4337 7.29883C15.3945 6.98483 15.3754 6.82797 15.465 6.72656C15.5545 6.62515 15.7127 6.625 16.0294 6.625H20.8439ZM8.6818 1.125C8.97703 1.125 9.12496 1.12483 9.21305 1.21387C9.29024 1.31266 9.29389 1.48616 9.25602 1.7793L8.90348 4.59961C8.87222 4.84966 8.85668 4.97474 8.77164 5.0498C8.68662 5.12481 8.56065 5.125 8.30875 5.125H4.29703C3.88544 5.125 3.67893 5.12521 3.59 4.99023C3.50111 4.85516 3.5834 4.66523 3.74625 4.28711C3.98372 3.73568 4.334 2.92103 4.5402 2.55469C4.75941 2.16522 5.01679 1.82854 5.39664 1.57617C5.77719 1.32345 6.1859 1.21817 6.62809 1.16992C7.04274 1.12469 7.54636 1.12498 8.13785 1.125H8.6818ZM12.6232 1.125C12.8754 1.125 13.002 1.12505 13.087 1.2002C13.1719 1.27537 13.1877 1.40118 13.2189 1.65137L13.5665 4.45117C13.6056 4.76515 13.6248 4.92208 13.5353 5.02344C13.4457 5.12463 13.2872 5.125 12.9708 5.125H11.0294C10.7128 5.125 10.5545 5.12472 10.465 5.02344C10.3754 4.92198 10.3944 4.76453 10.4337 4.4502L10.7853 1.64844C10.8175 1.39927 10.8341 1.27391 10.9191 1.19922C11.004 1.12483 11.1301 1.125 11.381 1.125H12.6232ZM15.3439 1.125C15.9354 1.12498 16.9575 1.12469 17.3722 1.16992C17.8143 1.21819 18.2231 1.32341 18.6036 1.57617C18.9835 1.82855 19.2409 2.1652 19.4601 2.55469C19.6663 2.9211 20.0166 3.73573 20.254 4.28711C20.4169 4.66522 20.4982 4.85516 20.4093 4.99023C20.3202 5.12486 20.1144 5.125 19.7032 5.125H15.6925C15.4402 5.125 15.3137 5.1249 15.2286 5.0498C15.1435 4.97465 15.1279 4.84905 15.0968 4.59863L14.7482 1.79883C14.7091 1.48492 14.69 1.32793 14.7794 1.22656C14.869 1.12517 15.0273 1.125 15.3439 1.125Z" fill="currentColor" />
    <path opacity="0.4" d="M3.50011 10.3516C3.72684 10.4383 3.9683 10.4935 4.213 10.5303C4.57824 10.5852 5.00966 10.6079 5.50011 10.6172V14.8828C5.50011 15.8557 5.50233 16.4855 5.56456 16.9492C5.62295 17.3841 5.7176 17.5211 5.79405 17.5977C5.90399 17.7077 6.11913 17.8356 7.0421 17.874C7.59372 17.8972 8.02208 18.3634 7.99913 18.915C7.97609 19.4668 7.50987 19.895 6.95811 19.8721C6.00973 19.8326 5.07623 19.7102 4.37804 19.0107C3.86872 18.5004 3.67019 17.8711 3.58214 17.2148C3.49995 16.6024 3.50006 15.8374 3.50011 14.9492V10.3516ZM20.5001 14.9492C20.5002 15.8374 20.5003 16.6024 20.4181 17.2148C20.33 17.8711 20.1315 18.5004 19.6222 19.0107C18.924 19.7102 17.9905 19.8326 17.0421 19.8721C16.4903 19.895 16.0241 19.4668 16.0011 18.915C15.9781 18.3634 16.4065 17.8972 16.9581 17.874C17.881 17.8356 18.0962 17.7077 18.2062 17.5977C18.2826 17.5211 18.3773 17.3841 18.4357 16.9492C18.4979 16.4855 18.5001 15.8557 18.5001 14.8828V10.6172C18.9905 10.6079 19.422 10.5852 19.7872 10.5303C20.032 10.4934 20.2733 10.4383 20.5001 10.3516V14.9492Z" fill="currentColor" />
</svg>