<svg xmlns="http://www.w3.org/2000/svg" width="24" height="24" viewBox="0 0 24 24" fill="none">
    <path opacity="0.4" d="M18.2979 21.835C17.8732 21.9558 17.4188 22.0387 16.9336 22.0977C15.6713 22.2509 13.9435 22.251 11.9346 22.251C9.92571 22.251 8.32862 22.2509 7.06641 22.0977C5.76786 21.9399 4.69336 21.6074 3.80371 20.8477C3.57039 20.6484 3.3526 20.4306 3.15332 20.1973C2.3936 19.3076 2.06106 18.2331 1.90332 16.9346C1.75004 15.6724 1.74998 14.0753 1.75 12.0664C1.74998 10.0575 1.75004 8.32965 1.90332 7.06737C1.96226 6.58219 2.04515 6.12774 2.16602 5.70311L18.2979 21.835ZM12.0654 1.74999C14.0743 1.74997 15.6714 1.75003 16.9336 1.90331C18.2321 2.06105 19.3066 2.3936 20.1963 3.15331C20.4296 3.35259 20.6474 3.57038 20.8467 3.8037C21.6064 4.69335 21.9389 5.76784 22.0967 7.0664C22.25 8.32867 22.25 10.0565 22.25 12.0654C22.25 14.0743 22.25 15.6714 22.0967 16.9336C21.9389 18.2321 21.6064 19.3066 20.8467 20.1963C20.747 20.3129 20.6426 20.4258 20.5342 20.5342L3.46582 3.46581C3.57422 3.35741 3.68705 3.25295 3.80371 3.15331C4.69336 2.3936 5.76785 2.06105 7.06641 1.90331C8.32869 1.75002 10.0565 1.74997 12.0654 1.74999Z" fill="currentColor" />
    <path d="M1.5429 1.54288C1.93342 1.15235 2.56644 1.15235 2.95696 1.54288L15.4569 14.0429L15.9696 13.5302C16.3092 13.1906 16.7697 12.9999 17.2499 12.9999C17.7301 12.9999 18.1906 13.1906 18.5302 13.5302L20.2626 15.2626C20.2422 15.7994 20.2097 16.2734 20.1581 16.6981C20.0721 17.4063 19.9375 17.9241 19.745 18.331L22.4569 21.0429C22.8475 21.4334 22.8475 22.0664 22.4569 22.4569C22.0664 22.8475 21.4334 22.8475 21.0429 22.4569L1.5429 2.95694C1.15237 2.56642 1.15237 1.9334 1.5429 1.54288ZM16.6308 20.1659C15.5087 20.2953 14.0475 20.2978 11.9999 20.2978C9.91097 20.2978 8.43251 20.2954 7.30169 20.1581C6.19371 20.0235 5.55074 19.7717 5.07122 19.3622C4.91567 19.2294 4.77047 19.0842 4.63763 18.9286C4.22812 18.4491 3.97632 17.8062 3.84173 16.6981C3.79013 16.2734 3.75765 15.7994 3.73723 15.2626L7.46966 11.5302C7.55851 11.4413 7.65609 11.3625 7.7597 11.2948L16.6308 20.1659ZM15.4999 6.24991C16.1903 6.24991 16.7499 6.80955 16.7499 7.49991C16.7499 8.19027 16.1903 8.74991 15.4999 8.74991C14.8095 8.74991 14.2499 8.19027 14.2499 7.49991C14.2499 6.80955 14.8095 6.24991 15.4999 6.24991Z" fill="currentColor" />
</svg>