<svg xmlns="http://www.w3.org/2000/svg" width="24" height="24" viewBox="0 0 24 24" fill="none">
    <path d="M17.5 21.5V19.5H15.5C14.9477 19.5 14.5 19.0523 14.5 18.5C14.5 17.9477 14.9477 17.5 15.5 17.5H17.5V15.5C17.5 14.9477 17.9477 14.5 18.5 14.5C19.0523 14.5 19.5 14.9477 19.5 15.5V17.5H21.5C22.0523 17.5 22.5 17.9477 22.5 18.5C22.5 19.0523 22.0523 19.5 21.5 19.5H19.5V21.5C19.5 22.0523 19.0523 22.5 18.5 22.5C17.9477 22.5 17.5 22.0523 17.5 21.5Z" fill="currentColor" />
    <path opacity="0.4" fill-rule="evenodd" clip-rule="evenodd" d="M11.9255 1.5H12.0745C14.2504 1.49998 15.9852 1.49996 17.3453 1.68282C18.7497 1.87164 19.9035 2.27175 20.8159 3.18414C21.7283 4.09653 22.1284 5.25033 22.3172 6.65471C22.5 8.01485 22.5 9.74959 22.5 11.9256V12.0744C22.5 13.795 22.5 15.2397 22.4096 16.4415C22.1315 16.3184 21.8237 16.25 21.5 16.25H20.75V15.5C20.75 15.1182 20.6549 14.7586 20.4871 14.4436C20.4903 14.2407 20.4926 14.0304 20.4943 13.8125C19.0369 12.9927 17.7226 12.7003 16.5221 12.7568C15.1528 12.8211 13.8569 13.343 12.5969 14.1878C10.4164 15.6499 8.47512 17.9776 6.57031 20.2814C6.68154 20.3008 6.79794 20.3186 6.91988 20.335C8.13125 20.4979 9.73123 20.5 11.9987 20.5C12.918 20.5 13.7275 20.4996 14.446 20.4884C14.7604 20.6554 15.1192 20.75 15.5 20.75H16.25V21.5C16.25 21.8237 16.3184 22.1315 16.4415 22.4096C15.2397 22.5 13.795 22.5 12.0744 22.5H11.9256C9.74959 22.5 8.01485 22.5 6.65471 22.3172C5.25033 22.1284 4.09653 21.7283 3.18414 20.8159C2.27175 19.9035 1.87164 18.7497 1.68282 17.3453C1.49996 15.9852 1.49998 14.2504 1.5 12.0745V11.9255C1.49998 9.74957 1.49996 8.01484 1.68282 6.65471C1.87164 5.25033 2.27175 4.09653 3.18414 3.18414C4.09653 2.27175 5.25033 1.87164 6.65471 1.68282C8.01484 1.49996 9.74959 1.49998 11.9255 1.5ZM20.75 20.8804C20.7721 20.8592 20.794 20.8377 20.8159 20.8159C20.8377 20.794 20.8592 20.7721 20.8804 20.75H20.75V20.8804ZM7.5 5.5C6.39543 5.5 5.5 6.39543 5.5 7.5C5.5 8.60457 6.39543 9.5 7.5 9.5C8.60457 9.5 9.5 8.60457 9.5 7.5C9.5 6.39543 8.60457 5.5 7.5 5.5Z" fill="currentColor" />
</svg>