<svg xmlns="http://www.w3.org/2000/svg" width="24" height="24" viewBox="0 0 24 24" fill="none">
    <path opacity="0.4" d="M7.25044 6.00049C7.9408 6.00049 8.50044 6.56013 8.50044 7.25049C8.50044 7.94085 7.94079 8.50049 7.25044 8.50049C6.56009 8.50049 6.00044 7.94084 6.00044 7.25049C6.00044 6.56014 6.56008 6.00049 7.25044 6.00049Z" fill="currentColor" />
    <path opacity="0.4" fill-rule="evenodd" clip-rule="evenodd" d="M20.1134 7.78361C19.6983 7.36857 19.0969 7.11487 17.8761 6.99479L18.0719 5.00439C19.468 5.14172 20.6279 5.46974 21.5276 6.3694C22.3339 7.17569 22.681 8.19107 22.8432 9.39817C22.9996 10.5611 22.9996 12.0399 22.9995 13.8753V14.0217C22.9996 15.8572 22.9996 17.336 22.8432 18.4989C22.681 19.706 22.3339 20.7214 21.5276 21.5276C20.7213 22.3339 19.7059 22.681 18.4988 22.8433C17.3359 22.9996 15.8571 22.9996 14.0217 22.9996H13.8753C12.0398 22.9996 10.561 22.9996 9.39812 22.8433C8.19102 22.681 7.17565 22.3339 6.36935 21.5276C5.46969 20.628 5.14167 19.468 5.00435 18.0719L6.99474 17.8762C7.11482 19.0969 7.36852 19.6984 7.78356 20.1134C8.15632 20.4862 8.6793 20.7287 9.66462 20.8611C10.6787 20.9975 12.0226 20.9996 13.9485 20.9996C15.8744 20.9996 17.2182 20.9975 18.2323 20.8611C19.2177 20.7287 19.7406 20.4862 20.1134 20.1134C20.4861 19.7407 20.7286 19.2177 20.8611 18.2324C20.9974 17.2183 20.9995 15.8744 20.9995 13.9485C20.9995 12.0226 20.9974 10.6788 20.8611 9.66466C20.7286 8.67934 20.4861 8.15637 20.1134 7.78361Z" fill="currentColor" />
    <path opacity="0.4" d="M3.88716 16.1301C4.20565 16.445 4.63557 16.6655 5.37335 16.8038C5.48916 16.8255 5.61256 16.8452 5.7443 16.8629C6.75143 16.9983 8.08625 17.0005 10.0001 17.0005C11.914 17.0005 13.2488 16.9983 14.256 16.8629C15.2343 16.7314 15.7524 16.4908 16.1215 16.1218C16.4905 15.7528 16.7311 15.2347 16.8626 14.2563C16.891 14.045 16.9136 13.8192 16.9315 13.5767C16.969 13.0678 16.986 12.4852 16.9937 11.8074L16.59 11.5342L16.5476 11.5055C15.6418 10.8921 14.9062 10.3938 14.2667 10.0645C13.5994 9.72084 12.9627 9.51984 12.255 9.57136C11.5474 9.62294 10.9466 9.91392 10.3361 10.3507C9.74723 10.7719 9.08652 11.376 8.27178 12.1209L8.25014 12.1407L3.88716 16.1301Z" fill="currentColor" />
    <path fill-rule="evenodd" clip-rule="evenodd" d="M9.92728 1.00049H10.0736C11.8971 1.00046 13.3668 1.00044 14.5228 1.15585C15.7229 1.31721 16.7334 1.6624 17.536 2.46496C18.3385 3.26751 18.6837 4.27801 18.8451 5.47816C19.0005 6.6341 19.0005 8.10385 19.0004 9.92729V10.0737C19.0005 11.8971 19.0005 13.3669 18.8451 14.5228C18.6837 15.723 18.3385 16.7335 17.536 17.536C16.7334 18.3386 15.7229 18.6838 14.5228 18.8451C13.3668 19.0005 11.8971 19.0005 10.0736 19.0005H9.92724C8.10381 19.0005 6.63406 19.0005 5.47811 18.8451C4.27797 18.6838 3.26747 18.3386 2.46491 17.536C1.66235 16.7335 1.31716 15.723 1.15581 14.5228C1.00039 13.3669 1.00042 11.8971 1.00044 10.0737V9.92733C1.00042 8.10388 1.00039 6.63411 1.15581 5.47816C1.31716 4.27801 1.66235 3.26751 2.46491 2.46496C3.26747 1.6624 4.27797 1.31721 5.47811 1.15585C6.63406 1.00044 8.10384 1.00046 9.92728 1.00049ZM5.7446 16.863C5.61286 16.8452 5.48947 16.8256 5.37366 16.8038C4.63587 16.6655 4.20596 16.445 3.88747 16.1301L3.87912 16.1218C3.51011 15.7528 3.26951 15.2347 3.13797 14.2563C3.00257 13.2492 3.00044 11.9144 3.00044 10.0005C3.00044 8.0866 3.00257 6.75178 3.13797 5.74465C3.26951 4.76628 3.51011 4.24819 3.87912 3.87917C4.24814 3.51015 4.76624 3.26956 5.7446 3.13802C6.75174 3.00261 8.08656 3.00049 10.0004 3.00049C11.9143 3.00049 13.2492 3.00261 14.2563 3.13802C15.2347 3.26956 15.7527 3.51015 16.1218 3.87917C16.4908 4.24819 16.7314 4.76628 16.8629 5.74465C16.9983 6.75178 17.0004 8.0866 17.0004 10.0005C17.0004 10.6701 17.0002 11.2688 16.994 11.8074C16.9863 12.4852 16.9693 13.0678 16.9318 13.5767C16.9139 13.8192 16.8913 14.045 16.8629 14.2563C16.7314 15.2347 16.4908 15.7528 16.1218 16.1218C15.7527 16.4908 15.2347 16.7314 14.2563 16.863C13.2491 16.9984 11.9143 17.0005 10.0004 17.0005C8.08656 17.0005 6.75174 16.9984 5.7446 16.863Z" fill="currentColor" />
</svg>