<svg xmlns="http://www.w3.org/2000/svg" width="24" height="24" viewBox="0 0 24 24" fill="none">
    <path d="M20.413 1.52362C20.6559 1.53864 20.9125 1.56772 21.1484 1.62616C21.3275 1.67055 21.6084 1.75762 21.8544 1.95722L21.958 2.04999L22.0507 2.15351C22.2503 2.39958 22.3374 2.68049 22.3818 2.85956C22.4402 3.09542 22.4693 3.35205 22.4843 3.59491C22.5145 4.08348 22.494 4.64673 22.458 5.15839C22.4214 5.67686 22.3662 6.17366 22.3212 6.53827C22.2987 6.72117 22.2784 6.87247 22.2636 6.9787C22.2562 7.03172 22.2503 7.07364 22.246 7.10273C22.2439 7.11728 22.2423 7.12899 22.2412 7.13691C22.2406 7.14056 22.2405 7.14353 22.2402 7.1457C22.24 7.14674 22.2393 7.14797 22.2392 7.14862V7.15058C22.1561 7.69633 21.6464 8.07125 21.1005 7.98847C20.5545 7.9056 20.1788 7.39583 20.2617 6.8498C20.2619 6.84848 20.2622 6.84501 20.2626 6.84198C20.2635 6.83593 20.2657 6.82615 20.2675 6.81366C20.2712 6.78853 20.2764 6.75066 20.2832 6.70234C20.2967 6.60498 20.3158 6.46408 20.3369 6.29316C20.3792 5.94965 20.4295 5.48998 20.4628 5.01777C20.4645 4.99431 20.4652 4.97082 20.4667 4.94745L17.208 8.20722C16.8175 8.59765 16.1844 8.59765 15.7939 8.20722C15.4034 7.81672 15.4034 7.18369 15.7939 6.79316L19.0449 3.5412C19.0267 3.54243 19.0084 3.54382 18.9902 3.54511C18.518 3.57841 18.0583 3.62872 17.7148 3.67109C17.5439 3.69216 17.403 3.71123 17.3056 3.7248C17.257 3.73158 17.2184 3.73675 17.1933 3.74042C17.1811 3.74221 17.172 3.74441 17.166 3.7453C17.1629 3.74576 17.1604 3.74608 17.1591 3.74628C16.6131 3.82914 16.1024 3.45343 16.0195 2.90741C15.9366 2.36152 16.3116 1.85179 16.8574 1.76874H16.8593C16.86 1.76864 16.8612 1.76792 16.8623 1.76777C16.8644 1.76744 16.8674 1.76733 16.871 1.76679C16.879 1.76561 16.8907 1.76403 16.9052 1.76191C16.9343 1.75766 16.9763 1.75171 17.0292 1.74433C17.1355 1.72952 17.2868 1.70927 17.4697 1.68671C17.8343 1.64174 18.3311 1.58655 18.8496 1.54999C19.3612 1.51392 19.9245 1.49345 20.413 1.52362Z" fill="currentColor" />
    <path d="M20.5 13.5V11C20.5 10.4479 20.9479 10.0002 21.5 10C22.0522 10 22.5 10.4477 22.5 11V13.5C22.5 14.0361 22.5004 14.5386 22.497 15.0068C22.493 15.559 22.0423 16.0038 21.4902 16C20.9381 15.996 20.4932 15.5452 20.497 14.9932C20.5004 14.5335 20.5 14.038 20.5 13.5Z" fill="currentColor" />
    <path d="M20.164 18.6924C20.334 18.167 20.8974 17.8791 21.4228 18.0489C21.9482 18.2188 22.2371 18.7823 22.0673 19.3076C21.8531 19.97 21.5265 20.5448 21.0361 21.0352C20.0319 22.0394 18.6983 22.3307 17.0654 22.4366C16.5145 22.4721 16.0388 22.0548 16.0029 21.5039C15.9672 20.9528 16.3854 20.4762 16.9365 20.4405C18.4658 20.3413 19.1591 20.0841 19.622 19.6211C19.8571 19.386 20.0325 19.0989 20.164 18.6924Z" fill="currentColor" />
    <path d="M13.5009 1.5C14.0532 1.5 14.5009 1.94772 14.5009 2.5C14.5009 3.05228 14.0532 3.5 13.5009 3.5H10.5009C10.1514 3.5 9.81992 3.50005 9.50386 3.50098C8.9516 3.50259 8.50258 3.05617 8.50094 2.50391C8.49932 1.95162 8.94572 1.50259 9.49801 1.50098C9.81752 1.50004 10.1521 1.5 10.5009 1.5H13.5009Z" fill="currentColor" />
    <path d="M5.29 1.77443C5.82941 1.65731 6.36195 1.9997 6.47945 2.53908C6.59692 3.07873 6.25445 3.61204 5.7148 3.72951C5.07274 3.86929 4.67993 4.07981 4.38082 4.37892C3.91796 4.84189 3.66064 5.53531 3.56148 7.06447C3.52576 7.61551 3.05 8.03365 2.49898 7.99806C1.94796 7.96234 1.52983 7.48656 1.56539 6.93556C1.67125 5.30273 1.96267 3.96907 2.96676 2.96486C3.60681 2.3248 4.38318 1.97182 5.29 1.77443Z" fill="currentColor" />
    <path opacity="0.4" fill-rule="evenodd" clip-rule="evenodd" d="M8.05072 9.5L8.00093 9.5L7.95112 9.5C6.82416 9.49998 5.89478 9.49997 5.14937 9.58399C4.37302 9.67151 3.6733 9.86064 3.06636 10.3262C2.78903 10.539 2.53991 10.7881 2.3271 11.0654C1.86157 11.6724 1.67244 12.3721 1.58492 13.1484C1.5009 13.8939 1.50091 14.8232 1.50093 15.9502V16V16.0498C1.50091 17.1768 1.5009 18.1061 1.58492 18.8516C1.67244 19.6279 1.86157 20.3276 2.3271 20.9346C2.5399 21.2119 2.78903 21.461 3.06636 21.6738C3.6733 22.1394 4.37302 22.3285 5.14937 22.416C5.89481 22.5 6.82418 22.5 7.95118 22.5H8.00093H8.05068C9.17768 22.5 10.1071 22.5 10.8525 22.416C11.6288 22.3285 12.3286 22.1394 12.9355 21.6738C13.2128 21.461 13.462 21.2119 13.6748 20.9346C14.1403 20.3276 14.3294 19.6279 14.4169 18.8516C14.501 18.1062 14.501 17.1767 14.5009 16.0498V16V15.9502C14.501 14.8233 14.501 13.8939 14.4169 13.1484C14.3294 12.3721 14.1403 11.6724 13.6748 11.0654C13.462 10.7881 13.2128 10.539 12.9355 10.3262C12.3286 9.86064 11.6288 9.67151 10.8525 9.58399C10.1535 9.5052 9.29267 9.50031 8.25889 9.50002L8.05072 9.5ZM11.58 15.9627C11.8617 16.1181 12.1657 16.3139 12.5005 16.5428C12.499 17.2926 12.4916 17.8722 12.456 18.3442C12.4485 18.4433 12.4398 18.5377 12.4296 18.6279C12.3622 19.226 12.242 19.5169 12.0878 19.7178C11.9815 19.8564 11.8573 19.9805 11.7187 20.0869C11.5179 20.241 11.2269 20.3613 10.6289 20.4287C10.0105 20.4984 9.19698 20.5 8.00093 20.5C6.98799 20.5 6.24942 20.4989 5.6714 20.4562C5.56691 20.4485 5.46767 20.4394 5.373 20.4287C4.77493 20.3613 4.484 20.241 4.28316 20.0869C4.21076 20.0314 4.14231 19.971 4.07828 19.9062L6.35445 17.7205L6.37882 17.6971C7.01571 17.0857 7.53948 16.5829 8.00874 16.2254C8.49852 15.8524 8.994 15.5855 9.58687 15.5115C9.69575 15.498 9.8053 15.4906 9.91499 15.4881C10.5123 15.4746 11.041 15.6654 11.58 15.9627Z" fill="currentColor" />
</svg>