<svg xmlns="http://www.w3.org/2000/svg" width="24" height="24" viewBox="0 0 24 24" fill="none">
    <path opacity="0.4" fill-rule="evenodd" clip-rule="evenodd" d="M14.0264 2.25C15.8082 2.24997 17.2444 2.24986 18.374 2.40137C19.5467 2.55867 20.5341 2.89547 21.3184 3.67774C22.1027 4.46024 22.4409 5.44607 22.5986 6.61621C22.7504 7.74318 22.75 9.17654 22.75 10.9541V13.0459C22.75 14.8237 22.7505 16.2577 22.5986 17.3848C22.4409 18.5547 22.1026 19.5399 21.3184 20.3223C20.5341 21.1046 19.5467 21.4413 18.374 21.5986C17.2444 21.7501 15.8082 21.75 14.0264 21.75H9.97363C8.19182 21.75 6.75558 21.7501 5.62598 21.5986C4.45325 21.4413 3.46591 21.1046 2.68164 20.3223C1.89743 19.5399 1.55908 18.5547 1.40137 17.3848C1.24949 16.2577 1.24997 14.8238 1.25 13.0459V10.9541C1.24997 9.17653 1.24956 7.74318 1.40137 6.61621C1.55906 5.44607 1.89733 4.46024 2.68164 3.67774C3.46591 2.89546 4.45325 2.55867 5.62598 2.40137C6.75558 2.24986 8.19182 2.24997 9.97363 2.25H14.0264Z" fill="currentColor" />
    <path d="M15.4854 11C15.8134 11.0001 16.126 11.1381 16.3477 11.3799L20.7471 16.1787C20.7275 16.525 20.6997 16.838 20.6611 17.124C20.5326 18.0779 20.2972 18.5836 19.9365 18.9434C19.5759 19.3031 19.0693 19.5378 18.1133 19.666C17.1291 19.798 15.8242 19.7998 13.9541 19.7998H10.0459C8.17573 19.7998 6.87092 19.798 5.88672 19.666C4.9307 19.5378 4.4241 19.3031 4.06348 18.9434C3.70285 18.5836 3.46742 18.0779 3.33887 17.124L3.33105 17.0654L6.1543 13.8887C6.37413 13.6414 6.68964 13.5 7.02051 13.5C7.32743 13.5001 7.62174 13.622 7.83887 13.8389L10 16L14.6572 11.3428C14.8768 11.1233 15.1749 11 15.4854 11ZM8.5 7C9.32843 7 10 7.67157 10 8.5C10 9.32843 9.32843 10 8.5 10C7.67157 10 7 9.32843 7 8.5C7 7.67157 7.67157 7 8.5 7Z" fill="currentColor" />
</svg>