<svg xmlns="http://www.w3.org/2000/svg" width="24" height="24" viewBox="0 0 24 24" fill="none">
    <path d="M21.5002 18.5H14.5002" stroke="currentColor" stroke-width="2" stroke-linecap="round" stroke-linejoin="round" />
    <path opacity="0.4" fill-rule="evenodd" clip-rule="evenodd" d="M11.9255 1.5H12.0745C14.2504 1.49998 15.9852 1.49996 17.3453 1.68282C18.7497 1.87164 19.9035 2.27175 20.8159 3.18414C21.7283 4.09653 22.1284 5.25033 22.3172 6.65471C22.5 8.01485 22.5 9.74959 22.5 11.9256V12.0744C22.5 13.795 22.5 15.2397 22.4096 16.4415C22.1315 16.3184 21.8237 16.25 21.5 16.25H20.4193C20.4698 15.5595 20.489 14.7584 20.4962 13.8125C19.0389 12.9927 17.7246 12.7003 16.5241 12.7568C15.1548 12.8211 13.8589 13.343 12.5989 14.1878C10.4184 15.6499 8.47707 17.9776 6.57227 20.2814C6.68349 20.3008 6.79989 20.3186 6.92183 20.335C8.1332 20.4979 9.73318 20.5 12.0006 20.5C12.5226 20.5 13.0092 20.4999 13.4638 20.4977C13.7739 20.6589 14.1263 20.75 14.5 20.75H20.8804C20.8592 20.7721 20.8377 20.794 20.8159 20.8159C19.9035 21.7283 18.7497 22.1284 17.3453 22.3172C15.9851 22.5 14.2504 22.5 12.0744 22.5H11.9256C9.74959 22.5 8.01485 22.5 6.65471 22.3172C5.25033 22.1284 4.09653 21.7283 3.18414 20.8159C2.27175 19.9035 1.87164 18.7497 1.68282 17.3453C1.49996 15.9852 1.49998 14.2504 1.5 12.0745V11.9255C1.49998 9.74957 1.49996 8.01484 1.68282 6.65471C1.87164 5.25033 2.27175 4.09653 3.18414 3.18414C4.09653 2.27175 5.25033 1.87164 6.65471 1.68282C8.01484 1.49996 9.74959 1.49998 11.9255 1.5ZM7.5 5.5C6.39543 5.5 5.5 6.39543 5.5 7.5C5.5 8.60457 6.39543 9.5 7.5 9.5C8.60457 9.5 9.5 8.60457 9.5 7.5C9.5 6.39543 8.60457 5.5 7.5 5.5Z" fill="currentColor" />
</svg>