<svg xmlns="http://www.w3.org/2000/svg" width="24" height="24" viewBox="0 0 24 24" fill="none">
    <path opacity="0.4" d="M6.81152 12.4807C7.22087 12.1373 7.83777 12.1826 8.18945 12.5822C8.54109 12.9822 8.49443 13.5854 8.08496 13.9289L5.37598 16.2014C4.78487 16.6972 4.56484 16.8841 4.38379 17.0881C4.07692 17.4339 3.8388 17.8271 3.67871 18.2482C3.58473 18.4955 3.52441 18.7657 3.36914 19.4982C3.24172 20.1 3.20412 21.3117 3.2041 21.7951C3.2041 22.3222 2.76715 22.75 2.22754 22.7502C1.68781 22.7502 1.25 22.3223 1.25 21.7951C1.25002 21.3235 1.29744 19.8567 1.4707 19.0392C1.60562 18.4023 1.6948 17.9827 1.84668 17.5832C2.08918 16.9454 2.44866 16.3548 2.90723 15.8381C3.1941 15.5148 3.53006 15.2326 4.0459 14.8L6.81152 12.4807ZM15.8105 12.5822C16.1622 12.1824 16.78 12.1372 17.1895 12.4807L19.9541 14.8C20.47 15.2326 20.8069 15.5148 21.0938 15.8381C21.5523 16.3548 21.9118 16.9454 22.1543 17.5832C22.3062 17.9827 22.41 18.4735 22.5449 19.1105C22.7182 19.9282 22.75 21.324 22.75 21.7951C22.75 22.3223 22.3122 22.7502 21.7725 22.7502C21.2329 22.75 20.7959 22.3222 20.7959 21.7951C20.7959 21.3112 20.7583 20.0998 20.6309 19.4982C20.4756 18.7658 20.4162 18.4955 20.3223 18.2482C20.1622 17.8271 19.9231 17.4339 19.6162 17.0881C19.4352 16.8842 19.2157 16.6968 18.625 16.2014L15.916 13.9289C15.5065 13.5854 15.4589 12.9822 15.8105 12.5822Z" fill="currentColor" />
    <path d="M12 1.25C13.8706 1.25 15.5248 1.72781 16.7344 2.55176C17.7474 3.24191 18.4762 4.20108 18.6875 5.32324C20.1522 5.63872 21.25 6.94098 21.25 8.5C21.25 9.17894 21.0414 9.80988 20.6855 10.3311C21.0391 10.7935 21.25 11.3721 21.25 12C21.25 13.5188 20.0188 14.75 18.5 14.75C17.724 14.75 17.0244 14.4272 16.5244 13.9102C16.0973 14.7071 15.5007 15.3876 14.7803 15.8818L15.8779 19.1279C16.0601 19.6667 16.1954 20.1598 16.2363 20.5938C16.2775 21.0301 16.2331 21.5026 15.9453 21.9062C15.6575 22.3099 15.2237 22.5087 14.79 22.6133C14.3586 22.7173 13.8353 22.75 13.2432 22.75H10.7568C10.1647 22.75 9.64139 22.7173 9.20996 22.6133C8.77633 22.5087 8.34251 22.3099 8.05469 21.9063C7.76691 21.5027 7.72152 21.0301 7.7627 20.5938C7.80365 20.1599 7.93895 19.6666 8.12109 19.1279L9.21875 15.8818C8.49833 15.3876 7.90163 14.7071 7.47461 13.9102C6.97464 14.4269 6.2758 14.75 5.5 14.75C3.98122 14.75 2.75 13.5188 2.75 12C2.75 11.3721 2.96086 10.7935 3.31445 10.3311C2.95861 9.80988 2.75 9.17894 2.75 8.5C2.75 6.94098 3.84781 5.63872 5.3125 5.32324C5.52376 4.20108 6.25259 3.24191 7.26562 2.55176C8.47518 1.72781 10.1294 1.25 12 1.25ZM13.9971 7.15723C13.9766 7.15648 13.9439 7.15677 13.6074 7.48828C13.3207 7.7707 12.8251 8.25 12 8.25C11.1749 8.25 10.6793 7.77072 10.3926 7.48828C10.0561 7.15677 10.0233 7.15647 10.0029 7.15723L10 7.1582C9.58047 7.1582 9.15114 7.45574 8.78711 8.24609C8.43335 9.01422 8.25001 10.0491 8.25 11C8.25 13.4235 10.0013 15.25 12 15.25C13.9987 15.25 15.75 13.4235 15.75 11C15.75 10.0491 15.5667 9.01424 15.2129 8.24609C14.8488 7.45568 14.4194 7.1582 14 7.1582L13.9971 7.15723Z" fill="currentColor" />
</svg>