<svg xmlns="http://www.w3.org/2000/svg" width="24" height="24" viewBox="0 0 24 24" fill="none">
    <g opacity="0.4">
        <path fill-rule="evenodd" clip-rule="evenodd" d="M19.967 13.4239C20.6501 12.7358 21.2018 12.1802 21.6019 11.6896C22.0168 11.1809 22.3214 10.6824 22.4506 10.0949C22.5683 9.55905 22.5669 9.00318 22.4467 8.46791C22.3148 7.88084 22.0076 7.38387 21.5902 6.87709C21.185 6.38505 20.6262 5.82745 19.9333 5.1361L19.9096 5.11245L19.7185 4.92138L19.5268 4.72963L19.2 4.40386L18.8734 4.07827L18.8412 4.04612C18.1529 3.35931 17.5971 2.80465 17.1068 2.40248C16.6 1.98672 16.103 1.68094 15.517 1.54995" fill="currentColor" />
        <path d="M13.8871 1.54897C14.424 1.42994 14.9803 1.42999 15.517 1.54995C16.103 1.68094 16.6 1.98672 17.1068 2.40248C17.5971 2.80465 18.1529 3.35931 18.8412 4.04612L18.8734 4.07827L19.2 4.40386L19.5268 4.72963L19.7185 4.92138L19.9096 5.11245L19.9333 5.1361C20.6262 5.82745 21.185 6.38505 21.5902 6.87709C22.0076 7.38387 22.3148 7.88084 22.4467 8.46791C22.5669 9.00318 22.5683 9.55905 22.4506 10.0949C22.3214 10.6824 22.0168 11.1809 21.6019 11.6896C21.2018 12.1802 20.6501 12.7358 19.967 13.4239L19.9291 13.4621L19.8906 13.5008C19.2035 14.1929 18.6488 14.7517 18.1586 15.1574C17.6501 15.5781 17.1506 15.887 16.5609 16.0197C16.0236 16.1405 15.4659 16.1415 14.9281 16.0226C14.3381 15.892 13.8374 15.585 13.3275 15.1662C12.8351 14.7616 12.2774 14.204 11.5864 13.5129L11.5512 13.4777L10.515 12.4415L10.4863 12.4129C9.79347 11.72 9.23469 11.1613 8.82948 10.6681C8.41121 10.159 8.10388 9.65949 7.97304 9.07045C7.85336 8.53148 7.85473 7.97236 7.97597 7.43373C8.10851 6.84523 8.4167 6.34678 8.83632 5.83901C9.24291 5.34701 9.80325 4.78985 10.498 4.09899L10.5268 4.07045L10.5604 4.03702C11.2489 3.35234 11.8049 2.79953 12.2953 2.39858C12.8029 1.98369 13.3008 1.67897 13.8871 1.54897Z" fill="currentColor" />
    </g>
    <path d="M15.2123 5.79041L18.2123 8.79041" stroke="currentColor" stroke-width="2" stroke-linecap="round" stroke-linejoin="round" />
    <path d="M10.3334 18.2463L12.4796 16.0865C12.1352 15.7991 11.7684 15.4521 11.3766 15.0671C11.2074 14.9008 11.0334 14.7274 10.8546 14.5487C10.8329 14.527 10.8111 14.5052 10.7893 14.4834C10.7696 14.4637 10.7498 14.4439 10.73 14.4241L10.6674 14.3615L9.63125 13.3253L9.55836 13.2525C9.35405 13.0482 9.15592 12.8501 8.96685 12.6582C8.58227 12.2679 8.23442 11.9025 7.94442 11.559L2.88809 16.5148L2.80085 16.6002C2.29423 17.0957 1.89321 17.4879 1.67715 18.0021C1.46104 18.5166 1.46156 19.0776 1.46223 19.7866L1.46231 19.9074V21.7902C1.46231 22.2044 1.79809 22.5402 2.21231 22.5402H5.75332C6.16754 22.5402 6.50332 22.2044 6.50332 21.7902V20.5041H7.77774C8.19178 20.5039 8.52772 20.1682 8.52774 19.7541V18.4679H9.80117C10.0009 18.4679 10.1926 18.3879 10.3334 18.2463Z" fill="currentColor" />
</svg>