<svg xmlns="http://www.w3.org/2000/svg" width="24" height="24" viewBox="0 0 24 24" fill="none">
    <path fill-rule="evenodd" clip-rule="evenodd" d="M5.03349 6.44877L1.29167 2.70696C0.901148 2.31643 0.901148 1.68342 1.29167 1.29289C1.6822 0.902369 2.31521 0.902369 2.70574 1.29289L22.7057 21.2929C23.0963 21.6834 23.0963 22.3164 22.7057 22.707C22.3152 23.0975 21.6822 23.0975 21.2917 22.707L20.5686 21.9838C19.9556 22.3507 19.2478 22.5338 18.4235 22.6312C17.4193 22.7499 16.1499 22.7499 14.5478 22.7499H9.44958L9.15373 22.7499C7.69017 22.7495 6.51551 22.7425 5.57395 22.6312C4.54298 22.5094 3.69428 22.2535 2.98534 21.6717C2.74483 21.4743 2.52429 21.2538 2.32691 21.0133C1.74509 20.3043 1.48925 19.4556 1.36738 18.4247C1.24868 17.4205 1.24869 16.1511 1.2487 14.5488V14.451C1.24869 12.8487 1.24868 11.5794 1.36738 10.5752C1.48925 9.5442 1.74509 8.6955 2.32691 7.98656C2.52429 7.74605 2.74483 7.52551 2.98534 7.32812C3.56638 6.85128 4.24129 6.59339 5.03349 6.44877ZM14.5846 15.9999L16.5846 17.9999L6.9987 17.9999C6.44642 17.9999 5.9987 17.5522 5.9987 16.9999C5.9987 16.4476 6.44642 15.9999 6.9987 15.9999H14.5846ZM5.9987 11.9999C5.9987 11.4476 6.44642 10.9999 6.9987 10.9999H7.9987C8.55099 10.9999 8.9987 11.4476 8.9987 11.9999C8.9987 12.5522 8.55099 12.9999 7.9987 12.9999H6.9987C6.44642 12.9999 5.9987 12.5522 5.9987 11.9999Z" fill="currentColor" />
    <path opacity="0.4" fill-rule="evenodd" clip-rule="evenodd" d="M14.997 2C14.997 1.44772 14.5493 1 13.997 1C13.4447 1 12.997 1.44772 12.997 2V2.9C12.997 2.95523 12.9522 2.99974 12.897 3.00246C11.8389 3.05455 10.997 3.92896 10.997 5V6.25H9.49878L15.0227 11.7739C15.1248 11.33 15.5221 11 15.997 11H16.997C17.5493 11 17.997 11.4477 17.997 12C17.997 12.5523 17.5493 13 16.997 13H16.2488L22.4916 19.2428C22.5502 18.9836 22.5944 18.7112 22.6283 18.4248C22.747 17.4206 22.747 16.1512 22.747 14.5491V14.451C22.747 12.8489 22.747 11.5794 22.6283 10.5753C22.5064 9.54428 22.2506 8.69558 21.6688 7.98664C21.4714 7.74612 21.2509 7.52558 21.0104 7.3282C20.3014 6.74638 19.4527 6.49054 18.4217 6.36868C17.4175 6.24998 16.1482 6.24999 14.5459 6.25H12.997V5.1C12.997 5.04477 13.0418 5.00026 13.097 4.99754C14.1551 4.94545 14.997 4.07104 14.997 3V2Z" fill="currentColor" />
    <path fill-rule="evenodd" clip-rule="evenodd" d="M15.0222 11.7753L16.247 13H16.997C17.5492 13 17.997 12.5523 17.997 12C17.997 11.4477 17.5492 11 16.997 11H15.997C15.5219 11 15.1242 11.3312 15.0222 11.7753Z" fill="currentColor" />
</svg>