<svg xmlns="http://www.w3.org/2000/svg" width="24" height="24" viewBox="0 0 24 24" fill="none">
    <path opacity="0.4" d="M6.99695 3.5C6.99695 2.94772 7.44466 2.5 7.99695 2.5C8.54923 2.5 8.99695 2.94772 8.99695 3.5V4H10.983H11.009H13.4969C14.0492 4 14.4969 4.44772 14.4969 5C14.4969 5.55228 14.0492 6 13.4969 6H11.7596C11.3541 7.21514 10.587 8.56351 9.70219 9.81968C9.65461 9.88723 9.60669 9.95451 9.55847 10.0215C9.53507 10.054 9.5107 10.086 9.48637 10.1181C9.47553 10.1323 9.4653 10.1473 9.45511 10.1623C9.44676 10.1745 9.43841 10.1868 9.42973 10.1986C9.55569 10.337 9.67924 10.4653 9.79773 10.5811C10.1133 10.8892 10.336 11.0514 10.4442 11.1055C10.9382 11.3525 11.1385 11.9533 10.8915 12.4473C10.6445 12.9412 10.0437 13.1415 9.54968 12.8945C9.15791 12.6986 8.75563 12.3607 8.39929 12.0127C8.32751 11.9426 8.25637 11.8685 8.18388 11.793L8.1698 11.7783C7.38509 12.6862 6.55365 13.5181 5.75251 14.1754C5.7089 14.2112 5.66537 14.2465 5.62195 14.2812C5.19069 14.6263 4.56071 14.5563 4.2157 14.125C3.87069 13.6937 3.94069 13.0638 4.37195 12.7188C5.17667 12.075 6.05168 11.1919 6.87488 10.2109C6.30985 9.42565 5.79578 8.55745 5.54871 7.81641C5.37409 7.29256 5.65679 6.72652 6.18054 6.55176C6.70439 6.37714 7.27043 6.65984 7.44519 7.18359C7.56622 7.54668 7.82045 8.02673 8.1532 8.54004C8.7779 7.6395 9.28307 6.76587 9.61707 6H3.49695C2.94466 6 2.49695 5.55228 2.49695 5C2.49695 4.44772 2.94466 4 3.49695 4H6.99695V3.5Z" fill="currentColor" />
    <path d="M16.9159 14.6836L17.2661 15.5005H14.7279L15.078 14.6836C15.4842 13.7358 15.7466 13.1288 15.9794 12.7461C15.9826 12.7408 15.986 12.7357 15.9893 12.7307C15.9919 12.7267 15.9945 12.7227 15.997 12.7188L16.0047 12.7307C16.008 12.7357 16.0113 12.7408 16.0146 12.7461C16.2474 13.1288 16.5097 13.7358 16.9159 14.6836ZM12.4159 20.8945L13.8707 17.5005H18.1233L19.578 20.8945C19.7956 21.4019 20.3831 21.6371 20.8905 21.4199C21.3982 21.2024 21.6335 20.6141 21.4159 20.1064L18.7548 13.8955L18.735 13.8493C18.3637 12.983 18.0419 12.2319 17.7226 11.707C17.4145 11.2007 16.8926 10.5391 15.997 10.5391C15.1014 10.5391 14.5794 11.2007 14.2714 11.707C13.9521 12.2319 13.6302 12.9829 13.259 13.8493L13.2392 13.8955L10.578 20.1064C10.3605 20.6141 10.5958 21.2024 11.1034 21.4199C11.6109 21.6371 12.1984 21.4019 12.4159 20.8945Z" fill="currentColor" />
</svg>