<svg xmlns="http://www.w3.org/2000/svg" width="24" height="24" viewBox="0 0 24 24" fill="none">
    <path d="M21.3349 17.252C21.3067 17.2506 21.2768 17.2502 21.2461 17.2501L21.1777 17.25H19.7461H4.24607H2.81443L2.74607 17.2501C2.71537 17.2502 2.68549 17.2506 2.65721 17.252C2.35485 17.2664 2.05184 17.3545 1.79978 17.5225C1.58318 17.6669 1.36014 17.9049 1.2783 18.2363L1.25193 18.3848C1.24554 18.4447 1.24588 18.5071 1.24603 18.5364L1.24607 18.5617C1.24603 18.6508 1.24599 18.75 1.25584 18.8418C1.32195 19.4579 1.71206 19.9308 2.16599 20.2334C2.62433 20.539 3.20511 20.7169 3.81736 20.7461C3.9013 20.7501 3.99582 20.7501 4.12996 20.75L4.17771 20.75H19.8144L19.8622 20.75C19.9963 20.7501 20.0908 20.7501 20.1748 20.7461C20.787 20.7169 21.3678 20.539 21.8262 20.2334C22.2801 19.9308 22.6702 19.4579 22.7363 18.8418C22.7462 18.75 22.7461 18.6508 22.7461 18.5617L22.7461 18.5459L22.7402 18.3848L22.7138 18.2363C22.632 17.9049 22.409 17.6669 22.1924 17.5225C21.9403 17.3545 21.6373 17.2664 21.3349 17.252Z" fill="currentColor" />
    <path opacity="0.4" fill-rule="evenodd" clip-rule="evenodd" d="M2.7461 16H21.2461V10V9.93551C21.2461 8.57249 21.2461 7.47329 21.1299 6.6084C21.0089 5.70829 20.7494 4.95055 20.1475 4.34863C19.5455 3.74672 18.7878 3.48723 17.8877 3.36621C17.0228 3.24995 15.9236 3.24997 14.5605 3.25H14.4961H9.4961H9.43165C8.06859 3.24997 6.96941 3.24995 6.10449 3.36621C5.20439 3.48723 4.44664 3.74672 3.84473 4.34863C3.24281 4.95055 2.98332 5.70829 2.86231 6.6084C2.74604 7.47331 2.74607 8.57249 2.74609 9.93555L2.7461 10V16Z" fill="currentColor" />
</svg>