<svg xmlns="http://www.w3.org/2000/svg" width="24" height="24" viewBox="0 0 24 24" fill="none">
    <path d="M21.3349 17.252C21.3067 17.2506 21.2768 17.2502 21.2461 17.2501L21.1777 17.25H19.7461H4.24607H2.81443L2.74607 17.2501C2.71537 17.2502 2.68549 17.2506 2.65721 17.252C2.35485 17.2664 2.05184 17.3545 1.79978 17.5225C1.58318 17.6669 1.36014 17.9049 1.2783 18.2363L1.25193 18.3848C1.24554 18.4447 1.24588 18.5071 1.24603 18.5364L1.24607 18.5617C1.24603 18.6508 1.24599 18.75 1.25584 18.8418C1.32195 19.4579 1.71206 19.9308 2.16599 20.2334C2.62433 20.539 3.20511 20.7169 3.81736 20.7461C3.9013 20.7501 3.99582 20.7501 4.12996 20.75L4.17771 20.75H19.8144L19.8622 20.75C19.9963 20.7501 20.0908 20.7501 20.1748 20.7461C20.787 20.7169 21.3678 20.539 21.8262 20.2334C22.2801 19.9308 22.6702 19.4579 22.7363 18.8418C22.7462 18.75 22.7461 18.6508 22.7461 18.5617L22.7461 18.5459L22.7402 18.3848L22.7138 18.2363C22.632 17.9049 22.409 17.6669 22.1924 17.5225C21.9403 17.3545 21.6373 17.2664 21.3349 17.252Z" fill="currentColor" />
    <path opacity="0.4" fill-rule="evenodd" clip-rule="evenodd" d="M2.7461 16H21.2461V10V9.93551C21.2461 8.57249 21.2461 7.47329 21.1299 6.6084C21.0089 5.70829 20.7494 4.95055 20.1475 4.34863C19.5455 3.74672 18.7878 3.48723 17.8877 3.36621C17.0228 3.24995 15.9236 3.24997 14.5605 3.25H14.4961H9.4961H9.43165C8.06859 3.24997 6.96941 3.24995 6.10449 3.36621C5.20439 3.48723 4.44664 3.74672 3.84473 4.34863C3.24281 4.95055 2.98332 5.70829 2.86231 6.6084C2.74604 7.47331 2.74607 8.57249 2.74609 9.93555L2.7461 10V16Z" fill="currentColor" />
    <path d="M16.4434 6.68061C16.2669 6.15734 15.7 5.87627 15.1768 6.05268C14.3915 6.31754 13.6436 6.82107 12.9922 7.36518C12.3313 7.91718 11.7148 8.55688 11.1924 9.15326C10.8412 9.55415 10.5281 9.94294 10.2656 10.2812C10.0328 10.0307 9.80271 9.83918 9.5791 9.69721C9.32876 9.53826 9.09951 9.44628 8.90918 9.39447C8.81465 9.36875 8.73094 9.35353 8.66113 9.34467C8.62636 9.34026 8.59498 9.33757 8.56738 9.33588C8.55376 9.33504 8.54106 9.33429 8.5293 9.33393C8.52649 9.33384 8.5321 9.33413 8.5293 9.33393C8.52615 9.3337 8.51461 9.33299 8.51172 9.33295H8.49609C7.94392 9.33295 7.49627 9.78081 7.49609 10.3329C7.49609 10.8499 7.88846 11.2748 8.3916 11.3271C8.40754 11.3326 8.44751 11.348 8.50684 11.3857C8.6591 11.4824 8.98707 11.7538 9.36035 12.4648C9.52434 12.7771 9.84108 12.9804 10.1934 12.999C10.5456 13.0174 10.8823 12.8489 11.0781 12.5556L11.083 12.5468L11.1035 12.5165C11.1224 12.4889 11.1515 12.4468 11.1895 12.3925C11.2656 12.2836 11.379 12.1252 11.5225 11.9316C11.8102 11.5433 12.2179 11.0188 12.6973 10.4716C13.1784 9.92231 13.7195 9.36385 14.2744 8.90033C14.8389 8.42887 15.3654 8.09903 15.8154 7.94721C16.3387 7.77071 16.6198 7.20388 16.4434 6.68061Z" fill="currentColor" />
</svg>