<svg xmlns="http://www.w3.org/2000/svg" width="24" height="24" viewBox="0 0 24 24" fill="none">
    <path opacity="0.4" d="M22.7461 12C22.7461 17.9371 17.9332 22.75 11.9961 22.75C6.05903 22.75 1.24609 17.9371 1.24609 12C1.24609 6.06294 6.05903 1.25 11.9961 1.25C17.9332 1.25 22.7461 6.06294 22.7461 12Z" fill="currentColor" />
    <path d="M9.24219 9.42285C9.20357 9.04488 8.88426 8.75 8.49609 8.75C8.10793 8.75 7.78862 9.04488 7.75 9.42285L7.74219 9.57715C7.70357 9.95512 7.38426 10.25 6.99609 10.25C6.58188 10.25 6.24609 9.91421 6.24609 9.5C6.24609 8.25736 7.25345 7.25 8.49609 7.25C9.73873 7.25 10.7461 8.25736 10.7461 9.5C10.7461 9.91421 10.4103 10.25 9.99609 10.25C9.60793 10.25 9.28862 9.95512 9.25 9.57715L9.24219 9.42285ZM16.2422 9.42285C16.2036 9.04488 15.8843 8.75 15.4961 8.75C15.1079 8.75 14.7886 9.04488 14.75 9.42285L14.7422 9.57715C14.7036 9.95512 14.3843 10.25 13.9961 10.25C13.5819 10.25 13.2461 9.91421 13.2461 9.5C13.2461 8.25736 14.2535 7.25 15.4961 7.25C16.7387 7.25 17.7461 8.25736 17.7461 9.5C17.7461 9.91421 17.4103 10.25 16.9961 10.25C16.6079 10.25 16.2886 9.95512 16.25 9.57715L16.2422 9.42285Z" fill="currentColor" />
    <path d="M13.9955 13.25L14.0541 13.25C14.4819 13.2498 14.9164 13.2497 15.2757 13.3291C15.7244 13.4284 16.1084 13.6588 16.3744 14.1075C16.6049 14.4964 16.6829 14.8923 16.5863 15.3194C16.5129 15.6433 16.3373 15.9632 16.1902 16.2313L16.1644 16.2784C15.3589 17.7497 13.7945 18.75 11.9955 18.75C10.1965 18.75 8.63204 17.7496 7.82653 16.2784L7.79743 16.2253C7.65085 15.9584 7.47649 15.641 7.40367 15.3194C7.30703 14.8923 7.38607 14.4964 7.61656 14.1075C7.88248 13.659 8.26571 13.4284 8.71422 13.3291C9.07331 13.2497 9.50788 13.2498 9.93553 13.25L9.99547 13.25H13.9955Z" fill="currentColor" />
</svg>