<svg xmlns="http://www.w3.org/2000/svg" width="24" height="24" viewBox="0 0 24 24" fill="none">
    <path opacity="0.4" d="M18.7455 12C18.7455 15.5085 17.6615 18.726 15.8578 21.1679L15.8134 21.2281C15.4354 21.7406 15.1272 22.1585 14.5394 22.455C13.9518 22.7514 13.35 22.7508 12.6033 22.75L12.4877 22.75H11.5033L11.3877 22.75C10.641 22.7508 10.0391 22.7514 9.45155 22.455C8.86382 22.1585 8.55556 21.7406 8.17761 21.2281L8.13319 21.1679C6.3295 18.726 5.2455 15.5085 5.2455 12C5.2455 8.49142 6.3295 5.27393 8.13319 2.832L8.17761 2.77182C8.55556 2.25939 8.86382 1.84145 9.45155 1.54489C10.0391 1.24852 10.641 1.24913 11.3877 1.24989L11.5033 1.24997H12.4877L12.6033 1.24989C13.35 1.24913 13.9519 1.24852 14.5394 1.54489C15.1272 1.84145 15.4354 2.25939 15.8134 2.77182L15.8578 2.832C17.6615 5.27393 18.7455 8.49142 18.7455 12Z" fill="currentColor" />
</svg>