<svg xmlns="http://www.w3.org/2000/svg" width="24" height="24" viewBox="0 0 24 24" fill="none">
    <path opacity="0.4" d="M20.501 20.5C20.3309 20.8112 20.1197 21.0971 19.8584 21.3584C19.1101 22.1067 18.1615 22.439 16.9893 22.5967C15.8501 22.7498 14.3942 22.75 12.5566 22.75H11.4434C9.60569 22.75 8.14992 22.7498 7.01074 22.5967C5.83843 22.439 4.88991 22.1067 4.1416 21.3584C3.3933 20.6101 3.06096 19.6616 2.90332 18.4893C2.75018 17.3501 2.74997 15.8942 2.75 14.0566V9.94336C2.75 8.10569 2.75015 6.64992 2.90332 5.51074C3.00593 4.7477 3.18193 4.07905 3.49902 3.49902L20.501 20.5ZM12.5566 1.25C14.3943 1.24998 15.8501 1.25017 16.9893 1.40332C18.1615 1.56097 19.1101 1.89331 19.8584 2.6416C20.6067 3.38991 20.939 4.33845 21.0967 5.51074C21.2498 6.6499 21.25 8.10573 21.25 9.94336V14.0566C21.25 15.4681 21.2501 16.6541 21.1807 17.6445L5.36035 1.82422C5.85221 1.61401 6.40134 1.48527 7.01074 1.40332C8.14989 1.25017 9.60575 1.24998 11.4434 1.25H12.5566Z" fill="currentColor" />
    <path fill-rule="evenodd" clip-rule="evenodd" d="M2.70711 1.29289C2.31658 0.90237 1.68342 0.90237 1.29289 1.29289C0.90237 1.68342 0.90237 2.31658 1.29289 2.70711L9.83579 11.25H8.5C8.08579 11.25 7.75 11.5858 7.75 12C7.75 12.4142 8.08579 12.75 8.5 12.75H11.3358L14.8358 16.25H8.5C8.08579 16.25 7.75 16.5858 7.75 17C7.75 17.4142 8.08579 17.75 8.5 17.75H16.3358L21.2929 22.7071C21.6834 23.0976 22.3166 23.0976 22.7071 22.7071C23.0976 22.3166 23.0976 21.6834 22.7071 21.2929L2.70711 1.29289Z" fill="currentColor" />
</svg>