<svg xmlns="http://www.w3.org/2000/svg" width="24" height="24" viewBox="0 0 24 24" fill="none">
    <path d="M15.9998 8.75C16.414 8.75 16.7498 8.41421 16.7498 8C16.7498 7.58579 16.414 7.25 15.9998 7.25H15.4656C15.5783 7.07991 15.6863 6.90361 15.782 6.72559C16.1482 6.04486 16.4377 5.15956 16.1024 4.22363C15.9725 3.86155 15.6968 3.5083 15.4227 3.21582C15.1325 2.90624 14.7767 2.59433 14.4041 2.31641C14.032 2.03882 13.6268 1.78218 13.2342 1.5918C12.8612 1.41098 12.4197 1.25 11.9998 1.25C11.5801 1.25005 11.1393 1.41103 10.7664 1.5918C10.3737 1.7822 9.96777 2.03873 9.59555 2.31641C9.22306 2.59431 8.8671 2.90628 8.577 3.21582C8.30291 3.50828 8.02809 3.8616 7.89828 4.22363C7.56283 5.15956 7.85144 6.04484 8.21762 6.72559C8.31342 6.90363 8.4223 7.07988 8.535 7.25H7.99985C7.58572 7.2501 7.24985 7.58585 7.24985 8C7.24985 8.41415 7.58572 8.7499 7.99985 8.75H15.9998ZM4.81821 8.22754C5.22003 8.32796 5.62693 8.08347 5.72739 7.68164C5.82773 7.27985 5.58327 6.87291 5.18149 6.77246L3.18149 6.27246C2.77977 6.17226 2.37274 6.41665 2.27231 6.81836C2.17203 7.22012 2.41645 7.6271 2.81821 7.72754L4.81821 8.22754ZM18.2723 7.68164C18.3727 8.08335 18.7797 8.32774 19.1815 8.22754L21.1815 7.72754C21.5832 7.62709 21.8277 7.22014 21.7274 6.81836C21.6269 6.41653 21.22 6.17204 20.8182 6.27246L18.8182 6.77246C18.4164 6.8729 18.172 7.27988 18.2723 7.68164ZM2.27231 11.1816C2.37274 11.5834 2.77977 11.8277 3.18149 11.7275L5.18149 11.2275C5.58327 11.1271 5.82772 10.7201 5.72739 10.3184C5.62693 9.91653 5.22003 9.67204 4.81821 9.77246L2.81821 10.2725C2.41645 10.3729 2.17202 10.7799 2.27231 11.1816ZM20.8182 11.7275C21.22 11.828 21.6269 11.5835 21.7274 11.1816C21.8277 10.7799 21.5832 10.3729 21.1815 10.2725L19.1815 9.77246C18.7797 9.67226 18.3727 9.91665 18.2723 10.3184C18.172 10.7201 18.4164 11.1271 18.8182 11.2275L20.8182 11.7275ZM18.9998 22.75C19.414 22.75 19.7498 22.4142 19.7498 22C19.7498 21.5858 19.414 21.25 18.9998 21.25H4.99985C4.58572 21.2501 4.24985 21.5858 4.24985 22C4.24985 22.4142 4.58572 22.7499 4.99985 22.75H18.9998Z" fill="currentColor" />
    <path opacity="0.4" d="M15.8485 12.625C15.973 12.625 16.0676 12.5122 16.0457 12.3896L15.6629 10.2471C15.6373 10.1042 15.5131 10.0002 15.368 10H8.63169C8.48655 10.0002 8.36238 10.1042 8.33677 10.2471L7.95396 12.3896C7.93207 12.5122 8.0267 12.625 8.15122 12.625H15.8485ZM16.5633 16.625C16.6877 16.6248 16.7815 16.5121 16.7596 16.3896L16.3846 14.29C16.3676 14.1948 16.2851 14.1252 16.1883 14.125H7.81138C7.71461 14.1251 7.63211 14.1948 7.61509 14.29L7.24009 16.3896C7.21822 16.5121 7.312 16.6248 7.43638 16.625H16.5633ZM16.9998 22.75C17.2218 22.75 17.4325 22.6516 17.575 22.4814C17.7175 22.3113 17.7771 22.0866 17.7381 21.8682L17.0995 18.29C17.0824 18.1947 16.9991 18.125 16.9022 18.125H7.09751C7.00062 18.125 6.91728 18.1947 6.90025 18.29L6.26158 21.8682C6.22256 22.0867 6.2822 22.3113 6.42466 22.4814C6.56716 22.6516 6.77788 22.75 6.99986 22.75H16.9998Z" fill="currentColor" />
</svg>