<svg xmlns="http://www.w3.org/2000/svg" width="24" height="24" viewBox="0 0 24 24" fill="none">
    <path d="M8.99548 11C9.54777 11 9.99548 11.4477 9.99548 12C9.99548 12.5523 9.54777 13 8.99548 13H2.99548C2.4432 13 1.99548 12.5523 1.99548 12C1.99548 11.4477 2.4432 11 2.99548 11H8.99548Z" fill="currentColor" />
    <path d="M20.9955 11C21.5478 11 21.9955 11.4477 21.9955 12C21.9955 12.5523 21.5478 13 20.9955 13H14.9955C14.4432 13 13.9955 12.5523 13.9955 12C13.9955 11.4477 14.4432 11 14.9955 11H20.9955Z" fill="currentColor" />
    <path opacity="0.4" d="M5.49548 4C6.04777 4 6.49548 4.44772 6.49548 5C6.49548 5.55228 6.04777 6 5.49548 6H2.99548C2.4432 6 1.99548 5.55228 1.99548 5C1.99548 4.44772 2.4432 4 2.99548 4H5.49548Z" fill="currentColor" />
    <path opacity="0.4" d="M13.2455 4C13.7978 4 14.2455 4.44772 14.2455 5C14.2455 5.55228 13.7978 6 13.2455 6H10.7455C10.1932 6 9.74548 5.55228 9.74548 5C9.74548 4.44772 10.1932 4 10.7455 4H13.2455Z" fill="currentColor" />
    <path opacity="0.4" d="M20.9955 4C21.5478 4 21.9955 4.44772 21.9955 5C21.9955 5.55228 21.5478 6 20.9955 6H18.4955C17.9432 6 17.4955 5.55228 17.4955 5C17.4955 4.44772 17.9432 4 18.4955 4H20.9955Z" fill="currentColor" />
    <path opacity="0.4" d="M20.9955 18C21.5478 18 21.9955 18.4477 21.9955 19C21.9955 19.5523 21.5478 20 20.9955 20H2.99548C2.4432 20 1.99548 19.5523 1.99548 19C1.99548 18.4477 2.4432 18 2.99548 18H20.9955Z" fill="currentColor" />
</svg>