<svg xmlns="http://www.w3.org/2000/svg" width="24" height="24" viewBox="0 0 24 24" fill="none">
    <path opacity="0.4" d="M11.0744 2.01649C11.6173 1.91722 12.1377 2.27638 12.2375 2.81922C12.337 3.36233 11.9778 3.88359 11.4347 3.98329C8.15711 4.58369 5.31646 7.38254 4.34099 9.86317C3.84843 11.1159 3.93478 12 4.2824 12.4784C4.55162 12.8487 5.1863 13.251 6.57634 13.2255C6.60399 12.171 6.92721 11.1185 7.4074 10.1483C8.06013 8.82965 9.04046 7.5832 10.1437 6.55457C11.2449 5.52787 12.5104 4.67877 13.7619 4.19227C14.9893 3.71516 16.365 3.52916 17.5461 4.0995C18.4948 4.55781 19.0729 5.45583 19.2101 6.49012C19.3459 7.5136 19.0567 8.64934 18.3635 9.73133C17.0002 11.8588 14.033 13.8769 9.00701 14.9237C9.40224 15.5497 10.1155 16.1418 11.3361 16.6034C13.037 17.2467 14.4532 17.5161 15.6056 17.5487C16.1577 17.5644 16.593 18.025 16.5773 18.577C16.5616 19.1291 16.101 19.5644 15.549 19.5487C14.1334 19.5086 12.4964 19.1797 10.6291 18.4735C8.70317 17.7452 7.47474 16.6147 6.91911 15.2157C4.99915 15.3098 3.5109 14.8181 2.66521 13.6552C1.72228 12.3581 1.88738 10.6369 2.47966 9.13075C3.67432 6.09293 7.0301 2.75733 11.0744 2.01649ZM16.676 5.90028C16.2115 5.676 15.4749 5.67233 14.4865 6.05653C13.5222 6.43136 12.4678 7.12263 11.508 8.01747C10.5501 8.9105 9.72783 9.96748 9.19939 11.035C8.86334 11.7139 8.66094 12.3662 8.59685 12.9667C13.3207 11.9835 15.7091 10.1655 16.6789 8.65223C17.1728 7.88144 17.288 7.21476 17.2267 6.75282C17.1668 6.30214 16.9463 6.03084 16.676 5.90028Z" fill="currentColor" />
    <path d="M17.5996 12.7708C18.4942 12.381 19.6182 12.1675 20.5479 12.5891C21.3819 12.9675 21.846 13.7224 21.9639 14.5315C22.0793 15.3241 21.8738 16.1753 21.4151 16.927C20.6996 18.0994 19.3711 19.0527 17.4815 19.4046C17.7529 19.6494 18.081 19.9036 18.4776 20.1624C18.9399 20.4642 19.0701 21.0837 18.7686 21.5462C18.4667 22.0087 17.8463 22.1391 17.3838 21.8372C15.7275 20.756 14.7491 19.5432 14.4121 18.2522C14.0702 16.9418 14.4383 15.7392 15.0869 14.805C15.7259 13.8848 16.662 13.1794 17.5996 12.7708ZM19.7217 14.4104C19.5492 14.3323 19.0809 14.3064 18.3985 14.6038C17.7586 14.8826 17.1321 15.3658 16.7295 15.9456C16.381 16.4475 16.2219 16.9839 16.3047 17.5364C18.2228 17.4232 19.2668 16.6082 19.708 15.885C19.9648 15.4642 20.0231 15.0784 19.9854 14.8196C19.9501 14.5774 19.843 14.4655 19.7217 14.4104Z" fill="currentColor" />
</svg>