<svg xmlns="http://www.w3.org/2000/svg" width="24" height="24" viewBox="0 0 24 24" fill="none">
    <path d="M1.28905 1.29302C1.67957 0.902491 2.31259 0.902491 2.70311 1.29302L22.7031 21.293C23.0936 21.6835 23.0936 22.3166 22.7031 22.7071C22.3126 23.0976 21.6796 23.0976 21.289 22.7071L1.28905 2.70708C0.898524 2.31655 0.898524 1.68354 1.28905 1.29302Z" fill="currentColor" />
    <path d="M0.996094 12.0001C0.996094 8.68635 3.68239 6.00006 6.99609 6.00006C7.54838 6.00006 7.99609 6.44778 7.99609 7.00006C7.99609 7.55235 7.54838 8.00006 6.99609 8.00006C4.78695 8.00006 2.99609 9.79092 2.99609 12.0001C2.99609 14.2092 4.78695 16.0001 6.99609 16.0001H8.99609C9.54838 16.0001 9.99609 16.4478 9.99609 17.0001C9.99609 17.5523 9.54838 18.0001 8.99609 18.0001H6.99609C3.68238 18.0001 0.996094 15.3138 0.996094 12.0001Z" fill="currentColor" />
    <path opacity="0.4" d="M20.9961 12.0001C20.9961 9.79092 19.2052 8.00006 16.9961 8.00006H13.4961C12.9438 8.00006 12.4961 7.55235 12.4961 7.00006C12.4961 6.44778 12.9438 6.00006 13.4961 6.00006H16.9961C20.3098 6.00006 22.9961 8.68635 22.9961 12.0001C22.9961 13.3496 22.5492 14.5978 21.7959 15.6006C21.4642 16.0422 20.8371 16.1315 20.3955 15.7999C19.954 15.4682 19.8656 14.841 20.1973 14.3995C20.6993 13.7311 20.9961 12.9016 20.9961 12.0001Z" fill="currentColor" />
    <path d="M16.9961 16.0001C17.5484 16.0001 17.9961 16.4478 17.9961 17.0001C17.9961 17.5523 17.5484 18.0001 16.9961 18.0001H14.9961C14.4438 18.0001 13.9961 17.5523 13.9961 17.0001C13.9961 16.4478 14.4438 16.0001 14.9961 16.0001H16.9961Z" fill="currentColor" />
    <path d="M11.9961 11.0001C12.5484 11.0001 12.9961 11.4478 12.9961 12.0001C12.9961 12.5523 12.5484 13.0001 11.9961 13.0001H8.49609C7.94381 13.0001 7.49609 12.5523 7.49609 12.0001C7.49609 11.4478 7.94381 11.0001 8.49609 11.0001H11.9961Z" fill="currentColor" />
</svg>