<svg xmlns="http://www.w3.org/2000/svg" width="24" height="24" viewBox="0 0 24 24" fill="none">
    <path opacity="0.4" d="M20.9961 4C21.5484 4 21.9961 4.44772 21.9961 5C21.9961 5.55228 21.5484 6 20.9961 6H2.99609C2.44381 6 1.99609 5.55228 1.99609 5C1.99609 4.44772 2.44381 4 2.99609 4H20.9961Z" fill="currentColor" />
    <path opacity="0.4" d="M20.9961 10.9951C21.5484 10.9951 21.9961 11.4428 21.9961 11.9951C21.9961 12.5474 21.5484 12.9951 20.9961 12.9951H2.99609C2.44381 12.9951 1.99609 12.5474 1.99609 11.9951C1.99609 11.4428 2.44381 10.9951 2.99609 10.9951H20.9961Z" fill="currentColor" />
    <path opacity="0.4" d="M10.9961 18C11.5484 18 11.9961 18.4477 11.9961 19C11.9961 19.5523 11.5484 20 10.9961 20H2.99609C2.44381 20 1.99609 19.5523 1.99609 19C1.99609 18.4477 2.44381 18 2.99609 18H10.9961Z" fill="currentColor" />
    <path d="M20.9961 17.9902C21.5484 17.9902 21.9961 18.4379 21.9961 18.9902C21.9961 19.5425 21.5484 19.9902 20.9961 19.9902H14.9961C14.4438 19.9902 13.9961 19.5425 13.9961 18.9902C13.9961 18.4379 14.4438 17.9902 14.9961 17.9902H20.9961Z" fill="currentColor" />
</svg>