<svg xmlns="http://www.w3.org/2000/svg" width="24" height="24" viewBox="0 0 24 24" fill="none">
    <path opacity="0.4" d="M20.9961 3C21.5484 3 21.9961 3.44772 21.9961 4C21.9961 4.55228 21.5484 5 20.9961 5H9.99609C9.44381 5 8.99609 4.55228 8.99609 4C8.99609 3.44772 9.44381 3 9.99609 3H20.9961Z" fill="currentColor" />
    <path opacity="0.4" d="M20.9961 11C21.5484 11 21.9961 11.4477 21.9961 12C21.9961 12.5523 21.5484 13 20.9961 13H9.99609C9.44381 13 8.99609 12.5523 8.99609 12C8.99609 11.4477 9.44381 11 9.99609 11H20.9961Z" fill="currentColor" />
    <path opacity="0.4" d="M20.9961 19C21.5484 19 21.9961 19.4477 21.9961 20C21.9961 20.5523 21.5484 21 20.9961 21H9.99609C9.44381 21 8.99609 20.5523 8.99609 20C8.99609 19.4477 9.44381 19 9.99609 19H20.9961Z" fill="currentColor" />
    <path d="M2.28911 3.79289C2.67963 3.40237 3.31265 3.40237 3.70317 3.79289L6.70317 6.79289C7.0937 7.18342 7.0937 7.81643 6.70317 8.20696L3.70317 11.207C3.31265 11.5975 2.67963 11.5975 2.28911 11.207C1.89858 10.8164 1.89858 10.1834 2.28911 9.79289L4.58208 7.49992L2.28911 5.20696C1.89858 4.81643 1.89858 4.18342 2.28911 3.79289Z" fill="currentColor" />
    <path d="M2.28911 12.7929C2.67963 12.4024 3.31265 12.4024 3.70317 12.7929L6.70317 15.7929C7.0937 16.1834 7.0937 16.8164 6.70317 17.207L3.70317 20.207C3.31265 20.5975 2.67963 20.5975 2.28911 20.207C1.89858 19.8164 1.89858 19.1834 2.28911 18.7929L4.58208 16.4999L2.28911 14.207C1.89858 13.8164 1.89858 13.1834 2.28911 12.7929Z" fill="currentColor" />
</svg>