<svg xmlns="http://www.w3.org/2000/svg" width="24" height="24" viewBox="0 0 24 24" fill="none">
    <path opacity="0.4" d="M10.9961 6V3C10.9961 2.44772 11.4438 2 11.9961 2C12.5484 2 12.9961 2.44772 12.9961 3V6C12.9961 6.55228 12.5484 7 11.9961 7C11.4438 7 10.9961 6.55228 10.9961 6Z" fill="currentColor" />
    <path opacity="0.4" d="M10.9961 21V18C10.9961 17.4477 11.4438 17 11.9961 17C12.5484 17 12.9961 17.4477 12.9961 18V21C12.9961 21.5523 12.5484 22 11.9961 22C11.4438 22 10.9961 21.5523 10.9961 21Z" fill="currentColor" />
    <path opacity="0.4" d="M20.9961 11C21.5484 11 21.9961 11.4477 21.9961 12C21.9961 12.5523 21.5484 13 20.9961 13H17.9961C17.4438 13 16.9961 12.5523 16.9961 12C16.9961 11.4477 17.4438 11 17.9961 11H20.9961Z" fill="currentColor" />
    <path opacity="0.4" d="M5.99609 11C6.54838 11 6.99609 11.4477 6.99609 12C6.99609 12.5523 6.54838 13 5.99609 13H2.99609C2.44381 13 1.99609 12.5523 1.99609 12C1.99609 11.4477 2.44381 11 2.99609 11H5.99609Z" fill="currentColor" />
    <path d="M17.6523 4.92968C18.0428 4.53919 18.6759 4.53926 19.0664 4.92968C19.4569 5.32021 19.4569 5.95322 19.0664 6.34375L16.9453 8.46484C16.5548 8.85537 15.9218 8.85536 15.5312 8.46484C15.1408 8.07431 15.1408 7.44127 15.5312 7.05078L17.6523 4.92968Z" fill="currentColor" />
    <path d="M7.04687 15.5351C7.43736 15.1447 8.0704 15.1447 8.46093 15.5351C8.85146 15.9257 8.85146 16.5587 8.46093 16.9492L6.33984 19.0703C5.94931 19.4608 5.3163 19.4608 4.92578 19.0703C4.53536 18.6798 4.53529 18.0467 4.92578 17.6562L7.04687 15.5351Z" fill="currentColor" />
    <path d="M15.5312 15.5352C15.9218 15.1447 16.5548 15.1447 16.9453 15.5352L19.0664 17.6563C19.4569 18.0468 19.4569 18.6798 19.0664 19.0704C18.6759 19.4609 18.0429 19.4609 17.6523 19.0704L15.5312 16.9493C15.1407 16.5587 15.1407 15.9257 15.5312 15.5352Z" fill="currentColor" />
    <path d="M4.92577 4.92973C5.31629 4.53921 5.9493 4.53921 6.33983 4.92973L8.46092 7.05083C8.85145 7.44135 8.85145 8.07437 8.46092 8.46489C8.0704 8.85541 7.43738 8.85541 7.04686 8.46489L4.92577 6.3438C4.53524 5.95327 4.53524 5.32026 4.92577 4.92973Z" fill="currentColor" />
</svg>