<svg xmlns="http://www.w3.org/2000/svg" width="24" height="24" viewBox="0 0 24 24" fill="none">
    <path opacity="0.4" d="M17.9963 12C17.9963 8.68629 15.31 6 11.9963 6C8.68263 6 5.99634 8.68629 5.99634 12C5.99634 15.3137 8.68263 18 11.9963 18C15.31 18 17.9963 15.3137 17.9963 12ZM19.9963 12C19.9963 16.4183 16.4146 20 11.9963 20C7.57806 20 3.99634 16.4183 3.99634 12C3.99634 7.58172 7.57806 4 11.9963 4C16.4146 4 19.9963 7.58172 19.9963 12Z" fill="currentColor" />
    <path fill-rule="evenodd" clip-rule="evenodd" d="M19.9957 12C19.9957 12.3387 19.9747 12.6724 19.9338 13H21.9957C22.548 13 22.9957 12.5523 22.9957 12C22.9957 11.4477 22.548 11 21.9957 11H19.9338C19.9747 11.3276 19.9957 11.6613 19.9957 12Z" fill="currentColor" />
    <path fill-rule="evenodd" clip-rule="evenodd" d="M3.99634 12C3.99634 11.6613 4.01738 11.3276 4.05823 11H1.99634C1.44405 11 0.996338 11.4477 0.996338 12C0.996338 12.5523 1.44405 13 1.99634 13H4.05823C4.01738 12.6724 3.99634 12.3387 3.99634 12Z" fill="currentColor" />
    <path fill-rule="evenodd" clip-rule="evenodd" d="M11.9963 19.9999C11.6577 19.9999 11.3239 19.9788 10.9963 19.938L10.9963 21.9999C10.9963 22.5522 11.4441 22.9999 11.9963 22.9999C12.5486 22.9999 12.9963 22.5522 12.9963 21.9999L12.9963 19.938C12.6687 19.9788 12.335 19.9999 11.9963 19.9999Z" fill="currentColor" />
    <path fill-rule="evenodd" clip-rule="evenodd" d="M13.0002 4.06238C12.6714 4.02121 12.3363 4 11.9963 4C11.659 4 11.3266 4.02088 11.0002 4.06141L11.0002 2C11.0002 1.44772 11.448 1 12.0002 1C12.5525 1 13.0002 1.44772 13.0002 2L13.0002 4.06238Z" fill="currentColor" />
</svg>