<svg xmlns="http://www.w3.org/2000/svg" width="24" height="24" viewBox="0 0 24 24" fill="none">
    <path d="M3.99609 11.9404C3.99613 9.74486 4.87543 7.75237 6.29883 6.2998L7.72754 7.7002C6.65564 8.79408 5.99613 10.2891 5.99609 11.9404C5.99609 15.287 8.70914 18 12.0557 18C13.707 18 15.202 17.3405 16.2959 16.2686L17.6963 17.6973C16.2437 19.1207 14.2512 20 12.0557 20C7.60457 20 3.99609 16.3915 3.99609 11.9404Z" fill="currentColor" />
    <path fill-rule="evenodd" clip-rule="evenodd" d="M17.9961 11.9909C17.9961 11.9819 17.9961 11.9729 17.9961 11.9639C17.9959 11.9719 17.996 11.9829 17.9961 11.9909Z" fill="currentColor" />
    <path d="M4.99609 11C5.54838 11 5.99609 11.4477 5.99609 12C5.99609 12.5523 5.54838 13 4.99609 13H1.99609C1.44381 13 0.996094 12.5523 0.996094 12C0.996094 11.4477 1.44381 11 1.99609 11H4.99609Z" fill="currentColor" />
    <path d="M12.9961 22C12.9961 22.5523 12.5484 23 11.9961 23C11.4438 23 10.9961 22.5523 10.9961 22L10.9961 19C10.9961 18.4477 11.4438 18 11.9961 18C12.5484 18 12.9961 18.4477 12.9961 19L12.9961 22Z" fill="currentColor" />
    <path d="M1.28911 1.29289C1.67963 0.902369 2.31265 0.902369 2.70317 1.29289L22.7032 21.2929C23.0937 21.6834 23.0937 22.3164 22.7032 22.707C22.3126 23.0975 21.6796 23.0975 21.2891 22.707L1.28911 2.70696C0.898585 2.31643 0.898585 1.68342 1.28911 1.29289Z" fill="currentColor" />
    <path opacity="0.4" d="M11.0009 2V4.06108C10.3544 4.14101 9.73093 4.29784 9.14059 4.52246C8.62453 4.71883 8.36533 5.29641 8.56149 5.8125C8.7579 6.32866 9.33536 6.58798 9.85152 6.3916C10.516 6.13874 11.2435 6 12.0009 6C15.3193 6 17.9958 8.67488 17.9961 11.9639C17.9961 12.7311 17.8507 13.4627 17.5869 14.1338C17.3849 14.6477 17.6376 15.2285 18.1513 15.4307C18.6652 15.6327 19.246 15.38 19.4482 14.8662C19.6806 14.2749 19.8441 13.6493 19.9289 13H21.9961C22.5483 13 22.9961 12.5523 22.9961 12C22.9961 11.4477 22.5483 11 21.9961 11H19.938C19.4996 7.38128 16.6247 4.51463 13.0009 4.06226V2C13.0009 1.44772 12.5532 1 12.0009 1C11.4487 1 11.0009 1.44772 11.0009 2Z" fill="currentColor" />
</svg>