<svg xmlns="http://www.w3.org/2000/svg" width="24" height="24" viewBox="0 0 24 24" fill="none">
    <path d="M17.9958 12C17.9958 8.68629 15.3096 6 11.9958 6C8.68214 6 5.99585 8.68629 5.99585 12C5.99585 15.3137 8.68214 18 11.9958 18C15.3096 18 17.9958 15.3137 17.9958 12ZM19.9958 12C19.9958 16.4183 16.4141 20 11.9958 20C7.57757 20 3.99585 16.4183 3.99585 12C3.99585 7.58172 7.57757 4 11.9958 4C16.4141 4 19.9958 7.58172 19.9958 12Z" fill="currentColor" />
    <path opacity="0.4" d="M13.9958 12C13.9958 10.8954 13.1004 10 11.9958 10C10.8913 10 9.99585 10.8954 9.99585 12C9.99585 13.1046 10.8913 14 11.9958 14C13.1004 14 13.9958 13.1046 13.9958 12ZM15.9958 12C15.9958 14.2091 14.205 16 11.9958 16C9.78671 16 7.99585 14.2091 7.99585 12C7.99585 9.79086 9.78671 8 11.9958 8C14.205 8 15.9958 9.79086 15.9958 12Z" fill="currentColor" />
    <path d="M21.9958 11C22.5481 11 22.9958 11.4477 22.9958 12C22.9958 12.5523 22.5481 13 21.9958 13H18.9958C18.4436 13 17.9958 12.5523 17.9958 12C17.9958 11.4477 18.4436 11 18.9958 11H21.9958Z" fill="currentColor" />
    <path d="M4.99585 11C5.54813 11 5.99585 11.4477 5.99585 12C5.99585 12.5523 5.54813 13 4.99585 13H1.99585C1.44356 13 0.99585 12.5523 0.99585 12C0.99585 11.4477 1.44356 11 1.99585 11H4.99585Z" fill="currentColor" />
    <path d="M12.9958 22C12.9958 22.5523 12.5481 23 11.9958 23C11.4436 23 10.9958 22.5523 10.9958 22L10.9958 19C10.9958 18.4477 11.4436 18 11.9958 18C12.5481 18 12.9958 18.4477 12.9958 19L12.9958 22Z" fill="currentColor" />
    <path d="M12.9998 5C12.9998 5.55228 12.552 6 11.9998 6C11.4475 6 10.9998 5.55228 10.9998 5L10.9998 2C10.9998 1.44772 11.4475 1 11.9998 1C12.552 1 12.9998 1.44772 12.9998 2L12.9998 5Z" fill="currentColor" />
</svg>