<svg xmlns="http://www.w3.org/2000/svg" width="24" height="24" viewBox="0 0 24 24" fill="none">
    <path opacity="0.4" d="M10.6504 7.99988C10.933 7.99988 11.0743 7.99994 11.1621 8.08777C11.2499 8.1756 11.25 8.31691 11.25 8.59949V20.4003C11.25 20.6828 11.2499 20.8242 11.1621 20.912C11.0743 20.9999 10.9329 20.9999 10.6504 20.9999H9.9375C8.10517 20.9999 6.64426 21.0002 5.49902 20.827C4.3094 20.6472 3.35449 20.2663 2.61133 19.4305C1.87939 18.607 1.55598 17.5699 1.40137 16.2762C1.24965 15.0064 1.24999 13.3783 1.25 11.3007V11.1991C1.25 10.2319 1.25032 9.3614 1.26562 8.57996C1.27095 8.30795 1.27318 8.1716 1.36035 8.08582C1.44785 8.00002 1.58624 7.99988 1.86133 7.99988H10.6504ZM22.1387 7.99988C22.4138 7.99988 22.5521 8.00002 22.6396 8.08582C22.7268 8.1716 22.7291 8.30798 22.7344 8.57996C22.7497 9.36139 22.75 10.2319 22.75 11.1991V11.3016C22.75 13.3791 22.7503 15.0065 22.5986 16.2762C22.4439 17.5699 22.1206 18.607 21.3887 19.4305C20.6455 20.2663 19.6905 20.6472 18.501 20.827C17.3557 21.0002 15.8949 20.9999 14.0625 20.9999H13.3496C13.0671 20.9999 12.9257 20.9999 12.8379 20.912C12.75 20.8242 12.75 20.6828 12.75 20.4003V8.59949C12.75 8.31693 12.75 8.1756 12.8379 8.08777C12.9257 7.99994 13.0671 7.99988 13.3496 7.99988H22.1387Z" fill="currentColor" />
    <path d="M4.85037 20.4852C5.01178 20.52 5.17835 20.5512 5.34939 20.577C5.79969 20.6451 6.29909 20.6857 6.85037 20.7108V21.7499C6.85015 22.3019 6.40242 22.7498 5.85037 22.7499C5.29823 22.7499 4.8506 22.302 4.85037 21.7499V20.4852ZM18.8504 21.7499C18.8501 22.3019 18.4024 22.7498 17.8504 22.7499C17.2982 22.7498 16.8506 22.302 16.8504 21.7499V20.7108C17.4017 20.6857 17.9011 20.6451 18.3514 20.577C18.5224 20.5512 18.6889 20.52 18.8504 20.4852V21.7499ZM8.85037 12.2499C9.26449 12.25 9.60037 12.5858 9.60037 12.9999V13.9999C9.60037 14.414 9.26449 14.7498 8.85037 14.7499C8.43616 14.7499 8.10037 14.4141 8.10037 13.9999V12.9999C8.10037 12.5857 8.43616 12.2499 8.85037 12.2499ZM14.8504 12.2499C15.2645 12.25 15.6004 12.5858 15.6004 12.9999V13.9999C15.6004 14.414 15.2645 14.7498 14.8504 14.7499C14.4362 14.7498 14.1004 14.4141 14.1004 13.9999V12.9999C14.1004 12.5857 14.4362 12.2499 14.8504 12.2499ZM13.9129 1.24988C14.8292 1.24987 15.6529 1.24971 16.3904 1.27136C16.5748 1.27678 16.7538 1.28341 16.9275 1.29187C17.2747 1.30878 17.6009 1.33296 17.907 1.36609C18.0601 1.38267 18.2092 1.40108 18.3523 1.42273C18.6498 1.46773 18.9326 1.52543 19.201 1.59949C19.335 1.63649 19.4656 1.67777 19.5926 1.72351C19.8468 1.81507 20.087 1.92493 20.3133 2.0575C20.4265 2.12382 20.536 2.19621 20.6424 2.27429C20.8549 2.43031 21.0543 2.61029 21.24 2.81921C21.3773 2.97366 21.5001 3.13582 21.6102 3.30554C21.72 3.47504 21.8171 3.65245 21.9031 3.83777C22.0753 4.20894 22.2025 4.61252 22.2977 5.05066C22.3611 5.34252 22.4103 5.6502 22.449 5.97351C22.4555 6.02886 22.4436 6.08167 22.4178 6.12585C22.4007 6.15534 22.3769 6.18075 22.3494 6.20105C22.308 6.23147 22.2569 6.24981 22.201 6.24988H1.49978C1.35097 6.24971 1.23429 6.12129 1.25173 5.97351C1.40634 4.6798 1.72877 3.64265 2.46072 2.81921C3.20383 1.98321 4.15882 1.60271 5.34841 1.42273C6.49369 1.2495 7.95535 1.24986 9.78787 1.24988H13.9129Z" fill="currentColor" />
</svg>