<svg xmlns="http://www.w3.org/2000/svg" width="24" height="24" viewBox="0 0 24 24" fill="none">
    <path d="M12.9966 15.625C12.9966 15.0727 12.5489 14.625 11.9966 14.625C11.4443 14.625 10.9966 15.0727 10.9966 15.625C10.9966 16.1773 11.4443 16.625 11.9966 16.625C12.5489 16.625 12.9966 16.1773 12.9966 15.625ZM14.9966 15.625C14.9966 17.2819 13.6534 18.625 11.9966 18.625C10.3397 18.625 8.99658 17.2819 8.99658 15.625C8.99658 13.9681 10.3397 12.625 11.9966 12.625C13.6534 12.625 14.9966 13.9681 14.9966 15.625Z" fill="currentColor" />
    <path fill-rule="evenodd" clip-rule="evenodd" d="M6.49658 6.625V8.63951C6.86431 8.53427 7.26021 8.47358 7.69581 8.43652C7.94175 8.4156 8.2079 8.4018 8.49658 8.39268V6.625C8.49658 4.692 10.0636 3.125 11.9966 3.125C13.4542 3.125 14.5498 4.03107 15.0542 5.45801C15.2382 5.9787 15.8089 6.25138 16.3296 6.06738C16.8503 5.88334 17.123 5.31269 16.939 4.79199C16.2078 2.72339 14.4576 1.125 11.9966 1.125C8.95902 1.125 6.49658 3.58743 6.49658 6.625Z" fill="currentColor" />
    <path opacity="0.4" d="M20.7456 15.6708V15.625V15.5792C20.7456 14.4464 20.7456 13.5477 20.6841 12.8242C20.6209 12.0818 20.4892 11.4546 20.1851 10.8857C19.7422 10.0573 19.0634 9.37839 18.2349 8.93555C17.666 8.63155 17.0388 8.49967 16.2964 8.43652C15.5728 8.37498 14.6739 8.37499 13.5409 8.375H13.4956H10.4966H10.4505C9.7028 8.37499 9.05718 8.37499 8.49658 8.39268C8.2079 8.4018 7.94175 8.4156 7.69581 8.43652C7.26021 8.47358 6.86431 8.53427 6.49658 8.63951C6.23754 8.71365 5.99247 8.80989 5.75734 8.93555C4.92887 9.3784 4.24998 10.0573 3.80714 10.8857C3.50303 11.4548 3.37122 12.0825 3.30812 12.8252C3.24639 13.5518 3.24648 14.455 3.24659 15.5946L3.24659 15.626L3.2466 15.6838C3.24669 16.8106 3.24675 17.705 3.30812 18.4258C3.37134 19.1683 3.50397 19.7953 3.80812 20.3643C4.25096 21.1926 4.92896 21.8716 5.75734 22.3145C6.3263 22.6185 6.95426 22.7503 7.69679 22.8135C8.42073 22.875 9.31965 22.875 10.4533 22.875H10.4966H13.4956H13.5409C14.6739 22.875 15.5728 22.875 16.2964 22.8135C17.0388 22.7503 17.666 22.6185 18.2349 22.3145C19.0634 21.8716 19.7422 21.1927 20.1851 20.3643C20.4892 19.7954 20.6209 19.1682 20.6841 18.4258C20.7456 17.7023 20.7456 16.8035 20.7456 15.6708Z" fill="currentColor" />
</svg>