<svg xmlns="http://www.w3.org/2000/svg" width="24" height="24" viewBox="0 0 24 24" fill="none">
    <path opacity="0.4" d="M20.9961 4C21.5484 4 21.9961 4.44772 21.9961 5C21.9961 5.55228 21.5484 6 20.9961 6H9.99609C9.44381 6 8.99609 5.55228 8.99609 5C8.99609 4.44772 9.44381 4 9.99609 4H20.9961Z" fill="currentColor" />
    <path d="M5.49609 4C6.04838 4 6.49609 4.44772 6.49609 5C6.49609 5.55228 6.04838 6 5.49609 6H2.99609C2.44381 6 1.99609 5.55228 1.99609 5C1.99609 4.44772 2.44381 4 2.99609 4H5.49609Z" fill="currentColor" />
    <path opacity="0.4" d="M20.9961 11C21.5484 11 21.9961 11.4477 21.9961 12C21.9961 12.5523 21.5484 13 20.9961 13H9.99609C9.44381 13 8.99609 12.5523 8.99609 12C8.99609 11.4477 9.44381 11 9.99609 11H20.9961Z" fill="currentColor" />
    <path d="M5.49609 11C6.04838 11 6.49609 11.4477 6.49609 12C6.49609 12.5523 6.04838 13 5.49609 13H2.99609C2.44381 13 1.99609 12.5523 1.99609 12C1.99609 11.4477 2.44381 11 2.99609 11H5.49609Z" fill="currentColor" />
    <path opacity="0.4" d="M20.9961 18C21.5484 18 21.9961 18.4477 21.9961 19C21.9961 19.5523 21.5484 20 20.9961 20H9.99609C9.44381 20 8.99609 19.5523 8.99609 19C8.99609 18.4477 9.44381 18 9.99609 18H20.9961Z" fill="currentColor" />
    <path d="M5.49609 18C6.04838 18 6.49609 18.4477 6.49609 19C6.49609 19.5523 6.04838 20 5.49609 20H2.99609C2.44381 20 1.99609 19.5523 1.99609 19C1.99609 18.4477 2.44381 18 2.99609 18H5.49609Z" fill="currentColor" />
</svg>