<svg xmlns="http://www.w3.org/2000/svg" width="24" height="24" viewBox="0 0 24 24" fill="none">
    <path opacity="0.4" d="M10.3574 1.73445C10.6418 1.49965 10.784 1.38208 10.9561 1.46296C11.1282 1.54406 11.1279 1.75141 11.1279 2.16511V21.839C11.1279 22.2526 11.1282 22.459 10.9561 22.5401C10.784 22.6212 10.6418 22.5044 10.3574 22.2696C9.76841 21.7833 9.19001 21.0244 8.6709 19.9679C7.69177 17.975 7.06057 15.16 7.06055 12.0021C7.06055 8.84415 7.69183 6.02906 8.6709 4.0362C9.19001 2.97966 9.76841 2.22081 10.3574 1.73445ZM13.0439 1.46296C13.216 1.38208 13.3582 1.49965 13.6426 1.73445C14.2316 2.22081 14.81 2.97966 15.3291 4.0362C16.3082 6.02906 16.9395 8.84415 16.9395 12.0021C16.9394 15.16 16.3082 17.975 15.3291 19.9679C14.81 21.0244 14.2316 21.7833 13.6426 22.2696C13.3582 22.5044 13.216 22.6212 13.0439 22.5401C12.8718 22.459 12.8721 22.2526 12.8721 21.839V2.16511C12.8721 1.75141 12.8718 1.54406 13.0439 1.46296ZM7.14258 2.29109C7.26349 2.30895 7.36203 2.39883 7.39062 2.51765C7.41586 2.62283 7.31418 2.8294 7.11133 3.24226C5.98738 5.52982 5.31738 8.62831 5.31738 12.0021C5.31741 15.3757 5.9874 18.4743 7.11133 20.7618C7.31384 21.174 7.41552 21.3802 7.39062 21.4855C7.3621 21.6044 7.26357 21.6951 7.14258 21.713C7.03556 21.7287 6.85763 21.6203 6.50195 21.4044C3.35689 19.4957 1.25006 15.9992 1.25 12.0021C1.25 8.00477 3.35686 4.50841 6.50195 2.59968C6.85776 2.38374 7.03555 2.27538 7.14258 2.29109ZM16.8574 2.29109C16.9644 2.27538 17.1422 2.38374 17.498 2.59968C20.6431 4.50841 22.75 8.00477 22.75 12.0021C22.7499 15.9992 20.6431 19.4957 17.498 21.4044C17.1424 21.6203 16.9644 21.7287 16.8574 21.713C16.7364 21.6951 16.6379 21.6044 16.6094 21.4855C16.5845 21.3802 16.6862 21.174 16.8887 20.7618C18.0126 18.4743 18.6826 15.3757 18.6826 12.0021C18.6826 8.62831 18.0126 5.52982 16.8887 3.24226C16.6858 2.8294 16.5841 2.62283 16.6094 2.51765C16.638 2.39883 16.7365 2.30895 16.8574 2.29109Z" fill="currentColor" />
    <path d="M10.3574 1.734C10.6417 1.49925 10.784 1.38151 10.9561 1.46252C11.1282 1.54362 11.1279 1.75097 11.1279 2.16467V21.8384C11.1279 22.2521 11.1282 22.4595 10.9561 22.5406C10.784 22.6216 10.6417 22.5038 10.3574 22.2691C9.76841 21.7827 9.19001 21.0239 8.6709 19.9674C7.69175 17.9745 7.06055 15.1595 7.06055 12.0015C7.06055 8.8436 7.69176 6.02863 8.6709 4.03576C9.19001 2.97922 9.76841 2.22037 10.3574 1.734ZM13.0439 1.46252C13.2159 1.38188 13.3583 1.49928 13.6426 1.734C14.2316 2.22037 14.81 2.97922 15.3291 4.03576C16.3082 6.02862 16.9385 8.84371 16.9385 12.0015C16.9385 15.1594 16.3082 17.9745 15.3291 19.9674C14.81 21.0239 14.2316 21.7827 13.6426 22.2691C13.3583 22.5038 13.2158 22.6212 13.0439 22.5406C12.8718 22.4595 12.8711 22.2521 12.8711 21.8384V2.16467C12.8711 1.75097 12.8718 1.54362 13.0439 1.46252Z" fill="currentColor" />
</svg>