<svg xmlns="http://www.w3.org/2000/svg" width="24" height="24" viewBox="0 0 24 24" fill="none">
    <path opacity="0.4" d="M5.51233 1.63725C6.05128 1.12125 6.92456 1.12124 7.46351 1.63725L17.3239 11.0787C20.8004 14.4073 20.161 18.4385 17.7839 20.7886C16.5908 21.968 14.9649 22.7174 13.1979 22.7486C11.4378 22.7795 9.49369 22.098 7.65589 20.3384L4.65491 17.4654C4.11528 16.9487 4.11528 16.11 4.65491 15.5933C5.19389 15.0777 6.06727 15.0774 6.60608 15.5933L7.76819 16.7066C7.93922 16.8703 8.21674 16.8708 8.38831 16.7076C8.55987 16.5442 8.56036 16.2786 8.38929 16.1148L6.36976 14.1812C5.83014 13.6645 5.83015 12.8268 6.36976 12.3101C6.9084 11.7944 7.78093 11.794 8.31995 12.3091L8.32093 12.3101L10.3678 14.2701C10.5388 14.4337 10.8164 14.434 10.988 14.271C11.1595 14.1077 11.16 13.8421 10.9889 13.6783L8.0846 10.897C7.54497 10.3804 7.54497 9.54258 8.0846 9.02592C8.62355 8.50994 9.49683 8.50992 10.0358 9.02592L12.9675 11.8335C13.1385 11.9972 13.417 11.9968 13.5885 11.8335C13.7597 11.6702 13.7595 11.4054 13.5885 11.2417L5.51233 3.50834C4.97271 2.99168 4.97271 2.15391 5.51233 1.63725ZM13.4499 3.91362C14.4712 3.12411 15.8678 3.02605 16.9909 3.58061C17.1522 3.66026 17.2136 3.78781 17.1784 3.98588C17.1391 4.20597 16.9758 4.46278 16.7272 4.62944C15.996 5.11944 15.2246 5.85833 15.0075 6.84819C14.9523 7.09989 14.9348 7.35977 14.9587 7.62651L12.5817 5.35112C12.7857 4.5645 13.2443 4.07256 13.4499 3.91362Z" fill="currentColor" />
    <path d="M13.45 3.91454C14.4713 3.12487 15.8688 3.02693 16.992 3.58153C17.153 3.6612 17.2147 3.78891 17.1795 3.9868C17.1402 4.20697 16.9761 4.46366 16.7273 4.63036C15.9961 5.12036 15.2247 5.85928 15.0076 6.84911C14.9524 7.10078 14.9349 7.36072 14.9588 7.62743L12.5818 5.35204C12.7858 4.56542 13.2444 4.07347 13.45 3.91454Z" fill="currentColor" />
</svg>