<svg xmlns="http://www.w3.org/2000/svg" width="24" height="24" viewBox="0 0 24 24" fill="none">
    <path d="M21.4268 14.0527C21.95 13.8763 22.5169 14.1573 22.6934 14.6806C22.8698 15.2039 22.5887 15.7707 22.0654 15.9472C21.6154 16.099 21.0889 16.4289 20.5244 16.9003C19.9695 17.3638 19.4284 17.9223 18.9473 18.4716C18.4679 19.0188 18.0602 19.5433 17.7725 19.9316C17.629 20.1252 17.5156 20.2836 17.4395 20.3925C17.4015 20.4468 17.3724 20.4889 17.3535 20.5165C17.3442 20.5302 17.3374 20.5404 17.333 20.5468C17.331 20.5497 17.33 20.5523 17.3291 20.5537L17.3281 20.5556C17.1323 20.8489 16.7956 21.0174 16.4434 20.999C16.0911 20.9804 15.7743 20.7771 15.6104 20.4648C15.2371 19.7538 14.9091 19.4824 14.7568 19.3857C14.6975 19.348 14.6575 19.3326 14.6416 19.3271C14.1385 19.2748 13.7461 18.8499 13.7461 18.3329C13.7463 17.7808 14.1939 17.3329 14.7461 17.3329V18.1318C14.7462 17.3333 14.7472 17.3329 14.748 17.3329H14.7617C14.7672 17.333 14.7733 17.3337 14.7793 17.3339C14.7911 17.3343 14.8038 17.335 14.8174 17.3359C14.845 17.3376 14.8764 17.3403 14.9111 17.3447C14.9809 17.3535 15.0646 17.3687 15.1592 17.3945C15.3495 17.4463 15.5788 17.5383 15.8291 17.6972C16.0527 17.8392 16.2828 18.0307 16.5156 18.2812C16.7781 17.9429 17.0912 17.5541 17.4424 17.1533C17.9648 16.5569 18.5813 15.9172 19.2422 15.3652C19.8936 14.8211 20.6415 14.3175 21.4268 14.0527ZM14.6592 19.329C14.6683 19.3302 14.6801 19.3311 14.6943 19.332C14.7015 19.3324 14.7102 19.3327 14.7188 19.3329H14.7441L14.7451 19.332C14.7158 19.3319 14.6869 19.3306 14.6582 19.3281L14.6592 19.329Z" fill="currentColor" />
    <path opacity="0.4" fill-rule="evenodd" clip-rule="evenodd" d="M14.6784 2.78681C12.7226 2.73773 11.2696 2.73774 9.31379 2.78681L9.23895 2.78869C7.72958 2.82652 6.4877 2.85765 5.48674 3.03175C4.42437 3.21654 3.53486 3.57641 2.78145 4.33174C2.03199 5.08311 1.67315 5.9586 1.49135 7.00416C1.32074 7.98538 1.29492 9.19623 1.26368 10.6617L1.26207 10.7371C1.24076 11.7351 1.24077 12.265 1.26208 13.2629L1.26369 13.3383C1.29494 14.8038 1.32076 16.0146 1.49137 16.9959C1.67316 18.0414 2.03201 18.9169 2.78147 19.6683C3.53487 20.4236 4.42438 20.7835 5.48675 20.9683C6.48771 21.1424 7.72959 21.1735 9.23895 21.2113L9.31381 21.2132C11.2441 21.2616 12.6847 21.2623 14.6023 21.2151C14.5673 21.1604 14.5344 21.104 14.5039 21.0459C14.345 20.7433 14.2157 20.5787 14.1416 20.498C13.4935 20.3175 12.963 19.8553 12.6918 19.2512C11.6131 19.2597 10.5909 19.2486 9.36401 19.2178C7.76106 19.1776 6.66783 19.1476 5.82964 19.0018C5.03636 18.8638 4.57419 18.6374 4.19731 18.2595C3.81648 17.8777 3.59385 17.4218 3.46041 16.6543C3.3187 15.8393 3.29345 14.7803 3.26014 13.2203C3.23944 12.2508 3.23943 11.7492 3.26013 10.7797C3.27612 10.0306 3.29026 9.39704 3.31632 8.85053C3.33566 8.44501 3.34533 8.24225 3.49217 8.1613C3.63901 8.08035 3.81952 8.18263 4.18054 8.38719L8.41595 10.787C9.71556 11.5234 10.8147 12 11.9959 12C13.1771 12 14.2762 11.5234 15.5758 10.787L19.8116 8.38697C20.1726 8.18242 20.3531 8.08014 20.5 8.16109C20.6468 8.24203 20.6565 8.4448 20.6758 8.8503C20.7019 9.39687 20.7161 10.0305 20.732 10.7797C20.7509 11.6641 20.7526 12.159 20.737 12.9749C20.8327 12.9369 20.9295 12.9012 21.0273 12.8682C21.6125 12.6709 22.2219 12.7279 22.7358 12.9797C22.7512 12.1556 22.7493 11.6364 22.7301 10.7371L22.7285 10.6617C22.6973 9.19625 22.6714 7.98537 22.5008 7.00416C22.319 5.9586 21.9602 5.08311 21.2107 4.33174C20.7873 3.90728 20.321 3.6077 19.8051 3.39389C19.7266 3.35104 19.6425 3.31873 19.5548 3.29811C19.225 3.18184 18.8757 3.09616 18.5054 3.03176C17.5045 2.85765 16.2626 2.82652 14.7532 2.78868L14.6784 2.78681Z" fill="currentColor" />
</svg>