<svg xmlns="http://www.w3.org/2000/svg" width="24" height="24" viewBox="0 0 24 24" fill="none">
    <path fill-rule="evenodd" clip-rule="evenodd" d="M1.29033 1.29289C1.68085 0.902369 2.31402 0.902369 2.70454 1.29289L22.7045 21.2929C23.0951 21.6834 23.0951 22.3166 22.7045 22.7071C22.314 23.0976 21.6809 23.0976 21.2903 22.7071L1.29033 2.70711C0.899805 2.31658 0.899805 1.68342 1.29033 1.29289Z" fill="currentColor" />
    <path opacity="0.4" d="M20.0566 15.6609C21.6574 13.2362 22.4245 10.4045 21.0043 7.08468C19.4764 3.51303 15.826 1.25 11.9999 1.25C10.2678 1.25 8.57176 1.71376 7.09234 2.55275C6.80683 2.71466 6.66407 2.79562 6.6441 2.94294C6.62412 3.09025 6.74512 3.21125 6.9871 3.45323L10.475 6.94111C10.5981 7.06426 10.6597 7.12584 10.7343 7.14721C10.8089 7.16859 10.9037 7.14667 11.0933 7.10283C11.3841 7.03556 11.6871 7 11.9983 7C14.2075 7 15.9983 8.79086 15.9983 11C15.9983 11.3113 15.9628 11.6143 15.8955 11.9051C15.8517 12.0946 15.8297 12.1894 15.8511 12.264C15.8725 12.3386 15.9341 12.4002 16.0572 12.5233L19.2661 15.7322C19.4408 15.9069 19.5281 15.9942 19.6324 16.006C19.6739 16.0107 19.719 16.0061 19.7588 15.9932C19.8586 15.9608 19.9246 15.8608 20.0566 15.6609Z" fill="currentColor" />
    <path d="M2.99457 7.08463C1.57262 10.4086 2.3424 13.2373 3.94515 15.6595C5.25921 17.6454 7.17578 19.4178 8.90486 21.0167L8.90568 21.0175C9.23498 21.322 9.55786 21.6206 9.86809 21.9128L9.86975 21.9144C10.4448 22.4528 11.2086 22.75 11.999 22.75C12.7894 22.75 13.5532 22.4527 14.1282 21.9144C14.4218 21.6395 14.726 21.3592 15.0364 21.0732C15.9092 20.269 16.8308 19.4199 17.7002 18.5208C17.8885 18.326 17.9826 18.2287 17.9816 18.1059C17.9806 17.9831 17.8835 17.886 17.6893 17.6918L14.6367 14.6393C14.4731 14.4757 14.3913 14.3939 14.294 14.379C14.1967 14.3642 14.082 14.4244 13.8526 14.5447C13.2981 14.8355 12.667 15 11.9974 15C9.7883 15 7.99744 13.2091 7.99744 11C7.99744 10.3304 8.16193 9.69932 8.45271 9.14484C8.57303 8.91541 8.63319 8.8007 8.61836 8.70337C8.60353 8.60604 8.52173 8.52424 8.35813 8.36064L5.03182 5.03434C4.81772 4.82024 4.71067 4.71318 4.5752 4.72193C4.43973 4.73068 4.35128 4.84548 4.17439 5.07509C3.70418 5.6854 3.30545 6.35793 2.99457 7.08463Z" fill="currentColor" />
</svg>