<svg xmlns="http://www.w3.org/2000/svg" width="24" height="24" viewBox="0 0 24 24" fill="none">
    <path opacity="0.4" d="M11.9958 1.25C15.822 1.25 19.4728 3.51331 21.0007 7.08496C22.4207 10.4047 21.6532 13.2365 20.0525 15.6611C18.7246 17.6723 16.7811 19.463 15.0332 21.0735C14.723 21.3593 14.419 21.6394 14.1257 21.9141C13.5507 22.4524 12.7862 22.75 11.9958 22.75C11.2055 22.75 10.4419 22.4524 9.86692 21.9141C9.55612 21.6213 9.23295 21.3225 8.90294 21.0173C7.1736 19.4181 5.25601 17.6449 3.94211 15.6592C2.3395 13.2371 1.57008 10.4088 2.99192 7.08496C4.51981 3.51335 8.16971 1.25006 11.9958 1.25Z" fill="currentColor" />
    <path d="M10.9949 14.5V12H8.49487C7.94259 12 7.49487 11.5523 7.49487 11C7.49487 10.4477 7.94259 10 8.49487 10H10.9949V7.5C10.9949 6.94772 11.4426 6.5 11.9949 6.5C12.5472 6.5 12.9949 6.94772 12.9949 7.5V10H15.4949C16.0472 10 16.4949 10.4477 16.4949 11C16.4949 11.5523 16.0472 12 15.4949 12H12.9949V14.5C12.9949 15.0523 12.5472 15.5 11.9949 15.5C11.4426 15.5 10.9949 15.0523 10.9949 14.5Z" fill="currentColor" />
</svg>