<svg xmlns="http://www.w3.org/2000/svg" width="24" height="24" viewBox="0 0 24 24" fill="none">
    <path opacity="0.4" d="M12.0449 5.25C12.4777 5.24995 12.8745 5.24957 13.1973 5.29297C13.5527 5.34076 13.9283 5.45368 14.2373 5.7627C14.5463 6.07171 14.6592 6.44726 14.707 6.80273C14.7504 7.1255 14.7501 7.52234 14.75 7.95508V16.0449C14.7501 16.4777 14.7504 16.8745 14.707 17.1973C14.6592 17.5527 14.5463 17.9283 14.2373 18.2373C13.9283 18.5463 13.5527 18.6592 13.1973 18.707C12.8745 18.7504 12.4777 18.7501 12.0449 18.75H11.9551C11.5223 18.7501 11.1255 18.7504 10.8027 18.707C10.4473 18.6592 10.0717 18.5463 9.7627 18.2373C9.45368 17.9283 9.34076 17.5527 9.29297 17.1973C9.24958 16.8745 9.24995 16.4777 9.25 16.0449V7.95508C9.24995 7.52233 9.24958 7.1255 9.29297 6.80273C9.34076 6.44726 9.45368 6.07171 9.7627 5.7627C10.0717 5.45368 10.4473 5.34076 10.8027 5.29297C11.1255 5.24957 11.5223 5.24995 11.9551 5.25H12.0449ZM5.04492 9.25C5.47768 9.24995 5.87449 9.24958 6.19727 9.29297C6.55274 9.34076 6.92828 9.45368 7.2373 9.7627C7.54632 10.0717 7.65924 10.4473 7.70703 10.8027C7.75043 11.1255 7.75005 11.5223 7.75 11.9551V14.0449C7.75005 14.4777 7.75043 14.8745 7.70703 15.1973C7.65924 15.5527 7.54633 15.9283 7.2373 16.2373C6.92828 16.5463 6.55275 16.6592 6.19727 16.707C5.8745 16.7504 5.47767 16.7501 5.04492 16.75H4.95508C4.52234 16.7501 4.1255 16.7504 3.80273 16.707C3.44726 16.6592 3.07172 16.5463 2.7627 16.2373C2.45369 15.9283 2.34077 15.5527 2.29297 15.1973C2.24958 14.8745 2.24995 14.4777 2.25 14.0449V11.9551C2.24995 11.5223 2.24958 11.1255 2.29297 10.8027C2.34077 10.4473 2.45368 10.0717 2.7627 9.7627C3.07172 9.45368 3.44726 9.34076 3.80273 9.29297C4.1255 9.24958 4.52233 9.24995 4.95508 9.25H5.04492ZM19.0449 4.25C19.4777 4.24995 19.8745 4.24957 20.1973 4.29297C20.5527 4.34076 20.9283 4.45368 21.2373 4.7627C21.5463 5.07171 21.6592 5.44726 21.707 5.80273C21.7504 6.1255 21.75 6.52234 21.75 6.95508V9.04492C21.75 9.47767 21.7504 9.87451 21.707 10.1973C21.6592 10.5527 21.5463 10.9283 21.2373 11.2373C20.9283 11.5463 20.5527 11.6592 20.1973 11.707C19.8745 11.7504 19.4777 11.7501 19.0449 11.75H18.9551C18.5223 11.7501 18.1255 11.7504 17.8027 11.707C17.4473 11.6592 17.0717 11.5463 16.7627 11.2373C16.4537 10.9283 16.3408 10.5527 16.293 10.1973C16.2496 9.8745 16.2499 9.47768 16.25 9.04492V6.95508C16.2499 6.52233 16.2496 6.1255 16.293 5.80273C16.3408 5.44726 16.4537 5.07171 16.7627 4.7627C17.0717 4.45368 17.4473 4.34076 17.8027 4.29297C18.1255 4.24957 18.5223 4.24995 18.9551 4.25H19.0449Z" fill="currentColor" />
    <path d="M12.75 21C12.75 21.5523 12.3023 22 11.75 22C11.1977 22 10.75 21.5523 10.75 21V18.7275C11.0318 18.7501 11.3568 18.75 11.7051 18.75H11.7949C12.1432 18.75 12.4682 18.7501 12.75 18.7275V21ZM5.75 18C5.75 18.5523 5.30228 19 4.75 19C4.19772 19 3.75 18.5523 3.75 18V16.7275C4.03184 16.7501 4.35681 16.75 4.70508 16.75H4.79492C5.14318 16.75 5.46816 16.7501 5.75 16.7275V18ZM19.75 13C19.75 13.5523 19.3023 14 18.75 14C18.1977 14 17.75 13.5523 17.75 13V11.7275C18.0318 11.7501 18.3568 11.75 18.7051 11.75H18.7949C19.1432 11.75 19.4682 11.7501 19.75 11.7275V13ZM4.75 7C5.30228 7 5.75 7.44772 5.75 8V9.27246C5.46816 9.24985 5.14319 9.24996 4.79492 9.25H4.70508C4.35681 9.24996 4.03184 9.24985 3.75 9.27246V8C3.75 7.44772 4.19772 7 4.75 7ZM11.75 2C12.3023 2 12.75 2.44771 12.75 3V5.27246C12.4682 5.24985 12.1432 5.24996 11.7949 5.25H11.7051C11.3568 5.24996 11.0318 5.24985 10.75 5.27246V3C10.75 2.44771 11.1977 2 11.75 2ZM18.75 2C19.3023 2 19.75 2.44771 19.75 3V4.27246C19.4682 4.24985 19.1432 4.24996 18.7949 4.25H18.7051C18.3568 4.24996 18.0318 4.24985 17.75 4.27246V3C17.75 2.44771 18.1977 2 18.75 2Z" fill="currentColor" />
</svg>