<svg xmlns="http://www.w3.org/2000/svg" width="24" height="24" viewBox="0 0 24 24" fill="none">
    <path d="M14.0001 15C14.0001 12.2386 11.7615 10 9.00011 10C6.23868 10 4.00011 12.2386 4.00011 15C4.00011 17.7614 6.23868 20 9.00011 20C11.7615 20 14.0001 17.7614 14.0001 15ZM16.0001 15C16.0001 18.866 12.8661 22 9.00011 22C5.13411 22 2.00011 18.866 2.00011 15C2.00011 11.134 5.13411 8 9.00011 8C12.8661 8 16.0001 11.134 16.0001 15Z" fill="currentColor" />
    <path fill-rule="evenodd" clip-rule="evenodd" d="M21.6564 9.14551C21.6561 9.14812 21.6566 9.1443 21.6564 9.14551C21.6568 9.14202 21.6579 9.13574 21.6584 9.13281L21.6564 9.14551ZM21.662 9.10962C21.662 9.10968 21.662 9.10957 21.662 9.10962C21.663 9.10343 21.6641 9.09639 21.6652 9.08887L21.662 9.10962ZM14.9103 2.33398L14.8807 2.33857C14.889 2.33724 14.8989 2.33565 14.9103 2.33398ZM14.8488 2.34277C14.846 2.34305 14.85 2.34259 14.8488 2.34277V2.34277Z" fill="currentColor" />
    <path opacity="0.4" d="M17.6241 4.04985C17.9518 4.02675 18.2767 4.01006 18.5828 4.00328L12.7931 9.79302C12.4026 10.1835 12.4026 10.8166 12.7931 11.2071C13.1836 11.5976 13.8166 11.5976 14.2071 11.2071L19.9969 5.41734C19.9901 5.72349 19.9734 6.0484 19.9503 6.37603C19.9053 7.01455 19.8374 7.63434 19.7804 8.09673C19.7519 8.32731 19.7265 8.51789 19.7081 8.64946C19.699 8.71484 19.6916 8.76568 19.6866 8.79985L19.6808 8.83892C19.6804 8.84126 19.6809 8.83673 19.6808 8.83892L19.6798 8.84966C19.5969 9.39569 19.9726 9.90547 20.5187 9.98833C21.0644 10.0709 21.5744 9.6913 21.6573 9.14556L21.6593 9.13286L21.6615 9.1185C21.661 9.12167 21.662 9.11569 21.6615 9.1185C21.6625 9.1123 21.665 9.09645 21.6661 9.08892C21.6717 9.05071 21.6798 8.99504 21.6896 8.92485C21.7091 8.7844 21.7359 8.58409 21.7657 8.34185C21.8254 7.85833 21.8971 7.20146 21.9454 6.51665C21.9933 5.8383 22.0206 5.10197 21.9816 4.47075C21.9621 4.15691 21.9248 3.83733 21.8536 3.54985C21.7901 3.29329 21.6654 2.91533 21.3751 2.62505C21.0848 2.33476 20.7069 2.2101 20.4503 2.14653C20.1628 2.07535 19.8432 2.03801 19.5294 2.0186C18.8982 1.97959 18.1619 2.00689 17.4835 2.05474C16.7987 2.10304 16.1418 2.17478 15.6583 2.23442C15.4161 2.2643 15.2158 2.29102 15.0753 2.3106C15.0051 2.32038 14.9494 2.32846 14.9112 2.33403L14.8816 2.33862L14.8673 2.34087C14.8644 2.3413 14.86 2.34174 14.8562 2.34211C14.3103 2.42511 13.929 2.93653 14.0118 3.48247C14.0949 4.02824 14.6046 4.4032 15.1505 4.32036L15.1612 4.31938L15.2003 4.31353C15.2345 4.30854 15.2853 4.30116 15.3507 4.29204C15.4823 4.2737 15.6728 4.24822 15.9034 4.21978C16.3658 4.16274 16.9856 4.0949 17.6241 4.04985Z" fill="currentColor" />
</svg>