<svg xmlns="http://www.w3.org/2000/svg" width="24" height="24" viewBox="0 0 24 24" fill="none">
    <path d="M18.9604 18.9619C18.2318 19.0777 17.3653 19.1154 16.3413 19.1592L16.2749 19.1621C15.535 19.1938 14.7691 19.2175 13.9829 19.2324C13.1858 19.2475 12.9728 19.2617 12.7983 19.3281C12.6234 19.3948 12.461 19.5208 11.8726 20.0254L9.69287 21.8945C9.42461 22.1246 9.08237 22.251 8.729 22.251C7.912 22.2508 7.24974 21.5885 7.24951 20.7715V19.1406C6.2637 19.0969 5.43407 19.0493 4.74072 18.9092C3.9 18.7393 3.20739 18.4263 2.59717 17.8115C1.38282 16.5879 1.36974 15.0505 1.28955 12.7773C1.26361 12.0419 1.24951 11.2805 1.24951 10.501C1.24951 9.7215 1.26361 8.96003 1.28955 8.22461C1.36974 5.95143 1.38282 4.4141 2.59717 3.19043C2.6983 3.08853 2.80273 2.99619 2.90869 2.91016L18.9604 18.9619Z" fill="currentColor" />
    <path opacity="0.4" d="M12.0005 1.75C13.4897 1.75 14.926 1.78112 16.2759 1.83887L16.3423 1.8418C17.5095 1.89169 18.4723 1.93277 19.2593 2.0918C20.1 2.26171 20.7926 2.57464 21.4028 3.18945C22.6172 4.41312 22.6303 5.95045 22.7104 8.22363C22.7364 8.95905 22.7505 9.72053 22.7505 10.5C22.7505 11.2795 22.7364 12.0409 22.7104 12.7764C22.6303 15.0495 22.6172 16.5869 21.4028 17.8105C21.3934 17.8201 21.382 17.8276 21.3726 17.8369L5.51123 1.97559C6.13466 1.90681 6.84729 1.87648 7.65869 1.8418L7.7251 1.83887C9.07498 1.78112 10.5112 1.75 12.0005 1.75Z" fill="currentColor" />
    <path fill-rule="evenodd" clip-rule="evenodd" d="M1.5424 1.54289C1.93293 1.15237 2.5661 1.15237 2.95662 1.54289L22.4566 21.0429C22.8471 21.4334 22.8471 22.0666 22.4566 22.4571C22.0661 22.8476 21.4329 22.8476 21.0424 22.4571L1.5424 2.95711C1.15188 2.56658 1.15188 1.93342 1.5424 1.54289Z" fill="currentColor" />
</svg>