<svg xmlns="http://www.w3.org/2000/svg" width="24" height="24" viewBox="0 0 24 24" fill="none">
    <path opacity="0.4" d="M22.75 10.5C22.75 11.2795 22.7359 12.0409 22.71 12.7764L22.7022 13.0002C22.6276 15.1512 22.5764 16.6275 21.4023 17.8105C20.7921 18.4254 20.0995 18.7383 19.2588 18.9082C18.4718 19.0672 17.5089 19.1084 16.3415 19.1583L16.2754 19.1611C15.5355 19.1928 14.7696 19.2165 13.9834 19.2314C13.1863 19.2466 12.9733 19.2607 12.7988 19.3271C12.6239 19.3938 12.4615 19.5198 11.873 20.0244L9.69336 21.8936C9.4251 22.1236 9.08286 22.25 8.72949 22.25C7.91249 22.2498 7.25022 21.5875 7.25 20.7705V19.1396C6.26419 19.0959 5.43456 19.0483 4.74121 18.9082C3.90049 18.7383 3.20788 18.4254 2.59766 17.8105C1.4236 16.6275 1.37242 15.1512 1.29785 13.0002L1.29004 12.7764C1.26409 12.0409 1.25 11.2795 1.25 10.5C1.25 9.72053 1.26409 8.95905 1.29004 8.22363L1.29785 7.99977C1.37242 5.84878 1.4236 4.37252 2.59766 3.18945C3.20788 2.57464 3.90049 2.26171 4.74121 2.0918C5.5282 1.93276 6.49109 1.8916 7.65843 1.8417L7.72461 1.83887C9.0745 1.78112 10.5108 1.75 12 1.75C13.4892 1.75 14.9255 1.78112 16.2754 1.83887L16.3416 1.8417C17.5089 1.8916 18.4718 1.93276 19.2588 2.0918C20.0995 2.26171 20.7921 2.57464 21.4023 3.18945C22.5764 4.37252 22.6276 5.84879 22.7022 7.99979L22.71 8.22363C22.7359 8.95905 22.75 9.72053 22.75 10.5Z" fill="currentColor" />
    <path d="M15 13.0001C15 12.5204 14.9996 12.2107 14.9834 11.9737C14.9678 11.7457 14.9411 11.6589 14.9238 11.6173C14.8223 11.3723 14.6277 11.1777 14.3828 11.0762C14.3412 11.059 14.2543 11.0322 14.0264 11.0167C13.7894 11.0005 13.4796 11.0001 13 11.0001H9.10938C9.12479 11.0135 9.13975 11.0276 9.15527 11.0411C9.51281 11.3515 9.87361 11.6416 10.1465 11.8546C10.2822 11.9605 10.3952 12.0463 10.4736 12.1055L10.5869 12.1905C10.5892 12.1922 10.5908 12.1937 10.5918 12.1944H10.5928C11.0373 12.5218 11.1328 13.1482 10.8057 13.5928C10.4782 14.0374 9.8519 14.1329 9.40723 13.8057V13.8048H9.40625C9.4057 13.8044 9.40423 13.8035 9.40332 13.8028C9.40154 13.8015 9.39951 13.7992 9.39648 13.7969C9.39006 13.7922 9.38091 13.7852 9.36914 13.7764C9.34556 13.7589 9.31139 13.7336 9.26855 13.7012C9.18294 13.6366 9.06133 13.5441 8.91602 13.4307C8.62647 13.2048 8.23707 12.8925 7.84473 12.5518C7.45737 12.2155 7.04393 11.8318 6.71973 11.4649C6.55861 11.2826 6.39791 11.0802 6.27246 10.8721C6.16356 10.6915 6 10.3773 6 10.0001C6.00001 9.62281 6.16356 9.30866 6.27246 9.128C6.39791 8.9199 6.55861 8.71757 6.71973 8.53523C7.04392 8.16838 7.45739 7.78462 7.84473 7.44831C8.23707 7.10767 8.62647 6.79537 8.91602 6.56941C9.06134 6.45599 9.18294 6.36356 9.26855 6.2989C9.31139 6.26655 9.34556 6.24127 9.36914 6.2237C9.3809 6.21494 9.39006 6.20795 9.39648 6.2032C9.39952 6.20095 9.40155 6.19865 9.40332 6.19734L9.40625 6.19538H9.40723V6.19441C9.85187 5.86726 10.4773 5.9628 10.8047 6.4073C11.1322 6.85199 11.0375 7.47822 10.5928 7.80573H10.5918C10.5908 7.80649 10.5892 7.80796 10.5869 7.80964L10.4736 7.8946C10.3952 7.95382 10.2822 8.03965 10.1465 8.14558C9.87361 8.35853 9.5128 8.64863 9.15527 8.95905C9.13975 8.97253 9.12479 8.98659 9.10938 9.00007H13C13.4521 9.00007 13.8413 8.99968 14.1621 9.02155C14.4919 9.04406 14.8225 9.09358 15.1484 9.22859C15.8832 9.53307 16.467 10.1168 16.7715 10.8516C16.9065 11.1776 16.956 11.5081 16.9785 11.838C17.0004 12.1587 17 12.548 17 13.0001C17 13.5523 16.5523 14.0001 16 14.0001C15.4477 14.0001 15 13.5523 15 13.0001Z" fill="currentColor" />
</svg>