<svg xmlns="http://www.w3.org/2000/svg" width="24" height="24" viewBox="0 0 24 24" fill="none">
    <path opacity="0.4" d="M22.25 12C22.25 17.6609 17.6609 22.25 12 22.25C10.2448 22.25 8.59046 21.8084 7.14453 21.0293C6.38511 20.6201 5.78228 20.6112 5.23633 20.7139C4.94458 20.7688 4.66731 20.8556 4.3584 20.9531L4.34096 20.9586C4.05379 21.0493 3.71649 21.1558 3.37793 21.207C2.95556 21.2709 2.5542 21.1147 2.2793 20.8398C1.8481 20.4083 1.80203 19.788 2.00293 19.3145L2.07617 19.1318C2.43613 18.1714 2.70956 16.5536 2.27148 15.2363C1.9329 14.2181 1.75 13.1296 1.75 12C1.75 6.33908 6.33908 1.75 12 1.75C17.6609 1.75 22.25 6.33908 22.25 12Z" fill="currentColor" />
    <path d="M14.2842 8.29314C14.6743 7.90264 15.3075 7.90226 15.6982 8.29216C16.089 8.68243 16.0895 9.31642 15.6992 9.7072L13.4131 11.9953L15.708 14.2931C16.0982 14.6839 16.0978 15.3179 15.707 15.7082C15.3162 16.0984 14.6822 16.098 14.292 15.7072L11.999 13.4113L9.70799 15.7062C9.31773 16.097 8.68374 16.0975 8.29295 15.7072C7.90254 15.317 7.902 14.6838 8.29198 14.2931L10.5859 11.9953L8.30077 9.7072C7.91051 9.31643 7.91098 8.68341 8.30174 8.29314C8.69252 7.90287 9.32554 7.90333 9.71581 8.29411L11.999 10.5802L14.2842 8.29314Z" fill="currentColor" />
</svg>