<svg xmlns="http://www.w3.org/2000/svg" width="24" height="24" viewBox="0 0 24 24" fill="none">
    <path d="M2.64166 14.0507C3.16562 13.8767 3.73206 14.1606 3.90631 14.6845C4.43675 16.2798 4.21316 18.0475 3.84576 19.2714C4.13395 19.1804 4.49405 19.068 4.88677 18.9941C5.76045 18.8297 6.78126 18.8594 7.9483 19.4882C8.43424 19.7503 8.61542 20.3566 8.35357 20.8427C8.09159 21.3289 7.48527 21.511 6.99908 21.249C6.29804 20.8712 5.75593 20.8661 5.25689 20.9599C4.98208 21.0116 4.71835 21.0932 4.40728 21.1913C4.12039 21.2819 3.75692 21.3983 3.38873 21.454C2.88165 21.5307 2.40267 21.343 2.07623 21.0165C1.56196 20.502 1.51188 19.769 1.74615 19.2167L1.81646 19.04C2.16282 18.1142 2.42163 16.5596 2.00787 15.3154C1.8337 14.7914 2.11765 14.225 2.64166 14.0507Z" fill="currentColor" />
    <path opacity="0.4" d="M13.6341 20.3379C14.1757 20.231 14.7017 20.5834 14.8089 21.125C14.9161 21.6668 14.5636 22.1926 14.0218 22.2998C13.3587 22.431 12.6738 22.5 11.974 22.5C11.4217 22.5 10.974 22.0523 10.974 21.5C10.974 20.9477 11.4217 20.5 11.974 20.5C12.5428 20.5 13.0981 20.4439 13.6341 20.3379ZM19.0423 16.7217C19.3496 16.2628 19.9711 16.14 20.43 16.4473C20.8889 16.7545 21.0117 17.376 20.7044 17.835C19.9382 18.9795 18.9525 19.9642 17.8079 20.7305C17.349 21.0376 16.7284 20.9149 16.4212 20.4561C16.1141 19.9972 16.2369 19.3766 16.6956 19.0693C17.623 18.4485 18.4215 17.649 19.0423 16.7217ZM20.474 12C20.474 11.431 20.4179 10.8759 20.3118 10.3398C20.2048 9.79813 20.5572 9.27221 21.099 9.16504C21.6407 9.05793 22.1666 9.4104 22.2738 9.95215C22.4049 10.6153 22.474 11.3001 22.474 12C22.474 12.6999 22.4049 13.3847 22.2738 14.0479C22.1666 14.5896 21.6407 14.9421 21.099 14.835C20.5572 14.7278 20.2048 14.2019 20.3118 13.6602C20.4179 13.1241 20.474 12.569 20.474 12ZM1.9056 9.01074C2.0627 8.48143 2.61936 8.17997 3.14876 8.33691C3.67797 8.494 3.97935 9.04979 3.82259 9.5791C3.67709 10.0699 3.57469 10.5803 3.51986 11.1045C3.46215 11.6535 2.97035 12.0516 2.42122 11.9941C1.87219 11.9364 1.47413 11.4446 1.53157 10.8955C1.5993 10.2484 1.72556 9.61804 1.9056 9.01074ZM16.4212 3.54395C16.7284 3.08506 17.349 2.9624 17.8079 3.26953C18.9525 4.03577 19.9382 5.02054 20.7044 6.16504C21.0117 6.62396 20.8889 7.24548 20.43 7.55273C19.9711 7.85996 19.3496 7.73717 19.0423 7.27832C18.4215 6.35095 17.623 5.55152 16.6956 4.93066C16.2369 4.62336 16.1141 4.00278 16.4212 3.54395ZM6.48861 3.04492C6.95919 2.75622 7.57467 2.90361 7.86361 3.37402C8.15249 3.84473 8.00521 4.46112 7.5345 4.75C6.64613 5.29526 5.86524 5.99965 5.23177 6.82324C4.89504 7.26085 4.26714 7.34247 3.82943 7.00586C3.39166 6.66914 3.31009 6.04128 3.64681 5.60352C4.42834 4.58749 5.39157 3.71819 6.48861 3.04492ZM11.974 1.5C12.6738 1.50002 13.3587 1.56901 14.0218 1.7002C14.5636 1.8074 14.9161 2.33323 14.8089 2.875C14.7017 3.41659 14.1757 3.76899 13.6341 3.66211C13.0981 3.55607 12.5428 3.50002 11.974 3.5C11.444 3.5 10.9259 3.54829 10.4242 3.64062C9.88114 3.74059 9.35931 3.38178 9.25911 2.83887C9.15912 2.29571 9.51869 1.77383 10.0618 1.67383C10.6825 1.55958 11.3218 1.5 11.974 1.5Z" fill="currentColor" />
</svg>