<svg xmlns="http://www.w3.org/2000/svg" width="24" height="24" viewBox="0 0 24 24" fill="none">
    <path opacity="0.4" d="M22.75 10.5C22.75 11.2795 22.7359 12.0409 22.71 12.7764L22.7022 13.0002C22.6276 15.1512 22.5764 16.6275 21.4023 17.8105C20.7921 18.4254 20.0995 18.7383 19.2588 18.9082C18.4718 19.0672 17.5089 19.1084 16.3415 19.1583L16.2754 19.1611C15.5355 19.1928 14.7696 19.2165 13.9834 19.2314C13.1863 19.2466 12.9733 19.2607 12.7988 19.3271C12.6239 19.3938 12.4615 19.5198 11.873 20.0244L9.69336 21.8936C9.4251 22.1236 9.08286 22.25 8.72949 22.25C7.91249 22.2498 7.25022 21.5875 7.25 20.7705V19.1396C6.26419 19.0959 5.43456 19.0483 4.74121 18.9082C3.90049 18.7383 3.20788 18.4254 2.59766 17.8105C1.4236 16.6275 1.37242 15.1512 1.29785 13.0002L1.29004 12.7764C1.26409 12.0409 1.25 11.2795 1.25 10.5C1.25 9.72053 1.26409 8.95905 1.29004 8.22363L1.29785 7.99977C1.37242 5.84878 1.4236 4.37252 2.59766 3.18945C3.20788 2.57464 3.90049 2.26171 4.74121 2.0918C5.5282 1.93276 6.49109 1.8916 7.65843 1.8417L7.72461 1.83887C9.0745 1.78112 10.5108 1.75 12 1.75C13.4892 1.75 14.9255 1.78112 16.2754 1.83887L16.3416 1.8417C17.5089 1.8916 18.4718 1.93276 19.2588 2.0918C20.0995 2.26171 20.7921 2.57464 21.4023 3.18945C22.5764 4.37252 22.6276 5.84879 22.7022 7.99979L22.71 8.22363C22.7359 8.95905 22.75 9.72053 22.75 10.5Z" fill="currentColor" />
    <path d="M9.49999 8.50001C9.49999 8.00051 9.49819 7.72633 9.47265 7.53614C9.4723 7.53351 9.47105 7.53085 9.4707 7.52833C9.46852 7.52803 9.46612 7.52766 9.46386 7.52735C9.27368 7.50181 8.99949 7.50001 8.49999 7.50001C8.00049 7.50001 7.72631 7.50181 7.53613 7.52735C7.53354 7.5277 7.53079 7.52798 7.52831 7.52833C7.52797 7.53081 7.52768 7.53355 7.52734 7.53614C7.50179 7.72633 7.49999 8.00051 7.49999 8.50001C7.49999 8.99951 7.50179 9.27369 7.52734 9.46388C7.52764 9.46613 7.52801 9.46854 7.52831 9.47071C7.53083 9.47106 7.53349 9.47231 7.53613 9.47266C7.72631 9.49821 8.00049 9.50001 8.49999 9.50001H9.49999V8.50001ZM11.5 11.3984C11.5 11.8969 11.5011 12.3259 11.4746 12.6787C11.4473 13.0418 11.3868 13.4045 11.2236 13.7578C10.9247 14.4051 10.4051 14.9247 9.75781 15.2236C9.40445 15.3868 9.04183 15.4474 8.6787 15.4746C8.32592 15.5011 7.89687 15.5 7.39843 15.5C6.84615 15.5 6.39843 15.0523 6.39843 14.5C6.39843 13.9477 6.84615 13.5 7.39843 13.5C7.92721 13.5 8.26871 13.4991 8.52929 13.4795C8.77887 13.4608 8.87319 13.4293 8.91894 13.4082C9.13473 13.3086 9.30856 13.1347 9.4082 12.919C9.42926 12.8732 9.46074 12.7789 9.47949 12.5293C9.49777 12.2858 9.49984 11.9716 9.49999 11.5H8.49999C8.05686 11.5 7.62396 11.5018 7.26952 11.4541C6.88632 11.4026 6.44915 11.2773 6.08593 10.9141C5.72271 10.5509 5.59741 10.1137 5.54589 9.73048C5.49824 9.37604 5.49999 8.94314 5.49999 8.50001C5.49999 8.05687 5.49824 7.62397 5.54589 7.26954C5.59741 6.88634 5.72271 6.44916 6.08593 6.08595C6.44915 5.72273 6.88632 5.59743 7.26952 5.54591C7.62396 5.49825 8.05686 5.50001 8.49999 5.50001C8.94313 5.50001 9.37603 5.49825 9.73046 5.54591C10.1137 5.59743 10.5508 5.72273 10.9141 6.08595C11.2773 6.44916 11.4026 6.88634 11.4541 7.26954C11.5017 7.62397 11.5 8.05687 11.5 8.50001V11.3984Z" fill="currentColor" />
    <path d="M16.5 8.50001C16.5 8.00051 16.4982 7.72633 16.4726 7.53614C16.4723 7.53351 16.471 7.53085 16.4707 7.52833C16.4685 7.52803 16.4661 7.52766 16.4639 7.52735C16.2737 7.50181 15.9995 7.50001 15.5 7.50001C15.0005 7.50001 14.7263 7.50181 14.5361 7.52735C14.5335 7.5277 14.5308 7.52798 14.5283 7.52833C14.528 7.53081 14.5277 7.53355 14.5273 7.53614C14.5018 7.72633 14.5 8.00051 14.5 8.50001C14.5 8.99951 14.5018 9.27369 14.5273 9.46388C14.5276 9.46613 14.528 9.46854 14.5283 9.47071C14.5308 9.47106 14.5335 9.47231 14.5361 9.47266C14.7263 9.49821 15.0005 9.50001 15.5 9.50001H16.5V8.50001ZM18.5 11.3984C18.5 11.8969 18.5011 12.3259 18.4746 12.6787C18.4473 13.0418 18.3868 13.4045 18.2236 13.7578C17.9247 14.4051 17.4051 14.9247 16.7578 15.2236C16.4045 15.3868 16.0418 15.4474 15.6787 15.4746C15.3259 15.5011 14.8969 15.5 14.3984 15.5C13.8461 15.5 13.3984 15.0523 13.3984 14.5C13.3984 13.9477 13.8461 13.5 14.3984 13.5C14.9272 13.5 15.2687 13.4991 15.5293 13.4795C15.7789 13.4608 15.8732 13.4293 15.9189 13.4082C16.1347 13.3086 16.3086 13.1347 16.4082 12.919C16.4293 12.8732 16.4607 12.7789 16.4795 12.5293C16.4978 12.2858 16.4998 11.9716 16.5 11.5H15.5C15.0569 11.5 14.624 11.5018 14.2695 11.4541C13.8863 11.4026 13.4491 11.2773 13.0859 10.9141C12.7227 10.5509 12.5974 10.1137 12.5459 9.73048C12.4982 9.37604 12.5 8.94314 12.5 8.50001C12.5 8.05687 12.4982 7.62397 12.5459 7.26954C12.5974 6.88634 12.7227 6.44916 13.0859 6.08595C13.4491 5.72273 13.8863 5.59743 14.2695 5.54591C14.624 5.49825 15.0569 5.50001 15.5 5.50001C15.9431 5.50001 16.376 5.49825 16.7305 5.54591C17.1137 5.59743 17.5508 5.72273 17.9141 6.08595C18.2773 6.44916 18.4026 6.88634 18.4541 7.26954C18.5017 7.62397 18.5 8.05687 18.5 8.50001V11.3984Z" fill="currentColor" />
</svg>