<svg xmlns="http://www.w3.org/2000/svg" width="24" height="24" viewBox="0 0 24 24" fill="none">
    <path opacity="0.4" d="M22.2499 12C22.2499 17.6609 17.6609 22.25 11.9999 22.25C10.2447 22.25 8.5904 21.8084 7.14447 21.0293C6.38505 20.6201 5.78222 20.6112 5.23627 20.7139C4.94452 20.7688 4.66725 20.8556 4.35834 20.9531L4.3409 20.9586C4.05372 21.0493 3.71643 21.1558 3.37787 21.207C2.9555 21.2709 2.55414 21.1147 2.27924 20.8398C1.84804 20.4083 1.80197 19.788 2.00287 19.3145L2.07611 19.1318C2.43607 18.1714 2.7095 16.5536 2.27142 15.2363C1.93284 14.2181 1.74994 13.1296 1.74994 12C1.74994 6.33908 6.33902 1.75 11.9999 1.75C17.6609 1.75 22.2499 6.33908 22.2499 12Z" fill="currentColor" />
</svg>