<svg xmlns="http://www.w3.org/2000/svg" width="24" height="24" viewBox="0 0 24 24" fill="none">
    <path d="M15.7081 3.71382C15.8891 3.68406 16.0739 3.68405 16.2549 3.71382C16.5833 3.76791 16.8378 3.92805 17.0469 4.09663C17.2384 4.25098 17.4475 4.45909 17.6719 4.68355L19.3165 6.32808C19.5411 6.55267 19.7499 6.76145 19.9043 6.95308C20.0731 7.16247 20.2332 7.41821 20.2872 7.74702C20.3167 7.92746 20.3167 8.11151 20.2872 8.29194C20.2332 8.62063 20.073 8.87557 19.9043 9.08491C19.7499 9.2765 19.541 9.48538 19.3165 9.70991L16.7461 12.2802C16.5362 12.4914 16.3083 12.7208 16.0362 12.8486C15.5828 13.0613 15.0579 13.0613 14.6045 12.8486C14.4359 12.7694 14.3004 12.6619 14.1895 12.5634L11.4366 9.81148C11.3381 9.70066 11.2306 9.56506 11.1514 9.39644C10.9384 8.94283 10.9384 8.41743 11.1514 7.96382C11.2791 7.69185 11.5087 7.46375 11.7198 7.25386L14.2901 4.68355C14.5145 4.4591 14.7236 4.25101 14.9151 4.09663C15.1243 3.92798 15.3795 3.76786 15.7081 3.71382Z" fill="currentColor" />
    <path opacity="0.4" d="M13.3045 13.801L5.96663 21.1379C5.9611 21.1434 5.95572 21.1492 5.95003 21.1545C5.08535 21.9668 3.73227 21.9455 2.89338 21.1066C2.0545 20.2678 2.03326 18.9147 2.84553 18.05C2.85088 18.0443 2.85661 18.0389 2.86213 18.0334L10.199 10.6955L13.3045 13.801ZM20.4529 10.6945C21.172 12.2493 21.5056 13.7167 21.6502 14.8996C21.7516 15.7292 21.7602 16.4223 21.743 16.9123C21.7343 17.1575 21.7078 17.5264 21.6785 17.717C21.6299 18.032 21.3874 18.2819 21.074 18.34C20.7608 18.3981 20.4443 18.2521 20.2859 17.9758C20.2478 17.9132 20.1372 17.7297 20.0545 17.6018C19.889 17.3459 19.6306 16.963 19.2674 16.465C18.7859 15.805 18.1196 14.9428 17.2381 13.9094L20.4529 10.6945ZM7.08772 2.25705C7.57771 2.23976 8.27083 2.24851 9.10042 2.34982C10.2833 2.4943 11.7507 2.82813 13.3055 3.54709L10.0896 6.76193C9.0565 5.88069 8.19491 5.21408 7.53499 4.73263C7.03709 4.3694 6.65411 4.111 6.39827 3.94552C6.27033 3.86277 6.02717 3.71505 6.02717 3.71505L6.02522 3.71408C5.74853 3.55578 5.60189 3.23945 5.65999 2.92599C5.71818 2.61269 5.96811 2.37012 6.28303 2.3215H6.28499C6.51943 2.27759 6.84266 2.26569 7.08772 2.25705Z" fill="currentColor" />
</svg>