<svg xmlns="http://www.w3.org/2000/svg" width="24" height="24" viewBox="0 0 24 24" fill="none">
    <path d="M18.5005 13.25C18.9145 13.2503 19.2505 13.586 19.2505 14V14.583H20.063C21.0396 14.5833 21.7504 15.4131 21.7505 16.333V17C21.7505 17.3624 21.6401 17.7109 21.4468 18C21.64 18.2892 21.7505 18.6377 21.7505 19V19.667C21.7503 20.5869 21.0395 21.4168 20.063 21.417H19.2505V22C19.2505 22.414 18.9145 22.7498 18.5005 22.75C18.0864 22.75 17.7506 22.4142 17.7505 22V21.417H16.0005C15.5865 21.417 15.2508 21.081 15.2505 20.667C15.2505 20.2528 15.5863 19.917 16.0005 19.917H16.188V16.083H16.0005C15.5863 16.083 15.2505 15.7473 15.2505 15.333C15.2506 14.9189 15.5864 14.583 16.0005 14.583H17.7505V14C17.7505 13.5858 18.0863 13.25 18.5005 13.25ZM17.688 19.917H20.063C20.1219 19.9167 20.2503 19.8506 20.2505 19.667V19C20.2505 18.8161 20.1219 18.7504 20.063 18.75H17.688V19.917ZM17.688 17.25H20.063C20.1219 17.2497 20.2505 17.1839 20.2505 17V16.333C20.2504 16.1493 20.1219 16.0834 20.063 16.083H17.688V17.25ZM15.7066 2.71388C15.8875 2.68412 16.0725 2.68415 16.2535 2.71388C16.582 2.76792 16.8372 2.92804 17.0464 3.0967C17.2379 3.25109 17.447 3.46008 17.6714 3.68459L19.315 5.32814C19.5397 5.55279 19.7494 5.76147 19.9038 5.95314C20.0726 6.16253 20.2327 6.41828 20.2867 6.74709C20.3162 6.92751 20.3162 7.1116 20.2867 7.29201C20.2328 7.62058 20.0725 7.87568 19.9038 8.08498C19.7494 8.27666 19.5397 8.48629 19.315 8.71095L16.7456 11.2803C16.5356 11.4916 16.307 11.7209 16.0347 11.8487C15.5814 12.0613 15.0573 12.0614 14.604 11.8487C14.4355 11.7696 14.2999 11.663 14.189 11.5645L11.4361 8.81154C11.3376 8.70072 11.2301 8.56513 11.1509 8.3965C10.9379 7.9429 10.9379 7.41749 11.1509 6.96388C11.2786 6.6921 11.5083 6.46469 11.7193 6.2549L14.2896 3.68459C14.5141 3.46005 14.7231 3.2511 14.9146 3.0967C15.1237 2.92813 15.3783 2.76799 15.7066 2.71388Z" fill="currentColor" />
    <path opacity="0.4" d="M13.3045 12.801L5.96663 20.1379C5.9611 20.1434 5.95572 20.1492 5.95003 20.1545C5.08535 20.9668 3.73227 20.9455 2.89338 20.1066C2.0545 19.2678 2.03326 17.9147 2.84553 17.05C2.85088 17.0443 2.85661 17.0389 2.86213 17.0334L10.199 9.69552L13.3045 12.801ZM20.4529 9.69455C21.0882 11.0681 21.4226 12.3736 21.5916 13.4748C21.2855 13.3038 20.9433 13.182 20.5721 13.1232C20.2302 12.3164 19.4313 11.7502 18.4998 11.7502C18.4646 11.7502 18.4292 11.7505 18.3943 11.7522L20.4529 9.69455ZM7.08772 1.25705C7.57771 1.23976 8.27083 1.24851 9.10042 1.34982C10.2833 1.4943 11.7507 1.82813 13.3055 2.54709L10.0896 5.76193C9.0565 4.88069 8.19491 4.21408 7.53499 3.73263C7.03709 3.3694 6.65411 3.111 6.39827 2.94552C6.27033 2.86277 6.02717 2.71505 6.02717 2.71505L6.02522 2.71408C5.74853 2.55578 5.60189 2.23945 5.65999 1.92599C5.71818 1.61269 5.96811 1.37012 6.28303 1.3215H6.28499C6.51943 1.27759 6.84266 1.26569 7.08772 1.25705Z" fill="currentColor" />
</svg>