<svg xmlns="http://www.w3.org/2000/svg" width="24" height="24" viewBox="0 0 24 24" fill="none">
    <path opacity="0.4" d="M15.235 7.5C15.4323 7.5 15.5313 7.5004 15.6686 7.51953C15.9445 7.55806 16.3469 7.72051 16.5719 7.88477C16.6837 7.96639 16.7341 8.01506 16.8346 8.1123C19.2498 10.4501 20.8798 13.5817 21.4332 16.8955C21.7165 18.5918 21.0613 20.0805 19.9361 21.1201C18.8223 22.1492 17.2433 22.7499 15.5963 22.75H8.40196C6.7548 22.75 5.17506 22.1493 4.06114 21.1201C2.93606 20.0805 2.28179 18.5917 2.56504 16.8955C3.23515 12.8831 5.31917 9.89715 7.13731 8.1377C7.22971 8.04827 7.32228 7.96077 7.42637 7.88477C7.65139 7.72047 8.05371 7.55801 8.32969 7.51953C8.46702 7.50039 8.56582 7.5 8.76328 7.5H15.235Z" fill="currentColor" />
    <path d="M11.9998 1.25C12.6469 1.25003 13.1119 1.65917 13.3582 1.90625C13.6567 2.20579 13.8944 2.65409 14.2732 2.85449C14.5864 3.02016 14.9909 2.85875 15.3035 2.77734C15.6013 2.69981 16.0551 2.58259 16.5359 2.64648C16.7449 2.6743 17.0197 2.74063 17.2322 2.92969C17.4838 3.1537 17.5248 3.43281 17.4881 3.64355C17.4433 3.89983 17.2845 4.11052 17.1287 4.31055L16.2361 5.45996C16.0061 5.75686 15.778 6.06173 15.4724 6.28613C15.2462 6.45222 14.9602 6.49997 14.6795 6.5H9.32011C9.03929 6.49998 8.75251 6.45235 8.52617 6.28613C8.22079 6.06177 7.99334 5.75672 7.76347 5.45996L6.87089 4.31055C6.71506 4.11049 6.55628 3.89986 6.51152 3.64355C6.47482 3.4328 6.51578 3.15371 6.76738 2.92969C6.97977 2.7408 7.25377 2.67433 7.46269 2.64648C7.94377 2.58245 8.39815 2.69979 8.69609 2.77734C9.00868 2.85875 9.41314 3.02017 9.72636 2.85449C10.1051 2.65406 10.3429 2.20576 10.6414 1.90625C10.8877 1.65915 11.3527 1.25 11.9998 1.25Z" fill="currentColor" />
</svg>