<svg xmlns="http://www.w3.org/2000/svg" width="24" height="24" viewBox="0 0 24 24" fill="none">
    <path d="M19.3746 10.875C19.6825 10.875 19.9732 11.017 20.1627 11.2598C20.3521 11.5024 20.4189 11.8185 20.3443 12.1172L20.0943 13.1172C19.983 13.5624 19.5835 13.875 19.1246 13.875H17.6246C17.1657 13.875 16.7662 13.5624 16.6549 13.1172L16.4049 12.1172C16.3303 11.8185 16.3971 11.5024 16.5865 11.2598C16.776 11.017 17.0667 10.875 17.3746 10.875H19.3746Z" fill="currentColor" />
    <path d="M20.875 14.875C20.875 14.1396 20.873 13.6887 20.8291 13.3623C20.7891 13.0648 20.7314 13.0244 20.7285 13.0215C20.7256 13.0186 20.6853 12.9609 20.3877 12.9209C20.0614 12.877 19.6104 12.875 18.875 12.875H17.875C17.1396 12.875 16.6887 12.877 16.3623 12.9209C16.0648 12.9609 16.0244 13.0186 16.0215 13.0215C16.0186 13.0244 15.9609 13.0648 15.9209 13.3623C15.877 13.6887 15.875 14.1396 15.875 14.875V18.875C15.875 19.6104 15.877 20.0614 15.9209 20.3877C15.9609 20.6853 16.0186 20.7256 16.0215 20.7285C16.0244 20.7314 16.0648 20.7891 16.3623 20.8291C16.6887 20.873 17.1396 20.875 17.875 20.875H18.875C19.6104 20.875 20.0614 20.873 20.3877 20.8291C20.6853 20.7891 20.7256 20.7314 20.7285 20.7285C20.7314 20.7256 20.7891 20.6853 20.8291 20.3877C20.873 20.0614 20.875 19.6104 20.875 18.875V14.875ZM22.875 18.875C22.875 19.5538 22.8775 20.1637 22.8115 20.6543C22.7417 21.1736 22.579 21.7062 22.1426 22.1426C21.7062 22.579 21.1736 22.7417 20.6543 22.8115C20.1637 22.8775 19.5538 22.875 18.875 22.875H17.875C17.1962 22.875 16.5863 22.8775 16.0957 22.8115C15.5764 22.7417 15.0438 22.579 14.6074 22.1426C14.171 21.7062 14.0083 21.1736 13.9385 20.6543C13.8725 20.1637 13.875 19.5538 13.875 18.875V14.875C13.875 14.1962 13.8725 13.5863 13.9385 13.0957C14.0083 12.5764 14.171 12.0438 14.6074 11.6074C15.0438 11.171 15.5764 11.0083 16.0957 10.9385C16.5863 10.8725 17.1962 10.875 17.875 10.875H18.875C19.5538 10.875 20.1637 10.8725 20.6543 10.9385C21.1736 11.0083 21.7062 11.171 22.1426 11.6074C22.579 12.0438 22.7417 12.5764 22.8115 13.0957C22.8775 13.5863 22.875 14.1962 22.875 14.875V18.875Z" fill="currentColor" />
    <path opacity="0.4" fill-rule="evenodd" clip-rule="evenodd" d="M10.875 15.625H12.625V14.875L12.625 14.7768C12.6248 14.1602 12.6245 13.4928 12.7002 12.9297C12.7887 12.2717 13.0162 11.431 13.7236 10.7236C14.431 10.0162 15.2717 9.78866 15.9297 9.7002C16.4928 9.62452 17.1602 9.62476 17.7768 9.62498L17.875 9.625H18.875L18.9732 9.62498C19.5898 9.62476 20.2572 9.62452 20.8203 9.7002C21.0682 9.73352 21.3419 9.78658 21.6247 9.87759C21.625 9.71325 21.625 9.54422 21.625 9.37082V9.31048V7.43952V7.37913C21.625 6.10405 21.625 5.07582 21.5142 4.26673C21.3988 3.42469 21.1514 2.71584 20.5775 2.15276C20.0035 1.58967 19.281 1.34693 18.4228 1.23372C17.5981 1.12495 16.55 1.12497 15.2503 1.125H15.189H7.56105H7.49966C6.19997 1.12497 5.1519 1.12495 4.3272 1.23372C3.46895 1.34693 2.74646 1.58967 2.17254 2.15276C1.59862 2.71584 1.3512 3.42469 1.23581 4.26673C1.12495 5.07586 1.12497 6.10414 1.125 7.37929V7.43952V9.31048V9.37072C1.12497 10.6459 1.12495 11.6741 1.23581 12.4833C1.3512 13.3253 1.59862 14.0342 2.17254 14.5972C2.74646 15.1603 3.46895 15.4031 4.3272 15.5163C5.15187 15.625 6.19994 15.625 7.49957 15.625H7.56105H8.875V17.625H7.375C6.82272 17.625 6.375 18.0727 6.375 18.625C6.375 19.1773 6.82272 19.625 7.375 19.625H11.375C11.9273 19.625 12.375 19.1773 12.375 18.625C12.375 18.0727 11.9273 17.625 11.375 17.625H10.875V15.625Z" fill="currentColor" />
</svg>