<svg xmlns="http://www.w3.org/2000/svg" width="24" height="24" viewBox="0 0 24 24" fill="none">
    <path d="M16 19.75C16.5523 19.75 17 20.1977 17 20.75C17 21.3023 16.5523 21.75 16 21.75H8C7.44772 21.75 7 21.3023 7 20.75C7 20.1977 7.44772 19.75 8 19.75H16Z" fill="currentColor" />
    <path fill-rule="evenodd" clip-rule="evenodd" d="M13 17.75H15V20.75H13V17.75ZM11 17.75H9V20.75H11V17.75Z" fill="currentColor" />
    <path opacity="0.4" d="M22.75 11.0645V11V9V8.93545C22.75 7.57243 22.7501 6.47329 22.6338 5.6084C22.5128 4.70829 22.2533 3.95055 21.6514 3.34863C21.0495 2.74672 20.2917 2.48723 19.3916 2.36621C18.5267 2.24995 17.4275 2.24997 16.0644 2.25H16H8H7.93562C6.57252 2.24997 5.47333 2.24995 4.6084 2.36621C3.70829 2.48723 2.95055 2.74672 2.34863 3.34863C1.74672 3.95055 1.48723 4.70829 1.36621 5.6084C1.24995 6.47333 1.24997 7.57252 1.25 8.93562V9V11V11.0644C1.24997 12.4275 1.24995 13.5267 1.36621 14.3916C1.48723 15.2917 1.74672 16.0495 2.34863 16.6514C2.95055 17.2533 3.70829 17.5128 4.6084 17.6338C5.47331 17.7501 6.57251 17.75 7.93557 17.75H8H9.5H11.5H12.5H14.5H16H16.0645C17.4275 17.75 18.5267 17.7501 19.3916 17.6338C20.2917 17.5128 21.0495 17.2533 21.6514 16.6514C22.2533 16.0495 22.5128 15.2917 22.6338 14.3916C22.7501 13.5267 22.75 12.4275 22.75 11.0645Z" fill="currentColor" />
</svg>