<svg xmlns="http://www.w3.org/2000/svg" width="24" height="24" viewBox="0 0 24 24" fill="none">
    <path d="M16 19.75C16.5523 19.75 17 20.1977 17 20.75C17 21.3023 16.5523 21.75 16 21.75H8C7.44772 21.75 7 21.3023 7 20.75C7 20.1977 7.44772 19.75 8 19.75H16Z" fill="currentColor" />
    <path fill-rule="evenodd" clip-rule="evenodd" d="M13 17.75H15V20.75H13V17.75ZM11 17.75H9V20.75H11V17.75Z" fill="currentColor" />
    <path d="M11.1279 13.7275C11.3086 13.8364 11.6228 14 12.0001 14C12.3774 14 12.6916 13.8364 12.8723 13.7275C13.0804 13.6021 13.2821 13.4418 13.4645 13.2806C13.8315 12.9564 14.2152 12.5431 14.5516 12.1556C14.8924 11.7631 15.2048 11.3736 15.4308 11.084C15.5427 10.9406 15.7352 10.6858 15.8025 10.5967L15.8051 10.5932C16.1326 10.1485 16.0378 9.52231 15.5931 9.1948C15.1484 8.86732 14.5225 8.96228 14.1949 9.40689C13.982 9.67977 13.3105 10.5343 13.0001 10.8919V7C13.0001 6.44772 12.5524 6 12.0001 6C11.4478 6 11.0001 6.44772 11.0001 7V10.8919L9.80526 9.40701C9.47772 8.9624 8.85171 8.86734 8.40705 9.19483C7.96235 9.52235 7.86736 10.1483 8.19488 10.593L8.19767 10.5967C8.26502 10.6859 8.45747 10.9407 8.5693 11.084C8.79533 11.3736 9.10776 11.7632 9.44852 12.1556C9.78497 12.5431 10.1687 12.9564 10.5357 13.2806C10.718 13.4418 10.9198 13.6021 11.1279 13.7275Z" fill="currentColor" />
    <path opacity="0.4" d="M19.3918 2.36652C18.5248 2.24996 17.4225 2.24998 16.0549 2.25H7.94513C6.57754 2.24998 5.47521 2.24996 4.60825 2.36652C3.70814 2.48754 2.95027 2.74643 2.34835 3.34835C1.74643 3.95027 1.48754 4.70814 1.36652 5.60825C1.24996 6.47521 1.24998 7.57753 1.25 8.94511V11.0549C1.24998 12.4225 1.24996 13.5248 1.36652 14.3918C1.48754 15.2919 1.74643 16.0497 2.34835 16.6517C2.95027 17.2536 3.70814 17.5125 4.60825 17.6335C5.47521 17.75 6.57753 17.75 7.94511 17.75H9H11H13H15H16.0549C17.4224 17.75 18.5248 17.75 19.3918 17.6335C20.2919 17.5125 21.0497 17.2536 21.6517 16.6517C22.2536 16.0497 22.5125 15.2919 22.6335 14.3918C22.75 13.5248 22.75 12.4225 22.75 11.0549V8.94513C22.75 7.57754 22.75 6.47522 22.6335 5.60825C22.5125 4.70814 22.2536 3.95027 21.6517 3.34835C21.0497 2.74643 20.2919 2.48754 19.3918 2.36652Z" fill="currentColor" />
</svg>