<svg xmlns="http://www.w3.org/2000/svg" width="24" height="24" viewBox="0 0 24 24" fill="none">
    <path opacity="0.4" d="M18.0266 9.64989C19.4271 10.1979 20.551 10.6377 21.3132 11.0577C21.701 11.2714 22.056 11.5116 22.3146 11.8043C22.5906 12.1167 22.7702 12.5067 22.7456 12.9676C22.7209 13.4303 22.4985 13.7994 22.1897 14.0802C21.9001 14.3436 21.5198 14.5449 21.109 14.7166C20.3011 15.0544 19.0685 15.3905 17.6063 15.7893L17.6062 15.7893C17.1417 15.916 16.845 15.9978 16.6226 16.0823C16.4152 16.1612 16.33 16.2222 16.2751 16.2771C16.2202 16.3321 16.1592 16.4172 16.0803 16.6246C15.9958 16.847 15.914 17.1438 15.7873 17.6082L15.7873 17.6083C15.3885 19.0705 15.0524 20.3032 14.7146 21.111C14.5428 21.5218 14.3415 21.9022 14.0782 22.1917C13.7974 22.5006 13.4283 22.7229 12.9656 22.7476C12.5047 22.7722 12.1147 22.5926 11.8023 22.3167C11.5096 22.058 11.2694 21.7031 11.0557 21.3152C10.6356 20.553 10.1959 19.4291 9.64788 18.0286L9.64787 18.0286L7.63342 12.8806L7.63342 12.8805C7.05978 11.4146 6.59855 10.236 6.3854 9.32842C6.17421 8.42916 6.13199 7.49573 6.81285 6.81487C7.49372 6.13401 8.42715 6.17622 9.3264 6.38741C10.234 6.60056 11.4126 7.0618 12.8785 7.63544L18.0266 9.64989L18.0266 9.64989Z" fill="currentColor" />
    <path fill-rule="evenodd" clip-rule="evenodd" d="M8.97237 1.25024C9.50561 1.25024 9.93789 1.68252 9.93789 2.21576V4.1468C9.93789 4.68004 9.50561 5.11231 8.97237 5.11231C8.43913 5.11231 8.00685 4.68004 8.00685 4.1468V2.21576C8.00685 1.68252 8.43913 1.25024 8.97237 1.25024ZM2.9793 2.98131C3.35636 2.60426 3.96769 2.60426 4.34475 2.98131L5.79302 4.42959C6.17008 4.80665 6.17008 5.41798 5.79302 5.79504C5.41596 6.17209 4.80463 6.17209 4.42758 5.79504L2.9793 4.34676C2.60224 3.9697 2.60224 3.35837 2.9793 2.98131ZM14.9654 2.98131C15.3425 3.35837 15.3425 3.9697 14.9654 4.34676L13.5172 5.79504C13.1401 6.17209 12.5288 6.17209 12.1517 5.79504C11.7747 5.41798 11.7747 4.80665 12.1517 4.42959L13.6 2.98131C13.977 2.60426 14.5884 2.60426 14.9654 2.98131ZM1.24823 8.97438C1.24823 8.44114 1.68051 8.00886 2.21375 8.00886H4.14478C4.67802 8.00886 5.1103 8.44114 5.1103 8.97438C5.1103 9.50762 4.67802 9.9399 4.14478 9.9399H2.21375C1.68051 9.9399 1.24823 9.50762 1.24823 8.97438ZM5.79302 12.1537C6.17008 12.5308 6.17008 13.1421 5.79302 13.5192L4.34475 14.9675C3.96769 15.3445 3.35636 15.3445 2.9793 14.9675C2.60224 14.5904 2.60224 13.9791 2.9793 13.602L4.42758 12.1537C4.80463 11.7767 5.41596 11.7767 5.79302 12.1537Z" fill="currentColor" />
</svg>