<svg xmlns="http://www.w3.org/2000/svg" width="24" height="24" viewBox="0 0 24 24" fill="none">
    <path opacity="0.4" d="M3.25058 3.33557C3.83169 2.71733 4.63433 2.6869 5.4 2.80335C6.15435 2.91809 7.12727 3.21661 8.31431 3.58084L8.39023 3.60413L16.2389 6.01233L16.285 6.02648C17.2674 6.32786 18.0634 6.57206 18.6451 6.81995C19.2125 7.06175 19.7766 7.38398 20.0436 7.96057C20.2557 8.41883 20.3079 8.9357 20.193 9.42737C20.0483 10.0453 19.5627 10.4766 19.0562 10.8297C18.5395 11.19 17.814 11.59 16.9189 12.0836L16.8639 12.1139C16.8327 12.1311 16.8038 12.1472 16.7768 12.1624L16.7359 12.1852L16.763 12.2123C16.7871 12.2365 16.8131 12.2626 16.8414 12.2907L19.8727 15.2994L19.8988 15.3254C20.2092 15.6335 20.4772 15.8994 20.6773 16.1373C20.8897 16.3898 21.0746 16.6657 21.1686 17.0065C21.277 17.4 21.277 17.816 21.1686 18.2096C21.0746 18.5504 20.8897 18.8263 20.6773 19.0787C20.4773 19.3166 20.2097 19.5822 19.8994 19.8901L19.8727 19.9166L19.8475 19.9416C19.5456 20.2412 19.2847 20.5003 19.0514 20.694C18.8039 20.8994 18.5334 21.079 18.1998 21.1705C17.8137 21.2764 17.4062 21.2764 17.0201 21.1705C16.6865 21.079 16.416 20.8994 16.1686 20.694C15.9353 20.5003 15.6742 20.2412 15.3724 19.9416L15.3473 19.9166L12.1236 16.7174C11.8132 17.3549 11.5618 17.8709 11.3394 18.2535C11.1257 18.6213 10.8717 18.9902 10.5074 19.2096C9.72371 19.6815 8.73387 19.628 8.00546 19.0748C7.66702 18.8178 7.45337 18.4244 7.27988 18.0358C7.10375 17.6412 6.91433 17.1167 6.68131 16.4714L6.65976 16.4117L3.7955 8.48011L3.77059 8.41115C3.34484 7.2325 2.99658 6.26837 2.84238 5.51526C2.68651 4.7539 2.67238 3.95111 3.25058 3.33557Z" fill="currentColor" />
</svg>