<svg xmlns="http://www.w3.org/2000/svg" width="24" height="24" viewBox="0 0 24 24" fill="none">
    <path d="M13.904 3.21421C15.8567 1.26144 19.022 1.26144 20.9748 3.21421C22.9276 5.16698 22.9276 8.33229 20.9748 10.2851C19.022 12.2378 15.8567 12.2378 13.904 10.2851C11.9512 8.33229 11.9512 5.16698 13.904 3.21421ZM16.1473 9.45492C17.2625 9.98754 18.637 9.79454 19.5606 8.87089C20.4843 7.94724 20.6773 6.57272 20.1447 5.45754L16.1473 9.45492ZM18.7305 4.04337C17.6155 3.51145 16.2415 3.70506 15.3181 4.62838C14.3948 5.5517 14.2012 6.92578 14.7331 8.04075L18.7305 4.04337Z" fill="currentColor" />
    <path opacity="0.4" d="M18.4912 13.06C17.4169 13.2295 16.3072 13.1214 15.2778 12.7357C14.4574 12.4283 13.688 11.9445 13.0281 11.2844C12.2968 10.553 11.782 9.6871 11.4837 8.76636C11.2994 8.19746 11.1977 7.60762 11.1786 7.01562L8.71583 6.05168L8.66201 6.03061C7.07231 5.40837 5.79969 4.91025 4.82167 4.68046C3.85385 4.4531 2.87011 4.41307 2.15507 5.1283C1.44002 5.84354 1.48004 6.82753 1.70734 7.7956C1.93707 8.77388 2.43506 10.0468 3.05714 11.6369L3.0782 11.6908L5.20219 17.1203L5.22498 17.1785C5.818 18.6945 6.29209 19.9064 6.74404 20.7268C6.97365 21.1435 7.23017 21.521 7.53967 21.7945C7.86908 22.0855 8.27778 22.273 8.75932 22.2473C9.24266 22.2213 9.62942 21.9888 9.92559 21.663C10.204 21.3566 10.419 20.9518 10.6036 20.5103C10.9662 19.6427 11.3097 18.3826 11.7398 16.8051L11.759 16.7347C11.8955 16.2343 11.9849 15.9109 12.0773 15.668C12.1638 15.4402 12.2325 15.3407 12.2986 15.2745C12.3648 15.2084 12.4643 15.1397 12.692 15.0531C12.9349 14.9607 13.2581 14.8712 13.7585 14.7347L13.8289 14.7155C15.4059 14.2853 16.6657 13.9417 17.533 13.579C17.8865 13.4312 18.2165 13.2638 18.4912 13.06Z" fill="currentColor" />
</svg>