<svg xmlns="http://www.w3.org/2000/svg" width="24" height="24" viewBox="0 0 24 24" fill="none">
    <path d="M2 2.00012L22 22.0001" stroke="currentColor" stroke-width="2" stroke-linecap="round" />
    <path opacity="0.4" d="M12.0015 1.25012C15.2246 1.25012 17.3589 2.48254 18.6388 4.54604C19.8766 6.54164 20.2515 9.21539 20.2515 12.0001C20.2515 13.6068 20.1267 15.1766 19.7834 16.6005L12.7935 9.61067C12.9239 9.44177 13.0015 9.23001 13.0015 9.00012V6.00012C13.0015 5.44784 12.5538 5.00012 12.0015 5.00012C11.4492 5.00012 11.0015 5.44784 11.0015 6.00012V7.81863L6.41406 3.23121C7.71011 1.97023 9.53766 1.25012 12.0015 1.25012Z" fill="currentColor" />
    <path d="M18.6373 19.4542C17.3574 21.5177 15.2231 22.7501 12 22.7501C8.7768 22.7501 6.64252 21.5177 5.36262 19.4542C4.12483 17.4586 3.75 14.7848 3.75 12.0001C3.75 9.45096 4.06408 6.99485 5.06665 5.06677L18.9333 18.9333C18.8407 19.1116 18.7421 19.2853 18.6373 19.4542Z" fill="currentColor" />
</svg>