<svg xmlns="http://www.w3.org/2000/svg" width="24" height="24" viewBox="0 0 24 24" fill="none">
    <path opacity="0.4" d="M16.1689 6.31543C17.8585 6.97658 19.1997 7.50138 20.1057 8.00062C20.5655 8.25395 20.9739 8.53231 21.2674 8.86453C21.5783 9.21639 21.7742 9.64722 21.7472 10.1532C21.7201 10.6609 21.477 11.0689 21.129 11.3853C20.8003 11.6843 20.3623 11.9179 19.8752 12.1216C18.9148 12.5231 17.5157 12.9047 15.7517 13.3857C15.1971 13.537 14.7713 13.654 14.496 13.7586C14.2358 13.8576 14.1125 13.9403 14.0263 14.0265C13.9402 14.1127 13.8574 14.2359 13.7584 14.4962C13.6538 14.7715 13.5368 15.1973 13.3856 15.7519C12.9045 17.5159 12.5229 18.915 12.1214 19.8754C11.9178 20.3625 11.6841 20.8004 11.3851 21.1292C11.0687 21.4772 10.6607 21.7203 10.153 21.7474C9.64704 21.7744 9.21621 21.5785 8.86435 21.2676C8.53212 20.9741 8.25377 20.5656 8.00044 20.1059C7.5012 19.1999 6.97639 17.8587 6.31525 16.1691L3.90642 10.0132C3.21433 8.24457 2.66407 6.83841 2.41077 5.75984C2.15941 4.68954 2.12596 3.64174 2.88376 2.88394C3.64155 2.12614 4.68936 2.15959 5.75965 2.41095C6.83822 2.66426 8.24439 3.21451 10.013 3.9066L10.013 3.9066L16.1689 6.31543Z" fill="currentColor" />
    <path d="M14.0263 14.0256C13.9402 14.1118 13.8574 14.2351 13.7584 14.4953C13.6538 14.7706 13.5368 15.1964 13.3856 15.751C12.9045 17.515 12.5229 18.9141 12.1214 19.8745C11.9178 20.3616 11.6841 20.7996 11.3851 21.1283C11.0687 21.4763 10.6607 21.7194 10.153 21.7465C9.64704 21.7735 9.21621 21.5776 8.86435 21.2667C8.53212 20.9732 8.25377 20.5648 8.00044 20.105C7.5012 19.199 6.97639 17.8578 6.31525 16.1682L3.90642 10.0123C3.21433 8.24369 2.66407 6.83753 2.41077 5.75896C2.15941 4.68866 2.12596 3.64085 2.88376 2.88306L14.0263 14.0256Z" fill="currentColor" />
</svg>