<svg xmlns="http://www.w3.org/2000/svg" width="24" height="24" viewBox="0 0 24 24" fill="none">
    <path opacity="0.4" d="M20.5148 2.16989C20.243 2.08757 19.9514 2.04489 19.6711 2.02242C19.1114 1.9776 18.4719 2.00584 17.8693 2.05563C17.3115 2.10172 16.7462 2.16986 16.2598 2.22848L16.1301 2.2441C15.5874 2.30932 15.2045 2.35236 14.9885 2.35543C14.4364 2.36352 13.9953 2.81703 14.0031 3.3691C14.011 3.92133 14.4655 4.3623 15.0178 4.35446C15.3646 4.34948 15.8708 4.28924 16.3683 4.22946L16.4786 4.21619C16.9745 4.15649 17.5093 4.09211 18.0334 4.04879C18.2214 4.03326 18.4031 4.0209 18.5766 4.01245L4.01229 18.5767C4.02074 18.4023 4.03316 18.2194 4.04879 18.0302C4.09209 17.5063 4.15645 16.9717 4.21613 16.4759L4.22945 16.3652C4.28924 15.8676 4.34948 15.3614 4.35445 15.0146C4.3623 14.4624 3.92133 14.0078 3.3691 14C2.81702 13.9921 2.36352 14.4333 2.35543 14.9853C2.35236 15.2014 2.30931 15.5842 2.2441 16.1269L2.22843 16.257C2.16982 16.7433 2.10171 17.3085 2.05563 17.8662C2.00584 18.4688 1.9776 19.1082 2.02242 19.6679C2.04489 19.9483 2.08758 20.2399 2.16988 20.5117C2.24962 20.775 2.38766 21.0927 2.64742 21.3525C2.9072 21.6123 3.22495 21.7503 3.48824 21.83C3.76008 21.9124 4.05164 21.955 4.33199 21.9775C4.89171 22.0223 5.53115 21.9941 6.13375 21.9443C6.69154 21.8982 7.25676 21.8301 7.74308 21.7715L7.87301 21.7558C8.41571 21.6906 8.79852 21.6476 9.01461 21.6445C9.56662 21.6364 10.0078 21.1829 9.99996 20.6308C9.99211 20.0786 9.53754 19.6376 8.98531 19.6455C8.63848 19.6504 8.13229 19.7107 7.63473 19.7705L7.52431 19.7838C7.02853 19.8434 6.49368 19.9078 5.96969 19.9511C5.78289 19.9666 5.60225 19.9789 5.42982 19.9873L19.9906 5.42651C19.9822 5.59994 19.9698 5.7817 19.9543 5.96969C19.911 6.49356 19.8466 7.02815 19.787 7.52384L19.7736 7.63473C19.7138 8.13229 19.6536 8.63848 19.6486 8.98531C19.6408 9.53754 20.0817 9.99212 20.634 9.99996C21.186 10.0078 21.6396 9.56663 21.6476 9.01461C21.6507 8.79852 21.6938 8.41571 21.759 7.87301L21.7746 7.74296C21.8332 7.25667 21.9014 6.69149 21.9474 6.13375C21.9972 5.53116 22.0255 4.89171 21.9806 4.33199C21.9582 4.05165 21.9155 3.76006 21.8332 3.48824C21.7634 3.25797 21.6488 2.98632 21.4474 2.74801L21.3556 2.64742L21.2551 2.55563C21.0167 2.35426 20.7451 2.23962 20.5148 2.16989Z" fill="currentColor" />
</svg>