<svg xmlns="http://www.w3.org/2000/svg" width="24" height="24" viewBox="0 0 24 24" fill="none">
    <path opacity="0.4" d="M11.0022 3.99989C11.0022 3.4477 11.45 3.00004 12.0022 2.99989C12.5545 2.99989 13.0022 3.44761 13.0022 3.99989V18.2108C13.285 17.9288 13.5875 17.5961 13.8957 17.2323C14.3571 16.6878 14.8078 16.1107 15.217 15.5897C15.6084 15.0915 15.9941 14.6023 16.2854 14.3026C16.6704 13.9069 17.3035 13.8983 17.6995 14.2831C18.0953 14.6681 18.1038 15.3012 17.719 15.6972C17.5188 15.9032 17.2085 16.2923 16.7893 16.8261C16.3879 17.3371 15.9125 17.9466 15.4221 18.5253C14.9352 19.1 14.4039 19.6792 13.884 20.122C13.6239 20.3435 13.3432 20.5515 13.051 20.7079C12.7666 20.8601 12.4049 20.9999 12.0022 20.9999C11.5995 20.9999 11.2378 20.8601 10.9534 20.7079C10.6612 20.5515 10.3805 20.3435 10.1204 20.122C9.60052 19.6792 9.06922 19.1 8.58227 18.5253C8.0919 17.9466 7.61646 17.3371 7.21508 16.8261C6.79585 16.2923 6.48559 15.9032 6.28539 15.6972C5.90054 15.3012 5.90913 14.6681 6.30492 14.2831C6.70085 13.8983 7.33402 13.9069 7.71899 14.3026C8.01024 14.6023 8.39602 15.0915 8.78735 15.5897C9.19656 16.1107 9.64729 16.6878 10.1086 17.2323C10.4169 17.5961 10.7194 17.9288 11.0022 18.2108V3.99989Z" fill="currentColor" />
</svg>