<svg xmlns="http://www.w3.org/2000/svg" width="24" height="24" viewBox="0 0 24 24" fill="none">
    <path opacity="0.4" d="M11.0038 20V5.78809C10.7208 6.07019 10.4187 6.40353 10.1102 6.76758C9.64884 7.31206 9.19814 7.88915 8.78891 8.41016C8.39757 8.90839 8.01181 9.39761 7.72055 9.69727C7.33559 10.093 6.70243 10.1016 6.30649 9.7168C5.91074 9.33183 5.90212 8.69867 6.28696 8.30273C6.48714 8.09672 6.7975 7.70844 7.21665 7.1748C7.61811 6.66368 8.09332 6.05351 8.58383 5.47461C9.07079 4.89993 9.60209 4.32067 10.1219 3.87793C10.3821 3.65636 10.6628 3.44839 10.9549 3.29199C11.2393 3.13979 11.601 3 12.0038 3C12.4065 3.00001 12.7682 3.13979 13.0526 3.29199C13.3447 3.44839 13.6254 3.65636 13.8856 3.87793C14.4054 4.32067 14.9367 4.89994 15.4237 5.47461C15.9142 6.05351 16.3894 6.66369 16.7909 7.1748C17.21 7.70844 17.5204 8.09672 17.7206 8.30273C18.1054 8.69868 18.0968 9.33183 17.701 9.7168C17.3051 10.1016 16.6719 10.093 16.287 9.69727C15.9957 9.39761 15.6099 8.90838 15.2186 8.41016C14.8094 7.88916 14.3587 7.31206 13.8973 6.76758C13.5888 6.40353 13.2867 6.07019 13.0038 5.78809V20C13.0037 20.5522 12.556 21 12.0038 21C11.4516 20.9999 11.0038 20.5522 11.0038 20Z" fill="currentColor" />
</svg>