<svg xmlns="http://www.w3.org/2000/svg" width="24" height="24" viewBox="0 0 24 24" fill="none">
    <path opacity="0.4" d="M12.1399 2.00592C12.451 2.03206 12.7243 2.14323 12.9367 2.2569C13.1875 2.39111 13.4244 2.56736 13.6389 2.75006C14.0671 3.11479 14.5001 3.58762 14.8918 4.04987C15.2873 4.51654 15.6709 5.00806 15.9914 5.41608C16.3296 5.84655 16.5699 6.14741 16.7209 6.3028C17.1059 6.69883 17.0964 7.33192 16.7004 7.71686C16.3044 8.10176 15.6713 8.09335 15.2863 7.69733C15.0442 7.44817 14.7285 7.04654 14.4182 6.65143C14.09 6.2336 13.7326 5.77501 13.3664 5.34283C13.2431 5.19734 13.121 5.05957 13.0031 4.92975V19.0684C13.1206 18.939 13.2426 18.8022 13.3654 18.6573C13.7316 18.2252 14.089 17.7665 14.4172 17.3487C14.7276 16.9536 15.0442 16.552 15.2863 16.3028C15.6713 15.907 16.3045 15.8984 16.7004 16.2833C17.0962 16.6682 17.1048 17.3014 16.7199 17.6973C16.5689 17.8528 16.3285 18.1536 15.9904 18.584C15.67 18.9921 15.2863 19.4836 14.8908 19.9503C14.4992 20.4124 14.067 20.8854 13.6389 21.2501C13.4244 21.4327 13.1875 21.609 12.9367 21.7432C12.6938 21.8732 12.3709 22.0001 12.0031 22.0001C11.6357 22.0001 11.3134 21.8731 11.0705 21.7432C10.8197 21.609 10.582 21.4328 10.3674 21.2501C9.93928 20.8854 9.50704 20.4124 9.11545 19.9503C8.72001 19.4836 8.33632 18.9921 8.01584 18.584C7.67777 18.1536 7.43739 17.8528 7.28635 17.6973C6.9015 17.3014 6.91013 16.6682 7.30588 16.2833C7.70182 15.8984 8.33498 15.907 8.71994 16.3028C8.96212 16.552 9.27872 16.9536 9.58908 17.3487C9.91724 17.7665 10.2747 18.2251 10.6408 18.6573C10.7636 18.8022 10.8857 18.939 11.0031 19.0684V4.93073C10.8857 5.06012 10.7646 5.19789 10.6418 5.34283C10.2756 5.77502 9.91727 6.23359 9.58908 6.65143C9.27876 7.04651 8.96306 7.4482 8.72092 7.69733C8.33597 8.09326 7.70285 8.10176 7.30685 7.71686C6.91093 7.33192 6.90147 6.6988 7.28635 6.3028C7.43738 6.14741 7.6785 5.8468 8.01682 5.41608C8.33728 5.00807 8.72003 4.51651 9.11545 4.04987C9.50717 3.58758 9.9401 3.11483 10.3684 2.75006C10.5829 2.56732 10.8197 2.39114 11.0705 2.2569C11.3134 2.1269 11.6364 2.00005 12.0041 2.00006L12.1399 2.00592Z" fill="currentColor" />
</svg>