<svg xmlns="http://www.w3.org/2000/svg" width="24" height="24" viewBox="0 0 24 24" fill="none">
    <path fill-rule="evenodd" clip-rule="evenodd" d="M7.58437 16.4143C7.77499 16.6049 8.04244 16.7554 8.55881 16.8543L14.7059 10.7072C15.0964 10.3167 15.0964 9.6837 14.7059 9.29318C14.3153 8.90265 13.6823 8.90265 13.2918 9.29318L7.14447 15.4405C7.24337 15.9565 7.39383 16.2237 7.58437 16.4143Z" fill="currentColor" />
    <path opacity="0.4" d="M4.95892 5.15555L4.99954 5.10893L4.99954 12.0003L4.99954 12.0841C4.99943 13.4321 4.99934 14.5443 5.11771 15.4251C5.24239 16.3528 5.51459 17.1723 6.17044 17.8284C6.82656 18.4845 7.64688 18.7564 8.57474 18.8811C9.46148 19.0003 10.5826 19.0003 11.9428 19.0003L11.9995 19.0003L18.8917 19.0003L18.8447 19.0413C18.4871 19.3517 18.1263 19.6418 17.8535 19.8548C17.7177 19.9607 17.6047 20.0465 17.5263 20.1058L17.4072 20.1946C16.9625 20.5221 16.8677 21.1484 17.1953 21.5931C17.5227 22.0376 18.149 22.1321 18.5937 21.805L18.6035 21.7972L18.6308 21.7766L18.6478 21.764C18.6697 21.7477 18.6979 21.7267 18.7314 21.7015C18.817 21.6368 18.9386 21.5444 19.0839 21.4309C19.3735 21.205 19.7629 20.8927 20.1552 20.552C20.5426 20.2157 20.956 19.832 21.2802 19.4651C21.4413 19.2828 21.602 19.0804 21.7275 18.8724C21.8227 18.7143 21.9603 18.4542 21.9931 18.139L21.9943 18.1141L21.995 18.1L21.9999 18.0003C21.9999 17.623 21.8364 17.3089 21.7275 17.1282C21.602 16.9201 21.4413 16.7178 21.2802 16.5354C20.956 16.1686 20.5426 15.7848 20.1552 15.4485C19.7629 15.1079 19.3735 14.7956 19.0839 14.5696C18.9386 14.4562 18.817 14.3638 18.7314 14.2991C18.6981 14.274 18.6698 14.2529 18.6479 14.2366L18.6308 14.2239L18.6035 14.2034C18.6004 14.2012 18.5945 14.1959 18.5927 14.1946C18.148 13.8674 17.5217 13.9629 17.1943 14.4075C16.8875 14.8244 16.9524 15.4004 17.3281 15.7405L17.413 15.8099L17.5263 15.8948C17.6047 15.954 17.7177 16.0399 17.8535 16.1458C18.1263 16.3587 18.4871 16.6488 18.8447 16.9593L18.8917 17.0003L11.9995 17.0003C10.5573 17.0003 9.57613 16.9984 8.84134 16.8997C8.74 16.8861 8.64646 16.8709 8.55992 16.8544C8.04355 16.7554 7.7761 16.6049 7.58548 16.4143C7.39494 16.2238 7.24448 15.9566 7.14558 15.4406C7.12895 15.3539 7.11379 15.2601 7.10013 15.1585C7.00141 14.4237 6.99948 13.4425 6.99954 12.0003L6.99954 5.10803L7.04095 5.15556C7.35138 5.51308 7.64148 5.87389 7.85443 6.14677C7.96035 6.2825 8.04619 6.39551 8.10541 6.47391L8.19427 6.59306C8.52179 7.03775 9.14802 7.13248 9.59271 6.80497C10.0372 6.47754 10.1318 5.85118 9.80463 5.40653L9.79681 5.39677L9.77631 5.36942L9.76363 5.35239C9.7473 5.33043 9.72636 5.30227 9.70111 5.26884C9.63644 5.18322 9.54402 5.06162 9.4306 4.9163C9.20464 4.62675 8.89234 4.23735 8.5517 3.84501C8.21538 3.45767 7.83163 3.0442 7.46478 2.72001C7.28244 2.55889 7.0801 2.39819 6.87201 2.27274C6.71398 2.17748 6.45383 2.03996 6.13861 2.00712L6.11377 2.00589C6.10906 2.00581 6.10435 2.00566 6.09968 2.0052L5.99994 2.00028C5.62269 2.00028 5.30853 2.16384 5.12787 2.27274C4.91977 2.39819 4.71744 2.55889 4.5351 2.72001C4.16824 3.04421 3.78449 3.45765 3.44818 3.84501C3.10755 4.23735 2.79524 4.62675 2.56927 4.9163C2.45587 5.06161 2.36343 5.18322 2.29877 5.26884C2.27349 5.3023 2.25253 5.33049 2.23619 5.35246L2.22357 5.36942L2.20306 5.39677L2.19427 5.40751C1.86709 5.85218 1.96259 6.47853 2.40717 6.80595C2.82409 7.11271 3.40003 7.04782 3.74017 6.67216L3.80951 6.5872L3.89447 6.47391C3.95369 6.39551 4.03952 6.2825 4.14545 6.14677C4.3584 5.87389 4.6485 5.51309 4.95892 5.15555Z" fill="currentColor" />
</svg>