<svg xmlns="http://www.w3.org/2000/svg" width="24" height="24" viewBox="0 0 24 24" fill="none">
    <path opacity="0.4" d="M4.33517 2.02242C4.89489 1.9776 5.53432 2.00584 6.13692 2.05563C6.69478 2.10172 7.26007 2.16986 7.74643 2.22848L7.87618 2.2441C8.41889 2.30932 8.8017 2.35236 9.01778 2.35543C9.5698 2.36352 10.011 2.81703 10.0031 3.3691C9.99529 3.92133 9.54072 4.3623 8.98849 4.35446C8.64165 4.34948 8.13546 4.28924 7.6379 4.22946L7.52763 4.21619C7.03177 4.15649 6.49695 4.09211 5.97286 4.04879C5.78487 4.03326 5.60312 4.0209 5.42969 4.01245L19.9873 18.5701C19.9789 18.3977 19.9666 18.217 19.9512 18.0302C19.9079 17.5063 19.8435 16.9716 19.7838 16.4758L19.7705 16.3652C19.7107 15.8676 19.6505 15.3614 19.6455 15.0146C19.6377 14.4624 20.0786 14.0078 20.6308 14C21.1829 13.9921 21.6364 14.4333 21.6445 14.9853C21.6476 15.2014 21.6906 15.5842 21.7558 16.1269L21.7715 16.257C21.8301 16.7433 21.8982 17.3084 21.9443 17.8662C21.9941 18.4688 22.0224 19.1082 21.9775 19.6679C21.9551 19.9483 21.9124 20.2399 21.8301 20.5117C21.7503 20.775 21.6123 21.0927 21.3525 21.3525C21.0928 21.6123 20.775 21.7503 20.5117 21.83C20.2399 21.9124 19.9483 21.955 19.668 21.9775C19.1082 22.0223 18.4688 21.9941 17.8662 21.9443C17.3084 21.8982 16.7432 21.8301 16.2569 21.7715L16.1269 21.7558C15.5842 21.6906 15.2014 21.6476 14.9853 21.6445C14.4333 21.6364 13.9922 21.1829 14 20.6308C14.0078 20.0786 14.4624 19.6376 15.0146 19.6455C15.3615 19.6504 15.8677 19.7107 16.3652 19.7705L16.4756 19.7838C16.9715 19.8434 17.5062 19.9078 18.0303 19.9511C18.2194 19.9668 18.4023 19.9792 18.5767 19.9876L4.01563 5.42652C4.02407 5.59995 4.03643 5.7817 4.05196 5.96969C4.09526 6.49361 4.15963 7.02825 4.2193 7.52398L4.23263 7.63473C4.29241 8.13229 4.35265 8.63848 4.35763 8.98531C4.36548 9.53754 3.9245 9.99212 3.37228 9.99996C2.8202 10.0078 2.36669 9.56663 2.3586 9.01461C2.35553 8.79852 2.31249 8.41571 2.24728 7.87301L2.23161 7.74287C2.173 7.2566 2.10488 6.69146 2.0588 6.13375C2.00902 5.53116 1.98077 4.89171 2.0256 4.33199C2.04806 4.05165 2.09075 3.76006 2.17306 3.48824C2.25279 3.22496 2.39083 2.9072 2.6506 2.64742L2.75118 2.55563C2.9895 2.35426 3.26115 2.23962 3.49142 2.16989C3.76325 2.08757 4.05481 2.04489 4.33517 2.02242Z" fill="currentColor" />
</svg>