<svg xmlns="http://www.w3.org/2000/svg" width="24" height="24" viewBox="0 0 24 24" fill="none">
    <path opacity="0.4" d="M12 1.24997C12.2059 1.24997 12.4101 1.2576 12.6123 1.27243C12.7413 1.2819 12.8062 1.28684 12.8496 1.3154C12.9083 1.35413 12.9446 1.42693 12.9395 1.49704C12.9356 1.5488 12.8981 1.60525 12.8242 1.71774C12.4638 2.22825 12.25 2.84561 12.25 3.51169C12.25 5.35213 13.8411 6.74997 15.6826 6.74997C16.9102 6.74987 18.0074 6.13899 18.6172 5.19235L18.623 5.18259C18.752 4.96807 18.8168 4.86103 18.9189 4.85251C18.9232 4.85216 18.9283 4.8516 18.9326 4.85153C19.035 4.85011 19.1076 4.94795 19.2529 5.14352C20.8148 7.24573 21.749 10.0175 21.75 12.9951L21.7402 13.0049C21.7465 13.0576 21.75 13.1123 21.75 13.168C21.75 13.6866 21.457 14.0802 21.1641 14.3389C20.8711 14.5974 20.4943 14.8002 20.1025 14.9639C19.313 15.2937 18.2458 15.5528 17.0312 15.7383C16.4999 15.8194 15.9996 15.4799 15.9131 14.9805C15.8268 14.4808 16.1872 14.0099 16.7188 13.9287C17.8555 13.7551 18.738 13.5282 19.3105 13.2891C19.4217 13.2426 19.4225 13.0945 19.3115 13.0479C18.985 12.9114 18.5389 12.7723 17.9746 12.6436C16.4818 12.303 14.369 12.083 12 12.083C9.63103 12.083 7.51824 12.303 6.02539 12.6436C5.46114 12.7723 5.01499 12.9114 4.68848 13.0479C4.57753 13.0945 4.57831 13.2426 4.68945 13.2891C5.26199 13.5282 6.14453 13.7551 7.28125 13.9287C7.81276 14.0099 8.17325 14.4808 8.08691 14.9805C8.0004 15.4799 7.50008 15.8194 6.96875 15.7383C5.75418 15.5528 4.687 15.2937 3.89746 14.9639C3.50574 14.8002 3.12887 14.5974 2.83594 14.3389C2.54305 14.0802 2.25 13.6866 2.25 13.168C2.25002 13.1123 2.25354 13.0576 2.25977 13.0049L2.25 12.9951C2.25216 6.65557 6.48293 1.24997 12 1.24997ZM9.00293 5.99997C8.4533 6.00019 8.00781 6.44782 8.00781 6.99997C8.00783 7.5521 8.45331 7.99975 9.00293 7.99997H9.0127C9.56231 7.99975 10.0078 7.5521 10.0078 6.99997C10.0078 6.44782 9.56232 6.00019 9.0127 5.99997H9.00293ZM14.6631 1.73044C14.7298 1.70872 14.7981 1.73406 14.9336 1.78513C15.8959 2.14799 16.7889 2.68489 17.5898 3.36227C17.7074 3.46168 17.7663 3.51155 17.7783 3.58395C17.7903 3.65645 17.7495 3.72461 17.668 3.86032L17.3506 4.38864C17.0225 4.89108 16.4091 5.24987 15.6826 5.24997C14.5614 5.24997 13.75 4.41955 13.75 3.51169C13.75 3.16992 13.8597 2.84946 14.0547 2.57614L14.0625 2.56442L14.4736 1.93942C14.5556 1.81465 14.5965 1.75224 14.6631 1.73044Z" fill="currentColor" />
    <path d="M10.9951 12.0976C10.9862 13.7208 10.9433 15.6811 10.7022 17.4911C10.5663 18.5112 10.3643 19.5153 10.0586 20.4013C9.75632 21.2771 9.32744 22.1118 8.6924 22.7216C8.29405 23.1039 7.6608 23.0905 7.27834 22.6923C6.89614 22.294 6.90945 21.6616 7.30764 21.2792C7.62262 20.9768 7.91791 20.4734 8.16799 19.7489C8.41466 19.0341 8.59379 18.1729 8.71975 17.2274C8.93824 15.5872 8.98355 13.7847 8.99416 12.2099C9.62546 12.1556 10.2958 12.1163 10.9951 12.0976ZM13.003 12.0976C13.7023 12.1162 14.3726 12.1556 15.0039 12.2099C15.0145 13.7847 15.0618 15.5872 15.2803 17.2274C15.4063 18.1729 15.5854 19.0341 15.8321 19.7489C16.0821 20.4733 16.3774 20.9768 16.6924 21.2792C17.0905 21.6617 17.1032 22.294 16.7207 22.6923C16.3383 23.0905 15.706 23.1037 15.3076 22.7216C14.6726 22.1119 14.2437 21.2771 13.9414 20.4013C13.6357 19.5153 13.4338 18.5112 13.2979 17.4911C13.0568 15.6811 13.0119 13.7208 13.003 12.0976ZM9.01174 5.99994C9.56156 5.99994 10.0078 6.44766 10.0078 6.99994C10.0078 7.55222 9.56155 7.99994 9.01174 7.99994H9.00295C8.45327 7.99978 8.00784 7.55212 8.00783 6.99994C8.00784 6.44775 8.45326 6.00009 9.00295 5.99994H9.01174ZM14.6631 1.7304C14.7298 1.70871 14.7975 1.73413 14.9326 1.78509C15.895 2.14792 16.7879 2.68486 17.5889 3.36223C17.7068 3.46195 17.7663 3.51232 17.7783 3.5849C17.7901 3.65731 17.7495 3.72557 17.668 3.86127L17.3506 4.38959C17.0225 4.89198 16.409 5.24979 15.6826 5.24994C14.5614 5.24994 13.75 4.41951 13.75 3.51165C13.7501 3.17004 13.8589 2.84931 14.0537 2.5761L14.0625 2.56439L14.4737 1.93939C14.5556 1.81463 14.5964 1.75212 14.6631 1.7304Z" fill="currentColor" />
</svg>