<svg xmlns="http://www.w3.org/2000/svg" width="24" height="24" viewBox="0 0 24 24" fill="none">
    <path d="M14.5042 17C14.5042 19.7614 12.2657 22 9.50424 22C6.74282 22 4.50424 19.7614 4.50424 17C4.50424 14.2386 6.74282 12 9.50424 12C12.2657 12 14.5042 14.2386 14.5042 17Z" fill="currentColor" />
    <path opacity="0.4" d="M12.5042 17V3C12.5042 2.44772 12.952 2 13.5042 2C14.0565 2 14.5042 2.44772 14.5042 3C14.5042 5.20914 16.2951 7 18.5042 7C19.0565 7 19.5042 7.44772 19.5042 8C19.5042 8.55228 19.0565 9 18.5042 9C16.9672 9 15.5658 8.42118 14.5042 7.4707V17C14.5042 17.5523 14.0565 18 13.5042 18C12.952 18 12.5042 17.5523 12.5042 17Z" fill="currentColor" />
</svg>