<svg xmlns="http://www.w3.org/2000/svg" width="24" height="24" viewBox="0 0 24 24" fill="none">
    <path d="M22.0039 15.75C22.0039 17.9591 20.213 19.75 18.0039 19.75C15.7948 19.75 14.0039 17.9591 14.0039 15.75C14.0039 13.5409 15.7948 11.75 18.0039 11.75C20.213 11.75 22.0039 13.5409 22.0039 15.75Z" fill="currentColor" />
    <path d="M10.0039 17.75C10.0039 19.9591 8.21305 21.75 6.00391 21.75C3.79477 21.75 2.00391 19.9591 2.00391 17.75C2.00391 15.5409 3.79477 13.75 6.00391 13.75C8.21305 13.75 10.0039 15.5409 10.0039 17.75Z" fill="currentColor" />
    <path opacity="0.4" d="M20.0039 15.7285V7.91792L10.0039 10.4433V17.7499C10.0039 18.3022 9.5562 18.7499 9.00391 18.7499C8.45163 18.7499 8.00391 18.3022 8.00391 17.7499V8.77925L8.00391 8.71609C8.00386 8.00914 8.00381 7.3933 8.06348 6.88862C8.12804 6.34305 8.27224 5.81736 8.63575 5.34663C9.00025 4.87486 9.47266 4.60421 9.98438 4.40718C10.4581 4.22478 11.0545 4.07417 11.7362 3.90199L11.7891 3.88862L15.7891 2.87788L15.8639 2.85897C16.9443 2.58597 17.8608 2.35438 18.6016 2.27827C19.3866 2.19762 20.1762 2.26649 20.8545 2.80171C21.4096 3.23972 21.684 3.82897 21.8252 4.46577C21.9551 5.0517 21.9874 5.75483 21.9981 6.54096C22.0035 6.59855 22.0044 6.65553 22 6.71186C22.0031 7.03859 22.0039 7.39175 22.0039 7.7685V15.7285C22.0039 16.2807 21.5562 16.7285 21.0039 16.7285C20.4516 16.7285 20.0039 16.2807 20.0039 15.7285Z" fill="currentColor" />
</svg>