<svg xmlns="http://www.w3.org/2000/svg" width="24" height="24" viewBox="0 0 24 24" fill="none">
    <path opacity="0.4" d="M8.9119 4.81378C9.75 3.59861 10.6933 2.75 12.0039 2.75C13.3145 2.75 14.2578 3.5986 15.0959 4.81378C15.9276 6.01956 16.7993 7.79926 17.9092 10.0653L19.5117 13.3366L19.5117 13.3367C20.3639 15.0765 21.0329 16.4423 21.4041 17.4797C21.5921 18.005 21.7233 18.4975 21.7492 18.9453C21.7758 19.4052 21.6933 19.8681 21.4 20.2642C21.1592 20.5892 20.8449 20.8534 20.4843 21.0394C20.0559 21.2604 19.5881 21.2857 19.1289 21.2145C18.6763 21.1444 18.1825 20.9732 17.6511 20.7414C16.6014 20.2833 15.192 19.4856 13.4441 18.4963C12.5928 18.0144 12.3587 17.8998 12.1237 17.8781C12.0441 17.8707 11.9638 17.8707 11.8841 17.8781C11.6491 17.8998 11.4151 18.0144 10.5637 18.4963L10.5637 18.4963C8.81583 19.4856 7.40645 20.2833 6.3567 20.7414C5.82539 20.9732 5.33151 21.1444 4.87894 21.2145C4.4197 21.2857 3.9519 21.2604 3.52353 21.0394C3.16289 20.8534 2.8486 20.5892 2.60788 20.2642C2.31451 19.8681 2.23205 19.4052 2.25867 18.9453C2.28459 18.4975 2.41579 18.005 2.60373 17.4798C2.97491 16.4423 3.64397 15.0764 4.4962 13.3366L6.0986 10.0653C7.20854 7.79927 8.08028 6.01957 8.9119 4.81378Z" fill="currentColor" />
    <path d="M8.9119 4.81378C9.75 3.59861 10.6933 2.75 12.0039 2.75V17.8725C11.9639 17.8725 11.924 17.8744 11.8841 17.8781C11.6491 17.8998 11.4151 18.0144 10.5637 18.4963L10.5637 18.4963C8.81583 19.4856 7.40645 20.2833 6.3567 20.7414C5.82539 20.9732 5.33151 21.1444 4.87894 21.2145C4.4197 21.2857 3.9519 21.2604 3.52353 21.0394C3.16289 20.8534 2.8486 20.5892 2.60788 20.2642C2.31451 19.8681 2.23205 19.4052 2.25867 18.9453C2.28459 18.4975 2.41579 18.005 2.60373 17.4798C2.97491 16.4423 3.64397 15.0764 4.4962 13.3366L6.0986 10.0653C7.20854 7.79927 8.08028 6.01957 8.9119 4.81378Z" fill="currentColor" />
</svg>