<svg xmlns="http://www.w3.org/2000/svg" width="24" height="24" viewBox="0 0 24 24" fill="none">
    <path d="M1.29686 1.29289C1.68738 0.902369 2.3204 0.902369 2.71092 1.29289L22.7109 21.2929C23.1014 21.6834 23.1014 22.3164 22.7109 22.707C22.3204 23.0975 21.6874 23.0975 21.2969 22.707L1.29686 2.70696C0.906336 2.31643 0.906336 1.68342 1.29686 1.29289Z" fill="currentColor" />
    <path opacity="0.4" fill-rule="evenodd" clip-rule="evenodd" d="M21.6937 18.5092C21.6339 18.1839 21.5319 17.8393 21.4032 17.4795C21.033 16.4448 20.366 15.0832 19.517 13.35L19.4862 13.2871L17.9393 10.1289L17.9099 10.0688C16.7992 7.80132 15.9266 6.01981 15.0946 4.81348C14.2565 3.59847 13.3133 2.75 12.0028 2.75C10.6923 2.75 9.74903 3.59847 8.91098 4.81348C8.79194 4.98608 8.67207 5.17046 8.55078 5.36635L21.6937 18.5092Z" fill="currentColor" />
    <path fill-rule="evenodd" clip-rule="evenodd" d="M7.41688 7.41309C7.01055 8.20313 6.57578 9.09074 6.09672 10.0688L6.06722 10.129L4.52035 13.2872L4.48954 13.3501C3.64055 15.0833 2.97357 16.4449 2.60336 17.4796C2.41542 18.0048 2.28455 18.4976 2.25863 18.9454C2.23201 19.4053 2.31389 19.8687 2.60726 20.2647C2.84793 20.5896 3.16276 20.8532 3.52328 21.0391C3.95163 21.2601 4.41952 21.2861 4.87875 21.2149C5.33127 21.1448 5.82503 20.9731 6.35629 20.7413C7.4058 20.2834 8.77104 19.5106 10.5183 18.5216L10.5633 18.4962C11.4143 18.0145 11.6487 17.8998 11.8836 17.878C11.9633 17.8706 12.0442 17.8706 12.1239 17.878C12.3587 17.8998 12.5932 18.0145 13.4442 18.4962L13.4894 18.5218C15.2366 19.5107 16.6018 20.2834 17.6512 20.7413C18.1825 20.9731 18.6762 21.1448 19.1287 21.2149C19.588 21.2861 20.0559 21.2601 20.4842 21.0391C20.6051 20.9768 20.7209 20.9057 20.8304 20.8265L7.41688 7.41309Z" fill="currentColor" />
</svg>