<svg xmlns="http://www.w3.org/2000/svg" width="24" height="24" viewBox="0 0 24 24" fill="none">
    <path d="M14.7539 8.00001L14.7539 8.05332C14.754 8.48281 14.7541 8.8766 14.7109 9.19728C14.6632 9.55275 14.5502 9.9283 14.2412 10.2373C13.9322 10.5463 13.5567 10.6592 13.2012 10.707C12.8805 10.7502 12.4867 10.7501 12.0572 10.75L12.0039 10.75H8.00392L7.95061 10.75C7.52112 10.7501 7.12733 10.7502 6.80665 10.707C6.45118 10.6592 6.07563 10.5463 5.76661 10.2373C5.45759 9.9283 5.34468 9.55275 5.29689 9.19728C5.25377 8.8766 5.25384 8.48281 5.25391 8.05332L5.25392 8.00001L5.25391 7.9467C5.25384 7.51721 5.25377 7.12343 5.29689 6.80275C5.34468 6.44727 5.45759 6.07173 5.76661 5.76271C6.07563 5.45369 6.45118 5.34077 6.80665 5.29298C7.12733 5.24987 7.52112 5.24993 7.95061 5.25001L8.00392 5.25001H12.0039L12.0572 5.25001C12.4867 5.24993 12.8805 5.24987 13.2012 5.29298C13.5567 5.34077 13.9322 5.45369 14.2412 5.76271C14.5502 6.07173 14.6632 6.44727 14.7109 6.80275C14.7541 7.12343 14.754 7.51721 14.7539 7.9467L14.7539 8.00001Z" fill="currentColor" />
    <path d="M14.0039 13.25C14.4181 13.25 14.7539 13.5858 14.7539 14C14.7539 14.4142 14.4181 14.75 14.0039 14.75L6.00391 14.75C5.58969 14.75 5.25391 14.4142 5.25391 14C5.25391 13.5858 5.58969 13.25 6.00391 13.25L14.0039 13.25Z" fill="currentColor" />
    <path d="M11.0039 17.25C11.4181 17.25 11.7539 17.5858 11.7539 18C11.7539 18.4142 11.4181 18.75 11.0039 18.75H6.00391C5.58969 18.75 5.25391 18.4142 5.25391 18C5.25391 17.5858 5.58969 17.25 6.00391 17.25H11.0039Z" fill="currentColor" />
    <path opacity="0.4" d="M18.2539 6.75C18.2451 6.14174 18.2164 5.61181 18.1553 5.15723C18.0526 4.39328 17.8305 3.73084 17.3018 3.20215C16.7731 2.67346 16.1106 2.45134 15.3467 2.34863C14.6126 2.24998 13.6821 2.24999 12.5427 2.25H12.5039H7.50391H7.46516C6.32567 2.24999 5.39516 2.24998 4.66113 2.34863C3.89718 2.45134 3.23475 2.67346 2.70605 3.20215C2.17736 3.73084 1.95525 4.39328 1.85254 5.15723C1.75388 5.89126 1.75389 6.82176 1.75391 7.96126V8V16V16.0387C1.75389 17.1782 1.75388 18.1087 1.85254 18.8428C1.95525 19.6067 2.17736 20.2692 2.70605 20.7979C3.23475 21.3265 3.89718 21.5487 4.66113 21.6514C5.39517 21.75 6.32568 21.75 7.46517 21.75H7.50391H19.2539C19.422 21.75 19.5868 21.7362 19.7473 21.7096C21.1694 21.4743 22.2539 20.2388 22.2539 18.75V10.75L22.2539 10.6787C22.254 10.0285 22.2541 9.44405 22.1904 8.9707C22.1206 8.45137 21.9579 7.91884 21.5215 7.48242C21.0851 7.04601 20.5525 6.88331 20.0332 6.81348C19.5598 6.74984 18.9754 6.74991 18.3252 6.74999L18.2539 6.75ZM20.208 9.23731C20.2519 9.56365 20.2539 10.0146 20.2539 10.75V18.75C20.2539 19.3023 19.8062 19.75 19.2539 19.75C18.7016 19.75 18.2539 19.3023 18.2539 18.75V8.75C18.9893 8.75 19.4403 8.75202 19.7666 8.7959C20.0534 8.83445 20.1013 8.88942 20.1069 8.89596C20.1135 8.90165 20.1695 8.95055 20.208 9.23731Z" fill="currentColor" />
</svg>