<svg xmlns="http://www.w3.org/2000/svg" width="24" height="24" viewBox="0 0 24 24" fill="none">
    <path d="M17.3939 14.2045C17.7897 13.8087 17.9877 13.6108 18.1936 13.4919C18.7523 13.1693 19.4407 13.1693 19.9995 13.4919C20.2054 13.6108 20.4033 13.8087 20.7992 14.2045C21.195 14.6004 21.393 14.7983 21.5118 15.0042C21.8344 15.563 21.8344 16.2514 21.5118 16.8102C21.393 17.0161 21.195 17.214 20.7992 17.6098L16.8711 21.5379C16.0864 22.3226 14.902 22.3546 13.8542 22.5786C13.0349 22.7538 12.6252 22.8414 12.3938 22.6099C12.1623 22.3785 12.2499 21.9688 12.4251 21.1495C12.6492 20.1017 12.6811 18.9174 13.4658 18.1326L17.3939 14.2045Z" fill="currentColor" />
    <path opacity="0.4" d="M5.39539 21.3583C6.14369 22.1066 7.09222 22.439 8.26453 22.5966C9.0455 22.7016 9.97528 22.7347 11.0749 22.7451C10.9998 22.4722 10.9974 22.2137 11.0096 22.0204C11.0305 21.6932 11.1134 21.3067 11.1888 20.9551L11.203 20.8886C11.2421 20.7057 11.2739 20.5194 11.3102 20.3064L11.3397 20.1337C11.387 19.8601 11.4441 19.5474 11.5243 19.2333C11.685 18.604 11.9648 17.8661 12.5819 17.249L16.5096 13.3203L16.5885 13.2412C16.9009 12.9278 17.2138 12.6138 17.5682 12.4091C18.5137 11.8632 19.6794 11.8632 20.6249 12.4091C20.9793 12.6138 21.2923 12.9278 21.6047 13.2413L21.6835 13.3203L21.7538 13.3904V9.99994V9.94996C21.7538 8.10916 21.7538 6.65123 21.6005 5.51068C21.4428 4.33838 21.1105 3.38985 20.3622 2.64154C19.6139 1.89323 18.6653 1.5609 17.493 1.40326C16.3525 1.24992 14.8945 1.24993 13.0537 1.24994H13.0038H12.7538H12.7038C10.863 1.24993 9.40508 1.24992 8.26453 1.40326C7.09222 1.5609 6.14369 1.89323 5.39539 2.64154C4.64708 3.38985 4.31475 4.33838 4.1571 5.51068C4.00376 6.65123 4.00377 8.10918 4.00378 9.95V9.99994V13.9999V14.0499C4.00377 15.8907 4.00376 17.3486 4.1571 18.4892C4.31475 19.6615 4.64708 20.61 5.39539 21.3583Z" fill="currentColor" />
    <path d="M13.5038 10.2499C13.918 10.2499 14.2538 10.5857 14.2538 10.9999C14.2538 11.4142 13.918 11.7499 13.5038 11.7499H10.0038C9.58957 11.7499 9.25378 11.4142 9.25378 10.9999C9.25378 10.5857 9.58957 10.2499 10.0038 10.2499H13.5038ZM17.0038 6.24994C17.418 6.24994 17.7538 6.58573 17.7538 6.99994C17.7538 7.41415 17.418 7.74994 17.0038 7.74994H10.0038C9.58957 7.74994 9.25378 7.41415 9.25378 6.99994C9.25378 6.58573 9.58957 6.24994 10.0038 6.24994H17.0038Z" fill="currentColor" />
    <path d="M6.75378 17.7857C6.75378 17.2531 6.35084 16.8214 5.85378 16.8214H3.21807C2.68551 16.8214 2.25378 17.2531 2.25378 17.7857C2.25378 18.3182 2.68551 18.7499 3.21807 18.7499H5.85378C6.35084 18.7499 6.75378 18.3182 6.75378 17.7857Z" fill="currentColor" />
    <path d="M6.75378 11.9999C6.75378 11.4674 6.35084 11.0357 5.85378 11.0357H3.21807C2.68551 11.0357 2.25378 11.4674 2.25378 11.9999C2.25378 12.5325 2.68551 12.9642 3.21807 12.9642H5.85378C6.35084 12.9642 6.75378 12.5325 6.75378 11.9999Z" fill="currentColor" />
    <path d="M6.75378 6.21422C6.75378 5.68166 6.35084 5.24994 5.85378 5.24994H3.21807C2.68551 5.24994 2.25378 5.68166 2.25378 6.21422C2.25378 6.74678 2.68551 7.17851 3.21807 7.17851H5.85378C6.35084 7.17851 6.75378 6.74679 6.75378 6.21422Z" fill="currentColor" />
</svg>