<svg xmlns="http://www.w3.org/2000/svg" width="24" height="24" viewBox="0 0 24 24" fill="none">
    <path opacity="0.4" d="M22.7539 13.5147L22.7539 13.6594C22.7545 14.746 22.7548 15.5016 22.4687 16.1925C22.1826 16.8833 21.6477 17.4177 20.879 18.1855L20.7763 18.2882L18.291 20.7735L18.1889 20.8757C17.421 21.6443 16.8871 22.1788 16.1963 22.4649C15.5055 22.7511 14.7502 22.7507 13.6639 22.7501L13.5185 22.7501H10.4892L10.3448 22.7501C9.25815 22.7507 8.50242 22.751 7.81149 22.4649C7.12059 22.1787 6.58618 21.6438 5.8182 20.875L5.71579 20.7726L3.23044 18.2882L3.13237 18.1902C2.36137 17.4198 1.82575 16.8847 1.53903 16.1925C1.25292 15.5016 1.25329 14.7461 1.25383 13.6596L1.25388 13.5147V10.4854L1.25383 10.3406C1.25329 9.2541 1.25292 8.49856 1.53903 7.80771C1.82574 7.11551 2.36136 6.58036 3.13236 5.81003L3.23044 5.71201L5.71579 3.22763L5.81819 3.12516C6.58618 2.35639 7.12058 1.82144 7.81149 1.53525C8.50242 1.24914 9.25814 1.24951 10.3448 1.25005L10.4892 1.25009H13.5185L13.6639 1.25005C14.7501 1.2495 15.5055 1.24913 16.1963 1.53525C16.8871 1.82141 17.421 2.35586 18.1889 3.12447L18.291 3.22666L20.7763 5.71201L20.879 5.81463C21.6477 6.5825 22.1826 7.11688 22.4687 7.80771C22.7548 8.49859 22.7545 9.2542 22.7539 10.3408L22.7539 10.4854V13.5147Z" fill="currentColor" />
    <path d="M9.00391 15V9C9.00391 8.44772 9.45162 8 10.0039 8C10.5562 8 11.0039 8.44772 11.0039 9V15C11.0039 15.5523 10.5562 16 10.0039 16C9.45162 16 9.00391 15.5523 9.00391 15Z" fill="currentColor" />
    <path d="M13.0039 15V9C13.0039 8.44772 13.4516 8 14.0039 8C14.5562 8 15.0039 8.44772 15.0039 9V15C15.0039 15.5523 14.5562 16 14.0039 16C13.4516 16 13.0039 15.5523 13.0039 15Z" fill="currentColor" />
</svg>