<svg xmlns="http://www.w3.org/2000/svg" width="24" height="24" viewBox="0 0 24 24" fill="none">
    <path opacity="0.4" d="M12.004 4C8.26602 4 4.99704 7.55791 4.99704 12.2636C4.99704 15.1215 6.65926 17.6953 8.8011 19.2011C9.1029 19.4133 9.41665 19.6338 9.61003 19.7955C9.70644 19.876 9.84259 19.9972 9.95286 20.1496C10.046 20.2782 10.2902 20.6647 10.1329 21.1619C9.98055 21.6436 9.57965 21.8247 9.4184 21.8825C9.23941 21.9466 9.05849 21.9681 8.93625 21.9787C8.69209 22.0001 8.36372 22 8.01326 22H8.01315H4.9363C4.28155 22.0001 3.69343 22.0001 3.21744 21.9362C2.69788 21.8664 2.16489 21.7044 1.72823 21.2681C1.0994 20.6398 1.0274 19.792 1.00443 19.0301C0.987784 18.4781 1.4218 18.0171 1.97383 18.0005C2.52587 17.9838 2.98688 18.4178 3.00352 18.9699C3.01473 19.3416 3.04035 19.5613 3.07674 19.7035C3.1061 19.8183 3.13277 19.8444 3.14093 19.8524L3.14183 19.8532C3.14769 19.8599 3.19643 19.9154 3.48371 19.954C3.81048 19.9979 4.26194 20 4.99791 20H6.60187C4.54024 18.1423 2.99704 15.3859 2.99704 12.2636C2.99704 6.73696 6.89772 2 12.004 2C17.1102 2 21.0109 6.73696 21.0109 12.2636C21.0109 15.3859 19.4677 18.1423 17.4061 20H19.01C19.746 20 20.1975 19.9979 20.5242 19.954C20.8115 19.9154 20.8598 19.8605 20.8656 19.8538L20.867 19.8524C20.8752 19.8444 20.9019 19.8183 20.9312 19.7035C20.9676 19.5613 20.9932 19.3416 21.0044 18.9699C21.0211 18.4178 21.4821 17.9838 22.0341 18.0005C22.5862 18.0171 23.0202 18.4781 23.0035 19.0301C22.9805 19.792 22.9086 20.6398 22.2797 21.2681C21.8431 21.7044 21.3101 21.8664 20.7905 21.9362C20.3145 22.0001 19.7264 22.0001 19.0717 22H15.9948H15.9947C15.6442 22 15.3159 22.0001 15.0717 21.9787C14.9495 21.9681 14.7685 21.9466 14.5895 21.8825C14.4283 21.8247 14.0274 21.6436 13.875 21.1619C13.7177 20.6647 13.962 20.2782 14.0551 20.1496C14.1654 19.9972 14.3015 19.876 14.3979 19.7955C14.5913 19.6338 14.9051 19.4133 15.2069 19.2011C17.3487 17.6953 19.0109 15.1215 19.0109 12.2636C19.0109 7.55791 15.7419 4 12.004 4Z" fill="currentColor" />
    <path d="M12.004 4C8.26602 4 4.99704 7.55791 4.99704 12.2636C4.99704 15.1215 6.65926 17.6953 8.8011 19.2011C9.1029 19.4133 9.41665 19.6338 9.61003 19.7955C9.70644 19.876 9.84259 19.9972 9.95286 20.1496C10.046 20.2782 10.2902 20.6647 10.1329 21.1619C9.98055 21.6436 9.57965 21.8247 9.4184 21.8825C9.23941 21.9466 9.05849 21.9681 8.93625 21.9787C8.69209 22.0001 8.36372 22 8.01326 22H8.01315H4.9363C4.28155 22.0001 3.69343 22.0001 3.21744 21.9362C2.69788 21.8664 2.16489 21.7044 1.72823 21.2681C1.0994 20.6398 1.0274 19.792 1.00443 19.0301C0.987784 18.4781 1.4218 18.0171 1.97383 18.0005C2.52587 17.9838 2.98688 18.4178 3.00352 18.9699C3.01473 19.3416 3.04035 19.5613 3.07674 19.7035C3.1061 19.8183 3.13277 19.8444 3.14093 19.8524L3.14183 19.8532C3.14769 19.8599 3.19643 19.9154 3.48371 19.954C3.81048 19.9979 4.26194 20 4.99791 20H6.60187C4.54024 18.1423 2.99704 15.3859 2.99704 12.2636C2.99704 6.73696 6.89772 2 12.004 2V4Z" fill="currentColor" />
</svg>