<svg xmlns="http://www.w3.org/2000/svg" width="24" height="24" viewBox="0 0 24 24" fill="none">
    <path d="M4 15.25C5.51878 15.25 6.75 16.4812 6.75 18C6.75 18.8007 6.40637 19.5229 5.86133 20.0244C5.37218 20.4743 4.71742 20.75 4 20.75C2.48122 20.75 1.25 19.5188 1.25 18C1.25 17.0019 1.78264 16.1284 2.5752 15.6475C2.99127 15.3951 3.47985 15.25 4 15.25ZM15 13.25C15.7004 13.25 16.341 13.5131 16.8262 13.9443C17.3916 14.447 17.75 15.1821 17.75 16C17.75 17.5188 16.5188 18.75 15 18.75C13.9018 18.75 12.9551 18.1062 12.5146 17.1787C12.3446 16.8206 12.25 16.4203 12.25 16C12.25 14.4812 13.4812 13.25 15 13.25ZM12 4.25C13.5188 4.25 14.75 5.48122 14.75 7C14.75 8.51878 13.5188 9.75 12 9.75C10.4812 9.75 9.25 8.51878 9.25 7C9.25 5.48122 10.4812 4.25 12 4.25Z" fill="currentColor" />
    <path opacity="0.4" d="M12 1.25C17.9371 1.25 22.75 6.06294 22.75 12C22.75 17.9371 17.9371 22.75 12 22.75C10.4729 22.75 9.01737 22.4314 7.69922 21.8555C7.20481 21.6393 6.97932 21.0629 7.19531 20.5684C7.41141 20.0738 7.98784 19.8484 8.48242 20.0645C9.55835 20.5345 10.7474 20.7959 12 20.7959C16.8576 20.7959 20.7959 16.8576 20.7959 12C20.7959 7.1424 16.8576 3.2041 12 3.2041C7.1424 3.2041 3.2041 7.1424 3.2041 12C3.2041 13.1515 3.42515 14.25 3.82617 15.2559C3.37114 15.2844 2.94458 15.4234 2.5752 15.6475C2.3821 15.7646 2.20416 15.9056 2.0459 16.0654C1.53278 14.8102 1.25 13.4371 1.25 12C1.25 6.06294 6.06294 1.25 12 1.25ZM6.92188 9.06738C7.19221 8.60039 7.78973 8.44073 8.25684 8.71094C8.72386 8.98119 8.88335 9.57878 8.61328 10.0459C8.28125 10.6199 8.09082 11.2864 8.09082 12C8.09082 14.1589 9.84107 15.9092 12 15.9092C12.0847 15.9092 12.1688 15.9066 12.252 15.9014C12.2508 15.9341 12.25 15.967 12.25 16C12.25 16.4203 12.3446 16.8206 12.5146 17.1787C12.6204 17.4013 12.7559 17.608 12.915 17.793C12.6166 17.8398 12.3106 17.8633 12 17.8633C8.7616 17.8633 6.13672 15.2384 6.13672 12C6.13672 10.9336 6.42239 9.93084 6.92188 9.06738ZM15.7432 8.71094C16.2103 8.44073 16.8078 8.60039 17.0781 9.06738C17.5776 9.93084 17.8633 10.9336 17.8633 12C17.8633 12.8927 17.6639 13.7409 17.3057 14.5C17.1713 14.2938 17.0091 14.107 16.8262 13.9443C16.5024 13.6566 16.1095 13.4437 15.6758 13.334C15.8266 12.9184 15.9092 12.4694 15.9092 12C15.9092 11.2864 15.7187 10.6199 15.3867 10.0459C15.1166 9.57878 15.2761 8.98119 15.7432 8.71094Z" fill="currentColor" />
</svg>