<svg xmlns="http://www.w3.org/2000/svg" width="24" height="24" viewBox="0 0 24 24" fill="none">
    <path opacity="0.4" d="M22.254 13.55V13.5V7.5C22.254 7.08579 21.9182 6.75 21.504 6.75H2.50398C2.08977 6.75 1.75398 7.08579 1.75398 7.5V13.5V13.5499C1.75397 15.3908 1.75396 16.8487 1.9073 17.9893C2.06495 19.1616 2.39728 20.1101 3.14558 20.8584C3.89389 21.6067 4.84242 21.939 6.01473 22.0967C7.15528 22.25 8.61322 22.25 10.454 22.25H10.504H13.504H13.5539C15.3947 22.25 16.8527 22.25 17.9932 22.0967C19.1655 21.939 20.1141 21.6067 20.8624 20.8584C21.6107 20.1101 21.943 19.1616 22.1007 17.9893C22.254 16.8487 22.254 15.3908 22.254 13.55Z" fill="currentColor" />
    <path d="M15.0321 1.75C15.823 1.75 16.4862 1.74928 17.033 1.79981C17.6009 1.85232 18.1192 1.96539 18.6151 2.23242C19.1107 2.49945 19.4788 2.86372 19.8182 3.29981C20.145 3.71978 20.4855 4.26016 20.8924 4.90527L22.1141 6.84375C22.226 7.02131 22.2677 7.21975 22.2479 7.41113C22.2039 7.03886 21.8878 6.75 21.5037 6.75H19.7791L19.2186 5.86133C18.7923 5.18561 18.5064 4.7352 18.2489 4.4043C18.0042 4.09008 17.8284 3.94313 17.6531 3.84863C17.4777 3.75413 17.2542 3.68535 16.8446 3.64746C16.4137 3.60764 15.8605 3.60742 15.0321 3.60742H12.9803V6.75H11.0281V3.60742H9.0301C8.21978 3.60742 7.6794 3.60817 7.25764 3.64649C6.85673 3.68294 6.63675 3.74783 6.4637 3.83887C6.2906 3.93002 6.11543 4.07295 5.86995 4.37695C5.61185 4.69664 5.32468 5.1318 4.89436 5.78516L4.25862 6.75H2.50373C2.11935 6.75012 1.8021 7.03936 1.75862 7.41211C1.738 7.21448 1.7838 7.00934 1.90315 6.82813L3.23909 4.79981C3.65009 4.17577 3.99406 3.65135 4.32209 3.24512C4.66269 2.82338 5.02887 2.47113 5.51741 2.21387C6.006 1.9566 6.51453 1.8485 7.07112 1.79785C7.60706 1.74912 8.25619 1.75 9.0301 1.75H15.0321Z" fill="currentColor" />
    <path d="M11.004 17.25C11.4182 17.25 11.754 17.5858 11.754 18C11.754 18.4142 11.4182 18.75 11.004 18.75H6.00398C5.58977 18.75 5.25398 18.4142 5.25398 18C5.25398 17.5858 5.58977 17.25 6.00398 17.25H11.004ZM9.00398 14.25C9.4182 14.25 9.75398 14.5858 9.75398 15C9.75398 15.4142 9.4182 15.75 9.00398 15.75H6.00398C5.58977 15.75 5.25398 15.4142 5.25398 15C5.25398 14.5858 5.58977 14.25 6.00398 14.25H9.00398Z" fill="currentColor" />
</svg>