<svg xmlns="http://www.w3.org/2000/svg" width="24" height="24" viewBox="0 0 24 24" fill="none">
    <path fill-rule="evenodd" clip-rule="evenodd" d="M18.2539 13.0002C18.8062 13.0002 19.2539 13.448 19.2539 14.0002V16.5002H21.7539C22.3062 16.5002 22.7539 16.948 22.7539 17.5002C22.7539 18.0525 22.3062 18.5002 21.7539 18.5002H19.2539V21.0002C19.2539 21.5525 18.8062 22.0002 18.2539 22.0002C17.7016 22.0002 17.2539 21.5525 17.2539 21.0002L17.2539 18.5002H14.7539C14.2016 18.5002 13.7539 18.0525 13.7539 17.5002C13.7539 16.948 14.2016 16.5002 14.7539 16.5002H17.2539L17.2539 14.0002C17.2539 13.448 17.7016 13.0002 18.2539 13.0002Z" fill="currentColor" />
    <path d="M6.07422 7.8486L13.7204 4.10571L15.937 5.1551L8.29081 8.89798L6.07422 7.8486Z" fill="currentColor" />
    <path fill-rule="evenodd" clip-rule="evenodd" d="M3.20825 11.665C3.39349 11.2945 3.844 11.1443 4.21448 11.3296L6.21448 12.3296C6.58496 12.5148 6.73513 12.9653 6.54989 13.3358C6.36465 13.7063 5.91414 13.8565 5.54366 13.6712L3.54366 12.6712C3.17318 12.486 3.02301 12.0355 3.20825 11.665Z" fill="currentColor" />
    <path opacity="0.4" fill-rule="evenodd" clip-rule="evenodd" d="M18.2539 11.5004C16.8732 11.5004 15.7539 12.6197 15.7539 14.0004V15.0004H14.7539C13.3732 15.0004 12.2539 16.1197 12.2539 17.5004C12.2539 18.8811 13.3732 20.0004 14.7539 20.0004H15.7539V21.0004C15.7539 21.0502 15.7554 21.0997 15.7582 21.1487C15.2943 21.348 14.8084 21.5533 14.3097 21.7639C12.8907 22.3638 11.9759 22.7505 11.0039 22.7505C10.0319 22.7505 9.11708 22.3638 7.69803 21.7639C5.80493 20.9642 4.09562 20.2421 3.07724 19.631C2.07125 19.0274 1.25391 18.2823 1.25391 17.1618V6.50055C1.25391 5.70475 1.81918 5.21621 2.26931 4.91854C2.7189 4.62123 3.35793 4.31857 4.08269 3.9753L7.19478 2.50091C8.75942 1.75875 9.83144 1.25024 11.0039 1.25024C12.1764 1.25024 13.2484 1.75875 14.813 2.50091L17.9252 3.97531C18.6499 4.31857 19.2889 4.62124 19.7385 4.91854C20.1886 5.21621 20.7539 5.70475 20.7539 6.50055V12.1281C20.7539 12.8328 20.7539 13.1851 20.6226 13.2332C20.4913 13.2812 20.2484 12.9935 19.7625 12.4181C19.3432 11.9215 18.8206 11.5004 18.2539 11.5004ZM11.004 3.15936C10.3343 3.15936 9.68868 3.44045 7.84643 4.31319L4.99826 5.66247C4.18757 6.04653 3.67968 6.28984 3.36133 6.50027C3.67968 6.7107 4.18757 6.95401 4.99826 7.33807L8.28918 8.89641C9.79813 9.60566 10.3909 9.84118 11.004 9.84118C11.6737 9.84118 12.3193 9.5601 14.1615 8.68736L17.0097 7.33807C17.8204 6.95401 18.3283 6.7107 18.6466 6.50027C18.3283 6.28984 17.8204 6.04653 17.0097 5.66247L13.7188 4.10414C12.2098 3.39488 11.617 3.15936 11.004 3.15936Z" fill="currentColor" />
</svg>