<svg xmlns="http://www.w3.org/2000/svg" width="24" height="24" viewBox="0 0 24 24" fill="none">
    <path opacity="0.4" d="M8.24998 9.04791C8.24994 9.2419 8.24981 9.48304 8.26463 9.70026C8.28201 9.95498 8.32667 10.3329 8.49705 10.7442C8.8269 11.5404 9.4597 12.1732 10.2558 12.503C10.6671 12.6734 11.045 12.7181 11.2997 12.7355C11.5151 12.7501 12.0894 12.7501 12.1025 12.7501C12.1025 12.7501 12.4827 12.7503 12.7001 12.7355C12.9549 12.7181 13.3328 12.6734 13.7441 12.503C14.5402 12.1732 15.173 11.5404 15.5029 10.7442C15.6732 10.3329 15.7179 9.95498 15.7353 9.70026C15.7501 9.48303 15.75 9.2419 15.7499 9.04791V7.25006H22.2275C22.2506 7.58198 22.2501 7.95129 22.2499 8.3858V13.5567C22.25 15.3945 22.2498 16.8502 22.0966 17.9894C21.939 19.1617 21.6066 20.1102 20.8583 20.8585C20.11 21.6068 19.1615 21.9391 17.9892 22.0968C16.85 22.2499 15.3942 22.2501 13.5566 22.2501H10.4433C8.60571 22.2501 7.14988 22.2499 6.01072 22.0968C4.83845 21.9391 3.88987 21.6068 3.14158 20.8585C2.39331 20.1102 2.06093 19.1617 1.9033 17.9894C1.75014 16.8502 1.74996 15.3945 1.74998 13.5567V8.3858C1.74981 7.95123 1.74934 7.58201 1.77244 7.25006H8.24998V9.04791ZM9.31736 1.95416L8.36814 5.75006H2.19529C2.4002 5.38268 2.68008 5.00986 3.03122 4.54205C3.81273 3.49883 4.52881 2.54375 5.32322 2.14654C6.11756 1.74938 7.02386 1.74933 8.32713 1.75006H9.37889C9.35543 1.81653 9.33473 1.88468 9.31736 1.95416ZM15.6728 1.75006C16.9761 1.74933 17.8824 1.74941 18.6767 2.14654C19.4711 2.54375 20.1872 3.49884 20.9687 4.54205C21.3198 5.00987 21.5997 5.38268 21.8046 5.75006H15.6318L14.6826 1.95416C14.6652 1.88468 14.6445 1.81653 14.621 1.75006H15.6728Z" fill="currentColor" />
    <path d="M9.49994 15.5C10.4427 15.5 10.9141 15.5001 11.207 15.793C11.4999 16.0859 11.4999 16.5572 11.4999 17.5C11.4999 18.4428 11.4999 18.9141 11.207 19.207C10.9141 19.4999 10.4427 19.5 9.49994 19.5H6.49994C5.55713 19.5 5.0858 19.4999 4.79291 19.207C4.50001 18.9141 4.49994 18.4428 4.49994 17.5C4.49994 16.5572 4.50001 16.0859 4.79291 15.793C5.0858 15.5001 5.55713 15.5 6.49994 15.5H9.49994ZM14.2275 6.31738C14.2424 6.37687 14.2499 6.43868 14.2499 6.5V9.02148C14.25 9.23566 14.2495 9.43238 14.2382 9.59766C14.2261 9.77515 14.1992 9.97061 14.1171 10.1689C13.9396 10.5977 13.5985 10.9386 13.1699 11.1162C12.9715 11.1984 12.7761 11.2261 12.5986 11.2383C12.4332 11.2496 12.2357 11.25 12.0214 11.25C11.8072 11.25 11.5666 11.2496 11.4013 11.2383C11.2238 11.2261 11.0284 11.1984 10.83 11.1162C10.4014 10.9386 10.0603 10.5977 9.88275 10.1689C9.80069 9.97061 9.77377 9.77515 9.76166 9.59766C9.75039 9.43238 9.74993 9.23566 9.74994 9.02148V6.5C9.74994 6.43868 9.75753 6.37687 9.7724 6.31738L10.83 1.75H13.1699L14.2275 6.31738Z" fill="currentColor" />
</svg>