<svg xmlns="http://www.w3.org/2000/svg" width="24" height="24" viewBox="0 0 24 24" fill="none">
    <path opacity="0.4" d="M22.2539 12V12.0526C22.2539 14.2452 22.2539 15.9672 22.0732 17.3115C21.8882 18.6882 21.5008 19.7805 20.6426 20.6387C19.7844 21.4969 18.6921 21.8842 17.3154 22.0693C15.9711 22.25 14.2492 22.25 12.0565 22.25H12.0039H11.9513C9.75868 22.25 8.03666 22.25 6.69238 22.0693C5.31573 21.8842 4.22343 21.4969 3.36523 20.6387C2.50704 19.7805 2.11966 18.6882 1.93457 17.3115C1.75389 15.9672 1.75389 14.2452 1.75391 12.0526V12V11.9474C1.7539 11.2519 1.7539 10.6038 1.75966 10C1.76663 9.27023 1.78202 8.60531 1.81602 8C1.84257 7.5273 1.88047 7.09096 1.93457 6.68848C2.11966 5.31182 2.50704 4.21953 3.36523 3.36133C4.22343 2.50313 5.31573 2.11575 6.69238 1.93066C8.03667 1.74998 9.75867 1.74999 11.9513 1.75H12.0039H12.0565C14.2491 1.74999 15.9711 1.74998 17.3154 1.93066C18.6921 2.11575 19.7844 2.50313 20.6426 3.36133C21.5008 4.21953 21.8882 5.31182 22.0732 6.68848C22.1273 7.09096 22.1652 7.5273 22.1918 8C22.2258 8.60531 22.2412 9.27023 22.2481 10C22.2539 10.6037 22.2539 11.2519 22.2539 11.9474V12Z" fill="currentColor" />
    <path fill-rule="evenodd" clip-rule="evenodd" d="M22.1899 8C22.2239 8.60531 22.2393 9.27023 22.2463 10H1.75781C1.76478 9.27023 1.78017 8.60531 1.81417 8H22.1899Z" fill="currentColor" />
    <path d="M14.2968 13.7929C14.6873 13.4024 15.3203 13.4024 15.7109 13.7929C16.1014 14.1834 16.1014 14.8164 15.7109 15.207L12.7109 18.207C12.3203 18.5975 11.6873 18.5975 11.2968 18.207L8.2968 15.207C7.90628 14.8164 7.90628 14.1834 8.2968 13.7929C8.68732 13.4024 9.32034 13.4024 9.71086 13.7929L12.0038 16.0859L14.2968 13.7929Z" fill="currentColor" />
</svg>