<svg xmlns="http://www.w3.org/2000/svg" width="24" height="24" viewBox="0 0 24 24" fill="none">
    <path opacity="0.4" d="M22.2539 12V12.0526C22.2539 12.7596 22.2539 13.4177 22.2479 14.03C22.2408 14.7408 22.2256 15.39 22.1928 15.9822C22.1662 16.4617 22.128 16.904 22.0732 17.3115C21.8882 18.6882 21.5008 19.7805 20.6426 20.6387C19.7844 21.4969 18.6921 21.8842 17.3154 22.0693C15.9711 22.25 14.2492 22.25 12.0565 22.25H12.0039H11.9513C9.75868 22.25 8.03666 22.25 6.69238 22.0693C5.31573 21.8842 4.22343 21.4969 3.36523 20.6387C2.50704 19.7805 2.11966 18.6882 1.93457 17.3115C1.87979 16.904 1.84162 16.4617 1.81503 15.9822C1.78218 15.39 1.76698 14.7409 1.75995 14.03C1.7539 13.4177 1.7539 12.7596 1.75391 12.0526V12V11.9474C1.75389 9.75476 1.75389 8.03277 1.93457 6.68848C2.11966 5.31182 2.50704 4.21953 3.36523 3.36133C4.22343 2.50313 5.31573 2.11575 6.69238 1.93066C8.03667 1.74998 9.75867 1.74999 11.9513 1.75H12.0039H12.0565C14.2491 1.74999 15.9711 1.74998 17.3154 1.93066C18.6921 2.11575 19.7844 2.50313 20.6426 3.36133C21.5008 4.21953 21.8882 5.31182 22.0732 6.68848C22.2539 8.03276 22.2539 9.75473 22.2539 11.9474V12Z" fill="currentColor" />
    <path fill-rule="evenodd" clip-rule="evenodd" d="M3.117 14C3.66918 14.0001 4.117 14.4478 4.117 15C4.117 15.5522 3.66918 15.9999 3.117 16H2.00567C1.9411 16 1.87796 15.9939 1.81679 15.9822C1.78395 15.39 1.76875 14.7409 1.76172 14.03C1.8398 14.0104 1.92152 14 2.00567 14H3.117ZM7.56134 14C8.11357 14.0001 8.56134 14.4478 8.56134 15C8.56134 15.5522 8.11357 15.9999 7.56134 16H6.45001C5.89777 15.9999 5.45001 15.5522 5.45001 15C5.45001 14.4478 5.89777 14.0001 6.45001 14H7.56134ZM12.5613 14C13.1136 14.0001 13.5613 14.4478 13.5613 15C13.5613 15.5522 13.1136 15.9999 12.5613 16H11.45C10.8978 15.9999 10.45 15.5522 10.45 15C10.45 14.4478 10.8978 14.0001 11.45 14H12.5613ZM17.5613 14C18.1136 14.0001 18.5613 14.4478 18.5613 15C18.5613 15.5522 18.1136 15.9999 17.5613 16H16.45C15.8978 15.9999 15.45 15.5522 15.45 15C15.45 14.4478 15.8978 14.0001 16.45 14H17.5613ZM22.0057 14C22.0898 14 22.1715 14.0104 22.2496 14.03C22.2426 14.7408 22.2274 15.39 22.1946 15.9822C22.1334 15.9939 22.0702 16 22.0057 16H20.8943C20.3422 15.9999 19.8943 15.5522 19.8943 15C19.8943 14.4478 20.3422 14.0001 20.8943 14H22.0057Z" fill="currentColor" />
</svg>