<svg xmlns="http://www.w3.org/2000/svg" width="24" height="24" viewBox="0 0 24 24" fill="none">
    <path opacity="0.4" d="M22.2539 12V11.9474C22.2539 11.2404 22.2539 10.5823 22.2479 9.97003C22.2408 9.25915 22.2256 8.61004 22.1928 8.01781C22.1662 7.53826 22.128 7.09601 22.0732 6.68848C21.8882 5.31182 21.5008 4.21953 20.6426 3.36133C19.7844 2.50313 18.6921 2.11575 17.3154 1.93066C15.9711 1.74998 14.2492 1.74999 12.0565 1.75H12.0039H11.9513C9.75868 1.74999 8.03666 1.74998 6.69238 1.93066C5.31573 2.11575 4.22343 2.50313 3.36523 3.36133C2.50704 4.21953 2.11966 5.31182 1.93457 6.68848C1.87979 7.09601 1.84162 7.53826 1.81503 8.01781C1.78218 8.61004 1.76698 9.25915 1.75995 9.97003C1.7539 10.5823 1.7539 11.2404 1.75391 11.9474V12V12.0526C1.75389 14.2452 1.75389 15.9672 1.93457 17.3115C2.11966 18.6882 2.50704 19.7805 3.36523 20.6387C4.22343 21.4969 5.31573 21.8842 6.69238 22.0693C8.03667 22.25 9.75867 22.25 11.9513 22.25H12.0039H12.0565C14.2491 22.25 15.9711 22.25 17.3154 22.0693C18.6921 21.8842 19.7844 21.4969 20.6426 20.6387C21.5008 19.7805 21.8882 18.6882 22.0732 17.3115C22.2539 15.9672 22.2539 14.2453 22.2539 12.0526V12Z" fill="currentColor" />
    <path fill-rule="evenodd" clip-rule="evenodd" d="M3.117 10C3.66918 9.99988 4.117 9.55221 4.117 9C4.117 8.44779 3.66918 8.00012 3.117 8H2.00567C1.9411 8 1.87796 8.00612 1.81679 8.01781C1.78395 8.61004 1.76875 9.25915 1.76172 9.97003C1.8398 9.98961 1.92152 10 2.00567 10H3.117ZM7.56134 10C8.11357 9.99994 8.56134 9.55225 8.56134 9C8.56134 8.44775 8.11357 8.00006 7.56134 8H6.45001C5.89777 8.00006 5.45001 8.44775 5.45001 9C5.45001 9.55225 5.89777 9.99994 6.45001 10H7.56134ZM12.5613 10C13.1136 9.99994 13.5613 9.55225 13.5613 9C13.5613 8.44775 13.1136 8.00006 12.5613 8H11.45C10.8978 8.00006 10.45 8.44775 10.45 9C10.45 9.55225 10.8978 9.99994 11.45 10H12.5613ZM17.5613 10C18.1136 9.99994 18.5613 9.55225 18.5613 9C18.5613 8.44775 18.1136 8.00006 17.5613 8H16.45C15.8978 8.00006 15.45 8.44775 15.45 9C15.45 9.55225 15.8978 9.99994 16.45 10H17.5613ZM22.0057 10C22.0898 10 22.1715 9.98961 22.2496 9.97003C22.2426 9.25915 22.2274 8.61004 22.1946 8.01781C22.1334 8.00612 22.0702 8 22.0057 8H20.8943C20.3422 8.00012 19.8943 8.44779 19.8943 9C19.8943 9.55221 20.3422 9.99988 20.8943 10H22.0057Z" fill="currentColor" />
</svg>