<svg xmlns="http://www.w3.org/2000/svg" width="24" height="24" viewBox="0 0 24 24" fill="none">
    <path opacity="0.4" d="M22.2539 12V12.0526C22.2539 13.1488 22.2539 14.1274 22.2313 15C22.2122 15.7407 22.1767 16.405 22.1112 17C22.0995 17.106 22.0869 17.2099 22.0732 17.3115C21.8882 18.6882 21.5008 19.7805 20.6426 20.6387C19.7844 21.4969 18.6921 21.8842 17.3154 22.0693C15.9711 22.25 14.2492 22.25 12.0565 22.25H12.0039H11.9513C11.2558 22.25 10.6077 22.25 10.0039 22.2442C9.27414 22.2373 8.60922 22.2219 8.00391 22.1879C7.53121 22.1613 7.09487 22.1234 6.69238 22.0693C5.31573 21.8842 4.22343 21.4969 3.36523 20.6387C2.50704 19.7805 2.11966 18.6882 1.93457 17.3115C1.75389 15.9672 1.75389 14.2452 1.75391 12.0526V12V11.9474C1.75389 9.75476 1.75389 8.03277 1.93457 6.68848C2.11966 5.31182 2.50704 4.21953 3.36523 3.36133C4.22343 2.50313 5.31573 2.11575 6.69238 1.93066C7.09487 1.87657 7.53121 1.83867 8.00391 1.81212C8.60922 1.77811 9.27414 1.76272 10.0039 1.75576C10.6077 1.74999 11.2558 1.75 11.9513 1.75H12.0039H12.0565C14.2491 1.74999 15.9711 1.74998 17.3154 1.93066C18.6921 2.11575 19.7844 2.50313 20.6426 3.36133C21.5008 4.21953 21.8882 5.31182 22.0732 6.68848C22.2539 8.03276 22.2539 9.75473 22.2539 11.9474V12Z" fill="currentColor" />
    <path fill-rule="evenodd" clip-rule="evenodd" d="M8.00391 1.8121V22.1879C8.60922 22.2219 9.27414 22.2373 10.0039 22.2442V17H22.1112C22.1767 16.405 22.2122 15.7407 22.2313 15H10.0039V1.75574C9.27414 1.7627 8.60922 1.7781 8.00391 1.8121Z" fill="currentColor" />
</svg>