<svg xmlns="http://www.w3.org/2000/svg" width="24" height="24" viewBox="0 0 24 24" fill="none">
    <path d="M18.0468 4.54289C18.4373 4.15237 19.0703 4.15237 19.4609 4.54289C19.8514 4.93342 19.8514 5.56643 19.4609 5.95696L16.4609 8.95696C16.0703 9.34748 15.4373 9.34748 15.0468 8.95696C14.6563 8.56643 14.6563 7.93342 15.0468 7.54289L18.0468 4.54289Z" fill="currentColor" />
    <path d="M13.4372 1.39198C13.911 1.10843 14.5256 1.26289 14.8093 1.73671C15.4467 2.80169 15.7085 5.08496 13.3942 7.01796C12.9703 7.37174 12.34 7.31479 11.986 6.89101C11.6322 6.46713 11.6892 5.83677 12.113 5.48281C13.6295 4.21598 13.2531 3.03245 13.0925 2.76406C12.8089 2.29021 12.9634 1.67563 13.4372 1.39198Z" fill="currentColor" />
    <path d="M16.986 10.609C18.919 8.29467 21.2023 8.5565 22.2673 9.19393C22.7411 9.47757 22.8956 10.0922 22.612 10.566C22.3284 11.0398 21.7138 11.1943 21.2399 10.9107C20.9715 10.7501 19.788 10.3737 18.5212 11.8902C18.1672 12.314 17.5369 12.3709 17.113 12.0172C16.6892 11.6632 16.6322 11.0328 16.986 10.609Z" fill="currentColor" />
    <path fill-rule="evenodd" clip-rule="evenodd" d="M4.60541 11.5297L4.97555 10.697L4.99657 10.6497C5.14598 10.3135 5.2877 9.99465 5.42399 9.69434C7.98416 11.1506 11.0334 11.9997 14.3144 11.9997C14.7736 11.9997 15.2281 11.9832 15.6775 11.9507C16.2304 12.5158 16.6895 13.0125 17.0254 13.4646C17.1043 13.5709 17.179 13.6781 17.2484 13.7865C17.2133 13.7953 17.1773 13.8023 17.1406 13.8074C16.2187 13.9344 15.2747 13.9997 14.3144 13.9997C10.7599 13.9997 7.43174 13.0986 4.60541 11.5297Z" fill="currentColor" />
    <path fill-rule="evenodd" clip-rule="evenodd" d="M2.24994 16.8929C2.48232 16.3291 2.74943 15.7148 3.04394 15.0479C6.45006 16.9153 10.2197 17.9487 14.1821 17.9487C14.5209 17.9487 14.8753 17.9629 15.203 17.9759C15.321 17.9806 15.4356 17.9851 15.5447 17.9889C14.9924 18.2753 14.3323 18.5723 13.5799 18.907L13.3552 19.0069L13.3081 19.0278L11.5524 19.8082C8.26129 19.4549 5.1299 18.4452 2.24994 16.8929Z" fill="currentColor" />
    <path opacity="0.4" d="M8.2808 6.28857C9.12138 6.13261 9.84926 6.46698 10.5386 6.979C11.2073 7.47575 11.9736 8.24209 12.9146 9.18308L12.9488 9.21728L14.7867 11.0552L14.8208 11.0893C15.1256 11.3941 15.4121 11.6806 15.6771 11.9514C16.23 12.5165 16.6891 13.0132 17.0249 13.4653C17.1039 13.5716 17.1786 13.6788 17.248 13.7872C17.6284 14.3818 17.8473 15.0122 17.7154 15.7231C17.5592 16.5641 16.985 17.1238 16.2593 17.5835C16.0462 17.7185 15.8068 17.8529 15.5428 17.9898C14.9904 18.2762 14.3308 18.5731 13.5784 18.9078C13.5044 18.9407 13.4291 18.9742 13.3533 19.0078L13.3062 19.0288L11.5505 19.8092L9.99759 20.4995L9.95418 20.5188C7.91075 21.427 6.30209 22.142 5.07865 22.4946C3.88665 22.8382 2.71675 22.9423 1.88919 22.1147C1.06164 21.2872 1.16575 20.1173 1.50931 18.9253C1.67844 18.3385 1.93089 17.6632 2.24803 16.8938C2.48041 16.33 2.74752 15.7158 3.04203 15.0488C3.18367 14.728 3.33165 14.3951 3.48515 14.0497L3.50443 14.0063L4.60499 11.5305L4.97513 10.6977L4.9961 10.6506C5.14552 10.3143 5.28727 9.99541 5.42356 9.69508C5.77954 8.91068 6.09843 8.25301 6.42044 7.74462C6.88016 7.01893 7.43987 6.44471 8.2808 6.28857Z" fill="currentColor" />
</svg>