<svg xmlns="http://www.w3.org/2000/svg" width="24" height="24" viewBox="0 0 24 24" fill="none">
    <path d="M20.2539 19.25C20.8062 19.25 21.2539 19.6977 21.2539 20.25C21.2539 20.8023 20.8062 21.25 20.2539 21.25H12.2539C11.7016 21.25 11.2539 20.8023 11.2539 20.25C11.2539 19.6977 11.7016 19.25 12.2539 19.25H20.2539Z" fill="currentColor" />
    <path opacity="0.4" d="M17.3272 2.75907C17.801 2.80182 18.1833 3.01892 18.5284 3.29032C18.8492 3.5426 19.2031 3.89655 19.6131 4.30669L19.6554 4.34892L19.6979 4.39147C20.1079 4.80139 20.4618 5.15516 20.714 5.47587C20.9853 5.82101 21.2015 6.20324 21.2442 6.67704C21.2563 6.8112 21.2563 6.9462 21.2442 7.08036C21.2016 7.55406 20.9853 7.93645 20.714 8.28153C20.4585 8.60635 20.0989 8.96595 19.6822 9.38261L19.6554 9.40946L9.79111 19.2737L9.68907 19.3758C8.92118 20.1445 8.38724 20.6789 7.69638 20.9651C7.00562 21.2513 6.25023 21.2509 5.16399 21.2503L5.01865 21.2503H3.504C3.08979 21.2503 2.754 20.9145 2.754 20.5003V18.9856L2.75395 18.8404C2.75341 17.754 2.75304 16.9987 3.03916 16.3079C3.3259 15.6156 3.86156 15.0805 4.63269 14.31L4.73056 14.2122L14.5948 4.34892L14.637 4.30669C15.0471 3.89655 15.401 3.5426 15.7218 3.29032C16.0669 3.01892 16.4492 2.80182 16.9229 2.75907C17.0572 2.74698 17.1929 2.74698 17.3272 2.75907Z" fill="currentColor" />
</svg>