<svg xmlns="http://www.w3.org/2000/svg" width="24" height="24" viewBox="0 0 24 24" fill="none">
    <path d="M14.2541 4.24976C14.2541 5.4924 13.2467 6.49976 12.0041 6.49976C10.7614 6.49976 9.75409 5.4924 9.75409 4.24976C9.75409 3.00712 10.7614 1.99976 12.0041 1.99976C13.2467 1.99976 14.2541 3.00712 14.2541 4.24976Z" fill="currentColor" />
    <path opacity="0.4" d="M7.75576 9.24264C8.28434 9.41883 8.83338 9.47438 9.50381 9.49175V13.0141C9.50381 13.7896 9.49957 14.0533 9.45303 14.3042C9.40644 14.555 9.31547 14.8028 9.03701 15.5268L7.07021 20.6401C6.87199 21.1555 7.12913 21.7347 7.64443 21.9331C8.15982 22.1313 8.73905 21.8741 8.9374 21.3588L10.9042 16.2446L10.9332 16.1692C11.0292 15.9198 11.1133 15.7013 11.185 15.4995H12.8226C12.8943 15.7013 12.9784 15.9198 13.0744 16.1692L13.1034 16.2446L15.0702 21.3588C15.2686 21.8741 15.8478 22.1313 16.3632 21.9331C16.8785 21.7347 17.1356 21.1555 16.9374 20.6401L14.9706 15.5268C14.6921 14.8028 14.6012 14.555 14.5546 14.3042C14.508 14.0533 14.5038 13.7896 14.5038 13.0141V9.49175C15.1742 9.47438 15.7233 9.41883 16.2519 9.24264C17.0248 8.98491 17.6777 8.49491 18.6184 7.78879L18.7372 7.69967L20.6034 6.29928C21.0452 5.96795 21.1348 5.34168 20.8036 4.89986C20.4723 4.45809 19.846 4.36844 19.4042 4.69967L17.537 6.09908C16.4281 6.9308 16.0454 7.20306 15.619 7.34518C15.1927 7.4873 14.723 7.49947 13.3368 7.49947H10.6708C9.2846 7.49947 8.81493 7.4873 8.38857 7.34518C7.96222 7.20306 7.57956 6.9308 6.4706 6.09908L4.60342 4.69967C4.1616 4.36844 3.53533 4.45809 3.204 4.89986C2.87277 5.34168 2.96242 5.96795 3.4042 6.29928L5.27041 7.69967L5.38918 7.78879C6.32994 8.49491 6.98277 8.98491 7.75576 9.24264Z" fill="currentColor" />
</svg>