<svg xmlns="http://www.w3.org/2000/svg" width="24" height="24" viewBox="0 0 24 24" fill="none">
    <path opacity="0.4" d="M2.93732 2.93863C3.7505 2.12544 4.89291 1.91835 6.02619 2.02652C7.16607 2.13534 8.44324 2.57093 9.7508 3.23355C10.2434 3.48318 10.4408 4.08468 10.1912 4.5773C9.94158 5.06994 9.33914 5.2664 8.8465 5.01675C7.66949 4.42035 6.64083 4.09459 5.83576 4.01773C5.02464 3.94037 4.58226 4.12301 4.35236 4.35269C4.03975 4.6653 3.82511 5.38809 4.1883 6.75503C4.45968 7.7764 5.01662 8.98997 5.84064 10.2921C6.47665 9.50492 7.1825 8.71886 7.95002 7.95132C9.08239 6.81895 10.255 5.82083 11.4129 4.98257C13.259 3.64618 15.1072 2.68723 16.7303 2.25601C18.2962 1.83996 19.9661 1.84437 21.0603 2.93863C22.1545 4.03288 22.159 5.70282 21.743 7.2687C21.3574 8.71995 20.5495 10.3513 19.4275 12.0001C20.5494 13.6489 21.3574 15.2803 21.743 16.7315C22.1588 18.2972 22.1542 19.9665 21.0603 21.0606C20.2471 21.8738 19.1048 22.0809 17.9715 21.9728C16.8316 21.8639 15.5544 21.4293 14.2469 20.7667C13.7542 20.5171 13.5568 19.9146 13.8064 19.422C14.0561 18.9295 14.6586 18.733 15.1512 18.9825C16.3283 19.5791 17.3568 19.9047 18.1619 19.9815C18.9733 20.0589 19.4154 19.8763 19.6453 19.6466C19.9579 19.334 20.1724 18.6119 19.8094 17.2452C19.538 16.2239 18.981 15.0102 18.157 13.7081C17.521 14.4954 16.8152 15.2814 16.0477 16.0489C14.9154 17.1811 13.7435 18.1785 12.5857 19.0167C10.7395 20.3532 8.89054 21.312 7.2674 21.7433C5.70156 22.1593 4.03251 22.1548 2.9383 21.0606C1.84411 19.9665 1.8397 18.2974 2.25568 16.7315C2.64123 15.2804 3.44825 13.6489 4.57013 12.0001C3.44822 10.3514 2.6413 8.7199 2.25568 7.2687C1.83965 5.70287 1.84326 4.03289 2.93732 2.93863ZM5.84064 13.7081C5.01671 15.0102 4.45964 16.2239 4.1883 17.2452C3.82528 18.6119 4.03978 19.334 4.35236 19.6466C4.66497 19.9591 5.38711 20.1737 6.75373 19.8106C7.77503 19.5393 8.98873 18.9823 10.2908 18.1583C9.50359 17.5223 8.71758 16.8165 7.95002 16.0489C7.18245 15.2814 6.47668 14.4954 5.84064 13.7081ZM11.9988 7.04117C11.1199 7.71903 10.2315 8.49791 9.36408 9.36538C8.49667 10.2328 7.71865 11.1212 7.04084 12.0001C7.71853 12.8788 8.49687 13.7666 9.36408 14.6339C10.2315 15.5013 11.1199 16.2803 11.9988 16.9581C12.8778 16.2802 13.7661 15.5014 14.6336 14.6339C15.5009 13.7665 16.28 12.879 16.9578 12.0001C16.28 11.1211 15.501 10.2328 14.6336 9.36538C13.7661 8.49791 12.8778 7.71903 11.9988 7.04117ZM19.6463 4.35269C19.3337 4.04008 18.6109 3.82642 17.2439 4.1896C16.2226 4.46098 15.009 5.01791 13.7068 5.84195C14.4941 6.478 15.2801 7.18375 16.0477 7.95132C16.8152 8.71889 17.521 9.50489 18.157 10.2921C18.981 8.98999 19.538 7.77639 19.8094 6.75503C20.1725 5.38824 19.9588 4.66535 19.6463 4.35269Z" fill="currentColor" />
    <path d="M12 10C13.1046 10 14 10.8954 14 12C14 13.1046 13.1046 14 12 14C10.8954 14 10 13.1046 10 12C10 10.8954 10.8954 10 12 10Z" fill="currentColor" />
</svg>