<svg xmlns="http://www.w3.org/2000/svg" width="24" height="24" viewBox="0 0 24 24" fill="none">
    <path opacity="0.4" d="M14.3965 7.33545C14.7115 7.65019 15.25 7.42728 15.25 6.98193V2.11572C15.25 1.89774 15.1084 1.70367 14.8984 1.64502C13.9763 1.38745 13.0043 1.24951 12 1.24951C11.1729 1.24951 10.3672 1.34318 9.59375 1.52002C9.22757 1.60405 9.11511 2.05408 9.38086 2.31982L14.3965 7.33545ZM1.52051 14.4048C1.60429 14.7713 2.05446 14.8845 2.32031 14.6186L10.5859 6.35303C10.7809 6.15779 10.7809 5.84117 10.5859 5.64599L7.53125 2.59228C7.38027 2.4413 7.14953 2.40144 6.96094 2.50146C3.56369 4.30776 1.25005 7.8836 1.25 11.9995C1.25 12.8264 1.34376 13.6315 1.52051 14.4048ZM6.54297 21.2632C6.86198 21.4512 7.25 21.2117 7.25 20.8413V13.0171C7.24974 12.572 6.71143 12.3491 6.39648 12.6636L2.5918 16.4683C2.44092 16.6193 2.40179 16.85 2.50195 17.0386C3.43398 18.7917 4.83752 20.2563 6.54297 21.2632Z" fill="currentColor" />
    <path d="M21.8838 15.2513C22.1017 15.2513 22.2958 15.1105 22.3545 14.9007C22.6122 13.9784 22.75 13.0058 22.75 12.0013C22.75 8.05622 20.6249 4.60767 17.457 2.73757C17.138 2.54934 16.75 2.78897 16.75 3.15945V14.7513C16.75 15.0274 16.9739 15.2513 17.25 15.2513H21.8838ZM12 22.7513C15.945 22.7513 19.3935 20.6261 21.2637 17.4583C21.4518 17.1394 21.213 16.7515 20.8428 16.7513H9.25C8.9739 16.7513 8.75006 16.9752 8.75 17.2513V21.8851C8.75 22.1029 8.89078 22.297 9.10059 22.3558C10.0229 22.6135 10.9955 22.7512 12 22.7513Z" fill="currentColor" />
</svg>