<svg xmlns="http://www.w3.org/2000/svg" width="24" height="24" viewBox="0 0 24 24" fill="none">
    <g opacity="0.4">
        <path fill-rule="evenodd" clip-rule="evenodd" d="M17.0815 12.2028L17.0914 12.1929L17.1017 12.1826C17.1017 12.1826 17.1017 12.1826 17.1017 12.1826C17.5894 11.6949 18.0083 11.276 18.2975 10.897" fill="currentColor" />
        <path d="M18.8317 9.51123C18.8316 10.056 18.6018 10.4981 18.2975 10.897C18.0083 11.276 17.5894 11.6949 17.1017 12.1826L17.0914 12.1929L17.0815 12.2028C16.5937 12.6906 16.1747 13.1097 15.7955 13.3989C15.3967 13.7032 14.9545 13.933 14.4098 13.9331C13.8648 13.9331 13.4221 13.7034 13.0231 13.3989C12.6479 13.1127 12.2342 12.6989 11.7528 12.2176L11.7281 12.1929L11.7027 12.1674C11.2215 11.6862 10.8073 11.2721 10.5211 10.897C10.2168 10.4981 9.98705 10.0559 9.98694 9.51123C9.98694 8.9663 10.2167 8.5235 10.5211 8.12451C10.8044 7.7532 11.2131 7.34454 11.6881 6.86959L11.7281 6.82959L11.7678 6.7899C12.2429 6.31475 12.6517 5.90592 13.0231 5.62256C13.4221 5.31816 13.8649 5.08838 14.4098 5.08838C14.9545 5.08849 15.3967 5.31827 15.7955 5.62256C16.1707 5.90882 16.585 6.3231 17.0663 6.80446L17.0914 6.82959L17.1164 6.8546C17.5977 7.3358 18.0113 7.7494 18.2975 8.12451C18.6019 8.52352 18.8317 8.96627 18.8317 9.51123Z" fill="currentColor" />
    </g>
    <path opacity="0.4" d="M10.8004 3.05909C9.3874 1.64613 7.09627 1.64619 5.68322 3.05909C5.39038 3.35194 5.39047 3.82673 5.68322 4.11964L9.28132 7.71774C9.36108 7.59137 9.44428 7.47411 9.52697 7.36573C9.72904 7.1009 9.97745 6.82797 10.2403 6.55563C10.4106 6.37915 10.587 6.20292 10.7608 6.0293L10.8444 5.94581L10.9277 5.86241C10.9449 5.84517 10.9622 5.82789 10.9795 5.8106C11.0543 5.73568 11.1297 5.66041 11.2052 5.58556C11.5592 5.23484 11.9186 4.89217 12.2643 4.62843C12.284 4.61334 12.3041 4.59824 12.3245 4.58315L10.8004 3.05909Z" fill="currentColor" />
    <path d="M12.517 14.5741C12.4279 14.5145 12.3437 14.4536 12.2643 14.393C11.9725 14.1704 11.6707 13.8917 11.3707 13.5993C11.2185 13.4511 11.0668 13.2993 10.9172 13.1495L10.8443 13.0766L10.7703 13.0026C10.6479 12.8803 10.5241 12.7566 10.402 12.6324C10.0803 12.3052 9.77008 11.9744 9.52695 11.6557C9.48891 11.6059 9.45076 11.5541 9.41288 11.5005L2.64219 18.2712C1.78942 19.1242 1.78929 20.5071 2.64219 21.3601C3.4951 22.2129 4.8781 22.2128 5.73105 21.3601L12.517 14.5741Z" fill="currentColor" />
    <path opacity="0.4" d="M19.3397 11.5942C19.3242 11.6152 19.3087 11.6358 19.2932 11.6561C19.0299 12.0012 18.6884 12.3606 18.3386 12.7142C18.2673 12.7863 18.1957 12.8581 18.1243 12.9295C18.0965 12.9573 18.0679 12.9859 18.0403 13.0135L17.9768 13.077L17.9134 13.1404C17.7338 13.3201 17.551 13.503 17.3681 13.6792C17.0949 13.9424 16.8212 14.191 16.5559 14.3934C16.448 14.4757 16.3314 14.5585 16.2057 14.638L19.885 18.3172C20.0256 18.4579 20.2163 18.537 20.4152 18.537C20.6141 18.537 20.8049 18.4579 20.9455 18.3172C22.3586 16.9042 22.3586 14.6131 20.9455 13.2001L19.3397 11.5942Z" fill="currentColor" />
</svg>