<svg xmlns="http://www.w3.org/2000/svg" width="24" height="24" viewBox="0 0 24 24" fill="none">
    <path opacity="0.4" d="M12.7393 4.125C13.5128 4.12499 14.1509 4.12548 14.6787 4.18066C15.2344 4.23878 15.7228 4.3622 16.1885 4.64062C16.6495 4.9163 17.0049 5.29337 17.3496 5.76465C17.6826 6.21997 18.0563 6.83945 18.4971 7.56934C19.0928 8.55573 19.7787 9.303 20.6289 9.91895C21.4841 10.538 22.1026 10.9849 22.4424 11.7168C22.6133 12.085 22.6857 12.4639 22.7197 12.8838C22.7522 13.285 22.752 13.8446 22.752 14.4316C22.752 15.2013 22.752 15.8436 22.6934 16.3545C22.6322 16.8871 22.4976 17.3864 22.1475 17.8047C21.8946 18.0772 21.5853 18.2423 21.249 18.3496C21.0241 18.4214 20.9114 18.4563 20.8291 18.3955C20.7471 18.3346 20.7487 18.1964 20.752 17.9199C20.7521 17.905 20.752 17.89 20.752 17.875C20.752 15.8039 19.073 14.125 17.002 14.125C14.9309 14.1251 13.252 15.804 13.252 17.875V18.1387C13.249 18.3499 13.2329 18.4697 13.167 18.5361C13.079 18.6246 12.9169 18.625 12.5928 18.625H11.4111C11.087 18.625 10.9249 18.6246 10.8369 18.5361C10.7711 18.4697 10.7549 18.3498 10.752 18.1387V17.875C10.752 15.8039 9.073 14.125 7.00193 14.125C4.93092 14.1251 3.25193 15.804 3.25193 17.875C3.25193 18.1684 3.25206 18.3154 3.16502 18.375C3.15996 18.3785 3.15475 18.3818 3.14939 18.3848C3.05723 18.436 2.94409 18.3791 2.71873 18.2666C2.21917 18.0172 1.70628 17.6451 1.46092 17.2344C1.28167 16.9342 1.25194 16.6183 1.25193 16.3398V11.75C1.25193 11.3358 1.58777 11.0001 2.00193 11H10.5137C10.7963 11 10.9375 10.9999 11.0254 10.9121C11.1132 10.8243 11.1133 10.683 11.1133 10.4004V4.875C11.1133 4.70582 11.2257 4.44338 11.3545 4.32422C11.4927 4.19667 11.6745 4.12503 11.8633 4.125H12.7393Z" fill="currentColor" />
    <path d="M7.00194 15.375C8.38265 15.375 9.50195 16.4943 9.50195 17.875C9.50195 19.2557 8.38265 20.375 7.00194 20.375C5.62123 20.375 4.50194 19.2557 4.50194 17.875C4.50195 16.4943 5.62123 15.375 7.00194 15.375ZM17.002 15.375C18.3827 15.375 19.502 16.4943 19.502 17.875C19.502 19.2557 18.3827 20.375 17.002 20.375C15.6212 20.375 14.502 19.2557 14.502 17.875C14.502 16.4943 15.6212 15.375 17.002 15.375ZM22.752 14.4316C22.752 14.8713 22.7521 15.2694 22.7412 15.625H21.752C21.3378 15.6249 21.002 15.2892 21.002 14.875C21.002 14.4608 21.3378 14.1251 21.752 14.125H22.752C22.7521 14.2259 22.752 14.3283 22.752 14.4316ZM13.3555 6C13.8707 6.00263 14.2558 6.01211 14.5752 6.04298C14.9872 6.08283 15.2121 6.15309 15.3945 6.25392C15.5834 6.35829 15.7811 6.52553 16.0615 6.87988C16.352 7.24691 16.6781 7.74483 17.1582 8.4795C17.5964 9.15009 18.0581 9.72131 18.6006 10.2324C18.9729 10.5832 19.1591 10.7593 19.1035 10.8799C19.0475 11.0001 18.7913 11 18.2803 11H17.4814C16.6646 11 16.1319 10.9983 15.7246 10.9473C15.3493 10.9002 15.1567 10.8194 15.001 10.6992C14.8314 10.5683 14.666 10.3588 14.4639 9.92676C14.2578 9.48614 14.049 8.89411 13.749 8.03906L13.1436 6.31348C13.1135 6.2279 13.0986 6.18467 13.1348 6.11427C13.1708 6.04424 13.192 6.03602 13.2344 6.02052C13.2717 6.00689 13.3128 5.99978 13.3555 6Z" fill="currentColor" />
</svg>