<svg xmlns="http://www.w3.org/2000/svg" width="24" height="24" viewBox="0 0 24 24" fill="none">
    <path opacity="0.4" d="M6.28516 12.752C6.62156 15.3338 8.66623 17.3784 11.248 17.7148V22.75C5.89598 22.3811 1.61892 18.104 1.25 12.752H6.28516ZM12.752 1.25C18.104 1.61892 22.3811 5.89598 22.75 11.248H17.7148C17.3784 8.66623 15.3338 6.62156 12.752 6.28516V1.25Z" fill="currentColor" />
    <path d="M22.75 12.752C22.3811 18.104 18.104 22.3811 12.752 22.75V17.7148C15.3338 17.3784 17.3784 15.3338 17.7148 12.752H22.75ZM11.248 6.28516C8.66623 6.62156 6.62156 8.66623 6.28516 11.248H1.25C1.61892 5.89598 5.89598 1.61892 11.248 1.25V6.28516Z" fill="currentColor" />
</svg>