<svg xmlns="http://www.w3.org/2000/svg" width="24" height="24" viewBox="0 0 24 24" fill="none">
    <path d="M6.86426 13.2313C7.28859 12.8781 7.91907 12.9359 8.27246 13.3602C8.62563 13.7845 8.56778 14.415 8.14355 14.7684C7.87177 14.9948 7.50335 15.2779 7.14062 15.5613C6.76675 15.8535 6.37877 16.1621 6.02637 16.4686C6.01448 16.4789 6.00295 16.4895 5.99121 16.4998H20.0039C20.5562 16.4998 21.0039 16.9475 21.0039 17.4998C21.0039 18.0521 20.5562 18.4998 20.0039 18.4998H5.99121C6.00295 18.5101 6.01448 18.5207 6.02637 18.5311C6.37877 18.8376 6.76675 19.1461 7.14062 19.4383C7.50335 19.7218 7.87177 20.0049 8.14355 20.2313C8.56778 20.5847 8.62563 21.2151 8.27246 21.6395C7.91907 22.0637 7.28859 22.1215 6.86426 21.7684C6.62424 21.5684 6.29852 21.3187 5.90918 21.0145C5.53108 20.719 5.10824 20.3838 4.71387 20.0408C4.32452 19.7022 3.93206 19.3295 3.62988 18.9569C3.38359 18.6531 3.04861 18.1753 3.00781 17.6131L3.00391 17.4998L3.00781 17.3865C3.04861 16.8243 3.38359 16.3465 3.62988 16.0428C3.93206 15.6702 4.32452 15.2974 4.71387 14.9588C5.10824 14.6158 5.53108 14.2807 5.90918 13.9852C6.29852 13.6809 6.62424 13.4312 6.86426 13.2313Z" fill="currentColor" />
    <path opacity="0.4" d="M9.13184 3.18457C8.40601 3.93728 8.00391 4.95063 8.00391 6C8.00391 7.04937 8.40601 8.06272 9.13184 8.81543C9.85877 9.56917 10.8523 9.99992 11.8965 10H14.0042V14C14.0042 14.5523 14.4519 15 15.0042 15C15.5565 15 16.0042 14.5523 16.0042 14V4H17.0042V14C17.0042 14.5523 17.4519 15 18.0042 15C18.5565 15 19.0042 14.5523 19.0042 14V4C19.5563 3.99985 20.0039 3.55219 20.0039 3C20.0039 2.44772 19.5562 2 19.0039 2H18.0042H15.0042H11.8965C10.8523 2.00008 9.85877 2.43083 9.13184 3.18457ZM11.8965 4H14.0042V8H11.8965C11.4065 7.99992 10.9292 7.79796 10.5713 7.42676C10.2121 7.05425 10.0039 6.54188 10.0039 6C10.0039 5.45812 10.2121 4.94575 10.5713 4.57324C10.9292 4.20204 11.4065 4.00008 11.8965 4Z" fill="currentColor" />
</svg>