<svg xmlns="http://www.w3.org/2000/svg" width="24" height="24" viewBox="0 0 24 24" fill="none">
    <path opacity="0.4" d="M6.67574 7.22897C7.388 5.9673 9.01344 5.40079 10.4384 5.97213C11.5075 6.40072 12.7079 6.4121 13.7851 6.00338C15.222 5.45831 16.8345 6.05441 17.5204 7.3276C17.7722 7.79496 18.1079 8.20782 18.5058 8.55026C18.6123 8.64485 18.7699 8.77261 18.9697 8.91842C19.1643 9.06047 19.2614 9.13151 19.29 9.22995C19.3185 9.32851 19.2765 9.43631 19.1913 9.65084L16.666 16.0151C15.8507 18.0696 15.2066 19.6906 14.5761 20.7915C13.9532 21.879 13.1807 22.7505 11.9999 22.7505C10.8192 22.7505 10.0466 21.879 9.42379 20.7915C8.86967 19.824 8.3049 18.4548 7.62301 16.7427C7.54574 16.5487 7.50737 16.4511 7.54097 16.3745C7.57466 16.298 7.68169 16.2576 7.89449 16.1763C9.13974 15.7003 10.0515 14.5381 10.0517 13.1353C10.0517 11.2859 8.47472 9.86081 6.62398 9.86081C6.2093 9.86081 5.80964 9.9309 5.43941 10.061C5.23613 10.1325 5.13471 10.1685 5.06148 10.1353C4.98827 10.1019 4.95171 10.0102 4.87887 9.82663L4.78902 9.59909C4.69848 9.37093 4.65245 9.25692 4.68746 9.1528C4.72249 9.04867 4.82963 8.98405 5.04293 8.85495C5.18116 8.77127 5.30269 8.69666 5.40133 8.63424L5.42086 8.62155L5.44039 8.6069C5.94329 8.24249 6.3674 7.77509 6.67574 7.22897ZM13.999 13.2505C13.5052 13.2505 13.0739 13.4891 12.7812 13.7817C12.4884 14.0745 12.249 14.5066 12.249 15.0005C12.2492 15.4145 12.585 15.7504 12.999 15.7505C13.413 15.7505 13.7487 15.4145 13.749 15.0005C13.749 14.9944 13.7598 14.9254 13.8417 14.8433C13.9234 14.7616 13.992 14.7506 13.999 14.7505C14.413 14.7505 14.7487 14.4145 14.749 14.0005C14.749 13.5863 14.4132 13.2505 13.999 13.2505ZM6.62398 11.3608C7.73123 11.3608 8.55172 12.1968 8.55172 13.1353C8.55147 13.9622 7.92037 14.7038 7.00875 14.8735C6.94337 14.8857 6.8741 14.8553 6.84957 14.7935L5.62008 11.6939C5.60597 11.6583 5.62251 11.6182 5.65621 11.6001C5.93852 11.4488 6.26827 11.3609 6.62398 11.3608ZM13.998 8.00045C13.4457 8.00045 12.998 8.44817 12.998 9.00045C12.9982 9.55253 13.4459 10.0005 13.998 10.0005H14.0068C14.5589 10.0005 15.0065 9.55253 15.0068 9.00045C15.0068 8.44817 14.5591 8.00045 14.0068 8.00045H13.998Z" fill="currentColor" />
    <path d="M13.9981 13.25C14.4121 13.2502 14.7481 13.5859 14.7481 14C14.7481 14.4141 14.4121 14.7498 13.9981 14.75C13.992 14.75 13.923 14.7607 13.8409 14.8428C13.7586 14.925 13.7481 14.9939 13.7481 15C13.7481 15.4141 13.4121 15.7498 12.9981 15.75C12.5839 15.75 12.2481 15.4142 12.2481 15C12.2481 14.5061 12.4876 14.075 12.7803 13.7822C13.0731 13.4896 13.5043 13.25 13.9981 13.25ZM6.62306 11.3604C7.73007 11.3606 8.55079 12.1964 8.55079 13.1348C8.55078 13.9619 7.91866 14.7033 7.00685 14.873C6.94171 14.885 6.87328 14.8554 6.84864 14.7939L5.61818 11.6943C5.60407 11.6588 5.62158 11.6187 5.65528 11.6006C5.93757 11.4493 6.26741 11.3604 6.62306 11.3604ZM14.0059 8C14.558 8.00021 15.0059 8.44785 15.0059 9C15.0059 9.55215 14.558 9.99979 14.0059 10H13.9962C13.444 9.99979 12.9962 9.55215 12.9962 9C12.9962 8.44785 13.4441 8.00021 13.9962 8H14.0059ZM12.0001 1.25C13.9865 1.25001 15.894 1.57351 17.6641 2.16797L17.7169 2.18555C18.3501 2.39814 18.9112 2.58664 19.3536 2.82422C19.8479 3.08972 20.2361 3.43638 20.5049 3.97363C20.7886 4.54069 20.7989 5.09776 20.6729 5.67871C20.5587 6.20508 20.3172 6.81271 20.0401 7.51074C19.9882 7.64134 19.8273 7.68916 19.7159 7.60352C19.6224 7.53165 19.549 7.47137 19.4991 7.42676L19.4942 7.42188L19.4883 7.41699C19.2243 7.19051 19.0042 6.91936 18.8409 6.61621C17.7817 4.65028 15.3605 3.80113 13.253 4.60059C12.5274 4.8759 11.7157 4.86859 10.9962 4.58008C8.90439 3.74151 6.46715 4.54626 5.36915 6.49121C5.17354 6.83771 4.90341 7.13941 4.57814 7.37891C4.47582 7.44341 4.35505 7.51872 4.22071 7.59961C4.1252 7.65712 4.00119 7.61431 3.95997 7.51074C3.68291 6.81272 3.44136 6.20508 3.32716 5.67871C3.20118 5.09772 3.21142 4.54072 3.49513 3.97363C3.76401 3.43634 4.15209 3.08972 4.6465 2.82422C5.08881 2.58669 5.64919 2.39809 6.28224 2.18555L6.33497 2.16797C8.10528 1.57342 10.0134 1.25 12.0001 1.25Z" fill="currentColor" />
</svg>