<svg xmlns="http://www.w3.org/2000/svg" width="24" height="24" viewBox="0 0 24 24" fill="none">
    <path opacity="0.4" d="M6.30415 5.50612C6.41121 5.4467 6.54422 5.48329 6.80903 5.55593C7.39663 5.7171 8.0272 5.89826 8.6811 6.09792C11.2724 6.88914 13.5939 8.42631 15.4399 10.4983L15.4496 10.5081L15.4584 10.5188C16.111 11.1986 17.0342 12.3802 17.9194 13.8811C18.0507 14.1038 18.1164 14.2153 18.0902 14.3313C18.0639 14.4475 17.9543 14.5212 17.7358 14.6683L14.5229 16.8294C14.3197 16.9661 14.2176 17.0344 14.1283 17.0091C14.0394 16.9834 13.9837 16.8616 13.8735 16.6184C13.3529 15.4709 12.2492 14.6438 10.9203 14.6438C9.05625 14.6438 7.6442 16.26 7.64399 18.1272C7.64399 18.9617 7.92043 19.7372 8.39106 20.344C8.54219 20.5389 8.61786 20.6361 8.60297 20.7229C8.58807 20.8097 8.49429 20.8705 8.3061 20.9915C7.51275 21.5016 6.82121 21.9155 6.22211 22.2083C5.14518 22.7346 4.01128 23.0484 3.08735 22.3304C2.18073 21.6258 2.15502 20.4478 2.34419 19.2376C2.54008 17.9845 3.0366 16.2983 3.6684 14.1526L3.80415 13.6927C3.8223 13.631 3.89212 13.6006 3.95356 13.6194C4.22791 13.7036 4.51736 13.7493 4.81586 13.7493C6.58772 13.7493 7.92329 12.2109 7.92329 10.4436C7.92326 8.99287 7.0356 7.71582 5.74067 7.28737C5.7156 7.27908 5.70001 7.25216 5.70747 7.22683L6.07954 5.96413C6.15763 5.6989 6.19703 5.56581 6.30415 5.50612ZM10.9203 16.1438C11.7317 16.1438 12.4772 16.7725 12.6576 17.7083C12.6879 17.8653 12.7022 17.9441 12.6977 17.9768C12.6912 18.0234 12.6881 18.0332 12.6596 18.0706C12.6396 18.0969 12.5979 18.1239 12.516 18.179L10.5824 19.4808C10.4224 19.5884 10.2649 19.6936 10.1108 19.7972C10.0617 19.83 9.99734 19.8232 9.94965 19.7884C9.47535 19.4411 9.14399 18.8362 9.14399 18.1272C9.1442 16.9749 9.99385 16.1438 10.9203 16.1438ZM12.5912 10.4993C12.0392 10.4996 11.5912 10.9472 11.5912 11.4993C11.5914 12.0513 12.0393 12.499 12.5912 12.4993H12.601C13.153 12.4991 13.6008 12.0514 13.601 11.4993C13.601 10.9471 13.1531 10.4995 12.601 10.4993H12.5912ZM5.33442 8.7864C5.42972 8.75235 5.49989 8.80002 5.64008 8.89479C6.09492 9.2023 6.42327 9.76517 6.42329 10.4436C6.42329 11.499 5.64743 12.2493 4.81586 12.2493C4.66883 12.2493 4.52721 12.227 4.39301 12.1858C4.32317 12.1643 4.27472 12.0928 4.29536 12.0227L5.15376 9.10866C5.21021 8.91691 5.23888 8.82073 5.33442 8.7864Z" fill="currentColor" />
    <path d="M10.9179 16.1455C11.7293 16.1455 12.4747 16.7743 12.6552 17.71C12.6855 17.8671 12.7008 17.9458 12.6963 17.9785C12.6898 18.0253 12.6858 18.0347 12.6572 18.0723C12.6372 18.0986 12.5965 18.1266 12.5146 18.1817L10.58 19.4824C10.4202 19.59 10.2633 19.6954 10.1093 19.7989C10.0602 19.8319 9.995 19.825 9.94725 19.7901C9.47313 19.4429 9.14173 18.8386 9.14158 18.1299C9.14158 16.9776 9.99151 16.1458 10.9179 16.1455ZM8.16795 1.56645C8.67308 1.27971 9.16997 1.21164 9.70506 1.2686C10.179 1.31906 10.7164 1.47282 11.3144 1.64457L11.3681 1.6602C14.9098 2.67706 17.9994 4.80444 20.2705 7.65043L20.3076 7.69633C20.7507 8.25154 21.1425 8.74274 21.3955 9.21C21.6788 9.73335 21.8123 10.2664 21.7187 10.8975C21.6213 11.5546 21.2944 12.0426 20.833 12.4746C20.5954 12.697 20.3062 12.9184 19.9775 13.1514C19.7331 13.3246 19.6105 13.4115 19.4824 13.3848C19.3542 13.3579 19.2738 13.2251 19.1142 12.959C18.2009 11.4367 17.2538 10.2257 16.5498 9.49028C14.5355 7.233 11.9863 5.53993 9.11815 4.6641C8.47422 4.46749 7.85247 4.2889 7.27147 4.12895C6.98446 4.04994 6.84068 4.01034 6.78025 3.89457C6.71985 3.77881 6.76764 3.64333 6.86326 3.37309C6.93389 3.17349 7.00661 2.98914 7.08397 2.82133C7.32489 2.29873 7.64434 1.86375 8.16795 1.56645ZM12.5986 10.5C13.1509 10.5 13.5986 10.9477 13.5986 11.5C13.5986 12.0523 13.1509 12.5 12.5986 12.5H12.5898C12.0375 12.5 11.5898 12.0523 11.5898 11.5C11.5898 10.9477 12.0375 10.5 12.5898 10.5H12.5986ZM5.33201 8.78813C5.42755 8.7538 5.49816 8.80154 5.63865 8.89653C6.0934 9.20403 6.42083 9.76701 6.42088 10.4453C6.42088 11.5006 5.64594 12.2509 4.81443 12.251C4.66739 12.251 4.5258 12.2287 4.39158 12.1875C4.32168 12.1661 4.27327 12.0946 4.29393 12.0244L5.15232 9.11039C5.20876 8.91873 5.23649 8.82245 5.33201 8.78813Z" fill="currentColor" />
</svg>