<svg xmlns="http://www.w3.org/2000/svg" width="24" height="24" viewBox="0 0 24 24" fill="none">
    <path opacity="0.4" d="M4.85535 17.0559C6.30475 19.0996 8.60969 20.4941 11.2479 20.718V21.7796C11.2479 22.3664 10.7556 22.8349 10.1844 22.7366C7.60308 22.2923 5.33464 20.9152 3.72937 18.9602C3.35882 18.5084 3.5124 17.841 4.01453 17.5471L4.85535 17.0559ZM19.9823 17.5462C20.4845 17.8401 20.6383 18.5074 20.2675 18.9593C18.6621 20.915 16.3934 22.2921 13.8114 22.7366C13.2403 22.8348 12.748 22.3664 12.7479 21.7796V20.718C15.3868 20.494 17.6922 19.0985 19.1415 17.054L19.9823 17.5462ZM11.2479 19.2112C9.16138 18.9968 7.3366 17.8979 6.15613 16.2952L11.2479 13.3167V19.2112ZM17.8407 16.2932C16.6603 17.8968 14.8351 18.9967 12.7479 19.2112V13.3147L17.8407 16.2932ZM1.91296 8.22093C2.11402 7.67037 2.76078 7.47234 3.26257 7.76585L4.08972 8.25023C3.55002 9.38654 3.24798 10.6577 3.24792 11.9993C3.24792 13.341 3.54998 14.6129 4.08972 15.7493L3.2616 16.2327C2.7599 16.5261 2.11411 16.3289 1.91296 15.7786C1.48311 14.6014 1.24792 13.3279 1.24792 11.9993C1.24797 10.6708 1.48314 9.39802 1.91296 8.22093ZM20.7343 7.7678C21.2361 7.47425 21.8829 7.67222 22.0839 8.22288C22.5132 9.3994 22.7479 10.6716 22.7479 11.9993C22.7479 13.3271 22.5133 14.6 22.0839 15.7766C21.8828 16.3272 21.2361 16.5252 20.7343 16.2317L19.9071 15.7473C20.4463 14.6114 20.7479 13.3404 20.7479 11.9993C20.7479 10.6584 20.4462 9.38799 19.9071 8.25218L20.7343 7.7678ZM10.4999 11.9993L5.3905 14.9885C4.97771 14.0773 4.74792 13.0647 4.74792 11.9993C4.74798 10.9339 4.97772 9.92212 5.3905 9.01097L10.4999 11.9993ZM18.6063 9.01292C19.0185 9.92356 19.2479 10.9347 19.2479 11.9993C19.2479 13.0641 19.0186 14.0758 18.6063 14.9866L13.4999 11.9993L18.6063 9.01292ZM12.7479 4.78831C14.8351 5.00283 16.6603 6.10283 17.8407 7.70628L12.7479 10.6848V4.78831ZM11.2479 10.6819L6.1571 7.70433C7.33758 6.10179 9.16151 5.00275 11.2479 4.78831V10.6819ZM13.8114 1.26292C16.3934 1.70737 18.6621 3.08451 20.2675 5.04027C20.6381 5.49209 20.4845 6.1595 19.9823 6.45335L19.1415 6.94456C17.6921 4.90015 15.3867 3.5055 12.7479 3.28148V2.21995C12.7479 1.63302 13.2403 1.16467 13.8114 1.26292ZM10.1844 1.26292C10.7556 1.16461 11.2479 1.63299 11.2479 2.21995V3.28148C8.60981 3.50543 6.30573 4.90002 4.85632 6.94359L4.0155 6.4514C3.51308 6.15751 3.35931 5.49016 3.73035 5.03831C5.33559 3.08357 7.60331 1.7072 10.1844 1.26292Z" fill="currentColor" />
    <path d="M11.2479 19.2113C9.16138 18.9969 7.3366 17.898 6.15613 16.2953L11.2479 13.3168V19.2113ZM17.8407 16.2933C16.6603 17.8969 14.8351 18.9968 12.7479 19.2113V13.3148L17.8407 16.2933ZM10.4999 11.9994L5.3905 14.9886C4.97771 14.0774 4.74792 13.0648 4.74792 11.9994C4.74798 10.934 4.97772 9.92226 5.3905 9.01111L10.4999 11.9994ZM18.6063 9.01306C19.0185 9.9237 19.2479 10.9348 19.2479 11.9994C19.2479 13.0642 19.0186 14.0759 18.6063 14.9867L13.4999 11.9994L18.6063 9.01306ZM12.7479 4.78845C14.8351 5.00297 16.6603 6.10297 17.8407 7.70642L12.7479 10.6849V4.78845ZM11.2479 10.682L6.1571 7.70447C7.33758 6.10193 9.16151 5.00289 11.2479 4.78845V10.682Z" fill="currentColor" />
</svg>