<svg xmlns="http://www.w3.org/2000/svg" width="24" height="24" viewBox="0 0 24 24" fill="none">
    <path opacity="0.4" d="M20.9482 8.50295C21.3171 8.50295 21.5013 8.50376 21.6182 8.61916C21.7348 8.73455 21.7377 8.917 21.7422 9.28225C21.7503 9.94648 21.75 10.6664 21.75 11.4453V11.5605C21.75 11.7437 21.7504 11.8354 21.7354 11.8955C21.695 12.0558 21.6423 12.1247 21.499 12.207C21.4452 12.2379 21.3192 12.273 21.0684 12.3438C20.6706 12.456 20.2955 12.6694 19.9824 12.9824L18.957 14.0078C18.6239 14.341 18.4571 14.5078 18.25 14.5078C18.0429 14.5078 17.8761 14.341 17.543 14.0078L16.5176 12.9824C15.5413 12.0061 13.9587 12.0061 12.9824 12.9824C12.0061 13.9587 12.0061 15.5413 12.9824 16.5176L14.0078 17.543C14.341 17.8761 14.5078 18.0429 14.5078 18.25C14.5078 18.4571 14.341 18.6239 14.0078 18.957L12.9824 19.9824C12.6694 20.2955 12.456 20.6706 12.3438 21.0684C12.2722 21.3221 12.2365 21.4496 12.2051 21.5039C12.123 21.6456 12.0551 21.6968 11.8965 21.7373C11.8357 21.7528 11.7428 21.7529 11.5576 21.7529H11.4424C9.2521 21.7529 7.53174 21.7528 6.18848 21.5723C4.81201 21.3872 3.71947 21.0005 2.86133 20.1426C2.00318 19.2844 1.61576 18.192 1.43066 16.8154C1.25005 15.472 1.24999 13.7512 1.25 11.5605V11.4463C1.25 10.6671 1.24969 9.94666 1.25781 9.28225C1.26228 8.917 1.26516 8.73455 1.38184 8.61916C1.49865 8.50376 1.68294 8.50295 2.05176 8.50295H20.9482ZM8.05469 1.29006C8.37144 1.27829 8.53015 1.27192 8.59082 1.37404C8.65144 1.4761 8.57007 1.61345 8.40723 1.88772L5.95703 6.01369C5.81533 6.25236 5.7446 6.37199 5.62988 6.43752C5.5149 6.50297 5.37548 6.50295 5.09766 6.50295H1.83887C1.62896 6.50295 1.52369 6.50298 1.46387 6.43361C1.40437 6.36425 1.41916 6.26287 1.44922 6.06057C1.62418 4.88282 1.99839 3.72722 2.86133 2.86428C3.71951 2.00617 4.81189 1.61869 6.18848 1.43361C6.74388 1.35896 7.36378 1.31574 8.05469 1.29006ZM13.3613 1.25197C13.8521 1.25551 14.3428 1.26465 14.833 1.28322C15.2674 1.29968 15.4848 1.30754 15.5664 1.45803C15.6478 1.60896 15.534 1.79838 15.3057 2.1758L12.9795 6.02053C12.8371 6.25597 12.7655 6.374 12.6514 6.4385C12.5371 6.50293 12.3992 6.50295 12.124 6.50295H8.67285C8.35963 6.50295 8.20295 6.50285 8.14551 6.40139C8.08839 6.29996 8.16909 6.1658 8.33008 5.89748L10.8252 1.7383C10.9672 1.50164 11.0383 1.38324 11.1523 1.31838C11.2666 1.2535 11.4056 1.25275 11.6826 1.25197H13.3613ZM18.0371 1.76467C18.212 1.70782 18.3651 1.77165 18.6709 1.89748C19.2228 2.12458 19.7099 2.43555 20.1387 2.86428C21.0016 3.72721 21.3758 4.88282 21.5508 6.06057C21.5808 6.26288 21.5956 6.36425 21.5361 6.43361C21.4763 6.50298 21.371 6.50295 21.1611 6.50295H15.6973C15.3807 6.50295 15.2223 6.5028 15.165 6.40041C15.1083 6.29802 15.1916 6.16305 15.3574 5.89357L17.5713 2.29494C17.7653 1.97969 17.8625 1.82158 18.0371 1.76467Z" fill="currentColor" />
    <path d="M21.0429 14.043C21.4335 13.6525 22.0665 13.6525 22.457 14.043C22.8474 14.4336 22.8475 15.0666 22.457 15.4571L19.664 18.2501L22.457 21.043C22.8474 21.4336 22.8475 22.0666 22.457 22.4571C22.0665 22.8476 21.4335 22.8476 21.0429 22.4571L18.25 19.6641L15.457 22.4571C15.0665 22.8476 14.4335 22.8476 14.0429 22.4571C13.6524 22.0666 13.6524 21.4336 14.0429 21.043L16.8359 18.2501L14.0429 15.4571C13.6524 15.0666 13.6524 14.4336 14.0429 14.043C14.4335 13.6525 15.0665 13.6525 15.457 14.043L18.25 16.836L21.0429 14.043Z" fill="currentColor" />
</svg>