<svg xmlns="http://www.w3.org/2000/svg" width="24" height="24" viewBox="0 0 24 24" fill="none">
    <path opacity="0.4" d="M20.9482 8.50295C21.3171 8.50295 21.5013 8.50376 21.6182 8.61916C21.7348 8.73455 21.7377 8.917 21.7422 9.28225C21.7503 9.94648 21.75 10.6664 21.75 11.4453V12.2861C21.7495 12.6966 21.7493 12.9023 21.6318 12.9922C21.5144 13.0821 21.2937 13.0226 20.8535 12.9043C19.8053 12.6228 18.8157 12.7505 18 13.0879C16.8566 12.615 15.3718 12.554 13.8623 13.4541C12.2482 14.4166 11.55 16.2869 11.8008 18.1055C11.9234 18.9946 12.2596 19.8657 12.7949 20.6885C13.1198 21.1877 13.2827 21.4378 13.1982 21.5947C13.1132 21.7516 12.8339 21.7523 12.2764 21.7529H11.4424C9.2521 21.7529 7.53174 21.7528 6.18848 21.5723C4.81201 21.3872 3.71947 21.0005 2.86133 20.1426C2.00318 19.2844 1.61576 18.192 1.43066 16.8154C1.25005 15.4721 1.24999 13.7512 1.25 11.5605V11.4463C1.25 10.6672 1.24969 9.94664 1.25781 9.28225C1.26228 8.917 1.26516 8.73455 1.38184 8.61916C1.49865 8.50376 1.68294 8.50295 2.05176 8.50295H20.9482ZM8.05469 1.29006C8.37144 1.27829 8.53015 1.27192 8.59082 1.37404C8.65144 1.4761 8.57007 1.61345 8.40723 1.88772L5.95703 6.01369C5.81533 6.25236 5.7446 6.37199 5.62988 6.43752C5.5149 6.50297 5.37548 6.50295 5.09766 6.50295H1.83887C1.62896 6.50295 1.52369 6.50298 1.46387 6.43361C1.40437 6.36425 1.41916 6.26287 1.44922 6.06057C1.62418 4.88282 1.99839 3.72722 2.86133 2.86428C3.71951 2.00617 4.81189 1.61869 6.18848 1.43361C6.74388 1.35896 7.36379 1.31574 8.05469 1.29006ZM13.3613 1.25197C13.8521 1.25551 14.3428 1.26465 14.833 1.28322C15.2674 1.29968 15.4848 1.30754 15.5664 1.45803C15.6478 1.60896 15.534 1.79838 15.3057 2.1758L12.9795 6.02053C12.8371 6.25598 12.7655 6.374 12.6514 6.4385C12.5371 6.50293 12.3992 6.50295 12.124 6.50295H8.67285C8.35963 6.50295 8.20295 6.50285 8.14551 6.40139C8.08839 6.29996 8.16909 6.1658 8.33008 5.89748L10.8252 1.7383C10.9672 1.50165 11.0383 1.38324 11.1523 1.31838C11.2666 1.2535 11.4056 1.25275 11.6826 1.25197H13.3613ZM18.0371 1.76467C18.212 1.70782 18.3651 1.77165 18.6709 1.89748C19.2228 2.12458 19.7099 2.43555 20.1387 2.86428C21.0016 3.72721 21.3758 4.88282 21.5508 6.06057C21.5808 6.26288 21.5956 6.36425 21.5361 6.43361C21.4763 6.50298 21.371 6.50295 21.1611 6.50295H15.6973C15.3807 6.50295 15.2223 6.5028 15.165 6.40041C15.1083 6.29802 15.1916 6.16305 15.3574 5.89357L17.5713 2.29494C17.7653 1.97969 17.8625 1.82158 18.0371 1.76467Z" fill="currentColor" />
    <path d="M17.9995 14.7894C18.7724 14.2398 20.0202 13.9378 21.3696 14.7425C22.3759 15.3426 22.8973 16.5671 22.7134 17.9007C22.528 19.2445 21.6451 20.6874 19.9018 21.9417C19.348 22.3413 18.7807 22.7503 17.9995 22.7503C17.2183 22.7502 16.651 22.3413 16.0972 21.9417C14.3539 20.6874 13.472 19.2445 13.2866 17.9007C13.1026 16.567 13.624 15.3426 14.6304 14.7425C15.9796 13.938 17.2266 14.2399 17.9995 14.7894Z" fill="currentColor" />
</svg>