<svg xmlns="http://www.w3.org/2000/svg" width="24" height="24" viewBox="0 0 24 24" fill="none">
    <path fill-rule="evenodd" clip-rule="evenodd" d="M8.00372 1.99976V5.99976H10.0037V1.99976C10.0037 1.44747 9.55601 0.999756 9.00372 0.999756C8.45144 0.999756 8.00372 1.44747 8.00372 1.99976Z" fill="currentColor" />
    <path fill-rule="evenodd" clip-rule="evenodd" d="M14.0037 1.99976V5.99976H16.0037V1.99976C16.0037 1.44747 15.556 0.999756 15.0037 0.999756C14.4514 0.999756 14.0037 1.44747 14.0037 1.99976Z" fill="currentColor" />
    <path fill-rule="evenodd" clip-rule="evenodd" d="M11.3171 18.7501C11.2087 18.7501 11.1042 18.7501 11.0037 18.7498V22.0001C11.0037 22.5524 11.4514 23.0001 12.0037 23.0001C12.556 23.0001 13.0037 22.5524 13.0037 22.0001V18.7498C12.8983 18.7501 12.7889 18.7501 12.6753 18.7501H12.6434H11.3641L11.3171 18.7501Z" fill="currentColor" />
    <path opacity="0.4" d="M20.0037 6.99976C20.0037 6.44747 19.556 5.99976 19.0037 5.99976H16.0037H14.0037H10.0037H8.00372H5.00372C4.45144 5.99976 4.00372 6.44747 4.00372 6.99976C4.00372 7.55204 4.45144 7.99976 5.00372 7.99976H5.25372V9.99976C5.25372 11.7305 5.67048 13.2271 6.97345 14.53C7.01258 14.5692 7.07768 14.6647 7.13751 14.8669L7.14351 14.8872C7.36876 15.6487 7.54639 16.2492 7.7049 16.699C7.85694 17.1303 8.02711 17.5349 8.28009 17.821C8.40575 17.9632 8.53145 18.0935 8.68829 18.2107C8.84527 18.328 9.00645 18.4117 9.17853 18.4919C9.49137 18.6378 9.81215 18.6972 10.1541 18.7244C10.3983 18.7438 10.6809 18.7484 11.0037 18.7494C11.1042 18.7498 11.2087 18.7498 11.3171 18.7498L11.3641 18.7498H12.6434H12.6719C12.7855 18.7498 12.8983 18.7498 13.0037 18.7494C13.3458 18.7482 13.645 18.743 13.9031 18.7214C14.2601 18.6915 14.5944 18.6271 14.9188 18.4675C15.3179 18.2711 15.5569 18.081 15.8377 17.7361C16.0864 17.4305 16.2359 17.0249 16.3621 16.5935C16.4912 16.1522 16.6245 15.5718 16.792 14.8431L16.7986 14.8142C16.8056 14.7839 16.8122 14.7593 16.8182 14.74C16.8194 14.736 16.8228 14.7268 16.824 14.7234C18.0598 13.4624 18.7537 11.7672 18.7537 9.99976V7.99976H19.0037C19.556 7.99976 20.0037 7.55204 20.0037 6.99976Z" fill="currentColor" />
</svg>