<svg xmlns="http://www.w3.org/2000/svg" width="24" height="24" viewBox="0 0 24 24" fill="none">
    <path opacity="0.4" d="M11.7545 8.75H13.0045C13.7176 8.75004 14.3295 9.17723 14.6022 9.78906C14.641 9.76415 14.6874 9.75006 14.7369 9.75H16.0045C16.7413 9.75004 17.3705 10.2059 17.6285 10.8506C17.6741 10.7899 17.7461 10.7501 17.8278 10.75H19.0045C19.971 10.7501 20.7545 11.5335 20.7545 12.5V18.5C20.7545 20.2949 19.2994 21.75 17.5045 21.75H9.59925C8.83153 21.75 8.11619 21.3588 7.70276 20.7119L3.56312 14.2324C3.16362 13.6135 3.14986 12.8203 3.52894 12.1885C4.11873 11.2058 5.4293 10.9493 6.34632 11.6367C6.35361 11.6422 6.36115 11.6481 6.3678 11.6543L8.25452 13.4219V4C8.25452 3.0335 9.03802 2.25 10.0045 2.25C10.971 2.25005 11.7545 3.03353 11.7545 4V8.75Z" fill="currentColor" />
</svg>