<svg xmlns="http://www.w3.org/2000/svg" width="24" height="24" viewBox="0 0 24 24" fill="none">
    <path opacity="0.4" d="M22 2.25C22.4142 2.25 22.75 2.58579 22.75 3C22.75 5.56974 21.1566 8.03654 19.4561 9.74023C19.3141 9.88244 19.2428 9.95371 19.2236 10.0381C19.2045 10.1226 19.2397 10.2203 19.3086 10.415C19.5326 11.0483 19.6765 11.7192 19.7285 12.415C19.7421 12.5963 19.7486 12.6873 19.7021 12.7676C19.6555 12.8479 19.5685 12.8894 19.3955 12.9717L18.6133 13.3438C17.2566 13.8745 16.2501 15.1347 16.25 16.6592C16.25 17.9104 16.9324 18.9895 17.9258 19.625L18.0293 19.6963C18.2495 19.8478 18.3592 19.9243 18.3887 20.0283C18.4067 20.0921 18.4016 20.1698 18.375 20.2305C18.3314 20.3294 18.218 20.3861 17.9922 20.499C16.4199 21.2852 14.3003 21.75 12 21.75C9.69967 21.75 7.58012 21.2852 6.00781 20.499C5.77782 20.384 5.66244 20.3265 5.61914 20.2256C5.59339 20.1653 5.58853 20.0884 5.60645 20.0254C5.63652 19.9198 5.74974 19.8441 5.97559 19.6924L6.07129 19.6279C7.06671 18.9928 7.75 17.912 7.75 16.6592C7.74988 15.1336 6.74195 13.8728 5.38379 13.3428L4.6084 12.9814C4.43353 12.9 4.34518 12.859 4.29785 12.7783C4.25067 12.6978 4.25805 12.6063 4.27148 12.4238C4.32294 11.725 4.46652 11.0509 4.69141 10.415C4.76029 10.2203 4.79546 10.1226 4.77637 10.0381C4.75718 9.95371 4.68589 9.88244 4.54395 9.74023C2.84338 8.03654 1.25 5.56974 1.25 3C1.25 2.58579 1.58579 2.25 2 2.25C5.59102 2.25 7.81484 3.89003 8.94238 5.36816C9.08745 5.55834 9.15998 5.6539 9.25 5.68262C9.33997 5.71111 9.45348 5.67583 9.67969 5.60547C11.1841 5.13756 12.8159 5.13756 14.3203 5.60547C14.5465 5.67583 14.66 5.71111 14.75 5.68262C14.84 5.6539 14.9125 5.55834 15.0576 5.36816C16.1852 3.89003 18.409 2.25 22 2.25ZM19.5146 14.5977C19.6025 14.5902 19.6528 14.6045 19.7227 14.6582C19.7658 14.6914 19.82 14.7773 19.9268 14.9492C19.9703 15.0192 20.0192 15.095 20.0732 15.1787C20.1085 15.2333 20.1457 15.292 20.1855 15.3545C20.4334 15.743 20.75 16.2825 20.75 17C20.75 17.6359 20.5406 18.2129 20.1875 18.7246C20.0554 18.9161 19.9892 19.0117 19.8672 19.0342C19.7451 19.0567 19.6387 18.9837 19.4268 18.8379L18.7646 18.3818C18.7571 18.3766 18.749 18.3721 18.7412 18.3672C18.1229 17.975 17.75 17.3435 17.75 16.6592C17.7501 15.8281 18.3063 15.0664 19.1777 14.7334C19.2881 14.6912 19.3952 14.6078 19.5146 14.5977ZM4.47559 14.5977C4.59788 14.6043 4.70995 14.6904 4.82227 14.7334C5.69369 15.0664 6.24987 15.8281 6.25 16.6592C6.25 17.3435 5.8771 17.975 5.25879 18.3672L5.24316 18.377L4.5625 18.834C4.35056 18.9763 4.24425 19.0476 4.12305 19.0244C4.00221 19.0011 3.93695 18.9058 3.80664 18.7158C3.45725 18.2063 3.25 17.6322 3.25 17C3.25 16.2825 3.56658 15.743 3.81445 15.3545C3.85428 15.2921 3.89251 15.2333 3.92773 15.1787C3.97958 15.0984 4.02623 15.0256 4.06836 14.958C4.17978 14.7792 4.23552 14.6895 4.28223 14.6553C4.34799 14.6071 4.39425 14.5933 4.47559 14.5977Z" fill="currentColor" />
    <path d="M19.5146 14.5957C19.6026 14.5882 19.6527 14.6034 19.7227 14.6572C19.7658 14.6904 19.8199 14.7763 19.9268 14.9482C19.9702 15.0182 20.0193 15.0941 20.0732 15.1777C20.1084 15.2322 20.1458 15.2902 20.1855 15.3525C20.4334 15.741 20.7499 16.2807 20.75 16.998C20.75 17.6339 20.5406 18.2109 20.1875 18.7227C20.0553 18.9142 19.9892 19.0097 19.8672 19.0322C19.7451 19.0547 19.6387 18.9827 19.4268 18.8369L18.7646 18.3809C18.7569 18.3756 18.7491 18.3702 18.7412 18.3652C18.123 17.9731 17.7501 17.3423 17.75 16.6582C17.75 15.827 18.3063 15.0655 19.1777 14.7324C19.2881 14.6902 19.3951 14.6059 19.5146 14.5957ZM4.47559 14.5967C4.59796 14.6033 4.70988 14.6894 4.82227 14.7324C5.69378 15.0655 6.25 15.827 6.25 16.6582C6.24987 17.3423 5.877 17.9731 5.25879 18.3652L5.24316 18.376L4.5625 18.832C4.35053 18.9744 4.24426 19.0457 4.12305 19.0225C4.0022 18.9991 3.93703 18.904 3.80664 18.7139C3.45725 18.2043 3.25 17.6302 3.25 16.998C3.2501 16.2807 3.56662 15.741 3.81445 15.3525C3.85419 15.2903 3.89258 15.2322 3.92773 15.1777C3.97969 15.0973 4.02616 15.0238 4.06836 14.9561C4.17954 14.7776 4.23558 14.6886 4.28223 14.6543C4.34804 14.6061 4.3942 14.5923 4.47559 14.5967ZM12.5156 15.4277C12.8315 15.1598 13.3053 15.1988 13.5732 15.5146C13.8412 15.8305 13.8022 16.3043 13.4863 16.5723C13.0692 16.9262 12.5861 17.2535 11.9961 17.25C11.4116 17.2465 10.9321 16.9179 10.5215 16.5762C10.2033 16.3112 10.16 15.8388 10.4248 15.5205C10.6898 15.2021 11.1631 15.1589 11.4814 15.4238C11.8619 15.7404 11.9855 15.7498 12.0049 15.75C12.0181 15.7501 12.1388 15.7474 12.5156 15.4277ZM9.00098 11.5C9.55326 11.5 10.001 11.9477 10.001 12.5C10.001 13.0523 9.55326 13.5 9.00098 13.5H8.99219C8.4399 13.5 7.99219 13.0523 7.99219 12.5C7.99219 11.9477 8.4399 11.5 8.99219 11.5H9.00098ZM15.0088 11.5C15.5611 11.5 16.0088 11.9477 16.0088 12.5C16.0088 13.0523 15.5611 13.5 15.0088 13.5H15C14.4477 13.5 14 13.0523 14 12.5C14 11.9477 14.4477 11.5 15 11.5H15.0088Z" fill="currentColor" />
</svg>