<svg xmlns="http://www.w3.org/2000/svg" width="24" height="24" viewBox="0 0 24 24" fill="none">
    <path opacity="0.4" d="M21.7966 16C21.9893 16 22.0863 16.0005 22.1628 16.0527C22.2391 16.105 22.2724 16.1914 22.3395 16.3633C22.8038 17.5522 22.938 18.647 22.4099 19.6699C21.8109 20.8295 20.6657 21.3106 19.2302 21.5322C17.8177 21.7503 15.9004 21.75 13.4665 21.75H10.5349C8.10095 21.75 6.18358 21.7503 4.77115 21.5322C3.33565 21.3106 2.19044 20.8295 1.59146 19.6699C1.06329 18.6471 1.19663 17.5522 1.6608 16.3633C1.72795 16.1913 1.7622 16.105 1.83853 16.0527C1.915 16.0005 2.01135 16 2.20377 16H21.7966ZM12.0007 2.25C13.016 2.25003 13.7887 2.83466 14.4899 3.6543C15.1767 4.45704 15.9203 5.63592 16.8503 7.11133C17.088 7.48839 17.207 7.67751 17.1394 7.8252C17.1332 7.83855 17.1259 7.85195 17.1179 7.86426C17.029 8.00019 16.8057 8 16.3601 8H7.64127C7.1957 8 6.97236 8.00013 6.88345 7.86426C6.87544 7.85196 6.8681 7.83854 6.86197 7.8252C6.79423 7.6775 6.91332 7.48844 7.15103 7.11133C8.08103 5.6359 8.82461 4.45703 9.51138 3.6543C10.2127 2.83464 10.9853 2.25 12.0007 2.25Z" fill="currentColor" />
    <path d="M18.3388 10C18.5005 10 18.5817 9.99992 18.6493 10.0371C18.717 10.0744 18.7603 10.1433 18.8466 10.2803L19.164 10.7842C19.6952 11.6268 20.181 12.3974 20.6113 13.1045C20.8502 13.4972 20.9702 13.6937 20.8847 13.8467C20.7987 13.9997 20.5662 14 20.1025 14H3.8974C3.43368 14 3.20118 13.9997 3.11517 13.8467C3.02964 13.6937 3.14969 13.4972 3.38861 13.1045C3.81884 12.3974 4.3047 11.6268 4.83588 10.7842L5.15326 10.2803C5.23957 10.1433 5.28287 10.0744 5.35053 10.0371C5.41813 9.99991 5.4994 10 5.66107 10H18.3388Z" fill="currentColor" />
</svg>