<svg xmlns="http://www.w3.org/2000/svg" width="24" height="24" viewBox="0 0 24 24" fill="none">
    <path d="M15.0039 8.65723C15.0039 10.3141 13.6607 11.6572 12.0039 11.6572C10.347 11.6572 9.00386 10.3141 9.00386 8.65723C9.00386 7.00037 10.347 5.65723 12.0039 5.65723C13.6607 5.65723 15.0039 7.00037 15.0039 8.65723Z" fill="currentColor" />
    <path d="M15.0039 8.65723C15.0039 10.3141 13.6607 11.6572 12.0039 11.6572C10.347 11.6572 9.00386 10.3141 9.00386 8.65723C9.00386 7.00037 10.347 5.65723 12.0039 5.65723C13.6607 5.65723 15.0039 7.00037 15.0039 8.65723Z" fill="currentColor" />
    <g opacity="0.4">
        <path d="M7.76122 4.41487C8.15176 4.02453 8.78482 4.02441 9.17528 4.41487C9.56556 4.80535 9.56556 5.43846 9.17528 5.82893C7.61319 7.39103 7.61319 9.92406 9.17528 11.4862C9.56548 11.8767 9.56563 12.5098 9.17528 12.9002C8.78486 13.2906 8.15177 13.2904 7.76122 12.9002C5.41807 10.5571 5.41807 6.75801 7.76122 4.41487ZM14.8315 4.41487C15.222 4.02441 15.8551 4.02453 16.2456 4.41487C18.5887 6.75801 18.5887 10.5571 16.2456 12.9002C15.855 13.2904 15.222 13.2906 14.8315 12.9002C14.4412 12.5098 14.4413 11.8767 14.8315 11.4862C16.3936 9.92406 16.3936 7.39103 14.8315 5.82893C14.4413 5.43846 14.4413 4.80535 14.8315 4.41487Z" fill="currentColor" />
        <path d="M7.76122 4.41487C8.15176 4.02453 8.78482 4.02441 9.17528 4.41487C9.56556 4.80535 9.56556 5.43846 9.17528 5.82893C7.61319 7.39103 7.61319 9.92406 9.17528 11.4862C9.56548 11.8767 9.56563 12.5098 9.17528 12.9002C8.78486 13.2906 8.15177 13.2904 7.76122 12.9002C5.41807 10.5571 5.41807 6.75801 7.76122 4.41487ZM14.8315 4.41487C15.222 4.02441 15.8551 4.02453 16.2456 4.41487C18.5887 6.75801 18.5887 10.5571 16.2456 12.9002C15.855 13.2904 15.222 13.2906 14.8315 12.9002C14.4412 12.5098 14.4413 11.8767 14.8315 11.4862C16.3936 9.92406 16.3936 7.39103 14.8315 5.82893C14.4413 5.43846 14.4413 4.80535 14.8315 4.41487Z" fill="currentColor" />
    </g>
    <g opacity="0.4">
        <path d="M5.63961 2.29292C6.03007 1.90246 6.66313 1.90258 7.05367 2.29292C7.4442 2.68345 7.4442 3.31646 7.05367 3.70698C4.32029 6.44057 4.32037 10.8728 7.05367 13.6064C7.4442 13.9969 7.4442 14.6299 7.05367 15.0205C6.66314 15.4109 6.03011 15.411 5.63961 15.0205C2.12525 11.5058 2.12518 5.80756 5.63961 2.29292ZM16.9541 2.29292C17.3446 1.90258 17.9777 1.90246 18.3681 2.29292C21.8826 5.80756 21.8825 11.5058 18.3681 15.0205C17.9776 15.411 17.3446 15.4109 16.9541 15.0205C16.5635 14.6299 16.5635 13.9969 16.9541 13.6064C19.6874 10.8728 19.6874 6.44057 16.9541 3.70698C16.5635 3.31646 16.5635 2.68345 16.9541 2.29292Z" fill="currentColor" />
        <path d="M5.63961 2.29292C6.03007 1.90246 6.66313 1.90258 7.05367 2.29292C7.4442 2.68345 7.4442 3.31646 7.05367 3.70698C4.32029 6.44057 4.32037 10.8728 7.05367 13.6064C7.4442 13.9969 7.4442 14.6299 7.05367 15.0205C6.66314 15.4109 6.03011 15.411 5.63961 15.0205C2.12525 11.5058 2.12518 5.80756 5.63961 2.29292ZM16.9541 2.29292C17.3446 1.90258 17.9777 1.90246 18.3681 2.29292C21.8826 5.80756 21.8825 11.5058 18.3681 15.0205C17.9776 15.411 17.3446 15.4109 16.9541 15.0205C16.5635 14.6299 16.5635 13.9969 16.9541 13.6064C19.6874 10.8728 19.6874 6.44057 16.9541 3.70698C16.5635 3.31646 16.5635 2.68345 16.9541 2.29292Z" fill="currentColor" />
    </g>
    <path d="M11.0039 11C11.0039 10.4477 11.4516 10 12.0039 10C12.5561 10 13.0039 10.4477 13.0039 11V20H15.5039C16.0561 20 16.5039 20.4477 16.5039 21C16.5039 21.5523 16.0561 22 15.5039 22H8.50386C7.95158 22 7.50386 21.5523 7.50386 21C7.50386 20.4477 7.95158 20 8.50386 20H11.0039V11Z" fill="currentColor" />
</svg>