<svg xmlns="http://www.w3.org/2000/svg" width="24" height="24" viewBox="0 0 24 24" fill="none">
    <path d="M9.00392 12.0004C9.00392 11.2403 9.28768 10.5433 9.75392 10.0151C10.1194 9.60107 10.752 9.56173 11.166 9.92717C11.58 10.2926 11.6194 10.9252 11.2539 11.3393C11.0978 11.5162 11.0039 11.7462 11.0039 12.0004C11.0041 12.5525 11.4517 13.0004 12.0039 13.0004C12.2582 13.0004 12.4882 12.9065 12.6651 12.7504C13.0791 12.385 13.7107 12.4244 14.0762 12.8383C14.4416 13.2524 14.4023 13.884 13.9883 14.2494C13.4601 14.7157 12.7641 15.0004 12.0039 15.0004C10.3472 15.0004 9.0041 13.6571 9.00392 12.0004Z" fill="currentColor" />
    <path d="M1.29689 1.29314C1.68742 0.902613 2.32043 0.902613 2.71095 1.29314L22.711 21.2931C23.1015 21.6837 23.1015 22.3167 22.711 22.7072C22.3204 23.0977 21.6874 23.0977 21.2969 22.7072L1.29689 2.7072C0.906367 2.31668 0.906367 1.68366 1.29689 1.29314Z" fill="currentColor" />
    <path d="M5.00392 12.0002C5.00392 10.3017 5.56692 8.52311 6.79689 7.29314C7.18741 6.90261 7.82043 6.90261 8.21095 7.29314C8.60148 7.68366 8.60148 8.31668 8.21095 8.7072C7.44093 9.47723 7.00392 10.6986 7.00392 12.0002C7.00392 13.3017 7.44093 14.5231 8.21095 15.2931C8.60148 15.6837 8.60148 16.3167 8.21095 16.7072C7.82043 17.0977 7.18741 17.0977 6.79689 16.7072C5.56692 15.4772 5.00392 13.6986 5.00392 12.0002Z" fill="currentColor" />
    <path d="M1.00392 12.0002C1.00392 9.20718 2.12995 6.96008 3.79689 5.29314C4.18741 4.90261 4.82043 4.90261 5.21095 5.29314C5.60148 5.68366 5.60148 6.31668 5.21095 6.7072C3.8779 8.04026 3.00392 9.79315 3.00392 12.0002C3.00392 14.2072 3.8779 15.9601 5.21095 17.2931C5.60148 17.6837 5.60148 18.3167 5.21095 18.7072C4.82043 19.0977 4.18741 19.0977 3.79689 18.7072C2.12995 17.0403 1.00392 14.7932 1.00392 12.0002Z" fill="currentColor" />
    <path opacity="0.4" d="M17.0039 12.0002C17.0039 10.6986 16.5669 9.47723 15.7969 8.7072C15.4064 8.31668 15.4064 7.68366 15.7969 7.29314C16.1874 6.90261 16.8204 6.90261 17.211 7.29314C18.4409 8.52311 19.0039 10.3017 19.0039 12.0002C19.0039 12.5808 18.9386 13.1636 18.8067 13.7277C18.6809 14.2654 18.1431 14.5994 17.6055 14.4738C17.0678 14.348 16.7337 13.8103 16.8594 13.2726C16.9554 12.8624 17.0039 12.4323 17.0039 12.0002Z" fill="currentColor" />
    <path opacity="0.4" d="M21.0039 12.0002C21.0039 9.79315 20.1299 8.04026 18.7969 6.7072C18.4064 6.31668 18.4064 5.68366 18.7969 5.29314C19.1874 4.90261 19.8204 4.90261 20.211 5.29314C21.8779 6.96008 23.0039 9.20718 23.0039 12.0002C23.0039 13.6917 22.5905 15.1938 21.8819 16.4914C21.6171 16.9761 21.0091 17.1545 20.5244 16.8898C20.0397 16.6251 19.8613 16.0171 20.126 15.5324C20.6754 14.5265 21.0039 13.3541 21.0039 12.0002Z" fill="currentColor" />
</svg>