<svg xmlns="http://www.w3.org/2000/svg" width="24" height="24" viewBox="0 0 24 24" fill="none">
    <path opacity="0.4" d="M20.7539 20.7548C20.7539 20.7361 20.7539 20.7173 20.7539 20.6984V3.66717C20.7539 3.39377 20.7537 3.16428 20.746 2.98455C20.7389 2.81755 20.7234 2.61245 20.6572 2.42205C20.3339 1.49343 19.3172 1.03145 18.4179 1.35076L18.2402 1.42498C18.0594 1.51224 17.9034 1.64587 17.7792 1.75896C17.6458 1.88048 17.4821 2.04216 17.2871 2.23553C17.1994 2.32241 17.1476 2.37324 17.1074 2.41033C17.0852 2.43074 17.0738 2.44094 17.0693 2.44451C16.9936 2.49361 16.8958 2.49904 16.8144 2.45818C16.8097 2.45527 16.797 2.44697 16.7724 2.42889C16.7283 2.39642 16.6709 2.35127 16.5742 2.27459L16.4023 2.13787C16.3762 2.11714 16.3503 2.09655 16.3246 2.07614C15.9355 1.76676 15.5959 1.49671 15.206 1.36932C14.7498 1.22031 14.2579 1.22031 13.8017 1.36932C13.4118 1.49671 13.0722 1.76677 12.6831 2.07614C12.6574 2.09655 12.6316 2.11714 12.6054 2.13787L12.538 2.19158C12.351 2.33991 12.2413 2.42596 12.1552 2.48455C12.1053 2.51853 12.0807 2.53162 12.0722 2.53533C12.0277 2.54752 11.98 2.54752 11.9355 2.53533C11.927 2.53162 11.9024 2.51853 11.8525 2.48455C11.7664 2.42596 11.6567 2.33991 11.4697 2.19158L11.4023 2.13787C11.3762 2.11714 11.3503 2.09656 11.3246 2.07614C10.9355 1.76677 10.5959 1.49671 10.206 1.36932C9.74983 1.22031 9.25789 1.22031 8.80171 1.36932C8.41182 1.49671 8.0722 1.76677 7.68312 2.07614C7.65744 2.09656 7.63155 2.11714 7.60542 2.13787L7.43355 2.27459C7.33687 2.35127 7.27947 2.39642 7.2353 2.42889C7.21069 2.44697 7.19804 2.45527 7.19331 2.45818C7.11195 2.49904 7.0141 2.49361 6.93843 2.44451C6.93388 2.44094 6.9225 2.43074 6.90034 2.41033C6.86008 2.37324 6.80829 2.32241 6.72065 2.23553C6.52561 2.04216 6.36187 1.88048 6.22847 1.75896C6.10429 1.64587 5.9483 1.51224 5.76753 1.42498C4.88769 1.00039 3.83592 1.37756 3.42378 2.24236L3.35054 2.42205C3.28427 2.61245 3.26881 2.81755 3.26167 2.98455C3.25399 3.16428 3.25386 3.39377 3.25386 3.66717V20.6984C3.25386 20.7173 3.25384 20.7361 3.25382 20.7548C3.25363 20.9509 3.25345 21.1373 3.27437 21.2726C3.47554 22.5716 4.98467 23.1789 6.03706 22.4133C6.14779 22.3326 6.28021 22.2011 6.42044 22.0618C6.43354 22.0488 6.4467 22.0357 6.45991 22.0226C6.58683 21.8968 6.6143 21.8704 6.63472 21.8537L6.73433 21.7844C6.97792 21.6432 7.28707 21.6474 7.52925 21.8049C7.55149 21.8193 7.58212 21.8427 7.72163 21.9533L7.85835 22.0617C7.87246 22.0729 7.88643 22.084 7.90026 22.095C8.08923 22.2451 8.25346 22.3755 8.42769 22.4699C9.09854 22.8331 9.90918 22.8331 10.58 22.4699C10.7543 22.3755 10.9185 22.2451 11.1076 22.0949C11.1214 22.0839 11.1353 22.0729 11.1494 22.0617L11.2197 22.006C11.5467 21.7466 11.6178 21.6958 11.6757 21.6681C11.8828 21.5692 12.1249 21.5692 12.332 21.6681C12.3899 21.6958 12.461 21.7466 12.788 22.006L12.8583 22.0617C12.8724 22.0729 12.8864 22.084 12.9002 22.0949C13.0892 22.2451 13.2534 22.3755 13.4277 22.4699C14.0985 22.8331 14.9092 22.8331 15.58 22.4699C15.7543 22.3755 15.9185 22.2451 16.1076 22.0949C16.1214 22.0839 16.1353 22.0729 16.1494 22.0617L16.2861 21.9533C16.4256 21.8427 16.4562 21.8193 16.4785 21.8049C16.7551 21.625 17.1189 21.6454 17.373 21.8537C17.3934 21.8704 17.4209 21.8968 17.5478 22.0226C17.561 22.0358 17.5742 22.0488 17.5873 22.0619C17.7275 22.2011 17.8599 22.3326 17.9707 22.4133C19.023 23.1789 20.5322 22.5716 20.7333 21.2726C20.7543 21.1373 20.7541 20.9509 20.7539 20.7548Z" fill="currentColor" />
    <path d="M14.2499 9.92285C14.2113 9.54488 13.892 9.25 13.5038 9.25H10.5038C10.0896 9.25 9.75378 9.58579 9.75378 10V10.5C9.75378 10.9142 10.0896 11.25 10.5038 11.25H13.5038C14.7464 11.25 15.7538 12.2574 15.7538 13.5V14C15.7538 15.2426 14.7464 16.25 13.5038 16.25H12.7538V17C12.7538 17.4142 12.418 17.75 12.0038 17.75C11.5896 17.75 11.2538 17.4142 11.2538 17V16.25H10.5038C9.26114 16.25 8.25378 15.2426 8.25378 14C8.25378 13.5858 8.58957 13.25 9.00378 13.25C9.39195 13.25 9.71126 13.5449 9.74988 13.9229L9.75769 14.0771C9.79631 14.4551 10.1156 14.75 10.5038 14.75H13.5038C13.918 14.75 14.2538 14.4142 14.2538 14V13.5C14.2538 13.0858 13.918 12.75 13.5038 12.75H10.5038C9.26114 12.75 8.25378 11.7426 8.25378 10.5V10C8.25378 8.75736 9.26114 7.75 10.5038 7.75H11.2538V7C11.2538 6.58579 11.5896 6.25 12.0038 6.25C12.418 6.25 12.7538 6.58579 12.7538 7V7.75H13.5038C14.7464 7.75 15.7538 8.75736 15.7538 10C15.7538 10.4142 15.418 10.75 15.0038 10.75C14.6156 10.75 14.2963 10.4551 14.2577 10.0771L14.2499 9.92285Z" fill="currentColor" />
</svg>