<svg xmlns="http://www.w3.org/2000/svg" width="24" height="24" viewBox="0 0 24 24" fill="none">
    <path opacity="0.4" fill-rule="evenodd" clip-rule="evenodd" d="M9.97035 3.24933H14.0375C15.4092 3.24932 16.4846 3.24932 17.349 3.31994C18.2291 3.39185 18.9562 3.54071 19.6144 3.87604C20.6963 4.42731 21.5759 5.30695 22.1272 6.38888C22.4625 7.04701 22.6114 7.77412 22.6833 8.65426C22.7539 9.51861 22.7539 10.594 22.7539 11.9657V12.0329C22.7539 13.4046 22.7539 14.48 22.6833 15.3444C22.6114 16.2245 22.4625 16.9516 22.1272 17.6098C21.5759 18.6917 20.6963 19.5713 19.6144 20.1226C18.9562 20.458 18.2291 20.6068 17.349 20.6787C16.4846 20.7493 15.4092 20.7493 14.0375 20.7493H9.97033C8.59862 20.7493 7.52319 20.7493 6.65884 20.6787C5.7787 20.6068 5.05159 20.458 4.39346 20.1226C3.31153 19.5713 2.43189 18.6917 1.88062 17.6098C1.54528 16.9516 1.39643 16.2245 1.32452 15.3444C1.2539 14.48 1.2539 13.4046 1.25391 12.0329V11.9658C1.2539 10.594 1.2539 9.51861 1.32452 8.65426C1.39643 7.77412 1.54528 7.04701 1.88062 6.38888C2.43189 5.30695 3.31153 4.42731 4.39346 3.87604C5.05159 3.54071 5.7787 3.39185 6.65884 3.31994C7.52319 3.24932 8.59863 3.24932 9.97035 3.24933Z" fill="currentColor" />
    <path d="M22.1264 6.39065C22.4617 7.04879 22.6106 7.77589 22.6825 8.65604C22.7531 9.52037 22.7531 10.5958 22.7531 11.9675V11.9675V12.0347V12.0347C22.7531 13.4064 22.7531 14.4818 22.6825 15.3462C22.6106 16.2263 22.4617 16.9534 22.1264 17.6115C21.5751 18.6935 20.6955 19.5731 19.6136 20.1244C18.9554 20.4597 18.2283 20.6086 17.3482 20.6805C16.4838 20.7511 15.4084 20.7511 14.0367 20.7511H14.0367H9.96953H9.96949C8.5978 20.7511 7.52239 20.7511 6.65805 20.6805C5.77791 20.6086 5.0508 20.4597 4.39267 20.1244C3.85015 19.848 3.35849 19.489 2.93359 19.0633L21.0031 4.87042C21.4561 5.30906 21.8366 5.8219 22.1264 6.39065Z" fill="currentColor" />
</svg>