<svg xmlns="http://www.w3.org/2000/svg" width="24" height="24" viewBox="0 0 24 24" fill="none">
    <path opacity="0.4" fill-rule="evenodd" clip-rule="evenodd" d="M3.25302 9.96635L3.25302 14.0335C3.25302 15.4052 3.25301 16.4806 3.32363 17.345C3.39554 18.2251 3.5444 18.9522 3.87973 19.6104C4.43101 20.6923 5.31064 21.5719 6.39258 22.1232C7.05071 22.4585 7.77782 22.6074 8.65796 22.6793C9.5223 22.7499 10.5977 22.7499 11.9694 22.7499H12.0366C13.4083 22.7499 14.4837 22.7499 15.3481 22.6793C16.2282 22.6074 16.9553 22.4585 17.6135 22.1232C18.6954 21.5719 19.575 20.6923 20.1263 19.6104C20.4616 18.9522 20.6105 18.2251 20.6824 17.345C20.753 16.4806 20.753 15.4052 20.753 14.0335V9.96633C20.753 8.59462 20.753 7.51919 20.6824 6.65484C20.6105 5.7747 20.4616 5.04759 20.1263 4.38946C19.575 3.30753 18.6954 2.42789 17.6135 1.87662C16.9553 1.54129 16.2282 1.39243 15.3481 1.32052C14.4837 1.2499 13.4083 1.2499 12.0366 1.24991L11.9695 1.24991C10.5977 1.2499 9.52231 1.2499 8.65796 1.32052C7.77782 1.39243 7.05071 1.54129 6.39258 1.87662C5.31064 2.42789 4.43101 3.30753 3.87973 4.38946C3.5444 5.04759 3.39554 5.7747 3.32363 6.65484C3.25301 7.51919 3.25302 8.59463 3.25302 9.96635Z" fill="currentColor" />
    <path d="M6.39435 22.1224C7.05248 22.4577 7.77959 22.6066 8.65973 22.6785C9.52406 22.7491 10.5995 22.7491 11.9712 22.7491H12.0384C13.4101 22.7491 14.4855 22.7491 15.3499 22.6785C16.23 22.6066 16.9571 22.4577 17.6152 22.1224C18.6972 21.5711 19.5768 20.6915 20.1281 19.6096C20.4634 18.9514 20.6123 18.2243 20.6842 17.3442C20.7548 16.4798 20.7548 15.4044 20.7548 14.0327L20.7548 9.96549C20.7548 8.5938 20.7548 7.51839 20.6842 6.65405C20.6123 5.77391 20.4634 5.0468 20.1281 4.38867C19.8517 3.84615 19.4927 3.35449 19.067 2.9296L4.87411 20.9991C5.31275 21.4521 5.8256 21.8326 6.39435 22.1224Z" fill="currentColor" />
</svg>