<svg xmlns="http://www.w3.org/2000/svg" width="24" height="24" viewBox="0 0 24 24" fill="none">
    <path opacity="0.4" d="M6.54086 9.90028C7.26004 9.8804 7.75541 10.3047 8.08968 10.6932C8.40487 11.0596 8.77056 11.6403 9.13265 12.2147L9.81332 13.2948C10.0999 13.7495 9.96597 14.3513 9.51351 14.6395C9.06069 14.9277 8.46051 14.7927 8.17367 14.3378L7.493 13.2587C7.08094 12.6052 6.80634 12.1841 6.5975 11.9413C6.40277 12.195 6.15279 12.6295 5.77816 13.3046L4.39242 15.8016C3.84177 16.794 3.48575 17.4411 3.30355 17.9276C3.21619 18.1609 3.20225 18.359 3.20004 18.4315C3.26989 18.4669 3.46476 18.5588 3.71468 18.5956C4.23551 18.6722 4.98157 18.6747 6.12289 18.6747H10.9559C11.4918 18.6748 11.9266 19.1119 11.9266 19.6503C11.9263 20.1885 11.4917 20.6248 10.9559 20.6249H6.04672C5.00286 20.6249 4.11213 20.6251 3.43343 20.5253C2.73017 20.4217 1.97583 20.1734 1.535 19.4344C1.09176 18.691 1.23759 17.9075 1.48714 17.2411C1.7268 16.6012 2.15676 15.8258 2.65902 14.9208L4.11703 12.2938C4.44621 11.7004 4.74471 11.1615 5.0389 10.7782C5.351 10.3715 5.8216 9.92033 6.54086 9.90028ZM12.2068 1.12489C13.2283 1.12119 13.9313 1.7887 14.4725 2.52528C15.0076 3.25372 15.8813 4.89257 16.5662 6.17567C16.9822 6.95488 17.3424 7.62948 17.5437 8.17469C17.7414 8.70988 17.922 9.46745 17.4539 10.1473C16.9628 10.8605 16.1688 10.908 15.6072 10.8622C15.0501 10.8167 14.1774 10.6088 13.367 10.4159C12.8456 10.2918 12.5231 9.76684 12.6463 9.24305C12.7698 8.71912 13.2927 8.39447 13.8143 8.51844C14.7105 8.73163 15.3566 8.8825 15.7469 8.91688C15.599 8.5167 15.2865 7.90491 14.8328 7.05458C14.1003 5.68237 13.3515 4.2844 12.91 3.68348C12.4644 3.07715 12.2693 3.07488 12.2137 3.07508C12.1573 3.0753 11.9623 3.08063 11.5213 3.68934C11.0834 4.29371 10.589 5.22862 9.86507 6.60633L8.90218 8.43836C8.65186 8.91433 8.06459 9.0969 7.59066 8.84559C7.11662 8.59421 6.93515 8.00343 7.18539 7.52723L8.18539 5.62391C8.86215 4.33594 9.42153 3.27403 9.95199 2.54188C10.4883 1.80161 11.1857 1.12865 12.2068 1.12489Z" fill="currentColor" />
    <path fill-rule="evenodd" clip-rule="evenodd" d="M21.635 11.1348C21.8758 11.1597 22.1507 11.2409 22.3868 11.4738C22.624 11.7077 22.7082 11.9831 22.7362 12.2231C22.7583 12.4137 22.7477 12.6689 22.7398 12.8585C22.6625 14.7462 22.2384 17.1212 21.0392 18.7369C20.4238 19.5659 19.5864 20.2172 18.4826 20.4637C17.6246 20.6554 16.6643 20.5893 15.5999 20.2452C16.3843 18.5385 17.5604 17.3682 18.5549 16.705C19.0144 16.3986 19.1385 15.7777 18.8321 15.3182C18.5257 14.8587 17.9048 14.7346 17.4453 15.041C16.2938 15.8089 14.9957 17.0762 14.0518 18.8636C14.1289 19.077 14.2165 19.2942 14.3148 19.5152C14.3902 19.6848 14.5257 19.8204 14.6953 19.8959C15.0048 20.0335 15.3063 20.1503 15.5999 20.2452C15.3431 20.804 15.1283 21.4194 14.9755 22.0942C14.8536 22.6329 14.3181 22.9707 13.7795 22.8488C13.2408 22.7269 12.903 22.1913 13.0249 21.6527C13.2604 20.6122 13.619 19.6833 14.0518 18.8636C13.6307 17.6982 13.5223 16.6477 13.697 15.7106C13.9054 14.593 14.5012 13.7166 15.2876 13.0538C16.8233 11.7596 19.1211 11.243 21.0033 11.1396C21.1907 11.1292 21.4447 11.1151 21.635 11.1348Z" fill="currentColor" />
</svg>