<svg xmlns="http://www.w3.org/2000/svg" width="24" height="24" viewBox="0 0 24 24" fill="none">
    <path d="M12.0039 10C13.1085 10 14.0039 10.8954 14.0039 12C14.0039 13.1046 13.1085 14 12.0039 14C10.8993 14 10.0039 13.1046 10.0039 12C10.0039 10.8954 10.8993 10 12.0039 10Z" fill="currentColor" />
    <path opacity="0.4" d="M2.00391 12C2.00391 11.6252 2.02413 11.2544 2.06445 10.8896C2.12534 10.3409 2.62015 9.94519 3.16895 10.0059C3.71778 10.0666 4.11341 10.5615 4.05273 11.1104C4.0205 11.4021 4.00391 11.6989 4.00391 12C4.00391 16.4183 7.58563 20 12.0039 20C14.5166 20 16.7583 18.8428 18.2266 17.0283C18.5739 16.599 19.2035 16.5326 19.6328 16.8799C20.0621 17.2273 20.1285 17.8568 19.7812 18.2861C17.9496 20.5497 15.1457 22 12.0039 22C6.48106 22 2.00391 17.5228 2.00391 12ZM20.0039 12C20.0039 7.58172 16.4222 4 12.0039 4C9.4912 4 7.2495 5.15723 5.78125 6.97168C5.43387 7.40097 4.80433 7.46742 4.375 7.12012C3.94572 6.77274 3.87928 6.14319 4.22656 5.71387C6.05822 3.45032 8.86208 2 12.0039 2C17.5268 2 22.0039 6.47715 22.0039 12C22.0039 12.3748 21.9837 12.7456 21.9434 13.1104C21.8825 13.6591 21.3877 14.0548 20.8389 13.9941C20.29 13.9334 19.8944 13.4385 19.9551 12.8896C19.9873 12.5979 20.0039 12.3011 20.0039 12Z" fill="currentColor" />
    <path d="M3.00392 4V3C3.00392 2.44772 3.45163 2 4.00392 2C4.5562 2 5.00392 2.44772 5.00392 3V4C5.00392 4.73538 5.00594 5.18635 5.04982 5.5127C5.08983 5.81026 5.1475 5.85061 5.1504 5.85352C5.1533 5.85642 5.19366 5.91409 5.49122 5.9541C5.81757 5.99798 6.26854 6 7.00392 6H8.00392C8.5562 6 9.00392 6.44772 9.00392 7C9.00392 7.55228 8.5562 8 8.00392 8H7.00392C6.32508 8 5.71521 8.00248 5.22462 7.93652C4.70529 7.86669 4.17275 7.70399 3.73634 7.26758C3.29993 6.83116 3.13723 6.29863 3.06739 5.7793C3.00144 5.2887 3.00392 4.67884 3.00392 4Z" fill="currentColor" />
    <path d="M19.0039 21V20C19.0039 19.2646 19.0019 18.8137 18.958 18.4873C18.918 18.1898 18.8603 18.1494 18.8574 18.1465C18.8545 18.1436 18.8142 18.0859 18.5166 18.0459C18.1903 18.002 17.7393 18 17.0039 18H16.0039C15.4516 18 15.0039 17.5523 15.0039 17C15.0039 16.4477 15.4516 16 16.0039 16H17.0039C17.6827 16 18.2926 15.9975 18.7832 16.0635C19.3025 16.1333 19.8351 16.296 20.2715 16.7324C20.7079 17.1688 20.8706 17.7014 20.9404 18.2207C21.0064 18.7113 21.0039 19.3212 21.0039 20V21C21.0039 21.5523 20.5562 22 20.0039 22C19.4516 22 19.0039 21.5523 19.0039 21Z" fill="currentColor" />
</svg>