<svg xmlns="http://www.w3.org/2000/svg" width="24" height="24" viewBox="0 0 24 24" fill="none">
    <path d="M14.5387 16.1224C15.6734 16.942 16.635 17.6365 17.3693 18.0671C18.1022 18.4969 18.8004 18.7906 19.52 18.7451C20.4675 18.6852 21.3495 18.2399 21.9573 17.512C22.4197 16.9582 22.5916 16.2216 22.6727 15.3796C22.7539 14.536 22.7539 13.435 22.7539 12.0421V12.0421V11.9574V11.9574C22.7539 10.5645 22.7539 9.46352 22.6727 8.61995C22.5916 7.77794 22.4197 7.0413 21.9573 6.48748C21.3495 5.75965 20.4675 5.31426 19.52 5.25439C18.8004 5.20892 18.1022 5.50261 17.3693 5.93242C16.635 6.36304 15.6734 7.05755 14.5386 7.87712C14.3138 8.03948 14.1011 8.19313 13.9006 8.3394C13.9066 8.39319 13.9121 8.44651 13.9171 8.49928C14.0041 9.4021 14.0041 10.5519 14.0041 11.8919V11.8919L14.0041 11.9573V12.0413L14.0041 12.1068V12.1068C14.0041 13.4468 14.0041 14.5965 13.9171 15.4993C13.912 15.5523 13.9065 15.606 13.9005 15.66C14.101 15.8063 14.3138 15.96 14.5386 16.1224L14.5386 16.1224L14.5387 16.1224Z" fill="currentColor" />
    <path opacity="0.4" d="M4.53864 7.87712C3.71191 8.4742 3.04834 8.95344 2.55982 9.38117C2.06193 9.81711 1.6677 10.2642 1.46263 10.8239C1.18433 11.5834 1.18433 12.4161 1.46263 13.1756C1.6677 13.7353 2.06193 14.1824 2.55982 14.6183C3.04834 15.0461 3.71191 15.5253 4.53864 16.1224L4.53866 16.1224C5.67341 16.942 6.63501 17.6365 7.36932 18.0671C8.10224 18.4969 8.80043 18.7906 9.52001 18.7451C10.4675 18.6852 11.3495 18.2399 11.9573 17.512C12.4197 16.9582 12.5916 16.2216 12.6727 15.3796C12.7539 14.536 12.7539 13.435 12.7539 12.0421V12.0421V11.9574V11.9574C12.7539 10.5645 12.7539 9.46352 12.6727 8.61995C12.5916 7.77794 12.4197 7.0413 11.9573 6.48748C11.3495 5.75965 10.4675 5.31426 9.52001 5.25439C8.80043 5.20892 8.10224 5.50261 7.36932 5.93242C6.635 6.36304 5.67341 7.05755 4.53865 7.87712L4.53864 7.87712Z" fill="currentColor" />
</svg>