<svg xmlns="http://www.w3.org/2000/svg" width="24" height="24" viewBox="0 0 24 24" fill="none">
    <path d="M12.1388 1.24976C13.0436 1.24973 13.7827 1.24971 14.3859 1.31421C15.0196 1.38202 15.5712 1.52642 16.0782 1.8562C16.5853 2.18607 16.941 2.63153 17.2599 3.18335L15.0001 5.99976H9.00012L6.74036 3.18335C7.05925 2.63151 7.4149 2.18606 7.922 1.8562C8.42907 1.52642 8.98068 1.38202 9.61438 1.31421C9.91606 1.28195 10.2517 1.26562 10.6251 1.25757L11.8615 1.24976H12.1388Z" fill="currentColor" />
    <path opacity="0.4" d="M17.2599 3.18335C17.5645 3.71059 17.8658 4.38888 18.2345 5.22046L18.2531 5.26343L18.2882 5.34253C18.593 6.02994 18.7501 6.77401 18.7501 7.52612C18.7501 8.68919 18.3734 9.82091 17.6769 10.7517L9.69641 21.4177L9.68372 21.4343L9.67786 21.4421C9.54761 21.6162 9.44847 21.7488 9.35364 21.8523C8.30607 22.9959 6.52516 23.0543 5.4054 21.9812C5.30408 21.8841 5.19702 21.7587 5.05579 21.5935L5.03528 21.5701L5.02747 21.5603L5.01379 21.5447C4.91922 21.4341 4.84543 21.3475 4.78333 21.2625C4.09256 20.3165 4.07117 19.0369 4.72961 18.0681C4.79053 17.9785 4.86343 17.8869 4.95813 17.7683L4.97083 17.7527L8.37219 13.49L6.32336 10.7517C5.62689 9.82091 5.25015 8.68919 5.25012 7.52612C5.25012 6.77401 5.40725 6.02994 5.71204 5.34253L5.74719 5.26343L5.76575 5.22046C6.13444 4.38891 6.4357 3.71058 6.74036 3.18335L9.00012 5.99976L12.0001 9.49976L15.0001 5.99976L17.2599 3.18335ZM16.6603 15.2498C16.8919 15.2467 17.1124 15.3509 17.257 15.532L19.0294 17.7527L19.0421 17.7683C19.1368 17.887 19.2097 17.9785 19.2706 18.0681C19.9291 19.0369 19.9077 20.3165 19.2169 21.2625C19.1518 21.3516 19.0741 21.4428 18.9728 21.5613L18.965 21.5701L18.9445 21.5935C18.8032 21.7587 18.6962 21.8841 18.5948 21.9812C17.4751 23.0543 15.6942 22.9959 14.6466 21.8523C14.5539 21.7511 14.4572 21.6223 14.3312 21.4539L14.3156 21.4324L14.3038 21.4177L13.3185 20.1013C13.1189 19.8343 13.1198 19.4673 13.3204 19.2009L16.0714 15.5486L16.1271 15.4832C16.2653 15.3378 16.4573 15.2526 16.6603 15.2498Z" fill="currentColor" />
</svg>