<svg xmlns="http://www.w3.org/2000/svg" width="24" height="24" viewBox="0 0 24 24" fill="none">
    <path d="M8.38476 20.2373C8.60067 20.2649 8.8041 20.2471 9.02246 20.1933C9.51829 20.0712 9.81611 19.7723 10.0889 19.498L19.4981 10.0889C19.7722 9.81609 20.071 9.5182 20.1934 9.02245C20.2472 8.80401 20.2649 8.60072 20.2373 8.38476C20.2147 8.20811 20.155 8.01655 20.1153 7.88964C19.8533 7.04974 19.3139 6.18305 18.5654 5.43456C17.817 4.68607 16.9503 4.14668 16.1104 3.88476C15.9834 3.84505 15.7918 3.78529 15.6153 3.76269C15.3992 3.73511 15.196 3.75281 14.9776 3.80663C14.4818 3.92894 14.1839 4.22779 13.9111 4.50195L4.50195 13.9111C4.22778 14.1839 3.92881 14.4817 3.80664 14.9775C3.75289 15.1959 3.73507 15.3994 3.76269 15.6152C3.78533 15.7917 3.84606 15.9825 3.88574 16.1094C4.14763 16.9492 4.68706 17.8159 5.43554 18.5644C6.18403 19.3129 7.05072 19.8523 7.89062 20.1142C8.01743 20.1538 8.20829 20.2147 8.38476 20.2373Z" fill="currentColor" />
    <path opacity="0.4" d="M20.5369 5.89573C20.626 6.03376 20.8079 6.08207 20.948 5.99631C20.9698 5.98309 20.9913 5.9695 21.0125 5.95627C21.4383 5.69139 21.8395 5.39973 22.0799 5.1594C22.9737 4.26518 22.9737 2.81529 22.0799 1.92112C21.1856 1.02693 19.7349 1.02705 18.8406 1.92112C18.6004 2.16147 18.3086 2.56192 18.0437 2.98752C18.0306 3.00879 18.017 3.03035 18.0037 3.05198C17.9179 3.19216 17.9671 3.3741 18.1053 3.46311C18.5808 3.76949 19.0332 4.13712 19.448 4.55198C19.863 4.96696 20.2305 5.42005 20.5369 5.89573ZM1.92071 22.0793C2.815 22.9735 4.26472 22.9736 5.15899 22.0793C5.39929 21.8389 5.69105 21.4386 5.95586 21.0129C5.96907 20.9917 5.98269 20.9701 5.9959 20.9484C6.08152 20.8084 6.03241 20.6263 5.89434 20.5373C5.41884 20.2309 4.96641 19.8633 4.55157 19.4484C4.13659 19.0335 3.76913 18.5804 3.4627 18.1047C3.37366 17.9668 3.19161 17.9186 3.05157 18.0041C3.02996 18.0174 3.00835 18.031 2.98711 18.0441C2.56141 18.309 2.16109 18.6008 1.92071 18.841C1.02643 19.7353 1.02644 21.185 1.92071 22.0793Z" fill="currentColor" />
</svg>