<svg xmlns="http://www.w3.org/2000/svg" width="24" height="24" viewBox="0 0 24 24" fill="none">
    <path opacity="0.4" d="M18 6.99982C18.5522 6.99988 18.9999 7.44766 19 7.99982C19 8.55206 18.5523 8.99975 18 8.99982L12.2842 9.01349L10.9922 14.3826C10.8553 14.9519 10.7282 15.4813 10.5762 15.866C10.4409 16.2084 10.1005 16.9251 9.26467 16.9949C8.44662 17.0632 7.98273 16.4365 7.78225 16.1268C7.55571 15.7767 7.32351 15.2803 7.07131 14.742L6.67385 13.8934L6.55862 13.9725C6.10074 14.2808 5.47957 14.1596 5.17092 13.702C4.86231 13.244 4.98341 12.6219 5.44143 12.3133C5.45421 12.3044 5.82895 12.0459 6.04397 11.9402C6.30783 11.8107 6.7736 11.6373 7.30764 11.7899C7.74664 11.9153 8.00922 12.2102 8.16897 12.452C8.30031 12.6508 8.41765 12.9022 8.51955 13.1199L8.99514 14.1336L10.3399 8.54572C10.4336 8.15607 10.6059 7.62409 11.1084 7.29279C11.5523 7.00021 12.0755 6.99977 12.376 6.99982H18ZM17.7266 10.4285C18.2788 10.4286 18.7266 10.8763 18.7266 11.4285C18.7266 11.9807 18.2788 12.4284 17.7266 12.4285C17.6699 12.4596 17.5232 12.5459 17.4102 12.6619C17.2567 12.8195 17.1034 13.0195 16.9326 13.2615L17.1787 13.8543L17.5 13.8572C18.0523 13.8573 18.5 14.305 18.5 14.8572C18.5 15.4094 18.0522 15.8572 17.5 15.8572C17.2037 15.8588 16.7209 15.8614 16.3614 15.7117C16.1611 15.6283 15.9749 15.5098 15.8135 15.3602C15.7191 15.2727 15.6386 15.1748 15.5703 15.074C15.1849 15.4552 14.6222 15.8572 13.876 15.8572C13.3239 15.857 12.876 15.4094 12.876 14.8572C12.876 14.3051 13.3239 13.8574 13.876 13.8572C13.9327 13.8262 14.0794 13.7398 14.1924 13.6238C14.3458 13.4663 14.4992 13.2663 14.6699 13.0242L14.4239 12.4315C14.4193 12.4314 14.2017 12.4285 14.1026 12.4285C13.5504 12.4284 13.1026 11.9807 13.1026 11.4285C13.1026 10.8764 13.5504 10.4287 14.1026 10.4285C14.3989 10.427 14.8817 10.4244 15.2412 10.574C15.4414 10.6574 15.6277 10.776 15.7891 10.9256C15.8834 11.0131 15.964 11.111 16.0322 11.2117C16.4177 10.8306 16.9803 10.4285 17.7266 10.4285Z" fill="currentColor" />
    <path d="M5.83008 2.01443C6.37438 1.92084 6.89177 2.28653 6.98535 2.83083C7.07872 3.37485 6.71383 3.89132 6.16992 3.98513C5.19105 4.15343 4.59073 4.43016 4.14355 4.84353C3.64138 5.30777 3.33759 5.93927 3.17285 7.07204C3.0027 8.24211 3 9.79043 3 11.9998C3 14.209 3.00274 15.7575 3.17285 16.9276C3.33758 18.0603 3.64143 18.6918 4.14355 19.1561C4.59074 19.5695 5.19099 19.8462 6.16992 20.0145C6.71396 20.1083 7.07891 20.6256 6.98535 21.1697C6.89161 21.7139 6.37426 22.0787 5.83008 21.9852C4.62136 21.7773 3.61085 21.3881 2.78516 20.6248C1.82314 19.7353 1.39471 18.6001 1.19336 17.2156C0.999884 15.8851 0.999971 14.191 1 12.0799V11.9207C0.999971 9.80921 0.999837 8.11464 1.19336 6.78396C1.39472 5.39943 1.82305 4.26433 2.78516 3.37478C3.61086 2.61144 4.62134 2.22231 5.83008 2.01443ZM17.0146 2.83083C17.1082 2.28653 17.6256 1.92084 18.1699 2.01443C19.3787 2.2223 20.3891 2.61143 21.2148 3.37478C22.177 4.26433 22.6053 5.39942 22.8066 6.78396C23.0002 8.11464 23 9.80921 23 11.9207V12.0799C23 14.191 23.0001 15.8851 22.8066 17.2156C22.6053 18.6001 22.1769 19.7353 21.2148 20.6248C20.3891 21.3881 19.3787 21.7773 18.1699 21.9852C17.6257 22.0787 17.1084 21.7139 17.0146 21.1697C16.9211 20.6254 17.2868 20.108 17.8311 20.0145C18.8097 19.8461 19.4093 19.5694 19.8564 19.1561C20.3586 18.6918 20.6624 18.0603 20.8271 16.9276C20.9973 15.7575 21 14.209 21 11.9998C21 9.79043 20.9973 8.24211 20.8271 7.07204C20.6624 5.93927 20.3586 5.30777 19.8564 4.84353C19.4093 4.43023 18.8097 4.15343 17.8311 3.98513C17.2869 3.89156 16.9213 3.37502 17.0146 2.83083Z" fill="currentColor" />
</svg>