<svg xmlns="http://www.w3.org/2000/svg" width="24" height="24" viewBox="0 0 24 24" fill="none">
    <path opacity="0.4" d="M17 7C17.5522 7.00012 18 7.44779 18 8C18 8.55221 17.5522 8.99988 17 9L12.2842 9.01367L10.9922 14.3828C10.8553 14.9521 10.7282 15.4815 10.5762 15.8662C10.4409 16.2086 10.1004 16.9252 9.26473 16.9951C8.44663 17.0635 7.98279 16.4367 7.78231 16.127C7.55577 15.7769 7.32358 15.2805 7.07137 14.7422L6.67294 13.8936L6.55868 13.9727C6.10068 14.2811 5.47955 14.1591 5.17098 13.7012C4.86248 13.2432 4.98352 12.6221 5.44149 12.3135C5.55642 12.2337 5.82551 12.0468 6.04403 11.9395C6.30794 11.8099 6.77367 11.6374 7.3077 11.79C7.7467 11.9155 8.00831 12.2104 8.16805 12.4521C8.29949 12.6511 8.41766 12.9022 8.51962 13.1201L8.9952 14.1338L10.3399 8.5459C10.4337 8.15625 10.6059 7.62427 11.1084 7.29297C11.5523 7.00039 12.0756 6.99995 12.376 7H17ZM17.7266 10.4287C18.2787 10.4289 18.7266 10.8765 18.7266 11.4287C18.7265 11.9808 18.2787 12.4285 17.7266 12.4287C17.6699 12.4598 17.5232 12.5461 17.4102 12.6621C17.2568 12.8197 17.1034 13.0196 16.9327 13.2617L17.1788 13.8545C17.1812 13.8545 17.4004 13.8574 17.5 13.8574C18.0522 13.8575 18.5 14.3052 18.5 14.8574C18.4999 15.4095 18.0521 15.8573 17.5 15.8574C17.2036 15.859 16.7209 15.8607 16.3614 15.7109C16.1612 15.6276 15.9749 15.5099 15.8135 15.3604C15.7192 15.2728 15.6386 15.1749 15.5704 15.0742C15.1849 15.4554 14.6222 15.8574 13.876 15.8574C13.324 15.8573 12.8762 15.4095 12.876 14.8574C12.876 14.3052 13.3239 13.8576 13.876 13.8574C13.9327 13.8264 14.0795 13.74 14.1924 13.624C14.3459 13.4664 14.4991 13.2657 14.67 13.0234L14.4239 12.4316C14.4239 12.4316 14.2027 12.4287 14.1026 12.4287C13.5504 12.4286 13.1027 11.9809 13.1026 11.4287C13.1026 10.8765 13.5504 10.4288 14.1026 10.4287C14.3989 10.4271 14.8817 10.4245 15.2413 10.5742C15.4415 10.6576 15.6277 10.7761 15.7891 10.9258C15.8835 11.0133 15.964 11.1112 16.0323 11.2119C16.4177 10.8307 16.9803 10.4287 17.7266 10.4287Z" fill="currentColor" />
    <path d="M6.00005 2C6.55233 2 7.00005 2.44772 7.00005 3C7.00005 3.55228 6.55233 4 6.00005 4C5.4488 4 4.76867 4.56546 4.7686 5.57129C4.7686 5.68207 4.76934 5.79218 4.76958 5.90137C4.77418 7.98583 4.778 9.79138 3.08208 11.7461C2.97267 11.8722 2.97267 12.1278 3.08208 12.2539C3.96657 13.2734 4.40697 14.252 4.60845 15.3047C4.77606 16.1805 4.77268 17.1053 4.76958 18.0459C4.76916 18.1731 4.7686 18.3011 4.7686 18.4287C4.76867 19.4345 5.44879 20 6.00005 20C6.55233 20 7.00005 20.4477 7.00005 21C7.00005 21.5523 6.55233 22 6.00005 22C4.08705 22 2.76867 20.2631 2.7686 18.4287C2.7686 18.2964 2.76933 18.1685 2.76958 18.0449C2.77154 17.0706 2.77249 16.3542 2.6436 15.6807C2.50948 14.9799 2.22886 14.3223 1.57134 13.5645C0.809556 12.6864 0.809554 11.3136 1.57134 10.4355C2.77027 9.05369 2.76947 7.94291 2.7686 5.75293C2.76858 5.69324 2.7686 5.63261 2.7686 5.57129C2.76867 3.73693 4.08705 2 6.00005 2ZM18 2C19.913 2 21.2314 3.73693 21.2314 5.57129C21.2314 5.70356 21.2307 5.83154 21.2305 5.95508C21.2285 6.92941 21.2276 7.64582 21.3564 8.31934C21.4906 9.0201 21.7712 9.67771 22.4287 10.4355C23.1905 11.3136 23.1905 12.6864 22.4287 13.5645C21.7712 14.3223 21.4906 14.9799 21.3564 15.6807C21.2276 16.3542 21.2285 17.0706 21.2305 18.0449C21.2307 18.1685 21.2314 18.2964 21.2314 18.4287C21.2314 20.2631 19.913 22 18 22C17.4477 22 17 21.5523 17 21C17 20.4477 17.4477 20 18 20C18.5513 20 19.2314 19.4345 19.2314 18.4287C19.2314 18.3011 19.2309 18.1731 19.2305 18.0459C19.2274 17.1053 19.224 16.1805 19.3916 15.3047C19.5931 14.252 20.0335 13.2734 20.918 12.2539C21.0274 12.1278 21.0274 11.8722 20.918 11.7461C20.0335 10.7266 19.5931 9.74799 19.3916 8.69531C19.224 7.81945 19.2274 6.89468 19.2305 5.9541C19.2309 5.82695 19.2314 5.69894 19.2314 5.57129C19.2314 4.56546 18.5513 4 18 4C17.4477 4 17 3.55228 17 3C17 2.44772 17.4477 2 18 2Z" fill="currentColor" />
</svg>