<svg xmlns="http://www.w3.org/2000/svg" width="24" height="24" viewBox="0 0 24 24" fill="none">
    <path d="M6.16504 1.50616C6.71397 1.4454 7.20779 1.84102 7.26855 2.38995C7.32918 2.93879 6.93362 3.43271 6.38477 3.49346C5.1068 3.63496 4.46154 3.93133 4 4.45049C3.56877 4.9358 3.29506 5.62016 3.14941 6.83917C3.00165 8.07602 3 9.70638 3 11.9993C3 14.2924 3.00164 15.9235 3.14941 17.1604C3.29506 18.3793 3.56879 19.0629 4 19.5481C4.46156 20.0676 5.10644 20.3646 6.38477 20.5061C6.9337 20.5669 7.32932 21.0607 7.26855 21.6097C7.20779 22.1586 6.71396 22.5542 6.16504 22.4935C4.6647 22.3274 3.43943 21.9288 2.50488 20.8772C1.68411 19.9535 1.33148 18.7987 1.16406 17.3977C1.00046 16.0283 0.999983 14.2777 1 12.0667V11.9329C0.999983 9.72192 1.00046 7.97133 1.16406 6.60186C1.33146 5.20084 1.68406 4.04611 2.50488 3.12237C3.43944 2.07076 4.66464 1.67224 6.16504 1.50616ZM17.835 1.50616C19.3354 1.67225 20.5606 2.07076 21.4951 3.12237C22.3159 4.04611 22.6685 5.20084 22.8359 6.60186C22.9995 7.97132 23 9.72194 23 11.9329V12.0667C23 14.2777 22.9995 16.0283 22.8359 17.3977C22.6685 18.7987 22.3159 19.9535 21.4951 20.8772C20.5606 21.9288 19.3353 22.3274 17.835 22.4935C17.286 22.5542 16.7922 22.1586 16.7314 21.6097C16.6707 21.0607 17.0663 20.5669 17.6152 20.5061C18.8936 20.3646 19.5384 20.0676 20 19.5481C20.4312 19.0629 20.7049 18.3793 20.8506 17.1604C20.9984 15.9235 21 14.2924 21 11.9993C21 9.70638 20.9983 8.07602 20.8506 6.83917C20.7049 5.62016 20.4312 4.9358 20 4.45049C19.5385 3.93133 18.8932 3.63496 17.6152 3.49346C17.0664 3.43271 16.6708 2.93879 16.7314 2.38995C16.7922 1.84102 17.286 1.4454 17.835 1.50616Z" fill="currentColor" />
    <path opacity="0.4" d="M18 6.99951C18.5522 6.99954 18.9999 7.44736 19 7.99951C19 8.55178 18.5523 8.99948 18 8.99951L12.2881 9.00049L10.9922 14.3823C10.8553 14.9516 10.7282 15.481 10.5762 15.8657C10.4409 16.2081 10.1005 16.9247 9.26467 16.9946C8.44674 17.0629 7.98275 16.4372 7.78225 16.1274C7.5556 15.7773 7.32365 15.2803 7.07131 14.7417L6.67385 13.8931C6.67385 13.8931 6.59086 13.9504 6.55862 13.9722C6.10072 14.2805 5.47955 14.1594 5.17092 13.7017C4.86231 13.2436 4.98341 12.6216 5.44143 12.313C5.55631 12.2333 5.82551 12.0473 6.04397 11.9399C6.30782 11.8104 6.77363 11.637 7.30764 11.7896C7.74664 11.915 8.00922 12.2099 8.16897 12.4517C8.30031 12.6505 8.41765 12.9019 8.51955 13.1196L8.99514 14.1333L10.3399 8.54541C10.4336 8.15576 10.6059 7.62378 11.1084 7.29248C11.5523 6.9999 12.0755 6.99946 12.376 6.99951H18ZM17.7266 10.4282C18.2788 10.4283 18.7265 10.876 18.7266 11.4282C18.7266 11.9805 18.2788 12.4281 17.7266 12.4282C17.6699 12.4593 17.5232 12.5456 17.4102 12.6616C17.2567 12.8192 17.1034 13.0192 16.9326 13.2612L17.1787 13.854C17.1787 13.854 17.3999 13.8569 17.5 13.8569C18.0523 13.857 18.5 14.3047 18.5 14.8569C18.5 15.4092 18.0523 15.8569 17.5 15.8569C17.2036 15.8585 16.7209 15.8611 16.3614 15.7114C16.1611 15.628 15.9749 15.5095 15.8135 15.3599C15.7192 15.2724 15.6396 15.1744 15.5713 15.0737C15.1859 15.4549 14.6223 15.8569 13.876 15.8569C13.3239 15.8567 12.876 15.4091 12.876 14.8569C12.876 14.3048 13.3239 13.8572 13.876 13.8569C13.9327 13.8259 14.0794 13.7395 14.1924 13.6235C14.3458 13.466 14.4992 13.266 14.6699 13.0239L14.4239 12.4312C14.4177 12.4311 14.2013 12.4282 14.1026 12.4282C13.5504 12.428 13.1026 11.9804 13.1026 11.4282C13.1026 10.8761 13.5505 10.4284 14.1026 10.4282C14.3989 10.4267 14.8817 10.4241 15.2412 10.5737C15.4416 10.6572 15.6286 10.7755 15.7901 10.9253C15.8844 11.0128 15.964 11.1107 16.0322 11.2114C16.4177 10.8303 16.9803 10.4282 17.7266 10.4282Z" fill="currentColor" />
</svg>