<svg xmlns="http://www.w3.org/2000/svg" width="24" height="24" viewBox="0 0 24 24" fill="none">
    <path d="M11.0026 6.74902C11.0026 6.19674 11.4503 5.74902 12.0026 5.74902C12.5549 5.74902 13.0026 6.19674 13.0026 6.74902V7.75195H14.0026C14.5549 7.75195 15.0026 8.19967 15.0026 8.75195C15.0025 9.30418 14.5548 9.75195 14.0026 9.75195H13.0026V12.418C13.4118 12.5626 13.7974 12.7953 14.1247 13.123C15.2956 14.2956 15.2955 16.1966 14.1247 17.3691C12.953 18.5425 11.0522 18.5425 9.88053 17.3691C8.70969 16.1966 8.70964 14.2956 9.88053 13.123C10.2078 12.7953 10.5934 12.5626 11.0026 12.418V6.74902ZM12.7096 14.5371C12.3192 14.1462 11.686 14.1462 11.2956 14.5371C10.9049 14.9289 10.9046 15.5645 11.2956 15.9561C11.686 16.347 12.3192 16.347 12.7096 15.9561C13.1006 15.5645 13.1003 14.9289 12.7096 14.5371Z" fill="currentColor" />
    <path opacity="0.4" d="M12.0114 2.99902C16.9787 2.99902 21.0063 7.02798 21.0063 11.999C21.0063 15.5602 18.9393 18.64 15.9362 20.0996C15.4394 20.3411 15.2325 20.9395 15.4739 21.4362C15.7153 21.9329 16.3137 22.1398 16.8105 21.8984C20.4762 20.1166 23.0063 16.3543 23.0063 11.999C23.0063 5.92437 18.0842 0.999023 12.0114 0.999023C9.83323 0.999023 7.80257 1.63328 6.09458 2.72625L4.87932 1.51099C4.66596 1.27873 4.38135 0.999023 4.00629 0.999023C3.454 0.999023 3.00629 1.44674 3.00629 1.99902V5.13122C3.00629 6.3517 4.52341 6.91074 5.31512 5.98987C6.96335 4.15242 9.35216 2.99902 12.0114 2.99902Z" fill="currentColor" />
    <path opacity="0.4" fill-rule="evenodd" clip-rule="evenodd" d="M2.54209 7.70503C2.01068 7.55465 1.45797 7.86354 1.30759 8.39496C1.18444 8.83013 1.0879 9.26959 1.01706 9.71107C0.929564 10.2564 1.30069 10.7694 1.846 10.8569C2.39131 10.9444 2.9043 10.5732 2.9918 10.0279C3.0505 9.66213 3.13037 9.29874 3.23202 8.93954C3.3824 8.40812 3.07351 7.85542 2.54209 7.70503ZM1.86592 12.5537C1.32197 12.6493 0.958505 13.1677 1.0541 13.7117C1.13054 14.1466 1.23007 14.5772 1.35181 15.001C1.50427 15.5319 2.05819 15.8386 2.58901 15.6861C3.11983 15.5337 3.42656 14.9798 3.2741 14.4489C3.17169 14.0924 3.08807 13.7306 3.02391 13.3655C2.92832 12.8216 2.40987 12.4581 1.86592 12.5537ZM3.27823 17.1677C2.82034 17.4765 2.69947 18.0981 3.00826 18.556C3.26754 18.9404 3.54884 19.3109 3.8513 19.6648C4.2101 20.0847 4.84132 20.1342 5.26119 19.7754C5.68105 19.4166 5.73055 18.7854 5.37176 18.3655C5.11922 18.07 4.88381 17.76 4.66643 17.4377C4.35764 16.9798 3.73612 16.859 3.27823 17.1677ZM6.56511 20.8645C6.29076 21.3438 6.45693 21.9548 6.93625 22.2291C7.32391 22.451 7.72749 22.6518 8.14615 22.8295C8.65457 23.0452 9.24159 22.8079 9.45729 22.2994C9.67299 21.791 9.43569 21.204 8.92727 20.9883C8.58221 20.8419 8.24951 20.6764 7.92975 20.4934C7.45043 20.219 6.83945 20.3852 6.56511 20.8645ZM14.1066 21.7757C14.0331 21.2284 13.5298 20.8442 12.9824 20.9178C12.5764 20.9723 12.1614 21.0006 11.7392 21.0006C11.1869 21.0006 10.7392 21.4483 10.7392 22.0006C10.7392 22.5529 11.1869 23.0006 11.7392 23.0006C12.2507 23.0006 12.7547 22.9664 13.2487 22.9C13.7961 22.8264 14.1802 22.3231 14.1066 21.7757Z" fill="currentColor" />
</svg>