<svg xmlns="http://www.w3.org/2000/svg" width="24" height="24" viewBox="0 0 24 24" fill="none">
    <path opacity="0.4" d="M21.0043 12.0986C21.0043 11.3007 20.3306 10.3097 18.6273 9.45801C16.9839 8.63631 14.6439 8.0987 12.0043 8.09863C11.6835 8.09863 11.3662 8.10659 11.0541 8.12207C10.5025 8.14944 10.0326 7.72446 10.0052 7.17285C9.97788 6.62134 10.403 6.15251 10.9545 6.125C11.2997 6.10787 11.6504 6.09863 12.0043 6.09863C14.887 6.0987 17.5462 6.68114 19.5218 7.66895C21.4378 8.62692 23.0043 10.1351 23.0043 12.0986C23.0043 13.7015 21.9479 15.006 20.5589 15.9307C20.0992 16.2367 19.4783 16.1121 19.1722 15.6523C18.8664 15.1926 18.9909 14.5726 19.4505 14.2666C20.5721 13.52 21.0043 12.7468 21.0043 12.0986Z" fill="currentColor" />
    <path d="M6.00377 11.6641C6.00377 8.88743 6.61878 6.32371 7.66393 4.41895C8.68897 2.55082 10.2682 1.09881 12.2518 1.09863C13.9071 1.09863 15.2879 2.11934 16.2801 3.52051C16.5993 3.97124 16.4926 4.59589 16.0419 4.91504C15.5912 5.23385 14.9674 5.12718 14.6483 4.67676C13.8651 3.57059 13.0164 3.09863 12.2518 3.09863C11.3371 3.09882 10.2921 3.78766 9.41783 5.38086C8.56342 6.93802 8.00377 9.15797 8.00377 11.6641C8.00365 12.2162 7.55598 12.6641 7.00377 12.6641C6.45155 12.6641 6.00388 12.2163 6.00377 11.6641Z" fill="currentColor" />
    <path d="M16.0036 12.2243C16.0036 11.8628 15.9935 11.5063 15.9734 11.156C15.9417 10.6047 16.3625 10.1322 16.9138 10.1003C17.4651 10.0686 17.9376 10.4895 17.9695 11.0407C17.9918 11.4294 18.0036 11.8245 18.0036 12.2243C18.0036 14.7246 17.5553 17.0496 16.782 18.8972C16.0241 20.7079 14.8803 22.2257 13.3757 22.8288C12.8632 23.0343 12.2815 22.7855 12.0759 22.2732C11.8704 21.7605 12.1189 21.1779 12.6316 20.9724C13.4092 20.6606 14.2657 19.7291 14.9372 18.1247C15.5933 16.5572 16.0036 14.5007 16.0036 12.2243Z" fill="currentColor" />
    <path opacity="0.4" d="M3.44908 8.2663C2.05996 9.19101 1.00377 10.4953 1.00377 12.0983C1.00377 14.0618 2.56942 15.57 4.48521 16.528C6.01436 17.2926 7.95323 17.8143 10.0882 18.0111C9.8607 18.1908 9.58903 18.3977 9.26451 18.6442L8.39928 19.3024C7.95953 19.6365 7.87386 20.2631 8.20787 20.7028C8.54194 21.1426 9.16849 21.2282 9.60826 20.8942L10.4745 20.237L10.5166 20.205C11.1855 19.6969 11.7722 19.2512 12.1815 18.8366C12.6147 18.3978 13.0038 17.8427 13.0038 17.0983C13.0038 16.354 12.6147 15.7989 12.1815 15.3601C11.7722 14.9455 11.1855 14.4998 10.5166 13.9917L10.4745 13.9597L9.60826 13.3024C9.16849 12.9684 8.54194 13.0541 8.20787 13.4938C7.87386 13.9336 7.95953 14.5602 8.39928 14.8942L9.26451 15.5524C9.46739 15.7066 9.64962 15.8452 9.81331 15.9714C8.07729 15.7662 6.55138 15.3248 5.37975 14.739C3.67665 13.8873 3.00377 12.8962 3.00377 12.0983C3.00377 11.4502 3.43588 10.677 4.55748 9.93036C5.01674 9.62433 5.14137 9.00418 4.8358 8.54462C4.52977 8.08488 3.90882 7.96027 3.44908 8.2663Z" fill="currentColor" />
</svg>