<svg xmlns="http://www.w3.org/2000/svg" width="24" height="24" viewBox="0 0 24 24" fill="none">
    <path opacity="0.4" d="M11.9988 2.99902C7.03153 2.99902 3.00391 7.02798 3.00391 11.999C3.00391 15.5602 5.07091 18.64 8.07404 20.0996C8.57076 20.3411 8.77771 20.9395 8.53628 21.4362C8.29484 21.9329 7.69646 22.1398 7.19974 21.8984C3.53394 20.1166 1.00391 16.3543 1.00391 11.999C1.00391 5.92437 5.92599 0.999023 11.9988 0.999023C14.177 0.999023 16.2076 1.63328 17.9156 2.72625L19.1309 1.51099C19.3442 1.27873 19.6288 0.999023 20.0039 0.999023C20.5562 0.999023 21.0039 1.44674 21.0039 1.99902V5.13122C21.0039 6.3517 19.4868 6.91074 18.6951 5.98987C17.0468 4.15242 14.658 2.99902 11.9988 2.99902Z" fill="currentColor" />
    <path fill-rule="evenodd" clip-rule="evenodd" d="M21.4681 7.70503C21.9995 7.55465 22.5522 7.86354 22.7026 8.39496C22.8258 8.83013 22.9223 9.26959 22.9931 9.71107C23.0806 10.2564 22.7095 10.7694 22.1642 10.8569C21.6189 10.9444 21.1059 10.5732 21.0184 10.0279C20.9597 9.66213 20.8798 9.29874 20.7782 8.93954C20.6278 8.40812 20.9367 7.85542 21.4681 7.70503ZM22.1443 12.5537C22.6882 12.6493 23.0517 13.1677 22.9561 13.7117C22.8797 14.1466 22.7801 14.5772 22.6584 15.001C22.5059 15.5319 21.952 15.8386 21.4212 15.6861C20.8904 15.5337 20.5836 14.9798 20.7361 14.4489C20.8385 14.0924 20.9221 13.7306 20.9863 13.3655C21.0819 12.8216 21.6003 12.4581 22.1443 12.5537ZM20.732 17.1677C21.1899 17.4765 21.3107 18.0981 21.0019 18.556C20.7427 18.9404 20.4614 19.3109 20.1589 19.6648C19.8001 20.0847 19.1689 20.1342 18.749 19.7754C18.3291 19.4166 18.2796 18.7854 18.6384 18.3655C18.891 18.07 19.1264 17.76 19.3438 17.4377C19.6526 16.9798 20.2741 16.859 20.732 17.1677ZM17.4451 20.8645C17.7194 21.3438 17.5533 21.9548 17.0739 22.2291C16.6863 22.451 16.2827 22.6518 15.864 22.8295C15.3556 23.0452 14.7686 22.8079 14.5529 22.2994C14.3372 21.791 14.5745 21.204 15.0829 20.9883C15.428 20.8419 15.7607 20.6764 16.0804 20.4934C16.5598 20.219 17.1707 20.3852 17.4451 20.8645ZM9.90355 21.7757C9.9771 21.2284 10.4804 20.8442 11.0278 20.9178C11.4338 20.9723 11.8488 21.0006 12.271 21.0006C12.8233 21.0006 13.271 21.4483 13.271 22.0006C13.271 22.5529 12.8233 23.0006 12.271 23.0006C11.7595 23.0006 11.2555 22.9664 10.7615 22.9C10.2141 22.8264 9.83001 22.3231 9.90355 21.7757Z" fill="currentColor" />
</svg>