<svg xmlns="http://www.w3.org/2000/svg" width="24" height="24" viewBox="0 0 24 24" fill="none">
    <path opacity="0.4" d="M22.005 5C22.005 7.20914 20.2141 9 18.005 9C15.7958 9 14.005 7.20914 14.005 5C14.005 2.79086 15.7958 1 18.005 1C20.2141 1 22.005 2.79086 22.005 5Z" fill="currentColor" />
    <path d="M10.005 19C10.005 21.2091 8.21412 23 6.00498 23C3.79584 23 2.00498 21.2091 2.00498 19C2.00498 16.7909 3.79584 15 6.00498 15C8.21412 15 10.005 16.7909 10.005 19Z" fill="currentColor" />
    <path opacity="0.4" d="M12.005 4C12.5573 4 13.005 4.44772 13.005 5C13.005 5.55228 12.5573 6 12.005 6H9.00498C8.4527 6 8.00498 5.55228 8.00498 5C8.00498 4.44772 8.4527 4 9.00498 4H12.005Z" fill="currentColor" />
    <path d="M4.00498 8.4705C4.00498 7.23934 4.49473 6.11912 5.28819 5.30253C5.6731 4.90683 6.30629 4.89825 6.70225 5.283C7.09795 5.66791 7.10652 6.3011 6.72178 6.69706C6.27828 7.15369 6.00498 7.77836 6.00498 8.4705C6.0052 9.87541 7.13236 10.9998 8.50498 10.9998H12.005C12.5573 10.9998 13.005 11.4475 13.005 11.9998C13.005 12.5521 12.5573 12.9998 12.005 12.9998H8.50498C6.01189 12.9998 4.00521 10.964 4.00498 8.4705Z" fill="currentColor" />
    <path opacity="0.4" d="M16.147 11.0102C18.1381 11.295 19.711 12.8678 19.9956 14.8588C20.0738 15.4055 19.6937 15.9125 19.147 15.9907C18.6003 16.0688 18.0934 15.6887 18.0152 15.142C17.8563 14.0308 16.9752 13.1496 15.8638 12.9907C15.3171 12.9125 14.937 12.4055 15.0152 11.8588C15.0934 11.3121 15.6003 10.932 16.147 11.0102Z" fill="currentColor" />
    <path d="M17.3077 17.283C17.7037 16.8983 18.3369 16.9068 18.7218 17.3025C19.1065 17.6985 19.098 18.3317 18.7022 18.7166C17.8858 19.51 16.7662 19.9997 15.5353 19.9998H12.005C11.4527 19.9998 11.005 19.5521 11.005 18.9998C11.005 18.4475 11.4527 17.9998 12.005 17.9998H15.5353C16.2271 17.9997 16.8511 17.7264 17.3077 17.283Z" fill="currentColor" />
    <path d="M1.29795 1.29289C1.68848 0.902369 2.32149 0.902369 2.71201 1.29289L22.712 21.2929C23.1025 21.6834 23.1025 22.3164 22.712 22.707C22.3215 23.0975 21.6885 23.0975 21.298 22.707L1.29795 2.70696C0.907427 2.31643 0.907427 1.68342 1.29795 1.29289Z" fill="currentColor" />
</svg>