<svg xmlns="http://www.w3.org/2000/svg" width="24" height="24" viewBox="0 0 24 24" fill="none">
    <path opacity="0.4" fill-rule="evenodd" clip-rule="evenodd" d="M20.2275 12.635H3.78503H3.00647C2.73806 12.635 2.50258 12.494 2.37006 12.282C2.29808 12.1669 2.25647 12.0308 2.25647 11.885V11.5002L2.25657 11.8119C2.25655 11.4791 2.25654 11.3849 2.26423 11.2914C2.26726 11.2546 2.27148 11.2178 2.27737 11.1666C2.28342 11.114 2.29121 11.0462 2.30127 10.9473C2.33066 10.6587 2.38112 10.3855 2.47355 10.1251H21.7308C21.7568 10.3887 21.7566 10.675 21.7564 11.0101L21.7564 11.1026L21.7565 11.885C21.7565 12.031 21.7148 12.1672 21.6427 12.2824C21.5101 12.4942 21.2747 12.635 21.0065 12.635H20.2275ZM21.2935 8.87508C21.2114 8.73529 21.1195 8.5894 21.0196 8.43067L20.9692 8.35067L19.4868 5.99227L19.4532 5.93875C19.037 5.27654 18.6887 4.72248 18.355 4.3116C18.001 3.87575 17.6028 3.52276 17.0601 3.35164C16.5138 3.17953 15.9899 3.24541 15.4595 3.40828C14.9579 3.56235 14.3685 3.83024 13.6699 4.14779L13.6382 4.16219L5.12061 8.03426L5.0706 8.05699C4.51949 8.30742 4.0505 8.52054 3.68213 8.74032C3.6093 8.78377 3.53853 8.82851 3.46996 8.87508H21.2935Z" fill="currentColor" />
    <path opacity="0.4" fill-rule="evenodd" clip-rule="evenodd" d="M2.27106 18.0389C2.27279 18.0786 2.27471 18.1144 2.27684 18.1456C2.29848 18.4627 2.34505 18.7625 2.46532 19.0529C2.74442 19.7266 3.27992 20.2621 3.9536 20.5412C4.24395 20.6614 4.54377 20.708 4.86083 20.7296C5.16192 20.7502 5.52805 20.7502 5.96572 20.7501H6.00633H18.0063H18.0469C18.4845 20.7502 18.8508 20.7502 19.1518 20.7296C19.4689 20.708 19.7687 20.6614 20.0591 20.5412C20.7327 20.262 21.2683 19.7265 21.5473 19.0529C21.6676 18.7625 21.7142 18.4627 21.7358 18.1456C21.7379 18.1152 21.7398 18.0802 21.7414 18.0417C21.2818 18.2148 20.7769 18.2898 20.2495 18.2501C20.1919 18.2458 20.137 18.2396 20.0854 18.2326C19.8906 18.206 19.7082 18.1609 19.5845 18.129C19.411 18.0844 19.1941 18.023 18.9516 17.9542C18.8845 17.9352 18.8427 17.9239 18.814 17.9161C18.7898 17.9095 18.774 17.9056 18.7698 17.9046C18.6219 17.8705 18.4683 17.8742 18.3218 17.9171C18.3092 17.9208 18.2806 17.929 18.1431 17.9767L17.6616 18.1456L17.5923 18.1691C17.4286 18.2258 17.2944 18.282 17.1342 18.3491C17.0595 18.3804 16.9789 18.4141 16.8872 18.4513C16.6464 18.549 16.2926 18.6857 15.9009 18.7287C15.6188 18.7596 15.3364 18.7651 15.0571 18.7472C14.6349 18.7201 14.2864 18.5828 14.0649 18.4923C14.0104 18.4701 13.961 18.4495 13.915 18.4304C13.7488 18.3613 13.6269 18.3106 13.4663 18.2628L13.3911 18.2414L13.0796 18.1486C12.6422 18.0187 12.389 17.9455 12.2134 17.9035C12.0608 17.8669 12.0182 17.8672 12.0058 17.8673C11.9935 17.8672 11.9479 17.8669 11.7954 17.9035C11.6198 17.9455 11.3682 18.0188 10.9311 18.1486L10.6167 18.2404L10.5434 18.2628C10.3799 18.3115 10.2448 18.3617 10.082 18.4223C10.0083 18.4498 9.92877 18.4794 9.83836 18.5119C9.59647 18.5988 9.23643 18.7217 8.84032 18.7472C8.56085 18.7652 8.27785 18.7596 7.99559 18.7287C7.57408 18.6824 7.2295 18.5285 7.01122 18.4279C6.95775 18.4032 6.90924 18.3805 6.86398 18.3593C6.69866 18.2818 6.57687 18.2247 6.41649 18.1691L6.34911 18.1456L5.86473 17.9777C5.71839 17.927 5.69891 17.9206 5.687 17.9171C5.54044 17.8742 5.38765 17.8703 5.23973 17.9044C5.23555 17.9054 5.22588 17.9076 5.20165 17.9142C5.17295 17.922 5.12465 17.9351 5.05711 17.9542C4.81461 18.023 4.59772 18.0844 4.4243 18.129C4.30064 18.1609 4.11896 18.206 3.9243 18.2326L3.75926 18.2501C3.22904 18.29 2.72603 18.2114 2.27106 18.0389Z" fill="currentColor" />
    <path fill-rule="evenodd" clip-rule="evenodd" d="M3.75492 16.9942C3.8736 16.978 3.99666 16.9487 4.11283 16.9188C4.26811 16.8789 4.46801 16.8222 4.71635 16.7518C4.86144 16.7107 4.91078 16.6972 4.95756 16.6864C5.31482 16.6037 5.68592 16.6143 6.03861 16.7176C6.08482 16.7312 6.13317 16.7473 6.27592 16.7967L6.75834 16.9647L6.82583 16.9881C7.38604 17.1824 7.72143 17.4412 8.13184 17.4862C8.34036 17.5091 8.55046 17.5133 8.75977 17.4999C9.17032 17.4735 9.62227 17.2328 10.1868 17.065L10.2613 17.0428L10.5747 16.9501C11.4322 16.6954 11.7197 16.6171 12.0044 16.6171C12.2892 16.6171 12.5767 16.6954 13.4341 16.9501L13.7476 17.0428L13.8221 17.065C14.3866 17.2328 14.7262 17.4735 15.1367 17.4999C15.346 17.5133 15.5561 17.5091 15.7647 17.4862C16.1751 17.4412 16.6228 17.1824 17.183 16.9881L17.2505 16.9647L17.7329 16.7967C17.8757 16.7473 17.924 16.7312 17.9703 16.7176C18.3229 16.6143 18.694 16.6037 19.0513 16.6864C19.0981 16.6972 19.1475 16.7107 19.2925 16.7518C19.5409 16.8222 19.7408 16.8789 19.896 16.9188C20.0122 16.9487 20.1353 16.978 20.2539 16.9942C20.2841 16.9983 20.3139 17.0016 20.3433 17.0038C20.8825 17.0443 21.3652 16.9032 21.7544 16.6346C22.6015 16.05 23.0054 14.8839 22.5845 13.8309C22.5312 13.6976 22.451 13.5586 22.3706 13.4266L22.3384 13.3741C21.9853 13.6906 21.5179 13.8846 21.0044 13.8846H3.00443C2.49107 13.8846 2.02349 13.6907 1.67033 13.3743L1.63822 13.4266C1.55781 13.5586 1.47768 13.6976 1.42436 13.8309C1.00343 14.8839 1.40743 16.0439 2.25446 16.6285C2.64365 16.8971 3.12636 17.0443 3.66557 17.0038C3.69495 17.0016 3.72479 16.9983 3.75492 16.9942Z" fill="currentColor" />
</svg>