<svg xmlns="http://www.w3.org/2000/svg" width="24" height="24" viewBox="0 0 24 24" fill="none">
    <path d="M16.756 10.7505C16.756 8.81749 15.189 7.25049 13.256 7.25049C12.7037 7.25049 12.256 6.80277 12.256 6.25049C12.256 5.6982 12.7037 5.25049 13.256 5.25049C16.2935 5.25049 18.756 7.71292 18.756 10.7505C18.756 11.3028 18.3083 11.7505 17.756 11.7505C17.2037 11.7505 16.756 11.3028 16.756 10.7505Z" fill="currentColor" />
    <path d="M20.256 10.7505C20.256 6.88449 17.122 3.75049 13.256 3.75049C12.7037 3.75049 12.256 3.30277 12.256 2.75049C12.256 2.1982 12.7037 1.75049 13.256 1.75049C18.2265 1.75049 22.256 5.77992 22.256 10.7505C22.256 11.3028 21.8083 11.7505 21.256 11.7505C20.7037 11.7505 20.256 11.3028 20.256 10.7505Z" fill="currentColor" />
    <path opacity="0.4" d="M13.9448 21.4965L13.8541 21.5349L13.7931 21.5607C12.7561 21.9995 11.6186 22.2442 10.4278 22.2501C5.61572 22.2742 1.73191 18.3904 1.75597 13.5782C1.76198 12.3877 2.00768 11.2508 2.4464 10.214L2.47629 10.1433C2.68066 9.65974 2.88054 9.18682 3.14367 8.82824C3.46402 8.39179 3.87995 8.11065 4.46203 7.99718C5.09298 7.87419 5.61893 8.04384 6.1007 8.36828C6.5203 8.65091 6.95549 9.08621 7.43668 9.56753L7.48156 9.61242L10.2315 12.3627L12.7999 9.79349C13.1904 9.40301 13.8234 9.40306 14.214 9.79349C14.6045 10.184 14.6044 10.817 14.214 11.2076L11.6454 13.7769L14.3937 16.5255L14.4483 16.5801C14.9259 17.0575 15.3581 17.4895 15.6388 17.9064C15.963 18.3879 16.1317 18.9134 16.0089 19.5441C15.8955 20.126 15.6151 20.5421 15.1788 20.8624C14.8403 21.1109 14.3999 21.3037 13.9448 21.4965Z" fill="currentColor" />
</svg>