<svg xmlns="http://www.w3.org/2000/svg" width="24" height="24" viewBox="0 0 24 24" fill="none">
    <path opacity="0.4" d="M18.6689 9.11523C18.8946 8.84851 19.3584 8.91133 19.5049 9.22852C19.5136 9.2473 19.5151 9.25232 19.5186 9.26172C19.8298 10.116 20 11.0381 20 12C20 16.4183 16.4183 20 12 20C11.0382 20 10.1159 19.8307 9.26172 19.5195C9.25183 19.5159 9.2466 19.5137 9.22754 19.5049C8.91108 19.3583 8.84839 18.8956 9.11426 18.6699C9.13028 18.6563 9.14526 18.6451 9.1748 18.624C10.7643 17.4917 12.5192 16.0023 14.2607 14.2607C16.0024 12.5191 17.4926 10.7644 18.625 9.1748C18.6456 9.14592 18.6557 9.13097 18.6689 9.11523ZM12 4C13.875 4 15.599 4.64535 16.9629 5.72559C17.2452 5.94919 17.3868 6.06065 17.418 6.25195C17.4491 6.44325 17.3461 6.60171 17.1396 6.91797C16.972 7.17476 16.7876 7.44327 16.5879 7.72363C15.5464 9.18564 14.1503 10.8361 12.4932 12.4932C10.8361 14.1503 9.18564 15.5464 7.72363 16.5879C7.44327 16.7876 7.17476 16.972 6.91797 17.1396C6.60171 17.3461 6.44325 17.4491 6.25195 17.418C6.06065 17.3868 5.94919 17.2452 5.72559 16.9629C4.64535 15.599 4 13.875 4 12C4 7.58172 7.58172 4 12 4Z" fill="currentColor" />
    <path d="M19.8419 2.00005C20.3735 1.99686 20.9645 2.13237 21.4161 2.58403C21.8678 3.0357 22.0033 3.62667 22.0001 4.15825C21.9969 4.6864 21.8599 5.25536 21.6534 5.82329C21.2385 6.96412 20.4613 8.31932 19.4386 9.75493C18.2699 11.3955 16.7433 13.1924 14.9679 14.9679C13.1924 16.7433 11.3955 18.2699 9.75493 19.4386C8.31932 20.4613 6.96412 21.2385 5.82329 21.6534C5.25536 21.8599 4.6864 21.9969 4.15825 22.0001C3.62667 22.0033 3.0357 21.8678 2.58403 21.4161C2.13237 20.9645 1.99686 20.3735 2.00005 19.8419C2.00327 19.3137 2.14021 18.7448 2.34673 18.1769C2.73856 17.0994 3.45287 15.8305 4.39263 14.4835C4.63498 15.2263 4.98388 15.9215 5.41997 16.5509C4.86013 17.4384 4.459 18.2214 4.22661 18.8605C4.06181 19.3137 4.00138 19.6414 4.00005 19.8536C3.99966 19.918 4.00463 19.962 4.00982 19.9903C4.03813 19.9955 4.08217 20.0005 4.14653 20.0001C4.35871 19.9988 4.68645 19.9384 5.1397 19.7735C6.04145 19.4456 7.23033 18.7817 8.59479 17.8097C10.1333 16.7137 11.8461 15.2615 13.5538 13.5538C15.2615 11.8461 16.7137 10.1333 17.8097 8.59478C18.7817 7.23032 19.4456 6.04145 19.7735 5.1397C19.9384 4.68645 19.9988 4.35871 20.0001 4.14653C20.0005 4.08216 19.9955 4.03813 19.9903 4.00982C19.962 4.00464 19.918 3.99966 19.8536 4.00005C19.6414 4.00138 19.3137 4.0618 18.8605 4.22661C18.2214 4.459 17.4384 4.86013 16.5509 5.41997C15.9215 4.98388 15.2263 4.63498 14.4835 4.39263C15.8305 3.45287 17.0994 2.73856 18.1769 2.34673C18.7448 2.14021 19.3137 2.00327 19.8419 2.00005Z" fill="currentColor" />
</svg>