<svg xmlns="http://www.w3.org/2000/svg" width="24" height="24" viewBox="0 0 24 24" fill="none">
    <path opacity="0.4" d="M16.916 12.4873C17.6597 12.9703 18.5472 13.251 19.5 13.251C20.3041 13.251 21.0617 13.0509 21.7256 12.6982C21.3676 17.7571 17.15 21.75 12 21.75C10.3505 21.75 8.79655 21.3402 7.43457 20.6172C9.62634 19.3684 12.2363 17.3374 14.7891 14.7842C15.3537 14.2291 16.107 13.4308 16.916 12.4873ZM12 2.25C14.1338 2.25 16.1075 2.93593 17.7129 4.09863C15.9753 4.80478 14.75 6.50984 14.75 8.50098C14.7501 9.35718 14.9766 10.1608 15.373 10.8545C14.7098 11.6235 13.9819 12.4086 13.1973 13.1934C10.6527 15.7383 8.10749 17.6816 6.09863 18.7871C5.84305 18.9278 5.6032 19.0504 5.37988 19.1572C3.45528 17.3762 2.25 14.829 2.25 12C2.25 6.61522 6.61522 2.25 12 2.25Z" fill="currentColor" />
    <path d="M16.1009 11.8181C16.5605 12.2888 17.1174 12.6645 17.7386 12.9128C17.0241 13.7435 16.2471 14.5819 15.4173 15.4118C12.7802 18.0494 10.0564 20.1541 7.764 21.4157C6.62388 22.0431 5.53974 22.4904 4.59506 22.6667C3.68757 22.8359 2.64923 22.7966 1.92709 22.0759C1.11003 21.2602 1.15839 20.0433 1.42026 19.0095C1.5573 18.4685 1.77512 17.8836 2.0599 17.2682C2.43322 17.9712 2.87893 18.6306 3.38705 19.235C3.36047 19.3225 3.33664 19.4075 3.31576 19.4899C3.08915 20.3845 3.26953 20.6547 3.30795 20.6931C3.33979 20.7244 3.5453 20.8737 4.23665 20.7448C4.8936 20.6222 5.77094 20.282 6.82161 19.7038C8.91156 18.5537 11.4897 16.5751 14.0345 14.03C14.7732 13.2912 15.4643 12.5496 16.1009 11.8181ZM19.4984 5.24967C21.2931 5.24981 22.7482 6.70497 22.7484 8.49967C22.7484 10.2945 21.2932 11.7496 19.4984 11.7497C17.7035 11.7497 16.2484 10.2946 16.2484 8.49967C16.2486 6.70489 17.7036 5.24967 19.4984 5.24967ZM18.9876 1.42643C20.0275 1.15945 21.2527 1.10429 22.0736 1.9235C22.796 2.64463 22.8359 3.68311 22.6673 4.59049C22.6484 4.69261 22.6261 4.79674 22.6009 4.90201C22.0824 4.45469 21.4661 4.11697 20.7884 3.92643C20.8271 3.4779 20.718 3.33261 20.6927 3.30729C20.6535 3.26809 20.3787 3.08673 19.474 3.31901C19.3977 3.33859 19.3192 3.36099 19.2386 3.38541C18.6343 2.87722 17.9756 2.43168 17.2728 2.05826C17.8786 1.77815 18.4542 1.56341 18.9876 1.42643Z" fill="currentColor" />
</svg>