<svg xmlns="http://www.w3.org/2000/svg" width="24" height="24" viewBox="0 0 24 24" fill="none">
    <path d="M1.54307 1.54312C1.9336 1.15263 2.56662 1.15261 2.95713 1.54312L22.4571 21.0431C22.8475 21.4336 22.8476 22.0667 22.4571 22.4572C22.0666 22.8477 21.4336 22.8476 21.0431 22.4572L19.5528 20.9669C19.0268 21.2646 18.4286 21.4454 17.7501 21.5558V19.1642L16.2501 17.6642V21.7023C15.3417 21.7482 14.2814 21.7502 13.0499 21.7501H10.9503C9.71881 21.7502 8.65849 21.7482 7.7501 21.7023V17.0001C7.7501 16.0361 7.75157 15.3885 7.81651 14.9054C7.87855 14.444 7.98601 14.2467 8.11631 14.1164C8.24662 13.9861 8.44406 13.8786 8.90538 13.8166C9.3884 13.7516 10.0361 13.7501 11.0001 13.7501H12.336L10.836 12.2501C9.98716 12.2503 9.27504 12.2536 8.70518 12.3302C8.0776 12.4147 7.51112 12.6005 7.05577 13.0558C6.60041 13.5112 6.41462 14.0776 6.33018 14.7052C6.25006 15.3011 6.25008 16.0525 6.2501 16.9533V21.5558C5.19719 21.3844 4.33364 21.0504 3.6417 20.3585C2.8934 19.6102 2.56107 18.6617 2.40342 17.4894C2.25008 16.3489 2.25009 14.8908 2.2501 13.0499V10.9503C2.25009 9.10954 2.25008 7.65145 2.40342 6.5109C2.5093 5.72357 2.69388 5.03712 3.03038 4.44449L1.54307 2.95719C1.15255 2.56666 1.15255 1.93365 1.54307 1.54312Z" fill="currentColor" />
    <path opacity="0.4" d="M17.7502 2.46509C18.3156 2.64077 18.8465 2.91979 19.3127 3.29321C19.519 3.45849 19.7095 3.64897 20.007 3.94653L20.0539 3.99341C20.3515 4.29095 20.5419 4.48141 20.7072 4.68774C21.2704 5.39088 21.6229 6.23961 21.7219 7.13501C21.7517 7.40465 21.7502 7.68138 21.7502 8.12134V13.05C21.7502 14.8908 21.7502 16.349 21.5969 17.4895C21.5743 17.6577 21.5453 17.8207 21.5148 17.9797L12.2853 8.75024H13.0471C13.9478 8.75027 14.6992 8.75028 15.2951 8.67017C15.9227 8.58573 16.4892 8.39991 16.9445 7.94458C17.3998 7.48923 17.5857 6.92275 17.6701 6.29517C17.7502 5.69926 17.7502 4.94788 17.7502 4.04712V2.46509ZM15.8791 2.25024C16.0172 2.25024 16.1394 2.25147 16.2502 2.2522V4.00024C16.2502 4.96424 16.2487 5.61194 16.1838 6.09497C16.1217 6.55629 16.0143 6.75373 15.884 6.88403C15.7537 7.01433 15.5562 7.12179 15.0949 7.18384C14.6119 7.24878 13.9641 7.25024 13.0002 7.25024H11.0002C10.9261 7.25024 10.8538 7.24834 10.7834 7.24829L7.75116 4.21606C7.75111 4.14593 7.75018 4.07401 7.75018 4.00024V2.29712C8.65856 2.25121 9.7189 2.25024 10.9504 2.25024H15.8791Z" fill="currentColor" />
</svg>