<svg xmlns="http://www.w3.org/2000/svg" width="24" height="24" viewBox="0 0 24 24" fill="none">
    <path d="M1.5078 12C1.5078 9.78939 1.50551 8.03078 1.69042 6.65528C1.87923 5.2509 2.27998 4.09696 3.19237 3.18457C4.03304 2.34399 5.0794 1.93669 6.34081 1.73047C7.57314 1.52902 9.11181 1.50479 11.0058 1.50098C11.5581 1.4999 12.0067 1.94676 12.0078 2.49903C12.0089 3.05128 11.562 3.49987 11.0098 3.50098C9.08421 3.50485 7.7102 3.5341 6.66405 3.70508C5.64719 3.87131 5.04928 4.15586 4.60643 4.59863C4.12758 5.07749 3.83183 5.73927 3.67284 6.92188C3.51002 8.13315 3.5078 9.73294 3.5078 12C3.5078 14.2674 3.50998 15.8677 3.67284 17.0791C3.83183 18.2617 4.12758 18.9235 4.60643 19.4023C5.08521 19.881 5.74658 20.176 6.9287 20.335C8.14007 20.4978 9.74036 20.5 12.0078 20.5C14.2752 20.5 15.8755 20.4978 17.0869 20.335C18.269 20.176 18.9304 19.881 19.4092 19.4023C19.852 18.9595 20.1374 18.3616 20.3037 17.3447C20.4747 16.2985 20.5029 14.9238 20.5068 12.998C20.5081 12.446 20.9568 11.9991 21.5088 12C22.0609 12.0011 22.5077 12.4499 22.5068 13.002C22.503 14.8959 22.4788 16.4347 22.2773 17.667C22.0711 18.9285 21.664 19.9757 20.8232 20.8164C19.911 21.7285 18.7575 22.1286 17.3535 22.3174C15.9779 22.5023 14.2187 22.5 12.0078 22.5C9.7969 22.5 8.03771 22.5023 6.6621 22.3174C5.25807 22.1286 4.10462 21.7285 3.19237 20.8164C2.27999 19.904 1.87923 18.7501 1.69042 17.3457C1.50547 15.9701 1.5078 14.2109 1.5078 12Z" fill="currentColor" />
    <path opacity="0.4" d="M18.0351 1.50079C18.7049 1.4959 19.4269 1.51259 20.04 1.5799C20.345 1.61339 20.6523 1.66242 20.9248 1.7381C21.1316 1.79555 21.436 1.89808 21.6943 2.10822L21.8017 2.2049L21.8994 2.31329C22.1095 2.57164 22.2121 2.87603 22.2695 3.08283C22.3452 3.35531 22.3942 3.6626 22.4277 3.96759C22.495 4.58071 22.5117 5.3027 22.5068 5.97247C22.5019 6.64803 22.4748 7.29796 22.4492 7.77716C22.4364 8.01738 22.4234 8.21607 22.414 8.35529C22.4094 8.42477 22.4061 8.4796 22.4033 8.5174C22.4019 8.5363 22.4011 8.55122 22.4004 8.56134C22.4 8.56639 22.3996 8.5703 22.3994 8.57306C22.3993 8.57427 22.3985 8.57523 22.3984 8.57599V8.57794C22.3553 9.12847 21.8738 9.53995 21.3232 9.49689C20.7729 9.45359 20.3612 8.97214 20.4043 8.42169L20.4053 8.41974C20.4054 8.41779 20.4049 8.4142 20.4053 8.40997C20.4059 8.40156 20.4069 8.38878 20.4082 8.37189C20.4107 8.33761 20.4145 8.28615 20.4189 8.22052C20.4278 8.08928 20.4399 7.90016 20.4521 7.67072C20.4768 7.21023 20.5022 6.59262 20.5068 5.95783C20.5094 5.60563 20.5044 5.25579 20.4912 4.92951L10.4375 14.9832C10.7638 14.9964 11.1136 15.0024 11.4658 14.9998C12.1006 14.9952 12.7182 14.9688 13.1787 14.9442C13.4081 14.9319 13.5973 14.9198 13.7285 14.911C13.7941 14.9065 13.8456 14.9037 13.8799 14.9012C13.8967 14.8999 13.9095 14.8989 13.918 14.8983C13.9222 14.8979 13.9258 14.8974 13.9277 14.8973H13.9297C14.4803 14.8542 14.9618 15.2656 15.0049 15.8162C15.0478 16.3667 14.6364 16.8483 14.0859 16.8914H14.081C14.0783 16.8916 14.0744 16.892 14.0693 16.8924C14.0592 16.8932 14.0443 16.8939 14.0254 16.8953C13.9876 16.8981 13.9328 16.9024 13.8633 16.907C13.724 16.9164 13.5253 16.9284 13.2851 16.9412C12.8059 16.9669 12.156 16.9939 11.4805 16.9988C10.8107 17.0037 10.0887 16.988 9.47557 16.9207C9.17057 16.8872 8.86329 16.8382 8.5908 16.7625C8.35445 16.6969 7.99081 16.5715 7.71385 16.2947C7.43684 16.0177 7.31175 15.6533 7.24608 15.4168C7.17044 15.1445 7.12136 14.8379 7.08787 14.533C7.02055 13.9199 7.00389 13.1979 7.00877 12.5281C7.0137 11.8524 7.04075 11.2018 7.06639 10.7225C7.07924 10.4823 7.09215 10.2835 7.10155 10.1443C7.10624 10.0748 7.10952 10.02 7.11229 9.98224C7.11367 9.96335 7.11445 9.94841 7.11522 9.93829C7.11559 9.93337 7.11599 9.92928 7.11619 9.92658C7.11629 9.92533 7.11711 9.92439 7.11717 9.92365V9.92169C7.16046 9.37131 7.64191 8.95969 8.19237 9.00275C8.74269 9.04603 9.15426 9.52756 9.11131 10.0779L9.11033 10.0809C9.11018 10.0828 9.11063 10.0858 9.11033 10.0897C9.10969 10.0981 9.10866 10.1116 9.1074 10.1287C9.1049 10.163 9.10107 10.2138 9.09666 10.2791C9.0878 10.4104 9.07575 10.6002 9.06346 10.8299C9.03883 11.2904 9.01341 11.908 9.00877 12.5428C9.00621 12.8944 9.01027 13.2433 9.02342 13.5692L19.0771 3.51544C18.7511 3.50228 18.4016 3.49822 18.0498 3.50079C17.415 3.50544 16.7974 3.53084 16.3369 3.55548C16.1075 3.56776 15.9183 3.57983 15.7871 3.58869C15.7215 3.59311 15.67 3.59692 15.6357 3.59943C15.6188 3.60066 15.6061 3.60172 15.5976 3.60236C15.5934 3.60268 15.5898 3.60221 15.5879 3.60236L15.5859 3.60333C15.0355 3.6464 14.554 3.23478 14.5107 2.68439C14.4677 2.13383 14.8791 1.65234 15.4297 1.60919H15.4316C15.4324 1.60913 15.4333 1.60831 15.4346 1.60822C15.4373 1.608 15.4413 1.6086 15.4463 1.60822C15.4564 1.60745 15.4713 1.60569 15.4902 1.60431C15.528 1.60154 15.5829 1.59826 15.6523 1.59357C15.7915 1.58417 15.9902 1.57127 16.2305 1.55841C16.7097 1.53277 17.3596 1.50574 18.0351 1.50079Z" fill="currentColor" />
</svg>