<svg xmlns="http://www.w3.org/2000/svg" width="24" height="24" viewBox="0 0 24 24" fill="none">
    <path d="M14.0078 6C14.5601 6 15.0078 6.44772 15.0078 7C15.0078 7.55229 14.5601 8 14.0078 8L7.00781 8C6.45553 8 6.00781 7.55228 6.00781 7C6.00781 6.44772 6.45553 6 7.00781 6L14.0078 6Z" fill="currentColor" />
    <path d="M17.0078 11C17.5601 11 18.0078 11.4477 18.0078 12C18.0078 12.5523 17.5601 13 17.0078 13L7.00781 13C6.45553 13 6.00781 12.5523 6.00781 12C6.00781 11.4477 6.45553 11 7.00781 11L17.0078 11Z" fill="currentColor" />
    <path d="M12.0078 16C12.5601 16 13.0078 16.4477 13.0078 17C13.0078 17.5523 12.5601 18 12.0078 18L7.00781 18C6.45553 18 6.00781 17.5523 6.00781 17C6.00781 16.4477 6.45553 16 7.00781 16L12.0078 16Z" fill="currentColor" />
    <path opacity="0.4" d="M1.50778 15.0001C1.50778 14.4478 1.9555 14.0001 2.50778 14.0001C3.06007 14.0001 3.50778 14.4478 3.50778 15.0001C3.50778 16.9494 3.52285 17.6592 3.71872 18.1974C4.07257 19.1694 4.83844 19.9353 5.81052 20.2892C6.34868 20.485 7.05849 20.5001 9.00778 20.5001C9.56007 20.5001 10.0078 20.9478 10.0078 21.5001C10.0078 22.0524 9.56007 22.5001 9.00778 22.5001C7.23251 22.5001 6.07998 22.5149 5.12692 22.1681C3.59921 21.612 2.39586 20.4087 1.83981 18.881C1.49296 17.9279 1.50778 16.7754 1.50778 15.0001ZM20.5078 15.0001C20.5078 14.4478 20.9555 14.0001 21.5078 14.0001C22.0601 14.0001 22.5078 14.4478 22.5078 15.0001C22.5078 16.7754 22.5226 17.9279 22.1758 18.881C21.6197 20.4087 20.4164 21.612 18.8886 22.1681C17.9356 22.5149 16.7831 22.5001 15.0078 22.5001C14.4555 22.5001 14.0078 22.0524 14.0078 21.5001C14.0078 20.9478 14.4555 20.5001 15.0078 20.5001C16.9571 20.5001 17.6669 20.485 18.205 20.2892C19.1771 19.9353 19.943 19.1694 20.2968 18.1974C20.4927 17.6592 20.5078 16.9494 20.5078 15.0001ZM1.50778 9.00009C1.50778 7.22482 1.49296 6.07229 1.83981 5.11923C2.39586 3.59152 3.59921 2.38817 5.12692 1.83212C6.07998 1.48527 7.23251 1.50009 9.00778 1.50009C9.56007 1.50009 10.0078 1.94781 10.0078 2.50009C10.0078 3.05238 9.56007 3.50009 9.00778 3.50009C7.05849 3.50009 6.34868 3.51516 5.81052 3.71103C4.83844 4.06488 4.07257 4.83075 3.71872 5.80283C3.52285 6.34099 3.50778 7.0508 3.50778 9.00009C3.50778 9.55238 3.06007 10.0001 2.50778 10.0001C1.9555 10.0001 1.50778 9.55238 1.50778 9.00009ZM20.5078 9.00009C20.5078 7.0508 20.4927 6.34099 20.2968 5.80283C19.943 4.83075 19.1771 4.06488 18.205 3.71103C17.6669 3.51516 16.9571 3.50009 15.0078 3.50009C14.4555 3.50009 14.0078 3.05238 14.0078 2.50009C14.0078 1.94781 14.4555 1.50009 15.0078 1.50009C16.7831 1.50009 17.9356 1.48527 18.8886 1.83212C20.4164 2.38817 21.6197 3.59152 22.1758 5.11923C22.5226 6.07229 22.5078 7.22482 22.5078 9.00009C22.5078 9.55238 22.0601 10.0001 21.5078 10.0001C20.9555 10.0001 20.5078 9.55238 20.5078 9.00009Z" fill="currentColor" />
</svg>