<svg xmlns="http://www.w3.org/2000/svg" width="24" height="24" viewBox="0 0 24 24" fill="none">
    <path d="M20.3008 3.29289C20.6913 2.90237 21.3243 2.90237 21.7148 3.29289C22.1054 3.68342 22.1054 4.31643 21.7148 4.70696L16.2148 10.207C15.8243 10.5975 15.1913 10.5975 14.8008 10.207C14.4102 9.81643 14.4102 9.18342 14.8008 8.79289L20.3008 3.29289Z" fill="currentColor" />
    <path opacity="0.4" fill-rule="evenodd" clip-rule="evenodd" d="M9.7754 7.34685C9.92586 6.926 10.0078 6.47257 10.0078 6C10.0078 3.79086 8.21695 2 6.00781 2C3.79867 2 2.00781 3.79086 2.00781 6C2.00781 8.20914 3.79867 10 6.00781 10C7.0137 10 7.93287 9.62871 8.63574 9.0157L11.736 11.8576L8.62012 14.9727C7.91915 14.3672 7.00671 14 6.00781 14C3.79867 14 2.00781 15.7909 2.00781 18C2.00781 20.2091 3.79867 22 6.00781 22C8.21695 22 10.0078 20.2091 10.0078 18C10.0078 17.5255 9.92409 17.0707 9.77246 16.6484L13.2116 13.2102L20.332 19.7373C20.7392 20.1105 21.3719 20.0829 21.7451 19.6758C22.1183 19.2687 22.0907 18.6359 21.6836 18.2627L9.7754 7.34685ZM6.00781 4C7.11238 4 8.00781 4.89543 8.00781 6C8.00781 7.10457 7.11238 8 6.00781 8C4.90324 8 4.00781 7.10457 4.00781 6C4.00781 4.89543 4.90324 4 6.00781 4ZM8.00781 18C8.00781 16.8954 7.11238 16 6.00781 16C4.90324 16 4.00781 16.8954 4.00781 18C4.00781 19.1046 4.90324 20 6.00781 20C7.11238 20 8.00781 19.1046 8.00781 18Z" fill="currentColor" />
</svg>