<svg xmlns="http://www.w3.org/2000/svg" width="24" height="24" viewBox="0 0 24 24" fill="none">
    <path d="M10.5079 17.75V19.25C10.5079 19.5261 10.284 19.75 10.0079 19.75H8.00787C7.45559 19.75 7.00787 20.1977 7.00787 20.75C7.00787 21.3023 7.45559 21.75 8.00787 21.75H16.0079C16.5602 21.75 17.0079 21.3023 17.0079 20.75C17.0079 20.1977 16.5602 19.75 16.0079 19.75H14.0079C13.7317 19.75 13.5079 19.5261 13.5079 19.25V17.75H10.5079Z" fill="currentColor" />
    <path d="M7.95301 17.7501C6.58541 17.7502 5.48309 17.7502 4.61612 17.6336C3.71602 17.5126 2.95814 17.2537 2.35622 16.6518C1.75431 16.0499 1.49541 15.292 1.3744 14.3919C1.25784 13.5249 1.25785 12.4226 1.25787 11.055V11.055V8.94527V8.94526C1.25785 7.57767 1.25784 6.47536 1.3744 5.6084C1.49541 4.70829 1.75431 3.95041 2.35622 3.3485C2.52991 3.17481 2.71657 3.02969 2.91589 2.9082L9.15137 9.14363C8.90421 9.33834 8.68883 9.57104 8.51348 9.83346C8.21686 10.2774 8.10532 10.7627 8.05514 11.2559C8.00782 11.7211 8.00785 12.3395 8.00788 13.0002C8.00788 13.5525 8.45559 14.0002 9.00788 14.0002C9.56016 14.0002 10.0079 13.5525 10.0079 13.0002C10.0079 12.2772 10.0091 11.8101 10.0449 11.4583C10.079 11.1232 10.136 11.0051 10.1764 10.9446C10.2494 10.8354 10.3431 10.7417 10.4523 10.6687C10.4828 10.6484 10.5278 10.6238 10.6078 10.6001L17.7474 17.7396C17.2375 17.7502 16.6769 17.7502 16.0627 17.7501H7.95301Z" fill="currentColor" />
    <path opacity="0.4" d="M16.0628 2.25C17.4303 2.24998 18.5327 2.24996 19.3996 2.36652C20.2997 2.48754 21.0576 2.74643 21.6595 3.34835C22.2614 3.95027 22.5203 4.70814 22.6413 5.60825C22.7579 6.47522 22.7579 7.57754 22.7579 8.94513V11.0549C22.7579 12.4225 22.7579 13.5248 22.6413 14.3918C22.5203 15.2919 22.2614 16.0497 21.6595 16.6517C21.3341 16.977 20.9632 17.2022 20.5488 17.3595L15.1562 11.9669L13.7382 10.5488L13.6894 10.5L11.6927 8.50329L5.47833 2.28896C6.18205 2.24997 7.00359 2.24999 7.95297 2.25H7.953H16.0627H16.0628Z" fill="currentColor" />
    <path d="M12.7027 6.40706C13.0302 5.96236 13.6562 5.86736 14.1009 6.19487C14.1009 6.19487 15.0835 6.96141 15.4135 7.2479C15.7385 7.53008 16.0893 7.85543 16.3667 8.16935C16.5043 8.32517 16.6451 8.50177 16.7569 8.68719C16.8521 8.84516 17.0079 9.13921 17.0079 9.50006C17.0079 9.86089 16.8521 10.1549 16.7569 10.3129C16.6451 10.4983 16.5043 10.6749 16.3667 10.8307C16.0893 11.1447 15.7385 11.47 15.4135 11.7522C15.3488 11.8084 15.2589 11.8831 15.1563 11.9669L13.7382 10.5488L13.6894 10.5L11.6927 8.50329C11.9323 8.50002 12.1881 8.50003 12.4593 8.50005H12.4594L13.7979 8.50005L12.9148 7.80519C12.4702 7.47766 12.3752 6.85172 12.7027 6.40706Z" fill="currentColor" />
    <path d="M1.30077 1.29289C1.69129 0.902369 2.32431 0.902369 2.71483 1.29289L22.7148 21.2929C23.1054 21.6834 23.1054 22.3164 22.7148 22.707C22.3243 23.0975 21.6913 23.0975 21.3008 22.707L1.30077 2.70696C0.910242 2.31643 0.910242 1.68342 1.30077 1.29289Z" fill="currentColor" />
</svg>