<svg xmlns="http://www.w3.org/2000/svg" width="24" height="24" viewBox="0 0 24 24" fill="none">
    <path d="M10.5078 17.75V19.25C10.5078 19.5261 10.284 19.75 10.0078 19.75H8.00781C7.45553 19.75 7.00781 20.1977 7.00781 20.75C7.00781 21.3023 7.45553 21.75 8.00781 21.75H16.0078C16.5601 21.75 17.0078 21.3023 17.0078 20.75C17.0078 20.1977 16.5601 19.75 16.0078 19.75H14.0078C13.7317 19.75 13.5078 19.5261 13.5078 19.25V17.75H10.5078Z" fill="currentColor" />
    <path opacity="0.4" d="M16.0627 2.25C17.4303 2.24998 18.5326 2.24996 19.3996 2.36652C20.2997 2.48754 21.0575 2.74643 21.6595 3.34835C22.2614 3.95027 22.5203 4.70814 22.6413 5.60825C22.7579 6.47522 22.7578 7.57754 22.7578 8.94513V11.0549C22.7578 12.4225 22.7579 13.5248 22.6413 14.3918C22.5203 15.2919 22.2614 16.0497 21.6595 16.6517C21.0575 17.2536 20.2997 17.5125 19.3996 17.6335C18.5326 17.75 17.4303 17.75 16.0627 17.75H16.0627H7.95294H7.95294C6.58535 17.75 5.48303 17.75 4.61606 17.6335C3.71595 17.5125 2.95808 17.2536 2.35616 16.6517C1.75425 16.0497 1.49535 15.2919 1.37434 14.3918C1.25778 13.5248 1.25779 12.4225 1.25781 11.0549V11.0549V8.94513V8.94511C1.25779 7.57753 1.25778 6.47521 1.37434 5.60825C1.49535 4.70814 1.75425 3.95027 2.35616 3.34835C2.95808 2.74643 3.71595 2.48754 4.61606 2.36652C5.48303 2.24996 6.58534 2.24998 7.95292 2.25H7.95294H16.0627H16.0627Z" fill="currentColor" />
    <path d="M12.7026 6.40706C13.0301 5.96236 13.6561 5.86736 14.1008 6.19487C14.1008 6.19487 15.0835 6.96141 15.4134 7.2479C15.7384 7.53008 16.0892 7.85543 16.3666 8.16935C16.5043 8.32517 16.645 8.50177 16.7568 8.68719C16.852 8.84516 17.0078 9.13921 17.0078 9.50006C17.0078 9.86089 16.852 10.1549 16.7568 10.3129C16.645 10.4983 16.5043 10.6749 16.3666 10.8307C16.0892 11.1447 15.7384 11.47 15.4134 11.7522C15.0835 12.0387 14.101 12.8051 14.101 12.8051C13.6563 13.1326 13.0302 13.0378 12.7026 12.5931C12.3752 12.1484 12.4701 11.5225 12.9147 11.195C12.9147 11.195 13.6095 10.6563 13.7979 10.5H12.5078C11.7848 10.5 11.3178 10.5013 10.9659 10.537C10.6308 10.5711 10.5128 10.6281 10.4522 10.6686C10.3431 10.7415 10.2493 10.8353 10.1764 10.9445C10.1359 11.005 10.0789 11.1231 10.0448 11.4582C10.009 11.81 10.0078 12.277 10.0078 13.0001C10.0078 13.5524 9.5601 14.0001 9.00782 14.0001C8.45553 14.0001 8.00782 13.5524 8.00782 13.0001C8.00779 12.3393 8.00776 11.7209 8.05508 11.2558C8.10526 10.7625 8.21679 10.2772 8.51342 9.83332C8.73229 9.50576 9.01353 9.22452 9.34108 9.00565C9.78501 8.70903 10.2703 8.59749 10.7635 8.54731C11.2287 8.49999 11.7985 8.50002 12.4593 8.50005H12.4593L13.7978 8.50005L12.9147 7.80519C12.4701 7.47766 12.3751 6.85172 12.7026 6.40706Z" fill="currentColor" />
</svg>