<svg xmlns="http://www.w3.org/2000/svg" width="24" height="24" viewBox="0 0 24 24" fill="none">
    <path opacity="0.4" d="M5.25774 15.7494L5.25774 8.73946L5.25774 2.25061L15.5239 2.26071C15.6386 2.26321 15.7501 2.26626 15.8585 2.26999C17.3515 2.32132 18.2517 2.50078 18.8791 3.12809C19.7577 4.00677 19.7577 5.42099 19.7577 8.24941V21.7494L10.0825 21.7484C7.25408 21.7484 7.0151 21.7494 6.13642 20.8707C5.25774 19.9921 5.25774 18.5778 5.25774 15.7494Z" fill="currentColor" />
    <path d="M11.963 15.2369C11.5302 15.2369 11.1333 15.2368 10.8105 15.2802C10.4551 15.3279 10.0793 15.4401 9.7703 15.7485C9.46128 16.057 9.34883 16.432 9.30104 16.7868C9.25764 17.109 9.25769 20.0455 9.25774 20.4775C9.25774 21.1666 8.69809 21.7251 8.00774 21.7251L20.0077 21.7369C21.5265 21.7369 22.7577 20.5081 22.7577 18.9922C22.7578 18.5602 22.7578 17.1208 22.7144 16.7986C22.6666 16.4438 22.5542 16.0688 22.2452 15.7603C21.9361 15.4519 21.5604 15.3397 21.2049 15.292C20.8821 15.2486 20.4853 15.2487 20.0525 15.2487L11.963 15.2369Z" fill="currentColor" />
    <path fill-rule="evenodd" clip-rule="evenodd" d="M5.25774 2.2509V8.73975L3.96299 8.73786C3.53017 8.73791 3.13334 8.73796 2.81053 8.69464C2.45505 8.64693 2.07933 8.5347 1.7703 8.22627C1.46128 7.91783 1.34883 7.54282 1.30104 7.18802C1.25764 6.86583 1.25769 5.42641 1.25774 4.99442C1.25774 3.47853 2.48896 2.24967 4.00774 2.24967L5.25774 2.2509Z" fill="currentColor" />
    <path d="M15.0077 6.24976C15.4219 6.24976 15.7577 6.58554 15.7577 6.99976C15.7577 7.41397 15.4219 7.74976 15.0077 7.74976H10.0077C9.59352 7.74976 9.25774 7.41397 9.25774 6.99976C9.25774 6.58554 9.59352 6.24976 10.0077 6.24976H15.0077Z" fill="currentColor" />
    <path d="M13.0077 10.2498C13.4219 10.2498 13.7577 10.5855 13.7577 10.9998C13.7577 11.414 13.4219 11.7498 13.0077 11.7498H10.0077C9.59352 11.7498 9.25774 11.414 9.25774 10.9998C9.25774 10.5855 9.59352 10.2498 10.0077 10.2498H13.0077Z" fill="currentColor" />
</svg>