<svg xmlns="http://www.w3.org/2000/svg" width="24" height="24" viewBox="0 0 24 24" fill="none">
    <path opacity="0.4" fill-rule="evenodd" clip-rule="evenodd" d="M18.0397 16.6177L21.7149 20.2929C22.1054 20.6834 22.1054 21.3166 21.7149 21.7071C21.3244 22.0976 20.6912 22.0976 20.3007 21.7071L16.6255 18.0319C15.0858 19.2635 13.1328 20 11.0078 20C6.03725 20 2.00781 15.9706 2.00781 11C2.00781 6.02944 6.03725 2 11.0078 2C15.9784 2 20.0078 6.02944 20.0078 11C20.0078 13.125 19.2713 15.078 18.0397 16.6177ZM4.00781 11C4.00781 7.13401 7.14182 4 11.0078 4C14.8738 4 18.0078 7.13401 18.0078 11C18.0078 14.866 14.8738 18 11.0078 18C7.14182 18 4.00781 14.866 4.00781 11Z" fill="currentColor" />
    <path fill-rule="evenodd" clip-rule="evenodd" d="M7.30071 7.29289C7.69123 6.90237 8.32439 6.90237 8.71492 7.29289L11.0078 9.58579L13.3007 7.29289C13.6912 6.90237 14.3244 6.90237 14.7149 7.29289C15.1054 7.68342 15.1054 8.31658 14.7149 8.70711L12.422 11L14.7149 13.2929C15.1054 13.6834 15.1054 14.3166 14.7149 14.7071C14.3244 15.0976 13.6912 15.0976 13.3007 14.7071L11.0078 12.4142L8.71492 14.7071C8.3244 15.0976 7.69123 15.0976 7.30071 14.7071C6.91018 14.3166 6.91018 13.6834 7.30071 13.2929L9.5936 11L7.30071 8.70711C6.91018 8.31658 6.91018 7.68342 7.30071 7.29289Z" fill="currentColor" />
</svg>