<svg xmlns="http://www.w3.org/2000/svg" width="24" height="24" viewBox="0 0 24 24" fill="none">
    <path d="M10.0078 11.0002V7.00018C10.0078 6.4479 10.4555 6.00018 11.0078 6.00018C11.5601 6.00018 12.0078 6.4479 12.0078 7.00018V11.0002C12.0078 11.5525 11.5601 12.0002 11.0078 12.0002C10.4555 12.0002 10.0078 11.5525 10.0078 11.0002Z" fill="currentColor" />
    <path d="M11.0078 13.7502C11.5601 13.7502 12.0078 14.1979 12.0078 14.7502C12.0078 15.3025 11.5601 15.7502 11.0078 15.7502C10.4901 15.7502 10.064 15.3569 10.0127 14.8527L10.0078 14.7502L10.0127 14.6476C10.064 14.1435 10.4901 13.7502 11.0078 13.7502Z" fill="currentColor" />
    <path opacity="0.4" fill-rule="evenodd" clip-rule="evenodd" d="M20.0078 11.0002C20.0078 13.1252 19.2713 15.0782 18.0397 16.6179L21.7149 20.2931C22.1054 20.6836 22.1054 21.3168 21.7149 21.7073C21.3244 22.0978 20.6912 22.0978 20.3007 21.7073L16.6255 18.0321C15.0858 19.2637 13.1328 20.0002 11.0078 20.0002C6.03725 20.0002 2.00781 15.9707 2.00781 11.0002C2.00781 6.02962 6.03725 2.00018 11.0078 2.00018C15.9784 2.00018 20.0078 6.02962 20.0078 11.0002ZM4.00781 11.0002C4.00781 7.13419 7.14182 4.00018 11.0078 4.00018C14.8738 4.00018 18.0078 7.13419 18.0078 11.0002C18.0078 14.8662 14.8738 18.0002 11.0078 18.0002C7.14182 18.0002 4.00781 14.8662 4.00781 11.0002Z" fill="currentColor" />
</svg>