<svg xmlns="http://www.w3.org/2000/svg" width="24" height="24" viewBox="0 0 24 24" fill="none">
    <path opacity="0.4" d="M18.4415 2.339C19.4392 2.16465 20.3966 2.19746 21.1036 2.90443C21.8106 3.6114 21.8434 4.56886 21.669 5.56654C21.4964 6.55443 21.0738 7.83301 20.547 9.42716L20.5245 9.49525L18.587 15.3576L18.5696 15.4102C17.9666 17.2351 17.492 18.6711 17.0235 19.6749C16.5723 20.6417 16.0005 21.5015 15.044 21.6954C14.7157 21.762 14.3776 21.7682 14.047 21.713C13.0876 21.5529 12.4789 20.719 11.9825 19.7687C11.4682 18.7842 10.9277 17.3693 10.2405 15.5707L10.2169 15.5089C9.92837 14.7538 9.8411 14.5569 9.71102 14.4093C9.67618 14.3698 9.63822 14.3319 9.59872 14.297C9.45113 14.1669 9.25422 14.0797 8.49911 13.7911L8.43731 13.7675C6.63876 13.0804 5.22383 12.5398 4.23934 12.0255C3.28904 11.5291 2.45515 10.9204 2.29501 9.96107C2.23985 9.63046 2.24603 9.29238 2.31259 8.964C2.50656 8.00753 3.36631 7.43575 4.33309 6.98451C5.3369 6.51602 6.7729 6.04148 8.5978 5.43844L8.65048 5.42103L14.5128 3.48353L14.5809 3.46103C16.175 2.93419 17.4536 2.51165 18.4415 2.339Z" fill="currentColor" />
    <path d="M14.8067 7.78215C15.1973 7.39163 15.8303 7.39162 16.2208 7.78215C16.6113 8.17267 16.6113 8.80569 16.2208 9.19621L13.5235 11.8935C13.133 12.284 12.5 12.284 12.1095 11.8935C11.719 11.503 11.719 10.8699 12.1095 10.4794L14.8067 7.78215Z" fill="currentColor" />
</svg>