<svg xmlns="http://www.w3.org/2000/svg" width="24" height="24" viewBox="0 0 24 24" fill="none">
    <path d="M11.0079 21V3C11.0079 2.44772 11.4557 2 12.0079 2C12.5602 2 13.0079 2.44772 13.0079 3V21C13.0079 21.5523 12.5602 22 12.0079 22C11.4556 22 11.0079 21.5523 11.0079 21Z" fill="currentColor" />
    <path opacity="0.4" d="M6.39941 7.20609C6.83781 6.87029 7.46589 6.95333 7.80176 7.39164C8.13755 7.83002 8.0545 8.45811 7.61621 8.79398H7.61523L7.61426 8.79496C7.6127 8.79616 7.60974 8.79828 7.60645 8.80082C7.59959 8.8061 7.58897 8.81457 7.5752 8.82523C7.54727 8.84684 7.50529 8.87935 7.45215 8.92094C7.34583 9.00415 7.1932 9.12484 7.00977 9.2725C6.64198 9.56856 6.15466 9.97046 5.66992 10.3985C5.18044 10.8307 4.71423 11.2718 4.37793 11.6475C4.25366 11.7863 4.16031 11.9051 4.0918 12C4.16031 12.0949 4.25366 12.2138 4.37793 12.3526C4.71423 12.7282 5.18044 13.1694 5.66992 13.6016C6.15466 14.0296 6.64197 14.4315 7.00977 14.7276C7.1932 14.8752 7.34583 14.9959 7.45215 15.0791C7.50529 15.1207 7.54727 15.1532 7.5752 15.1748C7.58897 15.1855 7.59959 15.194 7.60645 15.1993C7.60975 15.2018 7.6127 15.2039 7.61426 15.2051L7.61523 15.2061H7.61621C8.05451 15.542 8.13755 16.17 7.80176 16.6084C7.4869 17.0193 6.91577 17.1175 6.48438 16.8516L6.39941 16.794L6.39844 16.793C6.3978 16.7925 6.39659 16.7919 6.39551 16.7911C6.39329 16.7893 6.39069 16.7863 6.38672 16.7832C6.3785 16.7769 6.36592 16.7678 6.35059 16.7559C6.31998 16.7322 6.27561 16.6981 6.21973 16.6543C6.10729 16.5663 5.9474 16.4394 5.75586 16.2852C5.37373 15.9776 4.86077 15.5554 4.3457 15.1006C3.83523 14.6499 3.30135 14.1486 2.8877 13.6866C2.68239 13.4572 2.48528 13.2144 2.33398 12.9746C2.20681 12.7731 2.00781 12.417 2.00781 12C2.00782 11.5831 2.20681 11.227 2.33398 11.0254C2.48528 10.7857 2.6824 10.5429 2.8877 10.3135C3.30135 9.85145 3.83523 9.3502 4.3457 8.89945C4.86078 8.44464 5.37373 8.02249 5.75586 7.71488C5.9474 7.5607 6.1073 7.43374 6.21973 7.34574C6.27561 7.302 6.31998 7.26786 6.35059 7.24418C6.36592 7.23231 6.3785 7.22316 6.38672 7.21683C6.39069 7.21378 6.39329 7.21072 6.39551 7.20902C6.3966 7.20818 6.3978 7.20756 6.39844 7.20707L6.39941 7.20609Z" fill="currentColor" />
    <path opacity="0.4" d="M17.6162 7.20609C17.1778 6.87029 16.5497 6.95333 16.2139 7.39164C15.8781 7.83002 15.9611 8.45811 16.3994 8.79398H16.4004L16.4014 8.79496C16.4029 8.79616 16.4059 8.79828 16.4092 8.80082C16.416 8.8061 16.4267 8.81457 16.4404 8.82523C16.4684 8.84684 16.5103 8.87935 16.5635 8.92094C16.6698 9.00415 16.8224 9.12484 17.0059 9.2725C17.3736 9.56856 17.861 9.97046 18.3457 10.3985C18.8352 10.8307 19.3014 11.2718 19.6377 11.6475C19.762 11.7863 19.8553 11.9051 19.9238 12C19.8553 12.0949 19.762 12.2138 19.6377 12.3526C19.3014 12.7282 18.8352 13.1694 18.3457 13.6016C17.861 14.0296 17.3737 14.4315 17.0059 14.7276C16.8224 14.8752 16.6698 14.9959 16.5635 15.0791C16.5103 15.1207 16.4684 15.1532 16.4404 15.1748C16.4267 15.1855 16.416 15.194 16.4092 15.1993C16.4059 15.2018 16.4029 15.2039 16.4014 15.2051L16.4004 15.2061H16.3994C15.9611 15.542 15.8781 16.17 16.2139 16.6084C16.5287 17.0193 17.0999 17.1175 17.5312 16.8516L17.6162 16.794L17.6172 16.793C17.6178 16.7925 17.619 16.7919 17.6201 16.7911C17.6223 16.7893 17.6249 16.7863 17.6289 16.7832C17.6371 16.7769 17.6497 16.7678 17.665 16.7559C17.6956 16.7322 17.74 16.6981 17.7959 16.6543C17.9083 16.5663 18.0682 16.4394 18.2598 16.2852C18.6419 15.9776 19.1549 15.5554 19.6699 15.1006C20.1804 14.6499 20.7143 14.1486 21.1279 13.6866C21.3332 13.4572 21.5303 13.2144 21.6816 12.9746C21.8088 12.7731 22.0078 12.417 22.0078 12C22.0078 11.5831 21.8088 11.227 21.6816 11.0254C21.5303 10.7857 21.3332 10.5429 21.1279 10.3135C20.7143 9.85145 20.1804 9.3502 19.6699 8.89945C19.1548 8.44464 18.6419 8.02249 18.2598 7.71488C18.0682 7.5607 17.9083 7.43374 17.7959 7.34574C17.74 7.302 17.6956 7.26786 17.665 7.24418C17.6497 7.23231 17.6371 7.22316 17.6289 7.21683C17.6249 7.21378 17.6223 7.21072 17.6201 7.20902C17.619 7.20818 17.6178 7.20756 17.6172 7.20707L17.6162 7.20609Z" fill="currentColor" />
</svg>