<svg xmlns="http://www.w3.org/2000/svg" width="24" height="24" viewBox="0 0 24 24" fill="none">
    <path d="M6.00781 6C6.5601 6 7.00781 6.44772 7.00781 7C7.00781 7.55229 6.56009 8 6.00781 8C5.45553 8 5.00781 7.55228 5.00781 7C5.00781 6.44772 5.45553 6 6.00781 6Z" fill="currentColor" />
    <path d="M10.0078 6C10.5601 6 11.0078 6.44772 11.0078 7C11.0078 7.55229 10.5601 8 10.0078 8C9.45553 8 9.00781 7.55228 9.00781 7C9.00781 6.44772 9.45553 6 10.0078 6Z" fill="currentColor" />
    <path opacity="0.4" d="M22.7578 7V7.04081C22.7578 7.70918 22.7578 8.26702 22.7119 8.71875C22.6638 9.19217 22.5585 9.63139 22.2939 10.0273C22.0933 10.3276 21.8354 10.5855 21.5352 10.7861C21.1392 11.0507 20.7 11.1559 20.2266 11.2041C19.7748 11.25 19.217 11.25 18.5486 11.25H18.5078H5.50781H5.467C4.79864 11.25 4.24079 11.25 3.78906 11.2041C3.31565 11.1559 2.87643 11.0507 2.48047 10.7861C2.1802 10.5855 1.92232 10.3276 1.72168 10.0273C1.45715 9.63139 1.35187 9.19217 1.30371 8.71875C1.25778 8.26701 1.25779 7.70915 1.25781 7.04076V7V6.95924C1.25779 6.29085 1.25778 5.733 1.30371 5.28125C1.35187 4.80783 1.45715 4.36862 1.72168 3.97266C1.92232 3.67238 2.1802 3.4145 2.48047 3.21387C2.87643 2.94934 3.31565 2.84406 3.78906 2.7959C4.24081 2.74996 4.79866 2.74998 5.46705 2.75H5.50781H18.5078H18.5486C19.217 2.74998 19.7748 2.74996 20.2266 2.7959C20.7 2.84406 21.1392 2.94934 21.5352 3.21387C21.8354 3.41451 22.0933 3.67239 22.2939 3.97266C22.5585 4.36862 22.6638 4.80783 22.7119 5.28125C22.7578 5.73298 22.7578 6.29082 22.7578 6.95919V7Z" fill="currentColor" />
    <path d="M6.00781 16C6.5601 16 7.00781 16.4477 7.00781 17C7.00781 17.5523 6.56009 18 6.00781 18C5.45553 18 5.00781 17.5523 5.00781 17C5.00781 16.4477 5.45553 16 6.00781 16Z" fill="currentColor" />
    <path d="M10.0078 16C10.5601 16 11.0078 16.4477 11.0078 17C11.0078 17.5523 10.5601 18 10.0078 18C9.45553 18 9.00781 17.5523 9.00781 17C9.00781 16.4477 9.45553 16 10.0078 16Z" fill="currentColor" />
    <path opacity="0.4" d="M22.7578 17V17.0408C22.7578 17.7092 22.7578 18.267 22.7119 18.7188C22.6638 19.1922 22.5585 19.6314 22.2939 20.0273C22.0933 20.3276 21.8354 20.5855 21.5352 20.7861C21.1392 21.0507 20.7 21.1559 20.2266 21.2041C19.7748 21.25 19.217 21.25 18.5486 21.25H18.5078H5.50781H5.467C4.79864 21.25 4.24079 21.25 3.78906 21.2041C3.31565 21.1559 2.87643 21.0507 2.48047 20.7861C2.1802 20.5855 1.92232 20.3276 1.72168 20.0273C1.45715 19.6314 1.35187 19.1922 1.30371 18.7188C1.25778 18.267 1.25779 17.7092 1.25781 17.0408V17V16.9592C1.25779 16.2908 1.25778 15.733 1.30371 15.2813C1.35187 14.8078 1.45715 14.3686 1.72168 13.9727C1.92232 13.6724 2.1802 13.4145 2.48047 13.2139C2.87643 12.9493 3.31565 12.8441 3.78906 12.7959C4.24081 12.75 4.79866 12.75 5.46705 12.75H5.50781H18.5078H18.5486C19.217 12.75 19.7748 12.75 20.2266 12.7959C20.7 12.8441 21.1392 12.9493 21.5352 13.2139C21.8354 13.4145 22.0933 13.6724 22.2939 13.9727C22.5585 14.3686 22.6638 14.8078 22.7119 15.2813C22.7578 15.733 22.7578 16.2908 22.7578 16.9592V17Z" fill="currentColor" />
</svg>