<svg xmlns="http://www.w3.org/2000/svg" width="24" height="24" viewBox="0 0 24 24" fill="none">
    <path opacity="0.5" d="M14.0381 6.61134C14.1358 6.59826 14.2453 6.65761 14.4639 6.77736L15.4883 7.33888C15.7219 7.46688 15.8389 7.53135 15.8799 7.62501C15.9208 7.7187 15.8798 7.88516 15.7969 8.21779C15.5201 9.32852 16.2489 10.4866 17.4062 10.7881C17.7186 10.8694 17.8749 10.9102 17.9375 10.9912C18.0001 11.0722 18 11.2032 18 11.4639V12.541C18 12.8014 18 12.9317 17.9375 13.0127C17.8749 13.0937 17.7186 13.1344 17.4062 13.2158C16.2491 13.5172 15.521 14.6755 15.7979 15.7861C15.8808 16.1185 15.9217 16.2852 15.8809 16.3789C15.8399 16.4726 15.7229 16.537 15.4893 16.665L14.4648 17.2265C14.2463 17.3463 14.1367 17.4056 14.0391 17.3926C13.9414 17.3794 13.8294 17.2713 13.6055 17.0547C12.7286 16.2064 11.2724 16.2064 10.3955 17.0547C10.1715 17.2713 10.0596 17.3804 9.96191 17.3935C9.86427 17.4066 9.75462 17.3462 9.53613 17.2265L8.51172 16.665C8.27808 16.537 8.16112 16.4726 8.12012 16.3789C8.07937 16.2852 8.12028 16.1185 8.20312 15.7861C8.47977 14.6755 7.75105 13.5172 6.59375 13.2158C6.28145 13.1345 6.12513 13.0937 6.0625 13.0127C6.00002 12.9317 6 12.8014 6 12.541V11.4639C6 11.2032 5.99988 11.0722 6.0625 10.9912C6.12514 10.9102 6.28141 10.8694 6.59375 10.7881C7.75131 10.4867 8.48071 9.32853 8.2041 8.21779C8.12125 7.88521 8.08024 7.7187 8.12109 7.62501C8.1621 7.53136 8.27908 7.46687 8.5127 7.33888L9.53711 6.77736C9.7557 6.6576 9.86522 6.59824 9.96289 6.61134C10.0605 6.62448 10.1725 6.73263 10.3965 6.94923C11.2729 7.79681 12.7281 7.79679 13.6045 6.94923C13.8284 6.73266 13.9404 6.62448 14.0381 6.61134Z" fill="currentColor" />
    <path d="M20.5684 7.19531C21.0629 6.97932 21.6393 7.20481 21.8555 7.69922C22.4314 9.01737 22.75 10.4729 22.75 12C22.75 17.9371 17.9371 22.75 12 22.75C10.1413 22.75 8.39164 22.2778 6.86621 21.4473L5.84277 22.4707C5.66654 22.6434 5.42538 22.75 5.15918 22.75C4.61945 22.75 4.18164 22.3122 4.18164 21.7725V18.9795C4.18164 18.5861 4.41765 18.2306 4.78027 18.0781C5.14297 17.9258 5.56177 18.006 5.84277 18.2812C7.43025 19.8375 9.6025 20.7959 12 20.7959C16.8576 20.7959 20.7959 16.8576 20.7959 12C20.7959 10.7474 20.5345 9.55835 20.0645 8.48242C19.8484 7.98784 20.0738 7.41141 20.5684 7.19531ZM18.8408 1.25C19.3806 1.25 19.8184 1.68781 19.8184 2.22754V5.02051C19.8184 5.4139 19.5824 5.76941 19.2197 5.92188C18.857 6.07422 18.4382 5.99403 18.1572 5.71875C16.5697 4.16251 14.3975 3.2041 12 3.2041C7.1424 3.2041 3.2041 7.1424 3.2041 12C3.2041 13.2526 3.46551 14.4417 3.93555 15.5176C4.15164 16.0122 3.92623 16.5886 3.43164 16.8047C2.93714 17.0207 2.36068 16.7952 2.14453 16.3008C1.56861 14.9826 1.25 13.5271 1.25 12C1.25 6.06294 6.06294 1.25 12 1.25C13.8587 1.25 15.6084 1.72222 17.1338 2.55273L18.1572 1.5293C18.3335 1.35665 18.5746 1.25002 18.8408 1.25ZM12 10.25C12.9665 10.25 13.75 11.0335 13.75 12C13.75 12.9665 12.9665 13.75 12 13.75C11.0335 13.75 10.25 12.9665 10.25 12C10.25 11.0335 11.0335 10.25 12 10.25Z" fill="currentColor" />
</svg>