<svg xmlns="http://www.w3.org/2000/svg" width="24" height="24" viewBox="0 0 24 24" fill="none">
    <path opacity="0.4" d="M12.3286 6C12.7381 6 12.943 6.00003 13.0972 6.11328C13.2513 6.22653 13.3163 6.42442 13.4458 6.82031L13.6421 7.41895C13.7323 7.6581 13.8952 7.86201 14.1069 8L14.3062 8.11621C14.553 8.2452 14.8366 8.28117 15.1069 8.21777L15.8267 8.01172C16.2503 7.88941 16.4626 7.82777 16.6499 7.90527C16.837 7.98285 16.9465 8.17791 17.1665 8.56641L17.4585 9.08008C17.6647 9.44415 17.7674 9.62651 17.7476 9.82031C17.7275 10.0142 17.5892 10.1708 17.313 10.4834L16.7056 11.1748C16.557 11.3662 16.4507 11.7001 16.4507 12C16.4507 12.3 16.556 12.6338 16.7046 12.8252L17.313 13.5166C17.5892 13.8292 17.7275 13.9858 17.7476 14.1797C17.7674 14.3735 17.6647 14.5559 17.4585 14.9199L17.1665 15.4336C16.9465 15.8221 16.837 16.0172 16.6499 16.0947C16.4626 16.1722 16.2503 16.1106 15.8267 15.9883L15.1069 15.7822C14.8366 15.7188 14.553 15.7548 14.3062 15.8838L14.1069 16C13.8952 16.138 13.7322 16.3419 13.6421 16.5811L13.4458 17.1797C13.3163 17.5756 13.2513 17.7735 13.0972 17.8867C12.943 18 12.7381 18 12.3286 18H11.6714C11.2619 18 11.057 18 10.9028 17.8867C10.7487 17.7735 10.6837 17.5756 10.5542 17.1797L10.3579 16.5811C10.2678 16.3419 10.1048 16.138 9.89306 16L9.69384 15.8838C9.44696 15.7548 9.16342 15.7188 8.89306 15.7822L8.17333 15.9883C7.74969 16.1106 7.53738 16.1722 7.35009 16.0947C7.16296 16.0172 7.0535 15.8221 6.83349 15.4336L6.54149 14.9199C6.3353 14.5559 6.23256 14.3735 6.25243 14.1797C6.27246 13.9858 6.41075 13.8292 6.687 13.5166L7.29442 12.8252C7.44304 12.6338 7.54928 12.3001 7.54931 12C7.54931 11.7001 7.44304 11.3662 7.29442 11.1748L6.687 10.4834C6.41075 10.1708 6.27246 10.0142 6.25243 9.82031C6.23254 9.62651 6.33529 9.44415 6.54149 9.08008L6.83349 8.56641C7.05352 8.17791 7.16296 7.98284 7.35009 7.90527C7.53738 7.82777 7.7497 7.88941 8.17333 8.01172L8.89306 8.21777C9.1634 8.28117 9.44697 8.2452 9.69384 8.11621L9.89306 8C10.1048 7.86201 10.2678 7.65809 10.3579 7.41895L10.5542 6.82031C10.6837 6.42441 10.7487 6.22653 10.9028 6.11328C11.057 6.00003 11.2619 6 11.6714 6H12.3286Z" fill="currentColor" />
    <path d="M20.5684 7.19531C21.0629 6.97932 21.6393 7.20481 21.8555 7.69922C22.4314 9.01737 22.75 10.4729 22.75 12C22.75 17.9371 17.9371 22.75 12 22.75C10.1413 22.75 8.39164 22.2778 6.86621 21.4473L5.84277 22.4707C5.66654 22.6434 5.42538 22.75 5.15918 22.75C4.61945 22.75 4.18164 22.3122 4.18164 21.7725V18.9795C4.18164 18.5861 4.41765 18.2306 4.78027 18.0781C5.14297 17.9258 5.56177 18.006 5.84277 18.2812C7.43025 19.8375 9.6025 20.7959 12 20.7959C16.8576 20.7959 20.7959 16.8576 20.7959 12C20.7959 10.7474 20.5345 9.55835 20.0645 8.48242C19.8484 7.98784 20.0738 7.41141 20.5684 7.19531ZM18.8408 1.25C19.3806 1.25 19.8184 1.68781 19.8184 2.22754V5.02051C19.8184 5.4139 19.5824 5.76941 19.2197 5.92188C18.857 6.07422 18.4382 5.99403 18.1572 5.71875C16.5697 4.16251 14.3975 3.2041 12 3.2041C7.1424 3.2041 3.2041 7.1424 3.2041 12C3.2041 13.2526 3.46551 14.4417 3.93555 15.5176C4.15164 16.0122 3.92623 16.5886 3.43164 16.8047C2.93714 17.0207 2.36068 16.7952 2.14453 16.3008C1.56861 14.9826 1.25 13.5271 1.25 12C1.25 6.06294 6.06294 1.25 12 1.25C13.8587 1.25 15.6084 1.72222 17.1338 2.55273L18.1572 1.5293C18.3335 1.35665 18.5746 1.25002 18.8408 1.25ZM12 10.25C12.9665 10.25 13.75 11.0335 13.75 12C13.75 12.9665 12.9665 13.75 12 13.75C11.0335 13.75 10.25 12.9665 10.25 12C10.25 11.0335 11.0335 10.25 12 10.25Z" fill="currentColor" />
</svg>