<svg xmlns="http://www.w3.org/2000/svg" width="24" height="24" viewBox="0 0 24 24" fill="none">
    <path opacity="0.4" d="M3.68337 1.75C4.38676 1.75 4.9865 2.25791 5.09841 2.94922C5.09934 2.95494 5.10018 2.96111 5.10134 2.9668L6.50173 9.7959V12C6.50177 13.1628 7.44979 14.1064 8.6199 14.1064C9.45195 14.1064 10.1719 13.6292 10.5183 12.9355C10.9009 13.3121 11.4276 13.5449 12.0086 13.5449C12.8405 13.5448 13.5607 13.0677 13.907 12.374C14.2895 12.7503 14.8156 12.9823 15.3963 12.9824C15.883 12.9824 16.4957 12.7714 16.741 12.666C16.5758 12.8308 16.5097 13.1007 16.7918 13.3799C16.9577 13.5439 17.2262 13.5427 17.3914 13.3779L19.2215 11.5527C19.8455 10.9302 20.8729 10.9869 21.4246 11.6748C21.8462 12.2008 21.8591 12.9446 21.4559 13.4844L17.3934 18.6455C17.0124 19.1295 16.7165 19.7177 16.5057 20.3301C16.4504 20.4905 16.3768 20.7021 16.2977 20.9258C16.0719 21.564 15.9585 21.883 15.699 22.0664C15.4396 22.2498 15.0993 22.25 14.4187 22.25H7.86599C7.2336 22.25 6.91752 22.2497 6.66677 22.084C6.41602 21.9183 6.29379 21.6331 6.05056 21.0625C5.93463 20.7905 5.82451 20.525 5.75076 20.332C5.63424 20.0272 5.30869 19.2741 5.17849 18.9746C4.98999 18.5266 4.67751 17.5215 4.67751 17.5215C4.67308 17.5064 4.50967 16.9498 4.42361 16.502C4.33803 16.0565 4.25846 15.5486 4.18923 15.0674C4.12011 14.5869 4.02899 13.6373 3.95486 13.2402L2.26345 3.36914C2.14583 2.51305 2.8147 1.75 3.68337 1.75ZM8.6199 8.48926C9.32098 8.48926 9.89016 9.05489 9.8904 9.75293V12C9.89037 12.6982 9.3211 13.2637 8.6199 13.2637C7.91871 13.2636 7.34943 12.6982 7.34939 12V9.75293C7.34964 9.0549 7.91884 8.48929 8.6199 8.48926ZM12.0086 7.92773C12.7057 7.92783 13.2725 8.48711 13.2791 9.17969L13.2781 11.4385C13.2781 12.1365 12.7096 12.702 12.0086 12.7021C11.3074 12.7021 10.7381 12.1366 10.7381 11.4385V9.19141C10.7382 8.49331 11.3074 7.92773 12.0086 7.92773ZM15.3973 7.36719C16.0983 7.36741 16.6668 7.93277 16.6668 8.63086V10.877C16.6666 11.5751 16.0974 12.1406 15.3963 12.1406C14.6954 12.1405 14.1271 11.5748 14.1268 10.877V8.62988C14.1273 7.93207 14.6963 7.36719 15.3973 7.36719Z" fill="currentColor" />
    <path d="M8.62012 8.48926C9.32125 8.48937 9.89062 9.05572 9.89062 9.75391V12C9.89061 12.6982 9.32124 13.2636 8.62012 13.2637C7.9189 13.2637 7.34962 12.6982 7.34961 12V9.75391C7.34961 9.05565 7.91889 8.48926 8.62012 8.48926ZM12.0088 7.92773C12.7057 7.92797 13.2718 8.4872 13.2783 9.17969V11.4385C13.2783 12.1366 12.709 12.7021 12.0078 12.7021C11.3068 12.7019 10.7383 12.1365 10.7383 11.4385V9.19141C10.7385 8.49333 11.3077 7.92773 12.0088 7.92773ZM15.3965 7.36719C16.0977 7.36719 16.667 7.93263 16.667 8.63086V10.8769C16.6669 11.5751 16.0976 12.1406 15.3965 12.1406C14.6955 12.1406 14.1263 11.5749 14.126 10.8769V9.19922L14.127 8.62988C14.1275 7.93219 14.6957 7.36735 15.3965 7.36719Z" fill="currentColor" />
</svg>