<svg xmlns="http://www.w3.org/2000/svg" width="24" height="24" viewBox="0 0 24 24" fill="none">
    <path opacity="0.4" d="M22.2577 11.9999V12.0525C22.2577 13.3632 22.2577 14.5057 22.2192 15.4999C22.1932 16.1689 22.1497 16.7708 22.0771 17.3115C22.0685 17.3749 22.0596 17.4377 22.0502 17.4999C21.8553 18.7883 21.4651 19.82 20.6464 20.6386C19.7882 21.4968 18.6959 21.8842 17.3193 22.0693C17.0627 22.1038 16.7924 22.1317 16.5077 22.1542C15.9072 22.2019 15.2425 22.2258 14.5077 22.2378C13.7656 22.2499 12.9519 22.2499 12.0604 22.2499H12.0077H11.9551C11.0636 22.2499 10.2499 22.2499 9.50774 22.2378C8.77294 22.2258 8.1083 22.2019 7.50774 22.1542C7.22304 22.1317 6.95275 22.1038 6.69621 22.0693C5.31956 21.8842 4.22726 21.4968 3.36906 20.6386C2.55041 19.82 2.16018 18.7883 1.9653 17.4999C1.95589 17.4377 1.94693 17.3749 1.9384 17.3115C1.86572 16.7707 1.82228 16.1689 1.79631 15.4999C1.75772 14.5057 1.75773 13.3632 1.75774 12.0525V11.9999V11.9474C1.75773 11.6212 1.75773 11.3055 1.75833 10.9999C1.75973 10.2783 1.76444 9.61293 1.7803 8.99994C1.80288 8.12724 1.84805 7.36061 1.9384 6.68842C2.12349 5.31176 2.51087 4.21947 3.36906 3.36127C4.22726 2.50307 5.31956 2.11569 6.69621 1.9306C8.0405 1.74992 9.7625 1.74993 11.9551 1.74994H12.0077H12.0603C14.253 1.74993 15.975 1.74992 17.3193 1.9306C18.6959 2.11569 19.7882 2.50307 20.6464 3.36127C21.5046 4.21947 21.892 5.31176 22.0771 6.68842C22.1674 7.36061 22.2126 8.12724 22.2352 8.99994C22.251 9.61293 22.2557 10.2783 22.2571 10.9999C22.2577 11.3055 22.2577 11.6212 22.2577 11.9473V11.9999Z" fill="currentColor" />
    <path fill-rule="evenodd" clip-rule="evenodd" d="M1.75832 10.9999H7.50773V15.4999H1.79631C1.82228 16.1689 1.86572 16.7707 1.9384 17.3115C1.94693 17.3749 1.95588 17.4377 1.9653 17.4999H7.50773L7.50774 22.1542C8.10829 22.2019 8.77294 22.2258 9.50774 22.2378V17.4999H14.5077L14.5077 22.2378C15.2425 22.2258 15.9072 22.2019 16.5077 22.1542V17.4999H22.0502C22.0596 17.4377 22.0685 17.3749 22.0771 17.3115C22.1497 16.7708 22.1932 16.1689 22.2192 15.4999H16.5077V10.9999H22.2571C22.2557 10.2783 22.251 9.61293 22.2352 8.99994H15.5077H8.50773H1.7803C1.76444 9.61293 1.75972 10.2783 1.75832 10.9999ZM9.50773 10.9999H14.5077V15.4999H9.50773V10.9999Z" fill="currentColor" />
</svg>