<svg xmlns="http://www.w3.org/2000/svg" width="24" height="24" viewBox="0 0 24 24" fill="none">
    <path opacity="0.4" d="M21.7583 11.1836C21.7582 14.2394 20.3786 16.6627 18.7114 18.4688C17.0494 20.2692 15.0692 21.4939 13.7641 22.1826L13.7005 22.2162C13.145 22.5099 12.6909 22.75 12.0083 22.75C11.3256 22.75 10.8715 22.5099 10.316 22.2162L10.2524 22.1826C8.94739 21.4939 6.96719 20.2692 5.30515 18.4688C3.63796 16.6627 2.25835 14.2394 2.25827 11.1836V8.28027V8.23894C2.25825 7.45415 2.25824 6.80564 2.31296 6.28906C2.36966 5.75403 2.49316 5.25768 2.81394 4.83301C3.14522 4.39452 3.63742 4.1333 4.18015 3.92285C4.71411 3.71581 5.41757 3.51587 6.28565 3.26914L6.353 3.25C7.56129 2.9065 8.62837 2.49119 9.4819 2.1123C10.0728 1.85002 10.5458 1.64044 10.9233 1.49805C11.2916 1.35913 11.6537 1.25 12.0083 1.25C12.3629 1.25 12.7249 1.35913 13.0932 1.49805C13.4626 1.63738 13.9232 1.84184 14.4964 2.09632L14.5346 2.11328C15.3882 2.49217 16.4553 2.90651 17.6635 3.25L17.7309 3.26914C18.599 3.51587 19.3024 3.71581 19.8364 3.92285C20.3791 4.1333 20.8713 4.39452 21.2026 4.83301C21.5234 5.25767 21.6469 5.75403 21.7036 6.28906C21.7583 6.80562 21.7583 7.45408 21.7583 8.23882V8.28027V11.1836Z" fill="currentColor" />
    <path d="M8.00827 10C8.56055 10 9.00827 10.4477 9.00827 11C9.00827 11.5523 8.56055 12 8.00827 12C7.45599 12 7.00827 11.5523 7.00827 11C7.00827 10.4477 7.45598 10 8.00827 10ZM12.1108 10.0049C12.6153 10.0559 13.0092 10.4821 13.0092 11C13.0092 11.5522 12.5614 11.9999 12.0092 12C11.4916 12 11.0655 11.6067 11.0141 11.1025L11.0092 11L11.0141 10.8975C11.0655 10.3933 11.4916 10 12.0092 10L12.1108 10.0049ZM16.0083 10C16.5606 10 17.0083 10.4477 17.0083 11C17.0083 11.5523 16.5606 12 16.0083 12C15.456 12 15.0083 11.5523 15.0083 11C15.0083 10.4477 15.456 10 16.0083 10Z" fill="currentColor" />
</svg>