<svg xmlns="http://www.w3.org/2000/svg" width="24" height="24" viewBox="0 0 24 24" fill="none">
    <path opacity="0.4" d="M21.7578 11.1836C21.7577 14.2394 20.3781 16.6627 18.7109 18.4688C17.0489 20.2692 15.0687 21.4939 13.7637 22.1826L13.7 22.2162C13.1446 22.5099 12.6904 22.75 12.0078 22.75C11.3252 22.75 10.871 22.5099 10.3156 22.2162L10.252 22.1826C8.94693 21.4939 6.96673 20.2692 5.30469 18.4688C3.6375 16.6627 2.25789 14.2394 2.25781 11.1836V8.28027V8.23894C2.2578 7.45415 2.25778 6.80564 2.3125 6.28906C2.36921 5.75403 2.4927 5.25768 2.81348 4.83301C3.14476 4.39452 3.63696 4.1333 4.17969 3.92285C4.71365 3.71581 5.41711 3.51587 6.28519 3.26914L6.35254 3.25C7.56083 2.9065 8.62792 2.49119 9.48145 2.1123C10.0723 1.85002 10.5454 1.64044 10.9229 1.49805C11.2912 1.35913 11.6532 1.25 12.0078 1.25C12.3624 1.25 12.7245 1.35913 13.0928 1.49805C13.4622 1.63738 13.9227 1.84184 14.496 2.09632L14.5342 2.11328C15.3877 2.49217 16.4548 2.90651 17.6631 3.25L17.7304 3.26914C18.5985 3.51587 19.302 3.71581 19.8359 3.92285C20.3787 4.1333 20.8709 4.39452 21.2022 4.83301C21.5229 5.25767 21.6464 5.75403 21.7031 6.28906C21.7578 6.80562 21.7578 7.45408 21.7578 8.23882V8.28027V11.1836Z" fill="currentColor" />
    <path d="M16.4551 8.18061C16.2786 7.65734 15.7117 7.37627 15.1885 7.55268C14.4032 7.81754 13.6554 8.32107 13.0039 8.86518C12.343 9.41718 11.7265 10.0569 11.2041 10.6533C10.853 11.0541 10.5399 11.4429 10.2773 11.7812C10.0446 11.5307 9.81443 11.3392 9.59082 11.1972C9.34048 11.0383 9.11123 10.9463 8.9209 10.8945C8.82636 10.8687 8.74266 10.8535 8.67285 10.8447C8.63807 10.8403 8.60669 10.8376 8.5791 10.8359C8.56548 10.835 8.55278 10.8343 8.54102 10.8339C8.53787 10.8337 8.52632 10.833 8.52344 10.8329H8.50781C7.95564 10.8329 7.50799 11.2808 7.50781 11.8329C7.50781 12.3499 7.90018 12.7748 8.40332 12.8271C8.41926 12.8326 8.45923 12.848 8.51855 12.8857C8.67081 12.9824 8.99879 13.2538 9.37207 13.9648C9.53605 14.2771 9.8528 14.4804 10.2051 14.499C10.5573 14.5174 10.894 14.3489 11.0898 14.0556L11.0947 14.0468L11.1152 14.0165C11.1341 13.9889 11.1632 13.9468 11.2012 13.8925C11.2774 13.7836 11.3907 13.6252 11.5342 13.4316C11.8219 13.0433 12.2297 12.5188 12.709 11.9716C13.1902 11.4223 13.7312 10.8638 14.2861 10.4003C14.8506 9.92887 15.3771 9.59903 15.8271 9.44721C16.3504 9.27071 16.6315 8.70388 16.4551 8.18061Z" fill="currentColor" />
</svg>