<svg xmlns="http://www.w3.org/2000/svg" width="24" height="24" viewBox="0 0 24 24" fill="none">
    <path opacity="0.4" fill-rule="evenodd" clip-rule="evenodd" d="M11.0127 22.0005V20.9393C11.3395 20.9752 11.6715 20.9937 12.0078 20.9937C12.3475 20.9937 12.6828 20.9748 13.0127 20.9382V22.0005C13.0125 22.5526 12.5648 23.0005 12.0127 23.0005C11.4606 23.0004 11.0129 22.5525 11.0127 22.0005ZM3.00781 11.9937C3.00781 12.3317 3.02645 12.6653 3.06274 12.9937H2.00781C1.45558 12.9936 1.00789 12.5459 1.00781 11.9937C1.00782 11.4414 1.45554 10.9937 2.00781 10.9937H3.06274C3.02645 11.322 3.00781 11.6556 3.00781 11.9937ZM12.0078 2.99365C11.6712 2.99365 11.339 3.01213 11.012 3.04812L11.0127 1.99854C11.0132 1.44649 11.4606 0.999298 12.0127 0.999512C12.565 0.999867 13.0131 1.4482 13.0127 2.00049L13.012 3.04904C12.6823 3.01244 12.3472 2.99365 12.0078 2.99365ZM21.0078 11.9937C21.0078 11.6556 20.9892 11.322 20.9529 10.9937H22.0078C22.5601 10.9937 23.0078 11.4414 23.0078 11.9937C23.0077 12.5459 22.56 12.9936 22.0078 12.9937H20.9529C20.9892 12.6653 21.0078 12.3317 21.0078 11.9937Z" fill="currentColor" />
    <path opacity="0.4" fill-rule="evenodd" clip-rule="evenodd" d="M5.6504 4.2174L6.3925 4.95998C5.8702 5.3775 5.39542 5.85197 4.97758 6.37401L4.23536 5.63146C3.84495 5.24084 3.84572 4.60782 4.23633 4.2174C4.62697 3.82708 5.26001 3.82681 5.6504 4.2174ZM4.2334 18.3688L4.98157 17.6185C5.39966 18.1401 5.87461 18.6141 6.39704 19.0312L5.64942 19.7809C5.25944 20.1719 4.62642 20.1728 4.23536 19.7828C3.84431 19.3928 3.84343 18.7598 4.2334 18.3688ZM18.3779 19.774L17.6276 19.024C18.1496 18.6062 18.6241 18.1314 19.0416 17.6091L19.792 18.359C20.1826 18.7494 20.1823 19.3824 19.792 19.7731C19.4016 20.1637 18.7686 20.1644 18.3779 19.774ZM19.79 5.64025L19.0452 6.38299C18.6282 5.86057 18.1542 5.38561 17.6326 4.96753L18.3779 4.22424C18.769 3.83427 19.402 3.83515 19.792 4.22619C20.182 4.61726 20.1811 5.25027 19.79 5.64025Z" fill="currentColor" />
    <path fill-rule="evenodd" clip-rule="evenodd" d="M13.012 3.04904C12.6823 3.01244 12.3472 2.99365 12.0078 2.99365C11.6712 2.99365 11.339 3.01213 11.012 3.04812C9.27555 3.23926 7.68786 3.92437 6.39249 4.95986C5.87019 5.37738 5.39541 5.85186 4.97758 6.37389C3.94092 7.66904 3.25473 9.25687 3.06274 10.9937C3.02645 11.322 3.00781 11.6556 3.00781 11.9937C3.00781 12.3317 3.02645 12.6653 3.06274 12.9937C3.25498 14.7327 3.94269 16.3223 4.98157 17.6184C5.39965 18.14 5.87461 18.614 6.39703 19.0311C7.69175 20.0647 9.27802 20.7485 11.0127 20.9393C11.3395 20.9752 11.6715 20.9937 12.0078 20.9937C12.3475 20.9937 12.6828 20.9748 13.0127 20.9382C14.7476 20.7454 16.3336 20.0596 17.6276 19.0239C18.1496 18.6061 18.6241 18.1313 19.0416 17.609C20.0763 16.3146 20.7611 14.7284 20.9529 12.9937C20.9892 12.6653 21.0078 12.3317 21.0078 11.9937C21.0078 11.6556 20.9892 11.322 20.9529 10.9937C20.7613 9.26089 20.0779 7.67638 19.0452 6.38288C18.6282 5.86045 18.1541 5.3855 17.6326 4.96741C16.3375 3.92936 14.7494 3.24191 13.012 3.04904ZM17.6156 16.1839C18.3011 15.2681 18.7674 14.1787 18.9369 12.9937C18.9836 12.667 19.0078 12.3332 19.0078 11.9937C19.0078 11.6541 18.9836 11.3203 18.9369 10.9937C18.7676 9.80983 18.3021 8.72157 17.6178 7.80633C17.2168 7.26993 16.7407 6.79296 16.205 6.39102C15.2884 5.70328 14.1976 5.2352 13.0106 5.06493C12.6831 5.01796 12.3483 4.99365 12.0078 4.99365C11.6692 4.99365 11.3363 5.01769 11.0106 5.06415C9.82441 5.23333 8.73411 5.69987 7.81755 6.38584C7.28127 6.7872 6.80448 7.26369 6.40277 7.79969C5.71581 8.71631 5.24844 9.80697 5.0787 10.9937C5.03198 11.3203 5.00781 11.6541 5.00781 11.9937C5.00781 12.3332 5.03198 12.667 5.0787 12.9937C5.24864 14.1817 5.71691 15.2736 6.40518 16.1908C6.80712 16.7265 7.28408 17.2026 7.82048 17.6037C8.73698 18.2888 9.82699 18.7547 11.0127 18.9235C11.3377 18.9697 11.67 18.9937 12.0078 18.9937C12.349 18.9937 12.6845 18.9692 13.0127 18.9221C14.1975 18.7517 15.2864 18.2847 16.2018 17.5987C16.7378 17.197 17.2143 16.7202 17.6156 16.1839Z" fill="currentColor" />
    <path opacity="0.4" fill-rule="evenodd" clip-rule="evenodd" d="M11.0084 8.11951L11.0106 5.06415C11.3363 5.01769 11.6692 4.99365 12.0078 4.99365C12.3483 4.99365 12.6831 5.01796 13.0106 5.06493L13.0084 8.11983C13.3759 8.21447 13.7229 8.36001 14.0415 8.5485L16.205 6.39102C16.7407 6.79296 17.2168 7.26993 17.6178 7.80633L15.4549 9.96323C15.6426 10.2811 15.7875 10.6272 15.8818 10.9937H18.9369C18.9836 11.3203 19.0078 11.6541 19.0078 11.9937C19.0078 12.3332 18.9836 12.667 18.9369 12.9937H15.8818C15.7875 13.3602 15.6425 13.7064 15.4547 14.0244L17.6156 16.1839C17.2143 16.7202 16.7378 17.197 16.2018 17.5987L14.0412 15.439C13.7239 15.6267 13.3784 15.7717 13.0127 15.8664V18.9221C12.6845 18.9692 12.349 18.9937 12.0078 18.9937C11.67 18.9937 11.3377 18.9697 11.0127 18.9235V15.8689C10.6445 15.7746 10.2967 15.6292 9.9774 15.4408L7.82048 17.6037C7.28408 17.2026 6.80712 16.7265 6.40518 16.1908L8.56266 14.0274C8.37407 13.7086 8.22847 13.3613 8.13383 12.9937H5.0787C5.03198 12.667 5.00781 12.3332 5.00781 11.9937C5.00781 11.6541 5.03198 11.3203 5.0787 10.9937H8.13383C8.22843 10.6261 8.37396 10.279 8.56245 9.9603L6.40277 7.79969C6.80448 7.26369 7.28127 6.7872 7.81755 6.38584L9.97707 8.54675C10.2952 8.3589 10.6416 8.21385 11.0084 8.11951ZM10.0078 11.9937C10.0078 10.8891 10.9032 9.99365 12.0078 9.99365C13.1124 9.99365 14.0078 10.8891 14.0078 11.9937C14.0078 13.0982 13.1124 13.9937 12.0078 13.9937C10.9032 13.9937 10.0078 13.0982 10.0078 11.9937Z" fill="currentColor" />
</svg>