<svg xmlns="http://www.w3.org/2000/svg" width="24" height="24" viewBox="0 0 24 24" fill="none">
    <path d="M18.5078 19.375C18.9146 19.375 19.2854 19.4814 19.5889 19.5928C19.8832 19.7008 20.2014 19.8489 20.4541 19.96C21.005 20.2021 21.4798 20.375 22.0078 20.375C22.5601 20.375 23.0078 20.8227 23.0078 21.375C23.0078 21.9273 22.5601 22.375 22.0078 22.375C21.036 22.375 20.2359 22.0478 19.6494 21.79C19.3333 21.6511 19.116 21.5492 18.8994 21.4697C18.6923 21.3937 18.5758 21.375 18.5078 21.375C18.4372 21.375 18.3089 21.3961 18.0986 21.4727C17.8912 21.5482 17.6671 21.6529 17.3984 21.7812C17.1482 21.9008 16.8463 22.0478 16.5518 22.1592C16.2684 22.2663 15.9044 22.3752 15.5156 22.374C15.512 22.3741 15.5085 22.374 15.5049 22.374C15.5014 22.374 15.4976 22.375 15.4941 22.375V22.374C15.0929 22.3739 14.7084 22.2783 14.3848 22.1729C14.0536 22.0649 13.7149 21.9223 13.4238 21.8018C12.7703 21.5311 12.3408 21.375 12.0078 21.375C11.6748 21.375 11.2453 21.5311 10.5918 21.8018C10.3007 21.9223 9.96207 22.0649 9.63086 22.1729C9.30697 22.2784 8.92215 22.374 8.52051 22.374C8.51692 22.3741 8.51335 22.374 8.50977 22.374C8.50631 22.374 8.50248 22.375 8.49902 22.375V22.374C8.11066 22.375 7.74699 22.2662 7.46387 22.1592C7.16936 22.0478 6.86743 21.9008 6.61719 21.7812C6.34854 21.6529 6.12441 21.5482 5.91699 21.4727C5.70677 21.3961 5.57845 21.375 5.50781 21.375C5.43987 21.375 5.32335 21.3937 5.11621 21.4697C4.89967 21.5492 4.68232 21.6511 4.36621 21.79C3.77975 22.0478 2.9796 22.375 2.00781 22.375C1.45553 22.375 1.00781 21.9273 1.00781 21.375C1.00781 20.8227 1.45553 20.375 2.00781 20.375C2.53582 20.375 3.01059 20.2021 3.56152 19.96C3.81419 19.8489 4.13241 19.7008 4.42676 19.5928C4.73022 19.4814 5.10098 19.375 5.50781 19.375C5.91186 19.375 6.29089 19.4801 6.60059 19.5928C6.91304 19.7065 7.22221 19.8536 7.47949 19.9766C7.75519 20.1083 7.97244 20.213 8.1709 20.2881C8.37469 20.3651 8.46957 20.3753 8.49414 20.375C8.50142 20.3749 8.50932 20.3749 8.5166 20.375C8.61252 20.3757 8.76774 20.3507 9.01074 20.2715C9.25231 20.1928 9.51205 20.0846 9.82715 19.9541C10.3861 19.7226 11.2014 19.375 12.0078 19.375C12.8142 19.375 13.6295 19.7226 14.1885 19.9541C14.5036 20.0846 14.7633 20.1928 15.0049 20.2715C15.2479 20.3507 15.4031 20.3757 15.499 20.375C15.5063 20.3749 15.5142 20.3749 15.5215 20.375C15.5461 20.3753 15.6409 20.3651 15.8447 20.2881C16.0432 20.213 16.2604 20.1083 16.5361 19.9766C16.7934 19.8536 17.1026 19.7065 17.415 19.5928C17.7247 19.4801 18.1038 19.375 18.5078 19.375Z" fill="currentColor" />
    <path fill-rule="evenodd" clip-rule="evenodd" d="M19.0078 12.9115C18.7614 12.7695 18.4942 12.6211 18.2088 12.4625L18.1458 12.4276L17.0078 11.7952V11.1113C17.0078 10.4897 17.0063 10.0986 16.9756 9.80078C16.9472 9.52622 16.9005 9.41778 16.8584 9.34961C16.8163 9.28149 16.7406 9.19116 16.5078 9.04297C16.2551 8.8822 15.9058 8.70584 15.3496 8.42773L13.3496 7.42773C12.382 6.94393 12.1884 6.875 12.0078 6.875C11.8272 6.875 11.6336 6.94393 10.666 7.42773L8.66602 8.42773C8.1098 8.70584 7.76048 8.8822 7.50781 9.04297C7.27499 9.19116 7.19933 9.28149 7.15723 9.34961C7.11514 9.41778 7.06843 9.52622 7.04004 9.80078C7.00928 10.0986 7.00781 10.4897 7.00781 11.1113V11.795L5.86947 12.4276L5.82057 12.4547C5.52998 12.6162 5.25809 12.7672 5.00781 12.9115V11.1113L5.00781 11.077C5.0078 10.5103 5.00778 10.0107 5.05078 9.59473C5.09704 9.14735 5.19948 8.713 5.45606 8.29785C5.71262 7.88275 6.05514 7.5969 6.43457 7.35547C6.7894 7.12969 7.23914 6.90484 7.74962 6.6496L7.77149 6.63867L9.77149 5.63867C9.82121 5.61381 9.87052 5.58905 9.91947 5.56447C10.6462 5.19948 11.2923 4.875 12.0078 4.875C12.7233 4.875 13.3694 5.19948 14.0962 5.56447C14.1451 5.58905 14.1944 5.61381 14.2441 5.63867L16.2441 6.63867L16.266 6.64962C16.7765 6.90485 17.2262 7.1297 17.5811 7.35547C17.9605 7.5969 18.303 7.88275 18.5596 8.29785C18.8161 8.713 18.9186 9.14735 18.9648 9.59473C19.0078 10.0107 19.0078 10.5103 19.0078 11.077V11.1113V12.9115Z" fill="currentColor" />
    <path opacity="0.4" d="M14.7578 6.37509C14.7578 6.63491 14.6233 6.8761 14.4023 7.01279C14.1814 7.14937 13.9053 7.16203 13.6729 7.04599L12.0078 6.21298L10.3428 7.04599C10.1104 7.16203 9.83427 7.14937 9.61328 7.01279C9.39235 6.8761 9.25781 6.63491 9.25781 6.37509V4.37509L9.25777 4.29722C9.25742 3.91396 9.25712 3.58369 9.33496 3.29306C9.54301 2.5166 10.1493 1.91029 10.9258 1.70224C11.2164 1.6244 11.5467 1.6247 11.9299 1.62505L12.0078 1.62509L12.0857 1.62505C12.4689 1.6247 12.7992 1.6244 13.0898 1.70224C13.8663 1.91029 14.4726 2.5166 14.6807 3.29306C14.7585 3.58369 14.7582 3.91396 14.7579 4.29722L14.7578 4.37509V6.37509Z" fill="currentColor" />
    <path opacity="0.4" d="M17.0078 11.7951L14.3148 10.2986L14.2938 10.2869C13.8406 10.0351 13.4549 9.82086 13.1175 9.67358C12.7603 9.51767 12.4061 9.4129 12.0081 9.41284C11.61 9.41284 11.2551 9.51763 10.8978 9.67358C10.5602 9.82097 10.174 10.0355 9.72048 10.2875L9.70051 10.2986L7.0078 11.7949L5.86945 12.4275L5.82056 12.4547C5.52996 12.6161 5.25808 12.7671 5.0078 12.9115C4.63299 13.1276 4.30614 13.3291 4.03547 13.5291C3.55656 13.8829 3.17064 14.2903 2.98078 14.866C2.79093 15.4417 2.85905 15.9988 3.03352 16.5681C3.19733 17.1026 3.48281 17.7327 3.82455 18.4846C3.88215 18.4617 3.93964 18.4396 3.99608 18.4189C4.32049 18.2998 4.77732 18.1591 5.31159 18.1303C5.3759 18.1268 5.44134 18.1249 5.5078 18.1249C6.12047 18.1249 6.65634 18.2835 7.02831 18.4189L7.05895 18.4301L7.09822 18.4448C7.44663 18.5762 7.77611 18.7337 8.0103 18.8456C8.26896 18.9692 8.43623 19.0476 8.56542 19.0995C8.57163 19.0977 8.57819 19.0959 8.58507 19.094C8.59672 19.0908 8.60972 19.0873 8.62303 19.0829C8.8085 19.0225 9.01857 18.9364 9.34862 18.7997L9.43648 18.7632C9.96542 18.5424 10.966 18.1249 12.0078 18.1249C13.0496 18.1249 14.0502 18.5424 14.5791 18.7632L14.667 18.7997C14.997 18.9364 15.2071 19.0225 15.3926 19.0829C15.406 19.0873 15.4187 19.0909 15.4305 19.0942L15.4492 19.0995C15.5785 19.0475 15.7378 18.9734 15.9971 18.8495L16.0308 18.8334C16.2789 18.715 16.6328 18.5479 16.9873 18.4189C17.3593 18.2835 17.8951 18.1249 18.5078 18.1249C18.5745 18.1249 18.6401 18.1268 18.7046 18.1303C19.2386 18.1592 19.6952 18.2999 20.0195 18.4189C20.0759 18.4396 20.1333 18.4616 20.1908 18.4845C20.5326 17.7326 20.8189 17.1026 20.9827 16.5681C21.1572 15.9988 21.2253 15.4416 21.0355 14.866C20.8456 14.2903 20.4596 13.8829 19.9808 13.5291C19.7101 13.329 19.3829 13.1276 19.0078 12.9114C18.7613 12.7694 18.4942 12.621 18.2087 12.4624L18.1458 12.4275L17.0078 11.7951Z" fill="currentColor" />
</svg>