<svg xmlns="http://www.w3.org/2000/svg" width="24" height="24" viewBox="0 0 24 24" fill="none">
    <path opacity="0.4" d="M20.3006 2.2922C20.6912 1.90167 21.3243 1.90167 21.7149 2.2922C22.1054 2.68272 22.1054 3.31589 21.7149 3.70641L17.8512 7.57007L16.437 6.15585L20.3006 2.2922Z" fill="currentColor" />
    <path d="M14.689 10.837C14.4164 10.7752 13.9827 10.6516 13.6693 10.3382C13.3559 10.0248 13.2322 9.59107 13.1705 9.31852C13.0977 8.99744 13.0576 8.63376 13.035 8.27899C12.9896 7.5652 13.0085 6.76638 13.0368 6.15921L13.0387 6.11791V6.11791C13.047 5.93632 13.0577 5.702 13.0964 5.5091C13.1374 5.3047 13.2782 4.79406 13.8353 4.57837C14.3966 4.36103 14.8472 4.65046 15.0114 4.77167C15.1701 4.88881 15.3367 5.05574 15.4673 5.18655L15.4673 5.18655L15.4967 5.216L17.8512 7.57052L18.7915 8.51086L18.821 8.54028C18.9518 8.67082 19.1187 8.83743 19.2358 8.99614C19.3571 9.16036 19.6465 9.61092 19.4291 10.1723C19.2134 10.7294 18.7028 10.8701 18.4984 10.9111C18.3055 10.9498 18.0712 10.9605 17.8896 10.9688L17.8483 10.9707C17.2411 10.999 16.4423 11.0179 15.7285 10.9725C15.3737 10.9499 15.01 10.9098 14.689 10.837Z" fill="currentColor" />
    <path opacity="0.4" d="M3.71486 2.2922C3.32433 1.90167 2.69117 1.90167 2.30064 2.2922C1.91012 2.68272 1.91012 3.31589 2.30064 3.70641L6.1643 7.57007L7.57851 6.15585L3.71486 2.2922Z" fill="currentColor" />
    <path d="M9.32654 10.837C9.59908 10.7752 10.0328 10.6516 10.3462 10.3382C10.6596 10.0248 10.7833 9.59107 10.845 9.31852C10.9178 8.99744 10.9579 8.63376 10.9805 8.27899C11.0259 7.5652 11.007 6.76638 10.9787 6.15921L10.9768 6.11791V6.11791C10.9685 5.93632 10.9578 5.702 10.9191 5.5091C10.8781 5.3047 10.7373 4.79406 10.1802 4.57837C9.61888 4.36103 9.16832 4.65046 9.0041 4.77167C8.8454 4.88881 8.67879 5.05574 8.54825 5.18655L8.54825 5.18655L8.51883 5.216L7.57854 6.15631L5.224 8.51086L5.19454 8.54028C5.06374 8.67082 4.8968 8.83743 4.77966 8.99614C4.65845 9.16036 4.36903 9.61092 4.58637 10.1723C4.80207 10.7294 5.31271 10.8701 5.51712 10.9111C5.71002 10.9498 5.94433 10.9605 6.12593 10.9688L6.16724 10.9707C6.7744 10.999 7.57322 11.0179 8.28701 10.9725C8.64178 10.9499 9.00546 10.9098 9.32654 10.837Z" fill="currentColor" />
    <path opacity="0.4" d="M3.71486 21.7073C3.32433 22.0978 2.69117 22.0978 2.30064 21.7073C1.91012 21.3168 1.91012 20.6836 2.30064 20.2931L6.1643 16.4294L7.57851 17.8437L3.71486 21.7073Z" fill="currentColor" />
    <path d="M9.32654 13.1625C9.59908 13.2243 10.0328 13.3479 10.3462 13.6613C10.6596 13.9748 10.7833 14.4084 10.845 14.681C10.9178 15.0021 10.9579 15.3658 10.9805 15.7205C11.0259 16.4343 11.007 17.2331 10.9787 17.8403L10.9768 17.8816V17.8816C10.9685 18.0632 10.9578 18.2975 10.9191 18.4904C10.8781 18.6948 10.7373 19.2055 10.1802 19.4211C9.61888 19.6385 9.16832 19.3491 9.0041 19.2278C8.8454 19.1107 8.67879 18.9438 8.54825 18.813L8.54825 18.813L8.51883 18.7835L7.57854 17.8432L5.224 15.4886L5.19454 15.4592C5.06374 15.3287 4.8968 15.1621 4.77966 15.0034C4.65845 14.8392 4.36903 14.3886 4.58637 13.8272C4.80207 13.2701 5.31271 13.1294 5.51712 13.0884C5.71002 13.0497 5.94433 13.039 6.12593 13.0307L6.16724 13.0288C6.7744 13.0005 7.57322 12.9816 8.28701 13.027C8.64178 13.0496 9.00546 13.0898 9.32654 13.1625Z" fill="currentColor" />
    <path opacity="0.4" d="M20.3006 21.7073C20.6912 22.0978 21.3243 22.0978 21.7149 21.7073C22.1054 21.3168 22.1054 20.6836 21.7149 20.2931L17.8512 16.4294L16.437 17.8437L20.3006 21.7073Z" fill="currentColor" />
    <path d="M14.689 13.1625C14.4164 13.2243 13.9827 13.3479 13.6693 13.6613C13.3559 13.9748 13.2322 14.4084 13.1705 14.681C13.0977 15.0021 13.0576 15.3658 13.035 15.7205C12.9896 16.4343 13.0085 17.2331 13.0368 17.8403L13.0387 17.8816V17.8816C13.047 18.0632 13.0577 18.2975 13.0964 18.4904C13.1374 18.6948 13.2782 19.2055 13.8353 19.4211C14.3966 19.6385 14.8472 19.3491 15.0114 19.2278C15.1701 19.1107 15.3367 18.9438 15.4673 18.813L15.4673 18.813L15.4967 18.7835L17.8512 16.429L18.7915 15.4886L18.821 15.4592C18.9518 15.3287 19.1187 15.1621 19.2358 15.0034C19.3571 14.8392 19.6465 14.3886 19.4291 13.8272C19.2134 13.2701 18.7028 13.1294 18.4984 13.0884C18.3055 13.0497 18.0712 13.039 17.8896 13.0307L17.8483 13.0288C17.2411 13.0005 16.4423 12.9816 15.7285 13.027C15.3737 13.0496 15.01 13.0898 14.689 13.1625Z" fill="currentColor" />
</svg>