<svg xmlns="http://www.w3.org/2000/svg" width="24" height="24" viewBox="0 0 24 24" fill="none">
    <path opacity="0.4" d="M16.5178 5.34967C16.1545 5.24954 15.7765 5.24975 15.2961 5.25003L15.219 5.25006H13.258H11.758H10.258H8.75803H8.01779L7.97739 5.25006C7.30678 5.25004 6.74702 5.25002 6.29416 5.29596C5.81993 5.34406 5.38006 5.44882 4.98361 5.71295C4.68282 5.91344 4.42402 6.17145 4.22287 6.47174C3.9576 6.86781 3.85223 7.30767 3.80393 7.78131C3.75798 8.23216 3.758 8.78864 3.75803 9.45499V9.50006V9.54512C3.758 10.2115 3.75798 10.768 3.80393 11.2188C3.85223 11.6924 3.9576 12.1323 4.22287 12.5284C4.42402 12.8287 4.68282 13.0867 4.98361 13.2872C5.38003 13.5513 5.82002 13.656 6.29416 13.7042C6.74706 13.7501 7.30654 13.7501 7.97716 13.7501H8.01682H8.75803H10.258H11.758H13.258H15.2199L15.2966 13.7501C15.7769 13.7504 16.1545 13.7506 16.5178 13.6504C16.6768 13.6066 16.832 13.5491 16.9807 13.4776C17.3196 13.3145 17.6033 13.0666 17.9635 12.7518L18.0237 12.6993L18.0564 12.6707C18.6266 12.173 19.0994 11.7604 19.4426 11.3897C19.7999 11.0038 20.0846 10.5933 20.1955 10.0821C20.2786 9.69874 20.2786 9.30138 20.1955 8.91803C20.0846 8.40684 19.7999 7.99636 19.4426 7.61041C19.0994 7.23972 18.6266 6.82711 18.0564 6.32942L18.0237 6.30084L17.9635 6.24828C17.6033 5.93354 17.3196 5.68557 16.9807 5.52252C16.832 5.45102 16.6768 5.39351 16.5178 5.34967Z" fill="currentColor" />
    <path fill-rule="evenodd" clip-rule="evenodd" d="M8.76437 4H10.258H11.758H13.2517C13.2502 3.96602 13.2485 3.9331 13.2463 3.90137C13.2342 3.72385 13.2074 3.52841 13.1252 3.33008C12.9476 2.90132 12.6067 2.56043 12.1779 2.38281C11.9796 2.30066 11.7842 2.27386 11.6067 2.26172C11.4358 2.25006 11.2307 2.25 11.008 2.25C10.7853 2.25 10.5803 2.25006 10.4094 2.26172C10.2319 2.27386 10.0364 2.30066 9.8381 2.38281C9.40935 2.56043 9.06845 2.90132 8.89084 3.33008C8.80868 3.52841 8.78188 3.72384 8.76974 3.90137C8.76758 3.9331 8.76581 3.96602 8.76437 4Z" fill="currentColor" />
    <path fill-rule="evenodd" clip-rule="evenodd" d="M8.75803 15V19.5C8.75803 19.7226 8.75808 19.9278 8.76974 20.0986C8.78188 20.2762 8.80868 20.4716 8.89084 20.6699C9.06845 21.0987 9.40935 21.4396 9.8381 21.6172C10.0364 21.6993 10.2319 21.7261 10.4094 21.7383C10.5803 21.7499 10.7853 21.75 11.008 21.75C11.2307 21.75 11.4358 21.7499 11.6067 21.7383C11.7842 21.7261 11.9796 21.6993 12.1779 21.6172C12.6067 21.4396 12.9476 21.0987 13.1252 20.6699C13.2074 20.4716 13.2342 20.2762 13.2463 20.0986C13.258 19.9277 13.258 19.7227 13.258 19.5V15H8.75803Z" fill="currentColor" />
</svg>