<svg xmlns="http://www.w3.org/2000/svg" width="24" height="24" viewBox="0 0 24 24" fill="none">
    <path d="M3.50891 19.9999V17.9999C3.50891 17.4476 3.95663 16.9999 4.50891 16.9999C5.0612 16.9999 5.50891 17.4476 5.50891 17.9999V19.9999C5.50891 20.5522 5.0612 20.9999 4.50891 20.9999C3.95663 20.9999 3.50891 20.5522 3.50891 19.9999Z" fill="currentColor" />
    <path opacity="0.4" d="M8.50891 20V14C8.50891 13.4477 8.95663 13 9.50891 13C10.0612 13 10.5089 13.4477 10.5089 14V20C10.5088 20.5522 10.0611 21 9.50891 21C8.95672 21 8.50906 20.5522 8.50891 20Z" fill="currentColor" />
    <path d="M13.5089 20.0001V9.00012C13.5089 8.44784 13.9566 8.00012 14.5089 8.00012C15.0612 8.00012 15.5089 8.44784 15.5089 9.00012V20.0001C15.5088 20.5523 15.0611 21.0001 14.5089 21.0001C13.9567 21.0001 13.509 20.5523 13.5089 20.0001Z" fill="currentColor" />
    <path opacity="0.4" d="M18.5089 20V4C18.5089 3.44772 18.9566 3 19.5089 3C20.0612 3 20.5089 3.44772 20.5089 4V20C20.5089 20.5523 20.0612 21 19.5089 21C18.9566 21 18.5089 20.5523 18.5089 20Z" fill="currentColor" />
</svg>