<svg xmlns="http://www.w3.org/2000/svg" width="24" height="24" viewBox="0 0 24 24" fill="none">
    <path opacity="0.4" d="M13.2254 21.1309C13.6366 21.0775 14.0135 21.3681 14.0672 21.7793C14.1206 22.1904 13.8307 22.5672 13.4197 22.6211C12.961 22.6809 12.4927 22.7119 12.0184 22.7119C11.6174 22.7119 11.2197 22.7296 10.8103 22.748L10.782 22.749C10.3676 22.7676 10.0165 22.4467 9.99784 22.0322C9.97939 21.6179 10.3003 21.2667 10.7146 21.248L10.7557 21.2471C11.1561 21.2291 11.5831 21.209 12.0184 21.209C12.4275 21.209 12.8309 21.1823 13.2254 21.1309ZM2.23905 19.9658C2.65161 20.0073 2.9522 20.3754 2.91092 20.7881L2.87772 21.1221L3.2117 21.0879C3.62441 21.0466 3.99256 21.3481 4.03397 21.7607C4.07525 22.1735 3.77391 22.5417 3.36112 22.583L2.11405 22.708C1.88987 22.7304 1.66691 22.6505 1.5076 22.4912C1.34855 22.3319 1.26938 22.1097 1.29178 21.8857L1.41678 20.6387C1.45807 20.2259 1.82626 19.9245 2.23905 19.9658ZM6.95389 20.7139C7.11066 20.6982 7.26869 20.7326 7.40506 20.8115C7.70617 20.9857 8.02482 21.0998 8.36795 21.1719C8.77381 21.2571 9.03397 21.6547 8.94901 22.0605C8.86377 22.4665 8.46536 22.7268 8.05936 22.6416C7.6602 22.5578 7.26323 22.4278 6.87479 22.2314L5.85624 22.334C5.44349 22.3753 5.07531 22.0739 5.03397 21.6611C4.99269 21.2483 5.29403 20.8801 5.70682 20.8389L6.95389 20.7139ZM17.6365 19.3027C17.9654 19.0502 18.4365 19.1126 18.6893 19.4414C18.942 19.7703 18.8805 20.2414 18.5516 20.4941C17.8134 21.0613 16.9995 21.5355 16.1268 21.8975C15.7437 22.0563 15.3043 21.8742 15.1453 21.4912C14.9865 21.1082 15.1677 20.6689 15.5506 20.5098C16.3004 20.1988 17.0013 19.7909 17.6365 19.3027ZM1.93827 15.0508C2.34412 14.9656 2.74248 15.2251 2.82792 15.6309C2.9 15.9742 3.01401 16.2935 3.18827 16.5947C3.26713 16.7311 3.3016 16.8892 3.28592 17.0459L3.16092 18.293C3.11961 18.7057 2.75142 19.0071 2.33866 18.9658C1.92593 18.9245 1.62462 18.5563 1.66581 18.1436L1.76737 17.125C1.57107 16.7367 1.44201 16.3395 1.35819 15.9404C1.27297 15.5346 1.53251 15.1362 1.93827 15.0508ZM20.5467 15.5137C20.7056 15.1305 21.1459 14.9485 21.5291 15.1074C21.912 15.2665 22.0942 15.7058 21.9353 16.0889C21.5734 16.9616 21.0992 17.7756 20.532 18.5137C20.2792 18.8426 19.8073 18.9051 19.4783 18.6523C19.1495 18.3996 19.088 17.9275 19.3406 17.5986C19.8287 16.9635 20.2358 16.2633 20.5467 15.5137ZM21.8172 9.93262C22.2284 9.87909 22.6053 10.1688 22.659 10.5801C22.7188 11.0387 22.7498 11.5062 22.7498 11.9805C22.7498 12.4547 22.7188 12.9223 22.659 13.3809C22.6053 13.7921 22.2284 14.0828 21.8172 14.0293C21.4058 13.9756 21.1161 13.5979 21.1697 13.1865C21.2211 12.7922 21.2469 12.3895 21.2469 11.9805C21.2469 11.5714 21.2212 11.1688 21.1697 10.7744C21.1161 10.3631 21.4058 9.98628 21.8172 9.93262ZM2.22049 9.93262C2.63182 9.98627 2.92252 10.3631 2.86893 10.7744C2.81749 11.1688 2.79082 11.5714 2.79081 11.9805C2.79081 12.4159 2.77171 12.8435 2.7537 13.2441L2.75174 13.2852C2.73314 13.6995 2.38186 14.0204 1.96756 14.002C1.55313 13.9833 1.23216 13.6322 1.25077 13.2178L1.25174 13.1885C1.27014 12.7791 1.28788 12.3815 1.28788 11.9805C1.28789 11.5062 1.31887 11.0387 1.3787 10.5801C1.43237 10.1688 1.80925 9.87912 2.22049 9.93262ZM3.50565 5.44727C3.75841 5.11871 4.22956 5.05715 4.55838 5.30957C4.88732 5.56234 4.94981 6.03434 4.69706 6.36328C4.20888 6.99854 3.80097 7.69841 3.49002 8.44824C3.33112 8.83145 2.89179 9.0134 2.50858 8.85449C2.12558 8.69554 1.9436 8.25614 2.10233 7.87305C2.46426 7.00026 2.9384 6.18543 3.50565 5.44727ZM19.4793 5.30957C19.8081 5.05713 20.2793 5.11871 20.532 5.44727C21.0993 6.18543 21.5734 7.00026 21.9353 7.87305C22.0941 8.25615 21.9121 8.69555 21.5291 8.85449C21.1459 9.0134 20.7066 8.83145 20.5477 8.44824C20.2367 7.69841 19.8288 6.99854 19.3406 6.36328C19.0879 6.03434 19.1504 5.56234 19.4793 5.30957ZM7.91092 2.06445C8.2941 1.90555 8.73343 2.08755 8.89237 2.4707C9.05128 2.85391 8.86933 3.29324 8.48612 3.45215C7.73646 3.76305 7.03629 4.17016 6.40116 4.6582C6.07222 4.91098 5.60023 4.84945 5.34745 4.52051C5.09491 4.19158 5.15727 3.72048 5.48612 3.46777C6.22425 2.90055 7.03817 2.42638 7.91092 2.06445ZM15.1453 2.4707C15.3042 2.08754 15.7436 1.90555 16.1268 2.06445C16.9995 2.42637 17.8134 2.90055 18.5516 3.46777C18.8804 3.72049 18.9428 4.19158 18.6902 4.52051C18.4375 4.84945 17.9655 4.91098 17.6365 4.6582C17.0014 4.17016 16.3012 3.76305 15.5516 3.45215C15.1684 3.29324 14.9864 2.85391 15.1453 2.4707ZM12.0193 1.25C12.4935 1.25002 12.9611 1.281 13.4197 1.34082C13.8309 1.39461 14.1208 1.77137 14.0672 2.18262C14.0135 2.59391 13.6367 2.88361 13.2254 2.83008C12.8311 2.77864 12.4284 2.75197 12.0193 2.75195C11.6101 2.75195 11.2068 2.77862 10.8123 2.83008C10.401 2.88358 10.0242 2.59389 9.97049 2.18262C9.91688 1.77139 10.2068 1.39464 10.618 1.34082C11.0767 1.28098 11.545 1.25 12.0193 1.25Z" fill="currentColor" />
    <path d="M12 4.25C16.2802 4.25 19.75 7.71979 19.75 12C19.75 16.2802 16.2802 19.75 12 19.75C10.6847 19.75 9.46216 19.3681 8.40723 18.8066L5.20605 19.7207C4.94416 19.7955 4.66232 19.7229 4.46973 19.5303C4.27713 19.3377 4.20447 19.0558 4.2793 18.7939L5.19336 15.5928C4.63191 14.5378 4.25 13.3153 4.25 12C4.25 7.7198 7.7198 4.25001 12 4.25Z" fill="currentColor" />
</svg>