<svg xmlns="http://www.w3.org/2000/svg" width="24" height="24" viewBox="0 0 24 24" fill="none">
    <path opacity="0.4" fill-rule="evenodd" clip-rule="evenodd" d="M12.1531 6.89169L12.0638 6.94911C10.7472 7.79551 9.70084 8.46818 8.95731 9.08364C8.20096 9.70974 7.64287 10.3669 7.46373 11.2202C7.35584 11.7341 7.35584 12.266 7.46373 12.7799C7.64287 13.6331 8.20096 14.2903 8.95731 14.9164C9.70083 15.5319 10.7472 16.2046 12.0637 17.0509L12.1531 17.1084C13.5867 18.03 14.722 18.7599 15.6484 19.2075C16.5805 19.6578 17.4666 19.9078 18.3416 19.6402C18.8577 19.4824 19.3303 19.2057 19.7252 18.8333C20.3859 18.21 20.6422 17.3146 20.7627 16.257C20.8828 15.2028 20.8828 13.8137 20.8828 12.0509V11.9492C20.8828 10.1863 20.8828 8.79726 20.7627 7.74307C20.6422 6.68543 20.3859 5.79005 19.7252 5.1668C19.3303 4.79438 18.8577 4.51771 18.3416 4.35989C17.4666 4.09233 16.5805 4.34224 15.6484 4.79259C14.722 5.24015 13.5867 5.97005 12.1531 6.89169Z" fill="currentColor" />
    <path fill-rule="evenodd" clip-rule="evenodd" d="M4.13281 3C4.6851 3 5.13281 3.44772 5.13281 4L5.13281 20C5.13281 20.5523 4.6851 21 4.13281 21C3.58053 21 3.13281 20.5523 3.13281 20L3.13281 4C3.13281 3.44772 3.58053 3 4.13281 3Z" fill="currentColor" />
</svg>