<svg xmlns="http://www.w3.org/2000/svg" width="24" height="24" viewBox="0 0 24 24" fill="none">
    <path opacity="0.4" fill-rule="evenodd" clip-rule="evenodd" d="M11.8625 6.89157L11.9518 6.94899C13.2684 7.79539 14.3148 8.46805 15.0583 9.08352C15.8147 9.70962 16.3728 10.3668 16.5519 11.2201C16.6598 11.734 16.6598 12.2659 16.5519 12.7798C16.3728 13.633 15.8147 14.2902 15.0583 14.9163C14.3148 15.5318 13.2685 16.2044 11.9519 17.0508L11.8625 17.1083C10.429 18.0299 9.29361 18.7598 8.36723 19.2074C7.43509 19.6577 6.54905 19.9076 5.67402 19.6401C5.15792 19.4823 4.6853 19.2056 4.29047 18.8332C3.62969 18.2099 3.37344 17.3145 3.25292 16.2569C3.13279 15.2027 3.1328 13.8136 3.13281 12.0508V11.9491C3.1328 10.1862 3.13279 8.79714 3.25292 7.74295C3.37344 6.68531 3.62969 5.78993 4.29047 5.16668C4.6853 4.79426 5.15792 4.51758 5.67402 4.35977C6.54905 4.09221 7.43509 4.34212 8.36723 4.79247C9.29361 5.24003 10.4289 5.96993 11.8625 6.89157Z" fill="currentColor" />
    <path fill-rule="evenodd" clip-rule="evenodd" d="M19.8828 3C19.3305 3 18.8828 3.44772 18.8828 4L18.8828 20C18.8828 20.5523 19.3305 21 19.8828 21C20.4351 21 20.8828 20.5523 20.8828 20L20.8828 4C20.8828 3.44772 20.4351 3 19.8828 3Z" fill="currentColor" />
</svg>