<svg xmlns="http://www.w3.org/2000/svg" width="24" height="24" viewBox="0 0 24 24" fill="none">
    <path opacity="0.4" fill-rule="evenodd" clip-rule="evenodd" d="M21.017 3.49489C20.0272 2.5004 18.4208 2.5004 17.431 3.49489L8.39532 12.5732C8.57194 12.6477 8.73812 12.7476 8.88805 12.8709L9.03551 13.0047L11.558 15.5398L11.6898 15.6873C11.8093 15.8339 11.9066 15.9958 11.9796 16.1677L21.017 7.08767C22.0047 6.0952 22.0046 4.48744 21.017 3.49489Z" fill="currentColor" />
    <path d="M7.61656 13.666C7.81609 13.666 8.00804 13.7453 8.14879 13.8867L10.6713 16.4219C10.8109 16.5623 10.8889 16.7522 10.889 16.9502L10.889 17.0059C10.8891 17.6776 10.8891 18.2384 10.8431 18.6924C10.7946 19.1711 10.6897 19.6145 10.4242 20.0137C10.2225 20.3169 9.96277 20.5774 9.66051 20.7803C9.26212 21.0477 8.81964 21.1533 8.34215 21.2021C7.88338 21.249 7.31582 21.249 6.63509 21.249H6.60777H6.25328L6.1808 21.249C5.28072 21.2491 4.5287 21.2491 3.9691 21.1748C3.42361 21.1023 2.76311 20.926 2.43785 20.2988C2.39049 20.2075 2.35143 20.1118 2.32066 20.0137C2.11012 19.3414 2.45124 18.7507 2.78551 18.3125C3.12859 17.8628 3.66008 17.3288 4.29672 16.6892L4.34801 16.6377L7.08531 13.8867L7.19957 13.793C7.32207 13.7109 7.46695 13.6661 7.61656 13.666Z" fill="currentColor" />
</svg>