<svg xmlns="http://www.w3.org/2000/svg" width="24" height="24" viewBox="0 0 24 24" fill="none">
    <path opacity="0.4" d="M18.281 17.4951C18.8154 17.4951 19.2522 17.9297 19.238 18.4639C19.2258 18.9192 19.2014 19.3297 19.153 19.6934C19.0501 20.467 18.8229 21.1745 18.2595 21.7441C17.6961 22.3137 16.9963 22.5434 16.2312 22.6475C15.5084 22.7457 14.5989 22.7461 13.5163 22.7461H10.4841C9.40174 22.7461 8.49294 22.7456 7.77027 22.6475C7.00498 22.5434 6.30443 22.3138 5.74097 21.7441C5.17762 21.1745 4.9503 20.467 4.84742 19.6934C4.79906 19.3297 4.77465 18.9192 4.76246 18.4639C4.74827 17.9297 5.18507 17.4951 5.71949 17.4951C6.25228 17.4952 6.68354 17.9272 6.68726 18.46C6.68872 18.681 6.69122 18.8718 6.6941 18.9961H17.3073C17.3102 18.8718 17.3117 18.681 17.3132 18.46C17.3169 17.9273 17.7483 17.4953 18.281 17.4951ZM13.9548 1.24609C14.8464 1.24768 15.6082 1.25908 16.2312 1.34375C16.9963 1.44779 17.6961 1.67847 18.2595 2.24805C18.8228 2.81764 19.0502 3.52526 19.153 4.29883C19.2013 4.66205 19.2258 5.07172 19.238 5.52637C19.2523 6.06123 18.8151 6.49609 18.28 6.49609C17.7473 6.49595 17.3195 6.06473 17.3044 5.53223C17.2936 5.15015 17.2735 4.83168 17.237 4.55762C17.163 4.00096 17.0366 3.77485 16.8923 3.62891C16.7479 3.48296 16.5242 3.35516 15.9734 3.28027C15.5948 3.22882 15.1309 3.2099 14.529 3.20312L14.3151 3.63672C14.1514 3.96768 13.816 4.17676 13.4499 4.17676H10.5505C10.1844 4.17676 9.84907 3.96773 9.68531 3.63672L9.47144 3.20312C8.86956 3.2099 8.40561 3.22883 8.0271 3.28027C7.47647 3.35516 7.2525 3.48298 7.10816 3.62891C6.9639 3.77486 6.83746 4.00109 6.76343 4.55762C6.72698 4.83168 6.70683 5.15015 6.69605 5.53223C6.68096 6.0648 6.25326 6.49607 5.72046 6.49609C5.1854 6.49609 4.74811 6.06124 4.76246 5.52637C4.77465 5.07173 4.79913 4.66205 4.84742 4.29883C4.95028 3.52531 5.17777 2.81762 5.74097 2.24805C6.30443 1.67841 7.00498 1.44777 7.77027 1.34375C8.39314 1.25914 9.15431 1.24767 10.0456 1.24609H13.9548Z" fill="currentColor" />
    <path d="M3.55542 8.16935C3.73606 7.6476 4.30508 7.37073 4.8269 7.55119C4.96872 7.6231 5.44225 7.85824 5.63843 8.02092C6.03372 8.34881 6.49976 8.93438 6.49976 9.809C6.49972 10.654 6.04794 11.2035 5.80347 11.5004C5.53884 11.8235 5.49976 11.9105 5.49976 11.9965C5.49978 12.0824 5.53894 12.1696 5.80347 12.4926C6.04798 12.7895 6.49976 13.339 6.49976 14.184C6.49972 15.0586 6.03372 15.6442 5.63843 15.972C5.44225 16.1347 5.24997 16.2468 5.10815 16.3187C5.03602 16.3553 4.87471 16.4219 4.8269 16.4418C4.30516 16.6222 3.73612 16.3452 3.55542 15.8236C3.37659 15.3068 3.64587 14.7433 4.15796 14.557C4.20364 14.5338 4.30824 14.4776 4.36206 14.433C4.46659 14.3463 4.49973 14.2756 4.49976 14.184C4.49976 14.098 4.46155 14.0109 4.19702 13.6879C3.95256 13.391 3.49979 12.8416 3.49976 11.9965C3.49976 11.1513 3.95255 10.602 4.19702 10.3051C4.46154 9.98213 4.49973 9.89494 4.49976 9.809C4.49976 9.71738 4.46655 9.64669 4.36206 9.55999C4.30824 9.51536 4.20364 9.45913 4.15796 9.43596C3.64583 9.24969 3.37659 8.68621 3.55542 8.16935ZM19.1726 7.55119C19.6945 7.37061 20.2645 7.64746 20.4451 8.16935C20.6239 8.68633 20.3539 9.24981 19.8416 9.43596C19.7958 9.45914 19.6922 9.51539 19.6384 9.55999C19.5338 9.64677 19.4998 9.71732 19.4998 9.809C19.4998 9.89494 19.5389 9.98212 19.8035 10.3051C20.048 10.602 20.4998 11.1515 20.4998 11.9965C20.4997 12.8415 20.0479 13.391 19.8035 13.6879C19.5388 14.011 19.4998 14.098 19.4998 14.184C19.4998 14.2756 19.5338 14.3462 19.6384 14.433C19.6923 14.4776 19.7959 14.5339 19.8416 14.557C20.3539 14.7431 20.6239 15.3066 20.4451 15.8236C20.2644 16.3454 19.6945 16.6223 19.1726 16.4418C19.1245 16.4218 18.9633 16.3552 18.8914 16.3187C18.7496 16.2468 18.5581 16.1346 18.3621 15.972C17.9667 15.6442 17.4998 15.0587 17.4998 14.184C17.4998 13.3388 17.9526 12.7895 18.197 12.4926C18.4615 12.1696 18.4997 12.0824 18.4998 11.9965C18.4998 11.9105 18.4615 11.8234 18.197 11.5004C17.9526 11.2035 17.4998 10.6541 17.4998 9.809C17.4998 8.93419 17.9667 8.34877 18.3621 8.02092C18.5581 7.85834 19.0305 7.62325 19.1726 7.55119Z" fill="currentColor" />
</svg>