<svg xmlns="http://www.w3.org/2000/svg" width="24" height="24" viewBox="0 0 24 24" fill="none">
    <path opacity="0.4" d="M7.27149 17.8213L7.01368 18.75H4.81056C4.21399 18.7501 3.68455 18.7506 3.27052 18.6895C2.82672 18.6239 2.34519 18.4651 2.02345 18.0068C1.70231 17.5493 1.71623 17.0426 1.80372 16.6025C1.87952 16.2213 2.03811 15.764 2.22071 15.25H7.82228L7.27149 17.8213ZM15.2647 18.1504L15.3809 18.75H8.57032L8.72267 18.2002C8.72658 18.186 8.73033 18.1716 8.73341 18.1572L9.35646 15.25H14.6436L15.2647 18.1504ZM21.7793 15.25C21.9619 15.764 22.1205 16.2213 22.1963 16.6025C22.2838 17.0426 22.2976 17.5493 21.9766 18.0068C21.6548 18.4652 21.1724 18.6239 20.7285 18.6895C20.3145 18.7505 19.785 18.7501 19.1885 18.75H16.9082L16.7364 17.8584L16.7334 17.8428L16.1778 15.25H21.7793ZM8.76564 10.8447L8.14357 13.75H2.75392L3.36134 12.043C3.46535 11.7505 3.56294 11.4754 3.67091 11.2539C3.79118 11.0073 3.95445 10.7607 4.22364 10.5703C4.4931 10.3797 4.77999 10.3082 5.05274 10.2773C5.29721 10.2497 5.58834 10.25 5.89747 10.25H8.89259L8.76564 10.8447ZM13.5869 10.25L13.7637 11.1455L14.3223 13.75H9.67774L10.2334 11.1572L10.4258 10.25H13.5869ZM18.1016 10.25C18.4109 10.25 18.7027 10.2497 18.9473 10.2773C19.22 10.3082 19.507 10.3798 19.7764 10.5703C20.0454 10.7607 20.2079 11.0074 20.3282 11.2539C20.4361 11.4754 20.5347 11.7505 20.6387 12.043L21.2461 13.75H15.8565L15.2344 10.8486L15.1162 10.25H18.1016Z" fill="currentColor" />
    <path d="M14.0039 18.75C14.0176 19.3561 14.0758 20.0738 14.2988 20.75H21.75C22.3023 20.75 22.75 21.1977 22.75 21.75C22.75 22.3023 22.3023 22.75 21.75 22.75H2.25C1.69772 22.75 1.25 22.3023 1.25 21.75C1.25 21.1977 1.69772 20.75 2.25 20.75H9.70215C9.92508 20.0739 9.98333 19.356 9.99707 18.75H14.0039ZM12 1.25C12.4142 1.25 12.75 1.58579 12.75 2V2.50879C13.0478 2.5832 13.3286 2.70057 13.585 2.85449L13.9443 2.49512C14.2372 2.20224 14.712 2.20227 15.0049 2.49512C15.2978 2.78801 15.2978 3.26277 15.0049 3.55566L14.6455 3.91504C14.7994 4.17141 14.9168 4.45227 14.9912 4.75H15.5C15.9142 4.75 16.25 5.08579 16.25 5.5C16.25 5.91421 15.9142 6.25 15.5 6.25H14.9912C14.9168 6.54773 14.7994 6.82859 14.6455 7.08496L15.0049 7.44434C15.2978 7.73723 15.2978 8.21199 15.0049 8.50488C14.712 8.79773 14.2372 8.79776 13.9443 8.50488L13.585 8.14551C13.3286 8.29943 13.0478 8.4168 12.75 8.49121V9C12.75 9.41421 12.4142 9.75 12 9.75C11.5858 9.74995 11.25 9.41418 11.25 9V8.49121C10.9523 8.4168 10.6714 8.29941 10.415 8.14551L10.0557 8.50488C9.76277 8.79778 9.28801 8.79778 8.99512 8.50488C8.70227 8.21199 8.70224 7.73721 8.99512 7.44434L9.35449 7.08496C9.20057 6.82858 9.0832 6.54775 9.00879 6.25H8.5C8.08583 6.24995 7.75 5.91418 7.75 5.5C7.75 5.08582 8.08583 4.75005 8.5 4.75H9.00879C9.0832 4.45225 9.20058 4.17142 9.35449 3.91504L8.99512 3.55566C8.70224 3.26279 8.70227 2.78801 8.99512 2.49512C9.28801 2.20222 9.76277 2.20222 10.0557 2.49512L10.415 2.85449C10.6714 2.70059 10.9523 2.58321 11.25 2.50879V2C11.25 1.58582 11.5858 1.25005 12 1.25ZM12 3.91699C11.1256 3.91704 10.417 4.62558 10.417 5.5C10.417 6.37442 11.1256 7.08296 12 7.08301C12.8745 7.08301 13.583 6.37445 13.583 5.5C13.583 5.06201 13.4056 4.66555 13.1182 4.37891C12.8318 4.09339 12.4364 3.91699 12 3.91699Z" fill="currentColor" />
</svg>