<svg xmlns="http://www.w3.org/2000/svg" width="24" height="24" viewBox="0 0 24 24" fill="none">
    <path d="M2.00765 10C2.00765 9.44772 2.45537 9 3.00765 9C3.55994 9 4.00765 9.44772 4.00765 10C4.00765 10.9943 4.01645 11.2953 4.07601 11.5176C4.26095 12.2078 4.79989 12.7467 5.49007 12.9316C5.71235 12.9912 6.0133 13 7.00765 13H12.0077C12.5599 13 13.0077 13.4477 13.0077 14C13.0077 14.5523 12.5599 15 12.0077 15H7.00765C6.14207 15 5.51322 15.0082 4.9725 14.8633C3.59213 14.4934 2.51424 13.4155 2.14437 12.0352C1.99949 11.4944 2.00765 10.8656 2.00765 10Z" fill="currentColor" />
    <path opacity="0.4" d="M20.0077 10C20.0077 9.44772 20.4554 9 21.0077 9C21.5599 9 22.0077 9.44772 22.0077 10C22.0077 10.8656 22.0158 11.4944 21.8709 12.0352C21.5011 13.4155 20.4232 14.4934 19.0428 14.8633C18.5021 15.0082 17.8732 15 17.0077 15H12.0077C11.4554 15 11.0077 14.5523 11.0077 14C11.0077 13.4477 11.4554 13 12.0077 13H17.0077C18.002 13 18.303 12.9912 18.5252 12.9316C19.2154 12.7467 19.7544 12.2078 19.9393 11.5176C19.9989 11.2953 20.0077 10.9943 20.0077 10Z" fill="currentColor" />
</svg>