<svg xmlns="http://www.w3.org/2000/svg" width="24" height="24" viewBox="0 0 24 24" fill="none">
    <path fill-rule="evenodd" clip-rule="evenodd" d="M20.8946 15.5381C20.6395 15.0483 20.0358 14.8582 19.546 15.1133C18.1181 15.8571 16.9525 17.2807 16.1827 18.4034C15.9659 18.7195 15.7733 19.023 15.6075 19.2969C15.4944 19.2011 15.385 19.1149 15.2843 19.0391C15.0692 18.8771 14.8758 18.7494 14.7345 18.6612C14.6635 18.6169 14.6042 18.5823 14.5616 18.5577L14.5459 18.5485C14.532 18.5405 14.5203 18.5336 14.5109 18.5284L14.5004 18.5228L14.4855 18.5137C14.0002 18.2501 13.3926 18.4307 13.129 18.9161C12.8661 19.4006 13.0488 20.0083 13.5323 20.2725L13.5597 20.2881C13.5851 20.3029 13.6252 20.3268 13.6759 20.3584C13.7781 20.4222 13.9218 20.5168 14.0812 20.6368C14.4147 20.8879 14.7549 21.204 14.961 21.5323C15.1548 21.8405 15.5009 22.0186 15.8644 21.9981C16.228 21.9775 16.5544 21.7561 16.712 21.4278C16.7145 21.4226 16.7209 21.4092 16.7247 21.4014C16.7365 21.3776 16.7548 21.3409 16.7794 21.293C16.8289 21.1967 16.9039 21.0548 17.0011 20.8799C17.1961 20.529 17.4801 20.0491 17.8331 19.5342C18.5633 18.4694 19.4979 17.393 20.4698 16.8868C20.9596 16.6316 21.1498 16.0279 20.8946 15.5381Z" fill="currentColor" />
    <path opacity="0.4" d="M12.4601 8.17285L13.8807 12H7.28147L8.68762 8.17871C9.29145 6.53779 9.70988 5.40789 10.0968 4.67676C10.2882 4.31512 10.4328 4.1295 10.5294 4.04102C10.5429 4.02871 10.5547 4.02005 10.5638 4.01342L10.5758 4.0165C10.5844 4.02233 10.595 4.02955 10.6066 4.04004C10.7034 4.12812 10.8484 4.31419 11.0411 4.67578C11.4301 5.40572 11.8517 6.53392 12.4601 8.17285ZM4.94641 18.3457L6.54552 14H14.6231L15.0704 15.2051C15.2627 15.7225 15.838 15.9859 16.3556 15.7939C16.8733 15.6018 17.1375 15.0265 16.9454 14.5088L14.3351 7.47656L14.3012 7.38538C13.7309 5.84877 13.2658 4.59574 12.8068 3.73438C12.3994 2.97003 11.7923 2.11265 10.7745 2.00977L10.5646 2C9.41949 2.00197 8.76042 2.92458 8.32824 3.74121C7.87142 4.60444 7.40965 5.85941 6.84318 7.39895L6.81066 7.4873L3.06945 17.6543C2.87876 18.1725 3.14413 18.7476 3.66223 18.9385C4.18043 19.1292 4.75556 18.8638 4.94641 18.3457Z" fill="currentColor" />
</svg>