<svg xmlns="http://www.w3.org/2000/svg" width="24" height="24" viewBox="0 0 24 24" fill="none">
    <path d="M3.46959 21.5322C3.76249 21.8251 4.23725 21.8251 4.53014 21.5322L11.9999 14.0625L19.4696 21.5312C19.7625 21.8241 20.2373 21.8241 20.5302 21.5312C20.823 21.2383 20.823 20.7636 20.5302 20.4707L13.0604 13.0019L15.7548 10.3086C15.8545 10.4028 15.9493 10.4885 16.0399 10.5644C16.2869 10.7713 16.5569 10.952 16.8895 11.0459C17.2889 11.1585 17.7119 11.1585 18.1112 11.0459C18.4436 10.952 18.7129 10.7713 18.9598 10.5644C19.1935 10.3687 19.4548 10.1076 19.7577 9.80468L22.5302 7.03221C22.823 6.73932 22.823 6.26455 22.5302 5.97167C22.2372 5.67886 21.7625 5.6788 21.4696 5.97167L18.7196 8.72166C18.3881 9.05315 18.1737 9.26695 17.9969 9.41502C17.8282 9.55632 17.7481 9.59001 17.704 9.60252C17.571 9.64004 17.4298 9.63997 17.2968 9.60252C17.2527 9.59009 17.172 9.5567 17.0028 9.41502C16.8261 9.26695 16.6116 9.05309 16.2802 8.72166C15.9487 8.39018 15.7348 8.17578 15.5868 7.999C15.4455 7.83027 15.4118 7.75014 15.3993 7.70604C15.3618 7.57303 15.3618 7.43183 15.3993 7.29881C15.4117 7.25477 15.4451 7.17402 15.5868 7.00486C15.7349 6.82809 15.9487 6.6137 16.2802 6.28221L19.0302 3.53221C19.323 3.23932 19.323 2.76456 19.0302 2.47167C18.7373 2.17886 18.2625 2.1788 17.9696 2.47167L15.1971 5.24413C14.8942 5.547 14.6331 5.80837 14.4374 6.04198C14.2305 6.28901 14.0498 6.55895 13.9559 6.89158C13.8434 7.29094 13.8433 7.71392 13.9559 8.11327C14.0498 8.44572 14.2305 8.71495 14.4374 8.96189C14.5134 9.05266 14.5988 9.1481 14.6932 9.24802L11.9999 11.9414L9.00963 8.95018C9.43258 8.37106 9.70964 7.70202 9.74596 6.97654C9.79563 5.98178 9.38648 5.00189 8.5194 4.13475C7.66994 3.2853 6.48992 2.64919 5.34166 2.38573C4.22421 2.12939 2.91869 2.18565 2.05163 3.05272C1.18456 3.91979 1.12829 5.22529 1.38463 6.34275C1.6481 7.491 2.2842 8.67103 3.13366 9.52049C4.00079 10.3876 4.98069 10.7967 5.97545 10.747C6.70093 10.7107 7.36996 10.4337 7.94909 10.0107L10.9393 13.0019L3.46959 20.4717C3.17673 20.7645 3.17679 21.2393 3.46959 21.5322ZM16.9696 8.02927C17.2625 8.32218 17.7373 8.32218 18.0302 8.02927L20.5302 5.52928C20.823 5.23639 20.823 4.76163 20.5302 4.46873C20.2373 4.17593 19.7625 4.17586 19.4696 4.46873L16.9696 6.96873C16.6767 7.26159 16.6768 7.73637 16.9696 8.02927Z" fill="currentColor" />
    <path opacity="0.4" d="M13.038 9.1377C12.9256 8.93714 12.825 8.71011 12.7528 8.4541C12.5775 7.83274 12.5775 7.17508 12.7528 6.55371C12.9144 5.98087 13.2169 5.55338 13.4784 5.24121C13.71 4.96469 14.0053 4.67026 14.287 4.38867L16.4579 2.2168C15.0998 1.59708 13.5901 1.25195 11.9999 1.25195C10.5366 1.25195 9.14148 1.54472 7.87 2.07422C8.43059 2.40452 8.95298 2.80173 9.4032 3.25195C10.471 4.31978 11.0646 5.62862 10.994 7.04004C10.9633 7.6539 10.8099 8.22634 10.5731 8.74609L12.0009 10.1748L13.038 9.1377ZM20.4608 18.6338C21.8947 16.807 22.7499 14.5043 22.7499 12.002C22.7499 10.9622 22.6024 9.95685 22.327 9.00586L20.6151 10.7168C20.3335 10.9985 20.0391 11.2938 19.7626 11.5254C19.4504 11.7868 19.0229 12.0894 18.4501 12.251C17.8287 12.4263 17.171 12.4263 16.5497 12.251C16.2937 12.1788 16.0666 12.0782 15.8661 11.9658L14.829 13.0029L20.4608 18.6338ZM9.17273 13.0029L7.74402 11.5752C7.22426 11.8119 6.65182 11.9654 6.03796 11.9961C4.62654 12.0666 3.3177 11.473 2.24988 10.4053C1.99098 10.1464 1.74939 9.86361 1.5282 9.56348C1.34648 10.347 1.24988 11.1632 1.24988 12.002C1.24988 14.505 2.10532 16.8087 3.53992 18.6357L9.17273 13.0029ZM11.9999 22.752C13.9862 22.752 15.8467 22.2128 17.4432 21.2734L12.0009 15.8311L6.5575 21.2744C8.15377 22.2133 10.014 22.752 11.9999 22.752Z" fill="currentColor" />
</svg>