<svg xmlns="http://www.w3.org/2000/svg" width="24" height="24" viewBox="0 0 24 24" fill="none">
    <g opacity="0.4">
        <path fill-rule="evenodd" clip-rule="evenodd" d="M3.00739 2.15487C3.00009 2.15535 2.99379 2.15576 2.9887 2.15618C2.98591 2.15642 2.98147 2.15695 2.97765 2.1574L2.9887 2.15618L3.00739 2.15487ZM2.28914 2.87311C2.28962 2.86581 2.29004 2.85951 2.29046 2.85443L2.28914 2.87311Z" fill="currentColor" />
        <path d="M3.7055 2.12493C4.14606 2.11873 4.75615 2.131 5.43109 2.20599C6.7388 2.35129 8.4696 2.75036 9.60199 3.88275C11.1439 5.42499 11.1441 7.92561 9.60199 9.46771C8.05989 11.0098 5.55926 11.0096 4.01702 9.46771C2.88464 8.33532 2.48557 6.60452 2.34027 5.29681C2.26527 4.62188 2.25301 4.01179 2.25921 3.57122C2.26233 3.35048 2.27061 3.17024 2.27777 3.04388C2.28132 2.98106 2.28492 2.9314 2.28753 2.89642L2.28914 2.87311L2.29046 2.85443L2.29144 2.84271C2.32422 2.48216 2.61709 2.19018 2.97765 2.1574L2.9887 2.15618L3.00739 2.15487L3.0307 2.15325C3.06568 2.15065 3.11534 2.14705 3.17816 2.14349C3.30451 2.13634 3.48476 2.12805 3.7055 2.12493Z" fill="currentColor" />
    </g>
    <g opacity="0.4">
        <path fill-rule="evenodd" clip-rule="evenodd" d="M21.0082 2.15487C21.0155 2.15535 21.0218 2.15576 21.0269 2.15618C21.0297 2.15642 21.0342 2.15695 21.038 2.1574L21.0269 2.15618L21.0082 2.15487ZM21.7265 2.87311C21.726 2.86581 21.7256 2.85951 21.7252 2.85443L21.7265 2.87311Z" fill="currentColor" />
        <path d="M20.3101 2.12493C19.8696 2.11873 19.2595 2.131 18.5845 2.20599C17.2768 2.35129 15.546 2.75036 14.4136 3.88275C12.8718 5.42499 12.8715 7.92561 14.4136 9.46771C15.9557 11.0098 18.4564 11.0096 19.9986 9.46771C21.131 8.33532 21.5301 6.60452 21.6754 5.29681C21.7504 4.62188 21.7626 4.01179 21.7564 3.57122C21.7533 3.35048 21.745 3.17024 21.7379 3.04388C21.7343 2.98106 21.7307 2.9314 21.7281 2.89642L21.7265 2.87311L21.7252 2.85443L21.7242 2.84271C21.6914 2.48216 21.3985 2.19018 21.038 2.1574L21.0269 2.15618L21.0082 2.15487L20.9849 2.15325C20.9499 2.15065 20.9003 2.14705 20.8375 2.14349C20.7111 2.13634 20.5309 2.12805 20.3101 2.12493Z" fill="currentColor" />
    </g>
    <path d="M12.008 15.874C15.6072 15.874 18.8028 17.6039 20.8078 20.2734C21.1394 20.715 21.0501 21.3422 20.6086 21.6738C20.167 22.0054 19.5398 21.9162 19.2082 21.4746C17.5647 19.2864 14.9514 17.874 12.008 17.874C9.06453 17.874 6.45131 19.2864 4.80779 21.4746C4.47614 21.9162 3.849 22.0054 3.4074 21.6738C2.96582 21.3422 2.87658 20.715 3.20818 20.2734C5.21316 17.6039 8.4088 15.874 12.008 15.874Z" fill="currentColor" />
    <path d="M11.0078 16.8739C11.0078 16.047 11.0068 15.5775 11.0439 15.122C11.231 12.8278 12.1331 10.6499 13.623 8.89543C13.9188 8.54715 14.2514 8.21627 14.8359 7.63176L15.8008 6.66692C16.1913 6.27639 16.8243 6.27639 17.2148 6.66692C17.6054 7.05744 17.6054 7.69045 17.2148 8.08098L16.25 9.04582C15.6426 9.65322 15.3783 9.91851 15.1475 10.1904C13.9284 11.6259 13.1901 13.408 13.0371 15.2851C13.0081 15.6406 13.0078 16.0147 13.0078 16.8739C13.0078 17.4262 12.5601 17.8739 12.0078 17.8739C11.4555 17.8739 11.0078 17.4262 11.0078 16.8739Z" fill="currentColor" />
    <path d="M11.0077 16.8739C11.0077 16.0147 11.0074 15.6406 10.9784 15.2851C10.8254 13.408 10.0871 11.6259 8.86809 10.1904C8.63722 9.91851 8.37294 9.65322 7.76555 9.04582L6.80071 8.08098C6.41018 7.69045 6.41018 7.05744 6.80071 6.66692C7.19123 6.27639 7.82424 6.27639 8.21477 6.66692L9.17961 7.63176C9.76413 8.21627 10.0967 8.54715 10.3925 8.89543C11.8825 10.6499 12.7845 12.8278 12.9716 15.122C13.0087 15.5775 13.0077 16.047 13.0077 16.8739C13.0077 17.4262 12.56 17.8739 12.0077 17.8739C11.4555 17.8739 11.0077 17.4262 11.0077 16.8739Z" fill="currentColor" />
</svg>