<svg xmlns="http://www.w3.org/2000/svg" width="24" height="24" viewBox="0 0 24 24" fill="none">
    <path opacity="0.4" d="M12.0611 1.75C14.2518 1.74999 15.9725 1.74998 17.3159 1.93059C18.6925 2.11568 19.7848 2.50272 20.643 3.36091C21.5012 4.21911 21.8882 5.31137 22.0733 6.68802C22.2539 8.03144 22.2539 9.7521 22.2539 11.9428V11.9428V12.0572V12.0572C22.2539 14.2479 22.2539 15.9686 22.0733 17.312C21.8882 18.6886 21.5012 19.7809 20.643 20.6391C19.7848 21.4973 18.6925 21.8843 17.3159 22.0694C15.9725 22.25 14.2518 22.25 12.0611 22.25H12.0611H11.9467H11.9467C9.75601 22.25 8.03534 22.25 6.69193 22.0694C5.31527 21.8843 4.22302 21.4973 3.36482 20.6391C2.50662 19.7809 2.11959 18.6886 1.9345 17.312C1.75388 15.9686 1.75389 14.2479 1.75391 12.0572V11.9428C1.75389 9.75212 1.75388 8.03144 1.9345 6.68802C2.11959 5.31137 2.50662 4.21911 3.36482 3.36091C4.22302 2.50272 5.31527 2.11568 6.69193 1.93059C8.03535 1.74998 9.75603 1.74999 11.9467 1.75H12.0611Z" fill="currentColor" />
    <path d="M12.4901 12.0001C12.4838 12.0166 12.4753 12.0373 12.4638 12.0626C12.4118 12.1778 12.3255 12.3304 12.2016 12.5174C11.9543 12.8906 11.6106 13.321 11.2472 13.7417C10.8874 14.1582 10.5253 14.5457 10.2517 14.8304L9.80335 15.2866C9.40939 15.6735 9.40353 16.3067 9.79046 16.7008C10.1774 17.0948 10.8106 17.1006 11.2046 16.7136L11.6937 16.2162C11.9827 15.9156 12.3705 15.5008 12.7607 15.0491C13.1473 14.6015 13.5536 14.0978 13.8688 13.6222C14.0261 13.3848 14.1742 13.1342 14.2862 12.8866C14.3903 12.6565 14.5039 12.3417 14.5039 12.0001C14.5039 11.6584 14.3903 11.3436 14.2862 11.1135C14.1742 10.8659 14.0261 10.6154 13.8688 10.3779C13.5536 9.90231 13.1473 9.39864 12.7607 8.95105C12.3705 8.49932 11.9827 8.08451 11.6937 7.78386L11.2046 7.2865C10.8106 6.89954 10.1774 6.90529 9.79046 7.29935C9.40353 7.69337 9.40939 8.32658 9.80335 8.71355L10.2517 9.16969C10.5253 9.45435 10.8874 9.8419 11.2472 10.2584C11.6106 10.6791 11.9543 11.1095 12.2016 11.4827C12.3255 11.6697 12.4118 11.8223 12.4638 11.9375C12.4753 11.9628 12.4838 11.9836 12.4901 12.0001Z" fill="currentColor" />
</svg>