<svg xmlns="http://www.w3.org/2000/svg" width="24" height="24" viewBox="0 0 24 24" fill="none">
    <g opacity="0.4">
        <path fill-rule="evenodd" clip-rule="evenodd" d="M22.2539 12.0526C22.2539 12.0526 22.2539 12.0526 22.2539 12.0526V12.0526ZM11.9514 22.25C11.9514 22.25 11.9514 22.25 11.9514 22.25V22.25ZM11.9514 22.25H12.0039H12.0564" fill="currentColor" />
        <path d="M22.2539 12V12.0526C22.2539 14.2453 22.2539 15.9672 22.0732 17.3115C21.8882 18.6882 21.5007 19.7804 20.6426 20.6387C19.7844 21.4968 18.6921 21.8843 17.3154 22.0693C15.9711 22.25 14.2491 22.25 12.0564 22.25H12.0039H11.9514C9.75867 22.25 8.03669 22.25 6.69238 22.0693C5.31573 21.8843 4.22344 21.4968 3.36523 20.6387C2.50705 19.7804 2.11966 18.6882 1.93457 17.3115C1.75389 15.9672 1.75389 14.2453 1.75391 12.0526V12V11.9474C1.75389 9.75476 1.75389 8.03277 1.93457 6.68848C2.11966 5.31182 2.50704 4.21953 3.36523 3.36133C4.22344 2.50313 5.31573 2.11575 6.69238 1.93066C8.03668 1.74998 9.75867 1.74999 11.9513 1.75H12.0039H12.0566C14.2492 1.74999 15.9711 1.74998 17.3154 1.93066C18.6921 2.11575 19.7844 2.50315 20.6426 3.36133C21.5007 4.21953 21.8882 5.31182 22.0732 6.68848C22.2539 8.03278 22.2539 9.7548 22.2539 11.9475V12Z" fill="currentColor" />
    </g>
    <path d="M17.0341 7.48633C17.5864 7.48633 18.0341 7.93404 18.0341 8.48633C18.0341 9.00413 17.6409 9.43029 17.1366 9.48145L17.0341 9.48633H13.7245L13.7235 9.4873C13.6963 9.5258 13.6685 9.57133 13.6239 9.64551C13.6187 9.65733 13.6106 9.67698 13.5985 9.70605C13.5679 9.77949 13.5275 9.88273 13.4765 10.0137C13.3747 10.2749 13.2417 10.6247 13.0878 11.0303C12.7821 11.8357 12.3962 12.8498 12.0311 13.748C11.8226 14.2612 11.5967 14.8847 11.412 15.292C11.316 15.5036 11.1921 15.7502 11.0321 15.9561C10.8955 16.1318 10.5504 16.5137 9.98036 16.5137C9.53143 16.5136 9.18659 16.3113 8.95888 16.1113C8.73981 15.9189 8.58093 15.6877 8.46962 15.5039C8.35501 15.3147 8.25757 15.117 8.18251 14.9629C8.09811 14.7896 8.04766 14.6847 8.00184 14.6045C7.90081 14.4277 7.7674 14.1835 7.61903 13.9346C7.5999 13.9025 7.57949 13.8723 7.56141 13.8428C7.53504 13.856 7.50668 13.8706 7.47743 13.8867C6.9936 14.1525 6.3861 13.9759 6.12001 13.4922C5.85385 13.0083 6.03062 12.3999 6.51454 12.1338C6.79751 11.9782 7.12175 11.838 7.45302 11.7783C7.73981 11.7267 8.21868 11.7058 8.63661 12.0127L8.71962 12.0791L8.83192 12.1875C8.93798 12.3006 9.02377 12.4215 9.07704 12.499C9.16546 12.6278 9.25523 12.7733 9.33681 12.9102C9.49588 13.177 9.66422 13.4819 9.73817 13.6113C9.77666 13.6787 9.81467 13.7532 9.85145 13.8262C9.9436 13.5883 10.048 13.3164 10.1786 12.9951C10.5334 12.122 10.9105 11.1295 11.2177 10.3203C11.3702 9.91853 11.5064 9.55855 11.6122 9.28711C11.6649 9.15178 11.7124 9.03226 11.7518 8.9375C11.7793 8.87157 11.8333 8.74093 11.8934 8.64062C11.978 8.49969 12.154 8.19109 12.4325 7.94531C12.7591 7.65719 13.1792 7.48633 13.6884 7.48633H17.0341Z" fill="currentColor" />
</svg>