<svg xmlns="http://www.w3.org/2000/svg" width="24" height="24" viewBox="0 0 24 24" fill="none">
    <path fill-rule="evenodd" clip-rule="evenodd" d="M17.2539 8.75C17.2539 8.19772 17.7016 7.75 18.2539 7.75H18.7913L18.8285 7.75279C19.7707 7.82328 20.6107 8.00035 21.3148 8.56026C21.5458 8.74393 21.7554 8.95292 21.9396 9.18334C22.5037 9.88868 22.6809 10.7312 22.7512 11.6758C22.7921 12.2266 22.3788 12.7063 21.8281 12.7472C21.2773 12.7882 20.7976 12.3749 20.7567 11.8242C20.696 11.0081 20.5605 10.6611 20.3777 10.4324C20.287 10.3191 20.1838 10.2161 20.07 10.1256C19.8441 9.94599 19.5032 9.81214 18.7156 9.75H18.2539C17.7016 9.75 17.2539 9.30228 17.2539 8.75ZM21.7539 13.25C22.3062 13.25 22.7539 13.6977 22.7539 14.25V16.25C22.7539 16.8023 22.3062 17.25 21.7539 17.25C21.2016 17.25 20.7539 16.8023 20.7539 16.25V14.25C20.7539 13.6977 21.2016 13.25 21.7539 13.25ZM8.75391 17.25C9.30619 17.25 9.75391 17.6977 9.75391 18.25L9.75391 18.7119C9.81587 19.5022 9.95004 19.8423 10.1302 20.0676C10.2208 20.1809 10.324 20.2839 10.4379 20.3744C10.6672 20.5567 11.0151 20.6919 11.8285 20.7528C12.3793 20.794 12.7923 21.2739 12.7511 21.8246C12.7099 22.3754 12.23 22.7884 11.6793 22.7472C10.7371 22.6767 9.89707 22.4996 9.19301 21.9397C8.96205 21.7561 8.75246 21.5471 8.56819 21.3167C8.00414 20.6113 7.82691 19.7688 7.75666 18.8242L7.75391 18.7871L7.75391 18.25C7.75391 17.6977 8.20162 17.25 8.75391 17.25ZM21.8285 17.7528C22.3793 17.794 22.7923 18.2739 22.7511 18.8246C22.6806 19.7668 22.5036 20.6068 21.9436 21.3109C21.76 21.5419 21.551 21.7514 21.3206 21.9357C20.6152 22.4998 19.7727 22.677 18.8281 22.7472C18.2773 22.7882 17.7976 22.3749 17.7567 21.8242C17.7157 21.2734 18.129 20.7937 18.6797 20.7528C19.4958 20.6921 19.8428 20.5566 20.0715 20.3737C20.1848 20.2831 20.2878 20.1799 20.3783 20.066C20.5606 19.8367 20.6958 19.4889 20.7567 18.6754C20.7979 18.1246 21.2778 17.7116 21.8285 17.7528ZM13.2539 21.75C13.2539 21.1977 13.7016 20.75 14.2539 20.75H16.2539C16.8062 20.75 17.2539 21.1977 17.2539 21.75C17.2539 22.3023 16.8062 22.75 16.2539 22.75H14.2539C13.7016 22.75 13.2539 22.3023 13.2539 21.75Z" fill="currentColor" />
    <path opacity="0.4" d="M8.55121 1.25C9.91931 1.24999 11.0114 1.24998 11.8784 1.35043C12.7714 1.45389 13.5206 1.67232 14.1537 2.17722C14.4025 2.37563 14.6283 2.60136 14.8267 2.85017C15.3316 3.48329 15.55 4.23254 15.6535 5.12547C15.7539 5.9925 15.7539 7.0846 15.7539 8.45271L15.7535 9.00081C15.7533 9.23317 15.7532 9.34935 15.7153 9.44104C15.6645 9.56353 15.5672 9.66086 15.4448 9.71163C15.3531 9.74963 15.2369 9.74975 15.0045 9.75C13.7498 9.75135 12.8562 9.76419 12.1677 9.85721C11.4952 9.94805 11.094 10.1069 10.7891 10.35C10.6281 10.4784 10.4821 10.6245 10.3537 10.7855C10.1106 11.0903 9.95179 11.4914 9.861 12.1639C9.76804 12.8524 9.75525 13.7458 9.75391 15.0006C9.75366 15.233 9.75353 15.3492 9.71553 15.4409C9.66477 15.5633 9.56744 15.6606 9.44494 15.7114C9.35326 15.7493 9.23707 15.7494 9.00471 15.7496L8.45662 15.75C7.08851 15.75 5.9964 15.75 5.12937 15.6496C4.23645 15.5461 3.48719 15.3277 2.85408 14.8228C2.60527 14.6244 2.37954 14.3986 2.18112 14.1498C1.67623 13.5167 1.4578 12.7675 1.35434 11.8745C1.25388 11.0075 1.25389 9.91539 1.25391 8.54729V8.4527C1.25389 7.0846 1.25388 5.99249 1.35434 5.12547C1.4578 4.23254 1.67623 3.48329 2.18112 2.85017C2.37954 2.60136 2.60527 2.37563 2.85408 2.17722C3.48719 1.67232 4.23645 1.45389 5.12937 1.35043C5.9964 1.24998 7.08851 1.24999 8.45662 1.25H8.55121Z" fill="currentColor" />
</svg>