<svg xmlns="http://www.w3.org/2000/svg" width="24" height="24" viewBox="0 0 24 24" fill="none">
    <path opacity="0.4" d="M22.2539 12V12.0526C22.2539 14.2452 22.2539 15.9672 22.0732 17.3115C21.8882 18.6882 21.5008 19.7805 20.6426 20.6387C19.7844 21.4969 18.6921 21.8842 17.3154 22.0693C15.9711 22.25 14.2492 22.25 12.0565 22.25H12.0039H11.9513C9.75868 22.25 8.03666 22.25 6.69238 22.0693C5.31573 21.8842 4.22343 21.4969 3.36523 20.6387C2.50704 19.7805 2.11966 18.6882 1.93457 17.3115C1.75389 15.9672 1.75389 14.2452 1.75391 12.0526V12V11.9474C1.75389 9.75476 1.75389 8.03277 1.93457 6.68848C2.11966 5.31182 2.50704 4.21953 3.36523 3.36133C4.22343 2.50313 5.31573 2.11575 6.69238 1.93066C8.03667 1.74998 9.75867 1.74999 11.9513 1.75H12.0039H12.0565C14.2491 1.74999 15.9711 1.74998 17.3154 1.93066C18.6921 2.11575 19.7844 2.50313 20.6426 3.36133C21.5008 4.21953 21.8882 5.31182 22.0732 6.68848C22.2539 8.03276 22.2539 9.75473 22.2539 11.9474V12Z" fill="currentColor" />
    <path d="M15.2968 7.29289C15.6873 6.90237 16.3203 6.90237 16.7109 7.29289C17.1014 7.68342 17.1014 8.31643 16.7109 8.70696L8.71086 16.707C8.32034 17.0975 7.68732 17.0975 7.2968 16.707C6.90628 16.3164 6.90628 15.6834 7.2968 15.2929L15.2968 7.29289Z" fill="currentColor" />
</svg>