<svg xmlns="http://www.w3.org/2000/svg" width="24" height="24" viewBox="0 0 24 24" fill="none">
    <path opacity="0.4" d="M3.25781 14.0288V9.96726C3.25781 8.35644 3.2578 7.08124 3.37695 6.07324C3.49882 5.04232 3.75414 4.1933 4.33594 3.48438C4.53325 3.24397 4.75373 3.02349 4.99414 2.82617C5.70306 2.24437 6.55208 1.98906 7.58301 1.86719C8.59101 1.74804 9.86621 1.74804 11.477 1.74805H12.0578C13.8986 1.74803 15.3565 1.74802 16.4971 1.90137C17.6694 2.05901 18.6179 2.39134 19.3662 3.13965C20.1145 3.88796 20.4468 4.83648 20.6045 6.00879C20.7578 7.14934 20.7578 8.60729 20.7578 10.4481V13.548C20.7578 15.3888 20.7578 16.8468 20.6045 17.9873C20.4468 19.1596 20.1145 20.1081 19.3662 20.8564C18.6179 21.6048 17.6694 21.9371 16.4971 22.0947C15.3565 22.2481 13.8986 22.2481 12.0578 22.248H11.477C9.86621 22.2481 8.59101 22.2481 7.58301 22.1289C6.55208 22.007 5.70306 21.7517 4.99414 21.1699C4.75373 20.9726 4.53325 20.7521 4.33594 20.5117C3.75414 19.8028 3.49882 18.9538 3.37695 17.9229C3.2578 16.9149 3.25781 15.6397 3.25781 14.0288Z" fill="currentColor" />
    <path d="M11.3506 7.19249C10.9059 6.86531 10.2796 6.96081 9.95215 7.40538C9.62497 7.85006 9.72046 8.4764 10.165 8.80382L10.167 8.80479C10.1686 8.80595 10.1706 8.80829 10.1738 8.81065C10.1806 8.81568 10.1914 8.82289 10.2051 8.83311C10.2328 8.85375 10.2743 8.88498 10.3271 8.92491C10.4329 9.00478 10.585 9.12032 10.7676 9.2628C11.1342 9.54891 11.62 9.93859 12.1025 10.3575C12.3485 10.5711 12.5872 10.7881 12.8066 10.9982H4.25781C3.70553 10.9982 3.25781 11.4459 3.25781 11.9982C3.25781 12.5504 3.70553 12.9982 4.25781 12.9982H12.8066C12.5872 13.2082 12.3485 13.4252 12.1025 13.6388C11.62 14.0577 11.1342 14.4474 10.7676 14.7335C10.585 14.876 10.4329 14.9915 10.3271 15.0714C10.2743 15.1113 10.2328 15.1426 10.2051 15.1632C10.1914 15.1734 10.1806 15.1806 10.1738 15.1857C10.1706 15.188 10.1686 15.1904 10.167 15.1915L10.165 15.1925C9.72035 15.52 9.62561 16.1462 9.95312 16.5909C10.2806 17.0354 10.9059 17.131 11.3506 16.8038L11.3525 16.8028C11.3532 16.8024 11.3534 16.8007 11.3545 16.7999C11.3568 16.7982 11.3602 16.7961 11.3643 16.7931C11.3726 16.7869 11.3849 16.7782 11.4004 16.7667C11.4313 16.7437 11.4757 16.7098 11.5322 16.6671C11.6452 16.5818 11.8059 16.4597 11.998 16.3097C12.3814 16.0105 12.8957 15.5978 13.4131 15.1485C13.9256 14.7036 14.4638 14.2027 14.8818 13.7296C15.0897 13.4943 15.2896 13.2427 15.4424 12.9894C15.5616 12.7917 15.7138 12.4952 15.75 12.1495L15.7578 11.9982L15.75 11.8468C15.7138 11.5011 15.5616 11.2047 15.4424 11.0069C15.2896 10.7536 15.0897 10.502 14.8818 10.2667C14.4638 9.79363 13.9256 9.29273 13.4131 8.84776C12.8957 8.39856 12.3814 7.98578 11.998 7.68663C11.8059 7.53666 11.6452 7.41452 11.5322 7.32921C11.4757 7.28654 11.4313 7.25263 11.4004 7.2296C11.3849 7.21808 11.3726 7.2094 11.3643 7.20323C11.3601 7.20018 11.3568 7.1971 11.3545 7.19542C11.3536 7.19476 11.3531 7.19389 11.3525 7.19347L11.3506 7.19249Z" fill="currentColor" />
</svg>