<svg xmlns="http://www.w3.org/2000/svg" width="24" height="24" viewBox="0 0 24 24" fill="none">
    <path opacity="0.4" d="M12.0611 1.75C14.2518 1.74999 15.9725 1.74998 17.3159 1.93059C18.6925 2.11568 19.7848 2.50272 20.643 3.36091C21.5012 4.21911 21.8882 5.31137 22.0733 6.68802C22.2539 8.03144 22.2539 9.7521 22.2539 11.9428V11.9428V12.0572V12.0572C22.2539 14.2479 22.2539 15.9686 22.0733 17.312C21.8882 18.6886 21.5012 19.7809 20.643 20.6391C19.7848 21.4973 18.6925 21.8843 17.3159 22.0694C15.9725 22.25 14.2518 22.25 12.0611 22.25H12.0611H11.9467H11.9467C9.75601 22.25 8.03534 22.25 6.69193 22.0694C5.31527 21.8843 4.22302 21.4973 3.36482 20.6391C2.50662 19.7809 2.11959 18.6886 1.9345 17.312C1.75388 15.9686 1.75389 14.2479 1.75391 12.0572V11.9428C1.75389 9.75212 1.75388 8.03144 1.9345 6.68802C2.11959 5.31137 2.50662 4.21911 3.36482 3.36091C4.22302 2.50272 5.31527 2.11568 6.69193 1.93059C8.03535 1.74998 9.75603 1.74999 11.9467 1.75H12.0611Z" fill="currentColor" />
    <path d="M13.7381 9.0011L10.8282 9.00896L12.5508 10.5184L12.5508 10.5184C12.7224 10.6685 12.9216 10.8429 13.0696 11.0148C13.2465 11.2203 13.4626 11.547 13.4626 12.0005C13.4626 12.454 13.2465 12.7807 13.0696 12.9862C12.9216 13.1581 12.7224 13.3325 12.5508 13.4826L10.8282 14.992L13.7381 14.9999C13.8545 14.998 13.9339 14.9912 13.9909 14.9809C14.0008 14.8847 14.005 14.7418 14.0058 14.4959C14.0076 13.9436 14.4567 13.4973 15.009 13.4991C15.5613 13.5009 16.0076 13.95 16.0058 14.5023C16.005 14.7604 16.0016 15.0222 15.9725 15.2556C15.9416 15.5032 15.8752 15.7822 15.7081 16.0541C15.3511 16.635 14.8102 16.8629 14.3594 16.9467C14.0306 17.0077 13.6636 17.0025 13.44 16.9993L10.7398 16.9981H10.7398C10.2431 16.9982 9.76791 16.9983 9.40587 16.9477C9.08492 16.9028 8.35478 16.7569 8.08526 16.0121C7.81995 15.2789 8.27035 14.6985 8.48279 14.454C8.72386 14.1765 9.08322 13.8618 9.4615 13.5304L9.46151 13.5304L11.2075 12.0005L9.4615 10.4706C9.08323 10.1392 8.72386 9.82445 8.48279 9.54697C8.27035 9.30245 7.81995 8.7221 8.08526 7.98893C8.35478 7.24412 9.08492 7.09817 9.40587 7.05329C9.76792 7.00266 10.2431 7.00275 10.7398 7.00285L13.44 7.00172C13.6636 6.99852 14.0306 6.99325 14.3594 7.05432C14.8102 7.13805 15.3511 7.36602 15.7081 7.94691C15.8752 8.2188 15.9416 8.49781 15.9725 8.74537C16.0016 8.97885 16.005 9.2406 16.0058 9.49871C16.0076 10.051 15.5613 10.5002 15.009 10.5019C14.4567 10.5037 14.0076 10.0574 14.0058 9.50516C14.005 9.2592 14.0008 9.11628 13.9909 9.0201C13.9339 9.00979 13.8545 9.00301 13.7381 9.0011Z" fill="currentColor" />
</svg>