<svg xmlns="http://www.w3.org/2000/svg" width="24" height="24" viewBox="0 0 24 24" fill="none">
    <path opacity="0.4" d="M12.0492 2.25C13.8857 2.24999 15.3253 2.24999 16.4674 2.37373C17.633 2.50001 18.5773 2.76232 19.3837 3.34815C19.8718 3.70281 20.3011 4.13209 20.6558 4.62024C21.2416 5.42656 21.5039 6.37094 21.6302 7.53648C21.7539 8.6786 21.7539 10.2087 21.7539 12.0452V12.0453V12.0453C21.7539 13.8818 21.7539 15.3214 21.6302 16.4635C21.5039 17.6291 21.2416 18.5734 20.6558 19.3798C20.3011 19.8679 19.8718 20.2972 19.3837 20.6518C18.5773 21.2377 17.633 21.5 16.4674 21.6263C15.3253 21.75 13.7952 21.75 11.9587 21.75H11.9586H11.9586C10.1221 21.75 8.6825 21.75 7.54038 21.6263C6.37485 21.5 5.43046 21.2377 4.62414 20.6518C4.136 20.2972 3.70672 19.8679 3.35206 19.3798C2.76623 18.5734 2.50391 17.6291 2.37763 16.4635C2.25389 15.3214 2.2539 13.8818 2.25391 12.0452C2.2539 10.2087 2.25389 8.67861 2.37763 7.53648C2.50391 6.37094 2.76623 5.42656 3.35206 4.62024C3.70672 4.13209 4.136 3.70281 4.62414 3.34815C5.43046 2.76232 6.37485 2.50001 7.54038 2.37373C8.68252 2.24999 10.2126 2.24999 12.0492 2.25Z" fill="currentColor" />
    <path fill-rule="evenodd" clip-rule="evenodd" d="M7.00391 6C7.55619 6 8.00391 6.44772 8.00391 7V14C8.00391 14.5523 7.55619 15 7.00391 15C6.45162 15 6.00391 14.5523 6.00391 14V7C6.00391 6.44772 6.45162 6 7.00391 6ZM12.0039 6C12.5562 6 13.0039 6.44772 13.0039 7V11C13.0039 11.5523 12.5562 12 12.0039 12C11.4516 12 11.0039 11.5523 11.0039 11V7C11.0039 6.44772 11.4516 6 12.0039 6ZM17.0039 6C17.5562 6 18.0039 6.44772 18.0039 7V17C18.0039 17.5523 17.5562 18 17.0039 18C16.4516 18 16.0039 17.5523 16.0039 17V7C16.0039 6.44772 16.4516 6 17.0039 6Z" fill="currentColor" />
</svg>