<svg xmlns="http://www.w3.org/2000/svg" width="24" height="24" viewBox="0 0 24 24" fill="none">
    <path opacity="0.4" d="M22.2539 12.0526V12V11.9474C22.2539 9.75475 22.2539 8.03277 22.0732 6.68848C21.8882 5.31182 21.5008 4.21953 20.6426 3.36133C19.7844 2.50313 18.6921 2.11575 17.3154 1.93066C15.9711 1.74998 14.2491 1.74999 12.0565 1.75H12.0039H11.9513C9.75867 1.74999 8.03667 1.74998 6.69238 1.93066C5.31573 2.11575 4.22343 2.50313 3.36523 3.36133C2.50704 4.21953 2.11966 5.31182 1.93457 6.68848C1.75389 8.03277 1.75389 9.75476 1.75391 11.9474V12V12.0526C1.75389 14.2452 1.75389 15.9672 1.93457 17.3115C2.11966 18.6882 2.50704 19.7805 3.36523 20.6387C4.22343 21.4969 5.31573 21.8842 6.69238 22.0693C8.03667 22.25 9.75866 22.25 11.9513 22.25H12.0039H12.0565C14.2492 22.25 15.9711 22.25 17.3154 22.0693C18.6921 21.8842 19.7844 21.4969 20.6426 20.6387C21.5008 19.7805 21.8882 18.6882 22.0732 17.3115C22.2539 15.9672 22.2539 14.2452 22.2539 12.0526Z" fill="currentColor" />
    <path d="M11.0039 16V13H8.00391C7.45162 13 7.00391 12.5523 7.00391 12C7.00391 11.4477 7.45162 11 8.00391 11H11.0039V8C11.0039 7.44772 11.4516 7 12.0039 7C12.5562 7 13.0039 7.44772 13.0039 8V11H16.0039L16.1064 11.0049C16.6106 11.0562 17.0039 11.4823 17.0039 12C17.0039 12.5177 16.6106 12.9438 16.1064 12.9951L16.0039 13H13.0039V16C13.0039 16.5523 12.5562 17 12.0039 17C11.4516 17 11.0039 16.5523 11.0039 16Z" fill="currentColor" />
</svg>