<svg xmlns="http://www.w3.org/2000/svg" width="24" height="24" viewBox="0 0 24 24" fill="none">
    <path opacity="0.4" d="M21.7539 12.0324V12V11.9676C21.7539 10.1249 21.7539 8.68093 21.6299 7.53613C21.5036 6.37077 21.241 5.42636 20.6553 4.62012C20.3007 4.1322 19.8717 3.70317 19.3838 3.34863C18.5776 2.76287 17.6331 2.50032 16.4678 2.37402C15.323 2.24999 13.879 2.25 12.0363 2.25H12.0039H11.9715C10.1288 2.25 8.68484 2.24999 7.54004 2.37402C6.37467 2.50032 5.43026 2.76287 4.62402 3.34863C4.13611 3.70317 3.70708 4.1322 3.35254 4.62012C2.76677 5.42636 2.50422 6.37077 2.37793 7.53613C2.2539 8.68093 2.2539 10.1249 2.25391 11.9676V12V12.0324C2.2539 13.8751 2.2539 15.3191 2.37793 16.4639C2.50422 17.6292 2.76677 18.5736 3.35254 19.3799C3.70708 19.8678 4.13611 20.2968 4.62402 20.6514C5.43026 21.2371 6.37467 21.4997 7.54004 21.626C8.68483 21.75 10.1288 21.75 11.9715 21.75H12.0039H12.0363C13.879 21.75 15.323 21.75 16.4678 21.626C17.6331 21.4997 18.5776 21.2371 19.3838 20.6514C19.8717 20.2968 20.3007 19.8678 20.6553 19.3799C21.241 18.5736 21.5036 17.6292 21.6299 16.4639C21.7539 15.3191 21.7539 13.8751 21.7539 12.0324Z" fill="currentColor" />
    <path d="M6.74647 6.84705C7.10705 6.42879 7.73929 6.38201 8.1576 6.74256L9.38416 7.80018C9.61962 8.00312 9.87556 8.22079 10.0599 8.42908C10.2576 8.65239 10.5043 9.00699 10.5043 9.50037C10.5043 9.99375 10.2576 10.3483 10.0599 10.5717C9.87556 10.78 9.61962 10.9976 9.38416 11.2006L8.1576 12.2582C7.73929 12.6187 7.10705 12.572 6.74647 12.1537C6.38591 11.7354 6.4327 11.1031 6.85096 10.7426L8.07752 9.68592C8.15849 9.61613 8.22774 9.55446 8.28943 9.50037C8.22774 9.44629 8.15849 9.38461 8.07752 9.31482L6.85096 8.25818C6.4327 7.8976 6.38591 7.26536 6.74647 6.84705Z" fill="currentColor" />
    <path d="M15.5039 11.5C16.0562 11.5 16.5039 11.9477 16.5039 12.5C16.5039 13.0523 16.0562 13.5 15.5039 13.5H11.5039C10.9516 13.5 10.5039 13.0523 10.5039 12.5C10.5039 11.9477 10.9516 11.5 11.5039 11.5H15.5039Z" fill="currentColor" />
</svg>