<svg xmlns="http://www.w3.org/2000/svg" width="24" height="24" viewBox="0 0 24 24" fill="none">
    <path d="M20.0088 11.9985C20.0088 9.84895 20.0072 8.33714 19.8535 7.19385C19.7037 6.07971 19.4264 5.46612 18.9844 5.02393C18.5421 4.58169 17.928 4.30463 16.8135 4.15479C15.6702 4.00108 14.1584 3.99854 12.0088 3.99854C9.85962 3.99854 8.34828 4.00113 7.20509 4.15479C6.09057 4.30463 5.47644 4.58169 5.0342 5.02393C4.64565 5.41255 4.38663 5.93134 4.22755 6.79736C4.06326 7.69205 4.02086 8.86538 4.01173 10.5044C4.0085 11.0565 3.55805 11.5016 3.00588 11.4985C2.45373 11.4953 2.00866 11.0449 2.01173 10.4927C2.02077 8.86968 2.06015 7.52839 2.26076 6.43604C2.46667 5.31505 2.8563 4.37377 3.62013 3.60986C4.49591 2.73409 5.60219 2.35203 6.93849 2.17236C8.24591 1.99662 9.91607 1.99854 12.0088 1.99854C14.1019 1.99854 15.7726 1.99657 17.0801 2.17236C18.4164 2.35203 19.5227 2.73409 20.3985 3.60986C21.2739 4.48551 21.6553 5.59128 21.835 6.92725C22.0108 8.23478 22.0088 9.90549 22.0088 11.9985C22.0088 14.0916 22.0108 15.7623 21.835 17.0698C21.6553 18.4058 21.2739 19.5116 20.3985 20.3872C19.6346 21.1511 18.6933 21.5416 17.5723 21.7476C16.4798 21.9482 15.138 21.9866 13.5147 21.9956C12.9624 21.9987 12.5119 21.5537 12.5088 21.0015C12.5057 20.4492 12.9517 19.9987 13.5039 19.9956C15.143 19.9865 16.3163 19.9441 17.211 19.7798C18.0769 19.6207 18.5958 19.3617 18.9844 18.9731C19.4264 18.531 19.7037 17.9174 19.8535 16.8032C20.0072 15.6599 20.0088 14.1481 20.0088 11.9985Z" fill="currentColor" />
    <path opacity="0.4" d="M12.3008 10.2906C12.6913 9.90005 13.3243 9.90006 13.7148 10.2906C14.1054 10.6811 14.1053 11.3141 13.7148 11.7046L5.43945 19.98C5.76518 19.9931 6.11432 19.9982 6.46582 19.9956C7.1006 19.991 7.71823 19.9656 8.17871 19.941C8.40815 19.9287 8.59728 19.9166 8.72851 19.9077C8.79414 19.9033 8.8456 19.8995 8.87988 19.897C8.89672 19.8958 8.90955 19.8957 8.91796 19.8951C8.92219 19.8947 8.92578 19.8942 8.92773 19.8941H8.92968C9.48029 19.851 9.9618 20.2624 10.0049 20.813C10.0477 21.3634 9.63633 21.8441 9.08593 21.8872H9.08398C9.08322 21.8873 9.08226 21.8881 9.08105 21.8882C9.07829 21.8884 9.07438 21.8888 9.06933 21.8892C9.05921 21.89 9.04429 21.8907 9.02539 21.8921C8.98759 21.8949 8.93276 21.8992 8.86328 21.9038C8.72406 21.9132 8.52533 21.9252 8.28515 21.938C7.80595 21.9637 7.15602 21.9907 6.48046 21.9956C5.81068 22.0005 5.08871 21.9838 4.47558 21.9165C4.17059 21.883 3.8633 21.835 3.59082 21.7593C3.35448 21.6937 2.99083 21.5683 2.71386 21.2915C2.43687 21.0145 2.31176 20.6501 2.24609 20.4136C2.17041 20.1411 2.12138 19.8338 2.08789 19.5288C2.02061 18.9159 2.00391 18.1945 2.00879 17.5249C2.01372 16.8492 2.04076 16.1986 2.0664 15.7193C2.07925 15.4791 2.09217 15.2803 2.10156 15.1411C2.10625 15.0716 2.10954 15.0168 2.1123 14.979C2.11368 14.9601 2.11446 14.9452 2.11523 14.9351C2.11561 14.9301 2.116 14.9261 2.11621 14.9234C2.1163 14.9221 2.11713 14.9212 2.11718 14.9204V14.9185C2.16042 14.3681 2.64189 13.9565 3.19238 13.9995C3.74273 14.0428 4.15434 14.5243 4.11132 15.0747L4.11035 15.0767C4.1102 15.0786 4.11067 15.0822 4.11035 15.0865C4.10971 15.0948 4.10866 15.1076 4.10742 15.1245C4.10491 15.1588 4.1011 15.2103 4.09668 15.2759C4.08781 15.4072 4.07576 15.597 4.06347 15.8267C4.03884 16.2872 4.01342 16.9049 4.00879 17.5396C4.00622 17.8919 4.01022 18.2415 4.02343 18.5679L12.3008 10.2906Z" fill="currentColor" />
</svg>