<svg xmlns="http://www.w3.org/2000/svg" width="24" height="24" viewBox="0 0 24 24" fill="none">
    <path d="M20.0088 11.9961C20.0088 14.1457 20.0072 15.6575 19.8535 16.8008C19.7037 17.9149 19.4264 18.5285 18.9844 18.9707C18.5421 19.4129 17.928 19.69 16.8135 19.8398C15.6702 19.9935 14.1584 19.9961 12.0088 19.9961C9.85962 19.9961 8.34828 19.9935 7.20509 19.8398C6.09057 19.69 5.47644 19.4129 5.0342 18.9707C4.64565 18.5821 4.38663 18.0633 4.22755 17.1973C4.06326 16.3026 4.02086 15.1292 4.01173 13.4902C4.0085 12.9381 3.55805 12.493 3.00588 12.4961C2.45373 12.4993 2.00866 12.9498 2.01173 13.502C2.02077 15.1249 2.06015 16.4662 2.26076 17.5586C2.46667 18.6796 2.8563 19.6209 3.62013 20.3848C4.49591 21.2605 5.60219 21.6426 6.93849 21.8223C8.24591 21.998 9.91607 21.9961 12.0088 21.9961C14.1019 21.9961 15.7726 21.9981 17.0801 21.8223C18.4164 21.6426 19.5227 21.2605 20.3985 20.3848C21.2739 19.5091 21.6553 18.4033 21.835 17.0674C22.0108 15.7598 22.0088 14.0891 22.0088 11.9961C22.0088 9.90304 22.0108 8.23234 21.835 6.9248C21.6553 5.58884 21.2739 4.48307 20.3985 3.60742C19.6346 2.84353 18.6933 2.453 17.5723 2.24707C16.4798 2.0464 15.138 2.00806 13.5147 1.99902C12.9624 1.99596 12.5119 2.4409 12.5088 2.99316C12.5057 3.54543 12.9517 3.99595 13.5039 3.99902C15.143 4.00815 16.3163 4.05051 17.211 4.21484C18.0769 4.37395 18.5958 4.63289 18.9844 5.02148C19.4264 5.46368 19.7037 6.07727 19.8535 7.19141C20.0072 8.3347 20.0088 9.8465 20.0088 11.9961Z" fill="currentColor" />
    <path opacity="0.4" d="M6.48029 1.99689C7.15584 2.00183 7.80577 2.02886 8.28497 2.05451C8.52518 2.06736 8.72388 2.08027 8.8631 2.08966C8.93257 2.09435 8.98741 2.09764 9.02521 2.1004C9.04411 2.10179 9.05903 2.10354 9.06915 2.10431C9.07416 2.10469 9.07812 2.1041 9.08087 2.10431C9.08208 2.1044 9.08304 2.10523 9.0838 2.10529H9.08575C9.63628 2.14843 10.0478 2.62993 10.0047 3.18048C9.96412 3.69644 9.53858 4.08962 9.03204 4.10138L8.9295 4.09943L8.92755 4.09845C8.9256 4.0983 8.92201 4.09877 8.91779 4.09845C8.90937 4.09781 8.89659 4.09676 8.8797 4.09552C8.84542 4.09301 8.79396 4.08921 8.72833 4.08478C8.5971 4.07592 8.40797 4.06385 8.17853 4.05158C7.71805 4.02694 7.10042 4.00154 6.46564 3.99689C6.11416 3.99432 5.76499 3.9984 5.43927 4.01154L13.7147 12.2879C14.1051 12.6784 14.1051 13.3114 13.7147 13.702C13.3241 14.0925 12.6911 14.0925 12.3006 13.702L4.02325 5.42365C4.00999 5.75048 4.00603 6.10104 4.00861 6.45392C4.01325 7.08871 4.03866 7.70633 4.06329 8.16681C4.07557 8.39625 4.08764 8.58538 4.0965 8.71662C4.10092 8.78224 4.10473 8.83371 4.10724 8.86798C4.10847 8.88487 4.10953 8.89765 4.11017 8.90607C4.11049 8.9103 4.11002 8.91388 4.11017 8.91583L4.11114 8.91779C4.1542 9.46824 3.74257 9.94968 3.1922 9.99298C2.64165 10.036 2.16015 9.62456 2.117 9.07404V9.07208C2.11695 9.07132 2.11612 9.07037 2.11603 9.06915C2.11581 9.0664 2.11543 9.06248 2.11505 9.05744C2.11428 9.04732 2.1135 9.03239 2.11212 9.01349C2.10936 8.9757 2.10607 8.92087 2.10138 8.85138C2.09198 8.71216 2.07907 8.51347 2.06622 8.27326C2.04059 7.79406 2.01355 7.14412 2.00861 6.46857C2.00372 5.7988 2.0204 5.07681 2.08771 4.46369C2.1212 4.15869 2.17023 3.8514 2.24591 3.57892C2.3116 3.34247 2.43675 2.97793 2.71368 2.70099L2.82111 2.60431C3.07945 2.39418 3.38384 2.29164 3.59064 2.23419C3.86312 2.15851 4.17041 2.10948 4.4754 2.07599C5.08853 2.00868 5.81051 1.99199 6.48029 1.99689Z" fill="currentColor" />
</svg>