<svg xmlns="http://www.w3.org/2000/svg" width="24" height="24" viewBox="0 0 24 24" fill="none">
    <path opacity="0.4" d="M22.7383 15.9014C22.7496 16.0666 22.75 16.3073 22.75 16.5215C22.75 16.7358 22.7496 16.9333 22.7383 17.0986C22.7261 17.2762 22.6993 17.4716 22.6172 17.6699C22.4396 18.0987 22.0987 18.4396 21.6699 18.6172C21.4716 18.6993 21.2762 18.7261 21.0986 18.7383C20.9333 18.7496 20.7358 18.75 20.5215 18.75H3.47852C3.26425 18.75 3.06669 18.7496 2.90137 18.7383C2.72385 18.7261 2.52841 18.6993 2.33008 18.6172C1.90132 18.4396 1.56042 18.0987 1.38281 17.6699C1.30066 17.4716 1.27386 17.2762 1.26172 17.0986C1.25044 16.9333 1.24999 16.7357 1.25 16.5215C1.24999 16.3073 1.25044 16.0666 1.26172 15.9014C1.26508 15.8522 1.26882 15.8016 1.27539 15.75H22.5C22.5765 15.75 22.6502 15.7381 22.7197 15.7168C22.7288 15.7798 22.7342 15.8418 22.7383 15.9014ZM20.5635 12.25C20.6402 12.4317 20.6824 12.6199 20.707 12.8027C20.7504 13.1254 20.7501 13.8171 20.75 14.25H3.25C3.24995 13.8171 3.24959 13.1254 3.29297 12.8027C3.31755 12.6199 3.35977 12.4317 3.43652 12.25H20.5635ZM18.2373 8.7627C18.5463 9.07171 18.6592 9.44726 18.707 9.80273C18.7357 10.0159 18.7448 10.3935 18.748 10.75H5.25195C5.25523 10.3935 5.26431 10.0159 5.29297 9.80273C5.34076 9.44726 5.45368 9.07171 5.7627 8.7627C5.76692 8.75847 5.77114 8.75415 5.77539 8.75H18.2246C18.2289 8.75415 18.2331 8.75847 18.2373 8.7627ZM14.0449 5.25C14.4777 5.24995 14.8745 5.24957 15.1973 5.29297C15.5527 5.34076 15.9283 5.45368 16.2373 5.7627C16.5463 6.07171 16.6592 6.44726 16.707 6.80273C16.7221 6.91515 16.7319 7.07335 16.7383 7.25H7.26172C7.26813 7.07335 7.27785 6.91515 7.29297 6.80273C7.34076 6.44726 7.45368 6.07171 7.7627 5.7627C8.07171 5.45368 8.44726 5.34076 8.80273 5.29297C9.1255 5.24957 9.52233 5.24995 9.95508 5.25H14.0449Z" fill="currentColor" />
    <path d="M20.5635 12.25C20.6402 12.4317 20.6824 12.6199 20.707 12.8027C20.7504 13.1254 20.7501 13.8171 20.75 14.25H3.25C3.24995 13.8171 3.24959 13.1254 3.29297 12.8027C3.31755 12.6199 3.35977 12.4317 3.43652 12.25H20.5635ZM14.0449 5.25C14.4777 5.24995 14.8745 5.24957 15.1973 5.29297C15.5527 5.34076 15.9283 5.45368 16.2373 5.7627C16.5463 6.07171 16.6592 6.44726 16.707 6.80273C16.7221 6.91515 16.7319 7.07335 16.7383 7.25H7.26172C7.26814 7.07335 7.27785 6.91515 7.29297 6.80273C7.34076 6.44726 7.45368 6.07171 7.7627 5.7627C8.07171 5.45368 8.44726 5.34076 8.80273 5.29297C9.1255 5.24957 9.52234 5.24995 9.95508 5.25H14.0449Z" fill="currentColor" />
</svg>