<svg xmlns="http://www.w3.org/2000/svg" width="24" height="24" viewBox="0 0 24 24" fill="none">
    <path opacity="0.4" d="M18 12C18 15.3137 15.3137 18 12 18C8.68629 18 6 15.3137 6 12C6 8.68629 8.68629 6 12 6C15.3137 6 18 8.68629 18 12Z" fill="currentColor" />
    <path d="M10.998 22V20C10.998 19.4478 11.4458 19.0001 11.998 19C12.5503 19 12.998 19.4477 12.998 20V22C12.998 22.5523 12.5503 23 11.998 23C11.4458 22.9999 10.998 22.5522 10.998 22ZM16.793 16.7939C17.1835 16.4034 17.8165 16.4034 18.207 16.7939L19.707 18.2939C20.0976 18.6845 20.0976 19.3175 19.707 19.708C19.3165 20.0985 18.6835 20.0985 18.293 19.708L16.793 18.208C16.4024 17.8175 16.4024 17.1845 16.793 16.7939ZM5.79297 16.793C6.18349 16.4024 6.81651 16.4024 7.20703 16.793C7.59756 17.1835 7.59756 17.8165 7.20703 18.207L5.70703 19.707C5.31651 20.0976 4.68349 20.0976 4.29297 19.707C3.90244 19.3165 3.90244 18.6835 4.29297 18.293L5.79297 16.793ZM4 11C4.55228 11 4.99999 11.4477 5 12C5 12.5523 4.55228 13 4 13H2C1.44772 13 1 12.5523 1 12C1.00001 11.4477 1.44772 11 2 11H4ZM22 11C22.5523 11 23 11.4477 23 12C23 12.5523 22.5523 13 22 13H20C19.4477 13 19 12.5523 19 12C19 11.4477 19.4477 11 20 11H22ZM4.29297 4.29395C4.68349 3.90342 5.31651 3.90342 5.70703 4.29395L7.20605 5.79297C7.59658 6.18349 7.59658 6.81651 7.20605 7.20703C6.81553 7.59756 6.18252 7.59756 5.79199 7.20703L4.29297 5.70801C3.90244 5.31748 3.90244 4.68447 4.29297 4.29395ZM18.291 4.29395C18.6815 3.90342 19.3146 3.90343 19.7051 4.29395C20.0956 4.68447 20.0956 5.31748 19.7051 5.70801L18.2061 7.20703C17.8155 7.59755 17.1825 7.59755 16.792 7.20703C16.4015 6.81651 16.4015 6.18349 16.792 5.79297L18.291 4.29395ZM10.998 4V2C10.998 1.44775 11.4458 1.00006 11.998 1C12.5503 1 12.998 1.44772 12.998 2V4C12.998 4.55228 12.5503 5 11.998 5C11.4458 4.99994 10.998 4.55225 10.998 4Z" fill="currentColor" />
</svg>