<svg xmlns="http://www.w3.org/2000/svg" width="24" height="24" viewBox="0 0 24 24" fill="none">
    <path opacity="0.4" d="M18.0039 12C18.0039 15.3137 15.3176 18 12.0039 18C8.6902 18 6.00391 15.3137 6.00391 12C6.00391 8.68629 8.6902 6 12.0039 6C15.3176 6 18.0039 8.68629 18.0039 12Z" fill="currentColor" />
    <path d="M12.0029 19.5C12.6933 19.5 13.2529 20.0596 13.2529 20.75C13.2529 21.4404 12.6933 22 12.0029 22C11.3127 21.9999 10.7529 21.4403 10.7529 20.75C10.7529 20.0597 11.3127 19.5001 12.0029 19.5ZM17.4023 17.2178C17.8605 16.8441 18.5213 16.8441 18.9795 17.2178L19.0752 17.3037L19.1602 17.3984C19.5607 17.8894 19.5328 18.6136 19.0752 19.0713C18.587 19.5594 17.7948 19.5594 17.3066 19.0713C16.8187 18.5833 16.8189 17.7919 17.3066 17.3037L17.4023 17.2178ZM5.02734 17.2168C5.48545 16.8433 6.14634 16.8434 6.60449 17.2168L6.7002 17.3027L6.78613 17.3975C7.18644 17.8883 7.15759 18.6127 6.7002 19.0703C6.21208 19.5584 5.42078 19.5583 4.93262 19.0703C4.44446 18.5822 4.44446 17.7909 4.93262 17.3027L5.02734 17.2168ZM22.0039 12C22.0039 12.6904 21.4443 13.25 20.7539 13.25C20.0635 13.25 19.5039 12.6904 19.5039 12C19.5039 11.3096 20.0636 10.75 20.7539 10.75C21.4443 10.75 22.0039 11.3096 22.0039 12ZM4.93262 4.92871C5.4207 4.44071 6.21204 4.44082 6.7002 4.92871C7.18832 5.41684 7.18828 6.20813 6.7002 6.69629C6.21204 7.18444 5.42077 7.18444 4.93262 6.69629C4.4447 6.20811 4.44455 5.41678 4.93262 4.92871ZM17.3066 4.92871C17.7947 4.44062 18.586 4.44075 19.0742 4.92871C19.5624 5.41687 19.5624 6.20813 19.0742 6.69629C18.5861 7.18434 17.7948 7.18441 17.3066 6.69629C16.8187 6.20815 16.8187 5.41681 17.3066 4.92871ZM12.1318 2.00684C12.7619 2.07107 13.2539 2.60295 13.2539 3.25C13.2539 3.94025 12.6941 4.49983 12.0039 4.5C11.3567 4.5 10.8238 4.0082 10.7598 3.37793L10.7539 3.25L10.7598 3.12207C10.8238 2.4918 11.3567 2 12.0039 2L12.1318 2.00684ZM4.50391 12C4.50391 12.6904 3.94426 13.25 3.25391 13.25C2.56355 13.25 2.00391 12.6904 2.00391 12C2.00391 11.3096 2.56355 10.75 3.25391 10.75C3.94426 10.75 4.50391 11.3096 4.50391 12Z" fill="currentColor" />
</svg>