<svg xmlns="http://www.w3.org/2000/svg" width="24" height="24" viewBox="0 0 24 24" fill="none">
    <path opacity="0.4" d="M12 1.25C15.6638 1.25 18.8991 3.08305 20.8398 5.88184C20.9776 6.08045 21.0464 6.18006 21.0186 6.27246C20.9904 6.36455 20.8649 6.41494 20.6143 6.51465C19.2292 7.06583 18.25 8.41845 18.25 10C18.25 12.0711 19.9289 13.75 22 13.75H22.2021C22.3592 13.7528 22.4479 13.7673 22.4932 13.8252C22.5534 13.9024 22.5238 14.0213 22.4639 14.2588C22.3323 14.7797 22.1545 15.2939 21.9316 15.7812C21.4235 16.8925 20.6503 17.9212 19.5752 18.542C19.4995 18.5857 19.4611 18.6071 19.4375 18.6367C19.4139 18.6665 19.4019 18.7082 19.377 18.79C19.0778 19.7703 18.5576 20.7438 17.6484 21.4404C16.9939 21.9419 16.0712 22.2573 15.1299 22.4531C14.1643 22.654 13.0721 22.7503 11.9951 22.75C10.9184 22.7497 9.82779 22.6521 8.86328 22.4512C7.92288 22.2552 7.00087 21.9409 6.34766 21.4404C5.43275 20.7394 4.91966 19.7647 4.62402 18.79C4.5992 18.7082 4.58614 18.6675 4.5625 18.6377C4.53884 18.6079 4.50085 18.5859 4.4248 18.542C3.34957 17.9212 2.57651 16.8925 2.06836 15.7812C1.84555 15.2939 1.66766 14.7797 1.53613 14.2588C1.47618 14.0213 1.44662 13.9024 1.50684 13.8252C1.55214 13.7673 1.64077 13.7528 1.79785 13.75H2C4.07107 13.75 5.75 12.0711 5.75 10C5.75 8.41845 4.77084 7.06583 3.38574 6.51465C3.13512 6.41494 3.00962 6.36455 2.98145 6.27246C2.95357 6.18006 3.02244 6.08045 3.16016 5.88184C5.10089 3.08305 8.33624 1.25 12 1.25ZM12.3691 15.1504C10.26 15.1492 8.09349 15.6686 6.41504 16.668C6.31293 16.7288 6.2615 16.7596 6.23535 16.8135C6.2092 16.8674 6.21687 16.9272 6.23242 17.0459C6.39303 18.2709 6.75742 19.3419 7.54102 19.9424C7.85079 20.1797 8.43226 20.4191 9.26562 20.5928C10.0749 20.7614 11.0283 20.8493 11.9961 20.8496C12.9639 20.8499 13.9177 20.7622 14.7275 20.5938C15.5614 20.4203 16.1449 20.1808 16.4561 19.9424C17.2598 19.3262 17.6382 18.1942 17.7803 16.9375C17.7919 16.8343 17.7976 16.7824 17.7764 16.7334C17.755 16.6843 17.7141 16.6538 17.6328 16.5938C16.3821 15.6697 14.4748 15.1516 12.3691 15.1504ZM2.39844 7.78516C3.45103 7.97325 4.25 8.89333 4.25 10C4.25 11.2426 3.24264 12.25 2 12.25C1.78032 12.25 1.56789 12.2189 1.36719 12.1602C1.29665 12.1395 1.25 12.0735 1.25 12C1.25 10.5904 1.52142 9.24423 2.01465 8.01074C2.06506 7.88467 2.09026 7.82167 2.15234 7.78711C2.21455 7.75257 2.27598 7.76328 2.39844 7.78516ZM21.6016 7.78516C21.724 7.76328 21.7854 7.75257 21.8477 7.78711C21.9097 7.82167 21.9349 7.88467 21.9854 8.01074C22.4786 9.24423 22.75 10.5904 22.75 12C22.75 12.0735 22.7033 12.1395 22.6328 12.1602C22.4321 12.2189 22.2197 12.25 22 12.25C20.7574 12.25 19.75 11.2426 19.75 10C19.75 8.89332 20.549 7.97325 21.6016 7.78516ZM12 3.25C9.92893 3.25 8.25 4.92893 8.25 7C8.25 9.07107 9.92893 10.75 12 10.75C14.0711 10.75 15.75 9.07107 15.75 7C15.75 4.92893 14.0711 3.25 12 3.25ZM12 4.75C13.2426 4.75 14.25 5.75736 14.25 7C14.25 8.24264 13.2426 9.25 12 9.25C10.7574 9.25 9.75 8.24264 9.75 7C9.75 5.75736 10.7574 4.75 12 4.75Z" fill="currentColor" />
    <path d="M9.00879 17C9.56107 17 10.0088 17.4477 10.0088 18C10.0088 18.5523 9.56107 19 9.00879 19H9C8.44772 19 8 18.5523 8 18C8 17.4477 8.44772 17 9 17H9.00879ZM15 17C15.5523 17 16 17.4477 16 18C16 18.5523 15.5523 19 15 19H14.9912C14.4389 19 13.9912 18.5523 13.9912 18C13.9912 17.4477 14.4389 17 14.9912 17H15ZM2.39844 7.78516C3.45103 7.97325 4.25 8.89333 4.25 10C4.25 11.2426 3.24264 12.25 2 12.25C1.78032 12.25 1.56789 12.2189 1.36719 12.1602C1.29665 12.1395 1.25 12.0735 1.25 12C1.25 10.5904 1.52142 9.24423 2.01465 8.01074C2.06506 7.88467 2.09026 7.82167 2.15234 7.78711C2.21455 7.75257 2.27598 7.76328 2.39844 7.78516ZM21.6016 7.78516C21.724 7.76328 21.7854 7.75257 21.8477 7.78711C21.9097 7.82167 21.9349 7.88467 21.9854 8.01074C22.4786 9.24423 22.75 10.5904 22.75 12C22.75 12.0735 22.7033 12.1395 22.6328 12.1602C22.4321 12.2189 22.2197 12.25 22 12.25C20.7574 12.25 19.75 11.2426 19.75 10C19.75 8.89332 20.549 7.97325 21.6016 7.78516ZM12 3.25C14.0711 3.25 15.75 4.92893 15.75 7C15.75 9.07107 14.0711 10.75 12 10.75C9.92893 10.75 8.25 9.07107 8.25 7C8.25 4.92893 9.92893 3.25 12 3.25ZM12 4.75C10.7574 4.75 9.75 5.75736 9.75 7C9.75 8.24264 10.7574 9.25 12 9.25C13.2426 9.25 14.25 8.24264 14.25 7C14.25 5.75736 13.2426 4.75 12 4.75Z" fill="currentColor" />
</svg>