<svg xmlns="http://www.w3.org/2000/svg" width="24" height="24" viewBox="0 0 24 24" fill="none">
    <path d="M5.45711 19.9572L2.95711 22.4572C2.56658 22.8477 1.93342 22.8477 1.54289 22.4572C1.15237 22.0667 1.15237 21.4335 1.54289 21.043L4.04289 18.543L5.45711 19.9572Z" fill="currentColor" />
    <path opacity="0.4" d="M11.7071 5.29289C11.3166 4.90237 10.6834 4.90237 10.2929 5.29289C9.90237 5.68342 9.90237 6.31658 10.2929 6.70711L10.6091 7.02332L6.20751 11.4249C5.69844 11.934 5.27653 12.3559 4.97025 12.7315C4.65053 13.1237 4.4028 13.5281 4.30561 14.0166C4.23146 14.3894 4.23146 14.7732 4.30561 15.146C4.4028 15.6345 4.65053 16.0389 4.97025 16.4311C5.27653 16.8067 5.75324 17.2834 6.26231 17.7925C6.77137 18.3016 7.19327 18.7235 7.56892 19.0298C7.96106 19.3495 8.36547 19.5972 8.85405 19.6944C9.22683 19.7685 9.61057 19.7685 9.98336 19.6944C10.4719 19.5972 10.8764 19.3495 11.2685 19.0298C11.6441 18.7235 12.066 18.3016 12.5751 17.7925L16.9767 13.3909L17.2929 13.7071C17.6834 14.0976 18.3166 14.0976 18.7071 13.7071C19.0976 13.3166 19.0976 12.6834 18.7071 12.2929L11.7071 5.29289Z" fill="currentColor" />
    <path d="M8.42176 19.5649L7.38119 20.3082C7.17128 20.4582 6.96003 20.6091 6.76743 20.7204C6.55028 20.8458 6.27876 20.9688 5.9435 20.9952C5.90054 20.9986 5.85741 20.9992 5.81437 20.997C5.31911 20.9719 4.63903 20.6488 3.99495 20.0047C3.48282 19.4926 3.20385 18.9828 3.08103 18.5895C3.03231 18.4315 2.96354 18.0282 3.07818 17.6785C3.19288 17.3133 3.44547 16.9611 3.65818 16.6649L4.43458 15.5781C4.56084 15.8845 4.74738 16.1613 4.9683 16.4323C5.15947 16.6667 5.41704 16.9406 5.70744 17.2371L5.33976 17.7518C5.21071 17.9325 5.12516 18.0528 5.06258 18.1494C5.12432 18.2583 5.23126 18.4126 5.40917 18.5905C5.58756 18.7689 5.73986 18.8766 5.84779 18.9388C5.93799 18.8805 6.05898 18.7948 6.24783 18.6599L6.76215 18.2925C7.05763 18.5825 7.32212 18.8313 7.56697 19.0309C7.83811 19.252 8.11512 19.4387 8.42176 19.5649Z" fill="currentColor" />
    <path d="M17.9852 2.20238C17.9852 1.67639 17.5589 1.25 17.0329 1.25C16.5069 1.25 16.0805 1.67639 16.0805 2.20238C16.08 2.60113 16.0794 3.05996 16.1815 3.41807C16.2369 3.61267 16.3146 3.80023 16.413 3.97705C16.4831 4.103 16.5655 4.21954 16.6565 4.33142L13.3711 6.95976L14.7263 8.31491L17.9939 5.70078L18.2964 6.0032L15.6822 9.27087L17.0374 10.626L19.6657 7.3406C19.7776 7.43166 19.8941 7.51406 20.0201 7.58413C20.1969 7.68251 20.3845 7.7602 20.5791 7.81567C20.9372 7.91775 21.396 7.91717 21.7948 7.91664C22.3207 7.91664 22.7471 7.49025 22.7471 6.96427C22.7471 6.43828 22.3207 6.01189 21.7948 6.01189C21.2554 6.01189 21.1697 6.0034 21.1012 5.98388C21.0472 5.96849 20.9952 5.94694 20.9462 5.91965C20.8839 5.88502 20.8173 5.83041 20.4359 5.44904L18.5481 3.56121C18.1667 3.17984 18.1121 3.11323 18.0775 3.05099C18.0502 3.00194 18.0286 2.94991 18.0133 2.89593C17.9937 2.82743 17.9852 2.74171 17.9852 2.20238Z" fill="currentColor" />
</svg>