<svg xmlns="http://www.w3.org/2000/svg" width="24" height="24" viewBox="0 0 24 24" fill="none">
    <path d="M2 16V8C2 6.61416 1.99829 5.47423 2.11914 4.5752C2.24389 3.64737 2.51577 2.82799 3.17188 2.17188C3.82799 1.51577 4.64737 1.24389 5.5752 1.11914C6.47423 0.998294 7.61416 1 9 1H14C15.3858 1 16.5258 0.998294 17.4248 1.11914C18.3526 1.24389 19.172 1.51577 19.8281 2.17188C20.2702 2.61398 20.5434 3.13603 20.7109 3.72754C20.8614 4.25881 20.5527 4.8113 20.0215 4.96192C19.4901 5.11243 18.9366 4.80384 18.7861 4.27246C18.6934 3.94532 18.5715 3.7434 18.4141 3.58594C18.1915 3.36337 17.8643 3.19551 17.1582 3.10059C16.4234 3.00185 15.4422 3 14 3H9C7.55778 3 6.57657 3.00185 5.8418 3.10059C5.13574 3.19551 4.80851 3.36337 4.58594 3.58594C4.36337 3.80851 4.19551 4.13574 4.10059 4.8418C4.00185 5.57657 4 6.55778 4 8V16C4 17.4422 4.00185 18.4234 4.10059 19.1582C4.19551 19.8643 4.36337 20.1915 4.58594 20.4141C4.78248 20.6106 5.05783 20.7611 5.59277 20.8594C6.15628 20.9629 6.91048 20.992 8.00586 20.998C8.558 21.0013 9.00308 21.4517 9 22.0039C8.99689 22.5561 8.54639 23.0011 7.99414 22.998C6.91487 22.992 5.9926 22.9669 5.23145 22.8272C4.44158 22.6821 3.74372 22.4 3.17188 21.8281C2.51577 21.172 2.24389 20.3526 2.11914 19.4248C1.99829 18.5258 2 17.3858 2 16Z" fill="currentColor" />
    <path opacity="0.4" d="M19.3936 6.07715C18.8742 6.00911 18.2412 6.00104 17.515 6.00012L17.3363 6H17.1543H14.8457H14.6638L14.485 6.00012C13.7588 6.00104 13.1258 6.00911 12.6064 6.07715C11.9765 6.15973 11.3645 6.34629 10.8652 6.83301C10.3625 7.32317 10.1665 7.92963 10.0801 8.55567C9.99992 9.13698 9.99996 9.86152 10 10.6922L10 10.75V18.25L10 18.3078C9.99996 19.1385 9.99992 19.863 10.0801 20.4443C10.1665 21.0704 10.3625 21.6768 10.8652 22.167C11.3645 22.6537 11.9765 22.8403 12.6064 22.9229C13.196 23.0001 13.9318 23 14.7842 23L14.8457 23H17.1543L17.2158 23C18.0682 23 18.8041 23.0001 19.3936 22.9229C20.0235 22.8403 20.6355 22.6537 21.1348 22.167C21.6375 21.6768 21.8336 21.0704 21.9199 20.4443C22.0001 19.863 22 19.1385 22 18.3078L22 18.25V10.75L22 10.6922C22 9.86155 22.0001 9.13698 21.9199 8.55567C21.8336 7.92963 21.6375 7.32317 21.1348 6.83301C20.6355 6.34629 20.0235 6.15973 19.3936 6.07715ZM12.8662 8.06055C13.1184 8.0275 13.422 8.01246 13.8088 8.00563L13.9385 8.35157C14.0849 8.74169 14.4583 9 14.875 9H17.125C17.5417 9 17.9151 8.74169 18.0615 8.35157L18.1913 8.00563C18.578 8.01246 18.8816 8.0275 19.1338 8.06055C19.5511 8.11526 19.6743 8.20327 19.7383 8.26563C19.7987 8.32456 19.885 8.43422 19.9395 8.82911C19.9983 9.25553 20 9.83715 20 10.75V18.25C20 18.7597 19.9995 19.1662 19.9887 19.5H12.0113C12.0005 19.1662 12 18.7597 12 18.25V10.75C12 9.83715 12.0017 9.25553 12.0606 8.82911C12.115 8.43422 12.2013 8.32456 12.2617 8.26563C12.3257 8.20327 12.4489 8.11526 12.8662 8.06055Z" fill="currentColor" />
</svg>