<svg xmlns="http://www.w3.org/2000/svg" width="24" height="24" viewBox="0 0 24 24" fill="none">
    <path opacity="0.4" d="M21 2C21.5523 2 22 2.44772 22 3C22 3.55228 21.5523 4 21 4H3C2.44772 4 2 3.55228 2 3C2 2.44772 2.44772 2 3 2H21Z" fill="currentColor" />
    <path d="M21 8C21.5523 8 22 8.44772 22 9C22 9.55228 21.5523 10 21 10H9C8.44772 10 8 9.55228 8 9C8 8.44772 8.44772 8 9 8H21Z" fill="currentColor" />
    <path d="M21 14C21.5523 14 22 14.4477 22 15C22 15.5523 21.5523 16 21 16H9C8.44772 16 8 15.5523 8 15C8 14.4477 8.44772 14 9 14H21Z" fill="currentColor" />
    <path d="M21 20C21.5523 20 22 20.4477 22 21C22 21.5523 21.5523 22 21 22H9C8.44772 22 8 21.5523 8 21C8 20.4477 8.44772 20 9 20H21Z" fill="currentColor" />
    <path opacity="0.4" d="M2 21V9C2 8.44772 2.44772 8 3 8C3.55228 8 4 8.44772 4 9V21C4 21.5523 3.55228 22 3 22C2.44772 22 2 21.5523 2 21Z" fill="currentColor" />
</svg>