<svg xmlns="http://www.w3.org/2000/svg" width="24" height="24" viewBox="0 0 24 24" fill="none">
    <path d="M4.04492 17.25C4.47767 17.2499 4.8745 17.2496 5.19727 17.293C5.55274 17.3408 5.92828 17.4537 6.2373 17.7627C6.54632 18.0717 6.65924 18.4473 6.70703 18.8027C6.75043 19.1255 6.75005 19.5223 6.75 19.9551V20.0449C6.75005 20.4777 6.75043 20.8745 6.70703 21.1973C6.65924 21.5527 6.54633 21.9283 6.2373 22.2373C5.92828 22.5463 5.55274 22.6592 5.19727 22.707C4.8745 22.7504 4.47767 22.7501 4.04492 22.75H3.95508C3.52233 22.7501 3.1255 22.7504 2.80273 22.707C2.44726 22.6592 2.07171 22.5463 1.7627 22.2373C1.45368 21.9283 1.34076 21.5527 1.29297 21.1973C1.24957 20.8745 1.24995 20.4777 1.25 20.0449V19.9551C1.24995 19.5223 1.24957 19.1255 1.29297 18.8027C1.34076 18.4473 1.45368 18.0717 1.7627 17.7627C2.07171 17.4537 2.44726 17.3408 2.80273 17.293C3.1255 17.2496 3.52233 17.2499 3.95508 17.25H4.04492ZM20.0449 17.25C20.4777 17.2499 20.8745 17.2496 21.1973 17.293C21.5527 17.3408 21.9283 17.4537 22.2373 17.7627C22.5463 18.0717 22.6592 18.4473 22.707 18.8027C22.7504 19.1255 22.7501 19.5223 22.75 19.9551V20.0449C22.7501 20.4777 22.7504 20.8745 22.707 21.1973C22.6592 21.5527 22.5463 21.9283 22.2373 22.2373C21.9283 22.5463 21.5527 22.6592 21.1973 22.707C20.8745 22.7504 20.4777 22.7501 20.0449 22.75H19.9551C19.5223 22.7501 19.1255 22.7504 18.8027 22.707C18.4473 22.6592 18.0717 22.5463 17.7627 22.2373C17.4537 21.9283 17.3408 21.5527 17.293 21.1973C17.2496 20.8745 17.2499 20.4777 17.25 20.0449V19.9551C17.2499 19.5223 17.2496 19.1255 17.293 18.8027C17.3408 18.4473 17.4537 18.0717 17.7627 17.7627C18.0717 17.4537 18.4473 17.3408 18.8027 17.293C19.1255 17.2496 19.5223 17.2499 19.9551 17.25H20.0449ZM12 7C13.0803 7 14.13 7.1241 15.1318 7.35742C15.159 7.36375 15.1873 7.37029 15.2168 7.37695C15.55 7.4523 16.0201 7.55861 16.3965 7.9082C16.5318 8.03388 16.6593 8.19325 16.751 8.35353C16.9022 8.61775 16.9572 8.87905 16.9805 9.11035C17.0003 9.30727 17.0001 9.53258 17 9.74414C17 9.75509 17 9.76647 17 9.77734C17 10.3296 16.5523 10.7773 16 10.7773C15.4477 10.7773 15 10.3296 15 9.77734C15 9.65452 14.9996 9.56003 14.998 9.47853C14.9973 9.44073 14.9964 9.40904 14.9951 9.38281C14.9788 9.37832 14.9598 9.37265 14.9385 9.3672C14.8687 9.34935 14.7868 9.3301 14.6777 9.3047C14.1351 9.17834 13.5746 9.09002 13 9.042V15H13.333C13.8853 15 14.333 15.4477 14.333 16C14.333 16.5523 13.8853 17 13.333 17H10.667C10.1147 17 9.667 16.5523 9.667 16C9.667 15.4477 10.1147 15 10.667 15H11V9.042C10.4254 9.09002 9.86487 9.17834 9.32228 9.3047C9.21319 9.3301 9.13132 9.34935 9.06152 9.3672C9.04016 9.37265 9.02119 9.37832 9.00488 9.38281C9.00365 9.40904 9.0027 9.44073 9.00196 9.47853C9.00037 9.56003 9 9.65452 9 9.77734C9 10.3296 8.55228 10.7773 8 10.7773C7.44772 10.7773 7 10.3296 7 9.77734C7 9.76647 7 9.75509 7 9.74414C6.99995 9.53258 6.99975 9.30727 7.01953 9.11035C7.04277 8.87905 7.09785 8.61775 7.24902 8.35353C7.34072 8.19326 7.46824 8.03388 7.60352 7.9082C7.97987 7.55861 8.44998 7.4523 8.78321 7.37695C8.81265 7.37029 8.84101 7.36375 8.86817 7.35742C9.86996 7.1241 10.9197 7 12 7ZM4.04492 1.25C4.47767 1.24995 4.8745 1.24957 5.19727 1.29297C5.55274 1.34076 5.92828 1.45368 6.2373 1.7627C6.54632 2.07171 6.65924 2.44726 6.70703 2.80273C6.75043 3.1255 6.75005 3.52233 6.75 3.95508V4.04492C6.75005 4.47767 6.75043 4.8745 6.70703 5.19727C6.65924 5.55274 6.54633 5.92828 6.2373 6.2373C5.92828 6.54633 5.55274 6.65924 5.19727 6.70703C4.8745 6.75043 4.47767 6.75005 4.04492 6.75H3.95508C3.52233 6.75005 3.1255 6.75043 2.80273 6.70703C2.44726 6.65924 2.07171 6.54632 1.7627 6.2373C1.45368 5.92828 1.34076 5.55274 1.29297 5.19727C1.24957 4.8745 1.24995 4.47767 1.25 4.04492V3.95508C1.24995 3.52233 1.24957 3.1255 1.29297 2.80273C1.34076 2.44726 1.45368 2.07171 1.7627 1.7627C2.07171 1.45368 2.44726 1.34076 2.80273 1.29297C3.1255 1.24957 3.52233 1.24995 3.95508 1.25H4.04492ZM20.0449 1.25C20.4777 1.24995 20.8745 1.24957 21.1973 1.29297C21.5527 1.34076 21.9283 1.45368 22.2373 1.7627C22.5463 2.07171 22.6592 2.44726 22.707 2.80273C22.7504 3.1255 22.7501 3.52233 22.75 3.95508V4.04492C22.7501 4.47767 22.7504 4.8745 22.707 5.19727C22.6592 5.55274 22.5463 5.92828 22.2373 6.2373C21.9283 6.54633 21.5527 6.65924 21.1973 6.70703C20.8745 6.75043 20.4777 6.75005 20.0449 6.75H19.9551C19.5223 6.75005 19.1255 6.75043 18.8027 6.70703C18.4473 6.65924 18.0717 6.54632 17.7627 6.2373C17.4537 5.92828 17.3408 5.55274 17.293 5.19727C17.2496 4.8745 17.2499 4.47767 17.25 4.04492V3.95508C17.2499 3.52233 17.2496 3.1255 17.293 2.80273C17.3408 2.44726 17.4537 2.07171 17.7627 1.7627C18.0717 1.45368 18.4473 1.34076 18.8027 1.29297C19.1255 1.24957 19.5223 1.24995 19.9551 1.25H20.0449Z" fill="currentColor" />
    <path opacity="0.4" d="M17.2725 19C17.2499 19.2818 17.25 19.6068 17.25 19.9551V20.0449C17.25 20.3932 17.2499 20.7182 17.2725 21H6.72754C6.75015 20.7182 6.75004 20.3932 6.75 20.0449V19.9551C6.75004 19.6068 6.75015 19.2818 6.72754 19H17.2725ZM5 17.2725C4.71816 17.2499 4.39319 17.25 4.04492 17.25H3.95508C3.60681 17.25 3.28184 17.2499 3 17.2725V6.72754C3.28184 6.75015 3.60681 6.75004 3.95508 6.75H4.04492C4.39318 6.75004 4.71816 6.75015 5 6.72754V17.2725ZM21 17.2725C20.7182 17.2499 20.3932 17.25 20.0449 17.25H19.9551C19.6068 17.25 19.2818 17.2499 19 17.2725V6.72754C19.2818 6.75015 19.6068 6.75004 19.9551 6.75H20.0449C20.3932 6.75004 20.7182 6.75015 21 6.72754V17.2725ZM17.2725 3C17.2499 3.28184 17.25 3.60681 17.25 3.95508V4.04492C17.25 4.39319 17.2499 4.71816 17.2725 5H6.72754C6.75015 4.71816 6.75004 4.39318 6.75 4.04492V3.95508C6.75004 3.60681 6.75015 3.28184 6.72754 3H17.2725Z" fill="currentColor" />
</svg>