<svg xmlns="http://www.w3.org/2000/svg" width="24" height="24" viewBox="0 0 24 24" fill="none">
    <path opacity="0.4" d="M4.22461 12C4.22461 13.0936 3.39674 13.9063 2.46484 13.9063C1.84779 13.9065 1.21955 14.4079 1.25195 15.1543C1.31981 16.717 1.5101 17.8996 2.15527 18.875C2.50467 19.4032 2.94028 19.8654 3.44336 20.2383C4.17517 20.7806 5.02602 21.0222 6.06152 21.1377C7.06844 21.25 8.33231 21.25 9.93146 21.25H9.99316H14.0078H14.0702C15.6691 21.25 16.9327 21.25 17.9395 21.1377C18.975 21.0221 19.8258 20.7806 20.5576 20.2383C21.0607 19.8654 21.4963 19.4032 21.8457 18.875C22.491 17.8994 22.6812 16.7164 22.749 15.1533C22.7494 15.1436 22.75 15.1309 22.75 15.1211V8.87891C22.75 8.86913 22.7496 8.85937 22.7492 8.84961C22.6813 7.28651 22.491 6.10056 21.8457 5.125C21.4963 4.59678 21.0607 4.13465 20.5576 3.76172C19.8258 3.21936 18.975 2.97786 17.9395 2.86231C16.9327 2.74997 15.6691 2.74998 14.0702 2.75H14.0078H9.99316H9.93145C8.3323 2.74998 7.06844 2.74997 6.06152 2.86231C5.02602 2.97785 4.17517 3.21942 3.44336 3.76172C2.94028 4.13463 2.50467 4.59681 2.15527 5.125C1.5101 6.10041 1.31981 7.28298 1.25195 8.8457C1.21955 9.5921 1.84779 10.0935 2.46484 10.0938C3.39674 10.0938 4.22461 10.9064 4.22461 12Z" fill="currentColor" />
    <path d="M12.7071 15.7071C12.3166 16.0976 11.6836 16.0976 11.293 15.7071C10.9025 15.3166 10.9025 14.6836 11.293 14.293L17.293 8.29304C17.6836 7.90252 18.3166 7.90252 18.7071 8.29304C19.0976 8.68357 19.0976 9.31658 18.7071 9.70711L12.7071 15.7071Z" fill="currentColor" />
    <path d="M12.25 8C12.9404 8 13.5 8.55965 13.5 9.25C13.5 9.94036 12.9404 10.5 12.25 10.5C11.5596 10.5 11 9.94036 11 9.25C11 8.55965 11.5596 8 12.25 8Z" fill="currentColor" />
    <path d="M17.75 13.5C18.4404 13.5 19 14.0596 19 14.75C19 15.4404 18.4404 16 17.75 16C17.0596 16 16.5 15.4404 16.5 14.75C16.5 14.0596 17.0596 13.5 17.75 13.5Z" fill="currentColor" />
</svg>