<svg xmlns="http://www.w3.org/2000/svg" width="24" height="24" viewBox="0 0 24 24" fill="none">
    <path opacity="0.4" d="M4.22461 12C4.22461 13.0936 3.39674 13.9063 2.46484 13.9063C1.84779 13.9065 1.21955 14.4079 1.25195 15.1543C1.31981 16.717 1.5101 17.8996 2.15527 18.875C2.50467 19.4032 2.94028 19.8654 3.44336 20.2383C4.17517 20.7806 5.02602 21.0222 6.06152 21.1377C7.06844 21.25 8.33231 21.25 9.93146 21.25H9.99316H14.0078H14.0702C15.6691 21.25 16.9327 21.25 17.9395 21.1377C18.975 21.0221 19.8258 20.7806 20.5576 20.2383C21.0607 19.8654 21.4963 19.4032 21.8457 18.875C22.491 17.8994 22.6812 16.7164 22.749 15.1533C22.7494 15.1436 22.75 15.1309 22.75 15.1211V8.87891C22.75 8.86913 22.7496 8.85937 22.7492 8.84961C22.6813 7.28651 22.491 6.10056 21.8457 5.125C21.4963 4.59678 21.0607 4.13465 20.5576 3.76172C19.8258 3.21936 18.975 2.97786 17.9395 2.86231C16.9327 2.74997 15.6691 2.74998 14.0702 2.75H14.0078H9.99316H9.93145C8.3323 2.74998 7.06844 2.74997 6.06152 2.86231C5.02602 2.97785 4.17517 3.21942 3.44336 3.76172C2.94028 4.13463 2.50467 4.59681 2.15527 5.125C1.5101 6.10041 1.31981 7.28298 1.25195 8.8457C1.21955 9.5921 1.84779 10.0935 2.46484 10.0938C3.39674 10.0938 4.22461 10.9064 4.22461 12Z" fill="currentColor" />
    <path fill-rule="evenodd" clip-rule="evenodd" d="M10.0257 12.0005C10.0226 12.0003 10.0286 12.0006 10.0257 12.0005V12.0005ZM10.0257 12.0005C10.0226 12.0003 10.0286 12.0006 10.0257 12.0005V12.0005Z" fill="currentColor" />
    <path d="M18.9424 8.66606C18.7579 8.1456 18.1865 7.87331 17.666 8.05767C16.788 8.36868 15.9485 8.96151 15.2119 9.60747C14.4649 10.2626 13.7661 11.0232 13.1729 11.7344C12.7339 12.2607 12.3453 12.7677 12.0303 13.1983C11.7417 12.8528 11.4538 12.6007 11.1797 12.418C10.9053 12.2351 10.6542 12.1288 10.4463 12.0694C10.3432 12.04 10.2523 12.0228 10.1768 12.0127C10.1393 12.0078 10.1056 12.0049 10.0762 12.003C10.0614 12.002 10.0383 12.0009 10.0257 12.0005C10.0226 12.0003 10.0286 12.0006 10.0257 12.0005L10 12C9.44772 12 9 12.4478 9 13C9 13.5197 9.39641 13.9465 9.90332 13.9952C9.92366 14.0018 9.98209 14.0233 10.0703 14.0821C10.2696 14.2149 10.6648 14.5659 11.1055 15.4473C11.2666 15.7697 11.5893 15.9806 11.9492 15.9991C12.309 16.0174 12.6515 15.8393 12.8447 15.5352L12.8506 15.5264L12.8563 15.5174L12.875 15.4883C12.897 15.4545 12.9307 15.4038 12.9746 15.3379C13.0625 15.2059 13.1924 15.0142 13.3574 14.7803C13.6885 14.3114 14.1572 13.6772 14.709 13.0157C15.2627 12.352 15.8877 11.675 16.5303 11.1114C17.1833 10.5386 17.8003 10.1314 18.334 9.94243C18.8545 9.75798 19.1267 9.1866 18.9424 8.66606Z" fill="currentColor" />
</svg>