<svg xmlns="http://www.w3.org/2000/svg" width="24" height="24" viewBox="0 0 24 24" fill="none">
    <path opacity="0.4" d="M14.5 1.25C15.0523 1.25 15.5 1.69772 15.5 2.25C15.5 2.80228 15.0523 3.25 14.5 3.25H9.5C8.94772 3.25 8.5 2.80228 8.5 2.25C8.5 1.69772 8.94772 1.25 9.5 1.25H14.5Z" fill="currentColor" />
    <path d="M2.75 13.5C2.75 18.6087 6.89137 22.75 12 22.75C14.9365 22.75 17.5534 21.3817 19.2479 19.2479L13.4569 13.4569L12.707 14.2068C12.3165 14.5974 11.6835 14.5974 11.293 14.2068C10.9024 13.8163 10.9024 13.1833 11.293 12.7928L12.0429 12.0429L6.25212 6.2522C4.11831 7.94668 2.75 10.5636 2.75 13.5Z" fill="currentColor" />
    <path opacity="0.4" d="M17.8135 6.30767C16.2247 5.02161 14.2023 4.25 11.999 4.25C10.6569 4.25 9.38152 4.53584 8.23047 5.04996L13.6326 10.4521L15.0467 11.8662L20.4491 17.2685C20.9632 16.1175 21.249 14.8421 21.249 13.5C21.249 11.2962 20.477 9.2735 19.1904 7.68452L19.9901 6.88579C20.3703 6.50555 20.3703 5.88919 19.9901 5.50894C19.6098 5.1287 18.9935 5.1287 18.6132 5.50894L17.8135 6.30767Z" fill="currentColor" />
    <path fill-rule="evenodd" clip-rule="evenodd" d="M13.6328 10.4521L15.0469 11.8662L16.2062 10.7068L16.2746 10.6306C16.595 10.2379 16.5724 9.65885 16.2062 9.29273C15.8401 8.92662 15.2611 8.90402 14.8684 9.22437L14.7922 9.29273L13.6328 10.4521Z" fill="currentColor" />
    <path d="M1.29289 1.29289C1.68342 0.902369 2.31643 0.902369 2.70696 1.29289L22.707 21.2929C23.0975 21.6834 23.0975 22.3164 22.707 22.707C22.3164 23.0975 21.6834 23.0975 21.2929 22.707L1.29289 2.70696C0.902369 2.31643 0.902369 1.68342 1.29289 1.29289Z" fill="currentColor" />
</svg>