<svg xmlns="http://www.w3.org/2000/svg" width="24" height="24" viewBox="0 0 24 24" fill="none">
    <path opacity="0.4" d="M7.06802 18.2682C7.19929 17.7319 7.74066 17.4037 8.277 17.5348C9.57692 17.853 11.2403 17.8849 12.8708 17.6735C13.4184 17.6025 13.9198 17.9892 13.9909 18.5368C14.0619 19.0845 13.6753 19.5859 13.1276 19.6569C11.3341 19.8894 9.41026 19.8706 7.80239 19.4772C7.26595 19.3459 6.93674 18.8047 7.06802 18.2682ZM6.07974 14.778C6.29483 14.2693 6.88161 14.0307 7.39028 14.2457C8.26157 14.6142 9.46106 14.8039 10.8005 14.8073C12.1283 14.8106 13.5248 14.631 14.7507 14.3141C15.2852 14.1761 15.8301 14.4974 15.9684 15.0319C16.1066 15.5666 15.7854 16.1124 15.2507 16.2506C13.8601 16.61 12.2942 16.811 10.7956 16.8073C9.30874 16.8035 7.81681 16.5984 6.61099 16.0885C6.10239 15.8734 5.86478 15.2866 6.07974 14.778ZM17.4118 10.3874C17.858 10.0623 18.483 10.1601 18.8083 10.6061C19.1334 11.0524 19.0358 11.6783 18.5895 12.0036C17.0823 13.1015 14.5089 13.7831 12.072 13.9567C10.8308 14.0451 9.56675 14.0064 8.42349 13.8014C7.294 13.5989 6.20321 13.2199 5.37954 12.567C4.94686 12.2241 4.87371 11.5955 5.21646 11.1627C5.55952 10.7299 6.18893 10.6566 6.62173 10.9997C7.08653 11.3681 7.81771 11.6607 8.777 11.8327C9.72263 12.0022 10.8149 12.0409 11.9294 11.9616C14.2037 11.7996 16.342 11.1666 17.4118 10.3874Z" fill="currentColor" />
    <path d="M13.8342 20.7119C14.3765 20.6082 14.9002 20.9645 15.0041 21.5068C15.1078 22.0491 14.7525 22.5729 14.2102 22.6768C13.1754 22.875 12.0802 22.9888 11.011 23C10.4588 23.0058 10.0062 22.5628 10.0002 22.0107C9.99442 21.4586 10.4374 21.0059 10.9895 21C11.9355 20.9901 12.9125 20.8885 13.8342 20.7119ZM12.9729 1C13.5251 1.00013 13.9729 1.4478 13.9729 2C13.9729 2.5522 13.5251 2.99987 12.9729 3C11.8964 3 10.1794 3.35209 8.68087 4.01855C7.93803 4.34897 7.29463 4.73641 6.82442 5.15723C6.35149 5.58052 6.11198 5.9839 6.04317 6.3457C5.93743 6.90207 6.03698 7.28084 6.21895 7.56543C6.41522 7.87226 6.7724 8.16822 7.33516 8.41504C8.47945 8.91675 10.1979 9.09378 12.0178 8.9541C13.8264 8.81524 15.5777 8.37594 16.7492 7.7832C17.3415 7.48353 17.7028 7.18605 17.8782 6.94434C18.0224 6.74538 18.0163 6.63403 17.9709 6.51465C17.8857 6.29059 17.6293 6.02061 16.9514 5.83008C16.2865 5.64324 15.3945 5.59069 14.4045 5.66211C13.4256 5.73275 12.4108 5.91958 11.5305 6.16992C10.63 6.42602 9.95034 6.72503 9.59005 6.97754C9.13779 7.29429 8.51438 7.18461 8.19747 6.73242C7.88077 6.28019 7.99046 5.65675 8.44258 5.33984C9.07118 4.89931 9.99907 4.52706 10.9836 4.24707C11.9884 3.96134 13.1375 3.74801 14.26 3.66699C15.3714 3.58679 16.5194 3.63087 17.4924 3.9043C18.4523 4.17404 19.4319 4.72811 19.841 5.80371C20.1654 6.65679 19.9677 7.46942 19.4973 8.11816C19.0578 8.72425 18.3812 9.19869 17.6526 9.56738C16.182 10.3115 14.1567 10.7958 12.1711 10.9482C10.1973 11.0998 8.10333 10.9355 6.53145 10.2461C5.73616 9.89728 5.00864 9.38486 4.53438 8.64355C4.04595 7.87998 3.88838 6.97045 4.07833 5.97168C4.25666 5.03399 4.82094 4.26704 5.49141 3.66699C6.16455 3.06463 7.00442 2.57466 7.86837 2.19043C9.58403 1.42741 11.577 1 12.9729 1Z" fill="currentColor" />
</svg>