<svg xmlns="http://www.w3.org/2000/svg" width="24" height="24" viewBox="0 0 24 24" fill="none">
    <path opacity="0.4" d="M12.0002 2.25C12.8198 2.25 13.2819 2.90933 13.5715 3.45898C13.8786 4.04182 14.1864 4.88623 14.5601 5.91137L14.5842 5.97754L15.1718 7.58911L15.6871 9.0026L16.5586 11.3929L17.0866 12.8413L17.4631 13.874C17.4647 13.8784 17.4682 13.8872 17.4732 13.8995C17.5004 13.9675 17.5714 14.1447 17.6077 14.3018C17.6606 14.5316 17.6708 14.78 17.633 15.0859C17.6125 15.2526 17.5621 15.4199 17.5286 15.5215C17.51 15.5777 17.4916 15.6274 17.4768 15.666C17.4696 15.6848 17.4622 15.7042 17.4553 15.7207L17.4516 15.7302C17.4508 15.7322 17.4524 15.728 17.4516 15.7302C17.4496 15.735 17.4451 15.7465 17.4426 15.752C17.4411 15.7554 17.4386 15.7602 17.4356 15.7662L17.4289 15.7793C17.4282 15.7807 17.4082 15.8223 17.3772 15.8682C16.6951 16.8749 15.0847 17.8301 12.0002 17.8301C8.91534 17.83 7.30519 16.8741 6.62328 15.8672C6.59673 15.8279 6.57939 15.7939 6.5757 15.7867C6.56915 15.7738 6.5638 15.7624 6.56078 15.7559L6.55484 15.7431C6.55098 15.7348 6.54754 15.7274 6.54516 15.7217C6.53904 15.7069 6.53327 15.6912 6.52754 15.6756L6.52367 15.665C6.50939 15.6263 6.49263 15.5775 6.47582 15.5215C6.44284 15.4117 6.40392 15.2577 6.38305 15.085C6.32752 14.6249 6.42713 14.1763 6.53734 13.874L6.91367 12.8422L7.44178 11.3941L8.31364 9.00352L8.8291 7.59013L9.41723 5.97754L9.4416 5.91069C9.8152 4.88582 10.1229 4.04168 10.4299 3.45898C10.7195 2.90939 11.1808 2.2501 12.0002 2.25Z" fill="currentColor" />
    <path fill-rule="evenodd" clip-rule="evenodd" d="M7.44218 11.3938L6.91406 12.8418C7.80356 13.3492 9.37973 13.7497 11.9998 13.7497C14.6213 13.7497 16.1978 13.3488 17.087 12.8409L16.559 11.3926C16.5509 11.3985 16.5428 11.4045 16.5349 11.4108C16.1542 11.7114 14.9451 12.2497 11.9998 12.2497C9.05439 12.2497 7.84533 11.7114 7.4646 11.4108C7.4572 11.405 7.44973 11.3993 7.44218 11.3938Z" fill="currentColor" />
    <path fill-rule="evenodd" clip-rule="evenodd" d="M8.82797 7.59086L8.3125 9.00425C9.35141 9.47405 10.5733 9.75073 11.9982 9.75073C13.4241 9.75073 14.6466 9.4737 15.686 9.00333L15.1706 7.58984C14.3141 7.99606 13.2707 8.25073 11.9982 8.25073C10.7268 8.25073 9.68409 7.99649 8.82797 7.59086Z" fill="currentColor" />
    <path d="M18.874 15.2383C18.8674 15.2917 18.8593 15.344 18.8502 15.3947C18.8094 15.6201 18.7487 15.8123 18.7158 15.9122C18.689 15.9935 18.6631 16.0629 18.6445 16.1114L18.6364 16.1317L18.625 16.1602L18.6182 16.1768L18.6133 16.1885L18.6057 16.2093L18.5974 16.2274L18.5927 16.2382L18.5889 16.2481C18.5858 16.2559 18.5837 16.2607 18.5811 16.2667L18.5556 16.3213L18.5498 16.3321L18.5449 16.3419L18.5381 16.3546C18.5306 16.3692 18.5211 16.3876 18.5098 16.4083L18.4121 16.5684C17.4085 18.0497 15.3104 19.0792 12 19.0792C8.68901 19.0791 6.59114 18.0489 5.58789 16.5674C5.51895 16.4655 5.47423 16.3777 5.46191 16.3536C5.44681 16.3239 5.43463 16.2983 5.42676 16.2813L5.42188 16.2715L5.41211 16.2491C5.40793 16.2399 5.39986 16.2216 5.39062 16.1993L5.35449 16.1055L5.27832 15.8799C5.24111 15.756 5.19642 15.5864 5.16368 15.3884C5.15546 15.3388 5.148 15.2874 5.1416 15.2344C5.07082 14.6473 5.16235 14.1003 5.28288 13.6895L4.75879 13.9248L4.72029 13.9421C3.90485 14.3082 3.21694 14.617 2.74023 14.9189C2.30162 15.1967 1.81503 15.6085 1.75586 16.2587L1.75 16.3925L1.75586 16.5254C1.81488 17.1758 2.30159 17.5874 2.74023 17.8652C3.21692 18.1671 3.90489 18.476 4.72029 18.842L4.75879 18.8593L9.23145 20.8671L9.37321 20.9309C10.4466 21.4135 11.1928 21.749 12 21.749C12.8072 21.749 13.5533 21.4135 14.6267 20.9309L14.7686 20.8671L19.2412 18.8593L19.2796 18.8421C20.0951 18.476 20.7831 18.1671 21.2598 17.8652C21.7276 17.5689 22.2499 17.1204 22.25 16.3925C22.25 15.6644 21.7277 15.2152 21.2598 14.9189C20.7831 14.617 20.0952 14.3082 19.2797 13.9421L19.2412 13.9248L18.7313 13.6958C18.7642 13.7927 18.799 13.906 18.8252 14.0196C18.9173 14.4191 18.9258 14.8186 18.874 15.2383Z" fill="currentColor" />
</svg>