<svg xmlns="http://www.w3.org/2000/svg" width="24" height="24" viewBox="0 0 24 24" fill="none">
    <path d="M5.74322 18.957C6.29749 19.2265 6.91861 19.3814 7.60357 19.4736C7.6641 19.4818 7.72583 19.4868 7.78814 19.4941L5.83208 22.4297C5.52573 22.8892 4.90489 23.0134 4.44536 22.707C3.98594 22.4007 3.86169 21.7798 4.16802 21.3203L5.74322 18.957ZM19.8321 21.3203C20.1384 21.7798 20.0143 22.4007 19.5547 22.707C19.0952 23.0134 18.4744 22.8892 18.168 22.4297L16.211 19.4941C16.2736 19.4868 16.3357 19.4818 16.3965 19.4736C17.0812 19.3814 17.7018 19.2263 18.2559 18.957L19.8321 21.3203Z" fill="currentColor" />
    <path opacity="0.4" d="M12.0711 1.125H11.9289H11.9289C10.1561 1.12498 8.72712 1.12496 7.60329 1.27628C6.43648 1.43339 5.45405 1.76949 4.67379 2.55093C3.89353 3.33237 3.55792 4.31627 3.40105 5.48483C3.24996 6.61036 3.24998 8.04144 3.25 9.81688V9.8169V10.9331V10.9331C3.24998 12.7086 3.24996 14.1396 3.40105 15.2652C3.55792 16.4337 3.89353 17.4176 4.67379 18.1991C5.45405 18.9805 6.43648 19.3166 7.60329 19.4737C8.72713 19.625 10.1561 19.625 11.9289 19.625H12.0712C13.8439 19.625 15.2729 19.625 16.3967 19.4737C17.5635 19.3166 18.546 18.9805 19.3262 18.1991C20.1065 17.4176 20.4421 16.4337 20.599 15.2652C20.75 14.1396 20.75 12.7085 20.75 10.9331V9.81695C20.75 8.04147 20.75 6.61038 20.599 5.48483C20.4421 4.31627 20.1065 3.33237 19.3262 2.55093C18.546 1.76949 17.5635 1.43339 16.3967 1.27628C15.2729 1.12496 13.8439 1.12498 12.0712 1.125H12.0711Z" fill="currentColor" />
    <path fill-rule="evenodd" clip-rule="evenodd" d="M18.131 5.625H5.87078C5.6189 5.625 5.49296 5.625 5.40692 5.70395C5.32087 5.7829 5.31043 5.90409 5.28954 6.14649C5.20855 7.08622 5.19531 8.33225 5.19531 9.88816L5.19543 10.8957C5.19545 11.1295 5.19547 11.2464 5.26385 11.3295C5.33223 11.4125 5.44554 11.4347 5.67215 11.4791C5.92986 11.5295 6.21627 11.5825 6.52734 11.6356C7.96732 11.881 9.92307 12.1249 12.0013 12.1249C14.0796 12.1249 16.0353 11.881 17.4753 11.6356C17.786 11.5826 18.0721 11.5297 18.3296 11.4793C18.5562 11.4349 18.6695 11.4127 18.7379 11.3297C18.8063 11.2466 18.8063 11.1297 18.8063 10.8959L18.8064 9.88816C18.8064 8.33225 18.7932 7.08622 18.7122 6.14649C18.6913 5.90409 18.6809 5.7829 18.5948 5.70395C18.5088 5.625 18.3828 5.625 18.131 5.625Z" fill="currentColor" />
    <path d="M20.5 15.125C20.5385 15.125 20.5763 15.1282 20.6133 15.1338C20.6079 15.1779 20.6044 15.2224 20.5986 15.2656C20.5334 15.7511 20.437 16.2045 20.291 16.625H18.75C18.3358 16.625 18 16.2892 18 15.875C18 15.4608 18.3358 15.125 18.75 15.125H20.5ZM5.25 15.125C5.66421 15.125 6 15.4608 6 15.875C6 16.2892 5.66421 16.625 5.25 16.625H3.70898C3.563 16.2045 3.46656 15.7511 3.40137 15.2656C3.39556 15.2224 3.39209 15.1779 3.38672 15.1338C3.42368 15.1282 3.46148 15.125 3.5 15.125H5.25Z" fill="currentColor" />
</svg>