<svg xmlns="http://www.w3.org/2000/svg" width="24" height="24" viewBox="0 0 24 24" fill="none">
    <path fill-rule="evenodd" clip-rule="evenodd" d="M16.2417 20.7199C16.8372 20.5555 17.3723 20.2851 17.8284 19.829C17.8748 19.7826 17.9192 19.7355 17.9618 19.6875L18.8948 21.5536C19.1418 22.0476 18.9416 22.6484 18.4476 22.8954C17.9536 23.1424 17.3528 22.9421 17.1058 22.4481L16.2417 20.7199ZM6.17219 19.829C6.12584 19.7826 6.08141 19.7355 6.03882 19.6875L5.10578 21.5536C4.85879 22.0476 5.05907 22.6484 5.55305 22.8954C6.04703 23.1424 6.64785 22.9421 6.89484 22.4481L7.75893 20.7199C7.16338 20.5555 6.62833 20.2851 6.17219 19.829Z" fill="currentColor" />
    <path d="M9.25 16.25C9.80228 16.25 10.25 16.6977 10.25 17.25C10.25 17.8023 9.80228 18.25 9.25 18.25C8.69772 18.25 8.25 17.8023 8.25 17.25C8.25 16.6977 8.69771 16.25 9.25 16.25Z" fill="currentColor" />
    <path d="M14.75 16.25C15.3023 16.25 15.75 16.6977 15.75 17.25C15.75 17.8023 15.3023 18.25 14.75 18.25C14.1977 18.25 13.75 17.8023 13.75 17.25C13.75 16.6977 14.1977 16.25 14.75 16.25Z" fill="currentColor" />
    <path d="M21 20V12C21 7.02944 16.9706 3 12 3C7.02944 3 3 7.02944 3 12V20C3 20.5523 2.55228 21 2 21C1.44772 21 1 20.5523 1 20V12C1 5.92487 5.92487 1 12 1C18.0751 1 23 5.92487 23 12V20C23 20.5523 22.5523 21 22 21C21.4477 21 21 20.5523 21 20Z" fill="currentColor" />
    <path d="M16.8994 9.8418C16.9982 10.5766 17 11.5578 17 13V13.25H7V13C7 11.5578 7.00185 10.5766 7.10059 9.8418C7.19551 9.13574 7.36337 8.80851 7.58594 8.58594C7.80851 8.36337 8.13574 8.19551 8.8418 8.10059C9.57657 8.00185 10.5578 8 12 8C13.4422 8 14.4234 8.00185 15.1582 8.10059C15.8643 8.19551 16.1915 8.36337 16.4141 8.58594C16.6366 8.80851 16.8045 9.13574 16.8994 9.8418Z" fill="currentColor" />
    <path opacity="0.4" fill-rule="evenodd" clip-rule="evenodd" d="M19 14.0571V14V13V12.9429C19 11.5828 19 10.4618 18.8809 9.5752C18.7561 8.64737 18.4842 7.82799 17.8281 7.17188C17.172 6.51577 16.3526 6.24389 15.4248 6.11914C14.5382 5.99996 13.4172 5.99998 12.0572 6H12H11.9428C10.5828 5.99998 9.46183 5.99996 8.5752 6.11914C7.64737 6.24389 6.82799 6.51577 6.17188 7.17188C5.51577 7.82799 5.24389 8.64737 5.11914 9.5752C4.99996 10.4618 4.99998 11.5828 5 12.9429V13V14V14.0571C4.99998 15.4172 4.99996 16.5382 5.11914 17.4248C5.23507 18.2871 5.47809 19.0557 6.03851 19.6867C6.0811 19.7346 6.12553 19.7818 6.17188 19.8281C6.62802 20.2843 7.16307 20.5547 7.75862 20.7191C8.01971 20.7912 8.29241 20.8428 8.5752 20.8809C9.46185 21 10.5828 21 11.9429 21H12H12.0571C13.4172 21 14.5382 21 15.4248 20.8809C15.7076 20.8428 15.9803 20.7912 16.2414 20.7191C16.8369 20.5547 17.372 20.2843 17.8281 19.8281C17.8745 19.7818 17.9189 19.7346 17.9615 19.6867C18.5219 19.0557 18.7649 18.2871 18.8809 17.4248C19 16.5382 19 15.4172 19 14.0571ZM16.8994 9.8418C16.9982 10.5766 17 11.5578 17 13V13.25H7V13C7 11.5578 7.00185 10.5766 7.10059 9.8418C7.19551 9.13575 7.36337 8.80851 7.58594 8.58594C7.80851 8.36337 8.13574 8.19551 8.8418 8.10059C9.57657 8.00185 10.5578 8 12 8C13.4422 8 14.4234 8.00185 15.1582 8.10059C15.8643 8.19551 16.1915 8.36337 16.4141 8.58594C16.6366 8.80851 16.8045 9.13575 16.8994 9.8418Z" fill="currentColor" />
</svg>