<svg xmlns="http://www.w3.org/2000/svg" width="24" height="24" viewBox="0 0 24 24" fill="none">
    <path d="M2.89167 3.73672C3.1753 3.26288 3.78987 3.10843 4.26374 3.392C4.73758 3.67563 4.89203 4.2902 4.60846 4.76407L3.71784 6.25039H4.09284C4.39028 6.25039 4.70933 6.24898 4.96491 6.28067C5.20304 6.31021 5.68203 6.39709 6.00495 6.8334C6.37653 7.33563 6.24259 7.86614 6.13874 8.13125C6.04454 8.3717 5.87956 8.63921 5.75397 8.84903L4.60846 10.7641C4.32483 11.2379 3.71026 11.3924 3.23639 11.1088C2.76255 10.8252 2.6081 10.2106 2.89167 9.73672L3.78229 8.25039H3.40729C3.10986 8.25039 2.7908 8.25181 2.53522 8.22012C2.29709 8.19058 1.8181 8.1037 1.49518 7.66739C1.1236 7.16516 1.25754 6.63465 1.36139 6.36954C1.45559 6.12909 1.62057 5.86158 1.74616 5.65176L2.89167 3.73672Z" fill="currentColor" />
    <path opacity="0.4" fill-rule="evenodd" clip-rule="evenodd" d="M1.25 9.08972L1.25001 14.9558C1.24998 15.3765 1.24995 15.7551 1.27855 16.069C1.30924 16.4059 1.37895 16.7623 1.57733 17.1042C1.79176 17.4737 2.10018 17.7805 2.47159 17.9938C2.8152 18.1912 3.4935 18.2799 3.83214 18.3105C4.24974 19.7207 5.56083 20.75 7.1136 20.75C8.66306 20.75 9.97189 19.725 10.3924 18.3194H13.6075C14.028 19.725 15.3368 20.75 16.8862 20.75C18.439 20.75 19.7501 19.7207 20.1677 18.3105C20.5063 18.2799 21.1846 18.1912 21.5282 17.9938C21.8997 17.7805 22.2081 17.4737 22.4225 17.1042C22.6209 16.7623 22.6906 16.4059 22.7213 16.069C22.7499 15.7551 22.7499 15.3765 22.7498 14.9558L22.7499 12.2462C22.7505 11.9209 22.751 11.5917 22.6612 11.269C22.5714 10.9464 22.4006 10.6644 22.2319 10.3857L20.5128 7.53538C20.3215 7.21817 20.1439 6.92361 19.9689 6.68857C19.7753 6.4284 19.5429 6.18102 19.2145 5.99605C18.8861 5.81108 18.5534 5.7401 18.2295 5.70878C17.9369 5.68049 17.5917 5.68053 17.2199 5.68056L15.8756 5.68056C15.8073 5.17563 15.6199 4.38622 15.1934 3.9619C14.7669 3.53758 14.2462 3.37996 13.7386 3.31207C13.2737 3.24989 12.6994 3.24994 12.0601 3.25H5.76547C6.06053 3.84658 6.08553 4.56291 5.79004 5.19727C6.13514 5.32014 6.54111 5.5366 6.88574 5.93457L7.00977 6.08984L7.13965 6.28125C7.7271 7.23877 7.45476 8.19632 7.30176 8.58691C7.17265 8.91634 6.96721 9.25714 6.85571 9.4421L6.82617 9.49121L5.68066 11.4053C5.0425 12.4714 3.66091 12.8187 2.59473 12.1807C1.59636 11.5831 1.22877 10.3337 1.70996 9.30176C1.5644 9.24991 1.40804 9.18142 1.25 9.08972ZM15.9097 14.0854C16.2194 13.9937 16.5474 13.9444 16.887 13.9444C18.4326 13.9444 19.7388 14.9644 20.1627 16.3646C20.6136 16.3646 20.796 16.069 20.796 15.8889V11.7881L18.2529 7.625H15.9097V14.0854ZM15.4211 17.3472C15.4211 16.5418 16.0774 15.8889 16.887 15.8889C17.6966 15.8889 18.3529 16.5418 18.3529 17.3472C18.3529 18.1526 17.6966 18.8056 16.887 18.8056C16.0774 18.8056 15.4211 18.1526 15.4211 17.3472ZM7.11433 15.8889C6.30474 15.8889 5.64844 16.5418 5.64844 17.3472C5.64844 18.1526 6.30474 18.8056 7.11433 18.8056C7.92393 18.8056 8.58023 18.1526 8.58023 17.3472C8.58023 16.5418 7.92393 15.8889 7.11433 15.8889Z" fill="currentColor" />
    <path fill-rule="evenodd" clip-rule="evenodd" d="M15.9097 14.0854C16.2194 13.9937 16.5474 13.9444 16.887 13.9444C18.4326 13.9444 19.7388 14.9644 20.1627 16.3646C20.6136 16.3646 20.796 16.069 20.796 15.8889V11.7881L18.2529 7.625H15.9097V14.0854ZM15.4211 17.3472C15.4211 16.5418 16.0774 15.8889 16.887 15.8889C17.6966 15.8889 18.3529 16.5418 18.3529 17.3472C18.3529 18.1526 17.6966 18.8056 16.887 18.8056C16.0774 18.8056 15.4211 18.1526 15.4211 17.3472ZM7.11433 15.8889C6.30474 15.8889 5.64844 16.5418 5.64844 17.3472C5.64844 18.1526 6.30474 18.8056 7.11433 18.8056C7.92393 18.8056 8.58023 18.1526 8.58023 17.3472C8.58023 16.5418 7.92393 15.8889 7.11433 15.8889Z" fill="currentColor" />
    <path fill-rule="evenodd" clip-rule="evenodd" d="M16.887 13.9444C16.5474 13.9444 16.2194 13.9937 15.9097 14.0854V7.625H18.2529L20.796 11.7881V15.8889C20.796 16.069 20.6136 16.3646 20.1627 16.3646C19.7388 14.9644 18.4326 13.9444 16.887 13.9444Z" fill="currentColor" />
    <path fill-rule="evenodd" clip-rule="evenodd" d="M16.887 15.8889C16.0774 15.8889 15.4211 16.5418 15.4211 17.3472C15.4211 18.1526 16.0774 18.8056 16.887 18.8056C17.6966 18.8056 18.3529 18.1526 18.3529 17.3472C18.3529 16.5418 17.6966 15.8889 16.887 15.8889Z" fill="currentColor" />
    <path fill-rule="evenodd" clip-rule="evenodd" d="M5.64844 17.3472C5.64844 16.5418 6.30474 15.8889 7.11433 15.8889C7.92393 15.8889 8.58023 16.5418 8.58023 17.3472C8.58023 18.1526 7.92393 18.8056 7.11433 18.8056C6.30474 18.8056 5.64844 18.1526 5.64844 17.3472Z" fill="currentColor" />
</svg>