<svg xmlns="http://www.w3.org/2000/svg" width="24" height="24" viewBox="0 0 24 24" fill="none">
    <path d="M3.99609 11C4.54838 11 4.99609 11.4477 4.99609 12C4.99609 12.5523 4.54838 13 3.99609 13H1.99609C1.44381 13 0.996094 12.5523 0.996094 12C0.996094 11.4477 1.44381 11 1.99609 11H3.99609ZM9.99609 11C10.5484 11 10.9961 11.4477 10.9961 12C10.9961 12.5523 10.5484 13 9.99609 13H7.99609C7.44381 13 6.99609 12.5523 6.99609 12C6.99609 11.4477 7.44381 11 7.99609 11H9.99609ZM15.9961 11C16.5484 11 16.9961 11.4477 16.9961 12C16.9961 12.5523 16.5484 13 15.9961 13H13.9961C13.4438 13 12.9961 12.5523 12.9961 12C12.9961 11.4477 13.4438 11 13.9961 11H15.9961ZM21.9961 11C22.5484 11 22.9961 11.4477 22.9961 12C22.9961 12.5523 22.5484 13 21.9961 13H19.9961C19.4438 13 18.9961 12.5523 18.9961 12C18.9961 11.4477 19.4438 11 19.9961 11H21.9961Z" fill="currentColor" />
    <path opacity="0.4" d="M10.9961 8V4.1084C10.9824 4.124 10.9687 4.13957 10.9551 4.15527C10.6446 4.51281 10.3545 4.87361 10.1416 5.14648C10.0357 5.28222 9.94983 5.39523 9.89061 5.47363L9.80565 5.58691C9.80397 5.58918 9.8025 5.59078 9.80174 5.5918V5.59277L9.73631 5.67188C9.39617 6.04754 8.82023 6.11242 8.40331 5.80566C7.95873 5.47825 7.86323 4.8519 8.19041 4.40723H8.19139V4.40625C8.19179 4.4057 8.19268 4.40423 8.19334 4.40332C8.19466 4.40154 8.19696 4.39951 8.1992 4.39648C8.20396 4.39006 8.21094 4.38091 8.21971 4.36914C8.23728 4.34556 8.26256 4.31139 8.29491 4.26855C8.35957 4.18294 8.45201 4.06133 8.56541 3.91602C8.79138 3.62647 9.10369 3.23707 9.44432 2.84473C9.78064 2.45737 10.1644 2.04393 10.5312 1.71973C10.7136 1.55861 10.9159 1.39791 11.124 1.27246C11.3047 1.16356 11.6188 0.999997 11.9961 1L12.1348 1.00684C12.45 1.03968 12.7101 1.1772 12.8681 1.27246C13.0762 1.39791 13.2786 1.55861 13.4609 1.71973C13.8278 2.04392 14.2115 2.45739 14.5478 2.84473C14.8885 3.23707 15.2008 3.62647 15.4267 3.91602C15.5402 4.06134 15.6326 4.18294 15.6973 4.26855C15.7296 4.31139 15.7549 4.34556 15.7724 4.36914C15.7812 4.3809 15.7882 4.39006 15.793 4.39648C15.7952 4.39952 15.7975 4.40154 15.7988 4.40332L15.8008 4.40625V4.40723H15.8017C16.1289 4.85187 16.0334 5.47726 15.5889 5.80469C15.1442 6.1322 14.5179 6.03747 14.1904 5.59277V5.5918C14.1897 5.59078 14.1882 5.58918 14.1865 5.58691L14.1015 5.47363C14.0423 5.39523 13.9565 5.28222 13.8506 5.14648C13.6376 4.87361 13.3475 4.5128 13.0371 4.15527C13.0235 4.13957 13.0097 4.124 12.9961 4.1084V8C12.9961 8.55228 12.5484 9 11.9961 9C11.4438 9 10.9961 8.55228 10.9961 8Z" fill="currentColor" />
    <path opacity="0.4" d="M10.9961 16C10.9961 15.4477 11.4438 15 11.9961 15C12.5484 15 12.9961 15.4477 12.9961 16V19.8906C13.0096 19.8752 13.0236 19.8602 13.0371 19.8447C13.3475 19.4872 13.6376 19.1264 13.8506 18.8535C13.9565 18.7178 14.0423 18.6048 14.1015 18.5264L14.1865 18.4131C14.1882 18.4108 14.1897 18.4092 14.1904 18.4082V18.4072C14.5179 17.9625 15.1442 17.8678 15.5889 18.1953C16.0334 18.5227 16.1289 19.1481 15.8017 19.5928H15.8008V19.5938C15.8004 19.5943 15.7995 19.5958 15.7988 19.5967C15.7975 19.5985 15.7952 19.6005 15.793 19.6035C15.7882 19.6099 15.7812 19.6191 15.7724 19.6309C15.7549 19.6544 15.7296 19.6886 15.6973 19.7314C15.6326 19.8171 15.5402 19.9387 15.4267 20.084C15.2008 20.3735 14.8885 20.7629 14.5478 21.1553C14.2115 21.5426 13.8278 21.9561 13.4609 22.2803C13.2786 22.4414 13.0762 22.6021 12.8681 22.7275C12.6875 22.8364 12.3733 23 11.9961 23C11.6188 23 11.3047 22.8364 11.124 22.7275C10.9159 22.6021 10.7136 22.4414 10.5312 22.2803C10.1644 21.9561 9.78064 21.5426 9.44432 21.1553C9.10369 20.7629 8.79138 20.3735 8.56541 20.084C8.45201 19.9387 8.35957 19.8171 8.29491 19.7314C8.26256 19.6886 8.23728 19.6544 8.21971 19.6309C8.21094 19.6191 8.20397 19.6099 8.1992 19.6035C8.19696 19.6005 8.19466 19.5985 8.19334 19.5967L8.19139 19.5938V19.5928H8.19041C7.86323 19.1481 7.95873 18.5218 8.40331 18.1943C8.84798 17.8672 9.47433 17.9627 9.80174 18.4072C9.8025 18.4082 9.80397 18.4108 9.80565 18.4131L9.89061 18.5264C9.94983 18.6048 10.0357 18.7178 10.1416 18.8535C10.3545 19.1264 10.6446 19.4872 10.9551 19.8447C10.9685 19.8602 10.9826 19.8752 10.9961 19.8906V16Z" fill="currentColor" />
</svg>