<svg xmlns="http://www.w3.org/2000/svg" width="24" height="24" viewBox="0 0 24 24" fill="none">
    <path opacity="0.4" d="M14.25 19.5215C14.25 19.7358 14.2496 19.9333 14.2383 20.0986C14.2261 20.2762 14.1993 20.4716 14.1172 20.6699C13.9396 21.0987 13.5987 21.4396 13.1699 21.6172C12.9716 21.6993 12.7762 21.7261 12.5986 21.7383C12.4333 21.7496 12.2358 21.75 12.0215 21.75C11.8073 21.75 11.5666 21.7496 11.4014 21.7383C11.2238 21.7261 11.0284 21.6993 10.8301 21.6172C10.4013 21.4396 10.0604 21.0987 9.88281 20.6699C9.80066 20.4716 9.77385 20.2762 9.76172 20.0986C9.75044 19.9333 9.74999 19.7358 9.75 19.5215V13.6992C10.4753 13.732 11.2284 13.749 12 13.749C12.7716 13.749 13.5247 13.732 14.25 13.6992V19.5215ZM18.0215 2.25C18.2357 2.24999 18.4333 2.25044 18.5986 2.26172C18.7762 2.27386 18.9716 2.30066 19.1699 2.38281C19.5987 2.56042 19.9396 2.90132 20.1172 3.33008C20.1993 3.52841 20.2261 3.72385 20.2383 3.90137C20.2496 4.06669 20.25 4.26424 20.25 4.47852C20.25 4.69272 20.2496 4.93338 20.2383 5.09863C20.2261 5.27616 20.1993 5.47159 20.1172 5.66992C19.9396 6.09868 19.5987 6.43957 19.1699 6.61719C18.9716 6.69934 18.7762 6.72614 18.5986 6.73828C18.4333 6.74956 18.2358 6.75001 18.0215 6.75H15.5C15.0076 6.75 14.7136 6.75197 14.5029 6.78027C14.3172 6.79614 14.2771 6.93529 14.2803 7.00293C14.252 7.21364 14.25 7.50756 14.25 8V11.1963C13.5322 11.2306 12.7789 11.249 12 11.249C11.2211 11.249 10.4678 11.2306 9.75 11.1963V8C9.75 7.50756 9.74803 7.21364 9.71973 7.00293C9.70523 6.8428 9.56528 6.7878 9.49707 6.78027C9.28636 6.75197 8.99244 6.75 8.5 6.75H5.97852C5.76425 6.75001 5.56669 6.74956 5.40137 6.73828C5.22385 6.72614 5.02841 6.69934 4.83008 6.61719C4.40132 6.43957 4.06042 6.09868 3.88281 5.66992C3.80066 5.47159 3.77386 5.27616 3.76172 5.09863C3.75044 4.93338 3.74999 4.69272 3.75 4.47852C3.74999 4.26425 3.75044 4.06669 3.76172 3.90137C3.77386 3.72385 3.80066 3.52841 3.88281 3.33008C4.06043 2.90132 4.40132 2.56043 4.83008 2.38281C5.02841 2.30066 5.22385 2.27386 5.40137 2.26172C5.56666 2.25044 5.76428 2.24999 5.97852 2.25H18.0215Z" fill="currentColor" />
    <path d="M14.25 8.29883C16.3907 8.39569 18.2955 8.62922 19.7227 8.95801C20.5099 9.13937 21.1933 9.35839 21.6973 9.62305C21.9483 9.75489 22.1921 9.91745 22.3818 10.1221C22.5752 10.3307 22.75 10.627 22.75 10.999C22.75 11.4097 22.5387 11.7259 22.3213 11.9385C22.1051 12.1498 21.8264 12.3183 21.5352 12.4561C20.9487 12.7334 20.1472 12.9626 19.2178 13.1484C17.3466 13.5226 14.7953 13.749 12 13.749C9.20475 13.749 6.65335 13.5226 4.78223 13.1484C3.85283 12.9626 3.05131 12.7334 2.46484 12.4561C2.17358 12.3183 1.89493 12.1498 1.67871 11.9385C1.46126 11.7259 1.25 11.4097 1.25 10.999C1.25004 10.627 1.42479 10.3307 1.61816 10.1221C1.80795 9.91745 2.05168 9.75489 2.30273 9.62305C2.80672 9.35839 3.49011 9.13937 4.27734 8.95801C5.70453 8.62922 7.60925 8.39569 9.75 8.29883V9.80078C7.69847 9.89669 5.91386 10.1205 4.61426 10.4199C3.87801 10.5895 3.33797 10.7737 3 10.9512C2.96835 10.9678 2.93983 10.9839 2.91406 10.999C2.96657 11.0297 3.03025 11.0636 3.10645 11.0996C3.53203 11.3008 4.19592 11.5017 5.07617 11.6777C6.8243 12.0273 9.27261 12.249 12 12.249C14.7274 12.249 17.1757 12.0273 18.9238 11.6777C19.8041 11.5017 20.468 11.3008 20.8936 11.0996C20.9698 11.0636 21.0334 11.0297 21.0859 10.999C21.0602 10.9839 21.0316 10.9678 21 10.9512C20.662 10.7737 20.122 10.5895 19.3857 10.4199C18.0861 10.1205 16.3015 9.89669 14.25 9.80078V8.29883Z" fill="currentColor" />
</svg>