<svg xmlns="http://www.w3.org/2000/svg" width="24" height="24" viewBox="0 0 24 24" fill="none">
    <path d="M20.793 14.293C21.1835 13.9025 21.8165 13.9025 22.207 14.293C22.5976 14.6835 22.5976 15.3166 22.207 15.7071L19.9141 18L22.207 20.293C22.5976 20.6835 22.5976 21.3166 22.207 21.7071C21.8165 22.0976 21.1835 22.0976 20.793 21.7071L18.5 19.4141L16.207 21.7071C15.8165 22.0976 15.1835 22.0976 14.793 21.7071C14.4024 21.3166 14.4024 20.6835 14.793 20.293L17.0859 18L14.793 15.7071C14.4024 15.3166 14.4024 14.6835 14.793 14.293C15.1835 13.9025 15.8165 13.9025 16.207 14.293L18.5 16.586L20.793 14.293Z" fill="currentColor" />
    <path opacity="0.4" d="M3.87859 13.3122C5.36094 12.6364 7.12142 12.25 9 12.25C10.8484 12.25 12.5825 12.6241 14.0498 13.2798C14.0016 13.3206 13.9546 13.3637 13.9092 13.4092C13.0305 14.2879 13.0305 15.7121 13.9092 16.5908L15.3184 18L13.9092 19.4092C13.8029 19.5154 13.7095 19.6297 13.6289 19.75L13.5447 19.75H4.45526H4.45525C4.02243 19.7501 3.62561 19.7501 3.3028 19.7067C2.94732 19.6589 2.57159 19.5465 2.26257 19.2374C1.95354 18.9284 1.8411 18.5527 1.7933 18.1972C1.7499 17.8744 1.74995 17.4032 1.75 16.9704C1.75 15.5343 2.40039 13.986 3.87859 13.3122Z" fill="currentColor" />
    <path opacity="0.4" d="M4.75 6.5C4.75 4.15279 6.65279 2.25 9 2.25C11.3472 2.25 13.25 4.15279 13.25 6.5C13.25 8.84721 11.3472 10.75 9 10.75C6.65279 10.75 4.75 8.84721 4.75 6.5Z" fill="currentColor" />
</svg>