<svg xmlns="http://www.w3.org/2000/svg" width="24" height="24" viewBox="0 0 24 24" fill="none">
    <path opacity="0.4" d="M13.0879 5.125C13.8078 5.12499 14.4134 5.12525 14.917 5.1709C15.4505 5.21928 15.9386 5.32284 16.4121 5.56836C16.8856 5.81388 17.2487 6.15099 17.5908 6.55664C17.989 7.02876 18.3349 7.54454 18.6875 8.05078C19.2155 8.80876 19.8618 9.41179 20.6426 9.90137C21.3997 10.3757 22.0484 10.7826 22.4121 11.4619C22.6055 11.823 22.6828 12.1894 22.7178 12.5645C22.7586 13.0022 22.75 13.4437 22.75 13.8828C22.7501 14.4906 22.7501 15.0371 22.6914 15.4805C22.6275 15.9635 22.4794 16.4614 22.0781 16.877C21.8293 17.1347 21.5357 17.3096 21.2354 17.416C21.0157 17.4938 20.9055 17.5329 20.8203 17.4707C20.7355 17.4084 20.7396 17.2691 20.748 16.9912C20.8114 14.905 19.089 13.125 17 13.125C14.9289 13.125 13.25 14.8039 13.25 16.875C13.25 17.0469 13.2618 17.2161 13.2842 17.3818C13.3013 17.5084 13.2078 17.625 13.0801 17.625H10.9199C10.7922 17.625 10.6987 17.5084 10.7158 17.3818C10.7382 17.2161 10.75 17.0469 10.75 16.875C10.75 14.8039 9.07107 13.125 7 13.125C4.92893 13.125 3.25 14.8039 3.25 16.875C3.25 17.0129 3.11076 17.1134 2.9834 17.0605L1.84668 16.5879C1.48522 16.4374 1.25009 16.0883 1.25 15.7021C1.25 12.5175 1.73904 10.6185 2.40527 9.03613C2.54852 8.69592 2.71214 8.22833 2.80078 7.96973C2.86485 7.78282 2.86322 7.77005 2.74707 7.61426C2.58683 7.39934 2.312 7.04859 2.22754 7.04785C1.68793 7.04785 1.2502 6.61779 1.25 6.08691C1.25 5.55587 1.68781 5.125 2.22754 5.125H13.0879Z" fill="currentColor" />
    <path d="M7 14.375C8.38069 14.375 9.49997 15.4944 9.5 16.875C9.5 18.2558 8.38071 19.375 7 19.375C5.61929 19.375 4.5 18.2558 4.5 16.875C4.50003 15.4944 5.61931 14.375 7 14.375ZM17 14.375C18.3807 14.375 19.5 15.4944 19.5 16.875C19.5 18.2558 18.3807 19.375 17 19.375C15.6193 19.375 14.5 18.2558 14.5 16.875C14.5 15.4944 15.6193 14.375 17 14.375ZM12.8018 7.04691C13.5368 7.04832 14.4161 7.05472 14.7393 7.08402C15.1227 7.11881 15.3339 7.18149 15.502 7.26859C15.67 7.3557 15.842 7.49172 16.0879 7.78324C16.3466 8.09002 16.6384 8.50828 17.0762 9.13676C17.32 9.48678 17.5719 9.80465 17.8418 10.0987C18.1695 10.4556 18.3328 10.6344 18.2803 10.7539C18.2277 10.8734 17.9967 10.8741 17.5342 10.8741H14.4111C13.7213 10.8741 13.1206 10.4031 12.9551 9.73344L12.4141 7.54301C12.3577 7.31471 12.3287 7.19982 12.3887 7.12309C12.4489 7.04635 12.5668 7.04647 12.8018 7.04691Z" fill="currentColor" />
</svg>