<svg xmlns="http://www.w3.org/2000/svg" width="24" height="24" viewBox="0 0 24 24" fill="none">
    <path d="M12.5 11C12.5 9.34315 11.1569 8 9.5 8C7.84315 8 6.5 9.34315 6.5 11C6.5 12.6569 7.84315 14 9.5 14C11.1569 14 12.5 12.6569 12.5 11ZM14.5 11C14.5 13.7614 12.2614 16 9.5 16C6.73858 16 4.5 13.7614 4.5 11C4.5 8.23858 6.73858 6 9.5 6C12.2614 6 14.5 8.23858 14.5 11Z" fill="currentColor" />
    <path d="M17.293 1.79289C17.6835 1.40237 18.3165 1.40237 18.707 1.79289C19.0975 2.18342 19.0975 2.81643 18.707 3.20696L13.207 8.70696C12.8165 9.09748 12.1835 9.09748 11.793 8.70696C11.4024 8.31643 11.4024 7.68342 11.793 7.29289L17.293 1.79289Z" fill="currentColor" />
    <path d="M8.5 22V20.5H7C6.44772 20.5 6 20.0523 6 19.5C6 18.9477 6.44772 18.5 7 18.5H8.5V15C8.5 14.4477 8.94772 14 9.5 14C10.0523 14 10.5 14.4477 10.5 15V18.5H12C12.5523 18.5 13 18.9477 13 19.5C13 20.0523 12.5523 20.5 12 20.5H10.5V22C10.5 22.5523 10.0523 23 9.5 23C8.94772 23 8.5 22.5523 8.5 22Z" fill="currentColor" />
    <path d="M17.4119 1.01465C17.6551 1.02969 17.912 1.05867 18.1482 1.11719C18.3533 1.16802 18.6909 1.27517 18.9578 1.54199C19.2246 1.80882 19.3317 2.14649 19.3826 2.35156C19.4411 2.58772 19.4701 2.84461 19.4851 3.08789C19.5154 3.57749 19.4949 4.14242 19.4587 4.65527C19.4221 5.17459 19.3671 5.67188 19.322 6.03711C19.2994 6.22037 19.2792 6.37208 19.2644 6.47852C19.257 6.53152 19.2511 6.57342 19.2468 6.60254C19.2447 6.61708 19.2431 6.62879 19.2419 6.63672C19.2413 6.64069 19.2403 6.64426 19.24 6.64649V6.64942L19.239 6.65039C19.1559 7.1962 18.6462 7.57113 18.1003 7.48828C17.5546 7.40519 17.1796 6.89549 17.2624 6.34961L17.2673 6.31445C17.271 6.28926 17.2762 6.2509 17.283 6.20215C17.2966 6.10458 17.3155 5.96343 17.3367 5.79199C17.3791 5.44788 17.4302 4.98775 17.4636 4.51465C17.4975 4.03479 17.5113 3.5709 17.489 3.21094C17.4847 3.14131 17.4775 3.08037 17.4714 3.02734C17.4187 3.02133 17.358 3.01502 17.2888 3.01074C16.9288 2.98849 16.465 3.0023 15.9851 3.03613C15.512 3.06951 15.0519 3.12065 14.7078 3.16309C14.5363 3.18423 14.3952 3.2032 14.2976 3.2168C14.2488 3.22359 14.2105 3.22875 14.1853 3.23242L14.1511 3.23731L14.0476 3.24805C13.5417 3.27289 13.0894 2.91094 13.0115 2.39942C12.9286 1.85348 13.3035 1.34276 13.8494 1.25977H13.8533C13.8555 1.25943 13.8591 1.2584 13.863 1.25781C13.871 1.25663 13.8827 1.25505 13.8972 1.25293C13.9263 1.24868 13.9682 1.24274 14.0212 1.23535C14.1277 1.22052 14.2794 1.20034 14.4626 1.17774C14.8279 1.13269 15.3252 1.07765 15.8445 1.04102C16.3573 1.00485 16.9223 0.984395 17.4119 1.01465Z" fill="currentColor" />
</svg>