<svg xmlns="http://www.w3.org/2000/svg" width="24" height="24" viewBox="0 0 24 24" fill="none">
    <path d="M1.25 11.9997C1.25 12.642 1.59027 13.2325 2.1377 13.5564L2.25 13.6179L3.15625 14.07L1.65039 15.1999C1.20862 15.5312 1.11896 16.1575 1.4502 16.5993C1.78153 17.0411 2.40779 17.1308 2.84961 16.7995L4.49219 15.5681C4.96921 15.2103 5.25 14.6487 5.25 14.0525C5.24998 13.335 4.84475 12.6791 4.20312 12.3581L3.48633 11.9997L4.20312 11.6413C4.80462 11.3404 5.1982 10.7451 5.24512 10.0808L5.25 9.94698L5.2373 9.7253C5.17706 9.21346 4.9096 8.74442 4.49219 8.43136L2.84961 7.19991C2.40779 6.86868 1.78153 6.95833 1.4502 7.40011C1.11896 7.84193 1.20861 8.46819 1.65039 8.79952L3.15625 9.92843L2.25 10.3816L2.1377 10.4431C1.59027 10.7669 1.25 11.3574 1.25 11.9997Z" fill="currentColor" />
    <path opacity="0.4" d="M22.75 11.9997C22.75 12.642 22.4097 13.2325 21.8623 13.5564L21.75 13.6179L20.8438 14.07L22.3496 15.1999C22.7914 15.5312 22.881 16.1575 22.5498 16.5993C22.2185 17.0411 21.5922 17.1308 21.1504 16.7995L19.5078 15.5681C19.0308 15.2103 18.75 14.6487 18.75 14.0525C18.75 13.335 19.1553 12.6791 19.7969 12.3581L20.5137 11.9997L19.7969 11.6413C19.1954 11.3404 18.8018 10.7451 18.7549 10.0808L18.75 9.94698L18.7627 9.7253C18.8229 9.21346 19.0904 8.74442 19.5078 8.43136L21.1504 7.19991C21.5922 6.86868 22.2185 6.95833 22.5498 7.40011C22.881 7.84193 22.7914 8.46819 22.3496 8.79952L20.8438 9.92843L21.75 10.3816L21.8623 10.4431C22.4097 10.7669 22.75 11.3574 22.75 11.9997Z" fill="currentColor" />
    <path opacity="0.4" d="M11.963 3.25C10.8235 3.24999 9.89298 3.24998 9.15895 3.34863C8.43915 3.44541 7.80948 3.64818 7.29688 4.11351L17.7517 14.5684L17.7517 9V8.96127C17.7517 7.82177 17.7517 6.89126 17.6531 6.15723C17.5504 5.39328 17.3283 4.73084 16.7996 4.20215C16.2709 3.67346 15.6084 3.45134 14.8445 3.34863C14.1105 3.24998 13.1799 3.24999 12.0404 3.25H12.0017H11.963Z" fill="currentColor" />
    <path d="M16.7979 19.7982C17.3265 19.2695 17.5487 18.6071 17.6514 17.8431C17.6589 17.7874 17.6658 17.7305 17.6722 17.6725L6.32783 6.32812C6.24998 7.03407 6.24999 7.90862 6.25 8.96163V9.00036V15.0004V15.0391C6.24999 16.1786 6.24998 17.1091 6.34863 17.8431C6.45134 18.6071 6.67346 19.2695 7.20215 19.7982C7.73084 20.3269 8.39328 20.549 9.15723 20.6517C9.89126 20.7504 10.8218 20.7504 11.9613 20.7504H12H12.0387C13.1782 20.7504 14.1087 20.7504 14.8428 20.6517C15.6067 20.549 16.2692 20.3269 16.7979 19.7982Z" fill="currentColor" />
    <path d="M1.29295 1.29289C1.68348 0.902369 2.31649 0.902369 2.70702 1.29289L22.707 21.2929C23.0975 21.6834 23.0975 22.3164 22.707 22.707C22.3165 23.0975 21.6835 23.0975 21.293 22.707L1.29295 2.70696C0.90243 2.31643 0.90243 1.68342 1.29295 1.29289Z" fill="currentColor" />
</svg>