<svg xmlns="http://www.w3.org/2000/svg" width="24" height="24" viewBox="0 0 24 24" fill="none">
    <path opacity="0.4" d="M10.0723 3C11.6607 2.99997 12.9539 2.99963 13.9736 3.13672C15.0376 3.27977 15.9523 3.58903 16.6816 4.31836C17.411 5.04769 17.7202 5.96238 17.8633 7.02637C18.0004 8.04615 18 9.33924 18 10.9277V13.0723C18 14.6608 18.0004 15.9539 17.8633 16.9736C17.7202 18.0376 17.411 18.9523 16.6816 19.6816C15.9523 20.411 15.0376 20.7202 13.9736 20.8633C12.9539 21.0004 11.6608 21 10.0723 21H8.92773C7.33924 21 6.04615 21.0004 5.02637 20.8633C3.96238 20.7202 3.04769 20.411 2.31836 19.6816C1.58903 18.9523 1.27977 18.0376 1.13672 16.9736C0.999627 15.9539 0.999971 14.6607 1 13.0723V10.9277C0.999971 9.33924 0.999626 8.04615 1.13672 7.02637C1.27977 5.96238 1.58903 5.04769 2.31836 4.31836C3.04769 3.58903 3.96238 3.27977 5.02637 3.13672C6.04614 2.99963 7.33925 2.99997 8.92773 3H10.0723Z" fill="currentColor" />
    <path d="M19.0947 6.03583C19.7949 5.61286 20.6822 5.25844 21.5928 5.70966C22.4893 6.15408 22.7672 7.06524 22.8828 7.88251C22.999 8.70414 22.9991 9.81027 22.999 11.1383V12.8639C22.9991 14.192 22.999 15.2982 22.8828 16.1198C22.7672 16.937 22.4893 17.8482 21.5928 18.2926C20.6823 18.7438 19.7949 18.3894 19.0947 17.9665C18.7208 17.7406 18.3058 17.437 17.8477 17.0768C17.8526 17.0432 17.8577 17.0092 17.8623 16.9753C17.9519 16.3088 17.9824 15.5249 17.9932 14.6188C18.9509 15.408 19.6128 15.9427 20.1289 16.2546C20.4001 16.4183 20.5639 16.4771 20.6533 16.4948C20.673 16.4987 20.6864 16.5002 20.6943 16.5006H20.7051C20.7086 16.4989 20.7109 16.4967 20.7109 16.4967C20.7138 16.4938 20.7287 16.4769 20.75 16.4352C20.7978 16.3416 20.8565 16.1636 20.9023 15.8395C20.9963 15.1752 20.999 14.2131 20.999 12.7829V11.2194C20.999 9.78921 20.9963 8.82709 20.9023 8.16279C20.8565 7.83884 20.7978 7.66072 20.75 7.56708C20.7287 7.52549 20.7138 7.50954 20.7109 7.50654C20.7109 7.50654 20.7093 7.50377 20.7051 7.50165L20.7031 7.50068C20.7031 7.50068 20.6981 7.50146 20.6943 7.50165C20.6864 7.50206 20.6729 7.50267 20.6533 7.50654C20.5639 7.52423 20.4001 7.58392 20.1289 7.74775C19.6128 8.05956 18.9509 8.59432 17.9932 9.38349C17.9824 8.47747 17.9519 7.69347 17.8623 7.02704C17.8577 6.99307 17.8526 6.95915 17.8477 6.92548C18.3059 6.56523 18.7208 6.26176 19.0947 6.03583ZM11.5 7.9997C12.3284 7.9997 13 8.67129 13 9.4997C13 10.3281 12.3284 10.9997 11.5 10.9997C10.6716 10.9997 10 10.3281 10 9.4997C10 8.67129 10.6716 7.9997 11.5 7.9997Z" fill="currentColor" />
</svg>