<svg xmlns="http://www.w3.org/2000/svg" width="24" height="24" viewBox="0 0 24 24" fill="none">
    <path opacity="0.4" d="M12.75 21C12.75 21.4142 12.4142 21.75 12 21.75H6.95308C6.05238 21.75 5.30091 21.75 4.70504 21.6699C4.07751 21.5855 3.51093 21.3996 3.05562 20.9443C2.60049 20.489 2.41445 19.9224 2.33004 19.2949C2.24998 18.699 2.24994 17.9474 2.24996 17.0469V13.75H12.75V21ZM12.7441 2.2949C13.133 2.1538 13.5633 2.35548 13.7051 2.74412C13.8463 3.13325 13.6449 3.56354 13.2559 3.70506L12.75 3.88865V12.25H2.24996V7.70603C1.86231 7.84327 1.43569 7.64307 1.29488 7.25584C1.15418 6.86692 1.35532 6.43637 1.7441 6.2949L12.7441 2.2949Z" fill="currentColor" />
    <path d="M7.5 17.25C7.91421 17.25 8.25 17.5858 8.25 18V21.75H6.75V18C6.75 17.5858 7.08579 17.25 7.5 17.25ZM22 8.25C22.4142 8.25 22.75 8.58579 22.75 9C22.75 9.41421 22.4142 9.75 22 9.75H20.75V12.2588C20.9104 12.2648 21.0605 12.2746 21.1973 12.293C21.5527 12.3408 21.9283 12.4537 22.2373 12.7627C22.5463 13.0717 22.6592 13.4473 22.707 13.8027C22.7519 14.1366 22.75 14.5498 22.75 15V17.0469C22.75 17.9476 22.75 18.699 22.6699 19.2949C22.5855 19.9225 22.3997 20.489 21.9443 20.9443C21.489 21.3997 20.9225 21.5855 20.2949 21.6699C19.699 21.75 18.9476 21.75 18.0469 21.75H14V12.25H15.25V9.75H14V8.25H22ZM16.75 12.25H19.25V9.75H16.75V12.25Z" fill="currentColor" />
</svg>