<svg xmlns="http://www.w3.org/2000/svg" width="24" height="24" viewBox="0 0 24 24" fill="none">
    <path d="M20.375 3.11667H19.4375V6.38333H19.9062C20.424 6.38333 20.8438 6.8012 20.8438 7.31667C20.8438 7.83213 20.424 8.25 19.9062 8.25H17.0938C16.576 8.25 16.1562 7.83213 16.1562 7.31667C16.1562 6.8012 16.576 6.38333 17.0938 6.38333H17.5625V3.11667H16.625C16.625 3.63213 16.2053 4.05 15.6875 4.05C15.1697 4.05 14.75 3.63213 14.75 3.11667C14.75 2.08574 15.5895 1.25 16.625 1.25H20.375C21.4105 1.25 22.25 2.08574 22.25 3.11667C22.25 3.63213 21.8303 4.05 21.3125 4.05C20.7947 4.05 20.375 3.63213 20.375 3.11667Z" fill="currentColor" />
    <path opacity="0.4" d="M13.874 1.63477C13.299 1.38757 12.6656 1.25 12 1.25C9.37665 1.25 7.25 3.37665 7.25 6V11C7.25 13.6234 9.37665 15.75 12 15.75C14.6234 15.75 16.75 13.6234 16.75 11V9.4707C15.709 9.30617 14.9062 8.40967 14.9062 7.31641V5.15622C14.0861 4.8429 13.5 4.05054 13.5 3.11621C13.5001 2.57945 13.6352 2.07481 13.874 1.63477Z" fill="currentColor" />
    <path d="M18.862 11.2534C19.3952 11.2973 19.791 11.7601 19.7466 12.2875C19.445 15.8673 16.5417 18.655 12.9688 18.8969V20.8333H14.9064C15.4414 20.8333 15.8752 21.2623 15.8752 21.7916C15.8752 22.3209 15.4414 22.75 14.9064 22.75H9.09361C8.55855 22.75 8.12481 22.3209 8.12481 21.7916C8.12481 21.2623 8.55855 20.8333 9.09361 20.8333H11.0312V18.8969C7.45826 18.655 4.55496 15.8673 4.2534 12.2875C4.20897 11.7601 4.60479 11.2973 5.138 11.2534C5.6712 11.2094 6.139 11.601 6.18343 12.1284C6.41538 14.8818 8.74249 16.9997 11.5355 16.9998H12.4645C15.2575 16.9997 17.5846 14.8818 17.8166 12.1284C17.861 11.601 18.3288 11.2094 18.862 11.2534Z" fill="currentColor" />
</svg>