<svg xmlns="http://www.w3.org/2000/svg" width="24" height="24" viewBox="0 0 24 24" fill="none">
    <path d="M18.862 11.2534C19.3952 11.2973 19.791 11.7601 19.7466 12.2875C19.445 15.8673 16.5417 18.655 12.9688 18.8969V20.8333H14.9064C15.4414 20.8333 15.8752 21.2623 15.8752 21.7916C15.8752 22.3209 15.4414 22.75 14.9064 22.75H9.09361C8.55855 22.75 8.12481 22.3209 8.12481 21.7916C8.12481 21.2623 8.55855 20.8333 9.09361 20.8333H11.0312V18.8969C7.45826 18.655 4.55496 15.8673 4.2534 12.2875C4.20897 11.7601 4.60479 11.2973 5.138 11.2534C5.6712 11.2094 6.139 11.601 6.18343 12.1284C6.41538 14.8818 8.74249 16.9997 11.5355 16.9998H12.4645C15.2575 16.9997 17.5846 14.8818 17.8166 12.1284C17.861 11.601 18.3288 11.2094 18.862 11.2534Z" fill="currentColor" />
    <path d="M21.707 5.19728C21.7519 4.86337 21.75 4.45021 21.75 4.00001C21.75 3.54981 21.7519 3.13665 21.707 2.80275C21.6592 2.44727 21.5463 2.07173 21.2373 1.76271C20.9283 1.45369 20.5528 1.34077 20.1973 1.29298C19.8634 1.24809 19.4502 1.25001 19 1.25001H17C16.5498 1.25001 16.1367 1.24809 15.8027 1.29298C15.4473 1.34077 15.0717 1.45369 14.7627 1.76271C14.4537 2.07173 14.3408 2.44727 14.293 2.80275C14.2481 3.13665 14.25 3.54981 14.25 4.00001V7.50001C14.25 7.78409 14.411 8.04387 14.6651 8.17091C14.9191 8.29773 15.2231 8.26998 15.4502 8.09962L17.25 6.75001H19C19.4502 6.75001 19.8634 6.75194 20.1973 6.70704C20.5528 6.65925 20.9283 6.54634 21.2373 6.23732C21.5463 5.9283 21.6592 5.55275 21.707 5.19728Z" fill="currentColor" />
    <path opacity="0.4" d="M12 1.25C12.4989 1.25 12.9799 1.32709 13.4316 1.46973C13.1964 1.88482 13.0985 2.30255 13.0537 2.63574C12.995 3.0721 13 3.58447 13 4V7.5C13 8.25872 13.43 8.9508 14.1064 9.28906L14.2354 9.34766C14.8854 9.61684 15.633 9.52499 16.2002 9.09961L16.75 8.68652V11C16.75 13.6234 14.6234 15.75 12 15.75C9.37665 15.75 7.25 13.6234 7.25 11V6C7.25 3.37665 9.37665 1.25 12 1.25Z" fill="currentColor" />
</svg>