<svg xmlns="http://www.w3.org/2000/svg" width="24" height="24" viewBox="0 0 24 24" fill="none">
    <path opacity="0.4" d="M18.75 19.75H5.25V11V10.9356C5.24997 9.57252 5.24995 8.47333 5.36621 7.6084C5.48723 6.70829 5.74672 5.95055 6.34863 5.34863C6.95055 4.74672 7.70829 4.48723 8.6084 4.36621C9.47333 4.24995 10.5725 4.24997 11.9356 4.25H12H12.0644C13.4275 4.24997 14.5267 4.24995 15.3916 4.36621C16.2917 4.48723 17.0495 4.74672 17.6514 5.34863C18.2533 5.95055 18.5128 6.70829 18.6338 7.6084C18.7501 8.47331 18.75 9.57248 18.75 10.9355V11V19.75Z" fill="currentColor" />
    <path d="M21 17.75C21.5523 17.75 22 18.1977 22 18.75C22 19.3023 21.5523 19.75 21 19.75H3C2.44772 19.75 2 19.3023 2 18.75C2 18.1977 2.44772 17.75 3 17.75H21Z" fill="currentColor" />
    <path d="M13.4914 9.13911C13.9669 8.85824 14.5806 9.01614 14.8615 9.49164C15.1423 9.96716 14.9844 10.5809 14.5089 10.8618C13.6045 11.396 13.0486 12.1187 12.6984 12.6801C12.6108 12.8205 12.5368 12.9506 12.4708 13.0678C12.4125 13.1715 12.3396 13.3034 12.2824 13.3969C12.2536 13.444 12.2074 13.5177 12.1486 13.5903C12.1278 13.616 11.9519 13.8491 11.632 13.9516C11.4195 14.0197 11.1427 14.0293 10.8712 13.8969C10.6284 13.7785 10.4967 13.5974 10.4347 13.4926C10.4106 13.4518 10.3912 13.4108 10.3742 13.3715C10.295 13.2723 10.1816 13.1521 10.046 13.0336C9.862 12.8727 9.69903 12.7693 9.60366 12.728C9.09684 12.5088 8.86325 11.9204 9.08218 11.4135C9.3013 10.9067 9.88977 10.6731 10.3966 10.892C10.6695 11.01 10.934 11.1831 11.1662 11.3657C11.626 10.6814 12.3549 9.81034 13.4914 9.13911Z" fill="currentColor" />
</svg>