<svg xmlns="http://www.w3.org/2000/svg" width="24" height="24" viewBox="0 0 24 24" fill="none">
    <path opacity="0.4" d="M21.7373 16.7486C21.7267 17.2577 21.7051 17.7163 21.6631 18.1266L20.2852 16.7486H21.7373ZM13.8975 2.24862C14.7371 2.24861 15.3474 2.24094 15.8721 2.37362L16.1201 2.4449C17.3401 2.83744 18.2805 3.78042 18.6172 4.96639L18.6641 5.15584C18.7375 5.51542 18.7475 5.92303 18.749 6.42244C19.4937 6.56269 20.2403 6.94116 20.7607 7.46151C21.2855 8.04391 21.5203 8.76339 21.6338 9.60701C21.6976 10.0818 21.7243 10.6277 21.7373 11.2486H19C18.6354 11.2486 18.1995 11.2713 17.918 11.3258C17.1901 11.5208 16.611 12.0659 16.3701 12.773C16.3659 12.7889 16.3634 12.806 16.3594 12.8229L9.95801 6.42147H16.7979V6.40779C16.7979 6.10082 16.7979 5.94484 16.7803 5.81404C16.6599 4.92145 15.9571 4.21841 15.0645 4.09822C14.9336 4.08065 14.7779 4.08064 14.4707 4.08065H7.61719L5.78516 2.24862H13.8975Z" fill="currentColor" />
    <path d="M1.5429 1.54143C1.93342 1.15091 2.56644 1.15091 2.95696 1.54143L22.4569 21.0414C22.8475 21.4319 22.8475 22.0649 22.4569 22.4555C22.0664 22.846 21.4334 22.846 21.0429 22.4555L19.7948 21.2074C19.3615 21.4199 18.8823 21.5643 18.3915 21.6303C17.5266 21.7465 16.4274 21.7465 15.0644 21.7465H8.93548C7.57242 21.7465 6.47324 21.7465 5.60833 21.6303C4.76452 21.5168 3.93106 21.1727 3.34856 20.6478C2.74686 20.046 2.48714 19.288 2.36614 18.3881C2.24995 17.5232 2.2499 16.4237 2.24993 15.0609V4.99651C2.25002 4.60789 2.33698 4.23882 2.49114 3.90374L1.5429 2.9555C1.15237 2.56497 1.15237 1.93196 1.5429 1.54143ZM21.7499 12.7484V15.2484H18.9999C18.9203 15.2484 18.8468 15.2445 18.7802 15.2436L17.7519 14.2152C17.7508 14.1524 17.7499 14.0805 17.7499 13.9984C17.7499 13.4854 17.7562 13.3754 17.7753 13.3041C17.7756 13.0997 18.129 12.7622 18.372 12.7621C18.4569 12.7522 18.6147 12.7484 18.9999 12.7484H21.7499Z" fill="currentColor" />
</svg>