<svg xmlns="http://www.w3.org/2000/svg" width="24" height="24" viewBox="0 0 24 24" fill="none">
    <path opacity="0.4" d="M6.19729 10.75C6.96521 10.75 7.16995 10.7603 7.34182 10.8203C7.46401 10.863 7.5793 10.924 7.68264 11.002C7.82798 11.1117 8.00946 11.3657 8.43557 12.0049C8.77326 12.5123 9.03922 12.9124 9.41408 13.1953C9.64146 13.3669 9.89422 13.5017 10.1631 13.5957C10.6064 13.7507 11.0867 13.7505 11.6963 13.75H12.3037C12.9133 13.7505 13.3936 13.7507 13.8369 13.5957C14.1058 13.5017 14.3586 13.3669 14.5859 13.1953C14.9608 12.9124 15.2863 12.4235 15.624 11.916C16.0501 11.2769 16.172 11.1117 16.3174 11.002C16.4207 10.924 16.536 10.863 16.6582 10.8203C16.8301 10.7603 17.0348 10.75 17.8027 10.75H22.748C22.7503 11.1675 22.75 11.6041 22.75 12.0566C22.75 13.8943 22.7498 15.3501 22.5967 16.4893C22.439 17.6616 22.1067 18.6101 21.3584 19.3584C20.6101 20.1067 19.6616 20.439 18.4893 20.5967C17.3501 20.7498 15.8943 20.75 14.0566 20.75H9.94338C8.10573 20.75 6.64993 20.7498 5.51076 20.5967C4.33846 20.439 3.38993 20.1067 2.64162 19.3584C1.89331 18.6101 1.56098 17.6616 1.40334 16.4893C1.25018 15.3501 1.25 13.8943 1.25002 12.0566C1.25002 11.6041 1.24969 11.1675 1.25197 10.75H6.19729ZM14.0566 3.25C15.8943 3.24998 17.3501 3.25016 18.4893 3.40332C19.6616 3.56096 20.6101 3.89329 21.3584 4.6416C22.1067 5.38991 22.439 6.33844 22.5967 7.51074C22.6641 8.01189 22.7015 8.59634 22.7227 9.25H17.6963C17.0867 9.24949 16.6064 9.24934 16.1631 9.4043C15.8942 9.49827 15.6414 9.63315 15.4141 9.80469C15.0392 10.0876 14.7732 10.4877 14.4355 10.9951C14.0094 11.6343 13.828 11.8883 13.6826 11.998C13.5792 12.076 13.464 12.137 13.3418 12.1797C13.1699 12.2397 12.9653 12.25 12.1973 12.25H11.8027C11.0347 12.25 10.8301 12.2397 10.6582 12.1797C10.536 12.137 10.4208 12.076 10.3174 11.998C10.172 11.8883 9.9906 11.6343 9.56447 10.9951C9.22682 10.4877 8.9608 10.0876 8.58596 9.80469C8.35859 9.63315 8.1058 9.49827 7.83693 9.4043C7.39358 9.24934 6.91327 9.24949 6.30373 9.25H1.27736C1.2985 8.59634 1.33596 8.01188 1.40334 7.51074C1.56098 6.33844 1.89331 5.38991 2.64162 4.6416C3.38993 3.89329 4.33846 3.56096 5.51076 3.40332C6.64993 3.25016 8.10573 3.24998 9.94338 3.25H14.0566Z" fill="currentColor" />
    <path d="M14.0566 3.25C15.8943 3.24998 17.3501 3.25018 18.4893 3.40332C19.6617 3.56095 20.611 3.89324 21.3594 4.6416C22.1075 5.38988 22.44 6.33854 22.5977 7.51074C22.665 8.01189 22.7025 8.59634 22.7236 9.25H17.6963C17.0867 9.24949 16.6064 9.24934 16.1631 9.4043C15.8943 9.49831 15.6414 9.63314 15.4141 9.80469C15.0392 10.0876 14.7732 10.4877 14.4355 10.9951C14.0096 11.634 13.8289 11.8883 13.6836 11.998C13.5803 12.076 13.4649 12.1369 13.3428 12.1797C13.1709 12.2398 12.9655 12.25 12.1973 12.25H11.8037C11.0355 12.25 10.8301 12.2398 10.6582 12.1797C10.536 12.1369 10.4207 12.076 10.3174 11.998C10.1721 11.8883 9.99135 11.634 9.56543 10.9951C9.22774 10.4877 8.96178 10.0876 8.58691 9.80469C8.35959 9.63313 8.10672 9.49831 7.83789 9.4043C7.39455 9.24934 6.9142 9.24949 6.30469 9.25H1.27734C1.29848 8.59634 1.33594 8.01189 1.40332 7.51074C1.56094 6.33853 1.89344 5.38989 2.6416 4.6416C3.38996 3.89324 4.3393 3.56095 5.51172 3.40332C6.65089 3.25019 8.10672 3.24998 9.94434 3.25H14.0566Z" fill="currentColor" />
</svg>