<svg xmlns="http://www.w3.org/2000/svg" width="24" height="24" viewBox="0 0 24 24" fill="none">
    <path opacity="0.4" d="M15.9648 2.25C17.2939 2.24998 18.3894 2.2498 19.2559 2.36523C20.1626 2.48608 20.9633 2.75014 21.6045 3.38574C22.2456 4.02133 22.5119 4.81508 22.6338 5.71387C22.7502 6.57267 22.75 7.65838 22.75 8.97559V11.0244C22.75 12.3416 22.7502 13.4273 22.6338 14.2861C22.5119 15.1849 22.2456 15.9787 21.6045 16.6143C20.9633 17.2499 20.1626 17.5139 19.2559 17.6348C18.3894 17.7502 17.2939 17.75 15.9648 17.75H8.03516C6.7061 17.75 5.61061 17.7502 4.74414 17.6348C3.8374 17.5139 3.03671 17.2499 2.39551 16.6143C1.75439 15.9787 1.48811 15.1849 1.36621 14.2861C1.2498 13.4273 1.24998 12.3416 1.25 11.0244V8.97559C1.24998 7.65838 1.2498 6.57267 1.36621 5.71387C1.48811 4.81508 1.75439 4.02133 2.39551 3.38574C3.03671 2.75014 3.8374 2.48608 4.74414 2.36523C5.61061 2.2498 6.70609 2.24998 8.03516 2.25H15.9648Z" fill="currentColor" />
    <path d="M13.5 19.25C13.5 19.5261 13.7239 19.75 14 19.75H16C16.5523 19.75 17 20.1977 17 20.75C17 21.3023 16.5523 21.75 16 21.75H8C7.44772 21.75 7 21.3023 7 20.75C7 20.1977 7.44772 19.75 8 19.75H10C10.2761 19.75 10.5 19.5261 10.5 19.25V17.75H13.5V19.25ZM15.4902 8C16.1338 8.00011 16.7478 8.27072 17.1826 8.74512L20.7842 12.6738C20.7723 13.2118 20.7481 13.6533 20.6973 14.0283C20.6045 14.7123 20.4402 15.0295 20.2227 15.2451C20.0051 15.4606 19.6849 15.6229 18.9951 15.7148C18.2771 15.8104 17.3183 15.8125 15.9092 15.8125H8.09082C7.74169 15.8125 7.42008 15.8122 7.12305 15.8105L13.8203 8.71973C14.2541 8.26041 14.8584 8 15.4902 8ZM7.5 7C8.32843 7 9 7.67157 9 8.5C9 9.32843 8.32843 10 7.5 10C6.67157 10 6 9.32843 6 8.5C6 7.67157 6.67157 7 7.5 7Z" fill="currentColor" />
</svg>