<svg xmlns="http://www.w3.org/2000/svg" width="24" height="24" viewBox="0 0 24 24" fill="none">
    <path d="M8.29686 8.29289C8.68738 7.90237 9.3204 7.90237 9.71092 8.29289L21.7109 20.2929C22.1014 20.6834 22.1014 21.3164 21.7109 21.707C21.3204 22.0975 20.6874 22.0975 20.2969 21.707L8.29686 9.70696C7.90634 9.31643 7.90634 8.68342 8.29686 8.29289Z" fill="currentColor" />
    <path opacity="0.4" d="M8.00391 5V3C8.00391 2.44772 8.45162 2 9.00391 2C9.55619 2 10.0039 2.44772 10.0039 3V5C10.0039 5.55228 9.55619 6 9.00391 6C8.45162 6 8.00391 5.55228 8.00391 5Z" fill="currentColor" />
    <path opacity="0.4" d="M8.00391 15V13C8.00391 12.4477 8.45162 12 9.00391 12C9.55619 12 10.0039 12.4477 10.0039 13V15C10.0039 15.5523 9.55619 16 9.00391 16C8.45162 16 8.00391 15.5523 8.00391 15Z" fill="currentColor" />
    <path opacity="0.4" d="M15 8.00586C15.5523 8.00586 16 8.45357 16 9.00586C16 9.55814 15.5523 10.0059 15 10.0059H13C12.4477 10.0059 12 9.55814 12 9.00586C12 8.45357 12.4477 8.00586 13 8.00586H15Z" fill="currentColor" />
    <path opacity="0.4" d="M5 8.00586C5.55228 8.00586 6 8.45357 6 9.00586C6 9.55814 5.55228 10.0059 5 10.0059H3C2.44772 10.0059 2 9.55814 2 9.00586C2 8.45357 2.44772 8.00586 3 8.00586H5Z" fill="currentColor" />
    <path opacity="0.4" d="M12.2969 4.29286C12.6874 3.90236 13.3204 3.90241 13.7109 4.29286C14.1015 4.68338 14.1015 5.31639 13.7109 5.70692L12.5313 6.88661C12.1407 7.27713 11.5077 7.27713 11.1172 6.88661C10.7267 6.49607 10.7267 5.86304 11.1172 5.47254L12.2969 4.29286Z" fill="currentColor" />
    <path opacity="0.4" d="M5.45998 11.1288C5.85035 10.7382 6.48337 10.7385 6.87404 11.1288C7.26468 11.5192 7.26536 12.1522 6.87502 12.5429L5.71096 13.7069C5.32059 14.0976 4.68757 14.0982 4.2969 13.7079C3.90626 13.3175 3.90655 12.6845 4.2969 12.2938L5.45998 11.1288Z" fill="currentColor" />
    <path opacity="0.4" d="M4.30174 4.28794C4.69487 3.9002 5.32794 3.90465 5.7158 4.29771L6.87986 5.4774C7.26761 5.87053 7.26316 6.5036 6.8701 6.89146C6.47697 7.2792 5.84389 7.27476 5.45603 6.88169L4.29197 5.70201C3.90423 5.30887 3.90868 4.6758 4.30174 4.28794Z" fill="currentColor" />
</svg>