<svg xmlns="http://www.w3.org/2000/svg" width="24" height="24" viewBox="0 0 24 24" fill="none">
    <path d="M17.9511 18.8765C18.8507 18.9159 19.5622 19.5193 19.9912 19.9009C20.1312 20.0254 20.2315 20.1187 20.3242 20.2046C20.427 20.2999 20.5207 20.3865 20.6494 20.4985C20.8527 20.6756 20.9992 20.7818 21.1103 20.8394C21.136 20.8527 21.1558 20.8614 21.1699 20.8667C21.1913 20.8516 21.2247 20.8236 21.2705 20.7749C21.6484 20.3722 22.2818 20.3521 22.6845 20.73C23.0871 21.1079 23.1072 21.7404 22.7295 22.1431C22.3864 22.5087 21.9653 22.7801 21.4609 22.855C20.963 22.9288 20.5264 22.7897 20.1904 22.6157C19.8628 22.4461 19.5722 22.2131 19.3359 22.0073C19.2211 21.9073 19.0607 21.7604 18.917 21.6284C18.8171 21.5367 18.7256 21.4515 18.6621 21.395C18.1902 20.9753 17.9681 20.8791 17.8633 20.8745C17.8495 20.8738 17.7995 20.872 17.6924 20.9458C17.5639 21.0344 17.365 21.2253 17.1103 21.6148L17.1045 21.6235C16.8133 22.0596 16.449 22.4285 15.9765 22.6255C15.4784 22.8331 14.9945 22.7946 14.5888 22.6577C14.2097 22.5298 13.8783 22.3105 13.6172 22.1157C13.4294 21.9757 13.2293 21.8098 13.0527 21.6636C12.9879 21.6099 12.9259 21.5585 12.8691 21.5122C12.3536 21.0921 12.083 20.9495 11.9092 20.937H11.9072C11.8773 20.9339 11.6078 20.9052 11.1084 21.6567C10.8345 22.0757 10.4736 22.4299 9.99218 22.605C9.50024 22.7837 9.03137 22.7218 8.65526 22.5923C8.29469 22.4681 7.96784 22.2646 7.70214 22.0815C7.52742 21.9611 7.33431 21.8174 7.16014 21.687C7.07829 21.6257 7.0006 21.5674 6.93065 21.5161C6.39943 21.1267 6.09102 20.9724 5.87889 20.9595H5.87499C5.81143 20.9554 5.55169 20.9398 5.11034 21.6148L5.10448 21.6235C4.66772 22.2775 4.00594 22.8558 3.13085 22.856C2.25137 22.856 1.59156 22.2726 1.1621 21.6138C0.860833 21.1512 0.99157 20.5315 1.45409 20.23C1.91673 19.9285 2.53631 20.0594 2.83788 20.522C2.98188 20.7429 3.08531 20.821 3.13182 20.8472C3.17946 20.8215 3.28744 20.7429 3.43944 20.5161C4.11717 19.4816 4.96994 18.9014 5.99901 18.9634C6.87441 19.0162 7.62611 19.5457 8.11327 19.9028C8.22095 19.9818 8.31671 20.0535 8.40624 20.1206C8.55819 20.2345 8.69225 20.3354 8.8369 20.4351C9.05804 20.5874 9.20633 20.6661 9.30663 20.7007L9.32225 20.7065C9.3472 20.6816 9.38601 20.637 9.43553 20.561L9.43944 20.5542C10.1402 19.498 10.9994 18.8677 12.0498 18.9419C12.944 19.0053 13.6803 19.5937 14.1328 19.9624C14.2189 20.0326 14.2974 20.0976 14.3711 20.1587C14.5305 20.2908 14.6679 20.4044 14.8125 20.5122C15.0194 20.6665 15.1498 20.7356 15.2285 20.7622L15.2304 20.7632C15.2663 20.7349 15.3386 20.6664 15.4394 20.5161C16.1053 19.4993 16.9224 18.8314 17.9511 18.8765Z" fill="currentColor" />
    <path opacity="0.4" d="M12.0527 11.4234C13.6448 11.3235 14.9504 11.828 15.958 12.5377C16.137 12.6637 16.3058 12.7962 16.4648 12.9322C16.5224 12.9815 16.5518 13.0058 16.5693 13.0377C16.5919 13.0787 16.5996 13.1305 16.5898 13.1763C16.5822 13.2118 16.5603 13.2455 16.5176 13.3121C15.7338 14.3577 14.4781 15.2884 13.0723 16.0015C11.2752 16.9132 9.06904 17.5546 6.8584 17.6256C6.63595 17.6326 6.41779 17.563 6.24023 17.4293C4.77552 16.325 3.76946 14.9269 3.22656 13.3472C3.18413 13.2234 3.31413 13.114 3.43359 13.1675L3.44629 13.1724C5.06628 13.8667 6.76951 13.9989 8.41309 13.5211C8.42774 13.5172 8.44257 13.5131 8.45703 13.5084C9.62201 13.1617 10.7564 12.5079 11.8096 11.5308C11.8622 11.482 11.8891 11.4576 11.9209 11.4439C11.9526 11.4304 11.9859 11.4276 12.0527 11.4234ZM17.79 14.9097C17.8749 14.8459 18.0063 14.864 18.0703 14.9488C18.0827 14.9652 18.0916 14.9845 18.1094 15.022C18.1198 15.0441 18.1291 15.0655 18.1377 15.0845C18.2763 15.346 18.5046 15.878 18.6953 16.5533C18.7241 16.6551 18.7379 16.7064 18.7246 16.7584C18.7113 16.8103 18.6744 16.848 18.6006 16.9234C18.4464 17.0811 18.2871 17.2341 18.1221 17.3804C17.7204 17.7368 17.1046 17.7007 16.7471 17.3004C16.3896 16.9 16.4255 16.2866 16.8271 15.9302C17.1547 15.6397 17.4561 15.3199 17.7275 14.9752C17.758 14.9402 17.7737 14.9221 17.79 14.9097ZM12.0742 6.91168C13.0477 6.89416 14.2864 7.13476 15.5664 7.66168C17.2008 8.33453 18.8029 9.43535 19.9004 10.897C20.1174 11.1876 20.4693 11.6853 20.8076 12.2213C20.8463 12.2826 20.8844 12.3439 20.9219 12.4049C20.9635 12.4725 20.984 12.5067 20.9902 12.5465C20.9964 12.5864 20.987 12.6254 20.9678 12.7017C20.8013 13.3621 20.5645 13.9946 20.2656 14.5904C20.1128 14.8951 20.0356 15.0474 19.9111 15.0465C19.7869 15.0451 19.7069 14.88 19.5479 14.5504C19.5221 14.4969 19.4979 14.4474 19.4746 14.4029C19.0534 13.4781 18.1543 12.2493 16.8223 11.3111C15.6877 10.5121 14.2254 9.91567 12.4766 9.9107C12.3144 9.91024 12.2334 9.90978 12.1787 9.86578C12.1241 9.82178 12.1066 9.74685 12.0732 9.59625C11.8913 8.77565 11.7753 8.01471 11.7178 7.315C11.703 7.13522 11.6958 7.0452 11.7539 6.98101C11.812 6.91692 11.8996 6.91483 12.0742 6.91168ZM6.91699 2.65191C7.0274 2.57884 7.15639 2.70025 7.0957 2.81793C7.08957 2.82984 7.08361 2.84184 7.07812 2.85406C6.22221 4.76407 5.91963 6.84971 6.04199 8.69879C6.11446 9.79352 6.33881 10.8435 6.71289 11.7388C6.82148 11.9987 6.8762 12.1289 6.81641 12.2183C6.75618 12.3077 6.6275 12.307 6.37109 12.3043C5.58391 12.2958 4.80158 12.1207 4.04297 11.7965C3.74502 11.6619 3.24853 11.389 2.77246 11.0259C2.7705 11.0244 2.76878 11.0225 2.76855 11.0201C2.75607 10.8204 2.75 10.6186 2.75 10.4156C2.75 7.17382 4.40499 4.31444 6.91699 2.65191ZM11.6367 1.13238C11.7625 1.12751 11.828 1.27756 11.7432 1.37066L11.7402 1.37457C10.7016 2.52999 10.1775 4.21695 10.1748 6.29254C10.1733 7.4706 10.3389 8.79149 10.6836 10.2457C10.7108 10.3603 10.7242 10.4181 10.707 10.4713C10.6898 10.5242 10.6476 10.5616 10.5625 10.6353C9.98607 11.1347 9.39179 11.5163 8.78906 11.7877C8.64988 11.8503 8.58014 11.8809 8.50586 11.856C8.43163 11.8311 8.39593 11.7655 8.32422 11.6343C7.91213 10.8805 7.61951 9.82963 7.53809 8.59918C7.43093 6.97915 7.69767 5.14934 8.43848 3.48687C8.63692 3.10267 8.95757 2.49992 9.2832 1.9234C9.34707 1.81032 9.41023 1.70023 9.47168 1.59429C9.51189 1.52498 9.53234 1.48969 9.56445 1.46539C9.59651 1.44126 9.63503 1.43108 9.71094 1.41168C10.3301 1.25345 10.9744 1.15804 11.6367 1.13238ZM13.9131 1.34722C13.9618 1.33402 14.0103 1.345 14.1074 1.36773C18.0595 2.29218 21.0321 5.75983 21.2383 9.94976C21.2415 10.0158 21.1687 10.0495 21.1201 10.0162L21.1006 9.99664C19.8082 8.27492 17.9654 7.0274 16.1377 6.27496C14.7906 5.72038 13.3952 5.41287 12.1816 5.41168C11.955 5.41145 11.842 5.41059 11.7822 5.34136C11.7225 5.27204 11.7378 5.16821 11.7686 4.96051C11.9383 3.81382 12.3286 2.96325 12.8535 2.37847C13.0578 2.1543 13.3897 1.81041 13.7539 1.46441C13.8272 1.39481 13.8643 1.36045 13.9131 1.34722Z" fill="currentColor" />
</svg>