<svg xmlns="http://www.w3.org/2000/svg" width="24" height="24" viewBox="0 0 24 24" fill="none">
    <path opacity="0.4" d="M12 13.4991C13.5705 13.4991 15.0786 14.1156 16.2002 15.215C16.5943 15.6016 16.6004 16.2347 16.2139 16.629C15.8272 17.0231 15.1941 17.0292 14.7998 16.6427C14.0521 15.9099 13.0469 15.4991 12 15.4991C10.9531 15.4991 9.9479 15.9099 9.2002 16.6427C8.80589 17.0292 8.17276 17.0231 7.78614 16.629C7.39964 16.2347 7.4057 15.6016 7.79981 15.215C8.92138 14.1156 10.4295 13.4991 12 13.4991ZM12 8.50012C14.8793 8.50012 17.644 9.62916 19.7002 11.6447C20.0945 12.0313 20.1004 12.6644 19.7139 13.0587C19.3273 13.453 18.6942 13.4589 18.2998 13.0724C16.6175 11.4235 14.3556 10.5001 12 10.5001C9.64438 10.5001 7.38253 11.4235 5.7002 13.0724C5.30584 13.4589 4.67275 13.453 4.28614 13.0587C3.89959 12.6644 3.90555 12.0313 4.29981 11.6447C6.35603 9.62916 9.12072 8.50012 12 8.50012Z" fill="currentColor" />
    <path d="M12 18.25C12.5523 18.25 13 18.6977 13 19.25C13 19.8023 12.5523 20.25 12 20.25C11.4477 20.25 11 19.8023 11 19.25C11 18.6977 11.4477 18.25 12 18.25Z" fill="currentColor" />
</svg>