<svg xmlns="http://www.w3.org/2000/svg" width="24" height="24" viewBox="0 0 24 24" fill="none">
    <path opacity="0.4" d="M7.79276 14.793C9.29415 13.2916 11.3082 12.7167 13.2127 13.1309C13.7521 13.2484 14.0946 13.7808 13.9773 14.3203C13.86 14.86 13.3266 15.2023 12.7869 15.085C11.5672 14.8198 10.2412 15.1727 9.20682 16.207C8.8163 16.5976 8.18328 16.5976 7.79276 16.207C7.40228 15.8165 7.40225 15.1835 7.79276 14.793ZM10.2283 8.15234C12.1649 7.76812 14.1088 8.11457 15.9793 9.1377C16.4638 9.40274 16.6418 10.0106 16.3768 10.4951C16.1117 10.9792 15.5046 11.1572 15.0203 10.8926C13.5132 10.0682 12.0434 9.83151 10.618 10.1143C9.17821 10.3999 7.69069 11.2342 6.20389 12.71C5.81189 13.0988 5.17881 13.096 4.78983 12.7041C4.4011 12.3121 4.40382 11.679 4.79569 11.29C6.48204 9.61633 8.30599 8.53376 10.2283 8.15234ZM11.9998 3C15.6948 2.99998 19.3381 4.4436 22.6453 7.23633C23.0669 7.59271 23.1197 8.22368 22.7635 8.64551C22.4071 9.06706 21.7761 9.11986 21.3543 8.76367C18.3459 6.22338 15.1468 4.99999 11.9998 5C8.85277 5.00002 5.65372 6.22335 2.6453 8.76367C2.22345 9.11989 1.5925 9.06714 1.23612 8.64551C0.879903 8.22367 0.932669 7.59271 1.35428 7.23633C4.66153 4.44355 8.30484 3.00002 11.9998 3Z" fill="currentColor" />
    <path d="M18.5 11C19.9791 11 21.2402 12.1693 21.2402 13.6875V14.5723C21.2652 14.5823 21.2905 14.5924 21.3154 14.6035C21.997 14.907 22.5173 15.4793 22.7842 16.1719C22.9027 16.4796 22.9462 16.7894 22.9658 17.0977C23.0114 17.8159 23.0114 18.559 22.9658 19.2773C22.9462 19.5856 22.9027 19.8954 22.7842 20.2031C22.5173 20.8957 21.997 21.468 21.3154 21.7715C21.0071 21.9088 20.6967 21.9576 20.3984 21.9795C20.1186 22 19.7825 22 19.4043 22H17.5957C17.2175 22 16.8814 22 16.6016 21.9795C16.3033 21.9576 15.9929 21.9088 15.6846 21.7715C15.003 21.468 14.4827 20.8957 14.2158 20.2031C14.0973 19.8954 14.0538 19.5856 14.0342 19.2773C13.9886 18.559 13.9886 17.8159 14.0342 17.0977C14.0538 16.7894 14.0973 16.4796 14.2158 16.1719C14.4827 15.4793 15.003 14.907 15.6846 14.6035C15.7095 14.5924 15.7348 14.5823 15.7598 14.5723V13.6875C15.7598 12.1693 17.0209 11 18.5 11ZM18.5 13C18.0528 13 17.7529 13.3418 17.7529 13.6875V14.375H19.2471V13.6875C19.2471 13.3418 18.9472 13 18.5 13Z" fill="currentColor" />
</svg>