<svg xmlns="http://www.w3.org/2000/svg" width="24" height="24" viewBox="0 0 24 24" fill="none">
    <path opacity="0.4" d="M12.0001 13.7051C13.5348 13.7051 15.0085 14.3032 16.1046 15.3701C16.4898 15.7454 16.496 16.3604 16.1183 16.7432C15.7404 17.1255 15.1217 17.1309 14.7364 16.7559C14.0057 16.0446 13.0232 15.6465 12.0001 15.6465C10.977 15.6465 9.99448 16.0446 9.26378 16.7559C8.87848 17.1309 8.2598 17.1255 7.88195 16.7432C7.50422 16.3604 7.51042 15.7454 7.89562 15.3701C8.99168 14.3032 10.4654 13.7051 12.0001 13.7051ZM12.0001 4C15.8463 4 19.5581 5.40753 22.4249 7.9541C22.8271 8.31148 22.8609 8.9257 22.5011 9.3252C22.1412 9.72451 21.5234 9.75864 21.1212 9.40137C18.6128 7.17315 15.3655 5.94141 12.0001 5.94141C8.63472 5.94141 5.38745 7.17315 2.87902 9.40137C2.4768 9.75864 1.85898 9.72451 1.49913 9.3252C1.13935 8.9257 1.17314 8.31148 1.57531 7.9541C4.44209 5.40753 8.15392 4 12.0001 4Z" fill="currentColor" />
    <path d="M12.1253 18.0801C12.7414 18.1421 13.2229 18.6588 13.2229 19.2871C13.2227 19.9568 12.6755 20.4997 12.0013 20.5C11.3689 20.5 10.8482 20.0228 10.7854 19.4111L10.7796 19.2871L10.7854 19.1621C10.8483 18.5506 11.369 18.0732 12.0013 18.0732L12.1253 18.0801ZM12.0003 8.85254C14.8141 8.85259 17.5162 9.9491 19.5257 11.9053C19.9107 12.2805 19.916 12.8947 19.5384 13.2773C19.1606 13.6599 18.5419 13.667 18.1565 13.292C16.5124 11.6915 14.3025 10.794 12.0003 10.7939C9.69801 10.7939 7.48716 11.6915 5.84303 13.292C5.45758 13.6667 4.83886 13.6599 4.46119 13.2773C4.08366 12.8946 4.08973 12.2805 4.47486 11.9053C6.48435 9.94906 9.1864 8.85254 12.0003 8.85254Z" fill="currentColor" />
</svg>