<svg xmlns="http://www.w3.org/2000/svg" width="24" height="24" viewBox="0 0 24 24" fill="none">
    <path opacity="0.4" d="M7.79276 14.793C9.29416 13.2916 11.3082 12.7167 13.2127 13.1309C13.7521 13.2484 14.0947 13.7808 13.9773 14.3203C13.86 14.86 13.3266 15.2023 12.7869 15.085C11.5671 14.8198 10.2412 15.1726 9.20682 16.207C8.8163 16.5975 8.18328 16.5976 7.79276 16.207C7.40225 15.8165 7.40225 15.1835 7.79276 14.793ZM10.2283 8.15234C12.1649 7.76812 14.1087 8.11456 15.9793 9.1377C16.4638 9.40274 16.6418 10.0106 16.3768 10.4951C16.1117 10.9792 15.5046 11.1572 15.0203 10.8926C13.5132 10.0682 12.0435 9.83149 10.618 10.1143C9.17821 10.3999 7.69069 11.2342 6.20389 12.71C5.81189 13.0987 5.17879 13.096 4.78983 12.7041C4.40107 12.3121 4.40381 11.679 4.79569 11.29C6.48204 9.61631 8.30599 8.53377 10.2283 8.15234ZM11.9998 3C15.6948 2.99998 19.3381 4.4436 22.6453 7.23633C23.0669 7.59271 23.1197 8.22368 22.7635 8.64551C22.4071 9.06706 21.7761 9.11986 21.3543 8.76367C18.3459 6.22338 15.1468 4.99999 11.9998 5C8.85277 5.00002 5.65372 6.22335 2.6453 8.76367C2.22345 9.11989 1.5925 9.06714 1.23612 8.64551C0.879903 8.22367 0.932669 7.59271 1.35428 7.23633C4.66153 4.44355 8.30484 3.00002 11.9998 3Z" fill="currentColor" />
    <path d="M18.5005 11.25C19.169 11.2501 19.783 11.494 20.2554 11.8975C20.5693 12.1656 20.6078 12.6384 20.3413 12.9541C20.0748 13.2696 19.6045 13.3087 19.2906 13.041C19.0787 12.86 18.8036 12.7501 18.5005 12.75C17.8254 12.75 17.2887 13.2941 17.2886 13.9521V14.6113C17.4535 14.6097 17.6296 14.6103 17.8169 14.6104H19.1831C19.6648 14.6103 20.0723 14.6104 20.4058 14.6387C20.7554 14.6683 21.0916 14.7328 21.4097 14.9023C21.8429 15.1333 22.1986 15.488 22.4312 15.9219C22.6023 16.2412 22.6679 16.5786 22.6978 16.9287C22.7675 17.7465 22.7675 18.6141 22.6978 19.4316C22.6679 19.7817 22.6023 20.1191 22.4312 20.4385C22.1986 20.8724 21.8429 21.2271 21.4097 21.458C21.0916 21.6275 20.7554 21.692 20.4058 21.7217C20.0723 21.75 19.6647 21.75 19.1831 21.75H17.8169C17.3353 21.75 16.9278 21.75 16.5943 21.7217C16.2447 21.692 15.9085 21.6275 15.5904 21.458C15.1572 21.2271 14.8015 20.8724 14.5689 20.4385C14.3977 20.1191 14.3322 19.7817 14.3023 19.4316C14.2325 18.6139 14.2326 17.7463 14.3023 16.9287C14.3321 16.5787 14.3978 16.2412 14.5689 15.9219C14.8015 15.488 15.1572 15.1333 15.5904 14.9023C15.6582 14.8662 15.727 14.8349 15.7964 14.8076V13.9521C15.7965 12.4539 17.0134 11.25 18.5005 11.25Z" fill="currentColor" />
</svg>