<svg xmlns="http://www.w3.org/2000/svg" width="24" height="24" viewBox="0 0 24 24" fill="none">
    <path opacity="0.4" d="M12.128 16.5068C12.7585 16.5707 13.251 17.1027 13.251 17.75C13.251 18.4402 12.6912 18.9998 12.001 19C11.3538 19 10.8209 18.5082 10.7569 17.8779L10.751 17.75L10.7569 17.6221C10.8209 16.9918 11.3538 16.5 12.001 16.5L12.128 16.5068ZM12 2C15.9357 2 19.7336 3.45046 22.667 6.07422C23.0785 6.44243 23.1133 7.07473 22.7451 7.48633C22.3769 7.89786 21.7446 7.93356 21.333 7.56543C18.7663 5.26964 15.4437 4 12 4C8.55634 4 5.23378 5.26964 2.66701 7.56543C2.2554 7.93356 1.6231 7.89786 1.2549 7.48633C0.886756 7.07473 0.921511 6.44243 1.33303 6.07422C4.26648 3.45046 8.06438 2 12 2Z" fill="currentColor" />
    <path opacity="0.4" d="M12 7.00012C13.947 7.00012 15.8416 7.51632 17.5 8.47375C17.9783 8.74988 18.1423 9.36167 17.8662 9.83997C17.5901 10.3182 16.9783 10.4822 16.5 10.2062C15.143 9.42275 13.593 9.00012 12 9.00012C9.64438 9.00012 7.38253 9.92354 5.7002 11.5724C5.30584 11.9589 4.67275 11.953 4.28614 11.5587C3.89959 11.1644 3.90555 10.5313 4.29981 10.1447C6.35603 8.12916 9.12072 7.00012 12 7.00012Z" fill="currentColor" />
    <path opacity="0.4" d="M12 11C12.406 11 12.8081 11.041 13.2002 11.1211C13.7412 11.2316 14.0898 11.7598 13.9795 12.3008C13.869 12.8419 13.3409 13.1915 12.7998 13.0811C12.5385 13.0277 12.2707 13 12 13C10.953 13 9.9479 13.4107 9.20018 14.1436C8.80577 14.5302 8.17272 14.5233 7.78612 14.1289C7.39958 13.7345 7.4054 13.1014 7.79979 12.7148C8.92136 11.6155 10.4295 11 12 11Z" fill="currentColor" />
    <path d="M20 17C20 16.7274 19.9278 16.4742 19.8028 16.2559C19.5426 15.8021 19.0561 15.5 18.5 15.5C17.944 15.5 17.4574 15.8021 17.1973 16.2559C17.0723 16.4742 17 16.7274 17 17C17 17.2723 17.0715 17.525 17.1963 17.7432C17.4563 18.1973 17.9437 18.5 18.5 18.5C19.0563 18.5 19.5437 18.1973 19.8037 17.7432C19.9285 17.525 20 17.2723 20 17ZM22 17C22 17.2731 21.9668 17.539 21.9073 17.7949L22.4961 18.1318C22.9756 18.4059 23.1422 19.0166 22.8682 19.4961C22.5942 19.9755 21.9834 20.1421 21.5039 19.8682L20.9141 19.5312C20.5194 19.9077 20.0373 20.1925 19.5 20.3525V21C19.5 21.5523 19.0523 22 18.5 22C17.9477 22 17.5 21.5523 17.5 21V20.3525C16.9626 20.1924 16.4797 19.9079 16.085 19.5312L15.4961 19.8682C15.0166 20.1421 14.4059 19.9755 14.1319 19.4961C13.8579 19.0166 14.0245 18.4059 14.5039 18.1318L15.0918 17.7949C15.0323 17.5391 15 17.273 15 17C15 16.7266 15.0322 16.4602 15.0918 16.2041L14.5039 15.8682C14.0245 15.5942 13.8579 14.9834 14.1319 14.5039C14.4059 14.0244 15.0166 13.8578 15.4961 14.1318L16.086 14.4678C16.4806 14.0915 16.9629 13.8065 17.5 13.6465V13C17.5 12.4477 17.9477 12 18.5 12C19.0523 12 19.5 12.4477 19.5 13V13.6465C20.0369 13.8064 20.5186 14.0917 20.9131 14.4678L21.5039 14.1318C21.9834 13.8578 22.5942 14.0244 22.8682 14.5039C23.1421 14.9834 22.9756 15.5942 22.4961 15.8682L21.9073 16.2041C21.9669 16.4603 22 16.7266 22 17Z" fill="currentColor" />
</svg>