<svg xmlns="http://www.w3.org/2000/svg" width="24" height="24" viewBox="0 0 24 24" fill="none">
    <path opacity="0.4" d="M8.75665 9.20078C8.85815 10.8623 10.2076 12.1868 11.8797 12.2476L8.53693 15.6744C7.13803 17.1084 4.8616 17.1084 3.46271 15.6744C3.17897 15.3832 3.17906 14.9188 3.46271 14.6275L8.75665 9.20078ZM20.537 14.6265C20.8211 14.9179 20.8211 15.3831 20.537 15.6744C19.1381 17.1084 16.8616 17.1084 15.4627 15.6744L12.1209 12.2476C13.7929 12.1865 15.1426 10.8622 15.244 9.20078L20.537 14.6265ZM15.4627 2.32578C16.8616 0.891732 19.1381 0.891732 20.537 2.32578C20.821 2.61703 20.8209 3.08136 20.537 3.37265L15.244 8.79941C15.1427 7.13791 13.793 5.81368 12.1209 5.75253L15.4627 2.32578ZM3.46271 2.32578C4.8616 0.891732 7.13803 0.891732 8.53693 2.32578L11.8797 5.75253C10.2077 5.81346 8.85726 7.13705 8.75568 8.79843L3.46271 3.37265C3.17899 3.08145 3.17904 2.61701 3.46271 2.32578Z" fill="currentColor" />
    <path d="M14.2578 16.587L14.5176 18.4522C14.6263 19.2238 14.7148 19.8518 14.7412 20.3526C14.768 20.8598 14.7403 21.3467 14.5322 21.7853C14.4266 22.0079 14.279 22.2077 14.0742 22.3663C13.872 22.5229 13.6506 22.6109 13.4375 22.6622C13.0705 22.7506 12.6213 22.7503 12.1865 22.7501H11.8145C11.3796 22.7503 10.9296 22.7506 10.5625 22.6622C10.3495 22.6109 10.128 22.5228 9.92578 22.3663C9.72102 22.2077 9.57342 22.0079 9.46777 21.7853C9.25972 21.3467 9.23203 20.8598 9.25879 20.3526C9.28524 19.8518 9.37368 19.2238 9.48242 18.4522L9.74219 16.587L12 14.2726L14.2578 16.587ZM12 5.75006C13.7949 5.75006 15.25 7.20513 15.25 9.00006C15.25 10.795 13.7949 12.2501 12 12.2501C10.2051 12.2501 8.75 10.795 8.75 9.00006C8.75 7.20513 10.2051 5.75006 12 5.75006Z" fill="currentColor" />
</svg>