<svg xmlns="http://www.w3.org/2000/svg" width="24" height="24" viewBox="0 0 24 24" fill="none">
    <path d="M1.29295 1.29302C1.68348 0.902491 2.31649 0.902491 2.70702 1.29302L22.707 21.293C23.0975 21.6835 23.0975 22.3166 22.707 22.7071C22.3165 23.0976 21.6835 23.0976 21.293 22.7071L1.29295 2.70708C0.90243 2.31655 0.90243 1.68354 1.29295 1.29302Z" fill="currentColor" />
    <path opacity="0.4" d="M13.3464 2.37613C13.9183 2.6321 14.2883 3.22532 14.2883 3.91539V10.173C14.2883 10.2566 14.3172 10.3116 14.3373 10.3355L14.3381 10.3365H17.2261C17.9537 10.3365 18.4353 10.8489 18.6288 11.3566C18.8234 11.8674 18.7985 12.5222 18.4066 13.0504L17.4795 14.3L9.22656 6.04703L11.5875 2.865C12.0315 2.26658 12.7464 2.10762 13.3464 2.37613Z" fill="currentColor" />
    <path d="M12.4101 21.1347C11.9661 21.7331 11.2512 21.8921 10.6512 21.6236C10.0793 21.3676 9.70932 20.7744 9.70932 20.0843V13.8267C9.70932 13.7431 9.68044 13.688 9.66033 13.6642L9.65947 13.6632H6.77151C6.04386 13.6632 5.56235 13.1508 5.36884 12.6431C5.17416 12.1323 5.19905 11.4775 5.59097 10.9492L7.8734 7.87305L16.1264 16.126L12.4101 21.1347Z" fill="currentColor" />
</svg>