<svg xmlns="http://www.w3.org/2000/svg" width="24" height="24" viewBox="0 0 24 24" fill="none">
    <path fill-rule="evenodd" clip-rule="evenodd" d="M6 2C5.44772 2 5 2.44772 5 3C5 5.54633 6.35958 7.7751 8.39242 9C9.44596 8.36518 10.6803 8 12 8C13.3197 8 14.554 8.36518 15.6076 9C17.6404 7.7751 19 5.54633 19 3C19 2.44772 18.5523 2 18 2C17.4477 2 17 2.44772 17 3C17 5.76142 14.7614 8 12 8C9.23858 8 7 5.76142 7 3C7 2.44772 6.55228 2 6 2Z" fill="currentColor" />
    <path opacity="0.4" d="M12 8C10.6803 8 9.44596 8.36518 8.39242 9C6.35958 10.2249 5 12.4537 5 15C5 18.866 8.13401 22 12 22C15.866 22 19 18.866 19 15C19 12.4537 17.6404 10.2249 15.6076 9C14.554 8.36518 13.3197 8 12 8ZM7 15C7 12.2386 9.23858 10 12 10C14.7614 10 17 12.2386 17 15C17 17.7614 14.7614 20 12 20C9.23858 20 7 17.7614 7 15Z" fill="currentColor" />
</svg>