<svg xmlns="http://www.w3.org/2000/svg" width="24" height="24" viewBox="0 0 24 24" fill="none">
    <path d="M4 17V6.99997C4 5.8954 3.10456 4.99996 2 4.99997C1.44772 4.99997 1 4.55225 1 3.99997C1.00001 3.44769 1.44772 2.99997 2 2.99997C4.20914 2.99996 6 4.79083 6 6.99997V17C6 17.5523 5.55228 18 5 18C4.44772 18 4 17.5523 4 17Z" fill="currentColor" />
    <path d="M9 17V6.5C9 5.67157 8.32843 5 7.5 5C6.67157 5 6 5.67157 6 6.5V17C6 17.5523 5.55228 18 5 18C4.44772 18 4 17.5523 4 17V6.5C4 4.567 5.567 3 7.5 3C9.433 3 11 4.567 11 6.5V17C11 17.5523 10.5523 18 10 18C9.44772 18 9 17.5523 9 17Z" fill="currentColor" />
    <path opacity="0.4" d="M23.0059 17.0059C23.0059 17.3833 22.8425 17.698 22.7334 17.8789C22.6079 18.0871 22.4474 18.2891 22.2861 18.4717C21.9613 18.8393 21.5464 19.2244 21.1582 19.5615C20.7651 19.9028 20.375 20.216 20.085 20.4424C19.945 20.5516 19.8267 20.641 19.7415 20.7053L19.7314 20.7129L19.6806 20.7514C19.6609 20.7664 19.6442 20.7791 19.6309 20.7891L19.6035 20.8096L19.5938 20.8164C19.1491 21.1439 18.5218 21.0492 18.1943 20.6045C17.8673 20.1598 17.9627 19.5344 18.4072 19.207L18.5264 19.1172C18.605 19.0578 18.7183 18.9715 18.8545 18.8652C19.1279 18.6519 19.4894 18.3618 19.8477 18.0508L19.9059 18H17C15.3431 18 14 16.6569 14 15V6.5C14 5.67157 13.3284 5 12.5 5C11.6716 5 11 5.67157 11 6.5V17C11 17.5523 10.5523 18 10 18C9.44771 18 9 17.5523 9 17V6.5C9 4.567 10.567 3 12.5 3C14.433 3 16 4.567 16 6.5V15C16 15.5523 16.4477 16 17 16H19.8925L19.8477 15.9609C19.4894 15.6499 19.1279 15.3599 18.8545 15.1465C18.7183 15.0402 18.605 14.9539 18.5264 14.8945L18.4131 14.8096C17.9684 14.4821 17.8678 13.8519 18.1953 13.4072C18.5227 12.9627 19.1481 12.8672 19.5928 13.1943C19.5945 13.1956 19.6005 13.2009 19.6035 13.2031L19.613 13.21C19.6184 13.2138 19.6248 13.2184 19.6318 13.2236C19.6474 13.2353 19.6674 13.2504 19.6915 13.2686L19.7314 13.2988C19.8172 13.3636 19.9393 13.4567 20.085 13.5703C20.3751 13.7968 20.7651 14.1099 21.1582 14.4512C21.5464 14.7883 21.9613 15.1724 22.2861 15.54C22.4474 15.7226 22.6079 15.9246 22.7334 16.1328C22.8425 16.3137 23.0058 16.6284 23.0059 17.0059Z" fill="currentColor" />
</svg>