<svg xmlns="http://www.w3.org/2000/svg" width="24" height="24" viewBox="0 0 24 24" fill="none">
    <path opacity="0.4" d="M16.1426 11.1426C16.1424 8.85467 14.2879 7 12 7C9.71206 7 7.85757 8.85467 7.85742 11.1426C7.85742 11.62 7.93783 12.0768 8.08496 12.501C8.28108 13.0663 8.4498 13.5505 8.54492 13.917C8.59242 14.1 8.63683 14.3098 8.64551 14.5176C8.65355 14.7109 8.63772 15.053 8.41211 15.3701C8.21556 15.6461 7.95123 15.7828 7.75195 15.8535C7.55761 15.9224 7.35821 15.9524 7.19141 15.9688C6.86286 16.001 6.4291 16 5.9541 16H3C2.44772 16 2 15.5523 2 15C2 14.4477 2.44772 14 3 14H5.9541C6.15982 14 6.33321 13.9985 6.48047 13.9971C6.40786 13.7745 6.31414 13.4998 6.19531 13.1572C5.97599 12.525 5.85742 11.8463 5.85742 11.1426C5.85757 7.7501 8.60749 5 12 5C15.3925 5 18.1424 7.7501 18.1426 11.1426C18.1426 11.8463 18.024 12.525 17.8047 13.1572C17.6858 13.4999 17.5912 13.7745 17.5186 13.9971C17.666 13.9986 17.8397 14 18.0459 14H21C21.5523 14 22 14.4477 22 15C22 15.5523 21.5523 16 21 16H18.0459C17.5709 16 17.1371 16.001 16.8086 15.9688C16.6418 15.9524 16.4424 15.9224 16.248 15.8535C16.0488 15.7828 15.7844 15.6461 15.5879 15.3701C15.3623 15.0531 15.3464 14.7109 15.3545 14.5176C15.3632 14.3098 15.4076 14.1 15.4551 13.917C15.5502 13.5505 15.7189 13.0663 15.915 12.501C16.0622 12.0768 16.1426 11.62 16.1426 11.1426Z" fill="currentColor" />
    <path d="M21 17C21.5523 17 22 17.4477 22 18C22 18.5523 21.5523 19 21 19H3C2.44772 19 2 18.5523 2 18C2 17.4477 2.44772 17 3 17H21Z" fill="currentColor" />
</svg>