<svg xmlns="http://www.w3.org/2000/svg" width="24" height="24" viewBox="0 0 24 24" fill="none">
    <path fill-rule="evenodd" clip-rule="evenodd" d="M11.0004 18.3308C11.0004 15.8457 11.3396 13.3813 12.0004 11.0023C11.412 8.88425 10.5687 6.83394 9.48284 4.89718C8.26911 2.73241 5.28562 2.34819 3.54924 4.11788C2.46346 5.22482 2.18947 6.88678 2.87248 8.27901L3.34221 9.23604C3.58546 9.73188 4.18525 9.93633 4.68108 9.69308C5.17667 9.44973 5.3813 8.85091 5.13811 8.35519L4.66838 7.39815C4.36156 6.77274 4.48097 6.02391 4.97698 5.51827C5.78674 4.69297 7.18212 4.88224 7.73869 5.87472C9.87762 9.68965 11.0004 13.9775 11.0004 18.3308Z" fill="currentColor" />
    <path opacity="0.4" d="M14.5176 4.89718C13.4317 6.83392 12.5884 8.88423 12.0001 11.0023C11.3393 13.3813 11.0001 15.8457 11.0001 18.3308L11 19.9997C11 20.552 11.4477 20.9997 12 20.9997C12.5523 20.9997 13 20.552 13 19.9997L13.0001 18.3308C13.0001 13.9776 14.1237 9.68969 16.2627 5.87472C16.8194 4.88255 18.2138 4.69307 19.0234 5.51827C19.5195 6.02392 19.6389 6.77271 19.332 7.39815L18.8623 8.35519C18.6191 8.85087 18.8238 9.44969 19.3193 9.69308C19.8152 9.93632 20.415 9.73188 20.6582 9.23604L21.1279 8.27901C21.811 6.88675 21.537 5.22482 20.4512 4.11788C18.7148 2.34819 15.7313 2.73241 14.5176 4.89718Z" fill="currentColor" />
</svg>