<svg xmlns="http://www.w3.org/2000/svg" width="24" height="24" viewBox="0 0 24 24" fill="none">
    <path fill-rule="evenodd" clip-rule="evenodd" d="M6.93436 7.96484L6.93359 8.03312C6.9336 8.0103 6.93385 7.98754 6.93436 7.96484Z" fill="currentColor" />
    <path fill-rule="evenodd" clip-rule="evenodd" d="M4.93436 17.4778V7.94336C4.93385 7.97267 4.9336 8.00204 4.93359 8.03148L4.93436 17.4778C4.9345 18.0299 5.38139 18.4778 5.93359 18.4778C5.93342 18.4778 5.93377 18.4778 5.93359 18.4778C5.38139 18.4778 4.9345 18.0299 4.93436 17.4778Z" fill="currentColor" />
    <path fill-rule="evenodd" clip-rule="evenodd" d="M15 17C15 17.6799 14.8304 18.3202 14.5311 18.8809C15.3235 19.5775 16.3629 20 17.501 20C19.9863 20 22.001 17.9853 22.001 15.5C22.001 13.0147 19.9863 11 17.501 11C16.5755 11 15.7152 11.2794 15 11.7584V17ZM17.501 13C18.8817 13 20.001 14.1193 20.001 15.5C20.001 16.8807 18.8817 18 17.501 18C16.1203 18 15.001 16.8807 15.001 15.5C15.001 14.1193 16.1203 13 17.501 13Z" fill="currentColor" />
    <path opacity="0.4" d="M4.93436 6.93457V7.94411V17.4785C4.93449 18.0305 5.38235 18.4783 5.93436 18.4785C6.48656 18.4785 6.93422 18.0307 6.93436 17.4785L6.93359 8.03223C6.9336 8.00941 6.93385 7.98665 6.93436 7.96395C6.97092 6.32079 8.31485 5 9.9668 5C11.6415 5.00026 12.999 6.35844 12.999 8.0332V17C12.999 18.1046 12.1036 19 10.999 19C10.4467 19 9.99902 19.4477 9.99902 20C9.99902 20.5523 10.4467 21 10.999 21C12.5282 21 13.857 20.1419 14.5301 18.8809C14.8294 18.3202 14.999 17.6799 14.999 17V11.7584V8.0332C14.999 5.25387 12.7461 3.00026 9.9668 3C8.4786 3 7.14113 3.64594 6.21961 4.67276C5.50765 3.66103 4.33099 3 2.99979 3C2.4475 3 1.99979 3.44772 1.99979 4C1.99979 4.55228 2.4475 5 2.99979 5C4.06831 5 4.93413 5.8661 4.93436 6.93457Z" fill="currentColor" />
</svg>