<svg xmlns="http://www.w3.org/2000/svg" width="24" height="24" viewBox="0 0 24 24" fill="none">
    <path d="M18.5576 13.0088L18.7598 13.039L18.876 13.0674C19.4404 13.2264 19.795 13.6568 20.0283 14C20.2867 14.3801 20.5572 14.9056 20.8633 15.4961L21.8877 17.4726C22.1418 17.963 21.9503 18.5671 21.46 18.8213C20.9697 19.0752 20.3664 18.8837 20.1123 18.3935L19.0879 16.416C18.7572 15.7779 18.5492 15.3817 18.374 15.124C18.3734 15.123 18.3727 15.122 18.3721 15.1211C18.3704 15.1236 18.3689 15.1263 18.3672 15.1289C18.1943 15.3931 17.991 15.798 17.668 16.4473C17.3702 17.0458 17.1084 17.5756 16.8584 17.9599C16.62 18.3264 16.2468 18.7996 15.626 18.9473C15.3302 19.0176 15.0224 19.0176 14.7266 18.9473C14.1077 18.7999 13.7356 18.3307 13.4971 17.9648C13.2481 17.5828 12.9883 17.0567 12.6934 16.4639C12.375 15.8241 12.174 15.4251 12.0039 15.164C12.0026 15.1621 12.0012 15.1601 12 15.1582C11.9988 15.1601 11.9973 15.1621 11.9961 15.164C11.8259 15.4251 11.6249 15.8241 11.3066 16.4639C11.0117 17.0567 10.7519 17.5828 10.5029 17.9648C10.2644 18.3307 9.89227 18.7999 9.27343 18.9473C8.97763 19.0176 8.66982 19.0176 8.37402 18.9473C7.75315 18.7996 7.38003 18.3264 7.14159 17.9599C6.8916 17.5756 6.62984 17.0458 6.33202 16.4473C6.00898 15.798 5.80564 15.3931 5.63281 15.1289C5.63101 15.1262 5.62871 15.1237 5.62695 15.1211L5.62597 15.124C5.45082 15.3817 5.24281 15.7779 4.9121 16.416L3.88769 18.3935C3.63354 18.8837 3.03027 19.0752 2.54003 18.8213C2.0497 18.5671 1.85816 17.963 2.1123 17.4726L3.13671 15.4961C3.44277 14.9056 3.7133 14.3801 3.97167 14C4.22054 13.6339 4.60779 13.1684 5.24023 13.039L5.44238 13.0088C5.57822 12.9956 5.71501 12.9971 5.85058 13.0127L6.05273 13.0469L6.16796 13.0771C6.7308 13.2469 7.07912 13.6864 7.30663 14.0342C7.55962 14.4209 7.82287 14.9543 8.12206 15.5556C8.44309 16.2008 8.64646 16.6049 8.81835 16.8691C8.82015 16.8719 8.82245 16.8743 8.82421 16.8769C8.82524 16.8754 8.82707 16.8737 8.82812 16.8721C8.99822 16.611 9.1984 16.2118 9.51659 15.5723C9.81159 14.9794 10.0713 14.4533 10.3203 14.0713C10.5588 13.7053 10.9317 13.2361 11.5508 13.0889L11.7744 13.0488C11.9993 13.0225 12.2276 13.0362 12.4492 13.0889C13.0683 13.2361 13.4412 13.7053 13.6797 14.0713C13.9287 14.4533 14.1884 14.9794 14.4834 15.5723C14.8018 16.2121 15.0027 16.611 15.1728 16.8721C15.1737 16.8734 15.1749 16.8746 15.1758 16.876C15.1774 16.8735 15.18 16.8717 15.1816 16.8691C15.3535 16.6049 15.5569 16.2008 15.8779 15.5556C16.1771 14.9543 16.4404 14.4209 16.6934 14.0342C16.936 13.6632 17.316 13.1879 17.9473 13.0469C18.1479 13.002 18.3539 12.9891 18.5576 13.0088Z" fill="currentColor" />
    <path opacity="0.4" d="M18.5576 5.00878L18.7598 5.03905L18.876 5.06737C19.4404 5.22642 19.795 5.65679 20.0283 5.99999C20.2867 6.38013 20.5572 6.90557 20.8633 7.49608L21.8877 9.47264C22.1418 9.96298 21.9503 10.5671 21.46 10.8213C20.9697 11.0752 20.3664 10.8837 20.1123 10.3935L19.0879 8.416C18.7572 7.77794 18.5492 7.38171 18.374 7.12401C18.3734 7.12303 18.3727 7.12204 18.3721 7.12108C18.3704 7.1236 18.3689 7.1263 18.3672 7.12889C18.1943 7.39309 17.991 7.798 17.668 8.44725C17.3702 9.04579 17.1084 9.5756 16.8584 9.95995C16.62 10.3264 16.2468 10.7996 15.626 10.9473C15.3302 11.0176 15.0224 11.0176 14.7266 10.9473C14.1077 10.7999 13.7356 10.3307 13.4971 9.96483C13.2481 9.58283 12.9883 9.05667 12.6934 8.46385C12.375 7.82412 12.174 7.42515 12.0039 7.16405C12.0026 7.16212 12.0012 7.16008 12 7.15819C11.9988 7.16008 11.9973 7.16212 11.9961 7.16405C11.8259 7.42515 11.6249 7.82412 11.3066 8.46385C11.0117 9.05667 10.7519 9.58283 10.5029 9.96483C10.2644 10.3307 9.89227 10.7999 9.27343 10.9473C8.97763 11.0176 8.66982 11.0176 8.37402 10.9473C7.75315 10.7996 7.38003 10.3264 7.14159 9.95995C6.8916 9.5756 6.62984 9.04579 6.33202 8.44725C6.00898 7.798 5.80564 7.39309 5.63281 7.12889C5.63101 7.12615 5.62871 7.12375 5.62695 7.12108L5.62597 7.12401C5.45082 7.38171 5.24281 7.77794 4.9121 8.416L3.88769 10.3935C3.63354 10.8837 3.03027 11.0752 2.54003 10.8213C2.0497 10.5671 1.85816 9.96298 2.1123 9.47264L3.13671 7.49608C3.44277 6.90557 3.7133 6.38013 3.97167 5.99999C4.22054 5.63385 4.60779 5.16836 5.24023 5.03905L5.44238 5.00878C5.57822 4.99564 5.71501 4.99711 5.85058 5.01268L6.05273 5.04686L6.16796 5.07713C6.7308 5.24691 7.07912 5.68639 7.30663 6.03417C7.55962 6.42093 7.82287 6.95434 8.12206 7.55565C8.44309 8.20085 8.64646 8.60485 8.81835 8.86913C8.82015 8.87188 8.82245 8.87426 8.82421 8.87694C8.82524 8.87536 8.82707 8.87366 8.82812 8.87206C8.99822 8.61095 9.1984 8.21175 9.51659 7.57225C9.81159 6.97937 10.0713 6.45331 10.3203 6.07128C10.5588 5.70533 10.9317 5.23612 11.5508 5.08885L11.7744 5.04881C11.9993 5.02249 12.2276 5.03617 12.4492 5.08885C13.0683 5.23612 13.4412 5.70533 13.6797 6.07128C13.9287 6.45331 14.1884 6.97937 14.4834 7.57225C14.8018 8.21212 15.0027 8.61096 15.1728 8.87206C15.1737 8.87343 15.1749 8.87461 15.1758 8.87596C15.1774 8.8735 15.18 8.87165 15.1816 8.86913C15.3535 8.60485 15.5569 8.20085 15.8779 7.55565C16.1771 6.95434 16.4404 6.42093 16.6934 6.03417C16.936 5.66325 17.316 5.18794 17.9473 5.04686C18.1479 5.00204 18.3539 4.98909 18.5576 5.00878Z" fill="currentColor" />
</svg>