<svg xmlns="http://www.w3.org/2000/svg" width="24" height="24" viewBox="0 0 24 24" fill="none">
    <path d="M6.29289 8.29289C6.68342 7.90237 7.31643 7.90237 7.70696 8.29289L15.707 16.2929C16.0975 16.6834 16.0975 17.3164 15.707 17.707C15.3164 18.0975 14.6834 18.0975 14.2929 17.707L6.29289 9.70696C5.90237 9.31643 5.90237 8.68342 6.29289 8.29289Z" fill="currentColor" />
    <path opacity="0.4" fill-rule="evenodd" clip-rule="evenodd" d="M12.8925 2.44736L12.8711 2.45019C12.877 2.44931 12.8841 2.44841 12.8925 2.44736ZM21.5498 11.1289C21.5507 11.123 21.5516 11.1159 21.5526 11.1076L21.5498 11.1289ZM21.5555 11.0854C21.5562 11.0806 21.5569 11.0756 21.5576 11.0703C21.5594 11.0581 21.5614 11.0445 21.5636 11.0297C21.5704 10.9835 21.5791 10.9247 21.5889 10.8545" fill="currentColor" />
    <path opacity="0.4" d="M19.0185 2.0244C18.1985 1.97371 17.2339 2.00789 16.3349 2.07128C15.4294 2.13513 14.5592 2.23047 13.918 2.30956C13.5968 2.34917 13.3312 2.38523 13.1455 2.41112C13.0755 2.42088 13.0168 2.42954 12.9706 2.43635L12.9297 2.44237C12.9156 2.44443 12.9031 2.44601 12.8924 2.44735L12.8711 2.45018C12.8674 2.45072 12.862 2.45176 12.8574 2.45265C12.3116 2.53569 11.9289 3.04686 12.0117 3.59276C12.0947 4.13864 12.6074 4.5135 13.1533 4.43065L13.166 4.4287L13.2187 4.42089C13.2483 4.41658 13.287 4.41123 13.334 4.40474L13.4219 4.39257C13.5988 4.36791 13.8537 4.33307 14.1631 4.29491C14.7832 4.21842 15.6162 4.127 16.4756 4.06639C17.2145 4.01429 17.9513 3.98662 18.5805 4.00615L2.29295 20.2937C1.90243 20.6842 1.90243 21.3172 2.29295 21.7078C2.68348 22.0983 3.31649 22.0983 3.70702 21.7078L19.9939 5.42091C20.0133 6.0498 19.9857 6.78601 19.9336 7.5244C19.873 8.38375 19.7816 9.21674 19.7051 9.8369C19.6669 10.1463 19.6321 10.4012 19.6074 10.5781L19.5952 10.6662C19.5887 10.7131 19.5834 10.7517 19.5791 10.7812L19.5713 10.834C19.571 10.8357 19.5716 10.8321 19.5713 10.834C19.5709 10.8358 19.5696 10.8429 19.5693 10.8445C19.4865 11.3905 19.8613 11.9053 20.4072 11.9883C20.9531 12.0711 21.4628 11.6943 21.5459 11.1484L21.5498 11.1289L21.5526 11.1076C21.5535 11.1009 21.5544 11.0935 21.5555 11.0854C21.5561 11.0806 21.5568 11.0756 21.5576 11.0703L21.5636 11.0297C21.5704 10.9835 21.5791 10.9244 21.5889 10.8545C21.6147 10.6688 21.6498 10.4031 21.6894 10.082C21.7685 9.44076 21.8648 8.57055 21.9287 7.66503C21.9921 6.76608 22.0263 5.80143 21.9756 4.98143C21.9503 4.57308 21.9027 4.16873 21.8144 3.81249C21.7439 3.52782 21.6217 3.16255 21.3769 2.86034L21.2646 2.73534L21.1396 2.62304C20.8374 2.37827 20.4721 2.25607 20.1875 2.18554C19.8312 2.09726 19.4269 2.04966 19.0185 2.0244Z" fill="currentColor" />
</svg>