<svg xmlns="http://www.w3.org/2000/svg" width="24" height="24" viewBox="0 0 24 24" fill="none">
    <path opacity="0.4" d="M13.7436 9.11538L12.0769 13.1154C11.8025 13.7741 12.2864 14.5 13 14.5H13.882C14.2607 14.5 14.607 14.286 14.7764 13.9472L16.7764 9.94721C17.1088 9.28231 16.6253 8.5 15.882 8.5H14.6667C14.263 8.5 13.8989 8.74274 13.7436 9.11538Z" fill="currentColor" />
    <circle opacity="0.4" cx="9" cy="17.5" r="4" fill="currentColor" />
    <path opacity="0.4" d="M17 5.5C17.8284 5.5 18.5 4.82843 18.5 4C18.5 3.17157 17.8284 2.5 17 2.5C16.1716 2.5 15.5 3.17157 15.5 4C15.5 4.82843 16.1716 5.5 17 5.5Z" fill="currentColor" />
    <path d="M13 17.5C13 19.7091 11.2091 21.5 9 21.5C6.79086 21.5 5 19.7091 5 17.5C5 15.2909 6.79086 13.5 9 13.5" stroke="currentColor" stroke-width="2" stroke-linecap="round" stroke-linejoin="round" />
    <path d="M9 10.5L9.44721 9.60557C9.786 8.928 10.4785 8.5 11.2361 8.5H16.191C16.6378 8.5 17 8.86221 17 9.30902C17 9.43461 16.9708 9.55848 16.9146 9.67082L14.5 14.5M14.5 14.5H18.1615C18.6246 14.5 19 14.8754 19 15.3385C19 15.4452 18.9796 15.5509 18.94 15.6499L17 20.5M14.5 14.5H13.053C12.3257 14.5 11.8417 13.7483 12.1426 13.0862L14 9" stroke="currentColor" stroke-width="2" stroke-linecap="round" stroke-linejoin="round" />
    <path d="M17 5.5C17.8284 5.5 18.5 4.82843 18.5 4C18.5 3.17157 17.8284 2.5 17 2.5C16.1716 2.5 15.5 3.17157 15.5 4C15.5 4.82843 16.1716 5.5 17 5.5Z" stroke="currentColor" stroke-width="2" stroke-linecap="round" stroke-linejoin="round" />
</svg>