<svg xmlns="http://www.w3.org/2000/svg" width="24" height="24" viewBox="0 0 24 24" fill="none">
    <path opacity="0.4" d="M2 20V6C2 4.89543 2.89543 4 4 4H18C19.1046 4 20 4.89543 20 6V20C20 21.1046 19.1046 22 18 22H4C2.89543 22 2 21.1046 2 20Z" fill="currentColor" />
    <path d="M19.5 6.0625V2.9375M18.25 4.5H20.75M17 4.5L18.875 5.125L19.5 7L20.125 5.125L22 4.5L20.125 3.875L19.5 2L18.875 3.875L17 4.5Z" stroke="currentColor" stroke-width="2" stroke-linecap="round" stroke-linejoin="round" />
    <path d="M13 4L4 4C2.89543 4 2 4.89543 2 6V20C2 21.1046 2.89543 22 4 22H18C19.1046 22 20 21.1046 20 20V11" stroke="currentColor" stroke-width="2" stroke-linecap="round" stroke-linejoin="round" />
    <path d="M6 8L16 18" stroke="currentColor" stroke-width="2" stroke-linecap="round" stroke-linejoin="round" />
    <path d="M6 14L10 18" stroke="currentColor" stroke-width="2" stroke-linecap="round" stroke-linejoin="round" />
    <path d="M12 8L16 12" stroke="currentColor" stroke-width="2" stroke-linecap="round" stroke-linejoin="round" />
</svg>