<svg xmlns="http://www.w3.org/2000/svg" width="24" height="24" viewBox="0 0 24 24" fill="none">
    <path opacity="0.4" d="M15 2H9C7.89543 2 7 2.89543 7 4V14C7 15.1046 7.89543 16 9 16H15C16.1046 16 17 15.1046 17 14V4C17 2.89543 16.1046 2 15 2Z" fill="currentColor" />
    <path d="M20 17.75V20.25M19 19H21M18 19L19.5 18.5L20 17L20.5 18.5L22 19L20.5 19.5L20 21L19.5 19.5L18 19Z" stroke="currentColor" stroke-width="2" stroke-linecap="round" stroke-linejoin="round" />
    <path d="M20.0558 8.5C21.0631 8.84943 21.7356 9.37679 21.9374 10.0655C22.5499 12.1553 18.5972 14.9394 13.109 16.2839C7.62066 17.6285 2.67503 17.0243 2.06257 14.9345C1.79715 14.0288 2.38911 12.9928 3.59186 12" stroke="currentColor" stroke-width="2" stroke-linecap="round" stroke-linejoin="round" />
    <path d="M17 12V4C17 2.89543 16.1046 2 15 2H9C7.89543 2 7 2.89543 7 4V14C7 15.1046 7.89543 16 9 16H14" stroke="currentColor" stroke-width="2" stroke-linecap="round" stroke-linejoin="round" />
    <path d="M7 6H9.5" stroke="currentColor" stroke-width="2" stroke-linecap="round" stroke-linejoin="round" />
    <path d="M7 9H9.5" stroke="currentColor" stroke-width="2" stroke-linecap="round" stroke-linejoin="round" />
    <path d="M7 12H9.5" stroke="currentColor" stroke-width="2" stroke-linecap="round" stroke-linejoin="round" />
    <path d="M14.5 9H17" stroke="currentColor" stroke-width="2" stroke-linecap="round" stroke-linejoin="round" />
    <path d="M14.5 6H17" stroke="currentColor" stroke-width="2" stroke-linecap="round" stroke-linejoin="round" />
    <path d="M14.5 12H17" stroke="currentColor" stroke-width="2" stroke-linecap="round" stroke-linejoin="round" />
    <path d="M12 20V22M9 22H15" stroke="currentColor" stroke-width="2" stroke-linecap="round" stroke-linejoin="round" />
</svg>