<svg xmlns="http://www.w3.org/2000/svg" width="24" height="24" viewBox="0 0 24 24" fill="none">
    <path opacity="0.4" d="M20 4H4C2.89543 4 2 4.89543 2 6V18C2 19.1046 2.89543 20 4 20H20C21.1046 20 22 19.1046 22 18V6C22 4.89543 21.1046 4 20 4Z" fill="currentColor" />
    <path d="M19.5 2.9375V6.0625M18.25 4.5H20.75M17 4.5L18.875 3.875L19.5 2L20.125 3.875L22 4.5L20.125 5.125L19.5 7L18.875 5.125L17 4.5Z" stroke="currentColor" stroke-width="2" stroke-linecap="round" stroke-linejoin="round" />
    <path d="M13 4H4C2.89543 4 2 4.89543 2 6V18C2 19.1046 2.89543 20 4 20H20C21.1046 20 22 19.1046 22 18V10" stroke="currentColor" stroke-width="2" stroke-linecap="round" stroke-linejoin="round" />
    <path d="M7 9L6 15M11 9L10 15M7 12H10" stroke="currentColor" stroke-width="2" stroke-linecap="round" stroke-linejoin="round" />
    <path d="M13 15L14 9H15.6391C16.875 9 17.815 10.1097 17.6119 11.3288L17.3482 12.911C17.1473 14.1165 16.1043 15 14.8822 15H13Z" stroke="currentColor" stroke-width="2" stroke-linecap="round" stroke-linejoin="round" />
</svg>