<svg xmlns="http://www.w3.org/2000/svg" width="24" height="24" viewBox="0 0 24 24" fill="none">
    <path opacity="0.4" d="M7.46967 11.5323L3 16V19C3 20.1046 3.89543 21 5 21H19C20.1046 21 21 20.1046 21 19V16L18.5303 13.5323C18.1908 13.1927 17.7302 13.002 17.25 13.002C16.7698 13.002 16.3092 13.1927 15.9697 13.5323L14.7071 14.7948C14.3166 15.1854 13.6834 15.1854 13.2929 14.7948L10.0303 11.5323C9.69077 11.1927 9.23022 11.002 8.75 11.002C8.26978 11.002 7.80923 11.1927 7.46967 11.5323Z" fill="currentColor" />
    <path d="M3 16L7.46967 11.5323C7.80923 11.1927 8.26978 11.002 8.75 11.002C9.23022 11.002 9.69077 11.1927 10.0303 11.5323L13.2929 14.7948C13.6834 15.1854 14.3166 15.1854 14.7071 14.7948L15.9697 13.5323C16.3092 13.1927 16.7698 13.002 17.25 13.002C17.7302 13.002 18.1908 13.1927 18.5303 13.5323L21 16" stroke="currentColor" stroke-width="2" stroke-linecap="round" stroke-linejoin="round" />
    <path d="M21 10.5V19C21 20.1046 20.1046 21 19 21H5C3.89543 21 3 20.1046 3 19V5C3 3.89543 3.89543 3 5 3H13.5" stroke="currentColor" stroke-width="2" stroke-linecap="round" stroke-linejoin="round" />
    <path d="M19.5 2.9375V6.0625M18.25 4.5H20.75M17 4.5L18.875 3.875L19.5 2L20.125 3.875L22 4.5L20.125 5.125L19.5 7L18.875 5.125L17 4.5Z" stroke="currentColor" stroke-width="2" stroke-linecap="round" stroke-linejoin="round" />
</svg>