<svg xmlns="http://www.w3.org/2000/svg" width="24" height="24" viewBox="0 0 24 24" fill="none">
    <path opacity="0.4" d="M4.5 2.5H19.5C20.6046 2.5 21.5 3.39543 21.5 4.5V19.5C21.5 20.6046 20.6046 21.5 19.5 21.5H4.5C3.39543 21.5 2.5 20.6046 2.5 19.5V4.5C2.5 3.39543 3.39543 2.5 4.5 2.5Z" fill="currentColor" />
    <path d="M19 3.4375V6.5625M17.75 5H20.25M16.5 5L18.375 4.375L19 2.5L19.625 4.375L21.5 5L19.625 5.625L19 7.5L18.375 5.625L16.5 5Z" stroke="currentColor" stroke-width="2" stroke-linecap="round" stroke-linejoin="round" />
    <path d="M7 14.5H17" stroke="currentColor" stroke-width="2" stroke-linecap="round" stroke-linejoin="round" />
    <path d="M7 9.5H13" stroke="currentColor" stroke-width="2" stroke-linecap="round" stroke-linejoin="round" />
    <path d="M7.5 2.5H4.5C3.39543 2.5 2.5 3.39543 2.5 4.5V7.5M7.5 21.5H4.5C3.39543 21.5 2.5 20.6046 2.5 19.5V16.5M16.5 21.5H19.5C20.6046 21.5 21.5 20.6046 21.5 19.5V16.5" stroke="currentColor" stroke-width="2" stroke-linecap="round" stroke-linejoin="round" />
</svg>