<svg xmlns="http://www.w3.org/2000/svg" width="24" height="24" viewBox="0 0 24 24" fill="none">
    <path opacity="0.4" d="M18.0737 18.1912L19 18.5L18.0737 18.8088C17.4765 19.0078 17.0078 19.4765 16.8088 20.0737L16.5 21L16.1912 20.0737C15.9922 19.4765 15.5235 19.0078 14.9263 18.8088L14 18.5L14.9263 18.1912C15.5235 17.9922 15.9922 17.5235 16.1912 16.9263L16.5 16L16.8088 16.9263C17.0078 17.5235 17.4765 17.9922 18.0737 18.1912Z" fill="currentColor" />
    <path opacity="0.4" d="M18.0737 5.19123L19 5.5L18.0737 5.80877C17.4765 6.00784 17.0078 6.47647 16.8088 7.07368L16.5 8L16.1912 7.07368C15.9922 6.47647 15.5235 6.00784 14.9263 5.80877L14 5.5L14.9263 5.19123C15.5235 4.99216 15.9922 4.52353 16.1912 3.92632L16.5 3L16.8088 3.92632C17.0078 4.52353 17.4765 4.99216 18.0737 5.19123Z" fill="currentColor" />
    <path opacity="0.4" d="M11.298 11.0993L14 12L11.298 12.9007C10.4022 13.1993 9.69926 13.9022 9.40066 14.798L8.5 17.5L7.59934 14.798C7.30074 13.9022 6.59779 13.1993 5.70197 12.9007L3 12L5.70198 11.0993C6.59779 10.8007 7.30074 10.0978 7.59934 9.20197L8.5 6.5L9.40066 9.20198C9.69926 10.0978 10.4022 10.8007 11.298 11.0993Z" fill="currentColor" />
    <path d="M18.0737 18.1912L19 18.5L18.0737 18.8088C17.4765 19.0078 17.0078 19.4765 16.8088 20.0737L16.5 21L16.1912 20.0737C15.9922 19.4765 15.5235 19.0078 14.9263 18.8088L14 18.5L14.9263 18.1912C15.5235 17.9922 15.9922 17.5235 16.1912 16.9263L16.5 16L16.8088 16.9263C17.0078 17.5235 17.4765 17.9922 18.0737 18.1912Z" stroke="currentColor" stroke-width="2" stroke-linecap="round" stroke-linejoin="round" />
    <path d="M18.0737 5.19123L19 5.5L18.0737 5.80877C17.4765 6.00784 17.0078 6.47647 16.8088 7.07368L16.5 8L16.1912 7.07368C15.9922 6.47647 15.5235 6.00784 14.9263 5.80877L14 5.5L14.9263 5.19123C15.5235 4.99216 15.9922 4.52353 16.1912 3.92632L16.5 3L16.8088 3.92632C17.0078 4.52353 17.4765 4.99216 18.0737 5.19123Z" stroke="currentColor" stroke-width="2" stroke-linecap="round" stroke-linejoin="round" />
    <path d="M11.298 11.0993L14 12L11.298 12.9007C10.4022 13.1993 9.69926 13.9022 9.40066 14.798L8.5 17.5L7.59934 14.798C7.30074 13.9022 6.59779 13.1993 5.70197 12.9007L3 12L5.70198 11.0993C6.59779 10.8007 7.30074 10.0978 7.59934 9.20197L8.5 6.5L9.40066 9.20198C9.69926 10.0978 10.4022 10.8007 11.298 11.0993Z" stroke="currentColor" stroke-width="2" stroke-linecap="round" stroke-linejoin="round" />
</svg>