<svg xmlns="http://www.w3.org/2000/svg" width="24" height="24" viewBox="0 0 24 24" fill="none">
    <path opacity="0.4" d="M4 21H14.5C15.6046 21 16.5 20.1046 16.5 19V15.5L20.8066 18.3711C20.9327 18.4551 21.0809 18.5 21.2324 18.5C21.6563 18.5 22 18.1563 22 17.7324V8.26759C22 7.84366 21.6563 7.5 21.2324 7.5C21.0809 7.5 20.9327 7.54486 20.8066 7.62892L16.5 10.5V7C16.5 5.89543 15.6046 5 14.5 5H4C2.89543 5 2 5.89543 2 7V19C2 20.1046 2.89543 21 4 21Z" fill="currentColor" />
    <path d="M2 11V19C2 20.1046 2.89543 21 4 21H14.5C15.6046 21 16.5 20.1046 16.5 19V15.5L20.8066 18.3711C20.9327 18.4551 21.0809 18.5 21.2324 18.5C21.6563 18.5 22 18.1563 22 17.7324V8.26759C22 7.84366 21.6563 7.5 21.2324 7.5C21.0809 7.5 20.9327 7.54486 20.8066 7.62892L16.5 10.5V7C16.5 5.89543 15.6046 5 14.5 5H11" stroke="currentColor" stroke-width="2" stroke-linecap="round" stroke-linejoin="round" />
    <path d="M4.5 3.9375V7.0625M3.25 5.5H5.75M2 5.5L3.875 4.875L4.5 3L5.125 4.875L7 5.5L5.125 6.125L4.5 8L3.875 6.125L2 5.5Z" stroke="currentColor" stroke-width="2" stroke-linecap="round" stroke-linejoin="round" />
</svg>