<svg xmlns="http://www.w3.org/2000/svg" width="24" height="24" viewBox="0 0 24 24" fill="none">
    <path opacity="0.4" d="M18 16V4C18 2.89543 17.1046 2 16 2H4C2.89543 2 2 2.89543 2 4V11.1185C2.61902 11.0398 3.24484 11.001 3.87171 11.0023C6.52365 10.9533 9.11064 11.6763 11.1711 13.0424C13.082 14.3094 14.4247 16.053 15 18H16C17.1046 18 18 17.1046 18 16Z" fill="currentColor" />
    <path d="M18 16V4C18 2.89543 17.1046 2 16 2H4C2.89543 2 2 2.89543 2 4V16C2 17.1046 2.89543 18 4 18H16C17.1046 18 18 17.1046 18 16Z" stroke="currentColor" stroke-width="2" stroke-linecap="round" stroke-linejoin="round" />
    <path d="M18 6H20C21.1046 6 22 6.89543 22 8V20C22 21.1046 21.1046 22 20 22H8C6.89543 22 6 21.1046 6 20V18" stroke="currentColor" stroke-width="2" stroke-linecap="round" stroke-linejoin="round" />
    <path d="M2 11.1185C2.61902 11.0398 3.24484 11.001 3.87171 11.0023C6.52365 10.9533 9.11064 11.6763 11.1711 13.0424C13.082 14.3094 14.4247 16.053 15 18" stroke="currentColor" stroke-width="2" stroke-linecap="round" stroke-linejoin="round" />
    <path d="M13.125 7H13M13.25 7C13.25 7.13807 13.1381 7.25 13 7.25C12.8619 7.25 12.75 7.13807 12.75 7C12.75 6.86193 12.8619 6.75 13 6.75C13.1381 6.75 13.25 6.86193 13.25 7Z" stroke="currentColor" stroke-width="2" stroke-linecap="round" stroke-linejoin="round" />
</svg>