<svg xmlns="http://www.w3.org/2000/svg" width="24" height="24" viewBox="0 0 24 24" fill="none">
    <path opacity="0.4" d="M21.6464 11.1464L12.8536 2.35355C12.6272 2.12718 12.3201 2 12 2C11.6799 2 11.3728 2.12718 11.1464 2.35355L2.35355 11.1464C2.12718 11.3728 2 11.6799 2 12C2 12.3201 2.12718 12.6272 2.35355 12.8536L11.1464 21.6464C11.3728 21.8728 11.6799 22 12 22C12.3201 22 12.6272 21.8728 12.8536 21.6464L21.6464 12.8536C21.8728 12.6272 22 12.3201 22 12C22 11.6799 21.8728 11.3728 21.6464 11.1464Z" fill="currentColor" />
    <path d="M21.6464 11.1464L12.8536 2.35355C12.6272 2.12718 12.3201 2 12 2C11.6799 2 11.3728 2.12718 11.1464 2.35355L2.35355 11.1464C2.12718 11.3728 2 11.6799 2 12C2 12.3201 2.12718 12.6272 2.35355 12.8536L11.1464 21.6464C11.3728 21.8728 11.6799 22 12 22C12.3201 22 12.6272 21.8728 12.8536 21.6464L21.6464 12.8536C21.8728 12.6272 22 12.3201 22 12C22 11.6799 21.8728 11.3728 21.6464 11.1464Z" stroke="currentColor" stroke-width="2" stroke-linecap="round" stroke-linejoin="round" />
    <path d="M12 8V12" stroke="currentColor" stroke-width="2" stroke-linecap="round" stroke-linejoin="round" />
    <path d="M12.125 15.75H12M12.25 15.75C12.25 15.8881 12.1381 16 12 16C11.8619 16 11.75 15.8881 11.75 15.75C11.75 15.6119 11.8619 15.5 12 15.5C12.1381 15.5 12.25 15.6119 12.25 15.75Z" stroke="currentColor" stroke-width="2" stroke-linecap="round" stroke-linejoin="round" />
</svg>