<svg xmlns="http://www.w3.org/2000/svg" width="24" height="24" viewBox="0 0 24 24" fill="none">
    <path opacity="0.4" d="M10 16L10 8C10 6.89543 9.10457 6 8 6H7C5.89543 6 5 6.89543 5 8L5 16C5 17.1046 5.89543 18 7 18H8C9.10457 18 10 17.1046 10 16Z" fill="currentColor" />
    <path opacity="0.4" d="M19 14L19 10C19 8.89543 18.1046 8 17 8H16C14.8954 8 14 8.89543 14 10L14 14C14 15.1046 14.8954 16 16 16H17C18.1046 16 19 15.1046 19 14Z" fill="currentColor" />
    <path d="M10 16L10 8C10 6.89543 9.10457 6 8 6H7C5.89543 6 5 6.89543 5 8L5 16C5 17.1046 5.89543 18 7 18H8C9.10457 18 10 17.1046 10 16Z" stroke="currentColor" stroke-width="2" stroke-linecap="round" stroke-linejoin="round" />
    <path d="M19 14L19 10C19 8.89543 18.1046 8 17 8H16C14.8954 8 14 8.89543 14 10L14 14C14 15.1046 14.8954 16 16 16H17C18.1046 16 19 15.1046 19 14Z" stroke="currentColor" stroke-width="2" stroke-linecap="round" stroke-linejoin="round" />
    <path d="M16.5 8V3M16.5 16.5V21" stroke="currentColor" stroke-width="2" stroke-linecap="round" stroke-linejoin="round" />
    <path d="M7.5 6V3M7.5 18.5V21" stroke="currentColor" stroke-width="2" stroke-linecap="round" stroke-linejoin="round" />
</svg>