<svg xmlns="http://www.w3.org/2000/svg" width="24" height="24" viewBox="0 0 24 24" fill="none">
    <g opacity="0.4">
        <path d="M17 6.5V17.497C17 18.326 16.3276 18.9978 15.4986 18.997L13.4986 18.9952C12.6707 18.9944 12 18.323 12 17.4952V6.5C12 5.67157 12.6716 5 13.5 5H15.5C16.3284 5 17 5.67157 17 6.5Z" fill="currentColor" />
        <path d="M8 9.5V14.497C8 15.326 7.32757 15.9978 6.49859 15.997L4.49859 15.9952C3.67072 15.9944 3 15.323 3 14.4952L3 9.5C3 8.67157 3.67157 8 4.5 8H6.5C7.32843 8 8 8.67157 8 9.5Z" fill="currentColor" />
    </g>
    <path d="M21 2V22" stroke="currentColor" stroke-width="2" stroke-linecap="round" stroke-linejoin="round" />
    <path d="M17 6.5V17.497C17 18.326 16.3276 18.9978 15.4986 18.997L13.4986 18.9952C12.6707 18.9944 12 18.323 12 17.4952L12 6.5C12 5.67157 12.6716 5 13.5 5H15.5C16.3284 5 17 5.67157 17 6.5Z" stroke="currentColor" stroke-width="2" stroke-linecap="round" stroke-linejoin="round" />
    <path d="M8 9.5V14.497C8 15.326 7.32757 15.9978 6.49859 15.997L4.49859 15.9952C3.67072 15.9944 3 15.323 3 14.4952L3 9.5C3 8.67157 3.67157 8 4.5 8H6.5C7.32843 8 8 8.67157 8 9.5Z" stroke="currentColor" stroke-width="2" stroke-linecap="round" stroke-linejoin="round" />
</svg>