<svg xmlns="http://www.w3.org/2000/svg" width="24" height="24" viewBox="0 0 24 24" fill="none">
    <path opacity="0.4" d="M3.77446 11.1676C4.76669 12.728 6.35897 14.4789 7.4969 15.6514C6.7598 16.4689 5.75667 17 4.57143 17C3.15127 17 2 15.7408 2 14.1875C2 12.6135 3.01936 11.6588 3.77446 11.1676C3.22319 10.3006 2.85714 9.4925 2.85714 8.875C2.85714 7.83947 3.62465 7 4.57143 7C5.5182 7 6.28571 7.83947 6.28571 8.875C6.28571 10.125 4.57143 10.75 4.57143 10.75C4.57143 10.75 4.21867 10.8786 3.77446 11.1676Z" fill="currentColor" />
    <path opacity="0.4" d="M15.7745 11.1676C16.7667 12.728 18.359 14.4789 19.4969 15.6514C18.7598 16.4689 17.7567 17 16.5714 17C15.1513 17 14 15.7408 14 14.1875C14 12.6135 15.0194 11.6588 15.7745 11.1676C15.2232 10.3006 14.8571 9.4925 14.8571 8.875C14.8571 7.83947 15.6247 7 16.5714 7C17.5182 7 18.2857 7.83947 18.2857 8.875C18.2857 10.125 16.5714 10.75 16.5714 10.75C16.5714 10.75 16.2187 10.8786 15.7745 11.1676Z" fill="currentColor" />
    <path d="M8.85714 17C8.85714 17 2.85714 11.375 2.85714 8.875C2.85714 7.83947 3.62465 7 4.57143 7C5.5182 7 6.28571 7.83947 6.28571 8.875C6.28571 10.125 4.57143 10.75 4.57143 10.75C4.57143 10.75 2 11.6875 2 14.1875C2 15.7408 3.15127 17 4.57143 17C6.9286 17 8.56552 14.8993 8.82193 12.6235C8.86053 12.2809 9.11298 12 9.42857 12H10" stroke="currentColor" stroke-width="2" stroke-linecap="round" stroke-linejoin="round" />
    <path d="M20.8571 17C20.8571 17 14.8571 11.375 14.8571 8.875C14.8571 7.83947 15.6247 7 16.5714 7C17.5182 7 18.2857 7.83947 18.2857 8.875C18.2857 10.125 16.5714 10.75 16.5714 10.75C16.5714 10.75 14 11.6875 14 14.1875C14 15.7408 15.1513 17 16.5714 17C18.9286 17 20.5655 14.8993 20.8219 12.6235C20.8605 12.2809 21.113 12 21.4286 12H22" stroke="currentColor" stroke-width="2" stroke-linecap="round" stroke-linejoin="round" />
</svg>