<svg xmlns="http://www.w3.org/2000/svg" width="24" height="24" viewBox="0 0 24 24" fill="none">
    <path opacity="0.4" d="M12.5 21C8.35786 21 4.5 18.1421 4.5 14C4.5 10.5 8.35786 6 12.5 6C14.7872 6 16.9878 7.3721 18.5 9.19028C19.8365 11.2734 20.3012 14.0976 20.2096 15.647L20.1374 15.5872C18.8302 14.5041 18.1766 13.9625 17.4061 14.002C16.6357 14.0415 16.0515 14.6466 14.8831 15.8567L14.7463 15.9984C14.2628 16.4993 14.021 16.7497 14.0017 17.0446C13.9983 17.0956 14 17.1467 14.0066 17.1974C14.0447 17.4908 14.302 17.7278 14.8167 18.2016C16.1158 19.3976 16.7654 19.9957 17.527 20C17.6567 20.0007 17.7862 19.9889 17.9133 19.9648C17.9922 19.9497 18.0685 19.9284 18.1431 19.9007C16.8516 21.1048 15.2122 20.7756 14 20.8747C13.5086 20.9573 13.0064 21 12.5 21Z" fill="currentColor" />
    <path d="M18.5 9.19028C16.9878 7.3721 14.7872 6 12.5 6C8.35786 6 4.5 10.5 4.5 14C4.5 18.1421 8.35786 21 12.5 21C13.0064 21 13.5086 20.9573 14 20.8747" stroke="currentColor" stroke-width="2" stroke-linecap="round" stroke-linejoin="round" />
    <path d="M13 8.5L17.7059 10L21 8" stroke="currentColor" stroke-width="2" stroke-linecap="round" stroke-linejoin="round" />
    <path d="M20.5 17H22L18.1297 14.4202C17.7569 14.1717 17.2643 14.2015 16.9242 14.4931L14.8855 16.2408C14.42 16.6399 14.42 17.3601 14.8855 17.7592L16.7963 19.3973C17.193 19.7374 17.7846 19.7147 18.1542 19.3453L20.5 17ZM20.5 17H18" stroke="currentColor" stroke-width="2" stroke-linecap="round" stroke-linejoin="round" />
    <path d="M13 6C12.7333 5 11.56 3 9 3M11 6C10.5 5.47719 9 4.58841 7 5.21578" stroke="currentColor" stroke-width="2" stroke-linecap="round" stroke-linejoin="round" />
    <path d="M2 11L4 14L2 15" stroke="currentColor" stroke-width="2" stroke-linecap="round" stroke-linejoin="round" />
    <path d="M13.125 12H13M13.25 12C13.25 12.1381 13.1381 12.25 13 12.25C12.8619 12.25 12.75 12.1381 12.75 12C12.75 11.8619 12.8619 11.75 13 11.75C13.1381 11.75 13.25 11.8619 13.25 12Z" stroke="currentColor" stroke-width="2" stroke-linecap="round" />
    <path d="M20.125 12H20M20.25 12C20.25 12.1381 20.1381 12.25 20 12.25C19.8619 12.25 19.75 12.1381 19.75 12C19.75 11.8619 19.8619 11.75 20 11.75C20.1381 11.75 20.25 11.8619 20.25 12Z" stroke="currentColor" stroke-width="2" stroke-linecap="round" />
</svg>