<svg xmlns="http://www.w3.org/2000/svg" width="24" height="24" viewBox="0 0 24 24" fill="none">
    <g opacity="0.4">
        <path d="M13 2V13.5002C13 13.5002 13.1493 14.0403 12.8772 14.0853C11.3012 14.3455 9.93184 15.179 9 16.2713C7.96297 17.6232 7.07883 16.6454 5.9505 16.2939C5.00702 16 3 17 3 17V6.66667C3 6.23393 3.14008 5.81161 3.44555 5.50509C4.51227 4.43467 7.5388 2 13 2Z" fill="currentColor" />
        <path d="M20.9759 20.9997C21.0046 21.5512 20.5523 22.0002 20 22.0002H16.0586C16.0586 18.8002 18.0586 17.2179 19.0586 16.8845C20.1329 17.6205 20.8395 18.3784 20.9759 20.9997Z" fill="currentColor" />
    </g>
    <path d="M20 22.0002H6C4.34315 22.0002 3 20.6571 3 19.0002V6.66667C3 6.23393 3.14008 5.81161 3.44555 5.50509C4.51227 4.43467 7.5388 2 13 2V13.5002C13 13.5002 17.7114 16.0663 18.4427 16.4777C19.8594 17.4077 20.8149 17.9057 20.9759 20.9997C21.0046 21.5512 20.5523 22.0002 20 22.0002Z" stroke="currentColor" stroke-width="2" stroke-linecap="round" stroke-linejoin="round" />
    <path d="M3 17C3 17 5.00702 16 5.9505 16.2939C7.07883 16.6454 7.96297 17.6232 9 16.2713C10.1316 14.9447 11.9915 14 14 14" stroke="currentColor" stroke-width="2" stroke-linejoin="round" />
    <path d="M19.0586 17C18.0586 17.3333 16.0586 18.8 16.0586 22" stroke="currentColor" stroke-width="2" stroke-linecap="round" stroke-linejoin="round" />
    <path d="M3.05859 8.5L6.55859 8.50021M3 12L6.5 12.0002" stroke="currentColor" stroke-width="2" stroke-linecap="round" stroke-linejoin="round" />
    <path d="M10.125 10H10M10.25 10C10.25 10.1381 10.1381 10.25 10 10.25C9.86193 10.25 9.75 10.1381 9.75 10C9.75 9.86193 9.86193 9.75 10 9.75C10.1381 9.75 10.25 9.86193 10.25 10Z" stroke="currentColor" stroke-width="2" stroke-linecap="round" />
    <path d="M10.125 6H10M10.25 6C10.25 6.13807 10.1381 6.25 10 6.25C9.86193 6.25 9.75 6.13807 9.75 6C9.75 5.86193 9.86193 5.75 10 5.75C10.1381 5.75 10.25 5.86193 10.25 6Z" stroke="currentColor" stroke-width="2" stroke-linecap="round" />
</svg>