<svg xmlns="http://www.w3.org/2000/svg" width="24" height="24" viewBox="0 0 24 24" fill="none">
    <path opacity="0.4" d="M20 3H4C2.89543 3 2 3.89543 2 5V9C2 10.1046 2.89543 11 4 11H6V7H18V11H20C21.1046 11 22 10.1046 22 9V5C22 3.89543 21.1046 3 20 3Z" fill="currentColor" />
    <path d="M18 11H20C21.1046 11 22 10.1046 22 9V5C22 3.89543 21.1046 3 20 3H4C2.89543 3 2 3.89543 2 5V9C2 10.1046 2.89543 11 4 11H6" stroke="currentColor" stroke-width="2" stroke-linecap="round" stroke-linejoin="round" />
    <path d="M5 7H19" stroke="currentColor" stroke-width="2" stroke-linecap="round" stroke-linejoin="round" />
    <path d="M18 7H6V19C6 20.1046 6.89543 21 8 21H16C17.1046 21 18 20.1046 18 19V7Z" stroke="currentColor" stroke-width="2" stroke-linecap="round" stroke-linejoin="round" />
    <path d="M10 21V7" stroke="currentColor" stroke-width="2" stroke-linecap="round" stroke-linejoin="round" />
</svg>