<svg xmlns="http://www.w3.org/2000/svg" width="24" height="24" viewBox="0 0 24 24" fill="none">
    <path opacity="0.4" d="M19.5 11.5L12.5 4.5L4.5 12.5L11.5 19.5L19.5 11.5Z" fill="currentColor" />
    <path d="M21.4697 6.96967L17.0303 2.53033C16.6908 2.19077 16.2302 2 15.75 2C15.2698 2 14.8092 2.19077 14.4697 2.53033L2.53033 14.4697C2.19077 14.8092 2 15.2698 2 15.75C2 16.2302 2.19077 16.6908 2.53033 17.0303L6.96967 21.4697C7.30923 21.8092 7.76978 22 8.25 22C8.73022 22 9.19077 21.8092 9.53033 21.4697L21.4697 9.53033C21.8092 9.19077 22 8.73022 22 8.25C22 7.76978 21.8092 7.30923 21.4697 6.96967Z" stroke="currentColor" stroke-width="2" stroke-linecap="round" stroke-linejoin="round" />
    <path d="M12.5 4.5L19.5 11.5M4.5 12.5L11.5 19.5" stroke="currentColor" stroke-width="2" stroke-linecap="round" stroke-linejoin="round" />
    <path d="M14.5 11.875V12M14.25 12C14.25 12.1381 14.3619 12.25 14.5 12.25C14.6381 12.25 14.75 12.1381 14.75 12C14.75 11.8619 14.6381 11.75 14.5 11.75C14.3619 11.75 14.25 11.8619 14.25 12Z" stroke="currentColor" stroke-width="2" stroke-linecap="round" stroke-linejoin="round" />
    <path d="M12 9.375V9.5M11.75 9.5C11.75 9.63807 11.8619 9.75 12 9.75C12.1381 9.75 12.25 9.63807 12.25 9.5C12.25 9.36193 12.1381 9.25 12 9.25C11.8619 9.25 11.75 9.36193 11.75 9.5Z" stroke="currentColor" stroke-width="2" stroke-linecap="round" stroke-linejoin="round" />
    <path d="M9.5 11.875V12M9.25 12C9.25 12.1381 9.36193 12.25 9.5 12.25C9.63807 12.25 9.75 12.1381 9.75 12C9.75 11.8619 9.63807 11.75 9.5 11.75C9.36193 11.75 9.25 11.8619 9.25 12Z" stroke="currentColor" stroke-width="2" stroke-linecap="round" stroke-linejoin="round" />
    <path d="M12 14.375V14.5M11.75 14.5C11.75 14.6381 11.8619 14.75 12 14.75C12.1381 14.75 12.25 14.6381 12.25 14.5C12.25 14.3619 12.1381 14.25 12 14.25C11.8619 14.25 11.75 14.3619 11.75 14.5Z" stroke="currentColor" stroke-width="2" stroke-linecap="round" stroke-linejoin="round" />
</svg>