<svg xmlns="http://www.w3.org/2000/svg" width="24" height="24" viewBox="0 0 24 24" fill="none">
    <path d="M3 4V20" stroke="currentColor" stroke-width="2" stroke-linecap="round" stroke-linejoin="round" />
    <path opacity="0.4" d="M7.5 4V17" stroke="currentColor" stroke-width="2" stroke-linecap="round" stroke-linejoin="round" />
    <path opacity="0.4" d="M12 4V17" stroke="currentColor" stroke-width="2" stroke-linecap="round" stroke-linejoin="round" />
    <path opacity="0.4" d="M16.5 4V17" stroke="currentColor" stroke-width="2" stroke-linecap="round" stroke-linejoin="round" />
    <path d="M21 4V20" stroke="currentColor" stroke-width="2" stroke-linecap="round" stroke-linejoin="round" />
    <path d="M7.625 19.75H7.5M7.75 19.75C7.75 19.8881 7.63807 20 7.5 20C7.36193 20 7.25 19.8881 7.25 19.75C7.25 19.6119 7.36193 19.5 7.5 19.5C7.63807 19.5 7.75 19.6119 7.75 19.75Z" stroke="currentColor" stroke-width="2" stroke-linecap="round" stroke-linejoin="round" />
    <path d="M12.125 19.75H12M12.25 19.75C12.25 19.8881 12.1381 20 12 20C11.8619 20 11.75 19.8881 11.75 19.75C11.75 19.6119 11.8619 19.5 12 19.5C12.1381 19.5 12.25 19.6119 12.25 19.75Z" stroke="currentColor" stroke-width="2" stroke-linecap="round" stroke-linejoin="round" />
    <path d="M16.625 19.75H16.5M16.75 19.75C16.75 19.8881 16.6381 20 16.5 20C16.3619 20 16.25 19.8881 16.25 19.75C16.25 19.6119 16.3619 19.5 16.5 19.5C16.6381 19.5 16.75 19.6119 16.75 19.75Z" stroke="currentColor" stroke-width="2" stroke-linecap="round" stroke-linejoin="round" />
</svg>