<svg xmlns="http://www.w3.org/2000/svg" width="24" height="24" viewBox="0 0 24 24" fill="none">
    <path opacity="0.4" d="M18 6H4C2.89543 6 2 6.89543 2 8V16C2 17.1046 2.89543 18 4 18H18C19.1046 18 20 17.1046 20 16V8C20 6.89543 19.1046 6 18 6Z" fill="currentColor" />
    <path d="M18 6H4C2.89543 6 2 6.89543 2 8V16C2 17.1046 2.89543 18 4 18H18C19.1046 18 20 17.1046 20 16V8C20 6.89543 19.1046 6 18 6Z" stroke="currentColor" stroke-width="2" stroke-linecap="round" stroke-linejoin="round" />
    <path d="M20 10H21C21.5523 10 22 10.4477 22 11V13C22 13.5523 21.5523 14 21 14H20M21 10.5V13.5" stroke="currentColor" stroke-width="2" stroke-linecap="round" stroke-linejoin="round" />
</svg>