<svg xmlns="http://www.w3.org/2000/svg" width="24" height="24" viewBox="0 0 24 24" fill="none">
    <path opacity="0.4" d="M8 12C9.10457 12 10 11.1046 10 10L8 8C6.89543 8 6 8.89543 6 10C6 11.1046 6.89543 12 8 12Z" fill="currentColor" />
    <path opacity="0.4" fill-rule="evenodd" clip-rule="evenodd" d="M8 20C4.68629 20 2 17.3137 2 14L2.00012 10C2.00012 13.3137 4.68629 16 8 16C9.05861 16 10.0532 15.7258 10.9166 15.2447C11.4633 14.94 11.9254 14.652 12.3677 14.3764C12.7859 14.1157 13.1864 13.8661 13.624 13.624L16.4376 16.4376C14.4942 17.0511 13.4955 17.6735 12.3677 18.3764C11.9254 18.652 11.4633 18.94 10.9166 19.2447C10.0532 19.7258 9.05861 20 8 20Z" fill="currentColor" />
    <path d="M10 10C10 11.1046 9.10457 12 8 12C6.89543 12 6 11.1046 6 10C6 8.89543 6.89543 8 8 8" stroke="currentColor" stroke-width="2" stroke-linecap="round" stroke-linejoin="round" />
    <path d="M4.87627 4.87627C3.15132 5.93015 2 7.83062 2 10C2 13.3137 4.68629 16 8 16C9.05861 16 10.0532 15.7258 10.9166 15.2447C11.9804 14.6518 12.7238 14.1222 13.624 13.624M9 4H18C20.2091 4 22 5.79086 22 8C22 10.2091 20.2318 11.442 18 12C17.7213 12.0697 17.4581 12.1392 17.2088 12.2088" stroke="currentColor" stroke-width="2" stroke-linecap="round" stroke-linejoin="round" />
    <path d="M2.00012 10L2 14C2 17.3137 4.68629 20 8 20C9.05861 20 10.0532 19.7258 10.9166 19.2447C12.8575 18.163 13.7322 17.2917 16.4376 16.4376M22 8V12C22 13.4265 21.2627 14.4459 20.1394 15.1394" stroke="currentColor" stroke-width="2" stroke-linecap="round" stroke-linejoin="round" />
    <path d="M2 2L22 22" stroke="currentColor" stroke-width="2" stroke-linecap="round" stroke-linejoin="round" />
</svg>