<svg xmlns="http://www.w3.org/2000/svg" width="24" height="24" viewBox="0 0 24 24" fill="none">
    <path opacity="0.4" d="M17.9922 11.6148V9C17.9922 7.89543 17.0968 7 15.9922 7H14.0058V11.5C14.0058 12.3284 13.3343 13 12.5058 13C11.6774 13 11.0058 12.3284 11.0058 11.5V7.01364C11.0058 7.00611 10.9997 7 10.9922 7H7.99219C6.88762 7 5.99219 7.89543 5.99219 9V11.6148C5.99219 11.8693 6.04074 12.1214 6.13523 12.3576L7.84914 16.6424C7.94364 16.8786 7.99219 17.1307 7.99219 17.3852V20C7.99219 21.1046 8.88762 22 9.99219 22H13.9922C15.0968 22 15.9922 21.1046 15.9922 20V17.3852C15.9922 17.1307 16.0407 16.8786 16.1352 16.6424L17.8491 12.3576C17.9436 12.1214 17.9922 11.8693 17.9922 11.6148Z" fill="currentColor" />
    <path d="M13.9922 7H16.9922C17.5445 7 17.9922 7.44772 17.9922 8V10.8445C17.9922 11.6078 17.8465 12.3641 17.563 13.0728L16.7074 15.2119C16.2349 16.3931 15.9922 17.6536 15.9922 18.9258V21C15.9922 21.5523 15.5445 22 14.9922 22H8.99219C8.4399 22 7.99219 21.5523 7.99219 21V18.9258C7.99219 17.6536 7.74944 16.3931 7.27695 15.2119L6.42133 13.0728C6.13784 12.3641 5.99219 11.6078 5.99219 10.8445V8C5.99219 7.44772 6.4399 7 6.99219 7H10.9922" stroke="currentColor" stroke-width="2" stroke-linecap="round" stroke-linejoin="round" />
    <path d="M8.50586 3C7.12515 3 6.00586 4.11929 6.00586 5.5C6.00586 6.0628 6.19183 6.58217 6.50568 7H11.0059V11.5C11.0059 12.3284 11.6774 13 12.5059 13C13.3343 13 14.0059 12.3284 14.0059 11.5V7H17.506C17.8199 6.58217 18.0059 6.0628 18.0059 5.5C18.0059 4.11929 16.8866 3 15.5059 3C15.1229 3 14.7601 3.08611 14.4356 3.24002C13.8904 2.48863 13.0052 2 12.0059 2C11.0065 2 10.1213 2.48863 9.5761 3.24002C9.25166 3.08611 8.88882 3 8.50586 3Z" stroke="currentColor" stroke-width="2" stroke-linecap="round" stroke-linejoin="round" />
</svg>