<svg xmlns="http://www.w3.org/2000/svg" width="24" height="24" viewBox="0 0 24 24" fill="none">
    <path opacity="0.4" d="M2.52753 16.7613C2.56056 16.5573 2.65157 16.3674 2.78946 16.2146C4.19021 14.7533 5.50003 13.1992 5.50003 8.40023C5.50003 7.54209 5.66893 6.7234 5.97529 5.97559L17.9999 18.0002H3.56848C3.36388 18.0001 3.16374 17.9399 2.9924 17.8269C2.82106 17.7139 2.6859 17.553 2.60337 17.3639C2.52084 17.1747 2.49449 16.9653 2.52753 16.7613Z" fill="currentColor" />
    <path d="M21.2388 16.2154C19.8349 14.753 18.5 13.1988 18.5 8.3999C18.5 4.86533 15.6347 2 12.1001 2H11.8999C10.5216 2 9.24498 2.43573 8.20041 3.17696M5.97526 5.97526C5.6689 6.72307 5.5 7.54176 5.5 8.3999C5.5 13.1988 4.19018 14.753 2.78943 16.2143C2.65154 16.367 2.56053 16.557 2.5275 16.761C2.49446 16.965 2.52081 17.1744 2.60334 17.3635C2.68587 17.5527 2.82103 17.7136 2.99237 17.8265C3.16371 17.9395 3.36385 17.9998 3.56845 17.9999H17.9999" stroke="currentColor" stroke-width="2" stroke-linecap="round" stroke-linejoin="round" />
    <path d="M2 2L22 22" stroke="currentColor" stroke-width="2" stroke-linecap="round" stroke-linejoin="round" />
    <path d="M16 18C16 20.2091 14.2091 22 12 22C9.79086 22 8 20.2091 8 18" stroke="currentColor" stroke-width="2" stroke-linecap="round" stroke-linejoin="round" />
</svg>