<svg xmlns="http://www.w3.org/2000/svg" width="24" height="24" viewBox="0 0 24 24" fill="none">
    <path opacity="0.4" d="M2.5275 16.7611C2.56053 16.5571 2.65154 16.3672 2.78943 16.2144C4.19018 14.7531 5.5 13.199 5.5 8.40002C5.5 4.86546 8.36533 2.00012 11.8999 2.00012H12.1001C15.6347 2.00012 18.5 4.86546 18.5 8.40002C18.5 13.199 19.8349 14.7531 21.2388 16.2155C21.3765 16.3684 21.4672 16.5584 21.5 16.7625C21.5328 16.9665 21.5062 17.1758 21.4234 17.3648C21.3407 17.5539 21.2053 17.7146 21.0339 17.8273C20.8624 17.9401 20.6623 18.0001 20.4577 18H3.56845C3.36385 17.9999 3.16371 17.9396 2.99237 17.8267C2.82103 17.7137 2.68587 17.5528 2.60334 17.3636C2.52081 17.1745 2.49446 16.9651 2.5275 16.7611Z" fill="currentColor" />
    <path d="M2.52753 16.761C2.56056 16.557 2.65157 16.367 2.78946 16.2143C4.19021 14.753 5.50003 13.1988 5.50003 8.3999C5.50003 4.86533 8.36536 2 11.8999 2H12.1001C15.6347 2 18.5 4.86533 18.5 8.3999C18.5 13.1988 19.8349 14.753 21.2388 16.2154C21.3765 16.3683 21.4673 16.5583 21.5 16.7623C21.5328 16.9664 21.5062 17.1757 21.4235 17.3647C21.3407 17.5538 21.2054 17.7144 21.0339 17.8272C20.8625 17.94 20.6623 18 20.4577 17.9999H3.56848C3.36388 17.9998 3.16374 17.9395 2.9924 17.8265C2.82106 17.7136 2.6859 17.5527 2.60337 17.3635C2.52084 17.1744 2.49449 16.965 2.52753 16.761Z" stroke="currentColor" stroke-width="2" stroke-linecap="round" stroke-linejoin="round" />
    <path d="M16 18C16 20.2091 14.2091 22 12 22C9.79086 22 8 20.2091 8 18" stroke="currentColor" stroke-width="2" stroke-linecap="round" stroke-linejoin="round" />
    <path d="M22 8C22 5.7 21.2 3.7 20 2" stroke="currentColor" stroke-width="2" stroke-linecap="round" stroke-linejoin="round" />
    <path d="M4 2C2.8 3.7 2 5.7 2 8" stroke="currentColor" stroke-width="2" stroke-linecap="round" stroke-linejoin="round" />
</svg>