<svg xmlns="http://www.w3.org/2000/svg" width="24" height="24" viewBox="0 0 24 24" fill="none">
    <path opacity="0.4" d="M2.51385 16.7611C2.54689 16.5571 2.63789 16.3671 2.77579 16.2144C4.17654 14.7531 5.48636 13.1989 5.48636 8.39999C5.48636 4.86543 8.35169 2.00009 11.8863 2.00009H12.0865C15.621 2.00009 18.4864 4.86542 18.4864 8.39999C18.4864 13.1989 19.8213 14.7531 21.2252 16.2155C21.3628 16.3684 21.4536 16.5584 21.4864 16.7624C21.5191 16.9665 21.4925 17.1758 21.4098 17.3648C21.327 17.5539 21.1917 17.7145 21.0202 17.8273C20.8488 17.9401 20.6486 18.0001 20.444 18H3.55481C3.35021 17.9998 3.15007 17.9396 2.97873 17.8266C2.80739 17.7137 2.67223 17.5528 2.5897 17.3636C2.50717 17.1744 2.48082 16.9651 2.51385 16.7611Z" fill="currentColor" />
    <path d="M2.51385 16.761C2.54689 16.557 2.63789 16.367 2.77579 16.2143C4.17654 14.753 5.48636 13.1988 5.48636 8.3999C5.48636 4.86533 8.35169 2 11.8863 2H12.0865C15.621 2 18.4864 4.86533 18.4864 8.3999C18.4864 13.1988 19.8213 14.753 21.2252 16.2154C21.3628 16.3683 21.4536 16.5583 21.4864 16.7623C21.5191 16.9664 21.4925 17.1757 21.4098 17.3647C21.327 17.5538 21.1917 17.7144 21.0202 17.8272C20.8488 17.94 20.6486 18 20.444 17.9999H3.55481C3.35021 17.9998 3.15007 17.9395 2.97873 17.8265C2.80739 17.7136 2.67223 17.5527 2.5897 17.3635C2.50717 17.1744 2.48082 16.965 2.51385 16.761Z" stroke="currentColor" stroke-width="2" stroke-linecap="round" stroke-linejoin="round" />
    <path d="M15.9864 18C15.9864 20.2091 14.1955 22 11.9864 22C9.77722 22 7.98636 20.2091 7.98636 18" stroke="currentColor" stroke-width="2" stroke-linecap="round" stroke-linejoin="round" />
</svg>