<svg xmlns="http://www.w3.org/2000/svg" width="24" height="24" viewBox="0 0 24 24" fill="none">
    <path opacity="0.4" d="M8.00003 2C5.23861 2 3.00003 4.23858 3.00003 7C3.00003 9.05032 4.23413 10.8124 6.00003 11.584V20L8.00003 22L10 20V18.208L8.79201 17L10 15.792V11.584C11.7659 10.8124 13 9.05032 13 7C13 4.23858 10.7615 2 8.00003 2Z" fill="currentColor" />
    <path d="M8.00003 2C5.23861 2 3.00003 4.23858 3.00003 7C3.00003 9.05032 4.23413 10.8124 6.00003 11.584V20L8.00003 22L10 20V18.208L8.79201 17L10 15.792V11.584C11.7659 10.8124 13 9.05032 13 7C13 4.23858 10.7615 2 8.00003 2Z" stroke="currentColor" stroke-width="2" stroke-linecap="round" stroke-linejoin="round" />
    <path d="M16 12.5H19C19.8285 12.5 20.5 13.1716 20.5 14V14.5C20.5 15.3284 19.8285 16 19 16H16M16 12.5V16M16 12.5H15M16 16H19.5C20.3285 16 21 16.6716 21 17.5V18C21 18.8284 20.3285 19.5 19.5 19.5H16M16 16V19.5M18 12.5V11M18 19.5V21M16 19.5H15" stroke="currentColor" stroke-width="2" stroke-linecap="round" stroke-linejoin="round" />
    <path d="M8.25003 7H8.00003M8.50003 7C8.50003 7.27614 8.27617 7.5 8.00003 7.5C7.72389 7.5 7.50003 7.27614 7.50003 7C7.50003 6.72386 7.72389 6.5 8.00003 6.5C8.27617 6.5 8.50003 6.72386 8.50003 7Z" stroke="currentColor" stroke-width="2" stroke-linecap="round" stroke-linejoin="round" />
</svg>