<svg xmlns="http://www.w3.org/2000/svg" width="24" height="24" viewBox="0 0 24 24" fill="none">
    <path opacity="0.4" d="M16.0001 2.00039L6.00007 2.00006C4.89547 2.00002 4 2.89547 4 4.00006V20C4 21.1046 4.89543 22 6 22H16C17.1046 22 18 21.1046 18 20V4.00039C18 2.89585 17.1046 2.00042 16.0001 2.00039Z" fill="currentColor" />
    <path d="M11.125 19H11M11.25 19C11.25 19.1381 11.1381 19.25 11 19.25C10.8619 19.25 10.75 19.1381 10.75 19C10.75 18.8619 10.8619 18.75 11 18.75C11.1381 18.75 11.25 18.8619 11.25 19Z" stroke="currentColor" stroke-width="2" stroke-linecap="round" stroke-linejoin="round" />
    <path d="M15 3.5H18C18.8284 3.5 19.5 4.17157 19.5 5V5.5C19.5 6.32843 18.8284 7 18 7H15M15 3.5V7M15 3.5H14M15 7H18.5C19.3284 7 20 7.67157 20 8.5V9C20 9.82843 19.3284 10.5 18.5 10.5H15M15 7V10.5M17 3.5V2M17 10.5V12M15 10.5H14" stroke="currentColor" stroke-width="2" stroke-linecap="round" stroke-linejoin="round" />
    <path d="M11.0001 2.00039L6.00007 2.00006C4.89547 2.00002 4 2.89547 4 4.00006V20C4 21.1046 4.89543 22 6 22H16C17.1046 22 18 21.1046 18 20V15.0004" stroke="currentColor" stroke-width="2" stroke-linecap="round" stroke-linejoin="round" />
</svg>