<svg xmlns="http://www.w3.org/2000/svg" width="24" height="24" viewBox="0 0 24 24" fill="none">
    <path opacity="0.4" fill-rule="evenodd" clip-rule="evenodd" d="M12.939 2.23242L19.9358 5.93659C20.5905 6.28321 21 6.96334 21 7.70416V16.2958C21 17.0367 20.5905 17.7168 19.9358 18.0634L12.939 21.7676C12.6507 21.9202 12.3262 22 12 22C11.6738 22 11.3493 21.9202 11.061 21.7676L4.06422 18.0634C3.4095 17.7168 3 17.0367 3 16.2958V7.70416C3 6.96334 3.4095 6.28321 4.06422 5.93659L11.061 2.23242C11.3493 2.07979 11.6738 2 12 2C12.3262 2 12.6507 2.07979 12.939 2.23242ZM16 12C16 14.2091 14.2091 16 12 16C9.79086 16 8 14.2091 8 12C8 9.79086 9.79086 8 12 8C14.2091 8 16 9.79086 16 12Z" fill="currentColor" />
    <path d="M19.9358 5.93659L12.939 2.23242C12.6507 2.07979 12.3262 2 12 2C11.6738 2 11.3493 2.07979 11.061 2.23242L4.06422 5.93659C3.4095 6.28321 3 6.96334 3 7.70416V16.2958C3 17.0367 3.4095 17.7168 4.06422 18.0634L11.061 21.7676C11.3493 21.9202 11.6738 22 12 22C12.3262 22 12.6507 21.9202 12.939 21.7676L19.9358 18.0634C20.5905 17.7168 21 17.0367 21 16.2958V7.70416C21 6.96334 20.5905 6.28321 19.9358 5.93659Z" stroke="currentColor" stroke-width="2" stroke-linecap="round" stroke-linejoin="round" />
    <path d="M12 16C14.2091 16 16 14.2091 16 12C16 9.79086 14.2091 8 12 8C9.79086 8 8 9.79086 8 12C8 14.2091 9.79086 16 12 16Z" stroke="currentColor" stroke-width="2" stroke-linecap="round" stroke-linejoin="round" />
</svg>