<svg xmlns="http://www.w3.org/2000/svg" width="24" height="24" viewBox="0 0 24 24" fill="none">
    <path opacity="0.4" d="M15 4C15 2.89543 15.8954 2 17 2H5.5C4.39543 2 3.5 2.89543 3.5 4V20C3.5 18.8954 4.39543 18 5.5 18H19.5V10H14.5C13.9477 10 13.5 9.55228 13.5 9V6.5C13.5 5.94772 13.9477 5.5 14.5 5.5H15V4Z" fill="currentColor" />
    <path d="M19.5 22H5.5C4.39543 22 3.5 21.1046 3.5 20M3.5 20C3.5 18.8954 4.39543 18 5.5 18H19.5V14M3.5 20V4C3.5 2.89543 4.39543 2 5.5 2H11.5" stroke="currentColor" stroke-width="2" stroke-linecap="round" stroke-linejoin="round" />
    <path d="M19 18C19 18 18 18.7628 18 20C18 21.2372 19 22 19 22" stroke="currentColor" stroke-width="2" stroke-linecap="round" stroke-linejoin="round" />
    <path d="M19 5.5V4C19 2.89543 18.1046 2 17 2C15.8954 2 15 2.89543 15 4V5.5M19 5.5H19.5C20.0523 5.5 20.5 5.94772 20.5 6.5V9C20.5 9.55228 20.0523 10 19.5 10H14.5C13.9477 10 13.5 9.55228 13.5 9V6.5C13.5 5.94772 13.9477 5.5 14.5 5.5H15M19 5.5H15" stroke="currentColor" stroke-width="2" stroke-linecap="round" stroke-linejoin="round" />
</svg>