<svg xmlns="http://www.w3.org/2000/svg" width="24" height="24" viewBox="0 0 24 24" fill="none">
    <path d="M15 11.5V13.5" stroke="currentColor" stroke-width="2" stroke-linecap="round" stroke-linejoin="round" />
    <path opacity="0.4" d="M20 16.5V8.5C20 7.39543 19.1046 6.5 18 6.5H6C4.89543 6.5 4 7.39543 4 8.5V16.5C4 17.6046 4.89543 18.5 6 18.5H8C8.55228 18.5 9 18.9477 9 19.5V20.7929C9 21.1834 9.31658 21.5 9.70711 21.5C9.89464 21.5 10.0745 21.4255 10.2071 21.2929L12.7071 18.7929C12.8946 18.6054 13.149 18.5 13.4142 18.5H18C19.1046 18.5 20 17.6046 20 16.5Z" fill="currentColor" />
    <path d="M20 16.5V8.5C20 7.39543 19.1046 6.5 18 6.5H6C4.89543 6.5 4 7.39543 4 8.5V16.5C4 17.6046 4.89543 18.5 6 18.5H8C8.55228 18.5 9 18.9477 9 19.5V20.7929C9 21.1834 9.31658 21.5 9.70711 21.5C9.89464 21.5 10.0745 21.4255 10.2071 21.2929L12.7071 18.7929C12.8946 18.6054 13.149 18.5 13.4142 18.5H18C19.1046 18.5 20 17.6046 20 16.5Z" stroke="currentColor" stroke-width="2" stroke-linejoin="round" />
    <path d="M9 11.5V13.5" stroke="currentColor" stroke-width="2" stroke-linecap="round" stroke-linejoin="round" />
    <path d="M12 6.5V4.5C12 3.39543 11.1046 2.5 10 2.5H7" stroke="currentColor" stroke-width="2" stroke-linecap="round" />
    <path d="M2 12.5H4" stroke="currentColor" stroke-width="2" stroke-linecap="round" />
    <path d="M20 12.5H22" stroke="currentColor" stroke-width="2" stroke-linecap="round" />
</svg>