<svg xmlns="http://www.w3.org/2000/svg" width="24" height="24" viewBox="0 0 24 24" fill="none">
    <path d="M10 14L20 4" stroke="currentColor" stroke-width="2" stroke-linecap="round" stroke-linejoin="round" />
    <path d="M5.5 11L3.26687 8.76687C3.096 8.596 3 8.36424 3 8.12258C3 7.88093 3.09493 7.64727 3.27244 7.4833C5.96399 4.99702 9.7588 4.37769 13 5.6253M13 18.5L15.2331 20.7331C15.404 20.904 15.6358 21 15.8774 21C16.1191 21 16.3527 20.9051 16.5167 20.7276C19.003 18.036 19.6223 14.2412 18.3747 11" stroke="currentColor" stroke-width="2" stroke-linecap="round" stroke-linejoin="round" />
    <path d="M17 3H20C20.5523 3 21 3.44772 21 4V7" stroke="currentColor" stroke-width="2" stroke-linecap="round" stroke-linejoin="round" />
    <path opacity="0.4" d="M6.99989 14C6.77567 13.9996 6.5536 14.0436 6.34645 14.1294C6.1393 14.2152 5.95117 14.3412 5.79289 14.5L3.14689 17.146C3.07685 17.2159 3.0291 17.305 3.00971 17.402C2.99031 17.499 3.00013 17.5996 3.03792 17.691C3.07571 17.7824 3.13978 17.8606 3.22202 17.9156C3.30425 17.9706 3.40096 18 3.49989 18H4.99989C5.26511 18 5.51946 18.1054 5.707 18.2929C5.89454 18.4804 5.99989 18.7348 5.99989 19V20.5C5.99972 20.599 6.02895 20.6959 6.08387 20.7783C6.1388 20.8606 6.21696 20.9249 6.30843 20.9628C6.3999 21.0007 6.50058 21.0106 6.59768 20.9912C6.69479 20.9719 6.78396 20.9241 6.85389 20.854L9.49989 18.207C9.65872 18.0487 9.78466 17.8606 9.87047 17.6535C9.95628 17.4463 10.0003 17.2242 9.99989 17V15C9.99989 14.7348 9.89454 14.4804 9.707 14.2929C9.51946 14.1054 9.26511 14 8.99989 14H6.99989Z" fill="currentColor" />
    <path d="M6.99989 14C6.77567 13.9996 6.55359 14.0436 6.34645 14.1294C6.1393 14.2152 5.95117 14.3412 5.79289 14.5L3.14689 17.146C3.07685 17.2159 3.0291 17.305 3.00971 17.402C2.99031 17.499 3.00013 17.5996 3.03792 17.691C3.07571 17.7824 3.13978 17.8606 3.22202 17.9156C3.30425 17.9706 3.40096 18 3.49989 18H4.99989C5.26511 18 5.51946 18.1054 5.707 18.2929C5.89454 18.4804 5.99989 18.7348 5.99989 19V20.5C5.99972 20.599 6.02895 20.6959 6.08387 20.7783C6.1388 20.8606 6.21696 20.9249 6.30843 20.9628C6.3999 21.0007 6.50058 21.0106 6.59768 20.9912C6.69479 20.9719 6.78396 20.9241 6.85389 20.854L9.49989 18.207C9.65872 18.0487 9.78466 17.8606 9.87047 17.6535C9.95628 17.4463 10.0003 17.2242 9.99989 17V15C9.99989 14.7348 9.89454 14.4804 9.707 14.2929C9.51946 14.1054 9.26511 14 8.99989 14H6.99989Z" stroke="currentColor" stroke-width="2" stroke-linecap="round" stroke-linejoin="round" />
</svg>