<svg xmlns="http://www.w3.org/2000/svg" width="24" height="24" viewBox="0 0 24 24" fill="none">
    <path opacity="0.4" fill-rule="evenodd" clip-rule="evenodd" d="M3 8.1441C3 7.71612 3.13678 7.30743 3.37967 6.97168L12 12.0002L20.6203 6.97168C20.8632 7.30743 21 7.71611 21 8.1441V15.8563C21 16.565 20.6249 17.2208 20.014 17.5802L12.931 21.7467C12.6488 21.9127 12.3274 22.0002 12 22.0002C11.6726 22.0002 11.3512 21.9127 11.069 21.7467L3.98596 17.5802C3.37508 17.2208 3 16.565 3 15.8563V8.1441Z" fill="currentColor" />
    <path d="M20.014 6.42002L12.931 2.25351C12.6488 2.08753 12.3274 2 12 2C11.6726 2 11.3512 2.08753 11.069 2.25351L3.98596 6.42002C3.37508 6.77936 3 7.43516 3 8.14389V15.8561C3 16.5648 3.37508 17.2206 3.98596 17.58L11.069 21.7465C11.3512 21.9125 11.6726 22 12 22C12.3274 22 12.6488 21.9125 12.931 21.7465L20.014 17.58C20.6249 17.2206 21 16.5648 21 15.8561V8.14389C21 7.43516 20.6249 6.77936 20.014 6.42002Z" stroke="currentColor" stroke-width="2" stroke-linecap="round" stroke-linejoin="round" />
    <path d="M3.5 7L12 12L20.5 7" stroke="currentColor" stroke-width="2" stroke-linecap="round" stroke-linejoin="round" />
    <path d="M12 12V22" stroke="currentColor" stroke-width="2" stroke-linecap="round" stroke-linejoin="round" />
</svg>