<svg xmlns="http://www.w3.org/2000/svg" width="24" height="24" viewBox="0 0 24 24" fill="none">
    <path opacity="0.4" fill-rule="evenodd" clip-rule="evenodd" d="M2.5 2.5H20.5V13.7523C20.3413 13.4934 20.1724 13.2661 20 13.0883C19.5 14.5 18 15.5 16.5 15C18.1664 12.7366 16.6193 9.26495 15.7857 8.5C15.7857 10.6572 14.4088 11.9347 13.3931 12.877C13.3153 12.9492 13.2392 13.0198 13.1664 13.0883C12.145 14.0517 11.5 15.3421 11.5 16.9117C11.5 18.3644 12.2356 19.6593 13.3835 20.5H2.5V2.5Z" fill="currentColor" />
    <path d="M8.5 20.5H4.5C3.39543 20.5 2.5 19.6046 2.5 18.5V4.5C2.5 3.39543 3.39543 2.5 4.5 2.5H18.5C19.6046 2.5 20.5 3.39543 20.5 4.5V9.5" stroke="currentColor" stroke-width="2" stroke-linecap="round" stroke-linejoin="round" />
    <path d="M11.5 8.5H2.5H7V2.5M8.5 14.5H2.5H7V20.5M16 2.5V5.5" stroke="currentColor" stroke-width="2" stroke-linecap="round" stroke-linejoin="round" />
    <path d="M15.7857 8.5C16.6193 9.26495 18.1664 12.7366 16.5 15C18 15.5 19.5 14.5 20 13.0883C20.7864 13.8991 21.5 15.7403 21.5 16.9117C21.5 19.446 19.2614 21.5 16.5 21.5C13.7386 21.5 11.5 19.446 11.5 16.9117C11.5 15.3421 12.145 14.0517 13.1664 13.0883C14.1893 12.1256 15.7857 10.8229 15.7857 8.5Z" stroke="currentColor" stroke-width="2" stroke-linecap="round" stroke-linejoin="round" />
</svg>