<svg xmlns="http://www.w3.org/2000/svg" width="24" height="24" viewBox="0 0 24 24" fill="none">
    <path d="M14.1405 15.124L14.6279 19.0232C14.8255 20.6038 13.593 22 12 22C10.407 22 9.17452 20.6038 9.3721 19.0232L9.8595 15.124C9.9341 14.5272 9.46872 14 8.86722 14H6C4.89543 14 4 13.1046 4 12V10H20V12C20 13.1046 19.1046 14 18 14H15.1328C14.5313 14 14.0659 14.5272 14.1405 15.124Z" stroke="currentColor" stroke-width="2" stroke-linecap="round" stroke-linejoin="round" />
    <path opacity="0.4" d="M4 4V10H20V4C20 2.89543 19.1046 2 18 2H12.4142C12.149 2 11.8946 2.10536 11.7071 2.29289L10 4L8.29289 2.29289C8.10536 2.10536 7.851 2 7.58579 2H6C4.89543 2 4 2.89543 4 4Z" fill="currentColor" />
    <path d="M4 10V4C4 2.89543 4.89543 2 6 2H7.58579C7.851 2 8.10536 2.10536 8.29289 2.29289L10 4L11.7071 2.29289C11.8946 2.10536 12.149 2 12.4142 2H18C19.1046 2 20 2.89543 20 4V10" stroke="currentColor" stroke-width="2" stroke-linecap="round" stroke-linejoin="round" />
</svg>