<svg xmlns="http://www.w3.org/2000/svg" width="24" height="24" viewBox="0 0 24 24" fill="none">
    <path opacity="0.4" fill-rule="evenodd" clip-rule="evenodd" d="M4 21.5V14.5C4.75 14.5 5.375 14.75 6 15C6.625 15.25 7.25 15.5 8 15.5C8.75 15.5 9.375 15.25 10 15C10.625 14.75 11.25 14.5 12 14.5C12.75 14.5 13.375 14.75 14 15C14.625 15.25 15.25 15.5 16 15.5C16.75 15.5 17.375 15.25 18 15C18.625 14.75 19.25 14.5 20 14.5V21.5H4Z" fill="currentColor" />
    <path d="M4 12.5V21.5H20V12.5C20 11.3954 19.1046 10.5 18 10.5H6C4.89543 10.5 4 11.3954 4 12.5Z" stroke="currentColor" stroke-width="2" stroke-linecap="round" stroke-linejoin="round" />
    <path d="M4 14.5C5.5 14.5 6.5 15.5 8 15.5C9.5 15.5 10.5 14.5 12 14.5C13.5 14.5 14.5 15.5 16 15.5C17.5 15.5 18.5 14.5 20 14.5" stroke="currentColor" stroke-width="2" stroke-linecap="round" stroke-linejoin="round" />
    <path d="M2 21.5H22" stroke="currentColor" stroke-width="2" stroke-linecap="round" stroke-linejoin="round" />
    <path d="M12 10.5V7.5" stroke="currentColor" stroke-width="2" stroke-linecap="round" stroke-linejoin="round" />
    <path d="M12 7.5C13.1046 7.5 14 6.60457 14 5.5C14 4 12 2.5 12 2.5C12 2.5 10 4 10 5.5C10 6.60457 10.8954 7.5 12 7.5Z" stroke="currentColor" stroke-width="2" stroke-linecap="round" stroke-linejoin="round" />
</svg>