<svg xmlns="http://www.w3.org/2000/svg" width="24" height="24" viewBox="0 0 24 24" fill="none">
    <path opacity="0.4" d="M19 4H5C3.89543 4 3 4.89543 3 6V10H21V6C21 4.89543 20.1046 4 19 4Z" fill="currentColor" />
    <path d="M16.5 2V6M7.5 2V6" stroke="currentColor" stroke-width="2" stroke-linecap="round" stroke-linejoin="round" />
    <path d="M19 4H5C3.89543 4 3 4.89543 3 6V20C3 21.1046 3.89543 22 5 22H19C20.1046 22 21 21.1046 21 20V6C21 4.89543 20.1046 4 19 4Z" stroke="currentColor" stroke-width="2" stroke-linecap="round" stroke-linejoin="round" />
    <path d="M3 10H21" stroke="currentColor" stroke-width="2" stroke-linecap="round" stroke-linejoin="round" />
    <path d="M15.5 15.5V17.5M17 16.5C17 17.3284 16.3284 18 15.5 18C14.6716 18 14 17.3284 14 16.5C14 15.6716 14.6716 15 15.5 15C16.3284 15 17 15.6716 17 16.5Z" stroke="currentColor" stroke-width="2" stroke-linecap="round" stroke-linejoin="round" />
</svg>