<svg xmlns="http://www.w3.org/2000/svg" width="24" height="24" viewBox="0 0 24 24" fill="none">
    <path opacity="0.4" d="M19 4H5C3.89543 4 3 4.89543 3 6V10H21V6C21 4.89543 20.1046 4 19 4Z" fill="currentColor" />
    <path d="M16.5 2V6M7.5 2V6" stroke="currentColor" stroke-width="2" stroke-linecap="round" stroke-linejoin="round" />
    <path d="M19 4H5C3.89543 4 3 4.89543 3 6V20C3 21.1046 3.89543 22 5 22H19C20.1046 22 21 21.1046 21 20V6C21 4.89543 20.1046 4 19 4Z" stroke="currentColor" stroke-width="2" stroke-linecap="round" stroke-linejoin="round" />
    <path d="M3 10H21" stroke="currentColor" stroke-width="2" stroke-linecap="round" stroke-linejoin="round" />
    <path d="M12.1258 14H12.0008M12.1258 18H12.0008M7.625 14H7.5M7.625 18H7.5M16.625 14H16.5M12.2508 14C12.2508 14.1381 12.1389 14.25 12.0008 14.25C11.8628 14.25 11.7508 14.1381 11.7508 14C11.7508 13.8619 11.8628 13.75 12.0008 13.75C12.1389 13.75 12.2508 13.8619 12.2508 14ZM12.2508 18C12.2508 18.1381 12.1389 18.25 12.0008 18.25C11.8628 18.25 11.7508 18.1381 11.7508 18C11.7508 17.8619 11.8628 17.75 12.0008 17.75C12.1389 17.75 12.2508 17.8619 12.2508 18ZM7.75 14C7.75 14.1381 7.63807 14.25 7.5 14.25C7.36193 14.25 7.25 14.1381 7.25 14C7.25 13.8619 7.36193 13.75 7.5 13.75C7.63807 13.75 7.75 13.8619 7.75 14ZM7.75 18C7.75 18.1381 7.63807 18.25 7.5 18.25C7.36193 18.25 7.25 18.1381 7.25 18C7.25 17.8619 7.36193 17.75 7.5 17.75C7.63807 17.75 7.75 17.8619 7.75 18ZM16.75 14C16.75 14.1381 16.6381 14.25 16.5 14.25C16.3619 14.25 16.25 14.1381 16.25 14C16.25 13.8619 16.3619 13.75 16.5 13.75C16.6381 13.75 16.75 13.8619 16.75 14Z" stroke="currentColor" stroke-width="2" stroke-linecap="round" stroke-linejoin="round" />
</svg>