<svg xmlns="http://www.w3.org/2000/svg" width="24" height="24" viewBox="0 0 24 24" fill="none">
    <path opacity="0.4" d="M2.5 6C2.5 4.89543 3.39543 4 4.5 4H18.5C19.6046 4 20.5 4.89543 20.5 6V10H2.5V6Z" fill="currentColor" />
    <path d="M16 2V6M7 2V6" stroke="currentColor" stroke-width="2" stroke-linecap="round" stroke-linejoin="round" />
    <path d="M20.5 8V6C20.5 4.89543 19.6046 4 18.5 4H4.5C3.39543 4 2.5 4.89543 2.5 6V20C2.5 21.1046 3.39543 22 4.5 22H7.49999" stroke="currentColor" stroke-width="2" stroke-linecap="round" stroke-linejoin="round" />
    <path d="M2.5 10H7.5" stroke="currentColor" stroke-width="2" stroke-linecap="round" stroke-linejoin="round" />
    <path d="M15.5 22C18.8137 22 21.5 19.3137 21.5 16C21.5 12.6863 18.8137 10 15.5 10C12.1863 10 9.5 12.6863 9.5 16C9.5 19.3137 12.1863 22 15.5 22Z" stroke="currentColor" stroke-width="2" stroke-linecap="round" stroke-linejoin="round" />
    <path d="M15.5 13V16L17.5 17" stroke="currentColor" stroke-width="2" stroke-linecap="round" stroke-linejoin="round" />
</svg>