<svg xmlns="http://www.w3.org/2000/svg" width="24" height="24" viewBox="0 0 24 24" fill="none">
    <path opacity="0.4" d="M3 6C3 4.89543 3.89543 4 5 4H19C20.1046 4 21 4.89543 21 6V10H3V6Z" fill="currentColor" />
    <path d="M16.5 2V6M7.5 2V6" stroke="currentColor" stroke-width="2" stroke-linecap="round" stroke-linejoin="round" />
    <path d="M19 4H5C3.89543 4 3 4.89543 3 6V20C3 21.1046 3.89543 22 5 22H19C20.1046 22 21 21.1046 21 20V6C21 4.89543 20.1046 4 19 4Z" stroke="currentColor" stroke-width="2" stroke-linecap="round" stroke-linejoin="round" />
    <path d="M3 10H21" stroke="currentColor" stroke-width="2" stroke-linecap="round" stroke-linejoin="round" />
    <path d="M12 14L17 14" stroke="currentColor" stroke-width="2" stroke-linecap="round" stroke-linejoin="round" />
    <path d="M7.25 13.875V14M7.5 14C7.5 14.1381 7.38807 14.25 7.25 14.25C7.11193 14.25 7 14.1381 7 14C7 13.8619 7.11193 13.75 7.25 13.75C7.38807 13.75 7.5 13.8619 7.5 14Z" stroke="currentColor" stroke-width="2" stroke-linecap="round" stroke-linejoin="round" />
    <path d="M12 18H7M16.75 17.875V18M16.5 18C16.5 18.1381 16.6119 18.25 16.75 18.25C16.8881 18.25 17 18.1381 17 18C17 17.8619 16.8881 17.75 16.75 17.75C16.6119 17.75 16.5 17.8619 16.5 18Z" stroke="currentColor" stroke-width="2" stroke-linecap="round" stroke-linejoin="round" />
</svg>