<svg xmlns="http://www.w3.org/2000/svg" width="24" height="24" viewBox="0 0 24 24" fill="none">
    <path opacity="0.4" d="M3 6C3 4.89543 3.89543 4 5 4H19C20.1046 4 21 4.89543 21 6V10H3V6Z" fill="currentColor" />
    <path d="M16.5 2V6M7.5 2V6" stroke="currentColor" stroke-width="2" stroke-linecap="round" stroke-linejoin="round" />
    <path d="M21 12V6C21 4.89543 20.1046 4 19 4H5C3.89543 4 3 4.89543 3 6V20C3 21.1046 3.89543 22 5 22H11" stroke="currentColor" stroke-width="2" stroke-linecap="round" stroke-linejoin="round" />
    <path d="M3 10H21" stroke="currentColor" stroke-width="2" stroke-linecap="round" stroke-linejoin="round" />
    <path d="M17.4616 20C18.5662 20 19.4616 19.1046 19.4616 18C19.4616 16.8954 18.5662 16 17.4616 16M17.4616 20C16.357 20 15.4616 19.1046 15.4616 18C15.4616 16.8954 16.357 16 17.4616 16M17.4616 20V22M17.4616 16V14M19.1962 16.9956L20.9282 15.9956M15.7321 18.9956L14 19.9956M19.2012 18.9956L20.9332 19.9956M15.7371 16.9956L14.005 15.9956" stroke="currentColor" stroke-width="2" stroke-linecap="round" stroke-linejoin="round" />
</svg>