<svg xmlns="http://www.w3.org/2000/svg" width="24" height="24" viewBox="0 0 24 24" fill="none">
    <path opacity="0.4" d="M2 8.5C2 7.39543 2.89543 6.5 4 6.5H7.5L9.0547 4.16795C9.3329 3.75065 9.80125 3.5 10.3028 3.5H13.6972C14.1988 3.5 14.6671 3.75065 14.9453 4.16795L16.5 6.5H20C21.1046 6.5 22 7.39543 22 8.5V18.5C22 19.6046 21.1046 20.5 20 20.5H4C2.89543 20.5 2 19.6046 2 18.5V8.5Z" fill="currentColor" />
    <path d="M2 8.5C2 7.39543 2.89543 6.5 4 6.5H7.5L9.0547 4.16795C9.3329 3.75065 9.80125 3.5 10.3028 3.5H13.6972C14.1988 3.5 14.6671 3.75065 14.9453 4.16795L16.5 6.5H20C21.1046 6.5 22 7.39543 22 8.5V18.5C22 19.6046 21.1046 20.5 20 20.5H4C2.89543 20.5 2 19.6046 2 18.5V8.5Z" stroke="currentColor" stroke-width="2" stroke-linecap="round" stroke-linejoin="round" />
    <path d="M8.5 14.5C9.29811 15.7144 10.5688 16.5 12 16.5C13.4312 16.5 14.7019 15.7144 15.5 14.5" stroke="currentColor" stroke-width="2" stroke-linecap="round" stroke-linejoin="round" />
    <path d="M9.125 10.5H9M9.25 10.5C9.25 10.6381 9.13807 10.75 9 10.75C8.86193 10.75 8.75 10.6381 8.75 10.5C8.75 10.3619 8.86193 10.25 9 10.25C9.13807 10.25 9.25 10.3619 9.25 10.5Z" stroke="currentColor" stroke-width="2" stroke-linecap="round" />
    <path d="M15.125 10.5H15M15.25 10.5C15.25 10.6381 15.1381 10.75 15 10.75C14.8619 10.75 14.75 10.6381 14.75 10.5C14.75 10.3619 14.8619 10.25 15 10.25C15.1381 10.25 15.25 10.3619 15.25 10.5Z" stroke="currentColor" stroke-width="2" stroke-linecap="round" />
</svg>