<svg xmlns="http://www.w3.org/2000/svg" width="24" height="24" viewBox="0 0 24 24" fill="none">
    <path opacity="0.4" d="M17.9225 9.90117L14.8196 16.0403C14.5748 16.5246 13.9868 16.7172 13.5063 16.4704L3.06666 11.1081C2.10571 10.6145 1.72363 9.42907 2.21326 8.46035L4.42962 4.07529C4.91925 3.10657 6.09517 2.72139 7.05612 3.21498L17.4958 8.5773C17.9763 8.82409 18.1673 9.41681 17.9225 9.90117Z" fill="currentColor" />
    <path d="M8 14L7.32155 17.3922C7.13458 18.3271 6.31375 19 5.36039 19H2" stroke="currentColor" stroke-width="2" stroke-linecap="round" stroke-linejoin="round" />
    <path d="M2 17V21" stroke="currentColor" stroke-width="2" stroke-linecap="round" stroke-linejoin="round" />
    <path d="M17.0359 11.6552L21.2159 11.6872C21.3385 11.6881 21.4593 11.7178 21.5685 11.774C21.9572 11.9736 22.1118 12.4531 21.9137 12.845L19.5281 17.565C19.33 17.9569 18.8543 18.1127 18.4656 17.913C18.3564 17.8569 18.2615 17.7759 18.1887 17.6765L15.7061 14.2862M13.1682 10.6351L13.1128 10.7448M14.8196 16.0403L17.9225 9.90117C18.1673 9.41681 17.9763 8.82409 17.4958 8.5773L7.05612 3.21498C6.09517 2.72139 4.91925 3.10657 4.42962 4.07529L2.21326 8.46035C1.72363 9.42907 2.10571 10.6145 3.06666 11.1081L13.5063 16.4704C13.9868 16.7172 14.5748 16.5246 14.8196 16.0403ZM13.2236 10.5255C13.3437 10.5872 13.3915 10.7354 13.3303 10.8565C13.2691 10.9776 13.1221 11.0257 13.002 10.964C12.8818 10.9023 12.8341 10.7541 12.8953 10.6331C12.9565 10.512 13.1035 10.4638 13.2236 10.5255Z" stroke="currentColor" stroke-width="2" stroke-linecap="round" stroke-linejoin="round" />
</svg>