<svg xmlns="http://www.w3.org/2000/svg" width="24" height="24" viewBox="0 0 24 24" fill="none">
    <path d="M3 3V19C3 20.1046 3.89543 21 5 21H21" stroke="currentColor" stroke-width="2" stroke-linecap="round" stroke-linejoin="round" />
    <path opacity="0.4" d="M9 11C10.1046 11 11 10.1046 11 9C11 7.89543 10.1046 7 9 7C7.89543 7 7 7.89543 7 9C7 10.1046 7.89543 11 9 11Z" fill="currentColor" />
    <path opacity="0.4" d="M14 17C15.1046 17 16 16.1046 16 15C16 13.8954 15.1046 13 14 13C12.8954 13 12 13.8954 12 15C12 16.1046 12.8954 17 14 17Z" fill="currentColor" />
    <path opacity="0.4" d="M19 9C20.1046 9 21 8.10457 21 7C21 5.89543 20.1046 5 19 5C17.8954 5 17 5.89543 17 7C17 8.10457 17.8954 9 19 9Z" fill="currentColor" />
    <path d="M9 11C10.1046 11 11 10.1046 11 9C11 7.89543 10.1046 7 9 7C7.89543 7 7 7.89543 7 9C7 10.1046 7.89543 11 9 11Z" stroke="currentColor" stroke-width="2" stroke-linecap="round" stroke-linejoin="round" />
    <path d="M14 17C15.1046 17 16 16.1046 16 15C16 13.8954 15.1046 13 14 13C12.8954 13 12 13.8954 12 15C12 16.1046 12.8954 17 14 17Z" stroke="currentColor" stroke-width="2" stroke-linecap="round" stroke-linejoin="round" />
    <path d="M19 9C20.1046 9 21 8.10457 21 7C21 5.89543 20.1046 5 19 5C17.8954 5 17 5.89543 17 7C17 8.10457 17.8954 9 19 9Z" stroke="currentColor" stroke-width="2" stroke-linecap="round" stroke-linejoin="round" />
    <path d="M10.2812 10.5356L12.7204 13.4626M15.061 13.3029L17.9407 8.69531" stroke="currentColor" stroke-width="2" stroke-linecap="round" stroke-linejoin="round" />
</svg>