<svg xmlns="http://www.w3.org/2000/svg" width="24" height="24" viewBox="0 0 24 24" fill="none">
    <path d="M2 2L22 22" stroke="currentColor" stroke-width="2" stroke-linecap="round" stroke-linejoin="round" />
    <path d="M6.64295 2.64295C8.2939 2.55083 10.1031 2.5 12 2.5C14.9735 2.5 17.7312 2.62488 20.002 2.83797C20.8902 2.92132 21.5996 3.60654 21.6976 4.49325C21.889 6.2244 22 8.28649 22 10.5C22 12.7135 21.889 14.7756 21.6976 16.5068C21.6622 16.8277 21.5466 17.1223 21.3715 17.3715M18.2989 18.2989C16.5443 18.418 14.5796 18.489 12.5 18.4988L9.20503 21.3242C9.07273 21.4376 8.90419 21.5 8.72991 21.5C8.32679 21.5 8 21.1732 8 20.7701V18.4219C6.55512 18.364 5.2074 18.2755 3.99783 18.162C3.10963 18.0787 2.40035 17.3935 2.30236 16.5068C2.11103 14.7756 2 12.7135 2 10.5C2 8.28649 2.11103 6.2244 2.30236 4.49325C2.36549 3.92198 2.6824 3.43434 3.1374 3.1374" stroke="currentColor" stroke-width="2" stroke-linecap="round" stroke-linejoin="round" />
    <path opacity="0.4" d="M2 10.4993C2 8.28581 2.11103 6.22372 2.30236 4.49256C2.36549 3.92129 2.6824 3.43366 3.1374 3.13672L18.2989 18.2982C16.5443 18.4174 14.5796 18.4883 12.5 18.4981L9.20503 21.3235C9.07273 21.437 8.90419 21.4993 8.72991 21.4993C8.32679 21.4993 8 21.1725 8 20.7694V18.4212C6.55512 18.3633 5.2074 18.2748 3.99783 18.1613C3.10963 18.078 2.40035 17.3928 2.30236 16.5061C2.11103 14.7749 2 12.7128 2 10.4993Z" fill="currentColor" />
    <path d="M7.125 10.5H7M17.125 10.5H17M7.25 10.5C7.25 10.6381 7.13807 10.75 7 10.75C6.86193 10.75 6.75 10.6381 6.75 10.5C6.75 10.3619 6.86193 10.25 7 10.25C7.13807 10.25 7.25 10.3619 7.25 10.5ZM17.25 10.5C17.25 10.6381 17.1381 10.75 17 10.75C16.8619 10.75 16.75 10.6381 16.75 10.5C16.75 10.3619 16.8619 10.25 17 10.25C17.1381 10.25 17.25 10.3619 17.25 10.5Z" stroke="currentColor" stroke-width="2" stroke-linecap="round" stroke-linejoin="round" />
</svg>