<svg xmlns="http://www.w3.org/2000/svg" width="24" height="24" viewBox="0 0 24 24" fill="none">
    <path d="M17 17.5H7C5.89543 17.5 5 18.3954 5 19.5V20.5C5 21.0523 5.44772 21.5 6 21.5H18C18.5523 21.5 19 21.0523 19 20.5V19.5C19 18.3954 18.1046 17.5 17 17.5Z" stroke="currentColor" stroke-width="2" stroke-linecap="round" stroke-linejoin="round" />
    <path opacity="0.4" d="M4 9.5L7 17.5H17L20 9.5L18 9L15.1257 11.3952C15.0445 11.4629 14.9421 11.5 14.8363 11.5C14.6367 11.5 14.4607 11.3691 14.4034 11.1778L13 6.5H11L9.59665 11.1778C9.53928 11.3691 9.36329 11.5 9.16366 11.5C9.05791 11.5 8.95551 11.4629 8.87427 11.3952L6 9L4 9.5Z" fill="currentColor" />
    <path d="M12 6.5C13.1046 6.5 14 5.60457 14 4.5C14 3.39543 13.1046 2.5 12 2.5C10.8954 2.5 10 3.39543 10 4.5C10 5.60457 10.8954 6.5 12 6.5Z" stroke="currentColor" stroke-width="2" stroke-linecap="round" stroke-linejoin="round" />
    <path d="M4 9.5C5.10457 9.5 6 8.60457 6 7.5C6 6.39543 5.10457 5.5 4 5.5C2.89543 5.5 2 6.39543 2 7.5C2 8.60457 2.89543 9.5 4 9.5Z" stroke="currentColor" stroke-width="2" stroke-linecap="round" stroke-linejoin="round" />
    <path d="M20 9.5C21.1046 9.5 22 8.60457 22 7.5C22 6.39543 21.1046 5.5 20 5.5C18.8954 5.5 18 6.39543 18 7.5C18 8.60457 18.8954 9.5 20 9.5Z" stroke="currentColor" stroke-width="2" stroke-linecap="round" stroke-linejoin="round" />
    <path d="M7 17.5L4 9.5M6 9L8.87427 11.3952C8.95551 11.4629 9.05791 11.5 9.16366 11.5C9.36329 11.5 9.53928 11.3691 9.59665 11.1778L11 6.5" stroke="currentColor" stroke-width="2" stroke-linecap="round" stroke-linejoin="round" />
    <path d="M17 17.5L20 9.5M18 9L15.1257 11.3952C15.0445 11.4629 14.9421 11.5 14.8363 11.5C14.6367 11.5 14.4607 11.3691 14.4034 11.1778L13 6.5" stroke="currentColor" stroke-width="2" stroke-linecap="round" stroke-linejoin="round" />
</svg>