<svg xmlns="http://www.w3.org/2000/svg" width="24" height="24" viewBox="0 0 24 24" fill="none">
    <path opacity="0.4" d="M4 5.5V19.9981C4 21.1027 4.89543 21.9981 6 21.9981L18 21.9981C19.1046 21.9981 20 21.1027 20 19.9981L20 5.5C20 4.39543 19.1046 3.5 18 3.5H16C16 4.32843 15.3284 5 14.5 5H9.5C8.67157 5 8 4.32843 8 3.5L6 3.5C4.89543 3.5 4 4.39543 4 5.5Z" fill="currentColor" />
    <path d="M16 3.5H18C19.1046 3.5 20 4.39543 20 5.5L20 19.9981C20 21.1027 19.1046 21.9981 18 21.9981L6 21.9981C4.89543 21.9981 4 21.1027 4 19.9981V5.5C4 4.39543 4.89543 3.5 6 3.5L8 3.5" stroke="currentColor" stroke-width="2" stroke-linecap="round" stroke-linejoin="round" />
    <path d="M14.5 2H9.5C8.67157 2 8 2.67157 8 3.5C8 4.32843 8.67157 5 9.5 5H14.5C15.3284 5 16 4.32843 16 3.5C16 2.67157 15.3284 2 14.5 2Z" stroke="currentColor" stroke-width="2" stroke-linecap="round" stroke-linejoin="round" />
    <path d="M12 10V16" stroke="currentColor" stroke-width="2" stroke-linecap="round" stroke-linejoin="round" />
    <path d="M10 16H14" stroke="currentColor" stroke-width="2" stroke-linecap="round" stroke-linejoin="round" />
    <path d="M15 11C15 10.4477 14.5523 10 14 10H10C9.44772 10 9 10.4477 9 11" stroke="currentColor" stroke-width="2" stroke-linecap="round" stroke-linejoin="round" />
</svg>