<svg xmlns="http://www.w3.org/2000/svg" width="24" height="24" viewBox="0 0 24 24" fill="none">
    <path opacity="0.4" fill-rule="evenodd" clip-rule="evenodd" d="M11.9951 4C16.4133 4.00007 19.9951 7.58176 19.9951 12C19.9951 16.4182 16.4133 19.9999 11.9951 20C7.57687 20 3.99515 16.4182 3.99515 12C3.99515 7.58172 7.57687 4 11.9951 4ZM11.9951 10C10.8906 10 9.99515 10.8954 9.99515 12C9.99515 13.1046 10.8906 14 11.9951 14C13.0997 13.9999 13.9951 13.1045 13.9951 12C13.9951 10.8955 13.0997 10.0001 11.9951 10Z" fill="currentColor" />
    <path d="M19.995 12C19.995 7.58172 16.4132 4 11.995 4C7.57672 4 3.995 7.58172 3.995 12C3.995 16.4182 7.57672 20 11.995 20C16.4132 20 19.995 16.4182 19.995 12Z" stroke="currentColor" stroke-width="2" stroke-linecap="round" stroke-linejoin="round" />
    <path d="M13.995 12C13.995 10.8954 13.0996 10 11.995 10C10.8904 10 9.995 10.8954 9.995 12C9.995 13.1046 10.8904 14 11.995 14C13.0996 14 13.995 13.1046 13.995 12Z" stroke="currentColor" stroke-width="2" stroke-linecap="round" stroke-linejoin="round" />
    <path d="M11.995 4V2M11.995 20V22M15.9957 5.0693L16.9957 3.33725M6.99566 20.6578L10.9967 13.7248M18.9257 7.99558L20.6577 6.99558M5.06929 15.9956L3.33724 16.9956M22 11.9949L13.995 11.9949M4.00003 11.9949H2.00003M18.9307 15.9955L20.6628 16.9955M5.07431 7.99554L3.34226 6.99554M16.0044 18.9256L17.0044 20.6577M7.00437 3.33718L10.9278 10.1435" stroke="currentColor" stroke-width="2" stroke-linecap="round" stroke-linejoin="round" />
</svg>