<svg xmlns="http://www.w3.org/2000/svg" width="24" height="24" viewBox="0 0 24 24" fill="none">
    <path opacity="0.4" d="M2 12.5V7.5C2 6.67157 2.67157 6 3.5 6H20.5C21.3284 6 22 6.67157 22 7.5V12.5C22 13.3284 21.3284 14 20.5 14H3.5C2.67157 14 2 13.3284 2 12.5Z" fill="currentColor" />
    <path d="M2 12.5V7.5C2 6.67157 2.67157 6 3.5 6H20.5C21.3284 6 22 6.67157 22 7.5V12.5C22 13.3284 21.3284 14 20.5 14H3.5C2.67157 14 2 13.3284 2 12.5Z" stroke="currentColor" stroke-width="2" stroke-linecap="round" stroke-linejoin="round" />
    <path d="M14 6L21.5 13.5" stroke="currentColor" stroke-width="2" stroke-linecap="round" stroke-linejoin="round" />
    <path d="M8 6L16 14" stroke="currentColor" stroke-width="2" stroke-linecap="round" stroke-linejoin="round" />
    <path d="M2.5 6.5L10 14" stroke="currentColor" stroke-width="2" stroke-linecap="round" stroke-linejoin="round" />
    <path d="M6 3V6M6 14V21" stroke="currentColor" stroke-width="2" stroke-linecap="round" stroke-linejoin="round" />
    <path d="M18 3V6M18 14V21" stroke="currentColor" stroke-width="2" stroke-linecap="round" stroke-linejoin="round" />
</svg>