<svg xmlns="http://www.w3.org/2000/svg" width="24" height="24" viewBox="0 0 24 24" fill="none">
    <path opacity="0.4" fill-rule="evenodd" clip-rule="evenodd" d="M12 22.002C17.5228 22.002 22 17.5248 22 12.002C22 6.47911 17.5228 2.00195 12 2.00195C6.47715 2.00195 2 6.47911 2 12.002C2 17.5248 6.47715 22.002 12 22.002ZM19 12.002C19 15.8679 15.866 19.002 12 19.002V5.00195C15.866 5.00195 19 8.13596 19 12.002Z" fill="currentColor" />
    <circle cx="12" cy="12.002" r="10" stroke="currentColor" stroke-width="2" stroke-linecap="round" stroke-linejoin="round" />
    <path d="M12 19.002C15.866 19.002 19 15.8679 19 12.002C19 8.13596 15.866 5.00195 12 5.00195V19.002Z" stroke="currentColor" stroke-width="2" stroke-linecap="round" stroke-linejoin="round" />
</svg>