<svg xmlns="http://www.w3.org/2000/svg" width="24" height="24" viewBox="0 0 24 24" fill="none">
    <path opacity="0.4" d="M11 8.00195C15.4183 8.00195 19 6.65881 19 5.00195V14.0371C18.4117 13.6967 17.7286 13.502 17 13.502C14.7909 13.502 13 15.2928 13 17.502C13 19.3453 14.2469 20.8974 15.9432 21.3609C14.5825 21.7624 12.8659 22.002 11 22.002C6.58172 22.002 3 20.6588 3 19.002V5.00195C3 6.65881 6.58172 8.00195 11 8.00195Z" fill="currentColor" />
    <ellipse cx="11" cy="5.00195" rx="8" ry="3" stroke="currentColor" stroke-width="2" stroke-linecap="round" stroke-linejoin="round" />
    <path d="M3 12.002C3 13.3998 5.54955 14.5744 9 14.9074" stroke="currentColor" stroke-width="2" stroke-linecap="round" stroke-linejoin="round" />
    <path d="M13.5 16.002C14 15.002 15 13.502 17 13.502C19.2091 13.502 21 15.2928 21 17.502C21 19.7111 19.2091 21.502 17 21.502C15.8053 21.502 14.7329 20.9782 14 20.1478M16 16.502H13V13.002" stroke="currentColor" stroke-width="2" stroke-linecap="round" stroke-linejoin="round" />
    <path d="M11 22.002C6.58172 22.002 3 20.6588 3 19.002V5.00195M19 5.00195V10.002" stroke="currentColor" stroke-width="2" stroke-linecap="round" stroke-linejoin="round" />
</svg>