<svg xmlns="http://www.w3.org/2000/svg" width="24" height="24" viewBox="0 0 24 24" fill="none">
    <path opacity="0.4" fill-rule="evenodd" clip-rule="evenodd" d="M12 2C17.5228 2 22 6.47715 22 12C22 17.5228 17.5228 22 12 22C6.47715 22 2 17.5228 2 12C2 6.47715 6.47715 2 12 2ZM16.1309 7C16.0442 7 15.9578 7.01261 15.875 7.03809L9.83789 8.89648C9.61604 8.96477 9.41413 9.08587 9.25 9.25C9.08587 9.41413 8.96477 9.61604 8.89648 9.83789L7.03809 15.875C7.01261 15.9578 7 16.0442 7 16.1309C7.00008 16.6108 7.38916 16.9999 7.86914 17C7.95578 17 8.04219 16.9874 8.125 16.9619L14.1621 15.1035C14.384 15.0352 14.5859 14.9141 14.75 14.75C14.9141 14.5859 15.0352 14.384 15.1035 14.1621L16.9619 8.125C16.9874 8.04219 17 7.95578 17 7.86914C16.9999 7.38916 16.6108 7.00008 16.1309 7Z" fill="currentColor" />
    <path d="M22 12C22 6.47715 17.5228 2 12 2C6.47715 2 2 6.47715 2 12C2 17.5228 6.47715 22 12 22C17.5228 22 22 17.5228 22 12Z" stroke="currentColor" stroke-width="2" stroke-linecap="round" stroke-linejoin="round" />
    <path d="M8.12493 16.9616L14.1621 15.104C14.384 15.0357 14.5858 14.9142 14.75 14.75C14.9142 14.5858 15.0357 14.384 15.104 14.1621L16.9616 8.12493C16.987 8.04211 17 7.95594 17 7.86929C17 7.38919 16.6108 7 16.1307 7C16.0441 7 15.9579 7.01296 15.8751 7.03844L9.83792 8.89602C9.61601 8.9643 9.41417 9.08583 9.25 9.25C9.08583 9.41417 8.9643 9.61601 8.89602 9.83792L7.03844 15.8751C7.01296 15.9579 7 16.0441 7 16.1307C7 16.6108 7.38919 17 7.86929 17C7.95594 17 8.04211 16.987 8.12493 16.9616Z" stroke="currentColor" stroke-width="2" stroke-linecap="round" stroke-linejoin="round" />
    <path d="M12.125 12H12M12.25 12C12.25 12.1381 12.1381 12.25 12 12.25C11.8619 12.25 11.75 12.1381 11.75 12C11.75 11.8619 11.8619 11.75 12 11.75C12.1381 11.75 12.25 11.8619 12.25 12Z" stroke="currentColor" stroke-width="2" stroke-linecap="round" stroke-linejoin="round" />
</svg>