<svg xmlns="http://www.w3.org/2000/svg" width="24" height="24" viewBox="0 0 24 24" fill="none">
    <path opacity="0.4" d="M18.5 4H14V20H18.5C19.3284 20 20 19.3284 20 18.5V5.5C20 4.67157 19.3284 4 18.5 4Z" fill="currentColor" />
    <path d="M3.99994 18.416V5.58403C3.99994 4.65593 4.63843 3.84977 5.54186 3.63719L12.3481 2.03573C12.449 2.01199 12.5523 2 12.6559 2C13.3982 2 13.9999 2.60173 13.9999 3.34401V20.656C13.9999 21.3983 13.3982 22 12.6559 22C12.5523 22 12.449 21.988 12.3481 21.9643L5.54186 20.3628C4.63843 20.1502 3.99994 19.3441 3.99994 18.416Z" stroke="currentColor" stroke-width="2" stroke-linecap="round" stroke-linejoin="round" />
    <path d="M11 11V13" stroke="currentColor" stroke-width="2" stroke-linecap="round" stroke-linejoin="round" />
    <path d="M18 4H18.5C19.3284 4 20 4.67157 20 5.5V18.5C20 19.3284 19.3284 20 18.5 20H18" stroke="currentColor" stroke-width="2" stroke-linecap="round" stroke-linejoin="round" />
</svg>