<svg xmlns="http://www.w3.org/2000/svg" width="24" height="24" viewBox="0 0 24 24" fill="none">
    <path opacity="0.4" d="M20.7131 11.818C22.6758 9.8553 22.3576 6.35484 20.0024 3.99954C17.6471 1.64425 14.1467 1.32602 12.184 3.28877C11.9778 3.495 11.7967 3.7182 11.6406 3.95527C10.3707 5.88324 10.387 8.46217 9.32757 10.5133L8.84201 11.4534C8.29251 12.5173 8.49428 13.8144 9.34097 14.6611C10.1877 15.5078 11.4848 15.7096 12.5486 15.1601L13.4887 14.6745C15.5398 13.6151 18.1187 13.6313 20.0466 12.3615C20.2837 12.2053 20.5069 12.0243 20.7131 11.818Z" fill="currentColor" />
    <path d="M8.27489 13.5946L5.43185 16.4377C4.64677 15.6526 3.3739 15.6526 2.58881 16.4377C1.80373 17.2228 1.80373 18.4957 2.58881 19.2808C3.01407 19.7061 3.58229 19.8986 4.13874 19.8632C4.1033 20.4196 4.29584 20.9879 4.72109 21.4131C5.50617 22.1982 6.77905 22.1982 7.56413 21.4131C8.34921 20.628 8.34921 19.3551 7.56413 18.57L10.4072 15.7269M20.0024 3.99954C22.3577 6.35484 22.6759 9.8553 20.7132 11.818C20.507 12.0243 20.2838 12.2053 20.0467 12.3615C18.1188 13.6313 15.5399 13.6151 13.4888 14.6745L12.5487 15.1601C11.4849 15.7096 10.1877 15.5078 9.34106 14.6611C8.49437 13.8144 8.2926 12.5173 8.8421 11.4534L9.32766 10.5133C10.3871 8.46217 10.3708 5.88324 11.6407 3.95527C11.7968 3.7182 11.9779 3.495 12.1841 3.28877C14.1468 1.32602 17.6472 1.64425 20.0024 3.99954Z" stroke="currentColor" stroke-width="2" stroke-linecap="round" stroke-linejoin="round" />
</svg>