<svg xmlns="http://www.w3.org/2000/svg" width="24" height="24" viewBox="0 0 24 24" fill="none">
    <path d="M16.3633 21.002C19.6995 19.3812 21.9992 15.9602 21.9992 12.002C21.9992 8.04375 19.6995 4.62267 16.3633 3.00195" stroke="currentColor" stroke-width="2" stroke-linecap="round" stroke-linejoin="round" />
    <path opacity="0.4" d="M16.3641 3.00195C15.0454 2.3613 13.5646 2.00195 12 2.00195C6.47715 2.00195 2 6.47911 2 12.002C2 17.5248 6.47715 22.002 12 22.002C13.5646 22.002 15.0454 21.6426 16.3641 21.002H16C12.0537 20.444 9 16.6273 9 12.002C9 7.3766 12.0537 3.55988 16 3.00195H16.3641Z" fill="currentColor" />
    <path d="M16.3641 3.00195C15.0454 2.3613 13.5646 2.00195 12 2.00195C6.47715 2.00195 2 6.47911 2 12.002C2 17.5248 6.47715 22.002 12 22.002C13.5646 22.002 15.0454 21.6426 16.3641 21.002H16C12.0537 20.444 9 16.6273 9 12.002C9 7.3766 12.0537 3.55988 16 3.00195H16.3641Z" stroke="currentColor" stroke-width="2" stroke-linecap="round" stroke-linejoin="round" />
</svg>