<svg xmlns="http://www.w3.org/2000/svg" width="24" height="24" viewBox="0 0 24 24" fill="none">
    <path opacity="0.4" d="M4 14.0001C4 19.0001 7.58172 22.0001 12 22.0001C14.7861 22.0001 17.2395 20.8072 18.672 18.6721L6.26116 6.26123C4.8617 8.61399 4 11.5476 4 14.0001Z" fill="currentColor" />
    <path d="M8.49383 3.49383C9.55257 2.56712 10.7424 2 12 2C16.4183 2 20 9 20 14C20 14.3269 19.9847 14.6453 19.9548 14.9548M6.26116 6.26116C4.8617 8.61391 4 11.5475 4 14C4 19 7.58172 22 12 22C14.7861 22 17.2395 20.8071 18.672 18.672M8.49383 3.49383C9.55257 2.56712 10.7424 2 12 2C16.4183 2 20 9 20 14C20 14.3269 19.9847 14.6453 19.9548 14.9548M6.26116 6.26116C4.8617 8.61391 4 11.5475 4 14C4 19 7.58172 22 12 22C14.7861 22 17.2395 20.8071 18.672 18.672" stroke="currentColor" stroke-width="2" stroke-linecap="round" stroke-linejoin="round" />
    <path d="M2 2L22 22" stroke="currentColor" stroke-width="2" stroke-linecap="round" stroke-linejoin="round" />
</svg>