<svg xmlns="http://www.w3.org/2000/svg" width="24" height="24" viewBox="0 0 24 24" fill="none">
    <path d="M2 21.002H15" stroke="currentColor" stroke-width="2" stroke-linecap="round" stroke-linejoin="round" />
    <path opacity="0.4" d="M14 5.00195V21.002H3V5.00195C3 3.89738 3.89543 3.00195 5 3.00195H12C13.1046 3.00195 14 3.89738 14 5.00195Z" fill="currentColor" />
    <path d="M14 21.002V5.00195C14 3.89738 13.1046 3.00195 12 3.00195H5C3.89543 3.00195 3 3.89738 3 5.00195V21.002" stroke="currentColor" stroke-width="2" stroke-linecap="round" stroke-linejoin="round" />
    <path d="M8.5 7.00195L7 10.002H10L8.5 13.002" stroke="currentColor" stroke-width="2" stroke-linecap="round" stroke-linejoin="round" />
    <path d="M14 13.002H16C17.1046 13.002 18 13.8974 18 15.002V17.002C18 18.1065 18.8954 19.002 20 19.002C21.1046 19.002 22 18.1065 22 17.002V8.41617C22 8.15095 21.8946 7.8966 21.7071 7.70906L19 5.00195M20.5 7.00195V9.58774C20.5 9.85296 20.6054 10.1073 20.7929 10.2948L21.5 11.002" stroke="currentColor" stroke-width="2" stroke-linecap="round" stroke-linejoin="round" />
</svg>