<svg xmlns="http://www.w3.org/2000/svg" width="24" height="24" viewBox="0 0 24 24" fill="none">
    <path opacity="0.4" d="M13.498 7C13.498 8.10457 14.3935 9 15.498 9H20.5V20C20.5 21.1046 19.6046 22 18.5 22H6.5C6.32705 22 6.16006 21.9749 6 21.9336C6.8622 21.7113 7.5 20.9316 7.5 20C7.5 18.8954 6.60457 18 5.5 18C5.13536 18 4.79437 18.0991 4.5 18.2695V4C4.5 2.89543 5.39543 2 6.5 2H13.5L13.498 7Z" fill="currentColor" />
    <path d="M4.5 14V4C4.5 2.89543 5.39543 2 6.5 2H13.5L20.5 9V20C20.5 21.1046 19.6046 22 18.5 22H11.5" stroke="currentColor" stroke-width="2" stroke-linecap="round" stroke-linejoin="round" />
    <path d="M13.5 2V7C13.5 8.10457 14.3954 9 15.5 9H20.5" stroke="currentColor" stroke-width="2" stroke-linecap="round" stroke-linejoin="round" />
    <path d="M7 18.5L11.5 14M10.5 15.5L11.5 16.5M7.5 20C7.5 21.1046 6.60457 22 5.5 22C4.39543 22 3.5 21.1046 3.5 20C3.5 18.8954 4.39543 18 5.5 18C6.60457 18 7.5 18.8954 7.5 20Z" stroke="currentColor" stroke-width="2" stroke-linecap="round" stroke-linejoin="round" />
</svg>