<svg xmlns="http://www.w3.org/2000/svg" width="24" height="24" viewBox="0 0 24 24" fill="none">
    <path opacity="0.4" d="M19 22H7C5.89543 22 5 21.1046 5 20L5 4C5 2.89543 5.89543 2 7 2H14L13.998 7C13.998 8.10457 14.8935 9 15.998 9L21 9L21 20C21 21.1046 20.1046 22 19 22Z" fill="currentColor" />
    <path d="M5 12V4C5 2.89543 5.89543 2 7 2H14L21 9V20C21 21.1046 20.1046 22 19 22H15" stroke="currentColor" stroke-width="2" stroke-linecap="round" stroke-linejoin="round" />
    <path d="M10 16L13 19L10 22" stroke="currentColor" stroke-width="2" stroke-linecap="round" stroke-linejoin="round" />
    <path d="M6 16L3 19L6 22" stroke="currentColor" stroke-width="2" stroke-linecap="round" stroke-linejoin="round" />
    <path d="M14 2V7C14 8.10457 14.8954 9 16 9H21" stroke="currentColor" stroke-width="2" stroke-linecap="round" stroke-linejoin="round" />
</svg>