<svg xmlns="http://www.w3.org/2000/svg" width="24" height="24" viewBox="0 0 24 24" fill="none">
    <path d="M4.5 11V4C4.5 2.89543 5.39543 2 6.5 2H13.5L20.5 9V20C20.5 21.1046 19.6046 22 18.5 22H13.5" stroke="currentColor" stroke-width="2" stroke-linecap="round" stroke-linejoin="round" />
    <path d="M13.5 2V7C13.5 8.10457 14.3954 9 15.5 9H20.5" stroke="currentColor" stroke-width="2" stroke-linejoin="round" />
    <path opacity="0.4" fill-rule="evenodd" clip-rule="evenodd" d="M4.5 4V20C4.5 21.1046 5.39543 22 6.5 22H18.5C19.6046 22 20.5 21.1046 20.5 20V9H15.5C14.3954 9 13.5 8.10457 13.5 7V2H6.5C5.39543 2 4.5 2.89543 4.5 4ZM9 18C9 19.1046 8.10457 20 7 20C5.89543 20 5 19.1046 5 18C5 16.8954 5.89543 16 7 16C8.10457 16 9 16.8954 9 18Z" fill="currentColor" />
    <path d="M6.96161 20C8.06618 20 8.96161 19.1046 8.96161 18C8.96161 16.8954 8.06618 16 6.96161 16M6.96161 20C5.85704 20 4.96161 19.1046 4.96161 18C4.96161 16.8954 5.85704 16 6.96161 16M6.96161 20V22M6.96161 16V14M8.69617 16.9956L10.4282 15.9956M5.23207 18.9956L3.50002 19.9956M8.70118 18.9956L10.4332 19.9956M5.23708 16.9956L3.50502 15.9956" stroke="currentColor" stroke-width="2" stroke-linecap="round" stroke-linejoin="round" />
</svg>