<svg xmlns="http://www.w3.org/2000/svg" width="24" height="24" viewBox="0 0 24 24" fill="none">
    <path opacity="0.4" d="M18.0034 22H6.00342C4.89885 22 4.00342 21.1046 4.00342 20L4.00342 4C4.00342 2.89543 4.89885 2 6.00342 2H13.0034L13.0015 7C13.0015 8.10457 13.8969 9 15.0015 9L20.0034 9L20.0034 20C20.0034 21.1046 19.108 22 18.0034 22Z" fill="currentColor" />
    <path d="M19.9966 20V9L12.9966 2H5.99658C4.89201 2 3.99658 2.89543 3.99658 4V20C3.99658 21.1046 4.89201 22 5.99658 22H17.9966C19.1012 22 19.9966 21.1046 19.9966 20Z" stroke="currentColor" stroke-width="2" stroke-linecap="round" stroke-linejoin="round" />
    <path d="M12.9966 2V7C12.9966 8.10457 13.892 9 14.9966 9H19.9966" stroke="currentColor" stroke-width="2" stroke-linecap="round" stroke-linejoin="round" />
    <path d="M11.9966 12V18M15.0016 14.995L9.00158 14.995" stroke="currentColor" stroke-width="2" stroke-linecap="round" stroke-linejoin="round" />
</svg>