<svg xmlns="http://www.w3.org/2000/svg" width="24" height="24" viewBox="0 0 24 24" fill="none">
    <path opacity="0.4" d="M13.498 7C13.498 8.10457 14.3935 9 15.498 9H20.5V20C20.5 21.1046 19.6046 22 18.5 22H9C9.55228 22 10 21.5523 10 21V20L12.915 21.457C12.9711 21.485 13.033 21.5 13.0957 21.5C13.3189 21.4999 13.4999 21.3189 13.5 21.0957V16.9043C13.4999 16.6811 13.3189 16.5001 13.0957 16.5C13.033 16.5 12.9711 16.515 12.915 16.543L10 18V17C10 16.4477 9.55228 16 9 16H4.5V4C4.5 2.89543 5.39543 2 6.5 2H13.5L13.498 7Z" fill="currentColor" />
    <path d="M4.5 12V4C4.5 2.89543 5.39543 2 6.5 2H13.5L20.5 9V20C20.5 21.1046 19.6046 22 18.5 22H16.5" stroke="currentColor" stroke-width="2" stroke-linecap="round" stroke-linejoin="round" />
    <path d="M13.5 2V7C13.5 8.10457 14.3954 9 15.5 9H20.5" stroke="currentColor" stroke-width="2" stroke-linecap="round" stroke-linejoin="round" />
    <path d="M10 18V17C10 16.4477 9.55228 16 9 16H4.5C3.94772 16 3.5 16.4477 3.5 17V21C3.5 21.5523 3.94772 22 4.5 22H9C9.55228 22 10 21.5523 10 21V20M10 18V20M10 18L12.9146 16.5427C12.9708 16.5146 13.0327 16.5 13.0955 16.5C13.3189 16.5 13.5 16.6811 13.5 16.9045V21.0955C13.5 21.3189 13.3189 21.5 13.0955 21.5C13.0327 21.5 12.9708 21.4854 12.9146 21.4573L10 20" stroke="currentColor" stroke-width="2" stroke-linecap="round" stroke-linejoin="round" />
</svg>