<svg xmlns="http://www.w3.org/2000/svg" width="24" height="24" viewBox="0 0 24 24" fill="none">
    <path opacity="0.4" d="M14 20.0007C11.083 19.9878 9.65844 19.494 9.1094 18.6789L8 16.8576C5.50848 16.3544 3.21828 14.7632 2 12.084C5 5.4866 14.5 5.4866 17.5 12.084C16.4151 14.4699 14.4801 15.993 12.3099 16.6532C13.3507 17.3818 14 18.6926 14 20.0007Z" fill="currentColor" />
    <path d="M11 16.0411C11.4635 16.194 11.9076 16.3701 12.3099 16.6518M12.3099 16.6518C13.3507 17.3803 14 18.6912 14 19.9993C11.083 19.9864 9.65844 19.4925 9.1094 18.6775L8 16.8561C5.50848 16.3529 3.21828 14.7618 2 12.0826C5 5.48517 14.5 5.48517 17.5 12.0826M12.3099 16.6518C14.4801 15.9915 16.4151 14.4684 17.5 12.0826M12.3099 7.51349C13.3507 6.78492 14 5.3073 14 3.99924C14 3.99924 9.69172 4.62334 9.1094 5.48774L8 7.3091M17.5 12.0826C17.8333 11.4229 19.6 9.11375 22 9.11375C21.1667 9.93843 19.8 13.0722 21 15.0514C19.8 15.0514 18 12.7423 17.5 12.0826Z" stroke="currentColor" stroke-width="2" stroke-linecap="round" stroke-linejoin="round" />
    <path d="M6.125 11.9992H6M6.25 11.9992C6.25 12.1373 6.13807 12.2492 6 12.2492C5.86193 12.2492 5.75 12.1373 5.75 11.9992C5.75 11.8612 5.86193 11.7492 6 11.7492C6.13807 11.7492 6.25 11.8612 6.25 11.9992Z" stroke="currentColor" stroke-width="2" stroke-linecap="round" />
</svg>