<svg xmlns="http://www.w3.org/2000/svg" width="24" height="24" viewBox="0 0 24 24" fill="none">
    <path opacity="0.4" d="M19 2.81992V16L5.43946 9.21973C5.17013 9.08507 5 8.80979 5 8.50867C5 8.19858 5.1803 7.91678 5.46185 7.78684L17.8365 2.07547C17.9442 2.02575 18.0614 2 18.1801 2C18.6329 2 19 2.36709 19 2.81992Z" fill="currentColor" />
    <path d="M19 16V2.81992C19 2.36709 18.6329 2 18.1801 2C18.0614 2 17.9442 2.02575 17.8365 2.07547L5.46185 7.78684C5.1803 7.91678 5 8.19858 5 8.50867C5 8.80979 5.17013 9.08507 5.43946 9.21973L19 16ZM19 16V22" stroke="currentColor" stroke-width="2" stroke-linecap="round" stroke-linejoin="round" />
</svg>