<svg xmlns="http://www.w3.org/2000/svg" width="24" height="24" viewBox="0 0 24 24" fill="none">
    <path opacity="0.4" d="M5 15C5 18.866 8.13401 22 12 22C15.54 22 18.4662 19.3723 18.9346 15.961C18.6334 15.9864 18.3096 16 17.9615 16C16.1731 16 14.3846 15.25 12.5962 14.5C10.8077 13.75 9.01923 13 7.23077 13C6.52284 13 5.86744 13.0529 5.249 13.1429C5.08668 13.7344 5 14.3571 5 15Z" fill="currentColor" />
    <path d="M5.5 13.3247C6.25954 13.1279 7.07646 13 8 13C11 13 14 16 17 16C17.5754 16 18.0713 15.947 18.5 15.8557" stroke="currentColor" stroke-width="2" stroke-linecap="round" stroke-linejoin="round" />
    <path d="M8 2H16" stroke="currentColor" stroke-width="2" stroke-linecap="round" stroke-linejoin="round" />
    <path d="M9.5 2V8.45963C6.86863 9.46605 5 12.0148 5 15C5 18.866 8.13401 22 12 22C15.866 22 19 18.866 19 15C19 12.0148 17.1314 9.46605 14.5 8.45963V2" stroke="currentColor" stroke-width="2" stroke-linecap="round" stroke-linejoin="round" />
</svg>