<svg xmlns="http://www.w3.org/2000/svg" width="24" height="24" viewBox="0 0 24 24" fill="none">
    <path opacity="0.4" d="M19.4294 22H4.57063C3.7032 22 3 21.2968 3 20.4294C3 20.1483 3.07543 19.8723 3.21843 19.6303L6.53672 14.0148C6.74206 14.0051 6.95189 14 7.16667 14C8.91667 14 10.6667 14.75 12.4167 15.5C13.9315 16.1492 15.4463 16.7984 16.9612 16.9612L20.9214 20.9214C20.7149 21.5478 20.125 22 19.4294 22Z" fill="currentColor" />
    <path d="M9.5 4.5V2M14.5 9.5V2M9.31429 9.31429L3.21843 19.6303C3.07543 19.8723 3 20.1483 3 20.4294C3 21.2968 3.7032 22 4.57063 22H19C19.8111 22 20.5094 21.5172 20.8232 20.8232" stroke="currentColor" stroke-width="2" stroke-linecap="round" stroke-linejoin="round" />
    <path d="M2 2L22 22" stroke="currentColor" stroke-width="2" stroke-linecap="round" stroke-linejoin="round" />
    <path d="M8 2H16" stroke="currentColor" stroke-width="2" stroke-linecap="round" stroke-linejoin="round" />
    <path d="M17 17C14 17 11 14 8 14C7.65244 14 7.31998 14.0181 7 14.0512" stroke="currentColor" stroke-width="2" stroke-linecap="round" stroke-linejoin="round" />
</svg>