<svg xmlns="http://www.w3.org/2000/svg" width="24" height="24" viewBox="0 0 24 24" fill="none">
    <path opacity="0.4" d="M9.60059 3.79395C9.22269 3.29381 8.63171 3.00015 8.00488 3H4C2.89543 3 2 3.89543 2 5V19C2 20.1046 2.89543 21 4 21H20C21.1046 21 22 20.1046 22 19V8.99414C21.9998 7.88972 21.1045 6.99414 20 6.99414H12.0176L9.60059 3.79395Z" fill="currentColor" />
    <path d="M4.99998 17L2 14L5 11M3 14L12 14" stroke="currentColor" stroke-width="2" stroke-linecap="round" stroke-linejoin="round" />
    <path d="M8 6.99446H12.0179M12.0179 6.99446H20C21.1046 6.99446 22 7.88989 22 8.99446V19C22 20.1046 21.1046 21 20 21H4C2.89543 21 2 20.1046 2 19M12.0179 6.99446L9.60016 3.79437C9.22218 3.29407 8.63144 3 8.0044 3H4C2.89543 3 2 3.89543 2 5V9" stroke="currentColor" stroke-width="2" stroke-linecap="round" stroke-linejoin="round" />
</svg>