<svg xmlns="http://www.w3.org/2000/svg" width="24" height="24" viewBox="0 0 24 24" fill="none">
    <path opacity="0.4" fill-rule="evenodd" clip-rule="evenodd" d="M8.00488 3C8.63171 3.00015 9.22269 3.29381 9.60059 3.79395L12.0176 6.99414H20C21.1045 6.99414 21.9998 7.88972 22 8.99414V19C22 20.1046 21.1046 21 20 21H4C2.89543 21 2 20.1046 2 19V5C2 3.89543 2.89543 3 4 3H8.00488ZM12 11C10.6193 11 9.5 12.1193 9.5 13.5C9.5 14.8807 10.6193 16 12 16C13.3807 16 14.5 14.8807 14.5 13.5C14.5 12.1193 13.3807 11 12 11Z" fill="currentColor" />
    <path d="M14 15.5L15.5 17M14.5 13.5C14.5 14.8807 13.3807 16 12 16C10.6193 16 9.5 14.8807 9.5 13.5C9.5 12.1193 10.6193 11 12 11C13.3807 11 14.5 12.1193 14.5 13.5Z" stroke="currentColor" stroke-width="2" stroke-linecap="round" stroke-linejoin="round" />
    <path d="M8 6.99446H12.0179M12.0179 6.99446H20C21.1046 6.99446 22 7.88989 22 8.99446V19C22 20.1046 21.1046 21 20 21H4C2.89543 21 2 20.1046 2 19V5C2 3.89543 2.89543 3 4 3H8.0044C8.63144 3 9.22218 3.29407 9.60016 3.79437L12.0179 6.99446Z" stroke="currentColor" stroke-width="2" stroke-linecap="round" stroke-linejoin="round" />
</svg>