<svg xmlns="http://www.w3.org/2000/svg" width="24" height="24" viewBox="0 0 24 24" fill="none">
    <path d="M12.9115 2.5H3.08845C2.48732 2.5 2 2.98732 2 3.58845C2 3.85366 2.09682 4.10973 2.27229 4.30859L9.5 12.5V20.75C9.5 21.1642 9.83579 21.5 10.25 21.5C10.4123 21.5 10.5702 21.4474 10.7 21.35L14.1 18.8C14.3518 18.6111 14.5 18.3148 14.5 18V12.5L15.5 11.3667" stroke="currentColor" stroke-width="2" stroke-linecap="round" stroke-linejoin="round" />
    <path opacity="0.4" d="M20.9115 2.5H3.08845C2.48732 2.5 2 2.98732 2 3.58845C2 3.85366 2.09682 4.10973 2.27229 4.30859L9.5 12.5V20.75C9.5 21.1642 9.83579 21.5 10.25 21.5C10.4123 21.5 10.5702 21.4474 10.7 21.35L14.1 18.8C14.3518 18.6111 14.5 18.3148 14.5 18V12.5L21.7277 4.30859C21.9032 4.10973 22 3.85366 22 3.58845C22 2.98732 21.5127 2.5 20.9115 2.5Z" fill="currentColor" />
    <path d="M21.9917 2.5L19.5 4.99583M19.5 4.99583L17 7.5M19.5 4.99583L22 7.5M19.5 4.99583L17.0083 2.5" stroke="currentColor" stroke-width="2" stroke-linecap="round" stroke-linejoin="round" />
</svg>