<svg xmlns="http://www.w3.org/2000/svg" width="24" height="24" viewBox="0 0 24 24" fill="none">
    <path opacity="0.4" d="M11 18V6C11 4.89543 11.8954 4 13 4H19C20.1046 4 21 4.89543 21 6V18C21 19.1046 20.1046 20 19 20H13C11.8954 20 11 19.1046 11 18Z" fill="currentColor" />
    <path d="M11 18V6C11 4.89543 11.8954 4 13 4H19C20.1046 4 21 4.89543 21 6V18C21 19.1046 20.1046 20 19 20H13C11.8954 20 11 19.1046 11 18Z" stroke="currentColor" stroke-width="2" stroke-linecap="round" stroke-linejoin="round" />
    <path d="M7 6V18" stroke="currentColor" stroke-width="2" stroke-linecap="round" stroke-linejoin="round" />
    <path d="M3 8V16" stroke="currentColor" stroke-width="2" stroke-linecap="round" stroke-linejoin="round" />
</svg>