<svg xmlns="http://www.w3.org/2000/svg" width="24" height="24" viewBox="0 0 24 24" fill="none">
    <path d="M6 22L18 22" stroke="currentColor" stroke-width="2" stroke-linecap="round" stroke-linejoin="round" />
    <path opacity="0.4" d="M19 2H5C3.89543 2 3 2.89543 3 4V12C3 13.1046 3.89543 14 5 14H19C20.1046 14 21 13.1046 21 12V4C21 2.89543 20.1046 2 19 2Z" fill="currentColor" />
    <path d="M4 18L20 18" stroke="currentColor" stroke-width="2" stroke-linecap="round" stroke-linejoin="round" />
    <path d="M3 4L3 12C3 13.1046 3.89543 14 5 14L19 14C20.1046 14 21 13.1046 21 12V4C21 2.89543 20.1046 2 19 2L5 2C3.89543 2 3 2.89543 3 4Z" stroke="currentColor" stroke-width="2" stroke-linecap="round" stroke-linejoin="round" />
</svg>