<svg xmlns="http://www.w3.org/2000/svg" width="24" height="24" viewBox="0 0 24 24" fill="none">
    <path opacity="0.4" d="M6.99938 14.0007V22.0007H3.99869C3.44591 22.0007 2.99799 21.5522 2.99869 20.9994L3.01407 8.80148C3.0147 8.30105 3.26485 7.83389 3.68102 7.55597L11.1671 2.55655C11.6711 2.22 12.328 2.21974 12.8322 2.55588L20.3315 7.5554C20.7488 7.8336 20.9995 8.30194 20.9995 8.80347V21.0007C20.9995 21.553 20.5518 22.0007 19.9995 22.0007H16.9994V14.0007C16.9994 13.4484 16.5517 13.0007 15.9994 13.0007H7.99938C7.44709 13.0007 6.99938 13.4484 6.99938 14.0007Z" fill="currentColor" />
    <path d="M6.99869 21.9993V13.9993C6.99869 13.447 7.4464 12.9993 7.99869 12.9993H15.9987C16.551 12.9993 16.9987 13.447 16.9987 13.9993V21.9993" stroke="currentColor" stroke-width="2" stroke-linecap="round" stroke-linejoin="round" />
    <path d="M6.99869 15.9993H16.9987M6.99869 18.9993H16.9987" stroke="currentColor" stroke-width="2" stroke-linecap="round" stroke-linejoin="round" />
    <path d="M20.9982 19.9993V9.03559C20.9982 8.38574 20.6825 7.7764 20.1516 7.40164L12.9063 2.28739C12.6407 2.09992 12.3236 1.99927 11.9985 1.99927C11.6729 1.99927 11.3554 2.10021 11.0896 2.28818L3.85772 7.40247C3.32837 7.77682 3.01333 8.38454 3.01251 9.03288L2.99869 19.9967C2.9973 21.1023 3.89314 21.9993 4.99869 21.9993H18.9982C20.1028 21.9993 20.9982 21.1038 20.9982 19.9993Z" stroke="currentColor" stroke-width="2" stroke-linecap="round" stroke-linejoin="round" />
    <path d="M12.1237 6.99927H11.9987M12.2487 6.99927C12.2487 7.13734 12.1368 7.24927 11.9987 7.24927C11.8606 7.24927 11.7487 7.13734 11.7487 6.99927C11.7487 6.8612 11.8606 6.74927 11.9987 6.74927C12.1368 6.74927 12.2487 6.8612 12.2487 6.99927Z" stroke="currentColor" stroke-width="2" stroke-linecap="round" />
</svg>