<svg xmlns="http://www.w3.org/2000/svg" width="24" height="24" viewBox="0 0 24 24" fill="none">
    <path opacity="0.4" fill-rule="evenodd" clip-rule="evenodd" d="M6.85955 20.657L5.69727 9.61536C6.5528 9.21345 7.5165 9 8.50091 9C9.76307 9 10.9912 9.35089 12.0009 10C13.0106 10.6491 14.2388 11 15.5009 11C16.4528 11 17.3854 10.8004 18.2195 10.4238L17.1423 20.657C17.0619 21.4204 16.4182 22 15.6505 22H8.3513C7.58367 22 6.93991 21.4204 6.85955 20.657Z" fill="currentColor" />
    <path d="M18 2H6C5.44772 2 5 2.44772 5 3L6.85863 20.657C6.93899 21.4204 7.58275 22 8.35039 22H15.6496C16.4172 22 17.061 21.4204 17.1414 20.657L19 3C19 2.44772 18.5523 2 18 2Z" stroke="currentColor" stroke-width="2" stroke-linecap="round" stroke-linejoin="round" />
    <path d="M6 10C6.86548 9.35089 7.91815 9 9 9C10.0819 9 11.1345 9.35089 12 10C12.8655 10.6491 13.9181 11 15 11C16.0819 11 17.1345 10.6491 18 10" stroke="currentColor" stroke-width="2" stroke-linecap="round" stroke-linejoin="round" />
</svg>