<svg xmlns="http://www.w3.org/2000/svg" width="24" height="24" viewBox="0 0 24 24" fill="none">
    <path d="M11 7.10156C8.71776 7.56483 7 9.58259 7 12.0015C7 14.763 9.23858 17.0015 12 17.0015C14.419 17.0015 16.4367 15.2838 16.9 13.0015" stroke="currentColor" stroke-width="2" stroke-linecap="round" stroke-linejoin="round" />
    <path d="M22 12C22 17.5228 17.5228 22 12 22C6.47715 22 2 17.5228 2 12C2 6.47715 6.47715 2 12 2" stroke="currentColor" stroke-width="2" stroke-linecap="round" stroke-linejoin="round" />
    <path opacity="0.4" d="M14.5 5.91421V9.5H18.0858C18.351 9.5 18.6054 9.39464 18.7929 9.20711L21.8839 6.1161C21.9582 6.04176 22 5.94094 22 5.8358C22 5.64203 21.8599 5.47665 21.6688 5.44479L19 5L18.5552 2.33124C18.5233 2.14009 18.358 2 18.1642 2C18.0591 2 17.9582 2.04176 17.8839 2.1161L14.7929 5.20711C14.6054 5.39464 14.5 5.649 14.5 5.91421Z" fill="currentColor" />
    <path d="M14.5 5.91421V9.5H18.0858C18.351 9.5 18.6054 9.39464 18.7929 9.20711L21.8839 6.1161C21.9582 6.04176 22 5.94094 22 5.8358C22 5.64203 21.8599 5.47665 21.6688 5.44479L19 5L18.5552 2.33124C18.5233 2.14009 18.358 2 18.1642 2C18.0591 2 17.9582 2.04176 17.8839 2.1161L14.7929 5.20711C14.6054 5.39464 14.5 5.649 14.5 5.91421Z" stroke="currentColor" stroke-width="2" stroke-linecap="round" stroke-linejoin="round" />
    <path d="M14.5 9.5L12 12" stroke="currentColor" stroke-width="2" stroke-linecap="round" stroke-linejoin="round" />
</svg>