<svg xmlns="http://www.w3.org/2000/svg" width="24" height="24" viewBox="0 0 24 24" fill="none">
    <path opacity="0.4" d="M11.0481 4.21404L2.45187 8.28596C2.17593 8.41667 2 8.69467 2 9C2 9.30533 2.17593 9.58333 2.45187 9.71404L11.0481 13.786C11.3457 13.9269 11.6708 14 12 14C12.3292 14 12.6543 13.9269 12.9519 13.786L21.5481 9.71404C21.8241 9.58333 22 9.30533 22 9C22 8.69467 21.8241 8.41667 21.5481 8.28596L12.9519 4.21404C12.6543 4.07311 12.3292 4 12 4C11.6708 4 11.3457 4.07311 11.0481 4.21404Z" fill="currentColor" />
    <path d="M11.0481 4.21404L2.45187 8.28596C2.17593 8.41667 2 8.69467 2 9C2 9.30533 2.17593 9.58333 2.45187 9.71404L11.0481 13.786C11.3457 13.9269 11.6708 14 12 14C12.3292 14 12.6543 13.9269 12.9519 13.786L21.5481 9.71404C21.8241 9.58333 22 9.30533 22 9C22 8.69467 21.8241 8.41667 21.5481 8.28596L12.9519 4.21404C12.6543 4.07311 12.3292 4 12 4C11.6708 4 11.3457 4.07311 11.0481 4.21404Z" stroke="currentColor" stroke-width="2" stroke-linecap="round" stroke-linejoin="round" />
    <path d="M22 9V15" stroke="currentColor" stroke-width="2" stroke-linecap="round" stroke-linejoin="round" />
    <path d="M18 11.5V15.8676C18 16.5701 17.6314 17.2212 17.029 17.5826L13.8575 19.4855C13.2964 19.8222 12.6543 20 12 20C11.3457 20 10.7036 19.8222 10.1425 19.4855L6.97101 17.5826C6.3686 17.2212 6 16.5701 6 15.8676V11.5" stroke="currentColor" stroke-width="2" stroke-linecap="round" stroke-linejoin="round" />
</svg>