<svg xmlns="http://www.w3.org/2000/svg" width="24" height="24" viewBox="0 0 24 24" fill="none">
    <path opacity="0.4" d="M18.125 2.625H4.125C3.02043 2.625 2.125 3.52043 2.125 4.625V18.625C2.125 19.7296 3.02043 20.625 4.125 20.625H11.125V11.625H20.125V4.625C20.125 3.52043 19.2296 2.625 18.125 2.625Z" fill="currentColor" />
    <path d="M11.125 20.625H4.125C3.02043 20.625 2.125 19.7296 2.125 18.625V4.625C2.125 3.52043 3.02043 2.625 4.125 2.625H18.125C19.2296 2.625 20.125 3.52043 20.125 4.625V11.625" stroke="currentColor" stroke-width="2" stroke-linecap="round" stroke-linejoin="round" />
    <path d="M20.5947 16.0947C20.8876 15.8018 21.3624 15.8018 21.6553 16.0947C21.9482 16.3876 21.9482 16.8623 21.6553 17.1552L17.6553 21.1552C17.3624 21.4481 16.8876 21.4481 16.5947 21.1552L14.5947 19.1552C14.3018 18.8623 14.3018 18.3876 14.5947 18.0947C14.8876 17.8018 15.3624 17.8018 15.6553 18.0947L17.125 19.5644L20.5947 16.0947Z" fill="currentColor" />
    <path d="M11.125 2.625V20.625" stroke="currentColor" stroke-width="2" stroke-linecap="round" stroke-linejoin="round" />
    <path d="M20.1259 11.6172H2.13086" stroke="currentColor" stroke-width="2" stroke-linecap="round" stroke-linejoin="round" />
</svg>