<svg xmlns="http://www.w3.org/2000/svg" width="24" height="24" viewBox="0 0 24 24" fill="none">
    <path opacity="0.4" d="M18.9961 3H4.99609C3.89152 3 2.99609 3.89543 2.99609 5V19C2.99609 20.1046 3.89152 21 4.99609 21H18.9961C20.1007 21 20.9961 20.1046 20.9961 19V5C20.9961 3.89543 20.1007 3 18.9961 3Z" fill="currentColor" />
    <path d="M18.9961 3H4.99609C3.89152 3 2.99609 3.89543 2.99609 5V19C2.99609 20.1046 3.89152 21 4.99609 21H18.9961C20.1007 21 20.9961 20.1046 20.9961 19V5C20.9961 3.89543 20.1007 3 18.9961 3Z" stroke="currentColor" stroke-width="2" stroke-linejoin="round" />
    <path d="M8.99609 3V21" stroke="currentColor" stroke-width="2" stroke-linecap="round" stroke-linejoin="round" />
    <path d="M14.9961 3V21" stroke="currentColor" stroke-width="2" stroke-linecap="round" stroke-linejoin="round" />
    <path d="M21.002 11.9922H3.00195" stroke="currentColor" stroke-width="2" stroke-linecap="round" stroke-linejoin="round" />
</svg>