<svg xmlns="http://www.w3.org/2000/svg" width="24" height="24" viewBox="0 0 24 24" fill="none">
    <circle cx="12" cy="12" r="10" stroke="currentColor" stroke-width="2" stroke-linecap="round" stroke-linejoin="round" />
    <path opacity="0.4" fill-rule="evenodd" clip-rule="evenodd" d="M12 2C17.5228 2 22 6.47715 22 12C22 17.5228 17.5228 22 12 22C6.47715 22 2 17.5228 2 12C2 6.47715 6.47715 2 12 2ZM10 13C8.89543 13 8 13.8954 8 15C8 16.1046 8.89543 17 10 17H14C15.1046 17 16 16.1046 16 15C16 13.8954 15.1046 13 14 13H10Z" fill="currentColor" />
    <path d="M15.625 8.387V8.91649M8.375 8.387V8.91649M8.75 8.75C8.75 8.33579 8.58211 8 8.375 8C8.16789 8 8 8.33579 8 8.75C8 9.16421 8.16789 9.5 8.375 9.5C8.58211 9.5 8.75 9.16421 8.75 8.75ZM16 8.75C16 8.33579 15.8321 8 15.625 8C15.4179 8 15.25 8.33579 15.25 8.75C15.25 9.16421 15.4179 9.5 15.625 9.5C15.8321 9.5 16 9.16421 16 8.75Z" stroke="currentColor" stroke-width="2" stroke-linecap="round" stroke-linejoin="round" />
    <path d="M14 13H10C8.89543 13 8 13.8954 8 15C8 16.1046 8.89543 17 10 17H14C15.1046 17 16 16.1046 16 15C16 13.8954 15.1046 13 14 13Z" stroke="currentColor" stroke-width="2" stroke-linecap="round" stroke-linejoin="round" />
</svg>