<svg xmlns="http://www.w3.org/2000/svg" width="24" height="24" viewBox="0 0 24 24" fill="none">
    <path opacity="0.4" d="M2 20V12C2 11.4477 2.44772 11 3 11H5C5.55228 11 6 11.4477 6 12V20C6 20.5523 5.55228 21 5 21H3C2.44772 21 2 20.5523 2 20Z" fill="currentColor" />
    <path opacity="0.4" d="M16 11C16 11 11 7.82353 11 4.75C11 3.23122 12.0526 2 13.5 2C14.25 2 15 2.26471 16 3.32353C17 2.26471 17.75 2 18.5 2C19.9474 2 21 3.23122 21 4.75C21 7.82353 16 11 16 11Z" fill="currentColor" />
    <path d="M2 20V12C2 11.4477 2.44772 11 3 11H5C5.55228 11 6 11.4477 6 12V20C6 20.5523 5.55228 21 5 21H3C2.44772 21 2 20.5523 2 20Z" stroke="currentColor" stroke-width="2" stroke-linecap="round" stroke-linejoin="round" />
    <path d="M6 12H7.76845C8.58101 12 9.38511 12.165 10.132 12.4851L14.8574 14.5103C15.5506 14.8074 16 15.489 16 16.2431C16 16.9373 15.4373 17.5 14.7431 17.5H14.0986C13.3729 17.5 12.6538 17.3615 11.98 17.092L10.5 16.5" stroke="currentColor" stroke-width="2" stroke-linecap="round" stroke-linejoin="round" />
    <path d="M16 11C16 11 11 7.82353 11 4.75C11 3.23122 12.0526 2 13.5 2C14.25 2 15 2.26471 16 3.32353C17 2.26471 17.75 2 18.5 2C19.9474 2 21 3.23122 21 4.75C21 7.82353 16 11 16 11Z" stroke="currentColor" stroke-width="2" stroke-linejoin="round" />
    <path d="M14 17.5H20.5749C21.362 17.5 22 18.138 22 18.9251C22 19.5613 21.5782 20.1205 20.9664 20.2953L15.7451 21.7871C15.2508 21.9283 14.7392 22 14.2251 22C13.7437 22 13.2645 21.9372 12.7994 21.8132L6 20" stroke="currentColor" stroke-width="2" stroke-linecap="round" stroke-linejoin="round" />
</svg>