<svg xmlns="http://www.w3.org/2000/svg" width="24" height="24" viewBox="0 0 24 24" fill="none">
    <path opacity="0.4" d="M11.625 7.81738C11.9486 7.25472 12.5543 6.875 13.25 6.875C14.2855 6.875 15.125 7.71447 15.125 8.75V8.81738C15.4486 8.25472 16.0543 7.875 16.75 7.875C17.4457 7.875 18.0514 8.25472 18.375 8.81738V5.75C18.375 4.71447 19.2145 3.875 20.25 3.875C21.2855 3.875 22.125 4.71447 22.125 5.75V14.7998C22.125 18.8453 18.8453 22.125 14.7998 22.125H12.0586C12.0507 22.125 12.0434 22.123 12.0361 22.121L12.0223 22.121C12.0151 22.123 12.0078 22.125 12 22.125C9.45923 22.125 7.08612 20.8553 5.67676 18.7412L2.21875 13.5527C1.99491 13.217 1.875 12.8225 1.875 12.4189C1.87502 11.2901 2.79011 10.375 3.91895 10.375H4.05469C4.69105 10.375 5.29582 10.6536 5.70996 11.1367L7.875 13.6621V3.75C7.875 2.71447 8.71447 1.875 9.75 1.875C10.7855 1.875 11.625 2.71447 11.625 3.75V7.81738Z" fill="currentColor" />
    <path d="M12.0588 22H14.8C18.7764 22 22 18.7765 22 14.8V5.75C22 4.7835 21.2165 4 20.25 4C19.2835 4 18.5 4.7835 18.5 5.75V11.5V9.75C18.5 8.7835 17.7165 8 16.75 8C15.7835 8 15 8.7835 15 9.75V11.5V8.75C15 7.7835 14.2165 7 13.25 7C12.2835 7 11.5 7.7835 11.5 8.75V11V3.75C11.5 2.7835 10.7165 2 9.75 2C8.7835 2 8 2.7835 8 3.75V14L5.61507 11.2176C5.22468 10.7621 4.65476 10.5 4.05489 10.5H3.91898C2.85916 10.5 2 11.3592 2 12.419C2 12.7978 2.11214 13.1682 2.32229 13.4834L5.7812 18.6718C7.16738 20.7511 9.50102 22 12 22" stroke="currentColor" stroke-width="2" stroke-linecap="round" stroke-linejoin="round" />
</svg>