<svg xmlns="http://www.w3.org/2000/svg" width="24" height="24" viewBox="0 0 24 24" fill="none">
    <path opacity="0.4" d="M19.4277 4.42557L22 13H2L4.57233 4.42557C4.82616 3.57947 5.60526 3 6.48902 3H17.511C18.3947 3 19.1738 3.57947 19.4277 4.42557Z" fill="currentColor" />
    <path d="M2 13.0312H22" stroke="currentColor" stroke-width="2" stroke-linecap="round" stroke-linejoin="round" />
    <path d="M19.999 21H4.001C2.89588 21 2 20.1046 2 19V13L4.57233 4.42557C4.82616 3.57947 5.60526 3 6.48902 3H17.511C18.3947 3 19.1738 3.57947 19.4277 4.42557L22 13V19C22 20.1046 21.1041 21 19.999 21Z" stroke="currentColor" stroke-width="2" stroke-linecap="round" stroke-linejoin="round" />
    <path d="M18.125 17H18M14.125 17H14M18.25 17C18.25 17.1381 18.1381 17.25 18 17.25C17.8619 17.25 17.75 17.1381 17.75 17C17.75 16.8619 17.8619 16.75 18 16.75C18.1381 16.75 18.25 16.8619 18.25 17ZM14.25 17C14.25 17.1381 14.1381 17.25 14 17.25C13.8619 17.25 13.75 17.1381 13.75 17C13.75 16.8619 13.8619 16.75 14 16.75C14.1381 16.75 14.25 16.8619 14.25 17Z" stroke="currentColor" stroke-width="2" stroke-linecap="round" stroke-linejoin="round" />
</svg>