<svg xmlns="http://www.w3.org/2000/svg" width="24" height="24" viewBox="0 0 24 24" fill="none">
    <path opacity="0.4" d="M11.0835 20.2252C9.25143 18.9872 2 13.7666 2 8.69444C2 5.82563 4.10526 3.5 7 3.5C8.5 3.5 10 4 12 6C14 4 15.5 3.5 17 3.5C19.8947 3.5 22 5.82563 22 8.69444C22 13.7666 14.7486 18.9872 12.9165 20.2252C12.6459 20.4081 12.3266 20.5 12 20.5C11.6734 20.5 11.3541 20.4081 11.0835 20.2252Z" fill="currentColor" />
    <path d="M14 19.4603C13.5525 19.7889 13.1789 20.0479 12.9165 20.2252C12.6459 20.4081 12.3266 20.5 12 20.5C11.6734 20.5 11.3541 20.4081 11.0835 20.2252C9.25143 18.9872 2 13.7666 2 8.69444C2 5.82563 4.10526 3.5 7 3.5C8.5 3.5 10 4 12 6C14 4 15.5 3.5 17 3.5C19.8947 3.5 22 5.82563 22 8.69444C22 9.29651 21.8978 9.90066 21.7147 10.5" stroke="currentColor" stroke-width="2" stroke-linecap="round" stroke-linejoin="round" />
    <path d="M15 15.5H21" stroke="currentColor" stroke-width="2" stroke-linecap="round" stroke-linejoin="round" />
    <path d="M18 12.5V18.5" stroke="currentColor" stroke-width="2" stroke-linecap="round" stroke-linejoin="round" />
</svg>