<svg xmlns="http://www.w3.org/2000/svg" width="24" height="24" viewBox="0 0 24 24" fill="none">
    <path opacity="0.4" fill-rule="evenodd" clip-rule="evenodd" d="M19.7343 14.0859C21.042 12.4014 22.0001 10.5381 22.0001 8.69444C22.0001 5.82563 19.8948 3.5 17.0001 3.5C15.5001 3.5 14.0001 4 12.0001 6L9.2501 8.75C8.55974 9.44036 8.55974 10.5596 9.2501 11.25C9.94045 11.9404 11.0597 11.9404 11.7501 11.25L13.5001 9.5C13.6483 9.35175 13.916 9.07311 14.2331 8.74301C14.7604 8.19404 15.0241 7.91956 15.3686 7.87236C15.4572 7.86022 15.5554 7.86042 15.644 7.8729C15.9883 7.92146 16.2486 8.19452 16.769 8.74064C16.782 8.75426 16.7949 8.76782 16.8078 8.78131C17.0918 9.0793 17.3425 9.34244 17.5001 9.5L19.4901 11.49C20.1987 12.1986 20.3483 13.2942 19.7343 14.0859ZM19.6693 14.1692C19.6909 14.1418 19.713 14.1135 19.7343 14.0859L19.6693 14.1692Z" fill="currentColor" />
    <path d="M19.6691 14.1692C21.0099 12.4629 21.9999 10.5686 21.9999 8.69444C21.9999 5.82563 19.8946 3.5 16.9999 3.5C15.4999 3.5 13.9999 4 11.9999 6C9.99991 4 8.49991 3.5 6.99991 3.5C4.10517 3.5 1.99991 5.82563 1.99991 8.69444C1.99991 13.7666 9.25134 18.9872 11.0834 20.2252C11.354 20.4081 11.6733 20.5 11.9999 20.5C12.3265 20.5 12.6458 20.4081 12.9164 20.2252C13.0217 20.1541 13.1448 20.0699 13.2834 19.9732C14.2795 19.2789 14.3585 17.8586 13.4999 17" stroke="currentColor" stroke-width="2" stroke-linejoin="round" />
    <path d="M18.4999 10.5L19.4899 11.49C20.1987 12.1988 20.3482 13.295 19.7335 14.0868C18.9877 15.0474 17.5631 15.0632 16.7031 14.2032L16.4999 14" stroke="currentColor" stroke-width="2" stroke-linecap="round" stroke-linejoin="round" />
    <path d="M16.4999 14L16.6941 14.1942C17.5691 15.0691 17.5099 16.5612 16.5832 17.3811C15.7192 18.1455 14.4964 17.9965 13.6807 17.1808L13.4999 17" stroke="currentColor" stroke-width="2" stroke-linecap="round" stroke-linejoin="round" />
    <path d="M11.9999 6L9.51768 8.48223C9.18616 8.81375 8.99991 9.26339 8.99991 9.73223C8.99991 10.7085 9.79136 11.5 10.7677 11.5C11.2365 11.5 11.6862 11.3138 12.0177 10.9822L14.7928 8.20711C15.1833 7.81658 15.8165 7.81658 16.207 8.20711L18.9999 11" stroke="currentColor" stroke-width="2" stroke-linecap="round" stroke-linejoin="round" />
</svg>