<svg xmlns="http://www.w3.org/2000/svg" width="24" height="24" viewBox="0 0 24 24" fill="none">
    <path opacity="0.4" d="M11.9995 20.4995C11.9995 20.4995 1.99951 14.4995 1.99951 8.69396C1.99951 5.82514 4.10477 3.49951 6.99951 3.49951C8.49951 3.49951 9.99951 3.99951 11.9995 5.99951C13.9995 3.99951 15.4995 3.49951 16.9995 3.49951C19.8942 3.49951 21.9995 5.82514 21.9995 8.69396C21.9995 14.4995 11.9995 20.4995 11.9995 20.4995Z" fill="currentColor" />
    <path d="M14.0005 16.0005H21.0005" stroke="currentColor" stroke-width="2" stroke-linecap="round" stroke-linejoin="round" />
    <path d="M13.5224 19.5005C12.6075 20.1363 12.0005 20.5005 12.0005 20.5005C12.0005 20.5005 2.00049 14.5005 2.00049 8.69493C2.00049 5.82612 4.10575 3.50049 7.00049 3.50049C8.50049 3.50049 10.0005 4.00049 12.0005 6.00049C14.0005 4.00049 15.5005 3.50049 17.0005 3.50049C19.8952 3.50049 22.0005 5.82612 22.0005 8.69493C22.0005 9.97618 21.5134 11.2669 20.7543 12.5005" stroke="currentColor" stroke-width="2" stroke-linecap="round" stroke-linejoin="round" />
</svg>