<svg xmlns="http://www.w3.org/2000/svg" width="24" height="24" viewBox="0 0 24 24" fill="none">
    <path opacity="0.4" d="M11.0835 20.2255C9.25143 18.9875 2 13.7669 2 8.69469C2 5.82588 4.10526 3.50024 7 3.50024C8.5 3.50024 10 4.00024 12 6.00024C14 4.00024 15.5 3.50024 17 3.50024C19.8947 3.50024 22 5.82588 22 8.69469C22 13.7669 14.7486 18.9875 12.9165 20.2255C12.6459 20.4084 12.3266 20.5002 12 20.5002C11.6734 20.5002 11.3541 20.4084 11.0835 20.2255Z" fill="currentColor" />
    <path d="M11.0835 20.2255C9.25143 18.9875 2 13.7669 2 8.69469C2 5.82588 4.10526 3.50024 7 3.50024C8.5 3.50024 10 4.00024 12 6.00024C14 4.00024 15.5 3.50024 17 3.50024C19.8947 3.50024 22 5.82588 22 8.69469C22 13.7669 14.7486 18.9875 12.9165 20.2255C12.6459 20.4084 12.3266 20.5002 12 20.5002C11.6734 20.5002 11.3541 20.4084 11.0835 20.2255Z" stroke="currentColor" stroke-width="2" stroke-linejoin="round" />
</svg>