<svg xmlns="http://www.w3.org/2000/svg" width="24" height="24" viewBox="0 0 24 24" fill="none">
    <path opacity="0.4" d="M11.0836 20.7246C9.25152 19.4866 2.00009 14.266 2.00009 9.19383C2.00009 7.20284 3.01409 5.47348 4.60227 4.60156L17.2626 17.2619C15.4835 18.9311 13.702 20.1939 12.9166 20.7246C12.646 20.9075 12.3267 20.9994 12.0001 20.9994C11.6735 20.9994 11.3542 20.9075 11.0836 20.7246Z" fill="currentColor" />
    <path d="M17.2626 17.2625C15.4835 18.9317 13.702 20.1945 12.9166 20.7252C12.646 20.9081 12.3267 21 12.0001 21C11.6735 21 11.3542 20.9081 11.0836 20.7252C9.25152 19.4872 2.00009 14.2666 2.00009 9.19444C2.00009 7.20345 3.01409 5.47409 4.60227 4.60217" stroke="currentColor" stroke-width="2" stroke-linecap="round" stroke-linejoin="round" />
    <path d="M9.69031 4.69022C10.3959 5.07512 11.1532 5.65307 12.0001 6.5C14.0001 4.5 15.5001 4 17.0001 4C19.8948 4 22.0001 6.32563 22.0001 9.19444C22.0001 11.0686 21.0101 12.9629 19.6693 14.6692" stroke="currentColor" stroke-width="2" stroke-linecap="round" stroke-linejoin="round" />
    <path d="M2.00009 2L22.0001 22" stroke="currentColor" stroke-width="2" stroke-linecap="round" stroke-linejoin="round" />
</svg>