<svg xmlns="http://www.w3.org/2000/svg" width="24" height="24" viewBox="0 0 24 24" fill="none">
    <path opacity="0.4" d="M20.0001 12C20.0001 7.58172 16.4183 4 12.0001 4C12.0001 8.41828 15.5818 12 20.0001 12Z" fill="currentColor" />
    <path opacity="0.4" d="M4.00006 12C4.00006 7.58172 7.58178 4 12.0001 4C12.0001 8.41828 8.41834 12 4.00006 12Z" fill="currentColor" />
    <path d="M20 12C20 7.58172 16.4182 4 12 4C12 8.41828 15.5817 12 20 12Z" stroke="currentColor" stroke-width="2" stroke-linecap="round" stroke-linejoin="round" />
    <path d="M4.00009 12C4.00009 7.58172 7.58181 4 12.0001 4C12.0001 8.41828 8.41837 12 4.00009 12Z" stroke="currentColor" stroke-width="2" stroke-linecap="round" stroke-linejoin="round" />
    <path d="M12 4V2" stroke="currentColor" stroke-width="2" stroke-linecap="round" stroke-linejoin="round" />
    <path d="M11.9999 15C12.6601 15.8333 14.4755 17.6 16.4559 18C17.2811 17.3333 18.8325 15.2 18.4364 12" stroke="currentColor" stroke-width="2" stroke-linecap="round" stroke-linejoin="round" />
    <path d="M14.9999 10.5C14.5999 12.5 12.8333 14.3333 11.9999 15C11.1666 14.3333 9.39994 12.5 8.99994 10.5" stroke="currentColor" stroke-width="2" stroke-linecap="round" stroke-linejoin="round" />
    <path d="M11.9999 15C11.3398 15.8333 9.52439 17.6 7.54395 18C6.71877 17.3333 5.16743 15.2 5.56351 12" stroke="currentColor" stroke-width="2" stroke-linecap="round" stroke-linejoin="round" />
    <path d="M15.5001 18C15.1668 18.8333 14.0001 20.8 12.0001 22C10.0001 20.8 8.83342 18.8333 8.50009 18" stroke="currentColor" stroke-width="2" stroke-linecap="round" stroke-linejoin="round" />
</svg>