<svg xmlns="http://www.w3.org/2000/svg" width="24" height="24" viewBox="0 0 24 24" fill="none">
    <path d="M5.33682 12C5.12085 11.5454 5 11.0368 5 10.5C5 8.567 6.567 7 8.5 7C10.433 7 12 8.567 12 10.5C12 11.0368 11.8792 11.5454 11.6632 12" stroke="currentColor" stroke-width="2" stroke-linecap="round" stroke-linejoin="round" />
    <path d="M12.3368 12C12.1208 11.5454 12 11.0368 12 10.5C12 8.567 13.567 7 15.5 7C17.433 7 19 8.567 19 10.5C19 11.0368 18.8792 11.5454 18.6632 12" stroke="currentColor" stroke-width="2" stroke-linecap="round" stroke-linejoin="round" />
    <path d="M15.4646 7C15.4879 6.8367 15.5 6.66976 15.5 6.5C15.5 4.567 13.933 3 12 3C10.067 3 8.5 4.567 8.5 6.5C8.5 6.66976 8.51209 6.8367 8.53544 7" stroke="currentColor" stroke-width="2" stroke-linecap="round" stroke-linejoin="round" />
    <path opacity="0.4" d="M20.1096 12H3.89039C3.39864 12 3 12.3986 3 12.8904V12.9417C3 12.9804 3.00475 13.019 3.01413 13.0565C3.59353 15.3741 5.67591 17 8.06484 17H10L8.12892 19.8066C8.04486 19.9327 8 20.0809 8 20.2324C8 20.6563 8.34366 21 8.76759 21H15.2324C15.6563 21 16 20.6563 16 20.2324C16 20.0809 15.9551 19.9327 15.8711 19.8066L14 17H15.9352C18.3241 17 20.4065 15.3741 20.9859 13.0565C20.9953 13.019 21 12.9804 21 12.9417V12.8904C21 12.3986 20.6014 12 20.1096 12Z" fill="currentColor" />
    <path d="M20.1096 12H3.89039C3.39864 12 3 12.3986 3 12.8904V12.9417C3 12.9804 3.00475 13.019 3.01413 13.0565C3.59353 15.3741 5.67591 17 8.06484 17H10L8.12892 19.8066C8.04486 19.9327 8 20.0809 8 20.2324C8 20.6563 8.34366 21 8.76759 21H15.2324C15.6563 21 16 20.6563 16 20.2324C16 20.0809 15.9551 19.9327 15.8711 19.8066L14 17H15.9352C18.3241 17 20.4065 15.3741 20.9859 13.0565C20.9953 13.019 21 12.9804 21 12.9417V12.8904C21 12.3986 20.6014 12 20.1096 12Z" stroke="currentColor" stroke-width="2" stroke-linecap="round" stroke-linejoin="round" />
</svg>