<svg xmlns="http://www.w3.org/2000/svg" width="24" height="24" viewBox="0 0 24 24" fill="none">
    <path d="M2 1.99988L22 21.9999" stroke="currentColor" stroke-width="2" stroke-linecap="round" stroke-linejoin="round" />
    <path opacity="0.4" fill-rule="evenodd" clip-rule="evenodd" d="M3.15726 3.1571C2.75356 3.52303 2.5 4.05159 2.5 4.63937V19.6394C2.5 20.7439 3.39543 21.6394 4.5 21.6394H5.5L14.0679 14.0677L3.15726 3.1571Z" fill="currentColor" />
    <path d="M20.8229 20.9999C20.4703 21.3111 20.0072 21.4999 19.5 21.4999H4.5C3.39543 21.4999 2.5 20.6045 2.5 19.4999V4.49991C2.5 3.99269 2.68882 3.52957 3 3.177M5.5 21.4999L13.8333 13.9999" stroke="currentColor" stroke-width="2" stroke-linecap="round" />
    <path d="M21.5 16.9999V4.49988C21.5 3.39531 20.6046 2.49988 19.5 2.49988H7M19.0013 14.8341L21.5 16.4999" stroke="currentColor" stroke-width="2" stroke-linecap="round" />
</svg>