<svg xmlns="http://www.w3.org/2000/svg" width="24" height="24" viewBox="0 0 24 24" fill="none">
    <path opacity="0.4" fill-rule="evenodd" clip-rule="evenodd" d="M19.25 2.49988C20.3546 2.49988 21.25 3.39531 21.25 4.49988V16.4999L16.543 13.3612C15.7826 12.8543 14.7751 12.9278 14.0957 13.5389L5.25 21.4999H4.25C3.14543 21.4999 2.25 20.6044 2.25 19.4999V4.49988C2.25 3.39531 3.14543 2.49988 4.25 2.49988H19.25ZM7.75 6.49988C6.92157 6.49988 6.25 7.17145 6.25 7.99988C6.25 8.82831 6.92157 9.49988 7.75 9.49988C8.57843 9.49988 9.25 8.82831 9.25 7.99988C9.25 7.17145 8.57843 6.49988 7.75 6.49988Z" fill="currentColor" />
    <circle cx="7.75" cy="7.99988" r="1.5" stroke="currentColor" stroke-width="2" stroke-linecap="round" stroke-linejoin="round" />
    <path d="M13.75 21.4999H4.25C3.14543 21.4999 2.25 20.6044 2.25 19.4999V4.49988C2.25 3.39531 3.14543 2.49988 4.25 2.49988H19.25C20.3546 2.49988 21.25 3.39531 21.25 4.49988V10.9999" stroke="currentColor" stroke-width="2" stroke-linecap="round" stroke-linejoin="round" />
    <path d="M15.25 12.4999L5.25 21.4999" stroke="currentColor" stroke-width="2" stroke-linecap="round" />
    <path d="M21.75 17.4999L18.75 14.4999L15.75 17.4999M18.75 15.4999L18.75 21.4999" stroke="currentColor" stroke-width="2" stroke-linecap="round" stroke-linejoin="round" />
</svg>