<svg xmlns="http://www.w3.org/2000/svg" width="24" height="24" viewBox="0 0 24 24" fill="none">
    <path opacity="0.4" d="M4.50008 21.5H19.5001C20.6047 21.5 21.5001 20.6046 21.5001 19.5L21.5 4.49999C21.5 3.39543 20.6046 2.5 19.5 2.5H4.50003C3.39546 2.5 2.50003 3.39543 2.50003 4.50001L2.50008 19.5C2.50008 20.6046 3.39551 21.5 4.50008 21.5Z" fill="currentColor" />
    <path d="M4.50009 21.5H19.5001C20.6047 21.5 21.5001 20.6045 21.5001 19.5L21.5 4.49998C21.5 3.39541 20.6046 2.49998 19.5 2.49998H4.50004C3.39547 2.49998 2.50004 3.39542 2.50004 4.49999L2.50009 19.5C2.50009 20.6046 3.39552 21.5 4.50009 21.5Z" stroke="currentColor" stroke-width="2" stroke-linecap="round" stroke-linejoin="round" />
    <path d="M12 16V12" stroke="currentColor" stroke-width="2" stroke-linecap="round" stroke-linejoin="round" />
    <path d="M12.125 8.25H12M12.25 8.25C12.25 8.11193 12.1381 8 12 8C11.862 8 11.75 8.11193 11.75 8.25C11.75 8.38807 11.862 8.5 12 8.5C12.1381 8.5 12.25 8.38807 12.25 8.25Z" stroke="currentColor" stroke-width="2" stroke-linecap="round" stroke-linejoin="round" />
</svg>