<svg xmlns="http://www.w3.org/2000/svg" width="24" height="24" viewBox="0 0 24 24" fill="none">
    <path opacity="0.4" d="M19.5 2.5H4.5C3.39543 2.5 2.5 3.39543 2.5 4.5V19.5C2.5 20.6046 3.39543 21.5 4.5 21.5H19.5C20.6046 21.5 21.5 20.6046 21.5 19.5V4.5C21.5 3.39543 20.6046 2.5 19.5 2.5Z" fill="currentColor" />
    <path d="M19.5 2.5H4.5C3.39543 2.5 2.5 3.39543 2.5 4.5V19.5C2.5 20.6046 3.39543 21.5 4.5 21.5H19.5C20.6046 21.5 21.5 20.6046 21.5 19.5V4.5C21.5 3.39543 20.6046 2.5 19.5 2.5Z" stroke="currentColor" stroke-width="2" stroke-linecap="round" />
    <path d="M6.625 6.5H6.5M6.75 6.5C6.75 6.63807 6.63807 6.75 6.5 6.75C6.36193 6.75 6.25 6.63807 6.25 6.5C6.25 6.36193 6.36193 6.25 6.5 6.25C6.63807 6.25 6.75 6.36193 6.75 6.5Z" stroke="currentColor" stroke-width="2" stroke-linecap="round" stroke-linejoin="round" />
    <path d="M6.625 17.5H6.5M6.75 17.5C6.75 17.6381 6.63807 17.75 6.5 17.75C6.36193 17.75 6.25 17.6381 6.25 17.5C6.25 17.3619 6.36193 17.25 6.5 17.25C6.63807 17.25 6.75 17.3619 6.75 17.5Z" stroke="currentColor" stroke-width="2" stroke-linecap="round" stroke-linejoin="round" />
    <path d="M17.625 6.5H17.5M17.75 6.5C17.75 6.63807 17.6381 6.75 17.5 6.75C17.3619 6.75 17.25 6.63807 17.25 6.5C17.25 6.36193 17.3619 6.25 17.5 6.25C17.6381 6.25 17.75 6.36193 17.75 6.5Z" stroke="currentColor" stroke-width="2" stroke-linecap="round" stroke-linejoin="round" />
    <path d="M17.625 17.5H17.5M17.75 17.5C17.75 17.6381 17.6381 17.75 17.5 17.75C17.3619 17.75 17.25 17.6381 17.25 17.5C17.25 17.3619 17.3619 17.25 17.5 17.25C17.6381 17.25 17.75 17.3619 17.75 17.5Z" stroke="currentColor" stroke-width="2" stroke-linecap="round" stroke-linejoin="round" />
</svg>