<svg xmlns="http://www.w3.org/2000/svg" width="24" height="24" viewBox="0 0 24 24" fill="none">
    <path opacity="0.4" d="M2.48967 20.3575C3.26063 21.2196 4.61672 21.211 5.37144 20.3345L8.79744 16.3227C9.17619 15.8792 9.85258 15.8526 10.265 16.265L12.5 18.5L22 8.00001L17.357 3.35695C17.1604 3.16037 16.8412 3.16189 16.6465 3.36035L2.55081 17.7282C1.83981 18.4491 1.81471 19.6026 2.48967 20.3575Z" fill="currentColor" />
    <path opacity="0.4" d="M2.49914 20.3517C3.28503 21.2242 4.66737 21.2155 5.43669 20.3286L9.64516 15.4363L11.9455 17.7199C12.3577 18.1291 13.031 18.1124 13.4222 17.6833L21.7365 8.56052C22.101 8.16066 22.0855 7.54734 21.7014 7.16604L17.6542 3.1482C17.4538 2.94926 17.1284 2.95081 16.93 3.15163L2.56147 17.6911C1.83671 18.4206 1.81112 19.5879 2.49914 20.3517Z" fill="currentColor" />
    <path d="M18.125 8H18M18.25 8C18.25 8.13807 18.1381 8.25 18 8.25C17.8619 8.25 17.75 8.13807 17.75 8C17.75 7.86193 17.8619 7.75 18 7.75C18.1381 7.75 18.25 7.86193 18.25 8Z" stroke="currentColor" stroke-width="2" stroke-linecap="round" stroke-linejoin="round" />
</svg>