<svg xmlns="http://www.w3.org/2000/svg" width="24" height="24" viewBox="0 0 24 24" fill="none">
    <path opacity="0.4" d="M3 7.99976V3.99976C3 3.44747 3.44772 2.99976 4 2.99976H5C6.10457 2.99976 7 3.89519 7 4.99976V6.99976C7 8.10433 6.10457 8.99976 5 8.99976H4C3.44772 8.99976 3 8.55204 3 7.99976Z" fill="currentColor" />
    <path opacity="0.4" d="M8.25777 20.9998H19.7422C20.4369 20.9998 21 20.4366 21 19.742C21 19.582 20.9695 19.4234 20.91 19.2749L19.6436 16.1088H8.3564L7.08996 19.2749C7.03053 19.4234 7 19.582 7 19.742C7 20.4366 7.56312 20.9998 8.25777 20.9998Z" fill="currentColor" />
    <path d="M8.25774 20.9998H19.7422C20.4368 20.9998 21 20.4366 21 19.742C21 19.582 20.9694 19.4234 20.91 19.2749L18.3771 12.9427C18.1493 12.3732 17.5978 11.9998 16.9844 11.9998H11.0155C10.4022 11.9998 9.8506 12.3732 9.6228 12.9427L7.08993 19.2749C7.0305 19.4234 6.99997 19.582 6.99997 19.742C6.99997 20.4366 7.56309 20.9998 8.25774 20.9998Z" stroke="currentColor" stroke-width="2" stroke-linecap="round" stroke-linejoin="round" />
    <path d="M9 15.9998H19" stroke="currentColor" stroke-width="2" stroke-linecap="round" stroke-linejoin="round" />
    <path d="M2.99997 7.99976V3.99976C2.99997 3.44747 3.44768 2.99976 3.99997 2.99976H4.99997C6.10454 2.99976 6.99997 3.89519 6.99997 4.99976V6.99976C6.99997 8.10433 6.10454 8.99976 4.99997 8.99976H3.99997C3.44768 8.99976 2.99997 8.55204 2.99997 7.99976Z" stroke="currentColor" stroke-width="2" stroke-linecap="round" stroke-linejoin="round" />
    <path d="M7 5.99976H12C13.1046 5.99976 14 6.89519 14 7.99976V11.9998" stroke="currentColor" stroke-width="2" stroke-linecap="round" stroke-linejoin="round" />
</svg>