<svg xmlns="http://www.w3.org/2000/svg" width="24" height="24" viewBox="0 0 24 24" fill="none">
    <path opacity="0.4" d="M8.25777 12H19.7422C20.4369 12 21 11.4369 21 10.7422C21 10.5822 20.9695 10.4237 20.91 10.2751L19.6436 7.10901H8.3564L7.08996 10.2751C7.03053 10.4237 7 10.5822 7 10.7422C7 11.4369 7.56312 12 8.25777 12Z" fill="currentColor" />
    <path opacity="0.4" d="M3 16V20C3 20.5523 3.44772 21 4 21H5C6.10457 21 7 20.1046 7 19V17C7 15.8954 6.10457 15 5 15H4C3.44772 15 3 15.4477 3 16Z" fill="currentColor" />
    <path d="M8.25777 12H19.7422C20.4369 12 21 11.4369 21 10.7422C21 10.5822 20.9695 10.4237 20.91 10.2751L18.3772 3.94291C18.1494 3.37343 17.5978 3 16.9845 3H11.0155C10.4022 3 9.85063 3.37343 9.62283 3.94291L7.08996 10.2751C7.03053 10.4237 7 10.5822 7 10.7422C7 11.4369 7.56312 12 8.25777 12Z" stroke="currentColor" stroke-width="2" stroke-linecap="round" stroke-linejoin="round" />
    <path d="M9 7H19" stroke="currentColor" stroke-width="2" stroke-linecap="round" stroke-linejoin="round" />
    <path d="M2.99997 16V20C2.99997 20.5523 3.44768 21 3.99997 21H4.99997C6.10454 21 6.99997 20.1046 6.99997 19V17C6.99997 15.8954 6.10454 15 4.99997 15H3.99997C3.44768 15 2.99997 15.4477 2.99997 16Z" stroke="currentColor" stroke-width="2" stroke-linecap="round" stroke-linejoin="round" />
    <path d="M6.99994 18H11.9999C13.1045 18 13.9999 17.1046 13.9999 16V12" stroke="currentColor" stroke-width="2" stroke-linecap="round" stroke-linejoin="round" />
</svg>