<svg xmlns="http://www.w3.org/2000/svg" width="24" height="24" viewBox="0 0 24 24" fill="none">
    <path opacity="0.4" fill-rule="evenodd" clip-rule="evenodd" d="M12 22C17.5228 22 22 17.5228 22 12C22 6.47715 17.5228 2 12 2C6.47715 2 2 6.47715 2 12C2 17.5228 6.47715 22 12 22ZM12 18C14.2091 18 16 16.2091 16 14H8C8 16.2091 9.79086 18 12 18Z" fill="currentColor" />
    <path d="M7 9.5C7 8.67157 7.67157 8 8.5 8C9.32843 8 10 8.67157 10 9.5M14 9.5C14 8.67157 14.6716 8 15.5 8C16.3284 8 17 8.67157 17 9.5" stroke="currentColor" stroke-width="2" stroke-linecap="round" stroke-linejoin="round" />
    <path fill-rule="evenodd" clip-rule="evenodd" d="M12 18C14.2091 18 16 16.2091 16 14H8C8 16.2091 9.79086 18 12 18Z" stroke="currentColor" stroke-width="2" stroke-linejoin="round" />
    <circle cx="12" cy="12" r="10" stroke="currentColor" stroke-width="2" />
</svg>