<svg xmlns="http://www.w3.org/2000/svg" width="24" height="24" viewBox="0 0 24 24" fill="none">
    <path d="M20.5002 13.9995C21.0525 13.9995 21.5002 14.4472 21.5002 14.9995L21.5002 20.4997C21.5002 21.052 21.0525 21.4997 20.5003 21.4997L12.9998 21.4999C12.4475 21.4999 11.9998 21.0522 11.9998 20.4999L11.9998 14.9997C11.9998 14.4475 12.4475 13.9997 12.9997 13.9997L20.5002 13.9995Z" stroke="currentColor" stroke-width="2" stroke-linejoin="round" />
    <path d="M6.99905 13.9998C7.55133 13.9998 7.99905 14.4475 7.99905 14.9998L7.99905 20.5001C7.99905 21.0524 7.55134 21.5001 6.99906 21.5001L3.49955 21.5002C2.94726 21.5002 2.49954 21.0525 2.49954 20.5002L2.49954 14.9998C2.49954 14.4475 2.94725 13.9998 3.49954 13.9998L6.99905 13.9998Z" stroke="currentColor" stroke-width="2" stroke-linejoin="round" />
    <path opacity="0.4" d="M20.4727 2.49976C21.0399 2.49976 21.4998 2.94747 21.4998 3.49976V8.99976C21.4998 9.55204 21.0399 9.99976 20.4727 9.99976L3.52678 9.99975C2.95957 9.99975 2.49976 9.55204 2.49976 8.99975L2.49976 3.49976C2.49976 2.94747 2.95957 2.49976 3.52678 2.49976L20.4727 2.49976Z" fill="currentColor" />
    <path d="M20.4727 2.49976C21.0399 2.49976 21.4998 2.94747 21.4998 3.49976V8.99976C21.4998 9.55204 21.0399 9.99976 20.4727 9.99976L3.52678 9.99975C2.95957 9.99975 2.49976 9.55204 2.49976 8.99976L2.49976 3.49976C2.49976 2.94747 2.95957 2.49976 3.52678 2.49976L20.4727 2.49976Z" stroke="currentColor" stroke-width="2" stroke-linejoin="round" />
</svg>