<svg xmlns="http://www.w3.org/2000/svg" width="24" height="24" viewBox="0 0 24 24" fill="none">
    <path opacity="0.4" d="M2.49991 3.5C2.49991 2.94772 2.94762 2.5 3.49991 2.5H8.99973C9.55201 2.5 9.99973 2.94772 9.99973 3.5V12C9.99973 12.5523 9.55201 13 8.99973 13H3.49991C2.94762 13 2.49991 12.5523 2.49991 12V3.5Z" fill="currentColor" />
    <path opacity="0.4" d="M13.9999 12C13.9999 11.4477 14.4476 11 14.9999 11H20.4997C21.052 11 21.4997 11.4477 21.4997 12L21.4999 20.5C21.4999 21.0523 21.0522 21.5 20.4999 21.5H15.0001C14.4478 21.5 14.0001 21.0523 14.0001 20.5L13.9999 12Z" fill="currentColor" />
    <path d="M2.50009 3.5C2.50009 2.94772 2.94781 2.5 3.50009 2.5H8.99991C9.55219 2.5 9.99991 2.94772 9.99991 3.5V12C9.99991 12.5523 9.5522 13 8.99991 13H3.50009C2.94781 13 2.50009 12.5523 2.50009 12V3.5Z" stroke="currentColor" stroke-width="2" stroke-linejoin="round" />
    <path d="M2.50012 18C2.5001 17.4477 2.94782 17 3.50012 17H8.99994C9.55221 17 9.99992 17.4477 9.99994 18L10 20.5C10.0001 21.0523 9.55234 21.5 9.00004 21.5H3.50022C2.94795 21.5 2.50024 21.0523 2.50022 20.5L2.50012 18Z" stroke="currentColor" stroke-width="2" stroke-linejoin="round" />
    <path d="M13.9999 3.5C13.9999 2.94772 14.4476 2.5 14.9999 2.5H20.4997C21.052 2.5 21.4997 2.94772 21.4997 3.5V6C21.4997 6.55228 21.052 7 20.4997 7H14.9999C14.4476 7 13.9999 6.55228 13.9999 6V3.5Z" stroke="currentColor" stroke-width="2" stroke-linejoin="round" />
    <path d="M13.9999 12C13.9999 11.4477 14.4476 11 14.9999 11H20.4998C21.052 11 21.4997 11.4477 21.4998 12L21.4999 20.5C21.4999 21.0523 21.0522 21.5 20.4999 21.5H15.0001C14.4478 21.5 14.0001 21.0523 14.0001 20.5L13.9999 12Z" stroke="currentColor" stroke-width="2" stroke-linejoin="round" />
</svg>