<svg xmlns="http://www.w3.org/2000/svg" width="24" height="24" viewBox="0 0 24 24" fill="none">
    <path opacity="0.4" d="M2.00009 5C2.00009 4.44772 2.44781 4 3.00009 4H7.00009C7.55238 4 8.00009 4.44772 8.00009 5V9C8.00009 9.55228 7.55238 10 7.00009 10H3.00009C2.44781 10 2.00009 9.55228 2.00009 9V5Z" fill="currentColor" />
    <path opacity="0.4" d="M2.00009 15C2.00009 14.4477 2.44781 14 3.00009 14H7.00009C7.55238 14 8.00009 14.4477 8.00009 15V19C8.00009 19.5523 7.55238 20 7.00009 20H3.00009C2.44781 20 2.00009 19.5523 2.00009 19V15Z" fill="currentColor" />
    <path d="M2.00009 5C2.00009 4.44772 2.44781 4 3.00009 4H7.00009C7.55238 4 8.00009 4.44772 8.00009 5V9C8.00009 9.55228 7.55238 10 7.00009 10H3.00009C2.44781 10 2.00009 9.55228 2.00009 9V5Z" stroke="currentColor" stroke-width="2" stroke-linejoin="round" />
    <path d="M12.0001 5H22.0001" stroke="currentColor" stroke-width="2" stroke-linecap="round" />
    <path d="M12.0001 9H18.0001" stroke="currentColor" stroke-width="2" stroke-linecap="round" />
    <path d="M2.00009 15C2.00009 14.4477 2.44781 14 3.00009 14H7.00009C7.55238 14 8.00009 14.4477 8.00009 15V19C8.00009 19.5523 7.55238 20 7.00009 20H3.00009C2.44781 20 2.00009 19.5523 2.00009 19V15Z" stroke="currentColor" stroke-width="2" stroke-linejoin="round" />
    <path d="M12.0001 15H22.0001" stroke="currentColor" stroke-width="2" stroke-linecap="round" />
    <path d="M12.0001 19H18.0001" stroke="currentColor" stroke-width="2" stroke-linecap="round" />
</svg>