<svg xmlns="http://www.w3.org/2000/svg" width="24" height="24" viewBox="0 0 24 24" fill="none">
    <path opacity="0.4" fill-rule="evenodd" clip-rule="evenodd" d="M10.2483 2C9.97977 2 9.72109 2.10648 9.54006 2.30482C7.36737 4.68538 5.99976 8.14693 5.99976 12C5.99976 15.8531 7.36737 19.3146 9.54006 21.6952C9.72109 21.8935 9.97977 22 10.2483 22H13.7512C14.0198 22 14.2784 21.8935 14.4595 21.6952C16.6322 19.3146 17.9998 15.8531 17.9998 12C17.9998 8.14693 16.6322 4.68538 14.4595 2.30482C14.2784 2.10648 14.0198 2 13.7512 2H10.2483Z" fill="currentColor" />
    <path fill-rule="evenodd" clip-rule="evenodd" d="M10.2485 2C9.98001 2 9.72133 2.10648 9.5403 2.30482C7.36761 4.68538 6 8.14693 6 12C6 15.8531 7.36761 19.3146 9.5403 21.6952C9.72133 21.8935 9.98001 22 10.2485 22H13.7515C14.02 22 14.2787 21.8935 14.4597 21.6952C16.6324 19.3146 18 15.8531 18 12C18 8.14693 16.6324 4.68538 14.4597 2.30482C14.2787 2.10648 14.02 2 13.7515 2H10.2485Z" stroke="currentColor" stroke-width="2" />
</svg>