<svg xmlns="http://www.w3.org/2000/svg" width="24" height="24" viewBox="0 0 24 24" fill="none">
    <path opacity="0.4" d="M21 15C21 17.4853 18.9853 19.5 16.5 19.5C14.0147 19.5 12 17.4853 12 15C12 12.5147 14.0147 10.5 16.5 10.5C18.9853 10.5 21 12.5147 21 15Z" fill="currentColor" />
    <path d="M3 4.5H21" stroke="currentColor" stroke-width="2" stroke-linecap="round" stroke-linejoin="round" />
    <path d="M3 11.5H8" stroke="currentColor" stroke-width="2" stroke-linecap="round" stroke-linejoin="round" />
    <path d="M3 18.5H8" stroke="currentColor" stroke-width="2" stroke-linecap="round" stroke-linejoin="round" />
    <path d="M12.2561 13.5C12.8738 11.7522 14.5407 10.5 16.5 10.5C18.9853 10.5 21 12.5147 21 15C21 17.4853 18.9853 19.5 16.5 19.5C14.9398 19.5 13.565 18.706 12.7578 17.5M12 9.5V13.5H16" stroke="currentColor" stroke-width="2" stroke-linecap="round" stroke-linejoin="round" />
</svg>