<svg xmlns="http://www.w3.org/2000/svg" width="24" height="24" viewBox="0 0 24 24" fill="none">
    <path opacity="0.4" d="M20.0003 3H11.9997V19H20.0003C21.1049 19 22.0003 18.1046 22.0003 17V5C22.0003 3.89543 21.1049 3 20.0003 3Z" fill="currentColor" />
    <path d="M5.49971 10H8.49971M5.49971 7H8.49971" stroke="currentColor" stroke-width="2" stroke-linecap="round" stroke-linejoin="round" />
    <path d="M15.4997 10H18.4997M15.4997 7H18.4997" stroke="currentColor" stroke-width="2" stroke-linecap="round" stroke-linejoin="round" />
    <path d="M19.9997 3H3.99971C2.89514 3 1.99971 3.89543 1.99971 5V17C1.99971 18.1046 2.89514 19 3.99971 19H19.9997C21.1043 19 21.9997 18.1046 21.9997 17V5C21.9997 3.89543 21.1043 3 19.9997 3Z" stroke="currentColor" stroke-width="2" stroke-linecap="round" stroke-linejoin="round" />
    <path d="M19.9997 19V21M3.99971 19V21" stroke="currentColor" stroke-width="2" stroke-linecap="round" stroke-linejoin="round" />
    <path d="M11.9997 3L11.9997 19" stroke="currentColor" stroke-width="2" stroke-linecap="round" stroke-linejoin="round" />
    <path d="M8.37471 14H8.24971M8.49971 14C8.49971 14.1381 8.38778 14.25 8.24971 14.25C8.11164 14.25 7.99971 14.1381 7.99971 14C7.99971 13.8619 8.11164 13.75 8.24971 13.75C8.38778 13.75 8.49971 13.8619 8.49971 14Z" stroke="currentColor" stroke-width="2" stroke-linecap="round" stroke-linejoin="round" />
    <path d="M18.3747 14H18.2497M18.4997 14C18.4997 14.1381 18.3878 14.25 18.2497 14.25C18.1116 14.25 17.9997 14.1381 17.9997 14C17.9997 13.8619 18.1116 13.75 18.2497 13.75C18.3878 13.75 18.4997 13.8619 18.4997 14Z" stroke="currentColor" stroke-width="2" stroke-linecap="round" stroke-linejoin="round" />
</svg>