<svg xmlns="http://www.w3.org/2000/svg" width="24" height="24" viewBox="0 0 24 24" fill="none">
    <path opacity="0.4" d="M3 4.5C3 3.39543 3.89543 2.5 5 2.5H12C13.1046 2.5 14 3.39543 14 4.5V19.5C14 20.6046 13.1046 21.5 12 21.5H5C3.89543 21.5 3 20.6046 3 19.5V4.5Z" fill="currentColor" />
    <path d="M17.5 15.5L21 12L17.5 8.5M20 12H10" stroke="currentColor" stroke-width="2" stroke-linecap="round" stroke-linejoin="round" />
    <path d="M14 6V4.5C14 3.39543 13.1046 2.5 12 2.5H5C3.89543 2.5 3 3.39543 3 4.5V19.5C3 20.6046 3.89543 21.5 5 21.5H12C13.1046 21.5 14 20.6046 14 19.5V18" stroke="currentColor" stroke-width="2" stroke-linecap="round" stroke-linejoin="round" />
</svg>