<svg xmlns="http://www.w3.org/2000/svg" width="24" height="24" viewBox="0 0 24 24" fill="none">
    <path opacity="0.4" d="M21 10.9998C21 17.9998 12 21.9998 12 21.9998C12 21.9998 3 17.9998 3 10.9998C3 6.02919 7.02944 1.99976 12 1.99976C16.9706 1.99976 21 6.02919 21 10.9998Z" fill="currentColor" />
    <path d="M21 10.9998C21 17.9998 12 21.9998 12 21.9998C12 21.9998 3 17.9998 3 10.9998C3 6.02919 7.02944 1.99976 12 1.99976C16.9706 1.99976 21 6.02919 21 10.9998Z" stroke="currentColor" stroke-width="2" stroke-linejoin="round" />
    <path d="M12 7.49976V14.4998M15.5 10.9998L8.5 10.9998" stroke="currentColor" stroke-width="2" stroke-linecap="round" stroke-linejoin="round" />
</svg>