<svg xmlns="http://www.w3.org/2000/svg" width="24" height="24" viewBox="0 0 24 24" fill="none">
    <path d="M8 3.5L8 18M15 21V6.00001" stroke="currentColor" stroke-width="2" stroke-linecap="round" stroke-linejoin="round" />
    <path opacity="0.4" fill-rule="evenodd" clip-rule="evenodd" d="M8 17.9999V3.10229C7.85741 3.10691 7.7158 3.14203 7.58517 3.20734L2.55279 5.72353C2.214 5.89292 2 6.23919 2 6.61796V18.6125C2 19.2951 2.6687 19.777 3.31623 19.5612L8 17.9999ZM15 20.9999V5.99993L20.6061 3.59732C21.2659 3.31452 22 3.79855 22 4.51647V17.3405C22 17.7406 21.7616 18.1021 21.3939 18.2597L15 20.9999Z" fill="currentColor" />
    <path d="M2 18.599V6.5362C2 6.15527 2.214 5.80704 2.55279 5.63668L7.58517 3.10617C7.84826 2.97388 8.15593 2.96478 8.4263 3.08132L15 5.91465L20.6061 3.49837C21.2659 3.21396 22 3.70074 22 4.42274V17.3198C22 17.7221 21.7616 18.0857 21.3939 18.2442L15 21L8 17.9829L3.31623 19.5531C2.6687 19.7701 2 19.2854 2 18.599Z" stroke="currentColor" stroke-width="2" stroke-linecap="round" stroke-linejoin="round" />
</svg>