<svg xmlns="http://www.w3.org/2000/svg" width="24" height="24" viewBox="0 0 24 24" fill="none">
    <path opacity="0.4" d="M12 2.99976C13.8104 2.99976 15.3099 3.20089 16.5479 3.56616C16.517 3.70582 16.5 3.85081 16.5 3.99976V5.49976H16C15.4477 5.49976 15 5.94747 15 6.49976V8.99976C15 9.55204 15.4477 9.99976 16 9.99976H21C21.3378 9.99976 21.6354 9.83144 21.8164 9.57495C21.9444 10.3465 22 11.1595 22 11.9998C22 16.9703 19.1328 20.9998 12 20.9998C10.0404 20.9998 8.43651 20.7499 7.13281 20.2976C6.63273 20.8651 5.03269 21.9998 2.63281 21.9998C3.62531 21.3331 4.63307 19.4997 3.37207 17.4998C2.3708 15.9788 2 14.071 2 11.9998C2 7.02919 4.13281 2.99976 12 2.99976Z" fill="currentColor" />
    <path d="M12.1248 11.9998H11.9998M8.125 11.9998H8M12.2498 11.9998C12.2498 12.1378 12.1379 12.2498 11.9998 12.2498C11.8618 12.2498 11.7498 12.1378 11.7498 11.9998C11.7498 11.8617 11.8618 11.7498 11.9998 11.7498C12.1379 11.7498 12.2498 11.8617 12.2498 11.9998ZM8.25 11.9998C8.25 12.1378 8.13807 12.2498 8 12.2498C7.86193 12.2498 7.75 12.1378 7.75 11.9998C7.75 11.8617 7.86193 11.7498 8 11.7498C8.13807 11.7498 8.25 11.8617 8.25 11.9998Z" stroke="currentColor" stroke-width="2" stroke-linecap="round" stroke-linejoin="round" />
    <path d="M20.5 5.49976V3.99976C20.5 2.89519 19.6046 1.99976 18.5 1.99976C17.3954 1.99976 16.5 2.89519 16.5 3.99976V5.49976M20.5 5.49976H21C21.5523 5.49976 22 5.94747 22 6.49976V8.99976C22 9.55204 21.5523 9.99976 21 9.99976H16C15.4477 9.99976 15 9.55204 15 8.99976V6.49976C15 5.94747 15.4477 5.49976 16 5.49976H16.5M20.5 5.49976H16.5" stroke="currentColor" stroke-width="2" stroke-linecap="round" stroke-linejoin="round" />
    <path d="M12 2.99976C4.13281 2.99976 2 7.02919 2 11.9998C2 14.071 2.37034 15.9788 3.37161 17.4998C4.63281 19.4998 3.62535 21.3331 2.63281 21.9998C5.03281 21.9998 6.63281 20.8649 7.13281 20.2975C8.43652 20.7497 10.0404 20.9998 12 20.9998C18.6478 20.9998 21.6305 17.4997 22 12.9998" stroke="currentColor" stroke-width="2" stroke-linecap="round" stroke-linejoin="round" />
</svg>