<svg xmlns="http://www.w3.org/2000/svg" width="24" height="24" viewBox="0 0 24 24" fill="none">
    <path opacity="0.4" d="M12 3.00007C13.335 3.00007 14.5008 3.11102 15.5176 3.31452C15.1908 3.7949 15 4.37526 15 5.00007C15 6.65692 16.3431 8.00007 18 8.00007C19.1468 8.00007 20.1416 7.35576 20.6465 6.41022C21.6594 7.94589 22 9.8869 22 12.0001C22 16.9706 19.1328 21.0001 12 21.0001C10.0404 21.0001 8.43651 20.7502 7.13281 20.2979C6.63273 20.8654 5.03269 22.0001 2.63281 22.0001C3.62531 21.3334 4.63307 19.5 3.37207 17.5001C2.3708 15.9791 2 14.0713 2 12.0001C2 7.02951 4.13281 3.00007 12 3.00007Z" fill="currentColor" />
    <path d="M22 12.0001C22 16.9706 19.1328 21.0001 12 21.0001C10.0404 21.0001 8.43652 20.7501 7.13281 20.2978C6.63281 20.8652 5.03281 22.0001 2.63281 22.0001C3.62535 21.3334 4.63281 19.5001 3.37161 17.5001C2.37034 15.9791 2 14.0713 2 12.0001C2 7.02952 4.13281 3.00008 12 3.00008" stroke="currentColor" stroke-width="2" stroke-linecap="round" stroke-linejoin="round" />
    <path d="M12.1248 12.0001H11.9998M16.125 12.0001H16M8.125 12.0001H8M12.2498 12.0001C12.2498 12.1382 12.1379 12.2501 11.9998 12.2501C11.8618 12.2501 11.7498 12.1382 11.7498 12.0001C11.7498 11.862 11.8618 11.7501 11.9998 11.7501C12.1379 11.7501 12.2498 11.862 12.2498 12.0001ZM16.25 12.0001C16.25 12.1382 16.1381 12.2501 16 12.2501C15.8619 12.2501 15.75 12.1382 15.75 12.0001C15.75 11.862 15.8619 11.7501 16 11.7501C16.1381 11.7501 16.25 11.862 16.25 12.0001ZM8.25 12.0001C8.25 12.1382 8.13807 12.2501 8 12.2501C7.86193 12.2501 7.75 12.1382 7.75 12.0001C7.75 11.862 7.86193 11.7501 8 11.7501C8.13807 11.7501 8.25 11.862 8.25 12.0001Z" stroke="currentColor" stroke-width="2" stroke-linecap="round" stroke-linejoin="round" />
    <path d="M22 9.00008L20.5 7.50008M21 5.00008C21 3.34323 19.6569 2.00008 18 2.00008C16.3431 2.00008 15 3.34323 15 5.00008C15 6.65693 16.3431 8.00008 18 8.00008C19.6569 8.00008 21 6.65693 21 5.00008Z" stroke="currentColor" stroke-width="2" stroke-linecap="round" stroke-linejoin="round" />
</svg>