<svg xmlns="http://www.w3.org/2000/svg" width="24" height="24" viewBox="0 0 24 24" fill="none">
    <path opacity="0.4" d="M12 2.99963C12.9888 2.99963 13.8848 3.05989 14.6963 3.17346C13.663 4.01489 13 4.99963 13 4.99963C13 4.99963 15.0147 7.99963 17.5 7.99963C18.7503 7.99963 19.8808 7.23958 20.6963 6.48499C21.671 8.00858 22 9.92103 22 11.9996C22 16.9702 19.1328 20.9996 12 20.9996C10.0404 20.9996 8.43651 20.7498 7.13281 20.2975C6.63273 20.8649 5.03269 21.9996 2.63281 21.9996C3.62531 21.333 4.63307 19.4996 3.37207 17.4996C2.3708 15.9787 2 14.0709 2 11.9996C2 7.02907 4.13281 2.99963 12 2.99963Z" fill="currentColor" />
    <path d="M21.8812 10.0003C21.9643 10.6436 22 11.3129 22 12.0003C22 16.9709 19.1328 21.0003 12 21.0003C10.0404 21.0003 8.43652 20.7503 7.13281 20.298C6.63281 20.8655 5.03281 22.0003 2.63281 22.0003C3.62535 21.3337 4.63281 19.5003 3.37161 17.5003C2.37034 15.9794 2 14.0716 2 12.0003C2 7.48016 3.76381 3.73829 10 3.09729" stroke="currentColor" stroke-width="2" stroke-linecap="round" stroke-linejoin="round" />
    <path d="M8 13.9996H16M8 9.99963H12" stroke="currentColor" stroke-width="2" stroke-linecap="round" stroke-linejoin="round" />
    <path d="M22 4.99963C22 4.99963 19.9853 7.99963 17.5 7.99963C15.0147 7.99963 13 4.99963 13 4.99963C13 4.99963 15.0147 1.99963 17.5 1.99963C19.9853 1.99963 22 4.99963 22 4.99963Z" stroke="currentColor" stroke-width="2" stroke-linecap="round" stroke-linejoin="round" />
    <path d="M17.625 4.99963H17.5M17.75 4.99963C17.75 5.13771 17.6381 5.24963 17.5 5.24963C17.3619 5.24963 17.25 5.13771 17.25 4.99963C17.25 4.86156 17.3619 4.74963 17.5 4.74963C17.6381 4.74963 17.75 4.86156 17.75 4.99963Z" stroke="currentColor" stroke-width="2" stroke-linecap="round" stroke-linejoin="round" />
</svg>