<svg xmlns="http://www.w3.org/2000/svg" width="24" height="24" viewBox="0 0 24 24" fill="none">
    <path opacity="0.4" d="M12 21C19.1328 21 22 16.9706 22 12C22 7.02944 20.1328 3 12 3C4.13281 3 2 7.02944 2 12C2 14.0712 2.37034 15.9791 3.37161 17.5C4.63281 19.5 3.62535 21.3333 2.63281 22C5.03281 22 6.63281 20.8651 7.13281 20.2977C8.43652 20.75 10.0404 21 12 21Z" fill="currentColor" />
    <path d="M12 3C4.13281 3 2 7.02944 2 12C2 14.0712 2.37034 15.9791 3.37161 17.5C4.63281 19.5 3.62535 21.3333 2.63281 22C5.03281 22 6.63281 20.8651 7.13281 20.2977C8.43652 20.75 10.0404 21 12 21C19.1328 21 22 16.9706 22 12C22 11.3126 21.9643 10.6432 21.8812 10" stroke="currentColor" stroke-width="2" stroke-linecap="round" stroke-linejoin="round" />
    <path d="M12.1248 12H11.9998M16.125 12H16M8.125 12H8M12.2498 12C12.2498 12.1381 12.1379 12.25 11.9998 12.25C11.8618 12.25 11.7498 12.1381 11.7498 12C11.7498 11.8619 11.8618 11.75 11.9998 11.75C12.1379 11.75 12.2498 11.8619 12.2498 12ZM16.25 12C16.25 12.1381 16.1381 12.25 16 12.25C15.8619 12.25 15.75 12.1381 15.75 12C15.75 11.8619 15.8619 11.75 16 11.75C16.1381 11.75 16.25 11.8619 16.25 12ZM8.25 12C8.25 12.1381 8.13807 12.25 8 12.25C7.86193 12.25 7.75 12.1381 7.75 12C7.75 11.8619 7.86193 11.75 8 11.75C8.13807 11.75 8.25 11.8619 8.25 12Z" stroke="currentColor" stroke-width="2" stroke-linecap="round" stroke-linejoin="round" />
    <path d="M18 2L15 5L18 8M22 5L15.5 5" stroke="currentColor" stroke-width="2" stroke-linecap="round" stroke-linejoin="round" />
</svg>