<svg xmlns="http://www.w3.org/2000/svg" width="24" height="24" viewBox="0 0 24 24" fill="none">
    <path opacity="0.4" d="M12 3C13.1586 3 14.1895 3.08464 15.1064 3.23926C14.4213 3.9572 14 4.92922 14 6C14 8.20914 15.7909 10 18 10C19.4628 10 20.741 9.21397 21.4385 8.04199C21.8461 9.2366 22 10.5796 22 12C22 16.9706 19.1328 21 12 21C10.0404 21 8.43651 20.7501 7.13281 20.2979C6.63273 20.8653 5.03269 22 2.63281 22C3.62531 21.3334 4.63307 19.4999 3.37207 17.5C2.3708 15.9791 2 14.0712 2 12C2 7.02944 4.13281 3 12 3Z" fill="currentColor" />
    <path d="M22 11.9879C22 16.9645 19.1328 20.9988 12 20.9988C10.0404 20.9988 8.43652 20.7485 7.13281 20.2957C6.63281 20.8638 5.03281 22 2.63281 22C3.62535 21.3325 4.63281 19.497 3.37161 17.4946C2.37034 15.9718 2 14.0617 2 11.9879C2 7.22912 3.95026 3.33192 11 3" stroke="currentColor" stroke-width="2" stroke-linecap="round" stroke-linejoin="round" />
    <path d="M12.1248 12H11.9998M8.125 12H8M12.2498 12C12.2498 12.1381 12.1379 12.25 11.9998 12.25C11.8618 12.25 11.7498 12.1381 11.7498 12C11.7498 11.8619 11.8618 11.75 11.9998 11.75C12.1379 11.75 12.2498 11.8619 12.2498 12ZM8.25 12C8.25 12.1381 8.13807 12.25 8 12.25C7.86193 12.25 7.75 12.1381 7.75 12C7.75 11.8619 7.86193 11.75 8 11.75C8.13807 11.75 8.25 11.8619 8.25 12Z" stroke="currentColor" stroke-width="2" stroke-linecap="round" stroke-linejoin="round" />
    <path d="M18 6L19 5M22 6C22 8.20914 20.2091 10 18 10C15.7909 10 14 8.20914 14 6C14 3.79086 15.7909 2 18 2C20.2091 2 22 3.79086 22 6Z" stroke="currentColor" stroke-width="2" stroke-linecap="round" stroke-linejoin="round" />
</svg>