<svg xmlns="http://www.w3.org/2000/svg" width="24" height="24" viewBox="0 0 24 24" fill="none">
    <path opacity="0.4" d="M11.6591 2H8.78224C7.8645 2 7.06453 2.62459 6.84195 3.51493L2.84195 19.5149C2.52638 20.7772 3.48109 22 4.78224 22H15.6591C16.9603 22 17.915 20.7772 17.5994 19.5149L16.8457 16.5L14.2207 6L13.5994 3.51493C13.3768 2.62459 12.5769 2 11.6591 2Z" fill="currentColor" />
    <path d="M14.2207 6L13.5994 3.51493C13.3768 2.62459 12.5769 2 11.6591 2H8.78224C7.8645 2 7.06453 2.62459 6.84195 3.51493L2.84195 19.5149C2.52638 20.7772 3.48109 22 4.78224 22H15.6591C16.9603 22 17.915 20.7772 17.5994 19.5149L16.8457 16.5" stroke="currentColor" stroke-width="2" stroke-linecap="round" stroke-linejoin="round" />
    <path d="M10.2188 13.5V6" stroke="currentColor" stroke-width="2" stroke-linecap="round" stroke-linejoin="round" />
    <path d="M10.2188 18L17.2188 11" stroke="currentColor" stroke-width="2" stroke-linecap="round" stroke-linejoin="round" />
    <circle cx="18.7188" cy="9.5" r="2" stroke="currentColor" stroke-width="2" />
    <path d="M20.2188 8L21.2188 7" stroke="currentColor" stroke-width="2" stroke-linecap="round" stroke-linejoin="round" />
</svg>