<svg xmlns="http://www.w3.org/2000/svg" width="24" height="24" viewBox="0 0 24 24" fill="none">
    <path d="M8.49854 21.5C8.49854 18.3773 8.49854 16.1227 8.49854 13V2.5" stroke="currentColor" stroke-width="2" stroke-linecap="round" stroke-linejoin="round" />
    <path d="M5.49854 21.5H11.4985" stroke="currentColor" stroke-width="2" stroke-linecap="round" stroke-linejoin="round" />
    <path opacity="0.4" d="M17.4985 2.5L9.49853 2.50005C8.94625 2.50005 8.49854 2.94777 8.49854 3.50005V9.50005C8.49854 10.0523 8.94625 10.5001 9.49854 10.5L17.4986 10.5C18.3226 10.5 18.793 9.55923 18.2985 8.9L16.9485 7.09999C16.6819 6.74443 16.6819 6.25554 16.9485 5.89999L18.2985 4.1C18.793 3.44076 18.3226 2.49999 17.4985 2.5Z" fill="currentColor" />
    <path d="M8.49854 2.50006L17.4985 2.5C18.3226 2.49999 18.793 3.44076 18.2985 4.1L16.9485 5.89999C16.6819 6.25554 16.6819 6.74443 16.9485 7.09999L18.2985 8.9C18.793 9.55923 18.3226 10.5 17.4986 10.5L8.49854 10.5001" stroke="currentColor" stroke-width="2" stroke-linecap="round" stroke-linejoin="round" />
</svg>