<svg xmlns="http://www.w3.org/2000/svg" width="24" height="24" viewBox="0 0 24 24" fill="none">
    <path opacity="0.4" fill-rule="evenodd" clip-rule="evenodd" d="M17 2C18.1046 2 19 2.89543 19 4V20C19 21.1046 18.1046 22 17 22H7C5.89543 22 5 21.1046 5 20V4C5 2.89543 5.89543 2 7 2H17ZM12 6.39844C10.0671 6.39844 8.50021 8.01 8.5 9.99805C8.5 12.798 12 14.3984 12 14.3984C12 14.3984 15.5 12.798 15.5 9.99805C15.4998 8.01 13.9329 6.39844 12 6.39844Z" fill="currentColor" />
    <path d="M7 22H17C18.1046 22 19 21.1046 19 20V4C19 2.89543 18.1046 2 17 2H7C5.89543 2 5 2.89543 5 4V20C5 21.1046 5.89543 22 7 22Z" stroke="currentColor" stroke-width="2" stroke-linecap="round" stroke-linejoin="round" />
    <path d="M15.5 9.99844C15.5 12.7984 12 14.3984 12 14.3984C12 14.3984 8.5 12.7984 8.5 9.99844C8.5 8.01021 10.067 6.39844 12 6.39844C13.933 6.39844 15.5 8.01021 15.5 9.99844Z" stroke="currentColor" stroke-width="2" stroke-linecap="round" stroke-linejoin="round" />
    <path d="M12.125 10H12M12.25 10C12.25 10.1381 12.1381 10.25 12 10.25C11.8619 10.25 11.75 10.1381 11.75 10C11.75 9.86193 11.8619 9.75 12 9.75C12.1381 9.75 12.25 9.86193 12.25 10Z" stroke="currentColor" stroke-width="2" stroke-linecap="round" stroke-linejoin="round" />
    <path d="M12.125 19H12M12.25 19C12.25 19.1381 12.1381 19.25 12 19.25C11.8619 19.25 11.75 19.1381 11.75 19C11.75 18.8619 11.8619 18.75 12 18.75C12.1381 18.75 12.25 18.8619 12.25 19Z" stroke="currentColor" stroke-width="2" stroke-linecap="round" stroke-linejoin="round" />
</svg>