<svg xmlns="http://www.w3.org/2000/svg" width="24" height="24" viewBox="0 0 24 24" fill="none">
    <path opacity="0.4" fill-rule="evenodd" clip-rule="evenodd" d="M20 5C21.1046 5 22 5.89543 22 7V17C22 18.1046 21.1046 19 20 19H4C2.89543 19 2 18.1046 2 17V7C2 5.89543 2.89543 5 4 5H20ZM12 9C10.3431 9 9 10.3431 9 12C9 13.6569 10.3431 15 12 15C13.6569 15 15 13.6569 15 12C15 10.3431 13.6569 9 12 9Z" fill="currentColor" />
    <path d="M20 5H4C2.89543 5 2 5.89543 2 7V17C2 18.1046 2.89543 19 4 19H20C21.1046 19 22 18.1046 22 17V7C22 5.89543 21.1046 5 20 5Z" stroke="currentColor" stroke-width="2" stroke-linecap="round" stroke-linejoin="round" />
    <path d="M15 12C15 13.6569 13.6569 15 12 15C10.3431 15 9 13.6569 9 12C9 10.3431 10.3431 9 12 9C13.6569 9 15 10.3431 15 12Z" stroke="currentColor" stroke-width="2" stroke-linecap="round" stroke-linejoin="round" />
    <path d="M5.375 12H5.25M5.5 12C5.5 12.1381 5.38807 12.25 5.25 12.25C5.11193 12.25 5 12.1381 5 12C5 11.8619 5.11193 11.75 5.25 11.75C5.38807 11.75 5.5 11.8619 5.5 12Z" stroke="currentColor" stroke-width="2" stroke-linecap="round" stroke-linejoin="round" />
    <path d="M18.875 12H18.75M19 12C19 12.1381 18.8881 12.25 18.75 12.25C18.6119 12.25 18.5 12.1381 18.5 12C18.5 11.8619 18.6119 11.75 18.75 11.75C18.8881 11.75 19 11.8619 19 12Z" stroke="currentColor" stroke-width="2" stroke-linecap="round" stroke-linejoin="round" />
</svg>