<svg xmlns="http://www.w3.org/2000/svg" width="24" height="24" viewBox="0 0 24 24" fill="none">
    <path opacity="0.4" fill-rule="evenodd" clip-rule="evenodd" d="M20 3C21.1046 3 22 3.89543 22 5V15C22 16.1046 21.1046 17 20 17H4C2.89543 17 2 16.1046 2 15V5C2 3.89543 2.89543 3 4 3H20ZM10 7C9.44772 7 9 7.44772 9 8V12C9 12.5523 9.44772 13 10 13H14C14.5523 13 15 12.5523 15 12V8C15 7.44772 14.5523 7 14 7H10Z" fill="currentColor" />
    <path d="M14 21H16M14 21C13.1716 21 12.5 20.3284 12.5 19.5V17L12 17M14 21H10M10 21H8M10 21C10.8284 21 11.5 20.3284 11.5 19.5V17L12 17M12 17V21" stroke="currentColor" stroke-width="2" stroke-linecap="round" stroke-linejoin="round" />
    <path d="M22 15V5C22 3.89543 21.1046 3 20 3H4C2.89543 3 2 3.89543 2 5V15C2 16.1046 2.89543 17 4 17H20C21.1046 17 22 16.1046 22 15Z" stroke="currentColor" stroke-width="2" stroke-linecap="round" stroke-linejoin="round" />
    <path d="M9 12V8C9 7.44772 9.44772 7 10 7H14C14.5523 7 15 7.44772 15 8V12C15 12.5523 14.5523 13 14 13H10C9.44772 13 9 12.5523 9 12Z" stroke="currentColor" stroke-width="2" stroke-linecap="round" stroke-linejoin="round" />
</svg>