<svg xmlns="http://www.w3.org/2000/svg" width="24" height="24" viewBox="0 0 24 24" fill="none">
    <path d="M16 21H14H10H8" stroke="currentColor" stroke-width="2" stroke-linecap="round" stroke-linejoin="round" />
    <path d="M10.5 21V17M13.5 17V21" stroke="currentColor" stroke-width="2" />
    <path opacity="0.4" d="M2 5.20311C2 4.47536 2.4022 3.83996 3 3.5L17 17H4C2.89543 17 2 16.1197 2 15.0339V5.20311Z" fill="currentColor" />
    <path d="M8 3H19.9995C21.1041 3 21.9995 3.88027 21.9995 4.96615V14.7969C21.9995 15.5246 21.5973 16.16 20.9995 16.5" stroke="currentColor" stroke-width="2" stroke-linecap="round" />
    <path d="M3 3.5C2.4022 3.83996 2 4.47536 2 5.20311V15.0339C2 16.1197 2.89543 17 4 17H17" stroke="currentColor" stroke-width="2" stroke-linecap="round" />
    <path d="M2 2L22 22" stroke="currentColor" stroke-width="2" stroke-linecap="round" />
</svg>