<svg xmlns="http://www.w3.org/2000/svg" width="24" height="24" viewBox="0 0 24 24" fill="none">
    <path d="M6.00058 12V11.5M18.0006 12V11.5M12.0006 12V11.5M7.00058 12C7.00058 11.4478 6.55286 11 6.00058 11C5.44829 11 5.00058 11.4478 5.00058 12C5.00058 12.5523 5.44829 13 6.00058 13C6.55286 13 7.00058 12.5523 7.00058 12ZM19.0006 12C19.0006 11.4478 18.5529 11 18.0006 11C17.4483 11 17.0006 11.4478 17.0006 12C17.0006 12.5523 17.4483 13 18.0006 13C18.5529 13 19.0006 12.5523 19.0006 12ZM13.0006 12C13.0006 11.4478 12.5529 11 12.0006 11C11.4483 11 11.0006 11.4478 11.0006 12C11.0006 12.5523 11.4483 13 12.0006 13C12.5529 13 13.0006 12.5523 13.0006 12Z" stroke="currentColor" stroke-width="2" stroke-linecap="round" stroke-linejoin="round" />
</svg>