<svg xmlns="http://www.w3.org/2000/svg" width="24" height="24" viewBox="0 0 24 24" fill="none">
    <path opacity="0.4" d="M11.25 22C17.25 22 18.75 17.49 18.75 12C18.75 6.50998 17.25 2 11.25 2C5.24993 2 3.75 6.50996 3.75 12C3.75 17.49 5.24993 22 11.25 22Z" fill="currentColor" />
    <path d="M11.25 8.5V5.5" stroke="currentColor" stroke-width="2" stroke-linecap="round" stroke-linejoin="round" />
    <path d="M12.25 2.0449C11.9314 2.0152 11.5983 2 11.25 2C5.25 2 3.75 6.50998 3.75 12C3.75 17.49 5.25 22 11.25 22C17.2501 22 18.75 17.49 18.75 12C18.75 11.3158 18.7267 10.6469 18.6743 10" stroke="currentColor" stroke-width="2" stroke-linecap="round" stroke-linejoin="round" />
    <path d="M16.25 4C16.25 5.10457 17.1454 6 18.25 6C19.3546 6 20.25 5.10457 20.25 4C20.25 2.89543 19.3546 2 18.25 2C17.1454 2 16.25 2.89543 16.25 4Z" stroke="currentColor" stroke-width="2" stroke-linecap="round" stroke-linejoin="round" />
</svg>