<svg xmlns="http://www.w3.org/2000/svg" width="24" height="24" viewBox="0 0 24 24" fill="none">
    <path d="M12 4.25C11.5858 4.25 11.25 4.58579 11.25 5C11.25 5.41421 11.5858 5.75 12 5.75V5V4.25ZM19 5H19.75C19.75 4.58579 19.4142 4.25 19 4.25V5ZM18.25 12C18.25 12.4142 18.5858 12.75 19 12.75C19.4142 12.75 19.75 12.4142 19.75 12H19H18.25ZM4.46967 18.4697C4.17678 18.7626 4.17678 19.2374 4.46967 19.5303C4.76256 19.8232 5.23744 19.8232 5.53033 19.5303L5 19L4.46967 18.4697ZM12 5V5.75H19V5V4.25H12V5ZM19 5H18.25V12H19H19.75V5H19ZM5 19L5.53033 19.5303L19.5303 5.53033L19 5L18.4697 4.46967L4.46967 18.4697L5 19Z" fill="currentColor" />
</svg>