<svg xmlns="http://www.w3.org/2000/svg" width="24" height="24" viewBox="0 0 24 24" fill="none">
    <path d="M12 4.25C12.4142 4.25 12.75 4.58579 12.75 5C12.75 5.41421 12.4142 5.75 12 5.75V5V4.25ZM5 5H4.25C4.25 4.58579 4.58579 4.25 5 4.25V5ZM5.75 12C5.75 12.4142 5.41421 12.75 5 12.75C4.58579 12.75 4.25 12.4142 4.25 12H5H5.75ZM19.5303 18.4697C19.8232 18.7626 19.8232 19.2374 19.5303 19.5303C19.2374 19.8232 18.7626 19.8232 18.4697 19.5303L19 19L19.5303 18.4697ZM12 5V5.75H5V5V4.25H12V5ZM5 5H5.75V12H5H4.25V5H5ZM19 19L18.4697 19.5303L4.46967 5.53033L5 5L5.53033 4.46967L19.5303 18.4697L19 19Z" fill="currentColor" />
</svg>