<svg xmlns="http://www.w3.org/2000/svg" width="24" height="24" viewBox="0 0 24 24" fill="none">
    <path d="M12.7501 20.0001C12.7501 20.4143 12.4144 20.7501 12.0001 20.7501C11.5859 20.7501 11.2501 20.4143 11.2501 20.0001H12.0001H12.7501ZM11.2501 5.50004C11.2501 5.08583 11.5859 4.75004 12.0001 4.75004C12.4144 4.75004 12.7501 5.08583 12.7501 5.50004H12.0001H11.2501ZM17.5302 8.46971C17.8231 8.7626 17.8231 9.23748 17.5302 9.53037C17.2373 9.82326 16.7624 9.82326 16.4695 9.53037L16.9999 9.00004L17.5302 8.46971ZM11.9999 4.00004L11.4695 3.46971C11.6102 3.32906 11.801 3.25004 11.9999 3.25004C12.1988 3.25004 12.3896 3.32906 12.5302 3.46971L11.9999 4.00004ZM7.53021 9.53037C7.23731 9.82326 6.76244 9.82326 6.46955 9.53037C6.17665 9.23748 6.17665 8.7626 6.46955 8.46971L6.99988 9.00004L7.53021 9.53037ZM12.0001 20.0001H11.2501V5.50004H12.0001H12.7501V20.0001H12.0001ZM16.9999 9.00004L16.4695 9.53037L11.4695 4.53037L11.9999 4.00004L12.5302 3.46971L17.5302 8.46971L16.9999 9.00004ZM11.9999 4.00004L12.5302 4.53037L7.53021 9.53037L6.99988 9.00004L6.46955 8.46971L11.4695 3.46971L11.9999 4.00004Z" fill="currentColor" />
</svg>