<svg xmlns="http://www.w3.org/2000/svg" width="24" height="24" viewBox="0 0 24 24" fill="none">
    <path opacity="0.4" d="M13 3.51308C13 4.88724 14.2009 6.00121 15.6823 6.00121C16.6387 6.00121 17.5251 5.70011 18 5.00122C16.4 3.00141 14.201 2.39892 13.3015 2.34766C13.1274 2.7087 13 3.14899 13 3.51308Z" fill="currentColor" />
    <g opacity="0.4">
        <path d="M10 11.499C9.99839 12.6715 9.98433 14.0491 9.89453 15.4287C5.93973 15.1705 3 14.2128 3 13.1826C3.00054 12.1434 5.99243 11.2754 10 11.0547V11.499Z" fill="currentColor" />
        <path d="M14 11.0547C18.0076 11.2754 20.9995 12.1434 21 13.1826C21 14.2129 18.0598 15.1706 14.1045 15.4287C14.0147 14.0491 14.0016 12.6715 14 11.499V11.0547Z" fill="currentColor" />
    </g>
    <path d="M17 15C19.412 14.6082 21 13.9411 21 13.1839C21 11.9778 16.9706 11 12 11C7.02944 11 3 11.9778 3 13.1839C3 13.9411 4.58803 14.6082 7 15" stroke="currentColor" stroke-width="2" stroke-linecap="round" stroke-linejoin="round" />
    <path d="M21 13C21 6.92487 16.9706 2 12 2C7.02944 2 3 6.92487 3 13" stroke="currentColor" stroke-width="2" stroke-linecap="round" stroke-linejoin="round" />
    <path d="M18 5.00122C17.5251 5.70011 16.6387 6.00121 15.6823 6.00121C14.2009 6.00121 13 4.88724 13 3.51308C13 3.14899 13.1274 2.7087 13.3015 2.34766" stroke="currentColor" stroke-width="2" stroke-linecap="round" stroke-linejoin="round" />
    <path d="M10 11.5C9.99527 14.9495 9.90043 20.1752 8 22M14 11.5C14.0047 14.9495 14.0996 20.1752 16 22" stroke="currentColor" stroke-width="2" stroke-linecap="round" stroke-linejoin="round" />
    <path d="M9.125 7H9M9.25 7C9.25 7.13807 9.13807 7.25 9 7.25C8.86193 7.25 8.75 7.13807 8.75 7C8.75 6.86193 8.86193 6.75 9 6.75C9.13807 6.75 9.25 6.86193 9.25 7Z" stroke="currentColor" stroke-width="2" stroke-linecap="round" />
</svg>