<svg xmlns="http://www.w3.org/2000/svg" width="24" height="24" viewBox="0 0 24 24" fill="none">
    <path opacity="0.4" d="M14.5 6H18C20.2091 6 22 7.79086 22 10V18C22 20.2091 20.2091 22 18 22H14.5C13.9477 22 13.5 21.5523 13.5 21V7C13.5 6.44772 13.9477 6 14.5 6Z" fill="currentColor" />
    <path d="M9.5 2H6C3.79086 2 2 3.79086 2 6V14C2 16.2091 3.79086 18 6 18H9.5C10.0523 18 10.5 17.5523 10.5 17V3C10.5 2.44772 10.0523 2 9.5 2Z" stroke="currentColor" stroke-width="2" stroke-linecap="round" stroke-linejoin="round" />
    <path d="M14.5 6H18C20.2091 6 22 7.79086 22 10V18C22 20.2091 20.2091 22 18 22H14.5C13.9477 22 13.5 21.5523 13.5 21V7C13.5 6.44772 13.9477 6 14.5 6Z" stroke="currentColor" stroke-width="2" stroke-linecap="round" stroke-linejoin="round" />
    <path d="M6.25 8.5V5.5M7.75 7H4.75" stroke="currentColor" stroke-width="2" stroke-linecap="round" stroke-linejoin="round" />
    <path d="M17.75 18.5V15.5M19.25 17H16.25" stroke="currentColor" stroke-width="2" stroke-linecap="round" stroke-linejoin="round" />
    <path d="M6.375 14H6.25M6.5 14C6.5 14.1381 6.38807 14.25 6.25 14.25C6.11193 14.25 6 14.1381 6 14C6 13.8619 6.11193 13.75 6.25 13.75C6.38807 13.75 6.5 13.8619 6.5 14Z" stroke="currentColor" stroke-width="2" stroke-linecap="round" />
    <path d="M17.875 10H17.75M18 10C18 10.1381 17.8881 10.25 17.75 10.25C17.6119 10.25 17.5 10.1381 17.5 10C17.5 9.86193 17.6119 9.75 17.75 9.75C17.8881 9.75 18 9.86193 18 10Z" stroke="currentColor" stroke-width="2" stroke-linecap="round" />
</svg>