<svg xmlns="http://www.w3.org/2000/svg" width="24" height="24" viewBox="0 0 24 24" fill="none">
    <path opacity="0.4" fill-rule="evenodd" clip-rule="evenodd" d="M6.5 2L19 2C20.1046 2 21 2.89543 21 4V16C21 15.8171 20.9273 15.6416 20.798 15.5123L19.4877 14.202C19.3584 14.0727 19.1829 14 19 14C18.8171 14 18.6416 14.0727 18.5123 14.202L13 19.7143V22H6.5C5.39543 22 4.5 21.1046 4.5 20V4C4.5 2.89543 5.39543 2 6.5 2Z" fill="currentColor" />
    <path d="M10 11H13.5M10 7H17" stroke="currentColor" stroke-width="2" stroke-linecap="round" stroke-linejoin="round" />
    <path d="M21 10.5V4C21 2.89543 20.1046 2 19 2L6.5 2C5.39543 2 4.5 2.89543 4.5 4V20C4.5 21.1046 5.39543 22 6.5 22H9.49805" stroke="currentColor" stroke-width="2" stroke-linecap="round" stroke-linejoin="round" />
    <path d="M6 6H3M6 12H3M6 18H3" stroke="currentColor" stroke-width="2" stroke-linecap="round" stroke-linejoin="round" />
    <path d="M13 22V19.7143L18.5123 14.202C18.6416 14.0727 18.8171 14 19 14C19.1829 14 19.3584 14.0727 19.4877 14.202L20.798 15.5123C20.9273 15.6416 21 15.8171 21 16C21 16.1829 20.9273 16.3584 20.798 16.4877L15.2857 22H13Z" stroke="currentColor" stroke-width="2" stroke-linecap="round" stroke-linejoin="round" />
</svg>