<svg xmlns="http://www.w3.org/2000/svg" width="24" height="24" viewBox="0 0 24 24" fill="none">
    <path d="M21 9L20 9M17 9L16 9M12.5 9L11.5 9M8 9L7 9M3 9L4 9" stroke="currentColor" stroke-width="2" stroke-linecap="round" stroke-linejoin="round" />
    <path opacity="0.4" fill-rule="evenodd" clip-rule="evenodd" d="M4.5 2.5C3.39543 2.5 2.5 3.39543 2.5 4.5V9H21.5V4.5C21.5 3.39543 20.6046 2.5 19.5 2.5H4.5Z" fill="currentColor" />
    <path d="M2.5 19.5C2.5 20.6046 3.39543 21.5 4.5 21.5H19.5C20.6046 21.5 21.5 20.6046 21.5 19.5V4.5C21.5 3.39543 20.6046 2.5 19.5 2.5H4.5C3.39543 2.5 2.5 3.39543 2.5 4.5V19.5Z" stroke="currentColor" stroke-width="2" />
</svg>