<svg xmlns="http://www.w3.org/2000/svg" width="24" height="24" viewBox="0 0 24 24" fill="none">
    <path d="M9 21.5L9 2.5" stroke="currentColor" stroke-width="2" />
    <path opacity="0.4" fill-rule="evenodd" clip-rule="evenodd" d="M9 2.5L5.5 2.5C3.84315 2.5 2.5 3.84315 2.5 5.5L2.5 18.5C2.5 20.1569 3.84315 21.5 5.5 21.5H18.5C20.1569 21.5 21.5 20.1569 21.5 18.5V16H9V2.5Z" fill="currentColor" />
    <path d="M21.5 16L9 16" stroke="currentColor" stroke-width="2" />
    <path d="M18.5 21.5C20.1569 21.5 21.5 20.1569 21.5 18.5V5.5C21.5 3.84315 20.1569 2.5 18.5 2.5L5.5 2.5C3.84315 2.5 2.5 3.84315 2.5 5.5L2.5 18.5C2.5 20.1569 3.84315 21.5 5.5 21.5H18.5Z" stroke="currentColor" stroke-width="2" stroke-linejoin="round" />
</svg>