<svg xmlns="http://www.w3.org/2000/svg" width="24" height="24" viewBox="0 0 24 24" fill="none">
    <path opacity="0.4" d="M12 2C8.13401 2 5 5.13401 5 9C5 10.9073 5.76281 12.6364 7 13.899V17C7 18.1046 7.89543 19 9 19H15C16.1046 19 17 18.1046 17 17V13.899C18.2372 12.6364 19 10.9073 19 9C19 5.13401 15.866 2 12 2Z" fill="currentColor" />
    <path d="M12 2C8.13398 2 4.99997 5.13401 4.99997 9C4.99997 10.9073 5.76278 12.6364 6.99997 13.899V17C6.99997 18.1046 7.8954 19 8.99997 19H15C16.1045 19 17 18.1046 17 17V13.899C18.2372 12.6364 19 10.9073 19 9C19 5.13401 15.866 2 12 2Z" stroke="currentColor" stroke-width="2" stroke-linecap="round" stroke-linejoin="round" />
    <path d="M11 15H13" stroke="currentColor" stroke-width="2" stroke-linecap="round" stroke-linejoin="round" />
    <path d="M12 15V12" stroke="currentColor" stroke-width="2" stroke-linecap="round" stroke-linejoin="round" />
    <path d="M12 19V22" stroke="currentColor" stroke-width="2" stroke-linecap="round" stroke-linejoin="round" />
    <path d="M15 9C15 7.34315 13.6569 6 12 6C10.3431 6 9 7.34315 9 9" stroke="currentColor" stroke-width="2" stroke-linecap="round" stroke-linejoin="round" />
</svg>