<svg xmlns="http://www.w3.org/2000/svg" width="24" height="24" viewBox="0 0 24 24" fill="none">
    <path d="M7 20H4C2.89543 20 2 19.1046 2 18V6C2 4.89543 2.89543 4 4 4H19.9999C21.1045 4 21.9999 4.89543 21.9999 6V8" stroke="currentColor" stroke-width="2" stroke-linecap="round" stroke-linejoin="round" />
    <path d="M11 13C11 12.4477 11.4477 12 12 12H21C21.5523 12 22 12.4477 22 13V19C22 19.5523 21.5523 20 21 20H12C11.4477 20 11 19.5523 11 19V13Z" stroke="currentColor" stroke-width="2" stroke-linejoin="round" />
    <path opacity="0.4" d="M11 13C11 12.4477 11.4477 12 12 12H21C21.5523 12 22 12.4477 22 13V19C22 19.5523 21.5523 20 21 20H12C11.4477 20 11 19.5523 11 19V13Z" fill="currentColor" />
</svg>