<svg xmlns="http://www.w3.org/2000/svg" width="24" height="24" viewBox="0 0 24 24" fill="none">
    <path opacity="0.4" fill-rule="evenodd" clip-rule="evenodd" d="M8.12862 8.73254C8.87615 8.96092 9.57737 8.25151 9.38545 7.46105L8.6216 4.31504C8.43299 3.53823 9.10849 2.83396 9.84922 3.03513L10.2088 3.13276C11.5009 3.48367 12.6069 4.35806 13.2832 5.56345L16.4959 11.2888L19.8276 12.3066C21.1154 12.7001 22.0009 13.9367 22.0009 15.3418V15.9458C22.0009 16.6458 21.3614 17.1513 20.7188 16.9593L3.46133 11.8042C2.54024 11.5291 1.93195 10.612 2.00712 9.61186L2.34911 5.06115C2.40128 4.36691 3.07051 3.9156 3.69545 4.15321L4.24334 4.36152C4.9149 4.61686 5.40686 5.22601 5.53593 5.96203L5.79038 7.41311C5.85911 7.80506 6.13302 8.12288 6.49825 8.23446L8.12862 8.73254Z" fill="currentColor" />
    <path fill-rule="evenodd" clip-rule="evenodd" d="M8.12862 8.73254C8.87615 8.96092 9.57737 8.25151 9.38545 7.46105L8.6216 4.31504C8.43299 3.53823 9.10849 2.83396 9.84922 3.03513L10.2088 3.13276C11.5009 3.48367 12.6069 4.35806 13.2832 5.56345L16.4959 11.2888L19.8276 12.3066C21.1154 12.7001 22.0009 13.9367 22.0009 15.3418V15.9458C22.0009 16.6458 21.3614 17.1513 20.7188 16.9593L3.46133 11.8042C2.54024 11.5291 1.93195 10.612 2.00712 9.61186L2.34911 5.06115C2.40128 4.36691 3.07051 3.9156 3.69545 4.15321L4.24334 4.36152C4.9149 4.61686 5.40686 5.22601 5.53593 5.96203L5.79038 7.41311C5.85911 7.80506 6.13302 8.12288 6.49825 8.23446L8.12862 8.73254Z" stroke="currentColor" stroke-width="2" stroke-linecap="round" stroke-linejoin="round" />
    <path d="M21.0009 21.0005L3.00085 21.0005" stroke="currentColor" stroke-width="2" stroke-linecap="round" stroke-linejoin="round" />
</svg>