<svg xmlns="http://www.w3.org/2000/svg" width="24" height="24" viewBox="0 0 24 24" fill="none">
    <path opacity="0.4" d="M3 11V6C3 4.89543 3.89543 4 5 4H19C20.1046 4 21 4.89543 21 6V11C21 15.9706 16.9706 20 12 20C7.02944 20 3 15.9706 3 11Z" fill="currentColor" />
    <path d="M3 11V6C3 4.89543 3.89543 4 5 4H19C20.1046 4 21 4.89543 21 6V11C21 15.9706 16.9706 20 12 20C7.02944 20 3 15.9706 3 11Z" stroke="currentColor" stroke-width="2" stroke-linecap="round" stroke-linejoin="round" />
    <path d="M9 10L12 13L15 10" stroke="currentColor" stroke-width="2" stroke-linecap="round" stroke-linejoin="round" />
</svg>