<svg xmlns="http://www.w3.org/2000/svg" width="24" height="24" viewBox="0 0 24 24" fill="none">
    <path opacity="0.4" d="M20 18H6C4.89543 18 4 18.8954 4 20V4C4 2.89543 4.89543 2 6 2H20V18Z" fill="currentColor" />
    <path d="M15 11.4343C14.4347 12.3725 13.406 13 12.2308 13C10.4465 13 9 11.5535 9 9.76923C9 8.594 9.6275 7.56534 10.5657 7" stroke="currentColor" stroke-width="2" stroke-linecap="round" stroke-linejoin="round" />
    <path d="M14.125 8H14M14.25 8C14.25 8.13807 14.1381 8.25 14 8.25C13.8619 8.25 13.75 8.13807 13.75 8C13.75 7.86193 13.8619 7.75 14 7.75C14.1381 7.75 14.25 7.86193 14.25 8Z" stroke="currentColor" stroke-width="2" stroke-linecap="round" stroke-linejoin="round" />
    <path d="M20 22H6C4.89543 22 4 21.1046 4 20M4 20C4 18.8954 4.89543 18 6 18H20V2H6C4.89543 2 4 2.89543 4 4V20ZM19.5 18C19.5 18 18.5 18.7628 18.5 20C18.5 21.2372 19.5 22 19.5 22" stroke="currentColor" stroke-width="2" stroke-linecap="round" stroke-linejoin="round" />
</svg>