<svg xmlns="http://www.w3.org/2000/svg" width="24" height="24" viewBox="0 0 24 24" fill="none">
    <path opacity="0.4" d="M10.5 10.6768C10.1888 11.0293 10 11.4924 10 11.9997C10 13.1042 10.8954 13.9997 12 13.9997C12.5072 13.9997 12.9703 13.8109 13.3229 13.4997L10.5 10.6768Z" fill="currentColor" />
    <path d="M10.5 10.6768C10.1888 11.0293 10 11.4924 10 11.9997C10 13.1042 10.8954 13.9997 12 13.9997C12.5072 13.9997 12.9703 13.8109 13.3229 13.4997" stroke="currentColor" stroke-width="2" stroke-linecap="round" stroke-linejoin="round" />
    <path d="M2 2L22 22" stroke="currentColor" stroke-width="2" stroke-linecap="round" stroke-linejoin="round" />
    <path d="M7.5 8C6.5 9 6 10.5 6 12C6 13.5 6.5 15 7.5 16" stroke="currentColor" stroke-width="2" stroke-linecap="round" stroke-linejoin="round" />
    <path d="M4.5 6C3 7.5 2 9.5 2 12C2 14.5 3 16.5 4.5 18" stroke="currentColor" stroke-width="2" stroke-linecap="round" stroke-linejoin="round" />
    <path d="M17.829 13.5C17.943 13.0128 18 12.5064 18 12C18 10.5 17.5 9 16.5 8" stroke="currentColor" stroke-width="2" stroke-linecap="round" stroke-linejoin="round" />
    <path d="M21 16.0117C21.629 14.86 22 13.5227 22 12C22 9.5 21 7.5 19.5 6" stroke="currentColor" stroke-width="2" stroke-linecap="round" stroke-linejoin="round" />
</svg>