<svg xmlns="http://www.w3.org/2000/svg" width="24" height="24" viewBox="0 0 24 24" fill="none">
    <path opacity="0.4" d="M9.5 2L12 3.5L14.5 2L17 3.5L20 2V22L17 20.5L14.5 22L12 20.5L9.5 22L7 20.5L4 22V2L7 3.5L9.5 2Z" fill="currentColor" />
    <path d="M9 8C9.2 8.9167 10.08 10.5 12 11.5M12 11.5C13.92 10.5 14.8 8.9167 15 8M12 11.5V17.0002M14.5 13.6827H9.5" stroke="currentColor" stroke-width="2" stroke-linecap="round" stroke-linejoin="round" />
    <path d="M9.5 2L12 3.5L14.5 2L17 3.5L20 2V22L17 20.5L14.5 22L12 20.5L9.5 22L7 20.5L4 22V2L7 3.5L9.5 2Z" stroke="currentColor" stroke-width="2" stroke-linecap="round" stroke-linejoin="round" />
</svg>