<svg xmlns="http://www.w3.org/2000/svg" width="24" height="24" viewBox="0 0 24 24" fill="none">
    <circle opacity="0.4" cx="12.0004" cy="12" r="10" fill="currentColor" />
    <path d="M19.9991 2.5L20.0011 6C18.1767 3.57111 15.272 2 12.0004 2C6.47752 2 2.00037 6.47715 2.00037 12C2.00037 15.9582 4.30007 19.3793 7.63624 21" stroke="currentColor" stroke-width="2" stroke-linecap="round" stroke-linejoin="round" />
    <path d="M12.363 22C11.9008 22 11.4459 21.9695 11.0004 21.9106M21.7377 9C21.8489 9.38726 21.9362 9.77865 22.0004 10.1722M21.9661 13.7496C21.8965 14.1396 21.8059 14.5258 21.6949 14.9063M20.1858 18.0963C19.9498 18.4409 19.6941 18.7726 19.4193 19.0892M16.6261 21.3767C16.2759 21.574 15.9115 21.7526 15.5334 21.9106" stroke="currentColor" stroke-width="2" stroke-linecap="round" stroke-linejoin="round" />
</svg>