<svg xmlns="http://www.w3.org/2000/svg" width="24" height="24" viewBox="0 0 24 24" fill="none">
    <path d="M4.00159 2.5L3.99963 6C5.82405 3.57111 8.72873 2 12.0004 2C17.5232 2 22.0004 6.47715 22.0004 12C22.0004 15.9582 19.7007 19.3793 16.3645 21" stroke="currentColor" stroke-width="2" stroke-linecap="round" stroke-linejoin="round" />
    <path d="M11.637 22C12.0992 22 12.5541 21.9695 12.9996 21.9106M2.26235 9C2.15107 9.38726 2.06375 9.77865 1.99963 10.1722M2.03386 13.7496C2.10345 14.1396 2.19411 14.5258 2.30507 14.9063M3.81422 18.0963C4.05016 18.4409 4.30593 18.7726 4.58066 19.0892M7.37391 21.3767C7.72409 21.574 8.08855 21.7526 8.46659 21.9106" stroke="currentColor" stroke-width="2" stroke-linecap="round" stroke-linejoin="round" />
    <circle opacity="0.4" cx="11.9996" cy="12" r="10" fill="currentColor" />
</svg>