<svg xmlns="http://www.w3.org/2000/svg" width="24" height="24" viewBox="0 0 24 24" fill="none">
    <path opacity="0.4" d="M3 6C6.84197 6 10.3462 7.44489 13 9.82031V11C13 11.5523 13.4477 12 14 12H15.001C16.8841 14.507 18 17.6232 18 21H3V6Z" fill="currentColor" />
    <path d="M18 21C18 19.2468 17.6992 17.5639 17.1465 16M3 6C5.13331 6 7.16261 6.44534 9 7.24813" stroke="currentColor" stroke-width="2" stroke-linecap="round" stroke-linejoin="round" />
    <path d="M11 21C11 16.5817 7.41828 13 3 13" stroke="currentColor" stroke-width="2" stroke-linecap="round" stroke-linejoin="round" />
    <path d="M3.75 20.5H3.5M4 20.5C4 20.7761 3.77614 21 3.5 21C3.22386 21 3 20.7761 3 20.5C3 20.2239 3.22386 20 3.5 20C3.77614 20 4 20.2239 4 20.5Z" stroke="currentColor" stroke-width="2" stroke-linecap="round" stroke-linejoin="round" />
    <path d="M13 8V11C13 11.5523 13.4477 12 14 12H20C20.5523 12 21 11.5523 21 11V8C21 7.44772 20.5523 7 20 7H14C13.4477 7 13 7.44772 13 8Z" stroke="currentColor" stroke-width="2" stroke-linecap="round" stroke-linejoin="round" />
    <path d="M15 7V5C15 3.89543 15.8954 3 17 3C17.5973 3 18.1335 3.26188 18.5 3.67709" stroke="currentColor" stroke-width="2" stroke-linecap="round" stroke-linejoin="round" />
</svg>