<svg xmlns="http://www.w3.org/2000/svg" width="24" height="24" viewBox="0 0 24 24" fill="none">
    <path opacity="0.4" d="M2 13C2 12.4477 2.44772 12 3 12H21C21.5523 12 22 12.4477 22 13V19C22 19.5523 21.5523 20 21 20H3C2.44772 20 2 19.5523 2 19V13Z" fill="currentColor" />
    <path d="M2 13C2 12.4477 2.44772 12 3 12H21C21.5523 12 22 12.4477 22 13V19C22 19.5523 21.5523 20 21 20H3C2.44772 20 2 19.5523 2 19V13Z" stroke="currentColor" stroke-width="2" stroke-linejoin="round" />
    <path d="M6 12V14" stroke="currentColor" stroke-width="2" stroke-linecap="round" stroke-linejoin="round" />
    <path d="M10 12V14" stroke="currentColor" stroke-width="2" stroke-linecap="round" stroke-linejoin="round" />
    <path d="M14 12V14" stroke="currentColor" stroke-width="2" stroke-linecap="round" stroke-linejoin="round" />
    <path d="M18 12V14" stroke="currentColor" stroke-width="2" stroke-linecap="round" stroke-linejoin="round" />
    <path d="M4 4L2 6L4 8" stroke="currentColor" stroke-width="2" stroke-linecap="round" stroke-linejoin="round" />
    <path d="M20 4L22 6L20 8" stroke="currentColor" stroke-width="2" stroke-linecap="round" stroke-linejoin="round" />
    <path d="M2.5 6H21.5" stroke="currentColor" stroke-width="2" stroke-linecap="round" stroke-linejoin="round" />
</svg>