<svg xmlns="http://www.w3.org/2000/svg" width="24" height="24" viewBox="0 0 24 24" fill="none">
    <path opacity="0.4" d="M21 5C18.8786 3.17002 15.6351 2 12 2C8.36494 2 5.12137 3.17002 3 5V11C3 19 12 22 12 22C12 22 21 19 21 11L21 5Z" fill="currentColor" />
    <path d="M21 5C18.8786 3.17002 15.6351 2 12 2C8.36494 2 5.12137 3.17002 3 5V11C3 19 12 22 12 22C12 22 21 19 21 11L21 5Z" stroke="currentColor" stroke-width="2" stroke-linecap="round" stroke-linejoin="round" />
    <path d="M9 10H16" stroke="currentColor" stroke-width="2" stroke-linecap="round" stroke-linejoin="round" />
    <path d="M9 7H16" stroke="currentColor" stroke-width="2" stroke-linecap="round" stroke-linejoin="round" />
    <path d="M9 7H11C12.6569 7 14 8.34315 14 10C14 11.6569 12.6569 13 11 13H9L14 17" stroke="currentColor" stroke-width="2" stroke-linecap="round" stroke-linejoin="round" />
</svg>