<svg xmlns="http://www.w3.org/2000/svg" width="24" height="24" viewBox="0 0 24 24" fill="none">
    <path opacity="0.4" d="M2.50035 13.5819C2.47837 17.9768 6.0234 21.5219 10.4184 21.4999C12.5873 21.4891 14.5578 20.6116 16.0002 19.1972L4.803 8C3.38868 9.44243 2.51119 11.413 2.50035 13.5819Z" fill="currentColor" />
    <path d="M2.5001 13.5819C2.47812 17.9768 6.02315 21.5219 10.4181 21.4999C12.587 21.4891 14.5576 20.6116 16 19.1972L4.80276 8C3.38844 9.44243 2.51095 11.413 2.5001 13.5819Z" stroke="currentColor" stroke-width="2" stroke-linejoin="round" />
    <path d="M13.5 6C15.9853 6 18 8.01472 18 10.5" stroke="currentColor" stroke-width="2" stroke-linecap="round" />
    <path d="M13.5 2.5C17.9183 2.5 21.5 6.08172 21.5 10.5" stroke="currentColor" stroke-width="2" stroke-linecap="round" />
    <path d="M13.501 10.5L10.4023 13.5995" stroke="currentColor" stroke-width="2" stroke-linecap="round" />
</svg>