<svg xmlns="http://www.w3.org/2000/svg" width="24" height="24" viewBox="0 0 24 24" fill="none">
    <g opacity="0.4">
        <path d="M3 18.9999V4.99991C3 4.44762 3.22386 3.94762 3.58579 3.58569L13 12.9999H8.5C7.67157 12.9999 7 13.6715 7 14.4999V20.9999H5C3.89543 20.9999 3 20.1045 3 18.9999Z" fill="currentColor" />
        <path d="M19 20.9999H17V16.9999L20.4142 20.4141C20.0523 20.776 19.5523 20.9999 19 20.9999Z" fill="currentColor" />
    </g>
    <path d="M3.58579 3.58579C3.22386 3.94772 3 4.44772 3 5V19C3 20.1046 3.89543 21 5 21H19C19.5523 21 20.0523 20.7761 20.4142 20.4142M7 3H17.1716C17.702 3 18.2107 3.21071 18.5858 3.58579L20.4142 5.41421C20.7893 5.78929 21 6.29799 21 6.82843V17" stroke="currentColor" stroke-width="2" stroke-linecap="round" stroke-linejoin="round" />
    <path d="M17 3V6.5C17 7.32843 16.3284 8 15.5 8H12" stroke="currentColor" stroke-width="2" stroke-linecap="round" stroke-linejoin="round" />
    <path d="M17 21V17M7 21V14.5C7 13.6716 7.67157 13 8.5 13H13" stroke="currentColor" stroke-width="2" stroke-linecap="round" stroke-linejoin="round" />
    <path d="M2 2L22 22" stroke="currentColor" stroke-width="2" stroke-linecap="round" stroke-linejoin="round" />
</svg>