<svg xmlns="http://www.w3.org/2000/svg" width="24" height="24" viewBox="0 0 24 24" fill="none">
    <path opacity="0.4" d="M2.49936 4.5C2.49936 3.39543 3.39479 2.5 4.49936 2.5H19.4994C20.6039 2.5 21.4994 3.39543 21.4994 4.5V19.5C21.4994 20.6046 20.6039 21.5 19.4994 21.5H4.49936C3.39479 21.5 2.49936 20.6046 2.49936 19.5V4.5Z" fill="currentColor" />
    <path d="M15.1673 2.5H21.5007V8.83333" stroke="currentColor" stroke-width="2" stroke-linecap="round" stroke-linejoin="round" />
    <path d="M14.1079 16.2227H7.77461V9.88932" stroke="currentColor" stroke-width="2" stroke-linecap="round" stroke-linejoin="round" />
    <path d="M7.77332 15.1637C7.48043 15.4566 7.48043 15.9314 7.77332 16.2243C8.06621 16.5172 8.54109 16.5172 8.83398 16.2243L8.30365 15.694L7.77332 15.1637ZM21.5006 3.55767C21.7935 3.26478 21.7935 2.78991 21.5006 2.49701C21.2078 2.20412 20.7329 2.20412 20.44 2.49701L20.9703 3.02734L21.5006 3.55767ZM8.30365 15.694L8.83398 16.2243L21.5006 3.55767L20.9703 3.02734L20.44 2.49701L7.77332 15.1637L8.30365 15.694Z" fill="currentColor" />
    <path d="M21.4941 14.1111V19.3889C21.4941 20.5548 20.5492 21.5 19.3836 21.5H4.60989C3.44428 21.5 2.49936 20.5548 2.49936 19.3889V4.61111C2.49936 3.44518 3.44428 2.5 4.60989 2.5H9.88622" stroke="currentColor" stroke-width="2" stroke-linecap="round" stroke-linejoin="round" />
</svg>