<svg xmlns="http://www.w3.org/2000/svg" width="24" height="24" viewBox="0 0 24 24" fill="none">
    <path d="M8.50061 13C9.29872 14.2144 10.5694 15 12.0006 15C13.4318 15 14.7025 14.2144 15.5006 13" stroke="currentColor" stroke-width="2" stroke-linecap="round" stroke-linejoin="round" />
    <path d="M9.12561 9H9.00061M9.25061 9C9.25061 9.13807 9.13868 9.25 9.00061 9.25C8.86254 9.25 8.75061 9.13807 8.75061 9C8.75061 8.86193 8.86254 8.75 9.00061 8.75C9.13868 8.75 9.25061 8.86193 9.25061 9Z" stroke="currentColor" stroke-width="2" stroke-linecap="round" />
    <path d="M15.1256 9H15.0006M15.2506 9C15.2506 9.13807 15.1387 9.25 15.0006 9.25C14.8625 9.25 14.7506 9.13807 14.7506 9C14.7506 8.86193 14.8625 8.75 15.0006 8.75C15.1387 8.75 15.2506 8.86193 15.2506 9Z" stroke="currentColor" stroke-width="2" stroke-linecap="round" />
    <path d="M15.0006 2.5H19.5006C20.6052 2.5 21.5006 3.39543 21.5006 4.5V9M9.00061 2.5H4.50061C3.39604 2.5 2.50061 3.39543 2.50061 4.5V9M9.00061 21.5H4.50061C3.39604 21.5 2.50061 20.6046 2.50061 19.5V15M15.0006 21.5H19.5006C20.6052 21.5 21.5006 20.6046 21.5006 19.5V15" stroke="currentColor" stroke-width="2" stroke-linecap="round" stroke-linejoin="round" />
</svg>