<svg xmlns="http://www.w3.org/2000/svg" width="24" height="24" viewBox="0 0 24 24" fill="none">
    <path opacity="0.4" fill-rule="evenodd" clip-rule="evenodd" d="M12 7C16.2264 7 18.3341 10.4905 18.9131 11.6387C19.029 11.8685 19.029 12.1315 18.9131 12.3613C18.3341 13.5095 16.2264 17 12 17C7.77361 17 5.66588 13.5095 5.08691 12.3613C4.97103 12.1315 4.97103 11.8685 5.08691 11.6387C5.66588 10.4905 7.77361 7 12 7ZM12 10C10.8954 10 9.99999 10.8954 9.99999 12C9.99999 13.1046 10.8954 14 12 14C13.1046 14 14 13.1046 14 12C14 10.8954 13.1046 10 12 10Z" fill="currentColor" />
    <path d="M12 17C16.2266 17 18.3342 13.5091 18.9131 12.3611C19.0289 12.1313 19.0289 11.8687 18.9131 11.6389C18.3342 10.4909 16.2266 7 12 7C7.77335 7 5.66571 10.4909 5.08688 11.6389C4.971 11.8687 4.971 12.1313 5.08688 12.3611C5.66571 13.5091 7.77335 17 12 17Z" stroke="currentColor" stroke-width="2" stroke-linecap="round" stroke-linejoin="round" />
    <circle cx="12" cy="12" r="2" stroke="currentColor" stroke-width="2" stroke-linecap="round" stroke-linejoin="round" />
    <path d="M16.5 2.5H19.5C20.6046 2.5 21.5 3.39543 21.5 4.5V7.5M7.5 2.5H4.5C3.39543 2.5 2.5 3.39543 2.5 4.5V7.5M7.5 21.5H4.5C3.39543 21.5 2.5 20.6046 2.5 19.5V16.5M16.5 21.5H19.5C20.6046 21.5 21.5 20.6046 21.5 19.5V16.5" stroke="currentColor" stroke-width="2" stroke-linecap="round" stroke-linejoin="round" />
</svg>