<svg xmlns="http://www.w3.org/2000/svg" width="24" height="24" viewBox="0 0 24 24" fill="none">
    <g opacity="0.4">
        <path d="M14 9.5C14 10.6046 13.1046 11.5 12 11.5C10.8954 11.5 10 10.6046 10 9.5C10 8.39543 10.8954 7.5 12 7.5C13.1046 7.5 14 8.39543 14 9.5Z" fill="currentColor" />
        <path d="M21.4472 13.2236L18 11.5V21.5H20C21.1046 21.5 22 20.6046 22 19.5V14.118C22 13.7393 21.786 13.393 21.4472 13.2236Z" fill="currentColor" />
        <path d="M2.55279 13.2236L6 11.5V21.5H4C2.89543 21.5 2 20.6046 2 19.5V14.118C2 13.7393 2.214 13.393 2.55279 13.2236Z" fill="currentColor" />
        <path d="M10 17.5V21.5H14V17.5C14 16.3954 13.1046 15.5 12 15.5C10.8954 15.5 10 16.3954 10 17.5Z" fill="currentColor" />
    </g>
    <path d="M20 7.5L12.916 2.77735C12.6448 2.5965 12.326 2.5 12 2.5C11.674 2.5 11.3552 2.5965 11.084 2.77735L4 7.5" stroke="currentColor" stroke-width="2" stroke-linecap="round" stroke-linejoin="round" />
    <path d="M18 6.5V21.5H6V6.5" stroke="currentColor" stroke-width="2" stroke-linecap="round" stroke-linejoin="round" />
    <path d="M14 9.5C14 10.6046 13.1046 11.5 12 11.5C10.8954 11.5 10 10.6046 10 9.5C10 8.39543 10.8954 7.5 12 7.5C13.1046 7.5 14 8.39543 14 9.5Z" stroke="currentColor" stroke-width="2" stroke-linecap="round" stroke-linejoin="round" />
    <path d="M21.4472 13.2236L18 11.5V21.5H20C21.1046 21.5 22 20.6046 22 19.5V14.118C22 13.7393 21.786 13.393 21.4472 13.2236Z" stroke="currentColor" stroke-width="2" stroke-linecap="round" stroke-linejoin="round" />
    <path d="M2.55279 13.2236L6 11.5V21.5H4C2.89543 21.5 2 20.6046 2 19.5V14.118C2 13.7393 2.214 13.393 2.55279 13.2236Z" stroke="currentColor" stroke-width="2" stroke-linecap="round" stroke-linejoin="round" />
    <path d="M10 21.5V17.5C10 16.3954 10.8954 15.5 12 15.5C13.1046 15.5 14 16.3954 14 17.5V21.5" stroke="currentColor" stroke-width="2" stroke-linecap="round" stroke-linejoin="round" />
</svg>