<svg xmlns="http://www.w3.org/2000/svg" width="24" height="24" viewBox="0 0 24 24" fill="none">
    <path opacity="0.4" d="M6 20V4C6 3.44772 6.44772 3 7 3H18C18.5523 3 19 3.44772 19 4V15C19 15.5523 18.5523 16 18 16H11C10.4477 16 10 16.4477 10 17V20C10 20.5523 9.55228 21 9 21H7C6.44772 21 6 20.5523 6 20Z" fill="currentColor" />
    <path d="M6 9H3C2.44772 9 2 8.55228 2 8V5C2 3.89543 2.89543 3 4 3C5.10457 3 6 3.89543 6 5V9Z" stroke="currentColor" stroke-width="2" stroke-linecap="round" stroke-linejoin="round" />
    <path d="M6 9V19C6 20.1046 6.89543 21 8 21M8 21H20C21.1046 21 22 20.1046 22 19V17C22 16.4477 21.5523 16 21 16H11C10.4477 16 10 16.4477 10 17V19C10 20.1046 9.10457 21 8 21Z" stroke="currentColor" stroke-width="2" stroke-linecap="round" stroke-linejoin="round" />
    <path d="M4 3H17C18.1046 3 19 3.89543 19 5V16" stroke="currentColor" stroke-width="2" stroke-linecap="round" stroke-linejoin="round" />
    <path d="M10 8H15" stroke="currentColor" stroke-width="2" stroke-linecap="round" stroke-linejoin="round" />
    <path d="M10 11H13" stroke="currentColor" stroke-width="2" stroke-linecap="round" stroke-linejoin="round" />
</svg>