<svg xmlns="http://www.w3.org/2000/svg" width="24" height="24" viewBox="0 0 24 24" fill="none">
    <path d="M18 12H21C21.5523 12 22 11.4777 22 10.8333V5.16667C22 4.52233 21.5523 4 21 4H3C2.44772 4 2 4.52233 2 5.16667V10.8333C2 11.4777 2.44772 12 3 12H6" stroke="currentColor" stroke-width="2" stroke-linecap="round" stroke-linejoin="round" />
    <path d="M12.5787 8.5L10.5 12H13.5003L11.4219 15.5" stroke="currentColor" stroke-width="2" stroke-linecap="round" stroke-linejoin="round" />
    <path opacity="0.4" d="M21 4H3C2.44772 4 2 4.52233 2 5.16667V10.8333C2 11.4777 2.44772 12 3 12H21C21.5523 12 22 11.4777 22 10.8333V5.16667C22 4.52233 21.5523 4 21 4Z" fill="currentColor" />
    <path opacity="0.4" d="M21 12H3C2.44772 12 2 12.5223 2 13.1667L2 18.8333C2 19.4777 2.44772 20 3 20H21C21.5523 20 22 19.4777 22 18.8333V13.1667C22 12.5223 21.5523 12 21 12Z" fill="currentColor" />
    <path d="M18 12H21C21.5523 12 22 12.5223 22 13.1667V18.8333C22 19.4777 21.5523 20 21 20H3C2.44772 20 2 19.4777 2 18.8333L2 13.1667C2 12.5223 2.44772 12 3 12H6" stroke="currentColor" stroke-width="2" stroke-linecap="round" stroke-linejoin="round" />
    <path d="M6.125 7.75H6M6.25 7.75C6.25 7.88807 6.13807 8 6 8C5.86193 8 5.75 7.88807 5.75 7.75C5.75 7.61193 5.86193 7.5 6 7.5C6.13807 7.5 6.25 7.61193 6.25 7.75Z" stroke="currentColor" stroke-width="2" stroke-linecap="round" stroke-linejoin="round" />
    <path d="M6.125 15.75H6M6.25 15.75C6.25 15.8881 6.13807 16 6 16C5.86193 16 5.75 15.8881 5.75 15.75C5.75 15.6119 5.86193 15.5 6 15.5C6.13807 15.5 6.25 15.6119 6.25 15.75Z" stroke="currentColor" stroke-width="2" stroke-linecap="round" stroke-linejoin="round" />
</svg>