<svg xmlns="http://www.w3.org/2000/svg" width="24" height="24" viewBox="0 0 24 24" fill="none">
    <path opacity="0.4" fill-rule="evenodd" clip-rule="evenodd" d="M21 6.12325V11.0511C21 17.4795 14.4624 20.9859 12.5311 21.8815C12.1903 22.0395 11.8097 22.0395 11.4689 21.8815C9.53762 20.9859 3 17.4795 3 11.0511V6.12325C3 5.34825 3.58552 4.70502 4.34489 4.57302C7.40502 4.04108 9.94542 2.85772 11.1848 2.20154C11.6923 1.93282 12.3077 1.93282 12.8152 2.20154C14.0546 2.85772 16.595 4.04108 19.6551 4.57302C20.4145 4.70502 21 5.34825 21 6.12325ZM13.5 11.5C13.5 12.3284 12.8284 13 12 13C11.1716 13 10.5 12.3284 10.5 11.5C10.5 10.6716 11.1716 10 12 10C12.8284 10 13.5 10.6716 13.5 11.5Z" fill="currentColor" />
    <path d="M21 11.0511V6.12325C21 5.34825 20.4145 4.70502 19.6551 4.57302C16.595 4.04108 14.0546 2.85772 12.8152 2.20154C12.3077 1.93282 11.6923 1.93282 11.1848 2.20154C9.94542 2.85772 7.40502 4.04108 4.34489 4.57302C3.58552 4.70502 3 5.34825 3 6.12325V11.0511C3 17.4795 9.53762 20.9859 11.4689 21.8815C11.8097 22.0395 12.1903 22.0395 12.5311 21.8815C14.4624 20.9859 21 17.4795 21 11.0511Z" stroke="currentColor" stroke-width="2" stroke-linecap="round" />
    <path d="M12 13.5L12 15M12 13.5C12.737 13.5 13.3809 13.1013 13.7278 12.5079M12 13.5C11.263 13.5 10.6191 13.1013 10.2722 12.5079M12 9.5L12 8M12 9.5C12.737 9.5 13.3809 9.89866 13.7278 10.4921M10.2722 12.5079C10.0991 12.212 10 11.8676 10 11.5C10 11.1324 10.0992 10.788 10.2722 10.4921C10.6191 9.89865 11.263 9.5 12 9.5M15 9.75L13.7278 10.4921M9 13.25L10.2722 12.5079M15 13.25L13.7278 12.5079M9 9.75L10.2722 10.4921M13.7278 12.5079C13.9009 12.2119 14 11.8676 14 11.5C14 11.1324 13.9009 10.788 13.7278 10.4921" stroke="currentColor" stroke-width="2" stroke-linecap="round" stroke-linejoin="round" />
</svg>