<svg xmlns="http://www.w3.org/2000/svg" width="24" height="24" viewBox="0 0 24 24" fill="none">
    <path opacity="0.4" d="M21 11.0511V6.12325C21 5.34825 20.4145 4.70502 19.6551 4.57302C16.595 4.04108 14.0546 2.85772 12.8152 2.20154C12.3077 1.93282 11.6923 1.93282 11.1848 2.20154C9.94542 2.85772 7.40502 4.04108 4.34489 4.57302C3.58552 4.70502 3 5.34825 3 6.12325V11.0511C3 17.4795 9.53762 20.9859 11.4689 21.8815C11.8097 22.0395 12.1903 22.0395 12.5311 21.8815C14.4624 20.9859 21 17.4795 21 11.0511Z" fill="currentColor" />
    <path d="M21 11.0511V6.12325C21 5.34825 20.4145 4.70502 19.6551 4.57302C16.595 4.04108 14.0546 2.85772 12.8152 2.20154C12.3077 1.93282 11.6923 1.93282 11.1848 2.20154C9.94542 2.85772 7.40502 4.04108 4.34489 4.57302C3.58552 4.70502 3 5.34825 3 6.12325V11.0511C3 17.4795 9.53762 20.9859 11.4689 21.8815C11.8097 22.0395 12.1903 22.0395 12.5311 21.8815C14.4624 20.9859 21 17.4795 21 11.0511Z" stroke="currentColor" stroke-width="2" stroke-linecap="round" />
    <path d="M12 8L12 12" stroke="currentColor" stroke-width="2" stroke-linecap="round" stroke-linejoin="round" />
    <path d="M12.125 15.75L12 15.75M12.25 15.75C12.25 15.8881 12.1381 16 12 16C11.8619 16 11.75 15.8881 11.75 15.75C11.75 15.6119 11.8619 15.5 12 15.5C12.1381 15.5 12.25 15.6119 12.25 15.75Z" stroke="currentColor" stroke-width="2" stroke-linecap="round" stroke-linejoin="round" />
</svg>