<svg xmlns="http://www.w3.org/2000/svg" width="24" height="24" viewBox="0 0 24 24" fill="none">
    <path d="M9 3.21697C9.91825 2.84374 10.6656 2.47639 11.1848 2.20154C11.6923 1.93282 12.3077 1.93282 12.8152 2.20154C14.0546 2.85772 16.595 4.04108 19.6551 4.57302C20.4145 4.70502 21 5.34825 21 6.12325V11.0511C21 12.1302 20.8158 13.1271 20.5 14.043" stroke="currentColor" stroke-width="2" stroke-linecap="round" />
    <path d="M18 18.0292C16.013 20.1253 13.5855 21.3925 12.5311 21.8815C12.1903 22.0395 11.8097 22.0395 11.4689 21.8815C9.53762 20.9859 3 17.4795 3 11.0511V6.12323C3 5.34823 3.58552 4.705 4.34489 4.573" stroke="currentColor" stroke-width="2" stroke-linecap="round" />
    <path opacity="0.4" d="M12.5311 21.8817C13.5855 21.3928 16.013 20.1255 18 18.0294L4.34489 4.57324C3.58552 4.70524 3 5.34847 3 6.12347V11.0513C3 17.4798 9.53762 20.9861 11.4689 21.8817C11.8097 22.0397 12.1903 22.0397 12.5311 21.8817Z" fill="currentColor" />
    <path d="M2 2L22 22" stroke="currentColor" stroke-width="2" stroke-linecap="round" />
</svg>