<svg xmlns="http://www.w3.org/2000/svg" width="24" height="24" viewBox="0 0 24 24" fill="none">
    <path opacity="0.4" d="M5.68629 21.5H3.5C2.94772 21.5 2.5 21.0523 2.5 20.5V18.3137C2.5 16.192 3.34285 14.1571 4.84315 12.6569L6.64645 10.8536C6.87282 10.6272 7.17986 10.5 7.5 10.5C7.82014 10.5 8.12718 10.6272 8.35355 10.8536L13.1464 15.6464C13.3728 15.8728 13.5 16.1799 13.5 16.5C13.5 16.8201 13.3728 17.1272 13.1464 17.3536L11.3431 19.1569C9.84285 20.6571 7.80802 21.5 5.68629 21.5Z" fill="currentColor" />
    <path d="M16.4998 4.41421V7.5L19.5856 7.50047C19.8508 7.50051 20.1053 7.39515 20.2928 7.20758L21.3231 6.17732C21.4363 6.06413 21.4999 5.9106 21.4999 5.75052C21.4999 5.59046 21.4363 5.43695 21.3231 5.32376L18.6766 2.6768C18.5634 2.5636 18.4099 2.5 18.2498 2.5C18.0898 2.5 17.9363 2.56358 17.8231 2.67677L16.7927 3.70711C16.6052 3.89464 16.4998 4.149 16.4998 4.41421Z" stroke="currentColor" stroke-width="2" stroke-linecap="round" stroke-linejoin="round" />
    <path d="M16.5 7.5L8.5 15.5" stroke="currentColor" stroke-width="2" stroke-linecap="round" stroke-linejoin="round" />
    <path d="M5.68629 21.5H3.5C2.94772 21.5 2.5 21.0523 2.5 20.5V18.3137C2.5 16.192 3.34285 14.1571 4.84315 12.6569L6.64645 10.8536C6.87282 10.6272 7.17986 10.5 7.5 10.5C7.82014 10.5 8.12718 10.6272 8.35355 10.8536L13.1464 15.6464C13.3728 15.8728 13.5 16.1799 13.5 16.5C13.5 16.8201 13.3728 17.1272 13.1464 17.3536L11.3431 19.1569C9.84285 20.6571 7.80802 21.5 5.68629 21.5Z" stroke="currentColor" stroke-width="2" stroke-linecap="round" stroke-linejoin="round" />
</svg>