<svg xmlns="http://www.w3.org/2000/svg" width="24" height="24" viewBox="0 0 24 24" fill="none">
    <path opacity="0.4" d="M10.5 22C15.1944 22 19 17.6944 19 13C17 13 14.75 14.842 14.75 16.9H10.5C9.09167 16.9 7.95 15.7583 7.95 14.35C7.95 12.9417 9.09167 11.8 10.5 11.8V5C5.80558 5 2 8.80558 2 13.5C2 18.1944 5.80558 22 10.5 22Z" fill="currentColor" />
    <path d="M10.5 4.99988C5.80558 4.99988 2 8.80546 2 13.4999C2 18.1943 5.80558 21.9999 10.5 21.9999C15.1944 21.9999 19 17.6943 19 12.9999C17 12.9999 14.75 14.8418 14.75 16.8999M10.5 4.99988H19C19 10.4999 15.3747 11.7999 12.2 11.7999H10.5C9.09167 11.7999 7.95 12.9416 7.95 14.3499C7.95 15.7582 9.09167 16.8999 10.5 16.8999H14.75M10.5 4.99988V7.99988M14.75 16.8999V17.9999M5.4 20.2999L8.8 16.8999M3.275 9.24988L7.95 13.0749" stroke="currentColor" stroke-width="2" stroke-linecap="round" stroke-linejoin="round" />
    <path d="M14.009 7.99988L14 7.99988" stroke="currentColor" stroke-width="2" stroke-linecap="round" stroke-linejoin="round" />
    <path d="M9.5 1.99988L20.1608 1.99998C21.321 1.99998 22.1912 3.05105 21.9637 4.17762C21.6689 5.63724 20.3433 6.67829 18.9189 6.99998" stroke="currentColor" stroke-width="2" stroke-linecap="round" stroke-linejoin="round" />
</svg>