<svg xmlns="http://www.w3.org/2000/svg" width="24" height="24" viewBox="0 0 24 24" fill="none">
    <path opacity="0.4" d="M17.1638 8.67271C17.2744 8.24473 17.3333 7.79591 17.3333 7.33333C17.3333 4.38781 14.9455 2 12 2C9.05448 2 6.66667 4.38781 6.66667 7.33333C6.66667 7.79591 6.72556 8.24473 6.83625 8.67271C5.16161 9.44849 4 11.1441 4 13.1111C4 15.8112 6.18883 18 8.88889 18C11.3004 18 12.6996 18 15.1111 18C17.8112 18 20 15.8112 20 13.1111C20 11.1441 18.8384 9.44849 17.1638 8.67271Z" fill="currentColor" />
    <path d="M17.1638 8.67271C17.2744 8.24473 17.3333 7.79591 17.3333 7.33333C17.3333 4.38781 14.9455 2 12 2C9.05448 2 6.66667 4.38781 6.66667 7.33333C6.66667 7.79591 6.72556 8.24473 6.83625 8.67271C5.16161 9.44849 4 11.1441 4 13.1111C4 15.8112 6.18883 18 8.88889 18C11.3004 18 12.6996 18 15.1111 18C17.8112 18 20 15.8112 20 13.1111C20 11.1441 18.8384 9.44849 17.1638 8.67271Z" stroke="currentColor" stroke-width="2" stroke-linejoin="round" />
    <path d="M12 7.5V22" stroke="currentColor" stroke-width="2" stroke-linecap="round" stroke-linejoin="round" />
    <path d="M9.5 10L12 12.5" stroke="currentColor" stroke-width="2" stroke-linecap="round" stroke-linejoin="round" />
    <path d="M14.5 13L12 15.5" stroke="currentColor" stroke-width="2" stroke-linecap="round" stroke-linejoin="round" />
</svg>