<svg xmlns="http://www.w3.org/2000/svg" width="24" height="24" viewBox="0 0 24 24" fill="none">
    <path d="M11.9998 16.0001V21.0001" stroke="currentColor" stroke-width="2" stroke-linecap="round" stroke-linejoin="round" />
    <path d="M8.99977 21.0001H14.9998" stroke="currentColor" stroke-width="2" stroke-linecap="round" stroke-linejoin="round" />
    <path opacity="0.4" d="M16.6377 3.00012H8.99977C8.44749 3.00012 7.99977 3.44784 7.99977 4.00012V7.00012C7.99977 7.55241 8.44749 8.00012 8.99977 8.00012H16.6377C16.8717 8.00012 17.0982 7.91811 17.2779 7.76834L19.0779 6.26834C19.5577 5.86855 19.5577 5.1317 19.0779 4.7319L17.2779 3.2319C17.0982 3.08214 16.8717 3.00012 16.6377 3.00012Z" fill="currentColor" />
    <path opacity="0.4" d="M7.3619 11.0001H14.9992C15.5515 11.0001 15.9998 11.4478 15.9998 12.0001V15.0001C15.9998 15.5524 15.5521 16.0001 14.9998 16.0001H7.36182C7.12789 16.0001 6.90136 15.9181 6.72164 15.7683L4.92164 14.2683C4.44189 13.8685 4.44189 13.1317 4.92164 12.7319L6.72164 11.2319C6.90136 11.0821 7.12797 11.0001 7.3619 11.0001Z" fill="currentColor" />
    <path d="M16.6377 3.00012H8.99977C8.44749 3.00012 7.99977 3.44784 7.99977 4.00012V7.00012C7.99977 7.55241 8.44749 8.00012 8.99977 8.00012H16.6377C16.8717 8.00012 17.0982 7.91811 17.2779 7.76834L19.0779 6.26834C19.5577 5.86855 19.5577 5.1317 19.0779 4.7319L17.2779 3.2319C17.0982 3.08214 16.8717 3.00012 16.6377 3.00012Z" stroke="currentColor" stroke-width="2" stroke-linecap="round" stroke-linejoin="round" />
    <path d="M7.36235 11.0001H14.9997C15.5519 11.0001 16.0002 11.4478 16.0002 12.0001V15.0001C16.0002 15.5524 15.5525 16.0001 15.0002 16.0001H7.36228C7.12834 16.0001 6.90181 15.9181 6.72209 15.7683L4.92209 14.2683C4.44234 13.8685 4.44234 13.1317 4.92209 12.7319L6.72209 11.2319C6.90181 11.0821 7.12842 11.0001 7.36235 11.0001Z" stroke="currentColor" stroke-width="2" stroke-linecap="round" stroke-linejoin="round" />
    <path d="M11.9998 8.00012V11.0001" stroke="currentColor" stroke-width="2" stroke-linecap="round" stroke-linejoin="round" />
</svg>