<svg xmlns="http://www.w3.org/2000/svg" width="24" height="24" viewBox="0 0 24 24" fill="none">
    <path d="M4.99852 17V10C4.99852 6.13401 8.13252 3 11.9985 3C15.8645 3 18.9985 6.13401 18.9985 10V17" stroke="currentColor" stroke-width="2" stroke-linecap="round" stroke-linejoin="round" />
    <path d="M11.4985 6.5C9.84166 6.5 8.49852 7.84315 8.49852 9.5" stroke="currentColor" stroke-width="2" stroke-linecap="round" stroke-linejoin="round" />
    <path opacity="0.4" d="M2.99852 19C2.99852 17.8954 3.89395 17 4.99852 17H18.9985C20.1031 17 20.9985 17.8954 20.9985 19C20.9985 20.1046 20.1031 21 18.9985 21H4.99852C3.89395 21 2.99852 20.1046 2.99852 19Z" fill="currentColor" />
    <path d="M2.99852 19C2.99852 17.8954 3.89395 17 4.99852 17H18.9985C20.1031 17 20.9985 17.8954 20.9985 19C20.9985 20.1046 20.1031 21 18.9985 21H4.99852C3.89395 21 2.99852 20.1046 2.99852 19Z" stroke="currentColor" stroke-width="2" />
</svg>