<svg xmlns="http://www.w3.org/2000/svg" width="24" height="24" viewBox="0 0 24 24" fill="none">
    <path d="M9.74805 21L11.998 19L14.248 21M14.248 3L11.998 5L9.74805 3" stroke="currentColor" stroke-width="2" stroke-linecap="round" stroke-linejoin="round" />
    <path d="M18.6685 18.4489L18.0615 15.5003L20.9185 14.5518M5.33008 5.55176L5.93713 8.50031L3.08008 9.44887" stroke="currentColor" stroke-width="2" stroke-linecap="round" stroke-linejoin="round" />
    <path d="M5.33146 18.4489L5.93852 15.5003L3.08146 14.5518M18.6699 5.55176L18.0629 8.50031L20.9199 9.44887" stroke="currentColor" stroke-width="2" stroke-linecap="round" stroke-linejoin="round" />
    <path d="M15.4622 9.97929L17.998 8.5M11.9978 8.02089L11.9978 5M17.9978 15.5L15.462 14.0208M5.9983 15.5L8.56984 13.9999M11.9978 19L11.9978 15.9791M8.56984 10.0002L5.99805 8.5" stroke="currentColor" stroke-width="2" stroke-linecap="round" stroke-linejoin="round" />
    <path opacity="0.4" d="M15.4998 9.99946L12.0361 8L8.57227 9.99984L8.57227 13.9997L12.0364 15.9998L15.5005 13.9998L15.4998 9.99946Z" fill="currentColor" />
    <path d="M15.4998 9.99946L12.0361 8L8.57227 9.99984L8.57227 13.9997L12.0364 15.9998L15.5005 13.9998L15.4998 9.99946Z" stroke="currentColor" stroke-width="2" stroke-linejoin="round" />
</svg>