<svg xmlns="http://www.w3.org/2000/svg" width="24" height="24" viewBox="0 0 24 24" fill="none">
    <path opacity="0.4" d="M6.99805 6V8H10.998V6C10.998 5.44772 10.5503 5 9.99805 5H7.99805C7.44576 5 6.99805 5.44772 6.99805 6Z" fill="currentColor" />
    <path opacity="0.4" d="M4.99805 22H12.998C13.5503 22 13.998 21.5523 13.998 21V20.9495C13.3795 20.3182 12.998 19.4537 12.998 18.5C12.998 17.6178 13.4339 16.6732 13.998 15.8203V15H3.99805V21C3.99805 21.5523 4.44576 22 4.99805 22Z" fill="currentColor" />
    <path d="M9.99805 22H4.99805C4.44576 22 3.99805 21.5523 3.99805 21V13C3.99805 10.2386 6.23662 8 8.99805 8C10.6339 8 12.0862 8.78555 12.9984 10" stroke="currentColor" stroke-width="2" stroke-linecap="round" stroke-linejoin="round" />
    <path d="M3.99805 15H9.99805" stroke="currentColor" stroke-width="2" stroke-linecap="round" stroke-linejoin="round" />
    <path d="M6.99805 8V6C6.99805 5.44772 7.44576 5 7.99805 5H9.99805C10.5503 5 10.998 5.44772 10.998 6V8" stroke="currentColor" stroke-width="2" stroke-linejoin="round" />
    <path d="M8.99805 5V2M8.99805 2H6.49805M8.99805 2H13.498L14.498 3" stroke="currentColor" stroke-width="2" stroke-linecap="round" stroke-linejoin="round" />
    <path d="M16.498 22C18.431 22 19.998 20.433 19.998 18.5C19.998 16 16.498 13 16.498 13C16.498 13 12.998 16 12.998 18.5C12.998 20.433 14.5651 22 16.498 22Z" stroke="currentColor" stroke-width="2" stroke-linecap="square" stroke-linejoin="round" />
</svg>