<svg xmlns="http://www.w3.org/2000/svg" width="24" height="24" viewBox="0 0 24 24" fill="none">
    <path opacity="0.4" d="M8 18C6.61919 17.4256 3.06238 15.4871 3 11H21C20.9376 15.4871 17.3808 17.4256 16 18L16.576 19.6747C16.7993 20.3239 16.3169 21 15.6303 20.9999L8.38085 20.9996C7.69682 20.9995 7.21473 20.3281 7.43335 19.68L8 18Z" fill="currentColor" />
    <path d="M8 18C6.61919 17.4256 3.06238 15.4871 3 11H21C20.9376 15.4871 17.3808 17.4256 16 18L16.576 19.6747C16.7993 20.3239 16.3169 21 15.6303 20.9999L8.38085 20.9996C7.69682 20.9995 7.21473 20.3281 7.43335 19.68L8 18Z" stroke="currentColor" stroke-width="2" stroke-linejoin="round" />
    <path d="M11.5 3L12 3.5C12.5523 4.05228 12.5523 4.94772 12 5.5C11.4477 6.05228 11.4477 6.94772 12 7.5L12.5 8" stroke="currentColor" stroke-width="2" stroke-linecap="round" stroke-linejoin="round" />
    <path d="M6.5 3L7 3.5C7.55228 4.05228 7.55228 4.94772 7 5.5C6.44772 6.05228 6.44772 6.94772 7 7.5L7.5 8" stroke="currentColor" stroke-width="2" stroke-linecap="round" stroke-linejoin="round" />
    <path d="M16 11L19 5" stroke="currentColor" stroke-width="2" stroke-linecap="round" stroke-linejoin="round" />
</svg>