<svg xmlns="http://www.w3.org/2000/svg" width="24" height="24" viewBox="0 0 24 24" fill="none">
    <path d="M2.88672 20H16.6601" stroke="currentColor" stroke-width="2" stroke-linecap="round" stroke-linejoin="round" />
    <path opacity="0.4" d="M20.2298 19.9999H13.1838C12.1396 19.9999 11.1352 19.5972 10.3771 18.8747L3.38716 12.2125C2.55338 11.4178 2.53552 10.0877 3.34765 9.27059L8.2856 4.30269C8.92832 3.65607 10.0273 4.11404 10.0273 5.0285V6.26C10.0273 7.11573 10.5549 7.8817 11.3513 8.18217L13.3284 8.92808C13.7975 9.10506 14.1083 9.55621 14.1083 10.0602C14.1083 11.824 14.8047 13.5155 16.0443 14.7626L16.2665 14.9861C16.5177 15.2389 16.8585 15.3809 17.2138 15.3809H18.1893C19.8797 15.3809 21.25 16.7596 21.25 18.4602V18.9735C21.25 19.5403 20.7932 19.9999 20.2298 19.9999Z" fill="currentColor" />
    <path d="M20.2298 19.9999H13.1838C12.1396 19.9999 11.1352 19.5972 10.3771 18.8747L3.38716 12.2125C2.55338 11.4178 2.53552 10.0877 3.34765 9.27059L8.2856 4.30269C8.92832 3.65607 10.0273 4.11404 10.0273 5.0285V6.26C10.0273 7.11573 10.5549 7.8817 11.3513 8.18217L13.3284 8.92808C13.7975 9.10506 14.1083 9.55621 14.1083 10.0602C14.1083 11.824 14.8047 13.5155 16.0443 14.7626L16.2665 14.9861C16.5177 15.2389 16.8585 15.3809 17.2138 15.3809H18.1893C19.8797 15.3809 21.25 16.7596 21.25 18.4602V18.9735C21.25 19.5403 20.7932 19.9999 20.2298 19.9999Z" stroke="currentColor" stroke-width="2" stroke-linecap="round" stroke-linejoin="round" />
    <path d="M4.41406 8.70898L10.0254 14.3544" stroke="currentColor" stroke-width="2" stroke-linecap="round" stroke-linejoin="round" />
</svg>