<svg xmlns="http://www.w3.org/2000/svg" width="24" height="24" viewBox="0 0 24 24" fill="none">
    <path opacity="0.4" fill-rule="evenodd" clip-rule="evenodd" d="M4.5 21.4999C3.39543 21.4999 2.5 20.6045 2.5 19.4999V4.5C2.5 3.39541 3.39546 2.49997 4.50005 2.5L19.5001 2.50038C20.6046 2.50041 21.5 3.39583 21.5 4.50038V19.4999C21.5 20.6045 20.6046 21.4999 19.5 21.4999H4.5ZM10.5 8.49995H13.5C14.6046 8.49995 15.5 9.39538 15.5 10.4999V13.4999C15.5 14.6045 14.6046 15.4999 13.5 15.4999H10.5C9.39543 15.4999 8.5 14.6045 8.5 13.4999V10.4999C8.5 9.39538 9.39543 8.49995 10.5 8.49995Z" fill="currentColor" />
    <path d="M2.5 19.4999C2.5 20.6045 3.39543 21.4999 4.5 21.4999H19.5C20.6046 21.4999 21.5 20.6045 21.5 19.4999V4.50038C21.5 3.39583 20.6046 2.50041 19.5001 2.50038L4.50005 2.5C3.39546 2.49997 2.5 3.39541 2.5 4.5V19.4999Z" stroke="currentColor" stroke-width="2" stroke-linejoin="round" />
    <path d="M8.5 10.5C8.5 9.39543 9.39543 8.5 10.5 8.5H13.5C14.6046 8.5 15.5 9.39543 15.5 10.5V13.5C15.5 14.6046 14.6046 15.5 13.5 15.5H10.5C9.39543 15.5 8.5 14.6046 8.5 13.5V10.5Z" stroke="currentColor" stroke-width="2" />
</svg>