<svg xmlns="http://www.w3.org/2000/svg" width="24" height="24" viewBox="0 0 24 24" fill="none">
    <path opacity="0.4" fill-rule="evenodd" clip-rule="evenodd" d="M19.5 2.5C20.6046 2.5 21.5 3.39543 21.5 4.5V19.5C21.5 20.6046 20.6046 21.5 19.5 21.5H4.5C3.39543 21.5 2.5 20.6046 2.5 19.5V4.5C2.5 3.39543 3.39543 2.5 4.5 2.5H19.5ZM8.49902 14.001C7.6706 14.001 6.99902 14.6725 6.99902 15.501C6.99902 16.3294 7.6706 17.001 8.49902 17.001C9.32745 17.001 9.99902 16.3294 9.99902 15.501C9.99902 14.6725 9.32745 14.001 8.49902 14.001ZM8.49902 7.00098C7.6706 7.00098 6.99902 7.67255 6.99902 8.50098C6.99902 9.3294 7.6706 10.001 8.49902 10.001C9.32745 10.001 9.99902 9.3294 9.99902 8.50098C9.99902 7.67255 9.32745 7.00098 8.49902 7.00098Z" fill="currentColor" />
    <circle cx="8.49951" cy="8.5" r="1.5" stroke="currentColor" stroke-width="2" stroke-linecap="round" stroke-linejoin="round" />
    <path d="M9.99951 10L11.9995 12M16.9995 17L14.4995 14.5M9.99951 14L11.9995 12M16.9995 7L11.9995 12" stroke="currentColor" stroke-width="2" stroke-linecap="round" stroke-linejoin="round" />
    <circle cx="8.49951" cy="15.5" r="1.5" stroke="currentColor" stroke-width="2" stroke-linecap="round" stroke-linejoin="round" />
    <path d="M4.50027 21.5C3.39571 21.5 2.50027 20.6046 2.50027 19.5V4.5C2.50027 3.39543 3.39571 2.5 4.50027 2.5L19.5003 2.5C20.6048 2.5 21.5003 3.39543 21.5003 4.5V19.5C21.5003 20.6046 20.6048 21.5 19.5003 21.5M15.5003 21.5H14.0003M10.0003 21.5H8.50027" stroke="currentColor" stroke-width="2" stroke-linecap="round" stroke-linejoin="round" />
</svg>