<svg xmlns="http://www.w3.org/2000/svg" width="24" height="24" viewBox="0 0 24 24" fill="none">
    <path opacity="0.4" d="M18 2.5H6C4.89543 2.5 4 3.39543 4 4.5V19.5C4 20.6046 4.89543 21.5 6 21.5H18C19.1046 21.5 20 20.6046 20 19.5V4.5C20 3.39543 19.1046 2.5 18 2.5Z" fill="currentColor" />
    <path d="M20 7V4.5C20 3.39543 19.1046 2.5 18 2.5H6C4.89543 2.5 4 3.39543 4 4.5V19.5C4 20.6046 4.89543 21.5 6 21.5H18C19.1046 21.5 20 20.6046 20 19.5V17" stroke="currentColor" stroke-width="2" stroke-linecap="round" stroke-linejoin="round" />
    <path d="M16 16L20 12L16 8M19 12H9" stroke="currentColor" stroke-width="2" stroke-linecap="round" stroke-linejoin="round" />
</svg>