<svg xmlns="http://www.w3.org/2000/svg" width="24" height="24" viewBox="0 0 24 24" fill="none">
    <path opacity="0.4" d="M2.49988 19.5V4.5C2.49988 3.39543 3.39531 2.5 4.49988 2.5H19.4999C20.6044 2.5 21.4999 3.39543 21.4999 4.5V19.5C21.4999 20.6046 20.6044 21.5 19.4999 21.5H4.49988C3.39531 21.5 2.49988 20.6046 2.49988 19.5Z" fill="currentColor" />
    <path d="M19.4999 21.5C20.6045 21.5 21.4999 20.6046 21.4999 19.5M2.49988 19.5C2.49988 20.6046 3.39531 21.5 4.49988 21.5M13.9999 21.5H15.4999M8.49988 21.5H9.99988M2.49988 4.5C2.49988 3.39543 3.39531 2.5 4.49988 2.5L19.4999 2.5C20.6044 2.5 21.4999 3.39543 21.4999 4.5M2.49988 14L2.49988 15.5M2.49988 8.5L2.49988 10M21.4999 10V8.5M21.4999 15.5V14" stroke="currentColor" stroke-width="2" stroke-linecap="round" stroke-linejoin="round" />
</svg>