<svg xmlns="http://www.w3.org/2000/svg" width="24" height="24" viewBox="0 0 24 24" fill="none">
    <path opacity="0.4" d="M19.4995 2.5H4.49951C3.39494 2.5 2.49951 3.39543 2.49951 4.5V19.5C2.49951 20.6046 3.39494 21.5 4.49951 21.5H19.4995C20.6041 21.5 21.4995 20.6046 21.4995 19.5V4.5C21.4995 3.39543 20.6041 2.5 19.4995 2.5Z" fill="currentColor" />
    <path d="M4.50049 2.50098C3.39592 2.50098 2.50049 3.39641 2.50049 4.50098M19.5005 2.50098C20.6051 2.50098 21.5005 3.39641 21.5005 4.50098M21.5005 19.501C21.5005 20.6055 20.6051 21.501 19.5005 21.501M4.50049 21.501C3.39592 21.501 2.50049 20.6055 2.50049 19.501M14.0005 2.50098H15.5005M8.50049 2.50098H10.0005M21.5005 8.50098V10.001M21.5005 14.001V15.501M2.50049 15.501V14.001M2.50049 8.50098V10.001M8.50049 21.501H10.0005M14.0005 21.501H15.5005" stroke="currentColor" stroke-width="2" stroke-linecap="round" stroke-linejoin="round" />
    <path d="M11.9996 8V12" stroke="currentColor" stroke-width="2" stroke-linecap="round" stroke-linejoin="round" />
    <path d="M7.99963 8V14" stroke="currentColor" stroke-width="2" stroke-linecap="round" stroke-linejoin="round" />
    <path d="M15.9996 8V16" stroke="currentColor" stroke-width="2" stroke-linecap="round" stroke-linejoin="round" />
</svg>