<svg xmlns="http://www.w3.org/2000/svg" width="24" height="24" viewBox="0 0 24 24" fill="none">
    <path opacity="0.4" d="M4.49994 21.4999H19.4999C20.6045 21.4999 21.4999 20.6045 21.4999 19.5V4.50039C21.4999 3.39584 20.6045 2.50042 19.5 2.50039L4.49999 2.5C3.3954 2.49997 2.49994 3.39541 2.49994 4.5V19.4999C2.49994 20.6045 3.39537 21.4999 4.49994 21.4999Z" fill="currentColor" />
    <path d="M4.49994 21.4999H19.4999C20.6045 21.4999 21.4999 20.6045 21.4999 19.5V4.50039C21.4999 3.39584 20.6045 2.50042 19.5 2.50039L4.49999 2.5C3.3954 2.49997 2.49994 3.39541 2.49994 4.5V19.4999C2.49994 20.6045 3.39537 21.4999 4.49994 21.4999Z" stroke="currentColor" stroke-width="2" stroke-linejoin="round" />
    <path d="M12.9999 6.5V17.5002" stroke="currentColor" stroke-width="2" stroke-linecap="round" stroke-linejoin="round" />
    <path d="M15.9999 6.5V17.5002" stroke="currentColor" stroke-width="2" stroke-linecap="round" stroke-linejoin="round" />
    <path d="M17.0002 6.5H9.8928C9.12556 6.5 8.38975 6.81607 7.84724 7.37868C7.30472 7.94129 6.99994 8.70435 6.99994 9.5C6.99994 10.2956 7.30472 11.0587 7.84724 11.6213C8.38975 12.1839 9.12556 12.5 9.8928 12.5H12.9999" stroke="currentColor" stroke-width="2" stroke-linecap="round" stroke-linejoin="round" />
</svg>