<svg xmlns="http://www.w3.org/2000/svg" width="24" height="24" viewBox="0 0 24 24" fill="none">
    <path opacity="0.4" d="M21 4.89474V19.1053C21 20.1517 20.1517 21 19.1053 21H4.89474C3.8483 21 3 20.1517 3 19.1053V4.89474C3 3.8483 3.8483 3 4.89474 3H19.1053C20.1517 3 21 3.8483 21 4.89474Z" fill="currentColor" />
    <path d="M10.5 21H5C3.89543 21 3 20.1046 3 19V5C3 3.89543 3.89543 3 5 3H19C20.1046 3 21 3.89543 21 5V10.5" stroke="currentColor" stroke-width="2" stroke-linecap="round" stroke-linejoin="round" />
    <path d="M21 15V21H15M11 11L20.3499 20.3506" stroke="currentColor" stroke-width="2" stroke-linecap="round" stroke-linejoin="round" />
</svg>