<svg xmlns="http://www.w3.org/2000/svg" width="24" height="24" viewBox="0 0 24 24" fill="none">
    <path opacity="0.4" d="M12 7.39453C13.933 7.39453 15.5 8.96153 15.5 10.8945C15.5 12.8275 13.933 14.3945 12 14.3945C10.067 14.3945 8.5 12.8275 8.5 10.8945C8.5 8.96153 10.067 7.39453 12 7.39453Z" fill="currentColor" />
    <path opacity="0.4" d="M12 14.3945C15.866 14.3945 19 17.5285 19 21.3945H5C5 17.5285 8.13401 14.3945 12 14.3945Z" fill="currentColor" />
    <path d="M2.5 4.39453C2.5 3.3481 3.3483 2.49979 4.39474 2.49979H19.6053C20.6517 2.49979 21.5 3.3481 21.5 4.39453V19.6051C21.5 20.6515 20.6517 21.4998 19.6053 21.4998H4.39474C3.3483 21.4998 2.5 20.6515 2.5 19.6051V4.39453Z" stroke="currentColor" stroke-width="2" stroke-linecap="round" stroke-linejoin="round" />
    <path d="M12 7.39453C13.933 7.39453 15.5 8.96153 15.5 10.8945C15.5 12.8275 13.933 14.3945 12 14.3945C10.067 14.3945 8.5 12.8275 8.5 10.8945C8.5 8.96153 10.067 7.39453 12 7.39453Z" stroke="currentColor" stroke-width="2" stroke-linecap="round" stroke-linejoin="round" />
    <path d="M19 21.3945C19 17.5285 15.866 14.3945 12 14.3945C8.13401 14.3945 5 17.5285 5 21.3945" stroke="currentColor" stroke-width="2" stroke-linecap="round" stroke-linejoin="round" />
</svg>