<svg xmlns="http://www.w3.org/2000/svg" width="24" height="24" viewBox="0 0 24 24" fill="none">
    <path opacity="0.4" d="M10.2009 9.60168L14.2009 6.60168L12.1201 11.7397C12.0422 11.911 11.9176 12.0569 11.7605 12.1605L8.9705 14.0019L6.23558 12.1599C6.08214 12.0566 5.96037 11.9127 5.88382 11.7443L3.8009 6.60168L7.8009 9.60168C8.51201 10.135 9.48979 10.135 10.2009 9.60168Z" fill="currentColor" />
    <path opacity="0.4" d="M21.0001 13.0001C21.0001 14.657 19.657 16.0001 18.0001 16.0001C16.3433 16.0001 15.0001 14.657 15.0001 13.0001C15.0001 11.3433 16.3433 10.0001 18.0001 10.0001C19.657 10.0001 21.0001 11.3433 21.0001 13.0001Z" fill="currentColor" />
    <path d="M13.0012 2.00012C14.1052 2.00012 15.0001 2.93138 15.0001 4.08015V5.00003C15.0001 5.62954 14.7037 6.22232 14.2001 6.60003L10.2001 9.60003C9.48901 10.1334 8.51123 10.1334 7.80012 9.60003L3.80012 6.60003C3.29651 6.22232 3.00012 5.62955 3.00012 5.00003V4.07994C3.00012 2.93129 3.89495 2.00012 4.99878 2.00012" stroke="currentColor" stroke-width="2" stroke-linecap="round" stroke-linejoin="round" />
    <path d="M9.00012 14.0001V17.4999C9.00012 19.9853 11.015 22.0002 13.5005 22.0002C15.9859 22.0002 18.0008 19.9853 18.0008 17.4999V16.0001" stroke="currentColor" stroke-width="2" stroke-linecap="round" stroke-linejoin="round" />
    <path d="M14.5001 6.50012L12.1193 11.738C12.0414 11.9093 11.9168 12.0552 11.7598 12.1589L8.96972 14.0002L6.2348 12.1583C6.08136 12.0549 5.95959 11.911 5.88304 11.7426L3.50012 6.50012" stroke="currentColor" stroke-width="2" stroke-linecap="round" stroke-linejoin="round" />
    <path d="M21.0001 13.0001C21.0001 14.657 19.657 16.0001 18.0001 16.0001C16.3433 16.0001 15.0001 14.657 15.0001 13.0001C15.0001 11.3433 16.3433 10.0001 18.0001 10.0001C19.657 10.0001 21.0001 11.3433 21.0001 13.0001Z" stroke="currentColor" stroke-width="2" stroke-linecap="round" stroke-linejoin="round" />
    <path d="M18.1251 13.0001H18.0001M18.2501 13.0001C18.2501 13.1382 18.1382 13.2501 18.0001 13.2501C17.8621 13.2501 17.7501 13.1382 17.7501 13.0001C17.7501 12.8621 17.8621 12.7501 18.0001 12.7501C18.1382 12.7501 18.2501 12.8621 18.2501 13.0001Z" stroke="currentColor" stroke-width="2" stroke-linecap="round" stroke-linejoin="round" />
</svg>