<svg xmlns="http://www.w3.org/2000/svg" width="24" height="24" viewBox="0 0 24 24" fill="none">
    <path opacity="0.4" d="M2 5C2 4.44772 2.44772 4 3 4H21C21.5523 4 22 4.44772 22 5V9C22 9.55228 21.5523 10 21 10H3C2.44772 10 2 9.55228 2 9V5Z" fill="currentColor" />
    <path opacity="0.4" d="M2 15C2 14.4477 2.44772 14 3 14H21C21.5523 14 22 14.4477 22 15V19C22 19.5523 21.5523 20 21 20H3C2.44772 20 2 19.5523 2 19V15Z" fill="currentColor" />
    <path d="M2 5C2 4.44772 2.44772 4 3 4H21C21.5523 4 22 4.44772 22 5V9C22 9.55228 21.5523 10 21 10H3C2.44772 10 2 9.55228 2 9V5Z" stroke="currentColor" stroke-width="2" />
    <path d="M2 15C2 14.4477 2.44772 14 3 14H21C21.5523 14 22 14.4477 22 15V19C22 19.5523 21.5523 20 21 20H3C2.44772 20 2 19.5523 2 19V15Z" stroke="currentColor" stroke-width="2" />
</svg>