<svg xmlns="http://www.w3.org/2000/svg" width="24" height="24" viewBox="0 0 24 24" fill="none">
    <g opacity="0.4">
        <path d="M20 4H18L16.2008 9.39754C16.0809 9.75732 15.7442 10 15.365 10C15.1313 10 14.9072 9.90717 14.7419 9.74194L14.5 9.5L13.5 12L15 22H20C21.1046 22 22 21.1046 22 20V6C22 4.89543 21.1046 4 20 4Z" fill="currentColor" />
        <path d="M2 6V20C2 21.1046 2.89543 22 4 22H9L10.5 12L9.5 9.5L9.25806 9.74194C9.09283 9.90717 8.86872 10 8.63505 10C8.2558 10 7.91911 9.75732 7.79918 9.39754L6 4H4C2.89543 4 2 4.89543 2 6Z" fill="currentColor" />
        <path d="M12 7L16 2H8L12 7Z" fill="currentColor" />
    </g>
    <path d="M18 4H20C21.1046 4 22 4.89543 22 6V20C22 21.1046 21.1046 22 20 22H4C2.89543 22 2 21.1046 2 20V6C2 4.89543 2.89543 4 4 4H6" stroke="currentColor" stroke-width="2" stroke-linecap="round" stroke-linejoin="round" />
    <path d="M14.7419 9.74194L12 7L16 2L18 4L16.2008 9.39754C16.0809 9.75732 15.7442 10 15.365 10C15.1313 10 14.9072 9.90717 14.7419 9.74194Z" stroke="currentColor" stroke-width="2" stroke-linecap="round" stroke-linejoin="round" />
    <path d="M16 2H8" stroke="currentColor" stroke-width="2" stroke-linecap="round" stroke-linejoin="round" />
    <path d="M9.25806 9.74194L12 7L8 2L6 4L7.79918 9.39754C7.91911 9.75732 8.2558 10 8.63505 10C8.86872 10 9.09283 9.90717 9.25806 9.74194Z" stroke="currentColor" stroke-width="2" stroke-linecap="round" stroke-linejoin="round" />
    <path d="M9.5 9.5L10.5 12H13.5L14.5 9.5" stroke="currentColor" stroke-width="2" stroke-linecap="round" stroke-linejoin="round" />
    <path d="M10.5 12L9 22M15 22L13.5 12" stroke="currentColor" stroke-width="2" stroke-linecap="round" stroke-linejoin="round" />
</svg>