<svg xmlns="http://www.w3.org/2000/svg" width="24" height="24" viewBox="0 0 24 24" fill="none">
    <path opacity="0.4" fill-rule="evenodd" clip-rule="evenodd" d="M12 22C17.5228 22 22 17.5228 22 12C22 6.47715 17.5228 2 12 2C6.47715 2 2 6.47715 2 12C2 17.5228 6.47715 22 12 22ZM12 18C10.8954 18 10 16.8807 10 15.5C10 14.1193 10.8954 13 12 13C13.1046 13 14 14.1193 14 15.5C14 16.8807 13.1046 18 12 18Z" fill="currentColor" />
    <circle cx="12" cy="12" r="10" stroke="currentColor" stroke-width="2" stroke-linecap="round" stroke-linejoin="round" />
    <ellipse cx="12" cy="15.5" rx="2" ry="2.5" stroke="currentColor" stroke-width="2" stroke-linecap="round" stroke-linejoin="round" />
    <path d="M16.125 8.387V8.91649M7.875 8.387V8.91649M8.25 8.75C8.25 8.33579 8.08211 8 7.875 8C7.66789 8 7.5 8.33579 7.5 8.75C7.5 9.16421 7.66789 9.5 7.875 9.5C8.08211 9.5 8.25 9.16421 8.25 8.75ZM16.5 8.75C16.5 8.33579 16.3321 8 16.125 8C15.9179 8 15.75 8.33579 15.75 8.75C15.75 9.16421 15.9179 9.5 16.125 9.5C16.3321 9.5 16.5 9.16421 16.5 8.75Z" stroke="currentColor" stroke-width="2" stroke-linecap="round" stroke-linejoin="round" />
</svg>