<svg xmlns="http://www.w3.org/2000/svg" width="24" height="24" viewBox="0 0 24 24" fill="none">
    <g opacity="0.4">
        <path d="M20 20H22V4H20C18.8954 4 18 4.89543 18 6V18C18 19.1046 18.8954 20 20 20Z" fill="currentColor" />
        <path d="M8 20H6V4H8C9.10457 4 10 4.89543 10 6V18C10 19.1046 9.10457 20 8 20Z" fill="currentColor" />
    </g>
    <path d="M2 20H8C9.10457 20 10 19.1046 10 18V6C10 4.89543 9.10457 4 8 4H2" stroke="currentColor" stroke-width="2" stroke-linecap="round" stroke-linejoin="round" />
    <path d="M22 20H20C18.8954 20 18 19.1046 18 18V6C18 4.89543 18.8954 4 20 4H22" stroke="currentColor" stroke-width="2" stroke-linecap="round" stroke-linejoin="round" />
    <path d="M6 4V20" stroke="currentColor" stroke-width="2" stroke-linecap="round" stroke-linejoin="round" />
    <path d="M14 3V4.5M14 8.5V10M14 14V15.5M14 19.5V21" stroke="currentColor" stroke-width="2" stroke-linecap="round" stroke-linejoin="round" />
    <path d="M2 12H10" stroke="currentColor" stroke-width="2" stroke-linecap="round" stroke-linejoin="round" />
    <path d="M2 8H10" stroke="currentColor" stroke-width="2" stroke-linecap="round" stroke-linejoin="round" />
    <path d="M2 16H10" stroke="currentColor" stroke-width="2" stroke-linecap="round" stroke-linejoin="round" />
    <path d="M18 12H22" stroke="currentColor" stroke-width="2" stroke-linecap="round" stroke-linejoin="round" />
    <path d="M18 8H22" stroke="currentColor" stroke-width="2" stroke-linecap="round" stroke-linejoin="round" />
    <path d="M18 16H22" stroke="currentColor" stroke-width="2" stroke-linecap="round" stroke-linejoin="round" />
</svg>