<svg xmlns="http://www.w3.org/2000/svg" width="24" height="24" viewBox="0 0 24 24" fill="none">
    <g opacity="0.4">
        <path d="M20 4.00195V2.00195L4 2.00195L4 4.00195C4 5.10652 4.89543 6.00195 6 6.00195L18 6.00195C19.1046 6.00195 20 5.10652 20 4.00195Z" fill="currentColor" />
        <path d="M20 16.002V18.002H4L4 16.002C4 14.8974 4.89543 14.002 6 14.002L18 14.002C19.1046 14.002 20 14.8974 20 16.002Z" fill="currentColor" />
    </g>
    <path d="M4 22V16C4 14.8954 4.89543 14 6 14H18C19.1046 14 20 14.8954 20 16V22" stroke="currentColor" stroke-width="2" stroke-linecap="round" stroke-linejoin="round" />
    <path d="M4 2V4C4 5.10457 4.89543 6 6 6L18 6C19.1046 6 20 5.10457 20 4V2" stroke="currentColor" stroke-width="2" stroke-linecap="round" stroke-linejoin="round" />
    <path d="M20 18L4 18" stroke="currentColor" stroke-width="2" stroke-linecap="round" stroke-linejoin="round" />
    <path d="M21 10L19.5 10M15.5 10L14 10M10 10L8.5 10M4.5 10L3 10" stroke="currentColor" stroke-width="2" stroke-linecap="round" stroke-linejoin="round" />
    <path d="M12 22L12 14" stroke="currentColor" stroke-width="2" stroke-linecap="round" stroke-linejoin="round" />
    <path d="M16 22L16 14" stroke="currentColor" stroke-width="2" stroke-linecap="round" stroke-linejoin="round" />
    <path d="M8 22L8 14" stroke="currentColor" stroke-width="2" stroke-linecap="round" stroke-linejoin="round" />
    <path d="M12 6L12 2" stroke="currentColor" stroke-width="2" stroke-linecap="round" stroke-linejoin="round" />
    <path d="M16 6L16 2" stroke="currentColor" stroke-width="2" stroke-linecap="round" stroke-linejoin="round" />
    <path d="M8 6L8 2" stroke="currentColor" stroke-width="2" stroke-linecap="round" stroke-linejoin="round" />
</svg>