<svg xmlns="http://www.w3.org/2000/svg" width="24" height="24" viewBox="0 0 24 24" fill="none">
    <circle opacity="0.4" cx="5" cy="5" r="2" fill="currentColor" />
    <path opacity="0.4" d="M16.7849 12.5181L22 22H14.0947L8.50898 12H15.9087C16.2734 12 16.6092 12.1985 16.7849 12.5181Z" fill="currentColor" />
    <circle cx="5" cy="5" r="2" stroke="currentColor" stroke-width="2" stroke-linecap="round" stroke-linejoin="round" />
    <path d="M2 22L7.25904 12.4381C7.40766 12.1679 7.6916 12 8 12C8.3084 12 8.59234 12.1679 8.74096 12.4381L14 22H2Z" stroke="currentColor" stroke-width="2" stroke-linecap="round" stroke-linejoin="round" />
    <path d="M8 12V22" stroke="currentColor" stroke-width="2" stroke-linecap="round" stroke-linejoin="round" />
    <path d="M10 22H22L16.7849 12.5181C16.6092 12.1985 16.2734 12 15.9087 12H8" stroke="currentColor" stroke-width="2" stroke-linecap="round" stroke-linejoin="round" />
    <path d="M21 5C20.3333 4.66667 18.8 3.6 18 2C17.2 3.6 15.6667 4.66667 15 5" stroke="currentColor" stroke-width="2" stroke-linecap="round" stroke-linejoin="round" />
    <path d="M21 9C20.3333 8.66667 18.8 7.6 18 6C17.2 7.6 15.6667 8.66667 15 9" stroke="currentColor" stroke-width="2" stroke-linecap="round" stroke-linejoin="round" />
    <path d="M18 2V14.5" stroke="currentColor" stroke-width="2" stroke-linecap="round" stroke-linejoin="round" />
</svg>