<svg xmlns="http://www.w3.org/2000/svg" width="24" height="24" viewBox="0 0 24 24" fill="none">
    <path opacity="0.4" d="M21.4995 4.5C21.4995 3.39543 20.6041 2.5 19.4995 2.5H4.49951C3.39494 2.5 2.49951 3.39543 2.49951 4.5V19.5C2.49951 20.6046 3.39494 21.5 4.49951 21.5H19.4995C20.6041 21.5 21.4995 20.6046 21.4995 19.5V4.5Z" fill="currentColor" />
    <path d="M4.50049 2.5C3.39592 2.5 2.50049 3.39543 2.50049 4.5M19.5005 2.5C20.6051 2.5 21.5005 3.39543 21.5005 4.5M21.5005 19.5C21.5005 20.6046 20.6051 21.5 19.5005 21.5M4.50049 21.5C3.39592 21.5 2.50049 20.6046 2.50049 19.5M14.0005 2.5H15.5005M8.50049 2.5H10.0005M21.5005 8.5V10M21.5005 14V15.5M2.50049 15.5V14M2.50049 8.5V10M8.50049 21.5H10.0005M14.0005 21.5H15.5005" stroke="currentColor" stroke-width="2" stroke-linecap="round" stroke-linejoin="round" />
    <path d="M6.99963 8H14.9996M6.99963 12H16.9996M6.99963 16H12.9996" stroke="currentColor" stroke-width="2" stroke-linecap="round" stroke-linejoin="round" />
</svg>