<svg xmlns="http://www.w3.org/2000/svg" width="24" height="24" viewBox="0 0 24 24" fill="none">
    <path opacity="0.4" d="M12 22.0004C6.47715 22.0004 2 17.5232 2 12.0004C2 6.47752 6.47715 2.00037 12 2.00037C17.5228 2.00037 22 6.47752 22 12.0004C22 14.5889 21.017 16.9482 19.4033 18.724C19.3473 18.5207 19.2685 18.3205 19.1602 18.1293L17.3047 14.807C16.4466 16.4247 14.8697 17.6038 13 17.9174L14.7734 20.7094C14.9321 20.9893 15.1359 21.2256 15.3682 21.4183C14.3157 21.7948 13.1819 22.0004 12 22.0004Z" fill="currentColor" />
    <path d="M12 21.9996C6.47715 21.9996 2 17.5225 2 11.9996C2 6.47679 6.47715 1.99963 12 1.99963C17.5228 1.99963 22 6.47679 22 11.9996C22 13.2311 21.7774 14.4106 21.3702 15.5001" stroke="currentColor" stroke-width="2" stroke-linecap="round" stroke-linejoin="round" />
    <path d="M17.659 13.9995C16.8353 16.3299 14.6128 17.9995 12.0004 17.9995C9.38795 17.9995 7.16547 16.3299 6.3418 13.9995M13 17.9999L14.7731 20.7092C15.4725 21.9434 17.0216 22.3663 18.2331 21.6537C19.4446 20.9411 19.8597 19.3629 19.1602 18.1286L17.3872 14.9999" stroke="currentColor" stroke-width="2" stroke-linecap="round" stroke-linejoin="round" />
    <path d="M14 8.79866C14.342 8.31288 14.8866 7.99866 15.5 7.99866C16.1134 7.99866 16.658 8.31288 17 8.79866" stroke="currentColor" stroke-width="2" stroke-linecap="round" stroke-linejoin="round" />
    <path d="M7.875 8.38566V8.91515M8.25 8.74866C8.25 8.33444 8.08211 7.99866 7.875 7.99866C7.66789 7.99866 7.5 8.33444 7.5 8.74866C7.5 9.16287 7.66789 9.49866 7.875 9.49866C8.08211 9.49866 8.25 9.16287 8.25 8.74866Z" stroke="currentColor" stroke-width="2" stroke-linecap="round" stroke-linejoin="round" />
</svg>