<svg xmlns="http://www.w3.org/2000/svg" width="24" height="24" viewBox="0 0 24 24" fill="none">
    <path opacity="0.4" d="M16.5398 14.5382L12.8064 3.66179C12.5035 2.77941 11.3285 2.7794 11.0257 3.66179L7.29225 14.5382C7.2164 14.7592 7.16733 14.9988 7.25002 15.2169C7.53161 15.9599 8.70179 17.173 11.916 17.173C15.1302 17.173 16.3004 15.9599 16.582 15.2169C16.6647 14.9988 16.6156 14.7592 16.5398 14.5382Z" fill="currentColor" />
    <path d="M16.5398 14.5382L12.8064 3.66179C12.5035 2.77941 11.3285 2.7794 11.0257 3.66179L7.29225 14.5382C7.2164 14.7592 7.16733 14.9988 7.25002 15.2169C7.53161 15.9599 8.70179 17.173 11.916 17.173C15.1302 17.173 16.3004 15.9599 16.582 15.2169C16.6647 14.9988 16.6156 14.7592 16.5398 14.5382Z" stroke="currentColor" stroke-width="2" stroke-linecap="round" stroke-linejoin="round" />
    <path d="M8.37109 12.1406C8.78482 12.6043 9.79312 13.1472 11.9166 13.1472C14.04 13.1472 15.0483 12.6043 15.462 12.1406" stroke="currentColor" stroke-width="2" stroke-linecap="round" stroke-linejoin="round" />
    <path d="M9.54663 8.61719C10.1715 8.92535 10.9506 9.12047 11.9158 9.12047C12.881 9.12047 13.6601 8.92535 14.2851 8.61719" stroke="currentColor" stroke-width="2" stroke-linecap="round" stroke-linejoin="round" />
    <path d="M16.1826 13.1914L20.4445 15.249C21.1852 15.6066 21.1852 16.7241 20.4445 17.0817L12.7023 20.8195C12.2039 21.0601 11.632 21.0601 11.1337 20.8195L3.39147 17.0817C2.65076 16.7241 2.65076 15.6066 3.39147 15.249L7.65339 13.1914" stroke="currentColor" stroke-width="2" stroke-linecap="round" stroke-linejoin="round" />
</svg>