<svg xmlns="http://www.w3.org/2000/svg" width="24" height="24" viewBox="0 0 24 24" fill="none">
    <path d="M19.4999 17.5C19.4999 18.8807 18.3806 20 16.9999 20C15.6192 20 14.4999 18.8807 14.4999 17.5C14.4999 16.1193 15.6192 15 16.9999 15C18.3806 15 19.4999 16.1193 19.4999 17.5Z" stroke="currentColor" stroke-width="2" />
    <path opacity="0.4" d="M9.49976 17.5H14.4998L14.9998 16V5C14.9998 4.44772 14.552 4 13.9998 4H2.99976C2.44747 4 1.99976 4.44772 1.99976 5V16.4954C1.99976 17.0495 2.45028 17.4979 3.00436 17.4954L4.49976 17.4885C4.49976 16.659 4.99976 15 6.99976 15C8.99976 15 9.49976 16.6667 9.49976 17.5Z" fill="currentColor" />
    <path d="M9.49988 17.5C9.49988 18.8807 8.38059 20 6.99988 20C5.61917 20 4.49988 18.8807 4.49988 17.5C4.49988 16.1193 5.61917 15 6.99988 15C8.38059 15 9.49988 16.1193 9.49988 17.5Z" stroke="currentColor" stroke-width="2" />
    <path d="M14.4998 17.5H9.49976M14.9998 6.5H17.9292C18.5979 6.5 19.2224 6.8342 19.5933 7.3906L21.6637 10.4962C21.8827 10.8247 21.9996 11.2107 21.9996 11.6055L21.9998 17.5H19.4996" stroke="currentColor" stroke-width="2" stroke-linecap="round" stroke-linejoin="round" />
    <path d="M7.99976 4H14C14.5522 4 15 4.44772 15 5V16" stroke="currentColor" stroke-width="2" stroke-linecap="round" stroke-linejoin="round" />
    <path d="M1.99976 14V16.5C1.99976 17.0523 2.44747 17.5 2.99976 17.5H4.49996" stroke="currentColor" stroke-width="2" stroke-linecap="round" stroke-linejoin="round" />
    <path d="M3.49988 4L1.99988 7H4.99988L3.49988 10" stroke="currentColor" stroke-width="2" stroke-linecap="round" stroke-linejoin="round" />
</svg>