<svg xmlns="http://www.w3.org/2000/svg" width="24" height="24" viewBox="0 0 24 24" fill="none">
    <path opacity="0.4" fill-rule="evenodd" clip-rule="evenodd" d="M5 6H19C20.6569 6 22 7.34315 22 9V19C22 20.6569 20.6569 22 19 22H5C3.34315 22 2 20.6569 2 19V9C2 7.34314 3.34315 6 5 6ZM10.6799 11.0999L14.5629 13.2572C14.8327 13.407 15 13.6914 15 14C15 14.3086 14.8327 14.5929 14.5629 14.7428L10.6799 16.9001C10.5619 16.9656 10.4292 17 10.2942 17C9.85558 17 9.5 16.6444 9.5 16.2058V11.7942C9.5 11.3556 9.85558 11 10.2942 11C10.4292 11 10.5619 11.0344 10.6799 11.0999Z" fill="currentColor" />
    <path d="M19 6H5C3.34315 6 2 7.34315 2 9V19C2 20.6569 3.34315 22 5 22H19C20.6569 22 22 20.6569 22 19V9C22 7.34315 20.6569 6 19 6Z" stroke="currentColor" stroke-width="2" stroke-linejoin="round" />
    <path d="M9 3L12 6L16 2" stroke="currentColor" stroke-width="2" stroke-linecap="round" stroke-linejoin="round" />
    <path d="M14.5629 13.2572L10.6799 11.0999C10.5619 11.0344 10.4292 11 10.2942 11C9.85558 11 9.5 11.3556 9.5 11.7942V16.2058C9.5 16.6444 9.85558 17 10.2942 17C10.4292 17 10.5619 16.9656 10.6799 16.9001L14.5629 14.7428C14.8327 14.593 15 14.3086 15 14C15 13.6914 14.8327 13.407 14.5629 13.2572Z" stroke="currentColor" stroke-width="2" stroke-linecap="round" stroke-linejoin="round" />
</svg>