<svg xmlns="http://www.w3.org/2000/svg" width="24" height="24" viewBox="0 0 24 24" fill="none">
    <path opacity="0.4" d="M22.5768 14.292C20.0546 15.9466 16.2528 17 12 17C7.74722 17 3.94539 15.9466 1.42321 14.292C1.15286 14.1147 1 13.8087 1 13.4853C1 13.1786 1.13886 12.8876 1.38138 12.6997C2.5 11.5 4.5 10.5 6 10C7.36834 10.6072 9.5466 11 12 11C14.4534 11 16.6317 10.6072 18 10C19.5 10.5 21.5 11.5 22.6186 12.6997C22.8611 12.8876 23 13.1786 23 13.4853C23 13.8087 22.8471 14.1147 22.5768 14.292Z" fill="currentColor" />
    <path d="M18 10C18 6.68629 15.3137 4 12 4C8.68629 4 6 6.68629 6 10" stroke="currentColor" stroke-width="2" stroke-linecap="round" stroke-linejoin="round" />
    <path d="M18 16.5C16.8023 18.5923 14.5638 20 12 20C9.43616 20 7.19765 18.5923 6 16.5" stroke="currentColor" stroke-width="2" stroke-linecap="round" stroke-linejoin="round" />
    <path d="M22.5768 14.292C20.0546 15.9466 16.2528 17 12 17C7.74722 17 3.94539 15.9466 1.42321 14.292C1.15286 14.1147 1 13.8087 1 13.4853C1 13.1786 1.13886 12.8876 1.38138 12.6997C2.5 11.5 4.5 10.5 6 10C7.36834 10.6072 9.5466 11 12 11C14.4534 11 16.6317 10.6072 18 10C19.5 10.5 21.5 11.5 22.6186 12.6997C22.8611 12.8876 23 13.1786 23 13.4853C23 13.8087 22.8471 14.1147 22.5768 14.292Z" stroke="currentColor" stroke-width="2" stroke-linecap="round" stroke-linejoin="round" />
    <path d="M12.0504 13.9991H12.0004M12.1004 13.9991C12.1004 14.0543 12.0556 14.0991 12.0004 14.0991C11.9452 14.0991 11.9004 14.0543 11.9004 13.9991C11.9004 13.9439 11.9452 13.8991 12.0004 13.8991C12.0556 13.8991 12.1004 13.9439 12.1004 13.9991Z" stroke="currentColor" stroke-width="2" stroke-linecap="round" stroke-linejoin="round" />
    <path d="M17.0504 13.4993H17.0004M17.1004 13.4993C17.1004 13.5545 17.0556 13.5993 17.0004 13.5993C16.9452 13.5993 16.9004 13.5545 16.9004 13.4993C16.9004 13.4441 16.9452 13.3993 17.0004 13.3993C17.0556 13.3993 17.1004 13.4441 17.1004 13.4993Z" stroke="currentColor" stroke-width="2" stroke-linecap="round" stroke-linejoin="round" />
    <path d="M7.05039 13.4984H7.00039M7.10039 13.4984C7.10039 13.5537 7.05562 13.5984 7.00039 13.5984C6.94516 13.5984 6.90039 13.5537 6.90039 13.4984C6.90039 13.4432 6.94516 13.3984 7.00039 13.3984C7.05562 13.3984 7.10039 13.4432 7.10039 13.4984Z" stroke="currentColor" stroke-width="2" stroke-linecap="round" stroke-linejoin="round" />
</svg>