<svg xmlns="http://www.w3.org/2000/svg" width="24" height="24" viewBox="0 0 24 24" fill="none">
    <path opacity="0.4" d="M16.1838 13.9494C14.6574 13.046 12.6714 12.5 10.5 12.5C8.32863 12.5 6.34261 13.046 4.81618 13.9494C4.28162 14.2658 4 14.864 4 15.4852V18.5H11.114C11.8279 18.5 12.457 18.0411 13.0931 17.717C13.3653 17.5782 13.6735 17.5 14 17.5C14.3265 17.5 14.6347 17.5782 14.9069 17.717C15.543 18.0411 16.1721 18.5 16.886 18.5H17V15.4852C17 14.864 16.7184 14.2658 16.1838 13.9494Z" fill="currentColor" />
    <circle opacity="0.4" cx="10.5" cy="6" r="3.5" fill="currentColor" />
    <path d="M4 18.5V15.4852C4 14.864 4.28162 14.2658 4.81618 13.9494C6.34261 13.046 8.32863 12.5 10.5 12.5C11.9418 12.5 13.3019 12.7407 14.5 13.167" stroke="currentColor" stroke-width="2" stroke-linecap="round" stroke-linejoin="round" />
    <circle cx="10.5" cy="6" r="3.5" stroke="currentColor" stroke-width="2" />
    <path d="M15.5 18L20 13.5M19 15L20 16M16 19.5C16 20.6046 15.1046 21.5 14 21.5C12.8954 21.5 12 20.6046 12 19.5C12 18.3954 12.8954 17.5 14 17.5C15.1046 17.5 16 18.3954 16 19.5Z" stroke="currentColor" stroke-width="2" stroke-linecap="round" stroke-linejoin="round" />
</svg>