<svg xmlns="http://www.w3.org/2000/svg" width="24" height="24" viewBox="0 0 24 24" fill="none">
    <g opacity="0.4">
        <path d="M3 6.5V4.5C3 3.67157 3.67157 3 4.5 3H6.5C7.32843 3 8 3.67157 8 4.5V6.5C8 7.32843 7.32843 8 6.5 8H4.5C3.67157 8 3 7.32843 3 6.5Z" fill="currentColor" />
        <path d="M3 19.5V17.5C3 16.6716 3.67157 16 4.5 16H6.5C7.32843 16 8 16.6716 8 17.5V19.5C8 20.3284 7.32843 21 6.5 21H4.5C3.67157 21 3 20.3284 3 19.5Z" fill="currentColor" />
        <path d="M16 6.5V4.5C16 3.67157 16.6716 3 17.5 3H19.5C20.3284 3 21 3.67157 21 4.5V6.5C21 7.32843 20.3284 8 19.5 8H17.5C16.6716 8 16 7.32843 16 6.5Z" fill="currentColor" />
        <path d="M16 19.5V17.5C16 16.6716 16.6716 16 17.5 16H19.5C20.3284 16 21 16.6716 21 17.5V19.5C21 20.3284 20.3284 21 19.5 21H17.5C16.6716 21 16 20.3284 16 19.5Z" fill="currentColor" />
    </g>
    <path d="M18.5 8C18.814 9.11421 19 10.4992 19 12C19 13.5008 18.814 14.8858 18.5 16M5.5 8C5.18604 9.11421 5 10.4992 5 12C5 13.5008 5.18604 14.8858 5.5 16M8 5.5C9.11421 5.18604 10.4992 5 12 5C13.5008 5 14.8858 5.18604 16 5.5M8 18.5C9.11421 18.814 10.4992 19 12 19C13.5008 19 14.8858 18.814 16 18.5" stroke="currentColor" stroke-width="2" stroke-linecap="round" stroke-linejoin="round" />
    <path d="M3 6.5V4.5C3 3.67157 3.67157 3 4.5 3H6.5C7.32843 3 8 3.67157 8 4.5V6.5C8 7.32843 7.32843 8 6.5 8H4.5C3.67157 8 3 7.32843 3 6.5Z" stroke="currentColor" stroke-width="2" stroke-linecap="round" stroke-linejoin="round" />
    <path d="M3 19.5V17.5C3 16.6716 3.67157 16 4.5 16H6.5C7.32843 16 8 16.6716 8 17.5V19.5C8 20.3284 7.32843 21 6.5 21H4.5C3.67157 21 3 20.3284 3 19.5Z" stroke="currentColor" stroke-width="2" stroke-linecap="round" stroke-linejoin="round" />
    <path d="M16 6.5V4.5C16 3.67157 16.6716 3 17.5 3H19.5C20.3284 3 21 3.67157 21 4.5V6.5C21 7.32843 20.3284 8 19.5 8H17.5C16.6716 8 16 7.32843 16 6.5Z" stroke="currentColor" stroke-width="2" stroke-linecap="round" stroke-linejoin="round" />
    <path d="M16 19.5V17.5C16 16.6716 16.6716 16 17.5 16H19.5C20.3284 16 21 16.6716 21 17.5V19.5C21 20.3284 20.3284 21 19.5 21H17.5C16.6716 21 16 20.3284 16 19.5Z" stroke="currentColor" stroke-width="2" stroke-linecap="round" stroke-linejoin="round" />
</svg>