<svg xmlns="http://www.w3.org/2000/svg" width="24" height="24" viewBox="0 0 24 24" fill="none">
    <path opacity="0.4" d="M21 20V11H3V20C3 21.1046 3.89543 22 5 22H19C20.1046 22 21 21.1046 21 20Z" fill="currentColor" />
    <path d="M19 2H5C3.89543 2 3 2.89543 3 4V20C3 21.1046 3.89543 22 5 22H19C20.1046 22 21 21.1046 21 20V4C21 2.89543 20.1046 2 19 2Z" stroke="currentColor" stroke-width="2" stroke-linecap="round" stroke-linejoin="round" />
    <path d="M3 11H21" stroke="currentColor" stroke-width="2" stroke-linecap="round" stroke-linejoin="round" />
    <path d="M10 18L8.5 16.5M8.5 16.5L7 15M8.5 16.5L7 18M8.5 16.5L10 15" stroke="currentColor" stroke-width="2" stroke-linecap="round" stroke-linejoin="round" />
    <path d="M15.125 18H15M15.25 18C15.25 18.1381 15.1381 18.25 15 18.25C14.8619 18.25 14.75 18.1381 14.75 18C14.75 17.8619 14.8619 17.75 15 17.75C15.1381 17.75 15.25 17.8619 15.25 18Z" stroke="currentColor" stroke-width="2" stroke-linecap="round" stroke-linejoin="round" />
    <path d="M17.125 15H17M17.25 15C17.25 15.1381 17.1381 15.25 17 15.25C16.8619 15.25 16.75 15.1381 16.75 15C16.75 14.8619 16.8619 14.75 17 14.75C17.1381 14.75 17.25 14.8619 17.25 15Z" stroke="currentColor" stroke-width="2" stroke-linecap="round" stroke-linejoin="round" />
</svg>