<svg xmlns="http://www.w3.org/2000/svg" width="24" height="24" viewBox="0 0 24 24" fill="none">
    <path opacity="0.4" d="M12 2C13.195 2 14.267 2.52463 15 3.35547V7.5L16 6.75V11C16 13.2091 14.2091 15 12 15C9.79086 15 8 13.2091 8 11V6C8 3.79086 9.79086 2 12 2Z" fill="currentColor" />
    <path d="M12 2C9.79086 2 8 3.79086 8 6V11C8 13.2091 9.79086 15 12 15C14.2091 15 16 13.2091 16 11V10" stroke="currentColor" stroke-width="2" stroke-linecap="round" stroke-linejoin="round" />
    <path d="M12 18V22M12 22H15M12 22H9" stroke="currentColor" stroke-width="2" stroke-linecap="round" stroke-linejoin="round" />
    <path d="M19 12C18.7174 15.3914 15.8824 18 12.4792 18H11.5208C8.11765 18 5.28262 15.3914 5 12" stroke="currentColor" stroke-width="2" stroke-linecap="round" stroke-linejoin="round" />
    <path d="M15 3V7.5L17 6H20C20.5523 6 21 5.55228 21 5V3C21 2.44772 20.5523 2 20 2H16C15.4477 2 15 2.44772 15 3Z" stroke="currentColor" stroke-width="2" stroke-linecap="round" stroke-linejoin="round" />
</svg>