<svg xmlns="http://www.w3.org/2000/svg" width="24" height="24" viewBox="0 0 24 24" fill="none">
    <path opacity="0.4" d="M13.5 17.5V20.5C13.5 21.0523 13.9477 21.5 14.5 21.5H20.5C21.0523 21.5 21.5 21.0523 21.5 20.5V17.5C21.5 16.9477 21.0523 16.5 20.5 16.5H14.5C13.9477 16.5 13.5 16.9477 13.5 17.5Z" fill="currentColor" />
    <path opacity="0.4" d="M18.5 2.5H4.5C3.39543 2.5 2.5 3.39543 2.5 4.5V7.5H20.5V4.5C20.5 3.39543 19.6046 2.5 18.5 2.5Z" fill="currentColor" />
    <path d="M2.5 7.5H20.5" stroke="currentColor" stroke-width="2" stroke-linecap="round" stroke-linejoin="round" />
    <path d="M9.5 20.5H4.5C3.39543 20.5 2.5 19.6046 2.5 18.5V4.5C2.5 3.39543 3.39543 2.5 4.5 2.5H18.5C19.6046 2.5 20.5 3.39543 20.5 4.5V9.5" stroke="currentColor" stroke-width="2" stroke-linecap="round" stroke-linejoin="round" />
    <path d="M15.5 16.5V14.5C15.5 13.3954 16.3954 12.5 17.5 12.5C18.6046 12.5 19.5 13.3954 19.5 14.5V16.5" stroke="currentColor" stroke-width="2" stroke-linecap="round" stroke-linejoin="round" />
    <path d="M13.5 17.5V20.5C13.5 21.0523 13.9477 21.5 14.5 21.5H20.5C21.0523 21.5 21.5 21.0523 21.5 20.5V17.5C21.5 16.9477 21.0523 16.5 20.5 16.5H14.5C13.9477 16.5 13.5 16.9477 13.5 17.5Z" stroke="currentColor" stroke-width="2" stroke-linecap="round" stroke-linejoin="round" />
</svg>