<svg xmlns="http://www.w3.org/2000/svg" width="24" height="24" viewBox="0 0 24 24" fill="none">
    <g opacity="0.4">
        <path d="M14.3498 9.64986C14.3498 9.64986 17.5419 10.7138 19.67 8.58588C21.2928 6.96317 21.0593 4.72175 20.857 3.74886C20.7929 3.44069 20.5593 3.20711 20.2511 3.14302C19.2782 2.9407 17.0366 2.70725 15.4138 4.32997C13.2857 6.45793 14.3498 9.64986 14.3498 9.64986Z" fill="currentColor" />
        <path d="M11.5123 12.843C11.5123 12.843 12.931 15.6803 15.7685 15.6803C17.9099 15.6803 19.2433 14.0641 19.7686 13.2713C19.9424 13.0089 19.9424 12.677 19.7686 12.4146C19.2433 11.6218 17.9099 10.0057 15.7685 10.0057C12.931 10.0057 11.5123 12.843 11.5123 12.843Z" fill="currentColor" />
        <path d="M11.1576 12.4883C11.1576 12.4883 8.3202 11.0697 8.3202 8.23242C8.3202 6.09102 9.9365 4.75772 10.7293 4.23252C10.9917 4.0587 11.3236 4.0587 11.586 4.23252C12.3788 4.75772 13.9951 6.09102 13.9951 8.23242C13.9951 11.0697 11.1576 12.4883 11.1576 12.4883Z" fill="currentColor" />
        <path d="M6.90148 17.4531C6.90148 17.4531 8.3202 20.2903 11.1576 20.2903C13.2991 20.2903 14.6325 18.6742 15.1577 17.8814C15.3316 17.619 15.3316 17.2871 15.1577 17.0247C14.6325 16.2319 13.2991 14.6158 11.1576 14.6158C8.3202 14.6158 6.90148 17.4531 6.90148 17.4531Z" fill="currentColor" />
        <path d="M6.5468 17.0984C6.5468 17.0984 3.70937 15.6798 3.70937 12.8425C3.70937 10.7011 5.32566 9.36779 6.11849 8.84259C6.38088 8.66877 6.71273 8.66877 6.97512 8.84259C7.76794 9.36779 9.38424 10.7011 9.38424 12.8425C9.38424 15.6798 6.5468 17.0984 6.5468 17.0984Z" fill="currentColor" />
    </g>
    <path d="M14.3497 9.65091L2.99997 21M19.6699 8.58588C17.5418 10.7138 14.3497 9.64986 14.3497 9.64986C14.3497 9.64986 13.2857 6.45793 15.4138 4.32997C17.0366 2.70725 19.2782 2.9407 20.2511 3.14302C20.5593 3.20711 20.7929 3.44069 20.8569 3.74886C21.0593 4.72175 21.2927 6.96317 19.6699 8.58588ZM15.7684 15.6803C12.931 15.6803 11.5123 12.843 11.5123 12.843C11.5123 12.843 12.931 10.0057 15.7684 10.0057C17.9099 10.0057 19.2433 11.6218 19.7685 12.4146C19.9424 12.677 19.9424 13.0089 19.7685 13.2713C19.2433 14.0641 17.9099 15.6803 15.7684 15.6803ZM8.32017 8.23242C8.32017 11.0697 11.1576 12.4883 11.1576 12.4883C11.1576 12.4883 13.995 11.0697 13.995 8.23242C13.995 6.09102 12.3787 4.75772 11.5859 4.23252C11.3235 4.0587 10.9917 4.0587 10.7293 4.23252C9.93647 4.75772 8.32017 6.09102 8.32017 8.23242ZM11.1576 20.2903C8.32017 20.2903 6.90145 17.4531 6.90145 17.4531C6.90145 17.4531 8.32017 14.6158 11.1576 14.6158C13.2991 14.6158 14.6324 16.2319 15.1577 17.0247C15.3316 17.2871 15.3316 17.619 15.1577 17.8814C14.6324 18.6742 13.2991 20.2903 11.1576 20.2903ZM3.70933 12.8425C3.70933 15.6798 6.54677 17.0984 6.54677 17.0984C6.54677 17.0984 9.38421 15.6798 9.38421 12.8425C9.38421 10.7011 7.76791 9.36779 6.97508 8.84259C6.71269 8.66877 6.38085 8.66877 6.11846 8.84259C5.32563 9.36779 3.70933 10.7011 3.70933 12.8425Z" stroke="currentColor" stroke-width="2" stroke-linecap="round" stroke-linejoin="round" />
</svg>