<svg xmlns="http://www.w3.org/2000/svg" width="24" height="24" viewBox="0 0 24 24" fill="none">
    <path opacity="0.4" d="M13 20V17.7143L18.5123 12.202C18.6416 12.0727 18.8171 12 19 12C19.1829 12 19.3584 12.0727 19.4877 12.202L20.798 13.5123C20.9273 13.6416 21 13.8171 21 14C21 14.1829 20.9273 14.3584 20.798 14.4877L15.2857 20H13Z" fill="currentColor" />
    <path d="M2 7.81966C4.75011 5.35989 8.31034 4 12 4C15.6897 4 19.2499 5.35989 22 7.81966M5 11.8587C6.86929 10.0264 9.38247 9.00009 12 9.00009C13.432 9.00009 14.8327 9.30725 16.1139 9.88549M8.5 15.4287C9.43464 14.5125 10.6912 13.9994 12 13.9994" stroke="currentColor" stroke-width="2" stroke-linecap="round" stroke-linejoin="round" />
    <path d="M13 20V17.7143L18.5123 12.202C18.6416 12.0727 18.8171 12 19 12C19.1829 12 19.3584 12.0727 19.4877 12.202L20.798 13.5123C20.9273 13.6416 21 13.8171 21 14C21 14.1829 20.9273 14.3584 20.798 14.4877L15.2857 20H13Z" stroke="currentColor" stroke-width="2" stroke-linecap="round" stroke-linejoin="round" />
</svg>