<svg xmlns="http://www.w3.org/2000/svg" width="24" height="24" viewBox="0 0 24 24" fill="none">
    <path opacity="0.4" d="M22 15.5C22 13.2909 20.2091 11.5 18 11.5C15.7909 11.5 14 13.2909 14 15.5C14 17.7091 15.7909 19.5 18 19.5C20.2091 19.5 22 17.7091 22 15.5Z" fill="currentColor" />
    <path d="M2 7.81966C4.75011 5.35989 8.31034 4 12 4C15.6897 4 19.2499 5.35989 22 7.81966M5 11.8587C6.38599 10.5001 8.12597 9.58466 10 9.20209M8.5 15.4287C8.93844 14.9989 9.44772 14.6578 10 14.4168" stroke="currentColor" stroke-width="2" stroke-linecap="round" stroke-linejoin="round" />
    <path d="M21.4649 13.5C20.7733 12.3044 19.4806 11.5 18 11.5C16.4726 11.5 15.1451 12.3561 14.4713 13.6147M14.5351 17.5C15.2267 18.6956 16.5194 19.5 18 19.5C19.5227 19.5 20.8467 18.6492 21.5224 17.397M17 14H14V11M19 17H22V20" stroke="currentColor" stroke-width="2" stroke-linecap="round" stroke-linejoin="round" />
</svg>