<svg xmlns="http://www.w3.org/2000/svg" width="24" height="24" viewBox="0 0 24 24" fill="none">
    <path d="M5.5 17C3.52684 16.7534 2 15.0665 2 13.0222V10.0155C2 7.20036 2 5.79279 2.67412 4.78166C2.96596 4.34393 3.34096 3.9681 3.77772 3.67561C4.78661 3 6.19108 3 9 3H15C17.8089 3 19.2134 3 20.2223 3.67561C20.659 3.9681 21.034 4.34393 21.3259 4.78166C22 5.79279 22 7.20036 22 10.0155V13.0222C22 15.0665 20.4732 16.7534 18.5 17" stroke="currentColor" stroke-width="2" stroke-linecap="round" stroke-linejoin="round" />
    <path opacity="0.4" d="M15.0944 17.6577L13.5672 16.113C12.8337 15.371 12.4669 15 12 15C11.5331 15 11.1663 15.371 10.4328 16.113L8.90558 17.6577C7.48888 19.0908 6.78053 19.8073 7.06018 20.4036C7.33983 21 8.38417 21 10.4728 21H13.5272C15.6158 21 16.6602 21 16.9398 20.4036C17.2195 19.8073 16.5111 19.0908 15.0944 17.6577Z" stroke="currentColor" stroke-width="2" stroke-linecap="round" stroke-linejoin="round" />
</svg>