<svg xmlns="http://www.w3.org/2000/svg" width="24" height="24" viewBox="0 0 24 24" fill="none">
    <path opacity="0.4" d="M15.001 10.001C15.001 11.6579 13.6579 13.001 12.001 13.001C10.3441 13.001 9.00098 11.6579 9.00098 10.001C9.00098 8.34413 10.3441 7.00098 12.001 7.00098C13.6579 7.00098 15.001 8.34413 15.001 10.001Z" stroke="currentColor" stroke-width="2" stroke-linecap="round" />
    <path opacity="0.4" d="M20.501 2.00098C20.3343 2.90098 19.501 4.76098 17.501 5.00098" stroke="currentColor" stroke-width="2" stroke-linecap="round" />
    <path opacity="0.4" d="M3.50098 2.00098C3.66765 2.90098 4.50098 4.76098 6.50098 5.00098" stroke="currentColor" stroke-width="2" stroke-linecap="round" />
    <path d="M8.83984 3.69303C5.58597 5.14149 4.44377 8.62355 4.52056 10.4653C3.39754 10.3885 2.02233 10.5143 2.0012 11.9504C1.98007 13.3865 3.46473 13.6404 4.52056 13.4677V19.8754C4.53825 20.4058 4.58587 21.0997 5.13486 21.3431C6.41145 21.909 7.48648 20.192 8.65453 20.2707C9.5626 20.332 10.877 22.0902 12.0328 21.994C13.3715 21.8825 14.4018 20.2762 15.4255 20.2762C16.6393 20.2762 16.852 21.2769 18.3136 21.4362C19.4038 21.5551 19.5147 20.5155 19.5147 19.956V13.4798C21.404 13.714 22.1527 12.877 21.9722 11.6981C21.7591 10.3069 20.1255 10.4063 19.4754 10.4951C19.5764 9.46066 19.11 8.15503 18.9086 7.64327C18.6118 6.73221 17.3921 4.57861 14.7717 3.51076C12.1513 2.44292 9.7133 3.2326 8.83984 3.69303Z" stroke="currentColor" stroke-width="2" stroke-linecap="round" stroke-linejoin="round" />
    <path d="M12.126 17.001H12.001M12.251 17.001C12.251 17.139 12.139 17.251 12.001 17.251C11.8629 17.251 11.751 17.139 11.751 17.001C11.751 16.8629 11.8629 16.751 12.001 16.751C12.139 16.751 12.251 16.8629 12.251 17.001Z" stroke="currentColor" stroke-width="2" stroke-linecap="round" stroke-linejoin="round" />
</svg>