<svg xmlns="http://www.w3.org/2000/svg" width="24" height="24" viewBox="0 0 24 24" fill="none">
    <path opacity="0.4" d="M8.17214 10.6289C6.8449 11.4027 5 12.9389 5 15.5001C5 17.9854 7.01472 20.0001 9.5 20.0001C13.2504 20.0001 15.9589 17.2218 16.7572 13.9806C17.0125 12.9441 17.1401 12.4259 17.4118 12.213C17.6834 12.0001 18.1223 12.0001 19 12.0001" stroke="currentColor" stroke-width="2" stroke-linecap="round" stroke-linejoin="round" />
    <path d="M17 20C17 20 6.5 11 6.5 7C6.5 5.34315 7.84315 4 9.5 4C11.1569 4 12.5 5.34315 12.5 7C12.5 9 9.5 10 9.5 10C9.5 10 8.91776 10.1941 8.17214 10.6288" stroke="currentColor" stroke-width="2" stroke-linecap="round" stroke-linejoin="round" />
</svg>