<svg xmlns="http://www.w3.org/2000/svg" width="24" height="24" viewBox="0 0 24 24" fill="none">
    <path d="M8 19V4" stroke="currentColor" stroke-width="2" stroke-linecap="round" stroke-linejoin="round" />
    <path opacity="0.4" d="M20 18V16C20 14.8954 19.1046 14 18 14C16.8954 14 16 14.8954 16 16V18C16 19.1046 16.8954 20 18 20C19.1046 20 20 19.1046 20 18Z" stroke="currentColor" stroke-width="2" stroke-linecap="round" stroke-linejoin="round" />
    <path opacity="0.4" d="M16 9.25C15.5858 9.25 15.25 9.58579 15.25 10C15.25 10.4142 15.5858 10.75 16 10.75V10V9.25ZM20 10.75C20.4142 10.75 20.75 10.4142 20.75 10C20.75 9.58579 20.4142 9.25 20 9.25V10V10.75ZM17.25 10C17.25 10.4142 17.5858 10.75 18 10.75C18.4142 10.75 18.75 10.4142 18.75 10H18H17.25ZM15.5492 4.38702C15.2182 4.63598 15.1516 5.10617 15.4006 5.43722C15.6495 5.76827 16.1197 5.83481 16.4508 5.58585L16 4.98644L15.5492 4.38702ZM16.4 4.68562L16.8508 5.28504L16.8508 5.28504L16.4 4.68562ZM17.7236 4.03665L17.3875 4.70711H17.3875L17.7236 4.03665ZM16 10V10.75H20V10V9.25H16V10ZM18 5.48779H17.25V10H18H18.75V5.48779H18ZM16 4.98644L16.4508 5.58585L16.8508 5.28504L16.4 4.68562L15.9492 4.08621L15.5492 4.38702L16 4.98644ZM18 5.48779H18.75C18.75 5.07572 18.752 4.68094 18.7075 4.37745C18.664 4.07994 18.5408 3.60739 18.0597 3.3662L17.7236 4.03665L17.3875 4.70711C17.1828 4.60449 17.1978 4.41999 17.2234 4.59465C17.248 4.76332 17.25 5.02482 17.25 5.48779H18ZM16.4 4.68562L16.8508 5.28504C17.2203 5.00716 17.4298 4.85207 17.5788 4.77086C17.7328 4.68695 17.593 4.81017 17.3875 4.70711L17.7236 4.03665L18.0597 3.3662C17.5778 3.12457 17.1253 3.30976 16.8611 3.45372C16.592 3.60038 16.2779 3.83906 15.9492 4.08621L16.4 4.68562Z" fill="currentColor" />
    <path d="M4 16C4 16 6.94596 20 8.00003 20C9.05411 20 12 16 12 16" stroke="currentColor" stroke-width="2" stroke-linecap="round" stroke-linejoin="round" />
</svg>