<svg xmlns="http://www.w3.org/2000/svg" width="24" height="24" viewBox="0 0 24 24" fill="none">
    <path opacity="0.4" d="M12.0874 18.9998C11.2968 18.9795 10.9545 17.3748 10.2698 14.1654L9.37437 9.96823C8.68089 6.71761 8.33415 5.0923 7.62316 5.00722C7.54244 4.99756 7.46081 4.99759 7.38009 5.00733C6.66919 5.09305 6.31849 6.74457 5.61709 10.0476C5.34604 11.324 5.21051 11.9622 4.79244 12.3751C4.69273 12.4736 4.58264 12.5614 4.46403 12.6371C3.96676 12.9544 3.31111 12.9544 1.99982 12.9544" stroke="currentColor" stroke-width="2" stroke-linecap="round" stroke-linejoin="round" />
    <path d="M12.0877 18.9998C12.8783 19.0202 13.3059 17.4353 14.1611 14.2655L15.086 10.8375C15.5331 9.18041 15.7567 8.35186 16.1494 8.15184C16.4186 8.01474 16.7367 8.00491 17.0141 8.12512C17.4189 8.30049 17.6952 9.11359 18.2477 10.7398C18.5323 11.5775 18.6746 11.9963 18.9488 12.298C19.1431 12.5119 19.3829 12.6814 19.6511 12.7947C20.0296 12.9545 20.4796 12.9545 21.3796 12.9545H22.0002" stroke="currentColor" stroke-width="2" stroke-linecap="round" stroke-linejoin="round" />
</svg>