<svg xmlns="http://www.w3.org/2000/svg" width="24" height="24" viewBox="0 0 24 24" fill="none">
    <path d="M9.2995 9.29932C8.79739 9.80142 8.14777 10.156 7.42494 10.2888C4.49201 10.8275 2.55106 13.642 3.08979 16.5749C3.62852 19.5078 6.44296 21.4488 9.37589 20.91C12.3036 20.3723 14.9183 18.9525 16.9355 16.9353" stroke="currentColor" stroke-width="2" stroke-linecap="round" stroke-linejoin="round" />
    <path d="M5.64142 11.1725C6.35428 12.2718 7.5922 12.999 8.99998 12.999C10.1043 12.999 11.1042 12.5515 11.828 11.8279" stroke="currentColor" stroke-width="2" stroke-linecap="round" stroke-linejoin="round" />
    <path opacity="0.4" d="M10.8427 5.84256C11.9228 3.83285 14.2104 2.65532 16.5751 3.08967C19.508 3.6284 21.4489 6.44284 20.9102 9.37576C20.5964 11.084 19.9824 12.6857 19.1245 14.1244M11.1734 5.6405C11.9536 6.14642 12.5464 6.91679 12.8248 7.82465" stroke="currentColor" stroke-width="2" stroke-linecap="round" stroke-linejoin="round" />
    <path d="M3 2.99988L21 20.9999" stroke="currentColor" stroke-width="2" stroke-linecap="round" stroke-linejoin="round" />
</svg>