<svg xmlns="http://www.w3.org/2000/svg" width="24" height="24" viewBox="0 0 24 24" fill="none">
    <path d="M7.11373 7.20703C6.72021 7.40156 6.40162 7.72015 6.20709 8.11367C6 8.53261 6 9.07808 6 10.169C6 10.842 6 11.1784 6.03706 11.5103C6.07217 11.8247 6.13209 12.1358 6.21625 12.4408C6.3051 12.7627 6.43007 13.0751 6.67999 13.6999L7.08907 14.7226C7.28399 15.2099 7.38146 15.4536 7.46544 15.7C7.7631 16.5735 7.93844 17.4839 7.98645 18.4054C8 18.6654 8 18.9278 8 19.4527C8 19.9613 8 20.2157 8.046 20.4264C8.21276 21.1904 8.8095 21.7872 9.5735 21.9539C9.78427 21.9999 10.0386 21.9999 10.5472 21.9999H13.4528C13.9614 21.9999 14.2157 21.9999 14.4265 21.9539C15.1905 21.7872 15.7872 21.1904 15.954 20.4264C16 20.2157 16 19.9613 16 19.4527C16 18.9278 16 18.6654 16.0135 18.4054C16.0382 17.9329 16.0963 17.4632 16.1872 16.9999" stroke="currentColor" stroke-width="2" stroke-linecap="round" stroke-linejoin="round" />
    <path opacity="0.4" d="M14 6.25C13.5858 6.25 13.25 6.58579 13.25 7C13.25 7.41421 13.5858 7.75 14 7.75V7V6.25ZM16.8863 7.20709L16.5539 7.87943V7.87943L16.8863 7.20709ZM17.7929 8.11373L17.1206 8.44608V8.44608L17.7929 8.11373ZM17.9629 11.5104L18.7083 11.5936V11.5936L17.9629 11.5104ZM16.8946 12.7344C16.7479 13.1217 16.943 13.5547 17.3304 13.7014C17.7177 13.8481 18.1507 13.653 18.2974 13.2656L17.596 13L16.8946 12.7344ZM17.7838 12.4408L18.5067 12.6404V12.6404L17.7838 12.4408ZM17.5138 7V7.75C17.7497 7.75 17.9718 7.63903 18.1135 7.45043L17.5138 7ZM14.0136 7V6.25C13.5994 6.25 13.2636 6.58579 13.2636 7H14.0136ZM7.84665 2.31866C7.44118 2.40334 7.18113 2.80068 7.26581 3.20615C7.35049 3.61161 7.74783 3.87166 8.15329 3.78699L7.99997 3.05282L7.84665 2.31866ZM9.58388 3.24002L9.26242 3.91763C9.58865 4.0724 9.97885 3.97273 10.1909 3.68048L9.58388 3.24002ZM14.4434 3.24002L13.8364 3.68048C14.0484 3.97273 14.4386 4.0724 14.7649 3.91763L14.4434 3.24002ZM13.2636 9C13.2636 9.41421 13.5994 9.75 14.0136 9.75C14.4279 9.75 14.7636 9.41421 14.7636 9H14.0136H13.2636ZM14 7V7.75H14.8309V7V6.25H14V7ZM14.8309 7V7.75C15.3884 7.75 15.7626 7.75055 16.0511 7.77352C16.3311 7.79582 16.4654 7.83566 16.5539 7.87943L16.8863 7.20709L17.2186 6.53475C16.8882 6.37144 16.5403 6.30773 16.1701 6.27825C15.8084 6.24945 15.3643 6.25 14.8309 6.25V7ZM16.8863 7.20709L16.5539 7.87943C16.7999 8.00101 16.999 8.20013 17.1206 8.44608L17.7929 8.11373L18.4652 7.78137C18.1978 7.24028 17.7597 6.80222 17.2186 6.53475L16.8863 7.20709ZM18 10.1691H17.25C17.25 10.8579 17.2489 11.1462 17.2176 11.4272L17.9629 11.5104L18.7083 11.5936C18.7511 11.2108 18.75 10.8262 18.75 10.1691H18ZM17.596 13L18.2974 13.2656C18.384 13.037 18.4507 12.8435 18.5067 12.6404L17.7838 12.4408L17.0608 12.2413C17.0216 12.3833 16.9722 12.5296 16.8946 12.7344L17.596 13ZM18 10.1691H18.75C18.75 9.63565 18.7506 9.19165 18.7217 8.82987C18.6923 8.45967 18.6286 8.11176 18.4652 7.78137L17.7929 8.11373L17.1206 8.44608C17.1643 8.53464 17.2042 8.66892 17.2265 8.94893C17.2494 9.23736 17.25 9.61156 17.25 10.1691H18ZM17.9629 11.5104L17.2176 11.4272C17.1868 11.7022 17.1344 11.9745 17.0608 12.2413L17.7838 12.4408L18.5067 12.6404C18.6014 12.2973 18.6688 11.9473 18.7083 11.5936L17.9629 11.5104ZM17.5138 7V6.25H14.0136V7V7.75H17.5138V7ZM7.99997 3.05282L8.15329 3.78699C8.26895 3.76283 8.38939 3.75 8.51364 3.75V3V2.25C8.28575 2.25 8.06256 2.27357 7.84665 2.31866L7.99997 3.05282ZM8.51364 3V3.75C8.78308 3.75 9.03633 3.81038 9.26242 3.91763L9.58388 3.24002L9.90534 2.5624C9.48257 2.36184 9.01012 2.25 8.51364 2.25V3ZM9.58388 3.24002L10.1909 3.68048C10.6011 3.11518 11.2647 2.75 12.0136 2.75V2V1.25C10.7639 1.25 9.65707 1.86209 8.97684 2.79955L9.58388 3.24002ZM12.0136 2V2.75C12.7626 2.75 13.4262 3.11518 13.8364 3.68048L14.4434 3.24002L15.0504 2.79955C14.3702 1.86209 13.2634 1.25 12.0136 1.25V2ZM15.5136 3V3.75C16.4801 3.75 17.2636 4.5335 17.2636 5.5H18.0136H18.7636C18.7636 3.70507 17.3086 2.25 15.5136 2.25V3ZM14.4434 3.24002L14.7649 3.91763C14.991 3.81038 15.2442 3.75 15.5136 3.75V3V2.25C15.0172 2.25 14.5447 2.36184 14.1219 2.5624L14.4434 3.24002ZM18.0136 5.5H17.2636C17.2636 5.89482 17.1338 6.25716 16.9141 6.54957L17.5138 7L18.1135 7.45043C18.5216 6.90718 18.7636 6.23078 18.7636 5.5H18.0136ZM14.0136 7H13.2636V9H14.0136H14.7636V7H14.0136Z" fill="currentColor" />
    <path d="M2 2L22 22" stroke="currentColor" stroke-width="2" stroke-linecap="round" stroke-linejoin="round" />
</svg>