<svg xmlns="http://www.w3.org/2000/svg" width="24" height="24" viewBox="0 0 24 24" fill="none">
    <path d="M13.109 2.01648C13.79 1.92673 14.4006 2.21923 14.899 2.53015C15.4471 2.8721 16.1044 3.39853 16.8883 4.02429C17.4032 4.43533 17.8571 4.7958 18.1871 5.12683C18.5274 5.4681 18.8453 5.88207 18.9557 6.43543C19.0227 6.77176 19.0203 7.11835 18.9498 7.45398C18.8338 8.00622 18.5123 8.41706 18.1686 8.75476C17.8351 9.08232 17.3771 9.43806 16.858 9.84363L14.0983 11.9989L16.859 14.1561C17.378 14.5617 17.8352 14.9175 18.1686 15.245C18.5123 15.5827 18.8338 15.9935 18.9498 16.5458C19.0203 16.8814 19.0227 17.228 18.9557 17.5643C18.8453 18.1177 18.5274 18.5317 18.1871 18.8729C17.8571 19.204 17.4032 19.5644 16.8883 19.9755C16.1044 20.6012 15.4471 21.1277 14.899 21.4696C14.3675 21.8012 13.7083 22.1124 12.9723 21.9608C12.5571 21.8752 12.1707 21.6837 11.8502 21.4071C11.2864 20.9202 11.1219 20.2137 11.0504 19.5868C10.9766 18.94 10.9781 18.0918 10.9781 17.078V14.4374L6.61974 17.8427C6.18458 18.1825 5.55643 18.1059 5.21642 17.6708C4.87639 17.2356 4.95408 16.6065 5.38927 16.2665L10.8492 11.9999L5.38927 7.73328C4.95408 7.39324 4.87639 6.76417 5.21642 6.32898C5.55643 5.89387 6.18457 5.81721 6.61974 6.15711L10.9781 9.5614V6.92175C10.9781 5.90797 10.9766 5.05973 11.0504 4.41297C11.1219 3.78604 11.2864 3.0796 11.8502 2.59265C12.1707 2.31601 12.557 2.12457 12.9723 2.03894L13.109 2.01648ZM12.9781 17.078C12.9781 18.1429 12.979 18.854 13.0367 19.3602C13.0807 19.7452 13.1453 19.87 13.1617 19.8964C13.2218 19.9471 13.2914 19.9809 13.3649 19.9979C13.3939 19.9944 13.5266 19.9691 13.8404 19.7733C14.266 19.5079 14.8152 19.0706 15.6403 18.412C16.1927 17.971 16.5402 17.6925 16.7711 17.4608C16.8798 17.3518 16.9358 17.2783 16.9654 17.2313C16.9894 17.1933 16.9932 17.1769 16.9938 17.1737C17.008 17.1023 17.0077 17.0281 16.9928 16.9569C16.9925 16.9557 16.9905 16.9398 16.9645 16.8993C16.9344 16.8527 16.8771 16.7797 16.7672 16.6718C16.534 16.4426 16.1844 16.1674 15.6276 15.7323L12.9781 13.662V17.078ZM12.9781 10.3368L15.6276 8.26746C16.1844 7.83234 16.534 7.55716 16.7672 7.328C16.8771 7.22004 16.9344 7.14708 16.9645 7.10047C16.9905 7.05998 16.9925 7.04407 16.9928 7.04285C17.0078 6.97161 17.008 6.89746 16.9938 6.82605C16.9932 6.82294 16.9895 6.8066 16.9654 6.76843C16.9358 6.72147 16.8798 6.64799 16.7711 6.53894C16.5402 6.3073 16.1927 6.02879 15.6403 5.58777C14.8152 4.9292 14.266 4.4919 13.8404 4.22644C13.5262 4.0304 13.3937 4.00432 13.3649 4.00086C13.2916 4.01781 13.2217 4.05183 13.1617 4.10242C13.1869 4.07797 13.0941 4.13677 13.0367 4.63953C12.979 5.14571 12.9781 5.85682 12.9781 6.92175V10.3368Z" fill="currentColor" />
    <path d="M5.35706 11.0048C5.86118 11.0561 6.25452 11.4822 6.25452 11.9999C6.25452 12.5522 5.8068 12.9999 5.25452 12.9999C4.70223 12.9999 4.25452 12.5522 4.25452 11.9999C4.25452 11.4476 4.70223 10.9999 5.25452 10.9999L5.35706 11.0048ZM18.7545 10.9999C19.3068 10.9999 19.7545 11.4476 19.7545 11.9999C19.7545 12.5522 19.3068 12.9999 18.7545 12.9999C18.2022 12.9999 17.7545 12.5522 17.7545 11.9999C17.7545 11.4476 18.2022 10.9999 18.7545 10.9999Z" fill="currentColor" />
</svg>