<svg xmlns="http://www.w3.org/2000/svg" width="24" height="24" viewBox="0 0 24 24" fill="none">
    <path d="M19.5 18C19.5 18 18.5 18.7628 18.5 20C18.5 21.2372 19.5 22 19.5 22" stroke="currentColor" stroke-width="2" stroke-linecap="round" stroke-linejoin="round" />
    <path opacity="0.4" d="M14 4.99998C14 4.99998 16.2095 2.00001 17 2C17.7906 1.99999 20 5 20 5" stroke="currentColor" stroke-width="2" stroke-linecap="round" stroke-linejoin="round" />
    <path opacity="0.4" d="M17.75 7.5C17.75 7.08579 17.4142 6.75 17 6.75C16.5858 6.75 16.25 7.08579 16.25 7.5H17H17.75ZM16.25 13C16.25 13.4142 16.5858 13.75 17 13.75C17.4142 13.75 17.75 13.4142 17.75 13H17H16.25ZM17 7L17 6.25L17 7ZM13.3961 9.55521C13.1505 9.88873 13.2217 10.3582 13.5552 10.6039C13.8888 10.8495 14.3583 10.7783 14.6039 10.4447L14 9.99998L13.3961 9.55521ZM19.3961 10.4448C19.6417 10.7783 20.1112 10.8495 20.4448 10.6039C20.7783 10.3583 20.8495 9.88877 20.6039 9.55525L20 10L19.3961 10.4448ZM17 7.5H16.25V13H17H17.75V7.5H17ZM17 7L17 6.25C16.6923 6.25 16.4264 6.38441 16.2569 6.48659C16.0668 6.60119 15.8777 6.75072 15.7012 6.90671C15.3463 7.22021 14.971 7.62391 14.6372 8.00828C14.3003 8.39638 13.9907 8.78228 13.7663 9.0698C13.6538 9.21397 13.562 9.33432 13.498 9.41904C13.466 9.46141 13.4409 9.49493 13.4236 9.5181C13.415 9.52969 13.4083 9.5387 13.4037 9.54495C13.4014 9.54807 13.3996 9.5505 13.3983 9.55222C13.3977 9.55308 13.3972 9.55376 13.3968 9.55426C13.3966 9.55451 13.3965 9.55471 13.3964 9.55487C13.3963 9.55495 13.3962 9.55504 13.3962 9.55508C13.3962 9.55515 13.3961 9.55521 14 9.99998C14.6039 10.4447 14.6039 10.4448 14.6038 10.4448C14.6038 10.4448 14.6038 10.4448 14.6038 10.4448C14.6039 10.4448 14.6039 10.4447 14.604 10.4446C14.6042 10.4444 14.6045 10.444 14.6049 10.4434C14.6058 10.4422 14.6071 10.4403 14.609 10.4378C14.6128 10.4327 14.6186 10.4248 14.6264 10.4145C14.6418 10.3937 14.665 10.3628 14.695 10.3231C14.7549 10.2438 14.8419 10.1297 14.9488 9.99266C15.1634 9.71769 15.4557 9.3536 15.7699 8.9917C16.0873 8.62608 16.4125 8.27978 16.6944 8.03079C16.8361 7.90553 16.9493 7.82069 17.0314 7.77122C17.134 7.70934 17.1101 7.75 17 7.75L17 7ZM20 10C20.6039 9.55525 20.6039 9.55518 20.6038 9.55511C20.6038 9.55507 20.6037 9.55499 20.6036 9.55491C20.6035 9.55475 20.6034 9.55454 20.6032 9.55429C20.6028 9.55379 20.6023 9.55311 20.6017 9.55225C20.6004 9.55054 20.5986 9.5481 20.5963 9.54498C20.5917 9.53874 20.585 9.52973 20.5764 9.51814C20.5591 9.49496 20.534 9.46145 20.502 9.41907C20.438 9.33435 20.3462 9.21399 20.2337 9.06983C20.0093 8.7823 19.6998 8.39639 19.3628 8.00829C19.0291 7.62392 18.6537 7.22022 18.2989 6.90671C18.1223 6.75072 17.9332 6.60119 17.7431 6.48659C17.5736 6.38441 17.3077 6.25 17 6.25L17 7L17 7.75C16.89 7.75 16.866 7.70934 16.9687 7.77122C17.0507 7.82068 17.1639 7.90553 17.3057 8.03078C17.5875 8.27978 17.9127 8.62608 18.2301 8.9917C18.5444 9.3536 18.8366 9.7177 19.0512 9.99267C19.1581 10.1298 19.2451 10.2438 19.305 10.3231C19.335 10.3628 19.3581 10.3937 19.3736 10.4145C19.3814 10.4249 19.3872 10.4327 19.391 10.4378C19.3929 10.4404 19.3942 10.4422 19.3951 10.4434C19.3955 10.444 19.3958 10.4444 19.396 10.4446C19.3961 10.4447 19.3961 10.4448 19.3961 10.4448C19.3962 10.4448 19.3961 10.4448 19.3962 10.4448C19.3961 10.4448 19.3961 10.4448 20 10Z" fill="currentColor" />
    <path d="M20 15V18H6C4.89543 18 4 18.8954 4 20M12 2H10C7.17157 2 5.75736 2 4.87868 2.87868C4 3.75736 4 5.17157 4 8V20M4 20C4 21.1046 4.89543 22 6 22H20" stroke="currentColor" stroke-width="2" stroke-linecap="round" stroke-linejoin="round" />
</svg>