<svg xmlns="http://www.w3.org/2000/svg" width="24" height="24" viewBox="0 0 24 24" fill="none">
    <path d="M4.73134 4.73132C4.52726 4.85571 4.34187 5.00126 4.17157 5.17156C3 6.34313 3 8.22875 3 12V14C3 17.7712 3 19.6568 4.17157 20.8284C5.34315 22 7.22876 22 11 22H13C16.7712 22 18.6569 22 19.8284 20.8284C19.9987 20.6581 20.1443 20.4727 20.2687 20.2687" stroke="currentColor" stroke-width="2" stroke-linecap="round" stroke-linejoin="round" />
    <path d="M3 10H10" stroke="currentColor" stroke-width="2" stroke-linecap="round" stroke-linejoin="round" />
    <path opacity="0.4" d="M16.75 2C16.75 1.58579 16.4142 1.25 16 1.25C15.5858 1.25 15.25 1.58579 15.25 2H16H16.75ZM15.25 6C15.25 6.41421 15.5858 6.75 16 6.75C16.4142 6.75 16.75 6.41421 16.75 6H16H15.25ZM19.8284 5.17157L19.2981 5.7019V5.7019L19.8284 5.17157ZM8.99782 3.25864C8.58365 3.26457 8.25271 3.60513 8.25864 4.0193C8.26457 4.43347 8.60512 4.76442 9.0193 4.75849L9.00856 4.00857L8.99782 3.25864ZM20.2415 15.9807C20.2356 16.3949 20.5665 16.7354 20.9807 16.7414C21.3949 16.7473 21.7354 16.4163 21.7413 16.0022L20.9914 15.9914L20.2415 15.9807ZM15 9.25C14.5858 9.25 14.25 9.58579 14.25 10C14.25 10.4142 14.5858 10.75 15 10.75V10V9.25ZM21 10.75C21.4142 10.75 21.75 10.4142 21.75 10C21.75 9.58579 21.4142 9.25 21 9.25V10V10.75ZM16 2H15.25V6H16H16.75V2H16ZM11 4V4.75H13V4V3.25H11V4ZM21 12H20.25V14H21H21.75V12H21ZM13 4V4.75C14.9068 4.75 16.2615 4.75159 17.2891 4.88976C18.2952 5.02502 18.8749 5.27869 19.2981 5.7019L19.8284 5.17157L20.3587 4.64124C19.6104 3.89288 18.6614 3.56076 17.489 3.40313C16.3382 3.24841 14.8644 3.25 13 3.25V4ZM21 12H21.75C21.75 10.1356 21.7516 8.66183 21.5969 7.51098C21.4392 6.33856 21.1071 5.38961 20.3587 4.64124L19.8284 5.17157L19.2981 5.7019C19.7213 6.12511 19.975 6.70476 20.1102 7.71085C20.2484 8.73852 20.25 10.0932 20.25 12H21ZM11 4V3.25C10.2694 3.25 9.60273 3.24998 8.99782 3.25864L9.00856 4.00857L9.0193 4.75849C9.61135 4.75002 10.2666 4.75 11 4.75V4ZM21 14H20.25C20.25 14.7334 20.25 15.3886 20.2415 15.9807L20.9914 15.9914L21.7413 16.0022C21.75 15.3973 21.75 14.7306 21.75 14H21ZM15 10V10.75H21V10V9.25H15V10Z" fill="currentColor" />
    <path d="M2 2L22 22" stroke="currentColor" stroke-width="2" stroke-linecap="round" stroke-linejoin="round" />
</svg>