<svg xmlns="http://www.w3.org/2000/svg" width="24" height="24" viewBox="0 0 24 24" fill="none">
    <path opacity="0.4" d="M7.33984 18H17.3398" stroke="currentColor" stroke-width="2" stroke-linecap="round" />
    <path d="M14.3398 9C14.1732 9.83333 13.3398 11.6 11.3398 12" stroke="currentColor" stroke-width="2" stroke-linecap="round" stroke-linejoin="round" />
    <path d="M17.339 18.006C17.4903 17.5538 17.6279 17.1432 17.6751 17.0042C18.5514 14.4248 19.339 12.1062 19.339 9C19.339 5.13401 16.205 2 12.339 2C11.3962 2 10.9248 2 10.6319 2.29289C10.339 2.58579 10.339 3.05719 10.339 4V4.5L5.57157 7.28099C4.84641 7.704 4.50037 8.56485 4.731 9.37207L5.04894 10.4849C5.19966 11.0124 5.79258 11.2732 6.28329 11.0278C6.32037 11.0093 6.35925 10.9931 6.39873 10.9805C8.77103 10.2188 10.6779 11.3389 11.339 12L7.33967 18C7.12289 18.0076 6.96161 18.0306 6.82134 18.0681C6.13116 18.2531 5.59206 18.7922 5.40713 19.4824C5.33898 19.7367 5.33898 20.0467 5.33898 20.6667C5.33898 20.9767 5.33898 21.1317 5.37306 21.2588C5.46552 21.6039 5.73507 21.8735 6.08016 21.9659C6.20733 22 6.36232 22 6.67232 22H18.0056C18.3156 22 18.4706 22 18.5978 21.9659C18.9429 21.8735 19.2124 21.6039 19.3049 21.2588C19.339 21.1317 19.339 20.9767 19.339 20.6667C19.339 20.0467 19.339 19.7367 19.2708 19.4824C19.0859 18.7922 18.5468 18.2531 17.8566 18.0681C17.7156 18.0304 17.5575 18.0135 17.339 18.006Z" stroke="currentColor" stroke-width="2" stroke-linecap="round" stroke-linejoin="round" />
</svg>