<svg xmlns="http://www.w3.org/2000/svg" width="24" height="24" viewBox="0 0 24 24" fill="none">
    <path d="M4.22302 11C4.07706 11.6432 4 12.3126 4 13C4 17.9706 8.02944 22 13 22C17.9706 22 22 17.9706 22 13C22 8.02944 17.9706 4 13 4C12.3126 4 11.6432 4.07706 11 4.22302" stroke="currentColor" stroke-width="2" stroke-linecap="round" stroke-linejoin="round" />
    <path opacity="0.4" d="M11.4697 12.5303C11.7626 12.8232 12.2374 12.8232 12.5303 12.5303C12.8232 12.2374 12.8232 11.7626 12.5303 11.4697L12 12L11.4697 12.5303ZM3.53033 2.46967C3.23744 2.17678 2.76256 2.17678 2.46967 2.46967C2.17678 2.76256 2.17678 3.23744 2.46967 3.53033L3 3L3.53033 2.46967ZM2.33193 2.33192L1.8016 1.80159L1.8016 1.80159L2.33193 2.33192ZM1.59038 8.11252C1.65252 8.52205 2.03488 8.80365 2.44441 8.74151C2.85393 8.67937 3.13554 8.29701 3.0734 7.88748L2.33189 8L1.59038 8.11252ZM7.88747 3.07345C8.29699 3.1356 8.67936 2.854 8.74151 2.44447C8.80366 2.03495 8.52206 1.65258 8.11253 1.59043L8 2.33194L7.88747 3.07345ZM12 12L12.5303 11.4697L3.53033 2.46967L3 3L2.46967 3.53033L11.4697 12.5303L12 12ZM2.33193 2.33192L1.8016 1.80159C1.56055 2.04264 1.44997 2.36558 1.38953 2.60951C1.3233 2.87677 1.28723 3.17999 1.26829 3.48635C1.23027 4.10136 1.25617 4.82456 1.30371 5.49878C1.3516 6.17792 1.4232 6.83025 1.48251 7.31119C1.51223 7.55216 1.53901 7.75127 1.55844 7.89063C1.56816 7.96033 1.57604 8.01515 1.58154 8.05286C1.5843 8.07172 1.58645 8.08631 1.58795 8.09634C1.5887 8.10136 1.58928 8.10524 1.58968 8.10795C1.58989 8.1093 1.59005 8.11036 1.59016 8.11112C1.59022 8.11151 1.59027 8.11181 1.5903 8.11205C1.59032 8.11216 1.59034 8.11228 1.59035 8.11234C1.59036 8.11244 1.59038 8.11252 2.33189 8C3.0734 7.88748 3.0734 7.88752 3.07341 7.88755C3.07341 7.88753 3.07341 7.88754 3.0734 7.8875C3.07339 7.88744 3.07337 7.8873 3.07334 7.88708C3.07327 7.88665 3.07316 7.88593 3.07301 7.88491C3.07271 7.88289 3.07223 7.8797 3.07159 7.87538C3.0703 7.86674 3.06835 7.8536 3.06582 7.83624C3.06075 7.8015 3.05332 7.74986 3.04408 7.68354C3.02558 7.55085 2.99985 7.35965 2.97123 7.12758C2.91387 6.66245 2.84544 6.03779 2.79999 5.39326C2.7542 4.74381 2.73343 4.09667 2.76543 3.5789C2.7815 3.31887 2.80961 3.11509 2.8455 2.97027C2.88716 2.80212 2.9166 2.80791 2.86226 2.86224L2.33193 2.33192ZM8 2.33194C8.11253 1.59043 8.11245 1.59042 8.11235 1.5904C8.11229 1.5904 8.11218 1.59038 8.11206 1.59036C8.11183 1.59032 8.11152 1.59028 8.11114 1.59022C8.11037 1.59011 8.10931 1.58995 8.10796 1.58974C8.10525 1.58933 8.10137 1.58875 8.09635 1.58801C8.08632 1.58651 8.07173 1.58435 8.05287 1.5816C8.01516 1.5761 7.96034 1.56821 7.89064 1.55849C7.75128 1.53906 7.55217 1.51228 7.3112 1.48256C6.83026 1.42323 6.17793 1.35163 5.49879 1.30373C4.82457 1.25617 4.10137 1.23027 3.48637 1.26828C3.18 1.28722 2.87678 1.32329 2.60952 1.38951C2.36559 1.44995 2.04264 1.56054 1.8016 1.80159L2.33193 2.33192L2.86226 2.86224C2.80792 2.91659 2.80213 2.88715 2.97028 2.84548C3.11509 2.8096 3.31887 2.7815 3.5789 2.76542C4.09667 2.73342 4.74381 2.7542 5.39326 2.80001C6.03778 2.84547 6.66244 2.9139 7.12757 2.97127C7.35963 2.9999 7.55084 3.02563 7.68353 3.04413C7.74985 3.05337 7.80148 3.0608 7.83622 3.06587C7.85359 3.06841 7.86673 3.07035 7.87537 3.07164C7.87968 3.07228 7.88287 3.07276 7.8849 3.07306C7.88592 3.07322 7.88664 3.07333 7.88707 3.07339C7.88728 3.07342 7.88742 3.07344 7.88749 3.07345C7.88753 3.07346 7.88752 3.07346 7.88754 3.07346C7.88751 3.07346 7.88747 3.07345 8 2.33194Z" fill="currentColor" />
</svg>