<svg xmlns="http://www.w3.org/2000/svg" width="24" height="24" viewBox="0 0 24 24" fill="none">
    <path d="M12 22C17.5228 22 22 17.5228 22 12C22 6.47715 17.5228 2 12 2C6.47715 2 2 6.47715 2 12C2 17.5228 6.47715 22 12 22Z" stroke="currentColor" stroke-width="2" stroke-linecap="round" stroke-linejoin="round" />
    <path opacity="0.4" d="M9.84339 14.718C9.68762 14.3342 9.25021 14.1493 8.8664 14.305C8.48259 14.4608 8.29772 14.8982 8.45349 15.282L9.14844 15L9.84339 14.718ZM13.9115 9.26128C14.0558 9.64955 14.4875 9.84732 14.8758 9.70302C15.264 9.55871 15.4618 9.12698 15.3175 8.73872L14.6145 9L13.9115 9.26128ZM12.75 6C12.75 5.58579 12.4142 5.25 12 5.25C11.5858 5.25 11.25 5.58579 11.25 6L12 6L12.75 6ZM11.25 18C11.25 18.4142 11.5858 18.75 12 18.75C12.4142 18.75 12.75 18.4142 12.75 18H12H11.25ZM12.0002 16.6663V15.9163C10.9039 15.9163 10.0967 15.3422 9.84339 14.718L9.14844 15L8.45349 15.282C8.98545 16.5928 10.435 17.4163 12.0002 17.4163V16.6663ZM15.0002 14.2466H14.2502C14.2502 14.8878 14.0162 15.2575 13.6847 15.4949C13.3159 15.7591 12.7412 15.9163 12.0002 15.9163V16.6663V17.4163C12.916 17.4163 13.8413 17.2279 14.5582 16.7143C15.3126 16.174 15.7502 15.3338 15.7502 14.2466H15.0002ZM12.0002 11.8268V12.5768C12.9414 12.5768 13.4868 12.7449 13.7897 12.9806C14.0506 13.1835 14.2502 13.5314 14.2502 14.2466H15.0002H15.7502C15.7502 13.2334 15.4498 12.3714 14.7106 11.7965C14.0136 11.2544 13.0589 11.0768 12.0002 11.0768V11.8268ZM12.0002 11.8268V11.0768C11.0666 11.0768 10.5859 10.8998 10.3449 10.7063C10.1412 10.5426 10.0002 10.2779 10.0002 9.75276H9.25017H8.50017C8.50017 10.564 8.73413 11.3363 9.40545 11.8756C10.0395 12.385 10.9337 12.5768 12.0002 12.5768V11.8268ZM9.25017 9.75276H10.0002C10.0002 8.91786 10.8026 8.08301 12.0002 8.08301V7.33301V6.58301C10.1602 6.58301 8.50017 7.91487 8.50017 9.75276H9.25017ZM12.0002 7.33301V8.08301C12.9469 8.08301 13.6743 8.62313 13.9115 9.26128L14.6145 9L15.3175 8.73872C14.8353 7.4412 13.4936 6.58301 12.0002 6.58301V7.33301ZM12 6L11.25 6L11.25 18H12H12.75L12.75 6L12 6Z" fill="currentColor" />
</svg>