<svg xmlns="http://www.w3.org/2000/svg" width="24" height="24" viewBox="0 0 24 24" fill="none">
    <path d="M6.52042 9.52266C3.98398 9.76403 2 11.9003 2 14.5C2 17.2614 4.23858 19.5 7 19.5H17.5C18.0928 19.5 18.6588 19.3853 19.1771 19.177M6.52042 9.52266C6.67826 9.50764 6.83823 9.49995 7 9.49995C8.12582 9.49995 9.16474 9.87204 10.0005 10.5M6.52042 9.52266C6.59145 8.69636 6.84518 7.92227 7.24101 7.24097" stroke="currentColor" stroke-width="2" stroke-linecap="round" stroke-linejoin="round" />
    <path opacity="0.4" d="M17.4776 10.5001C17.4851 10.5 17.4925 10.5 17.5 10.5C19.9853 10.5 22 12.5147 22 15C22 15.8582 21.7598 16.6604 21.3428 17.3428M17.4776 10.5001C17.4924 10.3354 17.5 10.1686 17.5 10C17.5 6.96243 15.0376 4.5 12 4.5C10.9945 4.5 10.052 4.76982 9.24103 5.24101M17.4776 10.5001C17.4039 11.3178 17.1512 12.0839 16.759 12.759" stroke="currentColor" stroke-width="2" stroke-linecap="round" stroke-linejoin="round" />
    <path d="M2 2L22 22" stroke="currentColor" stroke-width="2" stroke-linecap="round" stroke-linejoin="round" />
</svg>