<svg xmlns="http://www.w3.org/2000/svg" width="24" height="24" viewBox="0 0 24 24" fill="none">
    <path d="M9.79348 18.1484C9.93726 18.3402 9.83429 18.7421 9.62834 19.5458C9.34456 20.6532 9.20267 21.2069 9.47937 21.5874C9.49163 21.6043 9.50442 21.6208 9.51772 21.6369C9.81767 21.9994 10.3893 21.9994 11.5325 21.9994H12.4722C13.6071 21.9994 14.1746 21.9994 14.4744 21.642C14.4911 21.6221 14.5071 21.6015 14.5222 21.5803C14.7931 21.2006 14.6511 20.6512 14.367 19.5524C14.16 18.7515 14.0565 18.351 14.1975 18.1595" stroke="currentColor" stroke-width="2" stroke-linecap="round" stroke-linejoin="round" />
    <path opacity="0.4" d="M9.79388 18.1491C9.78605 18.1386 9.78248 18.1342 9.774 18.1243C9.61832 17.942 9.11242 17.9573 8.10063 17.9878C7.99822 17.9909 7.89555 17.9909 7.79279 17.9877C6.97315 17.962 6.1728 17.7356 5.46367 17.3287C4.75454 16.9217 4.15886 16.3471 3.73016 15.6564C3.30146 14.9657 3.05319 14.1805 3.00764 13.3715C2.9621 12.5625 3.12071 11.755 3.46923 11.0216C3.81775 10.2881 4.34526 9.65176 5.00433 9.16964C5.35144 8.91572 5.72932 8.70879 6.12784 8.55293C6.65479 8.34685 6.91826 8.24381 7.00581 8.10876C7.09336 7.9737 7.07979 7.68934 7.05263 7.12062C7.03503 6.75186 7.05968 6.38108 7.12697 6.01542C7.26442 5.26848 7.57599 4.56343 8.03701 3.95608C8.49803 3.34874 9.09583 2.85579 9.78307 2.51627C10.4703 2.17676 11.2281 2 11.9965 2C12.7649 2 13.5227 2.17676 14.2099 2.51627C14.8971 2.85579 15.495 3.34874 15.956 3.95608C16.417 4.56343 16.7286 5.26848 16.866 6.01542C16.9368 6.3999 16.9514 6.76505 16.9383 7.08512C16.9138 7.67968 16.9016 7.97696 16.988 8.11043C17.0745 8.24391 17.3518 8.35471 17.9063 8.57633C18.2909 8.72998 18.6558 8.93137 18.9919 9.17677C19.6521 9.65876 20.1806 10.2954 20.5298 11.0294C20.879 11.7634 21.038 12.5717 20.9924 13.3815C20.9467 14.1913 20.698 14.9772 20.2685 15.6684C19.839 16.3596 19.2423 16.9344 18.532 17.341C17.8218 17.7476 17.0203 17.9733 16.1998 17.9978C16.097 18.0008 15.9943 18.0007 15.8918 17.9975C14.883 17.9655 14.3786 17.9495 14.2228 18.1292C14.2121 18.1415 14.2076 18.1471 14.1979 18.1602" stroke="currentColor" stroke-width="2" stroke-linecap="round" stroke-linejoin="round" />
</svg>