<svg xmlns="http://www.w3.org/2000/svg" width="24" height="24" viewBox="0 0 24 24" fill="none">
    <path d="M15 2.25024H9C6.17157 2.25024 4.75736 2.25024 3.87868 3.12892C3 4.0076 3 5.42182 3 8.25024V13.628C3 16.091 3 17.3224 3.67959 18.1517C3.80506 18.3049 3.94539 18.4452 4.0985 18.5707C4.92781 19.2502 6.15928 19.2502 8.62223 19.2502C9.02437 19.2502 9.22543 19.2502 9.40521 19.3226C9.43933 19.3364 9.47266 19.352 9.50506 19.3694C9.67577 19.4612 9.80449 19.6156 10.0619 19.9246L10.4636 20.4065C11.1756 21.261 11.5316 21.7502 12 21.7502C12.4684 21.7502 12.8244 21.261 13.5364 20.4065L13.9381 19.9246C14.1955 19.6156 14.3242 19.4612 14.4949 19.3694C14.5273 19.352 14.5607 19.3364 14.5948 19.3226C14.7746 19.2502 14.9756 19.2502 15.3778 19.2502C17.8407 19.2502 19.0722 19.2502 19.9015 18.5707C20.0546 18.4452 20.1949 18.3049 20.3204 18.1517C21 17.3224 21 16.091 21 13.628V8.25024C21 5.42182 21 4.0076 20.1213 3.12892C19.2426 2.25024 17.8284 2.25024 15 2.25024Z" stroke="currentColor" stroke-width="2" stroke-linecap="round" stroke-linejoin="round" />
    <path opacity="0.4" d="M12 11.2502C13.3807 11.2502 14.5 10.131 14.5 8.75024C14.5 7.36953 13.3807 6.25024 12 6.25024C10.6193 6.25024 9.5 7.36953 9.5 8.75024C9.5 10.131 10.6193 11.2502 12 11.2502ZM12 11.2502C9.79086 11.2502 8 13.0411 8 15.2502M12 11.2502C14.2091 11.2502 16 13.0411 16 15.2502" stroke="currentColor" stroke-width="2" stroke-linecap="round" stroke-linejoin="round" />
</svg>