<svg xmlns="http://www.w3.org/2000/svg" width="24" height="24" viewBox="0 0 24 24" fill="none">
    <path d="M18 10.9512H6C5.05719 10.9512 4.58579 10.9512 4.29289 11.2441C4 11.537 4 12.0084 4 12.9512V15.9512C4 18.7796 4 20.1938 4.87868 21.0725C5.75736 21.9512 7.17157 21.9512 10 21.9512H14C16.8284 21.9512 18.2426 21.9512 19.1213 21.0725C20 20.1938 20 18.7796 20 15.9512V12.9512C20 12.0084 20 11.537 19.7071 11.2441C19.4142 10.9512 18.9428 10.9512 18 10.9512Z" stroke="currentColor" stroke-width="2" stroke-linecap="round" stroke-linejoin="round" />
    <path d="M20 12.9512H22" stroke="currentColor" stroke-width="2" stroke-linecap="round" stroke-linejoin="round" />
    <path d="M2 12.9512H4" stroke="currentColor" stroke-width="2" stroke-linecap="round" stroke-linejoin="round" />
    <path opacity="0.4" d="M3.80589 7.22673C3.40579 7.33393 3.16835 7.74519 3.27556 8.14529C3.38276 8.54539 3.79401 8.78282 4.19411 8.67562L4 7.95117L3.80589 7.22673ZM20.6149 4.27569C21.015 4.16849 21.2524 3.75723 21.1452 3.35713C21.038 2.95703 20.6267 2.7196 20.2266 2.8268L20.4207 3.55125L20.6149 4.27569ZM8.58806 6.7219C8.69526 7.122 9.10651 7.35944 9.50661 7.25223C9.90671 7.14503 10.1442 6.73377 10.0369 6.33367L9.3125 6.52779L8.58806 6.7219ZM9.18309 6.04483L8.45865 6.23894V6.23894L9.18309 6.04483ZM14.9786 4.49191L14.2542 4.68602V4.68603L14.9786 4.49191ZM14.3836 5.16899C14.4908 5.56909 14.9021 5.80652 15.3022 5.69932C15.7023 5.59211 15.9397 5.18086 15.8325 4.78076L15.1081 4.97487L14.3836 5.16899ZM11.3044 2.37059L11.1103 1.64615V1.64615L11.3044 2.37059ZM13.049 2.06073L13.1469 1.31715V1.31715L13.049 2.06073ZM14.3747 2.8261L14.9697 2.36953L14.9697 2.36953L14.3747 2.8261ZM8.87323 4.30021L8.12965 4.20231V4.20231L8.87323 4.30021ZM9.6386 2.97455L9.18203 2.37954V2.37954L9.6386 2.97455ZM4 7.95117L4.19411 8.67562L20.6149 4.27569L20.4207 3.55125L20.2266 2.8268L3.80589 7.22673L4 7.95117ZM9.3125 6.52779L10.0369 6.33367L9.90753 5.85071L9.18309 6.04483L8.45865 6.23894L8.58806 6.7219L9.3125 6.52779ZM14.9786 4.49191L14.2542 4.68603L14.3836 5.16899L15.1081 4.97487L15.8325 4.78076L15.7031 4.2978L14.9786 4.49191ZM11.3044 2.37059L11.4985 3.09503C11.9585 2.97178 12.2673 2.88946 12.5107 2.84172C12.7475 2.79528 12.8683 2.79342 12.9511 2.80432L13.049 2.06073L13.1469 1.31715C12.8353 1.27612 12.5339 1.30859 12.222 1.36977C11.9167 1.42964 11.5504 1.52821 11.1103 1.64615L11.3044 2.37059ZM14.9786 4.49191L15.7031 4.2978C15.5852 3.85764 15.4874 3.49114 15.3866 3.19683C15.2836 2.89614 15.161 2.61889 14.9697 2.36953L14.3747 2.8261L13.7797 3.28267C13.8305 3.34892 13.8893 3.45452 13.9675 3.68279C14.0478 3.91745 14.131 4.22605 14.2542 4.68602L14.9786 4.49191ZM13.049 2.06073L12.9511 2.80432C13.2798 2.84759 13.5778 3.01966 13.7797 3.28267L14.3747 2.8261L14.9697 2.36953C14.5257 1.7909 13.87 1.41235 13.1469 1.31715L13.049 2.06073ZM9.18309 6.04483L9.90753 5.85071C9.78428 5.39073 9.70196 5.08193 9.65422 4.83853C9.60778 4.60175 9.60592 4.4809 9.61682 4.3981L8.87323 4.30021L8.12965 4.20231C8.08862 4.51394 8.12109 4.81533 8.18227 5.12723C8.24214 5.4325 8.34071 5.79879 8.45865 6.23894L9.18309 6.04483ZM11.3044 2.37059L11.1103 1.64615C10.6701 1.76408 10.3036 1.86187 10.0093 1.96265C9.70864 2.06562 9.43139 2.1882 9.18203 2.37954L9.6386 2.97455L10.0952 3.56957C10.1614 3.51873 10.267 3.45992 10.4953 3.38175C10.73 3.30139 11.0385 3.21829 11.4985 3.09503L11.3044 2.37059ZM8.87323 4.30021L9.61682 4.3981C9.66009 4.06942 9.83216 3.77139 10.0952 3.56957L9.6386 2.97455L9.18203 2.37954C8.6034 2.82354 8.22485 3.47921 8.12965 4.20231L8.87323 4.30021Z" fill="currentColor" />
</svg>