<svg xmlns="http://www.w3.org/2000/svg" width="24" height="24" viewBox="0 0 24 24" fill="none">
    <ellipse cx="11" cy="5" rx="8" ry="3" stroke="currentColor" stroke-width="2" stroke-linecap="round" stroke-linejoin="round" />
    <path d="M3 12C3 13.3979 5.54955 14.5725 9 14.9055" stroke="currentColor" stroke-width="2" stroke-linecap="round" stroke-linejoin="round" />
    <path d="M11 22C6.58172 22 3 20.6569 3 19V5M19 5V10" stroke="currentColor" stroke-width="2" stroke-linecap="round" stroke-linejoin="round" />
    <path opacity="0.4" d="M12.8292 15.6646C12.6439 16.0351 12.7941 16.4856 13.1646 16.6708C13.5351 16.8561 13.9856 16.7059 14.1708 16.3354L13.5 16L12.8292 15.6646ZM14.5623 19.6495C14.2882 19.339 13.8143 19.3094 13.5037 19.5835C13.1931 19.8576 13.1636 20.3316 13.4377 20.6421L14 20.1458L14.5623 19.6495ZM16.0904 17.1176C16.5016 17.0677 16.7944 16.6939 16.7445 16.2827C16.6946 15.8715 16.3208 15.5787 15.9096 15.6286L16 16.3731L16.0904 17.1176ZM13.1936 16.3064L12.6633 16.8367H12.6633L13.1936 16.3064ZM13.9351 13.1125C13.9973 12.703 13.7156 12.3206 13.3061 12.2585C12.8966 12.1963 12.5142 12.478 12.4521 12.8875L13.1936 13L13.9351 13.1125ZM21 17.5H21.75C21.75 14.8766 19.6234 12.75 17 12.75V13.5V14.25C18.7949 14.25 20.25 15.7051 20.25 17.5H21ZM17 21.5V22.25C19.6234 22.25 21.75 20.1234 21.75 17.5H21H20.25C20.25 19.2949 18.7949 20.75 17 20.75V21.5ZM17 13.5V12.75C14.5419 12.75 13.353 14.617 12.8292 15.6646L13.5 16L14.1708 16.3354C14.647 15.383 15.4581 14.25 17 14.25V13.5ZM14 20.1458L13.4377 20.6421C14.307 21.627 15.5812 22.25 17 22.25V21.5V20.75C16.0294 20.75 15.1589 20.3255 14.5623 19.6495L14 20.1458ZM16 16.3731L15.9096 15.6286C15.4965 15.6787 14.9048 15.7387 14.3868 15.7486C14.1255 15.7536 13.908 15.7452 13.7515 15.7236C13.6733 15.7128 13.6303 15.7014 13.6139 15.6958C13.5884 15.687 13.6492 15.7013 13.724 15.7761L13.1936 16.3064L12.6633 16.8367C12.8183 16.9917 13.0007 17.0714 13.1297 17.1154C13.2678 17.1626 13.4125 17.1911 13.5465 17.2096C13.8147 17.2466 14.1207 17.254 14.4156 17.2483C15.0098 17.2369 15.6608 17.1698 16.0904 17.1176L16 16.3731ZM13.1936 16.3064L13.724 15.7761C13.8172 15.8693 13.8169 15.9411 13.7965 15.8588C13.7819 15.7999 13.7672 15.7017 13.7584 15.5597C13.741 15.2779 13.752 14.9163 13.7784 14.5426C13.8044 14.1738 13.8436 13.8152 13.8767 13.5472C13.8932 13.4136 13.908 13.3038 13.9186 13.2277C13.9238 13.1898 13.9281 13.1603 13.931 13.1407C13.9324 13.1308 13.9335 13.1235 13.9342 13.1187C13.9345 13.1164 13.9348 13.1146 13.9349 13.1136C13.935 13.1131 13.9351 13.1127 13.9351 13.1125C13.9351 13.1125 13.9351 13.1124 13.9351 13.1124C13.9351 13.1124 13.9351 13.1124 13.9351 13.1124C13.9351 13.1125 13.9351 13.1125 13.1936 13C12.4521 12.8875 12.4521 12.8876 12.4521 12.8876C12.4521 12.8877 12.452 12.8878 12.452 12.8879C12.452 12.888 12.452 12.8882 12.4519 12.8885C12.4519 12.889 12.4518 12.8897 12.4516 12.8906C12.4514 12.8923 12.451 12.8947 12.4505 12.8978C12.4496 12.9039 12.4483 12.9127 12.4467 12.924C12.4434 12.9467 12.4387 12.9793 12.4329 13.0207C12.4214 13.1033 12.4055 13.2211 12.388 13.3636C12.353 13.6474 12.3105 14.0337 12.2821 14.4371C12.254 14.8355 12.2378 15.2732 12.2613 15.6522C12.2729 15.8406 12.2956 16.0382 12.3406 16.2196C12.3797 16.3777 12.4611 16.6346 12.6633 16.8367L13.1936 16.3064Z" fill="currentColor" />
</svg>