<svg xmlns="http://www.w3.org/2000/svg" width="24" height="24" viewBox="0 0 24 24" fill="none">
    <path d="M3.17412 19.9723C2.5 18.9634 2.5 17.5589 2.5 14.75C2.5 11.9411 2.5 10.5366 3.17412 9.52772C3.46596 9.09096 3.84096 8.71596 4.27772 8.42412C5.28661 7.75 6.69108 7.75 9.5 7.75C12.3089 7.75 13.7134 7.75 14.7223 8.42412C15.159 8.71596 15.534 9.09096 15.8259 9.52772C16.5 10.5366 16.5 11.9411 16.5 14.75C16.5 17.5589 16.5 18.9634 15.8259 19.9723C15.534 20.409 15.159 20.784 14.7223 21.0759C13.7134 21.75 12.3089 21.75 9.5 21.75C6.69108 21.75 5.28661 21.75 4.27772 21.0759C3.84096 20.784 3.46596 20.409 3.17412 19.9723Z" stroke="currentColor" stroke-width="2" stroke-linecap="round" stroke-linejoin="round" />
    <path opacity="0.4" d="M19.7488 13.75C20.7285 12.7117 21.2601 11.9832 21.4241 11.159C21.5253 10.6503 21.5253 10.1267 21.4241 9.61801C21.1903 8.44297 20.2094 7.46242 18.2476 5.5013C16.2858 3.54018 15.3048 2.55962 14.1294 2.32589C13.6205 2.2247 13.0967 2.2247 12.5878 2.32589C11.7644 2.48961 11.0365 3.01981 10 3.9968" stroke="currentColor" stroke-width="2" stroke-linecap="round" stroke-linejoin="round" />
    <path opacity="0.4" d="M7 12V12.25M7.5 12.25C7.5 12.5261 7.27614 12.75 7 12.75C6.72386 12.75 6.5 12.5261 6.5 12.25C6.5 11.9739 6.72386 11.75 7 11.75C7.27614 11.75 7.5 11.9739 7.5 12.25Z" stroke="currentColor" stroke-width="2" stroke-linecap="round" stroke-linejoin="round" />
    <path opacity="0.4" d="M12 17V17.25M12.5 17.25C12.5 17.5261 12.2761 17.75 12 17.75C11.7239 17.75 11.5 17.5261 11.5 17.25C11.5 16.9739 11.7239 16.75 12 16.75C12.2761 16.75 12.5 16.9739 12.5 17.25Z" stroke="currentColor" stroke-width="2" stroke-linecap="round" stroke-linejoin="round" />
</svg>