<svg xmlns="http://www.w3.org/2000/svg" width="24" height="24" viewBox="0 0 24 24" fill="none">
    <path d="M16 18.3356C14.7182 19.9583 12.731 21 10.5 21C6.63401 21 3.5 17.8718 3.5 14.0131C3.5 10.7828 6.4327 6.71613 8.50161 4.24917C8.99925 3.65578 9.24808 3.35909 9.64473 3.17178C10.1298 2.94272 10.8704 2.94274 11.3554 3.17183C11.7521 3.35916 12.0014 3.65647 12.5 4.25109" stroke="currentColor" stroke-width="2" stroke-linecap="round" stroke-linejoin="round" />
    <path opacity="0.4" d="M17 15.0328C18.933 15.0328 20.5 13.3833 20.5 11.3486C20.5 10.4272 20.0709 9.37676 19.5133 8.40061C18.6116 6.82234 18.1608 6.0332 17 6.0332C15.8392 6.0332 15.3884 6.82234 14.4867 8.40061C13.9291 9.37676 13.5 10.4272 13.5 11.3486C13.5 13.3833 15.067 15.0328 17 15.0328Z" stroke="currentColor" stroke-width="2" stroke-linejoin="round" />
    <path d="M10.5 17.0332C8.84315 17.0332 7.5 15.6901 7.5 14.0332" stroke="currentColor" stroke-width="2" stroke-linecap="round" stroke-linejoin="round" />
</svg>