<svg xmlns="http://www.w3.org/2000/svg" width="24" height="24" viewBox="0 0 24 24" fill="none">
    <path opacity="0.4" d="M14 22.75C14.4143 22.75 14.75 22.4142 14.75 22C14.75 21.5858 14.4143 21.25 14 21.25V22V22.75ZM3.99994 15.9999L4.74994 15.9999L3.99994 15.9999ZM4.75004 12C4.75005 11.5858 4.41427 11.25 4.00006 11.25C3.58584 11.25 3.25005 11.5858 3.25004 12L4.00004 12L4.75004 12ZM4.46971 20.4697C4.17682 20.7626 4.17682 21.2374 4.46971 21.5303C4.7626 21.8232 5.23748 21.8232 5.53037 21.5303L5.00004 21L4.46971 20.4697ZM10.5304 16.5303C10.8233 16.2374 10.8233 15.7626 10.5304 15.4697C10.2375 15.1768 9.7626 15.1768 9.46971 15.4697L10 16L10.5304 16.5303ZM14 22V21.25H9.99994V22V22.75H14V22ZM3.99994 15.9999L4.74994 15.9999L4.75004 12L4.00004 12L3.25004 12L3.24994 15.9998L3.99994 15.9999ZM9.99994 22V21.25C8.56449 21.25 7.56336 21.2484 6.80799 21.1468C6.0742 21.0482 5.68562 20.8677 5.40886 20.591L4.87852 21.1213L4.34818 21.6516C4.9501 22.2536 5.70799 22.5125 6.60812 22.6335C7.48667 22.7516 8.6069 22.75 9.99994 22.75V22ZM3.99994 15.9999L3.24994 15.9998C3.24991 17.3929 3.24829 18.5131 3.36638 19.3917C3.48738 20.2918 3.74626 21.0497 4.34818 21.6516L4.87852 21.1213L5.40886 20.591C5.13209 20.3142 4.95165 19.9256 4.85301 19.1918C4.75147 18.4365 4.7499 17.4353 4.74994 15.9999L3.99994 15.9999ZM5.00004 21L5.53037 21.5303L10.5304 16.5303L10 16L9.46971 15.4697L4.46971 20.4697L5.00004 21Z" fill="currentColor" />
    <path d="M13.0001 2.5V3C13.0001 5.82843 13.0001 7.24264 13.8787 8.12132C14.7574 9 16.1716 9 19.0001 9H19.5001" stroke="currentColor" stroke-width="2" stroke-linecap="round" stroke-linejoin="round" />
    <path d="M18.0001 21.4151C18.3136 21.2627 18.5863 21.0706 18.8285 20.8284C20.0001 19.6569 20.0001 17.7712 20.0001 14V10.6569C20.0001 9.83935 20.0001 9.4306 19.8478 9.06306C19.6956 8.69552 19.4066 8.40649 18.8285 7.82843L14.0919 3.09188C13.5931 2.593 13.3436 2.34355 13.0346 2.19575C12.9703 2.165 12.9044 2.13772 12.8372 2.11401C12.5142 2 12.1614 2 11.4559 2C8.21088 2 6.58837 2 5.48939 2.88607C5.26738 3.06508 5.06514 3.26731 4.88614 3.48933C4.1438 4.41003 4.02338 5.69818 4.00385 8" stroke="currentColor" stroke-width="2" stroke-linecap="round" stroke-linejoin="round" />
</svg>