<svg xmlns="http://www.w3.org/2000/svg" width="24" height="24" viewBox="0 0 24 24" fill="none">
    <path opacity="0.4" d="M7 20V18C7 16.8954 6.10457 16 5 16C3.89543 16 3 16.8954 3 18V20C3 21.1046 3.89543 22 5 22C6.10457 22 7 21.1046 7 20Z" stroke="currentColor" stroke-width="2" stroke-linecap="round" stroke-linejoin="round" />
    <path opacity="0.4" d="M15 22.75C15.4142 22.75 15.75 22.4142 15.75 22C15.75 21.5858 15.4142 21.25 15 21.25V22V22.75ZM11 21.25C10.5858 21.25 10.25 21.5858 10.25 22C10.25 22.4142 10.5858 22.75 11 22.75V22V21.25ZM12.25 22C12.25 22.4142 12.5858 22.75 13 22.75C13.4142 22.75 13.75 22.4142 13.75 22H13H12.25ZM10.5492 16.387C10.2182 16.636 10.1516 17.1062 10.4006 17.4372C10.6495 17.7683 11.1197 17.8348 11.4508 17.5859L11 16.9864L10.5492 16.387ZM11.4 16.6856L11.8508 17.285L11.8508 17.285L11.4 16.6856ZM12.7236 16.0367L12.3875 16.7071H12.3875L12.7236 16.0367ZM15 22V21.25H11V22V22.75H15V22ZM13 17.4878H12.25V22H13H13.75V17.4878H13ZM11 16.9864L11.4508 17.5859L11.8508 17.285L11.4 16.6856L10.9492 16.0862L10.5492 16.387L11 16.9864ZM13 17.4878H13.75C13.75 17.0757 13.752 16.6809 13.7075 16.3774C13.664 16.0799 13.5408 15.6074 13.0597 15.3662L12.7236 16.0367L12.3875 16.7071C12.1828 16.6045 12.1978 16.42 12.2234 16.5946C12.248 16.7633 12.25 17.0248 12.25 17.4878H13ZM11.4 16.6856L11.8508 17.285C12.2203 17.0072 12.4298 16.8521 12.5788 16.7709C12.7328 16.687 12.593 16.8102 12.3875 16.7071L12.7236 16.0367L13.0597 15.3662C12.5778 15.1246 12.1253 15.3098 11.8611 15.4537C11.592 15.6004 11.2779 15.8391 10.9492 16.0862L11.4 16.6856Z" fill="currentColor" />
    <path d="M5 12V9.45584C5 6.21082 5 4.58831 5.88607 3.48933C6.06508 3.26731 6.26731 3.06508 6.48933 2.88607C7.58831 2 9.21082 2 12.4558 2C13.1614 2 13.5141 2 13.8372 2.11401C13.9044 2.13772 13.9702 2.165 14.0345 2.19575C14.3436 2.34355 14.593 2.593 15.0919 3.09188L19.8284 7.82843C20.4065 8.40649 20.6955 8.69552 20.8478 9.06306C21 9.4306 21 9.83935 21 10.6569V14.5849C21 18.3561 21 20.2417 19.8284 21.4133C19.5862 21.6555 19.3136 21.8476 19 22M14 2.5V3C14 5.82843 14 7.24264 14.8787 8.12132C15.7574 9 17.1716 9 20 9H20.5" stroke="currentColor" stroke-width="2" stroke-linecap="round" stroke-linejoin="round" />
</svg>