<svg xmlns="http://www.w3.org/2000/svg" width="24" height="24" viewBox="0 0 24 24" fill="none">
    <path d="M6 12V11.875M6.25 12C6.25 12.1381 6.13807 12.25 6 12.25C5.86193 12.25 5.75 12.1381 5.75 12C5.75 11.8619 5.86193 11.75 6 11.75C6.13807 11.75 6.25 11.8619 6.25 12Z" stroke="currentColor" stroke-width="2" stroke-linecap="round" stroke-linejoin="round" />
    <path d="M10.8623 16.017C11.3316 16.1723 11.7813 16.3511 12.1887 16.6372C12.703 16.9983 13.1229 17.5003 13.4181 18.0742C13.7653 18.7492 13.9389 19.0867 13.5925 19.5883C13.2462 20.0899 12.7871 20.0358 11.8689 19.9276C10.2479 19.7367 9.35755 19.3041 8.94808 18.6944L7.8248 16.8447C5.84047 16.4427 3.98226 15.3572 2.67918 13.5879C2.22639 12.9732 2 12.6658 2 11.9969C2 11.3281 2.2264 11.0207 2.67921 10.4059C3.85773 8.80584 5.49031 7.76493 7.25959 7.2832M12.1887 16.6372C13.2213 16.3221 14.2014 15.8134 15.0642 15.1112" stroke="currentColor" stroke-width="2" stroke-linecap="round" stroke-linejoin="round" />
    <path opacity="0.4" d="M17.4437 11.9969C17.7812 11.3269 19.57 8.98187 22 8.98187C21.1563 9.81937 19.7725 13.0019 20.9875 15.0119C19.7725 15.0119 17.95 12.6669 17.4437 11.9969ZM17.4437 11.9969C16.3965 9.68707 14.5671 8.17356 12.4949 7.45635C12.9557 7.13281 13.2821 6.64475 13.5036 6.08685C13.8495 5.21584 14.0224 4.78034 13.623 4.31401C13.2236 3.84769 12.683 3.97328 11.6019 4.22445C10.9658 4.37226 10.3114 4.55255 9.80402 4.75741" stroke="currentColor" stroke-width="2" stroke-linecap="round" stroke-linejoin="round" />
    <path d="M2 2L22 22" stroke="currentColor" stroke-width="2" stroke-linecap="round" stroke-linejoin="round" />
</svg>