<svg xmlns="http://www.w3.org/2000/svg" width="24" height="24" viewBox="0 0 24 24" fill="none">
    <path d="M6 6C6 7.04416 6.27249 8.07025 6.79054 8.97683L7.71665 10.526C7.85746 10.7616 7.92786 10.8793 7.96393 11.01C8 11.1406 8 11.2778 8 11.5522V18C8 19.4001 8 20.1002 8.27248 20.635C8.51217 21.1054 8.89462 21.4878 9.36502 21.7275C9.8998 22 10.5999 22 12 22C13.4001 22 14.1002 22 14.635 21.7275C15.1054 21.4878 15.4878 21.1054 15.7275 20.635C16 20.1002 16 19.4001 16 18V16" stroke="currentColor" stroke-width="2" stroke-linecap="round" stroke-linejoin="round" />
    <path d="M2 2L22 22" stroke="currentColor" stroke-width="2" stroke-linecap="round" stroke-linejoin="round" />
    <path opacity="0.4" d="M6.67213 1.61789C6.2996 1.79897 6.14438 2.24776 6.32546 2.6203C6.50654 2.99284 6.95533 3.14805 7.32787 2.96697L7 2.29243L6.67213 1.61789ZM17.4142 2.58579L16.8839 3.11612L16.8839 3.11612L17.4142 2.58579ZM17.2095 8.97683L17.8532 9.36167C17.8557 9.35745 17.8582 9.3532 17.8606 9.34894L17.2095 8.97683ZM16.2834 10.526L16.9271 10.9108L16.9271 10.9108L16.2834 10.526ZM15.3131 10.8103C15.2029 11.2096 15.4372 11.6227 15.8365 11.7329C16.2357 11.8432 16.6488 11.6088 16.759 11.2096L16.0361 11.01L15.3131 10.8103ZM11 5.25C10.5858 5.25 10.25 5.58579 10.25 6C10.25 6.41421 10.5858 6.75 11 6.75V6V5.25ZM10 2V1.25C9.26248 1.25 8.63075 1.24953 8.10864 1.28865C7.58795 1.32767 7.10006 1.4099 6.67213 1.61789L7 2.29243L7.32787 2.96697C7.50158 2.88254 7.76577 2.81855 8.22072 2.78446C8.67424 2.75047 9.24168 2.75 10 2.75V2ZM10 2V2.75H14V2V1.25H10V2ZM14 2V2.75C14.964 2.75 15.6116 2.75159 16.0946 2.81654C16.5561 2.87858 16.7536 2.9858 16.8839 3.11612L17.4142 2.58579L17.9445 2.05546C17.4891 1.59999 16.9223 1.41432 16.2945 1.32991C15.6883 1.24841 14.9216 1.25 14 1.25V2ZM18 6H18.75C18.75 5.07839 18.7516 4.31174 18.6701 3.70552C18.5857 3.07773 18.4 2.51093 17.9445 2.05546L17.4142 2.58579L16.8839 3.11612C17.0142 3.24643 17.1214 3.44393 17.1835 3.90539C17.2484 4.38843 17.25 5.03599 17.25 6H18ZM17.2095 8.97683L16.5657 8.592L15.6396 10.1412L16.2834 10.526L16.9271 10.9108L17.8532 9.36167L17.2095 8.97683ZM18 6H17.25C17.25 6.91364 17.0116 7.81147 16.5583 8.60473L17.2095 8.97683L17.8606 9.34894C18.4434 8.32903 18.75 7.17468 18.75 6H18ZM16.2834 10.526L15.6396 10.1412C15.5192 10.3427 15.3824 10.5593 15.3131 10.8103L16.0361 11.01L16.759 11.2096C16.759 11.2095 16.759 11.2095 16.7591 11.2094C16.7591 11.2093 16.7592 11.2091 16.7593 11.2086C16.7596 11.2078 16.7603 11.2058 16.7618 11.2023C16.7649 11.195 16.7711 11.1813 16.7837 11.1575C16.812 11.1039 16.8528 11.0351 16.9271 10.9108L16.2834 10.526ZM11 6V6.75H18V6V5.25H11V6Z" fill="currentColor" />
    <path d="M12 12V15" stroke="currentColor" stroke-width="2" stroke-linecap="round" stroke-linejoin="round" />
</svg>