<svg xmlns="http://www.w3.org/2000/svg" width="24" height="24" viewBox="0 0 24 24" fill="none">
    <path d="M11 7.10156C8.71776 7.56483 7 9.58259 7 12.0015C7 14.763 9.23858 17.0015 12 17.0015C14.419 17.0015 16.4367 15.2838 16.9 13.0015" stroke="currentColor" stroke-width="2" stroke-linecap="round" stroke-linejoin="round" />
    <path d="M22 12C22 17.5228 17.5228 22 12 22C6.47715 22 2 17.5228 2 12C2 6.47715 6.47715 2 12 2" stroke="currentColor" stroke-width="2" stroke-linecap="round" stroke-linejoin="round" />
    <path opacity="0.4" d="M15.6917 4.2366L15.1614 3.70627L15.1614 3.70627L15.6917 4.2366ZM16.026 3.90235L16.5563 4.43268V4.43268L16.026 3.90235ZM19.7628 8.30762L20.2931 8.83795L20.2931 8.83795L19.7628 8.30762ZM20.097 7.97337L19.5667 7.44304L19.5667 7.44304L20.097 7.97337ZM21.498 6.0829L22.2465 6.03446V6.03446L21.498 6.0829ZM19.0793 4.9201L18.3368 5.02617C18.3839 5.35615 18.6432 5.61542 18.9732 5.66256L19.0793 4.9201ZM21.3344 5.59185L20.7065 6.00216V6.00216L21.3344 5.59185ZM18.5062 9.34506L18.7932 10.038H18.7932L18.5062 9.34506ZM17.9165 2.50131L17.9649 1.75288H17.9649L17.9165 2.50131ZM18.4075 2.665L18.8178 2.03718L18.8178 2.03718L18.4075 2.665ZM11.4695 11.4705C11.1767 11.7635 11.1768 12.2384 11.4698 12.5312C11.7628 12.824 12.2377 12.8239 12.5305 12.5309L12 12.0007L11.4695 11.4705ZM14.4994 9.5H15.2494V7.11525H14.4994H13.7494V9.5H14.4994ZM15.6917 4.2366L16.2221 4.76693L16.5563 4.43268L16.026 3.90235L15.4957 3.37201L15.1614 3.70627L15.6917 4.2366ZM14.4994 9.5V10.25H16.8841V9.5V8.75H14.4994V9.5ZM19.7628 8.30762L20.2931 8.83795L20.6273 8.5037L20.097 7.97337L19.5667 7.44304L19.2324 7.7773L19.7628 8.30762ZM20.097 7.97337L20.6273 8.5037C21.0906 8.04042 21.4859 7.64684 21.754 7.30892C22.015 6.97984 22.2802 6.55539 22.2465 6.03446L21.498 6.0829L20.7496 6.13135C20.7456 6.07009 20.7872 6.11395 20.5788 6.37671C20.3774 6.63064 20.0573 6.95245 19.5667 7.44304L20.097 7.97337ZM19.0793 4.9201L18.9732 5.66256C19.66 5.76068 20.1092 5.82606 20.4227 5.90835C20.7471 5.99349 20.7401 6.05354 20.7065 6.00216L21.3344 5.59185L21.9622 5.18155C21.6766 4.74457 21.2098 4.56413 20.8035 4.45749C20.3863 4.34799 19.8339 4.27029 19.1853 4.17764L19.0793 4.9201ZM21.498 6.0829L22.2465 6.03446C22.2268 5.7304 22.1289 5.4366 21.9622 5.18154L21.3344 5.59185L20.7065 6.00216C20.7318 6.04079 20.7466 6.08529 20.7496 6.13135L21.498 6.0829ZM16.8841 9.5V10.25C17.6549 10.25 18.2493 10.2633 18.7932 10.038L18.5062 9.34506L18.2192 8.65215C18.015 8.73672 17.7773 8.75 16.8841 8.75V9.5ZM19.7628 8.30762L19.2324 7.77729C18.6008 8.40889 18.4234 8.56757 18.2192 8.65215L18.5062 9.34506L18.7932 10.038C19.3372 9.81266 19.748 9.38301 20.2931 8.83795L19.7628 8.30762ZM16.026 3.90235L16.5563 4.43268C17.0469 3.94209 17.3687 3.62198 17.6226 3.42055C17.8854 3.21211 17.9293 3.25371 17.868 3.24975L17.9165 2.50131L17.9649 1.75288C17.444 1.71916 17.0195 1.98434 16.6904 2.2454C16.3525 2.51346 15.9589 2.90874 15.4957 3.37202L16.026 3.90235ZM19.0793 4.9201L19.8217 4.81403C19.7291 4.16545 19.6514 3.61308 19.5419 3.19587C19.4352 2.78958 19.2548 2.32277 18.8178 2.03718L18.4075 2.665L17.9972 3.29281C17.9458 3.25923 18.0059 3.25227 18.091 3.57667C18.1733 3.89017 18.2387 4.33935 18.3368 5.02617L19.0793 4.9201ZM17.9165 2.50131L17.868 3.24974C17.9141 3.25273 17.9586 3.26756 17.9972 3.29281L18.4075 2.665L18.8178 2.03718C18.5628 1.87049 18.269 1.77256 17.9649 1.75288L17.9165 2.50131ZM14.4994 7.11525H15.2494C15.2494 6.22204 15.2626 5.98436 15.3472 5.78017L14.6543 5.49316L13.9614 5.20615C13.7361 5.75009 13.7494 6.34443 13.7494 7.11525H14.4994ZM15.6917 4.2366L15.1614 3.70627C14.6163 4.25133 14.1867 4.6622 13.9614 5.20615L14.6543 5.49316L15.3472 5.78017C15.4318 5.57598 15.5905 5.39853 16.2221 4.76693L15.6917 4.2366ZM14.4994 9.5L13.9689 8.96981L11.4695 11.4705L12 12.0007L12.5305 12.5309L15.0298 10.0302L14.4994 9.5Z" fill="currentColor" />
</svg>