<svg xmlns="http://www.w3.org/2000/svg" width="24" height="24" viewBox="0 0 24 24" fill="none">
    <path opacity="0.4" d="M7 17.0084L11 13.0063" stroke="currentColor" stroke-width="2" stroke-linecap="round" stroke-linejoin="round" />
    <path d="M6.41674 21.8333L2.17577 17.5903C1.91358 17.3279 1.94957 16.8928 2.2513 16.6772C3.68346 15.6537 5.64529 15.8162 6.88979 17.0613L6.94544 17.1169C8.18994 18.3621 8.3523 20.3248 7.32933 21.7578C7.11381 22.0596 6.67893 22.0956 6.41674 21.8333Z" stroke="currentColor" stroke-width="2" stroke-linecap="round" stroke-linejoin="round" />
    <path d="M13.8651 5.6898C17.2936 3.93847 17.1271 2.68874 18.0642 2.02367C18.3577 1.89668 19.2736 2.47589 20.1787 3.29862C21.2047 4.23134 22.172 5.51251 21.9799 6.00641C21.3563 6.70279 20.0882 6.99381 18.7067 9.54007C16.9382 12.5069 14.4771 13.4059 13.0624 13.9226L13.0263 13.9358C12.7128 14.0504 12.3573 14.0171 12.1017 13.8023C11.6747 13.4433 11.346 13.0607 11.054 12.7771C9.99609 11.8131 9.99609 11.5424 9.99609 11.288C10.0574 10.2583 12.1191 6.75975 13.8651 5.6898Z" stroke="currentColor" stroke-width="2" stroke-linecap="round" stroke-linejoin="round" />
    <path opacity="0.4" d="M14.625 9.50229H14.5M14.75 9.50229C14.75 9.64036 14.6381 9.75229 14.5 9.75229C14.3619 9.75229 14.25 9.64036 14.25 9.50229C14.25 9.36422 14.3619 9.25229 14.5 9.25229C14.6381 9.25229 14.75 9.36422 14.75 9.50229Z" stroke="currentColor" stroke-width="2" stroke-linecap="round" stroke-linejoin="round" />
</svg>