<svg xmlns="http://www.w3.org/2000/svg" width="24" height="24" viewBox="0 0 24 24" fill="none">
    <path d="M12.0001 15.0896C11.4415 15.8159 10.0556 17.2304 8.44241 17.8979C7.88984 18.1266 7.2629 17.9643 6.89842 17.4793C6.11297 16.4341 5.25788 14.5445 5.5637 12" stroke="currentColor" stroke-width="2" stroke-linecap="round" stroke-linejoin="round" />
    <path d="M6.32506 6.32495C5.3848 7.25083 4.67002 8.40506 4.2706 9.69774C3.97331 10.6599 3.82467 11.141 4.3419 11.6582C4.85914 12.1755 5.34022 12.0268 6.30239 11.7295C7.59508 11.3301 8.7493 10.6153 9.67518 9.67507" stroke="currentColor" stroke-width="2" stroke-linecap="round" stroke-linejoin="round" />
    <path d="M12 15.0896C12.5586 15.8159 13.9446 17.2304 15.5577 17.8979C16.1103 18.1266 16.7372 17.9643 17.1017 17.4793C17.154 17.4096 17.2067 17.3362 17.2593 17.2592" stroke="currentColor" stroke-width="2" stroke-linecap="round" stroke-linejoin="round" />
    <path opacity="0.4" d="M9.18117 3.70925C8.78856 3.84128 8.57732 4.26658 8.70935 4.65919C8.84138 5.0518 9.26668 5.26304 9.65929 5.13101L9.42023 4.42013L9.18117 3.70925ZM10.8691 6.34081C10.7371 6.73342 10.9483 7.15872 11.3409 7.29075C11.7335 7.42278 12.1588 7.21154 12.2908 6.81893L11.58 6.57987L10.8691 6.34081ZM19.7296 9.69773L20.4462 9.47633V9.47633L19.7296 9.69773ZM17.6978 11.7295L17.9192 11.0129V11.0129L17.6978 11.7295ZM12.7501 1.99999C12.7501 1.58577 12.4143 1.24999 12.0001 1.25C11.5858 1.25001 11.2501 1.5858 11.2501 2.00001L12.0001 2L12.7501 1.99999ZM17.7394 13.4484C17.7174 13.8621 18.0349 14.2152 18.4485 14.2372C18.8622 14.2592 19.2153 13.9417 19.2373 13.5281L18.4883 13.4882L17.7394 13.4484ZM19.1811 11.9105C19.1316 11.4992 18.7582 11.2059 18.3469 11.2554C17.9357 11.3048 17.6424 11.6782 17.6918 12.0895L18.4364 12L19.1811 11.9105ZM9.42023 4.42013L9.65929 5.13101C10.3935 4.88412 11.1804 4.75 12.0001 4.75V4V3.25C11.0157 3.25 10.0674 3.41121 9.18117 3.70925L9.42023 4.42013ZM12.0001 4H11.2501C11.2501 4.81974 11.116 5.60662 10.8691 6.34081L11.58 6.57987L12.2908 6.81893C12.5889 5.93265 12.7501 4.98438 12.7501 4H12.0001ZM19.7296 9.69773L20.4462 9.47633C19.3322 5.87091 15.9732 3.25 12.0001 3.25V4V4.75C15.2969 4.75 18.0877 6.92443 19.013 9.91914L19.7296 9.69773ZM12.0001 4H11.2501C11.2501 7.9731 13.871 11.3321 17.4764 12.4461L17.6978 11.7295L17.9192 11.0129C14.9245 10.0876 12.7501 7.29677 12.7501 4H12.0001ZM19.7296 9.69773L19.013 9.91914C19.1737 10.4391 19.2441 10.6879 19.2498 10.8686C19.2519 10.9355 19.2427 10.9668 19.2349 10.9859C19.2262 11.0073 19.2027 11.0531 19.128 11.1279L19.6583 11.6582L20.1886 12.1885C20.5858 11.7914 20.7656 11.3443 20.749 10.8211C20.7354 10.3913 20.5828 9.91854 20.4462 9.47633L19.7296 9.69773ZM17.6978 11.7295L17.4764 12.4461C17.9186 12.5827 18.3914 12.7353 18.8212 12.7489C19.3444 12.7655 19.7915 12.5857 20.1886 12.1885L19.6583 11.6582L19.128 11.1279C19.0532 11.2026 19.0074 11.2261 18.986 11.2348C18.9669 11.2427 18.9356 11.2518 18.8687 11.2497C18.688 11.244 18.4392 11.1736 17.9192 11.0129L17.6978 11.7295ZM12.0001 4L12.7501 3.99999L12.7501 1.99999L12.0001 2L11.2501 2.00001L11.2501 4.00001L12.0001 4ZM18.4883 13.4882L19.2373 13.5281C19.2644 13.018 19.2493 12.4781 19.1811 11.9105L18.4364 12L17.6918 12.0895C17.7496 12.5709 17.7619 13.0242 17.7394 13.4484L18.4883 13.4882Z" fill="currentColor" />
    <path d="M9 10.5C9.4 12.5 11.1667 14.3333 12 15C12.375 14.7 12.939 14.1638 13.4824 13.4824" stroke="currentColor" stroke-width="2" stroke-linecap="round" stroke-linejoin="round" />
    <path d="M15.5001 18C15.2254 18.7508 14.3847 20.343 12.9781 21.6142C12.4088 22.1286 11.5915 22.1286 11.0222 21.6142C9.61551 20.343 8.77483 18.7508 8.50012 18" stroke="currentColor" stroke-width="2" stroke-linecap="round" stroke-linejoin="round" />
    <path d="M2 2L22 22" stroke="currentColor" stroke-width="2" stroke-linecap="round" stroke-linejoin="round" />
</svg>