<svg xmlns="http://www.w3.org/2000/svg" width="24" height="24" viewBox="0 0 24 24" fill="none">
    <path opacity="0.4" d="M10.7491 10.3495C10.7491 9.93527 10.4134 9.59949 9.99915 9.59949C9.58493 9.59949 9.24915 9.93527 9.24915 10.3495H9.99915H10.7491ZM9.24915 12.3495C9.24915 12.7637 9.58493 13.0995 9.99915 13.0995C10.4134 13.0995 10.7491 12.7637 10.7491 12.3495H9.99915H9.24915ZM14.7491 10.3495C14.7491 9.93527 14.4134 9.59949 13.9991 9.59949C13.5849 9.59949 13.2491 9.93527 13.2491 10.3495H13.9991H14.7491ZM13.2491 12.3495C13.2491 12.7637 13.5849 13.0995 13.9991 13.0995C14.4134 13.0995 14.7491 12.7637 14.7491 12.3495H13.9991H13.2491ZM11.2377 17.3381L11.303 16.5909H11.303L11.2377 17.3381ZM8.51056 14.611L7.76342 14.6763V14.6763L8.51056 14.611ZM15.4877 14.611L14.7406 14.5456V14.5456L15.4877 14.611ZM12.7606 17.3381L12.6952 16.5909H12.6952L12.7606 17.3381ZM14.1299 12.3552L14.0645 13.1023L14.0645 13.1023L14.1299 12.3552ZM15.4934 13.7188L16.2406 13.6534V13.6534L15.4934 13.7188ZM9.86841 12.3552L9.80305 11.608H9.80304L9.86841 12.3552ZM8.50485 13.7188L7.75771 13.6534V13.6534L8.50485 13.7188ZM12.7491 17.3495C12.7491 16.9353 12.4134 16.5995 11.9991 16.5995C11.5849 16.5995 11.2491 16.9353 11.2491 17.3495H11.9991H12.7491ZM11.2491 21.3495C11.2491 21.7637 11.5849 22.0995 11.9991 22.0995C12.4134 22.0995 12.7491 21.7637 12.7491 21.3495H11.9991H11.2491ZM9.99915 10.3495H9.24915V12.3495H9.99915H10.7491V10.3495H9.99915ZM13.9991 10.3495H13.2491V12.3495H13.9991H14.7491V10.3495H13.9991ZM10.1658 12.3495V13.0995H13.8325V12.3495V11.5995H10.1658V12.3495ZM12.1658 17.3495V16.5995H11.8325V17.3495V18.0995H12.1658V17.3495ZM11.8325 17.3495V16.5995C11.5071 16.5995 11.3927 16.5988 11.303 16.5909L11.2377 17.3381L11.1723 18.0852C11.3436 18.1002 11.5388 18.0995 11.8325 18.0995V17.3495ZM8.49915 14.0162H7.74915C7.74915 14.3098 7.74843 14.505 7.76342 14.6763L8.51056 14.611L9.25771 14.5456C9.24986 14.4559 9.24915 14.3416 9.24915 14.0162H8.49915ZM11.2377 17.3381L11.303 16.5909C10.2153 16.4958 9.35287 15.6333 9.25771 14.5456L8.51056 14.611L7.76342 14.6763C7.92203 16.4892 9.35939 17.9266 11.1723 18.0852L11.2377 17.3381ZM15.4991 14.0162H14.7491C14.7491 14.3416 14.7484 14.4559 14.7406 14.5456L15.4877 14.611L16.2349 14.6763C16.2499 14.505 16.2491 14.3098 16.2491 14.0162H15.4991ZM12.1658 17.3495V18.0995C12.4595 18.0995 12.6547 18.1002 12.826 18.0852L12.7606 17.3381L12.6952 16.5909C12.6056 16.5988 12.4912 16.5995 12.1658 16.5995V17.3495ZM15.4877 14.611L14.7406 14.5456C14.6454 15.6333 13.783 16.4958 12.6952 16.5909L12.7606 17.3381L12.826 18.0852C14.6389 17.9266 16.0763 16.4892 16.2349 14.6763L15.4877 14.611ZM13.8325 12.3495V13.0995C14.0031 13.0995 14.0401 13.1002 14.0645 13.1023L14.1299 12.3552L14.1952 11.608C14.0892 11.5988 13.9714 11.5995 13.8325 11.5995V12.3495ZM15.4991 14.0162H16.2491C16.2491 13.8772 16.2499 13.7595 16.2406 13.6534L15.4934 13.7188L14.7463 13.7841C14.7484 13.8085 14.7491 13.8455 14.7491 14.0162H15.4991ZM14.1299 12.3552L14.0645 13.1023C14.4271 13.1341 14.7146 13.4215 14.7463 13.7841L15.4934 13.7188L16.2406 13.6534C16.1454 12.5656 15.283 11.7032 14.1952 11.608L14.1299 12.3552ZM10.1658 12.3495V11.5995C10.0269 11.5995 9.90913 11.5988 9.80305 11.608L9.86841 12.3552L9.93378 13.1023C9.95818 13.1002 9.99518 13.0995 10.1658 13.0995V12.3495ZM8.49915 14.0162H9.24915C9.24915 13.8455 9.24986 13.8085 9.252 13.7841L8.50485 13.7188L7.75771 13.6534C7.74843 13.7595 7.74915 13.8772 7.74915 14.0162H8.49915ZM9.86841 12.3552L9.80304 11.608C8.71529 11.7032 7.85287 12.5656 7.75771 13.6534L8.50485 13.7188L9.252 13.7841C9.28372 13.4215 9.57119 13.1341 9.93378 13.1023L9.86841 12.3552ZM11.9991 17.3495H11.2491V21.3495H11.9991H12.7491V17.3495H11.9991Z" fill="currentColor" />
    <path d="M15.9991 21.3495C17.8684 21.3495 18.803 21.3495 19.4991 20.9476C19.9552 20.6843 20.3339 20.3056 20.5972 19.8495C20.9991 19.1533 20.9991 18.2187 20.9991 16.3495V11.784C20.9991 10.3429 20.9991 9.62242 20.6941 8.9987C20.389 8.37497 19.8203 7.93261 18.6828 7.04789L15.6828 4.71456C13.9132 3.33824 13.0285 2.65009 11.9991 2.65009C10.9698 2.65009 10.085 3.33824 8.3155 4.71456L5.3155 7.04789C4.178 7.93261 3.60925 8.37497 3.3042 8.9987C2.99915 9.62242 2.99915 10.3429 2.99915 11.784V16.3495C2.99915 18.2187 2.99915 19.1533 3.40107 19.8495C3.66437 20.3056 4.04309 20.6843 4.49915 20.9476C5.1953 21.3495 6.12991 21.3495 7.99915 21.3495" stroke="currentColor" stroke-width="2" stroke-linecap="round" stroke-linejoin="round" />
</svg>