<svg xmlns="http://www.w3.org/2000/svg" width="24" height="24" viewBox="0 0 24 24" fill="none">
    <circle cx="7.25" cy="7.5" r="1.5" stroke="currentColor" stroke-width="2" stroke-linecap="round" stroke-linejoin="round" />
    <path d="M21.2494 11C21.2417 7.18021 21.1423 5.17483 19.8588 3.89124C18.4675 2.5 16.2283 2.5 11.75 2.5C7.27166 2.5 5.03249 2.5 3.64124 3.89124C2.25 5.28249 2.25 7.52166 2.25 12C2.25 16.4783 2.25 18.7175 3.64124 20.1088C5.03249 21.5 7.27166 21.5 11.75 21.5C12.4731 21.5 13.1378 21.5 13.75 21.4941" stroke="currentColor" stroke-width="2" stroke-linecap="round" stroke-linejoin="round" />
    <path d="M14.7518 12.2394C11.0125 13.2304 7.97174 17.1177 5.16797 20.5" stroke="currentColor" stroke-width="2" stroke-linecap="round" stroke-linejoin="round" />
    <path opacity="0.4" d="M19.5 15.5C19.5 15.0858 19.1642 14.75 18.75 14.75C18.3358 14.75 18 15.0858 18 15.5L18.75 15.5H19.5ZM18 21.5C18 21.9142 18.3358 22.25 18.75 22.25C19.1642 22.25 19.5 21.9142 19.5 21.5H18.75H18ZM18.75 14.5L18.75 13.75L18.75 14.5ZM15.1461 17.0552C14.9005 17.3887 14.9717 17.8582 15.3052 18.1039C15.6388 18.3495 16.1083 18.2783 16.3539 17.9447L15.75 17.5L15.1461 17.0552ZM21.1461 17.9448C21.3917 18.2783 21.8612 18.3495 22.1948 18.1039C22.5283 17.8583 22.5995 17.3888 22.3539 17.0552L21.75 17.5L21.1461 17.9448ZM18.75 15.5L18 15.5L18 21.5H18.75H19.5L19.5 15.5H18.75ZM18.75 14.5L18.75 13.75C18.4423 13.75 18.1764 13.8844 18.0069 13.9866C17.8168 14.1012 17.6277 14.2507 17.4512 14.4067C17.0963 14.7202 16.721 15.1239 16.3872 15.5083C16.0503 15.8964 15.7407 16.2823 15.5163 16.5698C15.4038 16.714 15.312 16.8343 15.248 16.919C15.216 16.9614 15.1909 16.9949 15.1736 17.0181C15.165 17.0297 15.1583 17.0387 15.1537 17.0449C15.1514 17.0481 15.1496 17.0505 15.1483 17.0522C15.1477 17.0531 15.1472 17.0538 15.1468 17.0543C15.1466 17.0545 15.1465 17.0547 15.1464 17.0549C15.1463 17.055 15.1462 17.055 15.1462 17.0551C15.1462 17.0552 15.1461 17.0552 15.75 17.5C16.3539 17.9447 16.3539 17.9448 16.3538 17.9448C16.3538 17.9448 16.3538 17.9448 16.3538 17.9448C16.3539 17.9448 16.3539 17.9447 16.354 17.9446C16.3542 17.9444 16.3545 17.944 16.3549 17.9434C16.3558 17.9422 16.3571 17.9403 16.359 17.9378C16.3628 17.9327 16.3686 17.9248 16.3764 17.9145C16.3918 17.8937 16.415 17.8628 16.445 17.8231C16.5049 17.7438 16.5919 17.6297 16.6988 17.4927C16.9134 17.2177 17.2057 16.8536 17.5199 16.4917C17.8373 16.1261 18.1625 15.7798 18.4444 15.5308C18.5861 15.4055 18.6993 15.3207 18.7814 15.2712C18.884 15.2093 18.8601 15.25 18.75 15.25L18.75 14.5ZM21.75 17.5C22.3539 17.0552 22.3539 17.0552 22.3538 17.0551C22.3538 17.0551 22.3537 17.055 22.3536 17.0549C22.3535 17.0547 22.3534 17.0545 22.3532 17.0543C22.3528 17.0538 22.3523 17.0531 22.3517 17.0523C22.3504 17.0505 22.3486 17.0481 22.3463 17.045C22.3417 17.0387 22.335 17.0297 22.3264 17.0181C22.3091 16.995 22.284 16.9614 22.252 16.9191C22.188 16.8343 22.0962 16.714 21.9837 16.5698C21.7593 16.2823 21.4498 15.8964 21.1128 15.5083C20.7791 15.1239 20.4037 14.7202 20.0489 14.4067C19.8723 14.2507 19.6832 14.1012 19.4931 13.9866C19.3236 13.8844 19.0577 13.75 18.75 13.75L18.75 14.5L18.75 15.25C18.64 15.25 18.616 15.2093 18.7187 15.2712C18.8007 15.3207 18.9139 15.4055 19.0557 15.5308C19.3375 15.7798 19.6627 16.1261 19.9801 16.4917C20.2944 16.8536 20.5866 17.2177 20.8012 17.4927C20.9081 17.6298 20.9951 17.7438 21.055 17.8231C21.085 17.8628 21.1081 17.8937 21.1236 17.9145C21.1314 17.9249 21.1372 17.9327 21.141 17.9378C21.1429 17.9404 21.1442 17.9422 21.1451 17.9434C21.1455 17.944 21.1458 17.9444 21.146 17.9446C21.1461 17.9447 21.1461 17.9448 21.1461 17.9448C21.1462 17.9448 21.1461 17.9448 21.1462 17.9448C21.1461 17.9448 21.1461 17.9448 21.75 17.5Z" fill="currentColor" />
</svg>