<svg xmlns="http://www.w3.org/2000/svg" width="24" height="24" viewBox="0 0 24 24" fill="none">
    <circle cx="8" cy="8" r="1.5" stroke="currentColor" stroke-width="2" stroke-linecap="round" stroke-linejoin="round" />
    <path opacity="0.4" d="M18.5 21.5L18.5 22.25L18.5 21.5ZM22.1039 18.9448C22.3496 18.6113 22.2783 18.1418 21.9448 17.8961C21.6113 17.6505 21.1418 17.7217 20.8961 18.0553L21.5 18.5L22.1039 18.9448ZM16.1039 18.0552C15.8583 17.7217 15.3888 17.6505 15.0553 17.8961C14.7218 18.1417 14.6505 18.6112 14.8961 18.9448L15.5 18.5L16.1039 18.0552ZM17.75 20.5C17.75 20.9142 18.0858 21.25 18.5 21.25C18.9142 21.25 19.25 20.9142 19.25 20.5H18.5H17.75ZM19.25 14.5C19.25 14.0858 18.9142 13.75 18.5 13.75C18.0858 13.75 17.75 14.0858 17.75 14.5H18.5H19.25ZM18.5 21.5L18.5 22.25C18.8077 22.25 19.0736 22.1156 19.2431 22.0134C19.4332 21.8988 19.6223 21.7493 19.7989 21.5933C20.1537 21.2798 20.5291 20.8761 20.8628 20.4917C21.1998 20.1036 21.5093 19.7177 21.7337 19.4302C21.8462 19.286 21.938 19.1657 22.002 19.081C22.034 19.0386 22.0591 19.0051 22.0764 18.9819C22.085 18.9703 22.0917 18.9613 22.0963 18.9551C22.0986 18.9519 22.1004 18.9495 22.1017 18.9478C22.1023 18.9469 22.1029 18.9462 22.1032 18.9457C22.1034 18.9455 22.1036 18.9453 22.1037 18.9451C22.1037 18.945 22.1038 18.945 22.1038 18.9449C22.1039 18.9448 22.1039 18.9448 21.5 18.5C20.8961 18.0553 20.8962 18.0552 20.8962 18.0552C20.8962 18.0552 20.8962 18.0552 20.8962 18.0552C20.8962 18.0552 20.8961 18.0553 20.896 18.0554C20.8959 18.0556 20.8956 18.056 20.8951 18.0566C20.8943 18.0578 20.8929 18.0597 20.891 18.0622C20.8872 18.0673 20.8814 18.0752 20.8737 18.0855C20.8582 18.1063 20.835 18.1372 20.8051 18.1769C20.7452 18.2562 20.6582 18.3703 20.5512 18.5073C20.3366 18.7823 20.0444 19.1464 19.7302 19.5083C19.4127 19.8739 19.0875 20.2202 18.8057 20.4692C18.6639 20.5945 18.5507 20.6793 18.4687 20.7288C18.366 20.7907 18.39 20.75 18.5 20.75L18.5 21.5ZM15.5 18.5C14.8961 18.9448 14.8962 18.9448 14.8962 18.9449C14.8963 18.9449 14.8963 18.945 14.8964 18.9451C14.8965 18.9453 14.8966 18.9455 14.8968 18.9457C14.8972 18.9462 14.8977 18.9469 14.8983 18.9477C14.8996 18.9495 14.9014 18.9519 14.9037 18.955C14.9083 18.9613 14.915 18.9703 14.9237 18.9819C14.9409 19.005 14.966 19.0386 14.998 19.0809C15.062 19.1657 15.1538 19.286 15.2663 19.4302C15.4907 19.7177 15.8003 20.1036 16.1372 20.4917C16.471 20.8761 16.8463 21.2798 17.2011 21.5933C17.3777 21.7493 17.5668 21.8988 17.7569 22.0134C17.9264 22.1156 18.1923 22.25 18.5 22.25L18.5 21.5L18.5 20.75C18.6101 20.75 18.634 20.7907 18.5313 20.7288C18.4493 20.6793 18.3361 20.5945 18.1944 20.4692C17.9125 20.2202 17.5873 19.8739 17.2699 19.5083C16.9557 19.1464 16.6635 18.7823 16.4489 18.5073C16.3419 18.3702 16.2549 18.2562 16.195 18.1769C16.165 18.1372 16.1419 18.1063 16.1264 18.0855C16.1187 18.0751 16.1128 18.0673 16.1091 18.0622C16.1072 18.0596 16.1058 18.0578 16.1049 18.0566C16.1045 18.056 16.1042 18.0556 16.104 18.0554C16.1039 18.0553 16.1039 18.0552 16.1039 18.0552C16.1039 18.0552 16.1039 18.0552 16.1039 18.0552C16.1039 18.0552 16.1039 18.0552 15.5 18.5ZM18.5 20.5H19.25V14.5H18.5H17.75V20.5H18.5Z" fill="currentColor" />
    <path d="M21.5 11.5C21.4981 7.35301 21.4473 5.22972 20.1088 3.89124C18.7176 2.5 16.4784 2.5 12 2.5C7.52168 2.5 5.2825 2.5 3.89125 3.89124C2.5 5.28249 2.5 7.52166 2.5 12C2.5 16.4783 2.5 18.7175 3.89125 20.1088C5.2825 21.5 7.52168 21.5 12 21.5C12.3466 21.5 12.6797 21.5 13 21.4994" stroke="currentColor" stroke-width="2" stroke-linecap="round" />
    <path d="M21.5 12C21.5 11.8301 21.5 11.6635 21.4999 11.5" stroke="currentColor" stroke-width="2" stroke-linecap="round" />
    <path d="M15 12.2394C11.075 13.2797 7.91953 17.5112 5 21" stroke="currentColor" stroke-width="2" stroke-linecap="round" />
</svg>