<svg xmlns="http://www.w3.org/2000/svg" width="24" height="24" viewBox="0 0 24 24" fill="none">
    <path d="M6 2.25C5.58579 2.25 5.25 2.58579 5.25 3C5.25 3.41421 5.58579 3.75 6 3.75V3V2.25ZM8.07944 15.7272L8.53398 15.1306V15.1306L8.07944 15.7272ZM14.5455 21.5966C14.8749 21.8476 15.3455 21.784 15.5966 21.4545C15.8476 21.1251 15.784 20.6545 15.4545 20.4034L15 21L14.5455 21.5966ZM6.86036 13.2016L6.40871 12.6029L6.40871 12.6029L6.86036 13.2016ZM6.49971 14.2701L7.22184 14.0675H7.22184L6.49971 14.2701ZM18 3.75C18.4142 3.75 18.75 3.41421 18.75 3C18.75 2.58579 18.4142 2.25 18 2.25V3V3.75ZM6 3V3.75H9V3V2.25H6V3ZM8.07944 15.7272L7.62491 16.3238L14.5455 21.5966L15 21L15.4545 20.4034L8.53398 15.1306L8.07944 15.7272ZM14 8H13.25C13.25 10.3472 11.3472 12.25 9 12.25V13V13.75C12.1756 13.75 14.75 11.1756 14.75 8H14ZM9 3V3.75C11.3472 3.75 13.25 5.65279 13.25 8H14H14.75C14.75 4.82436 12.1756 2.25 9 2.25V3ZM9 13V12.25C8.38828 12.25 7.88718 12.2495 7.50777 12.2772C7.16673 12.3021 6.73646 12.3557 6.40871 12.6029L6.86036 13.2016L7.312 13.8004C7.25158 13.846 7.26703 13.7987 7.61693 13.7732C7.92846 13.7505 8.36352 13.75 9 13.75V13ZM8.07944 15.7272L8.53398 15.1306C8.0277 14.7449 7.68194 14.4808 7.44791 14.274C7.18506 14.0416 7.2014 13.9947 7.22184 14.0675L6.49971 14.2701L5.77758 14.4726C5.88846 14.8679 6.19824 15.1713 6.45443 15.3978C6.73945 15.6497 7.13833 15.953 7.62491 16.3238L8.07944 15.7272ZM6.86036 13.2016L6.40871 12.6029C5.83348 13.0368 5.58298 13.7789 5.77758 14.4726L6.49971 14.2701L7.22184 14.0675C7.19404 13.9684 7.22982 13.8624 7.312 13.8004L6.86036 13.2016ZM6 3V3.75H18V3V2.25H6V3Z" fill="currentColor" />
    <path opacity="0.4" d="M6 8H18" stroke="currentColor" stroke-width="2" stroke-linecap="round" stroke-linejoin="round" />
</svg>