<svg xmlns="http://www.w3.org/2000/svg" width="24" height="24" viewBox="0 0 24 24" fill="none">
    <path opacity="0.4" d="M15.9986 12L16.9986 12" stroke="currentColor" stroke-width="2" stroke-linecap="round" stroke-linejoin="round" />
    <path d="M6.9986 12L7.9986 12M11.4986 12L11.9986 12" stroke="currentColor" stroke-width="2" stroke-linecap="round" stroke-linejoin="round" />
    <path d="M6.9986 17L16.9986 17" stroke="currentColor" stroke-width="2" stroke-linecap="round" stroke-linejoin="round" />
    <path d="M1.9986 2L21.9986 22" stroke="currentColor" stroke-width="2" stroke-linecap="round" />
    <path d="M20.5362 21.092C19.4298 21.9999 17.7861 21.9999 14.4986 21.9999H9.4986C6.21111 21.9999 4.56737 21.9999 3.46102 21.092C3.25849 20.9257 3.07277 20.74 2.90655 20.5375C1.9986 19.4311 1.9986 17.7874 1.9986 14.4999C1.9986 11.2124 1.9986 9.5687 2.90655 8.46235C3.07277 8.25981 3.25849 8.0741 3.46102 7.90788C4.24233 7.26668 5.29163 7.0783 6.9986 7.02295" stroke="currentColor" stroke-width="2" stroke-linecap="round" />
    <path opacity="0.4" d="M21.0906 8.46243L20.5109 8.93822L20.5109 8.93822L21.0906 8.46243ZM21.226 16.9757C21.2125 17.3897 21.5373 17.7362 21.9513 17.7496C22.3653 17.763 22.7118 17.4383 22.7252 17.0243L21.9756 17L21.226 16.9757ZM20.5362 7.90796L20.0604 8.48772L20.0604 8.48772L20.5362 7.90796ZM11.9986 7H11.2486C11.2486 7.41421 11.5844 7.75 11.9986 7.75V7ZM14.7486 2C14.7486 1.58579 14.4128 1.25 13.9986 1.25C13.5844 1.25 13.2486 1.58579 13.2486 2H13.9986H14.7486ZM21.9986 14.5H22.7486C22.7486 12.8746 22.7498 11.5897 22.6299 10.5752C22.5081 9.54428 22.2522 8.69558 21.6704 7.98663L21.0906 8.46243L20.5109 8.93822C20.837 9.33563 21.0352 9.86197 21.1403 10.7513C21.2474 11.6572 21.2486 12.8379 21.2486 14.5H21.9986ZM21.9986 14.5H21.2486C21.2486 15.4697 21.2485 16.2803 21.226 16.9757L21.9756 17L22.7252 17.0243C22.7487 16.2994 22.7486 15.462 22.7486 14.5H21.9986ZM20.5362 7.90796L20.0604 8.48772C20.2249 8.62277 20.3758 8.77366 20.5109 8.93822L21.0906 8.46243L21.6704 7.98663C21.473 7.74612 21.2525 7.52558 21.012 7.3282L20.5362 7.90796ZM14.4986 7V7.75C16.1607 7.75 17.3414 7.75123 18.2473 7.85831C19.1366 7.96343 19.663 8.16158 20.0604 8.48772L20.5362 7.90796L21.012 7.3282C20.303 6.74638 19.4543 6.49054 18.4233 6.36868C17.4089 6.24877 16.124 6.25 14.4986 6.25V7ZM11.9986 7V7.75H14.4986V7V6.25H11.9986V7ZM11.9986 7H12.7486V5H11.9986H11.2486V7H11.9986ZM13.9986 3H14.7486V2H13.9986H13.2486V3H13.9986ZM12.9986 4V4.75C13.9651 4.75 14.7486 3.9665 14.7486 3H13.9986H13.2486C13.2486 3.13807 13.1367 3.25 12.9986 3.25V4ZM11.9986 5H12.7486C12.7486 4.86193 12.8605 4.75 12.9986 4.75V4V3.25C12.0321 3.25 11.2486 4.0335 11.2486 5H11.9986Z" fill="currentColor" />
</svg>