<svg xmlns="http://www.w3.org/2000/svg" width="24" height="24" viewBox="0 0 24 24" fill="none">
    <path d="M11.9968 2H9.61527C7.79367 2 6.88286 2 6.59129 2.44424C6.29973 2.88848 6.70088 3.87621 7.5032 5.85167C8.24667 7.68226 8.66849 9.7759 8.66849 12C8.66849 14.2241 8.24667 16.3177 7.5032 18.1483C6.70088 20.1238 6.29973 21.1115 6.59129 21.5558C6.88286 22 7.79367 22 9.61527 22H11.9968" stroke="currentColor" stroke-width="2" stroke-linecap="round" stroke-linejoin="round" />
    <path opacity="0.4" d="M11.9963 22H14.3779C16.1969 22 17.1064 22 17.3986 21.5623C17.6908 21.1245 17.3029 20.1255 16.5272 18.1274C15.8184 16.3018 15.4326 14.2156 15.4326 12C15.4326 9.78439 15.8184 7.69824 16.5272 5.87264C17.3029 3.87454 17.6908 2.87548 17.3986 2.43774C17.1064 2 16.1969 2 14.3779 2H11.9963" stroke="currentColor" stroke-width="2" stroke-linecap="round" stroke-linejoin="round" />
</svg>