<svg xmlns="http://www.w3.org/2000/svg" width="24" height="24" viewBox="0 0 24 24" fill="none">
    <path opacity="0.4" d="M7.99609 3.34363C7.99609 9.09152 7.99609 12.3141 7.99609 18.062M14.9961 20.0921V5.88129" stroke="currentColor" stroke-width="2" stroke-linecap="round" stroke-linejoin="round" />
    <path d="M1.99609 15.8673V8.39074C1.99609 7.16981 1.99609 6.55934 2.29479 6.06876C2.59349 5.57817 3.13141 5.30516 4.20724 4.75915L4.67742 4.52051C6.30984 3.69201 7.12605 3.27776 8.00812 3.25145C8.89019 3.22514 9.72895 3.59002 11.4065 4.31979L13.4204 5.19591C14.1972 5.53383 14.5856 5.70278 14.9961 5.70278C15.4066 5.70278 15.795 5.53383 16.5718 5.19591L17.8143 4.65536C19.7032 3.83368 20.6476 3.42283 21.3218 3.87413C21.9961 4.32544 21.9961 5.3684 21.9961 7.45433V15.3848C21.9961 16.6833 21.9961 17.3325 21.6658 17.841C21.3355 18.3495 20.7476 18.6053 19.5718 19.1168L18.1474 19.7364C16.5939 20.4122 15.8171 20.7501 14.9961 20.7501C14.1751 20.7501 13.3983 20.4122 11.8447 19.7364L9.39393 18.6702C8.70287 18.3696 8.35734 18.2193 7.99029 18.2038C7.62324 18.1883 7.2666 18.3089 6.55334 18.5503L5.94478 18.7562C4.14291 19.3658 3.24196 19.6707 2.61903 19.2149C1.99609 18.7592 1.99609 17.7952 1.99609 15.8673Z" stroke="currentColor" stroke-width="2" stroke-linecap="round" stroke-linejoin="round" />
</svg>