<svg xmlns="http://www.w3.org/2000/svg" width="24" height="24" viewBox="0 0 24 24" fill="none">
    <path d="M2.99609 15C2.99609 11.6863 5.68239 9 8.99609 9C12.3098 9 14.9961 11.6863 14.9961 15C14.9961 18.3137 12.3098 21 8.99609 21C5.68239 21 2.99609 18.3137 2.99609 15Z" stroke="currentColor" stroke-width="2" stroke-linecap="round" stroke-linejoin="round" />
    <path opacity="0.4" d="M21.0264 4.03033C21.3193 3.73744 21.3193 3.26256 21.0264 2.96967C20.7335 2.67678 20.2587 2.67678 19.9658 2.96967L20.4961 3.5L21.0264 4.03033ZM12.9658 9.96967C12.6729 10.2626 12.6729 10.7374 12.9658 11.0303C13.2587 11.3232 13.7335 11.3232 14.0264 11.0303L13.4961 10.5L12.9658 9.96967ZM20.6642 3.33192L21.1945 2.80159V2.80159L20.6642 3.33192ZM19.9227 8.88748C19.8606 9.297 20.1422 9.67937 20.5517 9.74151C20.9612 9.80365 21.3436 9.52205 21.4057 9.11252L20.6642 9L19.9227 8.88748ZM14.8836 2.59043C14.474 2.65258 14.1924 3.03495 14.2546 3.44447C14.3167 3.854 14.6991 4.1356 15.1086 4.07345L14.9961 3.33194L14.8836 2.59043ZM20.4961 3.5L19.9658 2.96967L12.9658 9.96967L13.4961 10.5L14.0264 11.0303L21.0264 4.03033L20.4961 3.5ZM20.6642 3.33192L20.1338 3.86224C20.0795 3.80791 20.1089 3.80212 20.1506 3.97027C20.1865 4.11509 20.2146 4.31887 20.2307 4.5789C20.2627 5.09667 20.2419 5.74381 20.1961 6.39326C20.1506 7.03779 20.0822 7.66245 20.0249 8.12758C19.9962 8.35965 19.9705 8.55085 19.952 8.68354C19.9428 8.74986 19.9353 8.80149 19.9303 8.83624C19.9277 8.8536 19.9258 8.86674 19.9245 8.87538C19.9239 8.8797 19.9234 8.88289 19.9231 8.88491C19.9229 8.88593 19.9228 8.88665 19.9228 8.88708C19.9227 8.8873 19.9227 8.88744 19.9227 8.8875C19.9227 8.88754 19.9227 8.88753 19.9227 8.88755C19.9227 8.88752 19.9227 8.88748 20.6642 9C21.4057 9.11252 21.4057 9.11244 21.4057 9.11234C21.4058 9.11228 21.4058 9.11216 21.4058 9.11205C21.4058 9.11181 21.4059 9.11151 21.4059 9.11113C21.406 9.11036 21.4062 9.1093 21.4064 9.10795C21.4068 9.10524 21.4074 9.10136 21.4081 9.09634C21.4096 9.08631 21.4118 9.07172 21.4145 9.05286C21.4201 9.01515 21.4279 8.96033 21.4377 8.89063C21.4571 8.75127 21.4839 8.55216 21.5136 8.31119C21.5729 7.83025 21.6445 7.17792 21.6924 6.49878C21.7399 5.82456 21.7658 5.10136 21.7278 4.48635C21.7089 4.17999 21.6728 3.87677 21.6066 3.60951C21.5461 3.36558 21.4355 3.04264 21.1945 2.80159L20.6642 3.33192ZM14.9961 3.33194C15.1086 4.07345 15.1086 4.07346 15.1086 4.07346C15.1086 4.07346 15.1086 4.07346 15.1086 4.07345C15.1087 4.07344 15.1088 4.07342 15.109 4.07339C15.1095 4.07333 15.1102 4.07322 15.1112 4.07306C15.1132 4.07276 15.1164 4.07228 15.1207 4.07164C15.1294 4.07035 15.1425 4.06841 15.1599 4.06587C15.1946 4.0608 15.2462 4.05337 15.3126 4.04412C15.4453 4.02563 15.6365 3.9999 15.8685 3.97127C16.3337 3.9139 16.9583 3.84547 17.6028 3.80001C18.2523 3.7542 18.8994 3.73342 19.4172 3.76542C19.6772 3.7815 19.881 3.8096 20.0258 3.84548C20.194 3.88715 20.1882 3.91659 20.1338 3.86224L20.6642 3.33192L21.1945 2.80159C20.9534 2.56054 20.6305 2.44995 20.3866 2.38951C20.1193 2.32329 19.8161 2.28722 19.5097 2.26828C18.8947 2.23027 18.1715 2.25617 17.4973 2.30373C16.8182 2.35163 16.1658 2.42323 15.6849 2.48256C15.4439 2.51228 15.2448 2.53906 15.1055 2.55849C15.0358 2.56821 14.9809 2.57609 14.9432 2.5816C14.9244 2.58435 14.9098 2.58651 14.8997 2.588C14.8947 2.58875 14.8908 2.58933 14.8881 2.58974C14.8868 2.58994 14.8857 2.5901 14.885 2.59022C14.8846 2.59028 14.8843 2.59032 14.884 2.59036C14.8839 2.59038 14.8838 2.59039 14.8837 2.5904C14.8836 2.59042 14.8836 2.59043 14.9961 3.33194Z" fill="currentColor" />
</svg>