<svg xmlns="http://www.w3.org/2000/svg" width="24" height="24" viewBox="0 0 24 24" fill="none">
    <path d="M11.996 13L16.4329 8.00691C18.3449 5.8553 19.3009 4.7795 18.9096 3.88975C18.5184 3 17.0894 3 14.2313 3H9.7608C6.9028 3 5.47379 3 5.08255 3.88974C4.69131 4.77947 5.64725 5.85527 7.55914 8.00687L11.996 13" stroke="currentColor" stroke-width="2" stroke-linecap="round" stroke-linejoin="round" />
    <path opacity="0.4" d="M12.746 13C12.746 12.5858 12.4102 12.25 11.996 12.25C11.5818 12.25 11.246 12.5858 11.246 13H11.996H12.746ZM11.246 21C11.246 21.4142 11.5818 21.75 11.996 21.75C12.4102 21.75 12.746 21.4142 12.746 21H11.996H11.246ZM8.49609 20.25C8.08188 20.25 7.74609 20.5858 7.74609 21C7.74609 21.4142 8.08188 21.75 8.49609 21.75V21V20.25ZM15.4961 21.75C15.9103 21.75 16.2461 21.4142 16.2461 21C16.2461 20.5858 15.9103 20.25 15.4961 20.25V21V21.75ZM11.996 13H11.246V21H11.996H12.746V13H11.996ZM8.49609 21V21.75H15.4961V21V20.25H8.49609V21Z" fill="currentColor" />
</svg>