<svg xmlns="http://www.w3.org/2000/svg" width="24" height="24" viewBox="0 0 24 24" fill="none">
    <path opacity="0.4" d="M18.2554 4.854C20.2414 6.59523 21.4954 9.15117 21.4954 12C21.4954 17.2467 17.2421 21.5 11.9954 21.5C10.3673 21.5 8.83479 21.0904 7.49539 20.3687C5.62716 19.362 4.37001 20.2979 3.26132 20.4658C3.09313 20.4912 2.92564 20.4302 2.80536 20.31" stroke="currentColor" stroke-width="2" stroke-linecap="round" stroke-linejoin="round" />
    <path d="M18.2567 4.85401C16.585 3.3884 14.3947 2.5 11.9968 2.5C6.75006 2.5 2.49677 6.75329 2.49677 12C2.49677 13.0483 2.66657 14.057 2.98017 15C3.52497 16.6382 3.12542 18.5818 2.69027 19.6074C2.58943 19.8451 2.62417 20.1274 2.80673 20.31" stroke="currentColor" stroke-width="2" stroke-linecap="round" stroke-linejoin="round" />
</svg>