<svg xmlns="http://www.w3.org/2000/svg" width="24" height="24" viewBox="0 0 24 24" fill="none">
    <path opacity="0.4" d="M9.79446 4.62998L15.828 6.99094C19.308 8.35267 21.048 9.03354 20.9903 10.1136C20.9326 11.1936 19.1167 11.6888 15.485 12.6793C14.4036 12.9742 13.8629 13.1217 13.488 13.4966C13.1132 13.8715 12.9657 14.4121 12.6708 15.4935C11.6803 19.1253 11.1851 20.9412 10.105 20.9989C9.02499 21.0565 8.34413 19.3166 6.98239 15.8366L4.62143 9.803C3.19575 6.15959 2.48291 4.33788 3.40612 3.41467C4.32934 2.49145 6.15104 3.20429 9.79446 4.62998Z" stroke="currentColor" stroke-width="2" stroke-linecap="round" stroke-linejoin="round" />
    <path d="M13.488 13.4962C13.1132 13.8711 12.9657 14.4118 12.6708 15.4932C11.6803 19.1249 11.1851 20.9408 10.105 20.9985C9.02499 21.0562 8.34413 19.3162 6.98239 15.8362L4.62143 9.80265C3.19575 6.15923 2.48291 4.33752 3.40612 3.41431" stroke="currentColor" stroke-width="2" stroke-linecap="round" stroke-linejoin="round" />
</svg>