<svg xmlns="http://www.w3.org/2000/svg" width="24" height="24" viewBox="0 0 24 24" fill="none">
    <path opacity="0.4" d="M15.8353 4.29219L8.34527 7.32012C4.79302 8.75615 3.0169 9.47417 3.00021 10.4587C2.99809 10.5842 3.01186 10.7095 3.04121 10.8315C3.2714 11.7889 5.16111 12.1039 8.94051 12.7338C9.85191 12.8857 10.3076 12.9616 10.6276 13.245C10.6725 13.2848 10.715 13.3273 10.7548 13.3722C11.0382 13.6922 11.1141 14.1479 11.266 15.0593C11.8959 18.8386 12.2109 20.7282 13.1682 20.9584C13.2902 20.9878 13.4156 21.0016 13.5411 20.9994C14.5256 20.9827 15.2435 19.2066 16.6795 15.6545L19.7074 8.1644C20.8293 5.3893 21.3902 4.00175 20.6941 3.30558C19.9979 2.60941 18.6104 3.17034 15.8353 4.29219Z" stroke="currentColor" stroke-width="2" stroke-linecap="round" stroke-linejoin="round" />
    <path d="M10.7548 13.3722C11.0382 13.6921 11.1141 14.1478 11.266 15.0593C11.8959 18.8385 12.2109 20.7282 13.1682 20.9584C13.2903 20.9877 13.4156 21.0015 13.5411 20.9994C14.5256 20.9827 15.2436 19.2066 16.6795 15.6545L19.7074 8.16436C20.8293 5.38926 21.3902 4.00171 20.6941 3.30554" stroke="currentColor" stroke-width="2" stroke-linecap="round" stroke-linejoin="round" />
</svg>