<svg xmlns="http://www.w3.org/2000/svg" width="24" height="24" viewBox="0 0 24 24" fill="none">
    <path opacity="0.4" d="M9.15861 7.1499L5.88428 14.6171C4.33139 18.1585 3.55494 19.9292 4.26513 20.64C4.35568 20.7306 4.45772 20.8098 4.56883 20.8756C5.44026 21.3918 7.05806 20.2738 10.2937 18.0379C11.0739 17.4987 11.464 17.2291 11.9068 17.2031C11.969 17.1995 12.0313 17.1995 12.0935 17.2031C12.5362 17.2291 12.9264 17.4987 13.7066 18.0379C16.9421 20.2738 18.5598 21.3917 19.4313 20.8755C19.5424 20.8097 19.6445 20.7305 19.735 20.6399C20.4452 19.9291 19.6687 18.1584 18.1159 14.6172L14.8415 7.14995C13.6283 4.38332 13.0217 3.00001 12 3C10.9783 2.99999 10.3718 4.38329 9.15861 7.1499Z" stroke="currentColor" stroke-width="2" stroke-linecap="round" stroke-linejoin="round" />
    <path d="M11.9068 17.2031C11.464 17.2291 11.0739 17.4987 10.2937 18.0379C7.05806 20.2738 5.44026 21.3918 4.56883 20.8756C4.45772 20.8098 4.35568 20.7306 4.26513 20.64C3.55494 19.9292 4.33139 18.1585 5.88428 14.6171L9.15861 7.1499C10.3718 4.38329 10.9783 2.99999 12 3" stroke="currentColor" stroke-width="2" stroke-linecap="round" stroke-linejoin="round" />
</svg>