<svg xmlns="http://www.w3.org/2000/svg" width="24" height="24" viewBox="0 0 24 24" fill="none">
    <path d="M8.99219 6C8.99219 4.58579 8.99219 3.87868 9.43153 3.43934C9.87087 3 10.578 3 11.9922 3C13.4064 3 14.1135 3 14.5528 3.43934C14.9922 3.87868 14.9922 4.58579 14.9922 6C14.9922 7.41421 14.9922 8.12132 14.5528 8.56066C14.1135 9 13.4064 9 11.9922 9C10.578 9 9.87087 9 9.43153 8.56066C8.99219 8.12132 8.99219 7.41421 8.99219 6Z" stroke="currentColor" stroke-width="2" stroke-linejoin="round" />
    <path d="M2.99219 18C2.99219 16.5858 2.99219 15.8787 3.43153 15.4393C3.87087 15 4.57797 15 5.99219 15C7.4064 15 8.11351 15 8.55285 15.4393C8.99219 15.8787 8.99219 16.5858 8.99219 18C8.99219 19.4142 8.99219 20.1213 8.55285 20.5607C8.11351 21 7.4064 21 5.99219 21C4.57797 21 3.87087 21 3.43153 20.5607C2.99219 20.1213 2.99219 19.4142 2.99219 18Z" stroke="currentColor" stroke-width="2" stroke-linejoin="round" />
    <path d="M14.9922 18C14.9922 16.5858 14.9922 15.8787 15.4315 15.4393C15.8709 15 16.578 15 17.9922 15C19.4064 15 20.1135 15 20.5528 15.4393C20.9922 15.8787 20.9922 16.5858 20.9922 18C20.9922 19.4142 20.9922 20.1213 20.5528 20.5607C20.1135 21 19.4064 21 17.9922 21C16.578 21 15.8709 21 15.4315 20.5607C14.9922 20.1213 14.9922 19.4142 14.9922 18Z" stroke="currentColor" stroke-width="2" stroke-linejoin="round" />
    <path opacity="0.4" d="M12.7422 9C12.7422 8.58579 12.4064 8.25 11.9922 8.25C11.578 8.25 11.2422 8.58579 11.2422 9H11.9922H12.7422ZM11.2422 12.0002C11.2422 12.4144 11.578 12.7502 11.9922 12.7502C12.4064 12.7502 12.7422 12.4144 12.7422 12.0002H11.9922H11.2422ZM16.7576 12.1524L17.0446 11.4595H17.0446L16.7576 12.1524ZM17.2422 15.0002C17.2422 15.4144 17.578 15.7502 17.9922 15.7502C18.4064 15.7502 18.7422 15.4144 18.7422 15.0002H17.9922H17.2422ZM17.8399 13.2348L18.5329 12.9478V12.9478L17.8399 13.2348ZM5.24219 15.0002C5.24219 15.4144 5.57797 15.7502 5.99219 15.7502C6.4064 15.7502 6.74219 15.4144 6.74219 15.0002H5.99219H5.24219ZM6.14443 13.2348L5.45152 12.9478V12.9478L6.14443 13.2348ZM7.22682 12.1524L6.93981 11.4595H6.93981L7.22682 12.1524ZM11.9922 9H11.2422V12.0002H11.9922H12.7422V9H11.9922ZM8.99219 12.0002V12.7502H14.9922V12.0002V11.2502H8.99219V12.0002ZM14.9922 12.0002V12.7502C15.4684 12.7502 15.788 12.7506 16.0354 12.7675C16.2762 12.7839 16.3934 12.8134 16.4705 12.8453L16.7576 12.1524L17.0446 11.4595C16.7542 11.3392 16.4547 11.2926 16.1376 11.271C15.8272 11.2498 15.4479 11.2502 14.9922 11.2502V12.0002ZM17.9922 15.0002H18.7422C18.7422 14.5445 18.7426 14.1652 18.7214 13.8548C18.6998 13.5377 18.6531 13.2382 18.5329 12.9478L17.8399 13.2348L17.147 13.5218C17.179 13.599 17.2085 13.7162 17.2249 13.9569C17.2418 14.2044 17.2422 14.524 17.2422 15.0002H17.9922ZM16.7576 12.1524L16.4705 12.8453C16.7768 12.9722 17.0202 13.2155 17.147 13.5218L17.8399 13.2348L18.5329 12.9478C18.2537 12.274 17.7184 11.7386 17.0446 11.4595L16.7576 12.1524ZM5.99219 15.0002H6.74219C6.74219 14.524 6.74259 14.2044 6.75948 13.9569C6.7759 13.7162 6.80538 13.599 6.83734 13.5218L6.14443 13.2348L5.45152 12.9478C5.33124 13.2382 5.28459 13.5377 5.26296 13.8548C5.24178 14.1652 5.24219 14.5445 5.24219 15.0002H5.99219ZM8.99219 12.0002V11.2502C8.53651 11.2502 8.15719 11.2498 7.84682 11.271C7.52972 11.2926 7.2302 11.3392 6.93981 11.4595L7.22682 12.1524L7.51383 12.8453C7.59099 12.8134 7.7082 12.7839 7.94893 12.7675C8.19639 12.7506 8.51598 12.7502 8.99219 12.7502V12.0002ZM6.14443 13.2348L6.83734 13.5218C6.96421 13.2155 7.20755 12.9722 7.51383 12.8453L7.22682 12.1524L6.93981 11.4595C6.26598 11.7386 5.73063 12.274 5.45152 12.9478L6.14443 13.2348Z" fill="currentColor" />
</svg>