<svg xmlns="http://www.w3.org/2000/svg" width="24" height="24" viewBox="0 0 24 24" fill="none">
    <path d="M14.3287 19.5069C14.4174 20.8573 13.346 22.0014 11.9927 22.0014C10.6393 22.0014 9.5679 20.8572 9.65672 19.5067L9.88744 15.9988C9.93415 15.2886 9.95751 14.9335 9.78977 14.6616C9.75809 14.6102 9.72182 14.5618 9.68141 14.517C9.46749 14.2797 9.12008 14.2025 8.42526 14.0481L7.59757 13.8642C7.0865 13.7506 6.83097 13.6938 6.62078 13.592C6.07965 13.3298 5.68519 12.8381 5.54664 12.253C5.49282 12.0257 5.49282 11.7639 5.49282 11.2404C5.49282 10.9205 5.49282 10.7606 5.52908 10.6297C5.62283 10.2911 5.88739 10.0265 6.22599 9.93274C6.35694 9.89648 6.51687 9.89648 6.83673 9.89648H17.1489C17.4688 9.89648 17.6287 9.89648 17.7597 9.93274C18.0983 10.0265 18.3628 10.2911 18.4566 10.6297C18.4928 10.7606 18.4928 10.9205 18.4928 11.2404C18.4928 11.7639 18.4928 12.0257 18.439 12.253C18.3005 12.8381 17.906 13.3298 17.3649 13.592C17.1547 13.6938 16.8991 13.7506 16.3881 13.8642L15.5603 14.0481C14.8655 14.2025 14.5181 14.2798 14.3042 14.517C14.2638 14.5618 14.2275 14.6102 14.1959 14.6615C14.0281 14.9334 14.0515 15.2886 14.0981 15.9988L14.3287 19.5069Z" stroke="currentColor" stroke-width="2" stroke-linejoin="round" />
    <path opacity="0.4" d="M16.7428 9.89604C16.7428 10.3103 17.0786 10.646 17.4928 10.646C17.907 10.646 18.2428 10.3103 18.2428 9.89604H17.4928H16.7428ZM5.74282 9.89604C5.74282 10.3103 6.07861 10.646 6.49282 10.646C6.90704 10.646 7.24282 10.3103 7.24282 9.89604H6.49282H5.74282ZM16.907 2.58676L16.3767 3.11709L16.3767 3.11709L16.907 2.58676ZM10.7428 2.00107C10.7428 1.58685 10.407 1.25107 9.99282 1.25107C9.57861 1.25107 9.24282 1.58685 9.24282 2.00107H9.99282H10.7428ZM9.24282 4.50107C9.24282 4.91528 9.57861 5.25107 9.99282 5.25107C10.407 5.25107 10.7428 4.91528 10.7428 4.50107H9.99282H9.24282ZM14.7428 2.00107C14.7428 1.58685 14.407 1.25107 13.9928 1.25107C13.5786 1.25107 13.2428 1.58685 13.2428 2.00107H13.9928H14.7428ZM13.2428 6.00107C13.2428 6.41528 13.5786 6.75107 13.9928 6.75107C14.407 6.75107 14.7428 6.41528 14.7428 6.00107H13.9928H13.2428ZM17.4928 9.89604H18.2428V6.00098H17.4928H16.7428V9.89604H17.4928ZM13.4928 2.00098V1.25098H10.4928V2.00098V2.75098H13.4928V2.00098ZM6.49282 6.00097H5.74282V9.89604H6.49282H7.24282V6.00097H6.49282ZM10.4928 2.00098V1.25098C9.57122 1.25098 8.80456 1.24938 8.19835 1.33089C7.57055 1.41529 7.00375 1.60096 6.54828 2.05643L7.07861 2.58676L7.60894 3.11709C7.73926 2.98678 7.93676 2.87955 8.39822 2.81751C8.88125 2.75257 9.52881 2.75098 10.4928 2.75098V2.00098ZM6.49282 6.00097H7.24282C7.24282 5.03696 7.24442 4.3894 7.30936 3.90637C7.3714 3.44491 7.47862 3.24741 7.60894 3.11709L7.07861 2.58676L6.54828 2.05643C6.09281 2.5119 5.90714 3.0787 5.82274 3.7065C5.74123 4.31271 5.74282 5.07937 5.74282 6.00097H6.49282ZM17.4928 6.00098H18.2428C18.2428 5.07937 18.2444 4.31272 18.1629 3.7065C18.0785 3.0787 17.8928 2.5119 17.4374 2.05643L16.907 2.58676L16.3767 3.11709C16.507 3.24741 16.6142 3.44491 16.6763 3.90637C16.7412 4.38941 16.7428 5.03696 16.7428 6.00098H17.4928ZM13.4928 2.00098V2.75098C14.4568 2.75098 15.1044 2.75257 15.5874 2.81751C16.0489 2.87955 16.2464 2.98678 16.3767 3.11709L16.907 2.58676L17.4374 2.05643C16.9819 1.60096 16.4151 1.41529 15.7873 1.33089C15.1811 1.24938 14.4144 1.25098 13.4928 1.25098V2.00098ZM9.99282 2.00107H9.24282V4.50107H9.99282H10.7428V2.00107H9.99282ZM13.9928 2.00107H13.2428V6.00107H13.9928H14.7428V2.00107H13.9928Z" fill="currentColor" />
</svg>