<svg xmlns="http://www.w3.org/2000/svg" width="24" height="24" viewBox="0 0 24 24" fill="none">
    <path d="M8.49283 8.5V13.5L6.18512 11.3369C5.38662 10.738 4.24535 10.9616 3.73182 11.8174C3.40143 12.3681 3.41313 13.0587 3.76199 13.5979L6.32167 17.5095C7.39709 19.1529 7.93479 19.9746 8.74305 20.4492C8.82427 20.4969 8.90716 20.5417 8.99155 20.5836C9.83129 21 10.8133 21 12.7773 21H13.4924C16.3014 21 17.7059 21 18.7148 20.3259C19.0027 20.1335 19.2638 19.9049 19.4919 19.6464" stroke="currentColor" stroke-width="2" stroke-linecap="round" stroke-linejoin="round" />
    <path opacity="0.4" d="M17.4919 12.5L17.4919 12.2667C17.4918 11.553 17.4917 11.1962 17.4016 10.9063C17.2062 10.2776 16.7139 9.78538 16.0852 9.59005C15.7953 9.5 15.4385 9.5 14.7248 9.5M17.8157 10.5C18.444 10.5 18.7582 10.5 19.0158 10.57C19.7004 10.756 20.2352 11.2908 20.4213 11.9754C20.4913 12.233 20.4913 12.5472 20.4914 13.1755L20.4914 13.9997C20.4915 14.7636 20.4915 15.4236 20.478 16M11.4919 6V3.5C11.4919 2.67157 10.8204 2 9.99194 2C9.16352 2 8.49194 2.67157 8.49194 3.5V4" stroke="currentColor" stroke-width="2" stroke-linecap="round" stroke-linejoin="round" />
    <path d="M1.99194 2L21.9919 22" stroke="currentColor" stroke-width="2" stroke-linecap="round" />
</svg>