<svg xmlns="http://www.w3.org/2000/svg" width="24" height="24" viewBox="0 0 24 24" fill="none">
    <path d="M11.9922 2C9.19192 2 7.79179 2 6.72223 2.54497C5.78142 3.02433 5.01652 3.78924 4.53716 4.73005C3.99219 5.79961 3.99219 7.19974 3.99219 10L3.99219 14C3.99219 16.8003 3.99219 18.2004 4.53715 19.27C5.01652 20.2108 5.78142 20.9757 6.72223 21.455C7.79179 22 9.19192 22 11.9922 22" stroke="currentColor" stroke-width="2" stroke-linecap="round" stroke-linejoin="round" />
    <path opacity="0.4" d="M11.9922 22C14.7924 22 16.1926 22 17.2621 21.455C18.2029 20.9757 18.9679 20.2108 19.4472 19.27C19.9922 18.2004 19.9922 16.8003 19.9922 14L19.9922 10C19.9922 7.19974 19.9922 5.79961 19.4472 4.73005C18.9679 3.78924 18.203 3.02433 17.2621 2.54497C16.1926 2 14.7925 2 11.9922 2" stroke="currentColor" stroke-width="2" stroke-linecap="round" stroke-linejoin="round" />
</svg>