<svg xmlns="http://www.w3.org/2000/svg" width="24" height="24" viewBox="0 0 24 24" fill="none">
    <path d="M19.0399 17.5L5.34775 17.5C5.0326 17.5 4.87502 17.5 4.74573 17.5341C4.39488 17.6265 4.12084 17.8961 4.02683 18.2412C3.99219 18.3683 3.99219 18.5233 3.99219 18.8333C3.99219 19.4533 3.99219 19.7633 4.06147 20.0176C4.24949 20.7078 4.79758 21.2469 5.49927 21.4319C5.75784 21.5 6.07301 21.5 6.70332 21.5L16.2696 21.5C18.0167 21.5 19.5396 20.3305 19.9633 18.6633C20.1135 18.0724 19.6591 17.5 19.0399 17.5Z" stroke="currentColor" stroke-width="2" stroke-linecap="round" stroke-linejoin="round" />
    <path opacity="0.4" d="M9.10925 14.5L9.10925 13.75H9.10925L9.10925 14.5ZM13.0193 14.5L13.0193 15.25V15.25L13.0193 14.5ZM15.7005 9.01262L16.3055 8.56926V8.56926L15.7005 9.01262ZM13.1869 5.58303L12.582 6.02639V6.02639L13.1869 5.58303ZM7.41201 6.32171L6.71738 6.03888V6.03888L7.41201 6.32171ZM6.01555 9.75131L6.71017 10.0342V10.0342L6.01555 9.75131ZM5.2013 13.7364L5.82971 13.327H5.82971L5.2013 13.7364ZM9.87891 2.50963L9.97407 3.25357V3.25357L9.87891 2.50963ZM9.24219 17.5C9.24219 17.9142 9.57797 18.25 9.99219 18.25C10.4064 18.25 10.7422 17.9142 10.7422 17.5H9.99219H9.24219ZM10.7422 3C10.7422 2.58579 10.4064 2.25 9.99219 2.25C9.57797 2.25 9.24219 2.58579 9.24219 3L9.99219 3L10.7422 3ZM9.10925 14.5L9.10925 15.25L13.0193 15.25L13.0193 14.5L13.0193 13.75L9.10925 13.75L9.10925 14.5ZM15.7005 9.01262L16.3055 8.56926L13.7918 5.13966L13.1869 5.58303L12.582 6.02639L15.0956 9.45598L15.7005 9.01262ZM7.41201 6.32171L6.71738 6.03888L5.32092 9.46848L6.01555 9.75131L6.71017 10.0342L8.10663 6.60455L7.41201 6.32171ZM9.10925 14.5L9.10925 13.75C7.94714 13.75 7.16264 13.7479 6.60146 13.663C6.05811 13.5808 5.90718 13.4459 5.82971 13.327L5.2013 13.7364L4.5729 14.1458C4.9929 14.7905 5.65913 15.0375 6.37697 15.1461C7.07698 15.2521 7.99772 15.25 9.10925 15.25L9.10925 14.5ZM6.01555 9.75131L5.32092 9.46848C4.89281 10.5199 4.5385 11.385 4.36589 12.0828C4.19003 12.7937 4.15619 13.5062 4.5729 14.1458L5.2013 13.7364L5.82971 13.327C5.74894 13.203 5.68498 12.9968 5.82199 12.443C5.96226 11.876 6.2638 11.1304 6.71017 10.0342L6.01555 9.75131ZM13.1869 5.58303L13.7918 5.13966C13.0258 4.09453 12.402 3.24003 11.8426 2.67373C11.2809 2.10518 10.6217 1.65851 9.78375 1.76569L9.87891 2.50963L9.97407 3.25357C10.1011 3.23732 10.3149 3.26173 10.7755 3.72793C11.2383 4.19638 11.786 4.9403 12.582 6.02639L13.1869 5.58303ZM7.41201 6.32171L8.10663 6.60455C8.61674 5.35175 8.969 4.49179 9.30543 3.92024C9.64083 3.35041 9.84486 3.27009 9.97407 3.25357L9.87891 2.50963L9.78375 1.76569C8.94799 1.87259 8.41921 2.46877 8.01273 3.15935C7.60727 3.8482 7.20856 4.83257 6.71738 6.03888L7.41201 6.32171ZM13.0193 14.5L13.0193 15.25C14.4556 15.25 15.6208 15.252 16.479 15.1232C17.3362 14.9945 18.1439 14.6991 18.5435 13.8813L17.8697 13.5521L17.1958 13.2228C17.1322 13.3529 16.9772 13.5315 16.2562 13.6398C15.5363 13.7479 14.5078 13.75 13.0193 13.75L13.0193 14.5ZM15.7005 9.01262L15.0956 9.45598C15.9879 10.6734 16.6054 11.5192 16.9545 12.1765C17.3058 12.838 17.2629 13.0855 17.1958 13.2228L17.8697 13.5521L18.5435 13.8813C18.9396 13.0707 18.6896 12.2456 18.2792 11.473C17.8667 10.6962 17.168 9.74613 16.3055 8.56926L15.7005 9.01262ZM9.99219 17.5H10.7422L10.7422 3L9.99219 3L9.24219 3L9.24219 17.5H9.99219Z" fill="currentColor" />
</svg>