<svg xmlns="http://www.w3.org/2000/svg" width="24" height="24" viewBox="0 0 24 24" fill="none">
    <path d="M4.99093 3.5V10.9998C4.99093 14.771 4.99093 16.6566 6.1625 17.8282C7.33407 18.9998 9.21969 18.9998 12.9909 18.9998H20.4909" stroke="currentColor" stroke-width="2" stroke-linecap="round" stroke-linejoin="round" />
    <path d="M6.99093 5L6.55267 4.4231C5.83192 3.47437 5.47155 3 4.99093 3C4.5103 3 4.14993 3.47437 3.42919 4.4231L2.99093 5" stroke="currentColor" stroke-width="2" stroke-linecap="round" stroke-linejoin="round" />
    <path d="M18.9909 21L19.5678 20.5617C20.5166 19.841 20.9909 19.4806 20.9909 19C20.9909 18.5194 20.5166 18.159 19.5678 17.4383L18.9909 17" stroke="currentColor" stroke-width="2" stroke-linecap="round" stroke-linejoin="round" />
    <path opacity="0.4" d="M5.9606 16.9697C5.66771 17.2626 5.66771 17.7374 5.9606 18.0303C6.25349 18.3232 6.72837 18.3232 7.02126 18.0303L6.49093 17.5L5.9606 16.9697ZM14.0213 11.0303C14.3142 10.7374 14.3142 10.2626 14.0213 9.96967C13.7284 9.67678 13.2535 9.67678 12.9606 9.96967L13.4909 10.5L14.0213 11.0303ZM13.0747 12.9639C13.0186 13.3743 13.3059 13.7525 13.7163 13.8085C14.1267 13.8645 14.5048 13.5773 14.5609 13.1669L13.8178 13.0654L13.0747 12.9639ZM13.9158 12.3476L13.1727 12.2461V12.2461L13.9158 12.3476ZM11.7072 10.1389L11.8087 10.882L11.7072 10.1389ZM10.8879 9.49387C10.4775 9.54992 10.1902 9.92805 10.2463 10.3385C10.3023 10.7489 10.6804 11.0361 11.0908 10.9801L10.9894 10.237L10.8879 9.49387ZM6.49093 17.5L7.02126 18.0303L14.0213 11.0303L13.4909 10.5L12.9606 9.96967L5.9606 16.9697L6.49093 17.5ZM13.8178 13.0654L14.5609 13.1669L14.6589 12.4491L13.9158 12.3476L13.1727 12.2461L13.0747 12.9639L13.8178 13.0654ZM11.7072 10.1389L11.6057 9.39584L10.8879 9.49387L10.9894 10.237L11.0908 10.9801L11.8087 10.882L11.7072 10.1389ZM13.9158 12.3476L14.6589 12.4491C14.7363 11.8822 14.8073 11.3762 14.8047 10.9722C14.802 10.5519 14.7217 10.0802 14.3481 9.70664L13.8178 10.237L13.2875 10.7673C13.2537 10.7336 13.3031 10.7269 13.3047 10.9819C13.3065 11.2531 13.2565 11.6325 13.1727 12.2461L13.9158 12.3476ZM11.7072 10.1389L11.8087 10.882C12.4223 10.7982 12.8016 10.7483 13.0729 10.75C13.3278 10.7517 13.3212 10.801 13.2875 10.7673L13.8178 10.237L14.3481 9.70664C13.9746 9.33308 13.5029 9.25278 13.0826 9.25007C12.6786 9.24747 12.1726 9.31842 11.6057 9.39584L11.7072 10.1389Z" fill="currentColor" />
</svg>