<svg xmlns="http://www.w3.org/2000/svg" width="24" height="24" viewBox="0 0 24 24" fill="none">
    <circle cx="11.9922" cy="11.9998" r="8" stroke="currentColor" stroke-width="2" />
    <path d="M14.4941 14.4998L19.0693 19.0726M4.92716 4.93042L9.49414 9.49976M9.49414 14.4998L4.92578 19.0808M19.0686 4.93802L14.4941 9.49976" stroke="currentColor" stroke-width="2" stroke-linecap="round" />
    <path opacity="0.4" d="M14.9922 11.9939L21.9922 11.9938M14.9922 11.9939C14.9922 13.6508 13.649 14.9938 11.9922 14.9938C10.3353 14.9938 8.99219 13.6508 8.99219 11.9939M14.9922 11.9939C14.9922 10.337 13.649 8.9939 11.9922 8.9939M1.99219 11.9938L8.99219 11.9939M8.99219 11.9939C8.99219 10.337 10.3353 8.9939 11.9922 8.9939M11.9972 14.9939V22.0003M11.9967 1.99976L11.9922 8.9939" stroke="currentColor" stroke-width="2" stroke-linecap="round" />
</svg>