<svg xmlns="http://www.w3.org/2000/svg" width="24" height="24" viewBox="0 0 24 24" fill="none">
    <path opacity="0.4" d="M10.0225 8.96967C10.3154 9.26256 10.3154 9.73744 10.0225 10.0303C9.72962 10.3232 9.25475 10.3232 8.96186 10.0303L9.49219 9.5L10.0225 8.96967ZM2.46186 3.53033C2.16896 3.23744 2.16896 2.76256 2.46186 2.46967C2.75475 2.17678 3.22962 2.17678 3.52252 2.46967L2.99219 3L2.46186 3.53033ZM2.99219 3L3.52252 2.46967L10.0225 8.96967L9.49219 9.5L8.96186 10.0303L2.46186 3.53033L2.99219 3Z" fill="currentColor" />
    <path opacity="0.4" d="M10.0225 15.0303C10.3154 14.7374 10.3154 14.2626 10.0225 13.9697C9.72962 13.6768 9.25475 13.6768 8.96186 13.9697L9.49219 14.5L10.0225 15.0303ZM2.46186 20.4697C2.16896 20.7626 2.16896 21.2374 2.46186 21.5303C2.75475 21.8232 3.22962 21.8232 3.52252 21.5303L2.99219 21L2.46186 20.4697ZM2.99219 21L3.52252 21.5303L10.0225 15.0303L9.49219 14.5L8.96186 13.9697L2.46186 20.4697L2.99219 21Z" fill="currentColor" />
    <path opacity="0.4" d="M13.9619 8.96967C13.669 9.26256 13.669 9.73744 13.9619 10.0303C14.2548 10.3232 14.7296 10.3232 15.0225 10.0303L14.4922 9.5L13.9619 8.96967ZM21.5225 3.53033C21.8154 3.23744 21.8154 2.76256 21.5225 2.46967C21.2296 2.17678 20.7548 2.17678 20.4619 2.46967L20.9922 3L21.5225 3.53033ZM20.9922 3L20.4619 2.46967L13.9619 8.96967L14.4922 9.5L15.0225 10.0303L21.5225 3.53033L20.9922 3Z" fill="currentColor" />
    <path opacity="0.4" d="M13.9619 15.0303C13.669 14.7374 13.669 14.2626 13.9619 13.9697C14.2548 13.6768 14.7296 13.6768 15.0225 13.9697L14.4922 14.5L13.9619 15.0303ZM21.5225 20.4697C21.8154 20.7626 21.8154 21.2374 21.5225 21.5303C21.2296 21.8232 20.7548 21.8232 20.4619 21.5303L20.9922 21L21.5225 20.4697ZM20.9922 21L20.4619 21.5303L13.9619 15.0303L14.4922 14.5L15.0225 13.9697L21.5225 20.4697L20.9922 21Z" fill="currentColor" />
    <path d="M5.99219 9.76337C6.74278 9.77404 9.22851 10.2904 9.75556 9.76337C10.2826 9.23633 9.76622 6.75059 9.75556 6" stroke="currentColor" stroke-width="2" stroke-linecap="round" stroke-linejoin="round" />
    <path d="M5.99219 14.2366C6.74278 14.226 9.22851 13.7096 9.75556 14.2366C10.2826 14.7637 9.76622 17.2494 9.75556 18" stroke="currentColor" stroke-width="2" stroke-linecap="round" stroke-linejoin="round" />
    <path d="M17.9922 9.76337C17.2416 9.77404 14.7559 10.2904 14.2288 9.76337C13.7018 9.23633 14.2182 6.75059 14.2288 6" stroke="currentColor" stroke-width="2" stroke-linecap="round" stroke-linejoin="round" />
    <path d="M17.9922 14.2366C17.2416 14.226 14.7559 13.7096 14.2288 14.2366C13.7018 14.7637 14.2182 17.2494 14.2288 18" stroke="currentColor" stroke-width="2" stroke-linecap="round" stroke-linejoin="round" />
</svg>