<svg xmlns="http://www.w3.org/2000/svg" width="24" height="24" viewBox="0 0 24 24" fill="none">
    <path opacity="0.4" d="M18.2903 9.40365C17.9815 9.13796 17.8271 9.00512 17.8076 8.9871C17.3225 8.53894 17.3498 8.59843 17.3265 7.93846C17.3255 7.91193 17.3255 7.71906 17.3255 7.33333C17.3255 4.38781 14.9377 2 11.9922 2C9.04667 2 6.65885 4.38781 6.65885 7.33333C6.65885 7.71906 6.65885 7.91193 6.65791 7.93846C6.63454 8.59844 6.66184 8.53894 6.1768 8.9871C6.1573 9.00512 6.0029 9.13796 5.6941 9.40365C4.65205 10.3002 3.99219 11.6286 3.99219 13.1111C3.99219 15.8112 6.18102 18 8.88108 18C11.2926 18 12.6918 18 15.1033 18C17.8034 18 19.9922 15.8112 19.9922 13.1111C19.9922 11.6286 19.3323 10.3002 18.2903 9.40365Z" stroke="currentColor" stroke-width="2" />
    <path d="M11.9922 7.5V22" stroke="currentColor" stroke-width="2" stroke-linecap="round" stroke-linejoin="round" />
    <path d="M9.49219 10L11.9922 12.5" stroke="currentColor" stroke-width="2" stroke-linecap="round" stroke-linejoin="round" />
    <path d="M14.4922 13L11.9922 15.5" stroke="currentColor" stroke-width="2" stroke-linecap="round" stroke-linejoin="round" />
</svg>