<svg xmlns="http://www.w3.org/2000/svg" width="24" height="24" viewBox="0 0 24 24" fill="none">
    <path d="M18 19.6231C18.6891 19.4279 19.2323 19.1317 19.682 18.682C21 17.364 21 15.2426 21 11C21 6.75736 21 4.63604 19.682 3.31802C18.364 2 16.2426 2 12 2C7.75736 2 5.63604 2 4.31802 3.31802C3 4.63604 3 6.75736 3 11C3 15.2426 3 17.364 4.31802 18.682C4.76772 19.1317 5.31093 19.4279 6 19.6231" stroke="currentColor" stroke-width="2" stroke-linecap="round" stroke-linejoin="round" />
    <path d="M3.5 7H20.5" stroke="currentColor" stroke-width="2" stroke-linecap="round" stroke-linejoin="round" />
    <path opacity="0.4" d="M14 16.5V22L12 20.5L10 22V16.5M15 14C15 12.3431 13.6569 11 12 11C10.3431 11 9 12.3431 9 14C9 15.6569 10.3431 17 12 17C13.6569 17 15 15.6569 15 14Z" stroke="currentColor" stroke-width="2" stroke-linecap="round" stroke-linejoin="round" />
</svg>