<svg xmlns="http://www.w3.org/2000/svg" width="24" height="24" viewBox="0 0 24 24" fill="none">
    <path d="M11.9957 5C11.6975 5 11.3076 5.71322 10.5277 7.13967C9.72507 8.60787 8.65234 9.69316 7.14259 10.52C5.7089 11.3052 4.99206 11.6978 4.99206 11.9964C4.99206 12.2949 5.7089 12.6875 7.14259 13.4727C8.65234 14.2995 9.72507 15.3848 10.5277 16.853C11.3103 18.2844 11.7015 19 11.9997 19" stroke="currentColor" stroke-width="2" stroke-linecap="round" stroke-linejoin="round" />
    <path opacity="0.4" d="M11.9957 5C12.2939 5 12.6838 5.71322 13.4636 7.13967C14.2663 8.60787 15.3391 9.69316 16.8488 10.52C18.2776 11.3026 18.992 11.6938 18.9921 11.9923C18.9921 12.2908 18.2772 12.6825 16.8473 13.4658C15.3807 14.2693 14.2965 15.3432 13.4705 16.8545C12.6888 18.2848 12.2979 19 11.9997 19" stroke="currentColor" stroke-width="2" stroke-linecap="round" stroke-linejoin="round" />
</svg>