<svg xmlns="http://www.w3.org/2000/svg" width="24" height="24" viewBox="0 0 24 24" fill="none">
    <path d="M15.9922 18.501L17.1132 17.9405C17.8627 17.5657 18.2374 17.3784 18.496 17.0835C18.6425 16.9164 18.7601 16.726 18.8441 16.5202C18.9922 16.1571 18.9922 15.7381 18.9922 14.9002V13.501C18.9922 12.3964 19.8876 11.501 20.9922 11.501C21.5445 11.501 21.9922 11.0533 21.9922 10.501V10.001C21.9922 7.79184 20.2013 6.00098 17.9922 6.00098V5.00098C17.9922 4.44869 17.5445 4.00098 16.9922 4.00098C15.8876 4.00098 14.9922 4.89641 14.9922 6.00098V7.00098L13.9922 10.001C10.9546 10.001 8.49219 12.4634 8.49219 15.501C8.49219 18.5385 10.9546 21.001 13.9922 21.001H15.9922V18.501ZM15.9922 18.501V17.001C15.9922 15.3441 14.649 14.001 12.9922 14.001" stroke="currentColor" stroke-width="2" stroke-linecap="round" stroke-linejoin="round" />
    <path opacity="0.4" d="M9.99219 11.501V7.00098C9.99219 4.79184 8.20133 3.00098 5.99219 3.00098C3.78305 3.00098 1.99219 4.79184 1.99219 7.00098V8.00098C1.99219 9.38169 3.11148 10.501 4.49219 10.501C5.8729 10.501 6.99219 9.38169 6.99219 8.00098M4.99219 10.501V12.001C4.99219 14.7966 4.99219 16.1945 5.44891 17.2971C6.05787 18.7672 7.22592 19.9353 8.69609 20.5443C9.79871 21.001 11.1965 21.001 13.9922 21.001" stroke="currentColor" stroke-width="2" stroke-linecap="round" stroke-linejoin="round" />
    <path d="M10.9922 21.001H17.9922" stroke="currentColor" stroke-width="2" stroke-linecap="round" />
</svg>