<svg xmlns="http://www.w3.org/2000/svg" width="24" height="24" viewBox="0 0 24 24" fill="none">
    <path opacity="0.4" d="M9.968 20.8227C9.94403 21.2362 10.2598 21.5909 10.6734 21.6149C11.0869 21.6388 11.4415 21.323 11.4655 20.9095L10.7167 20.8661L9.968 20.8227ZM11.983 11.9799C12.0069 11.5664 11.6911 11.2117 11.2776 11.1878C10.8641 11.1638 10.5094 11.4796 10.4855 11.8931L11.2342 11.9365L11.983 11.9799ZM18.2757 19.3097C18.3906 19.7076 18.8064 19.937 19.2044 19.8221C19.6023 19.7071 19.8317 19.2914 19.7168 18.8934L18.9962 19.1016L18.2757 19.3097ZM17.6469 11.7274C17.532 11.3295 17.1162 11.1001 16.7182 11.215C16.3203 11.3299 16.0909 11.7457 16.2058 12.1437L16.9264 11.9355L17.6469 11.7274ZM5.39827 7.70222C5.0395 7.49521 4.58084 7.61823 4.37382 7.97701C4.16681 8.33578 4.28983 8.79444 4.6486 9.00146L5.02344 8.35184L5.39827 7.70222ZM9.78297 11.0981L9.40814 11.7477L9.40814 11.7477L9.78297 11.0981ZM18.7686 9.19968L18.1467 8.78052V8.78052L18.7686 9.19968ZM20.6519 7.74729C20.8834 7.40381 20.7927 6.93769 20.4492 6.70619C20.1057 6.47469 19.6396 6.56548 19.4081 6.90896L20.03 7.32812L20.6519 7.74729ZM16.7286 11.5714L16.3777 10.9086V10.9086L16.7286 11.5714ZM11.2621 11.8284L11.0684 12.5529V12.553L11.2621 11.8284ZM10.7167 20.8661L11.4655 20.9095L11.983 11.9799L11.2342 11.9365L10.4855 11.8931L9.968 20.8227L10.7167 20.8661ZM18.9962 19.1016L19.7168 18.8934L17.6469 11.7274L16.9264 11.9355L16.2058 12.1437L18.2757 19.3097L18.9962 19.1016ZM5.02344 8.35184L4.6486 9.00146L9.40814 11.7477L9.78297 11.0981L10.1578 10.4485L5.39827 7.70222L5.02344 8.35184ZM12.9118 11.9348V12.6848H13.6019V11.9348V11.1848H12.9118V11.9348ZM18.7686 9.19968L19.3906 9.61885L20.6519 7.74729L20.03 7.32812L19.4081 6.90896L18.1467 8.78052L18.7686 9.19968ZM13.6019 11.9348V12.6848C14.4018 12.6848 15.0519 12.6856 15.5868 12.6362C16.1368 12.5855 16.6184 12.4784 17.0795 12.2343L16.7286 11.5714L16.3777 10.9086C16.1523 11.0279 15.884 11.1025 15.449 11.1426C14.9988 11.1841 14.4289 11.1848 13.6019 11.1848V11.9348ZM18.7686 9.19968L18.1467 8.78052C17.6878 9.46136 17.3715 9.9293 17.0874 10.2761C16.8133 10.6107 16.6027 10.7895 16.3777 10.9086L16.7286 11.5714L17.0795 12.2343C17.5409 11.99 17.8991 11.6523 18.2478 11.2267C18.5865 10.8132 18.947 10.2769 19.3906 9.61885L18.7686 9.19968ZM9.78297 11.0981L9.40814 11.7477C10.0957 12.1445 10.5531 12.4151 11.0684 12.5529L11.2621 11.8284L11.4559 11.1039C11.1752 11.0288 10.9118 10.8836 10.1578 10.4485L9.78297 11.0981ZM12.9118 11.9348V11.1848C12.0389 11.1848 11.7369 11.179 11.4559 11.1039L11.2621 11.8284L11.0684 12.553C11.5834 12.6907 12.1158 12.6848 12.9118 12.6848V11.9348Z" fill="currentColor" />
    <path d="M20.8602 12.5478L20.2801 8.53102C20.1647 7.73229 20.1071 7.33293 19.951 6.96694C19.9243 6.90421 19.8954 6.84238 19.8645 6.78155C19.6842 6.42663 19.4144 6.12411 18.8748 5.51906C18.2628 4.83283 17.9568 4.48972 17.572 4.25227C17.5062 4.21163 17.4388 4.17345 17.3701 4.13781C16.9685 3.92953 16.5145 3.84185 15.6065 3.66649L13.9096 3.33877C12.3461 3.0368 11.5643 2.88581 10.8324 3.10153C10.1004 3.31724 9.52968 3.86684 8.38819 4.96602L5.55073 7.6983C4.99463 8.23379 4.71658 8.50153 4.51495 8.82488C4.31333 9.14822 4.19624 9.51417 3.96205 10.2461L3.76766 10.8536C3.12566 12.86 2.80465 13.8632 3.1068 14.795C3.40895 15.7268 4.25998 16.3581 5.96205 17.6209L8.71135 19.6605C9.70212 20.3955 10.1975 20.763 10.7807 20.9162C11.364 21.0694 11.9784 20.9934 13.2073 20.8415L15.1144 20.6057C17.0021 20.3723 17.9459 20.2556 18.6394 19.6932C19.3329 19.1309 19.6336 18.2383 20.2352 16.4532L20.604 15.3589C20.8347 14.6742 20.9501 14.3318 20.9825 13.9757C21.015 13.6195 20.9634 13.2623 20.8602 12.5478Z" stroke="currentColor" stroke-width="2" />
</svg>