<svg xmlns="http://www.w3.org/2000/svg" width="24" height="24" viewBox="0 0 24 24" fill="none">
    <path d="M17.7944 2.00254L6.14855 2.03002C4.41039 1.94542 3.96472 3.2116 3.96472 3.83056C3.96472 4.38414 3.88927 5.19117 2.82396 6.70798C1.75865 8.22478 1.8387 8.67537 2.43943 9.72544C2.938 10.5969 4.20613 10.9374 4.86734 10.9946C6.96755 11.0398 7.98938 9.32381 7.98938 8.1178C9.03124 11.1481 11.9943 11.1481 13.3145 10.8016C14.6373 10.4545 15.7704 9.2118 16.0378 8.1178C16.1937 9.47735 16.6669 10.2707 18.065 10.8158C19.5132 11.3805 20.7586 10.5174 21.3835 9.9642C22.0084 9.41096 22.4094 8.18278 21.2955 6.83288C20.5273 5.90195 20.2071 5.02494 20.102 4.11599C20.041 3.58931 19.9875 3.02336 19.5958 2.66323C19.0235 2.13691 18.2023 1.97722 17.7944 2.00254Z" stroke="currentColor" stroke-width="2" stroke-linecap="round" stroke-linejoin="round" />
    <path d="M2.99774 10.5V15C2.99774 17.8284 2.99774 19.2426 3.87642 20.1213C4.7551 21 6.16931 21 8.99774 21H12.9977" stroke="currentColor" stroke-width="2" stroke-linecap="round" />
    <path d="M6.99774 17H10.9977" stroke="currentColor" stroke-width="2" stroke-linecap="round" />
    <path opacity="0.4" d="M18.4977 13.5C20.4307 13.5 21.9977 15.0376 21.9977 16.9343C21.9977 19.0798 19.882 20.1346 18.8727 21.7429C18.6576 22.0857 18.3533 22.0857 18.1227 21.7429C17.0819 20.1957 14.9977 19.0351 14.9977 16.9343C14.9977 15.0376 16.5647 13.5 18.4977 13.5Z" stroke="currentColor" stroke-width="2" stroke-linejoin="round" />
    <path d="M18.6266 17H18.5016M18.7516 17C18.7516 17.1381 18.6397 17.25 18.5016 17.25C18.3636 17.25 18.2516 17.1381 18.2516 17C18.2516 16.8619 18.3636 16.75 18.5016 16.75C18.6397 16.75 18.7516 16.8619 18.7516 17Z" stroke="currentColor" stroke-width="2" stroke-linecap="round" stroke-linejoin="round" />
</svg>