<svg xmlns="http://www.w3.org/2000/svg" width="24" height="24" viewBox="0 0 24 24" fill="none">
    <path d="M6.97182 12.2036C8.4559 13.0287 10.1718 13.4999 12 13.4999C12.477 13.4999 12.9463 13.4678 13.4059 13.4058M6.97182 12.2036C5.89285 12.469 3.38792 12.6999 2 11.4999C2.4868 9.14974 3.81462 7.09886 5.6622 5.66211M6.97182 12.2036C7.13968 10.7213 7.57878 9.34086 8.1359 8.13581" stroke="currentColor" stroke-width="2" stroke-linecap="round" stroke-linejoin="round" />
    <path opacity="0.4" d="M12 3.5V2M12 3.5C12.9393 3.5 16.4721 7.29322 17.0282 12.2037C18.1073 12.4691 20.6124 12.7 22 11.5C21.0546 6.93552 16.9367 3.5 12 3.5ZM12 3.5C10.9389 3.5 9.91551 3.65875 8.95337 3.95333M12 3.5C11.6353 3.5 10.8796 4.07187 10.059 5.05896" stroke="currentColor" stroke-width="2" stroke-linecap="round" stroke-linejoin="round" />
    <path d="M12 13.5V20.5C12 21.3284 11.3284 22 10.5 22C9.67157 22 9 21.3284 9 20.5V20" stroke="currentColor" stroke-width="2" stroke-linecap="round" stroke-linejoin="round" />
    <path d="M2 2L22 22" stroke="currentColor" stroke-width="2" stroke-linecap="round" stroke-linejoin="round" />
</svg>