<svg xmlns="http://www.w3.org/2000/svg" width="24" height="24" viewBox="0 0 24 24" fill="none">
    <path d="M13.5 11C13.5 13.2091 11.7091 15 9.5 15C7.29086 15 5.5 13.2091 5.5 11C5.5 8.79086 7.29086 7 9.5 7C11.7091 7 13.5 8.79086 13.5 11Z" stroke="currentColor" stroke-width="2" stroke-linecap="round" stroke-linejoin="round" />
    <path d="M9.5 15V22M7 19.5H12" stroke="currentColor" stroke-width="2" stroke-linecap="round" stroke-linejoin="round" />
    <path opacity="0.4" d="M11.9697 7.46967C11.6768 7.76256 11.6768 8.23744 11.9697 8.53033C12.2626 8.82322 12.7374 8.82322 13.0303 8.53033L12.5 8L11.9697 7.46967ZM18.5303 3.03033C18.8232 2.73744 18.8232 2.26256 18.5303 1.96967C18.2374 1.67678 17.7626 1.67678 17.4697 1.96967L18 2.5L18.5303 3.03033ZM18.2511 2.24895L18.7814 1.71861L18.7814 1.71861L18.2511 2.24895ZM13.8875 1.5074C13.478 1.56955 13.1963 1.95191 13.2585 2.36143C13.3206 2.77096 13.703 3.05257 14.1125 2.99043L14 2.24891L13.8875 1.5074ZM17.5095 6.38747C17.4474 6.79699 17.729 7.17936 18.1385 7.24151C18.548 7.30366 18.9304 7.02206 18.9926 6.61253L18.2511 6.5L17.5095 6.38747ZM12.5 8L13.0303 8.53033L18.5303 3.03033L18 2.5L17.4697 1.96967L11.9697 7.46967L12.5 8ZM18.2511 2.24895L18.7814 1.71861C18.5637 1.50091 18.2804 1.40783 18.088 1.36015C17.8722 1.30669 17.6324 1.27864 17.3968 1.26407C16.9234 1.23481 16.3715 1.25487 15.8627 1.29075C15.349 1.32697 14.8563 1.38106 14.4937 1.42579C14.3118 1.44822 14.1615 1.46844 14.0561 1.48312C14.0034 1.49047 13.9619 1.49644 13.9333 1.50062C13.9189 1.50272 13.9078 1.50436 13.9001 1.50551C13.8963 1.50608 13.8933 1.50653 13.8912 1.50685C13.8901 1.50701 13.8893 1.50713 13.8887 1.50723C13.8883 1.50727 13.8881 1.50731 13.8879 1.50734C13.8878 1.50735 13.8877 1.50737 13.8876 1.50738C13.8876 1.50739 13.8875 1.5074 14 2.24891C14.1125 2.99043 14.1125 2.99043 14.1124 2.99044C14.1124 2.99044 14.1124 2.99044 14.1124 2.99044C14.1125 2.99043 14.1126 2.99042 14.1127 2.9904C14.113 2.99036 14.1135 2.99028 14.1142 2.99017C14.1156 2.98996 14.1179 2.98961 14.1211 2.98914C14.1274 2.9882 14.1371 2.98677 14.1499 2.9849C14.1756 2.98115 14.2139 2.97564 14.2632 2.96876C14.3619 2.955 14.5043 2.93584 14.6773 2.91451C15.0241 2.87173 15.4892 2.82081 15.9682 2.78703C16.4522 2.7529 16.9281 2.73796 17.3043 2.76122C17.4935 2.77291 17.6339 2.793 17.7272 2.81612C17.8438 2.84502 17.7984 2.85696 17.7207 2.77928L18.2511 2.24895ZM18.2511 6.5C18.9926 6.61253 18.9926 6.61246 18.9926 6.61237C18.9926 6.61232 18.9926 6.61221 18.9926 6.61212C18.9927 6.61192 18.9927 6.61167 18.9927 6.61136C18.9928 6.61075 18.993 6.60991 18.9931 6.60885C18.9934 6.60673 18.9939 6.60374 18.9945 6.59989C18.9956 6.59219 18.9972 6.58107 18.9993 6.56674C19.0035 6.53808 19.0095 6.49657 19.0168 6.44387C19.0315 6.33851 19.0518 6.1882 19.0742 6.00635C19.1189 5.64367 19.173 5.15096 19.2092 4.63728C19.2451 4.12852 19.2652 3.57662 19.2359 3.10321C19.2214 2.86764 19.1933 2.6278 19.1399 2.41204C19.0922 2.21962 18.9991 1.93632 18.7814 1.71861L18.2511 2.24895L17.7207 2.77928C17.6431 2.7016 17.655 2.65617 17.6839 2.7728C17.707 2.86611 17.7271 3.00651 17.7388 3.19574C17.762 3.57191 17.7471 4.04776 17.713 4.53175C17.6792 5.01082 17.6282 5.47585 17.5855 5.82272C17.5641 5.99566 17.545 6.13807 17.5312 6.23675C17.5243 6.28607 17.5188 6.3244 17.5151 6.35009C17.5132 6.36293 17.5118 6.3726 17.5108 6.3789C17.5104 6.38205 17.51 6.38436 17.5098 6.3858C17.5097 6.38651 17.5096 6.38701 17.5096 6.38729C17.5095 6.38743 17.5095 6.38752 17.5095 6.38755C17.5095 6.38756 17.5095 6.38754 17.5095 6.38755C17.5095 6.38752 17.5095 6.38747 18.2511 6.5Z" fill="currentColor" />
</svg>