<svg xmlns="http://www.w3.org/2000/svg" width="24" height="24" viewBox="0 0 24 24" fill="none">
    <path d="M14 20H10C6.22876 20 4.34315 20 3.17157 18.8284C2 17.6569 2 15.7712 2 12C2 8.22876 2 6.34315 3.17157 5.17157C4.34315 4 6.22876 4 10 4H14C17.7712 4 19.6569 4 20.8284 5.17157C22 6.34315 22 8.22876 22 12C22 15.7712 22 17.6569 20.8284 18.8284C19.6569 20 17.7712 20 14 20Z" stroke="currentColor" stroke-width="2" stroke-linecap="round" stroke-linejoin="round" />
    <path d="M2.5 8H21.5" stroke="currentColor" stroke-width="2" stroke-linecap="round" stroke-linejoin="round" />
    <path opacity="0.4" d="M8 16C9.10457 16 10 15.1046 10 14C10 12.8954 9.10457 12 8 12M8 16C6.89543 16 6 15.1046 6 14C6 12.8954 6.89543 12 8 12M8 16H16M8 12H16M16 16C17.1046 16 18 15.1046 18 14C18 12.8954 17.1046 12 16 12M16 16C14.8954 16 14 15.1046 14 14C14 12.8954 14.8954 12 16 12" stroke="currentColor" stroke-width="2" stroke-linecap="round" stroke-linejoin="round" />
</svg>