<svg xmlns="http://www.w3.org/2000/svg" width="24" height="24" viewBox="0 0 24 24" fill="none">
    <path d="M3 7.5H20" stroke="currentColor" stroke-width="2" stroke-linecap="round" stroke-linejoin="round" />
    <path d="M10.5 20.5C6.72876 20.5 4.84315 20.5 3.67157 19.3284C2.5 18.1569 2.5 16.2712 2.5 12.5V10.5C2.5 6.72876 2.5 4.84315 3.67157 3.67157C4.84315 2.5 6.72876 2.5 10.5 2.5H12.5C16.2712 2.5 18.1569 2.5 19.3284 3.67157C20.5 4.84315 20.5 6.72876 20.5 10.5" stroke="currentColor" stroke-width="2" stroke-linecap="round" stroke-linejoin="round" />
    <path opacity="0.4" d="M14.75 16.5C14.75 16.9142 15.0858 17.25 15.5 17.25C15.9142 17.25 16.25 16.9142 16.25 16.5H15.5H14.75ZM18.75 16.5C18.75 16.9142 19.0858 17.25 19.5 17.25C19.9142 17.25 20.25 16.9142 20.25 16.5H19.5H18.75ZM21.299 20.75L20.6495 20.375V20.375L21.299 20.75ZM20.75 21.299L20.375 20.6495H20.375L20.75 21.299ZM20.75 16.701L21.125 16.0514V16.0514L20.75 16.701ZM21.299 17.25L20.6495 17.625L20.6495 17.625L21.299 17.25ZM13.701 17.25L14.3505 17.625H14.3505L13.701 17.25ZM14.25 16.701L14.625 17.3505H14.625L14.25 16.701ZM13.701 20.75L13.0514 21.125H13.0514L13.701 20.75ZM14.25 21.299L14.625 20.6495H14.625L14.25 21.299ZM15.5 16.5H16.25V14.5H15.5H14.75V16.5H15.5ZM19.5 14.5H18.75V16.5H19.5H20.25V14.5H19.5ZM17.5 12.5V13.25C18.1904 13.25 18.75 13.8096 18.75 14.5H19.5H20.25C20.25 12.9812 19.0188 11.75 17.5 11.75V12.5ZM15.5 14.5H16.25C16.25 13.8096 16.8096 13.25 17.5 13.25V12.5V11.75C15.9812 11.75 14.75 12.9812 14.75 14.5H15.5ZM16 16.5V17.25H19V16.5V15.75H16V16.5ZM19 21.5V20.75H16V21.5V22.25H19V21.5ZM21.5 19H20.75C20.75 19.4811 20.7493 19.7918 20.7279 20.0273C20.7075 20.2524 20.6731 20.3341 20.6495 20.375L21.299 20.75L21.9486 21.125C22.1259 20.8178 22.192 20.4918 22.2218 20.1626C22.2507 19.8438 22.25 19.4535 22.25 19H21.5ZM19 21.5V22.25C19.4535 22.25 19.8438 22.2507 20.1626 22.2218C20.4918 22.192 20.8178 22.1259 21.125 21.9486L20.75 21.299L20.375 20.6495C20.3341 20.6731 20.2524 20.7075 20.0273 20.7279C19.7918 20.7493 19.4811 20.75 19 20.75V21.5ZM21.299 20.75L20.6495 20.375C20.5837 20.489 20.489 20.5837 20.375 20.6495L20.75 21.299L21.125 21.9486C21.467 21.7511 21.7511 21.467 21.9486 21.125L21.299 20.75ZM19 16.5V17.25C19.4811 17.25 19.7918 17.2507 20.0273 17.2721C20.2524 17.2925 20.3341 17.3269 20.375 17.3505L20.75 16.701L21.125 16.0514C20.8178 15.8741 20.4918 15.808 20.1626 15.7782C19.8438 15.7493 19.4535 15.75 19 15.75V16.5ZM21.5 19H22.25C22.25 18.5465 22.2507 18.1562 22.2218 17.8373C22.192 17.5082 22.1259 17.1822 21.9486 16.875L21.299 17.25L20.6495 17.625C20.6731 17.6659 20.7075 17.7476 20.7279 17.9727C20.7493 18.2082 20.75 18.5189 20.75 19H21.5ZM20.75 16.701L20.375 17.3505C20.489 17.4163 20.5837 17.511 20.6495 17.625L21.299 17.25L21.9486 16.875C21.7511 16.533 21.467 16.2489 21.125 16.0514L20.75 16.701ZM13.5 19H14.25C14.25 18.5189 14.2507 18.2082 14.2721 17.9727C14.2925 17.7476 14.3269 17.6659 14.3505 17.625L13.701 17.25L13.0514 16.875C12.8741 17.1822 12.808 17.5082 12.7782 17.8374C12.7493 18.1562 12.75 18.5465 12.75 19H13.5ZM16 16.5V15.75C15.5465 15.75 15.1562 15.7493 14.8374 15.7782C14.5082 15.808 14.1822 15.8741 13.875 16.0514L14.25 16.701L14.625 17.3505C14.6659 17.3269 14.7476 17.2925 14.9727 17.2721C15.2082 17.2507 15.5189 17.25 16 17.25V16.5ZM13.701 17.25L14.3505 17.625C14.4163 17.511 14.511 17.4163 14.625 17.3505L14.25 16.701L13.875 16.0514C13.533 16.2489 13.2489 16.533 13.0514 16.875L13.701 17.25ZM13.5 19H12.75C12.75 19.4535 12.7493 19.8438 12.7782 20.1626C12.808 20.4918 12.8741 20.8178 13.0514 21.125L13.701 20.75L14.3505 20.375C14.3269 20.3341 14.2925 20.2524 14.2721 20.0273C14.2507 19.7918 14.25 19.4811 14.25 19H13.5ZM16 21.5V20.75C15.5189 20.75 15.2082 20.7493 14.9727 20.7279C14.7476 20.7075 14.6659 20.6731 14.625 20.6495L14.25 21.299L13.875 21.9486C14.1822 22.1259 14.5082 22.192 14.8374 22.2218C15.1562 22.2507 15.5465 22.25 16 22.25V21.5ZM13.701 20.75L13.0514 21.125C13.2489 21.467 13.533 21.7511 13.875 21.9486L14.25 21.299L14.625 20.6495C14.511 20.5837 14.4163 20.489 14.3505 20.375L13.701 20.75Z" fill="currentColor" />
</svg>