<svg xmlns="http://www.w3.org/2000/svg" width="24" height="24" viewBox="0 0 24 24" fill="none">
    <g opacity="0.4">
        <path d="M11.1576 12.4884C11.1576 12.4884 8.32018 11.0697 8.32018 8.23247C8.32018 6.41319 9.48679 5.17718 10.3239 4.52443C10.8203 4.13736 11.4949 4.13736 11.9913 4.52443C12.8285 5.17718 13.9951 6.41319 13.9951 8.23247C13.9951 11.0697 11.1576 12.4884 11.1576 12.4884Z" stroke="currentColor" stroke-width="2" stroke-linecap="round" stroke-linejoin="round" />
        <path d="M6.54679 17.0985C6.54679 17.0985 3.70935 15.6798 3.70935 12.8425C3.70935 11.0233 4.87596 9.78725 5.71309 9.13451C6.20951 8.74744 6.88407 8.74744 7.38048 9.13451C8.21762 9.78725 9.38423 11.0233 9.38423 12.8425C9.38423 15.6798 6.54679 17.0985 6.54679 17.0985Z" stroke="currentColor" stroke-width="2" stroke-linecap="round" stroke-linejoin="round" />
    </g>
    <path d="M14.3498 9.65091L3 21M19.67 8.58588C17.5419 10.7138 14.3498 9.64986 14.3498 9.64986C14.3498 9.64986 13.2857 6.45793 15.4138 4.32997C16.8028 2.94105 18.6451 2.91196 19.7572 3.05928C20.3813 3.14194 20.8581 3.61868 20.9407 4.24275C21.088 5.35481 21.0589 7.19698 19.67 8.58588ZM15.7685 15.6803C12.931 15.6803 11.5123 12.843 11.5123 12.843C11.5123 12.843 12.931 10.0057 15.7685 10.0057C17.5878 10.0057 18.8238 11.1722 19.4766 12.0092C19.8638 12.5057 19.8638 13.1803 19.4766 13.6767C18.8238 14.5138 17.5878 15.6803 15.7685 15.6803ZM11.1576 20.2903C8.3202 20.2903 6.90148 17.4531 6.90148 17.4531C6.90148 17.4531 8.3202 14.6158 11.1576 14.6158C12.9769 14.6158 14.213 15.7822 14.8658 16.6193C15.253 17.1157 15.253 17.7904 14.8658 18.2868C14.213 19.1239 12.9769 20.2903 11.1576 20.2903Z" stroke="currentColor" stroke-width="2" stroke-linecap="round" stroke-linejoin="round" />
</svg>