<svg xmlns="http://www.w3.org/2000/svg" width="24" height="24" viewBox="0 0 24 24" fill="none">
    <path d="M15 5H22V10H15" stroke="currentColor" stroke-width="2" stroke-linecap="square" />
    <path d="M13 14H22V19H13" stroke="currentColor" stroke-width="2" stroke-linecap="square" />
    <path d="M7.25 7H7M7.5 7C7.5 7.27614 7.27614 7.5 7 7.5C6.72386 7.5 6.5 7.27614 6.5 7C6.5 6.72386 6.72386 6.5 7 6.5C7.27614 6.5 7.5 6.72386 7.5 7Z" stroke="currentColor" stroke-width="2" stroke-linecap="round" />
    <path d="M7 2C4.23858 2 2 4.23858 2 7C2 9.05032 3.2341 10.8124 5 11.584V20L7 22L10 19L8.5 17L10 15L9 13.5V11.584C10.7659 10.8124 12 9.05032 12 7C12 4.23858 9.76142 2 7 2Z" stroke="currentColor" stroke-width="2" stroke-linecap="square" />
</svg>