<svg xmlns="http://www.w3.org/2000/svg" width="24" height="24" viewBox="0 0 24 24" fill="none">
    <path d="M20.2941 8.49964C20.7487 9.57553 21 10.7582 21 11.9996C21 16.9702 16.9706 20.9996 12 20.9996C10.7586 20.9996 9.57589 20.7483 8.5 20.2937M5.29182 17.9998C3.86662 16.4075 3 14.3048 3 11.9996C3 8.51699 4.97812 5.49635 7.8721 4" stroke="currentColor" stroke-width="2" stroke-linecap="square" />
    <path d="M20.4442 2C20.9375 2.00006 21.3306 2.12854 21.6005 2.39804C23.1408 3.93558 20.0911 9.48095 14.7889 14.784C9.48663 20.087 3.93971 23.1395 2.39946 21.602C1.59292 20.7968 2.04495 18.8928 3.41993 16.5" stroke="currentColor" stroke-width="2" stroke-linecap="square" />
    <path d="M14.5 3.5V6M12 4.41992L13.875 3.875L14.3996 2H14.6004L15.125 3.875L17 4.41992V4.58008L15.125 5.125L14.6004 7H14.3996L13.875 5.125L12 4.58008V4.41992Z" stroke="currentColor" stroke-width="2" stroke-linecap="square" />
</svg>