<svg xmlns="http://www.w3.org/2000/svg" width="24" height="24" viewBox="0 0 24 24" fill="none">
    <path d="M21 21L21 16L16 16" stroke="currentColor" stroke-width="2" stroke-linecap="square" />
    <path d="M3 12C3 16.9706 7.02944 21 12 21C15.6737 21 18.0821 19.313 20 16.7137" stroke="currentColor" stroke-width="2" stroke-linecap="square" />
    <path d="M3 3L3 8H8" stroke="currentColor" stroke-width="2" stroke-linecap="square" />
    <path d="M15 3.51212C14.0616 3.18046 13.0519 3 12 3C8.22656 3 5.78802 4.77984 3.84485 7.5" stroke="currentColor" stroke-width="2" stroke-linecap="square" />
    <path d="M19.5 6.5V9M17 7.41992L18.875 6.875L19.3996 5H19.6003L20.125 6.875L22 7.41992V7.58008L20.125 8.125L19.6003 10H19.3996L18.875 8.125L17 7.58008V7.41992Z" stroke="currentColor" stroke-width="2" stroke-linecap="square" />
</svg>