<svg xmlns="http://www.w3.org/2000/svg" width="24" height="24" viewBox="0 0 24 24" fill="none">
    <path d="M5.15308 21.423C5.80952 19.5285 7.88389 18.1309 10.2029 18.0276C10.453 18.0164 10.718 18.0071 11.0023 18L11.7983 18.0482C14.1392 18.1901 16.1951 19.5384 16.8487 21.423" stroke="currentColor" stroke-width="2" stroke-linecap="square" />
    <path d="M9 4H13M20 11V15M2 11V15M5 4H2V7M20 19.1953V22H2V19.1953" stroke="currentColor" stroke-width="2" stroke-linecap="square" />
    <path d="M13.5 12.5C13.5 13.8807 12.3807 15 11 15C9.61929 15 8.5 13.8807 8.5 12.5C8.5 11.1193 9.61929 10 11 10C12.3807 10 13.5 11.1193 13.5 12.5Z" stroke="currentColor" stroke-width="2" stroke-linecap="square" />
    <path d="M19.5 3.5V6M17 4.41992L18.875 3.875L19.3996 2H19.6003L20.125 3.875L22 4.41992V4.58008L20.125 5.125L19.6003 7H19.3996L18.875 5.125L17 4.58008V4.41992Z" stroke="currentColor" stroke-width="2" stroke-linecap="square" />
</svg>