<svg xmlns="http://www.w3.org/2000/svg" width="24" height="24" viewBox="0 0 24 24" fill="none">
    <path d="M19.5 18.5V21M17 19.4199L18.875 18.875L19.3996 17H19.6003L20.125 18.875L22 19.4199V19.5801L20.125 20.125L19.6003 22H19.3996L18.875 20.125L17 19.5801V19.4199Z" stroke="currentColor" stroke-width="2" stroke-linecap="square" />
    <path d="M21 13.5V6H17M13.5 21H3V6L7 6" stroke="currentColor" stroke-width="2" stroke-linecap="square" />
    <path d="M15.5 10L12 9L8.5 10L7 6L8 3H16L17 6L15.5 10Z" stroke="currentColor" stroke-width="2" stroke-linecap="square" />
    <path d="M12 9L15.5 4" stroke="currentColor" stroke-width="2" stroke-linecap="square" />
    <path d="M12 9L8.5 4" stroke="currentColor" stroke-width="2" stroke-linecap="square" />
    <path d="M12 9V14" stroke="currentColor" stroke-width="2" stroke-linecap="square" />
</svg>