<svg xmlns="http://www.w3.org/2000/svg" width="24" height="24" viewBox="0 0 24 24" fill="none">
    <path d="M18.5 3.5V6M16 4.41992L17.875 3.875L18.3996 2H18.6003L19.125 3.875L21 4.41992V4.58008L19.125 5.125L18.6003 7H18.3996L17.875 5.125L16 4.58008V4.41992Z" stroke="currentColor" stroke-width="2" stroke-linecap="square" />
    <path d="M12.5001 22L13.0001 19.5067L15.156 19.1244C16.214 18.9261 16.9047 17.9391 16.6987 16.9201L16.3258 15.0749L18 14V13.5L15.3779 10.5691C14.9367 8.58422 12.5868 5.01589 7.23162 6.25555C2.07736 7.44871 1.78666 11.9991 2.07736 13.4378C2.46185 15.3407 3.31306 16.452 4.18511 17.4085C5.24497 18.5711 5.26308 20.2323 4.32602 21.4957L3.95195 22" stroke="currentColor" stroke-width="2" stroke-linecap="square" />
</svg>