<svg xmlns="http://www.w3.org/2000/svg" width="24" height="24" viewBox="0 0 24 24" fill="none">
    <path d="M15 3.2V5.2M13 3.93594L14.5 3.5L14.9197 2H15.0803L15.5 3.5L17 3.93594V4.06406L15.5 4.5L15.0803 6H14.9197L14.5 4.5L13 4.06406V3.93594Z" stroke="currentColor" stroke-width="2" stroke-linecap="square" />
    <path d="M18.4995 16L21.4817 18.9835C21.8132 19.315 21.9994 19.7647 21.9994 20.2335C21.9994 21.2098 21.208 22.0013 20.2317 22.0013C19.7628 22.0013 19.3132 21.815 18.9817 21.4835L16.0009 18.5014L11 18.9835L9 17L17 9L19 11L18.4995 16Z" stroke="currentColor" stroke-width="2" stroke-linecap="square" />
    <path d="M9.50004 3.5L7.00004 6L7.00004 9H4.00024L3.00024 10.5L9.50024 16.5" stroke="currentColor" stroke-width="2" stroke-linecap="square" />
</svg>