<svg xmlns="http://www.w3.org/2000/svg" width="24" height="24" viewBox="0 0 24 24" fill="none">
    <path d="M17 17L21 21" stroke="currentColor" stroke-width="2" stroke-linecap="square" />
    <path d="M17.5074 3.0863V5.64409M15 4.41992L16.875 3.875L17.3996 2H17.6003L18.125 3.875L20 4.41992V4.58008L18.125 5.125L17.6003 7H17.3996L16.875 5.125L15 4.58008V4.41992Z" stroke="currentColor" stroke-width="2" stroke-linecap="square" />
    <path d="M12 3.06189C11.6724 3.02104 11.3387 3 11 3C6.58172 3 3 6.58172 3 11C3 15.4183 6.58172 19 11 19C15.4183 19 19 15.4183 19 11C19 10.6613 18.979 10.3276 18.9381 10" stroke="currentColor" stroke-width="2" stroke-linecap="square" />
</svg>