<svg xmlns="http://www.w3.org/2000/svg" width="24" height="24" viewBox="0 0 24 24" fill="none">
    <path d="M15.875 4.875L14 5.41992V5.58008L15.875 6.125L16.3996 8H16.6003L17.125 6.125L19 5.58008V5.41992L17.125 4.875L16.6003 3H16.3996L15.875 4.875Z" stroke="currentColor" stroke-width="2" stroke-linecap="square" />
    <path d="M15.875 17.875L14 18.4199V18.5801L15.875 19.125L16.3996 21H16.6003L17.125 19.125L19 18.5801V18.4199L17.125 17.875L16.6003 16H16.3996L15.875 17.875Z" stroke="currentColor" stroke-width="2" stroke-linecap="square" />
    <path d="M7.12502 10.625L3 11.8238V12.1762L7.12502 13.375L8.27923 17.5H8.72077L9.87498 13.375L14 12.1762V11.8238L9.87498 10.625L8.72077 6.5H8.27923L7.12502 10.625Z" stroke="currentColor" stroke-width="2" stroke-linecap="square" />
</svg>