<svg xmlns="http://www.w3.org/2000/svg" width="24" height="24" viewBox="0 0 24 24" fill="none">
    <path d="M18 15.5V21H3V3H13" stroke="currentColor" stroke-width="2" stroke-linecap="square" />
    <path d="M18 2.5V6.5M17 3V6C17 6.55228 17.4477 7 18 7C18.5523 7 19 6.55228 19 6V3C19 2.44772 18.5523 2 18 2C17.4477 2 17 2.44772 17 3Z" stroke="currentColor" stroke-width="2" stroke-linecap="square" />
    <path d="M18 10V12M18 10C19.8638 10 21.556 8.72523 22 7M18 10C16.1361 10 14.444 8.72523 14 7" stroke="currentColor" stroke-width="2" stroke-linecap="square" />
    <path d="M7 17H14" stroke="currentColor" stroke-width="2" stroke-linecap="square" />
    <path d="M7 13H11" stroke="currentColor" stroke-width="2" stroke-linecap="square" />
</svg>