<svg xmlns="http://www.w3.org/2000/svg" width="24" height="24" viewBox="0 0 24 24" fill="none">
    <path d="M2 2L22 22" stroke="currentColor" stroke-width="2" stroke-linecap="square" stroke-linejoin="round" />
    <path d="M17.5 18H2V3M6 2H18V14" stroke="currentColor" stroke-width="2" stroke-linecap="square" />
    <path d="M21 22H6V18M18 6H22V17.5" stroke="currentColor" stroke-width="2" stroke-linecap="square" />
    <path d="M2 11.1185C2.61902 11.0398 3.24484 11.001 3.87171 11.0023C6.52365 10.9533 9.11064 11.6763 11.1711 13.0424C13.082 14.3094 14.4247 16.053 15 18" stroke="currentColor" stroke-width="2" stroke-linejoin="round" />
    <path d="M13.125 7H13M13.25 7C13.25 7.13807 13.1381 7.25 13 7.25C12.8619 7.25 12.75 7.13807 12.75 7C12.75 6.86193 12.8619 6.75 13 6.75C13.1381 6.75 13.25 6.86193 13.25 7Z" stroke="currentColor" stroke-width="2" stroke-linecap="round" />
</svg>