<svg xmlns="http://www.w3.org/2000/svg" width="24" height="24" viewBox="0 0 24 24" fill="none">
    <path d="M15 9.99783C15 11.6547 13.6569 12.9978 12 12.9978C10.3431 12.9978 9 11.6547 9 9.99783C9 8.34098 10.3431 6.99783 12 6.99783C13.6569 6.99783 15 8.34098 15 9.99783Z" stroke="currentColor" stroke-width="2" stroke-linecap="square" />
    <path d="M20.5 1.99783C20.5 2.99627 19.5 4.75353 17.5 4.99316" stroke="currentColor" stroke-width="2" stroke-linecap="square" />
    <path d="M3.5 1.99783C3.5 2.99627 4.5 4.75353 6.5 4.99316" stroke="currentColor" stroke-width="2" stroke-linecap="square" />
    <path d="M19.5225 10.4919C19.5225 7.58037 17.2755 2.99799 11.9951 2.99799C9.97485 2.99799 4.71836 4.40302 4.51162 10.4762C4.02166 10.4554 3.4507 10.4421 3.00481 10.5809C2.42658 10.7609 2.03057 11.1785 2.00391 11.9782C2.11011 12.8657 2.47235 13.3265 3.37674 13.47C3.6974 13.5208 4.01941 13.47 4.51514 13.47V21.9519L8.5 19.998L12 21.998L15.5 19.998L19.5 21.998L19.5225 13.479C19.7588 13.479 20.7186 13.5131 21.0597 13.3791C21.6838 13.134 22.0073 12.5253 22.0073 11.9837C21.8441 10.276 20.4209 10.4919 19.5225 10.4919Z" stroke="currentColor" stroke-width="2" stroke-linecap="square" />
    <path d="M12.125 16.9978H12M12.25 16.9978C12.25 17.1359 12.1381 17.2478 12 17.2478C11.8619 17.2478 11.75 17.1359 11.75 16.9978C11.75 16.8598 11.8619 16.7478 12 16.7478C12.1381 16.7478 12.25 16.8598 12.25 16.9978Z" stroke="currentColor" stroke-width="2" stroke-linecap="round" />
</svg>