<svg xmlns="http://www.w3.org/2000/svg" width="24" height="24" viewBox="0 0 24 24" fill="none">
    <path d="M10.0001 21V3H2.00008L2 21H10.0001Z" stroke="currentColor" stroke-width="2" stroke-linecap="round" />
    <path d="M17.5 3L10.5 5L14.5 21L22 19L17.5 3Z" stroke="currentColor" stroke-width="2" />
    <path d="M2 7H10" stroke="currentColor" stroke-width="2" stroke-linecap="round" stroke-linejoin="round" />
    <path d="M12 9.00019L18.5001 7" stroke="currentColor" stroke-width="2" stroke-linecap="round" stroke-linejoin="round" />
    <path d="M6.125 17H6M6.25 17C6.25 17.1381 6.13807 17.25 6 17.25C5.86193 17.25 5.75 17.1381 5.75 17C5.75 16.8619 5.86193 16.75 6 16.75C6.13807 16.75 6.25 16.8619 6.25 17Z" stroke="currentColor" stroke-width="2" stroke-linecap="round" stroke-linejoin="round" />
    <path d="M17.625 16.75H17.5M17.75 16.75C17.75 16.8881 17.6381 17 17.5 17C17.3619 17 17.25 16.8881 17.25 16.75C17.25 16.6119 17.3619 16.5 17.5 16.5C17.6381 16.5 17.75 16.6119 17.75 16.75Z" stroke="currentColor" stroke-width="2" stroke-linecap="round" stroke-linejoin="round" />
</svg>