<svg xmlns="http://www.w3.org/2000/svg" width="24" height="24" viewBox="0 0 24 24" fill="none">
    <path d="M2 14.9998L4.00035 6.99982L9.50035 4.49982L13.5003 10.5L17.5003 8L21.0003 14L18.4441 18.6818L11 21.9998L2 14.9998Z" stroke="currentColor" stroke-width="2" stroke-linecap="square" />
    <path d="M11.5 14.5L10.5 16" stroke="currentColor" stroke-width="2" stroke-linecap="square" />
    <path d="M8.5 10.5L7 10L6.5 11.5" stroke="currentColor" stroke-width="2" stroke-linecap="square" />
    <path d="M22.0011 2H18L16 3.5L16 5L20.0011 6L22.0011 4.5V2Z" stroke="currentColor" stroke-width="2" stroke-linecap="square" />
    <path d="M16.125 14H16M16.25 14C16.25 14.1381 16.1381 14.25 16 14.25C15.8619 14.25 15.75 14.1381 15.75 14C15.75 13.8619 15.8619 13.75 16 13.75C16.1381 13.75 16.25 13.8619 16.25 14Z" stroke="currentColor" stroke-width="2" stroke-linecap="round" />
</svg>