<svg xmlns="http://www.w3.org/2000/svg" width="24" height="24" viewBox="0 0 24 24" fill="none">
    <path d="M2 17C2 19.2091 3.79086 21 6 21C7.48057 21 8.77325 20.1956 9.46487 19H13.5L15 20L17 18.5L19 20L22 17L20 15H9.46487C8.77325 13.8044 7.48057 13 6 13C3.79086 13 2 14.7909 2 17Z" stroke="currentColor" stroke-width="2" stroke-linecap="square" />
    <path d="M20 11V3H2V11" stroke="currentColor" stroke-width="2" stroke-linecap="square" />
    <path d="M6.125 17H6M6.25 17C6.25 17.1381 6.13807 17.25 6 17.25C5.86193 17.25 5.75 17.1381 5.75 17C5.75 16.8619 5.86193 16.75 6 16.75C6.13807 16.75 6.25 16.8619 6.25 17Z" stroke="currentColor" stroke-width="2" stroke-linecap="round" />
</svg>