<svg xmlns="http://www.w3.org/2000/svg" width="24" height="24" viewBox="0 0 24 24" fill="none">
    <path d="M12.125 5.75098H12M12.25 5.75098C12.25 5.88905 12.1381 6.00098 12 6.00098C11.8619 6.00098 11.75 5.88905 11.75 5.75098C11.75 5.61291 11.8619 5.50098 12 5.50098C12.1381 5.50098 12.25 5.61291 12.25 5.75098Z" stroke="currentColor" stroke-width="2" stroke-linecap="round" />
    <path d="M5 9.00098V19.001M9 9.00098V19.001" stroke="currentColor" stroke-width="2" stroke-linecap="square" />
    <path d="M15 9.00098V19.001M19 9.00098V19.001" stroke="currentColor" stroke-width="2" stroke-linecap="square" />
    <path d="M22 9.00098H2V8.00098L12 2.00098L22 8.00098V9.00098Z" stroke="currentColor" stroke-width="2" stroke-linecap="square" />
    <path d="M20 19.001H4L2 21.001V22.001H22V21.001L20 19.001Z" stroke="currentColor" stroke-width="2" stroke-linecap="square" />
</svg>