<svg xmlns="http://www.w3.org/2000/svg" width="24" height="24" viewBox="0 0 24 24" fill="none">
    <path d="M10.0001 10C10.0001 11.1046 9.10463 12 8.00006 12C6.89549 12 6.00006 11.1046 6.00006 10C6.00006 8.89543 6.89549 8 8.00006 8" stroke="currentColor" stroke-width="2" stroke-linejoin="round" />
    <path d="M18 12L17.8181 11.2724L18 12ZM10.9166 15.2447L11.2817 15.8998V15.8998L10.9166 15.2447ZM9 3.25H8.25V4.75H9V4V3.25ZM17.0072 11.4864L16.2848 11.688L16.688 13.1328L17.4104 12.9312L17.2088 12.2088L17.0072 11.4864ZM8 16V15.25C5.10051 15.25 2.75 12.8995 2.75 10H2H1.25C1.25 13.7279 4.27208 16.75 8 16.75V16ZM22 8H21.25C21.25 8.87666 20.9098 9.54041 20.333 10.0637C19.7355 10.6058 18.8645 11.0108 17.8181 11.2724L18 12L18.1819 12.7276C19.3673 12.4313 20.4963 11.9408 21.3408 11.1747C22.2061 10.3898 22.75 9.33248 22.75 8H22ZM18 4V4.75C19.7949 4.75 21.25 6.20507 21.25 8H22H22.75C22.75 5.37665 20.6234 3.25 18 3.25V4ZM10.9166 15.2447L10.5515 14.5895C9.79685 15.0101 8.92757 15.25 8 15.25V16V16.75C9.18966 16.75 10.3095 16.4416 11.2817 15.8998L10.9166 15.2447ZM2 10H2.75C2.75 8.10266 3.756 6.43961 5.26729 5.51627L4.87627 4.87627L4.48525 4.23626C2.54664 5.42068 1.25 7.55858 1.25 10H2ZM10.9166 15.2447L11.2817 15.8998C11.8312 15.5935 12.2969 15.3042 12.7283 15.0354C13.1629 14.7646 13.5571 14.5182 13.9872 14.2801L13.624 13.624L13.2607 12.9678C12.7907 13.2279 12.3632 13.4955 11.935 13.7623C11.5037 14.0311 11.0657 14.3029 10.5515 14.5895L10.9166 15.2447ZM18 4V3.25H9V4V4.75H18V4ZM17.2088 12.2088L17.4104 12.9312C17.6527 12.8636 17.9094 12.7957 18.1819 12.7276L18 12L17.8181 11.2724C17.5332 11.3436 17.2635 11.4149 17.0072 11.4864L17.2088 12.2088Z" fill="currentColor" />
    <path d="M2 14L1.25 14V14H2ZM10.9166 19.2447L11.2817 19.8998V19.8998L10.9166 19.2447ZM2.75012 10L2.75014 9.25002L1.25014 9.24998L1.25012 9.99998L2.00012 10L2.75012 10ZM22.75 8V7.25H21.25V8H22H22.75ZM19.7454 14.5013L19.1073 14.8953L19.8953 16.1716L20.5334 15.7776L20.1394 15.1394L19.7454 14.5013ZM8 20V19.25C5.10051 19.25 2.75 16.8995 2.75 14H2H1.25C1.25 17.7279 4.27208 20.75 8 20.75V20ZM10.9166 19.2447L10.5515 18.5895C9.79685 19.0101 8.92757 19.25 8 19.25V20V20.75C9.18966 20.75 10.3095 20.4416 11.2817 19.8998L10.9166 19.2447ZM2 14L2.75 14L2.75012 10L2.00012 10L1.25012 9.99998L1.25 14L2 14ZM22 8H21.25V12H22H22.75V8H22ZM22 12H21.25C21.25 13.1123 20.6978 13.9133 19.7454 14.5013L20.1394 15.1394L20.5334 15.7776C21.8277 14.9786 22.75 13.7407 22.75 12H22ZM10.9166 19.2447L11.2817 19.8998C13.3358 18.755 14.0541 17.9766 16.6634 17.1527L16.4376 16.4376L16.2117 15.7224C13.4103 16.6069 12.3793 17.5709 10.5515 18.5895L10.9166 19.2447Z" fill="currentColor" />
    <path d="M2 2L22 22" stroke="currentColor" stroke-width="2" stroke-linecap="square" stroke-linejoin="round" />
</svg>