<svg xmlns="http://www.w3.org/2000/svg" width="24" height="24" viewBox="0 0 24 24" fill="none">
    <path d="M7.59664 15.3392C10.3815 12.3554 14 13.7361 15 14.3542C15.7329 13.5238 16.8053 13 18 13C20.2091 13 22 14.7909 22 17C22 19 20 21 16.5 21C14.6145 21 9.75576 21 4.95306 19.7566C3.35687 19.3433 2 18.1488 2 16.5C2 14.3643 5.11197 8.77089 6.97187 5.2159C7.37502 4.44531 8.08058 3.87602 8.92305 3.66019L11.249 3.06429C11.4157 3.0216 11.587 3 11.7591 3C12.7637 3 13.621 3.7263 13.7862 4.71725L13.9812 5.88691C13.9937 5.96217 14 6.03835 14 6.11465C14 6.87976 13.3798 7.5 12.6147 7.5H12.5L9.5 7C8.71058 9.41144 8.51166 12.2759 8.51166 13.9468" stroke="currentColor" stroke-width="2" stroke-linecap="square" />
</svg>