<svg xmlns="http://www.w3.org/2000/svg" width="24" height="24" viewBox="0 0 24 24" fill="none">
    <path d="M15 11V9C15 7.34315 13.6569 6 12 6C10.3431 6 9 7.34315 9 9V11C9 12.6569 10.3431 14 12 14" stroke="currentColor" stroke-width="2" stroke-linecap="square" />
    <path d="M12 9V11" stroke="currentColor" stroke-width="2" stroke-linecap="square" />
    <path d="M12.125 19H12M12.25 19C12.25 19.1381 12.1381 19.25 12 19.25C11.8619 19.25 11.75 19.1381 11.75 19C11.75 18.8619 11.8619 18.75 12 18.75C12.1381 18.75 12.25 18.8619 12.25 19Z" stroke="currentColor" stroke-width="2" stroke-linecap="round" />
    <path d="M19 2H5V22H19V2Z" stroke="currentColor" stroke-width="2" stroke-linecap="square" />
</svg>