<svg xmlns="http://www.w3.org/2000/svg" width="24" height="24" viewBox="0 0 24 24" fill="none">
    <path d="M19 2.00046L5 2V22H19V2.00046Z" stroke="currentColor" stroke-width="2" stroke-linecap="square" />
    <path d="M10 6.5H13C13.8284 6.5 14.5 7.17157 14.5 8V8.5C14.5 9.32843 13.8284 10 13 10H10M10 6.5V10M10 6.5H9M10 10H13.5C14.3284 10 15 10.6716 15 11.5V12C15 12.8284 14.3284 13.5 13.5 13.5H10M10 10V13.5M12 6.5V5M12 13.5V15M10 13.5H9" stroke="currentColor" stroke-width="2" stroke-linecap="square" />
    <path d="M12.125 19H12M12.25 19C12.25 19.1381 12.1381 19.25 12 19.25C11.8619 19.25 11.75 19.1381 11.75 19C11.75 18.8619 11.8619 18.75 12 18.75C12.1381 18.75 12.25 18.8619 12.25 19Z" stroke="currentColor" stroke-width="2" stroke-linecap="round" stroke-linejoin="round" />
</svg>