<svg xmlns="http://www.w3.org/2000/svg" width="24" height="24" viewBox="0 0 24 24" fill="none">
    <path d="M10.0206 5.92032C7.23085 6.73562 4.5 9.49942 4 11.9994H2V14.5578C3.5 17.4994 7 18.4994 7 18.4994V21.4996H9L10 19.9994C11.729 20.4439 14.271 20.4439 16 19.9994L17 21.4996H19V18.4994C20.6114 17.1442 22 15.0582 22 12.9996C22 12.4862 21.9381 11.9848 21.8202 11.5004" stroke="currentColor" stroke-width="2" stroke-linecap="square" />
    <path d="M14 4.0004H17C17.8284 4.0004 18.5 4.67197 18.5 5.5004V6.0004C18.5 6.82882 17.8284 7.5004 17 7.5004H14M14 4.0004V7.5004M14 4.0004H13M14 7.5004H17.5C18.3284 7.5004 19 8.17197 19 9.0004V9.5004C19 10.3288 18.3284 11.0004 17.5 11.0004H14M14 7.5004V11.0004M16 4.0004V2.5004M16 11.0004V12.5004M14 11.0004H13" stroke="currentColor" stroke-width="2" stroke-linecap="square" />
    <path d="M8.125 11.5004H8M8.25 11.5004C8.25 11.6385 8.13807 11.7504 8 11.7504C7.86193 11.7504 7.75 11.6385 7.75 11.5004C7.75 11.3623 7.86193 11.2504 8 11.2504C8.13807 11.2504 8.25 11.3623 8.25 11.5004Z" stroke="currentColor" stroke-width="2" stroke-linecap="round" stroke-linejoin="round" />
</svg>