<svg xmlns="http://www.w3.org/2000/svg" width="24" height="24" viewBox="0 0 24 24" fill="none">
    <path d="M6.00067 17L18.0007 7L12.0021 3.00003V21L18.0007 17L6.00067 7" stroke="currentColor" stroke-width="2" stroke-linecap="square" />
    <path d="M5.37567 12H5.25067M18.8757 12H18.7507M5.50067 12C5.50067 12.1381 5.38874 12.25 5.25067 12.25C5.1126 12.25 5.00067 12.1381 5.00067 12C5.00067 11.862 5.1126 11.75 5.25067 11.75C5.38874 11.75 5.50067 11.862 5.50067 12ZM19.0007 12C19.0007 12.1381 18.8887 12.25 18.7507 12.25C18.6126 12.25 18.5007 12.1381 18.5007 12C18.5007 11.862 18.6126 11.75 18.7507 11.75C18.8887 11.75 19.0007 11.862 19.0007 12Z" stroke="currentColor" stroke-width="2" stroke-linecap="round" />
</svg>