<svg xmlns="http://www.w3.org/2000/svg" width="24" height="24" viewBox="0 0 24 24" fill="none">
    <path d="M4.99609 17L14.9961 6.99997L9.9975 3V21L14.9961 17L4.99609 6.99997" stroke="currentColor" stroke-width="2" stroke-linecap="square" />
    <path d="M18.7178 9.02242L18.2502 8.43602L17.0774 9.37117L17.545 9.95758L18.1314 9.49L18.7178 9.02242ZM17.5369 14.0201L17.0669 14.6046L18.236 15.5444L18.7059 14.9599L18.1214 14.49L17.5369 14.0201ZM15.7461 11.99C15.7461 11.5758 15.4103 11.24 14.9961 11.24C14.5819 11.24 14.2461 11.5758 14.2461 11.99H14.9961H15.7461ZM14.2461 12C14.2461 12.4142 14.5819 12.75 14.9961 12.75C15.4103 12.75 15.7461 12.4142 15.7461 12H14.9961H14.2461ZM18.1314 9.49L17.545 9.95758C18.0054 10.5349 18.2554 11.2518 18.2539 11.9903L19.0039 11.9918L19.7539 11.9933C19.7561 10.914 19.3906 9.86624 18.7178 9.02242L18.1314 9.49ZM19.0039 11.9918L18.2539 11.9903C18.2524 12.7287 17.9995 13.4446 17.5369 14.0201L18.1214 14.49L18.7059 14.9599C19.3821 14.1188 19.7517 13.0725 19.7539 11.9933L19.0039 11.9918ZM14.9961 11.99H14.2461V12H14.9961H15.7461V11.99H14.9961Z" fill="currentColor" />
</svg>