<svg xmlns="http://www.w3.org/2000/svg" width="24" height="24" viewBox="0 0 24 24" fill="none">
    <path d="M20 22.75H20.75V21.25H20V22V22.75ZM20 18V18.75H20.75V18H20ZM20 2H20.75V1.25H20V2ZM20 22V21.25H6V22V22.75H20V22ZM6 18V18.75H20V18V17.25H6V18ZM4 20H4.75C4.75 19.3096 5.30964 18.75 6 18.75V18V17.25C4.48122 17.25 3.25 18.4812 3.25 20H4ZM6 22V21.25C5.30964 21.25 4.75 20.6904 4.75 20H4H3.25C3.25 21.5188 4.48122 22.75 6 22.75V22ZM20 18H20.75V2H20H19.25V18H20ZM20 2V1.25H6V2V2.75H20V2ZM4 4H3.25V20H4H4.75V4H4ZM6 2V1.25C4.48122 1.25 3.25 2.48122 3.25 4H4H4.75C4.75 3.30964 5.30964 2.75 6 2.75V2Z" fill="currentColor" />
    <path d="M9 11H13M9 7H15" stroke="currentColor" stroke-width="2" stroke-linecap="square" stroke-linejoin="round" />
    <path d="M19 21.464C18.75 21.1186 18.5 20.6186 18.5 20.0001C18.5 19.3815 18.75 18.8815 19 18.5361" stroke="currentColor" stroke-width="2" stroke-linecap="square" stroke-linejoin="round" />
</svg>