<svg xmlns="http://www.w3.org/2000/svg" width="24" height="24" viewBox="0 0 24 24" fill="none">
    <path d="M19.9999 22H5.99994C4.89537 22 3.99994 21.1046 3.99994 20M3.99994 20C3.99994 18.8954 4.89537 18 5.99994 18H19.9999V2H5.99994C4.89537 2 3.99994 2.89543 3.99994 4V20Z" stroke="currentColor" stroke-width="2" stroke-linecap="square" />
    <path d="M19.4999 18C19.4999 18 18.4999 18.7628 18.4999 20C18.4999 21.2372 19.4999 22 19.4999 22" stroke="currentColor" stroke-width="2" />
    <circle cx="11.9999" cy="8" r="2" stroke="currentColor" stroke-width="2" stroke-linecap="square" />
    <path d="M15.9999 14C15.9999 11.7909 14.2091 10 11.9999 10C9.7908 10 7.99994 11.7909 7.99994 14" stroke="currentColor" stroke-width="2" stroke-linecap="square" />
</svg>