<svg xmlns="http://www.w3.org/2000/svg" width="24" height="24" viewBox="0 0 24 24" fill="none">
    <path d="M16.9999 22H4.99994C3.89537 22 2.99994 21.1046 2.99994 20M18.9999 9V2H4.99994C3.89537 2 2.99994 2.89543 2.99994 4V20M2.99994 20C2.99994 18.8954 3.89537 18 4.99994 18H9.99994" stroke="currentColor" stroke-width="2" stroke-linecap="square" />
    <path d="M18.4999 17.5L20.9999 20M18.9999 15C18.9999 16.6569 17.6568 18 15.9999 18C14.3431 18 12.9999 16.6569 12.9999 15C12.9999 13.3431 14.3431 12 15.9999 12C17.6568 12 18.9999 13.3431 18.9999 15Z" stroke="currentColor" stroke-width="2" stroke-linecap="square" />
</svg>