<svg xmlns="http://www.w3.org/2000/svg" width="24" height="24" viewBox="0 0 24 24" fill="none">
    <path d="M20 22H5.99997C4.8954 22 3.99997 21.1046 3.99997 20M3.99997 20C3.99997 18.8954 4.8954 18 5.99997 18H20V14M3.99997 20V4C3.99997 2.89543 4.8954 2 5.99997 2H7.99997" stroke="currentColor" stroke-width="2" stroke-linecap="square" />
    <path d="M11 8V6.5C11 4.01472 13.0147 2 15.5 2C17.9853 2 20 4.01472 20 6.5V8" stroke="currentColor" stroke-width="2" stroke-linecap="round" stroke-linejoin="round" />
    <path d="M11 10H10.25V10.75H11V10ZM11 7.5V6.75H10.25V7.5H11ZM12.5 7.5H13.25C13.25 7.08579 12.9142 6.75 12.5 6.75V7.5ZM12.5 10V10.75C12.9142 10.75 13.25 10.4142 13.25 10H12.5ZM11 10H11.75V7.5H11H10.25V10H11ZM11 7.5V8.25H12.5V7.5V6.75H11V7.5ZM12.5 7.5H11.75V10H12.5H13.25V7.5H12.5ZM12.5 10V9.25H11V10V10.75H12.5V10Z" fill="currentColor" />
    <path d="M20 10.0002V10.7502H20.75V10.0002H20ZM20 7.50021H20.75V6.75032L20.0001 6.75021L20 7.50021ZM18.5 7.5L18.5001 6.75C18.3012 6.74997 18.1104 6.82898 17.9697 6.96963C17.8291 7.11028 17.75 7.30106 17.75 7.49999L18.5 7.5ZM18.5 10.0002L17.75 10.0002C17.75 10.1991 17.829 10.3899 17.9697 10.5305C18.1103 10.6712 18.3011 10.7502 18.5 10.7502V10.0002ZM20 10.0002H20.75V7.50021H20H19.25V10.0002H20ZM20 7.50021L20.0001 6.75021L18.5001 6.75L18.5 7.5L18.4999 8.25L19.9999 8.25021L20 7.50021ZM18.5 7.5L17.75 7.49999L17.75 10.0002L18.5 10.0002L19.25 10.0002L19.25 7.50001L18.5 7.5ZM18.5 10.0002V10.7502H20V10.0002V9.25021H18.5V10.0002Z" fill="currentColor" />
    <path d="M19 21.5C18.7545 21.1538 18.5 20.6405 18.5 20C18.5 19.3595 18.7545 18.8462 19 18.5" stroke="currentColor" stroke-width="2" stroke-linecap="square" stroke-linejoin="round" />
</svg>