<svg xmlns="http://www.w3.org/2000/svg" width="24" height="24" viewBox="0 0 24 24" fill="none">
    <path d="M20 22H6C4.89543 22 4 21.1046 4 20M4 20C4 18.8954 4.89543 18 6 18H20V15M4 20V4C4 2.89543 4.89543 2 6 2H12" stroke="currentColor" stroke-width="2" stroke-linecap="square" />
    <path d="M14 10L17 7L20 10M17 7.5V13" stroke="currentColor" stroke-width="2" stroke-linecap="square" />
    <path d="M14 5L17 2L20 5" stroke="currentColor" stroke-width="2" stroke-linecap="square" />
    <path d="M19.5 18C19.5 18 18.5 18.7628 18.5 20C18.5 21.2372 19.5 22 19.5 22" stroke="currentColor" stroke-width="2" stroke-linejoin="round" />
</svg>