<svg xmlns="http://www.w3.org/2000/svg" width="24" height="24" viewBox="0 0 24 24" fill="none">
    <path d="M8 3H7C5.89543 3 5 3.89543 5 5L5 10C5 11.1046 4.10457 12 3 12C4.10406 11.9982 5 12.8928 5 13.9968V19C5 20.1046 5.89543 21 7 21H8" stroke="currentColor" stroke-width="2" stroke-linecap="square" />
    <path d="M16 3H17C18.1046 3 19 3.89543 19 5L19 10C19 11.1046 19.8954 12 21 12C19.8959 11.9982 19 12.8928 19 13.9968V19C19 20.1046 18.1046 21 17 21H16" stroke="currentColor" stroke-width="2" stroke-linecap="square" />
</svg>