<svg xmlns="http://www.w3.org/2000/svg" width="24" height="24" viewBox="0 0 24 24" fill="none">
    <path d="M21.5 4.99988C21.5 6.38059 20.3807 7.49988 19 7.49988C17.6193 7.49988 16.5 6.38059 16.5 4.99988C16.5 3.61917 17.6193 2.49988 19 2.49988C20.3807 2.49988 21.5 3.61917 21.5 4.99988Z" stroke="currentColor" stroke-width="2" stroke-linecap="square" />
    <path d="M13.9978 2.71029C13.3536 2.57244 12.6853 2.49988 12 2.49988C6.75329 2.49988 2.5 6.75317 2.5 11.9999C2.5 13.0482 2.6698 14.0569 2.98341 14.9999C3.60922 16.8817 2.98894 19.1665 2.5 19.9999C3.5 19.9123 5.5 19.4999 7.5 20.3686C8.8394 21.0903 10.3719 21.4999 12 21.4999C17.2467 21.4999 21.5 17.2466 21.5 11.9999C21.5 11.3146 21.4274 10.6463 21.2896 10.0021" stroke="currentColor" stroke-width="2" stroke-linecap="square" />
    <path d="M12.1257 11.9999H12.0007M8.125 11.9999H8M16.125 11.9999H16M12.2507 11.9999C12.2507 12.1379 12.1388 12.2499 12.0007 12.2499C11.8627 12.2499 11.7507 12.1379 11.7507 11.9999C11.7507 11.8618 11.8627 11.7499 12.0007 11.7499C12.1388 11.7499 12.2507 11.8618 12.2507 11.9999ZM8.25 11.9999C8.25 12.1379 8.13807 12.2499 8 12.2499C7.86193 12.2499 7.75 12.1379 7.75 11.9999C7.75 11.8618 7.86193 11.7499 8 11.7499C8.13807 11.7499 8.25 11.8618 8.25 11.9999ZM16.25 11.9999C16.25 12.1379 16.1381 12.2499 16 12.2499C15.8619 12.2499 15.75 12.1379 15.75 11.9999C15.75 11.8618 15.8619 11.7499 16 11.7499C16.1381 11.7499 16.25 11.8618 16.25 11.9999Z" stroke="currentColor" stroke-width="2" stroke-linecap="round" stroke-linejoin="round" />
</svg>