<svg xmlns="http://www.w3.org/2000/svg" width="24" height="24" viewBox="0 0 24 24" fill="none">
    <path d="M16.5 2V6M7.5 2V6" stroke="currentColor" stroke-width="2" stroke-linecap="square" />
    <path fill-rule="evenodd" clip-rule="evenodd" d="M3 22V4H21V22H3Z" stroke="currentColor" stroke-width="2" stroke-linecap="square" />
    <path d="M3 10H21" stroke="currentColor" stroke-width="2" stroke-linecap="square" />
    <path d="M12 14L17 14" stroke="currentColor" stroke-width="2" stroke-linecap="square" />
    <path d="M7.25 13.875V14M7.5 14C7.5 14.1381 7.38807 14.25 7.25 14.25C7.11193 14.25 7 14.1381 7 14C7 13.8619 7.11193 13.75 7.25 13.75C7.38807 13.75 7.5 13.8619 7.5 14Z" stroke="currentColor" stroke-width="2" stroke-linecap="round" />
    <path d="M12 18.75H12.75V17.25H12V18V18.75ZM7 17.25H6.25V18.75H7V18V17.25ZM17.5 17.875C17.5 17.4608 17.1642 17.125 16.75 17.125C16.3358 17.125 16 17.4608 16 17.875H16.75H17.5ZM16 18C16 18.4142 16.3358 18.75 16.75 18.75C17.1642 18.75 17.5 18.4142 17.5 18H16.75H16ZM12 18V17.25H7V18V18.75H12V18ZM16.5 18H15.75C15.75 18.5523 16.1977 19 16.75 19V18.25V17.5C17.0261 17.5 17.25 17.7239 17.25 18H16.5ZM16.75 18.25V19C17.3023 19 17.75 18.5523 17.75 18H17H16.25C16.25 17.7239 16.4739 17.5 16.75 17.5V18.25ZM17 18H17.75C17.75 17.4477 17.3023 17 16.75 17V17.75V18.5C16.4739 18.5 16.25 18.2761 16.25 18H17ZM16.75 17.75V17C16.1977 17 15.75 17.4477 15.75 18H16.5H17.25C17.25 18.2761 17.0261 18.5 16.75 18.5V17.75ZM16.75 17.875H16V18H16.75H17.5V17.875H16.75Z" fill="currentColor" />
</svg>