<svg xmlns="http://www.w3.org/2000/svg" width="24" height="24" viewBox="0 0 24 24" fill="none">
    <path d="M16.5 2V6M7.5 2V6" stroke="currentColor" stroke-width="2" stroke-linecap="square" />
    <path d="M11 22H3V4H21V12" stroke="currentColor" stroke-width="2" stroke-linecap="square" />
    <path d="M3 10H21" stroke="currentColor" stroke-width="2" stroke-linecap="square" />
    <path d="M17.4616 20C18.5662 20 19.4616 19.1046 19.4616 18C19.4616 16.8954 18.5662 16 17.4616 16M17.4616 20C16.357 20 15.4616 19.1046 15.4616 18C15.4616 16.8954 16.357 16 17.4616 16M17.4616 20V22M17.4616 16V14M19.1962 16.9956L20.9282 15.9956M15.7321 18.9956L14 19.9956M19.2012 18.9956L20.9332 19.9956M15.7371 16.9956L14.005 15.9956" stroke="currentColor" stroke-width="2" stroke-linecap="square" stroke-linejoin="round" />
</svg>