<svg xmlns="http://www.w3.org/2000/svg" width="24" height="24" viewBox="0 0 24 24" fill="none">
    <path d="M22.061 20.5098V6.00977H19.061L17.061 3.50977H12.061L10.061 6.00977H2.06104V20.5098H22.061Z" stroke="currentColor" stroke-width="2" stroke-linecap="square" />
    <path d="M5.06104 9.00977H7.06104" stroke="currentColor" stroke-width="2" stroke-linecap="square" />
    <path d="M11.061 14.5098C11.8591 15.7242 13.1298 16.5098 14.561 16.5098C15.9922 16.5098 17.2629 15.7242 18.061 14.5098" stroke="currentColor" stroke-width="2" stroke-linecap="square" />
    <path d="M11.6255 10.502H11.5005M11.7505 10.502C11.7505 10.64 11.6386 10.752 11.5005 10.752C11.3624 10.752 11.2505 10.64 11.2505 10.502C11.2505 10.3639 11.3624 10.252 11.5005 10.252C11.6386 10.252 11.7505 10.3639 11.7505 10.502Z" stroke="currentColor" stroke-width="2" stroke-linecap="round" />
    <path d="M17.6255 10.502H17.5005M17.7505 10.502C17.7505 10.64 17.6386 10.752 17.5005 10.752C17.3624 10.752 17.2505 10.64 17.2505 10.502C17.2505 10.3639 17.3624 10.252 17.5005 10.252C17.6386 10.252 17.7505 10.3639 17.7505 10.502Z" stroke="currentColor" stroke-width="2" stroke-linecap="round" />
</svg>