<svg xmlns="http://www.w3.org/2000/svg" width="24" height="24" viewBox="0 0 24 24" fill="none">
    <path d="M14 3.0191C13.3467 3.00651 12.679 3 12 3C8.33695 3 5.00126 3.18952 2.5 3.5C2.18952 5.47468 2 8.10811 2 11C2 13.8919 2.18952 16.5253 2.5 18.5C4.05234 18.6927 5.92608 18.8388 8 18.9219V22H8.13107L12.5 18.9988C15.9661 18.9824 19.113 18.7963 21.5 18.5C21.7743 16.7555 21.9618 14.4968 22 12" stroke="currentColor" stroke-width="2" stroke-linecap="square" />
    <path d="M16 8.49951C16 6.84266 17.3431 5.49951 19 5.49951M19 5.49951C20.6569 5.49951 22 6.84266 22 8.49951M19 5.49951C19.9665 5.49951 20.75 4.7165 20.75 3.75C20.75 2.7835 19.9665 2 19 2C18.0335 2 17.25 2.7835 17.25 3.75C17.25 4.7165 18.0335 5.49951 19 5.49951Z" stroke="currentColor" stroke-width="2" stroke-linecap="square" />
    <path d="M12.1257 11H12.0007M8.125 11H8M12.2507 11C12.2507 11.1381 12.1388 11.25 12.0007 11.25C11.8627 11.25 11.7507 11.1381 11.7507 11C11.7507 10.8619 11.8627 10.75 12.0007 10.75C12.1388 10.75 12.2507 10.8619 12.2507 11ZM8.25 11C8.25 11.1381 8.13807 11.25 8 11.25C7.86193 11.25 7.75 11.1381 7.75 11C7.75 10.8619 7.86193 10.75 8 10.75C8.13807 10.75 8.25 10.8619 8.25 11Z" stroke="currentColor" stroke-width="2" stroke-linecap="round" stroke-linejoin="round" />
</svg>