<svg xmlns="http://www.w3.org/2000/svg" width="24" height="24" viewBox="0 0 24 24" fill="none">
    <path d="M13.5 3.00124C13.1697 2.9981 12.3362 3.0019 12 3.0019C8.33695 3.0019 5.00126 3.19142 2.5 3.5019C2.18952 5.47658 2 8.11001 2 11.0019C2 13.8938 2.18952 16.5272 2.5 18.5019C4.05234 18.6946 5.92608 18.8407 8 18.9238V22.0019H8.13107L12.5 19.0007C15.9661 18.9843 19.113 18.7982 21.5 18.5019C21.8105 16.5272 22 13.8938 22 11.0019V10.5019" stroke="currentColor" stroke-width="2" stroke-linecap="square" />
    <path d="M22 7L17 2M22 2L17 7" stroke="currentColor" stroke-width="2" stroke-linecap="square" />
    <path d="M12.1257 11H12.0007M8.125 11H8M12.2507 11C12.2507 11.1381 12.1388 11.25 12.0007 11.25C11.8627 11.25 11.7507 11.1381 11.7507 11C11.7507 10.8619 11.8627 10.75 12.0007 10.75C12.1388 10.75 12.2507 10.8619 12.2507 11ZM8.25 11C8.25 11.1381 8.13807 11.25 8 11.25C7.86193 11.25 7.75 11.1381 7.75 11C7.75 10.8619 7.86193 10.75 8 10.75C8.13807 10.75 8.25 10.8619 8.25 11Z" stroke="currentColor" stroke-width="2" stroke-linecap="round" stroke-linejoin="round" />
</svg>