<svg xmlns="http://www.w3.org/2000/svg" width="24" height="24" viewBox="0 0 24 24" fill="none">
    <path d="M9 3C6.52767 3.0727 4.2982 3.27636 2.5 3.49957C2.18952 5.47425 2 8.10769 2 10.9996C2 13.8915 2.18952 16.5249 2.5 18.4996C4.05234 18.6923 5.92608 18.8384 8 18.9215V21.9996H8.13107L12.5 18.9984C15.9661 18.982 19.113 18.7959 21.5 18.4996C21.8105 16.5249 22 13.8915 22 10.9996C22 10.6627 21.9974 10.3293 21.9924 10" stroke="currentColor" stroke-width="2" stroke-linecap="square" />
    <path d="M22 5C22 5 19.958 8 17 8C14.042 8 12 5 12 5C12 5 14 2 17 2C20 2 22 5 22 5Z" stroke="currentColor" stroke-width="2" stroke-linecap="round" />
    <path d="M12.1257 11H12.0007M8.125 11H8M12.2507 11C12.2507 11.1381 12.1388 11.25 12.0007 11.25C11.8627 11.25 11.7507 11.1381 11.7507 11C11.7507 10.8619 11.8627 10.75 12.0007 10.75C12.1388 10.75 12.2507 10.8619 12.2507 11ZM8.25 11C8.25 11.1381 8.13807 11.25 8 11.25C7.86193 11.25 7.75 11.1381 7.75 11C7.75 10.8619 7.86193 10.75 8 10.75C8.13807 10.75 8.25 10.8619 8.25 11Z" stroke="currentColor" stroke-width="2" stroke-linecap="round" stroke-linejoin="round" />
    <path d="M17.125 5H17M17.25 5C17.25 5.13807 17.1381 5.25 17 5.25C16.8619 5.25 16.75 5.13807 16.75 5C16.75 4.86193 16.8619 4.75 17 4.75C17.1381 4.75 17.25 4.86193 17.25 5Z" stroke="currentColor" stroke-width="2" stroke-linecap="round" stroke-linejoin="round" />
</svg>