<svg xmlns="http://www.w3.org/2000/svg" width="24" height="24" viewBox="0 0 24 24" fill="none">
    <path d="M21.9981 11.4988C21.9776 14.1937 21.7925 16.6386 21.5 18.4988C19.113 18.7951 15.9661 18.9812 12.5 18.9976L8.13107 21.9988H8V18.9207C5.92608 18.8376 4.05234 18.6915 2.5 18.4988C2.18952 16.5241 2 13.8907 2 10.9988C2 8.10693 2.18952 5.4735 2.5 3.49882C4.88698 3.20253 8.03387 3.01639 11.5 3" stroke="currentColor" stroke-width="2" stroke-linecap="square" />
    <path d="M22 3.2C21.175 2.46801 19.9136 2 18.5 2C17.0864 2 15.825 2.46801 15 3.2V5.6C15 8.8 18.5 10 18.5 10C18.5 10 22 8.8 22 5.6L22 3.2Z" stroke="currentColor" stroke-width="2" stroke-linecap="square" />
    <path d="M12.1257 11H12.0007M8.125 11H8M12.2507 11C12.2507 11.1381 12.1388 11.25 12.0007 11.25C11.8627 11.25 11.7507 11.1381 11.7507 11C11.7507 10.8619 11.8627 10.75 12.0007 10.75C12.1388 10.75 12.2507 10.8619 12.2507 11ZM8.25 11C8.25 11.1381 8.13807 11.25 8 11.25C7.86193 11.25 7.75 11.1381 7.75 11C7.75 10.8619 7.86193 10.75 8 10.75C8.13807 10.75 8.25 10.8619 8.25 11Z" stroke="currentColor" stroke-width="2" stroke-linecap="round" stroke-linejoin="round" />
</svg>