<svg xmlns="http://www.w3.org/2000/svg" width="24" height="24" viewBox="0 0 24 24" fill="none">
    <path d="M14 3.0191C13.3467 3.00651 12.679 3 12 3C8.33695 3 5.00126 3.18952 2.5 3.5C2.18952 5.47468 2 8.10811 2 11C2 13.8919 2.18952 16.5253 2.5 18.5C4.05234 18.6927 5.92608 18.8388 8 18.9219V22H8.13107L12.5 18.9988C15.9661 18.9824 19.113 18.7963 21.5 18.5C21.8105 16.5253 22 13.8919 22 11C22 10.3172 21.9894 9.64874 21.9692 9" stroke="currentColor" stroke-width="2" stroke-linecap="square" />
    <path d="M17.3221 8.5H15.5V6.67789L19.911 2.26684C20.2668 1.91105 20.8436 1.91105 21.1994 2.26684L21.7331 2.80052C22.0889 3.15631 22.0889 3.73316 21.7331 4.08895L17.3221 8.5Z" stroke="currentColor" stroke-width="2" stroke-linecap="square" />
    <path d="M12.1257 11H12.0007M8.125 11H8M12.2507 11C12.2507 11.1381 12.1388 11.25 12.0007 11.25C11.8627 11.25 11.7507 11.1381 11.7507 11C11.7507 10.8619 11.8627 10.75 12.0007 10.75C12.1388 10.75 12.2507 10.8619 12.2507 11ZM8.25 11C8.25 11.1381 8.13807 11.25 8 11.25C7.86193 11.25 7.75 11.1381 7.75 11C7.75 10.8619 7.86193 10.75 8 10.75C8.13807 10.75 8.25 10.8619 8.25 11Z" stroke="currentColor" stroke-width="2" stroke-linecap="round" stroke-linejoin="round" />
</svg>