<svg xmlns="http://www.w3.org/2000/svg" width="24" height="24" viewBox="0 0 24 24" fill="none">
    <path d="M12 3C8.33695 3 5.00126 3.18952 2.5 3.5C2.18952 5.47468 2 8.10811 2 11C2 13.8919 2.18952 16.5253 2.5 18.5C4.05234 18.6927 5.92608 18.8388 8 18.9219V22H8.13107L12.5 18.9988C15.9661 18.9824 19.113 18.7963 21.5 18.5C21.7743 16.7555 21.9618 14.4968 22 12" stroke="currentColor" stroke-width="2" stroke-linecap="square" />
    <path d="M22 8.99977L20.375 7.37478M21 4.99977C21 3.34292 19.6569 1.99977 18 1.99977C16.3431 1.99977 15 3.34292 15 4.99977C15 6.65663 16.3431 7.99977 18 7.99977C18.8284 7.99977 19.5784 7.66399 20.1213 7.12109C20.6642 6.5782 21 5.8282 21 4.99977Z" stroke="currentColor" stroke-width="2" stroke-linecap="square" />
    <path d="M12.1257 11H12.0007M8.125 11H8M12.2507 11C12.2507 11.1381 12.1388 11.25 12.0007 11.25C11.8627 11.25 11.7507 11.1381 11.7507 11C11.7507 10.8619 11.8627 10.75 12.0007 10.75C12.1388 10.75 12.2507 10.8619 12.2507 11ZM8.25 11C8.25 11.1381 8.13807 11.25 8 11.25C7.86193 11.25 7.75 11.1381 7.75 11C7.75 10.8619 7.86193 10.75 8 10.75C8.13807 10.75 8.25 10.8619 8.25 11Z" stroke="currentColor" stroke-width="2" stroke-linecap="round" stroke-linejoin="round" />
</svg>