<svg xmlns="http://www.w3.org/2000/svg" width="24" height="24" viewBox="0 0 24 24" fill="none">
    <path d="M4.99994 22V20C4.99994 18.8954 5.89537 18 6.99994 18H16.9999C18.1045 18 18.9999 18.8954 18.9999 20V22H4.99994Z" stroke="currentColor" stroke-width="2" stroke-linecap="square" />
    <path d="M3.99994 11.5833C3.99994 9.05203 5.68415 7 7.99994 7C9.19994 7 10.3999 7.44118 11.9999 9.20588C13.5999 7.44118 14.7999 7 15.9999 7C18.3157 7 19.9999 9.05203 19.9999 11.5833C19.9999 13.8457 18.4395 16.1415 16.697 18H7.30291C5.56037 16.1415 3.99994 13.8457 3.99994 11.5833Z" stroke="currentColor" stroke-width="2" stroke-linecap="square" />
    <path d="M11.9999 2V8" stroke="currentColor" stroke-width="2" stroke-linecap="square" />
    <path d="M9.99994 4H13.9999" stroke="currentColor" stroke-width="2" stroke-linecap="square" />
</svg>