<svg xmlns="http://www.w3.org/2000/svg" width="24" height="24" viewBox="0 0 24 24" fill="none">
    <path d="M17 10L12 7L7 10V22H17V10Z" stroke="currentColor" stroke-width="2" stroke-linecap="square" />
    <path d="M10 22V19C10 17.8954 10.8954 17 12 17C13.1046 17 14 17.8954 14 19V22" stroke="currentColor" stroke-width="2" stroke-linecap="square" />
    <path d="M12 7V2" stroke="currentColor" stroke-width="2" stroke-linecap="square" />
    <path d="M10 4H14" stroke="currentColor" stroke-width="2" stroke-linecap="square" />
    <path d="M12.125 12.25H12M12.25 12.25C12.25 12.3881 12.1381 12.5 12 12.5C11.8619 12.5 11.75 12.3881 11.75 12.25C11.75 12.1119 11.8619 12 12 12C12.1381 12 12.25 12.1119 12.25 12.25Z" stroke="currentColor" stroke-width="2" stroke-linecap="round" />
    <path d="M21 15.5L17 13.5V22H21V15.5Z" stroke="currentColor" stroke-width="2" />
    <path d="M3 15.5L7 13.5V22H3V15.5Z" stroke="currentColor" stroke-width="2" />
</svg>