<svg xmlns="http://www.w3.org/2000/svg" width="24" height="24" viewBox="0 0 24 24" fill="none">
    <path d="M21 3L13 11.5" stroke="currentColor" stroke-width="2" stroke-linecap="square" />
    <path d="M11.5 10.5C9 12 6 12 3 11.089C3.50059 17.5315 6.50414 20.0094 10.5089 21.0005C10.5089 21.0005 14 18 14 13L11.5 10.5Z" stroke="currentColor" stroke-width="2" stroke-linecap="square" />
    <path d="M4.5 16.4464C4.5 16.4464 7.5 17 10 14.5" stroke="currentColor" stroke-width="2" />
    <path d="M8.5 7.25C8.5 7.94036 7.94036 8.5 7.25 8.5C6.55964 8.5 6 7.94036 6 7.25C6 6.55964 6.55964 6 7.25 6C7.94036 6 8.5 6.55964 8.5 7.25Z" stroke="currentColor" stroke-width="2" stroke-linecap="square" />
    <path d="M11.125 4H11M11.25 4C11.25 4.13807 11.1381 4.25 11 4.25C10.8619 4.25 10.75 4.13807 10.75 4C10.75 3.86193 10.8619 3.75 11 3.75C11.1381 3.75 11.25 3.86193 11.25 4Z" stroke="currentColor" stroke-width="2" stroke-linecap="round" stroke-linejoin="round" />
</svg>