<svg xmlns="http://www.w3.org/2000/svg" width="24" height="24" viewBox="0 0 24 24" fill="none">
    <path d="M6 17.9C3.71776 17.4367 2 15.419 2 13C2 10.4003 3.98398 8.26407 6.52042 8.0227M9 8.41604C8.38754 8.14845 7.7111 8 7 8C6.83823 8 6.67826 8.00768 6.52042 8.0227M16.9003 11C17.2119 10.3904 17.4131 9.71494 17.4776 9.00005C17.4924 8.83536 17.5 8.66856 17.5 8.5C17.5 5.46243 15.0376 3 12 3C9.12324 3 6.76233 5.20862 6.52042 8.0227M17.5 18C19.9853 18 22 15.9853 22 13.5C22 11.0147 19.9853 9 17.5 9C17.4925 9 17.485 9.00002 17.4776 9.00005" stroke="currentColor" stroke-width="2" stroke-linecap="square" stroke-linejoin="round" />
    <path d="M13 13L10 17H14L11 21" stroke="currentColor" stroke-width="2" stroke-linecap="square" />
</svg>