<svg xmlns="http://www.w3.org/2000/svg" width="24" height="24" viewBox="0 0 24 24" fill="none">
    <path d="M18.9999 19.5H6.99994C4.23852 19.5 1.99994 17.2614 1.99994 14.5C1.99994 11.9003 3.98392 9.76407 6.52036 9.5227M17.4775 10.5001C17.485 10.5 17.4925 10.5 17.4999 10.5C19.9852 10.5 21.9999 12.5147 21.9999 15C21.9999 15.8582 21.7597 16.6604 21.3427 17.3428M17.4775 10.5001C17.4924 10.3354 17.4999 10.1686 17.4999 10C17.4999 6.96243 15.0375 4.5 11.9999 4.5C10.9944 4.5 10.052 4.76982 9.24095 5.24101M17.4775 10.5001C17.4038 11.3178 17.1511 12.0839 16.7589 12.759M6.52036 9.5227C6.6782 9.50768 6.83817 9.5 6.99994 9.5C8.12576 9.5 9.16468 9.87209 10.0004 10.5M6.52036 9.5227C6.57571 8.87888 6.74196 8.26675 6.99994 7.70552" stroke="currentColor" stroke-width="2" stroke-linecap="square" />
    <path d="M1.99994 2L21.9999 22" stroke="currentColor" stroke-width="2" stroke-linecap="square" />
</svg>