<svg xmlns="http://www.w3.org/2000/svg" width="24" height="24" viewBox="0 0 24 24" fill="none">
    <path d="M14 22H16M14 22C13.1716 22 12.5 21.3284 12.5 20.5V18L12 18M14 22H10M10 22H8M10 22C10.8284 22 11.5 21.3284 11.5 20.5V18L12 18M12 18V22" stroke="currentColor" stroke-width="2" stroke-linecap="square" />
    <path d="M22 13V18H2L2 4L11 4" stroke="currentColor" stroke-width="2" stroke-linecap="square" />
    <path d="M22 5.5V3C20 3 18.5 2 18.5 2C18.5 2 17 3 15 3V5.5C15 9 18.5 10 18.5 10C18.5 10 22 9 22 5.5Z" stroke="currentColor" stroke-width="2" stroke-linecap="square" />
</svg>