<svg xmlns="http://www.w3.org/2000/svg" width="24" height="24" viewBox="0 0 24 24" fill="none">
    <path d="M14.5024 16H4.49961C2.84229 16 1.49876 17.3431 1.49876 19C1.49876 20.6569 2.84229 22 4.49961 22H14.5024C16.1598 22 17.5033 20.6569 17.5033 19C17.5033 17.3431 16.1598 16 14.5024 16Z" stroke="currentColor" stroke-width="2" stroke-linecap="square" />
    <path d="M10.4988 4H4.49876V13H14.4988V7.5L10.4988 4Z" stroke="currentColor" stroke-width="2" stroke-linecap="square" />
    <path d="M19.4988 10H18.7488V10.75H19.4988V10ZM17.087 2.36602L17.5853 2.92658V2.92658L17.087 2.36602ZM12.5005 5.43944L11.9399 5.93772L12.9365 7.05883L13.497 6.56056L12.9988 6L12.5005 5.43944ZM21.4988 12H20.7488C20.7488 12.6904 20.1891 13.25 19.4988 13.25V14V14.75C21.0175 14.75 22.2488 13.5188 22.2488 12H21.4988ZM19.4988 14V13.25C18.8084 13.25 18.2488 12.6904 18.2488 12H17.4988H16.7488C16.7488 13.5188 17.98 14.75 19.4988 14.75V14ZM19.4988 10V10.75C20.1891 10.75 20.7488 11.3096 20.7488 12H21.4988H22.2488C22.2488 10.4812 21.0175 9.25 19.4988 9.25V10ZM19.4988 10H20.2488V3.44907H19.4988H18.7488V10H19.4988ZM17.087 2.36602L16.5887 1.80546L12.5005 5.43944L12.9988 6L13.497 6.56056L17.5853 2.92658L17.087 2.36602ZM18.0497 2V1.25C17.5111 1.25 16.9913 1.44765 16.5887 1.80546L17.087 2.36602L17.5853 2.92658C17.7132 2.81283 17.8785 2.75 18.0497 2.75V2ZM19.4988 3.44907H20.2488C20.2488 2.23456 19.2642 1.25 18.0497 1.25V2V2.75C18.4358 2.75 18.7488 3.06298 18.7488 3.44907H19.4988Z" fill="currentColor" />
    <path d="M9.62376 19H9.49876M9.74876 19C9.74876 19.1381 9.63683 19.25 9.49876 19.25C9.36069 19.25 9.24876 19.1381 9.24876 19C9.24876 18.8619 9.36069 18.75 9.49876 18.75C9.63683 18.75 9.74876 18.8619 9.74876 19Z" stroke="currentColor" stroke-width="2" stroke-linecap="round" />
    <path d="M5.12376 19H4.99876M5.24876 19C5.24876 19.1381 5.13683 19.25 4.99876 19.25C4.86069 19.25 4.74876 19.1381 4.74876 19C4.74876 18.8619 4.86069 18.75 4.99876 18.75C5.13683 18.75 5.24876 18.8619 5.24876 19Z" stroke="currentColor" stroke-width="2" stroke-linecap="round" />
    <path d="M14.1238 19H13.9988M14.2488 19C14.2488 19.1381 14.1368 19.25 13.9988 19.25C13.8607 19.25 13.7488 19.1381 13.7488 19C13.7488 18.8619 13.8607 18.75 13.9988 18.75C14.1368 18.75 14.2488 18.8619 14.2488 19Z" stroke="currentColor" stroke-width="2" stroke-linecap="round" />
</svg>