<svg xmlns="http://www.w3.org/2000/svg" width="24" height="24" viewBox="0 0 24 24" fill="none">
    <path d="M14.4996 10.4499L12.015 11.9873M12.015 11.9873L9.53022 13.5247M12.015 11.9873L12.0302 14.9873M12.015 11.9873L11.9996 8.9873M12.015 11.9873L14.5146 13.4498M12.015 11.9873L9.51465 10.5246" stroke="currentColor" stroke-width="2" stroke-linecap="square" />
    <path d="M1.99902 12.001L11.9973 2.00098H22.001V11.9535L11.999 21.999L1.99902 12.001Z" stroke="currentColor" stroke-width="2" stroke-linecap="square" />
    <path d="M18.624 5.50098H18.499M18.749 5.50098C18.749 5.63905 18.6371 5.75098 18.499 5.75098C18.361 5.75098 18.249 5.63905 18.249 5.50098C18.249 5.36291 18.361 5.25098 18.499 5.25098C18.6371 5.25098 18.749 5.36291 18.749 5.50098Z" stroke="currentColor" stroke-width="2" stroke-linecap="round" stroke-linejoin="round" />
</svg>