<svg xmlns="http://www.w3.org/2000/svg" width="24" height="24" viewBox="0 0 24 24" fill="none">
    <path d="M21 9.43911C19.6952 5.66379 16.0498 3 11.7568 3C6.36825 3 2 7.281 2 12.5619C2 15.503 3.35496 18.134 5.4865 19.888C6.83589 20.9984 7 21 7 21H14L13 13L21 9.43911ZM21 9.43911L22 8.99503" stroke="currentColor" stroke-width="2" stroke-linecap="square" />
    <path d="M22 15.9114L16.5 16.5L13.5 13.5" stroke="currentColor" stroke-width="2" stroke-linecap="square" />
    <path d="M16 12L17.5 21H22" stroke="currentColor" stroke-width="2" stroke-linecap="square" />
    <path d="M20.5 16.5L20.5 21" stroke="currentColor" stroke-width="2" stroke-linecap="square" />
    <path d="M10.125 17H10M10.25 17C10.25 17.1381 10.1381 17.25 10 17.25C9.86193 17.25 9.75 17.1381 9.75 17C9.75 16.8619 9.86193 16.75 10 16.75C10.1381 16.75 10.25 16.8619 10.25 17Z" stroke="currentColor" stroke-width="2" stroke-linecap="round" />
</svg>