<svg xmlns="http://www.w3.org/2000/svg" width="24" height="24" viewBox="0 0 24 24" fill="none">
    <path d="M2 21V3H6L8 21H2Z" stroke="currentColor" stroke-width="2" stroke-linecap="square" />
    <path d="M22 12C21.4 11.5 20.8 11 19.5 11C17 11 17 13 14.5 13C11.9 13 12.1 11 9.5 11C8.57595 11 7.99344 11.2732 7.5 11.6177" stroke="currentColor" stroke-width="2" stroke-linecap="square" />
    <path d="M22 18C21.4 17.5 20.8 17 19.5 17C17 17 17 19 14.5 19C11.9 19 12.1 17 9.5 17C8.86664 17 8.39374 17.1284 8 17.3201" stroke="currentColor" stroke-width="2" stroke-linecap="square" />
</svg>