<svg xmlns="http://www.w3.org/2000/svg" width="24" height="24" viewBox="0 0 24 24" fill="none">
    <path d="M10.9999 20H1.99994V2H19.9999V10" stroke="currentColor" stroke-width="2" stroke-linecap="square" />
    <path d="M1.99994 11H10.9999" stroke="currentColor" stroke-width="2" stroke-linecap="square" />
    <path d="M9.99994 6.5L15.9999 6.5" stroke="currentColor" stroke-width="2" stroke-linecap="square" />
    <path d="M6.12494 6.5H5.99994M6.24994 6.5C6.24994 6.63807 6.13801 6.75 5.99994 6.75C5.86187 6.75 5.74994 6.63807 5.74994 6.5C5.74994 6.36193 5.86187 6.25 5.99994 6.25C6.13801 6.25 6.24994 6.36193 6.24994 6.5Z" stroke="currentColor" stroke-width="2" stroke-linecap="round" />
    <path d="M6.12494 15.5H5.99994M6.24994 15.5C6.24994 15.6381 6.13801 15.75 5.99994 15.75C5.86187 15.75 5.74994 15.6381 5.74994 15.5C5.74994 15.3619 5.86187 15.25 5.99994 15.25C6.13801 15.25 6.24994 15.3619 6.24994 15.5Z" stroke="currentColor" stroke-width="2" stroke-linecap="round" />
    <path d="M21.4648 15.5C20.7732 14.3044 19.4805 13.5 17.9999 13.5C16.5251 13.5 15.2367 14.2982 14.5431 15.4861M14.5351 19.5C15.2267 20.6956 16.5194 21.5 17.9999 21.5C19.5709 21.5 20.9303 20.5944 21.5847 19.2767M16.9999 16H13.9999V13M18.9999 19H21.9999V22" stroke="currentColor" stroke-width="2" stroke-linecap="square" />
</svg>