<svg xmlns="http://www.w3.org/2000/svg" width="24" height="24" viewBox="0 0 24 24" fill="none">
    <ellipse cx="11" cy="5.00195" rx="8" ry="3" stroke="currentColor" stroke-width="2" stroke-linecap="round" stroke-linejoin="round" />
    <path d="M3 12.002C3 13.3998 5.54955 14.5744 9 14.9074" stroke="currentColor" stroke-width="2" stroke-linecap="square" />
    <path d="M13.5 16.002C14 15.002 15 13.502 17 13.502C19.2091 13.502 21 15.2928 21 17.502C21 19.7111 19.2091 21.502 17 21.502C15.8053 21.502 14.7329 20.9782 14 20.1478M16 16.502H13V13.002" stroke="currentColor" stroke-width="2" stroke-linecap="square" />
    <path d="M11 22.752H11.75V21.252H11V22.002V22.752ZM18.25 10.002V10.752H19.75V10.002H19H18.25ZM11 22.002V21.252C8.85699 21.252 6.95026 20.9249 5.60649 20.421C4.93183 20.168 4.43796 19.8849 4.12623 19.6085C3.81363 19.3313 3.75 19.1247 3.75 19.002H3H2.25C2.25 19.7077 2.63408 20.2902 3.13112 20.7309C3.62904 21.1723 4.30674 21.5356 5.0798 21.8255C6.63146 22.4074 8.72474 22.752 11 22.752V22.002ZM3 19.002H3.75V5.00195H3H2.25V19.002H3ZM19 10.002H19.75V5.00195H19H18.25V10.002H19Z" fill="currentColor" />
</svg>