<svg xmlns="http://www.w3.org/2000/svg" width="24" height="24" viewBox="0 0 24 24" fill="none">
    <path d="M13.7071 2.70711L21.2929 10.2929C21.7456 10.7456 22 11.3597 22 12C22 12.6403 21.7456 13.2544 21.2929 13.7071L13.7071 21.2929C13.2544 21.7456 12.6403 22 12 22C11.3597 22 10.7456 21.7456 10.2929 21.2929L2.70711 13.7071C2.25435 13.2544 2 12.6403 2 12C2 11.3597 2.25435 10.7456 2.70711 10.2929L10.2929 2.70711C10.7456 2.25435 11.3597 2 12 2C12.6403 2 13.2544 2.25435 13.7071 2.70711Z" stroke="currentColor" stroke-width="2" stroke-linecap="square" />
    <path d="M15 9L9 15" stroke="currentColor" stroke-width="2" stroke-linecap="square" />
    <path d="M9.375 9.25H9.25M9.5 9.25C9.5 9.38807 9.38807 9.5 9.25 9.5C9.11193 9.5 9 9.38807 9 9.25C9 9.11193 9.11193 9 9.25 9C9.38807 9 9.5 9.11193 9.5 9.25Z" stroke="currentColor" stroke-width="2" stroke-linecap="round" />
    <path d="M14.875 14.75H14.75M15 14.75C15 14.8881 14.8881 15 14.75 15C14.6119 15 14.5 14.8881 14.5 14.75C14.5 14.6119 14.6119 14.5 14.75 14.5C14.8881 14.5 15 14.6119 15 14.75Z" stroke="currentColor" stroke-width="2" stroke-linecap="round" />
</svg>