<svg xmlns="http://www.w3.org/2000/svg" width="24" height="24" viewBox="0 0 24 24" fill="none">
    <path d="M5 19.0001V21.0001M19 19.0001V21.0001" stroke="currentColor" stroke-width="2" stroke-linecap="square" />
    <path d="M22 6H2V19H22V6Z" stroke="currentColor" stroke-width="2" stroke-linecap="square" />
    <path d="M17 6H7L8 3H16L17 6Z" stroke="currentColor" stroke-width="2" stroke-linecap="square" />
    <path d="M19 10H16.5V15L19 15V10Z" stroke="currentColor" stroke-width="2" stroke-linecap="square" />
    <path d="M13.5 10H11V15L13.5 15V10Z" stroke="currentColor" stroke-width="2" stroke-linecap="square" />
    <path d="M5 15V10" stroke="currentColor" stroke-width="2" stroke-linecap="square" />
    <path d="M8.05039 11.0004H8.00039M8.05078 14.0004H8.00078M8.10039 11.0004C8.10039 11.0556 8.05562 11.1004 8.00039 11.1004C7.94516 11.1004 7.90039 11.0556 7.90039 11.0004C7.90039 10.9452 7.94516 10.9004 8.00039 10.9004C8.05562 10.9004 8.10039 10.9452 8.10039 11.0004ZM8.10078 14.0004C8.10078 14.0556 8.05601 14.1004 8.00078 14.1004C7.94555 14.1004 7.90078 14.0556 7.90078 14.0004C7.90078 13.9452 7.94555 13.9004 8.00078 13.9004C8.05601 13.9004 8.10078 13.9452 8.10078 14.0004Z" stroke="currentColor" stroke-width="2" stroke-linecap="round" stroke-linejoin="round" />
</svg>