<svg xmlns="http://www.w3.org/2000/svg" width="24" height="24" viewBox="0 0 24 24" fill="none">
    <path d="M22 12.001C22 17.5236 17.5229 22.001 12 22.001C6.47713 22.001 2 17.5236 2 12.001C2 6.47811 6.47713 2.00098 12 2.00098C17.5229 2.00098 22 6.47811 22 12.001Z" stroke="currentColor" stroke-width="2" stroke-linecap="square" />
    <path d="M15.6904 9.00098L17.1609 10.704C17.9481 11.6155 17.2771 12.9999 16.048 13.0005L15 13.001" stroke="currentColor" stroke-width="2" stroke-linecap="square" />
    <path d="M9 8.00098V12.999" stroke="currentColor" stroke-width="2" stroke-linecap="square" />
    <path d="M9.5 17.5006H11M9.5 17.5006H8M9.5 17.5006C9.16667 17.1673 8.69989 16.3005 9.5 15.5006C9.62937 15.3713 9.96026 15.2205 10.2408 15.2221" stroke="currentColor" stroke-width="2" stroke-linecap="square" />
    <path d="M12.125 13.001H12M12.25 13.001C12.25 13.139 12.1381 13.251 12 13.251C11.8619 13.251 11.75 13.139 11.75 13.001C11.75 12.8629 11.8619 12.751 12 12.751C12.1381 12.751 12.25 12.8629 12.25 13.001Z" stroke="currentColor" stroke-width="2" stroke-linecap="round" />
</svg>