<svg xmlns="http://www.w3.org/2000/svg" width="24" height="24" viewBox="0 0 24 24" fill="none">
    <path d="M14.9924 7.43213C14.4275 8.36979 13.3994 8.9969 12.2249 8.9969C10.4417 8.9969 8.99603 7.55132 8.99603 5.7681C8.99603 4.59358 9.62316 3.56555 10.5608 3.00055" stroke="currentColor" stroke-width="2" />
    <path d="M8.50308 16.5195L4.98984 12.965V7.86322C4.98052 7.51383 4.7922 7.12895 4.71376 6.97437C4.25142 6.19711 3.4693 6.01247 3.1419 6.00055H2.09207C2.03687 6.00055 1.99213 6.04529 1.99213 6.10049V14.4523C1.99213 14.4776 2.00168 14.5019 2.01886 14.5204L8.0406 21.0004H11.9903V15.4929L8.23835 12.1302C8.01994 11.993 7.56375 11.715 6.95308 11.7575C6.17712 11.8114 5.75001 12.1924 5.41479 12.5416" stroke="currentColor" stroke-width="2" />
    <path d="M15.4774 16.5117L18.9907 12.9572V7.8554C19 7.50602 19.1883 7.12114 19.2667 6.96655C19.7291 6.1893 20.5112 6.00465 20.8386 5.99274H21.8884C21.9436 5.99274 21.9884 6.03748 21.9884 6.09268V14.4445C21.9884 14.4698 21.9788 14.4941 21.9616 14.5126L15.9399 20.9926H11.9902V15.4851L15.7421 12.1224C15.9606 11.9852 16.4167 11.7072 17.0274 11.7496C17.8861 11.8094 18.3176 12.2695 18.6701 12.6439" stroke="currentColor" stroke-width="2" />
    <path d="M14.1249 4.00055H13.9999M14.2499 4.00055C14.2499 4.13862 14.138 4.25055 13.9999 4.25055C13.8619 4.25055 13.7499 4.13862 13.7499 4.00055C13.7499 3.86248 13.8619 3.75055 13.9999 3.75055C14.138 3.75055 14.2499 3.86248 14.2499 4.00055Z" stroke="currentColor" stroke-width="2" stroke-linecap="round" />
</svg>