<svg xmlns="http://www.w3.org/2000/svg" width="24" height="24" viewBox="0 0 24 24" fill="none">
    <path d="M17 15C16.002 16.7934 14.1365 18 12 18C9.86346 18 7.99804 16.7934 7 15" stroke="currentColor" stroke-width="2" stroke-linecap="square" />
    <path d="M8 8V10" stroke="currentColor" stroke-width="2" stroke-linecap="square" />
    <path d="M7.5 2.5H2.5V7.5M16.5 2.5H21.5V7.5M7.5 21.5H2.5V16.5M16.5 21.5H21.5V16.5" stroke="currentColor" stroke-width="2" stroke-linecap="square" />
    <path d="M16 8.2V10.2M14 8.93594L15.5 8.5L15.9197 7H16.0803L16.5 8.5L18 8.93594V9.06406L16.5 9.5L16.0803 11H15.9197L15.5 9.5L14 9.06406V8.93594Z" stroke="currentColor" stroke-width="2" stroke-linecap="square" />
</svg>