<svg xmlns="http://www.w3.org/2000/svg" width="24" height="24" viewBox="0 0 24 24" fill="none">
    <path d="M13.5 22H20.5V9L13.5 2H4.5V11" stroke="currentColor" stroke-width="2" stroke-linecap="square" />
    <path d="M20 9H13.5V2.5" stroke="currentColor" stroke-width="2" stroke-linecap="square" />
    <path d="M6.96161 20C8.06618 20 8.96161 19.1046 8.96161 18C8.96161 16.8954 8.06618 16 6.96161 16M6.96161 20C5.85704 20 4.96161 19.1046 4.96161 18C4.96161 16.8954 5.85704 16 6.96161 16M6.96161 20V22M6.96161 16V14M8.69617 16.9956L10.4282 15.9956M5.23207 18.9956L3.50002 19.9956M8.70118 18.9956L10.4332 19.9956M5.23708 16.9956L3.50502 15.9956" stroke="currentColor" stroke-width="2" stroke-linecap="square" />
</svg>