<svg xmlns="http://www.w3.org/2000/svg" width="24" height="24" viewBox="0 0 24 24" fill="none">
    <path d="M4.25 14V13.25H3.5V14H4.25ZM5.25 14.75H6V13.25H5.25V14V14.75ZM4.25 22H3.5V22.75H4.25V22ZM5.25 22.75H6V21.25H5.25V22V22.75ZM4.25 15H3.5V17H4.25H5V15H4.25ZM4.25 17H3.5C3.5 17.1381 3.38807 17.25 3.25 17.25V18V18.75C4.2165 18.75 5 17.9665 5 17H4.25ZM4.25 21H5V19H4.25H3.5V21H4.25ZM4.25 19H5C5 18.0335 4.2165 17.25 3.25 17.25V18V18.75C3.38807 18.75 3.5 18.8619 3.5 19H4.25ZM2.75 18V18.75H3.25V18V17.25H2.75V18ZM4.25 15H5V14H4.25H3.5V15H4.25ZM4.25 14V14.75H5.25V14V13.25H4.25V14ZM4.25 21H3.5V22H4.25H5V21H4.25ZM4.25 22V22.75H5.25V22V21.25H4.25V22Z" fill="currentColor" />
    <path d="M10.25 14V13.25H11V14H10.25ZM9.25 14.75H8.5V13.25H9.25V14V14.75ZM10.25 22H11V22.75H10.25V22ZM9.25 22.75H8.5V21.25H9.25V22V22.75ZM10.25 15H11V17H10.25H9.5V15H10.25ZM10.25 17H11C11 17.1381 11.1119 17.25 11.25 17.25V18V18.75C10.2835 18.75 9.5 17.9665 9.5 17H10.25ZM10.25 21H9.5V19H10.25H11V21H10.25ZM10.25 19H9.5C9.5 18.0335 10.2835 17.25 11.25 17.25V18V18.75C11.1119 18.75 11 18.8619 11 19H10.25ZM11.75 18V18.75H11.25V18V17.25H11.75V18ZM10.25 15H9.5V14H10.25H11V15H10.25ZM10.25 14V14.75H9.25V14V13.25H10.25V14ZM10.25 21H11V22H10.25H9.5V21H10.25ZM10.25 22V22.75H9.25V22V21.25H10.25V22Z" fill="currentColor" />
    <path d="M5.25 10V2H14.25L21.25 9V22H14.25" stroke="currentColor" stroke-width="2" stroke-linecap="square" />
    <path d="M14.25 2.5V9H20.75" stroke="currentColor" stroke-width="2" stroke-linecap="square" />
</svg>