<svg xmlns="http://www.w3.org/2000/svg" width="24" height="24" viewBox="0 0 24 24" fill="none">
    <path d="M16.5 6.25V6.5M17 6.5C17 6.77614 16.7761 7 16.5 7C16.2239 7 16 6.77614 16 6.5C16 6.22386 16.2239 6 16.5 6C16.7761 6 17 6.22386 17 6.5Z" stroke="currentColor" stroke-width="2" stroke-linecap="round" stroke-linejoin="round" />
    <path fill-rule="evenodd" clip-rule="evenodd" d="M21.4717 2.5275C21.4717 2.5275 15.1321 0.417509 10.9057 4.63749L6.23675 5.56002L8.77072 8.13236C8.21671 9.83375 8.20051 11.5301 8.33302 12.8329L2 15.1508V15.5L7.39107 16.597L8.5 22H8.84667L11.1506 15.6462C12.4554 15.7785 14.1543 15.7624 15.8583 15.2092L18.4342 17.7771L19.3585 13.0774C23.5849 8.85746 21.4717 2.5275 21.4717 2.5275Z" stroke="currentColor" stroke-width="2" stroke-linecap="round" />
</svg>