<svg xmlns="http://www.w3.org/2000/svg" width="24" height="24" viewBox="0 0 24 24" fill="none">
    <path d="M4 14L4 21" stroke="currentColor" stroke-width="2" stroke-linecap="square" />
    <path d="M4 4.42024L3.53554 3.83136L3.25 4.05657V4.42024H4ZM11.7576 3.83892L11.4131 4.50513V4.50513L11.7576 3.83892ZM4 14.8254H3.25V16.8297L4.56576 15.3178L4 14.8254ZM11.7576 13.9897L11.4131 14.6559L11.7576 13.9897ZM20 14.0232L20.3639 14.679L20.75 14.4648V14.0232H20ZM20 4.00813H20.75V2.84315L19.6895 3.32541L20 4.00813ZM7.97212 2.25965L7.22302 2.29629L7.29629 3.7945L8.0454 3.75786L8.00876 3.00876L7.97212 2.25965ZM19.0532 13.6443L18.3594 13.9292L18.9292 15.3167L19.623 15.0318L19.3381 14.3381L19.0532 13.6443ZM4 14.8254L4.56576 15.3178C5.34888 14.4179 7.89307 12.8358 11.4131 14.6559L11.7576 13.9897L12.1021 13.3235C7.8645 11.1324 4.59052 13.0044 3.43424 14.3331L4 14.8254ZM20 4.00813H19.25V14.0232H20H20.75V4.00813H20ZM4 4.42024H3.25V14.8254H4H4.75V4.42024H4ZM11.7576 3.83892L11.4131 4.50513C14.2853 5.99028 17.4194 6.00558 20.3105 4.69085L20 4.00813L19.6895 3.32541C17.1998 4.45762 14.5492 4.43809 12.1021 3.17271L11.7576 3.83892ZM8.00876 3.00876L8.0454 3.75786C9.07968 3.70728 10.2315 3.89417 11.4131 4.50513L11.7576 3.83892L12.1021 3.17271C10.6668 2.43055 9.24877 2.19721 7.97212 2.25965L8.00876 3.00876ZM19.3381 14.3381L19.623 15.0318C19.9007 14.9178 20.1494 14.798 20.3639 14.679L20 14.0232L19.6361 13.3674C19.4773 13.4555 19.2817 13.5504 19.0532 13.6443L19.3381 14.3381ZM4 4.42024L4.46446 5.00912C4.52603 4.96056 4.59405 4.91024 4.66838 4.85886L4.24191 4.24191L3.81545 3.62497C3.71664 3.69327 3.62317 3.76225 3.53554 3.83136L4 4.42024ZM11.7576 13.9897L11.4131 14.6559C12.5946 15.2669 13.77 15.5807 14.8722 15.6964L14.9505 14.9505L15.0288 14.2046C14.0988 14.107 13.1059 13.8426 12.1021 13.3235L11.7576 13.9897Z" fill="currentColor" />
    <path d="M3 3L21 21" stroke="currentColor" stroke-width="2" stroke-linecap="square" />
</svg>