<svg xmlns="http://www.w3.org/2000/svg" width="24" height="24" viewBox="0 0 24 24" fill="none">
    <path d="M8 11H8.75V10.7929L8.64374 10.6152L8 11ZM6.79054 8.97683L6.13936 9.34894L6.14302 9.35534L6.1468 9.36167L6.79054 8.97683ZM8 22H7.25V22.75H8V22ZM16 22V22.75H16.75V22H16ZM7 1.25H6.25V2.75H7V2V1.25ZM18 2H18.75V1.25H18V2ZM17.2095 8.97683L17.8532 9.36167L17.857 9.35534L17.8606 9.34894L17.2095 8.97683ZM15.3563 10.6152L14.9714 11.2589L16.2589 12.0286L16.6437 11.3848L16 11L15.3563 10.6152ZM8 11L8.64374 10.6152L7.43428 8.592L6.79054 8.97683L6.1468 9.36167L7.35626 11.3848L8 11ZM8 22H8.75V11H8H7.25V22H8ZM16 22V21.25H8V22V22.75H16V22ZM16 16H15.25V22H16H16.75V16H16ZM7 2V2.75H18V2V1.25H7V2ZM18 2H17.25V6H18H18.75V2H18ZM18 6H17.25C17.25 6.91364 17.0116 7.81147 16.5583 8.60473L17.2095 8.97683L17.8606 9.34894C18.4434 8.32903 18.75 7.17468 18.75 6H18ZM6.79054 8.97683L7.44172 8.60473C6.98843 7.81147 6.75 6.91364 6.75 6H6H5.25C5.25 7.17468 5.55655 8.32903 6.13936 9.34894L6.79054 8.97683ZM17.2095 8.97683L16.5657 8.592L15.3563 10.6152L16 11L16.6437 11.3848L17.8532 9.36167L17.2095 8.97683Z" fill="currentColor" />
    <path d="M2 2L22 22" stroke="currentColor" stroke-width="2" stroke-linecap="square" stroke-linejoin="round" />
    <path d="M11 6H18" stroke="currentColor" stroke-width="2" stroke-linecap="square" stroke-linejoin="round" />
    <path d="M12 12.5V15" stroke="currentColor" stroke-width="2" stroke-linecap="square" stroke-linejoin="round" />
</svg>