<svg xmlns="http://www.w3.org/2000/svg" width="24" height="24" viewBox="0 0 24 24" fill="none">
    <path d="M8 6.99446H12.0179M12.0179 6.99446H22V12.9972M12.0179 6.99446L9 3H2V21H10" stroke="currentColor" stroke-width="2" stroke-linecap="square" />
    <path d="M17 21C19.7614 21 22 18 22 18C22 18 19.7614 15 17 15C14.2386 15 12 18 12 18C12 18 14.2386 21 17 21Z" stroke="currentColor" stroke-width="2" />
    <path d="M17.125 18H17M17.25 18C17.25 18.1381 17.1381 18.25 17 18.25C16.8619 18.25 16.75 18.1381 16.75 18C16.75 17.8619 16.8619 17.75 17 17.75C17.1381 17.75 17.25 17.8619 17.25 18Z" stroke="currentColor" stroke-width="2" stroke-linecap="round" stroke-linejoin="round" />
</svg>