<svg xmlns="http://www.w3.org/2000/svg" width="24" height="24" viewBox="0 0 24 24" fill="none">
    <path d="M8 6.99446H12.0179M12.0179 6.99446H22V8.99723M12.0179 6.99446L9 3H2V21H15" stroke="currentColor" stroke-width="2" stroke-linecap="square" />
    <path d="M16.2461 14V14.75H17.7461V14H16.9961H16.2461ZM20.9091 16.0639L20.4853 15.4451L20.4853 15.4451L20.9091 16.0639ZM18.75 18.0014L18.7514 18.7514L20.2514 18.7486L20.25 17.9986L19.5 18L18.75 18.0014ZM19.625 21.5C20.0392 21.5 20.375 21.1642 20.375 20.75C20.375 20.3358 20.0392 20 19.625 20V20.75V21.5ZM19.5 20C19.0858 20 18.75 20.3358 18.75 20.75C18.75 21.1642 19.0858 21.5 19.5 21.5V20.75V20ZM16.9961 14H17.7461C17.7461 13.0338 18.5298 12.25 19.4973 12.25V11.5V10.75C17.702 10.75 16.2461 12.2048 16.2461 14H16.9961ZM19.4973 11.5V12.25C20.4647 12.25 21.2484 13.0338 21.2484 14H21.9984H22.7484C22.7484 12.2048 21.2925 10.75 19.4973 10.75V11.5ZM21.9984 14H21.2484C21.2484 14.5992 20.9477 15.1285 20.4853 15.4451L20.9091 16.0639L21.3328 16.6828C22.186 16.0986 22.7484 15.1151 22.7484 14H21.9984ZM20.9091 16.0639L20.4853 15.4451C20.1222 15.6937 19.7031 16.017 19.3704 16.4181C19.0349 16.8228 18.7488 17.3543 18.75 18.0014L19.5 18L20.25 17.9986C20.2497 17.8177 20.3265 17.6151 20.5251 17.3756C20.7266 17.1327 21.0127 16.9019 21.3328 16.6828L20.9091 16.0639ZM19.75 20.75H19C19 20.4739 19.2239 20.25 19.5 20.25V21V21.75C20.0523 21.75 20.5 21.3023 20.5 20.75H19.75ZM19.5 21V20.25C19.7761 20.25 20 20.4739 20 20.75H19.25H18.5C18.5 21.3023 18.9477 21.75 19.5 21.75V21ZM19.25 20.75H20C20 21.0261 19.7761 21.25 19.5 21.25V20.5V19.75C18.9477 19.75 18.5 20.1977 18.5 20.75H19.25ZM19.5 20.5V21.25C19.2239 21.25 19 21.0261 19 20.75H19.75H20.5C20.5 20.1977 20.0523 19.75 19.5 19.75V20.5ZM19.625 20.75V20H19.5V20.75V21.5H19.625V20.75Z" fill="currentColor" />
</svg>