<svg xmlns="http://www.w3.org/2000/svg" width="24" height="24" viewBox="0 0 24 24" fill="none">
    <rect x="3" y="3.5" width="18" height="12" stroke="currentColor" stroke-width="2" />
    <path d="M4.5 19.75V20M5 20C5 20.2761 4.77614 20.5 4.5 20.5C4.22386 20.5 4 20.2761 4 20C4 19.7239 4.22386 19.5 4.5 19.5C4.77614 19.5 5 19.7239 5 20Z" stroke="currentColor" stroke-width="2" stroke-linecap="round" stroke-linejoin="round" />
    <path d="M9.5 19.75V20M10 20C10 20.2761 9.77614 20.5 9.5 20.5C9.22386 20.5 9 20.2761 9 20C9 19.7239 9.22386 19.5 9.5 19.5C9.77614 19.5 10 19.7239 10 20Z" stroke="currentColor" stroke-width="2" stroke-linecap="round" stroke-linejoin="round" />
    <path d="M14.5 19.75V20M15 20C15 20.2761 14.7761 20.5 14.5 20.5C14.2239 20.5 14 20.2761 14 20C14 19.7239 14.2239 19.5 14.5 19.5C14.7761 19.5 15 19.7239 15 20Z" stroke="currentColor" stroke-width="2" stroke-linecap="round" stroke-linejoin="round" />
    <path d="M19.5 19.75V20M20 20C20 20.2761 19.7761 20.5 19.5 20.5C19.2239 20.5 19 20.2761 19 20C19 19.7239 19.2239 19.5 19.5 19.5C19.7761 19.5 20 19.7239 20 20Z" stroke="currentColor" stroke-width="2" stroke-linecap="round" stroke-linejoin="round" />
</svg>