<svg xmlns="http://www.w3.org/2000/svg" width="24" height="24" viewBox="0 0 24 24" fill="none">
    <path fill-rule="evenodd" clip-rule="evenodd" d="M3.01487 18.0594C3.66101 18.6865 4.44018 19 5.35238 19C5.99092 19 6.58385 18.8396 7.13118 18.5188C7.6785 18.1979 8.08899 17.7604 8.36265 17.2063L9.24228 15.5H14.7526L15.6146 17.2063C15.8883 17.7604 16.2988 18.1979 16.8461 18.5188C17.3934 18.8396 17.9864 19 18.6249 19C19.5523 19 20.3467 18.6901 21.008 18.0703C21.6694 17.4505 22 16.6958 22 15.8063C22 15.675 21.9886 15.5401 21.9658 15.4016C21.943 15.263 21.9164 15.1281 21.886 14.9969L20.4506 9.48727C19.8887 7.3308 19.6078 6.25256 18.7974 5.62628C17.9871 5 16.8729 5 14.6444 5L9.34242 5C7.11744 5 6.00495 5 5.19516 5.6248C4.38537 6.2496 4.10314 7.32569 3.5387 9.47789L2.09127 14.9969C2.06086 15.1281 2.03805 15.2594 2.02285 15.3906C2.00765 15.5219 2.00005 15.6531 2.00005 15.7844C2.03045 16.674 2.36873 17.4323 3.01487 18.0594Z" stroke="currentColor" stroke-width="2" />
    <path d="M8.495 8.50781V12.5078M10.5 10.5028L6.5 10.5028" stroke="currentColor" stroke-width="2" stroke-linecap="square" stroke-linejoin="round" />
    <path d="M16.75 9.125V9.25M17 9.25C17 9.38807 16.8881 9.5 16.75 9.5C16.6119 9.5 16.5 9.38807 16.5 9.25C16.5 9.11193 16.6119 9 16.75 9C16.8881 9 17 9.11193 17 9.25Z" stroke="currentColor" stroke-width="2" stroke-linecap="round" stroke-linejoin="round" />
    <path d="M14.25 11.625V11.75M14.5 11.75C14.5 11.8881 14.3881 12 14.25 12C14.1119 12 14 11.8881 14 11.75C14 11.6119 14.1119 11.5 14.25 11.5C14.3881 11.5 14.5 11.6119 14.5 11.75Z" stroke="currentColor" stroke-width="2" stroke-linecap="round" stroke-linejoin="round" />
</svg>