<svg xmlns="http://www.w3.org/2000/svg" width="24" height="24" viewBox="0 0 24 24" fill="none">
    <path d="M5 10.1V10.85H5.75V10.1H5ZM2 10.1V9.35H1.25V10.1H2ZM2 11.525H1.25V11.8878L1.53447 12.113L2 11.525ZM5 13.9H5.75V13.5372L5.46553 13.312L5 13.9ZM19 10.1H18.25V10.85H19V10.1ZM22 10.1H22.75V9.35H22V10.1ZM22 11.525L22.4655 12.113L22.75 11.8878V11.525H22ZM19 13.9L18.5345 13.312L18.25 13.5372V13.9H19ZM22 21.5V22.25H22.75V21.5H22ZM20.9259 19.8346L20.3691 20.337L20.3691 20.337L20.9259 19.8346ZM22 21.025H22.75V20.7367L22.5568 20.5226L22 21.025ZM5 9.15H5.75C5.75 5.92731 8.51151 3.25 12 3.25V2.5V1.75C7.75651 1.75 4.25 5.02731 4.25 9.15H5ZM12 2.5V3.25C15.4885 3.25 18.25 5.92731 18.25 9.15H19H19.75C19.75 5.02731 16.2435 1.75 12 1.75V2.5ZM5 9.15H4.25V10.1H5H5.75V9.15H5ZM5 10.1V9.35H2V10.1V10.85H5V10.1ZM2 10.1H1.25V11.525H2H2.75V10.1H2ZM2 11.525L1.53447 12.113L4.53447 14.488L5 13.9L5.46553 13.312L2.46553 10.937L2 11.525ZM19 9.15H18.25V10.1H19H19.75V9.15H19ZM19 10.1V10.85H22V10.1V9.35H19V10.1ZM22 10.1H21.25V11.525H22H22.75V10.1H22ZM22 11.525L21.5345 10.937L18.5345 13.312L19 13.9L19.4655 14.488L22.4655 12.113L22 11.525ZM19 13.9H18.25V14.8886H19H19.75V13.9H19ZM22 21.5V20.75H13V21.5V22.25H22V21.5ZM20.9259 19.8346L20.3691 20.337L21.4432 21.5274L22 21.025L22.5568 20.5226L21.4828 19.3322L20.9259 19.8346ZM22 21.025H21.25V21.5H22H22.75V21.025H22ZM13 21.5V20.75C8.95922 20.75 5.75 17.6474 5.75 13.9H5H4.25C4.25 18.5474 8.20422 22.25 13 22.25V21.5ZM19 14.8886H18.25C18.25 16.893 19.0051 18.8252 20.3691 20.337L20.9259 19.8346L21.4828 19.3322C20.3612 18.0891 19.75 16.5126 19.75 14.8886H19Z" fill="currentColor" />
    <path d="M15 9.625V9.75M15.25 9.75C15.25 9.88807 15.1381 10 15 10C14.8619 10 14.75 9.88807 14.75 9.75C14.75 9.61193 14.8619 9.5 15 9.5C15.1381 9.5 15.25 9.61193 15.25 9.75Z" stroke="currentColor" stroke-width="2" stroke-linecap="round" stroke-linejoin="round" />
    <path d="M9 9.625V9.75M9.25 9.75C9.25 9.88807 9.13807 10 9 10C8.86193 10 8.75 9.88807 8.75 9.75C8.75 9.61193 8.86193 9.5 9 9.5C9.13807 9.5 9.25 9.61193 9.25 9.75Z" stroke="currentColor" stroke-width="2" stroke-linecap="round" stroke-linejoin="round" />
</svg>