<svg xmlns="http://www.w3.org/2000/svg" width="24" height="24" viewBox="0 0 24 24" fill="none">
    <path d="M12 21C6.47715 21 2 16.5228 2 11C2 5.47715 6.47715 1 12 1C16.8379 1 20.8734 4.43552 21.8 9" stroke="currentColor" stroke-width="2" stroke-linecap="square" stroke-linejoin="round" />
    <path d="M12 21C9.79086 21 8 16.5228 8 11C8 5.47715 9.79086 1 12 1C13.9352 1 15.5494 4.43552 15.92 9" stroke="currentColor" stroke-width="2" stroke-linecap="square" stroke-linejoin="round" />
    <path d="M12 11H2" stroke="currentColor" stroke-width="2" stroke-linecap="square" stroke-linejoin="round" />
    <path d="M20.5 15.5V14C20.5 12.8954 19.6046 12 18.5 12C17.3954 12 16.5 12.8954 16.5 14V15.5M20.5 15.5H22V20H15V15.5H16.5M20.5 15.5H16.5" stroke="currentColor" stroke-width="2" stroke-linecap="square" />
</svg>