<svg xmlns="http://www.w3.org/2000/svg" width="24" height="24" viewBox="0 0 24 24" fill="none">
    <path d="M8.5 18.5V19M9.5 19C9.5 19.5523 9.05228 20 8.5 20C7.94772 20 7.5 19.5523 7.5 19C7.5 18.4477 7.94772 18 8.5 18C9.05228 18 9.5 18.4477 9.5 19Z" stroke="currentColor" stroke-width="2" stroke-linecap="round" stroke-linejoin="round" />
    <path d="M15.5 18.5V19M16.5 19C16.5 19.5523 16.0523 20 15.5 20C14.9477 20 14.5 19.5523 14.5 19C14.5 18.4477 14.9477 18 15.5 18C16.0523 18 16.5 18.4477 16.5 19Z" stroke="currentColor" stroke-width="2" stroke-linecap="round" stroke-linejoin="round" />
    <path d="M8.5 2.5V3M9.5 3C9.5 3.55228 9.05228 4 8.5 4C7.94772 4 7.5 3.55228 7.5 3C7.5 2.44772 7.94772 2 8.5 2C9.05228 2 9.5 2.44772 9.5 3Z" stroke="currentColor" stroke-width="2" stroke-linecap="round" stroke-linejoin="round" />
    <path d="M8.5 10.5V11M9.5 11C9.5 11.5523 9.05228 12 8.5 12C7.94772 12 7.5 11.5523 7.5 11C7.5 10.4477 7.94772 10 8.5 10C9.05228 10 9.5 10.4477 9.5 11Z" stroke="currentColor" stroke-width="2" stroke-linecap="round" stroke-linejoin="round" />
    <path d="M15.5 2.5V3M16.5 3C16.5 3.55228 16.0523 4 15.5 4C14.9477 4 14.5 3.55228 14.5 3C14.5 2.44772 14.9477 2 15.5 2C16.0523 2 16.5 2.44772 16.5 3Z" stroke="currentColor" stroke-width="2" stroke-linecap="round" stroke-linejoin="round" />
    <path d="M15.5 10.5V11M16.5 11C16.5 11.5523 16.0523 12 15.5 12C14.9477 12 14.5 11.5523 14.5 11C14.5 10.4477 14.9477 10 15.5 10C16.0523 10 16.5 10.4477 16.5 11Z" stroke="currentColor" stroke-width="2" stroke-linecap="round" stroke-linejoin="round" />
</svg>