<svg xmlns="http://www.w3.org/2000/svg" width="24" height="25" viewBox="0 0 24 25" fill="none">
    <path d="M11.9956 12.5946L12.5259 13.125L11.9956 12.5946ZM10.546 12.5946L10.0156 13.125L10.546 12.5946ZM10.546 11.1452L11.0763 11.6755L10.546 11.1452ZM11.9956 11.1452L11.4653 11.6755L11.9956 11.1452ZM10.8915 11.0302C10.5987 11.3231 10.5987 11.798 10.8915 12.0909C11.1844 12.3838 11.6593 12.3838 11.9522 12.0909L11.4219 11.5605L10.8915 11.0302ZM18.4522 5.59088C18.7451 5.29798 18.7451 4.82311 18.4522 4.53022C18.1593 4.23732 17.6844 4.23732 17.3915 4.53022L17.9219 5.06055L18.4522 5.59088ZM7.45218 14.2381L6.92183 13.7078L5.86121 14.7685L6.39157 15.2988L6.92188 14.7684L7.45218 14.2381ZM7.84119 16.7483L8.37154 17.2786L9.43215 16.2179L8.9018 15.6876L8.37149 16.2179L7.84119 16.7483ZM11.9956 12.5946L11.4653 12.0643C11.3579 12.1717 11.1837 12.1717 11.0763 12.0643L10.546 12.5946L10.0156 13.125C10.7088 13.8181 11.8327 13.8181 12.5259 13.125L11.9956 12.5946ZM10.546 12.5946L11.0763 12.0643C10.9689 11.9569 10.9689 11.7829 11.0763 11.6755L10.546 11.1452L10.0156 10.6148C9.32242 11.308 9.32242 12.4318 10.0156 13.125L10.546 12.5946ZM10.546 11.1452L11.0763 11.6755C11.1837 11.5681 11.3579 11.5681 11.4653 11.6755L11.9956 11.1452L12.5259 10.6148C11.8327 9.92167 10.7088 9.92167 10.0156 10.6148L10.546 11.1452ZM11.9956 11.1452L11.4653 11.6755C11.5726 11.7829 11.5726 11.9569 11.4653 12.0643L11.9956 12.5946L12.5259 13.125C13.2191 12.4318 13.2191 11.308 12.5259 10.6148L11.9956 11.1452ZM11.4219 11.5605L11.9522 12.0909L18.4522 5.59088L17.9219 5.06055L17.3915 4.53022L10.8915 11.0302L11.4219 11.5605ZM6.92188 14.7684L6.39157 15.2988L7.84119 16.7483L8.37149 16.2179L8.9018 15.6876L7.45218 14.2381L6.92188 14.7684Z" fill="currentColor" />
    <path d="M16.9104 13.3197C17.441 12.4007 17.6352 11.1454 14.736 8.24643C11.8368 5.34744 10.5814 5.54164 9.66234 6.07219C9.14216 6.37249 8.6324 6.97345 8.25035 7.94102C7.93116 8.74942 7.26963 9.38521 6.41967 9.56705C5.36942 9.79173 4.05945 10.2251 3.13906 11.1454C1.32704 12.9573 1.32704 15.1315 4.58868 18.3929C7.85032 21.6543 10.0247 21.6543 11.8368 19.8424C12.7572 18.9221 13.1906 17.6122 13.4153 16.5621C13.5971 15.7122 14.233 15.0507 15.0414 14.7315C16.0091 14.3495 16.6101 13.8398 16.9104 13.3197Z" stroke="currentColor" stroke-width="2" stroke-linecap="round" stroke-linejoin="round" />
    <path d="M17.0801 4.06055L19.0801 6.06055L22.0801 3.06055L20.0801 1.06055L17.0801 4.06055Z" stroke="currentColor" stroke-width="2" />
</svg>