<svg xmlns="http://www.w3.org/2000/svg" width="24" height="24" viewBox="0 0 24 24" fill="none">
    <path d="M18.0019 6.5L15.8451 4.34315C14.3448 2.84285 12.31 2 10.1882 2H8.50195L10.5019 3.99999C11.8826 5.38071 11.8826 7.61929 10.5019 9L13.0019 11.5L14.5019 10L16.502 12L15.502 13L17.5019 15H18.5019L22.0019 11.5V10.5L20.002 8.5L19.002 9.5L17.0019 7.5L18.0019 6.5Z" stroke="currentColor" stroke-width="2" stroke-linecap="round" />
    <path d="M10.502 9L2.51972 16.9822C2.1882 17.3138 2.00195 17.7634 2.00195 18.2322C2.00195 19.2085 2.79341 20 3.76972 20C4.23856 20 4.6882 19.8138 5.01972 19.4822L13.502 11" stroke="currentColor" stroke-width="2" stroke-linecap="round" stroke-linejoin="round" />
</svg>