<svg xmlns="http://www.w3.org/2000/svg" width="24" height="24" viewBox="0 0 24 24" fill="none">
    <path d="M18.502 10.5V4.75C18.502 3.7835 19.2855 3 20.252 3C21.2185 3 22.002 3.7835 22.002 4.75V13.8C22.002 17.7765 18.7784 21 14.802 21H12.0608M12.002 21C9.50297 21 7.16934 19.7511 5.78315 17.6718L2.32425 12.4834C2.11409 12.1682 2.00195 11.7978 2.00195 11.419C2.00195 10.3592 2.86111 9.5 3.92093 9.5H4.05684C4.65671 9.5 5.22663 9.76213 5.61703 10.2176L8.00195 13V2.75C8.00195 1.7835 8.78545 1 9.75195 1C10.7185 1 11.502 1.7835 11.502 2.75V9M18.502 9.5V8.75C18.502 7.7835 17.7185 7 16.752 7C15.7855 7 15.002 7.7835 15.002 8.75V9.5M15.002 10.5V7.75C15.002 6.7835 14.2185 6 13.252 6C12.2855 6 11.502 6.7835 11.502 7.75V10" stroke="currentColor" stroke-width="2" stroke-linecap="square" />
</svg>