<svg xmlns="http://www.w3.org/2000/svg" width="24" height="24" viewBox="0 0 24 24" fill="none">
    <path d="M7.98737 19.447C7.98737 17.5176 6.42337 15.9536 4.49407 15.9536C3.5166 15.9536 2.6329 16.355 1.99886 17.0021L6.93887 21.9422C7.58591 21.3081 7.98737 20.4244 7.98737 19.447Z" stroke="currentColor" stroke-width="2" stroke-linecap="square" />
    <path d="M6.98909 16.9538L10.9814 12.9614" stroke="currentColor" stroke-width="2" stroke-linecap="square" />
    <path d="M21.9989 5.97929L17.9989 1.98096C16.0822 5.05834 14.1694 5.08189 12.8066 6.44613C11.9514 7.32891 10.2101 9.72148 9.99886 11.4793L12.4982 13.9793C14.256 13.7683 16.6065 11.9591 17.4894 11.104C18.8538 9.7413 18.9213 7.89563 21.9989 5.97929Z" stroke="currentColor" stroke-width="2" stroke-linecap="square" />
    <path d="M14.6239 9.48096H14.4989M14.7489 9.48096C14.7489 9.61903 14.6369 9.73096 14.4989 9.73096C14.3608 9.73096 14.2489 9.61903 14.2489 9.48096C14.2489 9.34289 14.3608 9.23096 14.4989 9.23096C14.6369 9.23096 14.7489 9.34289 14.7489 9.48096Z" stroke="currentColor" stroke-width="2" stroke-linecap="round" />
</svg>