<svg xmlns="http://www.w3.org/2000/svg" width="24" height="24" viewBox="0 0 24 24" fill="none">
    <path d="M10.6931 14.9997H12.4033C13.0284 14.9997 13.5165 14.5843 13.7135 14.0071C13.7664 13.8522 13.7942 13.571 13.7942 13.3973V11.4941M16.894 10.8094V12.3753C16.894 12.549 16.8643 12.8433 16.8114 12.9982C16.6143 13.5754 16.1216 14.0071 15.4966 14.0071H13.7135M16.8114 12.9982H18.5247C19.5132 12.9122 19.9963 12.2232 19.9963 11.4159V4.9761C19.9963 3.33463 18.6926 2.11652 17.1253 2.00391H8.09921L4.50316 7.55223C3.16171 9.82506 4.61069 11.3015 7.44966 13.8643M10.6931 14.9997V12.0084M10.6931 14.9997V20.2542C10.6931 20.5266 10.6602 20.7726 10.5927 20.9976C10.2971 21.9824 8.99502 22.31 8.19243 21.6676C7.85184 21.3949 7.60985 21.0422 7.60985 20.6569V9.4927" stroke="currentColor" stroke-width="2" />
</svg>