<svg xmlns="http://www.w3.org/2000/svg" width="24" height="24" viewBox="0 0 24 24" fill="none">
    <path d="M12 2.99899C7.02944 2.99899 3 7.02843 3 11.999C3 13.4358 3.41512 15.499 3.91512 16.999M20.0849 16.999C20.5849 15.499 21 13.4358 21 11.999C21 10.96 20.8239 9.96207 20.5 9.0335" stroke="currentColor" stroke-width="2" stroke-linecap="square" />
    <path d="M17.0818 13.8271L18.0399 14.0999C19.5391 14.5985 20.3511 16.2208 19.8537 17.7233L19.419 19.0365C18.9215 20.5391 17.3029 21.353 15.8037 20.8544L14.7496 20.5005L17.0818 13.8271Z" stroke="currentColor" stroke-width="2" stroke-linecap="square" />
    <path d="M6.91819 13.8271L5.96012 14.0999C4.46093 14.5985 3.64886 16.2208 4.14631 17.7233L4.58104 19.0365C5.07849 20.5391 6.6971 21.353 8.1963 20.8544L9.25041 20.5005L6.91819 13.8271Z" stroke="currentColor" stroke-width="2" stroke-linecap="square" />
    <path d="M12.5 6.99899L14.5 8.99899L20.5 2.99899" stroke="currentColor" stroke-width="2" stroke-linecap="square" />
</svg>