<svg xmlns="http://www.w3.org/2000/svg" width="24" height="24" viewBox="0 0 24 24" fill="none">
    <path d="M18.502 9.5L19.4919 10.49C20.2008 11.1988 20.3503 12.295 19.7356 13.0868C18.9897 14.0474 17.5652 14.0632 16.7052 13.2032L16.502 13" stroke="currentColor" stroke-width="2" stroke-linecap="round" stroke-linejoin="round" />
    <path d="M19.6712 13.1692C21.012 11.4629 22.002 9.56856 22.002 7.69444C22.002 4.82563 19.8967 2.5 17.002 2.5C15.502 2.5 14.002 3 12.002 5C10.002 3 8.50195 2.5 7.00195 2.5C4.10722 2.5 2.00195 4.82563 2.00195 7.69444C2.00195 12.7666 9.25338 17.9872 11.0855 19.2252C11.3561 19.4081 11.6753 19.5 12.002 19.5C12.3286 19.5 12.6478 19.4081 12.9185 19.2252C13.0237 19.1541 13.1468 19.0699 13.2855 18.9732C14.2815 18.2789 14.3605 16.8586 13.502 16L13.6827 16.1808C14.4985 16.9965 15.7213 17.1455 16.5853 16.3811C17.512 15.5612 17.5711 14.0691 16.6962 13.1942L16.502 13" stroke="currentColor" stroke-width="2" stroke-linecap="round" stroke-linejoin="round" />
    <path d="M12.002 5L9.51972 7.48223C9.1882 7.81375 9.00195 8.26339 9.00195 8.73223C9.00195 9.70854 9.79341 10.5 10.7697 10.5C11.2386 10.5 11.6882 10.3138 12.0197 9.98223L15.502 6.5L19.002 10" stroke="currentColor" stroke-width="2" stroke-linecap="round" />
</svg>