<svg xmlns="http://www.w3.org/2000/svg" width="24" height="24" viewBox="0 0 24 24" fill="none">
    <path d="M9.99932 7.96307L8.00458 5.7284C5.67605 8.30469 4.07823 11.1884 4.00246 13.9899C3.89431 17.9883 7.36966 22.0001 12.0207 22.0001C16.3235 22.0443 20.0773 18.3136 20.0029 13.9336C19.9262 10.1309 16.7472 5.85688 12 1.99951L9.99932 7.96307Z" stroke="currentColor" stroke-width="2" stroke-linecap="square" />
    <path d="M14.5 12.4995L9.5 17.4995" stroke="currentColor" stroke-width="2" stroke-linecap="square" />
    <path d="M9.875 12.7495H9.75M10 12.7495C10 12.8876 9.88807 12.9995 9.75 12.9995C9.61193 12.9995 9.5 12.8876 9.5 12.7495C9.5 12.6114 9.61193 12.4995 9.75 12.4995C9.88807 12.4995 10 12.6114 10 12.7495Z" stroke="currentColor" stroke-width="2" stroke-linecap="round" />
    <path d="M14.375 17.2495H14.25M14.5 17.2495C14.5 17.3876 14.3881 17.4995 14.25 17.4995C14.1119 17.4995 14 17.3876 14 17.2495C14 17.1114 14.1119 16.9995 14.25 16.9995C14.3881 16.9995 14.5 17.1114 14.5 17.2495Z" stroke="currentColor" stroke-width="2" stroke-linecap="round" />
</svg>