<svg xmlns="http://www.w3.org/2000/svg" width="24" height="24" viewBox="0 0 24 24" fill="none">
    <path d="M2.5 12.4998L7 7.99982L9 9.99982" stroke="currentColor" stroke-width="2" stroke-linecap="square" />
    <path d="M18 8V2H2V18H8" stroke="currentColor" stroke-width="2" stroke-linecap="square" />
    <path d="M12 22L22 22V12H12V22Z" stroke="currentColor" stroke-width="2" stroke-linecap="square" />
    <path d="M16.5 17H17.5M16 15.5V18.5L18.5 17L16 15.5Z" stroke="currentColor" stroke-width="2" stroke-linecap="square" />
    <path d="M13.5 7C13.7761 7 14 6.77614 14 6.5C14 6.22386 13.7761 6 13.5 6M13.5 7C13.2239 7 13 6.77614 13 6.5C13 6.22386 13.2239 6 13.5 6M13.5 7V6" stroke="currentColor" stroke-width="2" stroke-linecap="square" />
</svg>