<svg xmlns="http://www.w3.org/2000/svg" width="24" height="24" viewBox="0 0 24 24" fill="none">
    <path d="M9.93845 10H6.06155C5.14382 10 4.34385 9.37541 4.12127 8.48507L3.05317 4.21268C3.01786 4.07143 3 3.92638 3 3.78078C3 2.79728 3.79728 2 4.78078 2H11.2192C12.2027 2 13 2.79728 13 3.78078C13 3.92638 12.9821 4.07143 12.9468 4.21268L11.8787 8.48507C11.6561 9.37541 10.8562 10 9.93845 10Z" stroke="currentColor" stroke-width="2" stroke-linecap="square" />
    <path d="M7 6H9" stroke="currentColor" stroke-width="2" stroke-linecap="square" />
    <path d="M6 10V20L8 22L10 20V19L8.5 17.5L10 16V10" stroke="currentColor" stroke-width="2" stroke-linecap="square" />
    <path d="M13 5H16C17.1046 5 18 5.89543 18 7V10" stroke="currentColor" stroke-width="2" stroke-linecap="square" />
    <path d="M21 10H15V22H21V10Z" stroke="currentColor" stroke-width="2" stroke-linecap="square" />
    <path d="M15 16H21" stroke="currentColor" stroke-width="2" stroke-linecap="square" />
</svg>