<svg xmlns="http://www.w3.org/2000/svg" width="24" height="24" viewBox="0 0 24 24" fill="none">
    <path d="M17 14V22M21 18H13" stroke="currentColor" stroke-width="2" stroke-linecap="square" stroke-linejoin="round" />
    <path d="M12 2L3 7L12 12L21 7L12 2Z" stroke="currentColor" stroke-width="2" stroke-linecap="round" stroke-linejoin="round" />
    <path d="M9.63577 16.5445L10.2914 16.9087L11.0198 15.5975L10.3642 15.2333L10 15.8889L9.63577 16.5445ZM3 12L2.63577 12.6556L9.63577 16.5445L10 15.8889L10.3642 15.2333L3.36423 11.3444L3 12Z" fill="currentColor" />
    <path d="M12 22L11.6358 22.6556C11.8623 22.7815 12.1377 22.7815 12.3642 22.6556L12 22ZM13.3642 22.1001L14.0198 21.7358L13.2914 20.4246L12.6358 20.7888L13 21.4444L13.3642 22.1001ZM12 22L12.3642 22.6556L13.3642 22.1001L13 21.4444L12.6358 20.7888L11.6358 21.3444L12 22ZM3 17L2.63577 17.6556L11.6358 22.6556L12 22L12.3642 21.3444L3.36423 16.3444L3 17Z" fill="currentColor" />
</svg>