<svg xmlns="http://www.w3.org/2000/svg" width="24" height="24" viewBox="0 0 24 24" fill="none">
    <path d="M5.14286 14C4.41735 12.8082 4 11.4118 4 9.91886C4 8.33202 4.47153 6.8542 5.28345 5.61519M8.03786 3.03786C9.20596 2.37741 10.5585 2 12 2C16.4183 2 20 5.5454 20 9.91886C20 11.3746 19.6032 12.7386 18.9107 13.9107" stroke="currentColor" stroke-width="2" stroke-linecap="square" />
    <path d="M15.5 16L7 16L8 19L16 19L16.625 17.125" stroke="currentColor" stroke-width="2" stroke-linecap="square" />
    <path d="M14 22L15 19H9L10 22H14Z" stroke="currentColor" stroke-width="2" stroke-linecap="square" />
    <path d="M12 15.5V12.5" stroke="currentColor" stroke-width="2" stroke-linecap="square" />
    <path d="M2 2L22 22" stroke="currentColor" stroke-width="2" stroke-linecap="square" />
</svg>