<svg xmlns="http://www.w3.org/2000/svg" width="24" height="24" viewBox="0 0 24 24" fill="none">
    <path d="M15.4804 16.2488C15.4753 15.5265 15.8752 14.8748 16.4339 14.417C18.0004 13.1332 19 11.1833 19 9C19 5.13401 15.866 2 12 2C8.13401 2 5 5.13401 5 9C5 11.1868 6.00274 13.1394 7.57349 14.423C8.12886 14.8769 8.52793 15.5221 8.52793 16.2393V19H15.5L15.4804 16.2488Z" stroke="currentColor" stroke-width="2" />
    <path d="M10 19V20C10 21.1046 10.8954 22 12 22C13.1046 22 14 21.1046 14 20V19" stroke="currentColor" stroke-width="2" stroke-linejoin="round" />
    <path d="M8.5 16H15.5" stroke="currentColor" stroke-width="2" stroke-linejoin="round" />
</svg>