<svg xmlns="http://www.w3.org/2000/svg" width="24" height="24" viewBox="0 0 24 24" fill="none">
    <path d="M21 3V21H3V3H21Z" stroke="currentColor" stroke-width="2" stroke-linecap="square" />
    <path d="M7 10V17" stroke="currentColor" stroke-width="2" stroke-linecap="square" />
    <path d="M11 13V17M11 13C11 11.3431 12.3431 10 14 10C15.6569 10 17 11.3431 17 13V17M11 13V10" stroke="currentColor" stroke-width="2" stroke-linecap="square" />
    <path d="M7.125 6.75H7M7.25 6.75C7.25 6.88807 7.13807 7 7 7C6.86193 7 6.75 6.88807 6.75 6.75C6.75 6.61193 6.86193 6.5 7 6.5C7.13807 6.5 7.25 6.61193 7.25 6.75Z" stroke="currentColor" stroke-width="2" stroke-linecap="round" />
</svg>