<svg xmlns="http://www.w3.org/2000/svg" width="24" height="24" viewBox="0 0 24 24" fill="none">
    <path d="M2 2L22 22" stroke="currentColor" stroke-width="2" stroke-linecap="square" />
    <path d="M9 17.75H9.75V16.25H9V17V17.75ZM7 17C7 17.75 7 17.75 7.00001 17.75C7.00001 17.75 7.00002 17.75 7.00003 17.75C7.00004 17.75 7.00005 17.75 7.00007 17.75C7.00008 17.75 7.0001 17.75 7.00012 17.75C7.00014 17.75 7.00016 17.75 7.00018 17.75C7.00021 17.75 7.00023 17.75 7.00026 17.75C7.00029 17.75 7.00032 17.75 7.00036 17.75C7.00039 17.75 7.00043 17.75 7.00046 17.75C7.0005 17.75 7.00054 17.75 7.00059 17.75C7.00063 17.75 7.00068 17.75 7.00073 17.75C7.00077 17.75 7.00082 17.75 7.00088 17.75C7.00093 17.75 7.00099 17.75 7.00104 17.75C7.0011 17.75 7.00116 17.75 7.00123 17.75C7.00129 17.75 7.00135 17.75 7.00142 17.75C7.00149 17.75 7.00156 17.75 7.00163 17.75C7.00171 17.75 7.00178 17.75 7.00186 17.75C7.00194 17.75 7.00202 17.75 7.0021 17.75C7.00218 17.75 7.00226 17.75 7.00235 17.75C7.00244 17.75 7.00253 17.75 7.00262 17.75C7.00271 17.75 7.00281 17.75 7.0029 17.75C7.003 17.75 7.0031 17.75 7.0032 17.75C7.0033 17.75 7.00341 17.75 7.00352 17.75C7.00362 17.75 7.00373 17.75 7.00384 17.75C7.00395 17.75 7.00407 17.75 7.00418 17.75C7.0043 17.75 7.00442 17.75 7.00454 17.75C7.00466 17.75 7.00479 17.75 7.00491 17.75C7.00504 17.75 7.00517 17.75 7.0053 17.75C7.00543 17.75 7.00556 17.75 7.0057 17.75C7.00583 17.75 7.00597 17.75 7.00611 17.75C7.00625 17.75 7.0064 17.75 7.00654 17.75C7.00669 17.75 7.00684 17.75 7.00699 17.75C7.00714 17.75 7.00729 17.75 7.00744 17.75C7.0076 17.75 7.00776 17.75 7.00792 17.75C7.00808 17.75 7.00824 17.75 7.00841 17.75C7.00857 17.75 7.00874 17.75 7.00891 17.75C7.00908 17.75 7.00925 17.75 7.00943 17.75C7.0096 17.75 7.00978 17.75 7.00996 17.75C7.01014 17.75 7.01032 17.75 7.0105 17.75C7.01069 17.75 7.01088 17.75 7.01107 17.75C7.01126 17.75 7.01145 17.75 7.01164 17.75C7.01184 17.75 7.01203 17.75 7.01223 17.75C7.01243 17.75 7.01263 17.75 7.01284 17.75C7.01304 17.75 7.01325 17.75 7.01346 17.75C7.01367 17.75 7.01388 17.75 7.01409 17.75C7.01431 17.75 7.01452 17.75 7.01474 17.75C7.01496 17.75 7.01518 17.75 7.01541 17.75C7.01563 17.75 7.01586 17.75 7.01608 17.75C7.01631 17.75 7.01654 17.75 7.01678 17.75C7.01701 17.75 7.01725 17.75 7.01749 17.75C7.01772 17.75 7.01797 17.75 7.01821 17.75C7.01845 17.75 7.0187 17.75 7.01895 17.75C7.01919 17.75 7.01945 17.75 7.0197 17.75C7.01995 17.75 7.02021 17.75 7.02047 17.75C7.02072 17.75 7.02098 17.75 7.02125 17.75C7.02151 17.75 7.02178 17.75 7.02204 17.75C7.02231 17.75 7.02258 17.75 7.02285 17.75C7.02313 17.75 7.0234 17.75 7.02368 17.75C7.02396 17.75 7.02424 17.75 7.02452 17.75C7.0248 17.75 7.02509 17.75 7.02538 17.75C7.02566 17.75 7.02595 17.75 7.02625 17.75C7.02654 17.75 7.02683 17.75 7.02713 17.75C7.02743 17.75 7.02773 17.75 7.02803 17.75C7.02833 17.75 7.02864 17.75 7.02895 17.75C7.02925 17.75 7.02956 17.75 7.02988 17.75C7.03019 17.75 7.0305 17.75 7.03082 17.75C7.03114 17.75 7.03146 17.75 7.03178 17.75C7.0321 17.75 7.03243 17.75 7.03275 17.75C7.03308 17.75 7.03341 17.75 7.03374 17.75C7.03407 17.75 7.03441 17.75 7.03474 17.75C7.03508 17.75 7.03542 17.75 7.03576 17.75C7.0361 17.75 7.03645 17.75 7.0368 17.75C7.03714 17.75 7.03749 17.75 7.03784 17.75C7.03819 17.75 7.03855 17.75 7.03891 17.75C7.03926 17.75 7.03962 17.75 7.03998 17.75C7.04034 17.75 7.04071 17.75 7.04107 17.75C7.04144 17.75 7.04181 17.75 7.04218 17.75C7.04255 17.75 7.04293 17.75 7.0433 17.75C7.04368 17.75 7.04406 17.75 7.04444 17.75C7.04482 17.75 7.04521 17.75 7.04559 17.75C7.04598 17.75 7.04637 17.75 7.04676 17.75C7.04715 17.75 7.04754 17.75 7.04794 17.75C7.04834 17.75 7.04873 17.75 7.04913 17.75C7.04954 17.75 7.04994 17.75 7.05035 17.75C7.05075 17.75 7.05116 17.75 7.05157 17.75C7.05198 17.75 7.0524 17.75 7.05281 17.75C7.05323 17.75 7.05365 17.75 7.05407 17.75C7.05449 17.75 7.05491 17.75 7.05534 17.75C7.05576 17.75 7.05619 17.75 7.05662 17.75C7.05705 17.75 7.05749 17.75 7.05792 17.75C7.05836 17.75 7.0588 17.75 7.05924 17.75C7.05968 17.75 7.06012 17.75 7.06057 17.75C7.06101 17.75 7.06146 17.75 7.06191 17.75C7.06236 17.75 7.06282 17.75 7.06327 17.75C7.06373 17.75 7.06419 17.75 7.06465 17.75C7.06511 17.75 7.06557 17.75 7.06604 17.75C7.0665 17.75 7.06697 17.75 7.06744 17.75C7.06791 17.75 7.06839 17.75 7.06886 17.75C7.06934 17.75 7.06981 17.75 7.0703 17.75C7.07078 17.75 7.07126 17.75 7.07174 17.75C7.07223 17.75 7.07272 17.75 7.07321 17.75C7.0737 17.75 7.07419 17.75 7.07469 17.75C7.07518 17.75 7.07568 17.75 7.07618 17.75C7.07668 17.75 7.07719 17.75 7.07769 17.75C7.0782 17.75 7.0787 17.75 7.07922 17.75C7.07973 17.75 7.08024 17.75 7.08075 17.75C7.08127 17.75 7.08179 17.75 7.08231 17.75C7.08283 17.75 7.08335 17.75 7.08388 17.75C7.0844 17.75 7.08493 17.75 7.08546 17.75C7.08599 17.75 7.08652 17.75 7.08706 17.75C7.08759 17.75 7.08813 17.75 7.08867 17.75C7.08921 17.75 7.08976 17.75 7.0903 17.75C7.09085 17.75 7.0914 17.75 7.09195 17.75C7.0925 17.75 7.09305 17.75 7.0936 17.75C7.09416 17.75 7.09472 17.75 7.09528 17.75C7.09584 17.75 7.0964 17.75 7.09697 17.75C7.09753 17.75 7.0981 17.75 7.09867 17.75C7.09924 17.75 7.09981 17.75 7.10039 17.75C7.10097 17.75 7.10154 17.75 7.10212 17.75C7.1027 17.75 7.10329 17.75 7.10387 17.75C7.10446 17.75 7.10505 17.75 7.10564 17.75C7.10623 17.75 7.10682 17.75 7.10742 17.75C7.10801 17.75 7.10861 17.75 7.10921 17.75C7.10981 17.75 7.11041 17.75 7.11102 17.75C7.11162 17.75 7.11223 17.75 7.11284 17.75C7.11345 17.75 7.11407 17.75 7.11468 17.75C7.1153 17.75 7.11591 17.75 7.11654 17.75C7.11716 17.75 7.11778 17.75 7.1184 17.75C7.11903 17.75 7.11966 17.75 7.12029 17.75C7.12092 17.75 7.12155 17.75 7.12219 17.75C7.12282 17.75 7.12346 17.75 7.1241 17.75C7.12474 17.75 7.12539 17.75 7.12603 17.75C7.12668 17.75 7.12733 17.75 7.12798 17.75C7.12863 17.75 7.12928 17.75 7.12994 17.75C7.13059 17.75 7.13125 17.75 7.13191 17.75C7.13257 17.75 7.13323 17.75 7.1339 17.75C7.13457 17.75 7.13523 17.75 7.13591 17.75C7.13658 17.75 7.13725 17.75 7.13793 17.75C7.1386 17.75 7.13928 17.75 7.13996 17.75C7.14064 17.75 7.14132 17.75 7.14201 17.75C7.1427 17.75 7.14339 17.75 7.14408 17.75C7.14477 17.75 7.14546 17.75 7.14616 17.75C7.14685 17.75 7.14755 17.75 7.14825 17.75C7.14895 17.75 7.14966 17.75 7.15036 17.75C7.15107 17.75 7.15178 17.75 7.15249 17.75C7.1532 17.75 7.15391 17.75 7.15463 17.75C7.15535 17.75 7.15606 17.75 7.15679 17.75C7.15751 17.75 7.15823 17.75 7.15896 17.75C7.15968 17.75 7.16041 17.75 7.16114 17.75C7.16188 17.75 7.16261 17.75 7.16335 17.75C7.16408 17.75 7.16482 17.75 7.16556 17.75C7.1663 17.75 7.16705 17.75 7.16779 17.75C7.16854 17.75 7.16929 17.75 7.17004 17.75C7.17079 17.75 7.17155 17.75 7.1723 17.75C7.17306 17.75 7.17382 17.75 7.17458 17.75C7.17534 17.75 7.17611 17.75 7.17687 17.75C7.17764 17.75 7.17841 17.75 7.17918 17.75C7.17995 17.75 7.18073 17.75 7.1815 17.75C7.18228 17.75 7.18306 17.75 7.18384 17.75C7.18462 17.75 7.18541 17.75 7.1862 17.75C7.18698 17.75 7.18777 17.75 7.18856 17.75C7.18936 17.75 7.19015 17.75 7.19095 17.75C7.19175 17.75 7.19255 17.75 7.19335 17.75C7.19415 17.75 7.19495 17.75 7.19576 17.75C7.19657 17.75 7.19738 17.75 7.19819 17.75C7.199 17.75 7.19982 17.75 7.20064 17.75C7.20145 17.75 7.20227 17.75 7.2031 17.75C7.20392 17.75 7.20474 17.75 7.20557 17.75C7.2064 17.75 7.20723 17.75 7.20806 17.75C7.20889 17.75 7.20973 17.75 7.21057 17.75C7.21141 17.75 7.21225 17.75 7.21309 17.75C7.21393 17.75 7.21478 17.75 7.21562 17.75C7.21647 17.75 7.21732 17.75 7.21818 17.75C7.21903 17.75 7.21988 17.75 7.22074 17.75C7.2216 17.75 7.22246 17.75 7.22332 17.75C7.22419 17.75 7.22505 17.75 7.22592 17.75C7.22679 17.75 7.22766 17.75 7.22853 17.75C7.22941 17.75 7.23028 17.75 7.23116 17.75C7.23204 17.75 7.23292 17.75 7.23381 17.75C7.23469 17.75 7.23558 17.75 7.23646 17.75C7.23735 17.75 7.23824 17.75 7.23914 17.75C7.24003 17.75 7.24093 17.75 7.24183 17.75C7.24273 17.75 7.24363 17.75 7.24453 17.75C7.24543 17.75 7.24634 17.75 7.24725 17.75C7.24816 17.75 7.24907 17.75 7.24999 17.75C7.2509 17.75 7.25182 17.75 7.25274 17.75C7.25365 17.75 7.25458 17.75 7.2555 17.75C7.25643 17.75 7.25735 17.75 7.25828 17.75C7.25921 17.75 7.26014 17.75 7.26108 17.75C7.26201 17.75 7.26295 17.75 7.26389 17.75C7.26483 17.75 7.26577 17.75 7.26672 17.75C7.26766 17.75 7.26861 17.75 7.26956 17.75C7.27051 17.75 7.27146 17.75 7.27242 17.75C7.27337 17.75 7.27433 17.75 7.27529 17.75C7.27625 17.75 7.27721 17.75 7.27818 17.75C7.27914 17.75 7.28011 17.75 7.28108 17.75C7.28205 17.75 7.28302 17.75 7.284 17.75C7.28498 17.75 7.28595 17.75 7.28693 17.75C7.28792 17.75 7.2889 17.75 7.28988 17.75C7.29087 17.75 7.29186 17.75 7.29285 17.75C7.29384 17.75 7.29483 17.75 7.29583 17.75C7.29683 17.75 7.29783 17.75 7.29883 17.75C7.29983 17.75 7.30083 17.75 7.30184 17.75C7.30284 17.75 7.30385 17.75 7.30486 17.75C7.30588 17.75 7.30689 17.75 7.30791 17.75C7.30892 17.75 7.30994 17.75 7.31096 17.75C7.31199 17.75 7.31301 17.75 7.31404 17.75C7.31506 17.75 7.31609 17.75 7.31713 17.75C7.31816 17.75 7.31919 17.75 7.32023 17.75C7.32127 17.75 7.32231 17.75 7.32335 17.75C7.32439 17.75 7.32544 17.75 7.32648 17.75C7.32753 17.75 7.32858 17.75 7.32963 17.75C7.33069 17.75 7.33174 17.75 7.3328 17.75C7.33386 17.75 7.33492 17.75 7.33598 17.75C7.33704 17.75 7.33811 17.75 7.33918 17.75C7.34024 17.75 7.34132 17.75 7.34239 17.75C7.34346 17.75 7.34454 17.75 7.34562 17.75C7.34669 17.75 7.34777 17.75 7.34886 17.75C7.34994 17.75 7.35103 17.75 7.35212 17.75C7.35321 17.75 7.3543 17.75 7.35539 17.75C7.35648 17.75 7.35758 17.75 7.35868 17.75C7.35978 17.75 7.36088 17.75 7.36198 17.75C7.36309 17.75 7.3642 17.75 7.3653 17.75C7.36641 17.75 7.36753 17.75 7.36864 17.75C7.36975 17.75 7.37087 17.75 7.37199 17.75C7.37311 17.75 7.37423 17.75 7.37536 17.75C7.37648 17.75 7.37761 17.75 7.37874 17.75C7.37987 17.75 7.381 17.75 7.38214 17.75C7.38327 17.75 7.38441 17.75 7.38555 17.75C7.38669 17.75 7.38783 17.75 7.38898 17.75C7.39013 17.75 7.39127 17.75 7.39242 17.75C7.39357 17.75 7.39473 17.75 7.39588 17.75C7.39704 17.75 7.3982 17.75 7.39936 17.75C7.40052 17.75 7.40168 17.75 7.40285 17.75C7.40402 17.75 7.40519 17.75 7.40636 17.75C7.40753 17.75 7.4087 17.75 7.40988 17.75C7.41106 17.75 7.41223 17.75 7.41342 17.75C7.4146 17.75 7.41578 17.75 7.41697 17.75C7.41816 17.75 7.41935 17.75 7.42054 17.75C7.42173 17.75 7.42292 17.75 7.42412 17.75C7.42532 17.75 7.42652 17.75 7.42772 17.75C7.42892 17.75 7.43013 17.75 7.43134 17.75C7.43254 17.75 7.43375 17.75 7.43497 17.75C7.43618 17.75 7.4374 17.75 7.43861 17.75C7.43983 17.75 7.44105 17.75 7.44228 17.75C7.4435 17.75 7.44473 17.75 7.44595 17.75C7.44718 17.75 7.44841 17.75 7.44965 17.75C7.45088 17.75 7.45212 17.75 7.45336 17.75C7.45459 17.75 7.45584 17.75 7.45708 17.75C7.45832 17.75 7.45957 17.75 7.46082 17.75C7.46207 17.75 7.46332 17.75 7.46458 17.75C7.46583 17.75 7.46709 17.75 7.46835 17.75C7.46961 17.75 7.47087 17.75 7.47213 17.75C7.4734 17.75 7.47467 17.75 7.47594 17.75C7.47721 17.75 7.47848 17.75 7.47975 17.75C7.48103 17.75 7.48231 17.75 7.48359 17.75C7.48487 17.75 7.48615 17.75 7.48744 17.75C7.48872 17.75 7.49001 17.75 7.4913 17.75C7.49259 17.75 7.49389 17.75 7.49518 17.75C7.49648 17.75 7.49778 17.75 7.49908 17.75C7.50038 17.75 7.50168 17.75 7.50299 17.75C7.5043 17.75 7.50561 17.75 7.50692 17.75C7.50823 17.75 7.50954 17.75 7.51086 17.75C7.51218 17.75 7.5135 17.75 7.51482 17.75C7.51614 17.75 7.51747 17.75 7.5188 17.75C7.52012 17.75 7.52145 17.75 7.52279 17.75C7.52412 17.75 7.52545 17.75 7.52679 17.75C7.52813 17.75 7.52947 17.75 7.53081 17.75C7.53216 17.75 7.5335 17.75 7.53485 17.75C7.5362 17.75 7.53755 17.75 7.5389 17.75C7.54026 17.75 7.54161 17.75 7.54297 17.75C7.54433 17.75 7.54569 17.75 7.54706 17.75C7.54842 17.75 7.54979 17.75 7.55116 17.75C7.55253 17.75 7.5539 17.75 7.55527 17.75C7.55665 17.75 7.55802 17.75 7.5594 17.75C7.56078 17.75 7.56217 17.75 7.56355 17.75C7.56494 17.75 7.56632 17.75 7.56771 17.75C7.56911 17.75 7.5705 17.75 7.57189 17.75C7.57329 17.75 7.57469 17.75 7.57609 17.75C7.57749 17.75 7.57889 17.75 7.5803 17.75C7.5817 17.75 7.58311 17.75 7.58452 17.75C7.58594 17.75 7.58735 17.75 7.58877 17.75C7.59018 17.75 7.5916 17.75 7.59302 17.75C7.59445 17.75 7.59587 17.75 7.5973 17.75C7.59872 17.75 7.60015 17.75 7.60159 17.75C7.60302 17.75 7.60445 17.75 7.60589 17.75C7.60733 17.75 7.60877 17.75 7.61021 17.75C7.61165 17.75 7.6131 17.75 7.61455 17.75C7.616 17.75 7.61745 17.75 7.6189 17.75C7.62035 17.75 7.62181 17.75 7.62327 17.75C7.62473 17.75 7.62619 17.75 7.62765 17.75C7.62912 17.75 7.63058 17.75 7.63205 17.75C7.63352 17.75 7.63499 17.75 7.63647 17.75C7.63794 17.75 7.63942 17.75 7.6409 17.75C7.64238 17.75 7.64386 17.75 7.64534 17.75C7.64683 17.75 7.64832 17.75 7.64981 17.75C7.6513 17.75 7.65279 17.75 7.65429 17.75C7.65578 17.75 7.65728 17.75 7.65878 17.75C7.66028 17.75 7.66178 17.75 7.66329 17.75C7.6648 17.75 7.66631 17.75 7.66782 17.75C7.66933 17.75 7.67084 17.75 7.67236 17.75C7.67387 17.75 7.67539 17.75 7.67692 17.75C7.67844 17.75 7.67996 17.75 7.68149 17.75C7.68302 17.75 7.68455 17.75 7.68608 17.75C7.68761 17.75 7.68915 17.75 7.69068 17.75C7.69222 17.75 7.69376 17.75 7.6953 17.75C7.69685 17.75 7.69839 17.75 7.69994 17.75C7.70149 17.75 7.70304 17.75 7.70459 17.75C7.70615 17.75 7.7077 17.75 7.70926 17.75C7.71082 17.75 7.71238 17.75 7.71395 17.75C7.71551 17.75 7.71708 17.75 7.71865 17.75C7.72022 17.75 7.72179 17.75 7.72336 17.75C7.72494 17.75 7.72652 17.75 7.7281 17.75C7.72968 17.75 7.73126 17.75 7.73285 17.75C7.73443 17.75 7.73602 17.75 7.73761 17.75C7.7392 17.75 7.74079 17.75 7.74239 17.75C7.74399 17.75 7.74558 17.75 7.74719 17.75C7.74879 17.75 7.75039 17.75 7.752 17.75C7.7536 17.75 7.75521 17.75 7.75682 17.75C7.75844 17.75 7.76005 17.75 7.76167 17.75C7.76329 17.75 7.7649 17.75 7.76653 17.75C7.76815 17.75 7.76978 17.75 7.7714 17.75C7.77303 17.75 7.77466 17.75 7.77629 17.75C7.77793 17.75 7.77956 17.75 7.7812 17.75C7.78284 17.75 7.78448 17.75 7.78613 17.75C7.78777 17.75 7.78942 17.75 7.79106 17.75C7.79271 17.75 7.79436 17.75 7.79602 17.75C7.79767 17.75 7.79933 17.75 7.80099 17.75C7.80265 17.75 7.80431 17.75 7.80598 17.75C7.80764 17.75 7.80931 17.75 7.81098 17.75C7.81265 17.75 7.81432 17.75 7.816 17.75C7.81768 17.75 7.81935 17.75 7.82103 17.75C7.82272 17.75 7.8244 17.75 7.82609 17.75C7.82777 17.75 7.82946 17.75 7.83115 17.75C7.83284 17.75 7.83454 17.75 7.83624 17.75C7.83793 17.75 7.83963 17.75 7.84133 17.75C7.84304 17.75 7.84474 17.75 7.84645 17.75C7.84816 17.75 7.84987 17.75 7.85158 17.75C7.85329 17.75 7.85501 17.75 7.85673 17.75C7.85845 17.75 7.86017 17.75 7.86189 17.75C7.86361 17.75 7.86534 17.75 7.86707 17.75C7.8688 17.75 7.87053 17.75 7.87226 17.75C7.874 17.75 7.87574 17.75 7.87748 17.75C7.87921 17.75 7.88096 17.75 7.8827 17.75C7.88445 17.75 7.88619 17.75 7.88795 17.75C7.8897 17.75 7.89145 17.75 7.8932 17.75C7.89496 17.75 7.89672 17.75 7.89848 17.75C7.90024 17.75 7.902 17.75 7.90377 17.75C7.90554 17.75 7.90731 17.75 7.90908 17.75C7.91085 17.75 7.91262 17.75 7.9144 17.75C7.91618 17.75 7.91796 17.75 7.91974 17.75C7.92152 17.75 7.92331 17.75 7.9251 17.75C7.92688 17.75 7.92867 17.75 7.93047 17.75C7.93226 17.75 7.93406 17.75 7.93585 17.75C7.93765 17.75 7.93945 17.75 7.94126 17.75C7.94306 17.75 7.94487 17.75 7.94668 17.75C7.94849 17.75 7.9503 17.75 7.95211 17.75C7.95393 17.75 7.95575 17.75 7.95757 17.75C7.95939 17.75 7.96121 17.75 7.96303 17.75C7.96486 17.75 7.96669 17.75 7.96852 17.75C7.97035 17.75 7.97218 17.75 7.97402 17.75C7.97585 17.75 7.97769 17.75 7.97953 17.75C7.98138 17.75 7.98322 17.75 7.98507 17.75C7.98691 17.75 7.98876 17.75 7.99062 17.75C7.99247 17.75 7.99432 17.75 7.99618 17.75C7.99804 17.75 7.9999 17.75 8.00176 17.75C8.00362 17.75 8.00549 17.75 8.00736 17.75C8.00923 17.75 8.0111 17.75 8.01297 17.75C8.01484 17.75 8.01672 17.75 8.0186 17.75C8.02048 17.75 8.02236 17.75 8.02425 17.75C8.02613 17.75 8.02802 17.75 8.02991 17.75C8.0318 17.75 8.03369 17.75 8.03558 17.75C8.03748 17.75 8.03938 17.75 8.04128 17.75C8.04318 17.75 8.04508 17.75 8.04699 17.75C8.04889 17.75 8.0508 17.75 8.05271 17.75C8.05463 17.75 8.05654 17.75 8.05846 17.75C8.06037 17.75 8.06229 17.75 8.06422 17.75C8.06614 17.75 8.06806 17.75 8.06999 17.75C8.07192 17.75 8.07385 17.75 8.07578 17.75C8.07771 17.75 8.07965 17.75 8.08159 17.75C8.08353 17.75 8.08547 17.75 8.08741 17.75C8.08936 17.75 8.0913 17.75 8.09325 17.75C8.0952 17.75 8.09715 17.75 8.09911 17.75C8.10106 17.75 8.10302 17.75 8.10498 17.75C8.10694 17.75 8.1089 17.75 8.11087 17.75C8.11283 17.75 8.1148 17.75 8.11677 17.75C8.11874 17.75 8.12072 17.75 8.12269 17.75C8.12467 17.75 8.12665 17.75 8.12863 17.75C8.13061 17.75 8.13259 17.75 8.13458 17.75C8.13657 17.75 8.13856 17.75 8.14055 17.75C8.14254 17.75 8.14454 17.75 8.14654 17.75C8.14853 17.75 8.15053 17.75 8.15254 17.75C8.15454 17.75 8.15655 17.75 8.15856 17.75C8.16056 17.75 8.16258 17.75 8.16459 17.75C8.1666 17.75 8.16862 17.75 8.17064 17.75C8.17266 17.75 8.17468 17.75 8.17671 17.75C8.17873 17.75 8.18076 17.75 8.18279 17.75C8.18482 17.75 8.18685 17.75 8.18889 17.75C8.19092 17.75 8.19296 17.75 8.195 17.75C8.19705 17.75 8.19909 17.75 8.20114 17.75C8.20318 17.75 8.20523 17.75 8.20728 17.75C8.20934 17.75 8.21139 17.75 8.21345 17.75C8.21551 17.75 8.21757 17.75 8.21963 17.75C8.22169 17.75 8.22376 17.75 8.22583 17.75C8.22789 17.75 8.22997 17.75 8.23204 17.75C8.23411 17.75 8.23619 17.75 8.23827 17.75C8.24035 17.75 8.24243 17.75 8.24451 17.75C8.2466 17.75 8.24869 17.75 8.25078 17.75C8.25287 17.75 8.25496 17.75 8.25706 17.75C8.25915 17.75 8.26125 17.75 8.26335 17.75C8.26545 17.75 8.26756 17.75 8.26966 17.75C8.27177 17.75 8.27388 17.75 8.27599 17.75C8.2781 17.75 8.28022 17.75 8.28233 17.75C8.28445 17.75 8.28657 17.75 8.28869 17.75C8.29082 17.75 8.29294 17.75 8.29507 17.75C8.2972 17.75 8.29933 17.75 8.30146 17.75C8.3036 17.75 8.30573 17.75 8.30787 17.75C8.31001 17.75 8.31215 17.75 8.3143 17.75C8.31644 17.75 8.31859 17.75 8.32074 17.75C8.32289 17.75 8.32504 17.75 8.3272 17.75C8.32935 17.75 8.33151 17.75 8.33367 17.75C8.33583 17.75 8.338 17.75 8.34016 17.75C8.34233 17.75 8.3445 17.75 8.34667 17.75C8.34884 17.75 8.35102 17.75 8.3532 17.75C8.35537 17.75 8.35755 17.75 8.35974 17.75C8.36192 17.75 8.3641 17.75 8.36629 17.75C8.36848 17.75 8.37067 17.75 8.37287 17.75C8.37506 17.75 8.37726 17.75 8.37945 17.75C8.38165 17.75 8.38386 17.75 8.38606 17.75C8.38827 17.75 8.39047 17.75 8.39268 17.75C8.39489 17.75 8.39711 17.75 8.39932 17.75C8.40154 17.75 8.40376 17.75 8.40598 17.75C8.4082 17.75 8.41042 17.75 8.41265 17.75C8.41488 17.75 8.4171 17.75 8.41934 17.75C8.42157 17.75 8.4238 17.75 8.42604 17.75C8.42828 17.75 8.43052 17.75 8.43276 17.75C8.435 17.75 8.43725 17.75 8.4395 17.75C8.44175 17.75 8.444 17.75 8.44625 17.75C8.44851 17.75 8.45076 17.75 8.45302 17.75C8.45528 17.75 8.45754 17.75 8.45981 17.75C8.46207 17.75 8.46434 17.75 8.46661 17.75C8.46888 17.75 8.47116 17.75 8.47343 17.75C8.47571 17.75 8.47799 17.75 8.48027 17.75C8.48255 17.75 8.48483 17.75 8.48712 17.75C8.48941 17.75 8.4917 17.75 8.49399 17.75C8.49628 17.75 8.49858 17.75 8.50088 17.75C8.50317 17.75 8.50547 17.75 8.50778 17.75C8.51008 17.75 8.51239 17.75 8.5147 17.75C8.51701 17.75 8.51932 17.75 8.52163 17.75C8.52395 17.75 8.52626 17.75 8.52858 17.75C8.5309 17.75 8.53323 17.75 8.53555 17.75C8.53788 17.75 8.5402 17.75 8.54254 17.75C8.54487 17.75 8.5472 17.75 8.54954 17.75C8.55187 17.75 8.55421 17.75 8.55655 17.75C8.5589 17.75 8.56124 17.75 8.56359 17.75C8.56594 17.75 8.56829 17.75 8.57064 17.75C8.57299 17.75 8.57535 17.75 8.57771 17.75C8.58006 17.75 8.58243 17.75 8.58479 17.75C8.58715 17.75 8.58952 17.75 8.59189 17.75C8.59426 17.75 8.59663 17.75 8.59901 17.75C8.60138 17.75 8.60376 17.75 8.60614 17.75C8.60852 17.75 8.6109 17.75 8.61329 17.75C8.61568 17.75 8.61807 17.75 8.62046 17.75C8.62285 17.75 8.62524 17.75 8.62764 17.75C8.63004 17.75 8.63244 17.75 8.63484 17.75C8.63724 17.75 8.63965 17.75 8.64206 17.75C8.64446 17.75 8.64687 17.75 8.64929 17.75C8.6517 17.75 8.65412 17.75 8.65654 17.75C8.65896 17.75 8.66138 17.75 8.6638 17.75C8.66623 17.75 8.66866 17.75 8.67109 17.75C8.67352 17.75 8.67595 17.75 8.67839 17.75C8.68082 17.75 8.68326 17.75 8.6857 17.75C8.68814 17.75 8.69059 17.75 8.69303 17.75C8.69548 17.75 8.69793 17.75 8.70038 17.75C8.70284 17.75 8.70529 17.75 8.70775 17.75C8.71021 17.75 8.71267 17.75 8.71513 17.75C8.71759 17.75 8.72006 17.75 8.72253 17.75C8.725 17.75 8.72747 17.75 8.72995 17.75C8.73242 17.75 8.7349 17.75 8.73738 17.75C8.73986 17.75 8.74234 17.75 8.74483 17.75C8.74731 17.75 8.7498 17.75 8.75229 17.75C8.75478 17.75 8.75728 17.75 8.75977 17.75C8.76227 17.75 8.76477 17.75 8.76727 17.75C8.76977 17.75 8.77228 17.75 8.77479 17.75C8.7773 17.75 8.77981 17.75 8.78232 17.75C8.78483 17.75 8.78735 17.75 8.78987 17.75C8.79239 17.75 8.79491 17.75 8.79743 17.75C8.79996 17.75 8.80249 17.75 8.80502 17.75C8.80755 17.75 8.81008 17.75 8.81261 17.75C8.81515 17.75 8.81769 17.75 8.82023 17.75C8.82277 17.75 8.82532 17.75 8.82786 17.75C8.83041 17.75 8.83296 17.75 8.83551 17.75C8.83806 17.75 8.84062 17.75 8.84318 17.75C8.84573 17.75 8.8483 17.75 8.85086 17.75C8.85342 17.75 8.85599 17.75 8.85856 17.75C8.86113 17.75 8.8637 17.75 8.86627 17.75C8.86885 17.75 8.87143 17.75 8.87401 17.75C8.87659 17.75 8.87917 17.75 8.88175 17.75C8.88434 17.75 8.88693 17.75 8.88952 17.75C8.89211 17.75 8.89471 17.75 8.8973 17.75C8.8999 17.75 8.9025 17.75 8.9051 17.75C8.9077 17.75 8.91031 17.75 8.91292 17.75C8.91553 17.75 8.91814 17.75 8.92075 17.75C8.92336 17.75 8.92598 17.75 8.9286 17.75C8.93122 17.75 8.93384 17.75 8.93647 17.75C8.93909 17.75 8.94172 17.75 8.94435 17.75C8.94698 17.75 8.94961 17.75 8.95225 17.75C8.95489 17.75 8.95752 17.75 8.96017 17.75C8.96281 17.75 8.96545 17.75 8.9681 17.75C8.97075 17.75 8.9734 17.75 8.97605 17.75C8.9787 17.75 8.98136 17.75 8.98402 17.75C8.98667 17.75 8.98934 17.75 8.992 17.75C8.99466 17.75 8.99733 17.75 9 17.75V17V16.25C8.99733 16.25 8.99466 16.25 8.992 16.25C8.98934 16.25 8.98667 16.25 8.98402 16.25C8.98136 16.25 8.9787 16.25 8.97605 16.25C8.9734 16.25 8.97075 16.25 8.9681 16.25C8.96545 16.25 8.96281 16.25 8.96017 16.25C8.95752 16.25 8.95489 16.25 8.95225 16.25C8.94961 16.25 8.94698 16.25 8.94435 16.25C8.94172 16.25 8.93909 16.25 8.93647 16.25C8.93384 16.25 8.93122 16.25 8.9286 16.25C8.92598 16.25 8.92336 16.25 8.92075 16.25C8.91814 16.25 8.91553 16.25 8.91292 16.25C8.91031 16.25 8.9077 16.25 8.9051 16.25C8.9025 16.25 8.8999 16.25 8.8973 16.25C8.89471 16.25 8.89211 16.25 8.88952 16.25C8.88693 16.25 8.88434 16.25 8.88175 16.25C8.87917 16.25 8.87659 16.25 8.87401 16.25C8.87143 16.25 8.86885 16.25 8.86627 16.25C8.8637 16.25 8.86113 16.25 8.85856 16.25C8.85599 16.25 8.85342 16.25 8.85086 16.25C8.8483 16.25 8.84573 16.25 8.84318 16.25C8.84062 16.25 8.83806 16.25 8.83551 16.25C8.83296 16.25 8.83041 16.25 8.82786 16.25C8.82532 16.25 8.82277 16.25 8.82023 16.25C8.81769 16.25 8.81515 16.25 8.81261 16.25C8.81008 16.25 8.80755 16.25 8.80502 16.25C8.80249 16.25 8.79996 16.25 8.79743 16.25C8.79491 16.25 8.79239 16.25 8.78987 16.25C8.78735 16.25 8.78483 16.25 8.78232 16.25C8.77981 16.25 8.7773 16.25 8.77479 16.25C8.77228 16.25 8.76977 16.25 8.76727 16.25C8.76477 16.25 8.76227 16.25 8.75977 16.25C8.75728 16.25 8.75478 16.25 8.75229 16.25C8.7498 16.25 8.74731 16.25 8.74483 16.25C8.74234 16.25 8.73986 16.25 8.73738 16.25C8.7349 16.25 8.73242 16.25 8.72995 16.25C8.72747 16.25 8.725 16.25 8.72253 16.25C8.72006 16.25 8.71759 16.25 8.71513 16.25C8.71267 16.25 8.71021 16.25 8.70775 16.25C8.70529 16.25 8.70284 16.25 8.70038 16.25C8.69793 16.25 8.69548 16.25 8.69303 16.25C8.69059 16.25 8.68814 16.25 8.6857 16.25C8.68326 16.25 8.68082 16.25 8.67839 16.25C8.67595 16.25 8.67352 16.25 8.67109 16.25C8.66866 16.25 8.66623 16.25 8.6638 16.25C8.66138 16.25 8.65896 16.25 8.65654 16.25C8.65412 16.25 8.6517 16.25 8.64929 16.25C8.64687 16.25 8.64446 16.25 8.64206 16.25C8.63965 16.25 8.63724 16.25 8.63484 16.25C8.63244 16.25 8.63004 16.25 8.62764 16.25C8.62524 16.25 8.62285 16.25 8.62046 16.25C8.61807 16.25 8.61568 16.25 8.61329 16.25C8.6109 16.25 8.60852 16.25 8.60614 16.25C8.60376 16.25 8.60138 16.25 8.59901 16.25C8.59663 16.25 8.59426 16.25 8.59189 16.25C8.58952 16.25 8.58715 16.25 8.58479 16.25C8.58243 16.25 8.58006 16.25 8.57771 16.25C8.57535 16.25 8.57299 16.25 8.57064 16.25C8.56829 16.25 8.56594 16.25 8.56359 16.25C8.56124 16.25 8.5589 16.25 8.55655 16.25C8.55421 16.25 8.55187 16.25 8.54954 16.25C8.5472 16.25 8.54487 16.25 8.54254 16.25C8.5402 16.25 8.53788 16.25 8.53555 16.25C8.53323 16.25 8.5309 16.25 8.52858 16.25C8.52626 16.25 8.52395 16.25 8.52163 16.25C8.51932 16.25 8.51701 16.25 8.5147 16.25C8.51239 16.25 8.51008 16.25 8.50778 16.25C8.50547 16.25 8.50317 16.25 8.50088 16.25C8.49858 16.25 8.49628 16.25 8.49399 16.25C8.4917 16.25 8.48941 16.25 8.48712 16.25C8.48483 16.25 8.48255 16.25 8.48027 16.25C8.47799 16.25 8.47571 16.25 8.47343 16.25C8.47116 16.25 8.46888 16.25 8.46661 16.25C8.46434 16.25 8.46207 16.25 8.45981 16.25C8.45754 16.25 8.45528 16.25 8.45302 16.25C8.45076 16.25 8.44851 16.25 8.44625 16.25C8.444 16.25 8.44175 16.25 8.4395 16.25C8.43725 16.25 8.435 16.25 8.43276 16.25C8.43052 16.25 8.42828 16.25 8.42604 16.25C8.4238 16.25 8.42157 16.25 8.41934 16.25C8.4171 16.25 8.41488 16.25 8.41265 16.25C8.41042 16.25 8.4082 16.25 8.40598 16.25C8.40376 16.25 8.40154 16.25 8.39932 16.25C8.39711 16.25 8.39489 16.25 8.39268 16.25C8.39047 16.25 8.38827 16.25 8.38606 16.25C8.38386 16.25 8.38165 16.25 8.37945 16.25C8.37726 16.25 8.37506 16.25 8.37287 16.25C8.37067 16.25 8.36848 16.25 8.36629 16.25C8.3641 16.25 8.36192 16.25 8.35974 16.25C8.35755 16.25 8.35537 16.25 8.3532 16.25C8.35102 16.25 8.34884 16.25 8.34667 16.25C8.3445 16.25 8.34233 16.25 8.34016 16.25C8.338 16.25 8.33583 16.25 8.33367 16.25C8.33151 16.25 8.32935 16.25 8.3272 16.25C8.32504 16.25 8.32289 16.25 8.32074 16.25C8.31859 16.25 8.31644 16.25 8.3143 16.25C8.31215 16.25 8.31001 16.25 8.30787 16.25C8.30573 16.25 8.3036 16.25 8.30146 16.25C8.29933 16.25 8.2972 16.25 8.29507 16.25C8.29294 16.25 8.29082 16.25 8.28869 16.25C8.28657 16.25 8.28445 16.25 8.28233 16.25C8.28022 16.25 8.2781 16.25 8.27599 16.25C8.27388 16.25 8.27177 16.25 8.26966 16.25C8.26756 16.25 8.26545 16.25 8.26335 16.25C8.26125 16.25 8.25915 16.25 8.25706 16.25C8.25496 16.25 8.25287 16.25 8.25078 16.25C8.24869 16.25 8.2466 16.25 8.24451 16.25C8.24243 16.25 8.24035 16.25 8.23827 16.25C8.23619 16.25 8.23411 16.25 8.23204 16.25C8.22997 16.25 8.22789 16.25 8.22583 16.25C8.22376 16.25 8.22169 16.25 8.21963 16.25C8.21757 16.25 8.21551 16.25 8.21345 16.25C8.21139 16.25 8.20934 16.25 8.20728 16.25C8.20523 16.25 8.20318 16.25 8.20114 16.25C8.19909 16.25 8.19705 16.25 8.195 16.25C8.19296 16.25 8.19092 16.25 8.18889 16.25C8.18685 16.25 8.18482 16.25 8.18279 16.25C8.18076 16.25 8.17873 16.25 8.17671 16.25C8.17468 16.25 8.17266 16.25 8.17064 16.25C8.16862 16.25 8.1666 16.25 8.16459 16.25C8.16258 16.25 8.16056 16.25 8.15856 16.25C8.15655 16.25 8.15454 16.25 8.15254 16.25C8.15053 16.25 8.14853 16.25 8.14654 16.25C8.14454 16.25 8.14254 16.25 8.14055 16.25C8.13856 16.25 8.13657 16.25 8.13458 16.25C8.13259 16.25 8.13061 16.25 8.12863 16.25C8.12665 16.25 8.12467 16.25 8.12269 16.25C8.12072 16.25 8.11874 16.25 8.11677 16.25C8.1148 16.25 8.11283 16.25 8.11087 16.25C8.1089 16.25 8.10694 16.25 8.10498 16.25C8.10302 16.25 8.10106 16.25 8.09911 16.25C8.09715 16.25 8.0952 16.25 8.09325 16.25C8.0913 16.25 8.08936 16.25 8.08741 16.25C8.08547 16.25 8.08353 16.25 8.08159 16.25C8.07965 16.25 8.07771 16.25 8.07578 16.25C8.07385 16.25 8.07192 16.25 8.06999 16.25C8.06806 16.25 8.06614 16.25 8.06422 16.25C8.06229 16.25 8.06037 16.25 8.05846 16.25C8.05654 16.25 8.05463 16.25 8.05271 16.25C8.0508 16.25 8.04889 16.25 8.04699 16.25C8.04508 16.25 8.04318 16.25 8.04128 16.25C8.03938 16.25 8.03748 16.25 8.03558 16.25C8.03369 16.25 8.0318 16.25 8.02991 16.25C8.02802 16.25 8.02613 16.25 8.02425 16.25C8.02236 16.25 8.02048 16.25 8.0186 16.25C8.01672 16.25 8.01484 16.25 8.01297 16.25C8.0111 16.25 8.00923 16.25 8.00736 16.25C8.00549 16.25 8.00362 16.25 8.00176 16.25C7.9999 16.25 7.99804 16.25 7.99618 16.25C7.99432 16.25 7.99247 16.25 7.99062 16.25C7.98876 16.25 7.98691 16.25 7.98507 16.25C7.98322 16.25 7.98138 16.25 7.97953 16.25C7.97769 16.25 7.97585 16.25 7.97402 16.25C7.97218 16.25 7.97035 16.25 7.96852 16.25C7.96669 16.25 7.96486 16.25 7.96303 16.25C7.96121 16.25 7.95939 16.25 7.95757 16.25C7.95575 16.25 7.95393 16.25 7.95211 16.25C7.9503 16.25 7.94849 16.25 7.94668 16.25C7.94487 16.25 7.94306 16.25 7.94126 16.25C7.93945 16.25 7.93765 16.25 7.93585 16.25C7.93406 16.25 7.93226 16.25 7.93047 16.25C7.92867 16.25 7.92688 16.25 7.9251 16.25C7.92331 16.25 7.92152 16.25 7.91974 16.25C7.91796 16.25 7.91618 16.25 7.9144 16.25C7.91262 16.25 7.91085 16.25 7.90908 16.25C7.90731 16.25 7.90554 16.25 7.90377 16.25C7.902 16.25 7.90024 16.25 7.89848 16.25C7.89672 16.25 7.89496 16.25 7.8932 16.25C7.89145 16.25 7.8897 16.25 7.88795 16.25C7.88619 16.25 7.88445 16.25 7.8827 16.25C7.88096 16.25 7.87921 16.25 7.87748 16.25C7.87574 16.25 7.874 16.25 7.87226 16.25C7.87053 16.25 7.8688 16.25 7.86707 16.25C7.86534 16.25 7.86361 16.25 7.86189 16.25C7.86017 16.25 7.85845 16.25 7.85673 16.25C7.85501 16.25 7.85329 16.25 7.85158 16.25C7.84987 16.25 7.84816 16.25 7.84645 16.25C7.84474 16.25 7.84304 16.25 7.84133 16.25C7.83963 16.25 7.83793 16.25 7.83624 16.25C7.83454 16.25 7.83284 16.25 7.83115 16.25C7.82946 16.25 7.82777 16.25 7.82609 16.25C7.8244 16.25 7.82272 16.25 7.82103 16.25C7.81935 16.25 7.81768 16.25 7.816 16.25C7.81432 16.25 7.81265 16.25 7.81098 16.25C7.80931 16.25 7.80764 16.25 7.80598 16.25C7.80431 16.25 7.80265 16.25 7.80099 16.25C7.79933 16.25 7.79767 16.25 7.79602 16.25C7.79436 16.25 7.79271 16.25 7.79106 16.25C7.78942 16.25 7.78777 16.25 7.78613 16.25C7.78448 16.25 7.78284 16.25 7.7812 16.25C7.77956 16.25 7.77793 16.25 7.77629 16.25C7.77466 16.25 7.77303 16.25 7.7714 16.25C7.76978 16.25 7.76815 16.25 7.76653 16.25C7.7649 16.25 7.76329 16.25 7.76167 16.25C7.76005 16.25 7.75844 16.25 7.75682 16.25C7.75521 16.25 7.7536 16.25 7.752 16.25C7.75039 16.25 7.74879 16.25 7.74719 16.25C7.74558 16.25 7.74399 16.25 7.74239 16.25C7.74079 16.25 7.7392 16.25 7.73761 16.25C7.73602 16.25 7.73443 16.25 7.73285 16.25C7.73126 16.25 7.72968 16.25 7.7281 16.25C7.72652 16.25 7.72494 16.25 7.72336 16.25C7.72179 16.25 7.72022 16.25 7.71865 16.25C7.71708 16.25 7.71551 16.25 7.71395 16.25C7.71238 16.25 7.71082 16.25 7.70926 16.25C7.7077 16.25 7.70615 16.25 7.70459 16.25C7.70304 16.25 7.70149 16.25 7.69994 16.25C7.69839 16.25 7.69685 16.25 7.6953 16.25C7.69376 16.25 7.69222 16.25 7.69068 16.25C7.68915 16.25 7.68761 16.25 7.68608 16.25C7.68455 16.25 7.68302 16.25 7.68149 16.25C7.67996 16.25 7.67844 16.25 7.67692 16.25C7.67539 16.25 7.67387 16.25 7.67236 16.25C7.67084 16.25 7.66933 16.25 7.66782 16.25C7.66631 16.25 7.6648 16.25 7.66329 16.25C7.66178 16.25 7.66028 16.25 7.65878 16.25C7.65728 16.25 7.65578 16.25 7.65429 16.25C7.65279 16.25 7.6513 16.25 7.64981 16.25C7.64832 16.25 7.64683 16.25 7.64534 16.25C7.64386 16.25 7.64238 16.25 7.6409 16.25C7.63942 16.25 7.63794 16.25 7.63647 16.25C7.63499 16.25 7.63352 16.25 7.63205 16.25C7.63058 16.25 7.62912 16.25 7.62765 16.25C7.62619 16.25 7.62473 16.25 7.62327 16.25C7.62181 16.25 7.62035 16.25 7.6189 16.25C7.61745 16.25 7.616 16.25 7.61455 16.25C7.6131 16.25 7.61165 16.25 7.61021 16.25C7.60877 16.25 7.60733 16.25 7.60589 16.25C7.60445 16.25 7.60302 16.25 7.60159 16.25C7.60015 16.25 7.59872 16.25 7.5973 16.25C7.59587 16.25 7.59445 16.25 7.59302 16.25C7.5916 16.25 7.59018 16.25 7.58877 16.25C7.58735 16.25 7.58594 16.25 7.58452 16.25C7.58311 16.25 7.5817 16.25 7.5803 16.25C7.57889 16.25 7.57749 16.25 7.57609 16.25C7.57469 16.25 7.57329 16.25 7.57189 16.25C7.5705 16.25 7.56911 16.25 7.56771 16.25C7.56632 16.25 7.56494 16.25 7.56355 16.25C7.56217 16.25 7.56078 16.25 7.5594 16.25C7.55802 16.25 7.55665 16.25 7.55527 16.25C7.5539 16.25 7.55253 16.25 7.55116 16.25C7.54979 16.25 7.54842 16.25 7.54706 16.25C7.54569 16.25 7.54433 16.25 7.54297 16.25C7.54161 16.25 7.54026 16.25 7.5389 16.25C7.53755 16.25 7.5362 16.25 7.53485 16.25C7.5335 16.25 7.53216 16.25 7.53081 16.25C7.52947 16.25 7.52813 16.25 7.52679 16.25C7.52545 16.25 7.52412 16.25 7.52279 16.25C7.52145 16.25 7.52012 16.25 7.5188 16.25C7.51747 16.25 7.51614 16.25 7.51482 16.25C7.5135 16.25 7.51218 16.25 7.51086 16.25C7.50954 16.25 7.50823 16.25 7.50692 16.25C7.50561 16.25 7.5043 16.25 7.50299 16.25C7.50168 16.25 7.50038 16.25 7.49908 16.25C7.49778 16.25 7.49648 16.25 7.49518 16.25C7.49389 16.25 7.49259 16.25 7.4913 16.25C7.49001 16.25 7.48872 16.25 7.48744 16.25C7.48615 16.25 7.48487 16.25 7.48359 16.25C7.48231 16.25 7.48103 16.25 7.47975 16.25C7.47848 16.25 7.47721 16.25 7.47594 16.25C7.47467 16.25 7.4734 16.25 7.47213 16.25C7.47087 16.25 7.46961 16.25 7.46835 16.25C7.46709 16.25 7.46583 16.25 7.46458 16.25C7.46332 16.25 7.46207 16.25 7.46082 16.25C7.45957 16.25 7.45832 16.25 7.45708 16.25C7.45584 16.25 7.45459 16.25 7.45336 16.25C7.45212 16.25 7.45088 16.25 7.44965 16.25C7.44841 16.25 7.44718 16.25 7.44595 16.25C7.44473 16.25 7.4435 16.25 7.44228 16.25C7.44105 16.25 7.43983 16.25 7.43861 16.25C7.4374 16.25 7.43618 16.25 7.43497 16.25C7.43375 16.25 7.43254 16.25 7.43134 16.25C7.43013 16.25 7.42892 16.25 7.42772 16.25C7.42652 16.25 7.42532 16.25 7.42412 16.25C7.42292 16.25 7.42173 16.25 7.42054 16.25C7.41935 16.25 7.41816 16.25 7.41697 16.25C7.41578 16.25 7.4146 16.25 7.41342 16.25C7.41223 16.25 7.41106 16.25 7.40988 16.25C7.4087 16.25 7.40753 16.25 7.40636 16.25C7.40519 16.25 7.40402 16.25 7.40285 16.25C7.40168 16.25 7.40052 16.25 7.39936 16.25C7.3982 16.25 7.39704 16.25 7.39588 16.25C7.39473 16.25 7.39357 16.25 7.39242 16.25C7.39127 16.25 7.39013 16.25 7.38898 16.25C7.38783 16.25 7.38669 16.25 7.38555 16.25C7.38441 16.25 7.38327 16.25 7.38214 16.25C7.381 16.25 7.37987 16.25 7.37874 16.25C7.37761 16.25 7.37648 16.25 7.37536 16.25C7.37423 16.25 7.37311 16.25 7.37199 16.25C7.37087 16.25 7.36975 16.25 7.36864 16.25C7.36753 16.25 7.36641 16.25 7.3653 16.25C7.3642 16.25 7.36309 16.25 7.36198 16.25C7.36088 16.25 7.35978 16.25 7.35868 16.25C7.35758 16.25 7.35648 16.25 7.35539 16.25C7.3543 16.25 7.35321 16.25 7.35212 16.25C7.35103 16.25 7.34994 16.25 7.34886 16.25C7.34777 16.25 7.34669 16.25 7.34562 16.25C7.34454 16.25 7.34346 16.25 7.34239 16.25C7.34132 16.25 7.34024 16.25 7.33918 16.25C7.33811 16.25 7.33704 16.25 7.33598 16.25C7.33492 16.25 7.33386 16.25 7.3328 16.25C7.33174 16.25 7.33069 16.25 7.32963 16.25C7.32858 16.25 7.32753 16.25 7.32648 16.25C7.32544 16.25 7.32439 16.25 7.32335 16.25C7.32231 16.25 7.32127 16.25 7.32023 16.25C7.31919 16.25 7.31816 16.25 7.31713 16.25C7.31609 16.25 7.31506 16.25 7.31404 16.25C7.31301 16.25 7.31199 16.25 7.31096 16.25C7.30994 16.25 7.30892 16.25 7.30791 16.25C7.30689 16.25 7.30588 16.25 7.30486 16.25C7.30385 16.25 7.30284 16.25 7.30184 16.25C7.30083 16.25 7.29983 16.25 7.29883 16.25C7.29783 16.25 7.29683 16.25 7.29583 16.25C7.29483 16.25 7.29384 16.25 7.29285 16.25C7.29186 16.25 7.29087 16.25 7.28988 16.25C7.2889 16.25 7.28792 16.25 7.28693 16.25C7.28595 16.25 7.28498 16.25 7.284 16.25C7.28302 16.25 7.28205 16.25 7.28108 16.25C7.28011 16.25 7.27914 16.25 7.27818 16.25C7.27721 16.25 7.27625 16.25 7.27529 16.25C7.27433 16.25 7.27337 16.25 7.27242 16.25C7.27146 16.25 7.27051 16.25 7.26956 16.25C7.26861 16.25 7.26766 16.25 7.26672 16.25C7.26577 16.25 7.26483 16.25 7.26389 16.25C7.26295 16.25 7.26201 16.25 7.26108 16.25C7.26014 16.25 7.25921 16.25 7.25828 16.25C7.25735 16.25 7.25643 16.25 7.2555 16.25C7.25458 16.25 7.25365 16.25 7.25274 16.25C7.25182 16.25 7.2509 16.25 7.24999 16.25C7.24907 16.25 7.24816 16.25 7.24725 16.25C7.24634 16.25 7.24543 16.25 7.24453 16.25C7.24363 16.25 7.24273 16.25 7.24183 16.25C7.24093 16.25 7.24003 16.25 7.23914 16.25C7.23824 16.25 7.23735 16.25 7.23646 16.25C7.23558 16.25 7.23469 16.25 7.23381 16.25C7.23292 16.25 7.23204 16.25 7.23116 16.25C7.23028 16.25 7.22941 16.25 7.22853 16.25C7.22766 16.25 7.22679 16.25 7.22592 16.25C7.22505 16.25 7.22419 16.25 7.22332 16.25C7.22246 16.25 7.2216 16.25 7.22074 16.25C7.21988 16.25 7.21903 16.25 7.21818 16.25C7.21732 16.25 7.21647 16.25 7.21562 16.25C7.21478 16.25 7.21393 16.25 7.21309 16.25C7.21225 16.25 7.21141 16.25 7.21057 16.25C7.20973 16.25 7.20889 16.25 7.20806 16.25C7.20723 16.25 7.2064 16.25 7.20557 16.25C7.20474 16.25 7.20392 16.25 7.2031 16.25C7.20227 16.25 7.20145 16.25 7.20064 16.25C7.19982 16.25 7.199 16.25 7.19819 16.25C7.19738 16.25 7.19657 16.25 7.19576 16.25C7.19495 16.25 7.19415 16.25 7.19335 16.25C7.19255 16.25 7.19175 16.25 7.19095 16.25C7.19015 16.25 7.18936 16.25 7.18856 16.25C7.18777 16.25 7.18698 16.25 7.1862 16.25C7.18541 16.25 7.18462 16.25 7.18384 16.25C7.18306 16.25 7.18228 16.25 7.1815 16.25C7.18073 16.25 7.17995 16.25 7.17918 16.25C7.17841 16.25 7.17764 16.25 7.17687 16.25C7.17611 16.25 7.17534 16.25 7.17458 16.25C7.17382 16.25 7.17306 16.25 7.1723 16.25C7.17155 16.25 7.17079 16.25 7.17004 16.25C7.16929 16.25 7.16854 16.25 7.16779 16.25C7.16705 16.25 7.1663 16.25 7.16556 16.25C7.16482 16.25 7.16408 16.25 7.16335 16.25C7.16261 16.25 7.16188 16.25 7.16114 16.25C7.16041 16.25 7.15968 16.25 7.15896 16.25C7.15823 16.25 7.15751 16.25 7.15679 16.25C7.15606 16.25 7.15535 16.25 7.15463 16.25C7.15391 16.25 7.1532 16.25 7.15249 16.25C7.15178 16.25 7.15107 16.25 7.15036 16.25C7.14966 16.25 7.14895 16.25 7.14825 16.25C7.14755 16.25 7.14685 16.25 7.14616 16.25C7.14546 16.25 7.14477 16.25 7.14408 16.25C7.14339 16.25 7.1427 16.25 7.14201 16.25C7.14132 16.25 7.14064 16.25 7.13996 16.25C7.13928 16.25 7.1386 16.25 7.13793 16.25C7.13725 16.25 7.13658 16.25 7.13591 16.25C7.13523 16.25 7.13457 16.25 7.1339 16.25C7.13323 16.25 7.13257 16.25 7.13191 16.25C7.13125 16.25 7.13059 16.25 7.12994 16.25C7.12928 16.25 7.12863 16.25 7.12798 16.25C7.12733 16.25 7.12668 16.25 7.12603 16.25C7.12539 16.25 7.12474 16.25 7.1241 16.25C7.12346 16.25 7.12282 16.25 7.12219 16.25C7.12155 16.25 7.12092 16.25 7.12029 16.25C7.11966 16.25 7.11903 16.25 7.1184 16.25C7.11778 16.25 7.11716 16.25 7.11654 16.25C7.11591 16.25 7.1153 16.25 7.11468 16.25C7.11407 16.25 7.11345 16.25 7.11284 16.25C7.11223 16.25 7.11162 16.25 7.11102 16.25C7.11041 16.25 7.10981 16.25 7.10921 16.25C7.10861 16.25 7.10801 16.25 7.10742 16.25C7.10682 16.25 7.10623 16.25 7.10564 16.25C7.10505 16.25 7.10446 16.25 7.10387 16.25C7.10329 16.25 7.1027 16.25 7.10212 16.25C7.10154 16.25 7.10097 16.25 7.10039 16.25C7.09981 16.25 7.09924 16.25 7.09867 16.25C7.0981 16.25 7.09753 16.25 7.09697 16.25C7.0964 16.25 7.09584 16.25 7.09528 16.25C7.09472 16.25 7.09416 16.25 7.0936 16.25C7.09305 16.25 7.0925 16.25 7.09195 16.25C7.0914 16.25 7.09085 16.25 7.0903 16.25C7.08976 16.25 7.08921 16.25 7.08867 16.25C7.08813 16.25 7.08759 16.25 7.08706 16.25C7.08652 16.25 7.08599 16.25 7.08546 16.25C7.08493 16.25 7.0844 16.25 7.08388 16.25C7.08335 16.25 7.08283 16.25 7.08231 16.25C7.08179 16.25 7.08127 16.25 7.08075 16.25C7.08024 16.25 7.07973 16.25 7.07922 16.25C7.0787 16.25 7.0782 16.25 7.07769 16.25C7.07719 16.25 7.07668 16.25 7.07618 16.25C7.07568 16.25 7.07518 16.25 7.07469 16.25C7.07419 16.25 7.0737 16.25 7.07321 16.25C7.07272 16.25 7.07223 16.25 7.07174 16.25C7.07126 16.25 7.07078 16.25 7.0703 16.25C7.06981 16.25 7.06934 16.25 7.06886 16.25C7.06839 16.25 7.06791 16.25 7.06744 16.25C7.06697 16.25 7.0665 16.25 7.06604 16.25C7.06557 16.25 7.06511 16.25 7.06465 16.25C7.06419 16.25 7.06373 16.25 7.06327 16.25C7.06282 16.25 7.06236 16.25 7.06191 16.25C7.06146 16.25 7.06101 16.25 7.06057 16.25C7.06012 16.25 7.05968 16.25 7.05924 16.25C7.0588 16.25 7.05836 16.25 7.05792 16.25C7.05749 16.25 7.05705 16.25 7.05662 16.25C7.05619 16.25 7.05576 16.25 7.05534 16.25C7.05491 16.25 7.05449 16.25 7.05407 16.25C7.05365 16.25 7.05323 16.25 7.05281 16.25C7.0524 16.25 7.05198 16.25 7.05157 16.25C7.05116 16.25 7.05075 16.25 7.05035 16.25C7.04994 16.25 7.04954 16.25 7.04913 16.25C7.04873 16.25 7.04834 16.25 7.04794 16.25C7.04754 16.25 7.04715 16.25 7.04676 16.25C7.04637 16.25 7.04598 16.25 7.04559 16.25C7.04521 16.25 7.04482 16.25 7.04444 16.25C7.04406 16.25 7.04368 16.25 7.0433 16.25C7.04293 16.25 7.04255 16.25 7.04218 16.25C7.04181 16.25 7.04144 16.25 7.04107 16.25C7.04071 16.25 7.04034 16.25 7.03998 16.25C7.03962 16.25 7.03926 16.25 7.03891 16.25C7.03855 16.25 7.03819 16.25 7.03784 16.25C7.03749 16.25 7.03714 16.25 7.0368 16.25C7.03645 16.25 7.0361 16.25 7.03576 16.25C7.03542 16.25 7.03508 16.25 7.03474 16.25C7.03441 16.25 7.03407 16.25 7.03374 16.25C7.03341 16.25 7.03308 16.25 7.03275 16.25C7.03243 16.25 7.0321 16.25 7.03178 16.25C7.03146 16.25 7.03114 16.25 7.03082 16.25C7.0305 16.25 7.03019 16.25 7.02988 16.25C7.02956 16.25 7.02925 16.25 7.02895 16.25C7.02864 16.25 7.02833 16.25 7.02803 16.25C7.02773 16.25 7.02743 16.25 7.02713 16.25C7.02683 16.25 7.02654 16.25 7.02625 16.25C7.02595 16.25 7.02566 16.25 7.02538 16.25C7.02509 16.25 7.0248 16.25 7.02452 16.25C7.02424 16.25 7.02396 16.25 7.02368 16.25C7.0234 16.25 7.02313 16.25 7.02285 16.25C7.02258 16.25 7.02231 16.25 7.02204 16.25C7.02178 16.25 7.02151 16.25 7.02125 16.25C7.02098 16.25 7.02072 16.25 7.02047 16.25C7.02021 16.25 7.01995 16.25 7.0197 16.25C7.01945 16.25 7.01919 16.25 7.01895 16.25C7.0187 16.25 7.01845 16.25 7.01821 16.25C7.01797 16.25 7.01772 16.25 7.01749 16.25C7.01725 16.25 7.01701 16.25 7.01678 16.25C7.01654 16.25 7.01631 16.25 7.01608 16.25C7.01586 16.25 7.01563 16.25 7.01541 16.25C7.01518 16.25 7.01496 16.25 7.01474 16.25C7.01452 16.25 7.01431 16.25 7.01409 16.25C7.01388 16.25 7.01367 16.25 7.01346 16.25C7.01325 16.25 7.01304 16.25 7.01284 16.25C7.01263 16.25 7.01243 16.25 7.01223 16.25C7.01203 16.25 7.01184 16.25 7.01164 16.25C7.01145 16.25 7.01126 16.25 7.01107 16.25C7.01088 16.25 7.01069 16.25 7.0105 16.25C7.01032 16.25 7.01014 16.25 7.00996 16.25C7.00978 16.25 7.0096 16.25 7.00943 16.25C7.00925 16.25 7.00908 16.25 7.00891 16.25C7.00874 16.25 7.00857 16.25 7.00841 16.25C7.00824 16.25 7.00808 16.25 7.00792 16.25C7.00776 16.25 7.0076 16.25 7.00744 16.25C7.00729 16.25 7.00714 16.25 7.00699 16.25C7.00684 16.25 7.00669 16.25 7.00654 16.25C7.0064 16.25 7.00625 16.25 7.00611 16.25C7.00597 16.25 7.00583 16.25 7.0057 16.25C7.00556 16.25 7.00543 16.25 7.0053 16.25C7.00517 16.25 7.00504 16.25 7.00491 16.25C7.00479 16.25 7.00466 16.25 7.00454 16.25C7.00442 16.25 7.0043 16.25 7.00418 16.25C7.00407 16.25 7.00395 16.25 7.00384 16.25C7.00373 16.25 7.00362 16.25 7.00352 16.25C7.00341 16.25 7.0033 16.25 7.0032 16.25C7.0031 16.25 7.003 16.25 7.0029 16.25C7.00281 16.25 7.00271 16.25 7.00262 16.25C7.00253 16.25 7.00244 16.25 7.00235 16.25C7.00226 16.25 7.00218 16.25 7.0021 16.25C7.00202 16.25 7.00194 16.25 7.00186 16.25C7.00178 16.25 7.00171 16.25 7.00163 16.25C7.00156 16.25 7.00149 16.25 7.00142 16.25C7.00135 16.25 7.00129 16.25 7.00123 16.25C7.00116 16.25 7.0011 16.25 7.00104 16.25C7.00099 16.25 7.00093 16.25 7.00088 16.25C7.00082 16.25 7.00077 16.25 7.00073 16.25C7.00068 16.25 7.00063 16.25 7.00059 16.25C7.00054 16.25 7.0005 16.25 7.00046 16.25C7.00043 16.25 7.00039 16.25 7.00036 16.25C7.00032 16.25 7.00029 16.25 7.00026 16.25C7.00023 16.25 7.00021 16.25 7.00018 16.25C7.00016 16.25 7.00014 16.25 7.00012 16.25C7.0001 16.25 7.00008 16.25 7.00007 16.25C7.00005 16.25 7.00004 16.25 7.00003 16.25C7.00002 16.25 7.00001 16.25 7.00001 16.25C7 16.25 7 16.25 7 17ZM2 12H1.25C1.25 15.1756 3.82436 17.75 7 17.75V17V16.25C4.65279 16.25 2.75 14.3472 2.75 12H2ZM2 12H2.75C2.75 9.65279 4.65279 7.75 7 7.75V7V6.25C3.82436 6.25 1.25 8.82436 1.25 12H2Z" fill="currentColor" />
    <path d="M21.0004 15C21.6281 14.1643 22 13.1256 22 12C22 9.23858 19.7614 7 17 7H13.5" stroke="currentColor" stroke-width="2" stroke-linecap="square" stroke-linejoin="round" />
    <path d="M15 16.25H14.25V17.75H15V17V16.25ZM17 17V16.25H15V17V17.75H17V17Z" fill="currentColor" />
    <path d="M8.5 11.25H7.75V12.75H8.5V12V11.25ZM8.5 12V12.75H12V12V11.25H8.5V12Z" fill="currentColor" />
</svg>