<svg xmlns="http://www.w3.org/2000/svg" width="24" height="24" viewBox="0 0 24 24" fill="none">
    <circle cx="11.9999" cy="12" r="9" stroke="currentColor" stroke-width="2" stroke-linecap="round" stroke-linejoin="round" />
    <path d="M8.99991 3.51721C9.58176 3.47053 10.1736 3.51405 10.7492 3.65094C12.0499 3.96034 13.1606 4.72137 13.8369 5.76663C14.5132 6.81189 14.6997 8.05575 14.3554 9.22457C14.0111 10.3934 13.1642 11.3914 12.0009 11.9991C10.8377 12.6069 9.99076 13.6049 9.64644 14.7737C9.30212 15.9425 9.48863 17.1864 10.1649 18.2317C10.8412 19.2769 11.9519 20.038 13.2527 20.3473C13.8275 20.4841 14.4187 20.5277 14.9999 20.4812" stroke="currentColor" stroke-width="2" stroke-linecap="round" stroke-linejoin="round" />
    <path d="M17.8455 5.16003C18.1768 5.6406 18.4351 6.17494 18.6043 6.74182C18.9868 8.023 18.883 9.36541 18.316 10.4737C17.7489 11.5821 16.7649 12.3655 15.5805 12.6517C14.3962 12.938 13.1084 12.7035 12.0004 12C10.8925 11.2964 9.60473 11.062 8.42034 11.3482C7.23595 11.6344 6.25199 12.4179 5.68492 13.5262C5.11786 14.6345 5.01413 15.9769 5.39656 17.2581C5.56558 17.8243 5.82342 18.3581 6.15421 18.8382" stroke="currentColor" stroke-width="2" stroke-linecap="round" stroke-linejoin="round" />
    <path d="M20.8458 13.6421C20.5953 14.1693 20.2617 14.6602 19.8554 15.0901C18.9371 16.0619 17.7226 16.6433 16.4793 16.7064C15.2359 16.7694 14.0654 16.309 13.2254 15.4264C12.3853 14.5438 11.9444 13.3113 11.9997 12.0001C12.0551 10.6888 11.6142 9.45635 10.7741 8.57375C9.93407 7.69115 8.7636 7.23074 7.52023 7.29381C6.27686 7.35687 5.06243 7.93825 4.14411 8.91004C3.73827 9.33951 3.40495 9.82969 3.15454 10.3562" stroke="currentColor" stroke-width="2" stroke-linecap="round" stroke-linejoin="round" />
</svg>