<svg xmlns="http://www.w3.org/2000/svg" width="24" height="24" viewBox="0 0 24 24" fill="none">
    <path d="M12 6.99995C9.79086 6.99995 8 8.80888 8 11.0403C8 12.3162 8.5 13.3083 9.5 14.1945C10.2049 14.8191 11.4873 16.159 12 17C12.5386 16.1757 13.7951 14.8191 14.5 14.1945C15.5 13.3083 16 12.3162 16 11.0403C16 8.80888 14.2091 6.99995 12 6.99995Z" stroke="currentColor" stroke-width="2" stroke-linejoin="round" />
    <path d="M12.125 11H12M12.25 11C12.25 11.1381 12.1381 11.25 12 11.25C11.8619 11.25 11.75 11.1381 11.75 11C11.75 10.8619 11.8619 10.75 12 10.75C12.1381 10.75 12.25 10.8619 12.25 11Z" stroke="currentColor" stroke-width="2" stroke-linecap="round" stroke-linejoin="round" />
    <path d="M20 11L22 12C22 6.47715 17.5228 2 12 2C7.89936 2 4.3752 4.46819 2.83209 8M4 13L2 12C2 17.5228 6.47715 22 12 22C16.1006 22 19.6248 19.5318 21.1679 16" stroke="currentColor" stroke-width="2" stroke-linecap="square" />
</svg>