<svg xmlns="http://www.w3.org/2000/svg" width="24" height="24" viewBox="0 0 24 24" fill="none">
    <path d="M20 9H4V22H20V9Z" stroke="currentColor" stroke-width="2" stroke-linecap="square" />
    <path d="M7.5 9V6.5C7.5 4.01472 9.51472 2 12 2C14.4853 2 16.5 4.01472 16.5 6.5V9" stroke="currentColor" stroke-width="2" stroke-linecap="square" />
    <path d="M12.125 15.5H12M12.25 15.5C12.25 15.6381 12.1381 15.75 12 15.75C11.8619 15.75 11.75 15.6381 11.75 15.5C11.75 15.3619 11.8619 15.25 12 15.25C12.1381 15.25 12.25 15.3619 12.25 15.5Z" stroke="currentColor" stroke-width="2" stroke-linecap="round" stroke-linejoin="round" />
    <path d="M8.125 15.5H8M8.25 15.5C8.25 15.6381 8.13807 15.75 8 15.75C7.86193 15.75 7.75 15.6381 7.75 15.5C7.75 15.3619 7.86193 15.25 8 15.25C8.13807 15.25 8.25 15.3619 8.25 15.5Z" stroke="currentColor" stroke-width="2" stroke-linecap="round" stroke-linejoin="round" />
    <path d="M16.125 15.5H16M16.25 15.5C16.25 15.6381 16.1381 15.75 16 15.75C15.8619 15.75 15.75 15.6381 15.75 15.5C15.75 15.3619 15.8619 15.25 16 15.25C16.1381 15.25 16.25 15.3619 16.25 15.5Z" stroke="currentColor" stroke-width="2" stroke-linecap="round" stroke-linejoin="round" />
</svg>