<svg xmlns="http://www.w3.org/2000/svg" width="24" height="24" viewBox="0 0 24 24" fill="none">
    <path d="M22 3H2V19H22V3Z" stroke="currentColor" stroke-width="2" stroke-linecap="square" />
    <path d="M5.5 7L8.5 7" stroke="currentColor" stroke-width="2" stroke-linecap="square" />
    <path d="M5.5 10L8.5 10" stroke="currentColor" stroke-width="2" stroke-linecap="square" />
    <path d="M15.5 7H18.5" stroke="currentColor" stroke-width="2" stroke-linecap="square" />
    <path d="M15.5 10H18.5" stroke="currentColor" stroke-width="2" stroke-linecap="square" />
    <path d="M20 19V21M4 19V21" stroke="currentColor" stroke-width="2" stroke-linecap="square" />
    <path d="M12 3L12 18" stroke="currentColor" stroke-width="2" stroke-linecap="square" />
    <path d="M8.375 14H8.25M8.5 14C8.5 14.1381 8.38807 14.25 8.25 14.25C8.11193 14.25 8 14.1381 8 14C8 13.8619 8.11193 13.75 8.25 13.75C8.38807 13.75 8.5 13.8619 8.5 14Z" stroke="currentColor" stroke-width="2" stroke-linecap="round" />
    <path d="M18.375 14H18.25M18.5 14C18.5 14.1381 18.3881 14.25 18.25 14.25C18.1119 14.25 18 14.1381 18 14C18 13.8619 18.1119 13.75 18.25 13.75C18.3881 13.75 18.5 13.8619 18.5 14Z" stroke="currentColor" stroke-width="2" stroke-linecap="round" />
</svg>