<svg xmlns="http://www.w3.org/2000/svg" width="24" height="24" viewBox="0 0 24 24" fill="none">
    <path d="M16 19H2L2 3H22V10" stroke="currentColor" stroke-width="2" stroke-linecap="square" />
    <path d="M22 6L12 11L2 6" stroke="currentColor" stroke-width="2" />
    <path d="M18 15C18 13.8954 18.8954 13 20 13C21.1046 13 22 13.8954 22 15C22 15.7571 21.5793 16.4159 20.959 16.7555C20.4745 17.0207 20 17.4477 20 18" stroke="currentColor" stroke-width="2" stroke-linecap="square" />
    <path d="M20.125 20.75H20M20.25 20.75C20.25 20.8881 20.1381 21 20 21C19.8619 21 19.75 20.8881 19.75 20.75C19.75 20.6119 19.8619 20.5 20 20.5C20.1381 20.5 20.25 20.6119 20.25 20.75Z" stroke="currentColor" stroke-width="2" stroke-linecap="round" />
</svg>