<svg xmlns="http://www.w3.org/2000/svg" width="24" height="24" viewBox="0 0 24 24" fill="none">
    <path d="M9 9C8.66525 9.53668 8.5 10.3209 8.5 11C8.5 12.933 10.067 14.5 12 14.5C12.6598 14.5 13.4732 14.3174 14 14" stroke="currentColor" stroke-width="2" stroke-linejoin="round" />
    <path d="M11.5 7.53544C11.6633 7.51209 11.8302 7.5 12 7.5C13.933 7.5 15.5 9.067 15.5 11C15.5 11.1698 15.4879 11.3367 15.4646 11.5" stroke="currentColor" stroke-width="2" stroke-linejoin="round" />
    <path d="M2 2L22 22" stroke="currentColor" stroke-width="2" stroke-linejoin="round" />
    <path d="M19.2993 16.122C20.3041 14.661 21 12.9465 21 11C21 6.02944 16.9706 2 12 2C10.0714 2 8.2845 2.60662 6.81966 3.63946M17.8632 17.8638C15.2661 20.5484 12 22 12 22C12 22 3 18 3 11C3 8.77058 3.81062 6.73048 5.1532 5.15839" stroke="currentColor" stroke-width="2" />
</svg>