<svg xmlns="http://www.w3.org/2000/svg" width="24" height="24" viewBox="0 0 24 24" fill="none">
    <path d="M15 9.19621C14.3876 8.17979 13.2732 7.5 12 7.5C10.067 7.5 8.5 9.067 8.5 11C8.5 12.2732 9.17979 13.3876 10.1962 14" stroke="currentColor" stroke-width="2" />
    <path d="M21 11C21 6.02944 16.9706 2 12 2C7.02944 2 3 6.02944 3 11C3 18 12 22 12 22" stroke="currentColor" stroke-width="2" stroke-linejoin="round" />
    <path d="M19.017 18.5233L21 20.5M20.0531 16.0265C20.0531 14.0789 18.4742 12.5 16.5265 12.5C14.5789 12.5 13 14.0789 13 16.0265C13 17.9742 14.5789 19.5531 16.5265 19.5531C18.4742 19.5531 20.0531 17.9742 20.0531 16.0265Z" stroke="currentColor" stroke-width="2" stroke-linejoin="round" />
</svg>