<svg xmlns="http://www.w3.org/2000/svg" width="24" height="24" viewBox="0 0 24 24" fill="none">
    <path d="M22 16.5C22 20 17.5 22 17.5 22C17.5 22 13 20 13 16.5C13 14.0147 15.0147 12 17.5 12C19.9853 12 22 14.0147 22 16.5Z" stroke="currentColor" stroke-width="2" />
    <path d="M11 14.5C9.067 14.5 7.5 12.933 7.5 11C7.5 9.067 9.067 7.5 11 7.5C12.7533 7.5 14.2056 8.78927 14.4604 10.4715" stroke="currentColor" stroke-width="2" />
    <path d="M19.9662 10.2147C19.5684 5.61188 15.706 2 11 2C6.02944 2 2 6.02944 2 11C2 18 11 22 11 22C11 22 11.6605 21.7065 12.6235 21.1393" stroke="currentColor" stroke-width="2" />
    <path d="M17.625 16.5H17.5M17.75 16.5C17.75 16.6381 17.6381 16.75 17.5 16.75C17.3619 16.75 17.25 16.6381 17.25 16.5C17.25 16.3619 17.3619 16.25 17.5 16.25C17.6381 16.25 17.75 16.3619 17.75 16.5Z" stroke="currentColor" stroke-width="2" stroke-linecap="round" stroke-linejoin="round" />
</svg>