<svg xmlns="http://www.w3.org/2000/svg" width="24" height="24" viewBox="0 0 24 24" fill="none">
    <path d="M14.5 9.5C14.5 10.8807 13.3807 12 12 12C10.6193 12 9.5 10.8807 9.5 9.5C9.5 8.11929 10.6193 7 12 7C13.3807 7 14.5 8.11929 14.5 9.5Z" stroke="currentColor" stroke-width="2" />
    <path d="M19 9.7C19 15.3 12 18.5 12 18.5C12 18.5 5 15.3 5 9.7C5 5.72355 8.13401 2.5 12 2.5C15.866 2.5 19 5.72355 19 9.7Z" stroke="currentColor" stroke-width="2" stroke-linejoin="round" />
    <path d="M19.5 16.5L21.5 21.5H2.5L4.5 16.5" stroke="currentColor" stroke-width="2" />
</svg>