<svg xmlns="http://www.w3.org/2000/svg" width="24" height="24" viewBox="0 0 24 24" fill="none">
    <path d="M22 12C22 17.5228 17.5228 22 12 22C6.47715 22 2 17.5228 2 12C2 6.47715 6.47715 2 12 2C17.5228 2 22 6.47715 22 12Z" stroke="currentColor" stroke-width="2" />
    <path d="M9 15L5 19M15 21L3 9" stroke="currentColor" stroke-width="2" stroke-linecap="round" />
    <path d="M13.875 9.25H13.75M10.5 9.23228C10.5 7.44714 11.9551 6 13.75 6C15.5449 6 17 7.44714 17 9.23228C17 10.253 16.5938 11.0467 15.7812 11.7556C15.2086 12.2553 14.1876 13.3406 13.75 14C13.3334 13.3272 12.2914 12.2553 11.7188 11.7556C10.9062 11.0467 10.5 10.253 10.5 9.23228ZM14 9.25C14 9.38807 13.8881 9.5 13.75 9.5C13.6119 9.5 13.5 9.38807 13.5 9.25C13.5 9.11193 13.6119 9 13.75 9C13.8881 9 14 9.11193 14 9.25Z" stroke="currentColor" stroke-width="2" stroke-linecap="round" />
</svg>