<svg xmlns="http://www.w3.org/2000/svg" width="24" height="24" viewBox="0 0 24 24" fill="none">
    <path d="M21.807 11.9899C21.807 16.9665 18.9398 21.0007 11.807 21.0007C9.84737 21.0007 8.24353 20.7504 6.93982 20.2976C6.43982 20.8657 4.83982 22.002 2.43982 22.002V21.9138C3.38902 21.1833 4.38796 19.4166 3.17862 17.4965C2.17735 15.9737 1.80701 14.0636 1.80701 11.9899C1.80701 7.23108 3.75727 3.33387 10.807 3.00195" stroke="currentColor" stroke-width="2" stroke-linecap="square" />
    <path d="M11.9318 12.002H11.8068M7.93201 12.002H7.80701M12.0568 12.002C12.0568 12.14 11.9449 12.252 11.8068 12.252C11.6688 12.252 11.5568 12.14 11.5568 12.002C11.5568 11.8639 11.6688 11.752 11.8068 11.752C11.9449 11.752 12.0568 11.8639 12.0568 12.002ZM8.05701 12.002C8.05701 12.14 7.94508 12.252 7.80701 12.252C7.66894 12.252 7.55701 12.14 7.55701 12.002C7.55701 11.8639 7.66894 11.752 7.80701 11.752C7.94508 11.752 8.05701 11.8639 8.05701 12.002Z" stroke="currentColor" stroke-width="2" stroke-linecap="round" />
    <path d="M17.807 6.00195L18.807 5.00195M21.807 6.00195C21.807 8.21109 20.0161 10.002 17.807 10.002C15.5979 10.002 13.807 8.21109 13.807 6.00195C13.807 3.79281 15.5979 2.00195 17.807 2.00195C20.0161 2.00195 21.807 3.79281 21.807 6.00195Z" stroke="currentColor" stroke-width="2" stroke-linecap="square" />
</svg>