<svg xmlns="http://www.w3.org/2000/svg" width="24" height="24" viewBox="0 0 24 24" fill="none">
    <path d="M2 10.4899C2 9.8071 2.01057 9.13868 2.0308 8.48993M22 10.4899C22 9.8071 21.9894 9.13868 21.9692 8.48993M8 18.4118V21.4899H8.13107L12.5 18.4888C13.712 18.483 14.8849 18.4565 16 18.4118M4 18.1522C3.47262 18.1027 2.97148 18.0485 2.5 17.9899C2.34093 16.9782 2.21361 15.7936 2.12726 14.4899M2.30161 4.48993C2.36043 3.95687 2.42686 3.45512 2.5 2.98993C2.97148 2.93141 3.47262 2.87718 4 2.82771M8 2.56802C8.64834 2.54204 9.31624 2.52221 10 2.50903M14 2.50903C14.6838 2.52221 15.3517 2.54204 16 2.56802M20 2.82771C20.5274 2.87718 21.0285 2.93141 21.5 2.98993C21.5731 3.45512 21.6396 3.95687 21.6984 4.48993M20 18.1522C20.5274 18.1027 21.0285 18.0485 21.5 17.9899C21.6591 16.9782 21.7864 15.7936 21.8727 14.4899" stroke="currentColor" stroke-width="2" stroke-linecap="square" />
</svg>