<svg xmlns="http://www.w3.org/2000/svg" width="24" height="24" viewBox="0 0 24 24" fill="none">
    <path d="M21.8622 11.9994C21.8622 16.97 18.995 20.9994 11.8622 20.9994C9.90255 20.9994 8.29871 20.7494 6.995 20.2971C6.495 20.8645 4.895 21.9994 2.495 21.9994V21.9113C3.44419 21.1817 4.44314 19.4172 3.23379 17.4994C2.23252 15.9784 1.86218 14.0706 1.86218 11.9994C1.86218 7.02883 3.995 2.99939 11.8622 2.99939C12.2066 2.99939 12.5399 3.00662 12.8622 3.02084" stroke="currentColor" stroke-width="2" stroke-linecap="square" />
    <path d="M11.987 11.9994H11.862M15.9872 11.9994H15.8622M7.98718 11.9994H7.86218M12.112 11.9994C12.112 12.1375 12.0001 12.2494 11.862 12.2494C11.7239 12.2494 11.612 12.1375 11.612 11.9994C11.612 11.8613 11.7239 11.7494 11.862 11.7494C12.0001 11.7494 12.112 11.8613 12.112 11.9994ZM16.1122 11.9994C16.1122 12.1375 16.0003 12.2494 15.8622 12.2494C15.7241 12.2494 15.6122 12.1375 15.6122 11.9994C15.6122 11.8613 15.7241 11.7494 15.8622 11.7494C16.0003 11.7494 16.1122 11.8613 16.1122 11.9994ZM8.11218 11.9994C8.11218 12.1375 8.00025 12.2494 7.86218 12.2494C7.72411 12.2494 7.61218 12.1375 7.61218 11.9994C7.61218 11.8613 7.72411 11.7494 7.86218 11.7494C8.00025 11.7494 8.11218 11.8613 8.11218 11.9994Z" stroke="currentColor" stroke-width="2" stroke-linecap="round" />
    <path d="M21.8622 5.99939L18.8622 8.99939L15.8622 5.99939M18.8622 1.99939V8.49939" stroke="currentColor" stroke-width="2" stroke-linecap="square" />
</svg>