<svg xmlns="http://www.w3.org/2000/svg" width="24" height="24" viewBox="0 0 24 24" fill="none">
    <path d="M2 10.5C2 7.60811 2.18952 4.97468 2.5 3C5.00126 2.68952 8.33695 2.5 12 2.5C15.6631 2.5 18.9987 2.68952 21.5 3C21.8105 4.97468 22 7.60811 22 10.5C22 13.3919 21.8105 16.0253 21.5 18C19.113 18.2963 15.9661 18.4824 12.5 18.4988L8.13107 21.5H8V18.4219C5.92608 18.3388 4.05234 18.1927 2.5 18C2.18952 16.0253 2 13.3919 2 10.5Z" stroke="currentColor" stroke-width="2" stroke-linecap="square" />
    <path d="M12.1257 10.5H12.0007M8.125 10.5H8M16.125 10.5H16M12.2507 10.5C12.2507 10.6381 12.1388 10.75 12.0007 10.75C11.8627 10.75 11.7507 10.6381 11.7507 10.5C11.7507 10.3619 11.8627 10.25 12.0007 10.25C12.1388 10.25 12.2507 10.3619 12.2507 10.5ZM8.25 10.5C8.25 10.6381 8.13807 10.75 8 10.75C7.86193 10.75 7.75 10.6381 7.75 10.5C7.75 10.3619 7.86193 10.25 8 10.25C8.13807 10.25 8.25 10.3619 8.25 10.5ZM16.25 10.5C16.25 10.6381 16.1381 10.75 16 10.75C15.8619 10.75 15.75 10.6381 15.75 10.5C15.75 10.3619 15.8619 10.25 16 10.25C16.1381 10.25 16.25 10.3619 16.25 10.5Z" stroke="currentColor" stroke-width="2" stroke-linecap="round" stroke-linejoin="round" />
</svg>