<svg xmlns="http://www.w3.org/2000/svg" width="24" height="24" viewBox="0 0 24 24" fill="none">
    <path d="M21.8812 10C21.9643 10.6432 22 11.3126 22 12C22 16.9706 19.1328 21 12 21C10.0404 21 8.43652 20.75 7.13281 20.2977C6.63281 20.8651 5.03281 22 2.63281 22V21.9119C3.58201 21.1823 4.58095 19.4178 3.37161 17.5C2.37034 15.9791 2 14.0712 2 12C2 7.02944 4.13281 3 12 3C12.3445 3 12.6777 3.00723 13 3.02145" stroke="currentColor" stroke-width="2" stroke-linecap="square" />
    <path d="M12.1248 12H11.9998M8.125 12H8M12.2498 12C12.2498 12.1381 12.1379 12.25 11.9998 12.25C11.8618 12.25 11.7498 12.1381 11.7498 12C11.7498 11.8619 11.8618 11.75 11.9998 11.75C12.1379 11.75 12.2498 11.8619 12.2498 12ZM8.25 12C8.25 12.1381 8.13807 12.25 8 12.25C7.86193 12.25 7.75 12.1381 7.75 12C7.75 11.8619 7.86193 11.75 8 11.75C8.13807 11.75 8.25 11.8619 8.25 12Z" stroke="currentColor" stroke-width="2" stroke-linecap="round" stroke-linejoin="round" />
    <path d="M15 6.8125V9H17.1875L22 4.1875L19.8125 2L15 6.8125Z" stroke="currentColor" stroke-width="2" stroke-linecap="square" />
</svg>