<svg xmlns="http://www.w3.org/2000/svg" width="24" height="24" viewBox="0 0 24 24" fill="none">
    <path d="M11.9223 12.0017H11.7973M7.92249 12.0017H7.79749M12.0473 12.0017C12.0473 12.1398 11.9354 12.2517 11.7973 12.2517C11.6593 12.2517 11.5473 12.1398 11.5473 12.0017C11.5473 11.8636 11.6593 11.7517 11.7973 11.7517C11.9354 11.7517 12.0473 11.8636 12.0473 12.0017ZM8.04749 12.0017C8.04749 12.1398 7.93556 12.2517 7.79749 12.2517C7.65941 12.2517 7.54749 12.1398 7.54749 12.0017C7.54749 11.8636 7.65941 11.7517 7.79749 11.7517C7.93556 11.7517 8.04749 11.8636 8.04749 12.0017Z" stroke="currentColor" stroke-width="2" stroke-linecap="round" />
    <path d="M16.2975 5.50171V4.00171C16.2975 2.89714 17.1929 2.00171 18.2975 2.00171C18.8498 2.00171 19.3498 2.22557 19.7117 2.5875M21.7975 5.50171V10.0017H14.7975V5.50171H21.7975Z" stroke="currentColor" stroke-width="2" stroke-linecap="square" />
    <path d="M11.7975 3.00171C3.9303 3.00171 1.79749 7.03115 1.79749 12.0017C1.79749 14.0729 2.16782 15.9808 3.1691 17.5017C4.37844 19.4195 3.3795 21.184 2.4303 21.9136V22.0017C4.8303 22.0017 6.4303 20.8668 6.9303 20.2994C8.23401 20.7517 9.83785 21.0017 11.7975 21.0017C18.4453 21.0017 21.428 17.5017 21.7975 13.0017" stroke="currentColor" stroke-width="2" stroke-linecap="square" />
</svg>