<svg xmlns="http://www.w3.org/2000/svg" width="24" height="24" viewBox="0 0 24 24" fill="none">
    <path d="M22 12.001C22 16.9715 19.1328 21.001 12 21.001C10.0404 21.001 8.43652 20.751 7.13281 20.2987C6.63281 20.8661 5.03281 22.001 2.63281 22.001V21.9129C3.58201 21.1833 4.58095 19.4187 3.37161 17.501C2.37034 15.98 2 14.0722 2 12.001C2 7.03041 4.13281 3.00098 12 3.00098" stroke="currentColor" stroke-width="2" stroke-linecap="square" />
    <path d="M12.1248 12.001H11.9998M8.125 12.001H8M12.2498 12.001C12.2498 12.139 12.1379 12.251 11.9998 12.251C11.8618 12.251 11.7498 12.139 11.7498 12.001C11.7498 11.8629 11.8618 11.751 11.9998 11.751C12.1379 11.751 12.2498 11.8629 12.2498 12.001ZM8.25 12.001C8.25 12.139 8.13807 12.251 8 12.251C7.86193 12.251 7.75 12.139 7.75 12.001C7.75 11.8629 7.86193 11.751 8 11.751C8.13807 11.751 8.25 11.8629 8.25 12.001Z" stroke="currentColor" stroke-width="2" stroke-linecap="round" />
    <path d="M21.998 5.49902V2.99902C19.998 2.99902 18.498 1.99902 18.498 1.99902C18.498 1.99902 16.998 2.99902 14.998 2.99902V5.49902C14.998 8.99902 18.498 9.99902 18.498 9.99902C18.498 9.99902 21.998 8.99902 21.998 5.49902Z" stroke="currentColor" stroke-width="2" stroke-linecap="square" />
</svg>