<svg xmlns="http://www.w3.org/2000/svg" width="24" height="24" viewBox="0 0 24 24" fill="none">
    <path d="M12.1239 12.249H11.9989M16.124 12.249H15.999M8.12402 12.249H7.99902M12.2489 12.249C12.2489 12.3871 12.1369 12.499 11.9989 12.499C11.8608 12.499 11.7489 12.3871 11.7489 12.249C11.7489 12.1109 11.8608 11.999 11.9989 11.999C12.1369 11.999 12.2489 12.1109 12.2489 12.249ZM16.249 12.249C16.249 12.3871 16.1371 12.499 15.999 12.499C15.861 12.499 15.749 12.3871 15.749 12.249C15.749 12.1109 15.861 11.999 15.999 11.999C16.1371 11.999 16.249 12.1109 16.249 12.249ZM8.24902 12.249C8.24902 12.3871 8.13709 12.499 7.99902 12.499C7.86095 12.499 7.74902 12.3871 7.74902 12.249C7.74902 12.1109 7.86095 11.999 7.99902 11.999C8.13709 11.999 8.24902 12.1109 8.24902 12.249Z" stroke="currentColor" stroke-width="2" stroke-linecap="round" />
    <path d="M15.999 5.249H21.999M18.999 2.249L18.999 8.249" stroke="currentColor" stroke-width="2" stroke-linecap="square" />
    <path d="M12.999 3.27045C12.6767 3.25623 12.3435 3.249 11.999 3.249C4.13184 3.249 1.99902 7.27843 1.99902 12.249C1.99902 14.3202 2.36936 16.2281 3.37064 17.749C4.57998 19.6668 3.58103 21.4313 2.63184 22.1609V22.249C5.03184 22.249 6.63184 21.1141 7.13184 20.5467C8.43555 20.999 10.0394 21.249 11.999 21.249C19.1318 21.249 21.999 17.2196 21.999 12.249C21.999 11.5616 21.9633 10.8922 21.8803 10.249" stroke="currentColor" stroke-width="2" stroke-linecap="square" />
</svg>