<svg xmlns="http://www.w3.org/2000/svg" width="24" height="24" viewBox="0 0 24 24" fill="none">
    <path d="M11.9662 11.9999H11.8412M7.96637 11.9999H7.84137M12.0912 11.9999C12.0912 12.1379 11.9793 12.2499 11.8412 12.2499C11.7031 12.2499 11.5912 12.1379 11.5912 11.9999C11.5912 11.8618 11.7031 11.7499 11.8412 11.7499C11.9793 11.7499 12.0912 11.8618 12.0912 11.9999ZM8.09137 11.9999C8.09137 12.1379 7.97944 12.2499 7.84137 12.2499C7.7033 12.2499 7.59137 12.1379 7.59137 11.9999C7.59137 11.8618 7.7033 11.7499 7.84137 11.7499C7.97944 11.7499 8.09137 11.8618 8.09137 11.9999Z" stroke="currentColor" stroke-width="2" stroke-linecap="round" />
    <path d="M16.3414 5.49988V3.99988C16.3414 2.89531 17.2368 1.99988 18.3414 1.99988C19.4459 1.99988 20.3414 2.89531 20.3414 3.99988V5.49988M21.8414 5.49988V9.99988H14.8414V5.49988H21.8414Z" stroke="currentColor" stroke-width="2" stroke-linecap="square" />
    <path d="M11.8414 2.99988C3.97418 2.99988 1.84137 7.02931 1.84137 11.9999C1.84137 14.0711 2.21171 15.9789 3.21298 17.4999C4.42232 19.4176 3.42338 21.1822 2.47418 21.9118V21.9999C4.87418 21.9999 6.47418 20.865 6.97418 20.2976C8.27789 20.7499 9.88173 20.9999 11.8414 20.9999C18.4891 20.9999 21.4719 17.4998 21.8414 12.9999" stroke="currentColor" stroke-width="2" stroke-linecap="square" />
</svg>