<svg xmlns="http://www.w3.org/2000/svg" width="24" height="24" viewBox="0 0 24 24" fill="none">
    <path d="M2 8.73684C2 6.30157 2.16109 4.08394 2.425 2.42105C4.55107 2.1596 7.3864 2 10.5 2C13.6136 2 16.4489 2.1596 18.575 2.42105C18.8389 4.08394 19 6.30157 19 8.73684C19 11.1721 18.8389 13.3897 18.575 15.0526C16.5461 15.3021 13.8712 15.4589 10.925 15.4727L7.21141 18H7.1V15.4079C5.33716 15.3379 3.74449 15.2149 2.425 15.0526C2.16109 13.3897 2 11.1721 2 8.73684Z" stroke="currentColor" stroke-width="2" stroke-linecap="square" />
    <path d="M13.075 19.4727L16.7886 22H16.9V19.4079C18.6628 19.3379 20.2555 19.2149 21.575 19.0526C21.8389 17.3897 22 15.1721 22 12.7368C22 11.4082 21.952 10.1443 21.8656 9" stroke="currentColor" stroke-width="2" stroke-linecap="square" />
</svg>