<svg xmlns="http://www.w3.org/2000/svg" width="24" height="24" viewBox="0 0 24 24" fill="none">
    <path d="M8.74805 2.5V1.75H7.24805V2.5H7.99805H8.74805ZM7.99805 21.5H8.74805C8.74805 21.4939 8.74805 21.4878 8.74805 21.4817C8.74805 21.4756 8.74805 21.4695 8.74805 21.4634C8.74805 21.4574 8.74805 21.4513 8.74805 21.4452C8.74805 21.4391 8.74805 21.433 8.74805 21.427C8.74805 21.4209 8.74805 21.4148 8.74805 21.4088C8.74805 21.4027 8.74805 21.3966 8.74805 21.3906C8.74805 21.3845 8.74805 21.3785 8.74805 21.3724C8.74805 21.3664 8.74805 21.3603 8.74805 21.3543C8.74805 21.3482 8.74805 21.3422 8.74805 21.3361C8.74805 21.3301 8.74805 21.324 8.74805 21.318C8.74805 21.312 8.74805 21.3059 8.74805 21.2999C8.74805 21.2939 8.74805 21.2879 8.74805 21.2818C8.74805 21.2758 8.74805 21.2698 8.74805 21.2638C8.74805 21.2578 8.74805 21.2518 8.74805 21.2458C8.74805 21.2397 8.74805 21.2337 8.74805 21.2277C8.74805 21.2217 8.74805 21.2157 8.74805 21.2097C8.74805 21.2037 8.74805 21.1978 8.74805 21.1918C8.74805 21.1858 8.74805 21.1798 8.74805 21.1738C8.74805 21.1678 8.74805 21.1618 8.74805 21.1559C8.74805 21.1499 8.74805 21.1439 8.74805 21.1379C8.74805 21.132 8.74805 21.126 8.74805 21.12C8.74805 21.1141 8.74805 21.1081 8.74805 21.1021C8.74805 21.0962 8.74805 21.0902 8.74805 21.0843C8.74805 21.0783 8.74805 21.0724 8.74805 21.0664C8.74805 21.0605 8.74805 21.0545 8.74805 21.0486C8.74805 21.0426 8.74805 21.0367 8.74805 21.0308C8.74805 21.0248 8.74805 21.0189 8.74805 21.013C8.74805 21.007 8.74805 21.0011 8.74805 20.9952C8.74805 20.9893 8.74805 20.9833 8.74805 20.9774C8.74805 20.9715 8.74805 20.9656 8.74805 20.9597C8.74805 20.9538 8.74805 20.9479 8.74805 20.942C8.74805 20.9361 8.74805 20.9301 8.74805 20.9242C8.74805 20.9183 8.74805 20.9125 8.74805 20.9066C8.74805 20.9007 8.74805 20.8948 8.74805 20.8889C8.74805 20.883 8.74805 20.8771 8.74805 20.8712C8.74805 20.8653 8.74805 20.8595 8.74805 20.8536C8.74805 20.8477 8.74805 20.8418 8.74805 20.836C8.74805 20.8301 8.74805 20.8242 8.74805 20.8184C8.74805 20.8125 8.74805 20.8066 8.74805 20.8008C8.74805 20.7949 8.74805 20.789 8.74805 20.7832C8.74805 20.7773 8.74805 20.7715 8.74805 20.7656C8.74805 20.7598 8.74805 20.7539 8.74805 20.7481C8.74805 20.7423 8.74805 20.7364 8.74805 20.7306C8.74805 20.7247 8.74805 20.7189 8.74805 20.7131C8.74805 20.7072 8.74805 20.7014 8.74805 20.6956C8.74805 20.6897 8.74805 20.6839 8.74805 20.6781C8.74805 20.6723 8.74805 20.6665 8.74805 20.6606C8.74805 20.6548 8.74805 20.649 8.74805 20.6432C8.74805 20.6374 8.74805 20.6316 8.74805 20.6258C8.74805 20.62 8.74805 20.6142 8.74805 20.6084C8.74805 20.6026 8.74805 20.5968 8.74805 20.591C8.74805 20.5852 8.74805 20.5794 8.74805 20.5736C8.74805 20.5678 8.74805 20.562 8.74805 20.5562C8.74805 20.5505 8.74805 20.5447 8.74805 20.5389C8.74805 20.5331 8.74805 20.5273 8.74805 20.5216C8.74805 20.5158 8.74805 20.51 8.74805 20.5043C8.74805 20.4985 8.74805 20.4927 8.74805 20.487C8.74805 20.4812 8.74805 20.4754 8.74805 20.4697C8.74805 20.4639 8.74805 20.4582 8.74805 20.4524C8.74805 20.4467 8.74805 20.4409 8.74805 20.4352C8.74805 20.4294 8.74805 20.4237 8.74805 20.4179C8.74805 20.4122 8.74805 20.4064 8.74805 20.4007C8.74805 20.395 8.74805 20.3892 8.74805 20.3835C8.74805 20.3778 8.74805 20.372 8.74805 20.3663C8.74805 20.3606 8.74805 20.3548 8.74805 20.3491C8.74805 20.3434 8.74805 20.3377 8.74805 20.332C8.74805 20.3262 8.74805 20.3205 8.74805 20.3148C8.74805 20.3091 8.74805 20.3034 8.74805 20.2977C8.74805 20.292 8.74805 20.2863 8.74805 20.2806C8.74805 20.2749 8.74805 20.2692 8.74805 20.2635C8.74805 20.2578 8.74805 20.2521 8.74805 20.2464C8.74805 20.2407 8.74805 20.235 8.74805 20.2293C8.74805 20.2236 8.74805 20.2179 8.74805 20.2122C8.74805 20.2065 8.74805 20.2009 8.74805 20.1952C8.74805 20.1895 8.74805 20.1838 8.74805 20.1782C8.74805 20.1725 8.74805 20.1668 8.74805 20.1611C8.74805 20.1555 8.74805 20.1498 8.74805 20.1441C8.74805 20.1385 8.74805 20.1328 8.74805 20.1271C8.74805 20.1215 8.74805 20.1158 8.74805 20.1102C8.74805 20.1045 8.74805 20.0989 8.74805 20.0932C8.74805 20.0875 8.74805 20.0819 8.74805 20.0763C8.74805 20.0706 8.74805 20.065 8.74805 20.0593C8.74805 20.0537 8.74805 20.048 8.74805 20.0424C8.74805 20.0368 8.74805 20.0311 8.74805 20.0255C8.74805 20.0199 8.74805 20.0142 8.74805 20.0086C8.74805 20.003 8.74805 19.9973 8.74805 19.9917C8.74805 19.9861 8.74805 19.9805 8.74805 19.9748C8.74805 19.9692 8.74805 19.9636 8.74805 19.958C8.74805 19.9524 8.74805 19.9468 8.74805 19.9411C8.74805 19.9355 8.74805 19.9299 8.74805 19.9243C8.74805 19.9187 8.74805 19.9131 8.74805 19.9075C8.74805 19.9019 8.74805 19.8963 8.74805 19.8907C8.74805 19.8851 8.74805 19.8795 8.74805 19.8739C8.74805 19.8683 8.74805 19.8627 8.74805 19.8571C8.74805 19.8515 8.74805 19.8459 8.74805 19.8404C8.74805 19.8348 8.74805 19.8292 8.74805 19.8236C8.74805 19.818 8.74805 19.8124 8.74805 19.8069C8.74805 19.8013 8.74805 19.7957 8.74805 19.7901C8.74805 19.7846 8.74805 19.779 8.74805 19.7734C8.74805 19.7678 8.74805 19.7623 8.74805 19.7567C8.74805 19.7511 8.74805 19.7456 8.74805 19.74C8.74805 19.7345 8.74805 19.7289 8.74805 19.7233C8.74805 19.7178 8.74805 19.7122 8.74805 19.7067C8.74805 19.7011 8.74805 19.6956 8.74805 19.69C8.74805 19.6845 8.74805 19.6789 8.74805 19.6734C8.74805 19.6678 8.74805 19.6623 8.74805 19.6567C8.74805 19.6512 8.74805 19.6457 8.74805 19.6401C8.74805 19.6346 8.74805 19.629 8.74805 19.6235C8.74805 19.618 8.74805 19.6124 8.74805 19.6069C8.74805 19.6014 8.74805 19.5958 8.74805 19.5903C8.74805 19.5848 8.74805 19.5793 8.74805 19.5737C8.74805 19.5682 8.74805 19.5627 8.74805 19.5572C8.74805 19.5517 8.74805 19.5461 8.74805 19.5406C8.74805 19.5351 8.74805 19.5296 8.74805 19.5241C8.74805 19.5186 8.74805 19.5131 8.74805 19.5076C8.74805 19.502 8.74805 19.4965 8.74805 19.491C8.74805 19.4855 8.74805 19.48 8.74805 19.4745C8.74805 19.469 8.74805 19.4635 8.74805 19.458C8.74805 19.4525 8.74805 19.447 8.74805 19.4415C8.74805 19.436 8.74805 19.4306 8.74805 19.4251C8.74805 19.4196 8.74805 19.4141 8.74805 19.4086C8.74805 19.4031 8.74805 19.3976 8.74805 19.3921C8.74805 19.3867 8.74805 19.3812 8.74805 19.3757C8.74805 19.3702 8.74805 19.3647 8.74805 19.3593C8.74805 19.3538 8.74805 19.3483 8.74805 19.3428C8.74805 19.3374 8.74805 19.3319 8.74805 19.3264C8.74805 19.321 8.74805 19.3155 8.74805 19.31C8.74805 19.3046 8.74805 19.2991 8.74805 19.2936C8.74805 19.2882 8.74805 19.2827 8.74805 19.2772C8.74805 19.2718 8.74805 19.2663 8.74805 19.2609C8.74805 19.2554 8.74805 19.25 8.74805 19.2445C8.74805 19.239 8.74805 19.2336 8.74805 19.2281C8.74805 19.2227 8.74805 19.2172 8.74805 19.2118C8.74805 19.2064 8.74805 19.2009 8.74805 19.1955C8.74805 19.19 8.74805 19.1846 8.74805 19.1791C8.74805 19.1737 8.74805 19.1683 8.74805 19.1628C8.74805 19.1574 8.74805 19.1519 8.74805 19.1465C8.74805 19.1411 8.74805 19.1356 8.74805 19.1302C8.74805 19.1248 8.74805 19.1194 8.74805 19.1139C8.74805 19.1085 8.74805 19.1031 8.74805 19.0976C8.74805 19.0922 8.74805 19.0868 8.74805 19.0814C8.74805 19.0759 8.74805 19.0705 8.74805 19.0651C8.74805 19.0597 8.74805 19.0543 8.74805 19.0489C8.74805 19.0434 8.74805 19.038 8.74805 19.0326C8.74805 19.0272 8.74805 19.0218 8.74805 19.0164C8.74805 19.011 8.74805 19.0056 8.74805 19.0001C8.74805 18.9947 8.74805 18.9893 8.74805 18.9839C8.74805 18.9785 8.74805 18.9731 8.74805 18.9677C8.74805 18.9623 8.74805 18.9569 8.74805 18.9515C8.74805 18.9461 8.74805 18.9407 8.74805 18.9353C8.74805 18.9299 8.74805 18.9245 8.74805 18.9191C8.74805 18.9137 8.74805 18.9083 8.74805 18.903C8.74805 18.8976 8.74805 18.8922 8.74805 18.8868C8.74805 18.8814 8.74805 18.876 8.74805 18.8706C8.74805 18.8652 8.74805 18.8599 8.74805 18.8545C8.74805 18.8491 8.74805 18.8437 8.74805 18.8383C8.74805 18.8329 8.74805 18.8276 8.74805 18.8222C8.74805 18.8168 8.74805 18.8114 8.74805 18.8061C8.74805 18.8007 8.74805 18.7953 8.74805 18.7899C8.74805 18.7846 8.74805 18.7792 8.74805 18.7738C8.74805 18.7684 8.74805 18.7631 8.74805 18.7577C8.74805 18.7523 8.74805 18.747 8.74805 18.7416C8.74805 18.7362 8.74805 18.7309 8.74805 18.7255C8.74805 18.7202 8.74805 18.7148 8.74805 18.7094C8.74805 18.7041 8.74805 18.6987 8.74805 18.6934C8.74805 18.688 8.74805 18.6826 8.74805 18.6773C8.74805 18.6719 8.74805 18.6666 8.74805 18.6612C8.74805 18.6559 8.74805 18.6505 8.74805 18.6452C8.74805 18.6398 8.74805 18.6345 8.74805 18.6291C8.74805 18.6238 8.74805 18.6184 8.74805 18.6131C8.74805 18.6077 8.74805 18.6024 8.74805 18.597C8.74805 18.5917 8.74805 18.5863 8.74805 18.581C8.74805 18.5757 8.74805 18.5703 8.74805 18.565C8.74805 18.5596 8.74805 18.5543 8.74805 18.549C8.74805 18.5436 8.74805 18.5383 8.74805 18.5329C8.74805 18.5276 8.74805 18.5223 8.74805 18.5169C8.74805 18.5116 8.74805 18.5063 8.74805 18.5009C8.74805 18.4956 8.74805 18.4903 8.74805 18.4849C8.74805 18.4796 8.74805 18.4743 8.74805 18.469C8.74805 18.4636 8.74805 18.4583 8.74805 18.453C8.74805 18.4476 8.74805 18.4423 8.74805 18.437C8.74805 18.4317 8.74805 18.4264 8.74805 18.421C8.74805 18.4157 8.74805 18.4104 8.74805 18.4051C8.74805 18.3997 8.74805 18.3944 8.74805 18.3891C8.74805 18.3838 8.74805 18.3785 8.74805 18.3732C8.74805 18.3678 8.74805 18.3625 8.74805 18.3572C8.74805 18.3519 8.74805 18.3466 8.74805 18.3413C8.74805 18.336 8.74805 18.3306 8.74805 18.3253C8.74805 18.32 8.74805 18.3147 8.74805 18.3094C8.74805 18.3041 8.74805 18.2988 8.74805 18.2935C8.74805 18.2882 8.74805 18.2829 8.74805 18.2776C8.74805 18.2722 8.74805 18.2669 8.74805 18.2616C8.74805 18.2563 8.74805 18.251 8.74805 18.2457C8.74805 18.2404 8.74805 18.2351 8.74805 18.2298C8.74805 18.2245 8.74805 18.2192 8.74805 18.2139C8.74805 18.2086 8.74805 18.2033 8.74805 18.198C8.74805 18.1927 8.74805 18.1874 8.74805 18.1821C8.74805 18.1768 8.74805 18.1715 8.74805 18.1663C8.74805 18.161 8.74805 18.1557 8.74805 18.1504C8.74805 18.1451 8.74805 18.1398 8.74805 18.1345C8.74805 18.1292 8.74805 18.1239 8.74805 18.1186C8.74805 18.1133 8.74805 18.108 8.74805 18.1027C8.74805 18.0975 8.74805 18.0922 8.74805 18.0869C8.74805 18.0816 8.74805 18.0763 8.74805 18.071C8.74805 18.0657 8.74805 18.0604 8.74805 18.0552C8.74805 18.0499 8.74805 18.0446 8.74805 18.0393C8.74805 18.034 8.74805 18.0287 8.74805 18.0235C8.74805 18.0182 8.74805 18.0129 8.74805 18.0076C8.74805 18.0023 8.74805 17.9971 8.74805 17.9918C8.74805 17.9865 8.74805 17.9812 8.74805 17.9759C8.74805 17.9707 8.74805 17.9654 8.74805 17.9601C8.74805 17.9548 8.74805 17.9495 8.74805 17.9443C8.74805 17.939 8.74805 17.9337 8.74805 17.9284C8.74805 17.9232 8.74805 17.9179 8.74805 17.9126C8.74805 17.9073 8.74805 17.9021 8.74805 17.8968C8.74805 17.8915 8.74805 17.8863 8.74805 17.881C8.74805 17.8757 8.74805 17.8704 8.74805 17.8652C8.74805 17.8599 8.74805 17.8546 8.74805 17.8494C8.74805 17.8441 8.74805 17.8388 8.74805 17.8335C8.74805 17.8283 8.74805 17.823 8.74805 17.8177C8.74805 17.8125 8.74805 17.8072 8.74805 17.8019C8.74805 17.7967 8.74805 17.7914 8.74805 17.7861C8.74805 17.7809 8.74805 17.7756 8.74805 17.7703C8.74805 17.7651 8.74805 17.7598 8.74805 17.7545C8.74805 17.7493 8.74805 17.744 8.74805 17.7388C8.74805 17.7335 8.74805 17.7282 8.74805 17.723C8.74805 17.7177 8.74805 17.7124 8.74805 17.7072C8.74805 17.7019 8.74805 17.6967 8.74805 17.6914C8.74805 17.6861 8.74805 17.6809 8.74805 17.6756C8.74805 17.6703 8.74805 17.6651 8.74805 17.6598C8.74805 17.6546 8.74805 17.6493 8.74805 17.644C8.74805 17.6388 8.74805 17.6335 8.74805 17.6283C8.74805 17.623 8.74805 17.6178 8.74805 17.6125C8.74805 17.6072 8.74805 17.602 8.74805 17.5967C8.74805 17.5915 8.74805 17.5862 8.74805 17.581C8.74805 17.5757 8.74805 17.5704 8.74805 17.5652C8.74805 17.5599 8.74805 17.5547 8.74805 17.5494C8.74805 17.5442 8.74805 17.5389 8.74805 17.5336C8.74805 17.5284 8.74805 17.5231 8.74805 17.5179C8.74805 17.5126 8.74805 17.5074 8.74805 17.5021C8.74805 17.4969 8.74805 17.4916 8.74805 17.4864C8.74805 17.4811 8.74805 17.4758 8.74805 17.4706C8.74805 17.4653 8.74805 17.4601 8.74805 17.4548C8.74805 17.4496 8.74805 17.4443 8.74805 17.4391C8.74805 17.4338 8.74805 17.4286 8.74805 17.4233C8.74805 17.4181 8.74805 17.4128 8.74805 17.4076C8.74805 17.4023 8.74805 17.397 8.74805 17.3918C8.74805 17.3865 8.74805 17.3813 8.74805 17.376C8.74805 17.3708 8.74805 17.3655 8.74805 17.3603C8.74805 17.355 8.74805 17.3498 8.74805 17.3445C8.74805 17.3393 8.74805 17.334 8.74805 17.3288C8.74805 17.3235 8.74805 17.3183 8.74805 17.313C8.74805 17.3078 8.74805 17.3025 8.74805 17.2973C8.74805 17.292 8.74805 17.2868 8.74805 17.2815C8.74805 17.2763 8.74805 17.271 8.74805 17.2658C8.74805 17.2605 8.74805 17.2553 8.74805 17.25C8.74805 17.2447 8.74805 17.2395 8.74805 17.2342C8.74805 17.229 8.74805 17.2237 8.74805 17.2185C8.74805 17.2132 8.74805 17.208 8.74805 17.2027C8.74805 17.1975 8.74805 17.1922 8.74805 17.187C8.74805 17.1817 8.74805 17.1765 8.74805 17.1712C8.74805 17.166 8.74805 17.1607 8.74805 17.1555C8.74805 17.1502 8.74805 17.145 8.74805 17.1397C8.74805 17.1345 8.74805 17.1292 8.74805 17.124C8.74805 17.1187 8.74805 17.1135 8.74805 17.1082C8.74805 17.103 8.74805 17.0977 8.74805 17.0924C8.74805 17.0872 8.74805 17.0819 8.74805 17.0767C8.74805 17.0714 8.74805 17.0662 8.74805 17.0609C8.74805 17.0557 8.74805 17.0504 8.74805 17.0452C8.74805 17.0399 8.74805 17.0347 8.74805 17.0294C8.74805 17.0242 8.74805 17.0189 8.74805 17.0136C8.74805 17.0084 8.74805 17.0031 8.74805 16.9979C8.74805 16.9926 8.74805 16.9874 8.74805 16.9821C8.74805 16.9769 8.74805 16.9716 8.74805 16.9664C8.74805 16.9611 8.74805 16.9558 8.74805 16.9506C8.74805 16.9453 8.74805 16.9401 8.74805 16.9348C8.74805 16.9296 8.74805 16.9243 8.74805 16.919C8.74805 16.9138 8.74805 16.9085 8.74805 16.9033C8.74805 16.898 8.74805 16.8928 8.74805 16.8875C8.74805 16.8822 8.74805 16.877 8.74805 16.8717C8.74805 16.8665 8.74805 16.8612 8.74805 16.856C8.74805 16.8507 8.74805 16.8454 8.74805 16.8402C8.74805 16.8349 8.74805 16.8297 8.74805 16.8244C8.74805 16.8191 8.74805 16.8139 8.74805 16.8086C8.74805 16.8033 8.74805 16.7981 8.74805 16.7928C8.74805 16.7876 8.74805 16.7823 8.74805 16.777C8.74805 16.7718 8.74805 16.7665 8.74805 16.7612C8.74805 16.756 8.74805 16.7507 8.74805 16.7455C8.74805 16.7402 8.74805 16.7349 8.74805 16.7297C8.74805 16.7244 8.74805 16.7191 8.74805 16.7139C8.74805 16.7086 8.74805 16.7033 8.74805 16.6981C8.74805 16.6928 8.74805 16.6875 8.74805 16.6823C8.74805 16.677 8.74805 16.6717 8.74805 16.6665C8.74805 16.6612 8.74805 16.6559 8.74805 16.6506C8.74805 16.6454 8.74805 16.6401 8.74805 16.6348C8.74805 16.6296 8.74805 16.6243 8.74805 16.619C8.74805 16.6137 8.74805 16.6085 8.74805 16.6032C8.74805 16.5979 8.74805 16.5927 8.74805 16.5874C8.74805 16.5821 8.74805 16.5768 8.74805 16.5716C8.74805 16.5663 8.74805 16.561 8.74805 16.5557C8.74805 16.5505 8.74805 16.5452 8.74805 16.5399C8.74805 16.5346 8.74805 16.5293 8.74805 16.5241C8.74805 16.5188 8.74805 16.5135 8.74805 16.5082C8.74805 16.5029 8.74805 16.4977 8.74805 16.4924C8.74805 16.4871 8.74805 16.4818 8.74805 16.4765C8.74805 16.4713 8.74805 16.466 8.74805 16.4607C8.74805 16.4554 8.74805 16.4501 8.74805 16.4448C8.74805 16.4396 8.74805 16.4343 8.74805 16.429C8.74805 16.4237 8.74805 16.4184 8.74805 16.4131C8.74805 16.4078 8.74805 16.4025 8.74805 16.3973C8.74805 16.392 8.74805 16.3867 8.74805 16.3814C8.74805 16.3761 8.74805 16.3708 8.74805 16.3655C8.74805 16.3602 8.74805 16.3549 8.74805 16.3496C8.74805 16.3443 8.74805 16.339 8.74805 16.3337C8.74805 16.3285 8.74805 16.3232 8.74805 16.3179C8.74805 16.3126 8.74805 16.3073 8.74805 16.302C8.74805 16.2967 8.74805 16.2914 8.74805 16.2861C8.74805 16.2808 8.74805 16.2755 8.74805 16.2702C8.74805 16.2649 8.74805 16.2596 8.74805 16.2543C8.74805 16.249 8.74805 16.2437 8.74805 16.2384C8.74805 16.2331 8.74805 16.2278 8.74805 16.2224C8.74805 16.2171 8.74805 16.2118 8.74805 16.2065C8.74805 16.2012 8.74805 16.1959 8.74805 16.1906C8.74805 16.1853 8.74805 16.18 8.74805 16.1747C8.74805 16.1694 8.74805 16.164 8.74805 16.1587C8.74805 16.1534 8.74805 16.1481 8.74805 16.1428C8.74805 16.1375 8.74805 16.1322 8.74805 16.1268C8.74805 16.1215 8.74805 16.1162 8.74805 16.1109C8.74805 16.1056 8.74805 16.1003 8.74805 16.0949C8.74805 16.0896 8.74805 16.0843 8.74805 16.079C8.74805 16.0736 8.74805 16.0683 8.74805 16.063C8.74805 16.0577 8.74805 16.0524 8.74805 16.047C8.74805 16.0417 8.74805 16.0364 8.74805 16.031C8.74805 16.0257 8.74805 16.0204 8.74805 16.0151C8.74805 16.0097 8.74805 16.0044 8.74805 15.9991C8.74805 15.9937 8.74805 15.9884 8.74805 15.9831C8.74805 15.9777 8.74805 15.9724 8.74805 15.9671C8.74805 15.9617 8.74805 15.9564 8.74805 15.951C8.74805 15.9457 8.74805 15.9404 8.74805 15.935C8.74805 15.9297 8.74805 15.9243 8.74805 15.919C8.74805 15.9137 8.74805 15.9083 8.74805 15.903C8.74805 15.8976 8.74805 15.8923 8.74805 15.8869C8.74805 15.8816 8.74805 15.8762 8.74805 15.8709C8.74805 15.8655 8.74805 15.8602 8.74805 15.8548C8.74805 15.8495 8.74805 15.8441 8.74805 15.8388C8.74805 15.8334 8.74805 15.8281 8.74805 15.8227C8.74805 15.8174 8.74805 15.812 8.74805 15.8066C8.74805 15.8013 8.74805 15.7959 8.74805 15.7906C8.74805 15.7852 8.74805 15.7798 8.74805 15.7745C8.74805 15.7691 8.74805 15.7638 8.74805 15.7584C8.74805 15.753 8.74805 15.7477 8.74805 15.7423C8.74805 15.7369 8.74805 15.7316 8.74805 15.7262C8.74805 15.7208 8.74805 15.7154 8.74805 15.7101C8.74805 15.7047 8.74805 15.6993 8.74805 15.6939C8.74805 15.6886 8.74805 15.6832 8.74805 15.6778C8.74805 15.6724 8.74805 15.6671 8.74805 15.6617C8.74805 15.6563 8.74805 15.6509 8.74805 15.6455C8.74805 15.6401 8.74805 15.6348 8.74805 15.6294C8.74805 15.624 8.74805 15.6186 8.74805 15.6132C8.74805 15.6078 8.74805 15.6024 8.74805 15.597C8.74805 15.5917 8.74805 15.5863 8.74805 15.5809C8.74805 15.5755 8.74805 15.5701 8.74805 15.5647C8.74805 15.5593 8.74805 15.5539 8.74805 15.5485C8.74805 15.5431 8.74805 15.5377 8.74805 15.5323C8.74805 15.5269 8.74805 15.5215 8.74805 15.5161C8.74805 15.5107 8.74805 15.5053 8.74805 15.4999C8.74805 15.4944 8.74805 15.489 8.74805 15.4836C8.74805 15.4782 8.74805 15.4728 8.74805 15.4674C8.74805 15.462 8.74805 15.4566 8.74805 15.4511C8.74805 15.4457 8.74805 15.4403 8.74805 15.4349C8.74805 15.4295 8.74805 15.4241 8.74805 15.4186C8.74805 15.4132 8.74805 15.4078 8.74805 15.4024C8.74805 15.3969 8.74805 15.3915 8.74805 15.3861C8.74805 15.3806 8.74805 15.3752 8.74805 15.3698C8.74805 15.3644 8.74805 15.3589 8.74805 15.3535C8.74805 15.3481 8.74805 15.3426 8.74805 15.3372C8.74805 15.3317 8.74805 15.3263 8.74805 15.3209C8.74805 15.3154 8.74805 15.31 8.74805 15.3045C8.74805 15.2991 8.74805 15.2936 8.74805 15.2882C8.74805 15.2828 8.74805 15.2773 8.74805 15.2719C8.74805 15.2664 8.74805 15.261 8.74805 15.2555C8.74805 15.25 8.74805 15.2446 8.74805 15.2391C8.74805 15.2337 8.74805 15.2282 8.74805 15.2228C8.74805 15.2173 8.74805 15.2118 8.74805 15.2064C8.74805 15.2009 8.74805 15.1954 8.74805 15.19C8.74805 15.1845 8.74805 15.179 8.74805 15.1736C8.74805 15.1681 8.74805 15.1626 8.74805 15.1572C8.74805 15.1517 8.74805 15.1462 8.74805 15.1407C8.74805 15.1353 8.74805 15.1298 8.74805 15.1243C8.74805 15.1188 8.74805 15.1133 8.74805 15.1079C8.74805 15.1024 8.74805 15.0969 8.74805 15.0914C8.74805 15.0859 8.74805 15.0804 8.74805 15.0749C8.74805 15.0694 8.74805 15.064 8.74805 15.0585C8.74805 15.053 8.74805 15.0475 8.74805 15.042C8.74805 15.0365 8.74805 15.031 8.74805 15.0255C8.74805 15.02 8.74805 15.0145 8.74805 15.009C8.74805 15.0035 8.74805 14.998 8.74805 14.9924C8.74805 14.9869 8.74805 14.9814 8.74805 14.9759C8.74805 14.9704 8.74805 14.9649 8.74805 14.9594C8.74805 14.9539 8.74805 14.9483 8.74805 14.9428C8.74805 14.9373 8.74805 14.9318 8.74805 14.9263C8.74805 14.9207 8.74805 14.9152 8.74805 14.9097C8.74805 14.9042 8.74805 14.8986 8.74805 14.8931C8.74805 14.8876 8.74805 14.882 8.74805 14.8765C8.74805 14.871 8.74805 14.8654 8.74805 14.8599C8.74805 14.8543 8.74805 14.8488 8.74805 14.8433C8.74805 14.8377 8.74805 14.8322 8.74805 14.8266C8.74805 14.8211 8.74805 14.8155 8.74805 14.81C8.74805 14.8044 8.74805 14.7989 8.74805 14.7933C8.74805 14.7878 8.74805 14.7822 8.74805 14.7767C8.74805 14.7711 8.74805 14.7655 8.74805 14.76C8.74805 14.7544 8.74805 14.7489 8.74805 14.7433C8.74805 14.7377 8.74805 14.7322 8.74805 14.7266C8.74805 14.721 8.74805 14.7154 8.74805 14.7099C8.74805 14.7043 8.74805 14.6987 8.74805 14.6931C8.74805 14.6876 8.74805 14.682 8.74805 14.6764C8.74805 14.6708 8.74805 14.6652 8.74805 14.6596C8.74805 14.6541 8.74805 14.6485 8.74805 14.6429C8.74805 14.6373 8.74805 14.6317 8.74805 14.6261C8.74805 14.6205 8.74805 14.6149 8.74805 14.6093C8.74805 14.6037 8.74805 14.5981 8.74805 14.5925C8.74805 14.5869 8.74805 14.5813 8.74805 14.5757C8.74805 14.5701 8.74805 14.5645 8.74805 14.5589C8.74805 14.5532 8.74805 14.5476 8.74805 14.542C8.74805 14.5364 8.74805 14.5308 8.74805 14.5252C8.74805 14.5195 8.74805 14.5139 8.74805 14.5083C8.74805 14.5027 8.74805 14.497 8.74805 14.4914C8.74805 14.4858 8.74805 14.4801 8.74805 14.4745C8.74805 14.4689 8.74805 14.4632 8.74805 14.4576C8.74805 14.452 8.74805 14.4463 8.74805 14.4407C8.74805 14.435 8.74805 14.4294 8.74805 14.4237C8.74805 14.4181 8.74805 14.4125 8.74805 14.4068C8.74805 14.4011 8.74805 14.3955 8.74805 14.3898C8.74805 14.3842 8.74805 14.3785 8.74805 14.3729C8.74805 14.3672 8.74805 14.3615 8.74805 14.3559C8.74805 14.3502 8.74805 14.3445 8.74805 14.3389C8.74805 14.3332 8.74805 14.3275 8.74805 14.3218C8.74805 14.3162 8.74805 14.3105 8.74805 14.3048C8.74805 14.2991 8.74805 14.2935 8.74805 14.2878C8.74805 14.2821 8.74805 14.2764 8.74805 14.2707C8.74805 14.265 8.74805 14.2593 8.74805 14.2536C8.74805 14.2479 8.74805 14.2422 8.74805 14.2365C8.74805 14.2308 8.74805 14.2251 8.74805 14.2194C8.74805 14.2137 8.74805 14.208 8.74805 14.2023C8.74805 14.1966 8.74805 14.1909 8.74805 14.1852C8.74805 14.1795 8.74805 14.1738 8.74805 14.168C8.74805 14.1623 8.74805 14.1566 8.74805 14.1509C8.74805 14.1452 8.74805 14.1394 8.74805 14.1337C8.74805 14.128 8.74805 14.1222 8.74805 14.1165C8.74805 14.1108 8.74805 14.105 8.74805 14.0993C8.74805 14.0936 8.74805 14.0878 8.74805 14.0821C8.74805 14.0763 8.74805 14.0706 8.74805 14.0648C8.74805 14.0591 8.74805 14.0533 8.74805 14.0476C8.74805 14.0418 8.74805 14.0361 8.74805 14.0303C8.74805 14.0246 8.74805 14.0188 8.74805 14.013C8.74805 14.0073 8.74805 14.0015 8.74805 13.9957C8.74805 13.99 8.74805 13.9842 8.74805 13.9784C8.74805 13.9727 8.74805 13.9669 8.74805 13.9611C8.74805 13.9553 8.74805 13.9495 8.74805 13.9438C8.74805 13.938 8.74805 13.9322 8.74805 13.9264C8.74805 13.9206 8.74805 13.9148 8.74805 13.909C8.74805 13.9032 8.74805 13.8974 8.74805 13.8916C8.74805 13.8858 8.74805 13.88 8.74805 13.8742C8.74805 13.8684 8.74805 13.8626 8.74805 13.8568C8.74805 13.851 8.74805 13.8452 8.74805 13.8394C8.74805 13.8335 8.74805 13.8277 8.74805 13.8219C8.74805 13.8161 8.74805 13.8103 8.74805 13.8044C8.74805 13.7986 8.74805 13.7928 8.74805 13.7869C8.74805 13.7811 8.74805 13.7753 8.74805 13.7694C8.74805 13.7636 8.74805 13.7577 8.74805 13.7519C8.74805 13.7461 8.74805 13.7402 8.74805 13.7344C8.74805 13.7285 8.74805 13.7227 8.74805 13.7168C8.74805 13.711 8.74805 13.7051 8.74805 13.6992C8.74805 13.6934 8.74805 13.6875 8.74805 13.6816C8.74805 13.6758 8.74805 13.6699 8.74805 13.664C8.74805 13.6582 8.74805 13.6523 8.74805 13.6464C8.74805 13.6405 8.74805 13.6347 8.74805 13.6288C8.74805 13.6229 8.74805 13.617 8.74805 13.6111C8.74805 13.6052 8.74805 13.5993 8.74805 13.5934C8.74805 13.5876 8.74805 13.5817 8.74805 13.5758C8.74805 13.5699 8.74805 13.5639 8.74805 13.558C8.74805 13.5521 8.74805 13.5462 8.74805 13.5403C8.74805 13.5344 8.74805 13.5285 8.74805 13.5226C8.74805 13.5167 8.74805 13.5107 8.74805 13.5048C8.74805 13.4989 8.74805 13.493 8.74805 13.487C8.74805 13.4811 8.74805 13.4752 8.74805 13.4692C8.74805 13.4633 8.74805 13.4574 8.74805 13.4514C8.74805 13.4455 8.74805 13.4395 8.74805 13.4336C8.74805 13.4276 8.74805 13.4217 8.74805 13.4157C8.74805 13.4098 8.74805 13.4038 8.74805 13.3979C8.74805 13.3919 8.74805 13.3859 8.74805 13.38C8.74805 13.374 8.74805 13.368 8.74805 13.3621C8.74805 13.3561 8.74805 13.3501 8.74805 13.3441C8.74805 13.3382 8.74805 13.3322 8.74805 13.3262C8.74805 13.3202 8.74805 13.3142 8.74805 13.3082C8.74805 13.3022 8.74805 13.2963 8.74805 13.2903C8.74805 13.2843 8.74805 13.2783 8.74805 13.2723C8.74805 13.2663 8.74805 13.2603 8.74805 13.2542C8.74805 13.2482 8.74805 13.2422 8.74805 13.2362C8.74805 13.2302 8.74805 13.2242 8.74805 13.2182C8.74805 13.2121 8.74805 13.2061 8.74805 13.2001C8.74805 13.1941 8.74805 13.188 8.74805 13.182C8.74805 13.176 8.74805 13.1699 8.74805 13.1639C8.74805 13.1578 8.74805 13.1518 8.74805 13.1457C8.74805 13.1397 8.74805 13.1336 8.74805 13.1276C8.74805 13.1215 8.74805 13.1155 8.74805 13.1094C8.74805 13.1034 8.74805 13.0973 8.74805 13.0912C8.74805 13.0852 8.74805 13.0791 8.74805 13.073C8.74805 13.067 8.74805 13.0609 8.74805 13.0548C8.74805 13.0487 8.74805 13.0426 8.74805 13.0366C8.74805 13.0305 8.74805 13.0244 8.74805 13.0183C8.74805 13.0122 8.74805 13.0061 8.74805 13H7.99805H7.24805C7.24805 13.0061 7.24805 13.0122 7.24805 13.0183C7.24805 13.0244 7.24805 13.0305 7.24805 13.0366C7.24805 13.0426 7.24805 13.0487 7.24805 13.0548C7.24805 13.0609 7.24805 13.067 7.24805 13.073C7.24805 13.0791 7.24805 13.0852 7.24805 13.0912C7.24805 13.0973 7.24805 13.1034 7.24805 13.1094C7.24805 13.1155 7.24805 13.1215 7.24805 13.1276C7.24805 13.1336 7.24805 13.1397 7.24805 13.1457C7.24805 13.1518 7.24805 13.1578 7.24805 13.1639C7.24805 13.1699 7.24805 13.176 7.24805 13.182C7.24805 13.188 7.24805 13.1941 7.24805 13.2001C7.24805 13.2061 7.24805 13.2121 7.24805 13.2182C7.24805 13.2242 7.24805 13.2302 7.24805 13.2362C7.24805 13.2422 7.24805 13.2482 7.24805 13.2542C7.24805 13.2603 7.24805 13.2663 7.24805 13.2723C7.24805 13.2783 7.24805 13.2843 7.24805 13.2903C7.24805 13.2963 7.24805 13.3022 7.24805 13.3082C7.24805 13.3142 7.24805 13.3202 7.24805 13.3262C7.24805 13.3322 7.24805 13.3382 7.24805 13.3441C7.24805 13.3501 7.24805 13.3561 7.24805 13.3621C7.24805 13.368 7.24805 13.374 7.24805 13.38C7.24805 13.3859 7.24805 13.3919 7.24805 13.3979C7.24805 13.4038 7.24805 13.4098 7.24805 13.4157C7.24805 13.4217 7.24805 13.4276 7.24805 13.4336C7.24805 13.4395 7.24805 13.4455 7.24805 13.4514C7.24805 13.4574 7.24805 13.4633 7.24805 13.4692C7.24805 13.4752 7.24805 13.4811 7.24805 13.487C7.24805 13.493 7.24805 13.4989 7.24805 13.5048C7.24805 13.5107 7.24805 13.5167 7.24805 13.5226C7.24805 13.5285 7.24805 13.5344 7.24805 13.5403C7.24805 13.5462 7.24805 13.5521 7.24805 13.558C7.24805 13.5639 7.24805 13.5699 7.24805 13.5758C7.24805 13.5817 7.24805 13.5876 7.24805 13.5934C7.24805 13.5993 7.24805 13.6052 7.24805 13.6111C7.24805 13.617 7.24805 13.6229 7.24805 13.6288C7.24805 13.6347 7.24805 13.6405 7.24805 13.6464C7.24805 13.6523 7.24805 13.6582 7.24805 13.664C7.24805 13.6699 7.24805 13.6758 7.24805 13.6816C7.24805 13.6875 7.24805 13.6934 7.24805 13.6992C7.24805 13.7051 7.24805 13.711 7.24805 13.7168C7.24805 13.7227 7.24805 13.7285 7.24805 13.7344C7.24805 13.7402 7.24805 13.7461 7.24805 13.7519C7.24805 13.7577 7.24805 13.7636 7.24805 13.7694C7.24805 13.7753 7.24805 13.7811 7.24805 13.7869C7.24805 13.7928 7.24805 13.7986 7.24805 13.8044C7.24805 13.8103 7.24805 13.8161 7.24805 13.8219C7.24805 13.8277 7.24805 13.8335 7.24805 13.8394C7.24805 13.8452 7.24805 13.851 7.24805 13.8568C7.24805 13.8626 7.24805 13.8684 7.24805 13.8742C7.24805 13.88 7.24805 13.8858 7.24805 13.8916C7.24805 13.8974 7.24805 13.9032 7.24805 13.909C7.24805 13.9148 7.24805 13.9206 7.24805 13.9264C7.24805 13.9322 7.24805 13.938 7.24805 13.9438C7.24805 13.9495 7.24805 13.9553 7.24805 13.9611C7.24805 13.9669 7.24805 13.9727 7.24805 13.9784C7.24805 13.9842 7.24805 13.99 7.24805 13.9957C7.24805 14.0015 7.24805 14.0073 7.24805 14.013C7.24805 14.0188 7.24805 14.0246 7.24805 14.0303C7.24805 14.0361 7.24805 14.0418 7.24805 14.0476C7.24805 14.0533 7.24805 14.0591 7.24805 14.0648C7.24805 14.0706 7.24805 14.0763 7.24805 14.0821C7.24805 14.0878 7.24805 14.0936 7.24805 14.0993C7.24805 14.105 7.24805 14.1108 7.24805 14.1165C7.24805 14.1222 7.24805 14.128 7.24805 14.1337C7.24805 14.1394 7.24805 14.1452 7.24805 14.1509C7.24805 14.1566 7.24805 14.1623 7.24805 14.168C7.24805 14.1738 7.24805 14.1795 7.24805 14.1852C7.24805 14.1909 7.24805 14.1966 7.24805 14.2023C7.24805 14.208 7.24805 14.2137 7.24805 14.2194C7.24805 14.2251 7.24805 14.2308 7.24805 14.2365C7.24805 14.2422 7.24805 14.2479 7.24805 14.2536C7.24805 14.2593 7.24805 14.265 7.24805 14.2707C7.24805 14.2764 7.24805 14.2821 7.24805 14.2878C7.24805 14.2935 7.24805 14.2991 7.24805 14.3048C7.24805 14.3105 7.24805 14.3162 7.24805 14.3218C7.24805 14.3275 7.24805 14.3332 7.24805 14.3389C7.24805 14.3445 7.24805 14.3502 7.24805 14.3559C7.24805 14.3615 7.24805 14.3672 7.24805 14.3729C7.24805 14.3785 7.24805 14.3842 7.24805 14.3898C7.24805 14.3955 7.24805 14.4011 7.24805 14.4068C7.24805 14.4125 7.24805 14.4181 7.24805 14.4237C7.24805 14.4294 7.24805 14.435 7.24805 14.4407C7.24805 14.4463 7.24805 14.452 7.24805 14.4576C7.24805 14.4632 7.24805 14.4689 7.24805 14.4745C7.24805 14.4801 7.24805 14.4858 7.24805 14.4914C7.24805 14.497 7.24805 14.5027 7.24805 14.5083C7.24805 14.5139 7.24805 14.5195 7.24805 14.5252C7.24805 14.5308 7.24805 14.5364 7.24805 14.542C7.24805 14.5476 7.24805 14.5532 7.24805 14.5589C7.24805 14.5645 7.24805 14.5701 7.24805 14.5757C7.24805 14.5813 7.24805 14.5869 7.24805 14.5925C7.24805 14.5981 7.24805 14.6037 7.24805 14.6093C7.24805 14.6149 7.24805 14.6205 7.24805 14.6261C7.24805 14.6317 7.24805 14.6373 7.24805 14.6429C7.24805 14.6485 7.24805 14.6541 7.24805 14.6596C7.24805 14.6652 7.24805 14.6708 7.24805 14.6764C7.24805 14.682 7.24805 14.6876 7.24805 14.6931C7.24805 14.6987 7.24805 14.7043 7.24805 14.7099C7.24805 14.7154 7.24805 14.721 7.24805 14.7266C7.24805 14.7322 7.24805 14.7377 7.24805 14.7433C7.24805 14.7489 7.24805 14.7544 7.24805 14.76C7.24805 14.7655 7.24805 14.7711 7.24805 14.7767C7.24805 14.7822 7.24805 14.7878 7.24805 14.7933C7.24805 14.7989 7.24805 14.8044 7.24805 14.81C7.24805 14.8155 7.24805 14.8211 7.24805 14.8266C7.24805 14.8322 7.24805 14.8377 7.24805 14.8433C7.24805 14.8488 7.24805 14.8543 7.24805 14.8599C7.24805 14.8654 7.24805 14.871 7.24805 14.8765C7.24805 14.882 7.24805 14.8876 7.24805 14.8931C7.24805 14.8986 7.24805 14.9042 7.24805 14.9097C7.24805 14.9152 7.24805 14.9207 7.24805 14.9263C7.24805 14.9318 7.24805 14.9373 7.24805 14.9428C7.24805 14.9483 7.24805 14.9539 7.24805 14.9594C7.24805 14.9649 7.24805 14.9704 7.24805 14.9759C7.24805 14.9814 7.24805 14.9869 7.24805 14.9924C7.24805 14.998 7.24805 15.0035 7.24805 15.009C7.24805 15.0145 7.24805 15.02 7.24805 15.0255C7.24805 15.031 7.24805 15.0365 7.24805 15.042C7.24805 15.0475 7.24805 15.053 7.24805 15.0585C7.24805 15.064 7.24805 15.0694 7.24805 15.0749C7.24805 15.0804 7.24805 15.0859 7.24805 15.0914C7.24805 15.0969 7.24805 15.1024 7.24805 15.1079C7.24805 15.1133 7.24805 15.1188 7.24805 15.1243C7.24805 15.1298 7.24805 15.1353 7.24805 15.1407C7.24805 15.1462 7.24805 15.1517 7.24805 15.1572C7.24805 15.1626 7.24805 15.1681 7.24805 15.1736C7.24805 15.179 7.24805 15.1845 7.24805 15.19C7.24805 15.1954 7.24805 15.2009 7.24805 15.2064C7.24805 15.2118 7.24805 15.2173 7.24805 15.2228C7.24805 15.2282 7.24805 15.2337 7.24805 15.2391C7.24805 15.2446 7.24805 15.25 7.24805 15.2555C7.24805 15.261 7.24805 15.2664 7.24805 15.2719C7.24805 15.2773 7.24805 15.2828 7.24805 15.2882C7.24805 15.2936 7.24805 15.2991 7.24805 15.3045C7.24805 15.31 7.24805 15.3154 7.24805 15.3209C7.24805 15.3263 7.24805 15.3317 7.24805 15.3372C7.24805 15.3426 7.24805 15.3481 7.24805 15.3535C7.24805 15.3589 7.24805 15.3644 7.24805 15.3698C7.24805 15.3752 7.24805 15.3806 7.24805 15.3861C7.24805 15.3915 7.24805 15.3969 7.24805 15.4024C7.24805 15.4078 7.24805 15.4132 7.24805 15.4186C7.24805 15.4241 7.24805 15.4295 7.24805 15.4349C7.24805 15.4403 7.24805 15.4457 7.24805 15.4511C7.24805 15.4566 7.24805 15.462 7.24805 15.4674C7.24805 15.4728 7.24805 15.4782 7.24805 15.4836C7.24805 15.489 7.24805 15.4944 7.24805 15.4999C7.24805 15.5053 7.24805 15.5107 7.24805 15.5161C7.24805 15.5215 7.24805 15.5269 7.24805 15.5323C7.24805 15.5377 7.24805 15.5431 7.24805 15.5485C7.24805 15.5539 7.24805 15.5593 7.24805 15.5647C7.24805 15.5701 7.24805 15.5755 7.24805 15.5809C7.24805 15.5863 7.24805 15.5917 7.24805 15.597C7.24805 15.6024 7.24805 15.6078 7.24805 15.6132C7.24805 15.6186 7.24805 15.624 7.24805 15.6294C7.24805 15.6348 7.24805 15.6401 7.24805 15.6455C7.24805 15.6509 7.24805 15.6563 7.24805 15.6617C7.24805 15.6671 7.24805 15.6724 7.24805 15.6778C7.24805 15.6832 7.24805 15.6886 7.24805 15.6939C7.24805 15.6993 7.24805 15.7047 7.24805 15.7101C7.24805 15.7154 7.24805 15.7208 7.24805 15.7262C7.24805 15.7316 7.24805 15.7369 7.24805 15.7423C7.24805 15.7477 7.24805 15.753 7.24805 15.7584C7.24805 15.7638 7.24805 15.7691 7.24805 15.7745C7.24805 15.7798 7.24805 15.7852 7.24805 15.7906C7.24805 15.7959 7.24805 15.8013 7.24805 15.8066C7.24805 15.812 7.24805 15.8174 7.24805 15.8227C7.24805 15.8281 7.24805 15.8334 7.24805 15.8388C7.24805 15.8441 7.24805 15.8495 7.24805 15.8548C7.24805 15.8602 7.24805 15.8655 7.24805 15.8709C7.24805 15.8762 7.24805 15.8816 7.24805 15.8869C7.24805 15.8923 7.24805 15.8976 7.24805 15.903C7.24805 15.9083 7.24805 15.9137 7.24805 15.919C7.24805 15.9243 7.24805 15.9297 7.24805 15.935C7.24805 15.9404 7.24805 15.9457 7.24805 15.951C7.24805 15.9564 7.24805 15.9617 7.24805 15.9671C7.24805 15.9724 7.24805 15.9777 7.24805 15.9831C7.24805 15.9884 7.24805 15.9937 7.24805 15.9991C7.24805 16.0044 7.24805 16.0097 7.24805 16.0151C7.24805 16.0204 7.24805 16.0257 7.24805 16.031C7.24805 16.0364 7.24805 16.0417 7.24805 16.047C7.24805 16.0524 7.24805 16.0577 7.24805 16.063C7.24805 16.0683 7.24805 16.0736 7.24805 16.079C7.24805 16.0843 7.24805 16.0896 7.24805 16.0949C7.24805 16.1003 7.24805 16.1056 7.24805 16.1109C7.24805 16.1162 7.24805 16.1215 7.24805 16.1268C7.24805 16.1322 7.24805 16.1375 7.24805 16.1428C7.24805 16.1481 7.24805 16.1534 7.24805 16.1587C7.24805 16.164 7.24805 16.1694 7.24805 16.1747C7.24805 16.18 7.24805 16.1853 7.24805 16.1906C7.24805 16.1959 7.24805 16.2012 7.24805 16.2065C7.24805 16.2118 7.24805 16.2171 7.24805 16.2224C7.24805 16.2278 7.24805 16.2331 7.24805 16.2384C7.24805 16.2437 7.24805 16.249 7.24805 16.2543C7.24805 16.2596 7.24805 16.2649 7.24805 16.2702C7.24805 16.2755 7.24805 16.2808 7.24805 16.2861C7.24805 16.2914 7.24805 16.2967 7.24805 16.302C7.24805 16.3073 7.24805 16.3126 7.24805 16.3179C7.24805 16.3232 7.24805 16.3285 7.24805 16.3337C7.24805 16.339 7.24805 16.3443 7.24805 16.3496C7.24805 16.3549 7.24805 16.3602 7.24805 16.3655C7.24805 16.3708 7.24805 16.3761 7.24805 16.3814C7.24805 16.3867 7.24805 16.392 7.24805 16.3973C7.24805 16.4025 7.24805 16.4078 7.24805 16.4131C7.24805 16.4184 7.24805 16.4237 7.24805 16.429C7.24805 16.4343 7.24805 16.4396 7.24805 16.4448C7.24805 16.4501 7.24805 16.4554 7.24805 16.4607C7.24805 16.466 7.24805 16.4713 7.24805 16.4765C7.24805 16.4818 7.24805 16.4871 7.24805 16.4924C7.24805 16.4977 7.24805 16.5029 7.24805 16.5082C7.24805 16.5135 7.24805 16.5188 7.24805 16.5241C7.24805 16.5293 7.24805 16.5346 7.24805 16.5399C7.24805 16.5452 7.24805 16.5505 7.24805 16.5557C7.24805 16.561 7.24805 16.5663 7.24805 16.5716C7.24805 16.5768 7.24805 16.5821 7.24805 16.5874C7.24805 16.5927 7.24805 16.5979 7.24805 16.6032C7.24805 16.6085 7.24805 16.6137 7.24805 16.619C7.24805 16.6243 7.24805 16.6296 7.24805 16.6348C7.24805 16.6401 7.24805 16.6454 7.24805 16.6506C7.24805 16.6559 7.24805 16.6612 7.24805 16.6665C7.24805 16.6717 7.24805 16.677 7.24805 16.6823C7.24805 16.6875 7.24805 16.6928 7.24805 16.6981C7.24805 16.7033 7.24805 16.7086 7.24805 16.7139C7.24805 16.7191 7.24805 16.7244 7.24805 16.7297C7.24805 16.7349 7.24805 16.7402 7.24805 16.7455C7.24805 16.7507 7.24805 16.756 7.24805 16.7612C7.24805 16.7665 7.24805 16.7718 7.24805 16.777C7.24805 16.7823 7.24805 16.7876 7.24805 16.7928C7.24805 16.7981 7.24805 16.8033 7.24805 16.8086C7.24805 16.8139 7.24805 16.8191 7.24805 16.8244C7.24805 16.8297 7.24805 16.8349 7.24805 16.8402C7.24805 16.8454 7.24805 16.8507 7.24805 16.856C7.24805 16.8612 7.24805 16.8665 7.24805 16.8717C7.24805 16.877 7.24805 16.8822 7.24805 16.8875C7.24805 16.8928 7.24805 16.898 7.24805 16.9033C7.24805 16.9085 7.24805 16.9138 7.24805 16.919C7.24805 16.9243 7.24805 16.9296 7.24805 16.9348C7.24805 16.9401 7.24805 16.9453 7.24805 16.9506C7.24805 16.9558 7.24805 16.9611 7.24805 16.9664C7.24805 16.9716 7.24805 16.9769 7.24805 16.9821C7.24805 16.9874 7.24805 16.9926 7.24805 16.9979C7.24805 17.0031 7.24805 17.0084 7.24805 17.0136C7.24805 17.0189 7.24805 17.0242 7.24805 17.0294C7.24805 17.0347 7.24805 17.0399 7.24805 17.0452C7.24805 17.0504 7.24805 17.0557 7.24805 17.0609C7.24805 17.0662 7.24805 17.0714 7.24805 17.0767C7.24805 17.0819 7.24805 17.0872 7.24805 17.0924C7.24805 17.0977 7.24805 17.103 7.24805 17.1082C7.24805 17.1135 7.24805 17.1187 7.24805 17.124C7.24805 17.1292 7.24805 17.1345 7.24805 17.1397C7.24805 17.145 7.24805 17.1502 7.24805 17.1555C7.24805 17.1607 7.24805 17.166 7.24805 17.1712C7.24805 17.1765 7.24805 17.1817 7.24805 17.187C7.24805 17.1922 7.24805 17.1975 7.24805 17.2027C7.24805 17.208 7.24805 17.2132 7.24805 17.2185C7.24805 17.2237 7.24805 17.229 7.24805 17.2342C7.24805 17.2395 7.24805 17.2447 7.24805 17.25C7.24805 17.2553 7.24805 17.2605 7.24805 17.2658C7.24805 17.271 7.24805 17.2763 7.24805 17.2815C7.24805 17.2868 7.24805 17.292 7.24805 17.2973C7.24805 17.3025 7.24805 17.3078 7.24805 17.313C7.24805 17.3183 7.24805 17.3235 7.24805 17.3288C7.24805 17.334 7.24805 17.3393 7.24805 17.3445C7.24805 17.3498 7.24805 17.355 7.24805 17.3603C7.24805 17.3655 7.24805 17.3708 7.24805 17.376C7.24805 17.3813 7.24805 17.3865 7.24805 17.3918C7.24805 17.397 7.24805 17.4023 7.24805 17.4076C7.24805 17.4128 7.24805 17.4181 7.24805 17.4233C7.24805 17.4286 7.24805 17.4338 7.24805 17.4391C7.24805 17.4443 7.24805 17.4496 7.24805 17.4548C7.24805 17.4601 7.24805 17.4653 7.24805 17.4706C7.24805 17.4758 7.24805 17.4811 7.24805 17.4864C7.24805 17.4916 7.24805 17.4969 7.24805 17.5021C7.24805 17.5074 7.24805 17.5126 7.24805 17.5179C7.24805 17.5231 7.24805 17.5284 7.24805 17.5336C7.24805 17.5389 7.24805 17.5442 7.24805 17.5494C7.24805 17.5547 7.24805 17.5599 7.24805 17.5652C7.24805 17.5704 7.24805 17.5757 7.24805 17.581C7.24805 17.5862 7.24805 17.5915 7.24805 17.5967C7.24805 17.602 7.24805 17.6072 7.24805 17.6125C7.24805 17.6178 7.24805 17.623 7.24805 17.6283C7.24805 17.6335 7.24805 17.6388 7.24805 17.644C7.24805 17.6493 7.24805 17.6546 7.24805 17.6598C7.24805 17.6651 7.24805 17.6703 7.24805 17.6756C7.24805 17.6809 7.24805 17.6861 7.24805 17.6914C7.24805 17.6967 7.24805 17.7019 7.24805 17.7072C7.24805 17.7124 7.24805 17.7177 7.24805 17.723C7.24805 17.7282 7.24805 17.7335 7.24805 17.7388C7.24805 17.744 7.24805 17.7493 7.24805 17.7545C7.24805 17.7598 7.24805 17.7651 7.24805 17.7703C7.24805 17.7756 7.24805 17.7809 7.24805 17.7861C7.24805 17.7914 7.24805 17.7967 7.24805 17.8019C7.24805 17.8072 7.24805 17.8125 7.24805 17.8177C7.24805 17.823 7.24805 17.8283 7.24805 17.8335C7.24805 17.8388 7.24805 17.8441 7.24805 17.8494C7.24805 17.8546 7.24805 17.8599 7.24805 17.8652C7.24805 17.8704 7.24805 17.8757 7.24805 17.881C7.24805 17.8863 7.24805 17.8915 7.24805 17.8968C7.24805 17.9021 7.24805 17.9073 7.24805 17.9126C7.24805 17.9179 7.24805 17.9232 7.24805 17.9284C7.24805 17.9337 7.24805 17.939 7.24805 17.9443C7.24805 17.9495 7.24805 17.9548 7.24805 17.9601C7.24805 17.9654 7.24805 17.9707 7.24805 17.9759C7.24805 17.9812 7.24805 17.9865 7.24805 17.9918C7.24805 17.9971 7.24805 18.0023 7.24805 18.0076C7.24805 18.0129 7.24805 18.0182 7.24805 18.0235C7.24805 18.0287 7.24805 18.034 7.24805 18.0393C7.24805 18.0446 7.24805 18.0499 7.24805 18.0552C7.24805 18.0604 7.24805 18.0657 7.24805 18.071C7.24805 18.0763 7.24805 18.0816 7.24805 18.0869C7.24805 18.0922 7.24805 18.0975 7.24805 18.1027C7.24805 18.108 7.24805 18.1133 7.24805 18.1186C7.24805 18.1239 7.24805 18.1292 7.24805 18.1345C7.24805 18.1398 7.24805 18.1451 7.24805 18.1504C7.24805 18.1557 7.24805 18.161 7.24805 18.1663C7.24805 18.1715 7.24805 18.1768 7.24805 18.1821C7.24805 18.1874 7.24805 18.1927 7.24805 18.198C7.24805 18.2033 7.24805 18.2086 7.24805 18.2139C7.24805 18.2192 7.24805 18.2245 7.24805 18.2298C7.24805 18.2351 7.24805 18.2404 7.24805 18.2457C7.24805 18.251 7.24805 18.2563 7.24805 18.2616C7.24805 18.2669 7.24805 18.2722 7.24805 18.2776C7.24805 18.2829 7.24805 18.2882 7.24805 18.2935C7.24805 18.2988 7.24805 18.3041 7.24805 18.3094C7.24805 18.3147 7.24805 18.32 7.24805 18.3253C7.24805 18.3306 7.24805 18.336 7.24805 18.3413C7.24805 18.3466 7.24805 18.3519 7.24805 18.3572C7.24805 18.3625 7.24805 18.3678 7.24805 18.3732C7.24805 18.3785 7.24805 18.3838 7.24805 18.3891C7.24805 18.3944 7.24805 18.3997 7.24805 18.4051C7.24805 18.4104 7.24805 18.4157 7.24805 18.421C7.24805 18.4264 7.24805 18.4317 7.24805 18.437C7.24805 18.4423 7.24805 18.4476 7.24805 18.453C7.24805 18.4583 7.24805 18.4636 7.24805 18.469C7.24805 18.4743 7.24805 18.4796 7.24805 18.4849C7.24805 18.4903 7.24805 18.4956 7.24805 18.5009C7.24805 18.5063 7.24805 18.5116 7.24805 18.5169C7.24805 18.5223 7.24805 18.5276 7.24805 18.5329C7.24805 18.5383 7.24805 18.5436 7.24805 18.549C7.24805 18.5543 7.24805 18.5596 7.24805 18.565C7.24805 18.5703 7.24805 18.5757 7.24805 18.581C7.24805 18.5863 7.24805 18.5917 7.24805 18.597C7.24805 18.6024 7.24805 18.6077 7.24805 18.6131C7.24805 18.6184 7.24805 18.6238 7.24805 18.6291C7.24805 18.6345 7.24805 18.6398 7.24805 18.6452C7.24805 18.6505 7.24805 18.6559 7.24805 18.6612C7.24805 18.6666 7.24805 18.6719 7.24805 18.6773C7.24805 18.6826 7.24805 18.688 7.24805 18.6934C7.24805 18.6987 7.24805 18.7041 7.24805 18.7094C7.24805 18.7148 7.24805 18.7202 7.24805 18.7255C7.24805 18.7309 7.24805 18.7362 7.24805 18.7416C7.24805 18.747 7.24805 18.7523 7.24805 18.7577C7.24805 18.7631 7.24805 18.7684 7.24805 18.7738C7.24805 18.7792 7.24805 18.7846 7.24805 18.7899C7.24805 18.7953 7.24805 18.8007 7.24805 18.8061C7.24805 18.8114 7.24805 18.8168 7.24805 18.8222C7.24805 18.8276 7.24805 18.8329 7.24805 18.8383C7.24805 18.8437 7.24805 18.8491 7.24805 18.8545C7.24805 18.8599 7.24805 18.8652 7.24805 18.8706C7.24805 18.876 7.24805 18.8814 7.24805 18.8868C7.24805 18.8922 7.24805 18.8976 7.24805 18.903C7.24805 18.9083 7.24805 18.9137 7.24805 18.9191C7.24805 18.9245 7.24805 18.9299 7.24805 18.9353C7.24805 18.9407 7.24805 18.9461 7.24805 18.9515C7.24805 18.9569 7.24805 18.9623 7.24805 18.9677C7.24805 18.9731 7.24805 18.9785 7.24805 18.9839C7.24805 18.9893 7.24805 18.9947 7.24805 19.0001C7.24805 19.0056 7.24805 19.011 7.24805 19.0164C7.24805 19.0218 7.24805 19.0272 7.24805 19.0326C7.24805 19.038 7.24805 19.0434 7.24805 19.0489C7.24805 19.0543 7.24805 19.0597 7.24805 19.0651C7.24805 19.0705 7.24805 19.0759 7.24805 19.0814C7.24805 19.0868 7.24805 19.0922 7.24805 19.0976C7.24805 19.1031 7.24805 19.1085 7.24805 19.1139C7.24805 19.1194 7.24805 19.1248 7.24805 19.1302C7.24805 19.1356 7.24805 19.1411 7.24805 19.1465C7.24805 19.1519 7.24805 19.1574 7.24805 19.1628C7.24805 19.1683 7.24805 19.1737 7.24805 19.1791C7.24805 19.1846 7.24805 19.19 7.24805 19.1955C7.24805 19.2009 7.24805 19.2064 7.24805 19.2118C7.24805 19.2172 7.24805 19.2227 7.24805 19.2281C7.24805 19.2336 7.24805 19.239 7.24805 19.2445C7.24805 19.25 7.24805 19.2554 7.24805 19.2609C7.24805 19.2663 7.24805 19.2718 7.24805 19.2772C7.24805 19.2827 7.24805 19.2882 7.24805 19.2936C7.24805 19.2991 7.24805 19.3046 7.24805 19.31C7.24805 19.3155 7.24805 19.321 7.24805 19.3264C7.24805 19.3319 7.24805 19.3374 7.24805 19.3428C7.24805 19.3483 7.24805 19.3538 7.24805 19.3593C7.24805 19.3647 7.24805 19.3702 7.24805 19.3757C7.24805 19.3812 7.24805 19.3867 7.24805 19.3921C7.24805 19.3976 7.24805 19.4031 7.24805 19.4086C7.24805 19.4141 7.24805 19.4196 7.24805 19.4251C7.24805 19.4306 7.24805 19.436 7.24805 19.4415C7.24805 19.447 7.24805 19.4525 7.24805 19.458C7.24805 19.4635 7.24805 19.469 7.24805 19.4745C7.24805 19.48 7.24805 19.4855 7.24805 19.491C7.24805 19.4965 7.24805 19.502 7.24805 19.5076C7.24805 19.5131 7.24805 19.5186 7.24805 19.5241C7.24805 19.5296 7.24805 19.5351 7.24805 19.5406C7.24805 19.5461 7.24805 19.5517 7.24805 19.5572C7.24805 19.5627 7.24805 19.5682 7.24805 19.5737C7.24805 19.5793 7.24805 19.5848 7.24805 19.5903C7.24805 19.5958 7.24805 19.6014 7.24805 19.6069C7.24805 19.6124 7.24805 19.618 7.24805 19.6235C7.24805 19.629 7.24805 19.6346 7.24805 19.6401C7.24805 19.6457 7.24805 19.6512 7.24805 19.6567C7.24805 19.6623 7.24805 19.6678 7.24805 19.6734C7.24805 19.6789 7.24805 19.6845 7.24805 19.69C7.24805 19.6956 7.24805 19.7011 7.24805 19.7067C7.24805 19.7122 7.24805 19.7178 7.24805 19.7233C7.24805 19.7289 7.24805 19.7345 7.24805 19.74C7.24805 19.7456 7.24805 19.7511 7.24805 19.7567C7.24805 19.7623 7.24805 19.7678 7.24805 19.7734C7.24805 19.779 7.24805 19.7846 7.24805 19.7901C7.24805 19.7957 7.24805 19.8013 7.24805 19.8069C7.24805 19.8124 7.24805 19.818 7.24805 19.8236C7.24805 19.8292 7.24805 19.8348 7.24805 19.8404C7.24805 19.8459 7.24805 19.8515 7.24805 19.8571C7.24805 19.8627 7.24805 19.8683 7.24805 19.8739C7.24805 19.8795 7.24805 19.8851 7.24805 19.8907C7.24805 19.8963 7.24805 19.9019 7.24805 19.9075C7.24805 19.9131 7.24805 19.9187 7.24805 19.9243C7.24805 19.9299 7.24805 19.9355 7.24805 19.9411C7.24805 19.9468 7.24805 19.9524 7.24805 19.958C7.24805 19.9636 7.24805 19.9692 7.24805 19.9748C7.24805 19.9805 7.24805 19.9861 7.24805 19.9917C7.24805 19.9973 7.24805 20.003 7.24805 20.0086C7.24805 20.0142 7.24805 20.0199 7.24805 20.0255C7.24805 20.0311 7.24805 20.0368 7.24805 20.0424C7.24805 20.048 7.24805 20.0537 7.24805 20.0593C7.24805 20.065 7.24805 20.0706 7.24805 20.0763C7.24805 20.0819 7.24805 20.0875 7.24805 20.0932C7.24805 20.0989 7.24805 20.1045 7.24805 20.1102C7.24805 20.1158 7.24805 20.1215 7.24805 20.1271C7.24805 20.1328 7.24805 20.1385 7.24805 20.1441C7.24805 20.1498 7.24805 20.1555 7.24805 20.1611C7.24805 20.1668 7.24805 20.1725 7.24805 20.1782C7.24805 20.1838 7.24805 20.1895 7.24805 20.1952C7.24805 20.2009 7.24805 20.2065 7.24805 20.2122C7.24805 20.2179 7.24805 20.2236 7.24805 20.2293C7.24805 20.235 7.24805 20.2407 7.24805 20.2464C7.24805 20.2521 7.24805 20.2578 7.24805 20.2635C7.24805 20.2692 7.24805 20.2749 7.24805 20.2806C7.24805 20.2863 7.24805 20.292 7.24805 20.2977C7.24805 20.3034 7.24805 20.3091 7.24805 20.3148C7.24805 20.3205 7.24805 20.3262 7.24805 20.332C7.24805 20.3377 7.24805 20.3434 7.24805 20.3491C7.24805 20.3548 7.24805 20.3606 7.24805 20.3663C7.24805 20.372 7.24805 20.3778 7.24805 20.3835C7.24805 20.3892 7.24805 20.395 7.24805 20.4007C7.24805 20.4064 7.24805 20.4122 7.24805 20.4179C7.24805 20.4237 7.24805 20.4294 7.24805 20.4352C7.24805 20.4409 7.24805 20.4467 7.24805 20.4524C7.24805 20.4582 7.24805 20.4639 7.24805 20.4697C7.24805 20.4754 7.24805 20.4812 7.24805 20.487C7.24805 20.4927 7.24805 20.4985 7.24805 20.5043C7.24805 20.51 7.24805 20.5158 7.24805 20.5216C7.24805 20.5273 7.24805 20.5331 7.24805 20.5389C7.24805 20.5447 7.24805 20.5505 7.24805 20.5562C7.24805 20.562 7.24805 20.5678 7.24805 20.5736C7.24805 20.5794 7.24805 20.5852 7.24805 20.591C7.24805 20.5968 7.24805 20.6026 7.24805 20.6084C7.24805 20.6142 7.24805 20.62 7.24805 20.6258C7.24805 20.6316 7.24805 20.6374 7.24805 20.6432C7.24805 20.649 7.24805 20.6548 7.24805 20.6606C7.24805 20.6665 7.24805 20.6723 7.24805 20.6781C7.24805 20.6839 7.24805 20.6897 7.24805 20.6956C7.24805 20.7014 7.24805 20.7072 7.24805 20.7131C7.24805 20.7189 7.24805 20.7247 7.24805 20.7306C7.24805 20.7364 7.24805 20.7423 7.24805 20.7481C7.24805 20.7539 7.24805 20.7598 7.24805 20.7656C7.24805 20.7715 7.24805 20.7773 7.24805 20.7832C7.24805 20.789 7.24805 20.7949 7.24805 20.8008C7.24805 20.8066 7.24805 20.8125 7.24805 20.8184C7.24805 20.8242 7.24805 20.8301 7.24805 20.836C7.24805 20.8418 7.24805 20.8477 7.24805 20.8536C7.24805 20.8595 7.24805 20.8653 7.24805 20.8712C7.24805 20.8771 7.24805 20.883 7.24805 20.8889C7.24805 20.8948 7.24805 20.9007 7.24805 20.9066C7.24805 20.9125 7.24805 20.9183 7.24805 20.9242C7.24805 20.9301 7.24805 20.9361 7.24805 20.942C7.24805 20.9479 7.24805 20.9538 7.24805 20.9597C7.24805 20.9656 7.24805 20.9715 7.24805 20.9774C7.24805 20.9833 7.24805 20.9893 7.24805 20.9952C7.24805 21.0011 7.24805 21.007 7.24805 21.013C7.24805 21.0189 7.24805 21.0248 7.24805 21.0308C7.24805 21.0367 7.24805 21.0426 7.24805 21.0486C7.24805 21.0545 7.24805 21.0605 7.24805 21.0664C7.24805 21.0724 7.24805 21.0783 7.24805 21.0843C7.24805 21.0902 7.24805 21.0962 7.24805 21.1021C7.24805 21.1081 7.24805 21.1141 7.24805 21.12C7.24805 21.126 7.24805 21.132 7.24805 21.1379C7.24805 21.1439 7.24805 21.1499 7.24805 21.1559C7.24805 21.1618 7.24805 21.1678 7.24805 21.1738C7.24805 21.1798 7.24805 21.1858 7.24805 21.1918C7.24805 21.1978 7.24805 21.2037 7.24805 21.2097C7.24805 21.2157 7.24805 21.2217 7.24805 21.2277C7.24805 21.2337 7.24805 21.2397 7.24805 21.2458C7.24805 21.2518 7.24805 21.2578 7.24805 21.2638C7.24805 21.2698 7.24805 21.2758 7.24805 21.2818C7.24805 21.2879 7.24805 21.2939 7.24805 21.2999C7.24805 21.3059 7.24805 21.312 7.24805 21.318C7.24805 21.324 7.24805 21.3301 7.24805 21.3361C7.24805 21.3422 7.24805 21.3482 7.24805 21.3543C7.24805 21.3603 7.24805 21.3664 7.24805 21.3724C7.24805 21.3785 7.24805 21.3845 7.24805 21.3906C7.24805 21.3966 7.24805 21.4027 7.24805 21.4088C7.24805 21.4148 7.24805 21.4209 7.24805 21.427C7.24805 21.433 7.24805 21.4391 7.24805 21.4452C7.24805 21.4513 7.24805 21.4574 7.24805 21.4634C7.24805 21.4695 7.24805 21.4756 7.24805 21.4817C7.24805 21.4878 7.24805 21.4939 7.24805 21.5H7.99805ZM7.99805 13H8.74805V2.5H7.99805H7.24805V13H7.99805Z" fill="currentColor" />
    <path d="M4.99805 21.5H10.998" stroke="currentColor" stroke-width="2" stroke-linecap="square" stroke-linejoin="round" />
    <path d="M7.99805 2.50007L18.998 2.5L15.998 6.5L18.998 10.5L7.99805 10.5001" stroke="currentColor" stroke-width="2" />
</svg>