<svg xmlns="http://www.w3.org/2000/svg" width="24" height="24" viewBox="0 0 24 24" fill="none">
    <path d="M15.2459 4.92311C16.5709 7.35227 17.5703 9.45539 17.8908 12M15.2459 4.92311C15.0829 4.97298 14 5 14 5M15.2459 4.92311C15.8954 4.7243 16.3636 4.16227 16.3636 3.5C16.3636 2.67157 15.631 2 14.7273 2H9.27273C8.75868 2 8.29999 2.21728 8 2.55711" stroke="currentColor" stroke-width="2" stroke-linecap="square" stroke-linejoin="round" />
    <path d="M18 22V22.75H18.75V22H18ZM6 22H5.25V22.75H6V22ZM6 14.0606H6.75C6.75 11.8979 7.25624 10.1388 8.1023 8.31572L7.422 8L6.74169 7.68428C5.82711 9.65497 5.25 11.6305 5.25 14.0606H6ZM18 18.1379H17.25V22H18H18.75V18.1379H18ZM18 22V21.25H6V22V22.75H18V22ZM6 22H6.75V14.0606H6H5.25V22H6Z" fill="currentColor" />
    <path d="M6 12L14 14" stroke="currentColor" stroke-width="2" stroke-linejoin="round" />
    <path d="M2 2L22 22" stroke="currentColor" stroke-width="2" stroke-linejoin="round" />
</svg>