<svg xmlns="http://www.w3.org/2000/svg" width="24" height="24" viewBox="0 0 24 24" fill="none">
    <path d="M5 22H19V2H5V22Z" stroke="currentColor" stroke-width="2" stroke-linecap="square" />
    <path d="M15.5 9.99844C15.5 12.7984 12 14.3984 12 14.3984C12 14.3984 8.5 12.7984 8.5 9.99844C8.5 8.01021 10.067 6.39844 12 6.39844C13.933 6.39844 15.5 8.01021 15.5 9.99844Z" stroke="currentColor" stroke-width="2" stroke-linecap="square" />
    <path d="M12.125 10H12M12.25 10C12.25 10.1381 12.1381 10.25 12 10.25C11.8619 10.25 11.75 10.1381 11.75 10C11.75 9.86193 11.8619 9.75 12 9.75C12.1381 9.75 12.25 9.86193 12.25 10Z" stroke="currentColor" stroke-width="2" stroke-linecap="round" />
    <path d="M12.125 19H12M12.25 19C12.25 19.1381 12.1381 19.25 12 19.25C11.8619 19.25 11.75 19.1381 11.75 19C11.75 18.8619 11.8619 18.75 12 18.75C12.1381 18.75 12.25 18.8619 12.25 19Z" stroke="currentColor" stroke-width="2" stroke-linecap="round" />
</svg>