<svg xmlns="http://www.w3.org/2000/svg" width="24" height="24" viewBox="0 0 24 24" fill="none">
    <path d="M3 11C3 8.23571 5.23571 6 8 6L7 8.5" stroke="currentColor" stroke-width="2" stroke-linecap="square" />
    <path d="M21 13C21 15.7643 18.7643 18 16 18L17 15.5" stroke="currentColor" stroke-width="2" stroke-linecap="square" />
    <path d="M11 3H22V10H11V3Z" stroke="currentColor" stroke-width="2" stroke-linecap="square" />
    <path d="M2 14H13V21H2V14Z" stroke="currentColor" stroke-width="2" stroke-linecap="square" />
    <path d="M7.75 17.5H7.5M8 17.5C8 17.7761 7.77614 18 7.5 18C7.22386 18 7 17.7761 7 17.5C7 17.2239 7.22386 17 7.5 17C7.77614 17 8 17.2239 8 17.5Z" stroke="currentColor" stroke-width="2" stroke-linecap="round" />
    <path d="M16.75 6.5H16.5M17 6.5C17 6.77614 16.7761 7 16.5 7C16.2239 7 16 6.77614 16 6.5C16 6.22386 16.2239 6 16.5 6C16.7761 6 17 6.22386 17 6.5Z" stroke="currentColor" stroke-width="2" stroke-linecap="round" />
</svg>