<svg xmlns="http://www.w3.org/2000/svg" width="24" height="24" viewBox="0 0 24 24" fill="none">
    <path d="M9.87868 9.87866C9.33579 10.4216 9 11.1716 9 12C9 13.6568 10.3431 15 12 15C12.8284 15 13.5784 14.6642 14.1213 14.1213" stroke="currentColor" stroke-width="2" stroke-linecap="square" />
    <path d="M3 3L21 21" stroke="currentColor" stroke-width="2" stroke-linecap="square" />
    <path d="M4.5 5H2V19H18.5M9 5H22V18" stroke="currentColor" stroke-width="2" stroke-linecap="square" />
    <path d="M5.375 12H5.25M5.5 12C5.5 12.1381 5.38807 12.25 5.25 12.25C5.11193 12.25 5 12.1381 5 12C5 11.8619 5.11193 11.75 5.25 11.75C5.38807 11.75 5.5 11.8619 5.5 12Z" stroke="currentColor" stroke-width="2" stroke-linecap="round" stroke-linejoin="round" />
    <path d="M18.875 12H18.75M19 12C19 12.1381 18.8881 12.25 18.75 12.25C18.6119 12.25 18.5 12.1381 18.5 12C18.5 11.8619 18.6119 11.75 18.75 11.75C18.8881 11.75 19 11.8619 19 12Z" stroke="currentColor" stroke-width="2" stroke-linecap="round" stroke-linejoin="round" />
</svg>