<svg xmlns="http://www.w3.org/2000/svg" width="24" height="24" viewBox="0 0 24 24" fill="none">
    <path d="M18.4999 14.5C18.4999 15.3284 17.8284 16 16.9999 16C16.1715 16 15.4999 15.3284 15.4999 14.5C15.4999 13.6716 16.1715 13 16.9999 13C17.8284 13 18.4999 13.6716 18.4999 14.5Z" stroke="currentColor" stroke-width="2" stroke-linecap="square" />
    <path d="M16.9999 8.125V8.25M17.2499 8.25C17.2499 8.38807 17.138 8.5 16.9999 8.5C16.8619 8.5 16.7499 8.38807 16.7499 8.25C16.7499 8.11193 16.8619 8 16.9999 8C17.138 8 17.2499 8.11193 17.2499 8.25Z" stroke="currentColor" stroke-width="2" stroke-linecap="round" />
    <path d="M5.99994 20H3.99994M5.99994 20C6.82837 20 7.49994 19.3284 7.49994 18.5V16L7.99994 16M5.99994 20H8.49994V16L7.99994 16M7.99994 16V20" stroke="currentColor" stroke-width="2" stroke-linecap="square" />
    <path d="M7.99994 16H1.99994L1.99994 4H7.99994" stroke="currentColor" stroke-width="2" stroke-linecap="square" />
    <path d="M21.9999 4H11.9999V20H21.9999V4Z" stroke="currentColor" stroke-width="2" stroke-linecap="square" />
</svg>