<svg xmlns="http://www.w3.org/2000/svg" width="24" height="24" viewBox="0 0 24 24" fill="none">
    <path d="M2 2L22 22" stroke="currentColor" stroke-width="2" stroke-linecap="square" />
    <path d="M7.58581 2.32857L6.9427 2.71445L7.71445 4.00068L8.35757 3.61481L7.97169 2.97169L7.58581 2.32857ZM18.6428 14.3136L18.5674 15.0598L20.0598 15.2105L20.1352 14.4643L19.389 14.389L18.6428 14.3136ZM4.5 12H3.75C3.75 14.7847 4.12483 17.4585 5.36262 19.4541C6.64252 21.5176 8.7768 22.75 12 22.75V22V21.25C9.22309 21.25 7.6074 20.2274 6.63732 18.6634C5.62513 17.0316 5.25 14.7053 5.25 12H4.5ZM19.5 12H20.25C20.25 9.21527 19.8751 6.54152 18.6373 4.54592C17.3574 2.48242 15.2231 1.25 12 1.25V2V2.75C14.7768 2.75 16.3926 3.77257 17.3626 5.33657C18.3749 6.96846 18.75 9.29472 18.75 12H19.5ZM12 2V1.25C10.225 1.25 8.7635 1.62195 7.58581 2.32857L7.97169 2.97169L8.35757 3.61481C9.25462 3.07656 10.4355 2.75 12 2.75V2ZM19.389 14.389L20.1352 14.4643C20.2156 13.6681 20.25 12.8422 20.25 12H19.5H18.75C18.75 12.8023 18.7171 13.577 18.6428 14.3136L19.389 14.389ZM5.63476 5.60645L4.95989 5.27927C4.04402 7.16841 3.75 9.53518 3.75 12H4.5H5.25C5.25 9.61815 5.54047 7.52017 6.30963 5.93363L5.63476 5.60645ZM12 22V22.75C13.7918 22.75 15.2641 22.3709 16.4473 21.6514C17.6332 20.9302 18.4771 19.8983 19.0602 18.6789L18.3836 18.3553L17.707 18.0318C17.228 19.0335 16.5655 19.8239 15.6679 20.3698C14.7676 20.9173 13.5791 21.25 12 21.25V22Z" fill="currentColor" />
    <path d="M11.25 8V8.75H12.75V8H12H11.25ZM12 8H12.75V5H12H11.25V8H12Z" fill="currentColor" />
</svg>