<svg xmlns="http://www.w3.org/2000/svg" width="24" height="24" viewBox="0 0 24 24" fill="none">
    <path d="M10.5 8.5V9.25H12V8.5H11.25H10.5ZM11.25 8.5H12V5.5H11.25H10.5V8.5H11.25Z" fill="currentColor" />
    <path d="M12.25 2.0449C11.9314 2.0152 11.5983 2 11.25 2C5.25 2 3.75 6.50998 3.75 12C3.75 17.49 5.25 22 11.25 22C17.2501 22 18.75 17.49 18.75 12C18.75 11.3158 18.7267 10.6469 18.6743 10" stroke="currentColor" stroke-width="2" stroke-linecap="square" stroke-linejoin="round" />
    <path d="M16.25 4C16.25 5.10457 17.1454 6 18.25 6C19.3546 6 20.25 5.10457 20.25 4C20.25 2.89543 19.3546 2 18.25 2C17.1454 2 16.25 2.89543 16.25 4Z" stroke="currentColor" stroke-width="2" stroke-linecap="round" stroke-linejoin="round" />
</svg>