<svg xmlns="http://www.w3.org/2000/svg" width="24" height="24" viewBox="0 0 24 24" fill="none">
    <path d="M3.00006 11.9997L2.46973 11.4693L1.9394 11.9997L2.46973 12.53L3.00006 11.9997ZM20.9998 11.9999L21.5301 12.5302L22.0605 11.9999L21.5301 11.4695L20.9998 11.9999ZM7.00006 15.9997L7.53039 15.4694L3.53039 11.4693L3.00006 11.9997L2.46973 12.53L6.46973 16.53L7.00006 15.9997ZM3.00006 11.9997L3.53039 12.53L7.53039 8.53003L7.00006 7.99969L6.46973 7.46936L2.46973 11.4693L3.00006 11.9997ZM16.9993 7.99991L16.469 8.53027L20.4695 12.5302L20.9998 11.9999L21.5301 11.4695L17.5296 7.46955L16.9993 7.99991ZM20.9998 11.9999L20.4695 11.4695L16.469 15.4696L16.9993 15.9999L17.5296 16.5303L21.5301 12.5302L20.9998 11.9999ZM20.5001 11.9998V11.2498H3.5001V11.9998V12.7498H20.5001V11.9998Z" fill="currentColor" />
</svg>