<svg xmlns="http://www.w3.org/2000/svg" width="24" height="24" viewBox="0 0 24 24" fill="none">
    <path d="M22 4.5H2V19.5H22V4.5Z" stroke="currentColor" stroke-width="2" />
    <path d="M17 4.5V19.5" stroke="currentColor" stroke-width="2" />
    <path d="M7 4.5V19.5" stroke="currentColor" stroke-width="2" />
    <path d="M4.625 8.5H4.5M4.75 8.5C4.75 8.63807 4.63807 8.75 4.5 8.75C4.36193 8.75 4.25 8.63807 4.25 8.5C4.25 8.36193 4.36193 8.25 4.5 8.25C4.63807 8.25 4.75 8.36193 4.75 8.5Z" stroke="currentColor" stroke-width="2" stroke-linecap="round" />
    <path d="M19.625 15.5H19.5M19.75 15.5C19.75 15.6381 19.6381 15.75 19.5 15.75C19.3619 15.75 19.25 15.6381 19.25 15.5C19.25 15.3619 19.3619 15.25 19.5 15.25C19.6381 15.25 19.75 15.3619 19.75 15.5Z" stroke="currentColor" stroke-width="2" stroke-linecap="round" />
</svg>