<svg xmlns="http://www.w3.org/2000/svg" width="24" height="24" viewBox="0 0 24 24" fill="none">
    <path d="M10.5 2H6C3.79086 2 2 3.79086 2 6V14C2 16.2091 3.79086 18 6 18H10.5V2Z" stroke="currentColor" stroke-width="2" />
    <path d="M13.5 6H18C20.2091 6 22 7.79086 22 10V18C22 20.2091 20.2091 22 18 22H13.5V6Z" stroke="currentColor" stroke-width="2" />
    <path d="M6.375 14H6.25M6.5 14C6.5 14.1381 6.38807 14.25 6.25 14.25C6.11193 14.25 6 14.1381 6 14C6 13.8619 6.11193 13.75 6.25 13.75C6.38807 13.75 6.5 13.8619 6.5 14Z" stroke="currentColor" stroke-width="2" stroke-linecap="round" />
    <path d="M17.875 10H17.75M18 10C18 10.1381 17.8881 10.25 17.75 10.25C17.6119 10.25 17.5 10.1381 17.5 10C17.5 9.86193 17.6119 9.75 17.75 9.75C17.8881 9.75 18 9.86193 18 10Z" stroke="currentColor" stroke-width="2" stroke-linecap="round" />
    <path d="M6.25 5.5V8.5M4.75 7H7.75" stroke="currentColor" stroke-width="2" stroke-linecap="square" />
    <path d="M17.75 18.5V15.5M19.25 17H16.25" stroke="currentColor" stroke-width="2" stroke-linecap="square" />
</svg>