<svg xmlns="http://www.w3.org/2000/svg" width="24" height="24" viewBox="0 0 24 24" fill="none">
    <path d="M6.69596 7.19189C4.4013 8.54013 2.29544 10.6023 2.05453 12.9516C1.67875 16.6162 3.39301 18.2931 2.70241 20.2976C4.70687 19.607 6.38382 21.3213 10.0484 20.9455C12.3977 20.7046 14.4599 18.5987 15.8081 16.304" stroke="currentColor" stroke-width="2" stroke-linecap="square" />
    <path d="M22 4.50589C21.4162 4.0285 19.6717 3.54667 17.5673 4.92328M9.20221 4.20221C9.28486 4.05849 9.38944 3.9244 9.50947 3.80438C9.57693 3.73692 9.64738 3.67365 9.72794 3.62254C10.8062 2.93847 14.2401 2.10551 17.5673 5.43273C20.8945 8.75994 20.0615 12.1938 19.3775 13.2721C19.3264 13.3526 19.2631 13.4231 19.1956 13.4905C19.0756 13.6106 18.9415 13.7151 18.7978 13.7978" stroke="currentColor" stroke-width="2" stroke-linecap="square" />
    <path d="M2 2L22 22" stroke="currentColor" stroke-width="2" stroke-linecap="square" />
</svg>