<svg xmlns="http://www.w3.org/2000/svg" width="24" height="24" viewBox="0 0 24 24" fill="none">
    <path d="M18.6667 3.00001C19.8356 3.00001 20.9578 3.19634 22 3.55847V19.0585C20.9578 18.6963 19.8356 18.5 18.6667 18.5C16.2062 18.4966 13.8315 19.3871 12 21C10.1685 19.3871 7.79379 18.4966 5.33333 18.5C4.16444 18.5 3.04222 18.6963 2 19.0585V3.55847C3.04222 3.19634 4.16444 3.00001 5.33333 3.00001M12 20.25V12" stroke="currentColor" stroke-width="2" stroke-linecap="square" />
    <path d="M8 4.44561C8 4.44561 9.5 3.00004 12.0045 3C14.5091 2.99996 16 4.44561 16 4.44561M14.5 6.99996C14.5 6.99996 13.5091 5.99742 12.0045 5.99742C10.5 5.99742 9.5 6.99996 9.5 6.99996M12.05 8.9H12M12.1 8.9C12.1 8.95523 12.0552 9 12 9C11.9448 9 11.9 8.95523 11.9 8.9C11.9 8.84478 11.9448 8.8 12 8.8C12.0552 8.8 12.1 8.84478 12.1 8.9Z" stroke="currentColor" stroke-width="2" stroke-linecap="round" stroke-linejoin="round" />
</svg>