<svg xmlns="http://www.w3.org/2000/svg" width="24" height="24" viewBox="0 0 24 24" fill="none">
    <path d="M21.093 13.2606C21.093 17.7081 17.023 20.3068 12.0023 20.3068C6.98162 20.3068 2.91156 17.7081 2.91156 13.2606C2.91156 8.81315 6.98162 4.20117 12.0023 4.20117C17.023 4.20117 21.093 8.81315 21.093 13.2606Z" stroke="currentColor" stroke-width="2" />
    <path d="M8.00035 4.80708L7.62361 4.47288C6.29693 3.29601 4.2544 3.47335 3.15041 4.86126C2.44207 5.75176 2.27986 6.95927 2.72809 8.00514L3.50035 9.80708M16.0003 4.80708L16.3771 4.47288C17.7038 3.29601 19.7463 3.47335 20.8503 4.86126C21.5586 5.75176 21.7208 6.95927 21.2726 8.00514L20.5003 9.80708" stroke="currentColor" stroke-width="2" stroke-linecap="round" />
    <path d="M17.4152 9.81779C18.2035 10.9925 18.1882 12.6948 17.4208 13.4271C16.6535 14.1594 15.3923 13.8008 14.604 12.626C13.8156 11.4513 13.7986 9.90533 14.566 9.17301C15.1839 8.58331 16.6268 8.64306 17.4152 9.81779Z" stroke="currentColor" stroke-width="2" />
    <path d="M6.58763 9.81779C5.79928 10.9925 5.81462 12.6948 6.58197 13.4271C7.34931 14.1594 8.61046 13.8008 9.39882 12.626C10.1872 11.4513 10.2042 9.90533 9.43685 9.17301C8.81895 8.58331 7.37599 8.64306 6.58763 9.81779Z" stroke="currentColor" stroke-width="2" />
    <path d="M11.5014 15.807L12.0014 16.307L12.5014 15.807C12.2253 15.5308 11.7775 15.5308 11.5014 15.807Z" stroke="currentColor" stroke-width="2" />
</svg>