<svg xmlns="http://www.w3.org/2000/svg" width="24" height="24" viewBox="0 0 24 24" fill="none">
    <path d="M2.00044 2L22.0004 22" stroke="currentColor" stroke-width="2" stroke-linecap="square" />
    <path d="M14.5004 9.5H16.0004C16.8289 9.5 17.5004 10.1716 17.5004 11V12.5" stroke="currentColor" stroke-width="2" stroke-linecap="square" />
    <path d="M8.50132 13.5L7.98841 14.0472L9.25132 13.5H8.50132ZM6.19362 11.3369L6.70653 10.7897L6.67652 10.7616L6.64362 10.7369L6.19362 11.3369ZM3.74032 11.8174L3.0972 11.4316H3.0972L3.74032 11.8174ZM3.77048 13.5979L4.40114 13.192L4.40016 13.1904L3.77048 13.5979ZM20.5013 21.75H21.2513V20.25H20.5013V21V21.75ZM8.53495 21L7.9043 21.4059L8.12576 21.75H8.53495V21ZM8.50132 13.5H9.25132V8.5H8.50132H7.75132V13.5H8.50132ZM8.50132 13.5L9.01424 12.9528L6.70653 10.7897L6.19362 11.3369L5.68071 11.8841L7.98841 14.0472L8.50132 13.5ZM3.74032 11.8174L3.0972 11.4316C2.6196 12.2276 2.63651 13.226 3.14081 14.0053L3.77048 13.5979L4.40016 13.1904C4.20675 12.8915 4.20026 12.5086 4.38344 12.2033L3.74032 11.8174ZM6.19362 11.3369L6.64362 10.7369C5.48932 9.87115 3.83955 10.1943 3.0972 11.4316L3.74032 11.8174L4.38344 12.2033C4.66816 11.7288 5.30091 11.6048 5.74362 11.9369L6.19362 11.3369ZM20.5013 21V20.25H8.53495V21V21.75H20.5013V21ZM3.77048 13.5979L3.13983 14.0038L7.9043 21.4059L8.53495 21L9.1656 20.5941L4.40114 13.192L3.77048 13.5979Z" fill="currentColor" />
    <path d="M17.5004 10.5H19.0004C19.8289 10.5 20.5004 11.1716 20.5004 12V16" stroke="currentColor" stroke-width="2" stroke-linecap="square" />
    <path d="M10.7504 6V6.75H12.2504V6H11.5004H10.7504ZM11.5004 3.5H10.7504V6H11.5004H12.2504V3.5H11.5004ZM11.5004 3.5H12.2504C12.2504 2.25736 11.2431 1.25 10.0004 1.25V2V2.75C10.4147 2.75 10.7504 3.08579 10.7504 3.5H11.5004ZM8.50044 3.5H9.25044C9.25044 3.08579 9.58623 2.75 10.0004 2.75V2V1.25C8.7578 1.25 7.75044 2.25736 7.75044 3.5H8.50044ZM8.50044 4H9.25044V3.5H8.50044H7.75044V4H8.50044Z" fill="currentColor" />
</svg>