<svg xmlns="http://www.w3.org/2000/svg" width="24" height="24" viewBox="0 0 24 24" fill="none">
    <path d="M17 17H22V9C22 7.89543 21.1046 7 20 7H4C2.89543 7 2 7.89543 2 9V17H7" stroke="currentColor" stroke-width="2" stroke-linecap="square" />
    <path d="M17 7V2H7V7" stroke="currentColor" stroke-width="2" stroke-linecap="square" />
    <path d="M17 14V22H7V14H17Z" stroke="currentColor" stroke-width="2" stroke-linecap="square" />
    <path d="M18.8748 10.25H18.7498M18.9998 10.25C18.9998 10.3881 18.8879 10.5 18.7498 10.5C18.6117 10.5 18.4998 10.3881 18.4998 10.25C18.4998 10.1119 18.6117 10 18.7498 10C18.8879 10 18.9998 10.1119 18.9998 10.25Z" stroke="currentColor" stroke-width="2" stroke-linecap="round" />
</svg>