<svg xmlns="http://www.w3.org/2000/svg" width="24" height="24" viewBox="0 0 24 24" fill="none">
    <path d="M16 3H8L8 9L2.99805 9V16H8V21H16V15H20.998V8L16 8V3Z" stroke="currentColor" stroke-width="2" stroke-linecap="square" />
    <path d="M11.1248 6H10.9998M11.2498 6C11.2498 6.13807 11.1379 6.25 10.9998 6.25C10.8617 6.25 10.7498 6.13807 10.7498 6C10.7498 5.86193 10.8617 5.75 10.9998 5.75C11.1379 5.75 11.2498 5.86193 11.2498 6Z" stroke="currentColor" stroke-width="2" stroke-linecap="round" />
    <path d="M13.125 18H13M13.25 18C13.25 18.1381 13.1381 18.25 13 18.25C12.8619 18.25 12.75 18.1381 12.75 18C12.75 17.8619 12.8619 17.75 13 17.75C13.1381 17.75 13.25 17.8619 13.25 18Z" stroke="currentColor" stroke-width="2" stroke-linecap="round" />
    <path d="M16 8V12H8V16M12 15H16M8 9H12" stroke="currentColor" stroke-width="2" stroke-linecap="square" />
</svg>