<svg xmlns="http://www.w3.org/2000/svg" width="24" height="24" viewBox="0 0 24 24" fill="none">
    <path d="M9.99988 13C9.99988 14.6569 8.65673 16 6.99988 16C5.34302 16 3.99988 14.6569 3.99988 13C3.99988 11.3431 5.34302 10 6.99988 10C8.65673 10 9.99988 11.3431 9.99988 13Z" stroke="currentColor" stroke-width="2" stroke-linecap="square" />
    <path d="M16.9999 12.5C19.7613 12.5 21.9999 10.3734 21.9999 7.75C21.9999 5.12665 19.7613 3 16.9999 3C14.2385 3 11.9999 5.12665 11.9999 7.75C11.9999 9.11286 12.604 10.3417 13.5718 11.2079C13.6416 11.5817 13.6466 12.1941 12.9999 12.9431L12.9991 12.9999C14.1889 12.9999 14.9616 12.7195 15.6505 12.325C16.0797 12.439 16.5323 12.5 16.9999 12.5Z" stroke="currentColor" stroke-width="2" stroke-linecap="square" />
    <path d="M11.9999 21C11.9999 18.2386 9.7613 16 6.99988 16C4.23845 16 1.99988 18.2386 1.99988 21" stroke="currentColor" stroke-width="2" stroke-linecap="square" />
    <path d="M15.3999 7.49941H15.3499M18.6999 7.49957H18.6499M15.4499 7.49941C15.4499 7.55464 15.4051 7.59941 15.3499 7.59941C15.2946 7.59941 15.2499 7.55464 15.2499 7.49941C15.2499 7.44419 15.2946 7.39941 15.3499 7.39941C15.4051 7.39941 15.4499 7.44419 15.4499 7.49941ZM18.7499 7.49957C18.7499 7.5548 18.7051 7.59957 18.6499 7.59957C18.5946 7.59957 18.5499 7.5548 18.5499 7.49957C18.5499 7.44434 18.5946 7.39957 18.6499 7.39957C18.7051 7.39957 18.7499 7.44434 18.7499 7.49957Z" stroke="currentColor" stroke-width="2" stroke-linecap="round" stroke-linejoin="round" />
</svg>