<svg xmlns="http://www.w3.org/2000/svg" width="24" height="24" viewBox="0 0 24 24" fill="none">
    <path d="M6.07186 15C-0.345739 7 10.0123 5 12.0001 2C13.9875 5 24.3473 7 17.9267 15V21.9991L6.07249 22L6.07186 15Z" stroke="currentColor" stroke-width="2" stroke-linecap="square" />
    <path d="M14.5 11.6952C14.0289 12.4771 13.1717 13 12.1923 13C10.7054 13 9.5 11.7946 9.5 10.3077C9.5 9.32834 10.0229 8.47111 10.8048 8" stroke="currentColor" stroke-width="2" stroke-linecap="square" />
    <path d="M18 19.5L14.5 16.5L12 18.5L10 16.5L6 19.5" stroke="currentColor" stroke-width="2" />
    <path d="M14.125 8.5H14M14.25 8.5C14.25 8.63807 14.1381 8.75 14 8.75C13.8619 8.75 13.75 8.63807 13.75 8.5C13.75 8.36193 13.8619 8.25 14 8.25C14.1381 8.25 14.25 8.36193 14.25 8.5Z" stroke="currentColor" stroke-width="2" stroke-linecap="round" />
</svg>