<svg xmlns="http://www.w3.org/2000/svg" width="24" height="24" viewBox="0 0 24 24" fill="none">
    <path d="M7 9H7.75C8.99264 9 10 10.0074 10 11.25C10 12.4926 8.99264 13.5 7.75 13.5H7M7.5 13.5H9.5C10.6046 13.5 11.5 14.3954 11.5 15.5V15.7832" stroke="currentColor" stroke-width="2" stroke-linejoin="round" />
    <path d="M8 16H3.5C2.67157 16 2 16.6716 2 17.5C2 18.3284 2.67157 19 3.5 19H14" stroke="currentColor" stroke-width="2" stroke-linejoin="round" />
    <path d="M21.7271 13.5633L22.3631 13.1658L22.3631 13.1658L21.7271 13.5633ZM21.6061 13.3697L20.9701 13.7672L20.9701 13.7672L21.6061 13.3697ZM19 10L18.477 9.46244L17.9261 9.9984L18.4754 10.536L19 10ZM19.1392 5.85786L18.6162 6.39543V6.39543L19.1392 5.85786ZM14.8818 5.85786L14.3588 5.3203V5.3203L14.8818 5.85786ZM11.4743 6.1842L11.5673 5.43999L7.7132 4.95822L7.62017 5.70243L7.52715 6.44664L11.3813 6.92841L11.4743 6.1842ZM7.62017 5.70243L7.7132 4.95822C4.28129 4.52924 1.25 7.20521 1.25 10.6638H2H2.75C2.75 8.10746 4.99052 6.12956 7.52715 6.44664L7.62017 5.70243ZM2 10.6638H1.25V10.9999H2H2.75V10.6638H2ZM2 10.9999H1.25C1.25 14.1755 3.82436 16.7499 7 16.7499V15.9999V15.2499C4.65279 15.2499 2.75 13.3471 2.75 10.9999H2ZM7 15.9999V16.7499H21V15.9999V15.2499H7V15.9999ZM22 14.9999H22.75V14.5148H22H21.25V14.9999H22ZM22 14.9999H21.25C21.25 15.138 21.1381 15.2499 21 15.2499V15.9999V16.7499C21.9665 16.7499 22.75 15.9664 22.75 14.9999H22ZM22 14.5148H22.75C22.75 14.0378 22.6159 13.5703 22.3631 13.1658L21.7271 13.5633L21.0911 13.9608C21.1949 14.1269 21.25 14.3189 21.25 14.5148H22ZM21.7271 13.5633L22.3631 13.1658L22.2421 12.9722L21.6061 13.3697L20.9701 13.7672L21.0911 13.9608L21.7271 13.5633ZM11.4743 6.1842L11.3813 6.92841C12.1894 7.02942 12.9805 7.22316 13.7396 7.50416L14 6.80081L14.2604 6.09746C13.3936 5.77657 12.4901 5.55534 11.5673 5.43999L11.4743 6.1842ZM21.6061 13.3697L22.2421 12.9722C21.4878 11.7654 20.5759 10.4929 19.5246 9.464L19 10L18.4754 10.536C19.4061 11.4469 20.2454 12.6077 20.9701 13.7672L21.6061 13.3697ZM19.1392 5.85786L18.6162 6.39543C19.4426 7.19944 19.3988 8.56565 18.477 9.46244L19 10L19.523 10.5376C20.9526 9.14671 21.1872 6.80393 19.6622 5.3203L19.1392 5.85786ZM14.0009 8L14.7507 7.98141C14.7365 7.41184 14.9519 6.83601 15.4048 6.39543L14.8818 5.85786L14.3588 5.3203C13.5988 6.05969 13.2269 7.04199 13.2511 8.01859L14.0009 8ZM14.8818 5.85786L15.4048 6.39543C16.2893 5.53486 17.7317 5.53486 18.6162 6.39543L19.1392 5.85786L19.6622 5.3203C18.1954 3.89323 15.8256 3.89323 14.3588 5.3203L14.8818 5.85786Z" fill="currentColor" />
    <path d="M17 12H17.01" stroke="currentColor" stroke-width="2" stroke-linecap="round" stroke-linejoin="round" />
</svg>