<svg xmlns="http://www.w3.org/2000/svg" width="24" height="24" viewBox="0 0 24 24" fill="none">
    <path d="M3 21V13L8 9L13 13V21H3Z" stroke="currentColor" stroke-width="2" stroke-linecap="square" />
    <path d="M8 17V21" stroke="currentColor" stroke-width="2" stroke-linecap="square" />
    <path d="M9 21H21V3H9V9" stroke="currentColor" stroke-width="2" stroke-linecap="square" />
    <path d="M13.125 7H13M13.25 7C13.25 7.13807 13.1381 7.25 13 7.25C12.8619 7.25 12.75 7.13807 12.75 7C12.75 6.86193 12.8619 6.75 13 6.75C13.1381 6.75 13.25 6.86193 13.25 7Z" stroke="currentColor" stroke-width="2" stroke-linecap="round" stroke-linejoin="round" />
    <path d="M17.125 7H17M17.25 7C17.25 7.13807 17.1381 7.25 17 7.25C16.8619 7.25 16.75 7.13807 16.75 7C16.75 6.86193 16.8619 6.75 17 6.75C17.1381 6.75 17.25 6.86193 17.25 7Z" stroke="currentColor" stroke-width="2" stroke-linecap="round" stroke-linejoin="round" />
    <path d="M17.125 11H17M17.25 11C17.25 11.1381 17.1381 11.25 17 11.25C16.8619 11.25 16.75 11.1381 16.75 11C16.75 10.8619 16.8619 10.75 17 10.75C17.1381 10.75 17.25 10.8619 17.25 11Z" stroke="currentColor" stroke-width="2" stroke-linecap="round" stroke-linejoin="round" />
    <path d="M17.125 15H17M17.25 15C17.25 15.1381 17.1381 15.25 17 15.25C16.8619 15.25 16.75 15.1381 16.75 15C16.75 14.8619 16.8619 14.75 17 14.75C17.1381 14.75 17.25 14.8619 17.25 15Z" stroke="currentColor" stroke-width="2" stroke-linecap="round" stroke-linejoin="round" />
</svg>