<svg xmlns="http://www.w3.org/2000/svg" width="24" height="24" viewBox="0 0 24 24" fill="none">
    <path d="M12.1257 12H12.0007M8.125 12H8M16.125 12H16M12.2507 12C12.2507 12.1381 12.1388 12.25 12.0007 12.25C11.8627 12.25 11.7507 12.1381 11.7507 12C11.7507 11.8619 11.8627 11.75 12.0007 11.75C12.1388 11.75 12.2507 11.8619 12.2507 12ZM8.25 12C8.25 12.1381 8.13807 12.25 8 12.25C7.86193 12.25 7.75 12.1381 7.75 12C7.75 11.8619 7.86193 11.75 8 11.75C8.13807 11.75 8.25 11.8619 8.25 12ZM16.25 12C16.25 12.1381 16.1381 12.25 16 12.25C15.8619 12.25 15.75 12.1381 15.75 12C15.75 11.8619 15.8619 11.75 16 11.75C16.1381 11.75 16.25 11.8619 16.25 12Z" stroke="currentColor" stroke-width="2" stroke-linecap="round" stroke-linejoin="round" />
    <path d="M22 3.5H2V20.5H22V3.5Z" stroke="currentColor" stroke-width="2" stroke-linejoin="round" />
</svg>