<svg xmlns="http://www.w3.org/2000/svg" width="24" height="24" viewBox="0 0 24 24" fill="none">
    <path d="M22 12C22 17.5227 17.5229 22 12 22C6.47713 22 2 17.5227 2 12C2 6.47713 6.47713 2 12 2C17.5229 2 22 6.47713 22 12Z" stroke="currentColor" stroke-width="2" stroke-linecap="round" stroke-linejoin="round" />
    <path d="M19 10.5V11.5C19 13.1569 18 14.5 16.5 14.5" stroke="currentColor" stroke-width="2" stroke-linecap="square" />
    <path d="M11 8.5V13.5H14V12.5" stroke="currentColor" stroke-width="2" stroke-linecap="square" />
    <path d="M8 8.5V13.5H5V12.5" stroke="currentColor" stroke-width="2" stroke-linecap="square" />
    <path d="M11.15 16.1H11.1M13.9484 16.1H13.8984M11.2 16.1C11.2 16.1552 11.1552 16.2 11.1 16.2C11.0448 16.2 11 16.1552 11 16.1C11 16.0448 11.0448 16 11.1 16C11.1552 16 11.2 16.0448 11.2 16.1ZM13.9984 16.1C13.9984 16.1552 13.9537 16.2 13.8984 16.2C13.8432 16.2 13.7984 16.1552 13.7984 16.1C13.7984 16.0448 13.8432 16 13.8984 16C13.9537 16 13.9984 16.0448 13.9984 16.1Z" stroke="currentColor" stroke-width="2" stroke-linecap="round" stroke-linejoin="round" />
</svg>