<svg xmlns="http://www.w3.org/2000/svg" width="24" height="24" viewBox="0 0 24 24" fill="none">
    <path d="M19 16L17 16M13 16L11 16M7 16L5 16" stroke="currentColor" stroke-width="2" stroke-linecap="square" />
    <path d="M16 6.05C16 9.2 12 11 12 11C12 11 8 9.2 8 6.05C8 3.81325 9.79086 2 12 2C14.2091 2 16 3.81325 16 6.05Z" stroke="currentColor" stroke-width="2" stroke-linecap="square" />
    <path d="M12.1348 6H12.0098M12.2598 6C12.2598 6.13807 12.1478 6.25 12.0098 6.25C11.8717 6.25 11.7598 6.13807 11.7598 6C11.7598 5.86193 11.8717 5.75 12.0098 5.75C12.1478 5.75 12.2598 5.86193 12.2598 6Z" stroke="currentColor" stroke-width="2" stroke-linecap="round" />
    <path d="M18 10L22 10V22H2L2 10L6 10" stroke="currentColor" stroke-width="2" stroke-linecap="square" />
</svg>