<svg xmlns="http://www.w3.org/2000/svg" width="24" height="24" viewBox="0 0 24 24" fill="none">
    <path d="M19 16.0002L17 16.0002M13 16.0002L11 16.0002M7 16.0002L5 16.0002" stroke="currentColor" stroke-width="2" stroke-linecap="square" />
    <path d="M12 2.00015C9.92893 2.00015 8.25 3.62819 8.25 5.63647C8.25 6.78481 8.71875 7.67769 9.65625 8.47524C10.3171 9.0374 11.5194 10.2433 12 11.0002C12.505 10.2583 13.6829 9.0374 14.3438 8.47524C15.2812 7.67769 15.75 6.78481 15.75 5.63647C15.75 3.62819 14.0711 2.00015 12 2.00015Z" stroke="currentColor" stroke-width="2" stroke-linecap="square" />
    <path d="M12.1348 5.50015H12.0098M12.2598 5.50015C12.2598 5.63822 12.1478 5.75015 12.0098 5.75015C11.8717 5.75015 11.7598 5.63822 11.7598 5.50015C11.7598 5.36208 11.8717 5.25015 12.0098 5.25015C12.1478 5.25015 12.2598 5.36208 12.2598 5.50015Z" stroke="currentColor" stroke-width="2" stroke-linecap="round" />
    <path d="M18 10.0002L22 10.0002V22.0002H2L2 10.0002L6 10.0002" stroke="currentColor" stroke-width="2" stroke-linecap="square" />
</svg>