<svg xmlns="http://www.w3.org/2000/svg" width="24" height="24" viewBox="0 0 24 24" fill="none">
    <path d="M4.00159 2V6C5.826 3.57111 8.73068 2 12.0023 2C17.5252 2 22.0023 6.47715 22.0023 12C22.0023 15.9582 19.7026 19.3793 16.3664 21" stroke="currentColor" stroke-width="2" stroke-linejoin="round" />
    <path d="M11.7324 22.0003C12.1993 22.0003 12.6588 21.9691 13.1088 21.9086M2.26305 8.66699C2.15065 9.06418 2.06245 9.4656 1.99768 9.86925M2.03225 13.5383C2.10255 13.9384 2.19412 14.3345 2.3062 14.7247M3.8306 17.9966C4.06892 18.35 4.32728 18.6902 4.60478 19.0149M7.42625 21.361C7.77996 21.5634 8.1481 21.7466 8.52996 21.9086" stroke="currentColor" stroke-width="2" stroke-linecap="square" stroke-linejoin="round" />
</svg>