<svg xmlns="http://www.w3.org/2000/svg" width="24" height="24" viewBox="0 0 24 24" fill="none">
    <path d="M18 20.9998C18 19.2466 17.6992 17.5637 17.1465 15.9998M3 5.99979C5.13331 5.99979 7.16261 6.44513 9 7.24792" stroke="currentColor" stroke-width="2" stroke-linecap="square" />
    <path d="M11 20.9998C11 16.5815 7.41828 12.9998 3 12.9998" stroke="currentColor" stroke-width="2" stroke-linecap="square" />
    <path d="M3.75 20.4998H3.5M4 20.4998C4 20.7759 3.77614 20.9998 3.5 20.9998C3.22386 20.9998 3 20.7759 3 20.4998C3 20.2236 3.22386 19.9998 3.5 19.9998C3.77614 19.9998 4 20.2236 4 20.4998Z" stroke="currentColor" stroke-width="2" stroke-linecap="round" />
    <path d="M15 6.99979V4.99979C15 3.89522 15.8954 2.99979 17 2.99979C18.1046 2.99979 19 3.89522 19 4.99979V6.99979" stroke="currentColor" stroke-width="2" stroke-linecap="square" />
    <path d="M13 6.99979V11.9998H21V6.99979H13Z" stroke="currentColor" stroke-width="2" stroke-linecap="square" />
</svg>