<svg xmlns="http://www.w3.org/2000/svg" width="24" height="24" viewBox="0 0 24 24" fill="none">
    <path d="M18 20.9998C18 19.6146 17.8122 18.2733 17.4608 16.9998M3 5.99982C4.38521 5.99982 5.72656 6.18758 7 6.53905" stroke="currentColor" stroke-width="2" stroke-linecap="square" />
    <path d="M11 20.9998C11 16.5815 7.41828 12.9998 3 12.9998" stroke="currentColor" stroke-width="2" stroke-linecap="square" />
    <path d="M3.75 20.4998H3.5M4 20.4998C4 20.776 3.77614 20.9998 3.5 20.9998C3.22386 20.9998 3 20.776 3 20.4998C3 20.2237 3.22386 19.9998 3.5 19.9998C3.77614 19.9998 4 20.2237 4 20.4998Z" stroke="currentColor" stroke-width="2" stroke-linecap="square" />
    <path d="M16 12.9998C18.7614 12.9998 21 10.7612 21 7.99982C21 5.23839 18.7614 2.99982 16 2.99982C13.2386 2.99982 11 5.23839 11 7.99982C11 10.7612 13.2386 12.9998 16 12.9998Z" stroke="currentColor" stroke-width="2" stroke-linecap="square" />
    <path d="M14 7.99982L15.5 9.49982L18 6.99982" stroke="currentColor" stroke-width="2" stroke-linecap="square" />
</svg>