<svg xmlns="http://www.w3.org/2000/svg" width="24" height="24" viewBox="0 0 24 24" fill="none">
    <path d="M20.3871 6.57272C21.1891 5.75419 21.1845 4.44036 20.3727 3.62792C19.5609 2.81548 18.2476 2.81047 17.4297 3.61305C16.6129 2.79565 15.2886 2.79565 14.4719 3.61305C14.2165 3.86861 14.041 4.17381 13.9453 4.49761C13.1593 4.09519 12.172 4.22318 11.514 4.88166C10.9362 5.45991 10.7676 6.29216 11.0073 7.01913C10.5004 7.03944 9.99951 7.24304 9.61253 7.63031C8.79574 8.44771 8.79574 9.77299 9.61253 10.5904C10.267 11.2454 10.5136 12.1539 10.3523 13H18.3C18.5997 12.9008 18.8814 12.732 19.1199 12.4933C19.778 11.8347 19.9057 10.8465 19.5033 10.0597C19.8269 9.964 20.1321 9.78884 20.3876 9.53322C21.2043 8.71581 21.2039 7.39013 20.3871 6.57272Z" stroke="currentColor" stroke-width="2" stroke-linecap="square" />
    <path d="M17 7L11.5382 12.4617" stroke="currentColor" stroke-width="2" stroke-linecap="square" />
    <path d="M13.8888 21H10.1111C6.18369 21 2.99994 17.8162 2.99994 13.8889V13H20.9999V13.8889C20.9999 17.8162 17.8162 21 13.8888 21Z" stroke="currentColor" stroke-width="2" stroke-linecap="square" />
    <path d="M10.7231 5.58664C10.0673 5.21327 9.30854 5 8.49994 5C6.01466 5 3.99994 7.01472 3.99994 9.5C3.99994 10.7246 4.48908 11.8349 5.28265 12.6463" stroke="currentColor" stroke-width="2" stroke-linecap="square" />
</svg>