<svg xmlns="http://www.w3.org/2000/svg" width="24" height="24" viewBox="0 0 24 24" fill="none">
    <path d="M8.4967 13C9.29481 14.2144 10.5655 15 11.9967 15C13.4279 15 14.6986 14.2144 15.4967 13" stroke="currentColor" stroke-width="2" stroke-linecap="round" stroke-linejoin="round" />
    <path d="M9.1217 9H8.9967M9.2467 9C9.2467 9.13807 9.13477 9.25 8.9967 9.25C8.85863 9.25 8.7467 9.13807 8.7467 9C8.7467 8.86193 8.85863 8.75 8.9967 8.75C9.13477 8.75 9.2467 8.86193 9.2467 9Z" stroke="currentColor" stroke-width="2" stroke-linecap="round" />
    <path d="M15.1217 9H14.9967M15.2467 9C15.2467 9.13807 15.1348 9.25 14.9967 9.25C14.8586 9.25 14.7467 9.13807 14.7467 9C14.7467 8.86193 14.8586 8.75 14.9967 8.75C15.1348 8.75 15.2467 8.86193 15.2467 9Z" stroke="currentColor" stroke-width="2" stroke-linecap="round" />
    <path d="M8.9967 2.5H2.4967V9M14.9967 2.5H21.4967V9M14.9967 21.5H21.4967V15M8.9967 21.5H2.4967V15" stroke="currentColor" stroke-width="2" stroke-linecap="square" />
</svg>