<svg xmlns="http://www.w3.org/2000/svg" width="24" height="24" viewBox="0 0 24 24" fill="none">
    <path d="M2.99609 6C2.99609 7.65685 4.33924 9 5.99609 9C7.65295 9 8.99609 7.65685 8.99609 6C8.99609 4.34315 7.65295 3 5.99609 3C4.33924 3 2.99609 4.34315 2.99609 6Z" stroke="currentColor" stroke-width="2" stroke-linecap="square" stroke-linejoin="round" />
    <path d="M8.99609 8L20.9961 19" stroke="currentColor" stroke-width="2" stroke-linecap="square" stroke-linejoin="round" />
    <path d="M8.99584 16L12.9961 12M2.99609 18C2.99609 19.6569 4.33924 21 5.99609 21C7.65295 21 8.99609 19.6569 8.99609 18C8.99609 16.3431 7.65295 15 5.99609 15C4.33924 15 2.99609 16.3431 2.99609 18Z" stroke="currentColor" stroke-width="2" stroke-linecap="square" stroke-linejoin="round" />
    <path d="M14.9961 10L20.9961 4" stroke="currentColor" stroke-width="2" stroke-linecap="square" stroke-linejoin="round" />
</svg>