<svg xmlns="http://www.w3.org/2000/svg" width="24" height="24" viewBox="0 0 24 24" fill="none">
    <path d="M17.4961 17.5L21.9961 22" stroke="currentColor" stroke-width="2" stroke-linecap="square" stroke-linejoin="round" />
    <path d="M19.9961 11C19.9961 6.02944 15.9667 2 10.9961 2C6.02553 2 1.99609 6.02944 1.99609 11C1.99609 15.9706 6.02553 20 10.9961 20C15.9667 20 19.9961 15.9706 19.9961 11Z" stroke="currentColor" stroke-width="2" stroke-linejoin="round" />
    <path d="M10.9961 7L10.9961 11" stroke="currentColor" stroke-width="2" stroke-linecap="square" stroke-linejoin="round" />
    <path d="M11.1211 14.75L10.9961 14.75M11.2461 14.75C11.2461 14.8881 11.1342 15 10.9961 15C10.858 15 10.7461 14.8881 10.7461 14.75C10.7461 14.6119 10.858 14.5 10.9961 14.5C11.1342 14.5 11.2461 14.6119 11.2461 14.75Z" stroke="currentColor" stroke-width="2" stroke-linecap="round" stroke-linejoin="round" />
</svg>