<svg xmlns="http://www.w3.org/2000/svg" width="24" height="24" viewBox="0 0 24 24" fill="none">
    <path d="M21 5C18.8786 3.17002 15.6351 2 12 2C8.36494 2 5.12137 3.17002 3 5V11C3 19 12 22 12 22C12 22 21 19 21 11L21 5Z" stroke="currentColor" stroke-width="2" stroke-linecap="square" />
    <path d="M9.03242 11.7783L8.44602 12.2459L9.38117 13.4187L9.96758 12.9511L9.5 12.3647L9.03242 11.7783ZM14.0301 12.9592L14.6146 13.4291L15.5545 12.2601L14.9699 11.7902L14.5 12.3747L14.0301 12.9592ZM12 14.75C11.5858 14.75 11.25 15.0858 11.25 15.5C11.25 15.9142 11.5858 16.25 12 16.25V15.5V14.75ZM12.01 16.25C12.4242 16.25 12.76 15.9142 12.76 15.5C12.76 15.0858 12.4242 14.75 12.01 14.75V15.5V16.25ZM6.53125 8.66953L5.94578 9.13828L6.88328 10.3092L7.46875 9.84047L7 9.255L6.53125 8.66953ZM12 7.5V6.75V7.5ZM16.5312 9.84047L17.1167 10.3092L18.0542 9.13828L17.4688 8.66953L17 9.255L16.5312 9.84047ZM9.5 12.3647L9.96758 12.9511C10.5449 12.4907 11.2618 12.2407 12.0003 12.2422L12.0018 11.4922L12.0033 10.7422C10.924 10.74 9.87624 11.1055 9.03242 11.7783L9.5 12.3647ZM12.0018 11.4922L12.0003 12.2422C12.7387 12.2437 13.4546 12.4966 14.0301 12.9592L14.5 12.3747L14.9699 11.7902C14.1288 11.114 13.0825 10.7444 12.0033 10.7422L12.0018 11.4922ZM12 15.5V16.25H12.01V15.5V14.75H12V15.5ZM7 9.255L7.46875 9.84047C8.75463 8.81095 10.3528 8.25 12 8.25V7.5V6.75C10.012 6.75 8.08317 7.427 6.53125 8.66953L7 9.255ZM12 7.5V8.25C13.6472 8.25 15.2454 8.81095 16.5312 9.84047L17 9.255L17.4688 8.66953C15.9168 7.427 13.988 6.75 12 6.75V7.5Z" fill="currentColor" />
</svg>