<svg xmlns="http://www.w3.org/2000/svg" width="24" height="24" viewBox="0 0 24 24" fill="none">
    <path d="M21.0018 5C18.8804 3.17002 15.6368 2 12.0018 2C8.36671 2 5.12314 3.17002 3.00177 5V11C3.00177 19 12.0018 22 12.0018 22C12.0018 22 21.0018 19 21.0018 11L21.0018 5Z" stroke="currentColor" stroke-width="2" stroke-linecap="square" />
    <path d="M12.1248 11H11.9998M12.2498 11C12.2498 11.1381 12.1379 11.25 11.9998 11.25C11.8617 11.25 11.7498 11.1381 11.7498 11C11.7498 10.8619 11.8617 10.75 11.9998 10.75C12.1379 10.75 12.2498 10.8619 12.2498 11Z" stroke="currentColor" stroke-width="2" stroke-linecap="round" />
    <path d="M16.1248 11H15.9998M16.2498 11C16.2498 11.1381 16.1379 11.25 15.9998 11.25C15.8617 11.25 15.7498 11.1381 15.7498 11C15.7498 10.8619 15.8617 10.75 15.9998 10.75C16.1379 10.75 16.2498 10.8619 16.2498 11Z" stroke="currentColor" stroke-width="2" stroke-linecap="round" />
    <path d="M8.12482 11H7.99982M8.24982 11C8.24982 11.1381 8.13789 11.25 7.99982 11.25C7.86175 11.25 7.74982 11.1381 7.74982 11C7.74982 10.8619 7.86175 10.75 7.99982 10.75C8.13789 10.75 8.24982 10.8619 8.24982 11Z" stroke="currentColor" stroke-width="2" stroke-linecap="round" />
</svg>