<svg xmlns="http://www.w3.org/2000/svg" width="24" height="24" viewBox="0 0 24 24" fill="none">
    <path fill-rule="evenodd" clip-rule="evenodd" d="M1.99609 3.99988H21.9961V11.9999H1.99609V3.99988Z" stroke="currentColor" stroke-width="2" stroke-linecap="round" />
    <path fill-rule="evenodd" clip-rule="evenodd" d="M1.99603 11.9996L21.996 11.9999V19.9999H1.99603L1.99603 11.9996Z" stroke="currentColor" stroke-width="2" stroke-linecap="round" />
    <path d="M6.12109 7.99988H5.99609M6.24609 7.99988C6.24609 8.13795 6.13416 8.24988 5.99609 8.24988C5.85802 8.24988 5.74609 8.13795 5.74609 7.99988C5.74609 7.86181 5.85802 7.74988 5.99609 7.74988C6.13416 7.74988 6.24609 7.86181 6.24609 7.99988Z" stroke="currentColor" stroke-width="2" stroke-linecap="round" stroke-linejoin="round" />
    <path d="M6.12109 15.9999H5.99609M6.24609 15.9999C6.24609 16.1379 6.13416 16.2499 5.99609 16.2499C5.85802 16.2499 5.74609 16.1379 5.74609 15.9999C5.74609 15.8618 5.85802 15.7499 5.99609 15.7499C6.13416 15.7499 6.24609 15.8618 6.24609 15.9999Z" stroke="currentColor" stroke-width="2" stroke-linecap="round" stroke-linejoin="round" />
    <path d="M10.1211 7.99988H9.99609M10.2461 7.99988C10.2461 8.13795 10.1342 8.24988 9.99609 8.24988C9.85802 8.24988 9.74609 8.13795 9.74609 7.99988C9.74609 7.86181 9.85802 7.74988 9.99609 7.74988C10.1342 7.74988 10.2461 7.86181 10.2461 7.99988Z" stroke="currentColor" stroke-width="2" stroke-linecap="round" stroke-linejoin="round" />
    <path d="M10.1211 15.9999H9.99609M10.2461 15.9999C10.2461 16.1379 10.1342 16.2499 9.99609 16.2499C9.85802 16.2499 9.74609 16.1379 9.74609 15.9999C9.74609 15.8618 9.85802 15.7499 9.99609 15.7499C10.1342 15.7499 10.2461 15.8618 10.2461 15.9999Z" stroke="currentColor" stroke-width="2" stroke-linecap="round" stroke-linejoin="round" />
</svg>