<svg xmlns="http://www.w3.org/2000/svg" width="24" height="24" viewBox="0 0 24 24" fill="none">
    <path d="M16 11.499C16 14.649 12 16.449 12 16.449C12 16.449 8 14.649 8 11.499C8 9.26227 9.79086 7.44902 12 7.44902C14.2091 7.44902 16 9.26227 16 11.499Z" stroke="currentColor" stroke-width="2" />
    <path d="M10 21.8C10.6462 21.9311 11.3151 22 12 22C17.5237 22 22 17.5222 22 12C22 6.47778 17.5237 2 12 2C11.3151 2 10.6462 2.06886 10 2.20004M2.20004 14C2.06886 13.3538 2 12.6849 2 12C2 11.3151 2.06886 10.6462 2.20004 10M6.5 20.353C5.36678 19.6053 4.39469 18.6332 3.64702 17.5M3.64702 6.5C4.39469 5.36678 5.36678 4.39469 6.5 3.64702" stroke="currentColor" stroke-width="2" stroke-linecap="square" />
    <path d="M12.1348 11.5H12.0098M12.2598 11.5C12.2598 11.6381 12.1478 11.75 12.0098 11.75C11.8717 11.75 11.7598 11.6381 11.7598 11.5C11.7598 11.3619 11.8717 11.25 12.0098 11.25C12.1478 11.25 12.2598 11.3619 12.2598 11.5Z" stroke="currentColor" stroke-width="2" stroke-linecap="round" stroke-linejoin="round" />
</svg>