<svg xmlns="http://www.w3.org/2000/svg" width="24" height="24" viewBox="0 0 24 24" fill="none">
    <path d="M20.9961 11V5C15.9961 4.5 11.9961 2 11.9961 2C11.9961 2 7.99609 4.5 2.99609 5V11C2.99609 18.5 11.9961 22 11.9961 22C11.9961 22 20.9961 18.5 20.9961 11Z" stroke="currentColor" stroke-width="2" stroke-linecap="round" />
    <path d="M11.9961 8L11.9961 12" stroke="currentColor" stroke-width="2" stroke-linecap="square" stroke-linejoin="round" />
    <path d="M12.1211 15.75L11.9961 15.75M12.2461 15.75C12.2461 15.8881 12.1342 16 11.9961 16C11.858 16 11.7461 15.8881 11.7461 15.75C11.7461 15.6119 11.858 15.5 11.9961 15.5C12.1342 15.5 12.2461 15.6119 12.2461 15.75Z" stroke="currentColor" stroke-width="2" stroke-linecap="round" stroke-linejoin="round" />
</svg>