<svg xmlns="http://www.w3.org/2000/svg" width="24" height="24" viewBox="0 0 24 24" fill="none">
    <path d="M20.9961 11V5C15.9961 4.5 11.9961 2 11.9961 2C11.9961 2 7.99609 4.5 2.99609 5V11C2.99609 18.5 11.9961 22 11.9961 22C11.9961 22 20.9961 18.5 20.9961 11Z" stroke="currentColor" stroke-width="2" stroke-linecap="round" />
    <path d="M11.9961 13.5L11.9961 15M11.9961 13.5C12.7331 13.5 13.377 13.1013 13.7239 12.5079M11.9961 13.5C11.2591 13.5 10.6152 13.1013 10.2683 12.5079M11.9961 9.5L11.9961 8M11.9961 9.5C12.7331 9.5 13.377 9.89866 13.7239 10.4921M10.2683 12.5079C10.0952 12.212 9.99609 11.8676 9.99609 11.5C9.99609 11.1324 10.0952 10.788 10.2683 10.4921C10.6152 9.89865 11.2591 9.5 11.9961 9.5M14.9961 9.75L13.7239 10.4921M8.99609 13.25L10.2683 12.5079M14.9961 13.25L13.7239 12.5079M8.99609 9.75L10.2683 10.4921M13.7239 12.5079C13.8969 12.2119 13.9961 11.8676 13.9961 11.5C13.9961 11.1324 13.8969 10.788 13.7239 10.4921" stroke="currentColor" stroke-width="2" stroke-linecap="square" stroke-linejoin="round" />
</svg>