<svg xmlns="http://www.w3.org/2000/svg" width="24" height="24" viewBox="0 0 24 24" fill="none">
    <path d="M12.0059 22H2.01172V12H12.0059V22Z" stroke="currentColor" stroke-width="2" stroke-linecap="square" />
    <path d="M6 15H8" stroke="currentColor" stroke-width="2" stroke-linecap="square" stroke-linejoin="round" />
    <path d="M18.0016 15V21.9999H15.0039" stroke="currentColor" stroke-width="2" stroke-linecap="square" />
    <path d="M22.0108 5.99861C21.8604 8.08378 20.6932 9.47336 17.9972 12C14.7974 8.95382 14.0842 7.67299 14.0154 5.99191C14.0154 3.51147 16.0638 2.00002 17.9505 2C20.1081 1.99998 21.9018 3.64489 22.0108 5.99861Z" stroke="currentColor" stroke-width="2" />
    <path d="M18.125 6H18M18.25 6C18.25 6.13807 18.1381 6.25 18 6.25C17.8619 6.25 17.75 6.13807 17.75 6C17.75 5.86193 17.8619 5.75 18 5.75C18.1381 5.75 18.25 5.86193 18.25 6Z" stroke="currentColor" stroke-width="2" stroke-linecap="round" stroke-linejoin="round" />
</svg>