<svg xmlns="http://www.w3.org/2000/svg" width="24" height="24" viewBox="0 0 24 24" fill="none">
    <path d="M10.4961 4.99988C5.80167 4.99988 1.99609 8.80546 1.99609 13.4999C1.99609 18.1943 5.80167 21.9999 10.4961 21.9999C15.1905 21.9999 18.9961 17.6943 18.9961 12.9999C16.9961 12.9999 14.7461 14.8418 14.7461 16.8999M10.4961 4.99988H18.9961C18.9961 10.4999 15.3708 11.7999 12.1961 11.7999H10.4961C9.08777 11.7999 7.94609 12.9416 7.94609 14.3499C7.94609 15.7582 9.08777 16.8999 10.4961 16.8999H14.7461M10.4961 4.99988V8.39988M14.7461 16.8999V18.4999M5.39609 20.2999L8.79609 16.8999M3.27109 9.24988L7.94609 13.0749" stroke="currentColor" stroke-width="2" />
    <path d="M8.99609 2H20.1569C21.3171 2 22.1873 3.05108 21.9598 4.17765C21.665 5.63726 20.3394 6.67831 18.915 7" stroke="currentColor" stroke-width="2" stroke-linejoin="round" />
    <path d="M14.1211 8H13.9961M14.2461 8C14.2461 8.13807 14.1342 8.25 13.9961 8.25C13.858 8.25 13.7461 8.13807 13.7461 8C13.7461 7.86193 13.858 7.75 13.9961 7.75C14.1342 7.75 14.2461 7.86193 14.2461 8Z" stroke="currentColor" stroke-width="2" stroke-linecap="round" />
</svg>