<svg xmlns="http://www.w3.org/2000/svg" width="24" height="24" viewBox="0 0 24 24" fill="none">
    <path d="M12.4999 2.54938C12.171 2.51672 11.8374 2.5 11.4999 2.5C5.97709 2.5 1.49994 6.97715 1.49994 12.5C1.49994 18.0228 5.97709 22.5 11.4999 22.5C17.0228 22.5 21.4999 18.0228 21.4999 12.5C21.4999 12.1625 21.4832 11.8289 21.4506 11.5" stroke="currentColor" stroke-width="2" stroke-linecap="square" />
    <path d="M19.4939 1.5V7.5M22.4999 4.494L16.4999 4.494" stroke="currentColor" stroke-width="2" stroke-linecap="square" />
    <path d="M7.49994 15.5C8.41206 16.7144 9.86427 17.5 11.4999 17.5C13.1356 17.5 14.5878 16.7144 15.4999 15.5" stroke="currentColor" stroke-width="2" stroke-linecap="square" />
    <path d="M15.1249 8.887V9.41649M7.87494 8.887V9.41649M8.24994 9.25C8.24994 8.83579 8.08204 8.5 7.87494 8.5C7.66783 8.5 7.49994 8.83579 7.49994 9.25C7.49994 9.66421 7.66783 10 7.87494 10C8.08204 10 8.24994 9.66421 8.24994 9.25ZM15.4999 9.25C15.4999 8.83579 15.332 8.5 15.1249 8.5C14.9178 8.5 14.7499 8.83579 14.7499 9.25C14.7499 9.66421 14.9178 10 15.1249 10C15.332 10 15.4999 9.66421 15.4999 9.25Z" stroke="currentColor" stroke-width="2" stroke-linecap="square" />
</svg>