<svg xmlns="http://www.w3.org/2000/svg" width="24" height="24" viewBox="0 0 24 24" fill="none">
    <path d="M9.74414 21L11.9941 19L14.2441 21M14.2441 3L11.9941 5L9.74414 3" stroke="currentColor" stroke-width="2" stroke-linecap="square" />
    <path d="M18.6646 18.4489L18.0576 15.5003L20.9146 14.5518M5.32617 5.55176L5.93322 8.50031L3.07617 9.44887" stroke="currentColor" stroke-width="2" stroke-linecap="square" />
    <path d="M5.32756 18.4489L5.93461 15.5003L3.07756 14.5518M18.666 5.55176L18.059 8.50031L20.916 9.44887" stroke="currentColor" stroke-width="2" stroke-linecap="square" />
    <path d="M15.4583 9.97929L17.9941 8.5M11.9939 8.02089L11.9939 5M17.9939 15.5L15.4581 14.0208M5.99439 15.5L8.56594 13.9999M11.9939 19L11.9939 15.9791M8.56594 10.0002L5.99414 8.5" stroke="currentColor" stroke-width="2" stroke-linecap="square" />
    <path d="M15.4959 9.99946L12.0322 8L8.56836 9.99984L8.56836 13.9997L12.0325 15.9998L15.4966 13.9998L15.4959 9.99946Z" stroke="currentColor" stroke-width="2" stroke-linecap="square" />
</svg>