<svg xmlns="http://www.w3.org/2000/svg" width="24" height="24" viewBox="0 0 24 24" fill="none">
    <path d="M9.99805 22H3.99805L3.99805 13C3.99805 10.2386 6.23662 8 8.99805 8C10.6339 8 12.0862 8.78555 12.9984 10" stroke="currentColor" stroke-width="2" />
    <path d="M3.99805 15H9.99805" stroke="currentColor" stroke-width="2" />
    <path d="M6.99805 8V5H10.998V8" stroke="currentColor" stroke-width="2" />
    <path d="M8.99805 5V2M8.99805 2H6.49805M8.99805 2H13.498L14.498 3" stroke="currentColor" stroke-width="2" />
    <path d="M16.498 22C18.431 22 19.998 20.433 19.998 18.5C19.998 16 16.498 13 16.498 13C16.498 13 12.998 16 12.998 18.5C12.998 20.433 14.5651 22 16.498 22Z" stroke="currentColor" stroke-width="2" />
</svg>