<svg xmlns="http://www.w3.org/2000/svg" width="24" height="24" viewBox="0 0 24 24" fill="none">
    <path d="M20 7C21.2357 8.27961 22 10.0474 22 12C22 13.9526 21.2357 15.7204 20 17M17.1214 9.87868C17.6643 10.4216 18 11.1716 18 12C18 12.8284 17.6643 13.5784 17.1214 14.1213" stroke="currentColor" stroke-width="2" stroke-linecap="square" />
    <path d="M9.00005 20V17H11C12.1046 17 13 16.1046 13 15V9.5C13 6.46243 10.5376 4 7.50005 4C4.46248 4 2.00005 6.46243 2.00005 9.5C2.00005 10.3907 2.21179 11.232 2.58769 11.9763C3.0367 12.8652 3.37015 13.8573 3.15333 14.8294L2.00005 20" stroke="currentColor" stroke-width="2" stroke-linecap="square" />
</svg>