<svg xmlns="http://www.w3.org/2000/svg" width="24" height="24" viewBox="0 0 24 24" fill="none">
    <path d="M16.4959 9.02315H20V21.999H4V9.02315H7.47206M16.4959 9.02315V6.32244C16.3185 3.22369 13.8284 2.09779 12.21 2.00654C10.3348 1.9008 7.60339 3.30209 7.51329 6.30218L7.47206 9.02315M16.4959 9.02315H7.47206" stroke="currentColor" stroke-width="2" />
    <path d="M9.625 15.501H9.5M9.75 15.501C9.75 15.639 9.63807 15.751 9.5 15.751C9.36193 15.751 9.25 15.639 9.25 15.501C9.25 15.3629 9.36193 15.251 9.5 15.251C9.63807 15.251 9.75 15.3629 9.75 15.501Z" stroke="currentColor" stroke-width="2" stroke-linecap="round" />
    <path d="M14.625 15.501H14.5M14.75 15.501C14.75 15.639 14.6381 15.751 14.5 15.751C14.3619 15.751 14.25 15.639 14.25 15.501C14.25 15.3629 14.3619 15.251 14.5 15.251C14.6381 15.251 14.75 15.3629 14.75 15.501Z" stroke="currentColor" stroke-width="2" stroke-linecap="round" />
</svg>