<svg xmlns="http://www.w3.org/2000/svg" width="24" height="24" viewBox="0 0 24 24" fill="none">
    <path d="M13.0011 2.00012C14.1051 2.00012 15 2.93138 15 4.08015V6.50012L9 10.0001L3 6.50012V4.07994C3 2.93129 3.89483 2.00012 4.99866 2.00012" stroke="currentColor" stroke-width="2" stroke-linecap="square" />
    <path d="M9.00024 14.0001V17.4999C9.00024 19.9853 11.0151 22.0002 13.5006 22.0002C15.986 22.0002 18.0009 19.9853 18.0009 17.4999V16.0001" stroke="currentColor" stroke-width="2" stroke-linecap="square" />
    <path d="M14.0002 7.50012L12.0002 12.0001L8.96984 14.0001L6.00024 12.0001L4.00024 7.50012" stroke="currentColor" stroke-width="2" stroke-linecap="square" />
    <path d="M21.0002 13.0001C21.0002 14.657 19.6571 16.0001 18.0002 16.0001C16.3434 16.0001 15.0002 14.657 15.0002 13.0001C15.0002 11.3433 16.3434 10.0001 18.0002 10.0001C19.6571 10.0001 21.0002 11.3433 21.0002 13.0001Z" stroke="currentColor" stroke-width="2" stroke-linecap="square" />
    <path d="M18.125 13H18M18.25 13C18.25 13.1381 18.1381 13.25 18 13.25C17.8619 13.25 17.75 13.1381 17.75 13C17.75 12.8619 17.8619 12.75 18 12.75C18.1381 12.75 18.25 12.8619 18.25 13Z" stroke="currentColor" stroke-width="2" stroke-linecap="square" />
</svg>