<svg xmlns="http://www.w3.org/2000/svg" width="24" height="24" viewBox="0 0 24 24" fill="none">
    <path d="M2.99997 21V3H15.5L21 8.5V21H2.99997Z" stroke="currentColor" stroke-width="2" stroke-linecap="square" />
    <path d="M15 3V9H21" stroke="currentColor" stroke-width="2" stroke-linecap="square" />
    <path d="M15.0059 16.5537L15.5596 16.0478L14.5477 14.9404L13.9941 15.4463L14.5 16L15.0059 16.5537ZM10.0059 15.4463L9.4522 14.9404L8.44039 16.0478L8.99406 16.5537L9.49997 16L10.0059 15.4463ZM8.99997 12.125C8.99997 11.7108 8.66418 11.375 8.24997 11.375C7.83576 11.375 7.49997 11.7108 7.49997 12.125H8.24997H8.99997ZM7.49997 12.25C7.49997 12.6642 7.83576 13 8.24997 13C8.66418 13 8.99997 12.6642 8.99997 12.25H8.24997H7.49997ZM16.5 12.1257C16.5 11.7115 16.1642 11.3757 15.75 11.3757C15.3358 11.3757 15 11.7115 15 12.1257H15.75H16.5ZM15 12.2507C15 12.6649 15.3358 13.0007 15.75 13.0007C16.1642 13.0007 16.5 12.6649 16.5 12.2507H15.75H15ZM14.5 16L13.9941 15.4463C13.4336 15.9584 12.7407 16.25 12 16.25V17V17.75C13.1511 17.75 14.1967 17.293 15.0059 16.5537L14.5 16ZM12 17V16.25C11.2592 16.25 10.5663 15.9584 10.0059 15.4463L9.49997 16L8.99406 16.5537C9.80323 17.293 10.8488 17.75 12 17.75V17ZM8.49997 12.25H7.74997C7.74997 11.9739 7.97383 11.75 8.24997 11.75V12.5V13.25C8.80225 13.25 9.24997 12.8023 9.24997 12.25H8.49997ZM8.24997 12.5V11.75C8.52611 11.75 8.74997 11.9739 8.74997 12.25H7.99997H7.24997C7.24997 12.8023 7.69768 13.25 8.24997 13.25V12.5ZM7.99997 12.25H8.74997C8.74997 12.5261 8.52611 12.75 8.24997 12.75V12V11.25C7.69768 11.25 7.24997 11.6977 7.24997 12.25H7.99997ZM8.24997 12V12.75C7.97383 12.75 7.74997 12.5261 7.74997 12.25H8.49997H9.24997C9.24997 11.6977 8.80225 11.25 8.24997 11.25V12ZM8.24997 12.125H7.49997V12.25H8.24997H8.99997V12.125H8.24997ZM16 12.2507H15.25C15.25 11.9745 15.4738 11.7507 15.75 11.7507V12.5007V13.2507C16.3023 13.2507 16.75 12.803 16.75 12.2507H16ZM15.75 12.5007V11.7507C16.0261 11.7507 16.25 11.9745 16.25 12.2507H15.5H14.75C14.75 12.803 15.1977 13.2507 15.75 13.2507V12.5007ZM15.5 12.2507H16.25C16.25 12.5268 16.0261 12.7507 15.75 12.7507V12.0007V11.2507C15.1977 11.2507 14.75 11.6984 14.75 12.2507H15.5ZM15.75 12.0007V12.7507C15.4738 12.7507 15.25 12.5268 15.25 12.2507H16H16.75C16.75 11.6984 16.3023 11.2507 15.75 11.2507V12.0007ZM15.75 12.1257H15V12.2507H15.75H16.5V12.1257H15.75Z" fill="currentColor" />
</svg>