<svg xmlns="http://www.w3.org/2000/svg" width="24" height="24" viewBox="0 0 24 24" fill="none">
    <path d="M7.31117 6.018L8.02095 5.77569V5.77569L7.31117 6.018ZM9.68859 12.982L10.3984 12.7397V12.7397L9.68859 12.982ZM10.8359 15.5589L11.3957 15.0598L11.3957 15.0598L10.8359 15.5589ZM11.6885 16.2186L11.3511 16.8884H11.3511L11.6885 16.2186ZM5.31126 2.78143L4.97383 3.45124V3.45124L5.31126 2.78143ZM6.16382 3.44111L5.60402 3.94024L5.60402 3.94024L6.16382 3.44111ZM1.99988 16.5V17.25C3.65131 17.25 4.98099 16.1354 6.07028 14.7829C7.1752 13.411 8.18538 11.5996 9.15453 9.86597C10.142 8.09957 11.0885 6.41104 12.0977 5.15794C13.1226 3.88543 14.0646 3.25 14.9999 3.25V2.5V1.75C13.3484 1.75 12.0188 2.86457 10.9295 4.21706C9.82456 5.58896 8.81437 7.40043 7.84523 9.13403C6.85774 10.9004 5.91129 12.589 4.90205 13.8421C3.87718 15.1146 2.93518 15.75 1.99988 15.75V16.5ZM7.31117 6.018L6.60139 6.2603L8.97881 13.2243L9.68859 12.982L10.3984 12.7397L8.02095 5.77569L7.31117 6.018ZM9.68859 12.982L8.97881 13.2243C9.21326 13.9111 9.40133 14.4633 9.58734 14.9029C9.7767 15.3504 9.98294 15.7292 10.2761 16.058L10.8359 15.5589L11.3957 15.0598C11.2553 14.9022 11.1257 14.6893 10.9688 14.3184C10.8084 13.9396 10.6397 13.4466 10.3984 12.7397L9.68859 12.982ZM14.2352 16.5V15.75C13.5596 15.75 13.1007 15.7493 12.7398 15.7177C12.3927 15.6873 12.1902 15.6315 12.0259 15.5488L11.6885 16.2186L11.3511 16.8884C11.7454 17.087 12.1536 17.172 12.6088 17.212C13.0502 17.2507 13.5854 17.25 14.2352 17.25V16.5ZM10.8359 15.5589L10.2761 16.058C10.5826 16.4017 10.946 16.6843 11.3511 16.8884L11.6885 16.2186L12.0259 15.5488C11.7963 15.4331 11.582 15.2687 11.3957 15.0598L10.8359 15.5589ZM2.76458 2.5V3.25C3.44017 3.25 3.89902 3.25066 4.25993 3.28231C4.60703 3.31275 4.80952 3.36846 4.97383 3.45124L5.31126 2.78143L5.64869 2.11163C5.25436 1.91297 4.8462 1.82797 4.39096 1.78805C3.94953 1.74934 3.41435 1.75 2.76458 1.75V2.5ZM7.31117 6.018L8.02095 5.77569C7.7865 5.08893 7.59842 4.53665 7.41242 4.09706C7.22306 3.64955 7.01681 3.27082 6.72361 2.94198L6.16382 3.44111L5.60402 3.94024C5.74451 4.0978 5.87405 4.31068 6.031 4.6816C6.1913 5.06044 6.36006 5.55341 6.60139 6.2603L7.31117 6.018ZM5.31126 2.78143L4.97383 3.45124C5.20346 3.56692 5.41774 3.73132 5.60402 3.94024L6.16382 3.44111L6.72361 2.94198C6.41719 2.59832 6.05371 2.31566 5.64869 2.11163L5.31126 2.78143Z" fill="currentColor" />
    <path d="M18.0001 21.4998L17.5501 20.8998C17.2919 21.0935 17.1865 21.4308 17.2886 21.737C17.3907 22.0433 17.6773 22.2498 18.0001 22.2498V21.4998ZM22.0001 22.2498H22.7501V20.7498H22.0001V21.4998V22.2498ZM21.2002 19.0998L20.7502 18.4998V18.4998L21.2002 19.0998ZM20 15.5L20 16.25L20 15.5ZM18.0001 21.4998V22.2498H22.0001V21.4998V20.7498H18.0001V21.4998ZM21.2002 19.0998L20.7502 18.4998L17.5501 20.8998L18.0001 21.4998L18.4501 22.0998L21.6502 19.6998L21.2002 19.0998ZM21.2002 19.0998L21.6502 19.6998C22.3426 19.1805 22.7501 18.3654 22.7501 17.4999H22.0001H21.2501C21.2501 17.8933 21.0649 18.2638 20.7502 18.4998L21.2002 19.0998ZM22.0001 17.4999H22.7501C22.7501 15.9811 21.5187 14.75 20 14.75L20 15.5L20 16.25C20.6904 16.25 21.2501 16.8097 21.2501 17.4999H22.0001ZM20 15.5L20 14.75C18.4813 14.75 17.2499 15.9811 17.2499 17.5H17.9999H18.7499C18.7499 16.8097 19.3096 16.25 20 16.25L20 15.5Z" fill="currentColor" />
</svg>