<svg xmlns="http://www.w3.org/2000/svg" width="24" height="24" viewBox="0 0 24 24" fill="none">
    <path d="M18 3.99951H22V21.9995H2V3.99951H6" stroke="currentColor" stroke-width="2" stroke-linecap="square" />
    <path d="M18.0005 3.99951L15.0547 21.6741" stroke="currentColor" stroke-width="2" stroke-linecap="square" />
    <path d="M6 3.99951L8.94427 21.6651" stroke="currentColor" stroke-width="2" stroke-linecap="square" />
    <path d="M12 5.99951L14.5 8.99951L18 3.99951L16 1.99951H8L6 3.99951L9.5 8.99951L12 5.99951ZM12 5.99951L15.6731 2.32644M12 5.99951L8.32693 2.32644" stroke="currentColor" stroke-width="2" stroke-linecap="square" />
    <path d="M12.127 12.7495H12.002M12.127 16.7495H12.002M12.252 12.7495C12.252 12.8876 12.14 12.9995 12.002 12.9995C11.8639 12.9995 11.752 12.8876 11.752 12.7495C11.752 12.6114 11.8639 12.4995 12.002 12.4995C12.14 12.4995 12.252 12.6114 12.252 12.7495ZM12.252 16.7495C12.252 16.8876 12.14 16.9995 12.002 16.9995C11.8639 16.9995 11.752 16.8876 11.752 16.7495C11.752 16.6114 11.8639 16.4995 12.002 16.4995C12.14 16.4995 12.252 16.6114 12.252 16.7495Z" stroke="currentColor" stroke-width="2" stroke-linecap="round" />
</svg>