<svg xmlns="http://www.w3.org/2000/svg" width="24" height="24" viewBox="0 0 24 24" fill="none">
    <path d="M17.9795 11.0091C17.987 11.0091 17.9945 11.0091 18.002 11.0091C20.4872 11.0091 22.502 13.0269 22.502 15.5159C22.502 17.4782 21.2497 18.8813 19.502 19.5M17.9795 11.0091C17.9944 10.8442 18.002 10.6772 18.002 10.5083C18.002 7.46617 15.5395 5 12.502 5C9.62519 5 7.26428 7.21197 7.02238 10.0303M17.9795 11.0091C17.8974 11.9219 17.502 12.5 17.002 13M7.02238 10.0303C4.48593 10.2721 2.50195 12.4116 2.50195 15.0152C2.50195 17.0686 3.73605 18.7103 5.50195 19.5M7.02238 10.0303C7.18021 10.0153 7.34018 10.0076 7.50195 10.0076C8.41267 10.0076 9.26652 10.2514 10.002 10.6775" stroke="currentColor" stroke-width="2" stroke-linejoin="round" />
    <path d="M7.45538 4V2M7.45538 4C5.26267 4 3.48513 5.79086 3.48513 8M7.45538 4C8.67809 4 9.7717 4.55686 10.5 5.43258M1.5 8H3.48513M3.48513 8C3.48513 9.19469 4.00499 10.2671 4.82923 11M3.24459 3.75766L4.64829 5.17188" stroke="currentColor" stroke-width="2" stroke-linejoin="round" />
    <path d="M8.625 15.75H8.5M12.625 17.75H12.5M16.625 15.75H16.5M16.625 19.75H16.5M12.625 21.75H12.5M8.625 19.75H8.5M8.75 15.75C8.75 15.8881 8.63807 16 8.5 16C8.36193 16 8.25 15.8881 8.25 15.75C8.25 15.6119 8.36193 15.5 8.5 15.5C8.63807 15.5 8.75 15.6119 8.75 15.75ZM12.75 17.75C12.75 17.8881 12.6381 18 12.5 18C12.3619 18 12.25 17.8881 12.25 17.75C12.25 17.6119 12.3619 17.5 12.5 17.5C12.6381 17.5 12.75 17.6119 12.75 17.75ZM16.75 15.75C16.75 15.8881 16.6381 16 16.5 16C16.3619 16 16.25 15.8881 16.25 15.75C16.25 15.6119 16.3619 15.5 16.5 15.5C16.6381 15.5 16.75 15.6119 16.75 15.75ZM16.75 19.75C16.75 19.8881 16.6381 20 16.5 20C16.3619 20 16.25 19.8881 16.25 19.75C16.25 19.6119 16.3619 19.5 16.5 19.5C16.6381 19.5 16.75 19.6119 16.75 19.75ZM12.75 21.75C12.75 21.8881 12.6381 22 12.5 22C12.3619 22 12.25 21.8881 12.25 21.75C12.25 21.6119 12.3619 21.5 12.5 21.5C12.6381 21.5 12.75 21.6119 12.75 21.75ZM8.75 19.75C8.75 19.8881 8.63807 20 8.5 20C8.36193 20 8.25 19.8881 8.25 19.75C8.25 19.6119 8.36193 19.5 8.5 19.5C8.63807 19.5 8.75 19.6119 8.75 19.75Z" stroke="currentColor" stroke-width="2" stroke-linecap="round" stroke-linejoin="round" />
</svg>