<svg xmlns="http://www.w3.org/2000/svg" width="24" height="24" viewBox="0 0 24 24" fill="none">
    <path d="M17.0001 11.9999C17.0001 14.7614 14.7615 16.9999 12.0001 16.9999C9.2387 16.9999 7.00012 14.7614 7.00012 11.9999C7.00012 9.23852 9.2387 6.99994 12.0001 6.99994C14.7615 6.99994 17.0001 9.23852 17.0001 11.9999Z" stroke="currentColor" stroke-width="2" stroke-linecap="round" stroke-linejoin="round" />
    <path d="M12.1248 3.24994H11.9998M12.1243 20.7499H11.9993M20.7501 12.1249V11.9999M3.25012 12.1249V11.9999M18.2753 5.90092L18.1869 5.81253M5.90063 18.275L5.81224 18.1866M18.0988 18.2755L18.1872 18.1871M5.72441 5.90114L5.8128 5.81275M12.2498 3.24994C12.2498 3.38801 12.1379 3.49994 11.9998 3.49994C11.8617 3.49994 11.7498 3.38801 11.7498 3.24994C11.7498 3.11187 11.8617 2.99994 11.9998 2.99994C12.1379 2.99994 12.2498 3.11187 12.2498 3.24994ZM12.2493 20.7499C12.2493 20.888 12.1374 20.9999 11.9993 20.9999C11.8613 20.9999 11.7493 20.888 11.7493 20.7499C11.7493 20.6119 11.8613 20.4999 11.9993 20.4999C12.1374 20.4999 12.2493 20.6119 12.2493 20.7499ZM20.7501 12.2499C20.6121 12.2499 20.5001 12.138 20.5001 11.9999C20.5001 11.8619 20.6121 11.7499 20.7501 11.7499C20.8882 11.7499 21.0001 11.8619 21.0001 11.9999C21.0001 12.138 20.8882 12.2499 20.7501 12.2499ZM3.25012 12.2499C3.11205 12.2499 3.00012 12.138 3.00012 11.9999C3.00012 11.8619 3.11205 11.7499 3.25012 11.7499C3.38819 11.7499 3.50012 11.8619 3.50012 11.9999C3.50012 12.138 3.38819 12.2499 3.25012 12.2499ZM18.3637 5.98931C18.2661 6.08694 18.1078 6.08694 18.0102 5.98931C17.9125 5.89168 17.9125 5.73339 18.0102 5.63576C18.1078 5.53813 18.2661 5.53813 18.3637 5.63576C18.4614 5.73339 18.4614 5.89168 18.3637 5.98931ZM5.98902 18.3633C5.89139 18.461 5.7331 18.461 5.63547 18.3633C5.53783 18.2657 5.53783 18.1074 5.63547 18.0098C5.7331 17.9122 5.89139 17.9122 5.98902 18.0098C6.08665 18.1074 6.08665 18.2657 5.98902 18.3633ZM18.0104 18.3639C17.9128 18.2663 17.9128 18.108 18.0104 18.0103C18.108 17.9127 18.2663 17.9127 18.3639 18.0103C18.4616 18.108 18.4616 18.2663 18.3639 18.3639C18.2663 18.4615 18.108 18.4615 18.0104 18.3639ZM5.63602 5.98953C5.53839 5.8919 5.53839 5.73361 5.63602 5.63598C5.73365 5.53835 5.89194 5.53835 5.98957 5.63598C6.0872 5.73361 6.0872 5.8919 5.98957 5.98953C5.89194 6.08716 5.73365 6.08716 5.63602 5.98953Z" stroke="currentColor" stroke-width="2" stroke-linecap="round" stroke-linejoin="round" />
</svg>