<svg xmlns="http://www.w3.org/2000/svg" width="24" height="24" viewBox="0 0 24 24" fill="none">
    <path d="M4.00044 12L3 9.08612C3.89495 5.03496 7.60745 2 12.0079 2C16.4083 2 20.1213 5.03489 21.0162 9.08612L20.0153 12" stroke="currentColor" stroke-width="2" />
    <path d="M17.5 9.5C15.9208 8.46366 14.0355 8 12.01 8C9.98459 8 8.07925 8.46366 6.5 9.5" stroke="currentColor" stroke-width="2" stroke-linecap="square" />
    <path d="M15.0134 8.00001C15.0134 4.00001 9.00791 3.99998 9.00781 8.00001" stroke="currentColor" stroke-width="2" />
    <path d="M9.00781 17C9.50828 17.433 11.0097 17.866 12.0106 17C13.0115 17.866 14.5129 17.433 15.0134 17" stroke="currentColor" stroke-width="2" stroke-linecap="square" />
    <path d="M5.3088 14.5179C5.3088 14.5179 5.53374 11.1779 2.94506 12.156C2.12377 12.4663 1.85915 13.2197 2.09358 14.3261L2.52501 16.6852C3.00345 17.7496 3.83547 18.1147 5.53374 18.0212C6.79072 20.5595 8.86418 21.865 11.9377 21.9987C14.8379 21.8987 17.2376 20.5595 18.4946 18.0212C20.1928 18.1147 21.0249 17.7496 21.5033 16.6852L21.9347 14.3261C22.1692 13.2197 21.9046 12.4663 21.0833 12.156C18.4946 11.1779 18.7195 14.5179 18.7195 14.5179" stroke="currentColor" stroke-width="2" />
    <path d="M9.125 13H9M9.25 13C9.25 13.1381 9.13807 13.25 9 13.25C8.86193 13.25 8.75 13.1381 8.75 13C8.75 12.8619 8.86193 12.75 9 12.75C9.13807 12.75 9.25 12.8619 9.25 13Z" stroke="currentColor" stroke-width="2" stroke-linecap="round" />
    <path d="M15.125 13H15M15.25 13C15.25 13.1381 15.1381 13.25 15 13.25C14.8619 13.25 14.75 13.1381 14.75 13C14.75 12.8619 14.8619 12.75 15 12.75C15.1381 12.75 15.25 12.8619 15.25 13Z" stroke="currentColor" stroke-width="2" stroke-linecap="round" />
</svg>