<svg xmlns="http://www.w3.org/2000/svg" width="24" height="24" viewBox="0 0 24 24" fill="none">
    <path d="M12.125 5.75H12M12.25 5.75C12.25 5.88807 12.1381 6 12 6C11.8619 6 11.75 5.88807 11.75 5.75C11.75 5.61193 11.8619 5.5 12 5.5C12.1381 5.5 12.25 5.61193 12.25 5.75Z" stroke="currentColor" stroke-width="2" stroke-linecap="round" />
    <path d="M5 9V19M9 9V19" stroke="currentColor" stroke-width="2" stroke-linecap="square" />
    <path d="M15 9V12M19 9V12" stroke="currentColor" stroke-width="2" stroke-linecap="square" />
    <path d="M22 9H2V8L12 2L22 8V9Z" stroke="currentColor" stroke-width="2" stroke-linecap="square" />
    <path d="M11 19H4L2 21V22H11" stroke="currentColor" stroke-width="2" stroke-linecap="square" />
    <path d="M21 16L15 22" stroke="currentColor" stroke-width="2" stroke-linecap="square" />
    <path d="M20.875 21.75H20.75M15.375 16.25H15.25M21 21.75C21 21.8881 20.8881 22 20.75 22C20.6119 22 20.5 21.8881 20.5 21.75C20.5 21.6119 20.6119 21.5 20.75 21.5C20.8881 21.5 21 21.6119 21 21.75ZM15.5 16.25C15.5 16.3881 15.3881 16.5 15.25 16.5C15.1119 16.5 15 16.3881 15 16.25C15 16.1119 15.1119 16 15.25 16C15.3881 16 15.5 16.1119 15.5 16.25Z" stroke="currentColor" stroke-width="2" stroke-linecap="round" stroke-linejoin="round" />
</svg>