<svg xmlns="http://www.w3.org/2000/svg" width="24" height="24" viewBox="0 0 24 24" fill="none">
    <path d="M19 21V18H5V21H2V14.5L4 11.5L6.5 5.5H17.5L20 11.5L22 14.5V21H19Z" stroke="currentColor" stroke-width="2" stroke-linecap="square" />
    <path d="M2 10L4 11.5L6 12H18L20 11.5L22 10" stroke="currentColor" stroke-width="2" stroke-linecap="square" />
    <path d="M9 5.5V3H15V5.5" stroke="currentColor" stroke-width="2" stroke-linecap="square" />
    <path d="M6.125 15H6M6.25 15C6.25 15.1381 6.13807 15.25 6 15.25C5.86193 15.25 5.75 15.1381 5.75 15C5.75 14.8619 5.86193 14.75 6 14.75C6.13807 14.75 6.25 14.8619 6.25 15Z" stroke="currentColor" stroke-width="2" stroke-linecap="round" stroke-linejoin="round" />
    <path d="M18.125 15H18M18.25 15C18.25 15.1381 18.1381 15.25 18 15.25C17.8619 15.25 17.75 15.1381 17.75 15C17.75 14.8619 17.8619 14.75 18 14.75C18.1381 14.75 18.25 14.8619 18.25 15Z" stroke="currentColor" stroke-width="2" stroke-linecap="round" stroke-linejoin="round" />
</svg>