<svg xmlns="http://www.w3.org/2000/svg" width="24" height="24" viewBox="0 0 24 24" fill="none">
    <path d="M15.5619 22C17.7363 22 19.4989 20.2091 19.4989 18C19.4989 16.5194 18.7072 15.2267 17.5304 14.5351V4C17.5304 2.89543 16.6491 2 15.5619 2C14.4749 2 13.5935 2.89543 13.5935 4V14.5351C12.4167 15.2267 11.625 16.5194 11.625 18C11.625 20.2091 13.3877 22 15.5619 22Z" stroke="currentColor" stroke-width="2" />
    <path d="M10.8911 5.50237C9.48725 5.4271 7.59157 5.70867 7.23102 8.24599C7.03485 9.62654 7.83168 10.565 8.53954 11.025C8.96446 11.3011 9.4644 11.4569 9.96735 11.4958C10.2806 11.52 10.601 11.5088 10.8838 11.5088M10.8911 2.75H9.40632M6.67414 3.90178L5.63481 4.96929M4.5 7.75294V9.24245M5.63037 12.0392L6.67438 13.0957M9.401 14.2471H10.8889" stroke="currentColor" stroke-width="2" />
</svg>