<svg xmlns="http://www.w3.org/2000/svg" width="24" height="24" viewBox="0 0 24 24" fill="none">
    <path d="M3 6.75V6C2.58579 6 2.25 6.33579 2.25 6.75H3ZM3 21.75H2.25C2.25 22.1642 2.58579 22.5 3 22.5V21.75ZM3 11.25H2.25V12H3V11.25ZM3 16.25V15.5H2.25V16.25H3ZM21 6.75H21.75C21.75 6.33579 21.4142 6 21 6V6.75ZM21 21.75V22.5C21.4142 22.5 21.75 22.1642 21.75 21.75H21ZM3 6.75H2.25V11.25H3H3.75V6.75H3ZM3 16.25H2.25V21.75H3H3.75V16.25H3ZM5.5 13.75H4.75C4.75 14.7165 3.9665 15.5 3 15.5V16.25V17C4.79493 17 6.25 15.5449 6.25 13.75H5.5ZM3 11.25V12C3.9665 12 4.75 12.7835 4.75 13.75H5.5H6.25C6.25 11.9551 4.79493 10.5 3 10.5V11.25ZM21 6.75V6H3V6.75V7.5H21V6.75ZM3 21.75V22.5H21V21.75V21H3V21.75ZM21 6.75H20.25C20.25 6.7626 20.25 6.77518 20.25 6.78776C20.25 6.80033 20.25 6.81289 20.25 6.82545C20.25 6.838 20.25 6.85054 20.25 6.86307C20.25 6.8756 20.25 6.88812 20.25 6.90063C20.25 6.91313 20.25 6.92563 20.25 6.93812C20.25 6.9506 20.25 6.96308 20.25 6.97554C20.25 6.98801 20.25 7.00046 20.25 7.0129C20.25 7.02534 20.25 7.03778 20.25 7.0502C20.25 7.06262 20.25 7.07503 20.25 7.08743C20.25 7.09982 20.25 7.11221 20.25 7.12459C20.25 7.13697 20.25 7.14933 20.25 7.16169C20.25 7.17405 20.25 7.18639 20.25 7.19873C20.25 7.21106 20.25 7.22338 20.25 7.2357C20.25 7.24801 20.25 7.26031 20.25 7.2726C20.25 7.2849 20.25 7.29718 20.25 7.30945C20.25 7.32172 20.25 7.33398 20.25 7.34623C20.25 7.35847 20.25 7.37071 20.25 7.38294C20.25 7.39517 20.25 7.40739 20.25 7.41959C20.25 7.4318 20.25 7.444 20.25 7.45618C20.25 7.46837 20.25 7.48054 20.25 7.49271C20.25 7.50487 20.25 7.51703 20.25 7.52917C20.25 7.54132 20.25 7.55345 20.25 7.56557C20.25 7.5777 20.25 7.58981 20.25 7.60191C20.25 7.61401 20.25 7.62611 20.25 7.63819C20.25 7.65027 20.25 7.66234 20.25 7.6744C20.25 7.68646 20.25 7.69851 20.25 7.71056C20.25 7.7226 20.25 7.73463 20.25 7.74665C20.25 7.75867 20.25 7.77068 20.25 7.78268C20.25 7.79468 20.25 7.80667 20.25 7.81864C20.25 7.83062 20.25 7.84259 20.25 7.85455C20.25 7.86651 20.25 7.87846 20.25 7.8904C20.25 7.90234 20.25 7.91427 20.25 7.92618C20.25 7.9381 20.25 7.95001 20.25 7.96191C20.25 7.97381 20.25 7.9857 20.25 7.99758C20.25 8.00945 20.25 8.02132 20.25 8.03318C20.25 8.04504 20.25 8.05689 20.25 8.06873C20.25 8.08057 20.25 8.09239 20.25 8.10421C20.25 8.11603 20.25 8.12784 20.25 8.13964C20.25 8.15144 20.25 8.16323 20.25 8.17501C20.25 8.18679 20.25 8.19856 20.25 8.21032C20.25 8.22208 20.25 8.23383 20.25 8.24557C20.25 8.25731 20.25 8.26904 20.25 8.28076C20.25 8.29248 20.25 8.30419 20.25 8.31589C20.25 8.32759 20.25 8.33928 20.25 8.35096C20.25 8.36264 20.25 8.37432 20.25 8.38598C20.25 8.39764 20.25 8.40929 20.25 8.42094C20.25 8.43258 20.25 8.44421 20.25 8.45584C20.25 8.46746 20.25 8.47908 20.25 8.49068C20.25 8.50229 20.25 8.51388 20.25 8.52547C20.25 8.53705 20.25 8.54863 20.25 8.5602C20.25 8.57176 20.25 8.58332 20.25 8.59487C20.25 8.60642 20.25 8.61796 20.25 8.62948C20.25 8.64101 20.25 8.65253 20.25 8.66404C20.25 8.67555 20.25 8.68705 20.25 8.69855C20.25 8.71004 20.25 8.72152 20.25 8.73299C20.25 8.74447 20.25 8.75593 20.25 8.76738C20.25 8.77884 20.25 8.79028 20.25 8.80172C20.25 8.81315 20.25 8.82458 20.25 8.836C20.25 8.84741 20.25 8.85882 20.25 8.87022C20.25 8.88162 20.25 8.89301 20.25 8.90439C20.25 8.91577 20.25 8.92714 20.25 8.93851C20.25 8.94987 20.25 8.96122 20.25 8.97256C20.25 8.98391 20.25 8.99524 20.25 9.00657C20.25 9.0179 20.25 9.02921 20.25 9.04052C20.25 9.05183 20.25 9.06313 20.25 9.07442C20.25 9.08571 20.25 9.09699 20.25 9.10826C20.25 9.11953 20.25 9.13079 20.25 9.14205C20.25 9.1533 20.25 9.16455 20.25 9.17578C20.25 9.18702 20.25 9.19825 20.25 9.20947C20.25 9.22068 20.25 9.23189 20.25 9.2431C20.25 9.2543 20.25 9.26549 20.25 9.27667C20.25 9.28785 20.25 9.29903 20.25 9.31019C20.25 9.32136 20.25 9.33252 20.25 9.34367C20.25 9.35481 20.25 9.36595 20.25 9.37708C20.25 9.38821 20.25 9.39934 20.25 9.41045C20.25 9.42156 20.25 9.43267 20.25 9.44376C20.25 9.45486 20.25 9.46595 20.25 9.47703C20.25 9.48811 20.25 9.49918 20.25 9.51024C20.25 9.5213 20.25 9.53235 20.25 9.5434C20.25 9.55444 20.25 9.56548 20.25 9.57651C20.25 9.58753 20.25 9.59855 20.25 9.60956C20.25 9.62057 20.25 9.63158 20.25 9.64257C20.25 9.65356 20.25 9.66455 20.25 9.67553C20.25 9.6865 20.25 9.69747 20.25 9.70843C20.25 9.71939 20.25 9.73034 20.25 9.74129C20.25 9.75223 20.25 9.76317 20.25 9.77409C20.25 9.78502 20.25 9.79594 20.25 9.80685C20.25 9.81776 20.25 9.82866 20.25 9.83955C20.25 9.85045 20.25 9.86133 20.25 9.87221C20.25 9.88309 20.25 9.89396 20.25 9.90482C20.25 9.91568 20.25 9.92653 20.25 9.93738C20.25 9.94822 20.25 9.95906 20.25 9.96989C20.25 9.98071 20.25 9.99153 20.25 10.0023C20.25 10.0132 20.25 10.024 20.25 10.0348C20.25 10.0456 20.25 10.0563 20.25 10.0671C20.25 10.0779 20.25 10.0887 20.25 10.0994C20.25 10.1102 20.25 10.121 20.25 10.1317C20.25 10.1425 20.25 10.1532 20.25 10.1639C20.25 10.1747 20.25 10.1854 20.25 10.1961C20.25 10.2068 20.25 10.2175 20.25 10.2282C20.25 10.2389 20.25 10.2496 20.25 10.2603C20.25 10.271 20.25 10.2817 20.25 10.2923C20.25 10.303 20.25 10.3137 20.25 10.3243C20.25 10.335 20.25 10.3456 20.25 10.3563C20.25 10.3669 20.25 10.3775 20.25 10.3882C20.25 10.3988 20.25 10.4094 20.25 10.42C20.25 10.4306 20.25 10.4412 20.25 10.4518C20.25 10.4624 20.25 10.473 20.25 10.4836C20.25 10.4941 20.25 10.5047 20.25 10.5153C20.25 10.5258 20.25 10.5364 20.25 10.5469C20.25 10.5575 20.25 10.568 20.25 10.5786C20.25 10.5891 20.25 10.5996 20.25 10.6101C20.25 10.6206 20.25 10.6312 20.25 10.6417C20.25 10.6522 20.25 10.6627 20.25 10.6731C20.25 10.6836 20.25 10.6941 20.25 10.7046C20.25 10.7151 20.25 10.7255 20.25 10.736C20.25 10.7464 20.25 10.7569 20.25 10.7673C20.25 10.7778 20.25 10.7882 20.25 10.7986C20.25 10.8091 20.25 10.8195 20.25 10.8299C20.25 10.8403 20.25 10.8507 20.25 10.8611C20.25 10.8715 20.25 10.8819 20.25 10.8923C20.25 10.9027 20.25 10.9131 20.25 10.9235C20.25 10.9338 20.25 10.9442 20.25 10.9545C20.25 10.9649 20.25 10.9753 20.25 10.9856C20.25 10.9959 20.25 11.0063 20.25 11.0166C20.25 11.0269 20.25 11.0373 20.25 11.0476C20.25 11.0579 20.25 11.0682 20.25 11.0785C20.25 11.0888 20.25 11.0991 20.25 11.1094C20.25 11.1197 20.25 11.1299 20.25 11.1402C20.25 11.1505 20.25 11.1608 20.25 11.171C20.25 11.1813 20.25 11.1915 20.25 11.2018C20.25 11.212 20.25 11.2223 20.25 11.2325C20.25 11.2427 20.25 11.253 20.25 11.2632C20.25 11.2734 20.25 11.2836 20.25 11.2938C20.25 11.304 20.25 11.3142 20.25 11.3244C20.25 11.3346 20.25 11.3448 20.25 11.355C20.25 11.3651 20.25 11.3753 20.25 11.3855C20.25 11.3956 20.25 11.4058 20.25 11.416C20.25 11.4261 20.25 11.4363 20.25 11.4464C20.25 11.4565 20.25 11.4667 20.25 11.4768C20.25 11.4869 20.25 11.497 20.25 11.5071C20.25 11.5173 20.25 11.5274 20.25 11.5375C20.25 11.5476 20.25 11.5577 20.25 11.5677C20.25 11.5778 20.25 11.5879 20.25 11.598C20.25 11.6081 20.25 11.6181 20.25 11.6282C20.25 11.6383 20.25 11.6483 20.25 11.6584C20.25 11.6684 20.25 11.6785 20.25 11.6885C20.25 11.6985 20.25 11.7086 20.25 11.7186C20.25 11.7286 20.25 11.7386 20.25 11.7486C20.25 11.7586 20.25 11.7686 20.25 11.7786C20.25 11.7886 20.25 11.7986 20.25 11.8086C20.25 11.8186 20.25 11.8286 20.25 11.8386C20.25 11.8485 20.25 11.8585 20.25 11.8685C20.25 11.8784 20.25 11.8884 20.25 11.8983C20.25 11.9083 20.25 11.9182 20.25 11.9282C20.25 11.9381 20.25 11.948 20.25 11.958C20.25 11.9679 20.25 11.9778 20.25 11.9877C20.25 11.9976 20.25 12.0075 20.25 12.0174C20.25 12.0273 20.25 12.0372 20.25 12.0471C20.25 12.057 20.25 12.0669 20.25 12.0768C20.25 12.0866 20.25 12.0965 20.25 12.1064C20.25 12.1163 20.25 12.1261 20.25 12.136C20.25 12.1458 20.25 12.1557 20.25 12.1655C20.25 12.1754 20.25 12.1852 20.25 12.195C20.25 12.2049 20.25 12.2147 20.25 12.2245C20.25 12.2343 20.25 12.2441 20.25 12.2539C20.25 12.2638 20.25 12.2736 20.25 12.2833C20.25 12.2931 20.25 12.3029 20.25 12.3127C20.25 12.3225 20.25 12.3323 20.25 12.3421C20.25 12.3518 20.25 12.3616 20.25 12.3714C20.25 12.3811 20.25 12.3909 20.25 12.4006C20.25 12.4104 20.25 12.4201 20.25 12.4299C20.25 12.4396 20.25 12.4494 20.25 12.4591C20.25 12.4688 20.25 12.4785 20.25 12.4883C20.25 12.498 20.25 12.5077 20.25 12.5174C20.25 12.5271 20.25 12.5368 20.25 12.5465C20.25 12.5562 20.25 12.5659 20.25 12.5756C20.25 12.5853 20.25 12.595 20.25 12.6046C20.25 12.6143 20.25 12.624 20.25 12.6337C20.25 12.6433 20.25 12.653 20.25 12.6626C20.25 12.6723 20.25 12.6819 20.25 12.6916C20.25 12.7012 20.25 12.7109 20.25 12.7205C20.25 12.7301 20.25 12.7398 20.25 12.7494C20.25 12.759 20.25 12.7686 20.25 12.7783C20.25 12.7879 20.25 12.7975 20.25 12.8071C20.25 12.8167 20.25 12.8263 20.25 12.8359C20.25 12.8455 20.25 12.8551 20.25 12.8647C20.25 12.8742 20.25 12.8838 20.25 12.8934C20.25 12.903 20.25 12.9125 20.25 12.9221C20.25 12.9317 20.25 12.9412 20.25 12.9508C20.25 12.9603 20.25 12.9699 20.25 12.9794C20.25 12.989 20.25 12.9985 20.25 13.008C20.25 13.0176 20.25 13.0271 20.25 13.0366C20.25 13.0462 20.25 13.0557 20.25 13.0652C20.25 13.0747 20.25 13.0842 20.25 13.0937C20.25 13.1032 20.25 13.1127 20.25 13.1222C20.25 13.1317 20.25 13.1412 20.25 13.1507C20.25 13.1602 20.25 13.1697 20.25 13.1792C20.25 13.1886 20.25 13.1981 20.25 13.2076C20.25 13.2171 20.25 13.2265 20.25 13.236C20.25 13.2454 20.25 13.2549 20.25 13.2643C20.25 13.2738 20.25 13.2832 20.25 13.2927C20.25 13.3021 20.25 13.3116 20.25 13.321C20.25 13.3304 20.25 13.3399 20.25 13.3493C20.25 13.3587 20.25 13.3681 20.25 13.3775C20.25 13.387 20.25 13.3964 20.25 13.4058C20.25 13.4152 20.25 13.4246 20.25 13.434C20.25 13.4434 20.25 13.4528 20.25 13.4622C20.25 13.4715 20.25 13.4809 20.25 13.4903C20.25 13.4997 20.25 13.5091 20.25 13.5184C20.25 13.5278 20.25 13.5372 20.25 13.5465C20.25 13.5559 20.25 13.5653 20.25 13.5746C20.25 13.584 20.25 13.5933 20.25 13.6027C20.25 13.612 20.25 13.6214 20.25 13.6307C20.25 13.64 20.25 13.6494 20.25 13.6587C20.25 13.668 20.25 13.6774 20.25 13.6867C20.25 13.696 20.25 13.7053 20.25 13.7146C20.25 13.7239 20.25 13.7333 20.25 13.7426C20.25 13.7519 20.25 13.7612 20.25 13.7705C20.25 13.7798 20.25 13.7891 20.25 13.7983C20.25 13.8076 20.25 13.8169 20.25 13.8262C20.25 13.8355 20.25 13.8448 20.25 13.854C20.25 13.8633 20.25 13.8726 20.25 13.8819C20.25 13.8911 20.25 13.9004 20.25 13.9096C20.25 13.9189 20.25 13.9282 20.25 13.9374C20.25 13.9467 20.25 13.9559 20.25 13.9652C20.25 13.9744 20.25 13.9836 20.25 13.9929C20.25 14.0021 20.25 14.0113 20.25 14.0206C20.25 14.0298 20.25 14.039 20.25 14.0483C20.25 14.0575 20.25 14.0667 20.25 14.0759C20.25 14.0851 20.25 14.0943 20.25 14.1035C20.25 14.1128 20.25 14.122 20.25 14.1312C20.25 14.1404 20.25 14.1496 20.25 14.1588C20.25 14.1679 20.25 14.1771 20.25 14.1863C20.25 14.1955 20.25 14.2047 20.25 14.2139C20.25 14.2231 20.25 14.2322 20.25 14.2414C20.25 14.2506 20.25 14.2597 20.25 14.2689C20.25 14.2781 20.25 14.2872 20.25 14.2964C20.25 14.3056 20.25 14.3147 20.25 14.3239C20.25 14.333 20.25 14.3422 20.25 14.3513C20.25 14.3605 20.25 14.3696 20.25 14.3788C20.25 14.3879 20.25 14.397 20.25 14.4062C20.25 14.4153 20.25 14.4244 20.25 14.4336C20.25 14.4427 20.25 14.4518 20.25 14.4609C20.25 14.4701 20.25 14.4792 20.25 14.4883C20.25 14.4974 20.25 14.5065 20.25 14.5156C20.25 14.5247 20.25 14.5338 20.25 14.5429C20.25 14.552 20.25 14.5611 20.25 14.5702C20.25 14.5793 20.25 14.5884 20.25 14.5975C20.25 14.6066 20.25 14.6157 20.25 14.6248C20.25 14.6339 20.25 14.6429 20.25 14.652C20.25 14.6611 20.25 14.6702 20.25 14.6793C20.25 14.6883 20.25 14.6974 20.25 14.7065C20.25 14.7155 20.25 14.7246 20.25 14.7337C20.25 14.7427 20.25 14.7518 20.25 14.7608C20.25 14.7699 20.25 14.7789 20.25 14.788C20.25 14.797 20.25 14.8061 20.25 14.8151C20.25 14.8242 20.25 14.8332 20.25 14.8423C20.25 14.8513 20.25 14.8603 20.25 14.8694C20.25 14.8784 20.25 14.8874 20.25 14.8965C20.25 14.9055 20.25 14.9145 20.25 14.9236C20.25 14.9326 20.25 14.9416 20.25 14.9506C20.25 14.9596 20.25 14.9687 20.25 14.9777C20.25 14.9867 20.25 14.9957 20.25 15.0047C20.25 15.0137 20.25 15.0227 20.25 15.0317C20.25 15.0407 20.25 15.0497 20.25 15.0587C20.25 15.0677 20.25 15.0767 20.25 15.0857C20.25 15.0947 20.25 15.1037 20.25 15.1127C20.25 15.1217 20.25 15.1307 20.25 15.1397C20.25 15.1486 20.25 15.1576 20.25 15.1666C20.25 15.1756 20.25 15.1846 20.25 15.1935C20.25 15.2025 20.25 15.2115 20.25 15.2205C20.25 15.2294 20.25 15.2384 20.25 15.2474C20.25 15.2563 20.25 15.2653 20.25 15.2743C20.25 15.2832 20.25 15.2922 20.25 15.3011C20.25 15.3101 20.25 15.3191 20.25 15.328C20.25 15.337 20.25 15.3459 20.25 15.3549C20.25 15.3638 20.25 15.3728 20.25 15.3817C20.25 15.3907 20.25 15.3996 20.25 15.4086C20.25 15.4175 20.25 15.4264 20.25 15.4354C20.25 15.4443 20.25 15.4532 20.25 15.4622C20.25 15.4711 20.25 15.48 20.25 15.489C20.25 15.4979 20.25 15.5068 20.25 15.5158C20.25 15.5247 20.25 15.5336 20.25 15.5425C20.25 15.5515 20.25 15.5604 20.25 15.5693C20.25 15.5782 20.25 15.5871 20.25 15.5961C20.25 15.605 20.25 15.6139 20.25 15.6228C20.25 15.6317 20.25 15.6406 20.25 15.6495C20.25 15.6584 20.25 15.6673 20.25 15.6763C20.25 15.6852 20.25 15.6941 20.25 15.703C20.25 15.7119 20.25 15.7208 20.25 15.7297C20.25 15.7386 20.25 15.7475 20.25 15.7564C20.25 15.7653 20.25 15.7742 20.25 15.783C20.25 15.7919 20.25 15.8008 20.25 15.8097C20.25 15.8186 20.25 15.8275 20.25 15.8364C20.25 15.8453 20.25 15.8542 20.25 15.863C20.25 15.8719 20.25 15.8808 20.25 15.8897C20.25 15.8986 20.25 15.9075 20.25 15.9163C20.25 15.9252 20.25 15.9341 20.25 15.943C20.25 15.9518 20.25 15.9607 20.25 15.9696C20.25 15.9785 20.25 15.9873 20.25 15.9962C20.25 16.0051 20.25 16.0139 20.25 16.0228C20.25 16.0317 20.25 16.0405 20.25 16.0494C20.25 16.0583 20.25 16.0671 20.25 16.076C20.25 16.0849 20.25 16.0937 20.25 16.1026C20.25 16.1115 20.25 16.1203 20.25 16.1292C20.25 16.138 20.25 16.1469 20.25 16.1557C20.25 16.1646 20.25 16.1735 20.25 16.1823C20.25 16.1912 20.25 16.2 20.25 16.2089C20.25 16.2177 20.25 16.2266 20.25 16.2354C20.25 16.2443 20.25 16.2531 20.25 16.262C20.25 16.2708 20.25 16.2797 20.25 16.2885C20.25 16.2974 20.25 16.3062 20.25 16.3151C20.25 16.3239 20.25 16.3328 20.25 16.3416C20.25 16.3504 20.25 16.3593 20.25 16.3681C20.25 16.377 20.25 16.3858 20.25 16.3946C20.25 16.4035 20.25 16.4123 20.25 16.4212C20.25 16.43 20.25 16.4388 20.25 16.4477C20.25 16.4565 20.25 16.4654 20.25 16.4742C20.25 16.483 20.25 16.4919 20.25 16.5007C20.25 16.5095 20.25 16.5184 20.25 16.5272C20.25 16.536 20.25 16.5449 20.25 16.5537C20.25 16.5625 20.25 16.5714 20.25 16.5802C20.25 16.589 20.25 16.5978 20.25 16.6067C20.25 16.6155 20.25 16.6243 20.25 16.6332C20.25 16.642 20.25 16.6508 20.25 16.6597C20.25 16.6685 20.25 16.6773 20.25 16.6861C20.25 16.695 20.25 16.7038 20.25 16.7126C20.25 16.7214 20.25 16.7303 20.25 16.7391C20.25 16.7479 20.25 16.7567 20.25 16.7656C20.25 16.7744 20.25 16.7832 20.25 16.792C20.25 16.8009 20.25 16.8097 20.25 16.8185C20.25 16.8273 20.25 16.8362 20.25 16.845C20.25 16.8538 20.25 16.8626 20.25 16.8715C20.25 16.8803 20.25 16.8891 20.25 16.8979C20.25 16.9067 20.25 16.9156 20.25 16.9244C20.25 16.9332 20.25 16.942 20.25 16.9509C20.25 16.9597 20.25 16.9685 20.25 16.9773C20.25 16.9861 20.25 16.995 20.25 17.0038C20.25 17.0126 20.25 17.0214 20.25 17.0303C20.25 17.0391 20.25 17.0479 20.25 17.0567C20.25 17.0655 20.25 17.0744 20.25 17.0832C20.25 17.092 20.25 17.1008 20.25 17.1097C20.25 17.1185 20.25 17.1273 20.25 17.1361C20.25 17.1449 20.25 17.1538 20.25 17.1626C20.25 17.1714 20.25 17.1802 20.25 17.1891C20.25 17.1979 20.25 17.2067 20.25 17.2155C20.25 17.2244 20.25 17.2332 20.25 17.242C20.25 17.2508 20.25 17.2597 20.25 17.2685C20.25 17.2773 20.25 17.2861 20.25 17.295C20.25 17.3038 20.25 17.3126 20.25 17.3214C20.25 17.3303 20.25 17.3391 20.25 17.3479C20.25 17.3567 20.25 17.3656 20.25 17.3744C20.25 17.3832 20.25 17.392 20.25 17.4009C20.25 17.4097 20.25 17.4185 20.25 17.4274C20.25 17.4362 20.25 17.445 20.25 17.4539C20.25 17.4627 20.25 17.4715 20.25 17.4803C20.25 17.4892 20.25 17.498 20.25 17.5068C20.25 17.5157 20.25 17.5245 20.25 17.5333C20.25 17.5422 20.25 17.551 20.25 17.5599C20.25 17.5687 20.25 17.5775 20.25 17.5864C20.25 17.5952 20.25 17.604 20.25 17.6129C20.25 17.6217 20.25 17.6305 20.25 17.6394C20.25 17.6482 20.25 17.6571 20.25 17.6659C20.25 17.6748 20.25 17.6836 20.25 17.6924C20.25 17.7013 20.25 17.7101 20.25 17.719C20.25 17.7278 20.25 17.7367 20.25 17.7455C20.25 17.7544 20.25 17.7632 20.25 17.772C20.25 17.7809 20.25 17.7897 20.25 17.7986C20.25 17.8074 20.25 17.8163 20.25 17.8251C20.25 17.834 20.25 17.8429 20.25 17.8517C20.25 17.8606 20.25 17.8694 20.25 17.8783C20.25 17.8871 20.25 17.896 20.25 17.9048C20.25 17.9137 20.25 17.9226 20.25 17.9314C20.25 17.9403 20.25 17.9491 20.25 17.958C20.25 17.9669 20.25 17.9757 20.25 17.9846C20.25 17.9935 20.25 18.0023 20.25 18.0112C20.25 18.0201 20.25 18.0289 20.25 18.0378C20.25 18.0467 20.25 18.0555 20.25 18.0644C20.25 18.0733 20.25 18.0822 20.25 18.091C20.25 18.0999 20.25 18.1088 20.25 18.1177C20.25 18.1266 20.25 18.1354 20.25 18.1443C20.25 18.1532 20.25 18.1621 20.25 18.171C20.25 18.1798 20.25 18.1887 20.25 18.1976C20.25 18.2065 20.25 18.2154 20.25 18.2243C20.25 18.2332 20.25 18.2421 20.25 18.2509C20.25 18.2598 20.25 18.2687 20.25 18.2776C20.25 18.2865 20.25 18.2954 20.25 18.3043C20.25 18.3132 20.25 18.3221 20.25 18.331C20.25 18.3399 20.25 18.3488 20.25 18.3577C20.25 18.3666 20.25 18.3755 20.25 18.3845C20.25 18.3934 20.25 18.4023 20.25 18.4112C20.25 18.4201 20.25 18.429 20.25 18.4379C20.25 18.4468 20.25 18.4558 20.25 18.4647C20.25 18.4736 20.25 18.4825 20.25 18.4914C20.25 18.5004 20.25 18.5093 20.25 18.5182C20.25 18.5271 20.25 18.5361 20.25 18.545C20.25 18.5539 20.25 18.5629 20.25 18.5718C20.25 18.5807 20.25 18.5897 20.25 18.5986C20.25 18.6075 20.25 18.6165 20.25 18.6254C20.25 18.6344 20.25 18.6433 20.25 18.6522C20.25 18.6612 20.25 18.6701 20.25 18.6791C20.25 18.688 20.25 18.697 20.25 18.7059C20.25 18.7149 20.25 18.7238 20.25 18.7328C20.25 18.7418 20.25 18.7507 20.25 18.7597C20.25 18.7686 20.25 18.7776 20.25 18.7866C20.25 18.7955 20.25 18.8045 20.25 18.8135C20.25 18.8224 20.25 18.8314 20.25 18.8404C20.25 18.8494 20.25 18.8583 20.25 18.8673C20.25 18.8763 20.25 18.8853 20.25 18.8943C20.25 18.9033 20.25 18.9122 20.25 18.9212C20.25 18.9302 20.25 18.9392 20.25 18.9482C20.25 18.9572 20.25 18.9662 20.25 18.9752C20.25 18.9842 20.25 18.9932 20.25 19.0022C20.25 19.0112 20.25 19.0202 20.25 19.0292C20.25 19.0382 20.25 19.0472 20.25 19.0562C20.25 19.0653 20.25 19.0743 20.25 19.0833C20.25 19.0923 20.25 19.1013 20.25 19.1103C20.25 19.1194 20.25 19.1284 20.25 19.1374C20.25 19.1465 20.25 19.1555 20.25 19.1645C20.25 19.1736 20.25 19.1826 20.25 19.1916C20.25 19.2007 20.25 19.2097 20.25 19.2187C20.25 19.2278 20.25 19.2368 20.25 19.2459C20.25 19.2549 20.25 19.264 20.25 19.273C20.25 19.2821 20.25 19.2912 20.25 19.3002C20.25 19.3093 20.25 19.3183 20.25 19.3274C20.25 19.3365 20.25 19.3455 20.25 19.3546C20.25 19.3637 20.25 19.3728 20.25 19.3818C20.25 19.3909 20.25 19.4 20.25 19.4091C20.25 19.4182 20.25 19.4273 20.25 19.4363C20.25 19.4454 20.25 19.4545 20.25 19.4636C20.25 19.4727 20.25 19.4818 20.25 19.4909C20.25 19.5 20.25 19.5091 20.25 19.5182C20.25 19.5273 20.25 19.5364 20.25 19.5456C20.25 19.5547 20.25 19.5638 20.25 19.5729C20.25 19.582 20.25 19.5911 20.25 19.6003C20.25 19.6094 20.25 19.6185 20.25 19.6277C20.25 19.6368 20.25 19.6459 20.25 19.6551C20.25 19.6642 20.25 19.6733 20.25 19.6825C20.25 19.6916 20.25 19.7008 20.25 19.7099C20.25 19.7191 20.25 19.7282 20.25 19.7374C20.25 19.7466 20.25 19.7557 20.25 19.7649C20.25 19.7741 20.25 19.7832 20.25 19.7924C20.25 19.8016 20.25 19.8107 20.25 19.8199C20.25 19.8291 20.25 19.8383 20.25 19.8475C20.25 19.8566 20.25 19.8658 20.25 19.875C20.25 19.8842 20.25 19.8934 20.25 19.9026C20.25 19.9118 20.25 19.921 20.25 19.9302C20.25 19.9394 20.25 19.9486 20.25 19.9579C20.25 19.9671 20.25 19.9763 20.25 19.9855C20.25 19.9947 20.25 20.004 20.25 20.0132C20.25 20.0224 20.25 20.0316 20.25 20.0409C20.25 20.0501 20.25 20.0593 20.25 20.0686C20.25 20.0778 20.25 20.0871 20.25 20.0963C20.25 20.1056 20.25 20.1148 20.25 20.1241C20.25 20.1333 20.25 20.1426 20.25 20.1519C20.25 20.1611 20.25 20.1704 20.25 20.1797C20.25 20.189 20.25 20.1982 20.25 20.2075C20.25 20.2168 20.25 20.2261 20.25 20.2354C20.25 20.2447 20.25 20.2539 20.25 20.2632C20.25 20.2725 20.25 20.2818 20.25 20.2911C20.25 20.3004 20.25 20.3098 20.25 20.3191C20.25 20.3284 20.25 20.3377 20.25 20.347C20.25 20.3563 20.25 20.3657 20.25 20.375C20.25 20.3843 20.25 20.3936 20.25 20.403C20.25 20.4123 20.25 20.4217 20.25 20.431C20.25 20.4403 20.25 20.4497 20.25 20.4591C20.25 20.4684 20.25 20.4778 20.25 20.4871C20.25 20.4965 20.25 20.5058 20.25 20.5152C20.25 20.5246 20.25 20.534 20.25 20.5433C20.25 20.5527 20.25 20.5621 20.25 20.5715C20.25 20.5809 20.25 20.5903 20.25 20.5997C20.25 20.6091 20.25 20.6185 20.25 20.6279C20.25 20.6373 20.25 20.6467 20.25 20.6561C20.25 20.6655 20.25 20.6749 20.25 20.6843C20.25 20.6938 20.25 20.7032 20.25 20.7126C20.25 20.722 20.25 20.7315 20.25 20.7409C20.25 20.7504 20.25 20.7598 20.25 20.7693C20.25 20.7787 20.25 20.7882 20.25 20.7976C20.25 20.8071 20.25 20.8165 20.25 20.826C20.25 20.8355 20.25 20.8449 20.25 20.8544C20.25 20.8639 20.25 20.8734 20.25 20.8829C20.25 20.8923 20.25 20.9018 20.25 20.9113C20.25 20.9208 20.25 20.9303 20.25 20.9398C20.25 20.9493 20.25 20.9588 20.25 20.9684C20.25 20.9779 20.25 20.9874 20.25 20.9969C20.25 21.0064 20.25 21.016 20.25 21.0255C20.25 21.035 20.25 21.0446 20.25 21.0541C20.25 21.0636 20.25 21.0732 20.25 21.0827C20.25 21.0923 20.25 21.1019 20.25 21.1114C20.25 21.121 20.25 21.1305 20.25 21.1401C20.25 21.1497 20.25 21.1593 20.25 21.1688C20.25 21.1784 20.25 21.188 20.25 21.1976C20.25 21.2072 20.25 21.2168 20.25 21.2264C20.25 21.236 20.25 21.2456 20.25 21.2552C20.25 21.2648 20.25 21.2744 20.25 21.2841C20.25 21.2937 20.25 21.3033 20.25 21.313C20.25 21.3226 20.25 21.3322 20.25 21.3419C20.25 21.3515 20.25 21.3612 20.25 21.3708C20.25 21.3805 20.25 21.3901 20.25 21.3998C20.25 21.4094 20.25 21.4191 20.25 21.4288C20.25 21.4385 20.25 21.4481 20.25 21.4578C20.25 21.4675 20.25 21.4772 20.25 21.4869C20.25 21.4966 20.25 21.5063 20.25 21.516C20.25 21.5257 20.25 21.5354 20.25 21.5451C20.25 21.5549 20.25 21.5646 20.25 21.5743C20.25 21.584 20.25 21.5938 20.25 21.6035C20.25 21.6132 20.25 21.623 20.25 21.6327C20.25 21.6425 20.25 21.6522 20.25 21.662C20.25 21.6718 20.25 21.6815 20.25 21.6913C20.25 21.7011 20.25 21.7109 20.25 21.7206C20.25 21.7304 20.25 21.7402 20.25 21.75H21H21.75C21.75 21.7402 21.75 21.7304 21.75 21.7206C21.75 21.7109 21.75 21.7011 21.75 21.6913C21.75 21.6815 21.75 21.6718 21.75 21.662C21.75 21.6522 21.75 21.6425 21.75 21.6327C21.75 21.623 21.75 21.6132 21.75 21.6035C21.75 21.5938 21.75 21.584 21.75 21.5743C21.75 21.5646 21.75 21.5549 21.75 21.5451C21.75 21.5354 21.75 21.5257 21.75 21.516C21.75 21.5063 21.75 21.4966 21.75 21.4869C21.75 21.4772 21.75 21.4675 21.75 21.4578C21.75 21.4481 21.75 21.4385 21.75 21.4288C21.75 21.4191 21.75 21.4094 21.75 21.3998C21.75 21.3901 21.75 21.3805 21.75 21.3708C21.75 21.3612 21.75 21.3515 21.75 21.3419C21.75 21.3322 21.75 21.3226 21.75 21.313C21.75 21.3033 21.75 21.2937 21.75 21.2841C21.75 21.2744 21.75 21.2648 21.75 21.2552C21.75 21.2456 21.75 21.236 21.75 21.2264C21.75 21.2168 21.75 21.2072 21.75 21.1976C21.75 21.188 21.75 21.1784 21.75 21.1688C21.75 21.1593 21.75 21.1497 21.75 21.1401C21.75 21.1305 21.75 21.121 21.75 21.1114C21.75 21.1019 21.75 21.0923 21.75 21.0827C21.75 21.0732 21.75 21.0636 21.75 21.0541C21.75 21.0446 21.75 21.035 21.75 21.0255C21.75 21.016 21.75 21.0064 21.75 20.9969C21.75 20.9874 21.75 20.9779 21.75 20.9684C21.75 20.9588 21.75 20.9493 21.75 20.9398C21.75 20.9303 21.75 20.9208 21.75 20.9113C21.75 20.9018 21.75 20.8923 21.75 20.8829C21.75 20.8734 21.75 20.8639 21.75 20.8544C21.75 20.8449 21.75 20.8355 21.75 20.826C21.75 20.8165 21.75 20.8071 21.75 20.7976C21.75 20.7882 21.75 20.7787 21.75 20.7693C21.75 20.7598 21.75 20.7504 21.75 20.7409C21.75 20.7315 21.75 20.722 21.75 20.7126C21.75 20.7032 21.75 20.6938 21.75 20.6843C21.75 20.6749 21.75 20.6655 21.75 20.6561C21.75 20.6467 21.75 20.6373 21.75 20.6279C21.75 20.6185 21.75 20.6091 21.75 20.5997C21.75 20.5903 21.75 20.5809 21.75 20.5715C21.75 20.5621 21.75 20.5527 21.75 20.5433C21.75 20.534 21.75 20.5246 21.75 20.5152C21.75 20.5058 21.75 20.4965 21.75 20.4871C21.75 20.4778 21.75 20.4684 21.75 20.4591C21.75 20.4497 21.75 20.4403 21.75 20.431C21.75 20.4217 21.75 20.4123 21.75 20.403C21.75 20.3936 21.75 20.3843 21.75 20.375C21.75 20.3657 21.75 20.3563 21.75 20.347C21.75 20.3377 21.75 20.3284 21.75 20.3191C21.75 20.3098 21.75 20.3004 21.75 20.2911C21.75 20.2818 21.75 20.2725 21.75 20.2632C21.75 20.2539 21.75 20.2447 21.75 20.2354C21.75 20.2261 21.75 20.2168 21.75 20.2075C21.75 20.1982 21.75 20.189 21.75 20.1797C21.75 20.1704 21.75 20.1611 21.75 20.1519C21.75 20.1426 21.75 20.1333 21.75 20.1241C21.75 20.1148 21.75 20.1056 21.75 20.0963C21.75 20.0871 21.75 20.0778 21.75 20.0686C21.75 20.0593 21.75 20.0501 21.75 20.0409C21.75 20.0316 21.75 20.0224 21.75 20.0132C21.75 20.004 21.75 19.9947 21.75 19.9855C21.75 19.9763 21.75 19.9671 21.75 19.9579C21.75 19.9486 21.75 19.9394 21.75 19.9302C21.75 19.921 21.75 19.9118 21.75 19.9026C21.75 19.8934 21.75 19.8842 21.75 19.875C21.75 19.8658 21.75 19.8566 21.75 19.8475C21.75 19.8383 21.75 19.8291 21.75 19.8199C21.75 19.8107 21.75 19.8016 21.75 19.7924C21.75 19.7832 21.75 19.7741 21.75 19.7649C21.75 19.7557 21.75 19.7466 21.75 19.7374C21.75 19.7282 21.75 19.7191 21.75 19.7099C21.75 19.7008 21.75 19.6916 21.75 19.6825C21.75 19.6733 21.75 19.6642 21.75 19.6551C21.75 19.6459 21.75 19.6368 21.75 19.6277C21.75 19.6185 21.75 19.6094 21.75 19.6003C21.75 19.5911 21.75 19.582 21.75 19.5729C21.75 19.5638 21.75 19.5547 21.75 19.5456C21.75 19.5364 21.75 19.5273 21.75 19.5182C21.75 19.5091 21.75 19.5 21.75 19.4909C21.75 19.4818 21.75 19.4727 21.75 19.4636C21.75 19.4545 21.75 19.4454 21.75 19.4363C21.75 19.4273 21.75 19.4182 21.75 19.4091C21.75 19.4 21.75 19.3909 21.75 19.3818C21.75 19.3728 21.75 19.3637 21.75 19.3546C21.75 19.3455 21.75 19.3365 21.75 19.3274C21.75 19.3183 21.75 19.3093 21.75 19.3002C21.75 19.2912 21.75 19.2821 21.75 19.273C21.75 19.264 21.75 19.2549 21.75 19.2459C21.75 19.2368 21.75 19.2278 21.75 19.2187C21.75 19.2097 21.75 19.2007 21.75 19.1916C21.75 19.1826 21.75 19.1736 21.75 19.1645C21.75 19.1555 21.75 19.1465 21.75 19.1374C21.75 19.1284 21.75 19.1194 21.75 19.1103C21.75 19.1013 21.75 19.0923 21.75 19.0833C21.75 19.0743 21.75 19.0653 21.75 19.0562C21.75 19.0472 21.75 19.0382 21.75 19.0292C21.75 19.0202 21.75 19.0112 21.75 19.0022C21.75 18.9932 21.75 18.9842 21.75 18.9752C21.75 18.9662 21.75 18.9572 21.75 18.9482C21.75 18.9392 21.75 18.9302 21.75 18.9212C21.75 18.9122 21.75 18.9033 21.75 18.8943C21.75 18.8853 21.75 18.8763 21.75 18.8673C21.75 18.8583 21.75 18.8494 21.75 18.8404C21.75 18.8314 21.75 18.8224 21.75 18.8135C21.75 18.8045 21.75 18.7955 21.75 18.7866C21.75 18.7776 21.75 18.7686 21.75 18.7597C21.75 18.7507 21.75 18.7418 21.75 18.7328C21.75 18.7238 21.75 18.7149 21.75 18.7059C21.75 18.697 21.75 18.688 21.75 18.6791C21.75 18.6701 21.75 18.6612 21.75 18.6522C21.75 18.6433 21.75 18.6344 21.75 18.6254C21.75 18.6165 21.75 18.6075 21.75 18.5986C21.75 18.5897 21.75 18.5807 21.75 18.5718C21.75 18.5629 21.75 18.5539 21.75 18.545C21.75 18.5361 21.75 18.5271 21.75 18.5182C21.75 18.5093 21.75 18.5004 21.75 18.4914C21.75 18.4825 21.75 18.4736 21.75 18.4647C21.75 18.4558 21.75 18.4468 21.75 18.4379C21.75 18.429 21.75 18.4201 21.75 18.4112C21.75 18.4023 21.75 18.3934 21.75 18.3845C21.75 18.3755 21.75 18.3666 21.75 18.3577C21.75 18.3488 21.75 18.3399 21.75 18.331C21.75 18.3221 21.75 18.3132 21.75 18.3043C21.75 18.2954 21.75 18.2865 21.75 18.2776C21.75 18.2687 21.75 18.2598 21.75 18.2509C21.75 18.2421 21.75 18.2332 21.75 18.2243C21.75 18.2154 21.75 18.2065 21.75 18.1976C21.75 18.1887 21.75 18.1798 21.75 18.171C21.75 18.1621 21.75 18.1532 21.75 18.1443C21.75 18.1354 21.75 18.1266 21.75 18.1177C21.75 18.1088 21.75 18.0999 21.75 18.091C21.75 18.0822 21.75 18.0733 21.75 18.0644C21.75 18.0555 21.75 18.0467 21.75 18.0378C21.75 18.0289 21.75 18.0201 21.75 18.0112C21.75 18.0023 21.75 17.9935 21.75 17.9846C21.75 17.9757 21.75 17.9669 21.75 17.958C21.75 17.9491 21.75 17.9403 21.75 17.9314C21.75 17.9226 21.75 17.9137 21.75 17.9048C21.75 17.896 21.75 17.8871 21.75 17.8783C21.75 17.8694 21.75 17.8606 21.75 17.8517C21.75 17.8429 21.75 17.834 21.75 17.8251C21.75 17.8163 21.75 17.8074 21.75 17.7986C21.75 17.7897 21.75 17.7809 21.75 17.772C21.75 17.7632 21.75 17.7544 21.75 17.7455C21.75 17.7367 21.75 17.7278 21.75 17.719C21.75 17.7101 21.75 17.7013 21.75 17.6924C21.75 17.6836 21.75 17.6748 21.75 17.6659C21.75 17.6571 21.75 17.6482 21.75 17.6394C21.75 17.6305 21.75 17.6217 21.75 17.6129C21.75 17.604 21.75 17.5952 21.75 17.5864C21.75 17.5775 21.75 17.5687 21.75 17.5599C21.75 17.551 21.75 17.5422 21.75 17.5333C21.75 17.5245 21.75 17.5157 21.75 17.5068C21.75 17.498 21.75 17.4892 21.75 17.4803C21.75 17.4715 21.75 17.4627 21.75 17.4539C21.75 17.445 21.75 17.4362 21.75 17.4274C21.75 17.4185 21.75 17.4097 21.75 17.4009C21.75 17.392 21.75 17.3832 21.75 17.3744C21.75 17.3656 21.75 17.3567 21.75 17.3479C21.75 17.3391 21.75 17.3303 21.75 17.3214C21.75 17.3126 21.75 17.3038 21.75 17.295C21.75 17.2861 21.75 17.2773 21.75 17.2685C21.75 17.2597 21.75 17.2508 21.75 17.242C21.75 17.2332 21.75 17.2244 21.75 17.2155C21.75 17.2067 21.75 17.1979 21.75 17.1891C21.75 17.1802 21.75 17.1714 21.75 17.1626C21.75 17.1538 21.75 17.1449 21.75 17.1361C21.75 17.1273 21.75 17.1185 21.75 17.1097C21.75 17.1008 21.75 17.092 21.75 17.0832C21.75 17.0744 21.75 17.0655 21.75 17.0567C21.75 17.0479 21.75 17.0391 21.75 17.0303C21.75 17.0214 21.75 17.0126 21.75 17.0038C21.75 16.995 21.75 16.9861 21.75 16.9773C21.75 16.9685 21.75 16.9597 21.75 16.9509C21.75 16.942 21.75 16.9332 21.75 16.9244C21.75 16.9156 21.75 16.9067 21.75 16.8979C21.75 16.8891 21.75 16.8803 21.75 16.8715C21.75 16.8626 21.75 16.8538 21.75 16.845C21.75 16.8362 21.75 16.8273 21.75 16.8185C21.75 16.8097 21.75 16.8009 21.75 16.792C21.75 16.7832 21.75 16.7744 21.75 16.7656C21.75 16.7567 21.75 16.7479 21.75 16.7391C21.75 16.7303 21.75 16.7214 21.75 16.7126C21.75 16.7038 21.75 16.695 21.75 16.6861C21.75 16.6773 21.75 16.6685 21.75 16.6597C21.75 16.6508 21.75 16.642 21.75 16.6332C21.75 16.6243 21.75 16.6155 21.75 16.6067C21.75 16.5978 21.75 16.589 21.75 16.5802C21.75 16.5714 21.75 16.5625 21.75 16.5537C21.75 16.5449 21.75 16.536 21.75 16.5272C21.75 16.5184 21.75 16.5095 21.75 16.5007C21.75 16.4919 21.75 16.483 21.75 16.4742C21.75 16.4654 21.75 16.4565 21.75 16.4477C21.75 16.4388 21.75 16.43 21.75 16.4212C21.75 16.4123 21.75 16.4035 21.75 16.3946C21.75 16.3858 21.75 16.377 21.75 16.3681C21.75 16.3593 21.75 16.3504 21.75 16.3416C21.75 16.3328 21.75 16.3239 21.75 16.3151C21.75 16.3062 21.75 16.2974 21.75 16.2885C21.75 16.2797 21.75 16.2708 21.75 16.262C21.75 16.2531 21.75 16.2443 21.75 16.2354C21.75 16.2266 21.75 16.2177 21.75 16.2089C21.75 16.2 21.75 16.1912 21.75 16.1823C21.75 16.1735 21.75 16.1646 21.75 16.1557C21.75 16.1469 21.75 16.138 21.75 16.1292C21.75 16.1203 21.75 16.1115 21.75 16.1026C21.75 16.0937 21.75 16.0849 21.75 16.076C21.75 16.0671 21.75 16.0583 21.75 16.0494C21.75 16.0405 21.75 16.0317 21.75 16.0228C21.75 16.0139 21.75 16.0051 21.75 15.9962C21.75 15.9873 21.75 15.9785 21.75 15.9696C21.75 15.9607 21.75 15.9518 21.75 15.943C21.75 15.9341 21.75 15.9252 21.75 15.9163C21.75 15.9075 21.75 15.8986 21.75 15.8897C21.75 15.8808 21.75 15.8719 21.75 15.863C21.75 15.8542 21.75 15.8453 21.75 15.8364C21.75 15.8275 21.75 15.8186 21.75 15.8097C21.75 15.8008 21.75 15.7919 21.75 15.783C21.75 15.7742 21.75 15.7653 21.75 15.7564C21.75 15.7475 21.75 15.7386 21.75 15.7297C21.75 15.7208 21.75 15.7119 21.75 15.703C21.75 15.6941 21.75 15.6852 21.75 15.6763C21.75 15.6673 21.75 15.6584 21.75 15.6495C21.75 15.6406 21.75 15.6317 21.75 15.6228C21.75 15.6139 21.75 15.605 21.75 15.5961C21.75 15.5871 21.75 15.5782 21.75 15.5693C21.75 15.5604 21.75 15.5515 21.75 15.5425C21.75 15.5336 21.75 15.5247 21.75 15.5158C21.75 15.5068 21.75 15.4979 21.75 15.489C21.75 15.48 21.75 15.4711 21.75 15.4622C21.75 15.4532 21.75 15.4443 21.75 15.4354C21.75 15.4264 21.75 15.4175 21.75 15.4086C21.75 15.3996 21.75 15.3907 21.75 15.3817C21.75 15.3728 21.75 15.3638 21.75 15.3549C21.75 15.3459 21.75 15.337 21.75 15.328C21.75 15.3191 21.75 15.3101 21.75 15.3011C21.75 15.2922 21.75 15.2832 21.75 15.2743C21.75 15.2653 21.75 15.2563 21.75 15.2474C21.75 15.2384 21.75 15.2294 21.75 15.2205C21.75 15.2115 21.75 15.2025 21.75 15.1935C21.75 15.1846 21.75 15.1756 21.75 15.1666C21.75 15.1576 21.75 15.1486 21.75 15.1397C21.75 15.1307 21.75 15.1217 21.75 15.1127C21.75 15.1037 21.75 15.0947 21.75 15.0857C21.75 15.0767 21.75 15.0677 21.75 15.0587C21.75 15.0497 21.75 15.0407 21.75 15.0317C21.75 15.0227 21.75 15.0137 21.75 15.0047C21.75 14.9957 21.75 14.9867 21.75 14.9777C21.75 14.9687 21.75 14.9596 21.75 14.9506C21.75 14.9416 21.75 14.9326 21.75 14.9236C21.75 14.9145 21.75 14.9055 21.75 14.8965C21.75 14.8874 21.75 14.8784 21.75 14.8694C21.75 14.8603 21.75 14.8513 21.75 14.8423C21.75 14.8332 21.75 14.8242 21.75 14.8151C21.75 14.8061 21.75 14.797 21.75 14.788C21.75 14.7789 21.75 14.7699 21.75 14.7608C21.75 14.7518 21.75 14.7427 21.75 14.7337C21.75 14.7246 21.75 14.7155 21.75 14.7065C21.75 14.6974 21.75 14.6883 21.75 14.6793C21.75 14.6702 21.75 14.6611 21.75 14.652C21.75 14.6429 21.75 14.6339 21.75 14.6248C21.75 14.6157 21.75 14.6066 21.75 14.5975C21.75 14.5884 21.75 14.5793 21.75 14.5702C21.75 14.5611 21.75 14.552 21.75 14.5429C21.75 14.5338 21.75 14.5247 21.75 14.5156C21.75 14.5065 21.75 14.4974 21.75 14.4883C21.75 14.4792 21.75 14.4701 21.75 14.4609C21.75 14.4518 21.75 14.4427 21.75 14.4336C21.75 14.4244 21.75 14.4153 21.75 14.4062C21.75 14.397 21.75 14.3879 21.75 14.3788C21.75 14.3696 21.75 14.3605 21.75 14.3513C21.75 14.3422 21.75 14.333 21.75 14.3239C21.75 14.3147 21.75 14.3056 21.75 14.2964C21.75 14.2872 21.75 14.2781 21.75 14.2689C21.75 14.2597 21.75 14.2506 21.75 14.2414C21.75 14.2322 21.75 14.2231 21.75 14.2139C21.75 14.2047 21.75 14.1955 21.75 14.1863C21.75 14.1771 21.75 14.1679 21.75 14.1588C21.75 14.1496 21.75 14.1404 21.75 14.1312C21.75 14.122 21.75 14.1128 21.75 14.1035C21.75 14.0943 21.75 14.0851 21.75 14.0759C21.75 14.0667 21.75 14.0575 21.75 14.0483C21.75 14.039 21.75 14.0298 21.75 14.0206C21.75 14.0113 21.75 14.0021 21.75 13.9929C21.75 13.9836 21.75 13.9744 21.75 13.9652C21.75 13.9559 21.75 13.9467 21.75 13.9374C21.75 13.9282 21.75 13.9189 21.75 13.9096C21.75 13.9004 21.75 13.8911 21.75 13.8819C21.75 13.8726 21.75 13.8633 21.75 13.854C21.75 13.8448 21.75 13.8355 21.75 13.8262C21.75 13.8169 21.75 13.8076 21.75 13.7983C21.75 13.7891 21.75 13.7798 21.75 13.7705C21.75 13.7612 21.75 13.7519 21.75 13.7426C21.75 13.7333 21.75 13.7239 21.75 13.7146C21.75 13.7053 21.75 13.696 21.75 13.6867C21.75 13.6774 21.75 13.668 21.75 13.6587C21.75 13.6494 21.75 13.64 21.75 13.6307C21.75 13.6214 21.75 13.612 21.75 13.6027C21.75 13.5933 21.75 13.584 21.75 13.5746C21.75 13.5653 21.75 13.5559 21.75 13.5465C21.75 13.5372 21.75 13.5278 21.75 13.5184C21.75 13.5091 21.75 13.4997 21.75 13.4903C21.75 13.4809 21.75 13.4715 21.75 13.4622C21.75 13.4528 21.75 13.4434 21.75 13.434C21.75 13.4246 21.75 13.4152 21.75 13.4058C21.75 13.3964 21.75 13.387 21.75 13.3775C21.75 13.3681 21.75 13.3587 21.75 13.3493C21.75 13.3399 21.75 13.3304 21.75 13.321C21.75 13.3116 21.75 13.3021 21.75 13.2927C21.75 13.2832 21.75 13.2738 21.75 13.2643C21.75 13.2549 21.75 13.2454 21.75 13.236C21.75 13.2265 21.75 13.2171 21.75 13.2076C21.75 13.1981 21.75 13.1886 21.75 13.1792C21.75 13.1697 21.75 13.1602 21.75 13.1507C21.75 13.1412 21.75 13.1317 21.75 13.1222C21.75 13.1127 21.75 13.1032 21.75 13.0937C21.75 13.0842 21.75 13.0747 21.75 13.0652C21.75 13.0557 21.75 13.0462 21.75 13.0366C21.75 13.0271 21.75 13.0176 21.75 13.008C21.75 12.9985 21.75 12.989 21.75 12.9794C21.75 12.9699 21.75 12.9603 21.75 12.9508C21.75 12.9412 21.75 12.9317 21.75 12.9221C21.75 12.9125 21.75 12.903 21.75 12.8934C21.75 12.8838 21.75 12.8742 21.75 12.8647C21.75 12.8551 21.75 12.8455 21.75 12.8359C21.75 12.8263 21.75 12.8167 21.75 12.8071C21.75 12.7975 21.75 12.7879 21.75 12.7783C21.75 12.7686 21.75 12.759 21.75 12.7494C21.75 12.7398 21.75 12.7301 21.75 12.7205C21.75 12.7109 21.75 12.7012 21.75 12.6916C21.75 12.6819 21.75 12.6723 21.75 12.6626C21.75 12.653 21.75 12.6433 21.75 12.6337C21.75 12.624 21.75 12.6143 21.75 12.6046C21.75 12.595 21.75 12.5853 21.75 12.5756C21.75 12.5659 21.75 12.5562 21.75 12.5465C21.75 12.5368 21.75 12.5271 21.75 12.5174C21.75 12.5077 21.75 12.498 21.75 12.4883C21.75 12.4785 21.75 12.4688 21.75 12.4591C21.75 12.4494 21.75 12.4396 21.75 12.4299C21.75 12.4201 21.75 12.4104 21.75 12.4006C21.75 12.3909 21.75 12.3811 21.75 12.3714C21.75 12.3616 21.75 12.3518 21.75 12.3421C21.75 12.3323 21.75 12.3225 21.75 12.3127C21.75 12.3029 21.75 12.2931 21.75 12.2833C21.75 12.2736 21.75 12.2638 21.75 12.2539C21.75 12.2441 21.75 12.2343 21.75 12.2245C21.75 12.2147 21.75 12.2049 21.75 12.195C21.75 12.1852 21.75 12.1754 21.75 12.1655C21.75 12.1557 21.75 12.1458 21.75 12.136C21.75 12.1261 21.75 12.1163 21.75 12.1064C21.75 12.0965 21.75 12.0866 21.75 12.0768C21.75 12.0669 21.75 12.057 21.75 12.0471C21.75 12.0372 21.75 12.0273 21.75 12.0174C21.75 12.0075 21.75 11.9976 21.75 11.9877C21.75 11.9778 21.75 11.9679 21.75 11.958C21.75 11.948 21.75 11.9381 21.75 11.9282C21.75 11.9182 21.75 11.9083 21.75 11.8983C21.75 11.8884 21.75 11.8784 21.75 11.8685C21.75 11.8585 21.75 11.8485 21.75 11.8386C21.75 11.8286 21.75 11.8186 21.75 11.8086C21.75 11.7986 21.75 11.7886 21.75 11.7786C21.75 11.7686 21.75 11.7586 21.75 11.7486C21.75 11.7386 21.75 11.7286 21.75 11.7186C21.75 11.7086 21.75 11.6985 21.75 11.6885C21.75 11.6785 21.75 11.6684 21.75 11.6584C21.75 11.6483 21.75 11.6383 21.75 11.6282C21.75 11.6181 21.75 11.6081 21.75 11.598C21.75 11.5879 21.75 11.5778 21.75 11.5677C21.75 11.5577 21.75 11.5476 21.75 11.5375C21.75 11.5274 21.75 11.5173 21.75 11.5071C21.75 11.497 21.75 11.4869 21.75 11.4768C21.75 11.4667 21.75 11.4565 21.75 11.4464C21.75 11.4363 21.75 11.4261 21.75 11.416C21.75 11.4058 21.75 11.3956 21.75 11.3855C21.75 11.3753 21.75 11.3651 21.75 11.355C21.75 11.3448 21.75 11.3346 21.75 11.3244C21.75 11.3142 21.75 11.304 21.75 11.2938C21.75 11.2836 21.75 11.2734 21.75 11.2632C21.75 11.253 21.75 11.2427 21.75 11.2325C21.75 11.2223 21.75 11.212 21.75 11.2018C21.75 11.1915 21.75 11.1813 21.75 11.171C21.75 11.1608 21.75 11.1505 21.75 11.1402C21.75 11.1299 21.75 11.1197 21.75 11.1094C21.75 11.0991 21.75 11.0888 21.75 11.0785C21.75 11.0682 21.75 11.0579 21.75 11.0476C21.75 11.0373 21.75 11.0269 21.75 11.0166C21.75 11.0063 21.75 10.9959 21.75 10.9856C21.75 10.9753 21.75 10.9649 21.75 10.9545C21.75 10.9442 21.75 10.9338 21.75 10.9235C21.75 10.9131 21.75 10.9027 21.75 10.8923C21.75 10.8819 21.75 10.8715 21.75 10.8611C21.75 10.8507 21.75 10.8403 21.75 10.8299C21.75 10.8195 21.75 10.8091 21.75 10.7986C21.75 10.7882 21.75 10.7778 21.75 10.7673C21.75 10.7569 21.75 10.7464 21.75 10.736C21.75 10.7255 21.75 10.7151 21.75 10.7046C21.75 10.6941 21.75 10.6836 21.75 10.6731C21.75 10.6627 21.75 10.6522 21.75 10.6417C21.75 10.6312 21.75 10.6206 21.75 10.6101C21.75 10.5996 21.75 10.5891 21.75 10.5786C21.75 10.568 21.75 10.5575 21.75 10.5469C21.75 10.5364 21.75 10.5258 21.75 10.5153C21.75 10.5047 21.75 10.4941 21.75 10.4836C21.75 10.473 21.75 10.4624 21.75 10.4518C21.75 10.4412 21.75 10.4306 21.75 10.42C21.75 10.4094 21.75 10.3988 21.75 10.3882C21.75 10.3775 21.75 10.3669 21.75 10.3563C21.75 10.3456 21.75 10.335 21.75 10.3243C21.75 10.3137 21.75 10.303 21.75 10.2923C21.75 10.2817 21.75 10.271 21.75 10.2603C21.75 10.2496 21.75 10.2389 21.75 10.2282C21.75 10.2175 21.75 10.2068 21.75 10.1961C21.75 10.1854 21.75 10.1747 21.75 10.1639C21.75 10.1532 21.75 10.1425 21.75 10.1317C21.75 10.121 21.75 10.1102 21.75 10.0994C21.75 10.0887 21.75 10.0779 21.75 10.0671C21.75 10.0563 21.75 10.0456 21.75 10.0348C21.75 10.024 21.75 10.0132 21.75 10.0023C21.75 9.99153 21.75 9.98071 21.75 9.96989C21.75 9.95906 21.75 9.94822 21.75 9.93738C21.75 9.92653 21.75 9.91568 21.75 9.90482C21.75 9.89396 21.75 9.88309 21.75 9.87221C21.75 9.86133 21.75 9.85045 21.75 9.83955C21.75 9.82866 21.75 9.81776 21.75 9.80685C21.75 9.79594 21.75 9.78502 21.75 9.77409C21.75 9.76317 21.75 9.75223 21.75 9.74129C21.75 9.73034 21.75 9.71939 21.75 9.70843C21.75 9.69747 21.75 9.6865 21.75 9.67553C21.75 9.66455 21.75 9.65356 21.75 9.64257C21.75 9.63158 21.75 9.62057 21.75 9.60956C21.75 9.59855 21.75 9.58753 21.75 9.57651C21.75 9.56548 21.75 9.55444 21.75 9.5434C21.75 9.53235 21.75 9.5213 21.75 9.51024C21.75 9.49918 21.75 9.48811 21.75 9.47703C21.75 9.46595 21.75 9.45486 21.75 9.44376C21.75 9.43267 21.75 9.42156 21.75 9.41045C21.75 9.39934 21.75 9.38821 21.75 9.37708C21.75 9.36595 21.75 9.35481 21.75 9.34367C21.75 9.33252 21.75 9.32136 21.75 9.31019C21.75 9.29903 21.75 9.28785 21.75 9.27667C21.75 9.26549 21.75 9.2543 21.75 9.2431C21.75 9.23189 21.75 9.22068 21.75 9.20947C21.75 9.19825 21.75 9.18702 21.75 9.17578C21.75 9.16455 21.75 9.1533 21.75 9.14205C21.75 9.13079 21.75 9.11953 21.75 9.10826C21.75 9.09699 21.75 9.08571 21.75 9.07442C21.75 9.06313 21.75 9.05183 21.75 9.04052C21.75 9.02921 21.75 9.0179 21.75 9.00657C21.75 8.99524 21.75 8.98391 21.75 8.97256C21.75 8.96122 21.75 8.94987 21.75 8.93851C21.75 8.92714 21.75 8.91577 21.75 8.90439C21.75 8.89301 21.75 8.88162 21.75 8.87022C21.75 8.85882 21.75 8.84741 21.75 8.836C21.75 8.82458 21.75 8.81315 21.75 8.80172C21.75 8.79028 21.75 8.77884 21.75 8.76738C21.75 8.75593 21.75 8.74447 21.75 8.73299C21.75 8.72152 21.75 8.71004 21.75 8.69855C21.75 8.68705 21.75 8.67555 21.75 8.66404C21.75 8.65253 21.75 8.64101 21.75 8.62948C21.75 8.61796 21.75 8.60642 21.75 8.59487C21.75 8.58332 21.75 8.57176 21.75 8.5602C21.75 8.54863 21.75 8.53705 21.75 8.52547C21.75 8.51388 21.75 8.50229 21.75 8.49068C21.75 8.47908 21.75 8.46746 21.75 8.45584C21.75 8.44421 21.75 8.43258 21.75 8.42094C21.75 8.40929 21.75 8.39764 21.75 8.38598C21.75 8.37432 21.75 8.36264 21.75 8.35096C21.75 8.33928 21.75 8.32759 21.75 8.31589C21.75 8.30419 21.75 8.29248 21.75 8.28076C21.75 8.26904 21.75 8.25731 21.75 8.24557C21.75 8.23383 21.75 8.22208 21.75 8.21032C21.75 8.19856 21.75 8.18679 21.75 8.17501C21.75 8.16323 21.75 8.15144 21.75 8.13964C21.75 8.12784 21.75 8.11603 21.75 8.10421C21.75 8.09239 21.75 8.08057 21.75 8.06873C21.75 8.05689 21.75 8.04504 21.75 8.03318C21.75 8.02132 21.75 8.00945 21.75 7.99758C21.75 7.9857 21.75 7.97381 21.75 7.96191C21.75 7.95001 21.75 7.9381 21.75 7.92618C21.75 7.91427 21.75 7.90234 21.75 7.8904C21.75 7.87846 21.75 7.86651 21.75 7.85455C21.75 7.84259 21.75 7.83062 21.75 7.81864C21.75 7.80667 21.75 7.79468 21.75 7.78268C21.75 7.77068 21.75 7.75867 21.75 7.74665C21.75 7.73463 21.75 7.7226 21.75 7.71056C21.75 7.69851 21.75 7.68646 21.75 7.6744C21.75 7.66234 21.75 7.65027 21.75 7.63819C21.75 7.62611 21.75 7.61401 21.75 7.60191C21.75 7.58981 21.75 7.5777 21.75 7.56557C21.75 7.55345 21.75 7.54132 21.75 7.52917C21.75 7.51703 21.75 7.50487 21.75 7.49271C21.75 7.48054 21.75 7.46837 21.75 7.45618C21.75 7.444 21.75 7.4318 21.75 7.41959C21.75 7.40739 21.75 7.39517 21.75 7.38294C21.75 7.37071 21.75 7.35847 21.75 7.34623C21.75 7.33398 21.75 7.32172 21.75 7.30945C21.75 7.29718 21.75 7.2849 21.75 7.2726C21.75 7.26031 21.75 7.24801 21.75 7.2357C21.75 7.22338 21.75 7.21106 21.75 7.19873C21.75 7.18639 21.75 7.17405 21.75 7.16169C21.75 7.14933 21.75 7.13697 21.75 7.12459C21.75 7.11221 21.75 7.09982 21.75 7.08743C21.75 7.07503 21.75 7.06262 21.75 7.0502C21.75 7.03778 21.75 7.02534 21.75 7.0129C21.75 7.00046 21.75 6.98801 21.75 6.97554C21.75 6.96308 21.75 6.9506 21.75 6.93812C21.75 6.92563 21.75 6.91313 21.75 6.90063C21.75 6.88812 21.75 6.8756 21.75 6.86307C21.75 6.85054 21.75 6.838 21.75 6.82545C21.75 6.81289 21.75 6.80033 21.75 6.78776C21.75 6.77518 21.75 6.7626 21.75 6.75H21Z" fill="currentColor" />
    <path d="M5.55078 6.75L17.9147 2.24989C18.5267 3.93127 19.062 5.40193 19.5526 6.75" stroke="currentColor" stroke-width="2" stroke-linecap="round" stroke-linejoin="round" />
    <path d="M10 15L11 16H16M18 16H16M16 16L13 13" stroke="currentColor" stroke-width="2" stroke-linecap="square" />
</svg>