<svg xmlns="http://www.w3.org/2000/svg" width="24" height="24" viewBox="0 0 24 24" fill="none">
    <path d="M18 9L13 15L11 13" stroke="currentColor" stroke-width="2" stroke-linecap="square" />
    <path d="M2.00995 3.5C2.00443 3.5 1.99997 3.50452 2 3.51007L2.03568 9.51469C3.16002 9.51469 3.95065 9.59325 4.71481 10.8527C5.2719 11.7709 4.99307 12.9433 4.3941 13.6459C4.11054 13.9785 3.73745 14.2475 3.3214 14.3771C3.01936 14.4712 2.59872 14.5379 2.03568 14.5177V20.49C2.03568 20.4955 2.04014 20.5 2.04563 20.5H21.9563C21.9618 20.5 21.9663 20.4955 21.9663 20.49V9.51469L22.002 3.51007C22.002 3.50452 21.9975 3.5 21.992 3.5H2.00995Z" stroke="currentColor" stroke-width="2" />
</svg>