<svg xmlns="http://www.w3.org/2000/svg" width="24" height="24" viewBox="0 0 24 24" fill="none">
    <path d="M2.00995 3.5C2.00443 3.5 1.99997 3.50452 2 3.51007L2.03568 9.51469C3.16002 9.51469 3.95065 9.59325 4.71481 10.8527C5.2719 11.7709 4.99307 12.9433 4.3941 13.6459C4.11054 13.9785 3.73745 14.2475 3.3214 14.3771C3.01936 14.4712 2.59872 14.5379 2.03568 14.5177V20.49C2.03568 20.4955 2.04014 20.5 2.04563 20.5H21.9563C21.9618 20.5 21.9663 20.4955 21.9663 20.49V9.51469L22.002 3.51007C22.002 3.50452 21.9975 3.5 21.992 3.5H2.00995Z" stroke="currentColor" stroke-width="2" />
    <path d="M18 9L12 15" stroke="currentColor" stroke-width="2" stroke-linecap="square" stroke-linejoin="round" />
    <path d="M12.375 9.25H12.25M12.5 9.25C12.5 9.38807 12.3881 9.5 12.25 9.5C12.1119 9.5 12 9.38807 12 9.25C12 9.11193 12.1119 9 12.25 9C12.3881 9 12.5 9.11193 12.5 9.25Z" stroke="currentColor" stroke-width="2" stroke-linecap="round" stroke-linejoin="round" />
    <path d="M17.875 14.75H17.75M18 14.75C18 14.8881 17.8881 15 17.75 15C17.6119 15 17.5 14.8881 17.5 14.75C17.5 14.6119 17.6119 14.5 17.75 14.5C17.8881 14.5 18 14.6119 18 14.75Z" stroke="currentColor" stroke-width="2" stroke-linecap="round" stroke-linejoin="round" />
</svg>