<svg xmlns="http://www.w3.org/2000/svg" width="24" height="24" viewBox="0 0 24 24" fill="none">
    <path d="M20.2414 10.6252C20.7222 9.84302 21 8.91836 21 7.92761C21 5.11556 18.7615 2.83594 16 2.83594C14.1493 2.83594 12.5335 3.85987 11.6689 5.38177" stroke="currentColor" stroke-width="2" stroke-linecap="square" />
    <path d="M3 19.1291V10.9824H21V19.1291C21 20.2539 20.1046 21.1658 19 21.1658H5C3.89543 21.1658 3 20.2539 3 19.1291Z" stroke="currentColor" stroke-width="2" stroke-linecap="square" />
    <path d="M10 15.0547H14" stroke="currentColor" stroke-width="2" stroke-linecap="square" />
    <path d="M13.5104 10.5695L13.335 10.1564C13.2474 9.94999 13.2565 9.71349 13.3595 9.51989L14.9144 6.59747C15.1776 6.10273 14.7982 5.48558 14.2636 5.53902L11.1099 5.85432C10.9004 5.87526 10.692 5.78776 10.5492 5.6189L8.39732 3.07491C8.03241 2.64349 7.37203 2.82539 7.26584 3.38656L6.63969 6.69573C6.59813 6.91538 6.46021 7.09827 6.26863 7.18779L3.38401 8.53572C2.89509 8.76418 2.86669 9.49366 3.33529 9.78682L4.58632 10.5695" stroke="currentColor" stroke-width="2" stroke-linecap="square" />
</svg>