<svg xmlns="http://www.w3.org/2000/svg" width="24" height="24" viewBox="0 0 24 24" fill="none">
    <path d="M17 16.5C17 12.3411 13.6667 9.22185 12 8.18212C12.5 7.66225 13.9663 7.26343 15.5 7.66236C17.0337 8.06127 19 9.74172 19 12.3411C19 14.4205 17.6667 15.9801 17 16.5Z" stroke="currentColor" stroke-width="2" stroke-linecap="square" />
    <path d="M12.5 7.74196C15.9548 6.09122 19.5692 7.02307 21 7.5C21 6.33333 20.1 3.5 16.5 3.5C13.2665 3.5 12.2112 5.92028 12.0299 7.5" stroke="currentColor" stroke-width="2" stroke-linecap="square" />
    <path d="M6.5 2.5C4.1 2.5 3 4 3 5C4.83333 5.16667 9.2 5.9 12 7.5C11.5 5.5 10 2.5 6.5 2.5Z" stroke="currentColor" stroke-width="2" stroke-linecap="square" />
    <path d="M13 9.5C12.8333 12.3333 12.5 16.5 11 21.5" stroke="currentColor" stroke-width="2" stroke-linecap="square" />
    <path d="M9.5 12.5C9 14.1667 7.4 18.3 5 21.5" stroke="currentColor" stroke-width="2" stroke-linecap="square" />
    <path d="M8.5 6.5C10.5 6.5 11.5 7.5 12 8C7 9.5 5.5 12 4.5 14.5C4 14 3.5 13 3.5 11.5C3.5 8 7 6.5 8.5 6.5Z" stroke="currentColor" stroke-width="2" stroke-linecap="square" />
</svg>