<svg xmlns="http://www.w3.org/2000/svg" width="24" height="24" viewBox="0 0 24 24" fill="none">
    <path d="M18.5 6V12L15.5 13.5" stroke="currentColor" stroke-width="2" stroke-linecap="square" />
    <path d="M12.125 12H12M12.25 12C12.25 11.8619 12.1381 11.75 12 11.75C11.8619 11.75 11.75 11.8619 11.75 12C11.75 12.1381 11.8619 12.25 12 12.25C12.1381 12.25 12.25 12.1381 12.25 12Z" stroke="currentColor" stroke-width="2" stroke-linecap="round" stroke-linejoin="round" />
    <path d="M16 16.4722C14.9385 17.4223 13.5367 18 12 18C8.68629 18 6 15.3137 6 12C6 8.68629 8.68629 6 12 6C13.2267 6 14.3675 6.36815 15.3178 7" stroke="currentColor" stroke-width="2" stroke-linecap="square" />
    <path d="M3 21H21V3H3V21Z" stroke="currentColor" stroke-width="2" stroke-linejoin="round" />
</svg>