<svg xmlns="http://www.w3.org/2000/svg" width="24" height="24" viewBox="0 0 24 24" fill="none">
    <path opacity="0.4" d="M13.2676 17.623C13.2552 17.4779 13.2515 17.3124 13.2505 17.1333C11.1482 17.8814 8.84976 17.8807 6.74763 17.1318C6.74646 17.3124 6.74479 17.4794 6.73201 17.626C6.71215 17.8537 6.66618 18.1026 6.53279 18.3447C6.37304 18.6346 6.13422 18.8735 5.84431 19.0332C5.60219 19.1665 5.35321 19.2116 5.12556 19.2314C4.91229 19.25 4.65618 19.25 4.37729 19.25H4.35896H4.34389C4.02898 19.25 3.74293 19.25 3.5074 19.2285C3.25967 19.2059 2.98683 19.1543 2.7281 18.998C2.42191 18.8131 2.17929 18.5387 2.03376 18.2119C1.91088 17.9359 1.89365 17.6587 1.90193 17.4102C1.90993 17.1704 1.94603 16.8816 1.98575 16.5638L2.1976 14.8697C1.60584 14.39 1.25 13.6628 1.25 12.8818V12C1.25 11.5858 1.58579 11.25 2 11.25H4.56543C5.62507 11.25 6.67039 11.4968 7.61816 11.9707C9.1175 12.7204 10.8825 12.7204 12.3818 11.9707C13.3296 11.4968 14.3749 11.25 15.4346 11.25H16.25V10.5C16.25 8.70507 17.7051 7.25 19.5 7.25H20C21.5188 7.25 22.75 8.48122 22.75 10C22.75 11.2799 21.8745 12.3515 20.6904 12.6582C20.4285 14.1367 19.3018 15.3146 17.8506 15.6514L17.9775 16.5381L17.9797 16.553C18.0238 16.862 18.0639 17.1424 18.0762 17.376C18.0891 17.6213 18.0775 17.8962 17.9629 18.1719C17.8181 18.5201 17.5645 18.8123 17.2402 19.0049C16.9836 19.1572 16.7134 19.2076 16.4688 19.2295C16.2393 19.25 15.9613 19.25 15.6547 19.25L15.626 19.25H15.6021C15.3321 19.25 15.0837 19.25 14.877 19.2324C14.6548 19.2135 14.4116 19.1702 14.1738 19.043C13.8695 18.88 13.62 18.6305 13.457 18.3262C13.3298 18.0884 13.2865 17.8452 13.2676 17.623Z" fill="currentColor" />
    <path d="M2.51172 10H4.07804H4.56662C5.82022 10 7.05675 10.292 8.17795 10.8525C9.32538 11.4263 10.677 11.4263 11.8244 10.8525C12.8237 10.353 13.9146 10.0681 15.0276 10.0117C15.0748 9.57362 15.185 9.15436 15.3488 8.76315C15.5617 8.25473 15.8652 7.79369 16.2392 7.40023C14.8277 5.4893 12.5592 4.25 10.0012 4.25C6.41255 4.25 3.39359 6.68913 2.51172 10Z" fill="currentColor" />
</svg>