<svg xmlns="http://www.w3.org/2000/svg" width="24" height="24" viewBox="0 0 24 24" fill="none">
    <path d="M17 9C17.6254 9.81968 18 10.8634 18 12C18 13.1366 17.6254 14.1803 17 15" stroke="currentColor" stroke-width="2" stroke-linejoin="round" />
    <path d="M20 7C21.2508 8.36613 22 10.1057 22 12C22 13.8943 21.2508 15.6339 20 17" stroke="currentColor" stroke-width="2" stroke-linejoin="round" />
    <path d="M2.07031 15.5191L7.00781 15.4915L13.9688 19.9957C14.0352 20.0394 14.0116 19.9478 14.0116 19.8682V12.0113V4.14274C14.0116 4.06316 14.0352 3.97149 13.9688 4.01522L7.00781 8.51944L2.07031 8.49178C2.01508 8.49178 2 8.5346 2 8.58983V12.0084V15.4211C2 15.4763 2.01508 15.5191 2.07031 15.5191Z" stroke="currentColor" stroke-width="2" />
</svg>