<svg xmlns="http://www.w3.org/2000/svg" width="24" height="24" viewBox="0 0 24 24" fill="none">
    <path d="M2 14.1932C2.68524 15.2443 3.57104 15.2443 4.27299 14.1932C6.52985 10.7408 8.67954 16.6764 10.273 14.2321C12.703 10.5694 14.4508 16.9218 16.273 14.1932C18.6492 10.5582 20.1295 16.5776 22 14.5842" stroke="currentColor" stroke-width="2" stroke-linecap="square" />
    <path d="M2 20.1932C2.68524 21.2443 3.57104 21.2443 4.27299 20.1932C6.52985 16.7408 8.67954 22.6764 10.273 20.2321C12.703 16.5694 14.4508 22.9218 16.273 20.1932C18.6492 16.5582 20.1295 22.5776 22 20.5842" stroke="currentColor" stroke-width="2" stroke-linecap="square" />
    <path d="M11.25 8V8.75H12.75V8H12H11.25ZM12.75 3V2.25H11.25V3H12H12.75ZM9.53033 5.46967L9 4.93934L7.93934 6L8.46967 6.53033L9 6L9.53033 5.46967ZM12 9L11.4697 9.53033L12 10.0607L12.5303 9.53033L12 9ZM15.5303 6.53033L16.0607 6L15 4.93934L14.4697 5.46967L15 6L15.5303 6.53033ZM12 8H12.75V3H12H11.25V8H12ZM9 6L8.46967 6.53033L11.4697 9.53033L12 9L12.5303 8.46967L9.53033 5.46967L9 6ZM12 9L12.5303 9.53033L15.5303 6.53033L15 6L14.4697 5.46967L11.4697 8.46967L12 9Z" fill="currentColor" />
</svg>