<svg xmlns="http://www.w3.org/2000/svg" width="24" height="24" viewBox="0 0 24 24" fill="none">
    <path d="M14.3498 9.65091L3 21M19.67 8.58588C17.5419 10.7138 14.3498 9.64986 14.3498 9.64986C14.3498 9.64986 13.2857 6.45793 15.4138 4.32997C17.5419 2.20202 20.734 3.26599 20.734 3.26599C20.734 3.26599 21.798 6.45793 19.67 8.58588ZM15.7685 15.6803C12.931 15.6803 11.5123 12.843 11.5123 12.843C11.5123 12.843 12.931 10.0057 15.7685 10.0057C18.6059 10.0057 20.0246 12.843 20.0246 12.843C20.0246 12.843 18.6059 15.6803 15.7685 15.6803ZM8.3202 8.23242C8.3202 11.0697 11.1576 12.4883 11.1576 12.4883C11.1576 12.4883 13.9951 11.0697 13.9951 8.23242C13.9951 5.39515 11.1576 3.97651 11.1576 3.97651C11.1576 3.97651 8.3202 5.39515 8.3202 8.23242ZM11.1576 20.2903C8.3202 20.2903 6.90148 17.4531 6.90148 17.4531C6.90148 17.4531 8.3202 14.6158 11.1576 14.6158C13.9951 14.6158 15.4138 17.4531 15.4138 17.4531C15.4138 17.4531 13.9951 20.2903 11.1576 20.2903ZM3.70936 12.8425C3.70936 15.6798 6.5468 17.0984 6.5468 17.0984C6.5468 17.0984 9.38424 15.6798 9.38424 12.8425C9.38424 10.0052 6.5468 8.58659 6.5468 8.58659C6.5468 8.58659 3.70936 10.0052 3.70936 12.8425Z" stroke="currentColor" stroke-width="2" stroke-linecap="square" />
</svg>