<svg xmlns="http://www.w3.org/2000/svg" width="24" height="24" viewBox="0 0 24 24" fill="none">
    <path d="M1.5 7.26064L0.940983 7.76064L1.94098 8.87868L2.5 8.37868L2 7.81966L1.5 7.26064ZM12 4.75H12.75V3.25H12V4V4.75ZM4.475 11.3231L3.93939 11.8481L4.98939 12.9193L5.525 12.3943L5 11.8587L4.475 11.3231ZM12 9.75009H12.75V8.25009H12V9.00009V9.75009ZM7.975 14.8931L7.43939 15.4181L8.48939 16.4893L9.025 15.9643L8.5 15.4287L7.975 14.8931ZM14.975 15.9643L15.5106 16.4893L16.5606 15.4181L16.025 14.8931L15.5 15.4287L14.975 15.9643ZM12.1256 19.5C12.5398 19.5 12.8756 19.1642 12.8756 18.75C12.8756 18.3358 12.5398 18 12.1256 18V18.75V19.5ZM12.0006 18C11.5864 18 11.2506 18.3358 11.2506 18.75C11.2506 19.1642 11.5864 19.5 12.0006 19.5V18.75V18ZM2 7.81966L2.5 8.37868C5.11261 6.04189 8.49482 4.75 12 4.75V4V3.25C8.12585 3.25 4.38762 4.67788 1.5 7.26064L2 7.81966ZM5 11.8587L5.525 12.3943C7.25409 10.6994 9.57879 9.75009 12 9.75009V9.00009V8.25009C9.18616 8.25009 6.48449 9.35336 4.475 11.3231L5 11.8587ZM8.5 15.4287L9.025 15.9643C9.81945 15.1856 10.8876 14.7494 12 14.7494V13.9994V13.2494C10.4949 13.2494 9.04984 13.8395 7.975 14.8931L8.5 15.4287ZM12 13.9994V14.7494C13.1124 14.7494 14.1806 15.1856 14.975 15.9643L15.5 15.4287L16.025 14.8931C14.9502 13.8395 13.5051 13.2494 12 13.2494V13.9994ZM12.2506 18.75H11.5006C11.5006 18.4739 11.7244 18.25 12.0006 18.25V19V19.75C12.5529 19.75 13.0006 19.3023 13.0006 18.75H12.2506ZM12.0006 19V18.25C12.2767 18.25 12.5006 18.4739 12.5006 18.75H11.7506H11.0006C11.0006 19.3023 11.4483 19.75 12.0006 19.75V19ZM11.7506 18.75H12.5006C12.5006 19.0261 12.2767 19.25 12.0006 19.25V18.5V17.75C11.4483 17.75 11.0006 18.1977 11.0006 18.75H11.7506ZM12.0006 18.5V19.25C11.7244 19.25 11.5006 19.0261 11.5006 18.75H12.2506H13.0006C13.0006 18.1977 12.5529 17.75 12.0006 17.75V18.5ZM12.1256 18.75V18H12.0006V18.75V19.5H12.1256V18.75Z" fill="currentColor" />
    <path d="M16 4L22 10M22 4L16 10" stroke="currentColor" stroke-width="2" stroke-linecap="square" />
</svg>