<svg xmlns="http://www.w3.org/2000/svg" width="24" height="24" viewBox="0 0 24 24" fill="none">
    <path d="M1.5 7.76066L0.940983 8.26066L1.94098 9.37869L2.5 8.87869L2 8.31967L1.5 7.76066ZM21.5 8.87869L22.059 9.37869L23.059 8.26066L22.5 7.76066L22 8.31967L21.5 8.87869ZM4.475 11.8231L3.93939 12.3481L4.98939 13.4193L5.525 12.8943L5 12.3587L4.475 11.8231ZM18.475 12.8943L19.0106 13.4193L20.0606 12.3481L19.525 11.8231L19 12.3587L18.475 12.8943ZM7.975 15.3931L7.43939 15.9181L8.48939 16.9893L9.025 16.4643L8.5 15.9287L7.975 15.3931ZM14.975 16.4643L15.5106 16.9893L16.5606 15.9181L16.025 15.3931L15.5 15.9287L14.975 16.4643ZM12.1256 20C12.5398 20 12.8756 19.6642 12.8756 19.25C12.8756 18.8358 12.5398 18.5 12.1256 18.5V19.25V20ZM12.0006 18.5C11.5864 18.5 11.2506 18.8358 11.2506 19.25C11.2506 19.6642 11.5864 20 12.0006 20V19.25V18.5ZM15.15 4.06819L14.4152 3.91818L14.1151 5.38787L14.85 5.53788L15 4.80304L15.15 4.06819ZM15.45 14.8994L14.85 14.4494L13.95 15.6494L14.55 16.0994L15 15.4994L15.45 14.8994ZM9.45001 16.0994L10.05 15.6494L9.14999 14.4494L8.54999 14.8994L9 15.4994L9.45001 16.0994ZM9.22502 10.6761L9.94047 10.4511L9.49043 9.02023L8.77498 9.24525L9 9.9607L9.22502 10.6761ZM9.15001 5.53788L9.88485 5.38787L9.58483 3.91818L8.84999 4.06819L9 4.80304L9.15001 5.53788ZM15.225 9.24525L14.5096 9.02023L14.0595 10.4511L14.775 10.6761L15 9.9607L15.225 9.24525ZM12.2506 19.25H11.5006C11.5006 18.9739 11.7244 18.75 12.0006 18.75V19.5V20.25C12.5529 20.25 13.0006 19.8023 13.0006 19.25H12.2506ZM12.0006 19.5V18.75C12.2767 18.75 12.5006 18.9739 12.5006 19.25H11.7506H11.0006C11.0006 19.8023 11.4483 20.25 12.0006 20.25V19.5ZM11.7506 19.25H12.5006C12.5006 19.5262 12.2767 19.75 12.0006 19.75V19V18.25C11.4483 18.25 11.0006 18.6977 11.0006 19.25H11.7506ZM12.0006 19V19.75C11.7244 19.75 11.5006 19.5262 11.5006 19.25H12.2506H13.0006C13.0006 18.6977 12.5529 18.25 12.0006 18.25V19ZM12.1256 19.25V18.5H12.0006V19.25V20H12.1256V19.25ZM15 4.80304L14.85 5.53788C17.307 6.03945 19.6058 7.18444 21.5 8.87869L22 8.31967L22.5 7.76066C20.4063 5.88803 17.8655 4.62254 15.15 4.06819L15 4.80304ZM15 15.4994L14.55 16.0994C14.6987 16.2109 14.8407 16.3327 14.975 16.4643L15.5 15.9287L16.025 15.3931C15.8434 15.2151 15.6513 15.0503 15.45 14.8994L15 15.4994ZM8.5 15.9287L9.025 16.4643C9.15925 16.3327 9.30129 16.2109 9.45001 16.0994L9 15.4994L8.54999 14.8994C8.34874 15.0503 8.15657 15.2151 7.975 15.3931L8.5 15.9287ZM5 12.3587L5.525 12.8943C6.57572 11.8644 7.84635 11.1098 9.22502 10.6761L9 9.9607L8.77498 9.24525C7.17287 9.74913 5.69613 10.6261 4.475 11.8231L5 12.3587ZM2 8.31967L2.5 8.87869C4.39423 7.18444 6.69305 6.03945 9.15001 5.53788L9 4.80304L8.84999 4.06819C6.13447 4.62254 3.59366 5.88803 1.5 7.76066L2 8.31967ZM15 9.9607L14.775 10.6761C16.1536 11.1098 17.4243 11.8644 18.475 12.8943L19 12.3587L19.525 11.8231C18.3039 10.6261 16.8271 9.74913 15.225 9.24525L15 9.9607Z" fill="currentColor" />
    <path d="M12 15.5V4.5" stroke="currentColor" stroke-width="2" stroke-linecap="square" />
</svg>