<svg xmlns="http://www.w3.org/2000/svg" width="24" height="24" viewBox="0 0 24 24" fill="none">
    <path d="M1.5 7.76064L0.940983 8.26064L1.94098 9.37868L2.5 8.87868L2 8.31966L1.5 7.76064ZM12 5.25H12.75V3.75H12V4.5V5.25ZM4.475 11.8231L3.93939 12.3481L4.98939 13.4193L5.525 12.8943L5 12.3587L4.475 11.8231ZM12 10.2501H12.75V8.75009H12V9.50009V10.2501ZM7.975 15.3931L7.43939 15.9181L8.48939 16.9893L9.025 16.4643L8.5 15.9287L7.975 15.3931ZM14.975 16.4643L15.5106 16.9893L16.5606 15.9181L16.025 15.3931L15.5 15.9287L14.975 16.4643ZM12.1256 20C12.5398 20 12.8756 19.6642 12.8756 19.25C12.8756 18.8358 12.5398 18.5 12.1256 18.5V19.25V20ZM12.0006 18.5C11.5864 18.5 11.2506 18.8358 11.2506 19.25C11.2506 19.6642 11.5864 20 12.0006 20V19.25V18.5ZM2 8.31966L2.5 8.87868C5.11261 6.54189 8.49482 5.25 12 5.25V4.5V3.75C8.12585 3.75 4.38762 5.17788 1.5 7.76064L2 8.31966ZM5 12.3587L5.525 12.8943C7.25409 11.1994 9.57879 10.2501 12 10.2501V9.50009V8.75009C9.18616 8.75009 6.48449 9.85336 4.475 11.8231L5 12.3587ZM8.5 15.9287L9.025 16.4643C9.81945 15.6856 10.8876 15.2494 12 15.2494V14.4994V13.7494C10.4949 13.7494 9.04984 14.3395 7.975 15.3931L8.5 15.9287ZM12 14.4994V15.2494C13.1124 15.2494 14.1806 15.6856 14.975 16.4643L15.5 15.9287L16.025 15.3931C14.9502 14.3395 13.5051 13.7494 12 13.7494V14.4994ZM12.2506 19.25H11.5006C11.5006 18.9739 11.7244 18.75 12.0006 18.75V19.5V20.25C12.5529 20.25 13.0006 19.8023 13.0006 19.25H12.2506ZM12.0006 19.5V18.75C12.2767 18.75 12.5006 18.9739 12.5006 19.25H11.7506H11.0006C11.0006 19.8023 11.4483 20.25 12.0006 20.25V19.5ZM11.7506 19.25H12.5006C12.5006 19.5261 12.2767 19.75 12.0006 19.75V19V18.25C11.4483 18.25 11.0006 18.6977 11.0006 19.25H11.7506ZM12.0006 19V19.75C11.7244 19.75 11.5006 19.5261 11.5006 19.25H12.2506H13.0006C13.0006 18.6977 12.5529 18.25 12.0006 18.25V19ZM12.1256 19.25V18.5H12.0006V19.25V20H12.1256V19.25Z" fill="currentColor" />
    <path d="M15 7.5L17 9.5L22 4.5" stroke="currentColor" stroke-width="2" stroke-linecap="square" />
</svg>