<svg xmlns="http://www.w3.org/2000/svg" width="24" height="24" viewBox="0 0 24 24" fill="none">
    <path d="M4.475 11.8231L3.93939 12.3481L4.98939 13.4193L5.525 12.8943L5 12.3587L4.475 11.8231ZM18.475 12.8943L19.0106 13.4193L20.0606 12.3481L19.525 11.8231L19 12.3587L18.475 12.8943ZM7.975 15.3931L7.43939 15.9181L8.48939 16.9893L9.025 16.4643L8.5 15.9287L7.975 15.3931ZM14.975 16.4643L15.5106 16.9893L16.5606 15.9181L16.025 15.3931L15.5 15.9287L14.975 16.4643ZM12.1256 20C12.5398 20 12.8756 19.6642 12.8756 19.25C12.8756 18.8358 12.5398 18.5 12.1256 18.5V19.25V20ZM12.0006 18.5C11.5864 18.5 11.2506 18.8358 11.2506 19.25C11.2506 19.6642 11.5864 20 12.0006 20V19.25V18.5ZM5 12.3587L5.525 12.8943C7.25409 11.1995 9.57879 10.2501 12 10.2501V9.50012V8.75012C9.18616 8.75012 6.48449 9.8534 4.475 11.8231L5 12.3587ZM12 9.50012V10.2501C14.4212 10.2501 16.7459 11.1995 18.475 12.8943L19 12.3587L19.525 11.8231C17.5155 9.8534 14.8138 8.75012 12 8.75012V9.50012ZM8.5 15.9287L9.025 16.4643C9.81945 15.6856 10.8876 15.2494 12 15.2494V14.4994V13.7494C10.4949 13.7494 9.04984 14.3395 7.975 15.3931L8.5 15.9287ZM12 14.4994V15.2494C13.1124 15.2494 14.1806 15.6856 14.975 16.4643L15.5 15.9287L16.025 15.3931C14.9502 14.3395 13.5051 13.7494 12 13.7494V14.4994ZM12.2506 19.25H11.5006C11.5006 18.9739 11.7244 18.75 12.0006 18.75V19.5V20.25C12.5529 20.25 13.0006 19.8023 13.0006 19.25H12.2506ZM12.0006 19.5V18.75C12.2767 18.75 12.5006 18.9739 12.5006 19.25H11.7506H11.0006C11.0006 19.8023 11.4483 20.25 12.0006 20.25V19.5ZM11.7506 19.25H12.5006C12.5006 19.5262 12.2767 19.75 12.0006 19.75V19V18.25C11.4483 18.25 11.0006 18.6978 11.0006 19.25H11.7506ZM12.0006 19V19.75C11.7244 19.75 11.5006 19.5262 11.5006 19.25H12.2506H13.0006C13.0006 18.6978 12.5529 18.25 12.0006 18.25V19ZM12.1256 19.25V18.5H12.0006V19.25V20H12.1256V19.25Z" fill="currentColor" />
</svg>