<svg xmlns="http://www.w3.org/2000/svg" width="24" height="24" viewBox="0 0 24 24" fill="none">
    <path d="M7.975 15.3937L7.43939 15.9187L8.48939 16.9899L9.025 16.4649L8.5 15.9293L7.975 15.3937ZM14.975 16.4649L15.5106 16.9899L16.5606 15.9187L16.025 15.3937L15.5 15.9293L14.975 16.4649ZM12.1256 20.0006C12.5398 20.0006 12.8756 19.6648 12.8756 19.2506C12.8756 18.8364 12.5398 18.5006 12.1256 18.5006V19.2506V20.0006ZM12.0006 18.5006C11.5864 18.5006 11.2506 18.8364 11.2506 19.2506C11.2506 19.6648 11.5864 20.0006 12.0006 20.0006V19.2506V18.5006ZM8.5 15.9293L9.025 16.4649C9.81945 15.6862 10.8876 15.25 12 15.25V14.5V13.75C10.4949 13.75 9.04984 14.3401 7.975 15.3937L8.5 15.9293ZM12 14.5V15.25C13.1124 15.25 14.1806 15.6862 14.975 16.4649L15.5 15.9293L16.025 15.3937C14.9502 14.3401 13.5051 13.75 12 13.75V14.5ZM12.2506 19.2506H11.5006C11.5006 18.9745 11.7244 18.7506 12.0006 18.7506V19.5006V20.2506C12.5529 20.2506 13.0006 19.8029 13.0006 19.2506H12.2506ZM12.0006 19.5006V18.7506C12.2767 18.7506 12.5006 18.9745 12.5006 19.2506H11.7506H11.0006C11.0006 19.8029 11.4483 20.2506 12.0006 20.2506V19.5006ZM11.7506 19.2506H12.5006C12.5006 19.5268 12.2767 19.7506 12.0006 19.7506V19.0006V18.2506C11.4483 18.2506 11.0006 18.6983 11.0006 19.2506H11.7506ZM12.0006 19.0006V19.7506C11.7244 19.7506 11.5006 19.5268 11.5006 19.2506H12.2506H13.0006C13.0006 18.6983 12.5529 18.2506 12.0006 18.2506V19.0006ZM12.1256 19.2506V18.5006H12.0006V19.2506V20.0006H12.1256V19.2506Z" fill="currentColor" />
</svg>