<svg xmlns="http://www.w3.org/2000/svg" width="24" height="24" viewBox="0 0 24 24" fill="none">
    <path d="M1.5 8.26064L0.940983 8.76064L1.94098 9.87868L2.5 9.37868L2 8.81966L1.5 8.26064ZM21.5 9.37868L22.059 9.87868L23.059 8.76064L22.5 8.26064L22 8.81966L21.5 9.37868ZM4.475 12.3231L3.93939 12.8481L4.98939 13.9193L5.525 13.3943L5 12.8587L4.475 12.3231ZM18.475 13.3943L19.0106 13.9193L20.0606 12.8481L19.525 12.3231L19 12.8587L18.475 13.3943ZM7.975 15.8931L7.43939 16.4181L8.48939 17.4893L9.025 16.9643L8.5 16.4287L7.975 15.8931ZM12.1256 20.5C12.5398 20.5 12.8756 20.1642 12.8756 19.75C12.8756 19.3358 12.5398 19 12.1256 19V19.75V20.5ZM12.0006 19C11.5864 19 11.2506 19.3358 11.2506 19.75C11.2506 20.1642 11.5864 20.5 12.0006 20.5V19.75V19ZM8.25233 4.70235L7.52387 4.88082L7.88082 6.33773L8.60927 6.15926L8.4308 5.4308L8.25233 4.70235ZM13.1351 9.31016L12.3893 9.23098L12.231 10.7226L12.9768 10.8018L13.056 10.056L13.1351 9.31016ZM12 5V5.75C15.5052 5.75 18.8874 7.04189 21.5 9.37868L22 8.81966L22.5 8.26064C19.6124 5.67788 15.8741 4.25 12 4.25V5ZM8.5 16.4287L9.025 16.9643C9.81945 16.1856 10.8876 15.7494 12 15.7494V14.9994V14.2494C10.4949 14.2494 9.04984 14.8395 7.975 15.8931L8.5 16.4287ZM12.2506 19.75H11.5006C11.5006 19.4739 11.7244 19.25 12.0006 19.25V20V20.75C12.5529 20.75 13.0006 20.3023 13.0006 19.75H12.2506ZM12.0006 20V19.25C12.2767 19.25 12.5006 19.4739 12.5006 19.75H11.7506H11.0006C11.0006 20.3023 11.4483 20.75 12.0006 20.75V20ZM11.7506 19.75H12.5006C12.5006 20.0261 12.2767 20.25 12.0006 20.25V19.5V18.75C11.4483 18.75 11.0006 19.1977 11.0006 19.75H11.7506ZM12.0006 19.5V20.25C11.7244 20.25 11.5006 20.0261 11.5006 19.75H12.2506H13.0006C13.0006 19.1977 12.5529 18.75 12.0006 18.75V19.5ZM12.1256 19.75V19H12.0006V19.75V20.5H12.1256V19.75ZM8.4308 5.4308L8.60927 6.15926C9.71097 5.88934 10.8488 5.75 12 5.75V5V4.25C10.7277 4.25 9.47003 4.404 8.25233 4.70235L8.4308 5.4308ZM13.056 10.056L12.9768 10.8018C15.0397 11.0208 16.98 11.9289 18.475 13.3943L19 12.8587L19.525 12.3231C17.7875 10.62 15.5326 9.56468 13.1351 9.31016L13.056 10.056ZM2 8.81966L2.5 9.37868C3.50313 8.48145 4.61969 7.73828 5.81311 7.16313L5.4875 6.4875L5.16189 5.81187C3.84282 6.44757 2.60869 7.269 1.5 8.26064L2 8.81966ZM5 12.8587L5.525 13.3943C6.65886 12.2829 8.04883 11.492 9.55427 11.0793L9.35595 10.3559L9.15763 9.63265C7.40819 10.1123 5.79276 11.0314 4.475 12.3231L5 12.8587ZM12 14.9994V15.7494C12.9243 15.7494 13.8181 16.0509 14.5499 16.6L15 16L15.4501 15.4C14.4603 14.6576 13.2512 14.2494 12 14.2494V14.9994Z" fill="currentColor" />
    <path d="M3 4L19 20" stroke="currentColor" stroke-width="2" stroke-linecap="square" />
</svg>