<svg xmlns="http://www.w3.org/2000/svg" width="24" height="24" viewBox="0 0 24 24" fill="none">
    <path d="M1.5 6.26064L0.940983 6.76064L1.94098 7.87868L2.5 7.37868L2 6.81966L1.5 6.26064ZM21.5 7.37868L22.059 7.87868L23.059 6.76064L22.5 6.26064L22 6.81966L21.5 7.37868ZM12.1256 18.5C12.5398 18.5 12.8756 18.1642 12.8756 17.75C12.8756 17.3358 12.5398 17 12.1256 17V17.75V18.5ZM12.0006 17C11.5864 17 11.2506 17.3358 11.2506 17.75C11.2506 18.1642 11.5864 18.5 12.0006 18.5V17.75V17ZM2 6.81966L2.5 7.37868C5.11261 5.04189 8.49482 3.75 12 3.75V3V2.25C8.12585 2.25 4.38762 3.67788 1.5 6.26064L2 6.81966ZM12 3V3.75C15.5052 3.75 18.8874 5.04189 21.5 7.37868L22 6.81966L22.5 6.26064C19.6124 3.67788 15.8741 2.25 12 2.25V3ZM12.2506 17.75H11.5006C11.5006 17.4739 11.7244 17.25 12.0006 17.25V18V18.75C12.5529 18.75 13.0006 18.3023 13.0006 17.75H12.2506ZM12.0006 18V17.25C12.2767 17.25 12.5006 17.4739 12.5006 17.75H11.7506H11.0006C11.0006 18.3023 11.4483 18.75 12.0006 18.75V18ZM11.7506 17.75H12.5006C12.5006 18.0261 12.2767 18.25 12.0006 18.25V17.5V16.75C11.4483 16.75 11.0006 17.1977 11.0006 17.75H11.7506ZM12.0006 17.5V18.25C11.7244 18.25 11.5006 18.0261 11.5006 17.75H12.2506H13.0006C13.0006 17.1977 12.5529 16.75 12.0006 16.75V17.5ZM12.1256 17.75V17H12.0006V17.75V18.5H12.1256V17.75Z" fill="currentColor" />
    <path d="M17 9.33984C15.4923 8.4694 13.77 8.00012 12 8.00012C9.38247 8.00012 6.86929 9.02642 5 10.8587" stroke="currentColor" stroke-width="2" stroke-linecap="square" stroke-linejoin="round" />
    <path d="M13 12.101C12.6733 12.0343 12.3384 12 12 12C10.6912 12 9.43464 12.5132 8.5 13.4293" stroke="currentColor" stroke-width="2" stroke-linecap="square" stroke-linejoin="round" />
    <path d="M20.6709 15.7593C20.8803 16.1249 21 16.5485 21 17C21 17.4514 20.8804 17.8749 20.671 18.2404C20.2402 18.993 19.4293 19.5 18.5 19.5M16.3291 15.7593C16.1197 16.1249 16 16.5485 16 17C16 17.4514 16.1196 17.8749 16.329 18.2404C16.7598 18.993 17.5707 19.5 18.5 19.5M18.5 19.5L18.5 21M18.5 14.5C19.4292 14.5 20.24 15.0069 20.6709 15.7593M18.5 14.5C17.5708 14.5 16.76 15.0069 16.3291 15.7593M18.5 14.5L18.5 13M22 14.9998L20.6709 15.7593M15 18.9998L16.329 18.2404M22 18.9998L20.671 18.2404M15 14.9998L16.3291 15.7593" stroke="currentColor" stroke-width="2" stroke-linecap="square" stroke-linejoin="round" />
</svg>