<svg xmlns="http://www.w3.org/2000/svg" width="24" height="24" viewBox="0 0 24 24" fill="none">
    <path d="M16 20.125C16 21.5057 17.1193 22.625 18.5 22.625C19.8807 22.625 21 21.5057 21 20.125C21 18.7443 19.8807 17.625 18.5 17.625C17.1193 17.625 16 18.7443 16 20.125Z" fill="currentColor" />
    <path d="M8 20.125C8 21.5057 6.88071 22.625 5.5 22.625C4.11929 22.625 3 21.5057 3 20.125C3 18.7443 4.11929 17.625 5.5 17.625C6.88071 17.625 8 18.7443 8 20.125Z" fill="currentColor" />
    <path fill-rule="evenodd" clip-rule="evenodd" d="M1.01855 7.93555C1.12328 7.39343 1.6473 7.03902 2.18945 7.14355C2.62374 7.22738 3.07274 7.46464 3.28516 7.57715C4.36589 8.13984 5.04218 9.11721 5.55664 9.94043C5.67468 10.1293 5.78433 10.31 5.88867 10.4814C6.28361 11.1303 6.60348 11.6562 7.02051 12.0674C7.14831 12.1731 7.4741 12.4134 7.75781 12.5312C7.97776 12.6297 8.17716 12.7036 8.40332 12.7881C8.54919 12.8426 8.70659 12.9016 8.8877 12.9736C9.70708 13.2995 10.7731 13.8155 11.2676 15.1045C11.5013 15.7139 11.5009 16.3963 11.5 17.2461V18.1797C11.5001 18.6036 11.5007 19.0156 11.4551 19.3555C11.4036 19.7387 11.2773 20.1758 10.9141 20.5391C10.5508 20.9023 10.1137 21.0286 9.73047 21.0801C9.62164 21.0947 9.50537 21.1038 9.38369 21.1099C9.24994 21.1166 9.1509 20.9891 9.17717 20.8578C9.22458 20.6208 9.25 20.3759 9.25 20.125C9.25 18.0539 7.57107 16.375 5.5 16.375C3.42893 16.375 1.75 18.0539 1.75 20.125C1.75 20.3656 1.77318 20.6009 1.81681 20.8288C1.84344 20.968 1.72872 21.097 1.59893 21.0402C1.24639 20.8859 1 20.5345 1 20.125V13.125C1.0001 12.5729 1.44786 12.1251 2 12.125H4.18623C4.3445 12.125 4.44061 11.9495 4.3573 11.8149C4.27374 11.68 4.19338 11.5475 4.11621 11.4199C4.02723 11.2728 3.94218 11.1319 3.86035 11.001C3.35659 10.1949 2.92231 9.64333 2.3623 9.35156C2.21554 9.2651 1.95242 9.15997 1.82548 9.11292C1.81549 9.10922 1.80522 9.10644 1.79479 9.10425C1.26146 8.99253 0.914907 8.47254 1.01855 7.93555Z" fill="currentColor" />
    <path fill-rule="evenodd" clip-rule="evenodd" d="M21.8106 7.14332C22.3529 7.03866 22.8778 7.39307 22.9825 7.93531C23.0862 8.47231 22.7387 8.99231 22.2053 9.10401C22.1949 9.1062 22.1846 9.10899 22.1746 9.11269C22.0476 9.15982 21.7854 9.26495 21.6388 9.35133C21.0785 9.64303 20.6437 10.1944 20.1397 11.0007C20.0579 11.1317 19.9729 11.2725 19.8839 11.4197C19.8068 11.5472 19.7267 11.6796 19.6435 11.8145C19.5604 11.9492 19.6566 12.1248 19.8148 12.1248H22.0001C22.5523 12.1248 23 12.5726 23.0001 13.1248V20.1248C23.0001 20.5349 22.7532 20.8866 22.3999 21.0405C22.2701 21.0971 22.1557 20.9681 22.1825 20.829C22.2264 20.601 22.2501 20.3656 22.2501 20.1248C22.2501 18.0537 20.5712 16.3748 18.5001 16.3748C16.429 16.3748 14.7501 18.0537 14.7501 20.1248C14.7501 20.3756 14.775 20.6206 14.8221 20.8575C14.8483 20.9889 14.7492 21.1163 14.6154 21.1096C14.4941 21.1036 14.3781 21.0944 14.2696 21.0798C13.8865 21.0283 13.4492 20.902 13.086 20.5388C12.723 20.1757 12.5975 19.7384 12.546 19.3552C12.5003 19.0154 12.5 18.6034 12.5001 18.1795V17.2459C12.4992 16.3962 12.4988 15.7137 12.7325 15.1043C13.227 13.8152 14.294 13.2993 15.1134 12.9734C15.2943 12.9015 15.451 12.8423 15.5968 12.7879C15.8229 12.7034 16.0224 12.6294 16.2423 12.531C16.5263 12.4131 16.853 12.1727 16.9806 12.0671C17.3976 11.656 17.7165 11.1301 18.1114 10.4812C18.2158 10.3097 18.3264 10.1291 18.4444 9.9402C18.9589 9.11704 19.6343 8.13955 20.7149 7.57691C20.9272 7.46448 21.3762 7.22721 21.8106 7.14332Z" fill="currentColor" />
    <path fill-rule="evenodd" clip-rule="evenodd" d="M12.5244 1.38184C13.0725 1.44985 13.2582 1.9385 13.3047 2.06543C13.3674 2.23676 13.4172 2.46173 13.4629 2.66895L13.9092 4.68848C13.9817 5.01637 14.0179 5.18078 14.1436 5.24512C14.2692 5.30943 14.4238 5.24228 14.7324 5.10938L16 4.56348C16.1671 4.49139 16.3602 4.40894 16.5244 4.36426C16.6717 4.32421 17.1208 4.22072 17.4814 4.57422C17.8403 4.92611 17.7488 5.37607 17.7129 5.52344C17.6726 5.68881 17.5951 5.8839 17.5273 6.05372L16.707 8.00391C16.4702 8.56667 16.2701 9.04372 16.0625 9.41797C15.8417 9.8161 15.5814 10.1589 15.1943 10.416C14.8073 10.6731 14.3901 10.78 13.9375 10.8291C13.8236 10.8415 13.7028 10.8496 13.5755 10.8559C13.5325 10.858 13.4956 10.8282 13.4824 10.7871L12.7139 8.39551C12.587 8.00146 12.1647 7.78458 11.7705 7.91114C11.3764 8.03791 11.1596 8.46025 11.2861 8.8545L11.7389 10.266C11.802 10.4627 11.8335 10.561 11.8164 10.6397C11.7985 10.7222 11.7466 10.7934 11.6735 10.8357C11.6038 10.876 11.5005 10.876 11.2939 10.876C10.7029 10.8765 10.2352 10.8768 9.79297 10.7227C9.35073 10.5685 8.9851 10.277 8.52246 9.90918L6.91406 8.63184C6.78821 8.5266 6.63741 8.40017 6.5293 8.2793C6.42258 8.15998 6.16052 7.83117 6.28125 7.37793C6.40239 6.92377 6.79474 6.76977 6.94726 6.71973C7.1013 6.66926 7.29494 6.63537 7.45605 6.60743C7.80448 6.54674 7.97848 6.51614 8.04785 6.38965C8.05069 6.38447 8.05411 6.37937 8.05664 6.37403C8.11817 6.24359 8.04028 6.08438 7.88476 5.76661L7.16113 4.28907C7.05345 4.0692 6.94313 3.84253 6.87988 3.65723C6.84635 3.55896 6.80203 3.40694 6.80371 3.23438C6.8057 3.03559 6.87112 2.78615 7.08105 2.5879C7.29156 2.38919 7.54565 2.3381 7.74609 2.34864C7.91928 2.35781 8.06839 2.41236 8.16406 2.45215C8.34464 2.52729 8.56292 2.65289 8.77441 2.77442L10.0439 3.50293C10.3027 3.65155 10.4327 3.72599 10.5566 3.68848C10.6803 3.6508 10.747 3.51698 10.8799 3.25L11.3008 2.40235C11.3952 2.21246 11.4983 2.00652 11.6006 1.85547C11.6768 1.74293 11.9758 1.31397 12.5244 1.38184Z" fill="currentColor" />
</svg>