<svg xmlns="http://www.w3.org/2000/svg" width="24" height="24" viewBox="0 0 24 24" fill="none">
    <path fill-rule="evenodd" clip-rule="evenodd" d="M12 1.25C17.937 1.25 22.75 6.06293 22.75 12C22.75 17.937 17.937 22.75 12 22.75C6.06293 22.75 1.25 17.937 1.25 12C1.25 6.06294 6.06294 1.25 12 1.25ZM12 3.2041C7.14242 3.20413 3.20508 7.14242 3.20508 12C3.20508 12.1102 3.20692 12.2199 3.21094 12.3291H6.08887C6.48118 12.3291 6.67757 12.329 6.84668 12.249C6.92966 12.2097 7.00738 12.1566 7.07617 12.0918C7.2165 11.9596 7.30474 11.7642 7.48047 11.374C8.43374 9.25755 8.91026 8.19902 9.52734 8.03906C9.81614 7.96424 10.1193 7.99741 10.3896 8.13281C10.9671 8.42234 11.2506 9.56287 11.8174 11.8438L12.0869 12.9287C12.698 15.3879 13.0037 16.6178 13.627 16.8936C13.8757 17.0036 14.1484 17.0292 14.4102 16.9668C15.0661 16.8103 15.5527 15.6544 16.5244 13.3428C16.7021 12.9201 16.7909 12.7085 16.9404 12.5674C17.0034 12.5079 17.0733 12.4581 17.1484 12.4199C17.3269 12.3292 17.537 12.3291 17.957 12.3291H20.7891C20.7931 12.2199 20.7959 12.1102 20.7959 12C20.7959 7.14241 16.8576 3.2041 12 3.2041Z" fill="currentColor" />
</svg>