<svg xmlns="http://www.w3.org/2000/svg" width="24" height="24" viewBox="0 0 24 24" fill="none">
    <path d="M19.5 1.25C19.8228 1.25 20.1098 1.45644 20.2119 1.7627L20.5732 2.84766C20.6645 3.12103 20.879 3.33548 21.1523 3.42676L22.2373 3.78809C22.5436 3.89017 22.75 4.17718 22.75 4.5C22.75 4.82282 22.5436 5.10983 22.2373 5.21191L21.1523 5.57324C20.879 5.66452 20.6645 5.87897 20.5732 6.15234L20.2119 7.2373C20.1098 7.54356 19.8228 7.75 19.5 7.75C19.1772 7.75 18.8902 7.54356 18.7881 7.2373L18.4268 6.15234C18.3355 5.87897 18.121 5.66452 17.8477 5.57324L16.7627 5.21191C16.4564 5.10983 16.25 4.82282 16.25 4.5C16.25 4.17718 16.4564 3.89017 16.7627 3.78809L17.8477 3.42676C18.121 3.33548 18.3355 3.12103 18.4268 2.84766L18.7881 1.7627L18.835 1.65332C18.9625 1.40837 19.2174 1.25 19.5 1.25Z" fill="currentColor" />
    <path fill-rule="evenodd" clip-rule="evenodd" d="M11 3.25C12.6109 3.25 13.9573 3.25112 15.0781 3.3291C14.8679 3.67399 14.75 4.07701 14.75 4.5C14.75 5.46699 15.3692 6.32799 16.2891 6.63477L17.0957 6.90332L17.3652 7.71191C17.672 8.63183 18.533 9.25 19.5 9.25C19.9226 9.25 20.3243 9.13079 20.6689 8.9209C20.7471 10.0419 20.75 11.3886 20.75 13C20.75 15.1001 20.7512 16.7511 20.5781 18.0381C20.4022 19.3464 20.0334 20.3904 19.2119 21.2119C18.3904 22.0334 17.3464 22.4022 16.0381 22.5781C14.7511 22.7512 13.1001 22.75 11 22.75C8.89988 22.75 7.24892 22.7512 5.96191 22.5781C4.65356 22.4022 3.60957 22.0334 2.78809 21.2119C1.9666 20.3904 1.59783 19.3464 1.42188 18.0381C1.24884 16.7511 1.25 15.1001 1.25 13C1.25 10.8999 1.24884 9.24892 1.42188 7.96191C1.59783 6.65356 1.9666 5.60957 2.78809 4.78809C3.60957 3.9666 4.65356 3.59783 5.96191 3.42188C7.24892 3.24884 8.89988 3.25 11 3.25ZM6.53027 13.4697C6.23738 13.1768 5.76262 13.1768 5.46973 13.4697C5.17683 13.7626 5.17683 14.2374 5.46973 14.5303L9.46973 18.5303C9.76262 18.8231 10.2374 18.8231 10.5303 18.5303C10.8231 18.2374 10.8231 17.7626 10.5303 17.4697L6.53027 13.4697ZM6.53027 7.46973C6.23738 7.17683 5.76262 7.17683 5.46973 7.46973C5.17683 7.76262 5.17683 8.23738 5.46973 8.53027L15.4697 18.5303C15.7626 18.8231 16.2374 18.8231 16.5303 18.5303C16.8231 18.2374 16.8231 17.7626 16.5303 17.4697L6.53027 7.46973ZM12.5303 7.46973C12.2374 7.17683 11.7626 7.17683 11.4697 7.46973C11.1768 7.76262 11.1768 8.23738 11.4697 8.53027L15.4697 12.5303C15.7626 12.8231 16.2374 12.8231 16.5303 12.5303C16.8231 12.2374 16.8231 11.7626 16.5303 11.4697L12.5303 7.46973Z" fill="currentColor" />
</svg>