<svg xmlns="http://www.w3.org/2000/svg" width="24" height="24" viewBox="0 0 24 24" fill="none">
    <path d="M19.7754 17.0908C20.3137 17.091 20.75 17.5271 20.75 18.0654C20.75 20.6527 18.6527 22.7498 16.0654 22.75H5.93457C3.34733 22.7498 1.25003 20.6527 1.25 18.0654C1.25 17.5271 1.68631 17.091 2.22461 17.0908C2.76309 17.0908 3.2002 17.527 3.2002 18.0654C3.20021 19.1428 3.82419 20.0718 4.72949 20.5176C5.70681 18.6398 7.86545 17.3811 10.1699 17.2783C10.4246 17.267 10.6945 17.2572 10.9834 17.25C11.0046 17.2495 11.0266 17.2497 11.0479 17.251L11.8438 17.2998C14.1469 17.4394 16.294 18.6508 17.2705 20.5166C18.1756 20.0708 18.7998 19.1426 18.7998 18.0654C18.7998 17.527 19.2369 17.0908 19.7754 17.0908ZM11 9.25C12.7949 9.25 14.25 10.7051 14.25 12.5C14.25 14.2949 12.7949 15.75 11 15.75C9.20528 15.7498 7.75 14.2948 7.75 12.5C7.75 10.7052 9.20528 9.25024 11 9.25ZM2.22461 11.0498C2.76309 11.0498 3.2002 11.4869 3.2002 12.0254V13.9746C3.2002 14.5131 2.76309 14.9502 2.22461 14.9502C1.68631 14.95 1.25 14.513 1.25 13.9746V12.0254C1.25 11.487 1.68631 11.05 2.22461 11.0498ZM19.7754 10.0752C20.3136 10.0754 20.7499 10.5115 20.75 11.0498V13.9746C20.75 14.513 20.3137 14.95 19.7754 14.9502C19.2369 14.9502 18.7998 14.5131 18.7998 13.9746V11.0498C18.7999 10.5114 19.237 10.0752 19.7754 10.0752ZM6.125 3.25C6.66335 3.25 7.0994 3.68631 7.09961 4.22461C7.09961 4.76309 6.66348 5.2002 6.125 5.2002C4.50955 5.2002 3.20011 6.50969 3.2002 8.125C3.2002 8.66345 2.76307 9.09958 2.22461 9.09961C1.68633 9.0994 1.25003 8.66333 1.25 8.125C1.24989 5.43258 3.43271 3.25 6.125 3.25ZM19.5 1.25C19.8228 1.25 20.1098 1.45644 20.2119 1.7627L20.5732 2.84766C20.6645 3.12103 20.879 3.33548 21.1523 3.42676L22.2373 3.78809C22.5436 3.89017 22.75 4.17718 22.75 4.5C22.75 4.82282 22.5436 5.10983 22.2373 5.21191L21.1523 5.57324C20.879 5.66452 20.6645 5.87897 20.5732 6.15234L20.2119 7.2373C20.1098 7.54356 19.8228 7.75 19.5 7.75C19.1772 7.75 18.8902 7.54356 18.7881 7.2373L18.4268 6.15234C18.3355 5.87897 18.121 5.66452 17.8477 5.57324L16.7627 5.21191C16.4564 5.10983 16.25 4.82282 16.25 4.5C16.25 4.17718 16.4564 3.89017 16.7627 3.78809L17.8477 3.42676C18.121 3.33548 18.3355 3.12103 18.4268 2.84766L18.7881 1.7627L18.835 1.65332C18.9625 1.40837 19.2174 1.25 19.5 1.25ZM12.9502 3.25C13.4885 3.25011 13.9246 3.68638 13.9248 4.22461C13.9248 4.76302 13.4886 5.20009 12.9502 5.2002H10.0254C9.48691 5.2002 9.0498 4.76309 9.0498 4.22461C9.05002 3.68631 9.48704 3.25 10.0254 3.25H12.9502Z" fill="currentColor" />
</svg>