<svg xmlns="http://www.w3.org/2000/svg" width="24" height="24" viewBox="0 0 24 24" fill="none">
    <path d="M17.8636 21.7727V19.8182H14.9318C12.6562 19.8182 10.8512 19.8198 9.44039 19.6302C8.00139 19.4367 6.82711 19.0278 5.89968 18.1003C4.97225 17.1729 4.5633 15.9986 4.36983 14.5596C4.18019 13.1488 4.18182 11.3438 4.18182 9.06818V6.13636H2.22727C1.68754 6.13636 1.25 5.69882 1.25 5.15909C1.25 4.61936 1.68754 4.18182 2.22727 4.18182H4.18182V2.22727C4.18182 1.68754 4.61936 1.25 5.15909 1.25C5.69882 1.25 6.13636 1.68754 6.13636 2.22727V4.18182H13.4659C14.0056 4.18182 14.4432 4.61936 14.4432 5.15909C14.4432 5.69882 14.0056 6.13636 13.4659 6.13636H6.13636V9.06818C6.13636 11.3993 6.13813 13.0497 6.30624 14.3C6.47058 15.5221 6.7779 16.2147 7.28161 16.7184C7.78531 17.2221 8.47793 17.5294 9.69997 17.6938C10.9503 17.8619 12.6007 17.8636 14.9318 17.8636H17.8636V10.5341C17.8636 9.99436 18.3012 9.55682 18.8409 9.55682C19.3806 9.55682 19.8182 9.99436 19.8182 10.5341V17.8636H21.7727C22.3125 17.8636 22.75 18.3012 22.75 18.8409C22.75 19.3806 22.3125 19.8182 21.7727 19.8182H19.8182V21.7727C19.8182 22.3125 19.3806 22.75 18.8409 22.75C18.3012 22.75 17.8636 22.3125 17.8636 21.7727Z" fill="currentColor" />
    <path d="M19.5 1.25C19.8228 1.25 20.1098 1.45644 20.2119 1.7627L20.5732 2.84766C20.6645 3.12103 20.879 3.33548 21.1523 3.42676L22.2373 3.78809C22.5436 3.89017 22.75 4.17718 22.75 4.5C22.75 4.82282 22.5436 5.10983 22.2373 5.21191L21.1523 5.57324C20.879 5.66452 20.6645 5.87897 20.5732 6.15234L20.2119 7.2373C20.1098 7.54356 19.8228 7.75 19.5 7.75C19.1772 7.75 18.8902 7.54356 18.7881 7.2373L18.4268 6.15234C18.3355 5.87897 18.121 5.66452 17.8477 5.57324L16.7627 5.21191C16.4564 5.10983 16.25 4.82282 16.25 4.5C16.25 4.17718 16.4564 3.89017 16.7627 3.78809L17.8477 3.42676C18.121 3.33548 18.3355 3.12103 18.4268 2.84766L18.7881 1.7627L18.835 1.65332C18.9625 1.40837 19.2174 1.25 19.5 1.25Z" fill="currentColor" />
</svg>