<svg xmlns="http://www.w3.org/2000/svg" width="24" height="24" viewBox="0 0 24 24" fill="none">
    <path d="M12 3.125V5M12 5V6.875M12 5H10.5M12 5H13.5M15 5L13.6987 4.56623C13.1015 4.36716 12.6328 3.89853 12.4338 3.30132L12 2L11.5662 3.30132C11.3672 3.89853 10.8985 4.36716 10.3013 4.56623L9 5L10.3013 5.43377C10.8985 5.63284 11.3672 6.10147 11.5662 6.69868L12 8L12.4338 6.69868C12.6328 6.10147 13.1015 5.63284 13.6987 5.43377L15 5Z" stroke="currentColor" stroke-width="2" stroke-linecap="round" stroke-linejoin="round" />
    <path d="M19.5 8.5C21.1569 8.5 22.5 9.84315 22.5 11.5C22.5 12.8459 21.6134 13.9842 20.3926 14.3643C20.5763 14.4142 20.7434 14.477 20.8994 14.5576C21.5325 14.8849 22.0477 15.4033 22.373 16.04C22.7499 16.7776 22.75 17.7448 22.75 19.6787C22.75 20.677 22.7503 21.1768 22.5762 21.5664C22.3753 22.0155 22.0155 22.3753 21.5664 22.5762C21.1768 22.7503 20.677 22.75 19.6787 22.75H17.3438C16.5641 22.75 15.9316 22.1176 15.9316 21.3379C15.9316 20.1832 15.9321 19.6054 15.7393 19.165C15.5462 18.7246 14.9909 18.2138 13.8809 17.1934C12.2424 15.6872 11.0224 13.9077 10.4004 12.7539C10.2984 12.5647 10.25 12.3519 10.25 12.1367V12.001C10.2502 11.3101 10.8071 10.7501 11.4941 10.75C11.791 10.75 12.0783 10.8566 12.3037 11.0508L14.9072 13.2959C15.288 13.6242 15.4793 13.7877 15.6943 13.9043C15.8816 14.0058 16.0822 14.0805 16.29 14.126C16.5286 14.1781 16.7792 14.1787 17.2803 14.1787C17.5999 14.1787 17.8932 14.1809 18.1631 14.1826C17.178 13.6907 16.5 12.6759 16.5 11.5C16.5 9.84315 17.8431 8.5 19.5 8.5Z" fill="currentColor" />
    <path d="M4.5 8.5C6.15685 8.5 7.5 9.84315 7.5 11.5C7.5 12.6759 6.82197 13.6907 5.83691 14.1826C6.10676 14.1809 6.40015 14.1787 6.71973 14.1787C7.22082 14.1787 7.47144 14.1781 7.70996 14.126C7.91781 14.0805 8.11843 14.0058 8.30566 13.9043C8.52066 13.7877 8.71195 13.6242 9.09277 13.2959L9.2207 13.1846C9.24505 13.239 9.27103 13.2933 9.2998 13.3467C9.70902 14.1057 10.3477 15.0988 11.1768 16.123C10.8471 16.4865 10.495 16.8479 10.1191 17.1934C9.00905 18.2138 8.45379 18.7246 8.26074 19.165C8.06788 19.6054 8.06836 20.1832 8.06836 21.3379C8.06836 22.1176 7.43591 22.75 6.65625 22.75H4.32129C3.32303 22.75 2.8232 22.7503 2.43359 22.5762C1.98447 22.3753 1.62467 22.0155 1.42383 21.5664C1.24968 21.1768 1.25 20.677 1.25 19.6787C1.25 17.7448 1.25012 16.7776 1.62695 16.04C1.95229 15.4033 2.46753 14.8849 3.10059 14.5576C3.25663 14.477 3.42366 14.4142 3.60742 14.3643C2.38656 13.9842 1.5 12.8459 1.5 11.5C1.5 9.84315 2.84315 8.5 4.5 8.5Z" fill="currentColor" />
</svg>