<svg xmlns="http://www.w3.org/2000/svg" width="24" height="24" viewBox="0 0 24 24" fill="none">
    <path fill-rule="evenodd" clip-rule="evenodd" d="M15.2794 2.25C16.0325 2.25002 16.7012 2.73189 16.9395 3.44629L17.712 5.7627C17.7571 5.89794 17.7621 6.04333 17.7276 6.18164L17.0196 9.01465C16.7646 10.0345 15.8482 10.75 14.7969 10.75C14.5056 10.75 14.2169 10.6941 13.9464 10.5859L12.7501 10.1074V13C12.7501 13.4142 12.4143 13.75 12.0001 13.75C11.5859 13.7499 11.2501 13.4142 11.2501 13V10.1074L10.0538 10.5859C9.78328 10.6941 9.49452 10.75 9.2032 10.75C8.15202 10.7499 7.2355 10.0345 6.98054 9.01465L6.27253 6.18164C6.23802 6.04336 6.2431 5.89791 6.28816 5.7627L7.06062 3.44629C7.29888 2.73191 7.96771 2.25009 8.72078 2.25H15.2794ZM12.0001 8.72461L15.162 4.65117C15.2381 4.55319 15.2794 4.43267 15.2794 4.30863C15.2794 4.00011 15.0293 3.75 14.7207 3.75H9.27941C8.97088 3.75 8.72078 4.00011 8.72078 4.30863C8.72078 4.43267 8.76206 4.55319 8.83812 4.65117L12.0001 8.72461Z" fill="currentColor" />
    <path d="M19.4999 16.25C19.8228 16.25 20.1098 16.4564 20.2119 16.7627L20.5732 17.8477C20.6645 18.121 20.8789 18.3355 21.1523 18.4268L22.2372 18.7881C22.5435 18.8902 22.7499 19.1772 22.7499 19.5C22.7499 19.8228 22.5435 20.1098 22.2372 20.2119L21.1523 20.5732C20.8789 20.6645 20.6645 20.879 20.5732 21.1523L20.2119 22.2373C20.1098 22.5436 19.8228 22.75 19.4999 22.75C19.1771 22.75 18.8901 22.5436 18.788 22.2373L18.4267 21.1523C18.3354 20.879 18.121 20.6645 17.8476 20.5732L16.7626 20.2119C16.4564 20.1098 16.2499 19.8228 16.2499 19.5C16.2499 19.1772 16.4564 18.8902 16.7626 18.7881L17.8476 18.4268C18.121 18.3355 18.3354 18.121 18.4267 17.8477L18.788 16.7627L18.8349 16.6533C18.9625 16.4084 19.2173 16.25 19.4999 16.25Z" fill="currentColor" />
    <path d="M18.9706 5.37695C20.2645 5.72372 21.2751 6.7344 21.6219 8.02832C21.7561 8.52923 21.7499 9.11736 21.7499 9.99902V14.999C21.7499 15.8697 21.7498 16.6337 21.7215 17.2988L21.7049 17.2939L21.3973 16.3672C21.1246 15.5496 20.3595 15 19.4999 15C18.7456 15 18.0667 15.4229 17.7264 16.0762C17.712 16.104 17.6977 16.1323 17.6854 16.1611L17.6385 16.2705L17.6024 16.3682L17.2938 17.2939L16.368 17.6025C15.5503 17.8751 14.9999 18.6403 14.9999 19.5C14.9999 20.3596 15.5504 21.1248 16.368 21.3975L17.2938 21.7051L17.2987 21.7217C16.6338 21.7499 15.87 21.749 14.9999 21.749H8.99986C7.60704 21.749 6.48673 21.7509 5.60826 21.6328C4.70824 21.5118 3.95037 21.2523 3.3485 20.6504C2.74666 20.0485 2.48708 19.2907 2.36607 18.3906C2.24799 17.5121 2.24986 16.3919 2.24986 14.999V9.99902C2.24986 9.11738 2.24358 8.52922 2.37779 8.02832C2.72456 6.73442 3.73528 5.72377 5.02916 5.37695C5.05385 5.37034 5.07922 5.36532 5.10436 5.35938L5.1024 5.36621C4.98124 5.72982 4.9682 6.11783 5.05943 6.4834L5.76744 9.31641C6.16154 10.8928 7.57854 11.9988 9.20299 11.999L9.37193 11.9951C9.58388 11.985 9.794 11.9548 9.99986 11.9072V12.999C9.99986 14.1038 10.8959 14.9987 11.9999 14.999L12.204 14.9883C13.2127 14.8861 13.9999 14.0347 13.9999 12.999V11.9072C14.2604 11.9675 14.5277 11.999 14.7967 11.999L15.0985 11.9863C16.5944 11.8592 17.8628 10.7943 18.2323 9.31641L18.9403 6.4834C19.0316 6.11777 19.0186 5.72993 18.8973 5.36621L18.8944 5.35938C18.9199 5.36539 18.9455 5.37026 18.9706 5.37695Z" fill="currentColor" />
</svg>