<svg xmlns="http://www.w3.org/2000/svg" width="24" height="24" viewBox="0 0 24 24" fill="none">
    <path d="M15.4375 3.25293C15.161 3.59938 15 4.0357 15 4.5C15 5.35961 15.5506 6.12478 16.3682 6.39746L17.2939 6.70508L17.6025 7.63281C17.8752 8.45042 18.6404 9 19.5 9C20.3596 9 21.1248 8.44945 21.3975 7.63184L21.7051 6.70508L22.3867 6.47852C22.4773 6.80162 22.5475 7.14473 22.5967 7.51074C22.7514 8.66159 22.75 10.1356 22.75 12C22.75 13.8644 22.7514 15.3384 22.5967 16.4893C22.439 17.6616 22.1067 18.6101 21.3584 19.3584C20.6101 20.1067 19.6616 20.439 18.4893 20.5967C17.3384 20.7514 15.8644 20.75 14 20.75H10C8.13558 20.75 6.66159 20.7514 5.51074 20.5967C4.33844 20.439 3.38991 20.1067 2.6416 19.3584C1.89329 18.6101 1.56096 17.6616 1.40332 16.4893C1.24859 15.3384 1.25 13.8644 1.25 12C1.25 10.1356 1.24859 8.66159 1.40332 7.51074C1.56096 6.33844 1.89329 5.38991 2.6416 4.6416C3.38991 3.89329 4.33844 3.56096 5.51074 3.40332C6.66159 3.24859 8.13558 3.25 10 3.25H14C14.5077 3.25 14.9864 3.24996 15.4375 3.25293ZM11.123 8.25977C10.7149 8.19223 10.328 8.46888 10.2598 8.87695L9.86426 11.25H7.38574L7.74023 9.12305C7.80789 8.71473 7.53139 8.32782 7.12305 8.25977C6.71492 8.19223 6.328 8.46888 6.25977 8.87695L5.25977 14.877C5.1919 15.2852 5.46878 15.6719 5.87695 15.7402C6.28541 15.8081 6.67216 15.5315 6.74023 15.123L7.13574 12.75H9.61426L9.25977 14.877C9.1919 15.2852 9.46878 15.6719 9.87695 15.7402C10.2854 15.8081 10.6722 15.5315 10.7402 15.123L11.7402 9.12305C11.8079 8.71473 11.5314 8.32782 11.123 8.25977ZM14 8.25C13.6335 8.25016 13.32 8.51542 13.2598 8.87695L12.2598 14.877C12.2237 15.0941 12.2856 15.3163 12.4277 15.4844C12.5702 15.6525 12.7797 15.7499 13 15.75H14.8818C16.4705 15.75 17.8267 14.6013 18.0879 13.0342L18.3516 11.4521C18.6309 9.77594 17.338 8.25 15.6387 8.25H14ZM15.6387 9.75C16.411 9.75 16.9988 10.4433 16.8721 11.2051L16.6084 12.7881C16.4676 13.6317 15.7372 14.25 14.8818 14.25H13.8857L14.6357 9.75H15.6387Z" fill="currentColor" />
    <path d="M19.5 1.25C19.8228 1.25 20.1098 1.45644 20.2119 1.7627L20.5732 2.84766C20.6645 3.12103 20.879 3.33548 21.1523 3.42676L22.2373 3.78809C22.5436 3.89017 22.75 4.17718 22.75 4.5C22.75 4.82282 22.5436 5.10983 22.2373 5.21191L21.1523 5.57324C20.879 5.66452 20.6645 5.87897 20.5732 6.15234L20.2119 7.2373C20.1098 7.54356 19.8228 7.75 19.5 7.75C19.1772 7.75 18.8902 7.54356 18.7881 7.2373L18.4268 6.15234C18.3355 5.87897 18.121 5.66452 17.8477 5.57324L16.7627 5.21191C16.4564 5.10983 16.25 4.82282 16.25 4.5C16.25 4.17718 16.4564 3.89017 16.7627 3.78809L17.8477 3.42676C18.121 3.33548 18.3355 3.12103 18.4268 2.84766L18.7881 1.7627L18.835 1.65332C18.9625 1.40837 19.2174 1.25 19.5 1.25Z" fill="currentColor" />
</svg>