<svg xmlns="http://www.w3.org/2000/svg" width="24" height="24" viewBox="0 0 24 24" fill="none">
    <path d="M10.5 2.25C12.1254 2.25 13.4104 2.24923 14.4248 2.36914C14.7998 2.41347 15.1506 2.47553 15.4795 2.56445L15.3672 2.60254C14.5496 2.87521 14 3.64039 14 4.5C14 5.35961 14.5496 6.12479 15.3672 6.39746L16.293 6.70508L16.6025 7.63281L16.6592 7.78223C16.971 8.51663 17.6939 9 18.5 9C18.5821 9 18.6631 8.99221 18.7432 8.98242C18.7475 9.45204 18.75 9.95702 18.75 10.5V13.5C18.75 15.1254 18.7508 16.4104 18.6309 17.4248C18.509 18.4557 18.2537 19.3047 17.6719 20.0137C17.4746 20.2541 17.2541 20.4746 17.0137 20.6719C16.3047 21.2537 15.4557 21.509 14.4248 21.6309C13.4104 21.7508 12.1254 21.75 10.5 21.75C8.87463 21.75 7.58961 21.7508 6.5752 21.6309C5.54427 21.509 4.69525 21.2537 3.98633 20.6719C3.74592 20.4746 3.52544 20.2541 3.32812 20.0137C2.74633 19.3047 2.49101 18.4557 2.36914 17.4248C2.24923 16.4104 2.25 15.1254 2.25 13.5V10.5C2.25 8.87463 2.24923 7.58961 2.36914 6.5752C2.49101 5.54427 2.74633 4.69525 3.32812 3.98633C3.52544 3.74592 3.74592 3.52544 3.98633 3.32812C4.69525 2.74633 5.54427 2.49101 6.5752 2.36914C7.58961 2.24923 8.87463 2.25 10.5 2.25ZM7 16C6.44772 16 6 16.4477 6 17C6 17.5523 6.44772 18 7 18H14C14.5523 18 15 17.5523 15 17C15 16.4477 14.5523 16 14 16H7ZM7 12C6.44772 12 6 12.4477 6 13C6 13.5523 6.44772 14 7 14H11C11.5523 14 12 13.5523 12 13C12 12.4477 11.5523 12 11 12H7Z" fill="currentColor" />
    <path d="M18.5 1.25C18.8228 1.25 19.1098 1.45644 19.2119 1.7627L19.5732 2.84766C19.6645 3.12103 19.879 3.33548 20.1523 3.42676L21.2373 3.78809C21.5436 3.89017 21.75 4.17718 21.75 4.5C21.75 4.82282 21.5436 5.10983 21.2373 5.21191L20.1523 5.57324C19.879 5.66452 19.6645 5.87897 19.5732 6.15234L19.2119 7.2373C19.1098 7.54356 18.8228 7.75 18.5 7.75C18.1772 7.75 17.8902 7.54356 17.7881 7.2373L17.4268 6.15234C17.3355 5.87897 17.121 5.66452 16.8477 5.57324L15.7627 5.21191C15.4564 5.10983 15.25 4.82282 15.25 4.5C15.25 4.17718 15.4564 3.89017 15.7627 3.78809L16.8477 3.42676C17.121 3.33548 17.3355 3.12103 17.4268 2.84766L17.7881 1.7627L17.835 1.65332C17.9625 1.40837 18.2174 1.25 18.5 1.25Z" fill="currentColor" />
</svg>