<svg xmlns="http://www.w3.org/2000/svg" width="24" height="24" viewBox="0 0 24 24" fill="none">
    <path d="M5.99971 17V16.3477L5.78291 16.6211C5.43977 17.0538 4.81135 17.1263 4.37862 16.7832C3.94591 16.4401 3.87339 15.8116 4.21651 15.3789L4.80147 14.6396C5.1163 14.2426 5.4154 13.8629 5.69405 13.5947C5.98112 13.3185 6.40722 13 6.99971 13C7.5922 13 8.0183 13.3185 8.30537 13.5947C8.58401 13.8629 8.88311 14.2426 9.19795 14.6396L9.78291 15.3789C10.126 15.8116 10.0535 16.4401 9.6208 16.7832C9.18807 17.1263 8.55965 17.0538 8.21651 16.6211L7.99971 16.3477V17C7.99971 18.1046 8.89514 19 9.99971 19C10.552 19 10.9997 19.4477 10.9997 20C10.9997 20.5523 10.552 21 9.99971 21C7.79057 21 5.99971 19.2091 5.99971 17Z" fill="currentColor" />
    <path d="M10.75 6.49996C10.75 7.37204 10.7591 7.9859 10.5908 8.50387C10.2694 9.49329 9.49335 10.2693 8.50393 10.5908C7.98597 10.759 7.37211 10.75 6.50002 10.75C5.62794 10.75 5.01408 10.759 4.49612 10.5908C3.50669 10.2693 2.73069 9.49329 2.4092 8.50387C2.24099 7.9859 2.25002 7.37204 2.25002 6.49996C2.25002 5.62788 2.24099 5.01402 2.4092 4.49606C2.73069 3.50663 3.50669 2.73063 4.49612 2.40914C5.01408 2.24093 5.62794 2.24996 6.50002 2.24996C7.37211 2.24996 7.98597 2.24093 8.50393 2.40914C9.49335 2.73063 10.2694 3.50663 10.5908 4.49606C10.7591 5.01402 10.75 5.62788 10.75 6.49996Z" fill="currentColor" />
    <path d="M21.75 17.5C21.75 18.372 21.7591 18.9859 21.5908 19.5039C21.2694 20.4933 20.4934 21.2693 19.5039 21.5908C18.986 21.759 18.3721 21.75 17.5 21.75C16.6279 21.75 16.0141 21.759 15.4961 21.5908C14.5067 21.2693 13.7307 20.4933 13.4092 19.5039C13.241 18.9859 13.25 18.372 13.25 17.5C13.25 16.6279 13.241 16.014 13.4092 15.4961C13.7307 14.5066 14.5067 13.7306 15.4961 13.4091C16.0141 13.2409 16.6279 13.25 17.5 13.25C18.3721 13.25 18.986 13.2409 19.5039 13.4091C20.4934 13.7306 21.2694 14.5066 21.5908 15.4961C21.7591 16.014 21.75 16.6279 21.75 17.5Z" fill="currentColor" />
    <path d="M17.5 2.75C17.8228 2.75 18.1098 2.95644 18.2119 3.2627L18.6455 4.56445C18.77 4.93743 19.0626 5.23005 19.4355 5.35449L20.7373 5.78809C21.0436 5.89017 21.25 6.17718 21.25 6.5C21.25 6.82282 21.0436 7.10983 20.7373 7.21191L19.4355 7.64551C19.0626 7.76995 18.77 8.06257 18.6455 8.43555L18.2119 9.7373C18.1098 10.0436 17.8228 10.25 17.5 10.25C17.1772 10.25 16.8902 10.0436 16.7881 9.7373L16.3545 8.43555C16.23 8.06257 15.9374 7.76995 15.5645 7.64551L14.2627 7.21191C13.9564 7.10983 13.75 6.82282 13.75 6.5C13.75 6.17718 13.9564 5.89017 14.2627 5.78809L15.5645 5.35449C15.9374 5.23005 16.23 4.93743 16.3545 4.56445L16.7881 3.2627L16.835 3.15332C16.9625 2.90837 17.2174 2.75 17.5 2.75Z" fill="currentColor" />
</svg>