<svg xmlns="http://www.w3.org/2000/svg" width="24" height="24" viewBox="0 0 24 24" fill="none">
    <path d="M21 2.125C21.5523 2.125 22 2.57272 22 3.125C22 3.67728 21.5523 4.125 21 4.125H3C2.44772 4.125 2 3.67728 2 3.125C2 2.57272 2.44772 2.125 3 2.125H21Z" fill="currentColor" />
    <path d="M19.75 13.125C19.75 14.6438 18.5188 15.875 17 15.875H16C14.4812 15.875 13.25 14.6438 13.25 13.125V9.125C13.25 7.60622 14.4812 6.375 16 6.375H17C18.5188 6.375 19.75 7.60622 19.75 9.125V13.125Z" fill="currentColor" />
    <path d="M10.75 19.125C10.75 20.6438 9.51878 21.875 8 21.875H7C5.48122 21.875 4.25 20.6438 4.25 19.125V9.125C4.25 7.60622 5.48122 6.375 7 6.375H8C9.51878 6.375 10.75 7.60622 10.75 9.125V19.125Z" fill="currentColor" />
</svg>