<svg xmlns="http://www.w3.org/2000/svg" width="24" height="24" viewBox="0 0 24 24" fill="none">
    <path d="M17.6249 8C17.6249 9.51878 16.3937 10.75 14.8749 10.75H4.87494C3.35616 10.75 2.12494 9.51878 2.12494 8V7C2.12494 5.48122 3.35616 4.25 4.87494 4.25H14.8749C16.3937 4.25 17.6249 5.48122 17.6249 7V8Z" fill="currentColor" />
    <path d="M17.6249 17C17.6249 18.5188 16.3937 19.75 14.8749 19.75H10.8749C9.35616 19.75 8.12494 18.5188 8.12494 17V16C8.12494 14.4812 9.35616 13.25 10.8749 13.25H14.8749C16.3937 13.25 17.6249 14.4812 17.6249 16V17Z" fill="currentColor" />
    <path d="M19.8749 21V3C19.8749 2.44772 20.3227 2 20.8749 2C21.4272 2 21.8749 2.44772 21.8749 3V21C21.8749 21.5523 21.4272 22 20.8749 22C20.3227 22 19.8749 21.5523 19.8749 21Z" fill="currentColor" />
</svg>