<svg xmlns="http://www.w3.org/2000/svg" width="24" height="24" viewBox="0 0 24 24" fill="none">
    <path d="M21 11C21.5523 11 22 11.4477 22 12C22 12.5523 21.5523 13 21 13H3.00003C2.44775 13 2.00003 12.5523 2.00003 12C2.00003 11.4477 2.44775 11 3.00003 11H21Z" fill="currentColor" />
    <path d="M16.7526 6.16504C16.7461 6.41508 16.7269 6.68284 16.6755 6.93555C16.5628 7.48866 16.2818 8.07057 15.6276 8.44824C15.3205 8.62554 14.9948 8.69185 14.6657 8.72168C14.353 8.75002 13.9712 8.75001 13.5289 8.75H13.5026H10.5026H10.4774C10.0348 8.75001 9.65332 8.75002 9.3405 8.72168C9.01132 8.69185 8.68482 8.62561 8.37761 8.44824C7.72377 8.07057 7.44343 7.48853 7.33074 6.93555C7.24355 6.50748 7.24803 6.03691 7.25143 5.68043C7.25204 5.61629 7.25261 5.55584 7.25261 5.5C7.25261 5.44416 7.25204 5.38371 7.25143 5.31957C7.24803 4.96309 7.24355 4.49252 7.33074 4.06445C7.44343 3.51148 7.72377 2.92943 8.37761 2.55176C8.68482 2.37439 9.01132 2.30816 9.3405 2.27832C9.65332 2.24998 10.0348 2.24999 10.4773 2.25H10.5026H13.5026H13.5289C13.9712 2.24999 14.353 2.24998 14.6657 2.27832C14.9948 2.30816 15.3205 2.37446 15.6276 2.55176C16.2818 2.92943 16.5628 3.51135 16.6755 4.06445C16.7269 4.31716 16.7461 4.58493 16.7526 4.83496V6.16504Z" fill="currentColor" />
    <path d="M18.7526 19.165C18.7461 19.4151 18.7269 19.6828 18.6755 19.9355C18.5628 20.4887 18.2818 21.0706 17.6276 21.4482C17.3205 21.6255 16.9948 21.6918 16.6657 21.7217C16.353 21.75 15.9712 21.75 15.5289 21.75H15.5026H8.50261H8.47736C8.03486 21.75 7.65331 21.75 7.3405 21.7217C7.01132 21.6918 6.68482 21.6256 6.37761 21.4482C5.72377 21.0706 5.44343 20.4885 5.33074 19.9355C5.24355 19.5075 5.24803 19.0369 5.25143 18.6804C5.25204 18.6163 5.25261 18.5558 5.25261 18.5C5.25261 18.4442 5.25204 18.3837 5.25143 18.3196C5.24803 17.9631 5.24355 17.4925 5.33074 17.0645C5.44343 16.5115 5.72377 15.9294 6.37761 15.5518C6.68482 15.3744 7.01132 15.3082 7.3405 15.2783C7.65331 15.25 8.03481 15.25 8.47732 15.25H8.50261H15.5026H15.5289C15.9712 15.25 16.353 15.25 16.6657 15.2783C16.9948 15.3082 17.3205 15.3745 17.6276 15.5518C18.2818 15.9294 18.5628 16.5113 18.6755 17.0645C18.7269 17.3172 18.7461 17.5849 18.7526 17.835V19.165Z" fill="currentColor" />
</svg>