<svg xmlns="http://www.w3.org/2000/svg" width="24" height="24" viewBox="0 0 24 24" fill="none">
    <path d="M11.5 7C11.5 5.89543 10.6046 5 9.5 5C8.39543 5 7.5 5.89543 7.5 7C7.5 7.29754 7.60294 7.72601 7.86133 8.29199C8.01306 8.62429 8.21007 8.98051 8.44336 9.3584C8.64306 9.26448 8.81174 9.19249 8.9375 9.14258C9.2763 9.00813 9.07521 9.09368 9.27246 9.01855C9.33989 8.99287 9.4405 8.95266 9.5625 8.89844C9.80933 8.78873 10.1309 8.62755 10.4453 8.41797C11.1349 7.95824 11.5 7.46913 11.5 7ZM6 15.5C6 17.433 7.567 19 9.5 19C10.8899 19 12.1247 18.5516 13.1357 17.8076C12.4689 17.1631 11.7476 16.446 11.0264 15.6904C9.92205 14.5335 8.80336 13.271 7.86719 12.0361L7.86426 12.0391C6.87398 12.8093 6 13.9243 6 15.5ZM13.5 7C13.5 8.53087 12.3651 9.54176 11.5547 10.082C11.1191 10.3725 10.6907 10.5863 10.375 10.7266C10.2159 10.7973 10.082 10.8509 9.98535 10.8877C9.93714 10.9061 9.89768 10.9205 9.86914 10.9307C9.8549 10.9357 9.84278 10.9394 9.83398 10.9424C9.82975 10.9438 9.82615 10.9453 9.82324 10.9463L9.81934 10.9473C9.81934 10.9473 9.81761 10.9485 9.81543 10.9492C9.81107 10.9507 9.80287 10.9537 9.79102 10.958C9.76681 10.9668 9.72752 10.9814 9.67578 11.002C9.65665 11.0095 9.6357 11.0181 9.61328 11.0273C10.4537 12.1142 11.4557 13.2432 12.4736 14.3096C13.1817 15.0514 13.8913 15.7566 14.5479 16.3906C15.1244 15.6114 15.5485 14.7062 15.7861 13.7412C15.9091 13.2419 16.0163 12.8015 16.1318 12.4639C16.2406 12.146 16.4171 11.7219 16.7949 11.4258L16.9297 11.3311C17.2474 11.1292 17.5887 11.0622 17.874 11.0322C18.1919 10.9988 18.5834 11 19 11C19.5523 11 20 11.4477 20 12C20 12.5523 19.5523 13 19 13C18.5389 13 18.2719 13.0016 18.083 13.0215C18.0744 13.0224 18.0662 13.0235 18.0586 13.0244C18.0492 13.0482 18.0364 13.0764 18.0244 13.1113C17.9444 13.3452 17.8608 13.6826 17.7285 14.2197C17.4144 15.4949 16.8264 16.7189 16.0078 17.7686C16.0175 17.7775 16.0274 17.787 16.0371 17.7959C16.5235 18.2437 16.9282 18.6064 17.2109 18.8564C17.3522 18.9814 17.4631 19.0783 17.5381 19.1436C17.5754 19.176 17.6041 19.2004 17.623 19.2168C17.6325 19.225 17.6399 19.2314 17.6445 19.2354C17.6466 19.2372 17.6494 19.2393 17.6494 19.2393L17.6504 19.2402C18.0697 19.5997 18.1182 20.2311 17.7588 20.6504C17.3994 21.0697 16.7689 21.1182 16.3496 20.7588L16.3467 20.7568C16.3467 20.7568 16.3425 20.7543 16.3398 20.752C16.3344 20.7473 16.3267 20.7403 16.3164 20.7314C16.2956 20.7135 16.265 20.6866 16.2256 20.6523C16.1468 20.5838 16.0323 20.4832 15.8867 20.3545C15.5953 20.0968 15.1794 19.7248 14.6816 19.2666C14.6573 19.2442 14.6332 19.2211 14.6084 19.1982C13.2413 20.304 11.5091 21 9.5 21C6.46243 21 4 18.5376 4 15.5C4 13.0759 5.37611 11.4408 6.63574 10.4609C6.6668 10.4368 6.69848 10.4131 6.72949 10.3896C6.46533 9.96032 6.23012 9.53629 6.04102 9.12207C5.72527 8.43036 5.5 7.70233 5.5 7C5.5 4.79086 7.29086 3 9.5 3C11.7091 3 13.5 4.79086 13.5 7Z" fill="currentColor" />
</svg>