<svg xmlns="http://www.w3.org/2000/svg" width="24" height="24" viewBox="0 0 24 24" fill="none">
    <path d="M14.9996 12.25C19.2798 12.25 22.7496 8.78016 22.7496 4.49995C22.7496 3.53345 21.9661 2.74995 20.9996 2.74995H8.99958C8.54938 2.74995 8.13622 2.74803 7.80232 2.79292C7.44684 2.84071 7.0713 2.95363 6.76228 3.26265C6.45326 3.57167 6.34035 3.94721 6.29255 4.30269C6.24766 4.63659 6.24958 5.04975 6.24958 5.49995V7.49995L6.24958 7.54669C6.24956 8.44752 6.24954 9.19893 6.32966 9.79487C6.4141 10.4225 6.59989 10.9889 7.05525 11.4443C7.51061 11.8996 8.07705 12.0854 8.70466 12.1699C9.30061 12.25 10.052 12.25 10.9529 12.25H10.9996H14.9996Z" fill="currentColor" />
    <path d="M5.12555 3.74994C5.09245 3.88678 5.0693 4.01662 5.05328 4.13568C4.99462 4.57204 4.99957 5.08441 4.99957 5.49994V7.49994C4.99957 8.38738 4.99514 9.25329 5.09039 9.96185C5.09949 10.0295 5.11098 10.0978 5.12262 10.1669C2.9184 9.75532 1.24957 7.82354 1.24957 5.49994C1.24957 4.53344 2.03307 3.74994 2.99957 3.74994H5.12555Z" fill="currentColor" />
    <path d="M18.9995 15.7499C17.7569 15.7499 16.7495 14.7426 16.7495 13.4999V13.3281C16.1833 13.4397 15.5984 13.4999 14.9995 13.4999H10.9995C10.3914 13.4999 9.79362 13.499 9.24948 13.4697V13.4999C9.24948 14.7426 8.24212 15.7499 6.99948 15.7499C6.58288 15.7499 6.22756 15.744 5.91745 15.8271C5.14102 16.0352 4.53468 16.6415 4.32663 17.4179C4.24357 17.728 4.24948 18.0833 4.24948 18.4999C4.24948 18.9166 4.24357 19.2718 4.32663 19.582C4.53468 20.3584 5.14102 20.9647 5.91745 21.1728C6.22756 21.2558 6.58288 21.2499 6.99948 21.2499H8.99948C9.17331 21.2499 9.34921 21.2509 9.4946 21.2392C9.63865 21.2276 9.85273 21.198 10.06 21.0751C10.2028 20.9905 10.3009 20.8798 10.3589 20.8076C10.4222 20.7286 10.4802 20.6412 10.5317 20.5576C10.6295 20.3988 10.7467 20.1848 10.8841 19.9337L10.8852 19.9316L10.9018 19.9013C11.1151 19.5117 11.5005 18.2499 12.9995 18.2499C14.4984 18.2499 14.8838 19.5117 15.0971 19.9013L15.1137 19.9316L15.1148 19.9335C15.2522 20.1846 15.3694 20.3987 15.4673 20.5576C15.5188 20.6412 15.5768 20.7286 15.6401 20.8076C15.698 20.8798 15.7962 20.9905 15.9389 21.0751C16.1462 21.198 16.3603 21.2276 16.5044 21.2392C16.6497 21.2509 16.8256 21.2499 16.9995 21.2499H18.9995C19.4161 21.2499 19.7714 21.2558 20.0815 21.1728C20.858 20.9647 21.4643 20.3584 21.6723 19.582C21.7554 19.2718 21.7495 18.9166 21.7495 18.4999C21.7495 18.0833 21.7554 17.728 21.6723 17.4179C21.4643 16.6415 20.858 16.0351 20.0815 15.8271C19.7714 15.744 19.4161 15.7499 18.9995 15.7499Z" fill="currentColor" />
</svg>