<svg xmlns="http://www.w3.org/2000/svg" width="24" height="24" viewBox="0 0 24 24" fill="none">
    <path fill-rule="evenodd" clip-rule="evenodd" d="M21.1276 7.25H22.6389C22.6315 7.18545 22.6236 7.12198 22.6152 7.05957C22.4759 6.02332 22.18 5.17025 21.5049 4.49512C20.8297 3.81999 19.9767 3.52409 18.9404 3.38477C17.9378 3.24997 16.6595 3.24998 15.0579 3.25L15 3.25H9L8.9421 3.25L8.5 3.25011V4.75017V7.25H21.1276Z" fill="currentColor" />
    <path fill-rule="evenodd" clip-rule="evenodd" d="M7.00002 3.26172C6.26218 3.27644 5.61811 3.3097 5.05959 3.38479C4.02334 3.52412 3.17027 3.82001 2.49513 4.49514C1.82 5.17028 1.52411 6.02335 1.38478 7.0596C1.37639 7.122 1.36852 7.18547 1.36115 7.25003H2.87243H7.00002V4.76199V3.26172Z" fill="currentColor" />
    <path d="M22.7325 8.75H21.2321H8.5H7H2.76792H1.26752C1.24998 9.4018 1.24999 10.1304 1.25 10.9421L1.25 11V13L1.25 13.0579C1.24998 14.6595 1.24997 15.9378 1.38477 16.9404C1.52409 17.9767 1.81999 18.8297 2.49512 19.5049C3.17025 20.18 4.02332 20.4759 5.05957 20.6152C6.06222 20.75 7.34055 20.75 8.94217 20.75H9H15H15.0579L15.3544 20.75C16.8182 20.7495 18.0005 20.7416 18.9404 20.6152C19.9767 20.4759 20.8297 20.18 21.5049 19.5049C22.18 18.8298 22.4759 17.9767 22.6152 16.9404C22.75 15.9378 22.75 14.6595 22.75 13.058V13V11V10.9421C22.75 10.1306 22.75 9.40168 22.7325 8.75Z" fill="currentColor" />
</svg>