<svg xmlns="http://www.w3.org/2000/svg" width="24" height="24" viewBox="0 0 24 24" fill="none">
    <path d="M3.55469 6.71973C3.51183 7.19257 3.50256 7.75207 3.50055 8.40657C2.19463 8.82818 1.25 10.0538 1.25 11.5C1.25 12.4219 1.6347 13.254 2.25 13.8447V14L2.25 14.0467C2.24998 14.9476 2.24996 15.699 2.33008 16.2949C2.41451 16.9225 2.6003 17.489 3.05566 17.9443C3.333 18.2217 3.65153 18.399 4 18.5144V20C4 20.5523 4.44772 21 5 21C5.55228 21 6 20.5523 6 20V18.7458C6.29634 18.75 6.61416 18.75 6.95314 18.75H7H17H17.0467C17.3857 18.75 17.7037 18.75 18 18.7458V20C18 20.5523 18.4477 21 19 21C19.5523 21 20 20.5523 20 20V18.5144C20.3485 18.399 20.667 18.2217 20.9443 17.9443C21.3997 17.489 21.5855 16.9225 21.6699 16.2949C21.75 15.699 21.75 14.9476 21.75 14.0468V14V13.8447C22.3653 13.254 22.75 12.4219 22.75 11.5C22.75 10.0538 21.8054 8.82818 20.4994 8.40657C20.4974 7.75207 20.4882 7.19257 20.4453 6.71973C20.3958 6.17401 20.2967 5.66908 20.0693 5.19922L19.9639 5C19.6128 4.392 19.108 3.88718 18.5 3.53613C17.9744 3.23268 17.4039 3.11122 16.7803 3.05469C16.1768 2.99999 15.4321 2.99999 14.5289 3H14.5H9.5H9.47113C8.56793 2.99999 7.82325 2.99999 7.21973 3.05469C6.59609 3.11122 6.0256 3.23268 5.5 3.53613C4.892 3.88718 4.38718 4.392 4.03613 5C3.73268 5.5256 3.61122 6.09609 3.55469 6.71973ZM18.4541 6.90039C18.4892 7.28803 18.4975 7.76581 18.4994 8.40694C17.1941 8.8289 16.25 10.0542 16.25 11.5V12C16.25 12.4924 16.248 12.7864 16.2197 12.9971C16.2067 13.0936 16.1916 13.1423 16.1826 13.1641C16.1812 13.1675 16.1785 13.1719 16.1766 13.1748C16.1747 13.1758 16.1691 13.1806 16.1641 13.1826C16.1423 13.1916 16.0936 13.2067 15.9971 13.2197C15.7864 13.248 15.4924 13.25 15 13.25H9C8.50756 13.25 8.21364 13.248 8.00293 13.2197C7.90637 13.2067 7.85772 13.1916 7.83594 13.1826C7.83095 13.1806 7.82419 13.1758 7.82227 13.1748C7.82126 13.1729 7.81944 13.1691 7.81738 13.1641C7.80842 13.1423 7.79326 13.0936 7.78027 12.9971C7.75197 12.7864 7.75 12.4924 7.75 12V11.5C7.75 10.0542 6.80592 8.8289 5.50059 8.40694C5.50252 7.76581 5.51077 7.28803 5.5459 6.90039C5.58984 6.41557 5.66918 6.1705 5.76758 6C5.94311 5.69596 6.19596 5.44311 6.5 5.26758C6.6705 5.16918 6.91557 5.08984 7.40039 5.0459C7.8991 5.0007 8.54702 5 9.5 5H14.5C15.453 5 16.1009 5.0007 16.5996 5.0459C17.0844 5.08984 17.3295 5.16918 17.5 5.26758C17.804 5.44311 18.0569 5.69596 18.2324 6L18.3018 6.14453C18.3677 6.30807 18.4211 6.53666 18.4541 6.90039Z" fill="currentColor" />
</svg>