<svg xmlns="http://www.w3.org/2000/svg" width="24" height="24" viewBox="0 0 24 24" fill="none">
    <path d="M6.75011 20V5C6.75011 4.44772 7.19782 4 7.75011 4C8.30239 4 8.75011 4.44772 8.75011 5V20C8.75011 20.5523 8.30239 21 7.75011 21C7.19782 21 6.75011 20.5523 6.75011 20Z" fill="currentColor" />
    <path d="M4.5557 8.59267C4.22828 9.03724 3.60194 9.13274 3.15726 8.80556C2.71269 8.47814 2.61719 7.85179 2.94437 7.40712L2.94535 7.40712L2.94535 7.40517C2.94577 7.4046 2.94664 7.40411 2.9473 7.40321C2.94898 7.40094 2.95206 7.39757 2.95512 7.39345C2.96128 7.38512 2.96997 7.37277 2.98148 7.35731C3.00451 7.32641 3.03843 7.28197 3.08109 7.22548C3.16641 7.11252 3.28855 6.95183 3.43851 6.75966C3.73766 6.37633 4.15044 5.86201 4.59965 5.34462C5.04462 4.83212 5.54551 4.29387 6.01859 3.87587C6.25389 3.66797 6.50548 3.46808 6.75883 3.31532C6.98483 3.17908 7.33978 2.99989 7.75004 2.99989C8.16028 2.9999 8.51525 3.17908 8.74125 3.31532C8.99459 3.46809 9.24619 3.66797 9.48148 3.87587C9.95457 4.29387 10.4555 4.83212 10.9004 5.34462C11.3496 5.86201 11.7624 6.37634 12.0616 6.75966C12.2115 6.95185 12.3337 7.11252 12.419 7.22548C12.4617 7.28198 12.4956 7.32641 12.5186 7.35731C12.5301 7.37276 12.5388 7.38512 12.545 7.39345C12.548 7.39755 12.5501 7.40094 12.5518 7.40321C12.5526 7.40433 12.5542 7.40451 12.5547 7.40517L12.5547 7.40712L12.5557 7.40712C12.8828 7.85177 12.7873 8.47715 12.3428 8.80458C11.8981 9.1321 11.2719 9.03736 10.9444 8.59267L10.9434 8.59071C10.9422 8.58915 10.9399 8.58708 10.9375 8.58388C10.9325 8.57709 10.9253 8.56635 10.9151 8.55263C10.8944 8.52494 10.8632 8.48343 10.8233 8.43056C10.7434 8.32482 10.6279 8.1727 10.4854 7.99013C10.1993 7.62352 9.80961 7.13768 9.39066 6.65517C8.96739 6.16767 8.53301 5.70591 8.15726 5.37392C7.99217 5.22807 7.85469 5.12559 7.75004 5.05751C7.64538 5.12558 7.50791 5.22806 7.34281 5.37392C6.96708 5.70591 6.53268 6.16767 6.10941 6.65517C5.69047 7.13769 5.30079 7.62351 5.01469 7.99013C4.87221 8.17271 4.75666 8.32482 4.6768 8.43056C4.63686 8.48343 4.60564 8.52493 4.585 8.55263C4.57477 8.56635 4.56756 8.57709 4.56254 8.58388C4.56017 8.58707 4.55784 8.58915 4.55668 8.59071L4.5557 8.59267Z" fill="currentColor" />
    <path d="M18.1153 3.00004C18.543 3.00004 18.9776 2.99703 19.3146 3.04593C19.6148 3.08955 20.1719 3.21864 20.4825 3.75199L20.5411 3.86332L20.59 3.98051C20.8006 4.56041 20.5426 5.07061 20.3839 5.32914C20.2057 5.61939 19.9254 5.95165 19.6515 6.28031L17.3849 9.00004H19.7501C20.3024 9.00004 20.7501 9.44775 20.7501 10C20.7501 10.5523 20.3024 11 19.7501 11H17.3849C16.9572 11 16.5226 11.003 16.1857 10.9541C15.8655 10.9076 15.2531 10.7641 14.9591 10.1368C14.6651 9.5091 14.9471 8.94669 15.1163 8.67093C15.2945 8.38068 15.5749 8.04842 15.8487 7.71976L18.1153 5.00004H15.7501C15.1978 5.00004 14.7501 4.55232 14.7501 4.00004C14.7501 3.44775 15.1978 3.00004 15.7501 3.00004H18.1153Z" fill="currentColor" />
    <path d="M17.7499 13C18.3528 13 18.7733 13.3458 19.0282 13.6631C19.2747 13.9698 19.4603 14.36 19.6142 14.7422C19.9215 15.5057 20.2362 16.6042 20.6132 17.8105L21.204 19.7021C21.3686 20.2292 21.0748 20.7894 20.5478 20.9541C20.0207 21.1186 19.4605 20.8249 19.2958 20.2979L18.8896 19H16.6103L16.204 20.2979C16.0393 20.8249 15.4791 21.1186 14.9521 20.9541C14.425 20.7894 14.1313 20.2292 14.2958 19.7021L14.8866 17.8105C15.2636 16.6042 15.5783 15.5057 15.8857 14.7422C16.0395 14.36 16.2252 13.9698 16.4716 13.6631C16.7266 13.3458 17.147 13 17.7499 13ZM17.7411 15.4893C17.5815 15.8858 17.4206 16.3858 17.2304 17H18.2694C18.0793 16.3858 17.9183 15.8858 17.7587 15.4893C17.7558 15.4821 17.7528 15.4748 17.7499 15.4678C17.7471 15.4748 17.744 15.4821 17.7411 15.4893Z" fill="currentColor" />
</svg>