<svg xmlns="http://www.w3.org/2000/svg" width="24" height="24" viewBox="0 0 24 24" fill="none">
    <path d="M8.00004 3.00041C8.41027 3.0004 8.76524 3.17959 8.99125 3.31584C9.24458 3.46859 9.4962 3.66849 9.73148 3.87638C10.2046 4.29438 10.7055 4.83264 11.1504 5.34513C11.5996 5.86251 12.0124 6.37685 12.3116 6.76017C12.4615 6.95233 12.5837 7.11304 12.669 7.22599C12.7116 7.28246 12.7456 7.32693 12.7686 7.35783C12.7801 7.37326 12.7888 7.38564 12.795 7.39396C12.798 7.39807 12.8011 7.40145 12.8028 7.40373C12.8034 7.40461 12.8043 7.40513 12.8047 7.40568V7.40763H12.8057C13.1329 7.85231 13.0374 8.47866 12.5928 8.80607C12.1481 9.13321 11.5218 9.03774 11.1944 8.59318L11.1934 8.59123C11.1922 8.58967 11.1899 8.58757 11.1875 8.58439C11.1825 8.57761 11.1753 8.56684 11.1651 8.55314C11.1444 8.52545 11.1132 8.48392 11.0733 8.43107C10.9934 8.32533 10.8779 8.1732 10.7354 7.99064C10.4493 7.62403 10.0596 7.13819 9.64066 6.65568C9.42684 6.40941 9.21055 6.16935 9.00004 5.94963V20.0004C9.00004 20.5527 8.55232 21.0004 8.00004 21.0004C7.44781 21.0003 7.00004 20.5527 7.00004 20.0004V5.94963C6.78954 6.16934 6.57323 6.40942 6.35941 6.65568C5.94048 7.13819 5.55079 7.62404 5.26469 7.99064C5.12221 8.1732 5.00666 8.32534 4.9268 8.43107C4.88687 8.48393 4.85563 8.52546 4.835 8.55314C4.82478 8.56685 4.81756 8.57761 4.81254 8.58439C4.81017 8.58758 4.80783 8.58967 4.80668 8.59123L4.8057 8.59318L4.74027 8.67228C4.40002 9.04802 3.8242 9.11217 3.40726 8.8051C2.96281 8.47767 2.86727 7.85226 3.19437 7.40763H3.19535V7.40568C3.19583 7.40503 3.19745 7.40481 3.19828 7.40373C3.19995 7.40146 3.20209 7.39806 3.20512 7.39396C3.21128 7.38564 3.21998 7.37326 3.23148 7.35783C3.25451 7.32693 3.28843 7.28248 3.33109 7.22599C3.4164 7.11305 3.53854 6.95235 3.68851 6.76017C3.98765 6.37686 4.40044 5.86251 4.84965 5.34513C5.29461 4.83265 5.79552 4.29438 6.26859 3.87638C6.50387 3.6685 6.7555 3.4686 7.00883 3.31584C7.23482 3.1796 7.58983 3.00044 8.00004 3.00041ZM18 13.0004C19.6569 13.0004 21 14.3436 21 16.0004V18.0004C21 19.6573 19.6569 21.0004 18 21.0004C16.3432 21.0003 15 19.6572 15 18.0004V16.0004C15 14.3436 16.3432 13.0005 18 13.0004ZM18 15.0004C17.4478 15.0005 17 15.4482 17 16.0004V18.0004C17 18.5527 17.4478 19.0003 18 19.0004C18.5523 19.0004 19 18.5527 19 18.0004V16.0004C19 15.4481 18.5523 15.0004 18 15.0004ZM16.7412 3.23478C17.0062 3.09043 17.5076 2.87336 18.0606 3.09318L18.1719 3.14299L18.2784 3.20256C18.784 3.51352 18.9115 4.04315 18.9551 4.34123C19.0028 4.66717 19 5.08514 19 5.48869V9.00041H20C20.5523 9.00041 21 9.44812 21 10.0004C21 10.5527 20.5523 11.0004 20 11.0004H16C15.4478 11.0003 15 10.5527 15 10.0004C15 9.44816 15.4478 9.00047 16 9.00041H17V5.48869C17 5.48757 16.9991 5.48592 16.9991 5.48478L16.6006 5.78654C16.1595 6.11786 15.5332 6.02896 15.2012 5.5883C14.8693 5.1469 14.9581 4.51985 15.3995 4.18791L15.7989 3.88713C16.1205 3.64522 16.4522 3.39233 16.7412 3.23478Z" fill="currentColor" />
</svg>