<svg xmlns="http://www.w3.org/2000/svg" width="24" height="24" viewBox="0 0 24 24" fill="none">
    <path d="M6.75018 19V4C6.75018 3.44772 7.1979 3 7.75018 3C8.30247 3 8.75018 3.44772 8.75018 4V19C8.75018 19.5523 8.30247 20 7.75018 20C7.1979 20 6.75018 19.5523 6.75018 19Z" fill="currentColor" />
    <path d="M10.9445 15.4072C11.2719 14.9626 11.8983 14.8671 12.343 15.1943C12.7875 15.5217 12.883 16.1481 12.5559 16.5928H12.5549V16.5947C12.5545 16.5953 12.5536 16.5958 12.5529 16.5967C12.5512 16.5989 12.5482 16.6023 12.5451 16.6064C12.5389 16.6148 12.5303 16.6271 12.5187 16.6426C12.4957 16.6735 12.4618 16.7179 12.4191 16.7744C12.3338 16.8874 12.2117 17.048 12.0617 17.2402C11.7626 17.6235 11.3498 18.1379 10.9006 18.6553C10.4556 19.1678 9.95472 19.706 9.48164 20.124C9.24634 20.3319 8.99475 20.5318 8.7414 20.6846C8.5154 20.8208 8.16045 21 7.75019 21C7.33995 21 6.98498 20.8208 6.75898 20.6846C6.50564 20.5318 6.25404 20.3319 6.01875 20.124C5.54566 19.706 5.04478 19.1678 4.5998 18.6553C4.15059 18.1379 3.73782 17.6235 3.43867 17.2402C3.28868 17.048 3.16656 16.8874 3.08125 16.7744C3.03857 16.7179 3.00467 16.6735 2.98164 16.6426C2.97012 16.6271 2.96144 16.6148 2.95527 16.6064C2.95223 16.6023 2.95011 16.5989 2.94843 16.5967C2.94761 16.5956 2.94599 16.5954 2.9455 16.5947V16.5928H2.94453C2.61739 16.1481 2.71292 15.5227 3.15742 15.1953C3.60211 14.8678 4.22834 14.9625 4.55586 15.4072L4.55683 15.4092C4.55799 15.4107 4.56032 15.4128 4.56269 15.416C4.56772 15.4228 4.57492 15.4335 4.58515 15.4473C4.60579 15.4749 4.63702 15.5165 4.67695 15.5693C4.75682 15.6751 4.87236 15.8272 5.01484 16.0098C5.30095 16.3764 5.69062 16.8622 6.10957 17.3447C6.53284 17.8322 6.96722 18.294 7.34297 18.626C7.50806 18.7718 7.64554 18.8743 7.75019 18.9424C7.85484 18.8743 7.99232 18.7718 8.15742 18.626C8.53315 18.294 8.96755 17.8322 9.39082 17.3447C9.80976 16.8622 10.1994 16.3764 10.4855 16.0098C10.628 15.8272 10.7436 15.6751 10.8234 15.5693C10.8634 15.5164 10.8946 15.4749 10.9152 15.4473C10.9255 15.4335 10.9327 15.4228 10.9377 15.416C10.9401 15.4128 10.9424 15.4107 10.9436 15.4092L10.9445 15.4072Z" fill="currentColor" />
    <path d="M18.1154 13C18.5431 13 18.9777 12.997 19.3146 13.0459C19.6149 13.0895 20.172 13.2186 20.4826 13.7519L20.5412 13.8633L20.59 13.9804C20.8007 14.5604 20.5426 15.0706 20.384 15.3291C20.2058 15.6193 19.9254 15.9516 19.6516 16.2802L17.3849 19H19.7502C20.3025 19 20.7502 19.4477 20.7502 20C20.7502 20.5523 20.3025 21 19.7502 21H17.3849C16.9573 21 16.5227 21.003 16.1857 20.9541C15.8656 20.9076 15.2532 20.7641 14.9592 20.1367C14.6652 19.509 14.9471 18.9466 15.1164 18.6709C15.2946 18.3806 15.5749 18.0484 15.8488 17.7197L18.1154 15H15.7502C15.1979 15 14.7502 14.5523 14.7502 14C14.7502 13.4477 15.1979 13 15.7502 13H18.1154Z" fill="currentColor" />
    <path d="M17.7502 3.3526C18.2627 3.3526 18.67 3.58662 18.965 3.88971C19.2354 4.16752 19.435 4.52371 19.5959 4.87408C19.9169 5.57289 20.2316 6.58847 20.6135 7.81061L21.2043 9.70123C21.369 10.2284 21.0752 10.7894 20.548 10.9542C20.021 11.1187 19.4608 10.825 19.2961 10.2979L18.8898 9.00006H16.6105L16.2043 10.2979C16.0396 10.825 15.4794 11.1187 14.9523 10.9542C14.4252 10.7894 14.1314 10.2284 14.2961 9.70123L14.8869 7.81061C15.2688 6.58847 15.5835 5.57289 15.9045 4.87408C16.0654 4.52371 16.265 4.16752 16.5353 3.88971C16.8304 3.58662 17.2376 3.3526 17.7502 3.3526ZM17.7219 5.70905C17.575 6.02879 17.4235 6.45237 17.2434 7.00006H18.257C18.0769 6.45237 17.9254 6.02879 17.7785 5.70905C17.7691 5.68857 17.7591 5.66917 17.7502 5.65045C17.7412 5.66917 17.7313 5.68857 17.7219 5.70905Z" fill="currentColor" />
</svg>