<svg xmlns="http://www.w3.org/2000/svg" width="24" height="24" viewBox="0 0 24 24" fill="none">
    <path d="M12.9999 21C12.9999 21.5523 12.5522 22 11.9999 22C11.4476 22 10.9999 21.5523 10.9999 21L10.9999 8.00003C10.9999 7.44775 11.4476 7.00003 11.9999 7.00003C12.5522 7.00003 12.9999 7.44775 12.9999 8.00003L12.9999 21Z" fill="currentColor" />
    <path d="M5.99991 2.00003L17.9999 2.00003C18.5522 2.00003 18.9999 2.44775 18.9999 3.00003C18.9999 3.55232 18.5522 4.00003 17.9999 4.00003L5.99991 4.00003C5.44762 4.00003 4.99991 3.55231 4.99991 3.00003C4.99991 2.44775 5.44762 2.00003 5.99991 2.00003Z" fill="currentColor" />
    <path d="M17.8056 11.4073C18.1327 11.8519 18.0372 12.4773 17.5927 12.8047C17.148 13.1322 16.5218 13.0375 16.1942 12.5928L16.1933 12.5909C16.1918 12.5888 16.1887 12.5854 16.1854 12.5811C16.179 12.5724 16.1692 12.5585 16.1562 12.541C16.1301 12.506 16.091 12.454 16.0409 12.3877C15.9404 12.2546 15.7943 12.0636 15.6151 11.834C15.2559 11.3737 14.7666 10.7627 14.2392 10.1553C13.7074 9.54283 13.1565 8.95604 12.6747 8.5303C12.4329 8.31666 12.2317 8.1646 12.077 8.07132C12.0474 8.05343 12.0206 8.0421 11.9999 8.03128C11.9792 8.04211 11.9525 8.05341 11.9228 8.07132C11.7681 8.16459 11.5669 8.31665 11.3251 8.5303C10.8433 8.95603 10.2924 9.54283 9.76064 10.1553C9.23324 10.7627 8.74392 11.3737 8.38467 11.834C8.20553 12.0636 8.05944 12.2546 7.95888 12.3877C7.9088 12.454 7.86974 12.506 7.84365 12.541C7.83061 12.5585 7.8208 12.5724 7.81435 12.5811C7.81113 12.5854 7.80804 12.5888 7.80654 12.5909L7.80556 12.5928C7.47815 13.0374 6.8518 13.1329 6.40713 12.8057C5.96255 12.4783 5.86706 11.8519 6.19424 11.4073L6.19521 11.4073L6.19521 11.4063L6.19619 11.4053C6.19673 11.4046 6.19729 11.4035 6.19814 11.4024C6.20017 11.3996 6.20319 11.3957 6.20693 11.3907C6.21449 11.3804 6.22592 11.3658 6.24013 11.3467C6.26862 11.3085 6.31018 11.2528 6.36318 11.1826C6.46915 11.0424 6.62098 10.8426 6.80752 10.6035C7.17984 10.1264 7.6931 9.48719 8.25088 8.84476C8.80437 8.20727 9.42171 7.54401 10.0009 7.03226C10.2893 6.77739 10.5917 6.53857 10.8905 6.35843C11.1619 6.19485 11.5567 6.00003 11.9999 6.00003C12.4431 6.00004 12.8379 6.19485 13.1093 6.35843C13.4081 6.53857 13.7105 6.77739 13.9989 7.03226C14.5781 7.544 15.1954 8.20729 15.7489 8.84476C16.3067 9.48717 16.82 10.1265 17.1923 10.6035C17.3788 10.8426 17.5307 11.0424 17.6366 11.1826C17.6896 11.2528 17.7312 11.3085 17.7597 11.3467C17.7739 11.3658 17.7853 11.3805 17.7929 11.3907C17.7966 11.3957 17.7996 11.3996 17.8017 11.4024C17.8025 11.4035 17.8031 11.4046 17.8036 11.4053L17.8046 11.4063L17.8046 11.4073L17.8056 11.4073Z" fill="currentColor" />
</svg>