<svg xmlns="http://www.w3.org/2000/svg" width="24" height="24" viewBox="0 0 24 24" fill="none">
    <path d="M20 18V6C20 5.44772 20.4477 5 21 5C21.5523 5 22 5.44772 22 6V18C22 18.5523 21.5523 19 21 19C20.4477 19 20 18.5523 20 18Z" fill="currentColor" />
    <path d="M11.1953 6.40723C11.5227 5.96272 12.1481 5.8672 12.5928 6.19434V6.19531H12.5938L12.5947 6.19629C12.5955 6.19683 12.5965 6.19739 12.5977 6.19824C12.6004 6.20027 12.6043 6.2033 12.6094 6.20703C12.6196 6.21459 12.6343 6.22603 12.6533 6.24023C12.6915 6.26872 12.7472 6.31028 12.8174 6.36328C12.9577 6.46925 13.1574 6.62107 13.3965 6.80762C13.8736 7.17994 14.5129 7.6932 15.1553 8.25098C15.7927 8.80446 16.456 9.42181 16.9678 10.001C17.2226 10.2894 17.4615 10.5918 17.6416 10.8906C17.8052 11.162 18 11.5568 18 12C18 12.4432 17.8052 12.838 17.6416 13.1094C17.4615 13.4082 17.2226 13.7106 16.9678 13.999C16.456 14.5782 15.7928 15.1955 15.1553 15.749C14.5128 16.3068 13.8736 16.8201 13.3965 17.1924C13.1575 17.3789 12.9577 17.5308 12.8174 17.6367C12.7472 17.6897 12.6915 17.7313 12.6533 17.7598C12.6342 17.774 12.6196 17.7854 12.6094 17.793C12.6043 17.7967 12.6004 17.7997 12.5977 17.8018C12.5965 17.8026 12.5955 17.8032 12.5947 17.8037L12.5938 17.8047H12.5928V17.8057C12.1481 18.1328 11.5218 18.0373 11.1943 17.5928C10.8672 17.1481 10.9627 16.5218 11.4072 16.1943L11.4092 16.1934C11.4112 16.1919 11.4146 16.1888 11.4189 16.1855C11.4276 16.1791 11.4415 16.1693 11.459 16.1562C11.494 16.1302 11.546 16.0911 11.6123 16.041C11.7454 15.9405 11.9365 15.7944 12.166 15.6152C12.6264 15.256 13.2373 14.7667 13.8447 14.2393C14.323 13.824 14.7845 13.3964 15.167 13H3C2.44772 13 2 12.5523 2 12C2 11.4477 2.44772 11 3 11H15.167C14.7845 10.6036 14.323 10.176 13.8447 9.76074C13.2373 9.23333 12.6264 8.74403 12.166 8.38477C11.9365 8.20562 11.7454 8.05954 11.6123 7.95898C11.546 7.9089 11.494 7.86984 11.459 7.84375C11.4415 7.83071 11.4276 7.8209 11.4189 7.81445C11.4146 7.81123 11.4112 7.80814 11.4092 7.80664L11.4072 7.80566L11.3281 7.74023C10.9524 7.39998 10.8882 6.82417 11.1953 6.40723Z" fill="currentColor" />
</svg>