<svg xmlns="http://www.w3.org/2000/svg" width="24" height="24" viewBox="0 0 24 24" fill="none">
    <path d="M3 15V9C3 8.44772 3.44772 8 4 8C4.55228 8 5 8.44772 5 9V15C5 15.5523 4.55228 16 4 16C3.44772 16 3 15.5523 3 15Z" fill="currentColor" />
    <path d="M7 21L7 3C7 2.44772 7.44772 2 8 2C8.55228 2 9 2.44772 9 3L9 21C9 21.5523 8.55229 22 8 22C7.44772 22 7 21.5523 7 21Z" fill="currentColor" />
    <path d="M11 18L11 6C11 5.44772 11.4477 5 12 5C12.5523 5 13 5.44772 13 6L13 18C13 18.5523 12.5523 19 12 19C11.4477 19 11 18.5523 11 18Z" fill="currentColor" />
    <path d="M15 15V9C15 8.44772 15.4477 8 16 8C16.5523 8 17 8.44772 17 9V15C17 15.5523 16.5523 16 16 16C15.4477 16 15 15.5523 15 15Z" fill="currentColor" />
    <path d="M19 17L19 7C19 6.44772 19.4477 6 20 6C20.5523 6 21 6.44772 21 7L21 17C21 17.5523 20.5523 18 20 18C19.4477 18 19 17.5523 19 17Z" fill="currentColor" />
</svg>