<svg xmlns="http://www.w3.org/2000/svg" width="24" height="24" viewBox="0 0 24 24" fill="none">
    <path d="M2 13V3C2 2.44772 2.44772 2 3 2C3.55229 2 4 2.44772 4 3V13C4 14.9139 4.00229 16.2487 4.1377 17.2559C4.26924 18.2342 4.5099 18.7521 4.87891 19.1211C5.24792 19.4901 5.7658 19.7308 6.74414 19.8623C7.75128 19.9977 9.08611 20 11 20H21C21.5523 20 22 20.4477 22 21C22 21.5523 21.5523 22 21 22H11C9.14265 22 7.64892 22.0022 6.47754 21.8447C5.27745 21.6834 4.26738 21.3377 3.46485 20.5352C2.66231 19.7326 2.31664 18.7226 2.15528 17.5225C1.99779 16.3511 2 14.8573 2 13Z" fill="currentColor" />
    <path d="M5.29295 17.2929C5.68348 16.9024 6.31649 16.9024 6.70702 17.2929C7.09754 17.6834 7.09754 18.3164 6.70702 18.707L5.20702 20.207C4.81649 20.5975 4.18348 20.5975 3.79295 20.207C3.40243 19.8164 3.40243 19.1834 3.79295 18.7929L5.29295 17.2929ZM10.293 12.2929C10.6835 11.9024 11.3165 11.9024 11.707 12.2929C12.0975 12.6834 12.0975 13.3164 11.707 13.707L9.70702 15.707C9.31649 16.0975 8.68348 16.0975 8.29295 15.707C7.90243 15.3164 7.90243 14.6834 8.29295 14.2929L10.293 12.2929ZM15.293 7.29289C15.6835 6.90237 16.3165 6.90237 16.707 7.29289C17.0975 7.68342 17.0975 8.31643 16.707 8.70696L14.707 10.707C14.3165 11.0975 13.6835 11.0975 13.293 10.707C12.9024 10.3164 12.9024 9.68342 13.293 9.29289L15.293 7.29289Z" fill="currentColor" />
</svg>