<svg xmlns="http://www.w3.org/2000/svg" width="24" height="24" viewBox="0 0 24 24" fill="none">
    <path fill-rule="evenodd" clip-rule="evenodd" d="M23.25 10.375V10.4395C23.25 11.8025 23.2501 12.9017 23.1338 13.7666C23.08 14.167 22.9987 14.5392 22.8722 14.882C22.6989 14.663 22.5071 14.4243 22.3105 14.1924C22.0005 13.8264 21.6136 13.3989 21.1992 13.0459C20.991 12.8686 20.7226 12.6639 20.4072 12.4951C20.1096 12.3359 19.6171 12.125 19 12.125C18.3829 12.125 17.8904 12.3359 17.5928 12.4951C17.2774 12.6639 17.009 12.8686 16.8008 13.0459C16.3864 13.3989 15.9995 13.8264 15.6895 14.1924C15.4031 14.5304 15.1266 14.8828 14.9032 15.1676L14.8301 15.2607C14.7075 15.4168 14.6075 15.5435 14.5225 15.6475C14.4808 15.6984 14.4476 15.738 14.4219 15.7676C14.4004 15.7923 14.3891 15.8041 14.3867 15.8066C14.2213 15.9767 14.0881 16.1665 13.9872 16.3683C13.8672 16.6081 13.7929 16.8646 13.7639 17.125H7.5H7.43557C6.07251 17.125 4.97331 17.1251 4.1084 17.0088C3.20829 16.8878 2.45055 16.6283 1.84863 16.0264C1.24672 15.4245 0.987229 14.6667 0.866213 13.7666C0.74995 12.9017 0.749972 11.8025 0.75 10.4394V10.375V9.375V9.31053C0.749972 7.94748 0.74995 6.84831 0.866213 5.9834C0.987229 5.08329 1.24672 4.32555 1.84863 3.72363C2.45055 3.12172 3.20829 2.86223 4.1084 2.74121C4.97331 2.62495 6.0725 2.62497 7.43556 2.625H7.5H16.5H16.5645C17.9275 2.62497 19.0267 2.62495 19.8916 2.74121C20.7917 2.86223 21.5495 3.12172 22.1514 3.72363C22.7533 4.32555 23.0128 5.08329 23.1338 5.9834C23.2501 6.84829 23.25 7.94743 23.25 9.31045V9.375V10.375ZM12 13.125C13.7949 13.125 15.25 11.6699 15.25 9.875C15.25 8.08008 13.7949 6.625 12 6.625C10.2051 6.625 8.75 8.08008 8.75 9.875C8.75 11.6699 10.2051 13.125 12 13.125ZM20 9.875C20 9.32272 19.5523 8.875 19 8.875H18C17.4477 8.875 17 9.32272 17 9.875C17 10.4273 17.4477 10.875 18 10.875H19C19.5523 10.875 20 10.4273 20 9.875ZM7 9.875C7 9.32272 6.55229 8.875 6 8.875H5C4.44772 8.875 4 9.32272 4 9.875C4 10.4273 4.44772 10.875 5 10.875H6C6.55229 10.875 7 10.4273 7 9.875Z" fill="currentColor" />
    <path d="M18 20.375C18 20.9273 18.4477 21.375 19 21.375C19.5523 21.375 20 20.9273 20 20.375V16.501C20.2112 16.7581 20.4195 17.0196 20.6142 17.2676C20.8435 17.5595 21.0902 17.8737 21.2832 18.0723C21.6681 18.468 22.3013 18.4766 22.6973 18.0918C23.093 17.7068 23.1016 17.0737 22.7168 16.6777C22.6149 16.5728 22.4435 16.3594 22.1865 16.0322C21.9472 15.7275 21.6565 15.3551 21.3564 15.001C21.0599 14.6511 20.7254 14.2839 20.3887 13.9971C20.2199 13.8533 20.0267 13.7097 19.8174 13.5977C19.616 13.4899 19.3326 13.375 19 13.375C18.6674 13.375 18.384 13.4899 18.1826 13.5977C17.9733 13.7097 17.7801 13.8533 17.6113 13.9971C17.2746 14.2839 16.94 14.6511 16.6435 15.001C16.3434 15.3551 16.0528 15.7275 15.8135 16.0322C15.5565 16.3594 15.3851 16.5728 15.2832 16.6777C14.8984 17.0737 14.907 17.7068 15.3027 18.0918C15.6987 18.4766 16.3318 18.468 16.7168 18.0723C16.9098 17.8737 17.1565 17.5595 17.3857 17.2676C17.5805 17.0196 17.7888 16.7581 18 16.501V20.375Z" fill="currentColor" />
</svg>