<svg xmlns="http://www.w3.org/2000/svg" width="24" height="24" viewBox="0 0 24 24" fill="none">
    <path d="M21.293 14.6679C21.6835 14.2774 22.3165 14.2774 22.707 14.6679C23.0975 15.0584 23.0975 15.6914 22.707 16.082L20.914 17.8749L22.707 19.6679C23.0975 20.0584 23.0975 20.6914 22.707 21.082C22.3165 21.4725 21.6835 21.4725 21.293 21.082L19.5 19.289L17.707 21.082C17.3165 21.4725 16.6835 21.4725 16.293 21.082C15.9024 20.6914 15.9024 20.0584 16.293 19.6679L18.0859 17.8749L16.293 16.082C15.9024 15.6914 15.9024 15.0584 16.293 14.6679C16.6835 14.2774 17.3165 14.2774 17.707 14.6679L19.5 16.4609L21.293 14.6679Z" fill="currentColor" />
    <path fill-rule="evenodd" clip-rule="evenodd" d="M23.25 10.4395V10.375V9.375V9.31045C23.25 7.94743 23.2501 6.84829 23.1338 5.9834C23.0128 5.08329 22.7533 4.32555 22.1514 3.72363C21.5495 3.12172 20.7917 2.86223 19.8916 2.74121C19.0267 2.62495 17.9275 2.62497 16.5645 2.625H16.5H7.5H7.43556C6.0725 2.62497 4.97331 2.62495 4.1084 2.74121C3.20829 2.86223 2.45055 3.12172 1.84863 3.72363C1.24672 4.32555 0.987229 5.08329 0.866213 5.9834C0.74995 6.84831 0.749972 7.94748 0.75 9.31053V9.375V10.375V10.4394C0.749972 11.8025 0.74995 12.9017 0.866213 13.7666C0.987229 14.6667 1.24672 15.4245 1.84863 16.0264C2.45055 16.6283 3.20829 16.8878 4.1084 17.0088C4.97331 17.1251 6.07251 17.125 7.43557 17.125H7.5H15.5684L15.4092 16.9658C14.5305 16.0871 14.5305 14.6629 15.4092 13.7842C16.2879 12.9055 17.7121 12.9055 18.5908 13.7842L19.5 14.6934L20.4092 13.7842C21.1583 13.0351 22.304 12.9246 23.1701 13.4528C23.25 12.6404 23.25 11.6428 23.25 10.4395ZM15.25 9.875C15.25 11.6699 13.7949 13.125 12 13.125C10.2051 13.125 8.75 11.6699 8.75 9.875C8.75 8.08008 10.2051 6.625 12 6.625C13.7949 6.625 15.25 8.08008 15.25 9.875ZM19 8.875C19.5523 8.875 20 9.32272 20 9.875C20 10.4273 19.5523 10.875 19 10.875H18C17.4477 10.875 17 10.4273 17 9.875C17 9.32272 17.4477 8.875 18 8.875H19ZM6 8.875C6.55229 8.875 7 9.32272 7 9.875C7 10.4273 6.55229 10.875 6 10.875H5C4.44772 10.875 4 10.4273 4 9.875C4 9.32272 4.44772 8.875 5 8.875H6Z" fill="currentColor" />
</svg>