<svg xmlns="http://www.w3.org/2000/svg" width="24" height="24" viewBox="0 0 24 24" fill="none">
    <path d="M23.25 12.5V12.5645C23.25 13.9275 23.2501 15.0267 23.1338 15.8916C23.0128 16.7917 22.7533 17.5495 22.1514 18.1514C21.5495 18.7533 20.7917 19.0128 19.8916 19.1338C19.0267 19.2501 17.9275 19.25 16.5645 19.25H16.5H7.5H7.43557C6.07251 19.25 4.97331 19.2501 4.1084 19.1338C3.20829 19.0128 2.45055 18.7533 1.84863 18.1514C1.24672 17.5495 0.987229 16.7917 0.866213 15.8916C0.749949 15.0267 0.749972 13.9275 0.750002 12.5644V12.5V11.5V11.4356C0.749972 10.0725 0.749949 8.97332 0.866213 8.1084C0.987229 7.20829 1.24672 6.45055 1.84863 5.84863C2.45055 5.24672 3.20829 4.98723 4.1084 4.86621C4.97332 4.74995 6.07249 4.74997 7.43556 4.75H7.5H16.5H16.5645C17.9275 4.74997 19.0267 4.74995 19.8916 4.86621C20.7917 4.98723 21.5495 5.24672 22.1514 5.84863C22.7533 6.45055 23.0128 7.20829 23.1338 8.1084C23.2501 8.97329 23.25 10.0724 23.25 11.4354V11.5V12.5ZM12 15.25C13.7949 15.25 15.25 13.7949 15.25 12C15.25 10.2051 13.7949 8.75 12 8.75C10.2051 8.75 8.75 10.2051 8.75 12C8.75 13.7949 10.2051 15.25 12 15.25ZM20 12C20 11.4477 19.5523 11 19 11H18C17.4477 11 17 11.4477 17 12C17 12.5523 17.4477 13 18 13H19C19.5523 13 20 12.5523 20 12ZM7 12C7 11.4477 6.55229 11 6 11H5C4.44772 11 4 11.4477 4 12C4 12.5523 4.44772 13 5 13H6C6.55229 13 7 12.5523 7 12Z" fill="currentColor" />
</svg>