<svg xmlns="http://www.w3.org/2000/svg" width="24" height="24" viewBox="0 0 24 24" fill="none">
    <path d="M12 3C12.8761 3 13.397 3.63205 13.709 4.12695C14.0342 4.64295 14.3624 5.38477 14.7412 6.23438L18.9131 15.5928C19.138 16.0972 18.9116 16.6882 18.4072 16.9131C17.9028 17.138 17.3118 16.9116 17.0869 16.4072L15.5674 13H8.43261L6.91308 16.4072C6.68815 16.9116 6.09715 17.138 5.59277 16.9131C5.08842 16.6882 4.86203 16.0972 5.08691 15.5928L9.25878 6.23438C9.63758 5.38477 9.96575 4.64295 10.291 4.12695C10.603 3.63205 11.1238 3 12 3ZM11.9824 5.19336C11.7526 5.55789 11.4923 6.1374 11.0859 7.04883L9.32421 11H14.6758L12.9141 7.04883C12.5077 6.1374 12.2474 5.55789 12.0176 5.19336C12.0118 5.18413 12.0055 5.17557 12 5.16699C11.9945 5.17557 11.9882 5.18413 11.9824 5.19336Z" fill="currentColor" />
    <path d="M20 19C20.5523 19 21 19.4477 21 20C21 20.5523 20.5523 21 20 21H4C3.44772 21 3 20.5523 3 20C3 19.4477 3.44772 19 4 19H20Z" fill="currentColor" />
</svg>