<svg xmlns="http://www.w3.org/2000/svg" width="24" height="24" viewBox="0 0 24 24" fill="none">
    <path d="M20.6975 14.7495C20.6816 14.9763 20.6608 15.19 20.6338 15.3911C20.5128 16.2912 20.2533 17.049 19.6514 17.6509C19.0495 18.2528 18.2917 18.5123 17.3916 18.6333C16.5267 18.7496 15.4275 18.7495 14.0645 18.7495H14H8H7.93557C6.57251 18.7495 5.47331 18.7496 4.6084 18.6333C3.70829 18.5123 2.95055 18.2528 2.34863 17.6509C1.74672 17.049 1.48723 16.2912 1.36621 15.3911C1.24995 14.5262 1.24997 13.427 1.25 12.0639V11.9995V11.9351C1.24997 10.572 1.24995 9.47284 1.36621 8.60791C1.48723 7.7078 1.74672 6.95006 2.34863 6.34815C2.95055 5.74623 3.70829 5.48674 4.6084 5.36572C5.47333 5.24946 6.57252 5.24948 7.93561 5.24951H8H14H14.0644C15.4275 5.24948 16.5267 5.24946 17.3916 5.36572C18.2917 5.48674 19.0495 5.74623 19.6514 6.34815C20.2533 6.95006 20.5128 7.7078 20.6338 8.60791C20.6608 8.80899 20.6816 9.02274 20.6975 9.24951H21C21.9665 9.24951 22.75 10.033 22.75 10.9995V12.9995C22.75 13.966 21.9665 14.7495 21 14.7495H20.6975Z" fill="currentColor" />
</svg>