<svg xmlns="http://www.w3.org/2000/svg" width="24" height="24" viewBox="0 0 24 24" fill="none">
    <path fill-rule="evenodd" clip-rule="evenodd" d="M9.75 9.74951V8.99951H9H6.51367C6.18972 8.99951 5.87536 8.92102 5.59504 8.77619C5.49278 8.72336 5.39505 8.6617 5.30304 8.5918C5.29273 8.67006 5.28471 8.7493 5.27832 8.82959C5.24999 9.1856 5.24999 9.62122 5.25 10.1433V10.2023C5.24999 10.8389 5.24998 11.217 5.29199 11.5933C5.33149 11.9469 5.3985 12.2971 5.49317 12.6401C5.5933 13.0029 5.73285 13.3517 5.96674 13.9364L6.39258 15.0005C6.59026 15.4947 6.67962 15.7182 6.75586 15.9419C7.03109 16.7496 7.19289 17.5917 7.23731 18.4438C7.24961 18.6799 7.25 18.9204 7.25 19.4526L7.24998 19.5288C7.24976 19.9605 7.2496 20.2938 7.31348 20.5864C7.54289 21.6365 8.36299 22.4566 9.41309 22.686C9.70574 22.7499 10.039 22.7497 10.4706 22.7495H13.5293C13.961 22.7497 14.2943 22.7499 14.5869 22.686C15.637 22.4566 16.4571 21.6365 16.6865 20.5864C16.7292 20.3911 16.7433 20.1777 16.7479 19.929C16.7502 19.8051 16.7501 19.6724 16.75 19.5289L16.75 19.4526C16.75 18.9204 16.7504 18.6799 16.7627 18.4438C16.7887 17.9443 16.8551 17.4482 16.961 16.9605L13.8795 13.879C13.474 14.1146 13.0028 14.2495 12.5 14.2495C10.9812 14.2495 9.75 13.0183 9.75 11.4995V9.74951ZM15.201 12.0189L17.7718 14.5897L18.0333 13.9364C18.2672 13.3517 18.4067 13.0029 18.5068 12.6401C18.6015 12.2971 18.6685 11.9469 18.708 11.5933C18.75 11.217 18.75 10.8389 18.75 10.2024V10.1433C18.75 9.62119 18.75 9.18558 18.7217 8.82959C18.7158 8.75567 18.7085 8.68263 18.6994 8.61043C18.3597 8.86025 17.9452 8.99951 17.5137 8.99951H15.25V11.4995C15.25 11.6771 15.2332 11.8507 15.201 12.0189Z" fill="currentColor" />
    <path fill-rule="evenodd" clip-rule="evenodd" d="M6.30109 3.11896C6.88127 2.57947 7.65894 2.24951 8.51367 2.24951C8.80273 2.24951 9.08374 2.2876 9.35156 2.35889C10.0303 1.6748 10.9722 1.24951 12.0137 1.24951C13.0547 1.24951 13.9961 1.67505 14.6748 2.35889C14.9429 2.28735 15.2241 2.24951 15.5137 2.24951C17.3086 2.24951 18.7637 3.70459 18.7637 5.49951C18.7637 6.23022 18.5212 6.90649 18.1133 7.44971C18.0168 7.57837 17.8831 7.6709 17.7329 7.7168C17.6626 7.73828 17.5889 7.74951 17.5137 7.74951H14V10.8179L11 7.81787V7.74951H10.9316L6.30109 3.11896ZM11 10.9995V11.4995C11 12.3279 11.6716 12.9995 12.5 12.9995C12.6515 12.9995 12.7978 12.977 12.9357 12.9352L11 10.9995ZM5.91406 7.44971C6.05566 7.63843 6.27783 7.74951 6.51367 7.74951H7.75L5.27157 5.27109C5.26634 5.34655 5.26367 5.42272 5.26367 5.49951C5.26367 6.23022 5.5061 6.90649 5.91406 7.44971Z" fill="currentColor" />
    <path d="M1.29289 1.2924C1.68342 0.901881 2.31643 0.901881 2.70696 1.2924L22.707 21.2924C23.0975 21.6829 23.0975 22.3159 22.707 22.7065C22.3164 23.097 21.6834 23.097 21.2929 22.7065L1.29289 2.70647C0.902369 2.31594 0.902369 1.68293 1.29289 1.2924Z" fill="currentColor" />
</svg>