<svg xmlns="http://www.w3.org/2000/svg" width="24" height="24" viewBox="0 0 24 24" fill="none">
    <path d="M21.0005 8.12548C21.0005 6.07119 20.2887 4.26896 19.1831 2.70262C18.8646 2.25146 18.9722 1.62661 19.4233 1.30809C19.8745 0.989627 20.4993 1.09723 20.8179 1.54833C22.1122 3.38196 23.0005 5.57982 23.0005 8.12548C23.0005 8.67776 22.5528 9.12548 22.0005 9.12548C21.4482 9.12548 21.0005 8.67776 21.0005 8.12548Z" fill="currentColor" />
    <path d="M1 8.12548C1 5.57982 1.88829 3.38196 3.18262 1.54833C3.50114 1.09723 4.12599 0.989627 4.57715 1.30809C5.02825 1.62661 5.13585 2.25146 4.81738 2.70262C3.71176 4.26896 3 6.07119 3 8.12548C3 8.67776 2.55228 9.12548 2 9.12548C1.44772 9.12548 1 8.67776 1 8.12548Z" fill="currentColor" />
    <path fill-rule="evenodd" clip-rule="evenodd" d="M7.68945 20.125C8.44439 21.749 10.0903 22.875 11.9991 22.875C13.908 22.875 15.5539 21.749 16.3088 20.125H7.68945Z" fill="currentColor" />
    <path d="M16.6911 18.875H19.5629H19.5835C19.9283 18.875 20.2227 18.875 20.4555 18.8604C20.6821 18.8461 20.9529 18.8143 21.1996 18.6914C21.871 18.357 22.2492 17.6356 22.1547 16.9023L22.1303 16.7559L22.1039 16.6562C22.0356 16.4292 21.9113 16.2318 21.7973 16.0693C21.6682 15.8854 21.4922 15.6654 21.2868 15.4088L21.2504 15.3633L21.0815 15.1514C20.6164 14.57 20.4159 14.3189 20.2485 14.0596C19.713 13.2301 19.3817 12.2849 19.2817 11.3027C19.2504 10.9958 19.2504 10.6753 19.2504 9.93162V8.625V8.60702C19.2504 8.16575 19.2504 7.9072 19.2358 7.68359C19.0142 4.30362 16.3217 1.61138 12.9418 1.38965C12.7183 1.375 12.4596 1.375 12.0185 1.375H12.0004H11.9819C11.5408 1.375 11.2816 1.375 11.058 1.38965C7.67815 1.61141 4.98563 4.30364 4.76409 7.68359C4.75029 7.89427 4.75033 8.13584 4.75041 8.5321L4.75042 8.625V9.93066C4.75042 10.675 4.74946 10.9957 4.71819 11.3027C4.61813 12.2849 4.28683 13.2301 3.7514 14.0596C3.58398 14.3189 3.38349 14.57 2.91839 15.1514L2.74944 15.3633L2.74269 15.3717C2.52466 15.6443 2.33881 15.8766 2.20355 16.0693C2.08947 16.2319 1.96435 16.429 1.89593 16.6562L1.86956 16.7559C1.70086 17.5378 2.08422 18.3347 2.80023 18.6914C3.04696 18.8143 3.31781 18.8461 3.54437 18.8604C3.77719 18.875 4.07149 18.875 4.41627 18.875H4.43694H7.30884H8.83693H15.163H16.6911Z" fill="currentColor" />
</svg>