<svg xmlns="http://www.w3.org/2000/svg" width="24" height="24" viewBox="0 0 24 24" fill="none">
    <path fill-rule="evenodd" clip-rule="evenodd" d="M7.68945 19.9995C8.44439 21.6235 10.0903 22.7495 11.9991 22.7495C13.908 22.7495 15.5539 21.6235 16.3088 19.9995H7.68945Z" fill="currentColor" />
    <path d="M16.6911 18.7495H19.5629H19.5835C19.9283 18.7495 20.2227 18.7495 20.4555 18.7349C20.6821 18.7206 20.9529 18.6888 21.1996 18.5659C21.871 18.2315 22.2492 17.5101 22.1547 16.7769L22.1303 16.6304L22.1039 16.5308C22.0356 16.3037 21.9113 16.1063 21.7973 15.9438C21.6682 15.7599 21.4922 15.5399 21.2868 15.2833L21.2504 15.2378L21.0815 15.0259C20.6164 14.4445 20.4159 14.1934 20.2485 13.9341C19.713 13.1046 19.3817 12.1594 19.2817 11.1772C19.2504 10.8703 19.2504 10.5498 19.2504 9.80613V8.49951V8.48153C19.2504 8.04027 19.2504 7.78172 19.2358 7.55811C19.0142 4.17813 16.3217 1.48589 12.9418 1.26416C12.7183 1.24951 12.4596 1.24951 12.0185 1.24951H12.0004H11.9819C11.5408 1.24951 11.2816 1.24951 11.058 1.26416C7.67815 1.48592 4.98563 4.17815 4.76409 7.55811C4.75029 7.76878 4.75033 8.01035 4.75041 8.40662L4.75042 8.49951V9.80518C4.75042 10.5496 4.74946 10.8702 4.71819 11.1772C4.61813 12.1594 4.28683 13.1046 3.7514 13.9341C3.58398 14.1934 3.38349 14.4445 2.91839 15.0259L2.74944 15.2378L2.74269 15.2462C2.52466 15.5188 2.33881 15.7511 2.20355 15.9438C2.08947 16.1064 1.96435 16.3035 1.89593 16.5308L1.86956 16.6304C1.70086 17.4123 2.08422 18.2092 2.80023 18.5659C3.04696 18.6888 3.31781 18.7206 3.54437 18.7349C3.77719 18.7495 4.07149 18.7495 4.41627 18.7495H4.43694H7.30884H8.83693H15.163H16.6911Z" fill="currentColor" />
</svg>