<svg xmlns="http://www.w3.org/2000/svg" width="24" height="24" viewBox="0 0 24 24" fill="none">
    <path d="M15 7.99988H21M17.995 11.0049L17.995 5.00488" stroke="currentColor" stroke-width="2" stroke-linecap="round" stroke-linejoin="round" />
    <path fill-rule="evenodd" clip-rule="evenodd" d="M7.68945 20C8.44439 21.624 10.0903 22.75 11.9991 22.75C13.908 22.75 15.5539 21.624 16.3088 20H7.68945Z" fill="currentColor" />
    <path fill-rule="evenodd" clip-rule="evenodd" d="M19.5629 18.75H16.6911H15.163H8.83693H7.30884H4.43694H4.41627C4.07152 18.75 3.77717 18.75 3.54437 18.7354C3.31781 18.7211 3.04696 18.6893 2.80023 18.5664C2.08422 18.2097 1.70086 17.4128 1.86956 16.6309L1.89593 16.5312C1.96435 16.304 2.08947 16.1069 2.20355 15.9443C2.3388 15.7516 2.52462 15.5193 2.74261 15.2468L2.74944 15.2383L2.91839 15.0264C3.38349 14.445 3.58398 14.1939 3.7514 13.9346C4.28683 13.1051 4.61813 12.1599 4.71819 11.1777C4.74946 10.8707 4.75042 10.55 4.75042 9.80566V8.5L4.75041 8.4071C4.75033 8.01084 4.75029 7.76927 4.76409 7.55859C4.98563 4.17864 7.67815 1.48641 11.058 1.26465C11.2816 1.25 11.5408 1.25 11.9819 1.25H12.0004H12.0185C12.4596 1.25 12.7183 1.25 12.9418 1.26465C14.5044 1.36716 15.9201 1.99772 17.0126 2.98016C16.2623 3.34494 15.7451 4.11452 15.7451 5.00488V5.75H15C13.7574 5.75 12.75 6.75736 12.75 8C12.7501 9.24259 13.7574 10.25 15 10.25H15.7451V11.0049C15.7451 12.2475 16.7525 13.2549 17.9951 13.2549C18.62 13.2549 19.1855 13.0001 19.5932 12.5887C19.7564 13.0604 19.976 13.5125 20.2485 13.9346C20.4159 14.1939 20.6164 14.445 21.0815 15.0264L21.2504 15.2383L21.2868 15.2838C21.4922 15.5404 21.6682 15.7604 21.7973 15.9443C21.9113 16.1068 22.0356 16.3042 22.1039 16.5312L22.1303 16.6309L22.1547 16.7773C22.2492 17.5106 21.871 18.232 21.1996 18.5664C20.9529 18.6893 20.6821 18.7211 20.4555 18.7354C20.2227 18.75 19.9283 18.75 19.5835 18.75H19.5629Z" fill="currentColor" />
</svg>