<svg xmlns="http://www.w3.org/2000/svg" width="24" height="24" viewBox="0 0 24 24" fill="none">
    <path d="M15.25 22C16.4752 22 17.1644 22 17.6758 21.8174L17.8848 21.7275C18.2962 21.5179 18.6407 21.199 18.8809 20.8076L18.9775 20.6348C19.2499 20.1 19.25 19.4 19.25 18C19.25 16.6 19.2499 15.9 18.9775 15.3652C18.7379 14.8948 18.3552 14.5121 17.8848 14.2725C17.35 14.0001 16.65 14 15.25 14H12.25C11.7786 14 11.5429 14 11.3964 14.1464C11.25 14.2929 11.25 14.5286 11.25 15V21C11.25 21.4714 11.25 21.7071 11.3964 21.8536C11.5429 22 11.7786 22 12.25 22H15.25Z" fill="currentColor" />
    <path d="M3 14C2.5286 14 2.29289 14 2.14645 14.1464C2 14.2929 2 14.5286 2 15V17C2 19.357 2.00019 20.5353 2.73242 21.2676L2.875 21.3965C3.61645 21.9999 4.79025 22 7 22H9C9.4714 22 9.70711 22 9.85355 21.8536C10 21.7071 10 21.4714 10 21V15C10 14.5286 10 14.2929 9.85355 14.1464C9.70711 14 9.4714 14 9 14H3Z" fill="currentColor" />
    <path d="M3 12.75C2.5286 12.75 2.29289 12.75 2.14645 12.6036C2 12.4571 2 12.2214 2 11.75V8.75C2 7.52477 2.00002 6.83563 2.18262 6.32422L2.27246 6.11523C2.48211 5.70378 2.80096 5.35933 3.19238 5.11914L3.36523 5.02246C3.89999 4.75007 4.60002 4.75 6 4.75C7.39998 4.75 8.10001 4.75007 8.63477 5.02246C9.10517 5.26214 9.48786 5.64483 9.72754 6.11523C9.99993 6.64999 10 7.35002 10 8.75V11.75C10 12.2214 10 12.4571 9.85355 12.6036C9.70711 12.75 9.4714 12.75 9 12.75H3Z" fill="currentColor" />
    <path d="M18 10C19.2252 10 19.9144 9.99998 20.4258 9.81738L20.6348 9.72754C21.0462 9.51789 21.3907 9.19904 21.6309 8.80762L21.7275 8.63477C21.9999 8.10001 22 7.39998 22 6C22 4.60002 21.9999 3.89999 21.7275 3.36523C21.4879 2.89483 21.1052 2.51214 20.6348 2.27246C20.1 2.00007 19.4 2 18 2C16.6 2 15.9 2.00007 15.3652 2.27246L15.1924 2.36914C14.801 2.60933 14.4821 2.95378 14.2725 3.36523L14.1826 3.57422C14 4.08563 14 4.77477 14 6C14 7.39998 14.0001 8.10001 14.2725 8.63477C14.5121 9.10517 14.8948 9.48786 15.3652 9.72754L15.5742 9.81738C16.0856 9.99998 16.7748 10 18 10Z" fill="currentColor" />
</svg>