<svg xmlns="http://www.w3.org/2000/svg" width="24" height="24" viewBox="0 0 24 24" fill="none">
    <path d="M10.9999 8V6.5C10.9999 4.01472 13.0146 2 15.4999 2C17.9852 2 19.9999 4.01472 19.9999 6.5V8" stroke="currentColor" stroke-width="2" stroke-linecap="round" stroke-linejoin="round" />
    <path d="M10.9999 7.5V9.5C10.9999 9.77614 11.2238 10 11.4999 10H11.9999C12.2761 10 12.4999 9.77614 12.4999 9.5V8C12.4999 7.72386 12.2761 7.5 11.9999 7.5H10.9999Z" stroke="currentColor" stroke-width="2" stroke-linecap="round" stroke-linejoin="round" />
    <path d="M19.9999 7.5V9.5C19.9999 9.77614 19.7761 10 19.4999 10H18.9999C18.7238 10 18.4999 9.77614 18.4999 9.5V8C18.4999 7.72386 18.7238 7.5 18.9999 7.5H19.9999Z" stroke="currentColor" stroke-width="2" stroke-linecap="round" stroke-linejoin="round" />
    <path fill-rule="evenodd" clip-rule="evenodd" d="M11.2569 1.25C9.72767 2.48747 8.74992 4.37955 8.74992 6.5V9.5C8.74992 11.0188 9.98114 12.25 11.4999 12.25H11.9999C13.5187 12.25 14.7499 11.0188 14.7499 9.5V8C14.7499 7.00072 14.2151 6.129 13.4179 5.64746C13.7539 4.8277 14.5591 4.25 15.4999 4.25C16.4406 4.25 17.2449 4.82788 17.581 5.64746C16.7842 6.12909 16.2499 7.00102 16.2499 8V9.5C16.2499 11.0188 17.4811 12.25 18.9999 12.25H19.4999C19.95 12.25 20.3749 12.1419 20.7499 11.9501V17.8633C20.7499 18.403 20.3142 18.8408 19.7773 18.8408H19.6874C19.6571 18.8768 19.6243 18.9161 19.5927 18.96C19.4253 19.1924 19.2919 19.4846 19.2919 19.8184C19.292 20.152 19.4254 20.4434 19.5927 20.6758C19.6244 20.7198 19.657 20.7598 19.6874 20.7959H19.7773C20.3141 20.7959 20.7498 21.2329 20.7499 21.7725C20.7499 22.3122 20.3142 22.75 19.7773 22.75H6.16692C4.55615 22.75 3.25002 21.4375 3.24992 19.8184V8.03516C3.2499 6.70606 3.25028 5.61063 3.36614 4.74414C3.48741 3.8374 3.75169 3.03671 4.38957 2.39551C5.02739 1.7544 5.82358 1.48814 6.72551 1.36621C7.58589 1.24996 8.68104 1.24998 9.99992 1.25H11.2569ZM6.16692 18.8398C5.62997 18.8398 5.19426 19.2777 5.19426 19.8174C5.1944 20.357 5.63006 20.7939 6.16692 20.7939H17.4999C17.4081 20.5025 17.3476 20.1761 17.3476 19.8174C17.3476 19.4584 17.408 19.1314 17.4999 18.8398H6.16692Z" fill="currentColor" />
</svg>