<svg xmlns="http://www.w3.org/2000/svg" width="24" height="24" viewBox="0 0 24 24" fill="none">
    <path fill-rule="evenodd" clip-rule="evenodd" d="M21 18C21 18.5523 20.5523 19 20 19H19.9055C19.8743 19.0367 19.8419 19.0774 19.8096 19.1221C19.6374 19.3599 19.5 19.6584 19.5 20C19.5 20.3416 19.6374 20.6401 19.8096 20.8779C19.8419 20.9226 19.8743 20.9634 19.9055 21H20C20.5523 21 21 21.4477 21 22C21 22.5523 20.5523 23 20 23H6C4.34315 23 3 21.6569 3 20V8.00001V7.94287C2.99998 6.5828 2.99996 5.46185 3.11914 4.5752C3.24389 3.64737 3.51577 2.82799 4.17188 2.17188C4.82799 1.51577 5.64737 1.24389 6.5752 1.11915C7.46184 0.999963 8.5828 0.999982 9.94287 1.00001H10H16L16.069 1C16.9542 0.999948 17.7172 0.999901 18.3281 1.08204C18.9835 1.17019 19.6115 1.36933 20.1211 1.87891C20.6307 2.38849 20.8298 3.01648 20.918 3.67188C21.0001 4.28281 21.0001 5.04585 21 5.931L21 6.00001V18ZM17.5 20C17.5 20.3671 17.5609 20.7017 17.6554 21H6C5.44772 21 5 20.5523 5 20C5 19.4477 5.44772 19 6 19H17.6554C17.5609 19.2983 17.5 19.6329 17.5 20ZM14 11C14 10.4477 13.5523 10 13 10H9C8.44772 10 8 10.4477 8 11C8 11.5523 8.44772 12 9 12H13C13.5523 12 14 11.5523 14 11ZM16 7.00001C16 6.44772 15.5523 6.00001 15 6.00001H9C8.44772 6.00001 8 6.44772 8 7.00001C8 7.55229 8.44772 8.00001 9 8.00001H15C15.5523 8.00001 16 7.55229 16 7.00001Z" fill="currentColor" />
</svg>