<svg xmlns="http://www.w3.org/2000/svg" width="24" height="24" viewBox="0 0 24 24" fill="none">
    <path d="M19.75 16.9287L19.75 16.993C19.75 18.2893 19.7501 19.3467 19.6367 20.1279C19.5229 20.9122 19.2588 21.6908 18.4854 22.0693C17.7098 22.4489 16.9353 22.1756 16.251 21.7803C15.57 21.3869 14.7434 20.7327 13.7313 19.9319L13.6816 19.8926L13.3877 19.6611C12.9284 19.2977 12.6355 19.0669 12.3955 18.9199C12.1729 18.7836 12.0696 18.7666 12 18.7666C11.9304 18.7666 11.8271 18.7836 11.6045 18.9199C11.3645 19.0669 11.0716 19.2977 10.6123 19.6611L10.3184 19.8926L10.2688 19.9318C9.25666 20.7327 8.42997 21.3869 7.74903 21.7803C7.06475 22.1756 6.29022 22.4489 5.51465 22.0693C4.74125 21.6908 4.4771 20.9122 4.36328 20.1279C4.24995 19.3467 4.24997 18.2893 4.25 16.993V16.9287V8.54199V8.48036C4.24998 7.10597 4.24995 5.99875 4.36621 5.12793C4.48703 4.22306 4.74573 3.46165 5.34668 2.85645C5.94835 2.25058 6.70644 1.98919 7.60742 1.86719C8.4733 1.74995 9.57384 1.74997 10.938 1.75H11H13H13.062C14.4262 1.74997 15.5267 1.74995 16.3926 1.86719C17.2936 1.98919 18.0517 2.25058 18.6533 2.85645C19.2543 3.46165 19.513 4.22306 19.6338 5.12793C19.75 5.99875 19.75 7.10595 19.75 8.48032V8.54199V16.9287ZM11.001 10.4951V12.5C11.001 13.0523 11.4487 13.5 12.001 13.5C12.5532 13.4999 13.001 13.0522 13.001 12.5V10.4951H15.0059C15.5581 10.4951 16.0058 10.0473 16.0059 9.49512C16.0059 8.94283 15.5581 8.49512 15.0059 8.49512H13.001V6.5C13.001 5.94776 12.5532 5.50007 12.001 5.5C11.4487 5.5 11.001 5.94772 11.001 6.5V8.49512H9.00586C8.45358 8.49512 8.00586 8.94283 8.00586 9.49512C8.00592 10.0473 8.45362 10.4951 9.00586 10.4951H11.001Z" fill="currentColor" />
</svg>