<svg xmlns="http://www.w3.org/2000/svg" width="24" height="24" viewBox="0 0 24 24" fill="none">
    <path fill-rule="evenodd" clip-rule="evenodd" d="M2.70696 1.29289C2.31643 0.902369 1.68342 0.902369 1.29289 1.29289C0.902369 1.68342 0.902369 2.31643 1.29289 2.70696L6.05088 7.46494C5.5881 7.56953 5.16955 7.72955 4.79749 7.97929C4.63942 8.08539 4.48975 8.20768 4.34864 8.3488C3.74672 8.95071 3.48723 9.70845 3.36621 10.6086C3.27784 11.266 3.25665 12.0588 3.25159 13H2C1.44772 13 1 13.4477 1 14C1 14.5523 1.44772 15 2 15H3.25158C3.25665 15.9413 3.27783 16.7342 3.36621 17.3918C3.48723 18.2919 3.74672 19.0496 4.34864 19.6515C4.95055 20.2534 5.70829 20.5129 6.6084 20.634C7.4733 20.7502 8.57254 20.7502 9.93557 20.7502H10H14H14.0645C15.4275 20.7502 16.5267 20.7502 17.3916 20.634L17.4448 20.6266C17.951 20.555 18.4115 20.4377 18.8238 20.2379L21.2929 22.707C21.6834 23.0975 22.3164 23.0975 22.707 22.707C23.0975 22.3164 23.0975 21.6834 22.707 21.2929L2.70696 1.29289ZM9 16.0002C8.44772 16.0002 8 15.5524 8 15.0002V13.0002C8 12.4479 8.44772 12.0002 9 12.0002C9.55229 12.0002 10 12.4479 10 13.0002V15.0002C10 15.5524 9.55229 16.0002 9 16.0002Z" fill="currentColor" />
    <path d="M13 7.25V6C13 4.34315 11.6569 3 10 3H9C8.44771 3 8 3.44772 8 4C8 4.55228 8.44771 5 9 5H10C10.5523 5 11 5.44772 11 6L11 7.25L10.4316 7.25L11 7.81836L12.1677 8.98601L20.6265 17.4448L20.6338 17.3916C20.7222 16.7341 20.7434 15.9413 20.7484 15H22C22.5523 15 23 14.5523 23 14C23 13.4477 22.5523 13 22 13H20.7484C20.7434 12.0588 20.7222 11.2659 20.6338 10.6084C20.5128 9.70829 20.2533 8.95055 19.6514 8.34864C19.0495 7.74672 18.2917 7.48723 17.3916 7.36621C16.5267 7.24995 15.4275 7.24997 14.0644 7.25H14H13Z" fill="currentColor" />
</svg>