<svg xmlns="http://www.w3.org/2000/svg" width="24" height="24" viewBox="0 0 24 24" fill="none">
    <path d="M17.7658 10.1876C18.2834 9.99502 18.8594 10.2588 19.0519 10.7765C19.9902 13.2985 19.9483 16.1424 18.9709 18.6563C18.7151 19.3141 18.4638 19.9782 18.1066 20.4815C17.6888 21.0702 17.1355 21.4414 16.3644 21.6036C15.5215 21.7808 14.8165 21.5705 14.1672 21.1407C13.589 20.758 12.9949 20.1578 12.341 19.504C11.9505 19.1135 11.9505 18.4805 12.341 18.0899C12.7315 17.6994 13.3645 17.6994 13.7551 18.0899C14.4686 18.8034 14.9002 19.2285 15.2707 19.4737C15.5699 19.6717 15.7365 19.6922 15.9533 19.6466C16.242 19.5858 16.3554 19.4939 16.4758 19.3243C16.6568 19.0692 16.816 18.6792 17.1066 17.9317C17.9108 15.8634 17.9412 13.5254 17.1779 11.4737C16.9854 10.9562 17.2483 10.3802 17.7658 10.1876ZM5.31658 5.00888C7.84043 3.98962 10.6962 3.91324 13.2306 4.87704C13.7469 5.07336 14.0061 5.65184 13.8097 6.16806C13.6133 6.68396 13.0358 6.94335 12.5197 6.74716C10.48 5.97148 8.14619 6.02312 6.06561 6.86337C5.31677 7.16579 4.92163 7.33213 4.66326 7.51865C4.48835 7.64498 4.39834 7.76127 4.341 8.04306C4.29789 8.2549 4.31802 8.42182 4.51971 8.7247C4.76771 9.09699 5.19621 9.53116 5.91131 10.2462C6.30166 10.6366 6.30139 11.2697 5.91131 11.6602C5.52081 12.0508 4.88682 12.0517 4.49627 11.6612C3.84011 11.0051 3.23975 10.4106 2.85565 9.83407C2.42553 9.1884 2.21 8.48569 2.38104 7.64462C2.53802 6.87323 2.90833 6.31938 3.49237 5.89755C3.99275 5.53622 4.65551 5.27585 5.31658 5.00888Z" fill="currentColor" />
    <path d="M20.5889 2.23272C20.3699 2.17849 20.1347 2.15158 19.915 2.138C19.4726 2.11065 18.9646 2.13013 18.5068 2.16241C18.0429 2.19514 17.5992 2.24431 17.2734 2.28448C17.1099 2.30466 16.974 2.322 16.8789 2.33526C16.8481 2.33955 16.8215 2.34364 16.7995 2.34703L16.7676 2.35187C16.7603 2.35292 16.7539 2.35369 16.7485 2.35434L16.7373 2.35577L16.7246 2.35772C16.1788 2.44073 15.804 2.95052 15.8867 3.4964C15.9644 4.00821 16.4167 4.3699 16.9229 4.34503L17.0313 4.33429L17.0566 4.33038L17.1065 4.32343L17.1553 4.31671C17.2415 4.3047 17.3661 4.28754 17.5176 4.26886C17.7641 4.23845 18.0781 4.2037 18.4103 4.17592L9.16797 13.4183L9.15597 13.4305C9.11154 13.423 9.06731 13.4167 9.02344 13.4114C8.72373 13.3752 8.35745 13.3752 7.95585 13.3753L7.91309 13.3753L7.80542 13.3753C7.14735 13.3748 6.63453 13.3744 6.15918 13.5491C6.09139 13.5741 6.02565 13.6011 5.95996 13.6312C5.49793 13.8425 5.13218 14.2066 4.66257 14.674L4.58887 14.7474C4.06087 15.2723 3.50429 15.824 3.01661 16.306L2.98932 16.3329C2.79448 16.5254 2.61527 16.7025 2.48536 16.8548C2.38084 16.9774 2.21574 17.1844 2.15235 17.4593L2.13184 17.5814C2.08695 18.0073 2.26126 18.4251 2.59278 18.6937C2.85395 18.9051 3.17045 18.9437 3.3545 18.9593C3.55194 18.976 3.80037 18.976 4.07126 18.9759L4.11914 18.9759C4.40988 18.9759 4.5847 18.9764 4.71485 18.9866C4.79837 18.9932 4.83313 19.0022 4.84278 19.0052C4.89816 19.0322 4.94228 19.0762 4.96919 19.1291C4.97154 19.1368 4.98054 19.1708 4.98731 19.2571C4.99763 19.3888 4.999 19.5666 4.99903 19.8607L4.99903 19.9019C4.999 20.1854 4.99898 20.4467 5.01758 20.6536C5.03487 20.8457 5.07772 21.1759 5.30957 21.4417C5.56517 21.7346 5.94119 21.8927 6.32813 21.8734C6.67634 21.8559 6.94099 21.6637 7.09278 21.5433C7.25788 21.4123 7.45015 21.2291 7.65748 21.0316L7.67286 21.0169L9.13575 19.6234L9.22556 19.5379C9.75023 19.039 10.1618 18.6476 10.3887 18.1321C10.3953 18.117 10.4018 18.1015 10.4082 18.0862C10.6262 17.5656 10.6257 16.9971 10.6251 16.2742L10.625 16.1526V16.0755L10.625 16.0221C10.6251 15.6274 10.6251 15.2662 10.5889 14.97C10.5837 14.9282 10.5777 14.886 10.5706 14.8436L10.582 14.8323L19.8244 5.58998C19.7966 5.92225 19.7619 6.2362 19.7314 6.48272C19.7128 6.63423 19.6956 6.75884 19.6836 6.84503L19.6769 6.89381L19.6699 6.94366L19.6666 6.96521C19.5837 7.51124 19.9579 8.03072 20.5039 8.11358C21.0498 8.19633 21.5596 7.82052 21.6426 7.27472L21.6445 7.263L21.646 7.25183L21.6477 7.23834C21.6506 7.21847 21.655 7.18634 21.6595 7.15385L21.6641 7.1214C21.6773 7.02627 21.6956 6.89048 21.7158 6.72687C21.756 6.40111 21.8052 5.95741 21.8379 5.49347C21.8702 5.03573 21.8897 4.52768 21.8623 4.08526C21.8487 3.86563 21.8218 3.63037 21.7676 3.41144C21.721 3.22356 21.6195 2.89911 21.3604 2.63995C21.1012 2.3808 20.7768 2.27928 20.5889 2.23272ZM4.96919 19.1291C4.96869 19.1275 4.96899 19.1286 4.96919 19.1291C4.96878 19.1282 4.96931 19.1294 4.96919 19.1291C4.96951 19.1298 4.96869 19.1281 4.96919 19.1291Z" fill="currentColor" />
</svg>