<svg xmlns="http://www.w3.org/2000/svg" width="24" height="24" viewBox="0 0 24 24" fill="none">
    <path fill-rule="evenodd" clip-rule="evenodd" d="M7.25 12.751V15.7479C7.25 16.3002 6.80228 16.7479 6.25 16.7479C5.69772 16.7479 5.25 16.3002 5.25 15.7479V12.751C4.02226 12.7635 3.3092 12.827 2.75 13.1498C2.29394 13.4131 1.91523 13.7919 1.65192 14.2479C1.25 14.9441 1.25 15.8787 1.25 17.7479C1.25 19.6171 1.25 20.5518 1.65192 21.2479C1.91523 21.704 2.29394 22.0827 2.75 22.346C3.44615 22.7479 4.38077 22.7479 6.25 22.7479C8.11923 22.7479 9.05385 22.7479 9.75 22.346C10.2061 22.0827 10.5848 21.704 10.8481 21.2479C11.25 20.5518 11.25 19.6171 11.25 17.7479C11.25 15.8787 11.25 14.9441 10.8481 14.2479C10.5848 13.7919 10.2061 13.4131 9.75 13.1498C9.1908 12.827 8.47774 12.7635 7.25 12.751Z" fill="currentColor" />
    <path fill-rule="evenodd" clip-rule="evenodd" d="M18.75 12.751V15.7479C18.75 16.3002 18.3023 16.7479 17.75 16.7479C17.1977 16.7479 16.75 16.3002 16.75 15.7479V12.751C15.5223 12.7635 14.8092 12.827 14.25 13.1498C13.7939 13.4131 13.4152 13.7919 13.1519 14.2479C12.75 14.9441 12.75 15.8787 12.75 17.7479C12.75 19.6171 12.75 20.5518 13.1519 21.2479C13.4152 21.704 13.7939 22.0827 14.25 22.346C14.9462 22.7479 15.8808 22.7479 17.75 22.7479C19.6192 22.7479 20.5538 22.7479 21.25 22.346C21.7061 22.0827 22.0848 21.704 22.3481 21.2479C22.75 20.5518 22.75 19.6171 22.75 17.7479C22.75 15.8787 22.75 14.9441 22.3481 14.2479C22.0848 13.7919 21.7061 13.4131 21.25 13.1498C20.6908 12.827 19.9777 12.7635 18.75 12.751Z" fill="currentColor" />
    <path fill-rule="evenodd" clip-rule="evenodd" d="M11 4.24792V1.25098C9.77226 1.26347 9.0592 1.32699 8.5 1.64984C8.04394 1.91315 7.66523 2.29186 7.40192 2.74792C7 3.44407 7 4.37868 7 6.24792C7 8.11715 7 9.05176 7.40192 9.74792C7.66523 10.204 8.04394 10.5827 8.5 10.846C9.19615 11.2479 10.1308 11.2479 12 11.2479C13.8692 11.2479 14.8038 11.2479 15.5 10.846C15.9561 10.5827 16.3348 10.204 16.5981 9.74792C17 9.05176 17 8.11715 17 6.24792C17 4.37868 17 3.44407 16.5981 2.74792C16.3348 2.29186 15.9561 1.91315 15.5 1.64984C14.9408 1.32699 14.2277 1.26347 13 1.25098V4.24792C13 4.8002 12.5523 5.24792 12 5.24792C11.4477 5.24792 11 4.8002 11 4.24792Z" fill="currentColor" />
</svg>