<svg xmlns="http://www.w3.org/2000/svg" width="24" height="24" viewBox="0 0 24 24" fill="none">
    <path d="M18.9999 16.9991V6.99911C18.9999 6.00476 18.9911 5.70381 18.9316 5.48153C18.7466 4.79135 18.2077 4.2524 17.5175 4.06747C17.2952 4.00791 16.9943 3.99911 15.9999 3.99911C15.4477 3.99911 14.9999 3.55139 14.9999 2.99911C14.9999 2.44682 15.4477 1.99911 15.9999 1.99911C16.8655 1.99911 17.4944 1.99094 18.0351 2.13583C19.4155 2.50569 20.4934 3.58358 20.8632 4.96395C21.0081 5.50467 20.9999 6.13352 20.9999 6.99911V16.9991C20.9999 17.8647 21.0081 18.4935 20.8632 19.0343C20.4934 20.4146 19.4155 21.4925 18.0351 21.8624C17.4944 22.0073 16.8655 21.9991 15.9999 21.9991C15.4477 21.9991 14.9999 21.5514 14.9999 20.9991C14.9999 20.4468 15.4477 19.9991 15.9999 19.9991C16.9943 19.9991 17.2952 19.9903 17.5175 19.9307C18.2077 19.7458 18.7466 19.2069 18.9316 18.5167C18.9911 18.2944 18.9999 17.9935 18.9999 16.9991Z" fill="currentColor" />
    <path d="M2.99996 16.9991V6.99911C2.99996 6.13352 2.9918 5.50467 3.13668 4.96395C3.50655 3.58358 4.58444 2.50569 5.96481 2.13583C6.50553 1.99094 7.13438 1.99911 7.99996 1.99911C8.55225 1.99911 8.99996 2.44682 8.99996 2.99911C8.99996 3.55139 8.55225 3.99911 7.99996 3.99911C7.00561 3.99911 6.70466 4.00791 6.48238 4.06747C5.7922 4.2524 5.25326 4.79135 5.06832 5.48153C5.00876 5.70381 4.99996 6.00476 4.99996 6.99911V16.9991C4.99996 17.9935 5.00876 18.2944 5.06832 18.5167C5.25326 19.2069 5.7922 19.7458 6.48238 19.9307C6.70466 19.9903 7.00561 19.9991 7.99996 19.9991C8.55225 19.9991 8.99996 20.4468 8.99996 20.9991C8.99996 21.5514 8.55225 21.9991 7.99996 21.9991C7.13437 21.9991 6.50553 22.0073 5.96481 21.8624C4.58444 21.4925 3.50655 20.4146 3.13668 19.0343C2.9918 18.4935 2.99996 17.8647 2.99996 16.9991Z" fill="currentColor" />
</svg>