<svg xmlns="http://www.w3.org/2000/svg" width="24" height="24" viewBox="0 0 24 24" fill="none">
    <path d="M4 17.9991V13.9961C4 13.4451 3.55294 12.9984 3.00195 12.9991L3.00098 12.9981L3 12.9991C2.44809 12.9991 2.00054 12.5519 2 12C1.99956 11.4482 2.44624 11.0001 2.99805 10.9991H3C3.55229 10.9991 4 10.5514 4 9.99907V5.99907C4 5.57278 3.99677 5.24288 4.04297 4.95122C4.28026 3.45384 5.45477 2.27934 6.95215 2.04204C7.24381 1.99585 7.57371 1.99907 8 1.99907C8.55229 1.99907 9 2.44679 9 2.99907C9 3.55136 8.55229 3.99907 8 3.99907C7.49773 3.99907 7.36261 4.0023 7.26563 4.01763C6.62379 4.11928 6.12021 4.62286 6.01856 5.2647C6.00323 5.36168 6 5.4968 6 5.99907V9.99907C6 10.768 5.70815 11.4672 5.23242 11.9981C5.7081 12.5285 6 13.2275 6 13.9961V17.9991C6 18.5013 6.00323 18.6365 6.01856 18.7334C6.12021 19.3753 6.62379 19.8789 7.26563 19.9805C7.36261 19.9958 7.49773 19.9991 8 19.9991C8.55229 19.9991 9 20.4468 9 20.9991C9 21.5514 8.55228 21.9991 8 21.9991C7.57371 21.9991 7.24381 22.0023 6.95215 21.9561C5.45477 21.7188 4.28026 20.5443 4.04297 19.0469C3.99677 18.7553 4 18.4254 4 17.9991Z" fill="currentColor" />
    <path d="M18 17.9991V13.9961C18 13.2277 18.2912 12.5285 18.7666 11.9981C18.2911 11.4672 18 10.7678 18 9.99907V5.99907C18 5.4968 17.9968 5.36168 17.9814 5.2647C17.8798 4.62286 17.3762 4.11928 16.7344 4.01763C16.6374 4.0023 16.5023 3.99907 16 3.99907C15.4477 3.99907 15 3.55136 15 2.99907C15 2.44679 15.4477 1.99907 16 1.99907C16.4263 1.99907 16.7562 1.99585 17.0479 2.04204C18.5452 2.27934 19.7197 3.45384 19.957 4.95122C20.0032 5.24288 20 5.57278 20 5.99907V9.99907C20 10.5167 20.3933 10.9429 20.8975 10.9942L21 10.9991H21.002C21.5538 11.0001 22.0004 11.4482 22 12C21.9995 12.5519 21.5519 12.9991 21 12.9991L20.998 12.9981C20.4471 12.9974 20 13.4451 20 13.9961V17.9991C20 18.4254 20.0032 18.7553 19.957 19.0469C19.7197 20.5443 18.5452 21.7188 17.0479 21.9561C16.7562 22.0023 16.4263 21.9991 16 21.9991C15.4477 21.9991 15 21.5514 15 20.9991C15 20.4468 15.4477 19.9991 16 19.9991C16.5023 19.9991 16.6374 19.9958 16.7344 19.9805C17.3762 19.8789 17.8798 19.3753 17.9814 18.7334C17.9968 18.6365 18 18.5013 18 17.9991Z" fill="currentColor" />
</svg>