<svg xmlns="http://www.w3.org/2000/svg" width="24" height="24" viewBox="0 0 24 24" fill="none">
    <path d="M22.25 16.911C22.2498 19.9187 19.6135 22.2489 16.5 22.2489C13.3865 22.2489 10.7502 19.9187 10.75 16.911C10.75 15.1168 11.4938 13.6338 12.6514 12.5419C12.7207 12.4766 12.791 12.411 12.8618 12.345C13.8949 11.3814 15.0361 10.3169 15.0361 8.49892C15.0361 8.20142 15.212 7.93211 15.4844 7.81239C15.7566 7.69288 16.0739 7.74512 16.293 7.94618C16.5974 8.22557 16.8993 8.67776 17.1533 9.18153C17.4152 9.70091 17.6559 10.335 17.8115 11.0214C18.0394 12.0263 18.0961 13.2166 17.6953 14.328C18.3915 14.1683 19.018 13.6132 19.293 12.8368C19.3796 12.5923 19.5864 12.4098 19.8398 12.3544C20.0934 12.2991 20.3574 12.3791 20.5381 12.5653C21.0287 13.0711 21.4484 13.8364 21.7432 14.5907C22.0392 15.3481 22.25 16.1986 22.25 16.911Z" fill="currentColor" />
    <path d="M3.1416 19.8574C3.88991 20.6057 4.83844 20.9381 6.01074 21.0957C6.08899 21.1062 6.16874 21.116 6.25 21.1251V15.249H1.77547C1.79634 15.8971 1.83429 16.4748 1.90332 16.9883C2.06096 18.1606 2.39329 19.1091 3.1416 19.8574Z" fill="currentColor" />
    <path d="M1.75 10.499V12.499V12.5486C1.75 12.9684 1.74999 13.3683 1.75181 13.749H10.2217C10.3764 13.4337 10.5534 13.1328 10.75 12.8471V9.24902H1.75181C1.74999 9.62976 1.75 10.0296 1.75 10.4494V10.499Z" fill="currentColor" />
    <path d="M3.1416 3.14063C2.39329 3.88893 2.06096 4.83746 1.90332 6.00977C1.83429 6.52321 1.79634 7.10097 1.77547 7.74902H6.25V1.8729C6.16874 1.88202 6.08899 1.89182 6.01074 1.90234C4.83844 2.05999 3.88991 2.39232 3.1416 3.14063Z" fill="currentColor" />
    <path d="M12.5 1.74902H10.5H10.4501C9.43794 1.74902 8.54154 1.74901 7.75 1.7745V7.74902H13.9319C14.1237 7.27462 14.4943 6.88179 14.9805 6.66797C15.0688 6.62916 15.1588 6.59714 15.25 6.5718V1.7745C14.4585 1.74901 13.5621 1.74902 12.5499 1.74902H12.5Z" fill="currentColor" />
    <path d="M19.8584 3.14063C19.1101 2.39232 18.1616 2.05999 16.9893 1.90234C16.911 1.89182 16.8313 1.88202 16.75 1.8729V6.74689C16.888 6.82284 17.0183 6.91586 17.1377 7.02539C17.3639 7.23294 17.5708 7.48256 17.7564 7.74902H21.2245C21.2037 7.10097 21.1657 6.52321 21.0967 6.00977C20.939 4.83746 20.6067 3.88893 19.8584 3.14063Z" fill="currentColor" />
    <path d="M10.4499 21.249H10.5H11.227C10.1627 20.1122 9.50011 18.6127 9.5 16.9111C9.5 16.33 9.56526 15.7751 9.68745 15.249H7.75V21.2236C8.54148 21.249 9.43782 21.249 10.4499 21.249Z" fill="currentColor" />
    <path d="M21.25 10.4487C21.25 10.0292 21.25 9.62955 21.2482 9.24902H18.5572C18.7452 9.70672 18.9103 10.212 19.0312 10.7451C19.0704 10.9179 19.1037 11.0986 19.1338 11.2852C19.2723 11.2186 19.4195 11.1674 19.5732 11.1338C20.1669 11.0042 20.7825 11.1522 21.25 11.5266V10.499V10.4487Z" fill="currentColor" />
    <path d="M13.6843 9.24902H12.25V11.2029C12.9545 10.5319 13.4746 9.9741 13.6843 9.24902Z" fill="currentColor" />
</svg>