<svg xmlns="http://www.w3.org/2000/svg" width="24" height="24" viewBox="0 0 24 24" fill="none">
    <path fill-rule="evenodd" clip-rule="evenodd" d="M17 19.375C17.5523 19.375 18 19.8227 18 20.375V21.875C18 22.4273 17.5523 22.875 17 22.875C16.4477 22.875 16 22.4273 16 21.875V20.375C16 19.8227 16.4477 19.375 17 19.375Z" fill="currentColor" />
    <path fill-rule="evenodd" clip-rule="evenodd" d="M7 19.375C7.55228 19.375 8 19.8227 8 20.375V21.875C8 22.4273 7.55228 22.875 7 22.875C6.44772 22.875 6 22.4273 6 21.875V20.375C6 19.8227 6.44772 19.375 7 19.375Z" fill="currentColor" />
    <path fill-rule="evenodd" clip-rule="evenodd" d="M11.9981 1.125C15.8337 1.125 18.3165 2.75119 19.5714 3.87891L19.5967 3.90234C19.9367 4.20768 20.2404 4.48015 20.4942 5.0498C20.7491 5.62206 20.7488 6.12743 20.7481 6.67871V13.8691C20.7481 15.1893 20.7484 16.2781 20.6329 17.1396C20.5116 18.044 20.247 18.8428 19.6094 19.4824C18.9716 20.1221 18.1745 20.3872 17.2725 20.5088C16.4133 20.6246 15.3273 20.625 14.0108 20.625H9.98541C8.66892 20.625 7.5829 20.6246 6.7237 20.5088C5.82173 20.3872 5.02461 20.1221 4.38678 19.4824C3.74922 18.8428 3.48461 18.044 3.36334 17.1396C3.24784 16.2781 3.24808 15.1893 3.24811 13.8691V6.67871C3.24746 6.12743 3.24716 5.62206 3.50202 5.0498C3.75579 4.48015 4.05951 4.20768 4.39948 3.90234L4.42487 3.87891C5.67977 2.75119 8.16257 1.125 11.9981 1.125ZM6.00006 16.625C5.58585 16.625 5.25006 16.9608 5.25006 17.375C5.25006 17.7892 5.58585 18.125 6.00006 18.125H6.50006C6.91428 18.125 7.25006 17.7892 7.25006 17.375C7.25006 16.9608 6.91428 16.625 6.50006 16.625H6.00006ZM11.0001 16.625C10.5858 16.625 10.2501 16.9608 10.2501 17.375C10.2501 17.7892 10.5858 18.125 11.0001 18.125H13.0001C13.4143 18.125 13.7501 17.7892 13.7501 17.375C13.7501 16.9608 13.4143 16.625 13.0001 16.625H11.0001ZM17.5001 16.625C17.0858 16.625 16.7501 16.9608 16.7501 17.375C16.7501 17.7892 17.0858 18.125 17.5001 18.125H18.0001C18.4143 18.125 18.7501 17.7892 18.7501 17.375C18.7501 16.9608 18.4143 16.625 18.0001 16.625H17.5001ZM5.19147 12.8953C5.19147 13.1292 5.19147 13.2461 5.25982 13.3292C5.32818 13.4122 5.4415 13.4344 5.66815 13.4789C5.92615 13.5295 6.21293 13.5826 6.52448 13.6357C7.96445 13.8812 9.92083 14.125 11.9991 14.125C14.0772 14.125 16.0328 13.8812 17.4727 13.6357C17.7829 13.5829 18.0687 13.53 18.326 13.4797C18.5526 13.4354 18.666 13.4132 18.7344 13.3301C18.8028 13.247 18.8028 13.1301 18.8027 12.8962L18.8019 7.22491C18.8019 6.94211 18.8018 6.80071 18.714 6.71285C18.6261 6.625 18.4847 6.625 18.2019 6.625H5.79147C5.50863 6.625 5.3672 6.625 5.27934 6.71287C5.19147 6.80074 5.19147 6.94216 5.19147 7.225V12.8953Z" fill="currentColor" />
    <path fill-rule="evenodd" clip-rule="evenodd" d="M1.5 7.875C2.05228 7.875 2.5 8.32272 2.5 8.875V9.875C2.5 10.4273 2.05228 10.875 1.5 10.875C0.947715 10.875 0.5 10.4273 0.5 9.875L0.5 8.875C0.5 8.32272 0.947715 7.875 1.5 7.875Z" fill="currentColor" />
    <path fill-rule="evenodd" clip-rule="evenodd" d="M22.5 7.875C23.0523 7.875 23.5 8.32272 23.5 8.875V9.875C23.5 10.4273 23.0523 10.875 22.5 10.875C21.9477 10.875 21.5 10.4273 21.5 9.875V8.875C21.5 8.32272 21.9477 7.875 22.5 7.875Z" fill="currentColor" />
</svg>