<svg xmlns="http://www.w3.org/2000/svg" width="24" height="24" viewBox="0 0 24 24" fill="none">
    <path fill-rule="evenodd" clip-rule="evenodd" d="M6.5 17.875C7.05228 17.875 7.5 18.3227 7.5 18.875V21.875C7.5 22.4273 7.05228 22.875 6.5 22.875C5.94772 22.875 5.5 22.4273 5.5 21.875V18.875C5.5 18.3227 5.94772 17.875 6.5 17.875ZM17.5 17.875C18.0523 17.875 18.5 18.3227 18.5 18.875V21.875C18.5 22.4273 18.0523 22.875 17.5 22.875C16.9477 22.875 16.5 22.4273 16.5 21.875V18.875C16.5 18.3227 16.9477 17.875 17.5 17.875Z" fill="currentColor" />
    <path d="M12.0713 1.125C13.8439 1.12498 15.2727 1.12508 16.3965 1.27637C17.5632 1.43347 18.5459 1.76942 19.3262 2.55078C20.1063 3.33211 20.4417 4.31603 20.5986 5.48438C20.7497 6.60992 20.75 8.0419 20.75 9.81738V12.8779C20.75 14.1964 20.7503 15.284 20.6348 16.1445C20.5135 17.0477 20.249 17.8456 19.6113 18.4844C18.9734 19.1232 18.1765 19.3883 17.2744 19.5098C16.4152 19.6255 15.3292 19.625 14.0127 19.625H9.9873C8.67082 19.625 7.58478 19.6255 6.72559 19.5098C5.82353 19.3883 5.02656 19.1232 4.38867 18.4844C3.75096 17.8456 3.48653 17.0477 3.36523 16.1445C3.27859 15.4991 3.25734 14.7257 3.25195 13.8232L3.25 12.8779V9.81641C3.24998 8.04118 3.25028 6.6098 3.40137 5.48438C3.55827 4.31603 3.89368 3.33211 4.67383 2.55078C5.45408 1.76941 6.43676 1.43347 7.60352 1.27637C8.72729 1.12508 10.1561 1.12498 11.9287 1.125H12.0713ZM5.25 15.125C4.83579 15.125 4.5 15.4608 4.5 15.875C4.5 16.2892 4.83579 16.625 5.25 16.625H5.75C6.16421 16.625 6.5 16.2892 6.5 15.875C6.5 15.4608 6.16421 15.125 5.75 15.125H5.25ZM10 15.125C9.58579 15.125 9.25 15.4608 9.25 15.875C9.25 16.2892 9.58579 16.625 10 16.625H14C14.4142 16.625 14.75 16.2892 14.75 15.875C14.75 15.4608 14.4142 15.125 14 15.125H10ZM18.25 15.125C17.8358 15.125 17.5 15.4608 17.5 15.875C17.5 16.2892 17.8358 16.625 18.25 16.625H18.75C19.1642 16.625 19.5 16.2892 19.5 15.875C19.5 15.4608 19.1642 15.125 18.75 15.125H18.25ZM12.001 3.07422C10.1403 3.07422 8.84243 3.07617 7.86328 3.20801C6.91223 3.33607 6.40856 3.57047 6.0498 3.92969C5.69105 4.28898 5.45699 4.79353 5.3291 5.74609C5.19747 6.72666 5.19531 8.02632 5.19531 9.88965V11.0264C5.19531 11.2583 5.35427 11.4612 5.58105 11.5098C7.30215 11.8768 9.57266 12.1269 12.001 12.127C14.4292 12.127 16.6998 11.8768 18.4209 11.5098C18.6477 11.4612 18.8066 11.2583 18.8066 11.0264V9.88965C18.8066 8.02632 18.8045 6.72666 18.6729 5.74609C18.545 4.79351 18.3109 4.28899 17.9521 3.92969C17.5934 3.57043 17.0897 3.33608 16.1387 3.20801C15.1595 3.07617 13.8616 3.07422 12.001 3.07422Z" fill="currentColor" />
    <path fill-rule="evenodd" clip-rule="evenodd" d="M1 10.875C1 10.3227 1.44772 9.875 2 9.875H2.52786C2.9936 9.875 3.45294 9.98344 3.8695 10.1917C4.36348 10.4387 4.56371 11.0394 4.31672 11.5334C4.06973 12.0273 3.46906 12.2276 2.97508 11.9806C2.83622 11.9111 2.68311 11.875 2.52786 11.875H2C1.44772 11.875 1 11.4273 1 10.875ZM21.4721 11.875C21.3169 11.875 21.1638 11.9111 21.0249 11.9806C20.5309 12.2276 19.9303 12.0273 19.6833 11.5334C19.4363 11.0394 19.6365 10.4387 20.1305 10.1917C20.5471 9.98344 21.0064 9.875 21.4721 9.875H22C22.5523 9.875 23 10.3227 23 10.875C23 11.4273 22.5523 11.875 22 11.875H21.4721Z" fill="currentColor" />
</svg>