<svg xmlns="http://www.w3.org/2000/svg" width="24" height="24" viewBox="0 0 24 24" fill="none">
    <path d="M17.4994 14.5399C18.2721 13.9899 19.5187 13.6862 20.8685 14.4911C21.8748 15.0912 22.3962 16.3155 22.2123 17.6493C22.0269 18.9932 21.1448 20.4359 19.4017 21.6903L19.3285 21.7431C18.7742 22.143 18.281 22.4989 17.4994 22.4989C16.7177 22.4989 16.2245 22.143 15.6703 21.7431L15.597 21.6903C13.8539 20.4359 12.9719 18.9932 12.7865 17.6493C12.6025 16.3155 13.1239 15.0912 14.1302 14.4911C15.48 13.6862 16.7266 13.9899 17.4994 14.5399Z" fill="currentColor" />
    <path fill-rule="evenodd" clip-rule="evenodd" d="M6.75 1.99902V3.09605C6.56917 3.11252 6.39506 3.13177 6.22754 3.1543C5.02745 3.31566 4.01738 3.66134 3.21485 4.46387C2.41232 5.2664 2.06664 6.27647 1.90528 7.47656C1.74995 8.63188 1.74997 10.1008 1.75 11.9228V14.0752C1.74997 15.8973 1.74995 17.3662 1.90528 18.5215C2.06664 19.7216 2.41231 20.7316 3.21485 21.5342C4.01738 22.3367 5.02745 22.6824 6.22754 22.8438C7.38287 22.9991 8.85178 22.9991 10.6739 22.999H10.75C11.3023 22.999 11.75 22.5513 11.75 21.999C11.75 21.4467 11.3023 20.999 10.75 20.999C8.83611 20.999 7.50128 20.9967 6.49414 20.8613C5.5158 20.7298 4.99792 20.4891 4.62891 20.1201C4.2599 19.7511 4.01924 19.2332 3.8877 18.2549C3.75229 17.2477 3.75 15.9129 3.75 13.999V11.999C3.75 11.8793 3.74989 11.7618 3.74978 11.6466C3.74956 11.4226 3.74936 11.2068 3.75 10.999V9.49902H19.75L19.7499 11.749C19.7499 11.749 19.7499 11.749 19.7499 11.749C19.7499 12.3013 20.1976 12.749 20.7499 12.749C20.7499 12.749 20.7499 12.749 20.7499 12.749C20.7508 12.749 20.7486 12.749 20.7486 12.749C21.3009 12.749 21.7505 12.298 21.7486 11.7457C21.7486 11.7457 21.7486 11.7514 21.7486 11.7491C21.7434 10.1764 21.7179 8.39253 21.5947 7.47656C21.4334 6.27647 21.0877 5.2664 20.2852 4.46387C19.4826 3.66134 18.4726 3.31566 17.2725 3.1543C17.1049 3.13177 16.9308 3.11252 16.75 3.09605V1.99902C16.75 1.44674 16.3023 0.999023 15.75 0.999023C15.1977 0.999023 14.75 1.44674 14.75 1.99902V3.00748C14.1581 2.999 13.5176 2.99901 12.8262 2.99902H10.6738C9.98239 2.99901 9.34185 2.999 8.75 3.00748V1.99902C8.75 1.44674 8.30229 0.999023 7.75 0.999023C7.19772 0.999023 6.75 1.44674 6.75 1.99902Z" fill="currentColor" />
</svg>