<svg xmlns="http://www.w3.org/2000/svg" width="24" height="24" viewBox="0 0 24 24" fill="none">
    <path fill-rule="evenodd" clip-rule="evenodd" d="M7 3.09593V1.9989C7 1.44662 7.44772 0.998901 8 0.998901C8.55229 0.998901 9 1.44662 9 1.9989V3.00736C9.59185 2.99888 10.2324 2.99889 10.9238 2.9989H13.0762C13.7676 2.99889 14.4081 2.99888 15 3.00736V1.9989C15 1.44662 15.4477 0.998901 16 0.998901C16.5523 0.998901 17 1.44662 17 1.9989V3.09593C17.1808 3.1124 17.3549 3.13165 17.5225 3.15417C18.7226 3.31554 19.7326 3.66121 20.5352 4.46375C21.3377 5.26628 21.6834 6.27635 21.8447 7.47644C22.0001 8.63177 22 10.1007 22 11.9228V12.9989C22 13.5512 21.5523 13.9989 21 13.9989C20.4477 13.9989 20 13.5512 20 12.9989L19.9999 11.4989L20 9.4989H4V10.9989C3.99903 11.3136 4 11.6465 4 11.9989V13.9989C4 15.9128 4.00229 17.2476 4.1377 18.2548C4.26924 19.2331 4.5099 19.751 4.87891 20.12C5.24792 20.489 5.7658 20.7297 6.74414 20.8612C7.75128 20.9966 9.08611 20.9989 11 20.9989C11.5523 20.9989 12 21.4466 12 21.9989C12 22.5512 11.5523 22.9989 11 22.9989H10.9239C9.10178 22.9989 7.63287 22.999 6.47754 22.8436C5.27745 22.6823 4.26738 22.3366 3.46485 21.5341C2.66231 20.7315 2.31664 19.7215 2.15528 18.5214C1.99995 17.366 1.99997 15.8972 2 14.0751V11.9227C1.99997 10.1007 1.99995 8.63176 2.15528 7.47644C2.31664 6.27635 2.66231 5.26628 3.46485 4.46375C4.26738 3.66121 5.27745 3.31554 6.47754 3.15417C6.64506 3.13165 6.81917 3.1124 7 3.09593Z" fill="currentColor" />
    <path d="M21.9473 16.6795C21.7708 16.1562 21.2039 15.8752 20.6807 16.0516C19.8954 16.3164 19.1475 16.82 18.4961 17.3641C17.8352 17.9161 17.2187 18.5558 16.6963 19.1522C16.3451 19.553 16.032 19.9418 15.7695 20.2801C15.5367 20.0296 15.3066 19.8381 15.083 19.6961C14.8327 19.5372 14.6034 19.4452 14.4131 19.3934C14.3186 19.3677 14.2348 19.3524 14.165 19.3436C14.1303 19.3392 14.0989 19.3365 14.0713 19.3348C14.0577 19.3339 14.045 19.3332 14.0332 19.3328C14.0304 19.3327 14.036 19.333 14.0332 19.3328C14.0301 19.3326 14.0185 19.3319 14.0156 19.3319H14C13.4478 19.3319 13.0002 19.7797 13 20.3319C13 20.8488 13.3924 21.2737 13.8955 21.326C13.9114 21.3315 13.9514 21.3469 14.0107 21.3846C14.163 21.4813 14.491 21.7527 14.8643 22.4637C15.0282 22.776 15.345 22.9793 15.6973 22.9979C16.0495 23.0163 16.3862 22.8478 16.582 22.5545L16.5869 22.5457L16.6074 22.5154C16.6263 22.4878 16.6554 22.4458 16.6934 22.3914C16.7695 22.2825 16.8829 22.1241 17.0264 21.9305C17.3141 21.5422 17.7218 21.0177 18.2012 20.4705C18.6823 19.9212 19.2234 19.3627 19.7783 18.8992C20.3428 18.4278 20.8693 18.0979 21.3193 17.9461C21.8426 17.7696 22.1237 17.2028 21.9473 16.6795Z" fill="currentColor" />
</svg>