<svg xmlns="http://www.w3.org/2000/svg" width="24" height="24" viewBox="0 0 24 24" fill="none">
    <path d="M14.5 14.249C15.0523 14.249 15.5 14.6967 15.5 15.249C15.5 15.8013 15.0523 16.249 14.5 16.249H9.5C8.94772 16.249 8.5 15.8013 8.5 15.249C8.5 14.6967 8.94772 14.249 9.5 14.249H14.5Z" fill="currentColor" />
    <path fill-rule="evenodd" clip-rule="evenodd" d="M8.1 1.24902C8.63848 1.24902 9.075 1.68656 9.075 2.2263V3.21186C9.6529 3.20355 10.2784 3.20356 10.9537 3.20357H13.0463C13.7216 3.20356 14.3471 3.20355 14.925 3.21186V2.2263C14.925 1.68656 15.3615 1.24902 15.9 1.24902C16.4385 1.24902 16.875 1.68656 16.875 2.2263V3.29849C17.0513 3.31458 17.221 3.3334 17.3843 3.3554C18.5544 3.51309 19.5397 3.85044 20.3221 4.63475C21.1046 5.41907 21.4412 6.4066 21.5985 7.57947C21.75 8.70916 21.75 10.1455 21.75 11.9275V14.025C21.75 15.8071 21.75 17.2434 21.5985 18.3731C21.4412 19.546 21.1046 20.5335 20.3221 21.3178C19.5397 22.1022 18.5544 22.4395 17.3843 22.5972C16.2572 22.7491 14.8242 22.7491 13.0463 22.749H10.9537C9.17581 22.7491 7.74279 22.7491 6.61573 22.5972C5.44558 22.4395 4.46035 22.1022 3.67786 21.3178C2.89537 20.5335 2.5588 19.546 2.40148 18.3731C2.24995 17.2434 2.24998 15.8071 2.25 14.0251V11.9275C2.24998 10.1455 2.24995 8.70915 2.40148 7.57947C2.5588 6.4066 2.89537 5.41907 3.67786 4.63475C4.46035 3.85044 5.44558 3.51309 6.61573 3.3554C6.77902 3.3334 6.94874 3.31458 7.125 3.29849V2.2263C7.125 1.68656 7.56152 1.24902 8.1 1.24902ZM4.21386 9.74902C4.20045 10.3948 4.20001 11.1368 4.20001 11.999V13.9536C4.20001 15.824 4.20208 17.1284 4.3341 18.1127C4.46235 19.0688 4.69693 19.5751 5.05673 19.9358C5.41652 20.2964 5.92166 20.5315 6.87557 20.6601C7.85752 20.7924 9.15897 20.7945 11.025 20.7945H12.975C14.8411 20.7945 16.1425 20.7924 17.1245 20.6601C18.0784 20.5315 18.5835 20.2964 18.9433 19.9358C19.3031 19.5751 19.5377 19.0688 19.6659 18.1127C19.7979 17.1284 19.8 15.824 19.8 13.9536V11.999C19.8 11.1368 19.7996 10.3948 19.7862 9.74902H4.21386Z" fill="currentColor" />
</svg>