<svg xmlns="http://www.w3.org/2000/svg" width="24" height="24" viewBox="0 0 24 24" fill="none">
    <path fill-rule="evenodd" clip-rule="evenodd" d="M6.625 1.99915V3.09618C6.44418 3.11264 6.27006 3.1319 6.10254 3.15442C4.90245 3.31578 3.89238 3.66146 3.08985 4.46399C2.28732 5.26652 1.94164 6.27659 1.78028 7.47668C1.62495 8.63199 1.62497 10.1009 1.625 11.9229V14.0754C1.62497 15.8974 1.62495 17.3663 1.78028 18.5216C1.94164 19.7217 2.28732 20.7318 3.08985 21.5343C3.89238 22.3368 4.90245 22.6825 6.10254 22.8439C7.25787 22.9992 8.72678 22.9992 10.5489 22.9991H10.625C10.9644 22.9991 11.2642 22.8301 11.445 22.5716C10.7481 22.1437 10.1217 21.612 9.58748 20.998C8.21192 20.9934 7.18342 20.9709 6.36914 20.8615C5.3908 20.7299 4.87292 20.4893 4.50391 20.1202C4.1349 19.7512 3.89424 19.2333 3.7627 18.255C3.62729 17.2479 3.625 15.913 3.625 13.9991V11.9991L3.62478 11.6466C3.62457 11.4226 3.62436 11.2069 3.625 10.9991L3.62705 10.7491L3.625 9.49915H10.6308C11.9995 8.40402 13.7358 7.74915 15.625 7.74915C18.0125 7.74915 20.1557 8.79497 21.6215 10.4535C21.6125 9.29093 21.5809 8.3035 21.4697 7.47668C21.3084 6.27659 20.9627 5.26652 20.1602 4.46399C19.3576 3.66146 18.3476 3.31578 17.1475 3.15442C16.9799 3.1319 16.8058 3.11264 16.625 3.09618V1.99915C16.625 1.44686 16.1773 0.999146 15.625 0.999146C15.0727 0.999146 14.625 1.44686 14.625 1.99915V3.0076C14.0331 2.99912 13.3926 2.99913 12.7012 2.99914H10.5488C9.85739 2.99913 9.21685 2.99912 8.625 3.0076V1.99915C8.625 1.44686 8.17729 0.999146 7.625 0.999146C7.07272 0.999146 6.625 1.44686 6.625 1.99915Z" fill="currentColor" />
    <path d="M22.375 15.7491C22.375 19.4771 19.3529 22.4991 15.625 22.4991C11.8971 22.4991 8.875 19.4771 8.875 15.7491C8.875 12.0212 11.8971 8.99915 15.625 8.99915C19.3529 8.99915 22.375 12.0212 22.375 15.7491ZM15.625 11.7491C15.0727 11.7491 14.625 12.1969 14.625 12.7491V15.7491C14.625 16.1279 14.839 16.4743 15.1777 16.6437L17.1777 17.6437C17.6717 17.8907 18.2725 17.6904 18.5195 17.1964C18.7665 16.7024 18.5662 16.1016 18.0723 15.8546L16.625 15.131V12.7491C16.625 12.1969 16.1773 11.7491 15.625 11.7491Z" fill="currentColor" />
</svg>