<svg xmlns="http://www.w3.org/2000/svg" width="24" height="24" viewBox="0 0 24 24" fill="none">
    <path d="M13.2929 12.5419C13.6834 12.1514 14.3165 12.1514 14.707 12.5419C15.0975 12.9324 15.0975 13.5655 14.707 13.956L13.414 15.2489L14.707 16.5419C15.0975 16.9324 15.0975 17.5655 14.707 17.956C14.3165 18.3465 13.6834 18.3465 13.2929 17.956L12 16.663L10.707 17.956C10.3165 18.3465 9.68345 18.3465 9.29292 17.956C8.9024 17.5655 8.9024 16.9324 9.29292 16.5419L10.5859 15.2489L9.29292 13.956C8.9024 13.5655 8.9024 12.9324 9.29292 12.5419C9.68345 12.1514 10.3165 12.1514 10.707 12.5419L12 13.8349L13.2929 12.5419Z" fill="currentColor" />
    <path fill-rule="evenodd" clip-rule="evenodd" d="M8.09996 1.24902C8.63843 1.24902 9.07496 1.68656 9.07496 2.2263V3.21186C9.65285 3.20355 10.2784 3.20356 10.9536 3.20357H13.0463C13.7216 3.20356 14.3471 3.20355 14.925 3.21186V2.2263C14.925 1.68656 15.3615 1.24902 15.9 1.24902C16.4384 1.24902 16.875 1.68656 16.875 2.2263V3.29849C17.0512 3.31458 17.2209 3.3334 17.3842 3.3554C18.5544 3.51309 19.5396 3.85044 20.3221 4.63475C21.1046 5.41907 21.4412 6.4066 21.5985 7.57947C21.75 8.70916 21.75 10.1455 21.75 11.9275V14.025C21.75 15.8071 21.75 17.2434 21.5985 18.3731C21.4412 19.546 21.1046 20.5335 20.3221 21.3178C19.5396 22.1022 18.5544 22.4395 17.3842 22.5972C16.2572 22.7491 14.8241 22.7491 13.0463 22.749H10.9536C9.17577 22.7491 7.74274 22.7491 6.61568 22.5972C5.44554 22.4395 4.4603 22.1022 3.67781 21.3178C2.89532 20.5335 2.55876 19.546 2.40144 18.3731C2.24991 17.2434 2.24993 15.8071 2.24995 14.0251V11.9275C2.24993 10.1455 2.24991 8.70915 2.40144 7.57947C2.55876 6.4066 2.89532 5.41907 3.67781 4.63475C4.4603 3.85044 5.44554 3.51309 6.61568 3.3554C6.77898 3.3334 6.9487 3.31458 7.12496 3.29849V2.2263C7.12496 1.68656 7.56148 1.24902 8.09996 1.24902ZM4.21382 9.74902C4.20041 10.3948 4.19997 11.1368 4.19997 11.999V13.9536C4.19997 15.824 4.20204 17.1284 4.33406 18.1127C4.46231 19.0688 4.69689 19.5751 5.05668 19.9358C5.41647 20.2964 5.92161 20.5315 6.87552 20.6601C7.85748 20.7924 9.15893 20.7945 11.025 20.7945H12.975C14.841 20.7945 16.1425 20.7924 17.1244 20.6601C18.0783 20.5315 18.5835 20.2964 18.9433 19.9358C19.303 19.5751 19.5376 19.0688 19.6659 18.1127C19.7979 17.1284 19.8 15.824 19.8 13.9536V11.999C19.8 11.1368 19.7995 10.3948 19.7861 9.74902H4.21382Z" fill="currentColor" />
</svg>