<svg xmlns="http://www.w3.org/2000/svg" width="24" height="24" viewBox="0 0 24 24" fill="none">
    <path fill-rule="evenodd" clip-rule="evenodd" d="M21.4481 18.2656L20.3871 17.2046L8.9317 5.74915L7.43738 4.25482C7.89831 4.24914 8.40058 4.24914 8.9484 4.24915H9.00006H15.0001H15.0517C16.4162 4.24913 17.4981 4.24912 18.3624 4.33704C19.2499 4.42734 19.9906 4.61687 20.6387 5.04993C21.1574 5.39648 21.6027 5.84182 21.9493 6.36047C22.3823 7.00862 22.5719 7.74933 22.6622 8.63684C22.7501 9.50105 22.7501 10.5831 22.7501 11.9475V11.9991V12.0509C22.7501 13.4153 22.7501 14.4972 22.6622 15.3615C22.5719 16.249 22.3823 16.9897 21.9493 17.6378C21.7999 17.8614 21.6322 18.0713 21.4481 18.2656ZM18.0001 9.99915C18.5523 9.99915 19.0001 10.4469 19.0001 10.9991C19.0001 11.5514 18.5523 11.9991 18.0001 11.9991H16.0001C15.4478 11.9991 15.0001 11.5514 15.0001 10.9991C15.0001 10.4469 15.4478 9.99915 16.0001 9.99915H18.0001Z" fill="currentColor" />
    <path fill-rule="evenodd" clip-rule="evenodd" d="M14.586 15.9992H12C11.4478 15.9992 11 15.5515 11 14.9992C11 14.4469 11.4478 13.9992 12 13.9992H12.586L14.586 15.9992ZM18.2582 19.6714L21.293 22.7062C21.6835 23.0967 22.3166 23.0967 22.7071 22.7062C23.0976 22.3157 23.0976 21.6827 22.7071 21.2922L2.70708 1.29216C2.31655 0.901636 1.68354 0.901636 1.29302 1.29216C0.902491 1.68269 0.902491 2.3157 1.29302 2.70622L3.53047 4.94368C3.4734 4.97738 3.41705 5.01278 3.36138 5.04997C2.84272 5.39653 2.39738 5.84187 2.05083 6.36052C1.61777 7.00867 1.42824 7.74938 1.33794 8.63689C1.25002 9.50112 1.25003 10.5831 1.25005 11.9475V11.9992V12.0509C1.25003 13.4153 1.25002 14.4973 1.33794 15.3615C1.42824 16.249 1.61777 16.9897 2.05083 17.6379C2.39738 18.1565 2.84272 18.6019 3.36138 18.9484C4.00952 19.3815 4.75023 19.571 5.63774 19.6613C6.50185 19.7492 7.58383 19.7492 8.94802 19.7492H9.00005H15H15.0518C16.3619 19.7492 17.4116 19.7492 18.2582 19.6714ZM10.586 11.9992L8.58598 9.99919H6.00005C5.44776 9.99919 5.00005 10.4469 5.00005 10.9992C5.00005 11.5515 5.44776 11.9992 6.00005 11.9992H10.586ZM9.00005 14.9992C9.00005 14.4469 8.55233 13.9992 8.00005 13.9992H6.00005C5.44776 13.9992 5.00005 14.4469 5.00005 14.9992C5.00005 15.5515 5.44776 15.9992 6.00005 15.9992H8.00005C8.55233 15.9992 9.00005 15.5515 9.00005 14.9992Z" fill="currentColor" />
</svg>