<svg xmlns="http://www.w3.org/2000/svg" width="24" height="24" viewBox="0 0 24 24" fill="none">
    <path fill-rule="evenodd" clip-rule="evenodd" d="M3.1389 9.04404C2.95397 9.41378 2.80066 9.7203 2.67709 9.99899L1.33488 9.32788C0.964469 9.14294 0.514197 9.29347 0.32902 9.66382C0.144079 10.0342 0.294604 10.4845 0.664957 10.6697L2.28093 11.4777C2.24975 11.8467 2.24982 12.2634 2.24991 12.7987L2.24992 12.8875V16.9988L2.24991 17.0517C2.24984 17.4813 2.24977 17.8753 2.29289 18.196C2.34068 18.5515 2.45364 18.9271 2.76261 19.2361C3.07163 19.5451 3.44718 19.658 3.80265 19.7058C4.12333 19.7489 4.51712 19.7489 4.94661 19.7488L4.99992 19.7488H5.02859C5.24573 19.7488 5.42628 19.7488 5.57023 19.7439C5.71588 19.7389 5.87509 19.7283 6.02824 19.6902C6.37991 19.6027 6.58743 19.3896 6.70491 19.269C6.71655 19.2571 6.7273 19.246 6.73722 19.2361C7.04624 18.9271 7.15916 18.5515 7.20695 18.196C7.22533 18.0593 7.23406 17.9092 7.24015 17.7488H16.7597C16.7658 17.9092 16.7745 18.0593 16.7929 18.196C16.8407 18.5515 16.9536 18.9271 17.2626 19.2361C17.2725 19.246 17.2833 19.257 17.2949 19.2689C17.4124 19.3896 17.62 19.6028 17.9716 19.6902C18.1247 19.7282 18.284 19.7389 18.4296 19.7439C18.5738 19.7488 18.7548 19.7488 18.9725 19.7488H18.9999L19.0532 19.7488C19.4827 19.7489 19.8765 19.7489 20.1972 19.7058C20.5527 19.658 20.9282 19.5451 21.2372 19.2361C21.5462 18.9271 21.6592 18.5515 21.7069 18.196C21.7501 17.8753 21.75 17.4813 21.7499 17.0517L21.7499 16.9988V12.8875L21.7499 12.7987C21.75 12.2635 21.7501 11.8467 21.7189 11.4777L23.3349 10.6697C23.7052 10.4845 23.8558 10.0342 23.6708 9.66382C23.4856 9.29347 23.0354 9.14294 22.665 9.32788L21.3231 9.99879C21.201 9.72382 21.0499 9.4217 20.8682 9.05862L20.8261 8.97437L19.7763 6.87476L19.7482 6.81857C19.4984 6.31878 19.2857 5.89339 19.0732 5.55933C18.8434 5.19828 18.5815 4.88963 18.2099 4.65992C17.8639 4.44611 17.4989 4.34786 17.1068 4.29976C17.0775 4.29617 17.0481 4.29286 17.0185 4.2898C16.9093 4.27852 16.7938 4.27034 16.6721 4.26441C16.4041 4.25136 16.1057 4.24919 15.7763 4.24884L15.6796 4.24879L15.5745 4.24878L15.5282 4.24878H8.47257L8.42444 4.24878C7.85931 4.24875 7.37866 4.24872 6.98136 4.2898C6.5557 4.33384 6.1626 4.43022 5.79093 4.65992C5.41925 4.88963 5.15742 5.19828 4.92765 5.55933C4.71097 5.89988 4.49323 6.33536 4.23703 6.8478L4.22355 6.87476L3.17375 8.97437L3.1389 9.04404ZM15.0342 5.74878H15.5282C16.1447 5.74878 16.5505 5.7496 16.8642 5.78198C17.1606 5.81263 17.3103 5.86637 17.4218 5.9353C17.5333 6.00424 17.6476 6.11371 17.8075 6.36499L17.8173 6.38036C17.9839 6.64502 18.1649 7.00455 18.4355 7.54566L19.4853 9.64527C19.604 9.88278 19.7023 10.0802 19.7841 10.2488H4.21651C4.29842 10.0802 4.39677 9.88281 4.51554 9.64527L5.56535 7.54566C5.84119 6.99397 6.02397 6.63108 6.19328 6.36499C6.35321 6.11365 6.46752 6.00424 6.57902 5.9353C6.69051 5.8664 6.83947 5.81264 7.13566 5.78198C7.44937 5.74955 7.85577 5.74878 8.47257 5.74878H15.0342ZM18.7499 13.9988C18.7499 13.5846 18.4141 13.2488 17.9999 13.2488H16.9999C16.5857 13.2488 16.2499 13.5846 16.2499 13.9988C16.2499 14.413 16.5857 14.7488 16.9999 14.7488H17.9999C18.4141 14.7488 18.7499 14.413 18.7499 13.9988ZM6.99992 13.2488C7.41413 13.2488 7.74992 13.5846 7.74992 13.9988C7.74992 14.413 7.41413 14.7488 6.99992 14.7488H5.99992C5.5857 14.7488 5.24992 14.413 5.24992 13.9988C5.24992 13.5846 5.5857 13.2488 5.99992 13.2488H6.99992Z" fill="currentColor" />
</svg>