<svg xmlns="http://www.w3.org/2000/svg" width="24" height="24" viewBox="0 0 24 24" fill="none">
    <path fill-rule="evenodd" clip-rule="evenodd" d="M15.7469 5.74918C15.7416 5.37562 15.7273 5.0417 15.6885 4.75306C15.6223 4.2615 15.473 3.79052 15.0908 3.40833C14.7086 3.02614 14.2376 2.87679 13.7461 2.81067C13.2879 2.74907 12.7156 2.74911 12.0518 2.74915L12 2.74915L11.9482 2.74915C11.2843 2.74911 10.7121 2.74907 10.2539 2.81067C9.76233 2.87679 9.29134 3.02614 8.90916 3.40833C8.52697 3.79052 8.37762 4.2615 8.3115 4.75306C8.2727 5.0417 8.25835 5.37562 8.25306 5.74918C7.76143 5.74954 7.33802 5.7533 6.98142 5.79017C6.55561 5.83419 6.16179 5.93051 5.79002 6.16028C5.41846 6.39002 5.15646 6.69866 4.92674 7.0597C4.71417 7.39377 4.50152 7.81918 4.25167 8.319L4.22361 8.37513L3.17381 10.4747L3.13161 10.5591C2.94995 10.9222 2.79888 11.2243 2.67675 11.4992L1.33494 10.8283C0.96453 10.6433 0.514258 10.7938 0.329081 11.1642C0.14414 11.5346 0.294665 11.9849 0.665018 12.17L2.28091 12.978C2.24982 13.3467 2.24989 13.7629 2.24999 14.2972L2.25 14.3878V18.4991L2.24999 18.5525C2.24992 18.9819 2.24985 19.3757 2.29297 19.6964C2.34076 20.0519 2.45368 20.4274 2.7627 20.7365C3.07172 21.0455 3.44726 21.1584 3.80273 21.2062C4.1234 21.2493 4.51721 21.2492 4.94667 21.2492L5 21.2491H5.0273C5.24509 21.2492 5.42607 21.2492 5.57031 21.2443C5.71594 21.2393 5.87519 21.2286 6.02832 21.1906C6.37995 21.1031 6.58741 20.8901 6.70494 20.7694C6.7166 20.7575 6.72737 20.7464 6.73731 20.7365C7.04632 20.4274 7.15924 20.0519 7.20703 19.6964C7.22542 19.5597 7.23414 19.4096 7.24023 19.2491H16.7598C16.7659 19.4096 16.7746 19.5597 16.793 19.6964C16.8408 20.0519 16.9537 20.4274 17.2627 20.7365L17.2773 20.7512L17.2951 20.7694C17.4126 20.8901 17.62 21.1031 17.9717 21.1906C18.1248 21.2286 18.2841 21.2393 18.4297 21.2443C18.5739 21.2492 18.7547 21.2492 18.9725 21.2491H19L19.0533 21.2492C19.4827 21.2492 19.8766 21.2493 20.1973 21.2062C20.5527 21.1584 20.9283 21.0455 21.2373 20.7365C21.5463 20.4274 21.6592 20.0519 21.707 19.6964C21.7501 19.3757 21.7501 18.9819 21.75 18.5524L21.75 18.4991V14.3878L21.75 14.2972C21.7501 13.7629 21.7502 13.3467 21.7191 12.978L23.3349 12.17C23.7053 11.9849 23.8558 11.5346 23.6709 11.1642C23.4857 10.7938 23.0354 10.6433 22.665 10.8283L21.3232 11.4991C21.2011 11.2244 21.0502 10.9225 20.8686 10.5597L20.8262 10.4747L19.7763 8.37513L19.7483 8.31903C19.4985 7.8192 19.2858 7.39377 19.0732 7.0597C18.8435 6.69866 18.5815 6.39002 18.2099 6.16028C17.8382 5.93051 17.4443 5.83419 17.0185 5.79017C16.6619 5.7533 16.2385 5.74954 15.7469 5.74918ZM8.99998 7.24915H8.47166C7.85515 7.24915 7.44934 7.24993 7.13572 7.28235C6.83949 7.31298 6.69059 7.36681 6.57908 7.43567C6.46755 7.5046 6.35234 7.61394 6.19236 7.86536C6.0231 8.13142 5.84117 8.4945 5.56541 9.04602L4.5156 11.1456C4.39683 11.3832 4.2985 11.5806 4.21659 11.7491H19.7834C19.7015 11.5806 19.6031 11.3832 19.4844 11.1456L18.4345 9.04602C18.1588 8.4945 17.9769 8.13142 17.8076 7.86536C17.6476 7.61394 17.5324 7.5046 17.4209 7.43567C17.3094 7.36681 17.1605 7.31298 16.8642 7.28235C16.5506 7.24993 16.1448 7.24915 15.5283 7.24915H15H8.99998ZM7.74998 15.4991C7.74998 15.0849 7.41419 14.7491 6.99998 14.7491H5.99998C5.58577 14.7491 5.24998 15.0849 5.24998 15.4991C5.24998 15.9134 5.58577 16.2491 5.99998 16.2491H6.99998C7.41419 16.2491 7.74998 15.9134 7.74998 15.4991ZM18 14.7491C18.4142 14.7491 18.75 15.0849 18.75 15.4991C18.75 15.9134 18.4142 16.2491 18 16.2491H17C16.5858 16.2491 16.25 15.9134 16.25 15.4991C16.25 15.0849 16.5858 14.7491 17 14.7491H18Z" fill="currentColor" />
</svg>