<svg xmlns="http://www.w3.org/2000/svg" width="24" height="24" viewBox="0 0 24 24" fill="none">
    <path d="M6.5 10.999C7.88071 10.999 9 12.1183 9 13.499C9 14.8797 7.88071 15.999 6.5 15.999C5.11929 15.999 4 14.8797 4 13.499C4 12.1183 5.11929 10.999 6.5 10.999ZM9.02543 9.77395C8.30538 9.28483 7.43607 8.99902 6.5 8.99902C4.01472 8.99902 2 11.0137 2 13.499C2 15.9843 4.01472 17.999 6.5 17.999C7.43607 17.999 8.30538 17.7132 9.02543 17.2241C9.12753 17.668 9.52511 17.999 10 17.999C10.5523 17.999 11 17.5513 11 16.999V13.499V9.99902C11 9.44674 10.5523 8.99902 10 8.99902C9.52511 8.99902 9.12753 9.33005 9.02543 9.77395Z" fill="currentColor" />
    <path d="M13 6.99902V13.499V16.999C13 17.5513 13.4477 17.999 14 17.999C14.4749 17.999 14.8725 17.668 14.9746 17.2241C15.6946 17.7132 16.5639 17.999 17.5 17.999C19.9853 17.999 22 15.9843 22 13.499C22 11.0137 19.9853 8.99902 17.5 8.99902C16.5749 8.99902 15.715 9.27816 15 9.7568V6.99902C15 6.44674 14.5523 5.99902 14 5.99902C13.4477 5.99902 13 6.44674 13 6.99902ZM17.5 15.999C16.1193 15.999 15 14.8797 15 13.499C15 12.1183 16.1193 10.999 17.5 10.999C18.8807 10.999 20 12.1183 20 13.499C20 14.8797 18.8807 15.999 17.5 15.999Z" fill="currentColor" />
</svg>