<svg xmlns="http://www.w3.org/2000/svg" width="24" height="24" viewBox="0 0 24 24" fill="none">
    <path d="M7 16.999V13.999C7 13.4467 7.44772 12.999 8 12.999C8.55228 12.999 9 13.4467 9 13.999V16.999C9 17.5513 8.55228 17.999 8 17.999C7.44772 17.999 7 17.5513 7 16.999Z" fill="currentColor" />
    <path d="M12 16.999V8.99902C12 8.44674 12.4477 7.99902 13 7.99902C13.5523 7.99902 14 8.44674 14 8.99902V16.999C14 17.5513 13.5523 17.999 13 17.999C12.4477 17.999 12 17.5513 12 16.999Z" fill="currentColor" />
    <path d="M17 16.999V4.99902C17 4.44674 17.4477 3.99902 18 3.99902C18.5523 3.99902 19 4.44674 19 4.99902V16.999C19 17.5513 18.5523 17.999 18 17.999C17.4477 17.999 17 17.5513 17 16.999Z" fill="currentColor" />
    <path d="M2 13.999V2.99902C2 2.44674 2.44772 1.99902 3 1.99902C3.55229 1.99902 4 2.44674 4 2.99902V13.999C4 15.6771 4.00207 16.8351 4.11914 17.7061C4.23238 18.5483 4.43663 18.9708 4.73242 19.2666C5.02822 19.5624 5.45076 19.7666 6.29297 19.8799C7.16393 19.997 8.32193 19.999 10 19.999H21C21.5523 19.999 22 20.4467 22 20.999C22 21.5513 21.5523 21.999 21 21.999H10C8.37841 21.999 7.06157 22.0015 6.02637 21.8623C4.96238 21.7193 4.04769 21.41 3.31836 20.6807C2.58903 19.9513 2.27977 19.0366 2.13672 17.9727C1.99755 16.9375 2 15.6206 2 13.999Z" fill="currentColor" />
</svg>