<svg xmlns="http://www.w3.org/2000/svg" width="24" height="24" viewBox="0 0 24 24" fill="none">
    <path d="M17.9845 6.74958C18.6649 6.71065 19.2078 7.00325 19.6574 7.35407C20.0858 7.68843 20.557 8.17901 21.089 8.72907L21.7189 9.38044C22.1028 9.77737 22.0923 10.4105 21.6954 10.7945C21.2985 11.1785 20.6653 11.1681 20.2814 10.7711L19.6515 10.1197C19.0775 9.52621 18.7188 9.15907 18.4269 8.93122C18.2905 8.82481 18.2056 8.77891 18.1574 8.75935C18.1194 8.744 18.1063 8.74524 18.0988 8.74567C18.0911 8.74611 18.0774 8.74694 18.0402 8.76716C17.9933 8.79268 17.9127 8.84859 17.7882 8.97028C17.5218 9.23075 17.2042 9.63758 16.6974 10.2925L15.9171 11.3004C15.7007 11.58 15.4933 11.859 15.2443 12.0611C14.5578 12.6181 13.6305 12.7702 12.8029 12.4508C12.5024 12.3347 12.2197 12.131 11.9327 11.9332C11.7593 11.8136 11.6535 11.7417 11.5714 11.69C11.4942 11.6414 11.4732 11.634 11.4767 11.6353C11.3249 11.5768 11.1528 11.6012 11.0167 11.7115C11.0167 11.7115 10.9971 11.7279 10.9386 11.7974C10.8751 11.873 10.7951 11.9752 10.6652 12.1431L7.79115 15.858C7.45315 16.2946 6.82457 16.3746 6.38783 16.0367C5.95117 15.6987 5.87119 15.0701 6.20912 14.6334L9.08314 10.9195C9.29951 10.6398 9.50696 10.3609 9.75599 10.1588C10.4424 9.60181 11.3698 9.44963 12.1974 9.76911C12.4978 9.88514 12.7806 10.0889 13.0675 10.2867C13.241 10.4063 13.3467 10.4781 13.4288 10.5299C13.5059 10.5784 13.5269 10.5859 13.5236 10.5845C13.6753 10.6431 13.8475 10.6186 13.9835 10.5084C13.9835 10.5084 14.0032 10.4919 14.0617 10.4224C14.1252 10.3469 14.2051 10.2447 14.3351 10.0767L15.1154 9.06794C15.5856 8.46024 16.0013 7.92018 16.3908 7.53962C16.7988 7.14091 17.3049 6.7885 17.9845 6.74958Z" fill="currentColor" />
    <path d="M1.99994 13.999V2.99902C1.99994 2.44674 2.44766 1.99902 2.99994 1.99902C3.55223 1.99902 3.99994 2.44674 3.99994 2.99902V13.999C3.99994 15.6771 4.00201 16.8351 4.11908 17.7061C4.23231 18.5483 4.43657 18.9708 4.73236 19.2666C5.02816 19.5624 5.4507 19.7666 6.29291 19.8799C7.16387 19.997 8.32187 19.999 9.99994 19.999H20.9999C21.5522 19.999 21.9999 20.4467 21.9999 20.999C21.9999 21.5513 21.5522 21.999 20.9999 21.999H9.99994C8.37835 21.999 7.06151 22.0015 6.02631 21.8623C4.96232 21.7193 4.04763 21.41 3.3183 20.6807C2.58897 19.9513 2.27971 19.0366 2.13666 17.9727C1.99749 16.9375 1.99994 15.6206 1.99994 13.999Z" fill="currentColor" />
</svg>