<svg xmlns="http://www.w3.org/2000/svg" width="24" height="24" viewBox="0 0 24 24" fill="none">
    <path d="M14.2383 20.0986C14.2499 19.9277 14.25 19.7227 14.25 19.5V4.5C14.25 4.27729 14.2499 4.07227 14.2383 3.90137C14.2261 3.72385 14.1993 3.52841 14.1172 3.33008C13.9396 2.90132 13.5987 2.56043 13.1699 2.38281C12.9716 2.30066 12.7762 2.27386 12.5986 2.26172C12.4277 2.25006 12.2227 2.25 12 2.25C11.7773 2.25 11.5723 2.25006 11.4014 2.26172C11.2238 2.27386 11.0284 2.30066 10.8301 2.38281C10.4013 2.56043 10.0604 2.90132 9.88281 3.33008C9.80066 3.52841 9.77386 3.72384 9.76172 3.90137C9.75006 4.07227 9.75 4.27729 9.75 4.5V19.5C9.75 19.7227 9.75006 19.9277 9.76172 20.0986C9.77386 20.2762 9.80066 20.4716 9.88281 20.6699C10.0604 21.0987 10.4013 21.4396 10.8301 21.6172C11.0284 21.6993 11.2238 21.7261 11.4014 21.7383C11.5723 21.7499 11.7773 21.75 12 21.75C12.2227 21.75 12.4277 21.7499 12.5986 21.7383C12.7762 21.7261 12.9716 21.6993 13.1699 21.6172C13.5987 21.4396 13.9396 21.0987 14.1172 20.6699C14.1993 20.4716 14.2261 20.2762 14.2383 20.0986Z" fill="currentColor" />
    <path d="M7.73828 20.0986C7.74994 19.9277 7.75 19.7227 7.75 19.5V15.5C7.75 15.2773 7.74994 15.0723 7.73828 14.9014C7.72614 14.7238 7.69934 14.5284 7.61719 14.3301C7.43957 13.9013 7.09868 13.5604 6.66992 13.3828C6.47159 13.3007 6.27615 13.2739 6.09863 13.2617C5.92773 13.2501 5.72271 13.25 5.5 13.25C5.27729 13.25 5.07227 13.2501 4.90137 13.2617C4.72384 13.2739 4.52841 13.3007 4.33008 13.3828C3.90132 13.5604 3.56043 13.9013 3.38281 14.3301C3.30066 14.5284 3.27386 14.7238 3.26172 14.9014C3.25006 15.0723 3.25 15.2773 3.25 15.5V19.5C3.25 19.7227 3.25006 19.9277 3.26172 20.0986C3.27386 20.2762 3.30066 20.4716 3.38281 20.6699C3.56043 21.0987 3.90132 21.4396 4.33008 21.6172C4.52841 21.6993 4.72385 21.7261 4.90137 21.7383C5.07227 21.7499 5.27729 21.75 5.5 21.75C5.72271 21.75 5.92773 21.7499 6.09863 21.7383C6.27615 21.7261 6.47159 21.6993 6.66992 21.6172C7.09868 21.4396 7.43957 21.0987 7.61719 20.6699C7.69934 20.4716 7.72614 20.2762 7.73828 20.0986Z" fill="currentColor" />
    <path d="M20.7383 20.0986C20.7499 19.9277 20.75 19.7227 20.75 19.5V10.5C20.75 10.2773 20.7499 10.0723 20.7383 9.90137C20.7261 9.72385 20.6993 9.52841 20.6172 9.33008C20.4396 8.90132 20.0987 8.56043 19.6699 8.38281C19.4716 8.30066 19.2762 8.27386 19.0986 8.26172C18.9277 8.25006 18.7227 8.25 18.5 8.25C18.2773 8.25 18.0723 8.25006 17.9014 8.26172C17.7238 8.27386 17.5284 8.30066 17.3301 8.38281C16.9013 8.56043 16.5604 8.90132 16.3828 9.33008C16.3007 9.52841 16.2739 9.72384 16.2617 9.90137C16.2501 10.0723 16.25 10.2773 16.25 10.5V19.5C16.25 19.7227 16.2501 19.9277 16.2617 20.0986C16.2739 20.2762 16.3007 20.4716 16.3828 20.6699C16.5604 21.0987 16.9013 21.4396 17.3301 21.6172C17.5284 21.6993 17.7238 21.7261 17.9014 21.7383C18.0723 21.7499 18.2773 21.75 18.5 21.75C18.7227 21.75 18.9277 21.7499 19.0986 21.7383C19.2762 21.7261 19.4716 21.6993 19.6699 21.6172C20.0987 21.4396 20.4396 21.0987 20.6172 20.6699C20.6993 20.4716 20.7261 20.2762 20.7383 20.0986Z" fill="currentColor" />
</svg>