<svg xmlns="http://www.w3.org/2000/svg" width="24" height="24" viewBox="0 0 24 24" fill="none">
    <path d="M18.2783 4.30748C18.6605 3.90909 19.2938 3.8961 19.6924 4.27818C20.0908 4.66039 20.1038 5.29365 19.7217 5.69224L11.1358 14.6483C10.8223 14.9753 10.5189 15.2956 10.2354 15.5213C9.93056 15.764 9.52694 15.9999 9.00001 15.9999C8.47311 15.9998 8.06946 15.7639 7.76466 15.5213C7.48108 15.2956 7.17771 14.9753 6.86427 14.6483L4.27833 11.951C3.8962 11.5524 3.90905 10.9192 4.30763 10.537C4.70632 10.1548 5.33952 10.1686 5.72169 10.5672L8.30763 13.2645C8.65244 13.6242 8.84834 13.8243 9.00001 13.9471C9.1517 13.8243 9.34755 13.6243 9.6924 13.2645L18.2783 4.30748Z" fill="currentColor" />
    <path d="M19 18C19.5523 18 20 18.4477 20 19C20 19.5523 19.5523 20 19 20H5C4.44772 20 4 19.5523 4 19C4 18.4477 4.44772 18 5 18H19Z" fill="currentColor" />
</svg>