<svg xmlns="http://www.w3.org/2000/svg" width="24" height="24" viewBox="0 0 24 24" fill="none">
    <path d="M12.9995 4.25C12.9995 3.69772 12.5518 3.25 11.9995 3.25C11.4472 3.25 10.9995 3.69772 10.9995 4.25C10.9995 4.80228 11.4472 5.25 11.9995 5.25C12.5518 5.25 12.9995 4.80228 12.9995 4.25ZM14.9995 4.25C14.9995 5.90685 13.6564 7.25 11.9995 7.25C10.3427 7.25 8.99951 5.90685 8.99951 4.25C8.99951 2.59315 10.3427 1.25 11.9995 1.25C13.6564 1.25 14.9995 2.59315 14.9995 4.25Z" fill="currentColor" />
    <path d="M13.6089 4.75C13.8091 4.74972 14.001 4.8296 14.1421 4.97168C14.9041 5.74023 15.6786 6.61709 16.3716 7.56543L13.4692 10.4697C13.1766 10.7626 13.1764 11.2375 13.4692 11.5303C13.7621 11.8228 14.237 11.8229 14.5298 11.5303L17.2202 8.83887C17.2342 8.86221 17.2494 8.8848 17.2632 8.9082C18.1289 10.3741 18.7495 12.0092 18.7495 13.6924C18.7495 14.6125 18.5152 15.4458 18.1333 16.1641C17.7738 16.058 17.3934 16 16.9995 16H6.99951C6.60526 16 6.22455 16.0578 5.86475 16.1641C5.483 15.4459 5.24951 14.6123 5.24951 13.6924C5.24951 12.0095 5.87016 10.3741 6.73584 8.9082C7.60392 7.43837 8.74625 6.09193 9.85693 4.97168L9.9165 4.91699C10.0632 4.79809 10.2506 4.73878 10.4409 4.75195C10.6585 4.7671 10.8591 4.8761 10.9897 5.05078C11.1962 5.32687 11.3897 5.45465 11.5454 5.51465C11.7023 5.57505 11.87 5.58523 12.0522 5.55176C12.4432 5.47984 12.8389 5.21389 13.0757 4.97363C13.2164 4.83089 13.4085 4.75031 13.6089 4.75Z" fill="currentColor" />
    <path d="M19.6723 21.082C19.7554 20.7719 19.7495 20.4166 19.7495 20C19.7495 18.4812 18.5183 17.25 16.9995 17.25H6.99948C5.4807 17.25 4.24948 18.4812 4.24948 20C4.24948 20.4166 4.24357 20.7719 4.32663 21.082C4.53468 21.8585 5.14099 22.4648 5.91745 22.6729C6.22758 22.7559 6.58286 22.75 6.99948 22.75H16.9995C17.4161 22.75 17.7714 22.7559 18.0815 22.6729C18.858 22.4648 19.4643 21.8585 19.6723 21.082Z" fill="currentColor" />
</svg>