<svg xmlns="http://www.w3.org/2000/svg" width="24" height="24" viewBox="0 0 24 24" fill="none">
    <path d="M6.00195 18V6C6.00195 5.44772 6.44967 5 7.00195 5C7.55424 5 8.00195 5.44772 8.00195 6V18C8.00195 18.5523 7.55424 19 7.00195 19C6.44967 19 6.00195 18.5523 6.00195 18Z" fill="currentColor" />
    <path d="M17.8071 18.593C17.4796 19.0376 16.8536 19.1326 16.4089 18.8051C16.0635 18.5507 15.7351 18.2963 15.4492 18.0731C14.8783 17.6276 14.1138 17.0143 13.3463 16.3479C12.5838 15.6859 11.7956 14.9518 11.1901 14.2666C10.8883 13.9251 10.6108 13.5721 10.4034 13.2279C10.2124 12.9112 10.002 12.476 10.002 11.9999C10.002 11.5238 10.2124 11.0885 10.4034 10.7718C10.6108 10.4276 10.8883 10.0747 11.1901 9.7332C11.7956 9.04791 12.5838 8.31387 13.3463 7.65183C14.1138 6.98548 14.8783 6.37216 15.4492 5.92664C15.7351 5.70347 16.0635 5.44902 16.4089 5.19463C16.8536 4.86712 17.4796 4.96211 17.8071 5.4068C17.9388 5.58556 18.0021 5.79362 18.0019 5.99982V11.9999V17.9999C18.0021 18.2061 17.9388 18.4142 17.8071 18.593Z" fill="currentColor" />
</svg>