<svg xmlns="http://www.w3.org/2000/svg" width="24" height="24" viewBox="0 0 24 24" fill="none">
    <path d="M15.8071 18.593C15.4796 19.0376 14.8536 19.1326 14.4089 18.8051C14.0635 18.5507 13.7351 18.2963 13.4492 18.0731C12.8783 17.6276 12.1138 17.0143 11.3463 16.3479C10.5838 15.6859 9.79557 14.9518 9.19007 14.2666C8.88833 13.9251 8.61083 13.5721 8.40335 13.2279C8.21242 12.9112 8.00196 12.476 8.00195 11.9999C8.00196 11.5238 8.21242 11.0885 8.40335 10.7718C8.61083 10.4276 8.88833 10.0747 9.19007 9.7332C9.79557 9.04791 10.5838 8.31387 11.3463 7.65183C12.1138 6.98548 12.8783 6.37216 13.4492 5.92664C13.7351 5.70347 14.0635 5.44902 14.4089 5.19463C14.8536 4.86712 15.4796 4.96211 15.8071 5.4068C15.9388 5.58556 16.0021 5.79362 16.0019 5.99982V11.9999V17.9999C16.0021 18.2061 15.9388 18.4142 15.8071 18.593Z" fill="currentColor" />
</svg>