<svg xmlns="http://www.w3.org/2000/svg" width="24" height="24" viewBox="0 0 24 24" fill="none">
    <path d="M8.40927 6.1957L8.39267 6.20839L8.3761 6.22092L8.34872 6.24159C8.3105 6.27008 8.25484 6.31164 8.18466 6.36464C8.04437 6.47061 7.84459 6.62244 7.60556 6.80898C7.12846 7.1813 6.4892 7.69456 5.84677 8.25234C5.20928 8.80582 4.54602 9.42317 4.03427 10.0023C3.7794 10.2908 3.54058 10.5932 3.36044 10.892C3.19686 11.1633 3.00204 11.5582 3.00204 12.0014C3.00206 12.4445 3.19686 12.8394 3.36044 13.1107C3.54058 13.4095 3.77941 13.7119 4.03427 14.0004C4.54601 14.5795 5.20931 15.1969 5.84677 15.7504C6.48919 16.3082 7.12847 16.8214 7.60556 17.1937C7.8446 17.3803 8.04437 17.5321 8.18466 17.6381C8.25484 17.6911 8.3105 17.7326 8.34872 17.7611L8.37607 17.7818L8.39267 17.7943L8.40439 17.8031C8.70806 18.0265 9.11672 18.064 9.45322 17.8939C9.78983 17.7238 10.002 17.3785 10.002 17.0014L10.002 7.00136C10.002 6.62416 9.78985 6.27894 9.45322 6.10878C9.11671 5.93869 8.71295 5.97226 8.40927 6.1957Z" fill="currentColor" />
    <path d="M15.5948 6.19448L15.6114 6.20718L15.6554 6.24038C15.6936 6.26887 15.7493 6.31042 15.8194 6.36343C15.9597 6.46939 16.1595 6.62123 16.3985 6.80776C16.8756 7.18009 17.5149 7.69335 18.1573 8.25112C18.7948 8.80461 19.4581 9.42195 19.9698 10.0011C20.2247 10.2896 20.4635 10.592 20.6436 10.8908C20.8072 11.1621 21.002 11.557 21.002 12.0001C21.002 12.4433 20.8072 12.8382 20.6436 13.1095C20.4635 13.4083 20.2247 13.7107 19.9698 13.9992C19.4581 14.5783 18.7948 15.1957 18.1573 15.7492C17.5149 16.3069 16.8756 16.8202 16.3985 17.1925C16.1595 17.3791 15.9597 17.5309 15.8194 17.6369C15.7493 17.6899 15.6936 17.7314 15.6554 17.7599L15.6114 17.7931L15.5997 17.8019C15.296 18.0253 14.8874 18.0628 14.5509 17.8927C14.2143 17.7226 14.002 17.3773 14.002 17.0001V7.00015C14.002 6.62295 14.2142 6.27773 14.5509 6.10757C14.8874 5.93748 15.2911 5.97104 15.5948 6.19448Z" fill="currentColor" />
</svg>