<svg xmlns="http://www.w3.org/2000/svg" width="24" height="24" viewBox="0 0 24 24" fill="none">
    <path d="M13.5944 17.8058C13.1497 18.1329 12.5243 18.0374 12.1969 17.5929C11.8694 17.1482 11.9641 16.522 12.4088 16.1944C12.4109 16.1929 12.4162 16.1889 12.4206 16.1857C12.4293 16.1792 12.4431 16.1694 12.4606 16.1564C12.4956 16.1303 12.5476 16.0912 12.6139 16.0411C12.747 15.9406 12.9381 15.7945 13.1676 15.6153C13.628 15.2561 14.2389 14.7668 14.8463 14.2394C15.4588 13.7076 16.0456 13.1567 16.4713 12.6749C16.685 12.4331 16.837 12.2319 16.9303 12.0773C16.9482 12.0476 16.9595 12.0208 16.9704 12.0001C16.9595 11.9794 16.9482 11.9527 16.9303 11.923C16.837 11.7683 16.685 11.5671 16.4713 11.3253C16.0456 10.8435 15.4588 10.2926 14.8463 9.76085C14.2389 9.23345 13.628 8.74413 13.1676 8.38487C12.9381 8.20574 12.747 8.05964 12.6139 7.95909C12.5476 7.90901 12.4956 7.86995 12.4606 7.84386C12.4431 7.83082 12.4293 7.82101 12.4206 7.81456C12.4162 7.81134 12.4128 7.80825 12.4108 7.80675C11.9662 7.47933 11.8688 6.85201 12.1959 6.40733C12.5234 5.96276 13.1497 5.86726 13.5944 6.19444C13.5971 6.19647 13.6059 6.2034 13.611 6.20714C13.6212 6.2147 13.6358 6.22612 13.6549 6.24034C13.6932 6.26883 13.7488 6.31039 13.819 6.36339C13.9593 6.46935 14.1591 6.62119 14.3981 6.80772C14.8752 7.18005 15.5145 7.69331 16.1569 8.25108C16.7944 8.80457 17.4576 9.42191 17.9694 10.0011C18.2242 10.2895 18.4631 10.5919 18.6432 10.8907C18.8068 11.1621 19.0016 11.5569 19.0016 12.0001C19.0016 12.4433 18.8068 12.8381 18.6432 13.1095C18.4631 13.4083 18.2242 13.7107 17.9694 13.9991C17.4576 14.5783 16.7943 15.1956 16.1569 15.7491C15.5145 16.3069 14.8752 16.8202 14.3981 17.1925C14.1591 17.379 13.9593 17.5309 13.819 17.6368C13.7488 17.6898 13.6932 17.7314 13.6549 17.7599C13.6359 17.7741 13.6212 17.7855 13.611 17.7931C13.606 17.7968 13.5971 17.8037 13.5944 17.8058Z" fill="currentColor" />
    <path d="M6.59473 6.19643L6.61133 6.20913L6.65527 6.24233C6.6935 6.27082 6.74916 6.31238 6.81934 6.36538C6.95963 6.47135 7.15941 6.62318 7.39844 6.80972C7.87554 7.18204 8.51479 7.6953 9.15723 8.25308C9.79472 8.80656 10.458 9.42391 10.9697 10.0031C11.2246 10.2915 11.4634 10.5939 11.6436 10.8927C11.8071 11.1641 12.002 11.5589 12.002 12.0021C12.0019 12.4453 11.8071 12.8401 11.6436 13.1115C11.4634 13.4103 11.2246 13.7127 10.9697 14.0011C10.458 14.5803 9.79469 15.1976 9.15723 15.7511C8.51481 16.3089 7.87553 16.8222 7.39844 17.1945C7.1594 17.381 6.95963 17.5329 6.81934 17.6388C6.74916 17.6918 6.6935 17.7334 6.65527 17.7619L6.61133 17.7951L6.59961 17.8039C6.29594 18.0273 5.88728 18.0648 5.55078 17.8947C5.21416 17.7245 5.00195 17.3793 5.00195 17.0021V7.0021C5.00195 6.6249 5.21414 6.27968 5.55078 6.10952C5.88729 5.93943 6.29105 5.973 6.59473 6.19643Z" fill="currentColor" />
</svg>