<svg xmlns="http://www.w3.org/2000/svg" width="24" height="24" viewBox="0 0 24 24" fill="none">
    <path d="M14.8027 12C14.8027 12.5523 14.355 13 13.8027 13C13.2504 13 12.8027 12.5523 12.8027 12C12.8027 11.4477 13.2504 11 13.8027 11C14.355 11 14.8027 11.4477 14.8027 12Z" fill="currentColor" />
    <path d="M11.252 12C11.252 12.5523 10.8042 13 10.252 13C9.69967 13 9.25195 12.5523 9.25195 12C9.25195 11.4477 9.69967 11 10.252 11C10.8042 11 11.252 11.4477 11.252 12Z" fill="currentColor" />
    <path d="M6.40918 6.1957L6.39258 6.20839L6.37601 6.22092L6.34863 6.24159C6.31041 6.27008 6.25475 6.31164 6.18457 6.36464C6.04427 6.47061 5.8445 6.62244 5.60547 6.80898C5.12837 7.1813 4.48911 7.69456 3.84668 8.25234C3.20919 8.80582 2.54593 9.42317 2.03418 10.0023C1.77931 10.2908 1.54049 10.5932 1.36035 10.892C1.19677 11.1633 1.00195 11.5582 1.00195 12.0014C1.00197 12.4445 1.19677 12.8394 1.36035 13.1107C1.54049 13.4095 1.77931 13.7119 2.03418 14.0004C2.54592 14.5795 3.20921 15.1969 3.84668 15.7504C4.4891 16.3082 5.12838 16.8214 5.60547 17.1937C5.8445 17.3803 6.04428 17.5321 6.18457 17.6381C6.25475 17.6911 6.31041 17.7326 6.34863 17.7611L6.37598 17.7818L6.39258 17.7943L6.4043 17.8031C6.70797 18.0265 7.11663 18.064 7.45312 17.8939C7.78974 17.7238 8.00195 17.3785 8.00195 17.0014L8.00195 7.00136C8.00195 6.62416 7.78976 6.27894 7.45313 6.10878C7.11662 5.93869 6.71286 5.97226 6.40918 6.1957Z" fill="currentColor" />
    <path d="M17.5947 6.19448L17.6113 6.20718L17.6553 6.24038C17.6935 6.26887 17.7492 6.31042 17.8193 6.36343C17.9596 6.46939 18.1594 6.62123 18.3984 6.80776C18.8755 7.18009 19.5148 7.69335 20.1572 8.25112C20.7947 8.80461 21.458 9.42195 21.9697 10.0011C22.2246 10.2896 22.4634 10.592 22.6436 10.8908C22.8071 11.1621 23.002 11.557 23.002 12.0001C23.0019 12.4433 22.8071 12.8382 22.6436 13.1095C22.4634 13.4083 22.2246 13.7107 21.9697 13.9992C21.458 14.5783 20.7947 15.1957 20.1572 15.7492C19.5148 16.3069 18.8755 16.8202 18.3984 17.1925C18.1594 17.3791 17.9596 17.5309 17.8193 17.6369C17.7492 17.6899 17.6935 17.7314 17.6553 17.7599L17.6113 17.7931L17.5996 17.8019C17.2959 18.0253 16.8873 18.0628 16.5508 17.8927C16.2142 17.7226 16.002 17.3773 16.002 17.0001V7.00015C16.002 6.62295 16.2141 6.27773 16.5508 6.10757C16.8873 5.93748 17.291 5.97104 17.5947 6.19448Z" fill="currentColor" />
</svg>