<svg xmlns="http://www.w3.org/2000/svg" width="24" height="24" viewBox="0 0 24 24" fill="none">
    <path d="M8.19681 18.5932C8.52432 19.0379 9.15032 19.1329 9.59501 18.8054C9.94042 18.551 10.2688 18.2965 10.5547 18.0734C11.1256 17.6278 11.8901 17.0145 12.6576 16.3482C13.4201 15.6861 14.2083 14.9521 14.8138 14.2668C15.1156 13.9253 15.3931 13.5724 15.6006 13.2282C15.7915 12.9115 16.0019 12.4763 16.0019 12.0001C16.0019 11.524 15.7915 11.0888 15.6006 10.7721C15.3931 10.4279 15.1156 10.0749 14.8138 9.73344C14.2083 9.04815 13.4201 8.31412 12.6576 7.65208C11.8901 6.98572 11.1256 6.3724 10.5547 5.92689C10.2688 5.70372 9.94042 5.44927 9.59501 5.19488C9.15032 4.86736 8.52432 4.96235 8.19681 5.40705C8.06515 5.58581 8.00178 5.79387 8.00195 6.00007V18.0002C8.00178 18.2064 8.06515 18.4144 8.19681 18.5932Z" fill="currentColor" />
</svg>