<svg xmlns="http://www.w3.org/2000/svg" width="24" height="24" viewBox="0 0 24 24" fill="none">
    <path d="M18.002 18V6C18.002 5.44772 17.5542 5 17.002 5C16.4497 5 16.002 5.44772 16.002 6V18C16.002 18.5523 16.4497 19 17.002 19C17.5542 19 18.002 18.5523 18.002 18Z" fill="currentColor" />
    <path d="M6.19681 18.5932C6.52432 19.0379 7.15032 19.1329 7.59501 18.8054C7.94042 18.551 8.26876 18.2965 8.55472 18.0734C9.12559 17.6278 9.89012 17.0145 10.6576 16.3482C11.4201 15.6861 12.2083 14.9521 12.8138 14.2668C13.1156 13.9253 13.3931 13.5724 13.6006 13.2282C13.7915 12.9115 14.0019 12.4763 14.0019 12.0001C14.0019 11.524 13.7915 11.0888 13.6006 10.7721C13.3931 10.4279 13.1156 10.0749 12.8138 9.73344C12.2083 9.04815 11.4201 8.31412 10.6576 7.65208C9.89012 6.98572 9.12559 6.3724 8.55472 5.92689C8.26876 5.70372 7.94042 5.44927 7.59501 5.19488C7.15032 4.86736 6.52432 4.96235 6.19681 5.40705C6.06515 5.58581 6.00178 5.79387 6.00195 6.00007V18.0002C6.00178 18.2064 6.06515 18.4144 6.19681 18.5932Z" fill="currentColor" />
</svg>