<svg xmlns="http://www.w3.org/2000/svg" width="24" height="24" viewBox="0 0 24 24" fill="none">
    <path d="M4.59473 6.19448L4.61133 6.20718L4.65527 6.24038C4.6935 6.26887 4.74916 6.31042 4.81934 6.36343C4.95963 6.46939 5.15941 6.62123 5.39844 6.80776C5.87554 7.18009 6.51479 7.69335 7.15723 8.25112C7.79472 8.80461 8.45798 9.42195 8.96973 10.0011C9.22459 10.2896 9.46342 10.592 9.64356 10.8908C9.80714 11.1621 10.002 11.557 10.002 12.0001C10.0019 12.4433 9.80714 12.8382 9.64355 13.1095C9.46342 13.4083 9.22459 13.7107 8.96973 13.9992C8.45799 14.5783 7.79469 15.1957 7.15723 15.7492C6.51481 16.3069 5.87553 16.8202 5.39844 17.1925C5.1594 17.3791 4.95963 17.5309 4.81934 17.6369C4.74916 17.6899 4.6935 17.7314 4.65527 17.7599L4.61133 17.7931L4.59961 17.8019C4.29594 18.0253 3.88728 18.0628 3.55078 17.8927C3.21416 17.7226 3.00195 17.3773 3.00195 17.0001V7.00015C3.00195 6.62295 3.21414 6.27773 3.55078 6.10757C3.88729 5.93748 4.29105 5.97104 4.59473 6.19448Z" fill="currentColor" />
    <path d="M19.4092 6.19448L19.3926 6.20718L19.3486 6.24038C19.3104 6.26887 19.2547 6.31042 19.1846 6.36343C19.0443 6.46939 18.8445 6.62123 18.6055 6.80776C18.1284 7.18009 17.4891 7.69335 16.8467 8.25112C16.2092 8.80461 15.5459 9.42195 15.0342 10.0011C14.7793 10.2896 14.5405 10.592 14.3604 10.8908C14.1968 11.1621 14.0019 11.557 14.002 12.0001C14.002 12.4433 14.1968 12.8382 14.3604 13.1095C14.5405 13.4083 14.7793 13.7107 15.0342 13.9992C15.5459 14.5783 16.2092 15.1957 16.8467 15.7492C17.4891 16.3069 18.1284 16.8202 18.6055 17.1925C18.8445 17.3791 19.0443 17.5309 19.1846 17.6369C19.2547 17.6899 19.3104 17.7314 19.3486 17.7599L19.3926 17.7931L19.4043 17.8019C19.708 18.0253 20.1166 18.0628 20.4531 17.8927C20.7897 17.7226 21.002 17.3773 21.002 17.0001V7.00015C21.002 6.62295 20.7898 6.27773 20.4531 6.10757C20.1166 5.93748 19.7129 5.97104 19.4092 6.19448Z" fill="currentColor" />
</svg>