<svg xmlns="http://www.w3.org/2000/svg" width="24" height="24" viewBox="0 0 24 24" fill="none">
    <path d="M17.8076 13.5928C18.1347 13.1481 18.0392 12.5227 17.5947 12.1953C17.15 11.8678 16.5238 11.9625 16.1963 12.4072C16.1947 12.4093 16.1907 12.4146 16.1875 12.4189C16.181 12.4276 16.1712 12.4415 16.1582 12.459C16.1321 12.494 16.093 12.546 16.0429 12.6123C15.9424 12.7454 15.7963 12.9365 15.6171 13.166C15.2579 13.6264 14.7686 14.2373 14.2412 14.8447C13.7094 15.4572 13.1586 16.044 12.6767 16.4697C12.4349 16.6834 12.2337 16.8354 12.0791 16.9287C12.0494 16.9466 12.0226 16.9579 12.0019 16.9688C11.9812 16.9579 11.9545 16.9466 11.9248 16.9287C11.7701 16.8354 11.5689 16.6834 11.3271 16.4697C10.8453 16.044 10.2944 15.4572 9.76266 14.8447C9.23526 14.2373 8.74594 13.6264 8.38668 13.166C8.20755 12.9365 8.06145 12.7454 7.9609 12.6123C7.91082 12.546 7.87176 12.494 7.84566 12.459C7.83263 12.4415 7.82281 12.4276 7.81637 12.4189C7.81315 12.4146 7.81006 12.4112 7.80856 12.4092C7.48114 11.9646 6.85382 11.8672 6.40914 12.1943C5.96457 12.5218 5.86907 13.1481 6.19625 13.5928C6.19679 13.5935 6.1954 13.5916 6.19625 13.5928C6.19828 13.5955 6.20521 13.6043 6.20895 13.6094C6.2165 13.6196 6.22793 13.6342 6.24215 13.6533C6.27064 13.6915 6.31219 13.7472 6.3652 13.8174C6.47116 13.9577 6.623 14.1575 6.80953 14.3965C7.18186 14.8736 7.69512 15.5128 8.25289 16.1553C8.80638 16.7928 9.42372 17.456 10.0029 17.9678C10.2913 18.2226 10.5937 18.4615 10.8925 18.6416C11.1639 18.8052 11.5588 19 12.0019 19C12.4451 19 12.8399 18.8052 13.1113 18.6416C13.4101 18.4615 13.7125 18.2226 14.0009 17.9678C14.5801 17.456 15.1975 16.7927 15.7509 16.1553C16.3087 15.5129 16.822 14.8736 17.1943 14.3965C17.3808 14.1574 17.5327 13.9577 17.6386 13.8174C17.6916 13.7472 17.7332 13.6915 17.7617 13.6533C17.7759 13.6343 17.7873 13.6196 17.7949 13.6094C17.7986 13.6043 17.8056 13.5955 17.8076 13.5928C17.8084 13.5916 17.807 13.5935 17.8076 13.5928Z" fill="currentColor" />
    <path d="M6.19768 6.59277L6.21037 6.60938L6.2229 6.62595L6.24358 6.65332C6.27207 6.69155 6.31362 6.74721 6.36662 6.81738C6.47259 6.95768 6.62443 7.15746 6.81096 7.39648C7.18329 7.87359 7.69655 8.51284 8.25432 9.15527C8.80781 9.79276 9.42515 10.456 10.0043 10.9678C10.2928 11.2226 10.5952 11.4615 10.894 11.6416C11.1653 11.8052 11.5602 12 12.0033 12C12.4465 12 12.8414 11.8052 13.1127 11.6416C13.4115 11.4615 13.7139 11.2226 14.0024 10.9678C14.5815 10.456 15.1989 9.79274 15.7524 9.15527C16.3101 8.51286 16.8234 7.87357 17.1957 7.39648C17.3823 7.15745 17.5341 6.95767 17.6401 6.81738C17.6931 6.74721 17.7346 6.69155 17.7631 6.65332L17.7838 6.62597L17.7963 6.60938L17.8051 6.59766C18.0285 6.29398 18.066 5.88532 17.8959 5.54883C17.7258 5.21221 17.3805 5 17.0033 5L7.00334 5C6.62614 5 6.28093 5.21219 6.11077 5.54883C5.94068 5.88533 5.97424 6.28909 6.19768 6.59277Z" fill="currentColor" />
</svg>