<svg xmlns="http://www.w3.org/2000/svg" width="24" height="24" viewBox="0 0 24 24" fill="none">
    <path fill-rule="evenodd" clip-rule="evenodd" d="M3.44699 16.03C3.44697 16.0304 3.44701 16.0297 3.44699 16.03V16.03ZM1.46911 15.7312C1.46893 15.7324 1.46939 15.7284 1.46911 15.7312V15.7312ZM1.46103 15.7863C1.46269 15.7748 1.46428 15.7649 1.46562 15.7566L1.46103 15.7863ZM8.21591 22.5411L8.24372 22.5368C8.23579 22.5381 8.22649 22.5396 8.21591 22.5411ZM8.24372 22.5368C8.24292 22.537 8.24456 22.5367 8.24372 22.5368V22.5368Z" fill="currentColor" />
    <path fill-rule="evenodd" clip-rule="evenodd" d="M13.127 20.6251C18.5118 20.6251 22.877 16.2599 22.877 10.8751C22.877 5.49035 18.5118 1.12512 13.127 1.12512C7.74227 1.12512 3.37704 5.49035 3.37704 10.8751C3.37704 12.7524 3.90762 14.5058 4.82699 15.9935L10.5362 10.2843C11.4149 9.40562 12.8392 9.40562 13.7179 10.2843C14.5965 11.163 14.5965 12.5873 13.7179 13.4659L8.00864 19.1752C9.49633 20.0945 11.2497 20.6251 13.127 20.6251Z" fill="currentColor" />
    <path d="M12.8341 11.1681C12.4436 10.7776 11.8105 10.7776 11.42 11.1681L3.13028 19.4579C3.13706 19.1517 3.15375 18.8268 3.17685 18.4992C3.22189 17.8607 3.28975 17.2409 3.34677 16.7785C3.37521 16.5479 3.4007 16.3573 3.41904 16.2258C3.42815 16.1604 3.43554 16.1095 3.44052 16.0754L3.44638 16.0363C3.44624 16.0385 3.44673 16.034 3.44638 16.0363L3.44736 16.0256C3.53022 15.4795 3.15453 14.9697 2.60849 14.8869C2.06271 14.8043 1.5528 15.179 1.46982 15.7248C1.46945 15.7285 1.4683 15.7394 1.46787 15.7424L1.46562 15.7567L1.46103 15.7863C1.45546 15.8245 1.44738 15.8802 1.4376 15.9504C1.41802 16.0908 1.3913 16.2911 1.36142 16.5334C1.30179 17.0169 1.23003 17.6738 1.18174 18.3586C1.1339 19.0369 1.10658 19.7733 1.1456 20.4045C1.16501 20.7183 1.20235 21.0379 1.27353 21.3254C1.3371 21.5819 1.46178 21.9599 1.75205 22.2502C2.04233 22.5405 2.42029 22.6651 2.67685 22.7287C2.96433 22.7999 3.28391 22.8372 3.59775 22.8566C4.22897 22.8956 4.9653 22.8683 5.64365 22.8205C6.32846 22.7722 6.98532 22.7004 7.46884 22.6408C7.71108 22.6109 7.9114 22.5842 8.05185 22.5646C8.12203 22.5548 8.17771 22.5468 8.21592 22.5412L8.24549 22.5366L8.25986 22.5343C8.26279 22.5339 8.2672 22.5335 8.27096 22.5331C8.81684 22.4501 9.19818 21.9387 9.11533 21.3927C9.03223 20.847 8.52253 20.472 7.97666 20.5549L7.96592 20.5558L7.92685 20.5617C7.89268 20.5667 7.84184 20.5741 7.77646 20.5832C7.64489 20.6015 7.45431 20.627 7.22373 20.6554C6.76134 20.7125 6.14155 20.7803 5.50302 20.8254C5.1754 20.8485 4.85049 20.8652 4.54434 20.8719L12.8341 12.5822C13.2246 12.1917 13.2246 11.5587 12.8341 11.1681Z" fill="currentColor" />
</svg>