<svg xmlns="http://www.w3.org/2000/svg" width="24" height="24" viewBox="0 0 24 24" fill="none">
    <path d="M4.68574 18.8941C5.04826 18.4775 5.68027 18.4331 6.09688 18.7955C7.09515 19.6643 8.30212 20.3257 9.67012 20.6919C10.4505 20.9008 11.2332 21.0005 12.0022 21.0005C12.5544 21.0006 13.0022 21.4483 13.0022 22.0005C13.0021 22.5528 12.5544 23.0005 12.0022 23.0005C11.0604 23.0005 10.104 22.8789 9.15352 22.6246C7.48503 22.1779 6.00635 21.3686 4.7834 20.3042C4.36729 19.9417 4.32366 19.3106 4.68574 18.8941ZM18.8381 17.8501C19.1975 17.4308 19.8289 17.3823 20.2482 17.7417C20.6673 18.1012 20.7158 18.7317 20.3566 19.1509C19.4143 20.2503 18.2684 21.1472 16.9943 21.7974C16.5024 22.0485 15.8997 21.8528 15.6486 21.3609C15.3978 20.869 15.5933 20.2672 16.0852 20.0162C17.1292 19.4833 18.0676 18.749 18.8381 17.8501ZM1.38008 9.15679C2.95362 3.29019 8.98441 -0.193554 14.8508 1.37651C15.577 1.57089 16.2678 1.8345 16.9172 2.15776C17.4115 2.40385 17.6134 3.00421 17.3674 3.49858C17.1213 3.99298 16.521 4.19389 16.0266 3.9478C15.4961 3.68375 14.9305 3.46878 14.3342 3.30913C9.53484 2.02445 4.59939 4.87456 3.31172 9.67534C2.80705 11.5573 2.93799 13.4565 3.57149 15.15C3.76499 15.6672 3.50185 16.2436 2.98457 16.4371C2.46736 16.6304 1.89097 16.3683 1.69746 15.8511C0.922681 13.78 0.763844 11.4543 1.38008 9.15679ZM21.9377 10.4791C22.4892 10.4507 22.9591 10.8748 22.9875 11.4263C23.0454 12.5503 22.9308 13.7013 22.6242 14.8443C22.4812 15.3776 21.9329 15.6941 21.3996 15.5513C20.8662 15.4082 20.5495 14.8592 20.6926 14.3257C20.9442 13.3876 21.0377 12.446 20.9904 11.5289C20.9621 10.9774 21.3862 10.5075 21.9377 10.4791ZM19.6213 5.44585C20.0739 5.12949 20.6974 5.23951 21.0139 5.69194C21.3072 6.11151 21.5716 6.55145 21.8039 7.00737C22.0543 7.49939 21.8583 8.10145 21.3664 8.3521C20.8743 8.6028 20.2724 8.4067 20.0217 7.9146C19.8315 7.54139 19.6152 7.18185 19.3752 6.83843C19.0589 6.38589 19.1689 5.76235 19.6213 5.44585Z" fill="currentColor" />
    <path d="M11.0029 16V12.9951H8.00781C7.45557 12.9951 7.00788 12.5473 7.00781 11.9951C7.00781 11.4428 7.45553 10.9951 8.00781 10.9951H11.0029V8C11.0029 7.44772 11.4506 7 12.0029 7C12.5552 7.00006 13.0029 7.44775 13.0029 8V10.9951H16.0078C16.5601 10.9951 17.0078 11.4428 17.0078 11.9951C17.0077 12.5473 16.5601 12.9951 16.0078 12.9951H13.0029V16C13.0029 16.5522 12.5552 16.9999 12.0029 17C11.4506 17 11.0029 16.5523 11.0029 16Z" fill="currentColor" />
</svg>