<svg xmlns="http://www.w3.org/2000/svg" width="24" height="24" viewBox="0 0 24 24" fill="none">
    <path d="M22.752 12C22.752 17.9371 17.939 22.75 12.002 22.75C6.06489 22.75 1.25195 17.9371 1.25195 12C1.25195 6.06294 6.06489 1.25 12.002 1.25C17.939 1.25 22.752 6.06294 22.752 12ZM11.6826 11.7578C11.324 12.1896 11.002 12.7754 11.002 13.5C11.002 14.0523 11.4497 14.5 12.002 14.5C12.5542 14.5 13.002 14.0523 13.002 13.5C13.002 13.3962 13.0445 13.2483 13.2207 13.0361C13.4008 12.8193 13.6652 12.6035 13.9785 12.3887C14.8961 11.7598 15.502 10.7006 15.502 9.5C15.502 7.567 13.9349 6 12.002 6C10.069 6 8.50196 7.567 8.50196 9.5C8.50196 10.0523 8.94967 10.5 9.50196 10.5C10.0542 10.5 10.502 10.0523 10.502 9.5C10.502 8.67158 11.1735 8 12.002 8C12.8304 8 13.502 8.67158 13.502 9.5C13.502 10.013 13.2452 10.4663 12.8486 10.7383C12.4789 10.9917 12.0374 11.3308 11.6826 11.7578ZM13.252 16.75C13.252 16.0596 12.6923 15.5 12.002 15.5C11.3116 15.5 10.752 16.0596 10.752 16.75C10.752 17.4404 11.3116 18 12.002 18C12.6923 18 13.252 17.4404 13.252 16.75Z" fill="currentColor" />
</svg>