<svg xmlns="http://www.w3.org/2000/svg" width="24" height="24" viewBox="0 0 24 24" fill="none">
    <path d="M22.752 12.0001C22.752 17.9371 17.9391 22.7501 12.002 22.7501C6.06495 22.7501 1.25201 17.9371 1.25201 12.0001C1.25201 6.063 6.06495 1.25006 12.002 1.25006C17.9391 1.25006 22.752 6.063 22.752 12.0001ZM12.002 13.2501C12.6924 13.2501 13.252 12.6904 13.252 12.0001C13.252 11.3097 12.6924 10.7501 12.002 10.7501C11.3117 10.7501 10.752 11.3097 10.752 12.0001C10.752 12.6904 11.3117 13.2501 12.002 13.2501ZM7.00201 13.2501C7.69237 13.2501 8.25201 12.6904 8.25201 12.0001C8.25201 11.3097 7.69237 10.7501 7.00201 10.7501C6.31166 10.7501 5.75201 11.3097 5.75201 12.0001C5.75201 12.6904 6.31166 13.2501 7.00201 13.2501ZM17.002 13.2501C17.6924 13.2501 18.252 12.6904 18.252 12.0001C18.252 11.3097 17.6924 10.7501 17.002 10.7501C16.3117 10.7501 15.752 11.3097 15.752 12.0001C15.752 12.6904 16.3117 13.2501 17.002 13.2501Z" fill="currentColor" />
</svg>