<svg xmlns="http://www.w3.org/2000/svg" width="24" height="24" viewBox="0 0 24 24" fill="none">
    <path fill-rule="evenodd" clip-rule="evenodd" d="M22.752 12C22.752 17.9371 17.939 22.75 12.002 22.75C6.06489 22.75 1.25195 17.9371 1.25195 12C1.25195 6.06294 6.06489 1.25 12.002 1.25C17.939 1.25 22.752 6.06294 22.752 12ZM16.709 7.29297C16.3185 6.90244 15.6854 6.90244 15.2949 7.29297L11.2949 11.293C10.9044 11.6835 10.9044 12.3165 11.2949 12.707C11.6854 13.0976 12.3185 13.0976 12.709 12.707L16.709 8.70703C17.0995 8.31651 17.0995 7.68349 16.709 7.29297ZM5.00195 12C5.00195 8.13401 8.13596 5 12.002 5C12.5542 5 13.002 5.44772 13.002 6C13.002 6.55228 12.5542 7 12.002 7C9.24053 7 7.00195 9.23858 7.00195 12C7.00195 12.5523 6.55424 13 6.00195 13C5.44967 13 5.00195 12.5523 5.00195 12Z" fill="currentColor" />
</svg>