<svg xmlns="http://www.w3.org/2000/svg" width="24" height="24" viewBox="0 0 24 24" fill="none">
    <path d="M16.4326 19.837C16.9135 19.5659 17.5236 19.736 17.7949 20.2168C18.066 20.6978 17.8959 21.3078 17.415 21.5792C16.624 22.0255 15.7651 22.3797 14.8496 22.625C13.9338 22.8704 13.0119 22.993 12.1035 23.002C11.5514 23.0073 11.0992 22.5639 11.0937 22.0118C11.0884 21.4596 11.5318 21.0075 12.0839 21.002C12.8255 20.9947 13.5792 20.8948 14.331 20.6934C15.083 20.4919 15.7866 20.2015 16.4326 19.837ZM2.87887 16.2188C3.35471 15.9389 3.96783 16.0975 4.24801 16.5733C5.03153 17.9037 6.13619 18.9893 7.4316 19.753C7.90701 20.0335 8.06532 20.6465 7.78512 21.1221C7.50465 21.5979 6.89077 21.7561 6.415 21.4756C4.83452 20.5438 3.48391 19.2173 2.52438 17.5879C2.2442 17.1121 2.40301 16.499 2.87887 16.2188ZM22.0127 11.0918C22.5649 11.0966 23.0086 11.5484 23.0039 12.1006C22.9875 13.9916 22.4811 15.8158 21.5781 17.4131C21.3063 17.8938 20.6965 18.0628 20.2158 17.7911C19.735 17.5193 19.5651 16.9095 19.8369 16.4288C20.577 15.1196 20.9905 13.627 21.0039 12.0831C21.0088 11.531 21.4606 11.0872 22.0127 11.0918ZM2.42574 6.58696C2.69754 6.10619 3.30825 5.93724 3.78902 6.20903C4.26953 6.48093 4.43868 7.09068 4.16695 7.57134C3.42688 8.88045 3.01328 10.3731 2.99996 11.917C2.9951 12.4692 2.54338 12.913 1.99117 12.9083C1.43898 12.9034 0.995199 12.4517 0.999962 11.8995C1.0163 10.0085 1.52276 8.18423 2.42574 6.58696ZM16.2197 2.87798C16.5002 2.4023 17.1131 2.24402 17.5888 2.52446C19.1694 3.45624 20.5199 4.78277 21.4795 6.41216C21.7597 6.88801 21.6017 7.50101 21.1259 7.7813C20.6501 8.06155 20.0371 7.90268 19.7568 7.42681C18.9733 6.09636 17.8687 5.0108 16.5732 4.24712C16.0974 3.96665 15.9392 3.35375 16.2197 2.87798ZM11.9004 0.998097C12.4526 0.992638 12.9047 1.43607 12.9101 1.98833C12.9155 2.54054 12.4721 2.99264 11.9199 2.9981C11.1783 3.00545 10.4246 3.10525 9.67281 3.30669C8.92093 3.50816 8.21817 3.79868 7.57223 4.16314C7.09123 4.43454 6.48132 4.26425 6.20992 3.78325C5.93868 3.30233 6.10799 2.69236 6.58883 2.42095C7.38004 1.97451 8.2395 1.62042 9.15524 1.37505C10.0709 1.1297 10.992 1.00708 11.9004 0.998097Z" fill="currentColor" />
    <path d="M10.0019 12C10.0019 10.8954 10.8973 10 12.0019 10C13.1065 10 14.0019 10.8954 14.0019 12C14.0019 13.1046 13.1065 14 12.0019 14C10.8973 14 10.0019 13.1046 10.0019 12Z" fill="currentColor" />
</svg>