<svg xmlns="http://www.w3.org/2000/svg" width="24" height="24" viewBox="0 0 24 24" fill="none">
    <path d="M12.002 22.75C17.939 22.75 22.752 17.9371 22.752 12C22.752 6.06294 17.939 1.25 12.002 1.25C6.06489 1.25 1.25195 6.06294 1.25195 12C1.25195 17.9371 6.06489 22.75 12.002 22.75ZM9.80371 16.7158C9.40856 16.3301 9.40059 15.697 9.78613 15.3018L12.3105 12.7158C12.6553 12.3627 12.8427 12.1678 12.9561 12.0156C12.9544 12.0185 12.9581 12.0129 12.9561 12.0156L12.9633 12.0038C12.9618 12.0016 12.9628 11.9954 12.9614 11.9928C12.9597 11.99 12.9634 11.9955 12.9614 11.9928C12.848 11.8406 12.6553 11.6373 12.3105 11.2842L9.78613 8.69824C9.40059 8.303 9.40856 7.66987 9.80371 7.28418C10.1989 6.89864 10.8321 6.90661 11.2178 7.30176L13.7838 9.93136C13.802 9.94996 13.8202 9.96855 13.8383 9.98709C14.1097 10.2653 14.3701 10.5357 14.5596 10.79C14.7894 11.0987 15.002 11.4937 15.002 12C15.002 12.5063 14.7894 12.9013 14.5596 13.21C14.3575 13.4812 14.0747 13.7709 13.7839 14.0686L11.2178 16.6982C10.8321 17.0934 10.1989 17.1014 9.80371 16.7158Z" fill="currentColor" />
</svg>