<svg xmlns="http://www.w3.org/2000/svg" width="24" height="24" viewBox="0 0 24 24" fill="none">
    <path d="M1.29497 1.29302C1.68549 0.902491 2.31851 0.902491 2.70903 1.29302L22.709 21.293C23.0996 21.6835 23.0996 22.3166 22.709 22.7071C22.3185 23.0976 21.6855 23.0976 21.295 22.7071L1.29497 2.70708C0.904444 2.31655 0.904444 1.68354 1.29497 1.29302Z" fill="currentColor" />
    <path d="M19.9376 16.7546L21.0262 17.8432C22.1176 16.1611 22.7514 14.1546 22.7514 12.0001C22.7514 6.063 17.9385 1.25006 12.0014 1.25006C9.84691 1.25006 7.84042 1.88389 6.15826 2.97525L7.2469 4.06389L19.9376 16.7546Z" fill="currentColor" />
    <path fill-rule="evenodd" clip-rule="evenodd" d="M17.8452 21.0243L16.7565 19.9357L4.06584 7.24495L2.9772 6.15631C1.88584 7.83847 1.25201 9.84496 1.25201 11.9995C1.25201 17.9365 6.06495 22.7495 12.002 22.7495C14.1565 22.7495 16.163 22.1157 17.8452 21.0243Z" fill="currentColor" />
</svg>