<svg xmlns="http://www.w3.org/2000/svg" width="24" height="24" viewBox="0 0 24 24" fill="none">
    <path d="M12.002 22.75C6.06489 22.75 1.25195 17.9371 1.25195 12C1.25195 6.06294 6.06489 1.25 12.002 1.25C17.939 1.25 22.752 6.06294 22.752 12C22.752 17.9371 17.939 22.75 12.002 22.75ZM14.2002 16.7158C14.5953 16.3301 14.6033 15.697 14.2178 15.3018L11.6934 12.7158C11.3487 12.3627 11.1612 12.1678 11.0479 12.0156C11.0458 12.0129 11.0495 12.0185 11.0479 12.0156L11.0406 12.0038C11.0421 12.0016 11.0411 11.9954 11.0425 11.9928C11.0405 11.9955 11.0442 11.99 11.0425 11.9928C11.1559 11.8406 11.3487 11.6373 11.6934 11.2842L14.2178 8.69824C14.6033 8.303 14.5953 7.66987 14.2002 7.28418C13.805 6.89864 13.1718 6.90661 12.7861 7.30176L10.2201 9.93136C10.2019 9.94996 10.1837 9.96855 10.1657 9.98709C9.89422 10.2653 9.63379 10.5357 9.44434 10.79C9.21447 11.0987 9.00195 11.4937 9.00195 12C9.00195 12.5063 9.21447 12.9013 9.44434 13.21C9.64642 13.4812 9.92925 13.7709 10.2201 14.0686L12.7861 16.6982C13.1718 17.0934 13.805 17.1014 14.2002 16.7158Z" fill="currentColor" />
</svg>