<svg xmlns="http://www.w3.org/2000/svg" width="24" height="24" viewBox="0 0 24 24" fill="none">
    <path fill-rule="evenodd" clip-rule="evenodd" d="M22.752 12C22.752 17.9371 17.939 22.75 12.002 22.75C6.06489 22.75 1.25195 17.9371 1.25195 12C1.25195 6.06294 6.06489 1.25 12.002 1.25C17.939 1.25 22.752 6.06294 22.752 12ZM11.252 6V6.65746C9.73416 6.96165 8.50195 8.16957 8.50195 9.75293C8.50199 10.5642 8.73595 11.3367 9.40723 11.876C9.88621 12.2607 10.5138 12.4643 11.252 12.5409V15.8202C10.5435 15.6316 10.0369 15.189 9.8457 14.7178C9.68993 14.334 9.25196 14.1489 8.86816 14.3047C8.48438 14.4605 8.29932 14.8984 8.45508 15.2822C8.90064 16.3801 9.99015 17.1358 11.252 17.3523V18C11.252 18.4142 11.5877 18.75 12.002 18.75C12.4162 18.75 12.752 18.4142 12.752 18V17.3708C13.4091 17.2884 14.0399 17.0868 14.5605 16.7139C15.3145 16.1736 15.7518 15.3338 15.752 14.2471C15.752 13.234 15.4518 12.3718 14.7129 11.7969C14.1849 11.3862 13.5089 11.1848 12.752 11.1112V8.20457C13.3236 8.39919 13.7435 8.80552 13.9131 9.26172C14.0575 9.64981 14.4898 9.84739 14.8779 9.70312C15.2661 9.55877 15.4636 9.1265 15.3193 8.73828C14.9195 7.66307 13.9294 6.88963 12.752 6.65633V6C12.752 5.58579 12.4162 5.25 12.002 5.25C11.5877 5.25 11.252 5.58579 11.252 6ZM13.6865 15.4951C13.4537 15.6618 13.1388 15.7858 12.752 15.8545V12.6204C13.2513 12.6848 13.5807 12.8161 13.792 12.9805C14.0528 13.1834 14.252 13.532 14.252 14.2471C14.2518 14.888 14.0179 15.2578 13.6865 15.4951Z" fill="currentColor" />
    <path d="M11.252 11.0306V8.20312C10.4813 8.463 10.002 9.10833 10.002 9.75359C10.002 10.2784 10.1431 10.5431 10.3467 10.7067C10.5122 10.8397 10.791 10.9651 11.252 11.0306Z" fill="currentColor" />
</svg>