<svg xmlns="http://www.w3.org/2000/svg" width="24" height="24" viewBox="0 0 24 24" fill="none">
    <path fill-rule="evenodd" clip-rule="evenodd" d="M3.4469 16.0298C3.44688 16.0301 3.44692 16.0295 3.4469 16.0298V16.0298ZM1.46902 15.731C1.46884 15.7322 1.4693 15.7282 1.46902 15.731V15.731ZM1.46094 15.786C1.4626 15.7746 1.46419 15.7647 1.46553 15.7564L1.46094 15.786ZM8.21582 22.5409L8.24363 22.5366C8.2357 22.5379 8.2264 22.5393 8.21582 22.5409ZM8.24363 22.5366C8.24283 22.5367 8.24447 22.5365 8.24363 22.5366V22.5366Z" fill="currentColor" />
    <path fill-rule="evenodd" clip-rule="evenodd" d="M13.127 3.37488C18.5117 3.37488 22.877 7.7401 22.877 13.1249C22.877 18.5097 18.5117 22.8749 13.127 22.8749C7.74218 22.8749 3.37695 18.5097 3.37695 13.1249C3.37695 11.2476 3.90753 9.49417 4.8269 8.00647L10.5361 13.7157C11.4148 14.5944 12.8391 14.5944 13.7178 13.7157C14.5965 12.837 14.5965 11.4127 13.7178 10.5341L8.00854 4.82483C9.49624 3.90545 11.2496 3.37488 13.127 3.37488Z" fill="currentColor" />
    <path d="M12.834 12.8321C12.4435 13.2226 11.8104 13.2226 11.4199 12.8321L3.13019 4.54234C3.13697 4.84849 3.15366 5.1734 3.17676 5.50103C3.2218 6.13955 3.28966 6.75934 3.34668 7.22173C3.37512 7.45231 3.40061 7.64289 3.41895 7.77446C3.42806 7.83984 3.43545 7.89068 3.44043 7.92485L3.44629 7.96392C3.44615 7.96173 3.44664 7.96625 3.44629 7.96392L3.44727 7.97466C3.53013 8.52069 3.15444 9.03047 2.6084 9.11333C2.06262 9.19593 1.5527 8.82118 1.46973 8.27544C1.46936 8.27168 1.46821 8.26079 1.46778 8.25786L1.46553 8.24356L1.46094 8.21392C1.45537 8.17571 1.44729 8.12004 1.4375 8.04985C1.41793 7.9094 1.39121 7.70909 1.36133 7.46685C1.3017 6.98333 1.22994 6.32646 1.18164 5.64165C1.13381 4.9633 1.10649 4.22697 1.14551 3.59575C1.16492 3.28191 1.20226 2.96233 1.27344 2.67485C1.33701 2.41829 1.46168 2.04033 1.75196 1.75005C2.04224 1.45977 2.4202 1.3351 2.67676 1.27153C2.96424 1.20035 3.28382 1.16301 3.59766 1.1436C4.22887 1.10459 4.96521 1.13189 5.64356 1.17974C6.32837 1.22804 6.98523 1.29978 7.46875 1.35942C7.71098 1.3893 7.91131 1.41602 8.05176 1.4356C8.12194 1.44538 8.17762 1.45346 8.21582 1.45903L8.2454 1.46361L8.25977 1.46587C8.2627 1.46631 8.2671 1.46674 8.27086 1.46712C8.81675 1.55011 9.19809 2.06153 9.11524 2.60747C9.03214 3.15324 8.52244 3.5282 7.97657 3.44536L7.96582 3.44438L7.92676 3.43853C7.89259 3.43354 7.84174 3.42616 7.77637 3.41704C7.64479 3.3987 7.45422 3.37322 7.22364 3.34478C6.76125 3.28774 6.14146 3.2199 5.50293 3.17485C5.17531 3.15175 4.85039 3.13505 4.54425 3.12828L12.834 11.418C13.2245 11.8085 13.2245 12.4416 12.834 12.8321Z" fill="currentColor" />
</svg>