<svg xmlns="http://www.w3.org/2000/svg" width="24" height="24" viewBox="0 0 24 24" fill="none">
    <path fill-rule="evenodd" clip-rule="evenodd" d="M12.0115 12.9568C12.0108 12.9563 12.013 12.957 12.0115 12.9568V12.9568ZM12.0115 12.9568C12.0112 12.957 12.0119 12.9567 12.0115 12.9568C12.0102 12.9572 12.0127 12.9565 12.0115 12.9568Z" fill="currentColor" />
    <path d="M22.752 12C22.752 17.9371 17.939 22.75 12.002 22.75C6.06489 22.75 1.25195 17.9371 1.25195 12C1.25195 6.06294 6.06489 1.25 12.002 1.25C17.939 1.25 22.752 6.06294 22.752 12ZM16.7178 9.80176C16.3321 9.40661 15.6989 9.39864 15.3037 9.78418L12.7178 12.3086C12.3646 12.6533 12.1698 12.8407 12.0176 12.9541C12.0149 12.9561 12.0204 12.9525 12.0176 12.9541C12.0164 12.9548 12.0068 12.9607 12.0057 12.9614C12.0044 12.9622 12.0069 12.9605 12.0057 12.9614C12.0036 12.9598 11.9973 12.9609 11.9948 12.9594C11.9919 12.9578 11.9975 12.9614 11.9948 12.9594C11.8426 12.846 11.6393 12.6533 11.2861 12.3086L8.7002 9.78418C8.30496 9.39864 7.67183 9.40661 7.28613 9.80176C6.90059 10.197 6.90856 10.8301 7.30371 11.2158L9.88965 13.7393L9.93331 13.7819C9.95192 13.8001 9.9705 13.8182 9.98905 13.8363C10.2672 14.1077 10.5377 14.3682 10.792 14.5576C11.1007 14.7875 11.4957 15 12.002 15C12.5083 15 12.9032 14.7875 13.2119 14.5576C13.4832 14.3555 13.7728 14.0727 14.0706 13.7819L14.1143 13.7393L16.7002 11.2158C17.0953 10.8301 17.1033 10.197 16.7178 9.80176Z" fill="currentColor" />
</svg>