<svg xmlns="http://www.w3.org/2000/svg" width="24" height="24" viewBox="0 0 24 24" fill="none">
    <path d="M22.7519 12C22.7519 17.9371 17.939 22.75 12.0019 22.75C6.06483 22.75 1.25189 17.9371 1.25189 12C1.25189 6.06294 6.06483 1.25 12.0019 1.25C17.939 1.25 22.7519 6.06294 22.7519 12ZM8.50189 10V17C8.50189 17.5523 8.94961 18 9.50189 18C10.0542 18 10.5019 17.5523 10.5019 17V14H13.0019C14.9349 14 16.5019 12.433 16.5019 10.5C16.5019 8.567 14.9349 7 13.0019 7H11.5019L11.4563 7C11.0291 6.99994 10.6137 6.99988 10.2714 7.0459C9.88822 7.09742 9.45105 7.22272 9.08783 7.58594C8.72461 7.94915 8.59931 8.38633 8.54779 8.76953C8.50177 9.1118 8.50183 9.52725 8.50189 9.95442L8.50189 10Z" fill="currentColor" />
    <path fill-rule="evenodd" clip-rule="evenodd" d="M13.0019 12H10.5019V10C10.5019 9.5005 10.5037 9.22632 10.5292 9.03613C10.5271 9.03772 10.5292 9.03613 10.5292 9.03613C10.5313 9.03459 10.538 9.02734 10.538 9.02734C10.7282 9.0018 11.0024 9 11.5019 9H13.0019C13.8303 9 14.5019 9.67157 14.5019 10.5C14.5019 11.3284 13.8303 12 13.0019 12Z" fill="currentColor" />
</svg>