<svg xmlns="http://www.w3.org/2000/svg" width="24" height="24" viewBox="0 0 24 24" fill="none">
    <path fill-rule="evenodd" clip-rule="evenodd" d="M8.00195 3.06641C8.00195 2.09991 8.78545 1.31641 9.75195 1.31641H14.752C15.7185 1.31641 16.502 2.09991 16.502 3.06641C16.502 4.0329 15.7185 4.81641 14.752 4.81641H9.75195C8.78545 4.81641 8.00195 4.0329 8.00195 3.06641Z" fill="currentColor" />
    <path fill-rule="evenodd" clip-rule="evenodd" d="M19.6533 4.03125C19.075 3.45294 18.3521 3.19335 17.498 3.06641C17.4285 4.66161 16.1143 5.93359 14.502 5.93359H9.50195C7.8896 5.93359 6.57438 4.66163 6.50488 3.06641C5.65125 3.1934 4.92871 3.45315 4.35059 4.03125C3.74883 4.63325 3.48922 5.39183 3.36816 6.29199C3.25191 7.15701 3.25193 8.25788 3.25195 9.62103V15.9961C3.25193 17.3592 3.25191 18.4602 3.36816 19.3252C3.48922 20.2254 3.74883 20.9839 4.35059 21.5859C4.95242 22.1878 5.71049 22.4463 6.61035 22.5674C7.47484 22.6836 8.57368 22.6836 9.93583 22.6836H14.0664C15.4286 22.6836 16.529 22.6836 17.3936 22.5674C18.2934 22.4463 19.0515 22.1877 19.6533 21.5859C20.2551 20.9839 20.5147 20.2254 20.6357 19.3252C20.752 18.4601 20.752 17.3594 20.752 15.9961V9.62109C20.752 8.2578 20.752 7.15708 20.6357 6.29199C20.5147 5.39183 20.2551 4.63325 19.6533 4.03125ZM17.252 12.0664C17.252 11.5141 16.8042 11.0664 16.252 11.0664H12.252C11.6997 11.0664 11.252 11.5141 11.252 12.0664C11.252 12.6187 11.6997 13.0664 12.252 13.0664H16.252C16.8042 13.0664 17.252 12.6187 17.252 12.0664ZM16.252 16.0664C16.8042 16.0664 17.252 16.5141 17.252 17.0664C17.252 17.6187 16.8042 18.0664 16.252 18.0664H12.252C11.6997 18.0664 11.252 17.6187 11.252 17.0664C11.252 16.5141 11.6997 16.0664 12.252 16.0664H16.252ZM9.26172 17.0664C9.26172 16.5141 8.814 16.0664 8.26172 16.0664C7.70943 16.0664 7.25195 16.5141 7.25195 17.0664C7.25195 17.6187 7.70943 18.0664 8.26172 18.0664C8.814 18.0664 9.26172 17.6187 9.26172 17.0664ZM8.26172 11.0664C8.814 11.0664 9.26172 11.5141 9.26172 12.0664C9.26172 12.6187 8.814 13.0664 8.26172 13.0664C7.70943 13.0664 7.25195 12.6187 7.25195 12.0664C7.25195 11.5141 7.70943 11.0664 8.26172 11.0664Z" fill="currentColor" />
</svg>