<svg xmlns="http://www.w3.org/2000/svg" width="24" height="24" viewBox="0 0 24 24" fill="none">
    <path fill-rule="evenodd" clip-rule="evenodd" d="M7.75195 3C7.75195 2.0335 8.53545 1.25 9.50195 1.25H14.502C15.4685 1.25 16.252 2.0335 16.252 3C16.252 3.9665 15.4685 4.75 14.502 4.75H9.50195C8.53545 4.75 7.75195 3.9665 7.75195 3Z" fill="currentColor" />
    <path fill-rule="evenodd" clip-rule="evenodd" d="M19.6533 4.09766C19.075 3.51934 18.3521 3.25976 17.498 3.13281C17.4285 4.72802 16.1143 6 14.502 6H9.50195C7.8896 6 6.57438 4.72804 6.50488 3.13281C5.65125 3.25981 4.92871 3.51955 4.35059 4.09766C3.74883 4.69966 3.48922 5.45824 3.36816 6.3584C3.25191 7.22342 3.25193 8.32429 3.25195 9.68743V16.0625C3.25193 17.4256 3.25191 18.5266 3.36816 19.3916C3.48922 20.2918 3.74883 21.0503 4.35059 21.6523C4.95242 22.2542 5.71049 22.5128 6.61035 22.6338C7.47484 22.7501 8.57368 22.75 9.93583 22.75H14.0664C15.4286 22.75 16.529 22.7501 17.3936 22.6338C18.2934 22.5128 19.0515 22.2542 19.6533 21.6523C20.2551 21.0503 20.5147 20.2918 20.6357 19.3916C20.752 18.5265 20.752 17.4258 20.752 16.0625V9.6875C20.752 8.3242 20.752 7.22349 20.6357 6.3584C20.5147 5.45824 20.2551 4.69966 19.6533 4.09766ZM8.00195 12C8.00195 10.8954 8.89738 10 10.002 10H14.0029C15.1076 10.0001 16.0029 10.8963 16.002 12.001C16.0014 12.5532 15.5532 13.0005 15.001 13C14.449 12.9995 14.0019 12.5519 14.002 12H13.0029V16H14.0029C14.5552 16.0001 15.0029 16.4478 15.0029 17C15.0029 17.5522 14.5552 17.9999 14.0029 18H10.0029C9.45064 18 9.00293 17.5523 9.00293 17C9.00293 16.4477 9.45064 16 10.0029 16H11.0029V12H10.002C10.002 12.5523 9.55424 13 9.00195 13C8.44967 13 8.00195 12.5523 8.00195 12Z" fill="currentColor" />
</svg>