<svg xmlns="http://www.w3.org/2000/svg" width="24" height="24" viewBox="0 0 24 24" fill="none">
    <path d="M21.377 14.8037C21.3769 15.4805 21.1084 16.1298 20.6299 16.6084L15.4082 21.8291C14.7385 22.4987 13.8299 22.875 12.8828 22.875H11.377C10.8247 22.875 10.377 22.4273 10.377 21.875V20.3691C10.377 19.4221 10.7533 18.5135 11.4229 17.8438L16.6436 12.6221C17.1221 12.1435 17.7715 11.875 18.4482 11.875C19.125 11.875 19.7744 12.1436 20.2529 12.6221L20.6299 12.999C21.1084 13.4776 21.377 14.127 21.377 14.8037Z" fill="currentColor" />
    <path fill-rule="evenodd" clip-rule="evenodd" d="M7.12695 2.875C7.12695 1.9085 7.91045 1.125 8.87695 1.125H13.877C14.8435 1.125 15.627 1.9085 15.627 2.875C15.627 3.8415 14.8435 4.625 13.877 4.625H8.87695C7.91045 4.625 7.12695 3.8415 7.12695 2.875Z" fill="currentColor" />
    <path fill-rule="evenodd" clip-rule="evenodd" d="M16.873 3.00781C17.7271 3.13476 18.45 3.39434 19.0283 3.97266C19.6301 4.57466 19.8897 5.33324 20.0107 6.2334C20.127 7.09849 20.127 8.1992 20.127 9.5625V11.0156C19.6095 10.761 19.0358 10.625 18.4482 10.625C17.503 10.625 16.5939 10.9769 15.8965 11.6084L15.7598 11.7383L10.5391 16.959C9.63487 17.8632 9.12695 19.0904 9.12695 20.3691V21.875C9.12695 22.138 9.17207 22.3904 9.25499 22.625C7.91861 22.625 6.838 22.6235 5.98535 22.5088C5.08549 22.3878 4.32742 22.1292 3.72559 21.5273C3.12383 20.9253 2.86422 20.1668 2.74316 19.2666C2.62691 18.4016 2.62693 17.3006 2.62695 15.9375V9.56243C2.62693 8.19929 2.62691 7.09842 2.74316 6.2334C2.86422 5.33324 3.12383 4.57466 3.72559 3.97266C4.30371 3.39455 5.02625 3.13481 5.87988 3.00781C5.94938 4.60304 7.2646 5.875 8.87695 5.875H13.877C15.4893 5.875 16.8035 4.60302 16.873 3.00781Z" fill="currentColor" />
</svg>