<svg xmlns="http://www.w3.org/2000/svg" width="24" height="24" viewBox="0 0 24 24" fill="none">
    <path d="M21.752 15.5889C21.752 16.1536 21.5273 16.6954 21.1279 17.0947L16.4873 21.7363C15.918 22.3054 15.1458 22.625 14.3408 22.625H13.002C12.5877 22.625 12.252 22.2892 12.252 21.875V20.5361C12.252 19.7312 12.5715 18.9589 13.1406 18.3896L17.7822 13.749C18.1816 13.3497 18.7233 13.125 19.2881 13.125C19.8527 13.1251 20.3947 13.3498 20.7939 13.749L21.1279 14.083C21.5272 14.4823 21.7518 15.0242 21.752 15.5889Z" fill="currentColor" />
    <path d="M10.002 20.875C10.5542 20.875 11.002 21.3227 11.002 21.875C11.002 22.4273 10.5542 22.875 10.002 22.875H8.00195C7.44967 22.875 7.00195 22.4273 7.00195 21.875C7.00195 21.3227 7.44967 20.875 8.00195 20.875H10.002Z" fill="currentColor" />
    <path fill-rule="evenodd" clip-rule="evenodd" d="M6.75195 2.875C6.75195 1.9085 7.53545 1.125 8.50195 1.125H13.502C14.4685 1.125 15.252 1.9085 15.252 2.875C15.252 3.8415 14.4685 4.625 13.502 4.625H8.50195C7.53545 4.625 6.75195 3.8415 6.75195 2.875Z" fill="currentColor" />
    <path fill-rule="evenodd" clip-rule="evenodd" d="M16.498 3.00781C17.3521 3.13476 18.075 3.39434 18.6533 3.97266C19.2551 4.57466 19.5147 5.33324 19.6357 6.2334C19.752 7.09849 19.752 8.1992 19.752 9.5625V11.9068C19.6538 11.8932 19.5547 11.8838 19.4551 11.8789L19.2881 11.875C18.4479 11.875 17.6395 12.1878 17.0195 12.749L16.8984 12.8652L12.2568 17.5059C11.6085 18.1543 11.1895 18.9892 11.0518 19.8844C10.7384 19.7188 10.3811 19.625 10.002 19.625H8.00195C6.75931 19.625 5.75195 20.6324 5.75195 21.875C5.75195 22.1056 5.78665 22.3281 5.85111 22.5376C5.76892 22.5289 5.68867 22.5193 5.61035 22.5088C4.71049 22.3878 3.95242 22.1292 3.35059 21.5273C2.74883 20.9253 2.48922 20.1668 2.36817 19.2666C2.25191 18.4016 2.25193 17.3006 2.25195 15.9375V9.56243C2.25193 8.19929 2.25191 7.09842 2.36817 6.2334C2.48922 5.33324 2.74883 4.57466 3.35059 3.97266C3.92871 3.39455 4.65125 3.13481 5.50488 3.00781C5.57438 4.60304 6.88961 5.875 8.50195 5.875H13.502C15.1143 5.875 16.4285 4.60302 16.498 3.00781Z" fill="currentColor" />
</svg>