<svg xmlns="http://www.w3.org/2000/svg" width="24" height="24" viewBox="0 0 24 24" fill="none">
    <path fill-rule="evenodd" clip-rule="evenodd" d="M7.75195 3C7.75195 2.0335 8.53545 1.25 9.50195 1.25H14.502C15.4685 1.25 16.252 2.0335 16.252 3C16.252 3.9665 15.4685 4.75 14.502 4.75H9.50195C8.53545 4.75 7.75195 3.9665 7.75195 3Z" fill="currentColor" />
    <path fill-rule="evenodd" clip-rule="evenodd" d="M17.498 3.13281C18.3521 3.25976 19.075 3.51934 19.6533 4.09766C20.2551 4.69966 20.5147 5.45824 20.6357 6.3584C20.752 7.22349 20.752 8.3242 20.752 9.6875V16.0625C20.752 17.4258 20.752 18.5265 20.6357 19.3916C20.5147 20.2918 20.2551 21.0503 19.6533 21.6523C19.0515 22.2542 18.2934 22.5128 17.3936 22.6338C16.529 22.7501 15.4286 22.75 14.0664 22.75H9.93583C8.57368 22.75 7.47484 22.7501 6.61035 22.6338C5.71049 22.5128 4.95242 22.2542 4.35059 21.6523C3.74883 21.0503 3.48922 20.2918 3.36816 19.3916C3.25191 18.5266 3.25193 17.4256 3.25195 16.0625V9.68743C3.25193 8.32429 3.25191 7.22342 3.36816 6.3584C3.48922 5.45824 3.74883 4.69966 4.35059 4.09766C4.92871 3.51955 5.65125 3.25981 6.50488 3.13281C6.57438 4.72804 7.8896 6 9.50195 6H14.502C16.1143 6 17.4285 4.72802 17.498 3.13281ZM11.0029 17V14.9951H9.00781C8.45557 14.9951 8.00788 14.5473 8.00781 13.9951C8.00781 13.4428 8.45553 12.9951 9.00781 12.9951H11.0029V11C11.0029 10.4477 11.4506 10 12.0029 10C12.5552 10.0001 13.0029 10.4478 13.0029 11V12.9951H15.0078C15.5601 12.9951 16.0078 13.4428 16.0078 13.9951C16.0077 14.5473 15.5601 14.9951 15.0078 14.9951H13.0029V17C13.0029 17.5522 12.5552 17.9999 12.0029 18C11.4506 18 11.0029 17.5523 11.0029 17Z" fill="currentColor" />
</svg>