<svg xmlns="http://www.w3.org/2000/svg" width="24" height="24" viewBox="0 0 24 24" fill="none">
    <path fill-rule="evenodd" clip-rule="evenodd" d="M12.002 22.75C17.939 22.75 22.752 17.9371 22.752 12C22.752 6.06294 17.939 1.25 12.002 1.25C6.06489 1.25 1.25195 6.06294 1.25195 12C1.25195 17.9371 6.06489 22.75 12.002 22.75ZM13.002 6C13.002 5.44772 12.5542 5 12.002 5C11.4497 5 11.002 5.44772 11.002 6V12C11.002 12.174 11.0474 12.345 11.1338 12.4961L13.1338 15.9961C13.4078 16.4756 14.0185 16.6422 14.498 16.3682C14.9776 16.0942 15.1441 15.4834 14.8701 15.0039L13.002 11.7344V6Z" fill="currentColor" />
</svg>