<svg xmlns="http://www.w3.org/2000/svg" width="24" height="24" viewBox="0 0 24 24" fill="none">
    <path d="M22.752 12C22.752 17.9371 17.939 22.75 12.002 22.75C6.06489 22.75 1.25195 17.9371 1.25195 12C1.25195 6.06294 6.06489 1.25 12.002 1.25C17.939 1.25 22.752 6.06294 22.752 12ZM12.002 4.9998C11.4497 4.9998 11.002 5.44752 11.002 5.9998V11.9998C11.002 12.3563 11.1917 12.6861 11.5 12.865C11.8083 13.0439 12.1886 13.0448 12.498 12.868L15.998 10.868C16.4776 10.594 16.6441 9.98323 16.3701 9.50371C16.0961 9.02419 15.4854 8.85763 15.0059 9.13164L13.002 10.2762V5.9998C13.002 5.44752 12.5542 4.9998 12.002 4.9998Z" fill="currentColor" />
</svg>