<svg xmlns="http://www.w3.org/2000/svg" width="24" height="24" viewBox="0 0 24 24" fill="none">
    <path d="M15.002 15.5C15.5542 15.5 16.002 15.9477 16.002 16.5C16.002 17.0523 15.5542 17.5 15.002 17.5H8.00195C7.44967 17.5 7.00195 17.0523 7.00195 16.5C7.00195 15.9477 7.44967 15.5 8.00195 15.5H15.002Z" fill="currentColor" />
    <path d="M16.002 19.5C16.5542 19.5 17.002 19.9477 17.002 20.5C17.002 21.0523 16.5542 21.5 16.002 21.5H10.002C9.44967 21.5 9.00195 21.0523 9.00195 20.5C9.00195 19.9477 9.44967 19.5 10.002 19.5H16.002Z" fill="currentColor" />
    <path fill-rule="evenodd" clip-rule="evenodd" d="M19.252 18.7012C19.169 18.7305 19.0812 18.7451 18.9932 18.7441L17.3858 18.7258C17.0976 18.5006 16.7531 18.3442 16.377 18.2811C16.9092 17.8696 17.252 17.2248 17.252 16.5C17.252 15.2574 16.2446 14.25 15.002 14.25H8.00195C6.75931 14.25 5.75195 15.2574 5.75195 16.5C5.75195 17.4667 6.36159 18.291 7.21738 18.6094L4.99316 18.584C4.89297 18.5828 4.794 18.5615 4.70215 18.5215C2.67293 17.6349 1.25195 15.609 1.25195 13.25C1.25195 10.4672 3.22842 8.14735 5.85449 7.61523C6.38851 4.70489 8.93754 2.5 12.002 2.5C15.3877 2.5 18.1429 5.19226 18.2471 8.55273C20.7937 8.91457 22.752 11.1035 22.752 13.75C22.752 16.037 21.29 17.9808 19.252 18.7012Z" fill="currentColor" />
</svg>