<svg xmlns="http://www.w3.org/2000/svg" width="24" height="24" viewBox="0 0 24 24" fill="none">
    <path fill-rule="evenodd" clip-rule="evenodd" d="M5.81067 6.6947C5.86716 6.63684 5.89186 6.53884 5.94126 6.34283C6.62467 3.63153 9.07867 1.625 12.002 1.625C15.2168 1.625 17.8648 4.05231 18.2131 7.17424C18.2405 7.41959 18.2542 7.5423 18.3167 7.61328C18.3792 7.68427 18.5009 7.7138 18.7443 7.77286C21.0442 8.33089 22.752 10.4035 22.752 12.875C22.752 15.6297 20.6304 17.8888 17.9321 18.1076L19.0908 15.2109C19.5523 14.0573 18.9914 12.7478 17.8379 12.2861C16.6842 11.8247 15.3747 12.3855 14.9131 13.5391L14.1954 15.3333C13.9555 14.8735 13.5563 14.4939 13.0371 14.2861C12.4372 14.0462 11.7951 14.0827 11.252 14.3352C11.236 13.4574 10.704 12.6328 9.83789 12.2861C8.68424 11.8247 7.37471 12.3855 6.91309 13.5391L5.19462 17.8352C2.90441 17.0776 1.25195 14.9193 1.25195 12.375C1.25195 9.73326 3.03302 7.5082 5.46021 6.83419C5.6562 6.77976 5.75419 6.75255 5.81067 6.6947Z" fill="currentColor" />
    <path d="M11.2728 16.0042C11.4778 15.4915 12.0599 15.2417 12.5726 15.4466C13.0852 15.6517 13.3351 16.2337 13.1302 16.7464L11.1302 21.7464C10.9251 22.2591 10.3431 22.5089 9.83039 22.304C9.31772 22.099 9.0679 21.5169 9.27277 21.0042L11.2728 16.0042Z" fill="currentColor" />
    <path d="M8.07355 14.0042C8.27862 13.4915 8.86065 13.2417 9.37336 13.4466C9.88603 13.6517 10.1358 14.2337 9.93097 14.7464L7.93097 19.7464C7.7259 20.2591 7.14387 20.5089 6.63117 20.304C6.1185 20.099 5.86868 19.5169 6.07355 19.0042L8.07355 14.0042Z" fill="currentColor" />
    <path d="M16.0736 14.0042C16.2786 13.4915 16.8607 13.2417 17.3734 13.4466C17.886 13.6517 18.1358 14.2337 17.931 14.7464L15.931 19.7464C15.7259 20.2591 15.1439 20.5089 14.6312 20.304C14.1185 20.099 13.8687 19.5169 14.0736 19.0042L16.0736 14.0042Z" fill="currentColor" />
</svg>