<svg xmlns="http://www.w3.org/2000/svg" width="24" height="24" viewBox="0 0 24 24" fill="none">
    <path fill-rule="evenodd" clip-rule="evenodd" d="M5.81067 7.19494C5.86716 7.13709 5.89186 7.03908 5.94126 6.84308C6.62467 4.13177 9.07867 2.12524 12.002 2.12524C15.2168 2.12524 17.8648 4.55256 18.2131 7.67448C18.2405 7.91984 18.2542 8.04254 18.3167 8.11353C18.3792 8.18451 18.5009 8.21404 18.7443 8.2731C21.0442 8.83113 22.752 10.9037 22.752 13.3752C22.752 16.2747 20.4014 18.6252 17.502 18.6252H16.6432H15.4043C15.6111 18.2145 15.9477 17.3466 15.5586 16.3625L15.4609 16.1458L15.3457 15.9377C15.0406 15.4408 14.6315 15.1417 14.25 14.9592L14.8018 14.2249C15.5469 13.2308 15.3453 11.821 14.3516 11.0754C13.3575 10.3299 11.9468 10.5315 11.2012 11.5256L9.40137 13.925L9.34954 13.994C9.13645 14.2774 8.84748 14.6617 8.65234 15.0208C8.44877 15.3954 7.95854 16.4377 8.54199 17.6047C8.78293 18.0866 9.11698 18.4085 9.45572 18.6252H8.06632H7.00195C3.82632 18.6252 1.25195 16.0509 1.25195 12.8752C1.25195 10.2335 3.03302 8.00844 5.46021 7.33443C5.6562 7.28 5.75419 7.25279 5.81067 7.19494Z" fill="currentColor" />
    <path d="M12.2018 12.2757C12.5332 11.8338 13.1604 11.7441 13.6022 12.0755C14.0437 12.4068 14.1333 13.0332 13.8024 13.4749L12.0016 15.8753C12.4039 15.8753 12.8206 15.8724 13.1461 15.9202C13.4644 15.9669 14.0456 16.109 14.3434 16.7044C14.6412 17.2999 14.4062 17.8505 14.2526 18.1331C14.0955 18.4222 13.8435 18.7537 13.6022 19.0755L11.8024 21.4749C11.471 21.9167 10.8438 22.0065 10.402 21.6751C9.96034 21.3438 9.87074 20.7175 10.2018 20.2757L12.0016 17.8753C11.5995 17.8753 11.1834 17.8781 10.858 17.8304C10.5398 17.7837 9.95857 17.6415 9.66078 17.0462C9.36301 16.4507 9.598 15.9001 9.7516 15.6175C9.90872 15.3284 10.1607 14.9968 10.402 14.6751L12.2018 12.2757Z" fill="currentColor" />
</svg>