<svg xmlns="http://www.w3.org/2000/svg" width="24" height="24" viewBox="0 0 24 24" fill="none">
    <path d="M15.002 15.375V13.375C15.002 12.8227 15.4497 12.375 16.002 12.375C16.5542 12.375 17.002 12.8227 17.002 13.375V15.375C17.002 15.9273 16.5542 16.375 16.002 16.375C15.4497 16.375 15.002 15.9273 15.002 15.375Z" fill="currentColor" />
    <path d="M7.00195 15.375V13.375C7.00195 12.8227 7.44967 12.375 8.00195 12.375C8.55424 12.375 9.00195 12.8227 9.00195 13.375V15.375C9.00195 15.9273 8.55424 16.375 8.00195 16.375C7.44967 16.375 7.00195 15.9273 7.00195 15.375Z" fill="currentColor" />
    <path d="M16.0117 18.375C16.564 18.375 17.0117 18.8227 17.0117 19.375C17.0117 19.9273 16.564 20.375 16.0117 20.375H16.002C15.4497 20.375 15.002 19.9273 15.002 19.375C15.002 18.8227 15.4497 18.375 16.002 18.375H16.0117Z" fill="currentColor" />
    <path d="M8.01172 18.375C8.564 18.375 9.01172 18.8227 9.01172 19.375C9.01172 19.9273 8.564 20.375 8.01172 20.375H8.00195C7.44967 20.375 7.00195 19.9273 7.00195 19.375C7.00195 18.8227 7.44967 18.375 8.00195 18.375H8.01172Z" fill="currentColor" />
    <path d="M11.002 17.375V15.375C11.002 14.8227 11.4497 14.375 12.002 14.375C12.5542 14.375 13.002 14.8227 13.002 15.375V17.375C13.002 17.9273 12.5542 18.375 12.002 18.375C11.4497 18.375 11.002 17.9273 11.002 17.375Z" fill="currentColor" />
    <path d="M12.0117 20.375C12.564 20.375 13.0117 20.8227 13.0117 21.375C13.0117 21.9273 12.564 22.375 12.0117 22.375H12.002C11.4497 22.375 11.002 21.9273 11.002 21.375C11.002 20.8227 11.4497 20.375 12.002 20.375H12.0117Z" fill="currentColor" />
    <path fill-rule="evenodd" clip-rule="evenodd" d="M18.2471 7.67773C18.1429 4.31726 15.3877 1.625 12.002 1.625C8.93754 1.625 6.38851 3.82989 5.85449 6.74023C3.22842 7.27235 1.25195 9.5922 1.25195 12.375C1.25195 15.2695 3.3907 17.6645 6.1741 18.0658C6.38172 17.7779 6.65595 17.5409 6.97399 17.377C6.24831 17.0036 5.75195 16.2473 5.75195 15.375V13.375C5.75195 12.1324 6.75931 11.125 8.00195 11.125C9.24459 11.125 10.252 12.1324 10.252 13.375V13.9607C10.6644 13.4509 11.2951 13.125 12.002 13.125C12.7088 13.125 13.3395 13.4509 13.752 13.9607V13.375C13.752 12.1324 14.7593 11.125 16.002 11.125C17.2446 11.125 18.252 12.1324 18.252 13.375V15.375C18.252 16.2438 17.7596 16.9976 17.0386 17.3725C17.3753 17.5455 17.6626 17.8009 17.8741 18.112C20.5999 17.9211 22.752 15.6494 22.752 12.875C22.752 10.2285 20.7937 8.03957 18.2471 7.67773Z" fill="currentColor" />
</svg>