<svg xmlns="http://www.w3.org/2000/svg" width="24" height="24" viewBox="0 0 24 24" fill="none">
    <path d="M15.7949 14.6679C16.1854 14.2774 16.8184 14.2774 17.209 14.6679C17.5995 15.0584 17.5995 15.6914 17.209 16.082L12.209 21.082C11.8184 21.4725 11.1854 21.4725 10.7949 21.082L8.79491 19.082C8.40438 18.6914 8.40438 18.0584 8.79491 17.6679C9.18543 17.2774 9.81845 17.2774 10.209 17.6679L11.5019 18.9609L15.7949 14.6679Z" fill="currentColor" />
    <path d="M5.85449 7.74017C3.22842 8.27229 1.25195 10.5921 1.25195 13.3749C1.25195 15.734 2.67293 17.7598 4.70215 18.6464C4.794 18.6865 4.89297 18.7077 4.99316 18.7089L7.28098 18.7351C7.19887 18.2262 7.292 17.6945 7.56037 17.2373C7.65535 17.0755 7.77227 16.923 7.91113 16.7841C8.78981 15.9054 10.2141 15.9054 11.0928 16.7841L11.502 17.1933L14.9111 13.7841C15.7898 12.9054 17.2141 12.9054 18.0928 13.7841C18.9715 14.6628 18.9715 16.0871 18.0928 16.9658L17.7047 17.3538L16.2212 18.8374L18.9932 18.8691C19.0812 18.8701 19.169 18.8554 19.252 18.8261C21.29 18.1057 22.752 16.162 22.752 13.8749C22.752 11.2284 20.7937 9.03951 18.2471 8.67767C18.1429 5.3172 15.3877 2.62494 12.002 2.62494C8.93754 2.62494 6.38851 4.82983 5.85449 7.74017Z" fill="currentColor" />
</svg>