<svg xmlns="http://www.w3.org/2000/svg" width="24" height="24" viewBox="0 0 24 24" fill="none">
    <path d="M16.3719 12.125C16.3719 10.4683 15.0286 9.12526 13.3719 9.125C12.843 9.125 12.3482 9.2608 11.9188 9.49902C11.436 9.76694 10.8275 9.59306 10.5594 9.11035C10.2915 8.62752 10.4654 8.01903 10.9481 7.75098C11.6669 7.35213 12.4947 7.125 13.3719 7.125C16.1331 7.12526 18.3719 9.36373 18.3719 12.125C18.3719 12.555 18.3167 12.9737 18.2137 13.374C18.0761 13.9089 17.5308 14.2314 16.996 14.0938C16.4612 13.956 16.1397 13.4107 16.2772 12.876C16.3387 12.6371 16.3719 12.3855 16.3719 12.125Z" fill="currentColor" />
    <path d="M21.8779 10.6201C22.4301 10.6201 22.8779 11.0678 22.8779 11.6201C22.8778 12.1723 22.4301 12.6201 21.8779 12.6201H20.8779C20.3256 12.6201 19.8779 12.1723 19.8779 11.6201C19.8779 11.0678 20.3256 10.6201 20.8779 10.6201H21.8779ZM6.66399 4.9043C7.05451 4.51378 7.68753 4.51377 8.07805 4.9043L8.78508 5.61133C9.1756 6.00185 9.1756 6.63487 8.78508 7.02539C8.39456 7.41591 7.76154 7.41591 7.37102 7.02539L6.66399 6.31836C6.27346 5.92783 6.27346 5.29482 6.66399 4.9043ZM18.6777 4.9043C19.0682 4.51377 19.7012 4.51377 20.0917 4.9043C20.4822 5.29483 20.4822 5.92785 20.0917 6.31836L19.3847 7.02539C18.9942 7.41587 18.3611 7.41585 17.9706 7.02539C17.5801 6.63487 17.5801 6.00185 17.9706 5.61133L18.6777 4.9043ZM12.373 4.125V3.125C12.373 2.57272 12.8207 2.125 13.373 2.125C13.9252 2.12506 14.373 2.57275 14.373 3.125V4.125C14.373 4.67725 13.9252 5.12494 13.373 5.125C12.8207 5.125 12.373 4.67728 12.373 4.125Z" fill="currentColor" />
    <path d="M9.87695 20.875V18.875C9.87695 18.3227 10.3247 17.875 10.877 17.875C11.4292 17.875 11.877 18.3227 11.877 18.875V20.875C11.877 21.4273 11.4292 21.875 10.877 21.875C10.3247 21.875 9.87695 21.4273 9.87695 20.875Z" fill="currentColor" />
    <path d="M5.87695 19.875V17.875C5.87695 17.3227 6.32467 16.875 6.87695 16.875C7.42924 16.875 7.87695 17.3227 7.87695 17.875V19.875C7.87695 20.4273 7.42924 20.875 6.87695 20.875C6.32467 20.875 5.87695 20.4273 5.87695 19.875Z" fill="currentColor" />
    <path fill-rule="evenodd" clip-rule="evenodd" d="M4.41347 13.9084C4.45419 13.8681 4.472 13.7998 4.50762 13.6632C5.00031 11.7735 6.76947 10.375 8.87695 10.375C11.1947 10.375 13.1036 12.0668 13.3548 14.2427C13.3745 14.4137 13.3844 14.4992 13.4294 14.5487C13.4745 14.5981 13.5622 14.6187 13.7377 14.6599C15.3958 15.0488 16.627 16.4934 16.627 18.2159C16.627 20.2203 14.96 21.8482 12.8932 21.8747C13.0428 21.5735 13.127 21.2341 13.127 20.875V18.875C13.127 17.6324 12.1196 16.625 10.877 16.625C10.1521 16.625 9.50735 16.9677 9.09584 17.5C8.91731 16.4359 7.99183 15.625 6.87695 15.625C5.63431 15.625 4.62695 16.6324 4.62695 17.875V19.875C4.62695 20.7457 5.12156 21.5009 5.84515 21.875H5.2723C2.98289 21.875 1.12695 20.0807 1.12695 17.8674C1.12695 16.0262 2.41097 14.4754 4.16081 14.0056C4.30211 13.9677 4.37275 13.9487 4.41347 13.9084Z" fill="currentColor" />
</svg>