<svg xmlns="http://www.w3.org/2000/svg" width="24" height="24" viewBox="0 0 24 24" fill="none">
    <path d="M22.7402 19.7217C22.7519 19.5508 22.752 19.3458 22.752 19.123C22.752 18.9003 22.7519 18.6953 22.7402 18.5244C22.7281 18.3469 22.7013 18.1515 22.6191 17.9531C22.4415 17.5244 22.1006 17.1835 21.6719 17.0059C21.4735 16.9237 21.2781 16.8969 21.1006 16.8848C20.9297 16.8731 20.7247 16.873 20.502 16.873H3.50195C3.27924 16.873 3.07423 16.8731 2.90332 16.8848C2.7258 16.8969 2.53037 16.9237 2.33203 17.0059C1.90327 17.1835 1.56238 17.5244 1.38477 17.9531C1.30261 18.1515 1.27581 18.3469 1.26367 18.5244C1.25201 18.6953 1.25195 18.9003 1.25195 19.123C1.25195 19.3458 1.25201 19.5508 1.26367 19.7217C1.27581 19.8992 1.30261 20.0946 1.38477 20.293C1.56238 20.7217 1.90327 21.0626 2.33203 21.2402C2.53037 21.3224 2.7258 21.3492 2.90332 21.3613C3.07423 21.373 3.27924 21.373 3.50195 21.373H20.502C20.7247 21.373 20.9297 21.373 21.1006 21.3613C21.2781 21.3492 21.4735 21.3224 21.6719 21.2402C22.1006 21.0626 22.4415 20.7217 22.6191 20.293C22.7013 20.0946 22.7281 19.8992 22.7402 19.7217Z" fill="currentColor" />
    <path d="M15.0011 3.62392C15.0011 3.07163 14.5533 2.62396 14.001 2.62401L12.0011 2.62438L10.001 2.62438C9.44873 2.62443 9.00106 3.07218 9.00111 3.62447C9.00116 4.17675 9.44892 4.62443 10.0012 4.62438L11.0011 4.62428L11.0011 5.93018C6.63954 6.42641 3.25111 10.1293 3.25111 14.6237C3.25111 15.0379 3.58689 15.3737 4.00111 15.3737L20.0011 15.3737C20.4153 15.3737 20.7511 15.0379 20.7511 14.6237C20.7511 10.1293 17.3627 6.42641 13.0011 5.93018L13.0011 4.6241L14.0012 4.62401C14.5535 4.62396 15.0012 4.1762 15.0011 3.62392Z" fill="currentColor" />
</svg>