<svg xmlns="http://www.w3.org/2000/svg" width="24" height="24" viewBox="0 0 24 24" fill="none">
    <path d="M15.1697 3.39564C14.6854 2.76445 13.9702 2.35109 13.1814 2.24721C12.8317 2.20116 12.5 2.23827 12.1756 2.30189C11.8693 2.36196 11.5063 2.45925 11.0859 2.57192L11.0477 2.58217C10.6109 2.69919 10.2347 2.80027 9.93046 2.90443C9.61772 3.01153 9.31189 3.14478 9.03203 3.35951C8.4008 3.84387 7.98744 4.55895 7.88359 5.34779C7.83759 5.69747 7.87466 6.02931 7.93828 6.35365C7.97603 6.54607 8.02846 6.76089 8.09016 6.99828L3.74293 8.16311C3.20947 8.30606 2.89289 8.8544 3.03583 9.38786C3.17877 9.92133 3.72711 10.2379 4.26057 10.095L9.54233 8.67973L9.60364 8.6633L15.3689 7.1183L20.6813 5.69504C21.2148 5.5521 21.5314 5.00377 21.3884 4.4703C21.2455 3.93683 20.6971 3.62025 20.1637 3.76319L15.8156 4.92827C15.7503 4.69183 15.6883 4.47956 15.6248 4.29408C15.5177 3.98141 15.3844 3.67546 15.1697 3.39564Z" fill="currentColor" />
    <path d="M20.752 15.1289V17.1289V17.1933C20.752 18.5564 20.752 19.6556 20.6357 20.5205C20.5147 21.4206 20.2552 22.1784 19.6533 22.7803C19.0514 23.3822 18.2937 23.6417 17.3936 23.7627C16.5286 23.879 15.4295 23.8789 14.0664 23.8789H14.002H10.002H9.93752C8.57445 23.8789 7.47527 23.879 6.61035 23.7627C5.71024 23.6417 4.9525 23.3822 4.35059 22.7803C3.74867 22.1784 3.48918 21.4206 3.36816 20.5205C3.2519 19.6556 3.25192 18.5564 3.25195 17.1934L3.25195 17.1289V15.1289H2.00195C1.44967 15.1289 1.00195 14.6812 1.00195 14.1289C1.00195 13.5766 1.44967 13.1289 2.00195 13.1289H3.27418C3.27964 13.0605 3.28645 12.9947 3.29492 12.9317C3.34272 12.5762 3.45563 12.2006 3.76465 11.8916C4.07367 11.5826 4.44921 11.4697 4.80469 11.4219C5.12537 11.3788 5.51915 11.3788 5.94864 11.3789L6.00195 11.3789H18.002L18.0553 11.3789C18.4848 11.3788 18.8785 11.3788 19.1992 11.4219C19.5547 11.4697 19.9302 11.5826 20.2393 11.8916C20.5483 12.2006 20.6612 12.5762 20.709 12.9317C20.7175 12.9947 20.7243 13.0605 20.7297 13.1289H22.002C22.5542 13.1289 23.002 13.5766 23.002 14.1289C23.002 14.6812 22.5542 15.1289 22.002 15.1289H20.752Z" fill="currentColor" />
</svg>