<svg xmlns="http://www.w3.org/2000/svg" width="24" height="24" viewBox="0 0 24 24" fill="none">
    <path d="M3.00195 19.9999V16.9999C3.00195 15.1426 2.99974 13.6489 3.15723 12.4775C3.31859 11.2774 3.66427 10.2673 4.4668 9.46479C5.26933 8.66226 6.2794 8.31658 7.47949 8.15522C8.65087 7.99773 10.1446 7.99995 12.002 7.99995H18.1689C17.7865 7.60352 17.3249 7.17594 16.8467 6.76069C16.2392 6.23328 15.6283 5.74398 15.168 5.38471C14.9384 5.20557 14.7474 5.05948 14.6143 4.95893C14.5479 4.90884 14.496 4.86979 14.4609 4.8437C14.4434 4.83065 14.4296 4.82085 14.4209 4.8144C14.4165 4.81118 14.4132 4.80809 14.4111 4.80659L14.4092 4.80561L14.3301 4.74018C13.9543 4.39993 13.8902 3.82412 14.1973 3.40717C14.5247 2.96267 15.1501 2.86714 15.5947 3.19428V3.19526H15.5957L15.5967 3.19624C15.5974 3.19677 15.5985 3.19734 15.5996 3.19819C15.6024 3.20021 15.6063 3.20325 15.6113 3.20698C15.6215 3.21453 15.6362 3.22597 15.6553 3.24018C15.6935 3.26867 15.7492 3.31022 15.8193 3.36323C15.9596 3.46919 16.1594 3.62102 16.3984 3.80756C16.8755 4.17989 17.5148 4.69315 18.1572 5.25092C18.7947 5.80441 19.458 6.42176 19.9697 7.00092C20.2246 7.28937 20.4634 7.59176 20.6436 7.89057C20.8071 8.16193 21.0019 8.55678 21.002 8.99995C21.002 9.4431 20.8071 9.83796 20.6436 10.1093C20.4634 10.4081 20.2246 10.7105 19.9697 10.999C19.458 11.5781 18.7947 12.1955 18.1572 12.749C17.5148 13.3067 16.8755 13.82 16.3984 14.1923C16.1594 14.3789 15.9596 14.5307 15.8193 14.6367C15.7492 14.6897 15.6935 14.7312 15.6553 14.7597C15.6362 14.7739 15.6215 14.7854 15.6113 14.7929C15.6063 14.7967 15.6024 14.7997 15.5996 14.8017C15.5985 14.8026 15.5974 14.8031 15.5967 14.8037L15.5957 14.8046H15.5947V14.8056C15.1501 15.1328 14.5237 15.0373 14.1963 14.5927C13.8691 14.148 13.9646 13.5217 14.4092 13.1943L14.4111 13.1933C14.4132 13.1918 14.4165 13.1887 14.4209 13.1855C14.4296 13.179 14.4434 13.1692 14.4609 13.1562C14.496 13.1301 14.548 13.091 14.6143 13.041C14.7474 12.9404 14.9384 12.7943 15.168 12.6152C15.6283 12.2559 16.2392 11.7666 16.8467 11.2392C17.3249 10.824 17.7865 10.3964 18.1689 9.99995H12.002C10.0881 9.99995 8.75323 10.0022 7.7461 10.1376C6.76775 10.2692 6.24987 10.5098 5.88086 10.8789C5.51185 11.2479 5.27119 11.7657 5.13965 12.7441C5.00424 13.7512 5.00195 15.0861 5.00195 16.9999V19.9999C5.00195 20.5522 4.55424 20.9999 4.00195 20.9999C3.44967 20.9999 3.00195 20.5522 3.00195 19.9999Z" fill="currentColor" />
</svg>