<svg xmlns="http://www.w3.org/2000/svg" width="24" height="24" viewBox="0 0 24 24" fill="none">
    <path d="M8.00196 12V5.83301C7.60553 6.21546 7.17795 6.67702 6.7627 7.15527C6.23529 7.76271 5.74599 8.37364 5.38673 8.83398C5.20759 9.06353 5.0615 9.25457 4.96095 9.3877C4.91086 9.45401 4.87181 9.506 4.84571 9.54102C4.83267 9.55852 4.82286 9.57235 4.81641 9.58105C4.81319 9.58541 4.8101 9.58879 4.8086 9.59082L4.80762 9.59277L4.7422 9.67188C4.40194 10.0476 3.82613 10.1118 3.40919 9.80469C2.96468 9.47726 2.86916 8.85187 3.1963 8.40723H3.19727V8.40625L3.19825 8.40527C3.19879 8.40454 3.19935 8.4035 3.2002 8.40234C3.20223 8.3996 3.20527 8.39566 3.20899 8.39062C3.21655 8.38043 3.22799 8.36574 3.2422 8.34668C3.27068 8.30845 3.31224 8.25279 3.36524 8.18262C3.47121 8.04233 3.62303 7.84255 3.80958 7.60352C4.18191 7.12643 4.69516 6.48714 5.25294 5.84473C5.80642 5.20726 6.42377 4.54397 7.00294 4.03223C7.29139 3.77736 7.59377 3.53853 7.89259 3.3584C8.16394 3.19482 8.55879 3.00001 9.00196 3C9.44512 3 9.83997 3.19482 10.1113 3.3584C10.4101 3.53854 10.7125 3.77736 11.001 4.03223C11.5802 4.54398 12.1975 5.20724 12.751 5.84473C13.3088 6.48716 13.822 7.12641 14.1943 7.60352C14.3809 7.84254 14.5327 8.04232 14.6387 8.18262C14.6917 8.25279 14.7332 8.30845 14.7617 8.34668C14.7759 8.36576 14.7874 8.38042 14.7949 8.39062C14.7987 8.39567 14.8017 8.39959 14.8037 8.40234C14.8046 8.4035 14.8051 8.40454 14.8057 8.40527L14.8066 8.40625V8.40723H14.8076C15.1348 8.8519 15.0393 9.47825 14.5947 9.80566C14.1501 10.1328 13.5237 10.0373 13.1963 9.59277L13.1953 9.59082C13.1938 9.58879 13.1907 9.58541 13.1875 9.58105C13.1811 9.57235 13.1712 9.55851 13.1582 9.54102C13.1321 9.506 13.0931 9.454 13.043 9.3877C12.9424 9.25457 12.7963 9.06352 12.6172 8.83398C12.2579 8.37363 11.7686 7.76271 11.2412 7.15527C10.826 6.67701 10.3984 6.21547 10.002 5.83301V12C10.002 13.9139 10.0043 15.2487 10.1397 16.2559C10.2712 17.2342 10.5119 17.7521 10.8809 18.1211C11.2499 18.4901 11.7678 18.7308 12.7461 18.8623C13.7532 18.9977 15.0881 19 17.002 19H20.002C20.5542 19 21.002 19.4477 21.002 20C21.002 20.5523 20.5542 21 20.002 21H17.002C15.1446 21 13.6509 21.0022 12.4795 20.8447C11.2794 20.6834 10.2693 20.3377 9.4668 19.5352C8.66427 18.7326 8.3186 17.7226 8.15723 16.5225C7.99975 15.3511 8.00196 13.8573 8.00196 12Z" fill="currentColor" />
</svg>