<svg xmlns="http://www.w3.org/2000/svg" width="24" height="24" viewBox="0 0 24 24" fill="none">
    <path d="M15.252 7.49999C15.252 7.99243 15.254 8.28635 15.2823 8.49706C15.2953 8.59362 15.3104 8.64227 15.3194 8.66405C15.3214 8.66904 15.3233 8.67287 15.3243 8.67479C15.3262 8.67579 15.333 8.68055 15.3379 8.6826C15.3597 8.69157 15.4084 8.70673 15.5049 8.71971C15.7156 8.74802 16.0096 8.74999 16.502 8.74999H18.502L18.5758 8.74996C18.9681 8.74976 19.2708 8.74961 19.5381 8.80272C20.629 9.01972 21.4823 9.87296 21.6993 10.9639C21.7524 11.2311 21.7522 11.5339 21.752 11.9261L21.752 12L21.752 12.0738C21.7522 12.4661 21.7524 12.7688 21.6993 13.0361C21.4823 14.127 20.629 14.9803 19.5381 15.1973C19.2708 15.2504 18.9681 15.2502 18.5758 15.25L18.502 15.25H16.502C16.0096 15.25 15.7156 15.252 15.5049 15.2803C15.4084 15.2932 15.3597 15.3084 15.3379 15.3174C15.333 15.3194 15.3291 15.3213 15.3272 15.3223C15.3269 15.3228 15.328 15.321 15.3272 15.3223C15.3253 15.3252 15.3208 15.3325 15.3194 15.3359C15.3104 15.3577 15.2953 15.4064 15.2823 15.5029C15.254 15.7136 15.252 16.0075 15.252 16.5V18.5L15.252 18.5738C15.2522 18.9661 15.2524 19.2688 15.1993 19.5361C14.9823 20.627 14.129 21.4803 13.0381 21.6973C12.7708 21.7504 12.4681 21.7502 12.0758 21.75L12.002 21.75L11.9283 21.75C11.536 21.7502 11.2332 21.7504 10.9659 21.6973C9.87498 21.4802 9.02173 20.627 8.80474 19.5361C8.75162 19.2688 8.75177 18.966 8.75198 18.5737L8.752 18.5V16.5C8.75201 16.0076 8.75003 15.7136 8.72173 15.5029C8.70875 15.4064 8.69358 15.3577 8.68462 15.3359C8.68256 15.3309 8.68074 15.3271 8.67974 15.3252C8.67677 15.3233 8.66953 15.3188 8.66606 15.3174C8.64428 15.3084 8.59563 15.2932 8.49907 15.2803C8.28836 15.252 7.99444 15.25 7.502 15.25H5.502L5.42816 15.25C5.03589 15.2502 4.73315 15.2504 4.46587 15.1973C3.37497 14.9803 2.52173 14.127 2.30474 13.0361C2.25163 12.7688 2.25178 12.4661 2.25198 12.0738L2.252 12L2.25198 11.9261C2.25178 11.5339 2.25163 11.2311 2.30474 10.9639C2.52173 9.87296 3.37497 9.01971 4.46587 8.80272C4.73315 8.74961 5.03588 8.74976 5.42814 8.74996L5.502 8.74999H7.502C7.99444 8.74999 8.28836 8.74802 8.49907 8.71971C8.59563 8.70673 8.64428 8.69157 8.66606 8.6826C8.67105 8.68055 8.67489 8.67872 8.67681 8.67772C8.67868 8.67476 8.68319 8.66752 8.68462 8.66405C8.69358 8.64227 8.70875 8.59362 8.72173 8.49706C8.75003 8.28635 8.752 7.99243 8.752 7.49999V5.49999L8.75198 5.42615C8.75178 5.03388 8.75163 4.73114 8.80474 4.46385C9.02173 3.37296 9.87497 2.51972 10.9659 2.30272C11.2332 2.24961 11.5359 2.24976 11.9282 2.24996L12.002 2.24999L12.0758 2.24996C12.4681 2.24976 12.7709 2.24961 13.0381 2.30272C14.129 2.51972 14.9823 3.37296 15.1993 4.46385C15.2524 4.73114 15.2522 5.03387 15.252 5.42615L15.252 5.49999V7.49999Z" fill="currentColor" />
</svg>