<svg xmlns="http://www.w3.org/2000/svg" width="24" height="24" viewBox="0 0 24 24" fill="none">
    <path d="M17 1.12501C17.5523 1.12501 18 1.57272 18 2.12501C18 2.67729 17.5523 3.12501 17 3.12501C16.2881 3.12501 15.835 3.12634 15.4932 3.16407C15.1751 3.19921 15.0577 3.25713 14.9883 3.30567C14.9598 3.3256 14.9325 3.34734 14.9062 3.37012C14.8423 3.42568 14.7569 3.52567 14.6455 3.82618C14.526 4.14865 14.4148 4.58788 14.2422 5.27833L13.9697 6.3672C13.8358 6.90291 13.2935 7.22853 12.7578 7.09473C12.2221 6.9608 11.8965 6.41854 12.0303 5.88282L12.3027 4.79298C12.4646 4.14563 12.6038 3.58071 12.7705 3.13087C12.9454 2.65906 13.1828 2.21813 13.5947 1.86036C13.6736 1.79183 13.7562 1.72692 13.8418 1.667C14.2887 1.35433 14.7744 1.23098 15.2744 1.17579C15.7512 1.12319 16.3329 1.12501 17 1.12501Z" fill="currentColor" />
    <path d="M19.75 7.3252C19.7499 8.18108 19.0561 8.87489 18.2002 8.875H5.7998C4.94392 8.87489 4.25011 8.18108 4.25 7.3252C4.25 6.24824 5.12324 5.375 6.2002 5.375H17.7998C18.8768 5.375 19.75 6.24824 19.75 7.3252Z" fill="currentColor" />
    <path d="M18.6795 10.084C18.524 10.1108 18.3642 10.1247 18.2011 10.1247H17.1711H6.83063H5.80068C5.63758 10.1247 5.47773 10.1108 5.32227 10.084L5.87002 17.197L5.87459 17.2564C5.95165 18.2585 6.01403 19.0697 6.13272 19.7175C6.25632 20.392 6.45315 20.9695 6.84951 21.4656C7.08336 21.7582 7.36013 22.0146 7.66983 22.2253C8.19479 22.5824 8.78575 22.7339 9.46768 22.8054C10.1293 22.8747 10.9526 22.8747 11.9717 22.8747H12.0009H12.03C13.0491 22.8747 13.8725 22.8747 14.5341 22.8054C15.216 22.7339 15.807 22.5824 16.3319 22.2253C16.6416 22.0146 16.9184 21.7582 17.1522 21.4656C17.5486 20.9695 17.7454 20.392 17.869 19.7175C17.9877 19.0697 18.0501 18.2585 18.1272 17.2565L18.1317 17.197L18.6795 10.084Z" fill="currentColor" />
</svg>