<svg xmlns="http://www.w3.org/2000/svg" width="24" height="24" viewBox="0 0 24 24" fill="none">
    <path d="M19.9999 17.4997C19.9999 15.8429 18.6568 14.4997 16.9999 14.4997C16.1077 14.4997 15.4805 14.9172 15.0214 15.4636C15.3332 15.4399 15.6368 15.4101 15.8798 15.3806C16.428 15.3142 16.9266 15.7045 16.9931 16.2527C17.0594 16.8008 16.6682 17.2994 16.12 17.366C15.6878 17.4184 15.0267 17.4862 14.4199 17.4978C14.1197 17.5035 13.7992 17.4963 13.5126 17.4568C13.3692 17.437 13.2072 17.4054 13.0488 17.3513C12.9025 17.3014 12.6795 17.2066 12.4863 17.0134C12.2349 16.762 12.1399 16.4498 12.0976 16.279C12.0477 16.0775 12.0238 15.8636 12.0117 15.6677C11.9872 15.2726 12.0048 14.8221 12.0331 14.4197C12.062 14.0106 12.1042 13.6192 12.1396 13.3328C12.1573 13.1889 12.1738 13.0699 12.1855 12.9861C12.1913 12.9441 12.1958 12.9106 12.1992 12.8874C12.2008 12.8762 12.2021 12.8674 12.2031 12.8611C12.2035 12.858 12.2038 12.8551 12.204 12.8533L12.205 12.8513V12.8494C12.288 12.3035 12.7978 11.9286 13.3437 12.0115C13.8896 12.0944 14.2654 12.6042 14.1825 13.1501L14.1816 13.155C14.1809 13.1595 14.18 13.167 14.1786 13.1765C14.1758 13.1957 14.1712 13.225 14.1659 13.2624C14.1566 13.3299 14.1441 13.4245 14.1298 13.5388C14.8255 12.9523 15.758 12.4997 16.9999 12.4997C19.7614 12.4997 21.9999 14.7383 21.9999 17.4997C21.9999 20.2612 19.7614 22.4997 16.9999 22.4997C15.5064 22.4997 14.1646 21.8437 13.2499 20.8074C12.8847 20.3934 12.9242 19.7617 13.3378 19.3962C13.7519 19.0308 14.3845 19.0701 14.7499 19.4841C15.3011 20.1084 16.1042 20.4997 16.9999 20.4997C18.6568 20.4997 19.9999 19.1566 19.9999 17.4997Z" fill="currentColor" />
    <path fill-rule="evenodd" clip-rule="evenodd" d="M2.00006 5C2.00006 4.19711 2.43755 3.55194 2.96533 3.08401C3.49428 2.61504 4.20262 2.2384 4.99208 1.94235C6.57839 1.34749 8.70276 1 11.0001 1C13.2974 1 15.4217 1.34749 17.008 1.94235C17.7975 2.2384 18.5058 2.61504 19.0348 3.08401C19.5626 3.55194 20.0001 4.19711 20.0001 5V9.98763C20.0001 10.7113 19.9101 11.1924 19.5063 11.6148C19.4397 11.6844 19.3365 11.7005 19.2466 11.6659C18.5494 11.3973 17.7919 11.25 17.0001 11.25C16.3025 11.25 15.6827 11.3627 15.1326 11.5495C15.0293 11.5846 14.9152 11.552 14.8411 11.4719C14.5074 11.1107 14.0552 10.8549 13.5313 10.7754C12.3028 10.589 11.1554 11.4347 10.9688 12.6631L10.9669 12.6768L10.9651 12.6875C10.9642 12.6931 10.963 12.6997 10.962 12.707C10.9599 12.7212 10.9576 12.7386 10.9548 12.7588L10.9473 12.8135C10.9349 12.9028 10.9181 13.0285 10.8995 13.1797C10.879 13.3458 10.8559 13.5473 10.8341 13.7686C10.8213 13.8986 10.7118 13.9981 10.5813 13.9951C8.31129 13.9425 5.89943 13.4651 4.05086 12.5952C3.64785 12.4055 3.28331 12.2037 2.95812 11.9907C2.15343 11.4637 2.00006 10.9324 2.00006 9.98763V5ZM5.57319 6.13845C4.97889 5.9045 4.5553 5.65279 4.29215 5.41948C3.93547 5.10324 3.93547 4.89676 4.29215 4.58052C4.57285 4.33166 5.03608 4.06185 5.69433 3.81501C7.00346 3.32409 8.87909 3 11.0001 3C13.121 3 14.9967 3.32409 16.3058 3.81501C16.964 4.06185 17.4273 4.33166 17.708 4.58052C18.0647 4.89676 18.0647 5.10324 17.708 5.41948C17.4273 5.66834 16.964 5.93815 16.3058 6.18499C14.9967 6.67591 13.121 7 11.0001 7C10.103 7 9.24975 6.94202 8.46473 6.83796C7.48788 6.70847 6.52278 6.51225 5.57319 6.13845Z" fill="currentColor" />
    <path fill-rule="evenodd" clip-rule="evenodd" d="M10.8134 16.2196C10.7942 16.0941 10.6892 15.998 10.5623 15.9956C8.04658 15.9472 5.47707 15.4765 3.19926 14.4046C3.0061 14.3137 2.81518 14.2177 2.62753 14.1164C2.33926 13.9608 2.19512 13.883 2.09759 13.9412C2.00006 13.9993 2.00006 14.1584 2.00006 14.4765V18.9998C2.00006 19.8027 2.43755 20.4479 2.96533 20.9158C3.49428 21.3848 4.20262 21.7614 4.99208 22.0575C6.57839 22.6523 8.70276 22.9998 11.0001 22.9998C11.6961 22.9998 12.3762 22.9679 13.0303 22.9069C13.2651 22.885 13.3385 22.5705 13.1527 22.4253C12.849 22.1878 12.568 21.923 12.3135 21.6348C11.587 20.8116 11.5719 19.6064 12.2209 18.7697C12.3342 18.6236 12.2933 18.3945 12.1331 18.3023C11.9625 18.2041 11.7782 18.0731 11.6026 17.8975C11.1051 17.3999 10.9428 16.8139 10.8848 16.5801C10.8545 16.4576 10.8313 16.3362 10.8134 16.2196Z" fill="currentColor" />
</svg>