<svg xmlns="http://www.w3.org/2000/svg" width="24" height="24" viewBox="0 0 24 24" fill="none">
    <path d="M17.1943 13.5358C17.4505 13.0466 18.0546 12.8578 18.5439 13.114C19.0331 13.3702 19.222 13.9743 18.9658 14.4636L17.6376 16.9987C17.6514 16.9987 17.6654 16.9997 17.6796 16.9997H18.4804C18.8281 16.9997 19.1981 16.9969 19.4941 17.0388C19.7956 17.0815 20.2961 17.205 20.6122 17.6931C20.9385 18.197 20.8286 18.7133 20.7265 19.0114C20.6299 19.2931 20.4564 19.6174 20.3027 19.9108L18.9658 22.4636C18.7095 22.9528 18.1054 23.1417 17.6161 22.8855C17.1269 22.6292 16.9381 22.0251 17.1943 21.5358L18.5214 18.9997H17.6796C17.332 18.9997 16.9619 19.0026 16.6659 18.9607C16.3645 18.9179 15.8639 18.7944 15.5478 18.3064C15.2215 17.8024 15.3314 17.2861 15.4335 16.988C15.5301 16.7063 15.7037 16.382 15.8574 16.0886L17.1943 13.5358Z" fill="currentColor" />
    <path fill-rule="evenodd" clip-rule="evenodd" d="M2.99994 4.99976C2.99994 4.19686 3.43743 3.55169 3.96521 3.08376C4.49416 2.6148 5.2025 2.23815 5.99196 1.94211C7.57827 1.34724 9.70263 0.999756 11.9999 0.999756C14.2972 0.999756 16.4216 1.34724 18.0079 1.94211C18.7974 2.23815 19.5057 2.6148 20.0347 3.08376C20.5624 3.55169 20.9999 4.19686 20.9999 4.99976V9.98738C20.9999 10.9322 20.8466 11.4634 20.0419 11.9905C19.8851 12.0932 19.7191 12.1933 19.5442 12.2907C19.4178 12.1826 19.2775 12.087 19.124 12.0066C18.0232 11.4301 16.6634 11.855 16.0869 12.9558L15.7374 13.623C14.5129 13.8724 13.2287 13.9998 11.9999 13.9998C9.61123 13.9998 7.01347 13.5186 5.05074 12.5949C4.64773 12.4053 4.28319 12.2035 3.958 11.9905C3.1533 11.4634 2.99994 10.9322 2.99994 9.98738V4.99976ZM6.57307 6.13821C5.97876 5.90426 5.55518 5.65255 5.29203 5.41923C4.93534 5.103 4.93534 4.89651 5.29203 4.58028C5.57272 4.33141 6.03595 4.06161 6.69421 3.81476C8.00333 3.32384 9.87897 2.99976 11.9999 2.99976C14.1209 2.99976 15.9965 3.32384 17.3057 3.81476C17.9639 4.06161 18.4272 4.33141 18.7079 4.58028C19.0645 4.89651 19.0645 5.103 18.7079 5.41923C18.4272 5.6681 17.9639 5.9379 17.3057 6.18475C15.9965 6.67567 14.1209 6.99976 11.9999 6.99976C11.1028 6.99976 10.2496 6.94178 9.46461 6.83772C8.48775 6.70823 7.52266 6.51201 6.57307 6.13821Z" fill="currentColor" />
    <path fill-rule="evenodd" clip-rule="evenodd" d="M11.9999 15.9996C12.8396 15.9996 13.7093 15.9459 14.579 15.8374C14.4647 16.063 14.3388 16.3293 14.2519 16.5828C14.1042 17.0137 13.8598 17.9991 14.498 18.9851C15.1099 19.9303 16.0625 20.1356 16.4833 20.196L16.0869 20.9558C15.8047 21.4944 15.7624 22.0951 15.9217 22.6356C14.7336 22.8707 13.3988 22.9996 11.9999 22.9996C9.70263 22.9996 7.57827 22.6521 5.99196 22.0572C5.2025 21.7612 4.49416 21.3845 3.96521 20.9156C3.43743 20.4476 2.99994 19.8025 2.99994 18.9996V14.4762C2.99994 14.1581 2.99994 13.9991 3.09747 13.9409C3.195 13.8827 3.33914 13.9605 3.62741 14.1161C3.81506 14.2174 4.00598 14.3135 4.19914 14.4044C6.60925 15.5385 9.34594 15.9996 11.9999 15.9996Z" fill="currentColor" />
</svg>