<svg xmlns="http://www.w3.org/2000/svg" width="24" height="24" viewBox="0 0 24 24" fill="none">
    <path d="M10.6122 1.25C15.2494 1.25003 19.0679 4.77104 19.4442 9.27148C19.4495 9.4218 19.4743 9.7399 19.5302 9.81348L21.6581 12.6191C21.806 12.8135 21.962 13.0177 22.0663 13.2051C22.1862 13.4206 22.3095 13.735 22.2196 14.1104C22.13 14.4845 21.8786 14.7092 21.6757 14.8477C21.4983 14.9686 21.2675 15.0827 21.0468 15.1914L20.664 15.3799C20.5349 15.4435 20.4701 15.4754 20.4276 15.5303C20.3851 15.5855 20.3704 15.6571 20.3417 15.7988L19.9423 17.7676C19.5758 19.5008 18.0374 20.7359 16.2606 20.75C15.9708 20.7661 15.9167 20.9311 15.9257 21.0117C15.9257 21.9716 15.1472 22.7498 14.1874 22.75H8.0038C7.57116 22.7501 7.17415 22.7504 6.85146 22.707C6.49606 22.6592 6.12036 22.5462 5.81142 22.2373C5.50253 21.9283 5.39046 21.5527 5.34267 21.1973C5.29927 20.8745 5.29867 20.4777 5.29872 20.0449V19.8535C5.29872 19.3948 5.29923 19.1657 5.43739 19.0771C5.57577 18.9887 5.79414 19.0894 6.23036 19.291C6.37787 19.3592 6.5274 19.424 6.6786 19.4854C7.06236 19.6411 7.48644 19.4223 7.61415 19.0283C7.74179 18.6343 7.52428 18.2142 7.14247 18.0537C6.60963 17.8297 6.10388 17.5553 5.63075 17.2373C5.51842 17.1618 5.4073 17.0843 5.29872 17.0039C3.14729 15.4104 1.74989 12.8679 1.74989 10C1.74989 5.15769 5.7276 1.25 10.6122 1.25ZM11.7763 7.30371C11.3918 7.15017 10.9554 7.33723 10.8017 7.72168L8.80165 12.7217C8.64787 13.1062 8.8351 13.5424 9.21962 13.6963C9.60421 13.8501 10.0404 13.6629 10.1942 13.2783L12.1942 8.27832C12.3479 7.8938 12.1608 7.45751 11.7763 7.30371ZM7.5663 8.51074C7.29597 8.19711 6.82244 8.16155 6.50868 8.43164L5.58876 9.22461C5.57954 9.23256 5.56974 9.24102 5.56044 9.24902C5.39174 9.39433 5.21201 9.54823 5.08095 9.69629C4.9327 9.86377 4.74794 10.13 4.74794 10.5C4.74794 10.87 4.93269 11.1362 5.08095 11.3037C5.21201 11.4518 5.39174 11.6057 5.56044 11.751C5.56974 11.759 5.57954 11.7674 5.58876 11.7754L6.50868 12.5684C6.82244 12.8385 7.29597 12.8029 7.5663 12.4893C7.83639 12.1755 7.80083 11.702 7.4872 11.4316L6.56728 10.6387C6.50628 10.5861 6.45354 10.5407 6.40712 10.5C6.45354 10.4593 6.50627 10.4139 6.56728 10.3613L7.4872 9.56836C7.80083 9.29803 7.8364 8.8245 7.5663 8.51074ZM14.4872 8.43164C14.1734 8.16155 13.6999 8.19711 13.4296 8.51074C13.1595 8.8245 13.195 9.29803 13.5087 9.56836L14.4286 10.3613C14.4896 10.4139 14.5423 10.4593 14.5888 10.5C14.5423 10.5407 14.4896 10.5861 14.4286 10.6387L13.5087 11.4316C13.1951 11.702 13.1595 12.1755 13.4296 12.4893C13.6999 12.8029 14.1734 12.8385 14.4872 12.5684L15.4071 11.7754C15.4163 11.7674 15.4261 11.759 15.4354 11.751C15.6041 11.6057 15.7839 11.4518 15.9149 11.3037C16.0632 11.1362 16.2479 10.87 16.2479 10.5C16.2479 10.13 16.0632 9.86377 15.9149 9.69629C15.7839 9.54823 15.6041 9.39433 15.4354 9.24902C15.4261 9.24102 15.4163 9.23256 15.4071 9.22461L14.4872 8.43164Z" fill="currentColor" />
</svg>