<svg xmlns="http://www.w3.org/2000/svg" width="24" height="24" viewBox="0 0 24 24" fill="none">
    <path fill-rule="evenodd" clip-rule="evenodd" d="M11 3V4.05341C9.69777 4.19382 8.50406 4.60594 7.56055 5.22852C6.38786 6.00241 5.5 7.18443 5.5 8.62988C5.50003 9.25576 5.61758 9.86856 5.91211 10.4277C6.20944 10.9921 6.6586 11.4461 7.23438 11.793C8.15964 12.3504 9.42129 12.6364 11 12.717V17.9535C9.83556 17.8423 8.87861 17.5402 8.19434 17.1377C7.32252 16.6248 7 16.0299 7 15.5C7 14.9477 6.55228 14.5 6 14.5C5.44772 14.5 5 14.9477 5 15.5C5 16.9701 5.9277 18.1253 7.18066 18.8623C8.2074 19.4662 9.52464 19.844 11 19.961V21C11 21.5523 11.4477 22 12 22C12.5523 22 13 21.5523 13 21V19.9715C14.436 19.8866 15.7541 19.6051 16.7939 19.0342C18.1418 18.2942 19 17.0691 19 15.3701C19 14.5931 18.8499 13.8709 18.5049 13.2334C18.1572 12.5911 17.6421 12.092 17.0039 11.7197C15.9748 11.1194 14.6091 10.8404 13 10.7638V6.06817C13.9294 6.19713 14.7353 6.49988 15.3379 6.89746C16.1558 7.43724 16.5 8.07074 16.5 8.62988C16.5001 9.18205 16.9478 9.62988 17.5 9.62988C18.0522 9.62988 18.4999 9.18205 18.5 8.62988C18.5 7.18443 17.6121 6.00241 16.4395 5.22852C15.4959 4.60594 14.3022 4.19382 13 4.05341V3C13 2.44772 12.5523 2 12 2C11.4477 2 11 2.44772 11 3ZM8.26562 10.0801C8.78485 10.3929 9.64514 10.635 11 10.7139V6.06817C10.0706 6.19713 9.26472 6.49988 8.66211 6.89746C7.84419 7.43724 7.5 8.07074 7.5 8.62988C7.50003 9.00596 7.57005 9.28317 7.68164 9.49512C7.79051 9.7018 7.96676 9.89991 8.26562 10.0801ZM15.8311 17.2812C15.1599 17.6497 14.2032 17.8852 13 17.9674V12.7666C14.4019 12.8421 15.3712 13.0827 15.9961 13.4473C16.3577 13.6582 16.5928 13.9044 16.7451 14.1855C16.8999 14.4715 17 14.8511 17 15.3701C17 16.2637 16.6082 16.8546 15.8311 17.2812Z" fill="currentColor" />
</svg>