<svg xmlns="http://www.w3.org/2000/svg" width="24" height="24" viewBox="0 0 24 24" fill="none">
    <path d="M12.0001 1C12.5524 1 13.0001 1.44772 13.0001 2V3.17383C14.1648 3.58594 15.0001 4.69415 15.0001 6C15.0001 6.54683 14.8505 7.05754 14.5949 7.49902L16.4298 11.5908C16.6555 12.0946 16.4304 12.686 15.9269 12.9121C15.423 13.138 14.8306 12.913 14.6046 12.4092L12.9982 8.82617C12.6856 8.93655 12.3505 9 12.0001 9C11.6491 9 11.3132 8.93694 11.0001 8.82617L8.47474 14.46C9.27104 14.7131 10.1173 14.8832 11.0001 14.957V14.5C11.0001 13.9477 11.4478 13.5 12.0001 13.5C12.5524 13.5 13.0001 13.9477 13.0001 14.5V14.957C16.0203 14.7046 18.6159 13.3231 20.2277 11.3643C20.5785 10.938 21.2094 10.877 21.6359 11.2275C22.0623 11.5785 22.1234 12.2093 21.7726 12.6357C19.7629 15.0781 16.5903 16.7059 13.0001 16.9629V17.5C13.0001 18.0523 12.5524 18.5 12.0001 18.5C11.4478 18.5 11.0001 18.0523 11.0001 17.5V16.9629C9.83097 16.8792 8.70636 16.6504 7.65149 16.2949L4.91224 22.4092C4.68624 22.9129 4.09478 23.1379 3.59095 22.9121C3.08718 22.6861 2.86218 22.0947 3.08802 21.5908L5.81165 15.5117C4.40703 14.7777 3.18503 13.7992 2.22767 12.6357C1.87708 12.2093 1.93812 11.5784 2.36438 11.2275C2.79072 10.8767 3.42161 10.9382 3.77259 11.3643C4.52829 12.2827 5.50128 13.0736 6.63196 13.6816L9.40442 7.49902C9.14897 7.05764 9.00013 6.54666 9.00013 6C9.00013 4.69415 9.83545 3.58594 11.0001 3.17383V2C11.0001 1.44772 11.4478 1 12.0001 1ZM17.798 17.0879C18.3019 16.862 18.8933 17.087 19.1193 17.5908L20.9122 21.5908C21.138 22.0947 20.913 22.6861 20.4093 22.9121C19.9055 23.138 19.3141 22.9129 19.088 22.4092L17.2941 18.4092C17.0682 17.9053 17.2941 17.3138 17.798 17.0879Z" fill="currentColor" />
</svg>