<svg xmlns="http://www.w3.org/2000/svg" width="24" height="24" viewBox="0 0 24 24" fill="none">
    <path d="M7.50396 12.9257C7.47228 12.2794 7.607 11.6213 7.91848 11.018L8.40579 10.0747C8.83222 9.24891 9.06486 8.31725 9.33132 7.25016C9.35547 7.15341 9.37992 7.05553 9.40481 6.9565C9.69083 5.8187 10.0369 4.53357 10.7779 3.40865C10.9712 3.11504 11.1956 2.83858 11.4507 2.58345C13.9243 0.109843 18.0779 0.670593 20.7036 3.29634C23.3294 5.92209 23.8901 10.0757 21.4165 12.5493C21.1614 12.8044 20.8849 13.0287 20.5913 13.2221C19.4664 13.9631 18.1813 14.3092 17.0435 14.5952C16.944 14.6202 16.8457 14.6447 16.7485 14.669C15.6814 14.9354 14.7511 15.1678 13.9253 15.5942L12.982 16.0815C12.3787 16.393 11.7205 16.5277 11.0743 16.496L8.95657 18.6137L8.96419 18.6414C8.99678 18.7599 9.03832 18.9108 9.09622 19.1069C9.39982 20.135 9.14689 21.2971 8.33254 22.1118C7.14827 23.296 5.22776 23.296 4.04348 22.1118C3.83565 21.9039 3.66318 21.6718 3.52786 21.4243L3.48629 21.3482C3.35921 21.1157 3.26659 20.9462 3.19875 20.8266L3.18899 20.81L3.17336 20.8012C3.05405 20.7335 2.88466 20.641 2.65295 20.5143L2.57571 20.4721C2.32814 20.3368 2.09608 20.1643 1.88821 19.9565C0.703931 18.7722 0.703931 16.8517 1.88821 15.6674C2.70284 14.8531 3.86498 14.6002 4.89309 14.9038C5.06957 14.9559 5.20962 14.9943 5.32225 15.0251L5.38528 15.0424C5.39729 15.0305 5.41017 15.018 5.42359 15.005C5.44043 14.9887 5.45832 14.9714 5.47707 14.9526L7.50396 12.9257ZM7.63332 17.1088L8.99679 15.7448C8.85813 15.6403 8.72551 15.5252 8.60012 15.3999C8.47474 15.2745 8.35971 15.1419 8.25522 15.0032L6.89114 16.3667L6.86337 16.3944C6.74938 16.5085 6.62681 16.6312 6.51418 16.727C6.39372 16.8294 6.1856 16.9909 5.89504 17.0649C5.69119 17.1168 5.50795 17.104 5.40286 17.0922C5.28659 17.0793 5.17153 17.0559 5.07082 17.0317C4.89032 16.9884 4.66283 16.9211 4.40535 16.845L4.32668 16.8217C3.97298 16.7173 3.57834 16.8057 3.30227 17.0815C2.89904 17.4847 2.89904 18.1392 3.30227 18.5424C3.37398 18.6141 3.45233 18.6722 3.53469 18.7172C3.80014 18.8623 4.01026 18.9772 4.15969 19.062C4.23381 19.104 4.31012 19.1484 4.36967 19.1857C4.39778 19.2032 4.46695 19.2463 4.54055 19.3071L4.62063 19.3794L4.69289 19.4594C4.75369 19.533 4.8004 19.6081 4.81789 19.6362C4.85521 19.6957 4.89597 19.7662 4.93801 19.8403C5.02277 19.9897 5.13764 20.1998 5.28274 20.4653C5.32776 20.5477 5.38588 20.626 5.45754 20.6977C5.86077 21.1009 6.51525 21.1009 6.91848 20.6977C7.19426 20.4216 7.28269 20.027 7.17825 19.6733L7.15525 19.5955L7.14107 19.5475C7.0707 19.3094 7.00896 19.0986 6.96829 18.9292C6.94411 18.8284 6.92071 18.7134 6.90774 18.5971C6.89603 18.492 6.88322 18.3088 6.93508 18.1049C7.00907 17.8144 7.17056 17.6063 7.27297 17.4858C7.36877 17.3731 7.49152 17.2505 7.60564 17.1365L7.63332 17.1088Z" fill="currentColor" />
</svg>