<svg xmlns="http://www.w3.org/2000/svg" width="24" height="24" viewBox="0 0 24 24" fill="none">
    <path d="M21.1916 7.40738C21.5167 6.96114 22.1427 6.86282 22.589 7.18765C23.0354 7.5128 23.1338 8.13872 22.8088 8.58511C22.272 9.32194 21.655 9.99968 20.9718 10.6095L22.7814 12.8712C23.1264 13.3025 23.0564 13.9325 22.6252 14.2775C22.1939 14.6225 21.5639 14.5525 21.2189 14.1212L19.381 11.8244C18.4271 12.4447 17.3851 12.9476 16.2765 13.3127L17.3947 15.549C17.6417 16.043 17.4414 16.6438 16.9474 16.8908C16.4535 17.1377 15.8526 16.9374 15.6056 16.4435L14.2863 13.8048C13.5434 13.9297 12.7795 13.9962 12.0002 13.9962C11.2204 13.9962 10.4563 13.9298 9.71305 13.8048L8.39469 16.4435C8.1477 16.9375 7.54688 17.1378 7.0529 16.8908C6.55919 16.6437 6.3587 16.0428 6.60563 15.549L7.72282 13.3127C6.61432 12.9475 5.57217 12.4447 4.61833 11.8244L2.78141 14.1212C2.43633 14.5521 1.80628 14.6224 1.37516 14.2775C0.944085 13.9326 0.874302 13.3025 1.21891 12.8712L3.02751 10.6095C2.34468 9.99987 1.72809 9.32165 1.19157 8.58511C0.866732 8.13875 0.965056 7.51275 1.4113 7.18765C1.8576 6.86263 2.48354 6.96125 2.80876 7.40738C4.8237 10.1734 8.18218 11.9962 12.0002 11.9962C15.8182 11.9962 19.1766 10.1735 21.1916 7.40738Z" fill="currentColor" />
</svg>