<svg xmlns="http://www.w3.org/2000/svg" width="24" height="24" viewBox="0 0 24 24" fill="none">
    <path d="M16.1263 14.514C16.3949 14.0314 17.0041 13.8578 17.4867 14.1263C17.9692 14.3949 18.1429 15.0041 17.8744 15.4867C16.7138 17.5722 14.5275 19.0003 12.0003 19.0003C9.47313 19.0003 7.2869 17.5722 6.12631 15.4867C5.85779 15.0041 6.03144 14.3949 6.51401 14.1263C6.99659 13.8578 7.60581 14.0314 7.87436 14.514C8.70987 16.0153 10.2545 17.0003 12.0003 17.0003C13.7462 17.0003 15.2908 16.0153 16.1263 14.514Z" fill="currentColor" />
    <path d="M7 10V8C7 7.44772 7.44772 7 8 7C8.55228 7 9 7.44772 9 8V10C9 10.5523 8.55228 11 8 11C7.44772 11 7 10.5523 7 10Z" fill="currentColor" />
    <path d="M1.75004 16.3928C1.75004 15.8537 2.1871 15.4167 2.72623 15.4167C3.26536 15.4167 3.70242 15.8537 3.70242 16.3928C3.70242 17.3464 3.70717 17.681 3.75866 17.9401C3.98975 19.1018 4.89821 20.0103 6.05995 20.2413C6.31903 20.2928 6.65356 20.2976 7.60716 20.2976C8.14629 20.2976 8.58335 20.7346 8.58335 21.2738C8.58335 21.8129 8.14629 22.25 7.60716 22.25C6.74677 22.25 6.17388 22.255 5.67862 22.1565C3.74245 21.7714 2.22862 20.2576 1.84347 18.3214C1.74495 17.8261 1.75004 17.2532 1.75004 16.3928ZM20.2976 16.3928C20.2976 15.8537 20.7346 15.4167 21.2738 15.4167C21.8129 15.4167 22.25 15.8537 22.25 16.3928C22.25 17.2532 22.255 17.8261 22.1565 18.3214C21.7714 20.2576 20.2576 21.7714 18.3214 22.1565C17.8261 22.255 17.2532 22.25 16.3928 22.25C15.8537 22.25 15.4167 21.8129 15.4167 21.2738C15.4167 20.7346 15.8537 20.2976 16.3928 20.2976C17.3464 20.2976 17.681 20.2928 17.9401 20.2413C19.1018 20.0103 20.0103 19.1018 20.2413 17.9401C20.2928 17.681 20.2976 17.3464 20.2976 16.3928ZM1.75004 7.60716C1.75004 6.74677 1.74495 6.17389 1.84347 5.67862C2.22862 3.74245 3.74245 2.22862 5.67862 1.84347C6.17389 1.74495 6.74677 1.75004 7.60716 1.75004C8.14629 1.75004 8.58335 2.1871 8.58335 2.72623C8.58335 3.26536 8.14629 3.70242 7.60716 3.70242C6.65356 3.70242 6.31903 3.70717 6.05995 3.75866C4.89821 3.98975 3.98975 4.89821 3.75866 6.05995C3.70717 6.31903 3.70242 6.65356 3.70242 7.60716C3.70242 8.14629 3.26536 8.58335 2.72623 8.58335C2.1871 8.58335 1.75004 8.14629 1.75004 7.60716ZM20.2976 7.60716C20.2976 6.65356 20.2928 6.31903 20.2413 6.05995C20.0103 4.89821 19.1018 3.98975 17.9401 3.75866C17.681 3.70717 17.3464 3.70242 16.3928 3.70242C15.8537 3.70242 15.4167 3.26536 15.4167 2.72623C15.4167 2.1871 15.8537 1.75004 16.3928 1.75004C17.2532 1.75004 17.8261 1.74495 18.3214 1.84347C20.2576 2.22862 21.7714 3.74245 22.1565 5.67862C22.255 6.17388 22.25 6.74677 22.25 7.60716C22.25 8.14629 21.8129 8.58335 21.2738 8.58335C20.7346 8.58335 20.2976 8.14629 20.2976 7.60716Z" fill="currentColor" />
    <path d="M16 6.25C16.3228 6.25 16.6098 6.45644 16.7119 6.7627L17.001 7.63086C17.0591 7.80462 17.1954 7.94092 17.3691 7.99902L18.2373 8.28809C18.5436 8.39017 18.75 8.67718 18.75 9C18.75 9.32282 18.5436 9.60983 18.2373 9.71191L17.3691 10.001C17.1954 10.0591 17.0591 10.1954 17.001 10.3691L16.7119 11.2373C16.6098 11.5436 16.3228 11.75 16 11.75C15.6772 11.75 15.3902 11.5436 15.2881 11.2373L14.999 10.3691C14.9409 10.1954 14.8046 10.0591 14.6309 10.001L13.7627 9.71191C13.4564 9.60983 13.25 9.32282 13.25 9C13.25 8.67718 13.4564 8.39017 13.7627 8.28809L14.6309 7.99902C14.8046 7.94092 14.9409 7.80462 14.999 7.63086L15.2881 6.7627L15.335 6.65332C15.4625 6.40837 15.7174 6.25 16 6.25Z" fill="currentColor" />
</svg>