<svg xmlns="http://www.w3.org/2000/svg" width="24" height="24" viewBox="0 0 24 24" fill="none">
    <path d="M22.6724 20.082C22.7555 19.7719 22.7496 19.4166 22.7496 19V5.99995C22.7496 5.55277 22.7587 5.16105 22.6343 4.78804C22.51 4.41516 22.2678 4.10761 21.9996 3.74995L21.4 2.95015C21.0695 2.50949 20.5504 2.24995 19.9996 2.24995C19.4487 2.24995 18.9297 2.50949 18.5992 2.95015L17.9996 3.74995C17.7313 4.10761 17.4892 4.41516 17.3648 4.78804C17.2405 5.16105 17.2496 5.55277 17.2496 5.99995V19C17.2496 19.4166 17.2437 19.7719 17.3267 20.082C17.5348 20.8584 18.1411 21.4648 18.9175 21.6728C19.2277 21.7559 19.5829 21.75 19.9996 21.75C20.4162 21.75 20.7715 21.7559 21.0816 21.6728C21.8581 21.4648 22.4644 20.8584 22.6724 20.082Z" fill="currentColor" />
    <path d="M14.6724 20.082C14.7555 19.7719 14.7496 19.4166 14.7496 19V5.99995C14.7496 5.55277 14.7587 5.16105 14.6343 4.78804C14.51 4.41516 14.2678 4.10761 13.9996 3.74995L13.4 2.95015C13.0695 2.50949 12.5504 2.24995 11.9996 2.24995C11.4487 2.24995 10.9297 2.50949 10.5992 2.95015L9.99957 3.74995C9.73133 4.10761 9.48917 4.41516 9.3648 4.78804C9.24047 5.16105 9.24957 5.55277 9.24957 5.99995V19C9.24957 19.4166 9.24366 19.7719 9.32672 20.082C9.53477 20.8584 10.1411 21.4648 10.9175 21.6728C11.2277 21.7559 11.5829 21.75 11.9996 21.75C12.4162 21.75 12.7715 21.7559 13.0816 21.6728C13.8581 21.4648 14.4644 20.8584 14.6724 20.082Z" fill="currentColor" />
    <path d="M6.67242 20.082C6.75548 19.7719 6.74957 19.4166 6.74957 19V5.99995C6.74957 5.55277 6.75867 5.16105 6.63433 4.78804C6.50997 4.41516 6.26781 4.10761 5.99957 3.74995L5.39996 2.95015C5.06946 2.50949 4.55039 2.24995 3.99957 2.24995C3.44874 2.24995 2.92967 2.50949 2.59918 2.95015L1.99957 3.74995C1.73133 4.10761 1.48917 4.41516 1.3648 4.78804C1.24047 5.16105 1.24957 5.55277 1.24957 5.99995V19C1.24957 19.4166 1.24366 19.7719 1.32672 20.082C1.53477 20.8584 2.14108 21.4648 2.91754 21.6728C3.22766 21.7559 3.58294 21.75 3.99957 21.75C4.41619 21.75 4.77147 21.7559 5.0816 21.6728C5.85806 21.4648 6.46437 20.8584 6.67242 20.082Z" fill="currentColor" />
    <path d="M10.9996 17C11.5519 17 11.9996 17.4477 11.9996 18C11.9996 18.5522 11.5519 19 10.9996 19H4.99957C4.44729 19 3.99957 18.5522 3.99957 18C3.99957 17.4477 4.44729 17 4.99957 17H10.9996ZM18.9996 17C19.5519 17 19.9996 17.4477 19.9996 18C19.9996 18.5522 19.5519 19 18.9996 19H12.9996C12.4473 19 11.9996 18.5522 11.9996 18C11.9996 17.4477 12.4473 17 12.9996 17H18.9996ZM10.9996 6.99995C11.5519 6.99995 11.9996 7.44767 11.9996 7.99995C11.9996 8.55224 11.5519 8.99995 10.9996 8.99995H4.99957C4.44729 8.99995 3.99957 8.55224 3.99957 7.99995C3.99957 7.44767 4.44729 6.99995 4.99957 6.99995H10.9996ZM18.9996 6.99995C19.5519 6.99995 19.9996 7.44767 19.9996 7.99995C19.9996 8.55224 19.5519 8.99995 18.9996 8.99995H12.9996C12.4473 8.99995 11.9996 8.55224 11.9996 7.99995C11.9996 7.44767 12.4473 6.99995 12.9996 6.99995H18.9996Z" fill="currentColor" />
</svg>