<svg xmlns="http://www.w3.org/2000/svg" width="24" height="24" viewBox="0 0 24 24" fill="none">
    <path d="M3.25 20.7461V18.7461C2.69772 18.7461 2.25 18.2984 2.25 17.7461C2.25 17.1938 2.69772 16.7461 3.25 16.7461V14.7461C3.25 13.6415 4.14543 12.7461 5.25 12.7461C5.80228 12.7461 6.25 13.1938 6.25 13.7461C6.25 14.2984 5.80228 14.7461 5.25 14.7461V16.7461C5.25 17.1109 5.15012 17.4516 4.97949 17.7461C5.15012 18.0406 5.25 18.3813 5.25 18.7461V20.7461C5.80228 20.7461 6.25 21.1938 6.25 21.7461C6.25 22.2984 5.80228 22.7461 5.25 22.7461C4.14543 22.7461 3.25 21.8507 3.25 20.7461ZM9.25 18.7461C9.25 18.3815 9.34906 18.0405 9.51953 17.7461C9.34906 17.4517 9.25 17.1107 9.25 16.7461V14.7461C8.69772 14.7461 8.25 14.2984 8.25 13.7461C8.25 13.1938 8.69772 12.7461 9.25 12.7461C10.3546 12.7461 11.25 13.6415 11.25 14.7461V16.7461C11.8023 16.7461 12.25 17.1938 12.25 17.7461C12.25 18.2984 11.8023 18.7461 11.25 18.7461V20.7461C11.25 21.8507 10.3546 22.7461 9.25 22.7461C8.69772 22.7461 8.25 22.2984 8.25 21.7461C8.25 21.1938 8.69772 20.7461 9.25 20.7461V18.7461Z" fill="currentColor" />
    <path d="M12.5879 1.2462C13.1577 1.24543 13.6624 1.24457 14.1377 1.41319C14.2355 1.4479 14.3312 1.48833 14.4248 1.53331C14.8796 1.75196 15.2362 2.11109 15.6387 2.51671L20.4219 7.32432C20.8891 7.79255 21.3033 8.20849 21.5273 8.75206C21.7514 9.29576 21.751 9.88465 21.75 10.548V14.0226C21.75 15.8044 21.7497 17.2406 21.5986 18.3702C21.4418 19.5431 21.1064 20.5312 20.3262 21.3155C19.5459 22.0998 18.5632 22.4371 17.3965 22.5948C16.2727 22.7467 14.8439 22.7462 13.0713 22.7462C12.6389 22.7462 12.2183 22.7464 11.8135 22.7442C12.2437 22.1931 12.5 21.4995 12.5 20.7462V19.6163C13.1027 19.2127 13.5 18.5261 13.5 17.7462C13.5 16.9661 13.103 16.2787 12.5 15.8751V14.7462C12.5 12.9513 11.0449 11.4962 9.25 11.4962C8.37786 11.4962 7.62343 11.9933 7.25 12.7189C6.87658 11.9933 6.12215 11.4962 5.25 11.4962C4.90114 11.4962 4.565 11.5507 4.25 11.6524V9.44932C4.24998 7.91566 4.24998 6.67828 4.36426 5.69444C4.48252 4.67666 4.7346 3.80428 5.32715 3.06553C5.54452 2.79458 5.79002 2.54771 6.05957 2.32921C6.7946 1.73349 7.66309 1.48029 8.67578 1.36143C9.65452 1.24661 11.0624 1.24618 12.5879 1.2462ZM13.4922 3.26671C13.4922 4.62812 13.4921 5.27582 13.6084 6.14073C13.7294 7.04082 13.9879 7.79956 14.5898 8.40147C15.1918 9.00339 15.9505 9.2619 16.8506 9.38292C17.7174 9.49943 18.366 9.50012 19.7334 9.5001C19.6766 9.3623 19.5711 9.23167 18.9531 8.61046L14.3486 3.98155C13.8157 3.44583 13.6738 3.3126 13.4922 3.25792V3.26671Z" fill="currentColor" />
</svg>