<svg xmlns="http://www.w3.org/2000/svg" width="24" height="24" viewBox="0 0 24 24" fill="none">
    <path d="M9.54297 15.0391C9.93348 14.6486 10.5665 14.6486 10.957 15.0391C11.3476 15.4296 11.3476 16.0626 10.957 16.4531L6.81055 20.5986C6.89699 20.6152 6.99059 20.6319 7.0918 20.6455C7.82659 20.7442 8.8078 20.7461 10.25 20.7461H14.25C14.8023 20.7461 15.25 21.1938 15.25 21.7461C15.25 22.2984 14.8023 22.7461 14.25 22.7461H10.25C8.86417 22.7461 7.72424 22.7478 6.8252 22.627C5.89739 22.5022 5.07798 22.2303 4.42188 21.5742C3.76577 20.9181 3.49387 20.0987 3.36914 19.1709C3.24831 18.2719 3.24997 17.1319 3.25 15.7461V11.7461C3.25002 11.1939 3.69778 10.7461 4.25 10.7461C4.80228 10.7461 5.25 11.1938 5.25 11.7461V15.7461C5.24997 17.1883 5.25186 18.1695 5.35059 18.9043C5.36414 19.0051 5.38003 19.0984 5.39649 19.1846L9.54297 15.0391Z" fill="currentColor" />
    <path d="M11.5879 1.2462C12.1577 1.24543 12.6624 1.24457 13.1377 1.41319C13.2355 1.4479 13.3312 1.48833 13.4248 1.53331C13.8796 1.75196 14.2362 2.11109 14.6387 2.51671L19.4219 7.32432C19.8891 7.79255 20.3033 8.20849 20.5273 8.75206C20.7514 9.29576 20.751 9.88465 20.75 10.548V14.0226C20.75 15.8044 20.7497 17.2406 20.5986 18.3702C20.4418 19.5431 20.1064 20.5312 19.3262 21.3155C18.5459 22.0998 17.5632 22.4371 16.3965 22.5948L16.3311 22.6026C16.4398 22.3387 16.5 22.0494 16.5 21.7462C16.4999 20.5036 15.4926 19.4962 14.25 19.4962H10.25C10.1341 19.4962 10.0218 19.4957 9.91309 19.4952L9.68262 19.4942L11.8408 17.337C12.7194 16.4583 12.7195 15.034 11.8408 14.1554C10.9621 13.2768 9.53783 13.2768 8.65918 14.1554L6.50098 16.3126V16.1632C6.50066 16.0297 6.5 15.8908 6.5 15.7462V11.7462C6.49994 10.5036 5.49259 9.49623 4.25 9.4962C3.8908 9.49621 3.55124 9.58085 3.25 9.73057V9.44932C3.24998 7.91565 3.24998 6.67829 3.36426 5.69444C3.48252 4.67666 3.7346 3.80428 4.32715 3.06553C4.54452 2.79458 4.79002 2.54771 5.05957 2.32921C5.7946 1.73349 6.66309 1.48029 7.67578 1.36143C8.65452 1.24661 10.0624 1.24618 11.5879 1.2462ZM12.4922 3.25792C12.4922 4.61955 12.4921 5.27575 12.6084 6.14073C12.7294 7.04082 12.9879 7.79956 13.5898 8.40147C14.1918 9.00339 14.9505 9.2619 15.8506 9.38292C16.7174 9.49943 17.366 9.50012 18.7334 9.5001C18.6766 9.3623 18.5711 9.23167 17.9531 8.61046L13.3486 3.98155C12.8157 3.44583 12.6738 3.3126 12.4922 3.25792Z" fill="currentColor" />
</svg>