<svg xmlns="http://www.w3.org/2000/svg" width="24" height="24" viewBox="0 0 24 24" fill="none">
    <path d="M6.21218 21.7461V20.5713C5.86057 20.4469 5.53952 20.2604 5.26199 20.0225L4.25027 20.6074C3.77207 20.8835 3.16028 20.7203 2.88406 20.2422C2.60794 19.7639 2.77209 19.1522 3.25027 18.876L4.26199 18.291C4.22955 18.1143 4.21218 17.9322 4.21218 17.7461C4.21218 17.5559 4.23009 17.3699 4.26394 17.1895L3.25515 16.6074C2.77704 16.3312 2.61284 15.7194 2.88894 15.2412C3.16514 14.7631 3.77693 14.5999 4.25515 14.876L5.2698 15.4609C5.54538 15.2265 5.86418 15.043 6.21218 14.9199V13.7461C6.21218 13.1938 6.6599 12.7461 7.21218 12.7461C7.76433 12.7463 8.21218 13.1939 8.21218 13.7461V14.9199C8.56165 15.0436 8.88114 15.2289 9.1575 15.4648L10.179 14.876C10.6572 14.6 11.2681 14.764 11.5442 15.2422C11.8201 15.7203 11.6568 16.3312 11.179 16.6074L10.1594 17.1953C10.1926 17.374 10.2122 17.5578 10.2122 17.7461C10.2122 17.9306 10.1933 18.1108 10.1614 18.2861L11.1839 18.876C11.6618 19.1522 11.8252 19.764 11.5491 20.2422C11.2728 20.72 10.662 20.8833 10.1839 20.6074L9.16531 20.0195C8.88713 20.2588 8.56506 20.4463 8.21218 20.5713V21.7461C8.21218 22.2983 7.76433 22.7459 7.21218 22.7461C6.6599 22.7461 6.21218 22.2984 6.21218 21.7461ZM7.21218 16.7461C6.86092 16.7461 6.55169 16.9272 6.37332 17.2012C6.3665 17.2143 6.36124 17.2283 6.35378 17.2412C6.34407 17.258 6.33208 17.274 6.32156 17.29C6.25138 17.4268 6.21218 17.5818 6.21218 17.7461C6.21218 17.9093 6.25127 18.0632 6.32058 18.1992C6.32972 18.2134 6.33941 18.2274 6.34792 18.2422C6.3551 18.2546 6.36088 18.2677 6.36746 18.2803C6.54475 18.5599 6.85654 18.7461 7.21218 18.7461C7.76433 18.7459 8.21218 18.2983 8.21218 17.7461C8.21218 17.1939 7.76433 16.7463 7.21218 16.7461Z" fill="currentColor" />
    <path d="M12.0879 1.2462C12.6577 1.24543 13.1624 1.24457 13.6377 1.41319C13.7355 1.4479 13.8312 1.48833 13.9248 1.53331C14.3796 1.75196 14.7362 2.11109 15.1387 2.51671L19.9219 7.32432C20.3891 7.79255 20.8033 8.20849 21.0273 8.75206C21.2514 9.29576 21.251 9.88465 21.25 10.548V14.0226C21.25 15.8044 21.2497 17.2406 21.0986 18.3702C20.9418 19.5431 20.6064 20.5312 19.8262 21.3155C19.0459 22.0998 18.0632 22.4371 16.8965 22.5948C15.7727 22.7467 14.3439 22.7462 12.5713 22.7462C11.3405 22.7462 10.2061 22.7462 9.25195 22.6954C9.38641 22.407 9.46191 22.0854 9.46191 21.7462V21.6339L9.55859 21.6905C10.6346 22.3115 12.0105 21.9431 12.6318 20.8673C13.2531 19.7912 12.8846 18.4144 11.8086 17.7931L11.7168 17.7403L11.8037 17.6905C12.8795 17.0692 13.2479 15.6933 12.627 14.6173C12.0057 13.5413 10.6298 13.1721 9.55371 13.7931L9.46191 13.8458V13.7462C9.46191 12.5037 8.45441 11.4964 7.21191 11.4962C5.96927 11.4962 4.96191 12.5036 4.96191 13.7462V13.8399L4.87988 13.7931C4.52339 13.5873 4.13398 13.4901 3.75 13.4913V9.44932C3.74998 7.91566 3.74998 6.67828 3.86426 5.69444C3.98252 4.67666 4.2346 3.80428 4.82715 3.06553C5.04452 2.79458 5.29002 2.54771 5.55957 2.32921C6.2946 1.73349 7.16309 1.48029 8.17578 1.36143C9.15452 1.24661 10.5624 1.24618 12.0879 1.2462ZM12.9922 3.26671C12.9922 4.62812 12.9921 5.27582 13.1084 6.14073C13.2294 7.04082 13.4879 7.79956 14.0898 8.40147C14.6918 9.00339 15.4505 9.2619 16.3506 9.38292C17.2174 9.49943 17.866 9.50012 19.2334 9.5001C19.1766 9.3623 19.0711 9.23167 18.4531 8.61046L13.8486 3.98155C13.3157 3.44583 13.1738 3.3126 12.9922 3.25792V3.26671Z" fill="currentColor" />
</svg>