<svg xmlns="http://www.w3.org/2000/svg" width="24" height="24" viewBox="0 0 24 24" fill="none">
    <path d="M20 10.996C20 6.57769 16.4183 2.99597 12 2.99597C10.6837 2.99597 9.48413 3.2809 8.45215 3.80359C7.95954 4.05311 7.35802 3.85569 7.1084 3.36316C6.8589 2.87058 7.0554 2.26906 7.54785 2.01941C8.88011 1.34459 10.393 0.995972 12 0.995972C17.5228 0.995972 22 5.47312 22 10.996C22 12.5204 21.9995 14.5725 21.4902 18.1376C21.4121 18.6842 20.9051 19.0643 20.3584 18.9862C19.8117 18.908 19.4317 18.4011 19.5098 17.8544C20.0005 14.4195 20 12.4715 20 10.996ZM3.88086 5.49207C4.15924 5.01507 4.77203 4.85431 5.24902 5.13269C5.72568 5.41115 5.88661 6.02303 5.6084 6.49988C5.02945 7.49191 4.63519 8.69483 4.49512 10.0956L3.99512 15.0956C3.94012 15.6451 3.4499 16.046 2.90039 15.9911C2.3509 15.9361 1.94993 15.4459 2.00488 14.8964L2.50488 9.89636C2.67085 8.2368 3.14456 6.75377 3.88086 5.49207Z" fill="currentColor" />
    <path d="M15.0452 16.8065C15.1499 16.2642 15.6748 15.9099 16.2171 16.0145C16.7592 16.1193 17.1137 16.6433 17.0091 17.1854C16.6824 18.8787 16.172 20.633 15.4193 22.3895C15.2017 22.8971 14.6143 23.1323 14.1068 22.9149C13.5992 22.6974 13.364 22.11 13.5814 21.6024C14.273 19.9885 14.7432 18.372 15.0452 16.8065ZM5.83234 17.6688C6.01321 17.147 6.58297 16.8698 7.1048 17.0507C7.6264 17.2316 7.90259 17.8014 7.72199 18.3231C7.49979 18.9642 7.22728 19.6214 6.92902 20.3671C6.72395 20.8797 6.14192 21.1296 5.62922 20.9247C5.11654 20.7196 4.86673 20.1376 5.0716 19.6249C5.38439 18.8429 5.63019 18.252 5.83234 17.6688ZM15.5003 11.996C15.5003 10.6848 15.1219 9.6896 14.5394 9.03601C13.9678 8.39475 13.1248 7.99597 12.0003 7.99597C10.8796 7.99598 10.051 8.39111 9.48371 9.07312C8.89738 9.77801 8.50031 10.8999 8.50031 12.496C8.50031 13.5116 8.46908 14.353 8.40363 15.0848C8.35443 15.6349 7.86778 16.0413 7.31769 15.9921C6.76791 15.9426 6.36237 15.457 6.41144 14.9071C6.47005 14.2519 6.50031 13.4728 6.50031 12.496C6.50031 10.5921 6.97236 8.96393 7.94562 7.79382C8.93796 6.60084 10.3596 5.99598 12.0003 5.99597C13.6372 5.99597 15.0445 6.59727 16.0325 7.70593C17.0095 8.80232 17.5003 10.3073 17.5003 11.996C17.5003 12.3357 17.4938 12.6816 17.4808 13.0331C17.4603 13.585 16.9965 14.0155 16.4446 13.995C15.8928 13.9745 15.4623 13.5107 15.4827 12.9589C15.4948 12.6326 15.5003 12.3114 15.5003 11.996Z" fill="currentColor" />
    <path d="M11.0003 10.996C11.0003 10.4437 11.448 9.99597 12.0003 9.99597C12.5526 9.99597 13.0003 10.4437 13.0003 10.996C13.0003 15.1243 11.9758 19.7501 10.929 22.3671C10.724 22.8797 10.1419 23.1296 9.62922 22.9247C9.11654 22.7196 8.86673 22.1376 9.0716 21.6249C10.0248 19.2418 11.0003 14.8675 11.0003 10.996Z" fill="currentColor" />
</svg>