<svg xmlns="http://www.w3.org/2000/svg" width="24" height="24" viewBox="0 0 24 24" fill="none">
    <path fill-rule="evenodd" clip-rule="evenodd" d="M15.7536 9.68171C15.7503 9.68407 15.7472 9.68633 15.7443 9.68857C15.7433 9.6836 15.7422 9.67827 15.7409 9.67252L15.7443 9.68857L15.7536 9.68171ZM7.45916 6.21883C7.45892 6.21907 7.45939 6.21859 7.45916 6.21883V6.21883Z" fill="currentColor" />
    <path d="M20.2501 13.7169C20.2501 18.2865 16.5592 21.9962 12.0001 21.9962C7.44106 21.9962 3.75012 18.2865 3.75012 13.7169C3.75023 11.0795 4.72998 9.3069 5.93372 7.86044C6.42185 7.2739 6.95614 6.73045 7.45916 6.21883C7.56108 6.11517 7.66111 6.01342 7.75989 5.9122C8.35849 5.29881 8.90087 4.71637 9.34094 4.07822L9.36768 4.03945C9.74249 3.49586 10.0643 3.02918 10.3575 2.70126C10.6535 2.37036 11.0532 2.02443 11.6124 1.99814C12.0841 1.97612 12.4561 2.14529 12.7706 2.40341C13.0302 2.61644 13.2838 2.91993 13.5389 3.22513L13.5753 3.26865C14.5957 4.48859 15.4756 6.36011 15.6964 9.25497C15.7072 9.39601 15.7154 9.49827 15.7257 9.58408C15.7302 9.62136 15.7362 9.65008 15.7409 9.67252L15.7443 9.68857L15.7536 9.68171C15.7578 9.67867 15.7623 9.67546 15.7667 9.67197C15.7917 9.65239 15.8226 9.62815 15.8566 9.60068L15.9059 9.56078C16.402 9.15974 16.8125 8.82781 17.1407 8.60556C17.3117 8.48979 17.492 8.3822 17.6749 8.30771C17.8335 8.24312 18.0391 8.18487 18.2697 8.20126L18.3693 8.21298L18.4835 8.23544C18.5916 8.26087 18.6864 8.29654 18.795 8.35068C19.2003 8.55273 19.3962 8.9274 19.5148 9.22079C19.6318 9.51044 19.7366 9.89111 19.8539 10.3171L19.8683 10.3692C20.2501 11.7552 20.2501 12.7775 20.2501 13.7169Z" fill="currentColor" />
</svg>