<svg xmlns="http://www.w3.org/2000/svg" width="24" height="24" viewBox="0 0 24 24" fill="none">
    <path d="M7.99994 2.99609H8.49994V6.3916C8.49994 6.83846 8.49896 7.1184 8.48334 7.32715C8.47311 7.46362 8.45789 7.52577 8.45111 7.54883C8.43164 7.57143 8.36162 7.65268 8.18646 7.80469C7.94497 8.01425 7.59967 8.28425 7.09467 8.67676C5.21365 10.1387 3.99994 12.4258 3.99994 14.9961C3.99994 19.4144 7.58166 22.9961 11.9999 22.9961C16.4182 22.9961 19.9999 19.4144 19.9999 14.9961C19.9999 12.4258 18.7862 10.1387 16.9052 8.67676C16.4002 8.28425 16.0549 8.01425 15.8134 7.80469C15.636 7.65073 15.5689 7.57323 15.5504 7.55182C15.5436 7.52855 15.5267 7.4631 15.5165 7.32715C15.5009 7.1184 15.4999 6.83846 15.4999 6.3916V2.99609H15.9999C16.5522 2.99609 16.9999 2.54838 16.9999 1.99609C16.9999 1.44381 16.5522 0.996094 15.9999 0.996094H14.4999H9.49994H7.99994C7.44765 0.996094 6.99994 1.44381 6.99994 1.99609C6.99994 2.54838 7.44765 2.99609 7.99994 2.99609ZM10.4999 2.99609H13.4999V6.3916L13.4999 6.44419C13.4999 6.83885 13.4999 7.18847 13.5214 7.47656C13.5444 7.7835 13.5972 8.11538 13.7548 8.4375C13.9288 8.793 14.2342 9.08227 14.5029 9.31543C14.7951 9.569 15.1926 9.87812 15.6786 10.2559C17.0929 11.3553 17.9999 13.0695 17.9999 14.9961C17.9999 15.0575 17.999 15.1187 17.9972 15.1796C17.7044 15.2217 17.3737 15.2461 16.9999 15.2461C15.7114 15.2461 14.3784 14.597 12.8349 13.8252L12.7501 13.7828C11.3139 13.0644 9.67814 12.2461 7.99994 12.2461C7.5143 12.2461 7.05597 12.279 6.61962 12.3371C7.02357 11.5214 7.60786 10.8104 8.32123 10.2559C8.80723 9.87812 9.20478 9.569 9.49701 9.31543C9.7657 9.08227 10.0711 8.793 10.2451 8.4375C10.4026 8.11538 10.4555 7.7835 10.4785 7.47656C10.5 7.18847 10.5 6.83886 10.4999 6.4442L10.4999 6.3916V2.99609Z" fill="currentColor" />
</svg>