<svg xmlns="http://www.w3.org/2000/svg" width="24" height="24" viewBox="0 0 24 24" fill="none">
    <path fill-rule="evenodd" clip-rule="evenodd" d="M20.9071 17.7215L15.0436 11.858L14.2051 10.4805L14.1559 10.3998C13.9122 10.0004 13.6969 9.64738 13.584 9.24414C13.4938 8.92181 13.4759 8.59251 13.4727 8.2334V2.99609H10.5273V7.3418L8.52734 5.3418V2.99609H8C7.44772 2.99609 7 2.54838 7 1.99609C7 1.44381 7.44772 0.996094 8 0.996094H9.52734H14.4727H16C16.5523 0.996094 17 1.44381 17 1.99609C17 2.54838 16.5523 2.99609 16 2.99609H15.4727V7.86426C15.4727 8.4802 15.4815 8.60061 15.5107 8.70508C15.5399 8.80909 15.5947 8.91569 15.9141 9.44043L19.5283 15.3799L19.5742 15.4553C20.0918 16.3056 20.5497 17.058 20.9071 17.7215Z" fill="currentColor" />
    <path fill-rule="evenodd" clip-rule="evenodd" d="M13.9687 15.3789L9.52073 10.9309L8.1108 13.2473C9.75014 13.2821 11.3456 14.0802 12.7501 14.7827L12.8349 14.8252C13.2254 15.0204 13.6025 15.2078 13.9687 15.3789ZM20.7979 22.208L21.293 22.7031C21.6835 23.0936 22.3165 23.0936 22.707 22.7031C23.0975 22.3126 23.0975 21.6796 22.707 21.289L2.70702 1.28905C2.31649 0.898524 1.68348 0.898524 1.29295 1.28905C0.90243 1.67957 0.90243 2.31259 1.29295 2.70311L8.06487 9.47502L4.47167 15.3799L4.42578 15.4553C3.6427 16.7418 2.99615 17.804 2.62792 18.6738C2.25038 19.5657 2.0432 20.5327 2.55272 21.4551C3.06482 22.3817 3.99592 22.7143 4.95018 22.8574C5.87602 22.9962 7.10877 22.9961 8.59744 22.9961L8.6953 22.9961H15.3047L15.4025 22.9961C16.8912 22.9961 18.1239 22.9962 19.0498 22.8574C19.6808 22.7628 20.3016 22.5853 20.7979 22.208Z" fill="currentColor" />
</svg>