<svg xmlns="http://www.w3.org/2000/svg" width="24" height="24" viewBox="0 0 24 24" fill="none">
    <path fill-rule="evenodd" clip-rule="evenodd" d="M16.7868 11.1789C16.7866 11.1815 16.7861 11.1858 16.7857 11.1913L16.7868 11.1789ZM17.8593 9.34473C17.8569 9.34889 17.8549 9.35331 17.8525 9.35742L17.8593 9.34473Z" fill="currentColor" />
    <path fill-rule="evenodd" clip-rule="evenodd" d="M16.7851 13.6004V11.2061C16.7853 11.1936 16.7864 11.1835 16.7868 11.1789C16.7876 11.1747 16.7895 11.1635 16.7929 11.1504C16.7947 11.1435 16.7974 11.1338 16.7995 11.1265C16.8243 11.0821 16.8581 11.0219 16.9027 10.9473L16.9267 10.9072L17.8525 9.35742C17.8538 9.35518 17.8581 9.34707 17.8593 9.34473C18.3174 8.54303 18.605 7.65843 18.7071 6.7461H9.93076L16.7851 13.6004ZM5.68756 2.5029L8.43076 5.2461H18.7474C18.743 4.65041 18.7272 4.13466 18.6689 3.70117C18.5844 3.07357 18.3986 2.50711 17.9433 2.05176C17.4879 1.59642 16.9215 1.41059 16.2939 1.32617C15.6979 1.24605 14.9465 1.24607 14.0456 1.24609H13.999H9.9957C9.25965 1.24609 8.62867 1.24609 8.10735 1.28516C7.5959 1.32351 7.11167 1.40597 6.68927 1.60601L6.67083 1.61524C6.37869 1.75128 5.98324 2.04426 5.68756 2.5029Z" fill="currentColor" />
    <path d="M11 14.996V12.4101L13 14.4101V14.996C13 15.5483 12.5523 15.996 12 15.996C11.4478 15.996 11 15.5483 11 14.996ZM22.7071 21.289L12.7175 11.2994L12.6967 11.2786L2.70708 1.28899C2.31655 0.898463 1.68354 0.898463 1.29302 1.28899C0.902491 1.67951 0.902491 2.31253 1.29302 2.70305L5.28653 6.69657C5.38366 7.62638 5.67454 8.53068 6.1409 9.34683L6.14653 9.35735L7.07329 10.9072L7.08297 10.9233C7.15105 11.0372 7.18982 11.1021 7.21684 11.1532C7.22934 11.1769 7.23524 11.1908 7.23833 11.1982C7.23939 11.2007 7.24142 11.2093 7.24223 11.2128C7.24335 11.2206 7.24472 11.236 7.24614 11.2626C7.24935 11.3231 7.25005 11.4033 7.25005 11.5478V17.996L7.25005 18.0488C7.25002 18.7125 7.25 19.2563 7.28618 19.6991C7.32403 20.1624 7.40545 20.5809 7.60454 20.9716C7.9161 21.583 8.41309 22.08 9.02446 22.3915C9.4152 22.5906 9.83367 22.672 10.2969 22.7099C10.7397 22.7461 11.2836 22.746 11.9472 22.746H12H12.053C12.7166 22.746 13.2604 22.7461 13.7032 22.7099C14.1664 22.672 14.5849 22.5906 14.9756 22.3915C15.587 22.08 16.084 21.583 16.3956 20.9716C16.5946 20.5809 16.6761 20.1624 16.7139 19.6991C16.7481 19.2813 16.75 18.7736 16.75 18.1601L21.293 22.703C21.6835 23.0936 22.3166 23.0936 22.7071 22.703C23.0976 22.3125 23.0976 21.6795 22.7071 21.289Z" fill="currentColor" />
</svg>