<svg xmlns="http://www.w3.org/2000/svg" width="24" height="24" viewBox="0 0 24 24" fill="none">
    <path d="M14.856 16.0587C14.8385 16.1545 14.9099 16.2461 15.0073 16.2461H20.835C20.9069 16.2461 20.9686 16.1951 20.9827 16.1246C21.0439 15.8196 21.1136 15.5155 21.191 15.2129C21.4772 14.0932 21.7506 12.5787 21.7506 10.9961C21.7506 9.38098 21.3493 7.95211 20.5338 6.90918C19.7025 5.84617 18.4865 5.24617 17.0201 5.24609C16.1994 5.24609 15.5099 5.44424 14.9508 5.80176C14.3941 6.15779 14.0081 6.64475 13.7496 7.15918C13.2543 8.14466 13.199 9.27857 13.2857 10.04C13.2972 11.2518 13.7819 12.2958 14.1839 13.1616C14.2405 13.2834 14.2955 13.4018 14.3472 13.5166C14.755 14.421 15.0165 15.1818 14.856 16.0587Z" fill="currentColor" />
    <path fill-rule="evenodd" clip-rule="evenodd" d="M14.4848 17.7461C14.4142 17.7461 14.353 17.7954 14.339 17.8646C14.1674 18.7151 14.1256 19.5683 14.2666 20.3213C14.3849 20.9529 14.6429 21.5664 15.1162 22.0264C15.6033 22.4995 16.2533 22.7461 17.0195 22.7461C18.4547 22.746 19.3942 22.0435 19.9492 21.0732C20.4061 20.2744 20.5976 19.3093 20.6826 18.4492L20.7279 17.9086C20.7352 17.8211 20.6662 17.7461 20.5784 17.7461H14.4848Z" fill="currentColor" />
    <path d="M3.01785 12.1246C3.032 12.1951 3.0937 12.2461 3.16557 12.2461H8.99231C9.08974 12.2461 9.16114 12.1546 9.14361 12.0587C8.98329 11.1819 9.24555 10.421 9.65332 9.5166C9.70508 9.4018 9.76004 9.28344 9.81663 9.16155C10.2186 8.29578 10.7033 7.25183 10.7148 6.04004C10.8015 5.27857 10.7463 4.14466 10.251 3.15918C9.99243 2.64476 9.6065 2.15779 9.0498 1.80176C8.49066 1.44424 7.80115 1.24609 6.98047 1.24609C5.51405 1.24617 4.29804 1.84617 3.4668 2.90918C2.65129 3.95211 2.25 5.38098 2.25 6.99609C2.25 8.57869 2.52334 10.0932 2.80957 11.2129C2.88693 11.5155 2.95662 11.8196 3.01785 12.1246Z" fill="currentColor" />
    <path fill-rule="evenodd" clip-rule="evenodd" d="M3.42156 13.7461C3.33378 13.7461 3.26476 13.8211 3.27209 13.9086L3.31738 14.4492C3.40239 15.3093 3.59394 16.2744 4.05078 17.0732C4.6058 18.0435 5.54527 18.746 6.98047 18.7461C7.74673 18.7461 8.39668 18.4995 8.88379 18.0264C9.35715 17.5664 9.61507 16.9529 9.7334 16.3213C9.87439 15.5683 9.83222 14.715 9.66039 13.8646C9.6464 13.7954 9.5852 13.7461 9.51457 13.7461H3.42156Z" fill="currentColor" />
</svg>