<svg xmlns="http://www.w3.org/2000/svg" width="24" height="24" viewBox="0 0 24 24" fill="none">
    <path fill-rule="evenodd" clip-rule="evenodd" d="M18.0069 17.7461V3.24609C18.0069 2.69381 17.559 2.24609 17.0065 2.24609C16.454 2.24609 16.0061 2.69381 16.0061 3.24609V9.95267L14.9842 7.32617L14.9394 7.21103C14.6906 6.57039 14.5034 6.08831 14.2192 5.68652C13.666 4.90451 12.8501 4.34711 11.9204 4.11523C11.4402 3.99548 10.9202 3.99573 10.2271 3.99606L10.115 3.99609L10.0008 3.99594C9.5498 3.99502 9.10505 3.99411 8.71596 4.12305C7.96629 4.3716 7.37802 4.95963 7.12937 5.70898C7.02443 6.0254 7.0053 6.37882 7.00236 6.74219V7.69629V7.73379C7.00236 8.70449 7.00235 9.53748 7.04222 10.2461H6.44647L6.40137 10.2461C5.52691 10.2461 4.81154 10.2461 4.23658 10.3066C3.63847 10.3697 3.10615 10.5051 2.63631 10.834C2.32575 11.0514 2.05562 11.3214 1.83813 11.6318C1.50915 12.1015 1.37364 12.6336 1.31057 13.2314C1.24997 13.8062 1.24998 14.5212 1.25 15.3953V15.4404V16.9961C1.25 18.2844 2.13627 19.3658 3.33261 19.6643C3.63126 20.8602 4.71311 21.7461 6.00195 21.7461C7.26125 21.7461 8.32293 20.9003 8.64952 19.7461H11.3577C11.6843 20.9003 12.7459 21.7461 14.0052 21.7461C15.2645 21.7461 16.3262 20.9003 16.6528 19.7461H21.7496C22.3021 19.7461 22.75 19.2984 22.75 18.7461C22.75 18.1938 22.3021 17.7461 21.7496 17.7461H18.0069ZM9.08134 10.6562C9.00495 9.95145 9.00319 9.03086 9.00319 7.69629V7.10742C9.00319 6.81183 9.00338 6.63086 9.011 6.49414C9.01736 6.38005 9.02726 6.34329 9.02859 6.33887C9.07831 6.18894 9.19611 6.07119 9.3461 6.02148C9.35052 6.02016 9.3873 6.01026 9.50144 6.00391C9.63821 5.99629 9.81925 5.99609 10.115 5.99609C10.9721 5.99609 11.2261 6.00341 11.4358 6.05566C11.9007 6.17162 12.3091 6.45072 12.5857 6.8418C12.7104 7.01825 12.8095 7.25231 13.1201 8.05078L15.0438 12.9961H14.3052C12.97 12.9961 12.0491 12.9943 11.344 12.918C10.6576 12.8436 10.2951 12.7083 10.0339 12.5186C9.82172 12.3644 9.6351 12.1779 9.48092 11.9658C9.29112 11.7047 9.15571 11.3424 9.08134 10.6562ZM14.0052 20.2461C14.6959 20.2461 15.2558 19.6864 15.2558 18.9961C15.2558 18.3057 14.6959 17.7461 14.0052 17.7461C13.3146 17.7461 12.7547 18.3057 12.7547 18.9961C12.7547 19.6864 13.3146 20.2461 14.0052 20.2461ZM7.25247 18.9961C7.25247 19.6864 6.69259 20.2461 6.00195 20.2461C5.31131 20.2461 4.75144 19.6864 4.75144 18.9961C4.75144 18.3057 5.31131 17.7461 6.00195 17.7461C6.69259 17.7461 7.25247 18.3057 7.25247 18.9961Z" fill="currentColor" />
</svg>