<svg xmlns="http://www.w3.org/2000/svg" width="24" height="24" viewBox="0 0 24 24" fill="none">
    <path d="M17.998 1.24609L5.99805 1.24609C5.44576 1.24609 4.99805 1.69381 4.99805 2.24609C4.99805 2.79838 5.44576 3.24609 5.99805 3.24609L17.998 3.24609C18.5503 3.24609 18.998 2.79838 18.998 2.24609C18.998 1.69381 18.5503 1.24609 17.998 1.24609Z" fill="currentColor" />
    <path d="M19.998 5.24609L3.99805 5.24609C3.44576 5.24609 2.99805 5.69381 2.99805 6.24609C2.99805 6.79838 3.44576 7.24609 3.99805 7.24609L19.998 7.24609C20.5503 7.24609 20.998 6.79838 20.998 6.24609C20.998 5.69381 20.5503 5.24609 19.998 5.24609Z" fill="currentColor" />
    <path d="M16.0368 22.7461C17.1763 22.7461 18.1068 22.7461 18.8408 22.6475C19.6048 22.5448 20.2672 22.3226 20.7959 21.7939C21.3246 21.2653 21.5467 20.6028 21.6494 19.8389C21.7481 19.1048 21.7481 18.1743 21.748 17.0348V14.9574C21.7481 13.8179 21.7481 12.8874 21.6494 12.1533C21.5467 11.3894 21.3246 10.7269 20.7959 10.1982C20.2672 9.66955 19.6048 9.44744 18.8408 9.34473C18.1068 9.24607 17.1763 9.24608 16.0368 9.24609L7.95928 9.24609C6.81981 9.24608 5.88929 9.24607 5.15527 9.34473C4.39132 9.44744 3.72889 9.66955 3.2002 10.1982C2.6715 10.7269 2.44939 11.3894 2.34668 12.1533C2.24802 12.8874 2.24803 13.8179 2.24805 14.9573L2.24805 17.0348C2.24803 18.1743 2.24802 19.1048 2.34668 19.8389C2.44939 20.6028 2.6715 21.2653 3.2002 21.7939C3.72889 22.3226 4.39132 22.5448 5.15527 22.6475C5.88931 22.7461 6.81982 22.7461 7.95931 22.7461L16.0368 22.7461Z" fill="currentColor" />
</svg>