<svg xmlns="http://www.w3.org/2000/svg" width="24" height="24" viewBox="0 0 24 24" fill="none">
    <path d="M22.748 12.9961V13.0348C22.7481 14.1743 22.7481 15.1048 22.6494 15.8389C22.5467 16.6028 22.3246 17.2653 21.7959 17.7939C21.2672 18.3226 20.6048 18.5448 19.8408 18.6475C19.1068 18.7461 18.1763 18.7461 17.0368 18.7461H16.998H6.99805H6.95931C5.81983 18.7461 4.8893 18.7461 4.15527 18.6475C3.39132 18.5448 2.72889 18.3226 2.2002 17.7939C1.6715 17.2653 1.44939 16.6028 1.34668 15.8389C1.24802 15.1048 1.24803 14.1743 1.24805 13.0348V12.9961V10.9961V10.9574C1.24803 9.81786 1.24802 8.88735 1.34668 8.15332C1.44939 7.38937 1.6715 6.72694 2.2002 6.19824C2.72889 5.66955 3.39132 5.44744 4.15527 5.34473C4.8893 5.24607 5.81981 5.24608 6.9593 5.24609H6.99805H16.998H17.0368C18.1763 5.24608 19.1068 5.24607 19.8408 5.34473C20.6048 5.44744 21.2672 5.66955 21.7959 6.19824C22.3246 6.72694 22.5467 7.38937 22.6494 8.15332C22.7481 8.88735 22.7481 9.81786 22.748 10.9574V10.9961V12.9961ZM15.248 14.4902C15.9384 14.4902 16.498 13.9306 16.498 13.2402C16.498 12.5499 15.9384 11.9902 15.248 11.9902C14.5577 11.9902 13.998 12.5499 13.998 13.2402C13.998 13.9306 14.5577 14.4902 15.248 14.4902ZM6.99316 12.9912V13.9961C6.99316 14.5484 7.44088 14.9961 7.99316 14.9961C8.5454 14.996 8.99316 14.5483 8.99316 13.9961V12.9912H9.99805C10.5503 12.9912 10.998 12.5434 10.998 11.9912C10.998 11.4389 10.5503 10.9912 9.99805 10.9912H8.99316V9.99609C8.99316 9.44385 8.5454 8.99616 7.99316 8.99609C7.44088 8.99609 6.99316 9.44381 6.99316 9.99609V10.9912H5.99805C5.44576 10.9912 4.99805 11.4389 4.99805 11.9912C4.99811 12.5434 5.4458 12.9912 5.99805 12.9912H6.99316ZM17.748 11.9902C18.4384 11.9902 18.998 11.4306 18.998 10.7402C18.998 10.0499 18.4384 9.49023 17.748 9.49023C17.0577 9.49023 16.498 10.0499 16.498 10.7402C16.498 11.4306 17.0577 11.9902 17.748 11.9902Z" fill="currentColor" />
</svg>