<svg xmlns="http://www.w3.org/2000/svg" width="24" height="24" viewBox="0 0 24 24" fill="none">
    <path d="M16.748 20.7461V18.7461H14.748C14.1958 18.7461 13.748 18.2984 13.748 17.7461C13.748 17.1938 14.1958 16.7461 14.748 16.7461H16.748V14.7461C16.748 14.1938 17.1958 13.7461 17.748 13.7461C18.3003 13.7461 18.748 14.1938 18.748 14.7461V16.7461H20.748C21.3003 16.7461 21.748 17.1938 21.748 17.7461C21.748 18.2984 21.3003 18.7461 20.748 18.7461H18.748V20.7461C18.748 21.2984 18.3003 21.7461 17.748 21.7461C17.1958 21.7461 16.748 21.2984 16.748 20.7461Z" fill="currentColor" />
    <path d="M14.248 5.99609C14.248 5.66187 14.2927 5.33229 14.3787 5.01527C14.5485 4.38892 14.8797 3.81166 15.3467 3.34473C16.0499 2.64147 17.0035 2.24609 17.998 2.24609C18.9926 2.24609 19.9462 2.64147 20.6494 3.34473C21.3527 4.04799 21.748 5.00153 21.748 5.99609C21.748 6.99065 21.3527 7.9442 20.6494 8.64746C19.9462 9.35072 18.9926 9.74609 17.998 9.74609C17.0035 9.74609 16.0499 9.35072 15.3467 8.64746C14.8903 8.19105 14.5635 7.62922 14.3904 7.01918C14.2968 6.68924 14.248 6.34519 14.248 5.99609Z" fill="currentColor" />
    <path fill-rule="evenodd" clip-rule="evenodd" d="M4.99805 14.382V3.24609C4.99805 2.69381 5.44576 2.24609 5.99805 2.24609C6.55033 2.24609 6.99805 2.69381 6.99805 3.24609V8.99555C7.28026 8.61928 7.59028 8.26128 7.92676 7.9248C9.6556 6.19596 11.9525 5.1657 14.3787 5.01527C14.2927 5.33229 14.248 5.66187 14.248 5.99609C14.248 6.34519 14.2968 6.68924 14.3904 7.01918C12.4909 7.16373 10.6972 7.98246 9.34082 9.33887C7.98441 10.6953 7.16569 12.4889 7.02113 14.3884L6.99805 14.382C6.67516 14.2926 6.33901 14.2461 5.99805 14.2461C5.66383 14.2461 5.33424 14.2907 5.01723 14.3767L4.99805 14.382Z" fill="currentColor" />
    <path d="M4.99805 14.382C4.3791 14.5534 3.80884 14.8826 3.34668 15.3447C2.64342 16.048 2.24805 17.0015 2.24805 17.9961C2.24805 18.9907 2.64342 19.9442 3.34668 20.6475C4.04994 21.3507 5.00349 21.7461 5.99805 21.7461C6.99261 21.7461 7.94615 21.3507 8.64941 20.6475C9.35268 19.9442 9.74805 18.9907 9.74805 17.9961C9.74805 17.0015 9.35268 16.048 8.64941 15.3447C8.193 14.8883 7.63117 14.5616 7.02113 14.3884L6.99805 14.382C6.67516 14.2926 6.33901 14.2461 5.99805 14.2461C5.66383 14.2461 5.33424 14.2907 5.01723 14.3767L4.99805 14.382Z" fill="currentColor" />
</svg>