<svg xmlns="http://www.w3.org/2000/svg" width="24" height="24" viewBox="0 0 24 24" fill="none">
    <path d="M3.99805 20.9961V12.9961C3.99805 12.4438 4.44576 11.9961 4.99805 11.9961C5.55033 11.9961 5.99805 12.4438 5.99805 12.9961V20.9961C5.99805 21.5484 5.55033 21.9961 4.99805 21.9961C4.44576 21.9961 3.99805 21.5484 3.99805 20.9961Z" fill="currentColor" />
    <path d="M8.74805 5.99609C8.74805 8.06716 7.06911 9.74609 4.99805 9.74609C2.92698 9.74609 1.24805 8.06716 1.24805 5.99609C1.24805 3.92503 2.92698 2.24609 4.99805 2.24609C7.06911 2.24609 8.74805 3.92503 8.74805 5.99609Z" fill="currentColor" />
    <path d="M17.748 10.9956C17.748 10.0426 17.7473 9.39467 17.7021 8.89596C17.6692 8.53223 17.6157 8.30364 17.5498 8.1401L17.4805 7.99557C17.3049 7.69153 17.0521 7.43868 16.748 7.26315C16.5775 7.16475 16.3325 7.08541 15.8477 7.04147C15.3683 6.99802 14.751 6.9957 13.8574 6.99557C13.8728 7.00905 13.8878 7.02311 13.9033 7.03658C14.2608 7.34701 14.6217 7.63711 14.8945 7.85006C15.0303 7.95599 15.1433 8.04182 15.2217 8.10104L15.335 8.186C15.335 8.186 15.3372 8.18768 15.335 8.186C15.7797 8.51351 15.8802 9.14365 15.5527 9.58834C15.2253 10.0328 14.5999 10.1284 14.1553 9.80123C14.1535 9.79992 14.1476 9.79469 14.1445 9.79244C14.1381 9.78769 14.1289 9.7807 14.1172 9.77194C14.0936 9.75436 14.0594 9.72909 14.0166 9.69674C13.931 9.63208 13.8094 9.53965 13.6641 9.42623C13.3745 9.20027 12.9851 8.88797 12.5928 8.54733C12.2054 8.21101 11.792 7.82726 11.4678 7.46041C11.3067 7.27807 11.146 7.07573 11.0205 6.86764C10.9116 6.68698 10.7481 6.37282 10.748 5.99557C10.748 5.61831 10.9116 5.30416 11.0205 5.1235C11.146 4.9154 11.3067 4.71307 11.4678 4.53073C11.792 4.16388 12.2054 3.78012 12.5928 3.44381C12.9851 3.10317 13.3745 2.79087 13.6641 2.5649C13.8094 2.4515 13.931 2.35906 14.0166 2.2944C14.0594 2.26205 14.0936 2.23677 14.1172 2.2192C14.129 2.21043 14.1381 2.20345 14.1445 2.19869C14.1428 2.20001 14.1476 2.19645 14.1445 2.19869L14.1543 2.19088C14.599 1.8637 15.2263 1.95822 15.5537 2.4028C15.8809 2.84747 15.7854 3.47381 15.3408 3.80123C15.3408 3.80123 15.3431 3.79955 15.3408 3.80123L15.2217 3.8901C15.1433 3.94932 15.0303 4.03515 14.8945 4.14108C14.6217 4.35403 14.2609 4.64413 13.9033 4.95455C13.8874 4.96835 13.8713 4.98177 13.8555 4.99557C14.7234 4.99558 15.4424 4.99715 16.0283 5.05026C16.652 5.10679 17.2224 5.22824 17.748 5.5317C18.356 5.88275 18.8609 6.38757 19.2119 6.99557C19.5154 7.52117 19.6368 8.09166 19.6934 8.7153C19.7486 9.32523 19.748 10.0794 19.748 10.9956C19.748 11.5479 19.3003 11.9956 18.748 11.9956C18.1958 11.9956 17.748 11.5479 17.748 10.9956Z" fill="currentColor" />
    <path d="M17.748 20.9961V18.9961H15.748C15.1958 18.9961 14.748 18.5484 14.748 17.9961C14.748 17.4438 15.1958 16.9961 15.748 16.9961H17.748V14.9961C17.748 14.4438 18.1958 13.9961 18.748 13.9961C19.3003 13.9961 19.748 14.4438 19.748 14.9961V16.9961H21.748C22.3003 16.9961 22.748 17.4438 22.748 17.9961C22.748 18.5484 22.3003 18.9961 21.748 18.9961H19.748V20.9961C19.748 21.5484 19.3003 21.9961 18.748 21.9961C18.1958 21.9961 17.748 21.5484 17.748 20.9961Z" fill="currentColor" />
</svg>