<svg xmlns="http://www.w3.org/2000/svg" width="24" height="24" viewBox="0 0 24 24" fill="none">
    <path d="M3.99805 20.9961V12.9961C3.99805 12.4438 4.44576 11.9961 4.99805 11.9961C5.55033 11.9961 5.99805 12.4438 5.99805 12.9961V20.9961C5.99805 21.5484 5.55033 21.9961 4.99805 21.9961C4.44576 21.9961 3.99805 21.5484 3.99805 20.9961Z" fill="currentColor" />
    <path d="M17.998 10.9956C17.998 10.0426 17.9973 9.39467 17.9521 8.89596C17.9192 8.53223 17.8657 8.30364 17.7998 8.1401L17.7305 7.99557C17.5549 7.69153 17.3021 7.43868 16.998 7.26315C16.8275 7.16475 16.5825 7.08541 16.0977 7.04147C15.6183 6.99802 15.001 6.9957 14.1074 6.99557C14.1228 7.00905 14.1378 7.02311 14.1533 7.03658C14.5108 7.34701 14.8717 7.63711 15.1445 7.85006C15.2803 7.95599 15.3933 8.04182 15.4717 8.10104L15.585 8.186C15.585 8.186 15.5872 8.18768 15.585 8.186C16.0297 8.51351 16.1302 9.14365 15.8027 9.58834C15.4753 10.0328 14.8499 10.1284 14.4053 9.80123C14.4035 9.79992 14.3976 9.79469 14.3945 9.79244C14.3881 9.78769 14.3789 9.7807 14.3672 9.77194C14.3436 9.75436 14.3094 9.72909 14.2666 9.69674C14.181 9.63208 14.0594 9.53965 13.9141 9.42623C13.6245 9.20027 13.2351 8.88797 12.8428 8.54733C12.4554 8.21101 12.042 7.82726 11.7178 7.46041C11.5567 7.27807 11.396 7.07573 11.2705 6.86764C11.1616 6.68698 10.9981 6.37282 10.998 5.99557C10.998 5.61831 11.1616 5.30416 11.2705 5.1235C11.396 4.9154 11.5567 4.71307 11.7178 4.53073C12.042 4.16388 12.4554 3.78012 12.8428 3.44381C13.2351 3.10317 13.6245 2.79087 13.9141 2.5649C14.0594 2.4515 14.181 2.35906 14.2666 2.2944C14.3094 2.26205 14.3436 2.23677 14.3672 2.2192C14.379 2.21043 14.3881 2.20345 14.3945 2.19869C14.3928 2.20001 14.3976 2.19645 14.3945 2.19869L14.4043 2.19088C14.849 1.8637 15.4763 1.95822 15.8037 2.4028C16.1309 2.84747 16.0354 3.47381 15.5908 3.80123C15.5908 3.80123 15.5931 3.79955 15.5908 3.80123L15.4717 3.8901C15.3933 3.94932 15.2803 4.03515 15.1445 4.14108C14.8717 4.35403 14.5109 4.64413 14.1533 4.95455C14.1374 4.96835 14.1213 4.98177 14.1055 4.99557C14.9734 4.99558 15.6924 4.99715 16.2783 5.05026C16.902 5.10679 17.4724 5.22824 17.998 5.5317C18.606 5.88275 19.1109 6.38757 19.4619 6.99557C19.7654 7.52117 19.8868 8.09166 19.9434 8.7153C19.9986 9.32523 19.998 10.0794 19.998 10.9956C19.998 11.5479 19.5503 11.9956 18.998 11.9956C18.4458 11.9956 17.998 11.5479 17.998 10.9956Z" fill="currentColor" />
    <path d="M22.748 17.9961C22.748 20.0672 21.0691 21.7461 18.998 21.7461C16.927 21.7461 15.248 20.0672 15.248 17.9961C15.248 15.925 16.927 14.2461 18.998 14.2461C21.0691 14.2461 22.748 15.925 22.748 17.9961Z" fill="currentColor" />
    <path d="M8.74805 5.99609C8.74805 8.06716 7.06911 9.74609 4.99805 9.74609C2.92698 9.74609 1.24805 8.06716 1.24805 5.99609C1.24805 3.92503 2.92698 2.24609 4.99805 2.24609C7.06911 2.24609 8.74805 3.92503 8.74805 5.99609Z" fill="currentColor" />
</svg>