<svg xmlns="http://www.w3.org/2000/svg" width="24" height="24" viewBox="0 0 24 24" fill="none">
    <path d="M20.748 16.9961C21.3003 16.9961 21.748 17.4438 21.748 17.9961C21.748 18.5484 21.3003 18.9961 20.748 18.9961H14.748C14.1958 18.9961 13.748 18.5484 13.748 17.9961C13.748 17.4438 14.1958 16.9961 14.748 16.9961H20.748Z" fill="currentColor" />
    <path d="M14.3776 5.01534C11.9518 5.16601 9.65535 6.19621 7.92676 7.9248C7.59 8.26156 7.28046 8.62046 6.99805 8.99707V3.24889C6.99805 2.6966 6.55033 2.24889 5.99805 2.24889C5.44576 2.24889 4.99805 2.6966 4.99805 3.24889V14.3809C3.41245 14.8185 2.24805 16.2713 2.24805 17.9961C2.24805 20.0672 3.92698 21.7461 5.99805 21.7461C8.06911 21.7461 9.74805 20.0672 9.74805 17.9961C9.74805 16.2797 8.59497 14.8327 7.02121 14.3874C7.16599 12.4883 7.98466 10.695 9.34082 9.33887C10.697 7.98271 12.4902 7.16404 14.3893 7.01926C14.8347 8.59301 16.2817 9.74609 17.998 9.74609C20.0691 9.74609 21.748 8.06716 21.748 5.99609C21.748 3.92503 20.0691 2.24609 17.998 2.24609C16.2663 2.24609 14.8087 3.41993 14.3776 5.01534Z" fill="currentColor" />
</svg>