<svg xmlns="http://www.w3.org/2000/svg" width="24" height="24" viewBox="0 0 24 24" fill="none">
    <path d="M4.99805 13.1541V14.9396L4.99805 14.9828C4.99802 15.4783 4.99799 15.9228 5.03614 16.2961C5.07784 16.7036 5.1725 17.1061 5.4043 17.4943L5.41114 17.506C5.6436 17.8903 5.95309 18.1627 6.292 18.3966C6.60729 18.6143 7.00667 18.837 7.4589 19.0891L7.49024 19.1066L7.54817 19.1389C8.48325 19.6603 9.24722 20.0864 9.91114 20.3771C10.6086 20.6825 11.2625 20.8703 11.9844 20.8722H12.0117C12.7336 20.8703 13.3875 20.6825 14.085 20.3771C14.7489 20.0864 15.5129 19.6603 16.4479 19.1389L16.5059 19.1066L16.5369 19.0893L16.6132 19.0468C17.0309 18.8137 17.4085 18.6007 17.7041 18.3966C18.043 18.1627 18.3545 17.8874 18.5869 17.5031L18.5938 17.4924C18.8256 17.1042 18.9183 16.7036 18.96 16.2961C18.9981 15.9229 18.9981 15.4784 18.9981 14.9829V14.9396V13.1367L16.9981 14.1015L16.2324 14.4709C16.1369 14.5169 16.0421 14.5629 15.948 14.6085C14.575 15.2738 13.3401 15.8722 11.9795 15.8722C10.6196 15.8722 9.38557 15.2741 8.01334 14.6092L7.96466 14.5856L7.72754 14.4709L6.99805 14.119L4.99805 13.1541Z" fill="currentColor" />
    <path d="M20.748 10.8999C20.5216 11.0128 20.2787 11.1299 20.0229 11.2533L19.9629 11.2822L15.6895 13.3438L15.53 13.4207C14.0237 14.1479 13.0435 14.6211 11.9795 14.6211C10.9163 14.6211 9.93713 14.1483 8.43265 13.422L8.27051 13.3438L4.0791 11.3213L4.00483 11.2855C3.25806 10.9254 2.62261 10.6189 2.17969 10.3193C1.72924 10.0146 1.24805 9.56593 1.24805 8.86232C1.24807 8.15873 1.72924 7.71003 2.17969 7.40528C2.62264 7.10569 3.25817 6.79921 4.00498 6.43908L4.0791 6.40333L8.19336 4.41798L8.35785 4.33859C9.88322 3.6022 10.8741 3.12384 11.9316 3.12111C12.4992 3.11967 13.0338 3.25401 13.626 3.47853C14.2032 3.6974 14.8837 4.0213 15.7351 4.42659L15.7539 4.43556C16.511 4.79597 17.2199 5.12865 17.9309 5.46233C18.5939 5.77344 19.2593 6.08573 19.9668 6.42189L20.0226 6.44838C20.7586 6.79802 21.389 7.0975 21.8281 7.39357C22.2493 7.67752 22.6875 8.08607 22.7422 8.71193L22.7475 8.82762L22.748 8.83986V8.87111V14.8711C22.748 15.4234 22.3003 15.8711 21.748 15.8711C21.1958 15.8711 20.748 15.4234 20.748 14.8711V10.8999Z" fill="currentColor" />
</svg>