<svg xmlns="http://www.w3.org/2000/svg" width="24" height="24" viewBox="0 0 24 24" fill="none">
    <path fill-rule="evenodd" clip-rule="evenodd" d="M11.1228 12.6208V21.6206C9.37457 21.6185 7.96441 21.6008 6.83469 21.449C5.52634 21.273 4.48235 20.9042 3.66086 20.0827C2.83938 19.2613 2.47061 18.2173 2.29465 16.9089C2.14277 15.7792 2.1251 14.369 2.12305 12.6208L11.1228 12.6208ZM12.6228 11.1208L21.6225 11.1208C21.6205 9.37261 21.6028 7.96246 21.4509 6.83274C21.2749 5.52438 20.9062 4.4804 20.0847 3.65891C19.2632 2.83743 18.2192 2.46866 16.9109 2.2927C15.7811 2.14081 14.371 2.12314 12.6228 2.12109V11.1208ZM11.1228 11.1208V2.12109C9.37457 2.12314 7.96441 2.14081 6.83469 2.2927C5.52634 2.46866 4.48235 2.83743 3.66086 3.65891C2.83938 4.4804 2.47061 5.52438 2.29465 6.83274C2.14277 7.96246 2.1251 9.37261 2.12305 11.1208L11.1228 11.1208Z" fill="currentColor" />
    <path d="M16.8682 20.8711V18.8662H14.873C14.3208 18.8662 13.8731 18.4184 13.873 17.8662C13.873 17.3139 14.3208 16.8662 14.873 16.8662H16.8682V14.8711C16.8682 14.3188 17.3159 13.8711 17.8682 13.8711C18.4204 13.8712 18.8682 14.3188 18.8682 14.8711V16.8662H20.873C21.4253 16.8662 21.873 17.3139 21.873 17.8662C21.873 18.4184 21.4253 18.8662 20.873 18.8662H18.8682V20.8711C18.8682 21.4233 18.4204 21.871 17.8682 21.8711C17.3159 21.8711 16.8682 21.4234 16.8682 20.8711Z" fill="currentColor" />
</svg>