<svg xmlns="http://www.w3.org/2000/svg" width="24" height="24" viewBox="0 0 24 24" fill="none">
    <path fill-rule="evenodd" clip-rule="evenodd" d="M21.7479 12.0377V11.9961V11.9545C21.7479 11.1545 21.7479 10.42 21.7382 9.7462C21.7369 9.662 21.7356 9.57875 21.734 9.49644L15.9979 9.49634L15.9979 14.4963L21.734 14.4964C21.7355 14.4139 21.7369 14.3305 21.7381 14.2462C21.7479 13.5723 21.7479 12.8377 21.7479 12.0377ZM21.6761 15.9964L15.9979 15.9963L15.9979 21.6743C16.3677 21.65 16.7133 21.6176 17.036 21.5742C18.3444 21.3983 19.3883 21.0295 20.2098 20.208C21.0313 19.3865 21.4001 18.3425 21.576 17.0342C21.6194 16.7116 21.6518 16.3661 21.6761 15.9964ZM14.4979 21.7322L14.4979 15.9963L9.49791 15.9964L9.49792 21.7322C10.239 21.7461 11.0562 21.7461 11.9563 21.7461H11.9979H12.0395C12.9396 21.7461 13.7568 21.7461 14.4979 21.7322ZM7.99792 21.6743L7.99791 15.9964H2.31974C2.34399 16.3661 2.37642 16.7116 2.41979 17.0342C2.59575 18.3425 2.96452 19.3865 3.786 20.208C4.60749 21.0295 5.65148 21.3983 6.95983 21.5742C7.28253 21.6176 7.62811 21.65 7.99792 21.6743ZM2.26184 14.4964C2.26029 14.4139 2.25891 14.3305 2.25769 14.2462C2.24791 13.5723 2.24791 12.8377 2.24792 12.0377V11.9961V11.9545C2.24791 11.1545 2.24791 10.42 2.25768 9.74621C2.2589 9.66201 2.26028 9.57876 2.26182 9.49645H7.99792L7.99791 14.4964H2.26184ZM2.3197 7.99647H7.99792V2.3179C7.62811 2.34215 7.28253 2.37458 6.95983 2.41797C5.65148 2.59393 4.60749 2.96269 3.786 3.78418C2.96452 4.60567 2.59575 5.64965 2.41979 6.95801C2.37639 7.28082 2.34395 7.62652 2.3197 7.99647ZM9.49792 2.26001V7.99647L14.4979 7.99634V2.26001C13.7568 2.24609 12.9396 2.24609 12.0395 2.24609H11.9979H11.9563C11.0562 2.24609 10.239 2.24609 9.49792 2.26001ZM15.9979 2.3179V7.99634L21.6761 7.99645C21.6519 7.62651 21.6194 7.28081 21.576 6.95801C21.4001 5.64965 21.0313 4.60567 20.2098 3.78418C19.3883 2.96269 18.3444 2.59393 17.036 2.41797C16.7133 2.37458 16.3677 2.34215 15.9979 2.3179ZM9.49791 14.4964L14.4979 14.4963L14.4979 9.49634L9.49792 9.49645L9.49791 14.4964Z" fill="currentColor" />
</svg>