<svg xmlns="http://www.w3.org/2000/svg" width="24" height="24" viewBox="0 0 24 24" fill="none">
    <path fill-rule="evenodd" clip-rule="evenodd" d="M10.7478 12.7458V21.7456C8.99957 21.7435 7.58941 21.7258 6.45969 21.574C5.15134 21.398 4.10735 21.0292 3.28586 20.2077C2.46438 19.3863 2.09561 18.3423 1.91965 17.0339C1.76777 15.9042 1.7501 14.494 1.74805 12.7458L10.7478 12.7458ZM12.2478 11.2458L21.2475 11.2458C21.2455 9.49761 21.2278 8.08746 21.0759 6.95774C20.8999 5.64938 20.5312 4.6054 19.7097 3.78391C18.8882 2.96243 17.8442 2.59366 16.5359 2.4177C15.4061 2.26581 13.996 2.24814 12.2478 2.24609V11.2458ZM10.7478 11.2458V2.24609C8.99957 2.24814 7.58941 2.26581 6.45969 2.4177C5.15134 2.59366 4.10735 2.96243 3.28586 3.78391C2.46438 4.6054 2.09561 5.64938 1.91965 6.95774C1.76777 8.08746 1.7501 9.49761 1.74805 11.2458L10.7478 11.2458Z" fill="currentColor" />
    <path d="M20.9482 15.7923C21.4749 15.6268 22.0364 15.92 22.2021 16.4466C22.3676 16.9732 22.0745 17.5347 21.5479 17.7005C20.7599 17.9488 19.7888 18.7686 18.9326 19.681C18.5262 20.114 18.1807 20.5297 17.9365 20.8372C17.8149 20.9903 17.7196 21.1157 17.6553 21.2015C17.6232 21.2443 17.5988 21.2776 17.583 21.2991C17.5751 21.3099 17.569 21.3177 17.5654 21.3226C17.5637 21.325 17.5622 21.3266 17.5615 21.3275V21.3284C17.5615 21.3284 17.5614 21.3281 17.5605 21.3275C17.3617 21.6054 17.0356 21.7638 16.6943 21.7454C16.3529 21.7269 16.0446 21.5346 15.877 21.2366C15.5732 20.6967 15.3134 20.5028 15.207 20.4398C15.1746 20.4206 15.1517 20.4102 15.1396 20.4056C14.6385 20.3515 14.2482 19.9288 14.248 19.4134C14.248 18.8611 14.6958 18.4134 15.248 18.4134V19.2112C15.2482 18.4666 15.2492 18.4167 15.25 18.4134H15.2783C15.2892 18.4137 15.301 18.4146 15.3135 18.4153C15.3388 18.4168 15.3678 18.4184 15.3994 18.4222C15.4627 18.4297 15.5379 18.4435 15.623 18.4651C15.7943 18.5087 16.0009 18.5854 16.2266 18.7191C16.3999 18.8218 16.5779 18.9546 16.7568 19.1224C16.9659 18.8741 17.2073 18.5966 17.4746 18.3118C18.3388 17.391 19.6187 16.2109 20.9482 15.7923ZM15.1992 20.4114C15.2061 20.4118 15.2137 20.4122 15.2217 20.4124C15.2257 20.4125 15.2301 20.4133 15.2344 20.4134H15.2461L15.2471 20.4124C15.2204 20.4124 15.1941 20.4106 15.168 20.4085C15.1768 20.4095 15.1871 20.4107 15.1992 20.4114Z" fill="currentColor" />
</svg>