<svg xmlns="http://www.w3.org/2000/svg" width="24" height="24" viewBox="0 0 24 24" fill="none">
    <path d="M6.49805 19.9961C6.49805 18.8915 7.39348 17.9961 8.49805 17.9961C9.60262 17.9961 10.498 18.8915 10.498 19.9961C10.498 21.1007 9.60262 21.9961 8.49805 21.9961C7.39348 21.9961 6.49805 21.1007 6.49805 19.9961Z" fill="currentColor" />
    <path d="M13.498 19.9961C13.498 18.8915 14.3935 17.9961 15.498 17.9961C16.6026 17.9961 17.498 18.8915 17.498 19.9961C17.498 21.1007 16.6026 21.9961 15.498 21.9961C14.3935 21.9961 13.498 21.1007 13.498 19.9961Z" fill="currentColor" />
    <path d="M6.49805 3.99609C6.49805 2.89152 7.39348 1.99609 8.49805 1.99609C9.60262 1.99609 10.498 2.89152 10.498 3.99609C10.498 5.10066 9.60262 5.99609 8.49805 5.99609C7.39348 5.99609 6.49805 5.10066 6.49805 3.99609Z" fill="currentColor" />
    <path d="M6.49805 11.9961C6.49805 10.8915 7.39348 9.99609 8.49805 9.99609C9.60262 9.99609 10.498 10.8915 10.498 11.9961C10.498 13.1007 9.60262 13.9961 8.49805 13.9961C7.39348 13.9961 6.49805 13.1007 6.49805 11.9961Z" fill="currentColor" />
    <path d="M13.498 3.99609C13.498 2.89152 14.3935 1.99609 15.498 1.99609C16.6026 1.99609 17.498 2.89152 17.498 3.99609C17.498 5.10066 16.6026 5.99609 15.498 5.99609C14.3935 5.99609 13.498 5.10066 13.498 3.99609Z" fill="currentColor" />
    <path d="M13.498 11.9961C13.498 10.8915 14.3935 9.99609 15.498 9.99609C16.6026 9.99609 17.498 10.8915 17.498 11.9961C17.498 13.1007 16.6026 13.9961 15.498 13.9961C14.3935 13.9961 13.498 13.1007 13.498 11.9961Z" fill="currentColor" />
</svg>