<svg xmlns="http://www.w3.org/2000/svg" width="24" height="24" viewBox="0 0 24 24" fill="none">
    <path fill-rule="evenodd" clip-rule="evenodd" d="M21.7791 1.69345C21.0445 1.09691 19.9922 1.09704 19.2576 1.69345C19.1779 1.75823 19.0985 1.83772 19.0137 1.92268L18.9881 1.94833L17.9881 2.94833L17.9624 2.97394C17.8775 3.05876 17.798 3.13811 17.7332 3.21786C17.2786 3.77785 17.1704 4.52238 17.4089 5.17009L14.619 7.95995C14.8508 8.17117 15.0914 8.40132 15.3416 8.65146C15.5918 8.9016 15.8219 9.14218 16.0331 9.37397L18.8218 6.58531C19.4707 6.82638 20.2176 6.71891 20.7791 6.26278C20.8627 6.19482 20.946 6.11153 21.0356 6.02194L21.0486 6.00888L22.0486 5.00888L22.0616 4.99589C22.1512 4.9063 22.2345 4.82303 22.3025 4.73935C22.8993 4.00466 22.8992 2.9526 22.3025 2.21786C22.2346 2.13419 22.1511 2.0508 22.0615 1.96123L22.0486 1.94833L22.023 1.92265C21.9382 1.8377 21.8588 1.75822 21.7791 1.69345Z" fill="currentColor" />
    <path fill-rule="evenodd" clip-rule="evenodd" d="M11.7553 6.09307C10.714 5.76729 9.95181 6.01804 9.36173 6.35869C8.6521 6.76847 8.05054 7.53009 7.62736 8.60185C7.38561 9.21377 6.90488 9.6484 6.33732 9.76982C5.2447 10.0036 3.75925 10.4749 2.68302 11.5511C1.66225 12.5719 1.0666 13.7954 1.29435 15.2757C1.51204 16.6902 2.46399 18.1896 4.13321 19.8587C5.80256 21.5279 7.30255 22.4799 8.7172 22.6976C10.1974 22.9252 11.421 22.3296 12.4418 21.3089C13.5181 20.2327 13.9893 18.7471 14.2231 17.6546C14.3445 17.0872 14.779 16.6062 15.391 16.3645C16.463 15.9414 17.2244 15.3399 17.6342 14.6302C17.9748 14.0402 18.2255 13.2787 17.8998 12.2376C17.6488 11.4352 17.0683 10.5104 16.0328 9.37417C15.8215 9.14239 15.5914 8.9018 15.3412 8.65166C15.0911 8.40152 14.8505 8.17137 14.6187 7.96015C13.4824 6.9247 12.5577 6.34411 11.7553 6.09307ZM11.7252 10.8536C11.0461 10.6674 10.2888 10.841 9.75529 11.3743C8.96442 12.1651 8.96442 13.4478 9.75529 14.2386C10.5461 15.0292 11.8288 15.0293 12.6195 14.2386C13.1533 13.7047 13.3268 12.9466 13.1398 12.2671C13.0499 11.9401 12.8764 11.6312 12.6195 11.3743C12.3622 11.117 12.0528 10.9434 11.7252 10.8536ZM6.13126 14.9983C6.52177 14.6078 7.15478 14.6078 7.54532 14.9983L8.99454 16.4476C9.38501 16.838 9.38581 17.4711 8.99552 17.8616C8.60501 18.2522 7.97102 18.2521 7.58048 17.8616L6.13126 16.4124C5.74077 16.0219 5.7409 15.3889 6.13126 14.9983Z" fill="currentColor" />
</svg>