<svg xmlns="http://www.w3.org/2000/svg" width="24" height="24" viewBox="0 0 24 24" fill="none">
    <path d="M10.7982 2.24609C12.7588 2.24619 14.6395 3.02555 16.0257 4.41309L17.6097 5.99902C18.2724 6.66258 18.415 7.64645 18.0433 8.45117L18.6868 9.09668C19.4914 8.72432 20.4757 8.8683 21.139 9.53223L21.6429 10.0371L21.7161 10.1103C22.0547 10.4484 22.3463 10.7395 22.513 11.0762C22.8265 11.7095 22.8265 12.4527 22.513 13.0859C22.3463 13.4226 22.0545 13.7139 21.7158 14.0521L21.6429 14.125L20.1302 15.6396L20.0564 15.7136C19.7191 16.0522 19.4283 16.344 19.0921 16.5107C18.459 16.8248 17.7155 16.8247 17.0823 16.5107C16.7462 16.344 16.4554 16.0522 16.118 15.7136L16.0443 15.6396L15.5394 15.1348C14.8762 14.4709 14.7325 13.4857 15.1048 12.6807L14.5569 12.1318L13.5755 13.1152C13.4349 13.256 13.2442 13.3359 13.0452 13.3359C12.8462 13.3359 12.6547 13.256 12.514 13.1152L9.99347 10.5918C9.70096 10.299 9.70094 9.82505 9.99347 9.53223C11.0933 8.43137 11.0932 6.64582 9.99347 5.54492L9.59601 5.14746C8.52746 4.07757 9.28334 2.24609 10.7982 2.24609Z" fill="currentColor" />
    <path d="M12.2528 14.4235C12.0221 14.324 11.8099 14.181 11.6289 13.9999L11.092 13.4626L9.63746 12.0069L9.10742 11.4764C8.92019 11.289 8.77789 11.0736 8.68054 10.8438L1.99512 17.4452C1.51773 17.9166 1.24805 18.5585 1.24805 19.2294C1.24815 20.6286 2.39422 21.7469 3.78809 21.7469C4.45875 21.7469 5.10399 21.4837 5.58105 21.0126L12.2528 14.4235Z" fill="currentColor" />
</svg>