<svg xmlns="http://www.w3.org/2000/svg" width="24" height="24" viewBox="0 0 24 24" fill="none">
    <path d="M22 4.87109C22 6.29346 21.1543 7.6807 20.2559 8.77441C19.3342 9.89636 18.2374 10.8506 17.5098 11.4268C16.7623 12.0185 15.7377 12.0185 14.9902 11.4268C14.2626 10.8506 13.1658 9.89636 12.2441 8.77441C11.3457 7.6807 10.5 6.29346 10.5 4.87109C10.5 3.02071 11.8104 1.37109 13.75 1.37109C14.586 1.37109 15.3733 1.6412 16.25 2.4043C17.1267 1.6412 17.914 1.37109 18.75 1.37109C20.6896 1.37109 22 3.02071 22 4.87109Z" fill="currentColor" />
    <path d="M20.8056 18.7157C20.8054 18.4909 20.6206 18.3087 20.3926 18.3086H14C13.966 18.3086 13.9325 18.3063 13.8994 18.303C13.1371 18.2803 12.3839 18.1286 11.6748 17.8491L10.2364 17.2819C9.73801 17.0854 9.49513 16.5276 9.69431 16.0363C9.89368 15.545 10.4595 15.3056 10.958 15.5019L12.3974 16.0691C12.9376 16.2821 13.514 16.3919 14.0959 16.3919H14.7225C14.8604 16.3919 14.9722 16.2817 14.9722 16.1458C14.9722 15.8066 14.7672 15.5 14.451 15.3662L9.85666 13.4252C9.2516 13.1696 8.59994 13.0378 7.94165 13.0378H6.22222C5.68528 13.0378 5.25 12.6087 5.25 12.0794C5.25 11.5502 5.68528 11.1211 6.22222 11.1211H7.94165C8.86327 11.1211 9.77575 11.306 10.6229 11.6639L15.2162 13.604C16.2476 14.0397 16.9167 15.0397 16.9167 16.1458C16.9167 16.2291 16.9108 16.3111 16.9015 16.3919H20.3926C21.6945 16.3921 22.7499 17.4324 22.75 18.7157C22.75 19.7533 22.0522 20.6655 21.0401 20.9506L15.9634 22.3806C15.3961 22.5403 14.8084 22.6211 14.2184 22.6211C13.6661 22.6211 13.1162 22.5498 12.5825 22.4096L5.97157 20.6717C5.4529 20.5352 5.1449 20.0103 5.28323 19.499C5.42168 18.9878 5.95414 18.6842 6.47287 18.8205L13.0828 20.5575C13.4531 20.6548 13.8351 20.7044 14.2184 20.7044C14.6279 20.7044 15.0361 20.6478 15.4299 20.5369L20.5055 19.1078C20.6829 19.0579 20.8056 18.8976 20.8056 18.7157Z" fill="currentColor" />
    <path d="M6.67294 19.9532C6.756 19.6431 6.75009 19.2878 6.75009 18.8712V12.8712C6.75009 12.4546 6.756 12.0993 6.67294 11.7892C6.46489 11.0127 5.85858 10.4064 5.08212 10.1983C4.772 10.1153 4.41672 10.1212 4.00009 10.1212C3.58347 10.1212 3.22819 10.1153 2.91806 10.1983C2.1416 10.4064 1.53529 11.0127 1.32724 11.7892C1.24418 12.0993 1.25009 12.4546 1.25009 12.8712V18.8712C1.25009 19.2878 1.24418 19.6431 1.32724 19.9532C1.53529 20.7297 2.1416 21.336 2.91806 21.544C3.22819 21.6271 3.58347 21.6212 4.00009 21.6212C4.41672 21.6212 4.772 21.6271 5.08212 21.544C5.85858 21.336 6.46489 20.7297 6.67294 19.9532Z" fill="currentColor" />
</svg>