<svg xmlns="http://www.w3.org/2000/svg" width="24" height="24" viewBox="0 0 24 24" fill="none">
    <path d="M21.7499 13.2822V13.3139C21.7499 14.7871 21.7499 15.9472 21.6601 16.874C21.5684 17.8191 21.3777 18.6008 20.9453 19.2891C20.5256 19.9569 19.9607 20.5218 19.2929 20.9414C18.6046 21.3738 17.8229 21.5646 16.8779 21.6562C15.951 21.7461 14.791 21.7461 13.3177 21.7461H13.2861H10.7138H10.6822C9.20889 21.7461 8.04883 21.7461 7.12201 21.6562C6.17693 21.5646 5.39526 21.3738 4.70697 20.9414C4.03915 20.5218 3.47425 19.9569 3.05463 19.2891C2.62219 18.6008 2.43144 17.8191 2.33978 16.874C2.24993 15.9472 2.24993 14.7871 2.24994 13.3139V13.2822V13.2613C2.24994 12.4504 2.24993 11.7878 2.3017 11.2539C2.35504 10.7039 2.46876 10.211 2.74799 9.7666C3.00769 9.35337 3.35721 9.00384 3.77045 8.74414C4.21484 8.46491 4.70772 8.3512 5.25775 8.29785C5.79163 8.24609 6.45427 8.24609 7.26514 8.24609H7.28607H16.7138H16.7347C17.5456 8.24609 18.2082 8.24609 18.7421 8.29785C19.2922 8.3512 19.785 8.46491 20.2294 8.74414C20.6427 9.00384 20.9922 9.35337 21.2519 9.7666C21.5311 10.211 21.6448 10.7039 21.6982 11.2539C21.7499 11.7878 21.7499 12.4504 21.7499 13.2612V13.2822Z" fill="currentColor" />
    <path d="M14.9999 9.24609V7.24609C14.9999 5.58924 13.6568 4.24609 11.9999 4.24609C10.3431 4.24609 8.99994 5.58924 8.99994 7.24609V9.24609C8.99994 9.79838 8.55222 10.2461 7.99994 10.2461C7.44765 10.2461 6.99994 9.79838 6.99994 9.24609V7.24609C6.99994 4.48467 9.23852 2.24609 11.9999 2.24609C14.7614 2.24609 16.9999 4.48467 16.9999 7.24609V9.24609C16.9999 9.79838 16.5522 10.2461 15.9999 10.2461C15.4477 10.2461 14.9999 9.79838 14.9999 9.24609Z" fill="currentColor" />
</svg>