<svg xmlns="http://www.w3.org/2000/svg" width="24" height="24" viewBox="0 0 24 24" fill="none">
    <path fill-rule="evenodd" clip-rule="evenodd" d="M18.9434 3.74609C18.1149 3.74609 17.4434 4.41767 17.4434 5.24609V8.74609C17.4434 9.57452 18.1149 10.2461 18.9434 10.2461C19.7718 10.2461 20.4434 9.57452 20.4434 8.74609L20.4434 5.24609C20.4434 4.41767 19.7718 3.74609 18.9434 3.74609Z" fill="currentColor" />
    <path fill-rule="evenodd" clip-rule="evenodd" d="M9.44336 5.24609V6.87706L10.7833 6.24251C11.346 5.97609 11.9886 6.07334 12.4434 6.44167L12.4434 4.24609C12.4434 3.41767 11.7718 2.74609 10.9434 2.74609C10.1149 2.74609 9.44336 3.41767 9.44336 4.24609V5.24609Z" fill="currentColor" />
    <path fill-rule="evenodd" clip-rule="evenodd" d="M8.45332 7.34589C8.44679 7.31364 8.44336 7.28027 8.44336 7.24609L8.44336 5.24609C8.44336 4.41767 7.77179 3.74609 6.94336 3.74609C6.11493 3.74609 5.44336 4.41767 5.44336 5.24609V8.74609L5.44358 8.77232C5.58361 8.70486 5.73701 8.63221 5.90649 8.55193L5.94741 8.53255L8.45332 7.34589Z" fill="currentColor" />
    <path d="M13.5669 10.8362C13.2359 10.6176 12.96 10.3223 12.7644 9.97573C12.5391 10.3641 12.2283 10.7095 11.8397 10.9815L9.41299 12.6788C9.91527 12.9663 10.4748 13.3521 10.9735 13.8224C11.7462 14.5509 12.4433 15.5492 12.4433 16.7491C12.4431 17.0251 12.2192 17.249 11.9433 17.2491C11.6672 17.2491 11.4434 17.0251 11.4433 16.7491C11.4433 15.949 10.9736 15.1963 10.288 14.5499C9.60919 13.9099 8.78605 13.4395 8.24599 13.2081C8.07933 13.1366 7.96482 12.9803 7.94619 12.7999C7.92764 12.6195 8.00759 12.443 8.15615 12.339L11.2665 10.1622C12.1492 9.54424 12.4456 8.37307 11.9638 7.40926C11.8252 7.13216 11.4908 7.01596 11.2108 7.14852L6.3749 9.43954C5.57892 9.81658 5.24396 9.97769 4.9833 10.169C4.05286 10.8522 3.51903 11.9509 3.55654 13.1046C3.5671 13.4277 3.64871 13.798 3.84756 14.6729C4.17674 16.1213 4.32884 16.7801 4.55947 17.3165C5.41734 19.3115 7.21498 20.7463 9.35049 21.1407C9.8888 21.2401 10.5055 21.2484 11.7816 21.2491L11.8981 21.2491L12.0458 21.2491C13.8352 21.2491 14.6506 21.2455 15.3163 21.1016C17.8095 20.5626 19.7578 18.6154 20.2968 16.1222C20.4407 15.4564 20.4433 14.6403 20.4433 12.8507V10.7489C20.0254 11.0628 19.506 11.2488 18.9431 11.2488C18.1253 11.2488 17.3992 10.8561 16.9431 10.249C16.487 10.8561 15.7609 11.2488 14.9431 11.2488C14.4757 11.2488 14.0382 11.1205 13.664 10.8972C13.6311 10.8776 13.5988 10.8573 13.5669 10.8362Z" fill="currentColor" />
    <path fill-rule="evenodd" clip-rule="evenodd" d="M13.4434 4.24609C13.4434 3.47228 14.0293 2.83532 14.7817 2.7547C14.8348 2.74901 14.8887 2.74609 14.9434 2.74609C15.7718 2.74609 16.4434 3.41767 16.4434 4.24609L16.4434 5.74609V8.74609C16.4434 9.57452 15.7718 10.2461 14.9434 10.2461C14.4595 10.2461 14.0292 10.017 13.755 9.66146C13.5596 9.40819 13.4434 9.09071 13.4434 8.74609V4.24609Z" fill="currentColor" />
</svg>