<svg xmlns="http://www.w3.org/2000/svg" width="24" height="24" viewBox="0 0 24 24" fill="none">
    <path d="M9.32762 4.91415C9.29582 5.03287 9.27707 5.15821 9.26602 5.29107C9.25361 5.44038 9.25095 5.5992 9.25047 5.7688V5.99619V11.9962C9.25047 12.4104 8.91468 12.7462 8.50047 12.7462C8.08626 12.7462 7.75047 12.4104 7.75047 11.9962V5.6665C4.7078 6.81011 2.25047 10.151 2.25047 13.9962L2.25004 15.2461C2.25004 15.6603 2.58583 15.9961 3.00004 15.9961H21C21.4143 15.9961 21.75 15.6603 21.75 15.2461L21.7505 13.9962C21.7505 10.151 19.2931 6.81011 16.2505 5.6665V11.9962C16.2505 12.4104 15.9147 12.7462 15.5005 12.7462C15.0863 12.7462 14.7505 12.4104 14.7505 11.9962V5.99619V5.7688C14.75 5.59919 14.7473 5.44038 14.7349 5.29107C14.7239 5.15821 14.7051 5.03287 14.6733 4.91415C14.4653 4.1377 13.859 3.53139 13.0825 3.32333C12.7919 3.2455 12.4616 3.24579 12.0783 3.24614L12.0005 3.24619L11.9226 3.24614C11.5393 3.24579 11.2091 3.2455 10.9184 3.32333C10.142 3.53139 9.53567 4.1377 9.32762 4.91415Z" fill="currentColor" />
    <path fill-rule="evenodd" clip-rule="evenodd" d="M22.7111 17.246H1.289C1.27222 17.3543 1.26078 17.4645 1.25492 17.5761C1.25022 17.666 1.25004 18.5219 1.25004 18.6671C1.25004 18.7333 1.25004 18.7947 1.25297 18.8508C1.30654 19.873 2.12332 20.6898 3.14555 20.7433C3.20165 20.7463 3.26673 20.7463 3.33305 20.7463H20.6706C20.7369 20.7463 20.7984 20.7463 20.8545 20.7433C21.8768 20.6898 22.6935 19.873 22.7471 18.8508C22.75 18.7947 22.75 18.7295 22.75 18.6633C22.75 18.5181 22.7499 17.666 22.7452 17.5761C22.7393 17.4645 22.7279 17.3543 22.7111 17.246Z" fill="currentColor" />
</svg>