<svg xmlns="http://www.w3.org/2000/svg" width="24" height="24" viewBox="0 0 24 24" fill="none">
    <path d="M10.1107 2.00228C10.6596 2.06327 11.0554 2.55791 10.9945 3.10677L8.99447 21.1068C8.93348 21.6556 8.43884 22.0515 7.88998 21.9906C7.34111 21.9296 6.94526 21.4349 7.00619 20.8861L9.00619 2.88607C9.06717 2.3372 9.56182 1.94136 10.1107 2.00228ZM16.1107 2.00228C16.6596 2.06327 17.0554 2.55791 16.9945 3.10677L14.9945 21.1068C14.9335 21.6556 14.4388 22.0515 13.89 21.9906C13.3411 21.9296 12.9453 21.4349 13.0062 20.8861L15.0062 2.88607C15.0672 2.3372 15.5618 1.94136 16.1107 2.00228Z" fill="currentColor" />
    <path d="M20 13.9961C20.5523 13.9961 21 14.4438 21 14.9961C21 15.5484 20.5523 15.9961 20 15.9961H4C3.44772 15.9961 3 15.5484 3 14.9961C3 14.4438 3.44772 13.9961 4 13.9961H20ZM20 7.99609C20.5523 7.99609 21 8.44381 21 8.99609C21 9.54838 20.5523 9.99609 20 9.99609H4C3.44772 9.99609 3 9.54838 3 8.99609C3 8.44381 3.44772 7.99609 4 7.99609H20Z" fill="currentColor" />
</svg>