<svg xmlns="http://www.w3.org/2000/svg" width="24" height="24" viewBox="0 0 24 24" fill="none">
    <path fill-rule="evenodd" clip-rule="evenodd" d="M16.9815 10.9702C16.9977 11.2072 16.9981 11.517 16.9981 11.9966C16.9981 12.4762 16.9977 12.786 16.9815 13.0229C16.9659 13.2509 16.9392 13.3378 16.9219 13.3794C16.8204 13.6243 16.6258 13.8189 16.3809 13.9204C16.3393 13.9376 16.2524 13.9644 16.0245 13.98C15.7875 13.9961 15.4777 13.9966 14.9981 13.9966V9.99658C15.4777 9.99658 15.7875 9.99701 16.0245 10.0132C16.2524 10.0287 16.3393 10.0555 16.3809 10.0728C16.6258 10.1742 16.8204 10.3688 16.9219 10.6138C16.9392 10.6554 16.9659 10.7423 16.9815 10.9702Z" fill="currentColor" />
    <path d="M22.7481 13.061V12.9966V10.9966V10.9322C22.7481 9.56908 22.7482 8.4699 22.6319 7.60498C22.5109 6.70487 22.2514 5.94713 21.6495 5.34522C21.0476 4.7433 20.2898 4.48381 19.3897 4.36279C18.5248 4.24653 17.4256 4.24655 16.0626 4.24658H15.9981H7.99811H7.93366H7.82192H7.80299L7.59989 4.24664C6.84343 4.24709 6.17289 4.2507 5.5827 4.2794C5.22882 4.2966 4.90382 4.32283 4.60651 4.36279C3.7064 4.48381 2.94866 4.7433 2.34674 5.34522C1.74483 5.94713 1.48534 6.70487 1.36432 7.60498C1.34979 7.7131 1.33707 7.82487 1.32594 7.94036C1.30553 8.15225 1.29047 8.37665 1.27936 8.61392C1.2511 9.2173 1.24838 9.90391 1.24813 10.6796L1.24811 10.9321V10.9966V12.9966V13.061V13.1728V13.1917L1.24817 13.3948C1.24861 14.1513 1.25223 14.8218 1.28092 15.412C1.29813 15.7659 1.32436 16.0909 1.36432 16.3882C1.48534 17.2883 1.74483 18.046 2.34674 18.648C2.94866 19.2499 3.7064 19.5094 4.60651 19.6304C5.47142 19.7466 6.57062 19.7466 7.93368 19.7466H7.99811H15.9981H16.0626C17.4256 19.7466 18.5248 19.7466 19.3897 19.6304C20.2898 19.5094 21.0476 19.2499 21.6495 18.648C22.2514 18.046 22.5109 17.2883 22.6319 16.3882C22.7482 15.5233 22.7481 14.4241 22.7481 13.061ZM8.99811 14.9966V12.9966H6.99811V14.9966C6.99811 15.5489 6.55039 15.9966 5.99811 15.9966C5.44583 15.9966 4.99811 15.5489 4.99811 14.9966V8.99658C4.99811 8.4443 5.44583 7.99658 5.99811 7.99658C6.55039 7.99658 6.99811 8.4443 6.99811 8.99658V10.9966H8.99811V8.99658C8.99811 8.4443 9.44583 7.99658 9.99811 7.99658C10.5504 7.99658 10.9981 8.4443 10.9981 8.99658V14.9966C10.9981 15.5489 10.5504 15.9966 9.99811 15.9966C9.44583 15.9966 8.99811 15.5489 8.99811 14.9966ZM18.9981 11.9966V12.0199C18.9981 12.4621 18.9981 12.8434 18.9766 13.1587C18.9541 13.4885 18.9046 13.8191 18.7696 14.145C18.4651 14.8798 17.8813 15.4636 17.1465 15.7681C16.8206 15.9031 16.49 15.9526 16.1602 15.9751C15.8449 15.9966 15.4636 15.9966 15.0214 15.9966H14.9981H13.9981C13.4458 15.9966 12.9981 15.5489 12.9981 14.9966V8.99658C12.9981 8.4443 13.4458 7.99658 13.9981 7.99658H14.9981H15.0214C15.4636 7.99658 15.8449 7.99657 16.1602 8.01807C16.49 8.04057 16.8206 8.0901 17.1465 8.2251C17.8813 8.52957 18.4651 9.11337 18.7696 9.84815C18.9046 10.1741 18.9541 10.5046 18.9766 10.8345C18.9968 11.1301 18.998 11.4838 18.9981 11.8913L18.9981 11.9733V11.9966Z" fill="currentColor" />
</svg>