<svg xmlns="http://www.w3.org/2000/svg" width="24" height="24" viewBox="0 0 24 24" fill="none">
    <path d="M10.498 17.9961V12.9961H4.49805V17.9961C4.49805 18.5484 4.05033 18.9961 3.49805 18.9961C2.94576 18.9961 2.49805 18.5484 2.49805 17.9961V5.99609C2.49805 5.44381 2.94576 4.99609 3.49805 4.99609C4.05033 4.99609 4.49805 5.44381 4.49805 5.99609V10.9961H10.498V5.99609C10.498 5.44381 10.9458 4.99609 11.498 4.99609C12.0503 4.99609 12.498 5.44381 12.498 5.99609V17.9961C12.498 18.5484 12.0503 18.9961 11.498 18.9961C10.9458 18.9961 10.498 18.5484 10.498 17.9961Z" fill="currentColor" />
    <path d="M19.4981 17.9961V14.9961C18.8192 14.9961 18.2094 14.9986 17.7188 14.9326C17.1994 14.8628 16.6669 14.7001 16.2305 14.2637C15.7941 13.8273 15.6314 13.2947 15.5615 12.7754C15.4956 12.2848 15.4981 11.6749 15.4981 10.9961V9.99609C15.4981 9.44381 15.9458 8.99609 16.4981 8.99609C17.0503 8.99609 17.4981 9.44381 17.4981 9.99609V10.9961C17.4981 11.7315 17.5001 12.1824 17.544 12.5088C17.584 12.8064 17.6416 12.8467 17.6445 12.8496C17.6474 12.8525 17.6878 12.9102 17.9854 12.9502C18.3117 12.9941 18.7627 12.9961 19.4981 12.9961V9.99609C19.4981 9.44381 19.9458 8.99609 20.4981 8.99609C21.0503 8.99609 21.4981 9.44381 21.4981 9.99609V17.9961C21.4981 18.5484 21.0503 18.9961 20.4981 18.9961C19.9458 18.9961 19.4981 18.5484 19.4981 17.9961Z" fill="currentColor" />
</svg>