<svg xmlns="http://www.w3.org/2000/svg" width="24" height="24" viewBox="0 0 24 24" fill="none">
    <path d="M12.9983 3.24414C18.383 3.24414 22.7482 7.58137 22.7483 12.9316C22.7483 14.4582 22.3152 16.5639 21.8059 18.082C21.7904 18.1281 21.7707 18.1718 21.7493 18.2139L20.1975 16.6621C20.5435 15.4086 20.7981 13.9588 20.7981 12.9316C20.7981 8.65143 17.3061 5.18164 12.9983 5.18164C11.7508 5.18164 10.5723 5.47383 9.52661 5.99121L8.09399 4.55859C9.53484 3.72364 11.21 3.24414 12.9983 3.24414Z" fill="currentColor" />
    <path fill-rule="evenodd" clip-rule="evenodd" d="M3.24829 12.9316C3.24831 10.6212 4.06328 8.50075 5.4222 6.83617L3.54118 4.95515C3.15066 4.56463 3.15066 3.93146 3.54118 3.54094C3.93171 3.15042 4.56487 3.15042 4.9554 3.54094L22.4554 21.0409C22.8459 21.4315 22.8459 22.0646 22.4554 22.4552C22.0649 22.8457 21.4317 22.8457 21.0412 22.4552L20.2547 21.6687C19.3562 22.5759 18.0121 22.9751 16.7128 22.6143L16.4775 22.5381C16.0964 22.3758 15.7642 22.079 15.5448 21.7373C15.3279 21.3992 15.1623 20.9196 15.2968 20.4092L16.258 17.672L6.80677 8.22074C5.79844 9.52611 5.1985 11.1588 5.19849 12.9316C5.19849 13.5295 5.2897 14.2923 5.43544 15.0773C5.79952 14.7443 6.23755 14.4805 6.7356 14.3144L6.94459 14.2685C7.63778 14.1646 8.48216 14.4551 8.8606 15.1718L10.7004 20.4091C10.835 20.9195 10.6693 21.3992 10.4524 21.7373C10.2604 22.0363 9.98226 22.3005 9.66041 22.4706L9.46314 22.5595C7.61614 23.1751 5.63045 22.2195 4.93482 20.4238L4.43384 18.9208C4.36391 18.7091 4.3144 18.4954 4.28423 18.282C4.24626 18.2204 4.21468 18.1535 4.19067 18.082L4.00415 17.4873C3.58012 16.0465 3.24829 14.2673 3.24829 12.9316Z" fill="currentColor" />
</svg>