<svg xmlns="http://www.w3.org/2000/svg" width="24" height="24" viewBox="0 0 24 24" fill="none">
    <path d="M10.4983 17.9961V12.9961H4.49826V17.9961C4.49826 18.5484 4.05055 18.9961 3.49826 18.9961C2.94598 18.9961 2.49826 18.5484 2.49826 17.9961V5.99609C2.49826 5.44381 2.94598 4.99609 3.49826 4.99609C4.05055 4.99609 4.49826 5.44381 4.49826 5.99609V10.9961H10.4983V5.99609C10.4983 5.44381 10.946 4.99609 11.4983 4.99609C12.0505 4.99609 12.4983 5.44381 12.4983 5.99609V17.9961C12.4983 18.5484 12.0505 18.9961 11.4983 18.9961C10.946 18.9961 10.4983 18.5484 10.4983 17.9961Z" fill="currentColor" />
    <path d="M19.4983 14.9961H17.4983C16.946 14.9961 16.4983 14.5484 16.4983 13.9961C16.4983 13.4438 16.946 12.9961 17.4983 12.9961H19.4983C19.4983 12.2607 19.4962 11.8098 19.4524 11.4834C19.4124 11.1858 19.3547 11.1455 19.3518 11.1426C19.3489 11.1397 19.3085 11.082 19.011 11.042C18.6846 10.9981 18.2336 10.9961 17.4983 10.9961H16.4983C15.946 10.9961 15.4983 10.5484 15.4983 9.99611C15.4983 9.44382 15.946 8.99611 16.4983 8.99611H17.4983C18.1771 8.99611 18.787 8.99362 19.2776 9.05958C19.7969 9.12942 20.3294 9.29211 20.7658 9.72853C21.2023 10.1649 21.365 10.6975 21.4348 11.2168C21.5007 11.7074 21.4983 12.3173 21.4983 12.9961V14.9961C21.4983 15.6749 21.5007 16.2848 21.4348 16.7754C21.365 17.2947 21.2023 17.8273 20.7658 18.2637C20.3294 18.7001 19.7969 18.8628 19.2776 18.9326C18.787 18.9986 18.1771 18.9961 17.4983 18.9961H16.4983C15.946 18.9961 15.4983 18.5484 15.4983 17.9961C15.4983 17.4438 15.946 16.9961 16.4983 16.9961H17.4983C18.2336 16.9961 18.6846 16.9941 19.011 16.9502C19.3085 16.9102 19.3489 16.8525 19.3518 16.8496C19.3547 16.8467 19.4124 16.8064 19.4524 16.5088C19.4962 16.1825 19.4983 15.7315 19.4983 14.9961Z" fill="currentColor" />
</svg>