<svg xmlns="http://www.w3.org/2000/svg" width="24" height="24" viewBox="0 0 24 24" fill="none">
    <path d="M9.99781 11.375V12.8593C9.31245 13.1996 8.82672 13.878 8.7566 14.6787C8.74776 14.7797 8.74778 14.8917 8.7478 15.022L8.74781 15.042V15.0608C8.7478 15.3439 8.74779 15.5346 8.76246 15.7021C8.91613 17.4568 10.2674 18.8592 11.9978 19.0912V22.375C11.9978 22.9273 12.4455 23.375 12.9978 23.375C13.5501 23.375 13.9978 22.9273 13.9978 22.375V19.0912C15.7283 18.8592 17.0795 17.4568 17.2332 15.7021C17.2478 15.5346 17.2478 15.3439 17.2478 15.0608V15.042L17.2478 15.022C17.2478 14.8917 17.2479 14.7797 17.239 14.6787C17.1689 13.878 16.6832 13.1996 15.9978 12.8593V11.375C15.9978 10.8227 15.5501 10.375 14.9978 10.375C14.4455 10.375 13.9978 10.8227 13.9978 11.375V12.625H11.9978V11.375C11.9978 10.8227 11.5501 10.375 10.9978 10.375C10.4455 10.375 9.99781 10.8227 9.99781 11.375Z" fill="currentColor" />
    <path d="M20.9978 17.3242V12.7588C20.9978 11.2202 20.9741 10.7801 20.7947 10.4131C20.6151 10.046 20.2819 9.75736 19.0671 8.8125L16.0671 6.47852C15.1634 5.77561 14.5537 5.30419 14.0456 4.99805C13.5605 4.70573 13.2634 4.625 12.9978 4.625C12.7322 4.625 12.4351 4.70573 11.9499 4.99805C11.4418 5.30419 10.8322 5.77561 9.92845 6.47852L6.92845 8.8125C5.71363 9.75736 5.38042 10.046 5.20091 10.4131C5.02149 10.7801 4.99778 11.2202 4.99778 12.7588V17.3242C4.99778 18.2771 4.9985 18.9251 5.04368 19.4238C5.08761 19.9085 5.167 20.1537 5.26536 20.3242C5.4409 20.6283 5.69375 20.8811 5.99778 21.0566L6.14231 21.127C6.30584 21.1928 6.53464 21.2454 6.89817 21.2783C7.39688 21.3235 8.04479 21.3242 8.99778 21.3242C9.55 21.3242 9.99768 21.772 9.99778 22.3242C9.99778 22.8765 9.55007 23.3242 8.99778 23.3242C8.08157 23.3242 7.32745 23.3258 6.71751 23.2705C6.17173 23.221 5.6669 23.121 5.197 22.8936L4.99778 22.7881C4.38979 22.437 3.88495 21.9322 3.53392 21.3242C3.23045 20.7986 3.109 20.2282 3.05247 19.6045C2.99719 18.9946 2.99778 18.2404 2.99778 17.3242V12.7588C2.99778 11.4158 2.97443 10.4146 3.40501 9.53418C3.83562 8.65395 4.63992 8.05785 5.69993 7.2334L8.69993 4.90039C9.56554 4.22714 10.2838 3.66615 10.9177 3.28418C11.5745 2.88848 12.2342 2.625 12.9978 2.625C13.7614 2.625 14.4211 2.88848 15.0779 3.28418C15.7118 3.66615 16.43 4.22714 17.2956 4.90039L20.2956 7.2334C21.3556 8.05785 22.1599 8.65395 22.5906 9.53418H22.5915C23.022 10.4145 22.9978 11.4158 22.9978 12.7588V17.3242C22.9978 18.2404 22.9984 18.9946 22.9431 19.6045C22.8866 20.2282 22.7651 20.7986 22.4616 21.3242C22.1544 21.8563 21.7293 22.3092 21.2204 22.6494L20.9978 22.7881C20.4722 23.0916 19.9017 23.214 19.2781 23.2705C18.6681 23.3258 17.914 23.3242 16.9978 23.3242C16.4455 23.3242 15.9978 22.8765 15.9978 22.3242C15.9979 21.772 16.4456 21.3242 16.9978 21.3242C17.9508 21.3242 18.5987 21.3235 19.0974 21.2783C19.5823 21.2344 19.8273 21.1551 19.9978 21.0566C20.3018 20.8811 20.5547 20.6283 20.7302 20.3242C20.8286 20.1537 20.908 19.9085 20.9519 19.4238C20.9971 18.9251 20.9978 18.2771 20.9978 17.3242Z" fill="currentColor" />
</svg>