<svg xmlns="http://www.w3.org/2000/svg" width="24" height="24" viewBox="0 0 24 24" fill="none">
    <path d="M20.4126 1.52362C20.6554 1.53864 20.9121 1.56772 21.1479 1.62616C21.327 1.67055 21.6079 1.75762 21.854 1.95722L21.9575 2.04999L22.0503 2.15351C22.2499 2.39958 22.337 2.68049 22.3813 2.85956C22.4398 3.09542 22.4689 3.35205 22.4839 3.59491C22.514 4.08348 22.4936 4.64673 22.4575 5.15839C22.4209 5.67686 22.3658 6.17366 22.3208 6.53827C22.2982 6.72117 22.278 6.87247 22.2632 6.9787C22.2558 7.03172 22.2498 7.07364 22.2456 7.10273C22.2435 7.11728 22.2419 7.12899 22.2407 7.13691C22.2402 7.14056 22.2401 7.14353 22.2397 7.1457C22.2396 7.14674 22.2388 7.14797 22.2387 7.14862V7.15058C22.1557 7.69633 21.6459 8.07125 21.1001 7.98847C20.554 7.9056 20.1783 7.39583 20.2612 6.8498C20.2614 6.84848 20.2617 6.84501 20.2622 6.84198C20.2631 6.83593 20.2652 6.82615 20.2671 6.81366C20.2707 6.78853 20.276 6.75066 20.2827 6.70234C20.2963 6.60498 20.3153 6.46408 20.3364 6.29316C20.3788 5.94965 20.4291 5.48998 20.4624 5.01777C20.464 4.99431 20.4647 4.97082 20.4663 4.94745L17.2075 8.20722C16.817 8.59765 16.1839 8.59765 15.7934 8.20722C15.4029 7.81672 15.403 7.18369 15.7934 6.79316L19.0444 3.5412C19.0262 3.54243 19.008 3.54382 18.9897 3.54511C18.5175 3.57841 18.0578 3.62872 17.7143 3.67109C17.5435 3.69216 17.4025 3.71123 17.3052 3.7248C17.2565 3.73158 17.218 3.73675 17.1929 3.74042C17.1806 3.74221 17.1715 3.74441 17.1655 3.7453C17.1625 3.74576 17.16 3.74608 17.1587 3.74628C16.6127 3.82914 16.1019 3.45343 16.019 2.90741C15.9362 2.36152 16.3111 1.85179 16.8569 1.76874H16.8589C16.8595 1.76864 16.8608 1.76792 16.8618 1.76777C16.864 1.76744 16.8669 1.76733 16.8706 1.76679C16.8785 1.76561 16.8902 1.76403 16.9048 1.76191C16.9339 1.75766 16.9758 1.75171 17.0288 1.74433C17.135 1.72952 17.2863 1.70927 17.4692 1.68671C17.8338 1.64174 18.3306 1.58655 18.8491 1.54999C19.3608 1.51392 19.924 1.49345 20.4126 1.52362Z" fill="currentColor" />
    <path d="M20.4995 13.5V11C20.4995 10.4479 20.9474 10.0002 21.4995 10C22.0518 10 22.4995 10.4477 22.4995 11V13.5C22.4995 14.0361 22.5 14.5386 22.4966 15.0068C22.4925 15.559 22.0418 16.0038 21.4897 16C20.9376 15.996 20.4928 15.5452 20.4966 14.9932C20.4999 14.5335 20.4995 14.038 20.4995 13.5Z" fill="currentColor" />
    <path d="M20.1636 18.6924C20.3335 18.167 20.897 17.8791 21.4223 18.0489C21.9477 18.2188 22.2367 18.7823 22.0669 19.3076C21.8526 19.97 21.526 20.5448 21.0356 21.0352C20.0314 22.0394 18.6979 22.3307 17.0649 22.4366C16.514 22.4721 16.0383 22.0548 16.0024 21.5039C15.9667 20.9528 16.3849 20.4762 16.936 20.4405C18.4653 20.3413 19.1586 20.0841 19.6216 19.6211C19.8567 19.386 20.032 19.0989 20.1636 18.6924Z" fill="currentColor" />
    <path d="M13.5005 1.5C14.0528 1.5 14.5005 1.94772 14.5005 2.5C14.5005 3.05228 14.0528 3.5 13.5005 3.5H10.5005C10.151 3.5 9.81946 3.50005 9.50341 3.50098C8.95114 3.50259 8.50212 3.05617 8.50048 2.50391C8.49886 1.95162 8.94527 1.50259 9.49755 1.50098C9.81706 1.50004 10.1516 1.5 10.5005 1.5H13.5005Z" fill="currentColor" />
    <path d="M5.28954 1.77443C5.82895 1.65731 6.36149 1.9997 6.47899 2.53908C6.59646 3.07873 6.25399 3.61204 5.71434 3.72951C5.07228 3.86929 4.67947 4.07981 4.38036 4.37892C3.91751 4.84189 3.66018 5.53531 3.56102 7.06447C3.5253 7.61551 3.04954 8.03365 2.49852 7.99806C1.9475 7.96234 1.52937 7.48656 1.56493 6.93556C1.67079 5.30273 1.96221 3.96907 2.9663 2.96486C3.60636 2.3248 4.38273 1.97182 5.28954 1.77443Z" fill="currentColor" />
    <path fill-rule="evenodd" clip-rule="evenodd" d="M8.05026 9.5L8.00047 9.5L7.95066 9.5C6.82371 9.49998 5.89432 9.49997 5.14891 9.58399C4.37256 9.67151 3.67284 9.86064 3.0659 10.3262C2.78857 10.539 2.53945 10.7881 2.32665 11.0654C1.86111 11.6724 1.67198 12.3721 1.58446 13.1484C1.50044 13.8939 1.50046 14.8232 1.50047 15.9502V16V16.0498C1.50046 17.1768 1.50044 18.1061 1.58446 18.8516C1.67198 19.6279 1.86111 20.3276 2.32665 20.9346C2.53945 21.2119 2.78857 21.461 3.0659 21.6738C3.67284 22.1394 4.37256 22.3285 5.14891 22.416C5.89435 22.5 6.82373 22.5 7.95073 22.5H8.00047H8.05022C9.17722 22.5 10.1066 22.5 10.852 22.416C11.6284 22.3285 12.3281 22.1394 12.935 21.6738C13.2124 21.461 13.4615 21.2119 13.6743 20.9346C14.1398 20.3276 14.329 19.6279 14.4165 18.8516C14.5005 18.1062 14.5005 17.1767 14.5005 16.0498V16V15.9502C14.5005 14.8233 14.5005 13.8939 14.4165 13.1484C14.329 12.3721 14.1398 11.6724 13.6743 11.0654C13.4615 10.7881 13.2124 10.539 12.935 10.3262C12.3281 9.86064 11.6284 9.67151 10.852 9.58399C10.153 9.5052 9.29222 9.50031 8.25843 9.50002L8.05026 9.5ZM11.5796 15.9627C11.8612 16.1181 12.1652 16.3139 12.5001 16.5428C12.4986 17.2926 12.4912 17.8722 12.4556 18.3442C12.4481 18.4433 12.4394 18.5377 12.4292 18.6279C12.3617 19.226 12.2415 19.5169 12.0874 19.7178C11.981 19.8564 11.8569 19.9805 11.7182 20.0869C11.5174 20.241 11.2265 20.3613 10.6284 20.4287C10.01 20.4984 9.19652 20.5 8.00047 20.5C6.98754 20.5 6.24896 20.4989 5.67094 20.4562C5.56645 20.4485 5.46721 20.4394 5.37254 20.4287C4.77448 20.3613 4.48354 20.241 4.2827 20.0869C4.2103 20.0314 4.14185 19.971 4.07782 19.9062L6.35399 17.7205L6.37837 17.6971C7.01525 17.0857 7.53902 16.5829 8.00829 16.2254C8.49806 15.8524 8.99354 15.5855 9.58641 15.5115C9.69529 15.498 9.80484 15.4906 9.91454 15.4881C10.5119 15.4746 11.0405 15.6654 11.5796 15.9627Z" fill="currentColor" />
</svg>