<svg xmlns="http://www.w3.org/2000/svg" width="24" height="24" viewBox="0 0 24 24" fill="none">
    <path fill-rule="evenodd" clip-rule="evenodd" d="M1.29289 1.29289C1.68342 0.902369 2.31658 0.902369 2.70711 1.29289L22.7071 21.2929C23.0976 21.6834 23.0976 22.3166 22.7071 22.7071C22.3166 23.0976 21.6834 23.0976 21.2929 22.7071L1.29289 2.70711C0.902369 2.31658 0.902369 1.68342 1.29289 1.29289Z" fill="currentColor" />
    <path d="M3.97061 2.55471C3.69097 2.73154 3.42887 2.93941 3.18414 3.18414C2.27175 4.09653 1.87164 5.25033 1.68283 6.65471C1.49996 8.01484 1.49998 9.74956 1.5 11.9255V12.0745C1.49998 14.2504 1.49996 15.9852 1.68283 17.3453C1.87164 18.7497 2.27175 19.9035 3.18414 20.8159C4.09653 21.7283 5.25033 22.1284 6.65471 22.3172C8.01486 22.5 9.74959 22.5 11.9256 22.5H12.0744C14.2504 22.5 15.9852 22.5 17.3453 22.3172C18.7497 22.1284 19.9035 21.7283 20.8159 20.8159C21.0606 20.5711 21.2685 20.309 21.4453 20.0294L19.9685 18.5526C19.8183 18.902 19.6312 19.1727 19.4023 19.4016C18.9234 19.8805 18.262 20.176 17.0794 20.335C15.8681 20.4979 14.2681 20.5 12.0006 20.5C9.73319 20.5 8.1332 20.4979 6.92183 20.335C6.83818 20.3237 6.75713 20.3118 6.67857 20.2992L6.90512 20.0405C8.77866 17.9003 10.6778 15.7309 12.8246 14.4232C13.5039 14.0095 14.1956 13.6909 14.9068 13.4909L3.97061 2.55471Z" fill="currentColor" />
    <path d="M20.5706 17.0333C20.471 16.9338 20.4212 16.884 20.3985 16.8212C20.3757 16.7584 20.3823 16.6862 20.3954 16.5419C20.4507 15.9339 20.477 15.2361 20.4894 14.4215C19.2306 13.6808 18.083 13.334 17.028 13.2637C16.9045 13.2554 16.8428 13.2513 16.7931 13.2288C16.7435 13.2063 16.7026 13.1654 16.6208 13.0836L6.18632 2.6491C5.85966 2.32244 5.69633 2.15911 5.75403 1.98376C5.81172 1.8084 6.03013 1.77546 6.46694 1.70958C6.52902 1.70022 6.59162 1.69131 6.65471 1.68283C8.01484 1.49996 9.74959 1.49998 11.9255 1.5H12.0745C14.2504 1.49998 15.9852 1.49996 17.3453 1.68283C18.7497 1.87164 19.9035 2.27175 20.8159 3.18414C21.7283 4.09653 22.1284 5.25033 22.3172 6.65471C22.5 8.01486 22.5 9.74959 22.5 11.9256V12.0744C22.5 14.2504 22.5 15.9852 22.3172 17.3453C22.3087 17.4084 22.2998 17.471 22.2904 17.5331C22.2245 17.9699 22.1916 18.1883 22.0163 18.246C21.8409 18.3037 21.6776 18.1403 21.3509 17.8137L20.5706 17.0333Z" fill="currentColor" />
</svg>