<svg xmlns="http://www.w3.org/2000/svg" width="24" height="24" viewBox="0 0 24 24" fill="none">
    <path d="M1.5 11.9997C1.5 9.78913 1.49771 8.03052 1.68262 6.65501C1.87143 5.25063 2.27218 4.0967 3.18457 3.18431C4.35692 2.0121 5.93336 1.6814 7.94238 1.56517C8.49369 1.53334 8.96615 1.95428 8.99805 2.5056C9.02988 3.05691 8.60894 3.52937 8.05762 3.56126C6.13187 3.67269 5.21644 3.98069 4.59863 4.59837C4.11978 5.07722 3.82404 5.73901 3.66504 6.92161C3.50222 8.13288 3.5 9.73267 3.5 11.9997C3.5 14.2671 3.50218 15.8675 3.66504 17.0788C3.82404 18.2614 4.11978 18.9232 4.59863 19.4021C5.07741 19.8807 5.73877 20.1757 6.9209 20.3347C8.13227 20.4976 9.73256 20.4997 12 20.4997C14.2674 20.4997 15.8677 20.4976 17.0791 20.3347C18.2612 20.1757 18.9226 19.8807 19.4014 19.4021C19.8802 18.9232 20.176 18.2614 20.335 17.0788C20.4978 15.8675 20.5 14.2671 20.5 11.9997C20.5 9.73267 20.4978 8.13288 20.335 6.92161C20.176 5.73901 19.8802 5.07722 19.4014 4.59837C18.7836 3.98069 17.8681 3.67269 15.9424 3.56126C15.3911 3.52937 14.9701 3.05691 15.002 2.5056C15.0339 1.95428 15.5063 1.53334 16.0576 1.56517C18.0666 1.6814 19.6431 2.0121 20.8154 3.18431C21.7278 4.0967 22.1286 5.25063 22.3174 6.65501C22.5023 8.03052 22.5 9.78913 22.5 11.9997C22.5 14.2106 22.5023 15.9698 22.3174 17.3454C22.1286 18.7498 21.7278 19.9038 20.8154 20.8161C19.9032 21.7282 18.7497 22.1283 17.3457 22.3171C15.9701 22.5021 14.2109 22.4997 12 22.4997C9.7891 22.4997 8.02991 22.5021 6.6543 22.3171C5.25027 22.1283 4.09682 21.7282 3.18457 20.8161C2.27218 19.9038 1.87143 18.7498 1.68262 17.3454C1.49767 15.9698 1.5 14.2106 1.5 11.9997Z" fill="currentColor" />
    <path d="M11 2.5C11 1.94772 11.4477 1.5 12 1.5C12.5523 1.5 13 1.94772 13 2.5V13.5488C13.21 13.3294 13.4271 13.0907 13.6406 12.8447C14.0596 12.3622 14.4492 11.8764 14.7353 11.5098C14.8778 11.3272 14.9934 11.1751 15.0732 11.0693C15.1132 11.0165 15.1444 10.975 15.165 10.9473C15.1753 10.9335 15.1825 10.9228 15.1875 10.916C15.1899 10.9128 15.1922 10.9107 15.1933 10.9092L15.1943 10.9072C15.5218 10.4625 16.1481 10.3678 16.5928 10.6953C17.0373 11.0227 17.1328 11.6481 16.8056 12.0928H16.8047V12.0947C16.8042 12.0954 16.8026 12.0956 16.8017 12.0967C16.8001 12.0989 16.7979 12.1023 16.7949 12.1064C16.7887 12.1148 16.7801 12.1271 16.7685 12.1426C16.7455 12.1735 16.7116 12.2179 16.6689 12.2744C16.5836 12.3874 16.4615 12.548 16.3115 12.7402C16.0124 13.1236 15.5996 13.6379 15.1504 14.1553C14.7054 14.6678 14.2045 15.206 13.7314 15.624C13.4961 15.8319 13.2445 16.0318 12.9912 16.1846C12.7652 16.3208 12.4102 16.5 12 16.5C11.5897 16.5 11.2348 16.3208 11.0088 16.1846C10.7554 16.0318 10.5038 15.8319 10.2685 15.624C9.79546 15.206 9.29456 14.6678 8.84959 14.1553C8.40039 13.6379 7.98761 13.1236 7.68846 12.7402C7.53849 12.5481 7.41635 12.3874 7.33104 12.2744C7.28837 12.2179 7.25446 12.1735 7.23143 12.1426C7.21991 12.1271 7.21123 12.1148 7.20506 12.1064C7.20201 12.1023 7.19893 12.099 7.19725 12.0967C7.19659 12.0958 7.19572 12.0953 7.1953 12.0947V12.0928H7.19432C6.86714 11.6481 6.96264 11.0218 7.40721 10.6943C7.85189 10.3672 8.47823 10.4627 8.80565 10.9072L8.80663 10.9092C8.80778 10.9107 8.81012 10.9128 8.81249 10.916C8.81751 10.9228 8.82472 10.9335 8.83495 10.9473C8.85558 10.975 8.88681 11.0165 8.92674 11.0693C9.00661 11.1751 9.12215 11.3272 9.26463 11.5098C9.55074 11.8764 9.94042 12.3622 10.3594 12.8447C10.5729 13.0907 10.7899 13.3293 11 13.5488V2.5Z" fill="currentColor" />
</svg>