<svg xmlns="http://www.w3.org/2000/svg" width="24" height="24" viewBox="0 0 24 24" fill="none">
    <path d="M18 1.99951C18.5523 1.99951 19 2.44723 19 2.99951C19 3.5518 18.5523 3.99951 18 3.99951H13.4707C14.2104 4.82572 14.7234 5.85772 14.915 6.99951H18C18.5523 6.99951 19 7.44723 19 7.99951C19 8.5518 18.5523 8.99951 18 8.99951H14.915C14.4388 11.8371 11.9729 13.9995 9 13.9995C8.35939 13.9995 7.93498 14.0001 7.63477 14.022C7.60464 14.0242 7.57743 14.0274 7.55273 14.0298C7.57103 14.0467 7.59051 14.0663 7.61328 14.0864C7.83881 14.2858 8.17601 14.5429 8.68555 14.9312L15.6064 20.2036C16.0457 20.5383 16.1306 21.1667 15.7959 21.606C15.4612 22.0452 14.8328 22.1301 14.3936 21.7954L7.47363 16.522C6.99036 16.1538 6.58257 15.8439 6.28906 15.5845C6.03398 15.359 5.66987 15.0129 5.53711 14.5396C5.31476 13.7468 5.60059 12.8987 6.25781 12.4028C6.65012 12.1069 7.1497 12.0526 7.48926 12.0278C7.87998 11.9993 8.3924 11.9995 9 11.9995C10.8638 11.9995 12.43 10.7247 12.874 8.99951H6C5.44772 8.99951 5 8.5518 5 7.99951C5 7.44723 5.44772 6.99951 6 6.99951H12.874C12.43 5.27428 10.8638 3.99951 9 3.99951H6C5.44772 3.99951 5 3.5518 5 2.99951C5 2.44723 5.44772 1.99951 6 1.99951H18Z" fill="currentColor" />
</svg>