<svg xmlns="http://www.w3.org/2000/svg" width="24" height="24" viewBox="0 0 24 24" fill="none">
    <path d="M22.75 11.9999C22.75 17.937 17.9371 22.7499 12 22.7499C6.06294 22.7499 1.25 17.937 1.25 11.9999C1.25 6.06288 6.06294 1.24994 12 1.24994C17.9371 1.24994 22.75 6.06288 22.75 11.9999ZM11 8.24994C11 8.80222 11.4477 9.24994 12 9.24994C12.5523 9.24994 13 8.80222 13 8.24994C13 7.69765 12.5523 7.24994 12 7.24994C11.4477 7.24994 11 7.69765 11 8.24994ZM13 15.9999V11.9999C13 11.4477 12.5523 10.9999 12 10.9999C11.4477 10.9999 11 11.4477 11 11.9999V15.9999C11 16.5522 11.4477 16.9999 12 16.9999C12.5523 16.9999 13 16.5522 13 15.9999Z" fill="currentColor" />
</svg>