<svg xmlns="http://www.w3.org/2000/svg" width="24" height="24" viewBox="0 0 24 24" fill="none">
    <path d="M22.25 12V12.0526C22.25 14.2452 22.25 15.9672 22.0693 17.3115C21.8843 18.6882 21.4969 19.7805 20.6387 20.6387C19.7805 21.4969 18.6882 21.8843 17.3115 22.0693C15.9672 22.25 14.2453 22.25 12.0526 22.25H12H11.9474C9.75477 22.25 8.03276 22.25 6.68848 22.0693C5.31182 21.8843 4.21953 21.4969 3.36133 20.6387C2.50313 19.7805 2.11575 18.6882 1.93066 17.3115C1.74998 15.9672 1.74999 14.2452 1.75 12.0526V12V11.9474C1.74999 9.75475 1.74998 8.03276 1.93066 6.68848C2.11575 5.31182 2.50313 4.21953 3.36133 3.36133C4.21953 2.50313 5.31182 2.11575 6.68848 1.93066C8.03276 1.74998 9.75475 1.74999 11.9474 1.75H12H12.0526C14.2452 1.74999 15.9672 1.74998 17.3115 1.93066C18.6882 2.11575 19.7805 2.50313 20.6387 3.36133C21.4969 4.21953 21.8843 5.31182 22.0693 6.68848C22.25 8.03276 22.25 9.75473 22.25 11.9474V12ZM7.75 17.5C7.75 16.8096 7.19036 16.25 6.5 16.25C5.80964 16.25 5.25 16.8096 5.25 17.5C5.25 18.1904 5.80964 18.75 6.5 18.75C7.19035 18.75 7.75 18.1904 7.75 17.5ZM7.75 6.5C7.75 5.80965 7.19036 5.25 6.5 5.25C5.80964 5.25 5.25 5.80965 5.25 6.5C5.25 7.19036 5.80964 7.75 6.5 7.75C7.19035 7.75 7.75 7.19036 7.75 6.5ZM18.75 17.5C18.75 16.8096 18.1904 16.25 17.5 16.25C16.8096 16.25 16.25 16.8096 16.25 17.5C16.25 18.1904 16.8096 18.75 17.5 18.75C18.1904 18.75 18.75 18.1904 18.75 17.5ZM18.75 6.5C18.75 5.80965 18.1904 5.25 17.5 5.25C16.8096 5.25 16.25 5.80965 16.25 6.5C16.25 7.19036 16.8096 7.75 17.5 7.75C18.1904 7.75 18.75 7.19036 18.75 6.5Z" fill="currentColor" />
</svg>