<svg xmlns="http://www.w3.org/2000/svg" width="24" height="24" viewBox="0 0 24 24" fill="none">
    <path fill-rule="evenodd" clip-rule="evenodd" d="M13.9988 1C14.5511 1 14.9988 1.44772 14.9988 2V3C14.9988 4.07104 14.1569 4.94545 13.0988 4.99754C13.0436 5.00026 12.9988 5.04477 12.9988 5.1V7C12.9988 7.55228 12.5511 8 11.9988 8C11.4465 8 10.9988 7.55228 10.9988 7V5C10.9988 3.92896 11.8407 3.05455 12.8988 3.00246C12.954 2.99974 12.9988 2.95523 12.9988 2.9V2C12.9988 1.44772 13.4465 1 13.9988 1Z" fill="currentColor" />
    <path fill-rule="evenodd" clip-rule="evenodd" d="M22.4784 19.2999C22.5437 19.0237 22.5919 18.7323 22.6283 18.4248C22.747 17.4206 22.747 16.1512 22.747 14.5491V14.451C22.747 12.8489 22.747 11.5794 22.6283 10.5753C22.5064 9.54428 22.2506 8.69558 21.6688 7.98663C21.4714 7.74612 21.2509 7.52558 21.0104 7.3282C20.3014 6.74638 19.4527 6.49054 18.4217 6.36868C17.4175 6.24998 16.1482 6.24999 14.5459 6.25H9.44807H9.42847L15.011 11.8325C15.0906 11.36 15.5018 11 15.997 11H16.997C17.5493 11 17.997 11.4477 17.997 12C17.997 12.5523 17.5493 13 16.997 13H16.1785L22.4784 19.2999Z" fill="currentColor" />
    <path fill-rule="evenodd" clip-rule="evenodd" d="M5.03355 6.44877L1.29173 2.70696C0.901209 2.31643 0.901209 1.68342 1.29173 1.29289C1.68226 0.902369 2.31527 0.902369 2.7058 1.29289L22.7058 21.2929C23.0963 21.6834 23.0963 22.3164 22.7058 22.707C22.3153 23.0975 21.6823 23.0975 21.2917 22.707L20.5686 21.9838C19.9556 22.3507 19.2478 22.5338 18.4235 22.6312C17.4194 22.7499 16.1499 22.7499 14.5479 22.7499H9.44964L9.1538 22.7499C7.69023 22.7495 6.51557 22.7425 5.57402 22.6312C4.54304 22.5094 3.69434 22.2535 2.9854 21.6717C2.74489 21.4743 2.52435 21.2538 2.32697 21.0133C1.74515 20.3043 1.48931 19.4556 1.36745 18.4247C1.24874 17.4205 1.24875 16.1511 1.24877 14.5488V14.451C1.24875 12.8487 1.24874 11.5794 1.36745 10.5752C1.48931 9.5442 1.74515 8.6955 2.32697 7.98656C2.52435 7.74605 2.74489 7.52551 2.9854 7.32812C3.56644 6.85128 4.24135 6.59339 5.03355 6.44877ZM14.5847 15.9999L16.5847 17.9999L6.99876 17.9999C6.44648 17.9999 5.99876 17.5522 5.99876 16.9999C5.99876 16.4476 6.44648 15.9999 6.99876 15.9999H14.5847ZM5.99876 11.9999C5.99876 11.4476 6.44648 10.9999 6.99876 10.9999H7.99876C8.55105 10.9999 8.99876 11.4476 8.99876 11.9999C8.99876 12.5522 8.55105 12.9999 7.99876 12.9999H6.99876C6.44648 12.9999 5.99876 12.5522 5.99876 11.9999Z" fill="currentColor" />
</svg>