<svg xmlns="http://www.w3.org/2000/svg" width="24" height="24" viewBox="0 0 24 24" fill="none">
    <path d="M11.0056 19.5L11.0056 10.5C11.0056 9.94772 11.4533 9.5 12.0056 9.5C12.5579 9.5 13.0056 9.94772 13.0056 10.5L13.0056 19.5C13.0056 20.0523 12.5579 20.5 12.0056 20.5C11.4533 20.5 11.0056 20.0523 11.0056 19.5Z" fill="currentColor" />
    <path d="M14.0056 19.25L14.0835 19.2499C14.4667 19.2496 14.797 19.2493 15.0876 19.3271C15.8641 19.5352 16.4704 20.1415 16.6784 20.9179C16.7563 21.2086 16.756 21.5388 16.7556 21.9221L16.7556 22C16.7556 22.4142 16.4198 22.75 16.0056 22.75H8.00558C7.59137 22.75 7.25558 22.4142 7.25558 22L7.25554 21.9221C7.25519 21.5388 7.2549 21.2086 7.33273 20.9179C7.54078 20.1415 8.1471 19.5352 8.92355 19.3271C9.21418 19.2493 9.54446 19.2496 9.92771 19.2499L10.0056 19.25H14.0056Z" fill="currentColor" />
    <path d="M14.0056 13V10.5049C14.0056 9.9526 14.4533 9.50488 15.0056 9.50488C15.5579 9.50488 16.0056 9.9526 16.0056 10.5049V13C16.0056 13.5523 15.5579 14 15.0056 14C14.4533 14 14.0056 13.5523 14.0056 13Z" fill="currentColor" />
    <path fill-rule="evenodd" clip-rule="evenodd" d="M7.58469 3.73394L7.57631 3.75782L6.69936 6.25782L6.68397 6.30164" fill="currentColor" />
    <path d="M12.8497 1.25001L12.8814 1.25C13.3614 1.24999 13.7824 1.24997 14.13 1.28907C14.5043 1.33119 14.8668 1.42467 15.2013 1.66016C15.5356 1.89562 15.7455 2.20496 15.9113 2.54297C16.0661 2.85869 16.2089 3.25759 16.3718 3.71249L16.38 3.73536L17.2755 6.23536L17.2868 6.26694C17.6005 7.14286 17.8641 7.87892 17.9835 8.47461C18.1077 9.09391 18.1122 9.73052 17.715 10.2949C17.3176 10.8593 16.7168 11.0701 16.0919 11.1621C15.4941 11.2501 14.7168 11.25 13.7931 11.25L13.7443 11.25H10.2374L10.1767 11.25C9.26429 11.25 8.4966 11.2501 7.90443 11.1631C7.28213 11.0716 6.68376 10.8615 6.28627 10.3008C5.88894 9.74011 5.8892 9.10664 6.00893 8.48926C6.12351 7.89849 6.37961 7.16883 6.68397 6.30164L6.69936 6.25782L7.57631 3.75782L7.58469 3.73394C7.74552 3.27562 7.88651 2.87384 8.04018 2.55567C8.20492 2.21467 8.4155 1.90196 8.75111 1.66407C9.08656 1.42641 9.4502 1.33159 9.82631 1.28907C10.1726 1.24993 10.592 1.24996 11.0695 1.25L11.1154 1.25001H12.8497Z" fill="currentColor" />
</svg>