<svg xmlns="http://www.w3.org/2000/svg" width="24" height="24" viewBox="0 0 24 24" fill="none">
    <path d="M22.2461 6.24994L22.2461 6.30932C22.2461 7.08641 22.2462 7.73569 22.183 8.25678C22.1163 8.80736 21.9699 9.31191 21.6065 9.74408C21.4893 9.88333 21.3578 10.0116 21.2151 10.1259C20.7721 10.4804 20.2549 10.6233 19.6906 10.6884C19.1565 10.75 18.491 10.75 17.6945 10.7499L17.6336 10.7499H6.3586L6.29773 10.7499C5.50118 10.75 4.83573 10.75 4.30159 10.6884C3.73724 10.6233 3.22009 10.4804 2.7771 10.1259C2.63438 10.0116 2.50285 9.88333 2.38572 9.74408C2.02233 9.31191 1.87591 8.80736 1.80916 8.25678C1.74602 7.73566 1.74606 7.08646 1.7461 6.30932L1.7461 6.24994L1.7461 6.19056C1.74606 5.41342 1.74602 4.76422 1.80916 4.24311C1.87591 3.69252 2.02233 3.18798 2.38572 2.7558C2.50285 2.61656 2.63438 2.48824 2.7771 2.37397C3.22009 2.01944 3.73724 1.87659 4.30159 1.81147C4.83573 1.74987 5.50115 1.7499 6.2977 1.74994L6.3586 1.74994H17.6336L17.6945 1.74994C18.491 1.7499 19.1565 1.74987 19.6906 1.81147C20.2549 1.87659 20.7721 2.01944 21.2151 2.37397C21.3578 2.48824 21.4893 2.61656 21.6065 2.7558C21.9699 3.18798 22.1163 3.69252 22.183 4.24311C22.2462 4.7642 22.2461 5.41336 22.2461 6.19045L22.2461 6.24994Z" fill="currentColor" />
    <path d="M22.2461 17.7501L22.2461 17.8094C22.2461 18.5865 22.2462 19.2358 22.1846 19.7569C22.1194 20.3077 21.9768 20.8129 21.6221 21.2452C21.5078 21.3844 21.3794 21.5118 21.2402 21.626C20.808 21.9806 20.3035 22.1234 19.7529 22.1885C19.2323 22.2501 18.5836 22.2501 17.8074 22.2501H17.7461L17.6905 22.2501C16.912 22.2501 16.2621 22.2502 15.7402 22.1885C15.1894 22.1234 14.6843 21.9807 14.252 21.626C14.1127 21.5118 13.9844 21.3844 13.8701 21.2452C13.5153 20.8129 13.3727 20.3077 13.3076 19.7569C13.246 19.2358 13.2461 18.5867 13.2461 17.8095L13.2461 17.7501L13.2461 17.6929C13.2461 16.9151 13.246 16.2657 13.3076 15.7442C13.3727 15.1934 13.5155 14.6882 13.8701 14.2559C13.9844 14.1167 14.1127 13.9884 14.252 13.8741C14.6841 13.5196 15.1887 13.3767 15.7393 13.3116C16.26 13.25 16.9087 13.25 17.685 13.2501L17.7461 13.2501L17.8016 13.2501C18.5801 13.25 19.2301 13.25 19.752 13.3116C20.3027 13.3767 20.8079 13.5194 21.2402 13.8741C21.3794 13.9883 21.5078 14.1158 21.6221 14.255C21.9768 14.6872 22.1194 15.1925 22.1846 15.7432C22.2462 16.2643 22.2461 16.9135 22.2461 17.6906L22.2461 17.7501Z" fill="currentColor" />
    <path d="M10.7461 17.7499L10.7461 17.8093C10.7461 18.5865 10.7462 19.2356 10.6846 19.7568C10.6195 20.3077 10.4769 20.8127 10.1221 21.2451C10.0078 21.3843 9.87948 21.5116 9.74024 21.6259C9.30803 21.9806 8.80358 22.1233 8.25293 22.1884C7.73183 22.25 7.08264 22.25 6.30553 22.2499L6.2461 22.2499L6.18672 22.2499C5.40963 22.25 4.76035 22.25 4.23926 22.1884C3.68861 22.1233 3.18417 21.9806 2.75196 21.6259C2.61271 21.5116 2.4844 21.3843 2.37012 21.2451C2.0153 20.8127 1.87274 20.3077 1.80762 19.7568C1.74602 19.2356 1.74606 18.5865 1.7461 17.8093L1.7461 17.7499L1.7461 17.6929C1.74606 16.915 1.74603 16.2656 1.80762 15.7441C1.87272 15.1933 2.0155 14.6881 2.37012 14.2558C2.4844 14.1166 2.61271 13.9882 2.75196 13.874C3.18414 13.5194 3.68868 13.3766 4.23926 13.3115C4.76037 13.2499 5.40957 13.2499 6.18669 13.2499L6.2461 13.2499L6.30548 13.2499C7.0826 13.2499 7.73182 13.2499 8.25293 13.3115C8.80352 13.3766 9.30806 13.5194 9.74024 13.874C9.87948 13.9882 10.0078 14.1166 10.1221 14.2558C10.4767 14.6881 10.6195 15.1933 10.6846 15.7441C10.7462 16.2656 10.7461 16.915 10.7461 17.6929L10.7461 17.7499Z" fill="currentColor" />
</svg>