<svg xmlns="http://www.w3.org/2000/svg" width="24" height="24" viewBox="0 0 24 24" fill="none">
    <path d="M0.996094 12C0.996094 8.68629 3.68239 6 6.99609 6H8.99609C9.54838 6 9.99609 6.44772 9.99609 7C9.99609 7.55228 9.54838 8 8.99609 8H6.99609C4.78695 8 2.99609 9.79086 2.99609 12C2.99609 14.2091 4.78695 16 6.99609 16H8.99609C9.54838 16 9.99609 16.4477 9.99609 17C9.99609 17.5523 9.54838 18 8.99609 18H6.99609C3.68238 18 0.996094 15.3137 0.996094 12ZM20.9961 12C20.9961 9.79086 19.2052 8 16.9961 8H14.9961C14.4438 8 13.9961 7.55228 13.9961 7C13.9961 6.44772 14.4438 6 14.9961 6H16.9961C20.3098 6 22.9961 8.68629 22.9961 12C22.9961 15.3137 20.3098 18 16.9961 18H14.9961C14.4438 18 13.9961 17.5523 13.9961 17C13.9961 16.4477 14.4438 16 14.9961 16H16.9961C19.2052 16 20.9961 14.2091 20.9961 12Z" fill="currentColor" />
    <path d="M15.4961 11C16.0484 11 16.4961 11.4477 16.4961 12C16.4961 12.5523 16.0484 13 15.4961 13H8.49609C7.94381 13 7.49609 12.5523 7.49609 12C7.49609 11.4477 7.94381 11 8.49609 11H15.4961Z" fill="currentColor" />
</svg>