<svg xmlns="http://www.w3.org/2000/svg" width="24" height="24" viewBox="0 0 24 24" fill="none">
    <path d="M20.9961 5C21.5484 5 21.9961 5.44772 21.9961 6C21.9961 6.55229 21.5484 7 20.9961 7L10.9961 7C10.4438 7 9.99609 6.55228 9.99609 6C9.99609 5.44772 10.4438 5 10.9961 5L20.9961 5Z" fill="currentColor" />
    <path d="M20.9961 11C21.5484 11 21.9961 11.4477 21.9961 12C21.9961 12.5523 21.5484 13 20.9961 13L10.9961 13C10.4438 13 9.99609 12.5523 9.99609 12C9.99609 11.4477 10.4438 11 10.9961 11L20.9961 11Z" fill="currentColor" />
    <path d="M20.9961 17C21.5484 17 21.9961 17.4477 21.9961 18C21.9961 18.5523 21.5484 19 20.9961 19L10.9961 19C10.4438 19 9.99609 18.5523 9.99609 18C9.99609 17.4477 10.4438 17 10.9961 17L20.9961 17Z" fill="currentColor" />
    <path d="M1.99614 19.5002C1.99614 19.2693 1.99101 19.0075 2.03813 18.7707C2.21178 17.8981 2.89411 17.2158 3.76664 17.0422C4.00351 16.995 4.26527 17.0002 4.49614 17.0002C4.64231 17.0002 4.72697 17.0004 4.79008 16.9982C4.84931 16.9962 4.85252 16.9928 4.835 16.9963C4.91434 16.9805 4.97645 16.9184 4.99223 16.839C4.98874 16.8566 4.99215 16.8533 4.99418 16.7941C4.99634 16.731 4.99614 16.6463 4.99614 16.5002C4.99614 16.354 4.99634 16.2693 4.99418 16.2062C4.99215 16.147 4.98874 16.1438 4.99223 16.1613C4.97645 16.082 4.91434 16.0199 4.835 16.0041C4.85252 16.0076 4.84931 16.0041 4.79008 16.0021C4.72697 16 4.64231 16.0002 4.49614 16.0002H2.99614C2.44385 16.0002 1.99614 15.5524 1.99614 15.0002C1.99614 14.4479 2.44385 14.0002 2.99614 14.0002H4.49614C4.727 14.0002 4.98876 13.995 5.22563 14.0422C6.09816 14.2158 6.78049 14.8981 6.95414 15.7707C7.00126 16.0075 6.99614 16.2693 6.99614 16.5002C6.99614 16.731 7.00126 16.9928 6.95414 17.2297C6.78049 18.1022 6.09816 18.7845 5.22563 18.9582C4.98876 19.0053 4.727 19.0002 4.49614 19.0002C4.34996 19.0002 4.2653 19 4.20219 19.0021C4.14296 19.0041 4.13975 19.0076 4.15727 19.0041C4.07793 19.0199 4.01582 19.082 4.00004 19.1613C4.00353 19.1438 4.00012 19.147 3.99809 19.2062C3.99593 19.2693 3.99614 19.354 3.99614 19.5002V20.0002H5.99614C6.54842 20.0002 6.99614 20.4479 6.99614 21.0002C6.99614 21.5524 6.54842 22.0002 5.99614 22.0002H3.59574C3.4826 22.0002 3.29742 22.0026 3.13383 21.9806C2.94125 21.9547 2.6377 21.88 2.37699 21.6193C2.11629 21.3586 2.04156 21.0551 2.01567 20.8625C1.99369 20.6989 1.99613 20.5137 1.99614 20.4006V19.5002Z" fill="currentColor" />
    <path d="M3.49609 2.00003C3.70346 2.00003 3.9595 1.99806 4.17773 2.02737C4.42478 2.06059 4.76665 2.14949 5.05664 2.43948C5.34663 2.72947 5.43554 3.07134 5.46875 3.31839C5.49807 3.53662 5.49609 3.79267 5.49609 4.00003V8.00003H5.99609C6.54838 8.00003 6.99609 8.44774 6.99609 9.00003C6.99609 9.55231 6.54838 10 5.99609 10H2.99609C2.44381 10 1.99609 9.55231 1.99609 9.00003C1.99609 8.44774 2.44381 8.00003 2.99609 8.00003H3.49609V4.00003H2.99609C2.44381 4.00003 1.99609 3.55231 1.99609 3.00003C1.99609 2.44774 2.44381 2.00003 2.99609 2.00003H3.49609Z" fill="currentColor" />
</svg>