<svg xmlns="http://www.w3.org/2000/svg" width="24" height="24" viewBox="0 0 24 24" fill="none">
    <path d="M0.996094 12C0.996094 5.92487 5.92096 1 11.9961 1C12.5484 1 12.9961 1.44772 12.9961 2C12.9961 2.55228 12.5484 3 11.9961 3C7.02553 3 2.99609 7.02944 2.99609 12C2.99609 16.9706 7.02553 21 11.9961 21C16.9667 21 20.9961 16.9706 20.9961 12C20.9961 11.4477 21.4438 11 21.9961 11C22.5484 11 22.9961 11.4477 22.9961 12C22.9961 18.0751 18.0712 23 11.9961 23C5.92096 23 0.996094 18.0751 0.996094 12Z" fill="currentColor" />
</svg>