<svg xmlns="http://www.w3.org/2000/svg" width="24" height="24" viewBox="0 0 24 24" fill="none">
    <path d="M17.9961 11.9639C17.9958 8.67488 15.3144 6 11.9961 6C11.2386 6 10.516 6.13874 9.85152 6.3916C9.33536 6.58798 8.7579 6.32866 8.56149 5.8125C8.36533 5.29641 8.62453 4.71883 9.14059 4.52246C10.0288 4.1845 10.992 4 11.9961 4C16.4094 4 19.9958 7.56069 19.9961 11.9639C19.9961 12.9858 19.8021 13.9659 19.4482 14.8662C19.246 15.38 18.6652 15.6327 18.1513 15.4307C17.6376 15.2285 17.3849 14.6477 17.5869 14.1338C17.8507 13.4627 17.9961 12.7311 17.9961 11.9639Z" fill="currentColor" />
    <path d="M3.99609 11.9404C3.99613 9.74486 4.87543 7.75237 6.29883 6.2998L7.72754 7.7002C6.65564 8.79408 5.99613 10.2891 5.99609 11.9404C5.99609 15.287 8.70914 18 12.0557 18C13.707 18 15.202 17.3405 16.2959 16.2686L17.6963 17.6973C16.2437 19.1207 14.2512 20 12.0557 20C7.60457 20 3.99609 16.3915 3.99609 11.9404Z" fill="currentColor" />
    <path d="M21.9961 11C22.5484 11 22.9961 11.4477 22.9961 12C22.9961 12.5523 22.5484 13 21.9961 13H18.9961C18.4438 13 17.9961 12.5523 17.9961 12C17.9961 11.4477 18.4438 11 18.9961 11H21.9961Z" fill="currentColor" />
    <path d="M4.99609 11C5.54838 11 5.99609 11.4477 5.99609 12C5.99609 12.5523 5.54838 13 4.99609 13H1.99609C1.44381 13 0.996094 12.5523 0.996094 12C0.996094 11.4477 1.44381 11 1.99609 11H4.99609Z" fill="currentColor" />
    <path d="M12.9961 22C12.9961 22.5523 12.5484 23 11.9961 23C11.4438 23 10.9961 22.5523 10.9961 22L10.9961 19C10.9961 18.4477 11.4438 18 11.9961 18C12.5484 18 12.9961 18.4477 12.9961 19L12.9961 22Z" fill="currentColor" />
    <path d="M13 5C13 5.55228 12.5523 6 12 6C11.4477 6 11 5.55228 11 5L11 2C11 1.44772 11.4477 1 12 1C12.5523 1 13 1.44772 13 2L13 5Z" fill="currentColor" />
    <path d="M1.28911 1.29289C1.67963 0.902369 2.31265 0.902369 2.70317 1.29289L22.7032 21.2929C23.0937 21.6834 23.0937 22.3164 22.7032 22.707C22.3126 23.0975 21.6796 23.0975 21.2891 22.707L1.28911 2.70696C0.898585 2.31643 0.898585 1.68342 1.28911 1.29289Z" fill="currentColor" />
</svg>