<svg xmlns="http://www.w3.org/2000/svg" width="24" height="24" viewBox="0 0 24 24" fill="none">
    <path d="M17.9961 12C17.9961 8.68629 15.3098 6 11.9961 6C8.68239 6 5.99609 8.68629 5.99609 12C5.99609 15.3137 8.68239 18 11.9961 18C15.3098 18 17.9961 15.3137 17.9961 12ZM19.9961 12C19.9961 16.4183 16.4144 20 11.9961 20C7.57782 20 3.99609 16.4183 3.99609 12C3.99609 7.58172 7.57782 4 11.9961 4C16.4144 4 19.9961 7.58172 19.9961 12Z" fill="currentColor" />
    <path d="M13.9961 12C13.9961 10.8954 13.1007 10 11.9961 10C10.8915 10 9.99609 10.8954 9.99609 12C9.99609 13.1046 10.8915 14 11.9961 14C13.1007 14 13.9961 13.1046 13.9961 12ZM15.9961 12C15.9961 14.2091 14.2052 16 11.9961 16C9.78695 16 7.99609 14.2091 7.99609 12C7.99609 9.79086 9.78695 8 11.9961 8C14.2052 8 15.9961 9.79086 15.9961 12Z" fill="currentColor" />
    <path d="M21.9961 11C22.5484 11 22.9961 11.4477 22.9961 12C22.9961 12.5523 22.5484 13 21.9961 13H18.9961C18.4438 13 17.9961 12.5523 17.9961 12C17.9961 11.4477 18.4438 11 18.9961 11H21.9961Z" fill="currentColor" />
    <path d="M4.99609 11C5.54838 11 5.99609 11.4477 5.99609 12C5.99609 12.5523 5.54838 13 4.99609 13H1.99609C1.44381 13 0.996094 12.5523 0.996094 12C0.996094 11.4477 1.44381 11 1.99609 11H4.99609Z" fill="currentColor" />
    <path d="M12.9961 22C12.9961 22.5523 12.5484 23 11.9961 23C11.4438 23 10.9961 22.5523 10.9961 22L10.9961 19C10.9961 18.4477 11.4438 18 11.9961 18C12.5484 18 12.9961 18.4477 12.9961 19L12.9961 22Z" fill="currentColor" />
    <path d="M13 5C13 5.55228 12.5523 6 12 6C11.4477 6 11 5.55228 11 5L11 2C11 1.44772 11.4477 1 12 1C12.5523 1 13 1.44772 13 2L13 5Z" fill="currentColor" />
</svg>