<svg xmlns="http://www.w3.org/2000/svg" width="24" height="24" viewBox="0 0 24 24" fill="none">
    <path fill-rule="evenodd" clip-rule="evenodd" d="M15.4966 6.75V8.2677C15.7851 8.27681 16.0512 8.29062 16.297 8.31152C16.7327 8.34859 17.1287 8.40932 17.4966 8.51463V6.75C17.4966 3.71243 15.0341 1.25 11.9966 1.25C8.95902 1.25 6.49658 3.71243 6.49658 6.75V8.51468C6.86447 8.40934 7.26056 8.3486 7.69639 8.31152C7.94217 8.29062 8.20812 8.27681 8.49658 8.2677V6.75C8.49658 4.817 10.0636 3.25 11.9966 3.25C13.9296 3.25 15.4966 4.817 15.4966 6.75Z" fill="currentColor" />
    <path d="M7.69581 8.31152C7.25998 8.3486 6.86389 8.40934 6.496 8.51468C6.23717 8.58879 5.99229 8.68499 5.75734 8.81055C4.92887 9.2534 4.24998 9.93228 3.80714 10.7607C3.50303 11.3298 3.37122 11.9575 3.30812 12.7002C3.24639 13.4268 3.24648 14.33 3.24659 15.4696L3.24659 15.501L3.2466 15.5588C3.24669 16.6856 3.24675 17.58 3.30812 18.3008C3.37134 19.0433 3.50397 19.6703 3.80812 20.2393C4.25096 21.0676 4.92896 21.7466 5.75734 22.1895C6.3263 22.4935 6.95426 22.6253 7.69679 22.6885C8.42072 22.75 9.31962 22.75 10.4532 22.75H10.4966H13.4956H13.541C14.6739 22.75 15.5728 22.75 16.2964 22.6885C17.0388 22.6253 17.666 22.4935 18.2349 22.1895C19.0634 21.7466 19.7422 21.0677 20.1851 20.2393C20.4892 19.6704 20.6209 19.0432 20.6841 18.3008C20.7456 17.5772 20.7456 16.6786 20.7456 15.5458V15.5V15.4542C20.7456 14.3214 20.7456 13.4228 20.6841 12.6992C20.6209 11.9568 20.4892 11.3296 20.1851 10.7607C19.7422 9.93227 19.0634 9.25339 18.2349 8.81055C17.9999 8.68496 17.7549 8.58876 17.496 8.51463C17.1282 8.40932 16.7321 8.34859 16.2964 8.31152C16.0506 8.29062 15.7846 8.27682 15.496 8.2677C14.9351 8.24999 14.289 8.24999 13.5409 8.25H13.4956H10.4966H10.4505C9.70251 8.24999 9.05673 8.24999 8.496 8.2677C8.20754 8.27681 7.94159 8.29062 7.69581 8.31152ZM14.996 15.5C14.996 17.1569 13.6529 18.5 11.996 18.5C10.3391 18.5 8.996 17.1569 8.996 15.5C8.996 13.8431 10.3391 12.5 11.996 12.5C13.6529 12.5 14.996 13.8431 14.996 15.5Z" fill="currentColor" />
    <path fill-rule="evenodd" clip-rule="evenodd" d="M11.9966 14.5C12.5489 14.5 12.9966 14.9477 12.9966 15.5C12.9966 16.0523 12.5489 16.5 11.9966 16.5C11.4443 16.5 10.9966 16.0523 10.9966 15.5C10.9966 14.9477 11.4443 14.5 11.9966 14.5Z" fill="currentColor" />
</svg>