<svg xmlns="http://www.w3.org/2000/svg" width="24" height="24" viewBox="0 0 24 24" fill="none">
    <path d="M1.99609 16V8C1.99609 6.85057 1.99483 5.90482 2.08008 5.14844C2.1676 4.37209 2.35674 3.67237 2.82227 3.06543C3.03507 2.7881 3.2842 2.53897 3.56152 2.32617C4.16847 1.86064 4.86818 1.67151 5.64453 1.58399C6.40091 1.49873 7.34667 1.5 8.49609 1.5C9.64552 1.5 10.5913 1.49873 11.3477 1.58399C12.124 1.67151 12.8237 1.86064 13.4307 2.32617C13.708 2.53897 13.9571 2.7881 14.1699 3.06543C14.7833 3.86507 14.924 4.83889 14.9717 5.95703C14.9952 6.50882 14.5664 6.97553 14.0146 6.99902C13.4632 7.0223 12.9973 6.59442 12.9736 6.04297C12.9281 4.97464 12.792 4.55459 12.583 4.28223C12.4766 4.14361 12.3525 4.01946 12.2139 3.91309C12.013 3.75898 11.7221 3.63873 11.124 3.57129C10.5057 3.50158 9.69214 3.5 8.49609 3.5C7.30005 3.5 6.48652 3.50158 5.86817 3.57129C5.2701 3.63873 4.97916 3.75898 4.77832 3.91309C4.6397 4.01946 4.51556 4.14361 4.40918 4.28223C4.25507 4.48307 4.13483 4.774 4.06738 5.37207C3.99767 5.99043 3.99609 6.80396 3.99609 8V16C3.99609 17.196 3.99767 18.0096 4.06738 18.6279C4.13483 19.226 4.25507 19.5169 4.40918 19.7178C4.51556 19.8564 4.6397 19.9805 4.77832 20.0869C4.97916 20.241 5.2701 20.3613 5.86817 20.4287C6.48652 20.4984 7.30005 20.5 8.49609 20.5C9.69214 20.5 10.5057 20.4984 11.124 20.4287C11.7221 20.3613 12.013 20.241 12.2139 20.0869C12.3525 19.9805 12.4766 19.8564 12.583 19.7178C12.792 19.4454 12.9281 19.0254 12.9736 17.957C12.9974 17.4056 13.4632 16.9777 14.0146 17.001C14.5664 17.0245 14.9952 17.4912 14.9717 18.043C14.924 19.1611 14.7833 20.1349 14.1699 20.9346C13.9571 21.2119 13.708 21.461 13.4307 21.6738C12.8237 22.1394 12.124 22.3285 11.3477 22.416C10.5913 22.5013 9.64552 22.5 8.49609 22.5C7.34667 22.5 6.40091 22.5013 5.64453 22.416C4.86818 22.3285 4.16847 22.1394 3.56152 21.6738C3.2842 21.461 3.03507 21.2119 2.82227 20.9346C2.35673 20.3276 2.1676 19.6279 2.08008 18.8516C1.99483 18.0952 1.99609 17.1494 1.99609 16Z" fill="currentColor" />
    <path fill-rule="evenodd" clip-rule="evenodd" d="M16.9385 9.33095L16.9657 9.35109C16.9554 9.34348 16.9463 9.33677 16.9385 9.33095ZM16.9658 14.6487L16.9385 14.6688C16.9463 14.663 16.9554 14.6563 16.9658 14.6487ZM16.921 14.6824C16.9258 14.6786 16.9316 14.674 16.9385 14.6688L16.921 14.6824Z" fill="currentColor" />
    <path d="M18.5908 10.6592C18.7216 10.7727 18.8499 10.8869 18.9733 11L9.99609 11C9.44381 11 8.99609 11.4477 8.99609 12C8.99609 12.5523 9.44381 13 9.99609 13L18.9733 13C18.8499 13.1131 18.7216 13.2273 18.5908 13.3408C18.1708 13.7055 17.7475 14.0454 17.4277 14.2949C17.2685 14.4192 17.136 14.5203 17.0439 14.5898C17.0129 14.6133 16.9862 14.6329 16.9648 14.6488L16.9375 14.6689C16.9306 14.6741 16.9248 14.6787 16.92 14.6825L16.9111 14.6894C16.4664 15.017 16.3639 15.6481 16.6914 16.0928C17.0188 16.5373 17.6442 16.6328 18.0889 16.3056L18.1016 16.2959L18.1328 16.2724L18.1506 16.2592C18.1762 16.2402 18.2094 16.2155 18.249 16.1855C18.3483 16.1105 18.4894 16.0028 18.6582 15.8711C18.9947 15.6085 19.4464 15.2456 19.9014 14.8506C20.3514 14.4599 20.8271 14.0177 21.1982 13.5976C21.3827 13.3888 21.5631 13.1623 21.7021 12.9316C21.8094 12.7537 21.9538 12.4752 21.9883 12.1445L21.9961 12L21.9883 11.8555C21.9538 11.5248 21.8094 11.2463 21.7021 11.0683C21.5631 10.8376 21.3827 10.6111 21.1982 10.4023C20.8271 9.9823 20.3514 9.5401 19.9014 9.1494C19.4464 8.7544 18.9947 8.39149 18.6582 8.12889C18.4894 7.99718 18.3483 7.88943 18.249 7.81444C18.2094 7.78449 18.1762 7.75982 18.1506 7.74077C18.1442 7.736 18.1383 7.73159 18.1328 7.72752L18.1016 7.70409L18.0889 7.69432C17.6442 7.36714 17.0178 7.46264 16.6904 7.90721C16.3633 8.35189 16.4587 8.97823 16.9033 9.30565L16.9375 9.33104L16.9647 9.35118C16.9862 9.367 17.0129 9.38668 17.0439 9.41014C17.136 9.47969 17.2685 9.58079 17.4277 9.70506C17.7475 9.95459 18.1708 10.2945 18.5908 10.6592Z" fill="currentColor" />
</svg>