<svg xmlns="http://www.w3.org/2000/svg" width="24" height="24" viewBox="0 0 24 24" fill="none">
    <path fill-rule="evenodd" clip-rule="evenodd" d="M1.29021 1.29289C1.68073 0.902369 2.3139 0.902369 2.70442 1.29289L22.7044 21.2929C23.0949 21.6834 23.0949 22.3166 22.7044 22.7071C22.3139 23.0976 21.6807 23.0976 21.2902 22.7071L1.29021 2.70711C0.899683 2.31658 0.899683 1.68342 1.29021 1.29289Z" fill="currentColor" />
    <path d="M2.99445 7.08468C1.57249 10.4086 2.34228 13.2373 3.94503 15.6595C5.25909 17.6454 7.17566 19.4178 8.90474 21.0168L8.90556 21.0175C9.23486 21.3221 9.55774 21.6207 9.86797 21.9129L9.86963 21.9145C10.4447 22.4528 11.2085 22.75 11.9989 22.75C12.7892 22.75 13.5531 22.4528 14.1281 21.9144C14.4216 21.6396 14.7259 21.3592 15.0363 21.0732C15.9091 20.2691 16.8307 19.4199 17.7 18.5208C17.8884 18.3261 17.9825 18.2287 17.9815 18.1059C17.9805 17.9831 17.8834 17.886 17.6892 17.6918L14.6366 14.6393C14.473 14.4757 14.3912 14.3939 14.2939 14.3791C14.1966 14.3643 14.0819 14.4244 13.8524 14.5447C13.2979 14.8355 12.6668 15 11.9973 15C9.78818 15 7.99731 13.2091 7.99731 11C7.99731 10.3305 8.16181 9.69936 8.45259 9.14489C8.57291 8.91546 8.63306 8.80075 8.61823 8.70342C8.6034 8.60609 8.5216 8.52429 8.358 8.36069L5.0317 5.03439C4.8176 4.82029 4.71055 4.71323 4.57508 4.72198C4.43961 4.73073 4.35116 4.84553 4.17427 5.07514C3.70406 5.68545 3.30532 6.35798 2.99445 7.08468Z" fill="currentColor" />
    <path d="M20.0555 15.6609C21.6564 13.2362 22.4235 10.4045 21.0033 7.08468C19.4753 3.51303 15.825 1.25 11.9989 1.25C10.2668 1.25 8.57074 1.71376 7.09132 2.55275C6.8058 2.71466 6.66305 2.79562 6.64308 2.94294C6.6231 3.09025 6.7441 3.21125 6.98608 3.45323L10.474 6.94111C10.5971 7.06426 10.6587 7.12584 10.7333 7.14721C10.8079 7.16859 10.9027 7.14667 11.0922 7.10283C11.3831 7.03556 11.686 7 11.9973 7C14.2065 7 15.9973 8.79086 15.9973 11C15.9973 11.3113 15.9618 11.6143 15.8945 11.9051C15.8506 12.0946 15.8287 12.1894 15.8501 12.264C15.8715 12.3386 15.9331 12.4002 16.0562 12.5233L19.2651 15.7322C19.4398 15.9069 19.5271 15.9942 19.6314 16.006C19.6729 16.0107 19.718 16.0061 19.7577 15.9932C19.8575 15.9608 19.9235 15.8608 20.0555 15.6609Z" fill="currentColor" />
</svg>