<svg xmlns="http://www.w3.org/2000/svg" width="24" height="24" viewBox="0 0 24 24" fill="none">
    <path d="M21.7461 17C22.2984 17 22.7461 17.4477 22.7461 18C22.7461 18.5523 22.2984 19 21.7461 19H14.7461C14.1938 19 13.7461 18.5523 13.7461 18C13.7461 17.4477 14.1938 17 14.7461 17H21.7461Z" fill="currentColor" />
    <path fill-rule="evenodd" clip-rule="evenodd" d="M7.2461 18.9827V2.7909C6.45208 2.96776 5.62655 3.37841 4.49666 3.94046L4.3418 4.01747L3.87208 4.25046L3.84511 4.26386C3.33267 4.51856 2.89719 4.73501 2.55665 4.95042C2.1956 5.17883 1.88694 5.43912 1.65723 5.80861C1.42754 6.17808 1.33116 6.56887 1.28711 6.99203C1.24604 7.38695 1.24606 7.8648 1.24609 8.42654L1.2461 8.47445V15.7963V15.8498C1.24606 16.7462 1.24604 17.5014 1.33204 18.0845C1.42232 18.6965 1.62914 19.2843 2.18067 19.6795C2.73227 20.0748 3.35905 20.084 3.97169 19.9756C4.5531 19.8727 5.27012 19.6351 6.12116 19.353L6.18165 19.3329L6.79004 19.131C6.97088 19.0711 7.12047 19.0222 7.2461 18.9827ZM8.7461 19.0785V2.75C9.54534 2.88231 10.391 3.24289 11.5464 3.73554L11.7022 3.80195L13.7158 4.66014C13.929 4.75097 14.1024 4.82383 14.2461 4.88198V15.8058C13.2441 16.0331 12.4961 16.9292 12.4961 18C12.4961 19.0708 13.2441 19.9669 14.2461 20.1942V21.25C13.5175 21.1102 12.7449 20.7807 11.6976 20.3342L11.5488 20.2707L9.09864 19.2271C8.96446 19.17 8.84801 19.1208 8.7461 19.0785ZM21.7461 15.75C22.1044 15.75 22.4432 15.8338 22.7439 15.9828C22.7461 15.7851 22.7461 15.575 22.7461 15.3526V15.3245V7.55704V7.51091C22.7461 6.53486 22.7461 5.71869 22.6533 5.09507C22.5569 4.44748 22.3353 3.82209 21.7344 3.42819C21.1336 3.03456 20.4686 3.07776 19.832 3.2447C19.225 3.40391 18.4791 3.72173 17.5886 4.10123L17.5186 4.13105L16.2764 4.66014C16.0632 4.75097 15.8898 4.82383 15.7461 4.88198V15.75H21.7461Z" fill="currentColor" />
</svg>