<svg xmlns="http://www.w3.org/2000/svg" width="24" height="24" viewBox="0 0 24 24" fill="none">
    <path d="M11.997 1.25C15.8232 1.25 19.474 3.51331 21.0019 7.08496C22.4219 10.4047 21.6545 13.2365 20.0537 15.6611C18.7258 17.6723 16.7823 19.463 15.0344 21.0735C14.7243 21.3593 14.4202 21.6394 14.1269 21.9141C13.5519 22.4524 12.7874 22.75 11.997 22.75C11.2067 22.75 10.4431 22.4524 9.86814 21.9141C9.55737 21.6213 9.23424 21.3225 8.90426 21.0174C7.17493 19.4182 5.25723 17.6448 3.94333 15.6592C2.34072 13.2371 1.5713 10.4088 2.99314 7.08496C4.52103 3.51335 8.17094 1.25006 11.997 1.25ZM16.4961 11C16.4961 10.4477 16.0484 10 15.4961 10H8.49607C7.94378 10 7.49607 10.4477 7.49607 11C7.49607 11.5523 7.94378 12 8.49607 12H15.4961C16.0484 12 16.4961 11.5523 16.4961 11Z" fill="currentColor" />
</svg>