<svg xmlns="http://www.w3.org/2000/svg" width="24" height="24" viewBox="0 0 24 24" fill="none">
    <path d="M19.6262 15.4462C20.1389 15.2412 20.7209 15.4911 20.926 16.0038C21.3221 16.9941 21.6553 17.823 21.8342 18.5008C22.0156 19.1882 22.0927 19.9073 21.7795 20.6044C21.6376 20.9202 21.442 21.2097 21.2014 21.4589C20.6705 22.0086 19.9735 22.204 19.2678 22.2909C18.572 22.3765 17.6789 22.3749 16.6125 22.3749H7.38305C6.31637 22.3749 5.4227 22.3765 4.7268 22.2909C4.02104 22.204 3.32413 22.0087 2.7932 21.4589C2.55266 21.2097 2.35705 20.9202 2.21508 20.6044C1.90196 19.9074 1.979 19.1882 2.16039 18.5008C2.33931 17.823 2.67249 16.994 3.06859 16.0038C3.27364 15.4912 3.85573 15.2414 4.3684 15.4462C4.88109 15.6512 5.13093 16.2332 4.92601 16.746C4.51013 17.7857 4.23412 18.4798 4.09398 19.0106C3.95641 19.5319 4.00458 19.7078 4.0393 19.785C4.08655 19.8901 4.15169 19.9863 4.23168 20.0692C4.29049 20.1301 4.43595 20.2397 4.97094 20.3055C5.51584 20.3726 6.26301 20.3749 7.38305 20.3749H16.6125C17.7323 20.3749 18.4788 20.3726 19.0237 20.3055C19.5587 20.2397 19.7041 20.1301 19.7629 20.0692C19.843 19.9863 19.908 19.8901 19.9553 19.785C19.99 19.7078 20.0382 19.5319 19.9006 19.0106C19.7605 18.4798 19.4845 17.7856 19.0686 16.746C18.8638 16.2333 19.1136 15.6512 19.6262 15.4462Z" fill="currentColor" />
    <path d="M11.9988 1.62476C15.0496 1.62476 17.9475 3.47961 19.158 6.39038C20.2835 9.09685 19.6728 11.4085 18.4089 13.3777C17.365 15.0042 15.8364 16.4529 14.4772 17.741C14.2371 17.9686 14.0021 18.1913 13.7761 18.4089C13.2988 18.8684 12.6614 19.1248 11.9988 19.1248C11.3362 19.1247 10.6987 18.8685 10.2214 18.4089C9.9832 18.1781 9.73477 17.9417 9.48049 17.6999C8.13492 16.4198 6.62521 14.9836 5.59156 13.3767C4.32614 11.4094 3.7127 9.10023 4.83961 6.39038C6.05009 3.47961 8.94797 1.62482 11.9988 1.62476ZM11.9988 12.6248C13.7937 12.6248 15.2488 11.1697 15.2488 9.37476C15.2488 7.57983 13.7937 6.12476 11.9988 6.12476C10.2039 6.12476 8.74879 7.57983 8.74879 9.37476C8.74879 11.1697 10.2039 12.6248 11.9988 12.6248Z" fill="currentColor" />
</svg>