<svg xmlns="http://www.w3.org/2000/svg" width="24" height="24" viewBox="0 0 24 24" fill="none">
    <path fill-rule="evenodd" clip-rule="evenodd" d="M14.2975 2.25C15.5003 2.24998 16.5058 2.24996 17.2866 2.3298L14.2975 2.25ZM17.0571 8.43724C17.0571 8.43726 17.0571 8.43722 17.0571 8.43724V8.43724ZM12.5389 13.5198C12.5355 13.5231 12.5322 13.5264 12.5292 13.5293L12.5389 13.5198ZM14.2975 2.25H14.2353H9.76458H9.70241C8.32773 2.24997 7.21078 2.24995 6.39251 2.36914C5.57808 2.48779 4.76138 2.76457 4.39934 3.58789C4.03947 4.40657 4.37898 5.19889 4.83489 5.88867C5.29326 6.58212 6.03837 7.42062 6.95667 8.45401L7.00188 8.50488L11.4394 13.498L11.4472 13.5068L11.4931 13.5527L11.5019 13.5605C11.5052 13.5635 11.5087 13.5662 11.5123 13.5688L11.5204 13.5752C11.5317 13.5846 11.5429 13.5939 11.5546 13.6025C11.584 13.6243 11.615 13.6423 11.6464 13.6592C11.6706 13.6722 11.6954 13.6832 11.7206 13.6934C11.743 13.7024 11.7651 13.711 11.788 13.7178C11.7979 13.7207 11.8079 13.7231 11.818 13.7254C11.8293 13.7279 11.8408 13.73 11.8522 13.7322" fill="currentColor" />
    <path d="M14.2353 2.25H14.2975C15.6722 2.24997 16.7891 2.24995 17.6073 2.36914C18.4218 2.48779 19.2385 2.76456 19.6005 3.58789C19.9604 4.40657 19.6209 5.1989 19.165 5.88867C18.709 6.57844 17.9688 7.4114 17.0571 8.43724L16.997 8.50488L12.5605 13.498C12.5545 13.5047 12.5464 13.5125 12.5389 13.5198L12.5292 13.5293C12.5199 13.5387 12.5106 13.5479 12.5009 13.5566C12.4549 13.5975 12.4007 13.6326 12.3486 13.6602C12.3254 13.6724 12.3023 13.6837 12.2782 13.6934C12.2563 13.7022 12.2344 13.7102 12.2118 13.7168C12.188 13.7238 12.1639 13.7288 12.1396 13.7334C12.1205 13.737 12.0934 13.7422 12.0741 13.7441C12.0494 13.7466 12.0248 13.7471 11.9999 13.7471C11.9747 13.7471 11.9498 13.7467 11.9247 13.7441C11.9029 13.742 11.8738 13.7364 11.8522 13.7322C11.8306 13.7281 11.8092 13.724 11.788 13.7178C11.7651 13.711 11.743 13.7024 11.7206 13.6934C11.6954 13.6832 11.6706 13.6722 11.6464 13.6592C11.615 13.6423 11.584 13.6243 11.5546 13.6025C11.5429 13.5939 11.5317 13.5846 11.5204 13.5752C11.5192 13.5742 11.5135 13.5698 11.5123 13.5688C11.5108 13.5677 11.5138 13.5699 11.5123 13.5688C11.5087 13.5662 11.5052 13.5635 11.5019 13.5605L11.4931 13.5527L11.4472 13.5068L11.4394 13.498L7.00188 8.50488L6.95667 8.45401C6.03837 7.42062 5.29326 6.58212 4.83489 5.88867C4.37898 5.19889 4.03947 4.40657 4.39934 3.58789C4.76138 2.76457 5.57808 2.48779 6.39251 2.36914C7.21078 2.24995 8.32773 2.24997 9.70241 2.25H9.76458H14.2353Z" fill="currentColor" />
    <path d="M10.9985 12.75C10.9985 12.1977 11.4462 11.75 11.9985 11.75C12.5507 11.7501 12.9985 12.1978 12.9985 12.75V19.75H15.4985C16.0508 19.75 16.4985 20.1977 16.4985 20.75C16.4985 21.3023 16.0508 21.75 15.4985 21.75H8.49847C7.94619 21.75 7.49847 21.3023 7.49847 20.75C7.49847 20.1977 7.94619 19.75 8.49847 19.75H10.9985V12.75Z" fill="currentColor" />
</svg>