<svg xmlns="http://www.w3.org/2000/svg" width="24" height="24" viewBox="0 0 24 24" fill="none">
    <path d="M1.29302 1.29289C1.68354 0.902369 2.31655 0.902369 2.70708 1.29289L22.7071 21.2929C23.0976 21.6834 23.0976 22.3164 22.7071 22.707C22.3166 23.0975 21.6835 23.0975 21.293 22.707L1.29302 2.70696C0.902491 2.31643 0.902491 1.68342 1.29302 1.29289Z" fill="currentColor" />
    <path fill-rule="evenodd" clip-rule="evenodd" d="M7.45287 7.45385C7.05069 7.55749 6.63381 7.56169 6.21137 7.4656C5.81605 7.37568 5.61835 7.33071 5.45916 7.31226C3.48222 7.08303 2.25 8.67177 2.25 10.4987V11.5013C2.25 13.3282 3.48222 14.917 5.45916 14.6877C5.54075 14.6783 5.63245 14.6619 5.75568 14.636C5.86927 14.6121 5.92606 14.6002 5.96303 14.6302C6 14.6603 6 14.7176 6 14.8324V15.75C6 16.4015 6.05418 17.0108 6.33902 17.5805C6.62386 18.1502 7.07877 18.5591 7.6 18.95L8.83186 19.8739C9.3183 20.2387 9.72909 20.5469 10.0714 20.7649C10.4095 20.9803 10.8134 21.1982 11.2755 21.2399C12.2186 21.3249 13.1288 20.8698 13.6266 20.0643C13.8705 19.6697 13.9385 19.2157 13.9691 18.8161C13.9872 18.5792 13.9947 18.305 13.9978 17.9964C13.9993 17.8529 14 17.7811 14.0468 17.7522C14.0937 17.7232 14.158 17.7545 14.2865 17.8172L15.1701 18.2479C16.8246 19.0543 17.6518 19.4575 18.5741 19.1432C18.7186 19.0939 18.8483 19.0358 18.9667 18.9677L7.45287 7.45385ZM20.2993 17.1177C20.3464 17.0182 20.395 16.9146 20.4457 16.8067C22.1842 13.1032 22.1846 8.89773 20.4461 5.19416C19.8129 3.84544 19.4964 3.17109 18.5741 2.85681C17.6518 2.54254 16.8246 2.94574 15.1701 3.75213L9.63275 6.45111L20.2993 17.1177ZM8.047 14.8283C8.09399 14.7989 8.15854 14.8303 8.28763 14.8933L11.5095 16.4637C11.7054 16.5591 11.8033 16.6069 11.867 16.6756C11.9114 16.7237 11.9423 16.7731 11.9661 16.8342C12 16.9215 12 17.031 12 17.25C12 17.9086 11.9993 18.3446 11.9749 18.6637C11.9559 18.9126 11.9251 19.0055 11.9197 19.0216C11.8209 19.1741 11.6437 19.2606 11.4624 19.2482C11.4473 19.2431 11.358 19.2132 11.146 19.0781C10.8761 18.9062 10.5269 18.6451 10 18.25L8.8 17.35C8.34376 17.0078 8.19867 16.8276 8.12788 16.6861C8.05709 16.5445 8 16.3203 8 15.75V15.073C8 14.9294 8 14.8576 8.047 14.8283Z" fill="currentColor" />
</svg>