<svg xmlns="http://www.w3.org/2000/svg" width="24" height="24" viewBox="0 0 24 24" fill="none">
    <path d="M12.1514 2.00781C12.4968 2.04403 12.7926 2.19629 12.9902 2.31543C13.2437 2.46822 13.4961 2.66799 13.7315 2.87598C14.2045 3.29397 14.7054 3.83225 15.1504 4.34473C15.5996 4.8621 16.0124 5.37646 16.3115 5.75977C16.4615 5.95196 16.5836 6.11264 16.669 6.22559C16.7116 6.28209 16.7455 6.32652 16.7686 6.35742C16.7801 6.37285 16.7888 6.38524 16.7949 6.39355C16.798 6.39764 16.8001 6.40106 16.8018 6.40332L16.8047 6.40625C17.1322 6.8509 17.0374 7.47715 16.5928 7.80469C16.1481 8.1322 15.5219 8.03747 15.1943 7.59277L15.1934 7.59082C15.1922 7.58925 15.1899 7.58722 15.1875 7.58398C15.1825 7.57721 15.1753 7.56647 15.165 7.55273C15.1444 7.52504 15.1132 7.48353 15.0732 7.43066C14.9933 7.32488 14.877 7.17295 14.7344 6.99023C14.4483 6.62363 14.0585 6.13772 13.6397 5.65527C13.2165 5.16792 12.7829 4.70593 12.4072 4.37402C12.2419 4.22797 12.1047 4.12472 12 4.05664C11.8953 4.1247 11.7581 4.22795 11.5928 4.37402C11.2171 4.70601 10.7826 5.16778 10.3594 5.65527C9.94043 6.13781 9.55077 6.62361 9.26466 6.99023C9.12218 7.17281 9.00664 7.32492 8.92677 7.43066C8.88683 7.48354 8.85561 7.52504 8.83497 7.55273C8.82469 7.56652 8.81656 7.57719 8.81153 7.58398C8.80932 7.58697 8.80776 7.58931 8.80665 7.59082L8.80567 7.59277C8.47827 8.03733 7.85191 8.13279 7.40723 7.80566C6.96264 7.47824 6.86712 6.8519 7.19434 6.40723H7.19532V6.40527C7.19574 6.4047 7.19661 6.40421 7.19727 6.40332C7.19896 6.40104 7.20201 6.3977 7.20509 6.39355C7.21125 6.38523 7.21994 6.37287 7.23145 6.35742C7.25448 6.32652 7.28842 6.28205 7.33106 6.22559C7.41638 6.11263 7.53854 5.95191 7.68848 5.75977C7.98764 5.37643 8.40041 4.86211 8.84962 4.34473C9.29445 3.83239 9.79464 3.29393 10.2676 2.87598C10.5029 2.66804 10.7554 2.46821 11.0088 2.31543C11.2348 2.17918 11.5897 2 12 2L12.1514 2.00781Z" fill="currentColor" />
    <path d="M11 11.3428V3.5C11 2.94782 11.4478 2.50017 12 2.5C12.5523 2.5 13 2.94772 13 3.5V11.3428C13 12.0787 13.0175 12.7253 12.7715 13.3193C12.5254 13.9134 12.0565 14.3586 11.5361 14.8789L4.70701 21.707C4.31648 22.0975 3.68347 22.0976 3.29295 21.707C2.90244 21.3165 2.90243 20.6835 3.29295 20.293L10.122 13.4648C10.757 12.8299 10.8653 12.6955 10.9238 12.5547C10.9822 12.4136 11 12.2419 11 11.3428Z" fill="currentColor" />
    <path d="M13.793 14.7929C14.1835 14.4024 14.8165 14.4024 15.207 14.7929L20.707 20.2929C21.0975 20.6834 21.0975 21.3164 20.707 21.707C20.3165 22.0975 19.6835 22.0975 19.293 21.707L13.793 16.207C13.4024 15.8164 13.4024 15.1834 13.793 14.7929Z" fill="currentColor" />
</svg>