<svg xmlns="http://www.w3.org/2000/svg" width="24" height="24" viewBox="0 0 24 24" fill="none">
    <path d="M22.25 12C22.25 17.6609 17.6609 22.25 12 22.25C10.2448 22.25 8.59046 21.8084 7.14453 21.0293C6.38511 20.6201 5.78228 20.6112 5.23633 20.7139C4.94458 20.7688 4.66731 20.8556 4.3584 20.9531L4.34096 20.9586C4.05379 21.0493 3.71649 21.1558 3.37793 21.207C2.95556 21.2709 2.5542 21.1147 2.2793 20.8398C1.8481 20.4083 1.80203 19.788 2.00293 19.3145L2.07617 19.1318C2.43613 18.1714 2.70956 16.5536 2.27148 15.2363C1.9329 14.2181 1.75 13.1296 1.75 12C1.75 6.33908 6.33908 1.75 12 1.75C17.6609 1.75 22.25 6.33908 22.25 12ZM15.6982 8.29199C15.3075 7.90209 14.6744 7.90247 14.2842 8.29297L11.999 10.5801L9.71582 8.29395C9.32555 7.90316 8.69254 7.9027 8.30176 8.29297C7.911 8.68324 7.91052 9.31626 8.30078 9.70703L10.5859 11.9951L8.29199 14.293C7.90201 14.6837 7.90255 15.3168 8.29297 15.707C8.68375 16.0973 9.31774 16.0968 9.70801 15.7061L11.999 13.4111L14.292 15.707C14.6823 16.0978 15.3162 16.0983 15.707 15.708C16.0978 15.3177 16.0983 14.6838 15.708 14.293L13.4131 11.9951L15.6992 9.70703C16.0895 9.31625 16.089 8.68226 15.6982 8.29199Z" fill="currentColor" />
</svg>