<svg xmlns="http://www.w3.org/2000/svg" width="24" height="24" viewBox="0 0 24 24" fill="none">
    <path d="M22.75 10.5C22.75 11.2795 22.7359 12.0409 22.71 12.7764L22.7022 13.0002C22.6276 15.1512 22.5764 16.6275 21.4023 17.8105C20.7921 18.4254 20.0995 18.7383 19.2588 18.9082C18.4718 19.0672 17.5089 19.1084 16.3415 19.1583L16.2754 19.1611C15.5355 19.1928 14.7696 19.2165 13.9834 19.2314C13.1863 19.2466 12.9733 19.2607 12.7988 19.3271C12.6239 19.3938 12.4615 19.5198 11.873 20.0244L9.69336 21.8936C9.4251 22.1236 9.08286 22.25 8.72949 22.25C7.91249 22.2498 7.25022 21.5875 7.25 20.7705V19.1396C6.26419 19.0959 5.43456 19.0483 4.74121 18.9082C3.90049 18.7383 3.20788 18.4254 2.59766 17.8105C1.4236 16.6275 1.37242 15.1512 1.29785 13.0002L1.29004 12.7764C1.26409 12.0409 1.25 11.2795 1.25 10.5C1.25 9.72053 1.26409 8.95905 1.29004 8.22363L1.29785 7.99977C1.37242 5.84878 1.4236 4.37252 2.59766 3.18945C3.20788 2.57464 3.90049 2.26171 4.74121 2.0918C5.5282 1.93276 6.49109 1.8916 7.65843 1.8417L7.72461 1.83887C9.0745 1.78112 10.5108 1.75 12 1.75C13.4892 1.75 14.9255 1.78112 16.2754 1.83887L16.3416 1.8417C17.5089 1.8916 18.4718 1.93276 19.2588 2.0918C20.0995 2.26171 20.7921 2.57464 21.4023 3.18945C22.5764 4.37252 22.6276 5.84879 22.7022 7.99979L22.71 8.22363C22.7359 8.95905 22.75 9.72053 22.75 10.5ZM18.5 11.4548L18.5 11.3984V8.5L18.5 8.45444C18.5001 8.02726 18.5001 7.61181 18.4541 7.26953C18.4026 6.88633 18.2773 6.44915 17.9141 6.08594C17.5508 5.72272 17.1137 5.59742 16.7305 5.5459C16.3882 5.49988 15.9728 5.49994 15.5456 5.5L15.5 5.5L15.4544 5.5C15.0273 5.49994 14.6118 5.49988 14.2695 5.5459C13.8863 5.59742 13.4492 5.72272 13.0859 6.08594C12.7227 6.44915 12.5974 6.88633 12.5459 7.26953C12.4999 7.61179 12.4999 8.02722 12.5 8.45438L12.5 8.5L12.5 8.5456C12.4999 8.97276 12.4999 9.38821 12.5459 9.73047C12.5974 10.1137 12.7227 10.5508 13.0859 10.9141C13.4492 11.2773 13.8863 11.4026 14.2695 11.4541C14.6118 11.5001 15.0272 11.5001 15.4544 11.5L15.5 11.5H16.5C16.4998 11.9716 16.4978 12.2858 16.4795 12.5293C16.4607 12.7789 16.4293 12.8732 16.4082 12.9189C16.3086 13.1347 16.1347 13.3086 15.9189 13.4082C15.8732 13.4293 15.7789 13.4607 15.5293 13.4795C15.2687 13.4991 14.9272 13.5 14.3984 13.5C13.8462 13.5 13.3984 13.9477 13.3984 14.5C13.3984 15.0523 13.8462 15.5 14.3984 15.5L14.4549 15.5C14.9293 15.5 15.3393 15.5001 15.6787 15.4746C16.0418 15.4473 16.4045 15.3868 16.7578 15.2236C17.4051 14.9247 17.9247 14.4051 18.2236 13.7578C18.3868 13.4045 18.4473 13.0418 18.4746 12.6787C18.5001 12.3393 18.5 11.9293 18.5 11.4548ZM11.5 11.4549L11.5 11.3984V8.5L11.5 8.45442C11.5001 8.02725 11.5001 7.6118 11.4541 7.26953C11.4026 6.88633 11.2773 6.44915 10.9141 6.08594C10.5508 5.72272 10.1137 5.59742 9.73047 5.5459C9.3882 5.49988 8.97277 5.49994 8.5456 5.5L8.5 5.5L8.45442 5.5C8.02725 5.49994 7.6118 5.49988 7.26953 5.5459C6.88633 5.59742 6.44915 5.72272 6.08594 6.08594C5.72272 6.44915 5.59742 6.88633 5.5459 7.26953C5.49988 7.6118 5.49994 8.02725 5.5 8.45442L5.5 8.5L5.5 8.54558C5.49999 8.57228 5.49999 8.59893 5.5 8.62552C5.50011 9.02439 5.50276 9.40959 5.5459 9.73047C5.59742 10.1137 5.72272 10.5508 6.08594 10.9141C6.44915 11.2773 6.88633 11.4026 7.26953 11.4541C7.6118 11.5001 8.02725 11.5001 8.45442 11.5L8.5 11.5H9.5C9.49985 11.9716 9.49778 12.2858 9.47949 12.5293C9.46074 12.7789 9.42927 12.8732 9.4082 12.9189C9.30856 13.1347 9.13473 13.3086 8.91895 13.4082C8.8732 13.4293 8.77888 13.4607 8.5293 13.4795C8.26871 13.4991 7.92722 13.5 7.39844 13.5C6.84615 13.5 6.39844 13.9477 6.39844 14.5C6.39844 15.0523 6.84615 15.5 7.39844 15.5L7.45487 15.5C7.92928 15.5 8.33934 15.5001 8.67871 15.4746C9.04183 15.4473 9.40446 15.3868 9.75781 15.2236C10.4051 14.9247 10.9247 14.4051 11.2236 13.7578C11.3868 13.4045 11.4473 13.0418 11.4746 12.6787C11.5001 12.3393 11.5 11.9293 11.5 11.4549Z" fill="currentColor" />
    <path fill-rule="evenodd" clip-rule="evenodd" d="M16.4727 7.53613C16.4982 7.72632 16.5 8.0005 16.5 8.5V9.5H15.5C15.0005 9.5 14.7263 9.4982 14.5361 9.47266C14.5346 9.47057 14.5273 9.46387 14.5273 9.46387C14.5018 9.27368 14.5 8.9995 14.5 8.5C14.5 8.0005 14.5018 7.72632 14.5273 7.53613C14.5294 7.53459 14.5361 7.52734 14.5361 7.52734C14.7263 7.5018 15.0005 7.5 15.5 7.5C15.9995 7.5 16.2737 7.5018 16.4639 7.52734C16.4639 7.52734 16.471 7.53399 16.4727 7.53613Z" fill="currentColor" />
    <path fill-rule="evenodd" clip-rule="evenodd" d="M9.47266 7.53613C9.4982 7.72632 9.5 8.0005 9.5 8.5V9.5H8.5C8.0005 9.5 7.72632 9.4982 7.53613 9.47266C7.5346 9.47057 7.52734 9.46387 7.52734 9.46387C7.5018 9.27368 7.5 8.9995 7.5 8.5C7.5 8.0005 7.5018 7.72632 7.52734 7.53613C7.52943 7.53459 7.53613 7.52734 7.53613 7.52734C7.72632 7.5018 8.0005 7.5 8.5 7.5C8.9995 7.5 9.27368 7.5018 9.46387 7.52734C9.46387 7.52734 9.47099 7.53399 9.47266 7.53613Z" fill="currentColor" />
</svg>