<svg xmlns="http://www.w3.org/2000/svg" width="24" height="24" viewBox="0 0 24 24" fill="none">
    <path d="M12 1.75C13.4892 1.75 14.9255 1.78112 16.2754 1.83887L16.3418 1.8418C17.509 1.89169 18.4719 1.93277 19.2588 2.0918C20.0995 2.26171 20.7921 2.57464 21.4023 3.18945C22.6167 4.41312 22.6298 5.95045 22.71 8.22363C22.7359 8.95905 22.75 9.72053 22.75 10.5C22.75 11.2795 22.7359 12.0409 22.71 12.7764C22.6298 15.0495 22.6167 16.5869 21.4023 17.8105C20.7921 18.4254 20.0995 18.7383 19.2588 18.9082C18.4718 19.0672 17.5091 19.1083 16.3418 19.1582L16.2754 19.1611C15.5355 19.1928 14.7696 19.2165 13.9834 19.2314C13.1863 19.2466 12.9733 19.2607 12.7988 19.3271C12.6239 19.3938 12.4615 19.5198 11.873 20.0244L9.69336 21.8936C9.4251 22.1236 9.08286 22.25 8.72949 22.25C7.91249 22.2498 7.25022 21.5875 7.25 20.7705V19.1396C6.26419 19.0959 5.43456 19.0483 4.74121 18.9082C3.90049 18.7383 3.20788 18.4254 2.59766 17.8105C1.38331 16.5869 1.37023 15.0495 1.29004 12.7764C1.26409 12.0409 1.25 11.2795 1.25 10.5C1.25 9.72053 1.26409 8.95905 1.29004 8.22363C1.37023 5.95046 1.38331 4.41312 2.59766 3.18945C3.20788 2.57464 3.90049 2.26171 4.74121 2.0918C5.52815 1.93277 6.49097 1.89169 7.6582 1.8418L7.72461 1.83887C9.0745 1.78112 10.5108 1.75 12 1.75ZM8.00781 9.5C7.45553 9.5 7.00781 9.94771 7.00781 10.5C7.00781 11.0523 7.45553 11.5 8.00781 11.5H8.0166L8.11914 11.4951C8.62334 11.4439 9.0166 11.0177 9.0166 10.5C9.0166 9.98227 8.62334 9.55615 8.11914 9.50488L8.0166 9.5H8.00781ZM12.0029 9.5C11.4508 9.50019 11.0029 9.94783 11.0029 10.5C11.0029 11.0522 11.4508 11.4998 12.0029 11.5H12.0127C12.5648 11.4998 13.0127 11.0521 13.0127 10.5C13.0127 9.94785 12.5648 9.50022 12.0127 9.5H12.0029ZM15.999 9.5C15.4467 9.5 14.999 9.94771 14.999 10.5C14.999 11.0523 15.4467 11.5 15.999 11.5H16.0078C16.5601 11.5 17.0078 11.0523 17.0078 10.5C17.0078 9.94773 16.5601 9.50002 16.0078 9.5H15.999Z" fill="currentColor" />
</svg>