<svg xmlns="http://www.w3.org/2000/svg" width="24" height="24" viewBox="0 0 24 24" fill="none">
    <path d="M22.75 10.5C22.75 11.2795 22.7359 12.0409 22.71 12.7764L22.7022 13.0002C22.6276 15.1512 22.5764 16.6275 21.4023 17.8105C20.7921 18.4254 20.0995 18.7383 19.2588 18.9082C18.4718 19.0672 17.5089 19.1084 16.3415 19.1583L16.2754 19.1611C15.5355 19.1928 14.7696 19.2165 13.9834 19.2314C13.1863 19.2466 12.9733 19.2607 12.7988 19.3271C12.6239 19.3938 12.4615 19.5198 11.873 20.0244L9.69336 21.8936C9.4251 22.1236 9.08286 22.25 8.72949 22.25C7.91249 22.2498 7.25022 21.5875 7.25 20.7705V19.1396C6.26419 19.0959 5.43456 19.0483 4.74121 18.9082C3.90049 18.7383 3.20788 18.4254 2.59766 17.8105C1.4236 16.6275 1.37242 15.1512 1.29785 13.0002L1.29004 12.7764C1.26409 12.0409 1.25 11.2795 1.25 10.5C1.25 9.72053 1.26409 8.95905 1.29004 8.22363L1.29785 7.99977C1.37242 5.84878 1.4236 4.37252 2.59766 3.18945C3.20788 2.57464 3.90049 2.26171 4.74121 2.0918C5.5282 1.93276 6.49109 1.8916 7.65843 1.8417L7.72461 1.83887C9.0745 1.78112 10.5108 1.75 12 1.75C13.4892 1.75 14.9255 1.78112 16.2754 1.83887L16.3416 1.8417C17.5089 1.8916 18.4718 1.93276 19.2588 2.0918C20.0995 2.26171 20.7921 2.57464 21.4023 3.18945C22.5764 4.37252 22.6276 5.84879 22.7022 7.99979L22.71 8.22363C22.7359 8.95905 22.75 9.72053 22.75 10.5ZM14.9834 11.9736C14.9996 12.2106 15 12.5203 15 13C15 13.5522 15.4477 14 16 14C16.5523 14 17 13.5522 17 13V12.977C17 12.5347 17 12.1532 16.9785 11.8378C16.956 11.508 16.9065 11.1774 16.7715 10.8515C16.467 10.1167 15.8832 9.53296 15.1484 9.22847C14.8225 9.09347 14.4919 9.04395 14.1621 9.02144C13.8468 8.99995 13.4655 8.99995 13.0233 8.99996H13H9.10938C9.11323 8.99659 9.11706 8.99318 9.12087 8.98976C9.12434 8.98664 9.1278 8.98351 9.13125 8.98038C9.1392 8.97319 9.14717 8.96598 9.15527 8.95894C9.5128 8.64852 9.87361 8.35842 10.1465 8.14547C10.2822 8.03954 10.3952 7.95371 10.4736 7.89449L10.5928 7.80562C11.0375 7.47811 11.1322 6.85188 10.8047 6.40719C10.4773 5.96268 9.8509 5.86813 9.40625 6.19527L9.39648 6.20308L9.36914 6.22359L9.35198 6.23636C9.35012 6.23775 9.34541 6.24125 9.34346 6.2427C9.33942 6.24571 9.3352 6.24885 9.3308 6.25212C9.31286 6.26549 9.292 6.28108 9.26855 6.29879C9.18294 6.36345 9.06134 6.45588 8.91602 6.56929C8.62647 6.79526 8.23707 7.10756 7.84473 7.4482C7.45739 7.78451 7.04392 8.16827 6.71973 8.53511C6.55861 8.71746 6.39791 8.91979 6.27246 9.12789C6.16356 9.30855 6.00001 9.6227 6 9.99996C6 10.3772 6.16356 10.6914 6.27246 10.872C6.39791 11.0801 6.55861 11.2825 6.71973 11.4648C7.04393 11.8317 7.45737 12.2154 7.84473 12.5517C8.23707 12.8924 8.62647 13.2047 8.91602 13.4306C9.06133 13.544 9.18294 13.6365 9.26855 13.7011C9.30209 13.7265 9.33032 13.7475 9.35231 13.7638C9.35841 13.7683 9.36402 13.7725 9.36914 13.7763L9.39648 13.7968L9.40723 13.8056C9.8519 14.1328 10.4782 14.0373 10.8057 13.5927C11.1328 13.1481 11.0315 12.5178 10.5869 12.1904L10.4736 12.1054C10.3952 12.0462 10.2822 11.9604 10.1465 11.8545C9.87361 11.6415 9.51281 11.3514 9.15527 11.041C9.14719 11.034 9.13926 11.0268 9.13134 11.0196C9.12412 11.0131 9.11669 11.0064 9.10938 11H13C13.4796 11 13.7894 11.0004 14.0264 11.0166C14.2543 11.0321 14.3412 11.0589 14.3828 11.0761C14.6277 11.1776 14.8223 11.3722 14.9238 11.6171C14.9411 11.6588 14.9678 11.7456 14.9834 11.9736Z" fill="currentColor" />
</svg>