<svg xmlns="http://www.w3.org/2000/svg" width="24" height="24" viewBox="0 0 24 24" fill="none">
    <path fill-rule="evenodd" clip-rule="evenodd" d="M12 22.25C17.6609 22.25 22.25 17.6609 22.25 12C22.25 6.33908 17.6609 1.75 12 1.75C6.33908 1.75 1.75 6.33908 1.75 12C1.75 13.1296 1.9329 14.2181 2.27148 15.2363C2.70956 16.5536 2.43613 18.1714 2.07617 19.1318L2.00293 19.3145C1.80203 19.788 1.8481 20.4083 2.2793 20.8398C2.5542 21.1147 2.95556 21.2709 3.37793 21.207C3.71649 21.1558 4.05379 21.0493 4.34096 20.9586L4.3584 20.9531C4.66731 20.8556 4.94458 20.7688 5.23633 20.7139C5.78228 20.6112 6.38511 20.6201 7.14453 21.0293C8.59046 21.8084 10.2448 22.25 12 22.25ZM8.52284 11.3336C8.51515 11.3333 8.50715 11.333 8.5 11.333C7.94782 11.333 7.50018 11.7809 7.5 12.333C7.5 12.85 7.89237 13.2749 8.39551 13.3271C8.41145 13.3327 8.45141 13.3481 8.51074 13.3857C8.663 13.4824 8.99098 13.7539 9.36426 14.4648C9.52824 14.7772 9.84499 14.9804 10.1973 14.999C10.5495 15.0175 10.8862 14.849 11.082 14.5557L11.0869 14.5469L11.1074 14.5166C11.1263 14.4889 11.1554 14.4469 11.1934 14.3926C11.2695 14.2837 11.3829 14.1252 11.5264 13.9316C11.8141 13.5434 12.2218 13.0189 12.7012 12.4717C13.1823 11.9224 13.7234 11.3639 14.2783 10.9004C14.8428 10.4289 15.3693 10.0991 15.8193 9.94727C16.3426 9.77077 16.6237 9.20394 16.4473 8.68066C16.2708 8.1574 15.7039 7.87633 15.1807 8.05273C14.3954 8.3176 13.6475 8.82113 12.9961 9.36523C12.3352 9.91724 11.7187 10.5569 11.1963 11.1533C10.8451 11.5542 10.532 11.943 10.2695 12.2812C10.0367 12.0307 9.80661 11.8392 9.58301 11.6973C9.33266 11.5383 9.10341 11.4463 8.91309 11.3945C8.81855 11.3688 8.73485 11.3536 8.66504 11.3447C8.63026 11.3403 8.59888 11.3376 8.57129 11.3359C8.55766 11.3351 8.54497 11.3343 8.5332 11.334L8.52284 11.3336Z" fill="currentColor" />
</svg>