<svg xmlns="http://www.w3.org/2000/svg" width="24" height="24" viewBox="0 0 24 24" fill="none">
    <path d="M11.8762 20.25C12.4285 20.25 12.8762 20.6977 12.8762 21.25C12.8762 21.8023 12.4285 22.25 11.8762 22.25H5.87622C5.32394 22.25 4.87622 21.8023 4.87622 21.25C4.87622 20.6977 5.32394 20.25 5.87622 20.25H11.8762Z" fill="currentColor" />
    <path d="M15.8799 1.75L15.8225 1.75L9.87622 1.75001V3.25V9.75V11.25H15.8235L15.8816 11.25C16.3726 11.25 16.7754 11.2501 17.0891 11.2315C17.3972 11.2132 17.7352 11.1735 18.0237 11.0273C18.8958 10.5853 19.3348 9.58348 19.0305 8.64356C18.9297 8.3324 18.7134 8.06718 18.509 7.84278C18.2964 7.60931 18.0049 7.32605 17.6502 6.98131L17.6262 6.95801C17.4822 6.81806 17.3961 6.73414 17.3352 6.66797C17.3025 6.63246 17.2873 6.61253 17.2815 6.6045C17.2472 6.53814 17.2472 6.46187 17.2815 6.39551C17.2873 6.3875 17.3025 6.3676 17.3352 6.33204C17.3961 6.26587 17.4822 6.18196 17.6262 6.042L17.6502 6.01866C18.0049 5.67395 18.2964 5.39068 18.509 5.15723C18.7134 4.93283 18.9297 4.66761 19.0305 4.35645C19.3348 3.41653 18.8958 2.41469 18.0237 1.97266C17.7352 1.8265 17.3972 1.78683 17.0891 1.76856C16.7751 1.74995 16.3714 1.74997 15.8799 1.75Z" fill="currentColor" />
    <path fill-rule="evenodd" clip-rule="evenodd" d="M9.87622 1.75001L8.62622 1.75C8.21201 1.75 7.87622 2.08579 7.87622 2.5V21.2501C7.87627 21.8023 8.32397 22.2501 8.87622 22.2501C9.42847 22.2501 9.87617 21.8023 9.87622 21.2501V11.25V9.75V3.25V1.75001Z" fill="currentColor" />
</svg>