<svg xmlns="http://www.w3.org/2000/svg" width="24" height="24" viewBox="0 0 24 24" fill="none">
    <path d="M22.75 12C22.75 17.9371 17.9371 22.75 12 22.75C6.06294 22.75 1.25 17.9371 1.25 12C1.25 6.06294 6.06294 1.25 12 1.25C17.9371 1.25 22.75 6.06294 22.75 12ZM13.707 5.79297C13.3165 5.40244 12.6835 5.40244 12.293 5.79297L5.79297 12.293C5.40244 12.6835 5.40244 13.3165 5.79297 13.707C6.18349 14.0976 6.81651 14.0976 7.20703 13.707L13.707 7.20703C14.0976 6.81651 14.0976 6.18349 13.707 5.79297ZM9.70703 5.29297C9.31651 4.90244 8.68349 4.90244 8.29297 5.29297L5.29297 8.29297C4.90244 8.68349 4.90244 9.31651 5.29297 9.70703C5.68349 10.0976 6.31651 10.0976 6.70703 9.70703L9.70703 6.70703C10.0976 6.31651 10.0976 5.68349 9.70703 5.29297Z" fill="currentColor" />
</svg>