<svg xmlns="http://www.w3.org/2000/svg" width="24" height="24" viewBox="0 0 24 24" fill="none">
    <path d="M16 19.75C16.5523 19.75 17 20.1977 17 20.75C17 21.3023 16.5523 21.75 16 21.75H8C7.44772 21.75 7 21.3023 7 20.75C7 20.1977 7.44772 19.75 8 19.75H16Z" fill="currentColor" />
    <path fill-rule="evenodd" clip-rule="evenodd" d="M11 17.75H9V20.75H11V17.75ZM15 17.75H13V20.75H15V17.75Z" fill="currentColor" />
    <path d="M16.0547 2.25C17.4222 2.24998 18.5247 2.24968 19.3916 2.36621C20.2917 2.48723 21.0494 2.74672 21.6514 3.34863C22.2533 3.95055 22.5128 4.70829 22.6338 5.6084C22.7503 6.47534 22.75 7.57782 22.75 8.94531V11.0547C22.75 12.4222 22.7503 13.5247 22.6338 14.3916C22.5128 15.2917 22.2533 16.0495 21.6514 16.6514C21.0494 17.2533 20.2917 17.5128 19.3916 17.6338C18.5247 17.7503 17.4222 17.75 16.0547 17.75H7.94531C6.57782 17.75 5.47534 17.7503 4.6084 17.6338C3.70829 17.5128 2.95055 17.2533 2.34863 16.6514C1.74672 16.0495 1.48723 15.2917 1.36621 14.3916C1.24968 13.5247 1.24998 12.4222 1.25 11.0547V8.94531C1.24998 7.57783 1.24968 6.47533 1.36621 5.6084C1.48723 4.70829 1.74672 3.95055 2.34863 3.34863C2.95055 2.74672 3.70829 2.48723 4.6084 2.36621C5.47533 2.24968 6.57783 2.24998 7.94531 2.25H16.0547ZM12 6C11.4478 6.00005 11 6.44774 11 7V10.8916L9.80566 9.40723C9.47813 8.96262 8.85189 8.86782 8.40723 9.19531C7.96263 9.52285 7.86783 10.1481 8.19531 10.5928L8.19727 10.5967C8.26462 10.6859 8.4575 10.9407 8.56934 11.084C8.7953 11.3735 9.1076 11.7629 9.44824 12.1553C9.78469 12.5428 10.1692 12.956 10.5361 13.2803C10.7185 13.4414 10.9199 13.6021 11.1279 13.7275C11.3086 13.8364 11.6227 14 12 14C12.3772 14 12.6914 13.8364 12.8721 13.7275C13.0802 13.6021 13.2825 13.4414 13.4648 13.2803C13.8317 12.9561 14.2154 12.5426 14.5518 12.1553C14.8924 11.7629 15.2047 11.3735 15.4307 11.084C15.5426 10.9406 15.7355 10.6857 15.8027 10.5967L15.8047 10.5928C16.1322 10.1481 16.0375 9.52183 15.5928 9.19434C15.1481 8.86722 14.5227 8.96275 14.1953 9.40723C13.9824 9.68011 13.3104 10.534 13 10.8916V7C13 6.44772 12.5523 6 12 6Z" fill="currentColor" />
</svg>