<svg xmlns="http://www.w3.org/2000/svg" width="24" height="24" viewBox="0 0 24 24" fill="none">
    <path fill-rule="evenodd" clip-rule="evenodd" d="M22.75 11.0645V11V9V8.93545C22.75 7.57243 22.7501 6.47329 22.6338 5.6084C22.5128 4.70829 22.2533 3.95055 21.6514 3.34863C21.0495 2.74672 20.2917 2.48723 19.3916 2.36621C18.5267 2.24995 17.4275 2.24997 16.0644 2.25H16H8H7.93562C6.57252 2.24997 5.47333 2.24995 4.6084 2.36621C3.70829 2.48723 2.95055 2.74672 2.34863 3.34863C1.74672 3.95055 1.48723 4.70829 1.36621 5.6084C1.24995 6.47333 1.24997 7.57252 1.25 8.93562V9V11V11.0644C1.24997 12.4275 1.24995 13.5267 1.36621 14.3916C1.48723 15.2917 1.74672 16.0495 2.34863 16.6514C2.95055 17.2533 3.70829 17.5128 4.6084 17.6338C5.47331 17.7501 6.57251 17.75 7.93557 17.75H8H16H16.0645C17.4275 17.75 18.5267 17.7501 19.3916 17.6338C20.2917 17.5128 21.0495 17.2533 21.6514 16.6514C22.2533 16.0495 22.5128 15.2917 22.6338 14.3916C22.7501 13.5267 22.75 12.4275 22.75 11.0645ZM14.293 6.29297C14.6835 5.90245 15.3165 5.90245 15.707 6.29297C16.0976 6.6835 16.0976 7.31651 15.707 7.70703L13.4141 10L15.707 12.293C16.0976 12.6835 16.0976 13.3165 15.707 13.707C15.3165 14.0976 14.6835 14.0976 14.293 13.707L12 11.4141L9.70703 13.707C9.31651 14.0976 8.68349 14.0976 8.29297 13.707C7.90245 13.3165 7.90245 12.6835 8.29297 12.293L10.5859 10L8.29297 7.70703C7.90245 7.31651 7.90245 6.6835 8.29297 6.29297C8.68349 5.90245 9.31651 5.90245 9.70703 6.29297L12 8.58594L14.293 6.29297Z" fill="currentColor" />
    <path d="M16 19.75C16.5523 19.75 17 20.1977 17 20.75C17 21.3023 16.5523 21.75 16 21.75H8C7.44772 21.75 7 21.3023 7 20.75C7 20.1977 7.44772 19.75 8 19.75H16Z" fill="currentColor" />
    <path d="M11 16.75V20.75H9V16.75H11ZM15 16.75V20.75H13V16.75H15Z" fill="currentColor" />
</svg>