<svg xmlns="http://www.w3.org/2000/svg" width="24" height="24" viewBox="0 0 24 24" fill="none">
    <path d="M16 19.75C16.5523 19.75 17 20.1977 17 20.75C17 21.3023 16.5523 21.75 16 21.75H8C7.44772 21.75 7 21.3023 7 20.75C7 20.1977 7.44772 19.75 8 19.75H16Z" fill="currentColor" />
    <path fill-rule="evenodd" clip-rule="evenodd" d="M11 17.75H9V20.75H11V17.75ZM15 17.75H13V20.75H15V17.75Z" fill="currentColor" />
    <path d="M16.0547 2.25C17.4222 2.24998 18.5247 2.24968 19.3916 2.36621C20.2917 2.48723 21.0494 2.74672 21.6514 3.34863C22.2533 3.95055 22.5128 4.70829 22.6338 5.6084C22.7503 6.47534 22.75 7.57782 22.75 8.94531V11.0547C22.75 12.4222 22.7503 13.5247 22.6338 14.3916C22.5128 15.2917 22.2533 16.0495 21.6514 16.6514C21.0494 17.2533 20.2917 17.5128 19.3916 17.6338C18.5247 17.7503 17.4222 17.75 16.0547 17.75H7.94531C6.57782 17.75 5.47534 17.7503 4.6084 17.6338C3.70829 17.5128 2.95055 17.2533 2.34863 16.6514C1.74672 16.0495 1.48723 15.2917 1.36621 14.3916C1.24968 13.5247 1.24998 12.4222 1.25 11.0547V8.94531C1.24998 7.57783 1.24968 6.47533 1.36621 5.6084C1.48723 4.70829 1.74672 3.95055 2.34863 3.34863C2.95055 2.74672 3.70829 2.48723 4.6084 2.36621C5.47533 2.24968 6.57783 2.24998 7.94531 2.25H16.0547ZM12 6C11.6228 6 11.3086 6.16356 11.1279 6.27246C10.9198 6.39791 10.7175 6.55861 10.5352 6.71973C10.1683 7.04393 9.78456 7.45737 9.44824 7.84473C9.10761 8.23707 8.7953 8.62646 8.56934 8.91602C8.45744 9.0594 8.26451 9.31428 8.19727 9.40332L8.19531 9.40723C7.86787 9.85192 7.96255 10.4782 8.40723 10.8057C8.85187 11.1328 9.47725 11.0373 9.80469 10.5928C10.0176 10.3199 10.6895 9.466 11 9.1084V13C11 13.5523 11.4477 14 12 14C12.5523 14 13 13.5523 13 13V9.1084L14.1943 10.5928C14.5219 11.0374 15.1481 11.1322 15.5928 10.8047C16.0374 10.4772 16.1322 9.85189 15.8047 9.40723L15.8027 9.40332C15.7354 9.31415 15.5425 9.05932 15.4307 8.91602C15.2047 8.62647 14.8924 8.23707 14.5518 7.84473C14.2154 7.45739 13.8317 7.04392 13.4648 6.71973C13.2825 6.55861 13.0802 6.39791 12.8721 6.27246C12.6914 6.16356 12.3773 6.00001 12 6Z" fill="currentColor" />
</svg>