<svg xmlns="http://www.w3.org/2000/svg" width="24" height="24" viewBox="0 0 24 24" fill="none">
    <path d="M2.88375 2.88393C3.64149 2.12618 4.6895 2.15995 5.75972 2.41127C6.83718 2.66432 8.2419 3.21401 10.008 3.9051L10.0761 3.93178L16.1093 6.29213L16.1615 6.31254C17.8547 6.97507 19.1991 7.50114 20.1064 8.00112C20.5658 8.25431 20.9741 8.53241 21.2675 8.8644C21.5784 9.21626 21.7741 9.6475 21.747 10.1535C21.7199 10.6612 21.4769 11.0694 21.1289 11.3859C20.8002 11.6846 20.3627 11.9187 19.8759 12.1222C18.9209 12.5215 17.5314 12.9004 15.7812 13.3777L15.6904 13.4025C15.1358 13.5537 14.7713 13.6543 14.496 13.7589C14.2359 13.8578 14.1125 13.9404 14.0263 14.0265C13.9402 14.1126 13.8577 14.2361 13.7587 14.4962C13.6541 14.7715 13.5535 15.136 13.4023 15.6906L13.3776 15.7813C12.9003 17.5315 12.5213 18.9211 12.122 19.8761C11.9185 20.3629 11.6844 20.8004 11.3857 21.129C11.0693 21.477 10.661 21.7201 10.1533 21.7472C9.64732 21.7742 9.21607 21.5786 8.86421 21.2677C8.53223 20.9743 8.25412 20.566 8.00093 20.1066C7.50096 19.1993 6.97488 17.8548 6.31236 16.1617L6.29195 16.1095L3.9316 10.0763L3.90493 10.0082C3.21383 8.24209 2.66414 6.83737 2.41109 5.75991C2.15977 4.68968 2.126 3.64168 2.88375 2.88393Z" fill="currentColor" />
</svg>