<svg xmlns="http://www.w3.org/2000/svg" width="24" height="24" viewBox="0 0 24 24" fill="none">
    <path d="M15.4998 4.00073C15.4998 5.51952 16.731 6.75073 18.2498 6.75073C19.7686 6.75073 20.9998 5.51952 20.9998 4.00073C20.9998 2.48195 19.7686 1.25073 18.2498 1.25073C16.731 1.25073 15.4998 2.48195 15.4998 4.00073Z" fill="currentColor" />
    <path fill-rule="evenodd" clip-rule="evenodd" d="M4.61247 4.54665C5.89239 2.48315 8.02669 1.25073 11.2499 1.25073C12.6436 1.25073 13.8338 1.48118 14.8393 1.90962C14.4654 2.51808 14.2498 3.23423 14.2498 4.00073C14.2498 6.20987 16.0407 8.00073 18.2498 8.00073C18.5566 8.00073 18.8554 7.96619 19.1424 7.90078C19.4023 9.18835 19.4998 10.5801 19.4998 12.0007C19.4998 14.7855 19.125 17.4592 17.8872 19.4548C16.6073 21.5183 14.473 22.7507 11.2499 22.7507C8.02669 22.7507 5.89239 21.5183 4.61247 19.4548C3.37467 17.4592 2.99982 14.7855 2.99982 12.0007C2.99982 9.216 3.37467 6.54225 4.61247 4.54665ZM10.2498 6.00073C10.2498 5.44845 10.6975 5.00073 11.2498 5.00073C11.8021 5.00073 12.2498 5.44845 12.2498 6.00073V9.00073C12.2498 9.55302 11.8021 10.0007 11.2498 10.0007C10.6975 10.0007 10.2498 9.55302 10.2498 9.00073V6.00073Z" fill="currentColor" />
</svg>