<svg xmlns="http://www.w3.org/2000/svg" width="24" height="24" viewBox="0 0 24 24" fill="none">
    <path d="M2 2L22 22" stroke="currentColor" stroke-width="2" stroke-linecap="round" />
    <path d="M18.9336 18.9336C18.841 19.1117 18.7424 19.2853 18.6377 19.4541C17.3578 21.5176 15.2231 22.75 12 22.75C8.77684 22.75 6.64221 21.5176 5.3623 19.4541C4.12459 17.4585 3.75 14.7847 3.75 12C3.75 9.45089 4.06384 6.99448 5.06641 5.06641L18.9336 18.9336ZM12 1.25C15.2231 1.25001 17.3578 2.48241 18.6377 4.5459C19.8754 6.54148 20.25 9.21533 20.25 12C20.25 13.6067 20.1256 15.1767 19.7822 16.6006L12.792 9.61035C12.9223 9.44147 13 9.22984 13 9V6C13 5.44772 12.5523 5 12 5C11.4477 5 11 5.44772 11 6V7.81836L6.41211 3.23145C7.70815 1.97047 9.5362 1.25 12 1.25Z" fill="currentColor" />
</svg>