<svg xmlns="http://www.w3.org/2000/svg" width="24" height="24" viewBox="0 0 24 24" fill="none">
    <path d="M13.904 3.21531C15.8567 1.26254 19.022 1.26254 20.9748 3.21531C22.9276 5.16808 22.9276 8.33339 20.9748 10.2862C19.022 12.2389 15.8567 12.2389 13.904 10.2862C11.9512 8.33339 11.9512 5.16808 13.904 3.21531ZM16.1473 9.45602C17.2625 9.98864 18.637 9.79564 19.5606 8.87199C20.4843 7.94834 20.6773 6.57382 20.1447 5.45864L16.1473 9.45602ZM18.7305 4.04447C17.6155 3.51255 16.2415 3.70615 15.3181 4.62948C14.3948 5.5528 14.2012 6.92688 14.7331 8.04185L18.7305 4.04447Z" fill="currentColor" />
    <path d="M18.4912 13.0611C17.4169 13.2306 16.3072 13.1225 15.2778 12.7368C14.4574 12.4294 13.688 11.9456 13.0281 11.2855C12.2968 10.5541 11.782 9.6882 11.4837 8.76746C11.2994 8.19856 11.1977 7.60872 11.1786 7.01672L8.71583 6.05277L8.66201 6.03171C7.07231 5.40947 5.79969 4.91135 4.82167 4.68156C3.85385 4.4542 2.87011 4.41417 2.15507 5.1294C1.44002 5.84463 1.48004 6.82862 1.70734 7.7967C1.93707 8.77498 2.43506 10.0479 3.05714 11.638L3.0782 11.6919L5.20219 17.1214L5.22498 17.1796C5.818 18.6956 6.29209 19.9075 6.74404 20.7279C6.97365 21.1446 7.23017 21.522 7.53967 21.7956C7.86908 22.0866 8.27778 22.2741 8.75932 22.2484C9.24266 22.2224 9.62942 21.9899 9.92559 21.6641C10.204 21.3577 10.419 20.9529 10.6036 20.5114C10.9662 19.6438 11.3097 18.3837 11.7398 16.8062L11.759 16.7358C11.8955 16.2353 11.9849 15.912 12.0773 15.6691C12.1638 15.4413 12.2325 15.3418 12.2986 15.2756C12.3648 15.2095 12.4643 15.1408 12.692 15.0542C12.9349 14.9618 13.2581 14.8723 13.7585 14.7358L13.8289 14.7166C15.4059 14.2864 16.6657 13.9428 17.533 13.5801C17.8865 13.4323 18.2165 13.2649 18.4912 13.0611Z" fill="currentColor" />
</svg>