<svg xmlns="http://www.w3.org/2000/svg" width="24" height="24" viewBox="0 0 24 24" fill="none">
    <path d="M15.3573 4.06655C16.0576 4.00869 16.7931 3.97628 17.4325 4.02749C17.7527 4.05315 18.08 4.10212 18.3818 4.1935C18.6384 4.27122 18.932 4.39633 19.1864 4.61147L19.2929 4.70913L19.3905 4.81557C19.6057 5.07007 19.7308 5.36363 19.8085 5.62026C19.8999 5.92207 19.9489 6.24926 19.9745 6.56948C20.0258 7.20897 19.9933 7.94438 19.9355 8.64468C19.8771 9.35071 19.7879 10.0674 19.7157 10.6681C19.6401 11.2974 19.5896 11.7538 19.5859 12.0167C19.5778 12.5688 19.1233 13.0099 18.5712 13.0021C18.0192 12.9941 17.578 12.5396 17.5859 11.9874C17.5915 11.5937 17.6602 11.0131 17.7304 10.4289C17.8041 9.81583 17.8877 9.14045 17.9423 8.47964C17.9734 8.10328 17.991 7.74575 17.996 7.42007L5.70793 19.7091C5.31741 20.0997 4.68439 20.0997 4.29387 19.7091C3.90335 19.3186 3.90335 18.6856 4.29387 18.2951L16.5829 6.00503C16.2568 6.01005 15.8983 6.02857 15.5214 6.05971C14.8606 6.11433 14.1852 6.19797 13.5722 6.27163C12.9881 6.34181 12.4082 6.41052 12.0146 6.41616C11.4625 6.424 11.008 5.98284 10.9999 5.43081C10.9921 4.87871 11.4332 4.42422 11.9853 4.41616C12.2483 4.41242 12.7046 4.36092 13.3339 4.2853C13.9347 4.21312 14.6513 4.12489 15.3573 4.06655Z" fill="currentColor" />
</svg>