<svg xmlns="http://www.w3.org/2000/svg" width="24" height="24" viewBox="0 0 24 24" fill="none">
    <path d="M10.9999 4.00093C10.9999 3.44874 11.4478 3.00108 11.9999 3.00093C12.5522 3.00093 12.9999 3.44865 12.9999 4.00093V18.2119C13.2827 17.9299 13.5852 17.5972 13.8935 17.2334C14.3548 16.6889 14.8056 16.1118 15.2148 15.5908C15.6061 15.0926 15.9919 14.6033 16.2831 14.3037C16.6681 13.908 17.3013 13.8993 17.6972 14.2841C18.093 14.6691 18.1016 15.3022 17.7167 15.6982C17.5165 15.9042 17.2063 16.2934 16.787 16.8271C16.3857 17.3381 15.9102 17.9476 15.4199 18.5263C14.9329 19.101 14.4016 19.6803 13.8818 20.123C13.6216 20.3446 13.3409 20.5525 13.0488 20.7089C12.7643 20.8611 12.4027 21.0009 11.9999 21.0009C11.5972 21.0009 11.2355 20.8611 10.9511 20.7089C10.659 20.5525 10.3783 20.3446 10.1181 20.123C9.59826 19.6803 9.06696 19.101 8.58001 18.5263C8.08964 17.9476 7.61421 17.3381 7.21282 16.8271C6.79359 16.2934 6.48333 15.9042 6.28313 15.6982C5.89828 15.3022 5.90687 14.6691 6.30267 14.2841C6.69859 13.8993 7.33176 13.908 7.71673 14.3037C8.00798 14.6033 8.39376 15.0926 8.78509 15.5908C9.1943 16.1118 9.64503 16.6889 10.1064 17.2334C10.4147 17.5972 10.7171 17.9299 10.9999 18.2119V4.00093Z" fill="currentColor" />
</svg>