<svg xmlns="http://www.w3.org/2000/svg" width="24" height="24" viewBox="0 0 24 24" fill="none">
    <path d="M16.2828 7.30473C16.6677 6.9087 17.3008 6.90027 17.6968 7.2852C17.8522 7.43624 18.1538 7.67638 18.5845 8.01469C18.9925 8.33515 19.4832 8.71892 19.9498 9.1143C20.4121 9.50603 20.8858 9.93797 21.2505 10.3663C21.4332 10.5807 21.6085 10.8178 21.7427 11.0684C21.8727 11.3113 22.0005 11.6343 22.0005 12.002C22.0006 12.3696 21.8727 12.6917 21.7427 12.9346C21.6085 13.1855 21.4333 13.4232 21.2505 13.6377C20.8858 14.066 20.4121 14.498 19.9498 14.8897C19.4832 15.2851 18.9925 15.6688 18.5845 15.9893C18.1538 16.3276 17.8522 16.5678 17.6968 16.7188C17.3008 17.1037 16.6677 17.0953 16.2828 16.6993C15.8979 16.3033 15.9073 15.6701 16.3033 15.2852C16.5524 15.043 16.954 14.7264 17.3492 14.4161C17.7669 14.088 18.2248 13.7304 18.6568 13.3643C18.8019 13.2414 18.9394 13.1195 19.0689 13.002H4.93219C5.06157 13.1194 5.1984 13.2415 5.34332 13.3643C5.77546 13.7305 6.23411 14.0879 6.65192 14.4161C7.04705 14.7264 7.44865 15.043 7.69781 15.2852C8.09357 15.6702 8.10219 16.3033 7.71735 16.6993C7.33238 17.095 6.69922 17.1036 6.30328 16.7188C6.14782 16.5678 5.84698 16.3274 5.41656 15.9893C5.00854 15.6688 4.51703 15.2851 4.05035 14.8897C3.58824 14.4981 3.11521 14.0659 2.75055 13.6377C2.5678 13.4232 2.39163 13.1855 2.25739 12.9346C2.14373 12.7221 2.03248 12.4489 2.00641 12.1377L2.00055 12.002L2.00641 11.8663C2.0325 11.5549 2.14364 11.2809 2.25739 11.0684C2.39161 10.8177 2.56787 10.5807 2.75055 10.3663C3.11521 9.93814 3.58824 9.5059 4.05035 9.1143C4.51703 8.71886 5.00855 8.33518 5.41656 8.01469C5.84697 7.67663 6.14782 7.43625 6.30328 7.2852C6.69922 6.90036 7.33238 6.90897 7.71735 7.30473C8.10219 7.70067 8.09356 8.33383 7.69781 8.7188C7.44865 8.96098 7.04705 9.27758 6.65192 9.58794C6.23412 9.9161 5.77546 10.2735 5.34332 10.6397C5.1984 10.7625 5.06157 10.8846 4.93219 11.002H19.0689C18.9394 10.8845 18.8019 10.7626 18.6568 10.6397C18.2248 10.2736 17.7669 9.916 17.3492 9.58794C16.9541 9.27758 16.5524 8.96098 16.3033 8.7188C15.9073 8.33385 15.8979 7.70074 16.2828 7.30473Z" fill="currentColor" />
</svg>