<svg xmlns="http://www.w3.org/2000/svg" width="24" height="24" viewBox="0 0 24 24" fill="none">
    <path d="M19.2929 3.29393C19.6834 2.90341 20.3164 2.90341 20.707 3.29393C21.0975 3.68445 21.0975 4.31747 20.707 4.70799L4.70696 20.708C4.31643 21.0985 3.68342 21.0985 3.29289 20.708C2.90237 20.3175 2.90237 19.6845 3.29289 19.2939L19.2929 3.29393Z" fill="currentColor" />
    <path d="M19.6681 2.02346C19.9484 2.04593 20.24 2.08861 20.5118 2.17092C20.7421 2.24066 21.0137 2.3553 21.2521 2.55666L21.3526 2.64846L21.4444 2.74905C21.6458 2.98736 21.7604 3.25901 21.8302 3.48928C21.9125 3.7611 21.9552 4.05269 21.9776 4.33303C22.0225 4.89274 21.9942 5.5322 21.9444 6.13479C21.8942 6.74301 21.8177 7.36009 21.756 7.87405C21.6908 8.41675 21.6477 8.79956 21.6446 9.01565C21.6365 9.56767 21.183 10.0088 20.631 10.001C20.0787 9.99315 19.6378 9.53858 19.6456 8.98635C19.6506 8.63952 19.7108 8.13333 19.7706 7.63577C19.8338 7.10947 19.9047 6.5339 19.9513 5.97073C19.9983 5.4018 20.0162 4.89 19.9845 4.49319C19.9694 4.30451 19.9433 4.17018 19.9181 4.08206C19.8299 4.05692 19.6958 4.03167 19.5079 4.01663C19.1111 3.98487 18.5993 4.00282 18.0304 4.04983C17.4672 4.09637 16.8916 4.16725 16.3653 4.23049C15.8678 4.29028 15.3616 4.35052 15.0148 4.35549C14.4625 4.36334 14.008 3.92237 14.0001 3.37014C13.9923 2.81807 14.4334 2.36455 14.9855 2.35647C15.2015 2.3534 15.5843 2.31035 16.1271 2.24514C16.641 2.18338 17.2581 2.10692 17.8663 2.05666C18.4689 2.00688 19.1084 1.97863 19.6681 2.02346Z" fill="currentColor" />
    <path d="M3.3691 14.0011C3.92133 14.009 4.3623 14.4636 4.35445 15.0158C4.34948 15.3626 4.28924 15.8688 4.22945 16.3664C4.16621 16.8927 4.09533 17.4682 4.04879 18.0314C4.00178 18.6003 3.98383 19.1121 4.01559 19.509C4.03063 19.6968 4.05588 19.831 4.08102 19.9191C4.16914 19.9444 4.30348 19.9704 4.49215 19.9855C4.88895 20.0173 5.40077 19.9993 5.96969 19.9523C6.53286 19.9058 7.10843 19.8349 7.63473 19.7716C8.13229 19.7119 8.63848 19.6516 8.98531 19.6466C9.53754 19.6388 9.99211 20.0798 9.99996 20.632C10.0078 21.1841 9.56662 21.6376 9.01461 21.6457C8.79852 21.6487 8.41571 21.6918 7.87301 21.757C7.35905 21.8188 6.74198 21.8952 6.13375 21.9455C5.53115 21.9953 4.89171 22.0235 4.33199 21.9787C4.05164 21.9562 3.76008 21.9135 3.48824 21.8312C3.22495 21.7515 2.9072 21.6135 2.64742 21.3537C2.38766 21.0939 2.24962 20.7761 2.16988 20.5129C2.08758 20.241 2.04489 19.9495 2.02242 19.6691C1.9776 19.1094 2.00584 18.4699 2.05563 17.8674C2.10588 17.2591 2.18234 16.6421 2.2441 16.1281C2.30931 15.5854 2.35236 15.2026 2.35543 14.9865C2.36352 14.4345 2.81702 13.9933 3.3691 14.0011Z" fill="currentColor" />
</svg>