<svg xmlns="http://www.w3.org/2000/svg" width="24" height="24" viewBox="0 0 24 24" fill="none">
    <path d="M5.00001 12.0009V3.00089C5.00004 2.44875 5.44793 2.0011 6.00001 2.00089C6.55228 2.00091 7.00001 2.44862 7.00001 3.00089V12.0009C6.99995 13.4431 7.00188 14.4243 7.1006 15.1591C7.1955 15.8652 7.36338 16.1924 7.58595 16.4149C7.80852 16.6375 8.13583 16.8054 8.84181 16.9003C9.5766 16.999 10.5578 17.0009 12 17.0009H21C21.5523 17.0009 22 17.4486 22 18.0009C22 18.5532 21.5523 19.0009 21 19.0009H12C10.6142 19.0009 9.47425 19.0026 8.57521 18.8817C7.64735 18.757 6.82703 18.4852 6.17091 17.829C5.51506 17.1729 5.24286 16.3534 5.11818 15.4257C4.99736 14.5267 4.99995 13.3867 5.00001 12.0009Z" fill="currentColor" />
    <path d="M13.293 9.29385C13.6835 8.90333 14.3165 8.90333 14.707 9.29385C15.0975 9.68438 15.0975 10.3174 14.707 10.7079L7.70702 17.7079C7.31649 18.0984 6.68348 18.0984 6.29295 17.7079C5.90243 17.3174 5.90243 16.6844 6.29295 16.2939L13.293 9.29385Z" fill="currentColor" />
    <path d="M6.13866 2.00772C6.45388 2.04056 6.71402 2.17808 6.87206 2.27335C7.08015 2.39879 7.28248 2.5595 7.46483 2.72061C7.83168 3.0448 8.21543 3.45827 8.55174 3.84561C8.89238 4.23796 9.20468 4.62736 9.43065 4.9169C9.54407 5.06223 9.63649 5.18383 9.70116 5.26944C9.73351 5.31227 9.75878 5.34645 9.77635 5.37003C9.78512 5.38178 9.7921 5.39095 9.79686 5.39737C9.79911 5.4004 9.80141 5.40243 9.80272 5.40421L9.80467 5.40714V5.40811H9.80565C10.1328 5.85276 10.0373 6.47814 9.59276 6.80557C9.14807 7.13309 8.52184 7.03835 8.19432 6.59366V6.59268C8.19357 6.59166 8.1921 6.59007 8.19041 6.5878L8.10545 6.47452C8.04624 6.39612 7.9604 6.2831 7.85448 6.14737C7.64152 5.8745 7.35143 5.51369 7.041 5.15616C6.72636 4.7938 6.40918 4.45683 6.13963 4.21866C6.08796 4.17302 6.04037 4.13535 5.99901 4.10245C5.95782 4.13525 5.91071 4.17328 5.85936 4.21866C5.58984 4.45682 5.27356 4.79384 4.95897 5.15616C4.64855 5.51369 4.35844 5.87449 4.14549 6.14737C4.03957 6.2831 3.95373 6.39612 3.89452 6.47452L3.80956 6.5878C3.80787 6.59007 3.8064 6.59166 3.80565 6.59268V6.59366L3.74022 6.67276C3.40008 7.04842 2.82414 7.11331 2.40721 6.80655C1.96264 6.47913 1.86714 5.85279 2.19432 5.40811H2.1953V5.40714C2.1957 5.40659 2.19658 5.40511 2.19725 5.40421C2.19856 5.40243 2.20087 5.4004 2.20311 5.39737C2.20787 5.39094 2.21484 5.3818 2.22362 5.37003C2.24119 5.34645 2.26646 5.31227 2.29881 5.26944C2.36348 5.18383 2.45592 5.06221 2.56932 4.9169C2.79528 4.62735 3.10759 4.23796 3.44823 3.84561C3.78454 3.45826 4.16829 3.04481 4.53514 2.72061C4.71749 2.55949 4.91982 2.3988 5.12791 2.27335C5.30858 2.16444 5.62274 2.00088 5.99999 2.00089L6.13866 2.00772Z" fill="currentColor" />
    <path d="M21.9932 18.1396C21.9603 18.4548 21.8228 18.7149 21.7275 18.873C21.6021 19.0811 21.4414 19.2834 21.2803 19.4657C20.9561 19.8326 20.5426 20.2163 20.1553 20.5526C19.7629 20.8933 19.3735 21.2056 19.084 21.4315C18.9387 21.545 18.8171 21.6374 18.7314 21.7021C18.6886 21.7344 18.6544 21.7597 18.6309 21.7773C18.6191 21.786 18.6099 21.793 18.6035 21.7978C18.6005 21.8 18.5985 21.8023 18.5967 21.8036L18.5937 21.8056L18.5928 21.8056L18.5928 21.8065C18.1481 22.1337 17.5227 22.0382 17.1953 21.5937C16.8678 21.149 16.9625 20.5227 17.4072 20.1952L17.4082 20.1952C17.4092 20.1945 17.4108 20.193 17.4131 20.1913L17.5264 20.1064C17.6048 20.0471 17.7178 19.9613 17.8535 19.8554C18.1264 19.6424 18.4872 19.3523 18.8447 19.0419C19.2071 18.7273 19.5441 18.4101 19.7822 18.1405C19.8279 18.0889 19.8655 18.0413 19.8984 17.9999C19.8656 17.9587 19.8276 17.9116 19.7822 17.8603C19.5441 17.5907 19.207 17.2745 18.8447 16.9599C18.4872 16.6494 18.1264 16.3593 17.8535 16.1464C17.7178 16.0405 17.6048 15.9546 17.5264 15.8954L17.4131 15.8105C17.4108 15.8088 17.4092 15.8073 17.4082 15.8065L17.4072 15.8065L17.3281 15.7411C16.9525 15.401 16.8876 14.825 17.1943 14.4081C17.5218 13.9635 18.1481 13.868 18.5928 14.1952L18.5928 14.1962L18.5937 14.1962C18.5943 14.1966 18.5958 14.1975 18.5967 14.1982C18.5985 14.1995 18.6005 14.2018 18.6035 14.204C18.6099 14.2088 18.6191 14.2157 18.6309 14.2245C18.6544 14.2421 18.6886 14.2674 18.7314 14.2997C18.8171 14.3644 18.9387 14.4568 19.084 14.5702C19.3735 14.7962 19.7629 15.1085 20.1553 15.4491C20.5426 15.7854 20.9561 16.1692 21.2803 16.536C21.4414 16.7184 21.6021 16.9207 21.7275 17.1288C21.8364 17.3095 22 17.6236 22 18.0009L21.9932 18.1396Z" fill="currentColor" />
</svg>