<svg xmlns="http://www.w3.org/2000/svg" width="24" height="24" viewBox="0 0 24 24" fill="none">
    <path d="M22 15.752C22 17.9611 20.2091 19.752 18 19.752C15.7909 19.752 14 17.9611 14 15.752C14 13.5428 15.7909 11.752 18 11.752C20.2091 11.752 22 13.5428 22 15.752Z" fill="currentColor" />
    <path d="M10 17.752C10 19.9611 8.20914 21.752 6 21.752C3.79086 21.752 2 19.9611 2 17.752C2 15.5428 3.79086 13.752 6 13.752C8.20914 13.752 10 15.5428 10 17.752Z" fill="currentColor" />
    <path d="M20 15.7304V7.91987L10 10.4453V17.7519C10 18.3042 9.55229 18.7519 9.00001 18.7519C8.44772 18.7519 8.00001 18.3042 8.00001 17.7519V8.7812L8 8.71804C7.99995 8.01109 7.99991 7.39525 8.05958 6.89057C8.12413 6.34501 8.26833 5.81931 8.63184 5.34858C8.99635 4.87681 9.46876 4.60616 9.98047 4.40913C10.4542 4.22674 11.0505 4.07612 11.7322 3.90394L11.7852 3.89057L15.7852 2.87983L15.86 2.86093C16.9404 2.58792 17.8569 2.35633 18.5977 2.28022C19.3827 2.19957 20.1722 2.26844 20.8506 2.80366C21.4057 3.24167 21.6801 3.83093 21.8213 4.46772C21.9512 5.05366 21.9835 5.75678 21.9941 6.54292C21.9996 6.6005 22.0005 6.65748 21.9961 6.71382C21.9992 7.04054 22 7.3937 22 7.77046V15.7304C22 16.2827 21.5523 16.7304 21 16.7304C20.4477 16.7304 20 16.2827 20 15.7304Z" fill="currentColor" />
</svg>