<svg xmlns="http://www.w3.org/2000/svg" width="24" height="24" viewBox="0 0 24 24" fill="none">
    <path d="M14.4998 17.002C14.4998 19.7634 12.2613 22.002 9.49983 22.002C6.73841 22.002 4.49983 19.7634 4.49983 17.002C4.49983 14.2405 6.73841 12.002 9.49983 12.002C12.2613 12.002 14.4998 14.2405 14.4998 17.002Z" fill="currentColor" />
    <path d="M12.4998 3.00195C12.4998 2.44967 12.9475 2.00195 13.4998 2.00195C14.0521 2.00195 14.4998 2.44967 14.4998 3.00195C14.4998 3.60377 14.7799 4.07084 15.3494 4.56934C15.6407 4.82427 15.9842 5.06623 16.3729 5.32422C16.7425 5.56956 17.1812 5.84807 17.5701 6.12891C18.3313 6.67846 19.229 7.45646 19.45 8.65723C19.6737 9.87345 19.1474 11.1695 18.0028 12.6211C17.6608 13.0547 17.0321 13.129 16.5985 12.7871C16.1648 12.4451 16.0905 11.8165 16.4324 11.3828C17.4562 10.0846 17.5498 9.38031 17.4832 9.01855C17.4137 8.64128 17.1095 8.26283 16.3992 7.75C16.0526 7.49975 15.6881 7.27014 15.2664 6.99023C15.0173 6.82482 14.757 6.64434 14.4998 6.4502V17.002H12.4998V3.00195Z" fill="currentColor" />
</svg>