<svg xmlns="http://www.w3.org/2000/svg" width="24" height="24" viewBox="0 0 24 24" fill="none">
    <path d="M1.29289 1.29509C1.68342 0.904566 2.31643 0.904566 2.70696 1.29509L22.707 21.2951C23.0975 21.6856 23.0975 22.3186 22.707 22.7092C22.3164 23.0997 21.6834 23.0997 21.2929 22.7092L1.29289 2.70915C0.902369 2.31863 0.902369 1.68561 1.29289 1.29509Z" fill="currentColor" />
    <path fill-rule="evenodd" clip-rule="evenodd" d="M7.41292 7.4152C7.00659 8.20524 6.57181 9.09285 6.09275 10.0709L6.06326 10.1311L4.51638 13.2893L4.48557 13.3522C3.63659 15.0854 2.9696 16.447 2.59939 17.4817C2.41145 18.007 2.28059 18.4997 2.25466 18.9475C2.22804 19.4074 2.30992 19.8708 2.60329 20.2668C2.84396 20.5917 3.15879 20.8553 3.51931 21.0413C3.94767 21.2622 4.41556 21.2882 4.87478 21.217C5.3273 21.1469 5.82107 20.9752 6.35232 20.7434C7.40183 20.2855 8.76707 19.5127 10.5144 18.5238L10.5593 18.4983C11.4103 18.0166 11.6448 17.902 11.8797 17.8801C11.9593 17.8728 12.0402 17.8728 12.1199 17.8801C12.3548 17.902 12.5892 18.0166 13.4402 18.4983L13.4855 18.5239C15.2326 19.5128 16.5978 20.2855 17.6472 20.7434C18.1785 20.9752 18.6723 21.1469 19.1248 21.217C19.584 21.2882 20.0519 21.2622 20.4802 21.0413C20.6011 20.9789 20.7169 20.9078 20.8264 20.8286L7.41292 7.4152ZM21.6907 18.5114C21.6309 18.1861 21.5289 17.8415 21.4002 17.4817C21.03 16.447 20.363 15.0854 19.514 13.3522L19.4832 13.2893L17.9363 10.1311L17.9069 10.071C16.7962 7.80352 15.9236 6.02201 15.0916 4.81567C14.2535 3.60066 13.3103 2.7522 11.9998 2.7522C10.6893 2.7522 9.74603 3.60066 8.90798 4.81567C8.78894 4.98828 8.66906 5.17266 8.54778 5.36855L21.6907 18.5114Z" fill="currentColor" />
</svg>