<svg xmlns="http://www.w3.org/2000/svg" width="24" height="24" viewBox="0 0 24 24" fill="none">
    <path fill-rule="evenodd" clip-rule="evenodd" d="M7.5 21.752H19.25H19.5C19.5852 21.752 19.6671 21.7377 19.7434 21.7116C21.1655 21.4763 22.25 20.2408 22.25 18.752V10.752L22.25 10.6807C22.2501 10.0305 22.2502 9.44596 22.1865 8.97266C22.1167 8.45333 21.954 7.92079 21.5176 7.48438C21.0812 7.04796 20.5486 6.88526 20.0293 6.81543C19.5559 6.75179 18.9715 6.75186 18.3213 6.75195L18.25 6.75195C18.2411 6.14369 18.2125 5.61376 18.1514 5.15918C18.0487 4.39523 17.8265 3.7328 17.2979 3.2041C16.7692 2.67541 16.1067 2.4533 15.3428 2.35059C14.6087 2.25193 13.6782 2.25194 12.5387 2.25195H12.5H7.5H7.46126C6.32176 2.25194 5.39126 2.25193 4.65723 2.35059C3.89328 2.4533 3.23084 2.67541 2.70215 3.2041C2.17346 3.7328 1.95134 4.39523 1.84863 5.15918C1.74998 5.89321 1.74999 6.82372 1.75 7.96321V8.00195V16.002V16.0407C1.74999 17.1802 1.74998 18.1107 1.84863 18.8447C1.95134 19.6087 2.17346 20.2711 2.70215 20.7998C3.23084 21.3285 3.89328 21.5506 4.65723 21.6533C5.39126 21.752 6.32177 21.752 7.46127 21.752H7.5ZM14.75 14.002C14.75 13.5877 14.4142 13.252 14 13.252H6C5.58579 13.252 5.25 13.5877 5.25 14.002C5.25 14.4162 5.58579 14.752 6 14.752H14C14.4142 14.752 14.75 14.4162 14.75 14.002ZM20.2041 9.23926C20.248 9.56561 20.25 10.0166 20.25 10.752V18.752C20.25 19.3042 19.8023 19.752 19.25 19.752C18.6977 19.752 18.25 19.3042 18.25 18.752V8.75195C18.9854 8.75195 19.4363 8.75398 19.7627 8.79785C20.0495 8.83641 20.0973 8.89137 20.103 8.89791C20.1096 8.9036 20.1655 8.9525 20.2041 9.23926ZM14.75 8.00195L14.75 8.05526C14.7501 8.48475 14.7501 8.87854 14.707 9.19922C14.6592 9.5547 14.5463 9.93024 14.2373 10.2393C13.9283 10.5483 13.5527 10.6612 13.1973 10.709C12.8766 10.7521 12.4828 10.752 12.0533 10.752L12 10.752H8L7.94669 10.752C7.5172 10.752 7.12342 10.7521 6.80273 10.709C6.44726 10.6612 6.07172 10.5483 5.7627 10.2393C5.45368 9.93024 5.34076 9.5547 5.29297 9.19922C5.24985 8.87854 5.24992 8.48476 5.24999 8.05527L5.25 8.00195L5.24999 7.94863C5.24992 7.51915 5.24985 7.12536 5.29297 6.80469C5.34076 6.44921 5.45368 6.07367 5.7627 5.76465C6.07172 5.45563 6.44726 5.34272 6.80273 5.29492C7.12341 5.25181 7.5172 5.25187 7.94668 5.25195L8 5.25195H12L12.0533 5.25195C12.4828 5.25187 12.8766 5.25181 13.1973 5.29492C13.5527 5.34272 13.9283 5.45563 14.2373 5.76465C14.5463 6.07367 14.6592 6.44921 14.707 6.80469C14.7501 7.12537 14.7501 7.51915 14.75 7.94865L14.75 8.00195ZM11.75 18.002C11.75 17.5877 11.4142 17.252 11 17.252H6C5.58579 17.252 5.25 17.5877 5.25 18.002C5.25 18.4162 5.58579 18.752 6 18.752H11C11.4142 18.752 11.75 18.4162 11.75 18.002Z" fill="currentColor" />
</svg>