<svg xmlns="http://www.w3.org/2000/svg" width="24" height="24" viewBox="0 0 24 24" fill="none">
    <path d="M14.0001 15.0021C14.0001 12.2406 11.7615 10.0021 9.00008 10.0021C6.23865 10.0021 4.00008 12.2406 4.00008 15.0021C4.00008 17.7635 6.23865 20.0021 9.00008 20.0021C11.7615 20.0021 14.0001 17.7635 14.0001 15.0021ZM16.0001 15.0021C16.0001 18.8681 12.8661 22.0021 9.00008 22.0021C5.13408 22.0021 2.00008 18.8681 2.00008 15.0021C2.00008 11.1361 5.13408 8.00206 9.00008 8.00206C10.5722 8.00206 12.023 8.52064 13.1915 9.39562L16.1485 6.43858L14.6837 5.9503C14.1599 5.77554 13.8772 5.2095 14.0518 4.68566C14.2266 4.1619 14.7926 3.8792 15.3165 4.05382L16.419 4.42101L16.0518 3.31847C15.8772 2.79462 16.1599 2.22858 16.6837 2.05382C17.2075 1.8792 17.7736 2.1619 17.9483 2.68566L18.4366 4.1505L19.793 2.79503C20.1836 2.40451 20.8166 2.40451 21.2071 2.79503C21.5976 3.18555 21.5976 3.81857 21.2071 4.20909L19.8507 5.56456L21.3165 6.05382C21.8402 6.22858 22.1229 6.79462 21.9483 7.31847C21.7736 7.84222 21.2075 8.12492 20.6837 7.9503L19.5802 7.58214L19.9483 8.68566C20.1229 9.2095 19.8402 9.77554 19.3165 9.9503C18.7926 10.1249 18.2266 9.84222 18.0518 9.31847L17.5626 7.85265L14.6055 10.8097C15.481 11.9784 16.0001 13.4295 16.0001 15.0021Z" fill="currentColor" />
</svg>