<svg xmlns="http://www.w3.org/2000/svg" width="24" height="24" viewBox="0 0 24 24" fill="none">
    <path d="M13.0498 1.25195C14.8906 1.25194 16.3487 1.25193 17.4893 1.40527C18.6616 1.56292 19.6101 1.89525 20.3584 2.64355C21.1067 3.39186 21.439 4.34039 21.5967 5.5127C21.75 6.65324 21.75 8.11134 21.75 9.95215V14.0518C21.75 15.8926 21.75 17.3507 21.5967 18.4912C21.439 19.6635 21.1067 20.612 20.3584 21.3604C19.6101 22.1087 18.6616 22.441 17.4893 22.5986C16.3487 22.752 14.8906 22.752 13.0498 22.752H12.7002C10.8594 22.752 9.40129 22.752 8.26074 22.5986C7.08844 22.441 6.13991 22.1087 5.3916 21.3604C4.64329 20.612 4.31096 19.6635 4.15332 18.4912C3.99998 17.3507 3.99999 15.8926 4 14.0518L4 9.95215C3.99999 8.11133 3.99998 6.65324 4.15332 5.5127C4.31096 4.34039 4.64329 3.39186 5.3916 2.64355C6.13991 1.89525 7.08844 1.56292 8.26074 1.40527C9.40129 1.25193 10.8594 1.25194 12.7002 1.25195H13.0498ZM10 10.252C9.58579 10.252 9.25 10.5877 9.25 11.002C9.25 11.4162 9.58579 11.752 10 11.752H13.5C13.9142 11.752 14.25 11.4162 14.25 11.002C14.25 10.5877 13.9142 10.252 13.5 10.252H10ZM10 6.25195C9.58579 6.25195 9.25 6.58774 9.25 7.00195C9.25 7.41617 9.58579 7.75195 10 7.75195L17 7.75195C17.4142 7.75195 17.75 7.41617 17.75 7.00195C17.75 6.58774 17.4142 6.25195 17 6.25195L10 6.25195Z" fill="currentColor" />
    <path d="M6.75 17.7877C6.75 17.2551 6.34706 16.8234 5.85 16.8234H3.21429C2.68173 16.8234 2.25 17.2551 2.25 17.7877C2.25 18.3202 2.68173 18.752 3.21429 18.752H5.85C6.34706 18.752 6.75 18.3202 6.75 17.7877Z" fill="currentColor" />
    <path d="M6.75 12.002C6.75 11.4694 6.34706 11.0377 5.85 11.0377H3.21429C2.68173 11.0377 2.25 11.4694 2.25 12.002C2.25 12.5345 2.68173 12.9662 3.21429 12.9662H5.85C6.34706 12.9662 6.75 12.5345 6.75 12.002Z" fill="currentColor" />
    <path d="M6.75 6.21624C6.75 5.68368 6.34706 5.25195 5.85 5.25195H3.21429C2.68173 5.25195 2.25 5.68368 2.25 6.21624C2.25 6.7488 2.68173 7.18052 3.21429 7.18052H5.85C6.34706 7.18052 6.75 6.7488 6.75 6.21624Z" fill="currentColor" />
</svg>