<svg xmlns="http://www.w3.org/2000/svg" width="24" height="24" viewBox="0 0 24 24" fill="none">
    <path d="M13.0497 1.25189C14.8905 1.25188 16.3486 1.25187 17.4891 1.40521C18.6614 1.56285 19.61 1.89519 20.3583 2.64349C21.1066 3.3918 21.4389 4.34033 21.5966 5.51263C21.7499 6.65318 21.7499 8.11128 21.7499 9.95209V13.3925L21.6005 13.2431C21.2881 12.9297 20.9754 12.6157 20.621 12.4111C19.6755 11.8652 18.5098 11.8652 17.5643 12.4111C17.2099 12.6157 16.8972 12.9297 16.5848 13.2431L16.5057 13.3222L12.578 17.2509C11.9609 17.8681 11.6811 18.6059 11.5204 19.2353C11.4402 19.5494 11.3831 19.8621 11.3358 20.1357L11.3065 20.3085C11.2702 20.5215 11.2382 20.7077 11.1991 20.8906L11.1844 20.957C11.1091 21.3086 11.0266 21.6952 11.0057 22.0224C10.9934 22.2157 10.9961 22.474 11.0712 22.747C9.97155 22.7366 9.04159 22.7036 8.26062 22.5986C7.08832 22.4409 6.13979 22.1086 5.39148 21.3603C4.64317 20.612 4.31084 19.6635 4.1532 18.4911C3.99985 17.3506 3.99987 15.8925 3.99988 14.0517L3.99988 9.95209C3.99987 8.11126 3.99985 6.65319 4.1532 5.51263C4.31084 4.34033 4.64317 3.3918 5.39148 2.64349C6.13979 1.89519 7.08832 1.56285 8.26062 1.40521C9.40117 1.25187 10.8593 1.25188 12.7001 1.25189H13.0497ZM9.99988 10.2519C9.58566 10.2519 9.24988 10.5877 9.24988 11.0019C9.24988 11.4161 9.58566 11.7519 9.99988 11.7519H13.4999C13.9141 11.7519 14.2499 11.4161 14.2499 11.0019C14.2499 10.5877 13.9141 10.2519 13.4999 10.2519H9.99988ZM9.99988 6.25189C9.58566 6.25189 9.24988 6.58768 9.24988 7.00189C9.24988 7.41611 9.58566 7.75189 9.99988 7.75189L16.9999 7.75189C17.4141 7.75189 17.7499 7.41611 17.7499 7.00189C17.7499 6.58768 17.4141 6.25189 16.9999 6.25189L9.99988 6.25189Z" fill="currentColor" />
    <path d="M6.74988 17.7876C6.74988 17.255 6.34693 16.8233 5.84988 16.8233H3.21416C2.6816 16.8233 2.24988 17.255 2.24988 17.7876C2.24988 18.3202 2.6816 18.7519 3.21416 18.7519H5.84988C6.34693 18.7519 6.74988 18.3202 6.74988 17.7876Z" fill="currentColor" />
    <path d="M6.74988 12.0019C6.74988 11.4693 6.34693 11.0376 5.84988 11.0376H3.21416C2.6816 11.0376 2.24988 11.4693 2.24988 12.0019C2.24988 12.5345 2.6816 12.9662 3.21416 12.9662H5.84988C6.34693 12.9662 6.74988 12.5345 6.74988 12.0019Z" fill="currentColor" />
    <path d="M6.74988 6.21618C6.74988 5.68362 6.34693 5.25189 5.84988 5.25189H3.21416C2.6816 5.25189 2.24988 5.68362 2.24988 6.21618C2.24988 6.74874 2.6816 7.18046 3.21416 7.18046H5.84988C6.34693 7.18046 6.74988 6.74874 6.74988 6.21618Z" fill="currentColor" />
    <path d="M17.39 14.2065C17.7858 13.8106 17.9838 13.6127 18.1897 13.4938C18.7484 13.1712 19.4368 13.1712 19.9956 13.4938C20.2015 13.6127 20.3994 13.8106 20.7953 14.2065C21.1911 14.6023 21.3891 14.8003 21.5079 15.0062C21.8305 15.5649 21.8305 16.2533 21.5079 16.8121C21.3891 17.018 21.1911 17.2159 20.7953 17.6118L16.8672 21.5398C16.0825 22.3246 14.8981 22.3565 13.8503 22.5806C13.031 22.7557 12.6213 22.8433 12.3899 22.6119C12.1584 22.3804 12.246 21.9708 12.4212 21.1515C12.6453 20.1037 12.6772 18.9193 13.4619 18.1346L17.39 14.2065Z" fill="currentColor" />
</svg>