<svg xmlns="http://www.w3.org/2000/svg" width="24" height="24" viewBox="0 0 24 24" fill="none">
    <path d="M14.25 20.5C14.25 21.7426 13.2426 22.75 12 22.75C10.7574 22.75 9.75 21.7426 9.75 20.5H14.25ZM12 2.25C12.3463 2.25 12.6872 2.27433 13.0215 2.31836C13.0985 3.32748 14.0465 4.3215 15.0928 4.36914L14.0498 5.39941L13.7295 5.73828C13.6378 5.84231 13.3817 6.1967 13.2227 6.49902C13.0258 6.93265 12.8543 7.65583 13.1895 8.44531C13.5125 9.0947 14.1037 9.56126 14.4521 9.7168C14.8006 9.87232 15.442 10 16.458 10H19.75V17.25H20.25C20.8023 17.25 21.25 17.6977 21.25 18.25C21.25 18.8023 20.8023 19.25 20.25 19.25H3.75C3.19772 19.25 2.75 18.8023 2.75 18.25C2.75 17.6977 3.19772 17.25 3.75 17.25H4.25V10C4.25 5.71979 7.71979 2.25 12 2.25ZM18.6562 1.25C18.9677 1.24988 19.2969 1.24988 19.5566 1.28809C19.809 1.32522 20.3769 1.44953 20.6289 2.04297C20.8776 2.62885 20.5858 3.12879 20.4434 3.33984C20.2952 3.55945 20.073 3.80589 19.8604 4.04102L16.9697 6.875H19.8213C20.3341 6.875 20.75 7.29474 20.75 7.8125C20.75 8.33026 20.3341 8.75 19.8213 8.75H16.458C16.1345 8.75007 15.782 8.75023 15.499 8.71484C15.3502 8.69621 15.1538 8.6608 14.9619 8.5752C14.7622 8.48603 14.4875 8.30483 14.3398 7.95703C14.1827 7.58672 14.2587 7.24159 14.3613 7.01562C14.451 6.81827 14.5819 6.66102 14.667 6.56445C14.7517 6.4684 14.852 6.36554 14.9414 6.27441L18.1338 3.125H15.1934C14.6806 3.12487 14.2646 2.70518 14.2646 2.1875C14.2647 1.66983 14.6807 1.25013 15.1934 1.25H18.6562Z" fill="currentColor" />
</svg>