<svg xmlns="http://www.w3.org/2000/svg" width="24" height="24" viewBox="0 0 24 24" fill="none">
    <path d="M22.75 13.5167L22.75 13.6614C22.7506 14.7479 22.7509 15.5035 22.4648 16.1944C22.1787 16.8853 21.6438 17.4196 20.8752 18.1875L20.7724 18.2901L18.2871 20.7755L18.185 20.8777C17.4171 21.6463 16.8832 22.1807 16.1924 22.4669C15.5016 22.753 14.7462 22.7526 13.66 22.7521L13.5146 22.752H10.4853L10.341 22.7521C9.25425 22.7526 8.49852 22.753 7.80759 22.4669C7.11669 22.1807 6.58228 21.6458 5.81431 20.877L5.71188 20.7745L3.22653 18.2901L3.12845 18.1921C2.35746 17.4218 1.82184 16.8866 1.53513 16.1944C1.24901 15.5036 1.24939 14.748 1.24992 13.6615L1.24997 13.5167V10.4874L1.24992 10.3425C1.24939 9.25606 1.24901 8.50051 1.53513 7.80966C1.82184 7.11747 2.35746 6.58231 3.12845 5.81199L3.22653 5.71396L5.71188 3.22959L5.81429 3.12711C6.58227 2.35834 7.11668 1.82339 7.80759 1.5372C8.49852 1.2511 9.25423 1.25147 10.3409 1.252L10.4853 1.25205H13.5146L13.66 1.252C14.7462 1.25146 15.5016 1.25108 16.1924 1.5372C16.8832 1.82337 17.4171 2.35781 18.185 3.12642L18.2871 3.22861L20.7724 5.71396L20.8751 5.81658C21.6437 6.58445 22.1787 7.11883 22.4648 7.80966C22.7509 8.50055 22.7506 9.25615 22.75 10.3427L22.75 10.4874V13.5167ZM17 12.002C17 11.4498 16.5523 11.002 16 11.002H7.99997C7.44769 11.002 6.99997 11.4498 6.99997 12.002C6.99997 12.5543 7.44769 13.002 7.99997 13.002H16C16.5523 13.002 17 12.5543 17 12.002Z" fill="currentColor" />
</svg>