<svg xmlns="http://www.w3.org/2000/svg" width="24" height="24" viewBox="0 0 24 24" fill="none">
    <path d="M22.7498 13.5167L22.7499 13.6614C22.7504 14.7479 22.7508 15.5035 22.4647 16.1944C22.1785 16.8853 21.6436 17.4196 20.875 18.1875L20.7723 18.2901L18.287 20.7755L18.1848 20.8777C17.417 21.6463 16.8831 22.1807 16.1922 22.4669C15.5015 22.753 14.7461 22.7526 13.6599 22.7521L13.5145 22.752H10.4852L10.3408 22.7521C9.25413 22.7526 8.49839 22.753 7.80747 22.4669C7.11656 22.1807 6.58216 21.6458 5.81419 20.877L5.71176 20.7745L3.22641 18.2901L3.12833 18.1921C2.35733 17.4218 1.82172 16.8866 1.535 16.1944C1.24889 15.5036 1.24927 14.748 1.2498 13.6615L1.24985 13.5167V10.4874L1.2498 10.3425C1.24927 9.25606 1.24889 8.50051 1.535 7.80966C1.82172 7.11747 2.35733 6.58231 3.12833 5.81199L3.22641 5.71396L5.71176 3.22959L5.81417 3.12711C6.58215 2.35834 7.11656 1.82339 7.80747 1.5372C8.49839 1.2511 9.25411 1.25147 10.3408 1.252L10.4852 1.25205H13.5145L13.6599 1.252C14.7461 1.25146 15.5015 1.25108 16.1922 1.5372C16.8831 1.82337 17.417 2.35781 18.1848 3.12642L18.287 3.22861L20.7723 5.71396L20.875 5.81658C21.6436 6.58445 22.1785 7.11883 22.4647 7.80966C22.7508 8.50055 22.7504 9.25615 22.7499 10.3427L22.7498 10.4874V13.5167ZM12.9998 16.002C12.9998 15.4498 12.5521 15.002 11.9998 15.002C11.4822 15.002 11.0561 15.3954 11.0047 15.8995L10.9998 16.002L11.0047 16.1046C11.0561 16.6087 11.4822 17.002 11.9998 17.002C12.5521 17.002 12.9998 16.5543 12.9998 16.002ZM10.9998 8.00205V12.002C10.9998 12.5543 11.4476 13.002 11.9998 13.002C12.5521 13.002 12.9998 12.5543 12.9998 12.002V8.00205C12.9998 7.44976 12.5521 7.00205 11.9998 7.00205C11.4476 7.00205 10.9998 7.44976 10.9998 8.00205Z" fill="currentColor" />
</svg>