<svg xmlns="http://www.w3.org/2000/svg" width="24" height="24" viewBox="0 0 24 24" fill="none">
    <path d="M12.0001 4.00195C8.26211 4.00195 4.99313 7.55986 4.99313 12.2655C4.99313 15.1235 6.65535 17.6973 8.79719 19.2031C9.099 19.4152 9.41274 19.6358 9.60612 19.7974C9.70253 19.878 9.83869 19.9991 9.94895 20.1515C10.0421 20.2802 10.2863 20.6666 10.129 21.1639C9.97664 21.6455 9.57575 21.8266 9.4145 21.8844C9.23551 21.9485 9.05459 21.97 8.93234 21.9807C8.68819 22.002 8.35981 22.002 8.00935 22.002H8.00924H4.9324C4.27764 22.002 3.68953 22.0021 3.21353 21.9381C2.69398 21.8683 2.16098 21.7063 1.72432 21.27C1.09549 20.6417 1.0235 19.7939 1.00052 19.0321C0.983878 18.4801 1.41789 18.0191 1.96993 18.0024C2.52196 17.9858 2.98297 18.4198 2.99962 18.9718C3.01083 19.3436 3.03644 19.5632 3.07283 19.7055C3.1022 19.8203 3.12886 19.8463 3.13702 19.8543L3.13792 19.8552C3.14378 19.8619 3.19253 19.9173 3.4798 19.9559C3.80657 19.9998 4.25804 20.002 4.994 20.002H6.59796C4.53633 18.1442 2.99313 15.3878 2.99313 12.2655C2.99313 6.73891 6.89381 2.00195 12.0001 2.00195C17.1063 2.00195 21.007 6.73891 21.007 12.2655C21.007 15.3878 19.4638 18.1442 17.4022 20.002H19.0061C19.7421 20.002 20.1936 19.9998 20.5203 19.9559C20.8076 19.9173 20.8559 19.8624 20.8617 19.8557L20.8631 19.8543C20.8713 19.8463 20.8979 19.8203 20.9273 19.7055C20.9637 19.5632 20.9893 19.3436 21.0005 18.9718C21.0172 18.4198 21.4782 17.9858 22.0302 18.0024C22.5822 18.0191 23.0163 18.4801 22.9996 19.0321C22.9766 19.7939 22.9046 20.6417 22.2758 21.27C21.8392 21.7063 21.3062 21.8683 20.7866 21.9381C20.3106 22.0021 19.7225 22.002 19.0677 22.002H15.9909H15.9908C15.6403 22.002 15.312 22.002 15.0678 21.9807C14.9456 21.97 14.7646 21.9485 14.5856 21.8844C14.4244 21.8266 14.0235 21.6455 13.8711 21.1639C13.7138 20.6666 13.9581 20.2802 14.0512 20.1515C14.1615 19.9991 14.2976 19.878 14.394 19.7974C14.5874 19.6358 14.9012 19.4152 15.2029 19.2031C17.3448 17.6973 19.007 15.1235 19.007 12.2655C19.007 7.55986 15.738 4.00195 12.0001 4.00195Z" fill="currentColor" />
</svg>