<svg xmlns="http://www.w3.org/2000/svg" width="24" height="24" viewBox="0 0 24 24" fill="none">
    <path d="M16.5005 10.1465V6.25098C16.5005 5.2799 16.4982 4.65197 16.436 4.18946C16.3777 3.75591 16.2836 3.62006 16.2075 3.54395C16.1314 3.46784 15.9955 3.37375 15.562 3.31544C15.0995 3.25325 14.4716 3.25098 13.5005 3.25098H10.5005C9.5294 3.25098 8.90146 3.25325 8.43896 3.31544C8.00541 3.37375 7.86956 3.46784 7.79345 3.54395C7.71734 3.62006 7.62325 3.75591 7.56493 4.18946C7.50275 4.65196 7.50048 5.2799 7.50048 6.25098V10.1465C7.50024 10.6986 7.05262 11.1465 6.50048 11.1465C5.94834 11.1465 5.50072 10.6986 5.50048 10.1465V6.25098C5.50048 5.33644 5.49825 4.54961 5.58251 3.92286C5.67066 3.26745 5.8698 2.63947 6.37938 2.12989C6.88897 1.62031 7.51695 1.42117 8.17235 1.33301C8.7991 1.24875 9.58594 1.25098 10.5005 1.25098H13.5005C14.415 1.25098 15.2019 1.24875 15.8286 1.33301C16.484 1.42117 17.112 1.62031 17.6216 2.12989C18.1312 2.63947 18.3303 3.26745 18.4184 3.92286C18.5027 4.54961 18.5005 5.33644 18.5005 6.25098V10.1465C18.5002 10.6986 18.0526 11.1465 17.5005 11.1465C16.9483 11.1465 16.5007 10.6986 16.5005 10.1465Z" fill="currentColor" />
    <path d="M19.1764 12.425C19.2511 12.1096 19.2509 11.7628 19.2507 11.3169L19.2507 11.2394L19.2507 11.174C19.2512 10.9236 19.2518 10.6623 19.1872 10.4289C19.0231 9.83634 18.56 9.37322 17.9674 9.20916C17.734 9.14457 17.4727 9.14509 17.2223 9.1456L17.1569 9.14569H6.8444L6.77896 9.1456C6.52857 9.14509 6.26727 9.14457 6.03385 9.20916C5.44131 9.37322 4.97819 9.83634 4.81413 10.4289C4.74953 10.6623 4.75006 10.9236 4.75056 11.174L4.75065 11.2394L4.75062 11.3169C4.75038 11.7628 4.7502 12.1096 4.82487 12.425C5.01536 13.2294 5.55753 13.9053 6.30143 14.2658C6.5942 14.4077 6.93462 14.4831 7.37243 14.5802L7.44303 14.5959L8.27018 14.7795C8.63397 14.8603 8.8473 14.9092 8.99967 14.9611C9.08996 14.9919 9.12392 15.0127 9.13318 15.0195C9.14287 15.0304 9.15119 15.0424 9.15885 15.0549C9.16326 15.0674 9.17338 15.1063 9.17741 15.1974C9.18447 15.3582 9.17158 15.5768 9.14714 15.9484L8.91569 19.4572C8.79872 21.2401 10.2139 22.7502 12.0007 22.7502C13.7874 22.7501 15.2016 21.2401 15.0846 19.4572L14.8542 15.9484C14.8297 15.5768 14.8168 15.3582 14.8239 15.1974C14.8279 15.1062 14.838 15.0674 14.8424 15.0549C14.8501 15.0424 14.8584 15.0304 14.8681 15.0195C14.8774 15.0127 14.9114 14.9919 15.0016 14.9611C15.154 14.9092 15.3673 14.8603 15.7311 14.7795L16.5583 14.5959L16.6289 14.5802C17.0667 14.4831 17.4071 14.4076 17.6999 14.2658C18.4438 13.9053 18.9859 13.2294 19.1764 12.425Z" fill="currentColor" />
    <path d="M9.00047 2.25098V4.75098C9.00047 5.30326 9.44819 5.75098 10.0005 5.75098C10.5528 5.75098 11.0005 5.30326 11.0005 4.75098V2.25098C11.0005 1.69869 10.5528 1.25098 10.0005 1.25098C9.44819 1.25098 9.00047 1.69869 9.00047 2.25098Z" fill="currentColor" />
    <path d="M13.0005 2.25098V6.25098C13.0005 6.80326 13.4482 7.25098 14.0005 7.25098C14.5528 7.25098 15.0005 6.80326 15.0005 6.25098V2.25098C15.0005 1.69869 14.5528 1.25098 14.0005 1.25098C13.4482 1.25098 13.0005 1.69869 13.0005 2.25098Z" fill="currentColor" />
</svg>