<svg xmlns="http://www.w3.org/2000/svg" width="24" height="24" viewBox="0 0 24 24" fill="none">
    <path d="M5.27072 3.63813C9.90091 -0.119575 16.6614 0.639986 20.3664 5.32758C21.545 6.8187 22.2735 8.52947 22.5686 10.2885L22.5788 10.3497C22.6912 11.0184 22.797 11.6483 22.7287 12.2817C22.6542 12.9723 22.3843 13.6106 21.8674 14.3588C21.7453 14.5355 21.4672 14.8692 21.3156 15.0209C19.9276 16.41 18.4464 16.4095 16.2399 16.4087L16.0793 16.4086H14.1477C13.4662 16.4086 13.2674 16.414 13.1486 16.4428C12.5267 16.5938 12.1079 17.2067 12.2033 17.8676C12.2216 17.9942 12.2917 18.1872 12.5442 18.8266L12.548 18.8364C12.6476 19.0885 12.7244 19.2831 12.7668 19.642C12.8573 20.4081 12.5004 21.1638 12.0549 21.6948C11.6107 22.2242 10.9283 22.7082 10.1565 22.7416L10.1368 22.7425C9.92163 22.7518 9.7944 22.7573 9.6467 22.7241C7.34233 22.2048 5.19131 20.9153 3.60373 18.9067C-0.0965614 14.225 0.646613 7.39105 5.27072 3.63813ZM7.0007 11.7495C7.0007 11.0591 6.44105 10.4995 5.7507 10.4995C5.06034 10.4995 4.5007 11.0591 4.5007 11.7495C4.5007 12.4398 5.06034 12.9995 5.7507 12.9995C6.44105 12.9995 7.0007 12.4398 7.0007 11.7495ZM13.0007 5.74946C13.0007 5.0591 12.4411 4.49946 11.7507 4.49946C11.0603 4.49946 10.5007 5.05911 10.5007 5.74946C10.5007 6.43981 11.0603 6.99946 11.7507 6.99946C12.4411 6.99946 13.0007 6.43982 13.0007 5.74946ZM8.5007 7.74946C8.5007 7.0591 7.94105 6.49946 7.2507 6.49946C6.56034 6.49946 6.0007 7.05911 6.0007 7.74946C6.0007 8.43981 6.56034 8.99946 7.2507 8.99946C7.94105 8.99946 8.5007 8.43982 8.5007 7.74946ZM17.5007 7.74946C17.5007 7.0591 16.9411 6.49946 16.2507 6.49946C15.5603 6.49946 15.0007 7.05911 15.0007 7.74946C15.0007 8.43981 15.5603 8.99946 16.2507 8.99946C16.9411 8.99946 17.5007 8.43982 17.5007 7.74946ZM19.5007 11.7495C19.5007 11.0591 18.9411 10.4995 18.2507 10.4995C17.5603 10.4995 17.0007 11.0591 17.0007 11.7495C17.0007 12.4398 17.5603 12.9995 18.2507 12.9995C18.941 12.9995 19.5007 12.4398 19.5007 11.7495ZM8.5007 15.7495C8.5007 15.0591 7.94105 14.4995 7.2507 14.4995C6.56034 14.4995 6.0007 15.0591 6.0007 15.7495C6.0007 16.4398 6.56034 16.9995 7.2507 16.9995C7.94105 16.9995 8.5007 16.4398 8.5007 15.7495Z" fill="currentColor" />
</svg>