<svg xmlns="http://www.w3.org/2000/svg" width="24" height="24" viewBox="0 0 24 24" fill="none">
    <path fill-rule="evenodd" clip-rule="evenodd" d="M22.25 12.0526V12V11.9474C22.25 9.75474 22.25 8.03275 22.0693 6.68848C21.8842 5.31182 21.4969 4.21953 20.6387 3.36133C19.7805 2.50313 18.6882 2.11575 17.3115 1.93066C15.9672 1.74998 14.2452 1.74999 12.0526 1.75H12H11.9474C11.2519 1.75 10.6038 1.74999 10 1.75576V15H22.2274C22.25 14.1275 22.25 13.1488 22.25 12.0526ZM22.1073 17H10V22.2442C10.6037 22.25 11.2518 22.25 11.9473 22.25H12H12.0526C14.2453 22.25 15.9672 22.25 17.3115 22.0693C18.6882 21.8842 19.7805 21.4969 20.6387 20.6387C21.4969 19.7805 21.8842 18.6882 22.0693 17.3115C22.083 17.2099 22.0956 17.106 22.1073 17ZM8 22.1879C7.5273 22.1613 7.09096 22.1234 6.68848 22.0693C5.31182 21.8842 4.21953 21.4969 3.36133 20.6387C2.50313 19.7805 2.11575 18.6882 1.93066 17.3115C1.74998 15.9672 1.74999 14.2452 1.75 12.0526V12V11.9474C1.74999 9.75476 1.74998 8.03277 1.93066 6.68848C2.11575 5.31182 2.50313 4.21953 3.36133 3.36133C4.21953 2.50313 5.31182 2.11575 6.68848 1.93066C7.09096 1.87657 7.5273 1.83867 8 1.81212V22.1879Z" fill="currentColor" />
</svg>