<svg xmlns="http://www.w3.org/2000/svg" width="24" height="24" viewBox="0 0 24 24" fill="none">
    <path d="M22.2442 10H20.7441H3.25593H1.75576C1.74999 10.6037 1.75 11.2519 1.75 11.9474L1.75 12L1.75 12.0526C1.74999 14.2452 1.74998 15.9672 1.93066 17.3115C2.11575 18.6882 2.50313 19.7805 3.36133 20.6387C4.21953 21.4969 5.31182 21.8842 6.68848 22.0693C8.03276 22.25 9.75473 22.25 11.9474 22.25H12H12.0526C14.2452 22.25 15.9672 22.25 17.3115 22.0693C18.6882 21.8842 19.7805 21.4969 20.6387 20.6387C21.4969 19.7805 21.8842 18.6882 22.0693 17.3115C22.25 15.9672 22.25 14.2453 22.25 12.0526V12V11.9474C22.25 11.252 22.25 10.6037 22.2442 10ZM15.6973 17.7168C15.3013 18.1016 14.6682 18.093 14.2832 17.6973C14.091 17.4995 13.8456 17.187 13.6171 16.8962L13.5702 16.8364C13.5409 16.7991 13.5113 16.7615 13.4816 16.7237C13.3085 16.5036 13.1281 16.2756 12.9441 16.0538C12.9065 16.0086 12.8689 15.9636 12.8311 15.9189C12.5564 15.5948 12.3041 15.3254 12.0918 15.1445C12.0643 15.1212 12.0385 15.1015 12.0153 15.0839L12 15.0723L11.9847 15.0839C11.9615 15.1015 11.9356 15.1212 11.9082 15.1445C11.6959 15.3254 11.4436 15.5948 11.1689 15.9189C10.914 16.2198 10.6641 16.5381 10.4297 16.8366L10.3857 16.8926C10.1572 17.1835 9.90909 17.4994 9.7168 17.6973C9.33184 18.093 8.69867 18.1016 8.30274 17.7168C7.90698 17.3318 7.89836 16.6987 8.2832 16.3027C8.38512 16.1978 8.55648 15.9844 8.81348 15.6572L8.8651 15.5915C9.09404 15.2998 9.36473 14.955 9.64356 14.626C9.94005 14.2761 10.2746 13.9089 10.6113 13.6221C10.7801 13.4783 10.9733 13.3347 11.1826 13.2227C11.384 13.1149 11.6674 13 12 13C12.3326 13 12.616 13.1149 12.8174 13.2227C13.0267 13.3347 13.2199 13.4783 13.3887 13.6221C13.7254 13.9089 14.0599 14.2761 14.3564 14.626C14.6004 14.9138 14.8381 15.2138 15.047 15.4796C15.0769 15.5176 15.1061 15.5548 15.1348 15.5913L15.1865 15.6572C15.4435 15.9844 15.6149 16.1978 15.7168 16.3027C16.1016 16.6987 16.093 17.3318 15.6973 17.7168Z" fill="currentColor" />
    <path fill-rule="evenodd" clip-rule="evenodd" d="M20.6863 8H22.1883C22.1617 7.5273 22.1238 7.09096 22.0697 6.68848C21.8846 5.31182 21.4973 4.21953 20.6391 3.36133C19.7809 2.50313 18.6886 2.11575 17.3119 1.93066C15.9676 1.74998 14.2456 1.74999 12.053 1.75H12.0004H11.9478C9.75514 1.74999 8.03315 1.74998 6.68886 1.93066C5.3122 2.11575 4.21991 2.50313 3.36171 3.36133C2.50352 4.21953 2.11614 5.31182 1.93105 6.68848C1.87695 7.09096 1.83905 7.5273 1.8125 8H3.31445H20.6863Z" fill="currentColor" />
</svg>