<svg xmlns="http://www.w3.org/2000/svg" width="24" height="24" viewBox="0 0 24 24" fill="none">
    <path fill-rule="evenodd" clip-rule="evenodd" d="M3.11133 10C3.16047 9.99999 3.20879 9.99643 3.25603 9.98958C3.73967 9.91937 4.11133 9.50307 4.11133 9C4.11133 8.51682 3.76849 8.11369 3.31286 8.02036C3.24776 8.00702 3.18036 8.00001 3.11133 8H2C1.93543 8 1.87229 8.00612 1.81112 8.01781C1.83772 7.53826 1.87589 7.09601 1.93066 6.68848C2.11575 5.31182 2.50313 4.21953 3.36133 3.36133C4.21953 2.50313 5.31182 2.11575 6.68848 1.93066C8.03275 1.74998 9.75472 1.74999 11.9473 1.75H12H12.0526C14.2452 1.74999 15.9672 1.74998 17.3115 1.93066C18.6882 2.11575 19.7805 2.50313 20.6387 3.36133C21.4969 4.21953 21.8842 5.31182 22.0693 6.68848C22.1241 7.09601 22.1623 7.53826 22.1889 8.01781C22.1277 8.00612 22.0646 8 22 8H20.8887C20.8196 8.00001 20.7522 8.00702 20.6871 8.02036C20.2315 8.11369 19.8887 8.51682 19.8887 9C19.8887 9.50307 20.2603 9.91937 20.744 9.98958C20.7912 9.99643 20.8395 9.99999 20.8887 10H22C22.0842 10 22.1659 9.98961 22.244 9.97003C22.25 10.5823 22.25 11.2404 22.25 11.9474V12V12.0526C22.25 14.2452 22.25 15.9673 22.0693 17.3115C21.8842 18.6882 21.4969 19.7805 20.6387 20.6387C19.7805 21.4969 18.6882 21.8842 17.3115 22.0693C15.9672 22.25 14.2452 22.25 12.0526 22.25H12H11.9474C9.75475 22.25 8.03277 22.25 6.68848 22.0693C5.31182 21.8842 4.21953 21.4969 3.36133 20.6387C2.50313 19.7805 2.11575 18.6882 1.93066 17.3115C1.74998 15.9672 1.74999 14.2452 1.75 12.0526L1.75 12L1.75 11.9474C1.75 11.2404 1.74999 10.5823 1.75605 9.97003C1.83413 9.98961 1.91585 10 2 10H3.11133ZM7.55566 10C8.1079 9.99994 8.55566 9.55225 8.55566 9C8.55566 8.44775 8.1079 8.00006 7.55566 8H6.44434C5.8921 8.00006 5.44434 8.44775 5.44434 9C5.44434 9.55225 5.8921 9.99994 6.44434 10H7.55566ZM12.5557 10C13.1079 9.99994 13.5557 9.55225 13.5557 9C13.5557 8.44775 13.1079 8.00006 12.5557 8H11.4443C10.8921 8.00006 10.4443 8.44775 10.4443 9C10.4443 9.55225 10.8921 9.99994 11.4443 10H12.5557ZM17.5557 10C18.1079 9.99994 18.5557 9.55225 18.5557 9C18.5557 8.44775 18.1079 8.00006 17.5557 8H16.4443C15.8921 8.00006 15.4443 8.44775 15.4443 9C15.4443 9.55225 15.8921 9.99994 16.4443 10H17.5557Z" fill="currentColor" />
</svg>