<svg xmlns="http://www.w3.org/2000/svg" width="24" height="24" viewBox="0 0 24 24" fill="none">
    <path fill-rule="evenodd" clip-rule="evenodd" d="M3.11133 14C3.16047 14 3.20879 14.0036 3.25603 14.0104C3.73967 14.0806 4.11133 14.4969 4.11133 15C4.11133 15.4832 3.76849 15.8863 3.31286 15.9796C3.24776 15.993 3.18036 16 3.11133 16H2C1.93543 16 1.87229 15.9939 1.81112 15.9822C1.83772 16.4617 1.87589 16.904 1.93066 17.3115C2.11575 18.6882 2.50313 19.7805 3.36133 20.6387C4.21953 21.4969 5.31182 21.8842 6.68848 22.0693C8.03275 22.25 9.75472 22.25 11.9473 22.25H12H12.0526C14.2452 22.25 15.9672 22.25 17.3115 22.0693C18.6882 21.8842 19.7805 21.4969 20.6387 20.6387C21.4969 19.7805 21.8842 18.6882 22.0693 17.3115C22.1241 16.904 22.1623 16.4617 22.1889 15.9822C22.1277 15.9939 22.0646 16 22 16H20.8887C20.8196 16 20.7522 15.993 20.6871 15.9796C20.2315 15.8863 19.8887 15.4832 19.8887 15C19.8887 14.4969 20.2603 14.0806 20.744 14.0104C20.7912 14.0036 20.8395 14 20.8887 14H22C22.0842 14 22.1659 14.0104 22.244 14.03C22.25 13.4177 22.25 12.7596 22.25 12.0526V12V11.9474C22.25 9.7548 22.25 8.03274 22.0693 6.68848C21.8842 5.31182 21.4969 4.21953 20.6387 3.36133C19.7805 2.50313 18.6882 2.11575 17.3115 1.93066C15.9672 1.74998 14.2452 1.74999 12.0526 1.75H12H11.9474C9.75475 1.74999 8.03277 1.74998 6.68848 1.93066C5.31182 2.11575 4.21953 2.50313 3.36133 3.36133C2.50313 4.21953 2.11575 5.31182 1.93066 6.68848C1.74998 8.03276 1.74999 9.75475 1.75 11.9474L1.75 12L1.75 12.0526C1.75 12.7596 1.74999 13.4177 1.75605 14.03C1.83413 14.0104 1.91585 14 2 14H3.11133ZM7.55566 14C8.1079 14.0001 8.55566 14.4478 8.55566 15C8.55566 15.5522 8.1079 15.9999 7.55566 16H6.44434C5.8921 15.9999 5.44434 15.5522 5.44434 15C5.44434 14.4478 5.8921 14.0001 6.44434 14H7.55566ZM12.5557 14C13.1079 14.0001 13.5557 14.4478 13.5557 15C13.5557 15.5522 13.1079 15.9999 12.5557 16H11.4443C10.8921 15.9999 10.4443 15.5522 10.4443 15C10.4443 14.4478 10.8921 14.0001 11.4443 14H12.5557ZM17.5557 14C18.1079 14.0001 18.5557 14.4478 18.5557 15C18.5557 15.5522 18.1079 15.9999 17.5557 16H16.4443C15.8921 15.9999 15.4443 15.5522 15.4443 15C15.4443 14.4478 15.8921 14.0001 16.4443 14H17.5557Z" fill="currentColor" />
</svg>