<svg xmlns="http://www.w3.org/2000/svg" width="24" height="24" viewBox="0 0 24 24" fill="none">
    <path fill-rule="evenodd" clip-rule="evenodd" d="M14 1.75576C13.3962 1.74999 12.7481 1.75 12.0526 1.75H12H11.9474C9.75476 1.74999 8.03277 1.74998 6.68848 1.93066C5.31182 2.11575 4.21953 2.50313 3.36133 3.36133C2.50313 4.21953 2.11575 5.31182 1.93066 6.68848C1.74998 8.03277 1.74999 9.75476 1.75 11.9474V12V12.0526C1.74999 13.1488 1.74999 14.1274 1.77257 15H14V1.75576ZM1.89269 17C1.90437 17.106 1.917 17.2099 1.93066 17.3115C2.11575 18.6882 2.50313 19.7805 3.36133 20.6387C4.21953 21.4969 5.31182 21.8842 6.68848 22.0693C8.03275 22.25 9.75476 22.25 11.9474 22.25H12H12.0526C12.7481 22.25 13.3963 22.25 14 22.2442V17H1.89269ZM16 22.1879C16.4727 22.1613 16.909 22.1234 17.3115 22.0693C18.6882 21.8842 19.7805 21.4969 20.6387 20.6387C21.4969 19.7805 21.8842 18.6882 22.0693 17.3115C22.25 15.9672 22.25 14.2452 22.25 12.0526V12V11.9474C22.25 9.75474 22.25 8.03275 22.0693 6.68848C21.8842 5.31182 21.4969 4.21953 20.6387 3.36133C19.7805 2.50313 18.6882 2.11575 17.3115 1.93066C16.909 1.87657 16.4727 1.83867 16 1.81212V22.1879Z" fill="currentColor" />
</svg>