<svg xmlns="http://www.w3.org/2000/svg" width="24" height="24" viewBox="0 0 24 24" fill="none">
    <path fill-rule="evenodd" clip-rule="evenodd" d="M20.7441 10H22.2442C22.25 10.6037 22.25 11.2519 22.25 11.9473V12V12.0526C22.25 14.2453 22.25 15.9672 22.0693 17.3115C21.8842 18.6882 21.4969 19.7805 20.6387 20.6387C19.7805 21.4969 18.6882 21.8842 17.3115 22.0693C15.9672 22.25 14.2452 22.25 12.0526 22.25H12H11.9474C9.75474 22.25 8.03275 22.25 6.68848 22.0693C5.31182 21.8842 4.21953 21.4969 3.36133 20.6387C2.50313 19.7805 2.11575 18.6882 1.93066 17.3115C1.74998 15.9672 1.74999 14.2452 1.75 12.0526L1.75 12L1.75 11.9474C1.75 11.2519 1.74999 10.6037 1.75576 10H3.25593H20.7441ZM14.2929 13.7929C14.6834 13.4024 15.3164 13.4024 15.707 13.7929C16.0975 14.1834 16.0975 14.8164 15.707 15.207L12.707 18.207C12.3164 18.5975 11.6834 18.5975 11.2929 18.207L8.29289 15.207C7.90237 14.8164 7.90237 14.1834 8.29289 13.7929C8.68342 13.4024 9.31643 13.4024 9.70696 13.7929L11.9999 16.0859L14.2929 13.7929Z" fill="currentColor" />
    <path fill-rule="evenodd" clip-rule="evenodd" d="M20.6863 8H22.1883C22.1617 7.5273 22.1238 7.09096 22.0697 6.68848C21.8846 5.31182 21.4973 4.21953 20.6391 3.36133C19.7809 2.50313 18.6886 2.11575 17.3119 1.93066C15.9676 1.74998 14.2456 1.74999 12.053 1.75H12.0004H11.9478C9.75514 1.74999 8.03315 1.74998 6.68886 1.93066C5.3122 2.11575 4.21991 2.50313 3.36171 3.36133C2.50352 4.21953 2.11614 5.31182 1.93105 6.68848C1.87695 7.09096 1.83905 7.5273 1.8125 8H3.31445H20.6863Z" fill="currentColor" />
</svg>