<svg xmlns="http://www.w3.org/2000/svg" width="24" height="24" viewBox="0 0 24 24" fill="none">
    <path d="M12 22.75C17.9371 22.75 22.75 17.9371 22.75 12C22.75 6.06294 17.9371 1.25 12 1.25C6.06294 1.25 1.25 6.06294 1.25 12C1.25 17.9371 6.06294 22.75 12 22.75ZM9 19C8.44791 18.9998 8 18.5521 8 18L8 8.31934C7.99897 8.03767 7.99837 7.69163 8.09863 7.38281C8.29647 6.77394 8.77394 6.29647 9.38281 6.09863C9.69163 5.99837 10.0377 5.99897 10.3193 6H13C15.209 6 16.9998 7.79105 17 10C17 12.2091 15.2091 14 13 14H10L10 18C10 18.5523 9.55229 19 9 19ZM13 12C14.1046 12 15 11.1046 15 10C14.9998 8.89562 14.1044 8 13 8H10.4004C10.2035 8 10.0958 8.00061 10.0176 8.00488C10.0135 8.00511 10.0094 8.00563 10.0059 8.00586C10.0056 8.00943 10.0051 8.01346 10.0049 8.01758C10.0006 8.09582 10 8.20354 10 8.40039V12H13Z" fill="currentColor" />
</svg>