<svg xmlns="http://www.w3.org/2000/svg" width="24" height="24" viewBox="0 0 24 24" fill="none">
    <path d="M17.2501 11C17.2501 12.5188 18.4813 13.75 20.0001 13.75C21.5188 13.75 22.7501 12.5188 22.7501 11C22.7501 9.48122 21.5188 8.25 20.0001 8.25C18.4813 8.25 17.2501 9.48122 17.2501 11Z" fill="currentColor" />
    <path d="M12.7501 6C12.7501 7.51878 13.9813 8.75 15.5001 8.75C17.0188 8.75 18.2501 7.51878 18.2501 6C18.2501 4.48122 17.0188 3.25 15.5001 3.25C13.9813 3.25 12.7501 4.48122 12.7501 6Z" fill="currentColor" />
    <path d="M11.2501 6C11.2501 7.51878 10.0188 8.75 8.50006 8.75C6.98128 8.75 5.75006 7.51878 5.75006 6C5.75006 4.48122 6.98128 3.25 8.50006 3.25C10.0188 3.25 11.2501 4.48122 11.2501 6Z" fill="currentColor" />
    <path d="M6.75006 11C6.75006 12.5188 5.51884 13.75 4.00006 13.75C2.48128 13.75 1.25006 12.5188 1.25006 11C1.25006 9.48122 2.48128 8.25 4.00006 8.25C5.51884 8.25 6.75006 9.48122 6.75006 11Z" fill="currentColor" />
    <path d="M19.7501 17.583C19.7501 18.4252 19.456 19.1735 18.8829 19.791C18.2956 20.4236 17.5455 20.7499 16.6817 20.75C15.8543 20.75 15.0335 20.6842 14.2208 20.5527C13.4877 20.4342 12.7476 20.375 12.0001 20.375C11.2525 20.375 10.5124 20.4342 9.77936 20.5527C8.96662 20.6842 8.14579 20.75 7.31842 20.75C6.45464 20.7499 5.70447 20.4236 5.11725 19.791C4.54417 19.1735 4.25006 18.4252 4.25006 17.583C4.25014 16.66 4.58896 15.8443 5.23444 15.1689C5.75308 14.6263 6.26795 14.0903 6.77936 13.5615C7.16205 13.1719 7.49512 12.745 7.77057 12.2891C8.10154 11.7412 8.49389 11.229 8.94537 10.752L9.0899 10.5967C9.43288 10.2415 9.82191 9.94156 10.2559 9.69922C10.7933 9.39919 11.3794 9.25 12.0001 9.25C12.6125 9.25 13.1921 9.3882 13.7266 9.66895C14.2305 9.93369 14.6746 10.282 15.0547 10.71C15.4927 11.1878 15.8799 11.7026 16.2169 12.2549C16.501 12.7206 16.8348 13.1563 17.2198 13.5615C17.7312 14.0903 18.247 14.6263 18.7657 15.1689C19.4112 15.8443 19.75 16.66 19.7501 17.583Z" fill="currentColor" />
</svg>