<svg xmlns="http://www.w3.org/2000/svg" width="24" height="24" viewBox="0 0 24 24" fill="none">
    <path d="M20.25 19.25C20.8023 19.25 21.25 19.6977 21.25 20.25C21.25 20.8023 20.8023 21.25 20.25 21.25H12.25C11.6977 21.25 11.25 20.8023 11.25 20.25C11.25 19.6977 11.6977 19.25 12.25 19.25H20.25Z" fill="currentColor" />
    <path d="M17.3233 2.75907C17.7971 2.80182 18.1794 3.01892 18.5245 3.29032C18.8453 3.5426 19.1992 3.89655 19.6092 4.30669L19.6515 4.34892L19.694 4.39147C20.104 4.80139 20.4579 5.15516 20.7101 5.47587C20.9814 5.82101 21.1976 6.20324 21.2403 6.67704C21.2524 6.8112 21.2524 6.9462 21.2403 7.08036C21.1977 7.55406 20.9813 7.93645 20.7101 8.28153C20.4546 8.60635 20.095 8.96595 19.6783 9.38261L19.6515 9.40946L9.7872 19.2737L9.68516 19.3758C8.91727 20.1445 8.38333 20.6789 7.69248 20.9651C7.00171 21.2513 6.24632 21.2509 5.16009 21.2503L5.01474 21.2503H3.50009C3.08588 21.2503 2.75009 20.9145 2.75009 20.5003V18.9856L2.75005 18.8404C2.74951 17.754 2.74913 16.9987 3.03525 16.3079C3.322 15.6156 3.85765 15.0805 4.62878 14.31L4.72666 14.2122L14.5909 4.34892L14.6331 4.30669C15.0432 3.89655 15.3971 3.5426 15.7179 3.29032C16.063 3.01892 16.4453 2.80182 16.919 2.75907C17.0533 2.74698 17.189 2.74698 17.3233 2.75907Z" fill="currentColor" />
</svg>