<svg xmlns="http://www.w3.org/2000/svg" width="24" height="24" viewBox="0 0 24 24" fill="none">
    <path d="M1.29305 1.29289C1.68357 0.902369 2.31658 0.902369 2.70711 1.29289L22.7071 21.2929C23.0976 21.6834 23.0976 22.3164 22.7071 22.707C22.3166 23.0975 21.6836 23.0975 21.293 22.707L1.29305 2.70696C0.902521 2.31643 0.902521 1.68342 1.29305 1.29289Z" fill="currentColor" />
    <path fill-rule="evenodd" clip-rule="evenodd" d="M9.46975 9.46965L4.72673 14.2122L4.62886 14.31C3.85773 15.0805 3.32207 15.6156 3.03533 16.3079C2.74921 16.9987 2.74958 17.754 2.75012 18.8404L2.75017 18.9856V20.5003C2.75017 20.9145 3.08596 21.2503 3.50017 21.2503H5.01482L5.16016 21.2503C6.2464 21.2509 7.00179 21.2513 7.69255 20.9651C8.38341 20.6789 8.91735 20.1445 9.68524 19.3758L9.78728 19.2737L14.5306 14.5304L9.46975 9.46965ZM16.1213 12.9397L17.3234 11.7376L12.2627 6.67693L11.0606 7.87898L16.1213 12.9397ZM17.3234 2.75907C17.7972 2.80182 18.1795 3.01892 18.5246 3.29032C18.8454 3.5426 19.1993 3.89655 19.6093 4.30669L19.6515 4.34892L19.6941 4.39147C20.1041 4.80139 20.4579 5.15516 20.7101 5.47587C20.9815 5.82101 21.1977 6.20324 21.2404 6.67704C21.2525 6.8112 21.2525 6.9462 21.2404 7.08036C21.1977 7.55406 20.9814 7.93645 20.7101 8.28153C20.4547 8.60635 20.0951 8.96595 19.6784 9.38261L19.6515 9.40946L18.7375 10.3235L13.6769 5.26293L14.591 4.34892L14.6333 4.30662C15.0433 3.89652 15.3972 3.54258 15.7179 3.29032C16.0631 3.01892 16.4453 2.80182 16.9191 2.75907C17.0534 2.74698 17.1891 2.74698 17.3234 2.75907Z" fill="currentColor" />
</svg>