<svg xmlns="http://www.w3.org/2000/svg" width="24" height="24" viewBox="0 0 24 24" fill="none">
    <path d="M20.25 19.25C20.8023 19.25 21.25 19.6977 21.25 20.25C21.25 20.8023 20.8023 21.25 20.25 21.25H12.25C11.6977 21.25 11.25 20.8023 11.25 20.25C11.25 19.6977 11.6977 19.25 12.25 19.25H20.25Z" fill="currentColor" />
    <path fill-rule="evenodd" clip-rule="evenodd" d="M18.5245 3.29032C18.1794 3.01892 17.7971 2.80182 17.3233 2.75907C17.189 2.74698 17.0533 2.74698 16.919 2.75907C16.4453 2.80182 16.063 3.01892 15.7179 3.29032C15.3971 3.54259 15.0432 3.89652 14.6332 4.30662L14.5909 4.34892L13.6768 5.26293L18.7374 10.3235L19.6515 9.40946L19.6783 9.38261C20.095 8.96595 20.4546 8.60635 20.7101 8.28153C20.9813 7.93645 21.1977 7.55406 21.2403 7.08036C21.2524 6.9462 21.2524 6.8112 21.2403 6.67704C21.1976 6.20324 20.9814 5.82101 20.7101 5.47587C20.4579 5.15516 20.104 4.80139 19.694 4.39147L19.6515 4.34892L19.6092 4.30669C19.1992 3.89655 18.8453 3.5426 18.5245 3.29032ZM17.3233 11.7376L12.2627 6.67693L4.72666 14.2122L4.62878 14.31C3.85765 15.0805 3.322 15.6156 3.03525 16.3079C2.74913 16.9987 2.74951 17.754 2.75005 18.8404L2.75009 18.9856V20.5003C2.75009 20.9145 3.08588 21.2503 3.50009 21.2503H5.01474L5.16009 21.2503C6.24632 21.2509 7.00171 21.2513 7.69248 20.9651C8.38333 20.6789 8.91727 20.1445 9.68516 19.3758L9.7872 19.2737L17.3233 11.7376Z" fill="currentColor" />
</svg>