<svg xmlns="http://www.w3.org/2000/svg" width="24" height="24" viewBox="0 0 24 24" fill="none">
    <path fill-rule="evenodd" clip-rule="evenodd" d="M17.0776 12.2028L17.0875 12.1929L17.0978 12.1826C17.0978 12.1826 17.0978 12.1826 17.0978 12.1826C17.5855 11.6949 18.0044 11.276 18.2936 10.897" fill="currentColor" />
    <path d="M18.8278 9.51123C18.8277 10.056 18.5979 10.4981 18.2936 10.897C18.0044 11.276 17.5855 11.6949 17.0978 12.1826L17.0875 12.1929L17.0776 12.2028C16.5898 12.6906 16.1707 13.1097 15.7916 13.3989C15.3927 13.7032 14.9506 13.933 14.4059 13.9331C13.8609 13.9331 13.4182 13.7034 13.0192 13.3989C12.644 13.1127 12.2303 12.6989 11.7489 12.2176L11.7242 12.1929L11.6988 12.1674C11.2176 11.6862 10.8034 11.2721 10.5172 10.897C10.2129 10.4981 9.98314 10.0559 9.98303 9.51123C9.98303 8.9663 10.2128 8.5235 10.5172 8.12451C10.8005 7.7532 11.2092 7.34454 11.6842 6.86959L11.7242 6.82959L11.7639 6.7899C12.239 6.31475 12.6478 5.90592 13.0192 5.62256C13.4181 5.31816 13.861 5.08838 14.4059 5.08838C14.9506 5.08849 15.3928 5.31827 15.7916 5.62256C16.1668 5.90882 16.5811 6.3231 17.0624 6.80446L17.0875 6.82959L17.1125 6.8546C17.5938 7.3358 18.0074 7.7494 18.2936 8.12451C18.598 8.52352 18.8278 8.96627 18.8278 9.51123Z" fill="currentColor" />
    <path d="M10.7965 3.05909C9.38349 1.64613 7.09236 1.64619 5.67931 3.05909C5.38647 3.35194 5.38656 3.82673 5.67931 4.11964L9.27742 7.71774C9.35717 7.59137 9.44037 7.47411 9.52306 7.36573C9.72513 7.1009 9.97354 6.82797 10.2364 6.55563C10.4067 6.37915 10.5831 6.20292 10.7569 6.0293L10.8404 5.94581L10.9238 5.86241C10.941 5.84517 10.9583 5.82789 10.9756 5.8106C11.0504 5.73568 11.1258 5.66041 11.2013 5.58556C11.5553 5.23484 11.9147 4.89217 12.2604 4.62843C12.2801 4.61334 12.3002 4.59824 12.3206 4.58315L10.7965 3.05909Z" fill="currentColor" />
    <path d="M12.5131 14.5741C12.424 14.5145 12.3398 14.4536 12.2604 14.393C11.9686 14.1704 11.6667 13.8917 11.3668 13.5993C11.2146 13.4511 11.0629 13.2993 10.9132 13.1495L10.8404 13.0766L10.7664 13.0026C10.644 12.8803 10.5202 12.7566 10.3981 12.6324C10.0764 12.3052 9.76618 11.9744 9.52305 11.6557C9.485 11.6059 9.44685 11.5541 9.40898 11.5005L2.63828 18.2712C1.78552 19.1242 1.78538 20.5071 2.63828 21.3601C3.4912 22.2129 4.87419 22.2128 5.72715 21.3601L12.5131 14.5741Z" fill="currentColor" />
    <path d="M19.3358 11.5942C19.3203 11.6152 19.3048 11.6358 19.2893 11.6561C19.026 12.0012 18.6845 12.3606 18.3347 12.7142C18.2634 12.7863 18.1918 12.8581 18.1204 12.9295C18.0926 12.9573 18.064 12.9859 18.0364 13.0135L17.9729 13.077L17.9095 13.1404C17.7298 13.3201 17.5471 13.503 17.3641 13.6792C17.091 13.9424 16.8173 14.191 16.552 14.3934C16.4441 14.4757 16.3274 14.5585 16.2018 14.638L19.8811 18.3172C20.0217 18.4579 20.2124 18.537 20.4113 18.537C20.6102 18.537 20.801 18.4579 20.9416 18.3172C22.3547 16.9042 22.3547 14.6131 20.9416 13.2001L19.3358 11.5942Z" fill="currentColor" />
</svg>