<svg xmlns="http://www.w3.org/2000/svg" width="24" height="24" viewBox="0 0 24 24" fill="none">
    <path d="M9 14V3C9 2.44772 9.44772 2 10 2C10.5523 2 11 2.44772 11 3V14C11 14.5523 10.5523 15 10 15C9.44772 15 9 14.5523 9 14Z" fill="currentColor" />
    <path d="M12 14V3C12 2.44772 12.4477 2 13 2C13.5523 2 14 2.44772 14 3V14C14 14.5523 13.5523 15 13 15C12.4477 15 12 14.5523 12 14Z" fill="currentColor" />
    <path d="M3 6C3 4.95063 3.40211 3.93728 4.12793 3.18457C4.85486 2.43083 5.84836 2.00008 6.89258 2H14C14.5523 2 15 2.44772 15 3C15 3.55228 14.5523 4 14 4H6.89258C6.40264 4.00008 5.92533 4.20204 5.56738 4.57324C5.20823 4.94575 5 5.45812 5 6C5 6.54188 5.20823 7.05425 5.56738 7.42676C5.92533 7.79796 6.40264 7.99992 6.89258 8H10C10.5523 8 11 8.44772 11 9C11 9.55228 10.5523 10 10 10H6.89258C5.84836 9.99992 4.85486 9.56917 4.12793 8.81543C3.40211 8.06272 3 7.04937 3 6Z" fill="currentColor" />
    <path d="M15.7314 13.3602C16.0848 12.9359 16.7153 12.8781 17.1396 13.2313C17.3797 13.4312 17.7054 13.6809 18.0947 13.9852C18.4728 14.2807 18.8957 14.6158 19.29 14.9588C19.6794 15.2974 20.0718 15.6702 20.374 16.0428C20.6367 16.3667 21 16.8887 21 17.4998C21 18.111 20.6367 18.6329 20.374 18.9569C20.0718 19.3295 19.6794 19.7022 19.29 20.0408C18.8957 20.3838 18.4728 20.719 18.0947 21.0145C17.7054 21.3187 17.3797 21.5684 17.1396 21.7684C16.7153 22.1215 16.0848 22.0637 15.7314 21.6395C15.3783 21.2151 15.4361 20.5847 15.8604 20.2313C16.1321 20.0049 16.5006 19.7218 16.8633 19.4383C17.2372 19.1461 17.6251 18.8376 17.9775 18.5311C17.9894 18.5207 18.001 18.5101 18.0127 18.4998H4C3.44772 18.4998 3 18.0521 3 17.4998C3 16.9475 3.44772 16.4998 4 16.4998H18.0127C18.001 16.4895 17.9894 16.4789 17.9775 16.4686C17.6251 16.1621 17.2372 15.8535 16.8633 15.5613C16.5006 15.2779 16.1321 14.9948 15.8604 14.7684C15.4361 14.415 15.3783 13.7845 15.7314 13.3602Z" fill="currentColor" />
</svg>