<svg xmlns="http://www.w3.org/2000/svg" width="24" height="24" viewBox="0 0 24 24" fill="none">
    <path d="M7.99982 7V2C7.99982 1.44772 8.44753 1 8.99982 1C9.5521 1 9.99982 1.44772 9.99982 2V7C9.99982 7.55228 9.5521 8 8.99982 8C8.44753 8 7.99982 7.55228 7.99982 7Z" fill="currentColor" />
    <path d="M13.9998 7V2C13.9998 1.44772 14.4475 1 14.9998 1C15.5521 1 15.9998 1.44772 15.9998 2V7C15.9998 7.55228 15.5521 8 14.9998 8C14.4475 8 13.9998 7.55228 13.9998 7Z" fill="currentColor" />
    <path d="M10.9998 22V18C10.9998 17.4477 11.4475 17 11.9998 17C12.5521 17 12.9998 17.4477 12.9998 18V22C12.9998 22.5523 12.5521 23 11.9998 23C11.4475 23 10.9998 22.5523 10.9998 22Z" fill="currentColor" />
    <path d="M18.9998 6C19.5521 6 19.9998 6.44772 19.9998 7C19.9998 7.55228 19.5521 8 18.9998 8H4.99982C4.44753 8 3.99982 7.55228 3.99982 7C3.99982 6.44772 4.44753 6 4.99982 6H18.9998Z" fill="currentColor" />
    <path d="M18.7498 10C18.7498 11.7674 18.0559 13.4626 16.8201 14.7236C16.8189 14.7271 16.8155 14.7362 16.8143 14.7402C16.8083 14.7595 16.8017 14.7842 16.7947 14.8145L16.7881 14.8434C16.6206 15.5721 16.4873 16.1524 16.3582 16.5938C16.232 17.0252 16.0825 17.4307 15.8338 17.7363C15.553 18.0813 15.314 18.2714 14.9149 18.4678C14.5905 18.6273 14.2562 18.6918 13.8992 18.7217C13.5608 18.75 13.1518 18.75 12.668 18.75H12.6395H11.3602L11.3134 18.75C10.8568 18.75 10.4705 18.7501 10.1502 18.7246C9.80824 18.6974 9.48746 18.638 9.17462 18.4922C9.00255 18.412 8.84136 18.3282 8.68439 18.2109C8.52754 18.0937 8.40184 17.9634 8.27618 17.8213C8.02321 17.5351 7.85303 17.1306 7.70099 16.6992C7.54249 16.2495 7.36486 15.649 7.13961 14.8875L7.13361 14.8672C7.07378 14.6649 7.00867 14.5694 6.96954 14.5303C5.66658 13.2273 5.24982 11.7308 5.24982 10V7C5.24982 6.58579 5.5856 6.25 5.99982 6.25H17.9998C18.414 6.25 18.7498 6.58579 18.7498 7V10Z" fill="currentColor" />
</svg>