<svg xmlns="http://www.w3.org/2000/svg" width="24" height="24" viewBox="0 0 24 24" fill="none">
    <path d="M11.2393 20.0001V12.7598H3.99902C3.57929 12.7598 3.23926 12.4198 3.23926 12.0001C3.23926 11.5803 3.57929 11.2403 3.99902 11.2403H11.2393V4.00006C11.2393 3.58032 11.5793 3.2403 11.999 3.2403C12.4188 3.2403 12.7588 3.58032 12.7588 4.00006V11.2403H19.999C20.4188 11.2403 20.7588 11.5803 20.7588 12.0001C20.7588 12.4198 20.4188 12.7598 19.999 12.7598H12.7588V20.0001C12.7588 20.4198 12.4188 20.7598 11.999 20.7598C11.5793 20.7598 11.2393 20.4198 11.2393 20.0001Z" fill="currentColor" />
</svg>