<svg xmlns="http://www.w3.org/2000/svg" width="24" height="24" viewBox="0 0 24 24" fill="none">
    <path d="M12.496 4C10.0107 4 7.996 6.01472 7.996 8.5C7.996 10.9853 10.0107 13 12.496 13H14.996C15.5483 13 15.996 13.4477 15.996 14C15.996 14.5523 15.5483 15 14.996 15H11.2715C10.4574 16.7762 9.38102 18.5945 8.0161 20H16.8673L16.8689 20L16.8721 19.9999C16.8791 19.9998 16.8925 19.9994 16.9116 19.9986C16.95 19.997 17.0112 19.9935 17.0906 19.9861C17.2502 19.9712 17.4777 19.941 17.7375 19.8803C18.2712 19.7558 18.865 19.521 19.3137 19.1023C19.7174 18.7254 20.3502 18.7473 20.7271 19.151C21.1039 19.5548 21.0821 20.1876 20.6783 20.5644C19.877 21.3123 18.9083 21.6609 18.192 21.828C17.8268 21.9132 17.5074 21.9559 17.2764 21.9774C17.1397 21.992 16.9492 21.9986 16.871 22H4.996C4.52717 22 4.12128 21.6743 4.01974 21.2166C3.9182 20.7589 4.14827 20.2921 4.57312 20.0938C6.36473 19.2577 7.88158 17.2986 9.05095 15H3.996C3.44372 15 2.996 14.5523 2.996 14C2.996 13.4477 3.44372 13 3.996 13H7.80557C6.68481 11.8321 5.996 10.2465 5.996 8.5C5.996 4.91015 8.90615 2 12.496 2C16.0859 2 18.996 4.91015 18.996 8.5C18.996 9.05228 18.5483 9.5 17.996 9.5C17.4437 9.5 16.996 9.05228 16.996 8.5C16.996 6.01472 14.9813 4 12.496 4Z" fill="currentColor" />
</svg>