<svg xmlns="http://www.w3.org/2000/svg" width="24" height="24" viewBox="0 0 24 24" fill="none">
    <path d="M8.9922 12.0004C8.9922 11.2403 9.27596 10.5433 9.7422 10.0151C10.1077 9.60107 10.7403 9.56173 11.1543 9.92717C11.5683 10.2926 11.6076 10.9252 11.2422 11.3393C11.0861 11.5162 10.9922 11.7462 10.9922 12.0004C10.9924 12.5525 11.44 13.0004 11.9922 13.0004C12.2465 13.0004 12.4765 12.9065 12.6533 12.7504C13.0673 12.385 13.699 12.4244 14.0645 12.8383C14.4299 13.2524 14.3906 13.884 13.9766 14.2494C13.4483 14.7157 12.7524 15.0004 11.9922 15.0004C10.3355 15.0004 8.99238 13.6571 8.9922 12.0004Z" fill="currentColor" />
    <path d="M1.28517 1.29314C1.6757 0.902613 2.30871 0.902613 2.69923 1.29314L22.6992 21.2931C23.0898 21.6837 23.0898 22.3167 22.6992 22.7072C22.3087 23.0977 21.6757 23.0977 21.2852 22.7072L1.28517 2.7072C0.894648 2.31668 0.894648 1.68366 1.28517 1.29314Z" fill="currentColor" />
    <path d="M4.9922 12.0002C4.9922 10.3017 5.5552 8.52311 6.78517 7.29314C7.1757 6.90261 7.80871 6.90261 8.19923 7.29314C8.58976 7.68366 8.58976 8.31668 8.19923 8.7072C7.42921 9.47723 6.9922 10.6986 6.9922 12.0002C6.9922 13.3017 7.42921 14.5231 8.19923 15.2931C8.58976 15.6837 8.58976 16.3167 8.19923 16.7072C7.80871 17.0977 7.1757 17.0977 6.78517 16.7072C5.5552 15.4772 4.9922 13.6986 4.9922 12.0002Z" fill="currentColor" />
    <path d="M0.992203 12.0002C0.992203 9.20718 2.11823 6.96008 3.78517 5.29314C4.1757 4.90261 4.80871 4.90261 5.19923 5.29314C5.58976 5.68366 5.58976 6.31668 5.19923 6.7072C3.86618 8.04026 2.9922 9.79315 2.9922 12.0002C2.9922 14.2072 3.86618 15.9601 5.19923 17.2931C5.58976 17.6837 5.58976 18.3167 5.19923 18.7072C4.80871 19.0977 4.1757 19.0977 3.78517 18.7072C2.11823 17.0403 0.992203 14.7932 0.992203 12.0002Z" fill="currentColor" />
    <path d="M16.9922 12.0002C16.9922 10.6986 16.5552 9.47723 15.7852 8.7072C15.3946 8.31668 15.3946 7.68366 15.7852 7.29314C16.1757 6.90261 16.8087 6.90261 17.1992 7.29314C18.4292 8.52311 18.9922 10.3017 18.9922 12.0002C18.9922 12.5808 18.9269 13.1636 18.7949 13.7277C18.6691 14.2654 18.1314 14.5994 17.5938 14.4738C17.0561 14.348 16.722 13.8103 16.8477 13.2726C16.9436 12.8624 16.9922 12.4323 16.9922 12.0002Z" fill="currentColor" />
    <path d="M20.9922 12.0002C20.9922 9.79315 20.1182 8.04026 18.7852 6.7072C18.3946 6.31668 18.3946 5.68366 18.7852 5.29314C19.1757 4.90261 19.8087 4.90261 20.1992 5.29314C21.8662 6.96008 22.9922 9.20718 22.9922 12.0002C22.9922 13.6917 22.5788 15.1938 21.8701 16.4914C21.6054 16.9761 20.9974 17.1545 20.5127 16.8898C20.028 16.6251 19.8496 16.0171 20.1143 15.5324C20.6636 14.5265 20.9922 13.3541 20.9922 12.0002Z" fill="currentColor" />
</svg>