<svg xmlns="http://www.w3.org/2000/svg" width="24" height="24" viewBox="0 0 24 24" fill="none">
    <path fill-rule="evenodd" clip-rule="evenodd" d="M14.7922 1.52494C15.1235 1.96676 15.034 2.59357 14.5922 2.92494L10.5922 5.92494C10.1503 6.25631 9.52353 6.16676 9.19215 5.72494C8.86078 5.28311 8.95033 4.65631 9.39215 4.32494L13.3922 1.32494C13.834 0.993566 14.4608 1.08311 14.7922 1.52494Z" fill="currentColor" />
    <path d="M13.542 4.37488C15.3787 4.37487 16.8256 4.37464 17.9668 4.5116C19.1354 4.65185 20.083 4.94543 20.8672 5.60339C21.101 5.79968 21.3174 6.016 21.5136 6.24988C22.1716 7.03401 22.4652 7.98165 22.6054 9.15027C22.7424 10.2914 22.7422 11.7384 22.7422 13.5751V13.6747C22.7422 15.5114 22.7424 16.9583 22.6054 18.0995C22.4652 19.2681 22.1716 20.2157 21.5136 20.9999C21.3174 21.2338 21.101 21.4501 20.8672 21.6464C20.083 22.3043 19.1354 22.5979 17.9668 22.7382C16.8256 22.8751 15.3787 22.8749 13.542 22.8749H10.4424C8.60565 22.8749 7.15871 22.8751 6.01755 22.7382C4.84893 22.5979 3.90129 22.3043 3.11716 21.6464C2.88327 21.4501 2.66696 21.2338 2.47067 20.9999C1.81271 20.2157 1.51913 19.2681 1.37888 18.0995C1.24191 16.9583 1.24215 15.5114 1.24216 13.6747V13.5751C1.24215 11.7384 1.24191 10.2914 1.37888 9.15027C1.51913 7.98166 1.81271 7.03401 2.47067 6.24988C2.66696 6.016 2.88327 5.79968 3.11716 5.60339C3.90129 4.94543 4.84893 4.65185 6.01755 4.5116C7.15872 4.37464 8.60564 4.37487 10.4424 4.37488H13.542ZM14.9922 10.1249C13.0592 10.1249 11.4922 11.6919 11.4922 13.6249C11.4922 15.5579 13.0592 17.1249 14.9922 17.1249C16.9252 17.1249 18.4922 15.5579 18.4922 13.6249C18.4922 11.6919 16.9252 10.1249 14.9922 10.1249ZM6.49216 14.1249C5.93987 14.1249 5.49216 14.5726 5.49216 15.1249C5.49216 15.6772 5.93987 16.1249 6.49216 16.1249H7.49216C8.04444 16.1249 8.49216 15.6772 8.49216 15.1249C8.49216 14.5726 8.04444 14.1249 7.49216 14.1249H6.49216ZM6.49216 11.1249C5.93987 11.1249 5.49216 11.5726 5.49216 12.1249C5.49216 12.6772 5.93987 13.1249 6.49216 13.1249H7.49216C8.04444 13.1249 8.49216 12.6772 8.49216 12.1249C8.49216 11.5726 8.04444 11.1249 7.49216 11.1249H6.49216Z" fill="currentColor" />
</svg>