<svg xmlns="http://www.w3.org/2000/svg" width="24" height="24" viewBox="0 0 24 24" fill="none">
    <path d="M22.7422 12V12.0487C22.7423 13.413 22.7423 14.4836 22.6719 15.3447C22.6 16.2249 22.4506 16.9522 22.1153 17.6104C21.564 18.6923 20.6845 19.5718 19.6026 20.123C18.9445 20.4584 18.2171 20.6078 17.337 20.6797C16.4759 20.75 15.4053 20.75 14.041 20.75H13.9922H9.99225H9.94354C8.57924 20.75 7.50863 20.75 6.64752 20.6797C5.76738 20.6078 5.04003 20.4584 4.3819 20.123C3.29998 19.5718 2.42047 18.6923 1.8692 17.6104C1.53387 16.9522 1.38447 16.2249 1.31256 15.3447C1.24223 14.4836 1.24224 13.413 1.24225 12.0487V12V11.9513C1.24224 10.587 1.24223 9.51637 1.31256 8.65527C1.38447 7.77513 1.53387 7.04778 1.8692 6.38965C2.42047 5.30773 3.29998 4.42822 4.3819 3.87695C5.04003 3.54162 5.76738 3.39222 6.64752 3.32031C7.50862 3.24998 8.57923 3.24999 9.94353 3.25H9.99225H13.9922H14.041C15.4053 3.24999 16.4759 3.24998 17.337 3.32031C18.2171 3.39222 18.9445 3.54162 19.6026 3.87695C20.6845 4.42822 21.564 5.30774 22.1153 6.38965C22.4506 7.04778 22.6 7.77513 22.6719 8.65527C22.7423 9.51638 22.7423 10.587 22.7422 11.9513V12ZM8.99225 12C8.99225 11.4477 8.54453 11 7.99225 11C7.43996 11 6.99225 11.4477 6.99225 12C6.99225 12.5523 7.43996 13 7.99225 13C8.54453 13 8.99225 12.5523 8.99225 12ZM12.9932 12C12.9932 11.4821 12.5993 11.0559 12.0948 11.0049L11.9932 11C11.4756 11 11.0494 11.3933 10.9981 11.8975L10.9932 12L10.9981 12.1025C11.0494 12.6067 11.4756 13 11.9932 13C12.5454 12.9999 12.9932 12.5522 12.9932 12ZM16.9922 12C16.9922 11.4477 16.5445 11 15.9922 11C15.44 11 14.9922 11.4477 14.9922 12C14.9922 12.5523 15.44 13 15.9922 13C16.5445 13 16.9922 12.5523 16.9922 12Z" fill="currentColor" />
</svg>