<svg xmlns="http://www.w3.org/2000/svg" width="24" height="24" viewBox="0 0 24 24" fill="none">
    <path d="M11.9922 22.75L11.9434 22.75C10.5791 22.75 9.50854 22.75 8.64746 22.6797C7.76732 22.6078 7.03997 22.4584 6.38184 22.123C5.29992 21.5718 4.42041 20.6923 3.86914 19.6104C3.53381 18.9522 3.38441 18.2249 3.3125 17.3447C3.24217 16.4836 3.24218 15.4131 3.24219 14.0488L3.24219 14L3.24219 10L3.24219 9.95119C3.24218 8.58694 3.24217 7.51636 3.3125 6.65527C3.38441 5.77513 3.53381 5.04778 3.86914 4.38965C4.42041 3.30773 5.29992 2.42822 6.38184 1.87695C7.03997 1.54162 7.76732 1.39222 8.64746 1.32031C9.50857 1.24998 10.5792 1.24999 11.9435 1.25L11.9922 1.25L12.0409 1.25C13.4052 1.24999 14.4758 1.24998 15.3369 1.32031C16.2171 1.39222 16.9444 1.54162 17.6025 1.87695C18.6845 2.42822 19.564 3.30773 20.1152 4.38965C20.4506 5.04778 20.6 5.77513 20.6719 6.65527C20.7422 7.51638 20.7422 8.58699 20.7422 9.9513L20.7422 10L20.7422 14L20.7422 14.0487C20.7422 15.413 20.7422 16.4836 20.6719 17.3447C20.6 18.2249 20.4506 18.9522 20.1152 19.6104C19.564 20.6923 18.6845 21.5718 17.6025 22.123C16.9444 22.4584 16.2171 22.6078 15.3369 22.6797C14.4758 22.75 13.4052 22.75 12.041 22.75L11.9922 22.75Z" fill="currentColor" />
</svg>