<svg xmlns="http://www.w3.org/2000/svg" width="24" height="24" viewBox="0 0 24 24" fill="none">
    <path d="M1.99219 14C1.99219 10.134 5.12619 7 8.99219 7H20.9922C21.5445 7 21.9922 7.44772 21.9922 8C21.9922 8.55228 21.5445 9 20.9922 9H8.99219C6.23076 9 3.99219 11.2386 3.99219 14C3.99219 16.7614 6.23076 19 8.99219 19H12.9922C13.5445 19 13.9922 19.4477 13.9922 20C13.9922 20.5523 13.5445 21 12.9922 21H8.99219C5.12619 21 1.99219 17.866 1.99219 14Z" fill="currentColor" />
    <path d="M19.9918 7.99961C19.9918 7.903 19.9655 7.7227 19.5689 7.3209C19.1567 6.90333 18.5144 6.41221 17.5406 5.67246L16.3873 4.79551C15.9476 4.46144 15.8619 3.83489 16.1959 3.39512C16.53 2.95537 17.1565 2.8697 17.5963 3.20371L18.7506 4.07969C19.6743 4.78142 20.4553 5.37214 20.9918 5.91562C21.5436 6.4746 21.9918 7.13503 21.9918 7.99961C21.9918 8.86419 21.5436 9.52462 20.9918 10.0836C20.4553 10.6271 19.6743 11.2178 18.7506 11.9195L17.5963 12.7955C17.1565 13.1295 16.53 13.0438 16.1959 12.6041C15.8619 12.1643 15.9476 11.5378 16.3873 11.2037L17.5406 10.3268C18.5144 9.58701 19.1567 9.09589 19.5689 8.67832C19.9655 8.27652 19.9918 8.09622 19.9918 7.99961Z" fill="currentColor" />
</svg>