<svg xmlns="http://www.w3.org/2000/svg" width="24" height="24" viewBox="0 0 24 24" fill="none">
    <path d="M20.8271 10.0059C21.3759 9.94519 21.8708 10.3409 21.9316 10.8896C21.972 11.2544 21.9922 11.6252 21.9922 12C21.9922 17.5228 17.515 22 11.9922 22C9.26878 22 6.80048 20.9091 4.99805 19.1445C4.99321 19.3792 4.99219 19.659 4.99219 20V21C4.99219 21.5523 4.54447 22 3.99219 22C3.43991 22 2.99219 21.5523 2.99219 21V20C2.99219 19.3212 2.98971 18.7113 3.05566 18.2207C3.1255 17.7014 3.2882 17.1688 3.72461 16.7324C4.16102 16.296 4.69356 16.1333 5.21289 16.0635C5.70348 15.9975 6.31336 16 6.99219 16H7.99219C8.54447 16 8.99218 16.4477 8.99219 17C8.99219 17.5523 8.54447 18 7.99219 18H6.99219C6.8909 18 6.79501 18.0018 6.7041 18.002C8.11469 19.2459 9.9649 20 11.9922 20C16.4105 20 19.9922 16.4183 19.9922 12C19.9922 11.6989 19.9756 11.4021 19.9434 11.1104C19.8827 10.5615 20.2783 10.0666 20.8271 10.0059ZM19.9922 2C20.5445 2 20.9922 2.44772 20.9922 3V4C20.9922 4.67884 20.9947 5.2887 20.9287 5.7793C20.8589 6.29863 20.6962 6.83116 20.2598 7.26758C19.8234 7.70399 19.2908 7.86669 18.7715 7.93652C18.2809 8.00248 17.671 8 16.9922 8H15.9922C15.4399 8 14.9922 7.55228 14.9922 7C14.9922 6.44772 15.4399 6 15.9922 6H16.9922C17.0931 6 17.1887 5.99725 17.2793 5.99707C15.8688 4.75362 14.019 4 11.9922 4C7.57391 4 3.99219 7.58172 3.99219 12C3.99219 12.3011 4.00878 12.5979 4.04102 12.8896C4.10169 13.4385 3.70606 13.9334 3.15723 13.9941C2.60843 14.0548 2.11362 13.6591 2.05273 13.1104C2.01241 12.7456 1.99219 12.3748 1.99219 12C1.99219 6.47715 6.46934 2 11.9922 2C14.7151 2 17.183 3.09052 18.9854 4.85449C18.9902 4.62006 18.9922 4.34054 18.9922 4V3C18.9922 2.44772 19.4399 2 19.9922 2Z" fill="currentColor" />
</svg>