<svg xmlns="http://www.w3.org/2000/svg" width="24" height="24" viewBox="0 0 24 24" fill="none">
    <path d="M3.15723 10.0059C3.70606 10.0666 4.10169 10.5615 4.04102 11.1104C4.00878 11.4021 3.99219 11.6989 3.99219 12C3.99219 16.4183 7.57391 20 11.9922 20C14.0192 20 15.8688 19.2457 17.2793 18.002C17.1887 18.0018 17.0931 18 16.9922 18H15.9922C15.4399 18 14.9922 17.5523 14.9922 17C14.9922 16.4477 15.4399 16 15.9922 16H16.9922C17.671 16 18.2809 15.9975 18.7715 16.0635C19.2908 16.1333 19.8234 16.296 20.2598 16.7324C20.6962 17.1688 20.8589 17.7014 20.9287 18.2207C20.9947 18.7113 20.9922 19.3212 20.9922 20V21C20.9922 21.5523 20.5445 22 19.9922 22C19.4399 22 18.9922 21.5523 18.9922 21V20C18.9922 19.659 18.9902 19.3792 18.9854 19.1445C17.183 20.9088 14.7153 22 11.9922 22C6.46934 22 1.99219 17.5228 1.99219 12C1.99219 11.6252 2.01241 11.2544 2.05273 10.8896C2.11362 10.3409 2.60843 9.94519 3.15723 10.0059ZM11.9922 2C17.515 2 21.9922 6.47715 21.9922 12C21.9922 12.3748 21.972 12.7456 21.9316 13.1104C21.8708 13.6591 21.3759 14.0548 20.8271 13.9941C20.2783 13.9334 19.8827 13.4385 19.9434 12.8896C19.9756 12.5979 19.9922 12.3011 19.9922 12C19.9922 7.58172 16.4105 4 11.9922 4C9.96513 4 8.11463 4.75333 6.7041 5.99707C6.79501 5.99725 6.8909 6 6.99219 6H7.99219C8.54447 6 8.99219 6.44772 8.99219 7C8.99219 7.55228 8.54447 8 7.99219 8H6.99219C6.31336 8 5.70348 8.00248 5.21289 7.93652C4.69356 7.86669 4.16102 7.70399 3.72461 7.26758C3.2882 6.83117 3.1255 6.29862 3.05566 5.7793C2.98971 5.2887 2.99219 4.67884 2.99219 4V3C2.99219 2.44772 3.43991 2.00001 3.99219 2C4.54447 2 4.99219 2.44772 4.99219 3V4C4.99219 4.34053 4.99322 4.62007 4.99805 4.85449C6.80044 3.09024 9.26903 2 11.9922 2Z" fill="currentColor" />
</svg>