<svg xmlns="http://www.w3.org/2000/svg" width="24" height="24" viewBox="0 0 24 24" fill="none">
    <path d="M17.2992 3.00017C17.6635 3.00017 18.0129 2.99406 18.2982 3.05486C19.6108 3.33473 20.4682 4.60133 20.2406 5.924C20.1911 6.21145 20.0564 6.53355 19.9213 6.87127C19.7162 7.38394 19.1342 7.63375 18.6215 7.42888C18.1088 7.22381 17.859 6.64178 18.0638 6.12908C18.145 5.92623 18.1971 5.79609 18.2328 5.69744C18.2686 5.59863 18.2715 5.57592 18.2699 5.58513C18.3154 5.32059 18.1438 5.06689 17.8812 5.01091C17.8904 5.01288 17.8682 5.00755 17.7631 5.00408C17.658 5.00062 17.5179 5.00017 17.2992 5.00017H7.02381C6.51019 5.00017 6.20534 5.0017 5.97889 5.02654C5.77771 5.04863 5.73556 5.0809 5.72791 5.08611C5.72047 5.09115 5.67502 5.11786 5.57947 5.29705C5.47233 5.498 5.35714 5.78013 5.16639 6.25701L4.92127 6.87127C4.7162 7.38394 4.13417 7.63375 3.62146 7.42888C3.10879 7.22381 2.85898 6.64178 3.06385 6.12908L3.30994 5.51482C3.48444 5.07858 3.6441 4.6758 3.81482 4.35564C3.99716 4.01375 4.23341 3.68267 4.60682 3.42986C4.9802 3.17715 5.37503 3.08056 5.76014 3.03826C6.12077 2.99867 6.55392 3.00017 7.02381 3.00017H17.2992Z" fill="currentColor" />
    <path d="M10.4922 19C11.0445 19 11.4922 19.4477 11.4922 20C11.4922 20.5523 11.0445 21 10.4922 21H4.49225C3.93996 21 3.49225 20.5523 3.49225 20C3.49225 19.4477 3.93996 19 4.49225 19H10.4922Z" fill="currentColor" />
    <path d="M11.5381 3.70195C11.7028 3.1749 12.263 2.88116 12.7901 3.0457C13.3171 3.21041 13.6109 3.77059 13.4463 4.29766L8.44634 20.2977C8.28164 20.8247 7.72145 21.1185 7.19439 20.9539C6.66733 20.7892 6.37359 20.229 6.53814 19.702L11.5381 3.70195Z" fill="currentColor" />
    <path d="M19.2852 14.2929C19.6757 13.9024 20.3087 13.9024 20.6993 14.2929C21.0898 14.6834 21.0898 15.3164 20.6993 15.707L18.9063 17.4999L20.6993 19.2929C21.0898 19.6834 21.0898 20.3164 20.6993 20.707C20.3087 21.0975 19.6757 21.0975 19.2852 20.707L17.4922 18.914L15.6993 20.707C15.3087 21.0975 14.6757 21.0975 14.2852 20.707C13.8947 20.3164 13.8947 19.6834 14.2852 19.2929L16.0782 17.4999L14.2852 15.707C13.8947 15.3164 13.8947 14.6834 14.2852 14.2929C14.6757 13.9024 15.3087 13.9024 15.6993 14.2929L17.4922 16.0859L19.2852 14.2929Z" fill="currentColor" />
</svg>