<svg xmlns="http://www.w3.org/2000/svg" width="24" height="24" viewBox="0 0 24 24" fill="none">
    <path d="M20.9925 12.0986C20.9925 11.3007 20.3189 10.3097 18.6156 9.45801C16.9722 8.63631 14.6321 8.0987 11.9925 8.09863C11.6718 8.09863 11.3545 8.10659 11.0423 8.12207C10.4907 8.14944 10.0209 7.72446 9.99351 7.17285C9.96616 6.62134 10.3913 6.15251 10.9427 6.125C11.288 6.10787 11.6387 6.09863 11.9925 6.09863C14.8753 6.0987 17.5345 6.68114 19.5101 7.66895C21.4261 8.62692 22.9925 10.1351 22.9925 12.0986C22.9925 13.7015 21.9362 15.006 20.5472 15.9307C20.0875 16.2367 19.4665 16.1121 19.1605 15.6523C18.8547 15.1926 18.9792 14.5726 19.4388 14.2666C20.5604 13.52 20.9925 12.7468 20.9925 12.0986Z" fill="currentColor" />
    <path d="M0.99205 12.0983C0.992051 10.4953 2.04824 9.19101 3.43736 8.2663C3.8971 7.96027 4.51805 8.08488 4.82408 8.54462C5.12966 9.00418 5.00502 9.62433 4.54576 9.93036C3.42417 10.677 2.99205 11.4502 2.99205 12.0983C2.99205 12.8962 3.66493 13.8873 5.36803 14.739C7.01155 15.5607 9.35221 16.0983 11.9921 16.0983C12.5443 16.0983 12.9921 16.546 12.9921 17.0983C12.9921 17.6506 12.5443 18.0983 11.9921 18.0983C9.10904 18.0983 6.44926 17.5159 4.4735 16.528C2.5577 15.57 0.992051 14.0618 0.99205 12.0983Z" fill="currentColor" />
    <path d="M5.99205 11.6641C5.99205 8.88743 6.60706 6.32371 7.65221 4.41895C8.67725 2.55082 10.2565 1.09881 12.2401 1.09863C13.8954 1.09863 15.2762 2.11934 16.2684 3.52051C16.5876 3.97124 16.4809 4.59589 16.0301 4.91504C15.5795 5.23385 14.9557 5.12718 14.6366 4.67676C13.8534 3.57059 13.0047 3.09863 12.2401 3.09863C11.3254 3.09882 10.2804 3.78766 9.40611 5.38086C8.5517 6.93802 7.99205 9.15797 7.99205 11.6641C7.99194 12.2162 7.54426 12.6641 6.99205 12.6641C6.43984 12.6641 5.99216 12.2163 5.99205 11.6641Z" fill="currentColor" />
    <path d="M15.9919 12.2243C15.9919 11.8628 15.9818 11.5063 15.9616 11.156C15.9299 10.6047 16.3508 10.1322 16.9021 10.1003C17.4534 10.0686 17.9259 10.4895 17.9577 11.0407C17.9801 11.4294 17.9919 11.8245 17.9919 12.2243C17.9919 14.7246 17.5435 17.0496 16.7702 18.8972C16.0124 20.7079 14.8685 22.2257 13.364 22.8288C12.8515 23.0343 12.2698 22.7855 12.0642 22.2732C11.8587 21.7605 12.1072 21.1779 12.6198 20.9724C13.3975 20.6606 14.254 19.7291 14.9255 18.1247C15.5816 16.5572 15.9919 14.5007 15.9919 12.2243Z" fill="currentColor" />
    <path d="M10.9917 17.0982C10.9917 17.0952 10.9937 17.0845 10.9731 17.0455C10.9461 16.9943 10.8847 16.9042 10.7465 16.7643C10.453 16.4669 9.9887 16.1117 9.2524 15.5523L8.38717 14.8941C7.94742 14.5601 7.86175 13.9335 8.19576 13.4937C8.52983 13.054 9.15638 12.9683 9.59615 13.3023L10.4624 13.9596C11.1487 14.481 11.7515 14.9367 12.1694 15.36C12.6026 15.7988 12.9917 16.3539 12.9917 17.0982C12.9917 17.8426 12.6026 18.3977 12.1694 18.8365C11.7515 19.2598 11.1487 19.7155 10.4624 20.2369L9.59615 20.8941C9.15638 21.2282 8.52983 21.1425 8.19576 20.7027C7.86175 20.263 7.94742 19.6364 8.38717 19.3023L9.2524 18.6441C9.9887 18.0848 10.453 17.7296 10.7465 17.4322C10.8847 17.2923 10.9461 17.2022 10.9731 17.151C10.9937 17.1119 10.9917 17.1013 10.9917 17.0982Z" fill="currentColor" />
</svg>