<svg xmlns="http://www.w3.org/2000/svg" width="24" height="24" viewBox="0 0 24 24" fill="none">
    <path d="M11.9968 2.99902C16.9641 2.99902 20.9917 7.02798 20.9917 11.999C20.9917 15.5602 18.9247 18.64 15.9216 20.0996C15.4249 20.3411 15.2179 20.9395 15.4593 21.4362C15.7008 21.9329 16.2992 22.1398 16.7959 21.8984C20.4617 20.1166 22.9917 16.3543 22.9917 11.999C22.9917 5.92437 18.0696 0.999023 11.9968 0.999023C9.81866 0.999023 7.78799 1.63328 6.08 2.72625L4.86474 1.51099C4.65138 1.27873 4.36677 0.999023 3.99171 0.999023C3.43942 0.999023 2.99171 1.44674 2.99171 1.99902V5.13122C2.99171 6.3517 4.50883 6.91074 5.30054 5.98987C6.94877 4.15242 9.33758 2.99902 11.9968 2.99902Z" fill="currentColor" />
    <path fill-rule="evenodd" clip-rule="evenodd" d="M2.52751 7.70503C1.9961 7.55465 1.44339 7.86354 1.29301 8.39496C1.16986 8.83013 1.07332 9.26959 1.00248 9.71107C0.914985 10.2564 1.28611 10.7694 1.83142 10.8569C2.37673 10.9444 2.88972 10.5732 2.97722 10.0279C3.03592 9.66213 3.11579 9.29874 3.21744 8.93954C3.36782 8.40812 3.05893 7.85542 2.52751 7.70503ZM1.85134 12.5537C1.30739 12.6493 0.943925 13.1677 1.03952 13.7117C1.11596 14.1466 1.21549 14.5772 1.33723 15.001C1.48969 15.5319 2.04361 15.8386 2.57443 15.6861C3.10525 15.5337 3.41198 14.9798 3.25952 14.4489C3.15711 14.0924 3.07349 13.7306 3.00933 13.3655C2.91374 12.8216 2.39529 12.4581 1.85134 12.5537ZM3.26365 17.1677C2.80576 17.4765 2.68489 18.0981 2.99368 18.556C3.25296 18.9404 3.53426 19.3109 3.83672 19.6648C4.19552 20.0847 4.82674 20.1342 5.24661 19.7754C5.66647 19.4166 5.71597 18.7854 5.35718 18.3655C5.10464 18.07 4.86923 17.76 4.65185 17.4377C4.34306 16.9798 3.72154 16.859 3.26365 17.1677ZM6.55053 20.8645C6.27618 21.3438 6.44235 21.9548 6.92167 22.2291C7.30933 22.451 7.71291 22.6518 8.13157 22.8295C8.63999 23.0452 9.22701 22.8079 9.44271 22.2994C9.65841 21.791 9.42111 21.204 8.91269 20.9883C8.56763 20.8419 8.23493 20.6764 7.91517 20.4934C7.43585 20.219 6.82487 20.3852 6.55053 20.8645ZM14.0921 21.7757C14.0185 21.2284 13.5152 20.8442 12.9678 20.9178C12.5618 20.9723 12.1468 21.0006 11.7246 21.0006C11.1723 21.0006 10.7246 21.4483 10.7246 22.0006C10.7246 22.5529 11.1723 23.0006 11.7246 23.0006C12.2361 23.0006 12.7401 22.9664 13.2341 22.9C13.7815 22.8264 14.1656 22.3231 14.0921 21.7757Z" fill="currentColor" />
</svg>