<svg xmlns="http://www.w3.org/2000/svg" width="24" height="24" viewBox="0 0 24 24" fill="none">
    <path fill-rule="evenodd" clip-rule="evenodd" d="M22.2416 12V12.0526C22.2416 12.9439 22.2416 13.758 22.2295 14.5H1.75373C1.74158 13.7578 1.74159 12.9441 1.74159 12.0526V12V11.9474C1.74159 11.0559 1.74158 10.2421 1.75373 9.5H22.2295C22.2416 10.242 22.2416 11.056 22.2416 11.9473V12ZM1.8373 16.5C1.85988 16.7847 1.88778 17.055 1.92226 17.3115C2.10734 18.6882 2.49472 19.7805 3.35292 20.6387C4.21112 21.4969 5.30341 21.8842 6.68007 22.0693C8.02434 22.25 9.74635 22.25 11.939 22.25H11.9916H12.0442C14.2368 22.25 15.9588 22.25 17.3031 22.0693C18.6798 21.8842 19.7721 21.4969 20.6303 20.6387C21.4885 19.7805 21.8758 18.6882 22.0609 17.3115C22.0954 17.055 22.1233 16.7847 22.1459 16.5H1.8373ZM22.0609 6.68848C22.0954 6.94501 22.1233 7.21531 22.1459 7.5H1.8373C1.85988 7.21531 1.88778 6.94501 1.92226 6.68848C2.10734 5.31182 2.49472 4.21953 3.35292 3.36133C4.21112 2.50313 5.30341 2.11575 6.68007 1.93066C8.02436 1.74998 9.74635 1.74999 11.939 1.75H11.9916H12.0442C14.2368 1.74999 15.9588 1.74998 17.3031 1.93066C18.6798 2.11575 19.7721 2.50313 20.6303 3.36133C21.4885 4.21953 21.8758 5.31182 22.0609 6.68848Z" fill="currentColor" />
</svg>