<svg xmlns="http://www.w3.org/2000/svg" width="24" height="24" viewBox="0 0 24 24" fill="none">
    <path fill-rule="evenodd" clip-rule="evenodd" d="M22.2416 13C22.2394 14.1339 22.229 15.1287 22.1801 16H1.80431C1.75537 15.1287 1.74498 14.1339 1.74278 13H2.99219H22.2416ZM3.35352 20.6387C2.64363 19.9288 2.25589 19.0587 2.03832 18H21.9461C21.7285 19.0587 21.3408 19.9288 20.6309 20.6387C19.7727 21.4969 18.6804 21.8842 17.3037 22.0693C15.9594 22.25 14.2375 22.25 12.0449 22.25H11.9922H11.9396C9.74697 22.25 8.02494 22.25 6.68067 22.0693C5.30401 21.8842 4.21172 21.4969 3.35352 20.6387ZM1.74278 11C1.74498 9.86608 1.75537 8.87128 1.80431 8H22.1801C22.229 8.87128 22.2394 9.86608 22.2416 11H1.74278ZM20.6309 3.36133C21.3408 4.07122 21.7285 4.9413 21.9461 6H2.03832C2.25589 4.9413 2.64363 4.07122 3.35352 3.36133C4.21172 2.50313 5.30401 2.11575 6.68067 1.93066C8.02496 1.74998 9.74695 1.74999 11.9396 1.75H11.9922H12.0448C14.2374 1.74999 15.9594 1.74998 17.3037 1.93066C18.6804 2.11575 19.7727 2.50313 20.6309 3.36133Z" fill="currentColor" />
</svg>