<svg xmlns="http://www.w3.org/2000/svg" width="24" height="24" viewBox="0 0 24 24" fill="none">
    <path d="M17.9961 11C18.5484 11 18.9961 11.4477 18.9961 12C18.9961 12.5523 18.5484 13 17.9961 13H5.99609C5.44381 13 4.99609 12.5523 4.99609 12C4.99609 11.4477 5.44381 11 5.99609 11H17.9961Z" fill="currentColor" />
    <path d="M1.49606 15.0001C1.49606 14.4478 1.94378 14.0001 2.49606 14.0001C3.04835 14.0001 3.49606 14.4478 3.49606 15.0001C3.49606 16.9494 3.51113 17.6592 3.707 18.1974C4.06085 19.1694 4.82672 19.9353 5.7988 20.2892C6.33696 20.485 7.04678 20.5001 8.99606 20.5001C9.54835 20.5001 9.99606 20.9478 9.99606 21.5001C9.99606 22.0524 9.54835 22.5001 8.99606 22.5001C7.22079 22.5001 6.06826 22.5149 5.1152 22.1681C3.58749 21.612 2.38414 20.4087 1.82809 18.881C1.48124 17.9279 1.49606 16.7754 1.49606 15.0001ZM20.4961 15.0001C20.4961 14.4478 20.9438 14.0001 21.4961 14.0001C22.0483 14.0001 22.4961 14.4478 22.4961 15.0001C22.4961 16.7754 22.5109 17.9279 22.164 18.881C21.608 20.4087 20.4046 21.612 18.8769 22.1681C17.9239 22.5149 16.7713 22.5001 14.9961 22.5001C14.4438 22.5001 13.9961 22.0524 13.9961 21.5001C13.9961 20.9478 14.4438 20.5001 14.9961 20.5001C16.9454 20.5001 17.6552 20.485 18.1933 20.2892C19.1654 19.9353 19.9313 19.1694 20.2851 18.1974C20.481 17.6592 20.4961 16.9494 20.4961 15.0001ZM1.49606 9.00009C1.49606 7.22482 1.48124 6.07229 1.82809 5.11923C2.38414 3.59152 3.58749 2.38817 5.1152 1.83212C6.06826 1.48527 7.22079 1.50009 8.99606 1.50009C9.54835 1.50009 9.99606 1.94781 9.99606 2.50009C9.99606 3.05238 9.54835 3.50009 8.99606 3.50009C7.04678 3.50009 6.33696 3.51516 5.7988 3.71103C4.82672 4.06488 4.06085 4.83075 3.707 5.80283C3.51113 6.34099 3.49606 7.0508 3.49606 9.00009C3.49606 9.55238 3.04835 10.0001 2.49606 10.0001C1.94378 10.0001 1.49606 9.55238 1.49606 9.00009ZM20.4961 9.00009C20.4961 7.0508 20.481 6.34099 20.2851 5.80283C19.9313 4.83075 19.1654 4.06488 18.1933 3.71103C17.6552 3.51516 16.9454 3.50009 14.9961 3.50009C14.4438 3.50009 13.9961 3.05238 13.9961 2.50009C13.9961 1.94781 14.4438 1.50009 14.9961 1.50009C16.7713 1.50009 17.9239 1.48527 18.8769 1.83212C20.4046 2.38817 21.608 3.59152 22.164 5.11923C22.5109 6.07229 22.4961 7.22482 22.4961 9.00009C22.4961 9.55238 22.0483 10.0001 21.4961 10.0001C20.9438 10.0001 20.4961 9.55238 20.4961 9.00009Z" fill="currentColor" />
</svg>