<svg xmlns="http://www.w3.org/2000/svg" width="24" height="24" viewBox="0 0 24 24" fill="none">
    <path d="M15.4962 11C16.0485 11 16.4962 11.4477 16.4962 12C16.4962 12.5523 16.0485 13 15.4962 13H13.4962C12.9439 13 12.4962 12.5523 12.4962 12C12.4962 11.4477 12.9439 11 13.4962 11H15.4962Z" fill="currentColor" />
    <path d="M21.4962 11C22.0485 11 22.4962 11.4477 22.4962 12C22.4962 12.5523 22.0485 13 21.4962 13H19.4962C18.9439 13 18.4962 12.5523 18.4962 12C18.4962 11.4477 18.9439 11 19.4962 11H21.4962Z" fill="currentColor" />
    <path d="M5.49619 8C5.49619 7.44772 5.04847 7 4.49619 7C3.9439 7 3.49619 7.44772 3.49619 8C3.49619 8.55228 3.9439 9 4.49619 9C5.04847 9 5.49619 8.55228 5.49619 8ZM7.49619 8C7.49619 9.65685 6.15304 11 4.49619 11C2.83933 11 1.49619 9.65685 1.49619 8C1.49619 6.34315 2.83933 5 4.49619 5C6.15304 5 7.49619 6.34315 7.49619 8Z" fill="currentColor" />
    <path d="M10.2891 13.7929C10.6797 13.4024 11.3127 13.4024 11.7032 13.7929L14.2032 16.2929C14.5937 16.6834 14.5937 17.3164 14.2032 17.707C13.8127 18.0975 13.1797 18.0975 12.7891 17.707L10.2891 15.207C9.89862 14.8164 9.89862 14.1834 10.2891 13.7929ZM12.7891 6.29289C13.1797 5.90237 13.8127 5.90237 14.2032 6.29289C14.5937 6.68342 14.5937 7.31643 14.2032 7.70696L7.2032 14.707C6.81268 15.0975 6.17966 15.0975 5.78914 14.707C5.39862 14.3164 5.39862 13.6834 5.78914 13.2929L7.08211 11.9999L5.78914 10.707C5.39862 10.3164 5.39862 9.68342 5.78914 9.29289C6.17966 8.90237 6.81268 8.90237 7.2032 9.29289L8.49617 10.5859L12.7891 6.29289Z" fill="currentColor" />
    <path d="M5.49619 16C5.49619 15.4477 5.04847 15 4.49619 15C3.9439 15 3.49619 15.4477 3.49619 16C3.49619 16.5523 3.9439 17 4.49619 17C5.04847 17 5.49619 16.5523 5.49619 16ZM7.49619 16C7.49619 17.6569 6.15304 19 4.49619 19C2.83933 19 1.49619 17.6569 1.49619 16C1.49619 14.3431 2.83933 13 4.49619 13C6.15304 13 7.49619 14.3431 7.49619 16Z" fill="currentColor" />
</svg>