<svg xmlns="http://www.w3.org/2000/svg" width="24" height="24" viewBox="0 0 24 24" fill="none">
    <path fill-rule="evenodd" clip-rule="evenodd" d="M3.99601 9.74988L5.24601 9.74988V18.9999C5.24601 20.5187 6.47723 21.7499 7.99601 21.7499H19.996C21.5148 21.7499 22.746 20.5187 22.746 18.9999V17.9999L22.746 17.9465C22.7461 17.5171 22.7462 17.1233 22.703 16.8026C22.6553 16.4471 22.5423 16.0716 22.2333 15.7626C21.9243 15.4536 21.5488 15.3406 21.1933 15.2928C20.8726 15.2497 20.4788 15.2498 20.0493 15.2499L19.996 15.2499H19.746V6.99988V6.95312C19.746 6.0523 19.7461 5.30089 19.6659 4.70496C19.5815 4.07734 19.3957 3.5109 18.9403 3.05554C18.485 2.60018 17.9185 2.41439 17.2909 2.32996C16.695 2.24983 15.9436 2.24985 15.0428 2.24988H14.996H3.99601C2.47723 2.24988 1.24601 3.48109 1.24601 4.99988V6.99988L1.24601 7.05319C1.24594 7.48268 1.24587 7.87646 1.28898 8.19714C1.33678 8.55262 1.44969 8.92816 1.75871 9.23718C2.06773 9.5462 2.44327 9.65912 2.79875 9.70691C3.11943 9.75002 3.51321 9.74996 3.94271 9.74988L3.99601 9.74988ZM19.996 16.7499L18.996 16.7499L11.996 16.7499C11.5036 16.7499 11.2097 16.7518 10.9989 16.7802C10.9024 16.7931 10.8537 16.8083 10.832 16.8173L10.8194 16.8251C10.8176 16.828 10.8148 16.8323 10.8134 16.8358C10.8044 16.8576 10.7893 16.9062 10.7763 17.0028C10.748 17.2135 10.746 17.5074 10.746 17.9999V18.9999C10.746 19.4505 10.6354 19.8746 10.4433 20.2499H19.996C20.6864 20.2499 21.246 19.6902 21.246 18.9999V17.9999C21.246 17.5074 21.244 17.2135 21.2157 17.0028C21.2028 16.9062 21.184 16.8495 21.1751 16.8277C21.1715 16.825 21.1623 16.8182 21.1601 16.8173C21.1383 16.8083 21.0896 16.7931 20.9931 16.7802C20.7824 16.7518 20.4885 16.7499 19.996 16.7499ZM3.99601 3.74988C4.68637 3.74988 5.24601 4.30952 5.24601 4.99988V8.24988H3.99601C3.50357 8.24988 3.20965 8.24791 2.99894 8.21961C2.90239 8.20662 2.85373 8.19146 2.83195 8.1825C2.82848 8.18107 2.82124 8.17655 2.81828 8.17468C2.81728 8.17276 2.81545 8.16893 2.8134 8.16394C2.80444 8.14216 2.78927 8.09351 2.77629 7.99695C2.74798 7.78624 2.74601 7.49232 2.74601 6.99988V4.99988C2.74601 4.30952 3.30566 3.74988 3.99601 3.74988ZM15.746 7.99989C15.746 7.58568 15.4102 7.24989 14.996 7.24989H9.99601C9.5818 7.24989 9.24601 7.58568 9.24601 7.99989C9.24601 8.4141 9.5818 8.74989 9.99601 8.74989H14.996C15.4102 8.74989 15.746 8.4141 15.746 7.99989ZM13.746 11.9999C13.746 11.5857 13.4102 11.2499 12.996 11.2499H9.99601C9.5818 11.2499 9.24601 11.5857 9.24601 11.9999C9.24601 12.4141 9.5818 12.7499 9.99601 12.7499H12.996C13.4102 12.7499 13.746 12.4141 13.746 11.9999Z" fill="currentColor" />
</svg>