<svg xmlns="http://www.w3.org/2000/svg" width="24" height="24" viewBox="0 0 24 24" fill="none">
    <path fill-rule="evenodd" clip-rule="evenodd" d="M16.289 16.2929C16.6795 15.9024 17.3127 15.9024 17.7032 16.2929L21.7032 20.2929C22.0937 20.6834 22.0937 21.3166 21.7032 21.7071C21.3127 22.0976 20.6795 22.0976 20.289 21.7071L16.289 17.7071C15.8985 17.3166 15.8985 16.6834 16.289 16.2929Z" fill="currentColor" />
    <path fill-rule="evenodd" clip-rule="evenodd" d="M1.99609 11C1.99609 6.02944 6.02553 2 10.9961 2C15.9667 2 19.9961 6.02944 19.9961 11C19.9961 15.9706 15.9667 20 10.9961 20C6.02553 20 1.99609 15.9706 1.99609 11ZM10.9961 4C7.1301 4 3.99609 7.13401 3.99609 11C3.99609 14.866 7.1301 18 10.9961 18C14.8621 18 17.9961 14.866 17.9961 11C17.9961 7.13401 14.8621 4 10.9961 4Z" fill="currentColor" />
    <path d="M15.4434 8.18067C15.2669 7.6574 14.7 7.37633 14.1768 7.55274C13.3915 7.8176 12.6436 8.32113 11.9922 8.86524C11.3313 9.41724 10.7148 10.0569 10.1924 10.6533C9.84123 11.0542 9.52814 11.443 9.26562 11.7813C9.03283 11.5307 8.80271 11.3392 8.5791 11.1973C8.32876 11.0383 8.09951 10.9463 7.90918 10.8945C7.81465 10.8688 7.73094 10.8536 7.66113 10.8447C7.62636 10.8403 7.59498 10.8376 7.56738 10.8359C7.55376 10.8351 7.54106 10.8343 7.5293 10.834C7.52649 10.8339 7.5321 10.8342 7.5293 10.834C7.52615 10.8338 7.51461 10.8331 7.51172 10.833H7.49609C6.94392 10.833 6.49627 11.2809 6.49609 11.833C6.49609 12.35 6.88846 12.7749 7.3916 12.8272C7.40754 12.8327 7.44751 12.8481 7.50684 12.8857C7.6591 12.9824 7.98707 13.2539 8.36035 13.9648C8.52434 14.2772 8.84108 14.4804 9.19336 14.499C9.54558 14.5175 9.88225 14.349 10.0781 14.0557L10.083 14.0469L10.1035 14.0166C10.1224 13.9889 10.1515 13.9469 10.1895 13.8926C10.2656 13.7837 10.379 13.6252 10.5225 13.4316C10.8102 13.0434 11.2179 12.5189 11.6973 11.9717C12.1784 11.4224 12.7195 10.8639 13.2744 10.4004C13.8389 9.92893 14.3654 9.59909 14.8154 9.44727C15.3387 9.27077 15.6198 8.70394 15.4434 8.18067Z" fill="currentColor" />
</svg>