<svg xmlns="http://www.w3.org/2000/svg" width="24" height="24" viewBox="0 0 24 24" fill="none">
    <path fill-rule="evenodd" clip-rule="evenodd" d="M16.289 16.2929C16.6795 15.9024 17.3127 15.9024 17.7032 16.2929L21.7032 20.2929C22.0937 20.6834 22.0937 21.3166 21.7032 21.7071C21.3127 22.0976 20.6795 22.0976 20.289 21.7071L16.289 17.7071C15.8985 17.3166 15.8985 16.6834 16.289 16.2929Z" fill="currentColor" />
    <path fill-rule="evenodd" clip-rule="evenodd" d="M1.99609 11C1.99609 6.02944 6.02553 2 10.9961 2C15.9667 2 19.9961 6.02944 19.9961 11C19.9961 15.9706 15.9667 20 10.9961 20C6.02553 20 1.99609 15.9706 1.99609 11ZM10.9961 4C7.1301 4 3.99609 7.13401 3.99609 11C3.99609 14.866 7.1301 18 10.9961 18C14.8621 18 17.9961 14.866 17.9961 11C17.9961 7.13401 14.8621 4 10.9961 4Z" fill="currentColor" />
    <path d="M13.289 7.29295C13.6796 6.90243 14.3126 6.90243 14.7031 7.29295C15.0936 7.68348 15.0936 8.31649 14.7031 8.70702L8.70311 14.707C8.31259 15.0975 7.67957 15.0975 7.28905 14.707C6.89852 14.3165 6.89852 13.6835 7.28905 13.293L13.289 7.29295Z" fill="currentColor" />
</svg>