<svg xmlns="http://www.w3.org/2000/svg" width="24" height="24" viewBox="0 0 24 24" fill="none">
    <path d="M21.746 12C21.746 13.0299 21.0725 13.7545 20.206 14.3632C19.3476 14.9662 18.0884 15.5999 16.5134 16.3925L16.4492 16.4248L10.666 19.3349L10.6031 19.3666C8.80679 20.2705 7.39565 20.9807 6.30854 21.3759C5.25733 21.7581 4.21265 21.9646 3.37592 21.4101C3.08668 21.2184 2.83449 20.9749 2.63276 20.6923C2.05164 19.8781 2.21236 18.8253 2.54877 17.7529C2.89729 16.642 3.54615 15.1907 4.37287 13.3417L4.39643 13.289C4.74163 12.5169 4.8264 12.2991 4.83979 12.0849C4.84333 12.0283 4.84333 11.9716 4.83979 11.915C4.8264 11.7008 4.74163 11.483 4.39643 10.7109L4.37289 10.6582C3.54616 8.8092 2.89729 7.35796 2.54877 6.24703C2.21236 5.17462 2.05163 4.12186 2.63276 3.30758C2.83449 3.02505 3.08669 2.78151 3.37592 2.5898C4.21264 2.03533 5.25733 2.24182 6.30854 2.62398C7.39565 3.01921 8.80678 3.72936 10.603 4.63333L10.666 4.665L16.4492 7.57515L16.5134 7.60746C18.0884 8.40004 19.3476 9.03371 20.206 9.63668C21.0725 10.2454 21.746 10.97 21.746 12ZM14.496 12C14.496 11.4477 14.0483 11 13.496 11H9.49604C8.94376 11 8.49604 11.4477 8.49604 12C8.49604 12.5522 8.94376 13 9.49604 13H13.496C14.0483 13 14.496 12.5522 14.496 12Z" fill="currentColor" />
</svg>