<svg xmlns="http://www.w3.org/2000/svg" width="24" height="24" viewBox="0 0 24 24" fill="none">
    <path d="M12.9961 12C12.9961 11.8146 12.9463 11.644 12.8604 11.4971C12.6854 11.1977 12.3634 11 11.9961 11C11.6289 11 11.3068 11.1977 11.1319 11.4971C11.046 11.644 10.9961 11.8146 10.9961 12C10.9961 12.1854 11.046 12.356 11.1319 12.5029C11.3068 12.8023 11.6288 13 11.9961 13C12.3634 13 12.6854 12.8023 12.8604 12.5029C12.9463 12.356 12.9961 12.1854 12.9961 12ZM14.9961 12C14.9961 12.1913 14.9769 12.3786 14.9424 12.5605L15.5 12.8857C15.977 13.164 16.1385 13.7769 15.8604 14.2539C15.5821 14.7309 14.9692 14.8924 14.4922 14.6143L13.9336 14.2881C13.6591 14.5208 13.3427 14.7055 12.9961 14.8281V15.5C12.9961 16.0523 12.5484 16.5 11.9961 16.5C11.4438 16.5 10.9961 16.0523 10.9961 15.5V14.8281C10.6493 14.7054 10.3323 14.521 10.0576 14.2881L9.50002 14.6143C9.023 14.8924 8.4101 14.7309 8.13186 14.2539C7.85373 13.7769 8.01522 13.164 8.49221 12.8857L9.04885 12.5605C9.0144 12.3787 8.99612 12.1913 8.99612 12C8.99612 11.8084 9.01428 11.6206 9.04885 11.4385L8.49221 11.1143C8.01522 10.836 7.85372 10.2231 8.13186 9.74609C8.4101 9.2691 9.02299 9.10761 9.50002 9.38574L10.0576 9.71094C10.3323 9.47815 10.6494 9.2935 10.9961 9.1709V8.5C10.9961 7.94773 11.4438 7.50001 11.9961 7.5C12.5484 7.50001 12.9961 7.94772 12.9961 8.5V9.1709C13.3426 9.29342 13.6591 9.47838 13.9336 9.71094L14.4922 9.38574C14.9692 9.10761 15.5821 9.2691 15.8604 9.74609C16.1385 10.2231 15.977 10.836 15.5 11.1143L14.9424 11.4385C14.977 11.6207 14.9961 11.8083 14.9961 12Z" fill="currentColor" />
    <path fill-rule="evenodd" clip-rule="evenodd" d="M22.7461 7.04081V7V6.95919C22.7461 6.29082 22.7461 5.73298 22.7002 5.28125C22.652 4.80783 22.5468 4.36862 22.2822 3.97266C22.0816 3.67239 21.8237 3.41451 21.5234 3.21387C21.1275 2.94934 20.6883 2.84406 20.2148 2.7959C19.7631 2.74997 19.2053 2.74998 18.5369 2.75H18.4961H5.4961H5.45527C4.78691 2.74998 4.22907 2.74997 3.77735 2.7959C3.30393 2.84406 2.86471 2.94934 2.46875 3.21387C2.16848 3.4145 1.9106 3.67238 1.70996 3.97266C1.44543 4.36862 1.34015 4.80783 1.29199 5.28125C1.24606 5.73298 1.24608 6.29081 1.2461 6.95918V7V7.04083C1.24608 7.70919 1.24606 8.26702 1.29199 8.71875C1.34015 9.19217 1.44543 9.63139 1.70996 10.0273C1.9106 10.3276 2.16848 10.5855 2.46875 10.7861C2.86471 11.0507 3.30393 11.1559 3.77735 11.2041C4.22907 11.25 4.78692 11.25 5.45527 11.25H5.4961H6.98303C6.6572 10.5954 6.6565 9.79548 7.05274 9.11621C7.61231 8.15708 8.77099 7.76815 9.77735 8.14258C9.78598 8.08856 9.79653 8.03518 9.80892 7.98251C9.3461 7.89488 8.9961 7.48831 8.9961 7C8.9961 6.44772 9.44381 6 9.9961 6C10.3838 6 10.7199 6.22063 10.8859 6.54318C11.2132 6.35659 11.592 6.25001 11.9961 6.25C13.1169 6.25002 14.0424 7.07012 14.2139 8.14258C15.2204 7.76761 16.3797 8.1568 16.9395 9.11621C17.3357 9.79548 17.335 10.5954 17.0092 11.25H18.4961H18.5369C19.2053 11.25 19.7631 11.25 20.2148 11.2041C20.6883 11.1559 21.1275 11.0507 21.5234 10.7861C21.8237 10.5855 22.0816 10.3276 22.2822 10.0273C22.5468 9.63139 22.652 9.19217 22.7002 8.71875C22.7461 8.26702 22.7461 7.70918 22.7461 7.04081ZM5.9961 6C6.54838 6 6.9961 6.44772 6.9961 7C6.9961 7.55229 6.54838 8 5.9961 8C5.44381 8 4.9961 7.55229 4.9961 7C4.9961 6.44772 5.44381 6 5.9961 6Z" fill="currentColor" />
    <path fill-rule="evenodd" clip-rule="evenodd" d="M7.05274 14.8838C6.6565 14.2045 6.6572 13.4047 6.98303 12.75H5.4961H5.45522C4.78688 12.75 4.22906 12.75 3.77735 12.7959C3.30393 12.8441 2.86471 12.9493 2.46875 13.2139C2.16848 13.4145 1.9106 13.6724 1.70996 13.9727C1.44543 14.3686 1.34015 14.8078 1.29199 15.2813C1.24606 15.733 1.24608 16.2908 1.2461 16.9592V17V17.0408C1.24608 17.7092 1.24606 18.267 1.29199 18.7188C1.34015 19.1922 1.44543 19.6314 1.70996 20.0273C1.9106 20.3276 2.16848 20.5855 2.46875 20.7861C2.86471 21.0507 3.30393 21.1559 3.77735 21.2041C4.22908 21.25 4.78691 21.25 5.45528 21.25H5.4961H18.4961H18.5369C19.2053 21.25 19.7631 21.25 20.2148 21.2041C20.6883 21.1559 21.1275 21.0507 21.5234 20.7861C21.8237 20.5855 22.0816 20.3276 22.2822 20.0273C22.5468 19.6314 22.652 19.1922 22.7002 18.7188C22.7461 18.267 22.7461 17.7092 22.7461 17.0408V17V16.9592C22.7461 16.2908 22.7461 15.733 22.7002 15.2813C22.652 14.8078 22.5468 14.3686 22.2822 13.9727C22.0816 13.6724 21.8237 13.4145 21.5234 13.2139C21.1275 12.9493 20.6883 12.8441 20.2148 12.7959C19.7631 12.75 19.2053 12.75 18.5369 12.75H18.4961H17.0092C17.335 13.4047 17.3357 14.2045 16.9395 14.8838C16.3797 15.8432 15.2204 16.2324 14.2139 15.8574C14.0424 16.9299 13.1169 17.75 11.9961 17.75C11.592 17.75 11.2132 17.6434 10.8859 17.4568C10.7199 17.7794 10.3838 18 9.9961 18C9.44381 18 8.9961 17.5523 8.9961 17C8.9961 16.5117 9.3461 16.1051 9.80892 16.0175C9.79653 15.9648 9.78598 15.9114 9.77735 15.8574C8.77099 16.2318 7.61231 15.8429 7.05274 14.8838ZM5.9961 16C6.54838 16 6.9961 16.4477 6.9961 17C6.9961 17.5523 6.54838 18 5.9961 18C5.44381 18 4.9961 17.5523 4.9961 17C4.9961 16.4477 5.44381 16 5.9961 16Z" fill="currentColor" />
</svg>