<svg xmlns="http://www.w3.org/2000/svg" width="24" height="24" viewBox="0 0 24 24" fill="none">
    <path d="M11.7148 7.98926C11.9969 7.51441 12.6111 7.3586 13.0859 7.64062C13.5604 7.92278 13.7165 8.53606 13.4346 9.01074L12.2529 11H13.4961C13.8554 11 14.1874 11.1928 14.3652 11.5049C14.5431 11.8173 14.54 12.2017 14.3565 12.5107L12.2783 16.0107C11.9963 16.4856 11.3821 16.6414 10.9072 16.3594C10.4326 16.0773 10.2767 15.464 10.5586 14.9893L11.7393 13H10.4961C10.1368 13 9.80482 12.8073 9.62696 12.4951C9.44915 12.1827 9.45316 11.7983 9.63672 11.4893L11.7148 7.98926Z" fill="currentColor" />
    <path fill-rule="evenodd" clip-rule="evenodd" d="M22.7461 7.04081V7V6.95919C22.7461 6.29082 22.7461 5.73298 22.7002 5.28125C22.652 4.80783 22.5468 4.36862 22.2822 3.97266C22.0816 3.67239 21.8237 3.41451 21.5234 3.21387C21.1275 2.94934 20.6883 2.84406 20.2148 2.7959C19.7631 2.74997 19.2053 2.74998 18.5369 2.75H18.4961H5.4961H5.45527C4.78692 2.74998 4.22907 2.74997 3.77735 2.7959C3.30393 2.84406 2.86471 2.94934 2.46875 3.21387C2.16848 3.4145 1.9106 3.67238 1.70996 3.97266C1.44543 4.36862 1.34015 4.80783 1.29199 5.28125C1.24606 5.73298 1.24608 6.2908 1.24609 6.95915V7V7.04083C1.24608 7.70918 1.24606 8.26703 1.29199 8.71875C1.34015 9.19217 1.44543 9.63138 1.70996 10.0273C1.9106 10.3276 2.16848 10.5855 2.46875 10.7861C2.86471 11.0507 3.30393 11.1559 3.77735 11.2041C4.22907 11.25 4.78692 11.25 5.45527 11.25H5.4961H8.37457C8.42312 11.1125 8.48544 10.9787 8.56152 10.8506L10.2789 7.95944C10.1893 7.98584 10.0943 8 9.9961 8C9.44381 8 8.9961 7.55229 8.9961 7C8.9961 6.44772 9.44381 6 9.9961 6C10.5149 6 10.9415 6.39515 10.9912 6.90093C11.7016 6.19642 12.8234 6.03085 13.7236 6.56543C14.792 7.19999 15.1443 8.58101 14.5098 9.64941L14.3496 9.91797C14.8076 10.1057 15.1992 10.4424 15.4521 10.8867C15.5188 11.0039 15.5741 11.1255 15.6181 11.25H18.4961H18.5369C19.2053 11.25 19.7631 11.25 20.2148 11.2041C20.6883 11.1559 21.1275 11.0507 21.5234 10.7861C21.8237 10.5855 22.0816 10.3276 22.2822 10.0273C22.5468 9.63138 22.652 9.19217 22.7002 8.71875C22.7461 8.26702 22.7461 7.70918 22.7461 7.04081ZM5.9961 6C6.54838 6 6.9961 6.44772 6.9961 7C6.9961 7.55229 6.54838 8 5.9961 8C5.44381 8 4.9961 7.55229 4.9961 7C4.9961 6.44772 5.44381 6 5.9961 6Z" fill="currentColor" />
    <path fill-rule="evenodd" clip-rule="evenodd" d="M8.54102 13.1133C8.47436 12.9962 8.41901 12.8746 8.37498 12.75H5.4961H5.45522C4.78688 12.75 4.22906 12.75 3.77735 12.7959C3.30393 12.8441 2.86471 12.9493 2.46875 13.2139C2.16848 13.4145 1.9106 13.6724 1.70996 13.9727C1.44543 14.3686 1.34015 14.8078 1.29199 15.2813C1.24606 15.733 1.24608 16.2908 1.24609 16.9591V17V17.0408C1.24608 17.7092 1.24606 18.267 1.29199 18.7188C1.34015 19.1922 1.44543 19.6314 1.70996 20.0273C1.9106 20.3276 2.16848 20.5855 2.46875 20.7861C2.86471 21.0507 3.30393 21.1559 3.77735 21.2041C4.22908 21.25 4.78691 21.25 5.45528 21.25H5.4961H18.4961H18.5369C19.2053 21.25 19.7631 21.25 20.2148 21.2041C20.6883 21.1559 21.1275 21.0507 21.5234 20.7861C21.8237 20.5855 22.0816 20.3276 22.2822 20.0273C22.5468 19.6314 22.652 19.1922 22.7002 18.7188C22.7461 18.267 22.7461 17.7092 22.7461 17.0408V17V16.9592C22.7461 16.2908 22.7461 15.733 22.7002 15.2813C22.652 14.8078 22.5468 14.3686 22.2822 13.9727C22.0816 13.6724 21.8237 13.4145 21.5234 13.2139C21.1275 12.9493 20.6883 12.8441 20.2148 12.7959C19.7631 12.75 19.2053 12.75 18.5369 12.75H18.4961H15.6173C15.5688 12.8871 15.5066 13.0206 15.4307 13.1484L13.3525 16.6484C12.811 17.5604 11.7261 17.9504 10.7555 17.6506C10.5721 17.8645 10.2999 18 9.9961 18C9.44381 18 8.9961 17.5523 8.9961 17C8.9961 16.7152 9.11518 16.4582 9.30627 16.276C9.08128 15.6627 9.12395 14.9571 9.4834 14.3516L9.64453 14.0811C9.1862 13.8934 8.79412 13.5578 8.54102 13.1133ZM5.9961 16C6.54838 16 6.9961 16.4477 6.9961 17C6.9961 17.5523 6.54838 18 5.9961 18C5.44381 18 4.9961 17.5523 4.9961 17C4.9961 16.4477 5.44381 16 5.9961 16Z" fill="currentColor" />
</svg>