<svg xmlns="http://www.w3.org/2000/svg" width="24" height="24" viewBox="0 0 24 24" fill="none">
    <path fill-rule="evenodd" clip-rule="evenodd" d="M5.99616 6.00012L2.96288 2.96691C2.79169 3.02824 2.62681 3.10844 2.46881 3.21399C2.16854 3.41463 1.91066 3.67251 1.71002 3.97278C1.4455 4.36874 1.34021 4.80796 1.29205 5.28137C1.24612 5.7331 1.24614 6.29093 1.24616 6.9593V7.00012V7.04095C1.24614 7.70931 1.24612 8.26714 1.29205 8.71887C1.34021 9.19229 1.4455 9.63151 1.71002 10.0275C1.91066 10.3277 2.16854 10.5856 2.46881 10.7863C2.86477 11.0508 3.30399 11.1561 3.77741 11.2042C4.22913 11.2502 4.78698 11.2501 5.45533 11.2501H5.49616H11.2462L6.99616 7.00012C6.99616 7.55241 6.54844 8.00012 5.99616 8.00012C5.44387 8.00012 4.99616 7.55241 4.99616 7.00012C4.99616 6.44784 5.44387 6.00012 5.99616 6.00012ZM14.4276 11.2501H18.4962H18.537C19.2053 11.2501 19.7632 11.2502 20.2149 11.2042C20.6883 11.1561 21.1275 11.0508 21.5235 10.7863C21.8238 10.5856 22.0817 10.3277 22.2823 10.0275C22.5468 9.63151 22.6521 9.19229 22.7003 8.71887C22.7462 8.26714 22.7462 7.7093 22.7462 7.04094V7.00012V6.95931C22.7462 6.29094 22.7462 5.73311 22.7003 5.28137C22.6521 4.80796 22.5468 4.36874 22.2823 3.97278C22.0817 3.67251 21.8238 3.41463 21.5235 3.21399C21.1275 2.94946 20.6883 2.84418 20.2149 2.79602C19.7632 2.75009 19.2053 2.7501 18.537 2.75012H18.4962H5.92764L9.3856 6.20809C9.55451 6.07769 9.76627 6.00012 9.99616 6.00012C10.5484 6.00012 10.9962 6.44784 10.9962 7.00012C10.9962 7.23001 10.9186 7.44177 10.7882 7.61068L14.4276 11.2501Z" fill="currentColor" />
    <path fill-rule="evenodd" clip-rule="evenodd" d="M20.9964 21.0003L12.7462 12.7501H5.49616H5.45528C4.78695 12.7501 4.22912 12.7501 3.77741 12.796C3.30399 12.8442 2.86477 12.9495 2.46881 13.214C2.16854 13.4146 1.91066 13.6725 1.71002 13.9728C1.4455 14.3687 1.34021 14.808 1.29205 15.2814C1.24612 15.7331 1.24614 16.2909 1.24616 16.9593V17.0001V17.0409C1.24614 17.7093 1.24612 18.2671 1.29205 18.7189C1.34021 19.1923 1.4455 19.6315 1.71002 20.0275C1.91066 20.3277 2.16854 20.5856 2.46881 20.7863C2.86477 21.0508 3.30399 21.1561 3.77741 21.2042C4.22914 21.2502 4.78697 21.2501 5.45534 21.2501H5.49616H18.4962H18.537C19.2053 21.2501 19.7632 21.2502 20.2149 21.2042C20.4992 21.1753 20.7712 21.1258 21.0289 21.0335C21.018 21.0222 21.0072 21.0111 20.9964 21.0003ZM22.5741 19.3966L15.9276 12.7501H18.4962H18.537C19.2054 12.7501 19.7632 12.7501 20.2149 12.796C20.6883 12.8442 21.1275 12.9495 21.5235 13.214C21.8238 13.4146 22.0817 13.6725 22.2823 13.9728C22.5468 14.3687 22.6521 14.808 22.7003 15.2814C22.7462 15.7331 22.7462 16.2909 22.7462 16.9593V17.0001V17.0409C22.7462 17.7093 22.7462 18.2671 22.7003 18.7189C22.6764 18.9535 22.6385 19.1798 22.5741 19.3966ZM9.99616 16.0001C10.5484 16.0001 10.9962 16.4478 10.9962 17.0001C10.9962 17.5524 10.5484 18.0001 9.99616 18.0001C9.44387 18.0001 8.99616 17.5524 8.99616 17.0001C8.99616 16.4478 9.44387 16.0001 9.99616 16.0001ZM5.99616 16.0001C6.54844 16.0001 6.99616 16.4478 6.99616 17.0001C6.99616 17.5524 6.54844 18.0001 5.99616 18.0001C5.44387 18.0001 4.99616 17.5524 4.99616 17.0001C4.99616 16.4478 5.44387 16.0001 5.99616 16.0001Z" fill="currentColor" />
    <path d="M1.28911 1.29314C1.67963 0.902613 2.31265 0.902613 2.70317 1.29314L22.7032 21.2931C23.0937 21.6837 23.0937 22.3167 22.7032 22.7072C22.3126 23.0977 21.6796 23.0977 21.2891 22.7072L1.28911 2.7072C0.898585 2.31668 0.898585 1.68366 1.28911 1.29314Z" fill="currentColor" />
</svg>