<svg xmlns="http://www.w3.org/2000/svg" width="24" height="24" viewBox="0 0 24 24" fill="none">
    <path fill-rule="evenodd" clip-rule="evenodd" d="M22.246 12.0525V11.9999V11.9473C22.246 11.6212 22.246 11.3055 22.2454 10.9999H16.4976V15.4999H22.2074C22.246 14.5058 22.246 13.3631 22.246 12.0525ZM22.0385 17.4999H16.4976V22.1541C16.7817 22.1316 17.0515 22.1037 17.3075 22.0693C18.6842 21.8842 19.7765 21.4968 20.6347 20.6386C21.4533 19.82 21.8436 18.7883 22.0385 17.4999ZM14.4976 22.2378V17.4999H9.4976V22.2378C10.2393 22.2499 11.0525 22.2499 11.9433 22.2499H11.996H12.0487C12.9408 22.2499 13.755 22.2499 14.4976 22.2378ZM7.4976 22.1544L7.4976 17.4999H1.95358C2.14846 18.7883 2.53869 19.82 3.35735 20.6386C4.21554 21.4968 5.30784 21.8842 6.68449 22.0693C6.94151 22.1038 7.21233 22.1318 7.4976 22.1544ZM1.78459 15.4999C1.746 14.5057 1.74601 13.3632 1.74602 12.0525V11.9999V11.9474C1.74602 11.6214 1.74601 11.3054 1.74661 10.9999H7.4976V15.4999H1.78459ZM1.76858 8.99994H8.4976H15.4976H22.2235C22.2009 8.12724 22.1557 7.36061 22.0654 6.68842C21.8803 5.31176 21.4929 4.21947 20.6347 3.36127C19.7765 2.50307 18.6842 2.11569 17.3075 1.9306C15.9632 1.74992 14.2413 1.74993 12.0486 1.74994H11.996H11.9434C9.75078 1.74993 8.02879 1.74992 6.68449 1.9306C5.30784 2.11569 4.21554 2.50307 3.35735 3.36127C2.49915 4.21947 2.11177 5.31176 1.92668 6.68842C1.83633 7.36061 1.79116 8.12724 1.76858 8.99994ZM9.4976 10.9999H14.4976V15.4999H9.4976V10.9999Z" fill="currentColor" />
</svg>