<svg xmlns="http://www.w3.org/2000/svg" width="24" height="24" viewBox="0 0 24 24" fill="none">
    <path fill-rule="evenodd" clip-rule="evenodd" d="M3.99074 3.9945C3.51887 4.1931 3.09662 4.44293 2.80182 4.83313C2.48105 5.2578 2.35755 5.75415 2.30084 6.28918C2.24613 6.80575 2.24614 7.45423 2.24615 8.23899V8.2804V11.1837C2.24623 14.2395 3.62585 16.6628 5.29303 18.4689C6.95508 20.2693 8.93528 21.494 10.2403 22.1827L10.3039 22.2164C10.8594 22.51 11.3135 22.7501 11.9962 22.7501C12.6788 22.7501 13.1329 22.51 13.6884 22.2164L13.752 22.1827C15.0275 21.5096 16.9481 20.3244 18.5861 18.5901L3.99074 3.9945ZM19.9985 16.8208C21.0264 15.2679 21.7461 13.3908 21.7462 11.1837V8.2804V8.23894C21.7462 7.45421 21.7462 6.80574 21.6915 6.28918C21.6348 5.75415 21.5113 5.2578 21.1905 4.83313C20.8592 4.39465 20.367 4.13343 19.8243 3.92297C19.2903 3.71593 18.5868 3.51599 17.7188 3.26926L17.6514 3.25012C16.4431 2.90663 15.3761 2.49229 14.5225 2.1134L14.4843 2.09644C13.9111 1.84196 13.4505 1.6375 13.0811 1.49817C12.7128 1.35925 12.3508 1.25012 11.9962 1.25012C11.6415 1.25012 11.2795 1.35925 10.9112 1.49817C10.5337 1.64056 10.0607 1.85014 9.46979 2.11243C8.63221 2.48423 7.58898 2.89112 6.40847 3.23079L19.9985 16.8208Z" fill="currentColor" />
    <path d="M1.28911 1.29314C1.67963 0.902613 2.31265 0.902613 2.70317 1.29314L22.7032 21.2931C23.0937 21.6837 23.0937 22.3167 22.7032 22.7072C22.3126 23.0977 21.6796 23.0977 21.2891 22.7072L1.28911 2.7072C0.898585 2.31668 0.898585 1.68366 1.28911 1.29314Z" fill="currentColor" />
</svg>