<svg xmlns="http://www.w3.org/2000/svg" width="24" height="24" viewBox="0 0 24 24" fill="none">
    <path d="M20.2889 2.29278C20.6795 1.90225 21.3126 1.90225 21.7031 2.29278C22.0937 2.6833 22.0937 3.31647 21.7031 3.70699L17.8395 7.57065L18.7798 8.51099L18.8093 8.5404C18.9401 8.67094 19.107 8.83755 19.2241 8.99626C19.3454 9.16048 19.6348 9.61104 19.4174 10.1724C19.2017 10.7295 18.6911 10.8702 18.4867 10.9113C18.2938 10.95 18.0595 10.9607 17.8779 10.9689L17.8366 10.9708C17.2294 10.9991 16.4306 11.018 15.7168 10.9726C15.362 10.95 14.9984 10.9099 14.6773 10.8371C14.4047 10.7754 13.971 10.6517 13.6576 10.3383C13.3442 10.0249 13.2205 9.59119 13.1588 9.31864C13.086 8.99756 13.0459 8.63388 13.0233 8.27911C12.9779 7.56532 12.9968 6.7665 13.0251 6.15934L13.027 6.11804C13.0353 5.93644 13.046 5.70213 13.0847 5.50922C13.1257 5.30482 13.2665 4.79418 13.8236 4.57849C14.3849 4.36116 14.8355 4.65058 14.9997 4.77179C15.1584 4.88893 15.325 5.05587 15.4556 5.18667L15.4556 5.18667L15.485 5.21613L16.4253 6.15643L20.2889 2.29278Z" fill="currentColor" />
    <path d="M3.70308 2.29278C3.31255 1.90225 2.67939 1.90225 2.28886 2.29278C1.89834 2.6833 1.89834 3.31647 2.28886 3.70699L6.15252 7.57065L5.21219 8.51099L5.18274 8.5404C5.05193 8.67094 4.885 8.83755 4.76785 8.99626C4.64664 9.16048 4.35722 9.61104 4.57457 10.1724C4.79026 10.7295 5.30091 10.8702 5.50531 10.9113C5.69822 10.95 5.93253 10.9607 6.11412 10.9689L6.15543 10.9708C6.7626 10.9991 7.56141 11.018 8.27521 10.9726C8.62997 10.95 8.99365 10.9099 9.31473 10.8371C9.58728 10.7754 10.021 10.6517 10.3344 10.3383C10.6478 10.0249 10.7715 9.59119 10.8332 9.31864C10.906 8.99756 10.9461 8.63388 10.9687 8.27911C11.0141 7.56532 10.9952 6.7665 10.9669 6.15934L10.965 6.11804C10.9567 5.93644 10.946 5.70213 10.9073 5.50922C10.8663 5.30482 10.7255 4.79418 10.1684 4.57849C9.60707 4.36116 9.15651 4.65058 8.99229 4.77179C8.83359 4.88893 8.66699 5.05587 8.53645 5.18667L8.53644 5.18667L8.50703 5.21613L7.56673 6.15643L3.70308 2.29278Z" fill="currentColor" />
    <path d="M3.70308 21.707C3.31255 22.0975 2.67939 22.0975 2.28886 21.707C1.89834 21.3165 1.89834 20.6833 2.28886 20.2928L6.15252 16.4291L5.21219 15.4888L5.18274 15.4594C5.05193 15.3288 4.885 15.1622 4.76785 15.0035C4.64664 14.8393 4.35722 14.3887 4.57457 13.8274C4.79026 13.2703 5.30091 13.1295 5.50531 13.0885C5.69822 13.0498 5.93253 13.0391 6.11412 13.0308L6.15543 13.0289C6.7626 13.0006 7.56141 12.9818 8.27521 13.0272C8.62997 13.0497 8.99365 13.0899 9.31473 13.1626C9.58728 13.2244 10.021 13.3481 10.3344 13.6615C10.6478 13.9749 10.7715 14.4086 10.8332 14.6811C10.906 15.0022 10.9461 15.3659 10.9687 15.7206C11.0141 16.4344 10.9952 17.2333 10.9669 17.8404L10.965 17.8817C10.9567 18.0633 10.946 18.2976 10.9073 18.4905C10.8663 18.6949 10.7255 19.2056 10.1684 19.4213C9.60707 19.6386 9.15651 19.3492 8.99229 19.228C8.83359 19.1108 8.66699 18.9439 8.53645 18.8131L8.53644 18.8131L8.50703 18.7836L7.56673 17.8433L3.70308 21.707Z" fill="currentColor" />
    <path d="M20.2889 21.707C20.6795 22.0975 21.3126 22.0975 21.7031 21.707C22.0937 21.3165 22.0937 20.6833 21.7031 20.2928L17.8395 16.4291L18.7798 15.4888L18.8093 15.4594C18.9401 15.3288 19.107 15.1622 19.2241 15.0035C19.3454 14.8393 19.6348 14.3887 19.4174 13.8274C19.2017 13.2703 18.6911 13.1295 18.4867 13.0885C18.2938 13.0498 18.0595 13.0391 17.8779 13.0308L17.8366 13.0289C17.2294 13.0006 16.4306 12.9818 15.7168 13.0272C15.362 13.0497 14.9984 13.0899 14.6773 13.1626C14.4047 13.2244 13.971 13.3481 13.6576 13.6615C13.3442 13.9749 13.2205 14.4086 13.1588 14.6811C13.086 15.0022 13.0459 15.3659 13.0233 15.7206C12.9779 16.4344 12.9968 17.2333 13.0251 17.8404L13.027 17.8817C13.0353 18.0633 13.046 18.2976 13.0847 18.4905C13.1257 18.6949 13.2665 19.2056 13.8236 19.4213C14.3849 19.6386 14.8355 19.3492 14.9997 19.228C15.1584 19.1108 15.325 18.9439 15.4556 18.8131L15.4556 18.8131L15.485 18.7836L16.4253 17.8433L20.2889 21.707Z" fill="currentColor" />
</svg>