<svg xmlns="http://www.w3.org/2000/svg" width="24" height="24" viewBox="0 0 24 24" fill="none">
    <path fill-rule="evenodd" clip-rule="evenodd" d="M3.25498 8.66486C3.03552 8.4974 2.92578 8.41367 2.91038 8.28835C2.89499 8.16302 2.97748 8.05986 3.14245 7.85355C4.56245 6.07774 6.62322 4.83667 8.97442 4.48067C9.2658 4.43656 9.41149 4.4145 9.51587 4.50427C9.62027 4.59405 9.62027 4.74806 9.62027 5.05608V7.52598C9.62027 7.94019 9.95605 8.27598 10.3703 8.27598C10.7845 8.27598 11.1203 7.94019 11.1203 7.52598V4.97598C11.1203 4.69313 11.1203 4.55171 11.2081 4.46384C11.296 4.37598 11.4374 4.37598 11.7203 4.37598H17.1707C18.4542 4.37598 19.7734 5.47865 19.3877 6.99381C18.5563 10.2597 15.5966 12.676 12.0707 12.676H10.3707C10.0782 12.676 9.80201 12.7457 9.55783 12.8696C9.30108 12.9997 9.17271 13.0648 9.08672 13.057C9.00073 13.0491 8.91439 12.9832 8.74172 12.8515L3.25498 8.66486ZM14.3707 9.12598C14.923 9.12598 15.3707 8.67826 15.3707 8.12598C15.3707 7.57369 14.923 7.12598 14.3707 7.12598H14.3617C13.8095 7.12598 13.3617 7.57369 13.3617 8.12598C13.3617 8.67826 13.8095 9.12598 14.3617 9.12598H14.3707Z" fill="currentColor" />
    <path d="M1.73919 10.2935C1.8579 9.98626 1.91726 9.83261 2.06156 9.79188C2.20585 9.75114 2.34287 9.85568 2.6169 10.0648L8.36142 14.4481C8.4579 14.5217 8.50615 14.5585 8.53462 14.6028C8.5631 14.647 8.58066 14.724 8.61579 14.878C8.64152 14.9908 8.67783 15.0995 8.72364 15.2031C8.85559 15.5016 8.92156 15.6508 8.90374 15.7431C8.88592 15.8353 8.79853 15.9205 8.62375 16.091L4.54549 20.0681C4.35133 20.2575 4.25425 20.3521 4.12981 20.3505C4.00537 20.3488 3.91497 20.2557 3.73416 20.0695C2.11664 18.4038 1.12073 16.1312 1.12073 13.626C1.12073 12.4511 1.33975 11.3275 1.73919 10.2935Z" fill="currentColor" />
    <path d="M10.2542 16.5961C10.4342 16.4206 10.5243 16.3328 10.5599 16.3132C10.5939 16.2945 10.5873 16.2971 10.6247 16.2868C10.6639 16.276 10.7184 16.276 10.8273 16.276H13.4101C13.6495 16.276 13.7692 16.276 13.8503 16.2132C13.9314 16.1504 13.9642 16.0236 14.0298 15.77C14.5055 13.9308 16.0016 12.503 17.8779 12.1247C18.9057 11.9175 19.6207 12.7942 19.6207 13.626C19.6207 18.7346 15.4794 22.876 10.3707 22.876C8.78359 22.876 7.28982 22.4763 5.98459 21.772C5.68956 21.6128 5.54205 21.5332 5.52101 21.3828C5.49998 21.2325 5.62552 21.1101 5.8766 20.8652L10.2542 16.5961Z" fill="currentColor" />
    <path fill-rule="evenodd" clip-rule="evenodd" d="M7.87079 2.12598C7.87079 1.57369 8.3185 1.12598 8.87079 1.12598H20.0316C21.8114 1.12598 23.1697 2.74382 22.8147 4.5016C22.4202 6.45447 20.6996 7.71984 19.01 8.10141C18.4713 8.22308 17.936 7.88499 17.8143 7.34627C17.6926 6.80756 18.0307 6.27221 18.5694 6.15054C19.7287 5.88874 20.6591 5.07201 20.8543 4.10564C20.9543 3.61028 20.5722 3.12598 20.0316 3.12598H8.87079C8.3185 3.12598 7.87079 2.67826 7.87079 2.12598Z" fill="currentColor" />
</svg>