<svg xmlns="http://www.w3.org/2000/svg" width="24" height="24" viewBox="0 0 24 24" fill="none">
    <path d="M16.5059 5.34967C16.1425 5.24954 15.7646 5.24975 15.2842 5.25003L15.207 5.25006H13.2461H11.7461H10.2461H8.7461H8.00586L7.96546 5.25006C7.29485 5.25004 6.73509 5.25002 6.28223 5.29596C5.808 5.34406 5.36813 5.44882 4.97168 5.71295C4.67088 5.91344 4.41209 6.17145 4.21094 6.47174C3.94567 6.86781 3.8403 7.30767 3.79199 7.78131C3.74605 8.23216 3.74607 8.78864 3.7461 9.45499V9.50006V9.54512C3.74607 10.2115 3.74605 10.768 3.79199 11.2188C3.8403 11.6924 3.94567 12.1323 4.21094 12.5284C4.41209 12.8287 4.67088 13.0867 4.97168 13.2872C5.3681 13.5513 5.80808 13.656 6.28223 13.7042C6.73513 13.7501 7.29461 13.7501 7.96522 13.7501H8.00488H8.7461H10.2461H11.7461H13.2461H15.208L15.2847 13.7501C15.765 13.7504 16.1426 13.7506 16.5059 13.6504C16.6649 13.6066 16.8201 13.5491 16.9688 13.4776C17.3077 13.3145 17.5914 13.0666 17.9515 12.7518L18.0117 12.6993L18.0445 12.6707C18.6147 12.173 19.0875 11.7604 19.4307 11.3897C19.788 11.0038 20.0727 10.5933 20.1836 10.0821C20.2667 9.69874 20.2667 9.30138 20.1836 8.91803C20.0727 8.40684 19.788 7.99636 19.4307 7.61041C19.0875 7.23972 18.6147 6.82711 18.0445 6.32942L18.0117 6.30084L17.9516 6.24828C17.5914 5.93354 17.3077 5.68557 16.9688 5.52252C16.8201 5.45102 16.6649 5.39351 16.5059 5.34967Z" fill="currentColor" />
    <path fill-rule="evenodd" clip-rule="evenodd" d="M8.75244 4H10.2461H11.7461H13.2397C13.2383 3.96602 13.2365 3.9331 13.2344 3.90137C13.2222 3.72385 13.1954 3.52841 13.1133 3.33008C12.9357 2.90132 12.5948 2.56043 12.166 2.38281C11.9677 2.30066 11.7722 2.27386 11.5947 2.26172C11.4238 2.25006 11.2188 2.25 10.9961 2.25C10.7734 2.25 10.5684 2.25006 10.3975 2.26172C10.2199 2.27386 10.0245 2.30066 9.82617 2.38281C9.39741 2.56043 9.05652 2.90132 8.8789 3.33008C8.79675 3.52841 8.76995 3.72384 8.75781 3.90137C8.75565 3.9331 8.75388 3.96602 8.75244 4Z" fill="currentColor" />
    <path fill-rule="evenodd" clip-rule="evenodd" d="M8.74609 15V19.5C8.74609 19.7226 8.74615 19.9278 8.75781 20.0986C8.76995 20.2762 8.79675 20.4716 8.87891 20.6699C9.05652 21.0987 9.39741 21.4396 9.82617 21.6172C10.0245 21.6993 10.2199 21.7261 10.3975 21.7383C10.5684 21.7499 10.7734 21.75 10.9961 21.75C11.2188 21.75 11.4238 21.7499 11.5947 21.7383C11.7722 21.7261 11.9677 21.6993 12.166 21.6172C12.5948 21.4396 12.9357 21.0987 13.1133 20.6699C13.1954 20.4716 13.2222 20.2762 13.2344 20.0986C13.246 19.9277 13.2461 19.7227 13.2461 19.5V15H8.74609Z" fill="currentColor" />
</svg>