<svg xmlns="http://www.w3.org/2000/svg" width="24" height="24" viewBox="0 0 24 24" fill="none">
    <path fill-rule="evenodd" clip-rule="evenodd" d="M4.24602 15.533C4.40959 15.5112 4.57649 15.5 4.74602 15.5H19.246C19.4155 15.5 19.5824 15.5112 19.746 15.533V10C19.746 5.71979 16.2762 2.25 11.996 2.25C7.71581 2.25 4.24602 5.71979 4.24602 10V15.533ZM10.996 5C8.78688 5 6.99602 6.79086 6.99602 9C6.99602 9.55228 7.44373 10 7.99602 10C8.5483 10 8.99602 9.55228 8.99602 9C8.99602 7.89543 9.89145 7 10.996 7C11.5483 7 11.996 6.55228 11.996 6C11.996 5.44772 11.5483 5 10.996 5Z" fill="currentColor" />
    <path d="M2.24602 19.25C2.24602 17.8693 3.36531 16.75 4.74602 16.75H19.246C20.6267 16.75 21.746 17.8693 21.746 19.25C21.746 20.6307 20.6267 21.75 19.246 21.75H4.74602C3.36531 21.75 2.24602 20.6307 2.24602 19.25Z" fill="currentColor" />
</svg>