<svg xmlns="http://www.w3.org/2000/svg" width="24" height="24" viewBox="0 0 24 24" fill="none">
    <path fill-rule="evenodd" clip-rule="evenodd" d="M11.8508 6.89157L11.9401 6.94899C13.2567 7.79539 14.3031 8.46805 15.0466 9.08352C15.803 9.70962 16.361 10.3668 16.5402 11.2201C16.6481 11.734 16.6481 12.2659 16.5402 12.7798C16.361 13.633 15.803 14.2902 15.0466 14.9163C14.3031 15.5318 13.2567 16.2044 11.9402 17.0508L11.8508 17.1083C10.4172 18.0299 9.2819 18.7598 8.35551 19.2074C7.42337 19.6577 6.53733 19.9076 5.6623 19.6401C5.1462 19.4823 4.67359 19.2056 4.27875 18.8332C3.61797 18.2099 3.36172 17.3145 3.2412 16.2569C3.12107 15.2027 3.12108 13.8136 3.12109 12.0508V11.9491C3.12108 10.1862 3.12107 8.79714 3.2412 7.74295C3.36172 6.68531 3.61797 5.78993 4.27875 5.16668C4.67359 4.79426 5.1462 4.51758 5.6623 4.35977C6.53733 4.09221 7.42337 4.34212 8.35551 4.79247C9.28189 5.24003 10.4172 5.96993 11.8508 6.89157Z" fill="currentColor" />
    <path fill-rule="evenodd" clip-rule="evenodd" d="M19.8711 3C19.3188 3 18.8711 3.44772 18.8711 4L18.8711 20C18.8711 20.5523 19.3188 21 19.8711 21C20.4234 21 20.8711 20.5523 20.8711 20L20.8711 4C20.8711 3.44772 20.4234 3 19.8711 3Z" fill="currentColor" />
</svg>