<svg xmlns="http://www.w3.org/2000/svg" width="24" height="24" viewBox="0 0 24 24" fill="none">
    <path fill-rule="evenodd" clip-rule="evenodd" d="M21.0052 3.49489C20.0154 2.5004 18.4091 2.5004 17.4193 3.49489L8.3836 12.5732C8.56023 12.6477 8.7264 12.7476 8.87633 12.8709L9.02379 13.0047L11.5462 15.5398L11.6781 15.6873C11.7976 15.8339 11.8948 15.9958 11.9679 16.1677L21.0052 7.08767C21.993 6.0952 21.9929 4.48744 21.0052 3.49489Z" fill="currentColor" />
    <path d="M7.60484 13.666C7.80437 13.666 7.99632 13.7453 8.13707 13.8867L10.6595 16.4219C10.7991 16.5623 10.8772 16.7522 10.8773 16.9502L10.8773 17.0059C10.8773 17.6776 10.8774 18.2384 10.8314 18.6924C10.7829 19.1711 10.6779 19.6145 10.4125 20.0137C10.2108 20.3169 9.95105 20.5774 9.64879 20.7803C9.2504 21.0477 8.80792 21.1533 8.33043 21.2021C7.87166 21.249 7.3041 21.249 6.62337 21.249H6.59605H6.24156L6.16908 21.249C5.269 21.2491 4.51698 21.2491 3.95738 21.1748C3.41189 21.1023 2.7514 20.926 2.42613 20.2988C2.37877 20.2075 2.33971 20.1118 2.30895 20.0137C2.0984 19.3414 2.43952 18.7507 2.77379 18.3125C3.11687 17.8628 3.64836 17.3288 4.285 16.6892L4.33629 16.6377L7.07359 13.8867L7.18785 13.793C7.31035 13.7109 7.45523 13.6661 7.60484 13.666Z" fill="currentColor" />
</svg>