<svg xmlns="http://www.w3.org/2000/svg" width="24" height="24" viewBox="0 0 24 24" fill="none">
    <path fill-rule="evenodd" clip-rule="evenodd" d="M16.2282 1.34841C15.6052 1.26374 14.844 1.25207 13.9524 1.25049H10.0428C9.15122 1.25207 8.39004 1.26374 7.76708 1.34841C7.00179 1.45243 6.30203 1.68244 5.73858 2.25208C5.17512 2.82171 4.94761 3.52915 4.84472 4.30283C4.74755 5.03351 4.74758 5.95228 4.74762 7.04679V16.9537C4.74758 18.0482 4.74755 18.967 4.84472 19.6977C4.94761 20.4713 5.17512 21.1788 5.73858 21.7484C6.30203 22.3181 7.00179 22.5481 7.76708 22.6521C8.48982 22.7503 9.3986 22.7503 10.4812 22.7502H13.5139C14.5965 22.7503 15.5054 22.7503 16.2282 22.6521C16.9935 22.5481 17.6932 22.3181 18.2567 21.7484C18.8201 21.1788 19.0476 20.4713 19.1505 19.6977C19.2477 18.967 19.2477 18.0482 19.2476 16.9537V7.04683C19.2477 5.9523 19.2477 5.03352 19.1505 4.30283C19.0476 3.52915 18.8201 2.82171 18.2567 2.25208C17.6932 1.68244 16.9935 1.45243 16.2282 1.34841ZM8.0247 3.28442C8.40322 3.23298 8.86686 3.21429 9.46876 3.20752L9.68302 3.64074C9.84677 3.97182 10.1815 4.18096 10.5476 4.18096H13.4476C13.8138 4.18096 14.1485 3.97182 14.3122 3.64074L14.5265 3.20752C15.1284 3.21429 15.592 3.23298 15.9706 3.28442C16.5215 3.3593 16.7452 3.48709 16.8896 3.63305C17.034 3.779 17.1604 4.00522 17.2344 4.56217C17.3122 5.14722 17.3143 5.93343 17.3143 7.11278V16.8855C17.3143 17.46 17.3138 18.5904 17.3043 19.0005H6.69095C6.68146 18.5904 6.68097 17.46 6.68097 16.8855V7.11278C6.68097 5.93343 6.68302 5.14722 6.76083 4.56217C6.8349 4.00522 6.9613 3.779 7.10567 3.63305C7.25004 3.48709 7.4738 3.3593 8.0247 3.28442Z" fill="currentColor" />
</svg>