<svg xmlns="http://www.w3.org/2000/svg" width="24" height="24" viewBox="0 0 24 24" fill="none">
    <path fill-rule="evenodd" clip-rule="evenodd" d="M6.85177 18.4279C6.8464 18.4251 6.84 18.4218 6.83313 18.418L6.85177 18.4279ZM6.94446 18.8106C6.95026 18.7935 6.95524 18.779 6.95949 18.7667L6.94446 18.8106ZM17.1451 18.4259C17.1419 18.4278 17.1474 18.4246 17.1451 18.4259V18.4259Z" fill="currentColor" />
    <path d="M19.0157 10.375L19.0731 10.375C19.5238 10.3749 19.9529 10.3748 20.3038 10.4356C20.7142 10.5066 21.1116 10.6748 21.4113 11.0694C21.6905 11.4372 21.7718 11.8276 21.7394 12.2324C21.7131 12.5593 21.6077 12.9248 21.505 13.2808L21.4894 13.335C20.7066 16.0536 18.6668 17.5934 17.2697 18.3574L17.1642 18.4151C17.1597 18.4175 17.1488 18.4238 17.1451 18.4259C17.1419 18.4278 17.1474 18.4246 17.1451 18.4259C17.0502 18.4816 17.0173 18.5334 17.0109 18.5498C17.0047 18.5656 16.9903 18.6145 17.0226 18.7178L17.0284 18.7354L17.0529 18.8057C17.0765 18.8741 17.096 18.9313 17.1105 18.9795C17.5353 20.3924 16.5054 21.8132 15.0382 21.8731C14.9899 21.875 14.9323 21.875 14.8631 21.875H9.15344C9.07359 21.875 9.00732 21.8745 8.95227 21.8721C7.49811 21.807 6.47492 20.4055 6.88196 19.001C6.89526 18.9551 6.91332 18.9021 6.93446 18.84L6.94446 18.8106L6.95949 18.7667L6.96985 18.7363L6.97416 18.7228C7.00529 18.62 6.99159 18.5674 6.98547 18.5518C6.979 18.5355 6.95631 18.489 6.86243 18.4336L6.85177 18.4279L6.83313 18.418L6.80789 18.4041L6.72473 18.3584C5.32746 17.5948 3.28621 16.0548 2.50305 13.335L2.48743 13.2808C2.38474 12.9248 2.27931 12.5593 2.25305 12.2324C2.22061 11.8276 2.30193 11.4372 2.58118 11.0694C2.88081 10.6748 3.27828 10.5066 3.6886 10.4356C4.03952 10.3748 4.46863 10.3749 4.91936 10.375L4.97668 10.375H19.0157Z" fill="currentColor" />
    <path d="M10.7892 2.41802C11.1797 2.02749 11.8127 2.02749 12.2032 2.41802L12.7032 2.91802C13.646 3.86082 13.646 5.38927 12.7032 6.33208C12.5415 6.49384 12.5415 6.75625 12.7032 6.91802L13.2032 7.41802C13.5938 7.80854 13.5938 8.44155 13.2032 8.83208C12.8127 9.2226 12.1797 9.2226 11.7892 8.83208L11.2892 8.33208C10.3464 7.38927 10.3464 5.86082 11.2892 4.91802C11.4509 4.75626 11.4509 4.49384 11.2892 4.33208L10.7892 3.83208C10.3986 3.44155 10.3986 2.80854 10.7892 2.41802Z" fill="currentColor" />
    <path d="M5.78917 2.41802C6.17969 2.02749 6.81271 2.02749 7.20323 2.41802L7.70323 2.91802C8.64604 3.86082 8.64604 5.38927 7.70323 6.33208C7.54147 6.49384 7.54147 6.75625 7.70323 6.91802L8.20323 7.41802C8.59376 7.80854 8.59376 8.44155 8.20323 8.83208C7.81271 9.2226 7.17969 9.2226 6.78917 8.83208L6.28917 8.33208C5.34636 7.38927 5.34636 5.86082 6.28917 4.91802C6.45093 4.75626 6.45093 4.49384 6.28917 4.33208L5.78917 3.83208C5.39865 3.44155 5.39865 2.80854 5.78917 2.41802Z" fill="currentColor" />
    <path d="M18.1017 4.67768C18.3487 4.1837 18.9495 3.98343 19.4435 4.23041C19.9375 4.4774 20.1377 5.07823 19.8908 5.57221L16.8908 11.5722C16.6438 12.0662 16.0429 12.2665 15.549 12.0195C15.055 11.7725 14.8547 11.1717 15.1017 10.6777L18.1017 4.67768Z" fill="currentColor" />
</svg>