<svg xmlns="http://www.w3.org/2000/svg" width="24" height="24" viewBox="0 0 24 24" fill="none">
    <path d="M14.9965 12C15.5487 12 15.9965 12.4477 15.9965 13C15.9965 13.5523 15.5487 14 14.9965 14H5.99645C5.44417 14 4.99645 13.5523 4.99645 13C4.99645 12.4477 5.44417 12 5.99645 12H14.9965Z" fill="currentColor" />
    <path d="M10.7631 2.00977C11.7809 2.11265 12.3879 2.97003 12.7953 3.73438C13.2633 4.61272 13.7377 5.89831 14.3236 7.47656L16.934 14.5088C17.1261 15.0265 16.8618 15.6018 16.3441 15.7939C15.8265 15.9859 15.2513 15.7225 15.059 15.2051L12.4486 8.17285C11.8402 6.53392 11.4186 5.40572 11.0297 4.67578C10.837 4.31419 10.6919 4.12812 10.5951 4.04004C10.5795 4.02583 10.5655 4.01764 10.556 4.01074C10.5466 4.01769 10.5333 4.02699 10.5179 4.04102C10.4213 4.1295 10.2767 4.31512 10.0853 4.67676C9.6984 5.40789 9.27997 6.53779 8.67614 8.17871L4.93493 18.3457C4.74408 18.8638 4.16895 19.1292 3.65075 18.9385C3.13265 18.7476 2.86729 18.1725 3.05797 17.6543L6.79919 7.4873C7.38056 5.90741 7.85123 4.6209 8.31676 3.74121C8.74894 2.92458 9.40801 2.00197 10.5531 2L10.7631 2.00977Z" fill="currentColor" />
    <path fill-rule="evenodd" clip-rule="evenodd" d="M20.8832 15.5381C20.628 15.0483 20.0243 14.8582 19.5345 15.1133C18.1066 15.8571 16.9411 17.2807 16.1713 18.4034C15.9545 18.7195 15.7618 19.023 15.5961 19.2969C15.4829 19.2011 15.3735 19.1149 15.2728 19.0391C15.0577 18.8771 14.8644 18.7494 14.723 18.6612C14.652 18.6169 14.5927 18.5823 14.5502 18.5577L14.5344 18.5485C14.5206 18.5405 14.5088 18.5336 14.4994 18.5284L14.4889 18.5228L14.474 18.5137C13.9887 18.2501 13.3812 18.4307 13.1175 18.9161C12.8547 19.4006 13.0373 20.0083 13.5209 20.2725L13.5482 20.2881C13.5736 20.3029 13.6137 20.3268 13.6644 20.3584C13.7667 20.4222 13.9104 20.5168 14.0697 20.6368C14.4033 20.8879 14.7434 21.204 14.9496 21.5323C15.1433 21.8405 15.4894 22.0186 15.8529 21.9981C16.2165 21.9775 16.5429 21.7561 16.7006 21.4278C16.703 21.4226 16.7094 21.4092 16.7133 21.4014C16.725 21.3776 16.7434 21.3409 16.7679 21.293C16.8174 21.1967 16.8924 21.0548 16.9896 20.8799C17.1846 20.529 17.4686 20.0491 17.8216 19.5342C18.5518 18.4694 19.4864 17.393 20.4584 16.8868C20.9481 16.6316 21.1383 16.0279 20.8832 15.5381Z" fill="currentColor" />
</svg>