<svg xmlns="http://www.w3.org/2000/svg" width="24" height="24" viewBox="0 0 24 24" fill="none">
    <path fill-rule="evenodd" clip-rule="evenodd" d="M2.99567 2.15487C2.98837 2.15535 2.98207 2.15576 2.97699 2.15618C2.97419 2.15642 2.96975 2.15695 2.96593 2.1574L2.97699 2.15618L2.99567 2.15487ZM2.27742 2.87311C2.27791 2.86581 2.27832 2.85951 2.27874 2.85443L2.27742 2.87311Z" fill="currentColor" />
    <path fill-rule="evenodd" clip-rule="evenodd" d="M5.41937 2.20599C4.74443 2.131 4.13434 2.11873 3.69378 2.12493C3.47304 2.12805 3.29279 2.13634 3.16644 2.14349C3.10362 2.14705 3.05396 2.15065 3.01898 2.15325L2.99567 2.15487L2.97699 2.15618L2.96593 2.1574C2.60537 2.19018 2.3125 2.48216 2.27972 2.84271L2.27874 2.85443L2.27742 2.87311L2.27581 2.89642C2.27321 2.9314 2.26961 2.98106 2.26605 3.04388C2.2589 3.17024 2.25061 3.35048 2.24749 3.57122C2.24129 4.01179 2.25356 4.62188 2.32855 5.29681C2.47385 6.60452 2.87292 8.33532 4.00531 9.46771C5.29797 10.7601 7.26394 10.9694 8.77444 10.0952C8.55986 9.85215 8.29105 9.58255 7.75433 9.04583L6.78949 8.08099C6.39896 7.69046 6.39896 7.05745 6.78949 6.66693C7.18001 6.2764 7.81302 6.2764 8.20355 6.66693L9.16839 7.63177L9.22215 7.68553C9.65964 8.12297 9.95225 8.41556 10.1976 8.6863C11.095 7.17136 10.8925 5.18526 9.59027 3.88275C8.45788 2.75036 6.72708 2.35129 5.41937 2.20599Z" fill="currentColor" />
    <path fill-rule="evenodd" clip-rule="evenodd" d="M20.9965 2.15487C21.0038 2.15535 21.0101 2.15576 21.0152 2.15618C21.018 2.15642 21.0224 2.15695 21.0263 2.1574L21.0152 2.15618L20.9965 2.15487ZM21.7148 2.87311C21.7143 2.86581 21.7139 2.85951 21.7134 2.85443L21.7148 2.87311Z" fill="currentColor" />
    <path fill-rule="evenodd" clip-rule="evenodd" d="M18.5728 2.20599C19.2478 2.131 19.8578 2.11873 20.2984 2.12493C20.5191 2.12805 20.6994 2.13634 20.8257 2.14349C20.8886 2.14705 20.9382 2.15065 20.9732 2.15325L20.9965 2.15487L21.0152 2.15618L21.0263 2.1574C21.3868 2.19018 21.6797 2.48216 21.7125 2.84271L21.7134 2.85443L21.7148 2.87311L21.7164 2.89642C21.719 2.9314 21.7226 2.98106 21.7261 3.04388C21.7333 3.17024 21.7416 3.35048 21.7447 3.57122C21.7509 4.01179 21.7386 4.62188 21.6636 5.29681C21.5183 6.60452 21.1193 8.33532 19.9869 9.46771C18.6942 10.7601 16.7282 10.9694 15.2178 10.0952C15.4323 9.85215 15.7011 9.58255 16.2379 9.04583L17.2027 8.08099C17.5932 7.69046 17.5932 7.05745 17.2027 6.66693C16.8122 6.2764 16.1792 6.2764 15.7886 6.66693L14.8238 7.63177L14.7701 7.6855C14.3325 8.123 14.04 8.41554 13.7946 8.68631C12.8971 7.17136 13.0997 5.18526 14.4019 3.88275C15.5343 2.75036 17.2651 2.35129 18.5728 2.20599Z" fill="currentColor" />
    <path d="M11.9963 15.874C15.5955 15.874 18.7911 17.6039 20.7961 20.2734C21.1277 20.715 21.0384 21.3422 20.5969 21.6738C20.1553 22.0054 19.5281 21.9162 19.1965 21.4746C17.5529 19.2864 14.9397 17.874 11.9963 17.874C9.05281 17.874 6.43959 19.2864 4.79607 21.4746C4.46442 21.9162 3.83728 22.0054 3.39568 21.6738C2.9541 21.3422 2.86486 20.715 3.19646 20.2734C5.20144 17.6039 8.39708 15.874 11.9963 15.874Z" fill="currentColor" />
    <path fill-rule="evenodd" clip-rule="evenodd" d="M10.9961 16.8109L10.9961 16.8742C10.9961 17.4265 11.4438 17.8742 11.9961 17.8742C12.5484 17.8742 12.9961 17.4265 12.9961 16.8742C12.9961 16.015 12.9964 15.6408 13.0254 15.2853C13.1784 13.4082 13.9167 11.6261 15.1357 10.1906C15.1626 10.159 15.1899 10.1274 15.2182 10.0954C14.9265 9.92664 14.6519 9.71748 14.4023 9.46793C14.1626 9.22822 13.9602 8.96535 13.795 8.68652C13.7312 8.75699 13.6705 8.82597 13.6113 8.89566C12.1214 10.6501 11.2193 12.828 11.0322 15.1222C10.9961 15.566 10.9961 16.023 10.9961 16.8109Z" fill="currentColor" />
    <path fill-rule="evenodd" clip-rule="evenodd" d="M10.9662 15.2853C10.9952 15.6408 10.9955 16.015 10.9955 16.8742C10.9955 17.4265 11.4432 17.8742 11.9955 17.8742C12.5478 17.8742 12.9955 17.4265 12.9955 16.8742L12.9955 16.811C12.9955 16.023 12.9956 15.566 12.9594 15.1222C12.7723 12.8281 11.8703 10.6501 10.3803 8.89566C10.3211 8.82598 10.2604 8.75699 10.1966 8.68652C10.0314 8.96535 9.82898 9.22822 9.58927 9.46793C9.33972 9.71748 9.06507 9.92664 8.77344 10.0954C8.80169 10.1274 8.82901 10.159 8.85587 10.1906C10.0749 11.6261 10.8132 13.4082 10.9662 15.2853Z" fill="currentColor" />
</svg>