<svg xmlns="http://www.w3.org/2000/svg" width="24" height="24" viewBox="0 0 24 24" fill="none">
    <path d="M12.0498 1.75C14.2401 1.74999 15.9604 1.75012 17.3037 1.93066C18.6804 2.11575 19.7727 2.50313 20.6309 3.36133C21.4891 4.21953 21.8764 5.31182 22.0615 6.68848C22.2421 8.03174 22.2422 9.75212 22.2422 11.9424V12.0576C22.2422 14.2479 22.2421 15.9683 22.0615 17.3115C21.8764 18.6882 21.4891 19.7805 20.6309 20.6387C19.7727 21.4969 18.6804 21.8842 17.3037 22.0693C15.9604 22.2499 14.2401 22.25 12.0498 22.25H11.9346C9.74431 22.25 8.02393 22.2499 6.68066 22.0693C5.30401 21.8842 4.21171 21.4969 3.35352 20.6387C2.49532 19.7805 2.10794 18.6882 1.92285 17.3115C1.7423 15.9683 1.74217 14.2479 1.74219 12.0576V11.9424C1.74217 9.75212 1.7423 8.03174 1.92285 6.68848C2.10794 5.31182 2.49532 4.21953 3.35352 3.36133C4.21171 2.50313 5.30401 2.11575 6.68066 1.93066C8.02393 1.75012 9.74431 1.74999 11.9346 1.75H12.0498ZM7.99219 11C7.4399 11 6.99219 11.4477 6.99219 12C6.99219 12.5523 7.4399 13 7.99219 13H15.9922C16.5445 13 16.9922 12.5523 16.9922 12C16.9922 11.4477 16.5445 11 15.9922 11H7.99219Z" fill="currentColor" />
</svg>