<svg xmlns="http://www.w3.org/2000/svg" width="24" height="24" viewBox="0 0 24 24" fill="none">
    <path d="M22.2422 12V12.0526C22.2422 14.2452 22.2422 15.9672 22.0615 17.3115C21.8764 18.6882 21.4891 19.7805 20.6309 20.6387C19.7727 21.4969 18.6804 21.8842 17.3037 22.0693C15.9594 22.25 14.2375 22.25 12.0448 22.25H11.9922H11.9396C9.74696 22.25 8.02495 22.25 6.68066 22.0693C5.30401 21.8842 4.21171 21.4969 3.35352 20.6387C2.49532 19.7805 2.10794 18.6882 1.92285 17.3115C1.74217 15.9672 1.74218 14.2452 1.74219 12.0526V12V11.9474C1.74218 9.75475 1.74217 8.03277 1.92285 6.68848C2.10794 5.31182 2.49532 4.21953 3.35352 3.36133C4.21171 2.50313 5.30401 2.11575 6.68066 1.93066C8.02495 1.74998 9.74694 1.74999 11.9396 1.75H11.9922H12.0448C14.2374 1.74999 15.9594 1.74998 17.3037 1.93066C18.6804 2.11575 19.7727 2.50313 20.6309 3.36133C21.4891 4.21953 21.8764 5.31182 22.0615 6.68848C22.2422 8.03276 22.2422 9.75473 22.2422 11.9474V12ZM16.6992 7.29297C16.3087 6.90244 15.6757 6.90244 15.2852 7.29297L7.28516 15.293C6.89463 15.6835 6.89463 16.3165 7.28516 16.707C7.67568 17.0976 8.30869 17.0976 8.69922 16.707L16.6992 8.70703C17.0897 8.31651 17.0897 7.68349 16.6992 7.29297Z" fill="currentColor" />
</svg>