<svg xmlns="http://www.w3.org/2000/svg" width="24" height="24" viewBox="0 0 24 24" fill="none">
    <path d="M12.5273 1.74805C14.1379 1.74804 15.413 1.74805 16.4209 1.86719C17.4518 1.98906 18.3008 2.24437 19.0098 2.82617C19.2502 3.02349 19.4707 3.24397 19.668 3.48438C20.2498 4.1933 20.5051 5.04232 20.627 6.07324C20.7461 7.08115 20.7461 8.3562 20.7461 9.9668V14.0293C20.7461 15.6399 20.7461 16.9149 20.627 17.9229C20.5051 18.9538 20.2498 19.8028 19.668 20.5117C19.4707 20.7521 19.2502 20.9726 19.0098 21.1699C18.3008 21.7517 17.4518 22.007 16.4209 22.1289C15.413 22.248 14.1379 22.2481 12.5273 22.248H11.9463C10.1055 22.2481 8.64738 22.2481 7.50684 22.0947C6.33453 21.9371 5.386 21.6048 4.6377 20.8564C3.88939 20.1081 3.55706 19.1596 3.39941 17.9873C3.24607 16.8468 3.24608 15.3887 3.24609 13.5479V10.4482C3.24608 8.60742 3.24607 7.14934 3.39941 6.00879C3.55706 4.83648 3.88939 3.88796 4.6377 3.13965C5.386 2.39134 6.33453 2.05901 7.50684 1.90137C8.64739 1.74802 10.1055 1.74803 11.9463 1.74805H12.5273ZM16.3389 7.19238C15.8942 6.86525 15.2679 6.96078 14.9404 7.40527C14.6132 7.84993 14.7088 8.47628 15.1533 8.80371L15.1553 8.80469C15.1568 8.80584 15.159 8.8082 15.1621 8.81055C15.1689 8.81557 15.1797 8.8228 15.1934 8.83301C15.221 8.85364 15.2626 8.88489 15.3154 8.9248C15.4212 9.00466 15.5733 9.12024 15.7559 9.2627C16.1225 9.54879 16.6083 9.93849 17.0908 10.3574C17.3368 10.571 17.5755 10.788 17.7949 10.998H9.24609C8.69385 10.998 8.24616 11.4458 8.24609 11.998C8.24609 12.5503 8.69381 12.998 9.24609 12.998H17.7949C17.5755 13.2081 17.3368 13.4251 17.0908 13.6387C16.6083 14.0576 16.1225 14.4473 15.7559 14.7334C15.5733 14.8759 15.4212 14.9914 15.3154 15.0713C15.2626 15.1112 15.2211 15.1424 15.1934 15.1631C15.1797 15.1733 15.1689 15.1805 15.1621 15.1855C15.159 15.1879 15.1568 15.1902 15.1553 15.1914L15.1533 15.1924C14.7088 15.5198 14.6133 16.1462 14.9404 16.5908C15.2678 17.0354 15.8942 17.1309 16.3389 16.8037V16.8027H16.3408C16.3414 16.8022 16.3417 16.8006 16.3428 16.7998C16.345 16.7981 16.3485 16.796 16.3525 16.793C16.3609 16.7868 16.3733 16.7781 16.3887 16.7666C16.4196 16.7436 16.464 16.7096 16.5205 16.667C16.6335 16.5817 16.7942 16.4595 16.9863 16.3096C17.3696 16.0104 17.884 15.5976 18.4014 15.1484C18.9138 14.7035 19.4521 14.2026 19.8701 13.7295C20.078 13.4942 20.2779 13.2426 20.4307 12.9893C20.5669 12.7633 20.7461 12.4082 20.7461 11.998C20.7461 11.5878 20.5669 11.2328 20.4307 11.0068C20.2779 10.7535 20.078 10.5019 19.8701 10.2666C19.4521 9.79354 18.9138 9.2926 18.4014 8.84766C17.884 8.39847 17.3696 7.98566 16.9863 7.68652C16.7942 7.53658 16.6334 7.41441 16.5205 7.3291C16.4641 7.28647 16.4196 7.25251 16.3887 7.22949C16.3732 7.218 16.3609 7.20929 16.3525 7.20312C16.3484 7.20008 16.345 7.19699 16.3428 7.19531C16.3419 7.19466 16.3414 7.19377 16.3408 7.19336H16.3389V7.19238Z" fill="currentColor" />
</svg>