<svg xmlns="http://www.w3.org/2000/svg" width="24" height="24" viewBox="0 0 24 24" fill="none">
    <path d="M12.0499 1.75073C14.2402 1.75072 15.9606 1.75085 17.3038 1.9314C18.6805 2.11648 19.7728 2.50386 20.631 3.36206C21.4892 4.22026 21.8766 5.31255 22.0617 6.68921C22.2422 8.03246 22.2423 9.75287 22.2423 11.9431V12.0583C22.2423 14.2486 22.2422 15.969 22.0617 17.3123C21.8766 18.6889 21.4892 19.7812 20.631 20.6394C19.7728 21.4976 18.6805 21.885 17.3038 22.0701C15.9606 22.2506 14.2402 22.2507 12.0499 22.2507H11.9347C9.74445 22.2507 8.02406 22.2506 6.6808 22.0701C5.30414 21.885 4.21185 21.4976 3.35365 20.6394C2.49546 19.7812 2.10808 18.6889 1.92299 17.3123C1.74244 15.969 1.74231 14.2486 1.74232 12.0583V11.9431C1.74231 9.75286 1.74244 8.03247 1.92299 6.68921C2.10808 5.31255 2.49545 4.22026 3.35365 3.36206C4.21185 2.50386 5.30414 2.11648 6.6808 1.9314C8.02406 1.75085 9.74445 1.75072 11.9347 1.75073H12.0499ZM16.6681 8.26343C16.261 7.89028 15.6282 7.91785 15.255 8.32495L10.4611 13.5554L8.69936 11.7937C8.30883 11.4032 7.67582 11.4032 7.28529 11.7937C6.89477 12.1842 6.89477 12.8172 7.28529 13.2078L9.78529 15.7078C9.9781 15.9006 10.2412 16.0066 10.5138 16.0007C10.7865 15.9948 11.0453 15.8776 11.2296 15.6765L16.7296 9.67651C17.1028 9.26939 17.0752 8.63661 16.6681 8.26343Z" fill="currentColor" />
</svg>