<svg xmlns="http://www.w3.org/2000/svg" width="24" height="24" viewBox="0 0 24 24" fill="none">
    <path d="M19.9971 11.9985C19.9971 9.84895 19.9955 8.33714 19.8418 7.19385C19.692 6.07971 19.4147 5.46612 18.9727 5.02393C18.5304 4.58169 17.9163 4.30463 16.8018 4.15479C15.6585 4.00108 14.1466 3.99854 11.9971 3.99854C9.84791 3.99854 8.33656 4.00113 7.19338 4.15479C6.07885 4.30463 5.46472 4.58169 5.02248 5.02393C4.63393 5.41255 4.37491 5.93134 4.21584 6.79736C4.05155 7.69205 4.00914 8.86538 4.00002 10.5044C3.99678 11.0565 3.54633 11.5016 2.99416 11.4985C2.44202 11.4953 1.99694 11.0449 2.00002 10.4927C2.00905 8.86968 2.04843 7.52839 2.24904 6.43604C2.45495 5.31505 2.84458 4.37377 3.60841 3.60986C4.48419 2.73409 5.59047 2.35203 6.92677 2.17236C8.23419 1.99662 9.90435 1.99854 11.9971 1.99854C14.0901 1.99854 15.7608 1.99657 17.0684 2.17236C18.4047 2.35203 19.511 2.73409 20.3867 3.60986C21.2622 4.48551 21.6436 5.59128 21.8233 6.92725C21.9991 8.23478 21.9971 9.90549 21.9971 11.9985C21.9971 14.0916 21.9991 15.7623 21.8233 17.0698C21.6436 18.4058 21.2622 19.5116 20.3867 20.3872C19.6228 21.1511 18.6815 21.5416 17.5606 21.7476C16.4681 21.9482 15.1262 21.9866 13.5029 21.9956C12.9507 21.9987 12.5002 21.5537 12.4971 21.0015C12.494 20.4492 12.9399 19.9987 13.4922 19.9956C15.1313 19.9865 16.3046 19.9441 17.1992 19.7798C18.0652 19.6207 18.5841 19.3617 18.9727 18.9731C19.4147 18.531 19.692 17.9174 19.8418 16.8032C19.9955 15.6599 19.9971 14.1481 19.9971 11.9985Z" fill="currentColor" />
    <path d="M12.2891 10.2906C12.6796 9.90005 13.3126 9.90006 13.7031 10.2906C14.0936 10.6811 14.0936 11.3141 13.7031 11.7046L5.42773 19.98C5.75346 19.9931 6.1026 19.9982 6.4541 19.9956C7.08888 19.991 7.70651 19.9656 8.16699 19.941C8.39643 19.9287 8.58556 19.9166 8.71679 19.9077C8.78242 19.9033 8.83388 19.8995 8.86816 19.897C8.885 19.8958 8.89783 19.8957 8.90625 19.8951C8.91047 19.8947 8.91406 19.8942 8.91601 19.8941H8.91796C9.46857 19.851 9.95008 20.2624 9.99316 20.813C10.036 21.3634 9.62462 21.8441 9.07421 21.8872H9.07226C9.0715 21.8873 9.07054 21.8881 9.06933 21.8882C9.06657 21.8884 9.06266 21.8888 9.05761 21.8892C9.04749 21.89 9.03257 21.8907 9.01367 21.8921C8.97587 21.8949 8.92104 21.8992 8.85156 21.9038C8.71234 21.9132 8.51361 21.9252 8.27343 21.938C7.79423 21.9637 7.1443 21.9907 6.46875 21.9956C5.79896 22.0005 5.07699 21.9838 4.46386 21.9165C4.15887 21.883 3.85158 21.835 3.5791 21.7593C3.34277 21.6937 2.97911 21.5683 2.70214 21.2915C2.42515 21.0145 2.30005 20.6501 2.23437 20.4136C2.15869 20.1411 2.10966 19.8338 2.07617 19.5288C2.00889 18.9159 1.99219 18.1945 1.99707 17.5249C2.002 16.8492 2.02904 16.1986 2.05468 15.7193C2.06753 15.4791 2.08045 15.2803 2.08984 15.1411C2.09453 15.0716 2.09782 15.0168 2.10058 14.979C2.10197 14.9601 2.10274 14.9452 2.10351 14.9351C2.10389 14.9301 2.10428 14.9261 2.10449 14.9234C2.10458 14.9221 2.10541 14.9212 2.10546 14.9204V14.9185C2.1487 14.3681 2.63017 13.9565 3.18066 13.9995C3.73101 14.0428 4.14262 14.5243 4.09961 15.0747L4.09863 15.0767C4.09848 15.0786 4.09895 15.0822 4.09863 15.0865C4.09799 15.0948 4.09694 15.1076 4.0957 15.1245C4.09319 15.1588 4.08939 15.2103 4.08496 15.2759C4.0761 15.4072 4.06404 15.597 4.05175 15.8267C4.02712 16.2872 4.0017 16.9049 3.99707 17.5396C3.9945 17.8919 3.9985 18.2415 4.01171 18.5679L12.2891 10.2906Z" fill="currentColor" />
</svg>