<svg xmlns="http://www.w3.org/2000/svg" width="24" height="24" viewBox="0 0 24 24" fill="none">
    <path d="M11.9395 2.24805C14.0124 2.24803 15.7589 2.24846 17.0342 2.41992C18.3425 2.59588 19.3865 2.96465 20.208 3.78613C21.0295 4.60762 21.3983 5.65161 21.5742 6.95996C21.7457 8.23525 21.7461 9.98178 21.7461 12.0547C21.7461 14.1277 21.7457 15.7608 21.5742 17.0361C21.3983 18.3445 21.0295 19.3885 20.208 20.21C19.3865 21.0314 18.3425 21.4002 17.0342 21.5762C15.7588 21.7476 14.1258 21.7481 12.0527 21.748C9.97983 21.7481 8.2333 21.7476 6.95801 21.5762C5.64965 21.4002 4.60567 21.0314 3.78418 20.21C2.96269 19.3885 2.59393 18.3445 2.41797 17.0361C2.2465 15.7608 2.24608 14.1277 2.24609 12.0547C2.24608 9.98179 2.24651 8.23525 2.41797 6.95996C2.59393 5.65161 2.96269 4.60762 3.78418 3.78613C4.60567 2.96465 5.64965 2.59588 6.95801 2.41992C8.23336 2.24846 9.86642 2.24803 11.9395 2.24805ZM10.5488 6.99902C10.1516 6.97818 9.77944 7.19504 9.60156 7.55078L7.87793 10.998H5.99609C5.44381 10.998 4.9961 11.4458 4.99609 11.998C4.99609 12.5503 5.44381 12.998 5.99609 12.998H8.49609C8.87487 12.998 9.22123 12.7841 9.39062 12.4453L10.3652 10.4961L12.5596 16.3496C12.6993 16.7218 13.0464 16.9761 13.4434 16.9971C13.8405 17.0179 14.2128 16.8011 14.3906 16.4453L16.1143 12.998H17.9961C18.5484 12.998 18.9961 12.5503 18.9961 11.998C18.9961 11.4458 18.5484 10.998 17.9961 10.998H15.4961C15.1173 10.998 14.771 11.212 14.6016 11.5508L13.627 13.5L11.4326 7.64648C11.2929 7.27435 10.9458 7.01998 10.5488 6.99902Z" fill="currentColor" />
</svg>