<svg xmlns="http://www.w3.org/2000/svg" width="24" height="24" viewBox="0 0 24 24" fill="none">
    <path d="M12.043 22.25C14.1144 22.25 15.7386 22.25 17.0166 22.0947C18.3225 21.9361 19.3677 21.6056 20.2266 20.8721C20.4555 20.6765 20.6687 20.4633 20.8643 20.2344C21.5978 19.3755 21.9283 18.3303 22.0869 17.0244C22.2422 15.7464 22.2422 14.1222 22.2422 12.0508V11.9492C22.2422 9.87778 22.2422 8.25356 22.0869 6.97559C21.9283 5.66971 21.5978 4.62447 20.8643 3.76563C20.6687 3.53668 20.4555 3.32348 20.2266 3.12793C19.3677 2.39441 18.3225 2.06392 17.0166 1.90527C15.7386 1.75004 14.1144 1.74999 12.043 1.75H11.9414C9.86997 1.74999 8.24575 1.75004 6.96777 1.90527C5.6619 2.06392 4.61666 2.39441 3.75781 3.12793C3.52887 3.32348 3.31566 3.53669 3.12012 3.76562C2.3866 4.62447 2.05611 5.66971 1.89746 6.97559C1.74222 8.25356 1.74218 9.87778 1.74219 11.9492V12.0508C1.74218 14.1222 1.74222 15.7464 1.89746 17.0244C2.05611 18.3303 2.3866 19.3755 3.12012 20.2344C3.31566 20.4633 3.52887 20.6765 3.75781 20.8721C4.61666 21.6056 5.6619 21.9361 6.96777 22.0947C8.24575 22.25 9.86997 22.25 11.9414 22.25H12.043ZM8.99219 19C8.44009 18.9998 7.99219 18.5521 7.99219 18L7.99219 8.31934C7.99116 8.03767 7.99055 7.69163 8.09082 7.38281C8.28866 6.77394 8.76612 6.29647 9.375 6.09863C9.68381 5.99837 10.0299 5.99897 10.3115 6H12.9922C15.2012 6 16.992 7.79105 16.9922 10C16.9922 12.2091 15.2013 14 12.9922 14H9.99219L9.99219 18C9.99219 18.5523 9.54447 19 8.99219 19ZM12.9922 12C14.0968 12 14.9922 11.1046 14.9922 10C14.992 8.89562 14.0966 8 12.9922 8H10.3926C10.1957 8 10.088 8.00061 10.0098 8.00488C10.0056 8.00511 10.0016 8.00563 9.99805 8.00586C9.99782 8.00943 9.9973 8.01346 9.99707 8.01758C9.9928 8.09582 9.99219 8.20354 9.99219 8.40039V12H12.9922Z" fill="currentColor" />
</svg>