<svg xmlns="http://www.w3.org/2000/svg" width="24" height="24" viewBox="0 0 24 24" fill="none">
    <path d="M12.0498 1.75C14.2401 1.74999 15.9604 1.75012 17.3037 1.93066C18.6804 2.11575 19.7727 2.50313 20.6309 3.36133C21.4891 4.21953 21.8764 5.31182 22.0615 6.68848C22.2421 8.03174 22.2422 9.75212 22.2422 11.9424V12.0576C22.2422 14.2479 22.2421 15.9683 22.0615 17.3115C21.8764 18.6882 21.4891 19.7805 20.6309 20.6387C19.7727 21.4969 18.6804 21.8842 17.3037 22.0693C15.9604 22.2499 14.2401 22.25 12.0498 22.25H11.9346C9.74431 22.25 8.02393 22.2499 6.68066 22.0693C5.30401 21.8842 4.21171 21.4969 3.35352 20.6387C2.49532 19.7805 2.10794 18.6882 1.92285 17.3115C1.7423 15.9683 1.74217 14.2479 1.74219 12.0576V11.9424C1.74217 9.75212 1.7423 8.03174 1.92285 6.68848C2.10794 5.31182 2.49532 4.21953 3.35352 3.36133C4.21171 2.50313 5.30401 2.11575 6.68066 1.93066C8.02393 1.75012 9.74431 1.74999 11.9346 1.75H12.0498ZM10.7285 7.00293C10.2319 7.00283 9.75654 7.00313 9.39453 7.05371C9.07359 7.09859 8.34276 7.24445 8.07324 7.98926C7.80832 8.72202 8.25822 9.30226 8.4707 9.54688C8.71177 9.82435 9.07192 10.1394 9.4502 10.4707L11.1963 12.001L9.4502 13.5303C9.07192 13.8616 8.71177 14.1766 8.4707 14.4541C8.25822 14.6987 7.80833 15.279 8.07324 16.0117C8.34276 16.7565 9.07359 16.9024 9.39453 16.9473C9.75654 16.9978 10.2319 16.9981 10.7285 16.998L13.4287 16.999C13.6523 17.0022 14.0191 17.0073 14.3477 16.9463C14.7985 16.8625 15.3393 16.6346 15.6963 16.0537C15.8633 15.782 15.93 15.5033 15.9609 15.2559C15.9901 15.0224 15.9933 14.7601 15.9941 14.502C15.9957 13.9498 15.5492 13.5008 14.9971 13.499C14.4449 13.4974 13.9959 13.9439 13.9941 14.4961C13.9933 14.7415 13.9893 14.8843 13.9795 14.9805C13.9225 14.9908 13.8429 14.9981 13.7266 15L10.8164 14.9922L12.5391 13.4824C12.7105 13.3324 12.9097 13.1582 13.0576 12.9863C13.2344 12.7809 13.451 12.4543 13.4512 12.001C13.4512 11.5474 13.2345 11.2201 13.0576 11.0146C12.9097 10.8428 12.7105 10.6686 12.5391 10.5186L10.8164 9.00879L13.7266 9.00098C13.8429 9.00289 13.9225 9.0102 13.9795 9.02051C13.9893 9.11666 13.9933 9.25947 13.9941 9.50488C13.9959 10.0571 14.4449 10.5036 14.9971 10.502C15.5492 10.5002 15.9958 10.0512 15.9941 9.49902C15.9933 9.24091 15.9901 8.97859 15.9609 8.74512C15.93 8.49767 15.8633 8.21901 15.6963 7.94727C15.3393 7.3664 14.7985 7.13843 14.3477 7.05469C14.0191 6.99366 13.6523 6.99874 13.4287 7.00195L10.7285 7.00293Z" fill="currentColor" />
</svg>