<svg xmlns="http://www.w3.org/2000/svg" width="24" height="24" viewBox="0 0 24 24" fill="none">
    <path fill-rule="evenodd" clip-rule="evenodd" d="M7.88746 6.89157L7.79814 6.94899C6.48155 7.79539 5.4352 8.46805 4.69167 9.08352C3.93532 9.70962 3.37723 10.3668 3.19809 11.2201C3.0902 11.734 3.0902 12.2659 3.19809 12.7798C3.37723 13.633 3.93532 14.2902 4.69167 14.9163C5.43519 15.5318 6.48153 16.2044 7.79811 17.0508L7.88744 17.1083C9.32102 18.0299 10.4564 18.7598 11.3828 19.2074C12.3149 19.6577 13.2009 19.9076 14.076 19.6401C14.5921 19.4823 15.0647 19.2056 15.4595 18.8332C16.1203 18.2099 16.3765 17.3145 16.4971 16.2569C16.6172 15.2027 16.6172 13.8136 16.6172 12.0508V11.9491C16.6172 10.1862 16.6172 8.79714 16.4971 7.74295C16.3765 6.68531 16.1203 5.78993 15.4595 5.16668C15.0647 4.79426 14.5921 4.51758 14.076 4.35977C13.2009 4.09221 12.3149 4.34212 11.3828 4.79247C10.4564 5.24003 9.32104 5.96993 7.88746 6.89157Z" fill="currentColor" />
    <path fill-rule="evenodd" clip-rule="evenodd" d="M19.8672 4C20.4195 4 20.8672 4.44772 20.8672 5V19C20.8672 19.5523 20.4195 20 19.8672 20C19.3149 20 18.8672 19.5523 18.8672 19V5C18.8672 4.44772 19.3149 4 19.8672 4Z" fill="currentColor" />
</svg>