<svg xmlns="http://www.w3.org/2000/svg" width="24" height="24" viewBox="0 0 24 24" fill="none">
    <path fill-rule="evenodd" clip-rule="evenodd" d="M16.0969 6.89157L16.1862 6.94899C17.5028 7.79539 18.5492 8.46805 19.2927 9.08352C20.049 9.70962 20.6071 10.3668 20.7863 11.2201C20.8942 11.734 20.8942 12.2659 20.7863 12.7798C20.6071 13.633 20.049 14.2902 19.2927 14.9163C18.5492 15.5318 17.5028 16.2044 16.1863 17.0508L16.0969 17.1083C14.6633 18.0299 13.528 18.7598 12.6016 19.2074C11.6695 19.6577 10.7834 19.9076 9.9084 19.6401C9.39229 19.4823 8.91968 19.2056 8.52484 18.8332C7.86407 18.2099 7.60781 17.3145 7.48729 16.2569C7.36717 15.2027 7.36718 13.8136 7.36719 12.0508V11.9491C7.36718 10.1862 7.36717 8.79714 7.48729 7.74295C7.60781 6.68531 7.86407 5.78993 8.52484 5.16668C8.91968 4.79426 9.39229 4.51758 9.9084 4.35977C10.7834 4.09221 11.6695 4.34212 12.6016 4.79247C13.528 5.24003 14.6633 5.96993 16.0969 6.89157Z" fill="currentColor" />
    <path fill-rule="evenodd" clip-rule="evenodd" d="M4.11719 4C3.5649 4 3.11719 4.44772 3.11719 5V19C3.11719 19.5523 3.5649 20 4.11719 20C4.66947 20 5.11719 19.5523 5.11719 19V5C5.11719 4.44772 4.66947 4 4.11719 4Z" fill="currentColor" />
</svg>