<svg xmlns="http://www.w3.org/2000/svg" width="24" height="24" viewBox="0 0 24 24" fill="none">
    <path fill-rule="evenodd" clip-rule="evenodd" d="M12.1338 2.27976C11.5951 2.2256 11.1111 2.23762 10.6202 2.3823C10.1289 2.5271 9.71673 2.77994 9.29497 3.11765C8.89221 3.44016 8.44468 3.87112 7.89678 4.39873L7.86821 4.42624L5.03032 7.15867L4.977 7.21C5.73859 7.66886 6.52265 8.17246 7.2948 8.66843C8.28127 9.30206 9.24904 9.92305 10.16 10.4487C10.9139 10.8837 11.1772 11.0289 11.4579 11.104C11.7388 11.1791 12.0411 11.185 12.9139 11.185H13.6034C14.4304 11.185 15.0009 11.1846 15.4511 11.143C15.886 11.1029 16.1544 11.0279 16.3798 10.9087C16.6046 10.7896 16.8158 10.6113 17.0897 10.2768C17.3718 9.93252 17.6847 9.46823 18.1382 8.79538L20.0115 5.67933C19.8624 5.49938 19.6915 5.30783 19.4958 5.0886L19.4346 5.01999L19.3701 4.94768C18.8224 4.33318 18.4464 3.9113 17.9659 3.61472C17.8842 3.56433 17.8011 3.51633 17.7159 3.47214C17.2162 3.21302 16.6604 3.10587 15.8506 2.94973L15.7491 2.93015L14.0518 2.603L13.9928 2.59161C13.2511 2.44832 12.6443 2.33112 12.1338 2.27976ZM20.8229 7.24079L19.413 9.5864L19.4032 9.603L19.3925 9.6196L19.3755 9.6447C18.9399 10.2912 18.5842 10.8189 18.2499 11.227C18.0663 11.4511 17.8792 11.6501 17.6766 11.8247L19.8548 19.4125C19.963 19.2357 20.0609 19.0467 20.1534 18.8452C20.408 18.2903 20.6455 17.5855 20.937 16.7206L20.9463 16.6928L21.3145 15.5991L21.3419 15.5178C21.547 14.9099 21.689 14.4889 21.7295 14.0444C21.7702 13.5989 21.7064 13.1585 21.6143 12.522L21.6026 12.4409L21.0225 8.42429L21.0101 8.33836C20.9476 7.90484 20.8969 7.55298 20.8229 7.24079ZM18.6339 20.595L16.3143 12.52C16.0838 12.5758 15.8439 12.6136 15.5887 12.6372C15.0691 12.6851 14.4401 12.6851 13.6712 12.685L13.6034 12.685H12.9139L12.8753 12.685C12.5158 12.6851 12.2101 12.6851 11.9354 12.6723L11.297 21.7453C11.826 21.7692 12.4145 21.6962 13.1632 21.6033L13.2999 21.5864L15.2061 21.3501L15.2731 21.3418C16.1709 21.2308 16.9027 21.1404 17.4932 21.0044C17.9124 20.9078 18.2895 20.7825 18.6339 20.595ZM9.82261 21.3314L10.4569 12.3208C10.1509 12.176 9.82358 11.9871 9.41627 11.7521C8.48298 11.2136 7.4942 10.5789 6.52899 9.95889L6.48425 9.93015C5.61229 9.37008 4.7549 8.81984 3.93845 8.33662C3.91807 8.36678 3.89825 8.39727 3.87895 8.4282C3.62727 8.83182 3.4833 9.28222 3.27498 9.93397L3.24809 10.018L3.05376 10.6255L3.03725 10.677C2.72908 11.6401 2.47837 12.4235 2.3477 13.0815C2.21094 13.7703 2.18873 14.395 2.3936 15.0268C2.59831 15.6581 2.98311 16.1519 3.49809 16.6323C3.99581 17.0966 4.66852 17.5956 5.49749 18.2106L5.51567 18.2241L8.2647 20.2632L8.37876 20.3478C8.93707 20.7624 9.38494 21.095 9.82261 21.3314Z" fill="currentColor" />
</svg>