<svg xmlns="http://www.w3.org/2000/svg" width="24" height="24" viewBox="0 0 24 24" fill="none">
    <path d="M2 16V8C2 6.61416 1.99829 5.47423 2.11914 4.5752C2.24389 3.64737 2.51577 2.82799 3.17188 2.17188C3.82799 1.51577 4.64737 1.24389 5.5752 1.11914C6.47423 0.998294 7.61416 1 9 1H14C15.3858 1 16.5258 0.998294 17.4248 1.11914C18.3526 1.24389 19.172 1.51577 19.8281 2.17188C20.2702 2.61398 20.5434 3.13603 20.7109 3.72754C20.8614 4.25881 20.5527 4.8113 20.0215 4.96192C19.4901 5.11243 18.9366 4.80384 18.7861 4.27246C18.6934 3.94532 18.5715 3.7434 18.4141 3.58594C18.1915 3.36337 17.8643 3.19551 17.1582 3.10059C16.4234 3.00185 15.4422 3 14 3H9C7.55778 3 6.57657 3.00185 5.8418 3.10059C5.13574 3.19551 4.80851 3.36337 4.58594 3.58594C4.36337 3.80851 4.19551 4.13574 4.10059 4.8418C4.00185 5.57657 4 6.55778 4 8V16C4 17.4422 4.00185 18.4234 4.10059 19.1582C4.19551 19.8643 4.36337 20.1915 4.58594 20.4141C4.78248 20.6106 5.05783 20.7611 5.59277 20.8594C6.15628 20.9629 6.91048 20.992 8.00586 20.998C8.558 21.0013 9.00308 21.4517 9 22.0039C8.99689 22.5561 8.54639 23.0011 7.99414 22.998C6.91487 22.992 5.9926 22.9669 5.23145 22.8272C4.44158 22.6821 3.74372 22.4 3.17188 21.8281C2.51577 21.172 2.24389 20.3526 2.11914 19.4248C1.99829 18.5258 2 17.3858 2 16Z" fill="currentColor" />
    <path d="M20 10.75C20 9.83715 19.9983 9.25553 19.9395 8.82911C19.885 8.43422 19.7987 8.32456 19.7383 8.26563C19.6743 8.20327 19.5511 8.11526 19.1338 8.06055C18.6903 8.00244 18.0881 8.00001 17.1543 8H14.8457C13.912 8.00001 13.3097 8.00244 12.8662 8.06055C12.4489 8.11526 12.3257 8.20327 12.2617 8.26563C12.2013 8.32456 12.115 8.43422 12.0606 8.82911C12.0017 9.25553 12 9.83715 12 10.75V18.25C12 19.1629 12.0017 19.7445 12.0606 20.1709C12.115 20.5658 12.2013 20.6755 12.2617 20.7344C12.3257 20.7967 12.4489 20.8848 12.8662 20.9395C13.3097 20.9976 13.912 21 14.8457 21H17.1543C18.0881 21 18.6903 20.9976 19.1338 20.9395C19.5511 20.8848 19.6743 20.7967 19.7383 20.7344C19.7987 20.6755 19.885 20.5658 19.9395 20.1709C19.9983 19.7445 20 19.1629 20 18.25V10.75ZM22 18.25C22 19.1049 22.0019 19.8496 21.9199 20.4443C21.8336 21.0704 21.6375 21.6768 21.1348 22.167C20.6355 22.6537 20.0235 22.8403 19.3936 22.9229C18.7899 23.0019 18.0329 23 17.1543 23H14.8457C13.9671 23 13.2101 23.0019 12.6064 22.9229C11.9765 22.8403 11.3645 22.6537 10.8652 22.167C10.3625 21.6768 10.1665 21.0704 10.0801 20.4443C9.99807 19.8496 10 19.1049 10 18.25V10.75C10 9.8951 9.99807 9.15042 10.0801 8.55567C10.1665 7.92963 10.3625 7.32317 10.8652 6.83301C11.3645 6.34629 11.9765 6.15973 12.6064 6.07715C13.2101 5.99807 13.9671 6 14.8457 6H17.1543C18.0329 6 18.7899 5.99807 19.3936 6.07715C20.0235 6.15973 20.6355 6.34629 21.1348 6.83301C21.6375 7.32317 21.8336 7.92963 21.9199 8.55567C22.0019 9.15042 22 9.8951 22 10.75V18.25Z" fill="currentColor" />
    <path d="M17.5 6C17.828 6 18.1354 6.16109 18.3223 6.43066C18.5089 6.70019 18.5516 7.04459 18.4365 7.35156L18.0615 8.35156C17.9151 8.74169 17.5417 9 17.125 9H14.875C14.4583 9 14.0849 8.74169 13.9385 8.35156L13.5635 7.35156C13.4484 7.04459 13.4911 6.70019 13.6777 6.43066C13.8645 6.16109 14.172 6 14.5 6H17.5Z" fill="currentColor" />
</svg>