<svg xmlns="http://www.w3.org/2000/svg" width="24" height="24" viewBox="0 0 24 24" fill="none">
    <path d="M12.9873 3.25C14.7955 3.25 16.2502 3.24807 17.3906 3.40137C18.559 3.55849 19.5429 3.89549 20.3242 4.67676C21.1052 5.45801 21.4415 6.44125 21.5986 7.60938C21.752 8.74983 21.75 10.2044 21.75 12.0127V12.9873C21.75 14.7956 21.752 16.2502 21.5986 17.3906C21.4415 18.5588 21.1052 19.542 20.3242 20.3232C19.5429 21.1045 18.559 21.4415 17.3906 21.5986C16.2502 21.7519 14.7955 21.75 12.9873 21.75H12.0137C10.2053 21.75 8.74988 21.752 7.60938 21.5986C6.44119 21.4415 5.45801 21.1045 4.67676 20.3232C3.89557 19.5419 3.55849 18.5589 3.40137 17.3906C3.24805 16.2502 3.25001 14.7955 3.25001 12.9873V12.0127C3.25001 11.602 3.24936 11.2096 3.25098 10.835C3.50764 10.9404 3.78838 10.9999 4.08301 11H6.917C8.12877 10.9998 9.11128 10.0175 9.11133 8.80567C9.11133 7.86779 8.5221 7.06896 7.69434 6.75488V5.02832C8.02047 5.22054 8.39973 5.33294 8.80567 5.33301C9.97986 5.33295 10.9356 4.41063 10.9941 3.25098C11.3205 3.24997 11.6607 3.25 12.0137 3.25H12.9873ZM9.25001 12C8.76996 12.0001 8.30918 12.1908 7.96973 12.5303L5.2129 15.2871C5.2291 16.013 5.26284 16.6161 5.33204 17.1309C5.46012 18.0833 5.69444 18.588 6.05372 18.9473C6.413 19.3064 6.91775 19.5409 7.87012 19.6689C8.85071 19.8007 10.1504 19.8027 12.0137 19.8027H12.9873C14.8506 19.8027 16.1503 19.8007 17.1309 19.6689C18.0832 19.5409 18.588 19.3064 18.9473 18.9473C19.3066 18.588 19.5409 18.0833 19.669 17.1309C19.7382 16.6161 19.7719 16.013 19.7881 15.2871L18.5313 14.0303C18.1918 13.6908 17.731 13.5001 17.251 13.5C16.7708 13.5 16.3093 13.6907 15.9697 14.0303L15.415 14.5859C14.7486 15.2523 14.415 15.5857 14.001 15.5859C13.5868 15.5859 13.2526 15.2526 12.5859 14.5859L10.5313 12.5303C10.1917 12.1907 9.73022 12 9.25001 12ZM16.5 7.25C15.8097 7.25007 15.25 7.80969 15.25 8.5C15.25 9.19031 15.8097 9.74993 16.5 9.75C17.1904 9.75 17.75 9.19036 17.75 8.5C17.75 7.80965 17.1904 7.25 16.5 7.25Z" fill="currentColor" />
    <path d="M7.86111 3.13889H6.44444V7.86111H6.91667C7.43827 7.86111 7.86111 8.28395 7.86111 8.80556C7.86111 9.32716 7.43827 9.75 6.91667 9.75H4.08333C3.56173 9.75 3.13889 9.32716 3.13889 8.80556C3.13889 8.28395 3.56173 7.86111 4.08333 7.86111H4.55556V3.13889H3.13889C3.13889 3.66049 2.71605 4.08333 2.19444 4.08333C1.67284 4.08333 1.25 3.66049 1.25 3.13889C1.25 2.09568 2.09568 1.25 3.13889 1.25H7.86111C8.90432 1.25 9.75 2.09568 9.75 3.13889C9.75 3.66049 9.32716 4.08333 8.80556 4.08333C8.28395 4.08333 7.86111 3.66049 7.86111 3.13889Z" fill="currentColor" />
</svg>