<svg xmlns="http://www.w3.org/2000/svg" width="24" height="24" viewBox="0 0 24 24" fill="none">
    <path d="M20.998 2C21.5502 2.00019 21.998 2.44783 21.998 3C21.998 3.55217 21.5502 3.99981 20.998 4H13.5859C13.0337 4 12.5859 3.55228 12.5859 3C12.5859 2.44772 13.0337 2 13.5859 2H20.998Z" fill="currentColor" />
    <path d="M20.998 8C21.5502 8.00019 21.998 8.44783 21.998 9C21.998 9.55217 21.5502 9.99981 20.998 10H13.5859C13.0337 10 12.5859 9.55228 12.5859 9C12.5859 8.44772 13.0337 8 13.5859 8H20.998Z" fill="currentColor" />
    <path d="M21 14C21.5523 14 22 14.4477 22 15C22 15.5523 21.5523 16 21 16H3C2.44772 16 2 15.5523 2 15C2 14.4477 2.44772 14 3 14H21Z" fill="currentColor" />
    <path d="M21 20C21.5523 20 22 20.4477 22 21C22 21.5523 21.5523 22 21 22H3C2.44772 22 2 21.5523 2 21C2 20.4477 2.44772 20 3 20H21Z" fill="currentColor" />
    <path fill-rule="evenodd" clip-rule="evenodd" d="M6.0003 2C5.76201 2 5.48801 2.05952 5.23302 2.19075C4.96592 2.32822 4.66625 2.5742 4.49493 2.97394L2.08111 8.60608C1.86356 9.1137 2.0987 9.70158 2.60633 9.91914C3.11396 10.1367 3.70184 9.90155 3.9194 9.39393L4.53568 7.95597H5.98236C5.98833 7.95607 5.99431 7.95612 6.00031 7.95612H7.46491L8.08117 9.39408C8.29873 9.90171 8.88661 10.1369 9.39424 9.9193C9.90187 9.70175 10.137 9.11387 9.91946 8.60624L7.50569 2.9741C7.16224 2.17271 6.39111 2.00654 6.02536 2.00031C6.01703 2.0001 6.00868 2 6.0003 2ZM6.00027 4.53864L5.39284 5.95597H6.00029C6.00628 5.95597 6.01226 5.95602 6.01822 5.95612H6.60777L6.00027 4.53864Z" fill="currentColor" />
</svg>