<svg xmlns="http://www.w3.org/2000/svg" width="24" height="24" viewBox="0 0 24 24" fill="none">
    <path fill-rule="evenodd" clip-rule="evenodd" d="M19.7598 4.95332C19.3105 4.04389 18.8327 3.34787 18.1602 2.85741C17.706 2.52612 17.2021 2.27891 16.671 2.12889C15.887 1.90746 15.1111 1.98986 14.2462 2.23533C13.4111 2.47235 12.4123 2.88667 11.1633 3.40473L11.1055 3.42869L9.125 4.24998H10.0274H13.501H13.5323L13.5965 4.24998C15.1508 4.24995 16.4894 4.24993 17.5723 4.37791C18.0041 4.42895 18.4314 4.50403 18.8468 4.61912C19.1591 4.70567 19.4642 4.81489 19.7598 4.95332Z" fill="currentColor" />
    <path fill-rule="evenodd" clip-rule="evenodd" d="M6.07324 5.59085C6.02702 5.60004 5.98105 5.60989 5.93534 5.6204C4.11734 6.03817 2.70643 7.4852 2.34082 9.32327C2.24973 9.7812 2.24983 10.3121 2.24998 11.144L2.24999 11.25C2.24999 11.6642 2.58578 12 3 12C3.96649 12 4.74999 12.7835 4.74999 13.75C4.74999 14.7165 3.96649 15.5 3 15.5C2.58578 15.5 2.24999 15.8358 2.24999 16.25L2.24998 16.3561C2.24983 17.188 2.24973 17.7188 2.34082 18.1768C2.71562 20.0611 4.18896 21.5344 6.07324 21.9092C6.53117 22.0003 7.06207 22.0002 7.89393 22L8 22H13.5H13.5308C15.1416 22 16.4168 22 17.4248 21.8809C18.4557 21.759 19.3047 21.5037 20.0137 20.9219C20.2541 20.7246 20.4746 20.5041 20.6719 20.2637C21.2437 19.5669 21.5052 18.7744 21.6299 17.8184C21.75 16.8969 21.75 15.7542 21.75 14.3281V14.2881V14.2557C21.75 12.4653 21.75 11.0599 21.6318 9.96682C21.5122 8.86098 21.2622 7.95568 20.6719 7.23635L20.6519 7.21219C20.4597 6.98116 20.246 6.76883 20.0137 6.57815C19.5711 6.21498 19.074 5.97902 18.5122 5.82333C18.1739 5.7296 17.8122 5.66496 17.4248 5.61917C16.4168 5.50002 15.1416 5.50002 13.5308 5.50003H13.5H10.026H8L7.89392 5.50001C7.06206 5.49986 6.53117 5.49976 6.07324 5.59085ZM12.293 11.293C12.6835 10.9025 13.3165 10.9025 13.707 11.293L16.4141 14H18C18.5523 14 19 14.4477 19 15C19 15.5523 18.5523 16 18 16H11.4141C10.8837 16 10.375 15.7891 10 15.4141L9.29296 14.7071C8.90244 14.3165 8.90244 13.6835 9.29296 13.293C9.68349 12.9025 10.3165 12.9025 10.707 13.293L11.4141 14H13.5859L12.293 12.7071C11.9024 12.3165 11.9024 11.6835 12.293 11.293Z" fill="currentColor" />
</svg>