<svg xmlns="http://www.w3.org/2000/svg" width="24" height="24" viewBox="0 0 24 24" fill="none">
    <path fill-rule="evenodd" clip-rule="evenodd" d="M2.46484 13.9063C3.39674 13.9063 4.22461 13.0936 4.22461 12C4.22461 10.9064 3.39674 10.0938 2.46484 10.0938C1.84779 10.0935 1.21955 9.5921 1.25195 8.8457C1.31981 7.28298 1.5101 6.10041 2.15527 5.125C2.50467 4.59681 2.94028 4.13463 3.44336 3.76172C4.17517 3.21942 5.02602 2.97785 6.06152 2.86231C7.06843 2.74997 8.33228 2.74998 9.93141 2.75H9.99316H14.0078H14.0703C15.6691 2.74998 16.9327 2.74997 17.9395 2.86231C18.975 2.97786 19.8258 3.21936 20.5576 3.76172C21.0607 4.13465 21.4963 4.59678 21.8457 5.125C22.491 6.10056 22.6812 7.28358 22.749 8.84668C22.7495 8.85742 22.75 8.86816 22.75 8.87891V15.1211C22.75 15.1318 22.7495 15.1426 22.749 15.1533C22.6812 16.7164 22.491 17.8994 21.8457 18.875C21.4963 19.4032 21.0607 19.8654 20.5576 20.2383C19.8258 20.7806 18.975 21.0221 17.9395 21.1377C16.9327 21.25 15.6691 21.25 14.0703 21.25H14.0078H9.99316H9.93138C8.33227 21.25 7.06842 21.25 6.06152 21.1377C5.02602 21.0222 4.17517 20.7806 3.44336 20.2383C2.94028 19.8654 2.50467 19.4032 2.15527 18.875C1.5101 17.8996 1.31981 16.717 1.25195 15.1543C1.21955 14.4079 1.84779 13.9065 2.46484 13.9063ZM14.5 16.5C13.9477 16.5 13.5 16.0523 13.5 15.5V13H11C10.4477 13 10 12.5523 10 12C10 11.4477 10.4477 11 11 11H13.5V8.5C13.5 7.94772 13.9477 7.5 14.5 7.5C15.0523 7.5 15.5 7.94772 15.5 8.5V11H18C18.5523 11 19 11.4477 19 12C19 12.5523 18.5523 13 18 13H15.5V15.5C15.5 16.0523 15.0523 16.5 14.5 16.5Z" fill="currentColor" />
</svg>