<svg xmlns="http://www.w3.org/2000/svg" width="24" height="24" viewBox="0 0 24 24" fill="none">
    <path d="M18.794 5.29293C19.1844 4.90246 19.8175 4.90257 20.208 5.29293C20.5986 5.68346 20.5986 6.31647 20.208 6.70699L18.7188 8.19625C18.3282 8.58678 17.6952 8.58678 17.3047 8.19625C16.9144 7.80571 16.9142 7.17266 17.3047 6.78219L18.794 5.29293Z" fill="currentColor" />
    <path d="M14.5 1C15.0523 1 15.5 1.44772 15.5 2C15.5 2.55228 15.0523 3 14.5 3H9.5C8.94772 3 8.5 2.55228 8.5 2C8.5 1.44772 8.94772 1 9.5 1H14.5Z" fill="currentColor" />
    <path d="M14.793 9.29302C15.1835 8.90249 15.8165 8.90249 16.207 9.29302C16.5975 9.68354 16.5975 10.3166 16.207 10.7071L12.707 14.2071C12.3165 14.5976 11.6835 14.5976 11.293 14.2071C10.9024 13.8166 10.9024 13.1835 11.293 12.793L14.793 9.29302Z" fill="currentColor" />
    <path d="M19.5 13.5C19.5 9.35786 16.1421 6 12 6C7.85786 6 4.5 9.35786 4.5 13.5C4.5 13.9526 4.53983 14.3951 4.61621 14.8242C4.713 15.3678 4.35113 15.8874 3.80762 15.9844C3.26404 16.0812 2.74449 15.7192 2.64746 15.1758C2.55051 14.6313 2.5 14.0709 2.5 13.5C2.5 8.25329 6.75329 4 12 4C17.2467 4 21.5 8.25329 21.5 13.5C21.5 18.7467 17.2467 23 12 23C9.51046 23 7.24587 22.0395 5.55273 20.4736C5.58048 20.8025 5.61341 21.1131 5.64355 21.3574C5.66224 21.5089 5.67939 21.6335 5.69141 21.7197C5.69739 21.7626 5.70184 21.7962 5.70508 21.8184C5.70665 21.8291 5.70819 21.8375 5.70898 21.8428C5.70935 21.8452 5.70979 21.8475 5.70996 21.8486C5.79283 22.3947 5.41713 22.9054 4.87109 22.9883C4.32523 23.071 3.81543 22.6962 3.73242 22.1504V22.1465C3.73212 22.1445 3.731 22.1413 3.73047 22.1377C3.7294 22.1306 3.72845 22.1203 3.72656 22.1074C3.72275 22.0813 3.71757 22.0437 3.71094 21.9961C3.69768 21.901 3.67936 21.7652 3.65918 21.6016C3.619 21.2758 3.56984 20.8321 3.53711 20.3682C3.50482 19.9104 3.48535 19.4024 3.5127 18.96C3.52627 18.7403 3.55318 18.5051 3.60742 18.2861C3.65397 18.0983 3.75548 17.7738 4.01465 17.5146L4.11426 17.4238C4.35255 17.2305 4.62181 17.1481 4.78613 17.1074C5.00507 17.0532 5.24033 17.0263 5.45996 17.0127C5.90238 16.9853 6.41043 17.0048 6.86816 17.0371C7.33211 17.0698 7.77581 17.119 8.10156 17.1592C8.26513 17.1794 8.40097 17.1967 8.49609 17.21C8.54369 17.2166 8.58129 17.2227 8.60742 17.2266C8.62035 17.2284 8.63055 17.2294 8.6377 17.2305C8.64127 17.231 8.64445 17.2321 8.64648 17.2324H8.64941C9.19523 17.3154 9.57104 17.8252 9.48828 18.3711C9.41062 18.8829 8.95826 19.2446 8.45215 19.2197L8.34961 19.21C8.34854 19.2098 8.34595 19.2093 8.34375 19.209C8.33846 19.2082 8.32944 19.2067 8.31836 19.2051C8.29619 19.2018 8.26263 19.1974 8.21973 19.1914C8.13354 19.1794 8.00892 19.1622 7.85742 19.1436C7.61015 19.1131 7.29513 19.0797 6.96191 19.0518C8.29427 20.2618 10.0598 21 12 21C16.1421 21 19.5 17.6421 19.5 13.5Z" fill="currentColor" />
</svg>