<svg xmlns="http://www.w3.org/2000/svg" width="24" height="24" viewBox="0 0 24 24" fill="none">
    <path fill-rule="evenodd" clip-rule="evenodd" d="M7.028 5.25H5.31934L5.28047 5.25C4.7077 5.24997 4.20044 5.24994 3.80078 5.30567C3.42966 5.35743 3.03394 5.4709 2.71973 5.77149L2.59082 5.91211C2.25556 6.32595 2.22078 6.80296 2.26563 7.22852C2.30631 7.61433 2.42793 8.08291 2.56296 8.6031L2.58106 8.67285L3.22461 11.1582L3.23522 11.1991C3.41451 11.8906 3.56607 12.475 3.74805 12.9355C3.94184 13.4259 4.19785 13.8514 4.62891 14.1758C5.05738 14.4982 5.53985 14.6312 6.07032 14.6924C6.57077 14.7501 7.18783 14.75 7.92509 14.75L7.97754 14.75H8.5V14.082L7.028 5.25ZM10.5 14.75H13.5V14C13.5 13.945 13.5047 13.8902 13.5137 13.8359L14.9447 5.25H9.05534L10.4863 13.8359C10.4954 13.8902 10.5 13.945 10.5 14V14.75ZM15.5 14.082L16.972 5.25H18.6807L18.7196 5.25C19.2924 5.24997 19.7996 5.24994 20.1992 5.30567C20.5703 5.35744 20.9661 5.4709 21.2803 5.77149L21.4092 5.91211L21.5215 6.07032C21.7521 6.44463 21.7736 6.85612 21.7344 7.22852C21.6935 7.61611 21.5711 8.08783 21.4353 8.61094L21.4189 8.67383L20.7744 11.1582L20.763 11.2023C20.584 11.8924 20.4327 12.4757 20.251 12.9355C20.0572 13.4258 19.802 13.8514 19.3711 14.1758C18.9427 14.4982 18.4601 14.6312 17.9297 14.6924C17.4293 14.7501 16.8122 14.75 16.0749 14.75L16.0225 14.75H15.5V14.082Z" fill="currentColor" />
    <path fill-rule="evenodd" clip-rule="evenodd" d="M8.5 22V14.75H10.5V22C10.5 22.5523 10.0523 23 9.5 23C8.94772 23 8.5 22.5523 8.5 22ZM13.5 22V14.75H15.5V22C15.5 22.5523 15.0523 23 14.5 23C13.9477 23 13.5 22.5523 13.5 22Z" fill="currentColor" />
    <path d="M14 1C14.5523 1 15 1.44772 15 2C15 2.55228 14.5523 3 14 3H10C9.44772 3 9 2.55228 9 2C9 1.44772 9.44772 1 10 1H14Z" fill="currentColor" />
    <path d="M11 5.5V2C11 1.44772 11.4477 1 12 1C12.5523 1 13 1.44772 13 2V5.5C13 6.05228 12.5523 6.5 12 6.5C11.4477 6.5 11 6.05228 11 5.5Z" fill="currentColor" />
</svg>