<svg xmlns="http://www.w3.org/2000/svg" width="24" height="24" viewBox="0 0 24 24" fill="none">
    <path d="M9 5.5C9.55228 5.5 10 5.94772 10 6.5C10 7.05228 9.55228 7.5 9 7.5L2 7.5C1.44772 7.5 1 7.05228 1 6.5C1 5.94772 1.44772 5.5 2 5.5L9 5.5ZM22 5.5C22.5523 5.5 23 5.94772 23 6.5C23 7.05228 22.5523 7.5 22 7.5L20 7.5C19.4477 7.5 19 7.05228 19 6.5C19 5.94772 19.4477 5.5 20 5.5L22 5.5Z" fill="currentColor" />
    <path fill-rule="evenodd" clip-rule="evenodd" d="M6.50009 2H15.0003H15.0627C16.1852 1.99997 17.1272 1.99994 17.8762 2.10059C18.6679 2.20702 19.392 2.44251 19.9749 3.02539C20.5578 3.60828 20.7932 4.33235 20.8997 5.12402C21.0003 5.87299 21.0003 6.81507 21.0003 7.93752V8V16.0019L8.00025 16.0014L7.00025 16.0013L6.86803 16.0006C6.86674 16.0006 6.86932 16.0007 6.86803 16.0006C6.82822 16.0003 6.78527 16 6.74709 16H6.50009L6.41674 16C6.03598 16.0003 5.708 16.0006 5.41513 15.9424C4.22494 15.7057 3.29437 14.7751 3.0577 13.585C2.99948 13.292 2.99974 12.9641 3.00004 12.5833L3.00009 12.5V10C3.0001 9.44775 3.44784 9.00004 4.00009 9C4.55236 9.00002 5.00009 9.44773 5.00009 10V12.5C5.00008 13.0125 5.00526 13.1231 5.01962 13.1953C5.09859 13.5918 5.40831 13.9015 5.80478 13.9805C5.87701 13.9948 5.98763 14 6.50009 14H8.00009V5.5C8.0001 4.67165 7.32844 4 6.50009 4C5.67186 4.00005 5.00012 4.6716 5.00009 5.5V6.5C5.00008 7.05229 4.55237 7.50001 4.00009 7.5C3.44788 7.49991 3.00009 7.05223 3.00009 6.5V5.5C3.00012 3.56719 4.56713 2.00005 6.50009 2ZM8.00061 17.5013C8.00246 18.2043 8.01384 18.819 8.08229 19.3281C8.17044 19.9835 8.36958 20.6115 8.87916 21.1211C9.38874 21.6307 10.0167 21.8298 10.6721 21.918C11.2831 22.0001 12.0461 22.0001 12.9312 22L13.0003 22H16.0003L16.0693 22C16.9544 22.0001 17.7175 22.0001 18.3284 21.918C18.9838 21.8298 19.6118 21.6307 20.1213 21.1211C20.6309 20.6115 20.8301 19.9835 20.9182 19.3281C20.9867 18.819 20.998 18.2043 20.9999 17.5013H8.00061Z" fill="currentColor" />
</svg>