<svg xmlns="http://www.w3.org/2000/svg" width="24" height="24" viewBox="0 0 24 24" fill="none">
    <path fill-rule="evenodd" clip-rule="evenodd" d="M1 4C1 3.44772 1.44772 3 2 3H13C13.5523 3 14 3.44772 14 4C14 4.55228 13.5523 5 13 5H2C1.44772 5 1 4.55228 1 4Z" fill="currentColor" />
    <path fill-rule="evenodd" clip-rule="evenodd" d="M5.5 8C5.5 7.44772 5.94772 7 6.5 7H8.5C9.05228 7 9.5 7.44772 9.5 8C9.5 8.55228 9.05228 9 8.5 9H6.5C5.94772 9 5.5 8.55228 5.5 8Z" fill="currentColor" />
    <path d="M2.99999 3C3.55228 3 3.99999 3.44772 3.99999 4V16C3.99999 16.2416 4.00023 16.3894 4.00534 16.5014C4.01788 16.7762 4.21098 16.9815 4.4986 16.9946C4.61062 16.9998 4.75844 17 4.99999 17V19C4.59939 19 4.20292 19.0086 3.85294 18.9148C2.99021 18.6836 2.31635 18.0098 2.08518 17.147C1.9914 16.7971 1.99999 16.4006 1.99999 16V4C1.99999 3.44772 2.44771 3 2.99999 3Z" fill="currentColor" />
    <path d="M11 17V4C11 3.44772 11.4477 3 12 3C12.5523 3 13 3.44772 13 4V19H8.99979V17H11Z" fill="currentColor" />
    <path d="M16.8604 9.25C17.535 9.25 18.2138 9.30153 18.7275 9.72266C19.2412 10.1438 19.4253 10.7993 19.5576 11.4609C19.5814 11.5797 19.5971 11.6965 19.6084 11.7832C20.6874 11.9507 21.4101 12.7194 21.7803 13.583C22.2884 14.7686 22.7496 15.9773 22.75 17.2881C22.7501 17.4932 22.7498 17.7152 22.7246 17.9023C22.6951 18.1217 22.6196 18.4019 22.3838 18.6377C22.148 18.8735 21.8678 18.949 21.6484 18.9785C21.4612 19.0037 21.2393 19.004 21.0342 19.0039H20.6426C20.4002 19.0039 20.2786 19.0036 20.2188 18.9346C20.1592 18.8654 20.1786 18.7331 20.2168 18.4688C20.2389 18.3158 20.25 18.1591 20.25 18C20.25 16.2051 18.7949 14.75 17 14.75C15.2051 14.75 13.75 16.2051 13.75 18C13.75 18.1591 13.7611 18.3158 13.7832 18.4688C13.8214 18.7331 13.8408 18.8654 13.7813 18.9346C13.7214 19.0036 13.5998 19.0039 13.3574 19.0039H12C11.5858 19.0039 11.25 18.6681 11.25 18.2539L11.25 10C11.25 9.58585 11.5859 9.25011 12 9.25L16.8604 9.25ZM15 11.75C14.5858 11.75 14.25 12.0858 14.25 12.5C14.25 12.9142 14.5858 13.25 15 13.25H15.5C15.9142 13.25 16.25 12.9142 16.25 12.5C16.25 12.0858 15.9142 11.75 15.5 11.75H15Z" fill="currentColor" />
    <path d="M14 7C14 6.44772 14.4477 6 15 6H17C17.5523 6 18 6.44772 18 7C18 7.55228 17.5523 8 17 8V9.25083C16.9535 9.25024 16.9071 9.25 16.8606 9.25H15V8C14.4477 8 14 7.55228 14 7Z" fill="currentColor" />
    <path fill-rule="evenodd" clip-rule="evenodd" d="M7 16.75C6.30964 16.75 5.75 17.3096 5.75 18C5.75 18.6904 6.30964 19.25 7 19.25C7.69036 19.25 8.25 18.6904 8.25 18C8.25 17.3096 7.69036 16.75 7 16.75ZM4.25 18C4.25 16.4812 5.48122 15.25 7 15.25C8.51878 15.25 9.75 16.4812 9.75 18C9.75 19.5188 8.51878 20.75 7 20.75C5.48122 20.75 4.25 19.5188 4.25 18Z" fill="currentColor" />
    <circle cx="17" cy="18" r="2.25" fill="currentColor" />
</svg>