<svg xmlns="http://www.w3.org/2000/svg" width="24" height="24" viewBox="0 0 24 24" fill="none">
    <path fill-rule="evenodd" clip-rule="evenodd" d="M4 1.99988C4 1.44759 4.44772 0.999878 5 0.999878H19C19.5523 0.999878 20 1.44759 20 1.99988C20 2.55216 19.5523 2.99988 19 2.99988H14.5352L12.8321 5.55458C12.5257 6.01411 11.9048 6.13828 11.4453 5.83193C10.9858 5.52558 10.8616 4.90471 11.1679 4.44518L12.1315 2.99988H5C4.44772 2.99988 4 2.55216 4 1.99988Z" fill="currentColor" />
    <path fill-rule="evenodd" clip-rule="evenodd" d="M8.44722 19.1054C8.9412 19.3524 9.14142 19.9531 8.89443 20.4471L7.89443 22.4471C7.64744 22.941 7.04677 23.1413 6.55279 22.8943C6.05881 22.6473 5.85859 22.0466 6.10558 21.5526L7.10558 19.5526C7.35257 19.0587 7.95324 18.8584 8.44722 19.1054ZM15.5528 19.1054C16.0468 18.8584 16.6474 19.0587 16.8944 19.5526L17.8944 21.5526C18.1414 22.0466 17.9412 22.6473 17.4472 22.8943C16.9532 23.1413 16.3526 22.941 16.1056 22.4471L15.1056 20.4471C14.8586 19.9531 15.0588 19.3524 15.5528 19.1054Z" fill="currentColor" />
    <path d="M12.0693 4.24988C13.6083 4.24985 14.8616 4.24961 15.8496 4.38269C16.8803 4.52154 17.7671 4.82131 18.4736 5.52917C19.18 6.23701 19.4786 7.12551 19.6172 8.15808C19.75 9.14779 19.75 10.4027 19.75 11.9442V13.0555C19.75 14.0546 19.749 14.9331 19.7124 15.6972C19.7001 15.9552 19.6939 16.0842 19.607 16.167C19.5201 16.2499 19.388 16.2499 19.1238 16.2499H17.75C17.3358 16.2499 17 16.5857 17 16.9999C17 17.4141 17.3358 17.7499 17.75 17.7499H18.646C19.0187 17.7499 19.205 17.7499 19.2933 17.8898C19.3816 18.0296 19.3086 18.1828 19.1627 18.489C18.9925 18.8461 18.7693 19.1743 18.4736 19.4706C17.7671 20.1784 16.8803 20.4782 15.8496 20.6171C14.8616 20.7501 13.6084 20.7499 12.0693 20.7499H11.9307C10.3916 20.7499 9.13838 20.7501 8.15039 20.6171C7.11968 20.4782 6.23289 20.1784 5.52637 19.4706C5.2307 19.1743 5.00748 18.8461 4.83731 18.489C4.69136 18.1828 4.61838 18.0296 4.70667 17.8898C4.79495 17.7499 4.98129 17.7499 5.35398 17.7499H6.25C6.66421 17.7499 7 17.4141 7 16.9999C7 16.5857 6.66421 16.2499 6.25 16.2499H4.87623C4.61202 16.2499 4.47992 16.2499 4.393 16.167C4.30608 16.0842 4.29991 15.9552 4.28757 15.6972C4.25102 14.9331 4.24998 14.0546 4.25 13.0555V11.9442C4.24997 10.4027 4.25004 9.14778 4.38281 8.15808C4.52137 7.12551 4.82001 6.23701 5.52637 5.52917C6.23289 4.82131 7.11968 4.52154 8.15039 4.38269C9.13836 4.24961 10.3917 4.24985 11.9307 4.24988H12.0693ZM6.81152 8.74988C6.55215 8.74988 6.42204 8.75021 6.33496 8.83386C6.24824 8.91751 6.24348 9.0431 6.2334 9.29382C6.19494 10.2504 6.18921 11.8782 6.18848 13.0624C6.18834 13.2906 6.18849 13.4047 6.25488 13.4872C6.32128 13.5696 6.43141 13.5936 6.65137 13.6415C6.83444 13.6813 7.03223 13.7225 7.24316 13.7635C8.49646 14.0077 10.1963 14.2499 12 14.2499C13.8037 14.2499 15.5035 14.0077 16.7568 13.7635C16.9681 13.7224 17.1662 13.6814 17.3496 13.6415C17.5694 13.5936 17.6797 13.5694 17.7461 13.4872C17.8125 13.4047 17.8126 13.2905 17.8125 13.0624C17.8117 11.8782 17.8061 10.2504 17.7676 9.29382C17.7575 9.04312 17.7527 8.91751 17.666 8.83386C17.5789 8.75022 17.4488 8.74988 17.1895 8.74988H6.81152Z" fill="currentColor" />
</svg>