<svg xmlns="http://www.w3.org/2000/svg" width="24" height="24" viewBox="0 0 24 24" fill="none">
    <path d="M19.2929 16.7069C19.6834 17.0974 20.3164 17.0974 20.707 16.7069C21.0975 16.3163 21.0975 15.6833 20.707 15.2928L15.707 10.2928C15.2832 9.86906 14.9038 9.48697 14.5575 9.21468C14.1935 8.92839 13.766 8.68053 13.2245 8.63167C13.0753 8.61823 12.9245 8.61823 12.7753 8.63167C12.2339 8.68053 11.8064 8.92839 11.4423 9.21468C11.096 9.48697 10.7166 9.86906 10.2929 10.2928C9.83408 10.7516 9.55162 11.0315 9.32121 11.2127C9.21428 11.2968 9.14555 11.3373 9.10344 11.3573C9.06749 11.3742 9.05188 11.3762 9.04485 11.3768C9.015 11.3795 8.98485 11.3795 8.955 11.3768C8.94797 11.3762 8.93236 11.3742 8.89641 11.3573C8.8543 11.3373 8.78557 11.2968 8.67864 11.2127C8.44823 11.0315 8.16577 10.7516 7.70696 10.2928L3.70696 6.2928C3.31643 5.90228 2.68342 5.90228 2.29289 6.2928C1.90237 6.68332 1.90237 7.31634 2.29289 7.70686L6.29289 11.7069C6.71663 12.1306 7.09604 12.5127 7.44231 12.785C7.80637 13.0713 8.23388 13.3191 8.77532 13.368C8.92454 13.3814 9.07531 13.3814 9.22453 13.368C9.76597 13.3191 10.1935 13.0713 10.5575 12.785C10.9038 12.5127 11.2832 12.1306 11.707 11.7069C12.1658 11.248 12.4482 10.9681 12.6786 10.7869C12.7856 10.7029 12.8543 10.6623 12.8964 10.6424C12.9324 10.6254 12.948 10.6235 12.955 10.6229C12.9848 10.6202 13.015 10.6202 13.0448 10.6229C13.0519 10.6235 13.0675 10.6254 13.1034 10.6424C13.1456 10.6623 13.2143 10.7029 13.3212 10.7869C13.5516 10.9681 13.8341 11.248 14.2929 11.7069L19.2929 16.7069Z" fill="currentColor" />
    <path d="M20.5732 11.0115C21.1191 10.9286 21.6288 11.3035 21.7118 11.8494V11.8513C21.712 11.852 21.7127 11.8531 21.7128 11.8542C21.7132 11.8566 21.7132 11.8599 21.7138 11.864C21.7151 11.8726 21.7173 11.8852 21.7197 11.9011C21.7243 11.9332 21.731 11.98 21.7392 12.0388C21.7556 12.1566 21.7786 12.325 21.8036 12.5281C21.8535 12.9327 21.9135 13.483 21.954 14.0574C21.9941 14.6253 22.0175 15.2472 21.9843 15.7839C21.9678 16.0507 21.9357 16.3285 21.873 16.5818C21.8179 16.804 21.7053 17.1557 21.4306 17.4304C21.1559 17.7051 20.8042 17.8177 20.582 17.8728C20.3287 17.9355 20.0509 17.9676 19.7841 17.9841C19.2474 18.0173 18.6255 17.9939 18.0575 17.9538C17.4832 17.9133 16.9329 17.8534 16.5283 17.8035C16.3252 17.7784 16.1568 17.7554 16.039 17.739C15.9802 17.7308 15.9334 17.7242 15.9013 17.7195C15.8854 17.7172 15.8728 17.7149 15.8642 17.7136C15.8601 17.713 15.8568 17.713 15.8544 17.7126C15.8533 17.7125 15.8522 17.7118 15.8515 17.7117H15.8495C15.3037 17.6286 14.9288 17.1189 15.0117 16.573C15.0946 16.027 15.6043 15.6513 16.1503 15.7341L16.1513 15.7351L16.1904 15.74C16.2186 15.7441 16.261 15.751 16.3154 15.7585C16.4242 15.7737 16.5814 15.7946 16.7724 15.8181C17.1559 15.8654 17.6699 15.9215 18.1982 15.9587C18.7332 15.9965 19.2539 16.0132 19.6611 15.988C19.7795 15.9807 19.8776 15.9684 19.957 15.9568C19.9686 15.8774 19.9809 15.7793 19.9882 15.6609C20.0134 15.2537 19.9966 14.733 19.9589 14.198C19.9217 13.6697 19.8656 13.1558 19.8183 12.7722C19.7947 12.5813 19.7739 12.424 19.7587 12.3152C19.7511 12.2608 19.7453 12.2184 19.7411 12.1902C19.7391 12.1762 19.7373 12.1658 19.7363 12.1589C19.7358 12.1555 19.7355 12.1526 19.7353 12.1511L19.7343 12.1501C19.6515 11.6042 20.0273 11.0944 20.5732 11.0115Z" fill="currentColor" />
</svg>