<svg xmlns="http://www.w3.org/2000/svg" width="24" height="24" viewBox="0 0 24 24" fill="none">
    <path fill-rule="evenodd" clip-rule="evenodd" d="M5.25 19.75H18.75V11V10.9355C18.75 9.57248 18.7501 8.47331 18.6338 7.6084C18.5128 6.70829 18.2533 5.95055 17.6514 5.34863C17.0495 4.74672 16.2917 4.48723 15.3916 4.36621C14.5267 4.24995 13.4275 4.24997 12.0644 4.25H12H11.9356C10.5725 4.24997 9.47333 4.24995 8.6084 4.36621C7.70829 4.48723 6.95055 4.74672 6.34863 5.34863C5.74672 5.95055 5.48723 6.70829 5.36621 7.6084C5.24995 8.47333 5.24997 9.57252 5.25 10.9356V11V19.75ZM13.4912 9.13867C13.9667 8.85781 14.5804 9.01571 14.8613 9.49121C15.1422 9.96673 14.9843 10.5804 14.5088 10.8613C13.6043 11.3955 13.0485 12.1183 12.6982 12.6797C12.6107 12.82 12.5366 12.9502 12.4707 13.0674L12.4398 13.1224C12.388 13.2148 12.3298 13.3188 12.2822 13.3965C12.2534 13.4436 12.2072 13.5172 12.1484 13.5898C12.117 13.6294 11.9394 13.8526 11.6318 13.9512C11.4194 14.0192 11.1426 14.0289 10.8711 13.8965C10.6283 13.7781 10.4966 13.5969 10.4346 13.4922C10.4104 13.4514 10.391 13.4104 10.374 13.3711C10.2949 13.2718 10.1814 13.1517 10.0459 13.0332C9.86186 12.8723 9.69889 12.7689 9.60352 12.7275C9.0967 12.5084 8.86311 11.9199 9.08203 11.4131C9.30116 10.9063 9.88963 10.6727 10.3965 10.8916C10.6693 11.0096 10.9339 11.1827 11.166 11.3652C11.6259 10.6809 12.3548 9.80991 13.4912 9.13867Z" fill="currentColor" />
    <path d="M21 17.75C21.5523 17.75 22 18.1977 22 18.75C22 19.3023 21.5523 19.75 21 19.75H3C2.44772 19.75 2 19.3023 2 18.75C2 18.1977 2.44772 17.75 3 17.75H21Z" fill="currentColor" />
</svg>