<svg xmlns="http://www.w3.org/2000/svg" width="24" height="24" viewBox="0 0 24 24" fill="none">
    <path d="M17.9512 12.0019C18.8506 12.0414 19.5622 12.6448 19.9912 13.0263C20.2866 13.289 20.4046 13.4108 20.6494 13.624C20.8527 13.801 20.9992 13.9073 21.1104 13.9648C21.1362 13.9782 21.1568 13.9839 21.1709 13.9892C21.1924 13.9738 21.2262 13.9475 21.2705 13.9003C21.6484 13.4976 22.2818 13.4766 22.6846 13.8544C23.0873 14.2323 23.1073 14.8658 22.7295 15.2685C22.3864 15.6341 21.9653 15.9046 21.4609 15.9794C20.9629 16.0533 20.5265 15.9151 20.1904 15.7412C19.8626 15.5715 19.5723 15.3377 19.3359 15.1318C19.1412 14.9622 18.8158 14.6581 18.6611 14.5205C18.1893 14.1008 17.9681 14.0045 17.8633 14C17.8512 13.9994 17.8028 13.9952 17.6924 14.0712C17.5639 14.1598 17.365 14.3506 17.1104 14.7402L17.1045 14.749C16.8133 15.1849 16.449 15.554 15.9766 15.7509C15.4786 15.9585 14.9945 15.92 14.5889 15.7832C14.2095 15.6551 13.8775 15.435 13.6162 15.2402C13.3597 15.0488 13.0806 14.8099 12.8691 14.6376C12.3536 14.2176 12.0831 14.075 11.9092 14.0625C11.8917 14.0612 11.6206 14.0101 11.1064 14.7851L11.1055 14.7841C10.8318 15.2018 10.4726 15.5558 9.99219 15.7304C9.50023 15.9092 9.03139 15.8463 8.65527 15.7167C8.29475 15.5925 7.96783 15.3901 7.70215 15.207C7.44532 15.03 7.1495 14.802 6.93066 14.6416C6.39914 14.2519 6.09007 14.0977 5.87793 14.0849C5.82017 14.0814 5.55937 14.0534 5.11035 14.7402L5.10449 14.749C4.66765 15.403 4.00515 15.9814 3.12988 15.9814C2.25058 15.9812 1.59152 15.3979 1.16211 14.7392C0.860601 14.2766 0.991483 13.657 1.4541 13.3554C1.91674 13.0539 2.53632 13.1848 2.83789 13.6474C2.98075 13.8665 3.08389 13.944 3.13086 13.9707C3.17878 13.9448 3.28825 13.867 3.44141 13.6376C4.11877 12.6053 4.97112 12.0259 5.99902 12.0878C6.87436 12.1407 7.62615 12.6712 8.11328 13.0283C8.40363 13.2411 8.60707 13.4021 8.83691 13.5605C9.05796 13.7128 9.20638 13.7916 9.30664 13.8261C9.31183 13.8279 9.31688 13.8286 9.32129 13.83C9.34625 13.8051 9.38612 13.7613 9.43555 13.6855L9.43945 13.6796C10.1402 12.6234 10.9993 11.993 12.0498 12.0673C12.944 12.1307 13.6803 12.7181 14.1328 13.0869C14.4055 13.3091 14.601 13.4799 14.8125 13.6376C15.0193 13.7918 15.1498 13.8611 15.2285 13.8876C15.2644 13.8595 15.3386 13.7915 15.4414 13.6376C16.1069 12.6228 16.9236 11.9569 17.9512 12.0019Z" fill="currentColor" />
    <path d="M17.9512 18.0019C18.8506 18.0414 19.5622 18.6448 19.9912 19.0263C20.2866 19.289 20.4046 19.4108 20.6494 19.624C20.8527 19.801 20.9992 19.9073 21.1104 19.9648C21.1362 19.9782 21.1568 19.9839 21.1709 19.9892C21.1924 19.9738 21.2262 19.9475 21.2705 19.9003C21.6484 19.4976 22.2818 19.4766 22.6846 19.8544C23.0873 20.2323 23.1073 20.8658 22.7295 21.2685C22.3864 21.6341 21.9653 21.9046 21.4609 21.9794C20.9629 22.0533 20.5265 21.9151 20.1904 21.7412C19.8626 21.5715 19.5723 21.3377 19.3359 21.1318C19.1412 20.9622 18.8158 20.6581 18.6611 20.5205C18.1893 20.1008 17.9681 20.0045 17.8633 20C17.8512 19.9994 17.8028 19.9952 17.6924 20.0712C17.5639 20.1598 17.365 20.3506 17.1104 20.7402L17.1045 20.749C16.8133 21.1849 16.449 21.554 15.9766 21.7509C15.4786 21.9585 14.9945 21.92 14.5889 21.7832C14.2095 21.6551 13.8775 21.435 13.6162 21.2402C13.3597 21.0488 13.0806 20.8099 12.8691 20.6376C12.3536 20.2176 12.0831 20.075 11.9092 20.0625C11.8917 20.0612 11.6206 20.0101 11.1064 20.7851L11.1055 20.7841C10.8318 21.2018 10.4726 21.5558 9.99219 21.7304C9.50023 21.9092 9.03139 21.8463 8.65527 21.7167C8.29475 21.5925 7.96783 21.3901 7.70215 21.207C7.44532 21.03 7.1495 20.802 6.93066 20.6416C6.39914 20.2519 6.09007 20.0977 5.87793 20.0849C5.82017 20.0814 5.55937 20.0534 5.11035 20.7402L5.10449 20.749C4.66765 21.403 4.00515 21.9814 3.12988 21.9814C2.25058 21.9812 1.59152 21.3979 1.16211 20.7392C0.860601 20.2766 0.991483 19.657 1.4541 19.3554C1.91674 19.0539 2.53632 19.1848 2.83789 19.6474C2.98075 19.8665 3.08389 19.944 3.13086 19.9707C3.17878 19.9448 3.28825 19.867 3.44141 19.6376C4.11877 18.6053 4.97112 18.0259 5.99902 18.0878C6.87436 18.1407 7.62615 18.6712 8.11328 19.0283C8.40363 19.2411 8.60707 19.4021 8.83691 19.5605C9.05796 19.7128 9.20638 19.7916 9.30664 19.8261C9.31183 19.8279 9.31688 19.8286 9.32129 19.83C9.34625 19.8051 9.38612 19.7613 9.43555 19.6855L9.43945 19.6796C10.1402 18.6234 10.9993 17.993 12.0498 18.0673C12.944 18.1307 13.6803 18.7181 14.1328 19.0869C14.4055 19.3091 14.601 19.4799 14.8125 19.6376C15.0193 19.7918 15.1498 19.8611 15.2285 19.8876C15.2644 19.8595 15.3386 19.7915 15.4414 19.6376C16.1069 18.6228 16.9236 17.9569 17.9512 18.0019Z" fill="currentColor" />
    <path d="M11 3C11 2.44772 11.4477 2 12 2C12.5523 2 13 2.44772 13 3V6.89062C13.0135 6.87521 13.0275 6.86025 13.041 6.84473C13.3514 6.4872 13.6415 6.12639 13.8545 5.85352C13.9604 5.71778 14.0463 5.60477 14.1055 5.52637L14.1904 5.41309C14.1921 5.41082 14.1936 5.40922 14.1943 5.4082V5.40723C14.5219 4.96253 15.1481 4.8678 15.5928 5.19531C16.0373 5.52274 16.1328 6.14813 15.8057 6.59277H15.8047V6.59375C15.8043 6.5943 15.8034 6.59577 15.8027 6.59668C15.8014 6.59845 15.7991 6.60048 15.7969 6.60352C15.7921 6.60994 15.7851 6.6191 15.7764 6.63086C15.7588 6.65444 15.7335 6.68861 15.7012 6.73145C15.6365 6.81706 15.5441 6.93866 15.4307 7.08398C15.2047 7.37353 14.8924 7.76293 14.5518 8.15527C14.2154 8.54261 13.8317 8.95608 13.4648 9.28027C13.2825 9.44139 13.0802 9.60209 12.8721 9.72754C12.6914 9.83644 12.3773 9.99999 12 10C11.6228 10 11.3086 9.83644 11.1279 9.72754C10.9198 9.60209 10.7175 9.44139 10.5352 9.28027C10.1683 8.95607 9.78456 8.54263 9.44824 8.15527C9.10761 7.76293 8.7953 7.37354 8.56934 7.08398C8.45593 6.93867 8.36349 6.81706 8.29883 6.73145C8.26648 6.68861 8.2412 6.65444 8.22363 6.63086C8.21486 6.61909 8.20789 6.60994 8.20313 6.60352C8.20088 6.60049 8.19858 6.59846 8.19727 6.59668L8.19531 6.59375V6.59277H8.19434C7.86716 6.1481 7.96265 5.52175 8.40723 5.19434C8.8519 4.86716 9.47825 4.96265 9.80566 5.40723C9.80642 5.40825 9.80789 5.41082 9.80957 5.41309L9.89453 5.52637C9.95375 5.60477 10.0396 5.71778 10.1455 5.85352C10.3585 6.12639 10.6486 6.48719 10.959 6.84473C10.9725 6.86025 10.9865 6.87521 11 6.89062V3Z" fill="currentColor" />
</svg>