<svg xmlns="http://www.w3.org/2000/svg" width="24" height="24" viewBox="0 0 24 24" fill="none">
    <path d="M8 18C8 17.4477 8.44772 17 9 17C9.55228 17 10 17.4477 10 18C10 19.1046 10.8954 20 12 20C13.1046 20 14 19.1046 14 18C14 16.8954 13.1046 16 12 16H3C2.44772 16 2 15.5523 2 15C2 14.4477 2.44772 14 3 14H12C14.2091 14 16 15.7909 16 18C16 20.2091 14.2091 22 12 22C9.79086 22 8 20.2091 8 18Z" fill="currentColor" />
    <path d="M20 9C20 7.89543 19.1046 7 18 7C16.8954 7 16 7.89543 16 9C16 9.55228 15.5523 10 15 10C14.4477 10 14 9.55228 14 9C14 6.79086 15.7909 5 18 5C20.2091 5 22 6.79086 22 9C22 11.2091 20.2091 13 18 13H3C2.44772 13 2 12.5523 2 12C2 11.4477 2.44772 11 3 11H18C19.1046 11 20 10.1046 20 9Z" fill="currentColor" />
    <path d="M9 3C9 2.44772 9.44772 2 10 2C10.5523 2 11 2.44772 11 3V6.78711C11.1556 6.5994 11.2991 6.42269 11.4141 6.27539C11.5018 6.16301 11.5732 6.06962 11.6221 6.00488C11.6465 5.97257 11.6653 5.94735 11.6777 5.93066C11.6839 5.92236 11.6885 5.91607 11.6914 5.91211C11.6927 5.91035 11.6937 5.90905 11.6943 5.9082V5.90723L11.7598 5.82812C12.1 5.45236 12.6758 5.38823 13.0928 5.69531C13.5373 6.02274 13.6328 6.64813 13.3057 7.09277H13.3047V7.09375L13.3027 7.0957C13.3016 7.09727 13.2999 7.09979 13.2979 7.10254C13.2938 7.10801 13.2886 7.11618 13.2813 7.12598C13.2664 7.14585 13.2449 7.17411 13.2178 7.20996C13.1634 7.2819 13.0854 7.38396 12.9902 7.50586C12.8008 7.74858 12.5384 8.07537 12.252 8.40527C11.9699 8.73013 11.6449 9.08108 11.3311 9.3584C11.1752 9.49608 10.9979 9.63725 10.8125 9.74902C10.6545 9.84427 10.3606 9.99999 10 10C9.63937 10 9.34554 9.84427 9.1875 9.74902C9.00208 9.63724 8.82477 9.49608 8.66895 9.3584C8.35513 9.08107 8.03011 8.73015 7.74805 8.40527C7.46162 8.07537 7.19919 7.74858 7.00977 7.50586C6.91463 7.38396 6.83656 7.2819 6.78223 7.20996C6.75515 7.17411 6.73356 7.14585 6.71875 7.12598C6.71146 7.11619 6.7062 7.10801 6.70215 7.10254C6.70013 7.09981 6.69842 7.09727 6.69727 7.0957L6.69531 7.09375V7.09277H6.69434C6.36716 6.6481 6.46265 6.02175 6.90723 5.69434C7.3519 5.36716 7.97825 5.46265 8.30566 5.90723H8.30469L8.30566 5.9082C8.30629 5.90905 8.30729 5.91035 8.30859 5.91211C8.31153 5.91607 8.31608 5.92236 8.32227 5.93066C8.3347 5.94735 8.35353 5.97257 8.37793 6.00488C8.42683 6.06962 8.49824 6.16301 8.58594 6.27539C8.70089 6.4227 8.84436 6.5994 9 6.78711V3Z" fill="currentColor" />
</svg>