<svg xmlns="http://www.w3.org/2000/svg" width="24" height="24" viewBox="0 0 24 24" fill="none">
    <path d="M10.75 19L10.75 19.0778C10.7504 19.4611 10.7507 19.7914 10.6728 20.082C10.4648 20.8585 9.85846 21.4648 9.082 21.6728C8.79138 21.7507 8.4611 21.7504 8.07784 21.75L7.99997 21.75H4.99997L4.9221 21.75C4.53884 21.7504 4.20856 21.7507 3.91794 21.6728C3.14148 21.4648 2.53517 20.8585 2.32712 20.082C2.24928 19.7914 2.24958 19.4611 2.24992 19.0778L2.24997 19L2.24992 18.9221C2.24958 18.5388 2.24928 18.2086 2.32712 17.9179C2.53517 17.1415 3.14148 16.5352 3.91794 16.3271C4.20856 16.2493 4.53884 16.2496 4.9221 16.2499L4.99997 16.25H7.99997L8.07784 16.2499C8.4611 16.2496 8.79138 16.2493 9.082 16.3271C9.85846 16.5352 10.4648 17.1415 10.6728 17.9179C10.7507 18.2086 10.7504 18.5388 10.75 18.9221L10.75 19Z" fill="currentColor" />
    <path d="M21.75 4.99997L21.75 5.07785C21.7504 5.4611 21.7507 5.79138 21.6728 6.082C21.4648 6.85846 20.8585 7.46477 20.082 7.67282C19.7914 7.75066 19.4611 7.75036 19.0778 7.75002L19 7.74997H16L15.9221 7.75002C15.5388 7.75036 15.2086 7.75066 14.9179 7.67282C14.1415 7.46477 13.5352 6.85846 13.3271 6.082C13.2493 5.79138 13.2496 5.4611 13.2499 5.07784L13.25 4.99997L13.2499 4.9221C13.2496 4.53884 13.2493 4.20856 13.3271 3.91794C13.5352 3.14148 14.1415 2.53517 14.9179 2.32712C15.2086 2.24928 15.5388 2.24958 15.9221 2.24992L16 2.24997H19L19.0778 2.24992C19.4611 2.24958 19.7914 2.24928 20.082 2.32712C20.8585 2.53517 21.4648 3.14148 21.6728 3.91794C21.7507 4.20856 21.7504 4.53884 21.75 4.92209L21.75 4.99997Z" fill="currentColor" />
    <path d="M4 8.5C4 6.01477 6.01467 4 8.5 4H14C14.5523 4 15 4.44772 15 5C15 5.55228 14.5523 6 14 6H8.5C7.11934 6 6 7.11924 6 8.5C6 9.88071 7.11929 11 8.5 11H9C9.55228 11 10 11.4477 10 12C10 12.5523 9.55228 13 9 13H8.5C6.01472 13 4 10.9853 4 8.5Z" fill="currentColor" />
    <path d="M18 15.5C18 14.1192 16.8813 13.0002 15.501 13H15C14.4477 13 14 12.5523 14 12C14 11.4477 14.4477 11 15 11H15.501C17.9863 11.0002 20 13.0151 20 15.5C20 17.9853 17.9853 20 15.5 20H10C9.44772 20 9 19.5523 9 19C9 18.4477 9.44772 18 10 18H15.5C16.8807 18 18 16.8807 18 15.5Z" fill="currentColor" />
    <path fill-rule="evenodd" clip-rule="evenodd" d="M13.8658 14.0951C13.8764 14.0846 13.8869 14.074 13.8975 14.0635L14.0635 13.8975C14.0733 13.8877 14.0831 13.8779 14.0928 13.8681C14.1113 13.8496 14.1297 13.8312 14.1481 13.8129C14.4226 13.5382 14.6741 13.2833 14.8545 13.0469C15.0665 12.769 15.25 12.43 15.25 12C15.2499 11.5699 15.0665 11.231 14.8545 10.9531C14.6623 10.7013 14.3897 10.4287 14.0943 10.1333C14.084 10.1231 14.0738 10.1128 14.0635 10.1025L13.8975 9.93652C13.8873 9.92637 13.8772 9.91625 13.8671 9.90615C13.5715 9.61051 13.2989 9.33777 13.0469 9.14551" fill="currentColor" />
    <path d="M12.1572 8.75781C12.514 8.79586 12.8038 8.96001 13.0469 9.14551C13.2989 9.33777 13.5715 9.61051 13.8671 9.90615L13.8975 9.93652L14.0635 10.1025L14.0943 10.1333C14.3897 10.4287 14.6623 10.7013 14.8545 10.9531C15.0665 11.231 15.2499 11.5699 15.25 12C15.25 12.43 15.0665 12.769 14.8545 13.0469C14.662 13.2991 14.3888 13.5722 14.0928 13.8681L14.0635 13.8975L13.8975 14.0635L13.8658 14.0951C13.5708 14.3902 13.2985 14.6625 13.0469 14.8545C12.769 15.0665 12.4301 15.25 12 15.25C11.5699 15.25 11.231 15.0665 10.9531 14.8545C10.7015 14.6625 10.4292 14.3902 10.1342 14.0951L10.1025 14.0635L9.93652 13.8975L9.90717 13.8681C9.61119 13.5722 9.33797 13.2991 9.14551 13.0469C8.93353 12.769 8.75003 12.43 8.75 12C8.75004 11.57 8.93354 11.231 9.14551 10.9531C9.33736 10.7016 9.60952 10.4295 9.90441 10.1347L9.93652 10.1025L10.1025 9.93652L10.1311 9.90798C10.4272 9.61169 10.7007 9.33814 10.9531 9.14551C11.231 8.93352 11.57 8.75002 12 8.75L12.1572 8.75781Z" fill="currentColor" />
</svg>