<svg xmlns="http://www.w3.org/2000/svg" width="24" height="24" viewBox="0 0 24 24" fill="none">
    <path d="M4 17V6.99997C4 5.8954 3.10456 4.99996 2 4.99997C1.44772 4.99997 1 4.55225 1 3.99997C1.00001 3.44769 1.44772 2.99997 2 2.99997C4.20914 2.99996 6 4.79083 6 6.99997V17C6 17.5523 5.55228 18 5 18C4.44772 18 4 17.5523 4 17Z" fill="currentColor" />
    <path d="M9 16.4824V6.5C9 5.67157 8.32843 5 7.5 5C6.67157 5 6 5.67157 6 6.5V17C6 17.5523 5.55228 18 5 18C4.44772 18 4 17.5523 4 17V6.5C4 4.567 5.567 3 7.5 3C9.433 3 11 4.567 11 6.5V16.4824C11 17.0347 10.5523 17.4824 10 17.4824C9.44772 17.4824 9 17.0347 9 16.4824Z" fill="currentColor" />
    <path d="M14 15V6.5C14 5.67157 13.3284 5 12.5 5C11.6716 5 11 5.67157 11 6.5V17C11 17.5523 10.5523 18 10 18C9.44772 18 9 17.5523 9 17V6.5C9 4.567 10.567 3 12.5 3C14.433 3 16 4.567 16 6.5V15C16 15.5523 16.4477 16 17 16H22C22.5523 16 23 16.4477 23 17C23 17.5523 22.5523 18 22 18H17C15.3431 18 14 16.6569 14 15Z" fill="currentColor" />
    <path d="M18.1953 13.4072C18.5227 12.9627 19.1481 12.8672 19.5928 13.1943V13.1953H19.5937C19.5943 13.1957 19.5958 13.1966 19.5967 13.1973C19.5984 13.1986 19.6005 13.2009 19.6035 13.2031C19.6099 13.2079 19.62 13.2148 19.6318 13.2236C19.6554 13.2412 19.6889 13.2667 19.7314 13.2988C19.8172 13.3636 19.9393 13.4567 20.0849 13.5703C20.3751 13.7968 20.7651 14.1099 21.1582 14.4512C21.5464 14.7883 21.9613 15.1724 22.2861 15.54C22.4474 15.7226 22.6078 15.9246 22.7334 16.1328C22.8424 16.3137 23.0058 16.6284 23.0058 17.0059C23.0058 17.3834 22.8424 17.698 22.7334 17.8789C22.6079 18.0871 22.4474 18.2891 22.2861 18.4717C21.9613 18.8393 21.5464 19.2244 21.1582 19.5615C20.7651 19.9028 20.375 20.216 20.0849 20.4424C19.9394 20.556 19.8172 20.6481 19.7314 20.7129C19.6886 20.7453 19.6544 20.7715 19.6308 20.7891C19.6193 20.7977 19.6099 20.8049 19.6035 20.8096C19.6007 20.8117 19.5984 20.8132 19.5967 20.8145L19.5937 20.8164C19.149 21.1439 18.5218 21.0492 18.1943 20.6045C17.8673 20.1598 17.9627 19.5344 18.4072 19.207L18.4082 19.2061C18.4092 19.2053 18.4108 19.2039 18.4131 19.2022L18.5264 19.1172C18.605 19.0578 18.7183 18.9715 18.8545 18.8652C19.1279 18.6519 19.4894 18.3618 19.8476 18.0508C20.2108 17.7355 20.5483 17.4177 20.7871 17.1475C20.8331 17.0954 20.8712 17.0475 20.9043 17.0059C20.8712 16.9642 20.8331 16.9163 20.7871 16.8643C20.5483 16.594 20.2108 16.2763 19.8476 15.9609C19.4894 15.6499 19.1279 15.3599 18.8545 15.1465C18.7183 15.0402 18.605 14.9539 18.5264 14.8945L18.4131 14.8096C18.4108 14.8079 18.4092 14.8064 18.4082 14.8057H18.4072C17.9625 14.4782 17.8678 13.8519 18.1953 13.4072Z" fill="currentColor" />
</svg>