<svg xmlns="http://www.w3.org/2000/svg" width="24" height="24" viewBox="0 0 24 24" fill="none">
    <path d="M17.8753 9.30859C17.8753 9.58943 17.8095 9.86697 17.6839 10.1182L15.9935 13.5H18.0364C19.0518 13.5 19.8753 14.3235 19.8753 15.3389C19.8753 15.5726 19.8303 15.8044 19.7435 16.0215L17.804 20.8711C17.599 21.3838 17.0169 21.6336 16.5042 21.4287C15.9915 21.2236 15.7417 20.6416 15.9466 20.1289L17.7982 15.5H12.928C11.4737 15.4998 10.5062 13.9969 11.1077 12.6729L12.5501 9.5H11.1116C10.7329 9.5 10.3865 9.71401 10.2171 10.0527L9.76984 10.9473C9.52285 11.4412 8.92203 11.6415 8.42805 11.3945C7.93407 11.1475 7.73379 10.5467 7.98078 10.0527L8.42805 9.1582C8.93624 8.14191 9.97536 7.5 11.1116 7.5H16.0667C17.0655 7.50023 17.8751 8.30984 17.8753 9.30859Z" fill="currentColor" />
    <path d="M19.125 4C19.125 5.24264 18.1176 6.25 16.875 6.25C15.6324 6.25 14.625 5.24264 14.625 4C14.625 2.75736 15.6324 1.75 16.875 1.75C18.1176 1.75 19.125 2.75736 19.125 4Z" fill="currentColor" />
    <path d="M12.9277 17C12.6287 17 12.3414 16.9636 12.0689 16.8958C10.7776 16.5741 9.81899 15.5442 9.52075 14.3141C9.41294 13.8695 9.39142 13.3987 9.47168 12.9258C8.98903 13.0447 8.4692 13.0227 7.9791 12.8344C5.78408 13.2533 4.125 15.1829 4.125 17.5C4.125 20.1233 6.25165 22.25 8.875 22.25C11.4984 22.25 13.625 20.1233 13.625 17.5C13.625 17.3311 13.6162 17.1643 13.599 17H12.9277Z" fill="currentColor" />
</svg>