<svg xmlns="http://www.w3.org/2000/svg" width="24" height="24" viewBox="0 0 24 24" fill="none">
    <path fill-rule="evenodd" clip-rule="evenodd" d="M6.99993 1.24963C10.1756 1.24963 12.7499 3.824 12.7499 6.99963C12.7499 9.47184 11.1894 11.5787 8.99993 12.3912V14.3395C8.99994 14.4974 9.04712 14.6514 9.1347 14.7828L9.68548 15.611C9.87362 15.8932 9.8636 16.2634 9.66009 16.5348L8.86028 17.6012C8.64695 17.8856 8.64695 18.2777 8.86028 18.5621L9.58392 19.527C9.82237 19.8453 9.79075 20.2905 9.5097 20.5719L7.56536 22.5162C7.25301 22.8283 6.74686 22.8283 6.4345 22.5162L5.23431 21.316C5.08435 21.1661 5.00002 20.9627 4.99993 20.7506V12.3912C2.81046 11.5787 1.24993 9.47184 1.24993 6.99963C1.24993 3.824 3.82429 1.24963 6.99993 1.24963ZM6.99993 5.24963C6.03343 5.24963 5.24993 6.03314 5.24993 6.99963C5.24993 7.96613 6.03343 8.74963 6.99993 8.74963C7.96642 8.74963 8.74993 7.96614 8.74993 6.99963C8.74993 6.03314 7.96643 5.24963 6.99993 5.24963Z" fill="currentColor" />
    <path d="M22.7502 14.9996C22.7502 14.0331 21.9667 13.2496 21.0002 13.2496H11.1288V19.7496H21.0002C21.9667 19.7496 22.7502 18.9661 22.7502 17.9996V14.9996Z" fill="currentColor" />
    <path d="M21.0009 4.24963C21.9674 4.24963 22.7509 5.03314 22.7509 5.99963V8.99963C22.7509 9.96613 21.9674 10.7496 21.0009 10.7496H12.9101C13.5999 9.66623 14.0009 8.38058 14.0009 6.99963C14.0009 6.0233 13.8005 5.09391 13.4394 4.24963H21.0009Z" fill="currentColor" />
</svg>