<svg xmlns="http://www.w3.org/2000/svg" width="24" height="24" viewBox="0 0 24 24" fill="none">
    <path fill-rule="evenodd" clip-rule="evenodd" d="M12.5537 1.25689C12.8547 1.29783 13.1018 1.51676 13.1787 1.81061L14.0303 5.06451L16.791 4.26275C17.0653 4.1832 17.3611 4.26672 17.5537 4.4776C17.7464 4.68861 17.8025 4.99082 17.6982 5.25689L15.7324 10.2735C15.6198 10.5609 15.3428 10.7501 15.0342 10.7501H13.5664L12.7217 7.794C12.6078 7.39579 12.1922 7.16557 11.7939 7.27936C11.3959 7.39324 11.1656 7.80795 11.2793 8.20611L12.0059 10.7501L9.5 10.7501C9.29829 10.7501 9.10495 10.6686 8.96387 10.5245L6.46387 7.96978C6.27369 7.77531 6.20396 7.49328 6.28125 7.23248C6.35869 6.97156 6.57127 6.77315 6.83691 6.71393L8.01172 6.45221L6.88574 3.25592C6.78647 2.97422 6.86324 2.66038 7.08203 2.45709C7.30089 2.2539 7.61999 2.19967 7.89356 2.31939L10.6875 3.544L11.8047 1.62311C11.9573 1.3607 12.2529 1.21607 12.5537 1.25689Z" fill="currentColor" />
    <circle cx="18.5" cy="20.0001" r="2.5" fill="currentColor" />
    <path d="M21.0208 7C20.3681 6.99994 19.7564 7.31838 19.3822 7.8531L16.2792 12.2861L13.3376 14.3871C12.8119 14.7625 12.5 15.3687 12.5 16.0146V20.0001C12.5 20.5524 12.9477 21.0001 13.5 21.0001H14.9367C14.8476 20.682 14.8 20.3466 14.8 20.0001C14.8 17.9567 16.4565 16.3001 18.5 16.3001C20.5435 16.3001 22.2 17.9567 22.2 20.0001C22.2 20.3459 22.1526 20.6806 22.0639 20.9981C22.3058 20.9826 22.5347 20.8796 22.7071 20.7072C22.8946 20.5197 23 20.2653 23 20.0001V13.0001C23 12.4478 22.5523 12.0001 22 12.0001H18.9206L21.0206 9L21.9999 9.00009C22.5522 9.00014 22.9999 8.55247 23 8.00018C23.0001 7.4479 22.5524 7.00014 22.0001 7.00009L21.0208 7Z" fill="currentColor" />
    <circle cx="5.5" cy="20.0001" r="2.5" fill="currentColor" />
    <path d="M2.00009 9.00009L2.97937 9L5.07938 12.0001H2C1.44772 12.0001 1 12.4478 1 13.0001V20.0001C1 20.2653 1.10536 20.5197 1.29289 20.7072C1.46532 20.8796 1.69424 20.9826 1.93614 20.9981C1.84743 20.6806 1.8 20.3459 1.8 20.0001C1.8 17.9567 3.45655 16.3001 5.5 16.3001C7.54345 16.3001 9.2 17.9567 9.2 20.0001C9.2 20.3466 9.15237 20.682 9.06329 21.0001H10.5C11.0523 21.0001 11.5 20.5524 11.5 20.0001V16.0146C11.5 15.3687 11.1881 14.7625 10.6624 14.3871L7.72084 12.2861L4.61785 7.8531C4.24356 7.31838 3.63189 6.99994 2.97918 7L1.99991 7.00009C1.44762 7.00014 0.999949 7.4479 1 8.00018C1.00005 8.55247 1.44781 9.00014 2.00009 9.00009Z" fill="currentColor" />
</svg>