<svg xmlns="http://www.w3.org/2000/svg" width="24" height="24" viewBox="0 0 24 24" fill="none">
    <path fill-rule="evenodd" clip-rule="evenodd" d="M12 1.25C17.937 1.25 22.75 6.06293 22.75 12C22.75 17.937 17.937 22.75 12 22.75C6.06293 22.75 1.25 17.937 1.25 12C1.25 6.06294 6.06294 1.25 12 1.25ZM12 3.2041C7.14242 3.20413 3.20508 7.14242 3.20508 12H6.43359C6.78475 12 7.11026 11.8157 7.29102 11.5146L8.83008 7.4502C8.93269 7.17933 9.19178 7.00001 9.48145 7C9.78924 7 10.061 7.20226 10.1494 7.49707L12.8496 16.498C12.9389 16.7956 13.2128 16.9999 13.5234 17C13.8112 17 14.0699 16.8247 14.1768 16.5576L15.749 12.6289C15.9008 12.2493 16.268 12.0001 16.6768 12H20.7959C20.7959 7.14241 16.8576 3.2041 12 3.2041Z" fill="currentColor" />
</svg>