<svg xmlns="http://www.w3.org/2000/svg" width="24" height="24" viewBox="0 0 24 24" fill="none">
    <path d="M21 10.75C21.9665 10.75 22.75 9.9665 22.75 9V5C22.75 4.0335 21.9665 3.25 21 3.25H15C14.0335 3.25 13.25 4.0335 13.25 5V9C13.25 9.9665 14.0335 10.75 15 10.75H21Z" fill="currentColor" />
    <path d="M1.25 12C1.25 8.68629 3.93629 6 7.25 6H10.25C10.8023 6 11.25 6.44772 11.25 7C11.25 7.55228 10.8023 8 10.25 8H7.25C5.04086 8 3.25 9.79086 3.25 12C3.25 14.2091 5.04086 16 7.25 16H7.83594L7.04297 15.207C6.65244 14.8165 6.65244 14.1835 7.04297 13.793C7.43349 13.4024 8.06651 13.4024 8.45703 13.793L10.957 16.293C11.3476 16.6835 11.3476 17.3165 10.957 17.707L8.45703 20.207C8.06651 20.5976 7.43349 20.5976 7.04297 20.207C6.65244 19.8165 6.65244 19.1835 7.04297 18.793L7.83594 18H7.25C3.93629 18 1.25 15.3137 1.25 12Z" fill="currentColor" />
    <path d="M21 20.75C21.9665 20.75 22.75 19.9665 22.75 19V15C22.75 14.0335 21.9665 13.25 21 13.25H15C14.0335 13.25 13.25 14.0335 13.25 15V19C13.25 19.9665 14.0335 20.75 15 20.75H21Z" fill="currentColor" />
</svg>