<svg xmlns="http://www.w3.org/2000/svg" width="24" height="24" viewBox="0 0 24 24" fill="none">
    <path d="M19.5 7.75C19.8228 7.75 20.1098 7.54356 20.2119 7.2373L20.7178 5.71875L22.2373 5.21191C22.5436 5.10983 22.75 4.82282 22.75 4.5C22.75 4.17718 22.5436 3.89017 22.2373 3.78809L20.7178 3.28223L20.2119 1.7627C20.1098 1.45644 19.8228 1.25 19.5 1.25C19.1772 1.25 18.8902 1.45644 18.7881 1.7627L18.2812 3.28223L16.7627 3.78809C16.4564 3.89017 16.25 4.17718 16.25 4.5C16.25 4.82282 16.4564 5.10983 16.7627 5.21191L18.2812 5.71875L18.7881 7.2373L18.835 7.34668C18.9625 7.59163 19.2174 7.75 19.5 7.75Z" fill="currentColor" />
    <path d="M15.1309 3.25C14.8889 3.61197 14.75 4.04376 14.75 4.5C14.75 5.46699 15.3682 6.32799 16.2881 6.63477L17.0947 6.90527L17.3652 7.71191L17.4092 7.82812L17.4561 7.9375C17.4709 7.97211 17.4875 8.00664 17.5049 8.04004C17.8877 8.77468 18.6515 9.25 19.5 9.25C19.9562 9.25 20.388 9.11112 20.75 8.86914V20C20.75 21.5188 19.5188 22.75 18 22.75H4C2.48122 22.75 1.25 21.5188 1.25 20V6C1.25 4.48122 2.48122 3.25 4 3.25H15.1309ZM6.53027 13.4697C6.23738 13.1768 5.76262 13.1768 5.46973 13.4697C5.17683 13.7626 5.17683 14.2374 5.46973 14.5303L9.46973 18.5303C9.76262 18.8231 10.2374 18.8231 10.5303 18.5303C10.8231 18.2374 10.8231 17.7626 10.5303 17.4697L6.53027 13.4697ZM6.53027 7.46973C6.23738 7.17683 5.76262 7.17683 5.46973 7.46973C5.17683 7.76262 5.17683 8.23738 5.46973 8.53027L15.4697 18.5303C15.7626 18.8231 16.2374 18.8231 16.5303 18.5303C16.8231 18.2374 16.8231 17.7626 16.5303 17.4697L6.53027 7.46973ZM12.5303 7.46973C12.2374 7.17683 11.7626 7.17683 11.4697 7.46973C11.1768 7.76262 11.1768 8.23738 11.4697 8.53027L15.4697 12.5303C15.7626 12.8231 16.2374 12.8231 16.5303 12.5303C16.8231 12.2374 16.8231 11.7626 16.5303 11.4697L12.5303 7.46973Z" fill="currentColor" />
</svg>