<svg xmlns="http://www.w3.org/2000/svg" width="24" height="24" viewBox="0 0 24 24" fill="none">
    <path d="M20.2751 13.4501C20.8135 13.4501 21.2501 13.0136 21.2501 12.4751V4.67512C21.2501 3.05969 19.9405 1.75012 18.3251 1.75012H4.67506C3.05963 1.75012 1.75006 3.05969 1.75006 4.67512V18.3251C1.75006 19.9406 3.05963 21.2501 4.67506 21.2501H12.4751C13.0135 21.2501 13.4501 20.8136 13.4501 20.2751C13.4501 19.7366 13.0135 19.3001 12.4751 19.3001H4.67506C4.13658 19.3001 3.70006 18.8636 3.70006 18.3251V7.57512H19.3001V12.4751C19.3001 13.0136 19.7366 13.4501 20.2751 13.4501Z" fill="currentColor" />
    <path d="M19.2178 15.2258C18.9656 14.5917 18.0345 14.5917 17.7823 15.2258L17.7393 15.3713C17.5109 16.489 16.6774 17.3782 15.5919 17.6857L15.3711 17.7394C14.5431 17.9089 14.5431 19.0914 15.3711 19.2609C16.5634 19.5046 17.4956 20.4369 17.7393 21.6291C17.9088 22.4571 19.0913 22.4571 19.2608 21.6291C19.5045 20.4369 20.4368 19.5046 21.629 19.2609C22.457 19.0914 22.457 17.9089 21.629 17.7394C20.5113 17.511 19.622 16.6776 19.3145 15.592L19.2608 15.3713L19.2178 15.2258Z" fill="currentColor" />
</svg>