<svg xmlns="http://www.w3.org/2000/svg" width="24" height="24" viewBox="0 0 24 24" fill="none">
    <path d="M11.9998 18.75C12.5521 18.75 12.9998 19.1977 12.9998 19.75V20.75H14.9998C15.5521 20.75 15.9998 21.1977 15.9998 21.75C15.9998 22.3023 15.5521 22.75 14.9998 22.75H8.99978C8.44761 22.7499 7.99978 22.3022 7.99978 21.75C7.99978 21.1978 8.44761 20.7501 8.99978 20.75H10.9998V19.75C10.9998 19.1978 11.4476 18.7501 11.9998 18.75ZM19.9998 16.25C20.3226 16.25 20.6096 16.4565 20.7117 16.7627L21.0926 17.9062L22.2371 18.2881C22.5433 18.3902 22.7498 18.6772 22.7498 19C22.7498 19.3228 22.5433 19.6098 22.2371 19.7119L21.0926 20.0928L20.7117 21.2373C20.6096 21.5435 20.3226 21.75 19.9998 21.75C19.6771 21.7499 19.3899 21.5435 19.2879 21.2373L18.906 20.0928L17.7625 19.7119C17.4563 19.6098 17.2498 19.3227 17.2498 19C17.2498 18.6773 17.4563 18.3902 17.7625 18.2881L18.906 17.9062L19.2879 16.7627L19.3347 16.6533C19.4623 16.4084 19.7172 16.2501 19.9998 16.25ZM14.9998 1.25C16.5186 1.25 17.7498 2.48122 17.7498 4V5.25H14.4998C14.0857 5.25014 13.7498 5.58587 13.7498 6C13.7498 6.41413 14.0857 6.74986 14.4998 6.75H17.7498V8.25H14.4998C14.0857 8.25014 13.7498 8.58587 13.7498 9C13.7498 9.41413 14.0857 9.74986 14.4998 9.75H17.7498V11.25H14.4998C14.0857 11.2501 13.7498 11.5859 13.7498 12C13.7498 12.4141 14.0857 12.7499 14.4998 12.75H17.7498V13.4248C18.2401 13.1705 18.6832 12.9088 19.0711 12.6426C19.7925 12.1473 20.2791 11.6722 20.5486 11.2637C20.815 10.8597 20.8183 10.6076 20.7742 10.4609C20.7104 10.2491 20.4296 9.89783 19.5535 9.60156C19.0436 9.42918 18.7731 8.8866 18.95 8.38965C19.127 7.89317 19.6835 7.63069 20.1931 7.80273C21.2852 8.172 22.3195 8.82595 22.6502 9.92578C22.905 10.7739 22.6499 11.6003 22.1931 12.293C21.7391 12.9814 21.0356 13.6229 20.1961 14.1992C18.5108 15.3561 16.0839 16.3794 13.3172 17.04C10.549 17.701 7.87824 17.895 5.78201 17.6455C4.73729 17.5211 3.78474 17.2802 3.02517 16.8965C2.26915 16.5144 1.60292 15.9352 1.35134 15.0986C1.13112 14.3662 1.29298 13.6431 1.63747 13.0146C1.97677 12.396 2.51554 11.8208 3.16189 11.3008C3.57811 10.9659 4.19431 11.024 4.53786 11.4297C4.88128 11.8353 4.82295 12.4356 4.40701 12.7705C3.87841 13.1958 3.53908 13.5867 3.36013 13.9131C3.18678 14.2296 3.18922 14.4324 3.22829 14.5625C3.27595 14.7208 3.43905 14.9597 3.92458 15.2051C4.40696 15.4488 5.11093 15.6458 6.01931 15.7539C6.31353 15.7889 6.62412 15.8123 6.949 15.8271C6.51571 15.3411 6.24978 14.7024 6.24978 14V12.75H9.49978C9.91399 12.75 10.2498 12.4142 10.2498 12C10.2498 11.5858 9.91399 11.25 9.49978 11.25H6.24978V9.75H9.49978C9.91399 9.75 10.2498 9.41421 10.2498 9C10.2498 8.58579 9.91399 8.25 9.49978 8.25H6.24978V6.75H9.49978C9.91399 6.75 10.2498 6.41421 10.2498 6C10.2498 5.58579 9.91399 5.25 9.49978 5.25H6.24978V4C6.24978 2.4813 7.48111 1.25014 8.99978 1.25H14.9998Z" fill="currentColor" />
</svg>