<svg xmlns="http://www.w3.org/2000/svg" width="24" height="24" viewBox="0 0 24 24" fill="none">
    <path d="M19 1.24927C19.3228 1.24927 19.6098 1.45571 19.7119 1.76196L20.3428 3.65552L22.2373 4.28735C22.5436 4.38944 22.75 4.67644 22.75 4.99927C22.75 5.32209 22.5436 5.6091 22.2373 5.71118L20.3428 6.34204L19.7119 8.23657C19.6098 8.54283 19.3228 8.74927 19 8.74927C18.6772 8.74927 18.3902 8.54283 18.2881 8.23657L17.6562 6.34204L15.7627 5.71118C15.4564 5.6091 15.25 5.32209 15.25 4.99927C15.25 4.67644 15.4564 4.38944 15.7627 4.28735L17.6562 3.65552L18.2881 1.76196L18.335 1.65259C18.4625 1.40764 18.7174 1.24927 19 1.24927Z" fill="currentColor" />
    <path d="M17.8636 21.7727V19.8182H7.11364C5.49444 19.8182 4.18182 18.5056 4.18182 16.8864V6.13636H2.22727C1.68754 6.13636 1.25 5.69882 1.25 5.15909C1.25 4.61936 1.68754 4.18182 2.22727 4.18182H4.18182V2.22727C4.18182 1.68754 4.61936 1.25 5.15909 1.25C5.69882 1.25 6.13636 1.68754 6.13636 2.22727V4.18182H12C12.5397 4.18182 12.9773 4.61936 12.9773 5.15909C12.9773 5.69882 12.5397 6.13636 12 6.13636H6.13636V16.8864C6.13636 17.4261 6.5739 17.8636 7.11364 17.8636H17.8636V12C17.8636 11.4603 18.3012 11.0227 18.8409 11.0227C19.3806 11.0227 19.8182 11.4603 19.8182 12V17.8636H21.7727C22.3125 17.8636 22.75 18.3012 22.75 18.8409C22.75 19.3806 22.3125 19.8182 21.7727 19.8182H19.8182V21.7727C19.8182 22.3125 19.3806 22.75 18.8409 22.75C18.3012 22.75 17.8636 22.3125 17.8636 21.7727Z" fill="currentColor" />
</svg>