<svg xmlns="http://www.w3.org/2000/svg" width="24" height="24" viewBox="0 0 24 24" fill="none">
    <path d="M19.5 16.25C19.8228 16.25 20.1098 16.4564 20.2119 16.7627L20.7178 18.2812L22.2373 18.7881C22.5436 18.8902 22.75 19.1772 22.75 19.5C22.75 19.8228 22.5436 20.1098 22.2373 20.2119L20.7178 20.7178L20.2119 22.2373C20.1098 22.5436 19.8228 22.75 19.5 22.75C19.1772 22.75 18.8902 22.5436 18.7881 22.2373L18.2812 20.7178L16.7627 20.2119C16.4564 20.1098 16.25 19.8228 16.25 19.5C16.25 19.1772 16.4564 18.8902 16.7627 18.7881L18.2812 18.2812L18.7881 16.7627L18.835 16.6533C18.9625 16.4084 19.2174 16.25 19.5 16.25Z" fill="currentColor" />
    <path d="M19 2.25C20.5188 2.25 21.75 3.48122 21.75 5V16.6318L21.6348 16.2881L21.5713 16.1191C21.2204 15.2932 20.4066 14.75 19.5 14.75C18.533 14.75 17.672 15.3692 17.3652 16.2891L17.0967 17.0967L16.2881 17.3652C15.3682 17.672 14.75 18.533 14.75 19.5C14.75 20.4066 15.2932 21.2204 16.1191 21.5713L16.2881 21.6348L16.6328 21.75H5C3.48122 21.75 2.25 20.5188 2.25 19V5C2.25 3.48122 3.48122 2.25 5 2.25H19ZM8 6.25C7.0335 6.25 6.25 7.0335 6.25 8V12C6.25 12.9665 7.0335 13.75 8 13.75H12C12.9665 13.75 13.75 12.9665 13.75 12V8C13.75 7.0335 12.9665 6.25 12 6.25H8Z" fill="currentColor" />
</svg>