<svg xmlns="http://www.w3.org/2000/svg" width="24" height="24" viewBox="0 0 24 24" fill="none">
    <path d="M19.5 3.25C19.8228 3.25 20.1098 3.45644 20.2119 3.7627L20.7178 5.28125L22.2373 5.78809C22.5436 5.89017 22.75 6.17718 22.75 6.5C22.75 6.82282 22.5436 7.10983 22.2373 7.21191L20.7178 7.71777L20.2119 9.2373C20.1098 9.54356 19.8228 9.75 19.5 9.75C19.1772 9.75 18.8902 9.54356 18.7881 9.2373L18.2812 7.71777L16.7627 7.21191C16.4564 7.10983 16.25 6.82282 16.25 6.5C16.25 6.17718 16.4564 5.89017 16.7627 5.78809L18.2812 5.28125L18.7881 3.7627L18.835 3.65332C18.9625 3.40837 19.2174 3.25 19.5 3.25Z" fill="currentColor" />
    <path d="M15.1309 5.25C14.8889 5.61197 14.75 6.04376 14.75 6.5C14.75 7.46699 15.3692 8.32799 16.2891 8.63477L17.0947 8.90332L17.3652 9.71191L17.4287 9.88086C17.7796 10.7068 18.5934 11.25 19.5 11.25C20.467 11.25 21.328 10.6308 21.6348 9.71094L21.75 9.36426V19C21.75 20.5188 20.5188 21.75 19 21.75H4C2.48122 21.75 1.25 20.5188 1.25 19V8C1.25 6.48122 2.48122 5.25 4 5.25H15.1309Z" fill="currentColor" />
</svg>