<svg xmlns="http://www.w3.org/2000/svg" width="24" height="24" viewBox="0 0 24 24" fill="none">
    <path fill-rule="evenodd" clip-rule="evenodd" d="M7.01665 6.25C7.10932 7.04293 7.64244 7.78499 8.62016 7.98535C9.32142 8.12887 9.87028 8.67859 10.0137 9.37988C10.4562 11.5398 13.5419 11.5388 13.9844 9.37891C14.1279 8.67766 14.6777 8.12891 15.379 7.98535C16.3566 7.78505 16.8908 7.04308 16.9834 6.25H18.2637C20.2013 6.25028 21.8195 7.72675 21.9971 9.65625L22.7393 17.7178L22.7403 17.7324C22.8952 19.9028 21.1768 21.7499 19.001 21.75H18.254C16.7211 21.7498 15.3427 20.816 14.7735 19.3926L13.7168 16.75H10.2832L9.22661 19.3926C8.65745 20.816 7.27898 21.7498 5.74614 21.75H4.99907C2.82316 21.75 1.10484 19.9029 1.25981 17.7324C1.26018 17.7273 1.26031 17.7219 1.26079 17.7168L2.00883 9.6543C2.18764 7.72574 3.80544 6.25016 5.74223 6.25H7.01665ZM7.25004 10.75C6.69776 10.75 6.25004 11.1977 6.25004 11.75C6.25004 12.3023 6.69776 12.75 7.25004 12.75C7.8023 12.75 8.25004 12.3023 8.25004 11.75C8.25004 11.1977 7.80231 10.75 7.25004 10.75ZM16.75 10.75C16.1978 10.75 15.75 11.1977 15.75 11.75C15.75 12.3023 16.1978 12.75 16.75 12.75C17.3023 12.75 17.75 12.3023 17.75 11.75C17.75 11.1977 17.3023 10.75 16.75 10.75Z" fill="currentColor" />
    <path d="M12.7177 2.72553C12.4655 2.0915 11.5344 2.09148 11.2822 2.72553L11.2392 2.87103C11.0108 3.98872 10.1773 4.87797 9.09174 5.18549L8.87104 5.2392C8.04302 5.40869 8.04299 6.59118 8.87104 6.76068C10.0632 7.00436 10.9955 7.93664 11.2392 9.12885C11.4087 9.95688 12.5912 9.95688 12.7607 9.12885C13.0044 7.93664 13.9366 7.00436 15.1289 6.76068C15.9569 6.59118 15.9569 5.40869 15.1289 5.2392C14.0112 5.01075 13.1219 4.17732 12.8144 3.09174L12.7607 2.87103L12.7177 2.72553Z" fill="currentColor" />
</svg>