<svg xmlns="http://www.w3.org/2000/svg" width="24" height="24" viewBox="0 0 24 24" fill="none">
    <path d="M15.1309 3.25C14.8889 3.61197 14.75 4.04376 14.75 4.5C14.75 5.46699 15.3692 6.32799 16.2891 6.63477L17.0947 6.90332L17.3652 7.71191L17.4287 7.88086C17.7796 8.7068 18.5934 9.25 19.5 9.25C20.467 9.25 21.328 8.63085 21.6348 7.71094L21.9033 6.90332L22.7119 6.63477C22.7248 6.63046 22.7372 6.62464 22.75 6.62012V18C22.75 19.5188 21.5188 20.75 20 20.75H4C2.48122 20.75 1.25 19.5188 1.25 18V6C1.25 4.48122 2.48122 3.25 4 3.25H15.1309ZM11.123 8.25977C10.7149 8.19223 10.328 8.46888 10.2598 8.87695L9.86426 11.25H7.38574L7.74023 9.12305C7.80789 8.71473 7.53139 8.32782 7.12305 8.25977C6.71492 8.19223 6.328 8.46888 6.25977 8.87695L5.25977 14.877C5.1919 15.2852 5.46878 15.6719 5.87695 15.7402C6.28541 15.8081 6.67216 15.5315 6.74023 15.123L7.13574 12.75H9.61426L9.25977 14.877C9.1919 15.2852 9.46878 15.6719 9.87695 15.7402C10.2854 15.8081 10.6722 15.5315 10.7402 15.123L11.7402 9.12305C11.8079 8.71473 11.5314 8.32782 11.123 8.25977ZM14 8.25C13.6335 8.25016 13.32 8.51542 13.2598 8.87695L12.2598 14.877C12.2237 15.0941 12.2856 15.3163 12.4277 15.4844C12.5702 15.6525 12.7797 15.7499 13 15.75H14.8818C16.4705 15.75 17.8267 14.6013 18.0879 13.0342L18.3516 11.4521C18.6309 9.77594 17.338 8.25 15.6387 8.25H14ZM15.6387 9.75C16.411 9.75 16.9988 10.4433 16.8721 11.2051L16.6084 12.7881C16.4676 13.6317 15.7372 14.25 14.8818 14.25H13.8857L14.6357 9.75H15.6387Z" fill="currentColor" />
    <path d="M19.5 1.25C19.8228 1.25 20.1098 1.45644 20.2119 1.7627L20.7178 3.28125L22.2373 3.78809C22.5436 3.89017 22.75 4.17718 22.75 4.5C22.75 4.82282 22.5436 5.10983 22.2373 5.21191L20.7178 5.71777L20.2119 7.2373C20.1098 7.54356 19.8228 7.75 19.5 7.75C19.1772 7.75 18.8902 7.54356 18.7881 7.2373L18.2812 5.71777L16.7627 5.21191C16.4564 5.10983 16.25 4.82282 16.25 4.5C16.25 4.17718 16.4564 3.89017 16.7627 3.78809L18.2812 3.28125L18.7881 1.7627L18.835 1.65332C18.9625 1.40837 19.2174 1.25 19.5 1.25Z" fill="currentColor" />
</svg>