<svg xmlns="http://www.w3.org/2000/svg" width="24" height="24" viewBox="0 0 24 24" fill="none">
    <path d="M18.5 1.25C18.8228 1.25 19.1098 1.45644 19.2119 1.7627L19.7178 3.28125L21.2373 3.78809C21.5436 3.89017 21.75 4.17718 21.75 4.5C21.75 4.82282 21.5436 5.10983 21.2373 5.21191L19.7178 5.71777L19.2119 7.2373C19.1098 7.54356 18.8228 7.75 18.5 7.75C18.1772 7.75 17.8902 7.54356 17.7881 7.2373L17.2812 5.71777L15.7627 5.21191C15.4564 5.10983 15.25 4.82282 15.25 4.5C15.25 4.17718 15.4564 3.89017 15.7627 3.78809L17.2812 3.28125L17.7881 1.7627L17.835 1.65332C17.9625 1.40837 18.2174 1.25 18.5 1.25Z" fill="currentColor" />
    <path d="M7.06248 5.52447C9.93854 4.85873 12.095 5.47525 13.5976 6.60358C14.9827 7.64367 15.7595 9.07953 16.0586 10.1993L18.4131 12.712C18.4169 12.7161 18.421 12.7205 18.4248 12.7247C18.5376 12.8507 18.6241 12.9981 18.6797 13.1583L18.7246 13.3223L18.748 13.5059C18.7708 13.9329 18.5747 14.3411 18.2314 14.5958L17.1543 15.3936L17.4336 16.7715C17.7273 18.225 16.7382 19.5906 15.2939 19.8614L15.2871 19.8633L13.8027 20.126C13.7014 20.144 13.6218 20.2225 13.6015 20.3233L13.2353 22.1475C13.1651 22.4979 12.8573 22.7501 12.5 22.7501H3.95213C3.66877 22.7501 3.4096 22.5901 3.2822 22.337C3.15489 22.0839 3.18081 21.7803 3.34959 21.5528L3.72361 21.0489C4.46485 20.0495 4.42928 18.7901 3.63084 17.9141C2.71204 16.9063 1.76382 15.6747 1.34177 13.586C1.16798 12.7253 1.17851 11.0634 1.93259 9.43854C2.70681 7.77059 4.25172 6.17514 7.06248 5.52447Z" fill="currentColor" />
</svg>