<svg xmlns="http://www.w3.org/2000/svg" width="24" height="24" viewBox="0 0 24 24" fill="none">
    <path d="M16.2881 2.36523C15.3682 2.67201 14.75 3.53301 14.75 4.5C14.75 5.46699 15.3692 6.32799 16.2891 6.63477L17.0947 6.90332L17.3652 7.71191L17.4287 7.88086C17.7796 8.7068 18.5934 9.25 19.5 9.25C20.467 9.25 21.328 8.63085 21.6348 7.71094L21.75 7.36426V19C21.75 20.5188 20.5188 21.75 19 21.75H5C3.48122 21.75 2.25 20.5188 2.25 19V5C2.25 3.48122 3.48122 2.25 5 2.25H16.6318L16.2881 2.36523ZM8.75 11.002C8.26985 11.002 7.80924 11.1927 7.46973 11.5322L4.2002 14.8008V18.8252C4.2003 19.3635 4.63657 19.7996 5.1748 19.7998H18.8252C19.3636 19.7998 19.7997 19.3636 19.7998 18.8252L19.7656 14.7666L18.5303 13.5322C18.1907 13.1928 17.7301 13.002 17.25 13.002C16.7699 13.002 16.3092 13.1927 15.9697 13.5322L14.707 14.7949C14.3165 15.1853 13.6834 15.1854 13.293 14.7949L10.0303 11.5322C9.69072 11.1928 9.23014 11.002 8.75 11.002Z" fill="currentColor" />
    <path d="M19.5 1.25C19.8228 1.25 20.1098 1.45644 20.2119 1.7627L20.7178 3.28125L22.2373 3.78809C22.5436 3.89017 22.75 4.17718 22.75 4.5C22.75 4.82282 22.5436 5.10983 22.2373 5.21191L20.7178 5.71777L20.2119 7.2373C20.1098 7.54356 19.8228 7.75 19.5 7.75C19.1772 7.75 18.8902 7.54356 18.7881 7.2373L18.2812 5.71777L16.7627 5.21191C16.4564 5.10983 16.25 4.82282 16.25 4.5C16.25 4.17718 16.4564 3.89017 16.7627 3.78809L18.2812 3.28125L18.7881 1.7627L18.835 1.65332C18.9625 1.40837 19.2174 1.25 19.5 1.25Z" fill="currentColor" />
</svg>