<svg xmlns="http://www.w3.org/2000/svg" width="24" height="24" viewBox="0 0 24 24" fill="none">
    <path d="M19 2.25C20.5188 2.25 21.75 3.48122 21.75 5V11.0117C21.3644 10.8419 20.9449 10.7501 20.5156 10.75H20.4619C19.6491 10.75 18.8681 11.0733 18.293 11.6484L14.2197 15.7217L10.0303 11.5322C9.69072 11.1928 9.23014 11.002 8.75 11.002C8.26985 11.002 7.80924 11.1927 7.46973 11.5322L4.2002 14.8008V18.8252C4.2003 19.3635 4.63657 19.7996 5.1748 19.7998H11.75V21.0791C11.7501 21.3134 11.7887 21.5386 11.8574 21.75H5C3.48122 21.75 2.25 20.5188 2.25 19V7.36719L2.36523 7.71191L2.42871 7.88086C2.77961 8.7068 3.59342 9.25 4.5 9.25C5.46699 9.25 6.32799 8.63183 6.63477 7.71191L6.90332 6.90332L7.71094 6.63477C8.63085 6.32799 9.25 5.46699 9.25 4.5C9.25 3.59342 8.7068 2.77961 7.88086 2.42871L7.71191 2.36523L7.36719 2.25H19ZM16.5 6.25C15.8096 6.25 15.25 6.80964 15.25 7.5C15.25 8.19036 15.8096 8.75 16.5 8.75C17.1904 8.75 17.75 8.19036 17.75 7.5C17.75 6.80964 17.1904 6.25 16.5 6.25Z" fill="currentColor" />
    <path d="M4.5 1.25C4.82282 1.25 5.10983 1.45644 5.21191 1.7627L5.71777 3.28125L7.2373 3.78809C7.54356 3.89017 7.75 4.17718 7.75 4.5C7.75 4.82282 7.54356 5.10983 7.2373 5.21191L5.71777 5.71777L5.21191 7.2373C5.10983 7.54356 4.82282 7.75 4.5 7.75C4.17718 7.75 3.89017 7.54356 3.78809 7.2373L3.28125 5.71777L1.7627 5.21191C1.45644 5.10983 1.25 4.82282 1.25 4.5C1.25 4.17718 1.45644 3.89017 1.7627 3.78809L3.28125 3.28125L3.78809 1.7627L3.83496 1.65332C3.96255 1.40837 4.21737 1.25 4.5 1.25Z" fill="currentColor" />
    <path d="M20.1885 17.749L16.6465 21.291C16.3528 21.5847 15.9534 21.75 15.5381 21.75H13.9209C13.5504 21.7499 13.2501 21.4496 13.25 21.0791V19.4619C13.25 19.0466 13.4153 18.6472 13.709 18.3535L17.251 14.8115L20.1885 17.749Z" fill="currentColor" />
    <path d="M20.5156 12.25C20.9307 12.2501 21.3295 12.4154 21.623 12.709L22.291 13.377C22.5846 13.6705 22.7499 14.0693 22.75 14.4844V14.5381C22.75 14.9534 22.5847 15.3528 22.291 15.6465L21.249 16.6885L18.3115 13.751L19.3535 12.709C19.6472 12.4153 20.0466 12.25 20.4619 12.25H20.5156Z" fill="currentColor" />
</svg>