<svg xmlns="http://www.w3.org/2000/svg" width="24" height="24" viewBox="0 0 24 24" fill="none">
    <path d="M17.7178 1.72559C17.4656 1.09156 16.5345 1.09154 16.2823 1.72559L16.2393 1.87109C16.0109 2.98878 15.1774 3.87803 14.0919 4.18555L13.8711 4.23926C13.0431 4.40875 13.0431 5.59124 13.8711 5.76074C15.0634 6.00442 15.9956 6.9367 16.2393 8.12891C16.4088 8.95694 17.5913 8.95694 17.7608 8.12891C18.0045 6.9367 18.9368 6.00442 20.129 5.76074C20.957 5.59124 20.957 4.40876 20.129 4.23926C19.0113 4.01081 18.122 3.17738 17.8145 2.0918L17.7608 1.87109L17.7178 1.72559Z" fill="currentColor" />
    <path d="M15.1417 1.25C14.9916 1.90112 14.381 2.79851 13.7608 2.97852L13.5743 3.02539C11.4599 3.50147 11.4756 6.54578 13.6202 6.98535C14.3214 7.12883 14.8702 7.67865 15.0137 8.37988C15.4079 10.3038 17.8976 10.5124 18.7501 9.00879V20C18.7501 21.5188 17.5188 22.75 16.0001 22.75H6.00006C4.48128 22.75 3.25006 21.5188 3.25006 20V4C3.25006 2.48122 4.48128 1.25 6.00006 1.25H15.1417ZM11.0001 18C10.4478 18 10.0001 18.4477 10.0001 19C10.0001 19.5523 10.4478 20 11.0001 20C11.5523 20 12.0001 19.5523 12.0001 19C12.0001 18.4477 11.5523 18 11.0001 18Z" fill="currentColor" />
</svg>