<svg xmlns="http://www.w3.org/2000/svg" width="24" height="24" viewBox="0 0 24 24" fill="none">
    <path d="M19 1.75C19.3228 1.75 19.6098 1.95644 19.7119 2.2627L20.2178 3.78125L21.7373 4.28809C22.0436 4.39017 22.25 4.67718 22.25 5C22.25 5.32282 22.0436 5.60983 21.7373 5.71191L20.2178 6.21777L19.7119 7.7373C19.6098 8.04356 19.3228 8.25 19 8.25C18.6772 8.25 18.3902 8.04356 18.2881 7.7373L17.7812 6.21777L16.2627 5.71191C15.9564 5.60983 15.75 5.32282 15.75 5C15.75 4.67718 15.9564 4.39017 16.2627 4.28809L17.7812 3.78125L18.2881 2.2627L18.335 2.15332C18.4625 1.90837 18.7174 1.75 19 1.75Z" fill="currentColor" />
    <path d="M17 13.5C17.5523 13.5 18 13.9477 18 14.5C18 15.0523 17.5523 15.5 17 15.5H7C6.44772 15.5 6 15.0523 6 14.5C6 13.9477 6.44772 13.5 7 13.5H17Z" fill="currentColor" />
    <path d="M13 8.5C13.5523 8.5 14 8.94772 14 9.5C14 10.0523 13.5523 10.5 13 10.5H7C6.44772 10.5 6 10.0523 6 9.5C6 8.94772 6.44772 8.5 7 8.5H13Z" fill="currentColor" />
    <path d="M1.75 19.25V16.25C1.75 15.6977 2.19772 15.25 2.75 15.25C3.30228 15.25 3.75 15.6977 3.75 16.25V19.25C3.75 19.8023 4.19772 20.25 4.75 20.25H7.75C8.30228 20.25 8.75 20.6977 8.75 21.25C8.75 21.8023 8.30228 22.25 7.75 22.25H4.75C3.09315 22.25 1.75 20.9069 1.75 19.25ZM20.25 19.25V16.25C20.25 15.6977 20.6977 15.25 21.25 15.25C21.8023 15.25 22.25 15.6977 22.25 16.25V19.25C22.25 20.9069 20.9069 22.25 19.25 22.25H16.25C15.6977 22.25 15.25 21.8023 15.25 21.25C15.25 20.6977 15.6977 20.25 16.25 20.25H19.25C19.8023 20.25 20.25 19.8023 20.25 19.25ZM1.75 7.75V4.75C1.75 3.09315 3.09315 1.75 4.75 1.75H7.75C8.30228 1.75 8.75 2.19772 8.75 2.75C8.75 3.30228 8.30228 3.75 7.75 3.75H4.75C4.19772 3.75 3.75 4.19772 3.75 4.75V7.75C3.75 8.30228 3.30228 8.75 2.75 8.75C2.19772 8.75 1.75 8.30228 1.75 7.75Z" fill="currentColor" />
</svg>