<svg xmlns="http://www.w3.org/2000/svg" width="24" height="24" viewBox="0 0 24 24" fill="none">
    <path d="M18.5 1.25C18.8228 1.25 19.1098 1.45644 19.2119 1.7627L19.7178 3.28125L21.2373 3.78809C21.5436 3.89017 21.75 4.17718 21.75 4.5C21.75 4.82282 21.5436 5.10983 21.2373 5.21191L19.7178 5.71777L19.2119 7.2373C19.1098 7.54356 18.8228 7.75 18.5 7.75C18.1772 7.75 17.8902 7.54356 17.7881 7.2373L17.2812 5.71777L15.7627 5.21191C15.4564 5.10983 15.25 4.82282 15.25 4.5C15.25 4.17718 15.4564 3.89017 15.7627 3.78809L17.2812 3.28125L17.7881 1.7627L17.835 1.65332C17.9625 1.40837 18.2174 1.25 18.5 1.25Z" fill="currentColor" />
    <path fill-rule="evenodd" clip-rule="evenodd" d="M15.2881 2.36523C14.3682 2.67201 13.75 3.53301 13.75 4.5C13.75 5.46699 14.3682 6.32799 15.2881 6.63477L16.0947 6.90332L16.3652 7.71191L16.4287 7.88086C16.7796 8.7068 17.5934 9.25 18.5 9.25C18.5843 9.25 18.6676 9.24356 18.75 9.23438V19C18.75 20.5188 17.5188 21.75 16 21.75H5C3.48122 21.75 2.25 20.5188 2.25 19V5C2.25 3.48122 3.48122 2.25 5 2.25H15.6318L15.2881 2.36523ZM7 16C6.44772 16 6 16.4477 6 17C6 17.5523 6.44772 18 7 18H14C14.5523 18 15 17.5523 15 17C15 16.4477 14.5523 16 14 16H7ZM7 12C6.44772 12 6 12.4477 6 13C6 13.5523 6.44772 14 7 14H11C11.5523 14 12 13.5523 12 13C12 12.4477 11.5523 12 11 12H7Z" fill="currentColor" />
</svg>