<svg xmlns="http://www.w3.org/2000/svg" width="24" height="24" viewBox="0 0 24 24" fill="none">
    <path d="M16.5 15.25C16.8228 15.25 17.1098 15.4564 17.2119 15.7627L17.5205 16.6895C17.645 17.0624 17.9376 17.355 18.3105 17.4795L19.2373 17.7881C19.5436 17.8902 19.75 18.1772 19.75 18.5C19.75 18.8228 19.5436 19.1098 19.2373 19.2119L18.3105 19.5205C17.9376 19.645 17.645 19.9376 17.5205 20.3105L17.2119 21.2373C17.1098 21.5436 16.8228 21.75 16.5 21.75C16.1772 21.75 15.8902 21.5436 15.7881 21.2373L15.4795 20.3105C15.355 19.9376 15.0624 19.645 14.6895 19.5205L13.7627 19.2119C13.4564 19.1098 13.25 18.8228 13.25 18.5C13.25 18.1772 13.4564 17.8902 13.7627 17.7881L14.6895 17.4795C15.0624 17.355 15.355 17.0624 15.4795 16.6895L15.7881 15.7627L15.835 15.6533C15.9625 15.4084 16.2174 15.25 16.5 15.25Z" fill="currentColor" />
    <path d="M16.5 2.25C16.8228 2.25 17.1098 2.45644 17.2119 2.7627L17.5205 3.68945C17.645 4.06243 17.9376 4.35505 18.3105 4.47949L19.2373 4.78809C19.5436 4.89017 19.75 5.17718 19.75 5.5C19.75 5.82282 19.5436 6.10983 19.2373 6.21191L18.3105 6.52051C17.9376 6.64495 17.645 6.93757 17.5205 7.31055L17.2119 8.2373C17.1098 8.54356 16.8228 8.75 16.5 8.75C16.1772 8.75 15.8902 8.54356 15.7881 8.2373L15.4795 7.31055C15.355 6.93757 15.0624 6.64495 14.6895 6.52051L13.7627 6.21191C13.4564 6.10983 13.25 5.82282 13.25 5.5C13.25 5.17718 13.4564 4.89017 13.7627 4.78809L14.6895 4.47949C15.0624 4.35505 15.355 4.06243 15.4795 3.68945L15.7881 2.7627L15.835 2.65332C15.9625 2.40837 16.2174 2.25 16.5 2.25Z" fill="currentColor" />
    <path d="M8.5 5.75C8.82282 5.75 9.10983 5.95644 9.21191 6.2627L10.1123 8.96484C10.3363 9.63664 10.8634 10.1637 11.5352 10.3877L14.2373 11.2881C14.5436 11.3902 14.75 11.6772 14.75 12C14.75 12.3228 14.5436 12.6098 14.2373 12.7119L11.5352 13.6123C10.8634 13.8363 10.3363 14.3634 10.1123 15.0352L9.21191 17.7373C9.10983 18.0436 8.82282 18.25 8.5 18.25C8.17718 18.25 7.89017 18.0436 7.78809 17.7373L6.8877 15.0352C6.66374 14.3634 6.13664 13.8363 5.46484 13.6123L2.7627 12.7119C2.45644 12.6098 2.25 12.3228 2.25 12C2.25 11.6772 2.45644 11.3902 2.7627 11.2881L5.46484 10.3877C6.13664 10.1637 6.66374 9.63664 6.8877 8.96484L7.78809 6.2627L7.83496 6.15332C7.96255 5.90837 8.21737 5.75 8.5 5.75Z" fill="currentColor" />
</svg>