<svg xmlns="http://www.w3.org/2000/svg" width="24" height="24" viewBox="0 0 24 24" fill="none">
    <path d="M18 1.25C18.9665 1.25 19.75 2.0335 19.75 3V6C19.75 6.9665 18.9665 7.75 18 7.75C17.0335 7.75 16.25 6.9665 16.25 6V3C16.25 2.0335 17.0335 1.25 18 1.25Z" fill="currentColor" />
    <path d="M17.0501 11.8215V10.7996C15.2609 10.4511 13.7368 9.14466 13.2801 7.41015C13.1495 6.91362 13.4558 6.40723 13.9638 6.27943C14.4718 6.15179 14.9898 6.45118 15.1206 6.94771C15.4284 8.11621 16.6383 9.03595 18 9.03595C19.3617 9.03593 20.5716 8.11617 20.8794 6.94771C21.0102 6.45118 21.5282 6.15179 22.0362 6.27943C22.5442 6.40723 22.8505 6.91362 22.7199 7.41015C22.2632 9.14465 20.7391 10.4511 18.9499 10.7996V11.8215C18.9499 12.3343 18.5246 12.75 18 12.75C17.4754 12.75 17.0501 12.3343 17.0501 11.8215Z" fill="currentColor" />
    <path d="M14.8379 2.25C14.781 2.4908 14.75 2.74182 14.75 3V4.81348C14.3798 4.72877 13.9859 4.72698 13.5986 4.82422C12.3099 5.14863 11.4789 6.4602 11.8291 7.79199L11.8916 8.01074C12.4478 9.83006 13.8551 11.221 15.5537 11.9102C15.6011 13.2398 16.7081 14.2498 18 14.25C18.26 14.25 18.5122 14.2071 18.75 14.1309V19C18.75 20.5188 17.5188 21.75 16 21.75H5C3.48122 21.75 2.25 20.5188 2.25 19V5C2.25 3.48122 3.48122 2.25 5 2.25H14.8379ZM7 16C6.44772 16 6 16.4477 6 17C6 17.5523 6.44772 18 7 18H14C14.5523 18 15 17.5523 15 17C15 16.4477 14.5523 16 14 16H7ZM7 12C6.44772 12 6 12.4477 6 13C6 13.5523 6.44772 14 7 14H11C11.5523 14 12 13.5523 12 13C12 12.4477 11.5523 12 11 12H7Z" fill="currentColor" />
</svg>