<svg xmlns="http://www.w3.org/2000/svg" width="24" height="24" viewBox="0 0 24 24" fill="none">
    <path d="M4.5 2.25C4.82282 2.25 5.10983 2.45644 5.21191 2.7627L5.71777 4.28125L7.2373 4.78809C7.54356 4.89017 7.75 5.17718 7.75 5.5C7.75 5.82282 7.54356 6.10983 7.2373 6.21191L5.71777 6.71777L5.21191 8.2373C5.10983 8.54356 4.82282 8.75 4.5 8.75C4.17718 8.75 3.89017 8.54356 3.78809 8.2373L3.28125 6.71777L1.7627 6.21191C1.45644 6.10983 1.25 5.82282 1.25 5.5C1.25 5.17718 1.45644 4.89017 1.7627 4.78809L3.28125 4.28125L3.78809 2.7627L3.83496 2.65332C3.96255 2.40837 4.21737 2.25 4.5 2.25Z" fill="currentColor" />
    <path d="M14.5 4.25C16.0188 4.25 17.25 5.48122 17.25 7V9.09863L20.3906 7.00488C20.6399 6.83869 20.9328 6.75 21.2324 6.75C22.0706 6.75001 22.75 7.42945 22.75 8.26758V17.7324C22.75 18.5706 22.0706 19.25 21.2324 19.25C20.9328 19.25 20.6399 19.1613 20.3906 18.9951L17.25 16.9014V19C17.25 20.5188 16.0188 21.75 14.5 21.75H4C2.48122 21.75 1.25 20.5188 1.25 19V7.61914C1.26319 7.62381 1.27575 7.63033 1.28906 7.63477L2.09473 7.90332L2.36523 8.71191L2.42871 8.88086C2.77961 9.7068 3.59342 10.25 4.5 10.25C5.46699 10.25 6.32799 9.63085 6.63477 8.71094L6.90332 7.90332L7.71191 7.63477C8.63183 7.32799 9.25 6.46699 9.25 5.5C9.25 5.04419 9.11262 4.61187 8.87109 4.25H14.5Z" fill="currentColor" />
</svg>