<svg xmlns="http://www.w3.org/2000/svg" width="24" height="24" viewBox="0 0 24 24" fill="none">
    <path fill-rule="evenodd" clip-rule="evenodd" d="M6.25 9C6.25 10.5188 7.48122 11.75 9 11.75H15C16.5188 11.75 17.75 10.5188 17.75 9V7.75H21.75V19C21.75 20.5188 20.5188 21.75 19 21.75H5C3.48122 21.75 2.25 20.5188 2.25 19V7.75H6.25V9ZM12 13C11.4477 13 11 13.4477 11 14C11 14.5523 11.4477 15 12 15C12.5523 15 13 14.5523 13 14C13 13.4477 12.5523 13 12 13Z" fill="currentColor" />
    <path d="M16.25 9C16.25 9.69036 15.6904 10.25 15 10.25H9C8.30964 10.25 7.75 9.69036 7.75 9V7.75H16.25V9Z" fill="currentColor" />
    <path d="M19 2.25C20.5188 2.25 21.75 3.48122 21.75 5V6.25H2.25V5C2.25 3.48122 3.48122 2.25 5 2.25H19Z" fill="currentColor" />
</svg>