<svg xmlns="http://www.w3.org/2000/svg" width="24" height="24" viewBox="0 0 24 24" fill="none">
    <path d="M4.29302 2.29131C4.68354 1.90078 5.31655 1.90078 5.70708 2.29131C6.0976 2.68183 6.0976 3.31484 5.70708 3.70537L2.70708 6.70537C2.31655 7.09589 1.68354 7.09589 1.29302 6.70537C0.902491 6.31484 0.902491 5.68183 1.29302 5.29131L4.29302 2.29131Z" fill="currentColor" />
    <path d="M18.293 2.29131C18.6835 1.90078 19.3166 1.90078 19.7071 2.29131L22.7071 5.29131C23.0976 5.68183 23.0976 6.31484 22.7071 6.70537C22.3166 7.09589 21.6835 7.09589 21.293 6.70537L18.293 3.70537C17.9025 3.31484 17.9025 2.68183 18.293 2.29131Z" fill="currentColor" />
    <path fill-rule="evenodd" clip-rule="evenodd" d="M19.1993 18.3069C20.482 16.7191 21.2501 14.6984 21.2501 12.4983C21.2501 7.38966 17.1087 3.24829 12.0001 3.24829C6.89143 3.24829 2.75007 7.38966 2.75007 12.4983C2.75007 14.7107 3.52679 16.7417 4.82243 18.3335L2.80475 20.2825C2.40788 20.6663 2.39761 21.2995 2.78132 21.6965C3.16513 22.0934 3.79833 22.1046 4.19538 21.7209L6.24445 19.74C7.82408 20.9971 9.82435 21.7483 12.0001 21.7483C14.1881 21.7483 16.1988 20.9886 17.7825 19.7185L19.7973 21.7083C20.1903 22.0962 20.8234 22.0915 21.2114 21.6985C21.5994 21.3055 21.5956 20.6724 21.2026 20.2844L19.1993 18.3069ZM14.293 9.79126C14.6836 9.40073 15.3166 9.40073 15.7071 9.79126C16.0976 10.1818 16.0976 10.8148 15.7071 11.2053L11.7071 15.2053C11.5196 15.3929 11.2653 15.4983 11.0001 15.4983C10.7348 15.4983 10.4806 15.3929 10.293 15.2053L8.29304 13.2053C7.90251 12.8148 7.90251 12.1818 8.29304 11.7913C8.68356 11.4007 9.31657 11.4007 9.7071 11.7913L11.0001 13.0842L14.293 9.79126Z" fill="currentColor" />
</svg>