<svg xmlns="http://www.w3.org/2000/svg" width="24" height="24" viewBox="0 0 24 24" fill="none">
    <path d="M4.29295 2.29131C4.68348 1.90078 5.31649 1.90078 5.70702 2.29131C6.09754 2.68183 6.09754 3.31484 5.70702 3.70537L2.70702 6.70537C2.31649 7.09589 1.68348 7.09589 1.29295 6.70537C0.90243 6.31484 0.90243 5.68183 1.29295 5.29131L4.29295 2.29131Z" fill="currentColor" />
    <path d="M18.293 2.29131C18.6835 1.90078 19.3165 1.90078 19.707 2.29131L22.707 5.29131C23.0975 5.68183 23.0975 6.31484 22.707 6.70537C22.3165 7.09589 21.6835 7.09589 21.293 6.70537L18.293 3.70537C17.9024 3.31484 17.9024 2.68183 18.293 2.29131Z" fill="currentColor" />
    <path fill-rule="evenodd" clip-rule="evenodd" d="M19.1992 18.3069C20.4819 16.7191 21.25 14.6984 21.25 12.4983C21.25 7.38966 17.1086 3.24829 12 3.24829C6.89137 3.24829 2.75001 7.38966 2.75001 12.4983C2.75001 14.7107 3.52673 16.7417 4.82237 18.3335L2.80469 20.2825C2.40782 20.6663 2.39755 21.2995 2.78126 21.6965C3.16507 22.0934 3.79827 22.1046 4.19532 21.7209L6.24439 19.74C7.82402 20.9971 9.82429 21.7483 12 21.7483C14.1881 21.7483 16.1987 20.9886 17.7825 19.7185L19.7972 21.7083C20.1903 22.0962 20.8233 22.0915 21.2113 21.6985C21.5993 21.3055 21.5955 20.6724 21.2025 20.2844L19.1992 18.3069ZM11.0001 15.9983V13.4934H8.50501C7.95276 13.4934 7.50507 13.0456 7.50501 12.4934C7.50501 11.9411 7.95272 11.4934 8.50501 11.4934H11.0001V8.99829C11.0001 8.44601 11.4478 7.99829 12.0001 7.99829C12.5524 7.99835 13.0001 8.44605 13.0001 8.99829V11.4934H15.505C16.0573 11.4934 16.505 11.9411 16.505 12.4934C16.5049 13.0456 16.0573 13.4934 15.505 13.4934H13.0001V15.9983C13.0001 16.5505 12.5524 16.9982 12.0001 16.9983C11.4478 16.9983 11.0001 16.5506 11.0001 15.9983Z" fill="currentColor" />
</svg>