<svg xmlns="http://www.w3.org/2000/svg" width="24" height="24" viewBox="0 0 24 24" fill="none">
    <path d="M4.29295 2.29131C4.68348 1.90078 5.31649 1.90078 5.70702 2.29131C6.09754 2.68183 6.09754 3.31484 5.70702 3.70537L2.70702 6.70537C2.31649 7.09589 1.68348 7.09589 1.29295 6.70537C0.90243 6.31484 0.90243 5.68183 1.29295 5.29131L4.29295 2.29131Z" fill="currentColor" />
    <path d="M18.293 2.29131C18.6835 1.90078 19.3165 1.90078 19.707 2.29131L22.707 5.29131C23.0975 5.68183 23.0975 6.31484 22.707 6.70537C22.3165 7.09589 21.6835 7.09589 21.293 6.70537L18.293 3.70537C17.9024 3.31484 17.9024 2.68183 18.293 2.29131Z" fill="currentColor" />
    <path fill-rule="evenodd" clip-rule="evenodd" d="M21.25 12.4983C21.25 14.6984 20.4819 16.7191 19.1992 18.3069L21.2025 20.2844C21.5955 20.6724 21.5993 21.3055 21.2113 21.6985C20.8233 22.0915 20.1903 22.0962 19.7972 21.7083L17.7825 19.7185C16.1987 20.9886 14.1881 21.7483 12 21.7483C9.82429 21.7483 7.82402 20.9971 6.24439 19.74L4.19532 21.7209C3.79827 22.1046 3.16507 22.0934 2.78126 21.6965C2.39755 21.2995 2.40782 20.6663 2.80469 20.2825L4.82237 18.3335C3.52673 16.7417 2.75001 14.7107 2.75001 12.4983C2.75001 7.38966 6.89137 3.24829 12 3.24829C17.1086 3.24829 21.25 7.38966 21.25 12.4983ZM15.505 11.4933C16.0573 11.4933 16.505 11.941 16.505 12.4933C16.505 13.0456 16.0573 13.4933 15.505 13.4933H8.50501C7.95272 13.4933 7.50501 13.0456 7.50501 12.4933C7.50501 11.941 7.95272 11.4933 8.50501 11.4933H15.505Z" fill="currentColor" />
</svg>