<svg xmlns="http://www.w3.org/2000/svg" width="24" height="24" viewBox="0 0 24 24" fill="none">
    <path d="M1.29305 1.29302C1.68357 0.902491 2.31658 0.902491 2.70711 1.29302L22.7071 21.293C23.0976 21.6835 23.0976 22.3166 22.7071 22.7071C22.3166 23.0976 21.6836 23.0976 21.293 22.7071L1.29305 2.70708C0.902522 2.31655 0.902522 1.68354 1.29305 1.29302Z" fill="currentColor" />
    <path d="M13.0001 5.75006C13.6904 5.75006 14.2501 6.30971 14.2501 7.00006C14.2501 7.69042 13.6904 8.25006 13.0001 8.25006C12.3097 8.25006 11.7501 7.69042 11.7501 7.00006C11.7501 6.30971 12.3097 5.75006 13.0001 5.75006Z" fill="currentColor" />
    <path d="M3.48056 3.48053C3.30451 3.65658 3.1954 3.89956 3.1954 4.16803V10.2667C3.42139 10.2572 3.64769 10.2515 3.87411 10.252L3.87314 10.253C6.6605 10.2042 9.39413 10.9632 11.587 12.4171C13.3071 13.5575 14.6155 15.0768 15.3624 16.8067H15.8341C16.1025 16.8067 16.3455 16.6976 16.5216 16.5215L17.8956 17.8956C17.3677 18.4235 16.6385 18.7501 15.8331 18.7501H4.16708C2.55625 18.7501 1.25009 17.4439 1.25009 15.8331V4.16705C1.25009 3.36164 1.57669 2.63245 2.10458 2.10455L3.48056 3.48053Z" fill="currentColor" />
    <path d="M15.8331 1.25006C17.4439 1.25006 18.7501 2.55622 18.7501 4.16705V15.2149L16.8067 13.2715V4.16803C16.8067 3.63109 16.371 3.19537 15.8341 3.19537H6.73056L4.78525 1.25006H15.8331Z" fill="currentColor" />
    <path d="M21.8946 21.8946C21.3667 22.4225 20.6375 22.7491 19.8321 22.7491H8.16611C6.61122 22.7491 5.34038 21.5324 5.254 19.9991H15.8321C16.9827 19.9991 18.0243 19.5325 18.7784 18.7784L21.8946 21.8946Z" fill="currentColor" />
    <path d="M19.9991 5.25397C21.5324 5.34035 22.7491 6.61119 22.7491 8.16608V19.2139L19.9561 16.421C19.9834 16.2285 19.9991 16.0321 19.9991 15.8321V5.25397Z" fill="currentColor" />
</svg>