<svg xmlns="http://www.w3.org/2000/svg" width="24" height="24" viewBox="0 0 24 24" fill="none">
    <path d="M2.25098 15.5L21.7501 15.5C22.3024 15.5 22.7501 15.9477 22.7501 16.5C22.7501 17.0523 22.3024 17.5 21.7501 17.5L2.25098 17.5C1.6987 17.5 1.25098 17.0523 1.25098 16.5C1.25098 15.9477 1.6987 15.5 2.25098 15.5Z" fill="currentColor" />
    <path d="M2.25012 6.5L21.7501 6.5C22.3024 6.5 22.7501 6.94772 22.7501 7.5C22.7501 8.05229 22.3024 8.5 21.7501 8.5L2.25012 8.5C1.69784 8.5 1.25012 8.05228 1.25012 7.5C1.25012 6.94772 1.69784 6.5 2.25012 6.5Z" fill="currentColor" />
    <path d="M17.4987 19.75C18.7413 19.75 19.7487 18.7426 19.7487 17.5V15.5C19.7487 14.2574 18.7413 13.25 17.4987 13.25H6.5036C5.26179 13.25 4.25477 14.2562 4.2536 15.498L4.25165 17.498C4.25057 18.7414 5.25824 19.75 6.50165 19.75H17.4987Z" fill="currentColor" />
    <path d="M14.4987 10.75C15.7413 10.75 16.7487 9.74263 16.7487 8.5V6.5C16.7487 5.25737 15.7413 4.25002 14.4987 4.25H9.5036C8.26179 4.25 7.25477 5.25623 7.2536 6.49805L7.25165 8.49805C7.25057 9.74144 8.25824 10.75 9.50165 10.75H14.4987Z" fill="currentColor" />
</svg>