<svg xmlns="http://www.w3.org/2000/svg" width="24" height="24" viewBox="0 0 24 24" fill="none">
    <path d="M8.50208 19.7451C9.74389 19.744 10.7501 18.7369 10.7501 17.4951V6.5C10.7501 5.25736 9.74276 4.25 8.50012 4.25H6.50012C5.25748 4.25 4.25012 5.25736 4.25012 6.5V17.4971C4.25014 18.7405 5.2587 19.7482 6.50208 19.7471L8.50208 19.7451Z" fill="currentColor" />
    <path d="M17.5021 16.7451C18.7439 16.744 19.7501 15.7369 19.7501 14.4951V9.5C19.7501 8.25736 18.7428 7.25 17.5001 7.25H15.5001C14.2575 7.25 13.2501 8.25736 13.2501 9.5V14.4971C13.2501 15.7405 14.2587 16.7482 15.5021 16.7471L17.5021 16.7451Z" fill="currentColor" />
    <path d="M4.25012 21.75V2.25C4.25012 1.69772 4.69784 1.25 5.25012 1.25C5.80241 1.25 6.25012 1.69772 6.25012 2.25V21.75C6.25012 22.3023 5.80241 22.75 5.25012 22.75C4.69784 22.75 4.25012 22.3023 4.25012 21.75Z" fill="currentColor" />
    <path d="M13.2501 21.7472V2.24805C13.2501 1.69576 13.6978 1.24805 14.2501 1.24805C14.8024 1.24805 15.2501 1.69576 15.2501 2.24805V21.7472C15.2501 22.2995 14.8024 22.7472 14.2501 22.7472C13.6978 22.7472 13.2501 22.2995 13.2501 21.7472Z" fill="currentColor" />
</svg>