<svg xmlns="http://www.w3.org/2000/svg" width="24" height="24" viewBox="0 0 24 24" fill="none">
    <path d="M8.50208 19.7461C9.74389 19.7449 10.7501 18.7379 10.7501 17.4961V6.50098C10.7501 5.25834 9.74276 4.25098 8.50012 4.25098H6.50012C5.25748 4.25098 4.25012 5.25833 4.25012 6.50098V17.498C4.25014 18.7414 5.2587 19.7491 6.50208 19.748L8.50208 19.7461Z" fill="currentColor" />
    <path d="M17.5021 16.7461C18.7439 16.7449 19.7501 15.7379 19.7501 14.4961V9.50098C19.7501 8.25834 18.7428 7.25098 17.5001 7.25098H15.5001C14.2575 7.25098 13.2501 8.25833 13.2501 9.50098V14.498C13.2501 15.7414 14.2587 16.7491 15.5021 16.748L17.5021 16.7461Z" fill="currentColor" />
    <path d="M4.25012 21.751V2.25098C4.25012 1.69869 4.69784 1.25098 5.25012 1.25098C5.80241 1.25098 6.25012 1.69869 6.25012 2.25098V21.751C6.25012 22.3033 5.80241 22.751 5.25012 22.751C4.69784 22.751 4.25012 22.3033 4.25012 21.751Z" fill="currentColor" />
    <path d="M17.7501 21.7482V2.24902C17.7501 1.69674 18.1978 1.24902 18.7501 1.24902C19.3024 1.24902 19.7501 1.69674 19.7501 2.24902V21.7482C19.7501 22.3004 19.3024 22.7482 18.7501 22.7482C18.1978 22.7482 17.7501 22.3004 17.7501 21.7482Z" fill="currentColor" />
</svg>