<svg xmlns="http://www.w3.org/2000/svg" width="24" height="24" viewBox="0 0 24 24" fill="none">
    <path d="M21 19.875C21.5523 19.875 22 20.3227 22 20.875C22 21.4273 21.5523 21.875 21 21.875H3C2.44772 21.875 2 21.4273 2 20.875C2 20.3227 2.44772 19.875 3 19.875H21Z" fill="currentColor" />
    <path d="M16.75 5.875C16.75 7.39378 15.5188 8.625 14 8.625H10C8.48122 8.625 7.25 7.39378 7.25 5.875V4.875C7.25 3.35622 8.48122 2.125 10 2.125H14C15.5188 2.125 16.75 3.35622 16.75 4.875V5.875Z" fill="currentColor" />
    <path d="M18.75 14.875C18.75 16.3938 17.5188 17.625 16 17.625H8C6.48122 17.625 5.25 16.3938 5.25 14.875V13.875C5.25 12.3562 6.48122 11.125 8 11.125H16C17.5188 11.125 18.75 12.3562 18.75 13.875V14.875Z" fill="currentColor" />
</svg>