<svg xmlns="http://www.w3.org/2000/svg" width="24" height="24" viewBox="0 0 24 24" fill="none">
    <path d="M11 21V3C11 2.44772 11.4477 2 12 2C12.5523 2 13 2.44772 13 3V21C13 21.5523 12.5523 22 12 22C11.4477 22 11 21.5523 11 21Z" fill="currentColor" />
    <path d="M21.75 14C21.75 15.5188 20.5188 16.75 19 16.75H18C16.4812 16.75 15.25 15.5188 15.25 14V10C15.25 8.48122 16.4812 7.25 18 7.25H19C20.5188 7.25 21.75 8.48122 21.75 10V14Z" fill="currentColor" />
    <path d="M8.75 16C8.75 17.5188 7.51878 18.75 6 18.75H5C3.48122 18.75 2.25 17.5188 2.25 16V8C2.25 6.48122 3.48122 5.25 5 5.25H6C7.51878 5.25 8.75 6.48122 8.75 8V16Z" fill="currentColor" />
</svg>