<svg xmlns="http://www.w3.org/2000/svg" width="24" height="24" viewBox="0 0 24 24" fill="none">
    <path d="M15.4982 19.748C16.7415 19.7491 17.7501 18.7414 17.7501 17.498V6.50098C17.7501 5.25833 16.7428 4.25098 15.5001 4.25098H13.5001C12.2575 4.25098 11.2501 5.25834 11.2501 6.50098V17.4961C11.2501 18.7379 12.2564 19.7449 13.4982 19.7461L15.4982 19.748Z" fill="currentColor" />
    <path d="M6.49817 16.748C7.74155 16.7491 8.7501 15.7414 8.75012 14.498V9.50098C8.75012 8.25833 7.74276 7.25098 6.50012 7.25098H4.50012C3.25748 7.25098 2.25012 8.25834 2.25012 9.50098V14.4961C2.25012 15.7379 3.25635 16.7449 4.49817 16.7461L6.49817 16.748Z" fill="currentColor" />
    <path d="M19.7501 21.7491V2.25C19.7501 1.69772 20.1978 1.25 20.7501 1.25C21.3024 1.25 21.7501 1.69772 21.7501 2.25V21.7491C21.7501 22.3014 21.3024 22.7491 20.7501 22.7491C20.1978 22.7491 19.7501 22.3014 19.7501 21.7491Z" fill="currentColor" />
</svg>