<svg xmlns="http://www.w3.org/2000/svg" width="24" height="24" viewBox="0 0 24 24" fill="none">
    <path d="M17.5002 19.75C18.7429 19.75 19.7502 18.7426 19.7502 17.5V15.5C19.7502 14.2574 18.7429 13.25 17.5002 13.25H6.50317C5.25976 13.25 4.25209 14.2586 4.25317 15.502L4.25513 17.502C4.25629 18.7438 5.26331 19.75 6.50513 19.75H17.5002Z" fill="currentColor" />
    <path d="M14.5002 10.75C15.7429 10.75 16.7502 9.74263 16.7502 8.5V6.5C16.7502 5.25737 15.7429 4.25002 14.5002 4.25H9.50317C8.25976 4.25 7.25209 5.25856 7.25317 6.50195L7.25513 8.50195C7.25629 9.74377 8.26331 10.75 9.50513 10.75H14.5002Z" fill="currentColor" />
    <path d="M2.25043 4.25L21.7496 4.25C22.3019 4.25 22.7496 4.69772 22.7496 5.25C22.7496 5.80228 22.3019 6.25 21.7496 6.25L2.25043 6.25C1.69815 6.25 1.25043 5.80228 1.25043 5.25C1.25043 4.69771 1.69815 4.25 2.25043 4.25Z" fill="currentColor" />
</svg>