<svg xmlns="http://www.w3.org/2000/svg" width="24" height="24" viewBox="0 0 24 24" fill="none">
    <path d="M5.28613 8.875C5.28613 8.30552 4.88332 8 4.57129 8C4.25928 8.00009 3.85742 8.3056 3.85742 8.875C3.85742 9.00239 3.89961 9.22488 4.03809 9.55664C4.07527 9.64571 4.11763 9.73856 4.16504 9.83496C4.16795 9.83379 4.17109 9.83312 4.17383 9.83203C4.18782 9.82648 4.19974 9.82188 4.20898 9.81836C4.21353 9.81663 4.21737 9.81472 4.2207 9.81348L4.22559 9.81152H4.22754L4.22852 9.81055C4.23418 9.80834 4.24535 9.80426 4.26074 9.79785C4.29222 9.78473 4.34152 9.76297 4.40234 9.7334C4.5268 9.67289 4.6867 9.5853 4.83984 9.47363C5.18795 9.21978 5.28613 9.01064 5.28613 8.875ZM3 14.1875C3 15.2747 3.78592 15.9999 4.57129 16C5.10303 16 5.60274 15.8451 6.04492 15.5723C5.74121 15.246 5.42169 14.8968 5.10352 14.5322C4.58299 13.9358 4.05314 13.2911 3.57812 12.6445C3.24362 13.0355 3 13.5384 3 14.1875ZM7.28613 8.875C7.28613 9.98929 6.52653 10.7177 6.01758 11.0889C5.74224 11.2896 5.47331 11.4365 5.27637 11.5322C5.26799 11.5363 5.25913 11.5391 5.25098 11.543C5.66462 12.0998 6.13258 12.6703 6.61035 13.2178C6.86633 13.5111 7.1243 13.7939 7.37305 14.0635C7.60396 13.5987 7.76472 13.0743 7.82812 12.5117L7.84863 12.3799C7.97809 11.7164 8.52499 11 9.42871 11H10C10.5523 11 11 11.4477 11 12C11 12.5523 10.5523 13 10 13H9.7793C9.6411 13.8917 9.31287 14.7827 8.81445 15.5605C9.00894 15.7544 9.17207 15.9153 9.29492 16.0342C9.37485 16.1115 9.43742 16.1719 9.47949 16.2119C9.50036 16.2318 9.51596 16.247 9.52637 16.2568C9.53159 16.2618 9.53564 16.2653 9.53809 16.2676L9.54102 16.2705L9.6123 16.3438C9.9452 16.7259 9.9408 17.3058 9.58691 17.6836C9.23276 18.0614 8.65388 18.1035 8.25098 17.7959L8.17285 17.7295V17.7285L8.17188 17.7275C8.17101 17.7267 8.16944 17.726 8.16797 17.7246C8.16465 17.7215 8.15944 17.7167 8.15332 17.7109C8.14113 17.6994 8.12336 17.6828 8.10059 17.6611C8.05483 17.6176 7.98827 17.5539 7.9043 17.4727C7.78789 17.3601 7.63849 17.2115 7.46191 17.0361C6.66997 17.6311 5.69845 18 4.57129 18C2.51646 17.9999 1 16.2068 1 14.1875C1 12.6649 1.73874 11.5936 2.47266 10.915C2.36889 10.7175 2.27351 10.5215 2.19238 10.3271C2.00273 9.87278 1.85742 9.37261 1.85742 8.875C1.85742 7.37346 2.98984 6.00008 4.57129 6C6.15281 6 7.28613 7.37341 7.28613 8.875Z" fill="currentColor" />
    <path d="M17.2861 8.875C17.2861 8.30552 16.8833 8 16.5713 8C16.2593 8.00009 15.8574 8.3056 15.8574 8.875C15.8574 9.00239 15.8996 9.22488 16.0381 9.55664C16.0753 9.64571 16.1176 9.73856 16.165 9.83496C16.168 9.83379 16.1711 9.83312 16.1738 9.83203C16.1878 9.82648 16.1997 9.82188 16.209 9.81836C16.2135 9.81663 16.2174 9.81472 16.2207 9.81348L16.2256 9.81152H16.2275L16.2285 9.81055C16.2342 9.80834 16.2454 9.80426 16.2607 9.79785C16.2922 9.78473 16.3415 9.76297 16.4023 9.7334C16.5268 9.67289 16.6867 9.5853 16.8398 9.47363C17.1879 9.21978 17.2861 9.01064 17.2861 8.875ZM15 14.1875C15 15.2747 15.7859 15.9999 16.5713 16C17.103 16 17.6027 15.8451 18.0449 15.5723C17.7412 15.246 17.4217 14.8968 17.1035 14.5322C16.583 13.9358 16.0531 13.2911 15.5781 12.6445C15.2436 13.0355 15 13.5384 15 14.1875ZM19.2861 8.875C19.2861 9.98929 18.5265 10.7177 18.0176 11.0889C17.7422 11.2896 17.4733 11.4365 17.2764 11.5322C17.268 11.5363 17.2591 11.5391 17.251 11.543C17.6646 12.0998 18.1326 12.6703 18.6104 13.2178C18.8663 13.5111 19.1243 13.7939 19.373 14.0635C19.604 13.5987 19.7647 13.0743 19.8281 12.5117L19.8486 12.3799C19.9781 11.7164 20.525 11 21.4287 11H22C22.5523 11 23 11.4477 23 12C23 12.5523 22.5523 13 22 13H21.7793C21.6411 13.8917 21.3129 14.7827 20.8145 15.5605C21.0089 15.7544 21.1721 15.9153 21.2949 16.0342C21.3749 16.1115 21.4374 16.1719 21.4795 16.2119C21.5004 16.2318 21.516 16.247 21.5264 16.2568C21.5316 16.2618 21.5356 16.2653 21.5381 16.2676L21.541 16.2705L21.6123 16.3438C21.9452 16.7259 21.9408 17.3058 21.5869 17.6836C21.2328 18.0614 20.6539 18.1035 20.251 17.7959L20.1729 17.7295V17.7285L20.1719 17.7275C20.171 17.7267 20.1694 17.726 20.168 17.7246C20.1647 17.7215 20.1594 17.7167 20.1533 17.7109C20.1411 17.6994 20.1234 17.6828 20.1006 17.6611C20.0548 17.6176 19.9883 17.5539 19.9043 17.4727C19.7879 17.3601 19.6385 17.2115 19.4619 17.0361C18.67 17.6311 17.6985 18 16.5713 18C14.5165 17.9999 13 16.2068 13 14.1875C13 12.6649 13.7387 11.5936 14.4727 10.915C14.3689 10.7175 14.2735 10.5215 14.1924 10.3271C14.0027 9.87278 13.8574 9.37261 13.8574 8.875C13.8574 7.37346 14.9898 6.00008 16.5713 6C18.1528 6 19.2861 7.37341 19.2861 8.875Z" fill="currentColor" />
</svg>