<svg xmlns="http://www.w3.org/2000/svg" width="24" height="24" viewBox="0 0 24 24" fill="none">
    <path fill-rule="evenodd" clip-rule="evenodd" d="M9.00002 2C11.7098 2 13.1593 3.8073 13.7373 5.11133C15.7307 5.46987 17.5367 6.65537 18.8838 8.11426L20.4815 7.14551C20.9535 6.85892 21.5689 7.00937 21.8555 7.48145C22.1417 7.95335 21.9912 8.56784 21.5196 8.85449L18.2256 10.8545C17.9784 11.0046 17.6779 11.0409 17.4024 10.9531L12.6963 9.45312C12.1702 9.28532 11.8802 8.72242 12.0479 8.19629C12.2157 7.67028 12.7776 7.38022 13.3037 7.54785L16.417 8.53906C15.2323 7.59152 13.8546 7 12.5 7C10.7862 7 9.03115 7.94311 7.67189 9.37598C6.30582 10.8161 5.50002 12.5821 5.50002 14C5.50002 17.4249 8.72929 20 12.5 20C12.9502 20 13.3968 19.9621 13.834 19.8887C14.3786 19.7972 14.8948 20.1643 14.9863 20.709C15.0778 21.2536 14.7106 21.7697 14.166 21.8613C13.6205 21.953 13.0626 22 12.5 22C8.40669 22 4.33487 19.4171 3.61232 15.3115L2.44728 15.8945C1.95333 16.1414 1.35245 15.9412 1.10549 15.4473C0.858653 14.9534 1.05893 14.3525 1.55275 14.1055L2.54006 13.6123L1.16799 11.5547C0.861805 11.0952 0.985944 10.4743 1.44533 10.168C1.9048 9.86166 2.52566 9.98593 2.83205 10.4453L3.834 11.9492C4.28027 10.5262 5.14217 9.13701 6.2217 7.99902C6.94763 7.23385 7.80459 6.5478 8.75002 6.02539C8.33111 5.97461 7.8427 5.99966 7.29982 6.16992C6.77286 6.33522 6.21122 6.04161 6.04592 5.51465C5.88093 4.98782 6.17438 4.42697 6.70119 4.26172C8.64632 3.65162 10.2419 4.2132 11.166 4.84473C10.6742 4.37496 9.9659 4 9.00002 4C8.44786 3.99986 8.00002 3.5522 8.00002 3C8.00002 2.4478 8.44786 2.00014 9.00002 2ZM16.4365 13.9248C17.0317 13.4147 17.8936 13.3633 18.5459 13.7979L22.417 16.377C22.6919 16.5603 22.8144 16.9025 22.7188 17.2187C22.623 17.5349 22.3313 17.7508 22.001 17.751H20.8115L20.8086 17.7539L18.0117 17.7539C17.5978 17.7541 17.2619 18.0899 17.2617 18.5039C17.2619 18.9179 17.5978 19.2537 18.0117 19.2539H19.3076L18.6846 19.877C18.0379 20.5233 17.0028 20.5629 16.3086 19.9678L14.3975 18.3301C13.5835 17.6317 13.5834 16.3712 14.3975 15.6729L16.4365 13.9248Z" fill="currentColor" />
    <path d="M12.9998 11C13.5521 11 13.9998 11.4477 13.9998 12C13.9998 12.5523 13.5521 13 12.9998 13C12.4475 13 11.9998 12.5523 11.9998 12C11.9998 11.4477 12.4475 11 12.9998 11Z" fill="currentColor" />
    <path d="M19.9998 11C20.5521 11 20.9998 11.4477 20.9998 12C20.9998 12.5523 20.5521 13 19.9998 13C19.4475 13 18.9998 12.5523 18.9998 12C18.9998 11.4477 19.4475 11 19.9998 11Z" fill="currentColor" />
</svg>