<svg xmlns="http://www.w3.org/2000/svg" width="24" height="24" viewBox="0 0 24 24" fill="none">
    <path d="M22.75 12C22.75 17.9371 17.9371 22.75 12 22.75C6.06294 22.75 1.25 17.9371 1.25 12C1.25 6.06294 6.06294 1.25 12 1.25C17.9371 1.25 22.75 6.06294 22.75 12ZM17 15C17 14.4477 16.5523 14 16 14H8C7.44772 14 7 14.4477 7 15C7 15.5523 7.44772 16 8 16H16C16.5523 16 17 15.5523 17 15ZM18 9C18 8.44772 17.5523 8 17 8H15C14.4477 8 14 8.44772 14 9C14 9.55229 14.4477 10 15 10H17C17.5523 10 18 9.55229 18 9ZM10 9C10 8.44772 9.55228 8 9 8H7C6.44772 8 6 8.44772 6 9C6 9.55229 6.44772 10 7 10H9C9.55228 10 10 9.55229 10 9Z" fill="currentColor" />
</svg>