<svg xmlns="http://www.w3.org/2000/svg" width="24" height="24" viewBox="0 0 24 24" fill="none">
    <path fill-rule="evenodd" clip-rule="evenodd" d="M11.9999 14.0001C12.5522 14.0001 12.9999 14.4479 12.9999 15.0001V21.0001C12.9999 21.5524 12.5522 22.0001 11.9999 22.0001C11.4478 21.9999 10.9999 21.5523 10.9999 21.0001V15.0001C10.9999 14.448 11.4478 14.0003 11.9999 14.0001ZM20.6054 2.55287C20.8524 2.05911 21.4533 1.85893 21.9472 2.10561C22.4411 2.35258 22.6413 2.95345 22.3945 3.4474L18.3945 11.4474C18.1475 11.9414 17.5466 12.1417 17.0527 11.8947C16.559 11.6476 16.3585 11.0467 16.6054 10.5529L17.8818 8.00014H15.1181L13.3945 11.4474C13.1475 11.9414 12.5466 12.1417 12.0527 11.8947C11.559 11.6476 11.3585 11.0467 11.6054 10.5529L12.8818 8.00014H10.1181L8.39445 11.4474C8.14747 11.9414 7.54664 12.1417 7.05266 11.8947C6.55895 11.6476 6.35847 11.0467 6.60539 10.5529L7.88176 8.00014H5.11809L3.39445 11.4474C3.14746 11.9414 2.54664 12.1417 2.05266 11.8947C1.55895 11.6476 1.35847 11.0467 1.60539 10.5529L5.60539 2.55287C5.85236 2.05911 6.45332 1.85893 6.94719 2.10561C7.44113 2.35258 7.64135 2.95345 7.39445 3.4474L6.11809 6.00014H8.88176L10.6054 2.55287C10.8524 2.05911 11.4533 1.85893 11.9472 2.10561C12.4411 2.35258 12.6413 2.95345 12.3945 3.4474L11.1181 6.00014H13.8818L15.6054 2.55287C15.8524 2.05911 16.4533 1.85893 16.9472 2.10561C17.4411 2.35258 17.6413 2.95345 17.3945 3.4474L16.1181 6.00014H18.8818L20.6054 2.55287Z" fill="currentColor" />
</svg>