<svg xmlns="http://www.w3.org/2000/svg" width="24" height="24" viewBox="0 0 24 24" fill="none">
    <path d="M15 12.25C19.2802 12.25 22.75 8.78021 22.75 4.5C22.75 3.5335 21.9665 2.75 21 2.75H8C7.0335 2.75 6.25 3.5335 6.25 4.5V10.5C6.25 11.4665 7.0335 12.25 8 12.25H15Z" fill="currentColor" />
    <path d="M5.09766 3.75C5.03583 3.98994 5 4.24075 5 4.5V10.1426C2.85703 9.6832 1.25 7.78017 1.25 5.5C1.25 4.5335 2.0335 3.75 3 3.75H5.09766Z" fill="currentColor" />
    <path d="M16.75 13.5C16.75 14.7426 17.7574 15.75 19 15.75H20C20.9665 15.75 21.75 16.5335 21.75 17.5V19.5C21.75 20.4665 20.9665 21.25 20 21.25H16C15.5858 21.25 15.25 20.9142 15.25 20.5C15.25 19.2574 14.2426 18.25 13 18.25C11.7574 18.25 10.75 19.2574 10.75 20.5C10.75 20.9142 10.4142 21.25 10 21.25H6C5.0335 21.25 4.25 20.4665 4.25 19.5V17.5C4.25 16.5335 5.0335 15.75 6 15.75H7C8.24264 15.75 9.25 14.7426 9.25 13.5H15C15.5989 13.5 16.1838 13.4397 16.75 13.3281V13.5Z" fill="currentColor" />
</svg>