<svg xmlns="http://www.w3.org/2000/svg" width="24" height="24" viewBox="0 0 24 24" fill="none">
    <path d="M19 2.25C20.5188 2.25 21.75 3.48122 21.75 5L21.75 19C21.75 20.5188 20.5188 21.75 19 21.75L5 21.75C3.48122 21.75 2.25 20.5188 2.25 19L2.25 5C2.25 3.48122 3.48122 2.25 5 2.25L19 2.25ZM7.25 15C6.73239 15.0001 6.3062 15.3934 6.25488 15.8975L6.25 16L6.25488 16.1025C6.3062 16.6066 6.73239 16.9999 7.25 17C7.80228 17 8.25 16.5523 8.25 16C8.25 15.4477 7.80228 15 7.25 15ZM11 15C10.4477 15 10 15.4477 10 16C10 16.5523 10.4477 17 11 17L17 17C17.5523 17 18 16.5523 18 16C18 15.4477 17.5523 15 17 15L11 15ZM7.25 11.001C6.73231 11.001 6.3062 11.3943 6.25488 11.8984L6.25 12.001L6.25488 12.1035C6.30622 12.6076 6.73233 13.001 7.25 13.001C7.80227 13.001 8.24999 12.5533 8.25 12.001C8.25 11.4833 7.85667 11.0572 7.35254 11.0059L7.25 11.001ZM11 11C10.4477 11 10 11.4477 10 12C10 12.5523 10.4477 13 11 13L17 13C17.5523 13 18 12.5523 18 12C18 11.4477 17.5523 11 17 11L11 11ZM7.25098 7C6.69869 7 6.25098 7.44772 6.25098 8C6.25098 8.55228 6.69869 9 7.25098 9C7.8031 8.99981 8.25098 8.55217 8.25098 8C8.25098 7.48211 7.85697 7.05593 7.35254 7.00488L7.25098 7ZM11 7C10.4477 7 10 7.44772 10 8C10 8.55228 10.4477 9 11 9L17 9C17.5523 9 18 8.55228 18 8C18 7.44772 17.5523 7 17 7L11 7Z" fill="currentColor" />
</svg>