<svg xmlns="http://www.w3.org/2000/svg" width="24" height="24" viewBox="0 0 24 24" fill="none">
    <path d="M16.875 2.24976C17.7956 2.24976 18.6624 2.68322 19.2148 3.41968L21.5547 6.53979C21.6813 6.70856 21.75 6.91379 21.75 7.12476V18.825C21.7499 20.4402 20.4405 21.7497 18.8252 21.7498H5.1748C3.55953 21.7497 2.25011 20.4402 2.25 18.825V7.12476C2.25 6.91379 2.31874 6.70856 2.44531 6.53979L4.78516 3.41968C5.33756 2.68322 6.20439 2.24976 7.125 2.24976H16.875ZM12 9.49976C11.4477 9.49976 11 9.94747 11 10.4998V15.0857L9.70703 13.7927C9.31651 13.4022 8.68349 13.4022 8.29297 13.7927C7.90244 14.1832 7.90244 14.8163 8.29297 15.2068L11.293 18.2068C11.6835 18.5973 12.3165 18.5973 12.707 18.2068L15.707 15.2068C16.0976 14.8163 16.0976 14.1832 15.707 13.7927C15.3165 13.4022 14.6835 13.4022 14.293 13.7927L13 15.0857V10.4998C13 9.94747 12.5523 9.49976 12 9.49976ZM7.125 4.19897C6.81816 4.19899 6.52885 4.34317 6.34473 4.58862L5.1748 6.14917H18.8252L17.6553 4.58862C17.4711 4.34318 17.1818 4.19897 16.875 4.19897H7.125Z" fill="currentColor" />
</svg>