<svg xmlns="http://www.w3.org/2000/svg" width="24" height="24" viewBox="0 0 24 24" fill="none">
    <path fill-rule="evenodd" clip-rule="evenodd" d="M12 17.9995C13.1046 17.9995 14 18.8949 14 19.9995C14 21.1041 13.1046 21.9995 12 21.9995C10.8954 21.9995 10 21.1041 10 19.9995C10 18.8949 10.8954 17.9995 12 17.9995ZM12.0205 2.00049C12.0381 2.00084 12.0557 2.00116 12.0732 2.00244C12.091 2.00372 12.1085 2.00513 12.126 2.00732C12.143 2.00947 12.1598 2.01309 12.1768 2.01611C12.1865 2.01786 12.1964 2.01897 12.2061 2.021C12.231 2.02622 12.2557 2.03241 12.2803 2.03955C12.2881 2.04183 12.296 2.04392 12.3037 2.04639C12.3159 2.05025 12.3278 2.05475 12.3399 2.05908C12.3752 2.07185 12.409 2.0875 12.4424 2.104C12.4746 2.11994 12.5064 2.13711 12.5371 2.15674C12.5449 2.1617 12.5529 2.16622 12.5606 2.17139C12.6121 2.20638 12.6613 2.24678 12.707 2.29248L17.707 7.29248C18.0974 7.68302 18.0975 8.31607 17.707 8.70654C17.3166 9.09694 16.6835 9.09689 16.293 8.70654L13 5.41357V14.9995C13 15.5518 12.5523 15.9995 12 15.9995C11.4477 15.9995 11 15.5518 11 14.9995V5.41357L7.70704 8.70654C7.31656 9.09694 6.68349 9.09689 6.29298 8.70654C5.90248 8.31605 5.90253 7.68301 6.29298 7.29248L11.293 2.29248C11.3382 2.24722 11.3872 2.20539 11.4404 2.16943C11.4804 2.14238 11.5227 2.11975 11.5654 2.09912C11.6216 2.07194 11.6807 2.05006 11.7422 2.03369C11.7588 2.02928 11.7753 2.02455 11.792 2.021C11.803 2.01868 11.8141 2.01709 11.8252 2.01514C11.8427 2.01203 11.8603 2.00949 11.8779 2.00732C11.8957 2.00516 11.9136 2.00366 11.9316 2.00244C11.9476 2.00135 11.9635 2.00082 11.9795 2.00049C11.9863 2.00035 11.9931 1.99951 12 1.99951C12.0069 1.99951 12.0137 2.00035 12.0205 2.00049Z" fill="currentColor" />
</svg>