<svg xmlns="http://www.w3.org/2000/svg" width="24" height="24" viewBox="0 0 24 24" fill="none">
    <path d="M12 6.99951C12.5523 6.99951 13 7.44723 13 7.99951V17.5854L16.293 14.2925C16.6835 13.902 17.3165 13.902 17.707 14.2925C18.0975 14.683 18.0975 15.316 17.707 15.7065L12.707 20.7065C12.6592 20.7544 12.6065 20.7971 12.5498 20.8345C12.5121 20.8594 12.4727 20.8806 12.4326 20.8999C12.3862 20.9222 12.3381 20.9415 12.2881 20.9565C12.2752 20.9604 12.262 20.963 12.249 20.9663C12.2306 20.971 12.2122 20.9763 12.1934 20.98C12.1863 20.9814 12.179 20.9817 12.1719 20.9829C12.1159 20.9926 12.0587 20.9995 12 20.9995C11.9433 20.9995 11.8881 20.9929 11.834 20.9839C11.8236 20.9821 11.8131 20.9811 11.8027 20.979C11.7912 20.9767 11.7799 20.9739 11.7686 20.9712C11.748 20.9663 11.7273 20.9618 11.707 20.9556C11.6584 20.9407 11.6116 20.9217 11.5664 20.8999C11.5266 20.8807 11.4877 20.8592 11.4502 20.8345C11.3935 20.7971 11.3408 20.7544 11.293 20.7065L6.29297 15.7065C5.90244 15.316 5.90244 14.683 6.29297 14.2925C6.68349 13.902 7.31651 13.902 7.70703 14.2925L11 17.5854V7.99951C11 7.44723 11.4477 6.99951 12 6.99951ZM17 2.99951C17.5523 2.99951 18 3.44723 18 3.99951C18 4.5518 17.5523 4.99951 17 4.99951H7C6.44772 4.99951 6 4.5518 6 3.99951C6 3.44723 6.44772 2.99951 7 2.99951H17Z" fill="currentColor" />
</svg>