<svg xmlns="http://www.w3.org/2000/svg" width="24" height="24" viewBox="0 0 24 24" fill="none">
    <path d="M18.5457 10.2497H15.7498V7.9997C15.7498 7.0332 14.9663 6.2497 13.9998 6.2497H9.99976C9.03326 6.2497 8.24976 7.0332 8.24976 7.9997V10.2497H5.45386C4.23675 10.2497 3.24976 11.2367 3.24976 12.4538C3.24984 12.9875 3.44324 13.5033 3.79468 13.905L9.7771 20.7409C10.338 21.3819 11.148 21.7497 11.9998 21.7497C12.8515 21.7497 13.6615 21.3819 14.2224 20.7409L20.2048 13.905C20.5563 13.5033 20.7497 12.9875 20.7498 12.4538C20.7498 11.2367 19.7628 10.2497 18.5457 10.2497Z" fill="currentColor" />
    <path d="M14.7498 2.2497C15.302 2.2497 15.7498 2.69742 15.7498 3.2497C15.7498 3.80199 15.302 4.2497 14.7498 4.2497H9.24976C8.69747 4.2497 8.24976 3.80199 8.24976 3.2497C8.24976 2.69742 8.69747 2.2497 9.24976 2.2497H14.7498Z" fill="currentColor" />
</svg>