<svg xmlns="http://www.w3.org/2000/svg" width="24" height="24" viewBox="0 0 24 24" fill="none">
    <path d="M7.99992 3C8.55221 3 8.99992 3.44772 8.99992 4V17.5859L11.2929 15.293C11.6834 14.9024 12.3164 14.9024 12.707 15.293C13.0974 15.6835 13.0975 16.3165 12.707 16.707L8.70696 20.707C8.31646 21.0975 7.68342 21.0975 7.29289 20.707L3.29289 16.707C2.90237 16.3165 2.90237 15.6835 3.29289 15.293C3.68342 14.9024 4.31643 14.9024 4.70696 15.293L6.99992 17.5859V4C6.99992 3.44772 7.44764 3 7.99992 3ZM17.5527 13.1055C17.8625 12.9506 18.2306 12.9675 18.5253 13.1494C18.8201 13.3316 18.9999 13.6534 18.9999 14V19H19.9999C20.5522 19 20.9999 19.4477 20.9999 20C20.9999 20.5523 20.5522 21 19.9999 21H15.9999C15.4476 21 14.9999 20.5523 14.9999 20C14.9999 19.4477 15.4476 19 15.9999 19H16.9999V15.6182L16.4472 15.8945C15.9533 16.1413 15.3523 15.9412 15.1054 15.4473C14.8585 14.9534 15.0589 14.3525 15.5527 14.1055L17.5527 13.1055ZM17.9999 3C19.6568 3 20.9999 4.34315 20.9999 6V8C20.9999 9.65685 19.6568 11 17.9999 11C16.3431 11 14.9999 9.65685 14.9999 8V6C14.9999 4.34315 16.3431 3 17.9999 3ZM17.9999 5C17.4476 5 16.9999 5.44772 16.9999 6V8C16.9999 8.55228 17.4476 9 17.9999 9C18.5522 9 18.9999 8.55228 18.9999 8V6C18.9999 5.44772 18.5522 5 17.9999 5Z" fill="currentColor" />
</svg>