<svg xmlns="http://www.w3.org/2000/svg" width="24" height="24" viewBox="0 0 24 24" fill="none">
    <path d="M10.2501 18.5454V15.7495H8.00012C7.03362 15.7495 6.25012 14.966 6.25012 13.9995V9.99951C6.25012 9.03301 7.03362 8.24951 8.00012 8.24951H10.2501V5.45361C10.2501 4.23651 11.2371 3.24951 12.4542 3.24951C12.9879 3.24959 13.5037 3.44299 13.9054 3.79443L20.7413 9.77685C21.3823 10.3377 21.7501 11.1478 21.7501 11.9995C21.7501 12.8512 21.3823 13.6613 20.7413 14.2222L13.9054 20.2046C13.5038 20.556 12.9879 20.7494 12.4542 20.7495C11.2371 20.7495 10.2501 19.7625 10.2501 18.5454Z" fill="currentColor" />
    <path d="M2.25012 14.7495C2.25012 15.3018 2.69784 15.7495 3.25012 15.7495C3.80241 15.7495 4.25012 15.3018 4.25012 14.7495L4.25012 9.24951C4.25012 8.69723 3.80241 8.24951 3.25012 8.24951C2.69784 8.24951 2.25012 8.69723 2.25012 9.24951L2.25012 14.7495Z" fill="currentColor" />
</svg>