<svg xmlns="http://www.w3.org/2000/svg" width="24" height="24" viewBox="0 0 24 24" fill="none">
    <path fill-rule="evenodd" clip-rule="evenodd" d="M7.99992 2.99951C8.55221 2.99951 8.99992 3.44723 8.99992 3.99951V17.5854L11.2929 15.2925C11.6834 14.902 12.3164 14.902 12.707 15.2925C13.0974 15.683 13.0975 16.316 12.707 16.7065L8.70696 20.7065C8.31646 21.097 7.68342 21.097 7.29289 20.7065L3.29289 16.7065C2.90237 16.316 2.90237 15.683 3.29289 15.2925C3.68342 14.902 4.31643 14.902 4.70696 15.2925L6.99992 17.5854V3.99951C6.99992 3.44723 7.44764 2.99951 7.99992 2.99951ZM17.5527 13.105C17.8625 12.9501 18.2306 12.967 18.5253 13.1489C18.8201 13.3311 18.9999 13.6529 18.9999 13.9995V18.9995H19.9999C20.5522 18.9995 20.9999 19.4472 20.9999 19.9995C20.9999 20.5518 20.5522 20.9995 19.9999 20.9995H15.9999C15.4476 20.9995 14.9999 20.5518 14.9999 19.9995C14.9999 19.4472 15.4476 18.9995 15.9999 18.9995H16.9999V15.6177L16.4472 15.894C15.9533 16.1408 15.3523 15.9407 15.1054 15.4468C14.8585 14.9529 15.0589 14.352 15.5527 14.105L17.5527 13.105ZM17.9999 2.99951C19.6568 2.99951 20.9999 4.34266 20.9999 5.99951V7.99951C20.9999 9.65637 19.6568 10.9995 17.9999 10.9995C16.3431 10.9995 14.9999 9.65637 14.9999 7.99951V5.99951C14.9999 4.34266 16.3431 2.99951 17.9999 2.99951ZM17.9999 4.99951C17.4476 4.99951 16.9999 5.44723 16.9999 5.99951V7.99951C16.9999 8.5518 17.4476 8.99951 17.9999 8.99951C18.5522 8.99951 18.9999 8.5518 18.9999 7.99951V5.99951C18.9999 5.44723 18.5522 4.99951 17.9999 4.99951Z" fill="currentColor" />
</svg>