<svg xmlns="http://www.w3.org/2000/svg" width="24" height="24" viewBox="0 0 24 24" fill="none">
    <path d="M7.36903 3.22453C7.7618 2.90418 8.3408 2.92677 8.70692 3.29289L12.7069 7.29289C13.0973 7.68342 13.0974 8.31648 12.7069 8.70695C12.3164 9.09734 11.6834 9.09729 11.2929 8.70695L8.99988 6.41398V19.9999C8.99976 20.5521 8.55206 20.9999 7.99988 20.9999C7.44768 20.9999 7.00001 20.5521 6.99988 19.9999V6.41398L4.70692 8.70695C4.31644 9.09734 3.68336 9.09729 3.29285 8.70695C2.90236 8.31645 2.90241 7.68342 3.29285 7.29289L7.29285 3.29289L7.36903 3.22453ZM17.9999 12.9999C19.6567 12.9999 20.9999 14.3431 20.9999 15.9999V17.9999C20.9999 19.6568 19.6567 20.9999 17.9999 20.9999C16.343 20.9999 14.9999 19.6568 14.9999 17.9999V15.9999C14.9999 14.3431 16.343 12.9999 17.9999 12.9999ZM17.9999 14.9999C17.4476 14.9999 16.9999 15.4476 16.9999 15.9999V17.9999C16.9999 18.5522 17.4476 18.9999 17.9999 18.9999C18.5522 18.9999 18.9999 18.5522 18.9999 17.9999V15.9999C18.9999 15.4476 18.5522 14.9999 17.9999 14.9999ZM17.5526 3.10539C17.8625 2.95047 18.2305 2.96737 18.5253 3.14933C18.8201 3.33154 18.9999 3.65334 18.9999 3.99992V8.99992H19.9999C20.5522 8.99992 20.9999 9.44763 20.9999 9.99992C20.9999 10.5522 20.5522 10.9999 19.9999 10.9999H15.9999C15.4476 10.9999 14.9999 10.5522 14.9999 9.99992C14.9999 9.44763 15.4476 8.99992 15.9999 8.99992H16.9999V5.61808L16.4472 5.89445C15.9532 6.14124 15.3523 5.94107 15.1054 5.44718C14.8585 4.95331 15.0589 4.35244 15.5526 4.10539L17.5526 3.10539Z" fill="currentColor" />
</svg>