<svg xmlns="http://www.w3.org/2000/svg" width="24" height="24" viewBox="0 0 24 24" fill="none">
    <path fill-rule="evenodd" clip-rule="evenodd" d="M6.36903 3.22389C6.7618 2.90354 7.3408 2.92613 7.70692 3.29225L11.7069 7.29225C12.0973 7.68278 12.0974 8.31584 11.7069 8.70631C11.3164 9.0967 10.6834 9.09665 10.2929 8.70631L7.99988 6.41334V19.9993C7.99976 20.5514 7.55206 20.9992 6.99988 20.9993C6.44768 20.9993 6.00001 20.5515 5.99988 19.9993V6.41334L3.70692 8.70631C3.31644 9.0967 2.68336 9.09665 2.29285 8.70631C1.90236 8.31581 1.90241 7.68278 2.29285 7.29225L6.29285 3.29225L6.36903 3.22389ZM14.9999 18.9993C15.5522 18.9993 15.9999 19.447 15.9999 19.9993C15.9999 20.5516 15.5522 20.9993 14.9999 20.9993H10.9999C10.4476 20.9993 9.99988 20.5516 9.99988 19.9993C9.99988 19.447 10.4476 18.9993 10.9999 18.9993H14.9999ZM17.9999 14.9993C18.5522 14.9993 18.9999 15.447 18.9999 15.9993C18.9999 16.5516 18.5522 16.9993 17.9999 16.9993H10.9999C10.4476 16.9993 9.99988 16.5516 9.99988 15.9993C9.99988 15.447 10.4476 14.9993 10.9999 14.9993H17.9999ZM20.9999 10.9993C21.5522 10.9993 21.9999 11.447 21.9999 11.9993C21.9999 12.5516 21.5522 12.9993 20.9999 12.9993H10.9999C10.4476 12.9993 9.99988 12.5516 9.99988 11.9993C9.99988 11.447 10.4476 10.9993 10.9999 10.9993H20.9999Z" fill="currentColor" />
</svg>