<svg xmlns="http://www.w3.org/2000/svg" width="24" height="24" viewBox="0 0 24 24" fill="none">
    <path d="M6.75014 19.9999V6.41395L4.45717 8.70692C4.06665 9.09744 3.43363 9.09744 3.04311 8.70692C2.65258 8.31639 2.65258 7.68338 3.04311 7.29286L7.04311 3.29286L7.11928 3.2245C7.51205 2.90415 8.09105 2.92674 8.45717 3.29286L12.4572 7.29286C12.8477 7.68338 12.8477 8.31639 12.4572 8.70692C12.0666 9.09744 11.4336 9.09744 11.0431 8.70692L8.75014 6.41395V19.9999C8.75014 20.5522 8.30242 20.9999 7.75014 20.9999C7.19785 20.9999 6.75014 20.5522 6.75014 19.9999Z" fill="currentColor" />
    <path d="M19.7501 2.99988C20.1189 2.99988 20.458 3.20304 20.632 3.5282C20.8059 3.85332 20.7867 4.24777 20.5822 4.55457L17.6183 8.99988H19.7501C20.3024 8.99988 20.7501 9.44759 20.7501 9.99988C20.7501 10.5522 20.3024 10.9999 19.7501 10.9999H15.7501C15.3813 10.9999 15.0423 10.7967 14.8683 10.4716C14.6944 10.1464 14.7136 9.75198 14.9181 9.44519L17.882 4.99988H15.7501C15.1979 4.99988 14.7501 4.55216 14.7501 3.99988C14.7501 3.44759 15.1979 2.99988 15.7501 2.99988H19.7501Z" fill="currentColor" />
    <path d="M19.3087 14.0311C19.045 13.41 18.4336 12.9999 17.7501 12.9999C17.0667 12.9999 16.4553 13.41 16.1915 14.0311L16.1437 14.1581L14.3019 19.6835C14.1273 20.2073 14.41 20.7734 14.9337 20.9481C15.4576 21.1227 16.0236 20.84 16.1984 20.3163L16.6374 18.9999H18.8629L19.3019 20.3163C19.4767 20.84 20.0427 21.1227 20.5665 20.9481C21.0903 20.7734 21.373 20.2073 21.1984 19.6835L19.3566 14.1581L19.3087 14.0311ZM17.7501 15.663L18.196 16.9999H17.3043L17.7501 15.663Z" fill="currentColor" />
</svg>