<svg xmlns="http://www.w3.org/2000/svg" width="24" height="24" viewBox="0 0 24 24" fill="none">
    <path d="M11.2929 6.29297C11.6835 5.90245 12.3165 5.90245 12.707 6.29297L17.707 11.293C18.0975 11.6835 18.0975 12.3165 17.707 12.707L12.707 17.707C12.3165 18.0976 11.6835 18.0976 11.2929 17.707C10.9024 17.3165 10.9024 16.6835 11.2929 16.293L14.5859 13H2.99996C2.44768 13 1.99996 12.5523 1.99996 12C1.99996 11.4477 2.44768 11 2.99996 11H14.5859L11.2929 7.70703C10.9024 7.31651 10.9024 6.68349 11.2929 6.29297Z" fill="currentColor" />
    <path d="M20 18V6C20 5.44772 20.4477 5 21 5C21.5522 5 22 5.44772 22 6V18C22 18.5523 21.5522 19 21 19C20.4477 19 20 18.5523 20 18Z" fill="currentColor" />
</svg>