<svg xmlns="http://www.w3.org/2000/svg" width="24" height="24" viewBox="0 0 24 24" fill="none">
    <path d="M5.99999 4.00006C5.99999 3.44778 6.4477 3.00006 6.99999 3.00006C7.55227 3.00006 7.99999 3.44778 7.99999 4.00006V17.586L10.293 15.293C10.6835 14.9025 11.3165 14.9025 11.707 15.293C12.0975 15.6836 12.0975 16.3166 11.707 16.7071L7.70702 20.7071C7.31649 21.0976 6.68348 21.0976 6.29295 20.7071L2.29295 16.7071C1.90243 16.3166 1.90243 15.6836 2.29295 15.293C2.68348 14.9025 3.31649 14.9025 3.70702 15.293L5.99999 17.586V4.00006Z" fill="currentColor" />
    <path d="M21 3.00006C21.5523 3.00006 22 3.44778 22 4.00006C22 4.55235 21.5523 5.00006 21 5.00006H11C10.4477 5.00006 10 4.55235 10 4.00006C10 3.44778 10.4477 3.00006 11 3.00006H21Z" fill="currentColor" />
    <path d="M18 7.00006C18.5523 7.00006 19 7.44778 19 8.00006C19 8.55235 18.5523 9.00006 18 9.00006H11C10.4477 9.00006 10 8.55235 10 8.00006C10 7.44778 10.4477 7.00006 11 7.00006H18Z" fill="currentColor" />
    <path d="M15 11.0001C15.5523 11.0001 16 11.4478 16 12.0001C16 12.5523 15.5523 13.0001 15 13.0001H11C10.4477 13.0001 10 12.5523 10 12.0001C10 11.4478 10.4477 11.0001 11 11.0001H15Z" fill="currentColor" />
</svg>