<svg xmlns="http://www.w3.org/2000/svg" width="24" height="24" viewBox="0 0 24 24" fill="none">
    <path d="M4 5.99951C4.55228 5.99951 5 6.44723 5 6.99951V16.9995C5 17.5518 4.55228 17.9995 4 17.9995C3.44772 17.9995 3 17.5518 3 16.9995V6.99951C3 6.44723 3.44772 5.99951 4 5.99951ZM14.293 6.29248C14.6835 5.90196 15.3165 5.90196 15.707 6.29248L20.707 11.2925C20.7548 11.3403 20.7976 11.3931 20.835 11.4497C20.8597 11.4872 20.8812 11.5261 20.9004 11.5659C20.9222 11.6111 20.9412 11.6579 20.9561 11.7065C20.9623 11.7268 20.9668 11.7475 20.9717 11.7681C20.9893 11.8424 21 11.9197 21 11.9995C21 12.1547 20.9635 12.3011 20.9004 12.4321C20.8936 12.4463 20.8864 12.4602 20.8789 12.4741C20.851 12.5257 20.8184 12.574 20.7822 12.6196C20.7586 12.6493 20.7345 12.6791 20.707 12.7065L15.707 17.7065C15.3165 18.097 14.6835 18.097 14.293 17.7065C13.9024 17.316 13.9024 16.683 14.293 16.2925L17.5859 12.9995H8C7.44772 12.9995 7 12.5518 7 11.9995C7 11.4472 7.44772 10.9995 8 10.9995H17.5859L14.293 7.70654C13.9024 7.31602 13.9024 6.683 14.293 6.29248Z" fill="currentColor" />
</svg>