<svg xmlns="http://www.w3.org/2000/svg" width="24" height="24" viewBox="0 0 24 24" fill="none">
    <path d="M11 2.99997C11 2.44768 11.4477 1.99997 12 1.99997C12.5523 1.99997 13 2.44768 13 2.99997V14.5859L16.293 11.2929C16.6835 10.9024 17.3165 10.9024 17.707 11.2929C18.0976 11.6835 18.0976 12.3165 17.707 12.707L12.707 17.707C12.3165 18.0975 11.6835 18.0975 11.293 17.707L6.29297 12.707C5.90245 12.3165 5.90245 11.6835 6.29297 11.2929C6.68349 10.9024 7.31651 10.9024 7.70703 11.2929L11 14.5859V2.99997Z" fill="currentColor" />
    <path d="M18 20C18.5523 20 19 20.4477 19 21C19 21.5523 18.5523 22 18 22H6C5.44772 22 5 21.5523 5 21C5 20.4477 5.44772 20 6 20H18Z" fill="currentColor" />
</svg>