<svg xmlns="http://www.w3.org/2000/svg" width="24" height="24" viewBox="0 0 24 24" fill="none">
    <path d="M10.9999 21.0001V9.41418L7.70689 12.7071C7.31637 13.0977 6.68336 13.0977 6.29283 12.7071C5.90231 12.3166 5.90231 11.6836 6.29283 11.2931L11.2928 6.29309L11.369 6.22473C11.7618 5.90438 12.3408 5.92697 12.7069 6.29309L17.7069 11.2931C18.0974 11.6836 18.0974 12.3166 17.7069 12.7071C17.3164 13.0977 16.6834 13.0977 16.2928 12.7071L12.9999 9.41418V21.0001C12.9999 21.5524 12.5521 22.0001 11.9999 22.0001C11.4476 22.0001 10.9999 21.5524 10.9999 21.0001Z" fill="currentColor" />
    <path d="M17.9999 2.00012C18.5521 2.00012 18.9999 2.44784 18.9999 3.00012C18.9999 3.55241 18.5521 4.00012 17.9999 4.00012H5.99986C5.44758 4.00012 4.99986 3.55241 4.99986 3.00012C4.99986 2.44784 5.44758 2.00012 5.99986 2.00012H17.9999Z" fill="currentColor" />
</svg>