<svg xmlns="http://www.w3.org/2000/svg" width="24" height="24" viewBox="0 0 24 24" fill="none">
    <path fill-rule="evenodd" clip-rule="evenodd" d="M7.36903 3.22412C7.7618 2.90377 8.3408 2.92636 8.70692 3.29248L12.7069 7.29248C13.0973 7.68302 13.0974 8.31607 12.7069 8.70654C12.3164 9.09694 11.6834 9.09689 11.2929 8.70654L8.99988 6.41357V19.9995C8.99976 20.5517 8.55206 20.9995 7.99988 20.9995C7.44768 20.9995 7.00001 20.5517 6.99988 19.9995V6.41357L4.70692 8.70654C4.31644 9.09694 3.68336 9.09689 3.29285 8.70654C2.90236 8.31605 2.90241 7.68301 3.29285 7.29248L7.29285 3.29248L7.36903 3.22412ZM17.5526 13.105C17.8625 12.9501 18.2305 12.967 18.5253 13.1489C18.8201 13.3311 18.9999 13.6529 18.9999 13.9995V18.9995H19.9999C20.5522 18.9995 20.9999 19.4472 20.9999 19.9995C20.9999 20.5518 20.5522 20.9995 19.9999 20.9995H15.9999C15.4476 20.9995 14.9999 20.5518 14.9999 19.9995C14.9999 19.4472 15.4476 18.9995 15.9999 18.9995H16.9999V15.6177L16.4472 15.894C15.9532 16.1408 15.3523 15.9407 15.1054 15.4468C14.8585 14.9529 15.0589 14.352 15.5526 14.105L17.5526 13.105ZM17.9999 2.99951C19.6567 2.99951 20.9999 4.34266 20.9999 5.99951V7.99951C20.9999 9.65637 19.6567 10.9995 17.9999 10.9995C16.343 10.9995 14.9999 9.65637 14.9999 7.99951V5.99951C14.9999 4.34266 16.343 2.99951 17.9999 2.99951ZM17.9999 4.99951C17.4476 4.99951 16.9999 5.44723 16.9999 5.99951V7.99951C16.9999 8.5518 17.4476 8.99951 17.9999 8.99951C18.5522 8.99951 18.9999 8.5518 18.9999 7.99951V5.99951C18.9999 5.44723 18.5522 4.99951 17.9999 4.99951Z" fill="currentColor" />
</svg>