<svg xmlns="http://www.w3.org/2000/svg" width="24" height="24" viewBox="0 0 24 24" fill="none">
    <path d="M5.99987 16.9998V5.41383L4.7069 6.7068C4.31637 7.09732 3.68336 7.09732 3.29283 6.7068C2.90231 6.31627 2.90231 5.68326 3.29283 5.29273L6.29283 2.29273L6.36901 2.22437C6.76178 1.90402 7.34078 1.92662 7.7069 2.29273L10.7069 5.29273C11.0974 5.68326 11.0974 6.31627 10.7069 6.7068C10.3164 7.09732 9.68336 7.09732 9.29283 6.7068L7.99987 5.41383V16.9998C7.99987 17.5521 7.55215 17.9998 6.99987 17.9998C6.44758 17.9998 5.99987 17.5521 5.99987 16.9998Z" fill="currentColor" />
    <path d="M15.9999 16.9998V5.41383L14.7069 6.7068C14.3164 7.09732 13.6834 7.09732 13.2928 6.7068C12.9023 6.31627 12.9023 5.68326 13.2928 5.29273L16.2928 2.29273L16.369 2.22437C16.7618 1.90402 17.3408 1.92662 17.7069 2.29273L20.7069 5.29273C21.0974 5.68326 21.0974 6.31627 20.7069 6.7068C20.3164 7.09732 19.6834 7.09732 19.2928 6.7068L17.9999 5.41383V16.9998C17.9999 17.5521 17.5521 17.9998 16.9999 17.9998C16.4476 17.9998 15.9999 17.5521 15.9999 16.9998Z" fill="currentColor" />
    <path d="M19.9999 20C20.5521 20 20.9999 20.4477 20.9999 21C20.9999 21.5523 20.5521 22 19.9999 22H3.99986C3.44758 22 2.99986 21.5523 2.99986 21C2.99986 20.4477 3.44758 20 3.99986 20H19.9999Z" fill="currentColor" />
</svg>