<svg xmlns="http://www.w3.org/2000/svg" width="24" height="24" viewBox="0 0 24 24" fill="none">
    <path d="M13.7501 18.5454V15.7495H16.0001C16.9666 15.7495 17.7501 14.966 17.7501 13.9995V9.99951C17.7501 9.03301 16.9666 8.24951 16.0001 8.24951H13.7501V5.45361C13.7501 4.23651 12.7631 3.24951 11.546 3.24951C11.0123 3.24959 10.4965 3.44299 10.0948 3.79443L3.25891 9.77685C2.61795 10.3377 2.25012 11.1478 2.25012 11.9995C2.25012 12.8512 2.61795 13.6613 3.25891 14.2222L10.0948 20.2046C10.4965 20.556 11.0123 20.7494 11.546 20.7495C12.7631 20.7495 13.7501 19.7625 13.7501 18.5454Z" fill="currentColor" />
    <path d="M21.7501 14.7495C21.7501 15.3018 21.3024 15.7495 20.7501 15.7495C20.1978 15.7495 19.7501 15.3018 19.7501 14.7495L19.7501 9.24951C19.7501 8.69723 20.1978 8.24951 20.7501 8.24951C21.3024 8.24951 21.7501 8.69723 21.7501 9.24951L21.7501 14.7495Z" fill="currentColor" />
</svg>