<svg xmlns="http://www.w3.org/2000/svg" width="24" height="24" viewBox="0 0 24 24" fill="none">
    <path d="M6.75011 20V6.41407L4.45714 8.70704C4.06661 9.09757 3.4336 9.09757 3.04308 8.70704C2.65255 8.31652 2.65255 7.6835 3.04308 7.29298L7.04308 3.29298L7.11925 3.22462C7.51202 2.90427 8.09102 2.92686 8.45714 3.29298L12.4571 7.29298C12.8477 7.6835 12.8477 8.31652 12.4571 8.70704C12.0666 9.09757 11.4336 9.09757 11.0431 8.70704L8.75011 6.41407V20C8.75011 20.5523 8.30239 21 7.75011 21C7.19782 21 6.75011 20.5523 6.75011 20Z" fill="currentColor" />
    <path d="M19.7501 13C20.1189 13 20.4579 13.2032 20.6319 13.5283C20.8059 13.8534 20.7867 14.2479 20.5821 14.5547L17.6183 19H19.7501C20.3024 19 20.7501 19.4477 20.7501 20C20.7501 20.5523 20.3024 21 19.7501 21H15.7501C15.3813 21 15.0423 20.7968 14.8683 20.4717C14.6944 20.1466 14.7136 19.7521 14.9181 19.4453L17.8819 15H15.7501C15.1978 15 14.7501 14.5523 14.7501 14C14.7501 13.4477 15.1978 13 15.7501 13H19.7501Z" fill="currentColor" />
    <path d="M17.7501 5.66309L18.1959 7H17.3043L17.7501 5.66309ZM16.1984 10.3164L16.6373 9H18.8629L19.3019 10.3164C19.4766 10.8402 20.0427 11.1229 20.5665 10.9482C21.0903 10.7735 21.373 10.2074 21.1984 9.68359L19.3566 4.1582L19.3087 4.03125C19.045 3.41011 18.4336 3 17.7501 3C17.0666 3 16.4552 3.41011 16.1915 4.03125L16.1437 4.1582L14.3019 9.68359C14.1273 10.2074 14.4099 10.7735 14.9337 10.9482C15.4575 11.1229 16.0236 10.8402 16.1984 10.3164Z" fill="currentColor" />
</svg>