<svg xmlns="http://www.w3.org/2000/svg" width="24" height="24" viewBox="0 0 24 24" fill="none">
    <path fill-rule="evenodd" clip-rule="evenodd" d="M7.36903 3.22404C7.7618 2.90369 8.3408 2.92628 8.70692 3.2924L12.7069 7.2924C13.0973 7.68293 13.0974 8.31599 12.7069 8.70646C12.3164 9.09685 11.6834 9.0968 11.2929 8.70646L8.99988 6.41349V19.9994C8.99976 20.5516 8.55206 20.9994 7.99988 20.9994C7.44768 20.9994 7.00001 20.5516 6.99988 19.9994V6.41349L4.70692 8.70646C4.31644 9.09685 3.68336 9.0968 3.29285 8.70646C2.90236 8.31596 2.90241 7.68293 3.29285 7.2924L7.29285 3.2924L7.36903 3.22404ZM17.9999 12.9994C19.6567 12.9994 20.9999 14.3426 20.9999 15.9994V17.9994C20.9999 19.6563 19.6567 20.9994 17.9999 20.9994C16.343 20.9994 14.9999 19.6563 14.9999 17.9994V15.9994C14.9999 14.3426 16.343 12.9994 17.9999 12.9994ZM17.9999 14.9994C17.4476 14.9994 16.9999 15.4471 16.9999 15.9994V17.9994C16.9999 18.5517 17.4476 18.9994 17.9999 18.9994C18.5522 18.9994 18.9999 18.5517 18.9999 17.9994V15.9994C18.9999 15.4471 18.5522 14.9994 17.9999 14.9994ZM17.5526 3.1049C17.8625 2.94998 18.2305 2.96689 18.5253 3.14884C18.8201 3.33105 18.9999 3.65285 18.9999 3.99943V8.99943H19.9999C20.5522 8.99943 20.9999 9.44714 20.9999 9.99943C20.9999 10.5517 20.5522 10.9994 19.9999 10.9994H15.9999C15.4476 10.9994 14.9999 10.5517 14.9999 9.99943C14.9999 9.44714 15.4476 8.99943 15.9999 8.99943H16.9999V5.61759L16.4472 5.89396C15.9532 6.14075 15.3523 5.94059 15.1054 5.44669C14.8585 4.95282 15.0589 4.35195 15.5526 4.1049L17.5526 3.1049Z" fill="currentColor" />
</svg>