<svg xmlns="http://www.w3.org/2000/svg" width="24" height="24" viewBox="0 0 24 24" fill="none">
    <path fill-rule="evenodd" clip-rule="evenodd" d="M12 17.9995C13.1046 17.9995 14 18.8949 14 19.9995C14 21.1041 13.1046 21.9995 12 21.9995C10.8955 21.9995 10 21.1041 10 19.9995C10 18.8949 10.8955 17.9995 12 17.9995ZM12 1.99951C12.5523 1.99951 13 2.44723 13 2.99951V12.5854L16.293 9.29248C16.6835 8.90196 17.3166 8.90196 17.7071 9.29248C18.0975 9.68301 18.0976 10.316 17.7071 10.7065L12.7071 15.7065C12.6593 15.7544 12.6065 15.7971 12.5499 15.8345C12.5121 15.8594 12.4727 15.8806 12.4327 15.8999C12.3863 15.9222 12.3382 15.9415 12.2881 15.9565C12.2753 15.9604 12.2621 15.963 12.2491 15.9663C12.2306 15.971 12.2123 15.9763 12.1934 15.98C12.1863 15.9814 12.179 15.9817 12.1719 15.9829C12.116 15.9926 12.0588 15.9995 12 15.9995C11.9434 15.9995 11.8881 15.9929 11.834 15.9839C11.8236 15.9821 11.8131 15.9811 11.8028 15.979C11.7913 15.9767 11.78 15.9739 11.7686 15.9712C11.748 15.9663 11.7274 15.9618 11.7071 15.9556C11.6584 15.9407 11.6116 15.9217 11.5665 15.8999C11.5267 15.8807 11.4877 15.8592 11.4502 15.8345C11.3936 15.7971 11.3408 15.7544 11.293 15.7065L6.29302 10.7065C5.90249 10.316 5.90249 9.683 6.29302 9.29248C6.68354 8.90196 7.31655 8.90196 7.70708 9.29248L11 12.5854V2.99951C11 2.44723 11.4478 1.99951 12 1.99951Z" fill="currentColor" />
</svg>