<svg xmlns="http://www.w3.org/2000/svg" width="24" height="24" viewBox="0 0 24 24" fill="none">
    <path d="M21.2412 14.1787L21.25 14V10C21.25 9.0335 20.4665 8.25 19.5 8.25H12.25V5.71777C12.2499 4.95766 11.672 4.3328 10.9316 4.25781L10.7822 4.25C10.458 4.25 10.1439 4.35705 9.88867 4.55273L9.7832 4.64258L3.35645 10.6104C2.96998 10.9692 2.75 11.4726 2.75 12C2.75 12.5274 2.96998 13.0308 3.35645 13.3896L9.7832 19.3574C10.0547 19.6096 10.4117 19.75 10.7822 19.75C11.5928 19.7499 12.2499 19.0928 12.25 18.2822V15.75H19.5C20.4062 15.75 21.1517 15.0613 21.2412 14.1787Z" fill="currentColor" />
</svg>