<svg xmlns="http://www.w3.org/2000/svg" width="24" height="24" viewBox="0 0 24 24" fill="none">
    <path fill-rule="evenodd" clip-rule="evenodd" d="M20 19.9993C20.5523 19.9993 21 20.447 21 20.9993C21 21.5516 20.5523 21.9993 20 21.9993H4C3.44772 21.9993 3 21.5516 3 20.9993C3 20.447 3.44772 19.9993 4 19.9993H20ZM6.36914 2.22389C6.76191 1.90354 7.34092 1.92613 7.70703 2.29225L10.707 5.29225C11.0974 5.68278 11.0975 6.31584 10.707 6.70631C10.3166 7.0967 9.68348 7.09665 9.29297 6.70631L8 5.41334V16.9993C7.99987 17.5514 7.55217 17.9992 7 17.9993C6.44779 17.9993 6.00013 17.5515 6 16.9993V5.41334L4.70703 6.70631C4.31655 7.0967 3.68348 7.09665 3.29297 6.70631C2.90247 6.31581 2.90252 5.68278 3.29297 5.29225L6.29297 2.29225L6.36914 2.22389ZM16.3691 2.22389C16.7619 1.90354 17.3409 1.92613 17.707 2.29225L20.707 5.29225C21.0974 5.68278 21.0975 6.31584 20.707 6.70631C20.3166 7.0967 19.6835 7.09665 19.293 6.70631L18 5.41334V16.9993C17.9999 17.5514 17.5522 17.9992 17 17.9993C16.4478 17.9993 16.0001 17.5515 16 16.9993V5.41334L14.707 6.70631C14.3166 7.0967 13.6835 7.09665 13.293 6.70631C12.9025 6.31581 12.9025 5.68278 13.293 5.29225L16.293 2.29225L16.3691 2.22389Z" fill="currentColor" />
</svg>