<svg xmlns="http://www.w3.org/2000/svg" width="24" height="24" viewBox="0 0 24 24" fill="none">
    <path d="M20 2.125C21.5188 2.125 22.75 3.35622 22.75 4.875V8.875C22.75 10.3938 21.5188 11.625 20 11.625V6.125C20 5.43464 19.4404 4.875 18.75 4.875H5.25C4.55964 4.875 4 5.43464 4 6.125V11.625C2.48122 11.625 1.25 10.3938 1.25 8.875V4.875C1.25 3.35622 2.48122 2.125 4 2.125H20Z" fill="currentColor" />
    <path d="M18.75 6.125V18.875C18.75 20.3938 17.5188 21.625 16 21.625H8C6.48122 21.625 5.25 20.3938 5.25 18.875V6.125H18.75ZM12 9.125C11.5858 9.125 11.25 9.46079 11.25 9.875V10.625H11C10.0335 10.625 9.25 11.4085 9.25 12.375V12.875C9.25 13.8415 10.0335 14.625 11 14.625H13C13.1381 14.625 13.25 14.7369 13.25 14.875V15.375C13.25 15.5131 13.1381 15.625 13 15.625H10C9.58579 15.625 9.25 15.9608 9.25 16.375C9.25 16.7892 9.58579 17.125 10 17.125H11.25V17.875C11.25 18.2892 11.5858 18.625 12 18.625C12.4142 18.625 12.75 18.2892 12.75 17.875V17.125H13C13.9665 17.125 14.75 16.3415 14.75 15.375V14.875C14.75 13.9085 13.9665 13.125 13 13.125H11C10.8619 13.125 10.75 13.0131 10.75 12.875V12.375C10.75 12.2369 10.8619 12.125 11 12.125H14C14.4142 12.125 14.75 11.7892 14.75 11.375C14.75 10.9608 14.4142 10.625 14 10.625H12.75V9.875C12.75 9.46079 12.4142 9.125 12 9.125Z" fill="currentColor" />
</svg>