<svg xmlns="http://www.w3.org/2000/svg" width="24" height="24" viewBox="0 0 24 24" fill="none">
    <path d="M11.75 21.4211C16.3342 21.4211 20.1758 18.2575 21.2188 13.9953C21.9876 13.5085 22.5 12.6505 22.5 11.6711C22.5 10.6914 21.9878 9.83266 21.2188 9.34589C20.3561 5.82195 17.5795 3.0519 14.0527 2.19745C14.6309 2.84166 15 3.65497 15 4.67108C15 5.24874 14.8559 5.93449 14.4072 6.49139C13.9358 7.07634 13.2069 7.42108 12.25 7.42108C11.0381 7.42108 10.2896 6.53917 10.0537 5.9494C9.89999 5.56484 10.0871 5.12859 10.4717 4.97479C10.8562 4.82107 11.2925 5.00821 11.4463 5.39276C11.4758 5.4664 11.5654 5.61067 11.7178 5.73163C11.8601 5.84454 12.0359 5.92108 12.25 5.92108C12.8213 5.92108 13.0928 5.73173 13.2393 5.54999C13.4081 5.34025 13.5 5.02638 13.5 4.67108C13.5 3.59428 12.8134 2.7987 11.5137 2.23358C11.2879 2.13541 11.0481 2.04819 10.7979 1.96893C6.64128 2.37185 3.25032 5.38275 2.28027 9.34589C1.51157 9.83274 1 10.6917 1 11.6711C1 12.6502 1.51182 13.5084 2.28027 13.9953C3.32311 18.2576 7.16572 21.4211 11.75 21.4211ZM8.125 12.4211C7.73249 12.4211 7.43418 12.2073 7.25977 11.9748C7.08553 11.7425 7 11.4557 7 11.1711C7 10.8864 7.08553 10.5997 7.25977 10.3674C7.43419 10.1348 7.73249 9.92108 8.125 9.92108C8.51751 9.92108 8.81581 10.1348 8.99023 10.3674C9.16447 10.5997 9.25 10.8864 9.25 11.1711C9.25 11.4557 9.16447 11.7425 8.99023 11.9748C8.81582 12.2073 8.51751 12.4211 8.125 12.4211ZM15.375 12.4211C14.9825 12.4211 14.6842 12.2073 14.5098 11.9748C14.3355 11.7425 14.25 11.4557 14.25 11.1711C14.25 10.8864 14.3355 10.5997 14.5098 10.3674C14.6842 10.1348 14.9825 9.92108 15.375 9.92108C15.7675 9.92108 16.0658 10.1348 16.2402 10.3674C16.4145 10.5997 16.5 10.8864 16.5 11.1711C16.5 11.4557 16.4145 11.7425 16.2402 11.9748C16.0658 12.2073 15.7675 12.4211 15.375 12.4211ZM11.75 17.4211C10.6863 17.4211 9.74201 16.9089 9.15039 16.1213C8.90172 15.7901 8.96863 15.3202 9.2998 15.0715C9.631 14.8228 10.1009 14.8897 10.3496 15.2209C10.6701 15.6475 11.1782 15.9211 11.75 15.9211C12.3218 15.921 12.8299 15.6475 13.1504 15.2209C13.3991 14.8897 13.869 14.8228 14.2002 15.0715C14.5312 15.3202 14.5982 15.7901 14.3496 16.1213C13.758 16.9089 12.8137 17.421 11.75 17.4211Z" fill="currentColor" />
</svg>