<svg xmlns="http://www.w3.org/2000/svg" width="24" height="24" viewBox="0 0 24 24" fill="none">
    <path d="M4.75 22C4.75 20.4812 5.98122 19.25 7.5 19.25H10.5C11.1904 19.25 11.75 18.6904 11.75 18V17C11.75 16.5858 12.0858 16.25 12.5 16.25C12.9142 16.25 13.25 16.5858 13.25 17V18C13.25 19.5188 12.0188 20.75 10.5 20.75H7.5C6.80964 20.75 6.25 21.3096 6.25 22C6.25 22.4142 5.91421 22.75 5.5 22.75C5.08579 22.75 4.75 22.4142 4.75 22Z" fill="currentColor" />
    <path d="M19.25 8C19.25 10.4584 18.1653 12.8615 16.8525 14.6338C16.1926 15.5247 15.4556 16.283 14.7314 16.8262C14.0328 17.3501 13.2452 17.75 12.5 17.75C11.7548 17.75 10.9672 17.3501 10.2686 16.8262C9.54436 16.283 8.80743 15.5247 8.14746 14.6338C6.83469 12.8615 5.75 10.4584 5.75 8C5.75 4.27208 8.77208 1.25 12.5 1.25C16.2279 1.25 19.25 4.27208 19.25 8ZM13.25 5.5C13.9404 5.5 14.5 6.05964 14.5 6.75C14.5 7.16421 14.8358 7.5 15.25 7.5C15.6642 7.5 16 7.16421 16 6.75C16 5.23122 14.7688 4 13.25 4C12.8358 4 12.5 4.33579 12.5 4.75C12.5 5.16421 12.8358 5.5 13.25 5.5Z" fill="currentColor" />
</svg>