<svg xmlns="http://www.w3.org/2000/svg" width="24" height="24" viewBox="0 0 24 24" fill="none">
    <path d="M11.5001 20.5602L10.0607 21.9996C9.58046 22.4798 8.92922 22.7496 8.25012 22.7496C7.57102 22.7496 6.91979 22.4798 6.43958 21.9996L2.00012 17.5602C1.51994 17.0799 1.25012 16.4287 1.25012 15.7496C1.25012 15.0705 1.51994 14.4193 2.00012 13.9391L3.43958 12.4996L11.5001 20.5602ZM19.5001 12.5602L12.5607 19.4996L4.50012 11.4391L11.4396 4.4996L19.5001 12.5602ZM12.0001 13.4996C11.4478 13.4996 11.0001 13.9473 11.0001 14.4996C11.0001 15.0519 11.4478 15.4996 12.0001 15.4996C12.5524 15.4996 13.0001 15.0519 13.0001 14.4996C13.0001 13.9473 12.5524 13.4996 12.0001 13.4996ZM9.50012 10.9996C8.94784 10.9996 8.50012 11.4473 8.50012 11.9996C8.50012 12.5519 8.94784 12.9996 9.50012 12.9996C10.0524 12.9996 10.5001 12.5519 10.5001 11.9996C10.5001 11.4473 10.0524 10.9996 9.50012 10.9996ZM14.5001 10.9996C13.9478 10.9996 13.5001 11.4473 13.5001 11.9996C13.5001 12.5519 13.9478 12.9996 14.5001 12.9996C15.0524 12.9996 15.5001 12.5519 15.5001 11.9996C15.5001 11.4473 15.0524 10.9996 14.5001 10.9996ZM15.7501 1.2496C16.4292 1.2496 17.0805 1.51942 17.5607 1.9996L22.0001 6.43906C22.4803 6.91927 22.7501 7.5705 22.7501 8.2496C22.7501 8.92871 22.4803 9.57994 22.0001 10.0602L20.5607 11.4996L12.5001 3.43906L13.9396 1.9996C14.4198 1.51942 15.071 1.2496 15.7501 1.2496ZM12.0001 8.4996C11.4478 8.4996 11.0001 8.94732 11.0001 9.4996C11.0001 10.0519 11.4478 10.4996 12.0001 10.4996C12.5524 10.4996 13.0001 10.0519 13.0001 9.4996C13.0001 8.94732 12.5524 8.4996 12.0001 8.4996Z" fill="currentColor" />
</svg>