<svg xmlns="http://www.w3.org/2000/svg" width="24" height="24" viewBox="0 0 24 24" fill="none">
    <path d="M12.0004 3C12.6526 3 13.2491 3.35618 13.5599 3.92188L13.6175 4.03809L18.9095 15.583C19.1396 16.085 18.9192 16.679 18.4173 16.9092C17.9154 17.1393 17.3214 16.9189 17.0912 16.417L15.5248 13H8.47594L6.90954 16.417C6.67935 16.9189 6.08535 17.1393 5.58336 16.9092C5.08147 16.679 4.8611 16.085 5.09118 15.583L10.3832 4.03809L10.4408 3.92188C10.7516 3.35618 11.3481 3 12.0004 3ZM9.39196 11H14.6088L12.0004 5.30957L9.39196 11Z" fill="currentColor" />
    <path d="M20 19C20.5523 19 21 19.4477 21 20C21 20.5523 20.5523 21 20 21H4C3.44772 21 3 20.5523 3 20C3 19.4477 3.44772 19 4 19H20Z" fill="currentColor" />
</svg>