<svg xmlns="http://www.w3.org/2000/svg" width="24" height="24" viewBox="0 0 24 24" fill="none">
    <path d="M21.291 9.12598C22.1329 9.26819 22.7498 9.99769 22.7499 10.8516V13.1484C22.7497 14.0022 22.1329 14.7318 21.291 14.874L20.9999 14.9229V9.07617L21.291 9.12598Z" fill="currentColor" />
    <path d="M16.9999 5.25C18.5187 5.25 19.7499 6.48122 19.7499 8V16C19.7499 17.5188 18.5187 18.75 16.9999 18.75H3.99994C2.48116 18.75 1.24994 17.5188 1.24994 16V8C1.24994 6.48122 2.48116 5.25 3.99994 5.25H16.9999ZM10.4999 14.75C9.94765 14.75 9.49994 15.1977 9.49994 15.75C9.49994 16.3023 9.94765 16.75 10.4999 16.75C11.0522 16.75 11.4999 16.3023 11.4999 15.75C11.4999 15.1977 11.0522 14.75 10.4999 14.75ZM10.4999 7C9.94765 7 9.49994 7.44772 9.49994 8V12C9.49994 12.5523 9.94765 13 10.4999 13C11.0522 13 11.4999 12.5523 11.4999 12V8C11.4999 7.44772 11.0522 7 10.4999 7Z" fill="currentColor" />
</svg>