<svg xmlns="http://www.w3.org/2000/svg" width="24" height="24" viewBox="0 0 24 24" fill="none">
    <path d="M17 5.25C18.5188 5.25 19.75 6.48122 19.75 8V16C19.75 17.5188 18.5188 18.75 17 18.75H4C2.48122 18.75 1.25 17.5188 1.25 16V8C1.25 6.48122 2.48122 5.25 4 5.25H17ZM10.5 8C9.94772 8 9.5 8.44772 9.5 9V10.9951H7.50488C6.9526 10.9951 6.50488 11.4428 6.50488 11.9951C6.50502 12.5473 6.95268 12.9951 7.50488 12.9951H9.5V15C9.5 15.5523 9.94772 16 10.5 16C11.0522 15.9999 11.5 15.5523 11.5 15V12.9951H13.5049C14.0571 12.9951 14.5047 12.5473 14.5049 11.9951C14.5049 11.4428 14.0572 10.9951 13.5049 10.9951H11.5V9C11.5 8.44775 11.0522 8.00005 10.5 8Z" fill="currentColor" />
    <path d="M21.291 9.12598C22.133 9.26819 22.7498 9.99769 22.75 10.8516V13.1484C22.7497 14.0022 22.1329 14.7318 21.291 14.874L21 14.9229V9.07617L21.291 9.12598Z" fill="currentColor" />
</svg>