<svg xmlns="http://www.w3.org/2000/svg" width="24" height="24" viewBox="0 0 24 24" fill="none">
    <path fill-rule="evenodd" clip-rule="evenodd" d="M10.7703 4.59211C12.137 2.86188 14.3911 1.9258 16.7107 2.35188C20.0508 2.96564 22.2608 6.17088 21.6473 9.51105C20.5154 15.6723 15.6728 20.5149 9.51152 21.6468C6.17135 22.2603 2.96611 20.0503 2.35234 16.7103C1.92632 14.3909 2.86175 12.1366 4.5916 10.7698C5.29357 12.5163 7.00229 13.7493 8.9998 13.7493C11.6232 13.7493 13.7498 11.6227 13.7498 8.99934C13.7497 7.00211 12.5164 5.29417 10.7703 4.59211ZM9.98027 5.89973C11.296 6.31547 12.2497 7.54619 12.2498 8.99934C12.2498 10.7943 10.7947 12.2493 8.9998 12.2493C7.54649 12.2493 6.31592 11.2957 5.9002 9.9798C6.33537 9.78661 6.79995 9.64094 7.28887 9.55109C8.42828 9.3418 9.34227 8.42781 9.55156 7.2884C9.64141 6.79948 9.78708 6.3349 9.98027 5.89973Z" fill="currentColor" />
</svg>