<svg xmlns="http://www.w3.org/2000/svg" width="24" height="24" viewBox="0 0 24 24" fill="none">
    <path fill-rule="evenodd" clip-rule="evenodd" d="M15 8.74997V11.25C15 12.7688 13.7688 14 12.25 14C10.7312 14 9.5 12.7688 9.5 11.25V8.74997H6.5H6.26367C5.79856 8.74997 5.35323 8.58818 5 8.30054V10.5947C5.00003 11.4534 5.16352 12.3043 5.48242 13.1015L6.33887 15.2402C6.77591 16.3328 6.99999 17.499 7 18.6757V20.75C7 21.7165 7.7835 22.5 8.75 22.5H14.75C15.7165 22.5 16.5 21.7165 16.5 20.75V18.6757C16.5 17.499 16.7241 16.3328 17.1611 15.2402L18.0176 13.1015C18.3365 12.3043 18.5 11.4534 18.5 10.5947V8.32241C18.1513 8.59637 17.7169 8.74997 17.2637 8.74997H17H15Z" fill="currentColor" />
    <path d="M17.8633 7.2002C18.2713 6.65695 18.5136 5.98077 18.5136 5.25C18.5136 3.45507 17.0586 2 15.2636 2C14.9742 2 14.6928 2.03792 14.4248 2.10938C13.746 1.42553 12.8048 1 11.7636 1C10.7223 1 9.78031 1.42524 9.10153 2.10938C8.83375 2.03807 8.55279 2 8.26364 2C6.46872 2 5.01364 3.45507 5.01364 5.25C5.01364 5.98077 5.256 6.65695 5.66403 7.2002C5.80569 7.38879 6.02776 7.5 6.26364 7.5H10.75V11.25C10.75 12.0784 11.4216 12.75 12.25 12.75C13.0784 12.75 13.75 12.0784 13.75 11.25V7.5H17.2636C17.4995 7.5 17.7216 7.38879 17.8633 7.2002Z" fill="currentColor" />
</svg>