<svg xmlns="http://www.w3.org/2000/svg" width="24" height="24" viewBox="0 0 24 24" fill="none">
    <path d="M21.0005 8.12548C21.0005 6.07119 20.2887 4.26896 19.1831 2.70262C18.8646 2.25146 18.9722 1.62661 19.4233 1.30809C19.8745 0.989627 20.4993 1.09723 20.8179 1.54833C22.1122 3.38196 23.0005 5.57982 23.0005 8.12548C23.0005 8.67776 22.5528 9.12548 22.0005 9.12548C21.4482 9.12548 21.0005 8.67776 21.0005 8.12548Z" fill="currentColor" />
    <path d="M1 8.12548C1 5.57982 1.88829 3.38196 3.18262 1.54833C3.50114 1.09723 4.12599 0.989627 4.57715 1.30809C5.02825 1.62661 5.13585 2.25146 4.81738 2.70262C3.71176 4.26896 3 6.07119 3 8.12548C3 8.67776 2.55228 9.12548 2 9.12548C1.44772 9.12548 1 8.67776 1 8.12548Z" fill="currentColor" />
    <path d="M16.6912 18.876H20.458C20.8095 18.876 21.153 18.773 21.4463 18.5801C21.7397 18.3871 21.9698 18.1122 22.1104 17.791C22.2508 17.47 22.2958 17.1153 22.2402 16.7695C22.1847 16.4236 22.0307 16.1006 21.7959 15.8398L21.7803 15.8223L21.2793 15.2852C20.7966 14.7434 20.3714 14.168 20.0313 13.3857C19.5753 12.337 19.2501 10.8583 19.25 8.52637C19.2497 4.57796 16.049 1.37622 12.1006 1.37598H11.9004C7.95162 1.37598 4.75001 4.57759 4.75001 8.52637C4.74997 10.8599 4.43073 12.3394 3.98048 13.3887C3.53317 14.431 2.93431 15.1054 2.24806 15.8213L2.23243 15.8379C1.99753 16.0982 1.84318 16.421 1.78712 16.7666C1.73112 17.1124 1.77593 17.4678 1.91603 17.7891C2.05623 18.1104 2.28594 18.3858 2.57911 18.5791C2.87242 18.7725 3.2167 18.8757 3.56837 18.876H7.30895H8.83704H15.1631H16.6912Z" fill="currentColor" />
    <path fill-rule="evenodd" clip-rule="evenodd" d="M7.68945 20.125C8.44439 21.749 10.0903 22.875 11.9991 22.875C13.908 22.875 15.5539 21.749 16.3088 20.125H7.68945Z" fill="currentColor" />
</svg>