<svg xmlns="http://www.w3.org/2000/svg" width="24" height="24" viewBox="0 0 24 24" fill="none">
    <path d="M16.9276 18.7494H20.6945C21.0459 18.7494 21.3894 18.6464 21.6828 18.4535C21.9762 18.2605 22.2063 17.9856 22.3468 17.6644C22.4873 17.3434 22.5323 16.9888 22.4767 16.6429C22.4212 16.297 22.2671 15.974 22.0324 15.7133L22.0168 15.6957L21.5158 15.1586C21.0331 14.6168 20.6079 14.0414 20.2677 13.2592C19.8118 12.2104 19.4865 10.7317 19.4865 8.39978C19.4862 4.45137 16.2855 1.24964 12.3371 1.24939H12.1369C8.1881 1.24939 4.98649 4.451 4.98649 8.39978C4.98645 10.7334 4.66721 12.2128 4.21696 13.2621C3.76965 14.3044 3.17079 14.9788 2.48454 15.6947L2.46892 15.7113C2.23401 15.9716 2.07966 16.2944 2.0236 16.64C1.9676 16.9858 2.01241 17.3412 2.15251 17.6625C2.29271 17.9838 2.52242 18.2592 2.8156 18.4525C3.10891 18.6459 3.45318 18.7491 3.80485 18.7494H7.54543H9.07352H15.3995H16.9276Z" fill="currentColor" />
    <path fill-rule="evenodd" clip-rule="evenodd" d="M7.92593 19.9994C8.68087 21.6234 10.3267 22.7494 12.2356 22.7494C14.1445 22.7494 15.7904 21.6234 16.5453 19.9994H7.92593Z" fill="currentColor" />
</svg>