<svg xmlns="http://www.w3.org/2000/svg" width="24" height="24" viewBox="0 0 24 24" fill="none">
    <path d="M15.2365 7.99994H21.2365M18.2315 11.0049L18.2314 5.00494" stroke="currentColor" stroke-width="2" stroke-linecap="round" stroke-linejoin="round" />
    <path fill-rule="evenodd" clip-rule="evenodd" d="M20.6944 18.7499H16.9276H15.3995H9.07346H7.54537H3.80479C3.45312 18.7497 3.10884 18.6465 2.81553 18.4531C2.52236 18.2597 2.29265 17.9844 2.15245 17.663C2.01235 17.3418 1.96754 16.9864 2.02354 16.6406C2.0796 16.2949 2.23395 15.9721 2.46885 15.7119L2.48448 15.6953C3.17073 14.9793 3.76959 14.305 4.2169 13.2626C4.66715 12.2134 4.98639 10.7339 4.98643 8.40033C4.98643 4.45155 8.18804 1.24994 12.1368 1.24994H12.337C14.1638 1.25005 15.8305 1.93544 17.0942 3.06299C16.4285 3.45374 15.9815 4.17708 15.9815 5.00482V5.74994H15.2364C13.9937 5.74994 12.9864 6.7573 12.9864 7.99994C12.9865 9.24253 13.9938 10.2499 15.2364 10.2499H15.9815V11.0048C15.9815 12.2475 16.9889 13.2548 18.2315 13.2548C18.9306 13.2548 19.5553 12.9359 19.968 12.4356C20.0588 12.7382 20.1596 13.0111 20.2677 13.2597C20.6078 14.0419 21.0331 14.6174 21.5157 15.1591L22.0167 15.6962L22.0323 15.7138C22.2671 15.9745 22.4211 16.2975 22.4767 16.6435C22.5322 16.9893 22.4872 17.344 22.3468 17.665C22.2062 17.9861 21.9761 18.2611 21.6827 18.454C21.3894 18.647 21.0459 18.75 20.6944 18.7499Z" fill="currentColor" />
    <path fill-rule="evenodd" clip-rule="evenodd" d="M7.92587 19.9999C8.68081 21.624 10.3267 22.7499 12.2355 22.7499C14.1444 22.7499 15.7903 21.624 16.5452 19.9999H7.92587Z" fill="currentColor" />
</svg>