<svg xmlns="http://www.w3.org/2000/svg" width="24" height="24" viewBox="0 0 24 24" fill="none">
    <path fill-rule="evenodd" clip-rule="evenodd" d="M20.6943 18.7496H16.9275H15.3994H9.07334H7.54524H3.80467C3.453 18.7494 3.10872 18.6462 2.81541 18.4528C2.52224 18.2594 2.29253 17.9841 2.15233 17.6627C2.01223 17.3415 1.96742 16.9861 2.02342 16.6403C2.07948 16.2946 2.23383 15.9718 2.46873 15.7115L2.48436 15.6949C3.17061 14.979 3.76947 14.3047 4.21678 13.2623C4.66703 12.2131 4.98627 10.7336 4.98631 8.40002C4.98631 4.45124 8.18792 1.24963 12.1367 1.24963H12.3369C15.3489 1.24982 17.9258 3.11303 18.9788 5.74954H15.2364C13.9937 5.74954 12.9864 6.7569 12.9864 7.99954C12.9864 9.24218 13.9937 10.2495 15.2364 10.2495H19.566C19.6893 11.5658 19.9459 12.5196 20.2676 13.2594C20.6077 14.0416 21.0329 14.6171 21.5156 15.1588L22.0166 15.6959L22.0322 15.7135C22.267 15.9742 22.421 16.2972 22.4765 16.6432C22.5321 16.989 22.4871 17.3437 22.3467 17.6647C22.2061 17.9858 21.976 18.2607 21.6826 18.4537C21.3893 18.6467 21.0457 18.7497 20.6943 18.7496Z" fill="currentColor" />
    <path fill-rule="evenodd" clip-rule="evenodd" d="M7.92578 19.9995C8.68072 21.6235 10.3266 22.7495 12.2355 22.7495C14.1443 22.7495 15.7902 21.6235 16.5451 19.9995H7.92578Z" fill="currentColor" />
    <path d="M21.2363 6.99951C21.7886 6.99951 22.2363 7.44723 22.2363 7.99951C22.2363 8.5518 21.7886 8.99951 21.2363 8.99951H15.2363C14.684 8.99951 14.2363 8.5518 14.2363 7.99951C14.2363 7.44723 14.684 6.99951 15.2363 6.99951H21.2363Z" fill="currentColor" />
</svg>