<svg xmlns="http://www.w3.org/2000/svg" width="24" height="24" viewBox="0 0 24 24" fill="none">
    <path d="M14.0001 12C14.0001 11.5858 13.6643 11.25 13.2501 11.25H12.5001V12.75H13.2501C13.6643 12.75 14.0001 12.4142 14.0001 12Z" fill="currentColor" />
    <path fill-rule="evenodd" clip-rule="evenodd" d="M11.7501 4.25002C13.7553 4.25002 15.4692 5.49293 16.1661 7.25002H21.7501C22.1643 7.25002 22.5001 7.5858 22.5001 8.00002V16C22.5001 16.1989 22.421 16.3896 22.2804 16.5303C22.1397 16.6709 21.949 16.75 21.7501 16.75H16.1661C15.4692 18.5071 13.7553 19.75 11.7501 19.75H7.75012C6.23134 19.75 5.00012 18.5188 5.00012 17V16.75H1.75012C1.33591 16.75 1.00012 16.4142 1.00012 16V8.00002C1.00012 7.5858 1.33591 7.25002 1.75012 7.25002H5.00012V7.00002C5.00012 5.48123 6.23134 4.25002 7.75012 4.25002H11.7501ZM7.75012 5.75002C7.05977 5.75002 6.50012 6.30966 6.50012 7.00002V7.25002H10.7501C11.7166 7.25002 12.5001 8.03352 12.5001 9.00002V11.25H8.75012C8.33591 11.25 8.00012 11.5858 8.00012 12C8.00012 12.4142 8.33591 12.75 8.75012 12.75H12.5001V15C12.5001 15.9665 11.7166 16.75 10.7501 16.75H6.50012V17C6.50012 17.6904 7.05977 18.25 7.75012 18.25H11.7501C13.545 18.25 15.0001 16.7949 15.0001 15V9.00002C15.0001 7.20509 13.545 5.75002 11.7501 5.75002H7.75012ZM3.75208 11C3.19979 11 2.75208 11.4477 2.75208 12C2.75208 12.5523 3.19979 13 3.75208 13C4.30436 13 4.75208 12.5523 4.75208 12C4.75208 11.4477 4.30436 11 3.75208 11ZM19.7521 11C19.1998 11 18.7521 11.4477 18.7521 12C18.7521 12.5523 19.1998 13 19.7521 13C20.3044 13 20.7521 12.5523 20.7521 12C20.7521 11.4477 20.3044 11 19.7521 11Z" fill="currentColor" />
</svg>