<svg xmlns="http://www.w3.org/2000/svg" width="24" height="24" viewBox="0 0 24 24" fill="none">
    <path d="M14.0428 1.41789C14.4334 1.02737 15.0664 1.02737 15.4569 1.41789C15.8474 1.80842 15.8474 2.44143 15.4569 2.83196L12.4569 5.83196C12.2694 6.01949 12.0151 6.12493 11.7499 6.12492C11.4846 6.12492 11.2304 6.01949 11.0428 5.83196L8.04283 2.83196C7.65231 2.44143 7.65231 1.80842 8.04283 1.41789C8.43336 1.02737 9.06637 1.02737 9.45689 1.41789L11.7499 3.71086L14.0428 1.41789Z" fill="currentColor" />
    <path d="M21.4998 20.125C21.4998 21.6438 20.2686 22.875 18.7498 22.875H15.7498C14.2311 22.875 12.9998 21.6438 12.9998 20.125V10.125C12.9998 8.60622 14.2311 7.375 15.7498 7.375H18.7498C20.2686 7.375 21.4998 8.60622 21.4998 10.125V20.125Z" fill="currentColor" />
    <path d="M10.4998 20.125C10.4998 21.6438 9.26863 22.875 7.74985 22.875H4.74985C3.23106 22.875 1.99985 21.6438 1.99985 20.125V10.125C1.99985 8.60622 3.23106 7.375 4.74985 7.375H7.74985C9.26863 7.375 10.4998 8.60622 10.4998 10.125V20.125Z" fill="currentColor" />
</svg>