<svg xmlns="http://www.w3.org/2000/svg" width="24" height="24" viewBox="0 0 24 24" fill="none">
    <path d="M9.5 17C9.5 19.3472 7.59721 21.25 5.25 21.25C2.90279 21.25 1 19.3472 1 17C1 14.6528 2.90279 12.75 5.25 12.75C7.59721 12.75 9.5 14.6528 9.5 17Z" fill="currentColor" />
    <path d="M22.5 17C22.5 19.3472 20.5972 21.25 18.25 21.25C15.9028 21.25 14 19.3472 14 17C14 14.6528 15.9028 12.75 18.25 12.75C20.5972 12.75 22.5 14.6528 22.5 17Z" fill="currentColor" />
    <path d="M13 4.5C13 3.5335 13.7835 2.75 14.75 2.75C15.7165 2.75 16.5 3.5335 16.5 4.5C16.5 5.4665 15.7165 6.25 14.75 6.25C13.7835 6.25 13 5.4665 13 4.5Z" fill="currentColor" />
    <path d="M10.75 18.5V14.9141L8.39648 12.5605C7.9826 12.1466 7.75 11.5853 7.75 11C7.75 10.4147 7.9826 9.85336 8.39648 9.43945L10.6895 7.14648C11.1034 6.7326 11.6647 6.5 12.25 6.5C12.8353 6.5 13.3966 6.7326 13.8105 7.14648L16.1641 9.5H18.75C19.3023 9.5 19.75 9.94772 19.75 10.5C19.75 11.0523 19.3023 11.5 18.75 11.5H15.75C15.4848 11.5 15.2305 11.3946 15.043 11.207L13.5 9.66406L10.9141 12.25L12.457 13.793C12.6446 13.9805 12.75 14.2348 12.75 14.5V18.5C12.75 19.0523 12.3023 19.5 11.75 19.5C11.1977 19.5 10.75 19.0523 10.75 18.5Z" fill="currentColor" />
</svg>