<svg xmlns="http://www.w3.org/2000/svg" width="24" height="24" viewBox="0 0 24 24" fill="none">
    <path d="M17 1.25C18.5188 1.25 19.75 2.48122 19.75 4L19.75 20C19.75 21.5188 18.5188 22.75 17 22.75L7 22.75C5.48122 22.75 4.25 21.5188 4.25 20L4.25 4C4.25 2.48122 5.48122 1.25 7 1.25L17 1.25ZM12 18C11.4477 18 11 18.4477 11 19C11 19.5523 11.4477 20 12 20C12.5523 20 13 19.5523 13 19C13 18.4477 12.5523 18 12 18ZM12 5.25C9.92893 5.25 8.25 6.92893 8.25 9L8.25 11C8.25 13.0711 9.92893 14.75 12 14.75C12.4142 14.75 12.75 14.4142 12.75 14C12.75 13.5858 12.4142 13.25 12 13.25C10.7574 13.25 9.75 12.2426 9.75 11L9.75 9C9.75 7.75736 10.7574 6.75 12 6.75C13.2426 6.75 14.25 7.75736 14.25 9V11C14.25 11.4142 14.5858 11.75 15 11.75C15.4142 11.75 15.75 11.4142 15.75 11V9C15.75 6.92893 14.0711 5.25 12 5.25ZM12 8.25C11.5858 8.25 11.25 8.58579 11.25 9L11.25 11C11.25 11.4142 11.5858 11.75 12 11.75C12.4142 11.75 12.75 11.4142 12.75 11V9C12.75 8.58579 12.4142 8.25 12 8.25Z" fill="currentColor" />
</svg>