<svg xmlns="http://www.w3.org/2000/svg" width="24" height="24" viewBox="0 0 24 24" fill="none">
    <path fill-rule="evenodd" clip-rule="evenodd" d="M12.0003 1.2496C12.5188 1.24965 13.025 1.40451 13.4486 1.69199L21.3373 7.0455C21.7771 7.34409 21.8821 7.93018 21.5716 8.35312C21.2611 8.7758 20.652 8.87615 20.2123 8.57773L19.556 8.13242L17.9447 16.9996H18.4994C19.0517 16.9996 19.4994 17.4473 19.4994 17.9996C19.4994 18.5519 19.0517 18.9996 18.4994 18.9996H13.0003V21.7496C13.0003 22.3018 12.5525 22.7495 12.0003 22.7496C11.4481 22.7496 11.0003 22.3019 11.0003 21.7496V18.9996H5.49937C4.94731 18.9993 4.49937 18.5517 4.49937 17.9996C4.49937 17.4475 4.94731 16.9999 5.49937 16.9996H6.05601L4.44371 8.13242L3.78843 8.57773C3.34873 8.87617 2.7397 8.77562 2.42906 8.35312C2.11863 7.93027 2.22288 7.34415 2.66246 7.0455L10.5521 1.69199C10.9757 1.40447 11.4818 1.2496 12.0003 1.2496ZM11.9994 13.4996C11.4473 13.4999 10.9994 13.9475 10.9994 14.4996C10.9996 15.0516 11.4474 15.4993 11.9994 15.4996C12.5515 15.4996 12.9992 15.0517 12.9994 14.4996C12.9994 13.9473 12.5517 13.4996 11.9994 13.4996ZM11.9994 6.2496C10.4808 6.24989 9.24937 7.481 9.24937 8.9996C9.24956 10.5181 10.4809 11.7493 11.9994 11.7496C13.518 11.7496 14.7492 10.5182 14.7494 8.9996C14.7494 7.48082 13.5182 6.2496 11.9994 6.2496Z" fill="currentColor" />
</svg>