<svg xmlns="http://www.w3.org/2000/svg" width="24" height="24" viewBox="0 0 24 24" fill="none">
    <path d="M16.75 1C18.2686 1.00005 19.4998 2.23141 19.5 3.75V19.75C19.5 21.2688 18.2688 22.5 16.75 22.5H6.75C5.23124 22.5 4.00004 21.2688 4 19.75V3.75C4 2.23121 5.23122 1 6.75 1H16.75ZM11.75 17.75C11.1977 17.75 10.75 18.1977 10.75 18.75C10.75 19.3023 11.1977 19.75 11.75 19.75C12.3023 19.75 12.75 19.3023 12.75 18.75C12.75 18.1977 12.3023 17.75 11.75 17.75ZM11.75 3.75C11.1977 3.75 10.75 4.19772 10.75 4.75V5.25H8.75C8.19772 5.25 7.75 5.69772 7.75 6.25C7.75 6.80228 8.19772 7.25 8.75 7.25V12.25C8.19772 12.25 7.75 12.6977 7.75 13.25C7.75 13.8023 8.19772 14.25 8.75 14.25H10.75V14.75C10.75 15.3023 11.1977 15.75 11.75 15.75C12.3023 15.75 12.75 15.3023 12.75 14.75V14.25H13.25C14.6307 14.25 15.75 13.1307 15.75 11.75V11.25C15.75 10.5293 15.443 9.88202 14.9551 9.42578C15.1424 9.07514 15.25 8.67533 15.25 8.25V7.75C15.25 6.36929 14.1307 5.25 12.75 5.25V4.75C12.75 4.19772 12.3023 3.75 11.75 3.75ZM13.25 10.75C13.5261 10.75 13.75 10.9739 13.75 11.25V11.75C13.75 12.0261 13.5261 12.25 13.25 12.25H10.75V10.75H13.25ZM12.75 7.25C13.0261 7.25 13.25 7.47386 13.25 7.75V8.25C13.25 8.52614 13.0261 8.75 12.75 8.75H10.75V7.25H12.75Z" fill="currentColor" />
</svg>