<svg xmlns="http://www.w3.org/2000/svg" width="24" height="24" viewBox="0 0 24 24" fill="none">
    <path d="M19.5 17.25C19.5 16.9739 19.2762 16.75 19 16.75H16.5V18.25H19C19.2762 18.25 19.5 18.0261 19.5 17.75V17.25ZM19 13.75C19 13.4739 18.7762 13.25 18.5 13.25H16.5V14.75H18.5C18.7762 14.75 19 14.5261 19 14.25V13.75ZM21 14.25C21 14.6753 20.8925 15.0751 20.7051 15.4258C21.193 15.882 21.5 16.5293 21.5 17.25V17.75C21.5 19.1307 20.3807 20.25 19 20.25H18.5V20.75C18.5 21.3023 18.0523 21.75 17.5 21.75C16.9477 21.75 16.5 21.3023 16.5 20.75V20.25H14.5C13.9477 20.25 13.5 19.8023 13.5 19.25C13.5 18.6977 13.9477 18.25 14.5 18.25V13.25C13.9477 13.25 13.5 12.8023 13.5 12.25C13.5 11.6977 13.9477 11.25 14.5 11.25H16.5V10.75C16.5 10.1977 16.9477 9.75 17.5 9.75C18.0523 9.75 18.5 10.1977 18.5 10.75V11.25C19.8807 11.25 21 12.3693 21 13.75V14.25Z" fill="currentColor" />
    <path d="M7.75003 1C10.9257 1 13.5 3.57436 13.5 6.75C13.5 8.93007 12.2856 10.8231 10.5 11.7979V15.25L8.75003 16.75L10.5 18.25V19.75C10.5 19.9489 10.421 20.1396 10.2803 20.2803L8.2803 22.2803C7.98741 22.5732 7.51265 22.5732 7.21976 22.2803L5.21976 20.2803C5.0791 20.1396 5.00003 19.9489 5.00003 19.75V11.7979C3.21442 10.8231 2.00003 8.93007 2.00003 6.75C2.00003 3.57436 4.57439 1 7.75003 1ZM7.75003 5.25C6.9216 5.25 6.25003 5.92158 6.25003 6.75C6.25003 7.57843 6.9216 8.25 7.75003 8.25C8.57845 8.25 9.25003 7.57843 9.25003 6.75C9.25003 5.97334 8.65975 5.33461 7.90335 5.25781L7.75003 5.25Z" fill="currentColor" />
</svg>