<svg xmlns="http://www.w3.org/2000/svg" width="24" height="24" viewBox="0 0 24 24" fill="none">
    <path d="M11.5683 2.0987C11.9147 1.93231 12.3259 1.9789 12.626 2.21882L17.625 6.21882C17.8469 6.39643 17.9822 6.66058 17.998 6.9444C18.0137 7.22839 17.9081 7.50598 17.707 7.7071L13.414 12.0001L17.707 16.293C17.9081 16.4942 18.0137 16.7717 17.998 17.0557C17.9822 17.3395 17.8469 17.6037 17.625 17.7813L12.626 21.7813C12.3259 22.0212 11.9147 22.0678 11.5683 21.9014C11.2218 21.7349 11.001 21.3845 11.001 21.0001V14.4132L7.70702 17.7071C7.31649 18.0976 6.68348 18.0976 6.29295 17.7071C5.90243 17.3166 5.90243 16.6836 6.29295 16.293L10.5859 12.0001L6.29295 7.7071C5.90243 7.31658 5.90244 6.68356 6.29295 6.29304C6.68348 5.90251 7.31649 5.90251 7.70702 6.29304L11.001 9.58698V3.00007C11.001 2.61564 11.2218 2.26521 11.5683 2.0987ZM13.001 18.919L15.5019 16.9161L13.001 14.4151V18.919ZM13.001 9.58503L15.5029 7.0821L13.001 5.08015V9.58503Z" fill="currentColor" />
    <path d="M18 11C18.5523 11 19 11.4477 19 12C19 12.5523 18.5523 13 18 13H17C16.4477 13 16 12.5523 16 12C16 11.4477 16.4477 11 17 11H18Z" fill="currentColor" />
    <path d="M7 11C7.55228 11 8 11.4477 8 12C8 12.5523 7.55228 13 7 13H6C5.44772 13 5 12.5523 5 12C5 11.4477 5.44772 11 6 11H7Z" fill="currentColor" />
</svg>