<svg xmlns="http://www.w3.org/2000/svg" width="24" height="24" viewBox="0 0 24 24" fill="none">
    <path d="M11.5293 2.11816C11.8545 1.94415 12.2498 1.96336 12.5566 2.16797L18.5547 6.16797C18.817 6.34293 18.9821 6.63139 18.999 6.94629C19.0158 7.2613 18.8829 7.56658 18.6406 7.76856L13.5625 12L18.6406 16.2314C18.8829 16.4334 19.0158 16.7387 18.999 17.0537C18.9821 17.3686 18.817 17.6571 18.5547 17.832L12.5566 21.832C12.2498 22.0366 11.8545 22.0558 11.5293 21.8818C11.2042 21.7078 11.0009 21.3687 11.0009 21V14.1348L6.6406 17.7686C6.21635 18.1221 5.585 18.0648 5.23142 17.6406C4.87788 17.2164 4.93516 16.585 5.35935 16.2314L10.4365 12L5.35935 7.76856C4.93514 7.41498 4.87788 6.78363 5.23142 6.35938C5.58499 5.93517 6.21635 5.8779 6.6406 6.23145L11.0009 9.86426V3C11.0009 2.63125 11.2042 2.2922 11.5293 2.11816ZM13.0009 19.1309L16.3301 16.9111L13.0009 14.1357V19.1309ZM13.0009 9.86328L16.3301 7.08789L13.0009 4.86816V9.86328Z" fill="currentColor" />
    <path d="M5.35214 11.0048C5.85627 11.0561 6.2496 11.4822 6.2496 11.9999C6.2496 12.5522 5.80188 12.9999 5.2496 12.9999C4.69732 12.9999 4.2496 12.5522 4.2496 11.9999C4.2496 11.4476 4.69732 10.9999 5.2496 10.9999L5.35214 11.0048ZM18.7496 10.9999C19.3019 10.9999 19.7496 11.4476 19.7496 11.9999C19.7496 12.5522 19.3019 12.9999 18.7496 12.9999C18.1973 12.9999 17.7496 12.5522 17.7496 11.9999C17.7496 11.4476 18.1973 10.9999 18.7496 10.9999Z" fill="currentColor" />
</svg>