<svg xmlns="http://www.w3.org/2000/svg" width="24" height="24" viewBox="0 0 24 24" fill="none">
    <path fill-rule="evenodd" clip-rule="evenodd" d="M5 12V5C5 3.89543 5.89543 3 7 3H13C15.7614 3 18 5.23858 18 8C18 9.43071 17.3991 10.7211 16.4359 11.6325C17.9657 12.4875 19 14.123 19 16C19 18.7614 16.7614 21 14 21H7C5.89543 21 5 20.1046 5 19V12ZM13 11C14.6569 11 16 9.65685 16 8C16 6.34315 14.6569 5 13 5H7V11H13ZM17 16C17 17.6569 15.6569 19 14 19H7V13H13H14C15.6569 13 17 14.3431 17 16Z" fill="currentColor" />
</svg>