<svg xmlns="http://www.w3.org/2000/svg" width="24" height="24" viewBox="0 0 24 24" fill="none">
    <path d="M19.5 20.7451C19.5 21.5761 18.8261 22.25 17.9951 22.25C17.6772 22.2499 17.3674 22.1489 17.1104 21.9619L12.2129 18.4004C12.0783 18.3026 11.9163 18.25 11.75 18.25C11.5837 18.25 11.4217 18.3026 11.2871 18.4004L6.38965 21.9619C6.13255 22.1489 5.82278 22.2499 5.50488 22.25C4.67391 22.25 4 21.5761 4 20.7451V4.5C4 2.98122 5.23122 1.75 6.75 1.75H16.75C18.2688 1.75 19.5 2.98122 19.5 4.5V20.7451ZM10.751 10.4951V12.5C10.751 13.0523 11.1987 13.5 11.751 13.5C12.3032 13.4999 12.751 13.0522 12.751 12.5V10.4951H14.7559C15.3081 10.4951 15.7558 10.0473 15.7559 9.49512C15.7559 8.94283 15.3081 8.49512 14.7559 8.49512H12.751V6.5C12.751 5.94775 12.3032 5.50006 11.751 5.5C11.1987 5.5 10.751 5.94772 10.751 6.5V8.49512H8.75586C8.20357 8.49512 7.75586 8.94283 7.75586 9.49512C7.75592 10.0473 8.20361 10.4951 8.75586 10.4951H10.751Z" fill="currentColor" />
</svg>