<svg xmlns="http://www.w3.org/2000/svg" width="24" height="24" viewBox="0 0 24 24" fill="none">
    <path d="M15.75 2.125C15.75 1.57272 16.1978 1.125 16.75 1.125C17.3023 1.125 17.75 1.57272 17.75 2.125V6.71094L19.043 5.41797C19.4335 5.02744 20.0666 5.02744 20.4571 5.41797C20.8476 5.80849 20.8476 6.44151 20.4571 6.83203L17.4571 9.83203C17.0666 10.2226 16.4335 10.2226 16.043 9.83203L13.043 6.83203C12.6525 6.44151 12.6525 5.80849 13.043 5.41797C13.4335 5.02744 14.0666 5.02744 14.4571 5.41797L15.75 6.71094V2.125Z" fill="currentColor" />
    <path fill-rule="evenodd" clip-rule="evenodd" d="M14.5001 2.125C14.5001 1.86202 14.5452 1.60958 14.6281 1.375H5.91705C4.30628 1.375 3.00016 2.68752 3.00006 4.30664V19.9434C3.00016 21.5625 4.30628 22.875 5.91705 22.875H19.5274C20.0643 22.875 20.5001 22.4372 20.5001 21.8975C20.4999 21.3579 20.0643 20.9209 19.5274 20.9209H19.4376C19.4072 20.8848 19.3745 20.8448 19.3428 20.8008C19.1755 20.5684 19.0421 20.277 19.0421 19.9434C19.0421 19.6095 19.1754 19.3174 19.3428 19.085C19.3745 19.0411 19.4072 19.0018 19.4376 18.9658H19.5274C20.0643 18.9658 20.5001 18.528 20.5001 17.9883V8.55664L18.3409 10.7158C17.4622 11.5945 16.0379 11.5945 15.1592 10.7158L12.1592 7.71582C11.2806 6.83714 11.2806 5.41286 12.1592 4.53418C12.7925 3.90089 13.7084 3.72629 14.5001 4.00586V2.125ZM4.9444 19.9424C4.9444 19.4027 5.38011 18.9648 5.91705 18.9648H17.2501C17.1582 19.2564 17.0977 19.5834 17.0977 19.9424C17.0977 20.3011 17.1583 20.6275 17.2501 20.9189H5.91705C5.3802 20.9189 4.94454 20.482 4.9444 19.9424Z" fill="currentColor" />
</svg>