<svg xmlns="http://www.w3.org/2000/svg" width="24" height="24" viewBox="0 0 24 24" fill="none">
    <path fill-rule="evenodd" clip-rule="evenodd" d="M18.667 2.25001C19.9201 2.25005 21.1255 2.45929 22.2461 2.84864C22.5099 2.94031 22.6973 3.16983 22.7402 3.43946L22.75 3.55763V19.46C22.75 19.7027 22.6323 19.9306 22.4346 20.0713C22.2368 20.2119 21.9831 20.2476 21.7539 20.168L21.3887 20.0498C20.5296 19.7908 19.6147 19.6514 18.666 19.6514C16.4989 19.6483 14.406 20.3951 12.75 21.75V3.99317C14.4968 2.8596 16.5529 2.2472 18.667 2.25001ZM19.417 13.7451C18.0581 13.7433 16.7234 13.9954 15.4795 14.4766C15.0932 14.626 14.9013 15.06 15.0508 15.4463C15.2003 15.8326 15.6342 16.0244 16.0205 15.875C17.0924 15.4604 18.2438 15.2435 19.416 15.2451H19.417C19.5203 15.2451 19.6232 15.2467 19.7256 15.25C20.1395 15.2633 20.4866 14.9383 20.5 14.5244C20.5133 14.1106 20.1882 13.7635 19.7744 13.75C19.6559 13.7462 19.5364 13.7451 19.417 13.7451ZM19.417 10.25C18.0582 10.2482 16.7233 10.5003 15.4795 10.9815C15.0932 11.1309 14.9013 11.5658 15.0508 11.9522C15.2003 12.3383 15.6343 12.5302 16.0205 12.3809C17.0924 11.9662 18.2438 11.7484 19.416 11.75H19.417C19.5203 11.75 19.6232 11.7516 19.7256 11.7549C20.1394 11.7681 20.4865 11.444 20.5 11.0303C20.5133 10.6164 20.1882 10.2694 19.7744 10.2559C19.6559 10.2521 19.5364 10.25 19.417 10.25ZM19.417 6.57032C18.814 6.56952 18.2156 6.61782 17.6279 6.71485C17.2193 6.78234 16.9423 7.16848 17.0098 7.57716C17.0773 7.98575 17.4634 8.26179 17.8721 8.19435C18.379 8.11064 18.8957 8.06862 19.416 8.06935H19.417C19.5203 8.06935 19.6232 8.07095 19.7256 8.07423C20.1396 8.08748 20.4867 7.76263 20.5 7.34864C20.5132 6.93483 20.1882 6.5887 19.7744 6.5752C19.6559 6.5714 19.5364 6.57033 19.417 6.57032Z" fill="currentColor" />
    <path fill-rule="evenodd" clip-rule="evenodd" d="M5.33301 2.25001C7.44706 2.2472 9.50317 2.8596 11.25 3.99317V21.75C9.594 20.3951 7.50109 19.6483 5.33398 19.6514C4.38532 19.6514 3.47041 19.7908 2.61133 20.0498L2.24609 20.168C2.01686 20.2476 1.76323 20.2119 1.56543 20.0713C1.36765 19.9306 1.25004 19.7027 1.25 19.46V3.55763L1.25977 3.43946C1.30269 3.16982 1.49007 2.94031 1.75391 2.84864C2.87455 2.45929 4.0799 2.25005 5.33301 2.25001ZM4.22559 13.749C3.81195 13.7627 3.48674 14.1097 3.5 14.5234C3.51343 14.9372 3.86068 15.2621 4.27441 15.249C4.37671 15.2458 4.47984 15.2442 4.58301 15.2442H4.58398C5.75608 15.2425 6.90769 15.4595 7.97949 15.874C8.36574 16.0234 8.7997 15.8315 8.94922 15.4453C9.09866 15.059 8.9068 14.6251 8.52051 14.4756C7.27647 13.9944 5.94102 13.7423 4.58203 13.7442C4.46304 13.7442 4.3437 13.7452 4.22559 13.749ZM4.22559 10.2549C3.81195 10.2686 3.48674 10.6156 3.5 11.0293C3.51352 11.443 3.86074 11.767 4.27441 11.7539C4.3767 11.7506 4.47985 11.749 4.58301 11.749H4.58398C5.75608 11.7474 6.90769 11.9653 7.97949 12.3799C8.36567 12.5292 8.79965 12.3372 8.94922 11.9512C9.09866 11.5649 8.90682 11.1299 8.52051 10.9805C7.27653 10.4993 5.94094 10.2471 4.58203 10.249C4.46304 10.2491 4.3437 10.2511 4.22559 10.2549ZM4.58203 6.56935C4.46304 6.56936 4.3437 6.57044 4.22559 6.57423C3.81199 6.58791 3.4868 6.93397 3.5 7.34767C3.51327 7.76154 3.86059 8.08631 4.27441 8.07325C4.37671 8.06997 4.47984 8.06838 4.58301 8.06837H4.58398C5.10421 8.06764 5.62114 8.10971 6.12793 8.19337C6.53653 8.26081 6.92267 7.98474 6.99023 7.57618C7.05772 7.1675 6.78075 6.78136 6.37207 6.71388C5.78447 6.61688 5.18592 6.56854 4.58301 6.56935V6.56837L4.58203 6.56935Z" fill="currentColor" />
</svg>