<svg xmlns="http://www.w3.org/2000/svg" width="24" height="24" viewBox="0 0 24 24" fill="none">
    <path d="M11.3691 1.47437C11.7618 1.15402 12.3408 1.17662 12.707 1.54273L15.707 4.54273C16.0975 4.93326 16.0975 5.56627 15.707 5.9568C15.3164 6.34732 14.6834 6.34732 14.2929 5.9568L11.9999 3.66383L9.70696 5.9568C9.31643 6.34732 8.68342 6.34732 8.29289 5.9568C7.90237 5.56627 7.90237 4.93326 8.29289 4.54273L11.2929 1.54273L11.3691 1.47437Z" fill="currentColor" />
    <path d="M10.9999 13.2498V9.66383L9.70696 10.9568C9.31643 11.3473 8.68342 11.3473 8.29289 10.9568C7.90237 10.5663 7.90237 9.93326 8.29289 9.54273L11.2929 6.54273L11.3691 6.47437C11.7618 6.15402 12.3408 6.17662 12.707 6.54273L15.707 9.54273C16.0975 9.93326 16.0975 10.5663 15.707 10.9568C15.3164 11.3473 14.6834 11.3473 14.2929 10.9568L12.9999 9.66383V13.2498C12.9999 13.8021 12.5522 14.2498 11.9999 14.2498C11.4476 14.2498 10.9999 13.8021 10.9999 13.2498Z" fill="currentColor" />
    <path fill-rule="evenodd" clip-rule="evenodd" d="M19.8779 1.25488C20.3678 1.30526 20.75 1.72179 20.75 2.22754V17.8633C20.75 18.403 20.3143 18.8408 19.7773 18.8408H19.6875C19.6572 18.8768 19.6244 18.9161 19.5928 18.96C19.4254 19.1924 19.292 19.4845 19.292 19.8184C19.292 20.152 19.4255 20.4434 19.5928 20.6758C19.6244 20.7198 19.6571 20.7598 19.6875 20.7959H19.7773C20.3142 20.7959 20.7499 21.2329 20.75 21.7725C20.75 22.3122 20.3143 22.75 19.7773 22.75H6.16699C4.55622 22.75 3.2501 21.4375 3.25 19.8184V4.18164C3.2501 2.56252 4.55622 1.25 6.16699 1.25H9.81934L7.40918 3.66016C6.53096 4.53884 6.53074 5.96325 7.40918 6.8418C7.74719 7.17969 8.16616 7.38692 8.60352 7.46484L7.40918 8.66016C6.53096 9.53884 6.53073 10.9633 7.40918 11.8418C8.04245 12.4748 8.95848 12.6486 9.75 12.3691V13.251C9.75038 14.4932 10.7577 15.5009 12 15.501C13.2423 15.5008 14.2496 14.4932 14.25 13.251V12.3691C15.0415 12.6487 15.9575 12.4748 16.5908 11.8418C17.4691 10.9632 17.4691 9.53874 16.5908 8.66016L15.3955 7.46484C15.833 7.38703 16.2527 7.17973 16.5908 6.8418C17.4691 5.96318 17.4691 4.53874 16.5908 3.66016L14.1807 1.25H19.7773L19.8779 1.25488ZM6.16699 18.8398C5.63005 18.8398 5.19434 19.2777 5.19434 19.8174C5.19448 20.357 5.63014 20.7939 6.16699 20.7939H17.5C17.4082 20.5025 17.3477 20.1761 17.3477 19.8174C17.3477 19.4584 17.4081 19.1314 17.5 18.8398H6.16699Z" fill="currentColor" />
</svg>