<svg xmlns="http://www.w3.org/2000/svg" width="24" height="24" viewBox="0 0 24 24" fill="none">
    <path d="M15.4999 13.3054V9.71949L14.207 11.0125C13.8164 11.403 13.1834 11.403 12.7929 11.0125C12.4024 10.6219 12.4024 9.98892 12.7929 9.5984L15.7929 6.5984L15.8691 6.53004C16.2618 6.20969 16.8408 6.23228 17.207 6.5984L20.207 9.5984C20.5975 9.98892 20.5975 10.6219 20.207 11.0125C19.8164 11.403 19.1834 11.403 18.7929 11.0125L17.4999 9.71949V13.3054C17.4999 13.8577 17.0522 14.3054 16.4999 14.3054C15.9476 14.3054 15.4999 13.8577 15.4999 13.3054ZM15.8691 1.53004C16.2618 1.20969 16.8408 1.23228 17.207 1.5984L20.207 4.5984C20.5975 4.98892 20.5975 5.62194 20.207 6.01246C19.8164 6.40298 19.1834 6.40298 18.7929 6.01246L16.4999 3.71949L14.207 6.01246C13.8164 6.40298 13.1834 6.40298 12.7929 6.01246C12.4024 5.62194 12.4024 4.98892 12.7929 4.5984L15.7929 1.5984L15.8691 1.53004Z" fill="currentColor" />
    <path fill-rule="evenodd" clip-rule="evenodd" d="M11.9092 3.71412L14.428 1.19531L5.91699 1.3056C4.30622 1.3056 3.0001 2.61812 3 4.23724V19.874C3.0001 21.4931 4.30622 22.8056 5.91699 22.8056H19.5273C20.0643 22.8056 20.5 22.3678 20.5 21.8281C20.4999 21.2884 20.0642 20.8515 19.5273 20.8515H19.4375C19.4071 20.8154 19.3744 20.7754 19.3428 20.7314C19.1755 20.499 19.042 20.2076 19.042 19.874C19.042 19.5401 19.1754 19.248 19.3428 19.0156C19.3744 18.9717 19.4072 18.9324 19.4375 18.8964H19.5273C20.0643 18.8964 20.5 18.4586 20.5 17.9189V12.3205C19.9534 12.5909 19.3196 12.6243 18.75 12.4231V13.3049C18.75 14.5476 17.7426 15.5549 16.5 15.5549C15.2574 15.5549 14.25 14.5476 14.25 13.3049V12.4231C13.4582 12.7028 12.5426 12.5291 11.9092 11.8958C11.0305 11.0171 11.0305 9.5928 11.9092 8.71412L13.1055 7.51784C12.6674 7.44013 12.2477 7.23424 11.9092 6.89577C11.0305 6.01709 11.0305 4.5928 11.9092 3.71412ZM5.91699 18.8954C5.38005 18.8954 4.94434 19.3332 4.94434 19.873C4.94448 20.4126 5.38014 20.8495 5.91699 20.8495H17.25C17.1582 20.5581 17.0977 20.2317 17.0977 19.873C17.0977 19.5139 17.1581 19.187 17.25 18.8954H5.91699Z" fill="currentColor" />
</svg>