<svg xmlns="http://www.w3.org/2000/svg" width="24" height="24" viewBox="0 0 24 24" fill="none">
    <path d="M17.7501 14.75C17.7501 13.6454 16.8546 12.75 15.7501 12.75C14.6455 12.75 13.7501 13.6454 13.7501 14.75C13.7501 15.8546 14.6455 16.75 15.7501 16.75C16.8546 16.75 17.7501 15.8546 17.7501 14.75ZM19.7501 14.75C19.7501 15.4917 19.5472 16.1858 19.1954 16.7812L21.4571 19.043C21.8476 19.4335 21.8476 20.0665 21.4571 20.457C21.0666 20.8476 20.4336 20.8476 20.043 20.457L17.7813 18.1953C17.1858 18.5471 16.4918 18.75 15.7501 18.75C13.5409 18.75 11.7501 16.9591 11.7501 14.75C11.7501 12.5409 13.5409 10.75 15.7501 10.75C17.9592 10.75 19.7501 12.5409 19.7501 14.75Z" fill="currentColor" />
    <path d="M19.7501 2.22754C19.7501 1.72179 19.3679 1.30526 18.878 1.25488L18.7774 1.25H5.16705C3.55628 1.25 2.25016 2.56252 2.25006 4.18164V19.8184C2.25016 21.4375 3.55628 22.75 5.16705 22.75H18.7774C19.3143 22.75 19.7501 22.3122 19.7501 21.7725C19.7501 21.7692 19.7491 21.7659 19.7491 21.7627C19.5366 21.657 19.3363 21.5179 19.1592 21.3408L18.6124 20.7939H5.16705C4.6302 20.7939 4.19454 20.357 4.1944 19.8174C4.1944 19.2777 4.63011 18.8398 5.16705 18.8398H12.46C11.2653 17.8775 10.5001 16.4035 10.5001 14.75C10.5001 11.8505 12.8506 9.5 15.7501 9.5C17.353 9.5 18.7871 10.2192 19.7501 11.3516V2.22754Z" fill="currentColor" />
</svg>