<svg xmlns="http://www.w3.org/2000/svg" width="24" height="24" viewBox="0 0 24 24" fill="none">
    <path fill-rule="evenodd" clip-rule="evenodd" d="M20.4058 18.4226C20.7727 18.06 21 17.5565 21 17V3C21 1.89543 20.1046 1 19 1H6C4.34315 1 3 2.34315 3 4V20C3 21.6569 4.34315 23 6 23H20C20.5523 23 21 22.5523 21 22C21 21.4477 20.5523 21 20 21H19.9055C19.8743 20.9633 19.8419 20.9226 19.8096 20.8779C19.6374 20.6401 19.5 20.3416 19.5 20C19.5 19.6584 19.6374 19.3599 19.8096 19.1221C19.8938 19.0057 19.9792 18.9154 20.04 18.8564C20.0699 18.8275 20.0939 18.8046 20.1064 18.7939C20.2393 18.6924 20.3397 18.5642 20.4058 18.4226ZM5 20C5 20.5523 5.44772 21 6 21H17.6554C17.5609 20.7017 17.5 20.3671 17.5 20C17.5 19.6329 17.5609 19.2983 17.6554 19H6C5.44772 19 5 19.4477 5 20ZM14 11C14 10.4477 13.5523 10 13 10H9C8.44772 10 8 10.4477 8 11C8 11.5523 8.44772 12 9 12H13C13.5523 12 14 11.5523 14 11ZM16 7C16 6.44772 15.5523 6 15 6H9C8.44772 6 8 6.44772 8 7C8 7.55228 8.44772 8 9 8H15C15.5523 8 16 7.55228 16 7Z" fill="currentColor" />
</svg>