<svg xmlns="http://www.w3.org/2000/svg" width="24" height="24" viewBox="0 0 24 24" fill="none">
    <path d="M11 2.07236C12.1046 2.07236 13 2.96779 13 4.07236V6.07236H18C19.5188 6.07236 20.75 7.30357 20.75 8.82236V12.8224H21.75C22.3023 12.8224 22.75 13.2701 22.75 13.8224C22.75 14.3746 22.3023 14.8224 21.75 14.8224H20.75V18.8224C20.75 20.3411 19.5188 21.5724 18 21.5724H6C4.48122 21.5724 3.25 20.3411 3.25 18.8224V14.8224H2.25C1.69772 14.8224 1.25 14.3746 1.25 13.8224C1.25 13.2701 1.69772 12.8224 2.25 12.8224H3.25V8.82236C3.25 7.30357 4.48122 6.07236 6 6.07236H11V4.07236H8C7.44772 4.07236 7 3.62464 7 3.07236C7 2.52007 7.44772 2.07236 8 2.07236H11ZM10 15.8224C9.44772 15.8224 9 16.2701 9 16.8224C9 17.3746 9.44772 17.8224 10 17.8224H14C14.5523 17.8224 15 17.3746 15 16.8224C15 16.2701 14.5523 15.8224 14 15.8224H10ZM9 9.82236C8.44772 9.82236 8 10.2701 8 10.8224V12.8224C8 13.3746 8.44772 13.8224 9 13.8224C9.55229 13.8224 10 13.3746 10 12.8224V10.8224C10 10.2701 9.55229 9.82236 9 9.82236ZM15 9.82236C14.4477 9.82236 14 10.2701 14 10.8224V12.8224C14 13.3746 14.4477 13.8224 15 13.8224C15.5523 13.8224 16 13.3746 16 12.8224V10.8224C16 10.2701 15.5523 9.82236 15 9.82236Z" fill="currentColor" />
</svg>