<svg xmlns="http://www.w3.org/2000/svg" width="24" height="24" viewBox="0 0 24 24" fill="none">
    <path d="M18.0157 10.066C18.531 9.86778 19.1092 10.125 19.3077 10.6402C20.6876 14.2251 20.0043 18.4253 17.251 21.4058C16.884 21.803 16.3766 21.9996 15.877 21.9996C15.3704 21.9994 14.8847 21.7981 14.5264 21.44L12.293 19.2066C11.9025 18.8161 11.9025 18.183 12.293 17.7925C12.6836 17.402 13.3166 17.402 13.7071 17.7925L15.8672 19.9527C18.0145 17.5563 18.5421 14.2184 17.4415 11.3589C17.2431 10.8435 17.5003 10.2644 18.0157 10.066ZM2.87701 6.49663C5.8365 3.95467 9.88645 3.3551 13.3594 4.69194C13.8746 4.89039 14.1318 5.46865 13.9337 5.98393C13.7353 6.49935 13.1561 6.75655 12.6407 6.55815C9.78117 5.4575 6.44232 5.98405 4.04596 8.13139L6.20709 10.2925C6.59762 10.683 6.59762 11.3161 6.20709 11.7066C5.81657 12.0971 5.18355 12.0971 4.79303 11.7066L2.55963 9.47319C2.2462 9.15963 2.05327 8.74843 2.00983 8.31108L2.00006 8.1226L2.00885 7.9351C2.05181 7.49821 2.24617 7.06982 2.59381 6.74858L2.87701 6.49663Z" fill="currentColor" />
    <path d="M20.0001 5.41406V7C20.0001 7.55228 20.4478 8 21.0001 8C21.5524 8 22.0001 7.55228 22.0001 7V4C22.0001 2.89543 21.1047 2 20.0001 2H17.0001C16.4478 2 16.0001 2.44772 16.0001 3C16.0001 3.55228 16.4478 4 17.0001 4H18.586L9.30859 13.2774C9.20746 13.2593 9.10425 13.25 9.00009 13.25L7.00009 13.251C6.67739 13.2506 6.35781 13.313 6.05966 13.4365C5.76154 13.56 5.49069 13.7413 5.26279 13.9697L2.61728 16.6152C2.44225 16.7899 2.323 17.0124 2.2745 17.2549C2.22601 17.4974 2.25033 17.749 2.34482 17.9775C2.43927 18.206 2.59929 18.4016 2.80478 18.5391C3.01037 18.6766 3.25276 18.7499 3.50009 18.75H5.00009C5.06636 18.75 5.12999 18.7764 5.17685 18.8232C5.2237 18.8701 5.25009 18.9337 5.25009 19V20.499C5.24972 20.7464 5.3228 20.9885 5.46005 21.1943C5.59737 21.4003 5.79293 21.5605 6.02158 21.6553C6.25018 21.75 6.50155 21.7749 6.74423 21.7266C6.98694 21.6782 7.21005 21.559 7.38486 21.3838L10.0294 18.7363C10.2578 18.5084 10.4401 18.2386 10.5636 17.9404C10.6563 17.7166 10.715 17.4805 10.7384 17.2402L10.7501 16.999V15C10.7501 14.8958 10.7408 14.7926 10.7227 14.6915L20.0001 5.41406Z" fill="currentColor" />
</svg>