<svg xmlns="http://www.w3.org/2000/svg" width="24" height="24" viewBox="0 0 24 24" fill="none">
    <path d="M19 19V5C19 4.44772 18.5523 4 18 4H16C15.4477 4 15 3.55228 15 3C15 2.44772 15.4477 2 16 2H18C19.6569 2 21 3.34315 21 5V19C21 20.6569 19.6569 22 18 22H16C15.4477 22 15 21.5523 15 21C15 20.4477 15.4477 20 16 20H18C18.5523 20 19 19.5523 19 19Z" fill="currentColor" />
    <path d="M3 19V5C3 3.34315 4.34315 2 6 2H8C8.55228 2 9 2.44772 9 3C9 3.55228 8.55228 4 8 4H6C5.44772 4 5 4.44772 5 5V19C5 19.5523 5.44772 20 6 20H8C8.55228 20 9 20.4477 9 21C9 21.5523 8.55228 22 8 22H6C4.34315 22 3 20.6569 3 19Z" fill="currentColor" />
</svg>