<svg xmlns="http://www.w3.org/2000/svg" width="24" height="24" viewBox="0 0 24 24" fill="none">
    <path d="M13.5 19.9316C13.5 20.8192 13.0687 21.7689 12.1514 22.21C11.5111 22.5177 10.7728 22.7499 9.97266 22.75C7.46986 22.75 5.34229 21.1513 4.55176 18.9209C3.03929 18.1575 2 16.5897 2 14.7773C2.00008 13.7359 2.34434 12.774 2.92383 12C2.34435 11.226 2.00009 10.2641 2 9.22266C2 7.0046 3.55625 5.15079 5.63672 4.69238C6.35558 2.68611 8.27286 1.25018 10.5273 1.25C10.9585 1.25 11.3946 1.28178 11.8213 1.36816C13.0006 1.60704 13.4999 2.73453 13.5 3.65332V19.9316Z" fill="currentColor" />
    <path fill-rule="evenodd" clip-rule="evenodd" d="M17.25 4.61805C16.9431 4.34339 16.75 3.94425 16.75 3.5C16.75 2.67157 17.4216 2 18.25 2C19.0784 2 19.75 2.67157 19.75 3.5C19.75 3.94425 19.5569 4.34339 19.25 4.61805V6C19.25 7.65685 17.9069 9 16.25 9H14.75V7H16.25C16.8023 7 17.25 6.55229 17.25 6V4.61805Z" fill="currentColor" />
    <path fill-rule="evenodd" clip-rule="evenodd" d="M14.75 11V13H19.1319C19.4066 13.3069 19.8057 13.5 20.25 13.5C21.0784 13.5 21.75 12.8284 21.75 12C21.75 11.1716 21.0784 10.5 20.25 10.5C19.8057 10.5 19.4066 10.6931 19.1319 11H14.75Z" fill="currentColor" />
    <path fill-rule="evenodd" clip-rule="evenodd" d="M14.75 15V17H16.25C16.8023 17 17.25 17.4477 17.25 18V19.3819C16.9431 19.6566 16.75 20.0557 16.75 20.5C16.75 21.3284 17.4216 22 18.25 22C19.0784 22 19.75 21.3284 19.75 20.5C19.75 20.0557 19.5569 19.6566 19.25 19.3819V18C19.25 16.3431 17.9069 15 16.25 15H14.75Z" fill="currentColor" />
</svg>