<svg xmlns="http://www.w3.org/2000/svg" width="24" height="24" viewBox="0 0 24 24" fill="none">
    <path d="M19.9639 20.9639C21.0657 20.0961 22.25 18.664 22.25 16.5498V13.8496C22.2499 13.6332 22.1561 13.4275 21.9932 13.2852C20.8928 12.3242 19.2672 11.75 17.5 11.75C15.7328 11.75 14.1072 12.3242 13.0068 13.2852C12.8439 13.4275 12.7501 13.6332 12.75 13.8496V16.5498C12.75 18.664 13.9343 20.0961 15.0361 20.9639C15.5886 21.3989 16.1368 21.7078 16.5459 21.9072C16.7514 22.0074 16.9249 22.0811 17.0488 22.1309C17.1106 22.1557 17.1605 22.1743 17.1963 22.1875C17.2141 22.194 17.2286 22.1994 17.2393 22.2031L17.2529 22.208L17.2568 22.21L17.2598 22.2109C17.4153 22.2634 17.5847 22.2625 17.7402 22.21H17.7432L17.7471 22.208L17.7607 22.2031C17.7714 22.1994 17.7859 22.194 17.8037 22.1875C17.8395 22.1743 17.8894 22.1557 17.9512 22.1309C18.0751 22.0811 18.2486 22.0074 18.4541 21.9072C18.8632 21.7078 19.4114 21.3989 19.9639 20.9639Z" fill="currentColor" />
    <path d="M6.25 21.25H4.5C2.98122 21.25 1.75 20.0188 1.75 18.5V15.25H6.25V21.25Z" fill="currentColor" />
    <path d="M11.5 16.5498C11.5 18.6588 12.4541 20.2036 13.4854 21.25H7.75V15.25H11.5V16.5498Z" fill="currentColor" />
    <path d="M10.75 13.75H1.75V9.25H10.75V13.75Z" fill="currentColor" />
    <path d="M21.25 11.3232C20.1307 10.7863 18.8346 10.5 17.5 10.5C15.6063 10.5 13.7891 11.0742 12.4463 12.127L12.25 12.2891V9.25H21.25V11.3232Z" fill="currentColor" />
    <path d="M6.25 7.75H1.75V4.5C1.75 2.98122 2.98122 1.75 4.5 1.75H6.25V7.75Z" fill="currentColor" />
    <path d="M15.25 7.75H7.75V1.75H15.25V7.75Z" fill="currentColor" />
    <path d="M18.5 1.75C20.0188 1.75 21.25 2.98122 21.25 4.5V7.75H16.75V1.75H18.5Z" fill="currentColor" />
</svg>