<svg xmlns="http://www.w3.org/2000/svg" width="24" height="24" viewBox="0 0 24 24" fill="none">
    <path d="M21.7726 19.2495C22.3123 19.2495 22.7501 19.6413 22.7501 20.1245C22.7501 20.6078 22.3123 20.9995 21.7726 20.9995H20.796V21.8745C20.796 22.3577 20.3581 22.7494 19.8185 22.7495C19.2788 22.7495 18.8409 22.3578 18.8409 21.8745V20.9995H16.8868V21.8745C16.8868 22.3577 16.449 22.7495 15.9093 22.7495C15.3696 22.7495 14.9318 22.3578 14.9318 21.8745V20.9995H12.9777V21.8745C12.9777 22.3578 12.5399 22.7495 12.0001 22.7495C11.4604 22.7495 11.0226 22.3578 11.0226 21.8745V20.9995H9.06848V21.8745C9.06848 22.3578 8.63068 22.7495 8.09094 22.7495C7.55126 22.7495 7.1134 22.3577 7.1134 21.8745V20.9995H5.1593V21.8745C5.1593 22.3578 4.7215 22.7495 4.18176 22.7495C3.64213 22.7494 3.20422 22.3577 3.20422 21.8745V20.9995H2.22766C1.68793 20.9995 1.25012 20.6078 1.25012 20.1245C1.25012 19.6413 1.68793 19.2495 2.22766 19.2495H21.7726ZM7.25012 10.9995C7.25012 11.4137 7.58591 11.7495 8.00012 11.7495C8.41434 11.7495 8.75012 11.4137 8.75012 10.9995V10.7495H15.2501V10.9995C15.2501 11.4137 15.5859 11.7495 16.0001 11.7495C16.4143 11.7495 16.7501 11.4137 16.7501 10.9995V10.7495H20.7501V13.9995C20.7501 15.5183 19.5189 16.7495 18.0001 16.7495H6.00012C4.48134 16.7495 3.25012 15.5183 3.25012 13.9995V10.7495H7.25012V10.9995ZM13.8751 1.24951C14.9106 1.24951 15.75 2.05529 15.7501 3.04932V4.24951H18.0001C19.5189 4.24951 20.7501 5.48073 20.7501 6.99951V9.24951H16.7501V8.99951C16.7501 8.5853 16.4143 8.24951 16.0001 8.24951C15.5859 8.24951 15.2501 8.5853 15.2501 8.99951V9.24951H8.75012V8.99951C8.75012 8.5853 8.41434 8.24951 8.00012 8.24951C7.58591 8.24951 7.25012 8.5853 7.25012 8.99951V9.24951H3.25012V6.99951C3.25012 5.48073 4.48134 4.24951 6.00012 4.24951H8.25012V3.04932C8.25023 2.05529 9.08966 1.24951 10.1251 1.24951H13.8751ZM10.1251 4.24951H13.8751V3.04932H10.1251V4.24951Z" fill="currentColor" />
</svg>