<svg xmlns="http://www.w3.org/2000/svg" width="24" height="24" viewBox="0 0 24 24" fill="none">
    <path d="M22.75 18.9995C22.75 20.5183 21.5188 21.7495 20 21.7495H4C2.48122 21.7495 1.25 20.5183 1.25 18.9995V13.1724C1.70317 13.6201 2.3322 14.1602 3.16699 14.689C5.06108 15.8885 7.93134 16.9995 12 16.9995C16.0687 16.9995 18.9389 15.8885 20.833 14.689C21.6678 14.1602 22.2968 13.6201 22.75 13.1724V18.9995Z" fill="currentColor" />
    <path d="M14.75 6.50049V4.50049C14.75 4.08627 14.4142 3.75049 14 3.75049H10C9.58579 3.75049 9.25 4.08627 9.25 4.50049V6.50049C9.25 6.9147 8.91421 7.25049 8.5 7.25049C8.08579 7.25049 7.75 6.9147 7.75 6.50049V4.50049C7.75 3.25785 8.75736 2.25049 10 2.25049H14C15.2426 2.25049 16.25 3.25785 16.25 4.50049V6.50049C16.25 6.9147 15.9142 7.25049 15.5 7.25049C15.0858 7.25049 14.75 6.9147 14.75 6.50049Z" fill="currentColor" />
    <path d="M20 5.75049C21.5188 5.75049 22.75 6.98171 22.75 8.50049V11.0005C22.75 11.1469 22.7074 11.2903 22.627 11.4126C22.4779 11.6393 22.2127 11.9397 22.0137 12.146C21.615 12.5591 21.0094 13.0989 20.1641 13.6343C18.4669 14.709 15.8282 15.7505 12 15.7505C8.17179 15.7505 5.53308 14.709 3.83594 13.6343C2.99058 13.0989 2.38496 12.5591 1.98633 12.146C1.78727 11.9397 1.52208 11.6393 1.37305 11.4126C1.29263 11.2903 1.25 11.1469 1.25 11.0005V8.50049C1.25 6.98171 2.48122 5.75049 4 5.75049H20ZM12 10.7505C11.4477 10.7505 11 11.1982 11 11.7505C11 12.3028 11.4477 12.7505 12 12.7505C12.5523 12.7505 13 12.3028 13 11.7505C13 11.1982 12.5523 10.7505 12 10.7505Z" fill="currentColor" />
</svg>