<svg xmlns="http://www.w3.org/2000/svg" width="24" height="24" viewBox="0 0 24 24" fill="none">
    <path d="M15 17.75C16.5188 17.75 17.75 16.5188 17.75 15V9C17.75 7.48122 16.5188 6.25 15 6.25H9C7.48122 6.25 6.25 7.48122 6.25 9V15C6.25 16.5188 7.48122 17.75 9 17.75H15Z" fill="currentColor" />
    <path d="M20.5 15.25C21.7426 15.25 22.75 16.2574 22.75 17.5V20.5C22.75 21.7426 21.7426 22.75 20.5 22.75H17.5C16.2574 22.75 15.25 21.7426 15.25 20.5V18.9912C17.26 18.8672 18.8682 17.26 18.9922 15.25H20.5Z" fill="currentColor" />
    <path d="M6.5 1.25C7.74264 1.25 8.75 2.25736 8.75 3.5V5.00781C6.74 5.13177 5.13177 6.74 5.00781 8.75H3.5C2.25736 8.75 1.25 7.74264 1.25 6.5V3.5C1.25 2.25736 2.25736 1.25 3.5 1.25H6.5Z" fill="currentColor" />
</svg>