<svg xmlns="http://www.w3.org/2000/svg" width="24" height="24" viewBox="0 0 24 24" fill="none">
    <path d="M20.5 12C20.5 13.5188 19.2688 14.75 17.75 14.75H14.8828C14.7324 14.75 14.6161 14.882 14.6348 15.0312L15.1221 18.9297C15.3756 20.958 13.7941 22.75 11.75 22.75C9.7059 22.75 8.12439 20.958 8.37793 18.9297L8.86523 15.0312C8.88389 14.882 8.76756 14.75 8.61719 14.75H5.75C4.23122 14.75 3 13.5188 3 12V10C3 9.58579 3.33579 9.25 3.75 9.25H19.75C20.1642 9.25 20.5 9.58579 20.5 10V12Z" fill="currentColor" />
    <path d="M3 8.14538C3.23161 8.05163 3.48477 8 3.75 8H4.5H19H19.75C20.0152 8 20.2684 8.05163 20.5 8.14538V4C20.5 2.48122 19.2688 1.25 17.75 1.25H12.1641C11.7 1.25004 11.2549 1.43454 10.9268 1.7627L9.75 2.93945L8.57324 1.7627C8.24509 1.43454 7.80001 1.25004 7.33594 1.25H5.75C4.23122 1.25 3 2.48122 3 4V8.14538Z" fill="currentColor" />
</svg>