<svg xmlns="http://www.w3.org/2000/svg" width="24" height="24" viewBox="0 0 24 24" fill="none">
    <path fill-rule="evenodd" clip-rule="evenodd" d="M5 8C4.44772 8 4 8.44772 4 9C4 9.55228 4.44772 10 5 10H19C19.5523 10 20 9.55229 20 9C20 8.44772 19.5523 8 19 8H18.6768L18.4138 7.34252C17.3647 4.71979 14.8245 3 11.9998 3C9.175 3 6.63482 4.71979 5.58573 7.34252L5.32273 8H5ZM7.47773 8C8.24346 6.18468 10.0236 5 11.9998 5C13.9759 5 15.7561 6.18469 16.5218 8L7.47773 8Z" fill="currentColor" />
    <path fill-rule="evenodd" clip-rule="evenodd" d="M16.3942 1.08111C16.9018 1.29867 17.137 1.88655 16.9194 2.39418L13.9194 9.39418C13.7018 9.9018 13.114 10.137 12.6063 9.9194C12.0987 9.70185 11.8636 9.11397 12.0811 8.60634L15.0811 1.60634C15.2987 1.09871 15.8865 0.863556 16.3942 1.08111Z" fill="currentColor" />
    <path fill-rule="evenodd" clip-rule="evenodd" d="M14.7178 22.75C16.1144 22.7499 17.289 21.7029 17.4492 20.3154L18.7451 9.08594C18.7696 8.87347 18.7019 8.66064 18.5596 8.50098C18.4173 8.34142 18.2138 8.25 18 8.25L5.99999 8.25C5.78619 8.25001 5.58272 8.34141 5.44042 8.50098C5.29813 8.66064 5.23037 8.87348 5.25488 9.08594L6.55078 20.3154C6.71097 21.7028 7.88561 22.7498 9.28222 22.75H14.7178ZM13 14C12.4477 14 12 13.5523 12 13C12 12.4477 12.4477 12 13 12C13.5523 12 14 12.4477 14 13C14 13.5523 13.5523 14 13 14ZM9.99999 16.5C9.44773 16.5 8.99999 16.0523 8.99999 15.5C8.99999 14.9477 9.44773 14.5 9.99999 14.5C10.5523 14.5 11 14.9477 11 15.5C11 16.0523 10.5523 16.5 9.99999 16.5ZM13.5 19C12.9823 19 12.5562 18.6067 12.5049 18.1025L12.5 18L12.5049 17.8975C12.5562 17.3933 12.9823 17 13.5 17C14.0523 17 14.5 17.4477 14.5 18C14.5 18.5523 14.0523 19 13.5 19Z" fill="currentColor" />
</svg>