<svg xmlns="http://www.w3.org/2000/svg" width="24" height="24" viewBox="0 0 24 24" fill="none">
    <path fill-rule="evenodd" clip-rule="evenodd" d="M6.5 18C7.05228 18 7.5 18.4477 7.5 19V22C7.5 22.5523 7.05228 23 6.5 23C5.94772 23 5.5 22.5523 5.5 22V19C5.5 18.4477 5.94772 18 6.5 18ZM17.5 18C18.0523 18 18.5 18.4477 18.5 19V22C18.5 22.5523 18.0523 23 17.5 23C16.9477 23 16.5 22.5523 16.5 22V19C16.5 18.4477 16.9477 18 17.5 18Z" fill="currentColor" />
    <path d="M17 1C19.2091 1 21 2.79086 21 5L21 16C21 18.2091 19.2091 20 17 20L7 20C4.79086 20 3 18.2091 3 16L3 5C3 2.79086 4.79086 1 7 1L17 1ZM5.25 15.25C4.83579 15.25 4.5 15.5858 4.5 16C4.5 16.4142 4.83579 16.75 5.25 16.75H5.75C6.16421 16.75 6.5 16.4142 6.5 16C6.5 15.5858 6.16421 15.25 5.75 15.25H5.25ZM9.99805 15.25C9.58399 15.2502 9.24805 15.5859 9.24805 16C9.24805 16.4141 9.58399 16.7498 9.99805 16.75L13.998 16.75C14.4123 16.75 14.748 16.4142 14.748 16C14.748 15.5858 14.4123 15.25 13.998 15.25L9.99805 15.25ZM18.25 15.25C17.8358 15.25 17.5 15.5858 17.5 16C17.5 16.4142 17.8358 16.75 18.25 16.75H18.75C19.1642 16.75 19.5 16.4142 19.5 16C19.5 15.5858 19.1642 15.25 18.75 15.25H18.25ZM7 3C5.89543 3 5 3.89543 5 5L5 11.4805C7.11455 11.9851 9.34173 12.25 11.5 12.25C13.6715 12.25 16.6885 11.9231 19 11.4521L19 5C19 3.89543 18.1046 3 17 3L7 3Z" fill="currentColor" />
    <path fill-rule="evenodd" clip-rule="evenodd" d="M22.8483 9.47013C23.141 9.93847 22.9986 10.5554 22.5303 10.8481L21.4845 11.5017C21.3044 11.6143 21.1649 11.7812 21.086 11.9783L20.9287 12.3715C20.7236 12.8843 20.1417 13.1337 19.6289 12.9286C19.1161 12.7235 18.8667 12.1415 19.0718 11.6287L19.2291 11.2356C19.4656 10.6441 19.8843 10.1434 20.4245 9.80574L21.4703 9.15214C21.9386 8.85943 22.5556 9.0018 22.8483 9.47013Z" fill="currentColor" />
    <path fill-rule="evenodd" clip-rule="evenodd" d="M1.15201 9.47001C1.44472 9.00168 2.06167 8.8593 2.53001 9.15201L3.57578 9.80562C4.11596 10.1432 4.53464 10.644 4.77122 11.2354L4.92849 11.6286C5.1336 12.1414 4.88419 12.7234 4.3714 12.9285C3.85862 13.1336 3.27665 12.8842 3.07154 12.3714L2.91426 11.9782C2.83541 11.7811 2.69584 11.6142 2.51579 11.5016L1.47001 10.848C1.00168 10.5553 0.859303 9.93835 1.15201 9.47001Z" fill="currentColor" />
</svg>