<svg xmlns="http://www.w3.org/2000/svg" width="24" height="24" viewBox="0 0 24 24" fill="none">
    <path d="M8.00009 9.74963C9.51887 9.74963 10.7501 8.51842 10.7501 6.99963C10.7501 5.48085 9.51887 4.24963 8.00009 4.24963C6.48131 4.24963 5.25009 5.48085 5.25009 6.99963C5.25009 8.51842 6.48131 9.74963 8.00009 9.74963Z" fill="currentColor" />
    <path d="M7.25009 4.99958C7.25009 4.40831 7.4895 3.85577 7.72665 3.44782C7.97005 3.02918 8.261 2.67812 8.46982 2.4693C8.76271 2.17641 9.23747 2.17641 9.53036 2.4693C9.82326 2.7622 9.82326 3.23696 9.53036 3.52985C9.40585 3.65437 9.1968 3.9037 9.02353 4.20173C8.8441 4.51038 8.75009 4.79095 8.75009 4.99958C8.75009 5.41379 8.41431 5.74958 8.00009 5.74958C7.58588 5.74958 7.25009 5.41379 7.25009 4.99958Z" fill="currentColor" />
    <path d="M18.7384 17.2496C19.742 17.2496 20.1724 17.4477 20.6515 17.6696C20.8877 17.791 21.3052 18.0384 21.7501 18.36V18.9996C21.7501 20.5184 20.5189 21.7496 19.0001 21.7496H5.00009C3.48131 21.7496 2.25009 20.5184 2.25009 18.9996V17.4762C2.41493 17.5564 2.55814 17.627 2.67294 17.6803H2.67392C3.26556 17.9542 3.91796 18.2496 5.23837 18.2496C6.51433 18.2496 7.18865 17.9538 7.79306 17.6852C8.31351 17.4539 8.76479 17.2497 9.73837 17.2496C10.7575 17.2496 11.1857 17.4543 11.6739 17.6803C12.2656 17.9542 12.918 18.2496 14.2384 18.2496C15.5143 18.2496 16.1887 17.9538 16.7931 17.6852C17.3135 17.4539 17.7648 17.2497 18.7384 17.2496ZM21.7501 16.566C21.5846 16.4678 21.4417 16.3883 21.3311 16.3317C21.3223 16.3271 21.3128 16.3232 21.3038 16.319C20.7121 16.045 20.0592 15.7496 18.7384 15.7496C17.4624 15.7497 16.7881 16.0455 16.1837 16.3141C15.6633 16.5454 15.212 16.7496 14.2384 16.7496C13.2195 16.7496 12.792 16.545 12.3038 16.319C11.7121 16.045 11.0592 15.7496 9.73837 15.7496C8.46244 15.7497 7.78811 16.0455 7.18369 16.3141C6.66329 16.5454 6.21202 16.7496 5.23837 16.7496C4.22001 16.7496 3.79264 16.5448 3.30478 16.319C3.05369 16.2024 2.67237 16.0141 2.25009 15.7975V13.7496H21.7501V16.566ZM13.9845 2.24963C14.4564 2.24969 14.9341 2.37808 15.3477 2.651C16.5158 3.42176 18.0858 4.64289 19.3731 6.0719C20.6352 7.47288 21.7501 9.21007 21.7501 10.9996V12.2496H2.25009V11.9196C2.25009 11.1178 2.60016 10.3516 3.21786 9.83069C3.41892 9.66116 3.87161 9.29474 4.4454 8.83459C5.11055 10.1205 6.45247 10.9996 8.00009 10.9996C10.2092 10.9996 12.0001 9.20877 12.0001 6.99963C12.0001 5.79937 11.471 4.72305 10.6339 3.98987C11.3767 3.45928 12.0772 2.9835 12.6925 2.60706C13.09 2.36384 13.5402 2.24963 13.9845 2.24963Z" fill="currentColor" />
</svg>