<svg xmlns="http://www.w3.org/2000/svg" width="24" height="24" viewBox="0 0 24 24" fill="none">
    <path d="M19 15.2432C18.9185 15.2716 18.8356 15.301 18.751 15.3311L18.7176 15.3429C18.0322 15.5867 17.2245 15.874 16.25 15.874C15.2755 15.874 14.4678 15.5867 13.7824 15.3429L13.749 15.3311C13.0353 15.0773 12.447 14.874 11.75 14.874C11.053 14.874 10.4647 15.0773 9.75098 15.3311L9.71762 15.3429C9.03225 15.5867 8.22447 15.874 7.25 15.874C6.27553 15.874 5.46775 15.5867 4.78238 15.3429L4.74902 15.3311C4.66438 15.301 4.58151 15.2716 4.5 15.2432C3.97788 15.0611 3.51208 14.9186 3 14.8828V20.124H1.75C1.19772 20.124 0.75 20.5717 0.75 21.124C0.75 21.6763 1.19772 22.124 1.75 22.124H21.75C22.3023 22.124 22.75 21.6763 22.75 21.124C22.75 20.5717 22.3023 20.124 21.75 20.124H20.5V14.8828C19.9879 14.9186 19.5221 15.0611 19 15.2432Z" fill="currentColor" />
    <path fill-rule="evenodd" clip-rule="evenodd" d="M9 5.124C9 6.28999 9.72566 7.2865 10.75 7.68653V9.374H5.75C4.23122 9.374 3 10.6052 3 12.124V13.3803C3.55265 13.408 4.0497 13.5239 4.5 13.6622C4.72171 13.7303 4.93229 13.8038 5.13243 13.8748L5.21762 13.9051L5.25098 13.917C5.96466 14.1707 6.55299 14.374 7.25 14.374C7.94701 14.374 8.53534 14.1707 9.24902 13.917L9.28237 13.9051C9.96775 13.6613 10.7755 13.374 11.75 13.374C12.7245 13.374 13.5322 13.6613 14.2176 13.9051L14.251 13.917C14.9647 14.1707 15.553 14.374 16.25 14.374C16.947 14.374 17.5353 14.1707 18.249 13.917L18.2824 13.9051C18.5078 13.8249 18.7465 13.74 19 13.6622C19.4503 13.5239 19.9474 13.408 20.5 13.3803V12.124C20.5 10.6052 19.2688 9.374 17.75 9.374H12.75V7.68653C13.7743 7.2865 14.5 6.28999 14.5 5.124C14.5 4.0778 13.8278 3.14542 13.3105 2.56345C13.0344 2.25275 12.7607 1.99588 12.5566 1.81736C12.4541 1.72763 12.3675 1.65613 12.3057 1.60642C12.2837 1.58877 12.2645 1.57408 12.2488 1.56208L12.2314 1.5488L12.21 1.5322L12.2002 1.52439C11.9335 1.32439 11.5655 1.32537 11.2988 1.52537L11.29 1.5322L11.2686 1.5488L11.2512 1.56208C11.2355 1.57408 11.2163 1.58878 11.1943 1.60642C11.1325 1.65613 11.0459 1.72763 10.9434 1.81736C10.7393 1.99588 10.4656 2.25275 10.1895 2.56345C9.67217 3.14542 9 4.0778 9 5.124Z" fill="currentColor" />
</svg>