<svg xmlns="http://www.w3.org/2000/svg" width="24" height="24" viewBox="0 0 24 24" fill="none">
    <path d="M21.9999 15.7499C21.9999 19.4778 18.9778 22.4999 15.2499 22.4999C11.522 22.4999 8.49992 19.4778 8.49992 15.7499C8.49992 12.022 11.522 8.99988 15.2499 8.99988C18.9778 8.99988 21.9999 12.022 21.9999 15.7499ZM15.2499 11.7499C14.6976 11.7499 14.2499 12.1976 14.2499 12.7499V15.7499C14.2499 16.1286 14.4639 16.475 14.8027 16.6444L16.8027 17.6444C17.2966 17.8914 17.8975 17.6911 18.1445 17.1971C18.3914 16.7032 18.1912 16.1023 17.6972 15.8553L16.2499 15.1317V12.7499C16.2499 12.1976 15.8022 11.7499 15.2499 11.7499Z" fill="currentColor" />
    <path fill-rule="evenodd" clip-rule="evenodd" d="M7.83743 1.97715C7.83743 1.43742 7.4009 0.999878 6.86243 0.999878C6.32395 0.999878 5.88743 1.43742 5.88743 1.97715V2.95442H4.42493C2.80949 2.95442 1.49992 4.26704 1.49992 5.88624V19.5681C1.49992 21.1873 2.80949 22.4999 4.42492 22.4999H10.7727C10.8275 22.4999 10.8812 22.4954 10.9336 22.4867C10.127 21.9689 9.41957 21.3102 8.84593 20.5453H4.42487C3.8864 20.5453 3.44987 20.1078 3.44987 19.5681V9.49988H10.2557C11.6244 8.40475 13.3607 7.74988 15.2499 7.74988C17.5068 7.74988 19.5455 8.68446 20.9999 10.1877V5.88624C20.9999 4.26704 19.6904 2.95442 18.0749 2.95442H16.6124V1.97715C16.6124 1.43742 16.1759 0.999878 15.6374 0.999878C15.099 0.999878 14.6624 1.43742 14.6624 1.97715V2.95442H7.83743V1.97715Z" fill="currentColor" />
</svg>