<svg xmlns="http://www.w3.org/2000/svg" width="24" height="24" viewBox="0 0 24 24" fill="none">
    <path fill-rule="evenodd" clip-rule="evenodd" d="M7.6125 1.25C8.15098 1.25 8.5875 1.68754 8.5875 2.22727V3.20455H15.4125V2.22727C15.4125 1.68754 15.849 1.25 16.3875 1.25C16.926 1.25 17.3625 1.68754 17.3625 2.22727V3.20455H18.825C20.4404 3.20455 21.75 4.51717 21.75 6.13636V19.8182C21.75 21.4374 20.4404 22.75 18.825 22.75H5.175C3.55957 22.75 2.25 21.4374 2.25 19.8182V6.13636C2.25 4.51717 3.55957 3.20455 5.175 3.20455H6.6375V2.22727C6.6375 1.68754 7.07403 1.25 7.6125 1.25ZM19.7999 9.75H4.19995V19.8182C4.19995 20.3579 4.63647 20.7955 5.17495 20.7955H18.8249C19.3634 20.7955 19.7999 20.3579 19.7999 19.8182V9.75Z" fill="currentColor" />
    <path d="M7.5 16.2734C8.05228 16.2734 8.5 16.7212 8.5 17.2734C8.5 17.8257 8.05228 18.2734 7.5 18.2734C6.94772 18.2734 6.5 17.8257 6.5 17.2734C6.5 16.7212 6.94771 16.2734 7.5 16.2734ZM12.1035 16.2783C12.6076 16.3297 13.001 16.7558 13.001 17.2734C13.001 17.8257 12.5532 18.2734 12.001 18.2734C11.4833 18.2734 11.0572 17.8801 11.0059 17.376L11.001 17.2734L11.0059 17.1709C11.0572 16.6668 11.4833 16.2734 12.001 16.2734L12.1035 16.2783ZM7.5 12.2734C8.05228 12.2734 8.5 12.7212 8.5 13.2734C8.5 13.8257 8.05228 14.2734 7.5 14.2734C6.94772 14.2734 6.5 13.8257 6.5 13.2734C6.5 12.7212 6.94771 12.2734 7.5 12.2734ZM12.1035 12.2783C12.6076 12.3297 13.001 12.7558 13.001 13.2734C13.001 13.8257 12.5532 14.2734 12.001 14.2734C11.4833 14.2734 11.0572 13.8801 11.0059 13.376L11.001 13.2734L11.0059 13.1709C11.0572 12.6668 11.4833 12.2734 12.001 12.2734L12.1035 12.2783ZM16.6025 12.2783C17.1067 12.3297 17.5 12.7558 17.5 13.2734C17.5 13.8257 17.0523 14.2734 16.5 14.2734C15.9477 14.2734 15.5 13.8257 15.5 13.2734C15.5 12.7212 15.9477 12.2734 16.5 12.2734L16.6025 12.2783Z" fill="currentColor" />
</svg>