<svg xmlns="http://www.w3.org/2000/svg" width="24" height="24" viewBox="0 0 24 24" fill="none">
    <path d="M20.543 15.9179C20.9335 15.5274 21.5665 15.5274 21.957 15.9179C22.3476 16.3084 22.3476 16.9414 21.957 17.332L20.1641 19.1249L21.957 20.9179C22.3476 21.3084 22.3476 21.9414 21.957 22.332C21.5665 22.7225 20.9335 22.7225 20.543 22.332L18.75 20.539L16.957 22.332C16.5665 22.7225 15.9335 22.7225 15.543 22.332C15.1524 21.9414 15.1524 21.3084 15.543 20.9179L17.3359 19.1249L15.543 17.332C15.1524 16.9414 15.1524 16.3084 15.543 15.9179C15.9335 15.5274 16.5665 15.5274 16.957 15.9179L18.75 17.7109L20.543 15.9179Z" fill="currentColor" />
    <path d="M6.61258 0.875C7.15106 0.875 7.58758 1.31254 7.58758 1.85227V2.82955H14.4126V1.85227C14.4126 1.31254 14.8491 0.875 15.3876 0.875C15.9261 0.875 16.3626 1.31254 16.3626 1.85227V2.82955H17.8251C19.4405 2.82955 20.7501 4.14217 20.7501 5.76136V13.15C20.7501 13.6885 20.3135 14.125 19.7751 14.125C19.2366 14.125 18.8 13.6885 18.8 13.15V9.375H3.20003V19.4432C3.20003 19.9829 3.63655 20.4205 4.17503 20.4205H12.0284C12.5682 20.4205 13.0057 20.858 13.0057 21.3977C13.0057 21.9375 12.5682 22.375 12.0284 22.375H4.17508C2.55964 22.375 1.25008 21.0624 1.25008 19.4432V5.76136C1.25008 4.14217 2.55964 2.82955 4.17508 2.82955H5.63758V1.85227C5.63758 1.31254 6.0741 0.875 6.61258 0.875Z" fill="currentColor" />
</svg>