<svg xmlns="http://www.w3.org/2000/svg" width="24" height="24" viewBox="0 0 24 24" fill="none">
    <path d="M16.125 21.6249C16.125 22.1772 16.5727 22.6249 17.125 22.6249C17.6773 22.6249 18.125 22.1772 18.125 21.6249V17.0389L19.918 18.8319C20.3085 19.2224 20.9415 19.2224 21.332 18.8319C21.7226 18.4414 21.7226 17.8084 21.332 17.4178L17.832 13.9178C17.4415 13.5273 16.8085 13.5273 16.418 13.9178L12.918 17.4178C12.5274 17.8084 12.5274 18.4414 12.918 18.8319C13.3085 19.2224 13.9415 19.2224 14.332 18.8319L16.125 17.0389V21.6249Z" fill="currentColor" />
    <path d="M7.2375 0.875C7.77598 0.875 8.2125 1.31254 8.2125 1.85227V2.82955H15.0375V1.85227C15.0375 1.31254 15.474 0.875 16.0125 0.875C16.551 0.875 16.9875 1.31254 16.9875 1.85227V2.82955H18.45C20.0654 2.82955 21.375 4.14217 21.375 5.76136V12.15C21.375 12.6885 20.9385 13.125 20.4 13.125C19.8615 13.125 19.4249 12.6885 19.4249 12.15V9.375H3.82495V19.4432C3.82495 19.9829 4.26147 20.4205 4.79995 20.4205H11.1477C11.6875 20.4205 12.125 20.858 12.125 21.3977C12.125 21.9375 11.6875 22.375 11.1477 22.375H4.8C3.18457 22.375 1.875 21.0624 1.875 19.4432V5.76136C1.875 4.14217 3.18457 2.82955 4.8 2.82955H6.2625V1.85227C6.2625 1.31254 6.69903 0.875 7.2375 0.875Z" fill="currentColor" />
</svg>