<svg xmlns="http://www.w3.org/2000/svg" width="24" height="24" viewBox="0 0 24 24" fill="none">
    <path d="M20.293 16.918C20.6835 16.5275 21.3165 16.5275 21.707 16.918C22.0976 17.3085 22.0976 17.9416 21.707 18.3321L17.707 22.3321C17.3165 22.7226 16.6835 22.7226 16.293 22.3321L14.293 20.3321C13.9024 19.9416 13.9024 19.3085 14.293 18.918C14.6835 18.5275 15.3165 18.5275 15.707 18.918L17 20.211L20.293 16.918Z" fill="currentColor" />
    <path d="M6.86258 0.875122C7.40106 0.875122 7.83758 1.31266 7.83758 1.85239V2.82967H14.6626V1.85239C14.6626 1.31266 15.0991 0.875122 15.6376 0.875122C16.1761 0.875122 16.6126 1.31266 16.6126 1.85239V2.82967H18.0751C19.6905 2.82967 21.0001 4.14229 21.0001 5.76149V12.1501C21.0001 12.6886 20.5635 13.1251 20.0251 13.1251C19.4866 13.1251 19.05 12.6886 19.05 12.1501V9.37512H3.45003V19.4433C3.45003 19.983 3.88655 20.4206 4.42503 20.4206H10.7728C11.3125 20.4206 11.7501 20.8581 11.7501 21.3979C11.7501 21.9376 11.3125 22.3751 10.7728 22.3751H4.42508C2.80964 22.3751 1.50008 21.0625 1.50008 19.4433V5.76149C1.50008 4.14229 2.80964 2.82967 4.42508 2.82967H5.88758V1.85239C5.88758 1.31266 6.3241 0.875122 6.86258 0.875122Z" fill="currentColor" />
</svg>