<svg xmlns="http://www.w3.org/2000/svg" width="24" height="24" viewBox="0 0 24 24" fill="none">
    <path d="M17.1201 21.625V19.6201H15.125C14.5728 19.6201 14.1251 19.1723 14.125 18.6201C14.125 18.0678 14.5727 17.6201 15.125 17.6201H17.1201V15.625C17.1201 15.0727 17.5678 14.625 18.1201 14.625C18.6723 14.6251 19.1201 15.0728 19.1201 15.625V17.6201H21.125C21.6773 17.6201 22.125 18.0678 22.125 18.6201C22.1249 19.1723 21.6772 19.6201 21.125 19.6201H19.1201V21.625C19.1201 22.1772 18.6723 22.6249 18.1201 22.625C17.5678 22.625 17.1201 22.1773 17.1201 21.625Z" fill="currentColor" />
    <path d="M6.7375 0.875C7.27598 0.875 7.7125 1.31254 7.7125 1.85227V2.82955H14.5375V1.85227C14.5375 1.31254 14.974 0.875 15.5125 0.875C16.051 0.875 16.4875 1.31254 16.4875 1.85227V2.82955H17.95C19.5654 2.82955 20.875 4.14217 20.875 5.76136V12.625C20.875 13.1635 20.4385 13.6 19.9 13.6C19.3615 13.6 18.9249 13.1635 18.9249 12.625V9.375H3.32495V19.4432C3.32495 19.9829 3.76147 20.4205 4.29995 20.4205H12.6477C13.1875 20.4205 13.625 20.858 13.625 21.3977C13.625 21.9375 13.1875 22.375 12.6477 22.375H4.3C2.68457 22.375 1.375 21.0624 1.375 19.4432V5.76136C1.375 4.14217 2.68457 2.82955 4.3 2.82955H5.7625V1.85227C5.7625 1.31254 6.19903 0.875 6.7375 0.875Z" fill="currentColor" />
</svg>