<svg xmlns="http://www.w3.org/2000/svg" width="24" height="24" viewBox="0 0 24 24" fill="none">
    <path d="M16.1251 14.625C16.1251 14.0727 16.5728 13.625 17.1251 13.625C17.6774 13.625 18.1251 14.0727 18.1251 14.625V19.2109L19.918 17.418C20.3086 17.0274 20.9416 17.0274 21.3321 17.418C21.7226 17.8085 21.7226 18.4415 21.3321 18.832L17.8321 22.332C17.4416 22.7226 16.8086 22.7226 16.418 22.332L12.918 18.832C12.5275 18.4415 12.5275 17.8085 12.918 17.418C13.3086 17.0274 13.9416 17.0274 14.3321 17.418L16.1251 19.2109V14.625Z" fill="currentColor" />
    <path d="M7.23758 0.875C7.77606 0.875 8.21258 1.31254 8.21258 1.85227V2.82955H15.0376V1.85227C15.0376 1.31254 15.4741 0.875 16.0126 0.875C16.5511 0.875 16.9876 1.31254 16.9876 1.85227V2.82955H18.4501C20.0655 2.82955 21.3751 4.14217 21.3751 5.76136V12.15C21.3751 12.6885 20.9385 13.125 20.4001 13.125C19.8616 13.125 19.425 12.6885 19.425 12.15V9.375H3.82503V19.4432C3.82503 19.9829 4.26155 20.4205 4.80003 20.4205H11.1478C11.6875 20.4205 12.1251 20.858 12.1251 21.3977C12.1251 21.9375 11.6875 22.375 11.1478 22.375H4.80008C3.18464 22.375 1.87508 21.0624 1.87508 19.4432V5.76136C1.87508 4.14217 3.18464 2.82955 4.80008 2.82955H6.26258V1.85227C6.26258 1.31254 6.6991 0.875 7.23758 0.875Z" fill="currentColor" />
</svg>