<svg xmlns="http://www.w3.org/2000/svg" width="24" height="24" viewBox="0 0 24 24" fill="none">
    <path d="M1.54314 1.54265C1.93366 1.15212 2.56668 1.15212 2.9572 1.54265L22.4572 21.0426C22.8477 21.4332 22.8477 22.0662 22.4572 22.4567C22.0667 22.8472 21.4337 22.8472 21.0431 22.4567L1.54314 2.95671C1.15261 2.56619 1.15261 1.93317 1.54314 1.54265Z" fill="currentColor" />
    <path d="M9.75018 9.74963H4.20038V19.818C4.20047 20.3576 4.63664 20.7955 5.17499 20.7955H18.8254C19.3637 20.7954 19.7999 20.3576 19.8 19.818V19.7994L21.3283 21.3278C20.8164 22.1786 19.8889 22.7496 18.8254 22.7496H5.17499C3.5597 22.7495 2.25028 21.437 2.25018 19.818V6.13635C2.25018 5.0811 2.80816 4.15856 3.64276 3.64221L9.75018 9.74963Z" fill="currentColor" />
    <path d="M16.3879 1.24963C16.9263 1.24974 17.3625 1.6875 17.3625 2.22717V3.20374H18.8254C20.4407 3.20384 21.7502 4.51722 21.7502 6.13635V18.2145L19.8 16.2643V9.74963H13.2853L6.63788 3.10217V2.22717C6.63788 1.68751 7.0741 1.24974 7.61249 1.24963C8.15097 1.24963 8.58807 1.68744 8.58807 2.22717V3.20374H15.4123V2.22717C15.4123 1.68744 15.8494 1.24963 16.3879 1.24963Z" fill="currentColor" />
</svg>