<svg xmlns="http://www.w3.org/2000/svg" width="24" height="24" viewBox="0 0 24 24" fill="none">
    <path d="M4.27641 14.9918C4.93777 17.2678 6.73108 19.0605 9.00688 19.7223L8.79887 21.5992C8.72585 22.254 8.17258 22.7496 7.51372 22.7496C6.7759 22.7496 6.33891 22.1714 6.21001 21.6823C6.19712 21.6333 6.17859 21.5861 6.14946 21.5358C6.11975 21.4845 6.07254 21.4188 5.99321 21.3395C5.77918 21.1255 5.63264 21.1082 5.27544 21.0807L5.26274 21.0797C4.84628 21.0477 4.22503 20.9999 3.61235 20.3873C3.31637 20.0913 3.13605 19.7852 3.0352 19.4674C2.94044 19.1684 2.92812 18.8873 2.91801 18.7086C2.90671 18.509 2.89763 18.4109 2.86821 18.318C2.84462 18.2437 2.79706 18.1434 2.6602 18.0065C2.58577 17.932 2.52281 17.887 2.47173 17.858C2.42106 17.8293 2.37038 17.81 2.3145 17.7955C1.81114 17.665 1.25019 17.2169 1.25005 16.4908C1.25019 15.8291 1.74769 15.2731 2.40532 15.1998L4.27641 14.9918Z" fill="currentColor" />
    <path d="M16.4864 1.24963C17.2243 1.24965 17.6613 1.8278 17.7901 2.31702C17.803 2.36606 17.8214 2.41314 17.8506 2.4635C17.8804 2.51478 17.9275 2.58038 18.0069 2.65979C18.2209 2.87374 18.3674 2.8911 18.7247 2.91858L18.7374 2.91956C19.1538 2.95153 19.775 2.99922 20.3877 3.61194C20.6838 3.90799 20.8641 4.21394 20.9649 4.53186C21.0597 4.831 21.072 5.11199 21.0821 5.29065C21.0934 5.49045 21.1024 5.5883 21.1319 5.68127C21.1555 5.75555 21.2029 5.8558 21.3399 5.9928C21.4144 6.06728 21.4773 6.11227 21.5284 6.14124C21.579 6.16995 21.6297 6.18924 21.6856 6.20374C22.189 6.33433 22.75 6.78221 22.75 7.50842C22.7499 8.17013 22.2524 8.72616 21.5948 8.79944L19.7227 9.00647C19.061 6.73067 17.2682 4.93736 14.9922 4.276L15.2012 2.40002C15.2741 1.74514 15.8274 1.24968 16.4864 1.24963Z" fill="currentColor" />
    <path d="M1.54314 1.54265C1.93366 1.15212 2.56668 1.15212 2.9572 1.54265L22.4572 21.0426C22.8477 21.4332 22.8477 22.0662 22.4572 22.4567C22.0667 22.8472 21.4337 22.8472 21.0431 22.4567L1.54314 2.95671C1.15261 2.56619 1.15261 1.93317 1.54314 1.54265Z" fill="currentColor" />
    <path d="M13.2503 13.2496V18.2633C12.5323 18.5799 11.7503 18.7495 10.9505 18.7496C10.8835 18.7496 10.8167 18.7461 10.7503 18.7438V10.7496L13.2503 13.2496ZM9.25029 9.24963V18.4918C6.93261 17.7685 5.25029 15.6052 5.25029 13.0494C5.25041 11.538 5.85046 10.088 6.91924 9.01917L7.96904 7.96838L9.25029 9.24963ZM16.0306 16.0299L14.9808 17.0807C14.906 17.1555 14.8287 17.2273 14.7503 17.2975V14.7496L16.0306 16.0299ZM14.7503 5.50647C17.068 6.22983 18.7503 8.39406 18.7503 10.9498C18.7502 12.1186 18.3896 13.2495 17.7327 14.1969L14.7503 11.2145V5.50647ZM13.2503 5.25452V9.71448L10.7503 7.21448V5.73401C11.468 5.41741 12.2505 5.2497 13.0501 5.24963C13.1171 5.24964 13.1838 5.25222 13.2503 5.25452Z" fill="currentColor" />
</svg>