<svg xmlns="http://www.w3.org/2000/svg" width="24" height="24" viewBox="0 0 24 24" fill="none">
    <path d="M1.54312 1.54253C1.93365 1.152 2.56666 1.152 2.95718 1.54253L22.4572 21.0425C22.8477 21.4331 22.8477 22.0661 22.4572 22.4566C22.0667 22.8471 21.4336 22.8471 21.0431 22.4566L1.54312 2.95659C1.1526 2.56607 1.1526 1.93305 1.54312 1.54253Z" fill="currentColor" />
    <path d="M4.00012 5.24963C4.45261 5.24964 4.90995 5.28943 5.36438 5.36389L17.7579 17.7574C18.0258 18.5205 18.1505 19.2826 18.1505 19.9996C18.1505 20.4137 17.8145 20.7494 17.4005 20.7496C15.6589 20.7496 14.1878 19.9329 13.0001 18.9674V21.7496C13.0001 22.3019 12.5524 22.7496 12.0001 22.7496C11.4478 22.7496 11.0001 22.3019 11.0001 21.7496V18.9674C9.81249 19.9329 8.34132 20.7496 6.59973 20.7496C6.1857 20.7494 5.84973 20.4137 5.84973 19.9996C5.84973 18.8181 6.1855 17.5128 6.94836 16.2848C6.92456 16.2832 6.90033 16.2827 6.8761 16.2809C5.81934 16.2029 4.35676 15.9345 2.69153 15.1832C2.34497 15.0268 2.17048 14.6356 2.28528 14.2731C2.44677 13.7632 2.78605 13.2996 3.16516 12.9088C3.55162 12.5105 4.02169 12.1441 4.50989 11.8336C4.96575 11.5437 5.45244 11.2946 5.92297 11.108C5.47345 10.6445 5.02251 10.1028 4.62707 9.53186C3.89884 8.48034 3.25012 7.18349 3.25012 5.99963C3.25012 5.58542 3.58591 5.24963 4.00012 5.24963Z" fill="currentColor" />
    <path d="M12.0001 1.24963C12.2424 1.24965 12.4697 1.36685 12.6105 1.56409C13.7611 3.17903 14.4312 5.02035 14.6593 6.96545C16.1482 5.93548 18.1166 5.24963 20.0001 5.24963C20.4143 5.24966 20.7501 5.58544 20.7501 5.99963C20.7501 7.18349 20.1014 8.48034 19.3732 9.53186C18.9776 10.103 18.526 10.6443 18.0763 11.108C18.5471 11.2946 19.0342 11.5435 19.4904 11.8336C19.9786 12.1441 20.4486 12.5105 20.8351 12.9088C21.2142 13.2996 21.5535 13.7632 21.715 14.2731C21.8297 14.6356 21.6552 15.0268 21.3087 15.1832C20.5313 15.5339 19.7974 15.7769 19.129 15.9469L9.4425 6.26038C9.73799 4.57563 10.3791 2.98262 11.3898 1.56409L11.4464 1.49377C11.5875 1.33928 11.7881 1.24963 12.0001 1.24963Z" fill="currentColor" />
</svg>