<svg xmlns="http://www.w3.org/2000/svg" width="24" height="24" viewBox="0 0 24 24" fill="none">
    <path d="M12.0001 1.24963C12.2424 1.24964 12.4697 1.36684 12.6104 1.56409C13.7611 3.17904 14.4311 5.02034 14.6593 6.96545C16.1481 5.93547 18.1165 5.24963 20.0001 5.24963C20.4143 5.24964 20.7501 5.58543 20.7501 5.99963C20.7501 7.18349 20.1014 8.48034 19.3731 9.53186C18.9775 10.103 18.5259 10.6443 18.0762 11.108C18.5471 11.2946 19.0342 11.5435 19.4903 11.8336C19.9785 12.1441 20.4486 12.5105 20.835 12.9088C21.2141 13.2996 21.5534 13.7632 21.7149 14.2731C21.8297 14.6356 21.6552 15.0268 21.3087 15.1832C19.6434 15.9345 18.1809 16.2029 17.1241 16.2809C17.0995 16.2827 17.075 16.2832 17.0509 16.2848C17.8139 17.5129 18.1505 18.8179 18.1505 19.9996C18.1505 20.4137 17.8145 20.7494 17.4005 20.7496C15.6589 20.7496 14.1877 19.9329 13.0001 18.9674V21.7496C13.0001 22.3019 12.5524 22.7496 12.0001 22.7496C11.4478 22.7496 11.0001 22.3019 11.0001 21.7496V18.9674C9.81244 19.9329 8.34129 20.7496 6.59969 20.7496C6.18565 20.7494 5.84969 20.4137 5.84969 19.9996C5.84969 18.8181 6.18546 17.5128 6.94832 16.2848C6.9245 16.2832 6.9003 16.2827 6.87605 16.2809C5.81929 16.2029 4.35673 15.9345 2.69148 15.1832C2.34493 15.0268 2.17044 14.6356 2.28523 14.2731C2.44672 13.7632 2.786 13.2996 3.16511 12.9088C3.55158 12.5105 4.02163 12.1441 4.50984 11.8336C4.96571 11.5437 5.45239 11.2946 5.92293 11.108C5.4734 10.6445 5.02246 10.1028 4.62703 9.53186C3.89879 8.48034 3.25008 7.18349 3.25008 5.99963C3.25008 5.58542 3.58586 5.24963 4.00008 5.24963C5.88336 5.24964 7.85114 5.93573 9.33992 6.96545C9.56802 5.0203 10.239 3.17907 11.3897 1.56409L11.4464 1.49377C11.5875 1.33927 11.7881 1.24963 12.0001 1.24963Z" fill="currentColor" />
</svg>