<svg xmlns="http://www.w3.org/2000/svg" width="24" height="24" viewBox="0 0 24 24" fill="none">
    <path d="M16.9999 1.25C19.6232 1.25 21.7499 3.37665 21.7499 6C21.7499 8.62335 19.6232 10.75 16.9999 10.75C14.3765 10.75 12.2499 8.62335 12.2499 6C12.2499 3.37665 14.3765 1.25 16.9999 1.25ZM16.9999 7.5C16.5857 7.5 16.2499 7.83579 16.2499 8.25V8.25977C16.2499 8.67398 16.5857 9.00977 16.9999 9.00977C17.4141 9.00977 17.7499 8.67398 17.7499 8.25977V8.25C17.7499 7.83579 17.4141 7.5 16.9999 7.5ZM16.9999 3C16.5857 3 16.2499 3.33579 16.2499 3.75V5.75C16.2499 6.16421 16.5857 6.5 16.9999 6.5C17.4141 6.5 17.7499 6.16421 17.7499 5.75V3.75C17.7499 3.33579 17.4141 3 16.9999 3Z" fill="currentColor" />
    <path d="M10.2499 5.25C10.664 5.25006 10.9999 5.58583 10.9999 6C10.9998 6.41413 10.664 6.74994 10.2499 6.75H7.83289C7.3283 6.75004 6.87364 7.05375 6.67957 7.51953L5.02722 11.4834L6.09167 11.75H17.9071L18.9725 11.4834L20.3212 10.8213L21.5497 9.90039C21.8809 9.65195 22.3509 9.71875 22.5995 10.0498C22.8479 10.3811 22.7812 10.851 22.4501 11.0996L21.0175 12.1748L22.288 14.0801C22.5891 14.5318 22.7499 15.0626 22.7499 15.6055V22C22.7499 22.4142 22.4141 22.75 21.9999 22.75H19.7499C19.3357 22.75 18.9999 22.4142 18.9999 22V19.75H4.99988V22C4.99988 22.4142 4.66409 22.75 4.24988 22.75H1.99988C1.58566 22.75 1.24988 22.4142 1.24988 22V15.6055C1.24989 15.0626 1.41065 14.5318 1.71179 14.0801L2.9823 12.1738L1.54968 11.0996C1.21862 10.851 1.15183 10.3811 1.40027 10.0498C1.64886 9.71871 2.11881 9.65194 2.45007 9.90039L3.67859 10.8213L5.2948 6.94238C5.72175 5.9177 6.72284 5.25013 7.83289 5.25H10.2499ZM5.99988 15C5.44759 15 4.99988 15.4477 4.99988 16V16.0098C4.99988 16.5621 5.44759 17.0098 5.99988 17.0098C6.55216 17.0098 6.99988 16.5621 6.99988 16.0098V16C6.99988 15.4477 6.55216 15 5.99988 15ZM17.9999 15C17.4476 15 16.9999 15.4477 16.9999 16V16.0098C16.9999 16.5621 17.4476 17.0098 17.9999 17.0098C18.5522 17.0098 18.9999 16.5621 18.9999 16.0098V16C18.9999 15.4477 18.5522 15 17.9999 15Z" fill="currentColor" />
</svg>