<svg xmlns="http://www.w3.org/2000/svg" width="24" height="24" viewBox="0 0 24 24" fill="none">
    <path d="M17 1.25C19.6234 1.25 21.75 3.37665 21.75 6C21.75 8.62335 19.6234 10.75 17 10.75C14.3766 10.75 12.25 8.62335 12.25 6C12.25 3.37665 14.3766 1.25 17 1.25ZM17 3.25C16.5858 3.25 16.25 3.58579 16.25 4V6C16.25 6.32282 16.4564 6.60983 16.7627 6.71191L18.2627 7.21191C18.6557 7.3429 19.0809 7.13026 19.2119 6.7373C19.3429 6.34435 19.1303 5.91907 18.7373 5.78809L17.75 5.45898V4C17.75 3.58579 17.4142 3.25 17 3.25Z" fill="currentColor" />
    <path d="M10.25 5.25C10.6642 5.25006 11 5.58583 11 6C10.9999 6.41413 10.6641 6.74994 10.25 6.75H7.83301C7.32842 6.75004 6.87376 7.05375 6.67969 7.51953L5.02734 11.4834L6.0918 11.75H17.9072L18.9727 11.4834L20.3213 10.8213L21.5498 9.90039C21.8811 9.65195 22.351 9.71875 22.5996 10.0498C22.8481 10.3811 22.7813 10.851 22.4502 11.0996L21.0176 12.1748L22.2881 14.0801C22.5892 14.5318 22.75 15.0626 22.75 15.6055V22C22.75 22.4142 22.4142 22.75 22 22.75H19.75C19.3358 22.75 19 22.4142 19 22V19.75H5V22C5 22.4142 4.66421 22.75 4.25 22.75H2C1.58579 22.75 1.25 22.4142 1.25 22V15.6055C1.25002 15.0626 1.41077 14.5318 1.71191 14.0801L2.98242 12.1738L1.5498 11.0996C1.21875 10.851 1.15195 10.3811 1.40039 10.0498C1.64898 9.71871 2.11893 9.65194 2.4502 9.90039L3.67871 10.8213L5.29492 6.94238C5.72187 5.9177 6.72296 5.25013 7.83301 5.25H10.25ZM6 15C5.44772 15 5 15.4477 5 16V16.0098C5 16.5621 5.44772 17.0098 6 17.0098C6.55228 17.0098 7 16.5621 7 16.0098V16C7 15.4477 6.55228 15 6 15ZM18 15C17.4477 15 17 15.4477 17 16V16.0098C17 16.5621 17.4477 17.0098 18 17.0098C18.5523 17.0098 19 16.5621 19 16.0098V16C19 15.4477 18.5523 15 18 15Z" fill="currentColor" />
</svg>