<svg xmlns="http://www.w3.org/2000/svg" width="24" height="24" viewBox="0 0 24 24" fill="none">
    <path d="M16.167 3.25C17.277 3.25013 18.2781 3.9177 18.7051 4.94238L20.3213 8.82129L21.5498 7.90039C21.8811 7.65195 22.351 7.71875 22.5996 8.0498C22.8481 8.38107 22.7813 8.85102 22.4502 9.09961L21.0176 10.1748L22.2881 12.0801C22.5892 12.5318 22.75 13.0626 22.75 13.6055V20C22.75 20.4142 22.4142 20.75 22 20.75H19.75C19.3358 20.75 19 20.4142 19 20V17.75H5V20C5 20.4142 4.66421 20.75 4.25 20.75H2C1.58579 20.75 1.25 20.4142 1.25 20V13.6055C1.25002 13.0626 1.41077 12.5318 1.71191 12.0801L2.98242 10.1738L1.5498 9.09961C1.21875 8.85101 1.15195 8.38105 1.40039 8.0498C1.64898 7.71871 2.11893 7.65194 2.4502 7.90039L3.67871 8.82129L5.29492 4.94238C5.72187 3.9177 6.72296 3.25013 7.83301 3.25H16.167ZM6 13C5.44772 13 5 13.4477 5 14V14.0098C5 14.5621 5.44772 15.0098 6 15.0098C6.55228 15.0098 7 14.5621 7 14.0098V14C7 13.4477 6.55228 13 6 13ZM18 13C17.4477 13 17 13.4477 17 14V14.0098C17 14.5621 17.4477 15.0098 18 15.0098C18.5523 15.0098 19 14.5621 19 14.0098V14C19 13.4477 18.5523 13 18 13ZM7.83301 4.75C7.32842 4.75004 6.87376 5.05375 6.67969 5.51953L5.02734 9.4834L6.0918 9.75H17.9072L18.9727 9.4834L17.3203 5.51953C17.1262 5.05372 16.6706 4.75 16.166 4.75H7.83301Z" fill="currentColor" />
</svg>