<svg xmlns="http://www.w3.org/2000/svg" width="24" height="24" viewBox="0 0 24 24" fill="none">
    <path d="M9.75 8.75C10.3023 8.75 10.75 9.19772 10.75 9.75V16.75C10.75 17.3023 10.3023 17.75 9.75 17.75C9.27462 17.75 8.87699 17.4182 8.77539 16.9736C8.05521 17.463 7.18635 17.75 6.25 17.75C3.76472 17.75 1.75 15.7353 1.75 13.25C1.75 10.7647 3.76472 8.75 6.25 8.75C7.18635 8.75 8.05521 9.03699 8.77539 9.52637C8.87699 9.08178 9.27462 8.75 9.75 8.75ZM3.75 13.25C3.75 14.6307 4.86929 15.75 6.25 15.75C7.63071 15.75 8.75 14.6307 8.75 13.25C8.75 11.8693 7.63071 10.75 6.25 10.75C4.86929 10.75 3.75 11.8693 3.75 13.25Z" fill="currentColor" />
    <path d="M19.75 13.25C19.75 11.8693 18.6307 10.75 17.25 10.75C15.8693 10.75 14.75 11.8693 14.75 13.25C14.75 14.6307 15.8693 15.75 17.25 15.75C18.6307 15.75 19.75 14.6307 19.75 13.25ZM21.75 13.25C21.75 15.7353 19.7353 17.75 17.25 17.75C16.3134 17.75 15.4439 17.4633 14.7236 16.9736C14.622 17.4181 14.2253 17.75 13.75 17.75C13.1977 17.75 12.75 17.3023 12.75 16.75V6.75C12.75 6.19772 13.1977 5.75 13.75 5.75C14.3023 5.75 14.75 6.19772 14.75 6.75V9.50781C15.4651 9.02917 16.3249 8.75 17.25 8.75C19.7353 8.75 21.75 10.7647 21.75 13.25Z" fill="currentColor" />
</svg>