<svg xmlns="http://www.w3.org/2000/svg" width="24" height="24" viewBox="0 0 24 24" fill="none">
    <path d="M20 3.25C21.5188 3.25 22.75 4.48122 22.75 6V18C22.75 19.5188 21.5188 20.75 20 20.75H18.7168L18.0215 17L18.0117 16.9541L17.957 16.7705C17.6482 15.8679 16.797 15.2501 15.8291 15.25H8.1709C7.13862 15.2501 6.23872 15.9527 5.98828 16.9541L5.97852 17L5.2832 20.75H4C2.48122 20.75 1.25 19.5188 1.25 18V6C1.25 4.48122 2.48122 3.25 4 3.25H20ZM15.8291 16.75C16.1702 16.7501 16.4673 16.9804 16.5537 17.3096L17.1914 20.75H6.80859L7.44531 17.3096C7.53166 16.9803 7.82976 16.7501 8.1709 16.75H15.8291ZM8 7.25C7.97329 7.25 7.94689 7.25118 7.9209 7.25391C6.43873 7.29581 5.25 8.5077 5.25 10C5.25 11.4923 6.43875 12.7032 7.9209 12.7451C7.94692 12.7478 7.97326 12.75 8 12.75H16C16.0264 12.75 16.0524 12.7478 16.0781 12.7451C17.5607 12.7037 18.75 11.4926 18.75 10C18.75 8.50737 17.5607 7.29531 16.0781 7.25391C16.0524 7.25125 16.0264 7.25 16 7.25H8ZM8 8.75C8.69036 8.75 9.25 9.30964 9.25 10C9.25 10.6904 8.69036 11.25 8 11.25C7.30964 11.25 6.75 10.6904 6.75 10C6.75 9.30964 7.30964 8.75 8 8.75ZM13.5527 8.75C13.3606 9.12532 13.25 9.54942 13.25 10C13.25 10.4506 13.3606 10.8747 13.5527 11.25H10.4473C10.6394 10.8747 10.75 10.4506 10.75 10C10.75 9.54942 10.6394 9.12532 10.4473 8.75H13.5527ZM16 8.75C16.6904 8.75 17.25 9.30964 17.25 10C17.25 10.6904 16.6904 11.25 16 11.25C15.3096 11.25 14.75 10.6904 14.75 10C14.75 9.30964 15.3096 8.75 16 8.75Z" fill="currentColor" />
</svg>