<svg xmlns="http://www.w3.org/2000/svg" width="24" height="24" viewBox="0 0 24 24" fill="none">
    <path fill-rule="evenodd" clip-rule="evenodd" d="M19.6474 11.3008C19.8468 11.1586 20.1055 11.1215 20.3397 11.2071C21.2556 11.5418 21.7237 12.5556 21.3925 13.4698L20.3544 16.336C20.2821 16.5355 20.1775 16.7142 20.0487 16.8681L16.9938 13.8132L19.5653 11.3682L19.6474 11.3008Z" fill="currentColor" />
    <path fill-rule="evenodd" clip-rule="evenodd" d="M5.40808 2.22754L15.8081 12.6276L19.5946 9.0264C19.7713 8.85842 19.9071 8.65185 19.9901 8.42288C20.2849 7.60952 19.8682 6.70635 19.0526 6.40823L7.45498 2.16898C6.76212 1.9158 6.03484 1.95674 5.40808 2.22754Z" fill="currentColor" />
    <path d="M2.04283 3.45696L3.50489 4.91902L2.16783 8.61028C1.64533 10.0521 2.38381 11.6498 3.82506 12.1767L11.2108 14.8769C11.9228 15.1371 12.6962 15.09 13.3583 14.7724L20.0428 21.457C20.4334 21.8475 21.0664 21.8475 21.4569 21.457C21.8474 21.0664 21.8474 20.4334 21.4569 20.0429L3.45689 2.04289C3.06637 1.65237 2.43336 1.65237 2.04283 2.04289C1.65231 2.43342 1.65231 3.06643 2.04283 3.45696Z" fill="currentColor" />
    <path d="M3.74988 19.75H5.74988C7.40673 19.75 8.74988 18.4069 8.74988 16.75V13.25C8.74988 12.6977 8.30216 12.25 7.74988 12.25C7.19759 12.25 6.74988 12.6977 6.74988 13.25V16.75C6.74988 17.3023 6.30216 17.75 5.74988 17.75H3.74988V16.75C3.74988 16.1977 3.30216 15.75 2.74988 15.75C2.19759 15.75 1.74988 16.1977 1.74988 16.75V18.75V20.75C1.74988 21.3023 2.19759 21.75 2.74988 21.75C3.30216 21.75 3.74988 21.3023 3.74988 20.75V19.75Z" fill="currentColor" />
</svg>