<svg xmlns="http://www.w3.org/2000/svg" width="24" height="24" viewBox="0 0 24 24" fill="none">
    <path d="M20 21V9C20 8.44772 20.4477 8 21 8C21.5523 8 22 8.44772 22 9V21C22 21.5523 21.5523 22 21 22C20.4477 22 20 21.5523 20 21Z" fill="currentColor" stroke="currentColor" stroke-linecap="round" stroke-linejoin="round" />
    <path d="M14 21V15C14 14.4477 14.4477 14 15 14C15.5523 14 16 14.4477 16 15V21C16 21.5523 15.5523 22 15 22C14.4477 22 14 21.5523 14 21Z" fill="currentColor" stroke="currentColor" stroke-linecap="round" stroke-linejoin="round" />
    <path d="M20.293 2.29289C20.6835 1.90237 21.3166 1.90237 21.7071 2.29289C22.0976 2.68342 22.0976 3.31643 21.7071 3.70696L13.7071 11.707C13.3166 12.0975 12.6835 12.0975 12.293 11.707L10 9.41399L3.70708 15.707C3.31655 16.0975 2.68354 16.0975 2.29302 15.707C1.90249 15.3164 1.90249 14.6834 2.29302 14.2929L9.29302 7.29289L9.36919 7.22453C9.76196 6.90418 10.341 6.92678 10.7071 7.29289L13 9.58586L20.293 2.29289Z" fill="currentColor" stroke="currentColor" stroke-linecap="round" stroke-linejoin="round" />
    <path d="M8 21V14C8 13.4477 8.44772 13 9 13C9.55228 13 10 13.4477 10 14V21C10 21.5523 9.55228 22 9 22C8.44772 22 8 21.5523 8 21Z" fill="currentColor" stroke="currentColor" stroke-linecap="round" stroke-linejoin="round" />
    <path d="M2 21V19C2 18.4477 2.44772 18 3 18C3.55228 18 4 18.4477 4 19V21C4 21.5523 3.55228 22 3 22C2.44772 22 2 21.5523 2 21Z" fill="currentColor" stroke="currentColor" stroke-linecap="round" stroke-linejoin="round" />
</svg>