<svg xmlns="http://www.w3.org/2000/svg" width="24" height="24" viewBox="0 0 24 24" fill="none">
    <path d="M12.7505 10.75C12.7505 9.23687 13.0814 7.80986 13.6919 6.72461C14.2927 5.65691 15.2799 4.75012 16.608 4.75C17.7903 4.75 18.759 5.33549 19.4468 6.18945C20.1224 7.02822 20.5503 8.14337 20.7388 9.34473C20.8244 9.89027 20.4513 10.4026 19.9058 10.4883C19.3603 10.5739 18.848 10.2008 18.7622 9.65527C18.6124 8.70046 18.2896 7.94048 17.8892 7.44336C17.5011 6.96164 17.0679 6.75 16.608 6.75C16.2939 6.75012 15.8524 6.96337 15.4351 7.70508C15.0275 8.42947 14.7505 9.5021 14.7505 10.75C14.7505 12.2315 14.4853 13.6592 13.9009 14.7559C13.3062 15.8717 12.3054 16.7499 10.8931 16.75C9.7111 16.75 8.7421 16.1655 8.05424 15.3115C7.37877 14.4729 6.95133 13.3572 6.76225 12.1553C6.67654 11.6098 7.04974 11.0975 7.59526 11.0117C8.14076 10.926 8.653 11.2992 8.73881 11.8447C8.88921 12.8006 9.21179 13.5598 9.61186 14.0566C9.9997 14.5381 10.4328 14.75 10.8931 14.75C11.3382 14.7499 11.7666 14.509 12.1363 13.8154C12.5163 13.1024 12.7505 12.0298 12.7505 10.75Z" fill="currentColor" />
    <path d="M1.75 18.75V2.75C1.75 2.19772 2.19772 1.75 2.75 1.75C3.30228 1.75 3.75 2.19772 3.75 2.75V18.75C3.75 19.3023 4.19772 19.75 4.75 19.75H20.75C21.3023 19.75 21.75 20.1977 21.75 20.75C21.75 21.3023 21.3023 21.75 20.75 21.75H4.75C3.09315 21.75 1.75 20.4069 1.75 18.75Z" fill="currentColor" />
</svg>