<svg xmlns="http://www.w3.org/2000/svg" width="24" height="24" viewBox="0 0 24 24" fill="none">
    <path d="M12 1.75C14.9929 1.75 17.7745 1.87521 20.0723 2.09082C21.3077 2.20681 22.3055 3.16404 22.4434 4.41113C22.6381 6.17328 22.75 8.26308 22.75 10.5C22.75 12.7369 22.6381 14.8267 22.4434 16.5889C22.3055 17.8358 21.308 18.7932 20.0723 18.9092C17.9753 19.106 15.4756 19.2263 12.7803 19.2461L9.69336 21.8936C9.4251 22.1236 9.08286 22.25 8.72949 22.25C7.91249 22.2498 7.25022 21.5875 7.25 20.7705V19.1377C6.06373 19.0806 4.94824 19.0049 3.92773 18.9092C2.69215 18.7932 1.69446 17.8359 1.55664 16.5889C1.36191 14.8267 1.25 12.7369 1.25 10.5C1.25 8.26308 1.36191 6.17328 1.55664 4.41113C1.69447 3.16404 2.69226 2.2068 3.92773 2.09082C6.22548 1.87521 9.00709 1.75 12 1.75ZM12 13.75C11.4477 13.75 11 14.1977 11 14.75C11 15.3023 11.4477 15.75 12 15.75C12.5523 15.75 13 15.3023 13 14.75C13 14.1977 12.5523 13.75 12 13.75ZM12 5C10.3431 5 9 6.34315 9 8C9 8.55228 9.44771 9 10 9C10.5177 9 10.9438 8.60667 10.9951 8.10254L11.0049 7.89746C11.0562 7.39333 11.4823 7 12 7C12.5523 7 13 7.44772 13 8C13 8.28878 12.8788 8.54759 12.6816 8.73145C12.4097 8.98484 11.9945 9.35241 11.6699 9.7627C11.3371 10.1833 11 10.7672 11 11.5C11 12.0523 11.4477 12.5 12 12.5C12.5523 12.5 13 12.0523 13 11.5C13 11.4046 13.041 11.2522 13.2383 11.0029C13.4437 10.7433 13.7109 10.5066 14.0449 10.1953C14.6312 9.64897 15 8.86662 15 8C15 6.34315 13.6569 5 12 5Z" fill="currentColor" />
</svg>