<svg xmlns="http://www.w3.org/2000/svg" width="24" height="24" viewBox="0 0 24 24" fill="none">
    <path d="M12 1.75C14.9929 1.75 17.7745 1.87521 20.0723 2.09082C21.3077 2.2068 22.3055 3.16404 22.4434 4.41113C22.6381 6.17328 22.75 8.26308 22.75 10.5C22.75 12.7369 22.6381 14.8267 22.4434 16.5889C22.3055 17.8359 21.3078 18.7932 20.0723 18.9092C19.0518 19.0049 17.9363 19.0806 16.75 19.1377V20.7705C16.7498 21.5875 16.0875 22.2498 15.2705 22.25C14.9171 22.25 14.5749 22.1236 14.3066 21.8936L11.2197 19.2461C8.52443 19.2263 6.02473 19.106 3.92773 18.9092C2.69204 18.7932 1.69445 17.8358 1.55664 16.5889C1.36191 14.8267 1.25 12.7369 1.25 10.5C1.25 8.26308 1.36191 6.17328 1.55664 4.41113C1.69447 3.16404 2.69226 2.20681 3.92773 2.09082C6.22548 1.87521 9.00709 1.75 12 1.75ZM8 9.5C7.44771 9.5 7 9.94772 7 10.5C7 11.0523 7.44772 11.5 8 11.5C8.55228 11.5 9 11.0523 9 10.5C9 9.94772 8.55228 9.5 8 9.5ZM12.001 9.5C11.4833 9.5 11.0572 9.89335 11.0059 10.3975L11.001 10.5L11.0059 10.6025C11.0572 11.1067 11.4833 11.5 12.001 11.5C12.5532 11.4999 13.001 11.0522 13.001 10.5C13.001 9.98207 12.607 9.55587 12.1025 9.50488L12.001 9.5ZM16 9.5C15.4477 9.5 15 9.94772 15 10.5C15 11.0523 15.4477 11.5 16 11.5C16.5523 11.5 17 11.0523 17 10.5C17 9.94772 16.5523 9.5 16 9.5Z" fill="currentColor" />
</svg>