<svg xmlns="http://www.w3.org/2000/svg" width="24" height="24" viewBox="0 0 24 24" fill="none">
    <path d="M15.0429 6.04295C15.4334 5.65243 16.0665 5.65243 16.457 6.04295C16.8475 6.43348 16.8475 7.06649 16.457 7.45702L6.45699 17.457C6.06646 17.8475 5.43345 17.8475 5.04292 17.457L1.04292 13.457C0.652399 13.0665 0.652399 12.4335 1.04292 12.043C1.43345 11.6524 2.06646 11.6524 2.45699 12.043L5.74996 15.3359L15.0429 6.04295Z" fill="currentColor" />
    <path d="M21.043 6.04295C21.4335 5.65243 22.0665 5.65243 22.457 6.04295C22.8475 6.43347 22.8475 7.06649 22.457 7.45701L12.457 17.457C12.0665 17.8475 11.4335 17.8475 11.043 17.457L10.043 16.457C9.65243 16.0665 9.65243 15.4335 10.043 15.043C10.4335 14.6524 11.0665 14.6524 11.457 15.043L11.75 15.3359L21.043 6.04295Z" fill="currentColor" />
</svg>