<svg xmlns="http://www.w3.org/2000/svg" width="24" height="24" viewBox="0 0 24 24" fill="none">
    <path fill-rule="evenodd" clip-rule="evenodd" d="M14.2174 2.49763C15.1576 1.87149 16.3945 1.81483 17.3834 2.45368C18.5117 3.18267 19.8467 4.16031 20.9283 5.37555C21.9889 6.56726 22.8628 8.05598 22.985 9.81696C22.99 9.84966 22.9939 9.88285 22.9957 9.91657C22.9976 9.95248 22.9951 9.98865 22.9957 10.024C22.9964 10.0578 22.9971 10.0913 22.9967 10.1246C22.9962 10.1557 22.998 10.1867 22.9967 10.2174L22.9996 17.4996C22.9995 19.0357 21.8069 20.2822 20.2955 20.4293L17.0963 20.7398C16.8156 20.7671 16.5366 20.6745 16.3277 20.4849C16.119 20.2954 15.9996 20.0266 15.9996 19.7447V19.2584C15.9991 18.7644 15.5787 18.3151 14.9996 18.315C14.4209 18.315 14.0006 18.7637 13.9996 19.2574V19.2584L14.0025 20.1304C14.0039 20.6461 13.6124 21.0783 13.0992 21.1285L4.29551 21.984C2.56143 22.1525 0.999608 20.8254 0.999608 19.0543V12.3277C0.995075 12.2487 0.9959 12.1706 1.00254 12.0933C1.00635 12.0081 1.01916 11.9248 1.04355 11.8453C1.16483 11.346 1.51375 10.9088 2.00351 10.6334L8.26621 6.46247C9.02504 5.9571 9.86778 6.28883 10.2926 6.71052C10.4744 6.89108 10.7225 7.00056 10.9977 7.00056C11.5499 7.00055 11.9977 6.55284 11.9977 6.00056C11.9976 5.86563 11.9711 5.73933 11.9244 5.62458C11.6995 5.0714 11.7164 4.16425 12.4762 3.65778L14.2174 2.49763ZM8.49961 14.2506C7.25712 14.2506 6.24986 15.2581 6.24961 16.5006C6.24975 17.7431 7.25706 18.7506 8.49961 18.7506C9.74211 18.7505 10.7495 17.743 10.7496 16.5006C10.7494 15.2582 9.74204 14.2506 8.49961 14.2506ZM16.9996 14.0006C16.4475 14.0006 15.9999 14.4485 15.9996 15.0006C15.9998 15.5527 16.4474 16.0006 16.9996 16.0006H17.0084C17.5605 16.0005 18.0083 15.5527 18.0084 15.0006C18.0081 14.4485 17.5605 14.0006 17.0084 14.0006H16.9996ZM16.2975 4.13434C16.0175 3.95352 15.6434 3.95111 15.3258 4.16266L13.8697 5.13239C13.953 5.4081 13.9976 5.69983 13.9977 6.00056C13.9977 7.6574 12.6545 9.00055 10.9977 9.00056C10.2735 9.00056 9.60838 8.7429 9.09043 8.31598L3.61484 11.9625L19.6422 11.1148C20.0511 11.0931 20.4261 10.9414 20.6734 10.7291C20.6771 10.7259 20.6806 10.7225 20.6842 10.7193C20.9065 10.5231 21.0107 10.2937 20.9967 10.024C20.9343 8.83426 20.3428 7.72652 19.4342 6.70563C18.5262 5.68544 17.3623 4.82229 16.2975 4.13434ZM16.0084 7.00056C16.5606 7.00056 17.0083 7.44836 17.0084 8.00056C17.0084 8.55284 16.5607 9.00056 16.0084 9.00056H15.9996C15.4473 9.00056 14.9996 8.55284 14.9996 8.00056C14.9997 7.44836 15.4474 7.00056 15.9996 7.00056H16.0084Z" fill="currentColor" />
</svg>