<svg xmlns="http://www.w3.org/2000/svg" width="24" height="24" viewBox="0 0 24 24" fill="none">
    <path d="M17 17.25C18.5188 17.25 19.75 18.4812 19.75 20V21C19.75 21.9665 18.9665 22.75 18 22.75H6C5.0335 22.75 4.25 21.9665 4.25 21V20C4.25 18.4812 5.48122 17.25 7 17.25H17ZM12 1.25C13.6569 1.25 15 2.59315 15 4.25C15 4.71712 14.8897 5.15758 14.6992 5.55176C15.2762 6.17181 15.8476 6.84863 16.3721 7.56641L13.4697 10.4697C13.1769 10.7626 13.1769 11.2374 13.4697 11.5303C13.7626 11.8232 14.2374 11.8232 14.5303 11.5303L17.2207 8.83887C17.2346 8.86217 17.2499 8.88484 17.2637 8.9082C18.1292 10.3739 18.7498 12.0094 18.75 13.6924C18.75 14.6123 18.5155 15.4459 18.1338 16.1641C17.7743 16.058 17.3939 16 17 16H7C6.60581 16 6.22499 16.0578 5.86523 16.1641C5.48366 15.446 5.25 14.6121 5.25 13.6924C5.25018 12.0097 5.87077 10.3739 6.73633 8.9082C7.45936 7.68408 8.374 6.54637 9.30078 5.55273C9.11009 5.15835 9 4.71743 9 4.25C9 2.59315 10.3431 1.25 12 1.25ZM12 3.25C11.4477 3.25 11 3.69772 11 4.25C11 4.80228 11.4477 5.25 12 5.25C12.5523 5.25 13 4.80228 13 4.25C13 3.69772 12.5523 3.25 12 3.25Z" fill="currentColor" />
</svg>