<svg xmlns="http://www.w3.org/2000/svg" width="24" height="24" viewBox="0 0 24 24" fill="none">
    <path d="M20 20.75C20 21.7165 19.2165 22.5 18.25 22.5H6.25C5.2835 22.5 4.5 21.7165 4.5 20.75V20.25C4.5 18.7312 5.73122 17.5 7.25 17.5H17.25C18.7688 17.5 20 18.7312 20 20.25V20.75Z" fill="currentColor" />
    <path fill-rule="evenodd" clip-rule="evenodd" d="M9.5 2.72131C9.5 1.77066 10.2835 1 11.25 1H12.25C16.5302 1 20 4.41291 20 8.62295C20 11.4977 19.3251 13.7293 18.5495 16H7.34844L9.51843 12.7975C11.1127 12.7289 12.4337 12.0568 13.3633 11.2731C13.854 10.8594 14.2488 10.4036 14.5264 9.96677C14.789 9.55336 15 9.07318 15 8.62295C15 8.21553 14.6642 7.88525 14.25 7.88525C13.8358 7.88525 13.5 8.21553 13.5 8.62295C13.5 8.66452 13.4609 8.86062 13.2549 9.18487C13.0638 9.48566 12.7709 9.82924 12.3867 10.1531C11.6508 10.7735 10.6271 11.2827 9.4133 11.325C8.68427 11.06 7.73138 10.928 6.65918 11.2366C6.47291 11.2902 6.26452 11.3279 6.04199 11.3279C5.27252 11.3279 4.56873 10.9002 4.22461 10.2232L3.70898 9.20889C3.57141 8.93811 3.50004 8.63942 3.5 8.33671C3.5 7.64266 3.87489 7.00064 4.48438 6.65094L9.5 3.77312V2.72131Z" fill="currentColor" />
</svg>