<svg xmlns="http://www.w3.org/2000/svg" width="24" height="24" viewBox="0 0 24 24" fill="none">
    <path d="M17 17.25C18.5188 17.25 19.75 18.4812 19.75 20V21C19.75 21.9665 18.9665 22.75 18 22.75H6C5.0335 22.75 4.25 21.9665 4.25 21V20C4.25 18.4812 5.48122 17.25 7 17.25H17ZM12 1.25C12.5523 1.25 13 1.69772 13 2.25V3.25H14C14.5523 3.25 15 3.69772 15 4.25C15 4.80228 14.5523 5.25 14 5.25H13V7.27344C13.2734 7.07519 13.542 6.90867 13.8096 6.77246C14.5774 6.38157 15.2966 6.25 16 6.25C18.8346 6.25 20.7499 8.75068 20.75 11.583C20.75 13.3096 19.9603 14.9945 18.9102 16.4844C18.3426 16.1753 17.6917 16 17 16H7C6.30796 16 5.65662 16.1751 5.08887 16.4844C4.03887 14.9946 3.25 13.3094 3.25 11.583C3.25015 8.75068 5.16544 6.25 8 6.25C8.70341 6.25 9.42256 6.38157 10.1904 6.77246C10.458 6.90867 10.7266 7.07519 11 7.27344V5.25H10C9.44772 5.25 9 4.80228 9 4.25C9 3.69772 9.44772 3.25 10 3.25H11V2.25C11 1.69772 11.4477 1.25 12 1.25Z" fill="currentColor" />
</svg>