<svg xmlns="http://www.w3.org/2000/svg" width="24" height="24" viewBox="0 0 24 24" fill="none">
    <path d="M19.0429 6.04302C19.4335 5.65249 20.0665 5.65249 20.457 6.04302C20.8475 6.43354 20.8475 7.06655 20.457 7.45708L16.164 11.75L20.457 16.043C20.8475 16.4335 20.8475 17.0666 20.457 17.4571C20.0665 17.8476 19.4335 17.8476 19.0429 17.4571L14.0429 12.4571C13.8554 12.2695 13.75 12.0153 13.75 11.75C13.75 11.4848 13.8554 11.2306 14.0429 11.043L19.0429 6.04302Z" fill="currentColor" />
    <path d="M3.04292 6.04302C3.43345 5.65249 4.06646 5.65249 4.45699 6.04302L9.45699 11.043C9.64452 11.2306 9.74996 11.4848 9.74996 11.75C9.74996 12.0153 9.64452 12.2695 9.45699 12.4571L4.45699 17.4571C4.06646 17.8476 3.43345 17.8476 3.04292 17.4571C2.6524 17.0666 2.6524 16.4335 3.04292 16.043L7.33589 11.75L3.04292 7.45708C2.6524 7.06655 2.6524 6.43354 3.04292 6.04302Z" fill="currentColor" />
</svg>