<svg xmlns="http://www.w3.org/2000/svg" width="24" height="24" viewBox="0 0 24 24" fill="none">
    <path d="M17.75 17.75V5.75C17.75 5.19772 17.3023 4.75 16.75 4.75C16.1977 4.75 15.75 5.19772 15.75 5.75V17.75C15.75 18.3023 16.1977 18.75 16.75 18.75C17.3023 18.75 17.75 18.3023 17.75 17.75Z" fill="currentColor" />
    <path fill-rule="evenodd" clip-rule="evenodd" d="M5.75 5.75002L5.74995 17.75C5.74995 18.0534 5.93268 18.3268 6.21294 18.4429C6.49319 18.559 6.81578 18.4949 7.03028 18.2804L13.0303 12.2804C13.3232 11.9875 13.3232 11.5126 13.0303 11.2197L7.03033 5.2197C6.81584 5.0052 6.49325 4.94103 6.21299 5.05711C5.93273 5.17319 5.75 5.44667 5.75 5.75002Z" fill="currentColor" />
</svg>