<svg xmlns="http://www.w3.org/2000/svg" width="24" height="24" viewBox="0 0 24 24" fill="none">
    <path d="M12.0429 16.0429C11.6524 16.4334 11.6524 17.0664 12.0429 17.457C12.4334 17.8475 13.0664 17.8475 13.457 17.457L18.457 12.457C18.8475 12.0664 18.8475 11.4334 18.457 11.0429L13.457 6.04289C13.0664 5.65237 12.4334 5.65237 12.0429 6.04289C11.6524 6.43342 11.6524 7.06643 12.0429 7.45696L16.3359 11.7499L12.0429 16.0429Z" fill="currentColor" />
    <path d="M5.04289 16.0429C4.65237 16.4334 4.65237 17.0664 5.04289 17.457C5.43342 17.8475 6.06643 17.8475 6.45696 17.457L11.457 12.457C11.8475 12.0664 11.8475 11.4334 11.457 11.0429L6.45696 6.04289C6.06643 5.65237 5.43342 5.65237 5.04289 6.04289C4.65237 6.43342 4.65237 7.06643 5.04289 7.45696L9.33586 11.7499L5.04289 16.0429Z" fill="currentColor" />
</svg>