<svg xmlns="http://www.w3.org/2000/svg" width="24" height="24" viewBox="0 0 24 24" fill="none">
    <path d="M11.457 16.0429C11.8475 16.4334 11.8475 17.0664 11.457 17.457C11.0664 17.8475 10.4334 17.8475 10.0429 17.457L5.04289 12.457C4.65237 12.0664 4.65237 11.4334 5.04289 11.0429L10.0429 6.04289C10.4334 5.65237 11.0664 5.65237 11.457 6.04289C11.8475 6.43342 11.8475 7.06643 11.457 7.45696L7.16399 11.7499L11.457 16.0429Z" fill="currentColor" />
    <path d="M18.457 16.0429C18.8475 16.4334 18.8475 17.0664 18.457 17.457C18.0664 17.8475 17.4334 17.8475 17.0429 17.457L12.0429 12.457C11.6524 12.0664 11.6524 11.4334 12.0429 11.0429L17.0429 6.04289C17.4334 5.65237 18.0664 5.65237 18.457 6.04289C18.8475 6.43342 18.8475 7.06643 18.457 7.45696L14.164 11.7499L18.457 16.0429Z" fill="currentColor" />
</svg>