<svg xmlns="http://www.w3.org/2000/svg" width="24" height="24" viewBox="0 0 24 24" fill="none">
    <path d="M9.25 19C9.25 17.4812 10.4812 16.25 12 16.25C13.5188 16.25 14.75 17.4812 14.75 19V22.75H17.75V10.8496C17.75 10.0593 17.3349 9.32656 16.6572 8.91992L12.75 6.5752V4.75H14C14.4142 4.75 14.75 4.41421 14.75 4C14.75 3.58579 14.4142 3.25 14 3.25H12.75V2C12.75 1.58579 12.4142 1.25 12 1.25C11.5858 1.25 11.25 1.58579 11.25 2V3.25H10C9.58579 3.25 9.25 3.58579 9.25 4C9.25 4.41421 9.58579 4.75 10 4.75H11.25V6.5752L7.34277 8.91992C6.66511 9.32656 6.25 10.0593 6.25 10.8496L6.25 22.75H9.25V19ZM12 13.25C11.4477 13.25 11 12.8023 11 12.25C11 11.6977 11.4477 11.25 12 11.25C12.5523 11.25 13 11.6977 13 12.25C13 12.8023 12.5523 13.25 12 13.25ZM13.25 19C13.25 18.3096 12.6904 17.75 12 17.75C11.3096 17.75 10.75 18.3096 10.75 19V22.75H13.25V19Z" fill="currentColor" />
    <path d="M5 13.6622L3.21777 14.5529C2.62495 14.8493 2.25 15.4555 2.25 16.1183V21.0001C2.2501 21.9665 3.03357 22.7501 4 22.7501H5V13.6622Z" fill="currentColor" />
    <path d="M20 22.7501C20.9664 22.7501 21.7499 21.9665 21.75 21.0001V16.1183C21.75 15.4555 21.3751 14.8493 20.7822 14.5529L19 13.6622V22.7501H20Z" fill="currentColor" />
</svg>