<svg xmlns="http://www.w3.org/2000/svg" width="24" height="24" viewBox="0 0 24 24" fill="none">
    <path d="M1.54314 1.54265C1.93366 1.15212 2.56668 1.15212 2.9572 1.54265L22.4572 21.0426C22.8477 21.4332 22.8477 22.0662 22.4572 22.4567C22.0667 22.8472 21.4337 22.8472 21.0431 22.4567L1.54314 2.95671C1.15261 2.56619 1.15261 1.93317 1.54314 1.54265Z" fill="currentColor" />
    <path d="M6.25012 19.7497H3.00012C2.03362 19.7497 1.25012 18.9662 1.25012 17.9997V15.9997C1.25012 15.0332 2.03362 14.2497 3.00012 14.2497H6.25012V19.7497Z" fill="currentColor" />
    <path d="M18.7501 18.7497V18.9997C18.7501 19.4139 18.4143 19.7497 18.0001 19.7497H7.75012V14.2497H14.2501L18.7501 18.7497Z" fill="currentColor" />
    <path d="M21.0001 14.2497C21.9666 14.2497 22.7501 15.0332 22.7501 15.9997V17.9997C22.7501 18.3458 22.6481 18.6675 22.4747 18.9391L20.2501 16.7145V14.9997C20.2501 14.5855 20.5859 14.2497 21.0001 14.2497Z" fill="currentColor" />
    <path d="M18.0001 9.24969C18.9666 9.24969 19.7501 10.0332 19.7501 10.9997V11.9997C19.7501 12.4139 19.4143 12.7497 19.0001 12.7497C18.5859 12.7497 18.2501 12.4139 18.2501 11.9997V10.9997C18.2501 10.8616 18.1382 10.7497 18.0001 10.7497H15.0001C14.5859 10.7497 14.2501 10.4139 14.2501 9.99969C14.2501 9.58548 14.5859 9.24969 15.0001 9.24969H18.0001Z" fill="currentColor" />
    <path d="M13.0001 4.24969C13.4143 4.24969 13.7501 4.58548 13.7501 4.99969C13.7501 5.69005 14.3098 6.24969 15.0001 6.24969H20.0001C21.5189 6.24969 22.7501 7.48091 22.7501 8.99969V11.9997C22.7501 12.4139 22.4143 12.7497 22.0001 12.7497C21.5859 12.7497 21.2501 12.4139 21.2501 11.9997V8.99969C21.2501 8.30934 20.6905 7.74969 20.0001 7.74969H15.0001C13.4813 7.74969 12.2501 6.51848 12.2501 4.99969C12.2501 4.58548 12.5859 4.24969 13.0001 4.24969Z" fill="currentColor" />
</svg>