<svg xmlns="http://www.w3.org/2000/svg" width="24" height="24" viewBox="0 0 24 24" fill="none">
    <path d="M21.0001 14.2496C21.9666 14.2496 22.7501 15.0331 22.7501 15.9996V17.9996C22.7501 18.9661 21.9666 19.7496 21.0001 19.7496C20.5859 19.7496 20.2501 19.4138 20.2501 18.9996V14.9996C20.2501 14.5854 20.5859 14.2496 21.0001 14.2496Z" fill="currentColor" />
    <path d="M21.2501 11.9996V8.99963C21.2501 8.30928 20.6905 7.74963 20.0001 7.74963H15.0001C13.4813 7.74963 12.2501 6.51842 12.2501 4.99963C12.2501 4.58542 12.5859 4.24963 13.0001 4.24963C13.4143 4.24963 13.7501 4.58542 13.7501 4.99963C13.7501 5.68999 14.3098 6.24963 15.0001 6.24963H20.0001C21.5189 6.24963 22.7501 7.48085 22.7501 8.99963V11.9996C22.7501 12.4138 22.4143 12.7496 22.0001 12.7496C21.5859 12.7496 21.2501 12.4138 21.2501 11.9996Z" fill="currentColor" />
    <path d="M18.2501 11.9996V10.9996C18.2501 10.8616 18.1382 10.7496 18.0001 10.7496H15.0001C14.5859 10.7496 14.2501 10.4138 14.2501 9.99963C14.2501 9.58542 14.5859 9.24963 15.0001 9.24963H18.0001C18.9666 9.24963 19.7501 10.0331 19.7501 10.9996V11.9996C19.7501 12.4138 19.4143 12.7496 19.0001 12.7496C18.5859 12.7496 18.2501 12.4138 18.2501 11.9996Z" fill="currentColor" />
    <path d="M18.0001 14.2496C18.4143 14.2496 18.7501 14.5854 18.7501 14.9996V18.9996C18.7501 19.4138 18.4143 19.7496 18.0001 19.7496H7.75012V14.2496H18.0001Z" fill="currentColor" />
    <path d="M6.25012 14.2496V19.7496H3.00012C2.03362 19.7496 1.25012 18.9661 1.25012 17.9996V15.9996C1.25012 15.0331 2.03362 14.2496 3.00012 14.2496H6.25012Z" fill="currentColor" />
</svg>