<svg xmlns="http://www.w3.org/2000/svg" width="24" height="24" viewBox="0 0 24 24" fill="none">
    <path d="M22.5 11.75C22.5 17.6871 17.6871 22.5 11.75 22.5C5.81294 22.5 1 17.6871 1 11.75C1 5.81294 5.81294 1 11.75 1C17.6871 1 22.5 5.81294 22.5 11.75ZM16.457 9.54297C16.0665 9.15244 15.4335 9.15244 15.043 9.54297L11.75 12.8359L8.45703 9.54297C8.06651 9.15244 7.43349 9.15244 7.04297 9.54297C6.65244 9.93349 6.65244 10.5665 7.04297 10.957L11.043 14.957C11.4335 15.3476 12.0665 15.3476 12.457 14.957L16.457 10.957C16.8476 10.5665 16.8476 9.93349 16.457 9.54297Z" fill="currentColor" />
</svg>