<svg xmlns="http://www.w3.org/2000/svg" width="24" height="24" viewBox="0 0 24 24" fill="none">
    <path d="M19.2109 20.625L10.918 12.3321C10.5274 11.9416 10.5274 11.3085 10.918 10.918C11.3085 10.5275 11.9415 10.5275 12.332 10.918L20.625 19.211V15.625C20.625 15.0728 21.0727 14.625 21.625 14.625C22.1773 14.625 22.625 15.0728 22.625 15.625V21.625C22.625 21.9012 22.513 22.1511 22.332 22.3321C22.1963 22.4678 22.0195 22.5652 21.8242 22.6052C21.7598 22.6182 21.6932 22.625 21.625 22.625H15.625C15.0727 22.625 14.625 22.1773 14.625 21.625C14.625 21.0728 15.0727 20.625 15.625 20.625H19.2109Z" fill="currentColor" />
    <path d="M15.7434 18.9251C14.2557 19.8444 12.5023 20.375 10.625 20.375C5.24022 20.375 0.875 16.0098 0.875 10.625C0.875 5.24022 5.24022 0.875 10.625 0.875C16.0098 0.875 20.375 5.24022 20.375 10.625C20.375 12.5023 19.8444 14.2557 18.9251 15.7434L13.2158 10.0342C12.3371 9.1555 10.9129 9.1555 10.0342 10.0342C9.1555 10.9129 9.1555 12.3371 10.0342 13.2158L15.7434 18.9251Z" fill="currentColor" />
</svg>