<svg xmlns="http://www.w3.org/2000/svg" width="24" height="24" viewBox="0 0 24 24" fill="none">
    <path d="M22.5 11.75C22.5 5.81294 17.6871 1 11.75 1C5.81294 1 1 5.81294 1 11.75C1 17.6871 5.81294 22.5 11.75 22.5C17.6871 22.5 22.5 17.6871 22.5 11.75ZM16.457 13.957C16.0665 14.3476 15.4335 14.3476 15.043 13.957L11.75 10.6641L8.45703 13.957C8.06651 14.3476 7.43349 14.3476 7.04297 13.957C6.65244 13.5665 6.65244 12.9335 7.04297 12.543L11.043 8.54297C11.4335 8.15244 12.0665 8.15244 12.457 8.54297L16.457 12.543C16.8476 12.9335 16.8476 13.5665 16.457 13.957Z" fill="currentColor" />
</svg>