<svg xmlns="http://www.w3.org/2000/svg" width="24" height="24" viewBox="0 0 24 24" fill="none">
    <path fill-rule="evenodd" clip-rule="evenodd" d="M6.5 6.625C6.5 3.58743 8.96243 1.125 12 1.125C13.9079 1.125 15.5883 2.09728 16.5732 3.56874C16.8804 4.02769 16.7574 4.64879 16.2985 4.95601C15.8395 5.26322 15.2184 5.14021 14.9112 4.68126C14.2817 3.74075 13.2125 3.125 12 3.125C10.067 3.125 8.5 4.692 8.5 6.625V9.625C8.5 10.1773 8.05228 10.625 7.5 10.625C6.94772 10.625 6.5 10.1773 6.5 9.625V6.625Z" fill="currentColor" />
    <path d="M12 7.125C16.2802 7.125 19.75 10.5948 19.75 14.875C19.75 19.1552 16.2802 22.625 12 22.625C7.71979 22.625 4.25 19.1552 4.25 14.875C4.25 10.5948 7.71979 7.125 12 7.125ZM11.9932 13.375C11.1685 13.3751 10.5 14.0466 10.5 14.875C10.5 15.7034 11.1685 16.3749 11.9932 16.375H12.0068C12.8315 16.3749 13.5 15.7034 13.5 14.875C13.5 14.0466 12.8315 13.3751 12.0068 13.375H11.9932Z" fill="currentColor" />
</svg>