<svg xmlns="http://www.w3.org/2000/svg" width="24" height="24" viewBox="0 0 24 24" fill="none">
    <path d="M11.75 22.5C17.6871 22.5 22.5 17.6871 22.5 11.75C22.5 5.81294 17.6871 1 11.75 1C5.81294 1 1 5.81294 1 11.75C1 17.6871 5.81294 22.5 11.75 22.5ZM9.54297 16.457C9.15244 16.0665 9.15244 15.4335 9.54297 15.043L12.8359 11.75L9.54297 8.45703C9.15244 8.06651 9.15244 7.43349 9.54297 7.04297C9.93349 6.65244 10.5665 6.65244 10.957 7.04297L14.957 11.043C15.3476 11.4335 15.3476 12.0665 14.957 12.457L10.957 16.457C10.5665 16.8476 9.93349 16.8476 9.54297 16.457Z" fill="currentColor" />
</svg>