<svg xmlns="http://www.w3.org/2000/svg" width="24" height="24" viewBox="0 0 24 24" fill="none">
    <path fill-rule="evenodd" clip-rule="evenodd" d="M20.7743 17.5932L5.90631 2.72525C7.58847 1.63389 9.59496 1.00006 11.7495 1.00006C17.6865 1.00006 22.4995 5.813 22.4995 11.7501C22.4995 13.9046 21.8657 15.9111 20.7743 17.5932Z" fill="currentColor" />
    <path d="M2.45708 1.04302C2.06655 0.652491 1.43354 0.652491 1.04302 1.04302C0.652491 1.43354 0.652491 2.06655 1.04302 2.45708L3.47437 4.88843C1.9291 6.75008 1.00005 9.14157 1.00005 11.75C1.00005 17.6871 5.81299 22.5 11.75 22.5C14.3585 22.5 16.75 21.571 18.6117 20.0257L21.043 22.4571C21.4335 22.8476 22.0666 22.8476 22.4571 22.4571C22.8476 22.0666 22.8476 21.4335 22.4571 21.043L2.45708 1.04302Z" fill="currentColor" />
</svg>