<svg xmlns="http://www.w3.org/2000/svg" width="24" height="24" viewBox="0 0 24 24" fill="none">
    <path d="M22.5 11.75C22.5 17.6871 17.6871 22.5 11.75 22.5C5.81294 22.5 1 17.6871 1 11.75C1 5.81294 5.81294 1 11.75 1C17.6871 1 22.5 5.81294 22.5 11.75ZM11 16.9375V17.75C11 18.1642 11.3358 18.5 11.75 18.5C12.1642 18.5 12.5 18.1642 12.5 17.75V16.9375C13.1518 16.8326 13.7882 16.5912 14.3213 16.1914C15.0664 15.6325 15.5 14.8466 15.5 14C15.5 13.2062 15.1188 12.4659 14.457 11.916L14.3213 11.8086C13.7883 11.408 13.1517 11.1661 12.5 11.0615V8.10449C12.7946 8.18823 13.064 8.31957 13.2861 8.49609L13.7012 8.82617C14.0253 9.08387 14.4971 9.03004 14.7549 8.70605C15.0126 8.3819 14.9588 7.91018 14.6348 7.65234L14.2197 7.32227C13.7174 6.92307 13.1173 6.67778 12.5 6.56836V5.75C12.5 5.33579 12.1642 5 11.75 5C11.3358 5 11 5.33579 11 5.75V6.56836C10.3827 6.67778 9.78256 6.92307 9.28027 7.32227C8.56827 7.88825 8.16797 8.67144 8.16797 9.5C8.16797 10.3286 8.56827 11.1127 9.28027 11.6787C9.78236 12.0773 10.3828 12.3212 11 12.4307V15.4092C10.7264 15.3425 10.4715 15.2418 10.25 15.1064L10.0791 14.9912L9.2002 14.332C8.86879 14.0836 8.39886 14.151 8.15039 14.4824C7.90195 14.8138 7.9685 15.2837 8.2998 15.5322L9.17871 16.1904C9.71174 16.5905 10.348 16.8327 11 16.9375Z" fill="currentColor" />
    <path fill-rule="evenodd" clip-rule="evenodd" d="M10.2139 8.49707C10.436 8.32055 10.7054 8.18921 11 8.10547V10.8955C10.7056 10.8118 10.4361 10.6812 10.2139 10.5049C9.82003 10.1919 9.66797 9.82382 9.66797 9.50098C9.66797 9.17813 9.82003 8.81007 10.2139 8.49707Z" fill="currentColor" />
    <path fill-rule="evenodd" clip-rule="evenodd" d="M13.4209 14.9912C13.1635 15.1842 12.8467 15.3247 12.5 15.4092V12.5898C12.8472 12.6742 13.1643 12.8158 13.4209 13.0088C13.8478 13.3289 14 13.6951 14 14C14 14.3049 13.8478 14.6711 13.4209 14.9912Z" fill="currentColor" />
</svg>