<svg xmlns="http://www.w3.org/2000/svg" width="24" height="24" viewBox="0 0 24 24" fill="none">
    <path d="M22.5 11.75C22.5 17.6871 17.6871 22.5 11.75 22.5C5.81294 22.5 1 17.6871 1 11.75C1 5.81294 5.81294 1 11.75 1C17.6871 1 22.5 5.81294 22.5 11.75ZM15.457 8.04297C15.0665 7.65244 14.4335 7.65244 14.043 8.04297L11.75 10.3359L9.45703 8.04297C9.06651 7.65244 8.43349 7.65244 8.04297 8.04297C7.65244 8.43349 7.65244 9.06651 8.04297 9.45703L10.3359 11.75L8.04297 14.043C7.65244 14.4335 7.65244 15.0665 8.04297 15.457C8.43349 15.8476 9.06651 15.8476 9.45703 15.457L11.75 13.1641L14.043 15.457C14.4335 15.8476 15.0665 15.8476 15.457 15.457C15.8476 15.0665 15.8476 14.4335 15.457 14.043L13.1641 11.75L15.457 9.45703C15.8476 9.06651 15.8476 8.43349 15.457 8.04297Z" fill="currentColor" />
</svg>