<svg xmlns="http://www.w3.org/2000/svg" width="24" height="24" viewBox="0 0 24 24" fill="none">
    <path d="M16.1806 19.587C16.6616 19.3159 17.2716 19.486 17.5429 19.9668C17.814 20.4478 17.6439 21.0578 17.1631 21.3292C16.372 21.7755 15.5131 22.1297 14.5976 22.375C13.6819 22.6204 12.76 22.743 11.8515 22.752C11.2994 22.7573 10.8472 22.3139 10.8418 21.7618C10.8364 21.2096 11.2799 20.7575 11.832 20.752C12.5736 20.7447 13.3273 20.6448 14.0791 20.4434C14.831 20.2419 15.5347 19.9515 16.1806 19.587ZM2.62693 15.9688C3.10277 15.6889 3.71589 15.8475 3.99607 16.3233C4.77959 17.6537 5.88425 18.7393 7.17966 19.503C7.65507 19.7835 7.81339 20.3965 7.53318 20.8721C7.25272 21.3479 6.63883 21.5061 6.16306 21.2256C4.58258 20.2938 3.23197 18.9673 2.27244 17.3379C1.99227 16.8621 2.15107 16.249 2.62693 15.9688ZM21.7607 10.8418C22.313 10.8466 22.7567 11.2984 22.7519 11.8506C22.7356 13.7416 22.2291 15.5658 21.3261 17.1631C21.0544 17.6438 20.4446 17.8128 19.9638 17.5411C19.4831 17.2693 19.3132 16.6595 19.5849 16.1788C20.325 14.8696 20.7386 13.377 20.7519 11.8331C20.7568 11.281 21.2086 10.8372 21.7607 10.8418ZM2.17381 6.33696C2.4456 5.85619 3.05631 5.68724 3.53709 5.95903C4.01759 6.23093 4.18674 6.84068 3.91502 7.32134C3.17494 8.63045 2.76134 10.1231 2.74802 11.667C2.74316 12.2192 2.29144 12.663 1.73923 12.6583C1.18705 12.6534 0.743261 12.2017 0.748024 11.6495C0.764358 9.75851 1.27083 7.93423 2.17381 6.33696ZM15.9678 2.62798C16.2483 2.1523 16.8612 1.99402 17.3369 2.27446C18.9175 3.20624 20.2679 4.53277 21.2275 6.16216C21.5077 6.63801 21.3498 7.25101 20.874 7.5313C20.3981 7.81155 19.7851 7.65268 19.5049 7.17681C18.7213 5.84636 17.6167 4.7608 16.3213 3.99712C15.8455 3.71665 15.6873 3.10375 15.9678 2.62798ZM11.6484 0.748097C12.2007 0.742638 12.6527 1.18607 12.6582 1.73833C12.6636 2.29054 12.2202 2.74264 11.6679 2.7481C10.9264 2.75545 10.1727 2.85525 9.42088 3.05669C8.669 3.25816 7.96623 3.54868 7.32029 3.91314C6.83929 4.18454 6.22939 4.01425 5.95798 3.53325C5.68674 3.05233 5.85605 2.44236 6.33689 2.17095C7.1281 1.72451 7.98757 1.37042 8.9033 1.12505C9.81899 0.879702 10.74 0.757076 11.6484 0.748097Z" fill="currentColor" />
</svg>