<svg xmlns="http://www.w3.org/2000/svg" width="24" height="24" viewBox="0 0 24 24" fill="none">
    <path d="M22.5 11.75C22.5 17.6871 17.6871 22.5 11.75 22.5C5.81294 22.5 1 17.6871 1 11.75C1 5.81294 5.81294 1 11.75 1C17.6871 1 22.5 5.81294 22.5 11.75ZM13.4912 6.04395C12.432 5.60619 11.2095 5.66069 10.2051 6.18652C9.17221 6.7273 8.39747 7.75443 8.26855 9.15625C8.2025 9.87511 8.36526 10.6037 8.68652 11.2373H7.75C7.19774 11.2373 6.75004 11.6851 6.75 12.2373C6.75 12.7896 7.19772 13.2373 7.75 13.2373H9.39746L9.36917 13.2813C9.34889 13.3131 9.32835 13.3452 9.30664 13.377C8.88565 13.9921 8.35082 14.552 7.75684 14.8623C7.34878 15.0756 7.13925 15.5402 7.24902 15.9873C7.35885 16.4343 7.75949 16.7489 8.21973 16.749H14.002C14.0091 16.749 14.0186 16.7492 14.0304 16.7494C14.1438 16.7515 14.452 16.7573 14.8271 16.6797C15.2533 16.5914 15.7552 16.4032 16.3086 16.0303C16.7666 15.7216 16.8877 15.1006 16.5791 14.6426C16.2705 14.1846 15.6494 14.0635 15.1914 14.3721C14.8512 14.6013 14.5905 14.6868 14.4219 14.7217C14.3349 14.7397 14.2675 14.7467 14.2031 14.749H10.7822C10.8426 14.667 10.902 14.5863 10.957 14.5059C11.2553 14.07 11.4973 13.6267 11.6748 13.2373H13.1094L13.2119 13.2324C13.716 13.1811 14.1094 12.755 14.1094 12.2373C14.1093 11.6851 13.6616 11.2373 13.1094 11.2373L12.9722 11.2374C12.5231 11.2378 12.133 11.2381 11.7744 11.1973C11.381 11.1524 11.1406 11.0674 10.9951 10.9668C10.5501 10.659 10.2027 9.96993 10.2607 9.33887C10.326 8.62992 10.6859 8.19194 11.1328 7.95801C11.6082 7.7092 12.2111 7.67912 12.7275 7.89258C13.074 8.03584 13.3166 8.30668 13.4873 8.64844C13.619 8.91217 13.6897 9.18459 13.7227 9.38379L13.7568 9.65723C13.8453 10.1561 14.2983 10.5166 14.8145 10.4785C15.3651 10.4378 15.7788 9.9588 15.7383 9.4082C15.7092 9.01511 15.5908 8.38436 15.2764 7.75488C14.9572 7.11602 14.405 6.42166 13.4912 6.04395Z" fill="currentColor" />
</svg>