<svg xmlns="http://www.w3.org/2000/svg" width="24" height="24" viewBox="0 0 24 24" fill="none">
    <path d="M22.5 11.75C22.5 17.6871 17.6871 22.5 11.75 22.5C5.81294 22.5 1 17.6871 1 11.75C1 5.81294 5.81294 1 11.75 1C17.6871 1 22.5 5.81294 22.5 11.75ZM15.957 8.54297C15.5665 8.15244 14.9335 8.15244 14.543 8.54297L10.25 12.8359L8.45703 11.043C8.06651 10.6524 7.43349 10.6524 7.04297 11.043C6.65244 11.4335 6.65244 12.0665 7.04297 12.457L9.54297 14.957C9.93349 15.3476 10.5665 15.3476 10.957 14.957L15.957 9.95703C16.3476 9.56651 16.3476 8.93349 15.957 8.54297Z" fill="currentColor" />
</svg>