<svg xmlns="http://www.w3.org/2000/svg" width="24" height="24" viewBox="0 0 24 24" fill="none">
    <path d="M22.5 11.75C22.5 17.6871 17.6871 22.5 11.75 22.5C5.81294 22.5 1 17.6871 1 11.75C1 5.81294 5.81294 1 11.75 1C17.6871 1 22.5 5.81294 22.5 11.75ZM10.75 6.75V10.75C10.75 11.3023 11.1977 11.75 11.75 11.75C12.3023 11.75 12.75 11.3023 12.75 10.75V6.75C12.75 6.19772 12.3023 5.75 11.75 5.75C11.1977 5.75 10.75 6.19772 10.75 6.75ZM6.9502 8.14941C6.1969 9.1523 5.75 10.4004 5.75 11.75C5.75 15.0637 8.43629 17.75 11.75 17.75C15.0637 17.75 17.75 15.0637 17.75 11.75C17.75 10.4004 17.3031 9.1523 16.5498 8.14941C16.2181 7.70788 15.591 7.61852 15.1494 7.9502C14.7079 8.28191 14.6195 8.90904 14.9512 9.35059C15.4532 10.019 15.75 10.8484 15.75 11.75C15.75 13.9591 13.9591 15.75 11.75 15.75C9.54086 15.75 7.75 13.9591 7.75 11.75C7.75 10.8484 8.04683 10.019 8.54883 9.35059C8.88049 8.90904 8.79207 8.28191 8.35059 7.9502C7.90902 7.61852 7.2819 7.70788 6.9502 8.14941Z" fill="currentColor" />
</svg>