<svg xmlns="http://www.w3.org/2000/svg" width="24" height="24" viewBox="0 0 24 24" fill="none">
    <path fill-rule="evenodd" clip-rule="evenodd" d="M16.7724 1.1065C16.7694 1.10734 16.7754 1.10552 16.7724 1.1065V1.1065Z" fill="currentColor" />
    <path fill-rule="evenodd" clip-rule="evenodd" d="M8.01728 3.73292L3.39576 5.11932C1.98409 5.54806 1.20889 7.07969 1.60181 8.53826C1.60776 8.56033 1.61438 8.58225 1.62232 8.60369L2.51392 11.0099C2.65094 11.3795 3.05081 11.5802 3.42896 11.4689L7.51469 10.2666L8.01728 3.73292ZM9.0545 9.81341L9.55778 3.27079L13.522 2.08159L12.9493 8.66723L9.0545 9.81341ZM16.7724 1.1065C18.2323 0.703424 19.7525 1.49973 20.1741 2.91228L20.6731 4.55291C20.9559 5.48339 20.4263 6.46677 19.4934 6.74139L14.4943 8.21254L15.0678 1.61786L16.7724 1.1065Z" fill="currentColor" />
    <path d="M22 19.748C22 21.2668 20.7688 22.498 19.25 22.498H5.25C3.73122 22.498 2.5 21.2668 2.5 19.748V10.748C2.5 10.3338 2.83579 9.99805 3.25 9.99805H20.25C21.2165 9.99805 22 10.7815 22 11.748V19.748ZM18.25 17.748C18.25 17.1958 17.8023 16.748 17.25 16.748H15.25C14.6977 16.748 14.25 17.1958 14.25 17.748C14.25 18.3003 14.6977 18.748 15.25 18.748H17.25C17.8023 18.748 18.25 18.3003 18.25 17.748Z" fill="currentColor" />
    <path d="M22 19.748C22 21.2668 20.7688 22.498 19.25 22.498H5.25C3.73122 22.498 2.5 21.2668 2.5 19.748V10.748C2.5 10.3338 2.83579 9.99805 3.25 9.99805H20.25C21.2165 9.99805 22 10.7815 22 11.748V19.748ZM18.25 17.748C18.25 17.1958 17.8023 16.748 17.25 16.748H15.25C14.6977 16.748 14.25 17.1958 14.25 17.748C14.25 18.3003 14.6977 18.748 15.25 18.748H17.25C17.8023 18.748 18.25 18.3003 18.25 17.748Z" fill="currentColor" />
</svg>