<svg xmlns="http://www.w3.org/2000/svg" width="24" height="24" viewBox="0 0 24 24" fill="none">
    <path d="M21.5 15.4639C21.5 16.0286 21.2753 16.5704 20.876 16.9697L16.2354 21.6113C15.6661 22.1804 14.8938 22.5 14.0889 22.5H12.75C12.3358 22.5 12 22.1642 12 21.75V20.4111C12 19.6062 12.3196 18.8339 12.8887 18.2646L17.5303 13.624C17.9296 13.2247 18.4714 13 19.0361 13C19.6008 13.0001 20.1427 13.2248 20.542 13.624L20.876 13.958C21.2752 14.3573 21.4999 14.8992 21.5 15.4639Z" fill="currentColor" />
    <path d="M9.75 21C10.1642 21 10.5 21.3358 10.5 21.75C10.5 22.1642 10.1642 22.5 9.75 22.5H7.75C7.33579 22.5 7 22.1642 7 21.75C7 21.3358 7.33579 21 7.75 21H9.75Z" fill="currentColor" />
    <path fill-rule="evenodd" clip-rule="evenodd" d="M6.5 2.75C6.5 1.7835 7.2835 1 8.25 1H13.25C14.2165 1 15 1.7835 15 2.75C15 3.7165 14.2165 4.5 13.25 4.5H8.25C7.2835 4.5 6.5 3.7165 6.5 2.75Z" fill="currentColor" />
    <path fill-rule="evenodd" clip-rule="evenodd" d="M5.25 2.75L5.25391 2.9043C5.33421 4.48945 6.6449 5.75 8.25 5.75H13.25C14.9069 5.75 16.25 4.40685 16.25 2.75H16.75C18.2688 2.75 19.5 3.98122 19.5 5.5V11.7818C19.4018 11.7682 19.3028 11.7588 19.2031 11.7539L19.0361 11.75C18.1959 11.75 17.3875 12.0628 16.7676 12.624L16.6465 12.7402L12.0049 17.3809C11.2922 18.0937 10.8566 19.0317 10.7672 20.0276C10.4692 19.8512 10.1214 19.75 9.75 19.75H7.75C6.64543 19.75 5.75 20.6454 5.75 21.75C5.75 22.0145 5.80134 22.267 5.89459 22.498H4.75C3.23129 22.498 2.00011 21.2667 2 19.748V5.5C2 3.98122 3.23122 2.75 4.75 2.75H5.25Z" fill="currentColor" />
</svg>