<svg xmlns="http://www.w3.org/2000/svg" width="24" height="24" viewBox="0 0 24 24" fill="none">
    <path fill-rule="evenodd" clip-rule="evenodd" d="M7.5 2.75C7.5 1.7835 8.2835 1 9.25 1H14.25C15.2165 1 16 1.7835 16 2.75C16 3.7165 15.2165 4.5 14.25 4.5H9.25C8.2835 4.5 7.5 3.7165 7.5 2.75Z" fill="currentColor" />
    <path fill-rule="evenodd" clip-rule="evenodd" d="M6.25 2.75L6.25391 2.9043C6.33421 4.48945 7.6449 5.75 9.25 5.75H14.25C15.9069 5.75 17.25 4.40685 17.25 2.75H17.75C19.2688 2.75 20.5 3.98122 20.5 5.5V19.748C20.4999 21.2667 19.2687 22.498 17.75 22.498H5.75C4.23129 22.498 3.00011 21.2667 3 19.748V5.5C3 3.98122 4.23122 2.75 5.75 2.75H6.25ZM13.5261 10.5438C13.9162 10.153 14.5493 10.1518 14.9402 10.5419C15.331 10.932 15.3312 11.5651 14.9411 11.9559L13.155 13.745L14.9499 15.5438C15.3397 15.9347 15.3396 16.5678 14.9489 16.9579C14.5581 17.3481 13.9241 17.3468 13.5339 16.9559L11.7419 15.161L9.94992 16.9559C9.55984 17.3467 8.92673 17.3477 8.53585 16.9579C8.14514 16.5678 8.14411 15.9347 8.5339 15.5438L10.3278 13.745L8.54269 11.9559C8.15267 11.5651 8.15288 10.932 8.54367 10.5419C8.93452 10.1518 9.56757 10.153 9.95773 10.5438L11.7419 12.3299L13.5261 10.5438Z" fill="currentColor" />
</svg>