<svg xmlns="http://www.w3.org/2000/svg" width="24" height="24" viewBox="0 0 24 24" fill="none">
    <path d="M21 15C21 15.4047 20.8389 15.7929 20.5527 16.0791L14.3516 22.2803C14.2109 22.4209 14.0202 22.5 13.8213 22.5H11.25C10.8358 22.5 10.5 22.1642 10.5 21.75V19.1787C10.5 18.9798 10.5791 18.7891 10.7197 18.6484L16.9209 12.4473C17.2071 12.1611 17.5953 12 18 12C18.4047 12 18.7929 12.1611 19.0791 12.4473L20.5527 13.9209C20.8389 14.2071 21 14.5953 21 15Z" fill="currentColor" />
    <path fill-rule="evenodd" clip-rule="evenodd" d="M7 2.75C7 1.7835 7.7835 1 8.75 1H13.75C14.7165 1 15.5 1.7835 15.5 2.75C15.5 3.7165 14.7165 4.5 13.75 4.5H8.75C7.7835 4.5 7 3.7165 7 2.75Z" fill="currentColor" />
    <path fill-rule="evenodd" clip-rule="evenodd" d="M5.75 2.75L5.75391 2.9043C5.83421 4.48945 7.1449 5.75 8.75 5.75H13.75C15.4069 5.75 16.75 4.40685 16.75 2.75H17.25C18.7688 2.75 20 3.98122 20 5.5V11.2556C19.4491 10.7703 18.7385 10.5 18 10.5C17.2977 10.5 16.6205 10.7442 16.082 11.1855L15.8604 11.3867L9.65918 17.5879C9.23727 18.0098 9 18.582 9 19.1787V21.75C9 22.0122 9.04487 22.264 9.12734 22.498H5.25C3.73129 22.498 2.50011 21.2667 2.5 19.748V5.5C2.5 3.98122 3.73122 2.75 5.25 2.75H5.75Z" fill="currentColor" />
</svg>