<svg xmlns="http://www.w3.org/2000/svg" width="24" height="24" viewBox="0 0 24 24" fill="none">
    <path fill-rule="evenodd" clip-rule="evenodd" d="M7.5 2.75C7.5 1.7835 8.2835 1 9.25 1H14.25C15.2165 1 16 1.7835 16 2.75C16 3.7165 15.2165 4.5 14.25 4.5H9.25C8.2835 4.5 7.5 3.7165 7.5 2.75Z" fill="currentColor" />
    <path fill-rule="evenodd" clip-rule="evenodd" d="M6.25391 2.9043L6.25 2.75H5.75C4.23122 2.75 3 3.98122 3 5.5V19.748C3.00011 21.2667 4.23129 22.498 5.75 22.498H17.75C19.2687 22.498 20.4999 21.2667 20.5 19.748V5.5C20.5 3.98122 19.2688 2.75 17.75 2.75H17.25C17.25 4.40685 15.9069 5.75 14.25 5.75H9.25C7.6449 5.75 6.33421 4.48945 6.25391 2.9043ZM16.75 11.75C16.75 11.1977 16.3023 10.75 15.75 10.75H11.75C11.1977 10.75 10.75 11.1977 10.75 11.75C10.75 12.3023 11.1977 12.75 11.75 12.75H15.75C16.3023 12.75 16.75 12.3023 16.75 11.75ZM15.75 15.75C16.3023 15.75 16.75 16.1977 16.75 16.75C16.75 17.3023 16.3023 17.75 15.75 17.75H11.75C11.1977 17.75 10.75 17.3023 10.75 16.75C10.75 16.1977 11.1977 15.75 11.75 15.75H15.75ZM8.75977 16.75C8.75977 16.1977 8.31205 15.75 7.75977 15.75C7.20748 15.75 6.75 16.1977 6.75 16.75C6.75 17.3023 7.20748 17.75 7.75977 17.75C8.31205 17.75 8.75977 17.3023 8.75977 16.75ZM7.75977 10.75C8.31205 10.75 8.75977 11.1977 8.75977 11.75C8.75977 12.3023 8.31205 12.75 7.75977 12.75C7.20748 12.75 6.75 12.3023 6.75 11.75C6.75 11.1977 7.20748 10.75 7.75977 10.75Z" fill="currentColor" />
</svg>