<svg xmlns="http://www.w3.org/2000/svg" width="24" height="24" viewBox="0 0 24 24" fill="none">
    <path fill-rule="evenodd" clip-rule="evenodd" d="M6.75012 2.99963C6.75012 2.03314 7.53362 1.24963 8.50012 1.24963H13.5001C14.4666 1.24963 15.2501 2.03314 15.2501 2.99963C15.2501 3.96613 14.4666 4.74963 13.5001 4.74963H8.50012C7.53362 4.74963 6.75012 3.96613 6.75012 2.99963Z" fill="currentColor" />
    <path d="M5.50403 3.15393C5.58434 4.73908 6.89502 5.99963 8.50012 5.99963H13.5001C15.157 5.99963 16.5001 4.65649 16.5001 2.99963H17.0001C18.5189 2.99963 19.7501 4.23085 19.7501 5.74963V9.56213C18.4217 8.58031 16.7788 7.99963 15.0001 7.99963C10.5818 7.99963 7.00012 11.5814 7.00012 15.9996C7.00012 18.8368 8.4782 21.3273 10.7052 22.7477H5.00012C3.48141 22.7477 2.25024 21.5164 2.25012 19.9977V5.74963C2.25012 4.23085 3.48134 2.99963 5.00012 2.99963H5.50012L5.50403 3.15393Z" fill="currentColor" />
    <path d="M15.0001 9.24963C18.728 9.24963 21.7501 12.2717 21.7501 15.9996C21.7501 19.7276 18.728 22.7496 15.0001 22.7496C11.2722 22.7496 8.25012 19.7276 8.25012 15.9996C8.25012 12.2717 11.2722 9.24963 15.0001 9.24963ZM15.0001 12.2496C14.5859 12.2496 14.2501 12.5854 14.2501 12.9996L14.2501 15.9996C14.2501 16.2837 14.4111 16.5435 14.6652 16.6705L16.6652 17.6705C17.0356 17.8555 17.4858 17.7049 17.671 17.3346C17.856 16.9642 17.7054 16.5139 17.3351 16.3287L15.7501 15.5358L15.7501 12.9996C15.7501 12.5854 15.4143 12.2496 15.0001 12.2496Z" fill="currentColor" />
</svg>