<svg xmlns="http://www.w3.org/2000/svg" width="24" height="24" viewBox="0 0 24 24" fill="none">
    <path fill-rule="evenodd" clip-rule="evenodd" d="M7.25 3.00049C7.25 2.03399 8.0335 1.25049 9 1.25049H14C14.9665 1.25049 15.75 2.03399 15.75 3.00049C15.75 3.96699 14.9665 4.75049 14 4.75049H9C8.0335 4.75049 7.25 3.96699 7.25 3.00049Z" fill="currentColor" />
    <path d="M12.5429 10.2934C12.9334 9.90286 13.5664 9.90286 13.957 10.2934C14.3475 10.6839 14.3475 11.3169 13.957 11.7074L12.664 13.0004H20.2499C20.8022 13.0004 21.2499 13.4481 21.2499 14.0004C21.2499 14.5527 20.8022 15.0004 20.2499 15.0004H12.664L13.957 16.2934C14.3475 16.6839 14.3475 17.3169 13.957 17.7074C13.5664 18.098 12.9334 18.098 12.5429 17.7074L9.54289 14.7074C9.15237 14.3169 9.15237 13.6839 9.54289 13.2934L12.5429 10.2934Z" fill="currentColor" />
    <path d="M6.00391 3.15479C6.08421 4.73993 7.3949 6.00049 9 6.00049H14C15.6569 6.00049 17 4.65734 17 3.00049H17.5C19.0188 3.00049 20.25 4.23171 20.25 5.75049V11.7505H15.3691C15.6487 10.9589 15.474 10.043 14.8408 9.40967C14.017 8.58589 12.7138 8.53454 11.8301 9.25537L11.6592 9.40967L8.65918 12.4097C7.78065 13.2884 7.78055 14.7127 8.65918 15.5913L11.6592 18.5913C12.5378 19.4698 13.9622 19.4698 14.8408 18.5913C15.474 17.9581 15.6486 17.0421 15.3691 16.2505H20.25V19.9985C20.2499 21.5172 19.0187 22.7485 17.5 22.7485H5.5C3.98129 22.7485 2.75011 21.5172 2.75 19.9985V5.75049C2.75 4.23171 3.98122 3.00049 5.5 3.00049H6L6.00391 3.15479Z" fill="currentColor" />
</svg>