<svg xmlns="http://www.w3.org/2000/svg" width="24" height="24" viewBox="0 0 24 24" fill="none">
    <path d="M22.5 11.75C22.5 17.6871 17.6871 22.5 11.75 22.5C5.81294 22.5 1 17.6871 1 11.75C1 5.81294 5.81294 1 11.75 1C17.6871 1 22.5 5.81294 22.5 11.75ZM11.75 4.7498C11.1977 4.7498 10.75 5.19752 10.75 5.7498V11.7498C10.75 12.1087 10.9423 12.4399 11.2539 12.618L14.7539 14.618C15.2334 14.892 15.8442 14.7254 16.1182 14.2459C16.3922 13.7664 16.2256 13.1557 15.7461 12.8816L12.75 11.1687V5.7498C12.75 5.19752 12.3023 4.7498 11.75 4.7498Z" fill="currentColor" />
</svg>