<svg xmlns="http://www.w3.org/2000/svg" width="24" height="24" viewBox="0 0 24 24" fill="none">
    <path fill-rule="evenodd" clip-rule="evenodd" d="M11.75 22.5C17.6871 22.5 22.5 17.6871 22.5 11.75C22.5 5.81294 17.6871 1 11.75 1C5.81294 1 1 5.81294 1 11.75C1 17.6871 5.81294 22.5 11.75 22.5ZM12.75 5.75C12.75 5.19772 12.3023 4.75 11.75 4.75C11.1977 4.75 10.75 5.19772 10.75 5.75V11.75C10.75 11.924 10.7955 12.095 10.8818 12.2461L12.8818 15.7461C13.1558 16.2256 13.7666 16.3922 14.2461 16.1182C14.7256 15.8442 14.8922 15.2334 14.6182 14.7539L12.75 11.4844V5.75Z" fill="currentColor" />
</svg>