<svg xmlns="http://www.w3.org/2000/svg" width="24" height="24" viewBox="0 0 24 24" fill="none">
    <path d="M21.0431 16.0426C21.4336 15.6521 22.0666 15.6521 22.4571 16.0426C22.8477 16.4332 22.8477 17.0662 22.4571 17.4567L17.4571 22.4567C17.0666 22.8472 16.4336 22.8472 16.0431 22.4567L14.0431 20.4567C13.6526 20.0662 13.6526 19.4332 14.0431 19.0426C14.4336 18.6521 15.0666 18.6521 15.4571 19.0426L16.7501 20.3356L21.0431 16.0426Z" fill="currentColor" />
    <path fill-rule="evenodd" clip-rule="evenodd" d="M12.0001 1.24927C17.9371 1.24927 22.7501 6.06221 22.7501 11.9993C22.7501 12.898 22.6375 13.7703 22.4297 14.6047C21.7241 14.3818 20.9304 14.5146 20.3301 15.0042L20.1592 15.1584L16.7501 18.5676L16.3409 18.1584L16.17 18.0042C15.3452 17.3313 14.155 17.3314 13.3301 18.0042L13.1592 18.1584C12.2809 19.0371 12.2807 20.4615 13.1592 21.3401L14.3145 22.4954C13.5688 22.659 12.7949 22.7493 12.0001 22.7493C6.063 22.7493 1.25006 17.9363 1.25006 11.9993C1.25006 6.06221 6.063 1.24927 12.0001 1.24927ZM12.0001 6.99927C11.4478 6.99927 11.0001 7.44698 11.0001 7.99927V11.9993C11.0001 12.2645 11.1055 12.5188 11.293 12.7063L13.293 14.7063C13.6836 15.0968 14.3166 15.0968 14.7071 14.7063C15.0976 14.3158 15.0976 13.6828 14.7071 13.2922L13.0001 11.5852V7.99927C13.0001 7.44698 12.5523 6.99927 12.0001 6.99927Z" fill="currentColor" />
</svg>