<svg xmlns="http://www.w3.org/2000/svg" width="24" height="24" viewBox="0 0 24 24" fill="none">
    <path d="M22.5 11.75C22.5 17.6871 17.6871 22.5 11.75 22.5C5.81294 22.5 1 17.6871 1 11.75C1 5.81294 5.81294 1 11.75 1C17.6871 1 22.5 5.81294 22.5 11.75ZM11.75 4.7498C11.1977 4.7498 10.75 5.19752 10.75 5.7498V11.7498C10.75 12.1063 10.9397 12.4361 11.248 12.615C11.5563 12.7939 11.9366 12.7948 12.2461 12.618L15.7461 10.618C16.2256 10.344 16.3922 9.73323 16.1182 9.25371C15.8442 8.77419 15.2334 8.60763 14.7539 8.88164L12.75 10.0262V5.7498C12.75 5.19752 12.3023 4.7498 11.75 4.7498Z" fill="currentColor" />
</svg>