<svg xmlns="http://www.w3.org/2000/svg" width="24" height="24" viewBox="0 0 24 24" fill="none">
    <path d="M22.5 11.75C22.5 17.6871 17.6871 22.5 11.75 22.5C5.81294 22.5 1 17.6871 1 11.75C1 5.81294 5.81294 1 11.75 1C17.6871 1 22.5 5.81294 22.5 11.75ZM11.75 4.7498C11.1977 4.7498 10.75 5.19752 10.75 5.7498V7.98418L10.6182 7.75371C10.3442 7.27419 9.73342 7.10763 9.25391 7.38164C8.77439 7.65565 8.60783 8.26638 8.88184 8.7459L10.8818 12.2459C11.1068 12.6396 11.5686 12.833 12.0068 12.7166C12.445 12.6002 12.75 12.2032 12.75 11.7498V5.7498C12.75 5.19752 12.3023 4.7498 11.75 4.7498Z" fill="currentColor" />
</svg>