<svg xmlns="http://www.w3.org/2000/svg" width="24" height="24" viewBox="0 0 24 24" fill="none">
    <path d="M17.7501 21.7496V17.1637L16.4571 18.4567C16.0666 18.8472 15.4336 18.8472 15.0431 18.4567C14.6526 18.0662 14.6526 17.4331 15.0431 17.0426L18.0431 14.0426L18.1192 13.9743C18.512 13.6539 19.091 13.6765 19.4571 14.0426L22.4571 17.0426C22.8477 17.4331 22.8477 18.0662 22.4571 18.4567C22.0666 18.8472 21.4336 18.8472 21.0431 18.4567L19.7501 17.1637V21.7496C19.7501 22.3019 19.3024 22.7496 18.7501 22.7496C18.1978 22.7496 17.7501 22.3019 17.7501 21.7496Z" fill="currentColor" />
    <path fill-rule="evenodd" clip-rule="evenodd" d="M12.0001 1.24963C17.9371 1.24963 22.7501 6.06257 22.7501 11.9996C22.7501 13.081 22.5881 14.1245 22.2911 15.109L20.3409 13.1588C19.5161 12.3341 18.2134 12.2843 17.3292 13.0055L14.1592 16.1588C13.2809 17.0375 13.2807 18.4619 14.1592 19.3405C14.7925 19.9736 15.7085 20.1473 16.5001 19.8678V21.7614C15.1307 22.3936 13.6073 22.7496 12.0001 22.7496C6.063 22.7496 1.25006 17.9367 1.25006 11.9996C1.25006 6.06257 6.063 1.24963 12.0001 1.24963ZM12.0001 6.99963C11.4478 6.99963 11.0001 7.44735 11.0001 7.99963V11.9996C11.0001 12.2649 11.1055 12.5191 11.293 12.7067L13.293 14.7067C13.6836 15.0972 14.3166 15.0972 14.7071 14.7067C15.0976 14.3161 15.0976 13.6831 14.7071 13.2926L13.0001 11.5856V7.99963C13.0001 7.44735 12.5523 6.99963 12.0001 6.99963Z" fill="currentColor" />
</svg>