<svg xmlns="http://www.w3.org/2000/svg" width="24" height="24" viewBox="0 0 24 24" fill="none">
    <path d="M14.75 15.25C15.3023 15.25 15.75 15.6977 15.75 16.25C15.75 16.8023 15.3023 17.25 14.75 17.25H7.75C7.19772 17.25 6.75 16.8023 6.75 16.25C6.75 15.6977 7.19772 15.25 7.75 15.25H14.75Z" fill="currentColor" />
    <path d="M15.75 19.25C16.3023 19.25 16.75 19.6977 16.75 20.25C16.75 20.8023 16.3023 21.25 15.75 21.25H9.75C9.19772 21.25 8.75 20.8023 8.75 20.25C8.75 19.6977 9.19772 19.25 9.75 19.25H15.75Z" fill="currentColor" />
    <path fill-rule="evenodd" clip-rule="evenodd" d="M19 18.4512C18.917 18.4805 18.8292 18.4951 18.7412 18.4941L17.1338 18.4758C16.8456 18.2506 16.5011 18.0942 16.125 18.0311C16.6573 17.6196 17 16.9748 17 16.25C17 15.0074 15.9926 14 14.75 14H7.75C6.50736 14 5.5 15.0074 5.5 16.25C5.5 17.2167 6.10964 18.041 6.96542 18.3594L4.74121 18.334C4.64101 18.3328 4.54205 18.3115 4.4502 18.2715C2.42097 17.3849 1 15.359 1 13C1 10.2172 2.97647 7.89735 5.60254 7.36523C6.13655 4.45489 8.68559 2.25 11.75 2.25C15.1358 2.25 17.8909 4.94226 17.9951 8.30273C20.5417 8.66457 22.5 10.8535 22.5 13.5C22.5 15.787 21.0381 17.7308 19 18.4512Z" fill="currentColor" />
</svg>