<svg xmlns="http://www.w3.org/2000/svg" width="24" height="24" viewBox="0 0 24 24" fill="none">
    <path d="M14.75 15.125V13.125C14.75 12.5727 15.1977 12.125 15.75 12.125C16.3023 12.125 16.75 12.5727 16.75 13.125V15.125C16.75 15.6773 16.3023 16.125 15.75 16.125C15.1977 16.125 14.75 15.6773 14.75 15.125Z" fill="currentColor" />
    <path d="M6.75 15.125V13.125C6.75 12.5727 7.19772 12.125 7.75 12.125C8.30228 12.125 8.75 12.5727 8.75 13.125V15.125C8.75 15.6773 8.30228 16.125 7.75 16.125C7.19772 16.125 6.75 15.6773 6.75 15.125Z" fill="currentColor" />
    <path d="M15.7598 18.125C16.3121 18.125 16.7598 18.5727 16.7598 19.125C16.7598 19.6773 16.3121 20.125 15.7598 20.125H15.75C15.1977 20.125 14.75 19.6773 14.75 19.125C14.75 18.5727 15.1977 18.125 15.75 18.125H15.7598Z" fill="currentColor" />
    <path d="M7.75977 18.125C8.31205 18.125 8.75977 18.5727 8.75977 19.125C8.75977 19.6773 8.31205 20.125 7.75977 20.125H7.75C7.19772 20.125 6.75 19.6773 6.75 19.125C6.75 18.5727 7.19772 18.125 7.75 18.125H7.75977Z" fill="currentColor" />
    <path d="M10.75 17.125V15.125C10.75 14.5727 11.1977 14.125 11.75 14.125C12.3023 14.125 12.75 14.5727 12.75 15.125V17.125C12.75 17.6773 12.3023 18.125 11.75 18.125C11.1977 18.125 10.75 17.6773 10.75 17.125Z" fill="currentColor" />
    <path d="M11.7598 20.125C12.3121 20.125 12.7598 20.5727 12.7598 21.125C12.7598 21.6773 12.3121 22.125 11.7598 22.125H11.75C11.1977 22.125 10.75 21.6773 10.75 21.125C10.75 20.5727 11.1977 20.125 11.75 20.125H11.7598Z" fill="currentColor" />
    <path fill-rule="evenodd" clip-rule="evenodd" d="M17.9951 7.42773C17.8909 4.06726 15.1358 1.375 11.75 1.375C8.68559 1.375 6.13655 3.57989 5.60254 6.49023C2.97647 7.02235 1 9.3422 1 12.125C1 15.0195 3.13875 17.4145 5.92214 17.8158C6.12977 17.5279 6.40399 17.2909 6.72203 17.127C5.99636 16.7536 5.5 15.9973 5.5 15.125V13.125C5.5 11.8824 6.50736 10.875 7.75 10.875C8.99264 10.875 10 11.8824 10 13.125V13.7107C10.4125 13.2009 11.0432 12.875 11.75 12.875C12.4568 12.875 13.0875 13.2009 13.5 13.7107V13.125C13.5 11.8824 14.5074 10.875 15.75 10.875C16.9926 10.875 18 11.8824 18 13.125V15.125C18 15.9938 17.5076 16.7476 16.7867 17.1225C17.1233 17.2955 17.4107 17.5509 17.6221 17.862C20.348 17.6711 22.5 15.3994 22.5 12.625C22.5 9.97847 20.5417 7.78957 17.9951 7.42773Z" fill="currentColor" />
</svg>