<svg xmlns="http://www.w3.org/2000/svg" width="24" height="24" viewBox="0 0 24 24" fill="none">
    <path d="M15.543 14.418C15.9335 14.0275 16.5665 14.0275 16.957 14.418C17.3476 14.8085 17.3476 15.4416 16.957 15.8321L11.957 20.8321C11.5665 21.2226 10.9335 21.2226 10.543 20.8321L8.54297 18.8321C8.15245 18.4416 8.15245 17.8085 8.54297 17.418C8.93349 17.0275 9.56651 17.0275 9.95703 17.418L11.25 18.711L15.543 14.418Z" fill="currentColor" />
    <path d="M5.60254 7.4903C2.97647 8.02241 1 10.3423 1 13.1251C1 15.4841 2.42097 17.5099 4.4502 18.3965C4.54205 18.4366 4.64101 18.4579 4.74121 18.459L7.02902 18.4852C6.94692 17.9763 7.04005 17.4447 7.30842 16.9874C7.40339 16.8256 7.52031 16.6731 7.65918 16.5342C8.53786 15.6556 9.96214 15.6556 10.8408 16.5342L11.25 16.9434L14.6592 13.5342C15.5379 12.6556 16.9621 12.6556 17.8408 13.5342C18.7195 14.4129 18.7195 15.8372 17.8408 16.7159L17.4528 17.1039L15.9692 18.5875L18.7412 18.6192C18.8292 18.6202 18.917 18.6056 19 18.5762C21.0381 17.8559 22.5 15.9121 22.5 13.6251C22.5 10.9785 20.5417 8.78963 17.9951 8.4278C17.8909 5.06732 15.1358 2.37506 11.75 2.37506C8.68559 2.37506 6.13655 4.57995 5.60254 7.4903Z" fill="currentColor" />
</svg>