<svg xmlns="http://www.w3.org/2000/svg" width="24" height="24" viewBox="0 0 24 24" fill="none">
    <path d="M16.12 11.875C16.12 10.2183 14.7766 8.87526 13.12 8.875C12.591 8.875 12.0963 9.0108 11.6669 9.24902C11.184 9.51694 10.5755 9.34306 10.3075 8.86035C10.0396 8.37752 10.2134 7.76903 10.6962 7.50098C11.4149 7.10213 12.2428 6.875 13.12 6.875C15.8812 6.87526 18.12 9.11373 18.12 11.875C18.12 12.305 18.0648 12.7237 17.9618 13.124C17.8241 13.6589 17.2789 13.9814 16.744 13.8438C16.2093 13.706 15.8877 13.1607 16.0253 12.626C16.0867 12.3871 16.12 12.1355 16.12 11.875Z" fill="currentColor" />
    <path d="M21.6259 10.3701C22.1782 10.3701 22.6259 10.8178 22.6259 11.3701C22.6258 11.9223 22.1781 12.3701 21.6259 12.3701H20.6259C20.0737 12.3701 19.626 11.9223 19.6259 11.3701C19.6259 10.8178 20.0736 10.3701 20.6259 10.3701H21.6259ZM6.41203 4.6543C6.80256 4.26378 7.43557 4.26377 7.8261 4.6543L8.53313 5.36133C8.92365 5.75185 8.92365 6.38487 8.53313 6.77539C8.1426 7.16591 7.50959 7.16591 7.11907 6.77539L6.41203 6.06836C6.02151 5.67783 6.02151 5.04482 6.41203 4.6543ZM18.4257 4.6543C18.8162 4.26377 19.4492 4.26377 19.8398 4.6543C20.2302 5.04483 20.2303 5.67785 19.8398 6.06836L19.1327 6.77539C18.7422 7.16587 18.1092 7.16585 17.7187 6.77539C17.3282 6.38487 17.3282 5.75185 17.7187 5.36133L18.4257 4.6543ZM12.121 3.875V2.875C12.121 2.32272 12.5687 1.875 13.121 1.875C13.6732 1.87506 14.121 2.32275 14.121 2.875V3.875C14.121 4.42725 13.6732 4.87494 13.121 4.875C12.5687 4.875 12.121 4.42728 12.121 3.875Z" fill="currentColor" />
    <path d="M9.625 20.625V18.625C9.625 18.0727 10.0727 17.625 10.625 17.625C11.1773 17.625 11.625 18.0727 11.625 18.625V20.625C11.625 21.1773 11.1773 21.625 10.625 21.625C10.0727 21.625 9.625 21.1773 9.625 20.625Z" fill="currentColor" />
    <path d="M5.625 19.625V17.625C5.625 17.0727 6.07272 16.625 6.625 16.625C7.17728 16.625 7.625 17.0727 7.625 17.625V19.625C7.625 20.1773 7.17728 20.625 6.625 20.625C6.07272 20.625 5.625 20.1773 5.625 19.625Z" fill="currentColor" />
    <path fill-rule="evenodd" clip-rule="evenodd" d="M4.16152 13.6584C4.20224 13.6181 4.22005 13.5498 4.25567 13.4132C4.74836 11.5235 6.51751 10.125 8.625 10.125C10.9427 10.125 12.8517 11.8168 13.1028 13.9927C13.1225 14.1637 13.1324 14.2492 13.1775 14.2987C13.2225 14.3481 13.3103 14.3687 13.4857 14.4099C15.1438 14.7988 16.375 16.2434 16.375 17.9659C16.375 19.9703 14.708 21.5982 12.6413 21.6247C12.7909 21.3235 12.875 20.9841 12.875 20.625V18.625C12.875 17.3824 11.8676 16.375 10.625 16.375C9.90017 16.375 9.25539 16.7177 8.84389 17.25C8.66536 16.1859 7.73987 15.375 6.625 15.375C5.38236 15.375 4.375 16.3824 4.375 17.625V19.625C4.375 20.4957 4.86961 21.2509 5.5932 21.625H5.02035C2.73094 21.625 0.875 19.8307 0.875 17.6174C0.875 15.7762 2.15902 14.2254 3.90886 13.7556C4.05015 13.7177 4.1208 13.6987 4.16152 13.6584Z" fill="currentColor" />
</svg>