<svg xmlns="http://www.w3.org/2000/svg" width="24" height="24" viewBox="0 0 24 24" fill="none">
    <path fill-rule="evenodd" clip-rule="evenodd" d="M5.55872 6.4447C5.6152 6.38684 5.63991 6.28884 5.68931 6.09283C6.37272 3.38153 8.82671 1.375 11.75 1.375C14.9649 1.375 17.6128 3.80231 17.9612 6.92424C17.9885 7.16959 18.0022 7.2923 18.0647 7.36328C18.1272 7.43427 18.2489 7.4638 18.4923 7.52286C20.7922 8.08089 22.5 10.1535 22.5 12.625C22.5 15.3797 20.3785 17.6388 17.6802 17.8576L18.8389 14.9609C19.3003 13.8073 18.7395 12.4978 17.5859 12.0361C16.4323 11.5747 15.1228 12.1355 14.6611 13.2891L13.9434 15.0833C13.7035 14.6235 13.3044 14.2439 12.7852 14.0361C12.1852 13.7962 11.5431 13.8327 11 14.0852C10.9841 13.2074 10.4521 12.3828 9.58594 12.0361C8.43229 11.5747 7.12276 12.1355 6.66113 13.2891L4.94267 17.5852C2.65246 16.8276 1 14.6693 1 12.125C1 9.48326 2.78106 7.2582 5.20825 6.58419C5.40424 6.52976 5.50224 6.50255 5.55872 6.4447Z" fill="currentColor" />
    <path d="M11.0208 15.7542C11.2259 15.2415 11.8079 14.9917 12.3206 15.1966C12.8333 15.4017 13.0831 15.9837 12.8782 16.4964L10.8782 21.4964C10.6732 22.0091 10.0911 22.2589 9.57843 22.054C9.06576 21.849 8.81595 21.2669 9.02082 20.7542L11.0208 15.7542Z" fill="currentColor" />
    <path d="M7.8216 13.7542C8.02667 13.2415 8.6087 12.9917 9.1214 13.1966C9.63407 13.4017 9.88389 13.9837 9.67902 14.4964L7.67902 19.4964C7.47395 20.0091 6.89192 20.2589 6.37922 20.054C5.86654 19.849 5.61673 19.2669 5.8216 18.7542L7.8216 13.7542Z" fill="currentColor" />
    <path d="M15.8216 13.7542C16.0267 13.2415 16.6087 12.9917 17.1214 13.1966C17.6341 13.4017 17.8839 13.9837 17.679 14.4964L15.679 19.4964C15.474 20.0091 14.8919 20.2589 14.3792 20.054C13.8665 19.849 13.6167 19.2669 13.8216 18.7542L15.8216 13.7542Z" fill="currentColor" />
</svg>