<svg xmlns="http://www.w3.org/2000/svg" width="24" height="24" viewBox="0 0 24 24" fill="none">
    <path d="M14.75 20.625V20.1211C13.9144 20.7494 12.877 21.125 11.75 21.125C9.89818 21.125 8.28299 20.1177 7.41992 18.626C7.14344 18.148 7.30637 17.5364 7.78418 17.2598C8.26213 16.9833 8.87375 17.1462 9.15039 17.624C9.67061 18.5233 10.6408 19.125 11.75 19.125C12.3622 19.125 12.9311 18.9404 13.4062 18.625H12.75C12.1977 18.625 11.75 18.1773 11.75 17.625C11.75 17.0727 12.1977 16.625 12.75 16.625H15.75C16.3023 16.625 16.75 17.0727 16.75 17.625V20.625C16.75 21.1773 16.3023 21.625 15.75 21.625C15.1977 21.625 14.75 21.1773 14.75 20.625ZM11.75 11.125C13.6018 11.125 15.217 12.1323 16.0801 13.624C16.3566 14.102 16.1936 14.7136 15.7158 14.9902C15.2379 15.2667 14.6262 15.1038 14.3496 14.626C13.8294 13.7267 12.8592 13.125 11.75 13.125C11.1378 13.125 10.5689 13.3096 10.0938 13.625H10.75C11.3023 13.625 11.75 14.0727 11.75 14.625C11.75 15.1773 11.3023 15.625 10.75 15.625H7.75C7.19772 15.625 6.75 15.1773 6.75 14.625V11.625C6.75 11.0727 7.19772 10.625 7.75 10.625C8.30228 10.625 8.75 11.0727 8.75 11.625V12.1279C9.5855 11.4998 10.6232 11.125 11.75 11.125Z" fill="currentColor" />
    <path fill-rule="evenodd" clip-rule="evenodd" d="M1 12.625C1 9.84199 2.97664 7.52143 5.603 6.98954C6.13731 4.07956 8.68585 1.875 11.75 1.875C15.1358 1.875 17.8928 4.56724 17.9969 7.92773C20.5427 8.29034 22.5 10.4791 22.5 13.125C22.5 15.7699 20.5442 17.9579 18 18.3218V17.625C18 16.7836 17.5376 16.051 16.8535 15.665C17.5165 14.9601 17.6716 13.8788 17.1621 12.998C16.0848 11.136 14.066 9.875 11.75 9.875C10.9741 9.875 10.2327 10.0192 9.54785 10.2773C9.13738 9.73062 8.48629 9.375 7.75 9.375C6.50736 9.375 5.5 10.3824 5.5 11.625V14.625C5.5 15.4663 5.96266 16.198 6.64648 16.584C6.20263 17.0556 5.98646 17.6961 6.0446 18.3322C3.20173 17.9844 1 15.5618 1 12.625Z" fill="currentColor" />
</svg>