<svg xmlns="http://www.w3.org/2000/svg" width="24" height="24" viewBox="0 0 24 24" fill="none">
    <path fill-rule="evenodd" clip-rule="evenodd" d="M5.60254 6.49023C2.97647 7.02235 1 9.3422 1 12.125C1 14.4021 2.32372 16.3688 4.24023 17.2998C4.34234 17.3494 4.45485 17.375 4.56836 17.375H5.8795C5.63982 17.0177 5.5 16.5878 5.5 16.125V12.625C5.5 11.3824 6.50736 10.375 7.75 10.375C8.4938 10.375 9.15091 10.7377 9.56055 11.2939C10.1875 11.0358 10.913 10.875 11.75 10.875C15.2018 10.875 18 13.6732 18 17.125C18 17.2087 17.9984 17.2921 17.9951 17.375H19.3135C19.4333 17.375 19.5517 17.3461 19.6582 17.291C21.3446 16.4191 22.5 14.6577 22.5 12.625C22.5 9.97847 20.5417 7.78957 17.9951 7.42773C17.8909 4.06726 15.1358 1.375 11.75 1.375C8.68559 1.375 6.13655 3.57989 5.60254 6.49023Z" fill="currentColor" />
    <path d="M14.75 17.125C14.75 15.4681 13.4069 14.125 11.75 14.125C10.8386 14.125 10.2047 14.5613 9.74316 15.125H10.75C11.3023 15.125 11.75 15.5727 11.75 16.125C11.75 16.6773 11.3023 17.125 10.75 17.125H7.75C7.19772 17.125 6.75 16.6773 6.75 16.125V12.625C6.75 12.0727 7.19772 11.625 7.75 11.625C8.30228 11.625 8.75 12.0727 8.75 12.625V13.2744C9.45782 12.6341 10.43 12.125 11.75 12.125C14.5114 12.125 16.75 14.3636 16.75 17.125C16.75 19.8864 14.5114 22.125 11.75 22.125C10.2565 22.125 8.91472 21.469 8 20.4326C7.63475 20.0187 7.67424 19.387 8.08789 19.0215C8.50196 18.656 9.13453 18.6953 9.5 19.1094C10.0512 19.7337 10.8543 20.125 11.75 20.125C13.4069 20.125 14.75 18.7819 14.75 17.125Z" fill="currentColor" />
</svg>