<svg xmlns="http://www.w3.org/2000/svg" width="24" height="24" viewBox="0 0 24 24" fill="none">
    <path d="M6.75 18.625V17.625C6.75 17.0727 7.19772 16.625 7.75 16.625C8.30228 16.625 8.75 17.0727 8.75 17.625V18.625C8.75 19.1773 8.30228 19.625 7.75 19.625C7.19772 19.625 6.75 19.1773 6.75 18.625Z" fill="currentColor" />
    <path d="M6.75 13.625V12.625C6.75 12.0727 7.19772 11.625 7.75 11.625C8.30228 11.625 8.75 12.0727 8.75 12.625V13.625C8.75 14.1773 8.30228 14.625 7.75 14.625C7.19772 14.625 6.75 14.1773 6.75 13.625Z" fill="currentColor" />
    <path d="M14.75 18.625V17.625C14.75 17.0727 15.1977 16.625 15.75 16.625C16.3023 16.625 16.75 17.0727 16.75 17.625V18.625C16.75 19.1773 16.3023 19.625 15.75 19.625C15.1977 19.625 14.75 19.1773 14.75 18.625Z" fill="currentColor" />
    <path d="M14.75 13.625V12.625C14.75 12.0727 15.1977 11.625 15.75 11.625C16.3023 11.625 16.75 12.0727 16.75 12.625V13.625C16.75 14.1773 16.3023 14.625 15.75 14.625C15.1977 14.625 14.75 14.1773 14.75 13.625Z" fill="currentColor" />
    <path d="M10.75 20.625V19.625C10.75 19.0727 11.1977 18.625 11.75 18.625C12.3023 18.625 12.75 19.0727 12.75 19.625V20.625C12.75 21.1773 12.3023 21.625 11.75 21.625C11.1977 21.625 10.75 21.1773 10.75 20.625Z" fill="currentColor" />
    <path d="M10.75 15.625V14.625C10.75 14.0727 11.1977 13.625 11.75 13.625C12.3023 13.625 12.75 14.0727 12.75 14.625V15.625C12.75 16.1773 12.3023 16.625 11.75 16.625C11.1977 16.625 10.75 16.1773 10.75 15.625Z" fill="currentColor" />
    <path d="M5.60254 6.99023C2.97647 7.52235 1 9.8422 1 12.625C1 14.5066 1.90491 16.1768 3.2998 17.2246C3.4265 17.3198 3.57985 17.3725 3.73828 17.375L5.51093 17.4018C5.56952 16.8068 5.8599 16.2799 6.29055 15.9125C6.42107 15.8011 6.56447 15.7045 6.7182 15.625C5.99461 15.2509 5.5 14.4957 5.5 13.625V12.625C5.5 11.3824 6.50736 10.375 7.75 10.375C8.99264 10.375 10 11.3824 10 12.625V13.2107C10.4125 12.7009 11.0432 12.375 11.75 12.375C12.4568 12.375 13.0875 12.7009 13.5 13.2107V12.625C13.5 11.3824 14.5074 10.375 15.75 10.375C16.9926 10.375 18 11.3824 18 12.625V13.625C18 14.4957 17.5054 15.2509 16.7818 15.625C17.0086 15.7423 17.213 15.897 17.3866 16.081C17.7596 16.4762 17.9911 17.0066 17.9997 17.5909L19.7383 17.6172C19.8907 17.6195 20.0403 17.575 20.167 17.4902C21.5721 16.5497 22.5 14.946 22.5 13.125C22.5 10.4785 20.5417 8.28957 17.9951 7.92773C17.8909 4.56726 15.1358 1.875 11.75 1.875C8.68559 1.875 6.13655 4.07989 5.60254 6.99023Z" fill="currentColor" />
</svg>