<svg xmlns="http://www.w3.org/2000/svg" width="24" height="24" viewBox="0 0 24 24" fill="none">
    <path fill-rule="evenodd" clip-rule="evenodd" d="M6.28613 15.7126C5.85398 15.7559 5.41497 15.7151 4.9958 15.5898L4.78906 15.7966C3.24341 17.3424 2.375 19.4387 2.375 21.6247C2.375 22.177 2.82272 22.6247 3.375 22.6247C3.92728 22.6247 4.375 22.177 4.375 21.6247C4.375 19.9692 5.03254 18.3813 6.20312 17.2106L6.40941 17.0044C6.28375 16.5847 6.24263 16.1452 6.28613 15.7126Z" fill="currentColor" />
    <path fill-rule="evenodd" clip-rule="evenodd" d="M11.8746 1.77794C13.1788 0.550903 15.2305 0.574273 16.5055 1.84922C16.9827 2.32651 17.2844 2.91269 17.4108 3.52777L11.8746 9.06394L6.33788 3.52721C6.46467 2.91232 6.76669 2.32634 7.24375 1.84922C8.51871 0.574273 10.5704 0.550904 11.8746 1.77794ZM5.27741 4.58783C4.66246 4.71461 4.07639 5.01663 3.59922 5.49376C2.32427 6.76871 2.3009 8.82045 3.52793 10.1246C2.3009 11.4288 2.32427 13.4805 3.59922 14.7555C4.00286 15.1591 4.48439 15.4371 4.99542 15.5898C5.08865 15.6176 5.18287 15.6413 5.27777 15.6608L10.8141 10.1245L5.27741 4.58783ZM6.33778 16.7219C6.35735 16.8168 6.3811 16.911 6.40902 17.0043C6.56201 17.5151 6.84029 17.9965 7.24375 18.4C8.51886 19.6751 10.5705 19.6978 11.8746 18.4703C13.1788 19.6978 15.2304 19.6751 16.5055 18.4C16.9827 17.9227 17.2844 17.3364 17.4109 16.7213L11.8746 11.185L6.33778 16.7219ZM18.4715 15.6608C19.0866 15.5344 19.6727 15.2327 20.15 14.7555C21.4251 13.4804 21.4478 11.4288 20.2203 10.1246C21.4478 8.82047 21.4251 6.76887 20.15 5.49376C19.6728 5.01665 19.0868 4.71459 18.4719 4.58778L12.9352 10.1245L18.4715 15.6608Z" fill="currentColor" />
</svg>