<svg xmlns="http://www.w3.org/2000/svg" width="24" height="24" viewBox="0 0 24 24" fill="none">
    <path d="M11.7461 1C12.6293 1 13.5012 1.20311 14.292 1.59375C15.0828 1.98444 15.7721 2.55254 16.3037 3.25293C16.8352 3.95328 17.1948 4.7672 17.3535 5.62988C17.464 6.23049 17.4721 6.84261 17.3848 7.44336C18.03 7.62816 18.6403 7.9239 19.1846 8.32129C19.9446 8.87628 20.554 9.61001 20.957 10.457C21.3601 11.3043 21.5439 12.2382 21.4912 13.1738C21.4385 14.1094 21.1508 15.017 20.6553 15.8145C20.1598 16.6118 19.4717 17.2742 18.6543 17.7422C17.8369 18.2101 16.9147 18.469 15.9717 18.4971C15.5279 18.5103 15.0861 18.4706 14.6543 18.3828L15.1533 20.3115C15.4397 21.4193 14.6031 22.4998 13.459 22.5H10.0381C8.89558 22.4997 8.06012 21.4223 8.34375 20.3154L8.83984 18.374C8.40705 18.4615 7.96427 18.5012 7.51953 18.4873C6.57748 18.4578 5.65688 18.1977 4.84082 17.7295C4.02459 17.2611 3.33737 16.5987 2.84277 15.8018C2.34827 15.005 2.06146 14.0986 2.00879 13.1641C1.95617 12.2294 2.13968 11.2959 2.54199 10.4492C2.94427 9.60285 3.55268 8.86958 4.31152 8.31445C4.85447 7.91728 5.4627 7.62102 6.10644 7.43555C6.02031 6.83732 6.02962 6.22787 6.13965 5.62988C6.2984 4.76716 6.65789 3.9533 7.18945 3.25293C7.7211 2.55254 8.41033 1.98444 9.20117 1.59375C9.99178 1.20322 10.863 1.00006 11.7461 1Z" fill="currentColor" />
</svg>