<svg xmlns="http://www.w3.org/2000/svg" width="24" height="24" viewBox="0 0 24 24" fill="none">
    <path d="M4.12646 15.4167L11.0227 19.5493V14.9925L7.92771 13.1383L4.12646 15.4167ZM12.9773 14.9925V19.5493L19.8726 15.4167L16.0713 13.1383L12.9773 14.9925ZM3.20455 13.6921L6.02852 12L3.20455 10.3069V13.6921ZM17.9715 12L20.7955 13.6921V10.3069L17.9715 12ZM9.8269 12L12 13.3013L14.1721 12L12 10.6978L9.8269 12ZM4.12646 8.58331L7.92771 10.8608L11.0227 9.00658V4.44973L4.12646 8.58331ZM12.9773 9.00658L16.0713 10.8608L19.8726 8.58331L12.9773 4.44973V9.00658ZM22.75 15.4167C22.75 15.7595 22.57 16.0773 22.2757 16.2537L12.503 22.1109C12.1935 22.2964 11.8065 22.2964 11.497 22.1109L1.72432 16.2537C1.43004 16.0773 1.25 15.7595 1.25 15.4167V8.58331C1.25 8.24046 1.43004 7.92274 1.72432 7.7463L11.497 1.88912C11.8065 1.70363 12.1935 1.70363 12.503 1.88912L22.2757 7.7463C22.57 7.92274 22.75 8.24046 22.75 8.58331V15.4167Z" fill="currentColor" />
</svg>