<svg xmlns="http://www.w3.org/2000/svg" width="24" height="24" viewBox="0 0 24 24" fill="none">
    <path d="M19.3 10.525V4.675C19.3 4.13652 18.8635 3.7 18.325 3.7H15.4V10.525C15.4 11.0635 14.9635 11.5 14.425 11.5C13.8865 11.5 13.45 11.0635 13.45 10.525V3.7H9.55V19.3H10.525C11.0635 19.3 11.5 19.7365 11.5 20.275C11.5 20.8135 11.0635 21.25 10.525 21.25H4.675C3.05957 21.25 1.75 19.9404 1.75 18.325V4.675C1.75 3.05957 3.05957 1.75 4.675 1.75H18.325C19.9404 1.75 21.25 3.05957 21.25 4.675V10.525C21.25 11.0635 20.8135 11.5 20.275 11.5C19.7365 11.5 19.3 11.0635 19.3 10.525ZM3.7 18.325C3.7 18.8635 4.13652 19.3 4.675 19.3H7.6V3.7H4.675C4.13652 3.7 3.7 4.13652 3.7 4.675V18.325Z" fill="currentColor" />
    <path d="M16.25 21.25V20.6035C16.0172 20.5342 15.7947 20.4418 15.585 20.3281L15.1289 20.7852C14.7384 21.1757 14.1054 21.1757 13.7148 20.7852C13.3243 20.3946 13.3243 19.7616 13.7148 19.3711L14.1709 18.9141C14.0575 18.7046 13.9647 18.4824 13.8955 18.25H13.25C12.6977 18.25 12.25 17.8023 12.25 17.25C12.25 16.6977 12.6977 16.25 13.25 16.25H13.8955C13.9648 16.0173 14.0573 15.7946 14.1709 15.585L13.7148 15.1289C13.3243 14.7384 13.3243 14.1054 13.7148 13.7148C14.1054 13.3243 14.7384 13.3243 15.1289 13.7148L15.585 14.1709C15.7946 14.0573 16.0173 13.9648 16.25 13.8955V13.25C16.25 12.6977 16.6977 12.25 17.25 12.25C17.8023 12.25 18.25 12.6977 18.25 13.25V13.8955C18.4824 13.9647 18.7046 14.0575 18.9141 14.1709L19.3711 13.7148C19.7616 13.3243 20.3946 13.3243 20.7852 13.7148C21.1757 14.1054 21.1757 14.7384 20.7852 15.1289L20.3281 15.585C20.4418 15.7948 20.5352 16.0171 20.6045 16.25H21.25C21.8023 16.25 22.25 16.6977 22.25 17.25C22.25 17.8023 21.8023 18.25 21.25 18.25H20.6045C20.5353 18.4826 20.4417 18.7045 20.3281 18.9141L20.7852 19.3711C21.1757 19.7616 21.1757 20.3946 20.7852 20.7852C20.3946 21.1757 19.7616 21.1757 19.3711 20.7852L18.9141 20.3281C18.7046 20.4416 18.4825 20.5343 18.25 20.6035V21.25C18.25 21.8023 17.8023 22.25 17.25 22.25C16.6977 22.25 16.25 21.8023 16.25 21.25ZM17.25 15.75C16.4216 15.75 15.75 16.4216 15.75 17.25C15.75 18.0784 16.4216 18.75 17.25 18.75C18.0784 18.75 18.75 18.0784 18.75 17.25C18.75 16.4216 18.0784 15.75 17.25 15.75Z" fill="currentColor" />
</svg>