<svg xmlns="http://www.w3.org/2000/svg" width="24" height="24" viewBox="0 0 24 24" fill="none">
    <path fill-rule="evenodd" clip-rule="evenodd" d="M19.8184 3.25C21.4375 3.2501 22.75 4.55622 22.75 6.16699V17.833C22.75 19.4438 21.4375 20.7499 19.8184 20.75H4.18164C2.56252 20.7499 1.25 19.4438 1.25 17.833V6.16699C1.25 4.55622 2.56252 3.2501 4.18164 3.25H19.8184ZM3.20312 8.25V17.833C3.20312 18.3699 3.64101 18.8056 4.18066 18.8057H19.8174C20.357 18.8056 20.7949 18.3699 20.7949 17.833V8.25H3.20312Z" fill="currentColor" />
    <path d="M6.29289 10.8202C6.68342 10.4297 7.31643 10.4297 7.70696 10.8202L9.70696 12.8202C10.0975 13.2108 10.0975 13.8438 9.70696 14.2343L7.70696 16.2343C7.31643 16.6248 6.68342 16.6248 6.29289 16.2343C5.90237 15.8438 5.90237 15.2108 6.29289 14.8202L7.58586 13.5273L6.29289 12.2343C5.90237 11.8438 5.90237 11.2108 6.29289 10.8202Z" fill="currentColor" />
    <path d="M16 14.5273C16.5523 14.5273 17 14.9751 17 15.5273C17 16.0796 16.5523 16.5273 16 16.5273H12C11.4477 16.5273 11 16.0796 11 15.5273C11 14.9751 11.4477 14.5273 12 14.5273H16Z" fill="currentColor" />
</svg>