<svg xmlns="http://www.w3.org/2000/svg" width="24" height="24" viewBox="0 0 24 24" fill="none">
    <path d="M20 2.25C21.5188 2.25 22.75 3.48122 22.75 5V15C22.75 16.5188 21.5188 17.75 20 17.75H13.5V19.25C13.5 19.5261 13.7239 19.75 14 19.75H16C16.5523 19.75 17 20.1977 17 20.75C17 21.3023 16.5523 21.75 16 21.75H8C7.44772 21.75 7 21.3023 7 20.75C7 20.1977 7.44772 19.75 8 19.75H10C10.2761 19.75 10.5 19.5261 10.5 19.25V17.75H4C2.48122 17.75 1.25 16.5188 1.25 15V5C1.25 3.48122 2.48122 2.25 4 2.25H20ZM13.3164 6.05176C12.7926 5.87714 12.2265 6.15984 12.0518 6.68359L10.0518 12.6836C9.87721 13.2074 10.1599 13.7735 10.6836 13.9482C11.2074 14.1228 11.7735 13.8401 11.9482 13.3164L13.9482 7.31641C14.1228 6.7926 13.8401 6.22656 13.3164 6.05176ZM8.70703 7.29297C8.31651 6.90244 7.68349 6.90244 7.29297 7.29297L5.29297 9.29297C4.90247 9.6835 4.90245 10.3165 5.29297 10.707L7.29297 12.707C7.68349 13.0974 8.31654 13.0975 8.70703 12.707C9.09752 12.3165 9.09745 11.6835 8.70703 11.293L7.41406 10L8.70703 8.70703C9.09752 8.31654 9.09745 7.6835 8.70703 7.29297ZM16.707 7.29297C16.3165 6.90244 15.6835 6.90244 15.293 7.29297C14.9025 7.6835 14.9025 8.31652 15.293 8.70703L16.5859 10L15.293 11.293C14.9025 11.6835 14.9025 12.3165 15.293 12.707C15.6835 13.0974 16.3165 13.0975 16.707 12.707L18.707 10.707C19.0975 10.3165 19.0975 9.6835 18.707 9.29297L16.707 7.29297Z" fill="currentColor" />
</svg>