<svg xmlns="http://www.w3.org/2000/svg" width="24" height="24" viewBox="0 0 24 24" fill="none">
    <path d="M19 2.25C20.5188 2.25 21.75 3.48122 21.75 5V19C21.75 20.5188 20.5188 21.75 19 21.75H5C3.48122 21.75 2.25 20.5188 2.25 19V5C2.25 3.48122 3.48122 2.25 5 2.25H19ZM11.5 11.5C10.9477 11.5 10.5 11.9477 10.5 12.5C10.5 13.0523 10.9477 13.5 11.5 13.5H15.5C16.0523 13.5 16.5 13.0523 16.5 12.5C16.5 11.9477 16.0523 11.5 15.5 11.5H11.5ZM8.20703 6.79297C7.81651 6.40244 7.18349 6.40244 6.79297 6.79297C6.40244 7.18349 6.40244 7.81651 6.79297 8.20703L8.08594 9.5L6.79297 10.793C6.40244 11.1835 6.40244 11.8165 6.79297 12.207C7.1835 12.5975 7.81653 12.5975 8.20703 12.207L10.207 10.207C10.5975 9.81653 10.5975 9.1835 10.207 8.79297L8.20703 6.79297Z" fill="currentColor" />
</svg>