<svg xmlns="http://www.w3.org/2000/svg" width="24" height="24" viewBox="0 0 24 24" fill="none">
    <path d="M16.75 2C19.8936 2 22.4999 4.44651 22.5 7.5332C22.5 10.62 19.8936 13.0654 16.75 13.0654C16.3788 13.0658 16.0089 13.0323 15.6445 12.9639C15.5942 12.9544 15.552 12.9469 15.5156 12.9404L15.499 12.9375C15.4906 12.936 15.4829 12.9339 15.4756 12.9326C15.4319 12.9549 15.3739 12.9857 15.29 13.0303C14.5008 13.4499 13.5792 13.5993 12.6885 13.4336C12.4284 13.3852 12.2133 13.2034 12.1221 12.9551C12.0309 12.7069 12.0765 12.4289 12.2432 12.2236C12.4322 11.9911 12.5631 11.71 12.625 11.4062C12.6222 11.4007 12.6191 11.3924 12.6133 11.3838L12.5752 11.3379C11.6033 10.3509 11 9.01169 11 7.5332C11.0001 4.44651 13.6064 2 16.75 2ZM16.75 8.80078C16.3101 8.80098 15.9478 9.13496 15.9043 9.56348L15.9004 9.65039L15.9043 9.7373C15.9478 10.1658 16.3101 10.4998 16.75 10.5C17.2194 10.5 17.6006 10.1198 17.6006 9.65039C17.6006 9.21016 17.2657 8.84804 16.8369 8.80469L16.75 8.80078ZM16.7568 4.50488C16.3428 4.5038 16.0061 4.83881 16.0049 5.25293L16 6.74805C15.9989 7.16209 16.334 7.49871 16.748 7.5C17.1623 7.50124 17.4988 7.16616 17.5 6.75195L17.5049 5.25684C17.506 4.84276 17.1709 4.50612 16.7568 4.50488Z" fill="currentColor" />
    <path d="M10 12.25C10 14.0449 8.54493 15.5 6.75 15.5C4.95507 15.5 3.5 14.0449 3.5 12.25C3.5 10.4551 4.95507 9 6.75 9C8.54493 9 10 10.4551 10 12.25Z" fill="currentColor" />
    <path d="M12.5 20.75C12.5 17.5744 9.92564 15 6.75 15C3.57436 15 1 17.5744 1 20.75C1 21.1642 1.33579 21.5 1.75 21.5H11.75C12.1642 21.5 12.5 21.1642 12.5 20.75Z" fill="currentColor" />
</svg>