<svg xmlns="http://www.w3.org/2000/svg" width="24" height="24" viewBox="0 0 24 24" fill="none">
    <path d="M20.75 21.125C21.7165 21.125 22.5 20.3415 22.5 19.375V18.375C22.5 17.4085 21.7165 16.625 20.75 16.625H2.75C1.7835 16.625 1 17.4085 1 18.375V19.375C1 20.3415 1.7835 21.125 2.75 21.125H20.75Z" fill="currentColor" />
    <path d="M14.7492 3.37392C14.7491 2.82163 14.3013 2.37396 13.7491 2.37401L11.7492 2.37438L9.74906 2.37438C9.19678 2.37443 8.7491 2.82218 8.74915 3.37447C8.7492 3.92675 9.19696 4.37443 9.74925 4.37438L10.7492 4.37428L10.7492 5.68018C6.38759 6.17641 2.99915 9.87933 2.99915 14.3737C2.99915 14.7879 3.33494 15.1237 3.74915 15.1237L19.7492 15.1237C20.1634 15.1237 20.4992 14.7879 20.4992 14.3737C20.4992 9.87933 17.1107 6.17641 12.7492 5.68018L12.7492 4.3741L13.7492 4.37401C14.3015 4.37396 14.7492 3.9262 14.7492 3.37392Z" fill="currentColor" />
</svg>