<svg xmlns="http://www.w3.org/2000/svg" width="24" height="24" viewBox="0 0 24 24" fill="none">
    <path fill-rule="evenodd" clip-rule="evenodd" d="M13.59 17.1429C12.7113 16.2642 11.2867 16.2642 10.408 17.1429C9.52935 18.0216 9.52935 19.4462 10.408 20.3249C11.2867 21.2036 12.7113 21.2036 13.59 20.3249C13.8358 20.0791 14.0128 19.791 14.1211 19.4839H11.999C11.5848 19.4839 11.249 19.1481 11.249 18.7339C11.249 18.3197 11.5848 17.9839 11.999 17.9839H14.1211C14.0128 17.6768 13.8358 17.3887 13.59 17.1429ZM9.34737 16.0822C10.8118 14.6178 13.1862 14.6178 14.6507 16.0822C15.3828 16.8143 15.749 17.7753 15.749 18.7339C15.749 19.6924 15.3828 20.6535 14.6507 21.3855C13.1862 22.85 10.8118 22.85 9.34737 21.3855C7.88291 19.9211 7.88291 17.5467 9.34737 16.0822Z" fill="currentColor" />
    <path fill-rule="evenodd" clip-rule="evenodd" d="M13.0039 1.51904L21.792 7.67139C22.4376 8.12343 22.7373 8.99098 22.3789 9.76514C21.8314 10.9476 21.0794 12.0555 20.125 13.0337C15.6397 17.6311 8.36031 17.631 3.87498 13.0337C2.92061 12.0555 2.16857 10.9476 1.62107 9.76514C1.26263 8.99096 1.56233 8.12342 2.20799 7.67139L10.9961 1.51904C10.997 1.51843 10.9981 1.51771 10.999 1.51709V5.72998C10.999 6.28223 11.4468 6.72992 11.999 6.72998C12.5513 6.72998 12.999 6.28227 12.999 5.72998V1.51611C13.0005 1.51713 13.0024 1.51802 13.0039 1.51904ZM11.999 10.73C11.4468 10.73 10.999 11.1777 10.999 11.73C10.999 12.2822 11.4468 12.7299 11.999 12.73H12.0078C12.5601 12.73 13.0078 12.2823 13.0078 11.73C13.0078 11.1777 12.5601 10.73 12.0078 10.73H11.999ZM11.999 7.72998C11.4468 7.73004 10.999 8.17773 10.999 8.72998C10.999 9.28223 11.4468 9.72992 11.999 9.72998H12.0078C12.5601 9.72998 13.0078 9.28227 13.0078 8.72998C13.0078 8.1777 12.5601 7.72998 12.0078 7.72998H11.999Z" fill="currentColor" />
</svg>