<svg xmlns="http://www.w3.org/2000/svg" width="24" height="24" viewBox="0 0 24 24" fill="none">
    <path d="M7.00049 21C7.00049 21.5521 6.55255 21.9997 6.00049 22C5.4482 22 4.99951 21.5523 4.99951 21V14.75H3.50049C2.25785 14.75 1.24951 13.7426 1.24951 12.5V7.5C1.24951 7.15277 1.33072 6.82489 1.47119 6.53125L9.68896 14.75H7.00049V21ZM19.0005 21C19.0005 21.5521 18.5525 21.9997 18.0005 22C17.4482 22 17.0005 21.5523 17.0005 21V14.75H17.811L8.31104 5.25H12.1899L21.4673 14.5283C21.174 14.6684 20.8471 14.7499 20.5005 14.75H19.0005V21ZM15.689 14.75H11.811L2.53174 5.4707C2.82523 5.33041 3.15349 5.25 3.50049 5.25H4.99951V3C4.99951 2.44772 5.4482 2 6.00049 2C6.55255 2.00026 7.00049 2.44788 7.00049 3V5.25H6.18994L15.689 14.75ZM20.5005 5.25C21.7429 5.25026 22.7505 6.25752 22.7505 7.5V12.5C22.7505 12.8468 22.6679 13.1735 22.5278 13.4668L14.311 5.25H17.0005V3C17.0005 2.44772 17.4482 2 18.0005 2C18.5525 2.00026 19.0005 2.44788 19.0005 3V5.25H20.5005Z" fill="currentColor" />
</svg>