<svg xmlns="http://www.w3.org/2000/svg" width="24" height="24" viewBox="0 0 24 24" fill="none">
    <path d="M22.5 11.75C22.5 17.6871 17.6871 22.5 11.75 22.5C5.81294 22.5 1 17.6871 1 11.75C1 5.81294 5.81294 1 11.75 1C17.6871 1 22.5 5.81294 22.5 11.75ZM12.3027 19.4805C16.3253 19.1966 19.5 15.8444 19.5 11.75C19.5 7.65561 16.3253 4.30343 12.3027 4.01954C12.0952 4.0049 11.8905 4.0769 11.7383 4.21875C11.5861 4.36061 11.5 4.55956 11.5 4.76758V18.7324C11.5 18.9404 11.5861 19.1394 11.7383 19.2813C11.8905 19.4231 12.0952 19.4951 12.3027 19.4805Z" fill="currentColor" />
</svg>