<svg xmlns="http://www.w3.org/2000/svg" width="24" height="24" viewBox="0 0 24 24" fill="none">
    <path fill-rule="evenodd" clip-rule="evenodd" d="M15.0241 5.57049L15.0589 5.56055C15.0474 5.56428 15.0358 5.56714 15.0241 5.57049Z" fill="currentColor" />
    <path d="M4.75 10.002C3.7835 10.002 3 10.7855 3 11.752H1.75C1.19772 11.752 0.75 12.1997 0.75 12.752C0.75 13.3042 1.19772 13.752 1.75 13.752H3V19.752C3 21.2707 4.23122 22.502 5.75 22.502H17.75C19.2688 22.502 20.5 21.2707 20.5 19.752V13.752H21.75C22.3023 13.752 22.75 13.3042 22.75 12.752C22.75 12.1997 22.3023 11.752 21.75 11.752H20.5C20.5 10.7855 19.7165 10.002 18.75 10.002H4.75Z" fill="currentColor" />
    <path fill-rule="evenodd" clip-rule="evenodd" d="M7.78994 5.5574L3.47615 6.79003C2.94514 6.94173 2.637 7.49535 2.78865 8.02636C2.94034 8.55734 3.49399 8.86447 4.02498 8.71288L9.02519 7.28509L15.025 5.57037L20.025 4.14263C20.5559 3.99096 20.8639 3.43724 20.7125 2.90631C20.5608 2.37539 20.0071 2.06734 19.4762 2.21881L15.2328 3.4313L15.0811 2.81512C14.7716 1.55767 13.5314 0.720264 12.2491 1.08661L9.2491 1.94403C7.99257 2.30323 7.31961 3.64616 7.62507 4.88739L7.78994 5.5574Z" fill="currentColor" />
</svg>