<svg xmlns="http://www.w3.org/2000/svg" width="24" height="24" viewBox="0 0 24 24" fill="none">
    <path d="M2.25012 19.75V6.25C2.25012 5.69772 2.69784 5.25 3.25012 5.25C3.80241 5.25 4.25012 5.69772 4.25012 6.25V19.75C4.25012 20.3023 4.69784 20.75 5.25012 20.75H16.7501C17.3024 20.75 17.7501 21.1977 17.7501 21.75C17.7501 22.3023 17.3024 22.75 16.7501 22.75H5.25012C3.59327 22.75 2.25012 21.4069 2.25012 19.75Z" fill="currentColor" />
    <path d="M19.0001 1.25C20.5189 1.25 21.7501 2.48122 21.7501 4V16C21.7501 17.5188 20.5189 18.75 19.0001 18.75H9.00012C7.48134 18.75 6.25012 17.5188 6.25012 16V4C6.25012 2.48122 7.48134 1.25 9.00012 1.25H19.0001ZM14.0001 6C13.4478 6 13.0001 6.44772 13.0001 7V8.99512H11.005C10.4527 8.99512 10.005 9.44283 10.005 9.99512C10.0051 10.5473 10.4528 10.9951 11.005 10.9951H13.0001V13C13.0001 13.5523 13.4478 14 14.0001 14C14.5524 13.9999 15.0001 13.5522 15.0001 13V10.9951H17.005C17.5573 10.9951 18.0049 10.5473 18.005 9.99512C18.005 9.44283 17.5573 8.99512 17.005 8.99512H15.0001V7C15.0001 6.44775 14.5524 6.00006 14.0001 6Z" fill="currentColor" />
</svg>