<svg xmlns="http://www.w3.org/2000/svg" width="24" height="24" viewBox="0 0 24 24" fill="none">
    <path d="M12.0001 1.25C17.9372 1.25 22.7501 6.06294 22.7501 12C22.7501 17.9371 17.9372 22.75 12.0001 22.75C6.06306 22.75 1.25012 17.9371 1.25012 12C1.25012 6.06294 6.06306 1.25 12.0001 1.25ZM12.0001 7C10.5067 7.00003 9.16482 7.65604 8.25012 8.69238C7.88493 9.1063 7.92443 9.73803 8.33801 10.1035C8.75207 10.469 9.38465 10.4297 9.75012 10.0156C10.3013 9.39134 11.1044 9.00003 12.0001 9C13.657 9 15.0001 10.3431 15.0001 12C15.0001 13.6569 13.657 15 12.0001 15C11.1044 15 10.3013 14.6087 9.75012 13.9844C9.38465 13.5704 8.75207 13.531 8.33801 13.8965C7.92443 14.262 7.88493 14.8937 8.25012 15.3076C9.16482 16.344 10.5067 17 12.0001 17C14.7615 17 17.0001 14.7614 17.0001 12C17.0001 9.23858 14.7615 7 12.0001 7Z" fill="currentColor" />
</svg>