<svg xmlns="http://www.w3.org/2000/svg" width="24" height="24" viewBox="0 0 24 24" fill="none">
    <path d="M1.875 19.625V5.625C1.875 5.07272 2.32272 4.625 2.875 4.625C3.42728 4.625 3.875 5.07272 3.875 5.625V19.625C3.875 20.1773 4.32272 20.625 4.875 20.625H16.875C17.4273 20.625 17.875 21.0727 17.875 21.625C17.875 22.1773 17.4273 22.625 16.875 22.625H4.875C3.21815 22.625 1.875 21.2819 1.875 19.625Z" fill="currentColor" />
    <path d="M21.625 15.625C21.625 17.1438 20.3938 18.375 18.875 18.375H8.875C7.35622 18.375 6.125 17.1438 6.125 15.625V3.625C6.125 2.10622 7.35622 0.875 8.875 0.875H18.875C20.3938 0.875 21.625 2.10622 21.625 3.625V15.625ZM17.082 6.41797C16.6915 6.02744 16.0585 6.02744 15.668 6.41797L13.875 8.21094L12.082 6.41797C11.6915 6.02744 11.0585 6.02744 10.668 6.41797C10.2774 6.80849 10.2774 7.44151 10.668 7.83203L12.4609 9.625L10.668 11.418C10.2774 11.8085 10.2774 12.4415 10.668 12.832C11.0585 13.2226 11.6915 13.2226 12.082 12.832L13.875 11.0391L15.668 12.832C16.0585 13.2226 16.6915 13.2226 17.082 12.832C17.4726 12.4415 17.4726 11.8085 17.082 11.418L15.2891 9.625L17.082 7.83203C17.4726 7.44151 17.4726 6.80849 17.082 6.41797Z" fill="currentColor" />
</svg>