<svg xmlns="http://www.w3.org/2000/svg" width="24" height="24" viewBox="0 0 24 24" fill="none">
    <path d="M13.75 6.74988C13.75 5.64531 12.8546 4.74988 11.75 4.74988H3.75C3.19772 4.74988 2.75 4.30216 2.75 3.74988C2.75 3.19759 3.19772 2.74988 3.75 2.74988H11.75C13.9591 2.74988 15.75 4.54074 15.75 6.74988V17.3358L19.043 14.0428C19.4335 13.6523 20.0665 13.6523 20.457 14.0428C20.8476 14.4334 20.8476 15.0664 20.457 15.4569L15.457 20.4569C15.2695 20.6444 15.0152 20.7499 14.75 20.7499C14.4848 20.7499 14.2305 20.6444 14.043 20.4569L9.04297 15.4569C8.65244 15.0664 8.65244 14.4334 9.04297 14.0428C9.43349 13.6523 10.0665 13.6523 10.457 14.0428L13.75 17.3358V6.74988Z" fill="currentColor" />
</svg>