<svg xmlns="http://www.w3.org/2000/svg" width="24" height="24" viewBox="0 0 24 24" fill="none">
    <path d="M7.74999 6.75C7.74999 4.54086 9.54085 2.75 11.75 2.75H19.75C20.3023 2.75 20.75 3.19772 20.75 3.75C20.75 4.30228 20.3023 4.75 19.75 4.75H11.75C10.6454 4.75 9.74999 5.64543 9.74999 6.75V17.3359L13.043 14.043C13.4335 13.6524 14.0665 13.6524 14.457 14.043C14.8475 14.4335 14.8475 15.0665 14.457 15.457L9.45702 20.457C9.06649 20.8476 8.43348 20.8476 8.04295 20.457L3.04295 15.457C2.65243 15.0665 2.65243 14.4335 3.04295 14.043C3.43348 13.6524 4.06649 13.6524 4.45702 14.043L7.74999 17.3359V6.75Z" fill="currentColor" />
</svg>