<svg xmlns="http://www.w3.org/2000/svg" width="24" height="24" viewBox="0 0 24 24" fill="none">
    <path d="M13.75 16.75V6.16406L10.457 9.45703C10.0665 9.84756 9.43349 9.84756 9.04297 9.45703C8.65244 9.06651 8.65244 8.43349 9.04297 8.04297L14.043 3.04297L14.1162 2.97656C14.2942 2.83073 14.5179 2.75 14.75 2.75C15.0152 2.75 15.2695 2.85543 15.457 3.04297L20.457 8.04297C20.8476 8.43349 20.8476 9.06651 20.457 9.45703C20.0665 9.84756 19.4335 9.84756 19.043 9.45703L15.75 6.16406V16.75C15.75 18.9591 13.9591 20.75 11.75 20.75H3.75C3.19772 20.75 2.75 20.3023 2.75 19.75C2.75 19.1977 3.19772 18.75 3.75 18.75H11.75C12.8546 18.75 13.75 17.8546 13.75 16.75Z" fill="currentColor" />
</svg>