<svg xmlns="http://www.w3.org/2000/svg" width="24" height="24" viewBox="0 0 24 24" fill="none">
    <path d="M2.75 19.75V11.75C2.75 9.54091 4.54086 7.75005 6.75 7.75005H17.3359L14.043 4.45708C13.6524 4.06655 13.6524 3.43354 14.043 3.04301C14.4335 2.65249 15.0665 2.65249 15.457 3.04301L20.457 8.04301C20.8476 8.43354 20.8476 9.06655 20.457 9.45708L15.457 14.4571C15.0665 14.8476 14.4335 14.8476 14.043 14.4571C13.6524 14.0666 13.6524 13.4335 14.043 13.043L17.3359 9.75005H6.75C5.64543 9.75005 4.75 10.6455 4.75 11.75V19.75C4.75 20.3023 4.30228 20.75 3.75 20.75C3.19772 20.75 2.75 20.3023 2.75 19.75Z" fill="currentColor" />
</svg>