<svg xmlns="http://www.w3.org/2000/svg" width="24" height="24" viewBox="0 0 24 24" fill="none">
    <path d="M18.75 19.75V11.75C18.75 10.6455 17.8546 9.75005 16.75 9.75005H6.16405L9.45702 13.043C9.84754 13.4335 9.84754 14.0666 9.45702 14.4571C9.06649 14.8476 8.43348 14.8476 8.04295 14.4571L3.04295 9.45708C2.65243 9.06655 2.65243 8.43354 3.04295 8.04302L8.04295 3.04301C8.43348 2.65249 9.06649 2.65249 9.45702 3.04301C9.84754 3.43354 9.84754 4.06655 9.45702 4.45708L6.16405 7.75005H16.75C18.9591 7.75005 20.75 9.54091 20.75 11.75V19.75C20.75 20.3023 20.3023 20.75 19.75 20.75C19.1977 20.75 18.75 20.3023 18.75 19.75Z" fill="currentColor" />
</svg>