<svg xmlns="http://www.w3.org/2000/svg" width="24" height="24" viewBox="0 0 24 24" fill="none">
    <path d="M20.0001 3.25C21.5188 3.25 22.7501 4.48122 22.7501 6V9.5C22.7501 9.91421 22.4143 10.25 22.0001 10.25C21.0336 10.25 20.2501 11.0335 20.2501 12C20.2501 12.9665 21.0336 13.75 22.0001 13.75C22.4143 13.75 22.7501 14.0858 22.7501 14.5V18C22.7501 19.5188 21.5188 20.75 20.0001 20.75H4.00006C2.48128 20.75 1.25006 19.5188 1.25006 18V14.5C1.25006 14.0858 1.58585 13.75 2.00006 13.75C2.96656 13.75 3.75006 12.9665 3.75006 12C3.75006 11.0335 2.96656 10.25 2.00006 10.25C1.58585 10.25 1.25006 9.91421 1.25006 9.5V6C1.25006 4.48122 2.48128 3.25 4.00006 3.25H20.0001ZM15.7071 8.29297C15.3166 7.90244 14.6836 7.90244 14.293 8.29297L8.29303 14.293C7.90251 14.6835 7.90251 15.3165 8.29303 15.707C8.68356 16.0975 9.31659 16.0975 9.70709 15.707L15.7071 9.70703C16.0976 9.31653 16.0975 8.6835 15.7071 8.29297ZM15.0001 14C14.4478 14 14.0001 14.4477 14.0001 15C14.0001 15.5523 14.4478 16 15.0001 16C15.5523 16 16.0001 15.5523 16.0001 15C16.0001 14.4477 15.5523 14 15.0001 14ZM9.00006 8C8.44777 8 8.00006 8.44772 8.00006 9C8.00006 9.55228 8.44778 10 9.00006 10C9.55234 10 10.0001 9.55229 10.0001 9C10.0001 8.44772 9.55234 8 9.00006 8Z" fill="currentColor" />
</svg>