<svg xmlns="http://www.w3.org/2000/svg" width="24" height="24" viewBox="0 0 24 24" fill="none">
    <path d="M15.129 15.125C17.2002 15.1251 18.88 16.8038 18.88 18.875C18.88 20.9462 17.2002 22.6249 15.129 22.625H5.12605C3.05472 22.625 1.37508 20.9463 1.37508 18.875C1.37508 16.8037 3.05472 15.125 5.12605 15.125H15.129ZM5.62508 17.875C5.07279 17.875 4.62508 18.3227 4.62508 18.875C4.62508 19.4273 5.07279 19.875 5.62508 19.875C6.17736 19.875 6.62508 19.4273 6.62508 18.875C6.62508 18.3227 6.17736 17.875 5.62508 17.875ZM10.1251 17.875C9.57279 17.875 9.12508 18.3227 9.12508 18.875C9.12508 19.4273 9.57279 19.875 10.1251 19.875C10.6774 19.875 11.1251 19.4273 11.1251 18.875C11.1251 18.3227 10.6774 17.875 10.1251 17.875ZM14.6251 17.875C14.0728 17.875 13.6251 18.3227 13.6251 18.875C13.6251 19.4273 14.0728 19.875 14.6251 19.875C15.1774 19.875 15.6251 19.4273 15.6251 18.875C15.6251 18.3227 15.1774 17.875 14.6251 17.875ZM18.6759 1.125C19.8903 1.12509 20.8751 2.10976 20.8751 3.32422V9.23145C22.0289 9.55821 22.8751 10.6166 22.8751 11.875C22.8751 13.3937 21.6438 14.6249 20.1251 14.625C18.6063 14.625 17.3751 13.3938 17.3751 11.875C17.3751 11.4608 17.7109 11.125 18.1251 11.125C18.5392 11.1251 18.8751 11.4608 18.8751 11.875C18.8751 12.5654 19.4347 13.125 20.1251 13.125C20.8154 13.1249 21.3751 12.5653 21.3751 11.875C21.3751 11.1847 20.8154 10.6251 20.1251 10.625C19.7109 10.625 19.3751 10.2892 19.3751 9.875V3.32422C19.3751 2.93819 19.0619 2.62509 18.6759 2.625C18.5048 2.62504 18.3399 2.68817 18.212 2.80176L14.6524 5.96484L15.1065 6.3623C15.5948 6.78955 15.8751 7.40685 15.8751 8.05566V11.375C15.8751 12.6176 14.8677 13.625 13.6251 13.625H6.62508C5.38244 13.625 4.37508 12.6176 4.37508 11.375V5.375C4.37508 4.13236 5.38244 3.125 6.62508 3.125H10.5616C11.1065 3.12503 11.6329 3.32282 12.043 3.68164L13.5147 4.96875L17.2149 1.68066C17.6174 1.32293 18.1374 1.12504 18.6759 1.125Z" fill="currentColor" />
</svg>