<svg xmlns="http://www.w3.org/2000/svg" width="24" height="24" viewBox="0 0 24 24" fill="none">
    <path d="M20.5 1.25C21.7426 1.25 22.75 2.25736 22.75 3.5V11.1719C22.7499 11.9011 22.46 12.6006 21.9443 13.1162L12.8838 22.1768C12.5168 22.5438 12.019 22.75 11.5 22.75C10.981 22.75 10.4832 22.5438 10.1162 22.1768L1.82324 13.8838C1.45624 13.5168 1.25 13.019 1.25 12.5C1.25 11.981 1.45624 11.4832 1.82324 11.1162L10.8838 2.05566C11.3994 1.54001 12.0989 1.25008 12.8281 1.25H20.5ZM11.9766 7.5C11.4245 7.50303 10.9797 7.95286 10.9824 8.50488L10.9912 10.2754L9.49414 9.42383C9.01422 9.15116 8.4039 9.31909 8.13086 9.79883C7.85783 10.2789 8.02582 10.89 8.50586 11.1631L10.0195 12.0234L8.50293 12.9365C8.02988 13.2212 7.87764 13.8354 8.16211 14.3086C8.44679 14.7818 9.06092 14.9351 9.53418 14.6504L11.0088 13.7627L11.0186 15.5049C11.0214 16.0571 11.4722 16.5029 12.0244 16.5C12.5764 16.4969 13.0213 16.0471 13.0186 15.4951L13.0088 13.7236L14.5059 14.5752C14.9858 14.8481 15.596 14.6809 15.8691 14.2012C16.1422 13.7211 15.9742 13.11 15.4941 12.8369L13.9795 11.9756L15.4971 11.0635C15.9702 10.7789 16.1233 10.1646 15.8389 9.69141C15.5542 9.21822 14.94 9.06505 14.4668 9.34961L12.9902 10.2373L12.9824 8.49512C12.9795 7.94285 12.5288 7.4971 11.9766 7.5ZM18.5 4.5C17.9477 4.5 17.5 4.94772 17.5 5.5C17.5 6.05228 17.9477 6.5 18.5 6.5C19.0523 6.5 19.5 6.05229 19.5 5.5C19.5 4.94772 19.0523 4.5 18.5 4.5Z" fill="currentColor" />
</svg>