<svg xmlns="http://www.w3.org/2000/svg" width="24" height="24" viewBox="0 0 24 24" fill="none">
    <path d="M11.75 10.25C12.5784 10.25 13.25 10.9216 13.25 11.75C13.25 12.5784 12.5784 13.25 11.75 13.25C10.9216 13.25 10.25 12.5784 10.25 11.75C10.25 10.9216 10.9216 10.25 11.75 10.25Z" fill="currentColor" />
    <path d="M10.7512 1.74927L10.7512 2.8042C6.57961 3.26535 3.2673 6.57765 2.80615 10.7493L1.75122 10.7493C1.19894 10.7493 0.751223 11.197 0.751224 11.7493C0.751225 12.3016 1.19894 12.7493 1.75122 12.7493L2.80615 12.7493C3.2673 16.9209 6.57961 20.2332 10.7512 20.6943L10.7512 21.7493C10.7512 22.3016 11.1989 22.7493 11.7512 22.7493C12.3035 22.7493 12.7512 22.3016 12.7512 21.7493L12.7512 20.6943C16.9229 20.2332 20.2353 16.9207 20.6963 12.749L21.751 12.7493C22.3033 12.7494 22.7511 12.3018 22.7512 11.7495C22.7514 11.1972 22.3038 10.7494 21.7515 10.7493L20.6963 10.749C20.235 6.57752 16.9228 3.26534 12.7512 2.8042L12.7512 1.74927C12.7512 1.19698 12.3035 0.74927 11.7512 0.74927C11.1989 0.74927 10.7512 1.19698 10.7512 1.74927ZM10.7512 18.6784C7.68553 18.2399 5.26063 15.815 4.82211 12.7493L5.75122 12.7493C6.30351 12.7493 6.75122 12.3016 6.75122 11.7493C6.75122 11.197 6.30351 10.7493 5.75122 10.7493L4.82211 10.7493C5.26063 7.68358 7.68553 5.25867 10.7512 4.82016L10.7512 5.74927C10.7512 6.30155 11.1989 6.74927 11.7512 6.74927C12.3035 6.74927 12.7512 6.30155 12.7512 5.74927L12.7512 4.82016C15.8167 5.25864 18.2414 7.68318 18.6802 10.7485L17.7515 10.7483C17.1992 10.7482 16.7514 11.1958 16.7512 11.748C16.7511 12.3003 17.1987 12.7482 17.751 12.7483L18.6804 12.7485C18.2422 15.8146 15.8172 18.2398 12.7512 18.6784L12.7512 17.7493C12.7512 17.197 12.3035 16.7493 11.7512 16.7493C11.1989 16.7493 10.7512 17.197 10.7512 17.7493L10.7512 18.6784Z" fill="currentColor" />
</svg>