<svg xmlns="http://www.w3.org/2000/svg" width="24" height="24" viewBox="0 0 24 24" fill="none">
    <path d="M15 8.49997H19.75C20.7165 8.49997 21.5 9.28347 21.5 10.25V13.25C21.5 14.2165 20.7165 15 19.75 15H15V19.75C15 20.7165 14.2165 21.5 13.25 21.5H10.25C9.28347 21.5 8.49997 20.7165 8.49997 19.75V15H3.74997C2.78347 15 1.99997 14.2165 1.99997 13.25V10.25C1.99997 9.28347 2.78347 8.49997 3.74997 8.49997H8.49997V3.74997C8.49997 2.78347 9.28347 1.99997 10.25 1.99997H13.25C14.2165 1.99997 15 2.78347 15 3.74997V8.49997Z" fill="currentColor" />
</svg>