<svg xmlns="http://www.w3.org/2000/svg" width="24" height="24" viewBox="0 0 24 24" fill="none">
    <path d="M12 2.375C12.5904 2.37499 13.1304 2.70835 13.3945 3.23633L16.084 8.61523C16.158 8.76258 16.352 8.79972 16.4746 8.68945L20.292 5.25293C20.5624 5.00955 20.9135 4.875 21.2773 4.875L21.4277 4.88281C22.1704 4.95817 22.75 5.58511 22.75 6.34766V6.50195C22.75 6.65314 22.729 6.80384 22.6875 6.94922L19.9287 16.6055C19.7141 17.3566 19.0273 17.8748 18.2461 17.875H5.75391C4.97273 17.8748 4.2859 17.3566 4.07129 16.6055L1.3125 6.94922C1.27097 6.80385 1.25 6.65314 1.25 6.50195V6.34766C1.25 5.53433 1.90933 4.87501 2.72266 4.875L2.8584 4.88086C3.12801 4.9058 3.38544 5.0052 3.60254 5.16699L3.70801 5.25293L7.52539 8.68945C7.64804 8.79973 7.84203 8.76258 7.91602 8.61523L10.6055 3.23633C10.8696 2.70839 11.4097 2.37505 12 2.375ZM12 11.875C11.4477 11.875 11 12.3227 11 12.875C11 13.4273 11.4477 13.875 12 13.875C12.5523 13.875 13 13.4273 13 12.875C13 12.3227 12.5523 11.875 12 11.875Z" fill="currentColor" />
    <path d="M19 19.875C19.5523 19.875 20 20.3227 20 20.875C20 21.4273 19.5523 21.875 19 21.875H5C4.44772 21.875 4 21.4273 4 20.875C4 20.3227 4.44772 19.875 5 19.875H19Z" fill="currentColor" />
</svg>