<svg xmlns="http://www.w3.org/2000/svg" width="24" height="24" viewBox="0 0 24 24" fill="none">
    <path d="M6 15.25C6.9665 15.25 7.75 16.0335 7.75 17V17.5C7.75 17.9142 7.41421 18.25 7 18.25C6.58579 18.25 6.25 17.9142 6.25 17.5V17C6.25 16.8619 6.13807 16.75 6 16.75H4C3.86193 16.75 3.75 16.8619 3.75 17V21C3.75 21.1381 3.86193 21.25 4 21.25H6C6.13807 21.25 6.25 21.1381 6.25 21V20.5C6.25 20.0858 6.58579 19.75 7 19.75C7.41421 19.75 7.75 20.0858 7.75 20.5V21C7.75 21.9665 6.9665 22.75 6 22.75H4C3.0335 22.75 2.25 21.9665 2.25 21V17C2.25 16.0335 3.0335 15.25 4 15.25H6ZM14 15.25C14.4142 15.25 14.75 15.5858 14.75 16C14.75 16.4142 14.4142 16.75 14 16.75H11C10.8619 16.75 10.75 16.8619 10.75 17V18C10.75 18.1381 10.8619 18.25 11 18.25H13C13.9665 18.25 14.75 19.0335 14.75 20V21C14.75 21.9665 13.9665 22.75 13 22.75H10C9.58579 22.75 9.25 22.4142 9.25 22C9.25 21.5858 9.58579 21.25 10 21.25H13C13.1381 21.25 13.25 21.1381 13.25 21V20C13.25 19.8619 13.1381 19.75 13 19.75H11C10.0335 19.75 9.25 18.9665 9.25 18V17C9.25 16.0335 10.0335 15.25 11 15.25H14ZM21 15.25C21.4142 15.25 21.75 15.5858 21.75 16C21.75 16.4142 21.4142 16.75 21 16.75H18C17.8619 16.75 17.75 16.8619 17.75 17V18C17.75 18.1381 17.8619 18.25 18 18.25H20C20.9665 18.25 21.75 19.0335 21.75 20V21C21.75 21.9665 20.9665 22.75 20 22.75H17C16.5858 22.75 16.25 22.4142 16.25 22C16.25 21.5858 16.5858 21.25 17 21.25H20C20.1381 21.25 20.25 21.1381 20.25 21V20C20.25 19.8619 20.1381 19.75 20 19.75H18C17.0335 19.75 16.25 18.9665 16.25 18V17C16.25 16.0335 17.0335 15.25 18 15.25H21ZM12.9688 1.25781C13.2259 1.2581 13.4733 1.35842 13.6553 1.53809L20.4648 8.26074C20.6475 8.44112 20.75 8.6861 20.75 8.94141V12.7881C20.75 13.0431 20.6472 13.2884 20.4648 13.4688C20.2826 13.6489 20.035 13.75 19.7773 13.75H4.22266C3.68571 13.75 3.25 13.3192 3.25 12.7881V4.13477C3.25019 2.54027 4.55794 1.24823 6.16992 1.25L12.9688 1.25781ZM12.5664 7.84082C12.5665 8.66916 13.238 9.34082 14.0664 9.34082H18.8066L12.5664 3.18066V7.84082Z" fill="currentColor" />
</svg>