<svg xmlns="http://www.w3.org/2000/svg" width="24" height="24" viewBox="0 0 24 24" fill="none">
    <path d="M19.5 7.0752C19.4999 7.93108 18.8061 8.62489 17.9502 8.625H5.5498C4.69392 8.62489 4.00011 7.93108 4 7.0752C4 5.99824 4.87324 5.125 5.9502 5.125H17.5498C18.6268 5.125 19.5 5.99824 19.5 7.0752Z" fill="currentColor" />
    <path d="M16.75 0.875C17.3023 0.875 17.75 1.32272 17.75 1.875C17.75 2.42728 17.3023 2.875 16.75 2.875H14.5313L13.7197 6.11719C13.5858 6.65291 13.0435 6.97852 12.5078 6.84473C11.9721 6.7108 11.6465 6.16853 11.7803 5.63281L12.5908 2.38965C12.8135 1.4995 13.6136 0.875 14.5313 0.875H16.75Z" fill="currentColor" />
    <path d="M18.4296 9.83425C18.2741 9.86103 18.1142 9.87499 17.9511 9.875H16.9212H6.58068H5.55072C5.3876 9.87499 5.22774 9.86103 5.07227 9.83425L5.86127 20.0859C5.9715 21.5187 7.1665 22.625 8.60346 22.625H14.8984C16.3353 22.625 17.5303 21.5187 17.6406 20.0859L18.4296 9.83425Z" fill="currentColor" />
</svg>