<svg xmlns="http://www.w3.org/2000/svg" width="24" height="24" viewBox="0 0 24 24" fill="none">
    <path d="M6.84857 3.7959C6.74489 2.91458 5.99769 2.25 5.11029 2.25H2.99994C2.03344 2.25 1.24994 3.0335 1.24994 4V20C1.24994 20.9665 2.03344 21.75 2.99994 21.75H6.99994C7.96644 21.75 8.74994 20.9665 8.74994 20C8.74994 19.9707 8.74848 19.9412 8.74506 19.9121L6.84857 3.7959Z" fill="currentColor" />
    <path d="M19.2497 10C20.0385 10 20.6641 10.1538 21.1979 10.4121C21.7114 10.6606 22.0997 10.9893 22.3903 11.2314C22.8145 11.585 22.8718 12.2164 22.5182 12.6406C22.1646 13.0648 21.5333 13.1221 21.109 12.7686C20.7998 12.5109 20.5882 12.3394 20.3268 12.2129C20.0856 12.0962 19.7609 12 19.2497 12C18.7698 12 18.4493 12.0932 18.1979 12.2139C17.9252 12.3448 17.6972 12.5232 17.3747 12.7812C17.0722 13.0232 16.6752 13.3448 16.1667 13.5889C15.6368 13.8432 15.0198 14 14.2497 14C13.4609 14 12.8352 13.8462 12.3014 13.5879C11.788 13.3394 11.3996 13.0107 11.109 12.7686C10.7998 12.5109 10.5882 12.3394 10.3268 12.2129C10.0856 12.0962 9.76087 12 9.24966 12C8.56708 12 8.18036 12.1873 7.82193 12.4375C7.36909 12.7536 6.74549 12.6433 6.42935 12.1904C6.1132 11.7376 6.22455 11.114 6.6774 10.7979C7.30584 10.3591 8.08419 10 9.24966 10C10.0385 10 10.6641 10.1538 11.1979 10.4121C11.7114 10.6606 12.0997 10.9893 12.3903 11.2314C12.6995 11.4891 12.9112 11.6606 13.1725 11.7871C13.4138 11.9038 13.7385 12 14.2497 12C14.7295 12 15.05 11.9068 15.3014 11.7861C15.5741 11.6552 15.8022 11.4768 16.1247 11.2188C16.4271 10.9768 16.8241 10.6552 17.3327 10.4111C17.8625 10.1568 18.4796 10 19.2497 10Z" fill="currentColor" />
    <path d="M19.2495 16C20.0383 16 20.664 16.1538 21.1978 16.4121C21.7112 16.6606 22.0996 16.9893 22.3902 17.2314C22.8144 17.585 22.8716 18.2164 22.5181 18.6406C22.1645 19.0648 21.5332 19.1221 21.1089 18.7686C20.7997 18.5109 20.588 18.3394 20.3267 18.2129C20.0854 18.0962 19.7607 18 19.2495 18C18.7697 18 18.4492 18.0932 18.1978 18.2139C17.9251 18.3448 17.697 18.5232 17.3745 18.7812C17.0721 19.0232 16.6751 19.3448 16.1665 19.5889C15.6367 19.8432 15.0196 20 14.2495 20C13.4608 20 12.8351 19.8462 12.3013 19.5879C11.7878 19.3394 11.3995 19.0107 11.1089 18.7686C10.7997 18.5109 10.588 18.3394 10.3267 18.2129C10.0854 18.0962 9.76075 18 9.24954 18C8.76367 18 8.4407 18.0953 8.18704 18.2188C7.69048 18.4605 7.09187 18.2544 6.85012 17.7578C6.60845 17.2613 6.8155 16.6626 7.31204 16.4209C7.84582 16.1611 8.46879 16 9.24954 16C10.0383 16 10.664 16.1538 11.1978 16.4121C11.7112 16.6606 12.0996 16.9893 12.3902 17.2314C12.6994 17.4891 12.911 17.6606 13.1724 17.7871C13.4136 17.9038 13.7383 18 14.2495 18C14.7294 18 15.0499 17.9068 15.3013 17.7861C15.574 17.6552 15.802 17.4768 16.1245 17.2188C16.427 16.9768 16.824 16.6552 17.3325 16.4111C17.8624 16.1568 18.4794 16 19.2495 16Z" fill="currentColor" />
</svg>