<svg xmlns="http://www.w3.org/2000/svg" width="24" height="24" viewBox="0 0 24 24" fill="none">
    <path d="M16.6054 13.0532C16.8524 12.5592 17.4532 12.3589 17.9472 12.6059C18.4412 12.8529 18.6415 13.4537 18.3945 13.9477L17.1181 16.5004H19.4999C19.8465 16.5004 20.1683 16.6802 20.3505 16.975C20.5326 17.2698 20.5494 17.6378 20.3945 17.9477L18.3945 21.9477C18.1475 22.4417 17.5467 22.642 17.0527 22.395C16.5587 22.148 16.3584 21.5471 16.6054 21.0532L17.8818 18.5004H15.4999C15.1534 18.5004 14.8316 18.3206 14.6494 18.0258C14.4673 17.731 14.4505 17.3631 14.6054 17.0532L16.6054 13.0532Z" fill="currentColor" />
    <path fill-rule="evenodd" clip-rule="evenodd" d="M13.9181 15.6327C13.2371 15.702 12.5193 15.7412 11.7619 15.7499L11.7504 15.7501C9.18201 15.7501 7.17253 15.3861 5.47837 14.7424C4.45417 14.3533 3.56372 13.8688 2.74997 13.3225V18.7505C2.74997 19.5534 3.18746 20.1985 3.71524 20.6665C4.24419 21.1354 4.95253 21.5121 5.74199 21.8081C7.3283 22.403 9.45266 22.7505 11.75 22.7505C13.0627 22.7505 14.3189 22.637 15.4506 22.4288C15.181 21.8328 15.1721 21.1249 15.4873 20.4943L15.8593 19.7502H15.5C14.7202 19.7502 13.9959 19.3461 13.5859 18.6828C13.1762 18.0196 13.1388 17.1916 13.4873 16.4943L13.9181 15.6327Z" fill="currentColor" />
    <path fill-rule="evenodd" clip-rule="evenodd" d="M20.75 4.75012V10.5167L20.7404 10.5268C20.2561 11.0453 19.715 11.5106 19.0984 11.9158C18.93 11.746 18.7315 11.6003 18.5058 11.4874C17.3945 10.932 16.0429 11.3829 15.4873 12.4943L15.0024 13.4641C14.0371 13.6377 12.9579 13.7354 11.7447 13.7496C9.37241 13.7491 7.61275 13.4135 6.18872 12.8725C4.86692 12.3703 3.79066 11.6747 2.74997 10.8353V4.75012C2.74997 3.94723 3.18746 3.30206 3.71524 2.83413C4.24419 2.36517 4.95253 1.98852 5.74199 1.69247C7.3283 1.09761 9.45266 0.750122 11.75 0.750122C14.0473 0.750122 16.1716 1.09761 17.7579 1.69247C18.5474 1.98852 19.2558 2.36517 19.7847 2.83413C20.3125 3.30206 20.75 3.94723 20.75 4.75012ZM5.04206 4.33065C4.76019 4.58055 4.74997 4.72459 4.74997 4.75012C4.74997 4.77566 4.76019 4.9197 5.04206 5.1696C5.32275 5.41847 5.78599 5.68827 6.44424 5.93511C7.75337 6.42604 9.629 6.75012 11.75 6.75012C13.8709 6.75012 15.7466 6.42604 17.0557 5.93511C17.714 5.68827 18.1772 5.41847 18.4579 5.1696C18.7397 4.9197 18.75 4.77566 18.75 4.75012C18.75 4.72459 18.7397 4.58055 18.4579 4.33065C18.1772 4.08178 17.714 3.81198 17.0557 3.56513C15.7466 3.07421 13.8709 2.75012 11.75 2.75012C9.629 2.75012 7.75337 3.07421 6.44424 3.56513C5.78599 3.81198 5.32275 4.08178 5.04206 4.33065Z" fill="currentColor" />
</svg>