<svg xmlns="http://www.w3.org/2000/svg" width="24" height="24" viewBox="0 0 24 24" fill="none">
    <path d="M19.75 17.2499C19.75 15.593 18.4069 14.2499 16.75 14.2499C15.8386 14.2499 15.2047 14.6862 14.7432 15.2499H15.75C16.3023 15.2499 16.75 15.6976 16.75 16.2499C16.75 16.8022 16.3023 17.2499 15.75 17.2499H12.75C12.1977 17.2499 11.75 16.8022 11.75 16.2499V12.7499C11.75 12.1976 12.1977 11.7499 12.75 11.7499C13.3023 11.7499 13.75 12.1976 13.75 12.7499V13.3993C14.4578 12.759 15.43 12.2499 16.75 12.2499C19.5114 12.2499 21.75 14.4885 21.75 17.2499C21.75 20.0113 19.5114 22.2499 16.75 22.2499C15.2565 22.2499 13.9147 21.5939 13 20.5575C12.6347 20.1436 12.6742 19.5119 13.0879 19.1464C13.502 18.7809 14.1345 18.8202 14.5 19.2343C15.0512 19.8586 15.8543 20.2499 16.75 20.2499C18.4069 20.2499 19.75 18.9067 19.75 17.2499Z" fill="currentColor" />
    <path fill-rule="evenodd" clip-rule="evenodd" d="M19.75 4.74988V10.5165L19.7405 10.5265C19.4638 10.8228 19.1685 11.1017 18.8513 11.3619C18.1946 11.1275 17.4872 10.9999 16.75 10.9999C15.913 10.9999 15.1875 11.1607 14.5605 11.4188C14.1509 10.8626 13.4938 10.4999 12.75 10.4999C11.5074 10.4999 10.5 11.5072 10.5 12.7499V13.7481C8.25074 13.7253 6.56337 13.3945 5.18875 12.8722C3.86695 12.37 2.79069 11.6744 1.75 10.835L1.75 4.74988C1.75 3.94698 2.18749 3.30181 2.71527 2.83388C3.24422 2.36492 3.95256 1.98828 4.74202 1.69223C6.32833 1.09736 8.45269 0.749878 10.75 0.749878C13.0473 0.749878 15.1717 1.09736 16.758 1.69223C17.5474 1.98828 18.2558 2.36492 18.7847 2.83388C19.3125 3.30181 19.75 3.94698 19.75 4.74988ZM3.75 4.74988C3.75 4.72434 3.76022 4.5803 4.04209 4.3304C4.32279 4.08153 4.78602 3.81173 5.44427 3.56489C6.7534 3.07396 8.62903 2.74988 10.75 2.74988C12.871 2.74988 14.7466 3.07396 16.0557 3.56489C16.714 3.81173 17.1772 4.08153 17.4579 4.3304C17.7398 4.5803 17.75 4.72434 17.75 4.74988C17.75 4.77541 17.7398 4.91945 17.4579 5.16935C17.1772 5.41822 16.714 5.68802 16.0557 5.93487C14.7466 6.42579 12.871 6.74988 10.75 6.74988C8.62903 6.74988 6.7534 6.42579 5.44427 5.93487C4.78602 5.68802 4.32279 5.41822 4.04209 5.16935C3.76022 4.91945 3.75 4.77541 3.75 4.74988Z" fill="currentColor" />
    <path fill-rule="evenodd" clip-rule="evenodd" d="M10.5 15.7486C8.0508 15.7257 6.1171 15.3648 4.4784 14.7422C3.4542 14.353 2.56375 13.8686 1.75 13.3223L1.75 18.7502C1.75 19.5531 2.18749 20.1983 2.71527 20.6662C3.24422 21.1352 3.95256 21.5118 4.74202 21.8079C6.32833 22.4027 8.45269 22.7502 10.75 22.7502C11.6996 22.7502 12.6196 22.6909 13.4843 22.5792C12.9524 22.2526 12.4734 21.8491 12.0635 21.3847C11.3001 20.5197 11.3227 19.2334 12.0752 18.3954C11.1625 18.1086 10.5 17.2573 10.5 16.2499V15.7486Z" fill="currentColor" />
</svg>