<svg xmlns="http://www.w3.org/2000/svg" width="24" height="24" viewBox="0 0 24 24" fill="none">
    <path d="M18.75 16.75C18.75 15.6454 17.8546 14.75 16.75 14.75C15.6455 14.75 14.75 15.6454 14.75 16.75C14.75 17.8546 15.6455 18.75 16.75 18.75C17.8546 18.75 18.75 17.8546 18.75 16.75ZM20.75 16.75C20.75 17.4917 20.5472 18.1858 20.1953 18.7812L21.4571 20.043C21.8476 20.4335 21.8476 21.0665 21.4571 21.457C21.0665 21.8476 20.4335 21.8476 20.043 21.457L18.7813 20.1953C18.1858 20.5471 17.4918 20.75 16.75 20.75C14.5409 20.75 12.75 18.9591 12.75 16.75C12.75 14.5409 14.5409 12.75 16.75 12.75C18.9592 12.75 20.75 14.5409 20.75 16.75Z" fill="currentColor" />
    <path fill-rule="evenodd" clip-rule="evenodd" d="M19.75 4.75V10.5166L19.7405 10.5266C19.3221 10.9746 18.8613 11.3829 18.346 11.747C17.8427 11.5866 17.3065 11.5 16.75 11.5C15.0042 11.5 13.4573 12.3522 12.5028 13.6633C11.95 13.7132 11.3649 13.7423 10.7448 13.7495C8.37247 13.749 6.61281 13.4134 5.18878 12.8723C3.86699 12.3701 2.79072 11.6745 1.75003 10.8351V4.75C1.75003 3.94711 2.18752 3.30194 2.7153 2.83401C3.24425 2.36504 3.95259 1.9884 4.74205 1.69235C6.32836 1.09749 8.45272 0.75 10.75 0.75C13.0473 0.75 15.1717 1.09749 16.758 1.69235C17.5475 1.9884 18.2558 2.36504 18.7848 2.83401C19.3125 3.30194 19.75 3.94711 19.75 4.75ZM4.04212 4.33052C3.76025 4.58042 3.75003 4.72447 3.75003 4.75C3.75003 4.77553 3.76025 4.91958 4.04212 5.16948C4.32282 5.41834 4.78605 5.68815 5.4443 5.93499C6.75343 6.42591 8.62906 6.75 10.75 6.75C12.871 6.75 14.7466 6.42591 16.0558 5.93499C16.714 5.68815 17.1772 5.41834 17.4579 5.16948C17.7398 4.91958 17.75 4.77553 17.75 4.75C17.75 4.72447 17.7398 4.58042 17.4579 4.33052C17.1772 4.08166 16.714 3.81185 16.0558 3.56501C14.7466 3.07409 12.871 2.75 10.75 2.75C8.62906 2.75 6.75343 3.07409 5.4443 3.56501C4.78605 3.81185 4.32282 4.08166 4.04212 4.33052Z" fill="currentColor" />
    <path fill-rule="evenodd" clip-rule="evenodd" d="M11.5996 15.7271C11.3259 15.7389 11.0467 15.7465 10.762 15.7498L10.7505 15.7499C8.18207 15.7499 6.17259 15.386 4.47843 14.7423C3.45423 14.3532 2.56378 13.8687 1.75003 13.3224V18.7503C1.75003 19.5532 2.18752 20.1984 2.7153 20.6663C3.24425 21.1353 3.95259 21.5119 4.74205 21.808C6.32836 22.4029 8.45272 22.7503 10.75 22.7503C12.8186 22.7503 14.7469 22.4686 16.2685 21.9782C13.5947 21.7351 11.5 19.4872 11.5 16.75C11.5 16.4 11.5343 16.0579 11.5996 15.7271Z" fill="currentColor" />
</svg>