<svg xmlns="http://www.w3.org/2000/svg" width="24" height="24" viewBox="0 0 24 24" fill="none">
    <path d="M19 2.25C20.5188 2.25 21.75 3.48122 21.75 5V11.25H2.25V5C2.25 3.48122 3.48122 2.25 5 2.25H19ZM7 5.75C6.44771 5.75 6 6.19772 6 6.75C6 7.30228 6.44772 7.75 7 7.75C7.55228 7.75 8 7.30229 8 6.75C8 6.19772 7.55228 5.75 7 5.75ZM11 5.75C10.4477 5.75 10 6.19772 10 6.75C10 7.30228 10.4477 7.75 11 7.75H17C17.5523 7.75 18 7.30228 18 6.75C18 6.19772 17.5523 5.75 17 5.75H11Z" fill="currentColor" />
    <path d="M21.75 19C21.75 20.5188 20.5188 21.75 19 21.75H5C3.48122 21.75 2.25 20.5188 2.25 19V12.75H21.75V19ZM7 16.25C6.44771 16.25 6 16.6977 6 17.25C6 17.8023 6.44772 18.25 7 18.25C7.55228 18.25 8 17.8023 8 17.25C8 16.6977 7.55228 16.25 7 16.25ZM11 16.25C10.4477 16.25 10 16.6977 10 17.25C10 17.8023 10.4477 18.25 11 18.25H17C17.5523 18.25 18 17.8023 18 17.25C18 16.6977 17.5523 16.25 17 16.25H11Z" fill="currentColor" />
</svg>