<svg xmlns="http://www.w3.org/2000/svg" width="24" height="24" viewBox="0 0 24 24" fill="none">
    <path d="M21.5 5.74994C21.9142 5.74994 22.25 6.08573 22.25 6.49994V12.9843C21.2351 11.7678 19.6986 11 18.001 10.9999C15.0004 10.9999 12.501 13.3966 12.501 16.4345L12.5098 16.7587C12.5926 18.2594 13.2513 19.4666 14.2949 20.4394L14.7227 20.8222C14.9556 21.0371 15.2383 21.3162 15.5117 21.6074C15.7361 21.8462 15.9277 22.0681 16.0742 22.2499H4.5C2.98133 22.2498 1.75 21.0186 1.75 19.4999V6.49994C1.75 6.08581 2.0859 5.75007 2.5 5.74994H21.5Z" fill="currentColor" />
    <path d="M2.14059 7.06668C2.5719 7.37032 3.18327 7.28814 3.50672 6.88316L5.85003 3.9504C6.03439 3.71957 6.32354 3.58336 6.63081 3.58336H17.3692C17.6765 3.58336 17.9656 3.71957 18.15 3.9504L20.4933 6.88316C20.8167 7.28814 21.4281 7.37032 21.8594 7.06668C22.2907 6.76294 22.3782 6.18884 22.0548 5.78382L19.7125 2.85017C19.1594 2.15767 18.291 1.74994 17.3692 1.74994H6.63081C5.70899 1.74994 4.8406 2.15767 4.28751 2.85017L1.94516 5.78382C1.6218 6.18884 1.70932 6.76294 2.14059 7.06668Z" fill="currentColor" />
    <path d="M18 12.2499C20.3337 12.2499 22.25 14.1103 22.25 16.4345C22.2499 17.7701 21.6906 18.8108 20.6768 19.6835C20.0922 20.1868 19.0443 21.2912 18.6221 21.9189C18.4804 22.1293 18.2419 22.2539 17.9883 22.2499C17.7344 22.2459 17.4992 22.1134 17.3643 21.8984C16.9755 21.2791 15.9215 20.1985 15.3232 19.6835C14.3094 18.8108 13.7501 17.7701 13.75 16.4345C13.75 14.1103 15.6663 12.2499 18 12.2499ZM17.9932 14.9999C17.1685 15.0001 16.5 15.6716 16.5 16.4999C16.5 17.3283 17.1685 17.9998 17.9932 17.9999H18.0068L18.1602 17.9931C18.913 17.9161 19.5 17.2764 19.5 16.4999C19.5 15.7235 18.9129 15.0848 18.1602 15.0078L18.0068 14.9999H17.9932Z" fill="currentColor" />
</svg>