<svg xmlns="http://www.w3.org/2000/svg" width="24" height="24" viewBox="0 0 24 24" fill="none">
    <path d="M12.3027 0.855903C11.7293 1.14263 10.9739 1.9186 10.7911 3.17223C9.74513 3.56141 9 4.5689 9 5.75043C9 7.26922 10.2312 8.50043 11.75 8.50043C13.2688 8.50043 14.5 7.26922 14.5 5.75043C14.5 4.61288 13.8093 3.63664 12.8244 3.21823C12.8649 3.0862 12.9174 2.98059 12.9697 2.8979C13.0744 2.73249 13.1774 2.65941 13.1954 2.64665C13.197 2.64583 13.1982 2.64466 13.1954 2.64665C13.6894 2.39966 13.8915 1.79715 13.6445 1.30317C13.3975 0.80919 12.7967 0.608914 12.3027 0.855903Z" fill="currentColor" />
    <path d="M2.51546 15.7503C2.05321 16.3149 1.75 16.985 1.75 17.7498C1.75 18.6273 2.15412 19.3881 2.73242 19.9959C3.30593 20.5985 4.08892 21.0962 4.97949 21.492C6.76345 22.2849 9.15829 22.7498 11.75 22.7498C14.3417 22.7498 16.7365 22.2849 18.5205 21.492C19.4111 21.0962 20.1941 20.5985 20.7676 19.9959C21.3459 19.3881 21.75 18.6273 21.75 17.7498C21.75 17.4862 21.7134 17.2281 21.6436 16.9793C21.607 16.8491 21.5463 16.7322 21.4676 16.6321C21.4889 16.5079 21.5 16.3801 21.5 16.2498V11.7498C21.5 8.75385 19.028 6.38669 15.7399 5.46318C15.7466 5.55786 15.75 5.65344 15.75 5.74982C15.75 6.17461 15.6838 6.58395 15.5611 6.96805C15.0458 8.58147 13.5343 9.74982 11.75 9.74982C9.93943 9.74982 8.40982 8.54687 7.91682 6.89661C7.80829 6.53333 7.75 6.14838 7.75 5.74982C7.75 5.63013 7.75526 5.51167 7.76555 5.39465C6.46826 5.6661 5.31266 6.06931 4.38574 6.57892C3.06478 7.30522 2 8.37542 2 9.74982C2.00013 10.4275 2.26566 11.0369 2.68244 11.5581C2.1276 12.1608 1.75 12.8963 1.75 13.7498C1.75 14.5128 2.05554 15.1876 2.51546 15.7503ZM4.57826 14.9681L4.54852 14.9453C4.40747 14.8357 4.28522 14.7258 4.18164 14.617C3.84945 14.2679 3.75 13.9767 3.75 13.7498C3.75 13.5148 3.86212 13.1985 4.23028 12.8319C4.4974 12.9867 4.78216 13.1306 5.08105 13.2635C6.65465 13.9629 8.72725 14.4038 11 14.4842V16.7354C8.92998 16.6557 7.10854 16.25 5.79199 15.6649C5.29646 15.4446 4.89239 15.2075 4.57826 14.9681ZM3.75 17.7498C3.75 17.5563 3.82601 17.3077 4.05836 17.0213C4.34803 17.1917 4.6567 17.3485 4.97949 17.492C6.72266 18.2667 9.04908 18.7284 11.5725 18.7491C11.9845 19.2098 12.5834 19.4998 13.25 19.4998C14.0418 19.4998 14.738 19.0906 15.139 18.4723C16.0412 18.3185 16.8878 18.1033 17.6531 17.8346C18.0607 18.2454 18.6257 18.4998 19.25 18.4998C19.3102 18.4998 19.3699 18.4974 19.429 18.4928C19.3953 18.5333 19.3586 18.5747 19.3184 18.617C18.9811 18.9714 18.446 19.3369 17.708 19.6649C16.2346 20.3197 14.1289 20.7498 11.75 20.7498C9.37114 20.7498 7.26539 20.3197 5.79199 19.6649C5.05403 19.3369 4.51891 18.9714 4.18164 18.617C3.84945 18.2679 3.75 17.9767 3.75 17.7498ZM17 15.9447C16.5427 16.1055 16.0403 16.2471 15.5 16.3649V14.7498C15.5 14.3356 15.8358 13.9998 16.25 13.9998C16.6642 13.9998 17 14.3356 17 14.7498V15.9447Z" fill="currentColor" />
</svg>