<svg xmlns="http://www.w3.org/2000/svg" width="24" height="24" viewBox="0 0 24 24" fill="none">
    <path d="M15 1.25C16.5188 1.25 17.75 2.48122 17.75 4V6.00781C16.1079 6.08887 14.6794 6.96235 13.8291 8.25L7.39746 8.25C6.88668 8.25037 6.40433 8.47353 6.07422 8.85547L5.94238 9.0293L5.29395 10.002C4.87142 10.6357 4.90753 11.4704 5.38281 12.0654L5.38379 12.0664L6.86914 13.9229C7.43409 14.6285 8.44817 14.7912 9.20605 14.2861L9.20703 14.2852L9.62988 14.002L10.1602 14.3555C10.7484 14.7475 11.5139 14.7467 12.1006 14.3564L12.1016 14.3555L13.0098 13.75L13.8291 13.75C14.6794 15.0376 16.1079 15.9101 17.75 15.9912L17.75 20C17.75 21.5188 16.5188 22.75 15 22.75L5 22.75C3.48122 22.75 2.25 21.5188 2.25 20L2.25 4C2.25 2.48122 3.48122 1.25 5 1.25L15 1.25ZM10 18C9.44771 18 9 18.4477 9 19C9 19.5523 9.44772 20 10 20C10.5523 20 11 19.5523 11 19C11 18.4477 10.5523 18 10 18Z" fill="currentColor" />
    <path fill-rule="evenodd" clip-rule="evenodd" d="M18 7.25C20.071 7.25004 21.75 8.92896 21.75 11C21.75 13.071 20.071 14.75 18 14.75C16.4625 14.75 15.1423 13.8241 14.5635 12.5H12.7822C12.6836 12.5001 12.5869 12.5293 12.5049 12.584L11.4082 13.3154C11.2403 13.4272 11.0213 13.4273 10.8535 13.3154L9.90818 12.6846C9.74029 12.5728 9.52132 12.5727 9.35349 12.6846L8.51267 13.2461C8.29689 13.3899 8.0067 13.3441 7.84471 13.1416L6.35935 11.2852C6.22355 11.1151 6.21325 10.8764 6.33396 10.6953L6.9824 9.72266C7.07508 9.58365 7.23136 9.5001 7.39842 9.5L14.5635 9.5C15.1423 8.17587 16.4625 7.25 18 7.25ZM18 9.75C17.3096 9.75 16.75 10.3096 16.75 11C16.75 11.6904 17.3096 12.25 18 12.25C18.6903 12.25 19.25 11.6904 19.25 11C19.25 10.3097 18.6903 9.75001 18 9.75Z" fill="currentColor" />
</svg>