<svg xmlns="http://www.w3.org/2000/svg" width="24" height="24" viewBox="0 0 24 24" fill="none">
    <path d="M12.0001 1.25C12.8393 1.25 13.644 1.5834 14.2374 2.17676L21.8234 9.7627C22.4167 10.3561 22.7501 11.1608 22.7501 12C22.7501 12.8392 22.4167 13.6439 21.8234 14.2373L14.2374 21.8232C13.644 22.4166 12.8393 22.75 12.0001 22.75C11.161 22.75 10.3562 22.4166 9.76282 21.8232L2.17688 14.2373C1.58352 13.6439 1.25012 12.8392 1.25012 12C1.25012 11.1608 1.58352 10.3561 2.17688 9.7627L9.76282 2.17676C10.3562 1.5834 11.161 1.25 12.0001 1.25ZM15.7072 8.29297C15.3166 7.90252 14.6836 7.90247 14.2931 8.29297L8.29309 14.293C7.90259 14.6835 7.90264 15.3165 8.29309 15.707C8.68361 16.0976 9.31663 16.0976 9.70715 15.707L15.7072 9.70703C16.0977 9.31651 16.0977 8.68349 15.7072 8.29297ZM15.0001 14C14.4478 14 14.0001 14.4477 14.0001 15C14.0001 15.5523 14.4478 16 15.0001 16C15.5524 16 16.0001 15.5523 16.0001 15C16.0001 14.4477 15.5524 14 15.0001 14ZM9.00012 8C8.44795 8.00013 8.00012 8.4478 8.00012 9C8.00012 9.5522 8.44795 9.99987 9.00012 10C9.5524 10 10.0001 9.55229 10.0001 9C10.0001 8.44772 9.55241 8 9.00012 8Z" fill="currentColor" />
</svg>