<svg xmlns="http://www.w3.org/2000/svg" width="24" height="24" viewBox="0 0 24 24" fill="none">
    <path d="M12 1.25C12.8392 1.25 13.6439 1.5834 14.2373 2.17676L21.8232 9.7627C22.4166 10.3561 22.75 11.1608 22.75 12C22.75 12.8392 22.4166 13.6439 21.8232 14.2373L14.2373 21.8232C13.6439 22.4166 12.8392 22.75 12 22.75C11.1608 22.75 10.3561 22.4166 9.7627 21.8232L2.17676 14.2373C1.5834 13.6439 1.25 12.8392 1.25 12C1.25 11.1608 1.5834 10.3561 2.17676 9.7627L9.7627 2.17676C10.3561 1.5834 11.1608 1.25 12 1.25ZM8 11C7.44772 11 7 11.4477 7 12C7 12.5523 7.44772 13 8 13H16C16.5523 13 17 12.5523 17 12C17 11.4477 16.5523 11 16 11H8Z" fill="currentColor" />
</svg>