<svg xmlns="http://www.w3.org/2000/svg" width="24" height="24" viewBox="0 0 24 24" fill="none">
    <path d="M10.5147 1.74885C11.6802 0.583392 13.57 0.583393 14.7354 1.74885L21.751 8.76447C22.9165 9.92992 22.9165 11.8197 21.751 12.9852L19.6544 15.0819C19.2639 15.4723 18.6308 15.4722 18.2403 15.0819C17.8498 14.6913 17.8498 14.0583 18.2403 13.6678L20.337 11.5711C20.7214 11.1867 20.7214 10.5629 20.337 10.1785L13.3213 3.16291C12.9369 2.7785 12.3132 2.7785 11.9288 3.16291L9.83209 5.25959C9.44156 5.65011 8.80855 5.65011 8.41802 5.25959C8.02766 4.86905 8.02756 4.236 8.41802 3.84553L10.5147 1.74885Z" fill="currentColor" />
    <path d="M16.3751 19.8748C16.3751 21.3935 15.1438 22.6248 13.6251 22.6248H3.62506C2.10628 22.6248 0.875061 21.3935 0.875061 19.8748V9.87476C0.875061 8.35597 2.10628 7.12476 3.62506 7.12476H13.6251C15.1438 7.12476 16.3751 8.35597 16.3751 9.87476V19.8748ZM7.62506 12.3748C7.62506 11.5463 6.95349 10.8748 6.12506 10.8748C5.29663 10.8748 4.62506 11.5463 4.62506 12.3748C4.62506 13.2032 5.29663 13.8748 6.12506 13.8748C6.95349 13.8748 7.62506 13.2032 7.62506 12.3748ZM12.6251 17.3748C12.6251 16.5463 11.9535 15.8748 11.1251 15.8748C10.2966 15.8748 9.62506 16.5463 9.62506 17.3748C9.62506 18.2032 10.2966 18.8748 11.1251 18.8748C11.9535 18.8748 12.6251 18.2032 12.6251 17.3748Z" fill="currentColor" />
</svg>