<svg xmlns="http://www.w3.org/2000/svg" width="24" height="24" viewBox="0 0 24 24" fill="none">
    <path d="M20.5 22.0605C21.7426 22.0605 22.75 21.0532 22.75 19.8105V14.8105C22.75 13.5679 21.7426 12.5605 20.5 12.5605H15.5C14.2574 12.5605 13.25 13.5679 13.25 14.8105V19.8105C13.25 21.0532 14.2574 22.0605 15.5 22.0605H20.5Z" fill="currentColor" />
    <path d="M16.75 8.81055C16.75 8.71601 16.7123 8.62545 16.6455 8.55859L12.252 4.16504C12.1851 4.0982 12.0945 4.06055 12 4.06055C11.9055 4.06055 11.8149 4.0982 11.748 4.16504L7.35449 8.55859C7.28765 8.62545 7.25 8.71601 7.25 8.81055C7.25 8.90508 7.28765 8.99564 7.35449 9.0625L11.748 13.4561C11.8149 13.5229 11.9055 13.5605 12 13.5605C12.0945 13.5605 12.1851 13.5229 12.252 13.4561L16.6455 9.0625C16.7123 8.99564 16.75 8.90508 16.75 8.81055ZM18.25 8.81055C18.25 9.30291 18.0542 9.77489 17.7061 10.123L13.3125 14.5166C12.9643 14.8647 12.4924 15.0605 12 15.0605C11.5076 15.0605 11.0357 14.8647 10.6875 14.5166L6.29395 10.123C5.9458 9.77489 5.75 9.30291 5.75 8.81055C5.75 8.31819 5.9458 7.84621 6.29395 7.49805L10.6875 3.10449C11.0357 2.75635 11.5076 2.56055 12 2.56055C12.4924 2.56055 12.9643 2.75635 13.3125 3.10449L17.7061 7.49805C18.0542 7.84621 18.25 8.31818 18.25 8.81055Z" fill="currentColor" />
    <path d="M8.5 22.0605C9.74264 22.0605 10.75 21.0532 10.75 19.8105V14.8105C10.75 13.5679 9.74264 12.5605 8.5 12.5605H3.5C2.25736 12.5605 1.25 13.5679 1.25 14.8105V19.8105C1.25 21.0532 2.25736 22.0605 3.5 22.0605H8.5Z" fill="currentColor" />
    <path d="M12 7.81055C12.5523 7.81055 13 8.25826 13 8.81055C13 9.36283 12.5523 9.81055 12 9.81055C11.4477 9.81055 11 9.36283 11 8.81055C11 8.25827 11.4477 7.81055 12 7.81055Z" fill="currentColor" />
</svg>