<svg xmlns="http://www.w3.org/2000/svg" width="24" height="24" viewBox="0 0 24 24" fill="none">
    <path d="M20 5.25C21.5188 5.25 22.75 6.48122 22.75 8V17C22.75 18.5188 21.5188 19.75 20 19.75V20.75C20 21.3023 19.5523 21.75 19 21.75C18.4477 21.75 18 21.3023 18 20.75V19.75H6V20.75C6 21.3023 5.55228 21.75 5 21.75C4.44772 21.75 4 21.3023 4 20.75V19.75C2.48122 19.75 1.25 18.5188 1.25 17V8C1.25 6.48122 2.48122 5.25 4 5.25H20ZM5 9.25C4.58579 9.25 4.25 9.58579 4.25 10V15L4.25391 15.0771C4.29253 15.4551 4.61184 15.75 5 15.75C5.38816 15.75 5.70747 15.4551 5.74609 15.0771L5.75 15V10C5.75 9.58579 5.41421 9.25 5 9.25ZM11 9.25C10.6118 9.25 10.2925 9.54488 10.2539 9.92285L10.25 10V15C10.25 15.1989 10.3291 15.3896 10.4697 15.5303C10.6104 15.6709 10.8011 15.75 11 15.75H13.5C13.9142 15.75 14.25 15.4142 14.25 15V10C14.25 9.61183 13.9551 9.29253 13.5771 9.25391L13.5 9.25H11ZM16.5 9.25C16.1118 9.25 15.7925 9.54489 15.7539 9.92285L15.75 10V15C15.75 15.1989 15.8291 15.3896 15.9697 15.5303C16.1104 15.6709 16.3011 15.75 16.5 15.75H19C19.4142 15.75 19.75 15.4142 19.75 15V10C19.75 9.61184 19.4551 9.29253 19.0771 9.25391L19 9.25H16.5ZM7.99023 13.25C7.57603 13.25 7.24023 13.5858 7.24023 14C7.24023 14.4142 7.57603 14.75 7.99023 14.75H7.99902L8.07617 14.7461C8.45424 14.7076 8.74902 14.3882 8.74902 14C8.74902 13.6118 8.45424 13.2924 8.07617 13.2539L7.99902 13.25H7.99023ZM12.75 14.25H11.75V10.75H12.75V14.25ZM18.25 14.25H17.25V10.75H18.25V14.25ZM7.99902 10.25C7.58489 10.2501 7.24902 10.5858 7.24902 11C7.24902 11.4142 7.58489 11.7499 7.99902 11.75H8.00781L8.08496 11.7461C8.4631 11.7076 8.75781 11.3883 8.75781 11C8.75781 10.6117 8.4631 10.2924 8.08496 10.2539L8.00781 10.25H7.99902ZM14.918 2.25C15.8863 2.25004 16.7464 2.8695 17.0527 3.78809L17.123 4H6.875L6.94531 3.78809L7.00977 3.62012C7.36008 2.79494 8.17212 2.25003 9.08008 2.25H14.918Z" fill="currentColor" />
</svg>