<svg xmlns="http://www.w3.org/2000/svg" width="24" height="24" viewBox="0 0 24 24" fill="none">
    <path d="M12 1.25C17.9371 1.25 22.75 6.06294 22.75 12C22.75 17.9371 17.9371 22.75 12 22.75C6.06294 22.75 1.25 17.9371 1.25 12C1.25 6.06294 6.06294 1.25 12 1.25ZM7.66797 14.499C7.39132 14.0213 6.77969 13.8583 6.30176 14.1348C5.82399 14.4114 5.66103 15.023 5.9375 15.501C6.55194 16.563 7.43701 17.4481 8.49902 18.0625C8.97694 18.3389 9.58859 18.176 9.86523 17.6982C10.1417 17.2203 9.97877 16.6087 9.50098 16.332C8.74158 15.8927 8.10727 15.2584 7.66797 14.499ZM12 9.25C10.4812 9.25 9.25 10.4812 9.25 12C9.25 13.5188 10.4812 14.75 12 14.75C13.5188 14.75 14.75 13.5188 14.75 12C14.75 10.4812 13.5188 9.25 12 9.25ZM15.501 5.9375C15.023 5.66102 14.4114 5.82395 14.1348 6.30176C13.8584 6.77968 14.0213 7.39134 14.499 7.66797C15.2584 8.10727 15.8927 8.74157 16.332 9.50098C16.6087 9.97872 17.2203 10.1417 17.6982 9.86523C18.176 9.58863 18.3389 8.97697 18.0625 8.49902C17.4481 7.437 16.563 6.55194 15.501 5.9375Z" fill="currentColor" />
</svg>