<svg xmlns="http://www.w3.org/2000/svg" width="24" height="24" viewBox="0 0 24 24" fill="none">
    <path d="M11.5 0.75C13.0044 0.75 14.3419 1.4515 15.2109 2.54004C16.5951 2.38482 18.0369 2.83496 19.1006 3.89844C20.1641 4.96193 20.6129 6.40327 20.458 7.78711C21.5478 8.65616 22.25 9.99472 22.25 11.5L22.2402 11.8135C22.1504 13.1902 21.471 14.4029 20.458 15.2109C20.6135 16.5955 20.1646 18.0376 19.1006 19.1016C18.0368 20.1652 16.5952 20.6143 15.2109 20.459C14.3419 21.5479 13.0047 22.25 11.5 22.25C9.99517 22.25 8.65634 21.5485 7.78711 20.459C6.40351 20.6137 4.96273 20.1647 3.89941 19.1016C2.83572 18.0379 2.38474 16.5957 2.54004 15.2109C1.52772 14.4028 0.849552 13.1896 0.759766 11.8135L0.75 11.5C0.75 9.99544 1.45089 8.65635 2.54004 7.78711C2.38541 6.40307 2.8362 4.96165 3.89941 3.89844C4.96266 2.83541 6.40357 2.38542 7.78711 2.54004C8.65635 1.45089 9.99544 0.75 11.5 0.75ZM15.207 7.79297C14.8165 7.40244 14.1835 7.40244 13.793 7.79297L7.79297 13.793C7.40244 14.1835 7.40244 14.8165 7.79297 15.207C8.1835 15.5975 8.81653 15.5975 9.20703 15.207L15.207 9.20703C15.5975 8.81653 15.5975 8.1835 15.207 7.79297ZM14.25 13.25C13.6977 13.25 13.25 13.6977 13.25 14.25C13.25 14.8023 13.6977 15.25 14.25 15.25C14.8023 15.25 15.25 14.8023 15.25 14.25C15.25 13.6977 14.8023 13.25 14.25 13.25ZM8.75 7.75C8.19771 7.75 7.75 8.19772 7.75 8.75C7.75 9.30229 8.19772 9.75 8.75 9.75C9.30228 9.75 9.75 9.30229 9.75 8.75C9.75 8.19772 9.30228 7.75 8.75 7.75Z" fill="currentColor" />
</svg>