<svg xmlns="http://www.w3.org/2000/svg" width="24" height="24" viewBox="0 0 24 24" fill="none">
    <path fill-rule="evenodd" clip-rule="evenodd" d="M10.75 2.75V3.80341C9.44777 3.94382 8.25406 4.35594 7.31055 4.97852C6.13786 5.75241 5.25 6.93443 5.25 8.37988C5.25003 9.00576 5.36758 9.61856 5.66211 10.1777C5.95944 10.7421 6.4086 11.1961 6.98438 11.543C7.90964 12.1004 9.17129 12.3864 10.75 12.467V17.7035C9.58556 17.5923 8.62861 17.2902 7.94434 16.8877C7.07252 16.3748 6.75 15.7799 6.75 15.25C6.75 14.6977 6.30228 14.25 5.75 14.25C5.19772 14.25 4.75 14.6977 4.75 15.25C4.75 16.7201 5.6777 17.8753 6.93066 18.6123C7.9574 19.2162 9.27464 19.594 10.75 19.711V20.75C10.75 21.3023 11.1977 21.75 11.75 21.75C12.3023 21.75 12.75 21.3023 12.75 20.75V19.7215C14.186 19.6366 15.5041 19.3551 16.5439 18.7842C17.8918 18.0442 18.75 16.8191 18.75 15.1201C18.75 14.3431 18.5999 13.6209 18.2549 12.9834C17.9072 12.3411 17.3921 11.842 16.7539 11.4697C15.7248 10.8694 14.3591 10.5904 12.75 10.5138V5.81817C13.6794 5.94713 14.4853 6.24988 15.0879 6.64746C15.9058 7.18724 16.25 7.82074 16.25 8.37988C16.2501 8.93205 16.6978 9.37988 17.25 9.37988C17.8022 9.37988 18.2499 8.93205 18.25 8.37988C18.25 6.93443 17.3621 5.75241 16.1895 4.97852C15.2459 4.35594 14.0522 3.94382 12.75 3.80341V2.75C12.75 2.19772 12.3023 1.75 11.75 1.75C11.1977 1.75 10.75 2.19772 10.75 2.75ZM10.75 10.4639V5.81817C9.82062 5.94713 9.01472 6.24988 8.41211 6.64746C7.59419 7.18724 7.25 7.82074 7.25 8.37988C7.25003 8.75596 7.32005 9.03317 7.43164 9.24512C7.54051 9.4518 7.71676 9.64991 8.01562 9.83008C8.53485 10.1429 9.39514 10.385 10.75 10.4639ZM12.75 17.7174C13.9532 17.6352 14.9099 17.3997 15.5811 17.0312C16.3582 16.6046 16.75 16.0137 16.75 15.1201C16.75 14.6011 16.6499 14.2215 16.4951 13.9355C16.3428 13.6544 16.1077 13.4082 15.7461 13.1973C15.1212 12.8327 14.1519 12.5921 12.75 12.5166V17.7174Z" fill="currentColor" />
</svg>