<svg xmlns="http://www.w3.org/2000/svg" width="24" height="24" viewBox="0 0 24 24" fill="none">
    <path d="M1 11.75C1 10.4842 1.22054 9.26866 1.62305 8.13965C1.69649 7.93383 1.85563 7.76991 2.05957 7.69141C2.26363 7.61297 2.49209 7.6278 2.68457 7.73145C3.00196 7.90253 3.36406 8 3.75 8C4.99264 8 6 6.99264 6 5.75C6 5.33579 6.33579 5 6.75 5C7.99264 5 9 3.99264 9 2.75C9 2.5544 8.97148 2.35971 8.91992 2.16699C8.867 1.96865 8.89773 1.75714 9.00488 1.58203C9.11212 1.40687 9.28648 1.28329 9.4873 1.24023C10.2165 1.08395 10.9734 1 11.75 1C17.6871 1 22.5 5.81294 22.5 11.75C22.5 17.6871 17.6871 22.5 11.75 22.5C5.81294 22.5 1 17.6871 1 11.75ZM11.75 15.5C13.8211 15.5 15.5 13.8211 15.5 11.75C15.5 9.67893 13.8211 8 11.75 8C9.67893 8 8 9.67893 8 11.75C8 13.8211 9.67893 15.5 11.75 15.5Z" fill="currentColor" />
</svg>