<svg xmlns="http://www.w3.org/2000/svg" width="24" height="24" viewBox="0 0 24 24" fill="none">
    <path d="M4 4.625V19.625H2.75C2.19772 19.625 1.75 20.0727 1.75 20.625C1.75 21.1773 2.19772 21.625 2.75 21.625H20.75C21.3023 21.625 21.75 21.1773 21.75 20.625C21.75 20.0727 21.3023 19.625 20.75 19.625H19.5V4.625C19.5 3.10622 18.2688 1.875 16.75 1.875H6.75C5.23122 1.875 4 3.10622 4 4.625ZM9.25 10.625C9.80228 10.625 10.25 11.0727 10.25 11.625C10.25 12.1773 9.80228 12.625 9.25 12.625H7.75C7.19772 12.625 6.75 12.1773 6.75 11.625C6.75 11.0727 7.19772 10.625 7.75 10.625H9.25Z" fill="currentColor" />
</svg>