<svg xmlns="http://www.w3.org/2000/svg" width="24" height="24" viewBox="0 0 24 24" fill="none">
    <path d="M6.12402 12.7594C6.67044 12.6815 7.1765 13.0617 7.25488 13.608C7.33307 14.1546 6.95375 14.6615 6.40723 14.7399C5.18812 14.9142 4.25019 15.9646 4.25 17.232C4.25013 18.6224 5.37721 19.7495 6.76758 19.7496C8.03515 19.7496 9.08537 18.8116 9.25977 17.5924C9.33829 17.0461 9.84513 16.6666 10.3916 16.7447C10.938 16.8229 11.318 17.3292 11.2402 17.8756C10.9269 20.0659 9.04443 21.7496 6.76758 21.7496C4.27264 21.7495 2.25013 19.727 2.25 17.232C2.25019 14.9554 3.93382 13.0727 6.12402 12.7594ZM17.876 12.7594C20.0662 13.0727 21.7498 14.9554 21.75 17.232C21.7499 19.727 19.7274 21.7495 17.2324 21.7496C14.9557 21.7494 13.0731 20.0658 12.7598 17.8756C12.6821 17.3293 13.0621 16.8231 13.6084 16.7447C14.1549 16.6666 14.6617 17.0461 14.7402 17.5924C14.9146 18.8115 15.965 19.7494 17.2324 19.7496C18.6228 19.7495 19.7499 18.6224 19.75 17.232C19.7498 15.9646 18.8119 14.9142 17.5928 14.7399C17.0464 14.6613 16.667 14.1545 16.7451 13.608C16.8235 13.0618 17.3297 12.6817 17.876 12.7594ZM16.293 6.29259C16.6835 5.90206 17.3165 5.90206 17.707 6.29259C18.0975 6.68312 18.0975 7.31615 17.707 7.70665L15.75 9.66368V14.3356L17.707 16.2926C18.0975 16.6831 18.0975 17.3162 17.707 17.7066C17.3165 18.0971 16.6835 18.0971 16.293 17.7066L14.3359 15.7496H9.66406L7.70703 17.7066C7.31653 18.0971 6.6835 18.0971 6.29297 17.7066C5.90244 17.3161 5.90244 16.6831 6.29297 16.2926L8.25 14.3356V9.66368L6.29297 7.70665C5.90244 7.31613 5.90244 6.68311 6.29297 6.29259C6.68349 5.90206 7.31651 5.90206 7.70703 6.29259L9.66406 8.24962H14.3359L16.293 6.29259ZM6.76758 2.24962C9.04443 2.24962 10.9269 3.93331 11.2402 6.12364C11.3182 6.6702 10.9382 7.1763 10.3916 7.2545C9.84499 7.33269 9.33812 6.9534 9.25977 6.40685C9.08537 5.18761 8.03515 4.24962 6.76758 4.24962C5.37721 4.24975 4.25013 5.37683 4.25 6.7672C4.25 8.03476 5.188 9.08499 6.40723 9.25938C6.95378 9.33773 7.33307 9.8446 7.25488 10.3912C7.17668 10.9378 6.67058 11.3178 6.12402 11.2399C3.93369 10.9266 2.25 9.04405 2.25 6.7672C2.25013 4.27226 4.27264 2.24975 6.76758 2.24962ZM17.2324 2.24962C19.7274 2.24975 21.7499 4.27226 21.75 6.7672C21.75 9.04405 20.0663 10.9266 17.876 11.2399C17.3296 11.3176 16.8233 10.9377 16.7451 10.3912C16.667 9.84475 17.0464 9.33791 17.5928 9.25938C18.812 9.08499 19.75 8.03476 19.75 6.7672C19.7499 5.37683 18.6228 4.24975 17.2324 4.24962C15.965 4.2498 14.9146 5.18774 14.7402 6.40685C14.6619 6.95337 14.155 7.33269 13.6084 7.2545C13.062 7.17612 12.6819 6.67005 12.7598 6.12364C13.0731 3.93343 14.9557 2.2498 17.2324 2.24962Z" fill="currentColor" />
</svg>