<svg xmlns="http://www.w3.org/2000/svg" width="24" height="24" viewBox="0 0 24 24" fill="none">
    <path d="M2.37695 14.25C2.37695 12.785 2.88409 11.2525 3.57031 9.83106C4.26266 8.39691 5.17588 6.99876 6.07227 5.78224C6.97073 4.5629 7.86642 3.50643 8.53711 2.75587C8.87298 2.38001 9.15386 2.07889 9.35156 1.8711C9.45044 1.76718 9.52886 1.68631 9.58301 1.63087C9.60989 1.60335 9.63092 1.58215 9.64551 1.56739L9.66992 1.54298L9.74609 1.47462C10.1389 1.15427 10.7179 1.17686 11.084 1.54298H11.085V1.54396L11.1299 1.58888C11.1579 1.61734 11.1984 1.65853 11.25 1.71192C11.3536 1.81908 11.5022 1.97539 11.6865 2.17384C12.055 2.57049 12.5665 3.13865 13.1436 3.82813C13.498 4.25165 13.4421 4.88186 13.0186 5.23634C12.595 5.59081 11.9648 5.53485 11.6104 5.11134C11.137 4.54577 10.7085 4.06754 10.376 3.70509C10.2696 3.82103 10.1535 3.94893 10.0293 4.0879C9.38755 4.80605 8.533 5.81238 7.68164 6.96778C6.82806 8.12621 5.99122 9.41567 5.37109 10.7002C4.74484 11.9974 4.37695 13.2151 4.37695 14.25C4.37695 17.5637 7.06324 20.25 10.377 20.25C12.2886 20.25 13.9914 19.3574 15.0918 17.9619C15.4337 17.5283 16.0624 17.4532 16.4961 17.7949C16.9298 18.1369 17.0041 18.7665 16.6621 19.2002C15.1988 21.0559 12.927 22.25 10.377 22.25C5.95868 22.25 2.37695 18.6683 2.37695 14.25Z" fill="currentColor" />
    <path fill-rule="evenodd" clip-rule="evenodd" d="M17.4336 4.74707C17.4373 4.75099 17.4417 4.75584 17.4468 4.76148L17.4336 4.74707ZM16.3258 4.74096C16.3249 4.74196 16.3271 4.73955 16.3258 4.74096V4.74096ZM16.3071 4.76148C16.3122 4.75583 16.3221 4.74488 16.3258 4.74096L16.3071 4.76148Z" fill="currentColor" />
    <path d="M21.127 11.5654C21.127 13.9777 19.2599 16 16.877 16C14.494 16 12.627 13.9777 12.627 11.5654C12.627 10.7544 12.8929 9.91779 13.2422 9.15625C13.5955 8.38585 14.0598 7.63817 14.5127 6.99121C14.9671 6.34212 15.4202 5.78072 15.7588 5.38184C15.9285 5.18197 16.0696 5.0211 16.1699 4.91016C16.2077 4.86836 16.2399 4.83382 16.2654 4.80656L16.2881 4.78223L16.3071 4.76148L16.3258 4.74096L16.3887 4.68066C16.524 4.56461 16.697 4.5 16.877 4.5C17.0825 4.5 17.2793 4.58435 17.4209 4.7334L17.4336 4.74707L17.4468 4.76148L17.4658 4.78223L17.4885 4.80654C17.5139 4.83381 17.5462 4.86837 17.584 4.91016C17.6843 5.0211 17.8254 5.18197 17.9951 5.38184C18.3337 5.78072 18.7869 6.34212 19.2412 6.99121C19.6941 7.63817 20.1584 8.38585 20.5117 9.15625C20.861 9.91779 21.1269 10.7544 21.127 11.5654Z" fill="currentColor" />
    <path d="M6.37695 14.25C6.37695 13.6977 6.82467 13.25 7.37695 13.25C7.92924 13.25 8.37695 13.6977 8.37695 14.25C8.37695 15.3546 9.27238 16.25 10.377 16.25C10.9292 16.25 11.377 16.6977 11.377 17.25C11.377 17.8023 10.9292 18.25 10.377 18.25C8.16781 18.25 6.37695 16.4591 6.37695 14.25Z" fill="currentColor" />
</svg>