<svg xmlns="http://www.w3.org/2000/svg" width="24" height="24" viewBox="0 0 24 24" fill="none">
    <path fill-rule="evenodd" clip-rule="evenodd" d="M18.5 1.25C20.0647 1.25 21.3328 2.52578 21.333 4.09961V5C22.1474 5.21111 22.75 5.95277 22.75 6.83789V8.84961C22.75 9.8989 21.9045 10.7499 20.8613 10.75H16.1387C15.0956 10.7498 14.25 9.89885 14.25 8.84961V6.83789C14.25 5.95277 14.8526 5.21111 15.667 5V4.09961C15.6672 2.5258 16.9354 1.25004 18.5 1.25ZM18.5 3.15039C17.9784 3.15045 17.5557 3.57595 17.5557 4.10059V5H19.4443V4.10059C19.4443 3.57592 19.0216 3.15039 18.5 3.15039Z" fill="currentColor" />
    <path d="M10.448 12.4886C10.8144 12.1221 11.0204 11.625 11.0204 11.1067V10.0455C11.0204 8.96599 10.1456 8.09091 9.06635 8.09091H6.89854L6.21823 5.37287C7.1717 4.54031 8.30586 3.9106 9.55487 3.55003V4.75444C9.55491 5.27276 9.76093 5.76985 10.1274 6.13636L11.3067 7.31596C11.5861 7.59546 12.0064 7.6791 12.3715 7.52783C12.7365 7.37654 12.9745 7.02023 12.9745 6.625V2.22727C12.9745 1.68754 12.5371 1.25 11.9975 1.25C6.06181 1.25 1.25 6.06294 1.25 12C1.25 17.9371 6.06181 22.75 11.9975 22.75C17.1981 22.75 21.5343 19.0564 22.5303 14.1492C22.6376 13.6203 22.2958 13.1037 21.767 12.9964C21.2383 12.889 20.7228 13.2311 20.6153 13.7599C20.5339 14.1611 20.424 14.5524 20.29 14.9318H17.7758C17.3223 14.9319 16.885 15.0896 16.5373 15.3746L16.3942 15.5044L15.4982 16.4006L14.5193 15.1771C14.1485 14.7135 13.5872 14.4432 12.9936 14.4432H12.7818C12.396 14.4432 12.0189 14.5574 11.6979 14.7715L9.44801 16.2718C8.90439 16.6342 8.57784 17.2445 8.57783 17.898V18.1213C8.57783 18.4247 8.64832 18.7242 8.78393 18.9955L9.5024 20.4338C7.46835 19.8326 5.7424 18.5169 4.61431 16.7757L6.16957 14.4432H7.68475C8.20295 14.4431 8.69992 14.2371 9.06635 13.8706L10.448 12.4886Z" fill="currentColor" />
</svg>