<svg xmlns="http://www.w3.org/2000/svg" width="24" height="24" viewBox="0 0 24 24" fill="none">
    <path d="M4.75195 9.75C5.85652 9.75 6.75195 10.6454 6.75195 11.75C6.75195 12.8546 5.85652 13.75 4.75195 13.75C3.64738 13.75 2.75195 12.8546 2.75195 11.75C2.75195 10.6454 3.64738 9.75 4.75195 9.75ZM11.752 9.75C12.8565 9.75 13.752 10.6454 13.752 11.75C13.752 12.8546 12.8565 13.75 11.752 13.75C10.6474 13.75 9.75195 12.8546 9.75195 11.75C9.75195 10.6454 10.6474 9.75 11.752 9.75ZM18.752 9.75C19.8565 9.75 20.752 10.6454 20.752 11.75C20.752 12.8546 19.8565 13.75 18.752 13.75C17.6474 13.75 16.752 12.8546 16.752 11.75C16.752 10.6454 17.6474 9.75 18.752 9.75Z" fill="currentColor" />
</svg>