<svg xmlns="http://www.w3.org/2000/svg" width="24" height="24" viewBox="0 0 24 24" fill="none">
    <path d="M2.00195 4.62488V19.6249H1.75195C1.19967 19.6249 0.751953 20.0726 0.751953 20.6249C0.751953 21.1772 1.19967 21.6249 1.75195 21.6249H14.752C15.3042 21.6249 15.752 21.1772 15.752 20.6249C15.752 20.0726 15.3042 19.6249 14.752 19.6249H14.502V13.6249H15.752C16.3042 13.6249 16.752 14.0726 16.752 14.6249V16.6249C16.752 18.2817 18.0951 19.6249 19.752 19.6249C21.4088 19.6249 22.752 18.2817 22.752 16.6249V8.03894C22.7519 7.57477 22.5905 7.12725 22.2988 6.77136L22.166 6.62488L19.459 3.91785C19.0685 3.52732 18.4354 3.52732 18.0449 3.91785C17.6544 4.30837 17.6544 4.94138 18.0449 5.33191L19.2559 6.54285C19.2537 6.56992 19.252 6.59724 19.252 6.62488V9.21082C19.252 9.74119 19.4629 10.2498 19.8379 10.6249L20.5449 11.3319C20.608 11.395 20.6782 11.4464 20.752 11.4891V16.6249C20.752 17.1772 20.3042 17.6249 19.752 17.6249C19.1997 17.6249 18.752 17.1772 18.752 16.6249V14.6249C18.752 12.968 17.4088 11.6249 15.752 11.6249H14.502V4.62488C14.502 3.10609 13.2707 1.87488 11.752 1.87488H4.75195C3.23317 1.87488 2.00195 3.10609 2.00195 4.62488ZM7.35742 6.17761C7.60441 5.68363 8.20524 5.48336 8.69922 5.73035C9.1932 5.97734 9.39347 6.57817 9.14648 7.07214L8.37012 8.62488H9.75195C10.0985 8.62488 10.4203 8.80467 10.6025 9.09949C10.7846 9.39427 10.8014 9.76223 10.6465 10.0721L9.14648 13.0721C8.8995 13.5661 8.29867 13.7664 7.80469 13.5194C7.31071 13.2724 7.11043 12.6716 7.35742 12.1776L8.13379 10.6249H6.75195C6.40538 10.6249 6.08357 10.4451 5.90137 10.1503C5.71929 9.85549 5.70247 9.48752 5.85742 9.17761L7.35742 6.17761Z" fill="currentColor" />
</svg>