<svg xmlns="http://www.w3.org/2000/svg" width="24" height="24" viewBox="0 0 24 24" fill="none">
    <path d="M16 17.3516C16.5523 17.3516 17 17.7993 17 18.3516C17 18.9038 16.5523 19.3516 16 19.3516C15.4477 19.3516 15 18.9038 15 18.3516C15 17.7993 15.4477 17.3516 16 17.3516Z" fill="currentColor" />
    <path d="M16.375 1.25C18.7912 1.25 20.7499 3.21879 20.75 5.64746V18.3525L20.7441 18.5781C20.627 20.9018 18.7158 22.75 16.375 22.75H7.625C5.20884 22.75 3.25014 20.7812 3.25 18.3525V5.64746C3.25014 3.21879 5.20884 1.25 7.625 1.25H16.375ZM7.62598 15.9082C6.28362 15.9082 5.19531 17.0022 5.19531 18.3516C5.19541 19.7008 6.28368 20.7949 7.62598 20.7949H16.376C17.7182 20.7949 18.8065 19.7008 18.8066 18.3516C18.8066 17.0023 17.7183 15.9083 16.376 15.9082H7.62598ZM8 9C7.44772 9 7 9.44771 7 10C7 10.5523 7.44772 11 8 11H10C10.5523 11 11 10.5523 11 10C11 9.44772 10.5523 9 10 9H8ZM8 5C7.44772 5 7 5.44772 7 6C7 6.55228 7.44772 7 8 7H10C10.5523 7 11 6.55228 11 6C11 5.44772 10.5523 5 10 5H8Z" fill="currentColor" />
</svg>