<svg xmlns="http://www.w3.org/2000/svg" width="24" height="24" viewBox="0 0 24 24" fill="none">
    <path fill-rule="evenodd" clip-rule="evenodd" d="M16.8805 18.2925L21.0449 22.457C21.4354 22.8475 22.0685 22.8475 22.459 22.457C22.8495 22.0664 22.8495 21.4334 22.459 21.0429L2.45899 1.04289C2.06846 0.652369 1.43545 0.652369 1.04492 1.04289C0.654398 1.43342 0.654398 2.06643 1.04492 2.45696L4.90374 6.31577C4.56432 6.58225 4.25082 6.85977 3.962 7.14161C3.18638 7.89846 2.58867 8.6864 2.14453 9.37492C1.7648 9.96362 1.49326 10.4863 1.31543 10.8642C1.22652 11.0531 1.16056 11.2068 1.11621 11.3154C1.09408 11.3695 1.07716 11.4126 1.06543 11.4433C1.06139 11.4539 1.05802 11.4632 1.05522 11.4709L1.05176 11.4804L1.0459 11.497C0.987729 11.66 0.987729 11.8389 1.0459 12.0019C1.06982 12.065 1.04885 12.0137 1.04885 12.0137C1.04885 12.0137 1.05595 12.0318 1.08399 12.1025C1.10714 12.1614 1.14039 12.2454 1.18555 12.3495C1.27581 12.5577 1.41208 12.8499 1.59863 13.1982C1.9711 13.8934 2.5503 14.8208 3.37988 15.7499C5.04625 17.6162 7.73683 19.4999 11.752 19.4999C13.2215 19.4999 14.5174 19.2469 15.6525 18.8321C16.0849 18.674 16.4941 18.4925 16.8805 18.2925ZM8.48911 9.90115C8.17928 10.4467 8.00195 11.0779 8.00195 11.7499C8.00195 13.821 9.68089 15.4999 11.752 15.4999C12.424 15.4999 13.0552 15.3226 13.6007 15.0128L12.4707 13.8828L9.6191 11.0311L8.48911 9.90115Z" fill="currentColor" />
    <path d="M20.124 7.75098C18.4577 5.88467 15.7672 4 11.752 4C11.3712 4 10.7254 4.05814 10.0596 4.16504C9.3989 4.27114 8.64499 4.43699 8.07325 4.67676C8.02443 4.69726 7.97843 4.72262 7.93579 4.75219L19.552 16.3684C19.5742 16.3521 19.5956 16.3345 19.6162 16.3154C20.5194 15.4816 21.2257 14.4 21.6982 13.5566C21.9374 13.1298 22.1228 12.7522 22.249 12.4805C22.3122 12.3445 22.3613 12.2345 22.3945 12.1572C22.4077 12.1266 22.4184 12.1009 22.4266 12.0808L22.4326 12.0664L22.4434 12.041L22.4473 12.0303C22.5148 11.8623 22.5211 11.6555 22.4541 11.4873C22.4529 11.4835 22.4491 11.4717 22.4473 11.4668L22.4403 11.4489L22.4327 11.4295L22.4199 11.3975C22.3968 11.3385 22.3635 11.2545 22.3184 11.1504C22.2281 10.9423 22.0918 10.65 21.9053 10.3018C21.5329 9.60661 20.9535 8.68 20.124 7.75098Z" fill="currentColor" />
</svg>