<svg xmlns="http://www.w3.org/2000/svg" width="24" height="24" viewBox="0 0 24 24" fill="none">
    <path d="M6.25 17.75C6.25 17.1977 5.80228 16.75 5.25 16.75C4.69772 16.75 4.25 17.1977 4.25 17.75V19.75C4.25 20.3023 4.69772 20.75 5.25 20.75C5.80228 20.75 6.25 20.3023 6.25 19.75V17.75ZM8.25 19.75C8.25 21.4069 6.90685 22.75 5.25 22.75C3.59315 22.75 2.25 21.4069 2.25 19.75V17.75C2.25 16.0931 3.59315 14.75 5.25 14.75C6.90685 14.75 8.25 16.0931 8.25 17.75V19.75Z" fill="currentColor" />
    <path d="M12.803 14.8554C13.113 14.7005 13.4809 14.7173 13.7757 14.8994C14.0705 15.0816 14.2503 15.4034 14.2503 15.75V20.75H15.2503C15.8026 20.75 16.2503 21.1977 16.2503 21.75C16.2503 22.3023 15.8026 22.75 15.2503 22.75H11.2503C10.698 22.75 10.2503 22.3023 10.2503 21.75C10.2503 21.1977 10.698 20.75 11.2503 20.75H12.2503V17.3681L11.6976 17.6445C11.2036 17.8915 10.6028 17.6912 10.3558 17.1972C10.1088 16.7033 10.3091 16.1024 10.803 15.8554L12.803 14.8554Z" fill="currentColor" />
    <path fill-rule="evenodd" clip-rule="evenodd" d="M13.9697 1.25C14.2271 1.25005 14.474 1.35253 14.6562 1.53516L21.4648 8.36328C21.6475 8.54651 21.7499 8.79536 21.75 9.05469V19.8184C21.75 21.4374 20.444 22.7499 18.833 22.75H17.2637C17.4137 22.4485 17.5 22.1096 17.5 21.75C17.5 20.5919 16.6249 19.6391 15.5 19.5146V15.75C15.5 15.018 15.1442 14.3358 14.5537 13.916L14.4326 13.8359L14.3066 13.7637C13.7098 13.4461 13.0001 13.4136 12.376 13.6768L12.2441 13.7373L10.2441 14.7373C9.69882 15.01 9.31239 15.4743 9.12597 16.0078C8.46055 14.5297 6.97615 13.5 5.25 13.5C4.91076 13.5 4.58091 13.5401 4.26464 13.6152L4.25 4.18652C4.24748 2.56571 5.55419 1.2501 7.16699 1.25H13.9697ZM13.5674 7.96094C13.5674 8.78936 14.239 9.46094 15.0674 9.46094H19.8047L13.5674 3.20605V7.96094Z" fill="currentColor" />
</svg>