<svg xmlns="http://www.w3.org/2000/svg" width="24" height="24" viewBox="0 0 24 24" fill="none">
    <path d="M9.54302 15.0429C9.93354 14.6524 10.5666 14.6524 10.9571 15.0429L13.9571 18.0429C14.3476 18.4334 14.3476 19.0664 13.9571 19.457L10.9571 22.457C10.5666 22.8475 9.93354 22.8475 9.54302 22.457C9.15249 22.0664 9.15249 21.4334 9.54302 21.0429L11.836 18.7499L9.54302 16.457C9.15249 16.0664 9.15249 15.4334 9.54302 15.0429Z" fill="currentColor" />
    <path d="M5.54302 15.0429C5.93354 14.6524 6.56655 14.6524 6.95708 15.0429C7.3476 15.4334 7.3476 16.0664 6.95708 16.457L4.66411 18.7499L6.95708 21.0429C7.3476 21.4334 7.3476 22.0664 6.95708 22.457C6.56655 22.8475 5.93354 22.8475 5.54302 22.457L2.54302 19.457C2.15249 19.0664 2.15249 18.4334 2.54302 18.0429L5.54302 15.0429Z" fill="currentColor" />
    <path fill-rule="evenodd" clip-rule="evenodd" d="M13.9696 1.25C14.227 1.25 14.4739 1.35256 14.6561 1.53516L21.4647 8.36328C21.6474 8.54653 21.7498 8.7953 21.7499 9.05469V19.8184C21.7499 21.4374 20.444 22.75 18.8329 22.75H12.4325L14.8417 20.3408C15.7201 19.4623 15.7197 18.0379 14.8417 17.1592L11.8417 14.1592C10.963 13.2805 9.53871 13.2805 8.66003 14.1592C8.49097 14.3282 8.35388 14.5171 8.24987 14.7188C8.14602 14.5174 8.01034 14.328 7.84167 14.1592C7.01791 13.3354 5.71465 13.2841 4.83093 14.0049L4.66003 14.1592L4.2655 14.5527L4.24987 4.18652C4.24736 2.5658 5.55418 1.25023 7.16687 1.25H13.9696ZM13.5673 7.96094C13.5673 8.7893 14.2389 9.46083 15.0673 9.46094H19.8046L13.5673 3.20605V7.96094Z" fill="currentColor" />
</svg>