<svg xmlns="http://www.w3.org/2000/svg" width="24" height="24" viewBox="0 0 24 24" fill="none">
    <path fill-rule="evenodd" clip-rule="evenodd" d="M12.9697 1.25C13.2271 1.25005 13.474 1.35253 13.6563 1.53516L20.4648 8.36328C20.6475 8.54651 20.7499 8.79536 20.75 9.05469V19.8184C20.75 21.4374 19.444 22.7499 17.833 22.75H6.19141C4.58219 22.75 3.27708 21.4404 3.27442 19.8232L3.25 4.18652C3.24749 2.56571 4.55419 1.2501 6.167 1.25H12.9697ZM12 11C11.4477 11 11 11.4477 11 12V13.9951H9.00489C8.4526 13.9951 8.00489 14.4428 8.00489 14.9951C8.00495 15.5473 8.45264 15.9951 9.00489 15.9951H11V18C11 18.5523 11.4477 19 12 19C12.5522 18.9999 13 18.5522 13 18V15.9951H15.0049C15.5571 15.9951 16.0048 15.5473 16.0049 14.9951C16.0049 14.4428 15.5572 13.9951 15.0049 13.9951H13V12C13 11.4478 12.5522 11.0001 12 11ZM12.5674 7.96094C12.5674 8.78936 13.239 9.46094 14.0674 9.46094H18.8047L12.5674 3.20605V7.96094Z" fill="currentColor" />
</svg>