<svg xmlns="http://www.w3.org/2000/svg" width="24" height="24" viewBox="0 0 24 24" fill="none">
    <path fill-rule="evenodd" clip-rule="evenodd" d="M12.9697 1.25C13.2271 1.25005 13.474 1.35253 13.6563 1.53516L20.4648 8.36328C20.6475 8.54651 20.7499 8.79536 20.75 9.05469V19.8184C20.75 21.4374 19.444 22.7499 17.833 22.75H6.19141C4.58219 22.75 3.27708 21.4404 3.27442 19.8232L3.25 4.18652C3.24749 2.56571 4.55419 1.2501 6.167 1.25H12.9697ZM9 16.25C7.75736 16.25 6.75 17.2574 6.75 18.5C6.75 19.7426 7.75736 20.75 9 20.75C10.2426 20.75 11.25 19.7426 11.25 18.5C11.25 17.2574 10.2426 16.25 9 16.25ZM9 10C8.44772 10 8 10.4477 8 11V13C8 13.5523 8.44772 14 9 14C9.55229 14 10 13.5523 10 13V11C10 10.4477 9.55229 10 9 10ZM12.5674 7.96094C12.5674 8.78936 13.239 9.46094 14.0674 9.46094H18.8047L12.5674 3.20605V7.96094ZM9 4C8.44772 4 8 4.44772 8 5V7C8 7.55228 8.44772 8 9 8C9.55229 8 10 7.55228 10 7V5C10 4.44772 9.55229 4 9 4Z" fill="currentColor" />
</svg>