<svg xmlns="http://www.w3.org/2000/svg" width="24" height="24" viewBox="0 0 24 24" fill="none">
    <path d="M4.65909 18.8311L7.04545 20.1628V17.5631L4.65909 16.2324V18.8311ZM8.95455 17.5631V20.1628L11.3409 18.8311V16.2324L8.95455 17.5631ZM5.66957 14.604L8 15.903L10.3304 14.604L8 13.3042L5.66957 14.604ZM13.25 19.3954C13.25 19.7434 13.0618 20.064 12.7587 20.233L8.46329 22.6296C8.1752 22.7901 7.8248 22.7901 7.53671 22.6296L3.24126 20.233C2.93823 20.064 2.75 19.7434 2.75 19.3954V14.604C2.75 14.256 2.93822 13.9355 3.24126 13.7665L7.53671 11.3708L7.64764 11.3174C7.91163 11.2122 8.21123 11.2303 8.46329 11.3708L12.7587 13.7665C13.0618 13.9355 13.25 14.256 13.25 14.604V19.3954Z" fill="currentColor" />
    <path fill-rule="evenodd" clip-rule="evenodd" d="M13.4697 1.25C13.7271 1.25005 13.974 1.35253 14.1562 1.53516L20.9648 8.36328C21.1475 8.54651 21.2499 8.79536 21.25 9.05469V19.8184C21.25 21.4374 19.944 22.7499 18.333 22.75H10.8125L13.3672 21.3252C14.0667 20.935 14.5 20.1959 14.5 19.3955V14.6045C14.5 13.8043 14.0673 13.066 13.3682 12.6758L9.07226 10.2783C8.40613 9.90734 7.59484 9.90734 6.92871 10.2783L3.76171 12.0449L3.75 4.18652C3.74748 2.56571 5.05419 1.2501 6.66699 1.25H13.4697ZM13.0674 7.96094C13.0674 8.78936 13.739 9.46094 14.5674 9.46094H19.3047L13.0674 3.20605V7.96094Z" fill="currentColor" />
</svg>