<svg xmlns="http://www.w3.org/2000/svg" width="24" height="24" viewBox="0 0 24 24" fill="none">
    <path fill-rule="evenodd" clip-rule="evenodd" d="M3.02427 19.573C3.02678 21.1903 4.33211 22.5 5.94144 22.5H17.5828C19.1939 22.5 20.5 21.1875 20.5 19.5684V8.80498C20.5 8.54546 20.3973 8.2966 20.2145 8.11329L13.4064 1.28551C13.2241 1.10268 12.9771 1 12.7195 1H5.91717C4.30429 1 2.99749 2.31532 3 3.93619L3.02427 19.573ZM12.3173 2.95594L18.5543 9.21094H13.8173C12.9889 9.21094 12.3173 8.53936 12.3173 7.71094V2.95594ZM15.043 12.543C15.4335 12.1524 16.0665 12.1524 16.457 12.543C16.8476 12.9335 16.8476 13.5665 16.457 13.957L13.457 16.957C13.0665 17.3476 12.4335 17.3476 12.043 16.957L10.75 15.6641L8.45703 17.957C8.06651 18.3476 7.43349 18.3476 7.04297 17.957C6.65244 17.5665 6.65244 16.9335 7.04297 16.543L10.043 13.543L10.1191 13.4746C10.5119 13.1543 11.0909 13.1769 11.457 13.543L12.75 14.8359L15.043 12.543Z" fill="currentColor" />
</svg>