<svg xmlns="http://www.w3.org/2000/svg" width="24" height="24" viewBox="0 0 24 24" fill="none">
    <path fill-rule="evenodd" clip-rule="evenodd" d="M12.9699 1.25C13.2272 1.25005 13.4741 1.35253 13.6564 1.53516L20.465 8.36328C20.6476 8.54651 20.75 8.79536 20.7501 9.05469V19.8184C20.7501 21.4374 19.4442 22.7499 17.8331 22.75H6.19153C4.58231 22.75 3.2772 21.4404 3.27454 19.8232L3.25013 4.18652C3.24761 2.56571 4.55431 1.2501 6.16712 1.25H12.9699ZM12.7072 11.293C12.341 10.9269 11.762 10.9043 11.3693 11.2246L11.2931 11.293L8.29309 14.293C7.90265 14.6835 7.9026 15.3165 8.29309 15.707C8.6836 16.0974 9.31668 16.0974 9.70716 15.707L11.0001 14.4141V18C11.0003 18.5522 11.4479 19 12.0001 19C12.5523 19 13 18.5522 13.0001 18V14.4141L14.2931 15.707C14.6836 16.0974 15.3167 16.0974 15.7072 15.707C16.0976 15.3166 16.0975 14.6835 15.7072 14.293L12.7072 11.293ZM12.5675 7.96094C12.5675 8.78936 13.2391 9.46094 14.0675 9.46094H18.8048L12.5675 3.20605V7.96094Z" fill="currentColor" />
</svg>