<svg xmlns="http://www.w3.org/2000/svg" width="24" height="24" viewBox="0 0 24 24" fill="none">
    <path fill-rule="evenodd" clip-rule="evenodd" d="M12.9697 1.25C13.2271 1.25005 13.474 1.35253 13.6563 1.53516L20.4648 8.36328C20.6475 8.54651 20.7499 8.79536 20.75 9.05469V19.8184C20.75 21.4374 19.444 22.7499 17.833 22.75H6.19141C4.58219 22.75 3.27708 21.4404 3.27442 19.8232L3.25 4.18652C3.24749 2.56571 4.55419 1.2501 6.167 1.25H12.9697ZM12 12C11.4477 12 11 12.4477 11 13V16.5859L9.70704 15.293C9.31652 14.9025 8.6835 14.9025 8.29297 15.293C7.90245 15.6835 7.90245 16.3165 8.29297 16.707L11.293 19.707C11.6835 20.0975 12.3165 20.0975 12.707 19.707L15.707 16.707C16.0975 16.3165 16.0975 15.6835 15.707 15.293C15.3165 14.9025 14.6835 14.9025 14.293 15.293L13 16.5859V13C13 12.4477 12.5523 12 12 12ZM12.5674 7.96094C12.5674 8.78936 13.239 9.46094 14.0674 9.46094H18.8047L12.5674 3.20605V7.96094Z" fill="currentColor" />
</svg>