<svg xmlns="http://www.w3.org/2000/svg" width="24" height="24" viewBox="0 0 24 24" fill="none">
    <path d="M11.501 19.3203C11.9178 18.6892 12.25 17.9411 12.25 17.1387C12.2499 15.6051 11.1313 14.25 9.5 14.25C8.82435 14.25 8.18911 14.4555 7.5 15.0117C6.81089 14.4555 6.17565 14.25 5.5 14.25C3.86874 14.25 2.75011 15.6051 2.75 17.1387C2.75 17.9411 3.08219 18.6892 3.49902 19.3203C3.92004 19.9578 4.46792 20.5372 4.99316 21.0186C5.52145 21.5027 6.04622 21.9059 6.4375 22.1865C6.63379 22.3273 6.97089 22.5367 7.19922 22.6875C7.42271 22.7853 7.68322 22.7682 7.89453 22.6377C8.0109 22.5609 8.36621 22.3273 8.5625 22.1865C8.95378 21.9059 9.47855 21.5027 10.0068 21.0186C10.5321 20.5372 11.08 19.9578 11.501 19.3203Z" fill="currentColor" />
    <path fill-rule="evenodd" clip-rule="evenodd" d="M13.4697 1.25C13.7271 1.25005 13.974 1.35253 14.1562 1.53516L20.9648 8.36328C21.1475 8.54651 21.2499 8.79536 21.25 9.05469V19.8184C21.25 21.4374 19.944 22.7499 18.333 22.75H9.8916C10.1908 22.5157 10.5203 22.2441 10.8516 21.9404C11.4188 21.4206 12.0461 20.7626 12.5439 20.0088C13.0305 19.272 13.5 18.2821 13.5 17.1387C13.4999 15.0262 11.928 13 9.5 13C8.8028 13 8.14386 13.1611 7.5 13.5117C6.85613 13.1611 6.19719 13 5.5 13C4.85652 13 4.27355 13.1431 3.76367 13.3916L3.75 4.18652C3.74748 2.56571 5.05419 1.2501 6.66699 1.25H13.4697ZM13.0674 7.96094C13.0674 8.78936 13.739 9.46094 14.5674 9.46094H19.3047L13.0674 3.20605V7.96094Z" fill="currentColor" />
</svg>