<svg xmlns="http://www.w3.org/2000/svg" width="24" height="24" viewBox="0 0 24 24" fill="none">
    <path d="M3.25 22.75C2.97386 22.75 2.75 22.5261 2.75 22.25V20.2428C2.75 20.1102 2.80268 19.983 2.89645 19.8893L9.2958 13.4899C9.44942 13.3363 9.65776 13.25 9.875 13.25C10.0922 13.25 10.3006 13.3363 10.4542 13.4899L12.0101 15.0458C12.1637 15.1994 12.25 15.4078 12.25 15.625C12.25 15.8422 12.1637 16.0506 12.0101 16.2042L5.61073 22.6036C5.51696 22.6973 5.38979 22.75 5.25718 22.75H3.25Z" fill="currentColor" />
    <path fill-rule="evenodd" clip-rule="evenodd" d="M13.4697 1.25C13.7271 1.25005 13.974 1.35253 14.1562 1.53516L20.9648 8.36328C21.1475 8.54651 21.2499 8.79536 21.25 9.05469V19.8184C21.25 21.4374 19.944 22.7499 18.333 22.75H7.23144L12.8936 17.0879C13.2816 16.6999 13.5 16.1738 13.5 15.625C13.5 15.0762 13.2816 14.5501 12.8936 14.1621L11.3379 12.6064C10.9499 12.2184 10.4238 12 9.875 12C9.39474 12 8.93169 12.167 8.56347 12.4688L8.41211 12.6064L3.76953 17.248L3.75 4.18652C3.74748 2.56571 5.05419 1.2501 6.66699 1.25H13.4697ZM13.0674 7.96094C13.0674 8.78936 13.739 9.46094 14.5674 9.46094H19.3047L13.0674 3.20605V7.96094Z" fill="currentColor" />
</svg>