<svg xmlns="http://www.w3.org/2000/svg" width="24" height="24" viewBox="0 0 24 24" fill="none">
    <path d="M12.4962 15.9199L10.7501 17.0918V17C10.7501 16.0335 9.96662 15.25 9.00012 15.25H4.50012C3.53362 15.25 2.75012 16.0335 2.75012 17V21C2.75012 21.9665 3.53362 22.75 4.50012 22.75H9.00012C9.96662 22.75 10.7501 21.9665 10.7501 21V20.9072L12.4962 22.0801C12.5227 22.0979 12.5507 22.1137 12.5792 22.1279C12.7395 22.2081 12.9166 22.25 13.0958 22.25C13.7333 22.2499 14.25 21.7332 14.2501 21.0957V16.9043C14.25 16.3067 13.7959 15.8151 13.214 15.7559L13.0958 15.75C12.9166 15.75 12.7395 15.7919 12.5792 15.8721L12.4962 15.9199Z" fill="currentColor" />
    <path fill-rule="evenodd" clip-rule="evenodd" d="M13.4699 1.25C13.7272 1.25005 13.9741 1.35253 14.1564 1.53516L20.965 8.36328C21.1476 8.54651 21.25 8.79536 21.2501 9.05469V19.8184C21.2501 21.4374 19.9442 22.7499 18.3331 22.75H14.837C15.2469 22.319 15.5 21.7376 15.5001 21.0957V16.9043C15.4999 15.5767 14.4235 14.5002 13.0958 14.5C12.7221 14.5 12.3539 14.5873 12.0206 14.7539C11.9556 14.7864 11.8787 14.8283 11.799 14.8818L11.3722 15.1689C10.8235 14.4592 9.96661 14 9.00013 14H4.50013C4.24617 14 4.00028 14.0343 3.76477 14.0938L3.75013 4.18652C3.74761 2.56571 5.05431 1.2501 6.66712 1.25H13.4699ZM13.0675 7.96094C13.0675 8.78936 13.7391 9.46094 14.5675 9.46094H19.3048L13.0675 3.20605V7.96094Z" fill="currentColor" />
</svg>