<svg xmlns="http://www.w3.org/2000/svg" width="24" height="24" viewBox="0 0 24 24" fill="none">
    <path d="M8.95833 18.9167V20.8333C8.95833 21.8919 9.81645 22.75 10.875 22.75H11.8333C12.8919 22.75 13.75 21.8919 13.75 20.8333V17C13.75 13.8244 11.1756 11.25 8 11.25C4.82436 11.25 2.25 13.8244 2.25 17V20.8333C2.25 21.8919 3.10812 22.75 4.16667 22.75H5.125C6.18355 22.75 7.04167 21.8919 7.04167 20.8333V18.9167C7.04167 17.8581 6.18355 17 5.125 17H4.16667C4.16667 14.8829 5.88291 13.1667 8 13.1667C10.1171 13.1667 11.8333 14.8829 11.8333 17H10.875C9.81645 17 8.95833 17.8581 8.95833 18.9167Z" fill="currentColor" />
    <path fill-rule="evenodd" clip-rule="evenodd" d="M13.9697 1.25C14.2271 1.25005 14.474 1.35253 14.6562 1.53516L21.4648 8.36328C21.6475 8.54651 21.7499 8.79536 21.75 9.05469V19.8184C21.75 21.4374 20.444 22.7499 18.833 22.75H14.3496C14.7559 22.2175 15 21.5544 15 20.833V17C15 13.134 11.866 10 8 10C6.62463 10 5.34266 10.3978 4.26074 11.083L4.25 4.18652C4.24748 2.56571 5.55419 1.2501 7.16699 1.25H13.9697ZM13.5674 7.96094C13.5674 8.78936 14.239 9.46094 15.0674 9.46094H19.8047L13.5674 3.20605V7.96094Z" fill="currentColor" />
</svg>