<svg xmlns="http://www.w3.org/2000/svg" width="24" height="24" viewBox="0 0 24 24" fill="none">
    <path fill-rule="evenodd" clip-rule="evenodd" d="M12.9699 1.25C13.2272 1.25005 13.4741 1.35253 13.6564 1.53516L20.465 8.36328C20.6476 8.54651 20.75 8.79536 20.7501 9.05469V19.8184C20.7501 21.4374 19.4442 22.7499 17.8331 22.75H6.19153C4.58231 22.75 3.2772 21.4404 3.27454 19.8232L3.25013 4.18652C3.24761 2.56571 4.55431 1.2501 6.16712 1.25H12.9699ZM15.1906 12.292C14.7997 11.9019 14.1667 11.9032 13.7765 12.2939L11.9923 14.0801L10.2081 12.2939C9.818 11.9032 9.18494 11.902 8.79407 12.292C8.40327 12.6821 8.40304 13.3152 8.79309 13.7061L10.5783 15.4951L8.78431 17.2939C8.39448 17.6848 8.39554 18.3179 8.78626 18.708C9.17716 19.0976 9.81032 19.0967 10.2003 18.7061L11.9923 16.9111L13.7843 18.7061C14.1744 19.0966 14.8076 19.0978 15.1984 18.708C15.589 18.318 15.5899 17.6848 15.2003 17.2939L13.4054 15.4951L15.1915 13.7061C15.5814 13.3153 15.5811 12.6821 15.1906 12.292ZM12.5675 7.96094C12.5675 8.78936 13.2391 9.46094 14.0675 9.46094H18.8048L12.5675 3.20605V7.96094Z" fill="currentColor" />
</svg>