<svg xmlns="http://www.w3.org/2000/svg" width="24" height="24" viewBox="0 0 24 24" fill="none">
    <path d="M9.24976 16.625C10.6195 16.625 11.849 17.2159 12.7273 18.1475C13.1061 18.5493 13.0871 19.1817 12.6853 19.5605C12.2835 19.9393 11.6511 19.9212 11.2722 19.5195C10.7429 18.9581 10.0278 18.625 9.24976 18.625C8.47167 18.625 7.75662 18.9581 7.22729 19.5195C6.84843 19.9212 6.21601 19.9393 5.81421 19.5605C5.41236 19.1817 5.39338 18.5493 5.77222 18.1475C6.65047 17.2159 7.87996 16.625 9.24976 16.625ZM9.24976 12.5C11.6935 12.5 13.8953 13.5524 15.4773 15.2305C15.8562 15.6323 15.8372 16.2657 15.4353 16.6445C15.0335 17.0229 14.4009 17.0041 14.0222 16.6025C12.7891 15.2946 11.1018 14.5 9.24976 14.5C7.39772 14.5 5.7104 15.2946 4.47729 16.6025C4.09857 17.0041 3.46605 17.0229 3.06421 16.6445C2.66236 16.2657 2.64336 15.6323 3.02222 15.2305C4.60425 13.5524 6.80604 12.5 9.24976 12.5Z" fill="currentColor" />
    <path d="M9.25055 20.75C9.80283 20.75 10.2505 21.1977 10.2505 21.75C10.2505 22.3023 9.80283 22.75 9.25055 22.75C8.69826 22.75 8.25055 22.3023 8.25055 21.75C8.25055 21.1977 8.69826 20.75 9.25055 20.75Z" fill="currentColor" />
    <path fill-rule="evenodd" clip-rule="evenodd" d="M13.4697 1.25C13.7271 1.25005 13.974 1.35253 14.1562 1.53516L20.9648 8.36328C21.1475 8.54651 21.2499 8.79536 21.25 9.05469V19.8184C21.25 21.4374 19.944 22.7499 18.333 22.75H11.2646C11.4147 22.4485 11.501 22.1096 11.501 21.75C11.501 21.4826 11.4508 21.2272 11.3652 20.9893C12.107 21.2066 12.9404 21.0377 13.543 20.4697C14.2138 19.837 14.4089 18.8898 14.1162 18.0732C14.8571 18.2901 15.6894 18.122 16.292 17.5547L16.293 17.5537C17.1963 16.7018 17.2396 15.2777 16.3867 14.373C14.5868 12.4639 12.0636 11.2501 9.25 11.25C7.21413 11.25 5.33146 11.8873 3.76367 12.9619L3.75 4.18652C3.74748 2.56571 5.05419 1.2501 6.66699 1.25H13.4697ZM13.0674 7.96094C13.0674 8.78936 13.739 9.46094 14.5674 9.46094H19.3047L13.0674 3.20605V7.96094Z" fill="currentColor" />
</svg>