<svg xmlns="http://www.w3.org/2000/svg" width="24" height="24" viewBox="0 0 24 24" fill="none">
    <path fill-rule="evenodd" clip-rule="evenodd" d="M12.9697 1.25C13.2271 1.25005 13.474 1.35253 13.6563 1.53516L20.4648 8.36328C20.6475 8.54651 20.7499 8.79536 20.75 9.05469V19.8184C20.75 21.4374 19.444 22.7499 17.833 22.75H6.19141C4.58219 22.75 3.27708 21.4404 3.27442 19.8232L3.25 4.18652C3.24749 2.56571 4.55419 1.2501 6.167 1.25H12.9697ZM10.2939 11.25C9.44131 11.2501 8.75014 11.9413 8.75 12.7939V17.2061C8.75014 18.0587 9.44131 18.7499 10.2939 18.75C10.5563 18.75 10.8146 18.6831 11.0439 18.5557L14.9268 16.3984C15.4346 16.1163 15.75 15.581 15.75 15C15.75 14.419 15.4346 13.8837 14.9268 13.6016L11.0439 11.4443C10.8146 11.3169 10.5563 11.25 10.2939 11.25ZM12.5674 7.96094C12.5674 8.78936 13.239 9.46094 14.0674 9.46094H18.8047L12.5674 3.20605V7.96094Z" fill="currentColor" />
</svg>