<svg xmlns="http://www.w3.org/2000/svg" width="24" height="24" viewBox="0 0 24 24" fill="none">
    <path fill-rule="evenodd" clip-rule="evenodd" d="M13.9697 1.25C14.2271 1.25005 14.474 1.35253 14.6562 1.53516L21.4648 8.36328C21.6475 8.54651 21.7499 8.79536 21.75 9.05469V19.8184C21.75 21.4374 20.444 22.7499 18.833 22.75H11.9912C13.8093 21.4857 15 19.3823 15 17C15 13.134 11.866 10 8 10C6.62463 10 5.34266 10.3978 4.26074 11.083L4.25 4.18652C4.24748 2.56571 5.55419 1.2501 7.16699 1.25H13.9697ZM13.5674 7.96094C13.5674 8.78936 14.239 9.46094 15.0674 9.46094H19.8047L13.5674 3.20605V7.96094Z" fill="currentColor" />
    <path d="M7.25 16C7.25 16.9665 8.0335 17.75 9 17.75H13.7002C13.3326 20.5712 10.9214 22.75 8 22.75C4.82436 22.75 2.25 20.1756 2.25 17C2.25 14.0787 4.42888 11.6684 7.25 11.3008V16ZM8.75 11.3008C11.3256 11.6364 13.3646 13.6744 13.7002 16.25H9C8.86193 16.25 8.75 16.1381 8.75 16V11.3008Z" fill="currentColor" />
</svg>