<svg xmlns="http://www.w3.org/2000/svg" width="24" height="24" viewBox="0 0 24 24" fill="none">
    <path fill-rule="evenodd" clip-rule="evenodd" d="M12.9697 1.25C13.2271 1.25005 13.474 1.35253 13.6563 1.53516L20.4648 8.36328C20.6475 8.54651 20.7499 8.79536 20.75 9.05469V19.8184C20.75 21.4374 19.444 22.7499 17.833 22.75H6.19141C4.58219 22.75 3.27708 21.4404 3.27442 19.8232L3.25 4.18652C3.24749 2.56571 4.55419 1.2501 6.167 1.25H12.9697ZM8 17C7.44772 17 7 17.4477 7 18C7 18.5523 7.44772 19 8 19H10C10.5523 19 11 18.5523 11 18C11 17.4477 10.5523 17 10 17H8ZM14 17C13.4477 17 13 17.4477 13 18C13 18.5523 13.4477 19 14 19H16C16.5523 19 17 18.5523 17 18C17 17.4477 16.5523 17 16 17H14ZM8 13C7.44772 13 7 13.4477 7 14C7 14.5523 7.44772 15 8 15H10C10.5523 15 11 14.5523 11 14C11 13.4477 10.5523 13 10 13H8ZM14 13C13.4477 13 13 13.4477 13 14C13 14.5523 13.4477 15 14 15H16C16.5523 15 17 14.5523 17 14C17 13.4477 16.5523 13 16 13H14ZM12.5674 7.96094C12.5674 8.78936 13.239 9.46094 14.0674 9.46094H18.8047L12.5674 3.20605V7.96094Z" fill="currentColor" />
</svg>