<svg xmlns="http://www.w3.org/2000/svg" width="24" height="24" viewBox="0 0 24 24" fill="none">
    <path fill-rule="evenodd" clip-rule="evenodd" d="M12.9697 1.25C13.2271 1.25005 13.474 1.35253 13.6563 1.53516L20.4648 8.36328C20.6475 8.54651 20.7499 8.79536 20.75 9.05469V19.8184C20.75 21.4374 19.444 22.7499 17.833 22.75H6.19141C4.58219 22.75 3.27708 21.4404 3.27442 19.8232L3.25 4.18652C3.24749 2.56571 4.55419 1.2501 6.167 1.25H12.9697ZM14 13C13.4477 13 13 13.4477 13 14V18C13 18.5523 13.4477 19 14 19C14.5523 19 15 18.5523 15 18V17H16C16.5523 17 17 16.5523 17 16C17 15.4477 16.5523 15 16 15H15V14C15 13.4477 14.5523 13 14 13ZM8 15C7.44772 15 7 15.4477 7 16C7 16.5523 7.44772 17 8 17H10C10.5523 17 11 16.5523 11 16C11 15.4477 10.5523 15 10 15H8ZM12.5674 7.96094C12.5674 8.78936 13.239 9.46094 14.0674 9.46094H18.8047L12.5674 3.20605V7.96094Z" fill="currentColor" />
</svg>