<svg xmlns="http://www.w3.org/2000/svg" width="24" height="24" viewBox="0 0 24 24" fill="none">
    <path d="M6 11.25V15.5C6 17.433 7.567 19 9.5 19H10.75V20.5C10.75 21.7426 9.74264 22.75 8.5 22.75H3.5C2.25736 22.75 1.25 21.7426 1.25 20.5V13.5C1.25 12.2574 2.25736 11.25 3.5 11.25H6Z" fill="currentColor" />
    <path d="M13.25 3.5V10.5C13.25 11.7426 14.2574 12.75 15.5 12.75H20.5C21.7426 12.75 22.75 11.7426 22.75 10.5V5.62109C22.7499 5.02444 22.5127 4.45218 22.0908 4.03027L19.9697 1.90918C19.5478 1.48728 18.9756 1.25006 18.3789 1.25H15.5C14.2574 1.25 13.25 2.25736 13.25 3.5Z" fill="currentColor" />
    <path d="M12 6.25V10.5C12 12.433 13.567 14 15.5 14H16.75V15.5C16.75 16.7426 15.7426 17.75 14.5 17.75H9.5C8.25736 17.75 7.25 16.7426 7.25 15.5V8.5C7.25 7.25736 8.25736 6.25 9.5 6.25H12Z" fill="currentColor" />
</svg>