<svg xmlns="http://www.w3.org/2000/svg" width="24" height="24" viewBox="0 0 24 24" fill="none">
    <path fill-rule="evenodd" clip-rule="evenodd" d="M3.00586 3.93619L3.01446 9.47486C3.31111 9.3308 3.64416 9.25 3.99609 9.25C5.23873 9.25 6.24609 10.2574 6.24609 11.5V16.0684L8.40527 13.9092C9.28395 13.0305 10.7082 13.0305 11.5869 13.9092C12.4656 14.7879 12.4656 16.2121 11.5869 17.0908L9.42773 19.25H13.9961C15.2387 19.25 16.2461 20.2574 16.2461 21.5C16.2461 21.8592 16.1619 22.1988 16.0122 22.5H17.5887C19.1998 22.5 20.5059 21.1875 20.5059 19.5684V8.80498C20.5059 8.54546 20.4031 8.2966 20.2203 8.11329L13.4123 1.28551C13.23 1.10268 12.9829 1 12.7254 1H5.92303C4.31014 1 3.00335 2.31532 3.00586 3.93619ZM12.3232 2.95594L18.5602 9.21094H13.8232C12.9948 9.21094 12.3232 8.53936 12.3232 7.71094V2.95594Z" fill="currentColor" />
    <path d="M2.99609 11.5V19.5C2.99609 21.1569 4.33924 22.5 5.99609 22.5H13.9961C14.5484 22.5 14.9961 22.0523 14.9961 21.5C14.9961 20.9477 14.5484 20.5 13.9961 20.5H6.41016L10.7031 16.207C11.0936 15.8165 11.0936 15.1835 10.7031 14.793C10.3126 14.4024 9.67959 14.4024 9.28906 14.793L4.99609 19.0859V11.5C4.99609 10.9477 4.54838 10.5 3.99609 10.5C3.44381 10.5 2.99609 10.9477 2.99609 11.5Z" fill="currentColor" />
</svg>