<svg xmlns="http://www.w3.org/2000/svg" width="24" height="24" viewBox="0 0 24 24" fill="none">
    <path fill-rule="evenodd" clip-rule="evenodd" d="M5.30386 3.72168C5.45766 3.33718 5.89395 3.15007 6.27847 3.30371C9.02795 4.4035 10.7491 6.43088 11.7296 8.22852C12.4389 6.25058 13.771 4.91808 14.5841 4.37598C14.9287 4.1463 15.3944 4.23949 15.6242 4.58398C15.8539 4.92861 15.7608 5.39424 15.4162 5.62402C14.8005 6.03446 13.68 7.155 13.1076 8.83594C15.0538 7.32184 18.2129 6.03967 22.2228 7.28711C22.6183 7.41014 22.8389 7.8301 22.716 8.22559C22.5929 8.6211 22.173 8.84179 21.7775 8.71875C17.7441 7.46398 14.7512 9.19732 13.2824 10.6748C13.8449 10.9178 14.5799 11.2872 15.3595 11.8174C17.0211 12.9472 18.9133 14.831 19.7238 17.8027C19.8328 18.2024 19.597 18.6146 19.1974 18.7236C18.7978 18.8326 18.3855 18.5969 18.2765 18.1973C17.587 15.6692 15.9792 14.0527 14.5158 13.0576C14.229 12.8626 13.9487 12.6927 13.6837 12.5449C14.1634 13.8278 14.401 15.5682 14.1457 18.0762C14.1037 18.4881 13.7363 18.7878 13.3244 18.7461C12.9123 18.7041 12.6115 18.3359 12.6535 17.9238C12.9605 14.9077 12.4912 13.2617 11.8732 12.2188C11.5315 12.6182 11.0895 13.1964 10.6457 13.9453C9.70005 15.541 8.75019 17.9101 8.75015 21C8.75015 21.4142 8.41436 21.75 8.00015 21.75C7.58595 21.75 7.25015 21.4142 7.25015 21C7.25019 17.5904 8.30037 14.9599 9.35464 13.1807C9.57445 12.8097 9.79508 12.4755 10.006 12.1787C9.6064 12.3422 9.20794 12.5443 8.82241 12.7715C7.82244 13.3608 6.98573 14.0698 6.53433 14.5273C6.24348 14.8221 5.76863 14.8249 5.47378 14.5342C5.17901 14.2434 5.17531 13.7685 5.46597 13.4736C6.00113 12.9312 6.94056 12.1401 8.06167 11.4795C8.59489 11.1653 9.18824 10.8691 9.81362 10.6465C6.13634 8.91456 3.37562 9.92425 2.45327 10.623C2.12323 10.8731 1.6527 10.8084 1.40249 10.4785C1.15243 10.1485 1.21717 9.67794 1.54702 9.42773C2.95629 8.35998 6.39089 7.29986 10.6369 9.37793C9.84664 7.74724 8.31112 5.73203 5.72183 4.69629C5.33724 4.54246 5.15003 4.10626 5.30386 3.72168ZM13.0714 20.0547C13.5001 20.0982 13.8351 20.4602 13.8351 20.9004C13.8349 21.3697 13.4538 21.75 12.9845 21.75C12.5446 21.7499 12.1825 21.4157 12.1388 20.9873L12.1349 20.9004L12.1388 20.8135C12.1822 20.3847 12.5443 20.0499 12.9845 20.0498L13.0714 20.0547ZM4.18667 15.0547C4.61545 15.0981 4.95034 15.4602 4.95034 15.9004C4.95013 16.3697 4.56906 16.75 4.09976 16.75C3.65995 16.7498 3.29773 16.4156 3.25405 15.9873L3.25015 15.9004L3.25405 15.8135C3.29737 15.3848 3.65968 15.05 4.09976 15.0498L4.18667 15.0547ZM20.5001 11.6514C20.9695 11.6514 21.3505 12.0317 21.3507 12.501C21.3507 12.9704 20.9696 13.3516 20.5001 13.3516C20.0309 13.3514 19.6505 12.9703 19.6505 12.501C19.6507 12.0318 20.031 11.6516 20.5001 11.6514ZM17.9005 10.25C18.3698 10.25 18.7509 10.6303 18.7511 11.0996C18.7511 11.5691 18.37 11.9502 17.9005 11.9502C17.4313 11.95 17.0509 11.5689 17.0509 11.0996C17.0511 10.6305 17.4314 10.2502 17.9005 10.25ZM11.0001 3.25C11.4695 3.25 11.8505 3.63035 11.8507 4.09961C11.8507 4.56905 11.4696 4.9502 11.0001 4.9502C10.5309 4.94998 10.1505 4.56892 10.1505 4.09961C10.1507 3.63048 10.531 3.25021 11.0001 3.25ZM3.09976 2.25C3.56907 2.25 3.95013 2.63035 3.95034 3.09961C3.95034 3.56905 3.56919 3.9502 3.09976 3.9502C2.63049 3.94998 2.25015 3.56892 2.25015 3.09961C2.25036 2.63048 2.63062 2.25021 3.09976 2.25ZM16.9005 2.25C17.3698 2.25 17.7509 2.63035 17.7511 3.09961C17.7511 3.56905 17.37 3.9502 16.9005 3.9502C16.4313 3.94998 16.0509 3.56892 16.0509 3.09961C16.0511 2.63048 16.4314 2.25021 16.9005 2.25Z" fill="currentColor" />
</svg>