<svg xmlns="http://www.w3.org/2000/svg" width="24" height="24" viewBox="0 0 24 24" fill="none">
    <path d="M18.7501 19.9996C18.7501 21.5184 17.5189 22.7496 16.0001 22.7496H12.0001C10.4813 22.7496 9.2501 21.5184 9.2501 19.9996V13.7496H18.7501V19.9996Z" fill="currentColor" />
    <path d="M14.0001 5.24963C16.6235 5.24963 18.7501 7.37628 18.7501 9.99963V12.2496H9.2501V9.99963C9.2501 7.37628 11.3767 5.24963 14.0001 5.24963Z" fill="currentColor" />
    <path d="M5.25007 13.9996V7.99963C5.25007 4.824 7.82443 2.24963 11.0001 2.24963H12.0001C12.4143 2.24963 12.7501 2.58542 12.7501 2.99963C12.7501 3.41385 12.4143 3.74963 12.0001 3.74963H11.0001C8.65286 3.74963 6.75007 5.65242 6.75007 7.99963V13.9996C6.75007 15.5184 5.51885 16.7496 4.00007 16.7496C3.58586 16.7496 3.25007 16.4138 3.25007 15.9996C3.25007 15.5854 3.58586 15.2496 4.00007 15.2496C4.69042 15.2496 5.25007 14.69 5.25007 13.9996Z" fill="currentColor" />
    <path d="M20.0001 2.24963C20.4143 2.24963 20.7501 2.58542 20.7501 2.99963C20.7501 3.41385 20.4143 3.74963 20.0001 3.74963H16.0001C15.5859 3.74963 15.2501 3.41385 15.2501 2.99963C15.2501 2.58542 15.5859 2.24963 16.0001 2.24963H20.0001Z" fill="currentColor" />
    <path d="M15.0001 1.24963C15.9666 1.24963 16.7501 2.03314 16.7501 2.99963V4.6676C15.9261 4.24176 14.9916 3.99963 14.0001 3.99963C13.0086 3.99963 12.0741 4.24176 11.2501 4.6676V2.99963C11.2501 2.03314 12.0336 1.24963 13.0001 1.24963H15.0001Z" fill="currentColor" />
</svg>