<svg xmlns="http://www.w3.org/2000/svg" width="24" height="24" viewBox="0 0 24 24" fill="none">
    <path fill-rule="evenodd" clip-rule="evenodd" d="M21.902 2.08751C21.9012 2.08452 21.9028 2.08971 21.902 2.08751V2.08751ZM21.4069 1.59785C21.4047 1.59713 21.4099 1.59872 21.4069 1.59785V1.59785Z" fill="currentColor" />
    <path d="M17.2423 1C18.4299 1 19.4668 1.14784 20.2071 1.2959C20.5779 1.37006 20.8767 1.44513 21.085 1.50195C21.1891 1.53033 21.271 1.5539 21.3282 1.57129C21.3468 1.57696 21.3627 1.58225 21.376 1.58666L21.3946 1.59277L21.4063 1.59627L21.4239 1.60156C21.6479 1.67621 21.8239 1.85222 21.8985 2.07617L21.9014 2.08594L21.9073 2.10547L21.9134 2.12412C21.9178 2.13738 21.9231 2.15328 21.9288 2.17188C21.9462 2.22903 21.9697 2.31099 21.9981 2.41504C22.0549 2.62339 22.13 2.92222 22.2042 3.29297C22.3522 4.03325 22.5001 5.07018 22.5001 6.25781C22.5001 8.57399 21.9324 11.5315 19.6241 13.9463L18.9649 17.2441C18.9043 17.5472 18.7557 17.8264 18.5372 18.0449C17.9259 18.656 16.9347 18.6559 16.3233 18.0449L14.9854 16.707C13.4417 17.1375 11.9349 17.1984 10.6876 17.1201L9.05378 21.624C8.72213 22.538 7.55281 22.7979 6.86531 22.1104C6.70204 21.947 6.58429 21.7434 6.52351 21.5205L5.5489 17.9502L1.97956 16.9766C1.75671 16.9158 1.55312 16.798 1.38972 16.6348C0.702211 15.9473 0.962077 14.7779 1.87605 14.4463L6.37898 12.8115C6.30075 11.5643 6.36154 10.0572 6.79206 8.51367L5.45515 7.17676C4.84415 6.56539 4.84403 5.57418 5.45515 4.96289C5.6737 4.74434 5.95285 4.59577 6.25593 4.53516L9.5528 3.875C11.9676 1.56668 14.9261 1 17.2423 1ZM17.7501 6.25C17.7501 5.42157 17.0785 4.75 16.2501 4.75C15.4216 4.75 14.7501 5.42157 14.7501 6.25C14.7501 7.07843 15.4216 7.75 16.2501 7.75C17.0785 7.75 17.7501 7.07843 17.7501 6.25Z" fill="currentColor" />
</svg>