<svg xmlns="http://www.w3.org/2000/svg" width="24" height="24" viewBox="0 0 24 24" fill="none">
    <path fill-rule="evenodd" clip-rule="evenodd" d="M7.75884 2.00981C9.02596 1.95358 10.431 2.18782 11.8526 2.9229C14.2996 4.18806 16.9499 4.20739 19.4395 3.07524C19.6716 2.96968 19.9419 2.98994 20.1563 3.12798C20.3704 3.266 20.4999 3.50311 20.5 3.75786V13.7735C20.5 14.0458 20.3523 14.2965 20.1143 14.4288C19.8998 14.5478 19.6508 14.6682 19.3731 14.7823C18.9753 14.9456 18.6328 15.0651 18.3344 15.1528L5.59201 2.41037C6.44496 2.10447 7.2792 2.01528 7.72173 2.01079L7.73931 2.00981H7.75884Z" fill="currentColor" />
    <path fill-rule="evenodd" clip-rule="evenodd" d="M1.99284 2.09696C2.00878 2.07852 2.02551 2.06053 2.04302 2.04302C2.43354 1.65249 3.06655 1.65249 3.45708 2.04302L4.41573 3.00167L16.8163 15.4022L21.4571 20.043C21.8476 20.4335 21.8476 21.0666 21.4571 21.4571L21.4497 21.4643C21.0587 21.8476 20.4311 21.8452 20.043 21.4571L13.9352 15.3493C13.0375 15.1895 12.1022 14.8919 11.1631 14.4063C8.13991 12.843 5.83623 13.789 4.75005 14.6572L4.75005 20.75C4.75005 21.3023 4.30233 21.75 3.75005 21.75C3.19776 21.75 2.75005 21.3023 2.75005 20.75L2.75005 4.16411L2.04302 3.45708C1.67 3.08406 1.65328 2.48982 1.99284 2.09696Z" fill="currentColor" />
</svg>