<svg xmlns="http://www.w3.org/2000/svg" width="24" height="24" viewBox="0 0 24 24" fill="none">
    <path d="M20 13.7498C20 18.3062 16.3063 21.9998 11.75 21.9998C7.19365 21.9998 3.5 18.3062 3.5 13.7498C3.5 10.4599 5.03613 8.53015 6.58398 6.9178C6.79835 6.69451 7.00965 6.4795 7.21589 6.26965C8.5282 4.93431 9.63507 3.80802 10.0176 2.08675L10.041 2.00472C10.1063 1.81586 10.2452 1.66 10.4277 1.57308C10.6361 1.47388 10.8785 1.47585 11.085 1.57894C11.8287 1.95082 12.9514 2.65447 13.8799 4.09359C14.703 5.36952 15.3411 7.17405 15.4736 9.743C15.6933 9.5922 15.9161 9.37752 16.1357 9.09847C16.5823 8.53114 16.9007 7.85404 17.0537 7.47152L17.1016 7.37288C17.2289 7.15372 17.4606 7.01158 17.7188 7.00081C18.0138 6.98854 18.2888 7.15071 18.4209 7.41488C19.1933 8.95979 19.5945 10.1481 19.7979 11.1649C20 12.1757 20 12.9882 20 13.7354V13.7498Z" fill="currentColor" />
</svg>