<svg xmlns="http://www.w3.org/2000/svg" width="24" height="24" viewBox="0 0 24 24" fill="none">
    <path d="M7.74994 2.74994H8.24994V8.47552L2.10736 18.872C1.87346 19.268 1.74994 19.7197 1.74994 20.1796C1.75011 21.5991 2.90078 22.7498 4.32025 22.7499H19.1796C20.5991 22.7498 21.7498 21.5991 21.7499 20.1796C21.7499 19.7197 21.6264 19.268 21.3925 18.872L15.2499 8.47552V2.74994H15.7499C16.3022 2.74994 16.7499 2.30222 16.7499 1.74994C16.7499 1.19765 16.3022 0.749939 15.7499 0.749939H14.2499H9.24994H7.74994C7.19765 0.749939 6.74994 1.19765 6.74994 1.74994C6.74994 2.30222 7.19765 2.74994 7.74994 2.74994ZM13.3886 9.25873L17.3588 15.9765C17.1697 15.9917 16.9671 15.9999 16.7499 15.9999C15.4614 15.9999 14.1284 15.3508 12.5849 14.579L12.5001 14.5366C11.1065 13.8395 9.52488 13.0483 7.89896 13.0021L10.1113 9.25873C10.2023 9.10468 10.2499 8.92885 10.2499 8.74994V2.74994H13.2499V8.74994C13.2499 8.92885 13.2976 9.10468 13.3886 9.25873Z" fill="currentColor" />
</svg>