<svg xmlns="http://www.w3.org/2000/svg" width="24" height="24" viewBox="0 0 24 24" fill="none">
    <path d="M7.74994 2.75H8.24994V7.55566C5.58718 8.85344 3.74994 11.5857 3.74994 14.75C3.74994 19.1683 7.33166 22.75 11.7499 22.75C16.1682 22.75 19.7499 19.1683 19.7499 14.75C19.7499 11.5857 17.9127 8.85344 15.2499 7.55566V2.75H15.7499C16.3022 2.75 16.7499 2.30228 16.7499 1.75C16.7499 1.19772 16.3022 0.75 15.7499 0.75H14.2499H9.24994H7.74994C7.19765 0.75 6.74994 1.19772 6.74994 1.75C6.74994 2.30228 7.19765 2.75 7.74994 2.75ZM6.36985 12.091C7.03622 10.7451 8.19281 9.68458 9.60736 9.14355C9.99426 8.99549 10.2498 8.62421 10.2499 8.20996V2.75H13.2499V8.20996C13.2501 8.62421 13.5056 8.99549 13.8925 9.14355C16.1496 10.0068 17.7499 12.1928 17.7499 14.75C17.7499 14.8114 17.749 14.8726 17.7472 14.9335C17.4544 14.9757 17.1237 15 16.7499 15C15.4614 15 14.1284 14.3509 12.5849 13.5791L12.5001 13.5367C11.0639 12.8183 9.42814 12 7.74994 12C7.26438 12 6.80613 12.0329 6.36985 12.091Z" fill="currentColor" />
</svg>