<svg xmlns="http://www.w3.org/2000/svg" width="24" height="24" viewBox="0 0 24 24" fill="none">
    <path fill-rule="evenodd" clip-rule="evenodd" d="M20.438 17.2563L14.7589 11.5772L13.3887 9.25879C13.2977 9.10474 13.2501 8.92892 13.2501 8.75V2.75H10.2501V7.06836L8.25006 5.06836V2.75H7.75006C7.19778 2.75 6.75006 2.30228 6.75006 1.75C6.75006 1.19772 7.19778 0.75 7.75006 0.75H9.25006H14.2501H15.7501C16.3023 0.75 16.7501 1.19772 16.7501 1.75C16.7501 2.30228 16.3023 2.75 15.7501 2.75H15.2501V8.47559L20.438 17.2563Z" fill="currentColor" />
    <path fill-rule="evenodd" clip-rule="evenodd" d="M13.7188 15.1328L9.26942 10.6834L7.89907 13.0021C9.52499 13.0484 11.1066 13.8395 12.5002 14.5367L12.585 14.5791C12.9755 14.7743 13.3525 14.9617 13.7188 15.1328ZM20.7783 22.1923L21.043 22.457C21.4335 22.8475 22.0666 22.8475 22.4571 22.457C22.8476 22.0665 22.8476 21.4335 22.4571 21.043L2.45708 1.04295C2.06655 0.65243 1.43354 0.65243 1.04302 1.04295C0.652491 1.43348 0.652491 2.06649 1.04302 2.45702L7.80865 9.22265L2.10747 18.8721C1.87357 19.268 1.75005 19.7198 1.75005 20.1797C1.75022 21.5991 2.90089 22.7498 4.32036 22.75H19.1797C19.784 22.7499 20.3395 22.5414 20.7783 22.1923Z" fill="currentColor" />
</svg>