<svg xmlns="http://www.w3.org/2000/svg" width="24" height="24" viewBox="0 0 24 24" fill="none">
    <path d="M3.75 10.75C4.30228 10.75 4.75 11.1977 4.75 11.75C4.75 12.3023 4.30228 12.75 3.75 12.75H1.75C1.19772 12.75 0.75 12.3023 0.75 11.75C0.75 11.1977 1.19772 10.75 1.75 10.75H3.75ZM9.75 10.75C10.3023 10.75 10.75 11.1977 10.75 11.75C10.75 12.3023 10.3023 12.75 9.75 12.75H7.75C7.19772 12.75 6.75 12.3023 6.75 11.75C6.75 11.1977 7.19772 10.75 7.75 10.75H9.75ZM15.75 10.75C16.3023 10.75 16.75 11.1977 16.75 11.75C16.75 12.3023 16.3023 12.75 15.75 12.75H13.75C13.1977 12.75 12.75 12.3023 12.75 11.75C12.75 11.1977 13.1977 10.75 13.75 10.75H15.75ZM21.75 10.75C22.3023 10.75 22.75 11.1977 22.75 11.75C22.75 12.3023 22.3023 12.75 21.75 12.75H19.75C19.1977 12.75 18.75 12.3023 18.75 11.75C18.75 11.1977 19.1977 10.75 19.75 10.75H21.75Z" fill="currentColor" />
    <path d="M16.5 20.0234C16.4998 20.8388 15.8388 21.4998 15.0234 21.5H8.47656C7.71193 21.4998 7.08331 20.9186 7.00781 20.1738L7 20.0234L7.00586 19.8896C7.03392 19.5803 7.15921 19.2863 7.36523 19.0508L10.3564 15.6328C10.7081 15.2309 11.216 15 11.75 15C12.284 15 12.7919 15.2309 13.1436 15.6328L16.1348 19.0508C16.3702 19.32 16.5 19.6658 16.5 20.0234Z" fill="currentColor" />
    <path d="M16.5 3.47656C16.5 3.83421 16.3702 4.18003 16.1348 4.44922L13.1436 7.86719C12.7919 8.26907 12.284 8.5 11.75 8.5C11.216 8.5 10.7081 8.26907 10.3564 7.86719L7.36523 4.44922C7.12978 4.18002 7 3.83421 7 3.47656C7.00017 2.66116 7.66116 2.00017 8.47656 2H15.0234C15.8388 2.00017 16.4998 2.66116 16.5 3.47656Z" fill="currentColor" />
</svg>