<svg xmlns="http://www.w3.org/2000/svg" width="24" height="24" viewBox="0 0 24 24" fill="none">
    <path d="M8.005 2.25C8.86681 2.25015 9.67871 2.65429 10.1984 3.3418L12.3917 6.24414H20.0001C21.5188 6.24414 22.75 7.4755 22.7501 8.99414V19C22.7501 20.5188 21.5189 21.75 20.0001 21.75H14.0001C15.657 21.75 17.0001 20.4069 17.0001 18.75C17.0001 17.4441 16.1648 16.3359 15.0001 15.9238V14.75C15.0001 14.1977 14.5524 13.75 14.0001 13.75C13.4478 13.75 13.0001 14.1977 13.0001 14.75V15.9238C11.8354 16.3359 11.0001 17.4441 11.0001 18.75C11.0001 20.4069 12.3433 21.75 14.0001 21.75H4.00012C2.48134 21.75 1.25012 20.5188 1.25012 19V5C1.25012 3.48122 2.48134 2.25 4.00012 2.25H8.005ZM14.0001 17.75C14.5524 17.75 15.0001 18.1977 15.0001 18.75C15.0001 19.3023 14.5524 19.75 14.0001 19.75C13.4478 19.75 13.0001 19.3023 13.0001 18.75C13.0001 18.1977 13.4478 17.75 14.0001 17.75ZM14.0001 9.25C13.4478 9.25 13.0001 9.69772 13.0001 10.25V11.25C13.0001 11.8023 13.4478 12.25 14.0001 12.25C14.5524 12.25 15.0001 11.8023 15.0001 11.25V10.25C15.0001 9.69772 14.5524 9.25 14.0001 9.25Z" fill="currentColor" />
</svg>