<svg xmlns="http://www.w3.org/2000/svg" width="24" height="24" viewBox="0 0 24 24" fill="none">
    <path d="M16.7501 21.25V20.6035C16.5173 20.5342 16.2948 20.4418 16.0851 20.3281L15.629 20.7852C15.2385 21.1757 14.6055 21.1757 14.215 20.7852C13.8244 20.3946 13.8244 19.7616 14.215 19.3711L14.671 18.9141C14.5576 18.7046 14.4648 18.4824 14.3956 18.25H13.7501C13.1978 18.25 12.7501 17.8023 12.7501 17.25C12.7501 16.6977 13.1978 16.25 13.7501 16.25H14.3956C14.4649 16.0173 14.5574 15.7946 14.671 15.585L14.215 15.1289C13.8244 14.7384 13.8244 14.1054 14.215 13.7148C14.6055 13.3243 15.2385 13.3243 15.629 13.7148L16.0851 14.1709C16.2948 14.0573 16.5174 13.9648 16.7501 13.8955V13.25C16.7501 12.6977 17.1978 12.25 17.7501 12.25C18.3024 12.25 18.7501 12.6977 18.7501 13.25V13.8955C18.9826 13.9647 19.2047 14.0575 19.4142 14.1709L19.8712 13.7148C20.2617 13.3243 20.8948 13.3243 21.2853 13.7148C21.6758 14.1054 21.6758 14.7384 21.2853 15.1289L20.8282 15.585C20.942 15.7948 21.0353 16.0171 21.1046 16.25H21.7501C22.3024 16.25 22.7501 16.6977 22.7501 17.25C22.7501 17.8023 22.3024 18.25 21.7501 18.25H21.1046C21.0354 18.4826 20.9418 18.7045 20.8282 18.9141L21.2853 19.3711C21.6758 19.7616 21.6758 20.3946 21.2853 20.7852C20.8948 21.1757 20.2617 21.1757 19.8712 20.7852L19.4142 20.3281C19.2047 20.4416 18.9826 20.5343 18.7501 20.6035V21.25C18.7501 21.8023 18.3024 22.25 17.7501 22.25C17.1978 22.25 16.7501 21.8023 16.7501 21.25ZM17.7501 15.75C16.9217 15.75 16.2501 16.4216 16.2501 17.25C16.2501 18.0784 16.9217 18.75 17.7501 18.75C18.5785 18.75 19.2501 18.0784 19.2501 17.25C19.2501 16.4216 18.5785 15.75 17.7501 15.75Z" fill="currentColor" />
    <path d="M8.005 1.75C8.86681 1.75015 9.67871 2.15429 10.1984 2.8418L12.3917 5.74414H20.0001C21.5188 5.74414 22.75 6.9755 22.7501 8.49414V13.8398C22.6707 13.5405 22.5291 13.2541 22.3234 13.002L22.1691 12.8311L21.9982 12.6768C21.3679 12.1627 20.525 12.0429 19.7941 12.3145C19.4387 11.5394 18.6585 11 17.7501 11C16.8416 11 16.0604 11.5392 15.7052 12.3145C14.9744 12.0434 14.1321 12.1629 13.5021 12.6768L13.3312 12.8311C12.689 13.4732 12.5181 14.406 12.8146 15.2051C12.0394 15.5603 11.5001 16.3415 11.5001 17.25C11.5001 18.1584 12.0395 18.9386 12.8146 19.2939C12.5773 19.9328 12.6397 20.6569 13.0021 21.25H4.00012C2.48134 21.25 1.25012 20.0188 1.25012 18.5V4.5C1.25012 2.98122 2.48134 1.75 4.00012 1.75H8.005Z" fill="currentColor" />
</svg>