<svg xmlns="http://www.w3.org/2000/svg" width="24" height="24" viewBox="0 0 24 24" fill="none">
    <path d="M8.005 1.75C8.86681 1.75015 9.67871 2.15429 10.1984 2.8418L12.3917 5.74414H20.0001C21.5188 5.74414 22.75 6.9755 22.7501 8.49414V13.3213C21.6561 11.9004 19.9377 10.9775 18.0001 10.9775C17.2722 10.9775 16.5755 11.1099 15.9308 11.3486C15.5724 10.8896 15.0386 10.5742 14.4259 10.5117L14.2003 10.5C12.9798 10.5 12.0004 11.4924 12.0001 12.7041V15.5684C12.0002 16.3646 12.4245 17.0636 13.0607 17.4512C12.4511 18.1427 12.3196 19.1711 12.8029 20.0107C13.0639 20.4642 13.3832 20.8805 13.7501 21.25H4.00012C2.48134 21.25 1.25012 20.0188 1.25012 18.5V4.5C1.25012 2.98122 2.48134 1.75 4.00012 1.75H8.005Z" fill="currentColor" />
    <path d="M20.8501 21.2955V20.8145C20.0563 21.4142 19.0708 21.7727 18.0001 21.7727C16.2409 21.7727 14.7065 20.8112 13.8865 19.3873C13.6239 18.9311 13.7787 18.3472 14.2326 18.0832C14.6866 17.8193 15.2677 17.9748 15.5305 18.4309C16.0247 19.2893 16.9464 19.8636 18.0001 19.8636C18.5817 19.8636 19.1222 19.6874 19.5736 19.3864H18.9501C18.4255 19.3864 18.0001 18.959 18.0001 18.4318C18.0001 17.9046 18.4255 17.4773 18.9501 17.4773H21.8001C22.3248 17.4773 22.7501 17.9046 22.7501 18.4318V21.2955C22.7501 21.8226 22.3248 22.25 21.8001 22.25C21.2755 22.25 20.8501 21.8226 20.8501 21.2955ZM18.0001 12.2273C19.7593 12.2273 21.2938 13.1888 22.1137 14.6127C22.3764 15.0689 22.2216 15.6528 21.7677 15.9168C21.3136 16.1807 20.7326 16.0252 20.4698 15.5691C19.9755 14.7107 19.0538 14.1364 18.0001 14.1364C17.4186 14.1364 16.8781 14.3126 16.4267 14.6136H17.0501C17.5748 14.6136 18.0001 15.041 18.0001 15.5682C18.0001 16.0954 17.5748 16.5227 17.0501 16.5227H14.2001C13.6755 16.5227 13.2501 16.0954 13.2501 15.5682V12.7045C13.2501 12.1774 13.6755 11.75 14.2001 11.75C14.7248 11.75 15.1501 12.1774 15.1501 12.7045V13.1846C15.9438 12.5851 16.9297 12.2273 18.0001 12.2273Z" fill="currentColor" />
</svg>