<svg xmlns="http://www.w3.org/2000/svg" width="24" height="24" viewBox="0 0 24 24" fill="none">
    <path d="M8.005 2.25C8.86681 2.25015 9.67871 2.65429 10.1984 3.3418L12.3917 6.24414H20.0001C21.5188 6.24414 22.75 7.4755 22.7501 8.99414V19C22.7501 20.5188 21.5189 21.75 20.0001 21.75H4.00012C2.48134 21.75 1.25012 20.5188 1.25012 19V5C1.25012 3.48122 2.48134 2.25 4.00012 2.25H8.005ZM10.7072 10.293C10.3166 9.90244 9.68362 9.90244 9.29309 10.293L6.29309 13.293C5.90257 13.6835 5.90257 14.3165 6.29309 14.707L9.29309 17.707C9.68362 18.0975 10.3167 18.0975 10.7072 17.707C11.0977 17.3165 11.0976 16.6835 10.7072 16.293L8.41418 14L10.7072 11.707C11.0977 11.3165 11.0976 10.6835 10.7072 10.293ZM14.7072 10.293C14.3166 9.90244 13.6836 9.90244 13.2931 10.293C12.9026 10.6835 12.9026 11.3165 13.2931 11.707L15.5861 14L13.2931 16.293C12.9026 16.6835 12.9026 17.3165 13.2931 17.707C13.6836 18.0975 14.3167 18.0975 14.7072 17.707L17.7072 14.707C18.0977 14.3165 18.0976 13.6835 17.7072 13.293L14.7072 10.293Z" fill="currentColor" />
</svg>