<svg xmlns="http://www.w3.org/2000/svg" width="24" height="24" viewBox="0 0 24 24" fill="none">
    <path d="M11 1.25C14.0376 1.25 16.5 3.71243 16.5 6.75V8.25H17C18.4741 8.2501 19.6728 9.41024 19.7422 10.8672C19.4238 10.791 19.0917 10.75 18.75 10.75C16.4028 10.75 14.5 12.6528 14.5 15C14.5 16.2332 15.4921 17.2329 16.7217 17.248C16.5886 17.6161 16.5 18.0345 16.5 18.5C16.5 19.1395 16.768 19.7154 17.1963 20.125C16.768 20.5346 16.5 21.1105 16.5 21.75C16.5 22.1096 16.5863 22.4485 16.7363 22.75L5.00098 22.75C3.48229 22.75 2.25112 21.5187 2.25098 20L2.25 11C2.25 9.48123 3.4812 8.25 5 8.25H5.5V6.75C5.5 3.71243 7.96243 1.25 11 1.25ZM18.75 20.75C19.3023 20.75 19.75 21.1977 19.75 21.75C19.75 22.3023 19.3023 22.75 18.75 22.75C18.1977 22.75 17.75 22.3023 17.75 21.75C17.75 21.1977 18.1977 20.75 18.75 20.75ZM18.75 12C20.4069 12 21.75 13.3431 21.75 15C21.75 15.8666 21.3812 16.649 20.7949 17.1953C20.4609 17.5066 20.1937 17.7433 19.9883 18.0029C19.791 18.2522 19.75 18.4046 19.75 18.5C19.75 19.0523 19.3023 19.5 18.75 19.5C18.1977 19.5 17.75 19.0523 17.75 18.5C17.75 17.7672 18.0871 17.1833 18.4199 16.7627C18.7445 16.3524 19.1597 15.9848 19.4316 15.7314C19.6288 15.5476 19.75 15.2888 19.75 15C19.75 14.4477 19.3023 14 18.75 14C18.2323 14 17.8062 14.3933 17.7549 14.8975L17.7451 15.1025C17.6938 15.6067 17.2677 16 16.75 16C16.1977 16 15.75 15.5523 15.75 15C15.75 13.3431 17.0931 12 18.75 12ZM8 14.25C7.44771 14.25 7 14.6977 7 15.25C7 15.8023 7.44772 16.25 8 16.25C8.55228 16.25 9 15.8023 9 15.25C9 14.6977 8.55228 14.25 8 14.25ZM12 14.25C11.4477 14.25 11 14.6977 11 15.25C11 15.8023 11.4477 16.25 12 16.25C12.5523 16.25 13 15.8023 13 15.25C13 14.6977 12.5523 14.25 12 14.25ZM11 3.25C9.067 3.25 7.5 4.817 7.5 6.75V8.25L14.5 8.25V6.75C14.5 4.817 12.933 3.25 11 3.25Z" fill="currentColor" />
</svg>