<svg xmlns="http://www.w3.org/2000/svg" width="24" height="24" viewBox="0 0 24 24" fill="none">
    <path fill-rule="evenodd" clip-rule="evenodd" d="M17.75 17.5V3C17.75 2.44772 17.3023 2 16.75 2C16.1977 2 15.75 2.44772 15.75 3V9.7062L14.1777 5.66309C13.7293 4.50997 12.6191 3.75 11.3818 3.75H8.75C7.64543 3.75 6.75 4.64543 6.75 5.75V10H3.75C2.23122 10 1 11.2312 1 12.75V17.75C1 18.7165 1.7835 19.5 2.75 19.5H3.10352C3.42998 20.6543 4.49122 21.5 5.75 21.5C7.00878 21.5 8.07002 20.6543 8.39648 19.5H11.1035C11.43 20.6543 12.4912 21.5 13.75 21.5C15.0088 21.5 16.07 20.6543 16.3965 19.5H21.5C22.0523 19.5 22.5 19.0523 22.5 18.5C22.5 17.9477 22.0523 17.5 21.5 17.5H17.75ZM5.75 17.5C6.44036 17.5 7 18.0596 7 18.75C7 19.4404 6.44036 20 5.75 20C5.05964 20 4.5 19.4404 4.5 18.75C4.5 18.0596 5.05964 17.5 5.75 17.5ZM15 18.75C15 18.0596 14.4404 17.5 13.75 17.5C13.0596 17.5 12.5 18.0596 12.5 18.75C12.5 19.4404 13.0596 20 13.75 20C14.4404 20 15 19.4404 15 18.75ZM9.75 12.75C9.19772 12.75 8.75 12.3023 8.75 11.75V5.75H11.3818C11.7942 5.75 12.164 6.00333 12.3135 6.3877L14.7881 12.75H9.75Z" fill="currentColor" />
</svg>