<svg xmlns="http://www.w3.org/2000/svg" width="24" height="24" viewBox="0 0 24 24" fill="none">
    <path d="M6.75 4.75V1.75C6.75 1.19772 6.30228 0.75 5.75 0.75C5.19772 0.75 4.75 1.19772 4.75 1.75V4.75H1.75C1.19772 4.75 0.75 5.19772 0.75 5.75C0.75 6.30228 1.19772 6.75 1.75 6.75H4.75V16.75H1.75C1.19772 16.75 0.75 17.1977 0.75 17.75C0.75 18.3023 1.19772 18.75 1.75 18.75H4.75V21.75C4.75 22.3023 5.19772 22.75 5.75 22.75C6.30228 22.75 6.75 22.3023 6.75 21.75V18.75H16.75V21.75C16.75 22.3023 17.1977 22.75 17.75 22.75C18.3023 22.75 18.75 22.3023 18.75 21.75V18.75H21.75C22.3023 18.75 22.75 18.3023 22.75 17.75C22.75 17.1977 22.3023 16.75 21.75 16.75H18.75V6.75H21.75C22.3023 6.75 22.75 6.30228 22.75 5.75C22.75 5.19772 22.3023 4.75 21.75 4.75H18.75V1.75C18.75 1.19772 18.3023 0.75 17.75 0.75C17.1977 0.75 16.75 1.19772 16.75 1.75V4.75H6.75ZM6.75 6.75H16.75V16.75H6.75V6.75Z" fill="currentColor" />
</svg>