<svg xmlns="http://www.w3.org/2000/svg" width="24" height="24" viewBox="0 0 24 24" fill="none">
    <path d="M1 17.75V5.75C1 5.19772 1.44772 4.75 2 4.75C2.55228 4.75 3 5.19772 3 5.75V17.75C3 18.3023 2.55228 18.75 2 18.75C1.44772 18.75 1 18.3023 1 17.75Z" fill="currentColor" />
    <path d="M5 19.75V3.75C5 3.19772 5.44772 2.75 6 2.75C6.55228 2.75 7 3.19772 7 3.75V19.75C7 20.3023 6.55228 20.75 6 20.75C5.44772 20.75 5 20.3023 5 19.75Z" fill="currentColor" />
    <path d="M22.5 18.75C22.5 20.2688 21.2688 21.5 19.75 21.5H11.75C10.2312 21.5 9 20.2688 9 18.75V4.75C9 3.23122 10.2312 2 11.75 2H19.75C21.2688 2 22.5 3.23122 22.5 4.75V18.75Z" fill="currentColor" />
</svg>