<svg xmlns="http://www.w3.org/2000/svg" width="24" height="24" viewBox="0 0 24 24" fill="none">
    <path d="M4 8.75C3.0335 8.75 2.25 9.5335 2.25 10.5V13.5C2.25 14.4665 3.0335 15.25 4 15.25H6.08594C6.55001 15.25 6.99509 15.0655 7.32324 14.7373L8.67676 13.3838C9.04376 13.0168 9.25 12.519 9.25 12C9.25 11.481 9.04376 10.9832 8.67676 10.6162L7.32324 9.2627C6.99509 8.93454 6.55001 8.75004 6.08594 8.75H4Z" fill="currentColor" />
    <path d="M13.5 21.75C14.4665 21.75 15.25 20.9665 15.25 20V17.9141C15.25 17.45 15.0655 17.0049 14.7373 16.6768L13.3838 15.3232C13.0168 14.9562 12.519 14.75 12 14.75C11.481 14.75 10.9832 14.9562 10.6162 15.3232L9.2627 16.6768C8.93454 17.0049 8.75004 17.45 8.75 17.9141V20C8.75 20.9665 9.53351 21.75 10.5 21.75H13.5Z" fill="currentColor" />
    <path d="M20 15.25C20.9665 15.25 21.75 14.4665 21.75 13.5V10.5C21.75 9.5335 20.9665 8.75 20 8.75H17.9141C17.45 8.75004 17.0049 8.93454 16.6768 9.2627L15.3232 10.6162C14.9562 10.9832 14.75 11.481 14.75 12C14.75 12.519 14.9562 13.0168 15.3232 13.3838L16.6768 14.7373C17.0049 15.0655 17.45 15.25 17.9141 15.25H20Z" fill="currentColor" />
    <path d="M14.7373 7.32324C15.0655 6.99509 15.25 6.55001 15.25 6.08594V4C15.25 3.0335 14.4665 2.25 13.5 2.25H10.5C9.53351 2.25001 8.75 3.03351 8.75 4V6.08594C8.75004 6.55001 8.93454 6.99509 9.2627 7.32324L10.6162 8.67676C10.9832 9.04376 11.481 9.24999 12 9.25C12.519 9.25 13.0168 9.04376 13.3838 8.67676L14.7373 7.32324Z" fill="currentColor" />
</svg>