<svg xmlns="http://www.w3.org/2000/svg" width="24" height="24" viewBox="0 0 24 24" fill="none">
    <path d="M22.5 15.5566C22.4999 16.6578 22.0798 17.6087 21.2705 18.3672C20.4667 19.1205 19.4879 19.5 18.375 19.5C17.6041 19.5 16.8799 19.3047 16.2168 18.916C15.5479 18.5239 15.0347 17.9794 14.6943 17.292L14.0615 16.0361C14.01 16.0115 13.9591 16 13.9053 16H9.57227C9.51843 16 9.46945 16.0106 9.41797 16.0352L8.78418 17.2871C8.44387 17.9762 7.93084 18.5232 7.26074 18.916C6.59767 19.3047 5.87343 19.5 5.10254 19.5C3.99817 19.5 3.03032 19.1125 2.24219 18.3477C1.45876 17.5873 1.03711 16.6454 1 15.5596V15.5342C1.00001 15.3741 1.00888 15.2142 1.02734 15.0547C1.04584 14.895 1.07373 14.7352 1.11035 14.5771L1.11328 14.5674L3.03125 7.20801C3.2879 6.25853 3.81942 5.47075 4.60742 4.88184C5.39419 4.29389 6.29825 4 7.29199 4H16.1855C17.1792 4 18.0824 4.29403 18.8691 4.88184C19.6572 5.47078 20.1877 6.2516 20.4443 7.20117L22.3613 14.5576L22.3643 14.5674C22.3984 14.7149 22.4308 14.8756 22.4561 15.0293C22.485 15.2053 22.5 15.3819 22.5 15.5566ZM7.24512 11.251V12.2559C7.24512 12.8081 7.69283 13.2559 8.24512 13.2559C8.79735 13.2558 9.24512 12.8081 9.24512 12.2559V11.251H10.25C10.8022 11.251 11.2499 10.8032 11.25 10.251C11.25 9.69869 10.8023 9.25098 10.25 9.25098H9.24512V8.25586C9.24512 7.70361 8.79735 7.25592 8.24512 7.25586C7.69283 7.25586 7.24512 7.70357 7.24512 8.25586V9.25098H6.25C5.69772 9.25098 5.25 9.69869 5.25 10.251C5.25006 10.8032 5.69775 11.251 6.25 11.251H7.24512ZM16.5 10.25C17.1904 10.25 17.75 9.69036 17.75 9C17.75 8.30964 17.1904 7.75 16.5 7.75C15.8096 7.75 15.25 8.30964 15.25 9C15.25 9.69036 15.8096 10.25 16.5 10.25ZM14 12.75C14.6904 12.75 15.25 12.1904 15.25 11.5C15.25 10.8096 14.6904 10.25 14 10.25C13.3096 10.25 12.75 10.8096 12.75 11.5C12.75 12.1904 13.3096 12.75 14 12.75Z" fill="currentColor" />
</svg>