<svg xmlns="http://www.w3.org/2000/svg" width="24" height="24" viewBox="0 0 24 24" fill="none">
    <path fill-rule="evenodd" clip-rule="evenodd" d="M11.9999 1.40112C12.4799 1.40112 12.9486 1.55011 13.3407 1.8269L20.7968 7.09058C21.394 7.51217 21.7499 8.19739 21.7499 8.92847V21.1511C21.7499 22.1176 20.9663 22.901 19.9999 22.9011H17.7489V14.1511C17.7489 13.1846 16.9654 12.4011 15.9989 12.4011H7.9989C7.0324 12.4011 6.2489 13.1846 6.2489 14.1511V22.9011H3.9989C3.03163 22.9011 2.24782 22.1164 2.2489 21.1492L2.26453 8.92554C2.26545 8.19635 2.6195 7.51272 3.21472 7.09155L10.6581 1.82788C11.0505 1.55036 11.5192 1.40114 11.9999 1.40112ZM16.2489 22.9011H7.7489V19.9011H16.2489V22.9011ZM16.2489 18.4011H7.7489V16.9011H16.2489V18.4011ZM15.9989 13.9011C16.137 13.9011 16.2489 14.0131 16.2489 14.1511V15.4011H7.7489V14.1511C7.7489 14.0131 7.86083 13.9011 7.9989 13.9011H15.9989ZM11.9989 6.15112C11.4466 6.15112 10.9989 6.59884 10.9989 7.15112C10.9989 7.70341 11.4466 8.15112 11.9989 8.15112C12.5512 8.15112 12.9989 7.70341 12.9989 7.15112C12.9989 6.59884 12.5512 6.15112 11.9989 6.15112Z" fill="currentColor" />
</svg>