<svg xmlns="http://www.w3.org/2000/svg" width="24" height="24" viewBox="0 0 24 24" fill="none">
    <path d="M12.2785 14.4613L11.2167 13.3995L10.1017 12.2845L9.03983 11.2227L1.94043 17.5744C1.34206 18.1099 1.00004 18.8749 1 19.6779C1 21.2371 2.26409 22.5012 3.82324 22.5012C4.62626 22.5011 5.39125 22.1591 5.92676 21.5608L12.2785 14.4613Z" fill="currentColor" />
    <path d="M14.5 3.25C14.5 3.58375 14.4147 3.90868 14.2563 4.19573L19.3043 9.24373C19.5913 9.08527 19.9163 9 20.25 9C20.769 9 21.2668 9.20624 21.6338 9.57324L21.9268 9.86621C22.2938 10.2332 22.5 10.731 22.5 11.25C22.5 11.769 22.2938 12.2668 21.9268 12.6338L17.6338 16.9268C17.2668 17.2938 16.769 17.5 16.25 17.5C15.731 17.5 15.2332 17.2938 14.8662 16.9268L14.5732 16.6338C14.2062 16.2668 14 15.769 14 15.25C14 14.9163 14.0853 14.5913 14.2437 14.3043L9.19573 9.25627C8.90868 9.41473 8.58375 9.5 8.25 9.5C7.73096 9.5 7.23324 9.29376 6.86621 8.92676L6.57324 8.63379C6.20624 8.26676 6 7.76904 6 7.25C6 6.73096 6.20624 6.23324 6.57324 5.86621L10.8662 1.57324C11.2332 1.20624 11.731 1 12.25 1C12.769 1 13.2668 1.20624 13.6338 1.57324L13.9268 1.86621C14.2938 2.23324 14.5 2.73096 14.5 3.25Z" fill="currentColor" />
</svg>