<svg xmlns="http://www.w3.org/2000/svg" width="24" height="24" viewBox="0 0 24 24" fill="none">
    <path fill-rule="evenodd" clip-rule="evenodd" d="M17.0367 10.75C17.4038 10.7502 17.7164 11.0166 17.7759 11.3789L18.0132 12.8203C18.1322 12.8828 18.2478 12.9506 18.3599 13.0234L19.6988 12.5146C20.0443 12.3834 20.4338 12.5236 20.6168 12.8447L21.6519 14.6641C21.8311 14.9794 21.7594 15.3778 21.481 15.6104L20.3687 16.5391C20.372 16.609 20.3736 16.6794 20.3736 16.75C20.3736 16.8213 20.372 16.8923 20.3687 16.9629L21.4791 17.8906C21.7573 18.1233 21.8294 18.5217 21.65 18.8369L20.6148 20.6553C20.4319 20.9766 20.0425 21.1167 19.6968 20.9854L18.359 20.4775C18.2472 20.5501 18.1318 20.6174 18.0132 20.6797L17.7759 22.1211C17.7164 22.4834 17.4038 22.7498 17.0367 22.75H14.9664C14.5991 22.75 14.2857 22.4835 14.2261 22.1211L13.9898 20.6797C13.871 20.6173 13.7551 20.5493 13.6431 20.4766L12.3033 20.9854C11.9577 21.1166 11.5682 20.9766 11.3853 20.6553L10.3502 18.8369C10.1708 18.5217 10.2429 18.1233 10.5211 17.8906L11.6343 16.9609C11.6311 16.891 11.6295 16.8207 11.6295 16.75C11.6295 16.68 11.6312 16.6103 11.6343 16.541L10.5191 15.6104C10.2408 15.3778 10.169 14.9794 10.3482 14.6641L11.3834 12.8447C11.5663 12.5236 11.9558 12.3834 12.3013 12.5146L13.6412 13.0244C13.7536 12.9513 13.8705 12.883 13.9898 12.8203L14.2261 11.3789C14.2857 11.0165 14.5991 10.75 14.9664 10.75H17.0367ZM16.0006 14.75C14.896 14.75 14.0006 15.6454 14.0006 16.75C14.0006 17.8546 14.896 18.75 16.0006 18.75C17.1049 18.7497 18.0006 17.8544 18.0006 16.75C18.0006 15.6456 17.1049 14.7503 16.0006 14.75Z" fill="currentColor" />
    <path fill-rule="evenodd" clip-rule="evenodd" d="M9.0363 1.25C9.40359 1.25 9.717 1.51647 9.77654 1.87891L10.0129 3.32031C10.1319 3.38282 10.2484 3.45059 10.3605 3.52344L11.6984 3.01465C12.044 2.88328 12.4345 3.0234 12.6174 3.34473L13.6515 5.16406C13.8309 5.4794 13.7591 5.87779 13.4806 6.11035L12.3683 7.03906C12.3716 7.10899 12.3732 7.17935 12.3732 7.25C12.3732 7.32133 12.3716 7.3923 12.3683 7.46289L13.4787 8.39062C13.7571 8.62323 13.829 9.02157 13.6496 9.33691L12.6154 11.1553C12.4325 11.4766 12.0421 11.6167 11.6965 11.4854L10.3586 10.9775C10.2469 11.05 10.1313 11.1175 10.0129 11.1797L9.77654 12.6211C9.717 12.9835 9.40359 13.25 9.0363 13.25H6.96599C6.5989 13.2498 6.28624 12.9834 6.22673 12.6211L5.98943 11.1797C5.87054 11.1172 5.75482 11.0493 5.64275 10.9766L4.30388 11.4854C3.95825 11.6167 3.56781 11.4766 3.38493 11.1553L2.35076 9.33691C2.1713 9.02156 2.24319 8.62323 2.52165 8.39062L3.63396 7.46094C3.63071 7.39099 3.62908 7.32067 3.62908 7.25C3.62908 7.18002 3.63077 7.11029 3.63396 7.04102L2.5197 6.11035C2.24125 5.87778 2.16944 5.4794 2.3488 5.16406L3.38298 3.34473C3.56587 3.0234 3.95632 2.88328 4.30193 3.01465L5.64177 3.52441C5.75421 3.45135 5.87012 3.38298 5.98943 3.32031L6.22673 1.87891C6.28624 1.51663 6.5989 1.25023 6.96599 1.25H9.0363ZM8.00017 5.25C6.8956 5.25 6.00017 6.14543 6.00017 7.25C6.00017 8.35457 6.8956 9.25 8.00017 9.25C9.10472 9.24997 10.0002 8.35455 10.0002 7.25C10.0002 6.14545 9.10472 5.25003 8.00017 5.25Z" fill="currentColor" />
</svg>