<svg xmlns="http://www.w3.org/2000/svg" width="24" height="24" viewBox="0 0 24 24" fill="none">
    <path d="M19.5 9H20.4473C21.5809 9.00002 22.5 9.91905 22.5 11.0527C22.5 11.7391 22.157 12.38 21.5859 12.7607L19.5 14.1514V15.083C19.5 16.6517 20.009 18.1786 20.9502 19.4336L22.3496 21.2998C22.52 21.527 22.5477 21.831 22.4209 22.085C22.2939 22.339 22.0341 22.5 21.75 22.5H12.75C8.05434 22.5 4.22299 18.8012 4.00977 14.1582L1.91406 12.7607C1.34301 12.38 1 11.7391 1 11.0527C1.00002 9.91905 1.91905 9.00002 3.05273 9H4V8.75C4 4.46979 7.46979 1 11.75 1C16.0302 1 19.5 4.46979 19.5 8.75V9ZM14.75 11.25C15.4404 11.25 16 10.6904 16 10C16 9.30964 15.4404 8.75 14.75 8.75C14.0596 8.75 13.5 9.30964 13.5 10C13.5 10.6904 14.0596 11.25 14.75 11.25ZM8.75 11.25C9.44036 11.25 10 10.6904 10 10C10 9.30964 9.44036 8.75 8.75 8.75C8.05964 8.75 7.5 9.30964 7.5 10C7.5 10.6904 8.05964 11.25 8.75 11.25Z" fill="currentColor" />
</svg>