<svg xmlns="http://www.w3.org/2000/svg" width="24" height="24" viewBox="0 0 24 24" fill="none">
    <path d="M20.5 16.75C21.0523 16.75 21.5 17.1977 21.5 17.75C21.5 18.3023 21.0523 18.75 20.5 18.75H14.5C13.9477 18.75 13.5 18.3023 13.5 17.75C13.5 17.1977 13.9477 16.75 14.5 16.75H20.5Z" fill="currentColor" />
    <path d="M4.75 3.01562V14.1348C3.16441 14.5724 2 16.0252 2 17.75C2 19.8211 3.67893 21.5 5.75 21.5C7.82107 21.5 9.5 19.8211 9.5 17.75C9.5 16.0336 8.34692 14.5866 6.77316 14.1413C6.91795 12.2422 7.73662 10.4489 9.09277 9.09277C10.4489 7.73662 12.2422 6.91795 14.1413 6.77316C14.5866 8.34692 16.0336 9.5 17.75 9.5C19.8211 9.5 21.5 7.82107 21.5 5.75C21.5 3.67893 19.8211 2 17.75 2C16.0183 2 14.5607 3.17384 14.1296 4.76925C11.7038 4.91991 9.4073 5.95012 7.67871 7.67871C7.34195 8.01547 7.03242 8.37437 6.75 8.75098V3.01562C6.75 2.46334 6.30228 2.01562 5.75 2.01562C5.19772 2.01562 4.75 2.46334 4.75 3.01562Z" fill="currentColor" />
</svg>