<svg xmlns="http://www.w3.org/2000/svg" width="24" height="24" viewBox="0 0 24 24" fill="none">
    <path d="M10.75 20.75V2.74997C10.75 2.19768 11.1977 1.74997 11.75 1.74997C12.3023 1.74997 12.75 2.19768 12.75 2.74997V20.75C12.75 21.3023 12.3023 21.75 11.75 21.75C11.1977 21.75 10.75 21.3023 10.75 20.75Z" fill="currentColor" />
    <path d="M1 5.74997C1 7.47473 2.16441 8.92754 3.75 9.36516V14.1348C2.16441 14.5724 1 16.0252 1 17.75C1 19.821 2.67893 21.5 4.75 21.5C6.82107 21.5 8.5 19.821 8.5 17.75C8.5 16.0252 7.33559 14.5724 5.75 14.1348V9.36516C7.33559 8.92754 8.5 7.47473 8.5 5.74997C8.5 3.6789 6.82107 1.99997 4.75 1.99997C2.67893 1.99997 1 3.6789 1 5.74997Z" fill="currentColor" />
    <path d="M15 5.74997C15 7.46609 16.1528 8.91297 17.7262 9.35851C17.6555 10.2732 17.4279 11.1706 17.0518 12.0107C16.5923 13.0369 15.921 13.9555 15.083 14.705C14.6718 15.0732 14.6369 15.7047 15.0049 16.1162C15.3731 16.5278 16.0053 16.5635 16.417 16.1953C17.4644 15.2584 18.3026 14.1107 18.877 12.8281C19.3666 11.7344 19.6551 10.5632 19.7302 9.37056C21.3259 8.93961 22.5 7.4819 22.5 5.74997C22.5 3.6789 20.8211 1.99997 18.75 1.99997C16.6789 1.99997 15 3.6789 15 5.74997Z" fill="currentColor" />
</svg>