<svg xmlns="http://www.w3.org/2000/svg" width="24" height="24" viewBox="0 0 24 24" fill="none">
    <path d="M17.75 10.75V7.75005C17.75 7.48483 17.6446 7.23055 17.457 7.04302C17.2695 6.85548 17.0152 6.75005 16.75 6.75005H14.164L15.457 8.04302C15.8475 8.43354 15.8475 9.06655 15.457 9.45708C15.0665 9.8476 14.4335 9.8476 14.043 9.45708L11.043 6.45708C10.6524 6.06655 10.6524 5.43354 11.043 5.04302L14.043 2.04302C14.4335 1.65249 15.0665 1.65249 15.457 2.04302C15.8475 2.43354 15.8475 3.06655 15.457 3.45708L14.164 4.75005H16.75C17.5456 4.75005 18.3085 5.06634 18.8711 5.62895C19.4337 6.19156 19.75 6.9544 19.75 7.75005V10.75C19.75 11.3023 19.3023 11.75 18.75 11.75C18.1977 11.75 17.75 11.3023 17.75 10.75Z" fill="currentColor" />
    <path d="M8.04297 14.043C8.43349 13.6525 9.06651 13.6525 9.45703 14.043L12.457 17.043C12.8476 17.4336 12.8476 18.0666 12.457 18.4571L9.45703 21.4571C9.06651 21.8476 8.43349 21.8476 8.04297 21.4571C7.65244 21.0666 7.65244 20.4336 8.04297 20.043L9.33594 18.7501H6.75C5.95435 18.7501 5.19151 18.4338 4.62891 17.8712C4.0663 17.3085 3.75 16.5457 3.75 15.7501V12.7501C3.75 12.1978 4.19772 11.7501 4.75 11.7501C5.30228 11.7501 5.75 12.1978 5.75 12.7501V15.7501C5.75 16.0153 5.85543 16.2696 6.04297 16.4571C6.23051 16.6446 6.48478 16.7501 6.75 16.7501H9.33594L8.04297 15.4571C7.65244 15.0666 7.65244 14.4336 8.04297 14.043Z" fill="currentColor" />
    <path d="M8.5 5.75006C8.5 7.82113 6.82107 9.50006 4.75 9.50006C2.67893 9.50006 1 7.82113 1 5.75006C1 3.67899 2.67893 2.00006 4.75 2.00006C6.82107 2.00006 8.5 3.67899 8.5 5.75006Z" fill="currentColor" />
    <path d="M22.5 17.7501C22.5 19.8211 20.8211 21.5001 18.75 21.5001C16.6789 21.5001 15 19.8211 15 17.7501C15 15.679 16.6789 14.0001 18.75 14.0001C20.8211 14.0001 22.5 15.679 22.5 17.7501Z" fill="currentColor" />
</svg>