<svg xmlns="http://www.w3.org/2000/svg" width="24" height="24" viewBox="0 0 24 24" fill="none">
    <path d="M3.6875 5.45166C4.33021 4.53836 5.57695 4.56047 6.28418 5.26709L9.34277 8.32568C11.1076 7.04899 13.5882 7.20583 15.1777 8.79541C16.7672 10.3849 16.923 12.8646 15.6465 14.6294L18.7324 17.7153C19.4392 18.4226 19.4613 19.6693 18.5479 20.312C16.8131 21.5324 14.6978 22.2495 12.417 22.2495C6.52578 22.2495 1.75001 17.4737 1.75 11.5825C1.75006 9.30182 2.46715 7.1863 3.6875 5.45166ZM13.7637 10.2095C12.9588 9.40463 11.7439 9.25955 10.791 9.77393L14.1973 13.1802C14.7112 12.2275 14.5683 11.0141 13.7637 10.2095ZM17.75 5.25049C18.3023 5.25049 18.75 5.6982 18.75 6.25049C18.75 6.80278 18.3023 7.25049 17.75 7.25049C17.1977 7.25049 16.75 6.80277 16.75 6.25049C16.75 5.69821 17.1977 5.25049 17.75 5.25049ZM21.25 1.75049C21.8023 1.75049 22.25 2.1982 22.25 2.75049C22.25 3.30278 21.8023 3.75049 21.25 3.75049C20.6977 3.75049 20.25 3.30277 20.25 2.75049C20.25 2.19821 20.6977 1.75049 21.25 1.75049Z" fill="currentColor" />
</svg>