<svg xmlns="http://www.w3.org/2000/svg" width="24" height="24" viewBox="0 0 24 24" fill="none">
    <path d="M5.25 13.2539V15.8686C5.25 16.8345 5.75676 17.7299 6.58496 18.227L9.75684 20.1303C10.4344 20.5368 11.2098 20.7514 12 20.7514C12.7902 20.7514 13.5656 20.5368 14.2432 20.1303L17.415 18.227C18.2432 17.7299 18.75 16.8345 18.75 15.8686V13.2539L17.25 13.9645L13.8076 15.5951C13.2426 15.8627 12.6252 16.0014 12 16.0014C11.3748 16.0014 10.7574 15.8627 10.1924 15.5951L6.75 13.9645L5.25 13.2539Z" fill="currentColor" />
    <path d="M21.8691 7.6084C22.407 7.86319 22.75 8.40485 22.75 9V15C22.75 15.5523 22.3023 16 21.75 16C21.1977 16 20.75 15.5523 20.75 15V10.9217L13.2725 14.4639C12.8747 14.6522 12.4401 14.75 12 14.75C11.5599 14.75 11.1253 14.6522 10.7275 14.4639L2.13086 10.3916C1.59301 10.1368 1.25 9.59515 1.25 9C1.25 8.40485 1.59301 7.86319 2.13086 7.6084L10.7275 3.53613C11.1253 3.34779 11.5599 3.25 12 3.25C12.4401 3.25 12.8747 3.34779 13.2725 3.53613L21.8691 7.6084Z" fill="currentColor" />
</svg>