<svg xmlns="http://www.w3.org/2000/svg" width="24" height="24" viewBox="0 0 24 24" fill="none">
    <path d="M19.75 10.7474L21.25 10.7479V4.5C21.25 2.98122 20.0188 1.75 18.5 1.75H12.25V3.25V10.7444L19.75 10.7474Z" fill="currentColor" />
    <path fill-rule="evenodd" clip-rule="evenodd" d="M10.75 3.25V1.75H4.5C2.98122 1.75 1.75 2.98122 1.75 4.5V10.7403L3.25 10.7409L10.75 10.7438V3.25Z" fill="currentColor" />
    <path fill-rule="evenodd" clip-rule="evenodd" d="M3.25 12.2428L1.75 12.2422V18.5019C1.75 20.0206 2.98122 21.2519 4.5 21.2519H10.75V19.7519V12.2457L3.25 12.2428Z" fill="currentColor" />
    <path d="M16.7451 20.75V18.7451H14.75C14.1978 18.7451 13.7501 18.2973 13.75 17.7451C13.75 17.1928 14.1977 16.7451 14.75 16.7451H16.7451V14.75C16.7451 14.1977 17.1928 13.75 17.7451 13.75C18.2973 13.7501 18.7451 14.1978 18.7451 14.75V16.7451H20.75C21.3023 16.7451 21.75 17.1928 21.75 17.7451C21.7499 18.2973 21.3022 18.7451 20.75 18.7451H18.7451V20.75C18.7451 21.3022 18.2973 21.7499 17.7451 21.75C17.1928 21.75 16.7451 21.3023 16.7451 20.75Z" fill="currentColor" />
</svg>