<svg xmlns="http://www.w3.org/2000/svg" width="24" height="24" viewBox="0 0 24 24" fill="none">
    <path d="M2.75 7.75C2.75 6.64543 3.64543 5.75 4.75 5.75C5.85457 5.75 6.75 6.64543 6.75 7.75C6.75 8.85457 5.85457 9.75 4.75 9.75C3.64543 9.75 2.75 8.85457 2.75 7.75Z" fill="currentColor" />
    <path d="M2.75 15.75C2.75 14.6454 3.64543 13.75 4.75 13.75C5.85457 13.75 6.75 14.6454 6.75 15.75C6.75 16.8546 5.85457 17.75 4.75 17.75C3.64543 17.75 2.75 16.8546 2.75 15.75Z" fill="currentColor" />
    <path d="M9.75 7.75C9.75 6.64543 10.6454 5.75 11.75 5.75C12.8546 5.75 13.75 6.64543 13.75 7.75C13.75 8.85457 12.8546 9.75 11.75 9.75C10.6454 9.75 9.75 8.85457 9.75 7.75Z" fill="currentColor" />
    <path d="M9.75 15.75C9.75 14.6454 10.6454 13.75 11.75 13.75C12.8546 13.75 13.75 14.6454 13.75 15.75C13.75 16.8546 12.8546 17.75 11.75 17.75C10.6454 17.75 9.75 16.8546 9.75 15.75Z" fill="currentColor" />
    <path d="M16.75 7.75C16.75 6.64543 17.6454 5.75 18.75 5.75C19.8546 5.75 20.75 6.64543 20.75 7.75C20.75 8.85457 19.8546 9.75 18.75 9.75C17.6454 9.75 16.75 8.85457 16.75 7.75Z" fill="currentColor" />
    <path d="M16.75 15.75C16.75 14.6454 17.6454 13.75 18.75 13.75C19.8546 13.75 20.75 14.6454 20.75 15.75C20.75 16.8546 19.8546 17.75 18.75 17.75C17.6454 17.75 16.75 16.8546 16.75 15.75Z" fill="currentColor" />
</svg>