<svg xmlns="http://www.w3.org/2000/svg" width="24" height="24" viewBox="0 0 24 24" fill="none">
    <path fill-rule="evenodd" clip-rule="evenodd" d="M15.4696 12.4695C15.6103 12.3288 15.8011 12.2498 16 12.2498L20.5 12.25C21.7426 12.25 22.75 13.2574 22.75 14.5C22.75 15.7138 21.7888 16.7032 20.586 16.7484L20.1063 18.667C19.8003 19.8912 18.7003 20.75 17.4384 20.75H6.56155C5.29967 20.75 4.19971 19.8912 3.89366 18.667L3.41401 16.7484C2.21122 16.7032 1.25 15.7138 1.25 14.5C1.25 13.2574 2.25736 12.25 3.5 12.25H12C12.1989 12.25 12.3897 12.329 12.5303 12.4697L14 13.9393L15.4696 12.4695ZM16.3107 13.7498L14.8106 15.25L20.5 15.25C20.9142 15.25 21.25 14.9142 21.25 14.5C21.25 14.0858 20.9142 13.75 20.5 13.75L16.3107 13.7498ZM13.1893 15.25L11.6893 13.75H3.5C3.08579 13.75 2.75 14.0858 2.75 14.5C2.75 14.9142 3.08579 15.25 3.5 15.25L13.1893 15.25Z" fill="currentColor" />
    <path d="M14.5 3.25C18.2279 3.25 21.25 6.27208 21.25 10C21.25 10.4142 20.9142 10.75 20.5 10.75H3.5C3.08579 10.75 2.75 10.4142 2.75 10C2.75 6.27208 5.77208 3.25 9.5 3.25H14.5ZM10.5303 5.96973C10.2374 5.67683 9.76262 5.67683 9.46973 5.96973L8.46973 6.96973C8.17683 7.26262 8.17683 7.73738 8.46973 8.03027C8.76262 8.32317 9.23738 8.32317 9.53027 8.03027L10.5303 7.03027C10.8232 6.73738 10.8232 6.26262 10.5303 5.96973ZM15 6C14.4477 6 14 6.44772 14 7C14 7.55228 14.4477 8 15 8H15.0088C15.5611 8 16.0088 7.55229 16.0088 7C16.0088 6.44772 15.5611 6 15.0088 6H15Z" fill="currentColor" />
</svg>