<svg xmlns="http://www.w3.org/2000/svg" width="24" height="24" viewBox="0 0 24 24" fill="none">
    <path fill-rule="evenodd" clip-rule="evenodd" d="M1.25 13C1.25 11.4812 2.48122 10.25 4 10.25H6C6.19891 10.25 6.38968 10.329 6.53033 10.4697L9 12.9393L11.4697 10.4697C11.6103 10.329 11.8011 10.25 12 10.25H20C21.5188 10.25 22.75 11.4812 22.75 13C22.75 14.5188 21.5188 15.75 20 15.75H12C11.5858 15.75 11.25 15.4142 11.25 15C11.25 14.5858 11.5858 14.25 12 14.25H20C20.6904 14.25 21.25 13.6904 21.25 13C21.25 12.3096 20.6904 11.75 20 11.75H12.3107L9.53033 14.5303C9.23744 14.8232 8.76256 14.8232 8.46967 14.5303L5.68934 11.75H4C3.30964 11.75 2.75 12.3096 2.75 13C2.75 13.6904 3.30964 14.25 4 14.25H6C6.41421 14.25 6.75 14.5858 6.75 15C6.75 15.4142 6.41421 15.75 6 15.75H4C2.48122 15.75 1.25 14.5188 1.25 13Z" fill="currentColor" />
    <path fill-rule="evenodd" clip-rule="evenodd" d="M2.75 15C2.75 14.5858 3.08579 14.25 3.5 14.25H6C6.19891 14.25 6.38968 14.329 6.53033 14.4697L8.29289 16.2322C8.62623 16.5656 8.79289 16.7322 9 16.7322C9.20711 16.7322 9.37377 16.5656 9.70711 16.2322L11.4697 14.4697C11.6103 14.329 11.8011 14.25 12 14.25H20.5C20.9142 14.25 21.25 14.5858 21.25 15C21.25 18.1756 18.6756 20.75 15.5 20.75H8.5C5.32436 20.75 2.75 18.1756 2.75 15Z" fill="currentColor" />
    <path d="M14.5 3.25C18.2279 3.25 21.25 6.27208 21.25 10V11.0635C21.2499 11.2949 21.1428 11.5133 20.96 11.6553C20.7768 11.7973 20.5379 11.8467 20.3135 11.7891C20.2142 11.7635 20.1091 11.75 20 11.75H12.3105L9.53027 14.5303C9.23738 14.8232 8.76262 14.8232 8.46973 14.5303L5.68945 11.75H4C3.89094 11.75 3.78578 11.7635 3.68652 11.7891C3.46207 11.8467 3.2232 11.7973 3.04004 11.6553C2.85723 11.5133 2.75014 11.2949 2.75 11.0635V10C2.75 6.27208 5.77208 3.25 9.5 3.25H14.5ZM9 7C8.44772 7 8 7.44772 8 8C8 8.55228 8.44772 9 9 9H9.00879C9.56107 9 10.0088 8.55229 10.0088 8C10.0088 7.44772 9.56107 7 9.00879 7H9ZM15.5303 6.46973C15.2374 6.17683 14.7626 6.17683 14.4697 6.46973L13.4697 7.46973C13.1768 7.76262 13.1768 8.23738 13.4697 8.53027C13.7626 8.82317 14.2374 8.82317 14.5303 8.53027L15.5303 7.53027C15.8232 7.23738 15.8232 6.76262 15.5303 6.46973Z" fill="currentColor" />
</svg>