<svg xmlns="http://www.w3.org/2000/svg" width="24" height="24" viewBox="0 0 24 24" fill="none">
    <path fill-rule="evenodd" clip-rule="evenodd" d="M3.30371 12.6855C3.26819 12.5256 3.25 12.3621 3.25 12.1982C3.25004 11.3469 3.73081 10.5683 4.49219 10.1875L10.6484 7.10938C10.7925 7.03732 10.9522 7 11.1133 7H11.2783C11.4474 7 11.6099 7.06707 11.7295 7.18652L11.7793 7.23633C12.0429 7.49998 12.2057 7.84605 12.2422 8.21387L12.25 8.37305L12.2373 8.57227C12.1797 9.03211 11.9252 9.44831 11.5342 9.70898L7.97266 12.084C7.81998 12.1858 7.73518 12.3632 7.75195 12.5459C7.76878 12.7285 7.88419 12.8877 8.05273 12.96C8.59279 13.1914 9.41593 13.6618 10.0947 14.3018C10.7802 14.9481 11.25 15.7 11.25 16.5C11.25 16.7761 11.4739 17 11.75 17C12.0261 17 12.25 16.7761 12.25 16.5C12.25 15.3001 11.553 14.3018 10.7803 13.5732C10.2878 13.109 9.73562 12.7277 9.23828 12.4414L12.0889 10.541C12.3329 10.3783 12.5429 10.1773 12.7158 9.9502C13.1692 10.585 13.9105 11 14.75 11C15.5696 11 16.2941 10.6034 16.75 9.99414C17.2059 10.6034 17.9304 11 18.75 11C19.3137 11 19.8318 10.8108 20.25 10.4961V14.5C20.25 18.0899 17.3399 21 13.75 21H10.3652C7.3187 21 4.68042 18.8841 4.01953 15.9102L3.30371 12.6855Z" fill="currentColor" />
    <path fill-rule="evenodd" clip-rule="evenodd" d="M18.75 10C17.9216 10 17.25 9.32843 17.25 8.5V5C17.25 4.17157 17.9216 3.5 18.75 3.5C19.5784 3.5 20.25 4.17157 20.25 5V8.5C20.25 9.32843 19.5784 10 18.75 10Z" fill="currentColor" />
    <path fill-rule="evenodd" clip-rule="evenodd" d="M14.75 10C13.9216 10 13.25 9.32843 13.25 8.5V4C13.25 3.17157 13.9216 2.5 14.75 2.5C15.5784 2.5 16.25 3.17157 16.25 4V8.5C16.25 9.32843 15.5784 10 14.75 10Z" fill="currentColor" />
    <path fill-rule="evenodd" clip-rule="evenodd" d="M10.75 2.5C11.5784 2.5 12.25 3.17157 12.25 4V6.32129C11.9701 6.11478 11.6304 6 11.2783 6H11.1133C10.7971 6 10.485 6.07352 10.2021 6.21484L9.25 6.69043V4C9.25 3.17157 9.92157 2.5 10.75 2.5Z" fill="currentColor" />
    <path fill-rule="evenodd" clip-rule="evenodd" d="M5.26074 8.68457C5.25337 8.62425 5.25 8.56263 5.25 8.5V5C5.25 4.17157 5.92157 3.5 6.75 3.5C7.57843 3.5 8.25 4.17157 8.25 5V7.19043L5.26074 8.68457Z" fill="currentColor" />
</svg>