<svg xmlns="http://www.w3.org/2000/svg" width="24" height="24" viewBox="0 0 24 24" fill="none">
    <path d="M21.5 17.75C21.5 19.8211 19.8211 21.5 17.75 21.5H5.75C3.67893 21.5 2 19.8211 2 17.75V10.75C2 9.23122 3.23122 8 4.75 8H18.75C20.2688 8 21.5 9.23122 21.5 10.75V17.75Z" fill="currentColor" />
    <path d="M14.75 9V7C14.75 5.34315 13.4069 4 11.75 4C10.0931 4 8.75 5.34315 8.75 7V9C8.75 9.55228 8.30228 10 7.75 10C7.19772 10 6.75 9.55228 6.75 9V7C6.75 4.23858 8.98858 2 11.75 2C14.5114 2 16.75 4.23858 16.75 7V9C16.75 9.55228 16.3023 10 15.75 10C15.1977 10 14.75 9.55228 14.75 9Z" fill="currentColor" />
</svg>