<svg xmlns="http://www.w3.org/2000/svg" width="24" height="24" viewBox="0 0 24 24" fill="none">
    <path d="M10.625 2.06472V1.75C10.625 1.19772 11.0727 0.75 11.625 0.75C12.1773 0.75 12.625 1.19772 12.625 1.75V2.06472C14.3116 2.28404 15.8898 3.05386 17.1055 4.26953C18.3211 5.4852 19.091 7.06343 19.3103 8.75H19.625C20.1773 8.75 20.625 9.19771 20.625 9.75C20.625 10.3023 20.1773 10.75 19.625 10.75H3.625C3.07272 10.75 2.625 10.3023 2.625 9.75C2.625 9.19771 3.07272 8.75 3.625 8.75H3.93972C4.15904 7.06343 4.92886 5.4852 6.14453 4.26953C7.3602 3.05386 8.93843 2.28404 10.625 2.06472Z" fill="currentColor" />
    <path fill-rule="evenodd" clip-rule="evenodd" d="M8.17188 20.5449L6.375 19.9462V15.5537L7.55566 15.1602C8.37137 14.8883 9.22612 14.75 10.0859 14.75H10.5166C11.1706 14.75 11.8225 14.8306 12.457 14.9893L14.1064 15.4014C14.4112 15.4776 14.625 15.7513 14.625 16.0654C14.625 16.4152 14.3627 16.7036 14.0241 16.7449C13.9967 16.7483 13.9688 16.75 13.9404 16.75H13.9238H11.625C11.0727 16.75 10.625 17.1977 10.625 17.75C10.625 18.3023 11.0727 18.75 11.625 18.75H13.9238C14.0413 18.75 14.1582 18.7431 14.274 18.7295C14.8292 18.6642 15.3578 18.4448 15.7979 18.0928L19.8438 14.8555C19.9272 14.7887 20.0361 14.75 20.1475 14.75C20.4141 14.75 20.625 14.968 20.625 15.2188C20.6249 15.3282 20.5867 15.4345 20.5166 15.5186L17.3564 19.3105C16.5965 20.2225 15.4703 20.75 14.2832 20.75H9.43652C9.00674 20.75 8.57962 20.6808 8.17188 20.5449ZM5.93715 21.9079L7.53906 22.4424C8.15082 22.6463 8.79167 22.75 9.43652 22.75H14.2832C16.0639 22.75 17.7526 21.9588 18.8926 20.5908L22.0527 16.7988C22.4223 16.3553 22.6249 15.7961 22.625 15.2188C22.625 13.8475 21.5027 12.75 20.1475 12.75C19.5865 12.75 19.0363 12.9407 18.5947 13.2939L16.4193 15.0342C16.1004 14.2685 15.4349 13.6718 14.5918 13.4609L12.9424 13.0488C12.1492 12.8505 11.3342 12.75 10.5166 12.75H10.0859C9.01112 12.75 7.94252 12.9228 6.92285 13.2627L5.93702 13.5919C5.61636 13.2289 5.14742 13 4.625 13H2.625C1.6585 13 0.875 13.7835 0.875 14.75V20.75C0.875 21.7165 1.6585 22.5 2.625 22.5H4.625C5.14749 22.5 5.6165 22.271 5.93715 21.9079Z" fill="currentColor" />
</svg>