<svg xmlns="http://www.w3.org/2000/svg" width="24" height="24" viewBox="0 0 24 24" fill="none">
    <path d="M14.25 3C14.25 2.30964 13.6904 1.75 13 1.75C12.3096 1.75 11.75 2.30964 11.75 3V9.25C11.75 9.52614 11.5261 9.75 11.25 9.75C10.9739 9.75 10.75 9.52614 10.75 9.25V5C10.75 4.30964 10.1904 3.75 9.5 3.75C8.80964 3.75 8.25 4.30964 8.25 5V14.25C8.25 14.4591 8.11986 14.6461 7.92383 14.7188C7.72759 14.7913 7.50629 14.7341 7.37012 14.5752L4.98535 11.793C4.68995 11.4484 4.25857 11.25 3.80469 11.25H3.66895C2.88529 11.25 2.25002 11.8853 2.25 12.6689C2.25 12.9441 2.33038 13.213 2.48047 13.4434L7.94238 20.4092C8.60577 21.2552 9.62117 21.7499 10.6963 21.75H17.75C19.683 21.75 21.25 20.183 21.25 18.25V8C21.25 7.30964 20.6904 6.75 20 6.75C19.3096 6.75 18.75 7.30964 18.75 8V10.75C18.75 11.0261 18.5261 11.25 18.25 11.25C17.9739 11.25 17.75 11.0261 17.75 10.75V5C17.75 4.30964 17.1904 3.75 16.5 3.75C15.8096 3.75 15.25 4.30964 15.25 5V9.75C15.25 10.0261 15.0261 10.25 14.75 10.25C14.4739 10.25 14.25 10.0261 14.25 9.75V3Z" fill="currentColor" />
    <path fill-rule="evenodd" clip-rule="evenodd" d="M13 1.75C13.6904 1.75 14.25 2.30964 14.25 3V9.75C14.25 10.0261 14.4739 10.25 14.75 10.25C15.0261 10.25 15.25 10.0261 15.25 9.75V5C15.25 4.30964 15.8096 3.75 16.5 3.75C17.1904 3.75 17.75 4.30964 17.75 5V10.75C17.75 11.0261 17.9739 11.25 18.25 11.25C18.5261 11.25 18.75 11.0261 18.75 10.75V8C18.75 7.30964 19.3096 6.75 20 6.75C20.6904 6.75 21.25 7.30964 21.25 8V18.25C21.25 20.183 19.683 21.75 17.75 21.75H10.6963C9.62117 21.7499 8.60577 21.2552 7.94238 20.4092L2.48047 13.4434C2.33038 13.213 2.25 12.9441 2.25 12.6689C2.25002 11.8853 2.88529 11.25 3.66895 11.25H3.80469C4.25857 11.25 4.68995 11.4484 4.98535 11.793L7.37012 14.5752C7.50629 14.7341 7.72759 14.7913 7.92383 14.7188C8.11986 14.6461 8.25 14.4591 8.25 14.25V5C8.25 4.30964 8.80964 3.75 9.5 3.75C10.1904 3.75 10.75 4.30964 10.75 5V9.25C10.75 9.52614 10.9739 9.75 11.25 9.75C11.5261 9.75 11.75 9.52614 11.75 9.25V3C11.75 2.30964 12.3096 1.75 13 1.75Z" fill="currentColor" />
</svg>