<svg xmlns="http://www.w3.org/2000/svg" width="24" height="24" viewBox="0 0 24 24" fill="none">
    <path d="M20.8056 14.3446C20.8054 14.1198 20.6206 13.9376 20.3926 13.9375H14C13.966 13.9375 13.9325 13.9352 13.8994 13.9319C13.1371 13.9092 12.3839 13.7576 11.6748 13.478L10.2364 12.9108C9.73801 12.7143 9.49513 12.1565 9.69431 11.6652C9.89368 11.1739 10.4595 10.9345 10.958 11.1308L12.3974 11.698C12.9376 11.911 13.514 12.0208 14.0959 12.0208H14.7225C14.8604 12.0208 14.9722 11.9106 14.9722 11.7747C14.9722 11.4355 14.7672 11.1289 14.451 10.9951L9.85666 9.05412C9.2516 8.79851 8.59994 8.66668 7.94165 8.66667H6.22222C5.68528 8.66667 5.25 8.23761 5.25 7.70833C5.25 7.17906 5.68528 6.75 6.22222 6.75H7.94165C8.86327 6.75001 9.77575 6.93495 10.6229 7.29281L15.2162 9.23287C16.2476 9.66858 16.9167 10.6686 16.9167 11.7747C16.9167 11.858 16.9108 11.94 16.9015 12.0208H20.3926C21.6945 12.021 22.7499 13.0613 22.75 14.3446C22.75 15.3822 22.0522 16.2944 21.0401 16.5795L15.9634 18.0095C15.3961 18.1692 14.8084 18.25 14.2184 18.25C13.6661 18.25 13.1162 18.1788 12.5825 18.0385L5.97157 16.3006C5.4529 16.1641 5.1449 15.6393 5.28323 15.1279C5.42168 14.6167 5.95414 14.3131 6.47287 14.4494L13.0828 16.1864C13.4531 16.2837 13.8351 16.3333 14.2184 16.3333C14.6279 16.3333 15.0361 16.2767 15.4299 16.1658L20.5055 14.7367C20.6829 14.6868 20.8056 14.5265 20.8056 14.3446Z" fill="currentColor" />
    <path d="M5 17.25C5.9665 17.25 6.75 16.4665 6.75 15.5V7.5C6.75 6.5335 5.9665 5.75 5 5.75H3C2.0335 5.75 1.25 6.5335 1.25 7.5V15.5C1.25 16.4665 2.0335 17.25 3 17.25H5Z" fill="currentColor" />
</svg>