<svg xmlns="http://www.w3.org/2000/svg" width="24" height="24" viewBox="0 0 24 24" fill="none">
    <path fill-rule="evenodd" clip-rule="evenodd" d="M1.46441 16.5256C2.23494 15.7392 3.31107 15.25 4.5001 15.25C6.84731 15.25 8.7501 17.1528 8.7501 19.5C8.7501 20.689 8.26081 21.7651 7.47453 22.5357C7.1808 22.8235 6.71006 22.8211 6.41926 22.5303L1.46977 17.5808C1.17898 17.29 1.17659 16.8193 1.46441 16.5256Z" fill="currentColor" />
    <path fill-rule="evenodd" clip-rule="evenodd" d="M11.7072 12.2929C12.0977 12.6834 12.0977 13.3166 11.7072 13.7071L7.70721 17.7071C7.31668 18.0976 6.68352 18.0976 6.29299 17.7071C5.90247 17.3166 5.90247 16.6834 6.29299 16.2929L10.293 12.2929C10.6835 11.9024 11.3167 11.9024 11.7072 12.2929Z" fill="currentColor" />
    <path fill-rule="evenodd" clip-rule="evenodd" d="M17.9084 1.25563C18.1376 1.22742 18.3671 1.3062 18.5304 1.4695L22.5304 5.4695C22.6937 5.63281 22.7725 5.86235 22.7443 6.09157C22.716 6.32072 22.5839 6.52454 22.3859 6.64333C21.0929 7.41916 20.296 8.31859 19.7375 9.3611C18.7705 11.166 17.3996 13.0165 15.2599 13.7947L12.756 14.7049C12.4823 14.8042 12.1758 14.736 11.9699 14.53L9.46988 12.03C9.26396 11.8241 9.19574 11.5176 9.29507 11.2439L10.2052 8.74001C10.9835 6.60017 12.8345 5.22904 14.6398 4.26247C15.6822 3.7043 16.58 2.9083 17.3566 1.61403C17.4754 1.41605 17.6792 1.28391 17.9084 1.25563ZM14.5002 8.49977C13.9479 8.49977 13.5002 8.94749 13.5002 9.49977C13.5002 10.0175 13.8935 10.4436 14.3976 10.4949L14.5002 10.4998C15.0524 10.4998 15.5002 10.0521 15.5002 9.49977C15.5002 8.98206 15.1069 8.55594 14.6027 8.50466L14.5002 8.49977Z" fill="currentColor" />
</svg>