<svg xmlns="http://www.w3.org/2000/svg" width="24" height="24" viewBox="0 0 24 24" fill="none">
    <path fill-rule="evenodd" clip-rule="evenodd" d="M11.8086 21.25C11.8063 21.25 11.8119 21.2498 11.8086 21.25C11.805 21.2502 11.7925 21.2509 11.7901 21.2511L11.7793 21.252L11.7685 21.2511C11.7623 21.2506 11.7562 21.25 11.75 21.25C9.41823 21.25 7.24072 20.0847 5.94727 18.1445L2.48828 12.9561C2.3329 12.723 2.25 12.4491 2.25 12.1689C2.25002 11.3853 2.88529 10.75 3.66895 10.75H3.80469C4.25857 10.75 4.68995 10.9484 4.98535 11.293L7.37012 14.0752C7.50629 14.2341 7.72759 14.2913 7.92383 14.2188C8.11986 14.1461 8.25 13.9591 8.25 13.75V3.5C8.25 2.80964 8.80964 2.25 9.5 2.25" fill="currentColor" />
    <path fill-rule="evenodd" clip-rule="evenodd" d="M9.5 2.25C10.1904 2.25 10.75 2.80964 10.75 3.5V10.75C10.75 11.0261 10.9739 11.25 11.25 11.25C11.5261 11.25 11.75 11.0261 11.75 10.75V8.5C11.75 7.80964 12.3096 7.25 13 7.25C13.6904 7.25 14.25 7.80964 14.25 8.5V11.25C14.25 11.5261 14.4739 11.75 14.75 11.75C15.0261 11.75 15.25 11.5261 15.25 11.25V9.5C15.25 8.80964 15.8096 8.25 16.5 8.25C17.1904 8.25 17.75 8.80964 17.75 9.5V11.25C17.75 11.5261 17.9739 11.75 18.25 11.75C18.5261 11.75 18.75 11.5261 18.75 11.25V5.5C18.75 4.80964 19.3096 4.25 20 4.25C20.6904 4.25 21.25 4.80964 21.25 5.5V14.5498C21.25 18.2501 18.2501 21.25 14.5498 21.25H11.8086C11.8024 21.25 11.7962 21.2506 11.7901 21.2511C11.7865 21.2514 11.7829 21.2517 11.7793 21.252C11.7757 21.2517 11.7721 21.2514 11.7685 21.2511C11.7623 21.2506 11.7562 21.25 11.75 21.25C9.41823 21.25 7.24072 20.0847 5.94727 18.1445L2.48828 12.9561C2.3329 12.723 2.25 12.4491 2.25 12.1689C2.25002 11.3853 2.88529 10.75 3.66895 10.75H3.80469C4.25857 10.75 4.68995 10.9484 4.98535 11.293L7.37012 14.0752C7.50629 14.2341 7.72759 14.2913 7.92383 14.2188C8.11986 14.1461 8.25 13.9591 8.25 13.75V3.5C8.25 2.80964 8.80964 2.25 9.5 2.25Z" fill="currentColor" />
</svg>