<svg xmlns="http://www.w3.org/2000/svg" width="24" height="24" viewBox="0 0 24 24" fill="none">
    <path d="M19 13.2499C20.5188 13.2499 21.75 14.4812 21.75 15.9999V19.9999C21.75 21.5187 20.5188 22.7499 19 22.7499H5C3.48122 22.7499 2.25 21.5187 2.25 19.9999V15.9999C2.25 14.4812 3.48122 13.2499 5 13.2499H19ZM7 16.9999C6.44772 16.9999 6 17.4477 6 17.9999C6 18.5522 6.44772 18.9999 7 18.9999C7.55228 18.9999 8 18.5522 8 17.9999C8 17.4477 7.55228 16.9999 7 16.9999ZM11 16.9999C10.4477 16.9999 10 17.4477 10 17.9999C10 18.5522 10.4477 18.9999 11 18.9999C11.5523 18.9999 12 18.5522 12 17.9999C12 17.4477 11.5523 16.9999 11 16.9999Z" fill="currentColor" />
    <path d="M10.9999 2.24994C10.9999 1.69765 11.4476 1.24994 11.9999 1.24994C12.5522 1.24994 12.9999 1.69765 12.9999 2.24994V7.83588L15.2929 5.54291C15.6834 5.15238 16.3164 5.15238 16.707 5.54291C17.0975 5.93343 17.0975 6.56645 16.707 6.95697L12.707 10.957C12.3164 11.3475 11.6834 11.3475 11.2929 10.957L7.29289 6.95697C6.90237 6.56645 6.90237 5.93343 7.29289 5.54291C7.68342 5.15238 8.31643 5.15238 8.70696 5.54291L10.9999 7.83588V2.24994Z" fill="currentColor" />
</svg>