<svg xmlns="http://www.w3.org/2000/svg" width="24" height="24" viewBox="0 0 24 24" fill="none">
    <path d="M17.3857 2.25C18.6805 2.25011 19.8231 3.09751 20.1953 4.33496L22.709 12.6953C22.7362 12.7859 22.75 12.88 22.75 12.9746V18.8252C22.7499 20.4409 21.4365 21.7499 19.8174 21.75H4.18262C2.56349 21.7499 1.25011 20.4409 1.25 18.8252V12.9746C1.25004 12.88 1.26382 12.7859 1.29102 12.6953L3.80469 4.33496C4.17687 3.09752 5.31945 2.25011 6.61426 2.25H17.3857ZM14.25 16.1406C13.6977 16.1406 13.25 16.5883 13.25 17.1406C13.25 17.6929 13.6977 18.1406 14.25 18.1406C14.8023 18.1406 15.25 17.6929 15.25 17.1406C15.25 16.5883 14.8023 16.1406 14.25 16.1406ZM18.25 16.1406C17.6977 16.1406 17.25 16.5883 17.25 17.1406C17.25 17.6929 17.6977 18.1406 18.25 18.1406C18.8023 18.1406 19.25 17.6929 19.25 17.1406C19.25 16.5883 18.8023 16.1406 18.25 16.1406ZM6.61426 4.2002C6.182 4.2003 5.8017 4.48334 5.67773 4.89551L3.45801 12.2744H20.542L18.3223 4.89551C18.1983 4.48334 17.818 4.2003 17.3857 4.2002H6.61426Z" fill="currentColor" />
</svg>