<svg xmlns="http://www.w3.org/2000/svg" width="24" height="24" viewBox="0 0 24 24" fill="none">
    <path d="M14.75 11.7422C14.75 10.0853 13.4069 8.74219 11.75 8.74219C10.0931 8.74219 8.75 10.0853 8.75 11.7422C8.75 12.2901 8.89585 12.801 9.15039 13.2412C9.42686 13.7191 9.26391 14.3308 8.78613 14.6074C8.30819 14.8839 7.69656 14.7209 7.41992 14.2432C6.99391 13.5067 6.75 12.6512 6.75 11.7422C6.75 8.98076 8.98858 6.74219 11.75 6.74219C14.5114 6.74219 16.75 8.98076 16.75 11.7422C16.75 12.6512 16.5061 13.5067 16.0801 14.2432C15.8034 14.7209 15.1918 14.8839 14.7139 14.6074C14.2361 14.3308 14.0731 13.7191 14.3496 13.2412C14.6042 12.801 14.75 12.2901 14.75 11.7422Z" fill="currentColor" />
    <path d="M19.75 16.75C20.3023 16.75 20.75 17.1977 20.75 17.75C20.75 18.3023 20.3023 18.75 19.75 18.75H3.75C3.19772 18.75 2.75 18.3023 2.75 17.75C2.75 17.1977 3.19772 16.75 3.75 16.75H19.75Z" fill="currentColor" />
    <path d="M16.75 20.75C17.3023 20.75 17.75 21.1977 17.75 21.75C17.75 22.3023 17.3023 22.75 16.75 22.75H6.75C6.19772 22.75 5.75 22.3023 5.75 21.75C5.75 21.1977 6.19772 20.75 6.75 20.75H16.75Z" fill="currentColor" />
    <path d="M3.75 10.7451C4.30228 10.7451 4.75 11.1928 4.75 11.7451C4.74994 12.2973 4.30225 12.7451 3.75 12.7451H1.75C1.19775 12.7451 0.750063 12.2973 0.75 11.7451C0.75 11.1928 1.19772 10.7451 1.75 10.7451H3.75ZM21.75 10.7451C22.3023 10.7451 22.75 11.1928 22.75 11.7451C22.7499 12.2973 22.3022 12.7451 21.75 12.7451H19.75C19.1978 12.7451 18.7501 12.2973 18.75 11.7451C18.75 11.1928 19.1977 10.7451 19.75 10.7451H21.75ZM3.96875 3.97656C4.35928 3.58653 4.99243 3.58629 5.38281 3.97656L6.79688 5.3916C7.18716 5.78215 7.18732 6.41522 6.79688 6.80566C6.40643 7.19608 5.77335 7.19594 5.38281 6.80566L3.96875 5.3916C3.57823 5.00108 3.57823 4.36709 3.96875 3.97656ZM18.1104 3.96875C18.5008 3.57849 19.1339 3.57859 19.5244 3.96875C19.9149 4.35927 19.9149 4.99326 19.5244 5.38379L18.1104 6.79785C17.7199 7.18814 17.0868 7.18814 16.6963 6.79785C16.3058 6.40738 16.3059 5.77433 16.6963 5.38379L18.1104 3.96875ZM10.7451 3.75V1.75C10.7451 1.19772 11.1928 0.75 11.7451 0.75C12.2973 0.750063 12.7451 1.19775 12.7451 1.75V3.75C12.7451 4.30225 12.2973 4.74994 11.7451 4.75C11.1928 4.75 10.7451 4.30228 10.7451 3.75Z" fill="currentColor" />
</svg>