<svg xmlns="http://www.w3.org/2000/svg" width="24" height="24" viewBox="0 0 24 24" fill="none">
    <path d="M22.5002 16.7502C22.5002 18.269 21.2689 19.5002 19.7502 19.5002H3.75015C2.23137 19.5002 1.00015 18.269 1.00015 16.7502V6.75024C1.00015 5.23146 2.23137 4.00024 3.75015 4.00024H19.7502C21.2689 4.00024 22.5002 5.23146 22.5002 6.75024V16.7502ZM15.7502 15.7502C17.407 15.7502 18.7502 14.4071 18.7502 12.7502V10.7502C18.7502 9.09339 17.407 7.75024 15.7502 7.75024H13.7502C13.1979 7.75024 12.7502 8.19796 12.7502 8.75024V14.7502C12.7502 15.3025 13.1979 15.7502 13.7502 15.7502H15.7502ZM8.75015 12.7502V14.7502C8.75015 15.3025 9.19787 15.7502 9.75015 15.7502C10.3024 15.7502 10.7502 15.3025 10.7502 14.7502V8.75024C10.7502 8.19796 10.3024 7.75024 9.75015 7.75024C9.19787 7.75024 8.75015 8.19796 8.75015 8.75024V10.7502H6.75015V8.75024C6.75015 8.19796 6.30244 7.75024 5.75015 7.75024C5.19787 7.75024 4.75015 8.19796 4.75015 8.75024V14.7502C4.75015 15.3025 5.19787 15.7502 5.75015 15.7502C6.30244 15.7502 6.75015 15.3025 6.75015 14.7502V12.7502H8.75015Z" fill="currentColor" />
    <path fill-rule="evenodd" clip-rule="evenodd" d="M15.7502 9.75024C16.3024 9.75024 16.7502 10.198 16.7502 10.7502V12.7502C16.7502 13.3025 16.3024 13.7502 15.7502 13.7502H14.7502V9.75024H15.7502Z" fill="currentColor" />
</svg>