<svg xmlns="http://www.w3.org/2000/svg" width="24" height="24" viewBox="0 0 24 24" fill="none">
    <path d="M22.5 12.75C22.5 14.2688 21.2688 15.5 19.75 15.5H19.3682C19.2735 15.5 19.1869 15.554 19.1445 15.6387L18.9736 15.9795C18.5078 16.9111 17.5553 17.5 16.5137 17.5H6.98633C5.9447 17.5 4.9922 16.9111 4.52637 15.9795L4.35547 15.6387C4.31312 15.554 4.22653 15.5 4.13184 15.5H3.75C2.23122 15.5 1 14.2688 1 12.75V8.75C1 7.23122 2.23122 6 3.75 6H19.75C21.2688 6 22.5 7.23122 22.5 8.75V12.75ZM17.75 10.75C17.75 10.1977 17.3023 9.75 16.75 9.75H6.75C6.19772 9.75 5.75 10.1977 5.75 10.75C5.75 11.3023 6.19772 11.75 6.75 11.75H16.75C17.3023 11.75 17.75 11.3023 17.75 10.75Z" fill="currentColor" />
</svg>