<svg xmlns="http://www.w3.org/2000/svg" width="24" height="24" viewBox="0 0 24 24" fill="none">
    <path d="M10.25 17.75V12.75H4.25V17.75C4.25 18.3023 3.80228 18.75 3.25 18.75C2.69772 18.75 2.25 18.3023 2.25 17.75V5.75C2.25 5.19772 2.69772 4.75 3.25 4.75C3.80228 4.75 4.25 5.19772 4.25 5.75V10.75H10.25V5.75C10.25 5.19772 10.6977 4.75 11.25 4.75C11.8023 4.75 12.25 5.19772 12.25 5.75V17.75C12.25 18.3023 11.8023 18.75 11.25 18.75C10.6977 18.75 10.25 18.3023 10.25 17.75Z" fill="currentColor" />
    <path d="M17.25 14.75V16.75H19.25V14.75H17.25ZM21.25 16.75C21.25 17.8546 20.3546 18.75 19.25 18.75H17.25C16.1454 18.75 15.25 17.8546 15.25 16.75V10.75C15.25 9.64543 16.1454 8.75 17.25 8.75H20.25C20.8023 8.75 21.25 9.19772 21.25 9.75C21.25 10.3023 20.8023 10.75 20.25 10.75H17.25V12.75H19.25C20.3546 12.75 21.25 13.6454 21.25 14.75V16.75Z" fill="currentColor" />
</svg>