<svg xmlns="http://www.w3.org/2000/svg" width="24" height="24" viewBox="0 0 24 24" fill="none">
    <path d="M11.75 1.87402C17.1348 1.87402 21.5 6.21126 21.5 11.5615C21.5 13.0881 21.0669 15.1938 20.5576 16.7119C20.5421 16.758 20.5224 16.8017 20.501 16.8438L18.9492 15.292C19.2952 14.0385 19.5498 12.5887 19.5498 11.5615C19.5498 7.28132 16.0578 3.81152 11.75 3.81152C10.5025 3.81152 9.32401 4.10371 8.27832 4.62109L6.8457 3.18848C8.28655 2.35352 9.96172 1.87402 11.75 1.87402Z" fill="currentColor" />
    <path d="M3.70711 2.17082C3.31658 1.7803 2.68342 1.7803 2.29289 2.17082C1.90237 2.56135 1.90237 3.19451 2.29289 3.58504L4.17391 5.46605C2.81499 7.13063 2.00002 9.25112 2 11.5615C2 12.8972 2.33183 14.6763 2.75586 16.1172L2.94238 16.7119C2.96634 16.7833 2.99786 16.85 3.03574 16.9116C3.0659 17.1251 3.11543 17.3389 3.1854 17.5507L3.68638 19.0537C4.38201 20.8494 6.3677 21.805 8.2147 21.1894L8.41196 21.1005C8.73382 20.9304 9.012 20.6662 9.20395 20.3671C9.42089 20.0291 9.58653 19.5494 9.452 19.039L7.61216 13.8017C7.23372 13.085 6.38933 12.7945 5.69614 12.8984L5.48716 12.9443C4.98916 13.1104 4.55118 13.3741 4.18712 13.7071C4.04139 12.9221 3.9502 12.1593 3.9502 11.5615C3.95021 9.78872 4.55015 8.15599 5.55848 6.85062L15.2597 16.5519L14.2985 19.2891C14.164 19.7994 14.3296 20.2791 14.5465 20.6172C14.7659 20.9588 15.0981 21.2557 15.4792 21.418L15.7145 21.4941C17.0138 21.8549 18.3579 21.4558 19.2564 20.5485L19.7929 21.085C20.1834 21.4756 20.8166 21.4756 21.2071 21.085C21.5976 20.6945 21.5976 20.0613 21.2071 19.6708L3.70711 2.17082Z" fill="currentColor" />
</svg>