<svg xmlns="http://www.w3.org/2000/svg" width="24" height="24" viewBox="0 0 24 24" fill="none">
    <path d="M16.9999 2.74979C20.3483 2.74979 22.7498 5.45181 22.7499 8.69412C22.7499 10.3563 22.0376 11.9683 21.0575 13.4099C20.9793 13.5249 20.8963 13.6372 20.8143 13.7508H14.0009C12.7583 13.7508 11.751 14.7582 11.7509 16.0008C11.7509 17.2434 12.7582 18.2508 14.0009 18.2508H16.4227C15.5247 18.9854 14.6755 19.6099 13.9911 20.0867C13.5136 20.4194 12.666 20.9635 12.3856 21.1433C12.1483 21.2856 11.8515 21.2856 11.6141 21.1433C11.3337 20.9635 10.4861 20.4194 10.0087 20.0867C9.05494 19.4222 7.77935 18.473 6.50085 17.3347C5.22555 16.1994 3.92712 14.8585 2.94226 13.4099C1.96213 11.9683 1.24988 10.3563 1.24988 8.69412C1.24993 5.45181 3.65144 2.74979 6.99988 2.74979C8.59172 2.74979 10.1337 3.26246 11.9999 4.96463C13.8661 3.26246 15.408 2.74979 16.9999 2.74979Z" fill="currentColor" />
    <path d="M21.001 15.0011C21.5533 15.0011 22.001 15.4488 22.001 16.0011C22.001 16.5534 21.5533 17.0011 21.001 17.0011H14.001C13.4487 17.0011 13.001 16.5534 13.001 16.0011C13.001 15.4488 13.4487 15.0011 14.001 15.0011H21.001Z" fill="currentColor" />
</svg>