<svg xmlns="http://www.w3.org/2000/svg" width="24" height="24" viewBox="0 0 24 24" fill="none">
    <path d="M22.5 8.44543C22.5 11.301 20.4887 14.0634 18.4326 16.172C16.3394 18.3185 14.0209 19.9666 13.0869 20.5978C12.6848 20.8695 12.2171 21.0011 11.75 21.0011C11.2829 21.0011 10.8152 20.8695 10.4131 20.5978C9.47909 19.9666 7.16056 18.3185 5.06738 16.172C3.01132 14.0634 1 11.301 1 8.44543C1.00005 5.20312 3.40156 2.5011 6.75 2.5011C8.34184 2.5011 9.88382 3.01377 11.75 4.71594C13.6162 3.01377 15.1582 2.5011 16.75 2.5011C20.0984 2.5011 22.4999 5.20312 22.5 8.44543Z" fill="currentColor" />
</svg>