<svg xmlns="http://www.w3.org/2000/svg" width="24" height="24" viewBox="0 0 24 24" fill="none">
    <path d="M10.4941 5.60259C10.639 5.31095 10.7929 5.00631 10.9492 4.70279C11.0297 4.54659 11.1113 4.38974 11.1932 4.2341C9.57135 2.9142 8.18081 2.5 6.75 2.5C3.40156 2.5 1.00005 5.20202 1 8.44434C1 11.2999 3.01132 14.0623 5.06738 16.1709C7.16056 18.3174 9.47909 19.9655 10.4131 20.5967C10.8152 20.8684 11.2829 21 11.75 21C12.2171 21 12.6848 20.8684 13.0869 20.5967C14.0209 19.9655 16.3394 18.3174 18.4326 16.1709C20.4887 14.0623 22.5 11.2999 22.5 8.44434C22.4999 5.20202 20.0984 2.5 16.75 2.5C15.6201 2.5 14.5154 2.75828 13.302 3.51687C13.2634 3.58212 13.2232 3.65096 13.1816 3.7233C12.9019 4.20974 12.5874 4.79875 12.2832 5.38931C12.0855 5.77317 11.8952 6.15213 11.7241 6.4995C11.519 6.91567 11.3415 7.28649 11.2119 7.56607L13.1162 9.3483L13.1338 9.36588C13.3681 9.60029 13.5 9.91821 13.5 10.2497C13.5 10.5811 13.3681 10.8991 13.1338 11.1335L11.0938 13.2526L12.0068 14.2409C12.288 14.545 12.2699 15.0192 11.9658 15.3004C11.6618 15.5816 11.1875 15.5633 10.9062 15.2594L9.8457 14.1129C9.62411 13.8807 9.5 13.5714 9.5 13.2497C9.50009 12.9183 9.63195 12.6002 9.86621 12.3659L11.8926 10.2585L9.79785 8.29752C9.57315 8.08707 9.50008 7.76059 9.61328 7.47428C9.72344 7.19576 10.0707 6.4546 10.4941 5.60259Z" fill="currentColor" />
</svg>