<svg xmlns="http://www.w3.org/2000/svg" width="24" height="24" viewBox="0 0 24 24" fill="none">
    <path d="M16.5 18V16H14.5C13.9477 16 13.5 15.5523 13.5 15C13.5 14.4477 13.9477 14 14.5 14H16.5V12C16.5 11.4477 16.9477 11 17.5 11C18.0523 11 18.5 11.4477 18.5 12V14H20.5C21.0523 14 21.5 14.4477 21.5 15C21.5 15.5523 21.0523 16 20.5 16H18.5V18C18.5 18.5523 18.0523 19 17.5 19C16.9477 19 16.5 18.5523 16.5 18Z" fill="currentColor" />
    <path fill-rule="evenodd" clip-rule="evenodd" d="M21.0939 12.8292C21.9332 11.4497 22.5 9.96015 22.5 8.44434C22.4999 5.20202 20.0984 2.5 16.75 2.5C15.1582 2.5 13.6162 3.01267 11.75 4.71484C9.88382 3.01267 8.34184 2.5 6.75 2.5C3.40156 2.5 1.00005 5.20202 1 8.44434C1 11.2999 3.01132 14.0623 5.06738 16.1709C7.16056 18.3174 9.47909 19.9655 10.4131 20.5967C10.8152 20.8684 11.2829 21 11.75 21C12.2171 21 12.6848 20.8684 13.0869 20.5967C13.5701 20.2701 14.4239 19.6714 15.4253 18.8723C15.3124 18.6041 15.25 18.3093 15.25 18V17.25H14.5C13.2574 17.25 12.25 16.2426 12.25 15C12.25 13.7574 13.2574 12.75 14.5 12.75H15.25V12C15.25 10.7574 16.2574 9.75 17.5 9.75C18.7426 9.75 19.75 10.7574 19.75 12V12.75H20.5C20.7056 12.75 20.9047 12.7776 21.0939 12.8292Z" fill="currentColor" />
</svg>