<svg xmlns="http://www.w3.org/2000/svg" width="24" height="24" viewBox="0 0 24 24" fill="none">
    <path d="M5 21.75V19.75C5 19.1977 5.44772 18.75 6 18.75C6.55228 18.75 7 19.1977 7 19.75V21.75C7 22.3023 6.55228 22.75 6 22.75C5.44772 22.75 5 22.3023 5 21.75ZM17 21.75V19.75C17 19.1977 17.4477 18.75 18 18.75C18.5523 18.75 19 19.1977 19 19.75V21.75C19 22.3023 18.5523 22.75 18 22.75C17.4477 22.75 17 22.3023 17 21.75Z" fill="currentColor" />
    <path d="M7.4873 7.25C6.96124 8.30593 7.33983 9.60145 8.375 10.1992L8.58008 10.3037C8.8861 10.4412 9.20988 10.5055 9.5293 10.501H14.5293C15.2956 10.4901 16.0372 10.0869 16.4482 9.375C16.8533 8.67329 17.1211 7.96717 17.2139 7.25H19C20.5188 7.25 21.75 8.48122 21.75 10V18C21.75 19.5188 20.5188 20.75 19 20.75H5C3.48122 20.75 2.25 19.5188 2.25 18V10C2.25 8.48122 3.48122 7.25 5 7.25H7.4873ZM8 11C7.44772 11 7 11.4477 7 12V16C7 16.5523 7.44772 17 8 17C8.55228 17 9 16.5523 9 16V12C9 11.4477 8.55228 11 8 11ZM12 11C11.4477 11 11 11.4477 11 12V16C11 16.5523 11.4477 17 12 17C12.5523 17 13 16.5523 13 16V12C13 11.4477 12.5523 11 12 11ZM16 11C15.4477 11 15 11.4477 15 12V16C15 16.5523 15.4477 17 16 17C16.5523 17 17 16.5523 17 16V12C17 11.4477 16.5523 11 16 11Z" fill="currentColor" />
    <path d="M8.63376 1.75027C8.90989 1.272 9.52169 1.10798 9.99997 1.38406C10.4782 1.66019 10.6423 2.27199 10.3662 2.75027C10.0072 3.37203 9.98301 3.7196 10.0058 3.91726C10.0328 4.15011 10.1373 4.3538 10.3662 4.75027C10.5702 5.10358 10.8991 5.65033 10.9804 6.35476C11.0657 7.09445 10.8731 7.87224 10.3662 8.75027C10.0901 9.22854 9.47825 9.39256 8.99997 9.11648C8.52171 8.84035 8.35768 8.22855 8.63376 7.75027C8.99274 7.12851 9.01694 6.78094 8.99411 6.58328C8.96714 6.35043 8.86266 6.14674 8.63376 5.75027C8.42978 5.39696 8.10085 4.85021 8.0195 4.14578C7.9342 3.40609 8.12684 2.62831 8.63376 1.75027ZM13.6338 1.75027C13.9099 1.272 14.5217 1.10798 15 1.38406C15.4782 1.66019 15.6423 2.27199 15.3662 2.75027C15.0072 3.37203 14.983 3.7196 15.0058 3.91726C15.0328 4.15011 15.1373 4.3538 15.3662 4.75027C15.5702 5.10358 15.8991 5.65033 15.9804 6.35476C16.0657 7.09445 15.8731 7.87224 15.3662 8.75027C15.0901 9.22854 14.4783 9.39256 14 9.11648C13.5217 8.84035 13.3577 8.22855 13.6338 7.75027C13.9927 7.12851 14.0169 6.78094 13.9941 6.58328C13.9671 6.35043 13.8627 6.14674 13.6338 5.75027C13.4298 5.39696 13.1008 4.85021 13.0195 4.14578C12.9342 3.40609 13.1268 2.62831 13.6338 1.75027Z" fill="currentColor" />
</svg>