<svg xmlns="http://www.w3.org/2000/svg" width="24" height="24" viewBox="0 0 24 24" fill="none">
    <path d="M1.54302 1.54265C1.93354 1.15212 2.56655 1.15212 2.95708 1.54265L22.4571 21.0426C22.8476 21.4332 22.8476 22.0662 22.4571 22.4567C22.0666 22.8472 21.4335 22.8472 21.043 22.4567L1.54302 2.95671C1.15249 2.56619 1.15249 1.93317 1.54302 1.54265Z" fill="currentColor" />
    <path d="M12.0002 17.8298C12.1666 17.9712 12.3408 18.1147 12.5237 18.2537C13.2772 18.8263 14.2522 19.427 15.3635 19.7771C14.7112 20.7309 13.7226 21.8403 12.386 22.6423C12.1485 22.7848 11.8519 22.7848 11.6145 22.6423C10.2779 21.8404 9.2883 20.7319 8.63597 19.7781C9.74806 19.4281 10.7239 18.8266 11.4778 18.2537C11.6605 18.1147 11.834 17.9711 12.0002 17.8298Z" fill="currentColor" />
    <path d="M7.95042 13.2517C8.19757 13.6875 8.46782 14.0909 8.73949 14.4519C9.43809 15.3801 10.2067 16.1256 10.7512 16.5613C10.9 16.6802 11.0625 16.7731 11.2317 16.8435C11.0698 16.982 10.8997 17.1217 10.7209 17.2576C9.89071 17.8886 8.83709 18.5019 7.69261 18.7332C7.47386 18.7773 7.24613 18.722 7.07249 18.5818C6.28136 17.9425 5.07012 16.328 4.80394 13.9656C5.90395 13.8779 6.95232 13.6101 7.9221 13.1951C7.93152 13.2138 7.93997 13.2333 7.95042 13.2517Z" fill="currentColor" />
    <path d="M17.7297 17.7292C17.4491 18.0994 17.1693 18.3857 16.928 18.5808C16.7544 18.7209 16.5265 18.7762 16.3078 18.7322C15.1635 18.501 14.1097 17.8875 13.2795 17.2566C13.1008 17.1207 12.9306 16.981 12.7688 16.8425C12.9382 16.7719 13.1012 16.6795 13.2502 16.5603C13.7032 16.1978 14.309 15.6199 14.9026 14.9021L17.7297 17.7292Z" fill="currentColor" />
    <path d="M14.0159 14.0154C13.4535 14.7101 12.8741 15.2616 12.469 15.5857C12.1951 15.8047 11.8054 15.8047 11.5315 15.5857C11.067 15.2141 10.3729 14.5438 9.73851 13.7009C9.49484 13.3772 9.2545 13.0194 9.03734 12.6365C9.78059 12.2011 10.4617 11.6716 11.0666 11.0662L14.0159 14.0154Z" fill="currentColor" />
    <path d="M17.1028 13.5671C17.7733 13.7705 18.4731 13.907 19.1955 13.9646C19.1388 14.4684 19.0359 14.9373 18.9065 15.3708L17.1028 13.5671Z" fill="currentColor" />
    <path d="M10.1848 10.1843C8.60219 11.7685 6.41672 12.7497 4.00023 12.7498C3.58607 12.7497 3.25023 12.4139 3.25023 11.9998C3.25023 9.58339 4.23012 7.3964 5.81371 5.81323L10.1848 10.1843Z" fill="currentColor" />
    <path d="M12.0002 1.24976C12.5525 1.24982 13.0002 1.69751 13.0002 2.24976V3.30835C17.3616 3.80475 20.7502 7.50558 20.7502 11.9998C20.7502 12.4139 20.4143 12.7496 20.0002 12.7498C16.4295 12.7497 13.3596 10.6101 11.9993 7.5437C11.9061 7.75356 11.8033 7.95814 11.6946 8.15894L7.8391 4.30347C8.799 3.78354 9.86634 3.43639 11.0002 3.30737V2.24976C11.0002 1.69751 11.448 1.24982 12.0002 1.24976Z" fill="currentColor" />
</svg>