<svg xmlns="http://www.w3.org/2000/svg" width="24" height="24" viewBox="0 0 24 24" fill="none">
    <path d="M11.0001 4.25V2.25C11.0001 1.69772 11.4478 1.25 12.0001 1.25C12.5524 1.25 13.0001 1.69772 13.0001 2.25V4.25C13.0001 4.80228 12.5524 5.25 12.0001 5.25C11.4478 5.25 11.0001 4.80228 11.0001 4.25Z" fill="currentColor" />
    <path d="M12.0002 17.8301C12.1666 17.9715 12.3407 18.1149 12.5236 18.2539C13.2771 18.8266 14.2521 19.4273 15.3634 19.7773C14.7111 20.7312 13.7226 21.8405 12.3859 22.6426C12.1484 22.7851 11.8519 22.7851 11.6144 22.6426C10.2778 21.8406 9.28824 20.7321 8.63589 19.7783C9.74807 19.4283 10.7238 18.8269 11.4777 18.2539C11.6605 18.115 11.8339 17.9714 12.0002 17.8301Z" fill="currentColor" />
    <path d="M20.7501 12C20.7501 7.31854 17.0735 3.4961 12.4503 3.26172L12.0001 3.25C7.16763 3.25 3.25012 7.16751 3.25012 12C3.25012 12.4142 3.58591 12.75 4.00012 12.75C7.57064 12.75 10.6387 10.6101 11.9991 7.54395C13.3595 10.6104 16.4293 12.75 20.0001 12.75C20.4143 12.7499 20.7501 12.4142 20.7501 12Z" fill="currentColor" />
    <path d="M11.9982 9.99414C12.7977 11.0602 13.8055 11.9614 14.9611 12.6377C14.7441 13.0201 14.5052 13.3778 14.2618 13.7012C13.6274 14.5441 12.9334 15.2143 12.4689 15.5859C12.195 15.805 11.8053 15.805 11.5314 15.5859C11.0668 15.2143 10.3728 14.5441 9.7384 13.7012C9.49471 13.3774 9.25442 13.0197 9.03723 12.6367C10.1919 11.9604 11.1989 11.0596 11.9982 9.99414Z" fill="currentColor" />
    <path d="M7.95035 13.2529C8.19751 13.6888 8.46772 14.0921 8.73941 14.4531C9.43805 15.3814 10.2066 16.1268 10.7511 16.5625C10.9 16.6815 11.0624 16.7743 11.2316 16.8447C11.0697 16.9833 10.8996 17.1229 10.7209 17.2588C9.89059 17.8898 8.83709 18.5032 7.69254 18.7344C7.47372 18.7786 7.24609 18.7233 7.07242 18.583C6.28128 17.9437 5.07005 16.3293 4.80386 13.9668C5.90396 13.8792 6.95218 13.6113 7.92203 13.1963C7.93146 13.2151 7.93988 13.2345 7.95035 13.2529Z" fill="currentColor" />
    <path d="M16.0763 13.1963C17.0466 13.611 18.0954 13.8782 19.1955 13.9658C18.9293 16.3281 17.719 17.9426 16.9279 18.582C16.7543 18.7222 16.5265 18.7774 16.3078 18.7334C15.1633 18.5022 14.1097 17.8888 13.2794 17.2578C13.1007 17.1219 12.9306 16.9823 12.7687 16.8438C12.9382 16.7732 13.1011 16.6808 13.2502 16.5615C13.7947 16.1258 14.5625 15.3811 15.2609 14.4531C15.5336 14.0907 15.8023 13.688 16.048 13.2549C16.0588 13.2359 16.0667 13.2156 16.0763 13.1963Z" fill="currentColor" />
</svg>