<svg xmlns="http://www.w3.org/2000/svg" width="24" height="24" viewBox="0 0 24 24" fill="none">
    <path d="M22.5 10.752C22.7974 10.7519 23.0668 10.5759 23.1866 10.3038C23.3061 10.0316 23.2536 9.71434 23.0528 9.49518L17.8506 3.8194C17.5193 3.45797 17.0509 3.25221 16.5606 3.25201H7.00003C6.81607 3.25201 6.6394 3.31977 6.50296 3.44049L6.4473 3.49518L4.75003 5.34674V4.00006C4.75003 3.58591 4.41417 3.25016 4.00003 3.25006C3.58582 3.25006 3.25003 3.58585 3.25003 4.00006V6.98346L0.9473 9.49518C0.667433 9.80049 0.687944 10.2748 0.993198 10.5547C1.29851 10.8345 1.77291 10.8141 2.05277 10.5089L7.00003 5.11139L11.9473 10.5089C12.0893 10.6637 12.2899 10.752 12.5 10.752H22.5Z" fill="currentColor" />
    <path fill-rule="evenodd" clip-rule="evenodd" d="M5.75003 16.0001C5.75003 15.4478 6.19775 15.0001 6.75003 15.0001C7.30232 15.0001 7.75003 15.4478 7.75003 16.0001V20.7501H11.25V11.5596C11.1713 11.4964 11.0955 11.4289 11.0264 11.3536L7.00003 6.961L2.97464 11.3536C2.76662 11.5804 2.51762 11.7465 2.25003 11.8546V19.0001L2.25882 19.1788C2.34846 20.0612 3.09395 20.7501 4.00003 20.7501H5.75003V16.0001ZM6.75003 13.0001C6.19775 13.0001 5.75003 12.5523 5.75003 12.0001C5.75003 11.4478 6.19775 11.0001 6.75003 11.0001C7.30232 11.0001 7.75003 11.4478 7.75003 12.0001C7.75003 12.5523 7.30232 13.0001 6.75003 13.0001Z" fill="currentColor" />
    <path fill-rule="evenodd" clip-rule="evenodd" d="M20 20.7501C20.9664 20.7501 21.7499 19.9664 21.75 19.0001V12.002H12.75V20.7501H20ZM16.25 16.0001C15.6978 16.0001 15.25 15.5523 15.25 15.0001C15.25 14.4478 15.6977 14.0001 16.25 14.0001H18.25C18.8023 14.0001 19.25 14.4478 19.25 15.0001C19.25 15.5523 18.8023 16.0001 18.25 16.0001H16.25Z" fill="currentColor" />
</svg>