<svg xmlns="http://www.w3.org/2000/svg" width="24" height="24" viewBox="0 0 24 24" fill="none">
    <path d="M16.7451 21.25V19.2451H14.75C14.1978 19.2451 13.7501 18.7973 13.75 18.2451C13.75 17.6928 14.1977 17.2451 14.75 17.2451H16.7451V15.25C16.7451 14.6977 17.1928 14.25 17.7451 14.25C18.2973 14.2501 18.7451 14.6978 18.7451 15.25V17.2451H20.75C21.3023 17.2451 21.75 17.6928 21.75 18.2451C21.7499 18.7973 21.3022 19.2451 20.75 19.2451H18.7451V21.25C18.7451 21.8022 18.2973 22.2499 17.7451 22.25C17.1928 22.25 16.7451 21.8023 16.7451 21.25Z" fill="currentColor" />
    <path d="M13.3525 2.20801C12.9641 1.91104 12.4889 1.75 12 1.75C11.5722 1.75 11.1547 1.87285 10.7969 2.10254L10.6475 2.20801L3.3291 7.80371C2.64883 8.32401 2.25002 9.13184 2.25 9.98828V19.5C2.25 21.0188 3.48122 22.25 5 22.25H15.4951V20.4951H14.75C14.3834 20.4951 14.0382 20.4055 13.7324 20.25H9V14C9 13.4477 9.44772 13 10 13H17.7451C18.9874 13.0001 19.9951 14.0073 19.9951 15.25V15.9951H21.75V9.98828C21.75 9.18525 21.3995 8.42487 20.7949 7.9043L20.6709 7.80371L13.3525 2.20801Z" fill="currentColor" />
</svg>