<svg xmlns="http://www.w3.org/2000/svg" width="24" height="24" viewBox="0 0 24 24" fill="none">
    <path d="M12 1.75C12.4889 1.75 12.9641 1.91104 13.3525 2.20801L20.6709 7.80371C21.3512 8.32401 21.75 9.13184 21.75 9.98828V19.5C21.75 21.0188 20.5188 22.25 19 22.25H5C3.48122 22.25 2.25 21.0188 2.25 19.5V9.98828C2.25002 9.13184 2.64883 8.32401 3.3291 7.80371L10.6475 2.20801C11.0359 1.91104 11.5111 1.75 12 1.75ZM14.25 10C13.575 10 12.9 10.2356 12 11.1768C11.1 10.2356 10.425 10 9.75 10C8.4474 10 7.50005 11.0944 7.5 12.4443C7.5 15.1764 12 18 12 18C12 18 16.5 15.1764 16.5 12.4443C16.4999 11.0944 15.5526 10 14.25 10Z" fill="currentColor" />
</svg>