<svg xmlns="http://www.w3.org/2000/svg" width="24" height="24" viewBox="0 0 24 24" fill="none">
    <path d="M8.01434 5.02115C8.17436 5.00715 8.33633 5 8.49998 5C8.8851 5 9.26097 5.03958 9.62375 5.1149C10.5135 5.29962 11.3245 5.69929 12 6.25716C12.6755 5.69929 13.4865 5.29962 14.3762 5.1149C14.739 5.03958 15.1149 5 15.5 5C15.6636 5 15.8256 5.00715 15.9856 5.02115C15.385 3.40302 13.8271 2.25 12 2.25C10.1728 2.25 8.61497 3.40302 8.01434 5.02115Z" fill="currentColor" />
    <path d="M10.3783 8.49139C10.5668 8.01124 10.8208 7.56402 11.1293 7.16076C10.4059 6.59036 9.49272 6.25 8.5 6.25C6.15279 6.25 4.25 8.15279 4.25 10.5C4.25 10.7556 4.27261 11.0063 4.316 11.25H5.85369H10.0509C10.0173 11.0044 10 10.7539 10 10.5C10 9.79115 10.1341 9.11362 10.3783 8.49139Z" fill="currentColor" />
    <path d="M10.0509 11.25H5.85369H4.316H3.89062C2.98466 11.25 2.25 11.9847 2.25 12.8906V12.9414C2.25 13.0413 2.26191 13.1413 2.28613 13.2383C2.94897 15.8896 5.33153 17.7498 8.06445 17.75H8.59863L7.50488 19.3906C7.3387 19.6399 7.25 19.9328 7.25 20.2324C7.25001 21.0706 7.92945 21.75 8.76758 21.75H15.2324C16.0706 21.75 16.75 21.0706 16.75 20.2324C16.75 19.9328 16.6613 19.6399 16.4951 19.3906L15.4014 17.75H15.9355C18.6685 17.7498 21.051 15.8896 21.7139 13.2383C21.7381 13.1413 21.75 13.0413 21.75 12.9414V12.8906C21.75 12.2778 21.4138 11.7434 20.9159 11.4617C20.6777 11.3269 20.4025 11.25 20.1094 11.25H19.684H18.1463H16.8088H14.1912H12.8537H12.684H11.316H11.1463H10.0509Z" fill="currentColor" />
    <path fill-rule="evenodd" clip-rule="evenodd" d="M18.1463 11.25H19.684C19.7274 11.0063 19.75 10.7556 19.75 10.5C19.75 8.15279 17.8472 6.25 15.5 6.25C13.1528 6.25 11.25 8.15279 11.25 10.5C11.25 10.7556 11.2726 11.0063 11.316 11.25H12.684H12.8537H14.1912H16.8088H18.1463Z" fill="currentColor" />
</svg>