<svg xmlns="http://www.w3.org/2000/svg" width="24" height="24" viewBox="0 0 24 24" fill="none">
    <path d="M21.25 17.4999C21.8023 17.4999 22.25 17.9476 22.25 18.4999C22.25 19.0522 21.8023 19.4999 21.25 19.4999H14.25C13.6977 19.4999 13.25 19.0522 13.25 18.4999C13.25 17.9476 13.6977 17.4999 14.25 17.4999H21.25Z" fill="currentColor" />
    <path d="M19.5 1.74988C21.0188 1.74988 22.25 2.98109 22.25 4.49988V16.2499C21.9488 16.1002 21.6092 16.2499 21.25 16.2499H20.2979V15.6981L16.793 13.3612C16.0325 12.8542 15.0251 12.9276 14.3457 13.5389L6.83594 20.2968H12.8965C13.2732 20.581 13.7418 20.7499 14.25 20.7499H21.25C21.5181 20.7499 21.7752 20.7031 22.0137 20.6171C21.5854 21.5791 20.621 22.2499 19.5 22.2499H4.5C2.98122 22.2499 1.75 21.0187 1.75 19.4999V4.49988C1.75 2.98109 2.98122 1.74988 4.5 1.74988H19.5ZM8 5.99988C6.89543 5.99988 6 6.89531 6 7.99988C6 9.10445 6.89543 9.99988 8 9.99988C9.10457 9.99988 10 9.10445 10 7.99988C10 6.89531 9.10457 5.99988 8 5.99988Z" fill="currentColor" />
</svg>