<svg xmlns="http://www.w3.org/2000/svg" width="24" height="24" viewBox="0 0 24 24" fill="none">
    <path d="M13 1.5C13.5523 1.5 14 1.94772 14 2.5C14 3.05228 13.5523 3.5 13 3.5H9C8.44772 3.5 8 3.05228 8 2.5C8 1.94772 8.44772 1.5 9 1.5H13Z" fill="currentColor" />
    <path d="M20.4998 15V11C20.4998 10.4478 20.9476 10.0001 21.4998 10C22.0521 10 22.4998 10.4477 22.4998 11V15C22.4998 15.5523 22.0521 16 21.4998 16C20.9475 16 20.4998 15.5523 20.4998 15Z" fill="currentColor" />
    <path d="M20.5 19.5V19C20.5 18.4477 20.9477 18 21.5 18C22.0523 18 22.5 18.4477 22.5 19V19.5C22.5 21.1569 21.1569 22.5 19.5 22.5H17C16.4477 22.5 16 22.0523 16 21.5C16 20.9477 16.4477 20.5 17 20.5H19.5C20.0523 20.5 20.5 20.0523 20.5 19.5Z" fill="currentColor" />
    <path d="M4.5 3.5L5 3.5C5.55228 3.5 6 3.05228 6 2.5C6 1.94772 5.55228 1.5 5 1.5L4.5 1.5C2.84315 1.5 1.5 2.84314 1.5 4.5L1.5 7C1.5 7.55228 1.94772 8 2.5 8C3.05228 8 3.5 7.55228 3.5 7L3.5 4.5C3.5 3.94771 3.94772 3.5 4.5 3.5Z" fill="currentColor" />
    <path d="M20.498 6.74219V4.91602L17.207 8.20703C16.8165 8.59755 16.1835 8.59755 15.793 8.20703C15.4024 7.81651 15.4024 7.18349 15.793 6.79297L19.0859 3.5H17.2558C16.7036 3.5 16.2558 3.05228 16.2558 2.5C16.2558 1.94772 16.7036 1.5 17.2558 1.5H21.498C22.0503 1.5 22.498 1.94772 22.498 2.5V6.74219C22.498 7.29447 22.0503 7.74219 21.498 7.74219C20.9458 7.74211 20.498 7.29442 20.498 6.74219Z" fill="currentColor" />
    <path fill-rule="evenodd" clip-rule="evenodd" d="M11.5 22.5C13.1569 22.5 14.5 21.1569 14.5 19.5V12.5C14.5 10.8431 13.1569 9.5 11.5 9.5H4.5C2.84315 9.5 1.5 10.8431 1.5 12.5V19.5C1.5 21.1569 2.84315 22.5 4.5 22.5H11.5ZM11.5342 15.8483L12.5 16.5352V18.3759V19.5C12.5 20.0523 12.0523 20.5 11.5 20.5H5.62475H4.5C4.21654 20.5 3.96063 20.3821 3.77866 20.1926L8.03613 16.1062C8.98903 15.1914 10.4577 15.0829 11.5342 15.8483Z" fill="currentColor" />
</svg>