<svg xmlns="http://www.w3.org/2000/svg" width="24" height="24" viewBox="0 0 24 24" fill="none">
    <path d="M19.7773 1.25C20.3143 1.25 20.75 1.68781 20.75 2.22754V17.8633C20.75 18.403 20.3143 18.8408 19.7773 18.8408H19.6875C19.6572 18.8768 19.6244 18.9161 19.5928 18.96C19.4254 19.1924 19.292 19.4845 19.292 19.8184C19.292 20.152 19.4255 20.4434 19.5928 20.6758C19.6244 20.7198 19.6571 20.7598 19.6875 20.7959H19.7773C20.3142 20.7959 20.7499 21.2329 20.75 21.7725C20.75 22.3122 20.3143 22.75 19.7773 22.75H6.16699C4.55622 22.75 3.2501 21.4375 3.25 19.8184V4.18164C3.2501 2.56252 4.55622 1.25 6.16699 1.25H19.7773ZM6.16797 18.8408C5.63103 18.8408 5.19531 19.2786 5.19531 19.8184C5.19546 20.358 5.63111 20.7949 6.16797 20.7949H17.501C17.4092 20.5035 17.3477 20.1771 17.3477 19.8184C17.3477 19.4593 17.4091 19.1324 17.501 18.8408H6.16797ZM12.0029 12.8516C11.486 12.8516 11.0611 13.2447 11.0098 13.748L11.0039 13.8506L11.0098 13.9521C11.061 14.4556 11.486 14.8486 12.0029 14.8486C12.5541 14.8484 13.0007 14.4018 13.001 13.8506C13.0009 13.3336 12.6079 12.9087 12.1045 12.8574L12.0029 12.8516ZM12 5C11.4477 5 11 5.44772 11 6V10C11 10.5523 11.4477 11 12 11C12.5523 11 13 10.5523 13 10V6C13 5.44772 12.5523 5 12 5Z" fill="currentColor" />
</svg>