<svg xmlns="http://www.w3.org/2000/svg" width="24" height="24" viewBox="0 0 24 24" fill="none">
    <path d="M1.5 19.5V4.5C1.5 2.84315 2.84315 1.5 4.5 1.5H8C8.55228 1.5 9 1.94772 9 2.5C9 3.05228 8.55228 3.5 8 3.5H4.5C3.94772 3.5 3.5 3.94772 3.5 4.5V19.5C3.5 20.0523 3.94771 20.5 4.5 20.5H19.5C20.0523 20.5 20.5 20.0523 20.5 19.5V4.5C20.5 3.94772 20.0523 3.5 19.5 3.5H16C15.4477 3.5 15 3.05228 15 2.5C15 1.94772 15.4477 1.5 16 1.5H19.5C21.1569 1.5 22.5 2.84315 22.5 4.5V19.5C22.5 21.1569 21.1569 22.5 19.5 22.5H4.5C2.84315 22.5 1.5 21.1569 1.5 19.5Z" fill="currentColor" />
    <path d="M11 2.5C11 1.94772 11.4478 1.5 12 1.5C12.5523 1.5 13 1.94772 13 2.5V13.0859L15.293 10.793C15.6835 10.4024 16.3166 10.4024 16.7071 10.793C17.0976 11.1835 17.0976 11.8165 16.7071 12.207L12.7071 16.207C12.3166 16.5976 11.6835 16.5976 11.293 16.207L7.29302 12.207C6.90249 11.8165 6.90249 11.1835 7.29302 10.793C7.68354 10.4024 8.31655 10.4024 8.70708 10.793L11 13.0859V2.5Z" fill="currentColor" />
</svg>