<svg xmlns="http://www.w3.org/2000/svg" width="24" height="24" viewBox="0 0 24 24" fill="none">
    <path d="M18 2.00049C18.5523 2.00049 19 2.4482 19 3.00049C19 3.55277 18.5523 4.00049 18 4.00049H13.4707C14.2104 4.82669 14.7234 5.8587 14.915 7.00049H18C18.5523 7.00049 19 7.4482 19 8.00049C19 8.55277 18.5523 9.00049 18 9.00049H14.915C14.4388 11.838 11.9729 14.0005 9 14.0005H8.62988L15.6641 20.2534C16.0768 20.6203 16.114 21.2518 15.7471 21.6646C15.3802 22.0773 14.7487 22.1145 14.3359 21.7476L5.33594 13.7476C5.02563 13.4717 4.91788 13.0331 5.06543 12.645C5.21301 12.257 5.58487 12.0005 6 12.0005H9C10.8638 12.0005 12.43 10.7257 12.874 9.00049H6C5.44772 9.00049 5 8.55277 5 8.00049C5 7.4482 5.44772 7.00049 6 7.00049H12.874C12.43 5.27526 10.8638 4.00049 9 4.00049H6C5.44772 4.00049 5 3.55277 5 3.00049C5 2.4482 5.44772 2.00049 6 2.00049H18Z" fill="currentColor" />
</svg>