<svg xmlns="http://www.w3.org/2000/svg" width="24" height="24" viewBox="0 0 24 24" fill="none">
    <path d="M12 1.25C12.519 1.25 13.0168 1.45624 13.3838 1.82324L22.1768 10.6162C22.5438 10.9832 22.75 11.481 22.75 12C22.75 12.519 22.5438 13.0168 22.1768 13.3838L13.3838 22.1768C13.0168 22.5438 12.519 22.75 12 22.75C11.481 22.75 10.9832 22.5438 10.6162 22.1768L1.82324 13.3838C1.45623 13.0168 1.25 12.519 1.25 12C1.25 11.481 1.45623 10.9832 1.82324 10.6162L10.6162 1.82324C10.9832 1.45624 11.481 1.25 12 1.25ZM12 11C11.4477 11 11 11.4477 11 12V16C11 16.5523 11.4477 17 12 17C12.5523 17 13 16.5523 13 16V12C13 11.4477 12.5523 11 12 11ZM12 7.25C11.4477 7.25 11 7.69772 11 8.25C11 8.80228 11.4477 9.25 12 9.25C12.5523 9.25 13 8.80228 13 8.25C13 7.69771 12.5523 7.25 12 7.25Z" fill="currentColor" />
</svg>