<svg xmlns="http://www.w3.org/2000/svg" width="24" height="24" viewBox="0 0 24 24" fill="none">
    <path d="M19.5001 1.75C21.0188 1.75 22.2501 2.98122 22.2501 4.5V19.5C22.2501 21.0188 21.0188 22.25 19.5001 22.25H4.50006C2.98131 22.25 1.75007 21.0188 1.75006 19.5V4.5C1.75006 2.98122 2.98128 1.75 4.50006 1.75H19.5001ZM12.0001 11C11.4478 11 11.0001 11.4477 11.0001 12V16C11.0001 16.5523 11.4478 17 12.0001 17C12.5524 17 13.0001 16.5523 13.0001 16V12C13.0001 11.4477 12.5524 11 12.0001 11ZM12.0001 7.25C11.4478 7.25 11.0001 7.69772 11.0001 8.25C11.0001 8.80228 11.4478 9.25 12.0001 9.25C12.5523 9.25 13.0001 8.80228 13.0001 8.25C13.0001 7.69771 12.5523 7.25 12.0001 7.25Z" fill="currentColor" />
</svg>