<svg xmlns="http://www.w3.org/2000/svg" width="24" height="24" viewBox="0 0 24 24" fill="none">
    <path d="M20 3C20.5523 3 21 3.44772 21 4C21 4.55228 20.5523 5 20 5H10.667C10.1147 5 9.66699 4.55228 9.66699 4C9.66699 3.44772 10.1147 3 10.667 3H20Z" fill="currentColor" />
    <path d="M15.1048 3.55305C15.3518 3.05907 15.9526 2.85879 16.4466 3.10578C16.9406 3.35277 17.1409 3.9536 16.8939 4.44758L8.89387 20.4476C8.64688 20.9416 8.04605 21.1418 7.55207 20.8948C7.05809 20.6479 6.85782 20.047 7.1048 19.553L15.1048 3.55305Z" fill="currentColor" />
    <path d="M13.332 19C13.8843 19 14.332 19.4477 14.332 20C14.332 20.5523 13.8843 21 13.332 21L3.99902 21C3.44674 21 2.99902 20.5523 2.99902 20C2.99902 19.4477 3.44674 19 3.99902 19L13.332 19Z" fill="currentColor" />
</svg>