<svg xmlns="http://www.w3.org/2000/svg" width="24" height="24" viewBox="0 0 24 24" fill="none">
    <path d="M12 1.25C7.16751 1.25 3.25 5.18788 3.25 10.0455C3.25 10.5852 3.68528 11.0228 4.22222 11.0228C4.75917 11.0228 5.19444 10.5852 5.19444 10.0455C5.19444 6.26735 8.24139 3.20456 12 3.20456C15.7586 3.20456 18.8056 6.26735 18.8056 10.0455C18.8056 13.8236 15.7586 16.8864 12 16.8864H6.56923L8.7985 14.6456C9.17818 14.2639 9.17818 13.6453 8.7985 13.2636C8.41883 12.882 7.8034 12.882 7.42372 13.2636L3.53483 17.1728C3.15523 17.5544 3.15518 18.1731 3.53483 18.5547L7.42372 22.4638C7.80337 22.8454 8.41882 22.8454 8.7985 22.4638C9.17818 22.0821 9.17818 21.4635 8.7985 21.0819L6.56923 18.841H12C16.8325 18.841 20.75 14.9031 20.75 10.0455C20.75 5.18788 16.8325 1.25 12 1.25Z" fill="currentColor" />
</svg>