<svg xmlns="http://www.w3.org/2000/svg" width="24" height="24" viewBox="0 0 24 24" fill="none">
    <path d="M12 1.25C16.8325 1.25 20.75 5.18788 20.75 10.0455C20.75 10.5852 20.3147 11.0228 19.7778 11.0228C19.2408 11.0228 18.8056 10.5852 18.8056 10.0455C18.8056 6.26735 15.7586 3.20456 12 3.20456C8.24139 3.20456 5.19444 6.26735 5.19444 10.0455C5.19444 13.8236 8.24139 16.8864 12 16.8864H17.4308L15.2015 14.6456C14.8218 14.2639 14.8218 13.6453 15.2015 13.2636C15.5812 12.882 16.1966 12.882 16.5763 13.2636L20.4652 17.1728C20.8448 17.5544 20.8448 18.1731 20.4652 18.5547L16.5763 22.4638C16.1966 22.8454 15.5812 22.8454 15.2015 22.4638C14.8218 22.0821 14.8218 21.4635 15.2015 21.0819L17.4308 18.841H12C7.16751 18.841 3.25 14.9031 3.25 10.0455C3.25 5.18788 7.16751 1.25 12 1.25Z" fill="currentColor" />
</svg>