<svg xmlns="http://www.w3.org/2000/svg" width="24" height="24" viewBox="0 0 24 24" fill="none">
    <path fill-rule="evenodd" clip-rule="evenodd" d="M4.31817 2.26895C4.72192 1.89211 5.35471 1.91393 5.73155 2.31769L12.0005 9.03441L18.2694 2.31769C18.6463 1.91393 19.2791 1.89211 19.6828 2.26895C20.0866 2.64578 20.1084 3.27857 19.7315 3.68232L12.7315 11.1823C12.5424 11.385 12.2777 11.5 12.0005 11.5C11.7233 11.5 11.4586 11.385 11.2694 11.1823L4.26944 3.68232C3.8926 3.27857 3.91442 2.64578 4.31817 2.26895Z" fill="currentColor" />
    <path fill-rule="evenodd" clip-rule="evenodd" d="M12.0005 9.5C12.5528 9.5 13.0005 9.94772 13.0005 10.5V21C13.0005 21.5523 12.5528 22 12.0005 22C11.4482 22 11.0005 21.5523 11.0005 21V10.5C11.0005 9.94772 11.4482 9.5 12.0005 9.5Z" fill="currentColor" />
    <path fill-rule="evenodd" clip-rule="evenodd" d="M5.50049 13C5.50049 12.4477 5.9482 12 6.50049 12H17.5005C18.0528 12 18.5005 12.4477 18.5005 13C18.5005 13.5523 18.0528 14 17.5005 14H6.50049C5.9482 14 5.50049 13.5523 5.50049 13Z" fill="currentColor" />
    <path fill-rule="evenodd" clip-rule="evenodd" d="M5.50049 17C5.50049 16.4477 5.9482 16 6.50049 16H17.5005C18.0528 16 18.5005 16.4477 18.5005 17C18.5005 17.5523 18.0528 18 17.5005 18H6.50049C5.9482 18 5.50049 17.5523 5.50049 17Z" fill="currentColor" />
</svg>