<svg xmlns="http://www.w3.org/2000/svg" width="24" height="24" viewBox="0 0 24 24" fill="none">
    <path d="M22.25 9.00012C22.25 13.0042 19.0041 16.2501 15 16.2501C14.1929 16.2501 13.4161 16.1155 12.6895 15.8712L10.5303 18.0304C10.3896 18.1709 10.1988 18.2501 10 18.2501H8.75V19.5001C8.75 19.9143 8.41421 20.2501 8 20.2501H6.75V21.5001C6.75 21.9143 6.41421 22.2501 6 22.2501H2.5C2.08579 22.2501 1.75 21.9143 1.75 21.5001V18.0001C1.75 17.8012 1.82907 17.6105 1.96973 17.4698L7.97168 11.4679L8.12891 11.3116C7.88444 10.5847 7.75 9.80759 7.75 9.00012C7.75 4.99606 10.9959 1.75012 15 1.75012C19.0041 1.75012 22.25 4.99606 22.25 9.00012ZM16.5 9.75012C17.7426 9.75012 18.75 8.74276 18.75 7.50012C18.75 6.25748 17.7426 5.25012 16.5 5.25012C15.2574 5.25012 14.25 6.25748 14.25 7.50012C14.25 8.74276 15.2574 9.75012 16.5 9.75012Z" fill="currentColor" />
</svg>