<svg xmlns="http://www.w3.org/2000/svg" width="24" height="24" viewBox="0 0 24 24" fill="none">
    <path fill-rule="evenodd" clip-rule="evenodd" d="M16.4923 2.64187C16.9529 2.26208 17.6218 2.25886 18.086 2.63406L18.1827 2.72097L22.2296 6.73855C22.8986 7.40265 22.9261 8.47319 22.2911 9.17019L13.9767 18.2932C13.2979 19.0379 12.1319 19.0664 11.4171 18.3567L9.68857 16.6399L6.00498 20.9221L6.00302 20.9251C4.93632 22.1543 3.0269 22.1633 1.9415 20.9583C0.988845 19.9002 1.0229 18.2801 2.02939 17.2669L16.3966 2.72878L16.4923 2.64187ZM18.0001 7.10476C17.4478 7.1048 17.0001 7.5525 17.0001 8.10476C17.0001 8.65699 17.4479 9.10472 18.0001 9.10476C18.5524 9.10476 19.0001 8.65701 19.0001 8.10476C19.0001 7.55247 18.5524 7.10476 18.0001 7.10476Z" fill="currentColor" />
</svg>