<svg xmlns="http://www.w3.org/2000/svg" width="24" height="24" viewBox="0 0 24 24" fill="none">
    <path d="M21.6066 18.9957C21.7014 19.2329 21.7501 19.4864 21.7501 19.7418C21.7501 20.8507 20.8512 21.7496 19.7423 21.7496H8.25793C7.14907 21.7496 6.25012 20.8507 6.25012 19.7418C6.25013 19.4864 6.29882 19.2329 6.39368 18.9957L7.29211 16.7496H20.7081L21.6066 18.9957Z" fill="currentColor" />
    <path d="M16.9845 11.2496C17.9044 11.2496 18.7316 11.8097 19.0734 12.6637L20.1075 15.2496H7.8927L8.92688 12.6637C9.26866 11.8097 10.0958 11.2496 11.0157 11.2496H16.9845Z" fill="currentColor" />
    <path d="M4.00012 2.24963C3.03362 2.24963 2.25012 3.03314 2.25012 3.99963V7.99963C2.25012 8.96613 3.03362 9.74963 4.00012 9.74963H5.00012C6.51891 9.74963 7.75012 8.51842 7.75012 6.99963V4.99963C7.75012 3.48085 6.5189 2.24963 5.00012 2.24963H4.00012Z" fill="currentColor" />
    <path d="M13.0001 11.9996V7.99963C13.0001 7.44735 12.5524 6.99963 12.0001 6.99963H7.00012C6.44784 6.99963 6.00012 6.55192 6.00012 5.99963C6.00012 5.44735 6.44784 4.99963 7.00012 4.99963H12.0001C13.657 4.99963 15.0001 6.34278 15.0001 7.99963V11.9996C15.0001 12.5519 14.5524 12.9996 14.0001 12.9996C13.4478 12.9996 13.0001 12.5519 13.0001 11.9996Z" fill="currentColor" />
</svg>