<svg xmlns="http://www.w3.org/2000/svg" width="24" height="24" viewBox="0 0 24 24" fill="none">
    <path d="M22.75 18C22.75 17.5858 22.4142 17.25 22 17.25H21.25H19.75H4.25H2.75H2C1.58579 17.25 1.25 17.5858 1.25 18V18.667C1.25013 19.3638 1.67398 19.9028 2.16992 20.2334C2.67117 20.5675 3.32033 20.75 4 20.75H20C20.6797 20.75 21.3288 20.5675 21.8301 20.2334C22.326 19.9028 22.7499 19.3638 22.75 18.667V18Z" fill="currentColor" />
    <path fill-rule="evenodd" clip-rule="evenodd" d="M21.25 16H2.75V6C2.75 4.48122 3.98122 3.25 5.5 3.25H18.5C20.0188 3.25 21.25 4.48122 21.25 6V16ZM14.7929 6.29289C15.1834 5.90237 15.8164 5.90237 16.207 6.29289C16.5975 6.68342 16.5975 7.31643 16.207 7.70696L11.207 12.707C10.8164 13.0975 10.1834 13.0975 9.79289 12.707L7.79289 10.707C7.40237 10.3164 7.40237 9.68342 7.79289 9.29289C8.18342 8.90237 8.81643 8.90237 9.20696 9.29289L10.4999 10.5859L14.7929 6.29289Z" fill="currentColor" />
</svg>