<svg xmlns="http://www.w3.org/2000/svg" width="24" height="24" viewBox="0 0 24 24" fill="none">
    <path d="M22.75 12C22.75 17.9371 17.9371 22.75 12 22.75C6.06294 22.75 1.25 17.9371 1.25 12C1.25 6.06294 6.06294 1.25 12 1.25C17.9371 1.25 22.75 6.06294 22.75 12ZM16.75 14C16.75 13.5858 16.4142 13.25 16 13.25H8C7.58579 13.25 7.25 13.5858 7.25 14C7.25 16.6234 9.37665 18.75 12 18.75C14.6234 18.75 16.75 16.6234 16.75 14ZM8.5 8.75C8.88817 8.75 9.20747 9.04488 9.24609 9.42285L9.25391 9.57715C9.29253 9.95512 9.61183 10.25 10 10.25C10.4142 10.25 10.75 9.91421 10.75 9.5C10.75 8.25736 9.74264 7.25 8.5 7.25C7.25736 7.25 6.25 8.25736 6.25 9.5C6.25 9.91421 6.58579 10.25 7 10.25C7.38817 10.25 7.70747 9.95512 7.74609 9.57715L7.75391 9.42285C7.79253 9.04488 8.11183 8.75 8.5 8.75ZM15.5 8.75C15.8882 8.75 16.2075 9.04488 16.2461 9.42285L16.2539 9.57715C16.2925 9.95512 16.6118 10.25 17 10.25C17.4142 10.25 17.75 9.91421 17.75 9.5C17.75 8.25736 16.7426 7.25 15.5 7.25C14.2574 7.25 13.25 8.25736 13.25 9.5C13.25 9.91421 13.5858 10.25 14 10.25C14.3882 10.25 14.7075 9.95512 14.7461 9.57715L14.7539 9.42285C14.7925 9.04488 15.1118 8.75 15.5 8.75Z" fill="currentColor" />
</svg>