<svg xmlns="http://www.w3.org/2000/svg" width="24" height="24" viewBox="0 0 24 24" fill="none">
    <path d="M15.9983 21.75V18.75H12.9983C12.446 18.75 11.9983 18.3023 11.9983 17.75C11.9983 17.1977 12.446 16.75 12.9983 16.75H15.9983V13.75C15.9983 13.1977 16.446 12.75 16.9983 12.75C17.5506 12.75 17.9983 13.1977 17.9983 13.75V16.75H20.9983C21.5506 16.75 21.9983 17.1977 21.9983 17.75C21.9983 18.3023 21.5506 18.75 20.9983 18.75H17.9983V21.75C17.9983 22.3023 17.5506 22.75 16.9983 22.75C16.446 22.75 15.9983 22.3023 15.9983 21.75Z" fill="currentColor" />
    <path d="M3.99271 15.5236C4.37409 15.8891 4.33961 16.556 3.95947 16.9227L11.7409 20.8733C11.7456 20.8757 11.751 20.8757 11.7557 20.8733L13.4758 20H14.7483V21.4743L12.6662 22.5314C12.0917 22.823 11.4049 22.823 10.8304 22.5314L3.049 18.5807C1.87559 17.985 1.63862 16.4666 2.57391 15.5643C2.95405 15.1976 3.61134 15.1581 3.99271 15.5236Z" fill="currentColor" />
    <path d="M12.6746 1.46917L20.399 5.35217C21.8645 6.08888 21.8645 8.13839 20.399 8.87511L12.6746 12.7581C12.0932 13.0503 11.4032 13.0503 10.8218 12.7581L3.09744 8.8751C1.63191 8.13839 1.63191 6.08888 3.09744 5.35217L10.8218 1.46917C11.4032 1.17694 12.0932 1.17694 12.6746 1.46917Z" fill="currentColor" />
    <path d="M3.99271 10.5597C4.37409 10.9253 4.33961 11.5921 3.95947 11.9588L11.719 15.8983C11.1888 16.2654 10.8239 16.8545 10.7588 17.5311L3.049 13.6169C1.87559 13.0211 1.63862 11.5027 2.57391 10.6004C2.95405 10.2337 3.61134 10.1942 3.99271 10.5597Z" fill="currentColor" />
</svg>