<svg xmlns="http://www.w3.org/2000/svg" width="24" height="24" viewBox="0 0 24 24" fill="none">
    <path d="M22.25 9C22.25 9.9665 21.4665 10.75 20.5 10.75H4C3.0335 10.75 2.25 9.9665 2.25 9V3.5C2.25 2.5335 3.0335 1.75 4 1.75H20.5C21.4665 1.75 22.25 2.5335 22.25 3.5V9Z" fill="currentColor" />
    <path d="M22.25 20.5C22.25 21.4665 21.4665 22.25 20.5 22.25H15C14.0335 22.25 13.25 21.4665 13.25 20.5V15C13.2501 14.0336 14.0336 13.25 15 13.25H20.5C21.4665 13.25 22.25 14.0335 22.25 15V20.5Z" fill="currentColor" />
    <path d="M10.75 20.5C10.75 21.4665 9.9665 22.25 9 22.25H3.5C2.5335 22.25 1.75 21.4665 1.75 20.5V15C1.75 14.0335 2.5335 13.25 3.5 13.25H9C9.9665 13.25 10.75 14.0335 10.75 15V20.5Z" fill="currentColor" />
</svg>