<svg xmlns="http://www.w3.org/2000/svg" width="24" height="24" viewBox="0 0 24 24" fill="none">
    <path d="M22.2495 9C22.2495 9.98523 21.4346 10.75 20.4722 10.75H3.52686C2.56441 10.75 1.74951 9.98523 1.74951 9V3.5C1.74951 2.51477 2.56441 1.75 3.52686 1.75H20.4722C21.4346 1.75 22.2495 2.51477 22.2495 3.5V9Z" fill="currentColor" />
    <path d="M22.2505 20.4998C22.2505 21.4661 21.4668 22.2495 20.5005 22.2498H12.9995C12.033 22.2498 11.2495 21.4663 11.2495 20.4998V14.9998C11.2496 14.0334 12.0331 13.2498 12.9995 13.2498H20.4995C21.466 13.2497 22.2505 14.0333 22.2505 14.9998V20.4998Z" fill="currentColor" />
    <path d="M8.74832 20.5C8.74832 21.4663 7.96557 22.2497 6.9993 22.25H3.4993C2.5328 22.25 1.7493 21.4665 1.7493 20.5V15C1.74932 14.0335 2.53282 13.25 3.4993 13.25H6.99832C7.96482 13.25 8.74929 14.0335 8.7493 15L8.74832 20.5Z" fill="currentColor" />
</svg>