<svg xmlns="http://www.w3.org/2000/svg" width="24" height="24" viewBox="0 0 24 24" fill="none">
    <path fill-rule="evenodd" clip-rule="evenodd" d="M17.481 1.18132C18.7248 0.984361 19.837 1.87812 20.0151 3.10026L22.2251 18.2633C22.4023 19.4793 21.6033 20.6631 20.3677 20.8591L15.52 21.6276C14.276 21.8247 13.163 20.9309 12.9849 19.7087L10.7749 4.54557C10.5977 3.3295 11.3975 2.14569 12.6333 1.94987L17.481 1.18132ZM17.5005 16.404C16.9482 16.404 16.5005 16.8517 16.5005 17.404C16.5005 17.9563 16.9482 18.404 17.5005 18.404H17.5093C18.0616 18.404 18.5093 17.9563 18.5093 17.404C18.5093 16.8517 18.0616 16.404 17.5093 16.404H17.5005ZM18.9487 6.15495C18.8767 5.74712 18.4874 5.47469 18.0796 5.54655L13.2847 6.39323C12.8769 6.46522 12.6045 6.85362 12.6763 7.26139C12.7483 7.6693 13.1375 7.9418 13.5454 7.86979L18.3403 7.02311C18.7479 6.95098 19.0204 6.56259 18.9487 6.15495Z" fill="currentColor" />
    <path d="M9.00037 2.15405C10.243 2.15405 11.2504 3.16141 11.2504 4.40405V19.4041C11.2504 20.6467 10.243 21.6541 9.00037 21.6541H4.00037C2.75772 21.6541 1.75037 20.6467 1.75037 19.4041V4.40405C1.75037 3.16144 2.75776 2.15409 4.00037 2.15405H9.00037ZM6.50037 16.4041C5.94808 16.4041 5.50037 16.8518 5.50037 17.4041C5.50037 17.9563 5.94808 18.4041 6.50037 18.4041H6.50916C7.06144 18.4041 7.50916 17.9563 7.50916 17.4041C7.50916 16.8518 7.06144 16.4041 6.50916 16.4041H6.50037ZM3.99255 6.15405C3.57834 6.15405 3.24255 6.48984 3.24255 6.90405C3.24255 7.31827 3.57834 7.65405 3.99255 7.65405H9.0072C9.42142 7.65405 9.7572 7.31827 9.7572 6.90405C9.7572 6.48984 9.42142 6.15405 9.0072 6.15405H3.99255Z" fill="currentColor" />
</svg>