<svg xmlns="http://www.w3.org/2000/svg" width="24" height="24" viewBox="0 0 24 24" fill="none">
    <path fill-rule="evenodd" clip-rule="evenodd" d="M20.1129 19.0529C21.7553 17.1651 22.7498 14.6987 22.7498 12C22.7498 9.30133 21.7553 6.83492 20.113 4.9472L15.4883 9.57187C15.9683 10.2602 16.2498 11.0972 16.2498 12C16.2498 12.9028 15.9683 13.7399 15.4882 14.4282L20.1129 19.0529ZM19.0523 20.1134C17.1647 21.7557 14.6983 22.75 11.9998 22.75C9.30109 22.75 6.83467 21.7556 4.94695 20.1132L9.57162 15.4885C10.2599 15.9685 11.097 16.25 11.9998 16.25C12.9024 16.25 13.7394 15.9686 14.4277 15.4887L19.0523 20.1134ZM19.0524 3.88666L14.4277 8.51135C13.7394 8.03143 12.9025 7.75 11.9998 7.75C11.097 7.75 10.2599 8.0315 9.57157 8.51151L4.94691 3.88685C6.83463 2.24443 9.30106 1.25 11.9998 1.25C14.6983 1.25 17.1647 2.24436 19.0524 3.88666ZM7.74976 12C7.74976 12.9027 8.03119 13.7397 8.5111 14.428L3.88642 19.0526C2.24411 17.1649 1.24976 14.6986 1.24976 12C1.24976 9.30143 2.24409 6.8351 3.88638 4.94741L8.51106 9.5721C8.03117 10.2604 7.74976 11.0973 7.74976 12Z" fill="currentColor" />
</svg>