<svg xmlns="http://www.w3.org/2000/svg" width="24" height="24" viewBox="0 0 24 24" fill="none">
    <path fill-rule="evenodd" clip-rule="evenodd" d="M19.75 9C19.75 11.4176 18.6421 13.577 16.9092 14.9971L7.09386 15C5.35907 13.58 4.25 11.4191 4.25 9C4.25 4.71979 7.71979 1.25 12 1.25C16.2802 1.25 19.75 4.71979 19.75 9Z" fill="currentColor" />
    <path fill-rule="evenodd" clip-rule="evenodd" d="M7.77734 17C7.77734 18.0573 8.37402 18.9752 9.24902 19.4355C9.63093 19.6363 10.0659 19.75 10.5273 19.75H10.749H13.249H13.4844C13.9405 19.75 14.3705 19.639 14.749 19.4426C15.6373 18.9818 16.242 18.0508 16.2344 16.9805L16.2295 16.25H7.77734V17Z" fill="currentColor" />
    <path fill-rule="evenodd" clip-rule="evenodd" d="M9.4375 21C9.83753 22.0243 10.834 22.75 12 22.75C13.166 22.75 14.1625 22.0243 14.5626 21H9.4375Z" fill="currentColor" />
</svg>