<svg xmlns="http://www.w3.org/2000/svg" width="24" height="24" viewBox="0 0 24 24" fill="none">
    <path d="M11.0775 2.01649C11.6205 1.91722 12.1409 2.27638 12.2406 2.81922C12.3401 3.36233 11.9809 3.88359 11.4379 3.98329C9.76722 4.28933 8.1903 5.16993 6.90665 6.32508C5.61906 7.48382 4.68571 8.86561 4.25821 10.0927C3.81694 11.3596 3.98638 12.1888 4.40177 12.6171C4.71456 12.9395 5.36364 13.2467 6.58048 13.2255C6.6219 11.6295 7.33903 10.0252 8.30314 8.65907C9.43543 7.05467 11.0071 5.63144 12.6117 4.73817C14.1582 3.87736 16.0193 3.36068 17.5492 4.0995C18.498 4.55781 19.0761 5.45583 19.2133 6.49012C19.3491 7.5136 19.0599 8.64934 18.3666 9.73133C17.0033 11.8589 14.0357 13.8769 9.00919 14.9237C9.40679 15.5543 10.1236 16.1436 11.3393 16.6034C12.4435 17.021 13.4244 17.2804 14.2904 17.4208C14.2467 16.4353 14.5815 15.5373 15.0902 14.8046C15.7292 13.8844 16.6653 13.1791 17.6029 12.7704C18.4976 12.3805 19.6224 12.167 20.5522 12.5888C21.6041 13.066 22.042 14.1128 21.9965 15.1171C21.9511 16.1164 21.4481 17.1531 20.557 17.9618C19.7955 18.653 18.7709 19.1697 17.4887 19.4071C17.7594 19.651 18.0861 19.9043 18.4809 20.162C18.9434 20.4639 19.0737 21.0843 18.7719 21.5468C18.47 22.0089 17.8505 22.1394 17.3881 21.8378C16.2833 21.1167 15.4816 20.3358 14.9692 19.5136C13.6896 19.4098 12.2432 19.0828 10.6322 18.4735C8.69688 17.7416 7.47449 16.605 6.92228 15.2138C5.20048 15.2992 3.84733 14.9179 2.96622 14.0097C1.77169 12.778 1.82691 10.9922 2.36954 9.43446C2.92624 7.83657 4.07575 6.18238 5.56876 4.83875C7.06576 3.49158 8.96894 2.40275 11.0775 2.01649ZM19.726 14.411C19.5536 14.3328 19.0846 14.3068 18.4018 14.6044C17.7622 14.8832 17.1363 15.3657 16.7338 15.9452C16.3849 16.4477 16.2256 16.9848 16.309 17.538C17.7146 17.4522 18.6546 16.9865 19.2123 16.4804C19.7621 15.9814 19.9803 15.426 19.9984 15.0263C20.0162 14.6323 19.8606 14.4723 19.726 14.411ZM16.6791 5.90028C16.0587 5.60071 14.9723 5.7136 13.5844 6.48622C12.2547 7.22642 10.9048 8.44086 9.93693 9.81239C9.17155 10.8969 8.70534 11.9927 8.60099 12.9667C13.3242 11.9835 15.7124 10.1654 16.682 8.65223C17.1759 7.88144 17.2912 7.21476 17.2299 6.75282C17.17 6.30214 16.9495 6.03084 16.6791 5.90028Z" fill="currentColor" />
</svg>