<svg xmlns="http://www.w3.org/2000/svg" width="24" height="24" viewBox="0 0 24 24" fill="none">
    <path d="M1.29295 1.29302C1.68348 0.902491 2.31649 0.902491 2.70702 1.29302L22.707 21.293C23.0975 21.6835 23.0975 22.3166 22.707 22.7071C22.3165 23.0976 21.6835 23.0976 21.293 22.7071L1.29295 2.70708C0.90243 2.31655 0.90243 1.68354 1.29295 1.29302Z" fill="currentColor" />
    <path d="M1 12.0001C1 8.68635 3.68629 6.00006 7 6.00006C7.55228 6.00006 8 6.44778 8 7.00006C8 7.55235 7.55228 8.00006 7 8.00006C4.79086 8.00006 3 9.79092 3 12.0001C3 14.2092 4.79086 16.0001 7 16.0001H9C9.55228 16.0001 10 16.4478 10 17.0001C10 17.5523 9.55228 18.0001 9 18.0001H7C3.68629 18.0001 1 15.3138 1 12.0001Z" fill="currentColor" />
    <path d="M21 12.0001C21 9.79092 19.2091 8.00006 17 8.00006H13.5C12.9477 8.00006 12.5 7.55235 12.5 7.00006C12.5 6.44778 12.9477 6.00006 13.5 6.00006H17C20.3137 6.00006 23 8.68635 23 12.0001C23 13.3496 22.5531 14.5978 21.7998 15.6006C21.4681 16.0422 20.841 16.1315 20.3994 15.7999C19.9579 15.4682 19.8695 14.841 20.2012 14.3995C20.7032 13.7311 21 12.9016 21 12.0001Z" fill="currentColor" />
    <path d="M17 16.0001C17.5523 16.0001 18 16.4478 18 17.0001C18 17.5523 17.5523 18.0001 17 18.0001H15C14.4477 18.0001 14 17.5523 14 17.0001C14 16.4478 14.4477 16.0001 15 16.0001H17Z" fill="currentColor" />
    <path d="M12 11.0001C12.5523 11.0001 13 11.4478 13 12.0001C13 12.5523 12.5523 13.0001 12 13.0001H8.5C7.94772 13.0001 7.5 12.5523 7.5 12.0001C7.5 11.4478 7.94772 11.0001 8.5 11.0001H12Z" fill="currentColor" />
</svg>