<svg xmlns="http://www.w3.org/2000/svg" width="24" height="24" viewBox="0 0 24 24" fill="none">
    <path d="M1 12C1 8.68629 3.68629 6 7 6H9C9.55228 6 10 6.44772 10 7C10 7.55228 9.55228 8 9 8H7C4.79086 8 3 9.79086 3 12C3 14.2091 4.79086 16 7 16H9C9.55228 16 10 16.4477 10 17C10 17.5523 9.55228 18 9 18H7C3.68629 18 1 15.3137 1 12ZM21 12C21 9.79086 19.2091 8 17 8H15C14.4477 8 14 7.55228 14 7C14 6.44772 14.4477 6 15 6H17C20.3137 6 23 8.68629 23 12C23 15.3137 20.3137 18 17 18H15C14.4477 18 14 17.5523 14 17C14 16.4477 14.4477 16 15 16H17C19.2091 16 21 14.2091 21 12Z" fill="currentColor" />
    <path d="M15.5 11C16.0523 11 16.5 11.4477 16.5 12C16.5 12.5523 16.0523 13 15.5 13H8.5C7.94772 13 7.5 12.5523 7.5 12C7.5 11.4477 7.94772 11 8.5 11H15.5Z" fill="currentColor" />
</svg>