<svg xmlns="http://www.w3.org/2000/svg" width="24" height="24" viewBox="0 0 24 24" fill="none">
    <path d="M20.293 5.29289C20.6835 4.90237 21.3165 4.90237 21.707 5.29289C22.0976 5.68342 22.0976 6.31643 21.707 6.70696L18.707 9.70696C18.3165 10.0975 17.6835 10.0975 17.293 9.70696L14.293 6.70696C13.9024 6.31643 13.9024 5.68342 14.293 5.29289C14.6835 4.90237 15.3165 4.90237 15.707 5.29289L18 7.58586L20.293 5.29289Z" fill="currentColor" />
    <path d="M17.3691 14.2244C17.7619 13.904 18.3409 13.9266 18.707 14.2927L21.707 17.2927C22.0976 17.6833 22.0976 18.3163 21.707 18.7068C21.3165 19.0973 20.6835 19.0973 20.293 18.7068L18 16.4138L15.707 18.7068C15.3165 19.0973 14.6835 19.0973 14.293 18.7068C13.9024 18.3163 13.9024 17.6833 14.293 17.2927L17.293 14.2927L17.3691 14.2244Z" fill="currentColor" />
    <path d="M11 5C11.5523 5 12 5.44772 12 6C12 6.55228 11.5523 7 11 7H3C2.44772 7 2 6.55228 2 6C2 5.44772 2.44772 5 3 5H11Z" fill="currentColor" />
    <path d="M11 11C11.5523 11 12 11.4477 12 12C12 12.5523 11.5523 13 11 13H3C2.44772 13 2 12.5523 2 12C2 11.4477 2.44772 11 3 11H11Z" fill="currentColor" />
    <path d="M11 17C11.5523 17 12 17.4477 12 18C12 18.5523 11.5523 19 11 19H3C2.44772 19 2 18.5523 2 18C2 17.4477 2.44772 17 3 17H11Z" fill="currentColor" />
</svg>