<svg xmlns="http://www.w3.org/2000/svg" width="24" height="24" viewBox="0 0 24 24" fill="none">
    <path d="M9.00012 4.99963C9.55241 4.99963 10.0001 5.44735 10.0001 5.99963C10.0001 6.55192 9.55241 6.99963 9.00012 6.99963H3.00012C2.44784 6.99963 2.00012 6.55192 2.00012 5.99963C2.00012 5.44735 2.44784 4.99963 3.00012 4.99963H9.00012Z" fill="currentColor" />
    <path d="M20.0001 20.9997V7.99968C20.0001 7.4474 19.5524 6.99968 19.0001 6.99968H15.4142L16.7071 8.29265C17.0977 8.68317 17.0977 9.31619 16.7071 9.70671C16.3166 10.0972 15.6836 10.0972 15.2931 9.70671L12.2931 6.70671C11.9026 6.31619 11.9026 5.68317 12.2931 5.29265L15.2931 2.29265C15.6836 1.90212 16.3166 1.90212 16.7071 2.29265C17.0977 2.68317 17.0977 3.31619 16.7071 3.70671L15.4142 4.99968H19.0001C20.657 4.99968 22.0001 6.34283 22.0001 7.99968V20.9997C22.0001 21.552 21.5524 21.9997 21.0001 21.9997C20.4478 21.9997 20.0001 21.552 20.0001 20.9997Z" fill="currentColor" />
    <path d="M16.0001 11.9996C16.5524 11.9996 17.0001 12.4473 17.0001 12.9996C17.0001 13.5519 16.5524 13.9996 16.0001 13.9996H3.00012C2.44784 13.9996 2.00012 13.5519 2.00012 12.9996C2.00012 12.4473 2.44784 11.9996 3.00012 11.9996H16.0001Z" fill="currentColor" />
    <path d="M16.0001 18.9996C16.5524 18.9996 17.0001 19.4473 17.0001 19.9996C17.0001 20.5519 16.5524 20.9996 16.0001 20.9996H3.00012C2.44784 20.9996 2.00012 20.5519 2.00012 19.9996C2.00012 19.4473 2.44784 18.9996 3.00012 18.9996H16.0001Z" fill="currentColor" />
</svg>