<svg xmlns="http://www.w3.org/2000/svg" width="24" height="24" viewBox="0 0 24 24" fill="none">
    <path d="M21 5C21.5523 5 22 5.44772 22 6C22 6.55229 21.5523 7 21 7L11 7C10.4477 7 10 6.55228 10 6C10 5.44772 10.4477 5 11 5L21 5Z" fill="currentColor" />
    <path d="M21 11C21.5523 11 22 11.4477 22 12C22 12.5523 21.5523 13 21 13L11 13C10.4477 13 10 12.5523 10 12C10 11.4477 10.4477 11 11 11L21 11Z" fill="currentColor" />
    <path d="M21 17C21.5523 17 22 17.4477 22 18C22 18.5523 21.5523 19 21 19L11 19C10.4477 19 10 18.5523 10 18C10 17.4477 10.4477 17 11 17L21 17Z" fill="currentColor" />
    <path d="M7.7188 3.37539C8.06381 2.94413 8.69379 2.87413 9.12505 3.21914C9.55631 3.56415 9.62631 4.19413 9.2813 4.62539L5.2813 9.62539C5.10369 9.8474 4.83957 9.9826 4.55571 9.99844C4.2717 10.0142 3.99415 9.90855 3.79302 9.70742L2.29302 8.20742C1.90249 7.8169 1.90249 7.18388 2.29302 6.79336C2.68354 6.40283 3.31655 6.40283 3.70708 6.79336L4.41606 7.50234L7.7188 3.37539Z" fill="currentColor" />
    <path d="M7.7188 14.3754C8.06381 13.9441 8.69379 13.8741 9.12505 14.2191C9.55631 14.5641 9.62631 15.1941 9.2813 15.6254L5.2813 20.6254C5.10369 20.8474 4.83957 20.9826 4.55571 20.9984C4.2717 21.0142 3.99415 20.9086 3.79302 20.7074L2.29302 19.2074C1.90249 18.8169 1.90249 18.1839 2.29302 17.7934C2.68354 17.4028 3.31655 17.4028 3.70708 17.7934L4.41606 18.5023L7.7188 14.3754Z" fill="currentColor" />
</svg>