<svg xmlns="http://www.w3.org/2000/svg" width="24" height="24" viewBox="0 0 24 24" fill="none">
    <path d="M17 19C17.5523 19 18 19.4477 18 20C18 20.5523 17.5523 21 17 21H12C11.4477 21 11 20.5523 11 20C11 19.4477 11.4477 19 12 19H17ZM3 3C3.55228 3 4 3.44772 4 4V6C4 6.55228 4.44772 7 5 7H8C8.55228 7 9 7.44772 9 8C9 8.55228 8.55228 9 8 9H5C4.64888 9 4.31314 8.93604 4 8.8252V14C4 14.5523 4.44772 15 5 15H8C8.55228 15 9 15.4477 9 16C9 16.5523 8.55228 17 8 17H5C3.34315 17 2 15.6569 2 14V4C2 3.44772 2.44772 3 3 3ZM21 15C21.5523 15 22 15.4477 22 16C22 16.5523 21.5523 17 21 17H12C11.4477 17 11 16.5523 11 16C11 15.4477 11.4477 15 12 15H21ZM17 11C17.5523 11 18 11.4477 18 12C18 12.5523 17.5523 13 17 13H12C11.4477 13 11 12.5523 11 12C11 11.4477 11.4477 11 12 11H17ZM21 7C21.5523 7 22 7.44772 22 8C22 8.55228 21.5523 9 21 9H12C11.4477 9 11 8.55228 11 8C11 7.44772 11.4477 7 12 7H21Z" fill="currentColor" />
</svg>