<svg xmlns="http://www.w3.org/2000/svg" width="24" height="24" viewBox="0 0 24 24" fill="none">
    <path d="M21 3C21.5523 3 22 3.44772 22 4C22 4.55228 21.5523 5 21 5H10C9.44772 5 9 4.55228 9 4C9 3.44772 9.44772 3 10 3H21Z" fill="currentColor" />
    <path d="M21 11C21.5523 11 22 11.4477 22 12C22 12.5523 21.5523 13 21 13H10C9.44772 13 9 12.5523 9 12C9 11.4477 9.44772 11 10 11H21Z" fill="currentColor" />
    <path d="M21 19C21.5523 19 22 19.4477 22 20C22 20.5523 21.5523 21 21 21H10C9.44772 21 9 20.5523 9 20C9 19.4477 9.44772 19 10 19H21Z" fill="currentColor" />
    <path d="M2.29302 3.79289C2.68354 3.40237 3.31655 3.40237 3.70708 3.79289L6.70708 6.79289C7.0976 7.18342 7.0976 7.81643 6.70708 8.20696L3.70708 11.207C3.31655 11.5975 2.68354 11.5975 2.29302 11.207C1.90249 10.8164 1.90249 10.1834 2.29302 9.79289L4.58598 7.49992L2.29302 5.20696C1.90249 4.81643 1.90249 4.18342 2.29302 3.79289Z" fill="currentColor" />
    <path d="M2.29302 12.7929C2.68354 12.4024 3.31655 12.4024 3.70708 12.7929L6.70708 15.7929C7.0976 16.1834 7.0976 16.8164 6.70708 17.207L3.70708 20.207C3.31655 20.5975 2.68354 20.5975 2.29302 20.207C1.90249 19.8164 1.90249 19.1834 2.29302 18.7929L4.58598 16.4999L2.29302 14.207C1.90249 13.8164 1.90249 13.1834 2.29302 12.7929Z" fill="currentColor" />
</svg>