<svg xmlns="http://www.w3.org/2000/svg" width="24" height="24" viewBox="0 0 24 24" fill="none">
    <path d="M9 19C9.55228 19 10 18.5523 10 18C10 17.4477 9.55228 17 9 17H3C2.44772 17 2 17.4477 2 18C2 18.5523 2.44772 19 3 19H9Z" fill="currentColor" />
    <path d="M20 3.00008V16.0001C20 16.5524 19.5523 17.0001 19 17.0001H15.4141L16.7071 15.7071C17.0976 15.3166 17.0976 14.6836 16.7071 14.293C16.3166 13.9025 15.6835 13.9025 15.293 14.293L12.293 17.293C11.9025 17.6836 11.9025 18.3166 12.293 18.7071L15.293 21.7071C15.6835 22.0976 16.3166 22.0976 16.7071 21.7071C17.0976 21.3166 17.0976 20.6836 16.7071 20.293L15.4141 19.0001H19C20.6569 19.0001 22 17.6569 22 16.0001V3.00008C22 2.44779 21.5523 2.00008 21 2.00008C20.4478 2.00008 20 2.44779 20 3.00008Z" fill="currentColor" />
    <path d="M16 12C16.5523 12 17 11.5523 17 11C17 10.4477 16.5523 10 16 10H3C2.44772 10 2 10.4477 2 11C2 11.5523 2.44772 12 3 12H16Z" fill="currentColor" />
    <path d="M16 5C16.5523 5 17 4.55228 17 4C17 3.44772 16.5523 3 16 3H3C2.44772 3 2 3.44772 2 4C2 4.55228 2.44772 5 3 5H16Z" fill="currentColor" />
</svg>