<svg xmlns="http://www.w3.org/2000/svg" width="24" height="24" viewBox="0 0 24 24" fill="none">
    <path d="M2.29302 7.29289C2.68354 6.90237 3.31655 6.90237 3.70708 7.29289L7.70708 11.2929C8.0976 11.6834 8.0976 12.3164 7.70708 12.707L3.70708 16.707C3.31655 17.0975 2.68354 17.0975 2.29302 16.707C1.90249 16.3164 1.90249 15.6834 2.29302 15.2929L5.58598 11.9999L2.29302 8.70696C1.90249 8.31643 1.90249 7.68342 2.29302 7.29289Z" fill="currentColor" />
    <path d="M21.0001 11C21.5524 11 22.0001 11.4477 22.0001 12C22.0001 12.5523 21.5524 13 21.0001 13H11.0001C10.4478 13 10.0001 12.5523 10.0001 12C10.0001 11.4477 10.4478 11 11.0001 11H21.0001Z" fill="currentColor" />
    <path d="M21.0001 18C21.5524 18 22.0001 18.4477 22.0001 19C22.0001 19.5523 21.5524 20 21.0001 20H11.0001C10.4478 20 10.0001 19.5523 10.0001 19C10.0001 18.4477 10.4478 18 11.0001 18H21.0001Z" fill="currentColor" />
    <path d="M21.0001 4C21.5524 4 22.0001 4.44772 22.0001 5C22.0001 5.55228 21.5524 6 21.0001 6H11.0001C10.4478 6 10.0001 5.55228 10.0001 5C10.0001 4.44772 10.4478 4 11.0001 4H21.0001Z" fill="currentColor" />
</svg>