<svg xmlns="http://www.w3.org/2000/svg" width="24" height="24" viewBox="0 0 24 24" fill="none">
    <path d="M11 6V3C11 2.44772 11.4477 2 12 2C12.5523 2 13 2.44772 13 3V6C13 6.55228 12.5523 7 12 7C11.4477 7 11 6.55228 11 6Z" fill="currentColor" />
    <path d="M11 21V18C11 17.4477 11.4477 17 12 17C12.5523 17 13 17.4477 13 18V21C13 21.5523 12.5523 22 12 22C11.4477 22 11 21.5523 11 21Z" fill="currentColor" />
    <path d="M21 11C21.5523 11 22 11.4477 22 12C22 12.5523 21.5523 13 21 13H18C17.4477 13 17 12.5523 17 12C17 11.4477 17.4477 11 18 11H21Z" fill="currentColor" />
    <path d="M6 11C6.55228 11 7 11.4477 7 12C7 12.5523 6.55228 13 6 13H3C2.44772 13 2 12.5523 2 12C2 11.4477 2.44772 11 3 11H6Z" fill="currentColor" />
    <path d="M17.6562 4.92968C18.0467 4.53919 18.6798 4.53926 19.0703 4.92968C19.4608 5.32021 19.4608 5.95322 19.0703 6.34375L16.9492 8.46484C16.5587 8.85537 15.9257 8.85536 15.5351 8.46484C15.1447 8.07431 15.1447 7.44127 15.5351 7.05078L17.6562 4.92968Z" fill="currentColor" />
    <path d="M7.05078 15.5351C7.44127 15.1447 8.07431 15.1447 8.46484 15.5351C8.85536 15.9257 8.85537 16.5587 8.46484 16.9492L6.34375 19.0703C5.95322 19.4608 5.32021 19.4608 4.92968 19.0703C4.53926 18.6798 4.53919 18.0467 4.92968 17.6562L7.05078 15.5351Z" fill="currentColor" />
    <path d="M15.5351 15.5352C15.9257 15.1447 16.5587 15.1447 16.9492 15.5352L19.0703 17.6563C19.4608 18.0468 19.4608 18.6798 19.0703 19.0704C18.6798 19.4609 18.0468 19.4609 17.6562 19.0704L15.5351 16.9493C15.1446 16.5587 15.1446 15.9257 15.5351 15.5352Z" fill="currentColor" />
    <path d="M4.92967 4.92973C5.3202 4.53921 5.95321 4.53921 6.34374 4.92973L8.46483 7.05083C8.85535 7.44135 8.85535 8.07437 8.46483 8.46489C8.07431 8.85541 7.44129 8.85541 7.05077 8.46489L4.92967 6.3438C4.53915 5.95327 4.53915 5.32026 4.92967 4.92973Z" fill="currentColor" />
</svg>