<svg xmlns="http://www.w3.org/2000/svg" width="24" height="24" viewBox="0 0 24 24" fill="none">
    <path d="M12 6.25C14.8995 6.25 17.25 8.6005 17.25 11.5C17.25 13.2068 16.3527 14.5659 15.3926 15.5332C14.4294 16.5035 13.3305 17.1558 12.749 17.4648C12.2791 17.7146 11.7209 17.7146 11.251 17.4648C10.6695 17.1558 9.57065 16.5035 8.60742 15.5332C7.64727 14.5659 6.75 13.2068 6.75 11.5C6.75 8.6005 9.1005 6.25 12 6.25ZM12 10C11.1716 10 10.5 10.6716 10.5 11.5C10.5 12.3284 11.1716 13 12 13H12.0088C12.8372 13 13.5088 12.3284 13.5088 11.5C13.5088 10.6716 12.8372 10 12.0088 10H12Z" fill="currentColor" />
    <path fill-rule="evenodd" clip-rule="evenodd" d="M12 3C8.31098 3 5.13816 5.21965 3.74844 8.40037C3.52732 8.90646 2.9378 9.13747 2.43172 8.91635C1.92563 8.69523 1.69462 8.10572 1.91573 7.59963C3.61225 3.71673 7.48774 1 12 1C17.1903 1 21.5388 4.59377 22.6973 9.42754C22.8954 10.2538 23 11.1153 23 12C23 12.3079 22.8581 12.5987 22.6154 12.7882C22.3727 12.9777 22.0562 13.0448 21.7575 12.9701L19.7575 12.4701C19.4135 12.3842 19.1408 12.1225 19.0407 11.7824C18.9406 11.4423 19.028 11.0746 19.2706 10.816L20.614 9.38334C19.4934 5.68861 16.0595 3 12 3ZM1.38459 11.2118C1.6273 11.0223 1.94379 10.9552 2.24254 11.0299L4.24254 11.5299C4.575 11.613 4.84175 11.8605 4.94939 12.1859C5.05703 12.5113 4.99057 12.8691 4.77328 13.1341L3.43342 14.7681C4.60102 18.3848 7.99627 21 12 21C15.689 21 18.8618 18.7803 20.2516 15.5996C20.4727 15.0935 21.0622 14.8625 21.5683 15.0836C22.0744 15.3048 22.3054 15.8943 22.0843 16.4004C20.3878 20.2833 16.5123 23 12 23C6.88958 23 2.59544 19.516 1.35852 14.7951C1.12438 13.9015 1 12.9645 1 12C1 11.6921 1.14187 11.4013 1.38459 11.2118Z" fill="currentColor" />
</svg>