<svg xmlns="http://www.w3.org/2000/svg" width="24" height="24" viewBox="0 0 24 24" fill="none">
    <path d="M18 12C18 8.68629 15.3137 6 12 6C8.68629 6 6 8.68629 6 12C6 15.3137 8.68629 18 12 18C15.3137 18 18 15.3137 18 12ZM20 12C20 16.4183 16.4183 20 12 20C7.58172 20 4 16.4183 4 12C4 7.58172 7.58172 4 12 4C16.4183 4 20 7.58172 20 12Z" fill="currentColor" />
    <path d="M22 11C22.5523 11 23 11.4477 23 12C23 12.5523 22.5523 13 22 13H19C18.4477 13 18 12.5523 18 12C18 11.4477 18.4477 11 19 11H22Z" fill="currentColor" />
    <path d="M5 11C5.55228 11 6 11.4477 6 12C6 12.5523 5.55228 13 5 13H2C1.44772 13 1 12.5523 1 12C1 11.4477 1.44772 11 2 11H5Z" fill="currentColor" />
    <path d="M13 22C13 22.5523 12.5523 23 12 23C11.4477 23 11 22.5523 11 22L11 19C11 18.4477 11.4477 18 12 18C12.5523 18 13 18.4477 13 19L13 22Z" fill="currentColor" />
    <path d="M13.0039 5C13.0039 5.55228 12.5562 6 12.0039 6C11.4516 6 11.0039 5.55228 11.0039 5L11.0039 2C11.0039 1.44772 11.4516 1 12.0039 1C12.5562 1 13.0039 1.44772 13.0039 2L13.0039 5Z" fill="currentColor" />
</svg>