<svg xmlns="http://www.w3.org/2000/svg" width="24" height="24" viewBox="0 0 24 24" fill="none">
    <path d="M20.7502 20C20.7502 21.5187 19.5189 22.7499 18.0002 22.75H6.00116C4.48247 22.75 3.2513 21.5187 3.25116 20L3.25018 11C3.25018 9.48123 4.48139 8.25 6.00018 8.25H18.0002C19.5189 8.2501 20.7502 9.48128 20.7502 11V20Z" fill="currentColor" />
    <path d="M6.5 9.25V6.75C6.5 3.71243 8.96243 1.25 12 1.25C14.4611 1.25 16.2112 2.84839 16.9424 4.91699C17.1264 5.43769 16.8537 6.00834 16.333 6.19238C15.8123 6.37638 15.2417 6.1037 15.0576 5.58301C14.5532 4.15607 13.4576 3.25 12 3.25C10.067 3.25 8.5 4.817 8.5 6.75V9.25C8.5 9.80228 8.05228 10.25 7.5 10.25C6.94772 10.25 6.5 9.80228 6.5 9.25Z" fill="currentColor" />
</svg>