<svg xmlns="http://www.w3.org/2000/svg" width="24" height="24" viewBox="0 0 24 24" fill="none">
    <path d="M6.5 9.125V6.625C6.5 3.58743 8.96243 1.125 12 1.125C14.4611 1.125 16.2112 2.72339 16.9424 4.79199C17.1264 5.31269 16.8537 5.88334 16.333 6.06738C15.8123 6.25138 15.2417 5.9787 15.0576 5.45801C14.5532 4.03107 13.4576 3.125 12 3.125C10.067 3.125 8.5 4.692 8.5 6.625V9.125C8.5 9.67728 8.05228 10.125 7.5 10.125C6.94772 10.125 6.5 9.67728 6.5 9.125Z" fill="currentColor" />
    <path d="M20.7502 20.125C20.7502 21.6437 19.5189 22.8749 18.0002 22.875H6.00116C4.48248 22.875 3.2513 21.6437 3.25116 20.125L3.25018 11.125C3.25018 9.60623 4.48139 8.375 6.00018 8.375H18.0002C19.5189 8.3751 20.7502 9.60628 20.7502 11.125V20.125ZM12 18.625C13.6569 18.625 15 17.2819 15 15.625C15 13.9681 13.6569 12.625 12 12.625C10.3431 12.625 9 13.9681 9 15.625C9 17.2819 10.3431 18.625 12 18.625Z" fill="currentColor" />
    <path fill-rule="evenodd" clip-rule="evenodd" d="M12 14.625C12.5523 14.625 13 15.0727 13 15.625C13 16.1773 12.5523 16.625 12 16.625C11.4477 16.625 11 16.1773 11 15.625C11 15.0727 11.4477 14.625 12 14.625Z" fill="currentColor" />
</svg>