<svg xmlns="http://www.w3.org/2000/svg" width="24" height="24" viewBox="0 0 24 24" fill="none">
    <path d="M16.793 7.79295C17.1835 7.40243 17.8165 7.40243 18.207 7.79295L21.707 11.293C21.8946 11.4805 22 11.7348 22 12C22 12.2652 21.8946 12.5195 21.707 12.707L18.207 16.207C17.8165 16.5975 17.1835 16.5975 16.793 16.207C16.4024 15.8165 16.4024 15.1835 16.793 14.793L18.5859 13H10C9.44772 13 9 12.5523 9 12C9 11.4477 9.44772 11 10 11H18.5859L16.793 9.20702C16.4024 8.81649 16.4024 8.18348 16.793 7.79295Z" fill="currentColor" />
    <path d="M13 6V4.5C13 3.94772 12.5523 3.5 12 3.5H5C4.44772 3.5 4 3.94772 4 4.5V19.5C4 20.0523 4.44772 20.5 5 20.5H12C12.5523 20.5 13 20.0523 13 19.5V18C13 17.4477 13.4477 17 14 17C14.5523 17 15 17.4477 15 18V19.5C15 21.1569 13.6569 22.5 12 22.5H5C3.34315 22.5 2 21.1569 2 19.5V4.5C2 2.84315 3.34315 1.5 5 1.5H12C13.6569 1.5 15 2.84315 15 4.5V6C15 6.55228 14.5523 7 14 7C13.4477 7 13 6.55228 13 6Z" fill="currentColor" />
</svg>