<svg xmlns="http://www.w3.org/2000/svg" width="24" height="24" viewBox="0 0 24 24" fill="none">
    <path d="M21 4C21.5523 4 22 4.44772 22 5C22 5.55228 21.5523 6 21 6H10C9.44772 6 9 5.55228 9 5C9 4.44772 9.44772 4 10 4H21Z" fill="currentColor" />
    <path d="M5.5 4C6.05228 4 6.5 4.44772 6.5 5C6.5 5.55228 6.05228 6 5.5 6H3C2.44772 6 2 5.55228 2 5C2 4.44772 2.44772 4 3 4H5.5Z" fill="currentColor" />
    <path d="M21 11C21.5523 11 22 11.4477 22 12C22 12.5523 21.5523 13 21 13H10C9.44772 13 9 12.5523 9 12C9 11.4477 9.44772 11 10 11H21Z" fill="currentColor" />
    <path d="M5.5 11C6.05228 11 6.5 11.4477 6.5 12C6.5 12.5523 6.05228 13 5.5 13H3C2.44772 13 2 12.5523 2 12C2 11.4477 2.44772 11 3 11H5.5Z" fill="currentColor" />
    <path d="M21 18C21.5523 18 22 18.4477 22 19C22 19.5523 21.5523 20 21 20H10C9.44772 20 9 19.5523 9 19C9 18.4477 9.44772 18 10 18H21Z" fill="currentColor" />
    <path d="M5.5 18C6.05228 18 6.5 18.4477 6.5 19C6.5 19.5523 6.05228 20 5.5 20H3C2.44772 20 2 19.5523 2 19C2 18.4477 2.44772 18 3 18H5.5Z" fill="currentColor" />
</svg>