<svg xmlns="http://www.w3.org/2000/svg" width="24" height="24" viewBox="0 0 24 24" fill="none">
    <path d="M1.12515 5.03385C1.12515 3.41439 2.43799 2.10156 4.05744 2.10156H19.6963C21.3158 2.10156 22.6286 3.41439 22.6286 5.03385V11.4603C22.6286 12.0001 22.191 12.4377 21.6512 12.4377C21.1114 12.4377 20.6738 12.0001 20.6738 11.4603V7.3196L13.079 11.117C12.3222 11.4954 11.4315 11.4954 10.6748 11.117L3.08001 7.3196V16.763C3.08001 17.3028 3.51762 17.7405 4.05744 17.7405H11.4224C11.9622 17.7405 12.3998 18.1781 12.3998 18.7179C12.3998 19.2577 11.9622 19.6953 11.4224 19.6953H4.05744C2.43799 19.6953 1.12515 18.3825 1.12515 16.763V5.03385Z" fill="currentColor" />
    <path fill-rule="evenodd" clip-rule="evenodd" d="M18.3752 12.8984C18.9274 12.8984 19.3752 13.3462 19.3752 13.8984V16.3984H21.8752C22.4274 16.3984 22.8752 16.8462 22.8752 17.3984C22.8752 17.9507 22.4274 18.3984 21.8752 18.3984H19.3752V20.8984C19.3752 21.4507 18.9274 21.8984 18.3752 21.8984C17.8229 21.8984 17.3752 21.4507 17.3752 20.8984V18.3984H14.8752C14.3229 18.3984 13.8752 17.9507 13.8752 17.3984C13.8752 16.8462 14.3229 16.3984 14.8752 16.3984H17.3752V13.8984C17.3752 13.3462 17.8229 12.8984 18.3752 12.8984Z" fill="currentColor" />
</svg>