<svg xmlns="http://www.w3.org/2000/svg" width="24" height="24" viewBox="0 0 24 24" fill="none">
    <path d="M20.9813 13.1092C21.3349 12.6851 21.9662 12.6278 22.3905 12.9813C22.8146 13.3349 22.8719 13.9663 22.5184 14.3905L17.5184 20.3905C17.3385 20.6063 17.0754 20.7362 16.7948 20.7489C16.5142 20.7615 16.2414 20.6555 16.0428 20.4569L13.5428 17.9569C13.1523 17.5664 13.1523 16.9334 13.5428 16.5428C13.9333 16.1523 14.5663 16.1523 14.9569 16.5428L16.6815 18.2675L20.9813 13.1092Z" fill="currentColor" />
    <path fill-rule="evenodd" clip-rule="evenodd" d="M4.18167 3.25C2.56247 3.25 1.24985 4.55584 1.24985 6.16667V17.8333C1.24985 19.4442 2.56247 20.75 4.18167 20.75H14.5682L12.659 18.8408C12.6474 18.8291 12.6358 18.8174 12.6245 18.8055H4.18166C3.64193 18.8055 3.20439 18.3702 3.20439 17.8333V8.71191L10.6887 12.4347C11.5141 12.8453 12.4856 12.8453 13.311 12.4347L20.7953 8.71191V11.7119C21.4083 11.4253 22.1308 11.4262 22.7498 11.7338V6.16667C22.7498 4.55584 21.4372 3.25 19.818 3.25H4.18167Z" fill="currentColor" />
</svg>