<svg xmlns="http://www.w3.org/2000/svg" width="24" height="24" viewBox="0 0 24 24" fill="none">
    <path d="M19.0001 16.9995V12.9995C19.0001 12.4472 19.4478 11.9995 20.0001 11.9995C20.5524 11.9995 21.0001 12.4472 21.0001 12.9995V16.9995C21.0001 17.5518 20.5524 17.9995 20.0001 17.9995C19.4478 17.9995 19.0001 17.5518 19.0001 16.9995Z" fill="currentColor" />
    <path d="M20.0001 19.7495C20.5524 19.7495 21.0001 20.1972 21.0001 20.7495C21.0001 21.3018 20.5524 21.7495 20.0001 21.7495C19.4478 21.7495 19.0001 21.3018 19.0001 20.7495C19.0001 20.1972 19.4478 19.7495 20.0001 19.7495Z" fill="currentColor" />
    <path d="M22.7501 10.7495H20.0001C18.7575 10.7495 17.7501 11.7569 17.7501 12.9995V19.7495H4.00012C2.48145 19.7494 1.25012 18.5182 1.25012 16.9995V6.43408L1.62805 6.65088C1.63543 6.6551 1.643 6.65961 1.65051 6.66357L10.7081 11.4302C11.1064 11.6398 11.5501 11.7495 12.0001 11.7495C12.4502 11.7495 12.8938 11.6398 13.2921 11.4302L22.3497 6.66357C22.3573 6.65958 22.3647 6.65513 22.3722 6.65088L22.7501 6.43408V10.7495Z" fill="currentColor" />
    <path d="M20.0001 2.24951C21.4226 2.24951 22.5928 3.32958 22.7355 4.71436L21.6505 5.33545L12.5929 10.103C12.4101 10.1991 12.2066 10.2495 12.0001 10.2495C11.7936 10.2495 11.5901 10.1991 11.4073 10.103L2.34973 5.33545L1.26477 4.71533C1.40697 3.33015 2.5774 2.24964 4.00012 2.24951H20.0001Z" fill="currentColor" />
</svg>