<svg xmlns="http://www.w3.org/2000/svg" width="24" height="24" viewBox="0 0 24 24" fill="none">
    <path d="M5.00012 8.24951V12.9995C5.00012 15.2087 6.79098 16.9995 9.00012 16.9995H17.7501V18.9995C17.7501 20.5183 16.5189 21.7495 15.0001 21.7495H4.00012C2.48134 21.7495 1.25012 20.5183 1.25012 18.9995V10.9995C1.25012 9.48073 2.48134 8.24951 4.00012 8.24951H5.00012Z" fill="currentColor" />
    <path d="M22.7501 12.9995C22.7501 14.5183 21.5189 15.7495 20.0001 15.7495H9.00012C7.48134 15.7495 6.25012 14.5183 6.25012 12.9995V6.43408L6.62805 6.65088C6.63433 6.65447 6.6412 6.65822 6.64758 6.66162L13.2062 10.1597C14.0149 10.5908 14.9854 10.5908 15.7941 10.1597L22.3527 6.66162C22.359 6.65822 22.3659 6.65446 22.3722 6.65088L22.7501 6.43408V12.9995Z" fill="currentColor" />
    <path d="M20.0001 2.24951C21.4226 2.24951 22.5918 3.32961 22.7345 4.71436L21.6359 5.34229L15.088 8.83545C14.7204 9.03144 14.2798 9.03144 13.9122 8.83545L7.3634 5.34229L6.26477 4.71436C6.40744 3.32957 7.57763 2.24951 9.00012 2.24951H20.0001Z" fill="currentColor" />
</svg>