<svg xmlns="http://www.w3.org/2000/svg" width="24" height="24" viewBox="0 0 24 24" fill="none">
    <path fill-rule="evenodd" clip-rule="evenodd" d="M11.5 1.25C16.3395 1.25013 20.25 5.21119 20.25 10.0811C20.25 11.4302 19.9869 12.6347 19.4775 13.7344C19.346 12.617 18.3975 11.7501 17.2451 11.75C16.0025 11.75 14.9951 12.7574 14.9951 14V14.7451H14.25C13.0074 14.7451 12 15.7525 12 16.9951C12.0001 18.2374 13.0073 19.2451 14.25 19.2451H14.6836C13.6662 20.3389 12.6716 21.5197 12.1406 22.3906C12.0045 22.6139 11.7614 22.7499 11.5 22.75C11.2385 22.75 10.9955 22.6139 10.8594 22.3906C9.89235 20.8044 7.39406 18.183 6.00293 16.9502C3.86486 15.0555 2.75009 12.8757 2.75 10.0811C2.75 5.2111 6.66043 1.25 11.5 1.25ZM11.5 7C9.84315 7 8.5 8.34315 8.5 10C8.5 11.6569 9.84315 13 11.5 13C13.1567 12.9999 14.5 11.6568 14.5 10C14.5 8.34323 13.1567 7.00013 11.5 7Z" fill="currentColor" />
    <path d="M16.2451 20V17.9951H14.25C13.6978 17.9951 13.2501 17.5473 13.25 16.9951C13.25 16.4428 13.6977 15.9951 14.25 15.9951H16.2451V14C16.2451 13.4477 16.6928 13 17.2451 13C17.7973 13.0001 18.2451 13.4478 18.2451 14V15.9951H20.25C20.8023 15.9951 21.25 16.4428 21.25 16.9951C21.2499 17.5473 20.8022 17.9951 20.25 17.9951H18.2451V20C18.2451 20.5522 17.7973 20.9999 17.2451 21C16.6928 21 16.2451 20.5523 16.2451 20Z" fill="currentColor" />
</svg>