<svg xmlns="http://www.w3.org/2000/svg" width="24" height="24" viewBox="0 0 24 24" fill="none">
    <path d="M19.15 18.9L20.75 20.5M19.95 16.1C19.95 14.1118 18.3382 12.5 16.35 12.5C14.3618 12.5 12.75 14.1118 12.75 16.1C12.75 18.0882 14.3618 19.7 16.35 19.7C18.3382 19.7 19.95 18.0882 19.95 16.1Z" stroke="currentColor" stroke-width="2" stroke-linecap="round" stroke-linejoin="round" />
    <path fill-rule="evenodd" clip-rule="evenodd" d="M14.3278 21.5912C12.0935 20.7679 10.5 18.6197 10.5 16.0996C10.5 15.6413 10.5528 15.1953 10.6525 14.7673C9.1063 14.2142 8 12.7363 8 11C8 8.79086 9.79086 7 12 7C13.9579 7 15.5873 8.40675 15.9326 10.2647C16.0703 10.255 16.2094 10.25 16.3496 10.25C18.5462 10.25 20.4603 11.4607 21.4607 13.2512C21.646 12.5393 21.75 11.7885 21.75 11C21.75 5.61522 17.3848 1.25 12 1.25C6.61522 1.25 2.25 5.61522 2.25 11C2.25 14.8356 4.71049 17.7769 7.01953 19.7012C8.1867 20.6738 9.35074 21.4166 10.2207 21.916C10.6564 22.1661 11.0211 22.3567 11.2783 22.4854C11.4068 22.5496 11.5091 22.5985 11.5801 22.6318C11.5969 22.6398 11.6121 22.6471 11.6253 22.6534C11.6397 22.6604 11.652 22.6663 11.6621 22.6709L11.6724 22.6753L11.6855 22.6807C11.6883 22.6819 11.6953 22.6855 11.6953 22.6855L11.7695 22.7139C11.9444 22.7703 12.1351 22.7609 12.3047 22.6855L12.3145 22.6807C12.32 22.6782 12.3282 22.6753 12.3379 22.6709C12.348 22.6663 12.3604 22.6603 12.3748 22.6534C12.388 22.647 12.4031 22.6398 12.4199 22.6318C12.4909 22.5985 12.5932 22.5496 12.7217 22.4854C12.9789 22.3567 13.3436 22.1661 13.7793 21.916C13.9514 21.8172 14.135 21.7089 14.3278 21.5912Z" fill="currentColor" />
</svg>