<svg xmlns="http://www.w3.org/2000/svg" width="24" height="24" viewBox="0 0 24 24" fill="none">
    <path fill-rule="evenodd" clip-rule="evenodd" d="M9.99988 1.25C14.8393 1.25013 18.7499 5.21119 18.7499 10.0811C18.7499 10.7721 18.6798 11.4251 18.5448 12.0459C18.3656 12.0164 18.1835 12 17.9999 12C17.2003 12 16.426 12.2857 15.8182 12.8066L13.0477 15.1816C12.3828 15.7516 11.9999 16.5841 11.9999 17.46V20.5732C11.4435 21.2336 10.959 21.8682 10.6405 22.3906C10.5044 22.6139 10.2613 22.7499 9.99988 22.75C9.73838 22.75 9.49542 22.6139 9.35925 22.3906C8.39223 20.8044 5.89394 18.183 4.50281 16.9502C2.36474 15.0555 1.24997 12.8757 1.24988 10.0811C1.24988 5.2111 5.16031 1.25 9.99988 1.25ZM9.99988 7C8.34302 7 6.99988 8.34315 6.99988 10C6.99988 11.6569 8.34302 13 9.99988 13C11.6566 12.9999 12.9999 11.6568 12.9999 10C12.9999 8.34323 11.6566 7.00013 9.99988 7Z" fill="currentColor" />
    <path d="M17.9999 13.25C18.5016 13.25 18.9871 13.4294 19.368 13.7559L22.1385 16.1309C22.5264 16.4633 22.7499 16.9491 22.7499 17.46V21C22.7499 21.9665 21.9664 22.75 20.9999 22.75H18.7499V20C18.7499 19.5858 18.4141 19.25 17.9999 19.25C17.5857 19.25 17.2499 19.5858 17.2499 20V22.75H14.9999C14.0334 22.75 13.2499 21.9665 13.2499 21V17.46C13.2499 16.9491 13.4733 16.4633 13.8612 16.1309L16.6317 13.7559C17.0126 13.4294 17.4982 13.25 17.9999 13.25Z" fill="currentColor" />
</svg>