<svg xmlns="http://www.w3.org/2000/svg" width="24" height="24" viewBox="0 0 24 24" fill="none">
    <path fill-rule="evenodd" clip-rule="evenodd" d="M11.6723 22.6752C11.6692 22.6739 11.6657 22.6725 11.6621 22.6709L11.6723 22.6752ZM12.3588 22.661C12.3638 22.6586 12.3691 22.6561 12.3748 22.6533C12.3704 22.6554 12.3628 22.6591 12.3588 22.661Z" fill="currentColor" />
    <path d="M21.75 11C21.75 14.8356 19.2895 17.7769 16.9805 19.7012C15.8133 20.6738 14.6493 21.4166 13.7793 21.916C13.3436 22.1661 12.9789 22.3567 12.7217 22.4854C12.5932 22.5496 12.4909 22.5985 12.4199 22.6318C12.4031 22.6398 12.388 22.647 12.3748 22.6534C12.3604 22.6603 12.348 22.6663 12.3379 22.6709C12.3282 22.6753 12.32 22.6782 12.3145 22.6807L12.3047 22.6855C12.1351 22.7609 11.9444 22.7703 11.7695 22.7139L11.6953 22.6855C11.6937 22.6848 11.6883 22.6819 11.6855 22.6807C11.684 22.68 11.6741 22.676 11.6724 22.6753C11.6692 22.674 11.6658 22.6726 11.6621 22.6709C11.652 22.6663 11.6397 22.6603 11.6252 22.6534C11.612 22.647 11.5969 22.6398 11.5801 22.6318C11.5091 22.5985 11.4068 22.5496 11.2783 22.4854C11.0211 22.3567 10.6564 22.1661 10.2207 21.916C9.35074 21.4166 8.1867 20.6738 7.01953 19.7012C4.71049 17.7769 2.25 14.8356 2.25 11C2.25 5.61522 6.61522 1.25 12 1.25C17.3848 1.25 21.75 5.61522 21.75 11ZM16.1406 7.23145C15.7164 6.87791 15.085 6.93519 14.7314 7.35938L10.4316 12.5176L9.20703 11.293C8.81651 10.9024 8.18349 10.9024 7.79297 11.293C7.40244 11.6835 7.40244 12.3165 7.79297 12.707L9.79297 14.707C9.99154 14.9056 10.2644 15.0116 10.5449 14.999C10.8256 14.9863 11.0887 14.8564 11.2686 14.6406L16.2686 8.64062C16.6221 8.21638 16.5648 7.58502 16.1406 7.23145Z" fill="currentColor" />
</svg>