<svg xmlns="http://www.w3.org/2000/svg" width="24" height="24" viewBox="0 0 24 24" fill="none">
    <path d="M13.2405 20.0565L8.75 18.132V1.5L14.25 3.85714V11.007C12.7283 12.1583 11.75 13.9912 11.75 16.0404C11.75 17.7767 12.4665 19.08 13.2405 20.0565Z" fill="currentColor" />
    <path d="M22.75 11.9523C21.6073 10.6072 19.909 9.75 18 9.75C17.2052 9.75 16.4469 9.8986 15.75 10.1691V4.24455H21C21.9665 4.24455 22.75 5.02805 22.75 5.99455V11.9523Z" fill="currentColor" />
    <path d="M7.25 1.53125L2.21738 4.04733C1.6245 4.34377 1.25 4.94973 1.25 5.61258V17.6071C1.25 18.8016 2.42022 19.645 3.5534 19.2673L7.25 18.0351V1.53125Z" fill="currentColor" />
    <path d="M18 11.25C20.6303 11.25 22.7498 13.4017 22.75 16.04C22.75 17.4748 22.0902 18.5602 21.3271 19.4531C20.9634 19.8788 20.5593 20.2795 20.1816 20.6543C20.1671 20.6688 20.1522 20.6829 20.1377 20.6973C19.7389 21.0932 19.3705 21.4627 19.0498 21.8467C18.5064 22.4974 17.4808 22.4743 16.958 21.8252C16.6475 21.4396 16.284 21.0734 15.8877 20.6836C15.8448 20.6414 15.8015 20.5985 15.7578 20.5557C15.4077 20.2122 15.0343 19.8456 14.6963 19.46C13.9239 18.5787 13.25 17.5023 13.25 16.04C13.2502 13.4017 15.3697 11.25 18 11.25ZM18 14.25C17.0335 14.25 16.25 15.0335 16.25 16C16.25 16.9665 17.0335 17.75 18 17.75H18.0088C18.9753 17.75 19.7588 16.9665 19.7588 16C19.7588 15.0335 18.9753 14.25 18.0088 14.25H18Z" fill="currentColor" />
</svg>