<svg xmlns="http://www.w3.org/2000/svg" width="24" height="24" viewBox="0 0 24 24" fill="none">
    <path d="M11.379 19.2645L8.75 18.1378V1.50586L14.25 3.863V10.5821C12.1637 11.7304 10.75 13.9499 10.75 16.4996C10.75 17.538 11.0009 18.4616 11.379 19.2645Z" fill="currentColor" />
    <path d="M15.75 9.9787V4.25041H21C21.9665 4.25041 22.75 5.03391 22.75 6.00041V12.2566C21.5125 10.7274 19.6204 9.74963 17.5 9.74963C16.8948 9.74963 16.3081 9.82929 15.75 9.9787Z" fill="currentColor" />
    <path d="M7.24976 1.537L2.21738 4.05319C1.6245 4.34963 1.25 4.95559 1.25 5.61844V17.613C1.25 18.8075 2.42022 19.6509 3.5534 19.2732L7.25 18.041L7.24976 1.537Z" fill="currentColor" />
    <path d="M17.5 11.248C20.3995 11.248 22.75 13.5986 22.75 16.498C22.75 18.2049 21.8527 19.564 20.8926 20.5312C19.9294 21.5016 18.8305 22.1538 18.249 22.4629C17.7791 22.7127 17.2209 22.7127 16.751 22.4629C16.1695 22.1538 15.0706 21.5016 14.1074 20.5312C13.1473 19.564 12.25 18.2049 12.25 16.498C12.25 13.5986 14.6005 11.248 17.5 11.248ZM17.4912 14.498C16.3916 14.498 15.5 15.3935 15.5 16.498C15.5 17.6026 16.3916 18.498 17.4912 18.498H17.5088C18.6084 18.498 19.5 17.6026 19.5 16.498C19.5 15.3935 18.6084 14.498 17.5088 14.498H17.4912Z" fill="currentColor" />
</svg>