<svg xmlns="http://www.w3.org/2000/svg" width="24" height="24" viewBox="0 0 24 24" fill="none">
    <path d="M14.5 5.25C16.7053 5.25 18.5 7.02921 18.5 9.23242C18.5 10.5003 17.9753 11.4905 17.0244 12.3203C16.4838 12.792 15.5142 13.8286 15.125 14.415C14.9837 14.6278 14.7437 14.754 14.4883 14.75C14.2328 14.746 13.9968 14.6118 13.8623 14.3945C13.5049 13.8174 12.5297 12.8038 11.9756 12.3203C11.0247 11.4905 10.5 10.5003 10.5 9.23242C10.5 7.02921 12.2947 5.25 14.5 5.25ZM14.5 7.75C13.6716 7.75 13 8.42158 13 9.25C13 10.0784 13.6716 10.75 14.5 10.75C15.3284 10.75 16 10.0784 16 9.25C16 8.42157 15.3284 7.75 14.5 7.75Z" fill="currentColor" />
    <path d="M19.3213 1.75C20.9387 1.75 22.25 3.06131 22.25 4.67871V19.3213C22.25 20.9387 20.9387 22.25 19.3213 22.25H4.67871C4.23569 22.25 3.81685 22.1487 3.44043 21.9727L10.9561 14.457L16.7979 20.2988H19.3223C19.8613 20.2988 20.2988 19.8613 20.2988 19.3223V4.67969C20.2988 4.14058 19.8614 3.70318 19.3223 3.70312H4.67969C4.14055 3.70312 3.70312 4.14055 3.70312 4.67969V7.2041L9.54199 13.043L2.02637 20.5586C1.85062 20.1825 1.75 19.7639 1.75 19.3213V4.67871C1.75 3.06131 3.06131 1.75 4.67871 1.75H19.3213Z" fill="currentColor" />
</svg>