<svg xmlns="http://www.w3.org/2000/svg" width="24" height="24" viewBox="0 0 24 24" fill="none">
    <path d="M20 9V5.41406L14.2071 11.207C13.8165 11.5976 13.1835 11.5976 12.793 11.207C12.4025 10.8165 12.4025 10.1835 12.793 9.79297L18.586 4H15C14.4478 4 14 3.55228 14 3C14 2.44772 14.4478 2 15 2H21C21.5523 2 22 2.44772 22 3V9C22 9.55228 21.5523 10 21 10C20.4478 10 20 9.55228 20 9Z" fill="currentColor" />
    <path d="M14 15C14 12.2386 11.7615 10 9.00004 10C6.23861 10 4.00004 12.2386 4.00004 15C4.00004 17.7614 6.23861 20 9.00004 20C11.7615 20 14 17.7614 14 15ZM16 15C16 18.866 12.866 22 9.00004 22C5.13404 22 2.00004 18.866 2.00004 15C2.00004 11.134 5.13404 8 9.00004 8C12.866 8 16 11.134 16 15Z" fill="currentColor" />
</svg>