<svg xmlns="http://www.w3.org/2000/svg" width="24" height="24" viewBox="0 0 24 24" fill="none">
    <path d="M11.75 2C15.9277 2 18.6734 3.0351 20.3545 4.88086C22.0242 6.71411 22.5 9.19321 22.5 11.75C22.5 14.3751 21.7407 16.8354 19.958 18.6406C18.1716 20.4495 15.4571 21.5 11.75 21.5C9.93644 21.5 8.38948 21.2904 7.07812 20.8965C6.24719 21.6062 4.6138 22.5 2.38281 22.5C2.05281 22.5 1.76124 22.2844 1.66504 21.9688C1.56886 21.6531 1.69089 21.311 1.96484 21.127C2.69277 20.6377 3.48793 19.2375 2.4873 17.6504C1.38081 15.9622 1 13.8934 1 11.75C1 9.17427 1.5505 6.70115 3.25098 4.875C4.96037 3.03928 7.69704 2 11.75 2ZM11.75 15C11.1977 15 10.75 15.4477 10.75 16C10.75 16.5523 11.1977 17 11.75 17C12.3023 17 12.75 16.5523 12.75 16C12.75 15.4477 12.3023 15 11.75 15ZM11.75 6.25C10.0931 6.25 8.75 7.59315 8.75 9.25C8.75 9.80228 9.19771 10.25 9.75 10.25C10.2677 10.25 10.6938 9.85667 10.7451 9.35254L10.7549 9.14746C10.8062 8.64333 11.2323 8.25 11.75 8.25C12.3023 8.25 12.75 8.69772 12.75 9.25C12.75 9.53878 12.6288 9.79759 12.4316 9.98145C12.1597 10.2348 11.7445 10.6024 11.4199 11.0127C11.0871 11.4333 10.75 12.0172 10.75 12.75C10.75 13.3023 11.1977 13.75 11.75 13.75C12.3023 13.75 12.75 13.3023 12.75 12.75C12.75 12.6546 12.791 12.5022 12.9883 12.2529C13.1937 11.9933 13.4609 11.7566 13.7949 11.4453C14.3812 10.899 14.75 10.1166 14.75 9.25C14.75 7.59315 13.4069 6.25 11.75 6.25Z" fill="currentColor" />
</svg>