<svg xmlns="http://www.w3.org/2000/svg" width="24" height="24" viewBox="0 0 24 24" fill="none">
    <path d="M12 1.75C17.6609 1.75 22.25 6.33908 22.25 12C22.25 17.6609 17.6609 22.25 12 22.25C10.2608 22.25 8.62106 21.8156 7.18457 21.0498C5.41041 20.2861 3.66557 20.6508 2.56543 20.7471C2.28587 20.7715 2.01617 20.6376 1.86621 20.4004C1.71638 20.1632 1.71155 19.8621 1.85352 19.6201C2.03694 19.3073 2.28999 18.6256 2.41797 17.7812C2.54491 16.9434 2.53507 16.0289 2.27148 15.2363C1.9329 14.2181 1.75 13.1296 1.75 12C1.75 6.33908 6.33908 1.75 12 1.75ZM12 16C11.4477 16 11 16.4477 11 17C11 17.5523 11.4477 18 12 18H12.0088L12.1113 17.9951C12.6155 17.9439 13.0088 17.5177 13.0088 17C13.0088 16.4823 12.6155 16.0561 12.1113 16.0049L12.0088 16H12ZM12 6C10.067 6 8.5 7.567 8.5 9.5C8.5 10.0523 8.94772 10.5 9.5 10.5C10.0523 10.5 10.5 10.0523 10.5 9.5C10.5 8.67158 11.1716 8 12 8C12.8284 8 13.5 8.67158 13.5 9.5C13.5 10.1196 13.1242 10.6542 12.584 10.8828C11.9315 11.159 11 11.8475 11 13V13.5C11 14.0523 11.4477 14.5 12 14.5C12.5523 14.5 13 14.0523 13 13.5V13.0049C12.9986 13.018 12.9925 12.9967 13.0449 12.9375C13.1076 12.8668 13.2189 12.7858 13.3633 12.7246C14.617 12.1939 15.5 10.951 15.5 9.5C15.5 7.567 13.933 6 12 6Z" fill="currentColor" />
</svg>