<svg xmlns="http://www.w3.org/2000/svg" width="24" height="24" viewBox="0 0 24 24" fill="none">
    <path d="M20.7501 8.74951V5.16357L16.4572 9.45654C16.0666 9.84707 15.4336 9.84707 15.0431 9.45654C14.6526 9.06602 14.6526 8.433 15.0431 8.04248L19.3361 3.74951H15.7501C15.1978 3.74951 14.7501 3.3018 14.7501 2.74951C14.7501 2.19723 15.1978 1.74951 15.7501 1.74951H21.7501C22.3024 1.74951 22.7501 2.19723 22.7501 2.74951V8.74951C22.7501 9.3018 22.3024 9.74951 21.7501 9.74951C21.1978 9.74951 20.7501 9.3018 20.7501 8.74951Z" fill="currentColor" />
    <path d="M12.0001 1.74951C12.585 1.74951 13.1619 1.75486 13.7286 1.76416C13.5832 2.06192 13.5001 2.39582 13.5001 2.74951C13.5001 3.99215 14.5075 4.99951 15.7501 4.99951H16.3185L14.1593 7.15869C13.2806 8.03737 13.2806 9.46165 14.1593 10.3403C15.038 11.219 16.4623 11.219 17.3409 10.3403L19.5001 8.18115V8.74951C19.5001 9.99215 20.5075 10.9995 21.7501 10.9995C22.1091 10.9995 22.4471 10.9127 22.7482 10.7632C22.7397 12.9006 22.6305 14.8956 22.4435 16.5884C22.3057 17.8353 21.3081 18.7927 20.0724 18.9087C17.9754 19.1055 15.4757 19.2258 12.7804 19.2456L9.69348 21.8931C9.42523 22.1231 9.08298 22.2495 8.72961 22.2495C7.91261 22.2493 7.25035 21.587 7.25012 20.77V19.1372C6.06385 19.0801 4.94836 19.0045 3.92786 18.9087C2.69228 18.7927 1.69459 17.8355 1.55676 16.5884C1.36203 14.8262 1.25012 12.7364 1.25012 10.4995C1.25012 8.26259 1.36203 6.1728 1.55676 4.41064C1.69459 3.16355 2.69238 2.20632 3.92786 2.09033C6.2256 1.87472 9.00721 1.74951 12.0001 1.74951Z" fill="currentColor" />
</svg>