<svg xmlns="http://www.w3.org/2000/svg" width="24" height="24" viewBox="0 0 24 24" fill="none">
    <path d="M11.75 1.99219C12.1494 1.99219 12.5357 2.00177 12.9092 2.02051V3.40137C12.0305 4.28005 12.0305 5.70434 12.9092 6.58301L14.9092 8.58301C15.7879 9.4614 17.2122 9.46156 18.0908 8.58301L20.9873 5.68555C22.1457 7.40738 22.5 9.54509 22.5 11.7422C22.5 14.3673 21.7407 16.8276 19.958 18.6328C18.1716 20.4417 15.4571 21.4922 11.75 21.4922C9.93644 21.4922 8.38948 21.2826 7.07812 20.8887C6.24719 21.5984 4.6138 22.4922 2.38281 22.4922C2.05281 22.4922 1.76124 22.2766 1.66504 21.9609C1.56886 21.6452 1.69089 21.3032 1.96484 21.1191C2.69277 20.6299 3.48793 19.2297 2.4873 17.6426C1.38081 15.9544 1 13.8856 1 11.7422C1 9.16646 1.5505 6.69334 3.25098 4.86719C4.96037 3.03147 7.69704 1.99219 11.75 1.99219ZM7.75 10.7422C7.19771 10.7422 6.75 11.1899 6.75 11.7422C6.75 12.2945 7.19772 12.7422 7.75 12.7422C8.30228 12.7422 8.75 12.2945 8.75 11.7422C8.75 11.1899 8.30228 10.7422 7.75 10.7422ZM11.75 10.7422C11.2323 10.7422 10.8062 11.1355 10.7549 11.6396L10.75 11.7422L10.7549 11.8447C10.8062 12.3488 11.2323 12.7422 11.75 12.7422C12.3022 12.7421 12.75 12.2944 12.75 11.7422C12.75 11.2246 12.3566 10.7985 11.8525 10.7471L11.75 10.7422ZM15.75 10.7422C15.1977 10.7422 14.75 11.1899 14.75 11.7422C14.75 12.2945 15.1977 12.7422 15.75 12.7422C16.3023 12.7422 16.75 12.2945 16.75 11.7422C16.75 11.1899 16.3023 10.7422 15.75 10.7422Z" fill="currentColor" />
    <path d="M20.7929 1.28508C21.1834 0.894556 21.8164 0.894556 22.207 1.28508C22.5975 1.67561 22.5975 2.30862 22.207 2.69914L17.207 7.69914C16.8164 8.08967 16.1834 8.08967 15.7929 7.69914L13.7929 5.69914C13.4024 5.30862 13.4024 4.67561 13.7929 4.28508C14.1834 3.89456 14.8164 3.89456 15.207 4.28508L16.4999 5.57805L20.7929 1.28508Z" fill="currentColor" />
</svg>