<svg xmlns="http://www.w3.org/2000/svg" width="24" height="24" viewBox="0 0 24 24" fill="none">
    <path d="M12.0001 1.74951C17.661 1.74951 22.2501 6.33859 22.2501 11.9995C22.2501 17.6604 17.661 22.2495 12.0001 22.2495C10.2609 22.2495 8.62119 21.8152 7.18469 21.0493C5.41053 20.2856 3.66569 20.6503 2.56555 20.7466C2.28599 20.7711 2.01629 20.6371 1.86633 20.3999C1.7165 20.1627 1.71167 19.8616 1.85364 19.6196C2.03706 19.3068 2.29012 18.6251 2.41809 17.7808C2.54503 16.9429 2.53519 16.0284 2.27161 15.2358C1.93302 14.2176 1.75012 13.1291 1.75012 11.9995C1.75012 6.33859 6.3392 1.74951 12.0001 1.74951ZM10.7072 8.29248C10.3166 7.90196 9.68362 7.90196 9.29309 8.29248L6.29309 11.2925C5.90257 11.683 5.90257 12.316 6.29309 12.7065L9.29309 15.7065C9.68362 16.097 10.3167 16.097 10.7072 15.7065C11.0977 15.316 11.0976 14.683 10.7072 14.2925L8.41418 11.9995L10.7072 9.70654C11.0977 9.31604 11.0976 8.68301 10.7072 8.29248ZM14.7072 8.29248C14.3166 7.90196 13.6836 7.90196 13.2931 8.29248C12.9026 8.683 12.9026 9.31602 13.2931 9.70654L15.5861 11.9995L13.2931 14.2925C12.9026 14.683 12.9026 15.316 13.2931 15.7065C13.6836 16.097 14.3167 16.097 14.7072 15.7065L17.7072 12.7065C18.0977 12.316 18.0976 11.683 17.7072 11.2925L14.7072 8.29248Z" fill="currentColor" />
</svg>