<svg xmlns="http://www.w3.org/2000/svg" width="24" height="24" viewBox="0 0 24 24" fill="none">
    <path fill-rule="evenodd" clip-rule="evenodd" d="M12.4714 2.01062C12.0874 2.38637 11.7743 2.74361 11.5486 3.02234C11.4117 3.19146 11.1668 3.52902 11.0896 3.63464C10.6373 4.30827 10.6362 5.19004 11.0896 5.86511C11.1668 5.97074 11.4117 6.30829 11.5486 6.47742C11.82 6.81265 12.2162 7.26334 12.7126 7.72058C13.6343 8.56938 15.2366 9.74988 17.2498 9.74988C19.2628 9.74975 20.8653 8.56934 21.7869 7.72058C21.8312 7.67975 21.8721 7.63623 21.9148 7.59558C22.3475 8.88745 22.4998 10.3062 22.4998 11.7499C22.4998 14.375 21.7405 16.8353 19.9578 18.6405C18.1713 20.4494 15.4569 21.4999 11.7498 21.4999C9.9362 21.4999 8.38924 21.2903 7.07788 20.8964C6.24695 21.6061 4.61355 22.4999 2.38257 22.4999C2.05257 22.4999 1.761 22.2843 1.66479 21.9686C1.56861 21.6529 1.69064 21.3108 1.9646 21.1268C2.69252 20.6376 3.48768 19.2374 2.48706 17.6503C1.38057 15.9621 0.999756 13.8933 0.999756 11.7499C0.999756 9.17415 1.55025 6.70103 3.25073 4.87488C4.96012 3.03916 7.69679 1.99988 11.7498 1.99988C11.9952 1.99988 12.2358 2.00352 12.4714 2.01062ZM7.74976 10.7499C7.19747 10.7499 6.74976 11.1976 6.74976 11.7499C6.74976 12.3022 7.19747 12.7499 7.74976 12.7499C8.30204 12.7499 8.74976 12.3022 8.74976 11.7499C8.74976 11.1976 8.30204 10.7499 7.74976 10.7499ZM11.7498 10.7499C11.2321 10.7499 10.806 11.1432 10.7546 11.6473L10.7498 11.7499L10.7546 11.8524C10.806 12.3565 11.2321 12.7499 11.7498 12.7499C12.302 12.7498 12.7498 12.3021 12.7498 11.7499C12.7498 11.2323 12.3563 10.8062 11.8523 10.7548L11.7498 10.7499ZM15.7498 10.7499C15.1975 10.7499 14.7498 11.1976 14.7498 11.7499C14.7498 12.3022 15.1975 12.7499 15.7498 12.7499C16.302 12.7499 16.7498 12.3022 16.7498 11.7499C16.7498 11.1976 16.302 10.7499 15.7498 10.7499Z" fill="currentColor" />
    <path fill-rule="evenodd" clip-rule="evenodd" d="M17.2501 0.999878C18.7814 1.00006 20.085 1.91111 20.9396 2.69812C21.3803 3.10402 21.7345 3.50793 21.9787 3.80945C22.1012 3.96077 22.1974 4.08776 22.2638 4.17859C22.2969 4.22381 22.3228 4.26003 22.341 4.28601L22.3722 4.33191C22.542 4.58479 22.542 4.91596 22.3722 5.16882L22.341 5.21375C22.3228 5.23972 22.2969 5.27595 22.2638 5.32117C22.1974 5.412 22.1012 5.53898 21.9787 5.69031C21.7345 5.99183 21.3803 6.39574 20.9396 6.80164C20.085 7.58864 18.7814 8.49969 17.2501 8.49988C15.7187 8.49988 14.4144 7.58873 13.5597 6.80164C13.119 6.39574 12.7648 5.99183 12.5207 5.69031C12.3981 5.53899 12.3019 5.41199 12.2355 5.32117C12.2025 5.27595 12.1765 5.23972 12.1584 5.21375L12.1271 5.16785C11.9573 4.91497 11.9573 4.58379 12.1271 4.33093L12.1584 4.28601C12.1765 4.26004 12.2025 4.22381 12.2355 4.17859C12.3019 4.08776 12.3981 3.96076 12.5207 3.80945C12.7648 3.50793 13.119 3.10402 13.5597 2.69812C14.4144 1.91103 15.7187 0.999878 17.2501 0.999878ZM17.2433 3.24988C16.4186 3.24988 15.7501 3.92145 15.7501 4.74988C15.7501 5.57831 16.4186 6.24988 17.2433 6.24988H17.257C18.0815 6.24963 18.7501 5.57815 18.7501 4.74988C18.7501 3.9216 18.0815 3.25012 17.257 3.24988H17.2433Z" fill="currentColor" />
</svg>