<svg xmlns="http://www.w3.org/2000/svg" width="24" height="24" viewBox="0 0 24 24" fill="none">
    <path d="M15.8701 17.2907C16.4094 17.2691 16.8639 17.6881 16.8855 18.2268C16.9071 18.7654 16.4876 19.2195 15.9483 19.2411C14.958 19.2808 13.9221 19.3048 12.8543 19.3136L9.90528 21.8427C9.59888 22.1054 9.20788 22.2498 8.80394 22.2498C7.86957 22.2495 7.11385 21.4924 7.11376 20.5605V18.2659C7.11376 17.7268 7.5513 17.2897 8.09103 17.2897C8.63076 17.2897 9.0683 17.7268 9.0683 18.2659V19.9866L11.8522 17.6005L11.92 17.5471C12.0839 17.4299 12.2809 17.366 12.484 17.365C13.6573 17.3595 14.7922 17.3339 15.8701 17.2907ZM2.28752 13.4594C2.82596 13.4239 3.2912 13.8309 3.32683 14.3688C3.37171 15.0464 3.42771 15.6885 3.49384 16.2868C3.53784 16.6849 3.85695 17.001 4.27165 17.04C4.80873 17.0906 5.20288 17.5663 5.15253 18.1029C5.10206 18.6397 4.62578 19.0342 4.08841 18.9837C2.76708 18.8598 1.69924 17.8362 1.5517 16.5013C1.48214 15.872 1.42366 15.2012 1.37705 14.4975C1.34142 13.9595 1.74896 13.4949 2.28752 13.4594ZM21.7127 13.4594C22.2513 13.4949 22.6588 13.9595 22.6232 14.4975C22.5766 15.2012 22.5181 15.872 22.4485 16.5013C22.301 17.836 21.2333 18.8597 19.9118 18.9837C19.3746 19.034 18.8982 18.6396 18.8477 18.1029C18.7973 17.5662 19.1922 17.0904 19.7295 17.04C20.144 17.0009 20.4624 16.685 20.5064 16.2868C20.5725 15.6885 20.6285 15.0464 20.6734 14.3688C20.709 13.8309 21.1743 13.4239 21.7127 13.4594ZM1.25012 10.5251C1.25012 9.84768 1.26056 9.18367 1.28066 8.53936C1.2976 8.00075 1.74832 7.57808 2.28752 7.59464C2.82697 7.61143 3.25104 8.06153 3.23425 8.60037C3.21479 9.22419 3.20467 9.86772 3.20467 10.5251C3.2045 11.0641 2.76702 11.5013 2.22739 11.5013C1.68777 11.5013 1.25029 11.0641 1.25012 10.5251ZM20.7956 10.5251C20.7956 9.86772 20.7855 9.22419 20.766 8.60037C20.7492 8.06152 21.1733 7.61143 21.7127 7.59464C22.2519 7.57808 22.7026 8.00075 22.7196 8.53936C22.7397 9.18367 22.7501 9.84768 22.7501 10.5251C22.75 11.0641 22.3125 11.5013 21.7729 11.5013C21.2332 11.5013 20.7957 11.0641 20.7956 10.5251ZM4.08841 2.06548C4.62574 2.01507 5.102 2.40963 5.15253 2.94634C5.203 3.48299 4.80884 3.95868 4.27165 4.00927C3.85688 4.04819 3.53783 4.36438 3.49384 4.76238C3.43456 5.29819 2.95184 5.68428 2.41541 5.62512C1.87907 5.56582 1.49248 5.08367 1.5517 4.54788C1.69933 3.21309 2.76726 2.18949 4.08841 2.06548ZM19.9118 2.06548C21.233 2.18949 22.3009 3.21309 22.4485 4.54788C22.5078 5.08367 22.1212 5.56582 21.5848 5.62512C21.0484 5.68427 20.5657 5.29819 20.5064 4.76238C20.4624 4.36438 20.1434 4.04819 19.7286 4.00927C19.1914 3.95868 18.7972 3.48299 18.8477 2.94634C18.8982 2.40963 19.3745 2.01507 19.9118 2.06548ZM10.0265 1.74994C10.566 1.73955 11.0123 2.16814 11.0229 2.70706C11.0333 3.24601 10.6042 3.69178 10.0647 3.7023C9.40306 3.71505 8.75682 3.73439 8.13016 3.7595C7.59104 3.78107 7.13659 3.36181 7.11471 2.82336C7.09308 2.28466 7.5126 1.8297 8.0519 1.80809C8.69235 1.78243 9.35176 1.76294 10.0265 1.74994ZM13.9738 1.74994C14.6485 1.76294 15.3079 1.78243 15.9483 1.80809C16.4876 1.8297 16.9072 2.28466 16.8855 2.82336C16.8637 3.36181 16.4092 3.78108 15.8701 3.7595C15.2434 3.73439 14.5972 3.71505 13.9356 3.7023C13.3961 3.69178 12.967 3.24601 12.9774 2.70706C12.9879 2.16814 13.4342 1.73955 13.9738 1.74994Z" fill="currentColor" />
</svg>