<svg xmlns="http://www.w3.org/2000/svg" width="24" height="24" viewBox="0 0 24 24" fill="none">
    <path d="M22.2499 12C22.2499 17.6609 17.6609 22.25 11.9999 22.25C10.2608 22.25 8.621 21.8156 7.18451 21.0498C5.67121 20.3984 4.17925 20.5679 3.09051 20.6916C2.9029 20.7129 2.72708 20.7329 2.56537 20.7471C2.28581 20.7715 2.01611 20.6376 1.86615 20.4004C1.71632 20.1632 1.71148 19.8621 1.85345 19.6201C2.03687 19.3073 2.28993 18.6256 2.41791 17.7812C2.54484 16.9434 2.53501 16.0289 2.27142 15.2363C1.93284 14.2181 1.74994 13.1296 1.74994 12C1.74994 6.33908 6.33902 1.75 11.9999 1.75C17.6609 1.75 22.2499 6.33908 22.2499 12Z" fill="currentColor" />
</svg>