<svg xmlns="http://www.w3.org/2000/svg" width="24" height="24" viewBox="0 0 24 24" fill="none">
    <path d="M14.8828 7.35632V8.88293C14.8828 9.15908 15.1067 9.38293 15.3828 9.38293H16.9094C17.2125 9.38293 17.5032 9.26253 17.7175 9.0482L22.605 4.16073C22.7829 3.98286 22.8828 3.74162 22.8828 3.49008C22.8828 3.23854 22.7829 2.9973 22.605 2.81943L21.4463 1.66073C21.2685 1.48286 21.0272 1.38293 20.7757 1.38293C20.5241 1.38293 20.2829 1.48286 20.105 1.66073L15.2175 6.5482C15.0032 6.76253 14.8828 7.05322 14.8828 7.35632Z" fill="currentColor" />
    <path fill-rule="evenodd" clip-rule="evenodd" d="M12.1328 2.38293C14.0371 2.38293 15.6433 2.60002 16.9873 3.00891L14.334 5.66418C13.8852 6.11293 13.6328 6.72194 13.6328 7.35657V8.88293C13.6328 9.84943 14.4163 10.6329 15.3828 10.6329H16.9092C17.5438 10.6329 18.1528 10.3805 18.6016 9.93176L21.7783 6.75403C22.6153 8.34389 22.8828 10.2165 22.8828 12.1329C22.8828 14.7581 22.1236 17.2183 20.3408 19.0236C18.5544 20.8325 15.8399 21.8829 12.1328 21.8829C10.3193 21.8829 8.7723 21.6734 7.46094 21.2794C6.63 21.9891 4.99661 22.8829 2.76562 22.8829C2.43563 22.8829 2.14405 22.6673 2.04785 22.3517C1.95167 22.036 2.0737 21.6939 2.34766 21.5099C3.07558 21.0207 3.87074 19.6204 2.87012 18.0333C1.76362 16.3451 1.38281 14.2763 1.38281 12.1329C1.38281 9.55721 1.93331 7.08409 3.63379 5.25793C5.34318 3.42222 8.07985 2.38293 12.1328 2.38293ZM8.13281 11.1329C7.58053 11.1329 7.13281 11.5807 7.13281 12.1329C7.13281 12.6852 7.58053 13.1329 8.13281 13.1329C8.68509 13.1329 9.13281 12.6852 9.13281 12.1329C9.13281 11.5807 8.6851 11.1329 8.13281 11.1329ZM12.1328 11.1329C11.6151 11.1329 11.189 11.5263 11.1377 12.0304L11.1328 12.1329L11.1377 12.2355C11.189 12.7396 11.6151 13.1329 12.1328 13.1329C12.685 13.1328 13.1328 12.6852 13.1328 12.1329C13.1328 11.6153 12.7394 11.1892 12.2354 11.1378L12.1328 11.1329Z" fill="currentColor" />
</svg>