<svg xmlns="http://www.w3.org/2000/svg" width="24" height="24" viewBox="0 0 24 24" fill="none">
    <path d="M11.75 2C12.1955 2 12.6247 2.01384 13.0381 2.03711C12.232 3.05864 11.75 4.34775 11.75 5.75C11.75 9.06371 14.4363 11.75 17.75 11.75C19.6053 11.75 21.2627 10.9068 22.3633 9.58398C22.4584 10.2908 22.5 11.017 22.5 11.75C22.5 14.3751 21.7407 16.8354 19.958 18.6406C18.1716 20.4495 15.4571 21.5 11.75 21.5C9.93644 21.5 8.38948 21.2904 7.07812 20.8965C6.24719 21.6062 4.6138 22.5 2.38281 22.5C2.05281 22.5 1.76124 22.2844 1.66504 21.9688C1.56886 21.6531 1.69089 21.311 1.96484 21.127C2.69277 20.6377 3.48793 19.2375 2.4873 17.6504C1.38081 15.9622 1 13.8934 1 11.75C1 9.17427 1.5505 6.70115 3.25098 4.875C4.96037 3.03928 7.69704 2 11.75 2ZM7.75 10.75C7.19771 10.75 6.75 11.1977 6.75 11.75C6.75 12.3023 7.19772 12.75 7.75 12.75C8.30228 12.75 8.75 12.3023 8.75 11.75C8.75 11.1977 8.30228 10.75 7.75 10.75ZM11.75 10.75C11.2323 10.75 10.8062 11.1433 10.7549 11.6475L10.75 11.75L10.7549 11.8525C10.8062 12.3567 11.2323 12.75 11.75 12.75C12.3022 12.7499 12.75 12.3022 12.75 11.75C12.75 11.2324 12.3566 10.8063 11.8525 10.7549L11.75 10.75Z" fill="currentColor" />
    <path d="M17.75 1C20.3734 1 22.5 3.12665 22.5 5.75C22.5 8.37335 20.3734 10.5 17.75 10.5C15.1266 10.5 13 8.37335 13 5.75C13 3.12665 15.1266 1 17.75 1ZM19.957 3.54297C19.5665 3.15244 18.9335 3.15244 18.543 3.54297L17.043 5.04297C16.6524 5.43349 16.6524 6.06651 17.043 6.45703C17.4335 6.84748 18.0665 6.84753 18.457 6.45703L19.957 4.95703C20.3475 4.56653 20.3475 3.9335 19.957 3.54297Z" fill="currentColor" />
</svg>