<svg xmlns="http://www.w3.org/2000/svg" width="24" height="24" viewBox="0 0 24 24" fill="none">
    <path d="M12.0001 1.74951C17.661 1.74951 22.2501 6.33859 22.2501 11.9995C22.2501 17.6604 17.661 22.2495 12.0001 22.2495C10.2609 22.2495 8.62119 21.8152 7.18469 21.0493C5.41053 20.2856 3.66569 20.6503 2.56555 20.7466C2.28599 20.7711 2.01629 20.6371 1.86633 20.3999C1.7165 20.1627 1.71167 19.8616 1.85364 19.6196C2.03706 19.3068 2.29012 18.6251 2.41809 17.7808C2.54503 16.9429 2.53519 16.0284 2.27161 15.2358C1.93302 14.2176 1.75012 13.1291 1.75012 11.9995C1.75012 6.33859 6.3392 1.74951 12.0001 1.74951ZM11.2072 7.79248C10.8166 7.40196 10.1836 7.40196 9.79309 7.79248L6.79309 10.7925C6.40257 11.183 6.40257 11.816 6.79309 12.2065L9.79309 15.2065C10.1836 15.597 10.8167 15.597 11.2072 15.2065C11.5977 14.816 11.5976 14.183 11.2072 13.7925L9.91418 12.4995H14.5001C15.0524 12.4996 15.5001 12.9473 15.5001 13.4995V14.4995C15.5002 15.0518 15.9479 15.4995 16.5001 15.4995C17.0523 15.4995 17.5001 15.0517 17.5001 14.4995V13.4995C17.5001 11.8427 16.1569 10.4996 14.5001 10.4995H9.91418L11.2072 9.20654C11.5977 8.81604 11.5976 8.18301 11.2072 7.79248Z" fill="currentColor" />
</svg>