<svg xmlns="http://www.w3.org/2000/svg" width="24" height="24" viewBox="0 0 24 24" fill="none">
    <path d="M18.75 8.5C20.8211 8.5 22.5 6.82107 22.5 4.75C22.5 2.67893 20.8211 1 18.75 1C16.6789 1 15 2.67893 15 4.75C15 6.82107 16.6789 8.5 18.75 8.5Z" fill="currentColor" />
    <path fill-rule="evenodd" clip-rule="evenodd" d="M11.75 2C12.7327 2 13.6358 2.05928 14.4648 2.1709C14.0107 2.92384 13.75 3.80659 13.75 4.75C13.75 7.51143 15.9886 9.75 18.75 9.75C20.0629 9.75 21.2563 9.24266 22.1484 8.41504C22.4034 9.47728 22.5 10.6057 22.5 11.75C22.5 14.3751 21.7407 16.8354 19.958 18.6406C18.1716 20.4495 15.4571 21.5 11.75 21.5C9.93644 21.5 8.38948 21.2904 7.07812 20.8965C6.24719 21.6062 4.6138 22.5 2.38281 22.5C2.05281 22.5 1.76124 22.2844 1.66504 21.9688C1.56886 21.6531 1.69089 21.311 1.96484 21.127C2.69277 20.6377 3.48793 19.2375 2.4873 17.6504C1.38081 15.9622 1 13.8934 1 11.75C1 9.17427 1.5505 6.70115 3.25098 4.875C4.96037 3.03928 7.69704 2 11.75 2ZM7.75 10.75C7.19771 10.75 6.75 11.1977 6.75 11.75C6.75 12.3023 7.19772 12.75 7.75 12.75C8.30228 12.75 8.75 12.3023 8.75 11.75C8.75 11.1977 8.30228 10.75 7.75 10.75ZM11.75 10.75C11.2323 10.75 10.8062 11.1433 10.7549 11.6475L10.75 11.75L10.7549 11.8525C10.8062 12.3567 11.2323 12.75 11.75 12.75C12.3022 12.7499 12.75 12.3022 12.75 11.75C12.75 11.2324 12.3566 10.8063 11.8525 10.7549L11.75 10.75ZM15.75 10.75C15.1977 10.75 14.75 11.1977 14.75 11.75C14.75 12.3023 15.1977 12.75 15.75 12.75C16.3023 12.75 16.75 12.3023 16.75 11.75C16.75 11.1977 16.3023 10.75 15.75 10.75Z" fill="currentColor" />
</svg>