<svg xmlns="http://www.w3.org/2000/svg" width="24" height="24" viewBox="0 0 24 24" fill="none">
    <path d="M12.0001 1.74951C14.993 1.74951 17.7746 1.87472 20.0724 2.09033C21.3079 2.20632 22.3057 3.16355 22.4435 4.41064C22.6382 6.1728 22.7501 8.26259 22.7501 10.4995C22.7501 12.7364 22.6382 14.8262 22.4435 16.5884C22.3057 17.8353 21.3081 18.7927 20.0724 18.9087C17.9754 19.1055 15.4757 19.2258 12.7804 19.2456L9.69348 21.8931C9.42523 22.1231 9.08298 22.2495 8.72961 22.2495C7.91261 22.2493 7.25035 21.587 7.25012 20.77V19.1372C6.06385 19.0801 4.94836 19.0045 3.92786 18.9087C2.69228 18.7927 1.69459 17.8355 1.55676 16.5884C1.36203 14.8262 1.25012 12.7364 1.25012 10.4995C1.25012 8.26259 1.36203 6.1728 1.55676 4.41064C1.69459 3.16355 2.69238 2.20632 3.92786 2.09033C6.2256 1.87472 9.00721 1.74951 12.0001 1.74951ZM10.7072 6.79248C10.3166 6.40196 9.68362 6.40196 9.29309 6.79248L6.29309 9.79248C5.90257 10.183 5.90257 10.816 6.29309 11.2065L9.29309 14.2065C9.68362 14.597 10.3167 14.597 10.7072 14.2065C11.0977 13.816 11.0976 13.183 10.7072 12.7925L8.41418 10.4995L10.7072 8.20654C11.0977 7.81604 11.0976 7.18301 10.7072 6.79248ZM14.7072 6.79248C14.3166 6.40196 13.6836 6.40196 13.2931 6.79248C12.9026 7.183 12.9026 7.81602 13.2931 8.20654L15.5861 10.4995L13.2931 12.7925C12.9026 13.183 12.9026 13.816 13.2931 14.2065C13.6836 14.597 14.3167 14.597 14.7072 14.2065L17.7072 11.2065C18.0977 10.816 18.0976 10.183 17.7072 9.79248L14.7072 6.79248Z" fill="currentColor" />
</svg>