<svg xmlns="http://www.w3.org/2000/svg" width="24" height="24" viewBox="0 0 24 24" fill="none">
    <path d="M12.474 2.01074C12.0899 2.38649 11.7768 2.74373 11.5511 3.02246C11.4142 3.19159 11.1693 3.52914 11.0922 3.63477C10.6398 4.3084 10.6388 5.19016 11.0922 5.86523C11.1693 5.97086 11.4142 6.30841 11.5511 6.47754C11.8226 6.81277 12.2188 7.26346 12.7152 7.7207C13.6369 8.56951 15.2392 9.75 17.2523 9.75C19.2654 9.74987 20.8678 8.56947 21.7894 7.7207C21.8327 7.68083 21.8727 7.63834 21.9144 7.59863C22.3464 8.88972 22.4984 10.3074 22.4984 11.75C22.4984 14.3751 21.7392 16.8354 19.9564 18.6406C18.17 20.4495 15.4555 21.5 11.7484 21.5C9.93486 21.5 8.3879 21.2904 7.07654 20.8965C6.2456 21.6062 4.61221 22.5 2.38123 22.5C2.05123 22.5 1.75965 22.2844 1.66345 21.9688C1.56727 21.6531 1.6893 21.311 1.96326 21.127C2.69118 20.6377 3.48634 19.2375 2.48572 17.6504C1.37922 15.9622 0.998413 13.8934 0.998413 11.75C0.998413 9.17427 1.54891 6.70115 3.24939 4.875C4.95878 3.03928 7.69545 2 11.7484 2C11.9952 2 12.2371 2.00356 12.474 2.01074ZM7.74841 13C7.3342 13 6.99841 13.3358 6.99841 13.75C6.99841 14.1642 7.3342 14.5 7.74841 14.5H15.7484C16.1626 14.5 16.4984 14.1642 16.4984 13.75C16.4984 13.3358 16.1626 13 15.7484 13H7.74841ZM7.74841 9C7.3342 9 6.99841 9.33579 6.99841 9.75C6.99841 10.1642 7.3342 10.5 7.74841 10.5H11.7484C12.1626 10.5 12.4984 10.1642 12.4984 9.75C12.4984 9.33579 12.1626 9 11.7484 9H7.74841Z" fill="currentColor" />
    <path fill-rule="evenodd" clip-rule="evenodd" d="M17.2522 1C18.7835 1.00005 20.087 1.91121 20.9416 2.69824C21.3823 3.10414 21.7375 3.50805 21.9817 3.80957C22.104 3.96072 22.1995 4.08795 22.2658 4.17871C22.2988 4.22388 22.3248 4.26015 22.343 4.28613L22.3742 4.33203C22.5441 4.58492 22.5441 4.91605 22.3742 5.16895L22.343 5.21387C22.3248 5.23985 22.2988 5.27612 22.2658 5.32129C22.1995 5.41205 22.104 5.53929 21.9817 5.69043C21.7375 5.99195 21.3823 6.39586 20.9416 6.80176C20.087 7.58879 18.7835 8.49995 17.2522 8.5C15.7206 8.5 14.4164 7.58887 13.5617 6.80176C13.1211 6.39589 12.7668 5.99193 12.5227 5.69043C12.4002 5.53919 12.3039 5.41208 12.2375 5.32129C12.2045 5.27605 12.1785 5.23982 12.1604 5.21387L12.1291 5.16797C11.9595 4.91511 11.9603 4.58386 12.1301 4.33105L12.1604 4.28613C12.1785 4.26018 12.2045 4.22395 12.2375 4.17871C12.3039 4.08792 12.4002 3.96081 12.5227 3.80957C12.7668 3.50807 13.1211 3.10411 13.5617 2.69824C14.4164 1.91113 15.7206 1 17.2522 1ZM17.2453 3.25C16.4207 3.25006 15.7522 3.92161 15.7522 4.75C15.7522 5.57839 16.4207 6.24994 17.2453 6.25H17.259C18.0837 6.24994 18.7522 5.57839 18.7522 4.75C18.7522 3.92161 18.0837 3.25006 17.259 3.25H17.2453Z" fill="currentColor" />
</svg>