<svg xmlns="http://www.w3.org/2000/svg" width="24" height="24" viewBox="0 0 24 24" fill="none">
    <path d="M2.66863 14.0508C3.19264 13.8766 3.75902 14.1606 3.93328 14.6846C4.31187 15.8231 4.30175 17.0354 4.1491 18.043C4.10722 18.3194 4.05105 18.5885 3.98797 18.8457C5.07459 18.7823 6.49378 18.8408 7.8991 19.4512C8.40556 19.6711 8.63744 20.2601 8.41766 20.7666C8.19764 21.2731 7.60878 21.5061 7.10223 21.2861C5.39575 20.5449 3.72564 20.8965 2.58758 20.9961C2.21494 21.0286 1.85485 20.8504 1.65496 20.5342C1.45524 20.218 1.44911 19.8167 1.63836 19.4941C1.8015 19.2161 2.04687 18.5662 2.17156 17.7432C2.29479 16.9296 2.28197 16.0585 2.03484 15.3154C1.86071 14.7914 2.14464 14.225 2.66863 14.0508Z" fill="currentColor" />
    <path d="M13.6595 20.3379C14.2011 20.231 14.7271 20.5834 14.8343 21.125C14.9415 21.6668 14.589 22.1926 14.0472 22.2998C13.3841 22.431 12.6992 22.5 11.9993 22.5C11.4471 22.5 10.9993 22.0523 10.9993 21.5C10.9993 20.9477 11.4471 20.5 11.9993 20.5C12.5682 20.5 13.1235 20.4439 13.6595 20.3379ZM19.0677 16.7217C19.375 16.2628 19.9965 16.14 20.4554 16.4473C20.9143 16.7545 21.0371 17.376 20.7298 17.835C19.9635 18.9795 18.9779 19.9642 17.8333 20.7305C17.3744 21.0376 16.7538 20.9149 16.4466 20.4561C16.1395 19.9972 16.2623 19.3766 16.721 19.0693C17.6484 18.4485 18.4468 17.649 19.0677 16.7217ZM20.4993 12C20.4993 11.431 20.4433 10.8759 20.3372 10.3398C20.2302 9.79813 20.5826 9.27221 21.1243 9.16504C21.6661 9.05793 22.192 9.4104 22.2992 9.95215C22.4303 10.6153 22.4993 11.3001 22.4993 12C22.4993 12.6999 22.4303 13.3847 22.2992 14.0479C22.192 14.5896 21.6661 14.9421 21.1243 14.835C20.5826 14.7278 20.2302 14.2019 20.3372 13.6602C20.4433 13.1241 20.4993 12.569 20.4993 12ZM1.93099 9.01074C2.08809 8.48143 2.64475 8.17997 3.17415 8.33691C3.70336 8.494 4.00474 9.04979 3.84798 9.5791C3.70248 10.0699 3.60008 10.5803 3.54525 11.1045C3.48754 11.6535 2.99574 12.0516 2.44661 11.9941C1.89758 11.9364 1.49952 11.4446 1.55696 10.8955C1.62469 10.2484 1.75095 9.61804 1.93099 9.01074ZM16.4466 3.54395C16.7538 3.08506 17.3744 2.9624 17.8333 3.26953C18.9779 4.03577 19.9635 5.02054 20.7298 6.16504C21.0371 6.62396 20.9143 7.24548 20.4554 7.55273C19.9965 7.85996 19.375 7.73717 19.0677 7.27832C18.4468 6.35095 17.6484 5.55152 16.721 4.93066C16.2623 4.62336 16.1395 4.00278 16.4466 3.54395ZM6.514 3.04492C6.98458 2.75622 7.60006 2.90361 7.889 3.37402C8.17788 3.84473 8.0306 4.46112 7.55989 4.75C6.67152 5.29526 5.89063 5.99965 5.25716 6.82324C4.92043 7.26085 4.29253 7.34247 3.85482 7.00586C3.41705 6.66914 3.33548 6.04128 3.6722 5.60352C4.45373 4.58749 5.41696 3.71819 6.514 3.04492ZM11.9993 1.5C12.6992 1.50002 13.3841 1.56901 14.0472 1.7002C14.589 1.8074 14.9415 2.33323 14.8343 2.875C14.7271 3.41659 14.2011 3.76899 13.6595 3.66211C13.1235 3.55607 12.5682 3.50002 11.9993 3.5C11.4693 3.5 10.9513 3.54829 10.4495 3.64062C9.90653 3.74059 9.3847 3.38178 9.2845 2.83887C9.18451 2.29571 9.54408 1.77383 10.0872 1.67383C10.7079 1.55958 11.3472 1.5 11.9993 1.5Z" fill="currentColor" />
</svg>