<svg xmlns="http://www.w3.org/2000/svg" width="24" height="24" viewBox="0 0 24 24" fill="none">
    <path d="M11.875 2.125C12.5038 2.125 13.0999 2.15114 13.665 2.19727C13.1653 2.97834 12.8751 3.90634 12.875 4.90235C12.875 7.67898 15.1258 9.93042 17.9023 9.93067C18.4787 9.93067 19.0335 9.83264 19.5498 9.65332L20.1289 10.2324C20.7933 10.8968 21.7767 11.0435 22.585 10.6777C22.6112 11.0735 22.625 11.4732 22.625 11.875C22.625 14.5001 21.8657 16.9604 20.083 18.7656C18.2966 20.5745 15.5821 21.625 11.875 21.625C10.0614 21.625 8.51448 21.4154 7.20312 21.0215C6.37219 21.7312 4.7388 22.625 2.50781 22.625C2.17781 22.625 1.88624 22.4094 1.79004 22.0938C1.69386 21.7781 1.81589 21.436 2.08984 21.252C2.81777 20.7627 3.61293 19.3625 2.6123 17.7754C1.50581 16.0872 1.125 14.0184 1.125 11.875C1.125 9.29928 1.6755 6.82616 3.37598 5C5.08537 3.16429 7.82204 2.125 11.875 2.125ZM7.875 10.875C7.32271 10.875 6.875 11.3227 6.875 11.875C6.875 12.4273 7.32272 12.875 7.875 12.875C8.42728 12.875 8.875 12.4273 8.875 11.875C8.875 11.3227 8.42728 10.875 7.875 10.875ZM11.875 10.875C11.3573 10.875 10.9312 11.2683 10.8799 11.7725L10.875 11.875L10.8799 11.9775C10.9312 12.4817 11.3573 12.875 11.875 12.875C12.4272 12.8749 12.875 12.4272 12.875 11.875C12.875 11.3574 12.4816 10.9313 11.9775 10.8799L11.875 10.875ZM15.875 10.875C15.3227 10.875 14.875 11.3227 14.875 11.875C14.875 12.4273 15.3227 12.875 15.875 12.875C16.4273 12.875 16.875 12.4273 16.875 11.875C16.875 11.3227 16.4273 10.875 15.875 10.875Z" fill="currentColor" />
    <path d="M19.7917 4.90281C19.7917 3.8596 18.946 3.01391 17.9028 3.01391C16.8596 3.01391 16.0139 3.8596 16.0139 4.90281C16.0139 5.94603 16.8596 6.79172 17.9028 6.79172C18.946 6.79172 19.7917 5.94603 19.7917 4.90281ZM21.6806 4.90281C21.6806 5.60336 21.489 6.25883 21.1567 6.82123L22.3484 8.01287C22.7172 8.3817 22.7172 8.97955 22.3484 9.34838C21.9795 9.71721 21.3817 9.71721 21.0129 9.34838L19.8212 8.15675C19.2588 8.48904 18.6034 8.68062 17.9028 8.68062C15.8164 8.68062 14.125 6.98924 14.125 4.90281C14.125 2.81639 15.8164 1.125 17.9028 1.125C19.9892 1.125 21.6806 2.81639 21.6806 4.90281Z" fill="currentColor" />
</svg>