<svg xmlns="http://www.w3.org/2000/svg" width="24" height="24" viewBox="0 0 24 24" fill="none">
    <path d="M12.0001 1.75C14.993 1.75 17.7746 1.87521 20.0724 2.09082C21.3079 2.20681 22.3057 3.16404 22.4435 4.41113C22.6382 6.17328 22.7501 8.26308 22.7501 10.5C22.7501 12.7369 22.6382 14.8267 22.4435 16.5889C22.3057 17.8358 21.3081 18.7932 20.0724 18.9092C17.9754 19.106 15.4757 19.2263 12.7804 19.2461L9.69348 21.8936C9.42523 22.1236 9.08298 22.25 8.72961 22.25C7.91261 22.2498 7.25035 21.5875 7.25012 20.7705V19.1377C6.06385 19.0806 4.94836 19.0049 3.92786 18.9092C2.69228 18.7932 1.69459 17.8359 1.55676 16.5889C1.36203 14.8267 1.25012 12.7369 1.25012 10.5C1.25012 8.26308 1.36203 6.17328 1.55676 4.41113C1.69459 3.16404 2.69238 2.2068 3.92786 2.09082C6.2256 1.87521 9.00721 1.75 12.0001 1.75ZM9.505 14C8.95272 14 8.505 14.4477 8.505 15C8.505 15.5523 8.95272 16 9.505 16H14.505C15.0573 16 15.505 15.5523 15.505 15C15.505 14.4477 15.0573 14 14.505 14H9.505ZM12.0001 5C11.4478 5 11.0001 5.44772 11.0001 6V7.49414H9.505C8.95272 7.49414 8.505 7.94186 8.505 8.49414C8.505 9.04643 8.95272 9.49414 9.505 9.49414H11.0001V11C11.0001 11.5523 11.4478 12 12.0001 12C12.5524 11.9999 13.0001 11.5522 13.0001 11V9.49414H14.505C15.0573 9.49414 15.505 9.04643 15.505 8.49414C15.505 7.94186 15.0573 7.49414 14.505 7.49414H13.0001V6C13.0001 5.44776 12.5524 5.00007 12.0001 5Z" fill="currentColor" />
</svg>