<svg xmlns="http://www.w3.org/2000/svg" width="24" height="24" viewBox="0 0 24 24" fill="none">
    <path d="M20 2.875C21.5188 2.875 22.75 4.10622 22.75 5.625V16.625C22.75 18.1438 21.5188 19.375 20 19.375H19.75V20.625C19.75 21.0392 19.4142 21.375 19 21.375C18.5858 21.375 18.25 21.0392 18.25 20.625V19.375H5.75V20.625C5.75 21.0392 5.41421 21.375 5 21.375C4.58579 21.375 4.25 21.0392 4.25 20.625V19.375H4C2.48122 19.375 1.25 18.1438 1.25 16.625V5.625C1.25 4.10622 2.48122 2.875 4 2.875H20ZM6 5.875C5.0335 5.875 4.25 6.6585 4.25 7.625V14.625C4.25 15.5915 5.0335 16.375 6 16.375H14C14.9665 16.375 15.75 15.5915 15.75 14.625V7.625C15.75 6.71883 15.0613 5.9733 14.1787 5.88379L14 5.875H6ZM19 10.7773C18.5309 10.7776 18.1506 11.1578 18.1504 11.627C18.1504 12.0963 18.5307 12.4773 19 12.4775C19.4694 12.4775 19.8506 12.0964 19.8506 11.627C19.8504 11.1577 19.4693 10.7773 19 10.7773ZM19 6.77734C18.5309 6.77755 18.1506 7.15782 18.1504 7.62695C18.1504 8.09626 18.5307 8.47733 19 8.47754C19.4694 8.47754 19.8506 8.0964 19.8506 7.62695C19.8504 7.15769 19.4693 6.77734 19 6.77734Z" fill="currentColor" />
</svg>