<svg xmlns="http://www.w3.org/2000/svg" width="24" height="24" viewBox="0 0 24 24" fill="none">
    <path d="M6.25 17C6.80228 17 7.25 17.4477 7.25 18C7.25 18.5523 6.80228 19 6.25 19H4.25C3.69772 19 3.25 18.5523 3.25 18C3.25 17.4477 3.69772 17 4.25 17H6.25ZM6.25 11C6.80228 11 7.25 11.4477 7.25 12C7.25 12.5523 6.80228 13 6.25 13H4.25C3.69772 13 3.25 12.5523 3.25 12C3.25 11.4477 3.69772 11 4.25 11H6.25ZM6.25 5C6.80228 5 7.25 5.44772 7.25 6C7.25 6.55228 6.80228 7 6.25 7H4.25C3.69772 7 3.25 6.55228 3.25 6C3.25 5.44772 3.69772 5 4.25 5H6.25Z" fill="currentColor" />
    <path d="M19.75 17C20.3023 17 20.75 17.4477 20.75 18C20.75 18.5523 20.3023 19 19.75 19H17.75C17.1977 19 16.75 18.5523 16.75 18C16.75 17.4477 17.1977 17 17.75 17H19.75ZM19.75 11C20.3023 11 20.75 11.4477 20.75 12C20.75 12.5523 20.3023 13 19.75 13H17.75C17.1977 13 16.75 12.5523 16.75 12C16.75 11.4477 17.1977 11 17.75 11H19.75ZM19.75 5C20.3023 5 20.75 5.44772 20.75 6C20.75 6.55228 20.3023 7 19.75 7H17.75C17.1977 7 16.75 6.55228 16.75 6C16.75 5.44772 17.1977 5 17.75 5H19.75Z" fill="currentColor" />
    <path d="M16 2.25C17.5188 2.25 18.75 3.48122 18.75 5V19C18.75 20.5188 17.5188 21.75 16 21.75H8C6.48122 21.75 5.25 20.5188 5.25 19V5C5.25 3.48122 6.48122 2.25 8 2.25H16ZM10 16C9.44772 16 9 16.4477 9 17C9 17.5523 9.44772 18 10 18H14C14.5523 18 15 17.5523 15 17C15 16.4477 14.5523 16 14 16H10ZM10 11C9.44772 11 9 11.4477 9 12C9 12.5523 9.44772 13 10 13H14C14.5523 13 15 12.5523 15 12C15 11.4477 14.5523 11 14 11H10ZM10 6C9.44772 6 9 6.44772 9 7C9 7.55228 9.44772 8 10 8H14C14.5523 8 15 7.55228 15 7C15 6.44772 14.5523 6 14 6H10Z" fill="currentColor" />
</svg>