<svg xmlns="http://www.w3.org/2000/svg" width="24" height="24" viewBox="0 0 24 24" fill="none">
    <path d="M11.6271 20.25C12.1794 20.25 12.6271 20.6977 12.6271 21.25C12.6271 21.8023 12.1794 22.25 11.6271 22.25H5.62708C5.07479 22.25 4.62708 21.8023 4.62708 21.25C4.62708 20.6977 5.07479 20.25 5.62708 20.25H11.6271Z" fill="currentColor" />
    <path d="M9.62576 9.75V11.25H17.6258C19.0677 11.25 19.891 9.60384 19.0262 8.4502L17.6756 6.65039C17.6089 6.5615 17.6089 6.4385 17.6756 6.34961L19.0262 4.5498C19.891 3.39616 19.0677 1.75001 17.6258 1.75H9.28723C9.49483 1.93324 9.62576 2.20132 9.62576 2.49999V3.25V9.75Z" fill="currentColor" />
    <path fill-rule="evenodd" clip-rule="evenodd" d="M9.62708 2.49999C9.62708 2.20132 9.49614 1.93324 9.28855 1.75H8.37708C7.96286 1.75 7.62708 2.08579 7.62708 2.5V21C7.62708 21.5523 8.07479 22 8.62708 22C9.17936 22 9.62708 21.5523 9.62708 21V11.25V9.75V3.25V2.49999Z" fill="currentColor" />
</svg>