<svg xmlns="http://www.w3.org/2000/svg" width="24" height="24" viewBox="0 0 24 24" fill="none">
    <path fill-rule="evenodd" clip-rule="evenodd" d="M6.69764 6.69431C5.6755 8.87437 5.00397 11.0525 5.00397 13.7773V20C5.00397 21.6569 6.34711 23 8.00397 23H16.004C17.6608 23 19.004 21.6569 19.004 20V19.0001L12.9729 12.9693L7.19173 11.524C7.38992 10.3736 7.73899 9.30091 8.21009 8.2067L6.69764 6.69431ZM9.25075 6.06514L9.30084 5.9707C9.31435 5.97141 9.32782 5.97251 9.34117 5.97361C9.35514 5.97475 9.36908 5.97589 9.38287 5.97656C9.53722 5.98406 9.68521 5.99036 9.79401 5.99414C9.83038 5.9954 9.86275 5.99629 9.88967 5.99702L9.92584 5.99805L9.96295 5.99902L9.97662 6L10.0792 5.99707C10.5845 5.95957 10.9898 5.54484 11.004 5.02734C11.019 4.47528 10.5834 4.01509 10.0313 4H10.0206L9.98639 3.99902L9.96926 3.9985C9.94146 3.99767 9.90527 3.99657 9.86334 3.99512C9.76035 3.99154 9.62251 3.98639 9.48053 3.97949C9.33652 3.97249 9.19552 3.96427 9.08502 3.95508C9.05898 3.95291 9.03653 3.95021 9.0175 3.94792L8.99518 3.94531C8.74562 3.84698 8.64069 3.65183 8.64069 3.5C8.64069 3.30402 8.84147 3.00012 9.27643 3H14.7315C15.1665 3.00012 15.3672 3.30402 15.3672 3.5C15.3672 3.6547 15.2572 3.8545 14.9971 3.9502L14.9742 3.95268C14.956 3.95473 14.9347 3.95711 14.9102 3.95898C14.8015 3.96733 14.6629 3.97513 14.5215 3.98145C14.3912 3.98726 14.2638 3.9913 14.165 3.99444L14.1436 3.99512L14.0865 3.99699L14.0225 3.99902L13.9903 4H13.9786C13.4267 4.01401 12.9902 4.47342 13.004 5.02539C13.018 5.57729 13.4774 6.01377 14.0294 6L14.0421 5.99902L14.0792 5.99805L14.2071 5.99414L14.225 5.99357L14.2639 5.99233C14.3628 5.98917 14.4848 5.9851 14.6104 5.97949C14.6217 5.97899 14.633 5.97802 14.6444 5.97705C14.6554 5.9761 14.6666 5.97514 14.6778 5.97461C16.1023 8.64604 17.004 10.8446 17.004 13.7773V13.8184L19.004 15.8184V13.7773C19.004 10.4606 17.9855 7.96035 16.5753 5.28418C17.0535 4.8412 17.3672 4.21983 17.3672 3.5C17.3672 2.03926 16.1037 1.00013 14.7315 1H9.27643C7.91818 1.00013 6.66645 2.01818 6.64108 3.45547L9.25075 6.06514Z" fill="currentColor" />
    <path d="M1.29692 1.29302C1.68745 0.902491 2.32046 0.902491 2.71098 1.29302L22.711 21.293C23.1015 21.6835 23.1015 22.3166 22.711 22.7071C22.3205 23.0976 21.6874 23.0976 21.2969 22.7071L1.29692 2.70708C0.906397 2.31655 0.906397 1.68354 1.29692 1.29302Z" fill="currentColor" />
</svg>