<svg xmlns="http://www.w3.org/2000/svg" width="24" height="24" viewBox="0 0 24 24" fill="none">
    <path d="M17 1.25C18.5188 1.25 19.75 2.48122 19.75 4V20C19.75 21.5188 18.5188 22.75 17 22.75H7C5.48122 22.75 4.25 21.5188 4.25 20V4C4.25 2.48122 5.48122 1.25 7 1.25H17ZM12 18C11.4477 18 11 18.4477 11 19C11 19.5523 11.4477 20 12 20C12.5523 20 13 19.5523 13 19C13 18.4477 12.5523 18 12 18ZM12 6.5C10.2051 6.5 8.75 7.94728 8.75 9.73242C8.75004 10.7531 9.15629 11.547 9.96875 12.2559C10.5415 12.7556 11.5835 13.8273 12 14.5C12.4376 13.8406 13.4585 12.7556 14.0312 12.2559C14.8437 11.547 15.25 10.7531 15.25 9.73242C15.25 7.94728 13.7949 6.5 12 6.5Z" fill="currentColor" />
    <path d="M12 8.5C12.6904 8.5 13.25 9.05965 13.25 9.75C13.25 10.4404 12.6904 11 12 11C11.3096 11 10.75 10.4404 10.75 9.75C10.75 9.05965 11.3096 8.5 12 8.5Z" fill="currentColor" />
</svg>