<svg xmlns="http://www.w3.org/2000/svg" width="24" height="24" viewBox="0 0 24 24" fill="none">
    <path d="M12.0003 18.8748C13.6251 18.8748 15.1546 19.2807 16.4759 19.9949C16.9618 20.2575 17.1428 20.8645 16.8802 21.3503C16.6176 21.8362 16.0106 22.0172 15.5247 21.7546C14.4927 21.1968 13.2899 20.8748 12.0003 20.8748C10.7108 20.8748 9.50796 21.1968 8.47592 21.7546C7.99007 22.0172 7.38306 21.8362 7.12045 21.3503C6.85785 20.8645 7.0389 20.2575 7.52475 19.9949C8.84609 19.2807 10.3756 18.8748 12.0003 18.8748Z" fill="currentColor" />
    <path d="M20 2.12476C21.5188 2.12476 22.75 3.35597 22.75 4.87476V14.8748C22.75 16.3935 21.5188 17.6248 20 17.6248H4C2.48122 17.6248 1.25 16.3935 1.25 14.8748V4.87476C1.25 3.35597 2.48122 2.12476 4 2.12476H20ZM10 5.87476C9.44771 5.87476 9 6.32247 9 6.87476V8.87476H7V6.87476C7 6.32247 6.55228 5.87476 6 5.87476C5.44772 5.87476 5 6.32247 5 6.87476V8.87476C5 9.97933 5.89543 10.8748 7 10.8748H9V12.8748C9 13.427 9.44771 13.8748 10 13.8748C10.5523 13.8748 11 13.427 11 12.8748V6.87476C11 6.32247 10.5523 5.87476 10 5.87476ZM14 5.87476C13.4477 5.87476 13 6.32247 13 6.87476V12.8748C13 13.427 13.4477 13.8748 14 13.8748C14.5523 13.8748 15 13.427 15 12.8748V11.6189L17.3496 13.6335C17.7689 13.993 18.3994 13.9445 18.7588 13.5251C19.1182 13.1058 19.0697 12.4754 18.6504 12.116L16.0352 9.87476L18.6504 7.63354C19.0697 7.27412 19.1182 6.64369 18.7588 6.22437C18.3994 5.80504 17.7689 5.75654 17.3496 6.11597L15 8.12964V6.87476C15 6.32247 14.5523 5.87476 14 5.87476Z" fill="currentColor" />
</svg>