<svg xmlns="http://www.w3.org/2000/svg" width="24" height="24" viewBox="0 0 24 24" fill="none">
    <path d="M20 2.25C21.5188 2.25 22.75 3.48122 22.75 5V15C22.75 16.5188 21.5188 17.75 20 17.75H13.5V19.25C13.5 19.5261 13.7239 19.75 14 19.75H16C16.5523 19.75 17 20.1977 17 20.75C17 21.3023 16.5523 21.75 16 21.75H8C7.44772 21.75 7 21.3023 7 20.75C7 20.1977 7.44772 19.75 8 19.75H10C10.2761 19.75 10.5 19.5261 10.5 19.25V17.75H4C2.48122 17.75 1.25 16.5188 1.25 15V5C1.25 3.48122 2.48122 2.25 4 2.25H20ZM10 6.25C9.0335 6.25 8.25 7.0335 8.25 8V12C8.25 12.9665 9.0335 13.75 10 13.75H14C14.9665 13.75 15.75 12.9665 15.75 12V8C15.75 7.0335 14.9665 6.25 14 6.25H10Z" fill="currentColor" />
</svg>