<svg xmlns="http://www.w3.org/2000/svg" width="24" height="24" viewBox="0 0 24 24" fill="none">
    <path d="M20 3.25C21.5188 3.25 22.75 4.48122 22.75 6V18C22.75 19.5188 21.5188 20.75 20 20.75H14C12.4812 20.75 11.25 19.5188 11.25 18V6C11.25 4.48122 12.4812 3.25 14 3.25H20ZM17 12.25C15.7574 12.25 14.75 13.2574 14.75 14.5C14.75 15.7426 15.7574 16.75 17 16.75C18.2426 16.75 19.25 15.7426 19.25 14.5C19.25 13.2574 18.2426 12.25 17 12.25ZM17 7.25C16.4477 7.25 16 7.69772 16 8.25C16 8.80228 16.4477 9.25 17 9.25C17.5523 9.25 18 8.80228 18 8.25C18 7.69772 17.5523 7.25 17 7.25Z" fill="currentColor" />
    <path d="M11.0967 3.25C10.4174 3.9669 10 4.93444 10 6V19.75C10 20.3023 9.55228 20.75 9 20.75H4.5C3.94772 20.75 3.5 20.3023 3.5 19.75C3.5 19.1977 3.94772 18.75 4.5 18.75H6.5C6.77614 18.75 7 18.5261 7 18.25V16.75H4C2.48122 16.75 1.25 15.5188 1.25 14V6C1.25 4.48122 2.48122 3.25 4 3.25H11.0967Z" fill="currentColor" />
</svg>