<svg xmlns="http://www.w3.org/2000/svg" width="24" height="24" viewBox="0 0 24 24" fill="none">
    <path d="M22.7539 15C22.7539 16.5188 21.5227 17.75 20.0039 17.75H4.00391C2.48512 17.75 1.25391 16.5188 1.25391 15V5C1.25391 3.48122 2.48512 2.25 4.00391 2.25H20.0039C21.5227 2.25 22.7539 3.48122 22.7539 5V15Z" fill="currentColor" />
    <path d="M16.0039 19.75C16.5562 19.75 17.0039 20.1977 17.0039 20.75C17.0039 21.3023 16.5562 21.75 16.0039 21.75H8.00391C7.45162 21.75 7.00391 21.3023 7.00391 20.75C7.00391 20.1977 7.45162 19.75 8.00391 19.75H16.0039Z" fill="currentColor" />
    <path d="M11.0039 16.75V20.75H9.00391V16.75H11.0039ZM15.0039 16.75V20.75H13.0039V16.75H15.0039Z" fill="currentColor" />
</svg>