<svg xmlns="http://www.w3.org/2000/svg" width="24" height="24" viewBox="0 0 24 24" fill="none">
    <path d="M16.0039 19.75C16.5562 19.75 17.0039 20.1977 17.0039 20.75C17.0039 21.3023 16.5562 21.75 16.0039 21.75H8.00391C7.45162 21.75 7.00391 21.3023 7.00391 20.75C7.00391 20.1977 7.45162 19.75 8.00391 19.75H16.0039Z" fill="currentColor" />
    <path d="M11.0039 17V21H9.00391V17H11.0039ZM15.0039 17V21H13.0039V17H15.0039Z" fill="currentColor" />
    <path d="M20.0039 2.25C21.5227 2.25 22.7539 3.48122 22.7539 5V15C22.7539 16.5188 21.5227 17.75 20.0039 17.75H4.00391C2.48512 17.75 1.25391 16.5188 1.25391 15V5C1.25391 3.48122 2.48512 2.25 4.00391 2.25H20.0039ZM10.3896 6.35645C10.1581 6.21763 9.86977 6.21467 9.63477 6.34766C9.39963 6.48079 9.25391 6.7298 9.25391 7V13C9.25391 13.2702 9.39963 13.5192 9.63477 13.6523C9.86977 13.7853 10.1581 13.7824 10.3896 13.6436L15.3896 10.6436C15.6156 10.508 15.7539 10.2634 15.7539 10C15.7539 9.73655 15.6156 9.49199 15.3896 9.35645L10.3896 6.35645Z" fill="currentColor" />
</svg>