<svg xmlns="http://www.w3.org/2000/svg" width="24" height="24" viewBox="0 0 24 24" fill="none">
    <path fill-rule="evenodd" clip-rule="evenodd" d="M18.666 1.13144C19.1971 1.07237 19.6794 1.4242 19.7432 1.91758C19.8069 2.41106 19.4277 2.85933 18.8965 2.91855C18.2342 2.99241 17.7639 3.30783 17.4229 3.70957C17.187 3.98733 17.0262 4.29268 16.9287 4.54843C19.5245 6.18657 21.2499 9.07831 21.25 12.3746C21.25 15.0722 20.094 17.5198 18.25 19.2125L18.25 19.8746C18.25 21.3934 17.0188 22.6246 15.5 22.6246L8.5 22.6246C6.98122 22.6246 5.75 21.3934 5.75 19.8746V19.2125C3.90603 17.5198 2.75 15.0722 2.75 12.3746C2.75009 9.07861 4.47492 6.18665 7.07031 4.54843C6.97277 4.29275 6.81288 3.98721 6.57715 3.70957C6.23606 3.30783 5.76577 2.99241 5.10352 2.91855C4.57231 2.85933 4.19309 2.41106 4.25684 1.91758C4.32061 1.4242 4.8029 1.07237 5.33398 1.13144C6.60902 1.27358 7.51136 1.90273 8.09863 2.59433C8.40323 2.95308 8.62883 3.33719 8.79102 3.69687C9.79073 3.32706 10.8717 3.12461 12 3.12461C13.1279 3.12461 14.2085 3.32726 15.208 3.69687C15.3702 3.33708 15.5967 2.95321 15.9014 2.59433C16.4886 1.90273 17.391 1.27358 18.666 1.13144ZM15.041 17.3551C14.7542 17.0565 14.2792 17.0469 13.9805 17.3336C13.4718 17.822 12.7741 18.1246 12 18.1246C11.2259 18.1246 10.5282 17.822 10.0195 17.3336C9.72079 17.0469 9.24584 17.0565 8.95898 17.3551C8.67216 17.6538 8.68185 18.1287 8.98047 18.4156C9.76035 19.1644 10.8275 19.6246 12 19.6246C13.1725 19.6246 14.2396 19.1644 15.0195 18.4156C15.3182 18.1287 15.3278 17.6538 15.041 17.3551ZM12 7.12461C9.28693 7.12461 6.75016 8.86304 6.75 11.3746C6.75 13.8863 9.28684 15.6246 12 15.6246C14.7132 15.6246 17.25 13.8863 17.25 11.3746C17.2498 8.86304 14.7131 7.12461 12 7.12461ZM12 9.87461C12.8246 9.87461 13.4999 10.5463 13.5 11.3746C13.5 12.203 12.8247 12.8746 12 12.8746C11.1753 12.8746 10.5 12.203 10.5 11.3746C10.5001 10.5463 11.1754 9.87461 12 9.87461Z" fill="currentColor" />
</svg>