<svg xmlns="http://www.w3.org/2000/svg" width="24" height="24" viewBox="0 0 24 24" fill="none">
    <path d="M19.5 1.75C21.0188 1.75 22.25 2.98122 22.25 4.5V19.5C22.25 21.0188 21.0188 22.25 19.5 22.25H4.5C2.98122 22.25 1.75 21.0188 1.75 19.5V4.5C1.75 2.98122 2.98122 1.75 4.5 1.75H19.5ZM7 10.75C6.30964 10.75 5.75 11.3096 5.75 12C5.75 12.6904 6.30964 13.25 7 13.25C7.69035 13.25 8.25 12.6904 8.25 12C8.25 11.3096 7.69035 10.75 7 10.75ZM12 10.75C11.3096 10.75 10.75 11.3096 10.75 12C10.75 12.6904 11.3096 13.25 12 13.25C12.6904 13.25 13.25 12.6904 13.25 12C13.25 11.3096 12.6904 10.75 12 10.75ZM17 10.75C16.3096 10.75 15.75 11.3096 15.75 12C15.75 12.6904 16.3096 13.25 17 13.25C17.6904 13.25 18.25 12.6904 18.25 12C18.25 11.3096 17.6904 10.75 17 10.75Z" fill="currentColor" />
</svg>