<svg xmlns="http://www.w3.org/2000/svg" width="24" height="24" viewBox="0 0 24 24" fill="none">
    <path d="M10.2501 18C10.2501 17.0335 11.0336 16.25 12.0001 16.25C12.9666 16.25 13.7501 17.0335 13.7501 18C13.7501 18.9665 12.9666 19.75 12.0001 19.75C11.0336 19.75 10.2501 18.9665 10.2501 18ZM10.2501 12C10.2501 11.0335 11.0336 10.25 12.0001 10.25C12.9666 10.25 13.7501 11.0335 13.7501 12C13.7501 12.9665 12.9666 13.75 12.0001 13.75C11.0336 13.75 10.2501 12.9665 10.2501 12ZM10.2501 6C10.2501 5.0335 11.0336 4.25 12.0001 4.25C12.9666 4.25 13.7501 5.0335 13.7501 6C13.7501 6.9665 12.9666 7.75 12.0001 7.75C11.0336 7.75 10.2501 6.9665 10.2501 6Z" fill="currentColor" />
</svg>