<svg xmlns="http://www.w3.org/2000/svg" width="24" height="24" viewBox="0 0 24 24" fill="none">
    <path d="M2.00391 2.00012L22.0039 22.0001" stroke="currentColor" stroke-width="2" stroke-linecap="round" />
    <path d="M12.0054 1.25012C15.2285 1.25012 17.3628 2.48254 18.6427 4.54604C19.8805 6.54164 20.2554 9.21539 20.2554 12.0001C20.2554 13.6068 20.1306 15.1766 19.7873 16.6005L12.7974 9.61067C12.9278 9.44177 13.0054 9.23001 13.0054 9.00012V6.00012C13.0054 5.44784 12.5577 5.00012 12.0054 5.00012C11.4531 5.00012 11.0054 5.44784 11.0054 6.00012V7.81863L6.41797 3.23121C7.71401 1.97023 9.54157 1.25012 12.0054 1.25012Z" fill="currentColor" />
    <path d="M18.6413 19.4542C17.3613 21.5177 15.227 22.7501 12.0039 22.7501C8.78071 22.7501 6.64642 21.5177 5.36652 19.4542C4.12874 17.4586 3.75391 14.7848 3.75391 12.0001C3.75391 9.45096 4.06799 6.99485 5.07056 5.06677L18.9372 18.9333C18.8446 19.1116 18.746 19.2853 18.6413 19.4542Z" fill="currentColor" />
</svg>