<svg xmlns="http://www.w3.org/2000/svg" width="24" height="24" viewBox="0 0 24 24" fill="none">
    <path d="M5.37303 2.22469C5.76581 1.90434 6.34481 1.92693 6.71092 2.29305L9.71092 5.29305C10.1014 5.68357 10.1014 6.31659 9.71092 6.70711C9.3204 7.09763 8.68738 7.09763 8.29686 6.70711L6.00389 4.41414L3.71092 6.70711C3.3204 7.09763 2.68738 7.09763 2.29686 6.70711C1.90634 6.31659 1.90634 5.68357 2.29686 5.29305L5.29686 2.29305L5.37303 2.22469Z" fill="currentColor" />
    <path d="M17.2969 14.293C17.6874 13.9025 18.3204 13.9025 18.7109 14.293L21.7109 17.293C21.8985 17.4806 22.0039 17.7349 22.0039 18.0001C22.0039 18.2653 21.8985 18.5196 21.7109 18.7071L18.7109 21.7071C18.3204 22.0976 17.6874 22.0976 17.2969 21.7071C16.9063 21.3166 16.9063 20.6836 17.2969 20.293L19.5898 18.0001L17.2969 15.7071C16.9063 15.3166 16.9063 14.6836 17.2969 14.293Z" fill="currentColor" />
    <path d="M5.00391 16.0001V3.00008C5.00391 2.44779 5.45162 2.00008 6.00391 2.00008C6.55619 2.00008 7.00391 2.44779 7.00391 3.00008V16.0001C7.00391 16.5524 7.45162 17.0001 8.00391 17.0001H21.0039C21.5562 17.0001 22.0039 17.4478 22.0039 18.0001C22.0039 18.5524 21.5562 19.0001 21.0039 19.0001H8.00391C6.34705 19.0001 5.00391 17.6569 5.00391 16.0001Z" fill="currentColor" />
    <path d="M13.2969 9.29305C13.6874 8.90252 14.3204 8.90252 14.7109 9.29305C15.1014 9.68357 15.1014 10.3166 14.7109 10.7071L7.71092 17.7071C7.3204 18.0976 6.68738 18.0976 6.29686 17.7071C5.90634 17.3166 5.90634 16.6836 6.29686 16.293L13.2969 9.29305Z" fill="currentColor" />
</svg>