<svg xmlns="http://www.w3.org/2000/svg" width="24" height="24" viewBox="0 0 24 24" fill="none">
    <path d="M22.0039 9C22.0039 9.55228 21.5562 10 21.0039 10C20.4516 10 20.0039 9.55228 20.0039 9V5.41406L5.41797 20H9.00391C9.55619 20 10.0039 20.4477 10.0039 21C10.0039 21.5523 9.55619 22 9.00391 22H3.00391C2.45162 22 2.00391 21.5523 2.00391 21V15C2.00391 14.4477 2.45162 14 3.00391 14C3.55619 14 4.00391 14.4477 4.00391 15V18.5859L18.5898 4H15.0039C14.4516 4 14.0039 3.55228 14.0039 3C14.0039 2.44772 14.4516 2 15.0039 2H21.0039C21.5562 2 22.0039 2.44772 22.0039 3V9Z" fill="currentColor" />
</svg>