<svg xmlns="http://www.w3.org/2000/svg" width="24" height="24" viewBox="0 0 24 24" fill="none">
    <path d="M11.0037 3.99992C11.0037 3.44773 11.4516 3.00007 12.0037 2.99992C12.556 2.99992 13.0037 3.44764 13.0037 3.99992V17.5859L16.2967 14.2929C16.6872 13.9024 17.3203 13.9024 17.7108 14.2929C18.1013 14.6834 18.1013 15.3164 17.7108 15.707L12.7108 20.707C12.5232 20.8945 12.269 20.9999 12.0037 20.9999C11.7385 20.9999 11.4843 20.8945 11.2967 20.707L6.29672 15.707C5.90623 15.3164 5.90621 14.6834 6.29672 14.2929C6.68723 13.9024 7.32027 13.9024 7.71078 14.2929L11.0037 17.5859V3.99992Z" fill="currentColor" />
</svg>