<svg xmlns="http://www.w3.org/2000/svg" width="24" height="24" viewBox="0 0 24 24" fill="none">
    <path d="M11.373 2.22444C11.7658 1.90407 12.3448 1.92669 12.7109 2.2928L16.7109 6.2928C17.1014 6.68332 17.1014 7.31634 16.7109 7.70686C16.3204 8.09738 15.6874 8.09738 15.2969 7.70686L13.0039 5.41389V18.5858L15.2969 16.2928C15.6874 15.9023 16.3204 15.9023 16.7109 16.2928C17.1014 16.6833 17.1014 17.3163 16.7109 17.7069L12.7109 21.7069C12.5234 21.8944 12.2691 21.9998 12.0039 21.9998C11.7388 21.9998 11.4844 21.8952 11.2969 21.7078L7.29686 17.7069C6.90637 17.3163 6.90635 16.6833 7.29686 16.2928C7.68739 15.9023 8.32041 15.9023 8.71092 16.2928L11.0039 18.5858V5.41389L8.71092 7.70686C8.3204 8.09738 7.68738 8.09738 7.29686 7.70686C6.90634 7.31634 6.90634 6.68332 7.29686 6.2928L11.2969 2.2928L11.373 2.22444Z" fill="currentColor" />
</svg>