<svg xmlns="http://www.w3.org/2000/svg" width="24" height="24" viewBox="0 0 24 24" fill="none">
    <path d="M16.2958 7.29283C16.6862 6.90238 17.3193 6.90252 17.7098 7.29283L21.7108 11.2928C21.8983 11.4803 22.0037 11.7347 22.0038 11.9999C22.0038 12.265 21.8982 12.5194 21.7108 12.7069L17.7098 16.7069C17.3193 17.0974 16.6863 17.0974 16.2958 16.7069C15.9055 16.3163 15.9053 15.6833 16.2958 15.2928L18.5897 12.9999H5.41785L7.71082 15.2928C8.10134 15.6834 8.10134 16.3164 7.71082 16.7069C7.32029 17.0974 6.68728 17.0974 6.29675 16.7069L2.29675 12.7069C2.10923 12.5194 2.00379 12.2651 2.00378 11.9999C2.00379 11.7347 2.10923 11.4804 2.29675 11.2928L6.29675 7.29283C6.68728 6.90231 7.32029 6.90231 7.71082 7.29283C8.10134 7.68336 8.10134 8.31637 7.71082 8.70689L5.41785 10.9999H18.5897L16.2958 8.70689C15.9055 8.31637 15.9054 7.68329 16.2958 7.29283Z" fill="currentColor" />
</svg>