<svg xmlns="http://www.w3.org/2000/svg" width="24" height="24" viewBox="0 0 24 24" fill="none">
    <path d="M2.00391 9V3C2.00391 2.44772 2.45162 2 3.00391 2H9.00391C9.55619 2 10.0039 2.44772 10.0039 3C10.0039 3.55228 9.55619 4 9.00391 4H5.41797L20.0039 18.5859V15C20.0039 14.4477 20.4516 14 21.0039 14C21.5562 14 22.0039 14.4477 22.0039 15V21C22.0039 21.5523 21.5562 22 21.0039 22H15.0039C14.4516 22 14.0039 21.5523 14.0039 21C14.0039 20.4477 14.4516 20 15.0039 20H18.5898L4.00391 5.41406V9C4.00391 9.55228 3.55619 10 3.00391 10C2.45162 10 2.00391 9.55228 2.00391 9Z" fill="currentColor" />
</svg>