<svg xmlns="http://www.w3.org/2000/svg" width="24" height="24" viewBox="0 0 24 24" fill="none">
    <path d="M12 1.125C12.2059 1.125 12.4101 1.13263 12.6123 1.14746C12.7413 1.15693 12.8062 1.16187 12.8496 1.19043C12.9083 1.22915 12.9446 1.30195 12.9395 1.37207C12.9356 1.42384 12.8981 1.48026 12.8242 1.59277C12.4638 2.10327 12.25 2.72065 12.25 3.38672C12.25 5.22716 13.8411 6.625 15.6826 6.625C16.9102 6.6249 18.0074 6.01403 18.6172 5.06738L18.623 5.05762C18.752 4.8431 18.8168 4.73606 18.9189 4.72754C18.9232 4.72719 18.9283 4.72663 18.9326 4.72656C19.035 4.72514 19.1076 4.82299 19.2529 5.01855C20.8148 7.12075 21.749 9.89253 21.75 12.8701L21.7402 12.8799C21.7465 12.9328 21.75 12.9881 21.75 13.0439C21.7498 13.5623 21.4569 13.9553 21.1641 14.2139C20.8711 14.4724 20.4943 14.6752 20.1025 14.8389C19.313 15.1687 18.2458 15.4278 17.0313 15.6133C16.4999 15.6944 15.9996 15.3549 15.9131 14.8555C15.8268 14.3558 16.1872 13.8849 16.7188 13.8037C17.8555 13.6301 18.738 13.4032 19.3105 13.1641C19.4217 13.1176 19.4225 12.9695 19.3115 12.9229C18.985 12.7864 18.5389 12.6473 17.9746 12.5186C17.1525 12.331 16.1422 12.1818 15.0049 12.084C15.0155 13.659 15.0617 15.4619 15.2803 17.1025C15.4062 18.0479 15.5854 18.9083 15.832 19.623C16.0821 20.3476 16.3774 20.8508 16.6924 21.1533C17.0907 21.5357 17.1039 22.169 16.7217 22.5674C16.3393 22.9657 15.706 22.9789 15.3076 22.5967C14.6725 21.9868 14.2437 21.1514 13.9414 20.2754C13.6357 19.3895 13.4337 18.3863 13.2979 17.3662C13.0567 15.5561 13.0128 13.5959 13.0039 11.9727C12.6753 11.9639 12.3403 11.958 12 11.958C11.6594 11.958 11.3241 11.9639 10.9951 11.9727C10.9862 13.5959 10.9433 15.5562 10.7021 17.3662C10.5663 18.3863 10.3643 19.3895 10.0586 20.2754C9.75629 21.1514 9.32753 21.9868 8.69238 22.5967C8.29399 22.9789 7.66074 22.9657 7.27832 22.5674C6.8961 22.169 6.90935 21.5357 7.30762 21.1533C7.62257 20.8508 7.91793 20.3476 8.16797 19.623C8.41459 18.9083 8.59379 18.0479 8.71973 17.1025C8.93827 15.4619 8.98354 13.659 8.99414 12.084C7.85718 12.1818 6.84726 12.3311 6.02539 12.5186C5.46114 12.6473 5.01499 12.7864 4.68848 12.9229C4.57752 12.9695 4.5783 13.1176 4.68945 13.1641C5.26198 13.4032 6.14452 13.6301 7.28125 13.8037C7.81276 13.8849 8.17325 14.3558 8.08691 14.8555C8.00041 15.3549 7.50009 15.6944 6.96875 15.6133C5.75417 15.4278 4.687 15.1687 3.89746 14.8389C3.50574 14.6752 3.12887 14.4724 2.83594 14.2139C2.54314 13.9553 2.25018 13.5623 2.25 13.0439C2.25 12.9881 2.25352 12.9328 2.25977 12.8799L2.25 12.8701C2.25217 6.53062 6.48294 1.125 12 1.125ZM9.00293 5.875C8.4533 5.87522 8.00781 6.32285 8.00781 6.875C8.00781 7.42715 8.4533 7.87478 9.00293 7.875H9.0127C9.56232 7.87478 10.0078 7.42715 10.0078 6.875C10.0078 6.32285 9.56232 5.87522 9.0127 5.875H9.00293ZM14.6631 1.60547C14.7298 1.58375 14.7981 1.60909 14.9336 1.66016C15.8959 2.02302 16.7889 2.55992 17.5898 3.2373C17.7074 3.33671 17.7663 3.38659 17.7783 3.45898C17.7903 3.53148 17.7495 3.59966 17.668 3.73535L17.3506 4.26367C17.0225 4.76611 16.4091 5.1249 15.6826 5.125C14.5614 5.125 13.75 4.29458 13.75 3.38672C13.75 3.04496 13.8598 2.72448 14.0547 2.45117L14.0625 2.43945L14.4736 1.81445C14.5556 1.68968 14.5965 1.62726 14.6631 1.60547Z" fill="currentColor" />
</svg>