<svg xmlns="http://www.w3.org/2000/svg" width="24" height="24" viewBox="0 0 24 24" fill="none">
    <path d="M2.54307 2.54265C2.93359 2.15212 3.56661 2.15212 3.95713 2.54265L21.4571 20.0426C21.8477 20.4332 21.8477 21.0662 21.4571 21.4567C21.0666 21.8472 20.4336 21.8472 20.0431 21.4567L2.54307 3.95671C2.15254 3.56619 2.15254 2.93317 2.54307 2.54265Z" fill="currentColor" />
    <path d="M16.6153 16.6149L14.8692 20.858C14.6472 21.3974 14.1215 21.7496 13.5382 21.7496C12.8779 21.7495 12.302 21.3003 12.1417 20.6598L10.381 13.6178L3.34092 11.858C2.7001 11.6979 2.2501 11.1221 2.2501 10.4615C2.25017 9.87834 2.60242 9.35256 3.1417 9.13049L7.38389 7.38342L16.6153 16.6149Z" fill="currentColor" />
    <path d="M20.1651 2.24963C21.0404 2.24963 21.7501 2.95932 21.7501 3.83459C21.7501 4.04156 21.7098 4.24673 21.631 4.43811L17.6466 14.111L9.88779 6.35217L19.5616 2.36877C19.753 2.28996 19.9582 2.24965 20.1651 2.24963Z" fill="currentColor" />
</svg>