<svg xmlns="http://www.w3.org/2000/svg" width="24" height="24" viewBox="0 0 24 24" fill="none">
    <path d="M19.21 21.7496C20.0605 21.7496 20.75 21.0601 20.75 20.2096V20.1735C20.75 19.9546 20.7046 19.738 20.6162 19.5377L13.3877 3.15393C13.145 2.6043 12.6009 2.24963 12 2.24963C11.3992 2.24963 10.8551 2.6043 10.6123 3.15393L3.38383 19.5377C3.2955 19.738 3.25007 19.9546 3.25004 20.1735V20.2096C3.2501 21.0601 3.93957 21.7496 4.79008 21.7496C5.0581 21.7496 5.32201 21.6795 5.55473 21.5465L12 17.8629L18.4454 21.5465C18.6781 21.6795 18.942 21.7496 19.21 21.7496Z" fill="currentColor" />
</svg>