<svg xmlns="http://www.w3.org/2000/svg" width="24" height="24" viewBox="0 0 24 24" fill="none">
    <path d="M15.7538 8C15.7538 8.9665 14.9703 9.75 14.0038 9.75H10.0038C9.03735 9.75 8.25385 8.9665 8.25385 8V4C8.25385 3.0335 9.03735 2.25 10.0038 2.25H14.0038C14.9703 2.25 15.7538 3.0335 15.7538 4V8Z" fill="currentColor" />
    <path d="M9.75385 20C9.75385 20.9665 8.97034 21.75 8.00385 21.75H4.00385C3.03735 21.75 2.25385 20.9665 2.25385 20V16C2.25385 15.0335 3.03735 14.25 4.00385 14.25H8.00385C8.97034 14.25 9.75385 15.0335 9.75385 16V20Z" fill="currentColor" />
    <path d="M21.7538 20C21.7538 20.9665 20.9703 21.75 20.0038 21.75H16.0038C15.0373 21.75 14.2538 20.9665 14.2538 20V16C14.2538 15.0335 15.0373 14.25 16.0038 14.25H20.0038C20.9703 14.25 21.7538 15.0335 21.7538 16V20Z" fill="currentColor" />
    <path d="M17.0038 15V13H7.00385V15C7.00385 15.5523 6.55613 16 6.00385 16C5.45156 16 5.00385 15.5523 5.00385 15V13C5.00395 11.8955 5.89934 11 7.00385 11H11.0038V9C11.0038 8.44772 11.4516 8 12.0038 8C12.5561 8 13.0038 8.44772 13.0038 9V11H17.0038C18.1084 11 19.0037 11.8955 19.0038 13V15C19.0038 15.5523 18.5561 16 18.0038 16C17.4516 16 17.0038 15.5523 17.0038 15Z" fill="currentColor" />
</svg>