<svg xmlns="http://www.w3.org/2000/svg" width="24" height="24" viewBox="0 0 24 24" fill="none">
    <path d="M19.8184 3.75C21.4375 3.7501 22.75 5.05404 22.75 6.66211L22.75 17.3379C22.75 18.946 21.4375 20.2499 19.8184 20.25L4.18164 20.25C2.56252 20.2499 1.25 18.946 1.25 17.3379L1.25 6.66211C1.25 5.05404 2.56252 3.7501 4.18164 3.75L19.8184 3.75ZM6.75 18.3086L17.25 18.3086L17.25 5.69141L6.75 5.69141L6.75 18.3086ZM20 14.5C19.4477 14.5 19 14.9477 19 15.5C19 16.0523 19.4477 16.5 20 16.5C20.5523 16.5 21 16.0523 21 15.5C21 14.9477 20.5523 14.5 20 14.5ZM4 7.5C3.44771 7.5 3 7.94772 3 8.5C3 9.05228 3.44772 9.5 4 9.5C4.55228 9.5 5 9.05229 5 8.5C5 7.94772 4.55228 7.5 4 7.5Z" fill="currentColor" />
</svg>