<svg xmlns="http://www.w3.org/2000/svg" width="24" height="24" viewBox="0 0 24 24" fill="none">
    <path d="M19.0039 1.25C20.5227 1.25 21.7539 2.48122 21.7539 4L21.7539 20C21.7539 21.5188 20.5227 22.75 19.0039 22.75L6.75391 22.75C5.23513 22.75 4.00391 21.5188 4.00391 20V18.75H3.21777C2.68555 18.7498 2.25413 18.3184 2.25391 17.7861C2.25391 17.2537 2.68541 16.8215 3.21777 16.8213H4.00391L4.00391 12.9639H3.21777C2.68541 12.9636 2.25391 12.5324 2.25391 12C2.25391 11.4676 2.68541 11.0364 3.21777 11.0361H4.00391L4.00391 7.17871H3.21777C2.68541 7.17848 2.25391 6.74629 2.25391 6.21387C2.25413 5.68164 2.68554 5.25023 3.21777 5.25H4.00391V4C4.00391 2.48122 5.23513 1.25001 6.75391 1.25L19.0039 1.25ZM10.0039 10.25C9.58969 10.25 9.25391 10.5858 9.25391 11C9.25391 11.4142 9.58969 11.75 10.0039 11.75L13.5039 11.75C13.9181 11.75 14.2539 11.4142 14.2539 11C14.2539 10.5858 13.9181 10.25 13.5039 10.25L10.0039 10.25ZM10.0039 6.25C9.58969 6.25 9.25391 6.58579 9.25391 7C9.25391 7.41421 9.58969 7.75 10.0039 7.75L17.0039 7.75C17.4181 7.75 17.7539 7.41421 17.7539 7C17.7539 6.58579 17.4181 6.25 17.0039 6.25L10.0039 6.25Z" fill="currentColor" />
</svg>