<svg xmlns="http://www.w3.org/2000/svg" width="24" height="24" viewBox="0 0 24 24" fill="none">
    <path fill-rule="evenodd" clip-rule="evenodd" d="M15.3789 1.25006H6.62891C5.11012 1.25006 3.87891 2.48128 3.87891 4.00006V20.0001C3.87891 21.5188 5.11012 22.7501 6.62891 22.7501H15.3789V1.25006ZM16.8789 22.7501H19.1289C20.6477 22.7501 21.8789 21.5188 21.8789 20.0001V17.7501H16.8789V22.7501ZM21.8789 16.2501V12.7501H16.8789V16.2501H21.8789ZM21.8789 11.2501V7.75006H16.8789V11.2501H21.8789ZM21.8789 6.25006V4.00006C21.8789 2.48128 20.6477 1.25006 19.1289 1.25006H16.8789V6.25006H21.8789Z" fill="currentColor" />
    <path d="M6.12891 17.0001C6.68119 17.0001 7.12891 17.4478 7.12891 18.0001C7.12891 18.5523 6.68119 19.0001 6.12891 19.0001H3.12891C2.57662 19.0001 2.12891 18.5523 2.12891 18.0001C2.12891 17.4478 2.57662 17.0001 3.12891 17.0001H6.12891ZM6.12891 11.0001C6.68119 11.0001 7.12891 11.4478 7.12891 12.0001C7.12891 12.5523 6.68119 13.0001 6.12891 13.0001H3.12891C2.57662 13.0001 2.12891 12.5523 2.12891 12.0001C2.12891 11.4478 2.57662 11.0001 3.12891 11.0001H6.12891ZM6.12891 5.00006C6.68119 5.00006 7.12891 5.44778 7.12891 6.00006C7.12891 6.55235 6.68119 7.00006 6.12891 7.00006H3.12891C2.57662 7.00006 2.12891 6.55235 2.12891 6.00006C2.12891 5.44778 2.57662 5.00006 3.12891 5.00006H6.12891Z" fill="currentColor" />
</svg>