<svg xmlns="http://www.w3.org/2000/svg" width="24" height="24" viewBox="0 0 24 24" fill="none">
    <path d="M7.54191 6.48108C7.33469 6.27385 7.02894 6.20831 6.75969 6.30432L6.64738 6.35608C5.38586 7.05674 4.13806 7.97593 3.16398 9.06213C2.19247 10.1455 1.45593 11.4378 1.30851 12.8746C1.10627 14.8469 1.47045 16.2913 1.77043 17.4371C2.07898 18.6158 2.25131 19.3038 1.99308 20.0533C1.89983 20.3244 1.96913 20.625 2.1718 20.8278C2.37449 21.0305 2.67516 21.0997 2.94621 21.0065C3.69568 20.7483 4.38391 20.9206 5.56242 21.2291C6.70827 21.5291 8.15264 21.8933 10.1249 21.691C11.5618 21.5437 12.854 20.8071 13.9374 19.8356C15.0237 18.8615 15.9438 17.6137 16.6445 16.3522C16.8068 16.0595 16.7551 15.6943 16.5185 15.4576L7.54191 6.48108Z" fill="currentColor" />
    <path fill-rule="evenodd" clip-rule="evenodd" d="M9.32647 2.98821C10.5388 2.21911 13.7511 1.47376 17.0003 3.94134C19.3218 2.53837 21.4383 2.95899 22.3831 3.73138C22.8104 4.08098 22.8731 4.71113 22.5237 5.1386C22.1741 5.5658 21.5439 5.62874 21.1165 5.27923C20.9483 5.14254 19.9755 4.71993 18.5472 5.37981C21.6198 8.83192 20.829 12.3834 20.011 13.6728C19.9172 13.8207 19.8097 13.9357 19.7259 14.0195C19.563 14.1823 19.3775 14.3291 19.1722 14.4472C18.8784 14.6162 18.5076 14.5667 18.2679 14.3271L8.67218 4.73138C8.43251 4.49168 8.38309 4.12092 8.55206 3.82708C8.67014 3.62177 8.81691 3.43626 8.97979 3.27337C9.06361 3.18956 9.17857 3.08205 9.32647 2.98821Z" fill="currentColor" />
    <path d="M1.54306 1.54265C1.93359 1.15212 2.5666 1.15212 2.95712 1.54265L22.4571 21.0426C22.8476 21.4332 22.8476 22.0662 22.4571 22.4567C22.0666 22.8472 21.4336 22.8472 21.0431 22.4567L1.54306 2.95671C1.15254 2.56619 1.15254 1.93317 1.54306 1.54265Z" fill="currentColor" />
</svg>