<svg xmlns="http://www.w3.org/2000/svg" width="24" height="24" viewBox="0 0 24 24" fill="none">
    <path d="M22.7539 15.1719C22.7538 15.9011 22.4639 16.6006 21.9482 17.1162L17.1201 21.9443C16.6045 22.46 15.905 22.7499 15.1758 22.75H8.83203C8.10279 22.7499 7.40335 22.46 6.8877 21.9443L2.05957 17.1162C1.54392 16.6006 1.25399 15.9011 1.25391 15.1719V8.82812C1.25399 8.09889 1.54392 7.39944 2.05957 6.88379L6.8877 2.05566C7.40335 1.54001 8.10279 1.25008 8.83203 1.25H15.1758C15.905 1.25008 16.6045 1.54001 17.1201 2.05566L21.9482 6.88379C22.4639 7.39944 22.7538 8.09889 22.7539 8.82812V15.1719ZM13.0039 9V15C13.0039 15.5523 13.4516 16 14.0039 16C14.5562 16 15.0039 15.5523 15.0039 15V9C15.0039 8.44772 14.5562 8 14.0039 8C13.4516 8 13.0039 8.44772 13.0039 9ZM9.00391 9V15C9.00391 15.5523 9.45162 16 10.0039 16C10.5562 16 11.0039 15.5523 11.0039 15V9C11.0039 8.44772 10.5562 8 10.0039 8C9.45162 8 9.00391 8.44772 9.00391 9Z" fill="currentColor" />
</svg>