<svg xmlns="http://www.w3.org/2000/svg" width="24" height="24" viewBox="0 0 24 24" fill="none">
    <path fill-rule="evenodd" clip-rule="evenodd" d="M1 15.75C1 13.7865 2.44754 12 4.46041 12C5.01269 12 5.46041 12.4477 5.46041 13C5.46041 13.5523 5.01269 14 4.46041 14C3.75558 14 3 14.676 3 15.75C3 16.2941 3.17345 16.7126 3.4492 16.9914C3.71943 17.2647 4.18291 17.5 4.95249 17.5C5.56823 17.5 6.47224 17.0731 7.43674 16.2423C8.36697 15.4411 9.17294 14.418 9.60557 13.5528C9.80298 13.158 10.2359 12.9393 10.6708 13.0147C11.1057 13.0901 11.4398 13.4417 11.4928 13.88C11.7437 15.9553 11.6627 17.5976 11.0055 19.0542C10.351 20.5045 9.18782 21.6294 7.59342 22.8049C7.14889 23.1326 6.52285 23.038 6.19511 22.5934C5.86737 22.1489 5.96205 21.5228 6.40658 21.1951C7.91241 20.0849 8.74106 19.2097 9.18245 18.2316C9.34824 17.8641 9.46834 17.462 9.54105 17C9.28516 17.2661 9.01726 17.5206 8.742 17.7577C7.67483 18.6769 6.30507 19.5 4.95249 19.5C3.75374 19.5 2.74098 19.1197 2.02705 18.3977C1.31863 17.6812 1 16.7246 1 15.75ZM18.5396 13C18.5396 12.4477 18.9873 12 19.5396 12C21.5524 12 23 13.7865 23 15.75C23 16.7246 22.6814 17.6812 21.9729 18.3977C21.259 19.1197 20.2462 19.5 19.0475 19.5C17.6949 19.5 16.3251 18.6769 15.258 17.7577C14.9827 17.5206 14.7148 17.2661 14.4589 17C14.5317 17.4621 14.6518 17.8642 14.8175 18.2316C15.2589 19.2097 16.0876 20.0849 17.5934 21.1951C18.038 21.5228 18.1326 22.1489 17.8049 22.5934C17.4772 23.0379 16.8511 23.1326 16.4066 22.8049C14.8122 21.6294 13.649 20.5045 12.9945 19.0542C12.3373 17.5976 12.2563 15.9553 12.5072 13.88C12.5602 13.4417 12.8943 13.0901 13.3292 13.0147C13.7641 12.9393 14.197 13.158 14.3944 13.5528C14.8271 14.418 15.633 15.4411 16.5632 16.2423C17.5277 17.0731 18.4317 17.5 19.0475 17.5C19.8171 17.5 20.2806 17.2647 20.5508 16.9914C20.8265 16.7126 21 16.2941 21 15.75C21 14.676 20.2444 14 19.5396 14C18.9873 14 18.5396 13.5523 18.5396 13Z" fill="currentColor" />
    <path d="M12 1.25C12.9368 1.25 13.8274 1.6236 14.6074 2.16406C15.3905 2.70664 16.1051 3.44555 16.707 4.25586C17.8925 5.85165 18.75 7.87461 18.75 9.46973C18.7498 11.141 17.8209 12.5878 16.5586 13.5879C16.5503 13.5944 16.5418 13.6012 16.5332 13.6074L16.3018 13.7754C16.0658 13.4607 15.8722 13.1536 15.7363 12.8818C15.2428 11.8949 14.1605 11.3486 13.0732 11.5371C12.6742 11.6063 12.3088 11.7682 12 12C11.6912 11.7683 11.3258 11.6063 10.9268 11.5371C9.83958 11.3488 8.75713 11.8949 8.26367 12.8818C8.12785 13.1535 7.93494 13.4599 7.69922 13.7744L7.46875 13.6084C7.4596 13.6018 7.45025 13.5949 7.44141 13.5879C6.17912 12.5878 5.25015 11.141 5.25 9.46973C5.25 7.87461 6.10751 5.85165 7.29297 4.25586C7.89492 3.44555 8.60954 2.70664 9.39258 2.16406C10.1726 1.6236 11.0632 1.25 12 1.25ZM10.0039 8C9.45162 8 9.00391 8.44772 9.00391 9C9.00391 9.55228 9.45162 10 10.0039 10H10.0127C10.565 10 11.0127 9.55229 11.0127 9C11.0127 8.44772 10.565 8 10.0127 8H10.0039ZM14.0039 8C13.4516 8 13.0039 8.44772 13.0039 9C13.0039 9.55228 13.4516 10 14.0039 10H14.0127C14.565 10 15.0127 9.55229 15.0127 9C15.0127 8.44772 14.565 8 14.0127 8H14.0039Z" fill="currentColor" />
</svg>