<svg xmlns="http://www.w3.org/2000/svg" width="24" height="24" viewBox="0 0 24 24" fill="none">
    <path fill-rule="evenodd" clip-rule="evenodd" d="M17.0407 2.25063C17.2537 2.26243 17.4524 2.36432 17.5856 2.5309L21.5856 7.5309C21.7657 7.75603 21.8004 8.06501 21.6755 8.32485C21.5505 8.58442 21.2878 8.74965 20.9997 8.74965H17.7497V10.9997C17.7497 11.1699 17.692 11.3355 17.5856 11.4684L9.58565 21.4684C9.38672 21.7169 9.0521 21.8129 8.75166 21.7077C8.45118 21.6022 8.24976 21.3181 8.24971 20.9997V11.4997C8.24971 11.4415 8.25769 11.3851 8.27022 11.3307L2.46944 5.52992C2.28575 5.34624 2.2107 5.08062 2.27022 4.82778C2.32993 4.57484 2.51588 4.36997 2.7624 4.28774L8.7624 2.28774L8.86494 2.26235C9.10504 2.21842 9.35427 2.29366 9.52998 2.46938L12.9997 5.9391L16.4694 2.46938L16.529 2.41567C16.6725 2.29996 16.8548 2.24047 17.0407 2.25063ZM4.38838 5.32778L13.3815 14.3209L15.9938 11.0543L8.79756 3.85805L4.38838 5.32778ZM17.7497 7.24965H19.4392L17.7497 5.13832V7.24965Z" fill="currentColor" />
</svg>