<svg xmlns="http://www.w3.org/2000/svg" width="24" height="24" viewBox="0 0 24 24" fill="none">
    <path d="M11.0277 7.32135V3.60712H6.76456C6.42166 3.60712 6.10303 3.77811 5.92661 4.05779L3.56719 7.79923C3.28977 8.23887 2.69005 8.38133 2.2278 8.11751C1.76561 7.85363 1.61584 7.28317 1.89319 6.84347L4.25261 3.10203C4.78189 2.26308 5.73594 1.75 6.76456 1.75H17.2433C18.2719 1.75 19.2259 2.26308 19.7552 3.10203L22.1146 6.84347C22.392 7.28317 22.2422 7.85363 21.78 8.11751C21.3178 8.38134 20.718 8.23887 20.4406 7.79923L18.0812 4.05779C17.9048 3.77811 17.5862 3.60712 17.2433 3.60712H12.9801V7.32135C12.9801 7.83418 12.543 8.24991 12.0039 8.24991C11.4648 8.24991 11.0277 7.83418 11.0277 7.32135Z" fill="currentColor" />
    <path d="M21.5039 6.75C21.9181 6.75 22.2539 7.08579 22.2539 7.5V19.5C22.2539 21.0188 21.0227 22.25 19.5039 22.25H4.50391C2.98512 22.25 1.75391 21.0188 1.75391 19.5V7.5C1.75391 7.08579 2.08969 6.75 2.50391 6.75H21.5039ZM6.00391 17.25C5.58969 17.25 5.25391 17.5858 5.25391 18C5.25391 18.4142 5.58969 18.75 6.00391 18.75H11.0039C11.4181 18.75 11.7539 18.4142 11.7539 18C11.7539 17.5858 11.4181 17.25 11.0039 17.25H6.00391ZM6.00391 14.25C5.58969 14.25 5.25391 14.5858 5.25391 15C5.25391 15.4142 5.58969 15.75 6.00391 15.75H9.00391C9.41812 15.75 9.75391 15.4142 9.75391 15C9.75391 14.5858 9.41812 14.25 9.00391 14.25H6.00391Z" fill="currentColor" />
</svg>