<svg xmlns="http://www.w3.org/2000/svg" width="24" height="24" viewBox="0 0 24 24" fill="none">
    <path d="M10.9834 1.33385C11.2353 1.22205 11.5226 1.22205 11.7744 1.33385L20.5498 5.23424C20.6373 5.27315 20.7176 5.32334 20.7881 5.38365C20.9951 5.51716 21.1328 5.74892 21.1328 6.01354V11.7645C20.6416 11.8183 20.1647 12.0324 19.7881 12.409L18.8789 13.3182L17.9697 12.409C17.091 11.5304 15.6668 11.5304 14.7881 12.409C13.9095 13.2877 13.9094 14.712 14.7881 15.5907L15.6973 16.4999L14.7881 17.409C13.9095 18.2877 13.9094 19.712 14.7881 20.5907C14.9745 20.7771 15.187 20.9209 15.4121 21.0282L11.6836 22.6854C11.4897 22.7715 11.268 22.7715 11.0742 22.6854L2.07812 18.6854C1.80742 18.565 1.63292 18.2961 1.63281 17.9999V6.17662C1.6319 6.1595 1.62894 6.14215 1.62891 6.12486C1.62891 6.10725 1.63185 6.08958 1.63281 6.07213V5.99986C1.63281 5.71801 1.78967 5.47469 2.01953 5.34654C2.07747 5.30305 2.13999 5.26448 2.20801 5.23424L10.9834 1.33385ZM20.6719 13.2928C21.0624 12.9023 21.6954 12.9023 22.0859 13.2928C22.4765 13.6834 22.4765 14.3164 22.0859 14.7069L20.293 16.4999L22.0859 18.2928C22.4765 18.6834 22.4765 19.3164 22.0859 19.7069C21.6954 20.0974 21.0624 20.0974 20.6719 19.7069L18.8789 17.9139L17.0859 19.7069C16.6954 20.0974 16.0624 20.0974 15.6719 19.7069C15.2814 19.3164 15.2814 18.6834 15.6719 18.2928L17.4648 16.4999L15.6719 14.7069C15.2814 14.3164 15.2814 13.6834 15.6719 13.2928C16.0624 12.9023 16.6954 12.9023 17.0859 13.2928L18.8789 15.0858L20.6719 13.2928ZM5.65723 10.3036C5.27274 10.15 4.8364 10.3371 4.68262 10.7215C4.52901 11.106 4.71615 11.5423 5.10059 11.6962L7.60059 12.6962C7.98507 12.8499 8.42129 12.6626 8.5752 12.2782C8.72882 11.8937 8.54166 11.4574 8.15723 11.3036L5.65723 10.3036ZM9.28125 8.02525L11.3789 8.95787L17.7529 6.12486L15.6553 5.19225L9.28125 8.02525ZM5.00488 6.12486L6.81934 6.9315L13.1934 4.0985L11.3789 3.29186L5.00488 6.12486Z" fill="currentColor" />
</svg>