<svg xmlns="http://www.w3.org/2000/svg" width="24" height="24" viewBox="0 0 24 24" fill="none">
    <path d="M10.6086 1.33385C10.8604 1.22205 11.1477 1.22205 11.3996 1.33385L20.175 5.23424C20.2625 5.27315 20.3428 5.32332 20.4133 5.38365C20.6203 5.51714 20.758 5.74887 20.758 6.01354V15.7499H14.7541C13.5114 15.7499 12.5041 16.7572 12.5041 17.9999C12.5041 19.2425 13.5114 20.2499 14.7541 20.2499H16.7902L11.3088 22.6854C11.1149 22.7716 10.8933 22.7716 10.6994 22.6854L1.70331 18.6854C1.43252 18.565 1.258 18.2962 1.258 17.9999V6.17662C1.25708 6.15941 1.25409 6.14224 1.25409 6.12486C1.25409 6.10716 1.25705 6.08967 1.258 6.07213V5.99986C1.258 5.71797 1.41479 5.47467 1.64472 5.34654C1.70268 5.30303 1.76514 5.26449 1.83319 5.23424L10.6086 1.33385ZM5.28241 10.3036C4.89792 10.15 4.46158 10.3371 4.3078 10.7215C4.15402 11.1061 4.34125 11.5423 4.72577 11.6962L7.22577 12.6962C7.61036 12.85 8.04654 12.6628 8.20038 12.2782C8.35402 11.8937 8.16691 11.4574 7.78241 11.3036L5.28241 10.3036ZM8.90643 8.02525L11.0041 8.95787L17.3781 6.12486L15.2805 5.19225L8.90643 8.02525ZM4.63007 6.12486L6.44452 6.9315L12.8185 4.0985L11.0041 3.29186L4.63007 6.12486Z" fill="currentColor" />
    <path d="M21.7541 17C22.3064 17 22.7541 17.4477 22.7541 18C22.7541 18.5523 22.3064 19 21.7541 19H14.7541C14.2018 19 13.7541 18.5523 13.7541 18C13.7541 17.4477 14.2018 17 14.7541 17H21.7541Z" fill="currentColor" />
</svg>