<svg xmlns="http://www.w3.org/2000/svg" width="24" height="24" viewBox="0 0 24 24" fill="none">
    <path d="M12 1.24786C17.937 1.24786 22.75 6.0608 22.75 11.9979C22.75 12.9726 22.6554 13.9527 22.1797 14.7391C21.6695 15.5823 20.8112 16.0679 19.6064 16.2401C18.3871 16.4143 17.3427 16.4149 16.4932 16.4149H16.4814C15.593 16.4149 15.0099 16.4211 14.5605 16.5516C14.1886 16.6597 13.911 16.8528 13.6709 17.3328C13.4714 17.7319 13.4788 17.9886 13.5312 18.1883C13.5964 18.4357 13.7465 18.6715 13.9902 19.033C14.0009 19.0489 14.0123 19.0654 14.0234 19.0818C14.3188 19.5189 14.75 20.1571 14.75 20.9979C14.75 21.4118 14.6394 21.7962 14.3818 22.1053C14.1314 22.4057 13.8055 22.5579 13.5176 22.6385C13.0737 22.7627 12.5356 22.7551 12.1758 22.7498C12.111 22.7489 12.0516 22.7479 12 22.7479C6.06293 22.7479 1.25 17.9349 1.25 11.9979C1.25 6.0608 6.06294 1.24786 12 1.24786ZM7.97559 14.742C7.83413 14.2082 7.28671 13.8897 6.75293 14.0311L6.74414 14.034C6.2103 14.1755 5.89173 14.7228 6.0332 15.2567C6.17472 15.7905 6.72301 16.1081 7.25684 15.9666L7.26465 15.9647C7.79844 15.8232 8.11695 15.2758 7.97559 14.742ZM16.5 7.24786C15.2574 7.24786 14.25 8.25522 14.25 9.49786C14.25 10.7405 15.2574 11.7479 16.5 11.7479C17.7426 11.7479 18.75 10.7405 18.75 9.49786C18.75 8.25522 17.7426 7.24786 16.5 7.24786ZM9.5 6.24786C8.25736 6.24786 7.25 7.25522 7.25 8.49786C7.25 9.7405 8.25736 10.7479 9.5 10.7479C10.7426 10.7479 11.75 9.7405 11.75 8.49786C11.75 7.25522 10.7426 6.24786 9.5 6.24786Z" fill="currentColor" />
</svg>