<svg xmlns="http://www.w3.org/2000/svg" width="24" height="24" viewBox="0 0 24 24" fill="none">
    <path d="M5.28417 3.66183C9.91812 -0.0493741 16.6831 0.698924 20.3945 5.33272C22.1764 7.55759 22.9304 10.2759 22.7197 12.9089C22.5449 15.0895 20.5157 16.3025 18.5947 16.3025H13.458C12.5738 16.3027 11.9694 17.1963 12.2978 18.0173L12.7978 19.2673C13.1337 20.1069 13.0261 21.0149 12.5771 21.6921C12.1173 22.3855 11.3009 22.8241 10.3349 22.6726C7.77951 22.2716 5.35794 20.9515 3.61327 18.7732C-0.0981207 14.1391 0.650147 7.37322 5.28417 3.66183ZM19.5049 11.8025C19.5049 11.1121 18.9452 10.5525 18.2549 10.5525C17.5645 10.5525 17.0049 11.1121 17.0049 11.8025C17.0049 12.4928 17.5645 13.0525 18.2549 13.0525C18.9452 13.0525 19.5049 12.4928 19.5049 11.8025ZM17.5049 7.80245C17.5049 7.1121 16.9452 6.55245 16.2549 6.55245C15.5645 6.55245 15.0049 7.1121 15.0049 7.80245C15.0049 8.49281 15.5645 9.05245 16.2549 9.05245C16.9452 9.05245 17.5049 8.49281 17.5049 7.80245ZM8.50487 15.8025C8.50487 15.1121 7.94522 14.5525 7.25487 14.5525C6.56451 14.5525 6.00487 15.1121 6.00487 15.8025C6.00487 16.4928 6.56451 17.0525 7.25487 17.0525C7.94522 17.0525 8.50487 16.4928 8.50487 15.8025ZM13.0049 5.80245C13.0049 5.1121 12.4452 4.55245 11.7549 4.55245C11.0645 4.55245 10.5049 5.1121 10.5049 5.80245C10.5049 6.49281 11.0645 7.05245 11.7549 7.05245C12.4452 7.05245 13.0049 6.49281 13.0049 5.80245ZM8.50487 7.80245C8.50487 7.1121 7.94522 6.55245 7.25487 6.55245C6.56451 6.55245 6.00487 7.1121 6.00487 7.80245C6.00487 8.49281 6.56451 9.05245 7.25487 9.05245C7.94522 9.05245 8.50487 8.49281 8.50487 7.80245ZM7.00487 11.8025C7.00487 11.1121 6.44522 10.5525 5.75487 10.5525C5.06451 10.5525 4.50487 11.1121 4.50487 11.8025C4.50487 12.4928 5.06451 13.0525 5.75487 13.0525C6.44522 13.0525 7.00487 12.4928 7.00487 11.8025Z" fill="currentColor" />
</svg>