<svg xmlns="http://www.w3.org/2000/svg" width="24" height="24" viewBox="0 0 24 24" fill="none">
    <path d="M2.37133 4.3663C3.83226 2.52971 6.53566 2.29528 8.29125 3.85262L8.66723 4.18661C9.08038 4.55311 9.11869 5.18556 8.75219 5.59872C8.38567 6.01175 7.75319 6.04917 7.34008 5.6827L6.9641 5.34872C6.06638 4.55236 4.68384 4.67231 3.93676 5.61141C3.45743 6.21401 3.34731 7.03161 3.65063 7.73934L4.42309 9.5411C4.64056 10.0487 4.40529 10.6361 3.8977 10.8536C3.39024 11.071 2.80289 10.8365 2.5852 10.3292L1.81274 8.52645C1.21975 7.14252 1.43404 5.54462 2.37133 4.3663ZM15.717 3.85262C17.4726 2.29527 20.176 2.52967 21.637 4.3663C22.5742 5.5446 22.7885 7.14255 22.1955 8.52645L21.4231 10.3292C21.2054 10.8365 20.618 11.0709 20.1106 10.8536C19.603 10.6361 19.3677 10.0487 19.5852 9.5411L20.3577 7.73934C20.661 7.03161 20.5509 6.21401 20.0715 5.61141C19.3245 4.67224 17.9419 4.55234 17.0442 5.34872L16.6672 5.6827C16.2541 6.04901 15.6226 6.01163 15.2561 5.59872C14.8896 5.18561 14.927 4.55313 15.3401 4.18661L15.717 3.85262Z" fill="currentColor" />
    <path fill-rule="evenodd" clip-rule="evenodd" d="M18.8773 19.1843C20.6988 17.8494 21.8469 15.8705 21.847 13.3884C21.847 10.9427 20.7335 8.49761 18.9749 6.67065C17.2119 4.83929 14.7519 3.57888 12.0062 3.57886C9.2604 3.57886 6.8004 4.83927 5.03741 6.67065C3.27874 8.49762 2.16534 10.9426 2.16534 13.3884C2.16539 15.8705 3.31348 17.8494 5.13507 19.1843C6.93752 20.5051 9.3764 21.1843 12.0062 21.1843C14.6359 21.1843 17.0748 20.5051 18.8773 19.1843ZM9.95831 8.75775C9.43831 8.26165 8.66513 8.1056 7.95831 8.22162C7.22602 8.34188 6.48331 8.76118 5.96906 9.52728C5.48459 10.2492 5.25381 11.1172 5.25519 11.9169C5.25661 12.6997 5.48378 13.5403 6.06769 14.0976C6.66937 14.6718 7.4625 14.7981 8.19171 14.5908C8.90372 14.3882 9.55267 13.8767 10.0257 13.1718C10.5002 12.4647 10.7467 11.6418 10.7552 10.8691C10.7635 10.1058 10.536 9.30903 9.95831 8.75775ZM11.3026 14.9634C11.8323 14.7722 12.4216 14.8041 12.9315 15.0591C13.5904 15.3889 13.7329 16.2674 13.2118 16.7886L12.8006 17.1997C12.3614 17.6389 11.649 17.6389 11.2098 17.1997L10.7987 16.7886C10.2775 16.2674 10.4199 15.3889 11.0789 15.0591L11.3026 14.9634ZM14.0521 8.75775C14.5721 8.26165 15.3452 8.1056 16.0521 8.22162C16.7844 8.34188 17.5271 8.76118 18.0413 9.52728C18.5258 10.2492 18.7566 11.1172 18.7552 11.9169C18.7538 12.6997 18.5266 13.5403 17.9427 14.0976C17.341 14.6718 16.5479 14.7981 15.8187 14.5908C15.1067 14.3882 14.4577 13.8767 13.9847 13.1718C13.5102 12.4647 13.2637 11.6418 13.2552 10.8691C13.2469 10.1058 13.4744 9.30903 14.0521 8.75775Z" fill="currentColor" />
</svg>