<svg xmlns="http://www.w3.org/2000/svg" width="24" height="24" viewBox="0 0 24 24" fill="none">
    <path fill-rule="evenodd" clip-rule="evenodd" d="M3.11523 14.002C3.16229 14.002 3.20858 14.0052 3.25391 14.0115C3.74049 14.0791 4.11523 14.4968 4.11523 15.002C4.11523 15.5071 3.74049 15.9248 3.25391 15.9924C3.20858 15.9987 3.16229 16.0019 3.11523 16.002H1.75391V19.502C1.75391 21.0207 2.98512 22.252 4.50391 22.252H19.5039C21.0227 22.252 22.2539 21.0207 22.2539 19.502V16.002H20.8926C20.8455 16.0019 20.7992 15.9987 20.7539 15.9924C20.2673 15.9248 19.8926 15.5071 19.8926 15.002C19.8926 14.4968 20.2673 14.0791 20.7539 14.0115C20.7992 14.0052 20.8455 14.002 20.8926 14.002H22.2539V4.50195C22.2539 2.98317 21.0227 1.75195 19.5039 1.75195H4.50391C2.98512 1.75195 1.75391 2.98317 1.75391 4.50195V14.002H3.11523ZM7.55957 16.002C8.11181 16.0019 8.55957 15.5542 8.55957 15.002C8.55957 14.4497 8.11181 14.002 7.55957 14.002H6.44824C5.89601 14.002 5.44824 14.4497 5.44824 15.002C5.44824 15.5542 5.89601 16.0019 6.44824 16.002H7.55957ZM12.5596 16.002C13.1118 16.0019 13.5596 15.5542 13.5596 15.002C13.5596 14.4497 13.1118 14.002 12.5596 14.002H11.4482C10.896 14.002 10.4482 14.4497 10.4482 15.002C10.4482 15.5542 10.896 16.0019 11.4482 16.002H12.5596ZM17.5596 16.002C18.1118 16.0019 18.5596 15.5542 18.5596 15.002C18.5596 14.4497 18.1118 14.002 17.5596 14.002H16.4482C15.896 14.002 15.4482 14.4497 15.4482 15.002C15.4482 15.5542 15.896 16.0019 16.4482 16.002H17.5596Z" fill="currentColor" />
</svg>