<svg xmlns="http://www.w3.org/2000/svg" width="24" height="24" viewBox="0 0 24 24" fill="none">
    <path fill-rule="evenodd" clip-rule="evenodd" d="M8.01347 3.25195C8.00718 3.20663 8.00392 3.16033 8.00391 3.11328V2.00195C8.00391 1.91563 8.01484 1.83186 8.03541 1.75195H4.50391C2.98512 1.75195 1.75391 2.98317 1.75391 4.50195V19.502C1.75391 21.0207 2.98512 22.252 4.50391 22.252H8.03541C8.01484 22.172 8.00391 22.0883 8.00391 22.002V20.8906C8.00392 20.8436 8.00718 20.7973 8.01347 20.752C8.08108 20.2654 8.49875 19.8906 9.00391 19.8906C9.50906 19.8906 9.92674 20.2654 9.99434 20.752C10.0006 20.7973 10.0039 20.8436 10.0039 20.8906V22.002C10.0039 22.0883 9.99297 22.172 9.9724 22.252H14.0354C14.0148 22.172 14.0039 22.0883 14.0039 22.002V20.8906C14.0039 20.8436 14.0072 20.7973 14.0135 20.752C14.0811 20.2654 14.4987 19.8906 15.0039 19.8906C15.5091 19.8906 15.9267 20.2654 15.9943 20.752C16.0006 20.7973 16.0039 20.8436 16.0039 20.8906V22.002C16.0039 22.0883 15.993 22.172 15.9724 22.252H19.5039C21.0227 22.252 22.2539 21.0207 22.2539 19.502V4.50195C22.2539 2.98317 21.0227 1.75195 19.5039 1.75195H15.9724C15.993 1.83186 16.0039 1.91563 16.0039 2.00195V3.11328C16.0039 3.16033 16.0006 3.20663 15.9943 3.25195C15.9267 3.73853 15.5091 4.11328 15.0039 4.11328C14.4987 4.11328 14.0811 3.73853 14.0135 3.25195C14.0072 3.20663 14.0039 3.16033 14.0039 3.11328V2.00195C14.0039 1.91563 14.0148 1.83186 14.0354 1.75195H9.9724C9.99297 1.83186 10.0039 1.91563 10.0039 2.00195V3.11328C10.0039 3.16033 10.0006 3.20663 9.99434 3.25195C9.92674 3.73853 9.50906 4.11328 9.00391 4.11328C8.49875 4.11328 8.08108 3.73853 8.01347 3.25195ZM14.0039 17.5576V16.4463C14.004 15.8941 14.4517 15.4463 15.0039 15.4463C15.5562 15.4463 16.0038 15.8941 16.0039 16.4463V17.5576C16.0038 18.1099 15.5562 18.5576 15.0039 18.5576C14.4517 18.5576 14.004 18.1099 14.0039 17.5576ZM14.0039 12.5576V11.4463C14.004 10.8941 14.4517 10.4463 15.0039 10.4463C15.5562 10.4463 16.0038 10.8941 16.0039 11.4463V12.5576C16.0038 13.1099 15.5562 13.5576 15.0039 13.5576C14.4517 13.5576 14.004 13.1099 14.0039 12.5576ZM14.0039 7.55762V6.44629C14.004 5.89405 14.4517 5.44629 15.0039 5.44629C15.5562 5.44629 16.0038 5.89405 16.0039 6.44629V7.55762C16.0038 8.10985 15.5562 8.55762 15.0039 8.55762C14.4517 8.55762 14.004 8.10985 14.0039 7.55762ZM8.00391 17.5576V16.4463C8.00396 15.8941 8.45166 15.4463 9.00391 15.4463C9.55615 15.4463 10.0038 15.8941 10.0039 16.4463V17.5576C10.0038 18.1099 9.55616 18.5576 9.00391 18.5576C8.45166 18.5576 8.00396 18.1099 8.00391 17.5576ZM8.00391 12.5576V11.4463C8.00396 10.8941 8.45166 10.4463 9.00391 10.4463C9.55615 10.4463 10.0038 10.8941 10.0039 11.4463V12.5576C10.0038 13.1099 9.55616 13.5576 9.00391 13.5576C8.45166 13.5576 8.00396 13.1099 8.00391 12.5576ZM8.00391 7.55762V6.44629C8.00396 5.89405 8.45166 5.44629 9.00391 5.44629C9.55615 5.44629 10.0038 5.89405 10.0039 6.44629V7.55762C10.0038 8.10985 9.55616 8.55762 9.00391 8.55762C8.45166 8.55762 8.00396 8.10985 8.00391 7.55762Z" fill="currentColor" />
</svg>