<svg xmlns="http://www.w3.org/2000/svg" width="24" height="24" viewBox="0 0 24 24" fill="none">
    <path d="M12 1.25C17.9371 1.25 22.75 6.06294 22.75 12C22.75 17.9371 17.9371 22.75 12 22.75C6.06294 22.75 1.25 17.9371 1.25 12C1.25 6.06294 6.06294 1.25 12 1.25ZM9 6C8.44772 6 8 6.44772 8 7L8 18C8 18.5523 8.44772 19 9 19C9.55229 19 10 18.5523 10 18V14L13 14C15.2091 14 17 12.2091 17 10C17 7.79086 15.2091 6 13 6L9 6ZM13 8C14.1046 8 15 8.89543 15 10C15 11.1046 14.1046 12 13 12L10 12V8L13 8Z" fill="currentColor" />
</svg>