<svg xmlns="http://www.w3.org/2000/svg" width="24" height="24" viewBox="0 0 24 24" fill="none">
    <path d="M18.0488 4.54485C18.4393 4.15432 19.0724 4.15432 19.4629 4.54485C19.8534 4.93537 19.8534 5.56838 19.4629 5.95891L16.4629 8.95891C16.0724 9.34943 15.4393 9.34943 15.0488 8.95891C14.6583 8.56838 14.6583 7.93537 15.0488 7.54485L18.0488 4.54485Z" fill="currentColor" />
    <path d="M13.4393 1.39394C13.9131 1.11039 14.5277 1.26485 14.8113 1.73866C15.4488 2.80364 15.7106 5.08692 13.3963 7.01991C12.9724 7.37369 12.3421 7.31674 11.9881 6.89296C11.6343 6.46908 11.6913 5.83872 12.1151 5.48476C13.6315 4.21793 13.2552 3.03441 13.0945 2.76601C12.811 2.29216 12.9654 1.67758 13.4393 1.39394Z" fill="currentColor" />
    <path d="M16.9881 10.6109C18.9211 8.29662 21.2044 8.55845 22.2693 9.19588C22.7432 9.47953 22.8976 10.0941 22.6141 10.568C22.3304 11.0418 21.7159 11.1962 21.242 10.9127C20.9736 10.752 19.7901 10.3757 18.5233 11.8922C18.1693 12.316 17.5389 12.3729 17.115 12.0191C16.6913 11.6652 16.6343 11.0348 16.9881 10.6109Z" fill="currentColor" />
    <path fill-rule="evenodd" clip-rule="evenodd" d="M6.95475 6.8286C7.4269 5.68195 8.91307 5.38459 9.78996 6.26137L15.7278 12.1992C15.267 12.2431 14.7998 12.2657 14.3272 12.2657C11.159 12.2656 8.22892 11.259 5.83459 9.54875L6.95475 6.8286ZM16.876 14.0139C17.0517 13.9867 17.2092 13.914 17.3381 13.8096L17.7426 14.214C18.6194 15.0909 18.322 16.5771 17.1754 17.0492L15.5272 17.7279C15.069 17.7692 14.6477 17.7548 14.1645 17.7383C13.8767 17.7285 13.5668 17.7179 13.2142 17.7179C9.6937 17.7179 6.35472 16.95 3.35374 15.5731L5.07686 11.3888C7.71897 13.1691 10.9032 14.2083 14.3272 14.2083C15.1932 14.2083 16.0447 14.1422 16.876 14.0139ZM2.61354 17.3706L1.38772 20.3473C0.799548 21.7757 2.22824 23.2044 3.65664 22.6163L11.0526 19.5706C8.06534 19.3208 5.22244 18.558 2.61354 17.3706Z" fill="currentColor" />
</svg>