<svg xmlns="http://www.w3.org/2000/svg" width="24" height="24" viewBox="0 0 24 24" fill="none">
    <path fill-rule="evenodd" clip-rule="evenodd" d="M8.55824 20.6211L3.72328 22.6123C2.25284 23.2178 0.782284 21.7478 1.38734 20.2773L3.37855 15.4404L8.55824 20.6211ZM13.5172 18.5791L10.0612 20.002L3.99672 13.9385L5.41957 10.4824L13.5172 18.5791ZM7.11879 6.3584C7.60491 5.17806 9.13495 4.87198 10.0377 5.77441L18.2252 13.9619C19.1279 14.8647 18.8217 16.3957 17.6412 16.8818L15.0202 17.9609L6.03871 8.98047L7.11879 6.3584ZM20.7496 12.25C21.3019 12.25 21.7496 12.6977 21.7496 13.25C21.7496 13.8023 21.3019 14.25 20.7496 14.25C20.1974 14.25 19.7496 13.8023 19.7496 13.25C19.7496 12.6977 20.1974 12.25 20.7496 12.25ZM17.4244 10.5186C19.274 8.30444 21.419 8.58141 22.3844 9.15918C22.7398 9.37191 22.8559 9.83211 22.6432 10.1875C22.4305 10.5427 21.9702 10.6586 21.6149 10.4463C21.2469 10.226 19.925 9.86394 18.5748 11.4805C18.3093 11.7981 17.837 11.8405 17.5192 11.5752C17.2013 11.3097 17.1589 10.8365 17.4244 10.5186ZM18.4694 4.46973C18.7623 4.17683 19.237 4.17683 19.5299 4.46973C19.8228 4.76262 19.8228 5.23738 19.5299 5.53027L16.5299 8.53027C16.237 8.82317 15.7623 8.82317 15.4694 8.53027C15.1765 8.23738 15.1765 7.76262 15.4694 7.46973L18.4694 4.46973ZM21.7496 5C22.3019 5 22.7496 5.44772 22.7496 6C22.7496 6.55229 22.3019 7 21.7496 7C21.1974 7 20.7496 6.55228 20.7496 6C20.7496 5.44772 21.1974 5 21.7496 5ZM13.8121 1.35645C14.1675 1.14402 14.6278 1.25997 14.8405 1.61523C15.4182 2.58072 15.6946 4.72653 13.4801 6.57617C13.1622 6.84132 12.6899 6.79824 12.4244 6.48047C12.159 6.16256 12.2013 5.69032 12.5192 5.4248C14.1353 4.07496 13.7737 2.7541 13.5534 2.38574C13.3406 2.03034 13.4567 1.5692 13.8121 1.35645ZM10.9996 2.25C11.5519 2.25 11.9996 2.69772 11.9996 3.25C11.9996 3.80229 11.5519 4.25 10.9996 4.25C10.4474 4.25 9.99965 3.80228 9.99965 3.25C9.99965 2.69772 10.4474 2.25 10.9996 2.25ZM17.9996 1.25C18.5519 1.25 18.9996 1.69772 18.9996 2.25C18.9996 2.80229 18.5519 3.25 17.9996 3.25C17.4474 3.25 16.9996 2.80228 16.9996 2.25C16.9996 1.69772 17.4474 1.25 17.9996 1.25Z" fill="currentColor" />
</svg>