<svg xmlns="http://www.w3.org/2000/svg" width="24" height="24" viewBox="0 0 24 24" fill="none">
    <path fill-rule="evenodd" clip-rule="evenodd" d="M9.47728 9.47135L3.41705 15.5321C2.99515 15.954 2.75793 16.5262 2.75787 17.1229V20.5018C2.75787 20.916 3.09366 21.2518 3.50787 21.2518H6.88678C7.48344 21.2517 8.0557 21.0145 8.4776 20.5926L14.5378 14.5319L9.47728 9.47135ZM16.1285 12.9411L20.5977 8.47151C21.4764 7.59283 21.4764 6.16855 20.5977 5.28987L18.7198 3.41096C17.8411 2.53228 16.4158 2.53228 15.5372 3.41096L11.068 7.88054L16.1285 12.9411Z" fill="currentColor" />
    <path d="M1.30083 1.29485C1.69135 0.904322 2.32437 0.904322 2.71489 1.29485L22.7149 21.2948C23.1054 21.6854 23.1054 22.3184 22.7149 22.7089C22.3244 23.0994 21.6914 23.0994 21.3008 22.7089L1.30083 2.70891C0.910303 2.31838 0.910303 1.68537 1.30083 1.29485Z" fill="currentColor" />
</svg>