<svg xmlns="http://www.w3.org/2000/svg" width="24" height="24" viewBox="0 0 24 24" fill="none">
    <path d="M7.8786 9.25677C8.50875 9.32095 9.00067 9.85285 9.00067 10.4999C9.00067 11.1902 8.44094 11.7498 7.75067 11.7499C7.10349 11.7499 6.57058 11.2581 6.50653 10.6279L6.50067 10.4999L6.50653 10.372C6.57058 9.74173 7.10349 9.24994 7.75067 9.24994L7.8786 9.25677ZM7.74969 5.37494C9.11949 5.37494 10.349 5.96585 11.2272 6.8974C11.6061 7.29925 11.5871 7.93163 11.1852 8.31049C10.7834 8.68927 10.151 8.67116 9.77216 8.26947C9.24284 7.70802 8.52778 7.37494 7.74969 7.37494C6.9716 7.37494 6.25655 7.70803 5.72723 8.26947C5.34837 8.67116 4.71595 8.68927 4.31415 8.31049C3.9123 7.93163 3.89332 7.29925 4.27216 6.8974C5.15041 5.96585 6.3799 5.37494 7.74969 5.37494ZM7.74969 1.24994C10.1934 1.24994 12.3952 2.30237 13.9772 3.98041C14.3561 4.38226 14.3371 5.01561 13.9352 5.39447C13.5334 5.77284 12.9009 5.75407 12.5222 5.35248C11.289 4.04453 9.60173 3.24994 7.74969 3.24994C5.89766 3.24994 4.21034 4.04453 2.97723 5.35248C2.59851 5.75407 1.96599 5.77284 1.56415 5.39447C1.1623 5.01561 1.1433 4.38226 1.52216 3.98041C3.10419 2.30237 5.30597 1.24994 7.74969 1.24994Z" fill="currentColor" />
    <path d="M15.9531 8.0137L19.9942 12.044L11.4727 20.5664C10.7406 21.2985 9.8228 21.8173 8.81838 22.0684L6.18166 22.7276C5.92617 22.7913 5.65596 22.7165 5.46975 22.5303C5.28357 22.3441 5.20868 22.0739 5.27248 21.8184L5.93166 19.1817C6.18278 18.1773 6.70252 17.2604 7.43459 16.5284L16.0488 7.91214C15.9905 7.97503 15.9547 8.01196 15.9531 8.0137Z" fill="currentColor" />
    <path d="M17.876 6.08597C18.9911 4.97128 20.7991 4.97109 21.9141 6.08597C23.029 7.20093 23.0288 9.00894 21.9141 10.1241L21.0547 10.9834L17.0137 6.95316C17.0119 6.95474 16.9747 6.99087 16.9112 7.04984L17.876 6.08597Z" fill="currentColor" />
</svg>