<svg xmlns="http://www.w3.org/2000/svg" width="24" height="24" viewBox="0 0 24 24" fill="none">
    <path fill-rule="evenodd" clip-rule="evenodd" d="M9.47338 9.47133L3.41315 15.5321C2.99124 15.954 2.75403 16.5262 2.75397 17.1229V20.5018C2.75397 20.916 3.08975 21.2518 3.50397 21.2518H6.88287C7.47953 21.2517 8.05179 21.0145 8.47369 20.5926L14.5339 14.5319L9.47338 9.47133ZM16.1246 12.9411L17.5036 11.562L12.4431 6.50142L11.0641 7.88053L16.1246 12.9411ZM15.5333 3.41096C16.4119 2.53228 17.8372 2.53228 18.7159 3.41096L20.5938 5.28987C21.4725 6.16855 21.4725 7.59283 20.5938 8.47151L18.5641 10.5014L13.5036 5.44083L15.5333 3.41096Z" fill="currentColor" />
    <path d="M1.29692 1.29485C1.68745 0.904322 2.32046 0.904322 2.71098 1.29485L22.711 21.2948C23.1015 21.6854 23.1015 22.3184 22.711 22.7089C22.3205 23.0994 21.6874 23.0994 21.2969 22.7089L1.29692 2.70891C0.906397 2.31838 0.906397 1.68537 1.29692 1.29485Z" fill="currentColor" />
</svg>