<svg xmlns="http://www.w3.org/2000/svg" width="24" height="24" viewBox="0 0 24 24" fill="none">
    <path d="M13.1576 5.39698C13.8499 4.7047 14.9721 4.7048 15.6645 5.39698L18.5305 8.26197C19.2226 8.95418 19.2224 10.0765 18.5305 10.7688L15.6645 13.6348C14.9721 14.3268 13.8498 14.327 13.1576 13.6348L10.2926 10.7688C9.60043 10.0765 9.60033 8.95424 10.2926 8.26197L13.1576 5.39698Z" fill="currentColor" />
    <path fill-rule="evenodd" clip-rule="evenodd" d="M10.8118 3.06356C9.39612 1.64808 7.10089 1.64808 5.68524 3.06356C5.38858 3.36022 5.38869 3.84121 5.68524 4.13793L9.16869 7.62137C9.23891 7.53352 9.31471 7.44867 9.39609 7.36729L12.2558 4.50759L10.8118 3.06356ZM16.3053 14.7583C16.3932 14.688 16.4781 14.6122 16.5596 14.5308L19.4191 11.6712L20.9421 13.1942C22.3578 14.6099 22.3578 16.9051 20.9421 18.3207C20.6454 18.6174 20.1645 18.6174 19.8678 18.3207L16.3053 14.7583ZM9.31926 11.5861L2.64598 18.2594C1.78988 19.1156 1.78988 20.5037 2.64598 21.3598C3.50215 22.216 4.89022 22.216 5.74643 21.3598L12.424 14.6823C12.3683 14.6341 12.314 14.5836 12.2611 14.5308L9.39609 11.6658C9.3699 11.6396 9.34429 11.613 9.31926 11.5861Z" fill="currentColor" />
</svg>