<svg xmlns="http://www.w3.org/2000/svg" width="24" height="24" viewBox="0 0 24 24" fill="none">
    <path d="M1.00391 18.002V15.002C1.00391 14.4497 1.45162 14.002 2.00391 14.002C2.55619 14.002 3.00391 14.4497 3.00391 15.002V18.002C3.00391 18.5542 3.45162 19.002 4.00391 19.002H9.50391C10.0562 19.002 10.5039 19.4497 10.5039 20.002C10.5039 20.5542 10.0562 21.002 9.50391 21.002H4.00391C2.34705 21.002 1.00391 19.6588 1.00391 18.002Z" fill="currentColor" />
    <path d="M21.0039 10.502V6.00195C21.0039 5.4497 20.5561 5.00201 20.0039 5.00195H13.0039C12.4516 5.00195 12.0039 4.55424 12.0039 4.00195C12.0039 3.44967 12.4516 3.00195 13.0039 3.00195H20.0039C21.6607 3.00201 23.0039 4.34513 23.0039 6.00195V10.502C23.0039 11.0542 22.5561 11.5019 22.0039 11.502C21.4516 11.502 21.0039 11.0542 21.0039 10.502Z" fill="currentColor" />
    <path d="M1.29687 3.29484C1.6874 2.90433 2.32041 2.90432 2.71093 3.29484L8.0039 8.58781V6.00187C8.0039 5.44959 8.45162 5.00187 9.0039 5.00187C9.55604 5.00205 10.0039 5.4497 10.0039 6.00187V11.0019C10.0039 11.5541 9.55604 12.0017 9.0039 12.0019H4.0039C3.45162 12.0019 3.0039 11.5542 3.0039 11.0019C3.0039 10.4496 3.45162 10.0019 4.0039 10.0019H6.58984L1.29687 4.7089C0.906355 4.31838 0.906351 3.68536 1.29687 3.29484Z" fill="currentColor" />
    <path d="M23.0039 19.252C23.0039 20.2185 22.2204 21.002 21.2539 21.002H15.2539C14.2874 21.002 13.5039 20.2185 13.5039 19.252V15.252C13.5039 14.2855 14.2874 13.502 15.2539 13.502H21.2539C22.2204 13.502 23.0039 14.2855 23.0039 15.252V19.252Z" fill="currentColor" />
</svg>