<svg xmlns="http://www.w3.org/2000/svg" width="24" height="24" viewBox="0 0 24 24" fill="none">
    <path d="M14.0039 14.002V3.00195C14.0039 2.44967 14.4516 2.00195 15.0039 2.00195C15.5562 2.00195 16.0039 2.44967 16.0039 3.00195V14.002C16.0039 14.5542 15.5562 15.002 15.0039 15.002C14.4516 15.002 14.0039 14.5542 14.0039 14.002Z" fill="currentColor" />
    <path d="M17.0039 14.002V3.00195C17.0039 2.44967 17.4516 2.00195 18.0039 2.00195C18.5562 2.00195 19.0039 2.44967 19.0039 3.00195V14.002C19.0039 14.5542 18.5562 15.002 18.0039 15.002C17.4516 15.002 17.0039 14.5542 17.0039 14.002Z" fill="currentColor" />
    <path d="M8.00391 6.00195C8.00391 4.95258 8.40601 3.93923 9.13184 3.18652C9.85877 2.43279 10.8523 2.00203 11.8965 2.00195H19.0039C19.5562 2.00195 20.0039 2.44967 20.0039 3.00195C20.0039 3.55424 19.5562 4.00195 19.0039 4.00195H11.8965C11.4065 4.00203 10.9292 4.20399 10.5713 4.5752C10.2121 4.9477 10.0039 5.46007 10.0039 6.00195C10.0039 6.54383 10.2121 7.05621 10.5713 7.42871C10.9292 7.79992 11.4065 8.00188 11.8965 8.00195H15.0039C15.5562 8.00195 16.0039 8.44967 16.0039 9.00195C16.0039 9.55424 15.5562 10.002 15.0039 10.002H11.8965C10.8523 10.0019 9.85877 9.57112 9.13184 8.81738C8.40601 8.06468 8.00391 7.05132 8.00391 6.00195Z" fill="currentColor" />
    <path d="M6.86426 13.2332C7.28859 12.88 7.91907 12.9379 8.27246 13.3621C8.62563 13.7865 8.56778 14.4169 8.14355 14.7703C7.87177 14.9967 7.50335 15.2798 7.14062 15.5633C6.76675 15.8555 6.37877 16.164 6.02637 16.4705C6.01448 16.4809 6.00295 16.4915 5.99121 16.5018H20.0039C20.5562 16.5018 21.0039 16.9495 21.0039 17.5018C21.0039 18.0541 20.5562 18.5018 20.0039 18.5018H5.99121C6.00295 18.5121 6.01448 18.5227 6.02637 18.533C6.37877 18.8395 6.76675 19.1481 7.14062 19.4402C7.50335 19.7237 7.87177 20.0068 8.14355 20.2332C8.56778 20.5866 8.62563 21.2171 8.27246 21.6414C7.91907 22.0656 7.28859 22.1235 6.86426 21.7703C6.62424 21.5704 6.29852 21.3207 5.90918 21.0164C5.53108 20.7209 5.10824 20.3858 4.71387 20.0428C4.32452 19.7041 3.93206 19.3314 3.62988 18.9588C3.38359 18.6551 3.04861 18.1772 3.00781 17.6151L3.00391 17.5018L3.00781 17.3885C3.04861 16.8263 3.38359 16.3485 3.62988 16.0447C3.93206 15.6721 4.32452 15.2994 4.71387 14.9608C5.10824 14.6178 5.53108 14.2826 5.90918 13.9871C6.29852 13.6828 6.62424 13.4332 6.86426 13.2332Z" fill="currentColor" />
</svg>