<svg xmlns="http://www.w3.org/2000/svg" width="24" height="24" viewBox="0 0 24 24" fill="none">
    <path d="M21.0053 18.7529C21.5576 18.7529 22.0053 19.2006 22.0053 19.7529C22.0053 20.3052 21.5576 20.7529 21.0053 20.7529H3.00531C2.45303 20.7529 2.00531 20.3052 2.00531 19.7529C2.00531 19.2006 2.45303 18.7529 3.00531 18.7529H21.0053Z" fill="currentColor" />
    <path d="M17.6471 3.66862C19.0373 2.90438 20.7559 3.2217 21.8698 4.37272L22.2545 4.77116C23.0045 5.54626 22.9198 6.897 21.9098 7.46061L7.61585 15.4362C6.51269 16.0518 5.15028 15.7385 4.34827 14.7751L1.6637 11.5505C0.97646 10.7248 1.15645 9.39042 2.20472 8.90397L2.68714 8.68034C3.53844 8.28548 4.52847 8.40623 5.28772 8.95671L6.37561 9.74479C6.44818 9.7974 6.51425 9.78953 6.54944 9.77018L7.90686 9.02409C7.94583 9.00267 7.98252 8.95861 7.98206 8.87175C7.98156 8.7831 7.93878 8.69931 7.85901 8.64909L5.36585 7.07975C4.33096 6.42817 4.21052 4.8204 5.34925 4.14616L5.64124 3.97428C6.87265 3.24531 8.35059 3.07053 9.74378 3.47526L15.1461 5.04362L17.6471 3.66862Z" fill="currentColor" />
</svg>