<svg xmlns="http://www.w3.org/2000/svg" width="24" height="24" viewBox="0 0 24 24" fill="none">
    <path d="M8.98659 10.5863L11.5035 8.06919C11.894 7.67865 12.5272 7.67865 12.9177 8.06919C13.3082 8.45972 13.3082 9.0929 12.9177 9.48344L10.4008 12.0005C10.0102 12.391 9.3771 12.391 8.98659 12.0005C8.59607 11.61 8.59607 10.9768 8.98659 10.5863Z" fill="currentColor" />
    <path d="M12.0061 13.6068L14.523 11.0897C14.9136 10.6992 15.5467 10.6992 15.9372 11.0897C16.3277 11.4802 16.3277 12.1134 15.9372 12.5039L13.4203 15.021C13.0298 15.4115 12.3966 15.4115 12.0061 15.021C11.6156 14.6305 11.6156 13.9973 12.0061 13.6068Z" fill="currentColor" />
    <path d="M2.4431 20.1522L4.45664 18.1385C4.84711 17.748 5.48028 17.7481 5.87081 18.1385C6.26129 18.529 6.26125 19.1622 5.87081 19.5528L3.85727 21.5664C3.46681 21.957 2.83366 21.9569 2.4431 21.5664C2.05287 21.1759 2.05274 20.5426 2.4431 20.1522Z" fill="currentColor" />
    <path d="M15.4155 15.9238C15.806 16.3144 15.806 16.9475 15.4155 17.3381C15.025 17.7286 14.3918 17.7286 14.0013 17.3381L6.67148 10.0079C6.28097 9.61732 6.28097 8.98414 6.67148 8.5936C7.062 8.20307 7.69514 8.20307 8.08566 8.5936L15.4155 15.9238Z" fill="currentColor" />
    <path d="M7.90396 9.07397C8.10278 9.07397 8.29361 9.15318 8.43424 9.2937L14.7174 15.5769C15.0102 15.8698 15.0103 16.3446 14.7174 16.6375L13.1471 18.2078C12.1967 19.1583 10.9153 19.7008 9.57389 19.7263C8.52685 20.887 6.70873 20.9459 5.59049 19.8279L4.18424 18.4207C3.06586 17.3021 3.12338 15.4823 4.28482 14.4353C4.31087 13.0947 4.85342 11.814 5.80338 10.864L7.37369 9.2937C7.51425 9.15314 7.70519 9.07408 7.90396 9.07397Z" fill="currentColor" />
    <path d="M18.4983 2.08429C18.8578 1.66496 19.4892 1.61649 19.9085 1.9759C20.3278 2.33531 20.3763 2.96576 20.0169 3.38508L18.4104 5.2591H21.2718C21.6782 5.25914 22.0441 5.50483 22.1976 5.88117C22.351 6.25754 22.2616 6.68971 21.971 6.97394L18.3685 10.4974C17.9737 10.8836 17.3406 10.8766 16.9544 10.4818C16.5684 10.0869 16.5753 9.45384 16.97 9.06769L18.8196 7.2591H16.2376C15.8473 7.2591 15.4927 7.03158 15.3294 6.67707C15.1662 6.32227 15.2247 5.90425 15.4788 5.60773L18.4983 2.08429Z" fill="currentColor" />
</svg>