<svg xmlns="http://www.w3.org/2000/svg" width="24" height="24" viewBox="0 0 24 24" fill="none">
    <path d="M8.00226 7.00439V2.00439C8.00226 1.45211 8.44997 1.00439 9.00226 1.00439C9.55454 1.00439 10.0023 1.45211 10.0023 2.00439V7.00439C10.0023 7.55668 9.55454 8.00439 9.00226 8.00439C8.44997 8.00439 8.00226 7.55668 8.00226 7.00439Z" fill="currentColor" />
    <path d="M14.0023 7.00439V2.00439C14.0023 1.45211 14.45 1.00439 15.0023 1.00439C15.5545 1.00439 16.0023 1.45211 16.0023 2.00439V7.00439C16.0023 7.55668 15.5545 8.00439 15.0023 8.00439C14.45 8.00439 14.0023 7.55668 14.0023 7.00439Z" fill="currentColor" />
    <path d="M11.0023 22.0044V18.0044C11.0023 17.4521 11.45 17.0044 12.0023 17.0044C12.5545 17.0044 13.0023 17.4521 13.0023 18.0044V22.0044C13.0023 22.5567 12.5545 23.0044 12.0023 23.0044C11.45 23.0044 11.0023 22.5567 11.0023 22.0044Z" fill="currentColor" />
    <path d="M19.0023 6.00439C19.5545 6.00439 20.0023 6.45211 20.0023 7.00439C20.0023 7.55668 19.5545 8.00439 19.0023 8.00439H5.00226C4.44997 8.00439 4.00226 7.55668 4.00226 7.00439C4.00226 6.45211 4.44997 6.00439 5.00226 6.00439H19.0023Z" fill="currentColor" />
    <path d="M18.7523 10.0044C18.7523 11.7946 18.0416 13.512 16.7757 14.7778C16.7719 14.7816 16.7678 14.7852 16.7638 14.7888C16.7599 14.7922 16.7559 14.7957 16.7523 14.7993V16.0044C16.7523 17.5232 15.521 18.7544 14.0023 18.7544H10.0023C8.48348 18.7544 7.25226 17.5232 7.25226 16.0044V14.7993C7.24857 14.7957 7.24466 14.7922 7.24075 14.7888C7.2367 14.7852 7.23264 14.7816 7.22882 14.7778C5.96295 13.512 5.25226 11.7946 5.25226 10.0044V7.00439C5.25226 6.59018 5.58804 6.25439 6.00226 6.25439H18.0023C18.4165 6.25439 18.7523 6.59018 18.7523 7.00439V10.0044Z" fill="currentColor" />
</svg>