<svg xmlns="http://www.w3.org/2000/svg" width="24" height="24" viewBox="0 0 24 24" fill="none">
    <path d="M11.7543 8.75391H13.0043C13.7173 8.75394 14.3293 9.18114 14.6019 9.79297C14.6408 9.76806 14.6872 9.75397 14.7367 9.75391H16.0043C16.7411 9.75395 17.3703 10.2098 17.6283 10.8545C17.6738 10.7938 17.7458 10.754 17.8275 10.7539H19.0043C19.9707 10.754 20.7543 11.5374 20.7543 12.5039V18.5039C20.7543 20.2988 19.2992 21.7539 17.5043 21.7539H9.599C8.83128 21.7539 8.11595 21.3627 7.70252 20.7158L3.56287 14.2363C3.16337 13.6174 3.14961 12.8242 3.52869 12.1924C4.11848 11.2097 5.42905 10.9532 6.34607 11.6406C6.35337 11.6461 6.3609 11.652 6.36756 11.6582L8.25427 13.4258V4.00391C8.25427 3.03741 9.03778 2.25391 10.0043 2.25391C10.9707 2.25396 11.7543 3.03744 11.7543 4.00391V8.75391Z" fill="currentColor" />
</svg>