<svg xmlns="http://www.w3.org/2000/svg" width="24" height="24" viewBox="0 0 24 24" fill="none">
    <path fill-rule="evenodd" clip-rule="evenodd" d="M13.0051 8.75391H11.9356L20.7551 17.5734V12.5039C20.7551 11.5374 19.9715 10.754 19.0051 10.7539H17.8283C17.7466 10.754 17.6746 10.7938 17.6291 10.8545C17.3711 10.2098 16.7419 9.75395 16.0051 9.75391H14.7375C14.688 9.75397 14.6416 9.76806 14.6027 9.79297C14.3301 9.18114 13.7182 8.75394 13.0051 8.75391ZM20.4443 19.8926L8.25509 7.39978V13.4258L6.36837 11.6582C6.36171 11.652 6.35418 11.6461 6.34688 11.6406C5.42986 10.9532 4.1193 11.2097 3.5295 12.1924C3.15042 12.8242 3.16419 13.6174 3.56368 14.2363L7.70333 20.7158C8.11676 21.3627 8.8321 21.7539 9.59981 21.7539H17.5051C18.8031 21.7539 19.9235 20.9929 20.4443 19.8926ZM11.7551 8.5734V4.00391C11.7551 3.03744 10.9715 2.25396 10.0051 2.25391C9.03859 2.25391 8.25509 3.03741 8.25509 4.00391V5.0734L11.7551 8.5734Z" fill="currentColor" />
    <path d="M1.29724 1.2968C1.68777 0.906275 2.32078 0.906275 2.7113 1.2968L22.7113 21.2968C23.1018 21.6873 23.1018 22.3203 22.7113 22.7109C22.3208 23.1014 21.6878 23.1014 21.2972 22.7109L1.29724 2.71086C0.906718 2.32034 0.906718 1.68732 1.29724 1.2968Z" fill="currentColor" />
</svg>