<svg xmlns="http://www.w3.org/2000/svg" width="24" height="24" viewBox="0 0 24 24" fill="none">
    <path d="M20 4.25012C21.5188 4.25012 22.75 5.48134 22.75 7.00012V17.0001C22.75 18.5189 21.5188 19.7501 20 19.7501H4C2.48122 19.7501 1.25 18.5189 1.25 17.0001V7.00012C1.25 5.48134 2.48122 4.25012 4 4.25012H20ZM2.75 17.0001C2.75 17.6905 3.30964 18.2501 4 18.2501H5.16211C4.88036 17.0577 3.94242 16.1198 2.75 15.838V17.0001ZM21.25 15.838C20.0576 16.1198 19.1196 17.0577 18.8379 18.2501H20C20.6904 18.2501 21.25 17.6905 21.25 17.0001V15.838ZM16 13.0001C15.4477 13.0001 15 13.4478 15 14.0001C15 14.5524 15.4477 15.0001 16 15.0001C16.5523 15.0001 17 14.5524 17 14.0001C17 13.4478 16.5523 13.0001 16 13.0001ZM6 11.0001C5.44771 11.0001 5 11.4478 5 12.0001C5 12.5524 5.44772 13.0001 6 13.0001C6.55228 13.0001 7 12.5524 7 12.0001C7 11.4478 6.55228 11.0001 6 11.0001ZM13 11.0001C12.4477 11.0001 12 11.4478 12 12.0001C12 12.5524 12.4477 13.0001 13 13.0001C13.5523 13.0001 14 12.5524 14 12.0001C14 11.4478 13.5523 11.0001 13 11.0001ZM16 9.00012C15.4477 9.00012 15 9.44784 15 10.0001C15 10.5524 15.4477 11.0001 16 11.0001C16.5523 11.0001 17 10.5524 17 10.0001C17 9.44784 16.5523 9.00012 16 9.00012ZM4 5.75012C3.30964 5.75012 2.75 6.30977 2.75 7.00012V8.16125C3.94232 7.87944 4.88037 6.94247 5.16211 5.75012H4ZM18.8379 5.75012C19.1196 6.94247 20.0577 7.87944 21.25 8.16125V7.00012C21.25 6.30977 20.6904 5.75012 20 5.75012H18.8379Z" fill="currentColor" />
</svg>