<svg xmlns="http://www.w3.org/2000/svg" width="24" height="24" viewBox="0 0 24 24" fill="none">
    <path fill-rule="evenodd" clip-rule="evenodd" d="M3.00378 14.0039C3.00378 13.4516 3.4515 13.0039 4.00378 13.0039H15.0038C15.5561 13.0039 16.0038 13.4516 16.0038 14.0039C16.0038 14.5562 15.5561 15.0039 15.0038 15.0039H4.00378C3.4515 15.0039 3.00378 14.5562 3.00378 14.0039Z" fill="currentColor" />
    <path d="M8.00378 8.50391C8.00378 6.01862 10.0185 4.00391 12.5038 4.00391C14.9891 4.00391 17.0038 6.01862 17.0038 8.50391C17.0038 9.05619 17.4515 9.50391 18.0038 9.50391C18.5561 9.50391 19.0038 9.05619 19.0038 8.50391C19.0038 4.91406 16.0936 2.00391 12.5038 2.00391C8.91393 2.00391 6.00378 4.91406 6.00378 8.50391C6.00378 10.9827 7.39136 13.1375 9.43216 14.2338C8.21996 16.8578 6.56976 19.1696 4.581 20.0977C4.15615 20.296 3.92608 20.7628 4.02762 21.2205C4.12916 21.6782 4.53505 22.0039 5.00388 22.0039H16.8789L16.8872 22.0038C16.9144 22.0032 16.9734 22.0021 17.0043 22.0007C17.0733 21.9978 17.1683 21.9922 17.2843 21.9814C17.5153 21.9598 17.8347 21.9171 18.1999 21.8319C18.9162 21.6648 19.8848 21.3162 20.6862 20.5683C21.09 20.1915 21.1118 19.5587 20.7349 19.1549C20.3581 18.7512 19.7253 18.7294 19.3216 19.1062C18.8729 19.5249 18.2791 19.7597 17.7454 19.8842C17.4856 19.9449 17.2581 19.9751 17.0985 19.99C17.0191 19.9974 16.9162 20.0023 16.8778 20.0039L8.02398 20.0039C9.41611 18.5704 10.508 16.7075 11.3277 14.8978C11.7092 14.9675 12.1022 15.0039 12.5038 15.0039C13.0561 15.0039 13.5038 14.5562 13.5038 14.0039C13.5038 13.4516 13.0561 13.0039 12.5038 13.0039C10.0185 13.0039 8.00378 10.9892 8.00378 8.50391Z" fill="currentColor" />
</svg>