<svg xmlns="http://www.w3.org/2000/svg" width="24" height="24" viewBox="0 0 24 24" fill="none">
    <path fill-rule="evenodd" clip-rule="evenodd" d="M16 1.25C16.9665 1.25 17.75 2.0335 17.75 3V6.25H20C21.5188 6.25 22.75 7.48122 22.75 9V16C22.75 16.9665 21.9665 17.75 21 17.75H17.75V21C17.75 21.9665 16.9665 22.75 16 22.75H8C7.0335 22.75 6.25 21.9665 6.25 21V17.75H3C2.0335 17.75 1.25 16.9665 1.25 16V9C1.25 7.48122 2.48122 6.25 4 6.25H6.25V3C6.25 2.0335 7.0335 1.25 8 1.25H16ZM7.75 21C7.75 21.1381 7.86193 21.25 8 21.25H16C16.1381 21.25 16.25 21.1381 16.25 21V14.75H7.75V21ZM18.75 9.25C18.1977 9.25 17.75 9.69772 17.75 10.25C17.75 10.8023 18.1977 11.25 18.75 11.25C19.3023 11.25 19.75 10.8023 19.75 10.25C19.75 9.73232 19.3567 9.30621 18.8525 9.25488L18.75 9.25ZM8 2.75C7.86193 2.75 7.75 2.86193 7.75 3V6.25H16.25V3C16.25 2.86193 16.1381 2.75 16 2.75H8Z" fill="currentColor" />
</svg>