<svg xmlns="http://www.w3.org/2000/svg" width="24" height="24" viewBox="0 0 24 24" fill="none">
    <path d="M6.24994 3.5C6.24994 2.25736 7.2573 1.25 8.49994 1.25H15.4999C16.7426 1.25 17.7499 2.25736 17.7499 3.5V6.25H6.24994V3.5Z" fill="currentColor" />
    <path d="M21.043 16.0429C21.4335 15.6524 22.0665 15.6524 22.457 16.0429C22.8475 16.4334 22.8475 17.0664 22.457 17.457L20.664 19.2499L22.457 21.0429C22.8475 21.4334 22.8475 22.0664 22.457 22.457C22.0665 22.8475 21.4335 22.8475 21.043 22.457L19.25 20.664L17.457 22.457C17.0665 22.8475 16.4335 22.8475 16.043 22.457C15.6524 22.0664 15.6524 21.4334 16.043 21.0429L17.8359 19.2499L16.043 17.457C15.6524 17.0664 15.6524 16.4334 16.043 16.0429C16.4335 15.6524 17.0665 15.6524 17.457 16.0429L19.25 17.8359L21.043 16.0429Z" fill="currentColor" />
    <path d="M18.9999 7.25C21.071 7.25 22.7499 8.92893 22.7499 11V14.7354C21.9743 14.3503 21.0233 14.4394 20.33 15.0049L20.1591 15.1592L19.2499 16.0684L18.3408 15.1592C17.4621 14.2806 16.0378 14.2805 15.1591 15.1592C14.7199 15.5985 14.5009 16.1743 14.5009 16.75H7.99994V19.75C7.99994 20.3023 8.44765 20.75 8.99994 20.75H14.7363C14.424 21.3787 14.4239 22.1213 14.7363 22.75H8.99994C7.34308 22.75 5.99994 21.4069 5.99994 19.75V18.75H2.99994C2.03344 18.75 1.24994 17.9665 1.24994 17V11C1.24994 8.92893 2.92887 7.25 4.99994 7.25H18.9999Z" fill="currentColor" />
</svg>