<svg xmlns="http://www.w3.org/2000/svg" width="24" height="24" viewBox="0 0 24 24" fill="none">
    <path d="M21.25 4.6748C21.2499 3.05953 19.9405 1.75011 18.3252 1.75H4.6748C3.05953 1.75011 1.75011 3.05953 1.75 4.6748V18.3252C1.75011 19.9405 3.05953 21.2499 4.6748 21.25H10.5249C11.0634 21.25 11.5 20.8134 11.5 20.2749C11.5 19.7364 11.0634 19.2998 10.5249 19.2998H4.67383C4.1356 19.2996 3.69933 18.8635 3.69922 18.3252V7.5H19.2988V10.5244C19.2988 11.0632 19.7356 11.5 20.2744 11.5C20.8132 11.5 21.25 11.0632 21.25 10.5244V4.6748Z" fill="currentColor" />
    <path d="M7.5 14.3984C8.05228 14.3984 8.5 14.8462 8.5 15.3984C8.5 15.9507 8.05228 16.3984 7.5 16.3984H6.5C5.94772 16.3984 5.5 15.9507 5.5 15.3984C5.5 14.8462 5.94772 14.3984 6.5 14.3984H7.5ZM13.5 14.3984C14.0523 14.3984 14.5 14.8462 14.5 15.3984C14.5 15.9507 14.0523 16.3984 13.5 16.3984H11.5C10.9477 16.3984 10.5 15.9507 10.5 15.3984C10.5 14.8462 10.9477 14.3984 11.5 14.3984H13.5Z" fill="currentColor" />
    <path d="M7.5 10.3984C8.05228 10.3984 8.5 10.8462 8.5 11.3984C8.5 11.9507 8.05228 12.3984 7.5 12.3984H6.5C5.94772 12.3984 5.5 11.9507 5.5 11.3984C5.5 10.8462 5.94772 10.3984 6.5 10.3984H7.5ZM16.5 10.3984C17.0523 10.3984 17.5 10.8462 17.5 11.3984C17.5 11.9507 17.0523 12.3984 16.5 12.3984H11.5C10.9477 12.3984 10.5 11.9507 10.5 11.3984C10.5 10.8462 10.9477 10.3984 11.5 10.3984H16.5Z" fill="currentColor" />
    <path d="M13.75 20.0967V21.75C13.75 22.0261 13.9739 22.25 14.25 22.25H15.9033C16.2253 22.25 16.5342 22.1221 16.7619 21.8943L21.9548 16.7014C22.1438 16.5124 22.25 16.2561 22.25 15.9888C22.25 15.7216 22.1438 15.4653 21.9548 15.2763L20.7237 14.0452C20.5347 13.8562 20.2784 13.75 20.0112 13.75C19.7439 13.75 19.4876 13.8562 19.2986 14.0452L14.1057 19.2381C13.8779 19.4658 13.75 19.7747 13.75 20.0967Z" fill="currentColor" />
</svg>