<svg xmlns="http://www.w3.org/2000/svg" width="24" height="24" viewBox="0 0 24 24" fill="none">
    <path d="M19.3751 17.875C19.3751 17.0466 18.7035 16.375 17.8751 16.375C17.0466 16.375 16.3751 17.0466 16.3751 17.875C16.3751 18.7035 17.0466 19.375 17.8751 19.375C18.7035 19.375 19.3751 18.7035 19.3751 17.875ZM21.3751 17.875C21.3751 18.4777 21.2214 19.044 20.9532 19.5391L22.0821 20.668C22.4726 21.0585 22.4726 21.6915 22.0821 22.0821C21.6916 22.4726 21.0586 22.4726 20.668 22.0821L19.5391 20.9532C19.044 21.2214 18.4777 21.375 17.8751 21.375C15.9421 21.375 14.3751 19.808 14.3751 17.875C14.3751 15.942 15.9421 14.375 17.8751 14.375C19.8081 14.375 21.3751 15.942 21.3751 17.875Z" fill="currentColor" />
    <path d="M21.3751 4.79984C21.375 3.18456 20.0655 1.87514 18.4503 1.87503H4.79987C3.18459 1.87514 1.87517 3.18456 1.87506 4.79984V18.4502C1.87517 20.0655 3.18459 21.3749 4.79987 21.375H12.65C13.1885 21.375 13.6251 20.9385 13.6251 20.3999C13.6251 19.8614 13.1885 19.4248 12.65 19.4248H4.79889C4.26066 19.4246 3.82439 18.9885 3.82428 18.4502V7.62503H19.4239V12.6494C19.4239 13.1882 19.8607 13.625 20.3995 13.625C20.9383 13.625 21.3751 13.1882 21.3751 12.6494V4.79984Z" fill="currentColor" />
    <path d="M7.62506 14.5235C8.17735 14.5235 8.62506 14.9712 8.62506 15.5235C8.62506 16.0758 8.17735 16.5235 7.62506 16.5235H6.62506C6.07278 16.5235 5.62506 16.0758 5.62506 15.5235C5.62506 14.9712 6.07278 14.5235 6.62506 14.5235H7.62506ZM12.6251 14.5235C13.1773 14.5235 13.6251 14.9712 13.6251 15.5235C13.6251 16.0758 13.1773 16.5235 12.6251 16.5235H11.6251C11.0728 16.5235 10.6251 16.0758 10.6251 15.5235C10.6251 14.9712 11.0728 14.5235 11.6251 14.5235H12.6251Z" fill="currentColor" />
    <path d="M7.62506 10.5235C8.17735 10.5235 8.62506 10.9712 8.62506 11.5235C8.62506 12.0758 8.17735 12.5235 7.62506 12.5235H6.62506C6.07278 12.5235 5.62506 12.0758 5.62506 11.5235C5.62506 10.9712 6.07278 10.5235 6.62506 10.5235H7.62506ZM16.6251 10.5235C17.1773 10.5235 17.6251 10.9712 17.6251 11.5235C17.6251 12.0758 17.1773 12.5235 16.6251 12.5235H11.6251C11.0728 12.5235 10.6251 12.0758 10.6251 11.5235C10.6251 10.9712 11.0728 10.5235 11.6251 10.5235H16.6251Z" fill="currentColor" />
</svg>