<svg xmlns="http://www.w3.org/2000/svg" width="24" height="24" viewBox="0 0 24 24" fill="none">
    <path fill-rule="evenodd" clip-rule="evenodd" d="M18.998 7.25C20.5168 7.25 21.748 8.48122 21.748 10V13C21.748 14.5188 20.5168 15.75 18.998 15.75H11.8496C11.5182 15.75 11.25 16.0182 11.25 16.3496C11.25 16.681 11.5182 16.9492 11.8496 16.9492H16.75V19C16.75 20.5188 15.5188 21.75 14 21.75H10C8.48122 21.75 7.25 20.5188 7.25 19V13.5C7.25 13.0029 7.65333 12.5996 8.15039 12.5996H15.8496C17.0094 12.5996 17.9492 11.6598 17.9492 10.5V7.25H18.998ZM13.5 18.5C12.9477 18.5 12.5 18.9477 12.5 19.5C12.5 20.0523 12.9477 20.5 13.5 20.5C14.0521 20.4997 14.5 20.0521 14.5 19.5C14.5 18.9479 14.0521 18.5003 13.5 18.5Z" fill="currentColor" />
    <path fill-rule="evenodd" clip-rule="evenodd" d="M14 2.25C15.5188 2.25 16.75 3.48122 16.75 5V10.5C16.75 10.9971 16.3467 11.4004 15.8496 11.4004H8.15039C6.99059 11.4004 6.05078 12.3402 6.05078 13.5V16.75H4.99805C3.47926 16.75 2.24805 15.5188 2.24805 14V11C2.24805 9.48122 3.47926 8.25 4.99805 8.25H12.1504C12.4818 8.25 12.75 7.98176 12.75 7.65039C12.75 7.31902 12.4818 7.05078 12.1504 7.05078H7.25V5C7.25 3.48122 8.48122 2.25 10 2.25H14ZM10.5 3.5C9.94771 3.5 9.5 3.94772 9.5 4.5C9.5 5.05228 9.94772 5.5 10.5 5.5C11.0523 5.5 11.5 5.05229 11.5 4.5C11.5 3.94772 11.0523 3.5 10.5 3.5Z" fill="currentColor" />
</svg>