<svg xmlns="http://www.w3.org/2000/svg" width="24" height="24" viewBox="0 0 24 24" fill="none">
    <path d="M11.2046 8.7524H11.7859C12.2751 8.75241 12.7572 8.82015 13.2206 8.94905C13.2453 8.95592 13.27 8.96296 13.2946 8.97017C13.6687 8.4769 14.129 8.0612 14.6479 7.74073C15.073 7.4782 15.5374 7.27959 16.0262 7.1546C15.784 6.45874 15.4118 5.81909 14.9333 5.26883C14.5465 4.82396 14.0902 4.43751 13.5771 4.12702C13.4498 4.04997 13.3189 3.97759 13.1848 3.91016L12.9759 3.80567C11.8185 3.22405 10.4571 4.06943 10.4569 5.37012V5.91016C10.4569 6.91827 10.7202 7.89586 11.2046 8.7524Z" fill="currentColor" />
    <path fill-rule="evenodd" clip-rule="evenodd" d="M13.9766 2.91691C14.0585 2.96196 14.1393 3.00854 14.2185 3.05643C14.8432 3.43446 15.3991 3.90458 15.87 4.44607C16.4523 5.11575 16.905 5.89471 17.1999 6.74197C17.2294 6.82671 17.2495 6.91364 17.2603 7.00129C17.3103 7.00141 17.3604 7.0023 17.4106 7.00395C17.5396 7.00819 17.6692 7.0175 17.7993 7.03201L18.5541 7.11697C18.6687 7.12978 18.7825 7.14653 18.8951 7.16712C19.037 5.45556 18.3262 3.7861 16.9852 2.63357L16.7618 2.44217C15.9088 1.70923 14.514 1.91945 13.9766 2.91691Z" fill="currentColor" />
    <path d="M3.787 18.9652C3.53702 18.3679 3.36708 17.7285 3.29069 17.0605C3.26037 16.7955 3.24478 16.5259 3.24477 16.2526V15.7526C3.24477 15.6668 3.2463 15.5814 3.24935 15.4964C3.27319 14.8302 3.38966 14.1877 3.58618 13.5815C2.39081 13.876 1.50391 14.9602 1.50391 16.2526C1.50391 17.6164 2.4915 18.7484 3.787 18.9652Z" fill="currentColor" />
    <path fill-rule="evenodd" clip-rule="evenodd" d="M4.48822 16.2531V15.7531C4.48822 12.5775 7.04914 10.0031 10.2082 10.0031H11.7859C12.5035 10.0031 13.2016 10.1907 13.8162 10.5382C14.4543 9.02337 16.0128 8.09133 17.6622 8.27555L18.4171 8.35954C19.4703 8.4773 20.424 9.03967 21.04 9.90641L21.994 11.2502C22.627 12.141 22.6746 13.3241 22.1145 14.2629L21.8726 14.6681C21.3781 15.4962 20.4873 16.0031 19.5265 16.0031H18.7046L18.1859 17.5646C19.1727 17.7993 19.9073 18.6894 19.9073 19.7531C19.9071 20.9956 18.9051 22.0031 17.669 22.0031H13.8716C14.2296 21.562 14.5102 21.055 14.6929 20.5031C14.8489 20.0315 14.9334 19.5271 14.9334 19.0028C14.9334 16.3794 12.8179 14.2528 10.2082 14.2528C9.79615 14.2528 9.46212 14.5886 9.46212 15.0028C9.46212 15.417 9.79615 15.7528 10.2082 15.7528C11.9938 15.7528 13.4412 17.2079 13.4412 19.0028C13.4412 19.544 13.3096 20.0543 13.0769 20.5031C12.7284 21.175 12.1531 21.7092 11.4531 22.0031H10.2082C7.04925 22.0031 4.48839 19.4286 4.48822 16.2531ZM18.1761 10.7528C18.7255 10.7528 19.1709 11.2005 19.1709 11.7528C19.1709 12.3051 18.7255 12.7528 18.1761 12.7528C17.6267 12.7528 17.1717 12.3051 17.1717 11.7528C17.1717 11.2005 17.6267 10.7528 18.1761 10.7528Z" fill="currentColor" />
</svg>