<svg xmlns="http://www.w3.org/2000/svg" width="24" height="24" viewBox="0 0 24 24" fill="none">
    <path fill-rule="evenodd" clip-rule="evenodd" d="M13.8616 2.11456C14.1457 2.58814 13.9921 3.2024 13.5186 3.48655L8.51855 6.48655C8.04497 6.7707 7.43071 6.61713 7.14656 6.14355C6.86242 5.66997 7.01598 5.05571 7.48956 4.77156L12.4896 1.77156C12.9631 1.48742 13.5774 1.64098 13.8616 2.11456Z" fill="currentColor" />
    <path d="M19.0039 4.87891C21.075 4.87891 22.7539 6.55784 22.7539 8.62891V18.6289C22.7539 20.7 21.075 22.3789 19.0039 22.3789H5.00391C2.93284 22.3789 1.25391 20.7 1.25391 18.6289V8.62891C1.25391 6.55784 2.93284 4.87891 5.00391 4.87891H19.0039ZM5.50391 14.6289C4.95162 14.6289 4.50391 15.0766 4.50391 15.6289C4.50391 16.1812 4.95162 16.6289 5.50391 16.6289H7.50391C8.05619 16.6289 8.50391 16.1812 8.50391 15.6289C8.50391 15.0766 8.05619 14.6289 7.50391 14.6289H5.50391ZM14.3359 10.4609C12.6791 10.4609 11.3359 11.8041 11.3359 13.4609C11.3359 15.1178 12.6791 16.4609 14.3359 16.4609C15.9928 16.4609 17.3359 15.1178 17.3359 13.4609C17.3359 11.8041 15.9928 10.4609 14.3359 10.4609ZM5.50391 10.6289C4.95162 10.6289 4.50391 11.0766 4.50391 11.6289C4.50391 12.1812 4.95162 12.6289 5.50391 12.6289H7.50391C8.05619 12.6289 8.50391 12.1812 8.50391 11.6289C8.50391 11.0766 8.05619 10.6289 7.50391 10.6289H5.50391Z" fill="currentColor" />
</svg>