<svg xmlns="http://www.w3.org/2000/svg" width="24" height="26" viewBox="0 0 24 26" fill="none">
    <path fill-rule="evenodd" clip-rule="evenodd" d="M16.6836 0.0516221C17.2074 -0.122993 17.7735 0.159702 17.9482 0.683458C18.1228 1.20728 17.8401 1.77335 17.3164 1.94811L11.1611 3.99986H20C21.5188 3.99986 22.75 5.23108 22.75 6.74986V18.7499C22.75 20.2686 21.5188 21.4999 20 21.4999H4C2.48122 21.4999 1.25 20.2686 1.25 18.7499V6.74986C1.25 5.23108 2.48122 3.99986 4 3.99986H4.83887L16.6836 0.0516221ZM18.3291 10.2499C16.9485 7.85908 13.891 7.04037 11.5 8.42076C9.1092 9.80141 8.29046 12.8589 9.6709 15.2499C11.0516 17.6405 14.1091 18.4594 16.5 17.079C18.8907 15.6983 19.7093 12.6408 18.3291 10.2499ZM16.9463 12.203C17.1716 13.4173 16.6304 14.6947 15.5 15.3475C14.3691 16.0004 12.9918 15.83 12.0527 15.0272L16.9463 12.203ZM12.5 10.1522C13.6305 9.49955 15.0073 9.6694 15.9463 10.4715L11.0527 13.2958C10.8279 12.0817 11.3698 10.8048 12.5 10.1522ZM6 7.74986C5.44771 7.74986 5 8.19758 5 8.74986C5 9.30215 5.44772 9.74986 6 9.74986C6.55228 9.74986 7 9.30215 7 8.74986C7 8.23219 6.60667 7.80608 6.10254 7.75475L6 7.74986Z" fill="currentColor" />
</svg>