<svg xmlns="http://www.w3.org/2000/svg" width="24" height="24" viewBox="0 0 24 24" fill="none">
    <path d="M10.3732 14.1455C10.2009 14.0459 9.99609 14.018 9.80383 14.0694C9.61157 14.1208 9.44732 14.2467 9.34778 14.419L6.34778 19.6162C6.14085 19.9747 6.26306 20.4333 6.62122 20.6407C8.20389 21.5569 10.042 22.0811 12.0001 22.0811C13.9543 22.0811 15.7887 21.5584 17.3693 20.6455C17.7279 20.4384 17.8507 19.9798 17.6437 19.6211L14.6437 14.4248C14.4367 14.0664 13.9779 13.9428 13.6193 14.1494C13.1432 14.4237 12.5912 14.5811 12.0001 14.5811C11.4061 14.5811 10.8509 14.4224 10.3732 14.1455Z" fill="currentColor" />
    <path d="M7.64172 2.29788C7.54214 2.12561 7.37793 1.99962 7.18567 1.94828C6.99342 1.89708 6.78847 1.92467 6.61633 2.02445C3.40968 3.88322 1.25012 7.35455 1.25012 11.3311C1.2502 11.7452 1.58595 12.0811 2.00012 12.0811H8.00012C8.41429 12.0811 8.75005 11.7452 8.75012 11.3311C8.75012 10.1314 9.39998 9.08247 10.3702 8.51859C10.7275 8.31084 10.8493 7.85309 10.6427 7.49515L7.64172 2.29788Z" fill="currentColor" />
    <path d="M17.3741 2.01859C17.2019 1.91903 16.997 1.89197 16.8048 1.94339C16.6607 1.98196 16.5327 2.0625 16.4357 2.17288L16.3497 2.293L13.3488 7.49027C13.1418 7.84888 13.2647 8.30755 13.6232 8.51468C14.5973 9.07756 15.2501 10.1285 15.2501 11.3311C15.2502 11.7452 15.586 12.0811 16.0001 12.0811H22.0001C22.4143 12.0811 22.75 11.7452 22.7501 11.3311C22.7501 7.35054 20.5862 3.87598 17.3741 2.01859Z" fill="currentColor" />
    <path d="M13.5001 11.3301C13.5001 12.1586 12.8285 12.8301 12.0001 12.8301C11.1717 12.8301 10.5001 12.1586 10.5001 11.3301C10.5001 10.5017 11.1717 9.83014 12.0001 9.83014C12.8285 9.83014 13.5001 10.5017 13.5001 11.3301Z" fill="currentColor" />
</svg>