<svg xmlns="http://www.w3.org/2000/svg" width="24" height="24" viewBox="0 0 24 24" fill="none">
    <path fill-rule="evenodd" clip-rule="evenodd" d="M16.6279 1.07206C17.1407 0.866945 17.7226 1.11592 17.9277 1.6287C18.1328 2.14136 17.8836 2.72327 17.3711 2.9285L11.6426 5.24979H20C21.5188 5.24979 22.75 6.48101 22.75 7.99979V17.9998C22.75 19.5186 21.5188 20.7498 20 20.7498H19V21.9998C19 22.5521 18.5523 22.9998 18 22.9998C17.4477 22.9998 17 22.5521 17 21.9998V20.7498H7V21.9998C7 22.5521 6.55228 22.9998 6 22.9998C5.44772 22.9998 5 22.5521 5 21.9998V20.7498H4C2.48122 20.7498 1.25 19.5186 1.25 17.9998V7.99979C1.25 6.48101 2.48122 5.24979 4 5.24979H6.31836L16.6279 1.07206ZM15.5 9.49979C13.567 9.49979 12 11.0668 12 12.9998C12 14.9328 13.567 16.4998 15.5 16.4998C17.433 16.4998 19 14.9328 19 12.9998C19 11.0668 17.433 9.49979 15.5 9.49979ZM7 13.9998C6.44771 13.9998 6 14.4475 6 14.9998C6 15.5521 6.44772 15.9998 7 15.9998C7.55228 15.9998 8 15.5521 8 14.9998C8 14.4821 7.60667 14.056 7.10254 14.0047L7 13.9998ZM6 9.99979C5.44772 9.99979 5 10.4475 5 10.9998C5 11.5521 5.44772 11.9998 6 11.9998H9C9.55228 11.9998 10 11.5521 10 10.9998C10 10.4475 9.55228 9.99979 9 9.99979H6Z" fill="currentColor" />
</svg>