<svg xmlns="http://www.w3.org/2000/svg" width="24" height="24" viewBox="0 0 24 24" fill="none">
    <path fill-rule="evenodd" clip-rule="evenodd" d="M15.9268 22.7488C17.4454 22.7486 18.6768 21.5174 18.6768 19.9988V15.2566C20.2231 13.2665 20.8519 11.527 20.7374 9.96069C20.6184 8.33396 19.7123 7.07527 18.6241 6.073C17.5456 5.07982 16.1957 4.25755 15.0713 3.53979C14.4962 3.17262 13.9789 2.83294 13.5479 2.49878C13.1129 2.16142 12.8074 1.86093 12.6251 1.58569C12.4862 1.37611 12.2515 1.24984 12.0001 1.24976C11.7802 1.24979 11.5731 1.34622 11.4317 1.5105L11.3751 1.58569C11.1926 1.86097 10.8872 2.16143 10.4522 2.49878C10.0213 2.83295 9.5039 3.17262 8.92877 3.53979C7.80442 4.25757 6.45448 5.07979 5.37603 6.073C4.2878 7.07528 3.38298 8.33399 3.26373 9.96069C3.14893 11.5272 3.77618 13.2671 5.32232 15.2576L5.32232 19.9998C5.32246 21.5184 6.55367 22.7497 8.07232 22.7498L15.9268 22.7488ZM12.1924 13.7498C10.2914 13.7496 8.75006 12.2084 8.75006 10.3074C8.75009 9.05441 9.42043 7.95835 10.418 7.35718C10.7727 7.14365 11.2336 7.25844 11.4473 7.61304C11.6608 7.96778 11.5461 8.42862 11.1915 8.64233C10.6258 8.98344 10.2501 9.602 10.2501 10.3074C10.2501 11.38 11.1198 12.2496 12.1924 12.2498C12.8979 12.2497 13.5164 11.8741 13.8575 11.3083C14.0712 10.9537 14.5321 10.8391 14.8868 11.0525C15.2415 11.2662 15.3562 11.727 15.1426 12.0818C14.5415 13.0794 13.4454 13.7497 12.1924 13.7498ZM14.0001 9.49976C13.4479 9.49964 13.0001 9.05197 13.0001 8.49976C13.0001 7.94755 13.4479 7.49988 14.0001 7.49976L14.1026 7.50464C14.6067 7.55597 15.0001 7.98208 15.0001 8.49976C15.0001 9.05204 14.5523 9.49976 14.0001 9.49976ZM8.07232 21.2498C7.38215 21.2496 6.8224 20.69 6.82232 19.9998V18.7703L10.001 16.4998L12.001 18.4998L14.501 16.4998L17.1768 18.7302V19.9988C17.1768 20.6891 16.6171 21.2487 15.9268 21.2488L8.07232 21.2498Z" fill="currentColor" />
</svg>