<svg xmlns="http://www.w3.org/2000/svg" width="24" height="24" viewBox="0 0 24 24" fill="none">
    <path d="M1.12897 17.2539C1.12897 15.8732 2.24826 14.7539 3.62897 14.7539H8.12897C8.68125 14.7539 9.12897 15.2016 9.12897 15.7539C9.12897 16.3062 8.68125 16.7539 8.12897 16.7539H3.62897C3.35282 16.7539 3.12897 16.9778 3.12897 17.2539C3.12897 17.53 3.35282 17.7539 3.62897 17.7539H14.129C14.6813 17.7539 15.129 18.2016 15.129 18.7539C15.129 19.3062 14.6813 19.7539 14.129 19.7539H3.62897C2.24826 19.7539 1.12897 18.6346 1.12897 17.2539Z" fill="currentColor" />
    <path fill-rule="evenodd" clip-rule="evenodd" d="M10.5975 15.2539C10.618 15.3338 10.629 15.4175 10.629 15.5039V16.7539H7.12897C3.95336 16.7539 1.37902 14.1795 1.37897 11.0039V10.6679C1.37897 7.20943 4.41009 4.5331 7.84186 4.96187L11.6964 5.4443C12.4704 5.54107 13.2312 5.71219 13.968 5.95425C14.1141 5.7304 14.2873 5.51887 14.4874 5.32418C15.9542 3.89713 18.3243 3.89717 19.7911 5.32418C21.1223 6.61929 21.1127 8.56908 20.1379 9.96885C20.987 10.8945 21.7352 11.959 22.3712 12.9765L22.4922 13.1699C22.7449 13.5743 22.8789 14.0416 22.879 14.5185V15.0039C22.8789 15.9703 22.0954 16.7539 21.129 16.7539H12.629V15.5039C12.629 15.4197 12.6255 15.3363 12.6187 15.2539C12.5244 14.111 11.7892 13.1501 10.7735 12.7304C11 12.2872 11.129 11.7858 11.129 11.2539C11.129 9.45894 9.67389 8.00387 7.87897 8.00387H7.12897C6.57668 8.00387 6.12897 8.45158 6.12897 9.00387C6.12897 9.55615 6.57668 10.0039 7.12897 10.0039H7.87897C8.56932 10.0039 9.12897 10.5635 9.12897 11.2539C9.12897 11.9442 8.56932 12.5039 7.87897 12.5039H7.12897C6.57668 12.5039 6.12897 12.9516 6.12897 13.5039C6.12897 14.0562 6.57668 14.5039 7.12897 14.5039H9.62897C10.0949 14.5039 10.4865 14.8226 10.5975 15.2539ZM17.1387 11.0039C17.691 11.0039 18.1387 11.4516 18.1387 12.0039C18.1387 12.5562 17.691 13.0039 17.1387 13.0039C16.5864 13.0039 16.129 12.5562 16.129 12.0039C16.129 11.4516 16.5864 11.0039 17.1387 11.0039Z" fill="currentColor" />
</svg>