<svg xmlns="http://www.w3.org/2000/svg" width="24" height="24" viewBox="0 0 24 24" fill="none">
    <path d="M17.2501 6.75V17.25H6.75012V6.75H17.2501Z" fill="currentColor" />
    <path fill-rule="evenodd" clip-rule="evenodd" d="M16.0001 1.25C17.5189 1.25 18.7501 2.48122 18.7501 4V5.25H20.0001C21.5189 5.25 22.7501 6.48122 22.7501 8V16C22.7501 17.5188 21.5189 18.75 20.0001 18.75H18.7501V20C18.7501 21.5188 17.5189 22.75 16.0001 22.75H8.00012C6.48134 22.75 5.25012 21.5188 5.25012 20V18.75H4.00012C2.48134 18.75 1.25012 17.5188 1.25012 16V8C1.25012 6.48122 2.48134 5.25 4.00012 5.25H5.25012V4C5.25012 2.48122 6.48134 1.25 8.00012 1.25H16.0001ZM5.25012 5.25V18.75H18.7501V5.25H5.25012Z" fill="currentColor" />
</svg>