<svg xmlns="http://www.w3.org/2000/svg" width="24" height="24" viewBox="0 0 24 24" fill="none">
    <path fill-rule="evenodd" clip-rule="evenodd" d="M19.6652 1.32892C19.8976 1.21288 20.1737 1.22554 20.3947 1.36212C20.6155 1.49882 20.7501 1.74003 20.7501 1.99982V21.9998C20.7501 22.2596 20.6155 22.5009 20.3947 22.6375C20.1737 22.774 19.8975 22.7867 19.6652 22.6707L17.0333 21.3543L14.8859 22.6434C14.6485 22.7856 14.3517 22.7856 14.1144 22.6434L12.0001 21.3748L9.88586 22.6434C9.64854 22.7856 9.35171 22.7856 9.11438 22.6434L6.96594 21.3543L4.33508 22.6707C4.10272 22.7867 3.82654 22.774 3.60559 22.6375C3.38471 22.5009 3.25019 22.2596 3.25012 21.9998V1.99982C3.25012 1.74003 3.38471 1.49882 3.60559 1.36212C3.82658 1.22554 4.10267 1.21288 4.33508 1.32892L6.96594 2.64435L9.11438 1.35626L9.20618 1.31036C9.42521 1.21694 9.67813 1.23175 9.88586 1.35626L12.0001 2.62482L14.1144 1.35626L14.2062 1.31036C14.4252 1.21694 14.6781 1.23175 14.8859 1.35626L17.0333 2.64435L19.6652 1.32892ZM15.1603 7.26739C14.7557 7.17915 14.3561 7.43518 14.2677 7.83966C14.1256 8.49086 13.4754 9.74476 12.0001 10.6385C10.5249 9.74475 9.87467 8.49085 9.73254 7.83966C9.6441 7.43517 9.24454 7.17913 8.83997 7.26739C8.43553 7.35589 8.17944 7.75543 8.2677 8.15997C8.49886 9.21869 9.40525 10.8313 11.2501 11.9383V12.9324H9.50012C9.08599 12.9325 8.75019 13.2683 8.75012 13.6824C8.75021 14.0965 9.086 14.4324 9.50012 14.4324H11.2501V16.9998C11.2502 17.4139 11.586 17.7498 12.0001 17.7498C12.4143 17.7498 12.75 17.414 12.7501 16.9998V14.4324H14.5001C14.9143 14.4324 15.25 14.0966 15.2501 13.6824C15.2501 13.2683 14.9143 12.9324 14.5001 12.9324H12.7501V11.9383C14.595 10.8313 15.5014 9.21869 15.7325 8.15997C15.8208 7.75539 15.5648 7.35584 15.1603 7.26739Z" fill="currentColor" />
</svg>