<svg xmlns="http://www.w3.org/2000/svg" width="24" height="24" viewBox="0 0 24 24" fill="none">
    <path d="M14.21 1.31427C14.429 1.22085 14.6819 1.23565 14.8896 1.36017L17.0371 2.64825L19.6689 1.33282C19.9014 1.21679 20.1774 1.22945 20.3984 1.36603C20.6194 1.50272 20.7539 1.74391 20.7539 2.00372V22.0037C20.7539 22.2635 20.6194 22.5047 20.3984 22.6414C20.1774 22.778 19.9014 22.7907 19.6689 22.6746L17.0371 21.3582L14.8896 22.6473C14.6523 22.7896 14.3555 22.7896 14.1182 22.6473L12.0039 21.3787L9.88965 22.6473C9.65228 22.7896 9.35553 22.7896 9.11816 22.6473L6.96973 21.3582L4.33887 22.6746C4.10646 22.7907 3.83036 22.778 3.60938 22.6414C3.38844 22.5047 3.25391 22.2635 3.25391 22.0037V2.00372C3.25391 1.74391 3.38844 1.50272 3.60938 1.36603C3.83036 1.22945 4.10646 1.21679 4.33887 1.33282L6.96973 2.64825L9.11816 1.36017L9.20996 1.31427C9.42899 1.22085 9.68192 1.23565 9.88965 1.36017L12.0039 2.62872L14.1182 1.36017L14.21 1.31427ZM13.5039 9.25372C13.8921 9.25372 14.2114 9.5486 14.25 9.92657L14.2578 10.0809C14.2964 10.4588 14.6157 10.7537 15.0039 10.7537C15.4181 10.7537 15.7539 10.4179 15.7539 10.0037C15.7539 8.76108 14.7465 7.75372 13.5039 7.75372H12.7539V7.00372C12.7539 6.58951 12.4181 6.25372 12.0039 6.25372C11.5897 6.25372 11.2539 6.58951 11.2539 7.00372V7.75372H10.5039C9.26127 7.75372 8.25391 8.76108 8.25391 10.0037V10.5037C8.25391 11.7464 9.26127 12.7537 10.5039 12.7537H13.5039C13.9181 12.7537 14.2539 13.0895 14.2539 13.5037V14.0037C14.2539 14.4179 13.9181 14.7537 13.5039 14.7537H10.5039C10.1157 14.7537 9.79643 14.4588 9.75781 14.0809L9.75 13.9266C9.71138 13.5486 9.39207 13.2537 9.00391 13.2537C8.58969 13.2537 8.25391 13.5895 8.25391 14.0037C8.25391 15.2464 9.26127 16.2537 10.5039 16.2537H11.2539V17.0037C11.2539 17.4179 11.5897 17.7537 12.0039 17.7537C12.4181 17.7537 12.7539 17.4179 12.7539 17.0037V16.2537H13.5039C14.7465 16.2537 15.7539 15.2464 15.7539 14.0037V13.5037C15.7539 12.2611 14.7465 11.2537 13.5039 11.2537H10.5039C10.0897 11.2537 9.75391 10.9179 9.75391 10.5037V10.0037C9.75391 9.58951 10.0897 9.25372 10.5039 9.25372H13.5039Z" fill="currentColor" />
</svg>