<svg xmlns="http://www.w3.org/2000/svg" width="24" height="24" viewBox="0 0 24 24" fill="none">
    <path fill-rule="evenodd" clip-rule="evenodd" d="M19.6652 1.32843C19.8976 1.21239 20.1737 1.22505 20.3947 1.36163C20.6155 1.49833 20.7501 1.73954 20.7501 1.99933V21.9993C20.7501 22.2591 20.6155 22.5004 20.3947 22.637C20.1737 22.7735 19.8975 22.7862 19.6652 22.6702L17.0333 21.3538L14.8859 22.6429C14.6485 22.7851 14.3517 22.7851 14.1144 22.6429L12.0001 21.3743L9.88586 22.6429C9.64854 22.7851 9.35171 22.7851 9.11438 22.6429L6.96594 21.3538L4.33508 22.6702C4.10272 22.7862 3.82654 22.7735 3.60559 22.637C3.38471 22.5004 3.25019 22.2591 3.25012 21.9993V1.99933C3.25012 1.73954 3.38471 1.49833 3.60559 1.36163C3.82658 1.22505 4.10267 1.21239 4.33508 1.32843L6.96594 2.64386L9.11438 1.35577L9.20618 1.30988C9.42521 1.21645 9.67813 1.23126 9.88586 1.35577L12.0001 2.62433L14.1144 1.35577L14.2062 1.30988C14.4252 1.21645 14.6781 1.23126 14.8859 1.35577L17.0333 2.64386L19.6652 1.32843ZM13.0001 6.74933C11.4813 6.74933 10.2501 7.98055 10.2501 9.49933V11.2493H9.00012C8.58591 11.2493 8.25012 11.5851 8.25012 11.9993C8.25012 12.4135 8.58591 12.7493 9.00012 12.7493H10.2501V13.9993C10.2501 14.6897 9.69048 15.2493 9.00012 15.2493C8.58591 15.2493 8.25012 15.5851 8.25012 15.9993C8.25012 16.4135 8.58591 16.7493 9.00012 16.7493H15.0001C15.4143 16.7493 15.7501 16.4135 15.7501 15.9993C15.7501 15.5851 15.4143 15.2493 15.0001 15.2493H11.4474C11.6395 14.874 11.7501 14.4499 11.7501 13.9993V12.7493H13.0001C13.4143 12.7493 13.7501 12.4135 13.7501 11.9993C13.7501 11.5851 13.4143 11.2493 13.0001 11.2493H11.7501V9.49933C11.7501 8.80897 12.3098 8.24933 13.0001 8.24933C13.6905 8.24933 14.2501 8.80897 14.2501 9.49933C14.2501 9.91354 14.5859 10.2493 15.0001 10.2493C15.4143 10.2493 15.7501 9.91354 15.7501 9.49933C15.7501 7.98055 14.5189 6.74933 13.0001 6.74933Z" fill="currentColor" />
</svg>