<svg xmlns="http://www.w3.org/2000/svg" width="24" height="24" viewBox="0 0 24 24" fill="none">
    <path fill-rule="evenodd" clip-rule="evenodd" d="M19.6652 1.32843C19.8976 1.21239 20.1737 1.22505 20.3947 1.36163C20.6155 1.49833 20.7501 1.73954 20.7501 1.99933V21.9993C20.7501 22.2591 20.6155 22.5004 20.3947 22.637C20.1737 22.7735 19.8975 22.7862 19.6652 22.6702L17.0333 21.3538L14.8859 22.6429C14.6485 22.7851 14.3517 22.7851 14.1144 22.6429L12.0001 21.3743L9.88586 22.6429C9.64854 22.7851 9.35171 22.7851 9.11438 22.6429L6.96594 21.3538L4.33508 22.6702C4.10272 22.7862 3.82654 22.7735 3.60559 22.637C3.38471 22.5004 3.25019 22.2591 3.25012 21.9993V1.99933C3.25012 1.73954 3.38471 1.49833 3.60559 1.36163C3.82658 1.22505 4.10267 1.21239 4.33508 1.32843L6.96594 2.64386L9.11438 1.35577L9.20618 1.30988C9.42521 1.21645 9.67813 1.23126 9.88586 1.35577L12.0001 2.62433L14.1144 1.35577L14.2062 1.30988C14.4252 1.21645 14.6781 1.23126 14.8859 1.35577L17.0333 2.64386L19.6652 1.32843ZM11.5001 6.74933C10.5336 6.74933 9.75012 7.53283 9.75012 8.49933V10.7493H8.50012C8.08591 10.7493 7.75012 11.0851 7.75012 11.4993C7.75012 11.9135 8.08591 12.2493 8.50012 12.2493H9.75012V13.7493H8.50012C8.08591 13.7493 7.75012 14.0851 7.75012 14.4993C7.75012 14.9135 8.08591 15.2493 8.50012 15.2493H9.75012V16.4993C9.75012 16.9135 10.0859 17.2493 10.5001 17.2493C10.9143 17.2493 11.2501 16.9135 11.2501 16.4993V15.2493H13.5001C13.9143 15.2493 14.2501 14.9135 14.2501 14.4993C14.2501 14.0851 13.9143 13.7493 13.5001 13.7493H11.2501V12.2493H13.5001C15.0189 12.2493 16.2501 11.0181 16.2501 9.49933C16.2501 7.98055 15.0189 6.74933 13.5001 6.74933H11.5001ZM13.5001 8.24933C14.1905 8.24933 14.7501 8.80897 14.7501 9.49933C14.7501 10.1897 14.1905 10.7493 13.5001 10.7493H11.2501V8.49933C11.2501 8.36126 11.3621 8.24933 11.5001 8.24933H13.5001Z" fill="currentColor" />
</svg>