<svg xmlns="http://www.w3.org/2000/svg" width="24" height="24" viewBox="0 0 24 24" fill="none">
    <path d="M6 10.999C6 12.8635 7.27579 14.4296 9.00195 14.873L9.00293 15.2988L9.01758 15.5752C9.1582 16.9375 10.3098 17.9989 11.708 17.999C12.4251 17.999 13.113 17.7138 13.6201 17.207L13.75 17.0771V19.999C13.75 21.5178 12.5187 22.749 11 22.749H4C2.48136 22.749 1.25017 21.5176 1.25 19.999V7.99902C1.25003 6.48033 2.48133 5.24913 4 5.24902H6V10.999ZM7.5 18.0029C6.94771 18.0029 6.5 18.4506 6.5 19.0029C6.5 19.5552 6.94772 20.0029 7.5 20.0029C8.05228 20.0029 8.5 19.5552 8.5 19.0029C8.5 18.4853 8.10667 18.0591 7.60254 18.0078L7.5 18.0029Z" fill="currentColor" />
    <path d="M20 1.24902C21.5188 1.24902 22.75 2.48024 22.75 3.99902V10.999C22.75 12.5178 21.5188 13.749 20 13.749H15.3105L12.7363 16.3232C12.4636 16.5958 12.0937 16.749 11.708 16.749C10.9056 16.749 10.2543 16.0992 10.2529 15.2969L10.251 13.749H10C8.48122 13.749 7.25 12.5178 7.25 10.999V3.99902C7.25 2.48024 8.48122 1.24902 10 1.24902H20ZM15.3271 4.3252C15.1452 4.2362 14.9358 4.22524 14.7471 4.29199C14.7161 4.30803 14.5389 4.39192 14.4863 4.4209C14.3814 4.47873 14.2365 4.56265 14.0713 4.66895C13.7476 4.87723 13.3147 5.19172 12.9561 5.58887C12.6078 5.97461 12.2439 6.53372 12.25 7.21777C12.2553 7.79991 12.5267 8.32007 13.0029 8.77344L12.6553 10.3359C12.5654 10.7402 12.8203 11.1415 13.2246 11.2314C13.6288 11.3213 14.0291 11.0662 14.1191 10.6621L14.4346 9.24414H15.6113L16.0703 10.7217C16.1933 11.1171 16.6133 11.3377 17.0088 11.2148C17.4043 11.0919 17.6258 10.6719 17.5029 10.2764L17.0254 8.74316C17.4819 8.29676 17.7413 7.78617 17.7461 7.2168C17.7518 6.53267 17.3875 5.97349 17.0391 5.58789C16.6802 5.19084 16.2467 4.87718 15.9229 4.66895C15.7576 4.56267 15.4321 4.38301 15.3271 4.3252Z" fill="currentColor" />
</svg>