<svg xmlns="http://www.w3.org/2000/svg" width="24" height="24" viewBox="0 0 24 24" fill="none">
    <path d="M18.765 3.00391C20.1797 3.00422 21.1469 4.43349 20.6215 5.74707L20.1703 6.875C19.9653 7.38767 19.3832 7.63749 18.8705 7.43262C18.3578 7.22755 18.108 6.64551 18.3129 6.13281L18.765 5.00391H5.91837L5.17032 6.875C4.96525 7.38767 4.38322 7.63749 3.87052 7.43262C3.35785 7.22755 3.10803 6.64551 3.3129 6.13281L4.06192 4.26074C4.36572 3.50174 5.10082 3.00402 5.91837 3.00391H18.765Z" fill="currentColor" />
    <path d="M10.7413 19.0039C11.2936 19.0039 11.7413 19.4516 11.7413 20.0039C11.7413 20.5562 11.2936 21.0039 10.7413 21.0039H4.7413C4.18902 21.0039 3.7413 20.5562 3.7413 20.0039C3.7413 19.4516 4.18902 19.0039 4.7413 19.0039H10.7413Z" fill="currentColor" />
    <path d="M11.7872 3.70586C11.9519 3.17881 12.5121 2.88507 13.0392 3.04961C13.5662 3.21431 13.86 3.7745 13.6954 4.30156L8.69541 20.3016C8.5307 20.8286 7.97052 21.1224 7.44346 20.9578C6.9164 20.7931 6.62266 20.2329 6.78721 19.7059L11.7872 3.70586Z" fill="currentColor" />
    <path d="M19.0343 14.2968C19.4248 13.9063 20.0578 13.9063 20.4483 14.2968C20.8389 14.6873 20.8389 15.3203 20.4483 15.7109L18.6554 17.5038L20.4483 19.2968C20.8389 19.6873 20.8389 20.3203 20.4483 20.7109C20.0578 21.1014 19.4248 21.1014 19.0343 20.7109L17.2413 18.9179L15.4483 20.7109C15.0578 21.1014 14.4248 21.1014 14.0343 20.7109C13.6437 20.3203 13.6437 19.6873 14.0343 19.2968L15.8272 17.5038L14.0343 15.7109C13.6437 15.3203 13.6437 14.6873 14.0343 14.2968C14.4248 13.9063 15.0578 13.9063 15.4483 14.2968L17.2413 16.0898L19.0343 14.2968Z" fill="currentColor" />
</svg>