<svg xmlns="http://www.w3.org/2000/svg" width="24" height="24" viewBox="0 0 24 24" fill="none">
    <path d="M19.0048 18.0038V16.0038C19.0048 13.2424 16.7663 11.0038 14.0048 11.0038H6.4189L8.71187 13.2968C9.10239 13.6873 9.10239 14.3203 8.71187 14.7109C8.32135 15.1014 7.68833 15.1014 7.29781 14.7109L3.29781 10.7109C2.90728 10.3203 2.90728 9.68732 3.29781 9.2968L7.29781 5.2968C7.68833 4.90628 8.32135 4.90628 8.71187 5.2968C9.10239 5.68732 9.10239 6.32034 8.71187 6.71086L6.4189 9.00383H14.0048C17.8708 9.00383 21.0048 12.1378 21.0048 16.0038V18.0038C21.0048 18.5561 20.5571 19.0038 20.0048 19.0038C19.4526 19.0038 19.0048 18.5561 19.0048 18.0038Z" fill="currentColor" />
</svg>