<svg xmlns="http://www.w3.org/2000/svg" width="24" height="24" viewBox="0 0 24 24" fill="none">
    <path d="M6.95508 9.25C7.48267 10.0911 8.14303 10.7552 8.71094 11.2344C9.32246 11.7503 9.92404 12.1401 10.3701 12.3994C10.595 12.5301 11.0406 12.7528 11.1797 12.8232C11.7016 13.058 12.2984 13.058 12.8203 12.8232C12.9594 12.7528 13.405 12.5301 13.6299 12.3994C14.076 12.1401 14.6775 11.7503 15.2891 11.2344C15.857 10.7552 16.5173 10.0911 17.0449 9.25H20C21.5188 9.25 22.75 10.4812 22.75 12V20C22.75 21.5188 21.5188 22.75 20 22.75H4C2.48122 22.75 1.25 21.5188 1.25 20V12C1.25 10.4812 2.48122 9.25 4 9.25H6.95508ZM5 15.25C4.58579 15.25 4.25 15.5858 4.25 16C4.25 16.4142 4.58579 16.75 5 16.75H7C7.41421 16.75 7.75 16.4142 7.75 16C7.75 15.5858 7.41421 15.25 7 15.25H5ZM11 15.25C10.5858 15.25 10.25 15.5858 10.25 16C10.25 16.4142 10.5858 16.75 11 16.75H13C13.4142 16.75 13.75 16.4142 13.75 16C13.75 15.5858 13.4142 15.25 13 15.25H11ZM17 15.25C16.5858 15.25 16.25 15.5858 16.25 16C16.25 16.4142 16.5858 16.75 17 16.75H19C19.4142 16.75 19.75 16.4142 19.75 16C19.75 15.5858 19.4142 15.25 19 15.25H17Z" fill="currentColor" />
    <path d="M12 1.25C14.632 1.25 16.7499 3.40774 16.75 6.0498C16.75 7.95662 15.5436 9.38472 14.4834 10.2793C13.9413 10.7366 13.4033 11.0851 13.002 11.3184C12.8005 11.4354 12.6314 11.5249 12.5107 11.5859C12.4504 11.6165 12.342 11.6672 12.3076 11.6836C12.1119 11.7717 11.8881 11.7717 11.6924 11.6836C11.658 11.6672 11.5496 11.6165 11.4893 11.5859C11.3686 11.5249 11.1995 11.4354 10.998 11.3184C10.5967 11.0851 10.0587 10.7366 9.5166 10.2793C8.45636 9.38472 7.25 7.95662 7.25 6.0498C7.2501 3.40774 9.36796 1.25 12 1.25ZM12.0098 4.5C11.1813 4.5 10.5098 5.17158 10.5098 6C10.5098 6.82843 11.1813 7.5 12.0098 7.5C12.8382 7.5 13.5098 6.82843 13.5098 6C13.5098 5.17157 12.8382 4.5 12.0098 4.5Z" fill="currentColor" />
</svg>