<svg xmlns="http://www.w3.org/2000/svg" width="24" height="24" viewBox="0 0 24 24" fill="none">
    <path d="M7.60352 9.37503C7.83181 9.63843 8.08424 9.88815 8.36035 10.1231C8.64033 10.3613 9.05245 10.7527 9.44629 11.167C9.85439 11.5963 10.1707 11.9756 10.3115 12.1973L10.3125 12.1983C10.6733 12.7656 11.2959 13.1143 11.9688 13.125L12.0947 13.1231C12.7205 13.0935 13.2987 12.771 13.6533 12.25C14.0261 11.7026 15.0647 10.6123 15.6396 10.1231C15.9158 9.88815 16.1682 9.63843 16.3965 9.37503H20C21.5188 9.37503 22.75 10.6062 22.75 12.125V20.125C22.75 21.6438 21.5188 22.875 20 22.875H4C2.48122 22.875 1.25 21.6438 1.25 20.125V12.125C1.25 10.6062 2.48122 9.37503 4 9.37503H7.60352ZM5 15.375C4.58579 15.375 4.25 15.7108 4.25 16.125C4.25 16.5392 4.58579 16.875 5 16.875H7C7.41421 16.875 7.75 16.5392 7.75 16.125C7.75 15.7108 7.41421 15.375 7 15.375H5ZM11 15.375C10.5858 15.375 10.25 15.7108 10.25 16.125C10.25 16.5392 10.5858 16.875 11 16.875H13C13.4142 16.875 13.75 16.5392 13.75 16.125C13.75 15.7108 13.4142 15.375 13 15.375H11ZM17 15.375C16.5858 15.375 16.25 15.7108 16.25 16.125C16.25 16.5392 16.5858 16.875 17 16.875H19C19.4142 16.875 19.75 16.5392 19.75 16.125C19.75 15.7108 19.4142 15.375 19 15.375H17Z" fill="currentColor" />
    <path d="M12 1.37503C14.4634 1.37503 16.5 3.31766 16.5 5.76175C16.4999 7.16434 15.9063 8.25518 14.8301 9.17093C14.2015 9.70569 13.0755 10.878 12.6201 11.5469C12.4781 11.7555 12.2406 11.879 11.9883 11.875C11.736 11.871 11.5025 11.7403 11.3672 11.5274C10.9473 10.8661 9.81247 9.71755 9.16992 9.17093C8.09366 8.25518 7.50011 7.16434 7.5 5.76175C7.5 3.31766 9.53665 1.37503 12 1.37503ZM12.0098 4.12503C11.1813 4.12503 10.5098 4.79661 10.5098 5.62503C10.5098 6.45346 11.1813 7.12503 12.0098 7.12503C12.8382 7.12503 13.5098 6.45346 13.5098 5.62503C13.5098 4.7966 12.8382 4.12503 12.0098 4.12503Z" fill="currentColor" />
</svg>