<svg xmlns="http://www.w3.org/2000/svg" width="24" height="24" viewBox="0 0 24 24" fill="none">
    <path fill-rule="evenodd" clip-rule="evenodd" d="M13.3824 2.1336C14.1792 1.33418 15.2404 1.09913 16.315 1.33868C17.3508 1.56983 18.3916 2.23124 19.354 3.19708C20.9242 4.77307 21.5517 6.39845 21.7085 7.81427C21.8629 9.20925 21.5529 10.3376 21.355 10.9334C21.3072 11.0773 21.2266 11.208 21.1197 11.3152L18.2945 14.1531C15.9625 16.4935 12.1801 16.4936 9.84819 14.1531C9.556 13.8598 9.30052 13.543 9.08159 13.2098C8.15942 13.9526 7.37917 14.9011 6.73003 15.9109C7.16356 15.9113 7.5674 15.9564 7.94389 16.0467C8.80071 16.2525 9.45615 16.6681 9.97319 17.1609C11.0163 18.1556 11.5934 19.7798 11.9712 21.2654C12.1033 21.7858 11.7912 22.3159 11.273 22.452C9.68811 22.8674 8.21492 22.9465 6.89311 22.0291L6.8726 22.0154C6.87051 22.014 6.86786 22.0129 6.86577 22.0115C6.10088 21.5006 5.45614 20.6717 4.9478 19.5242C4.74421 20.0635 4.58162 20.5473 4.46147 20.9422C4.36155 21.2707 4.28922 21.5361 4.24272 21.7166C4.21961 21.8064 4.20269 21.8755 4.19194 21.9207C4.18668 21.9428 4.18259 21.9602 4.18022 21.9705C4.17922 21.9748 4.17782 21.9782 4.17729 21.9803V21.9822C4.06115 22.509 3.54081 22.8425 3.01518 22.7264C2.48984 22.6097 2.15704 22.0871 2.273 21.5604L2.27397 21.5574L2.27495 21.5525C2.27599 21.548 2.27808 21.5407 2.27983 21.533L2.28178 21.5233C2.28512 21.5086 2.29015 21.4899 2.29546 21.4676C2.30887 21.4112 2.32773 21.3295 2.35405 21.2274C2.40684 21.0224 2.48732 20.7299 2.59624 20.3719C2.81394 19.6563 3.15129 18.6709 3.63042 17.5887C4.54254 15.5286 6.02216 12.9969 8.2769 11.367C7.78879 9.39483 8.31234 7.22126 9.84819 5.6795L13.3824 2.1336ZM15.9751 9.78106C14.3839 9.6451 12.4889 10.0902 10.5982 11.95C10.7685 12.2427 10.9782 12.5194 11.2281 12.7703C12.7983 14.3463 15.3444 14.3463 16.9146 12.7703L18.9292 10.7469C18.1563 10.2874 17.1277 9.87971 15.9751 9.78106ZM15.8912 3.24591C15.4145 3.13973 15.0778 3.23554 14.8218 3.45977C14.5514 3.9194 14.132 5.36099 15.6451 7.22052C16.1101 6.81817 16.451 6.27948 16.6822 5.68243C16.9511 4.98755 17.0439 4.28491 17.0376 3.7879C16.608 3.49252 16.2194 3.31919 15.8912 3.24591Z" fill="currentColor" />
</svg>