<svg xmlns="http://www.w3.org/2000/svg" width="24" height="24" viewBox="0 0 24 24" fill="none">
    <path d="M12 10.25C12.5522 10.2501 13 10.6978 13 11.25V12.25H20C21.5188 12.25 22.75 13.4812 22.75 15V19C22.75 20.5188 21.5188 21.75 20 21.75H4C2.48122 21.75 1.25 20.5188 1.25 19V15C1.25 13.4812 2.48122 12.25 4 12.25H11V11.25C11 10.6977 11.4477 10.25 12 10.25ZM6 16C5.44772 16 5 16.4477 5 17C5 17.5523 5.44772 18 6 18H10C10.5523 18 11 17.5523 11 17C11 16.4477 10.5523 16 10 16H6ZM14 16C13.4477 16 13 16.4477 13 17C13 17.5523 13.4477 18 14 18C14.5523 18 15 17.5523 15 17C15 16.4477 14.5523 16 14 16ZM18 16C17.4477 16 17 16.4477 17 17C17 17.5523 17.4477 18 18 18C18.5523 18 19 17.5523 19 17C19 16.4477 18.5523 16 18 16ZM12.0039 6.24219C13.1398 6.24454 14.2417 6.63399 15.127 7.3457C15.5568 7.69177 15.625 8.32073 15.2793 8.75098C14.9333 9.18137 14.3035 9.25021 13.873 8.9043C13.342 8.47738 12.6814 8.24366 12 8.24219C11.3184 8.24082 10.656 8.47161 10.123 8.89648C9.69127 9.24059 9.06206 9.16994 8.71777 8.73828C8.37353 8.30647 8.44517 7.6773 8.87695 7.33301C9.76513 6.62491 10.868 6.23992 12.0039 6.24219ZM12 2.25C14.0448 2.25005 16.0288 2.94662 17.625 4.22461C18.0559 4.5698 18.1253 5.19884 17.7803 5.62988C17.4351 6.06088 16.8061 6.13019 16.375 5.78516C15.1336 4.7913 13.5903 4.25005 12 4.25C10.4097 4.25 8.86647 4.79132 7.625 5.78516C7.19394 6.13028 6.56494 6.06083 6.21973 5.62988C5.87458 5.19879 5.94397 4.56981 6.375 4.22461C7.97124 2.94665 9.95521 2.25 12 2.25Z" fill="currentColor" />
</svg>