<svg xmlns="http://www.w3.org/2000/svg" width="24" height="24" viewBox="0 0 24 24" fill="none">
    <path d="M12.6124 8.15625C13.1668 8.21268 13.5995 8.68072 13.5997 9.25C13.5997 9.85738 13.1074 10.3504 12.5001 10.3506C11.8926 10.3506 11.3995 9.85751 11.3995 9.25C11.3997 8.64267 11.8927 8.15039 12.5001 8.15039L12.6124 8.15625ZM12.5001 4.58203C13.6702 4.58203 14.7222 5.08021 15.4737 5.86719C15.8549 6.26661 15.8398 6.89991 15.4405 7.28125C15.0411 7.66239 14.4078 7.64735 14.0265 7.24805C13.6264 6.82937 13.0872 6.58203 12.5001 6.58203C11.913 6.58203 11.3738 6.82937 10.9737 7.24805C10.5924 7.64735 9.95909 7.66239 9.55967 7.28125C9.16037 6.89991 9.14533 6.26661 9.52647 5.86719C10.2781 5.08021 11.3301 4.58203 12.5001 4.58203ZM12.5001 1.25C14.5488 1.25 16.3963 2.12083 17.7237 3.51074C18.1051 3.91015 18.0899 4.54338 17.6905 4.9248C17.2911 5.30618 16.6579 5.29196 16.2765 4.89258C15.3006 3.8708 13.966 3.25 12.5001 3.25C11.0342 3.25 9.69962 3.8708 8.72374 4.89258C8.34232 5.29196 7.70908 5.30618 7.30967 4.9248C6.91029 4.54338 6.89508 3.91015 7.27647 3.51074C8.60388 2.12083 10.4514 1.25 12.5001 1.25Z" fill="currentColor" />
    <path d="M20 11.25C21.5188 11.25 22.75 12.4812 22.75 14V20C22.75 21.5188 21.5188 22.75 20 22.75H4C2.48122 22.75 1.25 21.5188 1.25 20V14C1.25 12.4812 2.48122 11.25 4 11.25H20ZM6 16C5.44772 16 5 16.4477 5 17C5 17.5523 5.44772 18 6 18H10C10.5523 18 11 17.5523 11 17C11 16.4477 10.5523 16 10 16H6ZM14 16C13.4477 16 13 16.4477 13 17C13 17.5523 13.4477 18 14 18C14.5523 18 15 17.5523 15 17C15 16.4477 14.5523 16 14 16ZM18 16C17.4477 16 17 16.4477 17 17C17 17.5523 17.4477 18 18 18C18.5523 18 19 17.5523 19 17C19 16.4477 18.5523 16 18 16Z" fill="currentColor" />
</svg>