<svg xmlns="http://www.w3.org/2000/svg" width="24" height="24" viewBox="0 0 24 24" fill="none">
    <path d="M18.004 8.75488C20.075 8.75488 21.754 7.07595 21.754 5.00488C21.754 2.93382 20.075 1.25488 18.004 1.25488C15.9329 1.25488 14.254 2.93382 14.254 5.00488C14.254 7.07595 15.9329 8.75488 18.004 8.75488Z" fill="currentColor" />
    <path d="M9.75397 19.0049C9.75397 21.076 8.07504 22.7549 6.00397 22.7549C3.9329 22.7549 2.25397 21.076 2.25397 19.0049C2.25397 16.9338 3.9329 15.2549 6.00397 15.2549C8.07504 15.2549 9.75397 16.9338 9.75397 19.0049Z" fill="currentColor" />
    <path d="M12.004 4.00488C12.5563 4.00488 13.004 4.4526 13.004 5.00488C13.004 5.55717 12.5563 6.00488 12.004 6.00488H9.00397C8.45168 6.00488 8.00397 5.55717 8.00397 5.00488C8.00397 4.4526 8.45168 4.00488 9.00397 4.00488H12.004Z" fill="currentColor" />
    <path d="M4.00397 8.47538C4.00397 7.24422 4.49371 6.124 5.28717 5.30741C5.67208 4.91171 6.30527 4.90313 6.70123 5.28788C7.09694 5.67279 7.10551 6.30598 6.72076 6.70194C6.27726 7.15857 6.00397 7.78324 6.00397 8.47538C6.00419 9.88029 7.13134 11.0047 8.50397 11.0047H12.004C12.5563 11.0047 13.004 11.4524 13.004 12.0047C13.004 12.557 12.5563 13.0047 12.004 13.0047H8.50397C6.01087 13.0047 4.00419 10.9689 4.00397 8.47538Z" fill="currentColor" />
    <path d="M16.146 11.0151C18.137 11.2998 19.71 12.8726 19.9946 14.8637C20.0728 15.4104 19.6927 15.9174 19.146 15.9955C18.5993 16.0737 18.0923 15.6936 18.0142 15.1469C17.8553 14.0357 16.9742 13.1545 15.8628 12.9955C15.3161 12.9173 14.936 12.4104 15.0142 11.8637C15.0924 11.317 15.5993 10.9369 16.146 11.0151Z" fill="currentColor" />
    <path d="M17.3067 17.2879C17.7027 16.9031 18.3359 16.9117 18.7208 17.3074C19.1055 17.7034 19.0969 18.3366 18.7012 18.7215C17.8847 19.5148 16.7652 20.0046 15.5342 20.0047H12.004C11.4517 20.0047 11.004 19.557 11.004 19.0047C11.004 18.4524 11.4517 18.0047 12.004 18.0047H15.5342C16.2261 18.0046 16.8501 17.7313 17.3067 17.2879Z" fill="currentColor" />
    <path d="M1.29692 1.29778C1.68745 0.907252 2.32046 0.907252 2.71098 1.29778L22.711 21.2978C23.1015 21.6883 23.1015 22.3213 22.711 22.7118C22.3205 23.1024 21.6874 23.1024 21.2969 22.7118L1.29692 2.71184C0.906397 2.32131 0.906397 1.6883 1.29692 1.29778Z" fill="currentColor" />
</svg>