<svg xmlns="http://www.w3.org/2000/svg" width="24" height="24" viewBox="0 0 24 24" fill="none">
    <path d="M18 1.25C20.632 1.25 22.7499 3.40774 22.75 6.0498C22.75 7.58589 21.9648 8.81195 21.1191 9.6875C20.2714 10.5652 19.2977 11.1609 18.7588 11.4551C18.2837 11.7144 17.7163 11.7144 17.2412 11.4551C16.7023 11.1609 15.7286 10.5652 14.8809 9.6875C14.0352 8.81195 13.25 7.58589 13.25 6.0498C13.2501 3.40774 15.368 1.25 18 1.25ZM18 4.25C17.0335 4.25 16.25 5.0335 16.25 6C16.25 6.9665 17.0335 7.75 18 7.75H18.0088C18.9753 7.75 19.7588 6.9665 19.7588 6C19.7588 5.0335 18.9753 4.25 18.0088 4.25H18Z" fill="currentColor" />
    <path fill-rule="evenodd" clip-rule="evenodd" d="M1.25 19C1.25 16.9289 2.92893 15.25 5 15.25C7.07107 15.25 8.75 16.9289 8.75 19C8.75 21.0711 7.07107 22.75 5 22.75C2.92893 22.75 1.25 21.0711 1.25 19Z" fill="currentColor" />
    <path fill-rule="evenodd" clip-rule="evenodd" d="M5 10C5 7.65179 7.16489 6 9.5 6H11C11.5523 6 12 6.44772 12 7C12 7.55228 11.5523 8 11 8H9.5C7.96911 8 7 9.0345 7 10C7 10.9655 7.96911 12 9.5 12H12.5C14.8351 12 17 13.6518 17 16C17 18.3482 14.8351 20 12.5 20H11C10.4477 20 10 19.5523 10 19C10 18.4477 10.4477 18 11 18H12.5C14.0309 18 15 16.9655 15 16C15 15.0345 14.0309 14 12.5 14H9.5C7.16489 14 5 12.3482 5 10Z" fill="currentColor" />
</svg>