<svg xmlns="http://www.w3.org/2000/svg" width="24" height="24" viewBox="0 0 24 24" fill="none">
    <path d="M3.625 19C4.45342 19 5.125 19.6716 5.125 20.5C5.125 21.3284 4.45342 22 3.625 22C2.79657 22 2.125 21.3284 2.125 20.5C2.125 19.6716 2.79657 19 3.625 19ZM3.125 12C8.09556 12 12.125 16.0294 12.125 21C12.125 21.5523 11.6773 22 11.125 22C10.5727 22 10.125 21.5523 10.125 21C10.125 17.134 6.99099 14 3.125 14C2.57272 14 2.125 13.5523 2.125 13C2.125 12.4477 2.57272 12 3.125 12ZM16.9385 15.0576C17.4592 14.8736 18.0298 15.1463 18.2139 15.667C18.8039 17.3364 19.125 19.1318 19.125 21C19.125 21.5523 18.6773 22 18.125 22C17.5727 22 17.125 21.5523 17.125 21C17.125 19.3619 16.8446 17.7914 16.3291 16.333C16.1451 15.8123 16.4178 15.2417 16.9385 15.0576ZM17.125 2.25C18.6438 2.25 19.875 3.48122 19.875 5V6.25H20.125C21.0915 6.25 21.875 7.0335 21.875 8V11C21.875 11.9665 21.0915 12.75 20.125 12.75H14.125C13.1585 12.75 12.375 11.9665 12.375 11V8C12.375 7.0335 13.1585 6.25 14.125 6.25H14.375V5C14.375 3.48122 15.6062 2.25 17.125 2.25ZM3.125 5C5.39869 5 7.56412 5.47512 9.52539 6.33203C10.0314 6.55319 10.2621 7.14239 10.041 7.64844C9.81987 8.15448 9.23067 8.38517 8.72461 8.16406C7.01115 7.41545 5.11787 7 3.125 7C2.57272 7 2.125 6.55228 2.125 6C2.125 5.44772 2.57272 5 3.125 5ZM17.125 3.75C16.4346 3.75 15.875 4.30964 15.875 5V6.25H18.375V5C18.375 4.30964 17.8154 3.75 17.125 3.75Z" fill="currentColor" />
</svg>