<svg xmlns="http://www.w3.org/2000/svg" width="24" height="24" viewBox="0 0 24 24" fill="none">
    <path d="M10.125 20.75C10.125 16.884 6.99099 13.75 3.125 13.75C2.57272 13.75 2.125 13.3023 2.125 12.75C2.125 12.1977 2.57272 11.75 3.125 11.75C8.09556 11.75 12.125 15.7794 12.125 20.75C12.125 21.3023 11.6773 21.75 11.125 21.75C10.5727 21.75 10.125 21.3023 10.125 20.75Z" fill="currentColor" />
    <path d="M3.625 18.75C4.45342 18.75 5.125 19.4216 5.125 20.25C5.125 21.0784 4.45342 21.75 3.625 21.75C2.79657 21.75 2.125 21.0784 2.125 20.25C2.125 19.4216 2.79657 18.75 3.625 18.75Z" fill="currentColor" />
    <path d="M16.125 2C19.3006 2 21.875 4.57436 21.875 7.75C21.875 10.9256 19.3006 13.5 16.125 13.5C12.9494 13.5 10.375 10.9256 10.375 7.75C10.375 4.57436 12.9494 2 16.125 2ZM16.125 9C15.7108 9 15.375 9.33579 15.375 9.75C15.375 10.1642 15.7108 10.5 16.125 10.5H16.1338C16.548 10.5 16.8838 10.1642 16.8838 9.75C16.8838 9.33579 16.548 9 16.1338 9H16.125ZM16.125 4.5C15.7108 4.5 15.375 4.83579 15.375 5.25V7.25C15.375 7.66421 15.7108 8 16.125 8C16.5392 8 16.875 7.66421 16.875 7.25V5.25C16.875 4.83579 16.5392 4.5 16.125 4.5Z" fill="currentColor" />
    <path d="M17.125 20.75C17.125 19.4555 16.9498 18.2032 16.6221 17.0156C16.4754 16.4835 16.7873 15.9332 17.3193 15.7861C17.8517 15.6392 18.4029 15.952 18.5498 16.4844C18.9249 17.8435 19.125 19.2742 19.125 20.75C19.125 21.3023 18.6773 21.75 18.125 21.75C17.5727 21.75 17.125 21.3023 17.125 20.75ZM3.125 4.75C4.6008 4.75 6.03147 4.95011 7.39062 5.3252C7.923 5.47213 8.2358 6.02328 8.08887 6.55566C7.94181 7.08771 7.39153 7.39961 6.85938 7.25293C5.67178 6.92515 4.41946 6.75 3.125 6.75C2.57272 6.75 2.125 6.30228 2.125 5.75C2.125 5.19772 2.57272 4.75 3.125 4.75Z" fill="currentColor" />
</svg>