<svg xmlns="http://www.w3.org/2000/svg" width="24" height="24" viewBox="0 0 24 24" fill="none">
    <path fill-rule="evenodd" clip-rule="evenodd" d="M17.004 14.0049V11.2549H15.004V14.0049C15.004 14.5572 14.5563 15.0049 14.004 15.0049C13.4517 15.0049 13.004 14.5572 13.004 14.0049V11.2549H11.004V14.0049C11.004 14.5572 10.5563 15.0049 10.004 15.0049C9.45168 15.0049 9.00397 14.5572 9.00397 14.0049V11.2549H7.00397V14.0049C7.00397 14.5572 6.55625 15.0049 6.00397 15.0049C5.45168 15.0049 5.00397 14.5572 5.00397 14.0049V11.2549H3.00397C2.03747 11.2549 1.25397 12.0384 1.25397 13.0049V19.0049C1.25397 19.9714 2.03747 20.7549 3.00397 20.7549H21.004C21.9705 20.7549 22.754 19.9714 22.754 19.0049V13.0049C22.754 12.0384 21.9705 11.2549 21.004 11.2549H19.004V14.0049C19.004 14.5572 18.5563 15.0049 18.004 15.0049C17.4517 15.0049 17.004 14.5572 17.004 14.0049Z" fill="currentColor" />
    <path d="M20.7109 3.54778C20.3204 3.15725 19.6874 3.15725 19.2969 3.54778C18.9063 3.9383 18.9063 4.57131 19.2969 4.96184L19.5898 5.25481H4.41795L4.71092 4.96184C5.10145 4.57131 5.10145 3.9383 4.71092 3.54778C4.3204 3.15725 3.68738 3.15725 3.29686 3.54778L1.29686 5.54778C0.906336 5.9383 0.906336 6.57131 1.29686 6.96184L3.29686 8.96184C3.68738 9.35236 4.3204 9.35236 4.71092 8.96184C5.10145 8.57131 5.10145 7.9383 4.71092 7.54778L4.41795 7.25481H19.5898L19.2969 7.54778C18.9063 7.9383 18.9063 8.57131 19.2969 8.96184C19.6874 9.35236 20.3204 9.35236 20.7109 8.96184L22.7109 6.96184C23.1014 6.57131 23.1014 5.9383 22.7109 5.54778L20.7109 3.54778Z" fill="currentColor" />
</svg>