<svg xmlns="http://www.w3.org/2000/svg" width="24" height="24" viewBox="0 0 24 24" fill="none">
    <path d="M19 2.25C20.5188 2.25 21.75 3.48122 21.75 5V19C21.75 20.5188 20.5188 21.75 19 21.75H5C3.48122 21.75 2.25 20.5188 2.25 19V17H4.5C5.05228 17 5.5 16.5523 5.5 16C5.5 15.4477 5.05228 15 4.5 15H2.25V9H4.5C5.05228 9 5.5 8.55228 5.5 8C5.5 7.44772 5.05228 7 4.5 7H2.25V5C2.25 3.48122 3.48122 2.25 5 2.25H19ZM12 7C9.23858 7 7 9.23858 7 12C7 14.7614 9.23858 17 12 17C14.7614 17 17 14.7614 17 12C17 9.23858 14.7614 7 12 7ZM12 9C13.6569 9 15 10.3431 15 12C15 13.6569 13.6569 15 12 15C10.3431 15 9 13.6569 9 12C9 10.3431 10.3431 9 12 9Z" fill="currentColor" />
</svg>