<svg xmlns="http://www.w3.org/2000/svg" width="24" height="24" viewBox="0 0 24 24" fill="none">
    <path d="M20.0039 17.0049C20.2347 17.0049 20.4526 17.1112 20.5947 17.293C20.7368 17.4749 20.7874 17.7125 20.7314 17.9365L20.4893 18.9072C19.9606 21.0216 18.0604 22.5049 15.8809 22.5049H6.00391C4.48512 22.5049 3.25391 21.2737 3.25391 19.7549V17.7549C3.25391 17.556 3.33298 17.3653 3.47363 17.2246C3.61428 17.084 3.80499 17.0049 4.00391 17.0049H20.0039Z" fill="currentColor" />
    <path d="M9.91115 1.51072C10.178 1.47745 10.4421 1.58962 10.6035 1.80466L19.6035 13.8047C19.7739 14.0318 19.8017 14.3358 19.6748 14.5898C19.5478 14.8439 19.288 15.0049 19.0039 15.0049L5.00392 15.0049C4.75316 15.0049 4.519 14.8795 4.3799 14.6709C4.24087 14.4623 4.21526 14.1982 4.31154 13.9668L9.31154 1.96677C9.41505 1.71833 9.64408 1.5441 9.91115 1.51072Z" fill="currentColor" />
    <path d="M9.00391 17.5049L9.00391 3.50488C9.00391 2.9526 9.45162 2.50488 10.0039 2.50488C10.5562 2.50488 11.0039 2.9526 11.0039 3.50488L11.0039 17.5049C11.0039 18.0572 10.5562 18.5049 10.0039 18.5049C9.45162 18.5049 9.00391 18.0572 9.00391 17.5049Z" fill="currentColor" />
</svg>