<svg xmlns="http://www.w3.org/2000/svg" width="24" height="24" viewBox="0 0 24 24" fill="none">
    <path fill-rule="evenodd" clip-rule="evenodd" d="M13.7314 3.11762C14.6996 2.16397 16.1626 1.99755 17.3057 2.61469C18.445 2.01394 19.8936 2.18589 20.8545 3.13227C21.8149 4.07836 21.989 5.50314 21.3799 6.62446C22.0074 7.75012 21.8377 9.19285 20.8691 10.1469C20.7482 10.266 20.6176 10.3716 20.4824 10.4663C20.5703 11.0709 20.4692 11.6966 20.1777 12.2514C21.0519 12.2864 21.7499 13.0045 21.75 13.8872C21.7498 18.2286 18.2301 21.7485 13.8887 21.7485H10.1113C5.76986 21.7485 2.25017 18.2286 2.25 13.8872C2.25012 12.9822 2.98371 12.2486 3.88867 12.2485H4.0752C3.55319 11.435 3.25 10.4706 3.25 9.43696C3.25015 6.52589 5.64786 4.16645 8.60547 4.16645C9.32636 4.16646 10.0147 4.30893 10.6436 4.56391C10.7087 4.48499 10.7769 4.40696 10.8516 4.33344C11.5489 3.64669 12.5019 3.36927 13.4072 3.49653C13.5033 3.3637 13.6108 3.23642 13.7314 3.11762ZM16.6123 4.47309C16.1973 4.06431 15.5244 4.06431 15.1094 4.47309C14.9785 4.60203 14.8892 4.75356 14.8408 4.9145C14.7587 5.18772 14.558 5.41143 14.292 5.52387C14.0258 5.63626 13.7217 5.62545 13.4639 5.49555C13.0638 5.29416 12.5627 5.36077 12.2295 5.68891C12.1242 5.79269 12.0451 5.91278 11.9932 6.04145C11.9815 6.0979 11.9648 6.15388 11.9424 6.20844C11.9028 6.39008 11.9118 6.58032 11.9717 6.75922C12.0673 7.04485 12.0207 7.35873 11.8467 7.6059C11.6727 7.85273 11.3909 8.00487 11.0859 8.01704C10.8275 8.0273 10.5747 8.129 10.3779 8.3227C9.96256 8.73188 9.96254 9.39596 10.3779 9.80512C10.7956 10.2167 11.0871 10.7051 11.2559 11.2231L16.1934 6.36372C16.5736 5.98944 17.1901 5.98944 17.5703 6.36372C17.9505 6.738 17.9506 7.34492 17.5703 7.71918L12.9688 12.2485H17.3477C17.4639 12.0824 17.6333 11.9505 17.8428 11.8823C17.9932 11.8332 18.1347 11.7487 18.2568 11.6284C18.5901 11.3001 18.6581 10.8056 18.4531 10.4106C18.3213 10.1569 18.3099 9.85803 18.4238 9.59614C18.538 9.33421 18.7653 9.13505 19.043 9.05415C19.2071 9.00634 19.3619 8.91977 19.4922 8.79145C19.907 8.38252 19.9066 7.71834 19.4912 7.30903C19.1142 6.93748 19.1112 6.33658 19.4844 5.96137C19.8923 5.55156 19.8892 4.89321 19.4766 4.48676C19.0641 4.08083 18.3977 4.0789 17.9824 4.47993C17.6012 4.84779 16.9899 4.84443 16.6123 4.47309ZM8.60547 6.08247C6.72339 6.08247 5.19742 7.58451 5.19727 9.43696C5.19727 10.4902 5.68994 11.4298 6.46387 12.0463C6.53847 12.1058 6.60155 12.1744 6.65332 12.2485H9.47949C9.46543 11.8518 9.30597 11.4611 9 11.1596C7.82497 10.002 7.82497 8.12579 9 6.96821C9.2746 6.69773 9.58964 6.49027 9.92578 6.34614C9.52 6.17796 9.07488 6.08248 8.60547 6.08247Z" fill="currentColor" />
</svg>