<svg xmlns="http://www.w3.org/2000/svg" width="24" height="24" viewBox="0 0 24 24" fill="none">
    <path d="M4.80108 7.25489C5.00126 7.25391 5.1937 7.33307 5.33526 7.47462L16.5325 18.6719C16.6741 18.8134 16.7532 19.0059 16.7522 19.2061C16.7512 19.406 16.6703 19.5972 16.5276 19.7373C14.9524 21.2819 12.7969 22.243 10.4241 22.2549C5.612 22.2789 1.72819 18.3951 1.75225 13.583C1.76411 11.2103 2.72525 9.05478 4.26983 7.4795L4.38311 7.38477C4.5055 7.30151 4.65084 7.25568 4.80108 7.25489Z" fill="currentColor" />
    <path d="M16.752 10.7549C16.752 8.82189 15.185 7.25488 13.252 7.25488C12.6997 7.25488 12.252 6.80717 12.252 6.25488C12.252 5.7026 12.6997 5.25488 13.252 5.25488C16.2896 5.25488 18.752 7.71732 18.752 10.7549C18.752 11.3072 18.3043 11.7549 17.752 11.7549C17.1997 11.7549 16.752 11.3072 16.752 10.7549Z" fill="currentColor" />
    <path d="M20.252 10.7549C20.252 6.88889 17.118 3.75488 13.252 3.75488C12.6997 3.75488 12.252 3.30717 12.252 2.75488C12.252 2.2026 12.6997 1.75488 13.252 1.75488C18.2226 1.75488 22.252 5.78432 22.252 10.7549C22.252 11.3072 21.8043 11.7549 21.252 11.7549C20.6997 11.7549 20.252 11.3072 20.252 10.7549Z" fill="currentColor" />
    <path d="M12.796 9.79773C13.1864 9.40725 13.8195 9.40729 14.21 9.79773C14.6005 10.1882 14.6005 10.8212 14.21 11.2118L11.1114 14.3114C10.7209 14.7018 10.0879 14.7018 9.69733 14.3114C9.30678 13.9209 9.30687 13.2879 9.69733 12.8973L12.796 9.79773Z" fill="currentColor" />
</svg>