<svg xmlns="http://www.w3.org/2000/svg" width="24" height="24" viewBox="0 0 24 24" fill="none">
    <path d="M6.25012 6.25024V6.50024C6.25012 7.74288 7.25748 8.75024 8.50012 8.75024H8.75012L12.2501 12.2502H8.50012C7.25748 12.2502 6.25012 13.2576 6.25012 14.5002V21.7502H5.00012C3.48134 21.7502 2.25012 20.519 2.25012 19.0002V5.00024C2.25012 4.24085 2.55813 3.55356 3.05579 3.05591L6.25012 6.25024Z" fill="currentColor" />
    <path d="M16.2501 16.2502V21.7502H7.75012V14.5002C7.75012 14.086 8.08591 13.7502 8.50012 13.7502H13.7501L16.2501 16.2502Z" fill="currentColor" />
    <path d="M20.9445 20.9446C20.4468 21.4422 19.7595 21.7502 19.0001 21.7502H17.7501V17.7502L20.9445 20.9446Z" fill="currentColor" />
    <path d="M17.7501 2.31372C18.2635 2.42432 18.7393 2.67884 19.1163 3.05591L20.9445 4.88403C21.4601 5.39969 21.75 6.09913 21.7501 6.82837V18.2151L17.7257 14.1907C17.5886 13.1957 16.8038 12.4103 15.8087 12.2737L12.2853 8.75024H15.5001C16.7428 8.75024 17.7501 7.74288 17.7501 6.50024V2.31372Z" fill="currentColor" />
    <path d="M16.2501 6.50024C16.2501 6.91446 15.9143 7.25024 15.5001 7.25024H10.7853L7.75012 4.21509V2.25024H16.2501V6.50024Z" fill="currentColor" />
    <path d="M1.54314 1.54314C1.93366 1.15261 2.56668 1.15261 2.9572 1.54314L22.4572 21.0431C22.8477 21.4337 22.8477 22.0667 22.4572 22.4572C22.0667 22.8477 21.4337 22.8477 21.0431 22.4572L1.54314 2.9572C1.15261 2.56668 1.15261 1.93366 1.54314 1.54314Z" fill="currentColor" />
</svg>