<svg xmlns="http://www.w3.org/2000/svg" width="24" height="24" viewBox="0 0 24 24" fill="none">
    <path d="M6.25012 6.5C6.25012 7.74264 7.25748 8.75 8.50012 8.75H15.5001C16.7428 8.75 17.7501 7.74264 17.7501 6.5V2.31348C18.2635 2.42408 18.7393 2.6786 19.1163 3.05566L20.9445 4.88379C21.4601 5.39944 21.75 6.09889 21.7501 6.82812V19C21.7501 20.5188 20.5189 21.75 19.0001 21.75H17.7501V14.5C17.7501 13.2574 16.7428 12.25 15.5001 12.25H8.50012C7.25748 12.25 6.25012 13.2574 6.25012 14.5V21.75H5.00012C3.48134 21.75 2.25012 20.5188 2.25012 19V5C2.25012 3.48122 3.48134 2.25 5.00012 2.25H6.25012V6.5Z" fill="currentColor" />
    <path d="M15.5001 13.75C15.9143 13.75 16.2501 14.0858 16.2501 14.5V21.75H7.75012V14.5C7.75012 14.0858 8.08591 13.75 8.50012 13.75H15.5001Z" fill="currentColor" />
    <path d="M16.2501 6.5C16.2501 6.91421 15.9143 7.25 15.5001 7.25H8.50012C8.08591 7.25 7.75012 6.91421 7.75012 6.5V2.25H16.2501V6.5Z" fill="currentColor" />
</svg>