<svg xmlns="http://www.w3.org/2000/svg" width="24" height="24" viewBox="0 0 24 24" fill="none">
    <path d="M18.0039 11.0049C18.5562 11.0049 19.0039 11.4526 19.0039 12.0049C19.0039 12.5572 18.5562 13.0049 18.0039 13.0049H6.00391C5.45162 13.0049 5.00391 12.5572 5.00391 12.0049C5.00391 11.4526 5.45162 11.0049 6.00391 11.0049H18.0039Z" fill="currentColor" />
    <path d="M1.50391 19.5049V15.0049C1.50391 14.4526 1.95162 14.0049 2.50391 14.0049C3.05619 14.0049 3.50391 14.4526 3.50391 15.0049V19.5049C3.50391 20.0572 3.95162 20.5049 4.50391 20.5049H9.00391C9.55619 20.5049 10.0039 20.9526 10.0039 21.5049C10.0039 22.0572 9.55619 22.5049 9.00391 22.5049H4.50391C2.84705 22.5049 1.50391 21.1617 1.50391 19.5049ZM20.5039 19.5049V15.0049C20.5039 14.4526 20.9516 14.0049 21.5039 14.0049C22.0562 14.0049 22.5039 14.4526 22.5039 15.0049V19.5049C22.5039 21.1617 21.1608 22.5049 19.5039 22.5049H15.0039C14.4516 22.5049 14.0039 22.0572 14.0039 21.5049C14.0039 20.9526 14.4516 20.5049 15.0039 20.5049H19.5039C20.0562 20.5049 20.5039 20.0572 20.5039 19.5049ZM1.50391 9.00488V4.50488C1.50391 2.84803 2.84705 1.50488 4.50391 1.50488H9.00391C9.55619 1.50488 10.0039 1.9526 10.0039 2.50488C10.0039 3.05717 9.55619 3.50488 9.00391 3.50488H4.50391C3.95162 3.50488 3.50391 3.9526 3.50391 4.50488V9.00488C3.50391 9.55717 3.05619 10.0049 2.50391 10.0049C1.95162 10.0049 1.50391 9.55717 1.50391 9.00488ZM20.5039 9.00488V4.50488C20.5039 3.9526 20.0562 3.50488 19.5039 3.50488H15.0039C14.4516 3.50488 14.0039 3.05717 14.0039 2.50488C14.0039 1.9526 14.4516 1.50488 15.0039 1.50488H19.5039C21.1608 1.50488 22.5039 2.84803 22.5039 4.50488V9.00488C22.5039 9.55717 22.0562 10.0049 21.5039 10.0049C20.9516 10.0049 20.5039 9.55717 20.5039 9.00488Z" fill="currentColor" />
</svg>