<svg xmlns="http://www.w3.org/2000/svg" width="24" height="24" viewBox="0 0 24 24" fill="none">
    <path d="M1.75012 19.3211V16.3925C1.75012 15.8534 2.18718 15.4163 2.72631 15.4163C3.26545 15.4163 3.7025 15.8534 3.7025 16.3925V19.3211C3.7025 19.8602 4.13956 20.2973 4.67869 20.2973H7.60726C8.1464 20.2973 8.58346 20.7343 8.58346 21.2734C8.58346 21.8126 8.1464 22.2496 7.60726 22.2496H4.67869C3.06129 22.2496 1.75012 20.9385 1.75012 19.3211ZM20.2977 19.3211V16.3925C20.2977 15.8534 20.7348 15.4163 21.2739 15.4163C21.8131 15.4163 22.2501 15.8534 22.2501 16.3925V19.3211C22.2501 20.9385 20.939 22.2496 19.3216 22.2496H16.393C15.8538 22.2496 15.4168 21.8126 15.4168 21.2734C15.4168 20.7343 15.8538 20.2973 16.393 20.2973H19.3216C19.8607 20.2973 20.2977 19.8602 20.2977 19.3211ZM1.75012 7.60678V4.67821C1.75012 3.0608 3.06129 1.74963 4.67869 1.74963H7.60726C8.1464 1.74963 8.58346 2.18669 8.58346 2.72582C8.58346 3.26496 8.1464 3.70201 7.60726 3.70201H4.67869C4.13956 3.70201 3.7025 4.13907 3.7025 4.67821V7.60678C3.7025 8.14591 3.26545 8.58297 2.72631 8.58297C2.18718 8.58297 1.75012 8.14591 1.75012 7.60678ZM20.2977 7.60678V4.67821C20.2977 4.13907 19.8607 3.70201 19.3216 3.70201H16.393C15.8538 3.70201 15.4168 3.26496 15.4168 2.72582C15.4168 2.18669 15.8538 1.74963 16.393 1.74963H19.3216C20.939 1.74963 22.2501 3.0608 22.2501 4.67821V7.60678C22.2501 8.14591 21.8131 8.58297 21.2739 8.58297C20.7348 8.58297 20.2977 8.14591 20.2977 7.60678Z" fill="currentColor" />
    <path d="M11.6202 18.0914C11.8548 18.2292 12.1454 18.2292 12.38 18.0914C12.4271 18.0628 12.572 17.9751 12.6573 17.9214C12.8283 17.8139 13.0706 17.6576 13.3605 17.4595C13.9392 17.0642 14.7146 16.4976 15.4933 15.8179C16.2686 15.1412 17.0681 14.3343 17.6788 13.4537C18.2844 12.5804 18.7501 11.5693 18.7501 10.5005C18.7501 8.42515 17.177 6.69489 15.0001 6.69489C14.0203 6.69489 13.0819 6.9943 12.0001 7.90289C10.9184 6.9943 9.9799 6.69489 9.00012 6.69489C6.8232 6.69489 5.25012 8.42515 5.25012 10.5005C5.25015 11.5693 5.71582 12.5804 6.32141 13.4537C6.93212 14.3343 7.73166 15.1412 8.50696 15.8179C9.28566 16.4976 10.0611 17.0642 10.6398 17.4595C10.9297 17.6576 11.1719 17.8139 11.3429 17.9214C11.4283 17.9751 11.5732 18.0628 11.6202 18.0914Z" fill="currentColor" />
</svg>