<svg xmlns="http://www.w3.org/2000/svg" width="24" height="24" viewBox="0 0 24 24" fill="none">
    <path fill-rule="evenodd" clip-rule="evenodd" d="M12 1.875C12.4741 1.875 12.9376 2.01538 13.3321 2.27832L20.416 7.00098C20.7607 7.23074 20.8538 7.69637 20.624 8.04102C20.3943 8.38562 19.9286 8.47878 19.584 8.24902L18.75 7.69238V22.375H14.75V17.625C14.75 16.1062 13.5188 14.875 12 14.875C10.4813 14.875 9.25002 16.1062 9.25002 17.625V22.375H5.25002V7.69238L4.41604 8.24902C4.0714 8.47873 3.60575 8.38564 3.376 8.04102C3.14629 7.6964 3.23944 7.23075 3.58401 7.00098L10.668 2.27832C11.0624 2.01536 11.526 1.87502 12 1.875ZM12 16.375C12.6904 16.375 13.25 16.9346 13.25 17.625V22.375H10.75V17.625C10.75 16.9347 11.3097 16.375 12 16.375ZM12 7.625C10.8955 7.62502 10 8.52044 10 9.625C10 10.7296 10.8955 11.625 12 11.625C13.1046 11.625 14 10.7296 14 9.625C14 8.52043 13.1046 7.625 12 7.625Z" fill="currentColor" />
    <path d="M4 22.374L3.71875 22.3594C2.33216 22.2185 1.2501 21.0478 1.25 19.624V14.2422C1.25 13.5794 1.62495 12.9732 2.21777 12.6768L4 11.7852V22.374Z" fill="currentColor" />
    <path d="M21.7822 12.6768C22.3751 12.9732 22.75 13.5794 22.75 14.2422V19.624C22.7499 21.1427 21.5187 22.374 20 22.374V11.7852L21.7822 12.6768Z" fill="currentColor" />
</svg>