<svg xmlns="http://www.w3.org/2000/svg" width="24" height="24" viewBox="0 0 24 24" fill="none">
    <path d="M12 2.25C12.494 2.25 12.9736 2.41798 13.3594 2.72656L17.7637 6.25H20C21.5188 6.25 22.75 7.48122 22.75 9V19C22.75 20.5188 21.5188 21.75 20 21.75H4C2.48122 21.75 1.25 20.5188 1.25 19V9C1.25 7.48122 2.48122 6.25 4 6.25H6.23633L10.6406 2.72656C11.0264 2.41798 11.506 2.25 12 2.25ZM12 15.5C10.8954 15.5 10 16.3954 10 17.5V20.25H14V17.5C14 16.3954 13.1046 15.5 12 15.5ZM5.5 14.75C5.08579 14.75 4.75 15.0858 4.75 15.5V16.5C4.75 16.9142 5.08579 17.25 5.5 17.25H6.5C6.88817 17.25 7.20747 16.9551 7.24609 16.5771L7.25 16.5V15.5C7.25 15.1118 6.95512 14.7925 6.57715 14.7539L6.5 14.75H5.5ZM17.5 14.75C17.0858 14.75 16.75 15.0858 16.75 15.5V16.5C16.75 16.9142 17.0858 17.25 17.5 17.25H18.5C18.8882 17.25 19.2075 16.9551 19.2461 16.5771L19.25 16.5V15.5C19.25 15.1118 18.9551 14.7925 18.5771 14.7539L18.5 14.75H17.5ZM5.5 10.25C5.08579 10.25 4.75 10.5858 4.75 11V12C4.75 12.4142 5.08579 12.75 5.5 12.75H6.5C6.88817 12.75 7.20747 12.4551 7.24609 12.0771L7.25 12V11C7.25 10.6118 6.95512 10.2925 6.57715 10.2539L6.5 10.25H5.5ZM17.5 10.25C17.0858 10.25 16.75 10.5858 16.75 11V12C16.75 12.4142 17.0858 12.75 17.5 12.75H18.5C18.8882 12.75 19.2075 12.4551 19.2461 12.0771L19.25 12V11C19.25 10.6118 18.9551 10.2925 18.5771 10.2539L18.5 10.25H17.5ZM12 7C10.6193 7 9.5 8.1193 9.5 9.5C9.5 10.8807 10.6193 12 12 12C13.3807 12 14.5 10.8807 14.5 9.5C14.5 8.1193 13.3807 7 12 7Z" fill="currentColor" />
</svg>