<svg xmlns="http://www.w3.org/2000/svg" width="24" height="24" viewBox="0 0 24 24" fill="none">
    <path fill-rule="evenodd" clip-rule="evenodd" d="M10.5039 16.7549C10.5039 16.2026 10.9516 15.7549 11.5039 15.7549H12.5039C13.0562 15.7549 13.5039 16.2026 13.5039 16.7549V19.2549C13.5039 19.531 13.7278 19.7549 14.0039 19.7549H16.0039C16.5562 19.7549 17.0039 20.2026 17.0039 20.7549C17.0039 21.3072 16.5562 21.7549 16.0039 21.7549H8.00391C7.45162 21.7549 7.00391 21.3072 7.00391 20.7549C7.00391 20.2026 7.45162 19.7549 8.00391 19.7549H10.0039C10.28 19.7549 10.5039 19.531 10.5039 19.2549V16.7549Z" fill="currentColor" />
    <path d="M20.0039 2.25488C21.5227 2.25488 22.7539 3.4861 22.7539 5.00488V15.0049C22.7539 16.2416 21.9375 17.2877 20.8142 17.6336L15.0518 11.8712L16.711 10.212C17.1015 9.82147 17.1015 9.1883 16.711 8.79778L14.211 6.29778C13.8205 5.90725 13.1873 5.90725 12.7968 6.29778C12.4063 6.6883 12.4063 7.32147 12.7968 7.71199L13.5897 8.50488H11.6855L5.43555 2.25488H20.0039Z" fill="currentColor" />
    <path d="M4.00391 17.7549C2.48512 17.7549 1.25391 16.5237 1.25391 15.0049V5.00488C1.25391 3.98884 1.80493 3.10149 2.62445 2.62537L9.1473 9.14824C8.45092 9.69761 8.00391 10.549 8.00391 11.5049V13.0049C8.00391 13.5572 8.45162 14.0049 9.00391 14.0049C9.55619 14.0049 10.0039 13.5572 10.0039 13.0049V11.5049C10.0039 11.0993 10.2453 10.7502 10.5923 10.5932L17.7539 17.7549H4.00391Z" fill="currentColor" />
    <path d="M2.00391 2.00488L22.0039 22.0049" stroke="currentColor" stroke-width="2" stroke-linecap="round" />
</svg>