<svg xmlns="http://www.w3.org/2000/svg" width="24" height="24" viewBox="0 0 24 24" fill="none">
    <path d="M16.043 16.0426C16.4335 15.6521 17.0666 15.6521 17.4571 16.0426L21.4571 20.0426C21.8476 20.4331 21.8476 21.0661 21.4571 21.4567C21.0666 21.8472 20.4335 21.8472 20.043 21.4567L16.043 17.4567C15.6525 17.0661 15.6525 16.4331 16.043 16.0426Z" fill="currentColor" />
    <path d="M11.0001 19.7496C15.8326 19.7496 19.7501 15.832 19.7501 10.9996C19.7501 6.16707 15.8326 2.24956 11.0001 2.24956C6.16763 2.24956 2.25012 6.16707 2.25012 10.9996C2.25012 15.832 6.16763 19.7496 11.0001 19.7496ZM9.70715 14.2066C9.31662 14.597 8.68359 14.5971 8.29309 14.2066L5.79309 11.7066C5.40259 11.3161 5.40264 10.6831 5.79309 10.2925L8.29309 7.79253C8.68362 7.402 9.31663 7.402 9.70715 7.79253C10.0977 8.18305 10.0977 8.81606 9.70715 9.20659L7.91418 10.9996L9.70715 12.7925C10.0977 13.1831 10.0977 13.8161 9.70715 14.2066ZM13.7072 14.2066C13.3167 14.5971 12.6836 14.597 12.2931 14.2066C11.9026 13.8161 11.9026 13.1831 12.2931 12.7925L14.0861 10.9996L12.2931 9.20659C11.9026 8.81606 11.9026 8.18305 12.2931 7.79253C12.6836 7.402 13.3166 7.402 13.7072 7.79253L16.2072 10.2925C16.5976 10.6831 16.5977 11.3161 16.2072 11.7066L13.7072 14.2066Z" fill="currentColor" />
</svg>