<svg xmlns="http://www.w3.org/2000/svg" width="24" height="24" viewBox="0 0 24 24" fill="none">
    <path d="M12 1.2498C15.7843 1.2498 19.2112 2.46547 21.4902 4.43144C21.6554 4.57391 21.75 4.78169 21.75 4.9998V10.9998L21.7432 11.4002C21.5981 15.5008 19.2376 18.3201 16.96 20.0916C15.7824 21.0075 14.609 21.6593 13.7314 22.0818C13.2946 22.2922 12.5078 22.6044 12.2422 22.7098L12.2373 22.7117C12.0834 22.763 11.9166 22.763 11.7627 22.7117L11.7578 22.7098C11.4921 22.6043 10.7053 22.2921 10.2686 22.0818C9.39093 21.6593 8.2167 21.0075 7.03906 20.0916C4.68814 18.263 2.25 15.3178 2.25 10.9998V4.9998C2.25 4.78169 2.34461 4.57391 2.50977 4.43144C4.7888 2.46547 8.21568 1.2498 12 1.2498ZM12 14.4998C11.4477 14.4998 11 14.9475 11 15.4998C11 16.0521 11.4477 16.4998 12 16.4998H12.0098C12.5619 16.4997 13.0098 16.052 13.0098 15.4998C13.0098 14.9476 12.5619 14.4999 12.0098 14.4998H12ZM12.0039 10.492C10.868 10.4897 9.76513 10.8747 8.87695 11.5828C8.44517 11.9271 8.37353 12.5563 8.71777 12.9881C9.06206 13.4197 9.69127 13.4904 10.123 13.1463C10.656 12.7214 11.3184 12.4906 12 12.492C12.6814 12.4935 13.342 12.7272 13.873 13.1541C14.3035 13.5 14.9333 13.4312 15.2793 13.0008C15.625 12.5705 15.5568 11.9416 15.127 11.5955C14.2417 10.8838 13.1398 10.4943 12.0039 10.492ZM12 6.4998C9.95521 6.4998 7.97124 7.19645 6.375 8.47441C5.94397 8.81961 5.87458 9.4486 6.21973 9.87968C6.56494 10.3106 7.19394 10.3801 7.625 10.035C8.86647 9.04112 10.4097 8.4998 12 8.4998C13.5903 8.49985 15.1336 9.0411 16.375 10.035C16.8061 10.38 17.4351 10.3107 17.7803 9.87968C18.1253 9.44864 18.0559 8.8196 17.625 8.47441C16.0288 7.19643 14.0448 6.49985 12 6.4998Z" fill="currentColor" />
</svg>