<svg xmlns="http://www.w3.org/2000/svg" width="24" height="24" viewBox="0 0 24 24" fill="none">
    <path d="M18.7183 2.37562C20.5194 1.77532 22.2326 3.48856 21.6323 5.28969L16.6694 20.1793C15.9841 22.2349 13.0981 22.2932 12.3296 20.2672L10.0952 14.3786C10.0136 14.1638 9.84418 13.9943 9.62939 13.9127L3.74072 11.6784C1.71471 10.9099 1.77309 8.02389 3.82861 7.33851L18.7183 2.37562ZM16.2106 7.7975C15.82 7.40697 15.187 7.40697 14.7965 7.7975L11.7965 10.7975C11.406 11.188 11.406 11.821 11.7965 12.2116C12.187 12.6021 12.82 12.6021 13.2106 12.2116L16.2106 9.21156C16.6011 8.82104 16.6011 8.18802 16.2106 7.7975Z" fill="currentColor" />
</svg>