<svg xmlns="http://www.w3.org/2000/svg" width="24" height="24" viewBox="0 0 24 24" fill="none">
    <path d="M8.50012 10.75C9.74276 10.75 10.7501 9.74264 10.7501 8.5V3.5C10.7501 2.25736 9.74276 1.25 8.50012 1.25H3.50012C2.25748 1.25 1.25012 2.25736 1.25012 3.5V8.5C1.25012 9.74264 2.25748 10.75 3.50012 10.75H8.50012Z" fill="currentColor" />
    <path d="M20.5001 22.75C21.7428 22.75 22.7501 21.7426 22.7501 20.5V15.5C22.7501 14.2574 21.7428 13.25 20.5001 13.25H15.5001C14.2575 13.25 13.2501 14.2574 13.2501 15.5V20.5C13.2501 21.7426 14.2575 22.75 15.5001 22.75H20.5001Z" fill="currentColor" />
    <path d="M5.00012 16V14C5.00012 13.4477 5.44784 13 6.00012 13C6.55241 13 7.00012 13.4477 7.00012 14V16C7.00012 16.5523 7.44784 17 8.00012 17H10.0001C10.5524 17 11.0001 17.4477 11.0001 18C11.0001 18.5523 10.5524 19 10.0001 19H8.00012C6.34327 19 5.00012 17.6569 5.00012 16ZM17.0001 10V8C17.0001 7.44772 16.5524 7 16.0001 7H14.0001C13.4478 7 13.0001 6.55228 13.0001 6C13.0001 5.44772 13.4478 5 14.0001 5H16.0001C17.657 5 19.0001 6.34315 19.0001 8V10C19.0001 10.5523 18.5524 11 18.0001 11C17.4478 11 17.0001 10.5523 17.0001 10Z" fill="currentColor" />
</svg>