<svg xmlns="http://www.w3.org/2000/svg" width="24" height="24" viewBox="0 0 24 24" fill="none">
    <path d="M11.3692 2.22462C11.762 1.90427 12.341 1.92686 12.7071 2.29298L16.7071 6.29298C17.0976 6.6835 17.0976 7.31652 16.7071 7.70704C16.3166 8.09756 15.6835 8.09756 15.293 7.70704L12 4.41407L8.70708 7.70704C8.31655 8.09756 7.68354 8.09756 7.29302 7.70704C6.90249 7.31652 6.90249 6.6835 7.29302 6.29298L11.293 2.29298L11.3692 2.22462Z" fill="currentColor" />
    <path d="M15.293 16.2929C15.6835 15.9024 16.3166 15.9024 16.7071 16.2929C17.0976 16.6834 17.0976 17.3164 16.7071 17.707L12.7071 21.707C12.3166 22.0975 11.6835 22.0975 11.293 21.707L7.29302 17.707C6.90249 17.3164 6.90249 16.6834 7.29302 16.2929C7.68354 15.9024 8.31655 15.9024 8.70708 16.2929L12 19.5859L15.293 16.2929Z" fill="currentColor" />
    <path d="M21 11C21.5523 11 22 11.4477 22 12C22 12.5523 21.5523 13 21 13H3C2.44772 13 2 12.5523 2 12C2 11.4477 2.44772 11 3 11H21Z" fill="currentColor" />
</svg>