<svg xmlns="http://www.w3.org/2000/svg" width="24" height="24" viewBox="0 0 24 24" fill="none">
    <path d="M15.2129 10.75C16.0618 10.75 16.75 10.0618 16.75 9.21289C16.75 8.94085 16.678 8.67349 16.541 8.43848L13.3994 3.05371C13.109 2.55607 12.5762 2.25 12 2.25C11.4238 2.25 10.891 2.55607 10.6006 3.05371L7.45898 8.43848C7.32197 8.67349 7.25 8.94085 7.25 9.21289C7.25004 10.0618 7.93821 10.75 8.78711 10.75H15.2129Z" fill="currentColor" />
    <path d="M17.5 21.75C19.8472 21.75 21.75 19.8472 21.75 17.5C21.75 15.1528 19.8472 13.25 17.5 13.25C15.1528 13.25 13.25 15.1528 13.25 17.5C13.25 19.8472 15.1528 21.75 17.5 21.75Z" fill="currentColor" />
    <path d="M9 21.75C9.9665 21.75 10.75 20.9665 10.75 20V15C10.75 14.0335 9.9665 13.25 9 13.25H4C3.0335 13.25 2.25 14.0335 2.25 15V20C2.25 20.9665 3.0335 21.75 4 21.75H9Z" fill="currentColor" />
</svg>