<svg xmlns="http://www.w3.org/2000/svg" width="24" height="24" viewBox="0 0 24 24" fill="none">
    <path fill-rule="evenodd" clip-rule="evenodd" d="M18.5038 22.2538C20.5749 22.2538 22.2538 20.5749 22.2538 18.5038V17.5038H16.5038V22.2538H18.5038ZM14.5038 22.2538V17.5038H9.50383V22.2538H14.5038ZM7.50383 22.2538V17.5038H1.75383V18.5038C1.75383 20.5749 3.43276 22.2538 5.50383 22.2538H7.50383ZM1.75383 15.5038H7.50383V11.0038H1.75383V15.5038ZM1.75383 9.00385H22.2538V5.50385C22.2538 3.43278 20.5749 1.75385 18.5038 1.75385H5.50383C3.43276 1.75385 1.75383 3.43278 1.75383 5.50385V9.00385ZM22.2538 11.0038H16.5038V15.5038H22.2538V11.0038ZM9.50383 15.5038H14.5038V11.0038H9.50383V15.5038Z" fill="currentColor" />
</svg>