<svg xmlns="http://www.w3.org/2000/svg" width="24" height="24" viewBox="0 0 24 24" fill="none">
    <path d="M12.0002 1.24951C14.7623 1.24951 17.2069 2.63842 18.9425 4.64502C20.6763 6.64947 21.7502 9.32067 21.7502 11.9995C21.7502 14.6799 20.6678 17.3514 18.9308 19.355C17.1924 21.3602 14.7482 22.7495 12.0002 22.7495C8.55301 22.7495 6.09614 21.4987 4.50699 19.7456C2.9354 18.0118 2.25015 15.8285 2.25015 13.9995C2.25015 11.5763 3.06204 9.62708 4.40738 8.28174C5.74858 6.94053 7.57052 6.24951 9.50015 6.24951C11.065 6.24951 12.3609 6.80395 13.2677 7.76416C14.1771 8.72704 14.7502 10.157 14.7502 11.9995C14.7502 13.3291 14.3103 14.3788 13.5949 15.0942C12.8795 15.8096 11.8297 16.2495 10.5002 16.2495C9.49054 16.2495 8.82589 15.8331 8.39761 15.2983C7.94937 14.7384 7.75015 14.0318 7.75015 13.4995C7.75015 12.533 8.53365 11.7495 9.50015 11.7495C10.0721 11.7495 10.58 12.023 10.9005 12.4497C11.1493 12.7808 11.6192 12.8478 11.9503 12.5991C12.2815 12.3504 12.3484 11.8805 12.0998 11.5493C11.5081 10.7617 10.564 10.2495 9.50015 10.2495C7.70523 10.2495 6.25015 11.7046 6.25015 13.4995C6.25015 14.3478 6.55109 15.391 7.22769 16.2358C7.92443 17.1058 9.00984 17.7495 10.5002 17.7495C12.1706 17.7495 13.6208 17.1894 14.6554 16.1548C15.69 15.1202 16.2502 13.6699 16.2502 11.9995C16.2502 9.84201 15.5732 8.02198 14.3576 6.73486C13.2995 5.61451 11.8745 4.94286 10.2502 4.78564V2.99951C10.2502 2.03303 11.0337 1.24954 12.0002 1.24951Z" fill="currentColor" />
</svg>