<svg xmlns="http://www.w3.org/2000/svg" width="24" height="24" viewBox="0 0 24 24" fill="none">
    <path d="M4.00391 21.0039V3.00391C4.00391 2.45162 4.45162 2.00391 5.00391 2.00391C5.55619 2.00391 6.00391 2.45162 6.00391 3.00391V21.0039C6.00391 21.5562 5.55619 22.0039 5.00391 22.0039C4.45162 22.0039 4.00391 21.5562 4.00391 21.0039Z" fill="currentColor" />
    <path d="M19.0039 11.0039C19.5562 11.0039 20.0039 11.4516 20.0039 12.0039C20.0039 12.5562 19.5562 13.0039 19.0039 13.0039H5.00391C4.45162 13.0039 4.00391 12.5562 4.00391 12.0039C4.00391 11.4516 4.45162 11.0039 5.00391 11.0039H19.0039Z" fill="currentColor" />
    <path d="M18.0039 21.0039V3.00391C18.0039 2.45162 18.4516 2.00391 19.0039 2.00391C19.5562 2.00391 20.0039 2.45162 20.0039 3.00391V21.0039C20.0039 21.5562 19.5562 22.0039 19.0039 22.0039C18.4516 22.0039 18.0039 21.5562 18.0039 21.0039Z" fill="currentColor" />
    <path d="M19.0039 4.00391C19.5562 4.00391 20.0039 4.45162 20.0039 5.00391C20.0039 5.55619 19.5562 6.00391 19.0039 6.00391H5.00391C4.45162 6.00391 4.00391 5.55619 4.00391 5.00391C4.00391 4.45162 4.45162 4.00391 5.00391 4.00391H19.0039Z" fill="currentColor" />
    <path d="M19.0039 18.0039C19.5562 18.0039 20.0039 18.4516 20.0039 19.0039C20.0039 19.5562 19.5562 20.0039 19.0039 20.0039H5.00391C4.45162 20.0039 4.00391 19.5562 4.00391 19.0039C4.00391 18.4516 4.45162 18.0039 5.00391 18.0039H19.0039Z" fill="currentColor" />
    <path d="M16.0039 14.2539C16.4181 14.2539 16.7539 14.5897 16.7539 15.0039V19.0039C16.7539 19.4181 16.4181 19.7539 16.0039 19.7539H12.0039C11.5897 19.7539 11.2539 19.4181 11.2539 19.0039V15.0039C11.2539 14.5897 11.5897 14.2539 12.0039 14.2539H16.0039Z" fill="currentColor" />
    <path d="M12.0039 7.25391C12.4181 7.25391 12.7539 7.58969 12.7539 8.00391V12.0039C12.7539 12.4181 12.4181 12.7539 12.0039 12.7539H8.00391C7.58969 12.7539 7.25391 12.4181 7.25391 12.0039V8.00391C7.25391 7.58969 7.58969 7.25391 8.00391 7.25391H12.0039Z" fill="currentColor" />
</svg>