<svg xmlns="http://www.w3.org/2000/svg" width="24" height="24" viewBox="0 0 24 24" fill="none">
    <path d="M12.0047 22.0035C11.824 22.0037 11.6432 21.9642 11.4724 21.885C9.54108 20.9895 3.00346 17.4831 3.00346 11.0546V6.12679C3.00346 5.35179 3.58898 4.70856 4.34834 4.57656C7.40848 4.04462 9.94887 2.86126 11.1882 2.20508C11.6958 1.93636 12.3111 1.93636 12.8187 2.20508C14.058 2.86126 16.5984 4.04462 19.6586 4.57656C20.4179 4.70856 21.0035 5.35179 21.0035 6.12679V11.0546C21.0035 11.3783 20.9869 11.6946 20.9551 12.0035" stroke="currentColor" stroke-width="2" stroke-linecap="round" />
    <path fill-rule="evenodd" clip-rule="evenodd" d="M21.2089 14.3015C21.5516 13.3116 21.7535 12.2295 21.7535 11.054V6.12624C21.7534 4.95786 20.8761 4.02655 19.7867 3.83717C16.8337 3.3238 14.3714 2.1786 13.1695 1.54225C12.4424 1.1573 11.5645 1.1573 10.8374 1.54225C9.63553 2.1786 7.17322 3.3238 4.22025 3.83717C3.13084 4.02655 2.25356 4.95786 2.25346 6.12624V11.054C2.25346 14.5447 4.03321 17.2113 5.99564 19.0862C7.95541 20.9585 10.1552 22.1003 11.1568 22.5647C11.6976 22.8155 12.3093 22.8155 12.8501 22.5647C13.1108 22.4438 13.4526 22.2771 13.8503 22.0635C13.4288 21.8798 13.0598 21.5653 12.8101 21.1373C12.2415 20.1626 12.4903 18.9395 13.3443 18.2535C12.4903 17.5676 12.2415 16.3445 12.8101 15.3698C13.3697 14.4106 14.5283 14.0217 15.5347 14.3961C15.7061 13.3236 16.6326 12.5036 17.7535 12.5035C18.8742 12.5036 19.7997 13.3237 19.9712 14.3961C20.3754 14.2456 20.8042 14.2182 21.2089 14.3015ZM14.7964 7.79616C15.1869 7.40563 15.82 7.40563 16.2105 7.79616C16.601 8.18668 16.601 8.8197 16.2105 9.21022L11.2105 14.2102C10.82 14.6007 10.1869 14.6007 9.79642 14.2102L7.79642 12.2102C7.4059 11.8197 7.4059 11.1867 7.79642 10.7962C8.18695 10.4056 8.81996 10.4056 9.21049 10.7962L10.5035 12.0891L14.7964 7.79616Z" fill="currentColor" />
    <path d="M18.7535 18.2535C18.7535 18.0682 18.7036 17.8976 18.6177 17.7506C18.4427 17.4513 18.1207 17.2535 17.7535 17.2535C17.3862 17.2535 17.0642 17.4513 16.8892 17.7506C16.8033 17.8976 16.7535 18.0682 16.7535 18.2535C16.7535 18.4389 16.8033 18.6095 16.8892 18.7565C17.0642 19.0558 17.3862 19.2535 17.7535 19.2535C18.1207 19.2535 18.4427 19.0558 18.6177 18.7565C18.7036 18.6095 18.7535 18.4389 18.7535 18.2535ZM20.7535 18.2535C20.7535 18.4449 20.7342 18.6322 20.6997 18.8141L21.2574 19.1393C21.7343 19.4175 21.8958 20.0304 21.6177 20.5074C21.3395 20.9844 20.7266 21.1459 20.2495 20.8678L19.691 20.5416C19.4164 20.7743 19.1 20.9591 18.7535 21.0817V21.7535C18.7535 22.3058 18.3057 22.7535 17.7535 22.7535C17.2012 22.7535 16.7535 22.3058 16.7535 21.7535V21.0817C16.4067 20.959 16.0897 20.7745 15.815 20.5416L15.2574 20.8678C14.7803 21.1459 14.1674 20.9844 13.8892 20.5074C13.6111 20.0304 13.7726 19.4175 14.2495 19.1393L14.8062 18.8141C14.7717 18.6322 14.7535 18.4448 14.7535 18.2535C14.7535 18.0619 14.7716 17.8742 14.8062 17.692L14.2495 17.3678C13.7726 17.0896 13.6111 16.4767 13.8892 15.9996C14.1674 15.5226 14.7803 15.3611 15.2574 15.6393L15.815 15.9645C16.0896 15.7317 16.4068 15.547 16.7535 15.4244V14.7535C16.7535 14.2013 17.2012 13.7536 17.7535 13.7535C18.3057 13.7535 18.7535 14.2013 18.7535 14.7535V15.4244C19.0999 15.547 19.4164 15.7319 19.691 15.9645L20.2495 15.6393C20.7266 15.3611 21.3395 15.5226 21.6177 15.9996C21.8958 16.4767 21.7344 17.0896 21.2574 17.3678L20.6997 17.692C20.7343 17.8742 20.7535 18.0619 20.7535 18.2535Z" fill="currentColor" />
</svg>