<svg xmlns="http://www.w3.org/2000/svg" width="24" height="24" viewBox="0 0 24 24" fill="none">
    <path d="M11 22.5605C10.7386 22.4518 10.4672 22.3359 10.2686 22.2402C9.39093 21.8177 8.2167 21.1659 7.03906 20.25C4.68814 18.4214 2.25 15.4762 2.25 11.1582V5.1582C2.25 4.94009 2.34461 4.73231 2.50977 4.58984C4.58622 2.79863 7.61566 1.63302 11 1.43945V22.5605ZM13 1.43945C16.3843 1.63302 19.4138 2.79863 21.4902 4.58984C21.6554 4.73231 21.75 4.94009 21.75 5.1582V11.1582L21.7432 11.5586C21.5981 15.6592 19.2376 18.4785 16.96 20.25C15.7824 21.1659 14.609 21.8177 13.7314 22.2402C13.5328 22.3359 13.2614 22.4518 13 22.5605V1.43945Z" fill="currentColor" />
</svg>