<svg xmlns="http://www.w3.org/2000/svg" width="24" height="24" viewBox="0 0 24 24" fill="none">
    <path d="M12 1.25C15.7843 1.25 19.2112 2.46567 21.4902 4.43164C21.6554 4.57411 21.75 4.78188 21.75 5V11L21.7432 11.4004C21.5981 15.501 19.2376 18.3203 16.96 20.0918C15.7824 21.0077 14.609 21.6595 13.7314 22.082C13.2946 22.2924 12.5078 22.6046 12.2422 22.71L12.2373 22.7119C12.0834 22.7632 11.9166 22.7632 11.7627 22.7119L11.7578 22.71C11.4921 22.6045 10.7053 22.2923 10.2686 22.082C9.39093 21.6595 8.2167 21.0077 7.03906 20.0918C4.68814 18.2632 2.25 15.318 2.25 11V5C2.25 4.78188 2.34461 4.57411 2.50977 4.43164C4.7888 2.46567 8.21568 1.25 12 1.25ZM12 15.25C11.4477 15.25 11 15.6977 11 16.25C11 16.8023 11.4477 17.25 12 17.25C12.5523 17.25 13 16.8023 13 16.25C13 15.6977 12.5523 15.25 12 15.25ZM12 5.5C10.067 5.5 8.5 7.067 8.5 9C8.5 9.55228 8.94772 10 9.5 10C10.0523 10 10.5 9.55228 10.5 9C10.5 8.17158 11.1716 7.5 12 7.5C12.8284 7.5 13.5 8.17158 13.5 9C13.5 9.51305 13.2432 9.96628 12.8467 10.2383C12.4769 10.4917 12.0355 10.8308 11.6807 11.2578C11.322 11.6896 11 12.2754 11 13C11 13.5523 11.4477 14 12 14C12.5523 14 13 13.5523 13 13C13 12.8962 13.0426 12.7483 13.2188 12.5361C13.3989 12.3193 13.6632 12.1035 13.9766 11.8887C14.8942 11.2598 15.5 10.2006 15.5 9C15.5 7.067 13.933 5.5 12 5.5Z" fill="currentColor" />
</svg>