<svg xmlns="http://www.w3.org/2000/svg" width="24" height="24" viewBox="0 0 24 24" fill="none">
    <path d="M17.8906 19.3045C17.5823 19.5862 17.2711 19.8496 16.96 20.0916C15.7824 21.0074 14.609 21.6593 13.7314 22.0818C13.2946 22.2922 12.5078 22.6044 12.2422 22.7098L12.2373 22.7117C12.0834 22.763 11.9166 22.763 11.7627 22.7117L11.7578 22.7098C11.4921 22.6043 10.7054 22.2922 10.2686 22.0818C9.39096 21.6593 8.21666 21.0075 7.03906 20.0916C4.68819 18.263 2.25009 15.3177 2.25 10.9998V4.99982C2.25 4.78175 2.34468 4.57393 2.50977 4.43146C2.60026 4.3534 2.69207 4.27568 2.78613 4.20001L17.8906 19.3045ZM12 1.24982C15.7843 1.24982 19.2112 2.46549 21.4902 4.43146C21.6553 4.57393 21.75 4.78175 21.75 4.99982V10.9998L21.7432 11.4002C21.6485 14.0751 20.6078 16.2021 19.2656 17.8514L4.48438 3.07013C6.5767 1.91995 9.18979 1.24982 12 1.24982Z" fill="currentColor" />
</svg>