<svg xmlns="http://www.w3.org/2000/svg" width="24" height="24" viewBox="0 0 24 24" fill="none">
    <path fill-rule="evenodd" clip-rule="evenodd" d="M14.6465 1.25C15.7471 1.25016 16.7538 1.87204 17.2461 2.85645L18.6475 5.66016C18.7147 5.79467 18.75 5.94336 18.75 6.09375V13.8438C18.75 15.4488 17.4488 16.75 15.8438 16.75H6.15625C4.55117 16.75 3.25 15.4488 3.25 13.8438V6.09375C3.25 5.94336 3.28528 5.79467 3.35254 5.66016L4.75391 2.85645C5.24616 1.87204 6.25291 1.25016 7.35352 1.25H14.6465ZM9.5 8C8.94772 8 8.5 8.44772 8.5 9C8.5 9.55229 8.94772 10 9.5 10H12.5C13.0523 10 13.5 9.55229 13.5 9C13.5 8.44772 13.0523 8 12.5 8H9.5ZM7.35449 3.1875C6.98779 3.18758 6.65242 3.39476 6.48828 3.72266L5.78711 5.125H16.2148L15.5137 3.72266C15.3495 3.3946 15.0133 3.1875 14.6465 3.1875H7.35449Z" fill="currentColor" />
    <path fill-rule="evenodd" clip-rule="evenodd" d="M2.25 16.1875C2.25 15.6697 2.68652 15.25 3.225 15.25H17.85C20.0039 15.25 21.75 16.9289 21.75 19C21.75 21.0711 20.0039 22.75 17.85 22.75H3.225C2.68652 22.75 2.25 22.3303 2.25 21.8125C2.25 21.2947 2.68652 20.875 3.225 20.875H17.85C18.927 20.875 19.8 20.0355 19.8 19C19.8 17.9645 18.927 17.125 17.85 17.125H3.225C2.68652 17.125 2.25 16.7053 2.25 16.1875Z" fill="currentColor" />
    <path fill-rule="evenodd" clip-rule="evenodd" d="M4 19C4 18.4477 4.44772 18 5 18H5.00898C5.56126 18 6.00898 18.4477 6.00898 19C6.00898 19.5523 5.56126 20 5.00898 20H5C4.44772 20 4 19.5523 4 19ZM9.99551 19C9.99551 18.4477 10.4432 18 10.9955 18H11.0045C11.5568 18 12.0045 18.4477 12.0045 19C12.0045 19.5523 11.5568 20 11.0045 20H10.9955C10.4432 20 9.99551 19.5523 9.99551 19ZM15.991 19C15.991 18.4477 16.4387 18 16.991 18H17C17.5523 18 18 18.4477 18 19C18 19.5523 17.5523 20 17 20H16.991C16.4387 20 15.991 19.5523 15.991 19Z" fill="currentColor" />
</svg>