<svg xmlns="http://www.w3.org/2000/svg" width="24" height="24" viewBox="0 0 24 24" fill="none">
    <path d="M9 9.99992C9.55225 9.99988 10 9.55218 10 8.99992L10 4.99992C9.99997 4.44769 9.55223 3.99996 9 3.99992C8.44773 3.99992 8.00003 4.44766 8 4.99992V6.58586L3.70703 2.29289C3.31653 1.90239 2.6835 1.90243 2.29297 2.29289C1.90244 2.68342 1.90244 3.31643 2.29297 3.70695L6.58594 7.99992H5C4.44773 7.99992 4.00003 8.44766 4 8.99992C4 9.55221 4.44772 9.99992 5 9.99992L9 9.99992ZM19 9.99992C19.5523 9.99992 20 9.55221 20 8.99992C20 8.44766 19.5523 7.99992 19 7.99992L17.4141 7.99992L21.707 3.70695C22.0975 3.31643 22.0975 2.68341 21.707 2.29289C21.3165 1.9024 20.6835 1.9024 20.293 2.29289L16 6.58586L16 4.99992C16 4.44766 15.5523 3.99992 15 3.99992C14.4477 3.99992 14 4.44766 14 4.99992L14 8.99992C14 9.55221 14.4477 9.99992 15 9.99992L19 9.99992ZM12 13.7499C12.9665 13.7499 13.75 12.9664 13.75 11.9999C13.7499 11.0335 12.9665 10.2499 12 10.2499C11.0335 10.2499 10.2501 11.0335 10.25 11.9999C10.25 12.9664 11.0335 13.7499 12 13.7499ZM2.29297 21.707C2.68349 22.0975 3.31651 22.0975 3.70703 21.707L8 17.414V18.9999C8 19.5522 8.44772 19.9999 9 19.9999C9.55225 19.9999 10 19.5522 10 18.9999V14.9999C9.99993 14.4477 9.55221 14 9 13.9999L5 13.9999C4.44776 13.9999 4.00007 14.4477 4 14.9999C4 15.5522 4.44772 15.9999 5 15.9999H6.58594L2.29297 20.2929C1.90245 20.6834 1.90247 21.3164 2.29297 21.707ZM20.293 21.707C20.6835 22.0975 21.3165 22.0975 21.707 21.707C22.0975 21.3164 22.0975 20.6834 21.707 20.2929L17.4141 15.9999H19C19.5523 15.9999 20 15.5522 20 14.9999C19.9999 14.4477 19.5522 13.9999 19 13.9999L15 13.9999C14.4478 13.9999 14.0001 14.4477 14 14.9999L14 18.9999C14 19.5522 14.4477 19.9999 15 19.9999C15.5523 19.9999 16 19.5522 16 18.9999V17.414L20.293 21.707Z" fill="currentColor" />
</svg>