<svg xmlns="http://www.w3.org/2000/svg" width="24" height="24" viewBox="0 0 24 24" fill="none">
    <path fill-rule="evenodd" clip-rule="evenodd" d="M11.0038 18.6298V21.8798C11.0038 22.432 11.4516 22.8798 12.0038 22.8798C12.5561 22.8798 13.0038 22.432 13.0038 21.8798V18.6298H11.0038Z" fill="currentColor" />
    <path d="M11.0038 18.6298V17.1298V12.7938L8.79681 10.5868C8.40629 10.1963 8.40629 9.56325 8.79681 9.17273C9.18734 8.78221 9.82035 8.78221 10.2109 9.17273L11.0038 9.9657V7.37976C11.0038 6.82748 11.4516 6.37976 12.0038 6.37976C12.5561 6.37976 13.0038 6.82748 13.0038 7.37976V12.9657L13.7968 12.1727C14.1873 11.7822 14.8204 11.7822 15.2109 12.1727C15.6014 12.5633 15.6014 13.1963 15.2109 13.5868L13.0038 15.7938V17.1298V18.6298H15.1152C18.2293 18.6296 20.7537 16.1052 20.7538 12.9911C20.7538 10.9352 19.652 9.14006 18.0107 8.15515C18.0586 7.84761 18.0869 7.53301 18.0869 7.21277C18.0867 3.85319 15.3635 1.12976 12.0038 1.12976C8.64422 1.12976 5.92101 3.85319 5.92084 7.21277C5.92084 7.53296 5.94816 7.84765 5.99603 8.15515C4.35509 9.14016 3.25385 10.9355 3.25385 12.9911C3.25396 16.1052 5.77842 18.6296 8.89252 18.6298H11.0038Z" fill="currentColor" />
</svg>