<svg xmlns="http://www.w3.org/2000/svg" width="24" height="24" viewBox="0 0 24 24" fill="none">
    <path d="M3.00391 13.0038V11.0038C3.00391 10.4515 3.45162 10.0038 4.00391 10.0038C4.55619 10.0038 5.00391 10.4515 5.00391 11.0038V13.0038C5.00391 13.5561 4.55619 14.0038 4.00391 14.0038C3.45162 14.0038 3.00391 13.5561 3.00391 13.0038Z" fill="currentColor" />
    <path d="M20.0039 12.0039C20.5562 12.0039 21.0039 12.4516 21.0039 13.0039C21.0039 13.5562 20.5562 14.0039 20.0039 14.0039H18.0039C17.4516 14.0039 17.0039 13.5562 17.0039 13.0039C17.0039 12.4516 17.4516 12.0039 18.0039 12.0039H20.0039Z" fill="currentColor" />
    <path d="M15.0039 12.0039C15.5562 12.0039 16.0039 12.4516 16.0039 13.0039C16.0039 13.5562 15.5562 14.0039 15.0039 14.0039H13.0039C12.4516 14.0039 12.0039 13.5562 12.0039 13.0039C12.0039 12.4516 12.4516 12.0039 13.0039 12.0039H15.0039Z" fill="currentColor" />
    <path d="M10.0039 12.0039C10.5562 12.0039 11.0039 12.4516 11.0039 13.0039C11.0039 13.5562 10.5562 14.0039 10.0039 14.0039H8.00391C7.45162 14.0039 7.00391 13.5562 7.00391 13.0039C7.00391 12.4516 7.45162 12.0039 8.00391 12.0039H10.0039Z" fill="currentColor" />
</svg>