<svg xmlns="http://www.w3.org/2000/svg" width="24" height="24" viewBox="0 0 24 24" fill="none">
    <path d="M12.0001 2.24963C17.2994 2.24963 21.7501 6.08654 21.7501 10.9996C21.7501 13.9286 20.1518 16.4897 17.7501 18.066V19.4996C17.7501 20.7423 16.7428 21.7496 15.5001 21.7496H14.7501V19.9996C14.7501 19.5854 14.4143 19.2496 14.0001 19.2496C13.5859 19.2496 13.2501 19.5854 13.2501 19.9996V21.7496H10.7501V19.9996C10.7501 19.5854 10.4143 19.2496 10.0001 19.2496C9.58591 19.2496 9.25012 19.5854 9.25012 19.9996V21.7496H8.50012C7.25748 21.7496 6.25012 20.7423 6.25012 19.4996V18.066C3.84842 16.4897 2.25012 13.9286 2.25012 10.9996C2.25012 6.08654 6.70083 2.24963 12.0001 2.24963ZM12.0001 13.2496C11.7515 13.2497 11.5216 13.3728 11.3829 13.5739L11.3292 13.6647L10.8292 14.6647C10.7132 14.8971 10.7259 15.1732 10.8624 15.3942C10.9991 15.6151 11.2403 15.7496 11.5001 15.7496H12.5001C12.7599 15.7496 13.0011 15.6151 13.1378 15.3942C13.2744 15.1732 13.2871 14.8971 13.171 14.6647L12.671 13.6647C12.544 13.4106 12.2842 13.2496 12.0001 13.2496ZM8.00012 9.24963C7.03362 9.24963 6.25012 10.0331 6.25012 10.9996C6.25012 11.9661 7.03362 12.7496 8.00012 12.7496C8.96662 12.7496 9.75012 11.9661 9.75012 10.9996C9.75012 10.0331 8.96662 9.24963 8.00012 9.24963ZM16.0001 9.24963C15.0336 9.24963 14.2501 10.0331 14.2501 10.9996C14.2501 11.9661 15.0336 12.7496 16.0001 12.7496C16.9666 12.7496 17.7501 11.9661 17.7501 10.9996C17.7501 10.0331 16.9666 9.24963 16.0001 9.24963Z" fill="currentColor" />
</svg>