<svg xmlns="http://www.w3.org/2000/svg" width="24" height="24" viewBox="0 0 24 24" fill="none">
    <path d="M8.00013 18.75C8.96663 18.75 9.75013 17.9665 9.75013 17V7C9.75013 6.0335 8.96663 5.25 8.00013 5.25H3.00013C2.03363 5.25 1.25013 6.0335 1.25013 7V17C1.25013 17.9665 2.03363 18.75 3.00013 18.75H8.00013Z" fill="currentColor" />
    <path d="M20.7501 12C20.7501 9.13859 19.9723 6.79821 18.9903 5.65042C18.6313 5.23084 18.6802 4.59935 19.0997 4.24026C19.5192 3.88124 20.1507 3.93016 20.5098 4.34964C21.9189 5.99643 22.7501 8.8793 22.7501 12C22.7501 15.1208 21.9189 18.0036 20.5098 19.6504C20.1507 20.0699 19.5192 20.1188 19.0997 19.7598C18.6802 19.4007 18.6313 18.7692 18.9903 18.3496C19.9723 17.2019 20.7501 14.8615 20.7501 12ZM16.7501 12C16.7501 10.0034 16.1781 8.41612 15.5059 7.668C15.1371 7.25716 15.1714 6.6249 15.5821 6.25589C15.9929 5.8871 16.6252 5.92135 16.9942 6.33206C18.1153 7.58008 18.7501 9.72376 18.7501 12C18.7501 14.2763 18.1153 16.42 16.9942 17.668C16.6252 18.0787 15.9929 18.113 15.5821 17.7442C15.1714 17.3752 15.1371 16.7429 15.5059 16.3321C16.1781 15.5839 16.7501 13.9966 16.7501 12ZM12.7501 12C12.7501 10.8833 12.3924 10.057 12.042 9.70608C11.6522 9.3152 11.6533 8.68209 12.044 8.29202C12.4349 7.9022 13.068 7.90324 13.4581 8.29397C14.3031 9.14074 14.7501 10.5531 14.7501 12C14.7501 13.4469 14.3031 14.8593 13.4581 15.7061C13.068 16.0968 12.4349 16.0979 12.044 15.708C11.6533 15.318 11.6522 14.6849 12.042 14.294C12.3924 13.943 12.7501 13.1167 12.7501 12Z" fill="currentColor" />
</svg>