<svg xmlns="http://www.w3.org/2000/svg" width="24" height="24" viewBox="0 0 24 24" fill="none">
    <g clip-path="url(#clip0_7962_1759)">
        <path d="M18.7451 6.75V5.24512H17.25C16.6978 5.24512 16.2501 4.79735 16.25 4.24512C16.25 3.69283 16.6977 3.24512 17.25 3.24512H18.7451V1.75C18.7451 1.19772 19.1928 0.75 19.7451 0.75C20.2973 0.750063 20.7451 1.19775 20.7451 1.75V3.24512H22.25C22.8023 3.24512 23.25 3.69283 23.25 4.24512C23.2499 4.79735 22.8022 5.24512 22.25 5.24512H20.7451V6.75C20.7451 7.30225 20.2973 7.74994 19.7451 7.75C19.1928 7.75 18.7451 7.30228 18.7451 6.75Z" fill="currentColor" />
        <path fill-rule="evenodd" clip-rule="evenodd" d="M11.5 23.25C17.4371 23.25 22.25 18.4371 22.25 12.5C22.25 11.0027 21.9427 9.57737 21.3896 8.28223C20.9789 8.72287 20.3949 8.99993 19.7451 9C18.5025 9 17.4951 7.99264 17.4951 6.75V6.49512H17.25C16.0073 6.49512 15.0001 5.48745 15 4.24512C15 3.59868 15.2744 3.01782 15.7109 2.60742C14.4176 2.05619 12.9947 1.75 11.5 1.75C5.56294 1.75 0.75 6.56294 0.75 12.5C0.75 18.4371 5.56294 23.25 11.5 23.25ZM7.875 10.75C7.33479 10.75 7.04739 10.3318 6.93945 10.1162C6.8093 9.8559 6.75 9.54829 6.75 9.25C6.75 8.95171 6.8093 8.6441 6.93945 8.38379C7.04739 8.16817 7.33479 7.75 7.875 7.75C8.41521 7.75 8.70261 8.16818 8.81055 8.38379C8.9407 8.6441 9 8.9517 9 9.25C9 9.54829 8.9407 9.8559 8.81055 10.1162C8.70261 10.3318 8.41522 10.75 7.875 10.75ZM15.125 10.75C14.5848 10.75 14.2974 10.3318 14.1895 10.1162C14.0593 9.8559 14 9.54829 14 9.25C14 8.95171 14.0593 8.6441 14.1895 8.38379C14.2974 8.16817 14.5848 7.75 15.125 7.75C15.6652 7.75 15.9526 8.16818 16.0605 8.38379C16.1907 8.6441 16.25 8.9517 16.25 9.25C16.25 9.54829 16.1907 9.8559 16.0605 10.1162C15.9526 10.3318 15.6652 10.75 15.125 10.75ZM11.5 18.5C9.53656 18.4999 7.79302 17.5556 6.7002 16.1006C6.36877 15.659 6.45792 15.0318 6.89941 14.7002C7.34095 14.3686 7.96811 14.458 8.2998 14.8994C9.03117 15.8731 10.1923 16.4999 11.5 16.5C12.8078 16.5 13.9688 15.8732 14.7002 14.8994C15.0318 14.4579 15.659 14.3688 16.1006 14.7002C16.5422 15.0318 16.6314 15.659 16.2998 16.1006C15.207 17.5557 13.4635 18.5 11.5 18.5Z" fill="currentColor" />
    </g>
    <defs>
        <clipPath id="clip0_7962_1759">
            <rect width="24" height="24" fill="currentColor" />
        </clipPath>
    </defs>
</svg>