<svg xmlns="http://www.w3.org/2000/svg" width="24" height="24" viewBox="0 0 24 24" fill="none">
    <path d="M13.5876 2.25713C14.0004 1.89022 14.6318 1.92736 14.9987 2.34014C15.3656 2.75293 15.3285 3.38436 14.9157 3.75128L13.0017 5.45245V7.4046L15.4636 8.82549L17.1853 7.82159L17.694 5.35479C17.8054 4.81401 18.3339 4.4654 18.8747 4.57647C19.4155 4.68781 19.7641 5.21636 19.653 5.75713L19.2243 7.83428L21.239 8.5042C21.7628 8.67833 22.0465 9.24393 21.8728 9.76788C21.6987 10.292 21.1323 10.5757 20.6081 10.4017L18.1384 9.58135L16.5036 10.5355V13.472L18.1384 14.4251L20.6071 13.6067C21.1311 13.4328 21.6966 13.7167 21.8708 14.2405C22.0448 14.7647 21.7612 15.3312 21.237 15.5052L19.2233 16.1732L19.6521 18.2513C19.7634 18.7922 19.4147 19.3215 18.8737 19.4329C18.3328 19.5442 17.8044 19.1955 17.6931 18.6546L17.1843 16.1849L15.4636 15.1819L13.0017 16.6028V18.555L14.9157 20.2571C15.3285 20.6241 15.3656 21.2555 14.9987 21.6683C14.6318 22.0811 14.0004 22.1182 13.5876 21.7513L12.0017 20.3411L10.4157 21.7513C10.0029 22.1182 9.37151 22.0811 9.00459 21.6683C8.63767 21.2555 8.67482 20.6241 9.0876 20.2571L11.0017 18.555V16.5589L8.57588 15.1595L6.82295 16.1829L6.31416 18.6546C6.2028 19.1955 5.67439 19.5442 5.1335 19.4329C4.59256 19.3215 4.24381 18.7922 4.35518 18.2513L4.78291 16.1732L2.77022 15.5052C2.24606 15.3312 1.9624 14.7647 2.13643 14.2405C2.3106 13.7167 2.87612 13.4328 3.4001 13.6067L5.86592 14.4251L7.57588 13.428V10.5794L5.86494 9.58233L3.39912 10.4017C2.87497 10.5757 2.30849 10.292 2.13447 9.76788C1.96071 9.24393 2.24444 8.67833 2.76826 8.5042L4.78193 7.83428L4.3542 5.75713C4.24313 5.21636 4.59174 4.68781 5.13252 4.57647C5.6733 4.4654 6.20185 4.81401 6.31318 5.35479L6.82197 7.82452L8.57588 8.84795L11.0017 7.44854V5.45245L9.0876 3.75128C8.67482 3.38436 8.63767 2.75293 9.00459 2.34014C9.37151 1.92736 10.0029 1.89022 10.4157 2.25713L12.0017 3.66631L13.5876 2.25713ZM9.57588 10.5814V13.4261L12.0397 14.8489L14.5036 13.4261V10.5804L12.0397 9.1585L9.57588 10.5814Z" fill="currentColor" />
</svg>