<svg xmlns="http://www.w3.org/2000/svg" width="24" height="24" viewBox="0 0 24 24" fill="none">
    <path fill-rule="evenodd" clip-rule="evenodd" d="M9.00226 7.2536C5.82662 7.2536 3.25226 9.82796 3.25226 13.0036V21.0036C3.25226 21.9701 4.03576 22.7536 5.00226 22.7536H13.0023C12.9994 22.7536 13.0052 22.7536 13.0023 22.7536C11.7758 21.7449 11.0023 20.2156 11.0023 18.5036C11.0023 17.4347 11.3681 16.4511 11.7737 15.6686C12.0397 15.1557 12.353 14.6718 12.673 14.2336H4.75226V13.9836V13.0036C4.75226 10.6564 6.65505 8.7536 9.00226 8.7536C11.3495 8.7536 13.2523 10.6564 13.2523 13.0036V13.4915C13.7329 12.9129 14.2056 12.4246 14.5589 12.0798C14.5942 12.0453 14.6284 12.0122 14.6615 11.9804C14.1788 9.2929 11.8287 7.2536 9.00226 7.2536Z" fill="currentColor" />
    <path d="M6.25226 8.0036V6.0036C6.25226 5.0371 7.03576 4.2536 8.00226 4.2536H10.0023C10.9688 4.2536 11.7523 5.0371 11.7523 6.0036V8.0036H6.25226Z" fill="currentColor" />
    <path fill-rule="evenodd" clip-rule="evenodd" d="M5.75226 2.0036C5.75226 1.58939 6.08804 1.2536 6.50226 1.2536H13.5023C13.7012 1.2536 13.8919 1.33262 14.0326 1.47327L15.0326 2.47327C15.3255 2.76616 15.3255 3.24104 15.0326 3.53393C14.7397 3.82682 14.2648 3.82682 13.9719 3.53393L13.1916 2.7536H9.75226V5.0036C9.75226 5.41781 9.41647 5.7536 9.00226 5.7536C8.58804 5.7536 8.25226 5.41781 8.25226 5.0036V2.7536H6.50226C6.08804 2.7536 5.75226 2.41781 5.75226 2.0036Z" fill="currentColor" />
    <path d="M20.7523 18.5036C20.7523 20.8508 18.8495 22.7536 16.5023 22.7536C14.155 22.7536 12.2523 20.8508 12.2523 18.5036C12.2523 17.712 12.526 16.9326 12.8831 16.2439C13.2436 15.5488 13.7158 14.895 14.1732 14.3396C14.6325 13.7818 15.0903 13.3078 15.4319 12.9743C15.603 12.8074 15.7465 12.6739 15.848 12.5818C15.8985 12.5359 15.9389 12.5002 15.9671 12.4753L16.0003 12.446C15.9985 12.4474 16.0026 12.444 16.0003 12.446L16.0101 12.4382C16.2909 12.1975 16.7097 12.1935 16.9905 12.4343L17.0042 12.446L17.0374 12.4753C17.0656 12.5002 17.106 12.5359 17.1566 12.5818C17.258 12.6739 17.4015 12.8074 17.5726 12.9743C17.9142 13.3078 18.372 13.7818 18.8314 14.3396C19.2887 14.895 19.7609 15.5488 20.1214 16.2439C20.4785 16.9326 20.7523 17.712 20.7523 18.5036Z" fill="currentColor" />
</svg>