<svg xmlns="http://www.w3.org/2000/svg" width="24" height="24" viewBox="0 0 24 24" fill="none">
    <path d="M5.175 18.8015C4.63652 18.8015 4.2 18.365 4.2 17.8265V7.00153H19.8V17.8265C19.8 18.365 19.3635 18.8015 18.825 18.8015H17.85C17.3115 18.8015 16.875 19.238 16.875 19.7765C16.875 20.315 17.3115 20.7515 17.85 20.7515H18.825C20.4404 20.7515 21.75 19.442 21.75 17.8265V4.17653C21.75 2.56109 20.4404 1.25153 18.825 1.25153H5.175C3.55957 1.25153 2.25 2.56109 2.25 4.17653V17.8265C2.25 19.442 3.55957 20.7515 5.175 20.7515H6.15C6.68848 20.7515 7.125 20.315 7.125 19.7765C7.125 19.238 6.68848 18.8015 6.15 18.8015H5.175Z" fill="currentColor" />
    <path d="M12 17.7515C14.0711 17.7515 15.75 16.0726 15.75 14.0015C15.75 11.9305 14.0711 10.2515 12 10.2515C9.92893 10.2515 8.25 11.9305 8.25 14.0015C8.25 16.0726 9.92893 17.7515 12 17.7515Z" fill="currentColor" />
    <path d="M14.75 22.0015C14.75 22.2856 14.589 22.5454 14.335 22.6724C14.081 22.7992 13.777 22.7715 13.5498 22.6011L12 21.438L10.4502 22.6011C10.223 22.7715 9.91905 22.7992 9.66504 22.6724C9.41095 22.5454 9.25 22.2856 9.25 22.0015V18.1773C10.039 18.698 10.984 19.0015 12 19.0015C13.016 19.0015 13.961 18.698 14.75 18.1773V22.0015Z" fill="currentColor" />
</svg>