<svg xmlns="http://www.w3.org/2000/svg" width="24" height="24" viewBox="0 0 24 24" fill="none">
    <path fill-rule="evenodd" clip-rule="evenodd" d="M4.25273 4.33549C4.44249 4.12209 4.71444 4 5.00001 4H18C18.2856 4 18.5575 4.12209 18.7473 4.33549C18.937 4.54888 19.0265 4.83323 18.9932 5.11684L17.201 20.3505C17.0232 21.8614 15.7428 23 14.2215 23H8.7785C7.25725 23 5.9768 21.8614 5.79905 20.3505L4.00685 5.11684C3.97349 4.83323 4.06297 4.54888 4.25273 4.33549ZM6.12455 6L7.78535 20.1168C7.8446 20.6205 8.27142 21 8.7785 21H14.2215C14.7286 21 15.1554 20.6205 15.2147 20.1168L16.8755 6H6.12455Z" fill="currentColor" />
    <path fill-rule="evenodd" clip-rule="evenodd" d="M13.5042 1.90946C13.551 1.39439 13.9829 1 14.5001 1H19.0001C19.5523 1 20.0001 1.44772 20.0001 2C20.0001 2.55228 19.5523 3 19.0001 3H15.4133L13.996 18.5905C13.946 19.1406 13.4595 19.5459 12.9095 19.4959C12.3595 19.4459 11.9542 18.9595 12.0042 18.4095L13.5042 1.90946Z" fill="currentColor" />
    <path d="M14.2236 23C15.7448 22.9999 17.0254 21.8613 17.2031 20.3506L18.4658 9.61719C18.4992 9.33369 18.4093 9.04931 18.2197 8.83594C18.03 8.6226 17.7581 8.50006 17.4727 8.5L5.53125 8.5C5.24568 8.5 4.97394 8.62254 4.78418 8.83594C4.59451 9.04932 4.50473 9.33364 4.53809 9.61719L5.80078 20.3506C5.97855 21.8614 7.25906 23 8.78027 23H14.2236ZM10 17C9.44772 17 9 16.5523 9 16C9 15.4477 9.44772 15 10 15H10.0088C10.5611 15 11.0088 15.4477 11.0088 16C11.0088 16.5523 10.5611 17 10.0088 17H10Z" fill="currentColor" />
</svg>