<svg xmlns="http://www.w3.org/2000/svg" width="24" height="24" viewBox="0 0 24 24" fill="none">
    <path d="M21.0039 10.3789C21.2046 10.3789 21.3971 10.4596 21.538 10.6025C21.6788 10.7454 21.7566 10.9391 21.7539 11.1396C21.6933 15.4858 18.6575 17.6497 16.9326 18.5244L17.289 19.5596C17.6798 20.6958 16.8353 21.879 15.6337 21.8789H8.38472C7.18771 21.8788 6.34405 20.7036 6.72651 19.5693L7.07808 18.5254C5.3536 17.6516 2.31446 15.4881 2.25386 11.1396C2.25107 10.9391 2.32888 10.7454 2.46968 10.6025C2.61062 10.4596 2.80314 10.3789 3.00386 10.3789H21.0039Z" fill="currentColor" />
    <path d="M10.7968 2.42192C11.1873 2.0314 11.8203 2.0314 12.2109 2.42192L12.7109 2.92192C13.6537 3.86473 13.6537 5.39317 12.7109 6.33598C12.5491 6.49774 12.5491 6.76016 12.7109 6.92192L13.2109 7.42192C13.6014 7.81245 13.6014 8.44546 13.2109 8.83598C12.8203 9.22651 12.1873 9.22651 11.7968 8.83598L11.2968 8.33598C10.354 7.39318 10.354 5.86473 11.2968 4.92192C11.4586 4.76016 11.4586 4.49775 11.2968 4.33598L10.7968 3.83598C10.4063 3.44546 10.4063 2.81245 10.7968 2.42192Z" fill="currentColor" />
    <path d="M5.7968 2.42192C6.18732 2.0314 6.82034 2.0314 7.21086 2.42192L7.71086 2.92192C8.65367 3.86473 8.65367 5.39317 7.71086 6.33598C7.5491 6.49774 7.5491 6.76016 7.71086 6.92192L8.21086 7.42192C8.60139 7.81245 8.60139 8.44546 8.21086 8.83598C7.82034 9.22651 7.18732 9.22651 6.7968 8.83598L6.2968 8.33598C5.35399 7.39318 5.35399 5.86473 6.2968 4.92192C6.45856 4.76016 6.45856 4.49775 6.2968 4.33598L5.7968 3.83598C5.40628 3.44546 5.40628 2.81245 5.7968 2.42192Z" fill="currentColor" />
    <path d="M18.1093 4.68159C18.3563 4.18761 18.9571 3.98733 19.4511 4.23432C19.9451 4.48131 20.1454 5.08214 19.8984 5.57612L16.8984 11.5761C16.6514 12.0701 16.0506 12.2704 15.5566 12.0234C15.0626 11.7764 14.8623 11.1756 15.1093 10.6816L18.1093 4.68159Z" fill="currentColor" />
</svg>