<svg xmlns="http://www.w3.org/2000/svg" width="24" height="24" viewBox="0 0 24 24" fill="none">
    <path fill-rule="evenodd" clip-rule="evenodd" d="M11.0947 1.48952C11.678 1.24829 12.331 1.24828 12.9142 1.48953C14.5707 2.17462 16.7576 3.52251 18.5407 5.43769C20.327 7.35637 21.7545 9.89764 21.7545 12.9489C21.7545 14.8373 20.4846 16.1795 18.9398 16.8816C17.7569 17.4193 16.3358 17.6269 14.9766 17.4402C15.0382 17.6009 15.1123 17.7709 15.199 17.9498C15.488 18.5462 15.8812 19.1734 16.2955 19.7955C16.9753 20.8164 16.4276 22.2523 15.1412 22.4371C14.2488 22.5653 13.0684 22.6989 12.0045 22.6989C11.0125 22.6989 10.0316 22.583 9.2774 22.4626C7.99495 22.2579 7.54202 20.8549 8.08635 19.8738C8.55408 19.0307 8.92504 18.1778 9.11473 17.4282C7.7304 17.6353 6.27513 17.4303 5.06794 16.8816C3.52318 16.1795 2.2533 14.8373 2.2533 12.9489C2.2533 9.89759 3.68105 7.35631 5.46769 5.43764C7.25107 3.52247 9.43818 2.1746 11.0947 1.48952Z" fill="currentColor" />
</svg>