<svg xmlns="http://www.w3.org/2000/svg" width="24" height="24" viewBox="0 0 24 24" fill="none">
    <path d="M6.10714 20.775V3.225C6.10714 2.68652 6.53887 2.25 7.07143 2.25C7.60399 2.25 8.03571 2.68652 8.03571 3.225V20.775C8.03571 21.3135 7.60399 21.75 7.07143 21.75C6.53887 21.75 6.10714 21.3135 6.10714 20.775ZM13.8214 18.825V14.925C13.8214 14.3865 14.2532 13.95 14.7857 13.95C15.3183 13.95 15.75 14.3865 15.75 14.925V18.825C15.75 19.3635 15.3183 19.8 14.7857 19.8C14.2532 19.8 13.8214 19.3635 13.8214 18.825ZM9.96429 16.875V9.075C9.96429 8.53652 10.396 8.1 10.9286 8.1C11.4611 8.1 11.8929 8.53652 11.8929 9.075V16.875C11.8929 17.4135 11.4611 17.85 10.9286 17.85C10.396 17.85 9.96429 17.4135 9.96429 16.875ZM2.25 14.925V9.075C2.25 8.53652 2.68173 8.1 3.21429 8.1C3.74685 8.1 4.17857 8.53652 4.17857 9.075V14.925C4.17857 15.4635 3.74685 15.9 3.21429 15.9C2.68173 15.9 2.25 15.4635 2.25 14.925Z" fill="currentColor" />
    <path d="M19.85 5.13889H17.95V9.86111H18.425C18.9497 9.86111 19.375 10.284 19.375 10.8056C19.375 11.3272 18.9497 11.75 18.425 11.75H15.575C15.0503 11.75 14.625 11.3272 14.625 10.8056C14.625 10.284 15.0503 9.86111 15.575 9.86111H16.05V5.13889H14.15C14.15 5.66049 13.7247 6.08333 13.2 6.08333C12.6753 6.08333 12.25 5.66049 12.25 5.13889C12.25 4.09568 13.1007 3.25 14.15 3.25H19.85C20.8993 3.25 21.75 4.09568 21.75 5.13889C21.75 5.66049 21.3247 6.08333 20.8 6.08333C20.2753 6.08333 19.85 5.66049 19.85 5.13889Z" fill="currentColor" />
</svg>