<svg xmlns="http://www.w3.org/2000/svg" width="24" height="24" viewBox="0 0 24 24" fill="none">
    <path d="M20.7502 12C20.7502 10.312 20.0899 8.7915 19.0305 7.69437C18.6471 7.29709 18.6577 6.66388 19.0549 6.28031C19.4522 5.89667 20.0853 5.90844 20.4689 6.3057C21.8809 7.7678 22.7502 9.78281 22.7502 12C22.7502 14.2173 21.8809 16.2323 20.4689 17.6944C20.0853 18.0916 19.4522 18.1034 19.0549 17.7198C18.6577 17.3362 18.6471 16.703 19.0305 16.3057C20.0899 15.2086 20.7502 13.688 20.7502 12ZM16.7502 12C16.7502 11.4475 16.5272 10.949 16.1643 10.586C15.7738 10.1955 15.7738 9.56245 16.1643 9.17191C16.5548 8.78139 17.1878 8.78139 17.5783 9.17191C18.301 9.89467 18.7502 10.8958 18.7502 12C18.7502 13.1043 18.301 14.1054 17.5783 14.8282C17.1878 15.2187 16.5548 15.2187 16.1643 14.8282C15.7738 14.4376 15.7738 13.8046 16.1643 13.4141C16.5272 13.0511 16.7502 12.5525 16.7502 12Z" fill="currentColor" />
    <path d="M11.0001 17.75C12.5188 17.75 13.7501 16.5188 13.7501 15V9.5C13.7501 6.04822 10.9518 3.25 7.50006 3.25C4.04828 3.25 1.25006 6.04822 1.25006 9.5C1.25006 10.5108 1.49039 11.4678 1.91803 12.3145C2.34672 13.1632 2.57923 13.9564 2.42096 14.666L1.26764 19.8369C1.2182 20.0589 1.27285 20.2912 1.4151 20.4688C1.55744 20.6463 1.77246 20.75 2.00006 20.75H9.00006C9.41427 20.75 9.75006 20.4142 9.75006 20V17.75H11.0001Z" fill="currentColor" />
</svg>