<svg xmlns="http://www.w3.org/2000/svg" width="24" height="24" viewBox="0 0 24 24" fill="none">
    <path d="M16.6289 18.5139C17.1812 18.5139 17.6289 18.9593 17.6289 19.5087C17.6289 20.058 17.1812 20.5034 16.6289 20.5034H3.12888C2.57659 20.5034 2.12888 20.058 2.12888 19.5087C2.12888 18.9593 2.57659 18.5139 3.12888 18.5139H16.6289Z" fill="currentColor" />
    <path fill-rule="evenodd" clip-rule="evenodd" d="M11.6904 7.60598C11.2027 7.42402 10.8791 6.96038 10.8789 6.4422V5.24832C10.8789 3.69747 8.99404 2.92091 7.89161 4.01752L4.12898 7.76037L9.65922 13.2615C9.95211 13.5529 9.95211 14.0252 9.65922 14.3165C9.36632 14.6079 8.89156 14.6079 8.59867 14.3165L3.06843 8.81534L3.05177 8.83192C1.95725 9.92068 1.98082 11.6937 3.1045 12.7526L9.95607 19.2087C10.8383 20.0401 12.0074 20.5036 13.2227 20.5036H20.1289C21.0954 20.5036 21.8789 19.7242 21.8789 18.7628V18.2655C21.8789 16.2053 20.2 14.5352 18.1289 14.5352H17.1729C17.0235 14.5352 16.88 14.4761 16.7744 14.371L16.5567 14.1544C15.4824 13.0857 14.879 11.6362 14.8789 10.1249C14.8789 9.32544 14.3804 8.60942 13.6279 8.32872L11.6904 7.60598Z" fill="currentColor" />
</svg>