<svg xmlns="http://www.w3.org/2000/svg" width="24" height="24" viewBox="0 0 24 24" fill="none">
    <path d="M12.0041 15.8784C15.6033 15.8784 18.7989 17.6083 20.8039 20.2778C21.1355 20.7194 21.0462 21.3466 20.6047 21.6782C20.1631 22.0098 19.5359 21.9206 19.2043 21.479C17.5608 19.2908 14.9475 17.8784 12.0041 17.8784C9.06062 17.8784 6.4474 19.2908 4.80388 21.479C4.47223 21.9206 3.84509 22.0098 3.40349 21.6782C2.96192 21.3466 2.87267 20.7194 3.20428 20.2778C5.20925 17.6083 8.4049 15.8784 12.0041 15.8784Z" fill="currentColor" />
    <path fill-rule="evenodd" clip-rule="evenodd" d="M3.00348 2.15926C2.99618 2.15974 2.98988 2.16016 2.9848 2.16058C2.982 2.16081 2.97756 2.16134 2.97374 2.1618L2.9848 2.16058L3.00348 2.15926ZM2.28524 2.87751C2.28572 2.87021 2.28613 2.86391 2.28656 2.85882L2.28524 2.87751Z" fill="currentColor" />
    <path fill-rule="evenodd" clip-rule="evenodd" d="M5.42718 2.21038C4.75225 2.13539 4.14216 2.12312 3.70159 2.12933C3.48085 2.13244 3.30061 2.14073 3.17425 2.14788C3.11143 2.15144 3.06177 2.15504 3.02679 2.15765L3.00348 2.15926L2.9848 2.16058L2.97374 2.1618C2.61319 2.19458 2.32032 2.48655 2.28753 2.8471L2.28656 2.85882L2.28524 2.87751L2.28363 2.90081C2.28102 2.93579 2.27742 2.98545 2.27386 3.04827C2.26671 3.17463 2.25842 3.35488 2.25531 3.57562C2.2491 4.01618 2.26137 4.62627 2.33636 5.3012C2.48166 6.60891 2.88073 8.33972 4.01312 9.4721C5.31029 10.769 7.28548 10.9752 8.79804 10.0904C8.75289 10.043 8.70711 9.99604 8.66069 9.94962L6.79643 8.08536C6.40591 7.69484 6.40591 7.06182 6.79643 6.6713C7.18696 6.28077 7.81997 6.28077 8.2105 6.6713L10.0748 8.53556C10.1215 8.58231 10.1677 8.62947 10.2135 8.67704C11.1016 7.16384 10.8964 5.18574 9.59808 3.88714C8.46569 2.75475 6.73489 2.35568 5.42718 2.21038Z" fill="currentColor" />
    <path fill-rule="evenodd" clip-rule="evenodd" d="M21.0043 2.15926C21.0116 2.15974 21.0179 2.16016 21.023 2.16058C21.0258 2.16081 21.0303 2.16134 21.0341 2.1618L21.023 2.16058L21.0043 2.15926ZM21.7226 2.87751C21.7221 2.87021 21.7217 2.86391 21.7213 2.85882L21.7226 2.87751Z" fill="currentColor" />
    <path fill-rule="evenodd" clip-rule="evenodd" d="M18.5806 2.21038C19.2556 2.13539 19.8657 2.12312 20.3062 2.12933C20.527 2.13244 20.7072 2.14073 20.8336 2.14788C20.8964 2.15144 20.946 2.15504 20.981 2.15765L21.0043 2.15926L21.023 2.16058L21.0341 2.1618C21.3946 2.19458 21.6875 2.48655 21.7203 2.8471L21.7213 2.85882L21.7226 2.87751L21.7242 2.90081C21.7268 2.93579 21.7304 2.98545 21.734 3.04827C21.7411 3.17463 21.7494 3.35488 21.7525 3.57562C21.7587 4.01618 21.7464 4.62627 21.6715 5.3012C21.5262 6.60891 21.1271 8.33972 19.9947 9.4721C18.6974 10.7691 16.7219 10.9752 15.2092 10.0901C15.2543 10.0428 15.3 9.99595 15.3463 9.94964L17.2105 8.08538C17.601 7.69486 17.601 7.06185 17.2105 6.67132C16.82 6.2808 16.187 6.2808 15.7965 6.67132L13.9322 8.53558C13.8856 8.58214 13.8396 8.62912 13.794 8.6765C12.9062 7.16337 13.1116 5.18559 14.4097 3.88714C15.5421 2.75475 17.2729 2.35568 18.5806 2.21038Z" fill="currentColor" />
    <path fill-rule="evenodd" clip-rule="evenodd" d="M11.0039 15.6061V16.8786C11.0039 17.4309 11.4516 17.8786 12.0039 17.8786C12.5562 17.8786 13.0039 17.4309 13.0039 16.8786V15.6061C13.004 13.5502 13.7954 11.5758 15.2097 10.0903C14.9241 9.92324 14.655 9.71725 14.4102 9.47236C14.1664 9.22859 13.9612 8.96086 13.7945 8.67676C12.0059 10.5375 11.004 13.0201 11.0039 15.6061Z" fill="currentColor" />
    <path fill-rule="evenodd" clip-rule="evenodd" d="M11.0023 15.6061V16.8785C11.0023 17.4308 11.45 17.8785 12.0023 17.8785C12.5546 17.8785 13.0023 17.4308 13.0023 16.8785V15.6061C13.0022 13.0203 12.0006 10.5379 10.2123 8.67725C10.0457 8.96115 9.84053 9.22869 9.59691 9.47231C9.35187 9.71735 9.08263 9.92344 8.79688 10.0906C10.2109 11.576 11.0022 13.5503 11.0023 15.6061Z" fill="currentColor" />
</svg>