<svg xmlns="http://www.w3.org/2000/svg" width="24" height="24" viewBox="0 0 24 24" fill="none">
    <path d="M22.2539 19.5039C22.2539 21.0227 21.0227 22.2539 19.5039 22.2539H4.50391C2.98514 22.2539 1.75393 21.0227 1.75391 19.5039V4.50391C1.75391 2.98512 2.98513 1.75391 4.50391 1.75391H19.5039C21.0225 1.75395 22.2537 2.98533 22.2539 4.50391V19.5039ZM8.50391 9.00385V15.0039C8.50391 15.5561 8.95162 16.0039 9.50391 16.0039C10.0562 16.0039 10.5039 15.5561 10.5039 15.0039V9.00385C10.5039 8.45157 10.0562 8.00385 9.50391 8.00385C8.95162 8.00385 8.50391 8.45157 8.50391 9.00385ZM13.5039 9.00385V15.0039C13.5039 15.5561 13.9516 16.0039 14.5039 16.0039C15.0562 16.0039 15.5039 15.5561 15.5039 15.0039V9.00385C15.5039 8.45157 15.0562 8.00385 14.5039 8.00385C13.9516 8.00385 13.5039 8.45157 13.5039 9.00385Z" fill="currentColor" />
</svg>