<svg xmlns="http://www.w3.org/2000/svg" width="24" height="24" viewBox="0 0 24 24" fill="none">
    <path d="M19.5039 1.75391C21.0227 1.75391 22.2539 2.98512 22.2539 4.50391L22.2539 19.5039C22.2539 21.0227 21.0227 22.2539 19.5039 22.2539L4.50391 22.2539C2.98512 22.2539 1.75391 21.0227 1.75391 19.5039L1.75391 4.50391C1.75391 2.98512 2.98512 1.75391 4.50391 1.75391L19.5039 1.75391ZM8.50391 5.50391C7.95162 5.50391 7.50391 5.95162 7.50391 6.50391L7.50391 17.5039C7.50391 18.0562 7.95162 18.5039 8.50391 18.5039C9.05619 18.5039 9.50391 18.0562 9.50391 17.5039V13.5039H12.5039C14.713 13.5039 16.5039 11.713 16.5039 9.50391C16.5039 7.29477 14.713 5.50391 12.5039 5.50391L8.50391 5.50391ZM12.5039 7.50391C13.6085 7.50391 14.5039 8.39934 14.5039 9.50391C14.5039 10.6085 13.6085 11.5039 12.5039 11.5039H9.50391L9.50391 7.50391L12.5039 7.50391Z" fill="currentColor" />
</svg>