<svg xmlns="http://www.w3.org/2000/svg" width="24" height="24" viewBox="0 0 24 24" fill="none">
    <path fill-rule="evenodd" clip-rule="evenodd" d="M17.4372 9.22057C17.4372 8.6867 17.87 8.25391 18.4039 8.25391H19.8539C21.4555 8.25391 22.7539 9.55228 22.7539 11.1539V11.6372C22.7539 12.1711 22.3211 12.6039 21.7872 12.6039C21.2534 12.6039 20.8206 12.1711 20.8206 11.6372V11.1539C20.8206 10.62 20.3878 10.1872 19.8539 10.1872H18.4039C17.87 10.1872 17.4372 9.75445 17.4372 9.22057ZM21.7872 13.5706C22.3211 13.5706 22.7539 14.0034 22.7539 14.5372V16.4706C22.7539 17.0044 22.3211 17.4372 21.7872 17.4372C21.2534 17.4372 20.8206 17.0044 20.8206 16.4706V14.5372C20.8206 14.0034 21.2534 13.5706 21.7872 13.5706ZM9.22057 17.9206C9.75445 17.9206 10.1872 18.3534 10.1872 18.8872V19.8539C10.1872 20.3878 10.62 20.8206 11.1539 20.8206H11.6372C12.1711 20.8206 12.6039 21.2534 12.6039 21.7872C12.6039 22.3211 12.1711 22.7539 11.6372 22.7539H11.1539C9.55228 22.7539 8.25391 21.4555 8.25391 19.8539V18.8872C8.25391 18.3534 8.6867 17.9206 9.22057 17.9206ZM21.7872 18.4039C22.3211 18.4039 22.7539 18.8367 22.7539 19.3706V19.8539C22.7539 21.4555 21.4555 22.7539 19.8539 22.7539H19.3706C18.8367 22.7539 18.4039 22.3211 18.4039 21.7872C18.4039 21.2534 18.8367 20.8206 19.3706 20.8206H19.8539C20.3878 20.8206 20.8206 20.3878 20.8206 19.8539V19.3706C20.8206 18.8367 21.2534 18.4039 21.7872 18.4039ZM13.5706 21.7872C13.5706 21.2534 14.0034 20.8206 14.5372 20.8206H16.4706C17.0044 20.8206 17.4372 21.2534 17.4372 21.7872C17.4372 22.3211 17.0044 22.7539 16.4706 22.7539H14.5372C14.0034 22.7539 13.5706 22.3211 13.5706 21.7872Z" fill="currentColor" />
    <path d="M1.25391 4.00391C1.25391 2.48512 2.48512 1.25391 4.00391 1.25391H13.0039C14.5227 1.25391 15.7539 2.48512 15.7539 4.00391V9.00391C15.7539 9.41812 15.4181 9.75391 15.0039 9.75391H11.0039C10.3135 9.75391 9.75391 10.3135 9.75391 11.0039V15.0039C9.75391 15.4181 9.41812 15.7539 9.00391 15.7539H4.00391C2.48512 15.7539 1.25391 14.5227 1.25391 13.0039V4.00391Z" fill="currentColor" />
</svg>