<svg xmlns="http://www.w3.org/2000/svg" width="24" height="24" viewBox="0 0 24 24" fill="none">
    <path d="M1.75 19.3214C1.75001 18.7823 2.18707 18.3452 2.72619 18.3452C3.23153 18.3452 3.64749 18.7292 3.69761 19.2213L3.70715 19.4215C3.7539 19.8808 4.11924 20.2461 4.57847 20.2929L4.77867 20.3024C5.27079 20.3525 5.65475 20.7685 5.65476 21.2738C5.65476 21.8129 5.21771 22.25 4.67857 22.25C3.06117 22.25 1.75 20.9388 1.75 19.3214ZM10.0476 20.2976C10.5867 20.2976 11.0238 20.7347 11.0238 21.2738C11.0238 21.8129 10.5868 22.25 10.0476 22.25H8.58333C8.0442 22.25 7.60714 21.8129 7.60714 21.2738C7.60716 20.7347 8.04421 20.2976 8.58333 20.2976H10.0476ZM15.4167 20.2976C15.9558 20.2976 16.3928 20.7347 16.3929 21.2738C16.3929 21.8129 15.9558 22.25 15.4167 22.25H13.9524C13.4132 22.25 12.9762 21.8129 12.9762 21.2738C12.9762 20.7347 13.4133 20.2976 13.9524 20.2976H15.4167ZM20.3024 19.2213C20.3525 18.7292 20.7685 18.3452 21.2738 18.3452C21.8129 18.3452 22.25 18.7823 22.25 19.3214C22.25 20.9388 20.9388 22.25 19.3214 22.25C18.7823 22.25 18.3452 21.8129 18.3452 21.2738C18.3453 20.7685 18.7292 20.3525 19.2213 20.3024L19.4215 20.2929C19.8808 20.2461 20.2461 19.8808 20.2929 19.4215L20.3024 19.2213ZM1.75 15.4167V13.9524C1.75 13.4132 2.18706 12.9762 2.72619 12.9762C3.26533 12.9762 3.70238 13.4132 3.70238 13.9524V15.4167C3.70238 15.9558 3.26533 16.3929 2.72619 16.3929C2.18706 16.3929 1.75 15.9558 1.75 15.4167ZM20.2976 15.4167V13.9524C20.2976 13.4132 20.7347 12.9762 21.2738 12.9762C21.8129 12.9762 22.25 13.4132 22.25 13.9524V15.4167C22.25 15.9558 21.8129 16.3929 21.2738 16.3929C20.7347 16.3929 20.2976 15.9558 20.2976 15.4167ZM1.75 10.0476V8.58333C1.75 8.0442 2.18706 7.60714 2.72619 7.60714C3.26533 7.60714 3.70238 8.0442 3.70238 8.58333V10.0476C3.70238 10.5868 3.26533 11.0238 2.72619 11.0238C2.18706 11.0238 1.75 10.5868 1.75 10.0476ZM20.2976 10.0476V8.58333C20.2976 8.0442 20.7347 7.60714 21.2738 7.60714C21.8129 7.60714 22.25 8.0442 22.25 8.58333V10.0476C22.25 10.5868 21.8129 11.0238 21.2738 11.0238C20.7347 11.0238 20.2976 10.5868 20.2976 10.0476ZM20.2929 4.57847C20.2427 4.08635 19.8268 3.70238 19.3214 3.70238H4.67857C4.17322 3.70238 3.75726 4.08635 3.70715 4.57847L3.69761 4.77867C3.64751 5.2708 3.23154 5.65476 2.72619 5.65476C2.18706 5.65476 1.75 5.21771 1.75 4.67857C1.75 3.06117 3.06117 1.75 4.67857 1.75H19.3214C20.9388 1.75 22.25 3.06117 22.25 4.67857C22.25 5.21771 21.8129 5.65476 21.2738 5.65476C20.7685 5.65476 20.3525 5.2708 20.3024 4.77867L20.2929 4.57847Z" fill="currentColor" />
</svg>