<svg xmlns="http://www.w3.org/2000/svg" width="24" height="24" viewBox="0 0 24 24" fill="none">
    <path d="M19.5039 1.75391C21.0227 1.75391 22.2539 2.98512 22.2539 4.50391V19.5039C22.2539 21.0227 21.0227 22.2539 19.5039 22.2539H4.50391C2.98512 22.2539 1.75391 21.0227 1.75391 19.5039V4.50391C1.75391 2.98512 2.98512 1.75391 4.50391 1.75391H19.5039ZM15.7109 8.29688C15.3204 7.90636 14.6874 7.90637 14.2969 8.29688L12.0029 10.5889L9.71094 8.29688L9.63477 8.22852C9.24206 7.90839 8.66294 7.93101 8.29688 8.29688C7.93071 8.66311 7.90789 9.24299 8.22852 9.63574L8.29688 9.71191L10.5889 12.0039L8.29688 14.2959C7.90637 14.6864 7.90638 15.3204 8.29688 15.7109C8.66293 16.0767 9.24208 16.0994 9.63477 15.7793L9.71094 15.7109L12.0029 13.418L14.2969 15.7109L14.373 15.7793C14.7658 16.0996 15.3448 16.077 15.7109 15.7109C16.077 15.3448 16.0996 14.7658 15.7793 14.373L15.7109 14.2969L13.418 12.0039L15.7109 9.71094C16.1014 9.32044 16.1014 8.68741 15.7109 8.29688Z" fill="currentColor" />
</svg>