<svg xmlns="http://www.w3.org/2000/svg" width="24" height="24" viewBox="0 0 24 24" fill="none">
    <path d="M2.00391 19.0039V5.00391C2.00391 3.34705 3.34705 2.00391 5.00391 2.00391H10.5039C11.0562 2.00391 11.5039 2.45162 11.5039 3.00391C11.5039 3.55619 11.0562 4.00391 10.5039 4.00391H5.00391C4.45162 4.00391 4.00391 4.45162 4.00391 5.00391V19.0039C4.00391 19.5562 4.45162 20.0039 5.00391 20.0039H19.0039C19.5562 20.0039 20.0039 19.5562 20.0039 19.0039V13.5039C20.0039 12.9516 20.4516 12.5039 21.0039 12.5039C21.5562 12.5039 22.0039 12.9516 22.0039 13.5039V19.0039C22.0039 20.6608 20.6608 22.0039 19.0039 22.0039H5.00391C3.34705 22.0039 2.00391 20.6608 2.00391 19.0039Z" fill="currentColor" />
    <path d="M20.0039 9.00391V5.41699L11.7109 13.7109C11.3204 14.1015 10.6874 14.1014 10.2968 13.7109C9.90633 13.3204 9.90635 12.6874 10.2968 12.2969L18.5888 4.00391H15.0039C14.4516 4.00391 14.0039 3.55619 14.0039 3.00391C14.0039 2.45162 14.4516 2.00391 15.0039 2.00391H21.0039C21.5562 2.00391 22.0039 2.45162 22.0039 3.00391V9.00391C22.0039 9.55619 21.5562 10.0039 21.0039 10.0039C20.4516 10.0039 20.0039 9.55619 20.0039 9.00391Z" fill="currentColor" />
</svg>