<svg xmlns="http://www.w3.org/2000/svg" width="24" height="24" viewBox="0 0 24 24" fill="none">
    <path d="M8 19V16C8 14.8954 8.89543 14 10 14H14V13C14 12.4477 14.4477 12 15 12C15.5523 12 16 12.4477 16 13V14C16 15.1046 15.1046 16 14 16H10V19C10 19.5523 10.4477 20 11 20H19C19.5523 20 20 19.5523 20 19V11C20 10.4823 19.6067 10.0562 19.1025 10.0049L18.8975 9.99512C18.3933 9.94379 18 9.51768 18 9C18 8.44772 18.4477 8 19 8C20.6569 8 22 9.34315 22 11V19C22 20.6569 20.6569 22 19 22H11C9.34315 22 8 20.6569 8 19Z" fill="currentColor" />
    <path d="M8 11V10C8 8.89543 8.89543 8 10 8H14V5C14 4.44772 13.5523 4 13 4H5C4.44772 4 4 4.44772 4 5V13C4 13.5177 4.39333 13.9438 4.89746 13.9951L5.10254 14.0049C5.60667 14.0562 6 14.4823 6 15C6 15.5523 5.55228 16 5 16C3.34315 16 2 14.6569 2 13V5C2 3.34315 3.34315 2 5 2H13C14.6569 2 16 3.34315 16 5V8C16 9.10457 15.1046 10 14 10H10V11C10 11.5523 9.55228 12 9 12C8.44772 12 8 11.5523 8 11Z" fill="currentColor" />
</svg>