<svg xmlns="http://www.w3.org/2000/svg" width="24" height="24" viewBox="0 0 24 24" fill="none">
    <path d="M17.9999 8.125C19.5186 8.1251 20.7499 9.35628 20.7499 10.875V19.875C20.7499 21.3937 19.5186 22.6249 17.9999 22.625H6.00089C4.4822 22.625 3.25103 21.3937 3.25089 19.875L3.24991 10.875C3.24991 9.35623 4.48111 8.125 5.99991 8.125H17.9999ZM9.49991 14.375C8.94762 14.375 8.49991 14.8227 8.49991 15.375C8.49991 15.9273 8.94762 16.375 9.49991 16.375H9.5087C10.061 16.375 10.5087 15.9273 10.5087 15.375C10.5087 14.8227 10.061 14.375 9.5087 14.375H9.49991ZM14.4911 14.375C13.9388 14.375 13.4911 14.8227 13.4911 15.375C13.4911 15.9273 13.9388 16.375 14.4911 16.375H14.4999C15.0522 16.375 15.4999 15.9273 15.4999 15.375C15.4999 14.8227 15.0522 14.375 14.4999 14.375H14.4911Z" fill="currentColor" />
    <path fill-rule="evenodd" clip-rule="evenodd" d="M6.49991 6.625C6.49991 3.58743 8.96234 1.125 11.9999 1.125C15.0375 1.125 17.4999 3.58743 17.4999 6.625V9.125C17.4999 9.67728 17.0522 10.125 16.4999 10.125C15.9476 10.125 15.4999 9.67728 15.4999 9.125V6.625C15.4999 4.692 13.9329 3.125 11.9999 3.125C10.0669 3.125 8.49991 4.692 8.49991 6.625V9.125C8.49991 9.67728 8.05219 10.125 7.49991 10.125C6.94762 10.125 6.49991 9.67728 6.49991 9.125V6.625Z" fill="currentColor" />
</svg>