<svg xmlns="http://www.w3.org/2000/svg" width="24" height="24" viewBox="0 0 24 24" fill="none">
    <path fill-rule="evenodd" clip-rule="evenodd" d="M19.5039 22.2539C21.0227 22.2539 22.2539 21.0227 22.2539 19.5039V4.50391C22.2537 2.98533 21.0225 1.75395 19.5039 1.75391H4.50391C2.98513 1.75391 1.75391 2.98512 1.75391 4.50391V19.5039C1.75393 21.0227 2.98514 22.2539 4.50391 22.2539H19.5039ZM15.2969 7.29682C15.6874 6.9063 16.3204 6.9063 16.7109 7.29682C17.1015 7.68735 17.1015 8.32036 16.7109 8.71089L8.71094 16.7109C8.32041 17.1014 7.6874 17.1014 7.29688 16.7109C6.90635 16.3204 6.90635 15.6873 7.29688 15.2968L15.2969 7.29682Z" fill="currentColor" />
</svg>