<svg xmlns="http://www.w3.org/2000/svg" width="24" height="24" viewBox="0 0 24 24" fill="none">
    <path d="M19.3 9.55V4.675C19.3 4.13652 18.8635 3.7 18.325 3.7H4.675C4.13652 3.7 3.7 4.13652 3.7 4.675V18.325C3.7 18.8635 4.13652 19.3 4.675 19.3H9.55C10.0885 19.3 10.525 19.7365 10.525 20.275C10.525 20.8135 10.0885 21.25 9.55 21.25H4.675C3.05957 21.25 1.75 19.9404 1.75 18.325V4.675C1.75 3.05957 3.05957 1.75 4.675 1.75H18.325C19.9404 1.75 21.25 3.05957 21.25 4.675V9.55C21.25 10.0885 20.8135 10.525 20.275 10.525C19.7365 10.525 19.3 10.0885 19.3 9.55Z" fill="currentColor" />
    <path d="M21.6836 14.7588C22.0338 14.5585 22.25 14.1857 22.25 13.7822C22.2498 13.2803 21.9171 12.8392 21.4346 12.7012L11.2646 9.7959C11.1586 9.76563 11.0488 9.75 10.9385 9.75C10.2821 9.75005 9.75005 10.2821 9.75 10.9385C9.75 11.0488 9.76563 11.1586 9.7959 11.2646L12.7012 21.4346C12.8392 21.9171 13.2803 22.2498 13.7822 22.25C14.1857 22.25 14.5585 22.0338 14.7588 21.6836L16.1641 19.2246L18.793 21.8535C19.0468 22.1073 19.391 22.25 19.75 22.25C20.109 22.25 20.4532 22.1073 20.707 21.8535L21.8535 20.707C22.1073 20.4532 22.25 20.109 22.25 19.75C22.25 19.391 22.1073 19.0468 21.8535 18.793L19.2246 16.1641L21.6836 14.7588Z" fill="currentColor" />
</svg>