<svg xmlns="http://www.w3.org/2000/svg" width="24" height="24" viewBox="0 0 24 24" fill="none">
    <path d="M20.0039 19.0039V5.00391C20.0039 4.45162 19.5562 4.00391 19.0039 4.00391H5.00391C4.45162 4.00391 4.00391 4.45162 4.00391 5.00391V10.5039C4.00391 11.0562 3.55619 11.5039 3.00391 11.5039C2.45162 11.5039 2.00391 11.0562 2.00391 10.5039V5.00391C2.00391 3.34705 3.34705 2.00391 5.00391 2.00391H19.0039C20.6608 2.00391 22.0039 3.34705 22.0039 5.00391V19.0039C22.0039 20.6608 20.6608 22.0039 19.0039 22.0039H13.5039C12.9516 22.0039 12.5039 21.5562 12.5039 21.0039C12.5039 20.4516 12.9516 20.0039 13.5039 20.0039H19.0039C19.5562 20.0039 20.0039 19.5562 20.0039 19.0039Z" fill="currentColor" />
    <path d="M12.2969 10.2969C12.6874 9.9064 13.3204 9.90641 13.7109 10.2969C14.1015 10.6874 14.1014 11.3204 13.7109 11.711L5.41895 20.0039H9.00391C9.55619 20.0039 10.0039 20.4517 10.0039 21.0039C10.0039 21.5562 9.55619 22.0039 9.00391 22.0039H3.00391C2.45162 22.0039 2.00391 21.5562 2.00391 21.0039V15.0039C2.00391 14.4517 2.45162 14.0039 3.00391 14.0039C3.55619 14.0039 4.00391 14.4517 4.00391 15.0039V18.5899L12.2969 10.2969Z" fill="currentColor" />
</svg>