<svg xmlns="http://www.w3.org/2000/svg" width="24" height="24" viewBox="0 0 24 24" fill="none">
    <path d="M19.3213 1.75C20.9387 1.75 22.25 3.06131 22.25 4.67871V19.3213C22.25 20.9387 20.9387 22.25 19.3213 22.25C18.7822 22.2499 18.3457 21.8125 18.3457 21.2734C18.3459 20.7683 18.7297 20.3528 19.2217 20.3027L19.4219 20.293C19.9138 20.2427 20.2979 19.8265 20.2979 19.3213V4.67871C20.2979 4.13958 19.8604 3.70215 19.3213 3.70215H4.67871C4.13958 3.70215 3.70215 4.13958 3.70215 4.67871V19.3213C3.70215 19.8265 4.08616 20.2427 4.57812 20.293L4.77832 20.3027C5.27033 20.3528 5.65411 20.7683 5.6543 21.2734C5.6543 21.8125 5.21778 22.2499 4.67871 22.25C3.06131 22.25 1.75 20.9387 1.75 19.3213V4.67871C1.75 3.06131 3.06131 1.75 4.67871 1.75H19.3213ZM10.0479 20.2979C10.5868 20.298 11.0232 20.7346 11.0234 21.2734C11.0234 21.8125 10.5869 22.2499 10.0479 22.25H8.58301C8.04402 22.2498 7.60742 21.8125 7.60742 21.2734C7.60762 20.7346 8.04415 20.298 8.58301 20.2979H10.0479ZM15.417 20.2979C15.9559 20.298 16.3924 20.7346 16.3926 21.2734C16.3926 21.8125 15.956 22.2498 15.417 22.25H13.9521C13.4131 22.2499 12.9766 21.8125 12.9766 21.2734C12.9768 20.7346 13.4132 20.298 13.9521 20.2979H15.417ZM13.75 13.752C14.1312 13.3709 14.7487 13.3708 15.1299 13.752L17.5703 16.1924C17.9515 16.5736 17.9514 17.191 17.5703 17.5723C17.1891 17.9535 16.5717 17.9535 16.1904 17.5723L13.75 15.1318C13.3688 14.7506 13.3688 14.1332 13.75 13.752ZM16.1904 6.43066C16.5717 6.04952 17.1891 6.04947 17.5703 6.43066C17.9515 6.81187 17.9514 7.42933 17.5703 7.81055L10.8535 14.5273C10.9617 14.8032 11.0234 15.1028 11.0234 15.417C11.0234 16.7647 9.93064 17.8572 8.58301 17.8574C7.23517 17.8574 6.14258 16.7648 6.14258 15.417C6.1426 14.0692 7.23519 12.9766 8.58301 12.9766C8.89758 12.9766 9.19752 13.038 9.47363 13.1465L10.6191 12.002L9.47266 10.8555C9.19677 10.9637 8.89727 11.0253 8.58301 11.0254C7.23517 11.0254 6.14258 9.9328 6.14258 8.58496C6.1426 7.23714 7.23519 6.14453 8.58301 6.14453C9.93063 6.14477 11.0234 7.23729 11.0234 8.58496C11.0234 8.89929 10.9608 9.19866 10.8525 9.47461L11.999 10.6211L16.1904 6.43066ZM8.58301 14.9287C8.31346 14.9287 8.09475 15.1474 8.09473 15.417C8.09473 15.6866 8.31344 15.9053 8.58301 15.9053C8.85237 15.905 9.07031 15.6864 9.07031 15.417C9.07029 15.1476 8.85236 14.9289 8.58301 14.9287ZM8.58301 8.09668C8.31346 8.09668 8.09475 8.31541 8.09473 8.58496C8.09473 8.85453 8.31344 9.07324 8.58301 9.07324C8.85237 9.073 9.07031 8.85438 9.07031 8.58496C9.07029 8.31556 8.85236 8.09692 8.58301 8.09668Z" fill="currentColor" />
</svg>