<svg xmlns="http://www.w3.org/2000/svg" width="24" height="24" viewBox="0 0 24 24" fill="none">
    <path d="M8.25391 11.0039C8.25391 9.48512 9.48512 8.25391 11.0039 8.25391H15.0039C15.4181 8.25391 15.7539 8.58969 15.7539 9.00391V13.0025C15.7539 14.5209 14.5233 15.752 13.0049 15.7525L9.00416 15.7539C8.80521 15.754 8.61438 15.675 8.47367 15.5343C8.33296 15.3937 8.25391 15.2029 8.25391 15.0039V11.0039Z" fill="currentColor" />
    <path fill-rule="evenodd" clip-rule="evenodd" d="M17.4372 9.22057C17.4372 8.6867 17.87 8.25391 18.4039 8.25391H19.8539C21.4555 8.25391 22.7539 9.55228 22.7539 11.1539V11.6372C22.7539 12.1711 22.3211 12.6039 21.7872 12.6039C21.2534 12.6039 20.8206 12.1711 20.8206 11.6372V11.1539C20.8206 10.62 20.3878 10.1872 19.8539 10.1872H18.4039C17.87 10.1872 17.4372 9.75445 17.4372 9.22057ZM21.7872 13.5706C22.3211 13.5706 22.7539 14.0034 22.7539 14.5372V16.4706C22.7539 17.0044 22.3211 17.4372 21.7872 17.4372C21.2534 17.4372 20.8206 17.0044 20.8206 16.4706V14.5372C20.8206 14.0034 21.2534 13.5706 21.7872 13.5706ZM9.22057 17.9206C9.75445 17.9206 10.1872 18.3534 10.1872 18.8872V19.8539C10.1872 20.3878 10.62 20.8206 11.1539 20.8206H11.6372C12.1711 20.8206 12.6039 21.2534 12.6039 21.7872C12.6039 22.3211 12.1711 22.7539 11.6372 22.7539H11.1539C9.55228 22.7539 8.25391 21.4555 8.25391 19.8539V18.8872C8.25391 18.3534 8.6867 17.9206 9.22057 17.9206ZM21.7872 18.4039C22.3211 18.4039 22.7539 18.8367 22.7539 19.3706V19.8539C22.7539 21.4555 21.4555 22.7539 19.8539 22.7539H19.3706C18.8367 22.7539 18.4039 22.3211 18.4039 21.7872C18.4039 21.2534 18.8367 20.8206 19.3706 20.8206H19.8539C20.3878 20.8206 20.8206 20.3878 20.8206 19.8539V19.3706C20.8206 18.8367 21.2534 18.4039 21.7872 18.4039ZM13.5706 21.7872C13.5706 21.2534 14.0034 20.8206 14.5372 20.8206H16.4706C17.0044 20.8206 17.4372 21.2534 17.4372 21.7872C17.4372 22.3211 17.0044 22.7539 16.4706 22.7539H14.5372C14.0034 22.7539 13.5706 22.3211 13.5706 21.7872Z" fill="currentColor" />
    <path fill-rule="evenodd" clip-rule="evenodd" d="M4.15391 3.18724C3.62003 3.18724 3.18724 3.62003 3.18724 4.15391V4.63724C3.18724 5.17111 2.75445 5.60391 2.22057 5.60391C1.6867 5.60391 1.25391 5.17111 1.25391 4.63724L1.25391 4.15391C1.25391 2.55228 2.55228 1.25391 4.15391 1.25391L4.63724 1.25391C5.17112 1.25391 5.60391 1.6867 5.60391 2.22057C5.60391 2.75445 5.17112 3.18724 4.63724 3.18724H4.15391ZM6.57057 2.22057C6.57057 1.6867 7.00336 1.25391 7.53724 1.25391L9.47057 1.25391C10.0044 1.25391 10.4372 1.6867 10.4372 2.22057C10.4372 2.75445 10.0044 3.18724 9.47057 3.18724L7.53724 3.18724C7.00336 3.18724 6.57057 2.75445 6.57057 2.22057ZM11.4039 2.22057C11.4039 1.6867 11.8367 1.25391 12.3706 1.25391L12.8539 1.25391C14.4555 1.25391 15.7539 2.55228 15.7539 4.15391V5.12057C15.7539 5.65445 15.3211 6.08724 14.7872 6.08724C14.2534 6.08724 13.8206 5.65445 13.8206 5.12057V4.15391C13.8206 3.62003 13.3878 3.18724 12.8539 3.18724H12.3706C11.8367 3.18724 11.4039 2.75445 11.4039 2.22057ZM2.22057 6.57057C2.75445 6.57057 3.18724 7.00336 3.18724 7.53724L3.18724 9.47057C3.18724 10.0044 2.75445 10.4372 2.22057 10.4372C1.6867 10.4372 1.25391 10.0044 1.25391 9.47057L1.25391 7.53724C1.25391 7.00336 1.6867 6.57057 2.22057 6.57057ZM2.22057 11.4039C2.75445 11.4039 3.18724 11.8367 3.18724 12.3706V12.8539C3.18724 13.3878 3.62003 13.8206 4.15391 13.8206H5.60391C6.13778 13.8206 6.57057 14.2534 6.57057 14.7872C6.57057 15.3211 6.13778 15.7539 5.60391 15.7539H4.15391C2.55228 15.7539 1.25391 14.4555 1.25391 12.8539L1.25391 12.3706C1.25391 11.8367 1.6867 11.4039 2.22057 11.4039Z" fill="currentColor" />
</svg>