<svg xmlns="http://www.w3.org/2000/svg" width="24" height="24" viewBox="0 0 24 24" fill="none">
    <path d="M6.00391 1.75391C4.48512 1.75391 3.25391 2.98512 3.25391 4.50391V11.0039H12.5898L10.2969 8.71094C9.90638 8.32044 9.90643 7.68741 10.2969 7.29688C10.6874 6.90635 11.3204 6.90635 11.7109 7.29688L15.7109 11.2969C16.1015 11.6874 16.1015 12.3204 15.7109 12.7109L11.7109 16.7109C11.3204 17.1014 10.6874 17.1014 10.2969 16.7109C9.90638 16.3204 9.90643 15.6874 10.2969 15.2969L12.5898 13.0039H3.25391V19.5039C3.25391 21.0227 4.48512 22.2539 6.00391 22.2539H18.0039C19.5227 22.2539 20.7539 21.0227 20.7539 19.5039V4.50391C20.7539 2.98512 19.5227 1.75391 18.0039 1.75391H6.00391Z" fill="currentColor" />
</svg>