<svg xmlns="http://www.w3.org/2000/svg" width="24" height="24" viewBox="0 0 24 24" fill="none">
    <path fill-rule="evenodd" clip-rule="evenodd" d="M19.5039 22.2539C21.0227 22.2539 22.2539 21.0227 22.2539 19.5039V4.50391C22.2537 2.98533 21.0225 1.75395 19.5039 1.75391H4.50391C2.98513 1.75391 1.75391 2.98512 1.75391 4.50391V19.5039C1.75393 21.0227 2.98514 22.2539 4.50391 22.2539H19.5039ZM18.0039 7.50391C18.5562 7.50391 19.0039 7.95162 19.0039 8.50391C19.0039 9.05619 18.5562 9.50391 18.0039 9.50391H13.6221L10.3984 15.9512C10.229 16.29 9.88268 16.5039 9.50391 16.5039C9.12513 16.5039 8.77877 16.29 8.60938 15.9512L7.22949 13.1924L6.71094 13.7109C6.32041 14.1015 5.6874 14.1015 5.29688 13.7109C4.90635 13.3204 4.90635 12.6874 5.29688 12.2969L5.81543 11.7783C6.78071 10.813 8.40806 11.0769 9.01855 12.2979L9.50293 13.2676L11.833 8.60938C12.1718 7.93184 12.8645 7.50391 13.6221 7.50391H18.0039Z" fill="currentColor" />
</svg>