<svg xmlns="http://www.w3.org/2000/svg" width="24" height="24" viewBox="0 0 24 24" fill="none">
    <path fill-rule="evenodd" clip-rule="evenodd" d="M22.2539 19.5039C22.2539 21.0227 21.0227 22.2539 19.5039 22.2539H4.50391C2.98512 22.2539 1.75391 21.0227 1.75391 19.5039V4.50391C1.75391 2.98512 2.98512 1.75391 4.50391 1.75391H19.5039C21.0227 1.75391 22.2539 2.98512 22.2539 4.50391V19.5039ZM10.8317 9.41761C10.9429 9.13459 11.0039 8.82638 11.0039 8.50391C11.0039 7.12319 9.88462 6.00391 8.50391 6.00391C7.12319 6.00391 6.00391 7.12319 6.00391 8.50391C6.00391 9.88462 7.12319 11.0039 8.50391 11.0039C8.82638 11.0039 9.13459 10.9429 9.41761 10.8317L10.5898 12.0039L9.41761 13.1761C9.13459 13.065 8.82638 13.0039 8.50391 13.0039C7.12319 13.0039 6.00391 14.1232 6.00391 15.5039C6.00391 16.8846 7.12319 18.0039 8.50391 18.0039C9.88462 18.0039 11.0039 16.8846 11.0039 15.5039C11.0039 15.1814 10.9429 14.8732 10.8317 14.5902L17.7109 7.71094C18.1015 7.32041 18.1015 6.6874 17.7109 6.29688C17.3204 5.90635 16.6874 5.90635 16.2969 6.29688L12.0039 10.5898L10.8317 9.41761ZM9.00391 8.50391C9.00391 8.22776 8.78005 8.00391 8.50391 8.00391C8.22776 8.00391 8.00391 8.22776 8.00391 8.50391C8.00391 8.78005 8.22776 9.00391 8.50391 9.00391C8.78005 9.00391 9.00391 8.78005 9.00391 8.50391ZM8.50391 15.0039C8.78005 15.0039 9.00391 15.2278 9.00391 15.5039C9.00391 15.78 8.78005 16.0039 8.50391 16.0039C8.22776 16.0039 8.00391 15.78 8.00391 15.5039C8.00391 15.2278 8.22776 15.0039 8.50391 15.0039ZM13.7969 13.7969C14.1874 13.4064 14.8204 13.4064 15.2109 13.7969L17.7109 16.2969C18.1015 16.6874 18.1015 17.3204 17.7109 17.7109C17.3204 18.1015 16.6874 18.1015 16.2969 17.7109L13.7969 15.2109C13.4064 14.8204 13.4064 14.1874 13.7969 13.7969Z" fill="currentColor" />
</svg>