<svg xmlns="http://www.w3.org/2000/svg" width="24" height="24" viewBox="0 0 24 24" fill="none">
    <path d="M19.5039 1.75391C21.0227 1.75391 22.2539 2.98512 22.2539 4.50391V19.5039C22.2539 21.0227 21.0227 22.2539 19.5039 22.2539H4.50391C2.98512 22.2539 1.75391 21.0227 1.75391 19.5039V4.50391C1.75391 2.98512 2.98512 1.75391 4.50391 1.75391H19.5039ZM10.0039 7.00391C9.62513 7.00391 9.27877 7.21786 9.10938 7.55664L7.38574 11.0039H6.00391C5.45162 11.0039 5.00391 11.4516 5.00391 12.0039C5.00391 12.5562 5.45162 13.0039 6.00391 13.0039H8.00391C8.38268 13.0039 8.72905 12.79 8.89844 12.4512L10.0039 10.2402L13.1094 16.4512C13.2788 16.79 13.6251 17.0039 14.0039 17.0039C14.3827 17.0039 14.729 16.79 14.8984 16.4512L16.6221 13.0039H18.0039C18.5562 13.0039 19.0039 12.5562 19.0039 12.0039C19.0039 11.4516 18.5562 11.0039 18.0039 11.0039H16.0039C15.6251 11.0039 15.2788 11.2179 15.1094 11.5566L14.0039 13.7676L10.8984 7.55664C10.729 7.21786 10.3827 7.00391 10.0039 7.00391Z" fill="currentColor" />
</svg>