<svg xmlns="http://www.w3.org/2000/svg" width="24" height="24" viewBox="0 0 24 24" fill="none">
    <path d="M19.5039 1.75391C21.0227 1.75391 22.2539 2.98512 22.2539 4.50391V19.5039C22.2539 21.0227 21.0227 22.2539 19.5039 22.2539H4.50391C2.98512 22.2539 1.75391 21.0227 1.75391 19.5039V4.50391C1.75391 2.98512 2.98512 1.75391 4.50391 1.75391H19.5039ZM12.0039 7.00391C11.4516 7.00391 11.0039 7.45162 11.0039 8.00391V11.0039H8.00391C7.45162 11.0039 7.00391 11.4516 7.00391 12.0039C7.00391 12.5562 7.45162 13.0039 8.00391 13.0039H11.0039V16.0039C11.0039 16.5562 11.4516 17.0039 12.0039 17.0039C12.5562 17.0039 13.0039 16.5562 13.0039 16.0039V13.0039H16.0039C16.5562 13.0039 17.0039 12.5562 17.0039 12.0039C17.0039 11.4516 16.5562 11.0039 16.0039 11.0039H13.0039V8.00391C13.0039 7.45162 12.5562 7.00391 12.0039 7.00391Z" fill="currentColor" />
</svg>