<svg xmlns="http://www.w3.org/2000/svg" width="24" height="24" viewBox="0 0 24 24" fill="none">
    <path d="M11.0039 21.0039V3.00391C11.0039 2.45162 11.4516 2.00391 12.0039 2.00391C12.5562 2.00391 13.0039 2.45162 13.0039 3.00391V21.0039C13.0039 21.5562 12.5562 22.0039 12.0039 22.0039C11.4516 22.0039 11.0039 21.5562 11.0039 21.0039Z" fill="currentColor" />
    <path d="M3.00391 18.0039V6.00391C3.00391 4.34705 4.34705 3.00391 6.00391 3.00391H8.00391C8.55619 3.00391 9.00391 3.45162 9.00391 4.00391C9.00391 4.55619 8.55619 5.00391 8.00391 5.00391H6.00391C5.45162 5.00391 5.00391 5.45162 5.00391 6.00391V18.0039C5.00391 18.5562 5.45162 19.0039 6.00391 19.0039H8.00391C8.55619 19.0039 9.00391 19.4516 9.00391 20.0039C9.00391 20.5562 8.55619 21.0039 8.00391 21.0039H6.00391C4.34705 21.0039 3.00391 19.6608 3.00391 18.0039ZM19.0039 18.0039V6.00391C19.0039 5.45162 18.5562 5.00391 18.0039 5.00391H16.0039C15.4516 5.00391 15.0039 4.55619 15.0039 4.00391C15.0039 3.45162 15.4516 3.00391 16.0039 3.00391H18.0039C19.6608 3.00391 21.0039 4.34705 21.0039 6.00391V18.0039C21.0039 19.6608 19.6608 21.0039 18.0039 21.0039H16.0039C15.4516 21.0039 15.0039 20.5562 15.0039 20.0039C15.0039 19.4516 15.4516 19.0039 16.0039 19.0039H18.0039C18.5562 19.0039 19.0039 18.5562 19.0039 18.0039Z" fill="currentColor" />
</svg>