<svg xmlns="http://www.w3.org/2000/svg" width="24" height="24" viewBox="0 0 24 24" fill="none">
    <path d="M19.0039 2.25391C20.5227 2.25391 21.7539 3.48512 21.7539 5.00391V19.0039C21.7539 20.5227 20.5227 21.7539 19.0039 21.7539H5.00391C3.48512 21.7539 2.25391 20.5227 2.25391 19.0039V5.00391C2.25391 3.48512 3.48512 2.25391 5.00391 2.25391H19.0039ZM17.0039 6.00391C16.4516 6.00391 16.0039 6.45162 16.0039 7.00391V17.0039C16.0039 17.5562 16.4516 18.0039 17.0039 18.0039C17.5562 18.0039 18.0039 17.5562 18.0039 17.0039V7.00391C18.0039 6.45162 17.5562 6.00391 17.0039 6.00391ZM7.00391 6.00391C6.45162 6.00391 6.00391 6.45162 6.00391 7.00391V14.0039C6.00391 14.5562 6.45162 15.0039 7.00391 15.0039C7.55619 15.0039 8.00391 14.5562 8.00391 14.0039V7.00391C8.00391 6.45162 7.55619 6.00391 7.00391 6.00391ZM12.0039 6.00391C11.4516 6.00391 11.0039 6.45162 11.0039 7.00391V11.0039C11.0039 11.5562 11.4516 12.0039 12.0039 12.0039C12.5562 12.0039 13.0039 11.5562 13.0039 11.0039V7.00391C13.0039 6.45162 12.5562 6.00391 12.0039 6.00391Z" fill="currentColor" />
</svg>