<svg xmlns="http://www.w3.org/2000/svg" width="24" height="24" viewBox="0 0 24 24" fill="none">
    <path d="M13.9902 20.4629C14.5417 20.4373 15.0093 20.8636 15.0352 21.415C15.0609 21.9667 14.6347 22.4352 14.083 22.4609C13.4377 22.4911 12.7453 22.5039 12.0039 22.5039C11.2625 22.5039 10.5702 22.4911 9.9248 22.4609C9.37312 22.4352 8.94687 21.9667 8.97266 21.415C8.99854 20.8636 9.46609 20.4373 10.0176 20.4629C10.6241 20.4912 11.2845 20.5039 12.0039 20.5039C12.7233 20.5039 13.3837 20.4912 13.9902 20.4629ZM2.85059 17.0967C3.36793 16.9034 3.94438 17.1662 4.1377 17.6836C4.55541 18.8012 5.20657 19.4524 6.32422 19.8701C6.84157 20.0634 7.10445 20.6399 6.91113 21.1572C6.71778 21.6742 6.14211 21.937 5.625 21.7441C3.9644 21.1236 2.88418 20.0434 2.26367 18.3828C2.07078 17.8657 2.33361 17.29 2.85059 17.0967ZM19.8701 17.6836C20.0634 17.1662 20.6399 16.9034 21.1572 17.0967C21.6742 17.29 21.937 17.8657 21.7441 18.3828C21.1236 20.0434 20.0434 21.1236 18.3828 21.7441C17.8657 21.937 17.29 21.6742 17.0967 21.1572C16.9034 20.6399 17.1662 20.0634 17.6836 19.8701C18.8012 19.4524 19.4524 18.8012 19.8701 17.6836ZM1.50391 12.0039C1.50391 11.2625 1.51672 10.5702 1.54688 9.9248C1.57266 9.37312 2.04109 8.94687 2.59277 8.97266C3.14426 8.99854 3.57054 9.46609 3.54492 10.0176C3.51657 10.6241 3.50391 11.2845 3.50391 12.0039C3.50391 12.7233 3.51657 13.3837 3.54492 13.9902C3.57054 14.5417 3.14426 15.0093 2.59277 15.0352C2.04109 15.0609 1.57266 14.6347 1.54688 14.083C1.51672 13.4377 1.50391 12.7453 1.50391 12.0039ZM20.5039 12.0039C20.5039 11.2845 20.4912 10.6241 20.4629 10.0176C20.4373 9.46609 20.8636 8.99854 21.415 8.97266C21.9667 8.94687 22.4352 9.37312 22.4609 9.9248C22.4911 10.5702 22.5039 11.2625 22.5039 12.0039C22.5039 12.7453 22.4911 13.4377 22.4609 14.083C22.4352 14.6347 21.9667 15.0609 21.415 15.0352C20.8636 15.0093 20.4373 14.5417 20.4629 13.9902C20.4912 13.3837 20.5039 12.7233 20.5039 12.0039ZM5.625 2.26367C6.14211 2.07078 6.71778 2.33361 6.91113 2.85059C7.10445 3.36793 6.84157 3.94438 6.32422 4.1377C5.20657 4.55541 4.55541 5.20657 4.1377 6.32422C3.94438 6.84157 3.36793 7.10445 2.85059 6.91113C2.33361 6.71778 2.07078 6.14211 2.26367 5.625C2.88418 3.9644 3.9644 2.88418 5.625 2.26367ZM17.0967 2.85059C17.29 2.33361 17.8657 2.07078 18.3828 2.26367C20.0434 2.88418 21.1236 3.9644 21.7441 5.625C21.937 6.14211 21.6742 6.71778 21.1572 6.91113C20.6399 7.10445 20.0634 6.84157 19.8701 6.32422C19.4524 5.20657 18.8012 4.55541 17.6836 4.1377C17.1662 3.94438 16.9034 3.36793 17.0967 2.85059ZM12.0039 1.50391C12.7453 1.50391 13.4377 1.51672 14.083 1.54688C14.6347 1.57266 15.0609 2.04109 15.0352 2.59277C15.0093 3.14426 14.5417 3.57054 13.9902 3.54492C13.3837 3.51657 12.7233 3.50391 12.0039 3.50391C11.2845 3.50391 10.6241 3.51657 10.0176 3.54492C9.46609 3.57054 8.99854 3.14426 8.97266 2.59277C8.94687 2.04109 9.37312 1.57266 9.9248 1.54688C10.5702 1.51672 11.2625 1.50391 12.0039 1.50391Z" fill="currentColor" />
</svg>