<svg xmlns="http://www.w3.org/2000/svg" width="24" height="24" viewBox="0 0 24 24" fill="none">
    <path d="M9.25391 9.70081C9.71183 9.3258 10.215 9.00388 10.7539 8.74444V7.00391C10.7539 4.38055 8.62726 2.25391 6.00391 2.25391C3.38055 2.25391 1.25391 4.38055 1.25391 7.00391V8.00391C1.25391 9.71471 2.57579 11.1168 4.25391 11.2444V15.0039C4.25391 18.2727 6.57744 20.9988 9.66298 21.6207C8.58227 20.8524 7.71392 19.8048 7.16318 18.5832C6.73962 17.6437 6.50391 16.6014 6.50391 15.5039C6.50391 13.1641 7.5751 11.0757 9.25391 9.70081Z" fill="currentColor" />
    <path d="M15.2539 17.0039V20.2539H18.0039C18.4181 20.2539 18.7539 20.5897 18.7539 21.0039C18.7539 21.4181 18.4181 21.7539 18.0039 21.7539H15.2539H14.0039C10.5521 21.7539 7.75391 18.9557 7.75391 15.5039C7.75391 12.2374 10.2598 9.55674 13.4541 9.27832L14.2539 6.88086V6.00391C14.2539 4.48512 15.4851 3.25391 17.0039 3.25391H18.0039C18.4181 3.25391 18.7539 3.58969 18.7539 4.00391V5.3125C21.0209 5.67207 22.7539 7.63574 22.7539 10.0039V10.5039C22.7539 11.4704 21.9704 12.2539 21.0039 12.2539C20.3135 12.2539 19.7539 12.8135 19.7539 13.5039V15.7676C19.7539 16.8092 19.1651 17.7617 18.2334 18.2275L16.7539 18.9668V17.0039C16.7539 14.9328 15.075 13.2539 13.0039 13.2539C12.5897 13.2539 12.2539 13.5897 12.2539 14.0039C12.2539 14.4181 12.5897 14.7539 13.0039 14.7539C14.2465 14.7539 15.2539 15.7613 15.2539 17.0039Z" fill="currentColor" />
</svg>