<svg xmlns="http://www.w3.org/2000/svg" width="24" height="24" viewBox="0 0 24 24" fill="none">
    <path d="M10.7539 21.0039C10.7539 21.9704 9.9704 22.7539 9.00391 22.7539H5.00391C4.03741 22.7539 3.25391 21.9704 3.25391 21.0039V3.00391C3.25391 2.03741 4.03741 1.25391 5.00391 1.25391H9.00391C9.9704 1.25391 10.7539 2.03741 10.7539 3.00391V21.0039Z" fill="currentColor" />
    <path d="M20.7539 21.0039C20.7539 21.9704 19.9704 22.7539 19.0039 22.7539H15.0039C14.0374 22.7539 13.2539 21.9704 13.2539 21.0039V3.00391C13.2539 2.03741 14.0374 1.25391 15.0039 1.25391H19.0039C19.9704 1.25391 20.7539 2.03741 20.7539 3.00391V21.0039Z" fill="currentColor" />
</svg>