<svg xmlns="http://www.w3.org/2000/svg" width="24" height="24" viewBox="0 0 24 24" fill="none">
    <path d="M16 1.25C16.1989 1.25 16.3896 1.32907 16.5303 1.46973L18.3105 3.25H20C21.5188 3.25 22.75 4.48122 22.75 6V20C22.75 21.5188 21.5188 22.75 20 22.75H4C2.48122 22.75 1.25 21.5188 1.25 20V6C1.25 4.48122 2.48122 3.25 4 3.25H5.68945L7.46973 1.46973L7.58398 1.37598C7.70628 1.29445 7.85085 1.25 8 1.25H16ZM11.1475 12.75L9.87207 21.25H14.1299L12.8545 12.75H11.1475ZM10.3809 9.68066L11.0088 11.25H12.9932L13.6211 9.68066L12.001 8.06055L10.3809 9.68066ZM6.85938 4.20215L8.54199 9.25H8.69043L10.9951 6.94434L7.93848 3.12305L6.85938 4.20215ZM13.0059 6.94434L15.3115 9.25H15.46L17.1426 4.20215L16.0635 3.12305L13.0059 6.94434ZM9.56152 2.75L12.001 5.79883L14.4404 2.75H9.56152Z" fill="currentColor" />
</svg>