<svg xmlns="http://www.w3.org/2000/svg" width="24" height="24" viewBox="0 0 24 24" fill="none">
    <path d="M18.0039 12.0039C18.0039 15.3176 15.3176 18.0039 12.0039 18.0039C8.6902 18.0039 6.00391 15.3176 6.00391 12.0039C6.00391 8.6902 8.6902 6.00391 12.0039 6.00391C15.3176 6.00391 18.0039 8.6902 18.0039 12.0039Z" fill="currentColor" />
    <path d="M12.0029 19.5039C12.6933 19.5039 13.2529 20.0636 13.2529 20.7539C13.2529 21.4443 12.6933 22.0039 12.0029 22.0039C11.3127 22.0038 10.7529 21.4442 10.7529 20.7539C10.7529 20.0636 11.3127 19.504 12.0029 19.5039ZM17.4023 17.2217C17.8605 16.848 18.5213 16.848 18.9795 17.2217L19.0752 17.3076L19.1602 17.4023C19.5607 17.8933 19.5328 18.6175 19.0752 19.0752C18.587 19.5633 17.7948 19.5633 17.3066 19.0752C16.8187 18.5872 16.8189 17.7958 17.3066 17.3076L17.4023 17.2217ZM5.02734 17.2207C5.48545 16.8472 6.14634 16.8473 6.60449 17.2207L6.7002 17.3066L6.78613 17.4014C7.18644 17.8922 7.15759 18.6166 6.7002 19.0742C6.21208 19.5623 5.42078 19.5622 4.93262 19.0742C4.44446 18.5861 4.44446 17.7948 4.93262 17.3066L5.02734 17.2207ZM22.0039 12.0039C22.0039 12.6943 21.4443 13.2539 20.7539 13.2539C20.0635 13.2539 19.5039 12.6943 19.5039 12.0039C19.5039 11.3135 20.0636 10.7539 20.7539 10.7539C21.4443 10.7539 22.0039 11.3135 22.0039 12.0039ZM4.93262 4.93262C5.4207 4.44461 6.21204 4.44473 6.7002 4.93262C7.18832 5.42075 7.18828 6.21203 6.7002 6.7002C6.21204 7.18835 5.42077 7.18835 4.93262 6.7002C4.4447 6.21202 4.44455 5.42069 4.93262 4.93262ZM17.3066 4.93262C17.7947 4.44453 18.586 4.44466 19.0742 4.93262C19.5624 5.42077 19.5624 6.21204 19.0742 6.7002C18.5861 7.18825 17.7948 7.18831 17.3066 6.7002C16.8187 6.21206 16.8187 5.42072 17.3066 4.93262ZM12.1318 2.01074C12.7619 2.07497 13.2539 2.60686 13.2539 3.25391C13.2539 3.94416 12.6941 4.50374 12.0039 4.50391C11.3567 4.50391 10.8238 4.01211 10.7598 3.38184L10.7539 3.25391L10.7598 3.12598C10.8238 2.49571 11.3567 2.00391 12.0039 2.00391L12.1318 2.01074ZM4.50391 12.0039C4.50391 12.6943 3.94426 13.2539 3.25391 13.2539C2.56355 13.2539 2.00391 12.6943 2.00391 12.0039C2.00391 11.3135 2.56355 10.7539 3.25391 10.7539C3.94426 10.7539 4.50391 11.3135 4.50391 12.0039Z" fill="currentColor" />
</svg>