<svg xmlns="http://www.w3.org/2000/svg" width="24" height="24" viewBox="0 0 24 24" fill="none">
    <path d="M12 1.25C15.6638 1.25 18.8991 3.08305 20.8398 5.88184C20.9776 6.08045 21.0464 6.18006 21.0186 6.27246C20.9904 6.36455 20.8649 6.41494 20.6143 6.51465C19.2292 7.06583 18.25 8.41845 18.25 10C18.25 12.0711 19.9289 13.75 22 13.75H22.2021C22.3592 13.7528 22.4479 13.7673 22.4932 13.8252C22.5534 13.9024 22.5238 14.0213 22.4639 14.2588C22.3323 14.7797 22.1545 15.2939 21.9316 15.7812C21.4236 16.8925 20.7812 17.9222 19.7061 18.543C19.6305 18.5866 19.593 18.6091 19.5693 18.6387C19.5457 18.6684 19.5327 18.7093 19.5078 18.791C19.2086 19.7714 18.5421 20.9409 17.6328 21.6377C16.9782 22.1393 16.0548 22.4545 15.1133 22.6504C14.1478 22.8512 13.0563 22.9475 11.9795 22.9473C10.9026 22.947 9.81132 22.8504 8.84668 22.6494C7.9064 22.4535 6.98518 22.138 6.33203 21.6377C5.41712 20.9366 4.83373 19.8028 4.53809 18.8281C4.51333 18.7465 4.50105 18.7056 4.47754 18.6758C4.45391 18.646 4.4157 18.6239 4.33984 18.5801C3.26461 17.9593 2.57649 16.8925 2.06836 15.7812C1.84555 15.2939 1.66766 14.7797 1.53613 14.2588C1.47618 14.0213 1.44662 13.9024 1.50684 13.8252C1.55214 13.7673 1.64077 13.7528 1.79785 13.75H2C4.07107 13.75 5.75 12.0711 5.75 10C5.75 8.41845 4.77084 7.06583 3.38574 6.51465C3.13512 6.41494 3.00962 6.36455 2.98145 6.27246C2.95357 6.18006 3.02244 6.08045 3.16016 5.88184C5.10089 3.08305 8.33624 1.25 12 1.25ZM12.3691 15.1504C10.2598 15.1492 7.99492 15.6802 6.31641 16.6797C6.21438 16.7404 6.16383 16.7713 6.1377 16.8252C6.11157 16.879 6.11924 16.9382 6.13477 17.0566C6.29535 18.2818 6.74074 19.5401 7.52441 20.1406C7.83419 20.378 8.41652 20.6164 9.25 20.79C10.0593 20.9586 11.0127 21.0466 11.9805 21.0469C12.9483 21.0471 13.9021 20.9595 14.7119 20.791C15.5454 20.6176 16.1282 20.3789 16.4395 20.1406C17.2434 19.5246 17.769 18.1963 17.9111 16.9395C17.9228 16.8361 17.9286 16.7835 17.9072 16.7344C17.8858 16.6855 17.8448 16.6556 17.7637 16.5957C16.513 15.6716 14.4748 15.1516 12.3691 15.1504ZM9.00879 17C9.56107 17 10.0088 17.4477 10.0088 18C10.0088 18.5523 9.56107 19 9.00879 19H9C8.44772 19 8 18.5523 8 18C8 17.4477 8.44772 17 9 17H9.00879ZM15 17C15.5523 17 16 17.4477 16 18C16 18.5523 15.5523 19 15 19H14.9912C14.4389 19 13.9912 18.5523 13.9912 18C13.9912 17.4477 14.4389 17 14.9912 17H15ZM2.39844 7.78516C3.45103 7.97325 4.25 8.89333 4.25 10C4.25 11.2426 3.24264 12.25 2 12.25C1.78032 12.25 1.56789 12.2189 1.36719 12.1602C1.29665 12.1395 1.25 12.0735 1.25 12C1.25 10.5904 1.52142 9.24423 2.01465 8.01074C2.06506 7.88467 2.09026 7.82167 2.15234 7.78711C2.21455 7.75257 2.27598 7.76328 2.39844 7.78516ZM21.6016 7.78516C21.724 7.76328 21.7854 7.75257 21.8477 7.78711C21.9097 7.82167 21.9349 7.88467 21.9854 8.01074C22.4786 9.24423 22.75 10.5904 22.75 12C22.75 12.0735 22.7033 12.1395 22.6328 12.1602C22.4321 12.2189 22.2197 12.25 22 12.25C20.7574 12.25 19.75 11.2426 19.75 10C19.75 8.89332 20.549 7.97325 21.6016 7.78516ZM12 3.25C9.92893 3.25 8.25 4.92893 8.25 7C8.25 9.07107 9.92893 10.75 12 10.75C14.0711 10.75 15.75 9.07107 15.75 7C15.75 4.92893 14.0711 3.25 12 3.25ZM12 4.75C13.2426 4.75 14.25 5.75736 14.25 7C14.25 8.24264 13.2426 9.25 12 9.25C10.7574 9.25 9.75 8.24264 9.75 7C9.75 5.75736 10.7574 4.75 12 4.75Z" fill="currentColor" />
</svg>