<svg xmlns="http://www.w3.org/2000/svg" width="24" height="24" viewBox="0 0 24 24" fill="none">
    <path fill-rule="evenodd" clip-rule="evenodd" d="M4.24979 16.9998C4.24979 17.1161 4.27692 17.2307 4.32889 17.3348L4.32987 17.3357V17.3367L4.33085 17.3396L4.33378 17.3445L4.33963 17.3562C4.34424 17.3649 4.35038 17.3752 4.35721 17.3875C4.37117 17.4125 4.38996 17.445 4.41385 17.4832C4.46161 17.5596 4.53014 17.661 4.62284 17.7781C4.69057 17.8637 4.77314 17.956 4.86796 18.0555L2.33085 18.9441C1.80972 19.1265 1.23905 18.8518 1.05643 18.3309C0.873993 17.8096 1.14848 17.2389 1.66971 17.0564L4.24979 16.1531V16.9998ZM21.6697 10.0564C22.191 9.87399 22.7617 10.1484 22.9441 10.6697C23.1265 11.1909 22.8519 11.7616 22.3308 11.9441L14.7498 14.5975V12.4783L21.6697 10.0564Z" fill="currentColor" />
    <path fill-rule="evenodd" clip-rule="evenodd" d="M8.5 9.5C8.5 8.94772 8.94772 8.5 9.5 8.5H9.50898C10.0613 8.5 10.509 8.94772 10.509 9.5C10.509 10.0523 10.0613 10.5 9.50898 10.5H9.5C8.94772 10.5 8.5 10.0523 8.5 9.5Z" fill="currentColor" />
    <path d="M14.75 17C14.75 17.1163 14.7228 17.2309 14.6709 17.335L14.6699 17.3359V17.3369L14.6689 17.3398L14.666 17.3447L14.6602 17.3564C14.6556 17.3651 14.6494 17.3754 14.6426 17.3877C14.6286 17.4127 14.6098 17.4452 14.5859 17.4834C14.5382 17.5598 14.4697 17.6612 14.377 17.7783C14.1914 18.0126 13.9089 18.3118 13.5039 18.6064C12.6843 19.2026 11.4035 19.75 9.5 19.75C7.59647 19.75 6.31575 19.2026 5.49609 18.6064C5.23892 18.4194 5.03307 18.2286 4.86816 18.0557L14.75 14.5977V17ZM9.5 6.25C10.8454 6.25 12.1005 6.55109 13.0459 7.07617C13.6282 7.39968 14.1559 7.85014 14.4648 8.41211C14.6383 8.54948 14.75 8.76154 14.75 9V12.4785L4.25 16.1533V9.5C4.25 8.41359 5.0341 7.58728 5.9541 7.07617C6.89946 6.55109 8.15464 6.25 9.5 6.25ZM9.5 7.75C8.36047 7.75 7.36588 8.0082 6.68262 8.3877C5.97393 8.78141 5.75 9.2057 5.75 9.5C5.75 9.7943 5.97393 10.2186 6.68262 10.6123C7.36588 10.9918 8.36047 11.25 9.5 11.25C10.6395 11.25 11.6341 10.9918 12.3174 10.6123C13.0261 10.2186 13.25 9.7943 13.25 9.5C13.25 9.2057 13.0261 8.78141 12.3174 8.3877C11.6341 8.0082 10.6395 7.75 9.5 7.75Z" fill="currentColor" />
    <path fill-rule="evenodd" clip-rule="evenodd" d="M22.9122 4.58988C23.1388 5.09352 22.9143 5.68553 22.4106 5.91217L14.4106 9.51217C13.907 9.73881 13.315 9.51425 13.0883 9.01061C12.8617 8.50697 13.0862 7.91496 13.5899 7.68833L21.5899 4.08833C22.0935 3.86169 22.6855 4.08624 22.9122 4.58988ZM5.91217 12.2399C6.13881 12.7435 5.91425 13.3355 5.41061 13.5622L2.41061 14.9122C1.90697 15.1388 1.31496 14.9143 1.08833 14.4106C0.861687 13.907 1.08624 13.315 1.58988 13.0883L4.58988 11.7383C5.09352 11.5117 5.68553 11.7362 5.91217 12.2399Z" fill="currentColor" />
</svg>