<svg xmlns="http://www.w3.org/2000/svg" width="24" height="24" viewBox="0 0 24 24" fill="none">
    <path d="M18.0001 1.99951C18.5524 1.99951 19.0001 2.44723 19.0001 2.99951C19.0001 3.5518 18.5524 3.99951 18.0001 3.99951H11.0001V8.99951H17.0001C17.5524 8.99951 18.0001 9.44723 18.0001 9.99951C18.0001 10.5518 17.5524 10.9995 17.0001 10.9995H11.0001V14.9995H14.0001C14.5524 14.9995 15.0001 15.4472 15.0001 15.9995C15.0001 16.5518 14.5524 16.9995 14.0001 16.9995H11.0001V20.9995C11.0001 21.5518 10.5524 21.9995 10.0001 21.9995C9.44784 21.9995 9.00012 21.5518 9.00012 20.9995V16.9995H6.00012C5.44784 16.9995 5.00012 16.5518 5.00012 15.9995C5.00012 15.4472 5.44784 14.9995 6.00012 14.9995H9.00012V3.99951C9.00012 2.89494 9.89555 1.99951 11.0001 1.99951H18.0001Z" fill="currentColor" />
</svg>