<svg xmlns="http://www.w3.org/2000/svg" width="24" height="24" viewBox="0 0 24 24" fill="none">
    <path d="M18.5 1.25C20.0188 1.25 21.25 2.48122 21.25 4L21.25 20C21.25 21.5188 20.0188 22.75 18.5 22.75L5.5 22.75C3.98122 22.75 2.75 21.5188 2.75 20L2.75 4C2.75 2.48122 3.98122 1.25 5.5 1.25L18.5 1.25ZM12 18C11.4477 18 11 18.4477 11 19C11 19.5523 11.4477 20 12 20C12.5523 20 13 19.5523 13 19C13 18.4477 12.5523 18 12 18ZM10 3.25C9.58579 3.25 9.25 3.58579 9.25 4C9.25 4.41421 9.58579 4.75 10 4.75L14 4.75C14.4142 4.75 14.75 4.41421 14.75 4C14.75 3.58579 14.4142 3.25 14 3.25L10 3.25Z" fill="currentColor" />
</svg>