<svg xmlns="http://www.w3.org/2000/svg" width="24" height="24" viewBox="0 0 24 24" fill="none">
    <path d="M13.9542 18.3379C14.4939 18.3379 14.9317 18.774 14.9317 19.3125V20.7754C14.9315 21.3137 14.4938 21.75 13.9542 21.75C13.4148 21.7498 12.9778 21.3135 12.9776 20.7754V19.3125C12.9776 18.7742 13.4147 18.3381 13.9542 18.3379ZM8.09091 3.22461C9.71004 3.22461 11.0224 4.53407 11.0226 6.14941V17.8496C11.0226 19.465 9.71011 20.7744 8.09091 20.7744H2.22763C1.68796 20.7744 1.2502 20.3382 1.25009 19.7998C1.25009 19.2613 1.6879 18.8242 2.22763 18.8242H5.15927V16.875H2.22763C1.68803 16.875 1.2503 16.4387 1.25009 15.9004C1.25009 15.3619 1.6879 14.9248 2.22763 14.9248H5.15927V12.9756H2.22763C1.6879 12.9756 1.25009 12.5385 1.25009 12C1.2503 11.4617 1.68803 11.0254 2.22763 11.0254H5.15927V9.0752H2.22763C1.6879 9.0752 1.25009 8.63809 1.25009 8.09961C1.2503 7.56131 1.68803 7.125 2.22763 7.125H5.15927V5.1748H2.22763C1.6879 5.1748 1.25009 4.7377 1.25009 4.19922C1.2503 3.66092 1.68803 3.22461 2.22763 3.22461H8.09091ZM21.7735 3.22461C22.313 3.2248 22.7499 3.66104 22.7501 4.19922C22.7501 4.73758 22.3131 5.17461 21.7735 5.1748H19.8185C19.2789 5.1749 18.841 5.61109 18.8409 6.14941V7.125H21.7735C22.313 7.12519 22.7499 7.56143 22.7501 8.09961C22.7501 8.63797 22.3131 9.075 21.7735 9.0752H18.8409V11.0254H21.7735C22.313 11.0256 22.7499 11.4618 22.7501 12C22.7501 12.5384 22.3131 12.9754 21.7735 12.9756H18.8409V14.9248H21.7735C22.313 14.925 22.7499 15.3612 22.7501 15.8994C22.7501 16.4378 22.3131 16.8748 21.7735 16.875H18.8409V17.8496C18.8409 18.388 19.2788 18.8241 19.8185 18.8242H21.7735C22.3131 18.8244 22.7501 19.2614 22.7501 19.7998C22.75 20.3381 22.313 20.7742 21.7735 20.7744H19.8185C18.1993 20.7743 16.8868 19.465 16.8868 17.8496V6.14941C16.8869 4.53413 18.1994 3.22471 19.8185 3.22461H21.7735ZM7.11337 18.8242H8.09091C8.63064 18.8242 9.06845 18.3881 9.06845 17.8496V16.875H7.11337V18.8242ZM13.9542 12.9746C14.4939 12.9746 14.9317 13.4117 14.9317 13.9502V15.4121C14.9317 15.9506 14.4939 16.3877 13.9542 16.3877C13.4147 16.3875 12.9776 15.9504 12.9776 15.4121V13.9502C12.9776 13.4119 13.4147 12.9748 13.9542 12.9746ZM7.11337 14.9248H9.06845V12.9756H7.11337V14.9248ZM7.11337 11.0254H9.06845V9.0752H7.11337V11.0254ZM13.9542 7.6123C14.4939 7.6123 14.9317 8.04941 14.9317 8.58789V10.0498C14.9317 10.5883 14.4939 11.0254 13.9542 11.0254C13.4147 11.0252 12.9776 10.5881 12.9776 10.0498V8.58789C12.9776 8.04956 13.4147 7.61254 13.9542 7.6123ZM7.11337 7.125H9.06845V6.14941C9.06835 5.61103 8.63058 5.1748 8.09091 5.1748H7.11337V7.125ZM13.9542 2.25C14.4938 2.25 14.9315 2.68631 14.9317 3.22461V4.6875C14.9317 5.22598 14.4939 5.66211 13.9542 5.66211C13.4147 5.66187 12.9776 5.22583 12.9776 4.6875V3.22461C12.9778 2.68646 13.4148 2.25024 13.9542 2.25Z" fill="currentColor" />
</svg>