<svg xmlns="http://www.w3.org/2000/svg" width="24" height="24" viewBox="0 0 24 24" fill="none">
    <path fill-rule="evenodd" clip-rule="evenodd" d="M7.75 3.00098C7.75 2.03448 8.5335 1.25098 9.5 1.25098H14.5C15.4665 1.25098 16.25 2.03448 16.25 3.00098C16.25 3.96747 15.4665 4.75098 14.5 4.75098H9.5C8.5335 4.75098 7.75 3.96748 7.75 3.00098Z" fill="currentColor" />
    <path d="M6.50391 3.15527C6.58421 4.74042 7.8949 6.00098 9.5 6.00098L14.5 6.00098C16.1569 6.00098 17.5 4.65783 17.5 3.00098H18C19.5188 3.00098 20.75 4.23219 20.75 5.75098L20.75 19.999C20.7499 21.5177 19.5187 22.749 18 22.749L6 22.749C4.48129 22.749 3.25011 21.5177 3.25 19.999L3.25 5.75098C3.25 4.23219 4.48122 3.00098 6 3.00098H6.5L6.50391 3.15527ZM8.49023 16.001C7.93795 16.001 7.49023 16.4487 7.49023 17.001C7.49023 17.5533 7.93795 18.001 8.49023 18.001H8.5C9.05228 18.001 9.5 17.5533 9.5 17.001C9.5 16.4487 9.05228 16.001 8.5 16.001H8.49023ZM14 16.251C13.5858 16.251 13.25 16.5868 13.25 17.001C13.25 17.4152 13.5858 17.751 14 17.751L17 17.751C17.4142 17.751 17.75 17.4152 17.75 17.001C17.75 16.5868 17.4142 16.251 17 16.251L14 16.251ZM10.9688 8.91504C10.6454 8.65643 10.1728 8.709 9.91406 9.03223L8.4375 10.8779L8.03027 10.4707C7.73743 10.178 7.26259 10.178 6.96973 10.4707C6.67687 10.7636 6.67695 11.2383 6.96973 11.5313L7.96973 12.5313C8.12046 12.682 8.32817 12.7617 8.54102 12.75C8.75399 12.7382 8.95268 12.6363 9.08594 12.4697L11.0859 9.96973C11.3445 9.64629 11.2921 9.17374 10.9688 8.91504ZM14 10.251C13.5858 10.251 13.25 10.5868 13.25 11.001C13.25 11.4152 13.5858 11.751 14 11.751L17 11.751C17.4142 11.751 17.75 11.4152 17.75 11.001C17.75 10.5868 17.4142 10.251 17 10.251L14 10.251Z" fill="currentColor" />
</svg>