<svg xmlns="http://www.w3.org/2000/svg" width="24" height="24" viewBox="0 0 24 24" fill="none">
    <path fill-rule="evenodd" clip-rule="evenodd" d="M2.16793 8.94528C2.47429 8.48576 3.09516 8.36158 3.55468 8.66793L5.05468 9.66793C5.51421 9.97429 5.63839 10.5952 5.33203 11.0547C5.02568 11.5142 4.40481 11.6384 3.94528 11.332L2.44528 10.332C1.98576 10.0257 1.86158 9.40481 2.16793 8.94528Z" fill="currentColor" />
    <path fill-rule="evenodd" clip-rule="evenodd" d="M21.832 8.94528C22.1384 9.40481 22.0142 10.0257 21.5547 10.332L20.0547 11.332C19.5952 11.6384 18.9743 11.5142 18.6679 11.0547C18.3616 10.5952 18.4858 9.97429 18.9453 9.66793L20.4453 8.66793C20.9048 8.36158 21.5257 8.48576 21.832 8.94528Z" fill="currentColor" />
    <path d="M2.83408 20.3857C3.34474 20.5899 3.93909 20.8077 4.5328 20.9774C5.09187 21.1372 5.8041 21.3004 6.5 21.3004V21.882C6.5 22.2608 6.28516 22.6078 5.92479 22.7244C5.51406 22.8574 4.91769 23 4.25 23C3.58231 23 2.98594 22.8574 2.57521 22.7244C2.21484 22.6078 2 22.2608 2 21.882V20.0351C2.24895 20.1446 2.53195 20.2648 2.83408 20.3857Z" fill="currentColor" />
    <path d="M17.5 21.3004V21.882C17.5 22.2608 17.7148 22.6078 18.0752 22.7244C18.4859 22.8574 19.0823 23 19.75 23C20.4177 23 21.0141 22.8574 21.4248 22.7244C21.7852 22.6078 22 22.2608 22 21.882V20.0351C21.7511 20.1446 21.4681 20.2648 21.1659 20.3857C20.6553 20.5899 20.0609 20.8077 19.4672 20.9774C18.9081 21.1372 18.1959 21.3004 17.5 21.3004Z" fill="currentColor" />
    <path d="M19.5 9.5C19.7967 9.5 20.0786 9.63144 20.2686 9.85937L22.0723 12.0254C22.6714 12.7443 23 13.6501 23 14.5859L23 17.5C22.9999 17.8787 22.786 18.2252 22.4473 18.3945C22.4228 18.4065 22.3475 18.4432 22.3027 18.4648C22.2132 18.508 22.0848 18.5687 21.9268 18.6416C21.611 18.7873 21.1726 18.9831 20.6836 19.1787C20.1966 19.3735 19.6465 19.5743 19.1104 19.7275C18.5894 19.8765 18.0144 20 17.5 20L6.5 20C5.98564 20 5.41063 19.8765 4.88965 19.7275C4.35346 19.5743 3.80336 19.3735 3.31641 19.1787C2.82738 18.9831 2.38896 18.7873 2.07324 18.6416C1.91518 18.5687 1.78677 18.508 1.69727 18.4648C1.65391 18.4439 1.58238 18.4086 1.55566 18.3955L1.55273 18.3945C1.2141 18.2252 1.00015 17.8786 1 17.5L1 14.5859C1 13.6501 1.32861 12.7443 1.92773 12.0254L3.73145 9.85938C3.92144 9.63144 4.20326 9.5 4.5 9.5L19.5 9.5ZM9.71582 16C9.28541 16 8.90273 16.2753 8.7666 16.6836L8.32813 18L15.6621 18L15.2227 16.6836C15.0865 16.2755 14.7047 16.0001 14.2744 16L9.71582 16ZM3.68164 12.7725C3.27994 12.6723 2.87289 12.9167 2.77246 13.3184C2.67207 13.7202 2.91655 14.1271 3.31836 14.2275L5.31836 14.7275C5.7202 14.828 6.12708 14.5835 6.22754 14.1816C6.32777 13.7799 6.08337 13.3729 5.68164 13.2725L3.68164 12.7725ZM21.2275 13.3184C21.1271 12.9165 20.7202 12.6721 20.3184 12.7725L18.3184 13.2725C17.9167 13.3729 17.6723 13.7799 17.7725 14.1816C17.8729 14.5834 18.2799 14.8278 18.6816 14.7275L20.6816 14.2275C21.0835 14.1271 21.328 13.7202 21.2275 13.3184Z" fill="currentColor" />
    <path fill-rule="evenodd" clip-rule="evenodd" d="M7.94179 5.5C7.51136 5.5 7.12922 5.77543 6.99311 6.18377L5.44895 10.8162C5.27431 11.3402 4.70799 11.6233 4.18404 11.4487C3.6601 11.274 3.37694 10.7077 3.55159 10.1838L5.09574 5.55132C5.50408 4.32629 6.6505 3.5 7.94179 3.5H16.0588C17.35 3.5 18.4965 4.32629 18.9048 5.55132L20.449 10.1838C20.6236 10.7077 20.3404 11.274 19.8165 11.4487C19.2926 11.6233 18.7262 11.3402 18.5516 10.8162L17.0074 6.18377C16.8713 5.77543 16.4892 5.5 16.0588 5.5H7.94179Z" fill="currentColor" />
    <path d="M7.85865 2.60777C8.04562 1.67292 8.86645 1 9.81981 1H14.1802C15.1336 1 15.9544 1.67292 16.1414 2.60777L16.4806 4.30388C16.5889 4.84544 16.2377 5.37227 15.6961 5.48058H8.30389C7.76233 5.37227 7.41112 4.84544 7.51943 4.30388L7.85865 2.60777Z" fill="currentColor" />
</svg>