<svg xmlns="http://www.w3.org/2000/svg" width="24" height="24" viewBox="0 0 24 24" fill="none">
    <path d="M21 2C21.5523 2 22 2.44772 22 3C22 3.55228 21.5523 4 21 4H3C2.44772 4 2 3.55228 2 3C2 2.44772 2.44772 2 3 2H21Z" fill="currentColor" />
    <path d="M21 8C21.5523 8 22 8.44772 22 9C22 9.55228 21.5523 10 21 10H3C2.44772 10 2 9.55228 2 9C2 8.44772 2.44772 8 3 8H21Z" fill="currentColor" />
    <path d="M9 14C9.55228 14 10 14.4477 10 15C10 15.5523 9.55228 16 9 16H3C2.44772 16 2 15.5523 2 15C2 14.4477 2.44772 14 3 14H9Z" fill="currentColor" />
    <path d="M9 20C9.55228 20 10 20.4477 10 21C10 21.5523 9.55228 22 9 22H3C2.44772 22 2 21.5523 2 21C2 20.4477 2.44772 20 3 20H9Z" fill="currentColor" />
    <path d="M18.8574 16.4287C18.8574 15.0874 17.7699 14.0001 16.4287 14C15.0874 14 14 15.0874 14 16.4287C14.0001 17.7699 15.0874 18.8574 16.4287 18.8574C17.0996 18.8574 17.7051 18.586 18.1455 18.1455H18.1465C18.2274 18.0646 18.3029 17.9779 18.3721 17.8857V17.8848C18.6767 17.4792 18.8574 16.9765 18.8574 16.4287ZM20.8574 16.4287C20.8574 17.288 20.6103 18.0915 20.1855 18.7715L21.707 20.293C22.0976 20.6835 22.0976 21.3165 21.707 21.707C21.3165 22.0976 20.6835 22.0976 20.293 21.707L18.7715 20.1855C18.0918 20.6101 17.2888 20.8574 16.4287 20.8574C13.9829 20.8574 12.0001 18.8745 12 16.4287C12 13.9828 13.9828 12 16.4287 12C18.8745 12.0001 20.8574 13.9829 20.8574 16.4287Z" fill="currentColor" />
</svg>