<svg xmlns="http://www.w3.org/2000/svg" width="24" height="24" viewBox="0 0 24 24" fill="none">
    <path d="M19 3.25C20.5188 3.25 21.75 4.48122 21.75 6V19C21.75 20.5188 20.5188 21.75 19 21.75H6C4.48122 21.75 3.25 20.5188 3.25 19V11.1016C3.51023 11.196 3.79017 11.25 4.08301 11.25H6.91699C8.26684 11.2498 9.36127 10.1555 9.36133 8.80566C9.36133 7.82299 8.78054 6.97719 7.94434 6.58887V5.42383C8.21251 5.52496 8.50211 5.58301 8.80566 5.58301C10.1183 5.58295 11.1859 4.54825 11.2441 3.25H19ZM9.25 12C8.76984 12 8.30928 12.1908 7.96973 12.5303L5.19727 15.3027V18.8291C5.19735 19.3668 5.63322 19.8027 6.1709 19.8027H18.8291C19.3667 19.8026 19.8027 19.3667 19.8027 18.8291L19.7646 15.2656L18.5303 14.0303C18.1907 13.6907 17.7302 13.5 17.25 13.5C16.7698 13.5 16.3093 13.6908 15.9697 14.0303L14 16L10.5303 12.5303C10.1907 12.1907 9.73017 12 9.25 12ZM16.5 7.25C15.8096 7.25 15.25 7.80964 15.25 8.5C15.25 9.19036 15.8096 9.75 16.5 9.75C17.1904 9.75 17.75 9.19036 17.75 8.5C17.75 7.80964 17.1904 7.25 16.5 7.25Z" fill="currentColor" />
    <path d="M7.86111 3.13889H6.44444V7.86111H6.91667C7.43827 7.86111 7.86111 8.28395 7.86111 8.80556C7.86111 9.32716 7.43827 9.75 6.91667 9.75H4.08333C3.56173 9.75 3.13889 9.32716 3.13889 8.80556C3.13889 8.28395 3.56173 7.86111 4.08333 7.86111H4.55556V3.13889H3.13889C3.13889 3.66049 2.71605 4.08333 2.19444 4.08333C1.67284 4.08333 1.25 3.66049 1.25 3.13889C1.25 2.09568 2.09568 1.25 3.13889 1.25H7.86111C8.90432 1.25 9.75 2.09568 9.75 3.13889C9.75 3.66049 9.32716 4.08333 8.80556 4.08333C8.28395 4.08333 7.86111 3.66049 7.86111 3.13889Z" fill="currentColor" />
</svg>