<svg xmlns="http://www.w3.org/2000/svg" width="24" height="24" viewBox="0 0 24 24" fill="none">
    <path d="M1.75 19.3214C1.75 18.7823 2.18706 18.3452 2.72619 18.3452C3.23154 18.3452 3.6475 18.7292 3.69761 19.2213L3.70715 19.4215C3.75391 19.8808 4.11925 20.2461 4.57847 20.2929L4.77867 20.3024C5.2708 20.3525 5.65476 20.7685 5.65476 21.2738C5.65476 21.8129 5.21771 22.25 4.67857 22.25C3.06117 22.25 1.75 20.9388 1.75 19.3214ZM10.0476 20.2976C10.5868 20.2976 11.0238 20.7347 11.0238 21.2738C11.0238 21.8129 10.5868 22.25 10.0476 22.25H8.58333C8.0442 22.25 7.60714 21.8129 7.60714 21.2738C7.60714 20.7347 8.0442 20.2976 8.58333 20.2976H10.0476ZM15.4167 20.2976C15.9558 20.2976 16.3929 20.7347 16.3929 21.2738C16.3929 21.8129 15.9558 22.25 15.4167 22.25H13.9524C13.4132 22.25 12.9762 21.8129 12.9762 21.2738C12.9762 20.7347 13.4132 20.2976 13.9524 20.2976H15.4167ZM20.3024 19.2213C20.3525 18.7292 20.7685 18.3452 21.2738 18.3452C21.8129 18.3452 22.25 18.7823 22.25 19.3214C22.25 20.9388 20.9388 22.25 19.3214 22.25C18.7823 22.25 18.3452 21.8129 18.3452 21.2738C18.3452 20.7685 18.7292 20.3525 19.2213 20.3024L19.4215 20.2929C19.8808 20.2461 20.2461 19.8808 20.2929 19.4215L20.3024 19.2213ZM1.75 15.4167V13.9524C1.75 13.4132 2.18706 12.9762 2.72619 12.9762C3.26533 12.9762 3.70238 13.4132 3.70238 13.9524V15.4167C3.70238 15.9558 3.26533 16.3929 2.72619 16.3929C2.18706 16.3929 1.75 15.9558 1.75 15.4167ZM20.2976 15.4167V13.9524C20.2976 13.4132 20.7347 12.9762 21.2738 12.9762C21.8129 12.9762 22.25 13.4132 22.25 13.9524V15.4167C22.25 15.9558 21.8129 16.3929 21.2738 16.3929C20.7347 16.3929 20.2976 15.9558 20.2976 15.4167ZM1.75 10.0476V8.58333C1.75 8.0442 2.18706 7.60714 2.72619 7.60714C3.26533 7.60714 3.70238 8.0442 3.70238 8.58333V10.0476C3.70238 10.5868 3.26533 11.0238 2.72619 11.0238C2.18706 11.0238 1.75 10.5868 1.75 10.0476ZM20.2976 10.0476V8.58333C20.2976 8.0442 20.7347 7.60714 21.2738 7.60714C21.8129 7.60714 22.25 8.0442 22.25 8.58333V10.0476C22.25 10.5868 21.8129 11.0238 21.2738 11.0238C20.7347 11.0238 20.2976 10.5868 20.2976 10.0476ZM1.75 4.67857C1.75 3.06117 3.06117 1.75 4.67857 1.75C5.21771 1.75 5.65476 2.18706 5.65476 2.72619C5.65476 3.23154 5.2708 3.6475 4.77867 3.69761L4.57847 3.70715C4.11925 3.75391 3.75391 4.11925 3.70715 4.57847L3.69761 4.77867C3.6475 5.2708 3.23154 5.65476 2.72619 5.65476C2.18706 5.65476 1.75 5.21771 1.75 4.67857ZM20.2929 4.57847C20.2461 4.11925 19.8808 3.75391 19.4215 3.70715L19.2213 3.69761C18.7292 3.6475 18.3452 3.23154 18.3452 2.72619C18.3452 2.18706 18.7823 1.75 19.3214 1.75C20.9388 1.75 22.25 3.06117 22.25 4.67857C22.25 5.21771 21.8129 5.65476 21.2738 5.65476C20.7685 5.65476 20.3525 5.2708 20.3024 4.77867L20.2929 4.57847ZM10.0476 1.75C10.5868 1.75 11.0238 2.18706 11.0238 2.72619C11.0238 3.26533 10.5868 3.70238 10.0476 3.70238H8.58333C8.0442 3.70238 7.60714 3.26533 7.60714 2.72619C7.60714 2.18706 8.0442 1.75 8.58333 1.75H10.0476ZM15.4167 1.75C15.9558 1.75 16.3929 2.18706 16.3929 2.72619C16.3929 3.26533 15.9558 3.70238 15.4167 3.70238H13.9524C13.4132 3.70238 12.9762 3.26533 12.9762 2.72619C12.9762 2.18706 13.4132 1.75 13.9524 1.75H15.4167Z" fill="currentColor" />
    <path d="M13.0001 15C13.5524 15 14.0001 15.4477 14.0001 16C14.0001 16.5523 13.5524 17 13.0001 17H7.00012C6.44784 17 6.00012 16.5523 6.00012 16C6.00012 15.4477 6.44784 15 7.00012 15H13.0001ZM17.0001 11C17.5524 11 18.0001 11.4477 18.0001 12C18.0001 12.5523 17.5524 13 17.0001 13H7.00012C6.44784 13 6.00012 12.5523 6.00012 12C6.00012 11.4477 6.44784 11 7.00012 11H17.0001ZM15.0001 7C15.5524 7 16.0001 7.44772 16.0001 8C16.0001 8.55228 15.5524 9 15.0001 9H7.00012C6.44784 9 6.00012 8.55228 6.00012 8C6.00012 7.44772 6.44784 7 7.00012 7H15.0001Z" fill="currentColor" />
</svg>