<svg xmlns="http://www.w3.org/2000/svg" width="24" height="24" viewBox="0 0 24 24" fill="none">
    <path d="M1.25 6C1.25 4.48122 2.48122 3.25 4 3.25H20C21.5196 3.25 22.75 4.484 22.75 6.00195V17.999C22.7499 19.5172 21.5193 20.75 20 20.75H4C2.48122 20.75 1.25 19.5188 1.25 18V14.5C1.25 14.0858 1.58579 13.75 2 13.75C2.9665 13.75 3.75 12.9665 3.75 12C3.75 11.0335 2.9665 10.25 2 10.25C1.58579 10.25 1.25 9.91421 1.25 9.5V6ZM18.6406 8.23145C18.2164 7.87791 17.585 7.93519 17.2314 8.35938L12.9316 13.5176L11.707 12.293C11.3165 11.9024 10.6835 11.9024 10.293 12.293C9.90244 12.6835 9.90244 13.3165 10.293 13.707L12.293 15.707C12.4915 15.9056 12.7644 16.0116 13.0449 15.999C13.3256 15.9863 13.5887 15.8564 13.7686 15.6406L18.7686 9.64062C19.1221 9.21638 19.0648 8.58502 18.6406 8.23145Z" fill="currentColor" />
</svg>