<svg xmlns="http://www.w3.org/2000/svg" width="24" height="24" viewBox="0 0 24 24" fill="none">
    <path d="M1.25 6C1.25 4.48122 2.48122 3.25 4 3.25H20C21.5196 3.25 22.75 4.484 22.75 6.00195V17.999C22.7499 19.5172 21.5193 20.75 20 20.75H4C2.48122 20.75 1.25 19.5188 1.25 18V14.5C1.25 14.0858 1.58579 13.75 2 13.75C2.9665 13.75 3.75 12.9665 3.75 12C3.75 11.0335 2.9665 10.25 2 10.25C1.58579 10.25 1.25 9.91421 1.25 9.5V6ZM19 14.75C19 14.0596 18.4404 13.5 17.75 13.5C17.0596 13.5 16.5 14.0596 16.5 14.75C16.5 15.4404 17.0596 16 17.75 16C18.4404 16 19 15.4404 19 14.75ZM11.293 15.707C11.6835 16.0976 12.3165 16.0976 12.707 15.707L18.707 9.70703C19.0976 9.31651 19.0976 8.68349 18.707 8.29297C18.3165 7.90244 17.6835 7.90244 17.293 8.29297L11.293 14.293C10.9024 14.6835 10.9024 15.3165 11.293 15.707ZM13.5 9.25C13.5 8.55965 12.9404 8 12.25 8C11.5596 8 11 8.55965 11 9.25C11 9.94036 11.5596 10.5 12.25 10.5C12.9404 10.5 13.5 9.94036 13.5 9.25Z" fill="currentColor" />
</svg>