<svg xmlns="http://www.w3.org/2000/svg" width="24" height="24" viewBox="0 0 24 24" fill="none">
    <path fill-rule="evenodd" clip-rule="evenodd" d="M2.25 8.5C2.25 6.98122 3.48122 5.75 5 5.75H5.25H9.63158H18.5045H19C19.4309 5.75 19.8386 5.84922 20.2015 6.02601C21.1185 6.47267 21.75 7.41446 21.75 8.50195V19.499C21.75 21.0175 20.5191 22.25 19 22.25H5C3.48122 22.25 2.25 21.0188 2.25 19.5V16C2.25 15.5858 2.58579 15.25 3 15.25C3.9665 15.25 4.75 14.4665 4.75 13.5C4.75 12.5335 3.9665 11.75 3 11.75C2.58579 11.75 2.25 11.4142 2.25 11V8.5ZM12.2929 11.2929C12.6834 10.9024 13.3164 10.9024 13.707 11.2929L16.414 13.9999H17.9999C18.5522 13.9999 18.9999 14.4476 18.9999 14.9999C18.9999 15.5522 18.5522 15.9999 17.9999 15.9999H11.414C10.8836 15.9999 10.375 15.789 9.99992 15.414L9.29289 14.707C8.90237 14.3164 8.90237 13.6834 9.29289 13.2929C9.68342 12.9024 10.3164 12.9024 10.707 13.2929L11.414 13.9999H13.5859L12.2929 12.707C11.9024 12.3164 11.9024 11.6834 12.2929 11.2929Z" fill="currentColor" />
    <path fill-rule="evenodd" clip-rule="evenodd" d="M8.67969 4.5003H9.63157H18.5046H18.9997C19.2263 4.5003 19.4488 4.51928 19.6657 4.55576L19.3034 3.56085C18.7841 2.1339 17.2061 1.39721 15.779 1.91632L8.67969 4.5003Z" fill="currentColor" />
</svg>