<svg xmlns="http://www.w3.org/2000/svg" width="24" height="24" viewBox="0 0 24 24" fill="none">
    <path d="M20 10.2188C20.9665 10.2188 21.75 11.0168 21.75 12.001V19.1289C21.75 20.6755 20.5188 21.9297 19 21.9297H5C3.48122 21.9297 2.25 20.6755 2.25 19.1289V12.001C2.25 11.0168 3.0335 10.2188 4 10.2188H20ZM10 14.0371C9.44772 14.0371 9 14.4933 9 15.0557C9.00009 15.618 9.44777 16.0742 10 16.0742H14C14.5522 16.0742 14.9999 15.618 15 15.0557C15 14.4933 14.5523 14.0371 14 14.0371H10Z" fill="currentColor" />
    <path d="M19.7999 7.87726C19.7999 5.7405 18.0538 4.00832 15.8998 4.00832C15.0827 4.00832 14.3247 4.25889 13.6975 4.68558L14.1116 4.6459L14.2383 4.63835C15.5326 4.60426 16.2736 6.02169 15.6989 7.07438L14.2478 9.7286L14.5382 10.3955C14.7517 10.8856 14.5247 11.4548 14.0307 11.6669C13.5364 11.8788 12.9618 11.6528 12.7481 11.1625L12.4063 10.3775C12.2053 9.91596 12.2219 9.37955 12.4682 8.92856L13.7251 6.62666L11.2275 6.87035C10.6928 6.92242 10.1825 6.70351 9.8459 6.31589L8.20816 4.4296L7.73112 6.89019C7.634 7.39018 7.30482 7.83228 6.81798 8.05389L4.52038 9.09858L5.9258 9.9553C6.38423 10.2351 6.52751 10.8303 6.24573 11.2852C5.96386 11.7404 5.36387 11.8822 4.90506 11.6026L3.0407 10.4673C1.96892 9.81381 1.95554 8.139 3.1921 7.57594L5.84676 6.3669L6.42664 3.38113L6.45425 3.26023C6.7735 2.07742 8.25791 1.66482 9.13939 2.54425L9.22604 2.63682L11.0104 4.69219C12.0554 3.11672 13.8537 2.07386 15.8998 2.07386C19.1308 2.07386 21.75 4.67213 21.75 7.87726C21.75 9.18262 21.3143 10.3898 20.5798 11.3599C20.2564 11.7869 19.6449 11.8734 19.2144 11.5526C18.7839 11.2317 18.6977 10.6251 19.0211 10.1981C19.5105 9.55155 19.7999 8.74927 19.7999 7.87726Z" fill="currentColor" />
</svg>