<svg xmlns="http://www.w3.org/2000/svg" width="24" height="24" viewBox="0 0 24 24" fill="none">
    <circle cx="17" cy="19.625" r="2.5" fill="currentColor" />
    <circle cx="7" cy="19.625" r="2.5" fill="currentColor" />
    <path fill-rule="evenodd" clip-rule="evenodd" d="M2.75 2.625C2.75 2.21079 3.08579 1.875 3.5 1.875H7C7.28408 1.875 7.54378 2.0355 7.67082 2.28959L12.6708 12.2896C12.8561 12.6601 12.7059 13.1106 12.3354 13.2958C11.9649 13.4811 11.5144 13.3309 11.3292 12.9604L8.12796 6.55798L8.74662 13.0539C8.78589 13.4662 8.48345 13.8324 8.07111 13.8716C7.65876 13.9109 7.29265 13.6085 7.25338 13.1961L6.31803 3.375H4.25V6.00303C5.12389 6.31191 5.75 7.14534 5.75 8.125C5.75 9.36764 4.74264 10.375 3.5 10.375C2.25736 10.375 1.25 9.36764 1.25 8.125C1.25 7.71079 1.58579 7.375 2 7.375C2.41421 7.375 2.75 7.71079 2.75 8.125C2.75 8.53921 3.08579 8.875 3.5 8.875C3.91421 8.875 4.25 8.53921 4.25 8.125C4.25 7.71079 3.91421 7.375 3.5 7.375C3.08579 7.375 2.75 7.03921 2.75 6.625V2.625Z" fill="currentColor" />
    <path d="M14.8232 4.625C15.9126 4.62502 16.9162 5.21572 17.4453 6.16797L19.2002 9.3252C19.2578 9.42891 19.3328 9.52239 19.4229 9.59961L21.6035 11.4678C22.49 12.2277 23 13.3373 23 14.5049V15.375H22.25C21.8358 15.375 21.5 15.7108 21.5 16.125C21.5 16.5392 21.8358 16.875 22.25 16.875H23V18.625C23 19.7296 22.1046 20.625 21 20.625H20.5635C20.6525 20.3069 20.7002 19.9715 20.7002 19.625C20.7002 17.5815 19.0435 15.9248 17 15.9248C14.9565 15.9248 13.2998 17.5815 13.2998 19.625C13.2998 19.9715 13.3475 20.3069 13.4365 20.625H10.5635C10.6525 20.3069 10.7002 19.9715 10.7002 19.625C10.7002 17.5815 9.04345 15.9248 7 15.9248C4.95655 15.9248 3.2998 17.5815 3.2998 19.625C3.2998 19.9586 3.34398 20.2824 3.42676 20.5898C3.16592 20.5399 2.91643 20.4378 2.69336 20.2891L1.89062 19.7539C1.33424 19.383 1.00001 18.7585 1 18.0898V13.125C1 12.5727 1.44772 12.125 2 12.125H11V5.625C11 5.07272 11.4477 4.625 12 4.625H14.8232ZM13 12.125H19.2969L18.1221 11.1182C17.8518 10.8865 17.6241 10.6081 17.4512 10.2969L15.6973 7.13965C15.5209 6.8222 15.1864 6.62502 14.8232 6.625H13V12.125Z" fill="currentColor" />
</svg>