<svg xmlns="http://www.w3.org/2000/svg" width="24" height="24" viewBox="0 0 24 24" fill="none">
    <path d="M9 5.5C9.55228 5.5 10 5.94772 10 6.5C10 7.05228 9.55228 7.5 9 7.5L2 7.5C1.44772 7.5 1 7.05228 1 6.5C1 5.94772 1.44772 5.5 2 5.5L9 5.5ZM22 5.5C22.5523 5.5 23 5.94772 23 6.5C23 7.05228 22.5523 7.5 22 7.5L20 7.5C19.4477 7.5 19 7.05228 19 6.5C19 5.94772 19.4477 5.5 20 5.5L22 5.5Z" fill="currentColor" />
    <path fill-rule="evenodd" clip-rule="evenodd" d="M7.99982 5.5C7.99983 4.67165 7.32816 4 6.49982 4C5.67159 4.00006 4.99985 4.6716 4.99982 5.5V6.5C4.99981 7.05228 4.5521 7.50001 3.99982 7.5C3.44762 7.4999 2.99982 7.05222 2.99982 6.5V5.5C2.99985 3.56719 4.56686 2.00006 6.49982 2H17.5C19.433 2 21 3.567 21 5.5V16H8H5C3.89522 16 2.99993 15.1042 2.99982 14V10C2.99983 9.44775 3.44758 9.00004 3.99982 9C4.5521 9.00001 4.99982 9.44772 4.99982 10V14H7.99982V5.5ZM8 17.5V20C8 21.1046 8.89543 22 10 22H19C20.1046 22 21 21.1046 21 20V17.5H8Z" fill="currentColor" />
</svg>