<svg xmlns="http://www.w3.org/2000/svg" width="24" height="24" viewBox="0 0 24 24" fill="none">
    <path fill-rule="evenodd" clip-rule="evenodd" d="M10.3201 3.41797C10.8549 1.86067 12.9844 1.86068 13.5193 3.41797L14.9811 7.67672C14.1621 8.03161 13.1801 8.25 12.0018 8.25C10.7544 8.25 9.72709 8.00526 8.88019 7.61293L10.3201 3.41797ZM12.0018 9.75C13.328 9.75 14.4784 9.51032 15.469 9.09832L16.334 11.6185C15.87 12.0781 14.6771 12.75 12.0018 12.75C9.1206 12.75 7.95875 11.9708 7.57503 11.5166C7.56687 11.5069 7.55852 11.4975 7.54998 11.4884L8.39137 9.03708C9.41389 9.48647 10.6112 9.75 12.0018 9.75ZM7.02059 13.0307L6.58667 14.2949C6.4999 14.5477 6.37164 15.005 6.55249 15.4824C6.98689 16.6286 8.53336 17.9228 11.9197 17.9228C15.306 17.9228 16.8525 16.6286 17.2869 15.4824C17.4677 15.005 17.3394 14.5477 17.2527 14.2949L16.8508 13.124C15.9046 13.7647 14.3654 14.25 12.0018 14.25C9.52476 14.25 7.95313 13.717 7.02059 13.0307Z" fill="currentColor" />
    <path d="M18.2522 13.3574L18.4346 13.8887C18.5109 14.1111 18.6682 14.6021 18.6189 15.201C18.6 15.4295 18.5511 15.6738 18.456 15.9248C17.7656 17.7463 15.5877 19.1728 11.9199 19.1729C8.25208 19.1729 6.07433 17.7473 5.38378 15.9258C5.28837 15.6739 5.23933 15.4287 5.22052 15.1993C5.1715 14.6013 5.32804 14.1109 5.40428 13.8887L5.58723 13.3557L3.06542 14.5733C1.7595 15.2038 1.75955 17.1264 3.06542 17.7569L10.8076 21.4952C11.5119 21.8351 12.324 21.8351 13.0283 21.4952L20.7705 17.7569C22.0764 17.1264 22.0764 15.2038 20.7705 14.5733L18.2522 13.3574Z" fill="currentColor" />
</svg>