<svg xmlns="http://www.w3.org/2000/svg" width="24" height="24" viewBox="0 0 24 24" fill="none">
    <path d="M12 1.25C16.8325 1.25 20.75 5.16751 20.75 10C20.75 12.3911 19.7895 15.0452 18.2588 17.1045C16.7337 19.1563 14.5364 20.75 12 20.75C9.46362 20.75 7.26631 19.1563 5.74121 17.1045C4.21053 15.0452 3.25 12.3911 3.25 10C3.25 5.16751 7.16751 1.25 12 1.25ZM11.9971 16.75C10.772 16.75 9.65854 17.2782 8.85938 18.1406C9.83549 18.8475 10.9017 19.25 11.9971 19.25C13.0924 19.25 14.1587 18.8475 15.1348 18.1406C14.3356 17.2782 13.2222 16.75 11.9971 16.75ZM12.002 5.25C10.454 5.25 8.84619 5.8461 7.82227 7.11719C7.33119 7.72684 7.0518 8.47104 7.41602 9.19043C7.73278 9.81572 8.41739 10.1408 9.04004 10.3232C9.96371 10.5938 10.961 10.75 12.002 10.75C13.0429 10.75 14.0402 10.5938 14.9639 10.3232C15.5865 10.1408 16.2711 9.81573 16.5879 9.19043C16.9521 8.47104 16.6727 7.72682 16.1816 7.11719C15.1577 5.84606 13.5499 5.25002 12.002 5.25Z" fill="currentColor" />
    <path fill-rule="evenodd" clip-rule="evenodd" d="M5.55468 18.1679C6.01421 18.4743 6.13839 19.0952 5.83203 19.5547L3.83203 22.5547C3.52568 23.0142 2.90481 23.1384 2.44528 22.832C1.98576 22.5257 1.86158 21.9048 2.16793 21.4453L4.16793 18.4453C4.47429 17.9858 5.09516 17.8616 5.55468 18.1679ZM18.4453 18.1679C18.9048 17.8616 19.5257 17.9858 19.832 18.4453L21.832 21.4453C22.1384 21.9048 22.0142 22.5257 21.5547 22.832C21.0952 23.1384 20.4743 23.0142 20.1679 22.5547L18.1679 19.5547C17.8616 19.0952 17.9858 18.4743 18.4453 18.1679Z" fill="currentColor" />
</svg>