<svg xmlns="http://www.w3.org/2000/svg" width="24" height="24" viewBox="0 0 24 24" fill="none">
    <path fill-rule="evenodd" clip-rule="evenodd" d="M15.3821 20.9999H16.0003C16.5204 20.9999 17.0095 20.8676 17.4359 20.6348L17.8948 21.5526C18.1418 22.0466 17.9416 22.6474 17.4476 22.8944C16.9536 23.1414 16.3528 22.9412 16.1058 22.4472L15.3821 20.9999ZM8.00031 20.9999C7.48026 20.9999 6.99112 20.8676 6.56472 20.6348L6.10578 21.5526C5.85879 22.0466 6.05907 22.6474 6.55305 22.8944C7.04703 23.1414 7.64785 22.9412 7.89484 22.4472L8.61848 20.9999H8.00031Z" fill="currentColor" />
    <path d="M21 12V20C21 20.5523 21.4477 21 22 21C22.5523 21 23 20.5523 23 20V12C23 5.92487 18.0751 1 12 1C5.92487 1 1 5.92487 1 12V20C1 20.5523 1.44772 21 2 21C2.55228 21 3 20.5523 3 20V15.059V13.941V12C3 7.02944 7.02944 3 12 3C16.9706 3 21 7.02944 21 12Z" fill="currentColor" />
    <path d="M19 13.75V9C19 7.34315 17.6569 6 16 6H8C6.34315 6 5 7.34315 5 9V13.75V15.25V18C5 19.1368 5.63231 20.1259 6.56441 20.6349C6.99081 20.8677 7.47995 21 8 21H8.61816H15.3818H16C16.52 21 17.0092 20.8677 17.4356 20.6349C18.3677 20.1259 19 19.1368 19 18V15.25V13.75ZM17 13.75H7V9C7 8.44772 7.44772 8 8 8H16C16.5523 8 17 8.44772 17 9V13.75ZM9.25 16.25C9.80228 16.25 10.25 16.6977 10.25 17.25C10.25 17.8023 9.80228 18.25 9.25 18.25C8.69772 18.25 8.25 17.8023 8.25 17.25C8.25 16.6977 8.69771 16.25 9.25 16.25ZM14.75 16.25C15.3023 16.25 15.75 16.6977 15.75 17.25C15.75 17.8023 15.3023 18.25 14.75 18.25C14.1977 18.25 13.75 17.8023 13.75 17.25C13.75 16.6977 14.1977 16.25 14.75 16.25Z" fill="currentColor" />
</svg>