<svg xmlns="http://www.w3.org/2000/svg" width="24" height="24" viewBox="0 0 24 24" fill="none">
    <path fill-rule="evenodd" clip-rule="evenodd" d="M7.55468 18.1679C8.01421 18.4743 8.13839 19.0952 7.83203 19.5547L5.83203 22.5547C5.52568 23.0142 4.90481 23.1384 4.44528 22.832C3.98576 22.5257 3.86158 21.9048 4.16793 21.4453L6.16793 18.4453C6.47429 17.9858 7.09516 17.8616 7.55468 18.1679ZM16.4453 18.1679C16.9048 17.8616 17.5257 17.9858 17.832 18.4453L19.832 21.4453C20.1384 21.9048 20.0142 22.5257 19.5547 22.832C19.0952 23.1384 18.4743 23.0142 18.1679 22.5547L16.1679 19.5547C15.8616 19.0952 15.9858 18.4743 16.4453 18.1679Z" fill="currentColor" />
    <path d="M16 1C18.7614 1 21 3.23858 21 6L21 14.75H18.5C18.0858 14.75 17.75 15.0858 17.75 15.5C17.75 15.9142 18.0858 16.25 18.5 16.25H20.8428C20.2877 18.4066 18.3298 20 16 20L8 20C5.67018 20 3.71226 18.4066 3.15723 16.25H5.5C5.91421 16.25 6.25 15.9142 6.25 15.5C6.25 15.0858 5.91421 14.75 5.5 14.75H3L3 6C3 3.23858 5.23858 1 8 1L16 1ZM8 3C6.34315 3 5 4.34315 5 6L5 11.2236C7.11279 11.7328 9.34153 12 11.5 12C13.6703 12 16.699 11.6703 19 11.1973L19 6C19 4.34315 17.6569 3 16 3L8 3Z" fill="currentColor" />
</svg>