<svg xmlns="http://www.w3.org/2000/svg" width="24" height="24" viewBox="0 0 24 24" fill="none">
    <path fill-rule="evenodd" clip-rule="evenodd" d="M7.55481 18.1681C8.01434 18.4744 8.13851 19.0953 7.83216 19.5548L5.83216 22.5548C5.5258 23.0143 4.90493 23.1385 4.44541 22.8322C3.98588 22.5258 3.8617 21.9049 4.16806 21.4454L6.16806 18.4454C6.47441 17.9859 7.09528 17.8617 7.55481 18.1681ZM16.4454 18.1681C16.9049 17.8617 17.5258 17.9859 17.8322 18.4454L19.8322 21.4454C20.1385 21.9049 20.0143 22.5258 19.5548 22.8322C19.0953 23.1385 18.4744 23.0143 18.1681 22.5548L16.1681 19.5548C15.8617 19.0953 15.9859 18.4744 16.4454 18.1681Z" fill="currentColor" />
    <path d="M16 1C18.7614 1 21 3.23858 21 6L21 14.75H18.5C18.0858 14.75 17.75 15.0858 17.75 15.5C17.75 15.9142 18.0858 16.25 18.5 16.25H20.8428C20.2877 18.4066 18.3298 20 16 20L8 20C5.67018 20 3.71226 18.4066 3.15723 16.25H5.5C5.91421 16.25 6.25 15.9142 6.25 15.5C6.25 15.0858 5.91421 14.75 5.5 14.75H3L3 6C3 3.23858 5.23858 1 8 1L16 1ZM8 3C6.34315 3 5 4.34315 5 6L5 11.2236C7.11279 11.7328 9.34153 12 11.5 12C13.6703 12 16.699 11.6703 19 11.1973L19 6C19 4.34315 17.6569 3 16 3L8 3Z" fill="currentColor" />
</svg>