<svg xmlns="http://www.w3.org/2000/svg" width="24" height="24" viewBox="0 0 24 24" fill="none">
    <path d="M6.25 10.25H5.5C4.5335 10.25 3.75 11.0335 3.75 12V14C3.75 14.9665 4.5335 15.75 5.5 15.75H6.25V21.75H4C2.48122 21.75 1.25 20.5188 1.25 19V8.5C1.25 6.98122 2.48122 5.75 4 5.75H6.25V10.25ZM14.5 2.25C15.4665 2.25 16.25 3.0335 16.25 4V21.75H7.75V15.75H8.5C9.4665 15.75 10.25 14.9665 10.25 14V12C10.25 11.0335 9.4665 10.25 8.5 10.25H7.75V4C7.75 3.0335 8.5335 2.25 9.5 2.25H14.5ZM20 5.75C21.5188 5.75 22.75 6.98122 22.75 8.5V19C22.75 20.5188 21.5188 21.75 20 21.75H17.75V5.75H20ZM9.5 3.75C9.36193 3.75 9.25 3.86193 9.25 4V5.75H14.75V4C14.75 3.86193 14.6381 3.75 14.5 3.75H9.5Z" fill="currentColor" />
</svg>