<svg xmlns="http://www.w3.org/2000/svg" width="24" height="24" viewBox="0 0 24 24" fill="none">
    <path d="M20 12V14.5859L14.414 9C13.633 8.21905 12.367 8.21905 11.5859 9L8.99999 11.5859L3.70702 6.29297C3.31649 5.90244 2.68348 5.90244 2.29295 6.29297C1.90243 6.68349 1.90243 7.31651 2.29295 7.70703L7.58592 13C8.36695 13.7809 9.63302 13.7809 10.414 13L13 10.4141L18.5859 16H16C15.4477 16 15 16.4477 15 17C15 17.5523 15.4477 18 16 18H21C21.5523 18 22 17.5523 22 17V12C22 11.4477 21.5523 11 21 11C20.4477 11 20 11.4477 20 12Z" fill="currentColor" />
</svg>