<svg xmlns="http://www.w3.org/2000/svg" width="24" height="24" viewBox="0 0 24 24" fill="none">
    <path d="M20 12V9.41406L14.414 15C13.633 15.7809 12.367 15.781 11.5859 15L8.99999 12.4141L3.70702 17.707C3.31649 18.0976 2.68348 18.0976 2.29295 17.707C1.90243 17.3165 1.90243 16.6835 2.29295 16.293L7.58592 11C8.36695 10.2191 9.63302 10.2191 10.414 11L13 13.5859L18.5859 8H16C15.4477 8 15 7.55228 15 7C15 6.44772 15.4477 6 16 6H21C21.5523 6 22 6.44772 22 7V12C22 12.5523 21.5523 13 21 13C20.4477 13 20 12.5523 20 12Z" fill="currentColor" />
</svg>