<svg xmlns="http://www.w3.org/2000/svg" width="24" height="24" viewBox="0 0 24 24" fill="none">
    <path fill-rule="evenodd" clip-rule="evenodd" d="M16.875 15.875C16.0466 15.875 15.375 16.5466 15.375 17.375C15.375 18.2034 16.0466 18.875 16.875 18.875C17.7034 18.875 18.375 18.2034 18.375 17.375C18.375 16.5466 17.7034 15.875 16.875 15.875ZM13.375 17.375C13.375 15.442 14.942 13.875 16.875 13.875C18.808 13.875 20.375 15.442 20.375 17.375C20.375 19.308 18.808 20.875 16.875 20.875C14.942 20.875 13.375 19.308 13.375 17.375Z" fill="currentColor" />
    <path fill-rule="evenodd" clip-rule="evenodd" d="M6.875 15.875C6.04657 15.875 5.375 16.5466 5.375 17.375C5.375 18.2034 6.04657 18.875 6.875 18.875C7.70343 18.875 8.375 18.2034 8.375 17.375C8.375 16.5466 7.70343 15.875 6.875 15.875ZM3.375 17.375C3.375 15.442 4.942 13.875 6.875 13.875C8.808 13.875 10.375 15.442 10.375 17.375C10.375 19.308 8.808 20.875 6.875 20.875C4.942 20.875 3.375 19.308 3.375 17.375Z" fill="currentColor" />
    <path fill-rule="evenodd" clip-rule="evenodd" d="M13.875 6.375C13.875 5.82272 14.3227 5.375 14.875 5.375H17.8044C18.8075 5.375 19.7442 5.8763 20.3006 6.7109L22.371 9.81648C22.6995 10.3093 22.8748 10.8882 22.8748 11.4805L22.875 17.375C22.875 17.6402 22.7697 17.8946 22.5821 18.0821C22.3946 18.2696 22.1402 18.375 21.875 18.375H19.3748C18.8225 18.375 18.3748 17.9273 18.3748 17.375C18.3748 16.8227 18.8225 16.375 19.3748 16.375H20.875L20.8748 11.4805C20.8748 11.2831 20.8164 11.0901 20.7069 10.9259L18.6365 7.8203C18.451 7.5421 18.1388 7.375 17.8044 7.375H14.875C14.3227 7.375 13.875 6.92728 13.875 6.375Z" fill="currentColor" />
    <path fill-rule="evenodd" clip-rule="evenodd" d="M1.125 9.19794V16.3704C1.125 17.34 1.91342 18.1248 2.88306 18.1204L3.45397 18.1177C3.40224 17.8784 3.375 17.6299 3.375 17.375C3.375 15.442 4.942 13.875 6.875 13.875C8.808 13.875 10.375 15.442 10.375 17.375C10.375 17.6324 10.3472 17.8834 10.2945 18.125H13.4555C13.4028 17.8834 13.375 17.6324 13.375 17.375C13.375 15.8824 14.3093 14.608 15.625 14.1048V4.875C15.625 3.9085 14.8415 3.125 13.875 3.125H5.69794C6.0309 3.70439 6.09978 4.42216 5.83887 5.07812C6.38309 5.22572 6.86001 5.57542 7.16406 6.06738C7.57381 6.73056 7.61118 7.55855 7.2627 8.25586L5.7627 11.2559C5.20703 12.3672 3.85552 12.8181 2.74414 12.2627C1.69079 11.736 1.23326 10.4954 1.66113 9.4209C1.47294 9.36984 1.29277 9.29472 1.125 9.19794Z" fill="currentColor" />
    <path d="M2.85544 3.80305C3.10243 3.30907 3.70326 3.10879 4.19724 3.35578C4.69122 3.60277 4.89149 4.2036 4.64451 4.69758L3.86814 6.25031H5.24997C5.59655 6.25031 5.91835 6.43011 6.10056 6.72492C6.28264 7.0197 6.29946 7.38767 6.14451 7.69758L4.64451 10.6976C4.39752 11.1916 3.79669 11.3918 3.30271 11.1448C2.80873 10.8979 2.60845 10.297 2.85544 9.80305L3.63181 8.25031H2.24997C1.9034 8.25031 1.58159 8.07052 1.39939 7.7757C1.21731 7.48092 1.20049 7.11296 1.35544 6.80305L2.85544 3.80305Z" fill="currentColor" />
</svg>