<svg xmlns="http://www.w3.org/2000/svg" width="24" height="24" viewBox="0 0 24 24" fill="none">
    <path fill-rule="evenodd" clip-rule="evenodd" d="M10.0001 1.99951C10.5524 1.99951 11.0001 2.44723 11.0001 2.99951V5.38135L15.5529 3.10498C16.0467 2.85805 16.6476 3.05854 16.8947 3.55225C17.1417 4.04622 16.9414 4.64705 16.4474 4.89404L11.0001 7.61768V10.3813L15.5529 8.10498C16.0467 7.85805 16.6476 8.05854 16.8947 8.55225C17.1417 9.04622 16.9414 9.64705 16.4474 9.89404L11.0001 12.6177V19.9263C14.3923 19.4409 17.0001 16.5259 17.0001 12.9995C17.0001 12.4473 17.448 11.9996 18.0001 11.9995C18.5524 11.9995 19.0001 12.4472 19.0001 12.9995C19.0001 17.9701 14.9707 21.9995 10.0001 21.9995C9.44797 21.9994 9.00014 21.5517 9.00014 20.9995V13.6177L6.4474 14.894C5.95345 15.1409 5.35258 14.9407 5.10561 14.4468C4.85893 13.9529 5.05911 13.3519 5.55287 13.105L9.00014 11.3813V8.61768L6.4474 9.89404C5.95345 10.1409 5.35258 9.94071 5.10561 9.44678C4.85893 8.95291 5.05911 8.35195 5.55287 8.10498L9.00014 6.38135V2.99951C9.00014 2.44731 9.44797 1.99964 10.0001 1.99951Z" fill="currentColor" />
</svg>