<svg xmlns="http://www.w3.org/2000/svg" width="24" height="24" viewBox="0 0 24 24" fill="none">
    <path d="M12 3.25C15.6313 3.25 18.6158 6.01516 18.9648 9.55469C20.3924 10.1204 22.0788 11.0386 23.1377 12.1582C23.5301 12.4919 23.7499 12.9789 23.75 13.4854C23.75 14.0413 23.486 14.5923 22.9883 14.9189C21.825 15.6821 20.4185 16.316 18.8418 16.79C17.469 19.1535 14.9224 20.75 12 20.75C9.07749 20.7498 6.52988 19.1538 5.15723 16.79C3.58085 16.3161 2.17477 15.6819 1.01172 14.9189C0.513971 14.5923 0.250006 14.0413 0.25 13.4854C0.250051 12.9789 0.469874 12.4919 0.862305 12.1582C1.92099 11.0388 3.60684 10.1204 5.03418 9.55469C5.38322 6.01512 8.36866 3.25 12 3.25ZM15.6338 17.4893C14.4696 17.6574 13.2518 17.75 12 17.75C10.7478 17.75 9.52969 17.6574 8.36523 17.4893C9.37019 18.2806 10.6321 18.7499 12 18.75C13.3676 18.75 14.6289 18.2801 15.6338 17.4893ZM12 13.1484C11.5309 13.1486 11.1507 13.529 11.1504 13.998C11.1504 14.4674 11.5307 14.8484 12 14.8486C12.4694 14.8486 12.8506 14.4675 12.8506 13.998C12.8503 13.5288 12.4693 13.1484 12 13.1484ZM7 12.6484C6.5309 12.6486 6.15066 13.029 6.15039 13.498C6.15039 13.9674 6.53074 14.3484 7 14.3486C7.46944 14.3486 7.85059 13.9675 7.85059 13.498C7.85031 13.0288 7.46927 12.6484 7 12.6484ZM17 12.6484C16.5309 12.6486 16.1507 13.029 16.1504 13.498C16.1504 13.9674 16.5307 14.3484 17 14.3486C17.4694 14.3486 17.8506 13.9675 17.8506 13.498C17.8503 13.0288 17.4693 12.6484 17 12.6484ZM12 5.25C9.46207 5.25 7.36664 7.141 7.04395 9.59082C8.29044 9.98856 10.0337 10.25 12 10.25C13.9658 10.25 15.7086 9.9884 16.9551 9.59082C16.6323 7.14106 14.5379 5.25 12 5.25Z" fill="currentColor" />
</svg>