<svg xmlns="http://www.w3.org/2000/svg" width="24" height="24" viewBox="0 0 24 24" fill="none">
    <path d="M16.875 2.24976C17.7956 2.24976 18.6624 2.68322 19.2148 3.41968L21.5547 6.53979C21.6813 6.70856 21.75 6.91379 21.75 7.12476V18.825C21.7499 20.4402 20.4405 21.7497 18.8252 21.7498H5.1748C3.55953 21.7497 2.25011 20.4402 2.25 18.825V7.12476C2.25 6.91379 2.31874 6.70856 2.44531 6.53979L4.78516 3.41968C5.33756 2.68322 6.20439 2.24976 7.125 2.24976H16.875ZM12.707 9.79272C12.3165 9.4022 11.6835 9.4022 11.293 9.79272L8.29297 12.7927C7.90244 13.1832 7.90244 13.8163 8.29297 14.2068C8.68349 14.5973 9.31651 14.5973 9.70703 14.2068L11 12.9138V17.4998C11 18.052 11.4477 18.4998 12 18.4998C12.5523 18.4998 13 18.052 13 17.4998V12.9138L14.293 14.2068C14.6835 14.5973 15.3165 14.5973 15.707 14.2068C16.0976 13.8163 16.0976 13.1832 15.707 12.7927L12.707 9.79272ZM7.125 4.19897C6.81816 4.19899 6.52885 4.34317 6.34473 4.58862L5.1748 6.14917H18.8252L17.6553 4.58862C17.4711 4.34318 17.1818 4.19897 16.875 4.19897H7.125Z" fill="currentColor" />
</svg>