<svg xmlns="http://www.w3.org/2000/svg" width="24" height="24" viewBox="0 0 24 24" fill="none">
    <path d="M11.913 5.16345C11.9353 5.13922 11.9667 5.125 12 5.125C12.0333 5.125 12.0647 5.13922 12.087 5.16345L15.502 8.875H8.49797L11.913 5.16345ZM17.75 9.13501C17.75 8.73603 17.5989 8.35124 17.326 8.05469L13.5124 3.90918C13.1266 3.48986 12.5767 3.25 12 3.25C11.4233 3.25 10.8734 3.48986 10.4876 3.90918L6.67395 8.05469C6.40112 8.35124 6.25 8.73603 6.25 9.13501C6.25001 10.0269 6.98913 10.75 7.90088 10.75H16.0991C17.0109 10.75 17.75 10.0269 17.75 9.13501Z" fill="currentColor" />
    <path d="M17.326 15.9453C17.5989 15.6488 17.75 15.264 17.75 14.865C17.75 13.9731 17.0109 13.25 16.0991 13.25H7.90088C6.98913 13.25 6.25001 13.9731 6.25 14.865C6.25 15.264 6.40112 15.6488 6.67395 15.9453L10.4876 20.0908C10.8734 20.5101 11.4233 20.75 12 20.75C12.5767 20.75 13.1266 20.5101 13.5124 20.0908L17.326 15.9453Z" fill="currentColor" />
</svg>