<svg xmlns="http://www.w3.org/2000/svg" width="24" height="24" viewBox="0 0 24 24" fill="none">
    <path d="M11 4V2C11 1.44772 11.4477 1 12 1C12.5523 1 13 1.44772 13 2V4C13 4.55228 12.5523 5 12 5C11.4477 5 11 4.55228 11 4Z" fill="currentColor" />
    <path d="M11 10V8C11 7.44772 11.4477 7 12 7C12.5523 7 13 7.44772 13 8V10C13 10.5523 12.5523 11 12 11C11.4477 11 11 10.5523 11 10Z" fill="currentColor" />
    <path d="M18.293 8.29289C18.6835 7.90237 19.3165 7.90237 19.707 8.29289L22.707 11.2929C23.0976 11.6834 23.0976 12.3164 22.707 12.707L19.707 15.707C19.3165 16.0975 18.6835 16.0975 18.293 15.707C17.9024 15.3164 17.9024 14.6834 18.293 14.2929L19.5859 12.9999H16C15.4477 12.9999 15 12.5522 15 11.9999C15 11.4476 15.4477 10.9999 16 10.9999H19.5859L18.293 9.70696C17.9024 9.31643 17.9024 8.68342 18.293 8.29289Z" fill="currentColor" />
    <path d="M4.29295 8.29289C4.68348 7.90237 5.31649 7.90237 5.70702 8.29289C6.09754 8.68342 6.09754 9.31643 5.70702 9.70696L4.41405 10.9999H7.99999C8.55227 10.9999 8.99999 11.4476 8.99999 11.9999C8.99999 12.5522 8.55227 12.9999 7.99999 12.9999H4.41405L5.70702 14.2929C6.09754 14.6834 6.09754 15.3164 5.70702 15.707C5.31649 16.0975 4.68348 16.0975 4.29295 15.707L1.29295 12.707C0.90243 12.3164 0.90243 11.6834 1.29295 11.2929L4.29295 8.29289Z" fill="currentColor" />
    <path d="M11 16V14C11 13.4477 11.4477 13 12 13C12.5523 13 13 13.4477 13 14V16C13 16.5523 12.5523 17 12 17C11.4477 17 11 16.5523 11 16Z" fill="currentColor" />
    <path d="M11 22V20C11 19.4477 11.4477 19 12 19C12.5523 19 13 19.4477 13 20V22C13 22.5523 12.5523 23 12 23C11.4477 23 11 22.5523 11 22Z" fill="currentColor" />
</svg>