<svg xmlns="http://www.w3.org/2000/svg" width="24" height="24" viewBox="0 0 24 24" fill="none">
    <path d="M20.793 1.79302C21.1835 1.40249 21.8166 1.40249 22.2071 1.79302C22.5976 2.18354 22.5976 2.81655 22.2071 3.20708L20.2071 5.20708C19.8166 5.5976 19.1835 5.5976 18.793 5.20708C18.4025 4.81655 18.4025 4.18354 18.793 3.79302L20.793 1.79302Z" fill="currentColor" />
    <path d="M3.79302 18.793C4.18354 18.4025 4.81655 18.4025 5.20708 18.793C5.5976 19.1835 5.5976 19.8166 5.20708 20.2071L3.20708 22.2071C2.81655 22.5976 2.18354 22.5976 1.79302 22.2071C1.40249 21.8166 1.40249 21.1835 1.79302 20.793L3.79302 18.793Z" fill="currentColor" />
    <path d="M12.2929 16.2929L7.70711 11.7071C7.31658 11.3166 6.68342 11.3166 6.29289 11.7071L4.29289 13.7071C4.10536 13.8946 4 14.149 4 14.4142V17.5858C4 17.851 4.10536 18.1053 4.29289 18.2929L5.70711 19.7071C5.89464 19.8946 6.149 20 6.41421 20H9.58579C9.851 20 10.1054 19.8946 10.2929 19.7071L12.2929 17.7071C12.6834 17.3166 12.6834 16.6834 12.2929 16.2929Z" stroke="currentColor" stroke-width="2" stroke-linecap="round" stroke-linejoin="round" />
    <path d="M11.7071 6.29289C11.3166 6.68342 11.3166 7.31658 11.7071 7.70711L16.2929 12.2929C16.6834 12.6834 17.3166 12.6834 17.7071 12.2929L19.7071 10.2929C19.8946 10.1054 20 9.851 20 9.58579V6.41421C20 6.149 19.8946 5.89464 19.7071 5.70711L18.2929 4.29289C18.1053 4.10536 17.851 4 17.5858 4L14.4142 4C14.149 4 13.8946 4.10536 13.7071 4.29289L11.7071 6.29289Z" stroke="currentColor" stroke-width="2" stroke-linecap="round" stroke-linejoin="round" />
    <path d="M5.7627 11.1767C6.44611 10.4933 7.55389 10.4933 8.2373 11.1767L12.8232 15.7627C13.5065 16.4461 13.5066 17.5539 12.8232 18.2373L10.8232 20.2373C10.4951 20.5654 10.05 20.7499 9.58594 20.75H6.41406C5.94999 20.7499 5.50491 20.5654 5.17676 20.2373L3.7627 18.8232C3.43458 18.4951 3.25008 18.0499 3.25 17.5859V14.4141C3.25 13.9499 3.43451 13.5049 3.7627 13.1767L5.7627 11.1767Z" fill="currentColor" />
    <path d="M20.75 9.58594C20.7499 10.05 20.5654 10.4951 20.2373 10.8232L18.2373 12.8232C17.5539 13.5066 16.4461 13.5065 15.7627 12.8232L11.1767 8.2373C10.4933 7.55389 10.4933 6.44611 11.1767 5.7627L13.1767 3.7627C13.5049 3.43451 13.9499 3.25 14.4141 3.25H17.5859C18.0499 3.25008 18.4951 3.43458 18.8232 3.7627L20.2373 5.17676C20.5654 5.50491 20.7499 5.94999 20.75 6.41406V9.58594Z" fill="currentColor" />
    <path d="M12.793 12.793C13.1835 12.4025 13.8166 12.4025 14.2071 12.793C14.5976 13.1835 14.5976 13.8166 14.2071 14.2071L12.2071 16.2071C11.8166 16.5976 11.1835 16.5976 10.793 16.2071C10.4025 15.8166 10.4025 15.1835 10.793 14.793L12.793 12.793ZM9.79302 9.79302C10.1835 9.40249 10.8166 9.40249 11.2071 9.79302C11.5976 10.1835 11.5976 10.8166 11.2071 11.2071L9.20708 13.2071C8.81655 13.5976 8.18354 13.5976 7.79302 13.2071C7.40249 12.8166 7.40249 12.1835 7.79302 11.793L9.79302 9.79302Z" fill="currentColor" />
</svg>