<svg xmlns="http://www.w3.org/2000/svg" width="24" height="24" viewBox="0 0 24 24" fill="none">
    <path d="M16.25 20.75V18.25H13.75C13.1977 18.25 12.75 17.8023 12.75 17.25C12.75 16.6977 13.1977 16.25 13.75 16.25H16.25V13.75C16.25 13.1977 16.6977 12.75 17.25 12.75C17.8023 12.75 18.25 13.1977 18.25 13.75V16.25H20.75C21.3023 16.25 21.75 16.6977 21.75 17.25C21.75 17.8023 21.3023 18.25 20.75 18.25H18.25V20.75C18.25 21.3023 17.8023 21.75 17.25 21.75C16.6977 21.75 16.25 21.3023 16.25 20.75Z" fill="currentColor" />
    <path d="M3.4342 13.804C5.08733 12.8256 7.20767 12.25 9.5 12.25C11.5445 12.25 13.4522 12.7079 15.0136 13.501C15.0046 13.5827 15 13.6658 15 13.75V15H13.75C12.5074 15 11.5 16.0074 11.5 17.25C11.5 18.4926 12.5074 19.5 13.75 19.5H15V19.75H3C2.58579 19.75 2.25 19.4142 2.25 19V15.9852C2.25 15.1504 2.63046 14.2796 3.4342 13.804Z" fill="currentColor" />
    <path d="M5.25 6.5C5.25 4.15279 7.15279 2.25 9.5 2.25C11.8472 2.25 13.75 4.15279 13.75 6.5C13.75 8.84721 11.8472 10.75 9.5 10.75C7.15279 10.75 5.25 8.84721 5.25 6.5Z" fill="currentColor" />
</svg>