<svg xmlns="http://www.w3.org/2000/svg" width="24" height="24" viewBox="0 0 24 24" fill="none">
    <path d="M14.75 19.2499C14.75 18.6976 14.3023 18.2499 13.75 18.2499C13.1977 18.2499 12.75 18.6976 12.75 19.2499C12.75 19.8022 13.1977 20.2499 13.75 20.2499C14.3023 20.2499 14.75 19.8022 14.75 19.2499ZM16.75 19.2499C16.75 20.9068 15.4069 22.2499 13.75 22.2499C12.0931 22.2499 10.75 20.9068 10.75 19.2499C10.75 17.5931 12.0931 16.2499 13.75 16.2499C14.2125 16.2499 14.6488 16.358 15.04 16.5448L19.043 12.5429C19.4335 12.1524 20.0665 12.1524 20.457 12.5429C20.8476 12.9334 20.8476 13.5664 20.457 13.957L19.9141 14.4999L20.457 15.0429C20.8476 15.4334 20.8476 16.0664 20.457 16.457C20.0665 16.8475 19.4335 16.8475 19.043 16.457L18.5 15.914L16.4541 17.9589C16.6413 18.3504 16.75 18.787 16.75 19.2499Z" fill="currentColor" />
    <path d="M4.4342 13.304C6.08733 12.3256 8.20767 11.75 10.5 11.75C12.7771 11.75 14.8846 12.318 16.5329 13.2846L14.7061 15.1104C14.3999 15.0389 14.08 15 13.75 15C11.4028 15 9.5 16.9028 9.5 19.25H4C3.58579 19.25 3.25 18.9142 3.25 18.5V15.4852C3.25 14.6504 3.63046 13.7796 4.4342 13.304Z" fill="currentColor" />
    <path d="M6.25 6C6.25 3.65279 8.15279 1.75 10.5 1.75C12.8472 1.75 14.75 3.65279 14.75 6C14.75 8.34721 12.8472 10.25 10.5 10.25C8.15279 10.25 6.25 8.34721 6.25 6Z" fill="currentColor" />
</svg>