<svg xmlns="http://www.w3.org/2000/svg" width="24" height="24" viewBox="0 0 24 24" fill="none">
    <path d="M2.9342 13.304C4.58733 12.3256 6.70767 11.75 9 11.75C11.0619 11.75 12.9846 12.2157 14.5534 13.0213C13.7442 12.9108 12.9143 13.2489 12.4209 13.9395L12.2969 14.1338C11.7062 15.1675 12.0272 16.4694 13.0039 17.1191C13.0035 17.1348 13.0029 17.1504 13.0022 17.1661C13.0011 17.194 13 17.222 13 17.25C13 17.2773 13.0011 17.3045 13.0022 17.3317V17.3317C13.0028 17.3474 13.0035 17.3632 13.0039 17.3789C12.3601 17.8068 12.0013 18.5185 12.0003 19.25H2.5C2.08579 19.25 1.75 18.9142 1.75 18.5V15.4852C1.75 14.6504 2.13046 13.7796 2.9342 13.304Z" fill="currentColor" />
    <path d="M4.75 6C4.75 3.65279 6.65279 1.75 9 1.75C11.3472 1.75 13.25 3.65279 13.25 6C13.25 8.34721 11.3472 10.25 9 10.25C6.65279 10.25 4.75 8.34721 4.75 6Z" fill="currentColor" />
    <path fill-rule="evenodd" clip-rule="evenodd" d="M17.7501 12.25C18.3024 12.25 18.7501 12.6977 18.7501 13.25L18.7502 13.895C19.2878 14.0551 19.7711 14.3409 20.166 14.7176L20.754 14.3816C21.2336 14.1076 21.8444 14.2742 22.1184 14.7537C22.3924 15.2332 22.2258 15.8441 21.7463 16.1181L21.159 16.4537C21.2186 16.7099 21.2502 16.9765 21.2502 17.25C21.2502 17.5234 21.2187 17.7899 21.159 18.046L21.7463 18.3816C22.2258 18.6556 22.3924 19.2665 22.1184 19.746C21.8444 20.2255 21.2335 20.3921 20.754 20.1181L20.1662 19.7822C19.7713 20.1591 19.2879 20.4449 18.7502 20.605L18.7501 21.25C18.7501 21.8023 18.3024 22.25 17.7501 22.25C17.1978 22.25 16.7501 21.8023 16.7501 21.25L16.7502 20.605C16.2124 20.4449 15.7291 20.159 15.3342 19.7822L14.7463 20.1181C14.2668 20.3921 13.656 20.2255 13.3819 19.746C13.1079 19.2665 13.2745 18.6556 13.754 18.3816L14.3413 18.046C14.2817 17.7899 14.2502 17.5234 14.2502 17.25C14.2502 16.9765 14.2817 16.7099 14.3414 16.4537L13.754 16.1181C13.2745 15.8441 13.1079 15.2332 13.3819 14.7537C13.6559 14.2742 14.2668 14.1076 14.7463 14.3816L15.3344 14.7176C15.7292 14.3409 16.2125 14.0551 16.7502 13.895L16.7501 13.25C16.7501 12.6977 17.1978 12.25 17.7501 12.25ZM17.7502 15.75C17.1939 15.75 16.7071 16.0523 16.447 16.5063C16.322 16.7246 16.2502 16.9774 16.2502 17.25C16.2502 17.5225 16.3219 17.7753 16.4469 17.9935C16.707 18.4477 17.1939 18.75 17.7502 18.75C18.3065 18.75 18.7934 18.4477 19.0534 17.9935C19.1784 17.7753 19.2502 17.5225 19.2502 17.25C19.2502 16.9774 19.1784 16.7246 19.0533 16.5063C18.7933 16.0523 18.3064 15.75 17.7502 15.75Z" fill="currentColor" />
</svg>