<svg xmlns="http://www.w3.org/2000/svg" width="24" height="24" viewBox="0 0 24 24" fill="none">
    <path d="M12 1C12.5523 1 13 1.44772 13 2V5H16V4C16 3.44772 16.4477 3 17 3C17.5523 3 18 3.44772 18 4V5H20V4C20 3.44772 20.4477 3 21 3C21.5523 3 22 3.44772 22 4V5C22 6.10457 21.1046 7 20 7H18.4141L13 12.4141V22C13 22.5523 12.5523 23 12 23C11.4477 23 11 22.5523 11 22V12.4141L5.58594 7H4C2.89543 7 2 6.10457 2 5V4C2 3.44772 2.44772 3 3 3C3.55228 3 4 3.44772 4 4V5H6V4C6 3.44772 6.44772 3 7 3C7.55228 3 8 3.44772 8 4V5H11V2C11 1.44772 11.4477 1 12 1ZM11 9.58594V7H8.41406L11 9.58594ZM13 9.58594L15.5859 7H13V9.58594Z" fill="currentColor" />
</svg>