<svg xmlns="http://www.w3.org/2000/svg" width="24" height="24" viewBox="0 0 24 24" fill="none">
    <path fill-rule="evenodd" clip-rule="evenodd" d="M18.8252 2.25C20.4405 2.25011 21.7499 3.55953 21.75 5.1748V18.8252C21.7499 20.4405 20.4405 21.7499 18.8252 21.75H5.1748C3.55953 21.7499 2.25011 20.4405 2.25 18.8252V5.1748C2.25011 3.55953 3.55953 2.25011 5.1748 2.25H18.8252ZM4.19922 8V18.8252C4.19932 19.3635 4.63559 19.7996 5.17383 19.7998H18.8242C19.3626 19.7998 19.7987 19.3636 19.7988 18.8252V8H4.19922Z" fill="currentColor" />
    <path d="M6.09961 13.9C6.09961 12.5884 6.53705 11.3737 7.27441 10.3678C7.56832 9.96708 8.13142 9.88061 8.53223 10.1744C8.93292 10.4683 9.0194 11.0314 8.72559 11.4322C8.19815 12.1518 7.90039 12.9981 7.90039 13.9C7.90039 14.8019 8.19815 15.6482 8.72559 16.3678C9.0194 16.7686 8.93292 17.3317 8.53223 17.6256C8.13142 17.9194 7.56832 17.8329 7.27441 17.4322C6.53705 16.4263 6.09961 15.2116 6.09961 13.9ZM16.0996 13.9C16.0996 12.9981 15.8018 12.1518 15.2744 11.4322C14.9806 11.0314 15.0671 10.4683 15.4678 10.1744C15.8686 9.88061 16.4317 9.96708 16.7256 10.3678C17.463 11.3737 17.9004 12.5884 17.9004 13.9C17.9004 15.2116 17.463 16.4263 16.7256 17.4322C16.4317 17.8329 15.8686 17.9194 15.4678 17.6256C15.0671 17.3317 14.9806 16.7686 15.2744 16.3678C15.8018 15.6482 16.0996 14.8019 16.0996 13.9ZM12.8633 11.7633C13.2148 11.4118 13.7852 11.4118 14.1367 11.7633C14.4882 12.1148 14.4882 12.6852 14.1367 13.0367L13.2734 13.9L14.1367 14.7633C14.4882 15.1148 14.4882 15.6852 14.1367 16.0367C13.7852 16.3882 13.2148 16.3882 12.8633 16.0367L12 15.1734L11.1367 16.0367C10.7852 16.3882 10.2148 16.3882 9.86328 16.0367C9.51181 15.6852 9.51181 15.1148 9.86328 14.7633L10.7266 13.9L9.86328 13.0367C9.51181 12.6852 9.51181 12.1148 9.86328 11.7633C10.2148 11.4118 10.7852 11.4118 11.1367 11.7633L12 12.6266L12.8633 11.7633Z" fill="currentColor" />
</svg>