<svg xmlns="http://www.w3.org/2000/svg" width="24" height="24" viewBox="0 0 24 24" fill="none">
    <path d="M12 1C15.866 1 19 4.13401 19 8C19 11.5264 16.3921 14.4414 13 14.9268V17H15C15.5523 17 16 17.4477 16 18C16 18.5523 15.5523 19 15 19H13V22C13 22.5523 12.5523 23 12 23C11.4477 23 11 22.5523 11 22V19H9C8.44772 19 8 18.5523 8 18C8 17.4477 8.44772 17 9 17H11V14.9268C7.60787 14.4414 5 11.5264 5 8C5 4.13401 8.13401 1 12 1ZM12 3C9.23858 3 7 5.23858 7 8C7 10.7614 9.23858 13 12 13C14.7614 13 17 10.7614 17 8C17 5.23858 14.7614 3 12 3Z" fill="currentColor" />
</svg>