<svg xmlns="http://www.w3.org/2000/svg" width="24" height="24" viewBox="0 0 24 24" fill="none">
    <path d="M15.5 20.75C16.7426 20.75 17.75 19.7426 17.75 18.5V17.7499L6.25 6.25001V18.5C6.25 19.7426 7.25736 20.75 8.5 20.75H15.5Z" fill="currentColor" />
    <path d="M15.5 3.25H8.5C7.92486 3.25 7.40012 3.4658 7.00233 3.82083L17.75 14.5685V5.5C17.75 4.25736 16.7426 3.25 15.5 3.25Z" fill="currentColor" />
    <path d="M21.0429 7.29289C21.4334 6.90237 22.0664 6.90237 22.457 7.29289C22.8475 7.68342 22.8475 8.31643 22.457 8.70696L21.164 9.99992L22.457 11.2929C22.8475 11.6834 22.8475 12.3164 22.457 12.707L21.164 13.9999L22.457 15.2929C22.8475 15.6834 22.8475 16.3164 22.457 16.707C22.0664 17.0975 21.4334 17.0975 21.0429 16.707L19.0429 14.707C18.6524 14.3164 18.6524 13.6834 19.0429 13.2929L20.3359 11.9999L19.0429 10.707C18.6524 10.3164 18.6524 9.68342 19.0429 9.29289L21.0429 7.29289Z" fill="currentColor" />
    <path d="M2.95696 7.29289C2.56643 6.90237 1.93342 6.90237 1.54289 7.29289C1.15237 7.68342 1.15237 8.31643 1.54289 8.70696L2.83586 9.99992L1.54289 11.2929C1.15237 11.6834 1.15237 12.3164 1.54289 12.707L2.83586 13.9999L1.54289 15.2929C1.15237 15.6834 1.15237 16.3164 1.54289 16.707C1.93342 17.0975 2.56643 17.0975 2.95696 16.707L4.95696 14.707C5.34748 14.3164 5.34748 13.6834 4.95696 13.2929L3.66399 11.9999L4.95696 10.707C5.34748 10.3164 5.34748 9.68342 4.95696 9.29289L2.95696 7.29289Z" fill="currentColor" />
    <path d="M1.29295 1.29289C1.68348 0.902369 2.31649 0.902369 2.70702 1.29289L22.707 21.2929C23.0975 21.6834 23.0975 22.3164 22.707 22.707C22.3165 23.0975 21.6835 23.0975 21.293 22.707L1.29295 2.70696C0.90243 2.31643 0.90243 1.68342 1.29295 1.29289Z" fill="currentColor" />
</svg>