<svg xmlns="http://www.w3.org/2000/svg" width="24" height="24" viewBox="0 0 24 24" fill="none">
    <path d="M15.5001 20.75C16.7427 20.75 17.7501 19.7426 17.7501 18.5V5.5C17.7501 4.25736 16.7427 3.25 15.5001 3.25H8.50006C7.25742 3.25 6.25006 4.25736 6.25006 5.5V18.5C6.25006 19.7426 7.25742 20.75 8.50006 20.75H15.5001Z" fill="currentColor" />
    <path d="M21.043 7.29289C21.4335 6.90237 22.0665 6.90237 22.457 7.29289C22.8475 7.68342 22.8475 8.31643 22.457 8.70696L21.164 9.99992L22.457 11.2929C22.8475 11.6834 22.8475 12.3164 22.457 12.707L21.164 13.9999L22.457 15.2929C22.8475 15.6834 22.8475 16.3164 22.457 16.707C22.0665 17.0975 21.4335 17.0975 21.043 16.707L19.043 14.707C18.6524 14.3164 18.6524 13.6834 19.043 13.2929L20.3359 11.9999L19.043 10.707C18.6524 10.3164 18.6524 9.68342 19.043 9.29289L21.043 7.29289Z" fill="currentColor" />
    <path d="M2.95702 7.29289C2.56649 6.90237 1.93348 6.90237 1.54295 7.29289C1.15243 7.68342 1.15243 8.31643 1.54295 8.70696L2.83592 9.99992L1.54295 11.2929C1.15243 11.6834 1.15243 12.3164 1.54295 12.707L2.83592 13.9999L1.54295 15.2929C1.15243 15.6834 1.15243 16.3164 1.54295 16.707C1.93348 17.0975 2.56649 17.0975 2.95702 16.707L4.95702 14.707C5.34754 14.3164 5.34754 13.6834 4.95702 13.2929L3.66405 11.9999L4.95702 10.707C5.34754 10.3164 5.34754 9.68342 4.95702 9.29289L2.95702 7.29289Z" fill="currentColor" />
</svg>