<svg xmlns="http://www.w3.org/2000/svg" width="24" height="24" viewBox="0 0 24 24" fill="none">
    <path d="M18.8252 1.25C20.4405 1.25011 21.7499 2.56259 21.75 4.18164V19.8184C21.7499 21.4374 20.4405 22.7499 18.8252 22.75H5.1748C3.55952 22.7499 2.2501 21.4374 2.25 19.8184V4.18164C2.2501 2.56259 3.55952 1.25011 5.1748 1.25H18.8252ZM10.707 14.293C10.3165 13.9024 9.68349 13.9024 9.29297 14.293L8.5 15.0859L7.70703 14.293C7.31651 13.9024 6.68349 13.9024 6.29297 14.293C5.90244 14.6835 5.90244 15.3165 6.29297 15.707L7.08594 16.5L6.29297 17.293C5.90244 17.6835 5.90244 18.3165 6.29297 18.707C6.6835 19.0975 7.31653 19.0975 7.70703 18.707L8.5 17.9141L9.29297 18.707C9.6835 19.0975 10.3165 19.0975 10.707 18.707C11.0975 18.3165 11.0975 17.6835 10.707 17.293L9.91406 16.5L10.707 15.707C11.0975 15.3165 11.0975 14.6835 10.707 14.293ZM15 17C14.4477 17 14 17.4477 14 18C14 18.5523 14.4477 19 15 19C15.5523 19 16 18.5523 16 18C16 17.4477 15.5523 17 15 17ZM17 14C16.4477 14 16 14.4477 16 15C16 15.5523 16.4477 16 17 16C17.5523 16 18 15.5523 18 15C18 14.4477 17.5523 14 17 14ZM5.17383 3.20312C4.6355 3.20323 4.19931 3.64108 4.19922 4.18066V10.249H19.7988V4.18066C19.7987 3.64108 19.3625 3.20323 18.8242 3.20312H5.17383Z" fill="currentColor" />
</svg>