<svg xmlns="http://www.w3.org/2000/svg" width="24" height="24" viewBox="0 0 24 24" fill="none">
    <path d="M22.75 6C22.75 4.48122 21.5188 3.25 20 3.25H4C2.48122 3.25 1.25 4.48122 1.25 6V7.25H22.75V6Z" fill="currentColor" />
    <path d="M22.75 18C22.75 19.5188 21.5188 20.75 20 20.75H4C2.48122 20.75 1.25 19.5188 1.25 18V8.75H22.75V18ZM8 12C7.97329 12 7.94689 12.0012 7.9209 12.0039C6.43873 12.0458 5.25 13.2577 5.25 14.75C5.25 16.2423 6.43875 17.4532 7.9209 17.4951C7.94692 17.4978 7.97326 17.5 8 17.5H16C16.0264 17.5 16.0524 17.4978 16.0781 17.4951C17.5607 17.4537 18.75 16.2426 18.75 14.75C18.75 13.2574 17.5607 12.0453 16.0781 12.0039C16.0524 12.0012 16.0264 12 16 12H8ZM8 13.5C8.69036 13.5 9.25 14.0596 9.25 14.75C9.25 15.4404 8.69036 16 8 16C7.30964 16 6.75 15.4404 6.75 14.75C6.75 14.0596 7.30964 13.5 8 13.5ZM13.5527 13.5C13.3606 13.8753 13.25 14.2994 13.25 14.75C13.25 15.2006 13.3606 15.6247 13.5527 16H10.4473C10.6394 15.6247 10.75 15.2006 10.75 14.75C10.75 14.2994 10.6394 13.8753 10.4473 13.5H13.5527ZM16 13.5C16.6904 13.5 17.25 14.0596 17.25 14.75C17.25 15.4404 16.6904 16 16 16C15.3096 16 14.75 15.4404 14.75 14.75C14.75 14.0596 15.3096 13.5 16 13.5Z" fill="currentColor" />
</svg>