<svg xmlns="http://www.w3.org/2000/svg" width="24" height="24" viewBox="0 0 24 24" fill="none">
    <path fill-rule="evenodd" clip-rule="evenodd" d="M16.3594 3.34172C16.6002 3.47318 16.75 3.72565 16.75 4V20C16.75 20.2744 16.6002 20.5268 16.3594 20.6583C16.1186 20.7898 15.8252 20.7792 15.5944 20.6309L8.77972 16.25H6C4.48122 16.25 3.25 15.0188 3.25 13.5V10.5C3.25 8.98122 4.48122 7.75 6 7.75H8.77972L15.5944 3.36912C15.8252 3.22076 16.1186 3.21025 16.3594 3.34172Z" fill="currentColor" />
    <path fill-rule="evenodd" clip-rule="evenodd" d="M18.3935 8.20503C18.8325 7.87003 19.4601 7.95439 19.7951 8.39347C20.5519 9.38539 21.0001 10.6417 21.0001 12.0001C21.0001 13.3584 20.5519 14.6147 19.7951 15.6066C19.4601 16.0457 18.8326 16.1301 18.3935 15.7951C17.9544 15.4601 17.87 14.8326 18.205 14.3935C18.699 13.746 19.0001 12.9149 19.0001 12.0001C19.0001 11.0852 18.699 10.2541 18.205 9.60664C17.87 9.16756 17.9544 8.54004 18.3935 8.20503Z" fill="currentColor" />
</svg>