<svg xmlns="http://www.w3.org/2000/svg" width="24" height="24" viewBox="0 0 24 24" fill="none">
    <path fill-rule="evenodd" clip-rule="evenodd" d="M17.0429 9.29289C17.4334 8.90237 18.0666 8.90237 18.4571 9.29289L19.75 10.5858L21.0429 9.29289C21.4334 8.90237 22.0666 8.90237 22.4571 9.29289C22.8476 9.68342 22.8476 10.3166 22.4571 10.7071L21.1642 12L22.4571 13.2929C22.8476 13.6834 22.8476 14.3166 22.4571 14.7071C22.0666 15.0976 21.4334 15.0976 21.0429 14.7071L19.75 13.4142L18.4571 14.7071C18.0666 15.0976 17.4334 15.0976 17.0429 14.7071C16.6524 14.3166 16.6524 13.6834 17.0429 13.2929L18.3358 12L17.0429 10.7071C16.6524 10.3166 16.6524 9.68342 17.0429 9.29289Z" fill="currentColor" />
    <path fill-rule="evenodd" clip-rule="evenodd" d="M14.1094 3.34172C14.3502 3.47318 14.5 3.72565 14.5 4V20C14.5 20.2744 14.3502 20.5268 14.1094 20.6583C13.8686 20.7898 13.5752 20.7792 13.3444 20.6309L6.52972 16.25H3.75C2.23122 16.25 1 15.0188 1 13.5V10.5C1 8.98122 2.23122 7.75 3.75 7.75H6.52972L13.3444 3.36912C13.5752 3.22076 13.8686 3.21025 14.1094 3.34172Z" fill="currentColor" />
</svg>