<svg xmlns="http://www.w3.org/2000/svg" width="24" height="24" viewBox="0 0 24 24" fill="none">
    <path fill-rule="evenodd" clip-rule="evenodd" d="M5.25 19.75H18.75V7C18.75 5.48122 17.5188 4.25 16 4.25H8C6.48122 4.25 5.25 5.48122 5.25 7V19.75ZM13.2041 9.39355C13.5388 8.95428 14.1672 8.8694 14.6064 9.2041C15.0457 9.53882 15.1306 10.1672 14.7959 10.6064L12.1289 14.1064C11.9493 14.3421 11.6739 14.4858 11.3779 14.499C11.082 14.5122 10.7956 14.3934 10.5957 14.1748L9.26172 12.7168C8.88907 12.3092 8.91765 11.6764 9.3252 11.3037C9.7328 10.931 10.3656 10.9596 10.7383 11.3672L11.2627 11.9414L13.2041 9.39355Z" fill="currentColor" />
    <path d="M21 17.75C21.5523 17.75 22 18.1977 22 18.75C22 19.3023 21.5523 19.75 21 19.75H3C2.44772 19.75 2 19.3023 2 18.75C2 18.1977 2.44772 17.75 3 17.75H21Z" fill="currentColor" />
</svg>