<svg xmlns="http://www.w3.org/2000/svg" width="24" height="24" viewBox="0 0 24 24" fill="none">
    <path d="M19.7999 12.7917V5.125C19.7999 4.59573 19.3634 4.16667 18.8249 4.16667H5.17494C4.63646 4.16667 4.19994 4.59573 4.19994 5.125V12.7917C4.19994 13.3209 3.76342 13.75 3.22494 13.75C2.68646 13.75 2.24994 13.3209 2.24994 12.7917V5.125C2.24994 3.53718 3.55951 2.25 5.17494 2.25H18.8249C20.4404 2.25 21.7499 3.53718 21.7499 5.125V12.7917C21.7499 13.3209 21.3134 13.75 20.7749 13.75C20.2365 13.75 19.7999 13.3209 19.7999 12.7917Z" fill="currentColor" />
    <path d="M19.7999 16.7917V9.125C19.7999 8.59573 19.3634 8.16667 18.8249 8.16667H5.17494C4.63646 8.16667 4.19994 8.59573 4.19994 9.125V16.7917C4.19994 17.3209 3.76342 17.75 3.22494 17.75C2.68646 17.75 2.24994 17.3209 2.24994 16.7917V9.125C2.24994 7.53718 3.55951 6.25 5.17494 6.25H18.8249C20.4404 6.25 21.7499 7.53718 21.7499 9.125V16.7917C21.7499 17.3209 21.3134 17.75 20.7749 17.75C20.2365 17.75 19.7999 17.3209 19.7999 16.7917Z" fill="currentColor" />
    <path d="M18.9999 21.75C20.5187 21.75 21.7499 20.5188 21.7499 19V13C21.7499 11.4812 20.5187 10.25 18.9999 10.25H15.9999C14.9976 10.25 14.3619 11.0577 14.1269 11.7363C13.8215 12.6183 12.9835 13.25 11.9999 13.25C11.0164 13.25 10.1783 12.6183 9.87299 11.7363C9.63796 11.0577 9.0023 10.25 7.99994 10.25H4.99994C3.48116 10.25 2.24994 11.4812 2.24994 13V19C2.24994 20.5188 3.48116 21.75 4.99994 21.75H18.9999Z" fill="currentColor" />
</svg>