<svg xmlns="http://www.w3.org/2000/svg" width="24" height="24" viewBox="0 0 24 24" fill="none">
    <path d="M2.54289 2.54302C2.93342 2.15249 3.56643 2.15249 3.95696 2.54302L21.457 20.043C21.8475 20.4335 21.8475 21.0666 21.457 21.4571C21.0664 21.8476 20.4334 21.8476 20.0429 21.4571L2.54289 3.95708C2.15237 3.56655 2.15237 2.93354 2.54289 2.54302Z" fill="currentColor" />
    <path d="M4.57718 11.876C5.05998 11.6083 5.66859 11.782 5.93655 12.2646C6.20444 12.7475 6.02969 13.357 5.54691 13.625C4.62232 14.1382 4.0001 15.1221 4.00003 16.25C4.00003 17.9069 5.34318 19.25 7.00003 19.25C8.6568 19.2499 10 17.9068 10 16.25C10.0001 15.6978 10.4478 15.25 11 15.25H15.25L17.8028 17.8027C17.5621 17.9274 17.2898 18 17 18C16.4055 18 15.8808 17.7031 15.5645 17.25H11.9004C11.4372 19.5322 9.41891 21.2499 7.00003 21.25C4.23861 21.25 2.00003 19.0114 2.00003 16.25C2.0001 14.3662 3.04268 12.7275 4.57718 11.876Z" fill="currentColor" />
    <path d="M13.7198 18.7471C14.0652 18.3163 14.6952 18.2474 15.126 18.5928C15.6397 19.0044 16.2898 19.25 17 19.25C17.6367 19.25 18.2254 19.0492 18.711 18.7109L20.1397 20.1396C19.2813 20.8334 18.1896 21.25 17 21.25C15.8188 21.25 14.7307 20.8391 13.875 20.1533C13.4441 19.8079 13.3743 19.178 13.7198 18.7471Z" fill="currentColor" />
    <path d="M12 5.5C12.9664 5.5001 13.75 6.28356 13.75 7.25C13.75 7.52575 13.684 7.78557 13.5703 8.01758L15.4951 11.4814C15.9707 11.3315 16.4765 11.25 17 11.25C19.7613 11.2501 21.9999 13.4887 22 16.25C22 16.9063 21.8715 17.5323 21.6416 18.1064L19.9912 16.4561C19.9959 16.3879 20 16.3193 20 16.25C19.9999 14.5933 18.6567 13.2501 17 13.25C16.9301 13.25 16.8606 13.2521 16.792 13.2568L10.3145 6.7793C10.5201 6.04149 11.1967 5.5 12 5.5Z" fill="currentColor" />
    <path d="M11.0186 11.0186C10.998 11.0914 10.97 11.1634 10.9317 11.2324L8.57034 15.4814C8.68419 15.7137 8.75003 15.9739 8.75003 16.25C8.75003 17.2164 7.96644 17.9999 7.00003 18C6.03353 18 5.25003 17.2165 5.25003 16.25C5.25003 15.3431 5.93974 14.5964 6.82327 14.5078L8.7471 11.0469C7.67893 10.1307 7.00003 8.77 7.00003 7.25C7.00003 7.16783 7.00099 7.08608 7.00491 7.00488L11.0186 11.0186Z" fill="currentColor" />
    <path d="M12 2.25C14.7614 2.2501 17 4.48864 17 7.25C17 7.80222 16.5522 8.2499 16 8.25C15.4478 8.2499 15 7.80222 15 7.25C15 5.59321 13.6568 4.2501 12 4.25C10.8593 4.25007 9.86674 4.88673 9.35941 5.82422L7.90921 4.37402C8.81414 3.08932 10.3092 2.25006 12 2.25Z" fill="currentColor" />
</svg>