<svg xmlns="http://www.w3.org/2000/svg" width="24" height="24" viewBox="0 0 24 24" fill="none">
    <path d="M14 6.25C14 5.14543 13.1046 4.25 12 4.25C10.8954 4.25 10 5.14543 10 6.25C10 7.35457 10.8954 8.25 12 8.25C13.1046 8.25 14 7.35457 14 6.25ZM16 6.25C16 8.45914 14.2091 10.25 12 10.25C9.79086 10.25 8 8.45914 8 6.25C8 4.04086 9.79086 2.25 12 2.25C14.2091 2.25 16 4.04086 16 6.25Z" fill="currentColor" />
    <path d="M19.2559 21.75C20.6333 21.75 21.75 20.6333 21.75 19.2559C21.75 19.0132 21.7143 18.7715 21.6445 18.5391L19.1455 10.21C18.7965 9.04676 17.7261 8.25 16.5117 8.25L7.48828 8.25C6.27386 8.25 5.20345 9.04675 4.85449 10.21L2.35547 18.5391C2.28573 18.7715 2.25001 19.0132 2.25 19.2559C2.25 20.6333 3.36673 21.75 4.74414 21.75L19.2559 21.75ZM13.9248 16.9707C12.949 16.8971 12.0842 16.3638 11.3643 15.7715C10.7513 15.2671 10.2822 15.0497 9.9248 15.0225C9.64414 15.0012 9.26189 15.0842 8.74707 15.6631C8.38021 16.0756 7.74865 16.1126 7.33594 15.7461C6.92322 15.3791 6.88594 14.7467 7.25293 14.334C8.07123 13.4139 9.0228 12.9487 10.0752 13.0283C11.0509 13.1023 11.916 13.6353 12.6357 14.2275C13.2488 14.7319 13.7179 14.9486 14.0752 14.9756C14.3559 14.9967 14.7381 14.9139 15.2529 14.335C15.6199 13.9226 16.2514 13.8853 16.6641 14.252C17.0766 14.6189 17.1139 15.2514 16.7471 15.6641C15.9288 16.5841 14.9772 17.05 13.9248 16.9707Z" fill="currentColor" />
</svg>