<svg xmlns="http://www.w3.org/2000/svg" width="24" height="24" viewBox="0 0 24 24" fill="none">
    <path d="M1 14.5V13.5C1 12.9477 1.44772 12.5 2 12.5C2.55228 12.5 3 12.9477 3 13.5V14.5C3 15.0523 3.44772 15.5 4 15.5H20C20.5523 15.5 21 15.0523 21 14.5V13.5C21 12.9477 21.4477 12.5 22 12.5C22.5523 12.5 23 12.9477 23 13.5V14.5C23 16.1569 21.6569 17.5 20 17.5H4C2.34315 17.5 1 16.1569 1 14.5Z" fill="currentColor" />
    <path d="M8.1287 6.50488C8.72105 6.55464 9.2308 6.94727 9.43144 7.50684L9.46952 7.62891L10.9666 13.2422C11.1089 13.7757 10.792 14.3234 10.2586 14.4658C9.72496 14.6081 9.17629 14.2914 9.03398 13.7578L8.83183 13H7.16874L6.96659 13.7578C6.8242 14.2913 6.27653 14.6081 5.74296 14.4658C5.20939 14.3235 4.89168 13.7758 5.03398 13.2422L6.53105 7.62891L6.56913 7.50684C6.78402 6.90721 7.35474 6.5 8.00077 6.5L8.1287 6.50488ZM7.70194 11H8.29862L7.9998 9.87988L7.70194 11Z" fill="currentColor" />
    <path d="M16 12C16 11.7239 15.7761 11.5 15.5 11.5H15V12.5H15.5C15.7761 12.5 16 12.2761 16 12ZM16 9C16 8.72386 15.7761 8.5 15.5 8.5H15V9.5H15.5C15.7761 9.5 16 9.27614 16 9ZM18 9C18 9.56369 17.8108 10.0818 17.4961 10.5C17.8108 10.9182 18 11.4363 18 12C18 13.3807 16.8807 14.5 15.5 14.5H14C13.4477 14.5 13 14.0523 13 13.5V7.5C13 6.94772 13.4477 6.5 14 6.5H15.5C16.8807 6.5 18 7.61929 18 9Z" fill="currentColor" />
</svg>