<svg xmlns="http://www.w3.org/2000/svg" width="24" height="24" viewBox="0 0 24 24" fill="none">
    <path d="M12.125 17.8302C12.7412 17.8921 13.2226 18.4085 13.2226 19.0368C13.2226 19.7067 12.6755 20.2498 12.001 20.25C11.3685 20.25 10.8477 19.7727 10.7851 19.1609L10.7794 19.0368L10.7851 18.9126C10.8477 18.3009 11.3685 17.8235 12.001 17.8235L12.125 17.8302ZM12 13.4549C13.5348 13.4549 15.0087 14.0533 16.1048 15.1203C16.49 15.4955 16.4959 16.11 16.1181 16.4928C15.7403 16.8753 15.1216 16.8812 14.7362 16.506C14.0055 15.7948 13.0231 15.3961 12 15.3961C10.9769 15.3961 9.99453 15.7948 9.26383 16.506C8.87847 16.8812 8.25974 16.8753 7.8819 16.4928C7.50417 16.11 7.51006 15.4955 7.89526 15.1203C8.99135 14.0533 10.4652 13.4549 12 13.4549ZM12 8.60294C12.5397 8.60294 12.9772 9.03753 12.9773 9.57353C12.9773 10.1096 12.5398 10.5441 12 10.5441C9.69777 10.5441 7.48749 11.4411 5.84336 13.0417C5.45794 13.4168 4.83921 13.4101 4.46143 13.0275C4.08364 12.6447 4.08944 12.0302 4.47479 11.655C6.48428 9.69877 9.18616 8.60294 12 8.60294ZM21.0818 4.03435C21.4635 3.65531 22.0821 3.65531 22.4638 4.03435C22.8454 4.41339 22.8454 5.02779 22.4638 5.40682L20.2229 7.63235L22.4638 9.85788C22.8454 10.2369 22.8454 10.8513 22.4638 11.2304C22.0821 11.6094 21.4635 11.6094 21.0818 11.2304L18.841 9.00483L16.6001 11.2304C16.2184 11.6094 15.5998 11.6094 15.2182 11.2304C14.8365 10.8513 14.8365 10.2369 15.2182 9.85788L17.459 7.63235L15.2182 5.40682C14.8365 5.02779 14.8365 4.41339 15.2182 4.03435C15.5998 3.65531 16.2184 3.65531 16.6001 4.03435L18.841 6.25988L21.0818 4.03435ZM12 3.75C12.5398 3.75 12.9773 4.18455 12.9773 4.72059C12.9773 5.25663 12.5398 5.69118 12 5.69118C8.63458 5.69118 5.38752 6.92347 2.87908 9.15174C2.47682 9.50904 1.85888 9.47439 1.49905 9.07497C1.13927 8.67547 1.17324 8.06177 1.5754 7.70439C4.4422 5.1578 8.1538 3.75 12 3.75Z" fill="currentColor" />
</svg>