<svg xmlns="http://www.w3.org/2000/svg" width="24" height="24" viewBox="0 0 24 24" fill="none">
    <path d="M12.125 17.8302C12.7412 17.8921 13.2225 18.4085 13.2225 19.0368C13.2225 19.7067 12.6754 20.2498 12.001 20.25C11.3685 20.25 10.8477 19.7727 10.7851 19.1609L10.7794 19.0368L10.7851 18.9126C10.8477 18.3009 11.3685 17.8235 12.001 17.8235L12.125 17.8302ZM12 13.4549C13.5348 13.4549 15.0087 14.0533 16.1048 15.1203C16.4899 15.4955 16.4958 16.11 16.1181 16.4928C15.7403 16.8753 15.1215 16.8812 14.7362 16.506C14.0055 15.7948 13.0231 15.3961 12 15.3961C10.9769 15.3961 9.99452 15.7948 9.26382 16.506C8.87846 16.8812 8.25973 16.8753 7.88189 16.4928C7.50416 16.11 7.51005 15.4955 7.89525 15.1203C8.99134 14.0533 10.4652 13.4549 12 13.4549ZM12 8.60294C14.8139 8.60294 17.5157 9.69877 19.5252 11.655C19.9106 12.0302 19.9164 12.6447 19.5386 13.0275C19.1608 13.4101 18.5421 13.4168 18.1566 13.0417C16.5125 11.4411 14.3022 10.5441 12 10.5441C9.69776 10.5441 7.48748 11.4411 5.84335 13.0417C5.45793 13.4168 4.83921 13.4101 4.46142 13.0275C4.08364 12.6447 4.08944 12.0302 4.47478 11.655C6.48427 9.69877 9.18615 8.60294 12 8.60294ZM12 3.75C15.8462 3.75 19.5578 5.1578 22.4246 7.70439C22.8268 8.06177 22.8607 8.67547 22.5009 9.07497C22.1411 9.47439 21.5232 9.50904 21.1209 9.15174C18.6125 6.92347 15.3654 5.69118 12 5.69118C8.63457 5.69118 5.38752 6.92347 2.87907 9.15174C2.47682 9.50904 1.85888 9.47439 1.49905 9.07497C1.13927 8.67547 1.17324 8.06177 1.5754 7.70439C4.44219 5.1578 8.15379 3.75 12 3.75Z" fill="currentColor" />
</svg>