<svg xmlns="http://www.w3.org/2000/svg" width="24" height="24" viewBox="0 0 24 24" fill="none">
    <path d="M18 10.25C19.5188 10.25 20.75 11.4812 20.75 13V20C20.75 21.5188 19.5188 22.75 18 22.75H6C4.48122 22.75 3.25 21.5188 3.25 20V13C3.25 11.4812 4.48122 10.25 6 10.25H18ZM13 14C12.4477 14 12 14.4477 12 15C12 15.5523 12.4477 16 13 16H16C16.5523 16 17 15.5523 17 15C17 14.4477 16.5523 14 16 14H13Z" fill="currentColor" />
    <path d="M12.0039 5.36914C13.1393 5.37144 14.2406 5.75938 15.126 6.46973C15.5567 6.81534 15.6259 7.4452 15.2803 7.87598C14.9347 8.30674 14.3048 8.37586 13.874 8.03027C13.3429 7.60412 12.6821 7.37056 12 7.36914C11.318 7.36778 10.6559 7.59851 10.123 8.02246C9.69089 8.36636 9.06166 8.29446 8.71777 7.8623C8.3741 7.43031 8.44524 6.80195 8.87695 6.45801C9.7652 5.75116 10.8684 5.36687 12.0039 5.36914ZM12 1.25C14.0443 1.25 16.0277 1.9452 17.624 3.2207C18.0554 3.56547 18.126 4.19454 17.7812 4.62598C17.4366 5.0572 16.8074 5.1276 16.376 4.7832C15.1345 3.79119 13.591 3.25 12 3.25C10.409 3.25 8.86552 3.79119 7.62402 4.7832C7.19261 5.1276 6.56343 5.0572 6.21874 4.62598C5.87401 4.19454 5.94458 3.56547 6.37597 3.2207C7.97226 1.9452 9.95567 1.25 12 1.25Z" fill="currentColor" />
</svg>