<svg xmlns="http://www.w3.org/2000/svg" width="24" height="24" viewBox="0 0 24 24" fill="none">
    <path fill-rule="evenodd" clip-rule="evenodd" d="M16.25 9.75054V4.25498C15.5978 4.26481 15.1161 4.2939 14.6836 4.37989C13.6011 4.59521 12.6141 5.06561 11.7871 5.72657L15.8246 9.76405C15.9042 9.75533 16.0219 9.75175 16.25 9.75054ZM9.37988 9.6836C9.5952 8.60112 10.0656 7.61412 10.7266 6.78712L14.764 10.8246C14.7553 10.9042 14.7517 11.0219 14.7505 11.25H9.25498C9.2648 10.5978 9.29389 10.1161 9.37988 9.6836ZM9.24947 12.75C9.24826 12.9781 9.24468 13.0958 9.23596 13.1754L13.2734 17.2129C13.9344 16.3859 14.4048 15.3989 14.6201 14.3164C14.7061 13.8839 14.7352 13.4022 14.745 12.75H9.24947ZM7.75 14.2495C7.97814 14.2483 8.09581 14.2447 8.17541 14.236L12.2129 18.2734C11.3859 18.9344 10.3989 19.4048 9.31641 19.6201C8.88391 19.7061 8.40218 19.7352 7.75 19.745V14.2495ZM6.25 14.25H5C3.48122 14.25 2.25 15.4812 2.25 17C2.25 18.5188 3.48122 19.75 5 19.75H6.25V14.25ZM17.75 9.75001V4.25001H19C20.5188 4.25001 21.75 5.48122 21.75 7.00001C21.75 8.51879 20.5188 9.75001 19 9.75001H17.75Z" fill="currentColor" />
</svg>