<svg xmlns="http://www.w3.org/2000/svg" width="24" height="24" viewBox="0 0 24 24" fill="none">
    <path d="M17.293 7.29295C17.6835 6.90243 18.3165 6.90243 18.707 7.29295C19.0975 7.68348 19.0975 8.31649 18.707 8.70702L13.414 14L18.707 19.293C19.0975 19.6835 19.0975 20.3165 18.707 20.707C18.3165 21.0975 17.6835 21.0975 17.293 20.707L12 15.414L6.70702 20.707C6.31649 21.0975 5.68348 21.0975 5.29295 20.707C4.90243 20.3165 4.90243 19.6835 5.29295 19.293L10.5859 14L5.29295 8.70702C4.90243 8.31649 4.90243 7.68348 5.29295 7.29295C5.68348 6.90243 6.31649 6.90243 6.70702 7.29295L12 12.5859L17.293 7.29295Z" fill="currentColor" />
    <path d="M18 3C18.5523 3 19 3.44772 19 4C19 4.55228 18.5523 5 18 5H6C5.44772 5 5 4.55228 5 4C5 3.44772 5.44772 3 6 3H18Z" fill="currentColor" />
</svg>