<svg xmlns="http://www.w3.org/2000/svg" width="24" height="24" viewBox="0 0 24 24" fill="none">
    <path d="M4.93439 17.4785V6.93457C4.93416 5.8661 4.06834 5 2.99982 5C2.44753 5 1.99982 4.55228 1.99982 4C1.99982 3.44772 2.44753 3 2.99982 3C5.17291 3 6.93416 4.76153 6.93439 6.93457V17.4785C6.93425 18.0307 6.48659 18.4785 5.93439 18.4785C5.38238 18.4783 4.93452 18.0305 4.93439 17.4785Z" fill="currentColor" />
    <path d="M4.93359 17.4785V8.03223C4.93386 5.25296 7.18747 3 9.9668 3C12.7461 3.00026 14.999 5.25387 14.999 8.0332V17C14.999 19.2091 13.2082 21 10.999 21C10.4467 21 9.99902 20.5523 9.99902 20C9.99902 19.4477 10.4467 19 10.999 19C12.1036 19 12.999 18.1046 12.999 17V8.0332C12.999 6.35844 11.6415 5.00026 9.9668 5C8.29204 5 6.93386 6.35753 6.93359 8.03223V17.4785C6.93346 18.0307 6.48579 18.4785 5.93359 18.4785C5.38139 18.4785 4.93373 18.0307 4.93359 17.4785Z" fill="currentColor" />
    <path d="M20 15.5C20 14.1193 18.8807 13 17.5 13C16.1193 13 15 14.1193 15 15.5C15 16.8807 16.1193 18 17.5 18C18.8807 18 20 16.8807 20 15.5ZM22 15.5C22 17.9853 19.9853 20 17.5 20C15.0147 20 13 17.9853 13 15.5C13 13.0147 15.0147 11 17.5 11C19.9853 11 22 13.0147 22 15.5Z" fill="currentColor" />
</svg>