<svg xmlns="http://www.w3.org/2000/svg" width="24" height="24" viewBox="0 0 24 24" fill="none">
    <path d="M20.293 2.29295C20.6835 1.90243 21.3166 1.90243 21.7071 2.29295C22.0976 2.68348 22.0976 3.31649 21.7071 3.70702L3.70708 21.707C3.31655 22.0975 2.68354 22.0975 2.29301 21.707C1.90249 21.3165 1.90249 20.6835 2.29301 20.293L20.293 2.29295Z" fill="currentColor" />
    <path d="M20 11V4H13C12.4477 4 12 3.55228 12 3C12 2.44772 12.4477 2 13 2H21C21.5523 2 22 2.44772 22 3V11C22 11.5523 21.5523 12 21 12C20.4477 12 20 11.5523 20 11Z" fill="currentColor" />
    <path d="M6.29302 8.29295C6.68354 7.90243 7.31655 7.90243 7.70708 8.29295L15.7071 16.293C16.0976 16.6835 16.0976 17.3165 15.7071 17.707C15.3166 18.0975 14.6835 18.0975 14.293 17.707L6.29302 9.70702C5.90249 9.31649 5.90249 8.68348 6.29302 8.29295Z" fill="currentColor" />
</svg>