<svg xmlns="http://www.w3.org/2000/svg" width="24" height="24" viewBox="0 0 24 24" fill="none">
    <path d="M13.9999 12C13.9999 8.34434 15.2023 4.98541 17.2089 2.38867C17.5466 1.9517 18.1743 1.8713 18.6113 2.20899C19.0482 2.54669 19.1287 3.17434 18.791 3.61133C17.057 5.85528 15.9999 8.78371 15.9999 12C15.9999 15.2163 17.057 18.1447 18.791 20.3887C19.1287 20.8257 19.0482 21.4533 18.6113 21.791C18.1743 22.1287 17.5466 22.0483 17.2089 21.6113C15.2023 19.0146 13.9999 15.6557 13.9999 12Z" fill="currentColor" />
    <path d="M7.99995 12C7.99995 8.78371 6.94292 5.85528 5.20893 3.61133C4.87124 3.17434 4.95165 2.54669 5.38862 2.20899C5.82561 1.8713 6.45325 1.9517 6.79096 2.38867C8.79759 4.98541 9.99995 8.34434 9.99995 12C9.99995 15.6557 8.79759 19.0146 6.79096 21.6113C6.45325 22.0483 5.82561 22.1287 5.38862 21.791C4.95165 21.4533 4.87124 20.8257 5.20893 20.3887C6.94292 18.1447 7.99995 15.2163 7.99995 12Z" fill="currentColor" />
    <path d="M4.99995 11L18.9999 11C19.5522 11 19.9999 11.4477 19.9999 12C19.9999 12.5523 19.5522 13 18.9999 13L4.99995 13C4.44766 13 3.99995 12.5523 3.99995 12C3.99995 11.4477 4.44766 11 4.99995 11Z" fill="currentColor" />
</svg>