<svg xmlns="http://www.w3.org/2000/svg" width="24" height="24" viewBox="0 0 24 24" fill="none">
    <path d="M16.6035 14.168C17.3475 12.7627 19.3542 12.7453 20.122 14.1377L21.8759 17.3174C22.1424 17.801 21.9659 18.4092 21.4824 18.6758C20.9989 18.9421 20.3906 18.7666 20.124 18.2832L18.3711 15.1035L16.9443 17.7988C16.1931 19.2176 14.1605 19.2174 13.4092 17.7988L12 15.1377L10.5908 17.7988C9.83944 19.2174 7.80684 19.2176 7.05564 17.7988L5.62888 15.1035L3.87595 18.2832C3.6093 18.7666 3.00107 18.9421 2.51755 18.6758C2.03405 18.4092 1.85757 17.801 2.124 17.3174L3.8779 14.1377C4.64576 12.7453 6.65248 12.7627 7.39646 14.168L8.82321 16.8623L10.2324 14.2012C10.9837 12.7826 13.0163 12.7825 13.7676 14.2012L15.1767 16.8623L16.6035 14.168Z" fill="currentColor" />
    <path d="M16.6035 6.16798C17.3475 4.76269 19.3542 4.74532 20.122 6.13771L21.8759 9.3174C22.1424 9.80096 21.9659 10.4092 21.4824 10.6758C20.9989 10.9421 20.3906 10.7666 20.124 10.2832L18.3711 7.10353L16.9443 9.79884C16.1931 11.2176 14.1605 11.2174 13.4092 9.79884L12 7.13771L10.5908 9.79884C9.83944 11.2174 7.80684 11.2176 7.05564 9.79884L5.62888 7.10353L3.87595 10.2832C3.6093 10.7666 3.00107 10.9421 2.51755 10.6758C2.03405 10.4092 1.85757 9.80096 2.124 9.3174L3.8779 6.13771C4.64576 4.74532 6.65248 4.76269 7.39646 6.16798L8.82321 8.86232L10.2324 6.20119C10.9837 4.78255 13.0163 4.78255 13.7676 6.20119L15.1767 8.86232L16.6035 6.16798Z" fill="currentColor" />
</svg>