<svg xmlns="http://www.w3.org/2000/svg" width="24" height="24" viewBox="0 0 24 24" fill="none">
    <path d="M10.9996 19.9997V18.3307C10.9996 13.9775 9.87691 9.68962 7.73787 5.87469C7.1812 4.88232 5.78597 4.69293 4.97615 5.51824C4.48011 6.02389 4.36073 6.77273 4.66756 7.39812L5.13728 8.35515C5.3805 8.85089 5.17588 9.4497 4.68025 9.69305C4.18445 9.9363 3.58564 9.7318 3.34236 9.23601L2.87263 8.27898C2.18949 6.88657 2.46324 5.22478 3.54939 4.11785C5.28583 2.34828 8.26824 2.73241 9.48201 4.89715C11.7877 9.00927 12.9996 13.6332 12.9996 18.3307V19.9997C12.9996 20.552 12.5519 20.9997 11.9996 20.9997C11.4474 20.9995 10.9996 20.5519 10.9996 19.9997Z" fill="currentColor" />
    <path d="M11 19.9997V18.3308C11 13.6332 12.212 9.00925 14.5176 4.89716C15.7314 2.7324 18.7147 2.34822 20.4512 4.11786C21.5371 5.22479 21.811 6.88669 21.1279 8.27899L20.6582 9.23602C20.4149 9.73185 19.8152 9.93632 19.3193 9.69306C18.8239 9.44963 18.6191 8.85082 18.8623 8.35517L19.332 7.39813C19.6389 6.77268 19.5196 6.0239 19.0234 5.51825C18.2136 4.69292 16.8183 4.88222 16.2617 5.8747C14.1227 9.68963 13 13.9775 13 18.3308V19.9997C13 20.552 12.5523 20.9997 12 20.9997C11.4477 20.9997 11 20.552 11 19.9997Z" fill="currentColor" />
</svg>