<svg xmlns="http://www.w3.org/2000/svg" width="24" height="24" viewBox="0 0 24 24" fill="none">
    <path d="M16.1426 11.1426C16.1424 8.85467 14.2879 7 12 7C9.71206 7 7.85757 8.85467 7.85742 11.1426C7.85742 12.3797 8.39817 13.4894 9.25977 14.25C9.5715 14.5251 9.68025 14.9646 9.5332 15.3535C9.38616 15.7423 9.01429 15.9998 8.59863 16H3C2.44772 16 2 15.5523 2 15C2 14.4477 2.44772 14 3 14H6.56055C6.11143 13.1466 5.85742 12.1739 5.85742 11.1426C5.85757 7.7501 8.60749 5 12 5C15.3925 5 18.1424 7.7501 18.1426 11.1426C18.1426 12.1739 17.8886 13.1466 17.4395 14H21C21.5523 14 22 14.4477 22 15C22 15.5523 21.5523 16 21 16H15.4014C14.9857 15.9998 14.6138 15.7423 14.4668 15.3535C14.3197 14.9646 14.4285 14.5251 14.7402 14.25C15.6018 13.4894 16.1426 12.3797 16.1426 11.1426Z" fill="currentColor" />
    <path d="M21 17.25C21.5523 17.25 22 17.6977 22 18.25C22 18.8023 21.5523 19.25 21 19.25H3C2.44772 19.25 2 18.8023 2 18.25C2 17.6977 2.44772 17.25 3 17.25H21Z" fill="currentColor" />
</svg>